{
    "header": {
      "keySignatures": [],
      "meta": [],
      "name": "",
      "ppq": 384,
      "tempos": [
        {
          "bpm": 114.0001710002565,
          "ticks": 0
        }
      ],
      "timeSignatures": [
        {
          "ticks": 0,
          "timeSignature": [
            1,
            4
          ],
          "measures": 0
        }
      ]
    },
    "tracks": [
      {
        "channel": 0,
        "controlChanges": {},
        "pitchBends": [],
        "instrument": {
          "family": "piano",
          "number": 0,
          "name": "acoustic grand piano"
        },
        "name": "Elec. Piano (Classic)",
        "notes": [
          {
            "duration": 0.13157875000000274,
            "durationTicks": 96,
            "midi": 48,
            "name": "C3",
            "ticks": 24576,
            "time": 33.68416,
            "velocity": 0.3937007874015748
          },
          {
            "duration": 0.13157875000000274,
            "durationTicks": 96,
            "midi": 36,
            "name": "C2",
            "ticks": 24576,
            "time": 33.68416,
            "velocity": 0.3937007874015748
          },
          {
            "duration": 0.13157875000000274,
            "durationTicks": 96,
            "midi": 67,
            "name": "G4",
            "ticks": 24768,
            "time": 33.9473175,
            "velocity": 0.3937007874015748
          },
          {
            "duration": 0.13157875000000274,
            "durationTicks": 96,
            "midi": 72,
            "name": "C5",
            "ticks": 24768,
            "time": 33.9473175,
            "velocity": 0.3937007874015748
          },
          {
            "duration": 0.13157875000000274,
            "durationTicks": 96,
            "midi": 63,
            "name": "D#4",
            "ticks": 24768,
            "time": 33.9473175,
            "velocity": 0.3937007874015748
          },
          {
            "duration": 0.13157875000000274,
            "durationTicks": 96,
            "midi": 36,
            "name": "C2",
            "ticks": 24960,
            "time": 34.210474999999995,
            "velocity": 0.3937007874015748
          },
          {
            "duration": 0.13157875000000274,
            "durationTicks": 96,
            "midi": 48,
            "name": "C3",
            "ticks": 24960,
            "time": 34.210474999999995,
            "velocity": 0.3937007874015748
          },
          {
            "duration": 0.13157874999999564,
            "durationTicks": 96,
            "midi": 67,
            "name": "G4",
            "ticks": 25152,
            "time": 34.4736325,
            "velocity": 0.3937007874015748
          },
          {
            "duration": 0.13157874999999564,
            "durationTicks": 96,
            "midi": 72,
            "name": "C5",
            "ticks": 25152,
            "time": 34.4736325,
            "velocity": 0.3937007874015748
          },
          {
            "duration": 0.13157874999999564,
            "durationTicks": 96,
            "midi": 63,
            "name": "D#4",
            "ticks": 25152,
            "time": 34.4736325,
            "velocity": 0.3937007874015748
          },
          {
            "duration": 0.13157875000000274,
            "durationTicks": 96,
            "midi": 51,
            "name": "D#3",
            "ticks": 25344,
            "time": 34.73679,
            "velocity": 0.3937007874015748
          },
          {
            "duration": 0.13157875000000274,
            "durationTicks": 96,
            "midi": 39,
            "name": "D#2",
            "ticks": 25344,
            "time": 34.73679,
            "velocity": 0.3937007874015748
          },
          {
            "duration": 0.13157875000000274,
            "durationTicks": 96,
            "midi": 67,
            "name": "G4",
            "ticks": 25536,
            "time": 34.9999475,
            "velocity": 0.3937007874015748
          },
          {
            "duration": 0.13157875000000274,
            "durationTicks": 96,
            "midi": 63,
            "name": "D#4",
            "ticks": 25536,
            "time": 34.9999475,
            "velocity": 0.3937007874015748
          },
          {
            "duration": 0.13157875000000274,
            "durationTicks": 96,
            "midi": 58,
            "name": "A#3",
            "ticks": 25536,
            "time": 34.9999475,
            "velocity": 0.3937007874015748
          },
          {
            "duration": 0.13157875000000274,
            "durationTicks": 96,
            "midi": 39,
            "name": "D#2",
            "ticks": 25728,
            "time": 35.263104999999996,
            "velocity": 0.3937007874015748
          },
          {
            "duration": 0.13157875000000274,
            "durationTicks": 96,
            "midi": 51,
            "name": "D#3",
            "ticks": 25728,
            "time": 35.263104999999996,
            "velocity": 0.3937007874015748
          },
          {
            "duration": 0.13157874999999564,
            "durationTicks": 96,
            "midi": 58,
            "name": "A#3",
            "ticks": 25920,
            "time": 35.5262625,
            "velocity": 0.3937007874015748
          },
          {
            "duration": 0.13157874999999564,
            "durationTicks": 96,
            "midi": 63,
            "name": "D#4",
            "ticks": 25920,
            "time": 35.5262625,
            "velocity": 0.3937007874015748
          },
          {
            "duration": 0.13157874999999564,
            "durationTicks": 96,
            "midi": 67,
            "name": "G4",
            "ticks": 25920,
            "time": 35.5262625,
            "velocity": 0.3937007874015748
          },
          {
            "duration": 0.13157874999999564,
            "durationTicks": 96,
            "midi": 32,
            "name": "G#1",
            "ticks": 26112,
            "time": 35.78942,
            "velocity": 0.3937007874015748
          },
          {
            "duration": 0.13157874999999564,
            "durationTicks": 96,
            "midi": 44,
            "name": "G#2",
            "ticks": 26112,
            "time": 35.78942,
            "velocity": 0.3937007874015748
          },
          {
            "duration": 0.13157875000000274,
            "durationTicks": 96,
            "midi": 68,
            "name": "G#4",
            "ticks": 26304,
            "time": 36.0525775,
            "velocity": 0.3937007874015748
          },
          {
            "duration": 0.13157875000000274,
            "durationTicks": 96,
            "midi": 63,
            "name": "D#4",
            "ticks": 26304,
            "time": 36.0525775,
            "velocity": 0.3937007874015748
          },
          {
            "duration": 0.13157875000000274,
            "durationTicks": 96,
            "midi": 60,
            "name": "C4",
            "ticks": 26304,
            "time": 36.0525775,
            "velocity": 0.3937007874015748
          },
          {
            "duration": 0.13157875000000274,
            "durationTicks": 96,
            "midi": 44,
            "name": "G#2",
            "ticks": 26496,
            "time": 36.315735,
            "velocity": 0.3937007874015748
          },
          {
            "duration": 0.13157875000000274,
            "durationTicks": 96,
            "midi": 32,
            "name": "G#1",
            "ticks": 26496,
            "time": 36.315735,
            "velocity": 0.3937007874015748
          },
          {
            "duration": 0.13157875000000274,
            "durationTicks": 96,
            "midi": 63,
            "name": "D#4",
            "ticks": 26688,
            "time": 36.578892499999995,
            "velocity": 0.3937007874015748
          },
          {
            "duration": 0.13157875000000274,
            "durationTicks": 96,
            "midi": 68,
            "name": "G#4",
            "ticks": 26688,
            "time": 36.578892499999995,
            "velocity": 0.3937007874015748
          },
          {
            "duration": 0.13157875000000274,
            "durationTicks": 96,
            "midi": 60,
            "name": "C4",
            "ticks": 26688,
            "time": 36.578892499999995,
            "velocity": 0.3937007874015748
          },
          {
            "duration": 0.13157874999999564,
            "durationTicks": 96,
            "midi": 43,
            "name": "G2",
            "ticks": 26880,
            "time": 36.84205,
            "velocity": 0.3937007874015748
          },
          {
            "duration": 0.13157874999999564,
            "durationTicks": 96,
            "midi": 31,
            "name": "G1",
            "ticks": 26880,
            "time": 36.84205,
            "velocity": 0.3937007874015748
          },
          {
            "duration": 0.13157875000000274,
            "durationTicks": 96,
            "midi": 59,
            "name": "B3",
            "ticks": 27072,
            "time": 37.1052075,
            "velocity": 0.3937007874015748
          },
          {
            "duration": 0.13157875000000274,
            "durationTicks": 96,
            "midi": 68,
            "name": "G#4",
            "ticks": 27072,
            "time": 37.1052075,
            "velocity": 0.3937007874015748
          },
          {
            "duration": 0.13157875000000274,
            "durationTicks": 96,
            "midi": 62,
            "name": "D4",
            "ticks": 27072,
            "time": 37.1052075,
            "velocity": 0.3937007874015748
          },
          {
            "duration": 0.13157875000000274,
            "durationTicks": 96,
            "midi": 43,
            "name": "G2",
            "ticks": 27264,
            "time": 37.368365,
            "velocity": 0.3937007874015748
          },
          {
            "duration": 0.13157875000000274,
            "durationTicks": 96,
            "midi": 31,
            "name": "G1",
            "ticks": 27264,
            "time": 37.368365,
            "velocity": 0.3937007874015748
          },
          {
            "duration": 0.13157875000000274,
            "durationTicks": 96,
            "midi": 59,
            "name": "B3",
            "ticks": 27456,
            "time": 37.631522499999996,
            "velocity": 0.3937007874015748
          },
          {
            "duration": 0.13157875000000274,
            "durationTicks": 96,
            "midi": 67,
            "name": "G4",
            "ticks": 27456,
            "time": 37.631522499999996,
            "velocity": 0.3937007874015748
          },
          {
            "duration": 0.13157875000000274,
            "durationTicks": 96,
            "midi": 62,
            "name": "D4",
            "ticks": 27456,
            "time": 37.631522499999996,
            "velocity": 0.3937007874015748
          },
          {
            "duration": 0.13157874999999564,
            "durationTicks": 96,
            "midi": 36,
            "name": "C2",
            "ticks": 27648,
            "time": 37.89468,
            "velocity": 0.3937007874015748
          },
          {
            "duration": 0.13157874999999564,
            "durationTicks": 96,
            "midi": 48,
            "name": "C3",
            "ticks": 27648,
            "time": 37.89468,
            "velocity": 0.3937007874015748
          },
          {
            "duration": 0.13157874999999564,
            "durationTicks": 96,
            "midi": 63,
            "name": "D#4",
            "ticks": 27840,
            "time": 38.1578375,
            "velocity": 0.3937007874015748
          },
          {
            "duration": 0.13157874999999564,
            "durationTicks": 96,
            "midi": 72,
            "name": "C5",
            "ticks": 27840,
            "time": 38.1578375,
            "velocity": 0.3937007874015748
          },
          {
            "duration": 0.13157874999999564,
            "durationTicks": 96,
            "midi": 67,
            "name": "G4",
            "ticks": 27840,
            "time": 38.1578375,
            "velocity": 0.3937007874015748
          },
          {
            "duration": 0.13157875000000274,
            "durationTicks": 96,
            "midi": 48,
            "name": "C3",
            "ticks": 28032,
            "time": 38.420995,
            "velocity": 0.3937007874015748
          },
          {
            "duration": 0.13157875000000274,
            "durationTicks": 96,
            "midi": 36,
            "name": "C2",
            "ticks": 28032,
            "time": 38.420995,
            "velocity": 0.3937007874015748
          },
          {
            "duration": 0.13157875000000274,
            "durationTicks": 96,
            "midi": 72,
            "name": "C5",
            "ticks": 28224,
            "time": 38.684152499999996,
            "velocity": 0.3937007874015748
          },
          {
            "duration": 0.13157875000000274,
            "durationTicks": 96,
            "midi": 67,
            "name": "G4",
            "ticks": 28224,
            "time": 38.684152499999996,
            "velocity": 0.3937007874015748
          },
          {
            "duration": 0.13157875000000274,
            "durationTicks": 96,
            "midi": 63,
            "name": "D#4",
            "ticks": 28224,
            "time": 38.684152499999996,
            "velocity": 0.3937007874015748
          },
          {
            "duration": 0.13157874999999564,
            "durationTicks": 96,
            "midi": 39,
            "name": "D#2",
            "ticks": 28416,
            "time": 38.94731,
            "velocity": 0.3937007874015748
          },
          {
            "duration": 0.13157874999999564,
            "durationTicks": 96,
            "midi": 51,
            "name": "D#3",
            "ticks": 28416,
            "time": 38.94731,
            "velocity": 0.3937007874015748
          },
          {
            "duration": 0.13157874999999564,
            "durationTicks": 96,
            "midi": 58,
            "name": "A#3",
            "ticks": 28608,
            "time": 39.2104675,
            "velocity": 0.3937007874015748
          },
          {
            "duration": 0.13157874999999564,
            "durationTicks": 96,
            "midi": 63,
            "name": "D#4",
            "ticks": 28608,
            "time": 39.2104675,
            "velocity": 0.3937007874015748
          },
          {
            "duration": 0.13157874999999564,
            "durationTicks": 96,
            "midi": 67,
            "name": "G4",
            "ticks": 28608,
            "time": 39.2104675,
            "velocity": 0.3937007874015748
          },
          {
            "duration": 0.13157875000000274,
            "durationTicks": 96,
            "midi": 51,
            "name": "D#3",
            "ticks": 28800,
            "time": 39.473625,
            "velocity": 0.3937007874015748
          },
          {
            "duration": 0.13157875000000274,
            "durationTicks": 96,
            "midi": 39,
            "name": "D#2",
            "ticks": 28800,
            "time": 39.473625,
            "velocity": 0.3937007874015748
          },
          {
            "duration": 0.13157875000000274,
            "durationTicks": 96,
            "midi": 58,
            "name": "A#3",
            "ticks": 28992,
            "time": 39.7367825,
            "velocity": 0.3937007874015748
          },
          {
            "duration": 0.13157875000000274,
            "durationTicks": 96,
            "midi": 63,
            "name": "D#4",
            "ticks": 28992,
            "time": 39.7367825,
            "velocity": 0.3937007874015748
          },
          {
            "duration": 0.13157875000000274,
            "durationTicks": 96,
            "midi": 67,
            "name": "G4",
            "ticks": 28992,
            "time": 39.7367825,
            "velocity": 0.3937007874015748
          },
          {
            "duration": 0.13157875000000274,
            "durationTicks": 96,
            "midi": 32,
            "name": "G#1",
            "ticks": 29184,
            "time": 39.999939999999995,
            "velocity": 0.3937007874015748
          },
          {
            "duration": 0.13157875000000274,
            "durationTicks": 96,
            "midi": 44,
            "name": "G#2",
            "ticks": 29184,
            "time": 39.999939999999995,
            "velocity": 0.3937007874015748
          },
          {
            "duration": 0.13157874999999564,
            "durationTicks": 96,
            "midi": 68,
            "name": "G#4",
            "ticks": 29376,
            "time": 40.2630975,
            "velocity": 0.3937007874015748
          },
          {
            "duration": 0.13157874999999564,
            "durationTicks": 96,
            "midi": 63,
            "name": "D#4",
            "ticks": 29376,
            "time": 40.2630975,
            "velocity": 0.3937007874015748
          },
          {
            "duration": 0.13157874999999564,
            "durationTicks": 96,
            "midi": 60,
            "name": "C4",
            "ticks": 29376,
            "time": 40.2630975,
            "velocity": 0.3937007874015748
          },
          {
            "duration": 0.13157875000000274,
            "durationTicks": 96,
            "midi": 32,
            "name": "G#1",
            "ticks": 29568,
            "time": 40.526255,
            "velocity": 0.3937007874015748
          },
          {
            "duration": 0.13157875000000274,
            "durationTicks": 96,
            "midi": 44,
            "name": "G#2",
            "ticks": 29568,
            "time": 40.526255,
            "velocity": 0.3937007874015748
          },
          {
            "duration": 0.13157875000000274,
            "durationTicks": 96,
            "midi": 63,
            "name": "D#4",
            "ticks": 29760,
            "time": 40.7894125,
            "velocity": 0.3937007874015748
          },
          {
            "duration": 0.13157875000000274,
            "durationTicks": 96,
            "midi": 68,
            "name": "G#4",
            "ticks": 29760,
            "time": 40.7894125,
            "velocity": 0.3937007874015748
          },
          {
            "duration": 0.13157875000000274,
            "durationTicks": 96,
            "midi": 60,
            "name": "C4",
            "ticks": 29760,
            "time": 40.7894125,
            "velocity": 0.3937007874015748
          },
          {
            "duration": 0.13157875000000274,
            "durationTicks": 96,
            "midi": 43,
            "name": "G2",
            "ticks": 29952,
            "time": 41.052569999999996,
            "velocity": 0.3937007874015748
          },
          {
            "duration": 0.13157875000000274,
            "durationTicks": 96,
            "midi": 31,
            "name": "G1",
            "ticks": 29952,
            "time": 41.052569999999996,
            "velocity": 0.3937007874015748
          },
          {
            "duration": 0.13157874999999564,
            "durationTicks": 96,
            "midi": 67,
            "name": "G4",
            "ticks": 30144,
            "time": 41.3157275,
            "velocity": 0.3937007874015748
          },
          {
            "duration": 0.13157874999999564,
            "durationTicks": 96,
            "midi": 59,
            "name": "B3",
            "ticks": 30144,
            "time": 41.3157275,
            "velocity": 0.3937007874015748
          },
          {
            "duration": 0.13157874999999564,
            "durationTicks": 96,
            "midi": 62,
            "name": "D4",
            "ticks": 30144,
            "time": 41.3157275,
            "velocity": 0.3937007874015748
          },
          {
            "duration": 0.13157874999999564,
            "durationTicks": 96,
            "midi": 43,
            "name": "G2",
            "ticks": 30336,
            "time": 41.578885,
            "velocity": 0.3937007874015748
          },
          {
            "duration": 0.13157874999999564,
            "durationTicks": 96,
            "midi": 31,
            "name": "G1",
            "ticks": 30336,
            "time": 41.578885,
            "velocity": 0.3937007874015748
          },
          {
            "duration": 0.13157875000000274,
            "durationTicks": 96,
            "midi": 62,
            "name": "D4",
            "ticks": 30528,
            "time": 41.8420425,
            "velocity": 0.3937007874015748
          },
          {
            "duration": 0.13157875000000274,
            "durationTicks": 96,
            "midi": 59,
            "name": "B3",
            "ticks": 30528,
            "time": 41.8420425,
            "velocity": 0.3937007874015748
          },
          {
            "duration": 0.13157875000000274,
            "durationTicks": 96,
            "midi": 67,
            "name": "G4",
            "ticks": 30528,
            "time": 41.8420425,
            "velocity": 0.3937007874015748
          },
          {
            "duration": 0.13157875000000274,
            "durationTicks": 96,
            "midi": 29,
            "name": "F1",
            "ticks": 30720,
            "time": 42.105199999999996,
            "velocity": 0.3937007874015748
          },
          {
            "duration": 0.13157875000000274,
            "durationTicks": 96,
            "midi": 41,
            "name": "F2",
            "ticks": 30720,
            "time": 42.105199999999996,
            "velocity": 0.3937007874015748
          },
          {
            "duration": 0.13157875000000274,
            "durationTicks": 96,
            "midi": 56,
            "name": "G#3",
            "ticks": 30912,
            "time": 42.368357499999995,
            "velocity": 0.3937007874015748
          },
          {
            "duration": 0.13157875000000274,
            "durationTicks": 96,
            "midi": 53,
            "name": "F3",
            "ticks": 30912,
            "time": 42.368357499999995,
            "velocity": 0.3937007874015748
          },
          {
            "duration": 0.13157875000000274,
            "durationTicks": 96,
            "midi": 60,
            "name": "C4",
            "ticks": 30912,
            "time": 42.368357499999995,
            "velocity": 0.3937007874015748
          },
          {
            "duration": 0.13157874999999564,
            "durationTicks": 96,
            "midi": 41,
            "name": "F2",
            "ticks": 31104,
            "time": 42.631515,
            "velocity": 0.3937007874015748
          },
          {
            "duration": 0.13157874999999564,
            "durationTicks": 96,
            "midi": 29,
            "name": "F1",
            "ticks": 31104,
            "time": 42.631515,
            "velocity": 0.3937007874015748
          },
          {
            "duration": 0.13157875000000274,
            "durationTicks": 96,
            "midi": 53,
            "name": "F3",
            "ticks": 31296,
            "time": 42.8946725,
            "velocity": 0.3937007874015748
          },
          {
            "duration": 0.13157875000000274,
            "durationTicks": 96,
            "midi": 60,
            "name": "C4",
            "ticks": 31296,
            "time": 42.8946725,
            "velocity": 0.3937007874015748
          },
          {
            "duration": 0.13157875000000274,
            "durationTicks": 96,
            "midi": 56,
            "name": "G#3",
            "ticks": 31296,
            "time": 42.8946725,
            "velocity": 0.3937007874015748
          },
          {
            "duration": 0.13157875000000274,
            "durationTicks": 96,
            "midi": 39,
            "name": "D#2",
            "ticks": 31488,
            "time": 43.15783,
            "velocity": 0.3937007874015748
          },
          {
            "duration": 0.13157875000000274,
            "durationTicks": 96,
            "midi": 27,
            "name": "D#1",
            "ticks": 31488,
            "time": 43.15783,
            "velocity": 0.3937007874015748
          },
          {
            "duration": 0.13157875000000274,
            "durationTicks": 96,
            "midi": 60,
            "name": "C4",
            "ticks": 31680,
            "time": 43.420987499999995,
            "velocity": 0.3937007874015748
          },
          {
            "duration": 0.13157875000000274,
            "durationTicks": 96,
            "midi": 56,
            "name": "G#3",
            "ticks": 31680,
            "time": 43.420987499999995,
            "velocity": 0.3937007874015748
          },
          {
            "duration": 0.13157875000000274,
            "durationTicks": 96,
            "midi": 51,
            "name": "D#3",
            "ticks": 31680,
            "time": 43.420987499999995,
            "velocity": 0.3937007874015748
          },
          {
            "duration": 0.13157874999999564,
            "durationTicks": 96,
            "midi": 27,
            "name": "D#1",
            "ticks": 31872,
            "time": 43.684145,
            "velocity": 0.3937007874015748
          },
          {
            "duration": 0.13157874999999564,
            "durationTicks": 96,
            "midi": 39,
            "name": "D#2",
            "ticks": 31872,
            "time": 43.684145,
            "velocity": 0.3937007874015748
          },
          {
            "duration": 0.13157874999999564,
            "durationTicks": 96,
            "midi": 56,
            "name": "G#3",
            "ticks": 32064,
            "time": 43.9473025,
            "velocity": 0.3937007874015748
          },
          {
            "duration": 0.13157874999999564,
            "durationTicks": 96,
            "midi": 51,
            "name": "D#3",
            "ticks": 32064,
            "time": 43.9473025,
            "velocity": 0.3937007874015748
          },
          {
            "duration": 0.13157874999999564,
            "durationTicks": 96,
            "midi": 60,
            "name": "C4",
            "ticks": 32064,
            "time": 43.9473025,
            "velocity": 0.3937007874015748
          },
          {
            "duration": 0.13157875000000274,
            "durationTicks": 96,
            "midi": 26,
            "name": "D1",
            "ticks": 32256,
            "time": 44.21046,
            "velocity": 0.3937007874015748
          },
          {
            "duration": 0.13157875000000274,
            "durationTicks": 96,
            "midi": 38,
            "name": "D2",
            "ticks": 32256,
            "time": 44.21046,
            "velocity": 0.3937007874015748
          },
          {
            "duration": 0.13157875000000274,
            "durationTicks": 96,
            "midi": 57,
            "name": "A3",
            "ticks": 32448,
            "time": 44.473617499999996,
            "velocity": 0.3937007874015748
          },
          {
            "duration": 0.13157875000000274,
            "durationTicks": 96,
            "midi": 60,
            "name": "C4",
            "ticks": 32448,
            "time": 44.473617499999996,
            "velocity": 0.3937007874015748
          },
          {
            "duration": 0.13157875000000274,
            "durationTicks": 96,
            "midi": 54,
            "name": "F#3",
            "ticks": 32448,
            "time": 44.473617499999996,
            "velocity": 0.3937007874015748
          },
          {
            "duration": 0.13157874999999564,
            "durationTicks": 96,
            "midi": 26,
            "name": "D1",
            "ticks": 32640,
            "time": 44.736775,
            "velocity": 0.3937007874015748
          },
          {
            "duration": 0.13157874999999564,
            "durationTicks": 96,
            "midi": 38,
            "name": "D2",
            "ticks": 32640,
            "time": 44.736775,
            "velocity": 0.3937007874015748
          },
          {
            "duration": 0.13157874999999564,
            "durationTicks": 96,
            "midi": 54,
            "name": "F#3",
            "ticks": 32832,
            "time": 44.9999325,
            "velocity": 0.3937007874015748
          },
          {
            "duration": 0.13157874999999564,
            "durationTicks": 96,
            "midi": 57,
            "name": "A3",
            "ticks": 32832,
            "time": 44.9999325,
            "velocity": 0.3937007874015748
          },
          {
            "duration": 0.13157874999999564,
            "durationTicks": 96,
            "midi": 60,
            "name": "C4",
            "ticks": 32832,
            "time": 44.9999325,
            "velocity": 0.3937007874015748
          },
          {
            "duration": 0.13157875000000274,
            "durationTicks": 96,
            "midi": 31,
            "name": "G1",
            "ticks": 33024,
            "time": 45.26309,
            "velocity": 0.3937007874015748
          },
          {
            "duration": 0.13157875000000274,
            "durationTicks": 96,
            "midi": 43,
            "name": "G2",
            "ticks": 33024,
            "time": 45.26309,
            "velocity": 0.3937007874015748
          },
          {
            "duration": 0.13157875000000274,
            "durationTicks": 96,
            "midi": 59,
            "name": "B3",
            "ticks": 33216,
            "time": 45.5262475,
            "velocity": 0.3937007874015748
          },
          {
            "duration": 0.13157875000000274,
            "durationTicks": 96,
            "midi": 62,
            "name": "D4",
            "ticks": 33216,
            "time": 45.5262475,
            "velocity": 0.3937007874015748
          },
          {
            "duration": 0.13157875000000274,
            "durationTicks": 96,
            "midi": 53,
            "name": "F3",
            "ticks": 33216,
            "time": 45.5262475,
            "velocity": 0.3937007874015748
          },
          {
            "duration": 0.13157875000000274,
            "durationTicks": 96,
            "midi": 43,
            "name": "G2",
            "ticks": 33408,
            "time": 45.789404999999995,
            "velocity": 0.3937007874015748
          },
          {
            "duration": 0.13157875000000274,
            "durationTicks": 96,
            "midi": 31,
            "name": "G1",
            "ticks": 33408,
            "time": 45.789404999999995,
            "velocity": 0.3937007874015748
          },
          {
            "duration": 0.13157874999999564,
            "durationTicks": 96,
            "midi": 53,
            "name": "F3",
            "ticks": 33600,
            "time": 46.0525625,
            "velocity": 0.3937007874015748
          },
          {
            "duration": 0.13157874999999564,
            "durationTicks": 96,
            "midi": 59,
            "name": "B3",
            "ticks": 33600,
            "time": 46.0525625,
            "velocity": 0.3937007874015748
          },
          {
            "duration": 0.13157874999999564,
            "durationTicks": 96,
            "midi": 62,
            "name": "D4",
            "ticks": 33600,
            "time": 46.0525625,
            "velocity": 0.3937007874015748
          },
          {
            "duration": 0.13157874999999564,
            "durationTicks": 96,
            "midi": 36,
            "name": "C2",
            "ticks": 33792,
            "time": 46.31572,
            "velocity": 0.3937007874015748
          },
          {
            "duration": 0.13157874999999564,
            "durationTicks": 96,
            "midi": 48,
            "name": "C3",
            "ticks": 33792,
            "time": 46.31572,
            "velocity": 0.3937007874015748
          },
          {
            "duration": 0.13157875000000274,
            "durationTicks": 96,
            "midi": 63,
            "name": "D#4",
            "ticks": 33984,
            "time": 46.5788775,
            "velocity": 0.3937007874015748
          },
          {
            "duration": 0.13157875000000274,
            "durationTicks": 96,
            "midi": 67,
            "name": "G4",
            "ticks": 33984,
            "time": 46.5788775,
            "velocity": 0.3937007874015748
          },
          {
            "duration": 0.13157875000000274,
            "durationTicks": 96,
            "midi": 72,
            "name": "C5",
            "ticks": 33984,
            "time": 46.5788775,
            "velocity": 0.3937007874015748
          },
          {
            "duration": 0.13157875000000274,
            "durationTicks": 96,
            "midi": 36,
            "name": "C2",
            "ticks": 34176,
            "time": 46.842034999999996,
            "velocity": 0.3937007874015748
          },
          {
            "duration": 0.13157875000000274,
            "durationTicks": 96,
            "midi": 48,
            "name": "C3",
            "ticks": 34176,
            "time": 46.842034999999996,
            "velocity": 0.3937007874015748
          },
          {
            "duration": 0.13157874999999564,
            "durationTicks": 96,
            "midi": 63,
            "name": "D#4",
            "ticks": 34368,
            "time": 47.1051925,
            "velocity": 0.3937007874015748
          },
          {
            "duration": 0.13157874999999564,
            "durationTicks": 96,
            "midi": 67,
            "name": "G4",
            "ticks": 34368,
            "time": 47.1051925,
            "velocity": 0.3937007874015748
          },
          {
            "duration": 0.13157874999999564,
            "durationTicks": 96,
            "midi": 72,
            "name": "C5",
            "ticks": 34368,
            "time": 47.1051925,
            "velocity": 0.3937007874015748
          },
          {
            "duration": 0.13157874999999564,
            "durationTicks": 96,
            "midi": 39,
            "name": "D#2",
            "ticks": 34560,
            "time": 47.36835,
            "velocity": 0.3937007874015748
          },
          {
            "duration": 0.13157874999999564,
            "durationTicks": 96,
            "midi": 51,
            "name": "D#3",
            "ticks": 34560,
            "time": 47.36835,
            "velocity": 0.3937007874015748
          },
          {
            "duration": 0.13157875000000274,
            "durationTicks": 96,
            "midi": 58,
            "name": "A#3",
            "ticks": 34752,
            "time": 47.6315075,
            "velocity": 0.3937007874015748
          },
          {
            "duration": 0.13157875000000274,
            "durationTicks": 96,
            "midi": 63,
            "name": "D#4",
            "ticks": 34752,
            "time": 47.6315075,
            "velocity": 0.3937007874015748
          },
          {
            "duration": 0.13157875000000274,
            "durationTicks": 96,
            "midi": 67,
            "name": "G4",
            "ticks": 34752,
            "time": 47.6315075,
            "velocity": 0.3937007874015748
          },
          {
            "duration": 0.13157875000000274,
            "durationTicks": 96,
            "midi": 39,
            "name": "D#2",
            "ticks": 34944,
            "time": 47.894664999999996,
            "velocity": 0.3937007874015748
          },
          {
            "duration": 0.13157875000000274,
            "durationTicks": 96,
            "midi": 51,
            "name": "D#3",
            "ticks": 34944,
            "time": 47.894664999999996,
            "velocity": 0.3937007874015748
          },
          {
            "duration": 0.13157875000000274,
            "durationTicks": 96,
            "midi": 58,
            "name": "A#3",
            "ticks": 35136,
            "time": 48.157822499999995,
            "velocity": 0.3937007874015748
          },
          {
            "duration": 0.13157875000000274,
            "durationTicks": 96,
            "midi": 67,
            "name": "G4",
            "ticks": 35136,
            "time": 48.157822499999995,
            "velocity": 0.3937007874015748
          },
          {
            "duration": 0.13157875000000274,
            "durationTicks": 96,
            "midi": 63,
            "name": "D#4",
            "ticks": 35136,
            "time": 48.157822499999995,
            "velocity": 0.3937007874015748
          },
          {
            "duration": 0.13157874999999564,
            "durationTicks": 96,
            "midi": 44,
            "name": "G#2",
            "ticks": 35328,
            "time": 48.42098,
            "velocity": 0.3937007874015748
          },
          {
            "duration": 0.13157874999999564,
            "durationTicks": 96,
            "midi": 32,
            "name": "G#1",
            "ticks": 35328,
            "time": 48.42098,
            "velocity": 0.3937007874015748
          },
          {
            "duration": 0.13157875000000274,
            "durationTicks": 96,
            "midi": 68,
            "name": "G#4",
            "ticks": 35520,
            "time": 48.6841375,
            "velocity": 0.3937007874015748
          },
          {
            "duration": 0.13157875000000274,
            "durationTicks": 96,
            "midi": 63,
            "name": "D#4",
            "ticks": 35520,
            "time": 48.6841375,
            "velocity": 0.3937007874015748
          },
          {
            "duration": 0.13157875000000274,
            "durationTicks": 96,
            "midi": 60,
            "name": "C4",
            "ticks": 35520,
            "time": 48.6841375,
            "velocity": 0.3937007874015748
          },
          {
            "duration": 0.13157875000000274,
            "durationTicks": 96,
            "midi": 32,
            "name": "G#1",
            "ticks": 35712,
            "time": 48.947295,
            "velocity": 0.3937007874015748
          },
          {
            "duration": 0.13157875000000274,
            "durationTicks": 96,
            "midi": 44,
            "name": "G#2",
            "ticks": 35712,
            "time": 48.947295,
            "velocity": 0.3937007874015748
          },
          {
            "duration": 0.13157875000000274,
            "durationTicks": 96,
            "midi": 68,
            "name": "G#4",
            "ticks": 35904,
            "time": 49.210452499999995,
            "velocity": 0.3937007874015748
          },
          {
            "duration": 0.13157875000000274,
            "durationTicks": 96,
            "midi": 60,
            "name": "C4",
            "ticks": 35904,
            "time": 49.210452499999995,
            "velocity": 0.3937007874015748
          },
          {
            "duration": 0.13157875000000274,
            "durationTicks": 96,
            "midi": 63,
            "name": "D#4",
            "ticks": 35904,
            "time": 49.210452499999995,
            "velocity": 0.3937007874015748
          },
          {
            "duration": 0.13157874999999564,
            "durationTicks": 96,
            "midi": 31,
            "name": "G1",
            "ticks": 36096,
            "time": 49.47361,
            "velocity": 0.3937007874015748
          },
          {
            "duration": 0.13157874999999564,
            "durationTicks": 96,
            "midi": 43,
            "name": "G2",
            "ticks": 36096,
            "time": 49.47361,
            "velocity": 0.3937007874015748
          },
          {
            "duration": 0.13157874999999564,
            "durationTicks": 96,
            "midi": 67,
            "name": "G4",
            "ticks": 36288,
            "time": 49.7367675,
            "velocity": 0.3937007874015748
          },
          {
            "duration": 0.13157874999999564,
            "durationTicks": 96,
            "midi": 59,
            "name": "B3",
            "ticks": 36288,
            "time": 49.7367675,
            "velocity": 0.3937007874015748
          },
          {
            "duration": 0.13157874999999564,
            "durationTicks": 96,
            "midi": 62,
            "name": "D4",
            "ticks": 36288,
            "time": 49.7367675,
            "velocity": 0.3937007874015748
          },
          {
            "duration": 0.13157875000000274,
            "durationTicks": 96,
            "midi": 31,
            "name": "G1",
            "ticks": 36480,
            "time": 49.999925,
            "velocity": 0.3937007874015748
          },
          {
            "duration": 0.13157875000000274,
            "durationTicks": 96,
            "midi": 43,
            "name": "G2",
            "ticks": 36480,
            "time": 49.999925,
            "velocity": 0.3937007874015748
          },
          {
            "duration": 0.13157875000000274,
            "durationTicks": 96,
            "midi": 59,
            "name": "B3",
            "ticks": 36672,
            "time": 50.263082499999996,
            "velocity": 0.3937007874015748
          },
          {
            "duration": 0.13157875000000274,
            "durationTicks": 96,
            "midi": 62,
            "name": "D4",
            "ticks": 36672,
            "time": 50.263082499999996,
            "velocity": 0.3937007874015748
          },
          {
            "duration": 0.13157875000000274,
            "durationTicks": 96,
            "midi": 67,
            "name": "G4",
            "ticks": 36672,
            "time": 50.263082499999996,
            "velocity": 0.3937007874015748
          },
          {
            "duration": 0.13157874999999564,
            "durationTicks": 96,
            "midi": 48,
            "name": "C3",
            "ticks": 36864,
            "time": 50.52624,
            "velocity": 0.3937007874015748
          },
          {
            "duration": 0.13157874999999564,
            "durationTicks": 96,
            "midi": 67,
            "name": "G4",
            "ticks": 37056,
            "time": 50.7893975,
            "velocity": 0.3937007874015748
          },
          {
            "duration": 0.13157874999999564,
            "durationTicks": 96,
            "midi": 72,
            "name": "C5",
            "ticks": 37056,
            "time": 50.7893975,
            "velocity": 0.3937007874015748
          },
          {
            "duration": 0.13157874999999564,
            "durationTicks": 96,
            "midi": 63,
            "name": "D#4",
            "ticks": 37056,
            "time": 50.7893975,
            "velocity": 0.3937007874015748
          },
          {
            "duration": 0.13157875000000274,
            "durationTicks": 96,
            "midi": 48,
            "name": "C3",
            "ticks": 37248,
            "time": 51.052555,
            "velocity": 0.3937007874015748
          },
          {
            "duration": 0.13157875000000274,
            "durationTicks": 96,
            "midi": 67,
            "name": "G4",
            "ticks": 37440,
            "time": 51.3157125,
            "velocity": 0.3937007874015748
          },
          {
            "duration": 0.13157875000000274,
            "durationTicks": 96,
            "midi": 72,
            "name": "C5",
            "ticks": 37440,
            "time": 51.3157125,
            "velocity": 0.3937007874015748
          },
          {
            "duration": 0.13157875000000274,
            "durationTicks": 96,
            "midi": 63,
            "name": "D#4",
            "ticks": 37440,
            "time": 51.3157125,
            "velocity": 0.3937007874015748
          },
          {
            "duration": 0.13157875000000274,
            "durationTicks": 96,
            "midi": 51,
            "name": "D#3",
            "ticks": 37632,
            "time": 51.578869999999995,
            "velocity": 0.3937007874015748
          },
          {
            "duration": 0.13157874999999564,
            "durationTicks": 96,
            "midi": 58,
            "name": "A#3",
            "ticks": 37824,
            "time": 51.8420275,
            "velocity": 0.3937007874015748
          },
          {
            "duration": 0.13157874999999564,
            "durationTicks": 96,
            "midi": 63,
            "name": "D#4",
            "ticks": 37824,
            "time": 51.8420275,
            "velocity": 0.3937007874015748
          },
          {
            "duration": 0.13157874999999564,
            "durationTicks": 96,
            "midi": 67,
            "name": "G4",
            "ticks": 37824,
            "time": 51.8420275,
            "velocity": 0.3937007874015748
          },
          {
            "duration": 0.13157874999999564,
            "durationTicks": 96,
            "midi": 51,
            "name": "D#3",
            "ticks": 38016,
            "time": 52.105185,
            "velocity": 0.3937007874015748
          },
          {
            "duration": 0.13157875000000274,
            "durationTicks": 96,
            "midi": 67,
            "name": "G4",
            "ticks": 38208,
            "time": 52.3683425,
            "velocity": 0.3937007874015748
          },
          {
            "duration": 0.13157875000000274,
            "durationTicks": 96,
            "midi": 58,
            "name": "A#3",
            "ticks": 38208,
            "time": 52.3683425,
            "velocity": 0.3937007874015748
          },
          {
            "duration": 0.13157875000000274,
            "durationTicks": 96,
            "midi": 63,
            "name": "D#4",
            "ticks": 38208,
            "time": 52.3683425,
            "velocity": 0.3937007874015748
          },
          {
            "duration": 0.13157875000000274,
            "durationTicks": 96,
            "midi": 44,
            "name": "G#2",
            "ticks": 38400,
            "time": 52.631499999999996,
            "velocity": 0.3937007874015748
          },
          {
            "duration": 0.13157874999999564,
            "durationTicks": 96,
            "midi": 63,
            "name": "D#4",
            "ticks": 38592,
            "time": 52.8946575,
            "velocity": 0.3937007874015748
          },
          {
            "duration": 0.13157874999999564,
            "durationTicks": 96,
            "midi": 60,
            "name": "C4",
            "ticks": 38592,
            "time": 52.8946575,
            "velocity": 0.3937007874015748
          },
          {
            "duration": 0.13157874999999564,
            "durationTicks": 96,
            "midi": 68,
            "name": "G#4",
            "ticks": 38592,
            "time": 52.8946575,
            "velocity": 0.3937007874015748
          },
          {
            "duration": 0.13157874999999564,
            "durationTicks": 96,
            "midi": 44,
            "name": "G#2",
            "ticks": 38784,
            "time": 53.157815,
            "velocity": 0.3937007874015748
          },
          {
            "duration": 0.13157875000000274,
            "durationTicks": 96,
            "midi": 68,
            "name": "G#4",
            "ticks": 38976,
            "time": 53.4209725,
            "velocity": 0.3937007874015748
          },
          {
            "duration": 0.13157875000000274,
            "durationTicks": 96,
            "midi": 60,
            "name": "C4",
            "ticks": 38976,
            "time": 53.4209725,
            "velocity": 0.3937007874015748
          },
          {
            "duration": 0.13157875000000274,
            "durationTicks": 96,
            "midi": 63,
            "name": "D#4",
            "ticks": 38976,
            "time": 53.4209725,
            "velocity": 0.3937007874015748
          },
          {
            "duration": 0.13157875000000274,
            "durationTicks": 96,
            "midi": 43,
            "name": "G2",
            "ticks": 39168,
            "time": 53.684129999999996,
            "velocity": 0.3937007874015748
          },
          {
            "duration": 0.13157875000000274,
            "durationTicks": 96,
            "midi": 62,
            "name": "D4",
            "ticks": 39360,
            "time": 53.947287499999995,
            "velocity": 0.3937007874015748
          },
          {
            "duration": 0.13157875000000274,
            "durationTicks": 96,
            "midi": 59,
            "name": "B3",
            "ticks": 39360,
            "time": 53.947287499999995,
            "velocity": 0.3937007874015748
          },
          {
            "duration": 0.13157875000000274,
            "durationTicks": 96,
            "midi": 67,
            "name": "G4",
            "ticks": 39360,
            "time": 53.947287499999995,
            "velocity": 0.3937007874015748
          },
          {
            "duration": 0.13157874999999564,
            "durationTicks": 96,
            "midi": 43,
            "name": "G2",
            "ticks": 39552,
            "time": 54.210445,
            "velocity": 0.3937007874015748
          },
          {
            "duration": 0.13157875000000274,
            "durationTicks": 96,
            "midi": 67,
            "name": "G4",
            "ticks": 39744,
            "time": 54.4736025,
            "velocity": 0.3937007874015748
          },
          {
            "duration": 0.13157875000000274,
            "durationTicks": 96,
            "midi": 62,
            "name": "D4",
            "ticks": 39744,
            "time": 54.4736025,
            "velocity": 0.3937007874015748
          },
          {
            "duration": 0.13157875000000274,
            "durationTicks": 96,
            "midi": 59,
            "name": "B3",
            "ticks": 39744,
            "time": 54.4736025,
            "velocity": 0.3937007874015748
          },
          {
            "duration": 0.13157875000000274,
            "durationTicks": 96,
            "midi": 48,
            "name": "C3",
            "ticks": 39936,
            "time": 54.73676,
            "velocity": 0.3937007874015748
          },
          {
            "duration": 0.13157875000000274,
            "durationTicks": 96,
            "midi": 63,
            "name": "D#4",
            "ticks": 40128,
            "time": 54.999917499999995,
            "velocity": 0.3937007874015748
          },
          {
            "duration": 0.13157875000000274,
            "durationTicks": 96,
            "midi": 72,
            "name": "C5",
            "ticks": 40128,
            "time": 54.999917499999995,
            "velocity": 0.3937007874015748
          },
          {
            "duration": 0.13157875000000274,
            "durationTicks": 96,
            "midi": 67,
            "name": "G4",
            "ticks": 40128,
            "time": 54.999917499999995,
            "velocity": 0.3937007874015748
          },
          {
            "duration": 0.13157874999999564,
            "durationTicks": 96,
            "midi": 48,
            "name": "C3",
            "ticks": 40320,
            "time": 55.263075,
            "velocity": 0.3937007874015748
          },
          {
            "duration": 0.13157874999999564,
            "durationTicks": 96,
            "midi": 63,
            "name": "D#4",
            "ticks": 40512,
            "time": 55.5262325,
            "velocity": 0.3937007874015748
          },
          {
            "duration": 0.13157874999999564,
            "durationTicks": 96,
            "midi": 67,
            "name": "G4",
            "ticks": 40512,
            "time": 55.5262325,
            "velocity": 0.3937007874015748
          },
          {
            "duration": 0.13157874999999564,
            "durationTicks": 96,
            "midi": 72,
            "name": "C5",
            "ticks": 40512,
            "time": 55.5262325,
            "velocity": 0.3937007874015748
          },
          {
            "duration": 0.13157875000000274,
            "durationTicks": 96,
            "midi": 51,
            "name": "D#3",
            "ticks": 40704,
            "time": 55.78939,
            "velocity": 0.3937007874015748
          },
          {
            "duration": 0.13157875000000274,
            "durationTicks": 96,
            "midi": 67,
            "name": "G4",
            "ticks": 40896,
            "time": 56.052547499999996,
            "velocity": 0.3937007874015748
          },
          {
            "duration": 0.13157875000000274,
            "durationTicks": 96,
            "midi": 63,
            "name": "D#4",
            "ticks": 40896,
            "time": 56.052547499999996,
            "velocity": 0.3937007874015748
          },
          {
            "duration": 0.13157875000000274,
            "durationTicks": 96,
            "midi": 58,
            "name": "A#3",
            "ticks": 40896,
            "time": 56.052547499999996,
            "velocity": 0.3937007874015748
          },
          {
            "duration": 0.13157875000000274,
            "durationTicks": 96,
            "midi": 51,
            "name": "D#3",
            "ticks": 41088,
            "time": 56.315704999999994,
            "velocity": 0.3937007874015748
          },
          {
            "duration": 0.13157874999999564,
            "durationTicks": 96,
            "midi": 58,
            "name": "A#3",
            "ticks": 41280,
            "time": 56.5788625,
            "velocity": 0.3937007874015748
          },
          {
            "duration": 0.13157874999999564,
            "durationTicks": 96,
            "midi": 63,
            "name": "D#4",
            "ticks": 41280,
            "time": 56.5788625,
            "velocity": 0.3937007874015748
          },
          {
            "duration": 0.13157874999999564,
            "durationTicks": 96,
            "midi": 67,
            "name": "G4",
            "ticks": 41280,
            "time": 56.5788625,
            "velocity": 0.3937007874015748
          },
          {
            "duration": 0.13157875000000274,
            "durationTicks": 96,
            "midi": 44,
            "name": "G#2",
            "ticks": 41472,
            "time": 56.84202,
            "velocity": 0.3937007874015748
          },
          {
            "duration": 0.13157875000000274,
            "durationTicks": 96,
            "midi": 60,
            "name": "C4",
            "ticks": 41664,
            "time": 57.105177499999996,
            "velocity": 0.3937007874015748
          },
          {
            "duration": 0.13157875000000274,
            "durationTicks": 96,
            "midi": 68,
            "name": "G#4",
            "ticks": 41664,
            "time": 57.105177499999996,
            "velocity": 0.3937007874015748
          },
          {
            "duration": 0.13157875000000274,
            "durationTicks": 96,
            "midi": 63,
            "name": "D#4",
            "ticks": 41664,
            "time": 57.105177499999996,
            "velocity": 0.3937007874015748
          },
          {
            "duration": 0.13157875000000274,
            "durationTicks": 96,
            "midi": 44,
            "name": "G#2",
            "ticks": 41856,
            "time": 57.368334999999995,
            "velocity": 0.3937007874015748
          },
          {
            "duration": 0.13157874999999564,
            "durationTicks": 96,
            "midi": 68,
            "name": "G#4",
            "ticks": 42048,
            "time": 57.6314925,
            "velocity": 0.3937007874015748
          },
          {
            "duration": 0.13157874999999564,
            "durationTicks": 96,
            "midi": 60,
            "name": "C4",
            "ticks": 42048,
            "time": 57.6314925,
            "velocity": 0.3937007874015748
          },
          {
            "duration": 0.13157874999999564,
            "durationTicks": 96,
            "midi": 63,
            "name": "D#4",
            "ticks": 42048,
            "time": 57.6314925,
            "velocity": 0.3937007874015748
          },
          {
            "duration": 0.13157874999999564,
            "durationTicks": 96,
            "midi": 43,
            "name": "G2",
            "ticks": 42240,
            "time": 57.89465,
            "velocity": 0.3937007874015748
          },
          {
            "duration": 0.13157875000000274,
            "durationTicks": 96,
            "midi": 59,
            "name": "B3",
            "ticks": 42432,
            "time": 58.1578075,
            "velocity": 0.3937007874015748
          },
          {
            "duration": 0.13157875000000274,
            "durationTicks": 96,
            "midi": 67,
            "name": "G4",
            "ticks": 42432,
            "time": 58.1578075,
            "velocity": 0.3937007874015748
          },
          {
            "duration": 0.13157875000000274,
            "durationTicks": 96,
            "midi": 62,
            "name": "D4",
            "ticks": 42432,
            "time": 58.1578075,
            "velocity": 0.3937007874015748
          },
          {
            "duration": 0.13157875000000274,
            "durationTicks": 96,
            "midi": 43,
            "name": "G2",
            "ticks": 42624,
            "time": 58.420964999999995,
            "velocity": 0.3937007874015748
          },
          {
            "duration": 0.13157874999999564,
            "durationTicks": 96,
            "midi": 59,
            "name": "B3",
            "ticks": 42816,
            "time": 58.6841225,
            "velocity": 0.3937007874015748
          },
          {
            "duration": 0.13157874999999564,
            "durationTicks": 96,
            "midi": 62,
            "name": "D4",
            "ticks": 42816,
            "time": 58.6841225,
            "velocity": 0.3937007874015748
          },
          {
            "duration": 0.13157874999999564,
            "durationTicks": 96,
            "midi": 67,
            "name": "G4",
            "ticks": 42816,
            "time": 58.6841225,
            "velocity": 0.3937007874015748
          },
          {
            "duration": 0.13157874999999564,
            "durationTicks": 96,
            "midi": 41,
            "name": "F2",
            "ticks": 43008,
            "time": 58.94728,
            "velocity": 0.3937007874015748
          },
          {
            "duration": 0.13157874999999564,
            "durationTicks": 96,
            "midi": 29,
            "name": "F1",
            "ticks": 43008,
            "time": 58.94728,
            "velocity": 0.3937007874015748
          },
          {
            "duration": 0.13157875000000274,
            "durationTicks": 96,
            "midi": 60,
            "name": "C4",
            "ticks": 43200,
            "time": 59.2104375,
            "velocity": 0.3937007874015748
          },
          {
            "duration": 0.13157875000000274,
            "durationTicks": 96,
            "midi": 56,
            "name": "G#3",
            "ticks": 43200,
            "time": 59.2104375,
            "velocity": 0.3937007874015748
          },
          {
            "duration": 0.13157875000000274,
            "durationTicks": 96,
            "midi": 53,
            "name": "F3",
            "ticks": 43200,
            "time": 59.2104375,
            "velocity": 0.3937007874015748
          },
          {
            "duration": 0.13157875000000274,
            "durationTicks": 96,
            "midi": 29,
            "name": "F1",
            "ticks": 43392,
            "time": 59.473594999999996,
            "velocity": 0.3937007874015748
          },
          {
            "duration": 0.13157875000000274,
            "durationTicks": 96,
            "midi": 41,
            "name": "F2",
            "ticks": 43392,
            "time": 59.473594999999996,
            "velocity": 0.3937007874015748
          },
          {
            "duration": 0.13157875000000274,
            "durationTicks": 96,
            "midi": 53,
            "name": "F3",
            "ticks": 43584,
            "time": 59.736752499999994,
            "velocity": 0.3937007874015748
          },
          {
            "duration": 0.13157875000000274,
            "durationTicks": 96,
            "midi": 60,
            "name": "C4",
            "ticks": 43584,
            "time": 59.736752499999994,
            "velocity": 0.3937007874015748
          },
          {
            "duration": 0.13157875000000274,
            "durationTicks": 96,
            "midi": 56,
            "name": "G#3",
            "ticks": 43584,
            "time": 59.736752499999994,
            "velocity": 0.3937007874015748
          },
          {
            "duration": 0.13157874999999564,
            "durationTicks": 96,
            "midi": 39,
            "name": "D#2",
            "ticks": 43776,
            "time": 59.99991,
            "velocity": 0.3937007874015748
          },
          {
            "duration": 0.13157874999999564,
            "durationTicks": 96,
            "midi": 27,
            "name": "D#1",
            "ticks": 43776,
            "time": 59.99991,
            "velocity": 0.3937007874015748
          },
          {
            "duration": 0.13157874999999564,
            "durationTicks": 96,
            "midi": 56,
            "name": "G#3",
            "ticks": 43968,
            "time": 60.2630675,
            "velocity": 0.3937007874015748
          },
          {
            "duration": 0.13157874999999564,
            "durationTicks": 96,
            "midi": 51,
            "name": "D#3",
            "ticks": 43968,
            "time": 60.2630675,
            "velocity": 0.3937007874015748
          },
          {
            "duration": 0.13157874999999564,
            "durationTicks": 96,
            "midi": 60,
            "name": "C4",
            "ticks": 43968,
            "time": 60.2630675,
            "velocity": 0.3937007874015748
          },
          {
            "duration": 0.13157875000000274,
            "durationTicks": 96,
            "midi": 27,
            "name": "D#1",
            "ticks": 44160,
            "time": 60.526225,
            "velocity": 0.3937007874015748
          },
          {
            "duration": 0.13157875000000274,
            "durationTicks": 96,
            "midi": 39,
            "name": "D#2",
            "ticks": 44160,
            "time": 60.526225,
            "velocity": 0.3937007874015748
          },
          {
            "duration": 0.13157875000000274,
            "durationTicks": 96,
            "midi": 56,
            "name": "G#3",
            "ticks": 44352,
            "time": 60.789382499999995,
            "velocity": 0.3937007874015748
          },
          {
            "duration": 0.13157875000000274,
            "durationTicks": 96,
            "midi": 60,
            "name": "C4",
            "ticks": 44352,
            "time": 60.789382499999995,
            "velocity": 0.3937007874015748
          },
          {
            "duration": 0.13157875000000274,
            "durationTicks": 96,
            "midi": 51,
            "name": "D#3",
            "ticks": 44352,
            "time": 60.789382499999995,
            "velocity": 0.3937007874015748
          },
          {
            "duration": 0.13157874999999564,
            "durationTicks": 96,
            "midi": 26,
            "name": "D1",
            "ticks": 44544,
            "time": 61.05254,
            "velocity": 0.3937007874015748
          },
          {
            "duration": 0.13157874999999564,
            "durationTicks": 96,
            "midi": 38,
            "name": "D2",
            "ticks": 44544,
            "time": 61.05254,
            "velocity": 0.3937007874015748
          },
          {
            "duration": 0.13157874999999564,
            "durationTicks": 96,
            "midi": 60,
            "name": "C4",
            "ticks": 44736,
            "time": 61.3156975,
            "velocity": 0.3937007874015748
          },
          {
            "duration": 0.13157874999999564,
            "durationTicks": 96,
            "midi": 54,
            "name": "F#3",
            "ticks": 44736,
            "time": 61.3156975,
            "velocity": 0.3937007874015748
          },
          {
            "duration": 0.13157874999999564,
            "durationTicks": 96,
            "midi": 57,
            "name": "A3",
            "ticks": 44736,
            "time": 61.3156975,
            "velocity": 0.3937007874015748
          },
          {
            "duration": 0.13157875000000274,
            "durationTicks": 96,
            "midi": 26,
            "name": "D1",
            "ticks": 44928,
            "time": 61.578855,
            "velocity": 0.3937007874015748
          },
          {
            "duration": 0.13157875000000274,
            "durationTicks": 96,
            "midi": 38,
            "name": "D2",
            "ticks": 44928,
            "time": 61.578855,
            "velocity": 0.3937007874015748
          },
          {
            "duration": 0.13157875000000274,
            "durationTicks": 96,
            "midi": 54,
            "name": "F#3",
            "ticks": 45120,
            "time": 61.842012499999996,
            "velocity": 0.3937007874015748
          },
          {
            "duration": 0.13157875000000274,
            "durationTicks": 96,
            "midi": 60,
            "name": "C4",
            "ticks": 45120,
            "time": 61.842012499999996,
            "velocity": 0.3937007874015748
          },
          {
            "duration": 0.13157875000000274,
            "durationTicks": 96,
            "midi": 57,
            "name": "A3",
            "ticks": 45120,
            "time": 61.842012499999996,
            "velocity": 0.3937007874015748
          },
          {
            "duration": 0.13157875000000274,
            "durationTicks": 96,
            "midi": 31,
            "name": "G1",
            "ticks": 45312,
            "time": 62.105169999999994,
            "velocity": 0.3937007874015748
          },
          {
            "duration": 0.13157875000000274,
            "durationTicks": 96,
            "midi": 43,
            "name": "G2",
            "ticks": 45312,
            "time": 62.105169999999994,
            "velocity": 0.3937007874015748
          },
          {
            "duration": 0.13157874999999564,
            "durationTicks": 96,
            "midi": 62,
            "name": "D4",
            "ticks": 45504,
            "time": 62.3683275,
            "velocity": 0.3937007874015748
          },
          {
            "duration": 0.13157874999999564,
            "durationTicks": 96,
            "midi": 59,
            "name": "B3",
            "ticks": 45504,
            "time": 62.3683275,
            "velocity": 0.3937007874015748
          },
          {
            "duration": 0.13157874999999564,
            "durationTicks": 96,
            "midi": 53,
            "name": "F3",
            "ticks": 45504,
            "time": 62.3683275,
            "velocity": 0.3937007874015748
          },
          {
            "duration": 0.13157875000000274,
            "durationTicks": 96,
            "midi": 43,
            "name": "G2",
            "ticks": 45696,
            "time": 62.631485,
            "velocity": 0.3937007874015748
          },
          {
            "duration": 0.13157875000000274,
            "durationTicks": 96,
            "midi": 31,
            "name": "G1",
            "ticks": 45696,
            "time": 62.631485,
            "velocity": 0.3937007874015748
          },
          {
            "duration": 0.13157875000000274,
            "durationTicks": 96,
            "midi": 53,
            "name": "F3",
            "ticks": 45888,
            "time": 62.894642499999996,
            "velocity": 0.3937007874015748
          },
          {
            "duration": 0.13157875000000274,
            "durationTicks": 96,
            "midi": 59,
            "name": "B3",
            "ticks": 45888,
            "time": 62.894642499999996,
            "velocity": 0.3937007874015748
          },
          {
            "duration": 0.13157875000000274,
            "durationTicks": 96,
            "midi": 62,
            "name": "D4",
            "ticks": 45888,
            "time": 62.894642499999996,
            "velocity": 0.3937007874015748
          },
          {
            "duration": 0.13157875000000274,
            "durationTicks": 96,
            "midi": 36,
            "name": "C2",
            "ticks": 46080,
            "time": 63.157799999999995,
            "velocity": 0.3937007874015748
          },
          {
            "duration": 0.13157875000000274,
            "durationTicks": 96,
            "midi": 48,
            "name": "C3",
            "ticks": 46080,
            "time": 63.157799999999995,
            "velocity": 0.3937007874015748
          },
          {
            "duration": 0.13157874999999564,
            "durationTicks": 96,
            "midi": 67,
            "name": "G4",
            "ticks": 46272,
            "time": 63.4209575,
            "velocity": 0.3937007874015748
          },
          {
            "duration": 0.13157874999999564,
            "durationTicks": 96,
            "midi": 72,
            "name": "C5",
            "ticks": 46272,
            "time": 63.4209575,
            "velocity": 0.3937007874015748
          },
          {
            "duration": 0.13157874999999564,
            "durationTicks": 96,
            "midi": 63,
            "name": "D#4",
            "ticks": 46272,
            "time": 63.4209575,
            "velocity": 0.3937007874015748
          },
          {
            "duration": 0.13157874999999564,
            "durationTicks": 96,
            "midi": 48,
            "name": "C3",
            "ticks": 46464,
            "time": 63.684115,
            "velocity": 0.3937007874015748
          },
          {
            "duration": 0.13157874999999564,
            "durationTicks": 96,
            "midi": 36,
            "name": "C2",
            "ticks": 46464,
            "time": 63.684115,
            "velocity": 0.3937007874015748
          },
          {
            "duration": 0.13157875000000274,
            "durationTicks": 96,
            "midi": 63,
            "name": "D#4",
            "ticks": 46656,
            "time": 63.9472725,
            "velocity": 0.3937007874015748
          },
          {
            "duration": 0.13157875000000274,
            "durationTicks": 96,
            "midi": 67,
            "name": "G4",
            "ticks": 46656,
            "time": 63.9472725,
            "velocity": 0.3937007874015748
          },
          {
            "duration": 0.13157875000000274,
            "durationTicks": 96,
            "midi": 72,
            "name": "C5",
            "ticks": 46656,
            "time": 63.9472725,
            "velocity": 0.3937007874015748
          },
          {
            "duration": 0.13157874999998853,
            "durationTicks": 96,
            "midi": 51,
            "name": "D#3",
            "ticks": 46848,
            "time": 64.21043,
            "velocity": 0.3937007874015748
          },
          {
            "duration": 0.13157874999998853,
            "durationTicks": 96,
            "midi": 39,
            "name": "D#2",
            "ticks": 46848,
            "time": 64.21043,
            "velocity": 0.3937007874015748
          },
          {
            "duration": 0.13157875000000274,
            "durationTicks": 96,
            "midi": 63,
            "name": "D#4",
            "ticks": 47040,
            "time": 64.4735875,
            "velocity": 0.3937007874015748
          },
          {
            "duration": 0.13157875000000274,
            "durationTicks": 96,
            "midi": 58,
            "name": "A#3",
            "ticks": 47040,
            "time": 64.4735875,
            "velocity": 0.3937007874015748
          },
          {
            "duration": 0.13157875000000274,
            "durationTicks": 96,
            "midi": 67,
            "name": "G4",
            "ticks": 47040,
            "time": 64.4735875,
            "velocity": 0.3937007874015748
          },
          {
            "duration": 0.13157875000000274,
            "durationTicks": 96,
            "midi": 39,
            "name": "D#2",
            "ticks": 47232,
            "time": 64.736745,
            "velocity": 0.3937007874015748
          },
          {
            "duration": 0.13157875000000274,
            "durationTicks": 96,
            "midi": 51,
            "name": "D#3",
            "ticks": 47232,
            "time": 64.736745,
            "velocity": 0.3937007874015748
          },
          {
            "duration": 0.13157875000000274,
            "durationTicks": 96,
            "midi": 67,
            "name": "G4",
            "ticks": 47424,
            "time": 64.99990249999999,
            "velocity": 0.3937007874015748
          },
          {
            "duration": 0.13157875000000274,
            "durationTicks": 96,
            "midi": 63,
            "name": "D#4",
            "ticks": 47424,
            "time": 64.99990249999999,
            "velocity": 0.3937007874015748
          },
          {
            "duration": 0.13157875000000274,
            "durationTicks": 96,
            "midi": 58,
            "name": "A#3",
            "ticks": 47424,
            "time": 64.99990249999999,
            "velocity": 0.3937007874015748
          },
          {
            "duration": 0.13157875000000274,
            "durationTicks": 96,
            "midi": 32,
            "name": "G#1",
            "ticks": 47616,
            "time": 65.26306,
            "velocity": 0.3937007874015748
          },
          {
            "duration": 0.13157875000000274,
            "durationTicks": 96,
            "midi": 44,
            "name": "G#2",
            "ticks": 47616,
            "time": 65.26306,
            "velocity": 0.3937007874015748
          },
          {
            "duration": 0.13157875000000274,
            "durationTicks": 96,
            "midi": 68,
            "name": "G#4",
            "ticks": 47808,
            "time": 65.5262175,
            "velocity": 0.3937007874015748
          },
          {
            "duration": 0.13157875000000274,
            "durationTicks": 96,
            "midi": 63,
            "name": "D#4",
            "ticks": 47808,
            "time": 65.5262175,
            "velocity": 0.3937007874015748
          },
          {
            "duration": 0.13157875000000274,
            "durationTicks": 96,
            "midi": 60,
            "name": "C4",
            "ticks": 47808,
            "time": 65.5262175,
            "velocity": 0.3937007874015748
          },
          {
            "duration": 0.13157875000000274,
            "durationTicks": 96,
            "midi": 32,
            "name": "G#1",
            "ticks": 48000,
            "time": 65.78937499999999,
            "velocity": 0.3937007874015748
          },
          {
            "duration": 0.13157875000000274,
            "durationTicks": 96,
            "midi": 44,
            "name": "G#2",
            "ticks": 48000,
            "time": 65.78937499999999,
            "velocity": 0.3937007874015748
          },
          {
            "duration": 0.13157875000000274,
            "durationTicks": 96,
            "midi": 68,
            "name": "G#4",
            "ticks": 48192,
            "time": 66.0525325,
            "velocity": 0.3937007874015748
          },
          {
            "duration": 0.13157875000000274,
            "durationTicks": 96,
            "midi": 60,
            "name": "C4",
            "ticks": 48192,
            "time": 66.0525325,
            "velocity": 0.3937007874015748
          },
          {
            "duration": 0.13157875000000274,
            "durationTicks": 96,
            "midi": 63,
            "name": "D#4",
            "ticks": 48192,
            "time": 66.0525325,
            "velocity": 0.3937007874015748
          },
          {
            "duration": 0.13157874999998853,
            "durationTicks": 96,
            "midi": 31,
            "name": "G1",
            "ticks": 48384,
            "time": 66.31569,
            "velocity": 0.3937007874015748
          },
          {
            "duration": 0.13157874999998853,
            "durationTicks": 96,
            "midi": 43,
            "name": "G2",
            "ticks": 48384,
            "time": 66.31569,
            "velocity": 0.3937007874015748
          },
          {
            "duration": 0.13157875000000274,
            "durationTicks": 96,
            "midi": 67,
            "name": "G4",
            "ticks": 48576,
            "time": 66.5788475,
            "velocity": 0.3937007874015748
          },
          {
            "duration": 0.13157875000000274,
            "durationTicks": 96,
            "midi": 62,
            "name": "D4",
            "ticks": 48576,
            "time": 66.5788475,
            "velocity": 0.3937007874015748
          },
          {
            "duration": 0.13157875000000274,
            "durationTicks": 96,
            "midi": 59,
            "name": "B3",
            "ticks": 48576,
            "time": 66.5788475,
            "velocity": 0.3937007874015748
          },
          {
            "duration": 0.13157875000000274,
            "durationTicks": 96,
            "midi": 43,
            "name": "G2",
            "ticks": 48768,
            "time": 66.842005,
            "velocity": 0.3937007874015748
          },
          {
            "duration": 0.13157875000000274,
            "durationTicks": 96,
            "midi": 31,
            "name": "G1",
            "ticks": 48768,
            "time": 66.842005,
            "velocity": 0.3937007874015748
          },
          {
            "duration": 0.13157875000000274,
            "durationTicks": 96,
            "midi": 67,
            "name": "G4",
            "ticks": 48960,
            "time": 67.10516249999999,
            "velocity": 0.3937007874015748
          },
          {
            "duration": 0.13157875000000274,
            "durationTicks": 96,
            "midi": 62,
            "name": "D4",
            "ticks": 48960,
            "time": 67.10516249999999,
            "velocity": 0.3937007874015748
          },
          {
            "duration": 0.13157875000000274,
            "durationTicks": 96,
            "midi": 59,
            "name": "B3",
            "ticks": 48960,
            "time": 67.10516249999999,
            "velocity": 0.3937007874015748
          },
          {
            "duration": 0.197368124999997,
            "durationTicks": 144,
            "midi": 48,
            "name": "C3",
            "ticks": 79872,
            "time": 109.47352,
            "velocity": 0.3937007874015748
          },
          {
            "duration": 0.197368124999997,
            "durationTicks": 144,
            "midi": 67,
            "name": "G4",
            "ticks": 80064,
            "time": 109.7366775,
            "velocity": 0.3937007874015748
          },
          {
            "duration": 0.197368124999997,
            "durationTicks": 144,
            "midi": 63,
            "name": "D#4",
            "ticks": 80064,
            "time": 109.7366775,
            "velocity": 0.3937007874015748
          },
          {
            "duration": 0.197368124999997,
            "durationTicks": 144,
            "midi": 60,
            "name": "C4",
            "ticks": 80064,
            "time": 109.7366775,
            "velocity": 0.3937007874015748
          },
          {
            "duration": 0.19736812500001122,
            "durationTicks": 144,
            "midi": 48,
            "name": "C3",
            "ticks": 80256,
            "time": 109.99983499999999,
            "velocity": 0.3937007874015748
          },
          {
            "duration": 0.197368124999997,
            "durationTicks": 144,
            "midi": 63,
            "name": "D#4",
            "ticks": 80448,
            "time": 110.2629925,
            "velocity": 0.3937007874015748
          },
          {
            "duration": 0.197368124999997,
            "durationTicks": 144,
            "midi": 67,
            "name": "G4",
            "ticks": 80448,
            "time": 110.2629925,
            "velocity": 0.3937007874015748
          },
          {
            "duration": 0.197368124999997,
            "durationTicks": 144,
            "midi": 60,
            "name": "C4",
            "ticks": 80448,
            "time": 110.2629925,
            "velocity": 0.3937007874015748
          },
          {
            "duration": 0.197368124999997,
            "durationTicks": 144,
            "midi": 51,
            "name": "D#3",
            "ticks": 80640,
            "time": 110.52615,
            "velocity": 0.3937007874015748
          },
          {
            "duration": 0.197368124999997,
            "durationTicks": 144,
            "midi": 63,
            "name": "D#4",
            "ticks": 80832,
            "time": 110.78930749999999,
            "velocity": 0.3937007874015748
          },
          {
            "duration": 0.197368124999997,
            "durationTicks": 144,
            "midi": 58,
            "name": "A#3",
            "ticks": 80832,
            "time": 110.78930749999999,
            "velocity": 0.3937007874015748
          },
          {
            "duration": 0.197368124999997,
            "durationTicks": 144,
            "midi": 67,
            "name": "G4",
            "ticks": 80832,
            "time": 110.78930749999999,
            "velocity": 0.3937007874015748
          },
          {
            "duration": 0.197368124999997,
            "durationTicks": 144,
            "midi": 51,
            "name": "D#3",
            "ticks": 81024,
            "time": 111.052465,
            "velocity": 0.3937007874015748
          },
          {
            "duration": 0.19736812500001122,
            "durationTicks": 144,
            "midi": 67,
            "name": "G4",
            "ticks": 81216,
            "time": 111.31562249999999,
            "velocity": 0.3937007874015748
          },
          {
            "duration": 0.19736812500001122,
            "durationTicks": 144,
            "midi": 63,
            "name": "D#4",
            "ticks": 81216,
            "time": 111.31562249999999,
            "velocity": 0.3937007874015748
          },
          {
            "duration": 0.19736812500001122,
            "durationTicks": 144,
            "midi": 58,
            "name": "A#3",
            "ticks": 81216,
            "time": 111.31562249999999,
            "velocity": 0.3937007874015748
          },
          {
            "duration": 0.197368124999997,
            "durationTicks": 144,
            "midi": 44,
            "name": "G#2",
            "ticks": 81408,
            "time": 111.57878,
            "velocity": 0.3937007874015748
          },
          {
            "duration": 0.197368124999997,
            "durationTicks": 144,
            "midi": 68,
            "name": "G#4",
            "ticks": 81600,
            "time": 111.8419375,
            "velocity": 0.3937007874015748
          },
          {
            "duration": 0.197368124999997,
            "durationTicks": 144,
            "midi": 60,
            "name": "C4",
            "ticks": 81600,
            "time": 111.8419375,
            "velocity": 0.3937007874015748
          },
          {
            "duration": 0.197368124999997,
            "durationTicks": 144,
            "midi": 63,
            "name": "D#4",
            "ticks": 81600,
            "time": 111.8419375,
            "velocity": 0.3937007874015748
          },
          {
            "duration": 0.197368124999997,
            "durationTicks": 144,
            "midi": 44,
            "name": "G#2",
            "ticks": 81792,
            "time": 112.10509499999999,
            "velocity": 0.3937007874015748
          },
          {
            "duration": 0.197368124999997,
            "durationTicks": 144,
            "midi": 63,
            "name": "D#4",
            "ticks": 81984,
            "time": 112.3682525,
            "velocity": 0.3937007874015748
          },
          {
            "duration": 0.197368124999997,
            "durationTicks": 144,
            "midi": 60,
            "name": "C4",
            "ticks": 81984,
            "time": 112.3682525,
            "velocity": 0.3937007874015748
          },
          {
            "duration": 0.197368124999997,
            "durationTicks": 144,
            "midi": 68,
            "name": "G#4",
            "ticks": 81984,
            "time": 112.3682525,
            "velocity": 0.3937007874015748
          },
          {
            "duration": 0.19736812500001122,
            "durationTicks": 144,
            "midi": 43,
            "name": "G2",
            "ticks": 82176,
            "time": 112.63140999999999,
            "velocity": 0.3937007874015748
          },
          {
            "duration": 0.197368124999997,
            "durationTicks": 144,
            "midi": 67,
            "name": "G4",
            "ticks": 82368,
            "time": 112.8945675,
            "velocity": 0.3937007874015748
          },
          {
            "duration": 0.197368124999997,
            "durationTicks": 144,
            "midi": 59,
            "name": "B3",
            "ticks": 82368,
            "time": 112.8945675,
            "velocity": 0.3937007874015748
          },
          {
            "duration": 0.197368124999997,
            "durationTicks": 144,
            "midi": 62,
            "name": "D4",
            "ticks": 82368,
            "time": 112.8945675,
            "velocity": 0.3937007874015748
          },
          {
            "duration": 0.197368124999997,
            "durationTicks": 144,
            "midi": 43,
            "name": "G2",
            "ticks": 82560,
            "time": 113.157725,
            "velocity": 0.3937007874015748
          },
          {
            "duration": 0.19736812500001122,
            "durationTicks": 144,
            "midi": 62,
            "name": "D4",
            "ticks": 82752,
            "time": 113.42088249999999,
            "velocity": 0.3937007874015748
          },
          {
            "duration": 0.19736812500001122,
            "durationTicks": 144,
            "midi": 67,
            "name": "G4",
            "ticks": 82752,
            "time": 113.42088249999999,
            "velocity": 0.3937007874015748
          },
          {
            "duration": 0.19736812500001122,
            "durationTicks": 144,
            "midi": 59,
            "name": "B3",
            "ticks": 82752,
            "time": 113.42088249999999,
            "velocity": 0.3937007874015748
          },
          {
            "duration": 0.197368124999997,
            "durationTicks": 144,
            "midi": 48,
            "name": "C3",
            "ticks": 82944,
            "time": 113.68404,
            "velocity": 0.3937007874015748
          },
          {
            "duration": 0.197368124999997,
            "durationTicks": 144,
            "midi": 63,
            "name": "D#4",
            "ticks": 83136,
            "time": 113.9471975,
            "velocity": 0.3937007874015748
          },
          {
            "duration": 0.197368124999997,
            "durationTicks": 144,
            "midi": 67,
            "name": "G4",
            "ticks": 83136,
            "time": 113.9471975,
            "velocity": 0.3937007874015748
          },
          {
            "duration": 0.197368124999997,
            "durationTicks": 144,
            "midi": 60,
            "name": "C4",
            "ticks": 83136,
            "time": 113.9471975,
            "velocity": 0.3937007874015748
          },
          {
            "duration": 0.197368124999997,
            "durationTicks": 144,
            "midi": 48,
            "name": "C3",
            "ticks": 83328,
            "time": 114.21035499999999,
            "velocity": 0.3937007874015748
          },
          {
            "duration": 0.197368124999997,
            "durationTicks": 144,
            "midi": 63,
            "name": "D#4",
            "ticks": 83520,
            "time": 114.4735125,
            "velocity": 0.3937007874015748
          },
          {
            "duration": 0.197368124999997,
            "durationTicks": 144,
            "midi": 67,
            "name": "G4",
            "ticks": 83520,
            "time": 114.4735125,
            "velocity": 0.3937007874015748
          },
          {
            "duration": 0.197368124999997,
            "durationTicks": 144,
            "midi": 60,
            "name": "C4",
            "ticks": 83520,
            "time": 114.4735125,
            "velocity": 0.3937007874015748
          },
          {
            "duration": 0.19736812500001122,
            "durationTicks": 144,
            "midi": 51,
            "name": "D#3",
            "ticks": 83712,
            "time": 114.73666999999999,
            "velocity": 0.3937007874015748
          },
          {
            "duration": 0.197368124999997,
            "durationTicks": 144,
            "midi": 63,
            "name": "D#4",
            "ticks": 83904,
            "time": 114.9998275,
            "velocity": 0.3937007874015748
          },
          {
            "duration": 0.197368124999997,
            "durationTicks": 144,
            "midi": 67,
            "name": "G4",
            "ticks": 83904,
            "time": 114.9998275,
            "velocity": 0.3937007874015748
          },
          {
            "duration": 0.197368124999997,
            "durationTicks": 144,
            "midi": 58,
            "name": "A#3",
            "ticks": 83904,
            "time": 114.9998275,
            "velocity": 0.3937007874015748
          },
          {
            "duration": 0.197368124999997,
            "durationTicks": 144,
            "midi": 51,
            "name": "D#3",
            "ticks": 84096,
            "time": 115.262985,
            "velocity": 0.3937007874015748
          },
          {
            "duration": 0.197368124999997,
            "durationTicks": 144,
            "midi": 67,
            "name": "G4",
            "ticks": 84288,
            "time": 115.52614249999999,
            "velocity": 0.3937007874015748
          },
          {
            "duration": 0.197368124999997,
            "durationTicks": 144,
            "midi": 63,
            "name": "D#4",
            "ticks": 84288,
            "time": 115.52614249999999,
            "velocity": 0.3937007874015748
          },
          {
            "duration": 0.197368124999997,
            "durationTicks": 144,
            "midi": 58,
            "name": "A#3",
            "ticks": 84288,
            "time": 115.52614249999999,
            "velocity": 0.3937007874015748
          },
          {
            "duration": 0.197368124999997,
            "durationTicks": 144,
            "midi": 44,
            "name": "G#2",
            "ticks": 84480,
            "time": 115.7893,
            "velocity": 0.3937007874015748
          },
          {
            "duration": 0.19736812500001122,
            "durationTicks": 144,
            "midi": 63,
            "name": "D#4",
            "ticks": 84672,
            "time": 116.05245749999999,
            "velocity": 0.3937007874015748
          },
          {
            "duration": 0.19736812500001122,
            "durationTicks": 144,
            "midi": 60,
            "name": "C4",
            "ticks": 84672,
            "time": 116.05245749999999,
            "velocity": 0.3937007874015748
          },
          {
            "duration": 0.19736812500001122,
            "durationTicks": 144,
            "midi": 68,
            "name": "G#4",
            "ticks": 84672,
            "time": 116.05245749999999,
            "velocity": 0.3937007874015748
          },
          {
            "duration": 0.197368124999997,
            "durationTicks": 144,
            "midi": 44,
            "name": "G#2",
            "ticks": 84864,
            "time": 116.315615,
            "velocity": 0.3937007874015748
          },
          {
            "duration": 0.197368124999997,
            "durationTicks": 144,
            "midi": 68,
            "name": "G#4",
            "ticks": 85056,
            "time": 116.5787725,
            "velocity": 0.3937007874015748
          },
          {
            "duration": 0.197368124999997,
            "durationTicks": 144,
            "midi": 60,
            "name": "C4",
            "ticks": 85056,
            "time": 116.5787725,
            "velocity": 0.3937007874015748
          },
          {
            "duration": 0.197368124999997,
            "durationTicks": 144,
            "midi": 63,
            "name": "D#4",
            "ticks": 85056,
            "time": 116.5787725,
            "velocity": 0.3937007874015748
          },
          {
            "duration": 0.19736812500001122,
            "durationTicks": 144,
            "midi": 43,
            "name": "G2",
            "ticks": 85248,
            "time": 116.84192999999999,
            "velocity": 0.3937007874015748
          },
          {
            "duration": 0.197368124999997,
            "durationTicks": 144,
            "midi": 59,
            "name": "B3",
            "ticks": 85440,
            "time": 117.1050875,
            "velocity": 0.3937007874015748
          },
          {
            "duration": 0.197368124999997,
            "durationTicks": 144,
            "midi": 67,
            "name": "G4",
            "ticks": 85440,
            "time": 117.1050875,
            "velocity": 0.3937007874015748
          },
          {
            "duration": 0.197368124999997,
            "durationTicks": 144,
            "midi": 62,
            "name": "D4",
            "ticks": 85440,
            "time": 117.1050875,
            "velocity": 0.3937007874015748
          },
          {
            "duration": 0.197368124999997,
            "durationTicks": 144,
            "midi": 43,
            "name": "G2",
            "ticks": 85632,
            "time": 117.368245,
            "velocity": 0.3937007874015748
          },
          {
            "duration": 0.197368124999997,
            "durationTicks": 144,
            "midi": 62,
            "name": "D4",
            "ticks": 85824,
            "time": 117.6314025,
            "velocity": 0.3937007874015748
          },
          {
            "duration": 0.197368124999997,
            "durationTicks": 144,
            "midi": 67,
            "name": "G4",
            "ticks": 85824,
            "time": 117.6314025,
            "velocity": 0.3937007874015748
          },
          {
            "duration": 0.197368124999997,
            "durationTicks": 144,
            "midi": 59,
            "name": "B3",
            "ticks": 85824,
            "time": 117.6314025,
            "velocity": 0.3937007874015748
          },
          {
            "duration": 0.197368124999997,
            "durationTicks": 144,
            "midi": 41,
            "name": "F2",
            "ticks": 86016,
            "time": 117.89456,
            "velocity": 0.3937007874015748
          },
          {
            "duration": 0.19736812500001122,
            "durationTicks": 144,
            "midi": 60,
            "name": "C4",
            "ticks": 86208,
            "time": 118.15771749999999,
            "velocity": 0.3937007874015748
          },
          {
            "duration": 0.19736812500001122,
            "durationTicks": 144,
            "midi": 68,
            "name": "G#4",
            "ticks": 86208,
            "time": 118.15771749999999,
            "velocity": 0.3937007874015748
          },
          {
            "duration": 0.19736812500001122,
            "durationTicks": 144,
            "midi": 53,
            "name": "F3",
            "ticks": 86208,
            "time": 118.15771749999999,
            "velocity": 0.3937007874015748
          },
          {
            "duration": 0.19736812500001122,
            "durationTicks": 144,
            "midi": 65,
            "name": "F4",
            "ticks": 86208,
            "time": 118.15771749999999,
            "velocity": 0.3937007874015748
          },
          {
            "duration": 0.19736812500001122,
            "durationTicks": 144,
            "midi": 56,
            "name": "G#3",
            "ticks": 86208,
            "time": 118.15771749999999,
            "velocity": 0.3937007874015748
          },
          {
            "duration": 0.197368124999997,
            "durationTicks": 144,
            "midi": 41,
            "name": "F2",
            "ticks": 86400,
            "time": 118.420875,
            "velocity": 0.3937007874015748
          },
          {
            "duration": 0.197368124999997,
            "durationTicks": 144,
            "midi": 56,
            "name": "G#3",
            "ticks": 86592,
            "time": 118.6840325,
            "velocity": 0.3937007874015748
          },
          {
            "duration": 0.197368124999997,
            "durationTicks": 144,
            "midi": 53,
            "name": "F3",
            "ticks": 86592,
            "time": 118.6840325,
            "velocity": 0.3937007874015748
          },
          {
            "duration": 0.197368124999997,
            "durationTicks": 144,
            "midi": 60,
            "name": "C4",
            "ticks": 86592,
            "time": 118.6840325,
            "velocity": 0.3937007874015748
          },
          {
            "duration": 0.197368124999997,
            "durationTicks": 144,
            "midi": 68,
            "name": "G#4",
            "ticks": 86592,
            "time": 118.6840325,
            "velocity": 0.3937007874015748
          },
          {
            "duration": 0.197368124999997,
            "durationTicks": 144,
            "midi": 65,
            "name": "F4",
            "ticks": 86592,
            "time": 118.6840325,
            "velocity": 0.3937007874015748
          },
          {
            "duration": 0.197368124999997,
            "durationTicks": 144,
            "midi": 39,
            "name": "D#2",
            "ticks": 86784,
            "time": 118.94718999999999,
            "velocity": 0.3937007874015748
          },
          {
            "duration": 0.197368124999997,
            "durationTicks": 144,
            "midi": 63,
            "name": "D#4",
            "ticks": 86976,
            "time": 119.2103475,
            "velocity": 0.3937007874015748
          },
          {
            "duration": 0.197368124999997,
            "durationTicks": 144,
            "midi": 60,
            "name": "C4",
            "ticks": 86976,
            "time": 119.2103475,
            "velocity": 0.3937007874015748
          },
          {
            "duration": 0.197368124999997,
            "durationTicks": 144,
            "midi": 51,
            "name": "D#3",
            "ticks": 86976,
            "time": 119.2103475,
            "velocity": 0.3937007874015748
          },
          {
            "duration": 0.197368124999997,
            "durationTicks": 144,
            "midi": 68,
            "name": "G#4",
            "ticks": 86976,
            "time": 119.2103475,
            "velocity": 0.3937007874015748
          },
          {
            "duration": 0.197368124999997,
            "durationTicks": 144,
            "midi": 56,
            "name": "G#3",
            "ticks": 86976,
            "time": 119.2103475,
            "velocity": 0.3937007874015748
          },
          {
            "duration": 0.19736812500001122,
            "durationTicks": 144,
            "midi": 39,
            "name": "D#2",
            "ticks": 87168,
            "time": 119.47350499999999,
            "velocity": 0.3937007874015748
          },
          {
            "duration": 0.197368124999997,
            "durationTicks": 144,
            "midi": 60,
            "name": "C4",
            "ticks": 87360,
            "time": 119.7366625,
            "velocity": 0.3937007874015748
          },
          {
            "duration": 0.197368124999997,
            "durationTicks": 144,
            "midi": 68,
            "name": "G#4",
            "ticks": 87360,
            "time": 119.7366625,
            "velocity": 0.3937007874015748
          },
          {
            "duration": 0.197368124999997,
            "durationTicks": 144,
            "midi": 56,
            "name": "G#3",
            "ticks": 87360,
            "time": 119.7366625,
            "velocity": 0.3937007874015748
          },
          {
            "duration": 0.197368124999997,
            "durationTicks": 144,
            "midi": 63,
            "name": "D#4",
            "ticks": 87360,
            "time": 119.7366625,
            "velocity": 0.3937007874015748
          },
          {
            "duration": 0.197368124999997,
            "durationTicks": 144,
            "midi": 51,
            "name": "D#3",
            "ticks": 87360,
            "time": 119.7366625,
            "velocity": 0.3937007874015748
          },
          {
            "duration": 0.197368124999997,
            "durationTicks": 144,
            "midi": 38,
            "name": "D2",
            "ticks": 87552,
            "time": 119.99982,
            "velocity": 0.3937007874015748
          },
          {
            "duration": 0.197368124999997,
            "durationTicks": 144,
            "midi": 54,
            "name": "F#3",
            "ticks": 87744,
            "time": 120.26297749999999,
            "velocity": 0.3937007874015748
          },
          {
            "duration": 0.197368124999997,
            "durationTicks": 144,
            "midi": 57,
            "name": "A3",
            "ticks": 87744,
            "time": 120.26297749999999,
            "velocity": 0.3937007874015748
          },
          {
            "duration": 0.197368124999997,
            "durationTicks": 144,
            "midi": 62,
            "name": "D4",
            "ticks": 87744,
            "time": 120.26297749999999,
            "velocity": 0.3937007874015748
          },
          {
            "duration": 0.197368124999997,
            "durationTicks": 144,
            "midi": 50,
            "name": "D3",
            "ticks": 87744,
            "time": 120.26297749999999,
            "velocity": 0.3937007874015748
          },
          {
            "duration": 0.197368124999997,
            "durationTicks": 144,
            "midi": 66,
            "name": "F#4",
            "ticks": 87744,
            "time": 120.26297749999999,
            "velocity": 0.3937007874015748
          },
          {
            "duration": 0.197368124999997,
            "durationTicks": 144,
            "midi": 38,
            "name": "D2",
            "ticks": 87936,
            "time": 120.526135,
            "velocity": 0.3937007874015748
          },
          {
            "duration": 0.19736812500001122,
            "durationTicks": 144,
            "midi": 50,
            "name": "D3",
            "ticks": 88128,
            "time": 120.78929249999999,
            "velocity": 0.3937007874015748
          },
          {
            "duration": 0.19736812500001122,
            "durationTicks": 144,
            "midi": 66,
            "name": "F#4",
            "ticks": 88128,
            "time": 120.78929249999999,
            "velocity": 0.3937007874015748
          },
          {
            "duration": 0.19736812500001122,
            "durationTicks": 144,
            "midi": 57,
            "name": "A3",
            "ticks": 88128,
            "time": 120.78929249999999,
            "velocity": 0.3937007874015748
          },
          {
            "duration": 0.19736812500001122,
            "durationTicks": 144,
            "midi": 62,
            "name": "D4",
            "ticks": 88128,
            "time": 120.78929249999999,
            "velocity": 0.3937007874015748
          },
          {
            "duration": 0.19736812500001122,
            "durationTicks": 144,
            "midi": 54,
            "name": "F#3",
            "ticks": 88128,
            "time": 120.78929249999999,
            "velocity": 0.3937007874015748
          },
          {
            "duration": 0.197368124999997,
            "durationTicks": 144,
            "midi": 43,
            "name": "G2",
            "ticks": 88320,
            "time": 121.05245,
            "velocity": 0.3937007874015748
          },
          {
            "duration": 0.197368124999997,
            "durationTicks": 144,
            "midi": 62,
            "name": "D4",
            "ticks": 88512,
            "time": 121.3156075,
            "velocity": 0.3937007874015748
          },
          {
            "duration": 0.197368124999997,
            "durationTicks": 144,
            "midi": 55,
            "name": "G3",
            "ticks": 88512,
            "time": 121.3156075,
            "velocity": 0.3937007874015748
          },
          {
            "duration": 0.197368124999997,
            "durationTicks": 144,
            "midi": 53,
            "name": "F3",
            "ticks": 88512,
            "time": 121.3156075,
            "velocity": 0.3937007874015748
          },
          {
            "duration": 0.197368124999997,
            "durationTicks": 144,
            "midi": 65,
            "name": "F4",
            "ticks": 88512,
            "time": 121.3156075,
            "velocity": 0.3937007874015748
          },
          {
            "duration": 0.197368124999997,
            "durationTicks": 144,
            "midi": 59,
            "name": "B3",
            "ticks": 88512,
            "time": 121.3156075,
            "velocity": 0.3937007874015748
          },
          {
            "duration": 0.19736812500001122,
            "durationTicks": 144,
            "midi": 43,
            "name": "G2",
            "ticks": 88704,
            "time": 121.57876499999999,
            "velocity": 0.3937007874015748
          },
          {
            "duration": 0.197368124999997,
            "durationTicks": 144,
            "midi": 53,
            "name": "F3",
            "ticks": 88896,
            "time": 121.8419225,
            "velocity": 0.3937007874015748
          },
          {
            "duration": 0.197368124999997,
            "durationTicks": 144,
            "midi": 59,
            "name": "B3",
            "ticks": 88896,
            "time": 121.8419225,
            "velocity": 0.3937007874015748
          },
          {
            "duration": 0.197368124999997,
            "durationTicks": 144,
            "midi": 62,
            "name": "D4",
            "ticks": 88896,
            "time": 121.8419225,
            "velocity": 0.3937007874015748
          },
          {
            "duration": 0.197368124999997,
            "durationTicks": 144,
            "midi": 65,
            "name": "F4",
            "ticks": 88896,
            "time": 121.8419225,
            "velocity": 0.3937007874015748
          },
          {
            "duration": 0.197368124999997,
            "durationTicks": 144,
            "midi": 55,
            "name": "G3",
            "ticks": 88896,
            "time": 121.8419225,
            "velocity": 0.3937007874015748
          },
          {
            "duration": 0.197368124999997,
            "durationTicks": 144,
            "midi": 48,
            "name": "C3",
            "ticks": 89088,
            "time": 122.10508,
            "velocity": 0.3937007874015748
          },
          {
            "duration": 0.197368124999997,
            "durationTicks": 144,
            "midi": 60,
            "name": "C4",
            "ticks": 89280,
            "time": 122.36823749999999,
            "velocity": 0.3937007874015748
          },
          {
            "duration": 0.197368124999997,
            "durationTicks": 144,
            "midi": 67,
            "name": "G4",
            "ticks": 89280,
            "time": 122.36823749999999,
            "velocity": 0.3937007874015748
          },
          {
            "duration": 0.197368124999997,
            "durationTicks": 144,
            "midi": 63,
            "name": "D#4",
            "ticks": 89280,
            "time": 122.36823749999999,
            "velocity": 0.3937007874015748
          },
          {
            "duration": 0.197368124999997,
            "durationTicks": 144,
            "midi": 48,
            "name": "C3",
            "ticks": 89472,
            "time": 122.631395,
            "velocity": 0.3937007874015748
          },
          {
            "duration": 0.19736812500001122,
            "durationTicks": 144,
            "midi": 67,
            "name": "G4",
            "ticks": 89664,
            "time": 122.89455249999999,
            "velocity": 0.3937007874015748
          },
          {
            "duration": 0.19736812500001122,
            "durationTicks": 144,
            "midi": 63,
            "name": "D#4",
            "ticks": 89664,
            "time": 122.89455249999999,
            "velocity": 0.3937007874015748
          },
          {
            "duration": 0.19736812500001122,
            "durationTicks": 144,
            "midi": 60,
            "name": "C4",
            "ticks": 89664,
            "time": 122.89455249999999,
            "velocity": 0.3937007874015748
          },
          {
            "duration": 0.197368124999997,
            "durationTicks": 144,
            "midi": 51,
            "name": "D#3",
            "ticks": 89856,
            "time": 123.15771,
            "velocity": 0.3937007874015748
          },
          {
            "duration": 0.197368124999997,
            "durationTicks": 144,
            "midi": 58,
            "name": "A#3",
            "ticks": 90048,
            "time": 123.4208675,
            "velocity": 0.3937007874015748
          },
          {
            "duration": 0.197368124999997,
            "durationTicks": 144,
            "midi": 63,
            "name": "D#4",
            "ticks": 90048,
            "time": 123.4208675,
            "velocity": 0.3937007874015748
          },
          {
            "duration": 0.197368124999997,
            "durationTicks": 144,
            "midi": 67,
            "name": "G4",
            "ticks": 90048,
            "time": 123.4208675,
            "velocity": 0.3937007874015748
          },
          {
            "duration": 0.197368124999997,
            "durationTicks": 144,
            "midi": 51,
            "name": "D#3",
            "ticks": 90240,
            "time": 123.68402499999999,
            "velocity": 0.3937007874015748
          },
          {
            "duration": 0.197368124999997,
            "durationTicks": 144,
            "midi": 58,
            "name": "A#3",
            "ticks": 90432,
            "time": 123.9471825,
            "velocity": 0.3937007874015748
          },
          {
            "duration": 0.197368124999997,
            "durationTicks": 144,
            "midi": 63,
            "name": "D#4",
            "ticks": 90432,
            "time": 123.9471825,
            "velocity": 0.3937007874015748
          },
          {
            "duration": 0.197368124999997,
            "durationTicks": 144,
            "midi": 67,
            "name": "G4",
            "ticks": 90432,
            "time": 123.9471825,
            "velocity": 0.3937007874015748
          },
          {
            "duration": 0.19736812500001122,
            "durationTicks": 144,
            "midi": 44,
            "name": "G#2",
            "ticks": 90624,
            "time": 124.21033999999999,
            "velocity": 0.3937007874015748
          },
          {
            "duration": 0.197368124999997,
            "durationTicks": 144,
            "midi": 63,
            "name": "D#4",
            "ticks": 90816,
            "time": 124.4734975,
            "velocity": 0.3937007874015748
          },
          {
            "duration": 0.197368124999997,
            "durationTicks": 144,
            "midi": 60,
            "name": "C4",
            "ticks": 90816,
            "time": 124.4734975,
            "velocity": 0.3937007874015748
          },
          {
            "duration": 0.197368124999997,
            "durationTicks": 144,
            "midi": 68,
            "name": "G#4",
            "ticks": 90816,
            "time": 124.4734975,
            "velocity": 0.3937007874015748
          },
          {
            "duration": 0.197368124999997,
            "durationTicks": 144,
            "midi": 44,
            "name": "G#2",
            "ticks": 91008,
            "time": 124.736655,
            "velocity": 0.3937007874015748
          },
          {
            "duration": 0.19736812500001122,
            "durationTicks": 144,
            "midi": 68,
            "name": "G#4",
            "ticks": 91200,
            "time": 124.99981249999999,
            "velocity": 0.3937007874015748
          },
          {
            "duration": 0.19736812500001122,
            "durationTicks": 144,
            "midi": 63,
            "name": "D#4",
            "ticks": 91200,
            "time": 124.99981249999999,
            "velocity": 0.3937007874015748
          },
          {
            "duration": 0.19736812500001122,
            "durationTicks": 144,
            "midi": 60,
            "name": "C4",
            "ticks": 91200,
            "time": 124.99981249999999,
            "velocity": 0.3937007874015748
          },
          {
            "duration": 0.197368124999997,
            "durationTicks": 144,
            "midi": 43,
            "name": "G2",
            "ticks": 91392,
            "time": 125.26297,
            "velocity": 0.3937007874015748
          },
          {
            "duration": 0.197368124999997,
            "durationTicks": 144,
            "midi": 62,
            "name": "D4",
            "ticks": 91584,
            "time": 125.5261275,
            "velocity": 0.3937007874015748
          },
          {
            "duration": 0.197368124999997,
            "durationTicks": 144,
            "midi": 59,
            "name": "B3",
            "ticks": 91584,
            "time": 125.5261275,
            "velocity": 0.3937007874015748
          },
          {
            "duration": 0.197368124999997,
            "durationTicks": 144,
            "midi": 67,
            "name": "G4",
            "ticks": 91584,
            "time": 125.5261275,
            "velocity": 0.3937007874015748
          },
          {
            "duration": 0.197368124999997,
            "durationTicks": 144,
            "midi": 43,
            "name": "G2",
            "ticks": 91776,
            "time": 125.78928499999999,
            "velocity": 0.3937007874015748
          },
          {
            "duration": 0.197368124999997,
            "durationTicks": 144,
            "midi": 67,
            "name": "G4",
            "ticks": 91968,
            "time": 126.0524425,
            "velocity": 0.3937007874015748
          },
          {
            "duration": 0.197368124999997,
            "durationTicks": 144,
            "midi": 59,
            "name": "B3",
            "ticks": 91968,
            "time": 126.0524425,
            "velocity": 0.3937007874015748
          },
          {
            "duration": 0.197368124999997,
            "durationTicks": 144,
            "midi": 62,
            "name": "D4",
            "ticks": 91968,
            "time": 126.0524425,
            "velocity": 0.3937007874015748
          },
          {
            "duration": 0.19736812500001122,
            "durationTicks": 144,
            "midi": 48,
            "name": "C3",
            "ticks": 92160,
            "time": 126.31559999999999,
            "velocity": 0.3937007874015748
          },
          {
            "duration": 0.197368124999997,
            "durationTicks": 144,
            "midi": 60,
            "name": "C4",
            "ticks": 92352,
            "time": 126.5787575,
            "velocity": 0.3937007874015748
          },
          {
            "duration": 0.197368124999997,
            "durationTicks": 144,
            "midi": 63,
            "name": "D#4",
            "ticks": 92352,
            "time": 126.5787575,
            "velocity": 0.3937007874015748
          },
          {
            "duration": 0.197368124999997,
            "durationTicks": 144,
            "midi": 67,
            "name": "G4",
            "ticks": 92352,
            "time": 126.5787575,
            "velocity": 0.3937007874015748
          },
          {
            "duration": 0.197368124999997,
            "durationTicks": 144,
            "midi": 48,
            "name": "C3",
            "ticks": 92544,
            "time": 126.841915,
            "velocity": 0.3937007874015748
          },
          {
            "duration": 0.197368124999997,
            "durationTicks": 144,
            "midi": 60,
            "name": "C4",
            "ticks": 92736,
            "time": 127.10507249999999,
            "velocity": 0.3937007874015748
          },
          {
            "duration": 0.197368124999997,
            "durationTicks": 144,
            "midi": 67,
            "name": "G4",
            "ticks": 92736,
            "time": 127.10507249999999,
            "velocity": 0.3937007874015748
          },
          {
            "duration": 0.197368124999997,
            "durationTicks": 144,
            "midi": 63,
            "name": "D#4",
            "ticks": 92736,
            "time": 127.10507249999999,
            "velocity": 0.3937007874015748
          },
          {
            "duration": 0.197368124999997,
            "durationTicks": 144,
            "midi": 51,
            "name": "D#3",
            "ticks": 92928,
            "time": 127.36823,
            "velocity": 0.3937007874015748
          },
          {
            "duration": 0.19736812500001122,
            "durationTicks": 144,
            "midi": 63,
            "name": "D#4",
            "ticks": 93120,
            "time": 127.63138749999999,
            "velocity": 0.3937007874015748
          },
          {
            "duration": 0.19736812500001122,
            "durationTicks": 144,
            "midi": 58,
            "name": "A#3",
            "ticks": 93120,
            "time": 127.63138749999999,
            "velocity": 0.3937007874015748
          },
          {
            "duration": 0.19736812500001122,
            "durationTicks": 144,
            "midi": 67,
            "name": "G4",
            "ticks": 93120,
            "time": 127.63138749999999,
            "velocity": 0.3937007874015748
          },
          {
            "duration": 0.197368124999997,
            "durationTicks": 144,
            "midi": 51,
            "name": "D#3",
            "ticks": 93312,
            "time": 127.894545,
            "velocity": 0.3937007874015748
          },
          {
            "duration": 0.197368124999997,
            "durationTicks": 144,
            "midi": 58,
            "name": "A#3",
            "ticks": 93504,
            "time": 128.1577025,
            "velocity": 0.3937007874015748
          },
          {
            "duration": 0.197368124999997,
            "durationTicks": 144,
            "midi": 67,
            "name": "G4",
            "ticks": 93504,
            "time": 128.1577025,
            "velocity": 0.3937007874015748
          },
          {
            "duration": 0.197368124999997,
            "durationTicks": 144,
            "midi": 63,
            "name": "D#4",
            "ticks": 93504,
            "time": 128.1577025,
            "velocity": 0.3937007874015748
          },
          {
            "duration": 0.197368124999997,
            "durationTicks": 144,
            "midi": 44,
            "name": "G#2",
            "ticks": 93696,
            "time": 128.42086,
            "velocity": 0.3937007874015748
          },
          {
            "duration": 0.19736812500002543,
            "durationTicks": 144,
            "midi": 63,
            "name": "D#4",
            "ticks": 93888,
            "time": 128.68401749999998,
            "velocity": 0.3937007874015748
          },
          {
            "duration": 0.19736812500002543,
            "durationTicks": 144,
            "midi": 68,
            "name": "G#4",
            "ticks": 93888,
            "time": 128.68401749999998,
            "velocity": 0.3937007874015748
          },
          {
            "duration": 0.19736812500002543,
            "durationTicks": 144,
            "midi": 60,
            "name": "C4",
            "ticks": 93888,
            "time": 128.68401749999998,
            "velocity": 0.3937007874015748
          },
          {
            "duration": 0.197368124999997,
            "durationTicks": 144,
            "midi": 44,
            "name": "G#2",
            "ticks": 94080,
            "time": 128.947175,
            "velocity": 0.3937007874015748
          },
          {
            "duration": 0.197368124999997,
            "durationTicks": 144,
            "midi": 63,
            "name": "D#4",
            "ticks": 94272,
            "time": 129.2103325,
            "velocity": 0.3937007874015748
          },
          {
            "duration": 0.197368124999997,
            "durationTicks": 144,
            "midi": 68,
            "name": "G#4",
            "ticks": 94272,
            "time": 129.2103325,
            "velocity": 0.3937007874015748
          },
          {
            "duration": 0.197368124999997,
            "durationTicks": 144,
            "midi": 60,
            "name": "C4",
            "ticks": 94272,
            "time": 129.2103325,
            "velocity": 0.3937007874015748
          },
          {
            "duration": 0.197368124999997,
            "durationTicks": 144,
            "midi": 43,
            "name": "G2",
            "ticks": 94464,
            "time": 129.47349,
            "velocity": 0.3937007874015748
          },
          {
            "duration": 0.197368124999997,
            "durationTicks": 144,
            "midi": 67,
            "name": "G4",
            "ticks": 94656,
            "time": 129.7366475,
            "velocity": 0.3937007874015748
          },
          {
            "duration": 0.197368124999997,
            "durationTicks": 144,
            "midi": 59,
            "name": "B3",
            "ticks": 94656,
            "time": 129.7366475,
            "velocity": 0.3937007874015748
          },
          {
            "duration": 0.197368124999997,
            "durationTicks": 144,
            "midi": 62,
            "name": "D4",
            "ticks": 94656,
            "time": 129.7366475,
            "velocity": 0.3937007874015748
          },
          {
            "duration": 0.19736812500002543,
            "durationTicks": 144,
            "midi": 43,
            "name": "G2",
            "ticks": 94848,
            "time": 129.99980499999998,
            "velocity": 0.3937007874015748
          },
          {
            "duration": 0.197368124999997,
            "durationTicks": 144,
            "midi": 59,
            "name": "B3",
            "ticks": 95040,
            "time": 130.2629625,
            "velocity": 0.3937007874015748
          },
          {
            "duration": 0.197368124999997,
            "durationTicks": 144,
            "midi": 62,
            "name": "D4",
            "ticks": 95040,
            "time": 130.2629625,
            "velocity": 0.3937007874015748
          },
          {
            "duration": 0.197368124999997,
            "durationTicks": 144,
            "midi": 67,
            "name": "G4",
            "ticks": 95040,
            "time": 130.2629625,
            "velocity": 0.3937007874015748
          },
          {
            "duration": 0.197368124999997,
            "durationTicks": 144,
            "midi": 48,
            "name": "C3",
            "ticks": 95232,
            "time": 130.52612,
            "velocity": 0.3937007874015748
          },
          {
            "duration": 0.197368124999997,
            "durationTicks": 144,
            "midi": 67,
            "name": "G4",
            "ticks": 95424,
            "time": 130.7892775,
            "velocity": 0.3937007874015748
          },
          {
            "duration": 0.197368124999997,
            "durationTicks": 144,
            "midi": 60,
            "name": "C4",
            "ticks": 95424,
            "time": 130.7892775,
            "velocity": 0.3937007874015748
          },
          {
            "duration": 0.197368124999997,
            "durationTicks": 144,
            "midi": 63,
            "name": "D#4",
            "ticks": 95424,
            "time": 130.7892775,
            "velocity": 0.3937007874015748
          },
          {
            "duration": 0.197368124999997,
            "durationTicks": 144,
            "midi": 48,
            "name": "C3",
            "ticks": 95616,
            "time": 131.052435,
            "velocity": 0.3937007874015748
          },
          {
            "duration": 0.197368124999997,
            "durationTicks": 144,
            "midi": 60,
            "name": "C4",
            "ticks": 95808,
            "time": 131.3155925,
            "velocity": 0.3937007874015748
          },
          {
            "duration": 0.197368124999997,
            "durationTicks": 144,
            "midi": 63,
            "name": "D#4",
            "ticks": 95808,
            "time": 131.3155925,
            "velocity": 0.3937007874015748
          },
          {
            "duration": 0.197368124999997,
            "durationTicks": 144,
            "midi": 67,
            "name": "G4",
            "ticks": 95808,
            "time": 131.3155925,
            "velocity": 0.3937007874015748
          },
          {
            "duration": 0.197368124999997,
            "durationTicks": 144,
            "midi": 51,
            "name": "D#3",
            "ticks": 96000,
            "time": 131.57874999999999,
            "velocity": 0.3937007874015748
          },
          {
            "duration": 0.197368124999997,
            "durationTicks": 144,
            "midi": 58,
            "name": "A#3",
            "ticks": 96192,
            "time": 131.8419075,
            "velocity": 0.3937007874015748
          },
          {
            "duration": 0.197368124999997,
            "durationTicks": 144,
            "midi": 67,
            "name": "G4",
            "ticks": 96192,
            "time": 131.8419075,
            "velocity": 0.3937007874015748
          },
          {
            "duration": 0.197368124999997,
            "durationTicks": 144,
            "midi": 63,
            "name": "D#4",
            "ticks": 96192,
            "time": 131.8419075,
            "velocity": 0.3937007874015748
          },
          {
            "duration": 0.197368124999997,
            "durationTicks": 144,
            "midi": 51,
            "name": "D#3",
            "ticks": 96384,
            "time": 132.105065,
            "velocity": 0.3937007874015748
          },
          {
            "duration": 0.197368124999997,
            "durationTicks": 144,
            "midi": 63,
            "name": "D#4",
            "ticks": 96576,
            "time": 132.3682225,
            "velocity": 0.3937007874015748
          },
          {
            "duration": 0.197368124999997,
            "durationTicks": 144,
            "midi": 67,
            "name": "G4",
            "ticks": 96576,
            "time": 132.3682225,
            "velocity": 0.3937007874015748
          },
          {
            "duration": 0.197368124999997,
            "durationTicks": 144,
            "midi": 58,
            "name": "A#3",
            "ticks": 96576,
            "time": 132.3682225,
            "velocity": 0.3937007874015748
          },
          {
            "duration": 0.197368124999997,
            "durationTicks": 144,
            "midi": 44,
            "name": "G#2",
            "ticks": 96768,
            "time": 132.63138,
            "velocity": 0.3937007874015748
          },
          {
            "duration": 0.197368124999997,
            "durationTicks": 144,
            "midi": 63,
            "name": "D#4",
            "ticks": 96960,
            "time": 132.89453749999998,
            "velocity": 0.3937007874015748
          },
          {
            "duration": 0.197368124999997,
            "durationTicks": 144,
            "midi": 68,
            "name": "G#4",
            "ticks": 96960,
            "time": 132.89453749999998,
            "velocity": 0.3937007874015748
          },
          {
            "duration": 0.197368124999997,
            "durationTicks": 144,
            "midi": 60,
            "name": "C4",
            "ticks": 96960,
            "time": 132.89453749999998,
            "velocity": 0.3937007874015748
          },
          {
            "duration": 0.197368124999997,
            "durationTicks": 144,
            "midi": 44,
            "name": "G#2",
            "ticks": 97152,
            "time": 133.157695,
            "velocity": 0.3937007874015748
          },
          {
            "duration": 0.197368124999997,
            "durationTicks": 144,
            "midi": 63,
            "name": "D#4",
            "ticks": 97344,
            "time": 133.4208525,
            "velocity": 0.3937007874015748
          },
          {
            "duration": 0.197368124999997,
            "durationTicks": 144,
            "midi": 68,
            "name": "G#4",
            "ticks": 97344,
            "time": 133.4208525,
            "velocity": 0.3937007874015748
          },
          {
            "duration": 0.197368124999997,
            "durationTicks": 144,
            "midi": 60,
            "name": "C4",
            "ticks": 97344,
            "time": 133.4208525,
            "velocity": 0.3937007874015748
          },
          {
            "duration": 0.197368124999997,
            "durationTicks": 144,
            "midi": 43,
            "name": "G2",
            "ticks": 97536,
            "time": 133.68401,
            "velocity": 0.3937007874015748
          },
          {
            "duration": 0.197368124999997,
            "durationTicks": 144,
            "midi": 62,
            "name": "D4",
            "ticks": 97728,
            "time": 133.9471675,
            "velocity": 0.3937007874015748
          },
          {
            "duration": 0.197368124999997,
            "durationTicks": 144,
            "midi": 67,
            "name": "G4",
            "ticks": 97728,
            "time": 133.9471675,
            "velocity": 0.3937007874015748
          },
          {
            "duration": 0.197368124999997,
            "durationTicks": 144,
            "midi": 59,
            "name": "B3",
            "ticks": 97728,
            "time": 133.9471675,
            "velocity": 0.3937007874015748
          },
          {
            "duration": 0.197368124999997,
            "durationTicks": 144,
            "midi": 43,
            "name": "G2",
            "ticks": 97920,
            "time": 134.21032499999998,
            "velocity": 0.3937007874015748
          },
          {
            "duration": 0.197368124999997,
            "durationTicks": 144,
            "midi": 67,
            "name": "G4",
            "ticks": 98112,
            "time": 134.4734825,
            "velocity": 0.3937007874015748
          },
          {
            "duration": 0.197368124999997,
            "durationTicks": 144,
            "midi": 62,
            "name": "D4",
            "ticks": 98112,
            "time": 134.4734825,
            "velocity": 0.3937007874015748
          },
          {
            "duration": 0.197368124999997,
            "durationTicks": 144,
            "midi": 59,
            "name": "B3",
            "ticks": 98112,
            "time": 134.4734825,
            "velocity": 0.3937007874015748
          },
          {
            "duration": 0.197368124999997,
            "durationTicks": 144,
            "midi": 41,
            "name": "F2",
            "ticks": 98304,
            "time": 134.73664,
            "velocity": 0.3937007874015748
          },
          {
            "duration": 0.197368124999997,
            "durationTicks": 144,
            "midi": 68,
            "name": "G#4",
            "ticks": 98496,
            "time": 134.9997975,
            "velocity": 0.3937007874015748
          },
          {
            "duration": 0.197368124999997,
            "durationTicks": 144,
            "midi": 65,
            "name": "F4",
            "ticks": 98496,
            "time": 134.9997975,
            "velocity": 0.3937007874015748
          },
          {
            "duration": 0.197368124999997,
            "durationTicks": 144,
            "midi": 60,
            "name": "C4",
            "ticks": 98496,
            "time": 134.9997975,
            "velocity": 0.3937007874015748
          },
          {
            "duration": 0.197368124999997,
            "durationTicks": 144,
            "midi": 56,
            "name": "G#3",
            "ticks": 98496,
            "time": 134.9997975,
            "velocity": 0.3937007874015748
          },
          {
            "duration": 0.197368124999997,
            "durationTicks": 144,
            "midi": 53,
            "name": "F3",
            "ticks": 98496,
            "time": 134.9997975,
            "velocity": 0.3937007874015748
          },
          {
            "duration": 0.197368124999997,
            "durationTicks": 144,
            "midi": 41,
            "name": "F2",
            "ticks": 98688,
            "time": 135.262955,
            "velocity": 0.3937007874015748
          },
          {
            "duration": 0.19736812500002543,
            "durationTicks": 144,
            "midi": 68,
            "name": "G#4",
            "ticks": 98880,
            "time": 135.52611249999998,
            "velocity": 0.3937007874015748
          },
          {
            "duration": 0.19736812500002543,
            "durationTicks": 144,
            "midi": 53,
            "name": "F3",
            "ticks": 98880,
            "time": 135.52611249999998,
            "velocity": 0.3937007874015748
          },
          {
            "duration": 0.19736812500002543,
            "durationTicks": 144,
            "midi": 65,
            "name": "F4",
            "ticks": 98880,
            "time": 135.52611249999998,
            "velocity": 0.3937007874015748
          },
          {
            "duration": 0.19736812500002543,
            "durationTicks": 144,
            "midi": 60,
            "name": "C4",
            "ticks": 98880,
            "time": 135.52611249999998,
            "velocity": 0.3937007874015748
          },
          {
            "duration": 0.19736812500002543,
            "durationTicks": 144,
            "midi": 56,
            "name": "G#3",
            "ticks": 98880,
            "time": 135.52611249999998,
            "velocity": 0.3937007874015748
          },
          {
            "duration": 0.197368124999997,
            "durationTicks": 144,
            "midi": 39,
            "name": "D#2",
            "ticks": 99072,
            "time": 135.78927,
            "velocity": 0.3937007874015748
          },
          {
            "duration": 0.197368124999997,
            "durationTicks": 144,
            "midi": 63,
            "name": "D#4",
            "ticks": 99264,
            "time": 136.0524275,
            "velocity": 0.3937007874015748
          },
          {
            "duration": 0.197368124999997,
            "durationTicks": 144,
            "midi": 56,
            "name": "G#3",
            "ticks": 99264,
            "time": 136.0524275,
            "velocity": 0.3937007874015748
          },
          {
            "duration": 0.197368124999997,
            "durationTicks": 144,
            "midi": 60,
            "name": "C4",
            "ticks": 99264,
            "time": 136.0524275,
            "velocity": 0.3937007874015748
          },
          {
            "duration": 0.197368124999997,
            "durationTicks": 144,
            "midi": 51,
            "name": "D#3",
            "ticks": 99264,
            "time": 136.0524275,
            "velocity": 0.3937007874015748
          },
          {
            "duration": 0.197368124999997,
            "durationTicks": 144,
            "midi": 68,
            "name": "G#4",
            "ticks": 99264,
            "time": 136.0524275,
            "velocity": 0.3937007874015748
          },
          {
            "duration": 0.197368124999997,
            "durationTicks": 144,
            "midi": 39,
            "name": "D#2",
            "ticks": 99456,
            "time": 136.315585,
            "velocity": 0.3937007874015748
          },
          {
            "duration": 0.197368124999997,
            "durationTicks": 144,
            "midi": 68,
            "name": "G#4",
            "ticks": 99648,
            "time": 136.5787425,
            "velocity": 0.3937007874015748
          },
          {
            "duration": 0.197368124999997,
            "durationTicks": 144,
            "midi": 60,
            "name": "C4",
            "ticks": 99648,
            "time": 136.5787425,
            "velocity": 0.3937007874015748
          },
          {
            "duration": 0.197368124999997,
            "durationTicks": 144,
            "midi": 56,
            "name": "G#3",
            "ticks": 99648,
            "time": 136.5787425,
            "velocity": 0.3937007874015748
          },
          {
            "duration": 0.197368124999997,
            "durationTicks": 144,
            "midi": 63,
            "name": "D#4",
            "ticks": 99648,
            "time": 136.5787425,
            "velocity": 0.3937007874015748
          },
          {
            "duration": 0.197368124999997,
            "durationTicks": 144,
            "midi": 51,
            "name": "D#3",
            "ticks": 99648,
            "time": 136.5787425,
            "velocity": 0.3937007874015748
          },
          {
            "duration": 0.19736812500002543,
            "durationTicks": 144,
            "midi": 38,
            "name": "D2",
            "ticks": 99840,
            "time": 136.84189999999998,
            "velocity": 0.3937007874015748
          },
          {
            "duration": 0.197368124999997,
            "durationTicks": 144,
            "midi": 57,
            "name": "A3",
            "ticks": 100032,
            "time": 137.1050575,
            "velocity": 0.3937007874015748
          },
          {
            "duration": 0.197368124999997,
            "durationTicks": 144,
            "midi": 50,
            "name": "D3",
            "ticks": 100032,
            "time": 137.1050575,
            "velocity": 0.3937007874015748
          },
          {
            "duration": 0.197368124999997,
            "durationTicks": 144,
            "midi": 54,
            "name": "F#3",
            "ticks": 100032,
            "time": 137.1050575,
            "velocity": 0.3937007874015748
          },
          {
            "duration": 0.197368124999997,
            "durationTicks": 144,
            "midi": 66,
            "name": "F#4",
            "ticks": 100032,
            "time": 137.1050575,
            "velocity": 0.3937007874015748
          },
          {
            "duration": 0.197368124999997,
            "durationTicks": 144,
            "midi": 62,
            "name": "D4",
            "ticks": 100032,
            "time": 137.1050575,
            "velocity": 0.3937007874015748
          },
          {
            "duration": 0.197368124999997,
            "durationTicks": 144,
            "midi": 38,
            "name": "D2",
            "ticks": 100224,
            "time": 137.368215,
            "velocity": 0.3937007874015748
          },
          {
            "duration": 0.197368124999997,
            "durationTicks": 144,
            "midi": 66,
            "name": "F#4",
            "ticks": 100416,
            "time": 137.6313725,
            "velocity": 0.3937007874015748
          },
          {
            "duration": 0.197368124999997,
            "durationTicks": 144,
            "midi": 57,
            "name": "A3",
            "ticks": 100416,
            "time": 137.6313725,
            "velocity": 0.3937007874015748
          },
          {
            "duration": 0.197368124999997,
            "durationTicks": 144,
            "midi": 54,
            "name": "F#3",
            "ticks": 100416,
            "time": 137.6313725,
            "velocity": 0.3937007874015748
          },
          {
            "duration": 0.197368124999997,
            "durationTicks": 144,
            "midi": 50,
            "name": "D3",
            "ticks": 100416,
            "time": 137.6313725,
            "velocity": 0.3937007874015748
          },
          {
            "duration": 0.197368124999997,
            "durationTicks": 144,
            "midi": 62,
            "name": "D4",
            "ticks": 100416,
            "time": 137.6313725,
            "velocity": 0.3937007874015748
          },
          {
            "duration": 0.197368124999997,
            "durationTicks": 144,
            "midi": 43,
            "name": "G2",
            "ticks": 100608,
            "time": 137.89453,
            "velocity": 0.3937007874015748
          },
          {
            "duration": 0.19736812500002543,
            "durationTicks": 144,
            "midi": 53,
            "name": "F3",
            "ticks": 100800,
            "time": 138.15768749999998,
            "velocity": 0.3937007874015748
          },
          {
            "duration": 0.19736812500002543,
            "durationTicks": 144,
            "midi": 55,
            "name": "G3",
            "ticks": 100800,
            "time": 138.15768749999998,
            "velocity": 0.3937007874015748
          },
          {
            "duration": 0.19736812500002543,
            "durationTicks": 144,
            "midi": 62,
            "name": "D4",
            "ticks": 100800,
            "time": 138.15768749999998,
            "velocity": 0.3937007874015748
          },
          {
            "duration": 0.19736812500002543,
            "durationTicks": 144,
            "midi": 65,
            "name": "F4",
            "ticks": 100800,
            "time": 138.15768749999998,
            "velocity": 0.3937007874015748
          },
          {
            "duration": 0.19736812500002543,
            "durationTicks": 144,
            "midi": 59,
            "name": "B3",
            "ticks": 100800,
            "time": 138.15768749999998,
            "velocity": 0.3937007874015748
          },
          {
            "duration": 0.197368124999997,
            "durationTicks": 144,
            "midi": 43,
            "name": "G2",
            "ticks": 100992,
            "time": 138.42084499999999,
            "velocity": 0.3937007874015748
          },
          {
            "duration": 0.197368124999997,
            "durationTicks": 144,
            "midi": 62,
            "name": "D4",
            "ticks": 101184,
            "time": 138.6840025,
            "velocity": 0.3937007874015748
          },
          {
            "duration": 0.197368124999997,
            "durationTicks": 144,
            "midi": 59,
            "name": "B3",
            "ticks": 101184,
            "time": 138.6840025,
            "velocity": 0.3937007874015748
          },
          {
            "duration": 0.197368124999997,
            "durationTicks": 144,
            "midi": 53,
            "name": "F3",
            "ticks": 101184,
            "time": 138.6840025,
            "velocity": 0.3937007874015748
          },
          {
            "duration": 0.197368124999997,
            "durationTicks": 144,
            "midi": 65,
            "name": "F4",
            "ticks": 101184,
            "time": 138.6840025,
            "velocity": 0.3937007874015748
          },
          {
            "duration": 0.197368124999997,
            "durationTicks": 144,
            "midi": 55,
            "name": "G3",
            "ticks": 101184,
            "time": 138.6840025,
            "velocity": 0.3937007874015748
          },
          {
            "duration": 0.197368124999997,
            "durationTicks": 144,
            "midi": 48,
            "name": "C3",
            "ticks": 101376,
            "time": 138.94716,
            "velocity": 0.3937007874015748
          },
          {
            "duration": 0.197368124999997,
            "durationTicks": 144,
            "midi": 63,
            "name": "D#4",
            "ticks": 101568,
            "time": 139.2103175,
            "velocity": 0.3937007874015748
          },
          {
            "duration": 0.197368124999997,
            "durationTicks": 144,
            "midi": 67,
            "name": "G4",
            "ticks": 101568,
            "time": 139.2103175,
            "velocity": 0.3937007874015748
          },
          {
            "duration": 0.197368124999997,
            "durationTicks": 144,
            "midi": 60,
            "name": "C4",
            "ticks": 101568,
            "time": 139.2103175,
            "velocity": 0.3937007874015748
          },
          {
            "duration": 0.197368124999997,
            "durationTicks": 144,
            "midi": 48,
            "name": "C3",
            "ticks": 101760,
            "time": 139.473475,
            "velocity": 0.3937007874015748
          },
          {
            "duration": 0.197368124999997,
            "durationTicks": 144,
            "midi": 67,
            "name": "G4",
            "ticks": 101952,
            "time": 139.73663249999998,
            "velocity": 0.3937007874015748
          },
          {
            "duration": 0.197368124999997,
            "durationTicks": 144,
            "midi": 63,
            "name": "D#4",
            "ticks": 101952,
            "time": 139.73663249999998,
            "velocity": 0.3937007874015748
          },
          {
            "duration": 0.197368124999997,
            "durationTicks": 144,
            "midi": 60,
            "name": "C4",
            "ticks": 101952,
            "time": 139.73663249999998,
            "velocity": 0.3937007874015748
          },
          {
            "duration": 0.197368124999997,
            "durationTicks": 144,
            "midi": 51,
            "name": "D#3",
            "ticks": 102144,
            "time": 139.99979,
            "velocity": 0.3937007874015748
          },
          {
            "duration": 0.197368124999997,
            "durationTicks": 144,
            "midi": 63,
            "name": "D#4",
            "ticks": 102336,
            "time": 140.2629475,
            "velocity": 0.3937007874015748
          },
          {
            "duration": 0.197368124999997,
            "durationTicks": 144,
            "midi": 67,
            "name": "G4",
            "ticks": 102336,
            "time": 140.2629475,
            "velocity": 0.3937007874015748
          },
          {
            "duration": 0.197368124999997,
            "durationTicks": 144,
            "midi": 58,
            "name": "A#3",
            "ticks": 102336,
            "time": 140.2629475,
            "velocity": 0.3937007874015748
          },
          {
            "duration": 0.197368124999997,
            "durationTicks": 144,
            "midi": 51,
            "name": "D#3",
            "ticks": 102528,
            "time": 140.526105,
            "velocity": 0.3937007874015748
          },
          {
            "duration": 0.197368124999997,
            "durationTicks": 144,
            "midi": 67,
            "name": "G4",
            "ticks": 102720,
            "time": 140.7892625,
            "velocity": 0.3937007874015748
          },
          {
            "duration": 0.197368124999997,
            "durationTicks": 144,
            "midi": 63,
            "name": "D#4",
            "ticks": 102720,
            "time": 140.7892625,
            "velocity": 0.3937007874015748
          },
          {
            "duration": 0.197368124999997,
            "durationTicks": 144,
            "midi": 58,
            "name": "A#3",
            "ticks": 102720,
            "time": 140.7892625,
            "velocity": 0.3937007874015748
          },
          {
            "duration": 0.197368124999997,
            "durationTicks": 144,
            "midi": 44,
            "name": "G#2",
            "ticks": 102912,
            "time": 141.05241999999998,
            "velocity": 0.3937007874015748
          },
          {
            "duration": 0.197368124999997,
            "durationTicks": 144,
            "midi": 68,
            "name": "G#4",
            "ticks": 103104,
            "time": 141.3155775,
            "velocity": 0.3937007874015748
          },
          {
            "duration": 0.197368124999997,
            "durationTicks": 144,
            "midi": 60,
            "name": "C4",
            "ticks": 103104,
            "time": 141.3155775,
            "velocity": 0.3937007874015748
          },
          {
            "duration": 0.197368124999997,
            "durationTicks": 144,
            "midi": 63,
            "name": "D#4",
            "ticks": 103104,
            "time": 141.3155775,
            "velocity": 0.3937007874015748
          },
          {
            "duration": 0.197368124999997,
            "durationTicks": 144,
            "midi": 44,
            "name": "G#2",
            "ticks": 103296,
            "time": 141.578735,
            "velocity": 0.3937007874015748
          },
          {
            "duration": 0.197368124999997,
            "durationTicks": 144,
            "midi": 63,
            "name": "D#4",
            "ticks": 103488,
            "time": 141.8418925,
            "velocity": 0.3937007874015748
          },
          {
            "duration": 0.197368124999997,
            "durationTicks": 144,
            "midi": 60,
            "name": "C4",
            "ticks": 103488,
            "time": 141.8418925,
            "velocity": 0.3937007874015748
          },
          {
            "duration": 0.197368124999997,
            "durationTicks": 144,
            "midi": 68,
            "name": "G#4",
            "ticks": 103488,
            "time": 141.8418925,
            "velocity": 0.3937007874015748
          },
          {
            "duration": 0.197368124999997,
            "durationTicks": 144,
            "midi": 43,
            "name": "G2",
            "ticks": 103680,
            "time": 142.10505,
            "velocity": 0.3937007874015748
          },
          {
            "duration": 0.197368124999997,
            "durationTicks": 144,
            "midi": 62,
            "name": "D4",
            "ticks": 103872,
            "time": 142.36820749999998,
            "velocity": 0.3937007874015748
          },
          {
            "duration": 0.197368124999997,
            "durationTicks": 144,
            "midi": 67,
            "name": "G4",
            "ticks": 103872,
            "time": 142.36820749999998,
            "velocity": 0.3937007874015748
          },
          {
            "duration": 0.197368124999997,
            "durationTicks": 144,
            "midi": 59,
            "name": "B3",
            "ticks": 103872,
            "time": 142.36820749999998,
            "velocity": 0.3937007874015748
          },
          {
            "duration": 0.197368124999997,
            "durationTicks": 144,
            "midi": 43,
            "name": "G2",
            "ticks": 104064,
            "time": 142.631365,
            "velocity": 0.3937007874015748
          },
          {
            "duration": 0.197368124999997,
            "durationTicks": 144,
            "midi": 62,
            "name": "D4",
            "ticks": 104256,
            "time": 142.8945225,
            "velocity": 0.3937007874015748
          },
          {
            "duration": 0.197368124999997,
            "durationTicks": 144,
            "midi": 59,
            "name": "B3",
            "ticks": 104256,
            "time": 142.8945225,
            "velocity": 0.3937007874015748
          },
          {
            "duration": 0.197368124999997,
            "durationTicks": 144,
            "midi": 67,
            "name": "G4",
            "ticks": 104256,
            "time": 142.8945225,
            "velocity": 0.3937007874015748
          }
        ],
        "endOfTrackTicks": 104400
      },
      {
        "channel": 1,
        "controlChanges": {},
        "pitchBends": [],
        "instrument": {
          "family": "guitar",
          "number": 24,
          "name": "acoustic guitar (nylon)"
        },
        "name": "Acoustic Guitar",
        "notes": [
          {
            "duration": 0.1315787499999992,
            "durationTicks": 96,
            "midi": 48,
            "name": "C3",
            "ticks": 12288,
            "time": 16.84208,
            "velocity": 0.3937007874015748
          },
          {
            "duration": 0.13157875000000274,
            "durationTicks": 96,
            "midi": 63,
            "name": "D#4",
            "ticks": 12480,
            "time": 17.105237499999998,
            "velocity": 0.3937007874015748
          },
          {
            "duration": 0.13157875000000274,
            "durationTicks": 96,
            "midi": 72,
            "name": "C5",
            "ticks": 12480,
            "time": 17.105237499999998,
            "velocity": 0.3937007874015748
          },
          {
            "duration": 0.13157875000000274,
            "durationTicks": 96,
            "midi": 67,
            "name": "G4",
            "ticks": 12480,
            "time": 17.105237499999998,
            "velocity": 0.3937007874015748
          },
          {
            "duration": 0.1315787499999992,
            "durationTicks": 96,
            "midi": 48,
            "name": "C3",
            "ticks": 12672,
            "time": 17.368395,
            "velocity": 0.3937007874015748
          },
          {
            "duration": 0.13157875000000274,
            "durationTicks": 96,
            "midi": 67,
            "name": "G4",
            "ticks": 12864,
            "time": 17.631552499999998,
            "velocity": 0.3937007874015748
          },
          {
            "duration": 0.13157875000000274,
            "durationTicks": 96,
            "midi": 63,
            "name": "D#4",
            "ticks": 12864,
            "time": 17.631552499999998,
            "velocity": 0.3937007874015748
          },
          {
            "duration": 0.13157875000000274,
            "durationTicks": 96,
            "midi": 72,
            "name": "C5",
            "ticks": 12864,
            "time": 17.631552499999998,
            "velocity": 0.3937007874015748
          },
          {
            "duration": 0.1315787499999992,
            "durationTicks": 96,
            "midi": 51,
            "name": "D#3",
            "ticks": 13056,
            "time": 17.89471,
            "velocity": 0.3937007874015748
          },
          {
            "duration": 0.1315787499999992,
            "durationTicks": 96,
            "midi": 67,
            "name": "G4",
            "ticks": 13248,
            "time": 18.1578675,
            "velocity": 0.3937007874015748
          },
          {
            "duration": 0.1315787499999992,
            "durationTicks": 96,
            "midi": 63,
            "name": "D#4",
            "ticks": 13248,
            "time": 18.1578675,
            "velocity": 0.3937007874015748
          },
          {
            "duration": 0.1315787499999992,
            "durationTicks": 96,
            "midi": 58,
            "name": "A#3",
            "ticks": 13248,
            "time": 18.1578675,
            "velocity": 0.3937007874015748
          },
          {
            "duration": 0.1315787499999992,
            "durationTicks": 96,
            "midi": 51,
            "name": "D#3",
            "ticks": 13440,
            "time": 18.421025,
            "velocity": 0.3937007874015748
          },
          {
            "duration": 0.1315787499999992,
            "durationTicks": 96,
            "midi": 67,
            "name": "G4",
            "ticks": 13632,
            "time": 18.6841825,
            "velocity": 0.3937007874015748
          },
          {
            "duration": 0.1315787499999992,
            "durationTicks": 96,
            "midi": 63,
            "name": "D#4",
            "ticks": 13632,
            "time": 18.6841825,
            "velocity": 0.3937007874015748
          },
          {
            "duration": 0.1315787499999992,
            "durationTicks": 96,
            "midi": 58,
            "name": "A#3",
            "ticks": 13632,
            "time": 18.6841825,
            "velocity": 0.3937007874015748
          },
          {
            "duration": 0.1315787499999992,
            "durationTicks": 96,
            "midi": 44,
            "name": "G#2",
            "ticks": 13824,
            "time": 18.94734,
            "velocity": 0.3937007874015748
          },
          {
            "duration": 0.1315787499999992,
            "durationTicks": 96,
            "midi": 68,
            "name": "G#4",
            "ticks": 14016,
            "time": 19.2104975,
            "velocity": 0.3937007874015748
          },
          {
            "duration": 0.1315787499999992,
            "durationTicks": 96,
            "midi": 60,
            "name": "C4",
            "ticks": 14016,
            "time": 19.2104975,
            "velocity": 0.3937007874015748
          },
          {
            "duration": 0.1315787499999992,
            "durationTicks": 96,
            "midi": 63,
            "name": "D#4",
            "ticks": 14016,
            "time": 19.2104975,
            "velocity": 0.3937007874015748
          },
          {
            "duration": 0.1315787499999992,
            "durationTicks": 96,
            "midi": 44,
            "name": "G#2",
            "ticks": 14208,
            "time": 19.473655,
            "velocity": 0.3937007874015748
          },
          {
            "duration": 0.1315787499999992,
            "durationTicks": 96,
            "midi": 60,
            "name": "C4",
            "ticks": 14400,
            "time": 19.7368125,
            "velocity": 0.3937007874015748
          },
          {
            "duration": 0.1315787499999992,
            "durationTicks": 96,
            "midi": 63,
            "name": "D#4",
            "ticks": 14400,
            "time": 19.7368125,
            "velocity": 0.3937007874015748
          },
          {
            "duration": 0.1315787499999992,
            "durationTicks": 96,
            "midi": 68,
            "name": "G#4",
            "ticks": 14400,
            "time": 19.7368125,
            "velocity": 0.3937007874015748
          },
          {
            "duration": 0.13157875000000274,
            "durationTicks": 96,
            "midi": 43,
            "name": "G2",
            "ticks": 14592,
            "time": 19.999969999999998,
            "velocity": 0.3937007874015748
          },
          {
            "duration": 0.1315787499999992,
            "durationTicks": 96,
            "midi": 59,
            "name": "B3",
            "ticks": 14784,
            "time": 20.2631275,
            "velocity": 0.3937007874015748
          },
          {
            "duration": 0.1315787499999992,
            "durationTicks": 96,
            "midi": 62,
            "name": "D4",
            "ticks": 14784,
            "time": 20.2631275,
            "velocity": 0.3937007874015748
          },
          {
            "duration": 0.1315787499999992,
            "durationTicks": 96,
            "midi": 67,
            "name": "G4",
            "ticks": 14784,
            "time": 20.2631275,
            "velocity": 0.3937007874015748
          },
          {
            "duration": 0.13157875000000274,
            "durationTicks": 96,
            "midi": 43,
            "name": "G2",
            "ticks": 14976,
            "time": 20.526284999999998,
            "velocity": 0.3937007874015748
          },
          {
            "duration": 0.1315787499999992,
            "durationTicks": 96,
            "midi": 67,
            "name": "G4",
            "ticks": 15168,
            "time": 20.7894425,
            "velocity": 0.3937007874015748
          },
          {
            "duration": 0.1315787499999992,
            "durationTicks": 96,
            "midi": 62,
            "name": "D4",
            "ticks": 15168,
            "time": 20.7894425,
            "velocity": 0.3937007874015748
          },
          {
            "duration": 0.1315787499999992,
            "durationTicks": 96,
            "midi": 59,
            "name": "B3",
            "ticks": 15168,
            "time": 20.7894425,
            "velocity": 0.3937007874015748
          },
          {
            "duration": 0.1315787499999992,
            "durationTicks": 96,
            "midi": 48,
            "name": "C3",
            "ticks": 15360,
            "time": 21.052599999999998,
            "velocity": 0.3937007874015748
          },
          {
            "duration": 0.1315787499999992,
            "durationTicks": 96,
            "midi": 72,
            "name": "C5",
            "ticks": 15552,
            "time": 21.3157575,
            "velocity": 0.3937007874015748
          },
          {
            "duration": 0.1315787499999992,
            "durationTicks": 96,
            "midi": 67,
            "name": "G4",
            "ticks": 15552,
            "time": 21.3157575,
            "velocity": 0.3937007874015748
          },
          {
            "duration": 0.1315787499999992,
            "durationTicks": 96,
            "midi": 63,
            "name": "D#4",
            "ticks": 15552,
            "time": 21.3157575,
            "velocity": 0.3937007874015748
          },
          {
            "duration": 0.1315787499999992,
            "durationTicks": 96,
            "midi": 48,
            "name": "C3",
            "ticks": 15744,
            "time": 21.578915,
            "velocity": 0.3937007874015748
          },
          {
            "duration": 0.1315787499999992,
            "durationTicks": 96,
            "midi": 67,
            "name": "G4",
            "ticks": 15936,
            "time": 21.8420725,
            "velocity": 0.3937007874015748
          },
          {
            "duration": 0.1315787499999992,
            "durationTicks": 96,
            "midi": 63,
            "name": "D#4",
            "ticks": 15936,
            "time": 21.8420725,
            "velocity": 0.3937007874015748
          },
          {
            "duration": 0.1315787499999992,
            "durationTicks": 96,
            "midi": 72,
            "name": "C5",
            "ticks": 15936,
            "time": 21.8420725,
            "velocity": 0.3937007874015748
          },
          {
            "duration": 0.1315787499999992,
            "durationTicks": 96,
            "midi": 51,
            "name": "D#3",
            "ticks": 16128,
            "time": 22.10523,
            "velocity": 0.3937007874015748
          },
          {
            "duration": 0.1315787499999992,
            "durationTicks": 96,
            "midi": 67,
            "name": "G4",
            "ticks": 16320,
            "time": 22.3683875,
            "velocity": 0.3937007874015748
          },
          {
            "duration": 0.1315787499999992,
            "durationTicks": 96,
            "midi": 63,
            "name": "D#4",
            "ticks": 16320,
            "time": 22.3683875,
            "velocity": 0.3937007874015748
          },
          {
            "duration": 0.1315787499999992,
            "durationTicks": 96,
            "midi": 58,
            "name": "A#3",
            "ticks": 16320,
            "time": 22.3683875,
            "velocity": 0.3937007874015748
          },
          {
            "duration": 0.1315787499999992,
            "durationTicks": 96,
            "midi": 51,
            "name": "D#3",
            "ticks": 16512,
            "time": 22.631545,
            "velocity": 0.3937007874015748
          },
          {
            "duration": 0.13157875000000274,
            "durationTicks": 96,
            "midi": 67,
            "name": "G4",
            "ticks": 16704,
            "time": 22.894702499999998,
            "velocity": 0.3937007874015748
          },
          {
            "duration": 0.13157875000000274,
            "durationTicks": 96,
            "midi": 58,
            "name": "A#3",
            "ticks": 16704,
            "time": 22.894702499999998,
            "velocity": 0.3937007874015748
          },
          {
            "duration": 0.13157875000000274,
            "durationTicks": 96,
            "midi": 63,
            "name": "D#4",
            "ticks": 16704,
            "time": 22.894702499999998,
            "velocity": 0.3937007874015748
          },
          {
            "duration": 0.1315787499999992,
            "durationTicks": 96,
            "midi": 44,
            "name": "G#2",
            "ticks": 16896,
            "time": 23.15786,
            "velocity": 0.3937007874015748
          },
          {
            "duration": 0.13157875000000274,
            "durationTicks": 96,
            "midi": 60,
            "name": "C4",
            "ticks": 17088,
            "time": 23.421017499999998,
            "velocity": 0.3937007874015748
          },
          {
            "duration": 0.13157875000000274,
            "durationTicks": 96,
            "midi": 68,
            "name": "G#4",
            "ticks": 17088,
            "time": 23.421017499999998,
            "velocity": 0.3937007874015748
          },
          {
            "duration": 0.13157875000000274,
            "durationTicks": 96,
            "midi": 63,
            "name": "D#4",
            "ticks": 17088,
            "time": 23.421017499999998,
            "velocity": 0.3937007874015748
          },
          {
            "duration": 0.1315787499999992,
            "durationTicks": 96,
            "midi": 44,
            "name": "G#2",
            "ticks": 17280,
            "time": 23.684175,
            "velocity": 0.3937007874015748
          },
          {
            "duration": 0.1315787499999992,
            "durationTicks": 96,
            "midi": 60,
            "name": "C4",
            "ticks": 17472,
            "time": 23.947332499999998,
            "velocity": 0.3937007874015748
          },
          {
            "duration": 0.1315787499999992,
            "durationTicks": 96,
            "midi": 63,
            "name": "D#4",
            "ticks": 17472,
            "time": 23.947332499999998,
            "velocity": 0.3937007874015748
          },
          {
            "duration": 0.1315787499999992,
            "durationTicks": 96,
            "midi": 68,
            "name": "G#4",
            "ticks": 17472,
            "time": 23.947332499999998,
            "velocity": 0.3937007874015748
          },
          {
            "duration": 0.1315787499999992,
            "durationTicks": 96,
            "midi": 43,
            "name": "G2",
            "ticks": 17664,
            "time": 24.21049,
            "velocity": 0.3937007874015748
          },
          {
            "duration": 0.1315787499999992,
            "durationTicks": 96,
            "midi": 67,
            "name": "G4",
            "ticks": 17856,
            "time": 24.4736475,
            "velocity": 0.3937007874015748
          },
          {
            "duration": 0.1315787499999992,
            "durationTicks": 96,
            "midi": 62,
            "name": "D4",
            "ticks": 17856,
            "time": 24.4736475,
            "velocity": 0.3937007874015748
          },
          {
            "duration": 0.1315787499999992,
            "durationTicks": 96,
            "midi": 59,
            "name": "B3",
            "ticks": 17856,
            "time": 24.4736475,
            "velocity": 0.3937007874015748
          },
          {
            "duration": 0.1315787499999992,
            "durationTicks": 96,
            "midi": 43,
            "name": "G2",
            "ticks": 18048,
            "time": 24.736805,
            "velocity": 0.3937007874015748
          },
          {
            "duration": 0.1315787499999992,
            "durationTicks": 96,
            "midi": 62,
            "name": "D4",
            "ticks": 18240,
            "time": 24.9999625,
            "velocity": 0.3937007874015748
          },
          {
            "duration": 0.1315787499999992,
            "durationTicks": 96,
            "midi": 59,
            "name": "B3",
            "ticks": 18240,
            "time": 24.9999625,
            "velocity": 0.3937007874015748
          },
          {
            "duration": 0.1315787499999992,
            "durationTicks": 96,
            "midi": 67,
            "name": "G4",
            "ticks": 18240,
            "time": 24.9999625,
            "velocity": 0.3937007874015748
          },
          {
            "duration": 0.1315787499999992,
            "durationTicks": 96,
            "midi": 41,
            "name": "F2",
            "ticks": 18432,
            "time": 25.26312,
            "velocity": 0.3937007874015748
          },
          {
            "duration": 0.1315787499999992,
            "durationTicks": 96,
            "midi": 53,
            "name": "F3",
            "ticks": 18624,
            "time": 25.5262775,
            "velocity": 0.3937007874015748
          },
          {
            "duration": 0.1315787499999992,
            "durationTicks": 96,
            "midi": 56,
            "name": "G#3",
            "ticks": 18624,
            "time": 25.5262775,
            "velocity": 0.3937007874015748
          },
          {
            "duration": 0.1315787499999992,
            "durationTicks": 96,
            "midi": 60,
            "name": "C4",
            "ticks": 18624,
            "time": 25.5262775,
            "velocity": 0.3937007874015748
          },
          {
            "duration": 0.13157875000000274,
            "durationTicks": 96,
            "midi": 41,
            "name": "F2",
            "ticks": 18816,
            "time": 25.789434999999997,
            "velocity": 0.3937007874015748
          },
          {
            "duration": 0.1315787499999992,
            "durationTicks": 96,
            "midi": 53,
            "name": "F3",
            "ticks": 19008,
            "time": 26.0525925,
            "velocity": 0.3937007874015748
          },
          {
            "duration": 0.1315787499999992,
            "durationTicks": 96,
            "midi": 60,
            "name": "C4",
            "ticks": 19008,
            "time": 26.0525925,
            "velocity": 0.3937007874015748
          },
          {
            "duration": 0.1315787499999992,
            "durationTicks": 96,
            "midi": 56,
            "name": "G#3",
            "ticks": 19008,
            "time": 26.0525925,
            "velocity": 0.3937007874015748
          },
          {
            "duration": 0.13157875000000274,
            "durationTicks": 96,
            "midi": 39,
            "name": "D#2",
            "ticks": 19200,
            "time": 26.315749999999998,
            "velocity": 0.3937007874015748
          },
          {
            "duration": 0.1315787499999992,
            "durationTicks": 96,
            "midi": 51,
            "name": "D#3",
            "ticks": 19392,
            "time": 26.5789075,
            "velocity": 0.3937007874015748
          },
          {
            "duration": 0.1315787499999992,
            "durationTicks": 96,
            "midi": 60,
            "name": "C4",
            "ticks": 19392,
            "time": 26.5789075,
            "velocity": 0.3937007874015748
          },
          {
            "duration": 0.1315787499999992,
            "durationTicks": 96,
            "midi": 56,
            "name": "G#3",
            "ticks": 19392,
            "time": 26.5789075,
            "velocity": 0.3937007874015748
          },
          {
            "duration": 0.1315787499999992,
            "durationTicks": 96,
            "midi": 39,
            "name": "D#2",
            "ticks": 19584,
            "time": 26.842064999999998,
            "velocity": 0.3937007874015748
          },
          {
            "duration": 0.1315787499999992,
            "durationTicks": 96,
            "midi": 51,
            "name": "D#3",
            "ticks": 19776,
            "time": 27.1052225,
            "velocity": 0.3937007874015748
          },
          {
            "duration": 0.1315787499999992,
            "durationTicks": 96,
            "midi": 56,
            "name": "G#3",
            "ticks": 19776,
            "time": 27.1052225,
            "velocity": 0.3937007874015748
          },
          {
            "duration": 0.1315787499999992,
            "durationTicks": 96,
            "midi": 60,
            "name": "C4",
            "ticks": 19776,
            "time": 27.1052225,
            "velocity": 0.3937007874015748
          },
          {
            "duration": 0.1315787499999992,
            "durationTicks": 96,
            "midi": 38,
            "name": "D2",
            "ticks": 19968,
            "time": 27.36838,
            "velocity": 0.3937007874015748
          },
          {
            "duration": 0.1315787499999992,
            "durationTicks": 96,
            "midi": 60,
            "name": "C4",
            "ticks": 20160,
            "time": 27.6315375,
            "velocity": 0.3937007874015748
          },
          {
            "duration": 0.1315787499999992,
            "durationTicks": 96,
            "midi": 57,
            "name": "A3",
            "ticks": 20160,
            "time": 27.6315375,
            "velocity": 0.3937007874015748
          },
          {
            "duration": 0.1315787499999992,
            "durationTicks": 96,
            "midi": 54,
            "name": "F#3",
            "ticks": 20160,
            "time": 27.6315375,
            "velocity": 0.3937007874015748
          },
          {
            "duration": 0.1315787499999992,
            "durationTicks": 96,
            "midi": 38,
            "name": "D2",
            "ticks": 20352,
            "time": 27.894695,
            "velocity": 0.3937007874015748
          },
          {
            "duration": 0.13157875000000274,
            "durationTicks": 96,
            "midi": 54,
            "name": "F#3",
            "ticks": 20544,
            "time": 28.157852499999997,
            "velocity": 0.3937007874015748
          },
          {
            "duration": 0.13157875000000274,
            "durationTicks": 96,
            "midi": 57,
            "name": "A3",
            "ticks": 20544,
            "time": 28.157852499999997,
            "velocity": 0.3937007874015748
          },
          {
            "duration": 0.13157875000000274,
            "durationTicks": 96,
            "midi": 60,
            "name": "C4",
            "ticks": 20544,
            "time": 28.157852499999997,
            "velocity": 0.3937007874015748
          },
          {
            "duration": 0.1315787499999992,
            "durationTicks": 96,
            "midi": 43,
            "name": "G2",
            "ticks": 20736,
            "time": 28.42101,
            "velocity": 0.3937007874015748
          },
          {
            "duration": 0.13157875000000274,
            "durationTicks": 96,
            "midi": 59,
            "name": "B3",
            "ticks": 20928,
            "time": 28.684167499999997,
            "velocity": 0.3937007874015748
          },
          {
            "duration": 0.13157875000000274,
            "durationTicks": 96,
            "midi": 62,
            "name": "D4",
            "ticks": 20928,
            "time": 28.684167499999997,
            "velocity": 0.3937007874015748
          },
          {
            "duration": 0.13157875000000274,
            "durationTicks": 96,
            "midi": 53,
            "name": "F3",
            "ticks": 20928,
            "time": 28.684167499999997,
            "velocity": 0.3937007874015748
          },
          {
            "duration": 0.1315787499999992,
            "durationTicks": 96,
            "midi": 43,
            "name": "G2",
            "ticks": 21120,
            "time": 28.947325,
            "velocity": 0.3937007874015748
          },
          {
            "duration": 0.13157875000000274,
            "durationTicks": 96,
            "midi": 59,
            "name": "B3",
            "ticks": 21312,
            "time": 29.210482499999998,
            "velocity": 0.3937007874015748
          },
          {
            "duration": 0.13157875000000274,
            "durationTicks": 96,
            "midi": 62,
            "name": "D4",
            "ticks": 21312,
            "time": 29.210482499999998,
            "velocity": 0.3937007874015748
          },
          {
            "duration": 0.13157875000000274,
            "durationTicks": 96,
            "midi": 53,
            "name": "F3",
            "ticks": 21312,
            "time": 29.210482499999998,
            "velocity": 0.3937007874015748
          },
          {
            "duration": 0.1315787499999992,
            "durationTicks": 96,
            "midi": 48,
            "name": "C3",
            "ticks": 21504,
            "time": 29.47364,
            "velocity": 0.3937007874015748
          },
          {
            "duration": 0.1315787499999992,
            "durationTicks": 96,
            "midi": 72,
            "name": "C5",
            "ticks": 21696,
            "time": 29.736797499999998,
            "velocity": 0.3937007874015748
          },
          {
            "duration": 0.1315787499999992,
            "durationTicks": 96,
            "midi": 67,
            "name": "G4",
            "ticks": 21696,
            "time": 29.736797499999998,
            "velocity": 0.3937007874015748
          },
          {
            "duration": 0.1315787499999992,
            "durationTicks": 96,
            "midi": 63,
            "name": "D#4",
            "ticks": 21696,
            "time": 29.736797499999998,
            "velocity": 0.3937007874015748
          },
          {
            "duration": 0.1315787499999992,
            "durationTicks": 96,
            "midi": 48,
            "name": "C3",
            "ticks": 21888,
            "time": 29.999955,
            "velocity": 0.3937007874015748
          },
          {
            "duration": 0.1315787499999992,
            "durationTicks": 96,
            "midi": 72,
            "name": "C5",
            "ticks": 22080,
            "time": 30.2631125,
            "velocity": 0.3937007874015748
          },
          {
            "duration": 0.1315787499999992,
            "durationTicks": 96,
            "midi": 67,
            "name": "G4",
            "ticks": 22080,
            "time": 30.2631125,
            "velocity": 0.3937007874015748
          },
          {
            "duration": 0.1315787499999992,
            "durationTicks": 96,
            "midi": 63,
            "name": "D#4",
            "ticks": 22080,
            "time": 30.2631125,
            "velocity": 0.3937007874015748
          },
          {
            "duration": 0.1315787499999992,
            "durationTicks": 96,
            "midi": 51,
            "name": "D#3",
            "ticks": 22272,
            "time": 30.52627,
            "velocity": 0.3937007874015748
          },
          {
            "duration": 0.1315787499999992,
            "durationTicks": 96,
            "midi": 63,
            "name": "D#4",
            "ticks": 22464,
            "time": 30.7894275,
            "velocity": 0.3937007874015748
          },
          {
            "duration": 0.1315787499999992,
            "durationTicks": 96,
            "midi": 58,
            "name": "A#3",
            "ticks": 22464,
            "time": 30.7894275,
            "velocity": 0.3937007874015748
          },
          {
            "duration": 0.1315787499999992,
            "durationTicks": 96,
            "midi": 67,
            "name": "G4",
            "ticks": 22464,
            "time": 30.7894275,
            "velocity": 0.3937007874015748
          },
          {
            "duration": 0.13157875000000274,
            "durationTicks": 96,
            "midi": 51,
            "name": "D#3",
            "ticks": 22656,
            "time": 31.052584999999997,
            "velocity": 0.3937007874015748
          },
          {
            "duration": 0.1315787499999992,
            "durationTicks": 96,
            "midi": 58,
            "name": "A#3",
            "ticks": 22848,
            "time": 31.3157425,
            "velocity": 0.3937007874015748
          },
          {
            "duration": 0.1315787499999992,
            "durationTicks": 96,
            "midi": 67,
            "name": "G4",
            "ticks": 22848,
            "time": 31.3157425,
            "velocity": 0.3937007874015748
          },
          {
            "duration": 0.1315787499999992,
            "durationTicks": 96,
            "midi": 63,
            "name": "D#4",
            "ticks": 22848,
            "time": 31.3157425,
            "velocity": 0.3937007874015748
          },
          {
            "duration": 0.13157875000000274,
            "durationTicks": 96,
            "midi": 44,
            "name": "G#2",
            "ticks": 23040,
            "time": 31.578899999999997,
            "velocity": 0.3937007874015748
          },
          {
            "duration": 0.1315787499999992,
            "durationTicks": 96,
            "midi": 63,
            "name": "D#4",
            "ticks": 23232,
            "time": 31.8420575,
            "velocity": 0.3937007874015748
          },
          {
            "duration": 0.1315787499999992,
            "durationTicks": 96,
            "midi": 60,
            "name": "C4",
            "ticks": 23232,
            "time": 31.8420575,
            "velocity": 0.3937007874015748
          },
          {
            "duration": 0.1315787499999992,
            "durationTicks": 96,
            "midi": 68,
            "name": "G#4",
            "ticks": 23232,
            "time": 31.8420575,
            "velocity": 0.3937007874015748
          },
          {
            "duration": 0.13157874999999564,
            "durationTicks": 96,
            "midi": 44,
            "name": "G#2",
            "ticks": 23424,
            "time": 32.105215,
            "velocity": 0.3937007874015748
          },
          {
            "duration": 0.13157874999999564,
            "durationTicks": 96,
            "midi": 60,
            "name": "C4",
            "ticks": 23616,
            "time": 32.3683725,
            "velocity": 0.3937007874015748
          },
          {
            "duration": 0.13157874999999564,
            "durationTicks": 96,
            "midi": 63,
            "name": "D#4",
            "ticks": 23616,
            "time": 32.3683725,
            "velocity": 0.3937007874015748
          },
          {
            "duration": 0.13157874999999564,
            "durationTicks": 96,
            "midi": 68,
            "name": "G#4",
            "ticks": 23616,
            "time": 32.3683725,
            "velocity": 0.3937007874015748
          },
          {
            "duration": 0.13157875000000274,
            "durationTicks": 96,
            "midi": 43,
            "name": "G2",
            "ticks": 23808,
            "time": 32.63153,
            "velocity": 0.3937007874015748
          },
          {
            "duration": 0.13157875000000274,
            "durationTicks": 96,
            "midi": 59,
            "name": "B3",
            "ticks": 24000,
            "time": 32.894687499999996,
            "velocity": 0.3937007874015748
          },
          {
            "duration": 0.13157875000000274,
            "durationTicks": 96,
            "midi": 62,
            "name": "D4",
            "ticks": 24000,
            "time": 32.894687499999996,
            "velocity": 0.3937007874015748
          },
          {
            "duration": 0.13157875000000274,
            "durationTicks": 96,
            "midi": 67,
            "name": "G4",
            "ticks": 24000,
            "time": 32.894687499999996,
            "velocity": 0.3937007874015748
          },
          {
            "duration": 0.394736249999994,
            "durationTicks": 288,
            "midi": 29,
            "name": "F1",
            "ticks": 73728,
            "time": 101.05248,
            "velocity": 0.3937007874015748
          },
          {
            "duration": 0.394736249999994,
            "durationTicks": 288,
            "midi": 29,
            "name": "F1",
            "ticks": 74112,
            "time": 101.578795,
            "velocity": 0.3937007874015748
          },
          {
            "duration": 0.394736249999994,
            "durationTicks": 288,
            "midi": 27,
            "name": "D#1",
            "ticks": 74496,
            "time": 102.10511,
            "velocity": 0.3937007874015748
          },
          {
            "duration": 0.3947362500000082,
            "durationTicks": 288,
            "midi": 27,
            "name": "D#1",
            "ticks": 74880,
            "time": 102.631425,
            "velocity": 0.3937007874015748
          },
          {
            "duration": 0.3947362500000082,
            "durationTicks": 288,
            "midi": 26,
            "name": "D1",
            "ticks": 75264,
            "time": 103.15773999999999,
            "velocity": 0.3937007874015748
          },
          {
            "duration": 0.394736249999994,
            "durationTicks": 288,
            "midi": 26,
            "name": "D1",
            "ticks": 75648,
            "time": 103.684055,
            "velocity": 0.3937007874015748
          },
          {
            "duration": 0.394736249999994,
            "durationTicks": 288,
            "midi": 31,
            "name": "G1",
            "ticks": 76032,
            "time": 104.21037,
            "velocity": 0.3937007874015748
          },
          {
            "duration": 0.3947362500000082,
            "durationTicks": 288,
            "midi": 31,
            "name": "G1",
            "ticks": 76416,
            "time": 104.736685,
            "velocity": 0.3937007874015748
          },
          {
            "duration": 0.3947362500000082,
            "durationTicks": 288,
            "midi": 36,
            "name": "C2",
            "ticks": 76800,
            "time": 105.26299999999999,
            "velocity": 0.3937007874015748
          },
          {
            "duration": 0.394736249999994,
            "durationTicks": 288,
            "midi": 36,
            "name": "C2",
            "ticks": 77184,
            "time": 105.789315,
            "velocity": 0.3937007874015748
          },
          {
            "duration": 0.394736249999994,
            "durationTicks": 288,
            "midi": 39,
            "name": "D#2",
            "ticks": 77568,
            "time": 106.31563,
            "velocity": 0.3937007874015748
          },
          {
            "duration": 0.394736249999994,
            "durationTicks": 288,
            "midi": 39,
            "name": "D#2",
            "ticks": 77952,
            "time": 106.841945,
            "velocity": 0.3937007874015748
          },
          {
            "duration": 0.3947362500000082,
            "durationTicks": 288,
            "midi": 32,
            "name": "G#1",
            "ticks": 78336,
            "time": 107.36825999999999,
            "velocity": 0.3937007874015748
          },
          {
            "duration": 0.3947362500000082,
            "durationTicks": 288,
            "midi": 32,
            "name": "G#1",
            "ticks": 78720,
            "time": 107.89457499999999,
            "velocity": 0.3937007874015748
          },
          {
            "duration": 0.394736249999994,
            "durationTicks": 288,
            "midi": 31,
            "name": "G1",
            "ticks": 79104,
            "time": 108.42089,
            "velocity": 0.3937007874015748
          },
          {
            "duration": 0.394736249999994,
            "durationTicks": 288,
            "midi": 31,
            "name": "G1",
            "ticks": 79488,
            "time": 108.947205,
            "velocity": 0.3937007874015748
          }
        ],
        "endOfTrackTicks": 79776
      },
      {
        "channel": 9,
        "controlChanges": {},
        "pitchBends": [],
        "instrument": {
          "family": "drums",
          "number": 0,
          "name": "standard kit"
        },
        "name": "Drum Kit",
        "notes": [
          {
            "duration": 0.0986840624999985,
            "durationTicks": 72,
            "midi": 81,
            "name": "A5",
            "ticks": 23904,
            "time": 32.76310875,
            "velocity": 0.3937007874015748
          },
          {
            "duration": 0.0986840624999985,
            "durationTicks": 72,
            "midi": 81,
            "name": "A5",
            "ticks": 24048,
            "time": 32.960476875,
            "velocity": 0.3937007874015748
          },
          {
            "duration": 0.13157875000000274,
            "durationTicks": 96,
            "midi": 81,
            "name": "A5",
            "ticks": 24168,
            "time": 33.1249503125,
            "velocity": 0.3937007874015748
          }
        ],
        "endOfTrackTicks": 24264
      },
      {
        "channel": 2,
        "controlChanges": {},
        "pitchBends": [],
        "instrument": {
          "family": "synth lead",
          "number": 80,
          "name": "lead 1 (square)"
        },
        "name": "Smooth Synth",
        "notes": [
          {
            "duration": 0.32894687499999975,
            "durationTicks": 240,
            "midi": 29,
            "name": "F1",
            "ticks": 73728,
            "time": 101.05248,
            "velocity": 0.3937007874015748
          },
          {
            "duration": 0.32894687499999975,
            "durationTicks": 240,
            "midi": 29,
            "name": "F1",
            "ticks": 74112,
            "time": 101.578795,
            "velocity": 0.3937007874015748
          },
          {
            "duration": 0.32894687499999975,
            "durationTicks": 240,
            "midi": 27,
            "name": "D#1",
            "ticks": 74496,
            "time": 102.10511,
            "velocity": 0.3937007874015748
          },
          {
            "duration": 0.32894687499999975,
            "durationTicks": 240,
            "midi": 27,
            "name": "D#1",
            "ticks": 74880,
            "time": 102.631425,
            "velocity": 0.3937007874015748
          },
          {
            "duration": 0.32894687499999975,
            "durationTicks": 240,
            "midi": 26,
            "name": "D1",
            "ticks": 75264,
            "time": 103.15773999999999,
            "velocity": 0.3937007874015748
          },
          {
            "duration": 0.32894687499999975,
            "durationTicks": 240,
            "midi": 26,
            "name": "D1",
            "ticks": 75648,
            "time": 103.684055,
            "velocity": 0.3937007874015748
          },
          {
            "duration": 0.32894687499999975,
            "durationTicks": 240,
            "midi": 31,
            "name": "G1",
            "ticks": 76032,
            "time": 104.21037,
            "velocity": 0.3937007874015748
          },
          {
            "duration": 0.32894687499999975,
            "durationTicks": 240,
            "midi": 31,
            "name": "G1",
            "ticks": 76416,
            "time": 104.736685,
            "velocity": 0.3937007874015748
          },
          {
            "duration": 0.32894687499999975,
            "durationTicks": 240,
            "midi": 36,
            "name": "C2",
            "ticks": 76800,
            "time": 105.26299999999999,
            "velocity": 0.3937007874015748
          },
          {
            "duration": 0.32894687499999975,
            "durationTicks": 240,
            "midi": 36,
            "name": "C2",
            "ticks": 77184,
            "time": 105.789315,
            "velocity": 0.3937007874015748
          },
          {
            "duration": 0.32894687499999975,
            "durationTicks": 240,
            "midi": 39,
            "name": "D#2",
            "ticks": 77568,
            "time": 106.31563,
            "velocity": 0.3937007874015748
          },
          {
            "duration": 0.32894687499999975,
            "durationTicks": 240,
            "midi": 39,
            "name": "D#2",
            "ticks": 77952,
            "time": 106.841945,
            "velocity": 0.3937007874015748
          },
          {
            "duration": 0.32894687499999975,
            "durationTicks": 240,
            "midi": 32,
            "name": "G#1",
            "ticks": 78336,
            "time": 107.36825999999999,
            "velocity": 0.3937007874015748
          },
          {
            "duration": 0.32894687499999975,
            "durationTicks": 240,
            "midi": 32,
            "name": "G#1",
            "ticks": 78720,
            "time": 107.89457499999999,
            "velocity": 0.3937007874015748
          },
          {
            "duration": 0.32894687499999975,
            "durationTicks": 240,
            "midi": 31,
            "name": "G1",
            "ticks": 79104,
            "time": 108.42089,
            "velocity": 0.3937007874015748
          },
          {
            "duration": 0.32894687499999975,
            "durationTicks": 240,
            "midi": 31,
            "name": "G1",
            "ticks": 79488,
            "time": 108.947205,
            "velocity": 0.3937007874015748
          }
        ],
        "endOfTrackTicks": 79728
      },
      {
        "channel": 3,
        "controlChanges": {},
        "pitchBends": [],
        "instrument": {
          "family": "guitar",
          "number": 29,
          "name": "overdriven guitar"
        },
        "name": "Electric Guitar",
        "notes": [
          {
            "duration": 0.197368124999997,
            "durationTicks": 144,
            "midi": 41,
            "name": "F2",
            "ticks": 37248,
            "time": 51.052555,
            "velocity": 0.3937007874015748
          },
          {
            "duration": 0.1973681250000041,
            "durationTicks": 144,
            "midi": 36,
            "name": "C2",
            "ticks": 37440,
            "time": 51.3157125,
            "velocity": 0.3937007874015748
          },
          {
            "duration": 0.1973681250000041,
            "durationTicks": 144,
            "midi": 41,
            "name": "F2",
            "ticks": 37632,
            "time": 51.578869999999995,
            "velocity": 0.3937007874015748
          },
          {
            "duration": 0.197368124999997,
            "durationTicks": 144,
            "midi": 39,
            "name": "D#2",
            "ticks": 37824,
            "time": 51.8420275,
            "velocity": 0.3937007874015748
          },
          {
            "duration": 0.197368124999997,
            "durationTicks": 144,
            "midi": 41,
            "name": "F2",
            "ticks": 38016,
            "time": 52.105185,
            "velocity": 0.3937007874015748
          },
          {
            "duration": 0.13157875000000274,
            "durationTicks": 96,
            "midi": 43,
            "name": "G2",
            "ticks": 38208,
            "time": 52.3683425,
            "velocity": 0.3937007874015748
          },
          {
            "duration": 0.3947362500000011,
            "durationTicks": 288,
            "midi": 39,
            "name": "D#2",
            "ticks": 38304,
            "time": 52.49992125,
            "velocity": 0.3937007874015748
          },
          {
            "duration": 0.197368124999997,
            "durationTicks": 144,
            "midi": 41,
            "name": "F2",
            "ticks": 38784,
            "time": 53.157815,
            "velocity": 0.3937007874015748
          },
          {
            "duration": 0.3947362500000011,
            "durationTicks": 288,
            "midi": 39,
            "name": "D#2",
            "ticks": 38976,
            "time": 53.4209725,
            "velocity": 0.3937007874015748
          },
          {
            "duration": 0.197368124999997,
            "durationTicks": 144,
            "midi": 43,
            "name": "G2",
            "ticks": 39552,
            "time": 54.210445,
            "velocity": 0.3937007874015748
          },
          {
            "duration": 0.3947362500000011,
            "durationTicks": 288,
            "midi": 39,
            "name": "D#2",
            "ticks": 39744,
            "time": 54.4736025,
            "velocity": 0.3937007874015748
          },
          {
            "duration": 0.197368124999997,
            "durationTicks": 144,
            "midi": 41,
            "name": "F2",
            "ticks": 40320,
            "time": 55.263075,
            "velocity": 0.3937007874015748
          },
          {
            "duration": 0.197368124999997,
            "durationTicks": 144,
            "midi": 39,
            "name": "D#2",
            "ticks": 40512,
            "time": 55.5262325,
            "velocity": 0.3937007874015748
          },
          {
            "duration": 0.197368124999997,
            "durationTicks": 144,
            "midi": 41,
            "name": "F2",
            "ticks": 40704,
            "time": 55.78939,
            "velocity": 0.3937007874015748
          },
          {
            "duration": 0.1973681250000041,
            "durationTicks": 144,
            "midi": 39,
            "name": "D#2",
            "ticks": 40896,
            "time": 56.052547499999996,
            "velocity": 0.3937007874015748
          },
          {
            "duration": 0.13157875000000274,
            "durationTicks": 96,
            "midi": 41,
            "name": "F2",
            "ticks": 41088,
            "time": 56.315704999999994,
            "velocity": 0.3937007874015748
          },
          {
            "duration": 0.1973681250000041,
            "durationTicks": 144,
            "midi": 43,
            "name": "G2",
            "ticks": 41184,
            "time": 56.44728375,
            "velocity": 0.3937007874015748
          },
          {
            "duration": 0.3947362500000011,
            "durationTicks": 288,
            "midi": 39,
            "name": "D#2",
            "ticks": 41376,
            "time": 56.710441249999995,
            "velocity": 0.3937007874015748
          },
          {
            "duration": 0.1973681250000041,
            "durationTicks": 144,
            "midi": 41,
            "name": "F2",
            "ticks": 41856,
            "time": 57.368334999999995,
            "velocity": 0.3937007874015748
          },
          {
            "duration": 0.394736249999994,
            "durationTicks": 288,
            "midi": 39,
            "name": "D#2",
            "ticks": 42048,
            "time": 57.6314925,
            "velocity": 0.3937007874015748
          },
          {
            "duration": 0.1973681250000041,
            "durationTicks": 144,
            "midi": 43,
            "name": "G2",
            "ticks": 42624,
            "time": 58.420964999999995,
            "velocity": 0.3937007874015748
          },
          {
            "duration": 0.394736249999994,
            "durationTicks": 288,
            "midi": 39,
            "name": "D#2",
            "ticks": 42816,
            "time": 58.6841225,
            "velocity": 0.3937007874015748
          },
          {
            "duration": 0.5263150000000039,
            "durationTicks": 384,
            "midi": 43,
            "name": "G2",
            "ticks": 43392,
            "time": 59.473594999999996,
            "velocity": 0.3937007874015748
          },
          {
            "duration": 0.5263150000000039,
            "durationTicks": 384,
            "midi": 67,
            "name": "G4",
            "ticks": 43392,
            "time": 59.473594999999996,
            "velocity": 0.3937007874015748
          },
          {
            "duration": 0.5263149999999968,
            "durationTicks": 384,
            "midi": 41,
            "name": "F2",
            "ticks": 43776,
            "time": 59.99991,
            "velocity": 0.3937007874015748
          },
          {
            "duration": 0.5263149999999968,
            "durationTicks": 384,
            "midi": 65,
            "name": "F4",
            "ticks": 43776,
            "time": 59.99991,
            "velocity": 0.3937007874015748
          },
          {
            "duration": 0.5263150000000039,
            "durationTicks": 384,
            "midi": 63,
            "name": "D#4",
            "ticks": 44160,
            "time": 60.526225,
            "velocity": 0.3937007874015748
          },
          {
            "duration": 0.5263150000000039,
            "durationTicks": 384,
            "midi": 39,
            "name": "D#2",
            "ticks": 44160,
            "time": 60.526225,
            "velocity": 0.3937007874015748
          },
          {
            "duration": 0.5263149999999968,
            "durationTicks": 384,
            "midi": 41,
            "name": "F2",
            "ticks": 44544,
            "time": 61.05254,
            "velocity": 0.3937007874015748
          },
          {
            "duration": 0.5263149999999968,
            "durationTicks": 384,
            "midi": 65,
            "name": "F4",
            "ticks": 44544,
            "time": 61.05254,
            "velocity": 0.3937007874015748
          },
          {
            "duration": 0.5263149999999968,
            "durationTicks": 384,
            "midi": 67,
            "name": "G4",
            "ticks": 44928,
            "time": 61.578855,
            "velocity": 0.3937007874015748
          },
          {
            "duration": 0.5263149999999968,
            "durationTicks": 384,
            "midi": 43,
            "name": "G2",
            "ticks": 44928,
            "time": 61.578855,
            "velocity": 0.3937007874015748
          },
          {
            "duration": 0.5263150000000039,
            "durationTicks": 384,
            "midi": 41,
            "name": "F2",
            "ticks": 45312,
            "time": 62.105169999999994,
            "velocity": 0.3937007874015748
          },
          {
            "duration": 0.5263150000000039,
            "durationTicks": 384,
            "midi": 65,
            "name": "F4",
            "ticks": 45312,
            "time": 62.105169999999994,
            "velocity": 0.3937007874015748
          },
          {
            "duration": 0.5263149999999968,
            "durationTicks": 384,
            "midi": 38,
            "name": "D2",
            "ticks": 45696,
            "time": 62.631485,
            "velocity": 0.3937007874015748
          },
          {
            "duration": 0.5263149999999968,
            "durationTicks": 384,
            "midi": 62,
            "name": "D4",
            "ticks": 45696,
            "time": 62.631485,
            "velocity": 0.3937007874015748
          },
          {
            "duration": 0.5263150000000039,
            "durationTicks": 384,
            "midi": 63,
            "name": "D#4",
            "ticks": 46080,
            "time": 63.157799999999995,
            "velocity": 0.3937007874015748
          },
          {
            "duration": 0.5263150000000039,
            "durationTicks": 384,
            "midi": 39,
            "name": "D#2",
            "ticks": 46080,
            "time": 63.157799999999995,
            "velocity": 0.3937007874015748
          },
          {
            "duration": 0.2631575000000055,
            "durationTicks": 192,
            "midi": 67,
            "name": "G4",
            "ticks": 46656,
            "time": 63.9472725,
            "velocity": 0.3937007874015748
          },
          {
            "duration": 0.2631575000000055,
            "durationTicks": 192,
            "midi": 43,
            "name": "G2",
            "ticks": 46656,
            "time": 63.9472725,
            "velocity": 0.3937007874015748
          },
          {
            "duration": 0.5263149999999968,
            "durationTicks": 384,
            "midi": 63,
            "name": "D#4",
            "ticks": 46848,
            "time": 64.21043,
            "velocity": 0.3937007874015748
          },
          {
            "duration": 0.5263149999999968,
            "durationTicks": 384,
            "midi": 39,
            "name": "D#2",
            "ticks": 46848,
            "time": 64.21043,
            "velocity": 0.3937007874015748
          },
          {
            "duration": 0.2631575000000055,
            "durationTicks": 192,
            "midi": 43,
            "name": "G2",
            "ticks": 47424,
            "time": 64.99990249999999,
            "velocity": 0.3937007874015748
          },
          {
            "duration": 0.2631575000000055,
            "durationTicks": 192,
            "midi": 67,
            "name": "G4",
            "ticks": 47424,
            "time": 64.99990249999999,
            "velocity": 0.3937007874015748
          },
          {
            "duration": 0.2631575000000055,
            "durationTicks": 192,
            "midi": 63,
            "name": "D#4",
            "ticks": 47616,
            "time": 65.26306,
            "velocity": 0.3937007874015748
          },
          {
            "duration": 0.2631575000000055,
            "durationTicks": 192,
            "midi": 39,
            "name": "D#2",
            "ticks": 47616,
            "time": 65.26306,
            "velocity": 0.3937007874015748
          },
          {
            "duration": 0.2631574999999913,
            "durationTicks": 192,
            "midi": 43,
            "name": "G2",
            "ticks": 47808,
            "time": 65.5262175,
            "velocity": 0.3937007874015748
          },
          {
            "duration": 0.2631574999999913,
            "durationTicks": 192,
            "midi": 67,
            "name": "G4",
            "ticks": 47808,
            "time": 65.5262175,
            "velocity": 0.3937007874015748
          },
          {
            "duration": 0.2631575000000055,
            "durationTicks": 192,
            "midi": 63,
            "name": "D#4",
            "ticks": 48000,
            "time": 65.78937499999999,
            "velocity": 0.3937007874015748
          },
          {
            "duration": 0.2631575000000055,
            "durationTicks": 192,
            "midi": 39,
            "name": "D#2",
            "ticks": 48000,
            "time": 65.78937499999999,
            "velocity": 0.3937007874015748
          },
          {
            "duration": 0.2631575000000055,
            "durationTicks": 192,
            "midi": 43,
            "name": "G2",
            "ticks": 48192,
            "time": 66.0525325,
            "velocity": 0.3937007874015748
          },
          {
            "duration": 0.2631575000000055,
            "durationTicks": 192,
            "midi": 67,
            "name": "G4",
            "ticks": 48192,
            "time": 66.0525325,
            "velocity": 0.3937007874015748
          },
          {
            "duration": 0.2631574999999913,
            "durationTicks": 192,
            "midi": 63,
            "name": "D#4",
            "ticks": 48384,
            "time": 66.31569,
            "velocity": 0.3937007874015748
          },
          {
            "duration": 0.2631574999999913,
            "durationTicks": 192,
            "midi": 39,
            "name": "D#2",
            "ticks": 48384,
            "time": 66.31569,
            "velocity": 0.3937007874015748
          },
          {
            "duration": 0.2631575000000055,
            "durationTicks": 192,
            "midi": 36,
            "name": "C2",
            "ticks": 48576,
            "time": 66.5788475,
            "velocity": 0.3937007874015748
          },
          {
            "duration": 0.2631575000000055,
            "durationTicks": 192,
            "midi": 60,
            "name": "C4",
            "ticks": 48576,
            "time": 66.5788475,
            "velocity": 0.3937007874015748
          },
          {
            "duration": 0.13157875000000274,
            "durationTicks": 96,
            "midi": 39,
            "name": "D#2",
            "ticks": 48768,
            "time": 66.842005,
            "velocity": 0.3937007874015748
          },
          {
            "duration": 0.19736812500001122,
            "durationTicks": 144,
            "midi": 39,
            "name": "D#2",
            "ticks": 48960,
            "time": 67.10516249999999,
            "velocity": 0.3937007874015748
          },
          {
            "duration": 0.19736812500002543,
            "durationTicks": 144,
            "midi": 39,
            "name": "D#2",
            "ticks": 94848,
            "time": 129.99980499999998,
            "velocity": 0.3937007874015748
          },
          {
            "duration": 0.13157875000001695,
            "durationTicks": 96,
            "midi": 27,
            "name": "D#1",
            "ticks": 94848,
            "time": 129.99980499999998,
            "velocity": 0.3937007874015748
          },
          {
            "duration": 0.13157875000001695,
            "durationTicks": 96,
            "midi": 27,
            "name": "D#1",
            "ticks": 95040,
            "time": 130.2629625,
            "velocity": 0.3937007874015748
          },
          {
            "duration": 0.197368124999997,
            "durationTicks": 144,
            "midi": 39,
            "name": "D#2",
            "ticks": 95040,
            "time": 130.2629625,
            "velocity": 0.3937007874015748
          },
          {
            "duration": 0.13157875000001695,
            "durationTicks": 96,
            "midi": 27,
            "name": "D#1",
            "ticks": 97920,
            "time": 134.21032499999998,
            "velocity": 0.3937007874015748
          },
          {
            "duration": 0.197368124999997,
            "durationTicks": 144,
            "midi": 39,
            "name": "D#2",
            "ticks": 97920,
            "time": 134.21032499999998,
            "velocity": 0.3937007874015748
          },
          {
            "duration": 0.13157875000001695,
            "durationTicks": 96,
            "midi": 27,
            "name": "D#1",
            "ticks": 98112,
            "time": 134.4734825,
            "velocity": 0.3937007874015748
          },
          {
            "duration": 0.197368124999997,
            "durationTicks": 144,
            "midi": 39,
            "name": "D#2",
            "ticks": 98112,
            "time": 134.4734825,
            "velocity": 0.3937007874015748
          },
          {
            "duration": 0.197368124999997,
            "durationTicks": 144,
            "midi": 27,
            "name": "D#1",
            "ticks": 99456,
            "time": 136.315585,
            "velocity": 0.3937007874015748
          },
          {
            "duration": 0.197368124999997,
            "durationTicks": 144,
            "midi": 39,
            "name": "D#2",
            "ticks": 99456,
            "time": 136.315585,
            "velocity": 0.3937007874015748
          },
          {
            "duration": 0.197368124999997,
            "durationTicks": 144,
            "midi": 39,
            "name": "D#2",
            "ticks": 99648,
            "time": 136.5787425,
            "velocity": 0.3937007874015748
          },
          {
            "duration": 0.197368124999997,
            "durationTicks": 144,
            "midi": 27,
            "name": "D#1",
            "ticks": 99648,
            "time": 136.5787425,
            "velocity": 0.3937007874015748
          },
          {
            "duration": 0.197368124999997,
            "durationTicks": 144,
            "midi": 39,
            "name": "D#2",
            "ticks": 100992,
            "time": 138.42084499999999,
            "velocity": 0.3937007874015748
          },
          {
            "duration": 0.197368124999997,
            "durationTicks": 144,
            "midi": 27,
            "name": "D#1",
            "ticks": 100992,
            "time": 138.42084499999999,
            "velocity": 0.3937007874015748
          },
          {
            "duration": 0.197368124999997,
            "durationTicks": 144,
            "midi": 39,
            "name": "D#2",
            "ticks": 101184,
            "time": 138.6840025,
            "velocity": 0.3937007874015748
          },
          {
            "duration": 0.197368124999997,
            "durationTicks": 144,
            "midi": 27,
            "name": "D#1",
            "ticks": 101184,
            "time": 138.6840025,
            "velocity": 0.3937007874015748
          }
        ],
        "endOfTrackTicks": 101328
      },
      {
        "channel": 4,
        "controlChanges": {},
        "pitchBends": [],
        "instrument": {
          "family": "bass",
          "number": 32,
          "name": "acoustic bass"
        },
        "name": "Bass (Classic)",
        "notes": [
          {
            "duration": 0.3947362500000011,
            "durationTicks": 288,
            "midi": 36,
            "name": "C2",
            "ticks": 24576,
            "time": 33.68416,
            "velocity": 0.3937007874015748
          },
          {
            "duration": 0.3947362500000011,
            "durationTicks": 288,
            "midi": 36,
            "name": "C2",
            "ticks": 24960,
            "time": 34.210474999999995,
            "velocity": 0.3937007874015748
          },
          {
            "duration": 0.3947362500000011,
            "durationTicks": 288,
            "midi": 39,
            "name": "D#2",
            "ticks": 25344,
            "time": 34.73679,
            "velocity": 0.3937007874015748
          },
          {
            "duration": 0.3947362500000011,
            "durationTicks": 288,
            "midi": 39,
            "name": "D#2",
            "ticks": 25728,
            "time": 35.263104999999996,
            "velocity": 0.3937007874015748
          },
          {
            "duration": 0.3947362500000011,
            "durationTicks": 288,
            "midi": 32,
            "name": "G#1",
            "ticks": 26112,
            "time": 35.78942,
            "velocity": 0.3937007874015748
          },
          {
            "duration": 0.3947362500000011,
            "durationTicks": 288,
            "midi": 32,
            "name": "G#1",
            "ticks": 26496,
            "time": 36.315735,
            "velocity": 0.3937007874015748
          },
          {
            "duration": 0.3947362500000011,
            "durationTicks": 288,
            "midi": 31,
            "name": "G1",
            "ticks": 26880,
            "time": 36.84205,
            "velocity": 0.3937007874015748
          },
          {
            "duration": 0.3947362500000011,
            "durationTicks": 288,
            "midi": 31,
            "name": "G1",
            "ticks": 27264,
            "time": 37.368365,
            "velocity": 0.3937007874015748
          },
          {
            "duration": 0.394736249999994,
            "durationTicks": 288,
            "midi": 36,
            "name": "C2",
            "ticks": 27648,
            "time": 37.89468,
            "velocity": 0.3937007874015748
          },
          {
            "duration": 0.3947362500000011,
            "durationTicks": 288,
            "midi": 36,
            "name": "C2",
            "ticks": 28032,
            "time": 38.420995,
            "velocity": 0.3937007874015748
          },
          {
            "duration": 0.394736249999994,
            "durationTicks": 288,
            "midi": 39,
            "name": "D#2",
            "ticks": 28416,
            "time": 38.94731,
            "velocity": 0.3937007874015748
          },
          {
            "duration": 0.3947362500000011,
            "durationTicks": 288,
            "midi": 39,
            "name": "D#2",
            "ticks": 28800,
            "time": 39.473625,
            "velocity": 0.3937007874015748
          },
          {
            "duration": 0.3947362500000011,
            "durationTicks": 288,
            "midi": 32,
            "name": "G#1",
            "ticks": 29184,
            "time": 39.999939999999995,
            "velocity": 0.3937007874015748
          },
          {
            "duration": 0.3947362500000011,
            "durationTicks": 288,
            "midi": 32,
            "name": "G#1",
            "ticks": 29568,
            "time": 40.526255,
            "velocity": 0.3937007874015748
          },
          {
            "duration": 0.3947362500000011,
            "durationTicks": 288,
            "midi": 31,
            "name": "G1",
            "ticks": 29952,
            "time": 41.052569999999996,
            "velocity": 0.3937007874015748
          },
          {
            "duration": 0.3947362500000011,
            "durationTicks": 288,
            "midi": 31,
            "name": "G1",
            "ticks": 30336,
            "time": 41.578885,
            "velocity": 0.3937007874015748
          },
          {
            "duration": 0.3947362500000011,
            "durationTicks": 288,
            "midi": 29,
            "name": "F1",
            "ticks": 30720,
            "time": 42.105199999999996,
            "velocity": 0.3937007874015748
          },
          {
            "duration": 0.3947362500000011,
            "durationTicks": 288,
            "midi": 29,
            "name": "F1",
            "ticks": 31104,
            "time": 42.631515,
            "velocity": 0.3937007874015748
          },
          {
            "duration": 0.3947362500000011,
            "durationTicks": 288,
            "midi": 27,
            "name": "D#1",
            "ticks": 31488,
            "time": 43.15783,
            "velocity": 0.3937007874015748
          },
          {
            "duration": 0.394736249999994,
            "durationTicks": 288,
            "midi": 27,
            "name": "D#1",
            "ticks": 31872,
            "time": 43.684145,
            "velocity": 0.3937007874015748
          },
          {
            "duration": 0.3947362500000011,
            "durationTicks": 288,
            "midi": 26,
            "name": "D1",
            "ticks": 32256,
            "time": 44.21046,
            "velocity": 0.3937007874015748
          },
          {
            "duration": 0.394736249999994,
            "durationTicks": 288,
            "midi": 26,
            "name": "D1",
            "ticks": 32640,
            "time": 44.736775,
            "velocity": 0.3937007874015748
          },
          {
            "duration": 0.3947362500000011,
            "durationTicks": 288,
            "midi": 31,
            "name": "G1",
            "ticks": 33024,
            "time": 45.26309,
            "velocity": 0.3937007874015748
          },
          {
            "duration": 0.3947362500000011,
            "durationTicks": 288,
            "midi": 31,
            "name": "G1",
            "ticks": 33408,
            "time": 45.789404999999995,
            "velocity": 0.3937007874015748
          },
          {
            "duration": 0.3947362500000011,
            "durationTicks": 288,
            "midi": 36,
            "name": "C2",
            "ticks": 33792,
            "time": 46.31572,
            "velocity": 0.3937007874015748
          },
          {
            "duration": 0.3947362500000011,
            "durationTicks": 288,
            "midi": 36,
            "name": "C2",
            "ticks": 34176,
            "time": 46.842034999999996,
            "velocity": 0.3937007874015748
          },
          {
            "duration": 0.3947362500000011,
            "durationTicks": 288,
            "midi": 39,
            "name": "D#2",
            "ticks": 34560,
            "time": 47.36835,
            "velocity": 0.3937007874015748
          },
          {
            "duration": 0.3947362500000011,
            "durationTicks": 288,
            "midi": 39,
            "name": "D#2",
            "ticks": 34944,
            "time": 47.894664999999996,
            "velocity": 0.3937007874015748
          },
          {
            "duration": 0.3947362500000011,
            "durationTicks": 288,
            "midi": 32,
            "name": "G#1",
            "ticks": 35328,
            "time": 48.42098,
            "velocity": 0.3937007874015748
          },
          {
            "duration": 0.3947362500000011,
            "durationTicks": 288,
            "midi": 32,
            "name": "G#1",
            "ticks": 35712,
            "time": 48.947295,
            "velocity": 0.3937007874015748
          },
          {
            "duration": 0.394736249999994,
            "durationTicks": 288,
            "midi": 31,
            "name": "G1",
            "ticks": 36096,
            "time": 49.47361,
            "velocity": 0.3937007874015748
          },
          {
            "duration": 0.3947362500000011,
            "durationTicks": 288,
            "midi": 31,
            "name": "G1",
            "ticks": 36480,
            "time": 49.999925,
            "velocity": 0.3937007874015748
          },
          {
            "duration": 0.394736249999994,
            "durationTicks": 288,
            "midi": 36,
            "name": "C2",
            "ticks": 36864,
            "time": 50.52624,
            "velocity": 0.3937007874015748
          },
          {
            "duration": 0.3947362500000011,
            "durationTicks": 288,
            "midi": 36,
            "name": "C2",
            "ticks": 37248,
            "time": 51.052555,
            "velocity": 0.3937007874015748
          },
          {
            "duration": 0.3947362500000011,
            "durationTicks": 288,
            "midi": 39,
            "name": "D#2",
            "ticks": 37632,
            "time": 51.578869999999995,
            "velocity": 0.3937007874015748
          },
          {
            "duration": 0.3947362500000011,
            "durationTicks": 288,
            "midi": 39,
            "name": "D#2",
            "ticks": 38016,
            "time": 52.105185,
            "velocity": 0.3937007874015748
          },
          {
            "duration": 0.3947362500000011,
            "durationTicks": 288,
            "midi": 32,
            "name": "G#1",
            "ticks": 38400,
            "time": 52.631499999999996,
            "velocity": 0.3937007874015748
          },
          {
            "duration": 0.3947362500000011,
            "durationTicks": 288,
            "midi": 32,
            "name": "G#1",
            "ticks": 38784,
            "time": 53.157815,
            "velocity": 0.3937007874015748
          },
          {
            "duration": 0.3947362500000011,
            "durationTicks": 288,
            "midi": 31,
            "name": "G1",
            "ticks": 39168,
            "time": 53.684129999999996,
            "velocity": 0.3937007874015748
          },
          {
            "duration": 0.3947362500000011,
            "durationTicks": 288,
            "midi": 31,
            "name": "G1",
            "ticks": 39552,
            "time": 54.210445,
            "velocity": 0.3937007874015748
          },
          {
            "duration": 0.3947362500000011,
            "durationTicks": 288,
            "midi": 36,
            "name": "C2",
            "ticks": 39936,
            "time": 54.73676,
            "velocity": 0.3937007874015748
          },
          {
            "duration": 0.394736249999994,
            "durationTicks": 288,
            "midi": 36,
            "name": "C2",
            "ticks": 40320,
            "time": 55.263075,
            "velocity": 0.3937007874015748
          },
          {
            "duration": 0.3947362500000011,
            "durationTicks": 288,
            "midi": 39,
            "name": "D#2",
            "ticks": 40704,
            "time": 55.78939,
            "velocity": 0.3937007874015748
          },
          {
            "duration": 0.3947362500000011,
            "durationTicks": 288,
            "midi": 39,
            "name": "D#2",
            "ticks": 41088,
            "time": 56.315704999999994,
            "velocity": 0.3937007874015748
          },
          {
            "duration": 0.3947362500000011,
            "durationTicks": 288,
            "midi": 32,
            "name": "G#1",
            "ticks": 41472,
            "time": 56.84202,
            "velocity": 0.3937007874015748
          },
          {
            "duration": 0.3947362500000011,
            "durationTicks": 288,
            "midi": 32,
            "name": "G#1",
            "ticks": 41856,
            "time": 57.368334999999995,
            "velocity": 0.3937007874015748
          },
          {
            "duration": 0.3947362500000011,
            "durationTicks": 288,
            "midi": 31,
            "name": "G1",
            "ticks": 42240,
            "time": 57.89465,
            "velocity": 0.3937007874015748
          },
          {
            "duration": 0.3947362500000011,
            "durationTicks": 288,
            "midi": 31,
            "name": "G1",
            "ticks": 42624,
            "time": 58.420964999999995,
            "velocity": 0.3937007874015748
          },
          {
            "duration": 0.3947362500000011,
            "durationTicks": 288,
            "midi": 29,
            "name": "F1",
            "ticks": 43008,
            "time": 58.94728,
            "velocity": 0.3937007874015748
          },
          {
            "duration": 0.3947362500000011,
            "durationTicks": 288,
            "midi": 29,
            "name": "F1",
            "ticks": 43392,
            "time": 59.473594999999996,
            "velocity": 0.3937007874015748
          },
          {
            "duration": 0.394736249999994,
            "durationTicks": 288,
            "midi": 27,
            "name": "D#1",
            "ticks": 43776,
            "time": 59.99991,
            "velocity": 0.3937007874015748
          },
          {
            "duration": 0.3947362500000011,
            "durationTicks": 288,
            "midi": 27,
            "name": "D#1",
            "ticks": 44160,
            "time": 60.526225,
            "velocity": 0.3937007874015748
          },
          {
            "duration": 0.394736249999994,
            "durationTicks": 288,
            "midi": 26,
            "name": "D1",
            "ticks": 44544,
            "time": 61.05254,
            "velocity": 0.3937007874015748
          },
          {
            "duration": 0.3947362500000011,
            "durationTicks": 288,
            "midi": 26,
            "name": "D1",
            "ticks": 44928,
            "time": 61.578855,
            "velocity": 0.3937007874015748
          },
          {
            "duration": 0.3947362500000011,
            "durationTicks": 288,
            "midi": 31,
            "name": "G1",
            "ticks": 45312,
            "time": 62.105169999999994,
            "velocity": 0.3937007874015748
          },
          {
            "duration": 0.3947362500000011,
            "durationTicks": 288,
            "midi": 31,
            "name": "G1",
            "ticks": 45696,
            "time": 62.631485,
            "velocity": 0.3937007874015748
          },
          {
            "duration": 0.3947362500000011,
            "durationTicks": 288,
            "midi": 36,
            "name": "C2",
            "ticks": 46080,
            "time": 63.157799999999995,
            "velocity": 0.3937007874015748
          },
          {
            "duration": 0.3947362500000011,
            "durationTicks": 288,
            "midi": 36,
            "name": "C2",
            "ticks": 46464,
            "time": 63.684115,
            "velocity": 0.3937007874015748
          },
          {
            "duration": 0.394736249999994,
            "durationTicks": 288,
            "midi": 39,
            "name": "D#2",
            "ticks": 46848,
            "time": 64.21043,
            "velocity": 0.3937007874015748
          },
          {
            "duration": 0.394736249999994,
            "durationTicks": 288,
            "midi": 39,
            "name": "D#2",
            "ticks": 47232,
            "time": 64.736745,
            "velocity": 0.3937007874015748
          },
          {
            "duration": 0.3947362500000082,
            "durationTicks": 288,
            "midi": 32,
            "name": "G#1",
            "ticks": 47616,
            "time": 65.26306,
            "velocity": 0.3937007874015748
          },
          {
            "duration": 0.3947362500000082,
            "durationTicks": 288,
            "midi": 32,
            "name": "G#1",
            "ticks": 48000,
            "time": 65.78937499999999,
            "velocity": 0.3937007874015748
          },
          {
            "duration": 0.394736249999994,
            "durationTicks": 288,
            "midi": 31,
            "name": "G1",
            "ticks": 48384,
            "time": 66.31569,
            "velocity": 0.3937007874015748
          },
          {
            "duration": 0.394736249999994,
            "durationTicks": 288,
            "midi": 31,
            "name": "G1",
            "ticks": 48768,
            "time": 66.842005,
            "velocity": 0.3937007874015748
          },
          {
            "duration": 0.2631575000000055,
            "durationTicks": 192,
            "midi": 36,
            "name": "C2",
            "ticks": 49152,
            "time": 67.36832,
            "velocity": 0.3937007874015748
          },
          {
            "duration": 0.2631575000000055,
            "durationTicks": 192,
            "midi": 39,
            "name": "D#2",
            "ticks": 49536,
            "time": 67.894635,
            "velocity": 0.3937007874015748
          },
          {
            "duration": 0.2631574999999913,
            "durationTicks": 192,
            "midi": 36,
            "name": "C2",
            "ticks": 49728,
            "time": 68.1577925,
            "velocity": 0.3937007874015748
          },
          {
            "duration": 0.2631575000000055,
            "durationTicks": 192,
            "midi": 35,
            "name": "B1",
            "ticks": 49920,
            "time": 68.42094999999999,
            "velocity": 0.3937007874015748
          },
          {
            "duration": 0.2631574999999913,
            "durationTicks": 192,
            "midi": 38,
            "name": "D2",
            "ticks": 50304,
            "time": 68.947265,
            "velocity": 0.3937007874015748
          },
          {
            "duration": 0.2631575000000055,
            "durationTicks": 192,
            "midi": 39,
            "name": "D#2",
            "ticks": 50688,
            "time": 69.47358,
            "velocity": 0.3937007874015748
          },
          {
            "duration": 0.2631575000000055,
            "durationTicks": 192,
            "midi": 43,
            "name": "G2",
            "ticks": 51072,
            "time": 69.999895,
            "velocity": 0.3937007874015748
          },
          {
            "duration": 0.2631574999999913,
            "durationTicks": 192,
            "midi": 39,
            "name": "D#2",
            "ticks": 51264,
            "time": 70.2630525,
            "velocity": 0.3937007874015748
          },
          {
            "duration": 0.2631575000000055,
            "durationTicks": 192,
            "midi": 41,
            "name": "F2",
            "ticks": 51456,
            "time": 70.52620999999999,
            "velocity": 0.3937007874015748
          },
          {
            "duration": 0.2631575000000055,
            "durationTicks": 192,
            "midi": 44,
            "name": "G#2",
            "ticks": 51648,
            "time": 70.7893675,
            "velocity": 0.3937007874015748
          },
          {
            "duration": 0.2631574999999913,
            "durationTicks": 192,
            "midi": 48,
            "name": "C3",
            "ticks": 51840,
            "time": 71.052525,
            "velocity": 0.3937007874015748
          },
          {
            "duration": 0.2631575000000055,
            "durationTicks": 192,
            "midi": 44,
            "name": "G#2",
            "ticks": 52032,
            "time": 71.3156825,
            "velocity": 0.3937007874015748
          },
          {
            "duration": 0.2631574999999913,
            "durationTicks": 192,
            "midi": 36,
            "name": "C2",
            "ticks": 52224,
            "time": 71.57884,
            "velocity": 0.3937007874015748
          },
          {
            "duration": 0.2631575000000055,
            "durationTicks": 192,
            "midi": 39,
            "name": "D#2",
            "ticks": 52608,
            "time": 72.105155,
            "velocity": 0.3937007874015748
          },
          {
            "duration": 0.2631574999999913,
            "durationTicks": 192,
            "midi": 36,
            "name": "C2",
            "ticks": 52800,
            "time": 72.3683125,
            "velocity": 0.3937007874015748
          },
          {
            "duration": 0.2631575000000055,
            "durationTicks": 192,
            "midi": 35,
            "name": "B1",
            "ticks": 52992,
            "time": 72.63147,
            "velocity": 0.3937007874015748
          },
          {
            "duration": 0.2631575000000055,
            "durationTicks": 192,
            "midi": 38,
            "name": "D2",
            "ticks": 53376,
            "time": 73.15778499999999,
            "velocity": 0.3937007874015748
          },
          {
            "duration": 0.2631574999999913,
            "durationTicks": 192,
            "midi": 39,
            "name": "D#2",
            "ticks": 53760,
            "time": 73.6841,
            "velocity": 0.3937007874015748
          },
          {
            "duration": 0.2631575000000055,
            "durationTicks": 192,
            "midi": 43,
            "name": "G2",
            "ticks": 54144,
            "time": 74.210415,
            "velocity": 0.3937007874015748
          },
          {
            "duration": 0.2631574999999913,
            "durationTicks": 192,
            "midi": 39,
            "name": "D#2",
            "ticks": 54336,
            "time": 74.4735725,
            "velocity": 0.3937007874015748
          },
          {
            "duration": 0.2631575000000055,
            "durationTicks": 192,
            "midi": 41,
            "name": "F2",
            "ticks": 54528,
            "time": 74.73673,
            "velocity": 0.3937007874015748
          },
          {
            "duration": 0.2631574999999913,
            "durationTicks": 192,
            "midi": 44,
            "name": "G#2",
            "ticks": 54720,
            "time": 74.9998875,
            "velocity": 0.3937007874015748
          },
          {
            "duration": 0.2631575000000055,
            "durationTicks": 192,
            "midi": 48,
            "name": "C3",
            "ticks": 54912,
            "time": 75.26304499999999,
            "velocity": 0.3937007874015748
          },
          {
            "duration": 0.2631575000000055,
            "durationTicks": 192,
            "midi": 44,
            "name": "G#2",
            "ticks": 55104,
            "time": 75.5262025,
            "velocity": 0.3937007874015748
          },
          {
            "duration": 0.2631574999999913,
            "durationTicks": 192,
            "midi": 36,
            "name": "C2",
            "ticks": 55296,
            "time": 75.78936,
            "velocity": 0.3937007874015748
          },
          {
            "duration": 0.2631574999999913,
            "durationTicks": 192,
            "midi": 39,
            "name": "D#2",
            "ticks": 55680,
            "time": 76.315675,
            "velocity": 0.3937007874015748
          },
          {
            "duration": 0.2631575000000055,
            "durationTicks": 192,
            "midi": 36,
            "name": "C2",
            "ticks": 55872,
            "time": 76.57883249999999,
            "velocity": 0.3937007874015748
          },
          {
            "duration": 0.2631575000000055,
            "durationTicks": 192,
            "midi": 35,
            "name": "B1",
            "ticks": 56064,
            "time": 76.84199,
            "velocity": 0.3937007874015748
          },
          {
            "duration": 0.2631575000000055,
            "durationTicks": 192,
            "midi": 38,
            "name": "D2",
            "ticks": 56448,
            "time": 77.36830499999999,
            "velocity": 0.3937007874015748
          },
          {
            "duration": 0.2631574999999913,
            "durationTicks": 192,
            "midi": 39,
            "name": "D#2",
            "ticks": 56832,
            "time": 77.89462,
            "velocity": 0.3937007874015748
          },
          {
            "duration": 0.2631574999999913,
            "durationTicks": 192,
            "midi": 43,
            "name": "G2",
            "ticks": 57216,
            "time": 78.420935,
            "velocity": 0.3937007874015748
          },
          {
            "duration": 0.2631575000000055,
            "durationTicks": 192,
            "midi": 39,
            "name": "D#2",
            "ticks": 57408,
            "time": 78.68409249999999,
            "velocity": 0.3937007874015748
          },
          {
            "duration": 0.2631575000000055,
            "durationTicks": 192,
            "midi": 41,
            "name": "F2",
            "ticks": 57600,
            "time": 78.94725,
            "velocity": 0.3937007874015748
          },
          {
            "duration": 0.2631574999999913,
            "durationTicks": 192,
            "midi": 44,
            "name": "G#2",
            "ticks": 57792,
            "time": 79.2104075,
            "velocity": 0.3937007874015748
          },
          {
            "duration": 0.2631575000000055,
            "durationTicks": 192,
            "midi": 48,
            "name": "C3",
            "ticks": 57984,
            "time": 79.473565,
            "velocity": 0.3937007874015748
          },
          {
            "duration": 0.2631574999999913,
            "durationTicks": 192,
            "midi": 44,
            "name": "G#2",
            "ticks": 58176,
            "time": 79.7367225,
            "velocity": 0.3937007874015748
          },
          {
            "duration": 0.2631575000000055,
            "durationTicks": 192,
            "midi": 36,
            "name": "C2",
            "ticks": 58368,
            "time": 79.99987999999999,
            "velocity": 0.3937007874015748
          },
          {
            "duration": 0.2631574999999913,
            "durationTicks": 192,
            "midi": 39,
            "name": "D#2",
            "ticks": 58752,
            "time": 80.526195,
            "velocity": 0.3937007874015748
          },
          {
            "duration": 0.2631575000000055,
            "durationTicks": 192,
            "midi": 36,
            "name": "C2",
            "ticks": 58944,
            "time": 80.78935249999999,
            "velocity": 0.3937007874015748
          },
          {
            "duration": 0.2631575000000055,
            "durationTicks": 192,
            "midi": 35,
            "name": "B1",
            "ticks": 59136,
            "time": 81.05251,
            "velocity": 0.3937007874015748
          },
          {
            "duration": 0.2631575000000055,
            "durationTicks": 192,
            "midi": 38,
            "name": "D2",
            "ticks": 59520,
            "time": 81.578825,
            "velocity": 0.3937007874015748
          },
          {
            "duration": 0.2631575000000055,
            "durationTicks": 192,
            "midi": 39,
            "name": "D#2",
            "ticks": 59904,
            "time": 82.10513999999999,
            "velocity": 0.3937007874015748
          },
          {
            "duration": 0.2631574999999913,
            "durationTicks": 192,
            "midi": 43,
            "name": "G2",
            "ticks": 60288,
            "time": 82.631455,
            "velocity": 0.3937007874015748
          },
          {
            "duration": 0.2631575000000055,
            "durationTicks": 192,
            "midi": 39,
            "name": "D#2",
            "ticks": 60480,
            "time": 82.8946125,
            "velocity": 0.3937007874015748
          },
          {
            "duration": 0.2631574999999913,
            "durationTicks": 192,
            "midi": 41,
            "name": "F2",
            "ticks": 60672,
            "time": 83.15777,
            "velocity": 0.3937007874015748
          },
          {
            "duration": 0.2631575000000055,
            "durationTicks": 192,
            "midi": 44,
            "name": "G#2",
            "ticks": 60864,
            "time": 83.42092749999999,
            "velocity": 0.3937007874015748
          },
          {
            "duration": 0.2631575000000055,
            "durationTicks": 192,
            "midi": 48,
            "name": "C3",
            "ticks": 61056,
            "time": 83.684085,
            "velocity": 0.3937007874015748
          },
          {
            "duration": 0.2631574999999913,
            "durationTicks": 192,
            "midi": 44,
            "name": "G#2",
            "ticks": 61248,
            "time": 83.9472425,
            "velocity": 0.3937007874015748
          },
          {
            "duration": 0.2631575000000055,
            "durationTicks": 192,
            "midi": 36,
            "name": "C2",
            "ticks": 61440,
            "time": 84.21039999999999,
            "velocity": 0.3937007874015748
          },
          {
            "duration": 0.2631575000000055,
            "durationTicks": 192,
            "midi": 39,
            "name": "D#2",
            "ticks": 61824,
            "time": 84.73671499999999,
            "velocity": 0.3937007874015748
          },
          {
            "duration": 0.2631575000000055,
            "durationTicks": 192,
            "midi": 36,
            "name": "C2",
            "ticks": 62016,
            "time": 84.9998725,
            "velocity": 0.3937007874015748
          },
          {
            "duration": 0.2631574999999913,
            "durationTicks": 192,
            "midi": 35,
            "name": "B1",
            "ticks": 62208,
            "time": 85.26303,
            "velocity": 0.3937007874015748
          },
          {
            "duration": 0.2631575000000055,
            "durationTicks": 192,
            "midi": 38,
            "name": "D2",
            "ticks": 62592,
            "time": 85.789345,
            "velocity": 0.3937007874015748
          },
          {
            "duration": 0.2631575000000055,
            "durationTicks": 192,
            "midi": 39,
            "name": "D#2",
            "ticks": 62976,
            "time": 86.31566,
            "velocity": 0.3937007874015748
          },
          {
            "duration": 0.2631575000000055,
            "durationTicks": 192,
            "midi": 43,
            "name": "G2",
            "ticks": 63360,
            "time": 86.84197499999999,
            "velocity": 0.3937007874015748
          },
          {
            "duration": 0.2631575000000055,
            "durationTicks": 192,
            "midi": 39,
            "name": "D#2",
            "ticks": 63552,
            "time": 87.1051325,
            "velocity": 0.3937007874015748
          },
          {
            "duration": 0.2631574999999913,
            "durationTicks": 192,
            "midi": 41,
            "name": "F2",
            "ticks": 63744,
            "time": 87.36829,
            "velocity": 0.3937007874015748
          },
          {
            "duration": 0.2631575000000055,
            "durationTicks": 192,
            "midi": 44,
            "name": "G#2",
            "ticks": 63936,
            "time": 87.6314475,
            "velocity": 0.3937007874015748
          },
          {
            "duration": 0.2631574999999913,
            "durationTicks": 192,
            "midi": 48,
            "name": "C3",
            "ticks": 64128,
            "time": 87.894605,
            "velocity": 0.3937007874015748
          },
          {
            "duration": 0.2631575000000055,
            "durationTicks": 192,
            "midi": 44,
            "name": "G#2",
            "ticks": 64320,
            "time": 88.15776249999999,
            "velocity": 0.3937007874015748
          },
          {
            "duration": 0.2631575000000055,
            "durationTicks": 192,
            "midi": 36,
            "name": "C2",
            "ticks": 64512,
            "time": 88.42092,
            "velocity": 0.3937007874015748
          },
          {
            "duration": 0.2631575000000055,
            "durationTicks": 192,
            "midi": 39,
            "name": "D#2",
            "ticks": 64896,
            "time": 88.94723499999999,
            "velocity": 0.3937007874015748
          },
          {
            "duration": 0.2631575000000055,
            "durationTicks": 192,
            "midi": 36,
            "name": "C2",
            "ticks": 65088,
            "time": 89.2103925,
            "velocity": 0.3937007874015748
          },
          {
            "duration": 0.2631574999999913,
            "durationTicks": 192,
            "midi": 35,
            "name": "B1",
            "ticks": 65280,
            "time": 89.47355,
            "velocity": 0.3937007874015748
          },
          {
            "duration": 0.2631574999999913,
            "durationTicks": 192,
            "midi": 38,
            "name": "D2",
            "ticks": 65664,
            "time": 89.999865,
            "velocity": 0.3937007874015748
          },
          {
            "duration": 0.2631575000000055,
            "durationTicks": 192,
            "midi": 39,
            "name": "D#2",
            "ticks": 66048,
            "time": 90.52618,
            "velocity": 0.3937007874015748
          },
          {
            "duration": 0.2631575000000055,
            "durationTicks": 192,
            "midi": 43,
            "name": "G2",
            "ticks": 66432,
            "time": 91.052495,
            "velocity": 0.3937007874015748
          },
          {
            "duration": 0.2631574999999913,
            "durationTicks": 192,
            "midi": 39,
            "name": "D#2",
            "ticks": 66624,
            "time": 91.3156525,
            "velocity": 0.3937007874015748
          },
          {
            "duration": 0.2631575000000055,
            "durationTicks": 192,
            "midi": 41,
            "name": "F2",
            "ticks": 66816,
            "time": 91.57880999999999,
            "velocity": 0.3937007874015748
          },
          {
            "duration": 0.2631575000000055,
            "durationTicks": 192,
            "midi": 44,
            "name": "G#2",
            "ticks": 67008,
            "time": 91.8419675,
            "velocity": 0.3937007874015748
          },
          {
            "duration": 0.2631574999999913,
            "durationTicks": 192,
            "midi": 48,
            "name": "C3",
            "ticks": 67200,
            "time": 92.105125,
            "velocity": 0.3937007874015748
          },
          {
            "duration": 0.2631575000000055,
            "durationTicks": 192,
            "midi": 44,
            "name": "G#2",
            "ticks": 67392,
            "time": 92.36828249999999,
            "velocity": 0.3937007874015748
          },
          {
            "duration": 0.5263149999999968,
            "durationTicks": 384,
            "midi": 41,
            "name": "F2",
            "ticks": 73728,
            "time": 101.05248,
            "velocity": 0.3937007874015748
          },
          {
            "duration": 0.5263149999999968,
            "durationTicks": 384,
            "midi": 29,
            "name": "F1",
            "ticks": 73728,
            "time": 101.05248,
            "velocity": 0.3937007874015748
          },
          {
            "duration": 0.5263149999999968,
            "durationTicks": 384,
            "midi": 29,
            "name": "F1",
            "ticks": 74112,
            "time": 101.578795,
            "velocity": 0.3937007874015748
          },
          {
            "duration": 0.5263149999999968,
            "durationTicks": 384,
            "midi": 41,
            "name": "F2",
            "ticks": 74112,
            "time": 101.578795,
            "velocity": 0.3937007874015748
          },
          {
            "duration": 0.5263149999999968,
            "durationTicks": 384,
            "midi": 39,
            "name": "D#2",
            "ticks": 74496,
            "time": 102.10511,
            "velocity": 0.3937007874015748
          },
          {
            "duration": 0.5263149999999968,
            "durationTicks": 384,
            "midi": 27,
            "name": "D#1",
            "ticks": 74496,
            "time": 102.10511,
            "velocity": 0.3937007874015748
          },
          {
            "duration": 0.5263149999999968,
            "durationTicks": 384,
            "midi": 27,
            "name": "D#1",
            "ticks": 74880,
            "time": 102.631425,
            "velocity": 0.3937007874015748
          },
          {
            "duration": 0.5263149999999968,
            "durationTicks": 384,
            "midi": 39,
            "name": "D#2",
            "ticks": 74880,
            "time": 102.631425,
            "velocity": 0.3937007874015748
          },
          {
            "duration": 0.526315000000011,
            "durationTicks": 384,
            "midi": 38,
            "name": "D2",
            "ticks": 75264,
            "time": 103.15773999999999,
            "velocity": 0.3937007874015748
          },
          {
            "duration": 0.526315000000011,
            "durationTicks": 384,
            "midi": 26,
            "name": "D1",
            "ticks": 75264,
            "time": 103.15773999999999,
            "velocity": 0.3937007874015748
          },
          {
            "duration": 0.5263149999999968,
            "durationTicks": 384,
            "midi": 38,
            "name": "D2",
            "ticks": 75648,
            "time": 103.684055,
            "velocity": 0.3937007874015748
          },
          {
            "duration": 0.5263149999999968,
            "durationTicks": 384,
            "midi": 26,
            "name": "D1",
            "ticks": 75648,
            "time": 103.684055,
            "velocity": 0.3937007874015748
          },
          {
            "duration": 0.5263149999999968,
            "durationTicks": 384,
            "midi": 43,
            "name": "G2",
            "ticks": 76032,
            "time": 104.21037,
            "velocity": 0.3937007874015748
          },
          {
            "duration": 0.5263149999999968,
            "durationTicks": 384,
            "midi": 31,
            "name": "G1",
            "ticks": 76032,
            "time": 104.21037,
            "velocity": 0.3937007874015748
          },
          {
            "duration": 0.5263149999999968,
            "durationTicks": 384,
            "midi": 43,
            "name": "G2",
            "ticks": 76416,
            "time": 104.736685,
            "velocity": 0.3937007874015748
          },
          {
            "duration": 0.5263149999999968,
            "durationTicks": 384,
            "midi": 31,
            "name": "G1",
            "ticks": 76416,
            "time": 104.736685,
            "velocity": 0.3937007874015748
          },
          {
            "duration": 0.526315000000011,
            "durationTicks": 384,
            "midi": 36,
            "name": "C2",
            "ticks": 76800,
            "time": 105.26299999999999,
            "velocity": 0.3937007874015748
          },
          {
            "duration": 0.526315000000011,
            "durationTicks": 384,
            "midi": 48,
            "name": "C3",
            "ticks": 76800,
            "time": 105.26299999999999,
            "velocity": 0.3937007874015748
          },
          {
            "duration": 0.5263149999999968,
            "durationTicks": 384,
            "midi": 36,
            "name": "C2",
            "ticks": 77184,
            "time": 105.789315,
            "velocity": 0.3937007874015748
          },
          {
            "duration": 0.5263149999999968,
            "durationTicks": 384,
            "midi": 48,
            "name": "C3",
            "ticks": 77184,
            "time": 105.789315,
            "velocity": 0.3937007874015748
          },
          {
            "duration": 0.5263149999999968,
            "durationTicks": 384,
            "midi": 51,
            "name": "D#3",
            "ticks": 77568,
            "time": 106.31563,
            "velocity": 0.3937007874015748
          },
          {
            "duration": 0.5263149999999968,
            "durationTicks": 384,
            "midi": 39,
            "name": "D#2",
            "ticks": 77568,
            "time": 106.31563,
            "velocity": 0.3937007874015748
          },
          {
            "duration": 0.5263149999999968,
            "durationTicks": 384,
            "midi": 39,
            "name": "D#2",
            "ticks": 77952,
            "time": 106.841945,
            "velocity": 0.3937007874015748
          },
          {
            "duration": 0.5263149999999968,
            "durationTicks": 384,
            "midi": 51,
            "name": "D#3",
            "ticks": 77952,
            "time": 106.841945,
            "velocity": 0.3937007874015748
          },
          {
            "duration": 0.5263149999999968,
            "durationTicks": 384,
            "midi": 32,
            "name": "G#1",
            "ticks": 78336,
            "time": 107.36825999999999,
            "velocity": 0.3937007874015748
          },
          {
            "duration": 0.5263149999999968,
            "durationTicks": 384,
            "midi": 44,
            "name": "G#2",
            "ticks": 78336,
            "time": 107.36825999999999,
            "velocity": 0.3937007874015748
          },
          {
            "duration": 0.526315000000011,
            "durationTicks": 384,
            "midi": 44,
            "name": "G#2",
            "ticks": 78720,
            "time": 107.89457499999999,
            "velocity": 0.3937007874015748
          },
          {
            "duration": 0.526315000000011,
            "durationTicks": 384,
            "midi": 32,
            "name": "G#1",
            "ticks": 78720,
            "time": 107.89457499999999,
            "velocity": 0.3937007874015748
          },
          {
            "duration": 0.5263149999999968,
            "durationTicks": 384,
            "midi": 43,
            "name": "G2",
            "ticks": 79104,
            "time": 108.42089,
            "velocity": 0.3937007874015748
          },
          {
            "duration": 0.5263149999999968,
            "durationTicks": 384,
            "midi": 31,
            "name": "G1",
            "ticks": 79104,
            "time": 108.42089,
            "velocity": 0.3937007874015748
          },
          {
            "duration": 0.5263149999999968,
            "durationTicks": 384,
            "midi": 43,
            "name": "G2",
            "ticks": 79488,
            "time": 108.947205,
            "velocity": 0.3937007874015748
          },
          {
            "duration": 0.5263149999999968,
            "durationTicks": 384,
            "midi": 31,
            "name": "G1",
            "ticks": 79488,
            "time": 108.947205,
            "velocity": 0.3937007874015748
          },
          {
            "duration": 0.3947362500000082,
            "durationTicks": 288,
            "midi": 36,
            "name": "C2",
            "ticks": 79872,
            "time": 109.47352,
            "velocity": 0.3937007874015748
          },
          {
            "duration": 0.3947362500000082,
            "durationTicks": 288,
            "midi": 36,
            "name": "C2",
            "ticks": 80256,
            "time": 109.99983499999999,
            "velocity": 0.3937007874015748
          },
          {
            "duration": 0.394736249999994,
            "durationTicks": 288,
            "midi": 39,
            "name": "D#2",
            "ticks": 80640,
            "time": 110.52615,
            "velocity": 0.3937007874015748
          },
          {
            "duration": 0.394736249999994,
            "durationTicks": 288,
            "midi": 39,
            "name": "D#2",
            "ticks": 81024,
            "time": 111.052465,
            "velocity": 0.3937007874015748
          },
          {
            "duration": 0.394736249999994,
            "durationTicks": 288,
            "midi": 32,
            "name": "G#1",
            "ticks": 81408,
            "time": 111.57878,
            "velocity": 0.3937007874015748
          },
          {
            "duration": 0.3947362500000082,
            "durationTicks": 288,
            "midi": 32,
            "name": "G#1",
            "ticks": 81792,
            "time": 112.10509499999999,
            "velocity": 0.3937007874015748
          },
          {
            "duration": 0.3947362500000082,
            "durationTicks": 288,
            "midi": 31,
            "name": "G1",
            "ticks": 82176,
            "time": 112.63140999999999,
            "velocity": 0.3937007874015748
          },
          {
            "duration": 0.394736249999994,
            "durationTicks": 288,
            "midi": 31,
            "name": "G1",
            "ticks": 82560,
            "time": 113.157725,
            "velocity": 0.3937007874015748
          },
          {
            "duration": 0.394736249999994,
            "durationTicks": 288,
            "midi": 36,
            "name": "C2",
            "ticks": 82944,
            "time": 113.68404,
            "velocity": 0.3937007874015748
          },
          {
            "duration": 0.3947362500000082,
            "durationTicks": 288,
            "midi": 36,
            "name": "C2",
            "ticks": 83328,
            "time": 114.21035499999999,
            "velocity": 0.3937007874015748
          },
          {
            "duration": 0.3947362500000082,
            "durationTicks": 288,
            "midi": 39,
            "name": "D#2",
            "ticks": 83712,
            "time": 114.73666999999999,
            "velocity": 0.3937007874015748
          },
          {
            "duration": 0.394736249999994,
            "durationTicks": 288,
            "midi": 39,
            "name": "D#2",
            "ticks": 84096,
            "time": 115.262985,
            "velocity": 0.3937007874015748
          },
          {
            "duration": 0.394736249999994,
            "durationTicks": 288,
            "midi": 32,
            "name": "G#1",
            "ticks": 84480,
            "time": 115.7893,
            "velocity": 0.3937007874015748
          },
          {
            "duration": 0.394736249999994,
            "durationTicks": 288,
            "midi": 32,
            "name": "G#1",
            "ticks": 84864,
            "time": 116.315615,
            "velocity": 0.3937007874015748
          },
          {
            "duration": 0.3947362500000082,
            "durationTicks": 288,
            "midi": 31,
            "name": "G1",
            "ticks": 85248,
            "time": 116.84192999999999,
            "velocity": 0.3937007874015748
          },
          {
            "duration": 0.394736249999994,
            "durationTicks": 288,
            "midi": 31,
            "name": "G1",
            "ticks": 85632,
            "time": 117.368245,
            "velocity": 0.3937007874015748
          },
          {
            "duration": 0.394736249999994,
            "durationTicks": 288,
            "midi": 29,
            "name": "F1",
            "ticks": 86016,
            "time": 117.89456,
            "velocity": 0.3937007874015748
          },
          {
            "duration": 0.394736249999994,
            "durationTicks": 288,
            "midi": 29,
            "name": "F1",
            "ticks": 86400,
            "time": 118.420875,
            "velocity": 0.3937007874015748
          },
          {
            "duration": 0.3947362500000082,
            "durationTicks": 288,
            "midi": 27,
            "name": "D#1",
            "ticks": 86784,
            "time": 118.94718999999999,
            "velocity": 0.3937007874015748
          },
          {
            "duration": 0.3947362500000082,
            "durationTicks": 288,
            "midi": 27,
            "name": "D#1",
            "ticks": 87168,
            "time": 119.47350499999999,
            "velocity": 0.3937007874015748
          },
          {
            "duration": 0.394736249999994,
            "durationTicks": 288,
            "midi": 26,
            "name": "D1",
            "ticks": 87552,
            "time": 119.99982,
            "velocity": 0.3937007874015748
          },
          {
            "duration": 0.394736249999994,
            "durationTicks": 288,
            "midi": 26,
            "name": "D1",
            "ticks": 87936,
            "time": 120.526135,
            "velocity": 0.3937007874015748
          },
          {
            "duration": 0.3947362500000082,
            "durationTicks": 288,
            "midi": 31,
            "name": "G1",
            "ticks": 88320,
            "time": 121.05245,
            "velocity": 0.3937007874015748
          },
          {
            "duration": 0.3947362500000082,
            "durationTicks": 288,
            "midi": 31,
            "name": "G1",
            "ticks": 88704,
            "time": 121.57876499999999,
            "velocity": 0.3937007874015748
          },
          {
            "duration": 0.394736249999994,
            "durationTicks": 288,
            "midi": 36,
            "name": "C2",
            "ticks": 89088,
            "time": 122.10508,
            "velocity": 0.3937007874015748
          },
          {
            "duration": 0.394736249999994,
            "durationTicks": 288,
            "midi": 36,
            "name": "C2",
            "ticks": 89472,
            "time": 122.631395,
            "velocity": 0.3937007874015748
          },
          {
            "duration": 0.394736249999994,
            "durationTicks": 288,
            "midi": 39,
            "name": "D#2",
            "ticks": 89856,
            "time": 123.15771,
            "velocity": 0.3937007874015748
          },
          {
            "duration": 0.3947362500000082,
            "durationTicks": 288,
            "midi": 39,
            "name": "D#2",
            "ticks": 90240,
            "time": 123.68402499999999,
            "velocity": 0.3937007874015748
          },
          {
            "duration": 0.3947362500000082,
            "durationTicks": 288,
            "midi": 32,
            "name": "G#1",
            "ticks": 90624,
            "time": 124.21033999999999,
            "velocity": 0.3937007874015748
          },
          {
            "duration": 0.394736249999994,
            "durationTicks": 288,
            "midi": 32,
            "name": "G#1",
            "ticks": 91008,
            "time": 124.736655,
            "velocity": 0.3937007874015748
          },
          {
            "duration": 0.394736249999994,
            "durationTicks": 288,
            "midi": 31,
            "name": "G1",
            "ticks": 91392,
            "time": 125.26297,
            "velocity": 0.3937007874015748
          },
          {
            "duration": 0.3947362500000082,
            "durationTicks": 288,
            "midi": 31,
            "name": "G1",
            "ticks": 91776,
            "time": 125.78928499999999,
            "velocity": 0.3937007874015748
          },
          {
            "duration": 0.3947362500000082,
            "durationTicks": 288,
            "midi": 36,
            "name": "C2",
            "ticks": 92160,
            "time": 126.31559999999999,
            "velocity": 0.3937007874015748
          },
          {
            "duration": 0.394736249999994,
            "durationTicks": 288,
            "midi": 36,
            "name": "C2",
            "ticks": 92544,
            "time": 126.841915,
            "velocity": 0.3937007874015748
          },
          {
            "duration": 0.394736249999994,
            "durationTicks": 288,
            "midi": 39,
            "name": "D#2",
            "ticks": 92928,
            "time": 127.36823,
            "velocity": 0.3937007874015748
          },
          {
            "duration": 0.394736249999994,
            "durationTicks": 288,
            "midi": 39,
            "name": "D#2",
            "ticks": 93312,
            "time": 127.894545,
            "velocity": 0.3937007874015748
          },
          {
            "duration": 0.394736249999994,
            "durationTicks": 288,
            "midi": 32,
            "name": "G#1",
            "ticks": 93696,
            "time": 128.42086,
            "velocity": 0.3937007874015748
          },
          {
            "duration": 0.394736249999994,
            "durationTicks": 288,
            "midi": 32,
            "name": "G#1",
            "ticks": 94080,
            "time": 128.947175,
            "velocity": 0.3937007874015748
          },
          {
            "duration": 0.394736249999994,
            "durationTicks": 288,
            "midi": 31,
            "name": "G1",
            "ticks": 94464,
            "time": 129.47349,
            "velocity": 0.3937007874015748
          },
          {
            "duration": 0.39473625000002244,
            "durationTicks": 288,
            "midi": 31,
            "name": "G1",
            "ticks": 94848,
            "time": 129.99980499999998,
            "velocity": 0.3937007874015748
          },
          {
            "duration": 0.394736249999994,
            "durationTicks": 288,
            "midi": 36,
            "name": "C2",
            "ticks": 95232,
            "time": 130.52612,
            "velocity": 0.3937007874015748
          },
          {
            "duration": 0.394736249999994,
            "durationTicks": 288,
            "midi": 36,
            "name": "C2",
            "ticks": 95616,
            "time": 131.052435,
            "velocity": 0.3937007874015748
          },
          {
            "duration": 0.39473625000002244,
            "durationTicks": 288,
            "midi": 39,
            "name": "D#2",
            "ticks": 96000,
            "time": 131.57874999999999,
            "velocity": 0.3937007874015748
          },
          {
            "duration": 0.394736249999994,
            "durationTicks": 288,
            "midi": 39,
            "name": "D#2",
            "ticks": 96384,
            "time": 132.105065,
            "velocity": 0.3937007874015748
          },
          {
            "duration": 0.394736249999994,
            "durationTicks": 288,
            "midi": 32,
            "name": "G#1",
            "ticks": 96768,
            "time": 132.63138,
            "velocity": 0.3937007874015748
          },
          {
            "duration": 0.394736249999994,
            "durationTicks": 288,
            "midi": 32,
            "name": "G#1",
            "ticks": 97152,
            "time": 133.157695,
            "velocity": 0.3937007874015748
          },
          {
            "duration": 0.394736249999994,
            "durationTicks": 288,
            "midi": 31,
            "name": "G1",
            "ticks": 97536,
            "time": 133.68401,
            "velocity": 0.3937007874015748
          },
          {
            "duration": 0.39473625000002244,
            "durationTicks": 288,
            "midi": 31,
            "name": "G1",
            "ticks": 97920,
            "time": 134.21032499999998,
            "velocity": 0.3937007874015748
          },
          {
            "duration": 0.394736249999994,
            "durationTicks": 288,
            "midi": 29,
            "name": "F1",
            "ticks": 98304,
            "time": 134.73664,
            "velocity": 0.3937007874015748
          },
          {
            "duration": 0.394736249999994,
            "durationTicks": 288,
            "midi": 29,
            "name": "F1",
            "ticks": 98688,
            "time": 135.262955,
            "velocity": 0.3937007874015748
          },
          {
            "duration": 0.394736249999994,
            "durationTicks": 288,
            "midi": 27,
            "name": "D#1",
            "ticks": 99072,
            "time": 135.78927,
            "velocity": 0.3937007874015748
          },
          {
            "duration": 0.394736249999994,
            "durationTicks": 288,
            "midi": 27,
            "name": "D#1",
            "ticks": 99456,
            "time": 136.315585,
            "velocity": 0.3937007874015748
          },
          {
            "duration": 0.39473625000002244,
            "durationTicks": 288,
            "midi": 26,
            "name": "D1",
            "ticks": 99840,
            "time": 136.84189999999998,
            "velocity": 0.3937007874015748
          },
          {
            "duration": 0.394736249999994,
            "durationTicks": 288,
            "midi": 26,
            "name": "D1",
            "ticks": 100224,
            "time": 137.368215,
            "velocity": 0.3937007874015748
          },
          {
            "duration": 0.394736249999994,
            "durationTicks": 288,
            "midi": 31,
            "name": "G1",
            "ticks": 100608,
            "time": 137.89453,
            "velocity": 0.3937007874015748
          },
          {
            "duration": 0.39473625000002244,
            "durationTicks": 288,
            "midi": 31,
            "name": "G1",
            "ticks": 100992,
            "time": 138.42084499999999,
            "velocity": 0.3937007874015748
          },
          {
            "duration": 0.394736249999994,
            "durationTicks": 288,
            "midi": 36,
            "name": "C2",
            "ticks": 101376,
            "time": 138.94716,
            "velocity": 0.3937007874015748
          },
          {
            "duration": 0.394736249999994,
            "durationTicks": 288,
            "midi": 36,
            "name": "C2",
            "ticks": 101760,
            "time": 139.473475,
            "velocity": 0.3937007874015748
          },
          {
            "duration": 0.394736249999994,
            "durationTicks": 288,
            "midi": 39,
            "name": "D#2",
            "ticks": 102144,
            "time": 139.99979,
            "velocity": 0.3937007874015748
          },
          {
            "duration": 0.394736249999994,
            "durationTicks": 288,
            "midi": 39,
            "name": "D#2",
            "ticks": 102528,
            "time": 140.526105,
            "velocity": 0.3937007874015748
          },
          {
            "duration": 0.39473625000002244,
            "durationTicks": 288,
            "midi": 32,
            "name": "G#1",
            "ticks": 102912,
            "time": 141.05241999999998,
            "velocity": 0.3937007874015748
          },
          {
            "duration": 0.394736249999994,
            "durationTicks": 288,
            "midi": 32,
            "name": "G#1",
            "ticks": 103296,
            "time": 141.578735,
            "velocity": 0.3937007874015748
          },
          {
            "duration": 0.394736249999994,
            "durationTicks": 288,
            "midi": 31,
            "name": "G1",
            "ticks": 103680,
            "time": 142.10505,
            "velocity": 0.3937007874015748
          },
          {
            "duration": 0.394736249999994,
            "durationTicks": 288,
            "midi": 31,
            "name": "G1",
            "ticks": 104064,
            "time": 142.631365,
            "velocity": 0.3937007874015748
          },
          {
            "duration": 0.394736249999994,
            "durationTicks": 288,
            "midi": 36,
            "name": "C2",
            "ticks": 104448,
            "time": 143.15768,
            "velocity": 0.3937007874015748
          },
          {
            "duration": 0.39473625000002244,
            "durationTicks": 288,
            "midi": 36,
            "name": "C2",
            "ticks": 104832,
            "time": 143.68399499999998,
            "velocity": 0.3937007874015748
          },
          {
            "duration": 0.394736249999994,
            "durationTicks": 288,
            "midi": 39,
            "name": "D#2",
            "ticks": 105216,
            "time": 144.21031,
            "velocity": 0.3937007874015748
          },
          {
            "duration": 0.394736249999994,
            "durationTicks": 288,
            "midi": 39,
            "name": "D#2",
            "ticks": 105600,
            "time": 144.736625,
            "velocity": 0.3937007874015748
          },
          {
            "duration": 0.394736249999994,
            "durationTicks": 288,
            "midi": 32,
            "name": "G#1",
            "ticks": 105984,
            "time": 145.26294,
            "velocity": 0.3937007874015748
          },
          {
            "duration": 0.394736249999994,
            "durationTicks": 288,
            "midi": 32,
            "name": "G#1",
            "ticks": 106368,
            "time": 145.789255,
            "velocity": 0.3937007874015748
          },
          {
            "duration": 0.39473625000002244,
            "durationTicks": 288,
            "midi": 31,
            "name": "G1",
            "ticks": 106752,
            "time": 146.31556999999998,
            "velocity": 0.3937007874015748
          },
          {
            "duration": 0.394736249999994,
            "durationTicks": 288,
            "midi": 31,
            "name": "G1",
            "ticks": 107136,
            "time": 146.841885,
            "velocity": 0.3937007874015748
          },
          {
            "duration": 0.394736249999994,
            "durationTicks": 288,
            "midi": 36,
            "name": "C2",
            "ticks": 107520,
            "time": 147.3682,
            "velocity": 0.3937007874015748
          },
          {
            "duration": 0.39473625000002244,
            "durationTicks": 288,
            "midi": 36,
            "name": "C2",
            "ticks": 107904,
            "time": 147.89451499999998,
            "velocity": 0.3937007874015748
          },
          {
            "duration": 0.394736249999994,
            "durationTicks": 288,
            "midi": 39,
            "name": "D#2",
            "ticks": 108288,
            "time": 148.42083,
            "velocity": 0.3937007874015748
          },
          {
            "duration": 0.394736249999994,
            "durationTicks": 288,
            "midi": 39,
            "name": "D#2",
            "ticks": 108672,
            "time": 148.947145,
            "velocity": 0.3937007874015748
          },
          {
            "duration": 0.394736249999994,
            "durationTicks": 288,
            "midi": 32,
            "name": "G#1",
            "ticks": 109056,
            "time": 149.47346,
            "velocity": 0.3937007874015748
          },
          {
            "duration": 0.394736249999994,
            "durationTicks": 288,
            "midi": 32,
            "name": "G#1",
            "ticks": 109440,
            "time": 149.999775,
            "velocity": 0.3937007874015748
          },
          {
            "duration": 0.39473625000002244,
            "durationTicks": 288,
            "midi": 31,
            "name": "G1",
            "ticks": 109824,
            "time": 150.52608999999998,
            "velocity": 0.3937007874015748
          },
          {
            "duration": 0.394736249999994,
            "durationTicks": 288,
            "midi": 31,
            "name": "G1",
            "ticks": 110208,
            "time": 151.052405,
            "velocity": 0.3937007874015748
          }
        ],
        "endOfTrackTicks": 110496
      },
      {
        "channel": 5,
        "controlChanges": {},
        "pitchBends": [],
        "instrument": {
          "family": "synth lead",
          "number": 87,
          "name": "lead 8 (bass + lead)"
        },
        "name": "Synth Pluck",
        "notes": [
          {
            "duration": 0.13157875000000274,
            "durationTicks": 96,
            "midi": 72,
            "name": "C5",
            "ticks": 24960,
            "time": 34.210474999999995,
            "velocity": 0.3937007874015748
          },
          {
            "duration": 0.13157875000000274,
            "durationTicks": 96,
            "midi": 84,
            "name": "C6",
            "ticks": 24960,
            "time": 34.210474999999995,
            "velocity": 0.3937007874015748
          },
          {
            "duration": 0.13157875000000274,
            "durationTicks": 96,
            "midi": 67,
            "name": "G4",
            "ticks": 25056,
            "time": 34.34205375,
            "velocity": 0.3937007874015748
          },
          {
            "duration": 0.13157875000000274,
            "durationTicks": 96,
            "midi": 79,
            "name": "G5",
            "ticks": 25056,
            "time": 34.34205375,
            "velocity": 0.3937007874015748
          },
          {
            "duration": 0.2631574999999984,
            "durationTicks": 192,
            "midi": 65,
            "name": "F4",
            "ticks": 25152,
            "time": 34.4736325,
            "velocity": 0.3937007874015748
          },
          {
            "duration": 0.2631574999999984,
            "durationTicks": 192,
            "midi": 77,
            "name": "F5",
            "ticks": 25152,
            "time": 34.4736325,
            "velocity": 0.3937007874015748
          },
          {
            "duration": 0.3947362500000011,
            "durationTicks": 288,
            "midi": 75,
            "name": "D#5",
            "ticks": 25344,
            "time": 34.73679,
            "velocity": 0.3937007874015748
          },
          {
            "duration": 0.3947362500000011,
            "durationTicks": 288,
            "midi": 63,
            "name": "D#4",
            "ticks": 25344,
            "time": 34.73679,
            "velocity": 0.3937007874015748
          },
          {
            "duration": 0.2631575000000055,
            "durationTicks": 192,
            "midi": 60,
            "name": "C4",
            "ticks": 25728,
            "time": 35.263104999999996,
            "velocity": 0.3937007874015748
          },
          {
            "duration": 0.2631575000000055,
            "durationTicks": 192,
            "midi": 72,
            "name": "C5",
            "ticks": 25728,
            "time": 35.263104999999996,
            "velocity": 0.3937007874015748
          },
          {
            "duration": 0.2631574999999984,
            "durationTicks": 192,
            "midi": 63,
            "name": "D#4",
            "ticks": 25920,
            "time": 35.5262625,
            "velocity": 0.3937007874015748
          },
          {
            "duration": 0.2631574999999984,
            "durationTicks": 192,
            "midi": 75,
            "name": "D#5",
            "ticks": 25920,
            "time": 35.5262625,
            "velocity": 0.3937007874015748
          },
          {
            "duration": 0.2631574999999984,
            "durationTicks": 192,
            "midi": 65,
            "name": "F4",
            "ticks": 26112,
            "time": 35.78942,
            "velocity": 0.3937007874015748
          },
          {
            "duration": 0.2631574999999984,
            "durationTicks": 192,
            "midi": 77,
            "name": "F5",
            "ticks": 26112,
            "time": 35.78942,
            "velocity": 0.3937007874015748
          },
          {
            "duration": 0.2631574999999984,
            "durationTicks": 192,
            "midi": 75,
            "name": "D#5",
            "ticks": 26304,
            "time": 36.0525775,
            "velocity": 0.3937007874015748
          },
          {
            "duration": 0.2631574999999984,
            "durationTicks": 192,
            "midi": 63,
            "name": "D#4",
            "ticks": 26304,
            "time": 36.0525775,
            "velocity": 0.3937007874015748
          },
          {
            "duration": 0.2631574999999984,
            "durationTicks": 192,
            "midi": 77,
            "name": "F5",
            "ticks": 26496,
            "time": 36.315735,
            "velocity": 0.3937007874015748
          },
          {
            "duration": 0.2631574999999984,
            "durationTicks": 192,
            "midi": 65,
            "name": "F4",
            "ticks": 26496,
            "time": 36.315735,
            "velocity": 0.3937007874015748
          },
          {
            "duration": 0.13157875000000274,
            "durationTicks": 96,
            "midi": 63,
            "name": "D#4",
            "ticks": 26688,
            "time": 36.578892499999995,
            "velocity": 0.3937007874015748
          },
          {
            "duration": 0.13157875000000274,
            "durationTicks": 96,
            "midi": 75,
            "name": "D#5",
            "ticks": 26688,
            "time": 36.578892499999995,
            "velocity": 0.3937007874015748
          },
          {
            "duration": 0.2631574999999984,
            "durationTicks": 192,
            "midi": 67,
            "name": "G4",
            "ticks": 26784,
            "time": 36.71047125,
            "velocity": 0.3937007874015748
          },
          {
            "duration": 0.2631574999999984,
            "durationTicks": 192,
            "midi": 79,
            "name": "G5",
            "ticks": 26784,
            "time": 36.71047125,
            "velocity": 0.3937007874015748
          },
          {
            "duration": 0.06578937500000137,
            "durationTicks": 48,
            "midi": 79,
            "name": "G5",
            "ticks": 26976,
            "time": 36.973628749999996,
            "velocity": 0.3937007874015748
          },
          {
            "duration": 0.06578937500000137,
            "durationTicks": 48,
            "midi": 67,
            "name": "G4",
            "ticks": 26976,
            "time": 36.973628749999996,
            "velocity": 0.3937007874015748
          },
          {
            "duration": 0.06578937500000137,
            "durationTicks": 48,
            "midi": 79,
            "name": "G5",
            "ticks": 27024,
            "time": 37.039418125,
            "velocity": 0.3937007874015748
          },
          {
            "duration": 0.06578937500000137,
            "durationTicks": 48,
            "midi": 67,
            "name": "G4",
            "ticks": 27024,
            "time": 37.039418125,
            "velocity": 0.3937007874015748
          },
          {
            "duration": 0.06578937500000137,
            "durationTicks": 48,
            "midi": 67,
            "name": "G4",
            "ticks": 27072,
            "time": 37.1052075,
            "velocity": 0.3937007874015748
          },
          {
            "duration": 0.06578937500000137,
            "durationTicks": 48,
            "midi": 79,
            "name": "G5",
            "ticks": 27072,
            "time": 37.1052075,
            "velocity": 0.3937007874015748
          },
          {
            "duration": 0.06578937500000137,
            "durationTicks": 48,
            "midi": 79,
            "name": "G5",
            "ticks": 27120,
            "time": 37.170996875,
            "velocity": 0.3937007874015748
          },
          {
            "duration": 0.06578937500000137,
            "durationTicks": 48,
            "midi": 67,
            "name": "G4",
            "ticks": 27120,
            "time": 37.170996875,
            "velocity": 0.3937007874015748
          },
          {
            "duration": 0.06578937499999427,
            "durationTicks": 48,
            "midi": 79,
            "name": "G5",
            "ticks": 27168,
            "time": 37.23678625,
            "velocity": 0.3937007874015748
          },
          {
            "duration": 0.06578937499999427,
            "durationTicks": 48,
            "midi": 67,
            "name": "G4",
            "ticks": 27168,
            "time": 37.23678625,
            "velocity": 0.3937007874015748
          },
          {
            "duration": 0.06578937500000137,
            "durationTicks": 48,
            "midi": 67,
            "name": "G4",
            "ticks": 27216,
            "time": 37.302575624999996,
            "velocity": 0.3937007874015748
          },
          {
            "duration": 0.06578937500000137,
            "durationTicks": 48,
            "midi": 79,
            "name": "G5",
            "ticks": 27216,
            "time": 37.302575624999996,
            "velocity": 0.3937007874015748
          },
          {
            "duration": 0.2631574999999984,
            "durationTicks": 192,
            "midi": 77,
            "name": "F5",
            "ticks": 27264,
            "time": 37.368365,
            "velocity": 0.3937007874015748
          },
          {
            "duration": 0.2631574999999984,
            "durationTicks": 192,
            "midi": 65,
            "name": "F4",
            "ticks": 27264,
            "time": 37.368365,
            "velocity": 0.3937007874015748
          },
          {
            "duration": 0.2631575000000055,
            "durationTicks": 192,
            "midi": 63,
            "name": "D#4",
            "ticks": 27456,
            "time": 37.631522499999996,
            "velocity": 0.3937007874015748
          },
          {
            "duration": 0.2631575000000055,
            "durationTicks": 192,
            "midi": 75,
            "name": "D#5",
            "ticks": 27456,
            "time": 37.631522499999996,
            "velocity": 0.3937007874015748
          },
          {
            "duration": 0.13157874999999564,
            "durationTicks": 96,
            "midi": 70,
            "name": "A#4",
            "ticks": 27840,
            "time": 38.1578375,
            "velocity": 0.3937007874015748
          },
          {
            "duration": 0.13157874999999564,
            "durationTicks": 96,
            "midi": 58,
            "name": "A#3",
            "ticks": 27840,
            "time": 38.1578375,
            "velocity": 0.3937007874015748
          },
          {
            "duration": 0.13157875000000274,
            "durationTicks": 96,
            "midi": 60,
            "name": "C4",
            "ticks": 27936,
            "time": 38.289416249999995,
            "velocity": 0.3937007874015748
          },
          {
            "duration": 0.13157875000000274,
            "durationTicks": 96,
            "midi": 72,
            "name": "C5",
            "ticks": 27936,
            "time": 38.289416249999995,
            "velocity": 0.3937007874015748
          },
          {
            "duration": 0.2631574999999984,
            "durationTicks": 192,
            "midi": 63,
            "name": "D#4",
            "ticks": 28032,
            "time": 38.420995,
            "velocity": 0.3937007874015748
          },
          {
            "duration": 0.2631574999999984,
            "durationTicks": 192,
            "midi": 75,
            "name": "D#5",
            "ticks": 28032,
            "time": 38.420995,
            "velocity": 0.3937007874015748
          },
          {
            "duration": 0.2631575000000055,
            "durationTicks": 192,
            "midi": 77,
            "name": "F5",
            "ticks": 28224,
            "time": 38.684152499999996,
            "velocity": 0.3937007874015748
          },
          {
            "duration": 0.2631575000000055,
            "durationTicks": 192,
            "midi": 65,
            "name": "F4",
            "ticks": 28224,
            "time": 38.684152499999996,
            "velocity": 0.3937007874015748
          },
          {
            "duration": 0.2631574999999984,
            "durationTicks": 192,
            "midi": 63,
            "name": "D#4",
            "ticks": 28416,
            "time": 38.94731,
            "velocity": 0.3937007874015748
          },
          {
            "duration": 0.2631574999999984,
            "durationTicks": 192,
            "midi": 75,
            "name": "D#5",
            "ticks": 28416,
            "time": 38.94731,
            "velocity": 0.3937007874015748
          },
          {
            "duration": 0.2631574999999984,
            "durationTicks": 192,
            "midi": 72,
            "name": "C5",
            "ticks": 28608,
            "time": 39.2104675,
            "velocity": 0.3937007874015748
          },
          {
            "duration": 0.2631574999999984,
            "durationTicks": 192,
            "midi": 60,
            "name": "C4",
            "ticks": 28608,
            "time": 39.2104675,
            "velocity": 0.3937007874015748
          },
          {
            "duration": 0.3947362500000011,
            "durationTicks": 288,
            "midi": 63,
            "name": "D#4",
            "ticks": 28800,
            "time": 39.473625,
            "velocity": 0.3937007874015748
          },
          {
            "duration": 0.3947362500000011,
            "durationTicks": 288,
            "midi": 75,
            "name": "D#5",
            "ticks": 28800,
            "time": 39.473625,
            "velocity": 0.3937007874015748
          },
          {
            "duration": 0.23026281250000125,
            "durationTicks": 168,
            "midi": 67,
            "name": "G4",
            "ticks": 29184,
            "time": 39.999939999999995,
            "velocity": 0.3937007874015748
          },
          {
            "duration": 0.23026281250000125,
            "durationTicks": 168,
            "midi": 79,
            "name": "G5",
            "ticks": 29184,
            "time": 39.999939999999995,
            "velocity": 0.3937007874015748
          },
          {
            "duration": 0.23026281249999414,
            "durationTicks": 168,
            "midi": 66,
            "name": "F#4",
            "ticks": 29376,
            "time": 40.2630975,
            "velocity": 0.3937007874015748
          },
          {
            "duration": 0.23026281249999414,
            "durationTicks": 168,
            "midi": 78,
            "name": "F#5",
            "ticks": 29376,
            "time": 40.2630975,
            "velocity": 0.3937007874015748
          },
          {
            "duration": 0.23026281250000125,
            "durationTicks": 168,
            "midi": 77,
            "name": "F5",
            "ticks": 29568,
            "time": 40.526255,
            "velocity": 0.3937007874015748
          },
          {
            "duration": 0.23026281250000125,
            "durationTicks": 168,
            "midi": 65,
            "name": "F4",
            "ticks": 29568,
            "time": 40.526255,
            "velocity": 0.3937007874015748
          },
          {
            "duration": 0.2631574999999984,
            "durationTicks": 192,
            "midi": 78,
            "name": "F#5",
            "ticks": 29760,
            "time": 40.7894125,
            "velocity": 0.3937007874015748
          },
          {
            "duration": 0.2631574999999984,
            "durationTicks": 192,
            "midi": 66,
            "name": "F#4",
            "ticks": 29760,
            "time": 40.7894125,
            "velocity": 0.3937007874015748
          },
          {
            "duration": 0.03289468750000424,
            "durationTicks": 24,
            "midi": 67,
            "name": "G4",
            "ticks": 29952,
            "time": 41.052569999999996,
            "velocity": 0.3937007874015748
          },
          {
            "duration": 0.03289468750000424,
            "durationTicks": 24,
            "midi": 79,
            "name": "G5",
            "ticks": 29952,
            "time": 41.052569999999996,
            "velocity": 0.3937007874015748
          },
          {
            "duration": 0.03289468750000424,
            "durationTicks": 24,
            "midi": 79,
            "name": "G5",
            "ticks": 30000,
            "time": 41.118359375,
            "velocity": 0.3937007874015748
          },
          {
            "duration": 0.03289468750000424,
            "durationTicks": 24,
            "midi": 67,
            "name": "G4",
            "ticks": 30000,
            "time": 41.118359375,
            "velocity": 0.3937007874015748
          },
          {
            "duration": 0.0986840624999985,
            "durationTicks": 72,
            "midi": 79,
            "name": "G5",
            "ticks": 30048,
            "time": 41.18414875,
            "velocity": 0.3937007874015748
          },
          {
            "duration": 0.0986840624999985,
            "durationTicks": 72,
            "midi": 67,
            "name": "G4",
            "ticks": 30048,
            "time": 41.18414875,
            "velocity": 0.3937007874015748
          },
          {
            "duration": 0.0986840624999985,
            "durationTicks": 72,
            "midi": 79,
            "name": "G5",
            "ticks": 30144,
            "time": 41.3157275,
            "velocity": 0.3937007874015748
          },
          {
            "duration": 0.0986840624999985,
            "durationTicks": 72,
            "midi": 67,
            "name": "G4",
            "ticks": 30144,
            "time": 41.3157275,
            "velocity": 0.3937007874015748
          },
          {
            "duration": 0.0986840624999985,
            "durationTicks": 72,
            "midi": 67,
            "name": "G4",
            "ticks": 30240,
            "time": 41.44730625,
            "velocity": 0.3937007874015748
          },
          {
            "duration": 0.0986840624999985,
            "durationTicks": 72,
            "midi": 79,
            "name": "G5",
            "ticks": 30240,
            "time": 41.44730625,
            "velocity": 0.3937007874015748
          },
          {
            "duration": 0.197368124999997,
            "durationTicks": 144,
            "midi": 65,
            "name": "F4",
            "ticks": 30336,
            "time": 41.578885,
            "velocity": 0.3937007874015748
          },
          {
            "duration": 0.197368124999997,
            "durationTicks": 144,
            "midi": 77,
            "name": "F5",
            "ticks": 30336,
            "time": 41.578885,
            "velocity": 0.3937007874015748
          },
          {
            "duration": 0.197368124999997,
            "durationTicks": 144,
            "midi": 63,
            "name": "D#4",
            "ticks": 30528,
            "time": 41.8420425,
            "velocity": 0.3937007874015748
          },
          {
            "duration": 0.197368124999997,
            "durationTicks": 144,
            "midi": 75,
            "name": "D#5",
            "ticks": 30528,
            "time": 41.8420425,
            "velocity": 0.3937007874015748
          },
          {
            "duration": 0.13157875000000274,
            "durationTicks": 96,
            "midi": 72,
            "name": "C5",
            "ticks": 30912,
            "time": 42.368357499999995,
            "velocity": 0.3937007874015748
          },
          {
            "duration": 0.13157875000000274,
            "durationTicks": 96,
            "midi": 84,
            "name": "C6",
            "ticks": 30912,
            "time": 42.368357499999995,
            "velocity": 0.3937007874015748
          },
          {
            "duration": 0.13157875000000274,
            "durationTicks": 96,
            "midi": 83,
            "name": "B5",
            "ticks": 31008,
            "time": 42.49993625,
            "velocity": 0.3937007874015748
          },
          {
            "duration": 0.13157875000000274,
            "durationTicks": 96,
            "midi": 71,
            "name": "B4",
            "ticks": 31008,
            "time": 42.49993625,
            "velocity": 0.3937007874015748
          },
          {
            "duration": 0.2631574999999984,
            "durationTicks": 192,
            "midi": 70,
            "name": "A#4",
            "ticks": 31104,
            "time": 42.631515,
            "velocity": 0.3937007874015748
          },
          {
            "duration": 0.2631574999999984,
            "durationTicks": 192,
            "midi": 82,
            "name": "A#5",
            "ticks": 31104,
            "time": 42.631515,
            "velocity": 0.3937007874015748
          },
          {
            "duration": 0.13157875000000274,
            "durationTicks": 96,
            "midi": 67,
            "name": "G4",
            "ticks": 31296,
            "time": 42.8946725,
            "velocity": 0.3937007874015748
          },
          {
            "duration": 0.13157875000000274,
            "durationTicks": 96,
            "midi": 79,
            "name": "G5",
            "ticks": 31296,
            "time": 42.8946725,
            "velocity": 0.3937007874015748
          },
          {
            "duration": 0.13157874999999564,
            "durationTicks": 96,
            "midi": 66,
            "name": "F#4",
            "ticks": 31392,
            "time": 43.02625125,
            "velocity": 0.3937007874015748
          },
          {
            "duration": 0.13157874999999564,
            "durationTicks": 96,
            "midi": 78,
            "name": "F#5",
            "ticks": 31392,
            "time": 43.02625125,
            "velocity": 0.3937007874015748
          },
          {
            "duration": 0.3947362500000011,
            "durationTicks": 288,
            "midi": 77,
            "name": "F5",
            "ticks": 31488,
            "time": 43.15783,
            "velocity": 0.3937007874015748
          },
          {
            "duration": 0.3947362500000011,
            "durationTicks": 288,
            "midi": 65,
            "name": "F4",
            "ticks": 31488,
            "time": 43.15783,
            "velocity": 0.3937007874015748
          },
          {
            "duration": 0.13157875000000274,
            "durationTicks": 96,
            "midi": 75,
            "name": "D#5",
            "ticks": 31776,
            "time": 43.55256625,
            "velocity": 0.3937007874015748
          },
          {
            "duration": 0.13157875000000274,
            "durationTicks": 96,
            "midi": 63,
            "name": "D#4",
            "ticks": 31776,
            "time": 43.55256625,
            "velocity": 0.3937007874015748
          },
          {
            "duration": 0.5263149999999968,
            "durationTicks": 384,
            "midi": 60,
            "name": "C4",
            "ticks": 31872,
            "time": 43.684145,
            "velocity": 0.3937007874015748
          },
          {
            "duration": 0.5263149999999968,
            "durationTicks": 384,
            "midi": 72,
            "name": "C5",
            "ticks": 31872,
            "time": 43.684145,
            "velocity": 0.3937007874015748
          },
          {
            "duration": 0.2631574999999984,
            "durationTicks": 192,
            "midi": 69,
            "name": "A4",
            "ticks": 32256,
            "time": 44.21046,
            "velocity": 0.3937007874015748
          },
          {
            "duration": 0.2631574999999984,
            "durationTicks": 192,
            "midi": 72,
            "name": "C5",
            "ticks": 32256,
            "time": 44.21046,
            "velocity": 0.3937007874015748
          },
          {
            "duration": 0.2631574999999984,
            "durationTicks": 192,
            "midi": 66,
            "name": "F#4",
            "ticks": 32256,
            "time": 44.21046,
            "velocity": 0.3937007874015748
          },
          {
            "duration": 0.2631574999999984,
            "durationTicks": 192,
            "midi": 57,
            "name": "A3",
            "ticks": 32256,
            "time": 44.21046,
            "velocity": 0.3937007874015748
          },
          {
            "duration": 0.2631574999999984,
            "durationTicks": 192,
            "midi": 78,
            "name": "F#5",
            "ticks": 32256,
            "time": 44.21046,
            "velocity": 0.3937007874015748
          },
          {
            "duration": 0.2631574999999984,
            "durationTicks": 192,
            "midi": 60,
            "name": "C4",
            "ticks": 32256,
            "time": 44.21046,
            "velocity": 0.3937007874015748
          },
          {
            "duration": 0.13157875000000274,
            "durationTicks": 96,
            "midi": 63,
            "name": "D#4",
            "ticks": 32448,
            "time": 44.473617499999996,
            "velocity": 0.3937007874015748
          },
          {
            "duration": 0.13157875000000274,
            "durationTicks": 96,
            "midi": 75,
            "name": "D#5",
            "ticks": 32448,
            "time": 44.473617499999996,
            "velocity": 0.3937007874015748
          },
          {
            "duration": 0.2631574999999984,
            "durationTicks": 192,
            "midi": 66,
            "name": "F#4",
            "ticks": 32544,
            "time": 44.60519625,
            "velocity": 0.3937007874015748
          },
          {
            "duration": 0.2631574999999984,
            "durationTicks": 192,
            "midi": 60,
            "name": "C4",
            "ticks": 32544,
            "time": 44.60519625,
            "velocity": 0.3937007874015748
          },
          {
            "duration": 0.2631574999999984,
            "durationTicks": 192,
            "midi": 78,
            "name": "F#5",
            "ticks": 32544,
            "time": 44.60519625,
            "velocity": 0.3937007874015748
          },
          {
            "duration": 0.2631574999999984,
            "durationTicks": 192,
            "midi": 72,
            "name": "C5",
            "ticks": 32544,
            "time": 44.60519625,
            "velocity": 0.3937007874015748
          },
          {
            "duration": 0.13157875000000274,
            "durationTicks": 96,
            "midi": 63,
            "name": "D#4",
            "ticks": 32736,
            "time": 44.86835375,
            "velocity": 0.3937007874015748
          },
          {
            "duration": 0.13157875000000274,
            "durationTicks": 96,
            "midi": 75,
            "name": "D#5",
            "ticks": 32736,
            "time": 44.86835375,
            "velocity": 0.3937007874015748
          },
          {
            "duration": 0.2631574999999984,
            "durationTicks": 192,
            "midi": 66,
            "name": "F#4",
            "ticks": 32832,
            "time": 44.9999325,
            "velocity": 0.3937007874015748
          },
          {
            "duration": 0.2631574999999984,
            "durationTicks": 192,
            "midi": 78,
            "name": "F#5",
            "ticks": 32832,
            "time": 44.9999325,
            "velocity": 0.3937007874015748
          },
          {
            "duration": 0.2631574999999984,
            "durationTicks": 192,
            "midi": 72,
            "name": "C5",
            "ticks": 32832,
            "time": 44.9999325,
            "velocity": 0.3937007874015748
          },
          {
            "duration": 0.2631574999999984,
            "durationTicks": 192,
            "midi": 57,
            "name": "A3",
            "ticks": 32832,
            "time": 44.9999325,
            "velocity": 0.3937007874015748
          },
          {
            "duration": 0.2631574999999984,
            "durationTicks": 192,
            "midi": 69,
            "name": "A4",
            "ticks": 32832,
            "time": 44.9999325,
            "velocity": 0.3937007874015748
          },
          {
            "duration": 0.2631574999999984,
            "durationTicks": 192,
            "midi": 60,
            "name": "C4",
            "ticks": 32832,
            "time": 44.9999325,
            "velocity": 0.3937007874015748
          },
          {
            "duration": 1.0526300000000006,
            "durationTicks": 768,
            "midi": 71,
            "name": "B4",
            "ticks": 33024,
            "time": 45.26309,
            "velocity": 0.3937007874015748
          },
          {
            "duration": 0.13157875000000274,
            "durationTicks": 96,
            "midi": 79,
            "name": "G5",
            "ticks": 33024,
            "time": 45.26309,
            "velocity": 0.3937007874015748
          },
          {
            "duration": 1.0526300000000006,
            "durationTicks": 768,
            "midi": 59,
            "name": "B3",
            "ticks": 33024,
            "time": 45.26309,
            "velocity": 0.3937007874015748
          },
          {
            "duration": 0.13157875000000274,
            "durationTicks": 96,
            "midi": 67,
            "name": "G4",
            "ticks": 33024,
            "time": 45.26309,
            "velocity": 0.3937007874015748
          },
          {
            "duration": 0.13157874999999564,
            "durationTicks": 96,
            "midi": 79,
            "name": "G5",
            "ticks": 33120,
            "time": 45.39466875,
            "velocity": 0.3937007874015748
          },
          {
            "duration": 0.13157874999999564,
            "durationTicks": 96,
            "midi": 67,
            "name": "G4",
            "ticks": 33120,
            "time": 45.39466875,
            "velocity": 0.3937007874015748
          },
          {
            "duration": 0.13157875000000274,
            "durationTicks": 96,
            "midi": 79,
            "name": "G5",
            "ticks": 33216,
            "time": 45.5262475,
            "velocity": 0.3937007874015748
          },
          {
            "duration": 0.13157875000000274,
            "durationTicks": 96,
            "midi": 67,
            "name": "G4",
            "ticks": 33216,
            "time": 45.5262475,
            "velocity": 0.3937007874015748
          },
          {
            "duration": 0.13157874999999564,
            "durationTicks": 96,
            "midi": 67,
            "name": "G4",
            "ticks": 33312,
            "time": 45.65782625,
            "velocity": 0.3937007874015748
          },
          {
            "duration": 0.13157874999999564,
            "durationTicks": 96,
            "midi": 79,
            "name": "G5",
            "ticks": 33312,
            "time": 45.65782625,
            "velocity": 0.3937007874015748
          },
          {
            "duration": 0.2631575000000055,
            "durationTicks": 192,
            "midi": 77,
            "name": "F5",
            "ticks": 33408,
            "time": 45.789404999999995,
            "velocity": 0.3937007874015748
          },
          {
            "duration": 0.2631575000000055,
            "durationTicks": 192,
            "midi": 65,
            "name": "F4",
            "ticks": 33408,
            "time": 45.789404999999995,
            "velocity": 0.3937007874015748
          },
          {
            "duration": 0.2631574999999984,
            "durationTicks": 192,
            "midi": 75,
            "name": "D#5",
            "ticks": 33600,
            "time": 46.0525625,
            "velocity": 0.3937007874015748
          },
          {
            "duration": 0.2631574999999984,
            "durationTicks": 192,
            "midi": 63,
            "name": "D#4",
            "ticks": 33600,
            "time": 46.0525625,
            "velocity": 0.3937007874015748
          },
          {
            "duration": 0.13157875000000274,
            "durationTicks": 96,
            "midi": 58,
            "name": "A#3",
            "ticks": 33984,
            "time": 46.5788775,
            "velocity": 0.3937007874015748
          },
          {
            "duration": 0.13157875000000274,
            "durationTicks": 96,
            "midi": 70,
            "name": "A#4",
            "ticks": 33984,
            "time": 46.5788775,
            "velocity": 0.3937007874015748
          },
          {
            "duration": 0.13157874999999564,
            "durationTicks": 96,
            "midi": 60,
            "name": "C4",
            "ticks": 34080,
            "time": 46.71045625,
            "velocity": 0.3937007874015748
          },
          {
            "duration": 0.13157874999999564,
            "durationTicks": 96,
            "midi": 72,
            "name": "C5",
            "ticks": 34080,
            "time": 46.71045625,
            "velocity": 0.3937007874015748
          },
          {
            "duration": 0.2631575000000055,
            "durationTicks": 192,
            "midi": 75,
            "name": "D#5",
            "ticks": 34176,
            "time": 46.842034999999996,
            "velocity": 0.3937007874015748
          },
          {
            "duration": 0.2631575000000055,
            "durationTicks": 192,
            "midi": 63,
            "name": "D#4",
            "ticks": 34176,
            "time": 46.842034999999996,
            "velocity": 0.3937007874015748
          },
          {
            "duration": 0.2631574999999984,
            "durationTicks": 192,
            "midi": 65,
            "name": "F4",
            "ticks": 34368,
            "time": 47.1051925,
            "velocity": 0.3937007874015748
          },
          {
            "duration": 0.2631574999999984,
            "durationTicks": 192,
            "midi": 77,
            "name": "F5",
            "ticks": 34368,
            "time": 47.1051925,
            "velocity": 0.3937007874015748
          },
          {
            "duration": 0.06578937500000137,
            "durationTicks": 48,
            "midi": 75,
            "name": "D#5",
            "ticks": 34560,
            "time": 47.36835,
            "velocity": 0.3937007874015748
          },
          {
            "duration": 0.06578937500000137,
            "durationTicks": 48,
            "midi": 63,
            "name": "D#4",
            "ticks": 34560,
            "time": 47.36835,
            "velocity": 0.3937007874015748
          },
          {
            "duration": 0.03289468750000424,
            "durationTicks": 24,
            "midi": 63,
            "name": "D#4",
            "ticks": 34656,
            "time": 47.499928749999995,
            "velocity": 0.3937007874015748
          },
          {
            "duration": 0.03289468750000424,
            "durationTicks": 24,
            "midi": 75,
            "name": "D#5",
            "ticks": 34656,
            "time": 47.499928749999995,
            "velocity": 0.3937007874015748
          },
          {
            "duration": 0.03289468750000424,
            "durationTicks": 24,
            "midi": 63,
            "name": "D#4",
            "ticks": 34704,
            "time": 47.565718125,
            "velocity": 0.3937007874015748
          },
          {
            "duration": 0.03289468750000424,
            "durationTicks": 24,
            "midi": 75,
            "name": "D#5",
            "ticks": 34704,
            "time": 47.565718125,
            "velocity": 0.3937007874015748
          },
          {
            "duration": 0.13157875000000274,
            "durationTicks": 96,
            "midi": 75,
            "name": "D#5",
            "ticks": 34752,
            "time": 47.6315075,
            "velocity": 0.3937007874015748
          },
          {
            "duration": 0.13157875000000274,
            "durationTicks": 96,
            "midi": 63,
            "name": "D#4",
            "ticks": 34752,
            "time": 47.6315075,
            "velocity": 0.3937007874015748
          },
          {
            "duration": 0.1973681250000041,
            "durationTicks": 144,
            "midi": 63,
            "name": "D#4",
            "ticks": 34944,
            "time": 47.894664999999996,
            "velocity": 0.3937007874015748
          },
          {
            "duration": 0.1973681250000041,
            "durationTicks": 144,
            "midi": 75,
            "name": "D#5",
            "ticks": 34944,
            "time": 47.894664999999996,
            "velocity": 0.3937007874015748
          },
          {
            "duration": 0.3947362500000011,
            "durationTicks": 288,
            "midi": 79,
            "name": "G5",
            "ticks": 35328,
            "time": 48.42098,
            "velocity": 0.3937007874015748
          },
          {
            "duration": 0.3947362500000011,
            "durationTicks": 288,
            "midi": 67,
            "name": "G4",
            "ticks": 35328,
            "time": 48.42098,
            "velocity": 0.3937007874015748
          },
          {
            "duration": 0.3947362500000011,
            "durationTicks": 288,
            "midi": 79,
            "name": "G5",
            "ticks": 35712,
            "time": 48.947295,
            "velocity": 0.3937007874015748
          },
          {
            "duration": 0.3947362500000011,
            "durationTicks": 288,
            "midi": 67,
            "name": "G4",
            "ticks": 35712,
            "time": 48.947295,
            "velocity": 0.3937007874015748
          },
          {
            "duration": 0.394736249999994,
            "durationTicks": 288,
            "midi": 70,
            "name": "A#4",
            "ticks": 36096,
            "time": 49.47361,
            "velocity": 0.3937007874015748
          },
          {
            "duration": 0.394736249999994,
            "durationTicks": 288,
            "midi": 82,
            "name": "A#5",
            "ticks": 36096,
            "time": 49.47361,
            "velocity": 0.3937007874015748
          },
          {
            "duration": 0.3947362500000011,
            "durationTicks": 288,
            "midi": 84,
            "name": "C6",
            "ticks": 36480,
            "time": 49.999925,
            "velocity": 0.3937007874015748
          },
          {
            "duration": 0.3947362500000011,
            "durationTicks": 288,
            "midi": 72,
            "name": "C5",
            "ticks": 36480,
            "time": 49.999925,
            "velocity": 0.3937007874015748
          },
          {
            "duration": 0.2631575000000055,
            "durationTicks": 192,
            "midi": 43,
            "name": "G2",
            "ticks": 92160,
            "time": 126.31559999999999,
            "velocity": 0.3937007874015748
          },
          {
            "duration": 0.2631575000000055,
            "durationTicks": 192,
            "midi": 42,
            "name": "F#2",
            "ticks": 92352,
            "time": 126.5787575,
            "velocity": 0.3937007874015748
          },
          {
            "duration": 0.2631574999999913,
            "durationTicks": 192,
            "midi": 41,
            "name": "F2",
            "ticks": 92544,
            "time": 126.841915,
            "velocity": 0.3937007874015748
          },
          {
            "duration": 0.2631575000000055,
            "durationTicks": 192,
            "midi": 42,
            "name": "F#2",
            "ticks": 92736,
            "time": 127.10507249999999,
            "velocity": 0.3937007874015748
          },
          {
            "duration": 0.2631574999999913,
            "durationTicks": 192,
            "midi": 43,
            "name": "G2",
            "ticks": 92928,
            "time": 127.36823,
            "velocity": 0.3937007874015748
          },
          {
            "duration": 0.2631575000000055,
            "durationTicks": 192,
            "midi": 42,
            "name": "F#2",
            "ticks": 93120,
            "time": 127.63138749999999,
            "velocity": 0.3937007874015748
          },
          {
            "duration": 0.2631575000000055,
            "durationTicks": 192,
            "midi": 41,
            "name": "F2",
            "ticks": 93312,
            "time": 127.894545,
            "velocity": 0.3937007874015748
          },
          {
            "duration": 0.2631575000000055,
            "durationTicks": 192,
            "midi": 42,
            "name": "F#2",
            "ticks": 93504,
            "time": 128.1577025,
            "velocity": 0.3937007874015748
          },
          {
            "duration": 0.394736249999994,
            "durationTicks": 288,
            "midi": 39,
            "name": "D#2",
            "ticks": 93696,
            "time": 128.42086,
            "velocity": 0.3937007874015748
          },
          {
            "duration": 0.2631575000000055,
            "durationTicks": 192,
            "midi": 36,
            "name": "C2",
            "ticks": 94080,
            "time": 128.947175,
            "velocity": 0.3937007874015748
          },
          {
            "duration": 0.2631575000000055,
            "durationTicks": 192,
            "midi": 39,
            "name": "D#2",
            "ticks": 94272,
            "time": 129.2103325,
            "velocity": 0.3937007874015748
          },
          {
            "duration": 0.2631575000000055,
            "durationTicks": 192,
            "midi": 43,
            "name": "G2",
            "ticks": 94464,
            "time": 129.47349,
            "velocity": 0.3937007874015748
          },
          {
            "duration": 0.26315749999997706,
            "durationTicks": 192,
            "midi": 42,
            "name": "F#2",
            "ticks": 94656,
            "time": 129.7366475,
            "velocity": 0.3937007874015748
          },
          {
            "duration": 0.2631575000000055,
            "durationTicks": 192,
            "midi": 41,
            "name": "F2",
            "ticks": 94848,
            "time": 129.99980499999998,
            "velocity": 0.3937007874015748
          },
          {
            "duration": 0.2631575000000055,
            "durationTicks": 192,
            "midi": 42,
            "name": "F#2",
            "ticks": 95040,
            "time": 130.2629625,
            "velocity": 0.3937007874015748
          },
          {
            "duration": 0.2631575000000055,
            "durationTicks": 192,
            "midi": 43,
            "name": "G2",
            "ticks": 95232,
            "time": 130.52612,
            "velocity": 0.3937007874015748
          },
          {
            "duration": 0.2631575000000055,
            "durationTicks": 192,
            "midi": 42,
            "name": "F#2",
            "ticks": 95424,
            "time": 130.7892775,
            "velocity": 0.3937007874015748
          },
          {
            "duration": 0.2631575000000055,
            "durationTicks": 192,
            "midi": 41,
            "name": "F2",
            "ticks": 95616,
            "time": 131.052435,
            "velocity": 0.3937007874015748
          },
          {
            "duration": 0.26315749999997706,
            "durationTicks": 192,
            "midi": 42,
            "name": "F#2",
            "ticks": 95808,
            "time": 131.3155925,
            "velocity": 0.3937007874015748
          },
          {
            "duration": 0.2631575000000055,
            "durationTicks": 192,
            "midi": 43,
            "name": "G2",
            "ticks": 96000,
            "time": 131.57874999999999,
            "velocity": 0.3937007874015748
          },
          {
            "duration": 0.2631575000000055,
            "durationTicks": 192,
            "midi": 42,
            "name": "F#2",
            "ticks": 96192,
            "time": 131.8419075,
            "velocity": 0.3937007874015748
          },
          {
            "duration": 0.2631575000000055,
            "durationTicks": 192,
            "midi": 41,
            "name": "F2",
            "ticks": 96384,
            "time": 132.105065,
            "velocity": 0.3937007874015748
          },
          {
            "duration": 0.2631575000000055,
            "durationTicks": 192,
            "midi": 42,
            "name": "F#2",
            "ticks": 96576,
            "time": 132.3682225,
            "velocity": 0.3937007874015748
          },
          {
            "duration": 0.394736249999994,
            "durationTicks": 288,
            "midi": 39,
            "name": "D#2",
            "ticks": 96768,
            "time": 132.63138,
            "velocity": 0.3937007874015748
          },
          {
            "duration": 0.2631575000000055,
            "durationTicks": 192,
            "midi": 36,
            "name": "C2",
            "ticks": 97152,
            "time": 133.157695,
            "velocity": 0.3937007874015748
          },
          {
            "duration": 0.2631575000000055,
            "durationTicks": 192,
            "midi": 39,
            "name": "D#2",
            "ticks": 97344,
            "time": 133.4208525,
            "velocity": 0.3937007874015748
          },
          {
            "duration": 0.2631575000000055,
            "durationTicks": 192,
            "midi": 43,
            "name": "G2",
            "ticks": 97536,
            "time": 133.68401,
            "velocity": 0.3937007874015748
          },
          {
            "duration": 0.26315749999997706,
            "durationTicks": 192,
            "midi": 42,
            "name": "F#2",
            "ticks": 97728,
            "time": 133.9471675,
            "velocity": 0.3937007874015748
          },
          {
            "duration": 0.2631575000000055,
            "durationTicks": 192,
            "midi": 41,
            "name": "F2",
            "ticks": 97920,
            "time": 134.21032499999998,
            "velocity": 0.3937007874015748
          },
          {
            "duration": 0.2631575000000055,
            "durationTicks": 192,
            "midi": 42,
            "name": "F#2",
            "ticks": 98112,
            "time": 134.4734825,
            "velocity": 0.3937007874015748
          },
          {
            "duration": 0.2631575000000055,
            "durationTicks": 192,
            "midi": 36,
            "name": "C2",
            "ticks": 98304,
            "time": 134.73664,
            "velocity": 0.3937007874015748
          },
          {
            "duration": 0.2631575000000055,
            "durationTicks": 192,
            "midi": 35,
            "name": "B1",
            "ticks": 98496,
            "time": 134.9997975,
            "velocity": 0.3937007874015748
          },
          {
            "duration": 0.26315749999997706,
            "durationTicks": 192,
            "midi": 34,
            "name": "A#1",
            "ticks": 98688,
            "time": 135.262955,
            "velocity": 0.3937007874015748
          },
          {
            "duration": 0.2631575000000055,
            "durationTicks": 192,
            "midi": 35,
            "name": "B1",
            "ticks": 98880,
            "time": 135.52611249999998,
            "velocity": 0.3937007874015748
          },
          {
            "duration": 0.2631575000000055,
            "durationTicks": 192,
            "midi": 36,
            "name": "C2",
            "ticks": 99072,
            "time": 135.78927,
            "velocity": 0.3937007874015748
          },
          {
            "duration": 0.2631575000000055,
            "durationTicks": 192,
            "midi": 35,
            "name": "B1",
            "ticks": 99264,
            "time": 136.0524275,
            "velocity": 0.3937007874015748
          },
          {
            "duration": 0.2631575000000055,
            "durationTicks": 192,
            "midi": 34,
            "name": "A#1",
            "ticks": 99456,
            "time": 136.315585,
            "velocity": 0.3937007874015748
          },
          {
            "duration": 0.26315749999997706,
            "durationTicks": 192,
            "midi": 35,
            "name": "B1",
            "ticks": 99648,
            "time": 136.5787425,
            "velocity": 0.3937007874015748
          },
          {
            "duration": 0.2631575000000055,
            "durationTicks": 192,
            "midi": 36,
            "name": "C2",
            "ticks": 99840,
            "time": 136.84189999999998,
            "velocity": 0.3937007874015748
          },
          {
            "duration": 0.2631575000000055,
            "durationTicks": 192,
            "midi": 35,
            "name": "B1",
            "ticks": 100032,
            "time": 137.1050575,
            "velocity": 0.3937007874015748
          },
          {
            "duration": 0.2631575000000055,
            "durationTicks": 192,
            "midi": 34,
            "name": "A#1",
            "ticks": 100224,
            "time": 137.368215,
            "velocity": 0.3937007874015748
          },
          {
            "duration": 0.2631575000000055,
            "durationTicks": 192,
            "midi": 35,
            "name": "B1",
            "ticks": 100416,
            "time": 137.6313725,
            "velocity": 0.3937007874015748
          },
          {
            "duration": 0.26315749999997706,
            "durationTicks": 192,
            "midi": 36,
            "name": "C2",
            "ticks": 100608,
            "time": 137.89453,
            "velocity": 0.3937007874015748
          },
          {
            "duration": 0.2631575000000055,
            "durationTicks": 192,
            "midi": 37,
            "name": "C#2",
            "ticks": 100800,
            "time": 138.15768749999998,
            "velocity": 0.3937007874015748
          },
          {
            "duration": 0.2631575000000055,
            "durationTicks": 192,
            "midi": 38,
            "name": "D2",
            "ticks": 100992,
            "time": 138.42084499999999,
            "velocity": 0.3937007874015748
          },
          {
            "duration": 0.2631575000000055,
            "durationTicks": 192,
            "midi": 39,
            "name": "D#2",
            "ticks": 101184,
            "time": 138.6840025,
            "velocity": 0.3937007874015748
          },
          {
            "duration": 0.2631575000000055,
            "durationTicks": 192,
            "midi": 43,
            "name": "G2",
            "ticks": 101376,
            "time": 138.94716,
            "velocity": 0.3937007874015748
          },
          {
            "duration": 0.2631575000000055,
            "durationTicks": 192,
            "midi": 42,
            "name": "F#2",
            "ticks": 101568,
            "time": 139.2103175,
            "velocity": 0.3937007874015748
          },
          {
            "duration": 0.26315749999997706,
            "durationTicks": 192,
            "midi": 41,
            "name": "F2",
            "ticks": 101760,
            "time": 139.473475,
            "velocity": 0.3937007874015748
          },
          {
            "duration": 0.2631575000000055,
            "durationTicks": 192,
            "midi": 42,
            "name": "F#2",
            "ticks": 101952,
            "time": 139.73663249999998,
            "velocity": 0.3937007874015748
          },
          {
            "duration": 0.2631575000000055,
            "durationTicks": 192,
            "midi": 43,
            "name": "G2",
            "ticks": 102144,
            "time": 139.99979,
            "velocity": 0.3937007874015748
          },
          {
            "duration": 0.2631575000000055,
            "durationTicks": 192,
            "midi": 42,
            "name": "F#2",
            "ticks": 102336,
            "time": 140.2629475,
            "velocity": 0.3937007874015748
          },
          {
            "duration": 0.2631575000000055,
            "durationTicks": 192,
            "midi": 41,
            "name": "F2",
            "ticks": 102528,
            "time": 140.526105,
            "velocity": 0.3937007874015748
          },
          {
            "duration": 0.26315749999997706,
            "durationTicks": 192,
            "midi": 42,
            "name": "F#2",
            "ticks": 102720,
            "time": 140.7892625,
            "velocity": 0.3937007874015748
          },
          {
            "duration": 0.39473625000002244,
            "durationTicks": 288,
            "midi": 39,
            "name": "D#2",
            "ticks": 102912,
            "time": 141.05241999999998,
            "velocity": 0.3937007874015748
          },
          {
            "duration": 0.394736249999994,
            "durationTicks": 288,
            "midi": 36,
            "name": "C2",
            "ticks": 103296,
            "time": 141.578735,
            "velocity": 0.3937007874015748
          },
          {
            "duration": 1.0526299999999935,
            "durationTicks": 768,
            "midi": 35,
            "name": "B1",
            "ticks": 103680,
            "time": 142.10505,
            "velocity": 0.3937007874015748
          },
          {
            "duration": 0.13157874999998853,
            "durationTicks": 96,
            "midi": 36,
            "name": "C2",
            "ticks": 104448,
            "time": 143.15768,
            "velocity": 0.3937007874015748
          },
          {
            "duration": 0.13157875000001695,
            "durationTicks": 96,
            "midi": 36,
            "name": "C2",
            "ticks": 104832,
            "time": 143.68399499999998,
            "velocity": 0.3937007874015748
          },
          {
            "duration": 0.13157874999998853,
            "durationTicks": 96,
            "midi": 39,
            "name": "D#2",
            "ticks": 105216,
            "time": 144.21031,
            "velocity": 0.3937007874015748
          },
          {
            "duration": 0.13157874999998853,
            "durationTicks": 96,
            "midi": 39,
            "name": "D#2",
            "ticks": 105600,
            "time": 144.736625,
            "velocity": 0.3937007874015748
          },
          {
            "duration": 0.13157875000001695,
            "durationTicks": 96,
            "midi": 32,
            "name": "G#1",
            "ticks": 105984,
            "time": 145.26294,
            "velocity": 0.3937007874015748
          },
          {
            "duration": 0.13157874999998853,
            "durationTicks": 96,
            "midi": 32,
            "name": "G#1",
            "ticks": 106368,
            "time": 145.789255,
            "velocity": 0.3937007874015748
          },
          {
            "duration": 0.13157875000001695,
            "durationTicks": 96,
            "midi": 31,
            "name": "G1",
            "ticks": 106752,
            "time": 146.31556999999998,
            "velocity": 0.3937007874015748
          },
          {
            "duration": 0.13157875000001695,
            "durationTicks": 96,
            "midi": 31,
            "name": "G1",
            "ticks": 107136,
            "time": 146.841885,
            "velocity": 0.3937007874015748
          },
          {
            "duration": 0.13157874999998853,
            "durationTicks": 96,
            "midi": 36,
            "name": "C2",
            "ticks": 107520,
            "time": 147.3682,
            "velocity": 0.3937007874015748
          },
          {
            "duration": 0.13157875000001695,
            "durationTicks": 96,
            "midi": 36,
            "name": "C2",
            "ticks": 107904,
            "time": 147.89451499999998,
            "velocity": 0.3937007874015748
          },
          {
            "duration": 0.13157874999998853,
            "durationTicks": 96,
            "midi": 39,
            "name": "D#2",
            "ticks": 108288,
            "time": 148.42083,
            "velocity": 0.3937007874015748
          },
          {
            "duration": 0.13157874999998853,
            "durationTicks": 96,
            "midi": 39,
            "name": "D#2",
            "ticks": 108672,
            "time": 148.947145,
            "velocity": 0.3937007874015748
          },
          {
            "duration": 0.13157875000001695,
            "durationTicks": 96,
            "midi": 32,
            "name": "G#1",
            "ticks": 109056,
            "time": 149.47346,
            "velocity": 0.3937007874015748
          },
          {
            "duration": 0.13157874999998853,
            "durationTicks": 96,
            "midi": 32,
            "name": "G#1",
            "ticks": 109440,
            "time": 149.999775,
            "velocity": 0.3937007874015748
          },
          {
            "duration": 0.13157875000001695,
            "durationTicks": 96,
            "midi": 31,
            "name": "G1",
            "ticks": 109824,
            "time": 150.52608999999998,
            "velocity": 0.3937007874015748
          },
          {
            "duration": 0.13157874999998853,
            "durationTicks": 96,
            "midi": 31,
            "name": "G1",
            "ticks": 110208,
            "time": 151.052405,
            "velocity": 0.3937007874015748
          }
        ],
        "endOfTrackTicks": 110304
      },
      {
        "channel": 6,
        "controlChanges": {},
        "pitchBends": [],
        "instrument": {
          "family": "synth effects",
          "number": 99,
          "name": "fx 4 (atmosphere)"
        },
        "name": "Scifi",
        "notes": [
          {
            "duration": 0.2631575000000055,
            "durationTicks": 192,
            "midi": 51,
            "name": "D#3",
            "ticks": 80256,
            "time": 109.99983499999999,
            "velocity": 0.3937007874015748
          },
          {
            "duration": 0.2631575000000055,
            "durationTicks": 192,
            "midi": 63,
            "name": "D#4",
            "ticks": 80256,
            "time": 109.99983499999999,
            "velocity": 0.3937007874015748
          },
          {
            "duration": 0.2631575000000055,
            "durationTicks": 192,
            "midi": 60,
            "name": "C4",
            "ticks": 80448,
            "time": 110.2629925,
            "velocity": 0.3937007874015748
          },
          {
            "duration": 0.2631575000000055,
            "durationTicks": 192,
            "midi": 48,
            "name": "C3",
            "ticks": 80448,
            "time": 110.2629925,
            "velocity": 0.3937007874015748
          },
          {
            "duration": 0.2631574999999913,
            "durationTicks": 192,
            "midi": 53,
            "name": "F3",
            "ticks": 80640,
            "time": 110.52615,
            "velocity": 0.3937007874015748
          },
          {
            "duration": 0.2631574999999913,
            "durationTicks": 192,
            "midi": 65,
            "name": "F4",
            "ticks": 80640,
            "time": 110.52615,
            "velocity": 0.3937007874015748
          },
          {
            "duration": 0.13157875000000274,
            "durationTicks": 96,
            "midi": 51,
            "name": "D#3",
            "ticks": 80832,
            "time": 110.78930749999999,
            "velocity": 0.3937007874015748
          },
          {
            "duration": 0.13157875000000274,
            "durationTicks": 96,
            "midi": 63,
            "name": "D#4",
            "ticks": 80832,
            "time": 110.78930749999999,
            "velocity": 0.3937007874015748
          },
          {
            "duration": 0.2631575000000055,
            "durationTicks": 192,
            "midi": 53,
            "name": "F3",
            "ticks": 80928,
            "time": 110.92088625,
            "velocity": 0.3937007874015748
          },
          {
            "duration": 0.2631575000000055,
            "durationTicks": 192,
            "midi": 65,
            "name": "F4",
            "ticks": 80928,
            "time": 110.92088625,
            "velocity": 0.3937007874015748
          },
          {
            "duration": 0.13157874999998853,
            "durationTicks": 96,
            "midi": 67,
            "name": "G4",
            "ticks": 81120,
            "time": 111.18404375,
            "velocity": 0.3937007874015748
          },
          {
            "duration": 0.13157874999998853,
            "durationTicks": 96,
            "midi": 55,
            "name": "G3",
            "ticks": 81120,
            "time": 111.18404375,
            "velocity": 0.3937007874015748
          },
          {
            "duration": 0.526315000000011,
            "durationTicks": 384,
            "midi": 51,
            "name": "D#3",
            "ticks": 81216,
            "time": 111.31562249999999,
            "velocity": 0.3937007874015748
          },
          {
            "duration": 0.526315000000011,
            "durationTicks": 384,
            "midi": 63,
            "name": "D#4",
            "ticks": 81216,
            "time": 111.31562249999999,
            "velocity": 0.3937007874015748
          },
          {
            "duration": 0.2631575000000055,
            "durationTicks": 192,
            "midi": 65,
            "name": "F4",
            "ticks": 81792,
            "time": 112.10509499999999,
            "velocity": 0.3937007874015748
          },
          {
            "duration": 0.2631575000000055,
            "durationTicks": 192,
            "midi": 53,
            "name": "F3",
            "ticks": 81792,
            "time": 112.10509499999999,
            "velocity": 0.3937007874015748
          },
          {
            "duration": 0.394736249999994,
            "durationTicks": 288,
            "midi": 51,
            "name": "D#3",
            "ticks": 81984,
            "time": 112.3682525,
            "velocity": 0.3937007874015748
          },
          {
            "duration": 0.394736249999994,
            "durationTicks": 288,
            "midi": 63,
            "name": "D#4",
            "ticks": 81984,
            "time": 112.3682525,
            "velocity": 0.3937007874015748
          },
          {
            "duration": 0.2631574999999913,
            "durationTicks": 192,
            "midi": 55,
            "name": "G3",
            "ticks": 82560,
            "time": 113.157725,
            "velocity": 0.3937007874015748
          },
          {
            "duration": 0.2631574999999913,
            "durationTicks": 192,
            "midi": 67,
            "name": "G4",
            "ticks": 82560,
            "time": 113.157725,
            "velocity": 0.3937007874015748
          },
          {
            "duration": 0.3947362500000082,
            "durationTicks": 288,
            "midi": 51,
            "name": "D#3",
            "ticks": 82752,
            "time": 113.42088249999999,
            "velocity": 0.3937007874015748
          },
          {
            "duration": 0.3947362500000082,
            "durationTicks": 288,
            "midi": 63,
            "name": "D#4",
            "ticks": 82752,
            "time": 113.42088249999999,
            "velocity": 0.3937007874015748
          },
          {
            "duration": 0.2631575000000055,
            "durationTicks": 192,
            "midi": 51,
            "name": "D#3",
            "ticks": 83328,
            "time": 114.21035499999999,
            "velocity": 0.3937007874015748
          },
          {
            "duration": 0.2631575000000055,
            "durationTicks": 192,
            "midi": 63,
            "name": "D#4",
            "ticks": 83328,
            "time": 114.21035499999999,
            "velocity": 0.3937007874015748
          },
          {
            "duration": 0.2631574999999913,
            "durationTicks": 192,
            "midi": 48,
            "name": "C3",
            "ticks": 83520,
            "time": 114.4735125,
            "velocity": 0.3937007874015748
          },
          {
            "duration": 0.2631574999999913,
            "durationTicks": 192,
            "midi": 60,
            "name": "C4",
            "ticks": 83520,
            "time": 114.4735125,
            "velocity": 0.3937007874015748
          },
          {
            "duration": 0.2631575000000055,
            "durationTicks": 192,
            "midi": 53,
            "name": "F3",
            "ticks": 83712,
            "time": 114.73666999999999,
            "velocity": 0.3937007874015748
          },
          {
            "duration": 0.2631575000000055,
            "durationTicks": 192,
            "midi": 65,
            "name": "F4",
            "ticks": 83712,
            "time": 114.73666999999999,
            "velocity": 0.3937007874015748
          },
          {
            "duration": 0.13157875000000274,
            "durationTicks": 96,
            "midi": 51,
            "name": "D#3",
            "ticks": 83904,
            "time": 114.9998275,
            "velocity": 0.3937007874015748
          },
          {
            "duration": 0.13157875000000274,
            "durationTicks": 96,
            "midi": 63,
            "name": "D#4",
            "ticks": 83904,
            "time": 114.9998275,
            "velocity": 0.3937007874015748
          },
          {
            "duration": 0.2631574999999913,
            "durationTicks": 192,
            "midi": 53,
            "name": "F3",
            "ticks": 84000,
            "time": 115.13140625,
            "velocity": 0.3937007874015748
          },
          {
            "duration": 0.2631574999999913,
            "durationTicks": 192,
            "midi": 65,
            "name": "F4",
            "ticks": 84000,
            "time": 115.13140625,
            "velocity": 0.3937007874015748
          },
          {
            "duration": 0.13157875000000274,
            "durationTicks": 96,
            "midi": 55,
            "name": "G3",
            "ticks": 84192,
            "time": 115.39456374999999,
            "velocity": 0.3937007874015748
          },
          {
            "duration": 0.13157875000000274,
            "durationTicks": 96,
            "midi": 67,
            "name": "G4",
            "ticks": 84192,
            "time": 115.39456374999999,
            "velocity": 0.3937007874015748
          },
          {
            "duration": 0.5263149999999968,
            "durationTicks": 384,
            "midi": 63,
            "name": "D#4",
            "ticks": 84288,
            "time": 115.52614249999999,
            "velocity": 0.3937007874015748
          },
          {
            "duration": 0.5263149999999968,
            "durationTicks": 384,
            "midi": 51,
            "name": "D#3",
            "ticks": 84288,
            "time": 115.52614249999999,
            "velocity": 0.3937007874015748
          },
          {
            "duration": 0.2631575000000055,
            "durationTicks": 192,
            "midi": 65,
            "name": "F4",
            "ticks": 84864,
            "time": 116.315615,
            "velocity": 0.3937007874015748
          },
          {
            "duration": 0.2631575000000055,
            "durationTicks": 192,
            "midi": 53,
            "name": "F3",
            "ticks": 84864,
            "time": 116.315615,
            "velocity": 0.3937007874015748
          },
          {
            "duration": 0.394736249999994,
            "durationTicks": 288,
            "midi": 63,
            "name": "D#4",
            "ticks": 85056,
            "time": 116.5787725,
            "velocity": 0.3937007874015748
          },
          {
            "duration": 0.394736249999994,
            "durationTicks": 288,
            "midi": 51,
            "name": "D#3",
            "ticks": 85056,
            "time": 116.5787725,
            "velocity": 0.3937007874015748
          },
          {
            "duration": 0.2631574999999913,
            "durationTicks": 192,
            "midi": 55,
            "name": "G3",
            "ticks": 85632,
            "time": 117.368245,
            "velocity": 0.3937007874015748
          },
          {
            "duration": 0.2631574999999913,
            "durationTicks": 192,
            "midi": 67,
            "name": "G4",
            "ticks": 85632,
            "time": 117.368245,
            "velocity": 0.3937007874015748
          },
          {
            "duration": 0.3947362500000082,
            "durationTicks": 288,
            "midi": 51,
            "name": "D#3",
            "ticks": 85824,
            "time": 117.6314025,
            "velocity": 0.3937007874015748
          },
          {
            "duration": 0.3947362500000082,
            "durationTicks": 288,
            "midi": 63,
            "name": "D#4",
            "ticks": 85824,
            "time": 117.6314025,
            "velocity": 0.3937007874015748
          },
          {
            "duration": 0.2631575000000055,
            "durationTicks": 192,
            "midi": 51,
            "name": "D#3",
            "ticks": 86400,
            "time": 118.420875,
            "velocity": 0.3937007874015748
          },
          {
            "duration": 0.2631575000000055,
            "durationTicks": 192,
            "midi": 63,
            "name": "D#4",
            "ticks": 86400,
            "time": 118.420875,
            "velocity": 0.3937007874015748
          },
          {
            "duration": 0.2631574999999913,
            "durationTicks": 192,
            "midi": 60,
            "name": "C4",
            "ticks": 86592,
            "time": 118.6840325,
            "velocity": 0.3937007874015748
          },
          {
            "duration": 0.2631574999999913,
            "durationTicks": 192,
            "midi": 48,
            "name": "C3",
            "ticks": 86592,
            "time": 118.6840325,
            "velocity": 0.3937007874015748
          },
          {
            "duration": 0.2631575000000055,
            "durationTicks": 192,
            "midi": 65,
            "name": "F4",
            "ticks": 86784,
            "time": 118.94718999999999,
            "velocity": 0.3937007874015748
          },
          {
            "duration": 0.2631575000000055,
            "durationTicks": 192,
            "midi": 53,
            "name": "F3",
            "ticks": 86784,
            "time": 118.94718999999999,
            "velocity": 0.3937007874015748
          },
          {
            "duration": 0.13157875000000274,
            "durationTicks": 96,
            "midi": 51,
            "name": "D#3",
            "ticks": 86976,
            "time": 119.2103475,
            "velocity": 0.3937007874015748
          },
          {
            "duration": 0.13157875000000274,
            "durationTicks": 96,
            "midi": 63,
            "name": "D#4",
            "ticks": 86976,
            "time": 119.2103475,
            "velocity": 0.3937007874015748
          },
          {
            "duration": 0.2631574999999913,
            "durationTicks": 192,
            "midi": 65,
            "name": "F4",
            "ticks": 87072,
            "time": 119.34192625,
            "velocity": 0.3937007874015748
          },
          {
            "duration": 0.2631574999999913,
            "durationTicks": 192,
            "midi": 53,
            "name": "F3",
            "ticks": 87072,
            "time": 119.34192625,
            "velocity": 0.3937007874015748
          },
          {
            "duration": 0.13157875000000274,
            "durationTicks": 96,
            "midi": 67,
            "name": "G4",
            "ticks": 87264,
            "time": 119.60508374999999,
            "velocity": 0.3937007874015748
          },
          {
            "duration": 0.13157875000000274,
            "durationTicks": 96,
            "midi": 55,
            "name": "G3",
            "ticks": 87264,
            "time": 119.60508374999999,
            "velocity": 0.3937007874015748
          },
          {
            "duration": 0.5263149999999968,
            "durationTicks": 384,
            "midi": 63,
            "name": "D#4",
            "ticks": 87360,
            "time": 119.7366625,
            "velocity": 0.3937007874015748
          },
          {
            "duration": 0.5263149999999968,
            "durationTicks": 384,
            "midi": 51,
            "name": "D#3",
            "ticks": 87360,
            "time": 119.7366625,
            "velocity": 0.3937007874015748
          },
          {
            "duration": 0.2631574999999913,
            "durationTicks": 192,
            "midi": 51,
            "name": "D#3",
            "ticks": 87936,
            "time": 120.526135,
            "velocity": 0.3937007874015748
          },
          {
            "duration": 0.2631574999999913,
            "durationTicks": 192,
            "midi": 63,
            "name": "D#4",
            "ticks": 87936,
            "time": 120.526135,
            "velocity": 0.3937007874015748
          },
          {
            "duration": 0.2631575000000055,
            "durationTicks": 192,
            "midi": 60,
            "name": "C4",
            "ticks": 88128,
            "time": 120.78929249999999,
            "velocity": 0.3937007874015748
          },
          {
            "duration": 0.2631575000000055,
            "durationTicks": 192,
            "midi": 48,
            "name": "C3",
            "ticks": 88128,
            "time": 120.78929249999999,
            "velocity": 0.3937007874015748
          },
          {
            "duration": 0.2631575000000055,
            "durationTicks": 192,
            "midi": 63,
            "name": "D#4",
            "ticks": 88320,
            "time": 121.05245,
            "velocity": 0.3937007874015748
          },
          {
            "duration": 0.2631575000000055,
            "durationTicks": 192,
            "midi": 51,
            "name": "D#3",
            "ticks": 88320,
            "time": 121.05245,
            "velocity": 0.3937007874015748
          },
          {
            "duration": 0.13157875000000274,
            "durationTicks": 96,
            "midi": 60,
            "name": "C4",
            "ticks": 88512,
            "time": 121.3156075,
            "velocity": 0.3937007874015748
          },
          {
            "duration": 0.13157875000000274,
            "durationTicks": 96,
            "midi": 48,
            "name": "C3",
            "ticks": 88512,
            "time": 121.3156075,
            "velocity": 0.3937007874015748
          },
          {
            "duration": 0.2631574999999913,
            "durationTicks": 192,
            "midi": 63,
            "name": "D#4",
            "ticks": 88608,
            "time": 121.44718625,
            "velocity": 0.3937007874015748
          },
          {
            "duration": 0.2631574999999913,
            "durationTicks": 192,
            "midi": 51,
            "name": "D#3",
            "ticks": 88608,
            "time": 121.44718625,
            "velocity": 0.3937007874015748
          },
          {
            "duration": 0.13157875000000274,
            "durationTicks": 96,
            "midi": 60,
            "name": "C4",
            "ticks": 88800,
            "time": 121.71034374999999,
            "velocity": 0.3937007874015748
          },
          {
            "duration": 0.13157875000000274,
            "durationTicks": 96,
            "midi": 48,
            "name": "C3",
            "ticks": 88800,
            "time": 121.71034374999999,
            "velocity": 0.3937007874015748
          },
          {
            "duration": 0.2631575000000055,
            "durationTicks": 192,
            "midi": 63,
            "name": "D#4",
            "ticks": 88896,
            "time": 121.8419225,
            "velocity": 0.3937007874015748
          },
          {
            "duration": 0.2631575000000055,
            "durationTicks": 192,
            "midi": 51,
            "name": "D#3",
            "ticks": 88896,
            "time": 121.8419225,
            "velocity": 0.3937007874015748
          },
          {
            "duration": 0.394736249999994,
            "durationTicks": 288,
            "midi": 48,
            "name": "C3",
            "ticks": 88992,
            "time": 121.97350125,
            "velocity": 0.3937007874015748
          },
          {
            "duration": 0.394736249999994,
            "durationTicks": 288,
            "midi": 60,
            "name": "C4",
            "ticks": 88992,
            "time": 121.97350125,
            "velocity": 0.3937007874015748
          },
          {
            "duration": 0.2631574999999913,
            "durationTicks": 192,
            "midi": 63,
            "name": "D#4",
            "ticks": 89472,
            "time": 122.631395,
            "velocity": 0.3937007874015748
          },
          {
            "duration": 0.2631574999999913,
            "durationTicks": 192,
            "midi": 51,
            "name": "D#3",
            "ticks": 89472,
            "time": 122.631395,
            "velocity": 0.3937007874015748
          },
          {
            "duration": 0.2631575000000055,
            "durationTicks": 192,
            "midi": 48,
            "name": "C3",
            "ticks": 89664,
            "time": 122.89455249999999,
            "velocity": 0.3937007874015748
          },
          {
            "duration": 0.2631575000000055,
            "durationTicks": 192,
            "midi": 60,
            "name": "C4",
            "ticks": 89664,
            "time": 122.89455249999999,
            "velocity": 0.3937007874015748
          },
          {
            "duration": 0.2631575000000055,
            "durationTicks": 192,
            "midi": 65,
            "name": "F4",
            "ticks": 89856,
            "time": 123.15771,
            "velocity": 0.3937007874015748
          },
          {
            "duration": 0.2631575000000055,
            "durationTicks": 192,
            "midi": 53,
            "name": "F3",
            "ticks": 89856,
            "time": 123.15771,
            "velocity": 0.3937007874015748
          },
          {
            "duration": 0.13157874999998853,
            "durationTicks": 96,
            "midi": 51,
            "name": "D#3",
            "ticks": 90048,
            "time": 123.4208675,
            "velocity": 0.3937007874015748
          },
          {
            "duration": 0.13157874999998853,
            "durationTicks": 96,
            "midi": 63,
            "name": "D#4",
            "ticks": 90048,
            "time": 123.4208675,
            "velocity": 0.3937007874015748
          },
          {
            "duration": 0.2631575000000055,
            "durationTicks": 192,
            "midi": 53,
            "name": "F3",
            "ticks": 90144,
            "time": 123.55244624999999,
            "velocity": 0.3937007874015748
          },
          {
            "duration": 0.2631575000000055,
            "durationTicks": 192,
            "midi": 65,
            "name": "F4",
            "ticks": 90144,
            "time": 123.55244624999999,
            "velocity": 0.3937007874015748
          },
          {
            "duration": 0.13157875000000274,
            "durationTicks": 96,
            "midi": 55,
            "name": "G3",
            "ticks": 90336,
            "time": 123.81560375,
            "velocity": 0.3937007874015748
          },
          {
            "duration": 0.13157875000000274,
            "durationTicks": 96,
            "midi": 67,
            "name": "G4",
            "ticks": 90336,
            "time": 123.81560375,
            "velocity": 0.3937007874015748
          },
          {
            "duration": 0.5263149999999968,
            "durationTicks": 384,
            "midi": 63,
            "name": "D#4",
            "ticks": 90432,
            "time": 123.9471825,
            "velocity": 0.3937007874015748
          },
          {
            "duration": 0.5263149999999968,
            "durationTicks": 384,
            "midi": 51,
            "name": "D#3",
            "ticks": 90432,
            "time": 123.9471825,
            "velocity": 0.3937007874015748
          },
          {
            "duration": 0.2631574999999913,
            "durationTicks": 192,
            "midi": 65,
            "name": "F4",
            "ticks": 91008,
            "time": 124.736655,
            "velocity": 0.3937007874015748
          },
          {
            "duration": 0.2631574999999913,
            "durationTicks": 192,
            "midi": 53,
            "name": "F3",
            "ticks": 91008,
            "time": 124.736655,
            "velocity": 0.3937007874015748
          },
          {
            "duration": 0.3947362500000082,
            "durationTicks": 288,
            "midi": 63,
            "name": "D#4",
            "ticks": 91200,
            "time": 124.99981249999999,
            "velocity": 0.3937007874015748
          },
          {
            "duration": 0.3947362500000082,
            "durationTicks": 288,
            "midi": 51,
            "name": "D#3",
            "ticks": 91200,
            "time": 124.99981249999999,
            "velocity": 0.3937007874015748
          },
          {
            "duration": 0.2631575000000055,
            "durationTicks": 192,
            "midi": 67,
            "name": "G4",
            "ticks": 91776,
            "time": 125.78928499999999,
            "velocity": 0.3937007874015748
          },
          {
            "duration": 0.2631575000000055,
            "durationTicks": 192,
            "midi": 55,
            "name": "G3",
            "ticks": 91776,
            "time": 125.78928499999999,
            "velocity": 0.3937007874015748
          },
          {
            "duration": 0.394736249999994,
            "durationTicks": 288,
            "midi": 63,
            "name": "D#4",
            "ticks": 91968,
            "time": 126.0524425,
            "velocity": 0.3937007874015748
          },
          {
            "duration": 0.394736249999994,
            "durationTicks": 288,
            "midi": 51,
            "name": "D#3",
            "ticks": 91968,
            "time": 126.0524425,
            "velocity": 0.3937007874015748
          },
          {
            "duration": 1.0526299999999935,
            "durationTicks": 768,
            "midi": 60,
            "name": "C4",
            "ticks": 104448,
            "time": 143.15768,
            "velocity": 0.3937007874015748
          },
          {
            "duration": 0.13157874999998853,
            "durationTicks": 96,
            "midi": 63,
            "name": "D#4",
            "ticks": 104640,
            "time": 143.4208375,
            "velocity": 0.3937007874015748
          },
          {
            "duration": 0.13157875000001695,
            "durationTicks": 96,
            "midi": 84,
            "name": "C6",
            "ticks": 104832,
            "time": 143.68399499999998,
            "velocity": 0.3937007874015748
          },
          {
            "duration": 0.13157875000001695,
            "durationTicks": 96,
            "midi": 67,
            "name": "G4",
            "ticks": 104832,
            "time": 143.68399499999998,
            "velocity": 0.3937007874015748
          },
          {
            "duration": 0.13157875000001695,
            "durationTicks": 96,
            "midi": 72,
            "name": "C5",
            "ticks": 104832,
            "time": 143.68399499999998,
            "velocity": 0.3937007874015748
          },
          {
            "duration": 0.13157875000001695,
            "durationTicks": 96,
            "midi": 75,
            "name": "D#5",
            "ticks": 105024,
            "time": 143.9471525,
            "velocity": 0.3937007874015748
          },
          {
            "duration": 0.13157875000001695,
            "durationTicks": 96,
            "midi": 87,
            "name": "D#6",
            "ticks": 105024,
            "time": 143.9471525,
            "velocity": 0.3937007874015748
          },
          {
            "duration": 1.0526299999999935,
            "durationTicks": 768,
            "midi": 63,
            "name": "D#4",
            "ticks": 105216,
            "time": 144.21031,
            "velocity": 0.3937007874015748
          },
          {
            "duration": 0.13157874999998853,
            "durationTicks": 96,
            "midi": 67,
            "name": "G4",
            "ticks": 105408,
            "time": 144.4734675,
            "velocity": 0.3937007874015748
          },
          {
            "duration": 0.13157874999998853,
            "durationTicks": 96,
            "midi": 72,
            "name": "C5",
            "ticks": 105600,
            "time": 144.736625,
            "velocity": 0.3937007874015748
          },
          {
            "duration": 0.13157875000001695,
            "durationTicks": 96,
            "midi": 75,
            "name": "D#5",
            "ticks": 105792,
            "time": 144.99978249999998,
            "velocity": 0.3937007874015748
          },
          {
            "duration": 1.0526299999999935,
            "durationTicks": 768,
            "midi": 56,
            "name": "G#3",
            "ticks": 105984,
            "time": 145.26294,
            "velocity": 0.3937007874015748
          },
          {
            "duration": 0.13157875000001695,
            "durationTicks": 96,
            "midi": 68,
            "name": "G#4",
            "ticks": 105984,
            "time": 145.26294,
            "velocity": 0.3937007874015748
          },
          {
            "duration": 0.13157874999998853,
            "durationTicks": 96,
            "midi": 75,
            "name": "D#5",
            "ticks": 106176,
            "time": 145.5260975,
            "velocity": 0.3937007874015748
          },
          {
            "duration": 0.13157874999998853,
            "durationTicks": 96,
            "midi": 84,
            "name": "C6",
            "ticks": 106368,
            "time": 145.789255,
            "velocity": 0.3937007874015748
          },
          {
            "duration": 0.13157874999998853,
            "durationTicks": 96,
            "midi": 80,
            "name": "G#5",
            "ticks": 106560,
            "time": 146.0524125,
            "velocity": 0.3937007874015748
          },
          {
            "duration": 0.13157874999998853,
            "durationTicks": 96,
            "midi": 72,
            "name": "C5",
            "ticks": 106560,
            "time": 146.0524125,
            "velocity": 0.3937007874015748
          },
          {
            "duration": 0.13157875000001695,
            "durationTicks": 96,
            "midi": 67,
            "name": "G4",
            "ticks": 106752,
            "time": 146.31556999999998,
            "velocity": 0.3937007874015748
          },
          {
            "duration": 1.052630000000022,
            "durationTicks": 768,
            "midi": 55,
            "name": "G3",
            "ticks": 106752,
            "time": 146.31556999999998,
            "velocity": 0.3937007874015748
          },
          {
            "duration": 0.13157875000001695,
            "durationTicks": 96,
            "midi": 83,
            "name": "B5",
            "ticks": 106752,
            "time": 146.31556999999998,
            "velocity": 0.3937007874015748
          },
          {
            "duration": 0.13157875000001695,
            "durationTicks": 96,
            "midi": 71,
            "name": "B4",
            "ticks": 106944,
            "time": 146.57872749999999,
            "velocity": 0.3937007874015748
          },
          {
            "duration": 0.13157875000001695,
            "durationTicks": 96,
            "midi": 78,
            "name": "F#5",
            "ticks": 107136,
            "time": 146.841885,
            "velocity": 0.3937007874015748
          },
          {
            "duration": 0.13157874999998853,
            "durationTicks": 96,
            "midi": 79,
            "name": "G5",
            "ticks": 107328,
            "time": 147.1050425,
            "velocity": 0.3937007874015748
          },
          {
            "duration": 1.0526299999999935,
            "durationTicks": 768,
            "midi": 60,
            "name": "C4",
            "ticks": 107520,
            "time": 147.3682,
            "velocity": 0.3937007874015748
          },
          {
            "duration": 0.13157874999998853,
            "durationTicks": 96,
            "midi": 63,
            "name": "D#4",
            "ticks": 107712,
            "time": 147.6313575,
            "velocity": 0.3937007874015748
          },
          {
            "duration": 0.13157875000001695,
            "durationTicks": 96,
            "midi": 72,
            "name": "C5",
            "ticks": 107904,
            "time": 147.89451499999998,
            "velocity": 0.3937007874015748
          },
          {
            "duration": 1.0526299999999935,
            "durationTicks": 768,
            "midi": 63,
            "name": "D#4",
            "ticks": 108288,
            "time": 148.42083,
            "velocity": 0.3937007874015748
          },
          {
            "duration": 0.13157874999998853,
            "durationTicks": 96,
            "midi": 75,
            "name": "D#5",
            "ticks": 108480,
            "time": 148.6839875,
            "velocity": 0.3937007874015748
          },
          {
            "duration": 0.13157875000001695,
            "durationTicks": 96,
            "midi": 75,
            "name": "D#5",
            "ticks": 108864,
            "time": 149.21030249999998,
            "velocity": 0.3937007874015748
          },
          {
            "duration": 0.13157875000001695,
            "durationTicks": 96,
            "midi": 87,
            "name": "D#6",
            "ticks": 108864,
            "time": 149.21030249999998,
            "velocity": 0.3937007874015748
          },
          {
            "duration": 1.0526299999999935,
            "durationTicks": 768,
            "midi": 56,
            "name": "G#3",
            "ticks": 109056,
            "time": 149.47346,
            "velocity": 0.3937007874015748
          },
          {
            "duration": 0.13157874999998853,
            "durationTicks": 96,
            "midi": 72,
            "name": "C5",
            "ticks": 109248,
            "time": 149.7366175,
            "velocity": 0.3937007874015748
          },
          {
            "duration": 0.13157874999998853,
            "durationTicks": 96,
            "midi": 84,
            "name": "C6",
            "ticks": 109440,
            "time": 149.999775,
            "velocity": 0.3937007874015748
          },
          {
            "duration": 0.13157874999998853,
            "durationTicks": 96,
            "midi": 67,
            "name": "G4",
            "ticks": 109632,
            "time": 150.2629325,
            "velocity": 0.3937007874015748
          },
          {
            "duration": 0.13157875000001695,
            "durationTicks": 96,
            "midi": 83,
            "name": "B5",
            "ticks": 109824,
            "time": 150.52608999999998,
            "velocity": 0.3937007874015748
          },
          {
            "duration": 1.052630000000022,
            "durationTicks": 768,
            "midi": 55,
            "name": "G3",
            "ticks": 109824,
            "time": 150.52608999999998,
            "velocity": 0.3937007874015748
          },
          {
            "duration": 0.13157875000001695,
            "durationTicks": 96,
            "midi": 71,
            "name": "B4",
            "ticks": 110016,
            "time": 150.7892475,
            "velocity": 0.3937007874015748
          }
        ],
        "endOfTrackTicks": 110592
      },
      {
        "channel": 7,
        "controlChanges": {},
        "pitchBends": [],
        "instrument": {
          "family": "piano",
          "number": 0,
          "name": "acoustic grand piano"
        },
        "name": "Grand Piano (Classic)",
        "notes": [
          {
            "duration": 0.2631574999999984,
            "durationTicks": 192,
            "midi": 36,
            "name": "C2",
            "ticks": 24576,
            "time": 33.68416,
            "velocity": 0.3937007874015748
          },
          {
            "duration": 0.2631575000000055,
            "durationTicks": 192,
            "midi": 36,
            "name": "C2",
            "ticks": 24960,
            "time": 34.210474999999995,
            "velocity": 0.3937007874015748
          },
          {
            "duration": 0.2631574999999984,
            "durationTicks": 192,
            "midi": 39,
            "name": "D#2",
            "ticks": 25344,
            "time": 34.73679,
            "velocity": 0.3937007874015748
          },
          {
            "duration": 0.2631575000000055,
            "durationTicks": 192,
            "midi": 39,
            "name": "D#2",
            "ticks": 25728,
            "time": 35.263104999999996,
            "velocity": 0.3937007874015748
          },
          {
            "duration": 0.2631574999999984,
            "durationTicks": 192,
            "midi": 32,
            "name": "G#1",
            "ticks": 26112,
            "time": 35.78942,
            "velocity": 0.3937007874015748
          },
          {
            "duration": 0.2631574999999984,
            "durationTicks": 192,
            "midi": 32,
            "name": "G#1",
            "ticks": 26496,
            "time": 36.315735,
            "velocity": 0.3937007874015748
          },
          {
            "duration": 0.2631574999999984,
            "durationTicks": 192,
            "midi": 31,
            "name": "G1",
            "ticks": 26880,
            "time": 36.84205,
            "velocity": 0.3937007874015748
          },
          {
            "duration": 0.2631574999999984,
            "durationTicks": 192,
            "midi": 31,
            "name": "G1",
            "ticks": 27264,
            "time": 37.368365,
            "velocity": 0.3937007874015748
          },
          {
            "duration": 0.2631574999999984,
            "durationTicks": 192,
            "midi": 36,
            "name": "C2",
            "ticks": 27648,
            "time": 37.89468,
            "velocity": 0.3937007874015748
          },
          {
            "duration": 0.2631574999999984,
            "durationTicks": 192,
            "midi": 36,
            "name": "C2",
            "ticks": 28032,
            "time": 38.420995,
            "velocity": 0.3937007874015748
          },
          {
            "duration": 0.2631574999999984,
            "durationTicks": 192,
            "midi": 39,
            "name": "D#2",
            "ticks": 28416,
            "time": 38.94731,
            "velocity": 0.3937007874015748
          },
          {
            "duration": 0.2631574999999984,
            "durationTicks": 192,
            "midi": 39,
            "name": "D#2",
            "ticks": 28800,
            "time": 39.473625,
            "velocity": 0.3937007874015748
          },
          {
            "duration": 0.2631575000000055,
            "durationTicks": 192,
            "midi": 32,
            "name": "G#1",
            "ticks": 29184,
            "time": 39.999939999999995,
            "velocity": 0.3937007874015748
          },
          {
            "duration": 0.2631574999999984,
            "durationTicks": 192,
            "midi": 32,
            "name": "G#1",
            "ticks": 29568,
            "time": 40.526255,
            "velocity": 0.3937007874015748
          },
          {
            "duration": 0.2631575000000055,
            "durationTicks": 192,
            "midi": 31,
            "name": "G1",
            "ticks": 29952,
            "time": 41.052569999999996,
            "velocity": 0.3937007874015748
          },
          {
            "duration": 0.2631574999999984,
            "durationTicks": 192,
            "midi": 31,
            "name": "G1",
            "ticks": 30336,
            "time": 41.578885,
            "velocity": 0.3937007874015748
          },
          {
            "duration": 0.2631574999999984,
            "durationTicks": 192,
            "midi": 29,
            "name": "F1",
            "ticks": 30720,
            "time": 42.105199999999996,
            "velocity": 0.3937007874015748
          },
          {
            "duration": 0.2631574999999984,
            "durationTicks": 192,
            "midi": 29,
            "name": "F1",
            "ticks": 31104,
            "time": 42.631515,
            "velocity": 0.3937007874015748
          },
          {
            "duration": 0.2631574999999984,
            "durationTicks": 192,
            "midi": 27,
            "name": "D#1",
            "ticks": 31488,
            "time": 43.15783,
            "velocity": 0.3937007874015748
          },
          {
            "duration": 0.2631574999999984,
            "durationTicks": 192,
            "midi": 27,
            "name": "D#1",
            "ticks": 31872,
            "time": 43.684145,
            "velocity": 0.3937007874015748
          },
          {
            "duration": 0.2631574999999984,
            "durationTicks": 192,
            "midi": 26,
            "name": "D1",
            "ticks": 32256,
            "time": 44.21046,
            "velocity": 0.3937007874015748
          },
          {
            "duration": 0.2631574999999984,
            "durationTicks": 192,
            "midi": 26,
            "name": "D1",
            "ticks": 32640,
            "time": 44.736775,
            "velocity": 0.3937007874015748
          },
          {
            "duration": 0.2631574999999984,
            "durationTicks": 192,
            "midi": 31,
            "name": "G1",
            "ticks": 33024,
            "time": 45.26309,
            "velocity": 0.3937007874015748
          },
          {
            "duration": 0.2631575000000055,
            "durationTicks": 192,
            "midi": 31,
            "name": "G1",
            "ticks": 33408,
            "time": 45.789404999999995,
            "velocity": 0.3937007874015748
          },
          {
            "duration": 0.2631574999999984,
            "durationTicks": 192,
            "midi": 36,
            "name": "C2",
            "ticks": 33792,
            "time": 46.31572,
            "velocity": 0.3937007874015748
          },
          {
            "duration": 0.2631575000000055,
            "durationTicks": 192,
            "midi": 36,
            "name": "C2",
            "ticks": 34176,
            "time": 46.842034999999996,
            "velocity": 0.3937007874015748
          },
          {
            "duration": 0.2631574999999984,
            "durationTicks": 192,
            "midi": 39,
            "name": "D#2",
            "ticks": 34560,
            "time": 47.36835,
            "velocity": 0.3937007874015748
          },
          {
            "duration": 0.2631574999999984,
            "durationTicks": 192,
            "midi": 39,
            "name": "D#2",
            "ticks": 34944,
            "time": 47.894664999999996,
            "velocity": 0.3937007874015748
          },
          {
            "duration": 0.2631574999999984,
            "durationTicks": 192,
            "midi": 32,
            "name": "G#1",
            "ticks": 35328,
            "time": 48.42098,
            "velocity": 0.3937007874015748
          },
          {
            "duration": 0.2631574999999984,
            "durationTicks": 192,
            "midi": 32,
            "name": "G#1",
            "ticks": 35712,
            "time": 48.947295,
            "velocity": 0.3937007874015748
          },
          {
            "duration": 0.2631574999999984,
            "durationTicks": 192,
            "midi": 31,
            "name": "G1",
            "ticks": 36096,
            "time": 49.47361,
            "velocity": 0.3937007874015748
          },
          {
            "duration": 0.2631574999999984,
            "durationTicks": 192,
            "midi": 31,
            "name": "G1",
            "ticks": 36480,
            "time": 49.999925,
            "velocity": 0.3937007874015748
          },
          {
            "duration": 0.2631574999999984,
            "durationTicks": 192,
            "midi": 36,
            "name": "C2",
            "ticks": 36864,
            "time": 50.52624,
            "velocity": 0.3937007874015748
          },
          {
            "duration": 0.2631574999999984,
            "durationTicks": 192,
            "midi": 36,
            "name": "C2",
            "ticks": 37248,
            "time": 51.052555,
            "velocity": 0.3937007874015748
          },
          {
            "duration": 0.2631575000000055,
            "durationTicks": 192,
            "midi": 39,
            "name": "D#2",
            "ticks": 37632,
            "time": 51.578869999999995,
            "velocity": 0.3937007874015748
          },
          {
            "duration": 0.2631574999999984,
            "durationTicks": 192,
            "midi": 39,
            "name": "D#2",
            "ticks": 38016,
            "time": 52.105185,
            "velocity": 0.3937007874015748
          },
          {
            "duration": 0.2631575000000055,
            "durationTicks": 192,
            "midi": 32,
            "name": "G#1",
            "ticks": 38400,
            "time": 52.631499999999996,
            "velocity": 0.3937007874015748
          },
          {
            "duration": 0.2631574999999984,
            "durationTicks": 192,
            "midi": 32,
            "name": "G#1",
            "ticks": 38784,
            "time": 53.157815,
            "velocity": 0.3937007874015748
          },
          {
            "duration": 0.2631574999999984,
            "durationTicks": 192,
            "midi": 31,
            "name": "G1",
            "ticks": 39168,
            "time": 53.684129999999996,
            "velocity": 0.3937007874015748
          },
          {
            "duration": 0.2631574999999984,
            "durationTicks": 192,
            "midi": 31,
            "name": "G1",
            "ticks": 39552,
            "time": 54.210445,
            "velocity": 0.3937007874015748
          },
          {
            "duration": 0.2631574999999984,
            "durationTicks": 192,
            "midi": 36,
            "name": "C2",
            "ticks": 39936,
            "time": 54.73676,
            "velocity": 0.3937007874015748
          },
          {
            "duration": 0.2631574999999984,
            "durationTicks": 192,
            "midi": 36,
            "name": "C2",
            "ticks": 40320,
            "time": 55.263075,
            "velocity": 0.3937007874015748
          },
          {
            "duration": 0.2631574999999984,
            "durationTicks": 192,
            "midi": 39,
            "name": "D#2",
            "ticks": 40704,
            "time": 55.78939,
            "velocity": 0.3937007874015748
          },
          {
            "duration": 0.2631575000000055,
            "durationTicks": 192,
            "midi": 39,
            "name": "D#2",
            "ticks": 41088,
            "time": 56.315704999999994,
            "velocity": 0.3937007874015748
          },
          {
            "duration": 0.2631574999999984,
            "durationTicks": 192,
            "midi": 32,
            "name": "G#1",
            "ticks": 41472,
            "time": 56.84202,
            "velocity": 0.3937007874015748
          },
          {
            "duration": 0.2631575000000055,
            "durationTicks": 192,
            "midi": 32,
            "name": "G#1",
            "ticks": 41856,
            "time": 57.368334999999995,
            "velocity": 0.3937007874015748
          },
          {
            "duration": 0.2631574999999984,
            "durationTicks": 192,
            "midi": 31,
            "name": "G1",
            "ticks": 42240,
            "time": 57.89465,
            "velocity": 0.3937007874015748
          },
          {
            "duration": 0.2631575000000055,
            "durationTicks": 192,
            "midi": 31,
            "name": "G1",
            "ticks": 42624,
            "time": 58.420964999999995,
            "velocity": 0.3937007874015748
          },
          {
            "duration": 0.2631574999999984,
            "durationTicks": 192,
            "midi": 29,
            "name": "F1",
            "ticks": 43008,
            "time": 58.94728,
            "velocity": 0.3937007874015748
          },
          {
            "duration": 0.2631574999999984,
            "durationTicks": 192,
            "midi": 29,
            "name": "F1",
            "ticks": 43392,
            "time": 59.473594999999996,
            "velocity": 0.3937007874015748
          },
          {
            "duration": 0.2631574999999984,
            "durationTicks": 192,
            "midi": 27,
            "name": "D#1",
            "ticks": 43776,
            "time": 59.99991,
            "velocity": 0.3937007874015748
          },
          {
            "duration": 0.2631574999999984,
            "durationTicks": 192,
            "midi": 27,
            "name": "D#1",
            "ticks": 44160,
            "time": 60.526225,
            "velocity": 0.3937007874015748
          },
          {
            "duration": 0.2631574999999984,
            "durationTicks": 192,
            "midi": 26,
            "name": "D1",
            "ticks": 44544,
            "time": 61.05254,
            "velocity": 0.3937007874015748
          },
          {
            "duration": 0.2631574999999984,
            "durationTicks": 192,
            "midi": 26,
            "name": "D1",
            "ticks": 44928,
            "time": 61.578855,
            "velocity": 0.3937007874015748
          },
          {
            "duration": 0.2631575000000055,
            "durationTicks": 192,
            "midi": 31,
            "name": "G1",
            "ticks": 45312,
            "time": 62.105169999999994,
            "velocity": 0.3937007874015748
          },
          {
            "duration": 0.2631574999999984,
            "durationTicks": 192,
            "midi": 31,
            "name": "G1",
            "ticks": 45696,
            "time": 62.631485,
            "velocity": 0.3937007874015748
          },
          {
            "duration": 0.2631575000000055,
            "durationTicks": 192,
            "midi": 36,
            "name": "C2",
            "ticks": 46080,
            "time": 63.157799999999995,
            "velocity": 0.3937007874015748
          },
          {
            "duration": 0.2631574999999984,
            "durationTicks": 192,
            "midi": 36,
            "name": "C2",
            "ticks": 46464,
            "time": 63.684115,
            "velocity": 0.3937007874015748
          },
          {
            "duration": 0.2631574999999913,
            "durationTicks": 192,
            "midi": 39,
            "name": "D#2",
            "ticks": 46848,
            "time": 64.21043,
            "velocity": 0.3937007874015748
          },
          {
            "duration": 0.2631574999999913,
            "durationTicks": 192,
            "midi": 39,
            "name": "D#2",
            "ticks": 47232,
            "time": 64.736745,
            "velocity": 0.3937007874015748
          },
          {
            "duration": 0.2631575000000055,
            "durationTicks": 192,
            "midi": 32,
            "name": "G#1",
            "ticks": 47616,
            "time": 65.26306,
            "velocity": 0.3937007874015748
          },
          {
            "duration": 0.2631575000000055,
            "durationTicks": 192,
            "midi": 32,
            "name": "G#1",
            "ticks": 48000,
            "time": 65.78937499999999,
            "velocity": 0.3937007874015748
          },
          {
            "duration": 0.2631574999999913,
            "durationTicks": 192,
            "midi": 31,
            "name": "G1",
            "ticks": 48384,
            "time": 66.31569,
            "velocity": 0.3937007874015748
          },
          {
            "duration": 0.2631574999999913,
            "durationTicks": 192,
            "midi": 31,
            "name": "G1",
            "ticks": 48768,
            "time": 66.842005,
            "velocity": 0.3937007874015748
          },
          {
            "duration": 0.197368124999997,
            "durationTicks": 144,
            "midi": 36,
            "name": "C2",
            "ticks": 49152,
            "time": 67.36832,
            "velocity": 0.3937007874015748
          },
          {
            "duration": 0.197368124999997,
            "durationTicks": 144,
            "midi": 39,
            "name": "D#2",
            "ticks": 49536,
            "time": 67.894635,
            "velocity": 0.3937007874015748
          },
          {
            "duration": 0.197368124999997,
            "durationTicks": 144,
            "midi": 36,
            "name": "C2",
            "ticks": 49728,
            "time": 68.1577925,
            "velocity": 0.3937007874015748
          },
          {
            "duration": 0.19736812500001122,
            "durationTicks": 144,
            "midi": 35,
            "name": "B1",
            "ticks": 49920,
            "time": 68.42094999999999,
            "velocity": 0.3937007874015748
          },
          {
            "duration": 0.197368124999997,
            "durationTicks": 144,
            "midi": 38,
            "name": "D2",
            "ticks": 50304,
            "time": 68.947265,
            "velocity": 0.3937007874015748
          },
          {
            "duration": 0.197368124999997,
            "durationTicks": 144,
            "midi": 39,
            "name": "D#2",
            "ticks": 50688,
            "time": 69.47358,
            "velocity": 0.3937007874015748
          },
          {
            "duration": 0.197368124999997,
            "durationTicks": 144,
            "midi": 43,
            "name": "G2",
            "ticks": 51072,
            "time": 69.999895,
            "velocity": 0.3937007874015748
          },
          {
            "duration": 0.197368124999997,
            "durationTicks": 144,
            "midi": 39,
            "name": "D#2",
            "ticks": 51264,
            "time": 70.2630525,
            "velocity": 0.3937007874015748
          },
          {
            "duration": 0.19736812500001122,
            "durationTicks": 144,
            "midi": 41,
            "name": "F2",
            "ticks": 51456,
            "time": 70.52620999999999,
            "velocity": 0.3937007874015748
          },
          {
            "duration": 0.197368124999997,
            "durationTicks": 144,
            "midi": 44,
            "name": "G#2",
            "ticks": 51648,
            "time": 70.7893675,
            "velocity": 0.3937007874015748
          },
          {
            "duration": 0.197368124999997,
            "durationTicks": 144,
            "midi": 48,
            "name": "C3",
            "ticks": 51840,
            "time": 71.052525,
            "velocity": 0.3937007874015748
          },
          {
            "duration": 0.197368124999997,
            "durationTicks": 144,
            "midi": 44,
            "name": "G#2",
            "ticks": 52032,
            "time": 71.3156825,
            "velocity": 0.3937007874015748
          },
          {
            "duration": 0.197368124999997,
            "durationTicks": 144,
            "midi": 36,
            "name": "C2",
            "ticks": 52224,
            "time": 71.57884,
            "velocity": 0.3937007874015748
          },
          {
            "duration": 0.197368124999997,
            "durationTicks": 144,
            "midi": 39,
            "name": "D#2",
            "ticks": 52608,
            "time": 72.105155,
            "velocity": 0.3937007874015748
          },
          {
            "duration": 0.197368124999997,
            "durationTicks": 144,
            "midi": 36,
            "name": "C2",
            "ticks": 52800,
            "time": 72.3683125,
            "velocity": 0.3937007874015748
          },
          {
            "duration": 0.197368124999997,
            "durationTicks": 144,
            "midi": 35,
            "name": "B1",
            "ticks": 52992,
            "time": 72.63147,
            "velocity": 0.3937007874015748
          },
          {
            "duration": 0.19736812500001122,
            "durationTicks": 144,
            "midi": 38,
            "name": "D2",
            "ticks": 53376,
            "time": 73.15778499999999,
            "velocity": 0.3937007874015748
          },
          {
            "duration": 0.197368124999997,
            "durationTicks": 144,
            "midi": 39,
            "name": "D#2",
            "ticks": 53760,
            "time": 73.6841,
            "velocity": 0.3937007874015748
          },
          {
            "duration": 0.197368124999997,
            "durationTicks": 144,
            "midi": 43,
            "name": "G2",
            "ticks": 54144,
            "time": 74.210415,
            "velocity": 0.3937007874015748
          },
          {
            "duration": 0.197368124999997,
            "durationTicks": 144,
            "midi": 39,
            "name": "D#2",
            "ticks": 54336,
            "time": 74.4735725,
            "velocity": 0.3937007874015748
          },
          {
            "duration": 0.197368124999997,
            "durationTicks": 144,
            "midi": 41,
            "name": "F2",
            "ticks": 54528,
            "time": 74.73673,
            "velocity": 0.3937007874015748
          },
          {
            "duration": 0.197368124999997,
            "durationTicks": 144,
            "midi": 44,
            "name": "G#2",
            "ticks": 54720,
            "time": 74.9998875,
            "velocity": 0.3937007874015748
          },
          {
            "duration": 0.19736812500001122,
            "durationTicks": 144,
            "midi": 48,
            "name": "C3",
            "ticks": 54912,
            "time": 75.26304499999999,
            "velocity": 0.3937007874015748
          },
          {
            "duration": 0.197368124999997,
            "durationTicks": 144,
            "midi": 44,
            "name": "G#2",
            "ticks": 55104,
            "time": 75.5262025,
            "velocity": 0.3937007874015748
          },
          {
            "duration": 0.197368124999997,
            "durationTicks": 144,
            "midi": 36,
            "name": "C2",
            "ticks": 55296,
            "time": 75.78936,
            "velocity": 0.3937007874015748
          },
          {
            "duration": 0.197368124999997,
            "durationTicks": 144,
            "midi": 39,
            "name": "D#2",
            "ticks": 55680,
            "time": 76.315675,
            "velocity": 0.3937007874015748
          },
          {
            "duration": 0.19736812500001122,
            "durationTicks": 144,
            "midi": 36,
            "name": "C2",
            "ticks": 55872,
            "time": 76.57883249999999,
            "velocity": 0.3937007874015748
          },
          {
            "duration": 0.197368124999997,
            "durationTicks": 144,
            "midi": 35,
            "name": "B1",
            "ticks": 56064,
            "time": 76.84199,
            "velocity": 0.3937007874015748
          },
          {
            "duration": 0.19736812500001122,
            "durationTicks": 144,
            "midi": 38,
            "name": "D2",
            "ticks": 56448,
            "time": 77.36830499999999,
            "velocity": 0.3937007874015748
          },
          {
            "duration": 0.197368124999997,
            "durationTicks": 144,
            "midi": 39,
            "name": "D#2",
            "ticks": 56832,
            "time": 77.89462,
            "velocity": 0.3937007874015748
          },
          {
            "duration": 0.197368124999997,
            "durationTicks": 144,
            "midi": 43,
            "name": "G2",
            "ticks": 57216,
            "time": 78.420935,
            "velocity": 0.3937007874015748
          },
          {
            "duration": 0.19736812500001122,
            "durationTicks": 144,
            "midi": 39,
            "name": "D#2",
            "ticks": 57408,
            "time": 78.68409249999999,
            "velocity": 0.3937007874015748
          },
          {
            "duration": 0.197368124999997,
            "durationTicks": 144,
            "midi": 41,
            "name": "F2",
            "ticks": 57600,
            "time": 78.94725,
            "velocity": 0.3937007874015748
          },
          {
            "duration": 0.197368124999997,
            "durationTicks": 144,
            "midi": 44,
            "name": "G#2",
            "ticks": 57792,
            "time": 79.2104075,
            "velocity": 0.3937007874015748
          },
          {
            "duration": 0.197368124999997,
            "durationTicks": 144,
            "midi": 48,
            "name": "C3",
            "ticks": 57984,
            "time": 79.473565,
            "velocity": 0.3937007874015748
          },
          {
            "duration": 0.197368124999997,
            "durationTicks": 144,
            "midi": 44,
            "name": "G#2",
            "ticks": 58176,
            "time": 79.7367225,
            "velocity": 0.3937007874015748
          },
          {
            "duration": 0.19736812500001122,
            "durationTicks": 144,
            "midi": 36,
            "name": "C2",
            "ticks": 58368,
            "time": 79.99987999999999,
            "velocity": 0.3937007874015748
          },
          {
            "duration": 0.197368124999997,
            "durationTicks": 144,
            "midi": 39,
            "name": "D#2",
            "ticks": 58752,
            "time": 80.526195,
            "velocity": 0.3937007874015748
          },
          {
            "duration": 0.197368124999997,
            "durationTicks": 144,
            "midi": 36,
            "name": "C2",
            "ticks": 58944,
            "time": 80.78935249999999,
            "velocity": 0.3937007874015748
          },
          {
            "duration": 0.197368124999997,
            "durationTicks": 144,
            "midi": 35,
            "name": "B1",
            "ticks": 59136,
            "time": 81.05251,
            "velocity": 0.3937007874015748
          },
          {
            "duration": 0.197368124999997,
            "durationTicks": 144,
            "midi": 38,
            "name": "D2",
            "ticks": 59520,
            "time": 81.578825,
            "velocity": 0.3937007874015748
          },
          {
            "duration": 0.19736812500001122,
            "durationTicks": 144,
            "midi": 39,
            "name": "D#2",
            "ticks": 59904,
            "time": 82.10513999999999,
            "velocity": 0.3937007874015748
          },
          {
            "duration": 0.197368124999997,
            "durationTicks": 144,
            "midi": 43,
            "name": "G2",
            "ticks": 60288,
            "time": 82.631455,
            "velocity": 0.3937007874015748
          },
          {
            "duration": 0.197368124999997,
            "durationTicks": 144,
            "midi": 39,
            "name": "D#2",
            "ticks": 60480,
            "time": 82.8946125,
            "velocity": 0.3937007874015748
          },
          {
            "duration": 0.197368124999997,
            "durationTicks": 144,
            "midi": 41,
            "name": "F2",
            "ticks": 60672,
            "time": 83.15777,
            "velocity": 0.3937007874015748
          },
          {
            "duration": 0.19736812500001122,
            "durationTicks": 144,
            "midi": 44,
            "name": "G#2",
            "ticks": 60864,
            "time": 83.42092749999999,
            "velocity": 0.3937007874015748
          },
          {
            "duration": 0.197368124999997,
            "durationTicks": 144,
            "midi": 48,
            "name": "C3",
            "ticks": 61056,
            "time": 83.684085,
            "velocity": 0.3937007874015748
          },
          {
            "duration": 0.197368124999997,
            "durationTicks": 144,
            "midi": 44,
            "name": "G#2",
            "ticks": 61248,
            "time": 83.9472425,
            "velocity": 0.3937007874015748
          },
          {
            "duration": 0.197368124999997,
            "durationTicks": 144,
            "midi": 36,
            "name": "C2",
            "ticks": 61440,
            "time": 84.21039999999999,
            "velocity": 0.3937007874015748
          },
          {
            "duration": 0.19736812500001122,
            "durationTicks": 144,
            "midi": 39,
            "name": "D#2",
            "ticks": 61824,
            "time": 84.73671499999999,
            "velocity": 0.3937007874015748
          },
          {
            "duration": 0.197368124999997,
            "durationTicks": 144,
            "midi": 36,
            "name": "C2",
            "ticks": 62016,
            "time": 84.9998725,
            "velocity": 0.3937007874015748
          },
          {
            "duration": 0.197368124999997,
            "durationTicks": 144,
            "midi": 35,
            "name": "B1",
            "ticks": 62208,
            "time": 85.26303,
            "velocity": 0.3937007874015748
          },
          {
            "duration": 0.197368124999997,
            "durationTicks": 144,
            "midi": 38,
            "name": "D2",
            "ticks": 62592,
            "time": 85.789345,
            "velocity": 0.3937007874015748
          },
          {
            "duration": 0.197368124999997,
            "durationTicks": 144,
            "midi": 39,
            "name": "D#2",
            "ticks": 62976,
            "time": 86.31566,
            "velocity": 0.3937007874015748
          },
          {
            "duration": 0.19736812500001122,
            "durationTicks": 144,
            "midi": 43,
            "name": "G2",
            "ticks": 63360,
            "time": 86.84197499999999,
            "velocity": 0.3937007874015748
          },
          {
            "duration": 0.197368124999997,
            "durationTicks": 144,
            "midi": 39,
            "name": "D#2",
            "ticks": 63552,
            "time": 87.1051325,
            "velocity": 0.3937007874015748
          },
          {
            "duration": 0.197368124999997,
            "durationTicks": 144,
            "midi": 41,
            "name": "F2",
            "ticks": 63744,
            "time": 87.36829,
            "velocity": 0.3937007874015748
          },
          {
            "duration": 0.197368124999997,
            "durationTicks": 144,
            "midi": 44,
            "name": "G#2",
            "ticks": 63936,
            "time": 87.6314475,
            "velocity": 0.3937007874015748
          },
          {
            "duration": 0.197368124999997,
            "durationTicks": 144,
            "midi": 48,
            "name": "C3",
            "ticks": 64128,
            "time": 87.894605,
            "velocity": 0.3937007874015748
          },
          {
            "duration": 0.19736812500001122,
            "durationTicks": 144,
            "midi": 44,
            "name": "G#2",
            "ticks": 64320,
            "time": 88.15776249999999,
            "velocity": 0.3937007874015748
          },
          {
            "duration": 0.197368124999997,
            "durationTicks": 144,
            "midi": 36,
            "name": "C2",
            "ticks": 64512,
            "time": 88.42092,
            "velocity": 0.3937007874015748
          },
          {
            "duration": 0.197368124999997,
            "durationTicks": 144,
            "midi": 39,
            "name": "D#2",
            "ticks": 64896,
            "time": 88.94723499999999,
            "velocity": 0.3937007874015748
          },
          {
            "duration": 0.197368124999997,
            "durationTicks": 144,
            "midi": 36,
            "name": "C2",
            "ticks": 65088,
            "time": 89.2103925,
            "velocity": 0.3937007874015748
          },
          {
            "duration": 0.197368124999997,
            "durationTicks": 144,
            "midi": 35,
            "name": "B1",
            "ticks": 65280,
            "time": 89.47355,
            "velocity": 0.3937007874015748
          },
          {
            "duration": 0.197368124999997,
            "durationTicks": 144,
            "midi": 38,
            "name": "D2",
            "ticks": 65664,
            "time": 89.999865,
            "velocity": 0.3937007874015748
          },
          {
            "duration": 0.197368124999997,
            "durationTicks": 144,
            "midi": 39,
            "name": "D#2",
            "ticks": 66048,
            "time": 90.52618,
            "velocity": 0.3937007874015748
          },
          {
            "duration": 0.197368124999997,
            "durationTicks": 144,
            "midi": 43,
            "name": "G2",
            "ticks": 66432,
            "time": 91.052495,
            "velocity": 0.3937007874015748
          },
          {
            "duration": 0.197368124999997,
            "durationTicks": 144,
            "midi": 39,
            "name": "D#2",
            "ticks": 66624,
            "time": 91.3156525,
            "velocity": 0.3937007874015748
          },
          {
            "duration": 0.19736812500001122,
            "durationTicks": 144,
            "midi": 41,
            "name": "F2",
            "ticks": 66816,
            "time": 91.57880999999999,
            "velocity": 0.3937007874015748
          },
          {
            "duration": 0.197368124999997,
            "durationTicks": 144,
            "midi": 44,
            "name": "G#2",
            "ticks": 67008,
            "time": 91.8419675,
            "velocity": 0.3937007874015748
          },
          {
            "duration": 0.197368124999997,
            "durationTicks": 144,
            "midi": 48,
            "name": "C3",
            "ticks": 67200,
            "time": 92.105125,
            "velocity": 0.3937007874015748
          },
          {
            "duration": 0.197368124999997,
            "durationTicks": 144,
            "midi": 44,
            "name": "G#2",
            "ticks": 67392,
            "time": 92.36828249999999,
            "velocity": 0.3937007874015748
          },
          {
            "duration": 0.32894687499999975,
            "durationTicks": 240,
            "midi": 36,
            "name": "C2",
            "ticks": 79872,
            "time": 109.47352,
            "velocity": 0.3937007874015748
          },
          {
            "duration": 0.32894687499999975,
            "durationTicks": 240,
            "midi": 36,
            "name": "C2",
            "ticks": 80256,
            "time": 109.99983499999999,
            "velocity": 0.3937007874015748
          },
          {
            "duration": 0.32894687499999975,
            "durationTicks": 240,
            "midi": 39,
            "name": "D#2",
            "ticks": 80640,
            "time": 110.52615,
            "velocity": 0.3937007874015748
          },
          {
            "duration": 0.32894687499999975,
            "durationTicks": 240,
            "midi": 39,
            "name": "D#2",
            "ticks": 81024,
            "time": 111.052465,
            "velocity": 0.3937007874015748
          },
          {
            "duration": 0.32894687499999975,
            "durationTicks": 240,
            "midi": 32,
            "name": "G#1",
            "ticks": 81408,
            "time": 111.57878,
            "velocity": 0.3937007874015748
          },
          {
            "duration": 0.32894687499999975,
            "durationTicks": 240,
            "midi": 32,
            "name": "G#1",
            "ticks": 81792,
            "time": 112.10509499999999,
            "velocity": 0.3937007874015748
          },
          {
            "duration": 0.32894687500001396,
            "durationTicks": 240,
            "midi": 31,
            "name": "G1",
            "ticks": 82176,
            "time": 112.63140999999999,
            "velocity": 0.3937007874015748
          },
          {
            "duration": 0.32894687499999975,
            "durationTicks": 240,
            "midi": 31,
            "name": "G1",
            "ticks": 82560,
            "time": 113.157725,
            "velocity": 0.3937007874015748
          },
          {
            "duration": 0.32894687499999975,
            "durationTicks": 240,
            "midi": 36,
            "name": "C2",
            "ticks": 82944,
            "time": 113.68404,
            "velocity": 0.3937007874015748
          },
          {
            "duration": 0.32894687499999975,
            "durationTicks": 240,
            "midi": 36,
            "name": "C2",
            "ticks": 83328,
            "time": 114.21035499999999,
            "velocity": 0.3937007874015748
          },
          {
            "duration": 0.32894687499999975,
            "durationTicks": 240,
            "midi": 39,
            "name": "D#2",
            "ticks": 83712,
            "time": 114.73666999999999,
            "velocity": 0.3937007874015748
          },
          {
            "duration": 0.32894687499999975,
            "durationTicks": 240,
            "midi": 39,
            "name": "D#2",
            "ticks": 84096,
            "time": 115.262985,
            "velocity": 0.3937007874015748
          },
          {
            "duration": 0.32894687499999975,
            "durationTicks": 240,
            "midi": 32,
            "name": "G#1",
            "ticks": 84480,
            "time": 115.7893,
            "velocity": 0.3937007874015748
          },
          {
            "duration": 0.32894687499999975,
            "durationTicks": 240,
            "midi": 32,
            "name": "G#1",
            "ticks": 84864,
            "time": 116.315615,
            "velocity": 0.3937007874015748
          },
          {
            "duration": 0.32894687499999975,
            "durationTicks": 240,
            "midi": 31,
            "name": "G1",
            "ticks": 85248,
            "time": 116.84192999999999,
            "velocity": 0.3937007874015748
          },
          {
            "duration": 0.32894687499999975,
            "durationTicks": 240,
            "midi": 31,
            "name": "G1",
            "ticks": 85632,
            "time": 117.368245,
            "velocity": 0.3937007874015748
          },
          {
            "duration": 0.32894687499999975,
            "durationTicks": 240,
            "midi": 29,
            "name": "F1",
            "ticks": 86016,
            "time": 117.89456,
            "velocity": 0.3937007874015748
          },
          {
            "duration": 0.32894687499999975,
            "durationTicks": 240,
            "midi": 29,
            "name": "F1",
            "ticks": 86400,
            "time": 118.420875,
            "velocity": 0.3937007874015748
          },
          {
            "duration": 0.32894687499999975,
            "durationTicks": 240,
            "midi": 27,
            "name": "D#1",
            "ticks": 86784,
            "time": 118.94718999999999,
            "velocity": 0.3937007874015748
          },
          {
            "duration": 0.32894687499999975,
            "durationTicks": 240,
            "midi": 27,
            "name": "D#1",
            "ticks": 87168,
            "time": 119.47350499999999,
            "velocity": 0.3937007874015748
          },
          {
            "duration": 0.32894687499999975,
            "durationTicks": 240,
            "midi": 26,
            "name": "D1",
            "ticks": 87552,
            "time": 119.99982,
            "velocity": 0.3937007874015748
          },
          {
            "duration": 0.32894687499999975,
            "durationTicks": 240,
            "midi": 26,
            "name": "D1",
            "ticks": 87936,
            "time": 120.526135,
            "velocity": 0.3937007874015748
          },
          {
            "duration": 0.32894687499999975,
            "durationTicks": 240,
            "midi": 31,
            "name": "G1",
            "ticks": 88320,
            "time": 121.05245,
            "velocity": 0.3937007874015748
          },
          {
            "duration": 0.32894687499999975,
            "durationTicks": 240,
            "midi": 31,
            "name": "G1",
            "ticks": 88704,
            "time": 121.57876499999999,
            "velocity": 0.3937007874015748
          },
          {
            "duration": 0.32894687499999975,
            "durationTicks": 240,
            "midi": 36,
            "name": "C2",
            "ticks": 89088,
            "time": 122.10508,
            "velocity": 0.3937007874015748
          },
          {
            "duration": 0.32894687499999975,
            "durationTicks": 240,
            "midi": 36,
            "name": "C2",
            "ticks": 89472,
            "time": 122.631395,
            "velocity": 0.3937007874015748
          },
          {
            "duration": 0.32894687499999975,
            "durationTicks": 240,
            "midi": 39,
            "name": "D#2",
            "ticks": 89856,
            "time": 123.15771,
            "velocity": 0.3937007874015748
          },
          {
            "duration": 0.32894687499999975,
            "durationTicks": 240,
            "midi": 39,
            "name": "D#2",
            "ticks": 90240,
            "time": 123.68402499999999,
            "velocity": 0.3937007874015748
          },
          {
            "duration": 0.32894687499999975,
            "durationTicks": 240,
            "midi": 32,
            "name": "G#1",
            "ticks": 90624,
            "time": 124.21033999999999,
            "velocity": 0.3937007874015748
          },
          {
            "duration": 0.32894687499999975,
            "durationTicks": 240,
            "midi": 32,
            "name": "G#1",
            "ticks": 91008,
            "time": 124.736655,
            "velocity": 0.3937007874015748
          },
          {
            "duration": 0.32894687499999975,
            "durationTicks": 240,
            "midi": 31,
            "name": "G1",
            "ticks": 91392,
            "time": 125.26297,
            "velocity": 0.3937007874015748
          },
          {
            "duration": 0.32894687499999975,
            "durationTicks": 240,
            "midi": 31,
            "name": "G1",
            "ticks": 91776,
            "time": 125.78928499999999,
            "velocity": 0.3937007874015748
          },
          {
            "duration": 0.32894687499999975,
            "durationTicks": 240,
            "midi": 36,
            "name": "C2",
            "ticks": 92160,
            "time": 126.31559999999999,
            "velocity": 0.3937007874015748
          },
          {
            "duration": 0.32894687499999975,
            "durationTicks": 240,
            "midi": 36,
            "name": "C2",
            "ticks": 92544,
            "time": 126.841915,
            "velocity": 0.3937007874015748
          },
          {
            "duration": 0.32894687499999975,
            "durationTicks": 240,
            "midi": 39,
            "name": "D#2",
            "ticks": 92928,
            "time": 127.36823,
            "velocity": 0.3937007874015748
          },
          {
            "duration": 0.32894687500001396,
            "durationTicks": 240,
            "midi": 39,
            "name": "D#2",
            "ticks": 93312,
            "time": 127.894545,
            "velocity": 0.3937007874015748
          },
          {
            "duration": 0.32894687499998554,
            "durationTicks": 240,
            "midi": 32,
            "name": "G#1",
            "ticks": 93696,
            "time": 128.42086,
            "velocity": 0.3937007874015748
          },
          {
            "duration": 0.32894687500001396,
            "durationTicks": 240,
            "midi": 32,
            "name": "G#1",
            "ticks": 94080,
            "time": 128.947175,
            "velocity": 0.3937007874015748
          },
          {
            "duration": 0.32894687499998554,
            "durationTicks": 240,
            "midi": 31,
            "name": "G1",
            "ticks": 94464,
            "time": 129.47349,
            "velocity": 0.3937007874015748
          },
          {
            "duration": 0.32894687500001396,
            "durationTicks": 240,
            "midi": 31,
            "name": "G1",
            "ticks": 94848,
            "time": 129.99980499999998,
            "velocity": 0.3937007874015748
          },
          {
            "duration": 0.32894687500001396,
            "durationTicks": 240,
            "midi": 36,
            "name": "C2",
            "ticks": 95232,
            "time": 130.52612,
            "velocity": 0.3937007874015748
          },
          {
            "duration": 0.32894687499998554,
            "durationTicks": 240,
            "midi": 36,
            "name": "C2",
            "ticks": 95616,
            "time": 131.052435,
            "velocity": 0.3937007874015748
          },
          {
            "duration": 0.32894687500001396,
            "durationTicks": 240,
            "midi": 39,
            "name": "D#2",
            "ticks": 96000,
            "time": 131.57874999999999,
            "velocity": 0.3937007874015748
          },
          {
            "duration": 0.32894687499998554,
            "durationTicks": 240,
            "midi": 39,
            "name": "D#2",
            "ticks": 96384,
            "time": 132.105065,
            "velocity": 0.3937007874015748
          },
          {
            "duration": 0.32894687499998554,
            "durationTicks": 240,
            "midi": 32,
            "name": "G#1",
            "ticks": 96768,
            "time": 132.63138,
            "velocity": 0.3937007874015748
          },
          {
            "duration": 0.32894687500001396,
            "durationTicks": 240,
            "midi": 32,
            "name": "G#1",
            "ticks": 97152,
            "time": 133.157695,
            "velocity": 0.3937007874015748
          },
          {
            "duration": 0.32894687499998554,
            "durationTicks": 240,
            "midi": 31,
            "name": "G1",
            "ticks": 97536,
            "time": 133.68401,
            "velocity": 0.3937007874015748
          },
          {
            "duration": 0.32894687500001396,
            "durationTicks": 240,
            "midi": 31,
            "name": "G1",
            "ticks": 97920,
            "time": 134.21032499999998,
            "velocity": 0.3937007874015748
          },
          {
            "duration": 0.32894687500001396,
            "durationTicks": 240,
            "midi": 29,
            "name": "F1",
            "ticks": 98304,
            "time": 134.73664,
            "velocity": 0.3937007874015748
          },
          {
            "duration": 0.32894687499998554,
            "durationTicks": 240,
            "midi": 29,
            "name": "F1",
            "ticks": 98688,
            "time": 135.262955,
            "velocity": 0.3937007874015748
          },
          {
            "duration": 0.32894687500001396,
            "durationTicks": 240,
            "midi": 27,
            "name": "D#1",
            "ticks": 99072,
            "time": 135.78927,
            "velocity": 0.3937007874015748
          },
          {
            "duration": 0.32894687499998554,
            "durationTicks": 240,
            "midi": 27,
            "name": "D#1",
            "ticks": 99456,
            "time": 136.315585,
            "velocity": 0.3937007874015748
          },
          {
            "duration": 0.32894687500001396,
            "durationTicks": 240,
            "midi": 26,
            "name": "D1",
            "ticks": 99840,
            "time": 136.84189999999998,
            "velocity": 0.3937007874015748
          },
          {
            "duration": 0.32894687500001396,
            "durationTicks": 240,
            "midi": 26,
            "name": "D1",
            "ticks": 100224,
            "time": 137.368215,
            "velocity": 0.3937007874015748
          },
          {
            "duration": 0.32894687499998554,
            "durationTicks": 240,
            "midi": 31,
            "name": "G1",
            "ticks": 100608,
            "time": 137.89453,
            "velocity": 0.3937007874015748
          },
          {
            "duration": 0.32894687500001396,
            "durationTicks": 240,
            "midi": 31,
            "name": "G1",
            "ticks": 100992,
            "time": 138.42084499999999,
            "velocity": 0.3937007874015748
          },
          {
            "duration": 0.32894687499998554,
            "durationTicks": 240,
            "midi": 36,
            "name": "C2",
            "ticks": 101376,
            "time": 138.94716,
            "velocity": 0.3937007874015748
          },
          {
            "duration": 0.32894687499998554,
            "durationTicks": 240,
            "midi": 36,
            "name": "C2",
            "ticks": 101760,
            "time": 139.473475,
            "velocity": 0.3937007874015748
          },
          {
            "duration": 0.32894687500001396,
            "durationTicks": 240,
            "midi": 39,
            "name": "D#2",
            "ticks": 102144,
            "time": 139.99979,
            "velocity": 0.3937007874015748
          },
          {
            "duration": 0.32894687499998554,
            "durationTicks": 240,
            "midi": 39,
            "name": "D#2",
            "ticks": 102528,
            "time": 140.526105,
            "velocity": 0.3937007874015748
          },
          {
            "duration": 0.32894687500001396,
            "durationTicks": 240,
            "midi": 32,
            "name": "G#1",
            "ticks": 102912,
            "time": 141.05241999999998,
            "velocity": 0.3937007874015748
          },
          {
            "duration": 0.32894687499998554,
            "durationTicks": 240,
            "midi": 32,
            "name": "G#1",
            "ticks": 103296,
            "time": 141.578735,
            "velocity": 0.3937007874015748
          },
          {
            "duration": 0.32894687499998554,
            "durationTicks": 240,
            "midi": 31,
            "name": "G1",
            "ticks": 103680,
            "time": 142.10505,
            "velocity": 0.3937007874015748
          },
          {
            "duration": 0.32894687500001396,
            "durationTicks": 240,
            "midi": 31,
            "name": "G1",
            "ticks": 104064,
            "time": 142.631365,
            "velocity": 0.3937007874015748
          }
        ],
        "endOfTrackTicks": 104304
      },
      {
        "channel": 8,
        "controlChanges": {},
        "pitchBends": [],
        "instrument": {
          "family": "synth lead",
          "number": 82,
          "name": "lead 3 (calliope)"
        },
        "name": "8-Bit Sine",
        "notes": [
          {
            "duration": 1.0526300000000006,
            "durationTicks": 768,
            "midi": 55,
            "name": "G3",
            "ticks": 24576,
            "time": 33.68416,
            "velocity": 0.3937007874015748
          },
          {
            "duration": 1.0526300000000006,
            "durationTicks": 768,
            "midi": 58,
            "name": "A#3",
            "ticks": 25344,
            "time": 34.73679,
            "velocity": 0.3937007874015748
          },
          {
            "duration": 1.0526300000000006,
            "durationTicks": 768,
            "midi": 56,
            "name": "G#3",
            "ticks": 26112,
            "time": 35.78942,
            "velocity": 0.3937007874015748
          },
          {
            "duration": 1.0526300000000006,
            "durationTicks": 768,
            "midi": 55,
            "name": "G3",
            "ticks": 27648,
            "time": 37.89468,
            "velocity": 0.3937007874015748
          },
          {
            "duration": 1.0526299999999935,
            "durationTicks": 768,
            "midi": 58,
            "name": "A#3",
            "ticks": 28416,
            "time": 38.94731,
            "velocity": 0.3937007874015748
          },
          {
            "duration": 1.0526300000000006,
            "durationTicks": 768,
            "midi": 56,
            "name": "G#3",
            "ticks": 29184,
            "time": 39.999939999999995,
            "velocity": 0.3937007874015748
          },
          {
            "duration": 1.0526300000000006,
            "durationTicks": 768,
            "midi": 55,
            "name": "G3",
            "ticks": 29952,
            "time": 41.052569999999996,
            "velocity": 0.3937007874015748
          },
          {
            "duration": 1.0526300000000006,
            "durationTicks": 768,
            "midi": 55,
            "name": "G3",
            "ticks": 30720,
            "time": 42.105199999999996,
            "velocity": 0.3937007874015748
          },
          {
            "duration": 1.0526300000000006,
            "durationTicks": 768,
            "midi": 58,
            "name": "A#3",
            "ticks": 31488,
            "time": 43.15783,
            "velocity": 0.3937007874015748
          },
          {
            "duration": 1.0526300000000006,
            "durationTicks": 768,
            "midi": 56,
            "name": "G#3",
            "ticks": 32256,
            "time": 44.21046,
            "velocity": 0.3937007874015748
          },
          {
            "duration": 1.0526300000000006,
            "durationTicks": 768,
            "midi": 55,
            "name": "G3",
            "ticks": 33024,
            "time": 45.26309,
            "velocity": 0.3937007874015748
          },
          {
            "duration": 1.0526300000000006,
            "durationTicks": 768,
            "midi": 55,
            "name": "G3",
            "ticks": 33792,
            "time": 46.31572,
            "velocity": 0.3937007874015748
          },
          {
            "duration": 1.0526300000000006,
            "durationTicks": 768,
            "midi": 58,
            "name": "A#3",
            "ticks": 34560,
            "time": 47.36835,
            "velocity": 0.3937007874015748
          },
          {
            "duration": 1.0526300000000006,
            "durationTicks": 768,
            "midi": 56,
            "name": "G#3",
            "ticks": 35328,
            "time": 48.42098,
            "velocity": 0.3937007874015748
          },
          {
            "duration": 1.0526300000000006,
            "durationTicks": 768,
            "midi": 55,
            "name": "G3",
            "ticks": 36096,
            "time": 49.47361,
            "velocity": 0.3937007874015748
          },
          {
            "duration": 1.0526299999999935,
            "durationTicks": 768,
            "midi": 55,
            "name": "G3",
            "ticks": 36864,
            "time": 50.52624,
            "velocity": 0.3937007874015748
          },
          {
            "duration": 1.0526300000000006,
            "durationTicks": 768,
            "midi": 58,
            "name": "A#3",
            "ticks": 37632,
            "time": 51.578869999999995,
            "velocity": 0.3937007874015748
          },
          {
            "duration": 1.0526300000000006,
            "durationTicks": 768,
            "midi": 56,
            "name": "G#3",
            "ticks": 38400,
            "time": 52.631499999999996,
            "velocity": 0.3937007874015748
          },
          {
            "duration": 1.0526300000000006,
            "durationTicks": 768,
            "midi": 55,
            "name": "G3",
            "ticks": 39168,
            "time": 53.684129999999996,
            "velocity": 0.3937007874015748
          },
          {
            "duration": 1.0526300000000006,
            "durationTicks": 768,
            "midi": 55,
            "name": "G3",
            "ticks": 39936,
            "time": 54.73676,
            "velocity": 0.3937007874015748
          },
          {
            "duration": 1.0526300000000006,
            "durationTicks": 768,
            "midi": 58,
            "name": "A#3",
            "ticks": 40704,
            "time": 55.78939,
            "velocity": 0.3937007874015748
          },
          {
            "duration": 1.0526300000000006,
            "durationTicks": 768,
            "midi": 56,
            "name": "G#3",
            "ticks": 41472,
            "time": 56.84202,
            "velocity": 0.3937007874015748
          },
          {
            "duration": 1.0526300000000006,
            "durationTicks": 768,
            "midi": 55,
            "name": "G3",
            "ticks": 42240,
            "time": 57.89465,
            "velocity": 0.3937007874015748
          },
          {
            "duration": 1.0526300000000006,
            "durationTicks": 768,
            "midi": 53,
            "name": "F3",
            "ticks": 43008,
            "time": 58.94728,
            "velocity": 0.3937007874015748
          },
          {
            "duration": 1.0526300000000006,
            "durationTicks": 768,
            "midi": 60,
            "name": "C4",
            "ticks": 43008,
            "time": 58.94728,
            "velocity": 0.3937007874015748
          },
          {
            "duration": 1.0526300000000006,
            "durationTicks": 768,
            "midi": 56,
            "name": "G#3",
            "ticks": 43008,
            "time": 58.94728,
            "velocity": 0.3937007874015748
          },
          {
            "duration": 1.0526300000000006,
            "durationTicks": 768,
            "midi": 51,
            "name": "D#3",
            "ticks": 43776,
            "time": 59.99991,
            "velocity": 0.3937007874015748
          },
          {
            "duration": 1.0526300000000006,
            "durationTicks": 768,
            "midi": 56,
            "name": "G#3",
            "ticks": 43776,
            "time": 59.99991,
            "velocity": 0.3937007874015748
          },
          {
            "duration": 1.0526300000000006,
            "durationTicks": 768,
            "midi": 60,
            "name": "C4",
            "ticks": 43776,
            "time": 59.99991,
            "velocity": 0.3937007874015748
          },
          {
            "duration": 1.0526299999999935,
            "durationTicks": 768,
            "midi": 54,
            "name": "F#3",
            "ticks": 44544,
            "time": 61.05254,
            "velocity": 0.3937007874015748
          },
          {
            "duration": 1.0526299999999935,
            "durationTicks": 768,
            "midi": 60,
            "name": "C4",
            "ticks": 44544,
            "time": 61.05254,
            "velocity": 0.3937007874015748
          },
          {
            "duration": 1.0526299999999935,
            "durationTicks": 768,
            "midi": 57,
            "name": "A3",
            "ticks": 44544,
            "time": 61.05254,
            "velocity": 0.3937007874015748
          },
          {
            "duration": 1.0526300000000006,
            "durationTicks": 768,
            "midi": 59,
            "name": "B3",
            "ticks": 45312,
            "time": 62.105169999999994,
            "velocity": 0.3937007874015748
          },
          {
            "duration": 1.0526300000000006,
            "durationTicks": 768,
            "midi": 62,
            "name": "D4",
            "ticks": 45312,
            "time": 62.105169999999994,
            "velocity": 0.3937007874015748
          },
          {
            "duration": 1.0526300000000006,
            "durationTicks": 768,
            "midi": 53,
            "name": "F3",
            "ticks": 45312,
            "time": 62.105169999999994,
            "velocity": 0.3937007874015748
          },
          {
            "duration": 1.0526300000000077,
            "durationTicks": 768,
            "midi": 55,
            "name": "G3",
            "ticks": 46080,
            "time": 63.157799999999995,
            "velocity": 0.3937007874015748
          },
          {
            "duration": 1.0526300000000077,
            "durationTicks": 768,
            "midi": 63,
            "name": "D#4",
            "ticks": 46080,
            "time": 63.157799999999995,
            "velocity": 0.3937007874015748
          },
          {
            "duration": 1.0526300000000077,
            "durationTicks": 768,
            "midi": 60,
            "name": "C4",
            "ticks": 46080,
            "time": 63.157799999999995,
            "velocity": 0.3937007874015748
          },
          {
            "duration": 1.0526299999999935,
            "durationTicks": 768,
            "midi": 58,
            "name": "A#3",
            "ticks": 46848,
            "time": 64.21043,
            "velocity": 0.3937007874015748
          },
          {
            "duration": 1.0526299999999935,
            "durationTicks": 768,
            "midi": 63,
            "name": "D#4",
            "ticks": 46848,
            "time": 64.21043,
            "velocity": 0.3937007874015748
          },
          {
            "duration": 1.0526299999999935,
            "durationTicks": 768,
            "midi": 55,
            "name": "G3",
            "ticks": 46848,
            "time": 64.21043,
            "velocity": 0.3937007874015748
          },
          {
            "duration": 1.0526300000000077,
            "durationTicks": 768,
            "midi": 63,
            "name": "D#4",
            "ticks": 47616,
            "time": 65.26306,
            "velocity": 0.3937007874015748
          },
          {
            "duration": 1.0526300000000077,
            "durationTicks": 768,
            "midi": 56,
            "name": "G#3",
            "ticks": 47616,
            "time": 65.26306,
            "velocity": 0.3937007874015748
          },
          {
            "duration": 1.0526300000000077,
            "durationTicks": 768,
            "midi": 60,
            "name": "C4",
            "ticks": 47616,
            "time": 65.26306,
            "velocity": 0.3937007874015748
          },
          {
            "duration": 1.0526299999999935,
            "durationTicks": 768,
            "midi": 59,
            "name": "B3",
            "ticks": 48384,
            "time": 66.31569,
            "velocity": 0.3937007874015748
          },
          {
            "duration": 1.0526299999999935,
            "durationTicks": 768,
            "midi": 62,
            "name": "D4",
            "ticks": 48384,
            "time": 66.31569,
            "velocity": 0.3937007874015748
          },
          {
            "duration": 1.0526299999999935,
            "durationTicks": 768,
            "midi": 55,
            "name": "G3",
            "ticks": 48384,
            "time": 66.31569,
            "velocity": 0.3937007874015748
          }
        ],
        "endOfTrackTicks": 49152
      },
      {
        "channel": 10,
        "controlChanges": {},
        "pitchBends": [],
        "instrument": {
          "family": "synth lead",
          "number": 80,
          "name": "lead 1 (square)"
        },
        "name": "8-Bit Square",
        "notes": [
          {
            "duration": 0.197368124999997,
            "durationTicks": 144,
            "midi": 41,
            "name": "F2",
            "ticks": 37248,
            "time": 51.052555,
            "velocity": 0.3937007874015748
          },
          {
            "duration": 0.1973681250000041,
            "durationTicks": 144,
            "midi": 36,
            "name": "C2",
            "ticks": 37440,
            "time": 51.3157125,
            "velocity": 0.3937007874015748
          },
          {
            "duration": 0.1973681250000041,
            "durationTicks": 144,
            "midi": 41,
            "name": "F2",
            "ticks": 37632,
            "time": 51.578869999999995,
            "velocity": 0.3937007874015748
          },
          {
            "duration": 0.197368124999997,
            "durationTicks": 144,
            "midi": 39,
            "name": "D#2",
            "ticks": 37824,
            "time": 51.8420275,
            "velocity": 0.3937007874015748
          },
          {
            "duration": 0.197368124999997,
            "durationTicks": 144,
            "midi": 41,
            "name": "F2",
            "ticks": 38016,
            "time": 52.105185,
            "velocity": 0.3937007874015748
          },
          {
            "duration": 0.13157875000000274,
            "durationTicks": 96,
            "midi": 43,
            "name": "G2",
            "ticks": 38208,
            "time": 52.3683425,
            "velocity": 0.3937007874015748
          },
          {
            "duration": 0.3947362500000011,
            "durationTicks": 288,
            "midi": 39,
            "name": "D#2",
            "ticks": 38304,
            "time": 52.49992125,
            "velocity": 0.3937007874015748
          },
          {
            "duration": 0.197368124999997,
            "durationTicks": 144,
            "midi": 41,
            "name": "F2",
            "ticks": 38784,
            "time": 53.157815,
            "velocity": 0.3937007874015748
          },
          {
            "duration": 0.3947362500000011,
            "durationTicks": 288,
            "midi": 39,
            "name": "D#2",
            "ticks": 38976,
            "time": 53.4209725,
            "velocity": 0.3937007874015748
          },
          {
            "duration": 0.197368124999997,
            "durationTicks": 144,
            "midi": 43,
            "name": "G2",
            "ticks": 39552,
            "time": 54.210445,
            "velocity": 0.3937007874015748
          },
          {
            "duration": 0.3947362500000011,
            "durationTicks": 288,
            "midi": 39,
            "name": "D#2",
            "ticks": 39744,
            "time": 54.4736025,
            "velocity": 0.3937007874015748
          },
          {
            "duration": 0.197368124999997,
            "durationTicks": 144,
            "midi": 41,
            "name": "F2",
            "ticks": 40320,
            "time": 55.263075,
            "velocity": 0.3937007874015748
          },
          {
            "duration": 0.197368124999997,
            "durationTicks": 144,
            "midi": 39,
            "name": "D#2",
            "ticks": 40512,
            "time": 55.5262325,
            "velocity": 0.3937007874015748
          },
          {
            "duration": 0.197368124999997,
            "durationTicks": 144,
            "midi": 41,
            "name": "F2",
            "ticks": 40704,
            "time": 55.78939,
            "velocity": 0.3937007874015748
          },
          {
            "duration": 0.1973681250000041,
            "durationTicks": 144,
            "midi": 39,
            "name": "D#2",
            "ticks": 40896,
            "time": 56.052547499999996,
            "velocity": 0.3937007874015748
          },
          {
            "duration": 0.13157875000000274,
            "durationTicks": 96,
            "midi": 41,
            "name": "F2",
            "ticks": 41088,
            "time": 56.315704999999994,
            "velocity": 0.3937007874015748
          },
          {
            "duration": 0.1973681250000041,
            "durationTicks": 144,
            "midi": 43,
            "name": "G2",
            "ticks": 41184,
            "time": 56.44728375,
            "velocity": 0.3937007874015748
          },
          {
            "duration": 0.3947362500000011,
            "durationTicks": 288,
            "midi": 39,
            "name": "D#2",
            "ticks": 41376,
            "time": 56.710441249999995,
            "velocity": 0.3937007874015748
          },
          {
            "duration": 0.1973681250000041,
            "durationTicks": 144,
            "midi": 41,
            "name": "F2",
            "ticks": 41856,
            "time": 57.368334999999995,
            "velocity": 0.3937007874015748
          },
          {
            "duration": 0.394736249999994,
            "durationTicks": 288,
            "midi": 39,
            "name": "D#2",
            "ticks": 42048,
            "time": 57.6314925,
            "velocity": 0.3937007874015748
          },
          {
            "duration": 0.1973681250000041,
            "durationTicks": 144,
            "midi": 43,
            "name": "G2",
            "ticks": 42624,
            "time": 58.420964999999995,
            "velocity": 0.3937007874015748
          },
          {
            "duration": 0.394736249999994,
            "durationTicks": 288,
            "midi": 39,
            "name": "D#2",
            "ticks": 42816,
            "time": 58.6841225,
            "velocity": 0.3937007874015748
          },
          {
            "duration": 0.5263150000000039,
            "durationTicks": 384,
            "midi": 55,
            "name": "G3",
            "ticks": 43392,
            "time": 59.473594999999996,
            "velocity": 0.3937007874015748
          },
          {
            "duration": 0.5263149999999968,
            "durationTicks": 384,
            "midi": 53,
            "name": "F3",
            "ticks": 43776,
            "time": 59.99991,
            "velocity": 0.3937007874015748
          },
          {
            "duration": 0.5263150000000039,
            "durationTicks": 384,
            "midi": 51,
            "name": "D#3",
            "ticks": 44160,
            "time": 60.526225,
            "velocity": 0.3937007874015748
          },
          {
            "duration": 0.5263149999999968,
            "durationTicks": 384,
            "midi": 53,
            "name": "F3",
            "ticks": 44544,
            "time": 61.05254,
            "velocity": 0.3937007874015748
          },
          {
            "duration": 0.5263149999999968,
            "durationTicks": 384,
            "midi": 55,
            "name": "G3",
            "ticks": 44928,
            "time": 61.578855,
            "velocity": 0.3937007874015748
          },
          {
            "duration": 0.5263150000000039,
            "durationTicks": 384,
            "midi": 53,
            "name": "F3",
            "ticks": 45312,
            "time": 62.105169999999994,
            "velocity": 0.3937007874015748
          },
          {
            "duration": 0.5263149999999968,
            "durationTicks": 384,
            "midi": 50,
            "name": "D3",
            "ticks": 45696,
            "time": 62.631485,
            "velocity": 0.3937007874015748
          },
          {
            "duration": 0.5263150000000039,
            "durationTicks": 384,
            "midi": 51,
            "name": "D#3",
            "ticks": 46080,
            "time": 63.157799999999995,
            "velocity": 0.3937007874015748
          },
          {
            "duration": 0.2631575000000055,
            "durationTicks": 192,
            "midi": 55,
            "name": "G3",
            "ticks": 46656,
            "time": 63.9472725,
            "velocity": 0.3937007874015748
          },
          {
            "duration": 0.5263149999999968,
            "durationTicks": 384,
            "midi": 51,
            "name": "D#3",
            "ticks": 46848,
            "time": 64.21043,
            "velocity": 0.3937007874015748
          },
          {
            "duration": 0.2631575000000055,
            "durationTicks": 192,
            "midi": 55,
            "name": "G3",
            "ticks": 47424,
            "time": 64.99990249999999,
            "velocity": 0.3937007874015748
          },
          {
            "duration": 0.2631575000000055,
            "durationTicks": 192,
            "midi": 51,
            "name": "D#3",
            "ticks": 47616,
            "time": 65.26306,
            "velocity": 0.3937007874015748
          },
          {
            "duration": 0.2631574999999913,
            "durationTicks": 192,
            "midi": 55,
            "name": "G3",
            "ticks": 47808,
            "time": 65.5262175,
            "velocity": 0.3937007874015748
          },
          {
            "duration": 0.2631575000000055,
            "durationTicks": 192,
            "midi": 51,
            "name": "D#3",
            "ticks": 48000,
            "time": 65.78937499999999,
            "velocity": 0.3937007874015748
          },
          {
            "duration": 0.2631575000000055,
            "durationTicks": 192,
            "midi": 55,
            "name": "G3",
            "ticks": 48192,
            "time": 66.0525325,
            "velocity": 0.3937007874015748
          },
          {
            "duration": 0.2631574999999913,
            "durationTicks": 192,
            "midi": 51,
            "name": "D#3",
            "ticks": 48384,
            "time": 66.31569,
            "velocity": 0.3937007874015748
          },
          {
            "duration": 0.2631575000000055,
            "durationTicks": 192,
            "midi": 48,
            "name": "C3",
            "ticks": 48576,
            "time": 66.5788475,
            "velocity": 0.3937007874015748
          },
          {
            "duration": 0.13157875000000274,
            "durationTicks": 96,
            "midi": 51,
            "name": "D#3",
            "ticks": 48768,
            "time": 66.842005,
            "velocity": 0.3937007874015748
          },
          {
            "duration": 0.19736812500001122,
            "durationTicks": 144,
            "midi": 51,
            "name": "D#3",
            "ticks": 48960,
            "time": 67.10516249999999,
            "velocity": 0.3937007874015748
          },
          {
            "duration": 0.197368124999997,
            "durationTicks": 144,
            "midi": 41,
            "name": "F2",
            "ticks": 67968,
            "time": 93.157755,
            "velocity": 0.3937007874015748
          },
          {
            "duration": 0.197368124999997,
            "durationTicks": 144,
            "midi": 39,
            "name": "D#2",
            "ticks": 68160,
            "time": 93.4209125,
            "velocity": 0.3937007874015748
          },
          {
            "duration": 0.19736812500001122,
            "durationTicks": 144,
            "midi": 41,
            "name": "F2",
            "ticks": 68352,
            "time": 93.68406999999999,
            "velocity": 0.3937007874015748
          },
          {
            "duration": 0.197368124999997,
            "durationTicks": 144,
            "midi": 39,
            "name": "D#2",
            "ticks": 68544,
            "time": 93.9472275,
            "velocity": 0.3937007874015748
          },
          {
            "duration": 0.197368124999997,
            "durationTicks": 144,
            "midi": 41,
            "name": "F2",
            "ticks": 68736,
            "time": 94.210385,
            "velocity": 0.3937007874015748
          },
          {
            "duration": 0.13157875000000274,
            "durationTicks": 96,
            "midi": 43,
            "name": "G2",
            "ticks": 68928,
            "time": 94.4735425,
            "velocity": 0.3937007874015748
          },
          {
            "duration": 0.32894687499999975,
            "durationTicks": 240,
            "midi": 39,
            "name": "D#2",
            "ticks": 69024,
            "time": 94.60512125,
            "velocity": 0.3937007874015748
          },
          {
            "duration": 0.197368124999997,
            "durationTicks": 144,
            "midi": 41,
            "name": "F2",
            "ticks": 69504,
            "time": 95.263015,
            "velocity": 0.3937007874015748
          },
          {
            "duration": 0.394736249999994,
            "durationTicks": 288,
            "midi": 39,
            "name": "D#2",
            "ticks": 69696,
            "time": 95.5261725,
            "velocity": 0.3937007874015748
          },
          {
            "duration": 0.19736812500001122,
            "durationTicks": 144,
            "midi": 43,
            "name": "G2",
            "ticks": 70272,
            "time": 96.31564499999999,
            "velocity": 0.3937007874015748
          },
          {
            "duration": 0.394736249999994,
            "durationTicks": 288,
            "midi": 39,
            "name": "D#2",
            "ticks": 70464,
            "time": 96.5788025,
            "velocity": 0.3937007874015748
          },
          {
            "duration": 0.197368124999997,
            "durationTicks": 144,
            "midi": 41,
            "name": "F2",
            "ticks": 71040,
            "time": 97.368275,
            "velocity": 0.3937007874015748
          },
          {
            "duration": 0.197368124999997,
            "durationTicks": 144,
            "midi": 39,
            "name": "D#2",
            "ticks": 71232,
            "time": 97.6314325,
            "velocity": 0.3937007874015748
          },
          {
            "duration": 0.13157875000000274,
            "durationTicks": 96,
            "midi": 41,
            "name": "F2",
            "ticks": 71424,
            "time": 97.89459,
            "velocity": 0.3937007874015748
          },
          {
            "duration": 0.197368124999997,
            "durationTicks": 144,
            "midi": 39,
            "name": "D#2",
            "ticks": 71520,
            "time": 98.02616875,
            "velocity": 0.3937007874015748
          },
          {
            "duration": 0.2631574999999913,
            "durationTicks": 192,
            "midi": 41,
            "name": "F2",
            "ticks": 71712,
            "time": 98.28932625,
            "velocity": 0.3937007874015748
          },
          {
            "duration": 0.13157875000000274,
            "durationTicks": 96,
            "midi": 43,
            "name": "G2",
            "ticks": 72000,
            "time": 98.6840625,
            "velocity": 0.3937007874015748
          },
          {
            "duration": 0.32894687499999975,
            "durationTicks": 240,
            "midi": 39,
            "name": "D#2",
            "ticks": 72096,
            "time": 98.81564125,
            "velocity": 0.3937007874015748
          },
          {
            "duration": 0.197368124999997,
            "durationTicks": 144,
            "midi": 41,
            "name": "F2",
            "ticks": 72576,
            "time": 99.473535,
            "velocity": 0.3937007874015748
          },
          {
            "duration": 0.3947362500000082,
            "durationTicks": 288,
            "midi": 39,
            "name": "D#2",
            "ticks": 72768,
            "time": 99.73669249999999,
            "velocity": 0.3937007874015748
          },
          {
            "duration": 0.197368124999997,
            "durationTicks": 144,
            "midi": 43,
            "name": "G2",
            "ticks": 73344,
            "time": 100.52616499999999,
            "velocity": 0.3937007874015748
          },
          {
            "duration": 0.394736249999994,
            "durationTicks": 288,
            "midi": 39,
            "name": "D#2",
            "ticks": 73536,
            "time": 100.7893225,
            "velocity": 0.3937007874015748
          },
          {
            "duration": 0.197368124999997,
            "durationTicks": 144,
            "midi": 41,
            "name": "F2",
            "ticks": 74112,
            "time": 101.578795,
            "velocity": 0.3937007874015748
          },
          {
            "duration": 0.19736812500001122,
            "durationTicks": 144,
            "midi": 39,
            "name": "D#2",
            "ticks": 74304,
            "time": 101.84195249999999,
            "velocity": 0.3937007874015748
          },
          {
            "duration": 0.197368124999997,
            "durationTicks": 144,
            "midi": 41,
            "name": "F2",
            "ticks": 74496,
            "time": 102.10511,
            "velocity": 0.3937007874015748
          },
          {
            "duration": 0.197368124999997,
            "durationTicks": 144,
            "midi": 39,
            "name": "D#2",
            "ticks": 74688,
            "time": 102.3682675,
            "velocity": 0.3937007874015748
          },
          {
            "duration": 0.13157875000000274,
            "durationTicks": 96,
            "midi": 41,
            "name": "F2",
            "ticks": 74880,
            "time": 102.631425,
            "velocity": 0.3937007874015748
          },
          {
            "duration": 0.197368124999997,
            "durationTicks": 144,
            "midi": 43,
            "name": "G2",
            "ticks": 74976,
            "time": 102.76300375,
            "velocity": 0.3937007874015748
          },
          {
            "duration": 0.32894687499999975,
            "durationTicks": 240,
            "midi": 39,
            "name": "D#2",
            "ticks": 75168,
            "time": 103.02616125,
            "velocity": 0.3937007874015748
          },
          {
            "duration": 0.197368124999997,
            "durationTicks": 144,
            "midi": 39,
            "name": "D#2",
            "ticks": 75648,
            "time": 103.684055,
            "velocity": 0.3937007874015748
          },
          {
            "duration": 0.197368124999997,
            "durationTicks": 144,
            "midi": 36,
            "name": "C2",
            "ticks": 75840,
            "time": 103.94721249999999,
            "velocity": 0.3937007874015748
          },
          {
            "duration": 0.197368124999997,
            "durationTicks": 144,
            "midi": 39,
            "name": "D#2",
            "ticks": 76032,
            "time": 104.21037,
            "velocity": 0.3937007874015748
          },
          {
            "duration": 0.13157875000000274,
            "durationTicks": 96,
            "midi": 36,
            "name": "C2",
            "ticks": 76224,
            "time": 104.47352749999999,
            "velocity": 0.3937007874015748
          },
          {
            "duration": 0.197368124999997,
            "durationTicks": 144,
            "midi": 39,
            "name": "D#2",
            "ticks": 76320,
            "time": 104.60510624999999,
            "velocity": 0.3937007874015748
          },
          {
            "duration": 0.197368124999997,
            "durationTicks": 144,
            "midi": 36,
            "name": "C2",
            "ticks": 76512,
            "time": 104.86826375,
            "velocity": 0.3937007874015748
          },
          {
            "duration": 0.2631574999999913,
            "durationTicks": 192,
            "midi": 39,
            "name": "D#2",
            "ticks": 76704,
            "time": 105.13142125,
            "velocity": 0.3937007874015748
          },
          {
            "duration": 0.13157875000000274,
            "durationTicks": 96,
            "midi": 36,
            "name": "C2",
            "ticks": 76896,
            "time": 105.39457875,
            "velocity": 0.3937007874015748
          },
          {
            "duration": 0.197368124999997,
            "durationTicks": 144,
            "midi": 41,
            "name": "F2",
            "ticks": 77184,
            "time": 105.789315,
            "velocity": 0.3937007874015748
          },
          {
            "duration": 0.197368124999997,
            "durationTicks": 144,
            "midi": 39,
            "name": "D#2",
            "ticks": 77376,
            "time": 106.0524725,
            "velocity": 0.3937007874015748
          },
          {
            "duration": 0.197368124999997,
            "durationTicks": 144,
            "midi": 41,
            "name": "F2",
            "ticks": 77568,
            "time": 106.31563,
            "velocity": 0.3937007874015748
          },
          {
            "duration": 0.19736812500001122,
            "durationTicks": 144,
            "midi": 39,
            "name": "D#2",
            "ticks": 77760,
            "time": 106.57878749999999,
            "velocity": 0.3937007874015748
          },
          {
            "duration": 0.13157875000000274,
            "durationTicks": 96,
            "midi": 41,
            "name": "F2",
            "ticks": 77952,
            "time": 106.841945,
            "velocity": 0.3937007874015748
          },
          {
            "duration": 0.2631574999999913,
            "durationTicks": 192,
            "midi": 43,
            "name": "G2",
            "ticks": 78048,
            "time": 106.97352375,
            "velocity": 0.3937007874015748
          },
          {
            "duration": 0.3947362500000082,
            "durationTicks": 288,
            "midi": 39,
            "name": "D#2",
            "ticks": 78336,
            "time": 107.36825999999999,
            "velocity": 0.3937007874015748
          },
          {
            "duration": 0.19736812500001122,
            "durationTicks": 144,
            "midi": 41,
            "name": "F2",
            "ticks": 78720,
            "time": 107.89457499999999,
            "velocity": 0.3937007874015748
          },
          {
            "duration": 0.5263149999999968,
            "durationTicks": 384,
            "midi": 39,
            "name": "D#2",
            "ticks": 78912,
            "time": 108.1577325,
            "velocity": 0.3937007874015748
          },
          {
            "duration": 0.197368124999997,
            "durationTicks": 144,
            "midi": 43,
            "name": "G2",
            "ticks": 79488,
            "time": 108.947205,
            "velocity": 0.3937007874015748
          },
          {
            "duration": 0.394736249999994,
            "durationTicks": 288,
            "midi": 39,
            "name": "D#2",
            "ticks": 79680,
            "time": 109.2103625,
            "velocity": 0.3937007874015748
          },
          {
            "duration": 0.13157875000001695,
            "durationTicks": 96,
            "midi": 27,
            "name": "D#1",
            "ticks": 94848,
            "time": 129.99980499999998,
            "velocity": 0.3937007874015748
          },
          {
            "duration": 0.19736812500002543,
            "durationTicks": 144,
            "midi": 39,
            "name": "D#2",
            "ticks": 94848,
            "time": 129.99980499999998,
            "velocity": 0.3937007874015748
          },
          {
            "duration": 0.13157875000001695,
            "durationTicks": 96,
            "midi": 27,
            "name": "D#1",
            "ticks": 95040,
            "time": 130.2629625,
            "velocity": 0.3937007874015748
          },
          {
            "duration": 0.197368124999997,
            "durationTicks": 144,
            "midi": 39,
            "name": "D#2",
            "ticks": 95040,
            "time": 130.2629625,
            "velocity": 0.3937007874015748
          },
          {
            "duration": 0.197368124999997,
            "durationTicks": 144,
            "midi": 39,
            "name": "D#2",
            "ticks": 97920,
            "time": 134.21032499999998,
            "velocity": 0.3937007874015748
          },
          {
            "duration": 0.13157875000001695,
            "durationTicks": 96,
            "midi": 27,
            "name": "D#1",
            "ticks": 97920,
            "time": 134.21032499999998,
            "velocity": 0.3937007874015748
          },
          {
            "duration": 0.197368124999997,
            "durationTicks": 144,
            "midi": 39,
            "name": "D#2",
            "ticks": 98112,
            "time": 134.4734825,
            "velocity": 0.3937007874015748
          },
          {
            "duration": 0.13157875000001695,
            "durationTicks": 96,
            "midi": 27,
            "name": "D#1",
            "ticks": 98112,
            "time": 134.4734825,
            "velocity": 0.3937007874015748
          },
          {
            "duration": 0.197368124999997,
            "durationTicks": 144,
            "midi": 27,
            "name": "D#1",
            "ticks": 99456,
            "time": 136.315585,
            "velocity": 0.3937007874015748
          },
          {
            "duration": 0.197368124999997,
            "durationTicks": 144,
            "midi": 39,
            "name": "D#2",
            "ticks": 99456,
            "time": 136.315585,
            "velocity": 0.3937007874015748
          },
          {
            "duration": 0.197368124999997,
            "durationTicks": 144,
            "midi": 39,
            "name": "D#2",
            "ticks": 99648,
            "time": 136.5787425,
            "velocity": 0.3937007874015748
          },
          {
            "duration": 0.197368124999997,
            "durationTicks": 144,
            "midi": 27,
            "name": "D#1",
            "ticks": 99648,
            "time": 136.5787425,
            "velocity": 0.3937007874015748
          },
          {
            "duration": 0.197368124999997,
            "durationTicks": 144,
            "midi": 39,
            "name": "D#2",
            "ticks": 100992,
            "time": 138.42084499999999,
            "velocity": 0.3937007874015748
          },
          {
            "duration": 0.197368124999997,
            "durationTicks": 144,
            "midi": 27,
            "name": "D#1",
            "ticks": 100992,
            "time": 138.42084499999999,
            "velocity": 0.3937007874015748
          },
          {
            "duration": 0.197368124999997,
            "durationTicks": 144,
            "midi": 39,
            "name": "D#2",
            "ticks": 101184,
            "time": 138.6840025,
            "velocity": 0.3937007874015748
          },
          {
            "duration": 0.197368124999997,
            "durationTicks": 144,
            "midi": 27,
            "name": "D#1",
            "ticks": 101184,
            "time": 138.6840025,
            "velocity": 0.3937007874015748
          }
        ],
        "endOfTrackTicks": 101328
      },
      {
        "channel": 11,
        "controlChanges": {},
        "pitchBends": [],
        "instrument": {
          "family": "synth lead",
          "number": 81,
          "name": "lead 2 (sawtooth)"
        },
        "name": "8-Bit Sawtooth",
        "notes": [
          {
            "duration": 0.13157875000000274,
            "durationTicks": 96,
            "midi": 60,
            "name": "C4",
            "ticks": 24960,
            "time": 34.210474999999995,
            "velocity": 0.3937007874015748
          },
          {
            "duration": 0.13157875000000274,
            "durationTicks": 96,
            "midi": 84,
            "name": "C6",
            "ticks": 24960,
            "time": 34.210474999999995,
            "velocity": 0.3937007874015748
          },
          {
            "duration": 0.13157875000000274,
            "durationTicks": 96,
            "midi": 55,
            "name": "G3",
            "ticks": 25056,
            "time": 34.34205375,
            "velocity": 0.3937007874015748
          },
          {
            "duration": 0.13157875000000274,
            "durationTicks": 96,
            "midi": 79,
            "name": "G5",
            "ticks": 25056,
            "time": 34.34205375,
            "velocity": 0.3937007874015748
          },
          {
            "duration": 0.2631574999999984,
            "durationTicks": 192,
            "midi": 53,
            "name": "F3",
            "ticks": 25152,
            "time": 34.4736325,
            "velocity": 0.3937007874015748
          },
          {
            "duration": 0.2631574999999984,
            "durationTicks": 192,
            "midi": 77,
            "name": "F5",
            "ticks": 25152,
            "time": 34.4736325,
            "velocity": 0.3937007874015748
          },
          {
            "duration": 0.3947362500000011,
            "durationTicks": 288,
            "midi": 75,
            "name": "D#5",
            "ticks": 25344,
            "time": 34.73679,
            "velocity": 0.3937007874015748
          },
          {
            "duration": 0.3947362500000011,
            "durationTicks": 288,
            "midi": 51,
            "name": "D#3",
            "ticks": 25344,
            "time": 34.73679,
            "velocity": 0.3937007874015748
          },
          {
            "duration": 0.2631575000000055,
            "durationTicks": 192,
            "midi": 72,
            "name": "C5",
            "ticks": 25728,
            "time": 35.263104999999996,
            "velocity": 0.3937007874015748
          },
          {
            "duration": 0.2631575000000055,
            "durationTicks": 192,
            "midi": 48,
            "name": "C3",
            "ticks": 25728,
            "time": 35.263104999999996,
            "velocity": 0.3937007874015748
          },
          {
            "duration": 0.2631574999999984,
            "durationTicks": 192,
            "midi": 51,
            "name": "D#3",
            "ticks": 25920,
            "time": 35.5262625,
            "velocity": 0.3937007874015748
          },
          {
            "duration": 0.2631574999999984,
            "durationTicks": 192,
            "midi": 75,
            "name": "D#5",
            "ticks": 25920,
            "time": 35.5262625,
            "velocity": 0.3937007874015748
          },
          {
            "duration": 0.2631574999999984,
            "durationTicks": 192,
            "midi": 53,
            "name": "F3",
            "ticks": 26112,
            "time": 35.78942,
            "velocity": 0.3937007874015748
          },
          {
            "duration": 0.2631574999999984,
            "durationTicks": 192,
            "midi": 77,
            "name": "F5",
            "ticks": 26112,
            "time": 35.78942,
            "velocity": 0.3937007874015748
          },
          {
            "duration": 0.2631574999999984,
            "durationTicks": 192,
            "midi": 75,
            "name": "D#5",
            "ticks": 26304,
            "time": 36.0525775,
            "velocity": 0.3937007874015748
          },
          {
            "duration": 0.2631574999999984,
            "durationTicks": 192,
            "midi": 51,
            "name": "D#3",
            "ticks": 26304,
            "time": 36.0525775,
            "velocity": 0.3937007874015748
          },
          {
            "duration": 0.2631574999999984,
            "durationTicks": 192,
            "midi": 77,
            "name": "F5",
            "ticks": 26496,
            "time": 36.315735,
            "velocity": 0.3937007874015748
          },
          {
            "duration": 0.2631574999999984,
            "durationTicks": 192,
            "midi": 53,
            "name": "F3",
            "ticks": 26496,
            "time": 36.315735,
            "velocity": 0.3937007874015748
          },
          {
            "duration": 0.13157875000000274,
            "durationTicks": 96,
            "midi": 51,
            "name": "D#3",
            "ticks": 26688,
            "time": 36.578892499999995,
            "velocity": 0.3937007874015748
          },
          {
            "duration": 0.13157875000000274,
            "durationTicks": 96,
            "midi": 75,
            "name": "D#5",
            "ticks": 26688,
            "time": 36.578892499999995,
            "velocity": 0.3937007874015748
          },
          {
            "duration": 0.2631574999999984,
            "durationTicks": 192,
            "midi": 79,
            "name": "G5",
            "ticks": 26784,
            "time": 36.71047125,
            "velocity": 0.3937007874015748
          },
          {
            "duration": 0.2631574999999984,
            "durationTicks": 192,
            "midi": 55,
            "name": "G3",
            "ticks": 26784,
            "time": 36.71047125,
            "velocity": 0.3937007874015748
          },
          {
            "duration": 0.06578937500000137,
            "durationTicks": 48,
            "midi": 55,
            "name": "G3",
            "ticks": 26976,
            "time": 36.973628749999996,
            "velocity": 0.3937007874015748
          },
          {
            "duration": 0.06578937500000137,
            "durationTicks": 48,
            "midi": 79,
            "name": "G5",
            "ticks": 26976,
            "time": 36.973628749999996,
            "velocity": 0.3937007874015748
          },
          {
            "duration": 0.06578937500000137,
            "durationTicks": 48,
            "midi": 79,
            "name": "G5",
            "ticks": 27024,
            "time": 37.039418125,
            "velocity": 0.3937007874015748
          },
          {
            "duration": 0.06578937500000137,
            "durationTicks": 48,
            "midi": 55,
            "name": "G3",
            "ticks": 27024,
            "time": 37.039418125,
            "velocity": 0.3937007874015748
          },
          {
            "duration": 0.06578937500000137,
            "durationTicks": 48,
            "midi": 55,
            "name": "G3",
            "ticks": 27072,
            "time": 37.1052075,
            "velocity": 0.3937007874015748
          },
          {
            "duration": 0.06578937500000137,
            "durationTicks": 48,
            "midi": 79,
            "name": "G5",
            "ticks": 27072,
            "time": 37.1052075,
            "velocity": 0.3937007874015748
          },
          {
            "duration": 0.06578937500000137,
            "durationTicks": 48,
            "midi": 55,
            "name": "G3",
            "ticks": 27120,
            "time": 37.170996875,
            "velocity": 0.3937007874015748
          },
          {
            "duration": 0.06578937500000137,
            "durationTicks": 48,
            "midi": 79,
            "name": "G5",
            "ticks": 27120,
            "time": 37.170996875,
            "velocity": 0.3937007874015748
          },
          {
            "duration": 0.06578937499999427,
            "durationTicks": 48,
            "midi": 79,
            "name": "G5",
            "ticks": 27168,
            "time": 37.23678625,
            "velocity": 0.3937007874015748
          },
          {
            "duration": 0.06578937499999427,
            "durationTicks": 48,
            "midi": 55,
            "name": "G3",
            "ticks": 27168,
            "time": 37.23678625,
            "velocity": 0.3937007874015748
          },
          {
            "duration": 0.06578937500000137,
            "durationTicks": 48,
            "midi": 55,
            "name": "G3",
            "ticks": 27216,
            "time": 37.302575624999996,
            "velocity": 0.3937007874015748
          },
          {
            "duration": 0.06578937500000137,
            "durationTicks": 48,
            "midi": 79,
            "name": "G5",
            "ticks": 27216,
            "time": 37.302575624999996,
            "velocity": 0.3937007874015748
          },
          {
            "duration": 0.2631574999999984,
            "durationTicks": 192,
            "midi": 53,
            "name": "F3",
            "ticks": 27264,
            "time": 37.368365,
            "velocity": 0.3937007874015748
          },
          {
            "duration": 0.2631574999999984,
            "durationTicks": 192,
            "midi": 77,
            "name": "F5",
            "ticks": 27264,
            "time": 37.368365,
            "velocity": 0.3937007874015748
          },
          {
            "duration": 0.2631575000000055,
            "durationTicks": 192,
            "midi": 51,
            "name": "D#3",
            "ticks": 27456,
            "time": 37.631522499999996,
            "velocity": 0.3937007874015748
          },
          {
            "duration": 0.2631575000000055,
            "durationTicks": 192,
            "midi": 75,
            "name": "D#5",
            "ticks": 27456,
            "time": 37.631522499999996,
            "velocity": 0.3937007874015748
          },
          {
            "duration": 0.13157874999999564,
            "durationTicks": 96,
            "midi": 70,
            "name": "A#4",
            "ticks": 27840,
            "time": 38.1578375,
            "velocity": 0.3937007874015748
          },
          {
            "duration": 0.13157874999999564,
            "durationTicks": 96,
            "midi": 46,
            "name": "A#2",
            "ticks": 27840,
            "time": 38.1578375,
            "velocity": 0.3937007874015748
          },
          {
            "duration": 0.13157875000000274,
            "durationTicks": 96,
            "midi": 48,
            "name": "C3",
            "ticks": 27936,
            "time": 38.289416249999995,
            "velocity": 0.3937007874015748
          },
          {
            "duration": 0.13157875000000274,
            "durationTicks": 96,
            "midi": 72,
            "name": "C5",
            "ticks": 27936,
            "time": 38.289416249999995,
            "velocity": 0.3937007874015748
          },
          {
            "duration": 0.2631574999999984,
            "durationTicks": 192,
            "midi": 51,
            "name": "D#3",
            "ticks": 28032,
            "time": 38.420995,
            "velocity": 0.3937007874015748
          },
          {
            "duration": 0.2631574999999984,
            "durationTicks": 192,
            "midi": 75,
            "name": "D#5",
            "ticks": 28032,
            "time": 38.420995,
            "velocity": 0.3937007874015748
          },
          {
            "duration": 0.2631575000000055,
            "durationTicks": 192,
            "midi": 53,
            "name": "F3",
            "ticks": 28224,
            "time": 38.684152499999996,
            "velocity": 0.3937007874015748
          },
          {
            "duration": 0.2631575000000055,
            "durationTicks": 192,
            "midi": 77,
            "name": "F5",
            "ticks": 28224,
            "time": 38.684152499999996,
            "velocity": 0.3937007874015748
          },
          {
            "duration": 0.2631574999999984,
            "durationTicks": 192,
            "midi": 51,
            "name": "D#3",
            "ticks": 28416,
            "time": 38.94731,
            "velocity": 0.3937007874015748
          },
          {
            "duration": 0.2631574999999984,
            "durationTicks": 192,
            "midi": 75,
            "name": "D#5",
            "ticks": 28416,
            "time": 38.94731,
            "velocity": 0.3937007874015748
          },
          {
            "duration": 0.2631574999999984,
            "durationTicks": 192,
            "midi": 48,
            "name": "C3",
            "ticks": 28608,
            "time": 39.2104675,
            "velocity": 0.3937007874015748
          },
          {
            "duration": 0.2631574999999984,
            "durationTicks": 192,
            "midi": 72,
            "name": "C5",
            "ticks": 28608,
            "time": 39.2104675,
            "velocity": 0.3937007874015748
          },
          {
            "duration": 0.3947362500000011,
            "durationTicks": 288,
            "midi": 51,
            "name": "D#3",
            "ticks": 28800,
            "time": 39.473625,
            "velocity": 0.3937007874015748
          },
          {
            "duration": 0.3947362500000011,
            "durationTicks": 288,
            "midi": 75,
            "name": "D#5",
            "ticks": 28800,
            "time": 39.473625,
            "velocity": 0.3937007874015748
          },
          {
            "duration": 0.23026281250000125,
            "durationTicks": 168,
            "midi": 79,
            "name": "G5",
            "ticks": 29184,
            "time": 39.999939999999995,
            "velocity": 0.3937007874015748
          },
          {
            "duration": 0.23026281250000125,
            "durationTicks": 168,
            "midi": 55,
            "name": "G3",
            "ticks": 29184,
            "time": 39.999939999999995,
            "velocity": 0.3937007874015748
          },
          {
            "duration": 0.23026281249999414,
            "durationTicks": 168,
            "midi": 54,
            "name": "F#3",
            "ticks": 29376,
            "time": 40.2630975,
            "velocity": 0.3937007874015748
          },
          {
            "duration": 0.23026281249999414,
            "durationTicks": 168,
            "midi": 78,
            "name": "F#5",
            "ticks": 29376,
            "time": 40.2630975,
            "velocity": 0.3937007874015748
          },
          {
            "duration": 0.23026281250000125,
            "durationTicks": 168,
            "midi": 77,
            "name": "F5",
            "ticks": 29568,
            "time": 40.526255,
            "velocity": 0.3937007874015748
          },
          {
            "duration": 0.23026281250000125,
            "durationTicks": 168,
            "midi": 53,
            "name": "F3",
            "ticks": 29568,
            "time": 40.526255,
            "velocity": 0.3937007874015748
          },
          {
            "duration": 0.2631574999999984,
            "durationTicks": 192,
            "midi": 78,
            "name": "F#5",
            "ticks": 29760,
            "time": 40.7894125,
            "velocity": 0.3937007874015748
          },
          {
            "duration": 0.2631574999999984,
            "durationTicks": 192,
            "midi": 54,
            "name": "F#3",
            "ticks": 29760,
            "time": 40.7894125,
            "velocity": 0.3937007874015748
          },
          {
            "duration": 0.03289468750000424,
            "durationTicks": 24,
            "midi": 55,
            "name": "G3",
            "ticks": 29952,
            "time": 41.052569999999996,
            "velocity": 0.3937007874015748
          },
          {
            "duration": 0.03289468750000424,
            "durationTicks": 24,
            "midi": 79,
            "name": "G5",
            "ticks": 29952,
            "time": 41.052569999999996,
            "velocity": 0.3937007874015748
          },
          {
            "duration": 0.03289468750000424,
            "durationTicks": 24,
            "midi": 55,
            "name": "G3",
            "ticks": 30000,
            "time": 41.118359375,
            "velocity": 0.3937007874015748
          },
          {
            "duration": 0.03289468750000424,
            "durationTicks": 24,
            "midi": 79,
            "name": "G5",
            "ticks": 30000,
            "time": 41.118359375,
            "velocity": 0.3937007874015748
          },
          {
            "duration": 0.0986840624999985,
            "durationTicks": 72,
            "midi": 79,
            "name": "G5",
            "ticks": 30048,
            "time": 41.18414875,
            "velocity": 0.3937007874015748
          },
          {
            "duration": 0.0986840624999985,
            "durationTicks": 72,
            "midi": 55,
            "name": "G3",
            "ticks": 30048,
            "time": 41.18414875,
            "velocity": 0.3937007874015748
          },
          {
            "duration": 0.0986840624999985,
            "durationTicks": 72,
            "midi": 79,
            "name": "G5",
            "ticks": 30144,
            "time": 41.3157275,
            "velocity": 0.3937007874015748
          },
          {
            "duration": 0.0986840624999985,
            "durationTicks": 72,
            "midi": 55,
            "name": "G3",
            "ticks": 30144,
            "time": 41.3157275,
            "velocity": 0.3937007874015748
          },
          {
            "duration": 0.0986840624999985,
            "durationTicks": 72,
            "midi": 79,
            "name": "G5",
            "ticks": 30240,
            "time": 41.44730625,
            "velocity": 0.3937007874015748
          },
          {
            "duration": 0.0986840624999985,
            "durationTicks": 72,
            "midi": 55,
            "name": "G3",
            "ticks": 30240,
            "time": 41.44730625,
            "velocity": 0.3937007874015748
          },
          {
            "duration": 0.197368124999997,
            "durationTicks": 144,
            "midi": 77,
            "name": "F5",
            "ticks": 30336,
            "time": 41.578885,
            "velocity": 0.3937007874015748
          },
          {
            "duration": 0.197368124999997,
            "durationTicks": 144,
            "midi": 53,
            "name": "F3",
            "ticks": 30336,
            "time": 41.578885,
            "velocity": 0.3937007874015748
          },
          {
            "duration": 0.197368124999997,
            "durationTicks": 144,
            "midi": 51,
            "name": "D#3",
            "ticks": 30528,
            "time": 41.8420425,
            "velocity": 0.3937007874015748
          },
          {
            "duration": 0.197368124999997,
            "durationTicks": 144,
            "midi": 75,
            "name": "D#5",
            "ticks": 30528,
            "time": 41.8420425,
            "velocity": 0.3937007874015748
          },
          {
            "duration": 0.13157875000000274,
            "durationTicks": 96,
            "midi": 84,
            "name": "C6",
            "ticks": 30912,
            "time": 42.368357499999995,
            "velocity": 0.3937007874015748
          },
          {
            "duration": 0.13157875000000274,
            "durationTicks": 96,
            "midi": 60,
            "name": "C4",
            "ticks": 30912,
            "time": 42.368357499999995,
            "velocity": 0.3937007874015748
          },
          {
            "duration": 0.13157875000000274,
            "durationTicks": 96,
            "midi": 59,
            "name": "B3",
            "ticks": 31008,
            "time": 42.49993625,
            "velocity": 0.3937007874015748
          },
          {
            "duration": 0.13157875000000274,
            "durationTicks": 96,
            "midi": 83,
            "name": "B5",
            "ticks": 31008,
            "time": 42.49993625,
            "velocity": 0.3937007874015748
          },
          {
            "duration": 0.2631574999999984,
            "durationTicks": 192,
            "midi": 82,
            "name": "A#5",
            "ticks": 31104,
            "time": 42.631515,
            "velocity": 0.3937007874015748
          },
          {
            "duration": 0.2631574999999984,
            "durationTicks": 192,
            "midi": 58,
            "name": "A#3",
            "ticks": 31104,
            "time": 42.631515,
            "velocity": 0.3937007874015748
          },
          {
            "duration": 0.13157875000000274,
            "durationTicks": 96,
            "midi": 79,
            "name": "G5",
            "ticks": 31296,
            "time": 42.8946725,
            "velocity": 0.3937007874015748
          },
          {
            "duration": 0.13157875000000274,
            "durationTicks": 96,
            "midi": 55,
            "name": "G3",
            "ticks": 31296,
            "time": 42.8946725,
            "velocity": 0.3937007874015748
          },
          {
            "duration": 0.13157874999999564,
            "durationTicks": 96,
            "midi": 78,
            "name": "F#5",
            "ticks": 31392,
            "time": 43.02625125,
            "velocity": 0.3937007874015748
          },
          {
            "duration": 0.13157874999999564,
            "durationTicks": 96,
            "midi": 54,
            "name": "F#3",
            "ticks": 31392,
            "time": 43.02625125,
            "velocity": 0.3937007874015748
          },
          {
            "duration": 0.3947362500000011,
            "durationTicks": 288,
            "midi": 77,
            "name": "F5",
            "ticks": 31488,
            "time": 43.15783,
            "velocity": 0.3937007874015748
          },
          {
            "duration": 0.3947362500000011,
            "durationTicks": 288,
            "midi": 53,
            "name": "F3",
            "ticks": 31488,
            "time": 43.15783,
            "velocity": 0.3937007874015748
          },
          {
            "duration": 0.13157875000000274,
            "durationTicks": 96,
            "midi": 75,
            "name": "D#5",
            "ticks": 31776,
            "time": 43.55256625,
            "velocity": 0.3937007874015748
          },
          {
            "duration": 0.13157875000000274,
            "durationTicks": 96,
            "midi": 51,
            "name": "D#3",
            "ticks": 31776,
            "time": 43.55256625,
            "velocity": 0.3937007874015748
          },
          {
            "duration": 0.5263149999999968,
            "durationTicks": 384,
            "midi": 72,
            "name": "C5",
            "ticks": 31872,
            "time": 43.684145,
            "velocity": 0.3937007874015748
          },
          {
            "duration": 0.5263149999999968,
            "durationTicks": 384,
            "midi": 48,
            "name": "C3",
            "ticks": 31872,
            "time": 43.684145,
            "velocity": 0.3937007874015748
          },
          {
            "duration": 0.2631574999999984,
            "durationTicks": 192,
            "midi": 72,
            "name": "C5",
            "ticks": 32256,
            "time": 44.21046,
            "velocity": 0.3937007874015748
          },
          {
            "duration": 0.2631574999999984,
            "durationTicks": 192,
            "midi": 54,
            "name": "F#3",
            "ticks": 32256,
            "time": 44.21046,
            "velocity": 0.3937007874015748
          },
          {
            "duration": 0.2631574999999984,
            "durationTicks": 192,
            "midi": 69,
            "name": "A4",
            "ticks": 32256,
            "time": 44.21046,
            "velocity": 0.3937007874015748
          },
          {
            "duration": 0.2631574999999984,
            "durationTicks": 192,
            "midi": 78,
            "name": "F#5",
            "ticks": 32256,
            "time": 44.21046,
            "velocity": 0.3937007874015748
          },
          {
            "duration": 0.13157875000000274,
            "durationTicks": 96,
            "midi": 75,
            "name": "D#5",
            "ticks": 32448,
            "time": 44.473617499999996,
            "velocity": 0.3937007874015748
          },
          {
            "duration": 0.13157875000000274,
            "durationTicks": 96,
            "midi": 51,
            "name": "D#3",
            "ticks": 32448,
            "time": 44.473617499999996,
            "velocity": 0.3937007874015748
          },
          {
            "duration": 0.2631574999999984,
            "durationTicks": 192,
            "midi": 75,
            "name": "D#5",
            "ticks": 32544,
            "time": 44.60519625,
            "velocity": 0.3937007874015748
          },
          {
            "duration": 0.2631574999999984,
            "durationTicks": 192,
            "midi": 72,
            "name": "C5",
            "ticks": 32544,
            "time": 44.60519625,
            "velocity": 0.3937007874015748
          },
          {
            "duration": 0.2631574999999984,
            "durationTicks": 192,
            "midi": 54,
            "name": "F#3",
            "ticks": 32544,
            "time": 44.60519625,
            "velocity": 0.3937007874015748
          },
          {
            "duration": 0.2631574999999984,
            "durationTicks": 192,
            "midi": 78,
            "name": "F#5",
            "ticks": 32544,
            "time": 44.60519625,
            "velocity": 0.3937007874015748
          },
          {
            "duration": 0.13157875000000274,
            "durationTicks": 96,
            "midi": 51,
            "name": "D#3",
            "ticks": 32736,
            "time": 44.86835375,
            "velocity": 0.3937007874015748
          },
          {
            "duration": 0.13157875000000274,
            "durationTicks": 96,
            "midi": 75,
            "name": "D#5",
            "ticks": 32736,
            "time": 44.86835375,
            "velocity": 0.3937007874015748
          },
          {
            "duration": 0.2631574999999984,
            "durationTicks": 192,
            "midi": 54,
            "name": "F#3",
            "ticks": 32832,
            "time": 44.9999325,
            "velocity": 0.3937007874015748
          },
          {
            "duration": 0.2631574999999984,
            "durationTicks": 192,
            "midi": 69,
            "name": "A4",
            "ticks": 32832,
            "time": 44.9999325,
            "velocity": 0.3937007874015748
          },
          {
            "duration": 0.2631574999999984,
            "durationTicks": 192,
            "midi": 72,
            "name": "C5",
            "ticks": 32832,
            "time": 44.9999325,
            "velocity": 0.3937007874015748
          },
          {
            "duration": 0.2631574999999984,
            "durationTicks": 192,
            "midi": 78,
            "name": "F#5",
            "ticks": 32832,
            "time": 44.9999325,
            "velocity": 0.3937007874015748
          },
          {
            "duration": 1.0526300000000006,
            "durationTicks": 768,
            "midi": 71,
            "name": "B4",
            "ticks": 33024,
            "time": 45.26309,
            "velocity": 0.3937007874015748
          },
          {
            "duration": 0.13157875000000274,
            "durationTicks": 96,
            "midi": 55,
            "name": "G3",
            "ticks": 33024,
            "time": 45.26309,
            "velocity": 0.3937007874015748
          },
          {
            "duration": 0.13157875000000274,
            "durationTicks": 96,
            "midi": 79,
            "name": "G5",
            "ticks": 33024,
            "time": 45.26309,
            "velocity": 0.3937007874015748
          },
          {
            "duration": 0.13157874999999564,
            "durationTicks": 96,
            "midi": 55,
            "name": "G3",
            "ticks": 33120,
            "time": 45.39466875,
            "velocity": 0.3937007874015748
          },
          {
            "duration": 0.13157874999999564,
            "durationTicks": 96,
            "midi": 79,
            "name": "G5",
            "ticks": 33120,
            "time": 45.39466875,
            "velocity": 0.3937007874015748
          },
          {
            "duration": 0.13157875000000274,
            "durationTicks": 96,
            "midi": 55,
            "name": "G3",
            "ticks": 33216,
            "time": 45.5262475,
            "velocity": 0.3937007874015748
          },
          {
            "duration": 0.13157875000000274,
            "durationTicks": 96,
            "midi": 79,
            "name": "G5",
            "ticks": 33216,
            "time": 45.5262475,
            "velocity": 0.3937007874015748
          },
          {
            "duration": 0.13157874999999564,
            "durationTicks": 96,
            "midi": 79,
            "name": "G5",
            "ticks": 33312,
            "time": 45.65782625,
            "velocity": 0.3937007874015748
          },
          {
            "duration": 0.13157874999999564,
            "durationTicks": 96,
            "midi": 55,
            "name": "G3",
            "ticks": 33312,
            "time": 45.65782625,
            "velocity": 0.3937007874015748
          },
          {
            "duration": 0.2631575000000055,
            "durationTicks": 192,
            "midi": 77,
            "name": "F5",
            "ticks": 33408,
            "time": 45.789404999999995,
            "velocity": 0.3937007874015748
          },
          {
            "duration": 0.2631575000000055,
            "durationTicks": 192,
            "midi": 53,
            "name": "F3",
            "ticks": 33408,
            "time": 45.789404999999995,
            "velocity": 0.3937007874015748
          },
          {
            "duration": 0.2631575000000055,
            "durationTicks": 192,
            "midi": 74,
            "name": "D5",
            "ticks": 33408,
            "time": 45.789404999999995,
            "velocity": 0.3937007874015748
          },
          {
            "duration": 0.2631574999999984,
            "durationTicks": 192,
            "midi": 75,
            "name": "D#5",
            "ticks": 33600,
            "time": 46.0525625,
            "velocity": 0.3937007874015748
          },
          {
            "duration": 0.2631574999999984,
            "durationTicks": 192,
            "midi": 51,
            "name": "D#3",
            "ticks": 33600,
            "time": 46.0525625,
            "velocity": 0.3937007874015748
          },
          {
            "duration": 0.13157875000000274,
            "durationTicks": 96,
            "midi": 70,
            "name": "A#4",
            "ticks": 33984,
            "time": 46.5788775,
            "velocity": 0.3937007874015748
          },
          {
            "duration": 0.13157875000000274,
            "durationTicks": 96,
            "midi": 46,
            "name": "A#2",
            "ticks": 33984,
            "time": 46.5788775,
            "velocity": 0.3937007874015748
          },
          {
            "duration": 0.13157874999999564,
            "durationTicks": 96,
            "midi": 72,
            "name": "C5",
            "ticks": 34080,
            "time": 46.71045625,
            "velocity": 0.3937007874015748
          },
          {
            "duration": 0.13157874999999564,
            "durationTicks": 96,
            "midi": 48,
            "name": "C3",
            "ticks": 34080,
            "time": 46.71045625,
            "velocity": 0.3937007874015748
          },
          {
            "duration": 0.2631575000000055,
            "durationTicks": 192,
            "midi": 75,
            "name": "D#5",
            "ticks": 34176,
            "time": 46.842034999999996,
            "velocity": 0.3937007874015748
          },
          {
            "duration": 0.2631575000000055,
            "durationTicks": 192,
            "midi": 51,
            "name": "D#3",
            "ticks": 34176,
            "time": 46.842034999999996,
            "velocity": 0.3937007874015748
          },
          {
            "duration": 0.2631574999999984,
            "durationTicks": 192,
            "midi": 53,
            "name": "F3",
            "ticks": 34368,
            "time": 47.1051925,
            "velocity": 0.3937007874015748
          },
          {
            "duration": 0.2631574999999984,
            "durationTicks": 192,
            "midi": 77,
            "name": "F5",
            "ticks": 34368,
            "time": 47.1051925,
            "velocity": 0.3937007874015748
          },
          {
            "duration": 0.06578937500000137,
            "durationTicks": 48,
            "midi": 51,
            "name": "D#3",
            "ticks": 34560,
            "time": 47.36835,
            "velocity": 0.3937007874015748
          },
          {
            "duration": 0.06578937500000137,
            "durationTicks": 48,
            "midi": 75,
            "name": "D#5",
            "ticks": 34560,
            "time": 47.36835,
            "velocity": 0.3937007874015748
          },
          {
            "duration": 0.03289468750000424,
            "durationTicks": 24,
            "midi": 51,
            "name": "D#3",
            "ticks": 34656,
            "time": 47.499928749999995,
            "velocity": 0.3937007874015748
          },
          {
            "duration": 0.03289468750000424,
            "durationTicks": 24,
            "midi": 75,
            "name": "D#5",
            "ticks": 34656,
            "time": 47.499928749999995,
            "velocity": 0.3937007874015748
          },
          {
            "duration": 0.03289468750000424,
            "durationTicks": 24,
            "midi": 51,
            "name": "D#3",
            "ticks": 34704,
            "time": 47.565718125,
            "velocity": 0.3937007874015748
          },
          {
            "duration": 0.03289468750000424,
            "durationTicks": 24,
            "midi": 75,
            "name": "D#5",
            "ticks": 34704,
            "time": 47.565718125,
            "velocity": 0.3937007874015748
          },
          {
            "duration": 0.13157875000000274,
            "durationTicks": 96,
            "midi": 51,
            "name": "D#3",
            "ticks": 34752,
            "time": 47.6315075,
            "velocity": 0.3937007874015748
          },
          {
            "duration": 0.13157875000000274,
            "durationTicks": 96,
            "midi": 75,
            "name": "D#5",
            "ticks": 34752,
            "time": 47.6315075,
            "velocity": 0.3937007874015748
          },
          {
            "duration": 0.1973681250000041,
            "durationTicks": 144,
            "midi": 51,
            "name": "D#3",
            "ticks": 34944,
            "time": 47.894664999999996,
            "velocity": 0.3937007874015748
          },
          {
            "duration": 0.1973681250000041,
            "durationTicks": 144,
            "midi": 75,
            "name": "D#5",
            "ticks": 34944,
            "time": 47.894664999999996,
            "velocity": 0.3937007874015748
          },
          {
            "duration": 0.3947362500000011,
            "durationTicks": 288,
            "midi": 55,
            "name": "G3",
            "ticks": 35328,
            "time": 48.42098,
            "velocity": 0.3937007874015748
          },
          {
            "duration": 0.3947362500000011,
            "durationTicks": 288,
            "midi": 79,
            "name": "G5",
            "ticks": 35328,
            "time": 48.42098,
            "velocity": 0.3937007874015748
          },
          {
            "duration": 0.3947362500000011,
            "durationTicks": 288,
            "midi": 55,
            "name": "G3",
            "ticks": 35712,
            "time": 48.947295,
            "velocity": 0.3937007874015748
          },
          {
            "duration": 0.3947362500000011,
            "durationTicks": 288,
            "midi": 79,
            "name": "G5",
            "ticks": 35712,
            "time": 48.947295,
            "velocity": 0.3937007874015748
          },
          {
            "duration": 0.394736249999994,
            "durationTicks": 288,
            "midi": 82,
            "name": "A#5",
            "ticks": 36096,
            "time": 49.47361,
            "velocity": 0.3937007874015748
          },
          {
            "duration": 0.394736249999994,
            "durationTicks": 288,
            "midi": 58,
            "name": "A#3",
            "ticks": 36096,
            "time": 49.47361,
            "velocity": 0.3937007874015748
          },
          {
            "duration": 0.3947362500000011,
            "durationTicks": 288,
            "midi": 84,
            "name": "C6",
            "ticks": 36480,
            "time": 49.999925,
            "velocity": 0.3937007874015748
          },
          {
            "duration": 0.3947362500000011,
            "durationTicks": 288,
            "midi": 60,
            "name": "C4",
            "ticks": 36480,
            "time": 49.999925,
            "velocity": 0.3937007874015748
          },
          {
            "duration": 0.197368124999997,
            "durationTicks": 144,
            "midi": 53,
            "name": "F3",
            "ticks": 37248,
            "time": 51.052555,
            "velocity": 0.3937007874015748
          },
          {
            "duration": 0.1973681250000041,
            "durationTicks": 144,
            "midi": 48,
            "name": "C3",
            "ticks": 37440,
            "time": 51.3157125,
            "velocity": 0.3937007874015748
          },
          {
            "duration": 0.1973681250000041,
            "durationTicks": 144,
            "midi": 53,
            "name": "F3",
            "ticks": 37632,
            "time": 51.578869999999995,
            "velocity": 0.3937007874015748
          },
          {
            "duration": 0.197368124999997,
            "durationTicks": 144,
            "midi": 51,
            "name": "D#3",
            "ticks": 37824,
            "time": 51.8420275,
            "velocity": 0.3937007874015748
          },
          {
            "duration": 0.197368124999997,
            "durationTicks": 144,
            "midi": 53,
            "name": "F3",
            "ticks": 38016,
            "time": 52.105185,
            "velocity": 0.3937007874015748
          },
          {
            "duration": 0.13157875000000274,
            "durationTicks": 96,
            "midi": 55,
            "name": "G3",
            "ticks": 38208,
            "time": 52.3683425,
            "velocity": 0.3937007874015748
          },
          {
            "duration": 0.3947362500000011,
            "durationTicks": 288,
            "midi": 51,
            "name": "D#3",
            "ticks": 38304,
            "time": 52.49992125,
            "velocity": 0.3937007874015748
          },
          {
            "duration": 0.197368124999997,
            "durationTicks": 144,
            "midi": 53,
            "name": "F3",
            "ticks": 38784,
            "time": 53.157815,
            "velocity": 0.3937007874015748
          },
          {
            "duration": 0.3947362500000011,
            "durationTicks": 288,
            "midi": 51,
            "name": "D#3",
            "ticks": 38976,
            "time": 53.4209725,
            "velocity": 0.3937007874015748
          },
          {
            "duration": 0.197368124999997,
            "durationTicks": 144,
            "midi": 55,
            "name": "G3",
            "ticks": 39552,
            "time": 54.210445,
            "velocity": 0.3937007874015748
          },
          {
            "duration": 0.3947362500000011,
            "durationTicks": 288,
            "midi": 51,
            "name": "D#3",
            "ticks": 39744,
            "time": 54.4736025,
            "velocity": 0.3937007874015748
          },
          {
            "duration": 0.197368124999997,
            "durationTicks": 144,
            "midi": 53,
            "name": "F3",
            "ticks": 40320,
            "time": 55.263075,
            "velocity": 0.3937007874015748
          },
          {
            "duration": 0.197368124999997,
            "durationTicks": 144,
            "midi": 51,
            "name": "D#3",
            "ticks": 40512,
            "time": 55.5262325,
            "velocity": 0.3937007874015748
          },
          {
            "duration": 0.197368124999997,
            "durationTicks": 144,
            "midi": 53,
            "name": "F3",
            "ticks": 40704,
            "time": 55.78939,
            "velocity": 0.3937007874015748
          },
          {
            "duration": 0.1973681250000041,
            "durationTicks": 144,
            "midi": 51,
            "name": "D#3",
            "ticks": 40896,
            "time": 56.052547499999996,
            "velocity": 0.3937007874015748
          },
          {
            "duration": 0.13157875000000274,
            "durationTicks": 96,
            "midi": 53,
            "name": "F3",
            "ticks": 41088,
            "time": 56.315704999999994,
            "velocity": 0.3937007874015748
          },
          {
            "duration": 0.1973681250000041,
            "durationTicks": 144,
            "midi": 55,
            "name": "G3",
            "ticks": 41184,
            "time": 56.44728375,
            "velocity": 0.3937007874015748
          },
          {
            "duration": 0.3947362500000011,
            "durationTicks": 288,
            "midi": 51,
            "name": "D#3",
            "ticks": 41376,
            "time": 56.710441249999995,
            "velocity": 0.3937007874015748
          },
          {
            "duration": 0.1973681250000041,
            "durationTicks": 144,
            "midi": 53,
            "name": "F3",
            "ticks": 41856,
            "time": 57.368334999999995,
            "velocity": 0.3937007874015748
          },
          {
            "duration": 0.394736249999994,
            "durationTicks": 288,
            "midi": 51,
            "name": "D#3",
            "ticks": 42048,
            "time": 57.6314925,
            "velocity": 0.3937007874015748
          },
          {
            "duration": 0.1973681250000041,
            "durationTicks": 144,
            "midi": 55,
            "name": "G3",
            "ticks": 42624,
            "time": 58.420964999999995,
            "velocity": 0.3937007874015748
          },
          {
            "duration": 0.394736249999994,
            "durationTicks": 288,
            "midi": 51,
            "name": "D#3",
            "ticks": 42816,
            "time": 58.6841225,
            "velocity": 0.3937007874015748
          },
          {
            "duration": 1.0526300000000006,
            "durationTicks": 768,
            "midi": 80,
            "name": "G#5",
            "ticks": 43008,
            "time": 58.94728,
            "velocity": 0.3937007874015748
          },
          {
            "duration": 1.0526300000000006,
            "durationTicks": 768,
            "midi": 77,
            "name": "F5",
            "ticks": 43008,
            "time": 58.94728,
            "velocity": 0.3937007874015748
          },
          {
            "duration": 1.0526300000000006,
            "durationTicks": 768,
            "midi": 65,
            "name": "F4",
            "ticks": 43008,
            "time": 58.94728,
            "velocity": 0.3937007874015748
          },
          {
            "duration": 1.0526300000000006,
            "durationTicks": 768,
            "midi": 72,
            "name": "C5",
            "ticks": 43008,
            "time": 58.94728,
            "velocity": 0.3937007874015748
          },
          {
            "duration": 0.5263150000000039,
            "durationTicks": 384,
            "midi": 55,
            "name": "G3",
            "ticks": 43392,
            "time": 59.473594999999996,
            "velocity": 0.3937007874015748
          },
          {
            "duration": 1.0526300000000006,
            "durationTicks": 768,
            "midi": 80,
            "name": "G#5",
            "ticks": 43776,
            "time": 59.99991,
            "velocity": 0.3937007874015748
          },
          {
            "duration": 1.0526300000000006,
            "durationTicks": 768,
            "midi": 63,
            "name": "D#4",
            "ticks": 43776,
            "time": 59.99991,
            "velocity": 0.3937007874015748
          },
          {
            "duration": 1.0526300000000006,
            "durationTicks": 768,
            "midi": 75,
            "name": "D#5",
            "ticks": 43776,
            "time": 59.99991,
            "velocity": 0.3937007874015748
          },
          {
            "duration": 1.0526300000000006,
            "durationTicks": 768,
            "midi": 72,
            "name": "C5",
            "ticks": 43776,
            "time": 59.99991,
            "velocity": 0.3937007874015748
          },
          {
            "duration": 0.5263149999999968,
            "durationTicks": 384,
            "midi": 53,
            "name": "F3",
            "ticks": 43776,
            "time": 59.99991,
            "velocity": 0.3937007874015748
          },
          {
            "duration": 0.5263150000000039,
            "durationTicks": 384,
            "midi": 51,
            "name": "D#3",
            "ticks": 44160,
            "time": 60.526225,
            "velocity": 0.3937007874015748
          },
          {
            "duration": 1.0526299999999935,
            "durationTicks": 768,
            "midi": 69,
            "name": "A4",
            "ticks": 44544,
            "time": 61.05254,
            "velocity": 0.3937007874015748
          },
          {
            "duration": 1.0526299999999935,
            "durationTicks": 768,
            "midi": 78,
            "name": "F#5",
            "ticks": 44544,
            "time": 61.05254,
            "velocity": 0.3937007874015748
          },
          {
            "duration": 1.0526299999999935,
            "durationTicks": 768,
            "midi": 74,
            "name": "D5",
            "ticks": 44544,
            "time": 61.05254,
            "velocity": 0.3937007874015748
          },
          {
            "duration": 0.5263149999999968,
            "durationTicks": 384,
            "midi": 53,
            "name": "F3",
            "ticks": 44544,
            "time": 61.05254,
            "velocity": 0.3937007874015748
          },
          {
            "duration": 1.0526299999999935,
            "durationTicks": 768,
            "midi": 84,
            "name": "C6",
            "ticks": 44544,
            "time": 61.05254,
            "velocity": 0.3937007874015748
          },
          {
            "duration": 1.0526299999999935,
            "durationTicks": 768,
            "midi": 66,
            "name": "F#4",
            "ticks": 44544,
            "time": 61.05254,
            "velocity": 0.3937007874015748
          },
          {
            "duration": 0.5263149999999968,
            "durationTicks": 384,
            "midi": 55,
            "name": "G3",
            "ticks": 44928,
            "time": 61.578855,
            "velocity": 0.3937007874015748
          },
          {
            "duration": 1.0526300000000006,
            "durationTicks": 768,
            "midi": 67,
            "name": "G4",
            "ticks": 45312,
            "time": 62.105169999999994,
            "velocity": 0.3937007874015748
          },
          {
            "duration": 1.0526300000000006,
            "durationTicks": 768,
            "midi": 71,
            "name": "B4",
            "ticks": 45312,
            "time": 62.105169999999994,
            "velocity": 0.3937007874015748
          },
          {
            "duration": 1.0526300000000006,
            "durationTicks": 768,
            "midi": 77,
            "name": "F5",
            "ticks": 45312,
            "time": 62.105169999999994,
            "velocity": 0.3937007874015748
          },
          {
            "duration": 1.0526300000000006,
            "durationTicks": 768,
            "midi": 74,
            "name": "D5",
            "ticks": 45312,
            "time": 62.105169999999994,
            "velocity": 0.3937007874015748
          },
          {
            "duration": 0.5263150000000039,
            "durationTicks": 384,
            "midi": 53,
            "name": "F3",
            "ticks": 45312,
            "time": 62.105169999999994,
            "velocity": 0.3937007874015748
          },
          {
            "duration": 1.0526300000000006,
            "durationTicks": 768,
            "midi": 83,
            "name": "B5",
            "ticks": 45312,
            "time": 62.105169999999994,
            "velocity": 0.3937007874015748
          },
          {
            "duration": 0.5263149999999968,
            "durationTicks": 384,
            "midi": 50,
            "name": "D3",
            "ticks": 45696,
            "time": 62.631485,
            "velocity": 0.3937007874015748
          },
          {
            "duration": 1.0526300000000077,
            "durationTicks": 768,
            "midi": 79,
            "name": "G5",
            "ticks": 46080,
            "time": 63.157799999999995,
            "velocity": 0.3937007874015748
          },
          {
            "duration": 1.0526300000000077,
            "durationTicks": 768,
            "midi": 75,
            "name": "D#5",
            "ticks": 46080,
            "time": 63.157799999999995,
            "velocity": 0.3937007874015748
          },
          {
            "duration": 1.0526300000000077,
            "durationTicks": 768,
            "midi": 84,
            "name": "C6",
            "ticks": 46080,
            "time": 63.157799999999995,
            "velocity": 0.3937007874015748
          },
          {
            "duration": 1.0526300000000077,
            "durationTicks": 768,
            "midi": 72,
            "name": "C5",
            "ticks": 46080,
            "time": 63.157799999999995,
            "velocity": 0.3937007874015748
          },
          {
            "duration": 1.0526300000000077,
            "durationTicks": 768,
            "midi": 67,
            "name": "G4",
            "ticks": 46080,
            "time": 63.157799999999995,
            "velocity": 0.3937007874015748
          },
          {
            "duration": 0.5263150000000039,
            "durationTicks": 384,
            "midi": 51,
            "name": "D#3",
            "ticks": 46080,
            "time": 63.157799999999995,
            "velocity": 0.3937007874015748
          },
          {
            "duration": 0.2631575000000055,
            "durationTicks": 192,
            "midi": 55,
            "name": "G3",
            "ticks": 46656,
            "time": 63.9472725,
            "velocity": 0.3937007874015748
          },
          {
            "duration": 1.0526299999999935,
            "durationTicks": 768,
            "midi": 82,
            "name": "A#5",
            "ticks": 46848,
            "time": 64.21043,
            "velocity": 0.3937007874015748
          },
          {
            "duration": 1.0526299999999935,
            "durationTicks": 768,
            "midi": 75,
            "name": "D#5",
            "ticks": 46848,
            "time": 64.21043,
            "velocity": 0.3937007874015748
          },
          {
            "duration": 1.0526299999999935,
            "durationTicks": 768,
            "midi": 79,
            "name": "G5",
            "ticks": 46848,
            "time": 64.21043,
            "velocity": 0.3937007874015748
          },
          {
            "duration": 1.0526299999999935,
            "durationTicks": 768,
            "midi": 70,
            "name": "A#4",
            "ticks": 46848,
            "time": 64.21043,
            "velocity": 0.3937007874015748
          },
          {
            "duration": 1.0526299999999935,
            "durationTicks": 768,
            "midi": 87,
            "name": "D#6",
            "ticks": 46848,
            "time": 64.21043,
            "velocity": 0.3937007874015748
          },
          {
            "duration": 0.5263149999999968,
            "durationTicks": 384,
            "midi": 51,
            "name": "D#3",
            "ticks": 46848,
            "time": 64.21043,
            "velocity": 0.3937007874015748
          },
          {
            "duration": 0.2631575000000055,
            "durationTicks": 192,
            "midi": 55,
            "name": "G3",
            "ticks": 47424,
            "time": 64.99990249999999,
            "velocity": 0.3937007874015748
          },
          {
            "duration": 1.0526300000000077,
            "durationTicks": 768,
            "midi": 75,
            "name": "D#5",
            "ticks": 47616,
            "time": 65.26306,
            "velocity": 0.3937007874015748
          },
          {
            "duration": 1.0526300000000077,
            "durationTicks": 768,
            "midi": 68,
            "name": "G#4",
            "ticks": 47616,
            "time": 65.26306,
            "velocity": 0.3937007874015748
          },
          {
            "duration": 1.0526300000000077,
            "durationTicks": 768,
            "midi": 80,
            "name": "G#5",
            "ticks": 47616,
            "time": 65.26306,
            "velocity": 0.3937007874015748
          },
          {
            "duration": 1.0526300000000077,
            "durationTicks": 768,
            "midi": 84,
            "name": "C6",
            "ticks": 47616,
            "time": 65.26306,
            "velocity": 0.3937007874015748
          },
          {
            "duration": 1.0526300000000077,
            "durationTicks": 768,
            "midi": 72,
            "name": "C5",
            "ticks": 47616,
            "time": 65.26306,
            "velocity": 0.3937007874015748
          },
          {
            "duration": 0.2631575000000055,
            "durationTicks": 192,
            "midi": 51,
            "name": "D#3",
            "ticks": 47616,
            "time": 65.26306,
            "velocity": 0.3937007874015748
          },
          {
            "duration": 0.2631574999999913,
            "durationTicks": 192,
            "midi": 55,
            "name": "G3",
            "ticks": 47808,
            "time": 65.5262175,
            "velocity": 0.3937007874015748
          },
          {
            "duration": 0.2631575000000055,
            "durationTicks": 192,
            "midi": 51,
            "name": "D#3",
            "ticks": 48000,
            "time": 65.78937499999999,
            "velocity": 0.3937007874015748
          },
          {
            "duration": 0.2631575000000055,
            "durationTicks": 192,
            "midi": 55,
            "name": "G3",
            "ticks": 48192,
            "time": 66.0525325,
            "velocity": 0.3937007874015748
          },
          {
            "duration": 1.0526299999999935,
            "durationTicks": 768,
            "midi": 67,
            "name": "G4",
            "ticks": 48384,
            "time": 66.31569,
            "velocity": 0.3937007874015748
          },
          {
            "duration": 1.0526299999999935,
            "durationTicks": 768,
            "midi": 83,
            "name": "B5",
            "ticks": 48384,
            "time": 66.31569,
            "velocity": 0.3937007874015748
          },
          {
            "duration": 1.0526299999999935,
            "durationTicks": 768,
            "midi": 71,
            "name": "B4",
            "ticks": 48384,
            "time": 66.31569,
            "velocity": 0.3937007874015748
          },
          {
            "duration": 1.0526299999999935,
            "durationTicks": 768,
            "midi": 74,
            "name": "D5",
            "ticks": 48384,
            "time": 66.31569,
            "velocity": 0.3937007874015748
          },
          {
            "duration": 1.0526299999999935,
            "durationTicks": 768,
            "midi": 79,
            "name": "G5",
            "ticks": 48384,
            "time": 66.31569,
            "velocity": 0.3937007874015748
          },
          {
            "duration": 0.2631574999999913,
            "durationTicks": 192,
            "midi": 51,
            "name": "D#3",
            "ticks": 48384,
            "time": 66.31569,
            "velocity": 0.3937007874015748
          },
          {
            "duration": 0.2631575000000055,
            "durationTicks": 192,
            "midi": 48,
            "name": "C3",
            "ticks": 48576,
            "time": 66.5788475,
            "velocity": 0.3937007874015748
          },
          {
            "duration": 0.13157875000000274,
            "durationTicks": 96,
            "midi": 51,
            "name": "D#3",
            "ticks": 48768,
            "time": 66.842005,
            "velocity": 0.3937007874015748
          },
          {
            "duration": 0.19736812500001122,
            "durationTicks": 144,
            "midi": 51,
            "name": "D#3",
            "ticks": 48960,
            "time": 67.10516249999999,
            "velocity": 0.3937007874015748
          },
          {
            "duration": 0.2631575000000055,
            "durationTicks": 192,
            "midi": 55,
            "name": "G3",
            "ticks": 92160,
            "time": 126.31559999999999,
            "velocity": 0.3937007874015748
          },
          {
            "duration": 0.2631575000000055,
            "durationTicks": 192,
            "midi": 79,
            "name": "G5",
            "ticks": 92160,
            "time": 126.31559999999999,
            "velocity": 0.3937007874015748
          },
          {
            "duration": 0.2631575000000055,
            "durationTicks": 192,
            "midi": 54,
            "name": "F#3",
            "ticks": 92352,
            "time": 126.5787575,
            "velocity": 0.3937007874015748
          },
          {
            "duration": 0.2631575000000055,
            "durationTicks": 192,
            "midi": 78,
            "name": "F#5",
            "ticks": 92352,
            "time": 126.5787575,
            "velocity": 0.3937007874015748
          },
          {
            "duration": 0.2631574999999913,
            "durationTicks": 192,
            "midi": 53,
            "name": "F3",
            "ticks": 92544,
            "time": 126.841915,
            "velocity": 0.3937007874015748
          },
          {
            "duration": 0.2631574999999913,
            "durationTicks": 192,
            "midi": 77,
            "name": "F5",
            "ticks": 92544,
            "time": 126.841915,
            "velocity": 0.3937007874015748
          },
          {
            "duration": 0.2631575000000055,
            "durationTicks": 192,
            "midi": 54,
            "name": "F#3",
            "ticks": 92736,
            "time": 127.10507249999999,
            "velocity": 0.3937007874015748
          },
          {
            "duration": 0.2631575000000055,
            "durationTicks": 192,
            "midi": 78,
            "name": "F#5",
            "ticks": 92736,
            "time": 127.10507249999999,
            "velocity": 0.3937007874015748
          },
          {
            "duration": 0.2631574999999913,
            "durationTicks": 192,
            "midi": 79,
            "name": "G5",
            "ticks": 92928,
            "time": 127.36823,
            "velocity": 0.3937007874015748
          },
          {
            "duration": 0.2631574999999913,
            "durationTicks": 192,
            "midi": 55,
            "name": "G3",
            "ticks": 92928,
            "time": 127.36823,
            "velocity": 0.3937007874015748
          },
          {
            "duration": 0.2631575000000055,
            "durationTicks": 192,
            "midi": 78,
            "name": "F#5",
            "ticks": 93120,
            "time": 127.63138749999999,
            "velocity": 0.3937007874015748
          },
          {
            "duration": 0.2631575000000055,
            "durationTicks": 192,
            "midi": 54,
            "name": "F#3",
            "ticks": 93120,
            "time": 127.63138749999999,
            "velocity": 0.3937007874015748
          },
          {
            "duration": 0.2631575000000055,
            "durationTicks": 192,
            "midi": 77,
            "name": "F5",
            "ticks": 93312,
            "time": 127.894545,
            "velocity": 0.3937007874015748
          },
          {
            "duration": 0.2631575000000055,
            "durationTicks": 192,
            "midi": 53,
            "name": "F3",
            "ticks": 93312,
            "time": 127.894545,
            "velocity": 0.3937007874015748
          },
          {
            "duration": 0.2631575000000055,
            "durationTicks": 192,
            "midi": 78,
            "name": "F#5",
            "ticks": 93504,
            "time": 128.1577025,
            "velocity": 0.3937007874015748
          },
          {
            "duration": 0.2631575000000055,
            "durationTicks": 192,
            "midi": 54,
            "name": "F#3",
            "ticks": 93504,
            "time": 128.1577025,
            "velocity": 0.3937007874015748
          },
          {
            "duration": 0.394736249999994,
            "durationTicks": 288,
            "midi": 51,
            "name": "D#3",
            "ticks": 93696,
            "time": 128.42086,
            "velocity": 0.3937007874015748
          },
          {
            "duration": 0.394736249999994,
            "durationTicks": 288,
            "midi": 75,
            "name": "D#5",
            "ticks": 93696,
            "time": 128.42086,
            "velocity": 0.3937007874015748
          },
          {
            "duration": 0.2631575000000055,
            "durationTicks": 192,
            "midi": 48,
            "name": "C3",
            "ticks": 94080,
            "time": 128.947175,
            "velocity": 0.3937007874015748
          },
          {
            "duration": 0.2631575000000055,
            "durationTicks": 192,
            "midi": 72,
            "name": "C5",
            "ticks": 94080,
            "time": 128.947175,
            "velocity": 0.3937007874015748
          },
          {
            "duration": 0.2631575000000055,
            "durationTicks": 192,
            "midi": 51,
            "name": "D#3",
            "ticks": 94272,
            "time": 129.2103325,
            "velocity": 0.3937007874015748
          },
          {
            "duration": 0.2631575000000055,
            "durationTicks": 192,
            "midi": 75,
            "name": "D#5",
            "ticks": 94272,
            "time": 129.2103325,
            "velocity": 0.3937007874015748
          },
          {
            "duration": 0.2631575000000055,
            "durationTicks": 192,
            "midi": 55,
            "name": "G3",
            "ticks": 94464,
            "time": 129.47349,
            "velocity": 0.3937007874015748
          },
          {
            "duration": 0.2631575000000055,
            "durationTicks": 192,
            "midi": 79,
            "name": "G5",
            "ticks": 94464,
            "time": 129.47349,
            "velocity": 0.3937007874015748
          },
          {
            "duration": 0.26315749999997706,
            "durationTicks": 192,
            "midi": 78,
            "name": "F#5",
            "ticks": 94656,
            "time": 129.7366475,
            "velocity": 0.3937007874015748
          },
          {
            "duration": 0.26315749999997706,
            "durationTicks": 192,
            "midi": 54,
            "name": "F#3",
            "ticks": 94656,
            "time": 129.7366475,
            "velocity": 0.3937007874015748
          },
          {
            "duration": 0.2631575000000055,
            "durationTicks": 192,
            "midi": 77,
            "name": "F5",
            "ticks": 94848,
            "time": 129.99980499999998,
            "velocity": 0.3937007874015748
          },
          {
            "duration": 0.2631575000000055,
            "durationTicks": 192,
            "midi": 53,
            "name": "F3",
            "ticks": 94848,
            "time": 129.99980499999998,
            "velocity": 0.3937007874015748
          },
          {
            "duration": 0.2631575000000055,
            "durationTicks": 192,
            "midi": 54,
            "name": "F#3",
            "ticks": 95040,
            "time": 130.2629625,
            "velocity": 0.3937007874015748
          },
          {
            "duration": 0.2631575000000055,
            "durationTicks": 192,
            "midi": 78,
            "name": "F#5",
            "ticks": 95040,
            "time": 130.2629625,
            "velocity": 0.3937007874015748
          },
          {
            "duration": 0.2631575000000055,
            "durationTicks": 192,
            "midi": 55,
            "name": "G3",
            "ticks": 95232,
            "time": 130.52612,
            "velocity": 0.3937007874015748
          },
          {
            "duration": 0.2631575000000055,
            "durationTicks": 192,
            "midi": 79,
            "name": "G5",
            "ticks": 95232,
            "time": 130.52612,
            "velocity": 0.3937007874015748
          },
          {
            "duration": 0.2631575000000055,
            "durationTicks": 192,
            "midi": 54,
            "name": "F#3",
            "ticks": 95424,
            "time": 130.7892775,
            "velocity": 0.3937007874015748
          },
          {
            "duration": 0.2631575000000055,
            "durationTicks": 192,
            "midi": 78,
            "name": "F#5",
            "ticks": 95424,
            "time": 130.7892775,
            "velocity": 0.3937007874015748
          },
          {
            "duration": 0.2631575000000055,
            "durationTicks": 192,
            "midi": 77,
            "name": "F5",
            "ticks": 95616,
            "time": 131.052435,
            "velocity": 0.3937007874015748
          },
          {
            "duration": 0.2631575000000055,
            "durationTicks": 192,
            "midi": 53,
            "name": "F3",
            "ticks": 95616,
            "time": 131.052435,
            "velocity": 0.3937007874015748
          },
          {
            "duration": 0.26315749999997706,
            "durationTicks": 192,
            "midi": 78,
            "name": "F#5",
            "ticks": 95808,
            "time": 131.3155925,
            "velocity": 0.3937007874015748
          },
          {
            "duration": 0.26315749999997706,
            "durationTicks": 192,
            "midi": 54,
            "name": "F#3",
            "ticks": 95808,
            "time": 131.3155925,
            "velocity": 0.3937007874015748
          },
          {
            "duration": 0.2631575000000055,
            "durationTicks": 192,
            "midi": 79,
            "name": "G5",
            "ticks": 96000,
            "time": 131.57874999999999,
            "velocity": 0.3937007874015748
          },
          {
            "duration": 0.2631575000000055,
            "durationTicks": 192,
            "midi": 55,
            "name": "G3",
            "ticks": 96000,
            "time": 131.57874999999999,
            "velocity": 0.3937007874015748
          },
          {
            "duration": 0.2631575000000055,
            "durationTicks": 192,
            "midi": 78,
            "name": "F#5",
            "ticks": 96192,
            "time": 131.8419075,
            "velocity": 0.3937007874015748
          },
          {
            "duration": 0.2631575000000055,
            "durationTicks": 192,
            "midi": 54,
            "name": "F#3",
            "ticks": 96192,
            "time": 131.8419075,
            "velocity": 0.3937007874015748
          },
          {
            "duration": 0.2631575000000055,
            "durationTicks": 192,
            "midi": 77,
            "name": "F5",
            "ticks": 96384,
            "time": 132.105065,
            "velocity": 0.3937007874015748
          },
          {
            "duration": 0.2631575000000055,
            "durationTicks": 192,
            "midi": 53,
            "name": "F3",
            "ticks": 96384,
            "time": 132.105065,
            "velocity": 0.3937007874015748
          },
          {
            "duration": 0.2631575000000055,
            "durationTicks": 192,
            "midi": 54,
            "name": "F#3",
            "ticks": 96576,
            "time": 132.3682225,
            "velocity": 0.3937007874015748
          },
          {
            "duration": 0.2631575000000055,
            "durationTicks": 192,
            "midi": 78,
            "name": "F#5",
            "ticks": 96576,
            "time": 132.3682225,
            "velocity": 0.3937007874015748
          },
          {
            "duration": 0.394736249999994,
            "durationTicks": 288,
            "midi": 75,
            "name": "D#5",
            "ticks": 96768,
            "time": 132.63138,
            "velocity": 0.3937007874015748
          },
          {
            "duration": 0.394736249999994,
            "durationTicks": 288,
            "midi": 51,
            "name": "D#3",
            "ticks": 96768,
            "time": 132.63138,
            "velocity": 0.3937007874015748
          },
          {
            "duration": 0.2631575000000055,
            "durationTicks": 192,
            "midi": 72,
            "name": "C5",
            "ticks": 97152,
            "time": 133.157695,
            "velocity": 0.3937007874015748
          },
          {
            "duration": 0.2631575000000055,
            "durationTicks": 192,
            "midi": 48,
            "name": "C3",
            "ticks": 97152,
            "time": 133.157695,
            "velocity": 0.3937007874015748
          },
          {
            "duration": 0.2631575000000055,
            "durationTicks": 192,
            "midi": 75,
            "name": "D#5",
            "ticks": 97344,
            "time": 133.4208525,
            "velocity": 0.3937007874015748
          },
          {
            "duration": 0.2631575000000055,
            "durationTicks": 192,
            "midi": 51,
            "name": "D#3",
            "ticks": 97344,
            "time": 133.4208525,
            "velocity": 0.3937007874015748
          },
          {
            "duration": 0.2631575000000055,
            "durationTicks": 192,
            "midi": 55,
            "name": "G3",
            "ticks": 97536,
            "time": 133.68401,
            "velocity": 0.3937007874015748
          },
          {
            "duration": 0.2631575000000055,
            "durationTicks": 192,
            "midi": 79,
            "name": "G5",
            "ticks": 97536,
            "time": 133.68401,
            "velocity": 0.3937007874015748
          },
          {
            "duration": 0.26315749999997706,
            "durationTicks": 192,
            "midi": 54,
            "name": "F#3",
            "ticks": 97728,
            "time": 133.9471675,
            "velocity": 0.3937007874015748
          },
          {
            "duration": 0.26315749999997706,
            "durationTicks": 192,
            "midi": 78,
            "name": "F#5",
            "ticks": 97728,
            "time": 133.9471675,
            "velocity": 0.3937007874015748
          },
          {
            "duration": 0.2631575000000055,
            "durationTicks": 192,
            "midi": 77,
            "name": "F5",
            "ticks": 97920,
            "time": 134.21032499999998,
            "velocity": 0.3937007874015748
          },
          {
            "duration": 0.2631575000000055,
            "durationTicks": 192,
            "midi": 53,
            "name": "F3",
            "ticks": 97920,
            "time": 134.21032499999998,
            "velocity": 0.3937007874015748
          },
          {
            "duration": 0.2631575000000055,
            "durationTicks": 192,
            "midi": 54,
            "name": "F#3",
            "ticks": 98112,
            "time": 134.4734825,
            "velocity": 0.3937007874015748
          },
          {
            "duration": 0.2631575000000055,
            "durationTicks": 192,
            "midi": 78,
            "name": "F#5",
            "ticks": 98112,
            "time": 134.4734825,
            "velocity": 0.3937007874015748
          },
          {
            "duration": 0.2631575000000055,
            "durationTicks": 192,
            "midi": 48,
            "name": "C3",
            "ticks": 98304,
            "time": 134.73664,
            "velocity": 0.3937007874015748
          },
          {
            "duration": 0.2631575000000055,
            "durationTicks": 192,
            "midi": 72,
            "name": "C5",
            "ticks": 98304,
            "time": 134.73664,
            "velocity": 0.3937007874015748
          },
          {
            "duration": 0.2631575000000055,
            "durationTicks": 192,
            "midi": 71,
            "name": "B4",
            "ticks": 98496,
            "time": 134.9997975,
            "velocity": 0.3937007874015748
          },
          {
            "duration": 0.2631575000000055,
            "durationTicks": 192,
            "midi": 47,
            "name": "B2",
            "ticks": 98496,
            "time": 134.9997975,
            "velocity": 0.3937007874015748
          },
          {
            "duration": 0.26315749999997706,
            "durationTicks": 192,
            "midi": 46,
            "name": "A#2",
            "ticks": 98688,
            "time": 135.262955,
            "velocity": 0.3937007874015748
          },
          {
            "duration": 0.26315749999997706,
            "durationTicks": 192,
            "midi": 70,
            "name": "A#4",
            "ticks": 98688,
            "time": 135.262955,
            "velocity": 0.3937007874015748
          },
          {
            "duration": 0.2631575000000055,
            "durationTicks": 192,
            "midi": 71,
            "name": "B4",
            "ticks": 98880,
            "time": 135.52611249999998,
            "velocity": 0.3937007874015748
          },
          {
            "duration": 0.2631575000000055,
            "durationTicks": 192,
            "midi": 47,
            "name": "B2",
            "ticks": 98880,
            "time": 135.52611249999998,
            "velocity": 0.3937007874015748
          },
          {
            "duration": 0.2631575000000055,
            "durationTicks": 192,
            "midi": 72,
            "name": "C5",
            "ticks": 99072,
            "time": 135.78927,
            "velocity": 0.3937007874015748
          },
          {
            "duration": 0.2631575000000055,
            "durationTicks": 192,
            "midi": 48,
            "name": "C3",
            "ticks": 99072,
            "time": 135.78927,
            "velocity": 0.3937007874015748
          },
          {
            "duration": 0.2631575000000055,
            "durationTicks": 192,
            "midi": 71,
            "name": "B4",
            "ticks": 99264,
            "time": 136.0524275,
            "velocity": 0.3937007874015748
          },
          {
            "duration": 0.2631575000000055,
            "durationTicks": 192,
            "midi": 47,
            "name": "B2",
            "ticks": 99264,
            "time": 136.0524275,
            "velocity": 0.3937007874015748
          },
          {
            "duration": 0.2631575000000055,
            "durationTicks": 192,
            "midi": 46,
            "name": "A#2",
            "ticks": 99456,
            "time": 136.315585,
            "velocity": 0.3937007874015748
          },
          {
            "duration": 0.2631575000000055,
            "durationTicks": 192,
            "midi": 70,
            "name": "A#4",
            "ticks": 99456,
            "time": 136.315585,
            "velocity": 0.3937007874015748
          },
          {
            "duration": 0.26315749999997706,
            "durationTicks": 192,
            "midi": 71,
            "name": "B4",
            "ticks": 99648,
            "time": 136.5787425,
            "velocity": 0.3937007874015748
          },
          {
            "duration": 0.26315749999997706,
            "durationTicks": 192,
            "midi": 47,
            "name": "B2",
            "ticks": 99648,
            "time": 136.5787425,
            "velocity": 0.3937007874015748
          },
          {
            "duration": 0.2631575000000055,
            "durationTicks": 192,
            "midi": 72,
            "name": "C5",
            "ticks": 99840,
            "time": 136.84189999999998,
            "velocity": 0.3937007874015748
          },
          {
            "duration": 0.2631575000000055,
            "durationTicks": 192,
            "midi": 48,
            "name": "C3",
            "ticks": 99840,
            "time": 136.84189999999998,
            "velocity": 0.3937007874015748
          },
          {
            "duration": 0.2631575000000055,
            "durationTicks": 192,
            "midi": 71,
            "name": "B4",
            "ticks": 100032,
            "time": 137.1050575,
            "velocity": 0.3937007874015748
          },
          {
            "duration": 0.2631575000000055,
            "durationTicks": 192,
            "midi": 47,
            "name": "B2",
            "ticks": 100032,
            "time": 137.1050575,
            "velocity": 0.3937007874015748
          },
          {
            "duration": 0.2631575000000055,
            "durationTicks": 192,
            "midi": 46,
            "name": "A#2",
            "ticks": 100224,
            "time": 137.368215,
            "velocity": 0.3937007874015748
          },
          {
            "duration": 0.2631575000000055,
            "durationTicks": 192,
            "midi": 70,
            "name": "A#4",
            "ticks": 100224,
            "time": 137.368215,
            "velocity": 0.3937007874015748
          },
          {
            "duration": 0.2631575000000055,
            "durationTicks": 192,
            "midi": 47,
            "name": "B2",
            "ticks": 100416,
            "time": 137.6313725,
            "velocity": 0.3937007874015748
          },
          {
            "duration": 0.2631575000000055,
            "durationTicks": 192,
            "midi": 71,
            "name": "B4",
            "ticks": 100416,
            "time": 137.6313725,
            "velocity": 0.3937007874015748
          },
          {
            "duration": 0.26315749999997706,
            "durationTicks": 192,
            "midi": 72,
            "name": "C5",
            "ticks": 100608,
            "time": 137.89453,
            "velocity": 0.3937007874015748
          },
          {
            "duration": 0.26315749999997706,
            "durationTicks": 192,
            "midi": 48,
            "name": "C3",
            "ticks": 100608,
            "time": 137.89453,
            "velocity": 0.3937007874015748
          },
          {
            "duration": 0.2631575000000055,
            "durationTicks": 192,
            "midi": 73,
            "name": "C#5",
            "ticks": 100800,
            "time": 138.15768749999998,
            "velocity": 0.3937007874015748
          },
          {
            "duration": 0.2631575000000055,
            "durationTicks": 192,
            "midi": 49,
            "name": "C#3",
            "ticks": 100800,
            "time": 138.15768749999998,
            "velocity": 0.3937007874015748
          },
          {
            "duration": 0.2631575000000055,
            "durationTicks": 192,
            "midi": 74,
            "name": "D5",
            "ticks": 100992,
            "time": 138.42084499999999,
            "velocity": 0.3937007874015748
          },
          {
            "duration": 0.2631575000000055,
            "durationTicks": 192,
            "midi": 50,
            "name": "D3",
            "ticks": 100992,
            "time": 138.42084499999999,
            "velocity": 0.3937007874015748
          },
          {
            "duration": 0.2631575000000055,
            "durationTicks": 192,
            "midi": 75,
            "name": "D#5",
            "ticks": 101184,
            "time": 138.6840025,
            "velocity": 0.3937007874015748
          },
          {
            "duration": 0.2631575000000055,
            "durationTicks": 192,
            "midi": 51,
            "name": "D#3",
            "ticks": 101184,
            "time": 138.6840025,
            "velocity": 0.3937007874015748
          },
          {
            "duration": 0.2631575000000055,
            "durationTicks": 192,
            "midi": 79,
            "name": "G5",
            "ticks": 101376,
            "time": 138.94716,
            "velocity": 0.3937007874015748
          },
          {
            "duration": 0.2631575000000055,
            "durationTicks": 192,
            "midi": 55,
            "name": "G3",
            "ticks": 101376,
            "time": 138.94716,
            "velocity": 0.3937007874015748
          },
          {
            "duration": 0.2631575000000055,
            "durationTicks": 192,
            "midi": 78,
            "name": "F#5",
            "ticks": 101568,
            "time": 139.2103175,
            "velocity": 0.3937007874015748
          },
          {
            "duration": 0.2631575000000055,
            "durationTicks": 192,
            "midi": 54,
            "name": "F#3",
            "ticks": 101568,
            "time": 139.2103175,
            "velocity": 0.3937007874015748
          },
          {
            "duration": 0.26315749999997706,
            "durationTicks": 192,
            "midi": 77,
            "name": "F5",
            "ticks": 101760,
            "time": 139.473475,
            "velocity": 0.3937007874015748
          },
          {
            "duration": 0.26315749999997706,
            "durationTicks": 192,
            "midi": 53,
            "name": "F3",
            "ticks": 101760,
            "time": 139.473475,
            "velocity": 0.3937007874015748
          },
          {
            "duration": 0.2631575000000055,
            "durationTicks": 192,
            "midi": 78,
            "name": "F#5",
            "ticks": 101952,
            "time": 139.73663249999998,
            "velocity": 0.3937007874015748
          },
          {
            "duration": 0.2631575000000055,
            "durationTicks": 192,
            "midi": 54,
            "name": "F#3",
            "ticks": 101952,
            "time": 139.73663249999998,
            "velocity": 0.3937007874015748
          },
          {
            "duration": 0.2631575000000055,
            "durationTicks": 192,
            "midi": 55,
            "name": "G3",
            "ticks": 102144,
            "time": 139.99979,
            "velocity": 0.3937007874015748
          },
          {
            "duration": 0.2631575000000055,
            "durationTicks": 192,
            "midi": 79,
            "name": "G5",
            "ticks": 102144,
            "time": 139.99979,
            "velocity": 0.3937007874015748
          },
          {
            "duration": 0.2631575000000055,
            "durationTicks": 192,
            "midi": 78,
            "name": "F#5",
            "ticks": 102336,
            "time": 140.2629475,
            "velocity": 0.3937007874015748
          },
          {
            "duration": 0.2631575000000055,
            "durationTicks": 192,
            "midi": 54,
            "name": "F#3",
            "ticks": 102336,
            "time": 140.2629475,
            "velocity": 0.3937007874015748
          },
          {
            "duration": 0.2631575000000055,
            "durationTicks": 192,
            "midi": 77,
            "name": "F5",
            "ticks": 102528,
            "time": 140.526105,
            "velocity": 0.3937007874015748
          },
          {
            "duration": 0.2631575000000055,
            "durationTicks": 192,
            "midi": 53,
            "name": "F3",
            "ticks": 102528,
            "time": 140.526105,
            "velocity": 0.3937007874015748
          },
          {
            "duration": 0.26315749999997706,
            "durationTicks": 192,
            "midi": 54,
            "name": "F#3",
            "ticks": 102720,
            "time": 140.7892625,
            "velocity": 0.3937007874015748
          },
          {
            "duration": 0.26315749999997706,
            "durationTicks": 192,
            "midi": 78,
            "name": "F#5",
            "ticks": 102720,
            "time": 140.7892625,
            "velocity": 0.3937007874015748
          },
          {
            "duration": 0.39473625000002244,
            "durationTicks": 288,
            "midi": 75,
            "name": "D#5",
            "ticks": 102912,
            "time": 141.05241999999998,
            "velocity": 0.3937007874015748
          },
          {
            "duration": 0.39473625000002244,
            "durationTicks": 288,
            "midi": 51,
            "name": "D#3",
            "ticks": 102912,
            "time": 141.05241999999998,
            "velocity": 0.3937007874015748
          },
          {
            "duration": 0.394736249999994,
            "durationTicks": 288,
            "midi": 72,
            "name": "C5",
            "ticks": 103296,
            "time": 141.578735,
            "velocity": 0.3937007874015748
          },
          {
            "duration": 0.394736249999994,
            "durationTicks": 288,
            "midi": 48,
            "name": "C3",
            "ticks": 103296,
            "time": 141.578735,
            "velocity": 0.3937007874015748
          },
          {
            "duration": 1.0526299999999935,
            "durationTicks": 768,
            "midi": 47,
            "name": "B2",
            "ticks": 103680,
            "time": 142.10505,
            "velocity": 0.3937007874015748
          },
          {
            "duration": 1.0526299999999935,
            "durationTicks": 768,
            "midi": 71,
            "name": "B4",
            "ticks": 103680,
            "time": 142.10505,
            "velocity": 0.3937007874015748
          }
        ],
        "endOfTrackTicks": 104448
      },
      {
        "channel": 12,
        "controlChanges": {},
        "pitchBends": [],
        "instrument": {
          "family": "strings",
          "number": 45,
          "name": "pizzicato strings"
        },
        "name": "Pizzicato",
        "notes": [
          {
            "duration": 0.13157875000000274,
            "durationTicks": 96,
            "midi": 48,
            "name": "C3",
            "ticks": 67584,
            "time": 92.63144,
            "velocity": 0.3937007874015748
          },
          {
            "duration": 0.13157875000000274,
            "durationTicks": 96,
            "midi": 67,
            "name": "G4",
            "ticks": 67776,
            "time": 92.89459749999999,
            "velocity": 0.3937007874015748
          },
          {
            "duration": 0.13157875000000274,
            "durationTicks": 96,
            "midi": 63,
            "name": "D#4",
            "ticks": 67776,
            "time": 92.89459749999999,
            "velocity": 0.3937007874015748
          },
          {
            "duration": 0.13157875000000274,
            "durationTicks": 96,
            "midi": 60,
            "name": "C4",
            "ticks": 67776,
            "time": 92.89459749999999,
            "velocity": 0.3937007874015748
          },
          {
            "duration": 0.13157875000000274,
            "durationTicks": 96,
            "midi": 48,
            "name": "C3",
            "ticks": 67968,
            "time": 93.157755,
            "velocity": 0.3937007874015748
          },
          {
            "duration": 0.13157875000000274,
            "durationTicks": 96,
            "midi": 67,
            "name": "G4",
            "ticks": 68160,
            "time": 93.4209125,
            "velocity": 0.3937007874015748
          },
          {
            "duration": 0.13157875000000274,
            "durationTicks": 96,
            "midi": 63,
            "name": "D#4",
            "ticks": 68160,
            "time": 93.4209125,
            "velocity": 0.3937007874015748
          },
          {
            "duration": 0.13157875000000274,
            "durationTicks": 96,
            "midi": 60,
            "name": "C4",
            "ticks": 68160,
            "time": 93.4209125,
            "velocity": 0.3937007874015748
          },
          {
            "duration": 0.13157875000000274,
            "durationTicks": 96,
            "midi": 51,
            "name": "D#3",
            "ticks": 68352,
            "time": 93.68406999999999,
            "velocity": 0.3937007874015748
          },
          {
            "duration": 0.13157875000000274,
            "durationTicks": 96,
            "midi": 58,
            "name": "A#3",
            "ticks": 68544,
            "time": 93.9472275,
            "velocity": 0.3937007874015748
          },
          {
            "duration": 0.13157875000000274,
            "durationTicks": 96,
            "midi": 67,
            "name": "G4",
            "ticks": 68544,
            "time": 93.9472275,
            "velocity": 0.3937007874015748
          },
          {
            "duration": 0.13157875000000274,
            "durationTicks": 96,
            "midi": 63,
            "name": "D#4",
            "ticks": 68544,
            "time": 93.9472275,
            "velocity": 0.3937007874015748
          },
          {
            "duration": 0.13157874999998853,
            "durationTicks": 96,
            "midi": 51,
            "name": "D#3",
            "ticks": 68736,
            "time": 94.210385,
            "velocity": 0.3937007874015748
          },
          {
            "duration": 0.13157875000000274,
            "durationTicks": 96,
            "midi": 58,
            "name": "A#3",
            "ticks": 68928,
            "time": 94.4735425,
            "velocity": 0.3937007874015748
          },
          {
            "duration": 0.13157875000000274,
            "durationTicks": 96,
            "midi": 63,
            "name": "D#4",
            "ticks": 68928,
            "time": 94.4735425,
            "velocity": 0.3937007874015748
          },
          {
            "duration": 0.13157875000000274,
            "durationTicks": 96,
            "midi": 67,
            "name": "G4",
            "ticks": 68928,
            "time": 94.4735425,
            "velocity": 0.3937007874015748
          },
          {
            "duration": 0.13157875000000274,
            "durationTicks": 96,
            "midi": 44,
            "name": "G#2",
            "ticks": 69120,
            "time": 94.7367,
            "velocity": 0.3937007874015748
          },
          {
            "duration": 0.13157875000000274,
            "durationTicks": 96,
            "midi": 60,
            "name": "C4",
            "ticks": 69312,
            "time": 94.99985749999999,
            "velocity": 0.3937007874015748
          },
          {
            "duration": 0.13157875000000274,
            "durationTicks": 96,
            "midi": 68,
            "name": "G#4",
            "ticks": 69312,
            "time": 94.99985749999999,
            "velocity": 0.3937007874015748
          },
          {
            "duration": 0.13157875000000274,
            "durationTicks": 96,
            "midi": 63,
            "name": "D#4",
            "ticks": 69312,
            "time": 94.99985749999999,
            "velocity": 0.3937007874015748
          },
          {
            "duration": 0.13157875000000274,
            "durationTicks": 96,
            "midi": 44,
            "name": "G#2",
            "ticks": 69504,
            "time": 95.263015,
            "velocity": 0.3937007874015748
          },
          {
            "duration": 0.13157874999998853,
            "durationTicks": 96,
            "midi": 63,
            "name": "D#4",
            "ticks": 69696,
            "time": 95.5261725,
            "velocity": 0.3937007874015748
          },
          {
            "duration": 0.13157874999998853,
            "durationTicks": 96,
            "midi": 60,
            "name": "C4",
            "ticks": 69696,
            "time": 95.5261725,
            "velocity": 0.3937007874015748
          },
          {
            "duration": 0.13157874999998853,
            "durationTicks": 96,
            "midi": 68,
            "name": "G#4",
            "ticks": 69696,
            "time": 95.5261725,
            "velocity": 0.3937007874015748
          },
          {
            "duration": 0.13157875000000274,
            "durationTicks": 96,
            "midi": 43,
            "name": "G2",
            "ticks": 69888,
            "time": 95.78932999999999,
            "velocity": 0.3937007874015748
          },
          {
            "duration": 0.13157875000000274,
            "durationTicks": 96,
            "midi": 67,
            "name": "G4",
            "ticks": 70080,
            "time": 96.0524875,
            "velocity": 0.3937007874015748
          },
          {
            "duration": 0.13157875000000274,
            "durationTicks": 96,
            "midi": 62,
            "name": "D4",
            "ticks": 70080,
            "time": 96.0524875,
            "velocity": 0.3937007874015748
          },
          {
            "duration": 0.13157875000000274,
            "durationTicks": 96,
            "midi": 59,
            "name": "B3",
            "ticks": 70080,
            "time": 96.0524875,
            "velocity": 0.3937007874015748
          },
          {
            "duration": 0.13157875000000274,
            "durationTicks": 96,
            "midi": 43,
            "name": "G2",
            "ticks": 70272,
            "time": 96.31564499999999,
            "velocity": 0.3937007874015748
          },
          {
            "duration": 0.13157875000000274,
            "durationTicks": 96,
            "midi": 59,
            "name": "B3",
            "ticks": 70464,
            "time": 96.5788025,
            "velocity": 0.3937007874015748
          },
          {
            "duration": 0.13157875000000274,
            "durationTicks": 96,
            "midi": 62,
            "name": "D4",
            "ticks": 70464,
            "time": 96.5788025,
            "velocity": 0.3937007874015748
          },
          {
            "duration": 0.13157875000000274,
            "durationTicks": 96,
            "midi": 67,
            "name": "G4",
            "ticks": 70464,
            "time": 96.5788025,
            "velocity": 0.3937007874015748
          },
          {
            "duration": 0.13157874999998853,
            "durationTicks": 96,
            "midi": 48,
            "name": "C3",
            "ticks": 70656,
            "time": 96.84196,
            "velocity": 0.3937007874015748
          },
          {
            "duration": 0.13157875000000274,
            "durationTicks": 96,
            "midi": 60,
            "name": "C4",
            "ticks": 70848,
            "time": 97.10511749999999,
            "velocity": 0.3937007874015748
          },
          {
            "duration": 0.13157875000000274,
            "durationTicks": 96,
            "midi": 63,
            "name": "D#4",
            "ticks": 70848,
            "time": 97.10511749999999,
            "velocity": 0.3937007874015748
          },
          {
            "duration": 0.13157875000000274,
            "durationTicks": 96,
            "midi": 67,
            "name": "G4",
            "ticks": 70848,
            "time": 97.10511749999999,
            "velocity": 0.3937007874015748
          },
          {
            "duration": 0.13157875000000274,
            "durationTicks": 96,
            "midi": 48,
            "name": "C3",
            "ticks": 71040,
            "time": 97.368275,
            "velocity": 0.3937007874015748
          },
          {
            "duration": 0.13157874999998853,
            "durationTicks": 96,
            "midi": 63,
            "name": "D#4",
            "ticks": 71232,
            "time": 97.6314325,
            "velocity": 0.3937007874015748
          },
          {
            "duration": 0.13157874999998853,
            "durationTicks": 96,
            "midi": 67,
            "name": "G4",
            "ticks": 71232,
            "time": 97.6314325,
            "velocity": 0.3937007874015748
          },
          {
            "duration": 0.13157874999998853,
            "durationTicks": 96,
            "midi": 60,
            "name": "C4",
            "ticks": 71232,
            "time": 97.6314325,
            "velocity": 0.3937007874015748
          },
          {
            "duration": 0.13157875000000274,
            "durationTicks": 96,
            "midi": 51,
            "name": "D#3",
            "ticks": 71424,
            "time": 97.89459,
            "velocity": 0.3937007874015748
          },
          {
            "duration": 0.13157875000000274,
            "durationTicks": 96,
            "midi": 67,
            "name": "G4",
            "ticks": 71616,
            "time": 98.1577475,
            "velocity": 0.3937007874015748
          },
          {
            "duration": 0.13157875000000274,
            "durationTicks": 96,
            "midi": 58,
            "name": "A#3",
            "ticks": 71616,
            "time": 98.1577475,
            "velocity": 0.3937007874015748
          },
          {
            "duration": 0.13157875000000274,
            "durationTicks": 96,
            "midi": 63,
            "name": "D#4",
            "ticks": 71616,
            "time": 98.1577475,
            "velocity": 0.3937007874015748
          },
          {
            "duration": 0.13157875000000274,
            "durationTicks": 96,
            "midi": 51,
            "name": "D#3",
            "ticks": 71808,
            "time": 98.42090499999999,
            "velocity": 0.3937007874015748
          },
          {
            "duration": 0.13157875000000274,
            "durationTicks": 96,
            "midi": 63,
            "name": "D#4",
            "ticks": 72000,
            "time": 98.6840625,
            "velocity": 0.3937007874015748
          },
          {
            "duration": 0.13157875000000274,
            "durationTicks": 96,
            "midi": 58,
            "name": "A#3",
            "ticks": 72000,
            "time": 98.6840625,
            "velocity": 0.3937007874015748
          },
          {
            "duration": 0.13157875000000274,
            "durationTicks": 96,
            "midi": 67,
            "name": "G4",
            "ticks": 72000,
            "time": 98.6840625,
            "velocity": 0.3937007874015748
          },
          {
            "duration": 0.13157874999998853,
            "durationTicks": 96,
            "midi": 44,
            "name": "G#2",
            "ticks": 72192,
            "time": 98.94722,
            "velocity": 0.3937007874015748
          },
          {
            "duration": 0.13157875000000274,
            "durationTicks": 96,
            "midi": 63,
            "name": "D#4",
            "ticks": 72384,
            "time": 99.21037749999999,
            "velocity": 0.3937007874015748
          },
          {
            "duration": 0.13157875000000274,
            "durationTicks": 96,
            "midi": 68,
            "name": "G#4",
            "ticks": 72384,
            "time": 99.21037749999999,
            "velocity": 0.3937007874015748
          },
          {
            "duration": 0.13157875000000274,
            "durationTicks": 96,
            "midi": 60,
            "name": "C4",
            "ticks": 72384,
            "time": 99.21037749999999,
            "velocity": 0.3937007874015748
          },
          {
            "duration": 0.13157875000000274,
            "durationTicks": 96,
            "midi": 44,
            "name": "G#2",
            "ticks": 72576,
            "time": 99.473535,
            "velocity": 0.3937007874015748
          },
          {
            "duration": 0.13157875000000274,
            "durationTicks": 96,
            "midi": 63,
            "name": "D#4",
            "ticks": 72768,
            "time": 99.73669249999999,
            "velocity": 0.3937007874015748
          },
          {
            "duration": 0.13157875000000274,
            "durationTicks": 96,
            "midi": 68,
            "name": "G#4",
            "ticks": 72768,
            "time": 99.73669249999999,
            "velocity": 0.3937007874015748
          },
          {
            "duration": 0.13157875000000274,
            "durationTicks": 96,
            "midi": 60,
            "name": "C4",
            "ticks": 72768,
            "time": 99.73669249999999,
            "velocity": 0.3937007874015748
          },
          {
            "duration": 0.13157875000000274,
            "durationTicks": 96,
            "midi": 43,
            "name": "G2",
            "ticks": 72960,
            "time": 99.99985,
            "velocity": 0.3937007874015748
          },
          {
            "duration": 0.13157874999998853,
            "durationTicks": 96,
            "midi": 59,
            "name": "B3",
            "ticks": 73152,
            "time": 100.2630075,
            "velocity": 0.3937007874015748
          },
          {
            "duration": 0.13157874999998853,
            "durationTicks": 96,
            "midi": 62,
            "name": "D4",
            "ticks": 73152,
            "time": 100.2630075,
            "velocity": 0.3937007874015748
          },
          {
            "duration": 0.13157874999998853,
            "durationTicks": 96,
            "midi": 67,
            "name": "G4",
            "ticks": 73152,
            "time": 100.2630075,
            "velocity": 0.3937007874015748
          },
          {
            "duration": 0.13157875000000274,
            "durationTicks": 96,
            "midi": 43,
            "name": "G2",
            "ticks": 73344,
            "time": 100.52616499999999,
            "velocity": 0.3937007874015748
          },
          {
            "duration": 0.13157875000000274,
            "durationTicks": 96,
            "midi": 62,
            "name": "D4",
            "ticks": 73536,
            "time": 100.7893225,
            "velocity": 0.3937007874015748
          },
          {
            "duration": 0.13157875000000274,
            "durationTicks": 96,
            "midi": 59,
            "name": "B3",
            "ticks": 73536,
            "time": 100.7893225,
            "velocity": 0.3937007874015748
          },
          {
            "duration": 0.13157875000000274,
            "durationTicks": 96,
            "midi": 67,
            "name": "G4",
            "ticks": 73536,
            "time": 100.7893225,
            "velocity": 0.3937007874015748
          },
          {
            "duration": 0.13157874999998853,
            "durationTicks": 96,
            "midi": 41,
            "name": "F2",
            "ticks": 73728,
            "time": 101.05248,
            "velocity": 0.3937007874015748
          },
          {
            "duration": 0.13157874999998853,
            "durationTicks": 96,
            "midi": 41,
            "name": "F2",
            "ticks": 73728,
            "time": 101.05248,
            "velocity": 0.3937007874015748
          },
          {
            "duration": 0.13157875000000274,
            "durationTicks": 96,
            "midi": 53,
            "name": "F3",
            "ticks": 73920,
            "time": 101.3156375,
            "velocity": 0.3937007874015748
          },
          {
            "duration": 0.13157875000000274,
            "durationTicks": 96,
            "midi": 65,
            "name": "F4",
            "ticks": 73920,
            "time": 101.3156375,
            "velocity": 0.3937007874015748
          },
          {
            "duration": 0.13157875000000274,
            "durationTicks": 96,
            "midi": 60,
            "name": "C4",
            "ticks": 73920,
            "time": 101.3156375,
            "velocity": 0.3937007874015748
          },
          {
            "duration": 0.13157875000000274,
            "durationTicks": 96,
            "midi": 56,
            "name": "G#3",
            "ticks": 73920,
            "time": 101.3156375,
            "velocity": 0.3937007874015748
          },
          {
            "duration": 0.13157875000000274,
            "durationTicks": 96,
            "midi": 68,
            "name": "G#4",
            "ticks": 73920,
            "time": 101.3156375,
            "velocity": 0.3937007874015748
          },
          {
            "duration": 0.13157875000000274,
            "durationTicks": 96,
            "midi": 41,
            "name": "F2",
            "ticks": 74112,
            "time": 101.578795,
            "velocity": 0.3937007874015748
          },
          {
            "duration": 0.13157875000000274,
            "durationTicks": 96,
            "midi": 60,
            "name": "C4",
            "ticks": 74304,
            "time": 101.84195249999999,
            "velocity": 0.3937007874015748
          },
          {
            "duration": 0.13157875000000274,
            "durationTicks": 96,
            "midi": 65,
            "name": "F4",
            "ticks": 74304,
            "time": 101.84195249999999,
            "velocity": 0.3937007874015748
          },
          {
            "duration": 0.13157875000000274,
            "durationTicks": 96,
            "midi": 68,
            "name": "G#4",
            "ticks": 74304,
            "time": 101.84195249999999,
            "velocity": 0.3937007874015748
          },
          {
            "duration": 0.13157875000000274,
            "durationTicks": 96,
            "midi": 56,
            "name": "G#3",
            "ticks": 74304,
            "time": 101.84195249999999,
            "velocity": 0.3937007874015748
          },
          {
            "duration": 0.13157875000000274,
            "durationTicks": 96,
            "midi": 53,
            "name": "F3",
            "ticks": 74304,
            "time": 101.84195249999999,
            "velocity": 0.3937007874015748
          },
          {
            "duration": 0.13157875000000274,
            "durationTicks": 96,
            "midi": 39,
            "name": "D#2",
            "ticks": 74496,
            "time": 102.10511,
            "velocity": 0.3937007874015748
          },
          {
            "duration": 0.13157874999998853,
            "durationTicks": 96,
            "midi": 63,
            "name": "D#4",
            "ticks": 74688,
            "time": 102.3682675,
            "velocity": 0.3937007874015748
          },
          {
            "duration": 0.13157874999998853,
            "durationTicks": 96,
            "midi": 68,
            "name": "G#4",
            "ticks": 74688,
            "time": 102.3682675,
            "velocity": 0.3937007874015748
          },
          {
            "duration": 0.13157874999998853,
            "durationTicks": 96,
            "midi": 56,
            "name": "G#3",
            "ticks": 74688,
            "time": 102.3682675,
            "velocity": 0.3937007874015748
          },
          {
            "duration": 0.13157874999998853,
            "durationTicks": 96,
            "midi": 60,
            "name": "C4",
            "ticks": 74688,
            "time": 102.3682675,
            "velocity": 0.3937007874015748
          },
          {
            "duration": 0.13157874999998853,
            "durationTicks": 96,
            "midi": 51,
            "name": "D#3",
            "ticks": 74688,
            "time": 102.3682675,
            "velocity": 0.3937007874015748
          },
          {
            "duration": 0.13157875000000274,
            "durationTicks": 96,
            "midi": 39,
            "name": "D#2",
            "ticks": 74880,
            "time": 102.631425,
            "velocity": 0.3937007874015748
          },
          {
            "duration": 0.13157875000000274,
            "durationTicks": 96,
            "midi": 68,
            "name": "G#4",
            "ticks": 75072,
            "time": 102.8945825,
            "velocity": 0.3937007874015748
          },
          {
            "duration": 0.13157875000000274,
            "durationTicks": 96,
            "midi": 51,
            "name": "D#3",
            "ticks": 75072,
            "time": 102.8945825,
            "velocity": 0.3937007874015748
          },
          {
            "duration": 0.13157875000000274,
            "durationTicks": 96,
            "midi": 60,
            "name": "C4",
            "ticks": 75072,
            "time": 102.8945825,
            "velocity": 0.3937007874015748
          },
          {
            "duration": 0.13157875000000274,
            "durationTicks": 96,
            "midi": 63,
            "name": "D#4",
            "ticks": 75072,
            "time": 102.8945825,
            "velocity": 0.3937007874015748
          },
          {
            "duration": 0.13157875000000274,
            "durationTicks": 96,
            "midi": 56,
            "name": "G#3",
            "ticks": 75072,
            "time": 102.8945825,
            "velocity": 0.3937007874015748
          },
          {
            "duration": 0.13157875000000274,
            "durationTicks": 96,
            "midi": 38,
            "name": "D2",
            "ticks": 75264,
            "time": 103.15773999999999,
            "velocity": 0.3937007874015748
          },
          {
            "duration": 0.13157875000000274,
            "durationTicks": 96,
            "midi": 60,
            "name": "C4",
            "ticks": 75456,
            "time": 103.4208975,
            "velocity": 0.3937007874015748
          },
          {
            "duration": 0.13157875000000274,
            "durationTicks": 96,
            "midi": 57,
            "name": "A3",
            "ticks": 75456,
            "time": 103.4208975,
            "velocity": 0.3937007874015748
          },
          {
            "duration": 0.13157875000000274,
            "durationTicks": 96,
            "midi": 54,
            "name": "F#3",
            "ticks": 75456,
            "time": 103.4208975,
            "velocity": 0.3937007874015748
          },
          {
            "duration": 0.13157875000000274,
            "durationTicks": 96,
            "midi": 62,
            "name": "D4",
            "ticks": 75456,
            "time": 103.4208975,
            "velocity": 0.3937007874015748
          },
          {
            "duration": 0.13157875000000274,
            "durationTicks": 96,
            "midi": 66,
            "name": "F#4",
            "ticks": 75456,
            "time": 103.4208975,
            "velocity": 0.3937007874015748
          },
          {
            "duration": 0.13157874999998853,
            "durationTicks": 96,
            "midi": 38,
            "name": "D2",
            "ticks": 75648,
            "time": 103.684055,
            "velocity": 0.3937007874015748
          },
          {
            "duration": 0.13157875000000274,
            "durationTicks": 96,
            "midi": 54,
            "name": "F#3",
            "ticks": 75840,
            "time": 103.94721249999999,
            "velocity": 0.3937007874015748
          },
          {
            "duration": 0.13157875000000274,
            "durationTicks": 96,
            "midi": 57,
            "name": "A3",
            "ticks": 75840,
            "time": 103.94721249999999,
            "velocity": 0.3937007874015748
          },
          {
            "duration": 0.13157875000000274,
            "durationTicks": 96,
            "midi": 66,
            "name": "F#4",
            "ticks": 75840,
            "time": 103.94721249999999,
            "velocity": 0.3937007874015748
          },
          {
            "duration": 0.13157875000000274,
            "durationTicks": 96,
            "midi": 60,
            "name": "C4",
            "ticks": 75840,
            "time": 103.94721249999999,
            "velocity": 0.3937007874015748
          },
          {
            "duration": 0.13157875000000274,
            "durationTicks": 96,
            "midi": 62,
            "name": "D4",
            "ticks": 75840,
            "time": 103.94721249999999,
            "velocity": 0.3937007874015748
          },
          {
            "duration": 0.13157875000000274,
            "durationTicks": 96,
            "midi": 43,
            "name": "G2",
            "ticks": 76032,
            "time": 104.21037,
            "velocity": 0.3937007874015748
          },
          {
            "duration": 0.13157875000000274,
            "durationTicks": 96,
            "midi": 65,
            "name": "F4",
            "ticks": 76224,
            "time": 104.47352749999999,
            "velocity": 0.3937007874015748
          },
          {
            "duration": 0.13157875000000274,
            "durationTicks": 96,
            "midi": 62,
            "name": "D4",
            "ticks": 76224,
            "time": 104.47352749999999,
            "velocity": 0.3937007874015748
          },
          {
            "duration": 0.13157875000000274,
            "durationTicks": 96,
            "midi": 59,
            "name": "B3",
            "ticks": 76224,
            "time": 104.47352749999999,
            "velocity": 0.3937007874015748
          },
          {
            "duration": 0.13157875000000274,
            "durationTicks": 96,
            "midi": 53,
            "name": "F3",
            "ticks": 76224,
            "time": 104.47352749999999,
            "velocity": 0.3937007874015748
          },
          {
            "duration": 0.13157875000000274,
            "durationTicks": 96,
            "midi": 55,
            "name": "G3",
            "ticks": 76224,
            "time": 104.47352749999999,
            "velocity": 0.3937007874015748
          },
          {
            "duration": 0.13157875000000274,
            "durationTicks": 96,
            "midi": 43,
            "name": "G2",
            "ticks": 76416,
            "time": 104.736685,
            "velocity": 0.3937007874015748
          },
          {
            "duration": 0.13157875000000274,
            "durationTicks": 96,
            "midi": 53,
            "name": "F3",
            "ticks": 76608,
            "time": 104.9998425,
            "velocity": 0.3937007874015748
          },
          {
            "duration": 0.13157875000000274,
            "durationTicks": 96,
            "midi": 62,
            "name": "D4",
            "ticks": 76608,
            "time": 104.9998425,
            "velocity": 0.3937007874015748
          },
          {
            "duration": 0.13157875000000274,
            "durationTicks": 96,
            "midi": 59,
            "name": "B3",
            "ticks": 76608,
            "time": 104.9998425,
            "velocity": 0.3937007874015748
          },
          {
            "duration": 0.13157875000000274,
            "durationTicks": 96,
            "midi": 65,
            "name": "F4",
            "ticks": 76608,
            "time": 104.9998425,
            "velocity": 0.3937007874015748
          },
          {
            "duration": 0.13157875000000274,
            "durationTicks": 96,
            "midi": 55,
            "name": "G3",
            "ticks": 76608,
            "time": 104.9998425,
            "velocity": 0.3937007874015748
          },
          {
            "duration": 0.13157875000000274,
            "durationTicks": 96,
            "midi": 48,
            "name": "C3",
            "ticks": 76800,
            "time": 105.26299999999999,
            "velocity": 0.3937007874015748
          },
          {
            "duration": 0.13157875000000274,
            "durationTicks": 96,
            "midi": 63,
            "name": "D#4",
            "ticks": 76992,
            "time": 105.5261575,
            "velocity": 0.3937007874015748
          },
          {
            "duration": 0.13157875000000274,
            "durationTicks": 96,
            "midi": 60,
            "name": "C4",
            "ticks": 76992,
            "time": 105.5261575,
            "velocity": 0.3937007874015748
          },
          {
            "duration": 0.13157875000000274,
            "durationTicks": 96,
            "midi": 67,
            "name": "G4",
            "ticks": 76992,
            "time": 105.5261575,
            "velocity": 0.3937007874015748
          },
          {
            "duration": 0.13157874999998853,
            "durationTicks": 96,
            "midi": 48,
            "name": "C3",
            "ticks": 77184,
            "time": 105.789315,
            "velocity": 0.3937007874015748
          },
          {
            "duration": 0.13157875000000274,
            "durationTicks": 96,
            "midi": 67,
            "name": "G4",
            "ticks": 77376,
            "time": 106.0524725,
            "velocity": 0.3937007874015748
          },
          {
            "duration": 0.13157875000000274,
            "durationTicks": 96,
            "midi": 63,
            "name": "D#4",
            "ticks": 77376,
            "time": 106.0524725,
            "velocity": 0.3937007874015748
          },
          {
            "duration": 0.13157875000000274,
            "durationTicks": 96,
            "midi": 60,
            "name": "C4",
            "ticks": 77376,
            "time": 106.0524725,
            "velocity": 0.3937007874015748
          },
          {
            "duration": 0.13157875000000274,
            "durationTicks": 96,
            "midi": 51,
            "name": "D#3",
            "ticks": 77568,
            "time": 106.31563,
            "velocity": 0.3937007874015748
          },
          {
            "duration": 0.13157875000000274,
            "durationTicks": 96,
            "midi": 58,
            "name": "A#3",
            "ticks": 77760,
            "time": 106.57878749999999,
            "velocity": 0.3937007874015748
          },
          {
            "duration": 0.13157875000000274,
            "durationTicks": 96,
            "midi": 63,
            "name": "D#4",
            "ticks": 77760,
            "time": 106.57878749999999,
            "velocity": 0.3937007874015748
          },
          {
            "duration": 0.13157875000000274,
            "durationTicks": 96,
            "midi": 67,
            "name": "G4",
            "ticks": 77760,
            "time": 106.57878749999999,
            "velocity": 0.3937007874015748
          },
          {
            "duration": 0.13157875000000274,
            "durationTicks": 96,
            "midi": 51,
            "name": "D#3",
            "ticks": 77952,
            "time": 106.841945,
            "velocity": 0.3937007874015748
          },
          {
            "duration": 0.13157874999998853,
            "durationTicks": 96,
            "midi": 63,
            "name": "D#4",
            "ticks": 78144,
            "time": 107.1051025,
            "velocity": 0.3937007874015748
          },
          {
            "duration": 0.13157874999998853,
            "durationTicks": 96,
            "midi": 67,
            "name": "G4",
            "ticks": 78144,
            "time": 107.1051025,
            "velocity": 0.3937007874015748
          },
          {
            "duration": 0.13157874999998853,
            "durationTicks": 96,
            "midi": 58,
            "name": "A#3",
            "ticks": 78144,
            "time": 107.1051025,
            "velocity": 0.3937007874015748
          },
          {
            "duration": 0.13157875000000274,
            "durationTicks": 96,
            "midi": 44,
            "name": "G#2",
            "ticks": 78336,
            "time": 107.36825999999999,
            "velocity": 0.3937007874015748
          },
          {
            "duration": 0.13157875000000274,
            "durationTicks": 96,
            "midi": 63,
            "name": "D#4",
            "ticks": 78528,
            "time": 107.6314175,
            "velocity": 0.3937007874015748
          },
          {
            "duration": 0.13157875000000274,
            "durationTicks": 96,
            "midi": 56,
            "name": "G#3",
            "ticks": 78528,
            "time": 107.6314175,
            "velocity": 0.3937007874015748
          },
          {
            "duration": 0.13157875000000274,
            "durationTicks": 96,
            "midi": 60,
            "name": "C4",
            "ticks": 78528,
            "time": 107.6314175,
            "velocity": 0.3937007874015748
          },
          {
            "duration": 0.13157875000000274,
            "durationTicks": 96,
            "midi": 44,
            "name": "G#2",
            "ticks": 78720,
            "time": 107.89457499999999,
            "velocity": 0.3937007874015748
          },
          {
            "duration": 0.13157875000000274,
            "durationTicks": 96,
            "midi": 60,
            "name": "C4",
            "ticks": 78912,
            "time": 108.1577325,
            "velocity": 0.3937007874015748
          },
          {
            "duration": 0.13157875000000274,
            "durationTicks": 96,
            "midi": 56,
            "name": "G#3",
            "ticks": 78912,
            "time": 108.1577325,
            "velocity": 0.3937007874015748
          },
          {
            "duration": 0.13157875000000274,
            "durationTicks": 96,
            "midi": 63,
            "name": "D#4",
            "ticks": 78912,
            "time": 108.1577325,
            "velocity": 0.3937007874015748
          },
          {
            "duration": 0.13157874999998853,
            "durationTicks": 96,
            "midi": 43,
            "name": "G2",
            "ticks": 79104,
            "time": 108.42089,
            "velocity": 0.3937007874015748
          },
          {
            "duration": 0.13157875000000274,
            "durationTicks": 96,
            "midi": 55,
            "name": "G3",
            "ticks": 79296,
            "time": 108.68404749999999,
            "velocity": 0.3937007874015748
          },
          {
            "duration": 0.13157875000000274,
            "durationTicks": 96,
            "midi": 59,
            "name": "B3",
            "ticks": 79296,
            "time": 108.68404749999999,
            "velocity": 0.3937007874015748
          },
          {
            "duration": 0.13157875000000274,
            "durationTicks": 96,
            "midi": 62,
            "name": "D4",
            "ticks": 79296,
            "time": 108.68404749999999,
            "velocity": 0.3937007874015748
          },
          {
            "duration": 0.13157875000000274,
            "durationTicks": 96,
            "midi": 43,
            "name": "G2",
            "ticks": 79488,
            "time": 108.947205,
            "velocity": 0.3937007874015748
          },
          {
            "duration": 0.13157874999998853,
            "durationTicks": 96,
            "midi": 62,
            "name": "D4",
            "ticks": 79680,
            "time": 109.2103625,
            "velocity": 0.3937007874015748
          },
          {
            "duration": 0.13157874999998853,
            "durationTicks": 96,
            "midi": 59,
            "name": "B3",
            "ticks": 79680,
            "time": 109.2103625,
            "velocity": 0.3937007874015748
          },
          {
            "duration": 0.13157874999998853,
            "durationTicks": 96,
            "midi": 55,
            "name": "G3",
            "ticks": 79680,
            "time": 109.2103625,
            "velocity": 0.3937007874015748
          }
        ],
        "endOfTrackTicks": 79776
      },
      {
        "channel": 13,
        "controlChanges": {},
        "pitchBends": [],
        "instrument": {
          "family": "percussive",
          "number": 114,
          "name": "steel drums"
        },
        "name": "Steel Drums",
        "notes": [
          {
            "duration": 0.2631574999999913,
            "durationTicks": 192,
            "midi": 29,
            "name": "F1",
            "ticks": 73728,
            "time": 101.05248,
            "velocity": 0.3937007874015748
          },
          {
            "duration": 0.2631574999999913,
            "durationTicks": 192,
            "midi": 29,
            "name": "F1",
            "ticks": 74112,
            "time": 101.578795,
            "velocity": 0.3937007874015748
          },
          {
            "duration": 0.2631575000000055,
            "durationTicks": 192,
            "midi": 27,
            "name": "D#1",
            "ticks": 74496,
            "time": 102.10511,
            "velocity": 0.3937007874015748
          },
          {
            "duration": 0.2631575000000055,
            "durationTicks": 192,
            "midi": 27,
            "name": "D#1",
            "ticks": 74880,
            "time": 102.631425,
            "velocity": 0.3937007874015748
          },
          {
            "duration": 0.2631575000000055,
            "durationTicks": 192,
            "midi": 26,
            "name": "D1",
            "ticks": 75264,
            "time": 103.15773999999999,
            "velocity": 0.3937007874015748
          },
          {
            "duration": 0.2631574999999913,
            "durationTicks": 192,
            "midi": 26,
            "name": "D1",
            "ticks": 75648,
            "time": 103.684055,
            "velocity": 0.3937007874015748
          },
          {
            "duration": 0.2631574999999913,
            "durationTicks": 192,
            "midi": 31,
            "name": "G1",
            "ticks": 76032,
            "time": 104.21037,
            "velocity": 0.3937007874015748
          },
          {
            "duration": 0.2631575000000055,
            "durationTicks": 192,
            "midi": 31,
            "name": "G1",
            "ticks": 76416,
            "time": 104.736685,
            "velocity": 0.3937007874015748
          },
          {
            "duration": 0.2631575000000055,
            "durationTicks": 192,
            "midi": 36,
            "name": "C2",
            "ticks": 76800,
            "time": 105.26299999999999,
            "velocity": 0.3937007874015748
          },
          {
            "duration": 0.2631574999999913,
            "durationTicks": 192,
            "midi": 36,
            "name": "C2",
            "ticks": 77184,
            "time": 105.789315,
            "velocity": 0.3937007874015748
          },
          {
            "duration": 0.2631574999999913,
            "durationTicks": 192,
            "midi": 39,
            "name": "D#2",
            "ticks": 77568,
            "time": 106.31563,
            "velocity": 0.3937007874015748
          },
          {
            "duration": 0.2631575000000055,
            "durationTicks": 192,
            "midi": 39,
            "name": "D#2",
            "ticks": 77952,
            "time": 106.841945,
            "velocity": 0.3937007874015748
          },
          {
            "duration": 0.2631575000000055,
            "durationTicks": 192,
            "midi": 32,
            "name": "G#1",
            "ticks": 78336,
            "time": 107.36825999999999,
            "velocity": 0.3937007874015748
          },
          {
            "duration": 0.2631575000000055,
            "durationTicks": 192,
            "midi": 32,
            "name": "G#1",
            "ticks": 78720,
            "time": 107.89457499999999,
            "velocity": 0.3937007874015748
          },
          {
            "duration": 0.2631574999999913,
            "durationTicks": 192,
            "midi": 31,
            "name": "G1",
            "ticks": 79104,
            "time": 108.42089,
            "velocity": 0.3937007874015748
          },
          {
            "duration": 0.2631575000000055,
            "durationTicks": 192,
            "midi": 31,
            "name": "G1",
            "ticks": 79488,
            "time": 108.947205,
            "velocity": 0.3937007874015748
          }
        ],
        "endOfTrackTicks": 79680
      },
      {
        "channel": 14,
        "controlChanges": {},
        "pitchBends": [],
        "instrument": {
          "family": "world",
          "number": 104,
          "name": "sitar"
        },
        "name": "Sitar",
        "notes": [
          {
            "duration": 0.2631575000000055,
            "durationTicks": 192,
            "midi": 67,
            "name": "G4",
            "ticks": 92160,
            "time": 126.31559999999999,
            "velocity": 0.3937007874015748
          },
          {
            "duration": 0.2631575000000055,
            "durationTicks": 192,
            "midi": 66,
            "name": "F#4",
            "ticks": 92352,
            "time": 126.5787575,
            "velocity": 0.3937007874015748
          },
          {
            "duration": 0.2631574999999913,
            "durationTicks": 192,
            "midi": 65,
            "name": "F4",
            "ticks": 92544,
            "time": 126.841915,
            "velocity": 0.3937007874015748
          },
          {
            "duration": 0.2631575000000055,
            "durationTicks": 192,
            "midi": 66,
            "name": "F#4",
            "ticks": 92736,
            "time": 127.10507249999999,
            "velocity": 0.3937007874015748
          },
          {
            "duration": 0.2631574999999913,
            "durationTicks": 192,
            "midi": 67,
            "name": "G4",
            "ticks": 92928,
            "time": 127.36823,
            "velocity": 0.3937007874015748
          },
          {
            "duration": 0.2631575000000055,
            "durationTicks": 192,
            "midi": 66,
            "name": "F#4",
            "ticks": 93120,
            "time": 127.63138749999999,
            "velocity": 0.3937007874015748
          },
          {
            "duration": 0.2631575000000055,
            "durationTicks": 192,
            "midi": 65,
            "name": "F4",
            "ticks": 93312,
            "time": 127.894545,
            "velocity": 0.3937007874015748
          },
          {
            "duration": 0.2631575000000055,
            "durationTicks": 192,
            "midi": 66,
            "name": "F#4",
            "ticks": 93504,
            "time": 128.1577025,
            "velocity": 0.3937007874015748
          },
          {
            "duration": 0.394736249999994,
            "durationTicks": 288,
            "midi": 63,
            "name": "D#4",
            "ticks": 93696,
            "time": 128.42086,
            "velocity": 0.3937007874015748
          },
          {
            "duration": 0.2631575000000055,
            "durationTicks": 192,
            "midi": 60,
            "name": "C4",
            "ticks": 94080,
            "time": 128.947175,
            "velocity": 0.3937007874015748
          },
          {
            "duration": 0.2631575000000055,
            "durationTicks": 192,
            "midi": 63,
            "name": "D#4",
            "ticks": 94272,
            "time": 129.2103325,
            "velocity": 0.3937007874015748
          },
          {
            "duration": 0.2631575000000055,
            "durationTicks": 192,
            "midi": 67,
            "name": "G4",
            "ticks": 94464,
            "time": 129.47349,
            "velocity": 0.3937007874015748
          },
          {
            "duration": 0.26315749999997706,
            "durationTicks": 192,
            "midi": 66,
            "name": "F#4",
            "ticks": 94656,
            "time": 129.7366475,
            "velocity": 0.3937007874015748
          },
          {
            "duration": 0.2631575000000055,
            "durationTicks": 192,
            "midi": 65,
            "name": "F4",
            "ticks": 94848,
            "time": 129.99980499999998,
            "velocity": 0.3937007874015748
          },
          {
            "duration": 0.2631575000000055,
            "durationTicks": 192,
            "midi": 66,
            "name": "F#4",
            "ticks": 95040,
            "time": 130.2629625,
            "velocity": 0.3937007874015748
          },
          {
            "duration": 0.2631575000000055,
            "durationTicks": 192,
            "midi": 67,
            "name": "G4",
            "ticks": 95232,
            "time": 130.52612,
            "velocity": 0.3937007874015748
          },
          {
            "duration": 0.2631575000000055,
            "durationTicks": 192,
            "midi": 66,
            "name": "F#4",
            "ticks": 95424,
            "time": 130.7892775,
            "velocity": 0.3937007874015748
          },
          {
            "duration": 0.2631575000000055,
            "durationTicks": 192,
            "midi": 65,
            "name": "F4",
            "ticks": 95616,
            "time": 131.052435,
            "velocity": 0.3937007874015748
          },
          {
            "duration": 0.26315749999997706,
            "durationTicks": 192,
            "midi": 66,
            "name": "F#4",
            "ticks": 95808,
            "time": 131.3155925,
            "velocity": 0.3937007874015748
          },
          {
            "duration": 0.2631575000000055,
            "durationTicks": 192,
            "midi": 67,
            "name": "G4",
            "ticks": 96000,
            "time": 131.57874999999999,
            "velocity": 0.3937007874015748
          },
          {
            "duration": 0.2631575000000055,
            "durationTicks": 192,
            "midi": 66,
            "name": "F#4",
            "ticks": 96192,
            "time": 131.8419075,
            "velocity": 0.3937007874015748
          },
          {
            "duration": 0.2631575000000055,
            "durationTicks": 192,
            "midi": 65,
            "name": "F4",
            "ticks": 96384,
            "time": 132.105065,
            "velocity": 0.3937007874015748
          },
          {
            "duration": 0.2631575000000055,
            "durationTicks": 192,
            "midi": 66,
            "name": "F#4",
            "ticks": 96576,
            "time": 132.3682225,
            "velocity": 0.3937007874015748
          },
          {
            "duration": 0.394736249999994,
            "durationTicks": 288,
            "midi": 63,
            "name": "D#4",
            "ticks": 96768,
            "time": 132.63138,
            "velocity": 0.3937007874015748
          },
          {
            "duration": 0.2631575000000055,
            "durationTicks": 192,
            "midi": 60,
            "name": "C4",
            "ticks": 97152,
            "time": 133.157695,
            "velocity": 0.3937007874015748
          },
          {
            "duration": 0.2631575000000055,
            "durationTicks": 192,
            "midi": 63,
            "name": "D#4",
            "ticks": 97344,
            "time": 133.4208525,
            "velocity": 0.3937007874015748
          },
          {
            "duration": 0.2631575000000055,
            "durationTicks": 192,
            "midi": 67,
            "name": "G4",
            "ticks": 97536,
            "time": 133.68401,
            "velocity": 0.3937007874015748
          },
          {
            "duration": 0.26315749999997706,
            "durationTicks": 192,
            "midi": 66,
            "name": "F#4",
            "ticks": 97728,
            "time": 133.9471675,
            "velocity": 0.3937007874015748
          },
          {
            "duration": 0.2631575000000055,
            "durationTicks": 192,
            "midi": 65,
            "name": "F4",
            "ticks": 97920,
            "time": 134.21032499999998,
            "velocity": 0.3937007874015748
          },
          {
            "duration": 0.2631575000000055,
            "durationTicks": 192,
            "midi": 66,
            "name": "F#4",
            "ticks": 98112,
            "time": 134.4734825,
            "velocity": 0.3937007874015748
          },
          {
            "duration": 0.2631575000000055,
            "durationTicks": 192,
            "midi": 60,
            "name": "C4",
            "ticks": 98304,
            "time": 134.73664,
            "velocity": 0.3937007874015748
          },
          {
            "duration": 0.2631575000000055,
            "durationTicks": 192,
            "midi": 59,
            "name": "B3",
            "ticks": 98496,
            "time": 134.9997975,
            "velocity": 0.3937007874015748
          },
          {
            "duration": 0.26315749999997706,
            "durationTicks": 192,
            "midi": 58,
            "name": "A#3",
            "ticks": 98688,
            "time": 135.262955,
            "velocity": 0.3937007874015748
          },
          {
            "duration": 0.2631575000000055,
            "durationTicks": 192,
            "midi": 59,
            "name": "B3",
            "ticks": 98880,
            "time": 135.52611249999998,
            "velocity": 0.3937007874015748
          },
          {
            "duration": 0.2631575000000055,
            "durationTicks": 192,
            "midi": 60,
            "name": "C4",
            "ticks": 99072,
            "time": 135.78927,
            "velocity": 0.3937007874015748
          },
          {
            "duration": 0.2631575000000055,
            "durationTicks": 192,
            "midi": 59,
            "name": "B3",
            "ticks": 99264,
            "time": 136.0524275,
            "velocity": 0.3937007874015748
          },
          {
            "duration": 0.2631575000000055,
            "durationTicks": 192,
            "midi": 58,
            "name": "A#3",
            "ticks": 99456,
            "time": 136.315585,
            "velocity": 0.3937007874015748
          },
          {
            "duration": 0.26315749999997706,
            "durationTicks": 192,
            "midi": 59,
            "name": "B3",
            "ticks": 99648,
            "time": 136.5787425,
            "velocity": 0.3937007874015748
          },
          {
            "duration": 0.2631575000000055,
            "durationTicks": 192,
            "midi": 60,
            "name": "C4",
            "ticks": 99840,
            "time": 136.84189999999998,
            "velocity": 0.3937007874015748
          },
          {
            "duration": 0.2631575000000055,
            "durationTicks": 192,
            "midi": 59,
            "name": "B3",
            "ticks": 100032,
            "time": 137.1050575,
            "velocity": 0.3937007874015748
          },
          {
            "duration": 0.2631575000000055,
            "durationTicks": 192,
            "midi": 58,
            "name": "A#3",
            "ticks": 100224,
            "time": 137.368215,
            "velocity": 0.3937007874015748
          },
          {
            "duration": 0.2631575000000055,
            "durationTicks": 192,
            "midi": 59,
            "name": "B3",
            "ticks": 100416,
            "time": 137.6313725,
            "velocity": 0.3937007874015748
          },
          {
            "duration": 0.26315749999997706,
            "durationTicks": 192,
            "midi": 60,
            "name": "C4",
            "ticks": 100608,
            "time": 137.89453,
            "velocity": 0.3937007874015748
          },
          {
            "duration": 0.2631575000000055,
            "durationTicks": 192,
            "midi": 61,
            "name": "C#4",
            "ticks": 100800,
            "time": 138.15768749999998,
            "velocity": 0.3937007874015748
          },
          {
            "duration": 0.2631575000000055,
            "durationTicks": 192,
            "midi": 62,
            "name": "D4",
            "ticks": 100992,
            "time": 138.42084499999999,
            "velocity": 0.3937007874015748
          },
          {
            "duration": 0.2631575000000055,
            "durationTicks": 192,
            "midi": 63,
            "name": "D#4",
            "ticks": 101184,
            "time": 138.6840025,
            "velocity": 0.3937007874015748
          },
          {
            "duration": 0.2631575000000055,
            "durationTicks": 192,
            "midi": 67,
            "name": "G4",
            "ticks": 101376,
            "time": 138.94716,
            "velocity": 0.3937007874015748
          },
          {
            "duration": 0.2631575000000055,
            "durationTicks": 192,
            "midi": 66,
            "name": "F#4",
            "ticks": 101568,
            "time": 139.2103175,
            "velocity": 0.3937007874015748
          },
          {
            "duration": 0.26315749999997706,
            "durationTicks": 192,
            "midi": 65,
            "name": "F4",
            "ticks": 101760,
            "time": 139.473475,
            "velocity": 0.3937007874015748
          },
          {
            "duration": 0.2631575000000055,
            "durationTicks": 192,
            "midi": 66,
            "name": "F#4",
            "ticks": 101952,
            "time": 139.73663249999998,
            "velocity": 0.3937007874015748
          },
          {
            "duration": 0.2631575000000055,
            "durationTicks": 192,
            "midi": 67,
            "name": "G4",
            "ticks": 102144,
            "time": 139.99979,
            "velocity": 0.3937007874015748
          },
          {
            "duration": 0.2631575000000055,
            "durationTicks": 192,
            "midi": 66,
            "name": "F#4",
            "ticks": 102336,
            "time": 140.2629475,
            "velocity": 0.3937007874015748
          },
          {
            "duration": 0.2631575000000055,
            "durationTicks": 192,
            "midi": 65,
            "name": "F4",
            "ticks": 102528,
            "time": 140.526105,
            "velocity": 0.3937007874015748
          },
          {
            "duration": 0.26315749999997706,
            "durationTicks": 192,
            "midi": 66,
            "name": "F#4",
            "ticks": 102720,
            "time": 140.7892625,
            "velocity": 0.3937007874015748
          },
          {
            "duration": 0.39473625000002244,
            "durationTicks": 288,
            "midi": 63,
            "name": "D#4",
            "ticks": 102912,
            "time": 141.05241999999998,
            "velocity": 0.3937007874015748
          },
          {
            "duration": 0.394736249999994,
            "durationTicks": 288,
            "midi": 60,
            "name": "C4",
            "ticks": 103296,
            "time": 141.578735,
            "velocity": 0.3937007874015748
          },
          {
            "duration": 1.0526299999999935,
            "durationTicks": 768,
            "midi": 59,
            "name": "B3",
            "ticks": 103680,
            "time": 142.10505,
            "velocity": 0.3937007874015748
          }
        ],
        "endOfTrackTicks": 104448
      },
      {
        "channel": 15,
        "controlChanges": {},
        "pitchBends": [],
        "instrument": {
          "family": "piano",
          "number": 3,
          "name": "honky-tonk piano"
        },
        "name": "Ragtime Piano",
        "notes": [
          {
            "duration": 0.13157875000000274,
            "durationTicks": 96,
            "midi": 36,
            "name": "C2",
            "ticks": 49152,
            "time": 67.36832,
            "velocity": 0.3937007874015748
          },
          {
            "duration": 0.13157875000000274,
            "durationTicks": 96,
            "midi": 39,
            "name": "D#2",
            "ticks": 49536,
            "time": 67.894635,
            "velocity": 0.3937007874015748
          },
          {
            "duration": 0.13157875000000274,
            "durationTicks": 96,
            "midi": 36,
            "name": "C2",
            "ticks": 49728,
            "time": 68.1577925,
            "velocity": 0.3937007874015748
          },
          {
            "duration": 0.13157875000000274,
            "durationTicks": 96,
            "midi": 35,
            "name": "B1",
            "ticks": 49920,
            "time": 68.42094999999999,
            "velocity": 0.3937007874015748
          },
          {
            "duration": 0.13157874999998853,
            "durationTicks": 96,
            "midi": 38,
            "name": "D2",
            "ticks": 50304,
            "time": 68.947265,
            "velocity": 0.3937007874015748
          },
          {
            "duration": 0.13157875000000274,
            "durationTicks": 96,
            "midi": 39,
            "name": "D#2",
            "ticks": 50688,
            "time": 69.47358,
            "velocity": 0.3937007874015748
          },
          {
            "duration": 0.13157875000000274,
            "durationTicks": 96,
            "midi": 43,
            "name": "G2",
            "ticks": 51072,
            "time": 69.999895,
            "velocity": 0.3937007874015748
          },
          {
            "duration": 0.13157875000000274,
            "durationTicks": 96,
            "midi": 39,
            "name": "D#2",
            "ticks": 51264,
            "time": 70.2630525,
            "velocity": 0.3937007874015748
          },
          {
            "duration": 0.13157875000000274,
            "durationTicks": 96,
            "midi": 41,
            "name": "F2",
            "ticks": 51456,
            "time": 70.52620999999999,
            "velocity": 0.3937007874015748
          },
          {
            "duration": 0.13157875000000274,
            "durationTicks": 96,
            "midi": 44,
            "name": "G#2",
            "ticks": 51648,
            "time": 70.7893675,
            "velocity": 0.3937007874015748
          },
          {
            "duration": 0.13157874999998853,
            "durationTicks": 96,
            "midi": 48,
            "name": "C3",
            "ticks": 51840,
            "time": 71.052525,
            "velocity": 0.3937007874015748
          },
          {
            "duration": 0.13157875000000274,
            "durationTicks": 96,
            "midi": 44,
            "name": "G#2",
            "ticks": 52032,
            "time": 71.3156825,
            "velocity": 0.3937007874015748
          },
          {
            "duration": 0.13157875000000274,
            "durationTicks": 96,
            "midi": 36,
            "name": "C2",
            "ticks": 52224,
            "time": 71.57884,
            "velocity": 0.3937007874015748
          },
          {
            "duration": 0.13157875000000274,
            "durationTicks": 96,
            "midi": 39,
            "name": "D#2",
            "ticks": 52608,
            "time": 72.105155,
            "velocity": 0.3937007874015748
          },
          {
            "duration": 0.13157874999998853,
            "durationTicks": 96,
            "midi": 36,
            "name": "C2",
            "ticks": 52800,
            "time": 72.3683125,
            "velocity": 0.3937007874015748
          },
          {
            "duration": 0.13157875000000274,
            "durationTicks": 96,
            "midi": 35,
            "name": "B1",
            "ticks": 52992,
            "time": 72.63147,
            "velocity": 0.3937007874015748
          },
          {
            "duration": 0.13157875000000274,
            "durationTicks": 96,
            "midi": 38,
            "name": "D2",
            "ticks": 53376,
            "time": 73.15778499999999,
            "velocity": 0.3937007874015748
          },
          {
            "duration": 0.13157875000000274,
            "durationTicks": 96,
            "midi": 39,
            "name": "D#2",
            "ticks": 53760,
            "time": 73.6841,
            "velocity": 0.3937007874015748
          },
          {
            "duration": 0.13157875000000274,
            "durationTicks": 96,
            "midi": 43,
            "name": "G2",
            "ticks": 54144,
            "time": 74.210415,
            "velocity": 0.3937007874015748
          },
          {
            "duration": 0.13157874999998853,
            "durationTicks": 96,
            "midi": 39,
            "name": "D#2",
            "ticks": 54336,
            "time": 74.4735725,
            "velocity": 0.3937007874015748
          },
          {
            "duration": 0.13157875000000274,
            "durationTicks": 96,
            "midi": 41,
            "name": "F2",
            "ticks": 54528,
            "time": 74.73673,
            "velocity": 0.3937007874015748
          },
          {
            "duration": 0.13157875000000274,
            "durationTicks": 96,
            "midi": 44,
            "name": "G#2",
            "ticks": 54720,
            "time": 74.9998875,
            "velocity": 0.3937007874015748
          },
          {
            "duration": 0.13157875000000274,
            "durationTicks": 96,
            "midi": 48,
            "name": "C3",
            "ticks": 54912,
            "time": 75.26304499999999,
            "velocity": 0.3937007874015748
          },
          {
            "duration": 0.13157875000000274,
            "durationTicks": 96,
            "midi": 44,
            "name": "G#2",
            "ticks": 55104,
            "time": 75.5262025,
            "velocity": 0.3937007874015748
          },
          {
            "duration": 0.13157874999998853,
            "durationTicks": 96,
            "midi": 36,
            "name": "C2",
            "ticks": 55296,
            "time": 75.78936,
            "velocity": 0.3937007874015748
          },
          {
            "duration": 0.13157875000000274,
            "durationTicks": 96,
            "midi": 39,
            "name": "D#2",
            "ticks": 55680,
            "time": 76.315675,
            "velocity": 0.3937007874015748
          },
          {
            "duration": 0.13157875000000274,
            "durationTicks": 96,
            "midi": 36,
            "name": "C2",
            "ticks": 55872,
            "time": 76.57883249999999,
            "velocity": 0.3937007874015748
          },
          {
            "duration": 0.13157875000000274,
            "durationTicks": 96,
            "midi": 35,
            "name": "B1",
            "ticks": 56064,
            "time": 76.84199,
            "velocity": 0.3937007874015748
          },
          {
            "duration": 0.13157875000000274,
            "durationTicks": 96,
            "midi": 38,
            "name": "D2",
            "ticks": 56448,
            "time": 77.36830499999999,
            "velocity": 0.3937007874015748
          },
          {
            "duration": 0.13157874999998853,
            "durationTicks": 96,
            "midi": 39,
            "name": "D#2",
            "ticks": 56832,
            "time": 77.89462,
            "velocity": 0.3937007874015748
          },
          {
            "duration": 0.13157875000000274,
            "durationTicks": 96,
            "midi": 43,
            "name": "G2",
            "ticks": 57216,
            "time": 78.420935,
            "velocity": 0.3937007874015748
          },
          {
            "duration": 0.13157875000000274,
            "durationTicks": 96,
            "midi": 39,
            "name": "D#2",
            "ticks": 57408,
            "time": 78.68409249999999,
            "velocity": 0.3937007874015748
          },
          {
            "duration": 0.13157875000000274,
            "durationTicks": 96,
            "midi": 41,
            "name": "F2",
            "ticks": 57600,
            "time": 78.94725,
            "velocity": 0.3937007874015748
          },
          {
            "duration": 0.13157874999998853,
            "durationTicks": 96,
            "midi": 44,
            "name": "G#2",
            "ticks": 57792,
            "time": 79.2104075,
            "velocity": 0.3937007874015748
          },
          {
            "duration": 0.13157875000000274,
            "durationTicks": 96,
            "midi": 48,
            "name": "C3",
            "ticks": 57984,
            "time": 79.473565,
            "velocity": 0.3937007874015748
          },
          {
            "duration": 0.13157875000000274,
            "durationTicks": 96,
            "midi": 44,
            "name": "G#2",
            "ticks": 58176,
            "time": 79.7367225,
            "velocity": 0.3937007874015748
          },
          {
            "duration": 0.13157875000000274,
            "durationTicks": 96,
            "midi": 36,
            "name": "C2",
            "ticks": 58368,
            "time": 79.99987999999999,
            "velocity": 0.3937007874015748
          },
          {
            "duration": 0.13157874999998853,
            "durationTicks": 96,
            "midi": 39,
            "name": "D#2",
            "ticks": 58752,
            "time": 80.526195,
            "velocity": 0.3937007874015748
          },
          {
            "duration": 0.13157875000000274,
            "durationTicks": 96,
            "midi": 36,
            "name": "C2",
            "ticks": 58944,
            "time": 80.78935249999999,
            "velocity": 0.3937007874015748
          },
          {
            "duration": 0.13157875000000274,
            "durationTicks": 96,
            "midi": 35,
            "name": "B1",
            "ticks": 59136,
            "time": 81.05251,
            "velocity": 0.3937007874015748
          },
          {
            "duration": 0.13157875000000274,
            "durationTicks": 96,
            "midi": 38,
            "name": "D2",
            "ticks": 59520,
            "time": 81.578825,
            "velocity": 0.3937007874015748
          },
          {
            "duration": 0.13157875000000274,
            "durationTicks": 96,
            "midi": 39,
            "name": "D#2",
            "ticks": 59904,
            "time": 82.10513999999999,
            "velocity": 0.3937007874015748
          },
          {
            "duration": 0.13157874999998853,
            "durationTicks": 96,
            "midi": 43,
            "name": "G2",
            "ticks": 60288,
            "time": 82.631455,
            "velocity": 0.3937007874015748
          },
          {
            "duration": 0.13157875000000274,
            "durationTicks": 96,
            "midi": 39,
            "name": "D#2",
            "ticks": 60480,
            "time": 82.8946125,
            "velocity": 0.3937007874015748
          },
          {
            "duration": 0.13157875000000274,
            "durationTicks": 96,
            "midi": 41,
            "name": "F2",
            "ticks": 60672,
            "time": 83.15777,
            "velocity": 0.3937007874015748
          },
          {
            "duration": 0.13157875000000274,
            "durationTicks": 96,
            "midi": 44,
            "name": "G#2",
            "ticks": 60864,
            "time": 83.42092749999999,
            "velocity": 0.3937007874015748
          },
          {
            "duration": 0.13157875000000274,
            "durationTicks": 96,
            "midi": 48,
            "name": "C3",
            "ticks": 61056,
            "time": 83.684085,
            "velocity": 0.3937007874015748
          },
          {
            "duration": 0.13157874999998853,
            "durationTicks": 96,
            "midi": 44,
            "name": "G#2",
            "ticks": 61248,
            "time": 83.9472425,
            "velocity": 0.3937007874015748
          },
          {
            "duration": 0.13157875000000274,
            "durationTicks": 96,
            "midi": 36,
            "name": "C2",
            "ticks": 61440,
            "time": 84.21039999999999,
            "velocity": 0.3937007874015748
          },
          {
            "duration": 0.13157875000000274,
            "durationTicks": 96,
            "midi": 39,
            "name": "D#2",
            "ticks": 61824,
            "time": 84.73671499999999,
            "velocity": 0.3937007874015748
          },
          {
            "duration": 0.13157875000000274,
            "durationTicks": 96,
            "midi": 36,
            "name": "C2",
            "ticks": 62016,
            "time": 84.9998725,
            "velocity": 0.3937007874015748
          },
          {
            "duration": 0.13157875000000274,
            "durationTicks": 96,
            "midi": 35,
            "name": "B1",
            "ticks": 62208,
            "time": 85.26303,
            "velocity": 0.3937007874015748
          },
          {
            "duration": 0.13157875000000274,
            "durationTicks": 96,
            "midi": 38,
            "name": "D2",
            "ticks": 62592,
            "time": 85.789345,
            "velocity": 0.3937007874015748
          },
          {
            "duration": 0.13157875000000274,
            "durationTicks": 96,
            "midi": 39,
            "name": "D#2",
            "ticks": 62976,
            "time": 86.31566,
            "velocity": 0.3937007874015748
          },
          {
            "duration": 0.13157875000000274,
            "durationTicks": 96,
            "midi": 43,
            "name": "G2",
            "ticks": 63360,
            "time": 86.84197499999999,
            "velocity": 0.3937007874015748
          },
          {
            "duration": 0.13157875000000274,
            "durationTicks": 96,
            "midi": 39,
            "name": "D#2",
            "ticks": 63552,
            "time": 87.1051325,
            "velocity": 0.3937007874015748
          },
          {
            "duration": 0.13157874999998853,
            "durationTicks": 96,
            "midi": 41,
            "name": "F2",
            "ticks": 63744,
            "time": 87.36829,
            "velocity": 0.3937007874015748
          },
          {
            "duration": 0.13157875000000274,
            "durationTicks": 96,
            "midi": 44,
            "name": "G#2",
            "ticks": 63936,
            "time": 87.6314475,
            "velocity": 0.3937007874015748
          },
          {
            "duration": 0.13157875000000274,
            "durationTicks": 96,
            "midi": 48,
            "name": "C3",
            "ticks": 64128,
            "time": 87.894605,
            "velocity": 0.3937007874015748
          },
          {
            "duration": 0.13157875000000274,
            "durationTicks": 96,
            "midi": 44,
            "name": "G#2",
            "ticks": 64320,
            "time": 88.15776249999999,
            "velocity": 0.3937007874015748
          },
          {
            "duration": 0.13157875000000274,
            "durationTicks": 96,
            "midi": 36,
            "name": "C2",
            "ticks": 64512,
            "time": 88.42092,
            "velocity": 0.3937007874015748
          },
          {
            "duration": 0.13157875000000274,
            "durationTicks": 96,
            "midi": 39,
            "name": "D#2",
            "ticks": 64896,
            "time": 88.94723499999999,
            "velocity": 0.3937007874015748
          },
          {
            "duration": 0.13157875000000274,
            "durationTicks": 96,
            "midi": 36,
            "name": "C2",
            "ticks": 65088,
            "time": 89.2103925,
            "velocity": 0.3937007874015748
          },
          {
            "duration": 0.13157874999998853,
            "durationTicks": 96,
            "midi": 35,
            "name": "B1",
            "ticks": 65280,
            "time": 89.47355,
            "velocity": 0.3937007874015748
          },
          {
            "duration": 0.13157875000000274,
            "durationTicks": 96,
            "midi": 38,
            "name": "D2",
            "ticks": 65664,
            "time": 89.999865,
            "velocity": 0.3937007874015748
          },
          {
            "duration": 0.13157875000000274,
            "durationTicks": 96,
            "midi": 39,
            "name": "D#2",
            "ticks": 66048,
            "time": 90.52618,
            "velocity": 0.3937007874015748
          },
          {
            "duration": 0.13157875000000274,
            "durationTicks": 96,
            "midi": 43,
            "name": "G2",
            "ticks": 66432,
            "time": 91.052495,
            "velocity": 0.3937007874015748
          },
          {
            "duration": 0.13157875000000274,
            "durationTicks": 96,
            "midi": 39,
            "name": "D#2",
            "ticks": 66624,
            "time": 91.3156525,
            "velocity": 0.3937007874015748
          },
          {
            "duration": 0.13157875000000274,
            "durationTicks": 96,
            "midi": 41,
            "name": "F2",
            "ticks": 66816,
            "time": 91.57880999999999,
            "velocity": 0.3937007874015748
          },
          {
            "duration": 0.13157875000000274,
            "durationTicks": 96,
            "midi": 44,
            "name": "G#2",
            "ticks": 67008,
            "time": 91.8419675,
            "velocity": 0.3937007874015748
          },
          {
            "duration": 0.13157874999998853,
            "durationTicks": 96,
            "midi": 48,
            "name": "C3",
            "ticks": 67200,
            "time": 92.105125,
            "velocity": 0.3937007874015748
          },
          {
            "duration": 0.13157875000000274,
            "durationTicks": 96,
            "midi": 44,
            "name": "G#2",
            "ticks": 67392,
            "time": 92.36828249999999,
            "velocity": 0.3937007874015748
          }
        ],
        "endOfTrackTicks": 67488
      },
      {
        "channel": 9,
        "controlChanges": {},
        "pitchBends": [],
        "instrument": {
          "family": "drums",
          "number": 0,
          "name": "standard kit"
        },
        "name": "Electric Drum Kit",
        "notes": [
          {
            "duration": 0.13157875000000274,
            "durationTicks": 96,
            "midi": 81,
            "name": "A5",
            "ticks": 23808,
            "time": 32.63153,
            "velocity": 0.3937007874015748
          },
          {
            "duration": 0.13157875000000274,
            "durationTicks": 96,
            "midi": 52,
            "name": "E3",
            "ticks": 24576,
            "time": 33.68416,
            "velocity": 0.3937007874015748
          },
          {
            "duration": 0.13157875000000274,
            "durationTicks": 96,
            "midi": 36,
            "name": "C2",
            "ticks": 24576,
            "time": 33.68416,
            "velocity": 0.3937007874015748
          },
          {
            "duration": 0.13157875000000274,
            "durationTicks": 96,
            "midi": 35,
            "name": "B1",
            "ticks": 24576,
            "time": 33.68416,
            "velocity": 0.3937007874015748
          },
          {
            "duration": 0.13157875000000274,
            "durationTicks": 96,
            "midi": 44,
            "name": "G#2",
            "ticks": 24576,
            "time": 33.68416,
            "velocity": 0.3937007874015748
          },
          {
            "duration": 0.13157875000000274,
            "durationTicks": 96,
            "midi": 49,
            "name": "C#3",
            "ticks": 24576,
            "time": 33.68416,
            "velocity": 0.3937007874015748
          },
          {
            "duration": 0.13157875000000274,
            "durationTicks": 96,
            "midi": 44,
            "name": "G#2",
            "ticks": 24768,
            "time": 33.9473175,
            "velocity": 0.3937007874015748
          },
          {
            "duration": 0.13157875000000274,
            "durationTicks": 96,
            "midi": 38,
            "name": "D2",
            "ticks": 24960,
            "time": 34.210474999999995,
            "velocity": 0.3937007874015748
          },
          {
            "duration": 0.13157875000000274,
            "durationTicks": 96,
            "midi": 44,
            "name": "G#2",
            "ticks": 24960,
            "time": 34.210474999999995,
            "velocity": 0.3937007874015748
          },
          {
            "duration": 0.13157874999999564,
            "durationTicks": 96,
            "midi": 44,
            "name": "G#2",
            "ticks": 25152,
            "time": 34.4736325,
            "velocity": 0.3937007874015748
          },
          {
            "duration": 0.13157875000000274,
            "durationTicks": 96,
            "midi": 44,
            "name": "G#2",
            "ticks": 25344,
            "time": 34.73679,
            "velocity": 0.3937007874015748
          },
          {
            "duration": 0.13157875000000274,
            "durationTicks": 96,
            "midi": 44,
            "name": "G#2",
            "ticks": 25536,
            "time": 34.9999475,
            "velocity": 0.3937007874015748
          },
          {
            "duration": 0.13157875000000274,
            "durationTicks": 96,
            "midi": 36,
            "name": "C2",
            "ticks": 25536,
            "time": 34.9999475,
            "velocity": 0.3937007874015748
          },
          {
            "duration": 0.13157875000000274,
            "durationTicks": 96,
            "midi": 35,
            "name": "B1",
            "ticks": 25536,
            "time": 34.9999475,
            "velocity": 0.3937007874015748
          },
          {
            "duration": 0.13157875000000274,
            "durationTicks": 96,
            "midi": 38,
            "name": "D2",
            "ticks": 25728,
            "time": 35.263104999999996,
            "velocity": 0.3937007874015748
          },
          {
            "duration": 0.13157875000000274,
            "durationTicks": 96,
            "midi": 44,
            "name": "G#2",
            "ticks": 25728,
            "time": 35.263104999999996,
            "velocity": 0.3937007874015748
          },
          {
            "duration": 0.13157874999999564,
            "durationTicks": 96,
            "midi": 44,
            "name": "G#2",
            "ticks": 25920,
            "time": 35.5262625,
            "velocity": 0.3937007874015748
          },
          {
            "duration": 0.13157874999999564,
            "durationTicks": 96,
            "midi": 36,
            "name": "C2",
            "ticks": 26112,
            "time": 35.78942,
            "velocity": 0.3937007874015748
          },
          {
            "duration": 0.13157874999999564,
            "durationTicks": 96,
            "midi": 44,
            "name": "G#2",
            "ticks": 26112,
            "time": 35.78942,
            "velocity": 0.3937007874015748
          },
          {
            "duration": 0.13157874999999564,
            "durationTicks": 96,
            "midi": 35,
            "name": "B1",
            "ticks": 26112,
            "time": 35.78942,
            "velocity": 0.3937007874015748
          },
          {
            "duration": 0.13157875000000274,
            "durationTicks": 96,
            "midi": 44,
            "name": "G#2",
            "ticks": 26304,
            "time": 36.0525775,
            "velocity": 0.3937007874015748
          },
          {
            "duration": 0.13157875000000274,
            "durationTicks": 96,
            "midi": 38,
            "name": "D2",
            "ticks": 26496,
            "time": 36.315735,
            "velocity": 0.3937007874015748
          },
          {
            "duration": 0.13157875000000274,
            "durationTicks": 96,
            "midi": 44,
            "name": "G#2",
            "ticks": 26496,
            "time": 36.315735,
            "velocity": 0.3937007874015748
          },
          {
            "duration": 0.13157875000000274,
            "durationTicks": 96,
            "midi": 44,
            "name": "G#2",
            "ticks": 26688,
            "time": 36.578892499999995,
            "velocity": 0.3937007874015748
          },
          {
            "duration": 0.13157874999999564,
            "durationTicks": 96,
            "midi": 44,
            "name": "G#2",
            "ticks": 26880,
            "time": 36.84205,
            "velocity": 0.3937007874015748
          },
          {
            "duration": 0.13157875000000274,
            "durationTicks": 96,
            "midi": 36,
            "name": "C2",
            "ticks": 27072,
            "time": 37.1052075,
            "velocity": 0.3937007874015748
          },
          {
            "duration": 0.13157875000000274,
            "durationTicks": 96,
            "midi": 35,
            "name": "B1",
            "ticks": 27072,
            "time": 37.1052075,
            "velocity": 0.3937007874015748
          },
          {
            "duration": 0.13157875000000274,
            "durationTicks": 96,
            "midi": 44,
            "name": "G#2",
            "ticks": 27072,
            "time": 37.1052075,
            "velocity": 0.3937007874015748
          },
          {
            "duration": 0.13157875000000274,
            "durationTicks": 96,
            "midi": 38,
            "name": "D2",
            "ticks": 27264,
            "time": 37.368365,
            "velocity": 0.3937007874015748
          },
          {
            "duration": 0.13157875000000274,
            "durationTicks": 96,
            "midi": 44,
            "name": "G#2",
            "ticks": 27264,
            "time": 37.368365,
            "velocity": 0.3937007874015748
          },
          {
            "duration": 0.13157875000000274,
            "durationTicks": 96,
            "midi": 44,
            "name": "G#2",
            "ticks": 27456,
            "time": 37.631522499999996,
            "velocity": 0.3937007874015748
          },
          {
            "duration": 0.13157874999999564,
            "durationTicks": 96,
            "midi": 36,
            "name": "C2",
            "ticks": 27648,
            "time": 37.89468,
            "velocity": 0.3937007874015748
          },
          {
            "duration": 0.13157874999999564,
            "durationTicks": 96,
            "midi": 44,
            "name": "G#2",
            "ticks": 27648,
            "time": 37.89468,
            "velocity": 0.3937007874015748
          },
          {
            "duration": 0.13157874999999564,
            "durationTicks": 96,
            "midi": 35,
            "name": "B1",
            "ticks": 27648,
            "time": 37.89468,
            "velocity": 0.3937007874015748
          },
          {
            "duration": 0.13157874999999564,
            "durationTicks": 96,
            "midi": 44,
            "name": "G#2",
            "ticks": 27840,
            "time": 38.1578375,
            "velocity": 0.3937007874015748
          },
          {
            "duration": 0.13157875000000274,
            "durationTicks": 96,
            "midi": 44,
            "name": "G#2",
            "ticks": 28032,
            "time": 38.420995,
            "velocity": 0.3937007874015748
          },
          {
            "duration": 0.13157875000000274,
            "durationTicks": 96,
            "midi": 38,
            "name": "D2",
            "ticks": 28032,
            "time": 38.420995,
            "velocity": 0.3937007874015748
          },
          {
            "duration": 0.13157875000000274,
            "durationTicks": 96,
            "midi": 44,
            "name": "G#2",
            "ticks": 28224,
            "time": 38.684152499999996,
            "velocity": 0.3937007874015748
          },
          {
            "duration": 0.13157874999999564,
            "durationTicks": 96,
            "midi": 44,
            "name": "G#2",
            "ticks": 28416,
            "time": 38.94731,
            "velocity": 0.3937007874015748
          },
          {
            "duration": 0.13157874999999564,
            "durationTicks": 96,
            "midi": 35,
            "name": "B1",
            "ticks": 28608,
            "time": 39.2104675,
            "velocity": 0.3937007874015748
          },
          {
            "duration": 0.13157874999999564,
            "durationTicks": 96,
            "midi": 36,
            "name": "C2",
            "ticks": 28608,
            "time": 39.2104675,
            "velocity": 0.3937007874015748
          },
          {
            "duration": 0.13157874999999564,
            "durationTicks": 96,
            "midi": 44,
            "name": "G#2",
            "ticks": 28608,
            "time": 39.2104675,
            "velocity": 0.3937007874015748
          },
          {
            "duration": 0.13157875000000274,
            "durationTicks": 96,
            "midi": 44,
            "name": "G#2",
            "ticks": 28800,
            "time": 39.473625,
            "velocity": 0.3937007874015748
          },
          {
            "duration": 0.13157875000000274,
            "durationTicks": 96,
            "midi": 38,
            "name": "D2",
            "ticks": 28800,
            "time": 39.473625,
            "velocity": 0.3937007874015748
          },
          {
            "duration": 0.13157875000000274,
            "durationTicks": 96,
            "midi": 44,
            "name": "G#2",
            "ticks": 28992,
            "time": 39.7367825,
            "velocity": 0.3937007874015748
          },
          {
            "duration": 0.13157875000000274,
            "durationTicks": 96,
            "midi": 35,
            "name": "B1",
            "ticks": 29184,
            "time": 39.999939999999995,
            "velocity": 0.3937007874015748
          },
          {
            "duration": 0.13157875000000274,
            "durationTicks": 96,
            "midi": 44,
            "name": "G#2",
            "ticks": 29184,
            "time": 39.999939999999995,
            "velocity": 0.3937007874015748
          },
          {
            "duration": 0.13157875000000274,
            "durationTicks": 96,
            "midi": 36,
            "name": "C2",
            "ticks": 29184,
            "time": 39.999939999999995,
            "velocity": 0.3937007874015748
          },
          {
            "duration": 0.13157874999999564,
            "durationTicks": 96,
            "midi": 44,
            "name": "G#2",
            "ticks": 29376,
            "time": 40.2630975,
            "velocity": 0.3937007874015748
          },
          {
            "duration": 0.13157875000000274,
            "durationTicks": 96,
            "midi": 38,
            "name": "D2",
            "ticks": 29568,
            "time": 40.526255,
            "velocity": 0.3937007874015748
          },
          {
            "duration": 0.13157875000000274,
            "durationTicks": 96,
            "midi": 44,
            "name": "G#2",
            "ticks": 29568,
            "time": 40.526255,
            "velocity": 0.3937007874015748
          },
          {
            "duration": 0.13157875000000274,
            "durationTicks": 96,
            "midi": 44,
            "name": "G#2",
            "ticks": 29760,
            "time": 40.7894125,
            "velocity": 0.3937007874015748
          },
          {
            "duration": 0.13157875000000274,
            "durationTicks": 96,
            "midi": 44,
            "name": "G#2",
            "ticks": 29952,
            "time": 41.052569999999996,
            "velocity": 0.3937007874015748
          },
          {
            "duration": 0.13157874999999564,
            "durationTicks": 96,
            "midi": 44,
            "name": "G#2",
            "ticks": 30144,
            "time": 41.3157275,
            "velocity": 0.3937007874015748
          },
          {
            "duration": 0.13157874999999564,
            "durationTicks": 96,
            "midi": 36,
            "name": "C2",
            "ticks": 30144,
            "time": 41.3157275,
            "velocity": 0.3937007874015748
          },
          {
            "duration": 0.13157874999999564,
            "durationTicks": 96,
            "midi": 35,
            "name": "B1",
            "ticks": 30144,
            "time": 41.3157275,
            "velocity": 0.3937007874015748
          },
          {
            "duration": 0.13157874999999564,
            "durationTicks": 96,
            "midi": 38,
            "name": "D2",
            "ticks": 30336,
            "time": 41.578885,
            "velocity": 0.3937007874015748
          },
          {
            "duration": 0.13157874999999564,
            "durationTicks": 96,
            "midi": 44,
            "name": "G#2",
            "ticks": 30336,
            "time": 41.578885,
            "velocity": 0.3937007874015748
          },
          {
            "duration": 0.13157875000000274,
            "durationTicks": 96,
            "midi": 44,
            "name": "G#2",
            "ticks": 30528,
            "time": 41.8420425,
            "velocity": 0.3937007874015748
          },
          {
            "duration": 0.13157875000000274,
            "durationTicks": 96,
            "midi": 36,
            "name": "C2",
            "ticks": 30720,
            "time": 42.105199999999996,
            "velocity": 0.3937007874015748
          },
          {
            "duration": 0.13157875000000274,
            "durationTicks": 96,
            "midi": 35,
            "name": "B1",
            "ticks": 30720,
            "time": 42.105199999999996,
            "velocity": 0.3937007874015748
          },
          {
            "duration": 0.13157875000000274,
            "durationTicks": 96,
            "midi": 44,
            "name": "G#2",
            "ticks": 30720,
            "time": 42.105199999999996,
            "velocity": 0.3937007874015748
          },
          {
            "duration": 0.13157875000000274,
            "durationTicks": 96,
            "midi": 44,
            "name": "G#2",
            "ticks": 30912,
            "time": 42.368357499999995,
            "velocity": 0.3937007874015748
          },
          {
            "duration": 0.13157874999999564,
            "durationTicks": 96,
            "midi": 38,
            "name": "D2",
            "ticks": 31104,
            "time": 42.631515,
            "velocity": 0.3937007874015748
          },
          {
            "duration": 0.13157874999999564,
            "durationTicks": 96,
            "midi": 44,
            "name": "G#2",
            "ticks": 31104,
            "time": 42.631515,
            "velocity": 0.3937007874015748
          },
          {
            "duration": 0.13157875000000274,
            "durationTicks": 96,
            "midi": 44,
            "name": "G#2",
            "ticks": 31296,
            "time": 42.8946725,
            "velocity": 0.3937007874015748
          },
          {
            "duration": 0.13157875000000274,
            "durationTicks": 96,
            "midi": 44,
            "name": "G#2",
            "ticks": 31488,
            "time": 43.15783,
            "velocity": 0.3937007874015748
          },
          {
            "duration": 0.13157875000000274,
            "durationTicks": 96,
            "midi": 44,
            "name": "G#2",
            "ticks": 31680,
            "time": 43.420987499999995,
            "velocity": 0.3937007874015748
          },
          {
            "duration": 0.13157875000000274,
            "durationTicks": 96,
            "midi": 36,
            "name": "C2",
            "ticks": 31680,
            "time": 43.420987499999995,
            "velocity": 0.3937007874015748
          },
          {
            "duration": 0.13157875000000274,
            "durationTicks": 96,
            "midi": 35,
            "name": "B1",
            "ticks": 31680,
            "time": 43.420987499999995,
            "velocity": 0.3937007874015748
          },
          {
            "duration": 0.13157874999999564,
            "durationTicks": 96,
            "midi": 44,
            "name": "G#2",
            "ticks": 31872,
            "time": 43.684145,
            "velocity": 0.3937007874015748
          },
          {
            "duration": 0.13157874999999564,
            "durationTicks": 96,
            "midi": 38,
            "name": "D2",
            "ticks": 31872,
            "time": 43.684145,
            "velocity": 0.3937007874015748
          },
          {
            "duration": 0.13157874999999564,
            "durationTicks": 96,
            "midi": 44,
            "name": "G#2",
            "ticks": 32064,
            "time": 43.9473025,
            "velocity": 0.3937007874015748
          },
          {
            "duration": 0.13157875000000274,
            "durationTicks": 96,
            "midi": 35,
            "name": "B1",
            "ticks": 32256,
            "time": 44.21046,
            "velocity": 0.3937007874015748
          },
          {
            "duration": 0.13157875000000274,
            "durationTicks": 96,
            "midi": 36,
            "name": "C2",
            "ticks": 32256,
            "time": 44.21046,
            "velocity": 0.3937007874015748
          },
          {
            "duration": 0.13157875000000274,
            "durationTicks": 96,
            "midi": 44,
            "name": "G#2",
            "ticks": 32256,
            "time": 44.21046,
            "velocity": 0.3937007874015748
          },
          {
            "duration": 0.13157875000000274,
            "durationTicks": 96,
            "midi": 44,
            "name": "G#2",
            "ticks": 32448,
            "time": 44.473617499999996,
            "velocity": 0.3937007874015748
          },
          {
            "duration": 0.13157874999999564,
            "durationTicks": 96,
            "midi": 38,
            "name": "D2",
            "ticks": 32640,
            "time": 44.736775,
            "velocity": 0.3937007874015748
          },
          {
            "duration": 0.13157874999999564,
            "durationTicks": 96,
            "midi": 44,
            "name": "G#2",
            "ticks": 32640,
            "time": 44.736775,
            "velocity": 0.3937007874015748
          },
          {
            "duration": 0.13157874999999564,
            "durationTicks": 96,
            "midi": 44,
            "name": "G#2",
            "ticks": 32832,
            "time": 44.9999325,
            "velocity": 0.3937007874015748
          },
          {
            "duration": 0.13157875000000274,
            "durationTicks": 96,
            "midi": 44,
            "name": "G#2",
            "ticks": 33024,
            "time": 45.26309,
            "velocity": 0.3937007874015748
          },
          {
            "duration": 0.13157875000000274,
            "durationTicks": 96,
            "midi": 35,
            "name": "B1",
            "ticks": 33216,
            "time": 45.5262475,
            "velocity": 0.3937007874015748
          },
          {
            "duration": 0.13157875000000274,
            "durationTicks": 96,
            "midi": 44,
            "name": "G#2",
            "ticks": 33216,
            "time": 45.5262475,
            "velocity": 0.3937007874015748
          },
          {
            "duration": 0.13157875000000274,
            "durationTicks": 96,
            "midi": 36,
            "name": "C2",
            "ticks": 33216,
            "time": 45.5262475,
            "velocity": 0.3937007874015748
          },
          {
            "duration": 0.13157875000000274,
            "durationTicks": 96,
            "midi": 44,
            "name": "G#2",
            "ticks": 33408,
            "time": 45.789404999999995,
            "velocity": 0.3937007874015748
          },
          {
            "duration": 0.13157875000000274,
            "durationTicks": 96,
            "midi": 38,
            "name": "D2",
            "ticks": 33408,
            "time": 45.789404999999995,
            "velocity": 0.3937007874015748
          },
          {
            "duration": 0.13157874999999564,
            "durationTicks": 96,
            "midi": 44,
            "name": "G#2",
            "ticks": 33600,
            "time": 46.0525625,
            "velocity": 0.3937007874015748
          },
          {
            "duration": 0.13157874999999564,
            "durationTicks": 96,
            "midi": 44,
            "name": "G#2",
            "ticks": 33792,
            "time": 46.31572,
            "velocity": 0.3937007874015748
          },
          {
            "duration": 0.13157874999999564,
            "durationTicks": 96,
            "midi": 36,
            "name": "C2",
            "ticks": 33792,
            "time": 46.31572,
            "velocity": 0.3937007874015748
          },
          {
            "duration": 0.13157874999999564,
            "durationTicks": 96,
            "midi": 35,
            "name": "B1",
            "ticks": 33792,
            "time": 46.31572,
            "velocity": 0.3937007874015748
          },
          {
            "duration": 0.13157875000000274,
            "durationTicks": 96,
            "midi": 44,
            "name": "G#2",
            "ticks": 33984,
            "time": 46.5788775,
            "velocity": 0.3937007874015748
          },
          {
            "duration": 0.13157875000000274,
            "durationTicks": 96,
            "midi": 38,
            "name": "D2",
            "ticks": 34176,
            "time": 46.842034999999996,
            "velocity": 0.3937007874015748
          },
          {
            "duration": 0.13157875000000274,
            "durationTicks": 96,
            "midi": 44,
            "name": "G#2",
            "ticks": 34176,
            "time": 46.842034999999996,
            "velocity": 0.3937007874015748
          },
          {
            "duration": 0.13157874999999564,
            "durationTicks": 96,
            "midi": 44,
            "name": "G#2",
            "ticks": 34368,
            "time": 47.1051925,
            "velocity": 0.3937007874015748
          },
          {
            "duration": 0.13157874999999564,
            "durationTicks": 96,
            "midi": 44,
            "name": "G#2",
            "ticks": 34560,
            "time": 47.36835,
            "velocity": 0.3937007874015748
          },
          {
            "duration": 0.13157875000000274,
            "durationTicks": 96,
            "midi": 36,
            "name": "C2",
            "ticks": 34752,
            "time": 47.6315075,
            "velocity": 0.3937007874015748
          },
          {
            "duration": 0.13157875000000274,
            "durationTicks": 96,
            "midi": 44,
            "name": "G#2",
            "ticks": 34752,
            "time": 47.6315075,
            "velocity": 0.3937007874015748
          },
          {
            "duration": 0.13157875000000274,
            "durationTicks": 96,
            "midi": 35,
            "name": "B1",
            "ticks": 34752,
            "time": 47.6315075,
            "velocity": 0.3937007874015748
          },
          {
            "duration": 0.13157875000000274,
            "durationTicks": 96,
            "midi": 44,
            "name": "G#2",
            "ticks": 34944,
            "time": 47.894664999999996,
            "velocity": 0.3937007874015748
          },
          {
            "duration": 0.13157875000000274,
            "durationTicks": 96,
            "midi": 38,
            "name": "D2",
            "ticks": 34944,
            "time": 47.894664999999996,
            "velocity": 0.3937007874015748
          },
          {
            "duration": 0.13157875000000274,
            "durationTicks": 96,
            "midi": 44,
            "name": "G#2",
            "ticks": 35136,
            "time": 48.157822499999995,
            "velocity": 0.3937007874015748
          },
          {
            "duration": 0.13157874999999564,
            "durationTicks": 96,
            "midi": 36,
            "name": "C2",
            "ticks": 35328,
            "time": 48.42098,
            "velocity": 0.3937007874015748
          },
          {
            "duration": 0.13157874999999564,
            "durationTicks": 96,
            "midi": 35,
            "name": "B1",
            "ticks": 35328,
            "time": 48.42098,
            "velocity": 0.3937007874015748
          },
          {
            "duration": 0.13157874999999564,
            "durationTicks": 96,
            "midi": 44,
            "name": "G#2",
            "ticks": 35328,
            "time": 48.42098,
            "velocity": 0.3937007874015748
          },
          {
            "duration": 0.13157875000000274,
            "durationTicks": 96,
            "midi": 44,
            "name": "G#2",
            "ticks": 35520,
            "time": 48.6841375,
            "velocity": 0.3937007874015748
          },
          {
            "duration": 0.13157875000000274,
            "durationTicks": 96,
            "midi": 44,
            "name": "G#2",
            "ticks": 35712,
            "time": 48.947295,
            "velocity": 0.3937007874015748
          },
          {
            "duration": 0.13157875000000274,
            "durationTicks": 96,
            "midi": 38,
            "name": "D2",
            "ticks": 35712,
            "time": 48.947295,
            "velocity": 0.3937007874015748
          },
          {
            "duration": 0.13157875000000274,
            "durationTicks": 96,
            "midi": 44,
            "name": "G#2",
            "ticks": 35904,
            "time": 49.210452499999995,
            "velocity": 0.3937007874015748
          },
          {
            "duration": 0.13157874999999564,
            "durationTicks": 96,
            "midi": 44,
            "name": "G#2",
            "ticks": 36096,
            "time": 49.47361,
            "velocity": 0.3937007874015748
          },
          {
            "duration": 0.13157874999999564,
            "durationTicks": 96,
            "midi": 44,
            "name": "G#2",
            "ticks": 36288,
            "time": 49.7367675,
            "velocity": 0.3937007874015748
          },
          {
            "duration": 0.13157874999999564,
            "durationTicks": 96,
            "midi": 36,
            "name": "C2",
            "ticks": 36288,
            "time": 49.7367675,
            "velocity": 0.3937007874015748
          },
          {
            "duration": 0.13157874999999564,
            "durationTicks": 96,
            "midi": 35,
            "name": "B1",
            "ticks": 36288,
            "time": 49.7367675,
            "velocity": 0.3937007874015748
          },
          {
            "duration": 0.13157875000000274,
            "durationTicks": 96,
            "midi": 44,
            "name": "G#2",
            "ticks": 36480,
            "time": 49.999925,
            "velocity": 0.3937007874015748
          },
          {
            "duration": 0.13157875000000274,
            "durationTicks": 96,
            "midi": 38,
            "name": "D2",
            "ticks": 36480,
            "time": 49.999925,
            "velocity": 0.3937007874015748
          },
          {
            "duration": 0.13157875000000274,
            "durationTicks": 96,
            "midi": 44,
            "name": "G#2",
            "ticks": 36672,
            "time": 50.263082499999996,
            "velocity": 0.3937007874015748
          },
          {
            "duration": 0.13157874999999564,
            "durationTicks": 96,
            "midi": 57,
            "name": "A3",
            "ticks": 36864,
            "time": 50.52624,
            "velocity": 0.3937007874015748
          },
          {
            "duration": 0.13157874999999564,
            "durationTicks": 96,
            "midi": 49,
            "name": "C#3",
            "ticks": 36864,
            "time": 50.52624,
            "velocity": 0.3937007874015748
          },
          {
            "duration": 0.13157874999999564,
            "durationTicks": 96,
            "midi": 36,
            "name": "C2",
            "ticks": 36864,
            "time": 50.52624,
            "velocity": 0.3937007874015748
          },
          {
            "duration": 0.13157874999999564,
            "durationTicks": 96,
            "midi": 35,
            "name": "B1",
            "ticks": 36864,
            "time": 50.52624,
            "velocity": 0.3937007874015748
          },
          {
            "duration": 0.13157875000000274,
            "durationTicks": 96,
            "midi": 38,
            "name": "D2",
            "ticks": 37248,
            "time": 51.052555,
            "velocity": 0.3937007874015748
          },
          {
            "duration": 0.13157874999999564,
            "durationTicks": 96,
            "midi": 36,
            "name": "C2",
            "ticks": 37824,
            "time": 51.8420275,
            "velocity": 0.3937007874015748
          },
          {
            "duration": 0.13157874999999564,
            "durationTicks": 96,
            "midi": 35,
            "name": "B1",
            "ticks": 37824,
            "time": 51.8420275,
            "velocity": 0.3937007874015748
          },
          {
            "duration": 0.13157874999999564,
            "durationTicks": 96,
            "midi": 38,
            "name": "D2",
            "ticks": 38016,
            "time": 52.105185,
            "velocity": 0.3937007874015748
          },
          {
            "duration": 0.13157875000000274,
            "durationTicks": 96,
            "midi": 35,
            "name": "B1",
            "ticks": 38400,
            "time": 52.631499999999996,
            "velocity": 0.3937007874015748
          },
          {
            "duration": 0.13157875000000274,
            "durationTicks": 96,
            "midi": 36,
            "name": "C2",
            "ticks": 38400,
            "time": 52.631499999999996,
            "velocity": 0.3937007874015748
          },
          {
            "duration": 0.13157874999999564,
            "durationTicks": 96,
            "midi": 38,
            "name": "D2",
            "ticks": 38784,
            "time": 53.157815,
            "velocity": 0.3937007874015748
          },
          {
            "duration": 0.13157875000000274,
            "durationTicks": 96,
            "midi": 36,
            "name": "C2",
            "ticks": 39360,
            "time": 53.947287499999995,
            "velocity": 0.3937007874015748
          },
          {
            "duration": 0.13157875000000274,
            "durationTicks": 96,
            "midi": 35,
            "name": "B1",
            "ticks": 39360,
            "time": 53.947287499999995,
            "velocity": 0.3937007874015748
          },
          {
            "duration": 0.13157874999999564,
            "durationTicks": 96,
            "midi": 38,
            "name": "D2",
            "ticks": 39552,
            "time": 54.210445,
            "velocity": 0.3937007874015748
          },
          {
            "duration": 0.13157875000000274,
            "durationTicks": 96,
            "midi": 36,
            "name": "C2",
            "ticks": 39936,
            "time": 54.73676,
            "velocity": 0.3937007874015748
          },
          {
            "duration": 0.13157875000000274,
            "durationTicks": 96,
            "midi": 35,
            "name": "B1",
            "ticks": 39936,
            "time": 54.73676,
            "velocity": 0.3937007874015748
          },
          {
            "duration": 0.13157874999999564,
            "durationTicks": 96,
            "midi": 38,
            "name": "D2",
            "ticks": 40320,
            "time": 55.263075,
            "velocity": 0.3937007874015748
          },
          {
            "duration": 0.13157875000000274,
            "durationTicks": 96,
            "midi": 36,
            "name": "C2",
            "ticks": 40896,
            "time": 56.052547499999996,
            "velocity": 0.3937007874015748
          },
          {
            "duration": 0.13157875000000274,
            "durationTicks": 96,
            "midi": 35,
            "name": "B1",
            "ticks": 40896,
            "time": 56.052547499999996,
            "velocity": 0.3937007874015748
          },
          {
            "duration": 0.13157875000000274,
            "durationTicks": 96,
            "midi": 38,
            "name": "D2",
            "ticks": 41088,
            "time": 56.315704999999994,
            "velocity": 0.3937007874015748
          },
          {
            "duration": 0.13157875000000274,
            "durationTicks": 96,
            "midi": 35,
            "name": "B1",
            "ticks": 41472,
            "time": 56.84202,
            "velocity": 0.3937007874015748
          },
          {
            "duration": 0.13157875000000274,
            "durationTicks": 96,
            "midi": 36,
            "name": "C2",
            "ticks": 41472,
            "time": 56.84202,
            "velocity": 0.3937007874015748
          },
          {
            "duration": 0.13157875000000274,
            "durationTicks": 96,
            "midi": 38,
            "name": "D2",
            "ticks": 41856,
            "time": 57.368334999999995,
            "velocity": 0.3937007874015748
          },
          {
            "duration": 0.13157874999999564,
            "durationTicks": 96,
            "midi": 36,
            "name": "C2",
            "ticks": 42240,
            "time": 57.89465,
            "velocity": 0.3937007874015748
          },
          {
            "duration": 0.13157874999999564,
            "durationTicks": 96,
            "midi": 35,
            "name": "B1",
            "ticks": 42240,
            "time": 57.89465,
            "velocity": 0.3937007874015748
          },
          {
            "duration": 0.13157875000000274,
            "durationTicks": 96,
            "midi": 36,
            "name": "C2",
            "ticks": 42432,
            "time": 58.1578075,
            "velocity": 0.3937007874015748
          },
          {
            "duration": 0.13157875000000274,
            "durationTicks": 96,
            "midi": 35,
            "name": "B1",
            "ticks": 42432,
            "time": 58.1578075,
            "velocity": 0.3937007874015748
          },
          {
            "duration": 0.13157875000000274,
            "durationTicks": 96,
            "midi": 38,
            "name": "D2",
            "ticks": 42624,
            "time": 58.420964999999995,
            "velocity": 0.3937007874015748
          },
          {
            "duration": 0.13157874999999564,
            "durationTicks": 96,
            "midi": 38,
            "name": "D2",
            "ticks": 42816,
            "time": 58.6841225,
            "velocity": 0.3937007874015748
          },
          {
            "duration": 0.13157875000000274,
            "durationTicks": 96,
            "midi": 38,
            "name": "D2",
            "ticks": 42912,
            "time": 58.81570125,
            "velocity": 0.3937007874015748
          },
          {
            "duration": 0.13157874999999564,
            "durationTicks": 96,
            "midi": 44,
            "name": "G#2",
            "ticks": 43008,
            "time": 58.94728,
            "velocity": 0.3937007874015748
          },
          {
            "duration": 0.13157874999999564,
            "durationTicks": 96,
            "midi": 57,
            "name": "A3",
            "ticks": 43008,
            "time": 58.94728,
            "velocity": 0.3937007874015748
          },
          {
            "duration": 0.13157874999999564,
            "durationTicks": 96,
            "midi": 49,
            "name": "C#3",
            "ticks": 43008,
            "time": 58.94728,
            "velocity": 0.3937007874015748
          },
          {
            "duration": 0.13157875000000274,
            "durationTicks": 96,
            "midi": 44,
            "name": "G#2",
            "ticks": 43200,
            "time": 59.2104375,
            "velocity": 0.3937007874015748
          },
          {
            "duration": 0.13157875000000274,
            "durationTicks": 96,
            "midi": 44,
            "name": "G#2",
            "ticks": 43392,
            "time": 59.473594999999996,
            "velocity": 0.3937007874015748
          },
          {
            "duration": 0.13157875000000274,
            "durationTicks": 96,
            "midi": 44,
            "name": "G#2",
            "ticks": 43584,
            "time": 59.736752499999994,
            "velocity": 0.3937007874015748
          },
          {
            "duration": 0.13157874999999564,
            "durationTicks": 96,
            "midi": 44,
            "name": "G#2",
            "ticks": 43776,
            "time": 59.99991,
            "velocity": 0.3937007874015748
          },
          {
            "duration": 0.13157874999999564,
            "durationTicks": 96,
            "midi": 44,
            "name": "G#2",
            "ticks": 43968,
            "time": 60.2630675,
            "velocity": 0.3937007874015748
          },
          {
            "duration": 0.13157875000000274,
            "durationTicks": 96,
            "midi": 44,
            "name": "G#2",
            "ticks": 44160,
            "time": 60.526225,
            "velocity": 0.3937007874015748
          },
          {
            "duration": 0.13157875000000274,
            "durationTicks": 96,
            "midi": 44,
            "name": "G#2",
            "ticks": 44352,
            "time": 60.789382499999995,
            "velocity": 0.3937007874015748
          },
          {
            "duration": 0.13157874999999564,
            "durationTicks": 96,
            "midi": 44,
            "name": "G#2",
            "ticks": 44544,
            "time": 61.05254,
            "velocity": 0.3937007874015748
          },
          {
            "duration": 0.13157874999999564,
            "durationTicks": 96,
            "midi": 44,
            "name": "G#2",
            "ticks": 44736,
            "time": 61.3156975,
            "velocity": 0.3937007874015748
          },
          {
            "duration": 0.13157875000000274,
            "durationTicks": 96,
            "midi": 44,
            "name": "G#2",
            "ticks": 44928,
            "time": 61.578855,
            "velocity": 0.3937007874015748
          },
          {
            "duration": 0.13157875000000274,
            "durationTicks": 96,
            "midi": 44,
            "name": "G#2",
            "ticks": 45120,
            "time": 61.842012499999996,
            "velocity": 0.3937007874015748
          },
          {
            "duration": 0.13157875000000274,
            "durationTicks": 96,
            "midi": 44,
            "name": "G#2",
            "ticks": 45312,
            "time": 62.105169999999994,
            "velocity": 0.3937007874015748
          },
          {
            "duration": 0.13157874999999564,
            "durationTicks": 96,
            "midi": 44,
            "name": "G#2",
            "ticks": 45504,
            "time": 62.3683275,
            "velocity": 0.3937007874015748
          },
          {
            "duration": 0.13157875000000274,
            "durationTicks": 96,
            "midi": 44,
            "name": "G#2",
            "ticks": 45696,
            "time": 62.631485,
            "velocity": 0.3937007874015748
          },
          {
            "duration": 0.13157875000000274,
            "durationTicks": 96,
            "midi": 44,
            "name": "G#2",
            "ticks": 45888,
            "time": 62.894642499999996,
            "velocity": 0.3937007874015748
          },
          {
            "duration": 0.13157875000000274,
            "durationTicks": 96,
            "midi": 44,
            "name": "G#2",
            "ticks": 46080,
            "time": 63.157799999999995,
            "velocity": 0.3937007874015748
          },
          {
            "duration": 0.13157874999999564,
            "durationTicks": 96,
            "midi": 44,
            "name": "G#2",
            "ticks": 46272,
            "time": 63.4209575,
            "velocity": 0.3937007874015748
          },
          {
            "duration": 0.13157874999999564,
            "durationTicks": 96,
            "midi": 44,
            "name": "G#2",
            "ticks": 46464,
            "time": 63.684115,
            "velocity": 0.3937007874015748
          },
          {
            "duration": 0.13157875000000274,
            "durationTicks": 96,
            "midi": 44,
            "name": "G#2",
            "ticks": 46656,
            "time": 63.9472725,
            "velocity": 0.3937007874015748
          },
          {
            "duration": 0.13157874999998853,
            "durationTicks": 96,
            "midi": 44,
            "name": "G#2",
            "ticks": 46848,
            "time": 64.21043,
            "velocity": 0.3937007874015748
          },
          {
            "duration": 0.13157875000000274,
            "durationTicks": 96,
            "midi": 44,
            "name": "G#2",
            "ticks": 47040,
            "time": 64.4735875,
            "velocity": 0.3937007874015748
          },
          {
            "duration": 0.13157875000000274,
            "durationTicks": 96,
            "midi": 44,
            "name": "G#2",
            "ticks": 47232,
            "time": 64.736745,
            "velocity": 0.3937007874015748
          },
          {
            "duration": 0.13157875000000274,
            "durationTicks": 96,
            "midi": 44,
            "name": "G#2",
            "ticks": 47424,
            "time": 64.99990249999999,
            "velocity": 0.3937007874015748
          },
          {
            "duration": 0.13157875000000274,
            "durationTicks": 96,
            "midi": 44,
            "name": "G#2",
            "ticks": 47616,
            "time": 65.26306,
            "velocity": 0.3937007874015748
          },
          {
            "duration": 0.13157875000000274,
            "durationTicks": 96,
            "midi": 44,
            "name": "G#2",
            "ticks": 47808,
            "time": 65.5262175,
            "velocity": 0.3937007874015748
          },
          {
            "duration": 0.13157875000000274,
            "durationTicks": 96,
            "midi": 44,
            "name": "G#2",
            "ticks": 48000,
            "time": 65.78937499999999,
            "velocity": 0.3937007874015748
          },
          {
            "duration": 0.13157875000000274,
            "durationTicks": 96,
            "midi": 44,
            "name": "G#2",
            "ticks": 48192,
            "time": 66.0525325,
            "velocity": 0.3937007874015748
          },
          {
            "duration": 0.13157874999998853,
            "durationTicks": 96,
            "midi": 44,
            "name": "G#2",
            "ticks": 48384,
            "time": 66.31569,
            "velocity": 0.3937007874015748
          },
          {
            "duration": 0.13157875000000274,
            "durationTicks": 96,
            "midi": 44,
            "name": "G#2",
            "ticks": 48576,
            "time": 66.5788475,
            "velocity": 0.3937007874015748
          },
          {
            "duration": 0.13157875000000274,
            "durationTicks": 96,
            "midi": 44,
            "name": "G#2",
            "ticks": 48768,
            "time": 66.842005,
            "velocity": 0.3937007874015748
          },
          {
            "duration": 0.13157875000000274,
            "durationTicks": 96,
            "midi": 44,
            "name": "G#2",
            "ticks": 48960,
            "time": 67.10516249999999,
            "velocity": 0.3937007874015748
          },
          {
            "duration": 0.13157875000000274,
            "durationTicks": 96,
            "midi": 36,
            "name": "C2",
            "ticks": 49152,
            "time": 67.36832,
            "velocity": 0.3937007874015748
          },
          {
            "duration": 0.13157875000000274,
            "durationTicks": 96,
            "midi": 35,
            "name": "B1",
            "ticks": 49152,
            "time": 67.36832,
            "velocity": 0.3937007874015748
          },
          {
            "duration": 0.13157875000000274,
            "durationTicks": 96,
            "midi": 38,
            "name": "D2",
            "ticks": 49536,
            "time": 67.894635,
            "velocity": 0.3937007874015748
          },
          {
            "duration": 0.13157875000000274,
            "durationTicks": 96,
            "midi": 36,
            "name": "C2",
            "ticks": 50112,
            "time": 68.6841075,
            "velocity": 0.3937007874015748
          },
          {
            "duration": 0.13157875000000274,
            "durationTicks": 96,
            "midi": 35,
            "name": "B1",
            "ticks": 50112,
            "time": 68.6841075,
            "velocity": 0.3937007874015748
          },
          {
            "duration": 0.13157874999998853,
            "durationTicks": 96,
            "midi": 38,
            "name": "D2",
            "ticks": 50304,
            "time": 68.947265,
            "velocity": 0.3937007874015748
          },
          {
            "duration": 0.13157875000000274,
            "durationTicks": 96,
            "midi": 36,
            "name": "C2",
            "ticks": 50688,
            "time": 69.47358,
            "velocity": 0.3937007874015748
          },
          {
            "duration": 0.13157875000000274,
            "durationTicks": 96,
            "midi": 35,
            "name": "B1",
            "ticks": 50688,
            "time": 69.47358,
            "velocity": 0.3937007874015748
          },
          {
            "duration": 0.13157875000000274,
            "durationTicks": 96,
            "midi": 38,
            "name": "D2",
            "ticks": 51072,
            "time": 69.999895,
            "velocity": 0.3937007874015748
          },
          {
            "duration": 0.13157875000000274,
            "durationTicks": 96,
            "midi": 36,
            "name": "C2",
            "ticks": 51648,
            "time": 70.7893675,
            "velocity": 0.3937007874015748
          },
          {
            "duration": 0.13157875000000274,
            "durationTicks": 96,
            "midi": 35,
            "name": "B1",
            "ticks": 51648,
            "time": 70.7893675,
            "velocity": 0.3937007874015748
          },
          {
            "duration": 0.13157874999998853,
            "durationTicks": 96,
            "midi": 38,
            "name": "D2",
            "ticks": 51840,
            "time": 71.052525,
            "velocity": 0.3937007874015748
          },
          {
            "duration": 0.13157875000000274,
            "durationTicks": 96,
            "midi": 36,
            "name": "C2",
            "ticks": 52224,
            "time": 71.57884,
            "velocity": 0.3937007874015748
          },
          {
            "duration": 0.13157875000000274,
            "durationTicks": 96,
            "midi": 35,
            "name": "B1",
            "ticks": 52224,
            "time": 71.57884,
            "velocity": 0.3937007874015748
          },
          {
            "duration": 0.13157875000000274,
            "durationTicks": 96,
            "midi": 38,
            "name": "D2",
            "ticks": 52608,
            "time": 72.105155,
            "velocity": 0.3937007874015748
          },
          {
            "duration": 0.13157875000000274,
            "durationTicks": 96,
            "midi": 36,
            "name": "C2",
            "ticks": 53184,
            "time": 72.8946275,
            "velocity": 0.3937007874015748
          },
          {
            "duration": 0.13157875000000274,
            "durationTicks": 96,
            "midi": 35,
            "name": "B1",
            "ticks": 53184,
            "time": 72.8946275,
            "velocity": 0.3937007874015748
          },
          {
            "duration": 0.13157875000000274,
            "durationTicks": 96,
            "midi": 38,
            "name": "D2",
            "ticks": 53376,
            "time": 73.15778499999999,
            "velocity": 0.3937007874015748
          },
          {
            "duration": 0.13157875000000274,
            "durationTicks": 96,
            "midi": 36,
            "name": "C2",
            "ticks": 53760,
            "time": 73.6841,
            "velocity": 0.3937007874015748
          },
          {
            "duration": 0.13157875000000274,
            "durationTicks": 96,
            "midi": 35,
            "name": "B1",
            "ticks": 53760,
            "time": 73.6841,
            "velocity": 0.3937007874015748
          },
          {
            "duration": 0.13157875000000274,
            "durationTicks": 96,
            "midi": 38,
            "name": "D2",
            "ticks": 54144,
            "time": 74.210415,
            "velocity": 0.3937007874015748
          },
          {
            "duration": 0.13157875000000274,
            "durationTicks": 96,
            "midi": 36,
            "name": "C2",
            "ticks": 54720,
            "time": 74.9998875,
            "velocity": 0.3937007874015748
          },
          {
            "duration": 0.13157875000000274,
            "durationTicks": 96,
            "midi": 35,
            "name": "B1",
            "ticks": 54720,
            "time": 74.9998875,
            "velocity": 0.3937007874015748
          },
          {
            "duration": 0.13157875000000274,
            "durationTicks": 96,
            "midi": 38,
            "name": "D2",
            "ticks": 54912,
            "time": 75.26304499999999,
            "velocity": 0.3937007874015748
          },
          {
            "duration": 0.13157875000000274,
            "durationTicks": 96,
            "midi": 38,
            "name": "D2",
            "ticks": 55200,
            "time": 75.65778125,
            "velocity": 0.3937007874015748
          },
          {
            "duration": 0.13157874999998853,
            "durationTicks": 96,
            "midi": 44,
            "name": "G#2",
            "ticks": 55296,
            "time": 75.78936,
            "velocity": 0.3937007874015748
          },
          {
            "duration": 0.13157874999998853,
            "durationTicks": 96,
            "midi": 35,
            "name": "B1",
            "ticks": 55296,
            "time": 75.78936,
            "velocity": 0.3937007874015748
          },
          {
            "duration": 0.13157874999998853,
            "durationTicks": 96,
            "midi": 36,
            "name": "C2",
            "ticks": 55296,
            "time": 75.78936,
            "velocity": 0.3937007874015748
          },
          {
            "duration": 0.13157875000000274,
            "durationTicks": 96,
            "midi": 44,
            "name": "G#2",
            "ticks": 55488,
            "time": 76.0525175,
            "velocity": 0.3937007874015748
          },
          {
            "duration": 0.13157875000000274,
            "durationTicks": 96,
            "midi": 44,
            "name": "G#2",
            "ticks": 55680,
            "time": 76.315675,
            "velocity": 0.3937007874015748
          },
          {
            "duration": 0.13157875000000274,
            "durationTicks": 96,
            "midi": 38,
            "name": "D2",
            "ticks": 55680,
            "time": 76.315675,
            "velocity": 0.3937007874015748
          },
          {
            "duration": 0.13157875000000274,
            "durationTicks": 96,
            "midi": 44,
            "name": "G#2",
            "ticks": 55872,
            "time": 76.57883249999999,
            "velocity": 0.3937007874015748
          },
          {
            "duration": 0.13157875000000274,
            "durationTicks": 96,
            "midi": 44,
            "name": "G#2",
            "ticks": 56064,
            "time": 76.84199,
            "velocity": 0.3937007874015748
          },
          {
            "duration": 0.13157874999998853,
            "durationTicks": 96,
            "midi": 35,
            "name": "B1",
            "ticks": 56256,
            "time": 77.1051475,
            "velocity": 0.3937007874015748
          },
          {
            "duration": 0.13157874999998853,
            "durationTicks": 96,
            "midi": 36,
            "name": "C2",
            "ticks": 56256,
            "time": 77.1051475,
            "velocity": 0.3937007874015748
          },
          {
            "duration": 0.13157874999998853,
            "durationTicks": 96,
            "midi": 44,
            "name": "G#2",
            "ticks": 56256,
            "time": 77.1051475,
            "velocity": 0.3937007874015748
          },
          {
            "duration": 0.13157875000000274,
            "durationTicks": 96,
            "midi": 44,
            "name": "G#2",
            "ticks": 56448,
            "time": 77.36830499999999,
            "velocity": 0.3937007874015748
          },
          {
            "duration": 0.13157875000000274,
            "durationTicks": 96,
            "midi": 38,
            "name": "D2",
            "ticks": 56448,
            "time": 77.36830499999999,
            "velocity": 0.3937007874015748
          },
          {
            "duration": 0.13157875000000274,
            "durationTicks": 96,
            "midi": 44,
            "name": "G#2",
            "ticks": 56640,
            "time": 77.6314625,
            "velocity": 0.3937007874015748
          },
          {
            "duration": 0.13157874999998853,
            "durationTicks": 96,
            "midi": 36,
            "name": "C2",
            "ticks": 56832,
            "time": 77.89462,
            "velocity": 0.3937007874015748
          },
          {
            "duration": 0.13157874999998853,
            "durationTicks": 96,
            "midi": 44,
            "name": "G#2",
            "ticks": 56832,
            "time": 77.89462,
            "velocity": 0.3937007874015748
          },
          {
            "duration": 0.13157874999998853,
            "durationTicks": 96,
            "midi": 35,
            "name": "B1",
            "ticks": 56832,
            "time": 77.89462,
            "velocity": 0.3937007874015748
          },
          {
            "duration": 0.13157875000000274,
            "durationTicks": 96,
            "midi": 44,
            "name": "G#2",
            "ticks": 57024,
            "time": 78.1577775,
            "velocity": 0.3937007874015748
          },
          {
            "duration": 0.13157875000000274,
            "durationTicks": 96,
            "midi": 38,
            "name": "D2",
            "ticks": 57216,
            "time": 78.420935,
            "velocity": 0.3937007874015748
          },
          {
            "duration": 0.13157875000000274,
            "durationTicks": 96,
            "midi": 44,
            "name": "G#2",
            "ticks": 57216,
            "time": 78.420935,
            "velocity": 0.3937007874015748
          },
          {
            "duration": 0.13157875000000274,
            "durationTicks": 96,
            "midi": 44,
            "name": "G#2",
            "ticks": 57408,
            "time": 78.68409249999999,
            "velocity": 0.3937007874015748
          },
          {
            "duration": 0.13157875000000274,
            "durationTicks": 96,
            "midi": 44,
            "name": "G#2",
            "ticks": 57600,
            "time": 78.94725,
            "velocity": 0.3937007874015748
          },
          {
            "duration": 0.13157874999998853,
            "durationTicks": 96,
            "midi": 44,
            "name": "G#2",
            "ticks": 57792,
            "time": 79.2104075,
            "velocity": 0.3937007874015748
          },
          {
            "duration": 0.13157874999998853,
            "durationTicks": 96,
            "midi": 36,
            "name": "C2",
            "ticks": 57792,
            "time": 79.2104075,
            "velocity": 0.3937007874015748
          },
          {
            "duration": 0.13157874999998853,
            "durationTicks": 96,
            "midi": 35,
            "name": "B1",
            "ticks": 57792,
            "time": 79.2104075,
            "velocity": 0.3937007874015748
          },
          {
            "duration": 0.13157875000000274,
            "durationTicks": 96,
            "midi": 44,
            "name": "G#2",
            "ticks": 57984,
            "time": 79.473565,
            "velocity": 0.3937007874015748
          },
          {
            "duration": 0.13157875000000274,
            "durationTicks": 96,
            "midi": 38,
            "name": "D2",
            "ticks": 57984,
            "time": 79.473565,
            "velocity": 0.3937007874015748
          },
          {
            "duration": 0.13157875000000274,
            "durationTicks": 96,
            "midi": 44,
            "name": "G#2",
            "ticks": 58176,
            "time": 79.7367225,
            "velocity": 0.3937007874015748
          },
          {
            "duration": 0.13157875000000274,
            "durationTicks": 96,
            "midi": 35,
            "name": "B1",
            "ticks": 58368,
            "time": 79.99987999999999,
            "velocity": 0.3937007874015748
          },
          {
            "duration": 0.13157875000000274,
            "durationTicks": 96,
            "midi": 36,
            "name": "C2",
            "ticks": 58368,
            "time": 79.99987999999999,
            "velocity": 0.3937007874015748
          },
          {
            "duration": 0.13157875000000274,
            "durationTicks": 96,
            "midi": 44,
            "name": "G#2",
            "ticks": 58368,
            "time": 79.99987999999999,
            "velocity": 0.3937007874015748
          },
          {
            "duration": 0.13157875000000274,
            "durationTicks": 96,
            "midi": 44,
            "name": "G#2",
            "ticks": 58560,
            "time": 80.2630375,
            "velocity": 0.3937007874015748
          },
          {
            "duration": 0.13157874999998853,
            "durationTicks": 96,
            "midi": 38,
            "name": "D2",
            "ticks": 58752,
            "time": 80.526195,
            "velocity": 0.3937007874015748
          },
          {
            "duration": 0.13157874999998853,
            "durationTicks": 96,
            "midi": 44,
            "name": "G#2",
            "ticks": 58752,
            "time": 80.526195,
            "velocity": 0.3937007874015748
          },
          {
            "duration": 0.13157875000000274,
            "durationTicks": 96,
            "midi": 44,
            "name": "G#2",
            "ticks": 58944,
            "time": 80.78935249999999,
            "velocity": 0.3937007874015748
          },
          {
            "duration": 0.13157875000000274,
            "durationTicks": 96,
            "midi": 44,
            "name": "G#2",
            "ticks": 59136,
            "time": 81.05251,
            "velocity": 0.3937007874015748
          },
          {
            "duration": 0.13157874999998853,
            "durationTicks": 96,
            "midi": 35,
            "name": "B1",
            "ticks": 59328,
            "time": 81.3156675,
            "velocity": 0.3937007874015748
          },
          {
            "duration": 0.13157874999998853,
            "durationTicks": 96,
            "midi": 36,
            "name": "C2",
            "ticks": 59328,
            "time": 81.3156675,
            "velocity": 0.3937007874015748
          },
          {
            "duration": 0.13157874999998853,
            "durationTicks": 96,
            "midi": 44,
            "name": "G#2",
            "ticks": 59328,
            "time": 81.3156675,
            "velocity": 0.3937007874015748
          },
          {
            "duration": 0.13157875000000274,
            "durationTicks": 96,
            "midi": 44,
            "name": "G#2",
            "ticks": 59520,
            "time": 81.578825,
            "velocity": 0.3937007874015748
          },
          {
            "duration": 0.13157875000000274,
            "durationTicks": 96,
            "midi": 38,
            "name": "D2",
            "ticks": 59520,
            "time": 81.578825,
            "velocity": 0.3937007874015748
          },
          {
            "duration": 0.13157875000000274,
            "durationTicks": 96,
            "midi": 44,
            "name": "G#2",
            "ticks": 59712,
            "time": 81.8419825,
            "velocity": 0.3937007874015748
          },
          {
            "duration": 0.13157875000000274,
            "durationTicks": 96,
            "midi": 44,
            "name": "G#2",
            "ticks": 59904,
            "time": 82.10513999999999,
            "velocity": 0.3937007874015748
          },
          {
            "duration": 0.13157875000000274,
            "durationTicks": 96,
            "midi": 36,
            "name": "C2",
            "ticks": 59904,
            "time": 82.10513999999999,
            "velocity": 0.3937007874015748
          },
          {
            "duration": 0.13157875000000274,
            "durationTicks": 96,
            "midi": 35,
            "name": "B1",
            "ticks": 59904,
            "time": 82.10513999999999,
            "velocity": 0.3937007874015748
          },
          {
            "duration": 0.13157875000000274,
            "durationTicks": 96,
            "midi": 44,
            "name": "G#2",
            "ticks": 60096,
            "time": 82.3682975,
            "velocity": 0.3937007874015748
          },
          {
            "duration": 0.13157874999998853,
            "durationTicks": 96,
            "midi": 44,
            "name": "G#2",
            "ticks": 60288,
            "time": 82.631455,
            "velocity": 0.3937007874015748
          },
          {
            "duration": 0.13157874999998853,
            "durationTicks": 96,
            "midi": 38,
            "name": "D2",
            "ticks": 60288,
            "time": 82.631455,
            "velocity": 0.3937007874015748
          },
          {
            "duration": 0.13157875000000274,
            "durationTicks": 96,
            "midi": 44,
            "name": "G#2",
            "ticks": 60480,
            "time": 82.8946125,
            "velocity": 0.3937007874015748
          },
          {
            "duration": 0.13157875000000274,
            "durationTicks": 96,
            "midi": 44,
            "name": "G#2",
            "ticks": 60672,
            "time": 83.15777,
            "velocity": 0.3937007874015748
          },
          {
            "duration": 0.13157875000000274,
            "durationTicks": 96,
            "midi": 35,
            "name": "B1",
            "ticks": 60864,
            "time": 83.42092749999999,
            "velocity": 0.3937007874015748
          },
          {
            "duration": 0.13157875000000274,
            "durationTicks": 96,
            "midi": 44,
            "name": "G#2",
            "ticks": 60864,
            "time": 83.42092749999999,
            "velocity": 0.3937007874015748
          },
          {
            "duration": 0.13157875000000274,
            "durationTicks": 96,
            "midi": 36,
            "name": "C2",
            "ticks": 60864,
            "time": 83.42092749999999,
            "velocity": 0.3937007874015748
          },
          {
            "duration": 0.13157875000000274,
            "durationTicks": 96,
            "midi": 38,
            "name": "D2",
            "ticks": 61056,
            "time": 83.684085,
            "velocity": 0.3937007874015748
          },
          {
            "duration": 0.13157875000000274,
            "durationTicks": 96,
            "midi": 44,
            "name": "G#2",
            "ticks": 61056,
            "time": 83.684085,
            "velocity": 0.3937007874015748
          },
          {
            "duration": 0.13157874999998853,
            "durationTicks": 96,
            "midi": 44,
            "name": "G#2",
            "ticks": 61248,
            "time": 83.9472425,
            "velocity": 0.3937007874015748
          },
          {
            "duration": 0.13157875000000274,
            "durationTicks": 96,
            "midi": 38,
            "name": "D2",
            "ticks": 61344,
            "time": 84.07882124999999,
            "velocity": 0.3937007874015748
          },
          {
            "duration": 0.13157875000000274,
            "durationTicks": 96,
            "midi": 44,
            "name": "G#2",
            "ticks": 61440,
            "time": 84.21039999999999,
            "velocity": 0.3937007874015748
          },
          {
            "duration": 0.13157875000000274,
            "durationTicks": 96,
            "midi": 35,
            "name": "B1",
            "ticks": 61440,
            "time": 84.21039999999999,
            "velocity": 0.3937007874015748
          },
          {
            "duration": 0.13157875000000274,
            "durationTicks": 96,
            "midi": 36,
            "name": "C2",
            "ticks": 61440,
            "time": 84.21039999999999,
            "velocity": 0.3937007874015748
          },
          {
            "duration": 0.13157875000000274,
            "durationTicks": 96,
            "midi": 44,
            "name": "G#2",
            "ticks": 61632,
            "time": 84.4735575,
            "velocity": 0.3937007874015748
          },
          {
            "duration": 0.13157875000000274,
            "durationTicks": 96,
            "midi": 38,
            "name": "D2",
            "ticks": 61824,
            "time": 84.73671499999999,
            "velocity": 0.3937007874015748
          },
          {
            "duration": 0.13157875000000274,
            "durationTicks": 96,
            "midi": 44,
            "name": "G#2",
            "ticks": 61824,
            "time": 84.73671499999999,
            "velocity": 0.3937007874015748
          },
          {
            "duration": 0.13157875000000274,
            "durationTicks": 96,
            "midi": 44,
            "name": "G#2",
            "ticks": 62016,
            "time": 84.9998725,
            "velocity": 0.3937007874015748
          },
          {
            "duration": 0.13157875000000274,
            "durationTicks": 96,
            "midi": 44,
            "name": "G#2",
            "ticks": 62208,
            "time": 85.26303,
            "velocity": 0.3937007874015748
          },
          {
            "duration": 0.13157875000000274,
            "durationTicks": 96,
            "midi": 35,
            "name": "B1",
            "ticks": 62400,
            "time": 85.52618749999999,
            "velocity": 0.3937007874015748
          },
          {
            "duration": 0.13157875000000274,
            "durationTicks": 96,
            "midi": 44,
            "name": "G#2",
            "ticks": 62400,
            "time": 85.52618749999999,
            "velocity": 0.3937007874015748
          },
          {
            "duration": 0.13157875000000274,
            "durationTicks": 96,
            "midi": 36,
            "name": "C2",
            "ticks": 62400,
            "time": 85.52618749999999,
            "velocity": 0.3937007874015748
          },
          {
            "duration": 0.13157875000000274,
            "durationTicks": 96,
            "midi": 44,
            "name": "G#2",
            "ticks": 62592,
            "time": 85.789345,
            "velocity": 0.3937007874015748
          },
          {
            "duration": 0.13157875000000274,
            "durationTicks": 96,
            "midi": 38,
            "name": "D2",
            "ticks": 62592,
            "time": 85.789345,
            "velocity": 0.3937007874015748
          },
          {
            "duration": 0.13157874999998853,
            "durationTicks": 96,
            "midi": 44,
            "name": "G#2",
            "ticks": 62784,
            "time": 86.0525025,
            "velocity": 0.3937007874015748
          },
          {
            "duration": 0.13157875000000274,
            "durationTicks": 96,
            "midi": 36,
            "name": "C2",
            "ticks": 62976,
            "time": 86.31566,
            "velocity": 0.3937007874015748
          },
          {
            "duration": 0.13157875000000274,
            "durationTicks": 96,
            "midi": 44,
            "name": "G#2",
            "ticks": 62976,
            "time": 86.31566,
            "velocity": 0.3937007874015748
          },
          {
            "duration": 0.13157875000000274,
            "durationTicks": 96,
            "midi": 35,
            "name": "B1",
            "ticks": 62976,
            "time": 86.31566,
            "velocity": 0.3937007874015748
          },
          {
            "duration": 0.13157875000000274,
            "durationTicks": 96,
            "midi": 44,
            "name": "G#2",
            "ticks": 63168,
            "time": 86.5788175,
            "velocity": 0.3937007874015748
          },
          {
            "duration": 0.13157875000000274,
            "durationTicks": 96,
            "midi": 44,
            "name": "G#2",
            "ticks": 63360,
            "time": 86.84197499999999,
            "velocity": 0.3937007874015748
          },
          {
            "duration": 0.13157875000000274,
            "durationTicks": 96,
            "midi": 38,
            "name": "D2",
            "ticks": 63360,
            "time": 86.84197499999999,
            "velocity": 0.3937007874015748
          },
          {
            "duration": 0.13157875000000274,
            "durationTicks": 96,
            "midi": 44,
            "name": "G#2",
            "ticks": 63552,
            "time": 87.1051325,
            "velocity": 0.3937007874015748
          },
          {
            "duration": 0.13157874999998853,
            "durationTicks": 96,
            "midi": 44,
            "name": "G#2",
            "ticks": 63744,
            "time": 87.36829,
            "velocity": 0.3937007874015748
          },
          {
            "duration": 0.13157875000000274,
            "durationTicks": 96,
            "midi": 44,
            "name": "G#2",
            "ticks": 63936,
            "time": 87.6314475,
            "velocity": 0.3937007874015748
          },
          {
            "duration": 0.13157875000000274,
            "durationTicks": 96,
            "midi": 35,
            "name": "B1",
            "ticks": 63936,
            "time": 87.6314475,
            "velocity": 0.3937007874015748
          },
          {
            "duration": 0.13157875000000274,
            "durationTicks": 96,
            "midi": 36,
            "name": "C2",
            "ticks": 63936,
            "time": 87.6314475,
            "velocity": 0.3937007874015748
          },
          {
            "duration": 0.13157875000000274,
            "durationTicks": 96,
            "midi": 38,
            "name": "D2",
            "ticks": 64128,
            "time": 87.894605,
            "velocity": 0.3937007874015748
          },
          {
            "duration": 0.13157875000000274,
            "durationTicks": 96,
            "midi": 44,
            "name": "G#2",
            "ticks": 64128,
            "time": 87.894605,
            "velocity": 0.3937007874015748
          },
          {
            "duration": 0.13157875000000274,
            "durationTicks": 96,
            "midi": 44,
            "name": "G#2",
            "ticks": 64320,
            "time": 88.15776249999999,
            "velocity": 0.3937007874015748
          },
          {
            "duration": 0.13157875000000274,
            "durationTicks": 96,
            "midi": 44,
            "name": "G#2",
            "ticks": 64512,
            "time": 88.42092,
            "velocity": 0.3937007874015748
          },
          {
            "duration": 0.13157875000000274,
            "durationTicks": 96,
            "midi": 36,
            "name": "C2",
            "ticks": 64512,
            "time": 88.42092,
            "velocity": 0.3937007874015748
          },
          {
            "duration": 0.13157875000000274,
            "durationTicks": 96,
            "midi": 35,
            "name": "B1",
            "ticks": 64512,
            "time": 88.42092,
            "velocity": 0.3937007874015748
          },
          {
            "duration": 0.13157874999998853,
            "durationTicks": 96,
            "midi": 44,
            "name": "G#2",
            "ticks": 64704,
            "time": 88.6840775,
            "velocity": 0.3937007874015748
          },
          {
            "duration": 0.13157875000000274,
            "durationTicks": 96,
            "midi": 38,
            "name": "D2",
            "ticks": 64896,
            "time": 88.94723499999999,
            "velocity": 0.3937007874015748
          },
          {
            "duration": 0.13157875000000274,
            "durationTicks": 96,
            "midi": 44,
            "name": "G#2",
            "ticks": 64896,
            "time": 88.94723499999999,
            "velocity": 0.3937007874015748
          },
          {
            "duration": 0.13157875000000274,
            "durationTicks": 96,
            "midi": 44,
            "name": "G#2",
            "ticks": 65088,
            "time": 89.2103925,
            "velocity": 0.3937007874015748
          },
          {
            "duration": 0.13157874999998853,
            "durationTicks": 96,
            "midi": 44,
            "name": "G#2",
            "ticks": 65280,
            "time": 89.47355,
            "velocity": 0.3937007874015748
          },
          {
            "duration": 0.13157875000000274,
            "durationTicks": 96,
            "midi": 44,
            "name": "G#2",
            "ticks": 65472,
            "time": 89.7367075,
            "velocity": 0.3937007874015748
          },
          {
            "duration": 0.13157875000000274,
            "durationTicks": 96,
            "midi": 35,
            "name": "B1",
            "ticks": 65472,
            "time": 89.7367075,
            "velocity": 0.3937007874015748
          },
          {
            "duration": 0.13157875000000274,
            "durationTicks": 96,
            "midi": 36,
            "name": "C2",
            "ticks": 65472,
            "time": 89.7367075,
            "velocity": 0.3937007874015748
          },
          {
            "duration": 0.13157875000000274,
            "durationTicks": 96,
            "midi": 38,
            "name": "D2",
            "ticks": 65664,
            "time": 89.999865,
            "velocity": 0.3937007874015748
          },
          {
            "duration": 0.13157875000000274,
            "durationTicks": 96,
            "midi": 44,
            "name": "G#2",
            "ticks": 65664,
            "time": 89.999865,
            "velocity": 0.3937007874015748
          },
          {
            "duration": 0.13157875000000274,
            "durationTicks": 96,
            "midi": 44,
            "name": "G#2",
            "ticks": 65856,
            "time": 90.26302249999999,
            "velocity": 0.3937007874015748
          },
          {
            "duration": 0.13157875000000274,
            "durationTicks": 96,
            "midi": 44,
            "name": "G#2",
            "ticks": 66048,
            "time": 90.52618,
            "velocity": 0.3937007874015748
          },
          {
            "duration": 0.06578937499999427,
            "durationTicks": 48,
            "midi": 52,
            "name": "E3",
            "ticks": 66048,
            "time": 90.52618,
            "velocity": 0.3937007874015748
          },
          {
            "duration": 0.06578937500000848,
            "durationTicks": 48,
            "midi": 52,
            "name": "E3",
            "ticks": 66096,
            "time": 90.59196937499999,
            "velocity": 0.3937007874015748
          },
          {
            "duration": 0.06578937499999427,
            "durationTicks": 48,
            "midi": 52,
            "name": "E3",
            "ticks": 66144,
            "time": 90.65775875,
            "velocity": 0.3937007874015748
          },
          {
            "duration": 0.06578937500000848,
            "durationTicks": 48,
            "midi": 52,
            "name": "E3",
            "ticks": 66192,
            "time": 90.723548125,
            "velocity": 0.3937007874015748
          },
          {
            "duration": 0.13157874999998853,
            "durationTicks": 96,
            "midi": 44,
            "name": "G#2",
            "ticks": 66240,
            "time": 90.7893375,
            "velocity": 0.3937007874015748
          },
          {
            "duration": 0.06578937499999427,
            "durationTicks": 48,
            "midi": 52,
            "name": "E3",
            "ticks": 66240,
            "time": 90.7893375,
            "velocity": 0.3937007874015748
          },
          {
            "duration": 0.06578937499999427,
            "durationTicks": 48,
            "midi": 52,
            "name": "E3",
            "ticks": 66288,
            "time": 90.855126875,
            "velocity": 0.3937007874015748
          },
          {
            "duration": 0.06578937500000848,
            "durationTicks": 48,
            "midi": 52,
            "name": "E3",
            "ticks": 66336,
            "time": 90.92091624999999,
            "velocity": 0.3937007874015748
          },
          {
            "duration": 0.06578937499999427,
            "durationTicks": 48,
            "midi": 52,
            "name": "E3",
            "ticks": 66384,
            "time": 90.986705625,
            "velocity": 0.3937007874015748
          },
          {
            "duration": 0.13157875000000274,
            "durationTicks": 96,
            "midi": 44,
            "name": "G#2",
            "ticks": 66432,
            "time": 91.052495,
            "velocity": 0.3937007874015748
          },
          {
            "duration": 0.06578937500000848,
            "durationTicks": 48,
            "midi": 52,
            "name": "E3",
            "ticks": 66432,
            "time": 91.052495,
            "velocity": 0.3937007874015748
          },
          {
            "duration": 0.06578937499999427,
            "durationTicks": 48,
            "midi": 52,
            "name": "E3",
            "ticks": 66480,
            "time": 91.118284375,
            "velocity": 0.3937007874015748
          },
          {
            "duration": 0.06578937499999427,
            "durationTicks": 48,
            "midi": 52,
            "name": "E3",
            "ticks": 66528,
            "time": 91.18407375,
            "velocity": 0.3937007874015748
          },
          {
            "duration": 0.06578937500000848,
            "durationTicks": 48,
            "midi": 52,
            "name": "E3",
            "ticks": 66576,
            "time": 91.24986312499999,
            "velocity": 0.3937007874015748
          },
          {
            "duration": 0.06578937499999427,
            "durationTicks": 48,
            "midi": 52,
            "name": "E3",
            "ticks": 66624,
            "time": 91.3156525,
            "velocity": 0.3937007874015748
          },
          {
            "duration": 0.13157875000000274,
            "durationTicks": 96,
            "midi": 44,
            "name": "G#2",
            "ticks": 66624,
            "time": 91.3156525,
            "velocity": 0.3937007874015748
          },
          {
            "duration": 0.06578937500000848,
            "durationTicks": 48,
            "midi": 52,
            "name": "E3",
            "ticks": 66672,
            "time": 91.381441875,
            "velocity": 0.3937007874015748
          },
          {
            "duration": 0.06578937499999427,
            "durationTicks": 48,
            "midi": 52,
            "name": "E3",
            "ticks": 66720,
            "time": 91.44723125,
            "velocity": 0.3937007874015748
          },
          {
            "duration": 0.06578937499999427,
            "durationTicks": 48,
            "midi": 52,
            "name": "E3",
            "ticks": 66768,
            "time": 91.513020625,
            "velocity": 0.3937007874015748
          },
          {
            "duration": 0.06578937500000848,
            "durationTicks": 48,
            "midi": 49,
            "name": "C#3",
            "ticks": 66816,
            "time": 91.57880999999999,
            "velocity": 0.3937007874015748
          },
          {
            "duration": 0.13157875000000274,
            "durationTicks": 96,
            "midi": 44,
            "name": "G#2",
            "ticks": 66816,
            "time": 91.57880999999999,
            "velocity": 0.3937007874015748
          },
          {
            "duration": 0.06578937500000848,
            "durationTicks": 48,
            "midi": 52,
            "name": "E3",
            "ticks": 66816,
            "time": 91.57880999999999,
            "velocity": 0.3937007874015748
          },
          {
            "duration": 0.06578937499999427,
            "durationTicks": 48,
            "midi": 52,
            "name": "E3",
            "ticks": 66864,
            "time": 91.644599375,
            "velocity": 0.3937007874015748
          },
          {
            "duration": 0.06578937499999427,
            "durationTicks": 48,
            "midi": 49,
            "name": "C#3",
            "ticks": 66864,
            "time": 91.644599375,
            "velocity": 0.3937007874015748
          },
          {
            "duration": 0.06578937500000848,
            "durationTicks": 48,
            "midi": 52,
            "name": "E3",
            "ticks": 66912,
            "time": 91.71038874999999,
            "velocity": 0.3937007874015748
          },
          {
            "duration": 0.06578937500000848,
            "durationTicks": 48,
            "midi": 49,
            "name": "C#3",
            "ticks": 66912,
            "time": 91.71038874999999,
            "velocity": 0.3937007874015748
          },
          {
            "duration": 0.06578937499999427,
            "durationTicks": 48,
            "midi": 49,
            "name": "C#3",
            "ticks": 66960,
            "time": 91.776178125,
            "velocity": 0.3937007874015748
          },
          {
            "duration": 0.06578937499999427,
            "durationTicks": 48,
            "midi": 52,
            "name": "E3",
            "ticks": 66960,
            "time": 91.776178125,
            "velocity": 0.3937007874015748
          },
          {
            "duration": 0.06578937499999427,
            "durationTicks": 48,
            "midi": 52,
            "name": "E3",
            "ticks": 67008,
            "time": 91.8419675,
            "velocity": 0.3937007874015748
          },
          {
            "duration": 0.13157875000000274,
            "durationTicks": 96,
            "midi": 44,
            "name": "G#2",
            "ticks": 67008,
            "time": 91.8419675,
            "velocity": 0.3937007874015748
          },
          {
            "duration": 0.06578937499999427,
            "durationTicks": 48,
            "midi": 49,
            "name": "C#3",
            "ticks": 67008,
            "time": 91.8419675,
            "velocity": 0.3937007874015748
          },
          {
            "duration": 0.06578937500000848,
            "durationTicks": 48,
            "midi": 52,
            "name": "E3",
            "ticks": 67056,
            "time": 91.90775687499999,
            "velocity": 0.3937007874015748
          },
          {
            "duration": 0.06578937500000848,
            "durationTicks": 48,
            "midi": 49,
            "name": "C#3",
            "ticks": 67056,
            "time": 91.90775687499999,
            "velocity": 0.3937007874015748
          },
          {
            "duration": 0.06578937499999427,
            "durationTicks": 48,
            "midi": 52,
            "name": "E3",
            "ticks": 67104,
            "time": 91.97354625,
            "velocity": 0.3937007874015748
          },
          {
            "duration": 0.06578937499999427,
            "durationTicks": 48,
            "midi": 49,
            "name": "C#3",
            "ticks": 67104,
            "time": 91.97354625,
            "velocity": 0.3937007874015748
          },
          {
            "duration": 0.06578937500000848,
            "durationTicks": 48,
            "midi": 49,
            "name": "C#3",
            "ticks": 67152,
            "time": 92.03933562499999,
            "velocity": 0.3937007874015748
          },
          {
            "duration": 0.06578937500000848,
            "durationTicks": 48,
            "midi": 52,
            "name": "E3",
            "ticks": 67152,
            "time": 92.03933562499999,
            "velocity": 0.3937007874015748
          },
          {
            "duration": 0.06578937499999427,
            "durationTicks": 48,
            "midi": 49,
            "name": "C#3",
            "ticks": 67200,
            "time": 92.105125,
            "velocity": 0.3937007874015748
          },
          {
            "duration": 0.13157874999998853,
            "durationTicks": 96,
            "midi": 44,
            "name": "G#2",
            "ticks": 67200,
            "time": 92.105125,
            "velocity": 0.3937007874015748
          },
          {
            "duration": 0.06578937499999427,
            "durationTicks": 48,
            "midi": 52,
            "name": "E3",
            "ticks": 67200,
            "time": 92.105125,
            "velocity": 0.3937007874015748
          },
          {
            "duration": 0.06578937499999427,
            "durationTicks": 48,
            "midi": 52,
            "name": "E3",
            "ticks": 67248,
            "time": 92.170914375,
            "velocity": 0.3937007874015748
          },
          {
            "duration": 0.06578937499999427,
            "durationTicks": 48,
            "midi": 49,
            "name": "C#3",
            "ticks": 67248,
            "time": 92.170914375,
            "velocity": 0.3937007874015748
          },
          {
            "duration": 0.06578937500000848,
            "durationTicks": 48,
            "midi": 49,
            "name": "C#3",
            "ticks": 67296,
            "time": 92.23670374999999,
            "velocity": 0.3937007874015748
          },
          {
            "duration": 0.06578937500000848,
            "durationTicks": 48,
            "midi": 52,
            "name": "E3",
            "ticks": 67296,
            "time": 92.23670374999999,
            "velocity": 0.3937007874015748
          },
          {
            "duration": 0.06578937499999427,
            "durationTicks": 48,
            "midi": 49,
            "name": "C#3",
            "ticks": 67344,
            "time": 92.302493125,
            "velocity": 0.3937007874015748
          },
          {
            "duration": 0.06578937499999427,
            "durationTicks": 48,
            "midi": 52,
            "name": "E3",
            "ticks": 67344,
            "time": 92.302493125,
            "velocity": 0.3937007874015748
          },
          {
            "duration": 0.06578937500000848,
            "durationTicks": 48,
            "midi": 49,
            "name": "C#3",
            "ticks": 67392,
            "time": 92.36828249999999,
            "velocity": 0.3937007874015748
          },
          {
            "duration": 0.13157875000000274,
            "durationTicks": 96,
            "midi": 44,
            "name": "G#2",
            "ticks": 67392,
            "time": 92.36828249999999,
            "velocity": 0.3937007874015748
          },
          {
            "duration": 0.06578937500000848,
            "durationTicks": 48,
            "midi": 52,
            "name": "E3",
            "ticks": 67392,
            "time": 92.36828249999999,
            "velocity": 0.3937007874015748
          },
          {
            "duration": 0.06578937499999427,
            "durationTicks": 48,
            "midi": 49,
            "name": "C#3",
            "ticks": 67440,
            "time": 92.434071875,
            "velocity": 0.3937007874015748
          },
          {
            "duration": 0.06578937499999427,
            "durationTicks": 48,
            "midi": 52,
            "name": "E3",
            "ticks": 67440,
            "time": 92.434071875,
            "velocity": 0.3937007874015748
          },
          {
            "duration": 0.06578937499999427,
            "durationTicks": 48,
            "midi": 49,
            "name": "C#3",
            "ticks": 67488,
            "time": 92.49986125,
            "velocity": 0.3937007874015748
          },
          {
            "duration": 0.06578937499999427,
            "durationTicks": 48,
            "midi": 52,
            "name": "E3",
            "ticks": 67488,
            "time": 92.49986125,
            "velocity": 0.3937007874015748
          },
          {
            "duration": 0.06578937500000848,
            "durationTicks": 48,
            "midi": 49,
            "name": "C#3",
            "ticks": 67536,
            "time": 92.56565062499999,
            "velocity": 0.3937007874015748
          },
          {
            "duration": 0.06578937500000848,
            "durationTicks": 48,
            "midi": 52,
            "name": "E3",
            "ticks": 67536,
            "time": 92.56565062499999,
            "velocity": 0.3937007874015748
          },
          {
            "duration": 0.13157874999998853,
            "durationTicks": 96,
            "midi": 35,
            "name": "B1",
            "ticks": 73728,
            "time": 101.05248,
            "velocity": 0.3937007874015748
          },
          {
            "duration": 0.13157875000000274,
            "durationTicks": 96,
            "midi": 35,
            "name": "B1",
            "ticks": 74112,
            "time": 101.578795,
            "velocity": 0.3937007874015748
          },
          {
            "duration": 0.13157875000000274,
            "durationTicks": 96,
            "midi": 35,
            "name": "B1",
            "ticks": 74496,
            "time": 102.10511,
            "velocity": 0.3937007874015748
          },
          {
            "duration": 0.13157875000000274,
            "durationTicks": 96,
            "midi": 35,
            "name": "B1",
            "ticks": 74880,
            "time": 102.631425,
            "velocity": 0.3937007874015748
          },
          {
            "duration": 0.13157875000000274,
            "durationTicks": 96,
            "midi": 35,
            "name": "B1",
            "ticks": 75264,
            "time": 103.15773999999999,
            "velocity": 0.3937007874015748
          },
          {
            "duration": 0.13157874999998853,
            "durationTicks": 96,
            "midi": 35,
            "name": "B1",
            "ticks": 75648,
            "time": 103.684055,
            "velocity": 0.3937007874015748
          },
          {
            "duration": 0.13157875000000274,
            "durationTicks": 96,
            "midi": 35,
            "name": "B1",
            "ticks": 76032,
            "time": 104.21037,
            "velocity": 0.3937007874015748
          },
          {
            "duration": 0.13157875000000274,
            "durationTicks": 96,
            "midi": 35,
            "name": "B1",
            "ticks": 76416,
            "time": 104.736685,
            "velocity": 0.3937007874015748
          },
          {
            "duration": 0.13157875000000274,
            "durationTicks": 96,
            "midi": 36,
            "name": "C2",
            "ticks": 76800,
            "time": 105.26299999999999,
            "velocity": 0.3937007874015748
          },
          {
            "duration": 0.13157875000000274,
            "durationTicks": 96,
            "midi": 35,
            "name": "B1",
            "ticks": 76800,
            "time": 105.26299999999999,
            "velocity": 0.3937007874015748
          },
          {
            "duration": 0.13157874999998853,
            "durationTicks": 96,
            "midi": 36,
            "name": "C2",
            "ticks": 77184,
            "time": 105.789315,
            "velocity": 0.3937007874015748
          },
          {
            "duration": 0.13157874999998853,
            "durationTicks": 96,
            "midi": 35,
            "name": "B1",
            "ticks": 77184,
            "time": 105.789315,
            "velocity": 0.3937007874015748
          },
          {
            "duration": 0.13157875000000274,
            "durationTicks": 96,
            "midi": 36,
            "name": "C2",
            "ticks": 77568,
            "time": 106.31563,
            "velocity": 0.3937007874015748
          },
          {
            "duration": 0.13157875000000274,
            "durationTicks": 96,
            "midi": 35,
            "name": "B1",
            "ticks": 77568,
            "time": 106.31563,
            "velocity": 0.3937007874015748
          },
          {
            "duration": 0.13157875000000274,
            "durationTicks": 96,
            "midi": 35,
            "name": "B1",
            "ticks": 77952,
            "time": 106.841945,
            "velocity": 0.3937007874015748
          },
          {
            "duration": 0.13157875000000274,
            "durationTicks": 96,
            "midi": 36,
            "name": "C2",
            "ticks": 77952,
            "time": 106.841945,
            "velocity": 0.3937007874015748
          },
          {
            "duration": 0.03289468750000424,
            "durationTicks": 24,
            "midi": 49,
            "name": "C#3",
            "ticks": 78336,
            "time": 107.36825999999999,
            "velocity": 0.3937007874015748
          },
          {
            "duration": 0.13157875000000274,
            "durationTicks": 96,
            "midi": 38,
            "name": "D2",
            "ticks": 78336,
            "time": 107.36825999999999,
            "velocity": 0.3937007874015748
          },
          {
            "duration": 0.13157875000000274,
            "durationTicks": 96,
            "midi": 35,
            "name": "B1",
            "ticks": 78336,
            "time": 107.36825999999999,
            "velocity": 0.3937007874015748
          },
          {
            "duration": 0.13157875000000274,
            "durationTicks": 96,
            "midi": 36,
            "name": "C2",
            "ticks": 78336,
            "time": 107.36825999999999,
            "velocity": 0.3937007874015748
          },
          {
            "duration": 0.03289468750000424,
            "durationTicks": 24,
            "midi": 49,
            "name": "C#3",
            "ticks": 78360,
            "time": 107.4011546875,
            "velocity": 0.3937007874015748
          },
          {
            "duration": 0.03289468749999003,
            "durationTicks": 24,
            "midi": 49,
            "name": "C#3",
            "ticks": 78384,
            "time": 107.434049375,
            "velocity": 0.3937007874015748
          },
          {
            "duration": 0.03289468750000424,
            "durationTicks": 24,
            "midi": 49,
            "name": "C#3",
            "ticks": 78408,
            "time": 107.46694406249999,
            "velocity": 0.3937007874015748
          },
          {
            "duration": 0.13157875000000274,
            "durationTicks": 96,
            "midi": 35,
            "name": "B1",
            "ticks": 78432,
            "time": 107.49983875,
            "velocity": 0.3937007874015748
          },
          {
            "duration": 0.03289468750000424,
            "durationTicks": 24,
            "midi": 49,
            "name": "C#3",
            "ticks": 78432,
            "time": 107.49983875,
            "velocity": 0.3937007874015748
          },
          {
            "duration": 0.13157875000000274,
            "durationTicks": 96,
            "midi": 38,
            "name": "D2",
            "ticks": 78432,
            "time": 107.49983875,
            "velocity": 0.3937007874015748
          },
          {
            "duration": 0.03289468749999003,
            "durationTicks": 24,
            "midi": 49,
            "name": "C#3",
            "ticks": 78456,
            "time": 107.5327334375,
            "velocity": 0.3937007874015748
          },
          {
            "duration": 0.03289468750000424,
            "durationTicks": 24,
            "midi": 49,
            "name": "C#3",
            "ticks": 78480,
            "time": 107.56562812499999,
            "velocity": 0.3937007874015748
          },
          {
            "duration": 0.03289468750000424,
            "durationTicks": 24,
            "midi": 49,
            "name": "C#3",
            "ticks": 78504,
            "time": 107.5985228125,
            "velocity": 0.3937007874015748
          },
          {
            "duration": 0.13157875000000274,
            "durationTicks": 96,
            "midi": 36,
            "name": "C2",
            "ticks": 78528,
            "time": 107.6314175,
            "velocity": 0.3937007874015748
          },
          {
            "duration": 0.03289468750000424,
            "durationTicks": 24,
            "midi": 49,
            "name": "C#3",
            "ticks": 78528,
            "time": 107.6314175,
            "velocity": 0.3937007874015748
          },
          {
            "duration": 0.13157875000000274,
            "durationTicks": 96,
            "midi": 35,
            "name": "B1",
            "ticks": 78528,
            "time": 107.6314175,
            "velocity": 0.3937007874015748
          },
          {
            "duration": 0.03289468749999003,
            "durationTicks": 24,
            "midi": 49,
            "name": "C#3",
            "ticks": 78552,
            "time": 107.6643121875,
            "velocity": 0.3937007874015748
          },
          {
            "duration": 0.03289468750000424,
            "durationTicks": 24,
            "midi": 49,
            "name": "C#3",
            "ticks": 78576,
            "time": 107.69720687499999,
            "velocity": 0.3937007874015748
          },
          {
            "duration": 0.03289468750000424,
            "durationTicks": 24,
            "midi": 49,
            "name": "C#3",
            "ticks": 78600,
            "time": 107.7301015625,
            "velocity": 0.3937007874015748
          },
          {
            "duration": 0.13157874999998853,
            "durationTicks": 96,
            "midi": 35,
            "name": "B1",
            "ticks": 78624,
            "time": 107.76299625,
            "velocity": 0.3937007874015748
          },
          {
            "duration": 0.03289468749999003,
            "durationTicks": 24,
            "midi": 49,
            "name": "C#3",
            "ticks": 78624,
            "time": 107.76299625,
            "velocity": 0.3937007874015748
          },
          {
            "duration": 0.13157874999998853,
            "durationTicks": 96,
            "midi": 38,
            "name": "D2",
            "ticks": 78624,
            "time": 107.76299625,
            "velocity": 0.3937007874015748
          },
          {
            "duration": 0.03289468750000424,
            "durationTicks": 24,
            "midi": 49,
            "name": "C#3",
            "ticks": 78648,
            "time": 107.79589093749999,
            "velocity": 0.3937007874015748
          },
          {
            "duration": 0.03289468750000424,
            "durationTicks": 24,
            "midi": 49,
            "name": "C#3",
            "ticks": 78672,
            "time": 107.828785625,
            "velocity": 0.3937007874015748
          },
          {
            "duration": 0.03289468749999003,
            "durationTicks": 24,
            "midi": 49,
            "name": "C#3",
            "ticks": 78696,
            "time": 107.8616803125,
            "velocity": 0.3937007874015748
          },
          {
            "duration": 0.13157875000000274,
            "durationTicks": 96,
            "midi": 38,
            "name": "D2",
            "ticks": 78720,
            "time": 107.89457499999999,
            "velocity": 0.3937007874015748
          },
          {
            "duration": 0.03289468750000424,
            "durationTicks": 24,
            "midi": 57,
            "name": "A3",
            "ticks": 78720,
            "time": 107.89457499999999,
            "velocity": 0.3937007874015748
          },
          {
            "duration": 0.03289468750000424,
            "durationTicks": 24,
            "midi": 49,
            "name": "C#3",
            "ticks": 78720,
            "time": 107.89457499999999,
            "velocity": 0.3937007874015748
          },
          {
            "duration": 0.13157875000000274,
            "durationTicks": 96,
            "midi": 35,
            "name": "B1",
            "ticks": 78720,
            "time": 107.89457499999999,
            "velocity": 0.3937007874015748
          },
          {
            "duration": 0.13157875000000274,
            "durationTicks": 96,
            "midi": 36,
            "name": "C2",
            "ticks": 78720,
            "time": 107.89457499999999,
            "velocity": 0.3937007874015748
          },
          {
            "duration": 0.03289468750000424,
            "durationTicks": 24,
            "midi": 49,
            "name": "C#3",
            "ticks": 78744,
            "time": 107.9274696875,
            "velocity": 0.3937007874015748
          },
          {
            "duration": 0.03289468750000424,
            "durationTicks": 24,
            "midi": 57,
            "name": "A3",
            "ticks": 78744,
            "time": 107.9274696875,
            "velocity": 0.3937007874015748
          },
          {
            "duration": 0.03289468750000424,
            "durationTicks": 24,
            "midi": 49,
            "name": "C#3",
            "ticks": 78768,
            "time": 107.960364375,
            "velocity": 0.3937007874015748
          },
          {
            "duration": 0.03289468750000424,
            "durationTicks": 24,
            "midi": 57,
            "name": "A3",
            "ticks": 78768,
            "time": 107.960364375,
            "velocity": 0.3937007874015748
          },
          {
            "duration": 0.03289468749999003,
            "durationTicks": 24,
            "midi": 57,
            "name": "A3",
            "ticks": 78792,
            "time": 107.9932590625,
            "velocity": 0.3937007874015748
          },
          {
            "duration": 0.03289468749999003,
            "durationTicks": 24,
            "midi": 49,
            "name": "C#3",
            "ticks": 78792,
            "time": 107.9932590625,
            "velocity": 0.3937007874015748
          },
          {
            "duration": 0.03289468750000424,
            "durationTicks": 24,
            "midi": 49,
            "name": "C#3",
            "ticks": 78816,
            "time": 108.02615374999999,
            "velocity": 0.3937007874015748
          },
          {
            "duration": 0.13157875000000274,
            "durationTicks": 96,
            "midi": 35,
            "name": "B1",
            "ticks": 78816,
            "time": 108.02615374999999,
            "velocity": 0.3937007874015748
          },
          {
            "duration": 0.13157875000000274,
            "durationTicks": 96,
            "midi": 38,
            "name": "D2",
            "ticks": 78816,
            "time": 108.02615374999999,
            "velocity": 0.3937007874015748
          },
          {
            "duration": 0.03289468750000424,
            "durationTicks": 24,
            "midi": 57,
            "name": "A3",
            "ticks": 78816,
            "time": 108.02615374999999,
            "velocity": 0.3937007874015748
          },
          {
            "duration": 0.03289468750000424,
            "durationTicks": 24,
            "midi": 57,
            "name": "A3",
            "ticks": 78840,
            "time": 108.0590484375,
            "velocity": 0.3937007874015748
          },
          {
            "duration": 0.03289468750000424,
            "durationTicks": 24,
            "midi": 49,
            "name": "C#3",
            "ticks": 78840,
            "time": 108.0590484375,
            "velocity": 0.3937007874015748
          },
          {
            "duration": 0.03289468749999003,
            "durationTicks": 24,
            "midi": 49,
            "name": "C#3",
            "ticks": 78864,
            "time": 108.091943125,
            "velocity": 0.3937007874015748
          },
          {
            "duration": 0.03289468749999003,
            "durationTicks": 24,
            "midi": 57,
            "name": "A3",
            "ticks": 78864,
            "time": 108.091943125,
            "velocity": 0.3937007874015748
          },
          {
            "duration": 0.03289468750000424,
            "durationTicks": 24,
            "midi": 57,
            "name": "A3",
            "ticks": 78888,
            "time": 108.12483781249999,
            "velocity": 0.3937007874015748
          },
          {
            "duration": 0.03289468750000424,
            "durationTicks": 24,
            "midi": 49,
            "name": "C#3",
            "ticks": 78888,
            "time": 108.12483781249999,
            "velocity": 0.3937007874015748
          },
          {
            "duration": 0.03289468750000424,
            "durationTicks": 24,
            "midi": 57,
            "name": "A3",
            "ticks": 78912,
            "time": 108.1577325,
            "velocity": 0.3937007874015748
          },
          {
            "duration": 0.03289468750000424,
            "durationTicks": 24,
            "midi": 49,
            "name": "C#3",
            "ticks": 78912,
            "time": 108.1577325,
            "velocity": 0.3937007874015748
          },
          {
            "duration": 0.13157875000000274,
            "durationTicks": 96,
            "midi": 35,
            "name": "B1",
            "ticks": 78912,
            "time": 108.1577325,
            "velocity": 0.3937007874015748
          },
          {
            "duration": 0.13157875000000274,
            "durationTicks": 96,
            "midi": 36,
            "name": "C2",
            "ticks": 78912,
            "time": 108.1577325,
            "velocity": 0.3937007874015748
          },
          {
            "duration": 0.03289468749999003,
            "durationTicks": 24,
            "midi": 57,
            "name": "A3",
            "ticks": 78936,
            "time": 108.1906271875,
            "velocity": 0.3937007874015748
          },
          {
            "duration": 0.03289468749999003,
            "durationTicks": 24,
            "midi": 49,
            "name": "C#3",
            "ticks": 78936,
            "time": 108.1906271875,
            "velocity": 0.3937007874015748
          },
          {
            "duration": 0.03289468750000424,
            "durationTicks": 24,
            "midi": 49,
            "name": "C#3",
            "ticks": 78960,
            "time": 108.22352187499999,
            "velocity": 0.3937007874015748
          },
          {
            "duration": 0.03289468750000424,
            "durationTicks": 24,
            "midi": 57,
            "name": "A3",
            "ticks": 78960,
            "time": 108.22352187499999,
            "velocity": 0.3937007874015748
          },
          {
            "duration": 0.03289468750000424,
            "durationTicks": 24,
            "midi": 49,
            "name": "C#3",
            "ticks": 78984,
            "time": 108.2564165625,
            "velocity": 0.3937007874015748
          },
          {
            "duration": 0.03289468750000424,
            "durationTicks": 24,
            "midi": 57,
            "name": "A3",
            "ticks": 78984,
            "time": 108.2564165625,
            "velocity": 0.3937007874015748
          },
          {
            "duration": 0.03289468750000424,
            "durationTicks": 24,
            "midi": 49,
            "name": "C#3",
            "ticks": 79008,
            "time": 108.28931125,
            "velocity": 0.3937007874015748
          },
          {
            "duration": 0.03289468750000424,
            "durationTicks": 24,
            "midi": 57,
            "name": "A3",
            "ticks": 79008,
            "time": 108.28931125,
            "velocity": 0.3937007874015748
          },
          {
            "duration": 0.13157875000000274,
            "durationTicks": 96,
            "midi": 38,
            "name": "D2",
            "ticks": 79008,
            "time": 108.28931125,
            "velocity": 0.3937007874015748
          },
          {
            "duration": 0.13157875000000274,
            "durationTicks": 96,
            "midi": 35,
            "name": "B1",
            "ticks": 79008,
            "time": 108.28931125,
            "velocity": 0.3937007874015748
          },
          {
            "duration": 0.03289468749999003,
            "durationTicks": 24,
            "midi": 57,
            "name": "A3",
            "ticks": 79032,
            "time": 108.3222059375,
            "velocity": 0.3937007874015748
          },
          {
            "duration": 0.03289468749999003,
            "durationTicks": 24,
            "midi": 49,
            "name": "C#3",
            "ticks": 79032,
            "time": 108.3222059375,
            "velocity": 0.3937007874015748
          },
          {
            "duration": 0.03289468750000424,
            "durationTicks": 24,
            "midi": 57,
            "name": "A3",
            "ticks": 79056,
            "time": 108.35510062499999,
            "velocity": 0.3937007874015748
          },
          {
            "duration": 0.03289468750000424,
            "durationTicks": 24,
            "midi": 49,
            "name": "C#3",
            "ticks": 79056,
            "time": 108.35510062499999,
            "velocity": 0.3937007874015748
          },
          {
            "duration": 0.03289468750000424,
            "durationTicks": 24,
            "midi": 49,
            "name": "C#3",
            "ticks": 79080,
            "time": 108.3879953125,
            "velocity": 0.3937007874015748
          },
          {
            "duration": 0.03289468750000424,
            "durationTicks": 24,
            "midi": 57,
            "name": "A3",
            "ticks": 79080,
            "time": 108.3879953125,
            "velocity": 0.3937007874015748
          },
          {
            "duration": 0.13157874999998853,
            "durationTicks": 96,
            "midi": 38,
            "name": "D2",
            "ticks": 79104,
            "time": 108.42089,
            "velocity": 0.3937007874015748
          },
          {
            "duration": 0.13157874999998853,
            "durationTicks": 96,
            "midi": 36,
            "name": "C2",
            "ticks": 79104,
            "time": 108.42089,
            "velocity": 0.3937007874015748
          },
          {
            "duration": 0.03289468749999003,
            "durationTicks": 24,
            "midi": 49,
            "name": "C#3",
            "ticks": 79104,
            "time": 108.42089,
            "velocity": 0.3937007874015748
          },
          {
            "duration": 0.03289468749999003,
            "durationTicks": 24,
            "midi": 57,
            "name": "A3",
            "ticks": 79104,
            "time": 108.42089,
            "velocity": 0.3937007874015748
          },
          {
            "duration": 0.13157874999998853,
            "durationTicks": 96,
            "midi": 35,
            "name": "B1",
            "ticks": 79104,
            "time": 108.42089,
            "velocity": 0.3937007874015748
          },
          {
            "duration": 0.03289468750000424,
            "durationTicks": 24,
            "midi": 49,
            "name": "C#3",
            "ticks": 79128,
            "time": 108.45378468749999,
            "velocity": 0.3937007874015748
          },
          {
            "duration": 0.03289468750000424,
            "durationTicks": 24,
            "midi": 57,
            "name": "A3",
            "ticks": 79128,
            "time": 108.45378468749999,
            "velocity": 0.3937007874015748
          },
          {
            "duration": 0.03289468750000424,
            "durationTicks": 24,
            "midi": 49,
            "name": "C#3",
            "ticks": 79152,
            "time": 108.486679375,
            "velocity": 0.3937007874015748
          },
          {
            "duration": 0.03289468750000424,
            "durationTicks": 24,
            "midi": 57,
            "name": "A3",
            "ticks": 79152,
            "time": 108.486679375,
            "velocity": 0.3937007874015748
          },
          {
            "duration": 0.03289468749999003,
            "durationTicks": 24,
            "midi": 57,
            "name": "A3",
            "ticks": 79176,
            "time": 108.5195740625,
            "velocity": 0.3937007874015748
          },
          {
            "duration": 0.03289468749999003,
            "durationTicks": 24,
            "midi": 49,
            "name": "C#3",
            "ticks": 79176,
            "time": 108.5195740625,
            "velocity": 0.3937007874015748
          },
          {
            "duration": 0.03289468750000424,
            "durationTicks": 24,
            "midi": 49,
            "name": "C#3",
            "ticks": 79200,
            "time": 108.55246874999999,
            "velocity": 0.3937007874015748
          },
          {
            "duration": 0.13157875000000274,
            "durationTicks": 96,
            "midi": 35,
            "name": "B1",
            "ticks": 79200,
            "time": 108.55246874999999,
            "velocity": 0.3937007874015748
          },
          {
            "duration": 0.03289468750000424,
            "durationTicks": 24,
            "midi": 57,
            "name": "A3",
            "ticks": 79200,
            "time": 108.55246874999999,
            "velocity": 0.3937007874015748
          },
          {
            "duration": 0.13157875000000274,
            "durationTicks": 96,
            "midi": 38,
            "name": "D2",
            "ticks": 79200,
            "time": 108.55246874999999,
            "velocity": 0.3937007874015748
          },
          {
            "duration": 0.03289468750000424,
            "durationTicks": 24,
            "midi": 49,
            "name": "C#3",
            "ticks": 79224,
            "time": 108.58536343749999,
            "velocity": 0.3937007874015748
          },
          {
            "duration": 0.03289468750000424,
            "durationTicks": 24,
            "midi": 57,
            "name": "A3",
            "ticks": 79224,
            "time": 108.58536343749999,
            "velocity": 0.3937007874015748
          },
          {
            "duration": 0.03289468750000424,
            "durationTicks": 24,
            "midi": 49,
            "name": "C#3",
            "ticks": 79248,
            "time": 108.618258125,
            "velocity": 0.3937007874015748
          },
          {
            "duration": 0.03289468750000424,
            "durationTicks": 24,
            "midi": 57,
            "name": "A3",
            "ticks": 79248,
            "time": 108.618258125,
            "velocity": 0.3937007874015748
          },
          {
            "duration": 0.03289468749999003,
            "durationTicks": 24,
            "midi": 57,
            "name": "A3",
            "ticks": 79272,
            "time": 108.6511528125,
            "velocity": 0.3937007874015748
          },
          {
            "duration": 0.03289468749999003,
            "durationTicks": 24,
            "midi": 49,
            "name": "C#3",
            "ticks": 79272,
            "time": 108.6511528125,
            "velocity": 0.3937007874015748
          },
          {
            "duration": 0.13157875000000274,
            "durationTicks": 96,
            "midi": 36,
            "name": "C2",
            "ticks": 79296,
            "time": 108.68404749999999,
            "velocity": 0.3937007874015748
          },
          {
            "duration": 0.03289468750000424,
            "durationTicks": 24,
            "midi": 57,
            "name": "A3",
            "ticks": 79296,
            "time": 108.68404749999999,
            "velocity": 0.3937007874015748
          },
          {
            "duration": 0.13157875000000274,
            "durationTicks": 96,
            "midi": 35,
            "name": "B1",
            "ticks": 79296,
            "time": 108.68404749999999,
            "velocity": 0.3937007874015748
          },
          {
            "duration": 0.03289468750000424,
            "durationTicks": 24,
            "midi": 52,
            "name": "E3",
            "ticks": 79296,
            "time": 108.68404749999999,
            "velocity": 0.3937007874015748
          },
          {
            "duration": 0.03289468750000424,
            "durationTicks": 24,
            "midi": 49,
            "name": "C#3",
            "ticks": 79296,
            "time": 108.68404749999999,
            "velocity": 0.3937007874015748
          },
          {
            "duration": 0.03289468750000424,
            "durationTicks": 24,
            "midi": 52,
            "name": "E3",
            "ticks": 79320,
            "time": 108.7169421875,
            "velocity": 0.3937007874015748
          },
          {
            "duration": 0.03289468750000424,
            "durationTicks": 24,
            "midi": 49,
            "name": "C#3",
            "ticks": 79320,
            "time": 108.7169421875,
            "velocity": 0.3937007874015748
          },
          {
            "duration": 0.03289468750000424,
            "durationTicks": 24,
            "midi": 57,
            "name": "A3",
            "ticks": 79320,
            "time": 108.7169421875,
            "velocity": 0.3937007874015748
          },
          {
            "duration": 0.03289468749999003,
            "durationTicks": 24,
            "midi": 52,
            "name": "E3",
            "ticks": 79344,
            "time": 108.749836875,
            "velocity": 0.3937007874015748
          },
          {
            "duration": 0.03289468749999003,
            "durationTicks": 24,
            "midi": 57,
            "name": "A3",
            "ticks": 79344,
            "time": 108.749836875,
            "velocity": 0.3937007874015748
          },
          {
            "duration": 0.03289468749999003,
            "durationTicks": 24,
            "midi": 49,
            "name": "C#3",
            "ticks": 79344,
            "time": 108.749836875,
            "velocity": 0.3937007874015748
          },
          {
            "duration": 0.03289468750000424,
            "durationTicks": 24,
            "midi": 57,
            "name": "A3",
            "ticks": 79368,
            "time": 108.78273156249999,
            "velocity": 0.3937007874015748
          },
          {
            "duration": 0.03289468750000424,
            "durationTicks": 24,
            "midi": 52,
            "name": "E3",
            "ticks": 79368,
            "time": 108.78273156249999,
            "velocity": 0.3937007874015748
          },
          {
            "duration": 0.03289468750000424,
            "durationTicks": 24,
            "midi": 49,
            "name": "C#3",
            "ticks": 79368,
            "time": 108.78273156249999,
            "velocity": 0.3937007874015748
          },
          {
            "duration": 0.03289468750000424,
            "durationTicks": 24,
            "midi": 49,
            "name": "C#3",
            "ticks": 79392,
            "time": 108.81562625,
            "velocity": 0.3937007874015748
          },
          {
            "duration": 0.13157875000000274,
            "durationTicks": 96,
            "midi": 38,
            "name": "D2",
            "ticks": 79392,
            "time": 108.81562625,
            "velocity": 0.3937007874015748
          },
          {
            "duration": 0.03289468750000424,
            "durationTicks": 24,
            "midi": 57,
            "name": "A3",
            "ticks": 79392,
            "time": 108.81562625,
            "velocity": 0.3937007874015748
          },
          {
            "duration": 0.13157875000000274,
            "durationTicks": 96,
            "midi": 35,
            "name": "B1",
            "ticks": 79392,
            "time": 108.81562625,
            "velocity": 0.3937007874015748
          },
          {
            "duration": 0.03289468750000424,
            "durationTicks": 24,
            "midi": 52,
            "name": "E3",
            "ticks": 79392,
            "time": 108.81562625,
            "velocity": 0.3937007874015748
          },
          {
            "duration": 0.03289468749999003,
            "durationTicks": 24,
            "midi": 57,
            "name": "A3",
            "ticks": 79416,
            "time": 108.8485209375,
            "velocity": 0.3937007874015748
          },
          {
            "duration": 0.03289468749999003,
            "durationTicks": 24,
            "midi": 49,
            "name": "C#3",
            "ticks": 79416,
            "time": 108.8485209375,
            "velocity": 0.3937007874015748
          },
          {
            "duration": 0.03289468749999003,
            "durationTicks": 24,
            "midi": 52,
            "name": "E3",
            "ticks": 79416,
            "time": 108.8485209375,
            "velocity": 0.3937007874015748
          },
          {
            "duration": 0.03289468750000424,
            "durationTicks": 24,
            "midi": 49,
            "name": "C#3",
            "ticks": 79440,
            "time": 108.88141562499999,
            "velocity": 0.3937007874015748
          },
          {
            "duration": 0.03289468750000424,
            "durationTicks": 24,
            "midi": 52,
            "name": "E3",
            "ticks": 79440,
            "time": 108.88141562499999,
            "velocity": 0.3937007874015748
          },
          {
            "duration": 0.03289468750000424,
            "durationTicks": 24,
            "midi": 57,
            "name": "A3",
            "ticks": 79440,
            "time": 108.88141562499999,
            "velocity": 0.3937007874015748
          },
          {
            "duration": 0.03289468750000424,
            "durationTicks": 24,
            "midi": 57,
            "name": "A3",
            "ticks": 79464,
            "time": 108.91431031249999,
            "velocity": 0.3937007874015748
          },
          {
            "duration": 0.03289468750000424,
            "durationTicks": 24,
            "midi": 52,
            "name": "E3",
            "ticks": 79464,
            "time": 108.91431031249999,
            "velocity": 0.3937007874015748
          },
          {
            "duration": 0.03289468750000424,
            "durationTicks": 24,
            "midi": 49,
            "name": "C#3",
            "ticks": 79464,
            "time": 108.91431031249999,
            "velocity": 0.3937007874015748
          },
          {
            "duration": 0.03289468750000424,
            "durationTicks": 24,
            "midi": 49,
            "name": "C#3",
            "ticks": 79488,
            "time": 108.947205,
            "velocity": 0.3937007874015748
          },
          {
            "duration": 0.13157875000000274,
            "durationTicks": 96,
            "midi": 35,
            "name": "B1",
            "ticks": 79488,
            "time": 108.947205,
            "velocity": 0.3937007874015748
          },
          {
            "duration": 0.13157875000000274,
            "durationTicks": 96,
            "midi": 38,
            "name": "D2",
            "ticks": 79488,
            "time": 108.947205,
            "velocity": 0.3937007874015748
          },
          {
            "duration": 0.03289468750000424,
            "durationTicks": 24,
            "midi": 57,
            "name": "A3",
            "ticks": 79488,
            "time": 108.947205,
            "velocity": 0.3937007874015748
          },
          {
            "duration": 0.03289468750000424,
            "durationTicks": 24,
            "midi": 52,
            "name": "E3",
            "ticks": 79488,
            "time": 108.947205,
            "velocity": 0.3937007874015748
          },
          {
            "duration": 0.13157875000000274,
            "durationTicks": 96,
            "midi": 36,
            "name": "C2",
            "ticks": 79488,
            "time": 108.947205,
            "velocity": 0.3937007874015748
          },
          {
            "duration": 0.03289468749999003,
            "durationTicks": 24,
            "midi": 57,
            "name": "A3",
            "ticks": 79512,
            "time": 108.9800996875,
            "velocity": 0.3937007874015748
          },
          {
            "duration": 0.03289468749999003,
            "durationTicks": 24,
            "midi": 52,
            "name": "E3",
            "ticks": 79512,
            "time": 108.9800996875,
            "velocity": 0.3937007874015748
          },
          {
            "duration": 0.03289468749999003,
            "durationTicks": 24,
            "midi": 49,
            "name": "C#3",
            "ticks": 79512,
            "time": 108.9800996875,
            "velocity": 0.3937007874015748
          },
          {
            "duration": 0.03289468750000424,
            "durationTicks": 24,
            "midi": 57,
            "name": "A3",
            "ticks": 79536,
            "time": 109.01299437499999,
            "velocity": 0.3937007874015748
          },
          {
            "duration": 0.03289468750000424,
            "durationTicks": 24,
            "midi": 52,
            "name": "E3",
            "ticks": 79536,
            "time": 109.01299437499999,
            "velocity": 0.3937007874015748
          },
          {
            "duration": 0.03289468750000424,
            "durationTicks": 24,
            "midi": 49,
            "name": "C#3",
            "ticks": 79536,
            "time": 109.01299437499999,
            "velocity": 0.3937007874015748
          },
          {
            "duration": 0.03289468750000424,
            "durationTicks": 24,
            "midi": 57,
            "name": "A3",
            "ticks": 79560,
            "time": 109.0458890625,
            "velocity": 0.3937007874015748
          },
          {
            "duration": 0.03289468750000424,
            "durationTicks": 24,
            "midi": 49,
            "name": "C#3",
            "ticks": 79560,
            "time": 109.0458890625,
            "velocity": 0.3937007874015748
          },
          {
            "duration": 0.03289468750000424,
            "durationTicks": 24,
            "midi": 52,
            "name": "E3",
            "ticks": 79560,
            "time": 109.0458890625,
            "velocity": 0.3937007874015748
          },
          {
            "duration": 0.03289468749999003,
            "durationTicks": 24,
            "midi": 57,
            "name": "A3",
            "ticks": 79584,
            "time": 109.07878375,
            "velocity": 0.3937007874015748
          },
          {
            "duration": 0.03289468749999003,
            "durationTicks": 24,
            "midi": 52,
            "name": "E3",
            "ticks": 79584,
            "time": 109.07878375,
            "velocity": 0.3937007874015748
          },
          {
            "duration": 0.13157875000000274,
            "durationTicks": 96,
            "midi": 35,
            "name": "B1",
            "ticks": 79584,
            "time": 109.07878375,
            "velocity": 0.3937007874015748
          },
          {
            "duration": 0.13157875000000274,
            "durationTicks": 96,
            "midi": 38,
            "name": "D2",
            "ticks": 79584,
            "time": 109.07878375,
            "velocity": 0.3937007874015748
          },
          {
            "duration": 0.03289468749999003,
            "durationTicks": 24,
            "midi": 49,
            "name": "C#3",
            "ticks": 79584,
            "time": 109.07878375,
            "velocity": 0.3937007874015748
          },
          {
            "duration": 0.03289468750000424,
            "durationTicks": 24,
            "midi": 52,
            "name": "E3",
            "ticks": 79608,
            "time": 109.11167843749999,
            "velocity": 0.3937007874015748
          },
          {
            "duration": 0.03289468750000424,
            "durationTicks": 24,
            "midi": 57,
            "name": "A3",
            "ticks": 79608,
            "time": 109.11167843749999,
            "velocity": 0.3937007874015748
          },
          {
            "duration": 0.03289468750000424,
            "durationTicks": 24,
            "midi": 49,
            "name": "C#3",
            "ticks": 79608,
            "time": 109.11167843749999,
            "velocity": 0.3937007874015748
          },
          {
            "duration": 0.03289468750000424,
            "durationTicks": 24,
            "midi": 52,
            "name": "E3",
            "ticks": 79632,
            "time": 109.144573125,
            "velocity": 0.3937007874015748
          },
          {
            "duration": 0.03289468750000424,
            "durationTicks": 24,
            "midi": 57,
            "name": "A3",
            "ticks": 79632,
            "time": 109.144573125,
            "velocity": 0.3937007874015748
          },
          {
            "duration": 0.03289468750000424,
            "durationTicks": 24,
            "midi": 49,
            "name": "C#3",
            "ticks": 79632,
            "time": 109.144573125,
            "velocity": 0.3937007874015748
          },
          {
            "duration": 0.03289468750000424,
            "durationTicks": 24,
            "midi": 57,
            "name": "A3",
            "ticks": 79656,
            "time": 109.1774678125,
            "velocity": 0.3937007874015748
          },
          {
            "duration": 0.03289468750000424,
            "durationTicks": 24,
            "midi": 49,
            "name": "C#3",
            "ticks": 79656,
            "time": 109.1774678125,
            "velocity": 0.3937007874015748
          },
          {
            "duration": 0.03289468750000424,
            "durationTicks": 24,
            "midi": 52,
            "name": "E3",
            "ticks": 79656,
            "time": 109.1774678125,
            "velocity": 0.3937007874015748
          },
          {
            "duration": 0.13157874999998853,
            "durationTicks": 96,
            "midi": 36,
            "name": "C2",
            "ticks": 79680,
            "time": 109.2103625,
            "velocity": 0.3937007874015748
          },
          {
            "duration": 0.03289468749999003,
            "durationTicks": 24,
            "midi": 57,
            "name": "A3",
            "ticks": 79680,
            "time": 109.2103625,
            "velocity": 0.3937007874015748
          },
          {
            "duration": 0.03289468749999003,
            "durationTicks": 24,
            "midi": 49,
            "name": "C#3",
            "ticks": 79680,
            "time": 109.2103625,
            "velocity": 0.3937007874015748
          },
          {
            "duration": 0.03289468749999003,
            "durationTicks": 24,
            "midi": 52,
            "name": "E3",
            "ticks": 79680,
            "time": 109.2103625,
            "velocity": 0.3937007874015748
          },
          {
            "duration": 0.13157874999998853,
            "durationTicks": 96,
            "midi": 35,
            "name": "B1",
            "ticks": 79680,
            "time": 109.2103625,
            "velocity": 0.3937007874015748
          },
          {
            "duration": 0.03289468750000424,
            "durationTicks": 24,
            "midi": 57,
            "name": "A3",
            "ticks": 79704,
            "time": 109.24325718749999,
            "velocity": 0.3937007874015748
          },
          {
            "duration": 0.03289468750000424,
            "durationTicks": 24,
            "midi": 49,
            "name": "C#3",
            "ticks": 79704,
            "time": 109.24325718749999,
            "velocity": 0.3937007874015748
          },
          {
            "duration": 0.03289468750000424,
            "durationTicks": 24,
            "midi": 52,
            "name": "E3",
            "ticks": 79704,
            "time": 109.24325718749999,
            "velocity": 0.3937007874015748
          },
          {
            "duration": 0.03289468750000424,
            "durationTicks": 24,
            "midi": 52,
            "name": "E3",
            "ticks": 79728,
            "time": 109.276151875,
            "velocity": 0.3937007874015748
          },
          {
            "duration": 0.03289468750000424,
            "durationTicks": 24,
            "midi": 57,
            "name": "A3",
            "ticks": 79728,
            "time": 109.276151875,
            "velocity": 0.3937007874015748
          },
          {
            "duration": 0.03289468750000424,
            "durationTicks": 24,
            "midi": 49,
            "name": "C#3",
            "ticks": 79728,
            "time": 109.276151875,
            "velocity": 0.3937007874015748
          },
          {
            "duration": 0.03289468749999003,
            "durationTicks": 24,
            "midi": 49,
            "name": "C#3",
            "ticks": 79752,
            "time": 109.3090465625,
            "velocity": 0.3937007874015748
          },
          {
            "duration": 0.03289468749999003,
            "durationTicks": 24,
            "midi": 52,
            "name": "E3",
            "ticks": 79752,
            "time": 109.3090465625,
            "velocity": 0.3937007874015748
          },
          {
            "duration": 0.03289468749999003,
            "durationTicks": 24,
            "midi": 57,
            "name": "A3",
            "ticks": 79752,
            "time": 109.3090465625,
            "velocity": 0.3937007874015748
          },
          {
            "duration": 0.03289468750000424,
            "durationTicks": 24,
            "midi": 49,
            "name": "C#3",
            "ticks": 79776,
            "time": 109.34194124999999,
            "velocity": 0.3937007874015748
          },
          {
            "duration": 0.13157875000000274,
            "durationTicks": 96,
            "midi": 38,
            "name": "D2",
            "ticks": 79776,
            "time": 109.34194124999999,
            "velocity": 0.3937007874015748
          },
          {
            "duration": 0.03289468750000424,
            "durationTicks": 24,
            "midi": 52,
            "name": "E3",
            "ticks": 79776,
            "time": 109.34194124999999,
            "velocity": 0.3937007874015748
          },
          {
            "duration": 0.13157875000000274,
            "durationTicks": 96,
            "midi": 35,
            "name": "B1",
            "ticks": 79776,
            "time": 109.34194124999999,
            "velocity": 0.3937007874015748
          },
          {
            "duration": 0.03289468750000424,
            "durationTicks": 24,
            "midi": 57,
            "name": "A3",
            "ticks": 79776,
            "time": 109.34194124999999,
            "velocity": 0.3937007874015748
          },
          {
            "duration": 0.03289468750000424,
            "durationTicks": 24,
            "midi": 57,
            "name": "A3",
            "ticks": 79800,
            "time": 109.3748359375,
            "velocity": 0.3937007874015748
          },
          {
            "duration": 0.03289468750000424,
            "durationTicks": 24,
            "midi": 52,
            "name": "E3",
            "ticks": 79800,
            "time": 109.3748359375,
            "velocity": 0.3937007874015748
          },
          {
            "duration": 0.03289468750000424,
            "durationTicks": 24,
            "midi": 49,
            "name": "C#3",
            "ticks": 79800,
            "time": 109.3748359375,
            "velocity": 0.3937007874015748
          },
          {
            "duration": 0.03289468749999003,
            "durationTicks": 24,
            "midi": 57,
            "name": "A3",
            "ticks": 79824,
            "time": 109.407730625,
            "velocity": 0.3937007874015748
          },
          {
            "duration": 0.03289468749999003,
            "durationTicks": 24,
            "midi": 49,
            "name": "C#3",
            "ticks": 79824,
            "time": 109.407730625,
            "velocity": 0.3937007874015748
          },
          {
            "duration": 0.03289468749999003,
            "durationTicks": 24,
            "midi": 52,
            "name": "E3",
            "ticks": 79824,
            "time": 109.407730625,
            "velocity": 0.3937007874015748
          },
          {
            "duration": 0.03289468750000424,
            "durationTicks": 24,
            "midi": 49,
            "name": "C#3",
            "ticks": 79848,
            "time": 109.44062531249999,
            "velocity": 0.3937007874015748
          },
          {
            "duration": 0.03289468750000424,
            "durationTicks": 24,
            "midi": 52,
            "name": "E3",
            "ticks": 79848,
            "time": 109.44062531249999,
            "velocity": 0.3937007874015748
          },
          {
            "duration": 0.03289468750000424,
            "durationTicks": 24,
            "midi": 57,
            "name": "A3",
            "ticks": 79848,
            "time": 109.44062531249999,
            "velocity": 0.3937007874015748
          },
          {
            "duration": 0.13157875000000274,
            "durationTicks": 96,
            "midi": 49,
            "name": "C#3",
            "ticks": 79872,
            "time": 109.47352,
            "velocity": 0.3937007874015748
          },
          {
            "duration": 0.13157875000000274,
            "durationTicks": 96,
            "midi": 59,
            "name": "B3",
            "ticks": 79872,
            "time": 109.47352,
            "velocity": 0.3937007874015748
          },
          {
            "duration": 0.13157875000000274,
            "durationTicks": 96,
            "midi": 53,
            "name": "F3",
            "ticks": 79872,
            "time": 109.47352,
            "velocity": 0.3937007874015748
          },
          {
            "duration": 0.13157875000000274,
            "durationTicks": 96,
            "midi": 35,
            "name": "B1",
            "ticks": 79872,
            "time": 109.47352,
            "velocity": 0.3937007874015748
          },
          {
            "duration": 0.13157875000000274,
            "durationTicks": 96,
            "midi": 36,
            "name": "C2",
            "ticks": 79872,
            "time": 109.47352,
            "velocity": 0.3937007874015748
          },
          {
            "duration": 0.13157875000000274,
            "durationTicks": 96,
            "midi": 59,
            "name": "B3",
            "ticks": 80256,
            "time": 109.99983499999999,
            "velocity": 0.3937007874015748
          },
          {
            "duration": 0.13157875000000274,
            "durationTicks": 96,
            "midi": 38,
            "name": "D2",
            "ticks": 80256,
            "time": 109.99983499999999,
            "velocity": 0.3937007874015748
          },
          {
            "duration": 0.13157875000000274,
            "durationTicks": 96,
            "midi": 53,
            "name": "F3",
            "ticks": 80256,
            "time": 109.99983499999999,
            "velocity": 0.3937007874015748
          },
          {
            "duration": 0.13157874999998853,
            "durationTicks": 96,
            "midi": 53,
            "name": "F3",
            "ticks": 80640,
            "time": 110.52615,
            "velocity": 0.3937007874015748
          },
          {
            "duration": 0.13157874999998853,
            "durationTicks": 96,
            "midi": 59,
            "name": "B3",
            "ticks": 80640,
            "time": 110.52615,
            "velocity": 0.3937007874015748
          },
          {
            "duration": 0.13157875000000274,
            "durationTicks": 96,
            "midi": 35,
            "name": "B1",
            "ticks": 80832,
            "time": 110.78930749999999,
            "velocity": 0.3937007874015748
          },
          {
            "duration": 0.13157875000000274,
            "durationTicks": 96,
            "midi": 36,
            "name": "C2",
            "ticks": 80832,
            "time": 110.78930749999999,
            "velocity": 0.3937007874015748
          },
          {
            "duration": 0.13157875000000274,
            "durationTicks": 96,
            "midi": 59,
            "name": "B3",
            "ticks": 81024,
            "time": 111.052465,
            "velocity": 0.3937007874015748
          },
          {
            "duration": 0.13157875000000274,
            "durationTicks": 96,
            "midi": 38,
            "name": "D2",
            "ticks": 81024,
            "time": 111.052465,
            "velocity": 0.3937007874015748
          },
          {
            "duration": 0.13157875000000274,
            "durationTicks": 96,
            "midi": 53,
            "name": "F3",
            "ticks": 81024,
            "time": 111.052465,
            "velocity": 0.3937007874015748
          },
          {
            "duration": 0.13157875000000274,
            "durationTicks": 96,
            "midi": 53,
            "name": "F3",
            "ticks": 81408,
            "time": 111.57878,
            "velocity": 0.3937007874015748
          },
          {
            "duration": 0.13157875000000274,
            "durationTicks": 96,
            "midi": 59,
            "name": "B3",
            "ticks": 81408,
            "time": 111.57878,
            "velocity": 0.3937007874015748
          },
          {
            "duration": 0.13157875000000274,
            "durationTicks": 96,
            "midi": 35,
            "name": "B1",
            "ticks": 81408,
            "time": 111.57878,
            "velocity": 0.3937007874015748
          },
          {
            "duration": 0.13157875000000274,
            "durationTicks": 96,
            "midi": 36,
            "name": "C2",
            "ticks": 81408,
            "time": 111.57878,
            "velocity": 0.3937007874015748
          },
          {
            "duration": 0.13157875000000274,
            "durationTicks": 96,
            "midi": 59,
            "name": "B3",
            "ticks": 81792,
            "time": 112.10509499999999,
            "velocity": 0.3937007874015748
          },
          {
            "duration": 0.13157875000000274,
            "durationTicks": 96,
            "midi": 38,
            "name": "D2",
            "ticks": 81792,
            "time": 112.10509499999999,
            "velocity": 0.3937007874015748
          },
          {
            "duration": 0.13157875000000274,
            "durationTicks": 96,
            "midi": 53,
            "name": "F3",
            "ticks": 81792,
            "time": 112.10509499999999,
            "velocity": 0.3937007874015748
          },
          {
            "duration": 0.13157875000000274,
            "durationTicks": 96,
            "midi": 53,
            "name": "F3",
            "ticks": 82176,
            "time": 112.63140999999999,
            "velocity": 0.3937007874015748
          },
          {
            "duration": 0.13157875000000274,
            "durationTicks": 96,
            "midi": 59,
            "name": "B3",
            "ticks": 82176,
            "time": 112.63140999999999,
            "velocity": 0.3937007874015748
          },
          {
            "duration": 0.13157875000000274,
            "durationTicks": 96,
            "midi": 35,
            "name": "B1",
            "ticks": 82368,
            "time": 112.8945675,
            "velocity": 0.3937007874015748
          },
          {
            "duration": 0.13157875000000274,
            "durationTicks": 96,
            "midi": 36,
            "name": "C2",
            "ticks": 82368,
            "time": 112.8945675,
            "velocity": 0.3937007874015748
          },
          {
            "duration": 0.13157875000000274,
            "durationTicks": 96,
            "midi": 38,
            "name": "D2",
            "ticks": 82560,
            "time": 113.157725,
            "velocity": 0.3937007874015748
          },
          {
            "duration": 0.13157875000000274,
            "durationTicks": 96,
            "midi": 59,
            "name": "B3",
            "ticks": 82560,
            "time": 113.157725,
            "velocity": 0.3937007874015748
          },
          {
            "duration": 0.13157875000000274,
            "durationTicks": 96,
            "midi": 53,
            "name": "F3",
            "ticks": 82560,
            "time": 113.157725,
            "velocity": 0.3937007874015748
          },
          {
            "duration": 0.13157875000000274,
            "durationTicks": 96,
            "midi": 59,
            "name": "B3",
            "ticks": 82944,
            "time": 113.68404,
            "velocity": 0.3937007874015748
          },
          {
            "duration": 0.13157875000000274,
            "durationTicks": 96,
            "midi": 53,
            "name": "F3",
            "ticks": 82944,
            "time": 113.68404,
            "velocity": 0.3937007874015748
          },
          {
            "duration": 0.13157875000000274,
            "durationTicks": 96,
            "midi": 36,
            "name": "C2",
            "ticks": 82944,
            "time": 113.68404,
            "velocity": 0.3937007874015748
          },
          {
            "duration": 0.13157875000000274,
            "durationTicks": 96,
            "midi": 35,
            "name": "B1",
            "ticks": 82944,
            "time": 113.68404,
            "velocity": 0.3937007874015748
          },
          {
            "duration": 0.13157875000000274,
            "durationTicks": 96,
            "midi": 59,
            "name": "B3",
            "ticks": 83328,
            "time": 114.21035499999999,
            "velocity": 0.3937007874015748
          },
          {
            "duration": 0.13157875000000274,
            "durationTicks": 96,
            "midi": 38,
            "name": "D2",
            "ticks": 83328,
            "time": 114.21035499999999,
            "velocity": 0.3937007874015748
          },
          {
            "duration": 0.13157875000000274,
            "durationTicks": 96,
            "midi": 53,
            "name": "F3",
            "ticks": 83328,
            "time": 114.21035499999999,
            "velocity": 0.3937007874015748
          },
          {
            "duration": 0.13157875000000274,
            "durationTicks": 96,
            "midi": 53,
            "name": "F3",
            "ticks": 83712,
            "time": 114.73666999999999,
            "velocity": 0.3937007874015748
          },
          {
            "duration": 0.13157875000000274,
            "durationTicks": 96,
            "midi": 59,
            "name": "B3",
            "ticks": 83712,
            "time": 114.73666999999999,
            "velocity": 0.3937007874015748
          },
          {
            "duration": 0.13157875000000274,
            "durationTicks": 96,
            "midi": 36,
            "name": "C2",
            "ticks": 83904,
            "time": 114.9998275,
            "velocity": 0.3937007874015748
          },
          {
            "duration": 0.13157875000000274,
            "durationTicks": 96,
            "midi": 35,
            "name": "B1",
            "ticks": 83904,
            "time": 114.9998275,
            "velocity": 0.3937007874015748
          },
          {
            "duration": 0.13157874999998853,
            "durationTicks": 96,
            "midi": 53,
            "name": "F3",
            "ticks": 84096,
            "time": 115.262985,
            "velocity": 0.3937007874015748
          },
          {
            "duration": 0.13157874999998853,
            "durationTicks": 96,
            "midi": 59,
            "name": "B3",
            "ticks": 84096,
            "time": 115.262985,
            "velocity": 0.3937007874015748
          },
          {
            "duration": 0.13157874999998853,
            "durationTicks": 96,
            "midi": 38,
            "name": "D2",
            "ticks": 84096,
            "time": 115.262985,
            "velocity": 0.3937007874015748
          },
          {
            "duration": 0.13157875000000274,
            "durationTicks": 96,
            "midi": 36,
            "name": "C2",
            "ticks": 84480,
            "time": 115.7893,
            "velocity": 0.3937007874015748
          },
          {
            "duration": 0.13157875000000274,
            "durationTicks": 96,
            "midi": 59,
            "name": "B3",
            "ticks": 84480,
            "time": 115.7893,
            "velocity": 0.3937007874015748
          },
          {
            "duration": 0.13157875000000274,
            "durationTicks": 96,
            "midi": 35,
            "name": "B1",
            "ticks": 84480,
            "time": 115.7893,
            "velocity": 0.3937007874015748
          },
          {
            "duration": 0.13157875000000274,
            "durationTicks": 96,
            "midi": 53,
            "name": "F3",
            "ticks": 84480,
            "time": 115.7893,
            "velocity": 0.3937007874015748
          },
          {
            "duration": 0.13157875000000274,
            "durationTicks": 96,
            "midi": 38,
            "name": "D2",
            "ticks": 84864,
            "time": 116.315615,
            "velocity": 0.3937007874015748
          },
          {
            "duration": 0.13157875000000274,
            "durationTicks": 96,
            "midi": 53,
            "name": "F3",
            "ticks": 84864,
            "time": 116.315615,
            "velocity": 0.3937007874015748
          },
          {
            "duration": 0.13157875000000274,
            "durationTicks": 96,
            "midi": 59,
            "name": "B3",
            "ticks": 84864,
            "time": 116.315615,
            "velocity": 0.3937007874015748
          },
          {
            "duration": 0.13157875000000274,
            "durationTicks": 96,
            "midi": 53,
            "name": "F3",
            "ticks": 85248,
            "time": 116.84192999999999,
            "velocity": 0.3937007874015748
          },
          {
            "duration": 0.13157875000000274,
            "durationTicks": 96,
            "midi": 59,
            "name": "B3",
            "ticks": 85248,
            "time": 116.84192999999999,
            "velocity": 0.3937007874015748
          },
          {
            "duration": 0.13157875000000274,
            "durationTicks": 96,
            "midi": 36,
            "name": "C2",
            "ticks": 85440,
            "time": 117.1050875,
            "velocity": 0.3937007874015748
          },
          {
            "duration": 0.13157875000000274,
            "durationTicks": 96,
            "midi": 35,
            "name": "B1",
            "ticks": 85440,
            "time": 117.1050875,
            "velocity": 0.3937007874015748
          },
          {
            "duration": 0.13157874999998853,
            "durationTicks": 96,
            "midi": 38,
            "name": "D2",
            "ticks": 85632,
            "time": 117.368245,
            "velocity": 0.3937007874015748
          },
          {
            "duration": 0.13157874999998853,
            "durationTicks": 96,
            "midi": 59,
            "name": "B3",
            "ticks": 85632,
            "time": 117.368245,
            "velocity": 0.3937007874015748
          },
          {
            "duration": 0.13157874999998853,
            "durationTicks": 96,
            "midi": 53,
            "name": "F3",
            "ticks": 85632,
            "time": 117.368245,
            "velocity": 0.3937007874015748
          },
          {
            "duration": 0.13157875000000274,
            "durationTicks": 96,
            "midi": 38,
            "name": "D2",
            "ticks": 85920,
            "time": 117.76298125,
            "velocity": 0.3937007874015748
          },
          {
            "duration": 0.13157875000000274,
            "durationTicks": 96,
            "midi": 36,
            "name": "C2",
            "ticks": 86016,
            "time": 117.89456,
            "velocity": 0.3937007874015748
          },
          {
            "duration": 0.13157875000000274,
            "durationTicks": 96,
            "midi": 53,
            "name": "F3",
            "ticks": 86016,
            "time": 117.89456,
            "velocity": 0.3937007874015748
          },
          {
            "duration": 0.13157875000000274,
            "durationTicks": 96,
            "midi": 49,
            "name": "C#3",
            "ticks": 86016,
            "time": 117.89456,
            "velocity": 0.3937007874015748
          },
          {
            "duration": 0.13157875000000274,
            "durationTicks": 96,
            "midi": 35,
            "name": "B1",
            "ticks": 86016,
            "time": 117.89456,
            "velocity": 0.3937007874015748
          },
          {
            "duration": 0.13157875000000274,
            "durationTicks": 96,
            "midi": 59,
            "name": "B3",
            "ticks": 86016,
            "time": 117.89456,
            "velocity": 0.3937007874015748
          },
          {
            "duration": 0.13157875000000274,
            "durationTicks": 96,
            "midi": 38,
            "name": "D2",
            "ticks": 86400,
            "time": 118.420875,
            "velocity": 0.3937007874015748
          },
          {
            "duration": 0.13157875000000274,
            "durationTicks": 96,
            "midi": 53,
            "name": "F3",
            "ticks": 86400,
            "time": 118.420875,
            "velocity": 0.3937007874015748
          },
          {
            "duration": 0.13157875000000274,
            "durationTicks": 96,
            "midi": 59,
            "name": "B3",
            "ticks": 86400,
            "time": 118.420875,
            "velocity": 0.3937007874015748
          },
          {
            "duration": 0.13157875000000274,
            "durationTicks": 96,
            "midi": 59,
            "name": "B3",
            "ticks": 86784,
            "time": 118.94718999999999,
            "velocity": 0.3937007874015748
          },
          {
            "duration": 0.13157875000000274,
            "durationTicks": 96,
            "midi": 53,
            "name": "F3",
            "ticks": 86784,
            "time": 118.94718999999999,
            "velocity": 0.3937007874015748
          },
          {
            "duration": 0.13157875000000274,
            "durationTicks": 96,
            "midi": 35,
            "name": "B1",
            "ticks": 86976,
            "time": 119.2103475,
            "velocity": 0.3937007874015748
          },
          {
            "duration": 0.13157875000000274,
            "durationTicks": 96,
            "midi": 36,
            "name": "C2",
            "ticks": 86976,
            "time": 119.2103475,
            "velocity": 0.3937007874015748
          },
          {
            "duration": 0.13157875000000274,
            "durationTicks": 96,
            "midi": 38,
            "name": "D2",
            "ticks": 87168,
            "time": 119.47350499999999,
            "velocity": 0.3937007874015748
          },
          {
            "duration": 0.13157875000000274,
            "durationTicks": 96,
            "midi": 53,
            "name": "F3",
            "ticks": 87168,
            "time": 119.47350499999999,
            "velocity": 0.3937007874015748
          },
          {
            "duration": 0.13157875000000274,
            "durationTicks": 96,
            "midi": 59,
            "name": "B3",
            "ticks": 87168,
            "time": 119.47350499999999,
            "velocity": 0.3937007874015748
          },
          {
            "duration": 0.13157874999998853,
            "durationTicks": 96,
            "midi": 53,
            "name": "F3",
            "ticks": 87552,
            "time": 119.99982,
            "velocity": 0.3937007874015748
          },
          {
            "duration": 0.13157874999998853,
            "durationTicks": 96,
            "midi": 35,
            "name": "B1",
            "ticks": 87552,
            "time": 119.99982,
            "velocity": 0.3937007874015748
          },
          {
            "duration": 0.13157874999998853,
            "durationTicks": 96,
            "midi": 36,
            "name": "C2",
            "ticks": 87552,
            "time": 119.99982,
            "velocity": 0.3937007874015748
          },
          {
            "duration": 0.13157874999998853,
            "durationTicks": 96,
            "midi": 59,
            "name": "B3",
            "ticks": 87552,
            "time": 119.99982,
            "velocity": 0.3937007874015748
          },
          {
            "duration": 0.13157875000000274,
            "durationTicks": 96,
            "midi": 38,
            "name": "D2",
            "ticks": 87936,
            "time": 120.526135,
            "velocity": 0.3937007874015748
          },
          {
            "duration": 0.13157875000000274,
            "durationTicks": 96,
            "midi": 53,
            "name": "F3",
            "ticks": 87936,
            "time": 120.526135,
            "velocity": 0.3937007874015748
          },
          {
            "duration": 0.13157875000000274,
            "durationTicks": 96,
            "midi": 59,
            "name": "B3",
            "ticks": 87936,
            "time": 120.526135,
            "velocity": 0.3937007874015748
          },
          {
            "duration": 0.13157875000000274,
            "durationTicks": 96,
            "midi": 59,
            "name": "B3",
            "ticks": 88320,
            "time": 121.05245,
            "velocity": 0.3937007874015748
          },
          {
            "duration": 0.13157875000000274,
            "durationTicks": 96,
            "midi": 53,
            "name": "F3",
            "ticks": 88320,
            "time": 121.05245,
            "velocity": 0.3937007874015748
          },
          {
            "duration": 0.13157875000000274,
            "durationTicks": 96,
            "midi": 35,
            "name": "B1",
            "ticks": 88512,
            "time": 121.3156075,
            "velocity": 0.3937007874015748
          },
          {
            "duration": 0.13157875000000274,
            "durationTicks": 96,
            "midi": 36,
            "name": "C2",
            "ticks": 88512,
            "time": 121.3156075,
            "velocity": 0.3937007874015748
          },
          {
            "duration": 0.13157875000000274,
            "durationTicks": 96,
            "midi": 53,
            "name": "F3",
            "ticks": 88704,
            "time": 121.57876499999999,
            "velocity": 0.3937007874015748
          },
          {
            "duration": 0.13157875000000274,
            "durationTicks": 96,
            "midi": 38,
            "name": "D2",
            "ticks": 88704,
            "time": 121.57876499999999,
            "velocity": 0.3937007874015748
          },
          {
            "duration": 0.13157875000000274,
            "durationTicks": 96,
            "midi": 59,
            "name": "B3",
            "ticks": 88704,
            "time": 121.57876499999999,
            "velocity": 0.3937007874015748
          },
          {
            "duration": 0.13157874999998853,
            "durationTicks": 96,
            "midi": 53,
            "name": "F3",
            "ticks": 89088,
            "time": 122.10508,
            "velocity": 0.3937007874015748
          },
          {
            "duration": 0.13157874999998853,
            "durationTicks": 96,
            "midi": 59,
            "name": "B3",
            "ticks": 89088,
            "time": 122.10508,
            "velocity": 0.3937007874015748
          },
          {
            "duration": 0.13157874999998853,
            "durationTicks": 96,
            "midi": 35,
            "name": "B1",
            "ticks": 89088,
            "time": 122.10508,
            "velocity": 0.3937007874015748
          },
          {
            "duration": 0.13157874999998853,
            "durationTicks": 96,
            "midi": 36,
            "name": "C2",
            "ticks": 89088,
            "time": 122.10508,
            "velocity": 0.3937007874015748
          },
          {
            "duration": 0.13157875000000274,
            "durationTicks": 96,
            "midi": 38,
            "name": "D2",
            "ticks": 89472,
            "time": 122.631395,
            "velocity": 0.3937007874015748
          },
          {
            "duration": 0.13157875000000274,
            "durationTicks": 96,
            "midi": 59,
            "name": "B3",
            "ticks": 89472,
            "time": 122.631395,
            "velocity": 0.3937007874015748
          },
          {
            "duration": 0.13157875000000274,
            "durationTicks": 96,
            "midi": 53,
            "name": "F3",
            "ticks": 89472,
            "time": 122.631395,
            "velocity": 0.3937007874015748
          },
          {
            "duration": 0.13157875000000274,
            "durationTicks": 96,
            "midi": 53,
            "name": "F3",
            "ticks": 89856,
            "time": 123.15771,
            "velocity": 0.3937007874015748
          },
          {
            "duration": 0.13157875000000274,
            "durationTicks": 96,
            "midi": 59,
            "name": "B3",
            "ticks": 89856,
            "time": 123.15771,
            "velocity": 0.3937007874015748
          },
          {
            "duration": 0.13157874999998853,
            "durationTicks": 96,
            "midi": 35,
            "name": "B1",
            "ticks": 90048,
            "time": 123.4208675,
            "velocity": 0.3937007874015748
          },
          {
            "duration": 0.13157874999998853,
            "durationTicks": 96,
            "midi": 36,
            "name": "C2",
            "ticks": 90048,
            "time": 123.4208675,
            "velocity": 0.3937007874015748
          },
          {
            "duration": 0.13157875000000274,
            "durationTicks": 96,
            "midi": 59,
            "name": "B3",
            "ticks": 90240,
            "time": 123.68402499999999,
            "velocity": 0.3937007874015748
          },
          {
            "duration": 0.13157875000000274,
            "durationTicks": 96,
            "midi": 38,
            "name": "D2",
            "ticks": 90240,
            "time": 123.68402499999999,
            "velocity": 0.3937007874015748
          },
          {
            "duration": 0.13157875000000274,
            "durationTicks": 96,
            "midi": 53,
            "name": "F3",
            "ticks": 90240,
            "time": 123.68402499999999,
            "velocity": 0.3937007874015748
          },
          {
            "duration": 0.13157875000000274,
            "durationTicks": 96,
            "midi": 53,
            "name": "F3",
            "ticks": 90624,
            "time": 124.21033999999999,
            "velocity": 0.3937007874015748
          },
          {
            "duration": 0.13157875000000274,
            "durationTicks": 96,
            "midi": 35,
            "name": "B1",
            "ticks": 90624,
            "time": 124.21033999999999,
            "velocity": 0.3937007874015748
          },
          {
            "duration": 0.13157875000000274,
            "durationTicks": 96,
            "midi": 59,
            "name": "B3",
            "ticks": 90624,
            "time": 124.21033999999999,
            "velocity": 0.3937007874015748
          },
          {
            "duration": 0.13157875000000274,
            "durationTicks": 96,
            "midi": 36,
            "name": "C2",
            "ticks": 90624,
            "time": 124.21033999999999,
            "velocity": 0.3937007874015748
          },
          {
            "duration": 0.13157875000000274,
            "durationTicks": 96,
            "midi": 38,
            "name": "D2",
            "ticks": 91008,
            "time": 124.736655,
            "velocity": 0.3937007874015748
          },
          {
            "duration": 0.13157875000000274,
            "durationTicks": 96,
            "midi": 53,
            "name": "F3",
            "ticks": 91008,
            "time": 124.736655,
            "velocity": 0.3937007874015748
          },
          {
            "duration": 0.13157875000000274,
            "durationTicks": 96,
            "midi": 59,
            "name": "B3",
            "ticks": 91008,
            "time": 124.736655,
            "velocity": 0.3937007874015748
          },
          {
            "duration": 0.13157875000000274,
            "durationTicks": 96,
            "midi": 59,
            "name": "B3",
            "ticks": 91392,
            "time": 125.26297,
            "velocity": 0.3937007874015748
          },
          {
            "duration": 0.13157875000000274,
            "durationTicks": 96,
            "midi": 53,
            "name": "F3",
            "ticks": 91392,
            "time": 125.26297,
            "velocity": 0.3937007874015748
          },
          {
            "duration": 0.13157874999998853,
            "durationTicks": 96,
            "midi": 36,
            "name": "C2",
            "ticks": 91584,
            "time": 125.5261275,
            "velocity": 0.3937007874015748
          },
          {
            "duration": 0.13157874999998853,
            "durationTicks": 96,
            "midi": 35,
            "name": "B1",
            "ticks": 91584,
            "time": 125.5261275,
            "velocity": 0.3937007874015748
          },
          {
            "duration": 0.13157875000000274,
            "durationTicks": 96,
            "midi": 53,
            "name": "F3",
            "ticks": 91776,
            "time": 125.78928499999999,
            "velocity": 0.3937007874015748
          },
          {
            "duration": 0.13157875000000274,
            "durationTicks": 96,
            "midi": 38,
            "name": "D2",
            "ticks": 91776,
            "time": 125.78928499999999,
            "velocity": 0.3937007874015748
          },
          {
            "duration": 0.13157875000000274,
            "durationTicks": 96,
            "midi": 59,
            "name": "B3",
            "ticks": 91776,
            "time": 125.78928499999999,
            "velocity": 0.3937007874015748
          },
          {
            "duration": 0.13157874999998853,
            "durationTicks": 96,
            "midi": 38,
            "name": "D2",
            "ticks": 92064,
            "time": 126.18402125,
            "velocity": 0.3937007874015748
          },
          {
            "duration": 0.13157875000000274,
            "durationTicks": 96,
            "midi": 49,
            "name": "C#3",
            "ticks": 92160,
            "time": 126.31559999999999,
            "velocity": 0.3937007874015748
          },
          {
            "duration": 0.13157875000000274,
            "durationTicks": 96,
            "midi": 53,
            "name": "F3",
            "ticks": 92160,
            "time": 126.31559999999999,
            "velocity": 0.3937007874015748
          },
          {
            "duration": 0.13157875000000274,
            "durationTicks": 96,
            "midi": 35,
            "name": "B1",
            "ticks": 92160,
            "time": 126.31559999999999,
            "velocity": 0.3937007874015748
          },
          {
            "duration": 0.13157875000000274,
            "durationTicks": 96,
            "midi": 59,
            "name": "B3",
            "ticks": 92160,
            "time": 126.31559999999999,
            "velocity": 0.3937007874015748
          },
          {
            "duration": 0.13157875000000274,
            "durationTicks": 96,
            "midi": 36,
            "name": "C2",
            "ticks": 92160,
            "time": 126.31559999999999,
            "velocity": 0.3937007874015748
          },
          {
            "duration": 0.13157874999998853,
            "durationTicks": 96,
            "midi": 53,
            "name": "F3",
            "ticks": 92544,
            "time": 126.841915,
            "velocity": 0.3937007874015748
          },
          {
            "duration": 0.13157874999998853,
            "durationTicks": 96,
            "midi": 59,
            "name": "B3",
            "ticks": 92544,
            "time": 126.841915,
            "velocity": 0.3937007874015748
          },
          {
            "duration": 0.13157874999998853,
            "durationTicks": 96,
            "midi": 38,
            "name": "D2",
            "ticks": 92544,
            "time": 126.841915,
            "velocity": 0.3937007874015748
          },
          {
            "duration": 0.13157875000000274,
            "durationTicks": 96,
            "midi": 59,
            "name": "B3",
            "ticks": 92928,
            "time": 127.36823,
            "velocity": 0.3937007874015748
          },
          {
            "duration": 0.13157875000000274,
            "durationTicks": 96,
            "midi": 53,
            "name": "F3",
            "ticks": 92928,
            "time": 127.36823,
            "velocity": 0.3937007874015748
          },
          {
            "duration": 0.13157875000000274,
            "durationTicks": 96,
            "midi": 36,
            "name": "C2",
            "ticks": 93120,
            "time": 127.63138749999999,
            "velocity": 0.3937007874015748
          },
          {
            "duration": 0.13157875000000274,
            "durationTicks": 96,
            "midi": 35,
            "name": "B1",
            "ticks": 93120,
            "time": 127.63138749999999,
            "velocity": 0.3937007874015748
          },
          {
            "duration": 0.13157874999998853,
            "durationTicks": 96,
            "midi": 38,
            "name": "D2",
            "ticks": 93312,
            "time": 127.894545,
            "velocity": 0.3937007874015748
          },
          {
            "duration": 0.13157874999998853,
            "durationTicks": 96,
            "midi": 53,
            "name": "F3",
            "ticks": 93312,
            "time": 127.894545,
            "velocity": 0.3937007874015748
          },
          {
            "duration": 0.13157874999998853,
            "durationTicks": 96,
            "midi": 59,
            "name": "B3",
            "ticks": 93312,
            "time": 127.894545,
            "velocity": 0.3937007874015748
          },
          {
            "duration": 0.13157874999998853,
            "durationTicks": 96,
            "midi": 59,
            "name": "B3",
            "ticks": 93696,
            "time": 128.42086,
            "velocity": 0.3937007874015748
          },
          {
            "duration": 0.13157874999998853,
            "durationTicks": 96,
            "midi": 35,
            "name": "B1",
            "ticks": 93696,
            "time": 128.42086,
            "velocity": 0.3937007874015748
          },
          {
            "duration": 0.13157874999998853,
            "durationTicks": 96,
            "midi": 53,
            "name": "F3",
            "ticks": 93696,
            "time": 128.42086,
            "velocity": 0.3937007874015748
          },
          {
            "duration": 0.13157874999998853,
            "durationTicks": 96,
            "midi": 36,
            "name": "C2",
            "ticks": 93696,
            "time": 128.42086,
            "velocity": 0.3937007874015748
          },
          {
            "duration": 0.13157875000001695,
            "durationTicks": 96,
            "midi": 38,
            "name": "D2",
            "ticks": 94080,
            "time": 128.947175,
            "velocity": 0.3937007874015748
          },
          {
            "duration": 0.13157875000001695,
            "durationTicks": 96,
            "midi": 53,
            "name": "F3",
            "ticks": 94080,
            "time": 128.947175,
            "velocity": 0.3937007874015748
          },
          {
            "duration": 0.13157875000001695,
            "durationTicks": 96,
            "midi": 59,
            "name": "B3",
            "ticks": 94080,
            "time": 128.947175,
            "velocity": 0.3937007874015748
          },
          {
            "duration": 0.13157874999998853,
            "durationTicks": 96,
            "midi": 59,
            "name": "B3",
            "ticks": 94464,
            "time": 129.47349,
            "velocity": 0.3937007874015748
          },
          {
            "duration": 0.13157874999998853,
            "durationTicks": 96,
            "midi": 53,
            "name": "F3",
            "ticks": 94464,
            "time": 129.47349,
            "velocity": 0.3937007874015748
          },
          {
            "duration": 0.13157874999998853,
            "durationTicks": 96,
            "midi": 35,
            "name": "B1",
            "ticks": 94656,
            "time": 129.7366475,
            "velocity": 0.3937007874015748
          },
          {
            "duration": 0.13157874999998853,
            "durationTicks": 96,
            "midi": 36,
            "name": "C2",
            "ticks": 94656,
            "time": 129.7366475,
            "velocity": 0.3937007874015748
          },
          {
            "duration": 0.13157875000001695,
            "durationTicks": 96,
            "midi": 27,
            "name": "D#1",
            "ticks": 94848,
            "time": 129.99980499999998,
            "velocity": 0.3937007874015748
          },
          {
            "duration": 0.13157875000001695,
            "durationTicks": 96,
            "midi": 53,
            "name": "F3",
            "ticks": 94848,
            "time": 129.99980499999998,
            "velocity": 0.3937007874015748
          },
          {
            "duration": 0.13157875000001695,
            "durationTicks": 96,
            "midi": 59,
            "name": "B3",
            "ticks": 94848,
            "time": 129.99980499999998,
            "velocity": 0.3937007874015748
          },
          {
            "duration": 0.13157875000001695,
            "durationTicks": 96,
            "midi": 38,
            "name": "D2",
            "ticks": 94848,
            "time": 129.99980499999998,
            "velocity": 0.3937007874015748
          },
          {
            "duration": 0.13157875000001695,
            "durationTicks": 96,
            "midi": 27,
            "name": "D#1",
            "ticks": 95040,
            "time": 130.2629625,
            "velocity": 0.3937007874015748
          },
          {
            "duration": 0.13157874999998853,
            "durationTicks": 96,
            "midi": 53,
            "name": "F3",
            "ticks": 95232,
            "time": 130.52612,
            "velocity": 0.3937007874015748
          },
          {
            "duration": 0.13157874999998853,
            "durationTicks": 96,
            "midi": 59,
            "name": "B3",
            "ticks": 95232,
            "time": 130.52612,
            "velocity": 0.3937007874015748
          },
          {
            "duration": 0.13157874999998853,
            "durationTicks": 96,
            "midi": 35,
            "name": "B1",
            "ticks": 95232,
            "time": 130.52612,
            "velocity": 0.3937007874015748
          },
          {
            "duration": 0.13157874999998853,
            "durationTicks": 96,
            "midi": 36,
            "name": "C2",
            "ticks": 95232,
            "time": 130.52612,
            "velocity": 0.3937007874015748
          },
          {
            "duration": 0.13157874999998853,
            "durationTicks": 96,
            "midi": 59,
            "name": "B3",
            "ticks": 95616,
            "time": 131.052435,
            "velocity": 0.3937007874015748
          },
          {
            "duration": 0.13157874999998853,
            "durationTicks": 96,
            "midi": 53,
            "name": "F3",
            "ticks": 95616,
            "time": 131.052435,
            "velocity": 0.3937007874015748
          },
          {
            "duration": 0.13157874999998853,
            "durationTicks": 96,
            "midi": 38,
            "name": "D2",
            "ticks": 95616,
            "time": 131.052435,
            "velocity": 0.3937007874015748
          },
          {
            "duration": 0.13157875000001695,
            "durationTicks": 96,
            "midi": 59,
            "name": "B3",
            "ticks": 96000,
            "time": 131.57874999999999,
            "velocity": 0.3937007874015748
          },
          {
            "duration": 0.13157875000001695,
            "durationTicks": 96,
            "midi": 53,
            "name": "F3",
            "ticks": 96000,
            "time": 131.57874999999999,
            "velocity": 0.3937007874015748
          },
          {
            "duration": 0.13157875000001695,
            "durationTicks": 96,
            "midi": 35,
            "name": "B1",
            "ticks": 96192,
            "time": 131.8419075,
            "velocity": 0.3937007874015748
          },
          {
            "duration": 0.13157875000001695,
            "durationTicks": 96,
            "midi": 36,
            "name": "C2",
            "ticks": 96192,
            "time": 131.8419075,
            "velocity": 0.3937007874015748
          },
          {
            "duration": 0.13157874999998853,
            "durationTicks": 96,
            "midi": 59,
            "name": "B3",
            "ticks": 96384,
            "time": 132.105065,
            "velocity": 0.3937007874015748
          },
          {
            "duration": 0.13157874999998853,
            "durationTicks": 96,
            "midi": 53,
            "name": "F3",
            "ticks": 96384,
            "time": 132.105065,
            "velocity": 0.3937007874015748
          },
          {
            "duration": 0.13157874999998853,
            "durationTicks": 96,
            "midi": 38,
            "name": "D2",
            "ticks": 96384,
            "time": 132.105065,
            "velocity": 0.3937007874015748
          },
          {
            "duration": 0.13157874999998853,
            "durationTicks": 96,
            "midi": 59,
            "name": "B3",
            "ticks": 96768,
            "time": 132.63138,
            "velocity": 0.3937007874015748
          },
          {
            "duration": 0.13157874999998853,
            "durationTicks": 96,
            "midi": 53,
            "name": "F3",
            "ticks": 96768,
            "time": 132.63138,
            "velocity": 0.3937007874015748
          },
          {
            "duration": 0.13157874999998853,
            "durationTicks": 96,
            "midi": 36,
            "name": "C2",
            "ticks": 96768,
            "time": 132.63138,
            "velocity": 0.3937007874015748
          },
          {
            "duration": 0.13157874999998853,
            "durationTicks": 96,
            "midi": 35,
            "name": "B1",
            "ticks": 96768,
            "time": 132.63138,
            "velocity": 0.3937007874015748
          },
          {
            "duration": 0.13157875000001695,
            "durationTicks": 96,
            "midi": 38,
            "name": "D2",
            "ticks": 97152,
            "time": 133.157695,
            "velocity": 0.3937007874015748
          },
          {
            "duration": 0.13157875000001695,
            "durationTicks": 96,
            "midi": 53,
            "name": "F3",
            "ticks": 97152,
            "time": 133.157695,
            "velocity": 0.3937007874015748
          },
          {
            "duration": 0.13157875000001695,
            "durationTicks": 96,
            "midi": 59,
            "name": "B3",
            "ticks": 97152,
            "time": 133.157695,
            "velocity": 0.3937007874015748
          },
          {
            "duration": 0.13157874999998853,
            "durationTicks": 96,
            "midi": 59,
            "name": "B3",
            "ticks": 97536,
            "time": 133.68401,
            "velocity": 0.3937007874015748
          },
          {
            "duration": 0.13157874999998853,
            "durationTicks": 96,
            "midi": 53,
            "name": "F3",
            "ticks": 97536,
            "time": 133.68401,
            "velocity": 0.3937007874015748
          },
          {
            "duration": 0.13157874999998853,
            "durationTicks": 96,
            "midi": 36,
            "name": "C2",
            "ticks": 97728,
            "time": 133.9471675,
            "velocity": 0.3937007874015748
          },
          {
            "duration": 0.13157874999998853,
            "durationTicks": 96,
            "midi": 35,
            "name": "B1",
            "ticks": 97728,
            "time": 133.9471675,
            "velocity": 0.3937007874015748
          },
          {
            "duration": 0.13157875000001695,
            "durationTicks": 96,
            "midi": 38,
            "name": "D2",
            "ticks": 97920,
            "time": 134.21032499999998,
            "velocity": 0.3937007874015748
          },
          {
            "duration": 0.13157875000001695,
            "durationTicks": 96,
            "midi": 53,
            "name": "F3",
            "ticks": 97920,
            "time": 134.21032499999998,
            "velocity": 0.3937007874015748
          },
          {
            "duration": 0.13157875000001695,
            "durationTicks": 96,
            "midi": 27,
            "name": "D#1",
            "ticks": 97920,
            "time": 134.21032499999998,
            "velocity": 0.3937007874015748
          },
          {
            "duration": 0.13157875000001695,
            "durationTicks": 96,
            "midi": 59,
            "name": "B3",
            "ticks": 97920,
            "time": 134.21032499999998,
            "velocity": 0.3937007874015748
          },
          {
            "duration": 0.13157875000001695,
            "durationTicks": 96,
            "midi": 27,
            "name": "D#1",
            "ticks": 98112,
            "time": 134.4734825,
            "velocity": 0.3937007874015748
          },
          {
            "duration": 0.13157874999998853,
            "durationTicks": 96,
            "midi": 38,
            "name": "D2",
            "ticks": 98208,
            "time": 134.60506125,
            "velocity": 0.3937007874015748
          },
          {
            "duration": 0.13157874999998853,
            "durationTicks": 96,
            "midi": 35,
            "name": "B1",
            "ticks": 98304,
            "time": 134.73664,
            "velocity": 0.3937007874015748
          },
          {
            "duration": 0.13157874999998853,
            "durationTicks": 96,
            "midi": 36,
            "name": "C2",
            "ticks": 98304,
            "time": 134.73664,
            "velocity": 0.3937007874015748
          },
          {
            "duration": 0.13157874999998853,
            "durationTicks": 96,
            "midi": 59,
            "name": "B3",
            "ticks": 98304,
            "time": 134.73664,
            "velocity": 0.3937007874015748
          },
          {
            "duration": 0.13157874999998853,
            "durationTicks": 96,
            "midi": 49,
            "name": "C#3",
            "ticks": 98304,
            "time": 134.73664,
            "velocity": 0.3937007874015748
          },
          {
            "duration": 0.13157874999998853,
            "durationTicks": 96,
            "midi": 53,
            "name": "F3",
            "ticks": 98304,
            "time": 134.73664,
            "velocity": 0.3937007874015748
          },
          {
            "duration": 0.13157874999998853,
            "durationTicks": 96,
            "midi": 53,
            "name": "F3",
            "ticks": 98688,
            "time": 135.262955,
            "velocity": 0.3937007874015748
          },
          {
            "duration": 0.13157874999998853,
            "durationTicks": 96,
            "midi": 38,
            "name": "D2",
            "ticks": 98688,
            "time": 135.262955,
            "velocity": 0.3937007874015748
          },
          {
            "duration": 0.13157874999998853,
            "durationTicks": 96,
            "midi": 59,
            "name": "B3",
            "ticks": 98688,
            "time": 135.262955,
            "velocity": 0.3937007874015748
          },
          {
            "duration": 0.13157875000001695,
            "durationTicks": 96,
            "midi": 59,
            "name": "B3",
            "ticks": 99072,
            "time": 135.78927,
            "velocity": 0.3937007874015748
          },
          {
            "duration": 0.13157875000001695,
            "durationTicks": 96,
            "midi": 53,
            "name": "F3",
            "ticks": 99072,
            "time": 135.78927,
            "velocity": 0.3937007874015748
          },
          {
            "duration": 0.13157874999998853,
            "durationTicks": 96,
            "midi": 35,
            "name": "B1",
            "ticks": 99264,
            "time": 136.0524275,
            "velocity": 0.3937007874015748
          },
          {
            "duration": 0.13157874999998853,
            "durationTicks": 96,
            "midi": 36,
            "name": "C2",
            "ticks": 99264,
            "time": 136.0524275,
            "velocity": 0.3937007874015748
          },
          {
            "duration": 0.13157874999998853,
            "durationTicks": 96,
            "midi": 38,
            "name": "D2",
            "ticks": 99456,
            "time": 136.315585,
            "velocity": 0.3937007874015748
          },
          {
            "duration": 0.13157874999998853,
            "durationTicks": 96,
            "midi": 53,
            "name": "F3",
            "ticks": 99456,
            "time": 136.315585,
            "velocity": 0.3937007874015748
          },
          {
            "duration": 0.13157874999998853,
            "durationTicks": 96,
            "midi": 59,
            "name": "B3",
            "ticks": 99456,
            "time": 136.315585,
            "velocity": 0.3937007874015748
          },
          {
            "duration": 0.13157874999998853,
            "durationTicks": 96,
            "midi": 27,
            "name": "D#1",
            "ticks": 99456,
            "time": 136.315585,
            "velocity": 0.3937007874015748
          },
          {
            "duration": 0.13157874999998853,
            "durationTicks": 96,
            "midi": 27,
            "name": "D#1",
            "ticks": 99648,
            "time": 136.5787425,
            "velocity": 0.3937007874015748
          },
          {
            "duration": 0.13157875000001695,
            "durationTicks": 96,
            "midi": 53,
            "name": "F3",
            "ticks": 99840,
            "time": 136.84189999999998,
            "velocity": 0.3937007874015748
          },
          {
            "duration": 0.13157875000001695,
            "durationTicks": 96,
            "midi": 35,
            "name": "B1",
            "ticks": 99840,
            "time": 136.84189999999998,
            "velocity": 0.3937007874015748
          },
          {
            "duration": 0.13157875000001695,
            "durationTicks": 96,
            "midi": 36,
            "name": "C2",
            "ticks": 99840,
            "time": 136.84189999999998,
            "velocity": 0.3937007874015748
          },
          {
            "duration": 0.13157875000001695,
            "durationTicks": 96,
            "midi": 59,
            "name": "B3",
            "ticks": 99840,
            "time": 136.84189999999998,
            "velocity": 0.3937007874015748
          },
          {
            "duration": 0.13157874999998853,
            "durationTicks": 96,
            "midi": 38,
            "name": "D2",
            "ticks": 100224,
            "time": 137.368215,
            "velocity": 0.3937007874015748
          },
          {
            "duration": 0.13157874999998853,
            "durationTicks": 96,
            "midi": 59,
            "name": "B3",
            "ticks": 100224,
            "time": 137.368215,
            "velocity": 0.3937007874015748
          },
          {
            "duration": 0.13157874999998853,
            "durationTicks": 96,
            "midi": 53,
            "name": "F3",
            "ticks": 100224,
            "time": 137.368215,
            "velocity": 0.3937007874015748
          },
          {
            "duration": 0.13157874999998853,
            "durationTicks": 96,
            "midi": 59,
            "name": "B3",
            "ticks": 100608,
            "time": 137.89453,
            "velocity": 0.3937007874015748
          },
          {
            "duration": 0.13157874999998853,
            "durationTicks": 96,
            "midi": 53,
            "name": "F3",
            "ticks": 100608,
            "time": 137.89453,
            "velocity": 0.3937007874015748
          },
          {
            "duration": 0.13157875000001695,
            "durationTicks": 96,
            "midi": 35,
            "name": "B1",
            "ticks": 100800,
            "time": 138.15768749999998,
            "velocity": 0.3937007874015748
          },
          {
            "duration": 0.13157875000001695,
            "durationTicks": 96,
            "midi": 36,
            "name": "C2",
            "ticks": 100800,
            "time": 138.15768749999998,
            "velocity": 0.3937007874015748
          },
          {
            "duration": 0.13157875000001695,
            "durationTicks": 96,
            "midi": 27,
            "name": "D#1",
            "ticks": 100992,
            "time": 138.42084499999999,
            "velocity": 0.3937007874015748
          },
          {
            "duration": 0.13157875000001695,
            "durationTicks": 96,
            "midi": 38,
            "name": "D2",
            "ticks": 100992,
            "time": 138.42084499999999,
            "velocity": 0.3937007874015748
          },
          {
            "duration": 0.13157875000001695,
            "durationTicks": 96,
            "midi": 53,
            "name": "F3",
            "ticks": 100992,
            "time": 138.42084499999999,
            "velocity": 0.3937007874015748
          },
          {
            "duration": 0.13157875000001695,
            "durationTicks": 96,
            "midi": 59,
            "name": "B3",
            "ticks": 100992,
            "time": 138.42084499999999,
            "velocity": 0.3937007874015748
          },
          {
            "duration": 0.13157875000001695,
            "durationTicks": 96,
            "midi": 27,
            "name": "D#1",
            "ticks": 101184,
            "time": 138.6840025,
            "velocity": 0.3937007874015748
          },
          {
            "duration": 0.13157874999998853,
            "durationTicks": 96,
            "midi": 53,
            "name": "F3",
            "ticks": 101376,
            "time": 138.94716,
            "velocity": 0.3937007874015748
          },
          {
            "duration": 0.13157874999998853,
            "durationTicks": 96,
            "midi": 59,
            "name": "B3",
            "ticks": 101376,
            "time": 138.94716,
            "velocity": 0.3937007874015748
          },
          {
            "duration": 0.13157874999998853,
            "durationTicks": 96,
            "midi": 35,
            "name": "B1",
            "ticks": 101376,
            "time": 138.94716,
            "velocity": 0.3937007874015748
          },
          {
            "duration": 0.13157874999998853,
            "durationTicks": 96,
            "midi": 36,
            "name": "C2",
            "ticks": 101376,
            "time": 138.94716,
            "velocity": 0.3937007874015748
          },
          {
            "duration": 0.13157874999998853,
            "durationTicks": 96,
            "midi": 59,
            "name": "B3",
            "ticks": 101760,
            "time": 139.473475,
            "velocity": 0.3937007874015748
          },
          {
            "duration": 0.13157874999998853,
            "durationTicks": 96,
            "midi": 38,
            "name": "D2",
            "ticks": 101760,
            "time": 139.473475,
            "velocity": 0.3937007874015748
          },
          {
            "duration": 0.13157874999998853,
            "durationTicks": 96,
            "midi": 53,
            "name": "F3",
            "ticks": 101760,
            "time": 139.473475,
            "velocity": 0.3937007874015748
          },
          {
            "duration": 0.13157875000001695,
            "durationTicks": 96,
            "midi": 59,
            "name": "B3",
            "ticks": 102144,
            "time": 139.99979,
            "velocity": 0.3937007874015748
          },
          {
            "duration": 0.13157875000001695,
            "durationTicks": 96,
            "midi": 53,
            "name": "F3",
            "ticks": 102144,
            "time": 139.99979,
            "velocity": 0.3937007874015748
          },
          {
            "duration": 0.13157874999998853,
            "durationTicks": 96,
            "midi": 36,
            "name": "C2",
            "ticks": 102336,
            "time": 140.2629475,
            "velocity": 0.3937007874015748
          },
          {
            "duration": 0.13157874999998853,
            "durationTicks": 96,
            "midi": 35,
            "name": "B1",
            "ticks": 102336,
            "time": 140.2629475,
            "velocity": 0.3937007874015748
          },
          {
            "duration": 0.13157874999998853,
            "durationTicks": 96,
            "midi": 59,
            "name": "B3",
            "ticks": 102528,
            "time": 140.526105,
            "velocity": 0.3937007874015748
          },
          {
            "duration": 0.13157874999998853,
            "durationTicks": 96,
            "midi": 38,
            "name": "D2",
            "ticks": 102528,
            "time": 140.526105,
            "velocity": 0.3937007874015748
          },
          {
            "duration": 0.13157874999998853,
            "durationTicks": 96,
            "midi": 53,
            "name": "F3",
            "ticks": 102528,
            "time": 140.526105,
            "velocity": 0.3937007874015748
          },
          {
            "duration": 0.13157875000001695,
            "durationTicks": 96,
            "midi": 59,
            "name": "B3",
            "ticks": 102912,
            "time": 141.05241999999998,
            "velocity": 0.3937007874015748
          },
          {
            "duration": 0.13157875000001695,
            "durationTicks": 96,
            "midi": 35,
            "name": "B1",
            "ticks": 102912,
            "time": 141.05241999999998,
            "velocity": 0.3937007874015748
          },
          {
            "duration": 0.13157875000001695,
            "durationTicks": 96,
            "midi": 36,
            "name": "C2",
            "ticks": 102912,
            "time": 141.05241999999998,
            "velocity": 0.3937007874015748
          },
          {
            "duration": 0.13157875000001695,
            "durationTicks": 96,
            "midi": 53,
            "name": "F3",
            "ticks": 102912,
            "time": 141.05241999999998,
            "velocity": 0.3937007874015748
          },
          {
            "duration": 0.13157874999998853,
            "durationTicks": 96,
            "midi": 38,
            "name": "D2",
            "ticks": 103296,
            "time": 141.578735,
            "velocity": 0.3937007874015748
          },
          {
            "duration": 0.13157874999998853,
            "durationTicks": 96,
            "midi": 53,
            "name": "F3",
            "ticks": 103296,
            "time": 141.578735,
            "velocity": 0.3937007874015748
          },
          {
            "duration": 0.13157874999998853,
            "durationTicks": 96,
            "midi": 59,
            "name": "B3",
            "ticks": 103296,
            "time": 141.578735,
            "velocity": 0.3937007874015748
          },
          {
            "duration": 0.13157874999998853,
            "durationTicks": 96,
            "midi": 59,
            "name": "B3",
            "ticks": 103680,
            "time": 142.10505,
            "velocity": 0.3937007874015748
          },
          {
            "duration": 0.13157874999998853,
            "durationTicks": 96,
            "midi": 53,
            "name": "F3",
            "ticks": 103680,
            "time": 142.10505,
            "velocity": 0.3937007874015748
          },
          {
            "duration": 0.13157875000001695,
            "durationTicks": 96,
            "midi": 36,
            "name": "C2",
            "ticks": 103872,
            "time": 142.36820749999998,
            "velocity": 0.3937007874015748
          },
          {
            "duration": 0.13157875000001695,
            "durationTicks": 96,
            "midi": 35,
            "name": "B1",
            "ticks": 103872,
            "time": 142.36820749999998,
            "velocity": 0.3937007874015748
          },
          {
            "duration": 0.13157875000001695,
            "durationTicks": 96,
            "midi": 59,
            "name": "B3",
            "ticks": 104064,
            "time": 142.631365,
            "velocity": 0.3937007874015748
          },
          {
            "duration": 0.13157875000001695,
            "durationTicks": 96,
            "midi": 38,
            "name": "D2",
            "ticks": 104064,
            "time": 142.631365,
            "velocity": 0.3937007874015748
          },
          {
            "duration": 0.13157875000001695,
            "durationTicks": 96,
            "midi": 53,
            "name": "F3",
            "ticks": 104064,
            "time": 142.631365,
            "velocity": 0.3937007874015748
          },
          {
            "duration": 0.13157875000001695,
            "durationTicks": 96,
            "midi": 38,
            "name": "D2",
            "ticks": 104352,
            "time": 143.02610124999998,
            "velocity": 0.3937007874015748
          },
          {
            "duration": 0.13157874999998853,
            "durationTicks": 96,
            "midi": 57,
            "name": "A3",
            "ticks": 104448,
            "time": 143.15768,
            "velocity": 0.3937007874015748
          },
          {
            "duration": 0.13157874999998853,
            "durationTicks": 96,
            "midi": 44,
            "name": "G#2",
            "ticks": 104448,
            "time": 143.15768,
            "velocity": 0.3937007874015748
          },
          {
            "duration": 0.13157874999998853,
            "durationTicks": 96,
            "midi": 49,
            "name": "C#3",
            "ticks": 104448,
            "time": 143.15768,
            "velocity": 0.3937007874015748
          },
          {
            "duration": 0.13157874999998853,
            "durationTicks": 96,
            "midi": 44,
            "name": "G#2",
            "ticks": 104640,
            "time": 143.4208375,
            "velocity": 0.3937007874015748
          },
          {
            "duration": 0.13157875000001695,
            "durationTicks": 96,
            "midi": 40,
            "name": "E2",
            "ticks": 104832,
            "time": 143.68399499999998,
            "velocity": 0.3937007874015748
          },
          {
            "duration": 0.13157875000001695,
            "durationTicks": 96,
            "midi": 44,
            "name": "G#2",
            "ticks": 104832,
            "time": 143.68399499999998,
            "velocity": 0.3937007874015748
          },
          {
            "duration": 0.13157875000001695,
            "durationTicks": 96,
            "midi": 44,
            "name": "G#2",
            "ticks": 105024,
            "time": 143.9471525,
            "velocity": 0.3937007874015748
          },
          {
            "duration": 0.13157874999998853,
            "durationTicks": 96,
            "midi": 44,
            "name": "G#2",
            "ticks": 105216,
            "time": 144.21031,
            "velocity": 0.3937007874015748
          },
          {
            "duration": 0.13157874999998853,
            "durationTicks": 96,
            "midi": 44,
            "name": "G#2",
            "ticks": 105408,
            "time": 144.4734675,
            "velocity": 0.3937007874015748
          },
          {
            "duration": 0.13157874999998853,
            "durationTicks": 96,
            "midi": 40,
            "name": "E2",
            "ticks": 105600,
            "time": 144.736625,
            "velocity": 0.3937007874015748
          },
          {
            "duration": 0.13157874999998853,
            "durationTicks": 96,
            "midi": 44,
            "name": "G#2",
            "ticks": 105600,
            "time": 144.736625,
            "velocity": 0.3937007874015748
          },
          {
            "duration": 0.13157875000001695,
            "durationTicks": 96,
            "midi": 44,
            "name": "G#2",
            "ticks": 105792,
            "time": 144.99978249999998,
            "velocity": 0.3937007874015748
          },
          {
            "duration": 0.13157875000001695,
            "durationTicks": 96,
            "midi": 44,
            "name": "G#2",
            "ticks": 105984,
            "time": 145.26294,
            "velocity": 0.3937007874015748
          },
          {
            "duration": 0.13157874999998853,
            "durationTicks": 96,
            "midi": 44,
            "name": "G#2",
            "ticks": 106176,
            "time": 145.5260975,
            "velocity": 0.3937007874015748
          },
          {
            "duration": 0.13157874999998853,
            "durationTicks": 96,
            "midi": 40,
            "name": "E2",
            "ticks": 106368,
            "time": 145.789255,
            "velocity": 0.3937007874015748
          },
          {
            "duration": 0.13157874999998853,
            "durationTicks": 96,
            "midi": 44,
            "name": "G#2",
            "ticks": 106368,
            "time": 145.789255,
            "velocity": 0.3937007874015748
          },
          {
            "duration": 0.13157874999998853,
            "durationTicks": 96,
            "midi": 44,
            "name": "G#2",
            "ticks": 106560,
            "time": 146.0524125,
            "velocity": 0.3937007874015748
          },
          {
            "duration": 0.13157875000001695,
            "durationTicks": 96,
            "midi": 44,
            "name": "G#2",
            "ticks": 106752,
            "time": 146.31556999999998,
            "velocity": 0.3937007874015748
          },
          {
            "duration": 0.13157875000001695,
            "durationTicks": 96,
            "midi": 44,
            "name": "G#2",
            "ticks": 106944,
            "time": 146.57872749999999,
            "velocity": 0.3937007874015748
          },
          {
            "duration": 0.13157875000001695,
            "durationTicks": 96,
            "midi": 40,
            "name": "E2",
            "ticks": 107136,
            "time": 146.841885,
            "velocity": 0.3937007874015748
          },
          {
            "duration": 0.13157875000001695,
            "durationTicks": 96,
            "midi": 44,
            "name": "G#2",
            "ticks": 107136,
            "time": 146.841885,
            "velocity": 0.3937007874015748
          },
          {
            "duration": 0.13157874999998853,
            "durationTicks": 96,
            "midi": 44,
            "name": "G#2",
            "ticks": 107328,
            "time": 147.1050425,
            "velocity": 0.3937007874015748
          },
          {
            "duration": 0.13157874999998853,
            "durationTicks": 96,
            "midi": 44,
            "name": "G#2",
            "ticks": 107520,
            "time": 147.3682,
            "velocity": 0.3937007874015748
          },
          {
            "duration": 0.13157874999998853,
            "durationTicks": 96,
            "midi": 44,
            "name": "G#2",
            "ticks": 107712,
            "time": 147.6313575,
            "velocity": 0.3937007874015748
          },
          {
            "duration": 0.13157875000001695,
            "durationTicks": 96,
            "midi": 40,
            "name": "E2",
            "ticks": 107904,
            "time": 147.89451499999998,
            "velocity": 0.3937007874015748
          },
          {
            "duration": 0.13157875000001695,
            "durationTicks": 96,
            "midi": 44,
            "name": "G#2",
            "ticks": 107904,
            "time": 147.89451499999998,
            "velocity": 0.3937007874015748
          },
          {
            "duration": 0.13157875000001695,
            "durationTicks": 96,
            "midi": 44,
            "name": "G#2",
            "ticks": 108096,
            "time": 148.1576725,
            "velocity": 0.3937007874015748
          },
          {
            "duration": 0.13157874999998853,
            "durationTicks": 96,
            "midi": 44,
            "name": "G#2",
            "ticks": 108288,
            "time": 148.42083,
            "velocity": 0.3937007874015748
          },
          {
            "duration": 0.13157874999998853,
            "durationTicks": 96,
            "midi": 44,
            "name": "G#2",
            "ticks": 108480,
            "time": 148.6839875,
            "velocity": 0.3937007874015748
          },
          {
            "duration": 0.13157874999998853,
            "durationTicks": 96,
            "midi": 44,
            "name": "G#2",
            "ticks": 108672,
            "time": 148.947145,
            "velocity": 0.3937007874015748
          },
          {
            "duration": 0.13157874999998853,
            "durationTicks": 96,
            "midi": 40,
            "name": "E2",
            "ticks": 108672,
            "time": 148.947145,
            "velocity": 0.3937007874015748
          },
          {
            "duration": 0.13157875000001695,
            "durationTicks": 96,
            "midi": 44,
            "name": "G#2",
            "ticks": 108864,
            "time": 149.21030249999998,
            "velocity": 0.3937007874015748
          },
          {
            "duration": 0.13157875000001695,
            "durationTicks": 96,
            "midi": 44,
            "name": "G#2",
            "ticks": 109056,
            "time": 149.47346,
            "velocity": 0.3937007874015748
          },
          {
            "duration": 0.13157874999998853,
            "durationTicks": 96,
            "midi": 44,
            "name": "G#2",
            "ticks": 109248,
            "time": 149.7366175,
            "velocity": 0.3937007874015748
          },
          {
            "duration": 0.13157874999998853,
            "durationTicks": 96,
            "midi": 44,
            "name": "G#2",
            "ticks": 109440,
            "time": 149.999775,
            "velocity": 0.3937007874015748
          },
          {
            "duration": 0.13157874999998853,
            "durationTicks": 96,
            "midi": 40,
            "name": "E2",
            "ticks": 109440,
            "time": 149.999775,
            "velocity": 0.3937007874015748
          },
          {
            "duration": 0.13157874999998853,
            "durationTicks": 96,
            "midi": 44,
            "name": "G#2",
            "ticks": 109632,
            "time": 150.2629325,
            "velocity": 0.3937007874015748
          },
          {
            "duration": 0.13157875000001695,
            "durationTicks": 96,
            "midi": 44,
            "name": "G#2",
            "ticks": 109824,
            "time": 150.52608999999998,
            "velocity": 0.3937007874015748
          },
          {
            "duration": 0.13157875000001695,
            "durationTicks": 96,
            "midi": 44,
            "name": "G#2",
            "ticks": 110016,
            "time": 150.7892475,
            "velocity": 0.3937007874015748
          },
          {
            "duration": 0.13157874999998853,
            "durationTicks": 96,
            "midi": 40,
            "name": "E2",
            "ticks": 110208,
            "time": 151.052405,
            "velocity": 0.3937007874015748
          },
          {
            "duration": 0.13157874999998853,
            "durationTicks": 96,
            "midi": 44,
            "name": "G#2",
            "ticks": 110208,
            "time": 151.052405,
            "velocity": 0.3937007874015748
          },
          {
            "duration": 0.13157874999998853,
            "durationTicks": 96,
            "midi": 44,
            "name": "G#2",
            "ticks": 110400,
            "time": 151.3155625,
            "velocity": 0.3937007874015748
          }
        ],
        "endOfTrackTicks": 110496
      },
      {
        "channel": 0,
        "controlChanges": {},
        "pitchBends": [],
        "instrument": {
          "family": "piano",
          "number": 0,
          "name": "acoustic grand piano"
        },
        "name": "Jazz Guitar",
        "notes": [
          {
            "duration": 0.4605256249999883,
            "durationTicks": 336,
            "midi": 29,
            "name": "F1",
            "ticks": 73728,
            "time": 101.05248,
            "velocity": 0.3937007874015748
          },
          {
            "duration": 0.4605256250000025,
            "durationTicks": 336,
            "midi": 29,
            "name": "F1",
            "ticks": 74112,
            "time": 101.578795,
            "velocity": 0.3937007874015748
          },
          {
            "duration": 0.4605256250000025,
            "durationTicks": 336,
            "midi": 27,
            "name": "D#1",
            "ticks": 74496,
            "time": 102.10511,
            "velocity": 0.3937007874015748
          },
          {
            "duration": 0.4605256250000025,
            "durationTicks": 336,
            "midi": 27,
            "name": "D#1",
            "ticks": 74880,
            "time": 102.631425,
            "velocity": 0.3937007874015748
          },
          {
            "duration": 0.4605256250000025,
            "durationTicks": 336,
            "midi": 26,
            "name": "D1",
            "ticks": 75264,
            "time": 103.15773999999999,
            "velocity": 0.3937007874015748
          },
          {
            "duration": 0.4605256249999883,
            "durationTicks": 336,
            "midi": 26,
            "name": "D1",
            "ticks": 75648,
            "time": 103.684055,
            "velocity": 0.3937007874015748
          },
          {
            "duration": 0.4605256250000025,
            "durationTicks": 336,
            "midi": 31,
            "name": "G1",
            "ticks": 76032,
            "time": 104.21037,
            "velocity": 0.3937007874015748
          },
          {
            "duration": 0.4605256250000025,
            "durationTicks": 336,
            "midi": 31,
            "name": "G1",
            "ticks": 76416,
            "time": 104.736685,
            "velocity": 0.3937007874015748
          },
          {
            "duration": 0.4605256250000025,
            "durationTicks": 336,
            "midi": 36,
            "name": "C2",
            "ticks": 76800,
            "time": 105.26299999999999,
            "velocity": 0.3937007874015748
          },
          {
            "duration": 0.4605256249999883,
            "durationTicks": 336,
            "midi": 36,
            "name": "C2",
            "ticks": 77184,
            "time": 105.789315,
            "velocity": 0.3937007874015748
          },
          {
            "duration": 0.4605256250000025,
            "durationTicks": 336,
            "midi": 39,
            "name": "D#2",
            "ticks": 77568,
            "time": 106.31563,
            "velocity": 0.3937007874015748
          },
          {
            "duration": 0.4605256250000025,
            "durationTicks": 336,
            "midi": 39,
            "name": "D#2",
            "ticks": 77952,
            "time": 106.841945,
            "velocity": 0.3937007874015748
          },
          {
            "duration": 0.4605256250000025,
            "durationTicks": 336,
            "midi": 32,
            "name": "G#1",
            "ticks": 78336,
            "time": 107.36825999999999,
            "velocity": 0.3937007874015748
          },
          {
            "duration": 0.4605256250000025,
            "durationTicks": 336,
            "midi": 32,
            "name": "G#1",
            "ticks": 78720,
            "time": 107.89457499999999,
            "velocity": 0.3937007874015748
          },
          {
            "duration": 0.4605256249999883,
            "durationTicks": 336,
            "midi": 31,
            "name": "G1",
            "ticks": 79104,
            "time": 108.42089,
            "velocity": 0.3937007874015748
          },
          {
            "duration": 0.4605256250000025,
            "durationTicks": 336,
            "midi": 31,
            "name": "G1",
            "ticks": 79488,
            "time": 108.947205,
            "velocity": 0.3937007874015748
          },
          {
            "duration": 0.2631575000000055,
            "durationTicks": 192,
            "midi": 36,
            "name": "C2",
            "ticks": 104448,
            "time": 143.15768,
            "velocity": 0.3937007874015748
          },
          {
            "duration": 0.2631575000000055,
            "durationTicks": 192,
            "midi": 36,
            "name": "C2",
            "ticks": 104832,
            "time": 143.68399499999998,
            "velocity": 0.3937007874015748
          },
          {
            "duration": 0.2631575000000055,
            "durationTicks": 192,
            "midi": 39,
            "name": "D#2",
            "ticks": 105216,
            "time": 144.21031,
            "velocity": 0.3937007874015748
          },
          {
            "duration": 0.26315749999997706,
            "durationTicks": 192,
            "midi": 39,
            "name": "D#2",
            "ticks": 105600,
            "time": 144.736625,
            "velocity": 0.3937007874015748
          },
          {
            "duration": 0.2631575000000055,
            "durationTicks": 192,
            "midi": 32,
            "name": "G#1",
            "ticks": 105984,
            "time": 145.26294,
            "velocity": 0.3937007874015748
          },
          {
            "duration": 0.2631575000000055,
            "durationTicks": 192,
            "midi": 32,
            "name": "G#1",
            "ticks": 106368,
            "time": 145.789255,
            "velocity": 0.3937007874015748
          },
          {
            "duration": 0.2631575000000055,
            "durationTicks": 192,
            "midi": 31,
            "name": "G1",
            "ticks": 106752,
            "time": 146.31556999999998,
            "velocity": 0.3937007874015748
          },
          {
            "duration": 0.2631575000000055,
            "durationTicks": 192,
            "midi": 31,
            "name": "G1",
            "ticks": 107136,
            "time": 146.841885,
            "velocity": 0.3937007874015748
          },
          {
            "duration": 0.2631575000000055,
            "durationTicks": 192,
            "midi": 36,
            "name": "C2",
            "ticks": 107520,
            "time": 147.3682,
            "velocity": 0.3937007874015748
          },
          {
            "duration": 0.2631575000000055,
            "durationTicks": 192,
            "midi": 36,
            "name": "C2",
            "ticks": 107904,
            "time": 147.89451499999998,
            "velocity": 0.3937007874015748
          },
          {
            "duration": 0.2631575000000055,
            "durationTicks": 192,
            "midi": 39,
            "name": "D#2",
            "ticks": 108288,
            "time": 148.42083,
            "velocity": 0.3937007874015748
          },
          {
            "duration": 0.26315749999997706,
            "durationTicks": 192,
            "midi": 39,
            "name": "D#2",
            "ticks": 108672,
            "time": 148.947145,
            "velocity": 0.3937007874015748
          },
          {
            "duration": 0.2631575000000055,
            "durationTicks": 192,
            "midi": 32,
            "name": "G#1",
            "ticks": 109056,
            "time": 149.47346,
            "velocity": 0.3937007874015748
          },
          {
            "duration": 0.2631575000000055,
            "durationTicks": 192,
            "midi": 32,
            "name": "G#1",
            "ticks": 109440,
            "time": 149.999775,
            "velocity": 0.3937007874015748
          },
          {
            "duration": 0.2631575000000055,
            "durationTicks": 192,
            "midi": 31,
            "name": "G1",
            "ticks": 109824,
            "time": 150.52608999999998,
            "velocity": 0.3937007874015748
          },
          {
            "duration": 0.2631575000000055,
            "durationTicks": 192,
            "midi": 31,
            "name": "G1",
            "ticks": 110208,
            "time": 151.052405,
            "velocity": 0.3937007874015748
          }
        ],
        "endOfTrackTicks": 110400
      },
      {
        "channel": 1,
        "controlChanges": {},
        "pitchBends": [],
        "instrument": {
          "family": "piano",
          "number": 0,
          "name": "acoustic grand piano"
        },
        "name": "Koto",
        "notes": [
          {
            "duration": 0.13157875,
            "durationTicks": 96,
            "midi": 60,
            "name": "C4",
            "ticks": 0,
            "time": 0,
            "velocity": 0.3937007874015748
          },
          {
            "duration": 0.13157875000000002,
            "durationTicks": 96,
            "midi": 75,
            "name": "D#5",
            "ticks": 192,
            "time": 0.2631575,
            "velocity": 0.3937007874015748
          },
          {
            "duration": 0.13157875000000002,
            "durationTicks": 96,
            "midi": 84,
            "name": "C6",
            "ticks": 192,
            "time": 0.2631575,
            "velocity": 0.3937007874015748
          },
          {
            "duration": 0.13157875000000002,
            "durationTicks": 96,
            "midi": 79,
            "name": "G5",
            "ticks": 192,
            "time": 0.2631575,
            "velocity": 0.3937007874015748
          },
          {
            "duration": 0.13157874999999997,
            "durationTicks": 96,
            "midi": 60,
            "name": "C4",
            "ticks": 384,
            "time": 0.526315,
            "velocity": 0.3937007874015748
          },
          {
            "duration": 0.13157874999999997,
            "durationTicks": 96,
            "midi": 75,
            "name": "D#5",
            "ticks": 576,
            "time": 0.7894725,
            "velocity": 0.3937007874015748
          },
          {
            "duration": 0.13157874999999997,
            "durationTicks": 96,
            "midi": 84,
            "name": "C6",
            "ticks": 576,
            "time": 0.7894725,
            "velocity": 0.3937007874015748
          },
          {
            "duration": 0.13157874999999997,
            "durationTicks": 96,
            "midi": 79,
            "name": "G5",
            "ticks": 576,
            "time": 0.7894725,
            "velocity": 0.3937007874015748
          },
          {
            "duration": 0.13157875000000008,
            "durationTicks": 96,
            "midi": 63,
            "name": "D#4",
            "ticks": 768,
            "time": 1.05263,
            "velocity": 0.3937007874015748
          },
          {
            "duration": 0.13157875000000008,
            "durationTicks": 96,
            "midi": 75,
            "name": "D#5",
            "ticks": 960,
            "time": 1.3157874999999999,
            "velocity": 0.3937007874015748
          },
          {
            "duration": 0.13157875000000008,
            "durationTicks": 96,
            "midi": 70,
            "name": "A#4",
            "ticks": 960,
            "time": 1.3157874999999999,
            "velocity": 0.3937007874015748
          },
          {
            "duration": 0.13157875000000008,
            "durationTicks": 96,
            "midi": 79,
            "name": "G5",
            "ticks": 960,
            "time": 1.3157874999999999,
            "velocity": 0.3937007874015748
          },
          {
            "duration": 0.13157874999999986,
            "durationTicks": 96,
            "midi": 63,
            "name": "D#4",
            "ticks": 1152,
            "time": 1.578945,
            "velocity": 0.3937007874015748
          },
          {
            "duration": 0.13157874999999986,
            "durationTicks": 96,
            "midi": 75,
            "name": "D#5",
            "ticks": 1344,
            "time": 1.8421025,
            "velocity": 0.3937007874015748
          },
          {
            "duration": 0.13157874999999986,
            "durationTicks": 96,
            "midi": 70,
            "name": "A#4",
            "ticks": 1344,
            "time": 1.8421025,
            "velocity": 0.3937007874015748
          },
          {
            "duration": 0.13157874999999986,
            "durationTicks": 96,
            "midi": 79,
            "name": "G5",
            "ticks": 1344,
            "time": 1.8421025,
            "velocity": 0.3937007874015748
          },
          {
            "duration": 0.13157875000000008,
            "durationTicks": 96,
            "midi": 56,
            "name": "G#3",
            "ticks": 1536,
            "time": 2.10526,
            "velocity": 0.3937007874015748
          },
          {
            "duration": 0.13157874999999963,
            "durationTicks": 96,
            "midi": 75,
            "name": "D#5",
            "ticks": 1728,
            "time": 2.3684175,
            "velocity": 0.3937007874015748
          },
          {
            "duration": 0.13157874999999963,
            "durationTicks": 96,
            "midi": 72,
            "name": "C5",
            "ticks": 1728,
            "time": 2.3684175,
            "velocity": 0.3937007874015748
          },
          {
            "duration": 0.13157874999999963,
            "durationTicks": 96,
            "midi": 80,
            "name": "G#5",
            "ticks": 1728,
            "time": 2.3684175,
            "velocity": 0.3937007874015748
          },
          {
            "duration": 0.13157875000000008,
            "durationTicks": 96,
            "midi": 56,
            "name": "G#3",
            "ticks": 1920,
            "time": 2.6315749999999998,
            "velocity": 0.3937007874015748
          },
          {
            "duration": 0.13157875000000008,
            "durationTicks": 96,
            "midi": 72,
            "name": "C5",
            "ticks": 2112,
            "time": 2.8947325,
            "velocity": 0.3937007874015748
          },
          {
            "duration": 0.13157875000000008,
            "durationTicks": 96,
            "midi": 80,
            "name": "G#5",
            "ticks": 2112,
            "time": 2.8947325,
            "velocity": 0.3937007874015748
          },
          {
            "duration": 0.13157875000000008,
            "durationTicks": 96,
            "midi": 75,
            "name": "D#5",
            "ticks": 2112,
            "time": 2.8947325,
            "velocity": 0.3937007874015748
          },
          {
            "duration": 0.13157874999999963,
            "durationTicks": 96,
            "midi": 55,
            "name": "G3",
            "ticks": 2304,
            "time": 3.15789,
            "velocity": 0.3937007874015748
          },
          {
            "duration": 0.13157875000000008,
            "durationTicks": 96,
            "midi": 71,
            "name": "B4",
            "ticks": 2496,
            "time": 3.4210475,
            "velocity": 0.3937007874015748
          },
          {
            "duration": 0.13157875000000008,
            "durationTicks": 96,
            "midi": 79,
            "name": "G5",
            "ticks": 2496,
            "time": 3.4210475,
            "velocity": 0.3937007874015748
          },
          {
            "duration": 0.13157875000000008,
            "durationTicks": 96,
            "midi": 74,
            "name": "D5",
            "ticks": 2496,
            "time": 3.4210475,
            "velocity": 0.3937007874015748
          },
          {
            "duration": 0.13157875000000008,
            "durationTicks": 96,
            "midi": 55,
            "name": "G3",
            "ticks": 2688,
            "time": 3.684205,
            "velocity": 0.3937007874015748
          },
          {
            "duration": 0.13157875000000008,
            "durationTicks": 96,
            "midi": 71,
            "name": "B4",
            "ticks": 2880,
            "time": 3.9473624999999997,
            "velocity": 0.3937007874015748
          },
          {
            "duration": 0.13157875000000008,
            "durationTicks": 96,
            "midi": 74,
            "name": "D5",
            "ticks": 2880,
            "time": 3.9473624999999997,
            "velocity": 0.3937007874015748
          },
          {
            "duration": 0.13157875000000008,
            "durationTicks": 96,
            "midi": 79,
            "name": "G5",
            "ticks": 2880,
            "time": 3.9473624999999997,
            "velocity": 0.3937007874015748
          },
          {
            "duration": 0.13157875000000008,
            "durationTicks": 96,
            "midi": 60,
            "name": "C4",
            "ticks": 3072,
            "time": 4.21052,
            "velocity": 0.3937007874015748
          },
          {
            "duration": 0.13157875000000008,
            "durationTicks": 96,
            "midi": 84,
            "name": "C6",
            "ticks": 3264,
            "time": 4.4736775,
            "velocity": 0.3937007874015748
          },
          {
            "duration": 0.13157875000000008,
            "durationTicks": 96,
            "midi": 79,
            "name": "G5",
            "ticks": 3264,
            "time": 4.4736775,
            "velocity": 0.3937007874015748
          },
          {
            "duration": 0.13157875000000008,
            "durationTicks": 96,
            "midi": 75,
            "name": "D#5",
            "ticks": 3264,
            "time": 4.4736775,
            "velocity": 0.3937007874015748
          },
          {
            "duration": 0.13157875000000008,
            "durationTicks": 96,
            "midi": 60,
            "name": "C4",
            "ticks": 3456,
            "time": 4.736835,
            "velocity": 0.3937007874015748
          },
          {
            "duration": 0.13157875000000008,
            "durationTicks": 96,
            "midi": 84,
            "name": "C6",
            "ticks": 3648,
            "time": 4.999992499999999,
            "velocity": 0.3937007874015748
          },
          {
            "duration": 0.13157875000000008,
            "durationTicks": 96,
            "midi": 79,
            "name": "G5",
            "ticks": 3648,
            "time": 4.999992499999999,
            "velocity": 0.3937007874015748
          },
          {
            "duration": 0.13157875000000008,
            "durationTicks": 96,
            "midi": 75,
            "name": "D#5",
            "ticks": 3648,
            "time": 4.999992499999999,
            "velocity": 0.3937007874015748
          },
          {
            "duration": 0.13157875000000008,
            "durationTicks": 96,
            "midi": 63,
            "name": "D#4",
            "ticks": 3840,
            "time": 5.2631499999999996,
            "velocity": 0.3937007874015748
          },
          {
            "duration": 0.13157875000000008,
            "durationTicks": 96,
            "midi": 79,
            "name": "G5",
            "ticks": 4032,
            "time": 5.5263075,
            "velocity": 0.3937007874015748
          },
          {
            "duration": 0.13157875000000008,
            "durationTicks": 96,
            "midi": 75,
            "name": "D#5",
            "ticks": 4032,
            "time": 5.5263075,
            "velocity": 0.3937007874015748
          },
          {
            "duration": 0.13157875000000008,
            "durationTicks": 96,
            "midi": 70,
            "name": "A#4",
            "ticks": 4032,
            "time": 5.5263075,
            "velocity": 0.3937007874015748
          },
          {
            "duration": 0.13157875000000008,
            "durationTicks": 96,
            "midi": 63,
            "name": "D#4",
            "ticks": 4224,
            "time": 5.789465,
            "velocity": 0.3937007874015748
          },
          {
            "duration": 0.13157875000000008,
            "durationTicks": 96,
            "midi": 75,
            "name": "D#5",
            "ticks": 4416,
            "time": 6.0526225,
            "velocity": 0.3937007874015748
          },
          {
            "duration": 0.13157875000000008,
            "durationTicks": 96,
            "midi": 79,
            "name": "G5",
            "ticks": 4416,
            "time": 6.0526225,
            "velocity": 0.3937007874015748
          },
          {
            "duration": 0.13157875000000008,
            "durationTicks": 96,
            "midi": 70,
            "name": "A#4",
            "ticks": 4416,
            "time": 6.0526225,
            "velocity": 0.3937007874015748
          },
          {
            "duration": 0.1315787499999992,
            "durationTicks": 96,
            "midi": 56,
            "name": "G#3",
            "ticks": 4608,
            "time": 6.31578,
            "velocity": 0.3937007874015748
          },
          {
            "duration": 0.13157875000000008,
            "durationTicks": 96,
            "midi": 75,
            "name": "D#5",
            "ticks": 4800,
            "time": 6.578937499999999,
            "velocity": 0.3937007874015748
          },
          {
            "duration": 0.13157875000000008,
            "durationTicks": 96,
            "midi": 72,
            "name": "C5",
            "ticks": 4800,
            "time": 6.578937499999999,
            "velocity": 0.3937007874015748
          },
          {
            "duration": 0.13157875000000008,
            "durationTicks": 96,
            "midi": 80,
            "name": "G#5",
            "ticks": 4800,
            "time": 6.578937499999999,
            "velocity": 0.3937007874015748
          },
          {
            "duration": 0.13157875000000008,
            "durationTicks": 96,
            "midi": 56,
            "name": "G#3",
            "ticks": 4992,
            "time": 6.842095,
            "velocity": 0.3937007874015748
          },
          {
            "duration": 0.13157875000000008,
            "durationTicks": 96,
            "midi": 80,
            "name": "G#5",
            "ticks": 5184,
            "time": 7.1052525,
            "velocity": 0.3937007874015748
          },
          {
            "duration": 0.13157875000000008,
            "durationTicks": 96,
            "midi": 72,
            "name": "C5",
            "ticks": 5184,
            "time": 7.1052525,
            "velocity": 0.3937007874015748
          },
          {
            "duration": 0.13157875000000008,
            "durationTicks": 96,
            "midi": 75,
            "name": "D#5",
            "ticks": 5184,
            "time": 7.1052525,
            "velocity": 0.3937007874015748
          },
          {
            "duration": 0.13157875000000008,
            "durationTicks": 96,
            "midi": 55,
            "name": "G3",
            "ticks": 5376,
            "time": 7.36841,
            "velocity": 0.3937007874015748
          },
          {
            "duration": 0.1315787499999992,
            "durationTicks": 96,
            "midi": 71,
            "name": "B4",
            "ticks": 5568,
            "time": 7.6315675,
            "velocity": 0.3937007874015748
          },
          {
            "duration": 0.1315787499999992,
            "durationTicks": 96,
            "midi": 79,
            "name": "G5",
            "ticks": 5568,
            "time": 7.6315675,
            "velocity": 0.3937007874015748
          },
          {
            "duration": 0.1315787499999992,
            "durationTicks": 96,
            "midi": 74,
            "name": "D5",
            "ticks": 5568,
            "time": 7.6315675,
            "velocity": 0.3937007874015748
          },
          {
            "duration": 0.13157875000000097,
            "durationTicks": 96,
            "midi": 55,
            "name": "G3",
            "ticks": 5760,
            "time": 7.894724999999999,
            "velocity": 0.3937007874015748
          },
          {
            "duration": 0.13157875000000097,
            "durationTicks": 96,
            "midi": 74,
            "name": "D5",
            "ticks": 5952,
            "time": 8.1578825,
            "velocity": 0.3937007874015748
          },
          {
            "duration": 0.13157875000000097,
            "durationTicks": 96,
            "midi": 71,
            "name": "B4",
            "ticks": 5952,
            "time": 8.1578825,
            "velocity": 0.3937007874015748
          },
          {
            "duration": 0.13157875000000097,
            "durationTicks": 96,
            "midi": 79,
            "name": "G5",
            "ticks": 5952,
            "time": 8.1578825,
            "velocity": 0.3937007874015748
          },
          {
            "duration": 0.1315787499999992,
            "durationTicks": 96,
            "midi": 53,
            "name": "F3",
            "ticks": 6144,
            "time": 8.42104,
            "velocity": 0.3937007874015748
          },
          {
            "duration": 0.1315787499999992,
            "durationTicks": 96,
            "midi": 68,
            "name": "G#4",
            "ticks": 6336,
            "time": 8.6841975,
            "velocity": 0.3937007874015748
          },
          {
            "duration": 0.1315787499999992,
            "durationTicks": 96,
            "midi": 65,
            "name": "F4",
            "ticks": 6336,
            "time": 8.6841975,
            "velocity": 0.3937007874015748
          },
          {
            "duration": 0.1315787499999992,
            "durationTicks": 96,
            "midi": 72,
            "name": "C5",
            "ticks": 6336,
            "time": 8.6841975,
            "velocity": 0.3937007874015748
          },
          {
            "duration": 0.1315787499999992,
            "durationTicks": 96,
            "midi": 53,
            "name": "F3",
            "ticks": 6528,
            "time": 8.947355,
            "velocity": 0.3937007874015748
          },
          {
            "duration": 0.1315787499999992,
            "durationTicks": 96,
            "midi": 65,
            "name": "F4",
            "ticks": 6720,
            "time": 9.2105125,
            "velocity": 0.3937007874015748
          },
          {
            "duration": 0.1315787499999992,
            "durationTicks": 96,
            "midi": 72,
            "name": "C5",
            "ticks": 6720,
            "time": 9.2105125,
            "velocity": 0.3937007874015748
          },
          {
            "duration": 0.1315787499999992,
            "durationTicks": 96,
            "midi": 68,
            "name": "G#4",
            "ticks": 6720,
            "time": 9.2105125,
            "velocity": 0.3937007874015748
          },
          {
            "duration": 0.1315787499999992,
            "durationTicks": 96,
            "midi": 51,
            "name": "D#3",
            "ticks": 6912,
            "time": 9.47367,
            "velocity": 0.3937007874015748
          },
          {
            "duration": 0.1315787499999992,
            "durationTicks": 96,
            "midi": 72,
            "name": "C5",
            "ticks": 7104,
            "time": 9.7368275,
            "velocity": 0.3937007874015748
          },
          {
            "duration": 0.1315787499999992,
            "durationTicks": 96,
            "midi": 68,
            "name": "G#4",
            "ticks": 7104,
            "time": 9.7368275,
            "velocity": 0.3937007874015748
          },
          {
            "duration": 0.1315787499999992,
            "durationTicks": 96,
            "midi": 63,
            "name": "D#4",
            "ticks": 7104,
            "time": 9.7368275,
            "velocity": 0.3937007874015748
          },
          {
            "duration": 0.13157875000000097,
            "durationTicks": 96,
            "midi": 51,
            "name": "D#3",
            "ticks": 7296,
            "time": 9.999984999999999,
            "velocity": 0.3937007874015748
          },
          {
            "duration": 0.13157875000000097,
            "durationTicks": 96,
            "midi": 72,
            "name": "C5",
            "ticks": 7488,
            "time": 10.263142499999999,
            "velocity": 0.3937007874015748
          },
          {
            "duration": 0.13157875000000097,
            "durationTicks": 96,
            "midi": 68,
            "name": "G#4",
            "ticks": 7488,
            "time": 10.263142499999999,
            "velocity": 0.3937007874015748
          },
          {
            "duration": 0.13157875000000097,
            "durationTicks": 96,
            "midi": 63,
            "name": "D#4",
            "ticks": 7488,
            "time": 10.263142499999999,
            "velocity": 0.3937007874015748
          },
          {
            "duration": 0.13157875000000097,
            "durationTicks": 96,
            "midi": 50,
            "name": "D3",
            "ticks": 7680,
            "time": 10.526299999999999,
            "velocity": 0.3937007874015748
          },
          {
            "duration": 0.13157875000000097,
            "durationTicks": 96,
            "midi": 66,
            "name": "F#4",
            "ticks": 7872,
            "time": 10.7894575,
            "velocity": 0.3937007874015748
          },
          {
            "duration": 0.13157875000000097,
            "durationTicks": 96,
            "midi": 69,
            "name": "A4",
            "ticks": 7872,
            "time": 10.7894575,
            "velocity": 0.3937007874015748
          },
          {
            "duration": 0.13157875000000097,
            "durationTicks": 96,
            "midi": 72,
            "name": "C5",
            "ticks": 7872,
            "time": 10.7894575,
            "velocity": 0.3937007874015748
          },
          {
            "duration": 0.13157875000000097,
            "durationTicks": 96,
            "midi": 50,
            "name": "D3",
            "ticks": 8064,
            "time": 11.052615,
            "velocity": 0.3937007874015748
          },
          {
            "duration": 0.1315787499999992,
            "durationTicks": 96,
            "midi": 72,
            "name": "C5",
            "ticks": 8256,
            "time": 11.3157725,
            "velocity": 0.3937007874015748
          },
          {
            "duration": 0.1315787499999992,
            "durationTicks": 96,
            "midi": 66,
            "name": "F#4",
            "ticks": 8256,
            "time": 11.3157725,
            "velocity": 0.3937007874015748
          },
          {
            "duration": 0.1315787499999992,
            "durationTicks": 96,
            "midi": 69,
            "name": "A4",
            "ticks": 8256,
            "time": 11.3157725,
            "velocity": 0.3937007874015748
          },
          {
            "duration": 0.1315787499999992,
            "durationTicks": 96,
            "midi": 55,
            "name": "G3",
            "ticks": 8448,
            "time": 11.57893,
            "velocity": 0.3937007874015748
          },
          {
            "duration": 0.1315787499999992,
            "durationTicks": 96,
            "midi": 65,
            "name": "F4",
            "ticks": 8640,
            "time": 11.8420875,
            "velocity": 0.3937007874015748
          },
          {
            "duration": 0.1315787499999992,
            "durationTicks": 96,
            "midi": 71,
            "name": "B4",
            "ticks": 8640,
            "time": 11.8420875,
            "velocity": 0.3937007874015748
          },
          {
            "duration": 0.1315787499999992,
            "durationTicks": 96,
            "midi": 74,
            "name": "D5",
            "ticks": 8640,
            "time": 11.8420875,
            "velocity": 0.3937007874015748
          },
          {
            "duration": 0.1315787499999992,
            "durationTicks": 96,
            "midi": 55,
            "name": "G3",
            "ticks": 8832,
            "time": 12.105245,
            "velocity": 0.3937007874015748
          },
          {
            "duration": 0.1315787499999992,
            "durationTicks": 96,
            "midi": 74,
            "name": "D5",
            "ticks": 9024,
            "time": 12.3684025,
            "velocity": 0.3937007874015748
          },
          {
            "duration": 0.1315787499999992,
            "durationTicks": 96,
            "midi": 65,
            "name": "F4",
            "ticks": 9024,
            "time": 12.3684025,
            "velocity": 0.3937007874015748
          },
          {
            "duration": 0.1315787499999992,
            "durationTicks": 96,
            "midi": 71,
            "name": "B4",
            "ticks": 9024,
            "time": 12.3684025,
            "velocity": 0.3937007874015748
          },
          {
            "duration": 0.1315787499999992,
            "durationTicks": 96,
            "midi": 60,
            "name": "C4",
            "ticks": 9216,
            "time": 12.63156,
            "velocity": 0.3937007874015748
          },
          {
            "duration": 0.13157875000000097,
            "durationTicks": 96,
            "midi": 84,
            "name": "C6",
            "ticks": 9408,
            "time": 12.894717499999999,
            "velocity": 0.3937007874015748
          },
          {
            "duration": 0.13157875000000097,
            "durationTicks": 96,
            "midi": 79,
            "name": "G5",
            "ticks": 9408,
            "time": 12.894717499999999,
            "velocity": 0.3937007874015748
          },
          {
            "duration": 0.13157875000000097,
            "durationTicks": 96,
            "midi": 75,
            "name": "D#5",
            "ticks": 9408,
            "time": 12.894717499999999,
            "velocity": 0.3937007874015748
          },
          {
            "duration": 0.13157875000000097,
            "durationTicks": 96,
            "midi": 60,
            "name": "C4",
            "ticks": 9600,
            "time": 13.157874999999999,
            "velocity": 0.3937007874015748
          },
          {
            "duration": 0.13157875000000097,
            "durationTicks": 96,
            "midi": 75,
            "name": "D#5",
            "ticks": 9792,
            "time": 13.421032499999999,
            "velocity": 0.3937007874015748
          },
          {
            "duration": 0.13157875000000097,
            "durationTicks": 96,
            "midi": 84,
            "name": "C6",
            "ticks": 9792,
            "time": 13.421032499999999,
            "velocity": 0.3937007874015748
          },
          {
            "duration": 0.13157875000000097,
            "durationTicks": 96,
            "midi": 79,
            "name": "G5",
            "ticks": 9792,
            "time": 13.421032499999999,
            "velocity": 0.3937007874015748
          },
          {
            "duration": 0.13157875000000097,
            "durationTicks": 96,
            "midi": 63,
            "name": "D#4",
            "ticks": 9984,
            "time": 13.68419,
            "velocity": 0.3937007874015748
          },
          {
            "duration": 0.1315787499999992,
            "durationTicks": 96,
            "midi": 75,
            "name": "D#5",
            "ticks": 10176,
            "time": 13.9473475,
            "velocity": 0.3937007874015748
          },
          {
            "duration": 0.1315787499999992,
            "durationTicks": 96,
            "midi": 70,
            "name": "A#4",
            "ticks": 10176,
            "time": 13.9473475,
            "velocity": 0.3937007874015748
          },
          {
            "duration": 0.1315787499999992,
            "durationTicks": 96,
            "midi": 79,
            "name": "G5",
            "ticks": 10176,
            "time": 13.9473475,
            "velocity": 0.3937007874015748
          },
          {
            "duration": 0.1315787499999992,
            "durationTicks": 96,
            "midi": 63,
            "name": "D#4",
            "ticks": 10368,
            "time": 14.210505,
            "velocity": 0.3937007874015748
          },
          {
            "duration": 0.1315787499999992,
            "durationTicks": 96,
            "midi": 75,
            "name": "D#5",
            "ticks": 10560,
            "time": 14.4736625,
            "velocity": 0.3937007874015748
          },
          {
            "duration": 0.1315787499999992,
            "durationTicks": 96,
            "midi": 79,
            "name": "G5",
            "ticks": 10560,
            "time": 14.4736625,
            "velocity": 0.3937007874015748
          },
          {
            "duration": 0.1315787499999992,
            "durationTicks": 96,
            "midi": 70,
            "name": "A#4",
            "ticks": 10560,
            "time": 14.4736625,
            "velocity": 0.3937007874015748
          },
          {
            "duration": 0.1315787499999992,
            "durationTicks": 96,
            "midi": 56,
            "name": "G#3",
            "ticks": 10752,
            "time": 14.73682,
            "velocity": 0.3937007874015748
          },
          {
            "duration": 0.1315787499999992,
            "durationTicks": 96,
            "midi": 80,
            "name": "G#5",
            "ticks": 10944,
            "time": 14.9999775,
            "velocity": 0.3937007874015748
          },
          {
            "duration": 0.1315787499999992,
            "durationTicks": 96,
            "midi": 75,
            "name": "D#5",
            "ticks": 10944,
            "time": 14.9999775,
            "velocity": 0.3937007874015748
          },
          {
            "duration": 0.1315787499999992,
            "durationTicks": 96,
            "midi": 72,
            "name": "C5",
            "ticks": 10944,
            "time": 14.9999775,
            "velocity": 0.3937007874015748
          },
          {
            "duration": 0.1315787499999992,
            "durationTicks": 96,
            "midi": 56,
            "name": "G#3",
            "ticks": 11136,
            "time": 15.263135,
            "velocity": 0.3937007874015748
          },
          {
            "duration": 0.13157875000000097,
            "durationTicks": 96,
            "midi": 75,
            "name": "D#5",
            "ticks": 11328,
            "time": 15.526292499999998,
            "velocity": 0.3937007874015748
          },
          {
            "duration": 0.13157875000000097,
            "durationTicks": 96,
            "midi": 72,
            "name": "C5",
            "ticks": 11328,
            "time": 15.526292499999998,
            "velocity": 0.3937007874015748
          },
          {
            "duration": 0.13157875000000097,
            "durationTicks": 96,
            "midi": 80,
            "name": "G#5",
            "ticks": 11328,
            "time": 15.526292499999998,
            "velocity": 0.3937007874015748
          },
          {
            "duration": 0.13157875000000097,
            "durationTicks": 96,
            "midi": 55,
            "name": "G3",
            "ticks": 11520,
            "time": 15.789449999999999,
            "velocity": 0.3937007874015748
          },
          {
            "duration": 0.1315787499999992,
            "durationTicks": 96,
            "midi": 71,
            "name": "B4",
            "ticks": 11712,
            "time": 16.0526075,
            "velocity": 0.3937007874015748
          },
          {
            "duration": 0.1315787499999992,
            "durationTicks": 96,
            "midi": 79,
            "name": "G5",
            "ticks": 11712,
            "time": 16.0526075,
            "velocity": 0.3937007874015748
          },
          {
            "duration": 0.1315787499999992,
            "durationTicks": 96,
            "midi": 74,
            "name": "D5",
            "ticks": 11712,
            "time": 16.0526075,
            "velocity": 0.3937007874015748
          },
          {
            "duration": 0.1315787499999992,
            "durationTicks": 96,
            "midi": 55,
            "name": "G3",
            "ticks": 11904,
            "time": 16.315765,
            "velocity": 0.3937007874015748
          },
          {
            "duration": 0.1315787499999992,
            "durationTicks": 96,
            "midi": 71,
            "name": "B4",
            "ticks": 12096,
            "time": 16.5789225,
            "velocity": 0.3937007874015748
          },
          {
            "duration": 0.1315787499999992,
            "durationTicks": 96,
            "midi": 74,
            "name": "D5",
            "ticks": 12096,
            "time": 16.5789225,
            "velocity": 0.3937007874015748
          },
          {
            "duration": 0.1315787499999992,
            "durationTicks": 96,
            "midi": 79,
            "name": "G5",
            "ticks": 12096,
            "time": 16.5789225,
            "velocity": 0.3937007874015748
          },
          {
            "duration": 0.1315787499999992,
            "durationTicks": 96,
            "midi": 60,
            "name": "C4",
            "ticks": 12288,
            "time": 16.84208,
            "velocity": 0.3937007874015748
          },
          {
            "duration": 0.13157875000000274,
            "durationTicks": 96,
            "midi": 84,
            "name": "C6",
            "ticks": 12480,
            "time": 17.105237499999998,
            "velocity": 0.3937007874015748
          },
          {
            "duration": 0.13157875000000274,
            "durationTicks": 96,
            "midi": 79,
            "name": "G5",
            "ticks": 12480,
            "time": 17.105237499999998,
            "velocity": 0.3937007874015748
          },
          {
            "duration": 0.13157875000000274,
            "durationTicks": 96,
            "midi": 75,
            "name": "D#5",
            "ticks": 12480,
            "time": 17.105237499999998,
            "velocity": 0.3937007874015748
          },
          {
            "duration": 0.1315787499999992,
            "durationTicks": 96,
            "midi": 60,
            "name": "C4",
            "ticks": 12672,
            "time": 17.368395,
            "velocity": 0.3937007874015748
          },
          {
            "duration": 0.13157875000000274,
            "durationTicks": 96,
            "midi": 75,
            "name": "D#5",
            "ticks": 12864,
            "time": 17.631552499999998,
            "velocity": 0.3937007874015748
          },
          {
            "duration": 0.13157875000000274,
            "durationTicks": 96,
            "midi": 84,
            "name": "C6",
            "ticks": 12864,
            "time": 17.631552499999998,
            "velocity": 0.3937007874015748
          },
          {
            "duration": 0.13157875000000274,
            "durationTicks": 96,
            "midi": 79,
            "name": "G5",
            "ticks": 12864,
            "time": 17.631552499999998,
            "velocity": 0.3937007874015748
          },
          {
            "duration": 0.1315787499999992,
            "durationTicks": 96,
            "midi": 63,
            "name": "D#4",
            "ticks": 13056,
            "time": 17.89471,
            "velocity": 0.3937007874015748
          },
          {
            "duration": 0.1315787499999992,
            "durationTicks": 96,
            "midi": 70,
            "name": "A#4",
            "ticks": 13248,
            "time": 18.1578675,
            "velocity": 0.3937007874015748
          },
          {
            "duration": 0.1315787499999992,
            "durationTicks": 96,
            "midi": 75,
            "name": "D#5",
            "ticks": 13248,
            "time": 18.1578675,
            "velocity": 0.3937007874015748
          },
          {
            "duration": 0.1315787499999992,
            "durationTicks": 96,
            "midi": 79,
            "name": "G5",
            "ticks": 13248,
            "time": 18.1578675,
            "velocity": 0.3937007874015748
          },
          {
            "duration": 0.1315787499999992,
            "durationTicks": 96,
            "midi": 63,
            "name": "D#4",
            "ticks": 13440,
            "time": 18.421025,
            "velocity": 0.3937007874015748
          },
          {
            "duration": 0.1315787499999992,
            "durationTicks": 96,
            "midi": 70,
            "name": "A#4",
            "ticks": 13632,
            "time": 18.6841825,
            "velocity": 0.3937007874015748
          },
          {
            "duration": 0.1315787499999992,
            "durationTicks": 96,
            "midi": 75,
            "name": "D#5",
            "ticks": 13632,
            "time": 18.6841825,
            "velocity": 0.3937007874015748
          },
          {
            "duration": 0.1315787499999992,
            "durationTicks": 96,
            "midi": 79,
            "name": "G5",
            "ticks": 13632,
            "time": 18.6841825,
            "velocity": 0.3937007874015748
          },
          {
            "duration": 0.1315787499999992,
            "durationTicks": 96,
            "midi": 56,
            "name": "G#3",
            "ticks": 13824,
            "time": 18.94734,
            "velocity": 0.3937007874015748
          },
          {
            "duration": 0.1315787499999992,
            "durationTicks": 96,
            "midi": 75,
            "name": "D#5",
            "ticks": 14016,
            "time": 19.2104975,
            "velocity": 0.3937007874015748
          },
          {
            "duration": 0.1315787499999992,
            "durationTicks": 96,
            "midi": 72,
            "name": "C5",
            "ticks": 14016,
            "time": 19.2104975,
            "velocity": 0.3937007874015748
          },
          {
            "duration": 0.1315787499999992,
            "durationTicks": 96,
            "midi": 80,
            "name": "G#5",
            "ticks": 14016,
            "time": 19.2104975,
            "velocity": 0.3937007874015748
          },
          {
            "duration": 0.1315787499999992,
            "durationTicks": 96,
            "midi": 56,
            "name": "G#3",
            "ticks": 14208,
            "time": 19.473655,
            "velocity": 0.3937007874015748
          },
          {
            "duration": 0.1315787499999992,
            "durationTicks": 96,
            "midi": 75,
            "name": "D#5",
            "ticks": 14400,
            "time": 19.7368125,
            "velocity": 0.3937007874015748
          },
          {
            "duration": 0.1315787499999992,
            "durationTicks": 96,
            "midi": 72,
            "name": "C5",
            "ticks": 14400,
            "time": 19.7368125,
            "velocity": 0.3937007874015748
          },
          {
            "duration": 0.1315787499999992,
            "durationTicks": 96,
            "midi": 80,
            "name": "G#5",
            "ticks": 14400,
            "time": 19.7368125,
            "velocity": 0.3937007874015748
          },
          {
            "duration": 0.13157875000000274,
            "durationTicks": 96,
            "midi": 55,
            "name": "G3",
            "ticks": 14592,
            "time": 19.999969999999998,
            "velocity": 0.3937007874015748
          },
          {
            "duration": 0.1315787499999992,
            "durationTicks": 96,
            "midi": 71,
            "name": "B4",
            "ticks": 14784,
            "time": 20.2631275,
            "velocity": 0.3937007874015748
          },
          {
            "duration": 0.1315787499999992,
            "durationTicks": 96,
            "midi": 74,
            "name": "D5",
            "ticks": 14784,
            "time": 20.2631275,
            "velocity": 0.3937007874015748
          },
          {
            "duration": 0.1315787499999992,
            "durationTicks": 96,
            "midi": 79,
            "name": "G5",
            "ticks": 14784,
            "time": 20.2631275,
            "velocity": 0.3937007874015748
          },
          {
            "duration": 0.13157875000000274,
            "durationTicks": 96,
            "midi": 55,
            "name": "G3",
            "ticks": 14976,
            "time": 20.526284999999998,
            "velocity": 0.3937007874015748
          },
          {
            "duration": 0.1315787499999992,
            "durationTicks": 96,
            "midi": 74,
            "name": "D5",
            "ticks": 15168,
            "time": 20.7894425,
            "velocity": 0.3937007874015748
          },
          {
            "duration": 0.1315787499999992,
            "durationTicks": 96,
            "midi": 79,
            "name": "G5",
            "ticks": 15168,
            "time": 20.7894425,
            "velocity": 0.3937007874015748
          },
          {
            "duration": 0.1315787499999992,
            "durationTicks": 96,
            "midi": 71,
            "name": "B4",
            "ticks": 15168,
            "time": 20.7894425,
            "velocity": 0.3937007874015748
          },
          {
            "duration": 0.1315787499999992,
            "durationTicks": 96,
            "midi": 60,
            "name": "C4",
            "ticks": 15360,
            "time": 21.052599999999998,
            "velocity": 0.3937007874015748
          },
          {
            "duration": 0.1315787499999992,
            "durationTicks": 96,
            "midi": 75,
            "name": "D#5",
            "ticks": 15552,
            "time": 21.3157575,
            "velocity": 0.3937007874015748
          },
          {
            "duration": 0.1315787499999992,
            "durationTicks": 96,
            "midi": 84,
            "name": "C6",
            "ticks": 15552,
            "time": 21.3157575,
            "velocity": 0.3937007874015748
          },
          {
            "duration": 0.1315787499999992,
            "durationTicks": 96,
            "midi": 79,
            "name": "G5",
            "ticks": 15552,
            "time": 21.3157575,
            "velocity": 0.3937007874015748
          },
          {
            "duration": 0.1315787499999992,
            "durationTicks": 96,
            "midi": 60,
            "name": "C4",
            "ticks": 15744,
            "time": 21.578915,
            "velocity": 0.3937007874015748
          },
          {
            "duration": 0.1315787499999992,
            "durationTicks": 96,
            "midi": 84,
            "name": "C6",
            "ticks": 15936,
            "time": 21.8420725,
            "velocity": 0.3937007874015748
          },
          {
            "duration": 0.1315787499999992,
            "durationTicks": 96,
            "midi": 75,
            "name": "D#5",
            "ticks": 15936,
            "time": 21.8420725,
            "velocity": 0.3937007874015748
          },
          {
            "duration": 0.1315787499999992,
            "durationTicks": 96,
            "midi": 79,
            "name": "G5",
            "ticks": 15936,
            "time": 21.8420725,
            "velocity": 0.3937007874015748
          },
          {
            "duration": 0.1315787499999992,
            "durationTicks": 96,
            "midi": 63,
            "name": "D#4",
            "ticks": 16128,
            "time": 22.10523,
            "velocity": 0.3937007874015748
          },
          {
            "duration": 0.1315787499999992,
            "durationTicks": 96,
            "midi": 79,
            "name": "G5",
            "ticks": 16320,
            "time": 22.3683875,
            "velocity": 0.3937007874015748
          },
          {
            "duration": 0.1315787499999992,
            "durationTicks": 96,
            "midi": 70,
            "name": "A#4",
            "ticks": 16320,
            "time": 22.3683875,
            "velocity": 0.3937007874015748
          },
          {
            "duration": 0.1315787499999992,
            "durationTicks": 96,
            "midi": 75,
            "name": "D#5",
            "ticks": 16320,
            "time": 22.3683875,
            "velocity": 0.3937007874015748
          },
          {
            "duration": 0.1315787499999992,
            "durationTicks": 96,
            "midi": 63,
            "name": "D#4",
            "ticks": 16512,
            "time": 22.631545,
            "velocity": 0.3937007874015748
          },
          {
            "duration": 0.13157875000000274,
            "durationTicks": 96,
            "midi": 70,
            "name": "A#4",
            "ticks": 16704,
            "time": 22.894702499999998,
            "velocity": 0.3937007874015748
          },
          {
            "duration": 0.13157875000000274,
            "durationTicks": 96,
            "midi": 75,
            "name": "D#5",
            "ticks": 16704,
            "time": 22.894702499999998,
            "velocity": 0.3937007874015748
          },
          {
            "duration": 0.13157875000000274,
            "durationTicks": 96,
            "midi": 79,
            "name": "G5",
            "ticks": 16704,
            "time": 22.894702499999998,
            "velocity": 0.3937007874015748
          },
          {
            "duration": 0.1315787499999992,
            "durationTicks": 96,
            "midi": 56,
            "name": "G#3",
            "ticks": 16896,
            "time": 23.15786,
            "velocity": 0.3937007874015748
          },
          {
            "duration": 0.13157875000000274,
            "durationTicks": 96,
            "midi": 72,
            "name": "C5",
            "ticks": 17088,
            "time": 23.421017499999998,
            "velocity": 0.3937007874015748
          },
          {
            "duration": 0.13157875000000274,
            "durationTicks": 96,
            "midi": 80,
            "name": "G#5",
            "ticks": 17088,
            "time": 23.421017499999998,
            "velocity": 0.3937007874015748
          },
          {
            "duration": 0.13157875000000274,
            "durationTicks": 96,
            "midi": 75,
            "name": "D#5",
            "ticks": 17088,
            "time": 23.421017499999998,
            "velocity": 0.3937007874015748
          },
          {
            "duration": 0.1315787499999992,
            "durationTicks": 96,
            "midi": 56,
            "name": "G#3",
            "ticks": 17280,
            "time": 23.684175,
            "velocity": 0.3937007874015748
          },
          {
            "duration": 0.1315787499999992,
            "durationTicks": 96,
            "midi": 72,
            "name": "C5",
            "ticks": 17472,
            "time": 23.947332499999998,
            "velocity": 0.3937007874015748
          },
          {
            "duration": 0.1315787499999992,
            "durationTicks": 96,
            "midi": 75,
            "name": "D#5",
            "ticks": 17472,
            "time": 23.947332499999998,
            "velocity": 0.3937007874015748
          },
          {
            "duration": 0.1315787499999992,
            "durationTicks": 96,
            "midi": 80,
            "name": "G#5",
            "ticks": 17472,
            "time": 23.947332499999998,
            "velocity": 0.3937007874015748
          },
          {
            "duration": 0.1315787499999992,
            "durationTicks": 96,
            "midi": 55,
            "name": "G3",
            "ticks": 17664,
            "time": 24.21049,
            "velocity": 0.3937007874015748
          },
          {
            "duration": 0.1315787499999992,
            "durationTicks": 96,
            "midi": 79,
            "name": "G5",
            "ticks": 17856,
            "time": 24.4736475,
            "velocity": 0.3937007874015748
          },
          {
            "duration": 0.1315787499999992,
            "durationTicks": 96,
            "midi": 74,
            "name": "D5",
            "ticks": 17856,
            "time": 24.4736475,
            "velocity": 0.3937007874015748
          },
          {
            "duration": 0.1315787499999992,
            "durationTicks": 96,
            "midi": 71,
            "name": "B4",
            "ticks": 17856,
            "time": 24.4736475,
            "velocity": 0.3937007874015748
          },
          {
            "duration": 0.1315787499999992,
            "durationTicks": 96,
            "midi": 55,
            "name": "G3",
            "ticks": 18048,
            "time": 24.736805,
            "velocity": 0.3937007874015748
          },
          {
            "duration": 0.1315787499999992,
            "durationTicks": 96,
            "midi": 79,
            "name": "G5",
            "ticks": 18240,
            "time": 24.9999625,
            "velocity": 0.3937007874015748
          },
          {
            "duration": 0.1315787499999992,
            "durationTicks": 96,
            "midi": 71,
            "name": "B4",
            "ticks": 18240,
            "time": 24.9999625,
            "velocity": 0.3937007874015748
          },
          {
            "duration": 0.1315787499999992,
            "durationTicks": 96,
            "midi": 74,
            "name": "D5",
            "ticks": 18240,
            "time": 24.9999625,
            "velocity": 0.3937007874015748
          },
          {
            "duration": 0.1315787499999992,
            "durationTicks": 96,
            "midi": 53,
            "name": "F3",
            "ticks": 18432,
            "time": 25.26312,
            "velocity": 0.3937007874015748
          },
          {
            "duration": 0.1315787499999992,
            "durationTicks": 96,
            "midi": 68,
            "name": "G#4",
            "ticks": 18624,
            "time": 25.5262775,
            "velocity": 0.3937007874015748
          },
          {
            "duration": 0.1315787499999992,
            "durationTicks": 96,
            "midi": 72,
            "name": "C5",
            "ticks": 18624,
            "time": 25.5262775,
            "velocity": 0.3937007874015748
          },
          {
            "duration": 0.1315787499999992,
            "durationTicks": 96,
            "midi": 65,
            "name": "F4",
            "ticks": 18624,
            "time": 25.5262775,
            "velocity": 0.3937007874015748
          },
          {
            "duration": 0.13157875000000274,
            "durationTicks": 96,
            "midi": 53,
            "name": "F3",
            "ticks": 18816,
            "time": 25.789434999999997,
            "velocity": 0.3937007874015748
          },
          {
            "duration": 0.1315787499999992,
            "durationTicks": 96,
            "midi": 72,
            "name": "C5",
            "ticks": 19008,
            "time": 26.0525925,
            "velocity": 0.3937007874015748
          },
          {
            "duration": 0.1315787499999992,
            "durationTicks": 96,
            "midi": 68,
            "name": "G#4",
            "ticks": 19008,
            "time": 26.0525925,
            "velocity": 0.3937007874015748
          },
          {
            "duration": 0.1315787499999992,
            "durationTicks": 96,
            "midi": 65,
            "name": "F4",
            "ticks": 19008,
            "time": 26.0525925,
            "velocity": 0.3937007874015748
          },
          {
            "duration": 0.13157875000000274,
            "durationTicks": 96,
            "midi": 51,
            "name": "D#3",
            "ticks": 19200,
            "time": 26.315749999999998,
            "velocity": 0.3937007874015748
          },
          {
            "duration": 0.1315787499999992,
            "durationTicks": 96,
            "midi": 63,
            "name": "D#4",
            "ticks": 19392,
            "time": 26.5789075,
            "velocity": 0.3937007874015748
          },
          {
            "duration": 0.1315787499999992,
            "durationTicks": 96,
            "midi": 72,
            "name": "C5",
            "ticks": 19392,
            "time": 26.5789075,
            "velocity": 0.3937007874015748
          },
          {
            "duration": 0.1315787499999992,
            "durationTicks": 96,
            "midi": 68,
            "name": "G#4",
            "ticks": 19392,
            "time": 26.5789075,
            "velocity": 0.3937007874015748
          },
          {
            "duration": 0.1315787499999992,
            "durationTicks": 96,
            "midi": 51,
            "name": "D#3",
            "ticks": 19584,
            "time": 26.842064999999998,
            "velocity": 0.3937007874015748
          },
          {
            "duration": 0.1315787499999992,
            "durationTicks": 96,
            "midi": 68,
            "name": "G#4",
            "ticks": 19776,
            "time": 27.1052225,
            "velocity": 0.3937007874015748
          },
          {
            "duration": 0.1315787499999992,
            "durationTicks": 96,
            "midi": 63,
            "name": "D#4",
            "ticks": 19776,
            "time": 27.1052225,
            "velocity": 0.3937007874015748
          },
          {
            "duration": 0.1315787499999992,
            "durationTicks": 96,
            "midi": 72,
            "name": "C5",
            "ticks": 19776,
            "time": 27.1052225,
            "velocity": 0.3937007874015748
          },
          {
            "duration": 0.1315787499999992,
            "durationTicks": 96,
            "midi": 50,
            "name": "D3",
            "ticks": 19968,
            "time": 27.36838,
            "velocity": 0.3937007874015748
          },
          {
            "duration": 0.1315787499999992,
            "durationTicks": 96,
            "midi": 69,
            "name": "A4",
            "ticks": 20160,
            "time": 27.6315375,
            "velocity": 0.3937007874015748
          },
          {
            "duration": 0.1315787499999992,
            "durationTicks": 96,
            "midi": 72,
            "name": "C5",
            "ticks": 20160,
            "time": 27.6315375,
            "velocity": 0.3937007874015748
          },
          {
            "duration": 0.1315787499999992,
            "durationTicks": 96,
            "midi": 66,
            "name": "F#4",
            "ticks": 20160,
            "time": 27.6315375,
            "velocity": 0.3937007874015748
          },
          {
            "duration": 0.1315787499999992,
            "durationTicks": 96,
            "midi": 50,
            "name": "D3",
            "ticks": 20352,
            "time": 27.894695,
            "velocity": 0.3937007874015748
          },
          {
            "duration": 0.13157875000000274,
            "durationTicks": 96,
            "midi": 66,
            "name": "F#4",
            "ticks": 20544,
            "time": 28.157852499999997,
            "velocity": 0.3937007874015748
          },
          {
            "duration": 0.13157875000000274,
            "durationTicks": 96,
            "midi": 69,
            "name": "A4",
            "ticks": 20544,
            "time": 28.157852499999997,
            "velocity": 0.3937007874015748
          },
          {
            "duration": 0.13157875000000274,
            "durationTicks": 96,
            "midi": 72,
            "name": "C5",
            "ticks": 20544,
            "time": 28.157852499999997,
            "velocity": 0.3937007874015748
          },
          {
            "duration": 0.1315787499999992,
            "durationTicks": 96,
            "midi": 55,
            "name": "G3",
            "ticks": 20736,
            "time": 28.42101,
            "velocity": 0.3937007874015748
          },
          {
            "duration": 0.13157875000000274,
            "durationTicks": 96,
            "midi": 74,
            "name": "D5",
            "ticks": 20928,
            "time": 28.684167499999997,
            "velocity": 0.3937007874015748
          },
          {
            "duration": 0.13157875000000274,
            "durationTicks": 96,
            "midi": 71,
            "name": "B4",
            "ticks": 20928,
            "time": 28.684167499999997,
            "velocity": 0.3937007874015748
          },
          {
            "duration": 0.13157875000000274,
            "durationTicks": 96,
            "midi": 65,
            "name": "F4",
            "ticks": 20928,
            "time": 28.684167499999997,
            "velocity": 0.3937007874015748
          },
          {
            "duration": 0.1315787499999992,
            "durationTicks": 96,
            "midi": 55,
            "name": "G3",
            "ticks": 21120,
            "time": 28.947325,
            "velocity": 0.3937007874015748
          },
          {
            "duration": 0.13157875000000274,
            "durationTicks": 96,
            "midi": 71,
            "name": "B4",
            "ticks": 21312,
            "time": 29.210482499999998,
            "velocity": 0.3937007874015748
          },
          {
            "duration": 0.13157875000000274,
            "durationTicks": 96,
            "midi": 74,
            "name": "D5",
            "ticks": 21312,
            "time": 29.210482499999998,
            "velocity": 0.3937007874015748
          },
          {
            "duration": 0.13157875000000274,
            "durationTicks": 96,
            "midi": 65,
            "name": "F4",
            "ticks": 21312,
            "time": 29.210482499999998,
            "velocity": 0.3937007874015748
          },
          {
            "duration": 0.1315787499999992,
            "durationTicks": 96,
            "midi": 60,
            "name": "C4",
            "ticks": 21504,
            "time": 29.47364,
            "velocity": 0.3937007874015748
          },
          {
            "duration": 0.1315787499999992,
            "durationTicks": 96,
            "midi": 84,
            "name": "C6",
            "ticks": 21696,
            "time": 29.736797499999998,
            "velocity": 0.3937007874015748
          },
          {
            "duration": 0.1315787499999992,
            "durationTicks": 96,
            "midi": 79,
            "name": "G5",
            "ticks": 21696,
            "time": 29.736797499999998,
            "velocity": 0.3937007874015748
          },
          {
            "duration": 0.1315787499999992,
            "durationTicks": 96,
            "midi": 75,
            "name": "D#5",
            "ticks": 21696,
            "time": 29.736797499999998,
            "velocity": 0.3937007874015748
          },
          {
            "duration": 0.1315787499999992,
            "durationTicks": 96,
            "midi": 60,
            "name": "C4",
            "ticks": 21888,
            "time": 29.999955,
            "velocity": 0.3937007874015748
          },
          {
            "duration": 0.1315787499999992,
            "durationTicks": 96,
            "midi": 75,
            "name": "D#5",
            "ticks": 22080,
            "time": 30.2631125,
            "velocity": 0.3937007874015748
          },
          {
            "duration": 0.1315787499999992,
            "durationTicks": 96,
            "midi": 84,
            "name": "C6",
            "ticks": 22080,
            "time": 30.2631125,
            "velocity": 0.3937007874015748
          },
          {
            "duration": 0.1315787499999992,
            "durationTicks": 96,
            "midi": 79,
            "name": "G5",
            "ticks": 22080,
            "time": 30.2631125,
            "velocity": 0.3937007874015748
          },
          {
            "duration": 0.1315787499999992,
            "durationTicks": 96,
            "midi": 63,
            "name": "D#4",
            "ticks": 22272,
            "time": 30.52627,
            "velocity": 0.3937007874015748
          },
          {
            "duration": 0.1315787499999992,
            "durationTicks": 96,
            "midi": 70,
            "name": "A#4",
            "ticks": 22464,
            "time": 30.7894275,
            "velocity": 0.3937007874015748
          },
          {
            "duration": 0.1315787499999992,
            "durationTicks": 96,
            "midi": 75,
            "name": "D#5",
            "ticks": 22464,
            "time": 30.7894275,
            "velocity": 0.3937007874015748
          },
          {
            "duration": 0.1315787499999992,
            "durationTicks": 96,
            "midi": 79,
            "name": "G5",
            "ticks": 22464,
            "time": 30.7894275,
            "velocity": 0.3937007874015748
          },
          {
            "duration": 0.13157875000000274,
            "durationTicks": 96,
            "midi": 63,
            "name": "D#4",
            "ticks": 22656,
            "time": 31.052584999999997,
            "velocity": 0.3937007874015748
          },
          {
            "duration": 0.1315787499999992,
            "durationTicks": 96,
            "midi": 70,
            "name": "A#4",
            "ticks": 22848,
            "time": 31.3157425,
            "velocity": 0.3937007874015748
          },
          {
            "duration": 0.1315787499999992,
            "durationTicks": 96,
            "midi": 79,
            "name": "G5",
            "ticks": 22848,
            "time": 31.3157425,
            "velocity": 0.3937007874015748
          },
          {
            "duration": 0.1315787499999992,
            "durationTicks": 96,
            "midi": 75,
            "name": "D#5",
            "ticks": 22848,
            "time": 31.3157425,
            "velocity": 0.3937007874015748
          },
          {
            "duration": 0.13157875000000274,
            "durationTicks": 96,
            "midi": 56,
            "name": "G#3",
            "ticks": 23040,
            "time": 31.578899999999997,
            "velocity": 0.3937007874015748
          },
          {
            "duration": 0.1315787499999992,
            "durationTicks": 96,
            "midi": 80,
            "name": "G#5",
            "ticks": 23232,
            "time": 31.8420575,
            "velocity": 0.3937007874015748
          },
          {
            "duration": 0.1315787499999992,
            "durationTicks": 96,
            "midi": 72,
            "name": "C5",
            "ticks": 23232,
            "time": 31.8420575,
            "velocity": 0.3937007874015748
          },
          {
            "duration": 0.1315787499999992,
            "durationTicks": 96,
            "midi": 75,
            "name": "D#5",
            "ticks": 23232,
            "time": 31.8420575,
            "velocity": 0.3937007874015748
          },
          {
            "duration": 0.13157874999999564,
            "durationTicks": 96,
            "midi": 56,
            "name": "G#3",
            "ticks": 23424,
            "time": 32.105215,
            "velocity": 0.3937007874015748
          },
          {
            "duration": 0.13157874999999564,
            "durationTicks": 96,
            "midi": 75,
            "name": "D#5",
            "ticks": 23616,
            "time": 32.3683725,
            "velocity": 0.3937007874015748
          },
          {
            "duration": 0.13157874999999564,
            "durationTicks": 96,
            "midi": 72,
            "name": "C5",
            "ticks": 23616,
            "time": 32.3683725,
            "velocity": 0.3937007874015748
          },
          {
            "duration": 0.13157874999999564,
            "durationTicks": 96,
            "midi": 80,
            "name": "G#5",
            "ticks": 23616,
            "time": 32.3683725,
            "velocity": 0.3937007874015748
          },
          {
            "duration": 0.13157875000000274,
            "durationTicks": 96,
            "midi": 31,
            "name": "G1",
            "ticks": 23808,
            "time": 32.63153,
            "velocity": 0.3937007874015748
          },
          {
            "duration": 0.13157875000000274,
            "durationTicks": 96,
            "midi": 43,
            "name": "G2",
            "ticks": 23808,
            "time": 32.63153,
            "velocity": 0.3937007874015748
          },
          {
            "duration": 0.13157875000000274,
            "durationTicks": 96,
            "midi": 55,
            "name": "G3",
            "ticks": 23808,
            "time": 32.63153,
            "velocity": 0.3937007874015748
          },
          {
            "duration": 0.13157875000000274,
            "durationTicks": 96,
            "midi": 74,
            "name": "D5",
            "ticks": 24000,
            "time": 32.894687499999996,
            "velocity": 0.3937007874015748
          },
          {
            "duration": 0.13157875000000274,
            "durationTicks": 96,
            "midi": 71,
            "name": "B4",
            "ticks": 24000,
            "time": 32.894687499999996,
            "velocity": 0.3937007874015748
          },
          {
            "duration": 0.13157875000000274,
            "durationTicks": 96,
            "midi": 79,
            "name": "G5",
            "ticks": 24000,
            "time": 32.894687499999996,
            "velocity": 0.3937007874015748
          },
          {
            "duration": 0.13157875000000274,
            "durationTicks": 96,
            "midi": 67,
            "name": "G4",
            "ticks": 80064,
            "time": 109.7366775,
            "velocity": 0.3937007874015748
          },
          {
            "duration": 0.13157875000000274,
            "durationTicks": 96,
            "midi": 63,
            "name": "D#4",
            "ticks": 80064,
            "time": 109.7366775,
            "velocity": 0.3937007874015748
          },
          {
            "duration": 0.13157875000000274,
            "durationTicks": 96,
            "midi": 60,
            "name": "C4",
            "ticks": 80064,
            "time": 109.7366775,
            "velocity": 0.3937007874015748
          },
          {
            "duration": 0.13157875000000274,
            "durationTicks": 96,
            "midi": 60,
            "name": "C4",
            "ticks": 80448,
            "time": 110.2629925,
            "velocity": 0.3937007874015748
          },
          {
            "duration": 0.13157875000000274,
            "durationTicks": 96,
            "midi": 63,
            "name": "D#4",
            "ticks": 80448,
            "time": 110.2629925,
            "velocity": 0.3937007874015748
          },
          {
            "duration": 0.13157875000000274,
            "durationTicks": 96,
            "midi": 67,
            "name": "G4",
            "ticks": 80448,
            "time": 110.2629925,
            "velocity": 0.3937007874015748
          },
          {
            "duration": 0.13157875000000274,
            "durationTicks": 96,
            "midi": 63,
            "name": "D#4",
            "ticks": 80832,
            "time": 110.78930749999999,
            "velocity": 0.3937007874015748
          },
          {
            "duration": 0.13157875000000274,
            "durationTicks": 96,
            "midi": 67,
            "name": "G4",
            "ticks": 80832,
            "time": 110.78930749999999,
            "velocity": 0.3937007874015748
          },
          {
            "duration": 0.13157875000000274,
            "durationTicks": 96,
            "midi": 58,
            "name": "A#3",
            "ticks": 80832,
            "time": 110.78930749999999,
            "velocity": 0.3937007874015748
          },
          {
            "duration": 0.13157875000000274,
            "durationTicks": 96,
            "midi": 63,
            "name": "D#4",
            "ticks": 81216,
            "time": 111.31562249999999,
            "velocity": 0.3937007874015748
          },
          {
            "duration": 0.13157875000000274,
            "durationTicks": 96,
            "midi": 67,
            "name": "G4",
            "ticks": 81216,
            "time": 111.31562249999999,
            "velocity": 0.3937007874015748
          },
          {
            "duration": 0.13157875000000274,
            "durationTicks": 96,
            "midi": 58,
            "name": "A#3",
            "ticks": 81216,
            "time": 111.31562249999999,
            "velocity": 0.3937007874015748
          },
          {
            "duration": 0.13157874999998853,
            "durationTicks": 96,
            "midi": 68,
            "name": "G#4",
            "ticks": 81600,
            "time": 111.8419375,
            "velocity": 0.3937007874015748
          },
          {
            "duration": 0.13157874999998853,
            "durationTicks": 96,
            "midi": 60,
            "name": "C4",
            "ticks": 81600,
            "time": 111.8419375,
            "velocity": 0.3937007874015748
          },
          {
            "duration": 0.13157874999998853,
            "durationTicks": 96,
            "midi": 63,
            "name": "D#4",
            "ticks": 81600,
            "time": 111.8419375,
            "velocity": 0.3937007874015748
          },
          {
            "duration": 0.13157875000000274,
            "durationTicks": 96,
            "midi": 63,
            "name": "D#4",
            "ticks": 81984,
            "time": 112.3682525,
            "velocity": 0.3937007874015748
          },
          {
            "duration": 0.13157875000000274,
            "durationTicks": 96,
            "midi": 60,
            "name": "C4",
            "ticks": 81984,
            "time": 112.3682525,
            "velocity": 0.3937007874015748
          },
          {
            "duration": 0.13157875000000274,
            "durationTicks": 96,
            "midi": 68,
            "name": "G#4",
            "ticks": 81984,
            "time": 112.3682525,
            "velocity": 0.3937007874015748
          },
          {
            "duration": 0.13157875000000274,
            "durationTicks": 96,
            "midi": 62,
            "name": "D4",
            "ticks": 82368,
            "time": 112.8945675,
            "velocity": 0.3937007874015748
          },
          {
            "duration": 0.13157875000000274,
            "durationTicks": 96,
            "midi": 67,
            "name": "G4",
            "ticks": 82368,
            "time": 112.8945675,
            "velocity": 0.3937007874015748
          },
          {
            "duration": 0.13157875000000274,
            "durationTicks": 96,
            "midi": 59,
            "name": "B3",
            "ticks": 82368,
            "time": 112.8945675,
            "velocity": 0.3937007874015748
          },
          {
            "duration": 0.13157875000000274,
            "durationTicks": 96,
            "midi": 59,
            "name": "B3",
            "ticks": 82752,
            "time": 113.42088249999999,
            "velocity": 0.3937007874015748
          },
          {
            "duration": 0.13157875000000274,
            "durationTicks": 96,
            "midi": 67,
            "name": "G4",
            "ticks": 82752,
            "time": 113.42088249999999,
            "velocity": 0.3937007874015748
          },
          {
            "duration": 0.13157875000000274,
            "durationTicks": 96,
            "midi": 62,
            "name": "D4",
            "ticks": 82752,
            "time": 113.42088249999999,
            "velocity": 0.3937007874015748
          },
          {
            "duration": 0.13157874999998853,
            "durationTicks": 96,
            "midi": 67,
            "name": "G4",
            "ticks": 83136,
            "time": 113.9471975,
            "velocity": 0.3937007874015748
          },
          {
            "duration": 0.13157874999998853,
            "durationTicks": 96,
            "midi": 63,
            "name": "D#4",
            "ticks": 83136,
            "time": 113.9471975,
            "velocity": 0.3937007874015748
          },
          {
            "duration": 0.13157874999998853,
            "durationTicks": 96,
            "midi": 60,
            "name": "C4",
            "ticks": 83136,
            "time": 113.9471975,
            "velocity": 0.3937007874015748
          },
          {
            "duration": 0.13157875000000274,
            "durationTicks": 96,
            "midi": 63,
            "name": "D#4",
            "ticks": 83520,
            "time": 114.4735125,
            "velocity": 0.3937007874015748
          },
          {
            "duration": 0.13157875000000274,
            "durationTicks": 96,
            "midi": 67,
            "name": "G4",
            "ticks": 83520,
            "time": 114.4735125,
            "velocity": 0.3937007874015748
          },
          {
            "duration": 0.13157875000000274,
            "durationTicks": 96,
            "midi": 60,
            "name": "C4",
            "ticks": 83520,
            "time": 114.4735125,
            "velocity": 0.3937007874015748
          },
          {
            "duration": 0.13157875000000274,
            "durationTicks": 96,
            "midi": 67,
            "name": "G4",
            "ticks": 83904,
            "time": 114.9998275,
            "velocity": 0.3937007874015748
          },
          {
            "duration": 0.13157875000000274,
            "durationTicks": 96,
            "midi": 63,
            "name": "D#4",
            "ticks": 83904,
            "time": 114.9998275,
            "velocity": 0.3937007874015748
          },
          {
            "duration": 0.13157875000000274,
            "durationTicks": 96,
            "midi": 58,
            "name": "A#3",
            "ticks": 83904,
            "time": 114.9998275,
            "velocity": 0.3937007874015748
          },
          {
            "duration": 0.13157875000000274,
            "durationTicks": 96,
            "midi": 63,
            "name": "D#4",
            "ticks": 84288,
            "time": 115.52614249999999,
            "velocity": 0.3937007874015748
          },
          {
            "duration": 0.13157875000000274,
            "durationTicks": 96,
            "midi": 58,
            "name": "A#3",
            "ticks": 84288,
            "time": 115.52614249999999,
            "velocity": 0.3937007874015748
          },
          {
            "duration": 0.13157875000000274,
            "durationTicks": 96,
            "midi": 67,
            "name": "G4",
            "ticks": 84288,
            "time": 115.52614249999999,
            "velocity": 0.3937007874015748
          },
          {
            "duration": 0.13157875000000274,
            "durationTicks": 96,
            "midi": 60,
            "name": "C4",
            "ticks": 84672,
            "time": 116.05245749999999,
            "velocity": 0.3937007874015748
          },
          {
            "duration": 0.13157875000000274,
            "durationTicks": 96,
            "midi": 68,
            "name": "G#4",
            "ticks": 84672,
            "time": 116.05245749999999,
            "velocity": 0.3937007874015748
          },
          {
            "duration": 0.13157875000000274,
            "durationTicks": 96,
            "midi": 63,
            "name": "D#4",
            "ticks": 84672,
            "time": 116.05245749999999,
            "velocity": 0.3937007874015748
          },
          {
            "duration": 0.13157874999998853,
            "durationTicks": 96,
            "midi": 68,
            "name": "G#4",
            "ticks": 85056,
            "time": 116.5787725,
            "velocity": 0.3937007874015748
          },
          {
            "duration": 0.13157874999998853,
            "durationTicks": 96,
            "midi": 63,
            "name": "D#4",
            "ticks": 85056,
            "time": 116.5787725,
            "velocity": 0.3937007874015748
          },
          {
            "duration": 0.13157874999998853,
            "durationTicks": 96,
            "midi": 60,
            "name": "C4",
            "ticks": 85056,
            "time": 116.5787725,
            "velocity": 0.3937007874015748
          },
          {
            "duration": 0.13157875000000274,
            "durationTicks": 96,
            "midi": 59,
            "name": "B3",
            "ticks": 85440,
            "time": 117.1050875,
            "velocity": 0.3937007874015748
          },
          {
            "duration": 0.13157875000000274,
            "durationTicks": 96,
            "midi": 67,
            "name": "G4",
            "ticks": 85440,
            "time": 117.1050875,
            "velocity": 0.3937007874015748
          },
          {
            "duration": 0.13157875000000274,
            "durationTicks": 96,
            "midi": 62,
            "name": "D4",
            "ticks": 85440,
            "time": 117.1050875,
            "velocity": 0.3937007874015748
          },
          {
            "duration": 0.13157875000000274,
            "durationTicks": 96,
            "midi": 62,
            "name": "D4",
            "ticks": 85824,
            "time": 117.6314025,
            "velocity": 0.3937007874015748
          },
          {
            "duration": 0.13157875000000274,
            "durationTicks": 96,
            "midi": 59,
            "name": "B3",
            "ticks": 85824,
            "time": 117.6314025,
            "velocity": 0.3937007874015748
          },
          {
            "duration": 0.13157875000000274,
            "durationTicks": 96,
            "midi": 67,
            "name": "G4",
            "ticks": 85824,
            "time": 117.6314025,
            "velocity": 0.3937007874015748
          },
          {
            "duration": 0.13157875000000274,
            "durationTicks": 96,
            "midi": 68,
            "name": "G#4",
            "ticks": 86208,
            "time": 118.15771749999999,
            "velocity": 0.3937007874015748
          },
          {
            "duration": 0.13157875000000274,
            "durationTicks": 96,
            "midi": 56,
            "name": "G#3",
            "ticks": 86208,
            "time": 118.15771749999999,
            "velocity": 0.3937007874015748
          },
          {
            "duration": 0.13157875000000274,
            "durationTicks": 96,
            "midi": 53,
            "name": "F3",
            "ticks": 86208,
            "time": 118.15771749999999,
            "velocity": 0.3937007874015748
          },
          {
            "duration": 0.13157875000000274,
            "durationTicks": 96,
            "midi": 60,
            "name": "C4",
            "ticks": 86208,
            "time": 118.15771749999999,
            "velocity": 0.3937007874015748
          },
          {
            "duration": 0.13157875000000274,
            "durationTicks": 96,
            "midi": 65,
            "name": "F4",
            "ticks": 86208,
            "time": 118.15771749999999,
            "velocity": 0.3937007874015748
          },
          {
            "duration": 0.13157874999998853,
            "durationTicks": 96,
            "midi": 65,
            "name": "F4",
            "ticks": 86592,
            "time": 118.6840325,
            "velocity": 0.3937007874015748
          },
          {
            "duration": 0.13157874999998853,
            "durationTicks": 96,
            "midi": 60,
            "name": "C4",
            "ticks": 86592,
            "time": 118.6840325,
            "velocity": 0.3937007874015748
          },
          {
            "duration": 0.13157874999998853,
            "durationTicks": 96,
            "midi": 56,
            "name": "G#3",
            "ticks": 86592,
            "time": 118.6840325,
            "velocity": 0.3937007874015748
          },
          {
            "duration": 0.13157874999998853,
            "durationTicks": 96,
            "midi": 68,
            "name": "G#4",
            "ticks": 86592,
            "time": 118.6840325,
            "velocity": 0.3937007874015748
          },
          {
            "duration": 0.13157874999998853,
            "durationTicks": 96,
            "midi": 53,
            "name": "F3",
            "ticks": 86592,
            "time": 118.6840325,
            "velocity": 0.3937007874015748
          },
          {
            "duration": 0.13157875000000274,
            "durationTicks": 96,
            "midi": 60,
            "name": "C4",
            "ticks": 86976,
            "time": 119.2103475,
            "velocity": 0.3937007874015748
          },
          {
            "duration": 0.13157875000000274,
            "durationTicks": 96,
            "midi": 63,
            "name": "D#4",
            "ticks": 86976,
            "time": 119.2103475,
            "velocity": 0.3937007874015748
          },
          {
            "duration": 0.13157875000000274,
            "durationTicks": 96,
            "midi": 68,
            "name": "G#4",
            "ticks": 86976,
            "time": 119.2103475,
            "velocity": 0.3937007874015748
          },
          {
            "duration": 0.13157875000000274,
            "durationTicks": 96,
            "midi": 51,
            "name": "D#3",
            "ticks": 86976,
            "time": 119.2103475,
            "velocity": 0.3937007874015748
          },
          {
            "duration": 0.13157875000000274,
            "durationTicks": 96,
            "midi": 56,
            "name": "G#3",
            "ticks": 86976,
            "time": 119.2103475,
            "velocity": 0.3937007874015748
          },
          {
            "duration": 0.13157875000000274,
            "durationTicks": 96,
            "midi": 63,
            "name": "D#4",
            "ticks": 87360,
            "time": 119.7366625,
            "velocity": 0.3937007874015748
          },
          {
            "duration": 0.13157875000000274,
            "durationTicks": 96,
            "midi": 60,
            "name": "C4",
            "ticks": 87360,
            "time": 119.7366625,
            "velocity": 0.3937007874015748
          },
          {
            "duration": 0.13157875000000274,
            "durationTicks": 96,
            "midi": 51,
            "name": "D#3",
            "ticks": 87360,
            "time": 119.7366625,
            "velocity": 0.3937007874015748
          },
          {
            "duration": 0.13157875000000274,
            "durationTicks": 96,
            "midi": 56,
            "name": "G#3",
            "ticks": 87360,
            "time": 119.7366625,
            "velocity": 0.3937007874015748
          },
          {
            "duration": 0.13157875000000274,
            "durationTicks": 96,
            "midi": 68,
            "name": "G#4",
            "ticks": 87360,
            "time": 119.7366625,
            "velocity": 0.3937007874015748
          },
          {
            "duration": 0.13157875000000274,
            "durationTicks": 96,
            "midi": 50,
            "name": "D3",
            "ticks": 87744,
            "time": 120.26297749999999,
            "velocity": 0.3937007874015748
          },
          {
            "duration": 0.13157875000000274,
            "durationTicks": 96,
            "midi": 62,
            "name": "D4",
            "ticks": 87744,
            "time": 120.26297749999999,
            "velocity": 0.3937007874015748
          },
          {
            "duration": 0.13157875000000274,
            "durationTicks": 96,
            "midi": 54,
            "name": "F#3",
            "ticks": 87744,
            "time": 120.26297749999999,
            "velocity": 0.3937007874015748
          },
          {
            "duration": 0.13157875000000274,
            "durationTicks": 96,
            "midi": 66,
            "name": "F#4",
            "ticks": 87744,
            "time": 120.26297749999999,
            "velocity": 0.3937007874015748
          },
          {
            "duration": 0.13157875000000274,
            "durationTicks": 96,
            "midi": 57,
            "name": "A3",
            "ticks": 87744,
            "time": 120.26297749999999,
            "velocity": 0.3937007874015748
          },
          {
            "duration": 0.13157875000000274,
            "durationTicks": 96,
            "midi": 62,
            "name": "D4",
            "ticks": 88128,
            "time": 120.78929249999999,
            "velocity": 0.3937007874015748
          },
          {
            "duration": 0.13157875000000274,
            "durationTicks": 96,
            "midi": 66,
            "name": "F#4",
            "ticks": 88128,
            "time": 120.78929249999999,
            "velocity": 0.3937007874015748
          },
          {
            "duration": 0.13157875000000274,
            "durationTicks": 96,
            "midi": 50,
            "name": "D3",
            "ticks": 88128,
            "time": 120.78929249999999,
            "velocity": 0.3937007874015748
          },
          {
            "duration": 0.13157875000000274,
            "durationTicks": 96,
            "midi": 57,
            "name": "A3",
            "ticks": 88128,
            "time": 120.78929249999999,
            "velocity": 0.3937007874015748
          },
          {
            "duration": 0.13157875000000274,
            "durationTicks": 96,
            "midi": 54,
            "name": "F#3",
            "ticks": 88128,
            "time": 120.78929249999999,
            "velocity": 0.3937007874015748
          },
          {
            "duration": 0.13157875000000274,
            "durationTicks": 96,
            "midi": 59,
            "name": "B3",
            "ticks": 88512,
            "time": 121.3156075,
            "velocity": 0.3937007874015748
          },
          {
            "duration": 0.13157875000000274,
            "durationTicks": 96,
            "midi": 65,
            "name": "F4",
            "ticks": 88512,
            "time": 121.3156075,
            "velocity": 0.3937007874015748
          },
          {
            "duration": 0.13157875000000274,
            "durationTicks": 96,
            "midi": 53,
            "name": "F3",
            "ticks": 88512,
            "time": 121.3156075,
            "velocity": 0.3937007874015748
          },
          {
            "duration": 0.13157875000000274,
            "durationTicks": 96,
            "midi": 62,
            "name": "D4",
            "ticks": 88512,
            "time": 121.3156075,
            "velocity": 0.3937007874015748
          },
          {
            "duration": 0.13157875000000274,
            "durationTicks": 96,
            "midi": 55,
            "name": "G3",
            "ticks": 88512,
            "time": 121.3156075,
            "velocity": 0.3937007874015748
          },
          {
            "duration": 0.13157875000000274,
            "durationTicks": 96,
            "midi": 65,
            "name": "F4",
            "ticks": 88896,
            "time": 121.8419225,
            "velocity": 0.3937007874015748
          },
          {
            "duration": 0.13157875000000274,
            "durationTicks": 96,
            "midi": 62,
            "name": "D4",
            "ticks": 88896,
            "time": 121.8419225,
            "velocity": 0.3937007874015748
          },
          {
            "duration": 0.13157875000000274,
            "durationTicks": 96,
            "midi": 59,
            "name": "B3",
            "ticks": 88896,
            "time": 121.8419225,
            "velocity": 0.3937007874015748
          },
          {
            "duration": 0.13157875000000274,
            "durationTicks": 96,
            "midi": 55,
            "name": "G3",
            "ticks": 88896,
            "time": 121.8419225,
            "velocity": 0.3937007874015748
          },
          {
            "duration": 0.13157875000000274,
            "durationTicks": 96,
            "midi": 53,
            "name": "F3",
            "ticks": 88896,
            "time": 121.8419225,
            "velocity": 0.3937007874015748
          },
          {
            "duration": 0.13157875000000274,
            "durationTicks": 96,
            "midi": 63,
            "name": "D#4",
            "ticks": 89280,
            "time": 122.36823749999999,
            "velocity": 0.3937007874015748
          },
          {
            "duration": 0.13157875000000274,
            "durationTicks": 96,
            "midi": 67,
            "name": "G4",
            "ticks": 89280,
            "time": 122.36823749999999,
            "velocity": 0.3937007874015748
          },
          {
            "duration": 0.13157875000000274,
            "durationTicks": 96,
            "midi": 60,
            "name": "C4",
            "ticks": 89280,
            "time": 122.36823749999999,
            "velocity": 0.3937007874015748
          },
          {
            "duration": 0.13157875000000274,
            "durationTicks": 96,
            "midi": 63,
            "name": "D#4",
            "ticks": 89664,
            "time": 122.89455249999999,
            "velocity": 0.3937007874015748
          },
          {
            "duration": 0.13157875000000274,
            "durationTicks": 96,
            "midi": 67,
            "name": "G4",
            "ticks": 89664,
            "time": 122.89455249999999,
            "velocity": 0.3937007874015748
          },
          {
            "duration": 0.13157875000000274,
            "durationTicks": 96,
            "midi": 60,
            "name": "C4",
            "ticks": 89664,
            "time": 122.89455249999999,
            "velocity": 0.3937007874015748
          },
          {
            "duration": 0.13157874999998853,
            "durationTicks": 96,
            "midi": 58,
            "name": "A#3",
            "ticks": 90048,
            "time": 123.4208675,
            "velocity": 0.3937007874015748
          },
          {
            "duration": 0.13157874999998853,
            "durationTicks": 96,
            "midi": 67,
            "name": "G4",
            "ticks": 90048,
            "time": 123.4208675,
            "velocity": 0.3937007874015748
          },
          {
            "duration": 0.13157874999998853,
            "durationTicks": 96,
            "midi": 63,
            "name": "D#4",
            "ticks": 90048,
            "time": 123.4208675,
            "velocity": 0.3937007874015748
          },
          {
            "duration": 0.13157875000000274,
            "durationTicks": 96,
            "midi": 67,
            "name": "G4",
            "ticks": 90432,
            "time": 123.9471825,
            "velocity": 0.3937007874015748
          },
          {
            "duration": 0.13157875000000274,
            "durationTicks": 96,
            "midi": 63,
            "name": "D#4",
            "ticks": 90432,
            "time": 123.9471825,
            "velocity": 0.3937007874015748
          },
          {
            "duration": 0.13157875000000274,
            "durationTicks": 96,
            "midi": 58,
            "name": "A#3",
            "ticks": 90432,
            "time": 123.9471825,
            "velocity": 0.3937007874015748
          },
          {
            "duration": 0.13157875000000274,
            "durationTicks": 96,
            "midi": 63,
            "name": "D#4",
            "ticks": 90816,
            "time": 124.4734975,
            "velocity": 0.3937007874015748
          },
          {
            "duration": 0.13157875000000274,
            "durationTicks": 96,
            "midi": 60,
            "name": "C4",
            "ticks": 90816,
            "time": 124.4734975,
            "velocity": 0.3937007874015748
          },
          {
            "duration": 0.13157875000000274,
            "durationTicks": 96,
            "midi": 68,
            "name": "G#4",
            "ticks": 90816,
            "time": 124.4734975,
            "velocity": 0.3937007874015748
          },
          {
            "duration": 0.13157875000000274,
            "durationTicks": 96,
            "midi": 68,
            "name": "G#4",
            "ticks": 91200,
            "time": 124.99981249999999,
            "velocity": 0.3937007874015748
          },
          {
            "duration": 0.13157875000000274,
            "durationTicks": 96,
            "midi": 63,
            "name": "D#4",
            "ticks": 91200,
            "time": 124.99981249999999,
            "velocity": 0.3937007874015748
          },
          {
            "duration": 0.13157875000000274,
            "durationTicks": 96,
            "midi": 60,
            "name": "C4",
            "ticks": 91200,
            "time": 124.99981249999999,
            "velocity": 0.3937007874015748
          },
          {
            "duration": 0.13157874999998853,
            "durationTicks": 96,
            "midi": 59,
            "name": "B3",
            "ticks": 91584,
            "time": 125.5261275,
            "velocity": 0.3937007874015748
          },
          {
            "duration": 0.13157874999998853,
            "durationTicks": 96,
            "midi": 67,
            "name": "G4",
            "ticks": 91584,
            "time": 125.5261275,
            "velocity": 0.3937007874015748
          },
          {
            "duration": 0.13157874999998853,
            "durationTicks": 96,
            "midi": 62,
            "name": "D4",
            "ticks": 91584,
            "time": 125.5261275,
            "velocity": 0.3937007874015748
          },
          {
            "duration": 0.13157875000000274,
            "durationTicks": 96,
            "midi": 59,
            "name": "B3",
            "ticks": 91968,
            "time": 126.0524425,
            "velocity": 0.3937007874015748
          },
          {
            "duration": 0.13157875000000274,
            "durationTicks": 96,
            "midi": 62,
            "name": "D4",
            "ticks": 91968,
            "time": 126.0524425,
            "velocity": 0.3937007874015748
          },
          {
            "duration": 0.13157875000000274,
            "durationTicks": 96,
            "midi": 67,
            "name": "G4",
            "ticks": 91968,
            "time": 126.0524425,
            "velocity": 0.3937007874015748
          },
          {
            "duration": 0.13157875000000274,
            "durationTicks": 96,
            "midi": 60,
            "name": "C4",
            "ticks": 92352,
            "time": 126.5787575,
            "velocity": 0.3937007874015748
          },
          {
            "duration": 0.13157875000000274,
            "durationTicks": 96,
            "midi": 67,
            "name": "G4",
            "ticks": 92352,
            "time": 126.5787575,
            "velocity": 0.3937007874015748
          },
          {
            "duration": 0.13157875000000274,
            "durationTicks": 96,
            "midi": 63,
            "name": "D#4",
            "ticks": 92352,
            "time": 126.5787575,
            "velocity": 0.3937007874015748
          },
          {
            "duration": 0.13157875000000274,
            "durationTicks": 96,
            "midi": 60,
            "name": "C4",
            "ticks": 92736,
            "time": 127.10507249999999,
            "velocity": 0.3937007874015748
          },
          {
            "duration": 0.13157875000000274,
            "durationTicks": 96,
            "midi": 67,
            "name": "G4",
            "ticks": 92736,
            "time": 127.10507249999999,
            "velocity": 0.3937007874015748
          },
          {
            "duration": 0.13157875000000274,
            "durationTicks": 96,
            "midi": 63,
            "name": "D#4",
            "ticks": 92736,
            "time": 127.10507249999999,
            "velocity": 0.3937007874015748
          },
          {
            "duration": 0.13157875000000274,
            "durationTicks": 96,
            "midi": 63,
            "name": "D#4",
            "ticks": 93120,
            "time": 127.63138749999999,
            "velocity": 0.3937007874015748
          },
          {
            "duration": 0.13157875000000274,
            "durationTicks": 96,
            "midi": 58,
            "name": "A#3",
            "ticks": 93120,
            "time": 127.63138749999999,
            "velocity": 0.3937007874015748
          },
          {
            "duration": 0.13157875000000274,
            "durationTicks": 96,
            "midi": 67,
            "name": "G4",
            "ticks": 93120,
            "time": 127.63138749999999,
            "velocity": 0.3937007874015748
          },
          {
            "duration": 0.13157874999998853,
            "durationTicks": 96,
            "midi": 58,
            "name": "A#3",
            "ticks": 93504,
            "time": 128.1577025,
            "velocity": 0.3937007874015748
          },
          {
            "duration": 0.13157874999998853,
            "durationTicks": 96,
            "midi": 67,
            "name": "G4",
            "ticks": 93504,
            "time": 128.1577025,
            "velocity": 0.3937007874015748
          },
          {
            "duration": 0.13157874999998853,
            "durationTicks": 96,
            "midi": 63,
            "name": "D#4",
            "ticks": 93504,
            "time": 128.1577025,
            "velocity": 0.3937007874015748
          },
          {
            "duration": 0.13157875000001695,
            "durationTicks": 96,
            "midi": 60,
            "name": "C4",
            "ticks": 93888,
            "time": 128.68401749999998,
            "velocity": 0.3937007874015748
          },
          {
            "duration": 0.13157875000001695,
            "durationTicks": 96,
            "midi": 63,
            "name": "D#4",
            "ticks": 93888,
            "time": 128.68401749999998,
            "velocity": 0.3937007874015748
          },
          {
            "duration": 0.13157875000001695,
            "durationTicks": 96,
            "midi": 68,
            "name": "G#4",
            "ticks": 93888,
            "time": 128.68401749999998,
            "velocity": 0.3937007874015748
          },
          {
            "duration": 0.13157874999998853,
            "durationTicks": 96,
            "midi": 68,
            "name": "G#4",
            "ticks": 94272,
            "time": 129.2103325,
            "velocity": 0.3937007874015748
          },
          {
            "duration": 0.13157874999998853,
            "durationTicks": 96,
            "midi": 63,
            "name": "D#4",
            "ticks": 94272,
            "time": 129.2103325,
            "velocity": 0.3937007874015748
          },
          {
            "duration": 0.13157874999998853,
            "durationTicks": 96,
            "midi": 60,
            "name": "C4",
            "ticks": 94272,
            "time": 129.2103325,
            "velocity": 0.3937007874015748
          },
          {
            "duration": 0.13157874999998853,
            "durationTicks": 96,
            "midi": 59,
            "name": "B3",
            "ticks": 94656,
            "time": 129.7366475,
            "velocity": 0.3937007874015748
          },
          {
            "duration": 0.13157874999998853,
            "durationTicks": 96,
            "midi": 62,
            "name": "D4",
            "ticks": 94656,
            "time": 129.7366475,
            "velocity": 0.3937007874015748
          },
          {
            "duration": 0.13157874999998853,
            "durationTicks": 96,
            "midi": 67,
            "name": "G4",
            "ticks": 94656,
            "time": 129.7366475,
            "velocity": 0.3937007874015748
          },
          {
            "duration": 0.13157875000001695,
            "durationTicks": 96,
            "midi": 39,
            "name": "D#2",
            "ticks": 94848,
            "time": 129.99980499999998,
            "velocity": 0.3937007874015748
          },
          {
            "duration": 0.13157875000001695,
            "durationTicks": 96,
            "midi": 39,
            "name": "D#2",
            "ticks": 95040,
            "time": 130.2629625,
            "velocity": 0.3937007874015748
          },
          {
            "duration": 0.13157875000001695,
            "durationTicks": 96,
            "midi": 67,
            "name": "G4",
            "ticks": 95040,
            "time": 130.2629625,
            "velocity": 0.3937007874015748
          },
          {
            "duration": 0.13157875000001695,
            "durationTicks": 96,
            "midi": 62,
            "name": "D4",
            "ticks": 95040,
            "time": 130.2629625,
            "velocity": 0.3937007874015748
          },
          {
            "duration": 0.13157875000001695,
            "durationTicks": 96,
            "midi": 59,
            "name": "B3",
            "ticks": 95040,
            "time": 130.2629625,
            "velocity": 0.3937007874015748
          },
          {
            "duration": 0.13157874999998853,
            "durationTicks": 96,
            "midi": 63,
            "name": "D#4",
            "ticks": 95424,
            "time": 130.7892775,
            "velocity": 0.3937007874015748
          },
          {
            "duration": 0.13157874999998853,
            "durationTicks": 96,
            "midi": 60,
            "name": "C4",
            "ticks": 95424,
            "time": 130.7892775,
            "velocity": 0.3937007874015748
          },
          {
            "duration": 0.13157874999998853,
            "durationTicks": 96,
            "midi": 67,
            "name": "G4",
            "ticks": 95424,
            "time": 130.7892775,
            "velocity": 0.3937007874015748
          },
          {
            "duration": 0.13157874999998853,
            "durationTicks": 96,
            "midi": 60,
            "name": "C4",
            "ticks": 95808,
            "time": 131.3155925,
            "velocity": 0.3937007874015748
          },
          {
            "duration": 0.13157874999998853,
            "durationTicks": 96,
            "midi": 63,
            "name": "D#4",
            "ticks": 95808,
            "time": 131.3155925,
            "velocity": 0.3937007874015748
          },
          {
            "duration": 0.13157874999998853,
            "durationTicks": 96,
            "midi": 67,
            "name": "G4",
            "ticks": 95808,
            "time": 131.3155925,
            "velocity": 0.3937007874015748
          },
          {
            "duration": 0.13157875000001695,
            "durationTicks": 96,
            "midi": 63,
            "name": "D#4",
            "ticks": 96192,
            "time": 131.8419075,
            "velocity": 0.3937007874015748
          },
          {
            "duration": 0.13157875000001695,
            "durationTicks": 96,
            "midi": 67,
            "name": "G4",
            "ticks": 96192,
            "time": 131.8419075,
            "velocity": 0.3937007874015748
          },
          {
            "duration": 0.13157875000001695,
            "durationTicks": 96,
            "midi": 58,
            "name": "A#3",
            "ticks": 96192,
            "time": 131.8419075,
            "velocity": 0.3937007874015748
          },
          {
            "duration": 0.13157874999998853,
            "durationTicks": 96,
            "midi": 63,
            "name": "D#4",
            "ticks": 96576,
            "time": 132.3682225,
            "velocity": 0.3937007874015748
          },
          {
            "duration": 0.13157874999998853,
            "durationTicks": 96,
            "midi": 67,
            "name": "G4",
            "ticks": 96576,
            "time": 132.3682225,
            "velocity": 0.3937007874015748
          },
          {
            "duration": 0.13157874999998853,
            "durationTicks": 96,
            "midi": 58,
            "name": "A#3",
            "ticks": 96576,
            "time": 132.3682225,
            "velocity": 0.3937007874015748
          },
          {
            "duration": 0.13157875000001695,
            "durationTicks": 96,
            "midi": 60,
            "name": "C4",
            "ticks": 96960,
            "time": 132.89453749999998,
            "velocity": 0.3937007874015748
          },
          {
            "duration": 0.13157875000001695,
            "durationTicks": 96,
            "midi": 63,
            "name": "D#4",
            "ticks": 96960,
            "time": 132.89453749999998,
            "velocity": 0.3937007874015748
          },
          {
            "duration": 0.13157875000001695,
            "durationTicks": 96,
            "midi": 68,
            "name": "G#4",
            "ticks": 96960,
            "time": 132.89453749999998,
            "velocity": 0.3937007874015748
          },
          {
            "duration": 0.13157874999998853,
            "durationTicks": 96,
            "midi": 63,
            "name": "D#4",
            "ticks": 97344,
            "time": 133.4208525,
            "velocity": 0.3937007874015748
          },
          {
            "duration": 0.13157874999998853,
            "durationTicks": 96,
            "midi": 68,
            "name": "G#4",
            "ticks": 97344,
            "time": 133.4208525,
            "velocity": 0.3937007874015748
          },
          {
            "duration": 0.13157874999998853,
            "durationTicks": 96,
            "midi": 60,
            "name": "C4",
            "ticks": 97344,
            "time": 133.4208525,
            "velocity": 0.3937007874015748
          },
          {
            "duration": 0.13157874999998853,
            "durationTicks": 96,
            "midi": 62,
            "name": "D4",
            "ticks": 97728,
            "time": 133.9471675,
            "velocity": 0.3937007874015748
          },
          {
            "duration": 0.13157874999998853,
            "durationTicks": 96,
            "midi": 59,
            "name": "B3",
            "ticks": 97728,
            "time": 133.9471675,
            "velocity": 0.3937007874015748
          },
          {
            "duration": 0.13157874999998853,
            "durationTicks": 96,
            "midi": 67,
            "name": "G4",
            "ticks": 97728,
            "time": 133.9471675,
            "velocity": 0.3937007874015748
          },
          {
            "duration": 0.13157875000001695,
            "durationTicks": 96,
            "midi": 39,
            "name": "D#2",
            "ticks": 97920,
            "time": 134.21032499999998,
            "velocity": 0.3937007874015748
          },
          {
            "duration": 0.13157875000001695,
            "durationTicks": 96,
            "midi": 39,
            "name": "D#2",
            "ticks": 98112,
            "time": 134.4734825,
            "velocity": 0.3937007874015748
          },
          {
            "duration": 0.13157875000001695,
            "durationTicks": 96,
            "midi": 59,
            "name": "B3",
            "ticks": 98112,
            "time": 134.4734825,
            "velocity": 0.3937007874015748
          },
          {
            "duration": 0.13157875000001695,
            "durationTicks": 96,
            "midi": 62,
            "name": "D4",
            "ticks": 98112,
            "time": 134.4734825,
            "velocity": 0.3937007874015748
          },
          {
            "duration": 0.13157875000001695,
            "durationTicks": 96,
            "midi": 67,
            "name": "G4",
            "ticks": 98112,
            "time": 134.4734825,
            "velocity": 0.3937007874015748
          },
          {
            "duration": 0.13157874999998853,
            "durationTicks": 96,
            "midi": 56,
            "name": "G#3",
            "ticks": 98496,
            "time": 134.9997975,
            "velocity": 0.3937007874015748
          },
          {
            "duration": 0.13157874999998853,
            "durationTicks": 96,
            "midi": 65,
            "name": "F4",
            "ticks": 98496,
            "time": 134.9997975,
            "velocity": 0.3937007874015748
          },
          {
            "duration": 0.13157874999998853,
            "durationTicks": 96,
            "midi": 60,
            "name": "C4",
            "ticks": 98496,
            "time": 134.9997975,
            "velocity": 0.3937007874015748
          },
          {
            "duration": 0.13157874999998853,
            "durationTicks": 96,
            "midi": 68,
            "name": "G#4",
            "ticks": 98496,
            "time": 134.9997975,
            "velocity": 0.3937007874015748
          },
          {
            "duration": 0.13157874999998853,
            "durationTicks": 96,
            "midi": 53,
            "name": "F3",
            "ticks": 98496,
            "time": 134.9997975,
            "velocity": 0.3937007874015748
          },
          {
            "duration": 0.13157875000001695,
            "durationTicks": 96,
            "midi": 56,
            "name": "G#3",
            "ticks": 98880,
            "time": 135.52611249999998,
            "velocity": 0.3937007874015748
          },
          {
            "duration": 0.13157875000001695,
            "durationTicks": 96,
            "midi": 53,
            "name": "F3",
            "ticks": 98880,
            "time": 135.52611249999998,
            "velocity": 0.3937007874015748
          },
          {
            "duration": 0.13157875000001695,
            "durationTicks": 96,
            "midi": 68,
            "name": "G#4",
            "ticks": 98880,
            "time": 135.52611249999998,
            "velocity": 0.3937007874015748
          },
          {
            "duration": 0.13157875000001695,
            "durationTicks": 96,
            "midi": 60,
            "name": "C4",
            "ticks": 98880,
            "time": 135.52611249999998,
            "velocity": 0.3937007874015748
          },
          {
            "duration": 0.13157875000001695,
            "durationTicks": 96,
            "midi": 65,
            "name": "F4",
            "ticks": 98880,
            "time": 135.52611249999998,
            "velocity": 0.3937007874015748
          },
          {
            "duration": 0.13157874999998853,
            "durationTicks": 96,
            "midi": 68,
            "name": "G#4",
            "ticks": 99264,
            "time": 136.0524275,
            "velocity": 0.3937007874015748
          },
          {
            "duration": 0.13157874999998853,
            "durationTicks": 96,
            "midi": 60,
            "name": "C4",
            "ticks": 99264,
            "time": 136.0524275,
            "velocity": 0.3937007874015748
          },
          {
            "duration": 0.13157874999998853,
            "durationTicks": 96,
            "midi": 51,
            "name": "D#3",
            "ticks": 99264,
            "time": 136.0524275,
            "velocity": 0.3937007874015748
          },
          {
            "duration": 0.13157874999998853,
            "durationTicks": 96,
            "midi": 63,
            "name": "D#4",
            "ticks": 99264,
            "time": 136.0524275,
            "velocity": 0.3937007874015748
          },
          {
            "duration": 0.13157874999998853,
            "durationTicks": 96,
            "midi": 56,
            "name": "G#3",
            "ticks": 99264,
            "time": 136.0524275,
            "velocity": 0.3937007874015748
          },
          {
            "duration": 0.13157874999998853,
            "durationTicks": 96,
            "midi": 39,
            "name": "D#2",
            "ticks": 99456,
            "time": 136.315585,
            "velocity": 0.3937007874015748
          },
          {
            "duration": 0.13157874999998853,
            "durationTicks": 96,
            "midi": 39,
            "name": "D#2",
            "ticks": 99648,
            "time": 136.5787425,
            "velocity": 0.3937007874015748
          },
          {
            "duration": 0.13157874999998853,
            "durationTicks": 96,
            "midi": 68,
            "name": "G#4",
            "ticks": 99648,
            "time": 136.5787425,
            "velocity": 0.3937007874015748
          },
          {
            "duration": 0.13157874999998853,
            "durationTicks": 96,
            "midi": 56,
            "name": "G#3",
            "ticks": 99648,
            "time": 136.5787425,
            "velocity": 0.3937007874015748
          },
          {
            "duration": 0.13157874999998853,
            "durationTicks": 96,
            "midi": 60,
            "name": "C4",
            "ticks": 99648,
            "time": 136.5787425,
            "velocity": 0.3937007874015748
          },
          {
            "duration": 0.13157874999998853,
            "durationTicks": 96,
            "midi": 63,
            "name": "D#4",
            "ticks": 99648,
            "time": 136.5787425,
            "velocity": 0.3937007874015748
          },
          {
            "duration": 0.13157874999998853,
            "durationTicks": 96,
            "midi": 51,
            "name": "D#3",
            "ticks": 99648,
            "time": 136.5787425,
            "velocity": 0.3937007874015748
          },
          {
            "duration": 0.13157875000001695,
            "durationTicks": 96,
            "midi": 66,
            "name": "F#4",
            "ticks": 100032,
            "time": 137.1050575,
            "velocity": 0.3937007874015748
          },
          {
            "duration": 0.13157875000001695,
            "durationTicks": 96,
            "midi": 57,
            "name": "A3",
            "ticks": 100032,
            "time": 137.1050575,
            "velocity": 0.3937007874015748
          },
          {
            "duration": 0.13157875000001695,
            "durationTicks": 96,
            "midi": 62,
            "name": "D4",
            "ticks": 100032,
            "time": 137.1050575,
            "velocity": 0.3937007874015748
          },
          {
            "duration": 0.13157875000001695,
            "durationTicks": 96,
            "midi": 54,
            "name": "F#3",
            "ticks": 100032,
            "time": 137.1050575,
            "velocity": 0.3937007874015748
          },
          {
            "duration": 0.13157875000001695,
            "durationTicks": 96,
            "midi": 50,
            "name": "D3",
            "ticks": 100032,
            "time": 137.1050575,
            "velocity": 0.3937007874015748
          },
          {
            "duration": 0.13157874999998853,
            "durationTicks": 96,
            "midi": 62,
            "name": "D4",
            "ticks": 100416,
            "time": 137.6313725,
            "velocity": 0.3937007874015748
          },
          {
            "duration": 0.13157874999998853,
            "durationTicks": 96,
            "midi": 50,
            "name": "D3",
            "ticks": 100416,
            "time": 137.6313725,
            "velocity": 0.3937007874015748
          },
          {
            "duration": 0.13157874999998853,
            "durationTicks": 96,
            "midi": 57,
            "name": "A3",
            "ticks": 100416,
            "time": 137.6313725,
            "velocity": 0.3937007874015748
          },
          {
            "duration": 0.13157874999998853,
            "durationTicks": 96,
            "midi": 54,
            "name": "F#3",
            "ticks": 100416,
            "time": 137.6313725,
            "velocity": 0.3937007874015748
          },
          {
            "duration": 0.13157874999998853,
            "durationTicks": 96,
            "midi": 66,
            "name": "F#4",
            "ticks": 100416,
            "time": 137.6313725,
            "velocity": 0.3937007874015748
          },
          {
            "duration": 0.13157875000001695,
            "durationTicks": 96,
            "midi": 65,
            "name": "F4",
            "ticks": 100800,
            "time": 138.15768749999998,
            "velocity": 0.3937007874015748
          },
          {
            "duration": 0.13157875000001695,
            "durationTicks": 96,
            "midi": 53,
            "name": "F3",
            "ticks": 100800,
            "time": 138.15768749999998,
            "velocity": 0.3937007874015748
          },
          {
            "duration": 0.13157875000001695,
            "durationTicks": 96,
            "midi": 55,
            "name": "G3",
            "ticks": 100800,
            "time": 138.15768749999998,
            "velocity": 0.3937007874015748
          },
          {
            "duration": 0.13157875000001695,
            "durationTicks": 96,
            "midi": 62,
            "name": "D4",
            "ticks": 100800,
            "time": 138.15768749999998,
            "velocity": 0.3937007874015748
          },
          {
            "duration": 0.13157875000001695,
            "durationTicks": 96,
            "midi": 59,
            "name": "B3",
            "ticks": 100800,
            "time": 138.15768749999998,
            "velocity": 0.3937007874015748
          },
          {
            "duration": 0.13157875000001695,
            "durationTicks": 96,
            "midi": 39,
            "name": "D#2",
            "ticks": 100992,
            "time": 138.42084499999999,
            "velocity": 0.3937007874015748
          },
          {
            "duration": 0.13157875000001695,
            "durationTicks": 96,
            "midi": 53,
            "name": "F3",
            "ticks": 101184,
            "time": 138.6840025,
            "velocity": 0.3937007874015748
          },
          {
            "duration": 0.13157875000001695,
            "durationTicks": 96,
            "midi": 39,
            "name": "D#2",
            "ticks": 101184,
            "time": 138.6840025,
            "velocity": 0.3937007874015748
          },
          {
            "duration": 0.13157875000001695,
            "durationTicks": 96,
            "midi": 59,
            "name": "B3",
            "ticks": 101184,
            "time": 138.6840025,
            "velocity": 0.3937007874015748
          },
          {
            "duration": 0.13157875000001695,
            "durationTicks": 96,
            "midi": 55,
            "name": "G3",
            "ticks": 101184,
            "time": 138.6840025,
            "velocity": 0.3937007874015748
          },
          {
            "duration": 0.13157875000001695,
            "durationTicks": 96,
            "midi": 62,
            "name": "D4",
            "ticks": 101184,
            "time": 138.6840025,
            "velocity": 0.3937007874015748
          },
          {
            "duration": 0.13157875000001695,
            "durationTicks": 96,
            "midi": 65,
            "name": "F4",
            "ticks": 101184,
            "time": 138.6840025,
            "velocity": 0.3937007874015748
          },
          {
            "duration": 0.13157874999998853,
            "durationTicks": 96,
            "midi": 63,
            "name": "D#4",
            "ticks": 101568,
            "time": 139.2103175,
            "velocity": 0.3937007874015748
          },
          {
            "duration": 0.13157874999998853,
            "durationTicks": 96,
            "midi": 60,
            "name": "C4",
            "ticks": 101568,
            "time": 139.2103175,
            "velocity": 0.3937007874015748
          },
          {
            "duration": 0.13157874999998853,
            "durationTicks": 96,
            "midi": 67,
            "name": "G4",
            "ticks": 101568,
            "time": 139.2103175,
            "velocity": 0.3937007874015748
          },
          {
            "duration": 0.13157875000001695,
            "durationTicks": 96,
            "midi": 60,
            "name": "C4",
            "ticks": 101952,
            "time": 139.73663249999998,
            "velocity": 0.3937007874015748
          },
          {
            "duration": 0.13157875000001695,
            "durationTicks": 96,
            "midi": 67,
            "name": "G4",
            "ticks": 101952,
            "time": 139.73663249999998,
            "velocity": 0.3937007874015748
          },
          {
            "duration": 0.13157875000001695,
            "durationTicks": 96,
            "midi": 63,
            "name": "D#4",
            "ticks": 101952,
            "time": 139.73663249999998,
            "velocity": 0.3937007874015748
          },
          {
            "duration": 0.13157874999998853,
            "durationTicks": 96,
            "midi": 58,
            "name": "A#3",
            "ticks": 102336,
            "time": 140.2629475,
            "velocity": 0.3937007874015748
          },
          {
            "duration": 0.13157874999998853,
            "durationTicks": 96,
            "midi": 67,
            "name": "G4",
            "ticks": 102336,
            "time": 140.2629475,
            "velocity": 0.3937007874015748
          },
          {
            "duration": 0.13157874999998853,
            "durationTicks": 96,
            "midi": 63,
            "name": "D#4",
            "ticks": 102336,
            "time": 140.2629475,
            "velocity": 0.3937007874015748
          },
          {
            "duration": 0.13157874999998853,
            "durationTicks": 96,
            "midi": 67,
            "name": "G4",
            "ticks": 102720,
            "time": 140.7892625,
            "velocity": 0.3937007874015748
          },
          {
            "duration": 0.13157874999998853,
            "durationTicks": 96,
            "midi": 63,
            "name": "D#4",
            "ticks": 102720,
            "time": 140.7892625,
            "velocity": 0.3937007874015748
          },
          {
            "duration": 0.13157874999998853,
            "durationTicks": 96,
            "midi": 58,
            "name": "A#3",
            "ticks": 102720,
            "time": 140.7892625,
            "velocity": 0.3937007874015748
          },
          {
            "duration": 0.13157875000001695,
            "durationTicks": 96,
            "midi": 60,
            "name": "C4",
            "ticks": 103104,
            "time": 141.3155775,
            "velocity": 0.3937007874015748
          },
          {
            "duration": 0.13157875000001695,
            "durationTicks": 96,
            "midi": 68,
            "name": "G#4",
            "ticks": 103104,
            "time": 141.3155775,
            "velocity": 0.3937007874015748
          },
          {
            "duration": 0.13157875000001695,
            "durationTicks": 96,
            "midi": 63,
            "name": "D#4",
            "ticks": 103104,
            "time": 141.3155775,
            "velocity": 0.3937007874015748
          },
          {
            "duration": 0.13157874999998853,
            "durationTicks": 96,
            "midi": 63,
            "name": "D#4",
            "ticks": 103488,
            "time": 141.8418925,
            "velocity": 0.3937007874015748
          },
          {
            "duration": 0.13157874999998853,
            "durationTicks": 96,
            "midi": 60,
            "name": "C4",
            "ticks": 103488,
            "time": 141.8418925,
            "velocity": 0.3937007874015748
          },
          {
            "duration": 0.13157874999998853,
            "durationTicks": 96,
            "midi": 68,
            "name": "G#4",
            "ticks": 103488,
            "time": 141.8418925,
            "velocity": 0.3937007874015748
          },
          {
            "duration": 0.13157875000001695,
            "durationTicks": 96,
            "midi": 67,
            "name": "G4",
            "ticks": 103872,
            "time": 142.36820749999998,
            "velocity": 0.3937007874015748
          },
          {
            "duration": 0.13157875000001695,
            "durationTicks": 96,
            "midi": 62,
            "name": "D4",
            "ticks": 103872,
            "time": 142.36820749999998,
            "velocity": 0.3937007874015748
          },
          {
            "duration": 0.13157875000001695,
            "durationTicks": 96,
            "midi": 59,
            "name": "B3",
            "ticks": 103872,
            "time": 142.36820749999998,
            "velocity": 0.3937007874015748
          },
          {
            "duration": 0.13157874999998853,
            "durationTicks": 96,
            "midi": 59,
            "name": "B3",
            "ticks": 104256,
            "time": 142.8945225,
            "velocity": 0.3937007874015748
          },
          {
            "duration": 0.13157874999998853,
            "durationTicks": 96,
            "midi": 67,
            "name": "G4",
            "ticks": 104256,
            "time": 142.8945225,
            "velocity": 0.3937007874015748
          },
          {
            "duration": 0.13157874999998853,
            "durationTicks": 96,
            "midi": 62,
            "name": "D4",
            "ticks": 104256,
            "time": 142.8945225,
            "velocity": 0.3937007874015748
          }
        ],
        "endOfTrackTicks": 104352
      },
      {
        "channel": 9,
        "controlChanges": {},
        "pitchBends": [],
        "instrument": {
          "family": "drums",
          "number": 0,
          "name": "standard kit"
        },
        "name": "808 Drum Kit",
        "notes": [
          {
            "duration": 0.1315787499999992,
            "durationTicks": 96,
            "midi": 0,
            "name": "C-1",
            "ticks": 12288,
            "time": 16.84208,
            "velocity": 0.3937007874015748
          },
          {
            "duration": 0.13157875000000274,
            "durationTicks": 96,
            "midi": 0,
            "name": "C-1",
            "ticks": 12480,
            "time": 17.105237499999998,
            "velocity": 0.3937007874015748
          },
          {
            "duration": 0.1315787499999992,
            "durationTicks": 96,
            "midi": 0,
            "name": "C-1",
            "ticks": 12672,
            "time": 17.368395,
            "velocity": 0.3937007874015748
          },
          {
            "duration": 0.1315787499999992,
            "durationTicks": 96,
            "midi": 0,
            "name": "C-1",
            "ticks": 12672,
            "time": 17.368395,
            "velocity": 0.3937007874015748
          },
          {
            "duration": 0.13157875000000274,
            "durationTicks": 96,
            "midi": 0,
            "name": "C-1",
            "ticks": 12864,
            "time": 17.631552499999998,
            "velocity": 0.3937007874015748
          },
          {
            "duration": 0.1315787499999992,
            "durationTicks": 96,
            "midi": 0,
            "name": "C-1",
            "ticks": 13056,
            "time": 17.89471,
            "velocity": 0.3937007874015748
          },
          {
            "duration": 0.1315787499999992,
            "durationTicks": 96,
            "midi": 0,
            "name": "C-1",
            "ticks": 13248,
            "time": 18.1578675,
            "velocity": 0.3937007874015748
          },
          {
            "duration": 0.1315787499999992,
            "durationTicks": 96,
            "midi": 0,
            "name": "C-1",
            "ticks": 13440,
            "time": 18.421025,
            "velocity": 0.3937007874015748
          },
          {
            "duration": 0.1315787499999992,
            "durationTicks": 96,
            "midi": 0,
            "name": "C-1",
            "ticks": 13440,
            "time": 18.421025,
            "velocity": 0.3937007874015748
          },
          {
            "duration": 0.1315787499999992,
            "durationTicks": 96,
            "midi": 0,
            "name": "C-1",
            "ticks": 13632,
            "time": 18.6841825,
            "velocity": 0.3937007874015748
          },
          {
            "duration": 0.1315787499999992,
            "durationTicks": 96,
            "midi": 0,
            "name": "C-1",
            "ticks": 13824,
            "time": 18.94734,
            "velocity": 0.3937007874015748
          },
          {
            "duration": 0.1315787499999992,
            "durationTicks": 96,
            "midi": 0,
            "name": "C-1",
            "ticks": 13824,
            "time": 18.94734,
            "velocity": 0.3937007874015748
          },
          {
            "duration": 0.1315787499999992,
            "durationTicks": 96,
            "midi": 0,
            "name": "C-1",
            "ticks": 14016,
            "time": 19.2104975,
            "velocity": 0.3937007874015748
          },
          {
            "duration": 0.1315787499999992,
            "durationTicks": 96,
            "midi": 0,
            "name": "C-1",
            "ticks": 14208,
            "time": 19.473655,
            "velocity": 0.3937007874015748
          },
          {
            "duration": 0.1315787499999992,
            "durationTicks": 96,
            "midi": 0,
            "name": "C-1",
            "ticks": 14208,
            "time": 19.473655,
            "velocity": 0.3937007874015748
          },
          {
            "duration": 0.1315787499999992,
            "durationTicks": 96,
            "midi": 0,
            "name": "C-1",
            "ticks": 14208,
            "time": 19.473655,
            "velocity": 0.3937007874015748
          },
          {
            "duration": 0.1315787499999992,
            "durationTicks": 96,
            "midi": 0,
            "name": "C-1",
            "ticks": 14400,
            "time": 19.7368125,
            "velocity": 0.3937007874015748
          },
          {
            "duration": 0.13157875000000274,
            "durationTicks": 96,
            "midi": 0,
            "name": "C-1",
            "ticks": 14592,
            "time": 19.999969999999998,
            "velocity": 0.3937007874015748
          },
          {
            "duration": 0.1315787499999992,
            "durationTicks": 96,
            "midi": 0,
            "name": "C-1",
            "ticks": 14784,
            "time": 20.2631275,
            "velocity": 0.3937007874015748
          },
          {
            "duration": 0.13157875000000274,
            "durationTicks": 96,
            "midi": 0,
            "name": "C-1",
            "ticks": 14976,
            "time": 20.526284999999998,
            "velocity": 0.3937007874015748
          },
          {
            "duration": 0.13157875000000274,
            "durationTicks": 96,
            "midi": 0,
            "name": "C-1",
            "ticks": 14976,
            "time": 20.526284999999998,
            "velocity": 0.3937007874015748
          },
          {
            "duration": 0.1315787499999992,
            "durationTicks": 96,
            "midi": 0,
            "name": "C-1",
            "ticks": 15168,
            "time": 20.7894425,
            "velocity": 0.3937007874015748
          },
          {
            "duration": 0.1315787499999992,
            "durationTicks": 96,
            "midi": 0,
            "name": "C-1",
            "ticks": 15360,
            "time": 21.052599999999998,
            "velocity": 0.3937007874015748
          },
          {
            "duration": 0.1315787499999992,
            "durationTicks": 96,
            "midi": 0,
            "name": "C-1",
            "ticks": 15552,
            "time": 21.3157575,
            "velocity": 0.3937007874015748
          },
          {
            "duration": 0.1315787499999992,
            "durationTicks": 96,
            "midi": 0,
            "name": "C-1",
            "ticks": 15744,
            "time": 21.578915,
            "velocity": 0.3937007874015748
          },
          {
            "duration": 0.1315787499999992,
            "durationTicks": 96,
            "midi": 0,
            "name": "C-1",
            "ticks": 15744,
            "time": 21.578915,
            "velocity": 0.3937007874015748
          },
          {
            "duration": 0.1315787499999992,
            "durationTicks": 96,
            "midi": 0,
            "name": "C-1",
            "ticks": 15936,
            "time": 21.8420725,
            "velocity": 0.3937007874015748
          },
          {
            "duration": 0.1315787499999992,
            "durationTicks": 96,
            "midi": 0,
            "name": "C-1",
            "ticks": 16128,
            "time": 22.10523,
            "velocity": 0.3937007874015748
          },
          {
            "duration": 0.1315787499999992,
            "durationTicks": 96,
            "midi": 0,
            "name": "C-1",
            "ticks": 16320,
            "time": 22.3683875,
            "velocity": 0.3937007874015748
          },
          {
            "duration": 0.1315787499999992,
            "durationTicks": 96,
            "midi": 0,
            "name": "C-1",
            "ticks": 16512,
            "time": 22.631545,
            "velocity": 0.3937007874015748
          },
          {
            "duration": 0.1315787499999992,
            "durationTicks": 96,
            "midi": 0,
            "name": "C-1",
            "ticks": 16512,
            "time": 22.631545,
            "velocity": 0.3937007874015748
          },
          {
            "duration": 0.13157875000000274,
            "durationTicks": 96,
            "midi": 0,
            "name": "C-1",
            "ticks": 16704,
            "time": 22.894702499999998,
            "velocity": 0.3937007874015748
          },
          {
            "duration": 0.1315787499999992,
            "durationTicks": 96,
            "midi": 0,
            "name": "C-1",
            "ticks": 16896,
            "time": 23.15786,
            "velocity": 0.3937007874015748
          },
          {
            "duration": 0.1315787499999992,
            "durationTicks": 96,
            "midi": 0,
            "name": "C-1",
            "ticks": 16896,
            "time": 23.15786,
            "velocity": 0.3937007874015748
          },
          {
            "duration": 0.13157875000000274,
            "durationTicks": 96,
            "midi": 0,
            "name": "C-1",
            "ticks": 17088,
            "time": 23.421017499999998,
            "velocity": 0.3937007874015748
          },
          {
            "duration": 0.1315787499999992,
            "durationTicks": 96,
            "midi": 0,
            "name": "C-1",
            "ticks": 17280,
            "time": 23.684175,
            "velocity": 0.3937007874015748
          },
          {
            "duration": 0.1315787499999992,
            "durationTicks": 96,
            "midi": 0,
            "name": "C-1",
            "ticks": 17280,
            "time": 23.684175,
            "velocity": 0.3937007874015748
          },
          {
            "duration": 0.1315787499999992,
            "durationTicks": 96,
            "midi": 0,
            "name": "C-1",
            "ticks": 17280,
            "time": 23.684175,
            "velocity": 0.3937007874015748
          },
          {
            "duration": 0.1315787499999992,
            "durationTicks": 96,
            "midi": 0,
            "name": "C-1",
            "ticks": 17472,
            "time": 23.947332499999998,
            "velocity": 0.3937007874015748
          },
          {
            "duration": 0.1315787499999992,
            "durationTicks": 96,
            "midi": 0,
            "name": "C-1",
            "ticks": 17664,
            "time": 24.21049,
            "velocity": 0.3937007874015748
          },
          {
            "duration": 0.1315787499999992,
            "durationTicks": 96,
            "midi": 0,
            "name": "C-1",
            "ticks": 17856,
            "time": 24.4736475,
            "velocity": 0.3937007874015748
          },
          {
            "duration": 0.1315787499999992,
            "durationTicks": 96,
            "midi": 0,
            "name": "C-1",
            "ticks": 18048,
            "time": 24.736805,
            "velocity": 0.3937007874015748
          },
          {
            "duration": 0.1315787499999992,
            "durationTicks": 96,
            "midi": 0,
            "name": "C-1",
            "ticks": 18048,
            "time": 24.736805,
            "velocity": 0.3937007874015748
          },
          {
            "duration": 0.1315787499999992,
            "durationTicks": 96,
            "midi": 0,
            "name": "C-1",
            "ticks": 18240,
            "time": 24.9999625,
            "velocity": 0.3937007874015748
          },
          {
            "duration": 0.1315787499999992,
            "durationTicks": 96,
            "midi": 0,
            "name": "C-1",
            "ticks": 18432,
            "time": 25.26312,
            "velocity": 0.3937007874015748
          },
          {
            "duration": 0.1315787499999992,
            "durationTicks": 96,
            "midi": 0,
            "name": "C-1",
            "ticks": 18624,
            "time": 25.5262775,
            "velocity": 0.3937007874015748
          },
          {
            "duration": 0.13157875000000274,
            "durationTicks": 96,
            "midi": 0,
            "name": "C-1",
            "ticks": 18816,
            "time": 25.789434999999997,
            "velocity": 0.3937007874015748
          },
          {
            "duration": 0.13157875000000274,
            "durationTicks": 96,
            "midi": 0,
            "name": "C-1",
            "ticks": 18816,
            "time": 25.789434999999997,
            "velocity": 0.3937007874015748
          },
          {
            "duration": 0.1315787499999992,
            "durationTicks": 96,
            "midi": 0,
            "name": "C-1",
            "ticks": 19008,
            "time": 26.0525925,
            "velocity": 0.3937007874015748
          },
          {
            "duration": 0.13157875000000274,
            "durationTicks": 96,
            "midi": 0,
            "name": "C-1",
            "ticks": 19200,
            "time": 26.315749999999998,
            "velocity": 0.3937007874015748
          },
          {
            "duration": 0.1315787499999992,
            "durationTicks": 96,
            "midi": 0,
            "name": "C-1",
            "ticks": 19392,
            "time": 26.5789075,
            "velocity": 0.3937007874015748
          },
          {
            "duration": 0.1315787499999992,
            "durationTicks": 96,
            "midi": 0,
            "name": "C-1",
            "ticks": 19584,
            "time": 26.842064999999998,
            "velocity": 0.3937007874015748
          },
          {
            "duration": 0.1315787499999992,
            "durationTicks": 96,
            "midi": 0,
            "name": "C-1",
            "ticks": 19584,
            "time": 26.842064999999998,
            "velocity": 0.3937007874015748
          },
          {
            "duration": 0.1315787499999992,
            "durationTicks": 96,
            "midi": 0,
            "name": "C-1",
            "ticks": 19776,
            "time": 27.1052225,
            "velocity": 0.3937007874015748
          },
          {
            "duration": 0.1315787499999992,
            "durationTicks": 96,
            "midi": 0,
            "name": "C-1",
            "ticks": 19968,
            "time": 27.36838,
            "velocity": 0.3937007874015748
          },
          {
            "duration": 0.1315787499999992,
            "durationTicks": 96,
            "midi": 0,
            "name": "C-1",
            "ticks": 20160,
            "time": 27.6315375,
            "velocity": 0.3937007874015748
          },
          {
            "duration": 0.1315787499999992,
            "durationTicks": 96,
            "midi": 0,
            "name": "C-1",
            "ticks": 20352,
            "time": 27.894695,
            "velocity": 0.3937007874015748
          },
          {
            "duration": 0.13157875000000274,
            "durationTicks": 96,
            "midi": 0,
            "name": "C-1",
            "ticks": 20544,
            "time": 28.157852499999997,
            "velocity": 0.3937007874015748
          },
          {
            "duration": 0.1315787499999992,
            "durationTicks": 96,
            "midi": 0,
            "name": "C-1",
            "ticks": 20736,
            "time": 28.42101,
            "velocity": 0.3937007874015748
          },
          {
            "duration": 0.13157875000000274,
            "durationTicks": 96,
            "midi": 0,
            "name": "C-1",
            "ticks": 20928,
            "time": 28.684167499999997,
            "velocity": 0.3937007874015748
          },
          {
            "duration": 0.1315787499999992,
            "durationTicks": 96,
            "midi": 0,
            "name": "C-1",
            "ticks": 21120,
            "time": 28.947325,
            "velocity": 0.3937007874015748
          },
          {
            "duration": 0.13157875000000274,
            "durationTicks": 96,
            "midi": 0,
            "name": "C-1",
            "ticks": 21312,
            "time": 29.210482499999998,
            "velocity": 0.3937007874015748
          },
          {
            "duration": 0.1315787499999992,
            "durationTicks": 96,
            "midi": 0,
            "name": "C-1",
            "ticks": 21504,
            "time": 29.47364,
            "velocity": 0.3937007874015748
          },
          {
            "duration": 0.1315787499999992,
            "durationTicks": 96,
            "midi": 0,
            "name": "C-1",
            "ticks": 21696,
            "time": 29.736797499999998,
            "velocity": 0.3937007874015748
          },
          {
            "duration": 0.1315787499999992,
            "durationTicks": 96,
            "midi": 0,
            "name": "C-1",
            "ticks": 21888,
            "time": 29.999955,
            "velocity": 0.3937007874015748
          },
          {
            "duration": 0.1315787499999992,
            "durationTicks": 96,
            "midi": 0,
            "name": "C-1",
            "ticks": 21888,
            "time": 29.999955,
            "velocity": 0.3937007874015748
          },
          {
            "duration": 0.1315787499999992,
            "durationTicks": 96,
            "midi": 0,
            "name": "C-1",
            "ticks": 22080,
            "time": 30.2631125,
            "velocity": 0.3937007874015748
          },
          {
            "duration": 0.1315787499999992,
            "durationTicks": 96,
            "midi": 0,
            "name": "C-1",
            "ticks": 22272,
            "time": 30.52627,
            "velocity": 0.3937007874015748
          },
          {
            "duration": 0.1315787499999992,
            "durationTicks": 96,
            "midi": 0,
            "name": "C-1",
            "ticks": 22464,
            "time": 30.7894275,
            "velocity": 0.3937007874015748
          },
          {
            "duration": 0.13157875000000274,
            "durationTicks": 96,
            "midi": 0,
            "name": "C-1",
            "ticks": 22656,
            "time": 31.052584999999997,
            "velocity": 0.3937007874015748
          },
          {
            "duration": 0.13157875000000274,
            "durationTicks": 96,
            "midi": 0,
            "name": "C-1",
            "ticks": 22656,
            "time": 31.052584999999997,
            "velocity": 0.3937007874015748
          },
          {
            "duration": 0.1315787499999992,
            "durationTicks": 96,
            "midi": 0,
            "name": "C-1",
            "ticks": 22848,
            "time": 31.3157425,
            "velocity": 0.3937007874015748
          },
          {
            "duration": 0.13157875000000274,
            "durationTicks": 96,
            "midi": 0,
            "name": "C-1",
            "ticks": 23040,
            "time": 31.578899999999997,
            "velocity": 0.3937007874015748
          },
          {
            "duration": 0.13157875000000274,
            "durationTicks": 96,
            "midi": 0,
            "name": "C-1",
            "ticks": 23040,
            "time": 31.578899999999997,
            "velocity": 0.3937007874015748
          },
          {
            "duration": 0.1315787499999992,
            "durationTicks": 96,
            "midi": 0,
            "name": "C-1",
            "ticks": 23232,
            "time": 31.8420575,
            "velocity": 0.3937007874015748
          },
          {
            "duration": 0.13157874999999564,
            "durationTicks": 96,
            "midi": 0,
            "name": "C-1",
            "ticks": 23424,
            "time": 32.105215,
            "velocity": 0.3937007874015748
          },
          {
            "duration": 0.13157874999999564,
            "durationTicks": 96,
            "midi": 0,
            "name": "C-1",
            "ticks": 23424,
            "time": 32.105215,
            "velocity": 0.3937007874015748
          },
          {
            "duration": 0.13157874999999564,
            "durationTicks": 96,
            "midi": 0,
            "name": "C-1",
            "ticks": 23424,
            "time": 32.105215,
            "velocity": 0.3937007874015748
          },
          {
            "duration": 0.13157874999999564,
            "durationTicks": 96,
            "midi": 0,
            "name": "C-1",
            "ticks": 23616,
            "time": 32.3683725,
            "velocity": 0.3937007874015748
          },
          {
            "duration": 0.13157875000000274,
            "durationTicks": 96,
            "midi": 0,
            "name": "C-1",
            "ticks": 23808,
            "time": 32.63153,
            "velocity": 0.3937007874015748
          },
          {
            "duration": 0.13157875000000274,
            "durationTicks": 96,
            "midi": 0,
            "name": "C-1",
            "ticks": 24000,
            "time": 32.894687499999996,
            "velocity": 0.3937007874015748
          },
          {
            "duration": 0.13157875000000274,
            "durationTicks": 96,
            "midi": 0,
            "name": "C-1",
            "ticks": 24576,
            "time": 33.68416,
            "velocity": 0.3937007874015748
          },
          {
            "duration": 0.13157875000000274,
            "durationTicks": 96,
            "midi": 0,
            "name": "C-1",
            "ticks": 25536,
            "time": 34.9999475,
            "velocity": 0.3937007874015748
          },
          {
            "duration": 0.13157874999999564,
            "durationTicks": 96,
            "midi": 0,
            "name": "C-1",
            "ticks": 26112,
            "time": 35.78942,
            "velocity": 0.3937007874015748
          },
          {
            "duration": 0.13157875000000274,
            "durationTicks": 96,
            "midi": 0,
            "name": "C-1",
            "ticks": 27072,
            "time": 37.1052075,
            "velocity": 0.3937007874015748
          },
          {
            "duration": 0.13157874999999564,
            "durationTicks": 96,
            "midi": 0,
            "name": "C-1",
            "ticks": 27648,
            "time": 37.89468,
            "velocity": 0.3937007874015748
          },
          {
            "duration": 0.13157874999999564,
            "durationTicks": 96,
            "midi": 0,
            "name": "C-1",
            "ticks": 28608,
            "time": 39.2104675,
            "velocity": 0.3937007874015748
          },
          {
            "duration": 0.13157875000000274,
            "durationTicks": 96,
            "midi": 0,
            "name": "C-1",
            "ticks": 29184,
            "time": 39.999939999999995,
            "velocity": 0.3937007874015748
          },
          {
            "duration": 0.13157874999999564,
            "durationTicks": 96,
            "midi": 0,
            "name": "C-1",
            "ticks": 30144,
            "time": 41.3157275,
            "velocity": 0.3937007874015748
          },
          {
            "duration": 0.13157875000000274,
            "durationTicks": 96,
            "midi": 0,
            "name": "C-1",
            "ticks": 30720,
            "time": 42.105199999999996,
            "velocity": 0.3937007874015748
          },
          {
            "duration": 0.13157875000000274,
            "durationTicks": 96,
            "midi": 0,
            "name": "C-1",
            "ticks": 31680,
            "time": 43.420987499999995,
            "velocity": 0.3937007874015748
          },
          {
            "duration": 0.13157875000000274,
            "durationTicks": 96,
            "midi": 0,
            "name": "C-1",
            "ticks": 32256,
            "time": 44.21046,
            "velocity": 0.3937007874015748
          },
          {
            "duration": 0.13157875000000274,
            "durationTicks": 96,
            "midi": 0,
            "name": "C-1",
            "ticks": 33216,
            "time": 45.5262475,
            "velocity": 0.3937007874015748
          },
          {
            "duration": 0.13157874999999564,
            "durationTicks": 96,
            "midi": 0,
            "name": "C-1",
            "ticks": 33792,
            "time": 46.31572,
            "velocity": 0.3937007874015748
          },
          {
            "duration": 0.13157875000000274,
            "durationTicks": 96,
            "midi": 0,
            "name": "C-1",
            "ticks": 34752,
            "time": 47.6315075,
            "velocity": 0.3937007874015748
          },
          {
            "duration": 0.13157874999999564,
            "durationTicks": 96,
            "midi": 0,
            "name": "C-1",
            "ticks": 35328,
            "time": 48.42098,
            "velocity": 0.3937007874015748
          },
          {
            "duration": 0.13157874999999564,
            "durationTicks": 96,
            "midi": 0,
            "name": "C-1",
            "ticks": 36288,
            "time": 49.7367675,
            "velocity": 0.3937007874015748
          },
          {
            "duration": 0.13157874999999564,
            "durationTicks": 96,
            "midi": 0,
            "name": "C-1",
            "ticks": 36864,
            "time": 50.52624,
            "velocity": 0.3937007874015748
          },
          {
            "duration": 0.13157874999999564,
            "durationTicks": 96,
            "midi": 0,
            "name": "C-1",
            "ticks": 37824,
            "time": 51.8420275,
            "velocity": 0.3937007874015748
          },
          {
            "duration": 0.13157875000000274,
            "durationTicks": 96,
            "midi": 0,
            "name": "C-1",
            "ticks": 38400,
            "time": 52.631499999999996,
            "velocity": 0.3937007874015748
          },
          {
            "duration": 0.13157875000000274,
            "durationTicks": 96,
            "midi": 0,
            "name": "C-1",
            "ticks": 39360,
            "time": 53.947287499999995,
            "velocity": 0.3937007874015748
          },
          {
            "duration": 0.13157875000000274,
            "durationTicks": 96,
            "midi": 0,
            "name": "C-1",
            "ticks": 39936,
            "time": 54.73676,
            "velocity": 0.3937007874015748
          },
          {
            "duration": 0.13157874999999564,
            "durationTicks": 96,
            "midi": 0,
            "name": "C-1",
            "ticks": 40512,
            "time": 55.5262325,
            "velocity": 0.3937007874015748
          },
          {
            "duration": 0.13157875000000274,
            "durationTicks": 96,
            "midi": 0,
            "name": "C-1",
            "ticks": 40896,
            "time": 56.052547499999996,
            "velocity": 0.3937007874015748
          },
          {
            "duration": 0.13157875000000274,
            "durationTicks": 96,
            "midi": 0,
            "name": "C-1",
            "ticks": 41472,
            "time": 56.84202,
            "velocity": 0.3937007874015748
          },
          {
            "duration": 0.13157874999999564,
            "durationTicks": 96,
            "midi": 0,
            "name": "C-1",
            "ticks": 42240,
            "time": 57.89465,
            "velocity": 0.3937007874015748
          },
          {
            "duration": 0.13157875000000274,
            "durationTicks": 96,
            "midi": 0,
            "name": "C-1",
            "ticks": 42432,
            "time": 58.1578075,
            "velocity": 0.3937007874015748
          },
          {
            "duration": 0.13157874999999564,
            "durationTicks": 96,
            "midi": 0,
            "name": "C-1",
            "ticks": 43008,
            "time": 58.94728,
            "velocity": 0.3937007874015748
          },
          {
            "duration": 0.13157875000000274,
            "durationTicks": 96,
            "midi": 0,
            "name": "C-1",
            "ticks": 43200,
            "time": 59.2104375,
            "velocity": 0.3937007874015748
          },
          {
            "duration": 0.13157875000000274,
            "durationTicks": 96,
            "midi": 0,
            "name": "C-1",
            "ticks": 43392,
            "time": 59.473594999999996,
            "velocity": 0.3937007874015748
          },
          {
            "duration": 0.13157875000000274,
            "durationTicks": 96,
            "midi": 0,
            "name": "C-1",
            "ticks": 43584,
            "time": 59.736752499999994,
            "velocity": 0.3937007874015748
          },
          {
            "duration": 0.13157874999999564,
            "durationTicks": 96,
            "midi": 0,
            "name": "C-1",
            "ticks": 43776,
            "time": 59.99991,
            "velocity": 0.3937007874015748
          },
          {
            "duration": 0.13157874999999564,
            "durationTicks": 96,
            "midi": 0,
            "name": "C-1",
            "ticks": 43968,
            "time": 60.2630675,
            "velocity": 0.3937007874015748
          },
          {
            "duration": 0.13157875000000274,
            "durationTicks": 96,
            "midi": 0,
            "name": "C-1",
            "ticks": 44160,
            "time": 60.526225,
            "velocity": 0.3937007874015748
          },
          {
            "duration": 0.13157875000000274,
            "durationTicks": 96,
            "midi": 0,
            "name": "C-1",
            "ticks": 44352,
            "time": 60.789382499999995,
            "velocity": 0.3937007874015748
          },
          {
            "duration": 0.13157874999999564,
            "durationTicks": 96,
            "midi": 0,
            "name": "C-1",
            "ticks": 44544,
            "time": 61.05254,
            "velocity": 0.3937007874015748
          },
          {
            "duration": 0.13157874999999564,
            "durationTicks": 96,
            "midi": 0,
            "name": "C-1",
            "ticks": 44736,
            "time": 61.3156975,
            "velocity": 0.3937007874015748
          },
          {
            "duration": 0.13157875000000274,
            "durationTicks": 96,
            "midi": 0,
            "name": "C-1",
            "ticks": 44928,
            "time": 61.578855,
            "velocity": 0.3937007874015748
          },
          {
            "duration": 0.13157875000000274,
            "durationTicks": 96,
            "midi": 0,
            "name": "C-1",
            "ticks": 45120,
            "time": 61.842012499999996,
            "velocity": 0.3937007874015748
          },
          {
            "duration": 0.13157875000000274,
            "durationTicks": 96,
            "midi": 0,
            "name": "C-1",
            "ticks": 45312,
            "time": 62.105169999999994,
            "velocity": 0.3937007874015748
          },
          {
            "duration": 0.13157874999999564,
            "durationTicks": 96,
            "midi": 0,
            "name": "C-1",
            "ticks": 45504,
            "time": 62.3683275,
            "velocity": 0.3937007874015748
          },
          {
            "duration": 0.13157875000000274,
            "durationTicks": 96,
            "midi": 0,
            "name": "C-1",
            "ticks": 45696,
            "time": 62.631485,
            "velocity": 0.3937007874015748
          },
          {
            "duration": 0.13157875000000274,
            "durationTicks": 96,
            "midi": 0,
            "name": "C-1",
            "ticks": 45888,
            "time": 62.894642499999996,
            "velocity": 0.3937007874015748
          },
          {
            "duration": 0.13157875000000274,
            "durationTicks": 96,
            "midi": 0,
            "name": "C-1",
            "ticks": 46080,
            "time": 63.157799999999995,
            "velocity": 0.3937007874015748
          },
          {
            "duration": 0.13157874999999564,
            "durationTicks": 96,
            "midi": 0,
            "name": "C-1",
            "ticks": 46272,
            "time": 63.4209575,
            "velocity": 0.3937007874015748
          },
          {
            "duration": 0.13157874999999564,
            "durationTicks": 96,
            "midi": 0,
            "name": "C-1",
            "ticks": 46464,
            "time": 63.684115,
            "velocity": 0.3937007874015748
          },
          {
            "duration": 0.13157875000000274,
            "durationTicks": 96,
            "midi": 0,
            "name": "C-1",
            "ticks": 46656,
            "time": 63.9472725,
            "velocity": 0.3937007874015748
          },
          {
            "duration": 0.13157874999998853,
            "durationTicks": 96,
            "midi": 0,
            "name": "C-1",
            "ticks": 46848,
            "time": 64.21043,
            "velocity": 0.3937007874015748
          },
          {
            "duration": 0.13157875000000274,
            "durationTicks": 96,
            "midi": 0,
            "name": "C-1",
            "ticks": 47040,
            "time": 64.4735875,
            "velocity": 0.3937007874015748
          },
          {
            "duration": 0.13157875000000274,
            "durationTicks": 96,
            "midi": 0,
            "name": "C-1",
            "ticks": 47232,
            "time": 64.736745,
            "velocity": 0.3937007874015748
          },
          {
            "duration": 0.13157875000000274,
            "durationTicks": 96,
            "midi": 0,
            "name": "C-1",
            "ticks": 47424,
            "time": 64.99990249999999,
            "velocity": 0.3937007874015748
          },
          {
            "duration": 0.13157875000000274,
            "durationTicks": 96,
            "midi": 0,
            "name": "C-1",
            "ticks": 47616,
            "time": 65.26306,
            "velocity": 0.3937007874015748
          },
          {
            "duration": 0.13157875000000274,
            "durationTicks": 96,
            "midi": 0,
            "name": "C-1",
            "ticks": 47808,
            "time": 65.5262175,
            "velocity": 0.3937007874015748
          },
          {
            "duration": 0.13157875000000274,
            "durationTicks": 96,
            "midi": 0,
            "name": "C-1",
            "ticks": 48000,
            "time": 65.78937499999999,
            "velocity": 0.3937007874015748
          },
          {
            "duration": 0.13157875000000274,
            "durationTicks": 96,
            "midi": 0,
            "name": "C-1",
            "ticks": 48192,
            "time": 66.0525325,
            "velocity": 0.3937007874015748
          },
          {
            "duration": 0.13157874999998853,
            "durationTicks": 96,
            "midi": 0,
            "name": "C-1",
            "ticks": 48384,
            "time": 66.31569,
            "velocity": 0.3937007874015748
          },
          {
            "duration": 0.13157875000000274,
            "durationTicks": 96,
            "midi": 0,
            "name": "C-1",
            "ticks": 48576,
            "time": 66.5788475,
            "velocity": 0.3937007874015748
          },
          {
            "duration": 0.13157875000000274,
            "durationTicks": 96,
            "midi": 0,
            "name": "C-1",
            "ticks": 48768,
            "time": 66.842005,
            "velocity": 0.3937007874015748
          },
          {
            "duration": 0.13157875000000274,
            "durationTicks": 96,
            "midi": 0,
            "name": "C-1",
            "ticks": 48960,
            "time": 67.10516249999999,
            "velocity": 0.3937007874015748
          },
          {
            "duration": 0.13157875000000274,
            "durationTicks": 96,
            "midi": 0,
            "name": "C-1",
            "ticks": 49152,
            "time": 67.36832,
            "velocity": 0.3937007874015748
          },
          {
            "duration": 0.13157875000000274,
            "durationTicks": 96,
            "midi": 0,
            "name": "C-1",
            "ticks": 50112,
            "time": 68.6841075,
            "velocity": 0.3937007874015748
          },
          {
            "duration": 0.13157875000000274,
            "durationTicks": 96,
            "midi": 0,
            "name": "C-1",
            "ticks": 50688,
            "time": 69.47358,
            "velocity": 0.3937007874015748
          },
          {
            "duration": 0.13157875000000274,
            "durationTicks": 96,
            "midi": 0,
            "name": "C-1",
            "ticks": 51648,
            "time": 70.7893675,
            "velocity": 0.3937007874015748
          },
          {
            "duration": 0.13157875000000274,
            "durationTicks": 96,
            "midi": 0,
            "name": "C-1",
            "ticks": 52224,
            "time": 71.57884,
            "velocity": 0.3937007874015748
          },
          {
            "duration": 0.13157875000000274,
            "durationTicks": 96,
            "midi": 0,
            "name": "C-1",
            "ticks": 53184,
            "time": 72.8946275,
            "velocity": 0.3937007874015748
          },
          {
            "duration": 0.13157875000000274,
            "durationTicks": 96,
            "midi": 0,
            "name": "C-1",
            "ticks": 53760,
            "time": 73.6841,
            "velocity": 0.3937007874015748
          },
          {
            "duration": 0.13157875000000274,
            "durationTicks": 96,
            "midi": 0,
            "name": "C-1",
            "ticks": 54720,
            "time": 74.9998875,
            "velocity": 0.3937007874015748
          },
          {
            "duration": 0.13157874999998853,
            "durationTicks": 96,
            "midi": 0,
            "name": "C-1",
            "ticks": 55296,
            "time": 75.78936,
            "velocity": 0.3937007874015748
          },
          {
            "duration": 0.13157874999998853,
            "durationTicks": 96,
            "midi": 0,
            "name": "C-1",
            "ticks": 56256,
            "time": 77.1051475,
            "velocity": 0.3937007874015748
          },
          {
            "duration": 0.13157874999998853,
            "durationTicks": 96,
            "midi": 0,
            "name": "C-1",
            "ticks": 56832,
            "time": 77.89462,
            "velocity": 0.3937007874015748
          },
          {
            "duration": 0.13157874999998853,
            "durationTicks": 96,
            "midi": 0,
            "name": "C-1",
            "ticks": 57792,
            "time": 79.2104075,
            "velocity": 0.3937007874015748
          },
          {
            "duration": 0.13157875000000274,
            "durationTicks": 96,
            "midi": 0,
            "name": "C-1",
            "ticks": 58368,
            "time": 79.99987999999999,
            "velocity": 0.3937007874015748
          },
          {
            "duration": 0.13157874999998853,
            "durationTicks": 96,
            "midi": 0,
            "name": "C-1",
            "ticks": 59328,
            "time": 81.3156675,
            "velocity": 0.3937007874015748
          },
          {
            "duration": 0.13157875000000274,
            "durationTicks": 96,
            "midi": 0,
            "name": "C-1",
            "ticks": 59904,
            "time": 82.10513999999999,
            "velocity": 0.3937007874015748
          },
          {
            "duration": 0.13157875000000274,
            "durationTicks": 96,
            "midi": 0,
            "name": "C-1",
            "ticks": 60864,
            "time": 83.42092749999999,
            "velocity": 0.3937007874015748
          },
          {
            "duration": 0.13157875000000274,
            "durationTicks": 96,
            "midi": 0,
            "name": "C-1",
            "ticks": 61440,
            "time": 84.21039999999999,
            "velocity": 0.3937007874015748
          },
          {
            "duration": 0.13157875000000274,
            "durationTicks": 96,
            "midi": 0,
            "name": "C-1",
            "ticks": 62400,
            "time": 85.52618749999999,
            "velocity": 0.3937007874015748
          },
          {
            "duration": 0.13157875000000274,
            "durationTicks": 96,
            "midi": 0,
            "name": "C-1",
            "ticks": 62976,
            "time": 86.31566,
            "velocity": 0.3937007874015748
          },
          {
            "duration": 0.13157875000000274,
            "durationTicks": 96,
            "midi": 0,
            "name": "C-1",
            "ticks": 63936,
            "time": 87.6314475,
            "velocity": 0.3937007874015748
          },
          {
            "duration": 0.13157875000000274,
            "durationTicks": 96,
            "midi": 0,
            "name": "C-1",
            "ticks": 64512,
            "time": 88.42092,
            "velocity": 0.3937007874015748
          },
          {
            "duration": 0.13157875000000274,
            "durationTicks": 96,
            "midi": 0,
            "name": "C-1",
            "ticks": 65472,
            "time": 89.7367075,
            "velocity": 0.3937007874015748
          },
          {
            "duration": 0.13157874999998853,
            "durationTicks": 96,
            "midi": 0,
            "name": "C-1",
            "ticks": 73728,
            "time": 101.05248,
            "velocity": 0.3937007874015748
          },
          {
            "duration": 0.13157875000000274,
            "durationTicks": 96,
            "midi": 0,
            "name": "C-1",
            "ticks": 74112,
            "time": 101.578795,
            "velocity": 0.3937007874015748
          },
          {
            "duration": 0.13157875000000274,
            "durationTicks": 96,
            "midi": 0,
            "name": "C-1",
            "ticks": 74496,
            "time": 102.10511,
            "velocity": 0.3937007874015748
          },
          {
            "duration": 0.13157875000000274,
            "durationTicks": 96,
            "midi": 0,
            "name": "C-1",
            "ticks": 74880,
            "time": 102.631425,
            "velocity": 0.3937007874015748
          },
          {
            "duration": 0.13157875000000274,
            "durationTicks": 96,
            "midi": 0,
            "name": "C-1",
            "ticks": 75264,
            "time": 103.15773999999999,
            "velocity": 0.3937007874015748
          },
          {
            "duration": 0.13157874999998853,
            "durationTicks": 96,
            "midi": 0,
            "name": "C-1",
            "ticks": 75648,
            "time": 103.684055,
            "velocity": 0.3937007874015748
          },
          {
            "duration": 0.13157875000000274,
            "durationTicks": 96,
            "midi": 0,
            "name": "C-1",
            "ticks": 76032,
            "time": 104.21037,
            "velocity": 0.3937007874015748
          },
          {
            "duration": 0.13157875000000274,
            "durationTicks": 96,
            "midi": 0,
            "name": "C-1",
            "ticks": 76416,
            "time": 104.736685,
            "velocity": 0.3937007874015748
          },
          {
            "duration": 0.13157875000000274,
            "durationTicks": 96,
            "midi": 0,
            "name": "C-1",
            "ticks": 76800,
            "time": 105.26299999999999,
            "velocity": 0.3937007874015748
          },
          {
            "duration": 0.13157874999998853,
            "durationTicks": 96,
            "midi": 0,
            "name": "C-1",
            "ticks": 77184,
            "time": 105.789315,
            "velocity": 0.3937007874015748
          },
          {
            "duration": 0.13157875000000274,
            "durationTicks": 96,
            "midi": 0,
            "name": "C-1",
            "ticks": 77568,
            "time": 106.31563,
            "velocity": 0.3937007874015748
          },
          {
            "duration": 0.13157875000000274,
            "durationTicks": 96,
            "midi": 0,
            "name": "C-1",
            "ticks": 77952,
            "time": 106.841945,
            "velocity": 0.3937007874015748
          },
          {
            "duration": 0.13157875000000274,
            "durationTicks": 96,
            "midi": 0,
            "name": "C-1",
            "ticks": 78336,
            "time": 107.36825999999999,
            "velocity": 0.3937007874015748
          },
          {
            "duration": 0.13157875000000274,
            "durationTicks": 96,
            "midi": 0,
            "name": "C-1",
            "ticks": 78720,
            "time": 107.89457499999999,
            "velocity": 0.3937007874015748
          },
          {
            "duration": 0.13157874999998853,
            "durationTicks": 96,
            "midi": 0,
            "name": "C-1",
            "ticks": 79104,
            "time": 108.42089,
            "velocity": 0.3937007874015748
          },
          {
            "duration": 0.13157875000000274,
            "durationTicks": 96,
            "midi": 0,
            "name": "C-1",
            "ticks": 79488,
            "time": 108.947205,
            "velocity": 0.3937007874015748
          },
          {
            "duration": 0.13157875000000274,
            "durationTicks": 96,
            "midi": 0,
            "name": "C-1",
            "ticks": 79872,
            "time": 109.47352,
            "velocity": 0.3937007874015748
          },
          {
            "duration": 0.13157875000000274,
            "durationTicks": 96,
            "midi": 0,
            "name": "C-1",
            "ticks": 80256,
            "time": 109.99983499999999,
            "velocity": 0.3937007874015748
          },
          {
            "duration": 0.13157874999998853,
            "durationTicks": 96,
            "midi": 0,
            "name": "C-1",
            "ticks": 80640,
            "time": 110.52615,
            "velocity": 0.3937007874015748
          },
          {
            "duration": 0.13157875000000274,
            "durationTicks": 96,
            "midi": 0,
            "name": "C-1",
            "ticks": 81024,
            "time": 111.052465,
            "velocity": 0.3937007874015748
          },
          {
            "duration": 0.13157875000000274,
            "durationTicks": 96,
            "midi": 0,
            "name": "C-1",
            "ticks": 81408,
            "time": 111.57878,
            "velocity": 0.3937007874015748
          },
          {
            "duration": 0.13157875000000274,
            "durationTicks": 96,
            "midi": 0,
            "name": "C-1",
            "ticks": 81792,
            "time": 112.10509499999999,
            "velocity": 0.3937007874015748
          },
          {
            "duration": 0.13157875000000274,
            "durationTicks": 96,
            "midi": 0,
            "name": "C-1",
            "ticks": 82176,
            "time": 112.63140999999999,
            "velocity": 0.3937007874015748
          },
          {
            "duration": 0.13157875000000274,
            "durationTicks": 96,
            "midi": 0,
            "name": "C-1",
            "ticks": 82560,
            "time": 113.157725,
            "velocity": 0.3937007874015748
          },
          {
            "duration": 0.13157875000000274,
            "durationTicks": 96,
            "midi": 0,
            "name": "C-1",
            "ticks": 82944,
            "time": 113.68404,
            "velocity": 0.3937007874015748
          },
          {
            "duration": 0.13157875000000274,
            "durationTicks": 96,
            "midi": 0,
            "name": "C-1",
            "ticks": 83328,
            "time": 114.21035499999999,
            "velocity": 0.3937007874015748
          },
          {
            "duration": 0.13157875000000274,
            "durationTicks": 96,
            "midi": 0,
            "name": "C-1",
            "ticks": 83712,
            "time": 114.73666999999999,
            "velocity": 0.3937007874015748
          },
          {
            "duration": 0.13157874999998853,
            "durationTicks": 96,
            "midi": 0,
            "name": "C-1",
            "ticks": 84096,
            "time": 115.262985,
            "velocity": 0.3937007874015748
          },
          {
            "duration": 0.13157875000000274,
            "durationTicks": 96,
            "midi": 0,
            "name": "C-1",
            "ticks": 84480,
            "time": 115.7893,
            "velocity": 0.3937007874015748
          },
          {
            "duration": 0.13157875000000274,
            "durationTicks": 96,
            "midi": 0,
            "name": "C-1",
            "ticks": 84864,
            "time": 116.315615,
            "velocity": 0.3937007874015748
          },
          {
            "duration": 0.13157875000000274,
            "durationTicks": 96,
            "midi": 0,
            "name": "C-1",
            "ticks": 85248,
            "time": 116.84192999999999,
            "velocity": 0.3937007874015748
          },
          {
            "duration": 0.13157874999998853,
            "durationTicks": 96,
            "midi": 0,
            "name": "C-1",
            "ticks": 85632,
            "time": 117.368245,
            "velocity": 0.3937007874015748
          },
          {
            "duration": 0.13157875000000274,
            "durationTicks": 96,
            "midi": 0,
            "name": "C-1",
            "ticks": 86016,
            "time": 117.89456,
            "velocity": 0.3937007874015748
          },
          {
            "duration": 0.13157875000000274,
            "durationTicks": 96,
            "midi": 0,
            "name": "C-1",
            "ticks": 86400,
            "time": 118.420875,
            "velocity": 0.3937007874015748
          },
          {
            "duration": 0.13157875000000274,
            "durationTicks": 96,
            "midi": 0,
            "name": "C-1",
            "ticks": 86784,
            "time": 118.94718999999999,
            "velocity": 0.3937007874015748
          },
          {
            "duration": 0.13157875000000274,
            "durationTicks": 96,
            "midi": 0,
            "name": "C-1",
            "ticks": 87168,
            "time": 119.47350499999999,
            "velocity": 0.3937007874015748
          },
          {
            "duration": 0.13157874999998853,
            "durationTicks": 96,
            "midi": 0,
            "name": "C-1",
            "ticks": 87552,
            "time": 119.99982,
            "velocity": 0.3937007874015748
          },
          {
            "duration": 0.13157875000000274,
            "durationTicks": 96,
            "midi": 0,
            "name": "C-1",
            "ticks": 87936,
            "time": 120.526135,
            "velocity": 0.3937007874015748
          },
          {
            "duration": 0.13157875000000274,
            "durationTicks": 96,
            "midi": 0,
            "name": "C-1",
            "ticks": 88320,
            "time": 121.05245,
            "velocity": 0.3937007874015748
          },
          {
            "duration": 0.13157875000000274,
            "durationTicks": 96,
            "midi": 0,
            "name": "C-1",
            "ticks": 88704,
            "time": 121.57876499999999,
            "velocity": 0.3937007874015748
          },
          {
            "duration": 0.13157874999998853,
            "durationTicks": 96,
            "midi": 0,
            "name": "C-1",
            "ticks": 89088,
            "time": 122.10508,
            "velocity": 0.3937007874015748
          },
          {
            "duration": 0.13157875000000274,
            "durationTicks": 96,
            "midi": 0,
            "name": "C-1",
            "ticks": 89472,
            "time": 122.631395,
            "velocity": 0.3937007874015748
          },
          {
            "duration": 0.13157875000000274,
            "durationTicks": 96,
            "midi": 0,
            "name": "C-1",
            "ticks": 89856,
            "time": 123.15771,
            "velocity": 0.3937007874015748
          },
          {
            "duration": 0.13157875000000274,
            "durationTicks": 96,
            "midi": 0,
            "name": "C-1",
            "ticks": 90240,
            "time": 123.68402499999999,
            "velocity": 0.3937007874015748
          },
          {
            "duration": 0.13157875000000274,
            "durationTicks": 96,
            "midi": 0,
            "name": "C-1",
            "ticks": 90624,
            "time": 124.21033999999999,
            "velocity": 0.3937007874015748
          },
          {
            "duration": 0.13157875000000274,
            "durationTicks": 96,
            "midi": 0,
            "name": "C-1",
            "ticks": 91008,
            "time": 124.736655,
            "velocity": 0.3937007874015748
          },
          {
            "duration": 0.13157875000000274,
            "durationTicks": 96,
            "midi": 0,
            "name": "C-1",
            "ticks": 91392,
            "time": 125.26297,
            "velocity": 0.3937007874015748
          },
          {
            "duration": 0.13157875000000274,
            "durationTicks": 96,
            "midi": 0,
            "name": "C-1",
            "ticks": 91776,
            "time": 125.78928499999999,
            "velocity": 0.3937007874015748
          },
          {
            "duration": 0.13157875000000274,
            "durationTicks": 96,
            "midi": 0,
            "name": "C-1",
            "ticks": 92160,
            "time": 126.31559999999999,
            "velocity": 0.3937007874015748
          },
          {
            "duration": 0.13157874999998853,
            "durationTicks": 96,
            "midi": 0,
            "name": "C-1",
            "ticks": 92544,
            "time": 126.841915,
            "velocity": 0.3937007874015748
          },
          {
            "duration": 0.13157875000000274,
            "durationTicks": 96,
            "midi": 0,
            "name": "C-1",
            "ticks": 92928,
            "time": 127.36823,
            "velocity": 0.3937007874015748
          },
          {
            "duration": 0.13157874999998853,
            "durationTicks": 96,
            "midi": 0,
            "name": "C-1",
            "ticks": 93312,
            "time": 127.894545,
            "velocity": 0.3937007874015748
          },
          {
            "duration": 0.13157874999998853,
            "durationTicks": 96,
            "midi": 0,
            "name": "C-1",
            "ticks": 93696,
            "time": 128.42086,
            "velocity": 0.3937007874015748
          },
          {
            "duration": 0.13157875000001695,
            "durationTicks": 96,
            "midi": 0,
            "name": "C-1",
            "ticks": 94080,
            "time": 128.947175,
            "velocity": 0.3937007874015748
          },
          {
            "duration": 0.13157874999998853,
            "durationTicks": 96,
            "midi": 0,
            "name": "C-1",
            "ticks": 94464,
            "time": 129.47349,
            "velocity": 0.3937007874015748
          },
          {
            "duration": 0.13157875000001695,
            "durationTicks": 96,
            "midi": 0,
            "name": "C-1",
            "ticks": 94848,
            "time": 129.99980499999998,
            "velocity": 0.3937007874015748
          },
          {
            "duration": 0.13157874999998853,
            "durationTicks": 96,
            "midi": 0,
            "name": "C-1",
            "ticks": 95232,
            "time": 130.52612,
            "velocity": 0.3937007874015748
          },
          {
            "duration": 0.13157874999998853,
            "durationTicks": 96,
            "midi": 0,
            "name": "C-1",
            "ticks": 95616,
            "time": 131.052435,
            "velocity": 0.3937007874015748
          },
          {
            "duration": 0.13157875000001695,
            "durationTicks": 96,
            "midi": 0,
            "name": "C-1",
            "ticks": 96000,
            "time": 131.57874999999999,
            "velocity": 0.3937007874015748
          },
          {
            "duration": 0.13157874999998853,
            "durationTicks": 96,
            "midi": 0,
            "name": "C-1",
            "ticks": 96384,
            "time": 132.105065,
            "velocity": 0.3937007874015748
          },
          {
            "duration": 0.13157874999998853,
            "durationTicks": 96,
            "midi": 0,
            "name": "C-1",
            "ticks": 96768,
            "time": 132.63138,
            "velocity": 0.3937007874015748
          },
          {
            "duration": 0.13157875000001695,
            "durationTicks": 96,
            "midi": 0,
            "name": "C-1",
            "ticks": 97152,
            "time": 133.157695,
            "velocity": 0.3937007874015748
          },
          {
            "duration": 0.13157874999998853,
            "durationTicks": 96,
            "midi": 0,
            "name": "C-1",
            "ticks": 97536,
            "time": 133.68401,
            "velocity": 0.3937007874015748
          },
          {
            "duration": 0.13157875000001695,
            "durationTicks": 96,
            "midi": 0,
            "name": "C-1",
            "ticks": 97920,
            "time": 134.21032499999998,
            "velocity": 0.3937007874015748
          },
          {
            "duration": 0.13157874999998853,
            "durationTicks": 96,
            "midi": 0,
            "name": "C-1",
            "ticks": 98304,
            "time": 134.73664,
            "velocity": 0.3937007874015748
          },
          {
            "duration": 0.13157874999998853,
            "durationTicks": 96,
            "midi": 0,
            "name": "C-1",
            "ticks": 98688,
            "time": 135.262955,
            "velocity": 0.3937007874015748
          },
          {
            "duration": 0.13157875000001695,
            "durationTicks": 96,
            "midi": 0,
            "name": "C-1",
            "ticks": 99072,
            "time": 135.78927,
            "velocity": 0.3937007874015748
          },
          {
            "duration": 0.13157874999998853,
            "durationTicks": 96,
            "midi": 0,
            "name": "C-1",
            "ticks": 99456,
            "time": 136.315585,
            "velocity": 0.3937007874015748
          },
          {
            "duration": 0.13157875000001695,
            "durationTicks": 96,
            "midi": 0,
            "name": "C-1",
            "ticks": 99840,
            "time": 136.84189999999998,
            "velocity": 0.3937007874015748
          },
          {
            "duration": 0.13157874999998853,
            "durationTicks": 96,
            "midi": 0,
            "name": "C-1",
            "ticks": 100224,
            "time": 137.368215,
            "velocity": 0.3937007874015748
          },
          {
            "duration": 0.13157874999998853,
            "durationTicks": 96,
            "midi": 0,
            "name": "C-1",
            "ticks": 100608,
            "time": 137.89453,
            "velocity": 0.3937007874015748
          },
          {
            "duration": 0.13157875000001695,
            "durationTicks": 96,
            "midi": 0,
            "name": "C-1",
            "ticks": 100992,
            "time": 138.42084499999999,
            "velocity": 0.3937007874015748
          },
          {
            "duration": 0.13157874999998853,
            "durationTicks": 96,
            "midi": 0,
            "name": "C-1",
            "ticks": 101376,
            "time": 138.94716,
            "velocity": 0.3937007874015748
          },
          {
            "duration": 0.13157874999998853,
            "durationTicks": 96,
            "midi": 0,
            "name": "C-1",
            "ticks": 101760,
            "time": 139.473475,
            "velocity": 0.3937007874015748
          },
          {
            "duration": 0.13157875000001695,
            "durationTicks": 96,
            "midi": 0,
            "name": "C-1",
            "ticks": 102144,
            "time": 139.99979,
            "velocity": 0.3937007874015748
          },
          {
            "duration": 0.13157874999998853,
            "durationTicks": 96,
            "midi": 0,
            "name": "C-1",
            "ticks": 102528,
            "time": 140.526105,
            "velocity": 0.3937007874015748
          },
          {
            "duration": 0.13157875000001695,
            "durationTicks": 96,
            "midi": 0,
            "name": "C-1",
            "ticks": 102912,
            "time": 141.05241999999998,
            "velocity": 0.3937007874015748
          },
          {
            "duration": 0.13157874999998853,
            "durationTicks": 96,
            "midi": 0,
            "name": "C-1",
            "ticks": 103296,
            "time": 141.578735,
            "velocity": 0.3937007874015748
          },
          {
            "duration": 0.13157874999998853,
            "durationTicks": 96,
            "midi": 0,
            "name": "C-1",
            "ticks": 103680,
            "time": 142.10505,
            "velocity": 0.3937007874015748
          },
          {
            "duration": 0.13157875000001695,
            "durationTicks": 96,
            "midi": 0,
            "name": "C-1",
            "ticks": 104064,
            "time": 142.631365,
            "velocity": 0.3937007874015748
          },
          {
            "duration": 0.13157874999998853,
            "durationTicks": 96,
            "midi": 0,
            "name": "C-1",
            "ticks": 104448,
            "time": 143.15768,
            "velocity": 0.3937007874015748
          },
          {
            "duration": 0.13157875000001695,
            "durationTicks": 96,
            "midi": 0,
            "name": "C-1",
            "ticks": 104832,
            "time": 143.68399499999998,
            "velocity": 0.3937007874015748
          },
          {
            "duration": 0.13157874999998853,
            "durationTicks": 96,
            "midi": 0,
            "name": "C-1",
            "ticks": 105408,
            "time": 144.4734675,
            "velocity": 0.3937007874015748
          },
          {
            "duration": 0.13157874999998853,
            "durationTicks": 96,
            "midi": 0,
            "name": "C-1",
            "ticks": 105600,
            "time": 144.736625,
            "velocity": 0.3937007874015748
          },
          {
            "duration": 0.13157875000001695,
            "durationTicks": 96,
            "midi": 0,
            "name": "C-1",
            "ticks": 105984,
            "time": 145.26294,
            "velocity": 0.3937007874015748
          },
          {
            "duration": 0.13157874999998853,
            "durationTicks": 96,
            "midi": 0,
            "name": "C-1",
            "ticks": 106368,
            "time": 145.789255,
            "velocity": 0.3937007874015748
          },
          {
            "duration": 0.13157875000001695,
            "durationTicks": 96,
            "midi": 0,
            "name": "C-1",
            "ticks": 106944,
            "time": 146.57872749999999,
            "velocity": 0.3937007874015748
          },
          {
            "duration": 0.13157875000001695,
            "durationTicks": 96,
            "midi": 0,
            "name": "C-1",
            "ticks": 107136,
            "time": 146.841885,
            "velocity": 0.3937007874015748
          },
          {
            "duration": 0.13157874999998853,
            "durationTicks": 96,
            "midi": 0,
            "name": "C-1",
            "ticks": 107520,
            "time": 147.3682,
            "velocity": 0.3937007874015748
          },
          {
            "duration": 0.13157875000001695,
            "durationTicks": 96,
            "midi": 0,
            "name": "C-1",
            "ticks": 107904,
            "time": 147.89451499999998,
            "velocity": 0.3937007874015748
          },
          {
            "duration": 0.13157874999998853,
            "durationTicks": 96,
            "midi": 0,
            "name": "C-1",
            "ticks": 108480,
            "time": 148.6839875,
            "velocity": 0.3937007874015748
          },
          {
            "duration": 0.13157874999998853,
            "durationTicks": 96,
            "midi": 0,
            "name": "C-1",
            "ticks": 108672,
            "time": 148.947145,
            "velocity": 0.3937007874015748
          },
          {
            "duration": 0.13157875000001695,
            "durationTicks": 96,
            "midi": 0,
            "name": "C-1",
            "ticks": 109056,
            "time": 149.47346,
            "velocity": 0.3937007874015748
          },
          {
            "duration": 0.13157874999998853,
            "durationTicks": 96,
            "midi": 0,
            "name": "C-1",
            "ticks": 109440,
            "time": 149.999775,
            "velocity": 0.3937007874015748
          },
          {
            "duration": 0.13157875000001695,
            "durationTicks": 96,
            "midi": 0,
            "name": "C-1",
            "ticks": 110016,
            "time": 150.7892475,
            "velocity": 0.3937007874015748
          },
          {
            "duration": 0.13157874999998853,
            "durationTicks": 96,
            "midi": 0,
            "name": "C-1",
            "ticks": 110208,
            "time": 151.052405,
            "velocity": 0.3937007874015748
          }
        ],
        "endOfTrackTicks": 110304
      },
      {
        "channel": 9,
        "controlChanges": {},
        "pitchBends": [],
        "instrument": {
          "family": "drums",
          "number": 0,
          "name": "standard kit"
        },
        "name": "8-Bit Drum Kit",
        "notes": [
          {
            "duration": 0.13157875000000274,
            "durationTicks": 96,
            "midi": 52,
            "name": "E3",
            "ticks": 43392,
            "time": 59.473594999999996,
            "velocity": 0.3937007874015748
          },
          {
            "duration": 0.13157875000000274,
            "durationTicks": 96,
            "midi": 52,
            "name": "E3",
            "ticks": 44160,
            "time": 60.526225,
            "velocity": 0.3937007874015748
          },
          {
            "duration": 0.13157875000000274,
            "durationTicks": 96,
            "midi": 52,
            "name": "E3",
            "ticks": 44928,
            "time": 61.578855,
            "velocity": 0.3937007874015748
          },
          {
            "duration": 0.13157875000000274,
            "durationTicks": 96,
            "midi": 52,
            "name": "E3",
            "ticks": 45696,
            "time": 62.631485,
            "velocity": 0.3937007874015748
          },
          {
            "duration": 0.13157874999999564,
            "durationTicks": 96,
            "midi": 52,
            "name": "E3",
            "ticks": 46464,
            "time": 63.684115,
            "velocity": 0.3937007874015748
          },
          {
            "duration": 0.13157875000000274,
            "durationTicks": 96,
            "midi": 52,
            "name": "E3",
            "ticks": 48000,
            "time": 65.78937499999999,
            "velocity": 0.3937007874015748
          },
          {
            "duration": 0.13157875000000274,
            "durationTicks": 96,
            "midi": 52,
            "name": "E3",
            "ticks": 48768,
            "time": 66.842005,
            "velocity": 0.3937007874015748
          }
        ],
        "endOfTrackTicks": 48864
      },
      {
        "channel": 9,
        "controlChanges": {},
        "pitchBends": [],
        "instrument": {
          "family": "drums",
          "number": 255
        },
        "name": "2013 Drum Kit",
        "notes": [
          {
            "duration": 0.13157875000000274,
            "durationTicks": 96,
            "midi": 57,
            "name": "A3",
            "ticks": 24576,
            "time": 33.68416,
            "velocity": 0.3937007874015748
          },
          {
            "duration": 0.13157875000000274,
            "durationTicks": 96,
            "midi": 42,
            "name": "F#2",
            "ticks": 24576,
            "time": 33.68416,
            "velocity": 0.3937007874015748
          },
          {
            "duration": 0.13157875000000274,
            "durationTicks": 96,
            "midi": 49,
            "name": "C#3",
            "ticks": 24576,
            "time": 33.68416,
            "velocity": 0.3937007874015748
          },
          {
            "duration": 0.13157875000000274,
            "durationTicks": 96,
            "midi": 35,
            "name": "B1",
            "ticks": 24576,
            "time": 33.68416,
            "velocity": 0.3937007874015748
          },
          {
            "duration": 0.13157875000000274,
            "durationTicks": 96,
            "midi": 42,
            "name": "F#2",
            "ticks": 24768,
            "time": 33.9473175,
            "velocity": 0.3937007874015748
          },
          {
            "duration": 0.13157875000000274,
            "durationTicks": 96,
            "midi": 42,
            "name": "F#2",
            "ticks": 24960,
            "time": 34.210474999999995,
            "velocity": 0.3937007874015748
          },
          {
            "duration": 0.13157875000000274,
            "durationTicks": 96,
            "midi": 38,
            "name": "D2",
            "ticks": 24960,
            "time": 34.210474999999995,
            "velocity": 0.3937007874015748
          },
          {
            "duration": 0.13157874999999564,
            "durationTicks": 96,
            "midi": 42,
            "name": "F#2",
            "ticks": 25152,
            "time": 34.4736325,
            "velocity": 0.3937007874015748
          },
          {
            "duration": 0.13157875000000274,
            "durationTicks": 96,
            "midi": 42,
            "name": "F#2",
            "ticks": 25344,
            "time": 34.73679,
            "velocity": 0.3937007874015748
          },
          {
            "duration": 0.13157875000000274,
            "durationTicks": 96,
            "midi": 42,
            "name": "F#2",
            "ticks": 25536,
            "time": 34.9999475,
            "velocity": 0.3937007874015748
          },
          {
            "duration": 0.13157875000000274,
            "durationTicks": 96,
            "midi": 35,
            "name": "B1",
            "ticks": 25536,
            "time": 34.9999475,
            "velocity": 0.3937007874015748
          },
          {
            "duration": 0.13157875000000274,
            "durationTicks": 96,
            "midi": 38,
            "name": "D2",
            "ticks": 25728,
            "time": 35.263104999999996,
            "velocity": 0.3937007874015748
          },
          {
            "duration": 0.13157875000000274,
            "durationTicks": 96,
            "midi": 42,
            "name": "F#2",
            "ticks": 25728,
            "time": 35.263104999999996,
            "velocity": 0.3937007874015748
          },
          {
            "duration": 0.13157874999999564,
            "durationTicks": 96,
            "midi": 42,
            "name": "F#2",
            "ticks": 25920,
            "time": 35.5262625,
            "velocity": 0.3937007874015748
          },
          {
            "duration": 0.13157874999999564,
            "durationTicks": 96,
            "midi": 35,
            "name": "B1",
            "ticks": 26112,
            "time": 35.78942,
            "velocity": 0.3937007874015748
          },
          {
            "duration": 0.13157874999999564,
            "durationTicks": 96,
            "midi": 42,
            "name": "F#2",
            "ticks": 26112,
            "time": 35.78942,
            "velocity": 0.3937007874015748
          },
          {
            "duration": 0.13157875000000274,
            "durationTicks": 96,
            "midi": 42,
            "name": "F#2",
            "ticks": 26304,
            "time": 36.0525775,
            "velocity": 0.3937007874015748
          },
          {
            "duration": 0.13157875000000274,
            "durationTicks": 96,
            "midi": 42,
            "name": "F#2",
            "ticks": 26496,
            "time": 36.315735,
            "velocity": 0.3937007874015748
          },
          {
            "duration": 0.13157875000000274,
            "durationTicks": 96,
            "midi": 38,
            "name": "D2",
            "ticks": 26496,
            "time": 36.315735,
            "velocity": 0.3937007874015748
          },
          {
            "duration": 0.13157875000000274,
            "durationTicks": 96,
            "midi": 42,
            "name": "F#2",
            "ticks": 26688,
            "time": 36.578892499999995,
            "velocity": 0.3937007874015748
          },
          {
            "duration": 0.13157874999999564,
            "durationTicks": 96,
            "midi": 42,
            "name": "F#2",
            "ticks": 26880,
            "time": 36.84205,
            "velocity": 0.3937007874015748
          },
          {
            "duration": 0.13157875000000274,
            "durationTicks": 96,
            "midi": 35,
            "name": "B1",
            "ticks": 27072,
            "time": 37.1052075,
            "velocity": 0.3937007874015748
          },
          {
            "duration": 0.13157875000000274,
            "durationTicks": 96,
            "midi": 42,
            "name": "F#2",
            "ticks": 27072,
            "time": 37.1052075,
            "velocity": 0.3937007874015748
          },
          {
            "duration": 0.13157875000000274,
            "durationTicks": 96,
            "midi": 42,
            "name": "F#2",
            "ticks": 27264,
            "time": 37.368365,
            "velocity": 0.3937007874015748
          },
          {
            "duration": 0.13157875000000274,
            "durationTicks": 96,
            "midi": 38,
            "name": "D2",
            "ticks": 27264,
            "time": 37.368365,
            "velocity": 0.3937007874015748
          },
          {
            "duration": 0.13157875000000274,
            "durationTicks": 96,
            "midi": 42,
            "name": "F#2",
            "ticks": 27456,
            "time": 37.631522499999996,
            "velocity": 0.3937007874015748
          },
          {
            "duration": 0.13157874999999564,
            "durationTicks": 96,
            "midi": 42,
            "name": "F#2",
            "ticks": 27648,
            "time": 37.89468,
            "velocity": 0.3937007874015748
          },
          {
            "duration": 0.13157874999999564,
            "durationTicks": 96,
            "midi": 35,
            "name": "B1",
            "ticks": 27648,
            "time": 37.89468,
            "velocity": 0.3937007874015748
          },
          {
            "duration": 0.13157874999999564,
            "durationTicks": 96,
            "midi": 42,
            "name": "F#2",
            "ticks": 27840,
            "time": 38.1578375,
            "velocity": 0.3937007874015748
          },
          {
            "duration": 0.13157875000000274,
            "durationTicks": 96,
            "midi": 42,
            "name": "F#2",
            "ticks": 28032,
            "time": 38.420995,
            "velocity": 0.3937007874015748
          },
          {
            "duration": 0.13157875000000274,
            "durationTicks": 96,
            "midi": 38,
            "name": "D2",
            "ticks": 28032,
            "time": 38.420995,
            "velocity": 0.3937007874015748
          },
          {
            "duration": 0.13157875000000274,
            "durationTicks": 96,
            "midi": 42,
            "name": "F#2",
            "ticks": 28224,
            "time": 38.684152499999996,
            "velocity": 0.3937007874015748
          },
          {
            "duration": 0.13157874999999564,
            "durationTicks": 96,
            "midi": 42,
            "name": "F#2",
            "ticks": 28416,
            "time": 38.94731,
            "velocity": 0.3937007874015748
          },
          {
            "duration": 0.13157874999999564,
            "durationTicks": 96,
            "midi": 42,
            "name": "F#2",
            "ticks": 28608,
            "time": 39.2104675,
            "velocity": 0.3937007874015748
          },
          {
            "duration": 0.13157874999999564,
            "durationTicks": 96,
            "midi": 35,
            "name": "B1",
            "ticks": 28608,
            "time": 39.2104675,
            "velocity": 0.3937007874015748
          },
          {
            "duration": 0.13157875000000274,
            "durationTicks": 96,
            "midi": 42,
            "name": "F#2",
            "ticks": 28800,
            "time": 39.473625,
            "velocity": 0.3937007874015748
          },
          {
            "duration": 0.13157875000000274,
            "durationTicks": 96,
            "midi": 38,
            "name": "D2",
            "ticks": 28800,
            "time": 39.473625,
            "velocity": 0.3937007874015748
          },
          {
            "duration": 0.13157875000000274,
            "durationTicks": 96,
            "midi": 42,
            "name": "F#2",
            "ticks": 28992,
            "time": 39.7367825,
            "velocity": 0.3937007874015748
          },
          {
            "duration": 0.13157875000000274,
            "durationTicks": 96,
            "midi": 35,
            "name": "B1",
            "ticks": 29184,
            "time": 39.999939999999995,
            "velocity": 0.3937007874015748
          },
          {
            "duration": 0.13157875000000274,
            "durationTicks": 96,
            "midi": 42,
            "name": "F#2",
            "ticks": 29184,
            "time": 39.999939999999995,
            "velocity": 0.3937007874015748
          },
          {
            "duration": 0.13157874999999564,
            "durationTicks": 96,
            "midi": 42,
            "name": "F#2",
            "ticks": 29376,
            "time": 40.2630975,
            "velocity": 0.3937007874015748
          },
          {
            "duration": 0.13157875000000274,
            "durationTicks": 96,
            "midi": 38,
            "name": "D2",
            "ticks": 29568,
            "time": 40.526255,
            "velocity": 0.3937007874015748
          },
          {
            "duration": 0.13157875000000274,
            "durationTicks": 96,
            "midi": 42,
            "name": "F#2",
            "ticks": 29568,
            "time": 40.526255,
            "velocity": 0.3937007874015748
          },
          {
            "duration": 0.13157875000000274,
            "durationTicks": 96,
            "midi": 42,
            "name": "F#2",
            "ticks": 29760,
            "time": 40.7894125,
            "velocity": 0.3937007874015748
          },
          {
            "duration": 0.13157875000000274,
            "durationTicks": 96,
            "midi": 42,
            "name": "F#2",
            "ticks": 29952,
            "time": 41.052569999999996,
            "velocity": 0.3937007874015748
          },
          {
            "duration": 0.13157874999999564,
            "durationTicks": 96,
            "midi": 42,
            "name": "F#2",
            "ticks": 30144,
            "time": 41.3157275,
            "velocity": 0.3937007874015748
          },
          {
            "duration": 0.13157874999999564,
            "durationTicks": 96,
            "midi": 35,
            "name": "B1",
            "ticks": 30144,
            "time": 41.3157275,
            "velocity": 0.3937007874015748
          },
          {
            "duration": 0.13157874999999564,
            "durationTicks": 96,
            "midi": 38,
            "name": "D2",
            "ticks": 30336,
            "time": 41.578885,
            "velocity": 0.3937007874015748
          },
          {
            "duration": 0.13157874999999564,
            "durationTicks": 96,
            "midi": 42,
            "name": "F#2",
            "ticks": 30336,
            "time": 41.578885,
            "velocity": 0.3937007874015748
          },
          {
            "duration": 0.13157875000000274,
            "durationTicks": 96,
            "midi": 42,
            "name": "F#2",
            "ticks": 30528,
            "time": 41.8420425,
            "velocity": 0.3937007874015748
          },
          {
            "duration": 0.13157875000000274,
            "durationTicks": 96,
            "midi": 35,
            "name": "B1",
            "ticks": 30720,
            "time": 42.105199999999996,
            "velocity": 0.3937007874015748
          },
          {
            "duration": 0.13157875000000274,
            "durationTicks": 96,
            "midi": 42,
            "name": "F#2",
            "ticks": 30720,
            "time": 42.105199999999996,
            "velocity": 0.3937007874015748
          },
          {
            "duration": 0.13157875000000274,
            "durationTicks": 96,
            "midi": 42,
            "name": "F#2",
            "ticks": 30912,
            "time": 42.368357499999995,
            "velocity": 0.3937007874015748
          },
          {
            "duration": 0.13157874999999564,
            "durationTicks": 96,
            "midi": 38,
            "name": "D2",
            "ticks": 31104,
            "time": 42.631515,
            "velocity": 0.3937007874015748
          },
          {
            "duration": 0.13157874999999564,
            "durationTicks": 96,
            "midi": 42,
            "name": "F#2",
            "ticks": 31104,
            "time": 42.631515,
            "velocity": 0.3937007874015748
          },
          {
            "duration": 0.13157875000000274,
            "durationTicks": 96,
            "midi": 42,
            "name": "F#2",
            "ticks": 31296,
            "time": 42.8946725,
            "velocity": 0.3937007874015748
          },
          {
            "duration": 0.13157875000000274,
            "durationTicks": 96,
            "midi": 42,
            "name": "F#2",
            "ticks": 31488,
            "time": 43.15783,
            "velocity": 0.3937007874015748
          },
          {
            "duration": 0.13157875000000274,
            "durationTicks": 96,
            "midi": 35,
            "name": "B1",
            "ticks": 31680,
            "time": 43.420987499999995,
            "velocity": 0.3937007874015748
          },
          {
            "duration": 0.13157875000000274,
            "durationTicks": 96,
            "midi": 42,
            "name": "F#2",
            "ticks": 31680,
            "time": 43.420987499999995,
            "velocity": 0.3937007874015748
          },
          {
            "duration": 0.13157874999999564,
            "durationTicks": 96,
            "midi": 42,
            "name": "F#2",
            "ticks": 31872,
            "time": 43.684145,
            "velocity": 0.3937007874015748
          },
          {
            "duration": 0.13157874999999564,
            "durationTicks": 96,
            "midi": 38,
            "name": "D2",
            "ticks": 31872,
            "time": 43.684145,
            "velocity": 0.3937007874015748
          },
          {
            "duration": 0.13157874999999564,
            "durationTicks": 96,
            "midi": 42,
            "name": "F#2",
            "ticks": 32064,
            "time": 43.9473025,
            "velocity": 0.3937007874015748
          },
          {
            "duration": 0.13157875000000274,
            "durationTicks": 96,
            "midi": 42,
            "name": "F#2",
            "ticks": 32256,
            "time": 44.21046,
            "velocity": 0.3937007874015748
          },
          {
            "duration": 0.13157875000000274,
            "durationTicks": 96,
            "midi": 35,
            "name": "B1",
            "ticks": 32256,
            "time": 44.21046,
            "velocity": 0.3937007874015748
          },
          {
            "duration": 0.13157875000000274,
            "durationTicks": 96,
            "midi": 42,
            "name": "F#2",
            "ticks": 32448,
            "time": 44.473617499999996,
            "velocity": 0.3937007874015748
          },
          {
            "duration": 0.13157874999999564,
            "durationTicks": 96,
            "midi": 38,
            "name": "D2",
            "ticks": 32640,
            "time": 44.736775,
            "velocity": 0.3937007874015748
          },
          {
            "duration": 0.13157874999999564,
            "durationTicks": 96,
            "midi": 42,
            "name": "F#2",
            "ticks": 32640,
            "time": 44.736775,
            "velocity": 0.3937007874015748
          },
          {
            "duration": 0.13157874999999564,
            "durationTicks": 96,
            "midi": 42,
            "name": "F#2",
            "ticks": 32832,
            "time": 44.9999325,
            "velocity": 0.3937007874015748
          },
          {
            "duration": 0.13157875000000274,
            "durationTicks": 96,
            "midi": 42,
            "name": "F#2",
            "ticks": 33024,
            "time": 45.26309,
            "velocity": 0.3937007874015748
          },
          {
            "duration": 0.13157875000000274,
            "durationTicks": 96,
            "midi": 42,
            "name": "F#2",
            "ticks": 33216,
            "time": 45.5262475,
            "velocity": 0.3937007874015748
          },
          {
            "duration": 0.13157875000000274,
            "durationTicks": 96,
            "midi": 35,
            "name": "B1",
            "ticks": 33216,
            "time": 45.5262475,
            "velocity": 0.3937007874015748
          },
          {
            "duration": 0.13157875000000274,
            "durationTicks": 96,
            "midi": 38,
            "name": "D2",
            "ticks": 33408,
            "time": 45.789404999999995,
            "velocity": 0.3937007874015748
          },
          {
            "duration": 0.13157875000000274,
            "durationTicks": 96,
            "midi": 42,
            "name": "F#2",
            "ticks": 33408,
            "time": 45.789404999999995,
            "velocity": 0.3937007874015748
          },
          {
            "duration": 0.13157874999999564,
            "durationTicks": 96,
            "midi": 42,
            "name": "F#2",
            "ticks": 33600,
            "time": 46.0525625,
            "velocity": 0.3937007874015748
          },
          {
            "duration": 0.13157874999999564,
            "durationTicks": 96,
            "midi": 42,
            "name": "F#2",
            "ticks": 33792,
            "time": 46.31572,
            "velocity": 0.3937007874015748
          },
          {
            "duration": 0.13157874999999564,
            "durationTicks": 96,
            "midi": 35,
            "name": "B1",
            "ticks": 33792,
            "time": 46.31572,
            "velocity": 0.3937007874015748
          },
          {
            "duration": 0.13157875000000274,
            "durationTicks": 96,
            "midi": 42,
            "name": "F#2",
            "ticks": 33984,
            "time": 46.5788775,
            "velocity": 0.3937007874015748
          },
          {
            "duration": 0.13157875000000274,
            "durationTicks": 96,
            "midi": 42,
            "name": "F#2",
            "ticks": 34176,
            "time": 46.842034999999996,
            "velocity": 0.3937007874015748
          },
          {
            "duration": 0.13157875000000274,
            "durationTicks": 96,
            "midi": 38,
            "name": "D2",
            "ticks": 34176,
            "time": 46.842034999999996,
            "velocity": 0.3937007874015748
          },
          {
            "duration": 0.13157874999999564,
            "durationTicks": 96,
            "midi": 42,
            "name": "F#2",
            "ticks": 34368,
            "time": 47.1051925,
            "velocity": 0.3937007874015748
          },
          {
            "duration": 0.13157874999999564,
            "durationTicks": 96,
            "midi": 42,
            "name": "F#2",
            "ticks": 34560,
            "time": 47.36835,
            "velocity": 0.3937007874015748
          },
          {
            "duration": 0.13157875000000274,
            "durationTicks": 96,
            "midi": 42,
            "name": "F#2",
            "ticks": 34752,
            "time": 47.6315075,
            "velocity": 0.3937007874015748
          },
          {
            "duration": 0.13157875000000274,
            "durationTicks": 96,
            "midi": 35,
            "name": "B1",
            "ticks": 34752,
            "time": 47.6315075,
            "velocity": 0.3937007874015748
          },
          {
            "duration": 0.13157875000000274,
            "durationTicks": 96,
            "midi": 38,
            "name": "D2",
            "ticks": 34944,
            "time": 47.894664999999996,
            "velocity": 0.3937007874015748
          },
          {
            "duration": 0.13157875000000274,
            "durationTicks": 96,
            "midi": 42,
            "name": "F#2",
            "ticks": 34944,
            "time": 47.894664999999996,
            "velocity": 0.3937007874015748
          },
          {
            "duration": 0.13157875000000274,
            "durationTicks": 96,
            "midi": 42,
            "name": "F#2",
            "ticks": 35136,
            "time": 48.157822499999995,
            "velocity": 0.3937007874015748
          },
          {
            "duration": 0.13157874999999564,
            "durationTicks": 96,
            "midi": 42,
            "name": "F#2",
            "ticks": 35328,
            "time": 48.42098,
            "velocity": 0.3937007874015748
          },
          {
            "duration": 0.13157874999999564,
            "durationTicks": 96,
            "midi": 35,
            "name": "B1",
            "ticks": 35328,
            "time": 48.42098,
            "velocity": 0.3937007874015748
          },
          {
            "duration": 0.13157875000000274,
            "durationTicks": 96,
            "midi": 42,
            "name": "F#2",
            "ticks": 35520,
            "time": 48.6841375,
            "velocity": 0.3937007874015748
          },
          {
            "duration": 0.13157875000000274,
            "durationTicks": 96,
            "midi": 42,
            "name": "F#2",
            "ticks": 35712,
            "time": 48.947295,
            "velocity": 0.3937007874015748
          },
          {
            "duration": 0.13157875000000274,
            "durationTicks": 96,
            "midi": 38,
            "name": "D2",
            "ticks": 35712,
            "time": 48.947295,
            "velocity": 0.3937007874015748
          },
          {
            "duration": 0.13157875000000274,
            "durationTicks": 96,
            "midi": 42,
            "name": "F#2",
            "ticks": 35904,
            "time": 49.210452499999995,
            "velocity": 0.3937007874015748
          },
          {
            "duration": 0.13157874999999564,
            "durationTicks": 96,
            "midi": 42,
            "name": "F#2",
            "ticks": 36096,
            "time": 49.47361,
            "velocity": 0.3937007874015748
          },
          {
            "duration": 0.13157874999999564,
            "durationTicks": 96,
            "midi": 42,
            "name": "F#2",
            "ticks": 36288,
            "time": 49.7367675,
            "velocity": 0.3937007874015748
          },
          {
            "duration": 0.13157874999999564,
            "durationTicks": 96,
            "midi": 35,
            "name": "B1",
            "ticks": 36288,
            "time": 49.7367675,
            "velocity": 0.3937007874015748
          },
          {
            "duration": 0.13157875000000274,
            "durationTicks": 96,
            "midi": 42,
            "name": "F#2",
            "ticks": 36480,
            "time": 49.999925,
            "velocity": 0.3937007874015748
          },
          {
            "duration": 0.13157875000000274,
            "durationTicks": 96,
            "midi": 38,
            "name": "D2",
            "ticks": 36480,
            "time": 49.999925,
            "velocity": 0.3937007874015748
          },
          {
            "duration": 0.13157875000000274,
            "durationTicks": 96,
            "midi": 42,
            "name": "F#2",
            "ticks": 36672,
            "time": 50.263082499999996,
            "velocity": 0.3937007874015748
          },
          {
            "duration": 0.13157874999999564,
            "durationTicks": 96,
            "midi": 35,
            "name": "B1",
            "ticks": 36864,
            "time": 50.52624,
            "velocity": 0.3937007874015748
          },
          {
            "duration": 0.13157874999999564,
            "durationTicks": 96,
            "midi": 57,
            "name": "A3",
            "ticks": 36864,
            "time": 50.52624,
            "velocity": 0.3937007874015748
          },
          {
            "duration": 0.13157874999999564,
            "durationTicks": 96,
            "midi": 49,
            "name": "C#3",
            "ticks": 36864,
            "time": 50.52624,
            "velocity": 0.3937007874015748
          },
          {
            "duration": 0.13157875000000274,
            "durationTicks": 96,
            "midi": 38,
            "name": "D2",
            "ticks": 37248,
            "time": 51.052555,
            "velocity": 0.3937007874015748
          },
          {
            "duration": 0.13157874999999564,
            "durationTicks": 96,
            "midi": 35,
            "name": "B1",
            "ticks": 37824,
            "time": 51.8420275,
            "velocity": 0.3937007874015748
          },
          {
            "duration": 0.13157874999999564,
            "durationTicks": 96,
            "midi": 38,
            "name": "D2",
            "ticks": 38016,
            "time": 52.105185,
            "velocity": 0.3937007874015748
          },
          {
            "duration": 0.13157875000000274,
            "durationTicks": 96,
            "midi": 35,
            "name": "B1",
            "ticks": 38400,
            "time": 52.631499999999996,
            "velocity": 0.3937007874015748
          },
          {
            "duration": 0.13157874999999564,
            "durationTicks": 96,
            "midi": 38,
            "name": "D2",
            "ticks": 38784,
            "time": 53.157815,
            "velocity": 0.3937007874015748
          },
          {
            "duration": 0.13157875000000274,
            "durationTicks": 96,
            "midi": 35,
            "name": "B1",
            "ticks": 39360,
            "time": 53.947287499999995,
            "velocity": 0.3937007874015748
          },
          {
            "duration": 0.13157874999999564,
            "durationTicks": 96,
            "midi": 38,
            "name": "D2",
            "ticks": 39552,
            "time": 54.210445,
            "velocity": 0.3937007874015748
          },
          {
            "duration": 0.13157875000000274,
            "durationTicks": 96,
            "midi": 35,
            "name": "B1",
            "ticks": 39936,
            "time": 54.73676,
            "velocity": 0.3937007874015748
          },
          {
            "duration": 0.13157874999999564,
            "durationTicks": 96,
            "midi": 38,
            "name": "D2",
            "ticks": 40320,
            "time": 55.263075,
            "velocity": 0.3937007874015748
          },
          {
            "duration": 0.13157875000000274,
            "durationTicks": 96,
            "midi": 35,
            "name": "B1",
            "ticks": 40896,
            "time": 56.052547499999996,
            "velocity": 0.3937007874015748
          },
          {
            "duration": 0.13157875000000274,
            "durationTicks": 96,
            "midi": 38,
            "name": "D2",
            "ticks": 41088,
            "time": 56.315704999999994,
            "velocity": 0.3937007874015748
          },
          {
            "duration": 0.13157875000000274,
            "durationTicks": 96,
            "midi": 35,
            "name": "B1",
            "ticks": 41472,
            "time": 56.84202,
            "velocity": 0.3937007874015748
          },
          {
            "duration": 0.13157875000000274,
            "durationTicks": 96,
            "midi": 38,
            "name": "D2",
            "ticks": 41856,
            "time": 57.368334999999995,
            "velocity": 0.3937007874015748
          },
          {
            "duration": 0.13157874999999564,
            "durationTicks": 96,
            "midi": 35,
            "name": "B1",
            "ticks": 42240,
            "time": 57.89465,
            "velocity": 0.3937007874015748
          },
          {
            "duration": 0.13157875000000274,
            "durationTicks": 96,
            "midi": 35,
            "name": "B1",
            "ticks": 42432,
            "time": 58.1578075,
            "velocity": 0.3937007874015748
          },
          {
            "duration": 0.13157875000000274,
            "durationTicks": 96,
            "midi": 38,
            "name": "D2",
            "ticks": 42624,
            "time": 58.420964999999995,
            "velocity": 0.3937007874015748
          },
          {
            "duration": 0.13157874999999564,
            "durationTicks": 96,
            "midi": 38,
            "name": "D2",
            "ticks": 42816,
            "time": 58.6841225,
            "velocity": 0.3937007874015748
          },
          {
            "duration": 0.13157875000000274,
            "durationTicks": 96,
            "midi": 38,
            "name": "D2",
            "ticks": 42912,
            "time": 58.81570125,
            "velocity": 0.3937007874015748
          },
          {
            "duration": 0.13157874999999564,
            "durationTicks": 96,
            "midi": 57,
            "name": "A3",
            "ticks": 43008,
            "time": 58.94728,
            "velocity": 0.3937007874015748
          },
          {
            "duration": 0.13157874999999564,
            "durationTicks": 96,
            "midi": 36,
            "name": "C2",
            "ticks": 43008,
            "time": 58.94728,
            "velocity": 0.3937007874015748
          },
          {
            "duration": 0.13157874999999564,
            "durationTicks": 96,
            "midi": 49,
            "name": "C#3",
            "ticks": 43008,
            "time": 58.94728,
            "velocity": 0.3937007874015748
          },
          {
            "duration": 0.13157874999999564,
            "durationTicks": 96,
            "midi": 42,
            "name": "F#2",
            "ticks": 43008,
            "time": 58.94728,
            "velocity": 0.3937007874015748
          },
          {
            "duration": 0.13157874999999564,
            "durationTicks": 96,
            "midi": 35,
            "name": "B1",
            "ticks": 43008,
            "time": 58.94728,
            "velocity": 0.3937007874015748
          },
          {
            "duration": 0.13157875000000274,
            "durationTicks": 96,
            "midi": 42,
            "name": "F#2",
            "ticks": 43200,
            "time": 59.2104375,
            "velocity": 0.3937007874015748
          },
          {
            "duration": 0.13157875000000274,
            "durationTicks": 96,
            "midi": 42,
            "name": "F#2",
            "ticks": 43392,
            "time": 59.473594999999996,
            "velocity": 0.3937007874015748
          },
          {
            "duration": 0.13157875000000274,
            "durationTicks": 96,
            "midi": 38,
            "name": "D2",
            "ticks": 43392,
            "time": 59.473594999999996,
            "velocity": 0.3937007874015748
          },
          {
            "duration": 0.13157875000000274,
            "durationTicks": 96,
            "midi": 40,
            "name": "E2",
            "ticks": 43392,
            "time": 59.473594999999996,
            "velocity": 0.3937007874015748
          },
          {
            "duration": 0.13157875000000274,
            "durationTicks": 96,
            "midi": 42,
            "name": "F#2",
            "ticks": 43584,
            "time": 59.736752499999994,
            "velocity": 0.3937007874015748
          },
          {
            "duration": 0.13157874999999564,
            "durationTicks": 96,
            "midi": 42,
            "name": "F#2",
            "ticks": 43776,
            "time": 59.99991,
            "velocity": 0.3937007874015748
          },
          {
            "duration": 0.13157874999999564,
            "durationTicks": 96,
            "midi": 36,
            "name": "C2",
            "ticks": 43776,
            "time": 59.99991,
            "velocity": 0.3937007874015748
          },
          {
            "duration": 0.13157874999999564,
            "durationTicks": 96,
            "midi": 35,
            "name": "B1",
            "ticks": 43776,
            "time": 59.99991,
            "velocity": 0.3937007874015748
          },
          {
            "duration": 0.13157874999999564,
            "durationTicks": 96,
            "midi": 42,
            "name": "F#2",
            "ticks": 43968,
            "time": 60.2630675,
            "velocity": 0.3937007874015748
          },
          {
            "duration": 0.13157875000000274,
            "durationTicks": 96,
            "midi": 40,
            "name": "E2",
            "ticks": 44160,
            "time": 60.526225,
            "velocity": 0.3937007874015748
          },
          {
            "duration": 0.13157875000000274,
            "durationTicks": 96,
            "midi": 42,
            "name": "F#2",
            "ticks": 44160,
            "time": 60.526225,
            "velocity": 0.3937007874015748
          },
          {
            "duration": 0.13157875000000274,
            "durationTicks": 96,
            "midi": 38,
            "name": "D2",
            "ticks": 44160,
            "time": 60.526225,
            "velocity": 0.3937007874015748
          },
          {
            "duration": 0.13157875000000274,
            "durationTicks": 96,
            "midi": 42,
            "name": "F#2",
            "ticks": 44352,
            "time": 60.789382499999995,
            "velocity": 0.3937007874015748
          },
          {
            "duration": 0.13157874999999564,
            "durationTicks": 96,
            "midi": 35,
            "name": "B1",
            "ticks": 44544,
            "time": 61.05254,
            "velocity": 0.3937007874015748
          },
          {
            "duration": 0.13157874999999564,
            "durationTicks": 96,
            "midi": 36,
            "name": "C2",
            "ticks": 44544,
            "time": 61.05254,
            "velocity": 0.3937007874015748
          },
          {
            "duration": 0.13157874999999564,
            "durationTicks": 96,
            "midi": 42,
            "name": "F#2",
            "ticks": 44544,
            "time": 61.05254,
            "velocity": 0.3937007874015748
          },
          {
            "duration": 0.13157874999999564,
            "durationTicks": 96,
            "midi": 42,
            "name": "F#2",
            "ticks": 44736,
            "time": 61.3156975,
            "velocity": 0.3937007874015748
          },
          {
            "duration": 0.13157875000000274,
            "durationTicks": 96,
            "midi": 38,
            "name": "D2",
            "ticks": 44928,
            "time": 61.578855,
            "velocity": 0.3937007874015748
          },
          {
            "duration": 0.13157875000000274,
            "durationTicks": 96,
            "midi": 42,
            "name": "F#2",
            "ticks": 44928,
            "time": 61.578855,
            "velocity": 0.3937007874015748
          },
          {
            "duration": 0.13157875000000274,
            "durationTicks": 96,
            "midi": 40,
            "name": "E2",
            "ticks": 44928,
            "time": 61.578855,
            "velocity": 0.3937007874015748
          },
          {
            "duration": 0.13157875000000274,
            "durationTicks": 96,
            "midi": 42,
            "name": "F#2",
            "ticks": 45120,
            "time": 61.842012499999996,
            "velocity": 0.3937007874015748
          },
          {
            "duration": 0.13157875000000274,
            "durationTicks": 96,
            "midi": 35,
            "name": "B1",
            "ticks": 45312,
            "time": 62.105169999999994,
            "velocity": 0.3937007874015748
          },
          {
            "duration": 0.13157875000000274,
            "durationTicks": 96,
            "midi": 36,
            "name": "C2",
            "ticks": 45312,
            "time": 62.105169999999994,
            "velocity": 0.3937007874015748
          },
          {
            "duration": 0.13157875000000274,
            "durationTicks": 96,
            "midi": 42,
            "name": "F#2",
            "ticks": 45312,
            "time": 62.105169999999994,
            "velocity": 0.3937007874015748
          },
          {
            "duration": 0.13157874999999564,
            "durationTicks": 96,
            "midi": 42,
            "name": "F#2",
            "ticks": 45504,
            "time": 62.3683275,
            "velocity": 0.3937007874015748
          },
          {
            "duration": 0.13157875000000274,
            "durationTicks": 96,
            "midi": 42,
            "name": "F#2",
            "ticks": 45696,
            "time": 62.631485,
            "velocity": 0.3937007874015748
          },
          {
            "duration": 0.13157875000000274,
            "durationTicks": 96,
            "midi": 40,
            "name": "E2",
            "ticks": 45696,
            "time": 62.631485,
            "velocity": 0.3937007874015748
          },
          {
            "duration": 0.13157875000000274,
            "durationTicks": 96,
            "midi": 38,
            "name": "D2",
            "ticks": 45696,
            "time": 62.631485,
            "velocity": 0.3937007874015748
          },
          {
            "duration": 0.13157875000000274,
            "durationTicks": 96,
            "midi": 42,
            "name": "F#2",
            "ticks": 45888,
            "time": 62.894642499999996,
            "velocity": 0.3937007874015748
          },
          {
            "duration": 0.13157875000000274,
            "durationTicks": 96,
            "midi": 35,
            "name": "B1",
            "ticks": 46080,
            "time": 63.157799999999995,
            "velocity": 0.3937007874015748
          },
          {
            "duration": 0.13157875000000274,
            "durationTicks": 96,
            "midi": 36,
            "name": "C2",
            "ticks": 46080,
            "time": 63.157799999999995,
            "velocity": 0.3937007874015748
          },
          {
            "duration": 0.13157875000000274,
            "durationTicks": 96,
            "midi": 42,
            "name": "F#2",
            "ticks": 46080,
            "time": 63.157799999999995,
            "velocity": 0.3937007874015748
          },
          {
            "duration": 0.13157874999999564,
            "durationTicks": 96,
            "midi": 42,
            "name": "F#2",
            "ticks": 46272,
            "time": 63.4209575,
            "velocity": 0.3937007874015748
          },
          {
            "duration": 0.13157874999999564,
            "durationTicks": 96,
            "midi": 40,
            "name": "E2",
            "ticks": 46464,
            "time": 63.684115,
            "velocity": 0.3937007874015748
          },
          {
            "duration": 0.13157874999999564,
            "durationTicks": 96,
            "midi": 42,
            "name": "F#2",
            "ticks": 46464,
            "time": 63.684115,
            "velocity": 0.3937007874015748
          },
          {
            "duration": 0.13157874999999564,
            "durationTicks": 96,
            "midi": 38,
            "name": "D2",
            "ticks": 46464,
            "time": 63.684115,
            "velocity": 0.3937007874015748
          },
          {
            "duration": 0.13157875000000274,
            "durationTicks": 96,
            "midi": 42,
            "name": "F#2",
            "ticks": 46656,
            "time": 63.9472725,
            "velocity": 0.3937007874015748
          },
          {
            "duration": 0.13157874999998853,
            "durationTicks": 96,
            "midi": 35,
            "name": "B1",
            "ticks": 46848,
            "time": 64.21043,
            "velocity": 0.3937007874015748
          },
          {
            "duration": 0.13157874999998853,
            "durationTicks": 96,
            "midi": 42,
            "name": "F#2",
            "ticks": 46848,
            "time": 64.21043,
            "velocity": 0.3937007874015748
          },
          {
            "duration": 0.13157874999998853,
            "durationTicks": 96,
            "midi": 36,
            "name": "C2",
            "ticks": 46848,
            "time": 64.21043,
            "velocity": 0.3937007874015748
          },
          {
            "duration": 0.13157875000000274,
            "durationTicks": 96,
            "midi": 42,
            "name": "F#2",
            "ticks": 47040,
            "time": 64.4735875,
            "velocity": 0.3937007874015748
          },
          {
            "duration": 0.13157875000000274,
            "durationTicks": 96,
            "midi": 40,
            "name": "E2",
            "ticks": 47232,
            "time": 64.736745,
            "velocity": 0.3937007874015748
          },
          {
            "duration": 0.13157875000000274,
            "durationTicks": 96,
            "midi": 42,
            "name": "F#2",
            "ticks": 47232,
            "time": 64.736745,
            "velocity": 0.3937007874015748
          },
          {
            "duration": 0.13157875000000274,
            "durationTicks": 96,
            "midi": 38,
            "name": "D2",
            "ticks": 47232,
            "time": 64.736745,
            "velocity": 0.3937007874015748
          },
          {
            "duration": 0.13157875000000274,
            "durationTicks": 96,
            "midi": 42,
            "name": "F#2",
            "ticks": 47424,
            "time": 64.99990249999999,
            "velocity": 0.3937007874015748
          },
          {
            "duration": 0.13157875000000274,
            "durationTicks": 96,
            "midi": 42,
            "name": "F#2",
            "ticks": 47616,
            "time": 65.26306,
            "velocity": 0.3937007874015748
          },
          {
            "duration": 0.13157875000000274,
            "durationTicks": 96,
            "midi": 36,
            "name": "C2",
            "ticks": 47616,
            "time": 65.26306,
            "velocity": 0.3937007874015748
          },
          {
            "duration": 0.13157875000000274,
            "durationTicks": 96,
            "midi": 35,
            "name": "B1",
            "ticks": 47616,
            "time": 65.26306,
            "velocity": 0.3937007874015748
          },
          {
            "duration": 0.13157875000000274,
            "durationTicks": 96,
            "midi": 42,
            "name": "F#2",
            "ticks": 47808,
            "time": 65.5262175,
            "velocity": 0.3937007874015748
          },
          {
            "duration": 0.13157875000000274,
            "durationTicks": 96,
            "midi": 42,
            "name": "F#2",
            "ticks": 48000,
            "time": 65.78937499999999,
            "velocity": 0.3937007874015748
          },
          {
            "duration": 0.13157875000000274,
            "durationTicks": 96,
            "midi": 40,
            "name": "E2",
            "ticks": 48000,
            "time": 65.78937499999999,
            "velocity": 0.3937007874015748
          },
          {
            "duration": 0.13157875000000274,
            "durationTicks": 96,
            "midi": 38,
            "name": "D2",
            "ticks": 48000,
            "time": 65.78937499999999,
            "velocity": 0.3937007874015748
          },
          {
            "duration": 0.13157875000000274,
            "durationTicks": 96,
            "midi": 42,
            "name": "F#2",
            "ticks": 48192,
            "time": 66.0525325,
            "velocity": 0.3937007874015748
          },
          {
            "duration": 0.13157874999998853,
            "durationTicks": 96,
            "midi": 36,
            "name": "C2",
            "ticks": 48384,
            "time": 66.31569,
            "velocity": 0.3937007874015748
          },
          {
            "duration": 0.13157874999998853,
            "durationTicks": 96,
            "midi": 35,
            "name": "B1",
            "ticks": 48384,
            "time": 66.31569,
            "velocity": 0.3937007874015748
          },
          {
            "duration": 0.13157874999998853,
            "durationTicks": 96,
            "midi": 42,
            "name": "F#2",
            "ticks": 48384,
            "time": 66.31569,
            "velocity": 0.3937007874015748
          },
          {
            "duration": 0.13157875000000274,
            "durationTicks": 96,
            "midi": 42,
            "name": "F#2",
            "ticks": 48576,
            "time": 66.5788475,
            "velocity": 0.3937007874015748
          },
          {
            "duration": 0.13157875000000274,
            "durationTicks": 96,
            "midi": 42,
            "name": "F#2",
            "ticks": 48768,
            "time": 66.842005,
            "velocity": 0.3937007874015748
          },
          {
            "duration": 0.13157875000000274,
            "durationTicks": 96,
            "midi": 40,
            "name": "E2",
            "ticks": 48768,
            "time": 66.842005,
            "velocity": 0.3937007874015748
          },
          {
            "duration": 0.13157875000000274,
            "durationTicks": 96,
            "midi": 38,
            "name": "D2",
            "ticks": 48768,
            "time": 66.842005,
            "velocity": 0.3937007874015748
          },
          {
            "duration": 0.13157875000000274,
            "durationTicks": 96,
            "midi": 42,
            "name": "F#2",
            "ticks": 48960,
            "time": 67.10516249999999,
            "velocity": 0.3937007874015748
          },
          {
            "duration": 0.13157875000000274,
            "durationTicks": 96,
            "midi": 35,
            "name": "B1",
            "ticks": 49152,
            "time": 67.36832,
            "velocity": 0.3937007874015748
          },
          {
            "duration": 0.13157875000000274,
            "durationTicks": 96,
            "midi": 38,
            "name": "D2",
            "ticks": 49536,
            "time": 67.894635,
            "velocity": 0.3937007874015748
          },
          {
            "duration": 0.13157875000000274,
            "durationTicks": 96,
            "midi": 35,
            "name": "B1",
            "ticks": 50112,
            "time": 68.6841075,
            "velocity": 0.3937007874015748
          },
          {
            "duration": 0.13157874999998853,
            "durationTicks": 96,
            "midi": 38,
            "name": "D2",
            "ticks": 50304,
            "time": 68.947265,
            "velocity": 0.3937007874015748
          },
          {
            "duration": 0.13157875000000274,
            "durationTicks": 96,
            "midi": 35,
            "name": "B1",
            "ticks": 50688,
            "time": 69.47358,
            "velocity": 0.3937007874015748
          },
          {
            "duration": 0.13157875000000274,
            "durationTicks": 96,
            "midi": 38,
            "name": "D2",
            "ticks": 51072,
            "time": 69.999895,
            "velocity": 0.3937007874015748
          },
          {
            "duration": 0.13157875000000274,
            "durationTicks": 96,
            "midi": 35,
            "name": "B1",
            "ticks": 51648,
            "time": 70.7893675,
            "velocity": 0.3937007874015748
          },
          {
            "duration": 0.13157874999998853,
            "durationTicks": 96,
            "midi": 38,
            "name": "D2",
            "ticks": 51840,
            "time": 71.052525,
            "velocity": 0.3937007874015748
          },
          {
            "duration": 0.13157875000000274,
            "durationTicks": 96,
            "midi": 35,
            "name": "B1",
            "ticks": 52224,
            "time": 71.57884,
            "velocity": 0.3937007874015748
          },
          {
            "duration": 0.13157875000000274,
            "durationTicks": 96,
            "midi": 38,
            "name": "D2",
            "ticks": 52608,
            "time": 72.105155,
            "velocity": 0.3937007874015748
          },
          {
            "duration": 0.13157875000000274,
            "durationTicks": 96,
            "midi": 35,
            "name": "B1",
            "ticks": 53184,
            "time": 72.8946275,
            "velocity": 0.3937007874015748
          },
          {
            "duration": 0.13157875000000274,
            "durationTicks": 96,
            "midi": 38,
            "name": "D2",
            "ticks": 53376,
            "time": 73.15778499999999,
            "velocity": 0.3937007874015748
          },
          {
            "duration": 0.13157875000000274,
            "durationTicks": 96,
            "midi": 35,
            "name": "B1",
            "ticks": 53760,
            "time": 73.6841,
            "velocity": 0.3937007874015748
          },
          {
            "duration": 0.13157875000000274,
            "durationTicks": 96,
            "midi": 38,
            "name": "D2",
            "ticks": 54144,
            "time": 74.210415,
            "velocity": 0.3937007874015748
          },
          {
            "duration": 0.13157875000000274,
            "durationTicks": 96,
            "midi": 35,
            "name": "B1",
            "ticks": 54720,
            "time": 74.9998875,
            "velocity": 0.3937007874015748
          },
          {
            "duration": 0.13157875000000274,
            "durationTicks": 96,
            "midi": 38,
            "name": "D2",
            "ticks": 54912,
            "time": 75.26304499999999,
            "velocity": 0.3937007874015748
          },
          {
            "duration": 0.13157875000000274,
            "durationTicks": 96,
            "midi": 38,
            "name": "D2",
            "ticks": 55200,
            "time": 75.65778125,
            "velocity": 0.3937007874015748
          },
          {
            "duration": 0.13157874999998853,
            "durationTicks": 96,
            "midi": 35,
            "name": "B1",
            "ticks": 55296,
            "time": 75.78936,
            "velocity": 0.3937007874015748
          },
          {
            "duration": 0.13157874999998853,
            "durationTicks": 96,
            "midi": 42,
            "name": "F#2",
            "ticks": 55296,
            "time": 75.78936,
            "velocity": 0.3937007874015748
          },
          {
            "duration": 0.13157875000000274,
            "durationTicks": 96,
            "midi": 42,
            "name": "F#2",
            "ticks": 55488,
            "time": 76.0525175,
            "velocity": 0.3937007874015748
          },
          {
            "duration": 0.13157875000000274,
            "durationTicks": 96,
            "midi": 42,
            "name": "F#2",
            "ticks": 55680,
            "time": 76.315675,
            "velocity": 0.3937007874015748
          },
          {
            "duration": 0.13157875000000274,
            "durationTicks": 96,
            "midi": 38,
            "name": "D2",
            "ticks": 55680,
            "time": 76.315675,
            "velocity": 0.3937007874015748
          },
          {
            "duration": 0.13157875000000274,
            "durationTicks": 96,
            "midi": 42,
            "name": "F#2",
            "ticks": 55872,
            "time": 76.57883249999999,
            "velocity": 0.3937007874015748
          },
          {
            "duration": 0.13157875000000274,
            "durationTicks": 96,
            "midi": 42,
            "name": "F#2",
            "ticks": 56064,
            "time": 76.84199,
            "velocity": 0.3937007874015748
          },
          {
            "duration": 0.13157874999998853,
            "durationTicks": 96,
            "midi": 42,
            "name": "F#2",
            "ticks": 56256,
            "time": 77.1051475,
            "velocity": 0.3937007874015748
          },
          {
            "duration": 0.13157874999998853,
            "durationTicks": 96,
            "midi": 35,
            "name": "B1",
            "ticks": 56256,
            "time": 77.1051475,
            "velocity": 0.3937007874015748
          },
          {
            "duration": 0.13157875000000274,
            "durationTicks": 96,
            "midi": 38,
            "name": "D2",
            "ticks": 56448,
            "time": 77.36830499999999,
            "velocity": 0.3937007874015748
          },
          {
            "duration": 0.13157875000000274,
            "durationTicks": 96,
            "midi": 42,
            "name": "F#2",
            "ticks": 56448,
            "time": 77.36830499999999,
            "velocity": 0.3937007874015748
          },
          {
            "duration": 0.13157875000000274,
            "durationTicks": 96,
            "midi": 42,
            "name": "F#2",
            "ticks": 56640,
            "time": 77.6314625,
            "velocity": 0.3937007874015748
          },
          {
            "duration": 0.13157874999998853,
            "durationTicks": 96,
            "midi": 35,
            "name": "B1",
            "ticks": 56832,
            "time": 77.89462,
            "velocity": 0.3937007874015748
          },
          {
            "duration": 0.13157874999998853,
            "durationTicks": 96,
            "midi": 42,
            "name": "F#2",
            "ticks": 56832,
            "time": 77.89462,
            "velocity": 0.3937007874015748
          },
          {
            "duration": 0.13157875000000274,
            "durationTicks": 96,
            "midi": 42,
            "name": "F#2",
            "ticks": 57024,
            "time": 78.1577775,
            "velocity": 0.3937007874015748
          },
          {
            "duration": 0.13157875000000274,
            "durationTicks": 96,
            "midi": 42,
            "name": "F#2",
            "ticks": 57216,
            "time": 78.420935,
            "velocity": 0.3937007874015748
          },
          {
            "duration": 0.13157875000000274,
            "durationTicks": 96,
            "midi": 38,
            "name": "D2",
            "ticks": 57216,
            "time": 78.420935,
            "velocity": 0.3937007874015748
          },
          {
            "duration": 0.13157875000000274,
            "durationTicks": 96,
            "midi": 42,
            "name": "F#2",
            "ticks": 57408,
            "time": 78.68409249999999,
            "velocity": 0.3937007874015748
          },
          {
            "duration": 0.13157875000000274,
            "durationTicks": 96,
            "midi": 42,
            "name": "F#2",
            "ticks": 57600,
            "time": 78.94725,
            "velocity": 0.3937007874015748
          },
          {
            "duration": 0.13157874999998853,
            "durationTicks": 96,
            "midi": 35,
            "name": "B1",
            "ticks": 57792,
            "time": 79.2104075,
            "velocity": 0.3937007874015748
          },
          {
            "duration": 0.13157874999998853,
            "durationTicks": 96,
            "midi": 42,
            "name": "F#2",
            "ticks": 57792,
            "time": 79.2104075,
            "velocity": 0.3937007874015748
          },
          {
            "duration": 0.13157875000000274,
            "durationTicks": 96,
            "midi": 38,
            "name": "D2",
            "ticks": 57984,
            "time": 79.473565,
            "velocity": 0.3937007874015748
          },
          {
            "duration": 0.13157875000000274,
            "durationTicks": 96,
            "midi": 42,
            "name": "F#2",
            "ticks": 57984,
            "time": 79.473565,
            "velocity": 0.3937007874015748
          },
          {
            "duration": 0.13157875000000274,
            "durationTicks": 96,
            "midi": 42,
            "name": "F#2",
            "ticks": 58176,
            "time": 79.7367225,
            "velocity": 0.3937007874015748
          },
          {
            "duration": 0.13157875000000274,
            "durationTicks": 96,
            "midi": 42,
            "name": "F#2",
            "ticks": 58368,
            "time": 79.99987999999999,
            "velocity": 0.3937007874015748
          },
          {
            "duration": 0.13157875000000274,
            "durationTicks": 96,
            "midi": 35,
            "name": "B1",
            "ticks": 58368,
            "time": 79.99987999999999,
            "velocity": 0.3937007874015748
          },
          {
            "duration": 0.13157875000000274,
            "durationTicks": 96,
            "midi": 42,
            "name": "F#2",
            "ticks": 58560,
            "time": 80.2630375,
            "velocity": 0.3937007874015748
          },
          {
            "duration": 0.13157874999998853,
            "durationTicks": 96,
            "midi": 38,
            "name": "D2",
            "ticks": 58752,
            "time": 80.526195,
            "velocity": 0.3937007874015748
          },
          {
            "duration": 0.13157874999998853,
            "durationTicks": 96,
            "midi": 42,
            "name": "F#2",
            "ticks": 58752,
            "time": 80.526195,
            "velocity": 0.3937007874015748
          },
          {
            "duration": 0.13157875000000274,
            "durationTicks": 96,
            "midi": 42,
            "name": "F#2",
            "ticks": 58944,
            "time": 80.78935249999999,
            "velocity": 0.3937007874015748
          },
          {
            "duration": 0.13157875000000274,
            "durationTicks": 96,
            "midi": 42,
            "name": "F#2",
            "ticks": 59136,
            "time": 81.05251,
            "velocity": 0.3937007874015748
          },
          {
            "duration": 0.13157874999998853,
            "durationTicks": 96,
            "midi": 35,
            "name": "B1",
            "ticks": 59328,
            "time": 81.3156675,
            "velocity": 0.3937007874015748
          },
          {
            "duration": 0.13157874999998853,
            "durationTicks": 96,
            "midi": 42,
            "name": "F#2",
            "ticks": 59328,
            "time": 81.3156675,
            "velocity": 0.3937007874015748
          },
          {
            "duration": 0.13157875000000274,
            "durationTicks": 96,
            "midi": 38,
            "name": "D2",
            "ticks": 59520,
            "time": 81.578825,
            "velocity": 0.3937007874015748
          },
          {
            "duration": 0.13157875000000274,
            "durationTicks": 96,
            "midi": 42,
            "name": "F#2",
            "ticks": 59520,
            "time": 81.578825,
            "velocity": 0.3937007874015748
          },
          {
            "duration": 0.13157875000000274,
            "durationTicks": 96,
            "midi": 42,
            "name": "F#2",
            "ticks": 59712,
            "time": 81.8419825,
            "velocity": 0.3937007874015748
          },
          {
            "duration": 0.13157875000000274,
            "durationTicks": 96,
            "midi": 35,
            "name": "B1",
            "ticks": 59904,
            "time": 82.10513999999999,
            "velocity": 0.3937007874015748
          },
          {
            "duration": 0.13157875000000274,
            "durationTicks": 96,
            "midi": 42,
            "name": "F#2",
            "ticks": 59904,
            "time": 82.10513999999999,
            "velocity": 0.3937007874015748
          },
          {
            "duration": 0.13157875000000274,
            "durationTicks": 96,
            "midi": 42,
            "name": "F#2",
            "ticks": 60096,
            "time": 82.3682975,
            "velocity": 0.3937007874015748
          },
          {
            "duration": 0.13157874999998853,
            "durationTicks": 96,
            "midi": 38,
            "name": "D2",
            "ticks": 60288,
            "time": 82.631455,
            "velocity": 0.3937007874015748
          },
          {
            "duration": 0.13157874999998853,
            "durationTicks": 96,
            "midi": 42,
            "name": "F#2",
            "ticks": 60288,
            "time": 82.631455,
            "velocity": 0.3937007874015748
          },
          {
            "duration": 0.13157875000000274,
            "durationTicks": 96,
            "midi": 42,
            "name": "F#2",
            "ticks": 60480,
            "time": 82.8946125,
            "velocity": 0.3937007874015748
          },
          {
            "duration": 0.13157875000000274,
            "durationTicks": 96,
            "midi": 42,
            "name": "F#2",
            "ticks": 60672,
            "time": 83.15777,
            "velocity": 0.3937007874015748
          },
          {
            "duration": 0.13157875000000274,
            "durationTicks": 96,
            "midi": 35,
            "name": "B1",
            "ticks": 60864,
            "time": 83.42092749999999,
            "velocity": 0.3937007874015748
          },
          {
            "duration": 0.13157875000000274,
            "durationTicks": 96,
            "midi": 42,
            "name": "F#2",
            "ticks": 60864,
            "time": 83.42092749999999,
            "velocity": 0.3937007874015748
          },
          {
            "duration": 0.13157875000000274,
            "durationTicks": 96,
            "midi": 38,
            "name": "D2",
            "ticks": 61056,
            "time": 83.684085,
            "velocity": 0.3937007874015748
          },
          {
            "duration": 0.13157875000000274,
            "durationTicks": 96,
            "midi": 42,
            "name": "F#2",
            "ticks": 61056,
            "time": 83.684085,
            "velocity": 0.3937007874015748
          },
          {
            "duration": 0.13157874999998853,
            "durationTicks": 96,
            "midi": 42,
            "name": "F#2",
            "ticks": 61248,
            "time": 83.9472425,
            "velocity": 0.3937007874015748
          },
          {
            "duration": 0.13157875000000274,
            "durationTicks": 96,
            "midi": 38,
            "name": "D2",
            "ticks": 61344,
            "time": 84.07882124999999,
            "velocity": 0.3937007874015748
          },
          {
            "duration": 0.13157875000000274,
            "durationTicks": 96,
            "midi": 35,
            "name": "B1",
            "ticks": 61440,
            "time": 84.21039999999999,
            "velocity": 0.3937007874015748
          },
          {
            "duration": 0.13157875000000274,
            "durationTicks": 96,
            "midi": 42,
            "name": "F#2",
            "ticks": 61440,
            "time": 84.21039999999999,
            "velocity": 0.3937007874015748
          },
          {
            "duration": 0.13157875000000274,
            "durationTicks": 96,
            "midi": 42,
            "name": "F#2",
            "ticks": 61632,
            "time": 84.4735575,
            "velocity": 0.3937007874015748
          },
          {
            "duration": 0.13157875000000274,
            "durationTicks": 96,
            "midi": 42,
            "name": "F#2",
            "ticks": 61824,
            "time": 84.73671499999999,
            "velocity": 0.3937007874015748
          },
          {
            "duration": 0.13157875000000274,
            "durationTicks": 96,
            "midi": 38,
            "name": "D2",
            "ticks": 61824,
            "time": 84.73671499999999,
            "velocity": 0.3937007874015748
          },
          {
            "duration": 0.13157875000000274,
            "durationTicks": 96,
            "midi": 42,
            "name": "F#2",
            "ticks": 62016,
            "time": 84.9998725,
            "velocity": 0.3937007874015748
          },
          {
            "duration": 0.13157875000000274,
            "durationTicks": 96,
            "midi": 42,
            "name": "F#2",
            "ticks": 62208,
            "time": 85.26303,
            "velocity": 0.3937007874015748
          },
          {
            "duration": 0.13157875000000274,
            "durationTicks": 96,
            "midi": 35,
            "name": "B1",
            "ticks": 62400,
            "time": 85.52618749999999,
            "velocity": 0.3937007874015748
          },
          {
            "duration": 0.13157875000000274,
            "durationTicks": 96,
            "midi": 42,
            "name": "F#2",
            "ticks": 62400,
            "time": 85.52618749999999,
            "velocity": 0.3937007874015748
          },
          {
            "duration": 0.13157875000000274,
            "durationTicks": 96,
            "midi": 42,
            "name": "F#2",
            "ticks": 62592,
            "time": 85.789345,
            "velocity": 0.3937007874015748
          },
          {
            "duration": 0.13157875000000274,
            "durationTicks": 96,
            "midi": 38,
            "name": "D2",
            "ticks": 62592,
            "time": 85.789345,
            "velocity": 0.3937007874015748
          },
          {
            "duration": 0.13157874999998853,
            "durationTicks": 96,
            "midi": 42,
            "name": "F#2",
            "ticks": 62784,
            "time": 86.0525025,
            "velocity": 0.3937007874015748
          },
          {
            "duration": 0.13157875000000274,
            "durationTicks": 96,
            "midi": 42,
            "name": "F#2",
            "ticks": 62976,
            "time": 86.31566,
            "velocity": 0.3937007874015748
          },
          {
            "duration": 0.13157875000000274,
            "durationTicks": 96,
            "midi": 35,
            "name": "B1",
            "ticks": 62976,
            "time": 86.31566,
            "velocity": 0.3937007874015748
          },
          {
            "duration": 0.13157875000000274,
            "durationTicks": 96,
            "midi": 42,
            "name": "F#2",
            "ticks": 63168,
            "time": 86.5788175,
            "velocity": 0.3937007874015748
          },
          {
            "duration": 0.13157875000000274,
            "durationTicks": 96,
            "midi": 38,
            "name": "D2",
            "ticks": 63360,
            "time": 86.84197499999999,
            "velocity": 0.3937007874015748
          },
          {
            "duration": 0.13157875000000274,
            "durationTicks": 96,
            "midi": 42,
            "name": "F#2",
            "ticks": 63360,
            "time": 86.84197499999999,
            "velocity": 0.3937007874015748
          },
          {
            "duration": 0.13157875000000274,
            "durationTicks": 96,
            "midi": 42,
            "name": "F#2",
            "ticks": 63552,
            "time": 87.1051325,
            "velocity": 0.3937007874015748
          },
          {
            "duration": 0.13157874999998853,
            "durationTicks": 96,
            "midi": 42,
            "name": "F#2",
            "ticks": 63744,
            "time": 87.36829,
            "velocity": 0.3937007874015748
          },
          {
            "duration": 0.13157875000000274,
            "durationTicks": 96,
            "midi": 35,
            "name": "B1",
            "ticks": 63936,
            "time": 87.6314475,
            "velocity": 0.3937007874015748
          },
          {
            "duration": 0.13157875000000274,
            "durationTicks": 96,
            "midi": 42,
            "name": "F#2",
            "ticks": 63936,
            "time": 87.6314475,
            "velocity": 0.3937007874015748
          },
          {
            "duration": 0.13157875000000274,
            "durationTicks": 96,
            "midi": 38,
            "name": "D2",
            "ticks": 64128,
            "time": 87.894605,
            "velocity": 0.3937007874015748
          },
          {
            "duration": 0.13157875000000274,
            "durationTicks": 96,
            "midi": 42,
            "name": "F#2",
            "ticks": 64128,
            "time": 87.894605,
            "velocity": 0.3937007874015748
          },
          {
            "duration": 0.13157875000000274,
            "durationTicks": 96,
            "midi": 42,
            "name": "F#2",
            "ticks": 64320,
            "time": 88.15776249999999,
            "velocity": 0.3937007874015748
          },
          {
            "duration": 0.13157875000000274,
            "durationTicks": 96,
            "midi": 42,
            "name": "F#2",
            "ticks": 64512,
            "time": 88.42092,
            "velocity": 0.3937007874015748
          },
          {
            "duration": 0.13157875000000274,
            "durationTicks": 96,
            "midi": 35,
            "name": "B1",
            "ticks": 64512,
            "time": 88.42092,
            "velocity": 0.3937007874015748
          },
          {
            "duration": 0.13157874999998853,
            "durationTicks": 96,
            "midi": 42,
            "name": "F#2",
            "ticks": 64704,
            "time": 88.6840775,
            "velocity": 0.3937007874015748
          },
          {
            "duration": 0.13157875000000274,
            "durationTicks": 96,
            "midi": 38,
            "name": "D2",
            "ticks": 64896,
            "time": 88.94723499999999,
            "velocity": 0.3937007874015748
          },
          {
            "duration": 0.13157875000000274,
            "durationTicks": 96,
            "midi": 42,
            "name": "F#2",
            "ticks": 64896,
            "time": 88.94723499999999,
            "velocity": 0.3937007874015748
          },
          {
            "duration": 0.13157875000000274,
            "durationTicks": 96,
            "midi": 42,
            "name": "F#2",
            "ticks": 65088,
            "time": 89.2103925,
            "velocity": 0.3937007874015748
          },
          {
            "duration": 0.13157874999998853,
            "durationTicks": 96,
            "midi": 42,
            "name": "F#2",
            "ticks": 65280,
            "time": 89.47355,
            "velocity": 0.3937007874015748
          },
          {
            "duration": 0.13157875000000274,
            "durationTicks": 96,
            "midi": 35,
            "name": "B1",
            "ticks": 65472,
            "time": 89.7367075,
            "velocity": 0.3937007874015748
          },
          {
            "duration": 0.13157875000000274,
            "durationTicks": 96,
            "midi": 42,
            "name": "F#2",
            "ticks": 65472,
            "time": 89.7367075,
            "velocity": 0.3937007874015748
          },
          {
            "duration": 0.13157875000000274,
            "durationTicks": 96,
            "midi": 38,
            "name": "D2",
            "ticks": 65664,
            "time": 89.999865,
            "velocity": 0.3937007874015748
          },
          {
            "duration": 0.13157875000000274,
            "durationTicks": 96,
            "midi": 42,
            "name": "F#2",
            "ticks": 65664,
            "time": 89.999865,
            "velocity": 0.3937007874015748
          },
          {
            "duration": 0.13157875000000274,
            "durationTicks": 96,
            "midi": 42,
            "name": "F#2",
            "ticks": 65856,
            "time": 90.26302249999999,
            "velocity": 0.3937007874015748
          },
          {
            "duration": 0.13157875000000274,
            "durationTicks": 96,
            "midi": 42,
            "name": "F#2",
            "ticks": 66048,
            "time": 90.52618,
            "velocity": 0.3937007874015748
          },
          {
            "duration": 0.13157874999998853,
            "durationTicks": 96,
            "midi": 42,
            "name": "F#2",
            "ticks": 66240,
            "time": 90.7893375,
            "velocity": 0.3937007874015748
          },
          {
            "duration": 0.13157875000000274,
            "durationTicks": 96,
            "midi": 42,
            "name": "F#2",
            "ticks": 66432,
            "time": 91.052495,
            "velocity": 0.3937007874015748
          },
          {
            "duration": 0.13157875000000274,
            "durationTicks": 96,
            "midi": 42,
            "name": "F#2",
            "ticks": 66624,
            "time": 91.3156525,
            "velocity": 0.3937007874015748
          },
          {
            "duration": 0.13157875000000274,
            "durationTicks": 96,
            "midi": 42,
            "name": "F#2",
            "ticks": 66816,
            "time": 91.57880999999999,
            "velocity": 0.3937007874015748
          },
          {
            "duration": 0.13157875000000274,
            "durationTicks": 96,
            "midi": 42,
            "name": "F#2",
            "ticks": 67008,
            "time": 91.8419675,
            "velocity": 0.3937007874015748
          },
          {
            "duration": 0.13157874999998853,
            "durationTicks": 96,
            "midi": 42,
            "name": "F#2",
            "ticks": 67200,
            "time": 92.105125,
            "velocity": 0.3937007874015748
          },
          {
            "duration": 0.13157875000000274,
            "durationTicks": 96,
            "midi": 42,
            "name": "F#2",
            "ticks": 67392,
            "time": 92.36828249999999,
            "velocity": 0.3937007874015748
          },
          {
            "duration": 0.13157875000000274,
            "durationTicks": 96,
            "midi": 40,
            "name": "E2",
            "ticks": 78336,
            "time": 107.36825999999999,
            "velocity": 0.3937007874015748
          },
          {
            "duration": 0.13157875000000274,
            "durationTicks": 96,
            "midi": 35,
            "name": "B1",
            "ticks": 78336,
            "time": 107.36825999999999,
            "velocity": 0.3937007874015748
          },
          {
            "duration": 0.13157875000000274,
            "durationTicks": 96,
            "midi": 40,
            "name": "E2",
            "ticks": 78432,
            "time": 107.49983875,
            "velocity": 0.3937007874015748
          },
          {
            "duration": 0.13157875000000274,
            "durationTicks": 96,
            "midi": 35,
            "name": "B1",
            "ticks": 78528,
            "time": 107.6314175,
            "velocity": 0.3937007874015748
          },
          {
            "duration": 0.13157874999998853,
            "durationTicks": 96,
            "midi": 40,
            "name": "E2",
            "ticks": 78624,
            "time": 107.76299625,
            "velocity": 0.3937007874015748
          },
          {
            "duration": 0.13157875000000274,
            "durationTicks": 96,
            "midi": 35,
            "name": "B1",
            "ticks": 78720,
            "time": 107.89457499999999,
            "velocity": 0.3937007874015748
          },
          {
            "duration": 0.13157875000000274,
            "durationTicks": 96,
            "midi": 40,
            "name": "E2",
            "ticks": 78720,
            "time": 107.89457499999999,
            "velocity": 0.3937007874015748
          },
          {
            "duration": 0.13157875000000274,
            "durationTicks": 96,
            "midi": 40,
            "name": "E2",
            "ticks": 78816,
            "time": 108.02615374999999,
            "velocity": 0.3937007874015748
          },
          {
            "duration": 0.13157875000000274,
            "durationTicks": 96,
            "midi": 35,
            "name": "B1",
            "ticks": 78912,
            "time": 108.1577325,
            "velocity": 0.3937007874015748
          },
          {
            "duration": 0.13157875000000274,
            "durationTicks": 96,
            "midi": 40,
            "name": "E2",
            "ticks": 79008,
            "time": 108.28931125,
            "velocity": 0.3937007874015748
          },
          {
            "duration": 0.13157874999998853,
            "durationTicks": 96,
            "midi": 40,
            "name": "E2",
            "ticks": 79104,
            "time": 108.42089,
            "velocity": 0.3937007874015748
          },
          {
            "duration": 0.13157874999998853,
            "durationTicks": 96,
            "midi": 35,
            "name": "B1",
            "ticks": 79104,
            "time": 108.42089,
            "velocity": 0.3937007874015748
          },
          {
            "duration": 0.13157875000000274,
            "durationTicks": 96,
            "midi": 40,
            "name": "E2",
            "ticks": 79200,
            "time": 108.55246874999999,
            "velocity": 0.3937007874015748
          },
          {
            "duration": 0.13157875000000274,
            "durationTicks": 96,
            "midi": 35,
            "name": "B1",
            "ticks": 79296,
            "time": 108.68404749999999,
            "velocity": 0.3937007874015748
          },
          {
            "duration": 0.13157875000000274,
            "durationTicks": 96,
            "midi": 40,
            "name": "E2",
            "ticks": 79392,
            "time": 108.81562625,
            "velocity": 0.3937007874015748
          },
          {
            "duration": 0.13157875000000274,
            "durationTicks": 96,
            "midi": 35,
            "name": "B1",
            "ticks": 79488,
            "time": 108.947205,
            "velocity": 0.3937007874015748
          },
          {
            "duration": 0.13157875000000274,
            "durationTicks": 96,
            "midi": 40,
            "name": "E2",
            "ticks": 79488,
            "time": 108.947205,
            "velocity": 0.3937007874015748
          },
          {
            "duration": 0.13157875000000274,
            "durationTicks": 96,
            "midi": 40,
            "name": "E2",
            "ticks": 79584,
            "time": 109.07878375,
            "velocity": 0.3937007874015748
          },
          {
            "duration": 0.13157874999998853,
            "durationTicks": 96,
            "midi": 35,
            "name": "B1",
            "ticks": 79680,
            "time": 109.2103625,
            "velocity": 0.3937007874015748
          },
          {
            "duration": 0.13157875000000274,
            "durationTicks": 96,
            "midi": 40,
            "name": "E2",
            "ticks": 79776,
            "time": 109.34194124999999,
            "velocity": 0.3937007874015748
          },
          {
            "duration": 0.13157875000000274,
            "durationTicks": 96,
            "midi": 57,
            "name": "A3",
            "ticks": 79872,
            "time": 109.47352,
            "velocity": 0.3937007874015748
          },
          {
            "duration": 0.13157875000000274,
            "durationTicks": 96,
            "midi": 57,
            "name": "A3",
            "ticks": 79872,
            "time": 109.47352,
            "velocity": 0.3937007874015748
          },
          {
            "duration": 0.13157875000000274,
            "durationTicks": 96,
            "midi": 53,
            "name": "F3",
            "ticks": 79872,
            "time": 109.47352,
            "velocity": 0.3937007874015748
          },
          {
            "duration": 0.13157875000000274,
            "durationTicks": 96,
            "midi": 57,
            "name": "A3",
            "ticks": 79872,
            "time": 109.47352,
            "velocity": 0.3937007874015748
          },
          {
            "duration": 0.13157875000000274,
            "durationTicks": 96,
            "midi": 49,
            "name": "C#3",
            "ticks": 79872,
            "time": 109.47352,
            "velocity": 0.3937007874015748
          },
          {
            "duration": 0.13157875000000274,
            "durationTicks": 96,
            "midi": 35,
            "name": "B1",
            "ticks": 79872,
            "time": 109.47352,
            "velocity": 0.3937007874015748
          },
          {
            "duration": 0.13157875000000274,
            "durationTicks": 96,
            "midi": 36,
            "name": "C2",
            "ticks": 79872,
            "time": 109.47352,
            "velocity": 0.3937007874015748
          },
          {
            "duration": 0.13157875000000274,
            "durationTicks": 96,
            "midi": 41,
            "name": "F2",
            "ticks": 79872,
            "time": 109.47352,
            "velocity": 0.3937007874015748
          },
          {
            "duration": 0.13157875000000274,
            "durationTicks": 96,
            "midi": 40,
            "name": "E2",
            "ticks": 80256,
            "time": 109.99983499999999,
            "velocity": 0.3937007874015748
          },
          {
            "duration": 0.13157875000000274,
            "durationTicks": 96,
            "midi": 38,
            "name": "D2",
            "ticks": 80256,
            "time": 109.99983499999999,
            "velocity": 0.3937007874015748
          },
          {
            "duration": 0.13157875000000274,
            "durationTicks": 96,
            "midi": 53,
            "name": "F3",
            "ticks": 80256,
            "time": 109.99983499999999,
            "velocity": 0.3937007874015748
          },
          {
            "duration": 0.13157874999998853,
            "durationTicks": 96,
            "midi": 53,
            "name": "F3",
            "ticks": 80640,
            "time": 110.52615,
            "velocity": 0.3937007874015748
          },
          {
            "duration": 0.13157875000000274,
            "durationTicks": 96,
            "midi": 41,
            "name": "F2",
            "ticks": 80832,
            "time": 110.78930749999999,
            "velocity": 0.3937007874015748
          },
          {
            "duration": 0.13157875000000274,
            "durationTicks": 96,
            "midi": 35,
            "name": "B1",
            "ticks": 80832,
            "time": 110.78930749999999,
            "velocity": 0.3937007874015748
          },
          {
            "duration": 0.13157875000000274,
            "durationTicks": 96,
            "midi": 36,
            "name": "C2",
            "ticks": 80832,
            "time": 110.78930749999999,
            "velocity": 0.3937007874015748
          },
          {
            "duration": 0.13157875000000274,
            "durationTicks": 96,
            "midi": 53,
            "name": "F3",
            "ticks": 81024,
            "time": 111.052465,
            "velocity": 0.3937007874015748
          },
          {
            "duration": 0.13157875000000274,
            "durationTicks": 96,
            "midi": 40,
            "name": "E2",
            "ticks": 81024,
            "time": 111.052465,
            "velocity": 0.3937007874015748
          },
          {
            "duration": 0.13157875000000274,
            "durationTicks": 96,
            "midi": 38,
            "name": "D2",
            "ticks": 81024,
            "time": 111.052465,
            "velocity": 0.3937007874015748
          },
          {
            "duration": 0.13157875000000274,
            "durationTicks": 96,
            "midi": 35,
            "name": "B1",
            "ticks": 81408,
            "time": 111.57878,
            "velocity": 0.3937007874015748
          },
          {
            "duration": 0.13157875000000274,
            "durationTicks": 96,
            "midi": 41,
            "name": "F2",
            "ticks": 81408,
            "time": 111.57878,
            "velocity": 0.3937007874015748
          },
          {
            "duration": 0.13157875000000274,
            "durationTicks": 96,
            "midi": 36,
            "name": "C2",
            "ticks": 81408,
            "time": 111.57878,
            "velocity": 0.3937007874015748
          },
          {
            "duration": 0.13157875000000274,
            "durationTicks": 96,
            "midi": 53,
            "name": "F3",
            "ticks": 81408,
            "time": 111.57878,
            "velocity": 0.3937007874015748
          },
          {
            "duration": 0.13157875000000274,
            "durationTicks": 96,
            "midi": 40,
            "name": "E2",
            "ticks": 81792,
            "time": 112.10509499999999,
            "velocity": 0.3937007874015748
          },
          {
            "duration": 0.13157875000000274,
            "durationTicks": 96,
            "midi": 38,
            "name": "D2",
            "ticks": 81792,
            "time": 112.10509499999999,
            "velocity": 0.3937007874015748
          },
          {
            "duration": 0.13157875000000274,
            "durationTicks": 96,
            "midi": 53,
            "name": "F3",
            "ticks": 81792,
            "time": 112.10509499999999,
            "velocity": 0.3937007874015748
          },
          {
            "duration": 0.13157875000000274,
            "durationTicks": 96,
            "midi": 53,
            "name": "F3",
            "ticks": 82176,
            "time": 112.63140999999999,
            "velocity": 0.3937007874015748
          },
          {
            "duration": 0.13157875000000274,
            "durationTicks": 96,
            "midi": 36,
            "name": "C2",
            "ticks": 82368,
            "time": 112.8945675,
            "velocity": 0.3937007874015748
          },
          {
            "duration": 0.13157875000000274,
            "durationTicks": 96,
            "midi": 41,
            "name": "F2",
            "ticks": 82368,
            "time": 112.8945675,
            "velocity": 0.3937007874015748
          },
          {
            "duration": 0.13157875000000274,
            "durationTicks": 96,
            "midi": 35,
            "name": "B1",
            "ticks": 82368,
            "time": 112.8945675,
            "velocity": 0.3937007874015748
          },
          {
            "duration": 0.13157875000000274,
            "durationTicks": 96,
            "midi": 38,
            "name": "D2",
            "ticks": 82560,
            "time": 113.157725,
            "velocity": 0.3937007874015748
          },
          {
            "duration": 0.13157875000000274,
            "durationTicks": 96,
            "midi": 53,
            "name": "F3",
            "ticks": 82560,
            "time": 113.157725,
            "velocity": 0.3937007874015748
          },
          {
            "duration": 0.13157875000000274,
            "durationTicks": 96,
            "midi": 40,
            "name": "E2",
            "ticks": 82560,
            "time": 113.157725,
            "velocity": 0.3937007874015748
          },
          {
            "duration": 0.13157875000000274,
            "durationTicks": 96,
            "midi": 53,
            "name": "F3",
            "ticks": 82944,
            "time": 113.68404,
            "velocity": 0.3937007874015748
          },
          {
            "duration": 0.13157875000000274,
            "durationTicks": 96,
            "midi": 36,
            "name": "C2",
            "ticks": 82944,
            "time": 113.68404,
            "velocity": 0.3937007874015748
          },
          {
            "duration": 0.13157875000000274,
            "durationTicks": 96,
            "midi": 41,
            "name": "F2",
            "ticks": 82944,
            "time": 113.68404,
            "velocity": 0.3937007874015748
          },
          {
            "duration": 0.13157875000000274,
            "durationTicks": 96,
            "midi": 35,
            "name": "B1",
            "ticks": 82944,
            "time": 113.68404,
            "velocity": 0.3937007874015748
          },
          {
            "duration": 0.13157875000000274,
            "durationTicks": 96,
            "midi": 38,
            "name": "D2",
            "ticks": 83328,
            "time": 114.21035499999999,
            "velocity": 0.3937007874015748
          },
          {
            "duration": 0.13157875000000274,
            "durationTicks": 96,
            "midi": 40,
            "name": "E2",
            "ticks": 83328,
            "time": 114.21035499999999,
            "velocity": 0.3937007874015748
          },
          {
            "duration": 0.13157875000000274,
            "durationTicks": 96,
            "midi": 53,
            "name": "F3",
            "ticks": 83328,
            "time": 114.21035499999999,
            "velocity": 0.3937007874015748
          },
          {
            "duration": 0.13157875000000274,
            "durationTicks": 96,
            "midi": 53,
            "name": "F3",
            "ticks": 83712,
            "time": 114.73666999999999,
            "velocity": 0.3937007874015748
          },
          {
            "duration": 0.13157875000000274,
            "durationTicks": 96,
            "midi": 36,
            "name": "C2",
            "ticks": 83904,
            "time": 114.9998275,
            "velocity": 0.3937007874015748
          },
          {
            "duration": 0.13157875000000274,
            "durationTicks": 96,
            "midi": 41,
            "name": "F2",
            "ticks": 83904,
            "time": 114.9998275,
            "velocity": 0.3937007874015748
          },
          {
            "duration": 0.13157875000000274,
            "durationTicks": 96,
            "midi": 35,
            "name": "B1",
            "ticks": 83904,
            "time": 114.9998275,
            "velocity": 0.3937007874015748
          },
          {
            "duration": 0.13157874999998853,
            "durationTicks": 96,
            "midi": 38,
            "name": "D2",
            "ticks": 84096,
            "time": 115.262985,
            "velocity": 0.3937007874015748
          },
          {
            "duration": 0.13157874999998853,
            "durationTicks": 96,
            "midi": 53,
            "name": "F3",
            "ticks": 84096,
            "time": 115.262985,
            "velocity": 0.3937007874015748
          },
          {
            "duration": 0.13157874999998853,
            "durationTicks": 96,
            "midi": 40,
            "name": "E2",
            "ticks": 84096,
            "time": 115.262985,
            "velocity": 0.3937007874015748
          },
          {
            "duration": 0.13157875000000274,
            "durationTicks": 96,
            "midi": 41,
            "name": "F2",
            "ticks": 84480,
            "time": 115.7893,
            "velocity": 0.3937007874015748
          },
          {
            "duration": 0.13157875000000274,
            "durationTicks": 96,
            "midi": 53,
            "name": "F3",
            "ticks": 84480,
            "time": 115.7893,
            "velocity": 0.3937007874015748
          },
          {
            "duration": 0.13157875000000274,
            "durationTicks": 96,
            "midi": 36,
            "name": "C2",
            "ticks": 84480,
            "time": 115.7893,
            "velocity": 0.3937007874015748
          },
          {
            "duration": 0.13157875000000274,
            "durationTicks": 96,
            "midi": 35,
            "name": "B1",
            "ticks": 84480,
            "time": 115.7893,
            "velocity": 0.3937007874015748
          },
          {
            "duration": 0.13157875000000274,
            "durationTicks": 96,
            "midi": 53,
            "name": "F3",
            "ticks": 84864,
            "time": 116.315615,
            "velocity": 0.3937007874015748
          },
          {
            "duration": 0.13157875000000274,
            "durationTicks": 96,
            "midi": 38,
            "name": "D2",
            "ticks": 84864,
            "time": 116.315615,
            "velocity": 0.3937007874015748
          },
          {
            "duration": 0.13157875000000274,
            "durationTicks": 96,
            "midi": 40,
            "name": "E2",
            "ticks": 84864,
            "time": 116.315615,
            "velocity": 0.3937007874015748
          },
          {
            "duration": 0.13157875000000274,
            "durationTicks": 96,
            "midi": 53,
            "name": "F3",
            "ticks": 85248,
            "time": 116.84192999999999,
            "velocity": 0.3937007874015748
          },
          {
            "duration": 0.13157875000000274,
            "durationTicks": 96,
            "midi": 35,
            "name": "B1",
            "ticks": 85440,
            "time": 117.1050875,
            "velocity": 0.3937007874015748
          },
          {
            "duration": 0.13157875000000274,
            "durationTicks": 96,
            "midi": 41,
            "name": "F2",
            "ticks": 85440,
            "time": 117.1050875,
            "velocity": 0.3937007874015748
          },
          {
            "duration": 0.13157875000000274,
            "durationTicks": 96,
            "midi": 36,
            "name": "C2",
            "ticks": 85440,
            "time": 117.1050875,
            "velocity": 0.3937007874015748
          },
          {
            "duration": 0.13157874999998853,
            "durationTicks": 96,
            "midi": 38,
            "name": "D2",
            "ticks": 85632,
            "time": 117.368245,
            "velocity": 0.3937007874015748
          },
          {
            "duration": 0.13157874999998853,
            "durationTicks": 96,
            "midi": 40,
            "name": "E2",
            "ticks": 85632,
            "time": 117.368245,
            "velocity": 0.3937007874015748
          },
          {
            "duration": 0.13157874999998853,
            "durationTicks": 96,
            "midi": 53,
            "name": "F3",
            "ticks": 85632,
            "time": 117.368245,
            "velocity": 0.3937007874015748
          },
          {
            "duration": 0.13157875000000274,
            "durationTicks": 96,
            "midi": 38,
            "name": "D2",
            "ticks": 85920,
            "time": 117.76298125,
            "velocity": 0.3937007874015748
          },
          {
            "duration": 0.13157875000000274,
            "durationTicks": 96,
            "midi": 40,
            "name": "E2",
            "ticks": 85920,
            "time": 117.76298125,
            "velocity": 0.3937007874015748
          },
          {
            "duration": 0.13157875000000274,
            "durationTicks": 96,
            "midi": 53,
            "name": "F3",
            "ticks": 86016,
            "time": 117.89456,
            "velocity": 0.3937007874015748
          },
          {
            "duration": 0.13157875000000274,
            "durationTicks": 96,
            "midi": 36,
            "name": "C2",
            "ticks": 86016,
            "time": 117.89456,
            "velocity": 0.3937007874015748
          },
          {
            "duration": 0.13157875000000274,
            "durationTicks": 96,
            "midi": 41,
            "name": "F2",
            "ticks": 86016,
            "time": 117.89456,
            "velocity": 0.3937007874015748
          },
          {
            "duration": 0.13157875000000274,
            "durationTicks": 96,
            "midi": 57,
            "name": "A3",
            "ticks": 86016,
            "time": 117.89456,
            "velocity": 0.3937007874015748
          },
          {
            "duration": 0.13157875000000274,
            "durationTicks": 96,
            "midi": 35,
            "name": "B1",
            "ticks": 86016,
            "time": 117.89456,
            "velocity": 0.3937007874015748
          },
          {
            "duration": 0.13157875000000274,
            "durationTicks": 96,
            "midi": 57,
            "name": "A3",
            "ticks": 86016,
            "time": 117.89456,
            "velocity": 0.3937007874015748
          },
          {
            "duration": 0.13157875000000274,
            "durationTicks": 96,
            "midi": 49,
            "name": "C#3",
            "ticks": 86016,
            "time": 117.89456,
            "velocity": 0.3937007874015748
          },
          {
            "duration": 0.13157875000000274,
            "durationTicks": 96,
            "midi": 53,
            "name": "F3",
            "ticks": 86400,
            "time": 118.420875,
            "velocity": 0.3937007874015748
          },
          {
            "duration": 0.13157875000000274,
            "durationTicks": 96,
            "midi": 40,
            "name": "E2",
            "ticks": 86400,
            "time": 118.420875,
            "velocity": 0.3937007874015748
          },
          {
            "duration": 0.13157875000000274,
            "durationTicks": 96,
            "midi": 38,
            "name": "D2",
            "ticks": 86400,
            "time": 118.420875,
            "velocity": 0.3937007874015748
          },
          {
            "duration": 0.13157875000000274,
            "durationTicks": 96,
            "midi": 53,
            "name": "F3",
            "ticks": 86784,
            "time": 118.94718999999999,
            "velocity": 0.3937007874015748
          },
          {
            "duration": 0.13157875000000274,
            "durationTicks": 96,
            "midi": 41,
            "name": "F2",
            "ticks": 86976,
            "time": 119.2103475,
            "velocity": 0.3937007874015748
          },
          {
            "duration": 0.13157875000000274,
            "durationTicks": 96,
            "midi": 36,
            "name": "C2",
            "ticks": 86976,
            "time": 119.2103475,
            "velocity": 0.3937007874015748
          },
          {
            "duration": 0.13157875000000274,
            "durationTicks": 96,
            "midi": 35,
            "name": "B1",
            "ticks": 86976,
            "time": 119.2103475,
            "velocity": 0.3937007874015748
          },
          {
            "duration": 0.13157875000000274,
            "durationTicks": 96,
            "midi": 38,
            "name": "D2",
            "ticks": 87168,
            "time": 119.47350499999999,
            "velocity": 0.3937007874015748
          },
          {
            "duration": 0.13157875000000274,
            "durationTicks": 96,
            "midi": 53,
            "name": "F3",
            "ticks": 87168,
            "time": 119.47350499999999,
            "velocity": 0.3937007874015748
          },
          {
            "duration": 0.13157875000000274,
            "durationTicks": 96,
            "midi": 40,
            "name": "E2",
            "ticks": 87168,
            "time": 119.47350499999999,
            "velocity": 0.3937007874015748
          },
          {
            "duration": 0.13157874999998853,
            "durationTicks": 96,
            "midi": 36,
            "name": "C2",
            "ticks": 87552,
            "time": 119.99982,
            "velocity": 0.3937007874015748
          },
          {
            "duration": 0.13157874999998853,
            "durationTicks": 96,
            "midi": 41,
            "name": "F2",
            "ticks": 87552,
            "time": 119.99982,
            "velocity": 0.3937007874015748
          },
          {
            "duration": 0.13157874999998853,
            "durationTicks": 96,
            "midi": 53,
            "name": "F3",
            "ticks": 87552,
            "time": 119.99982,
            "velocity": 0.3937007874015748
          },
          {
            "duration": 0.13157874999998853,
            "durationTicks": 96,
            "midi": 35,
            "name": "B1",
            "ticks": 87552,
            "time": 119.99982,
            "velocity": 0.3937007874015748
          },
          {
            "duration": 0.13157875000000274,
            "durationTicks": 96,
            "midi": 40,
            "name": "E2",
            "ticks": 87936,
            "time": 120.526135,
            "velocity": 0.3937007874015748
          },
          {
            "duration": 0.13157875000000274,
            "durationTicks": 96,
            "midi": 53,
            "name": "F3",
            "ticks": 87936,
            "time": 120.526135,
            "velocity": 0.3937007874015748
          },
          {
            "duration": 0.13157875000000274,
            "durationTicks": 96,
            "midi": 38,
            "name": "D2",
            "ticks": 87936,
            "time": 120.526135,
            "velocity": 0.3937007874015748
          },
          {
            "duration": 0.13157875000000274,
            "durationTicks": 96,
            "midi": 53,
            "name": "F3",
            "ticks": 88320,
            "time": 121.05245,
            "velocity": 0.3937007874015748
          },
          {
            "duration": 0.13157875000000274,
            "durationTicks": 96,
            "midi": 35,
            "name": "B1",
            "ticks": 88512,
            "time": 121.3156075,
            "velocity": 0.3937007874015748
          },
          {
            "duration": 0.13157875000000274,
            "durationTicks": 96,
            "midi": 41,
            "name": "F2",
            "ticks": 88512,
            "time": 121.3156075,
            "velocity": 0.3937007874015748
          },
          {
            "duration": 0.13157875000000274,
            "durationTicks": 96,
            "midi": 36,
            "name": "C2",
            "ticks": 88512,
            "time": 121.3156075,
            "velocity": 0.3937007874015748
          },
          {
            "duration": 0.13157875000000274,
            "durationTicks": 96,
            "midi": 38,
            "name": "D2",
            "ticks": 88704,
            "time": 121.57876499999999,
            "velocity": 0.3937007874015748
          },
          {
            "duration": 0.13157875000000274,
            "durationTicks": 96,
            "midi": 40,
            "name": "E2",
            "ticks": 88704,
            "time": 121.57876499999999,
            "velocity": 0.3937007874015748
          },
          {
            "duration": 0.13157875000000274,
            "durationTicks": 96,
            "midi": 53,
            "name": "F3",
            "ticks": 88704,
            "time": 121.57876499999999,
            "velocity": 0.3937007874015748
          },
          {
            "duration": 0.13157874999998853,
            "durationTicks": 96,
            "midi": 41,
            "name": "F2",
            "ticks": 89088,
            "time": 122.10508,
            "velocity": 0.3937007874015748
          },
          {
            "duration": 0.13157874999998853,
            "durationTicks": 96,
            "midi": 35,
            "name": "B1",
            "ticks": 89088,
            "time": 122.10508,
            "velocity": 0.3937007874015748
          },
          {
            "duration": 0.13157874999998853,
            "durationTicks": 96,
            "midi": 53,
            "name": "F3",
            "ticks": 89088,
            "time": 122.10508,
            "velocity": 0.3937007874015748
          },
          {
            "duration": 0.13157874999998853,
            "durationTicks": 96,
            "midi": 36,
            "name": "C2",
            "ticks": 89088,
            "time": 122.10508,
            "velocity": 0.3937007874015748
          },
          {
            "duration": 0.13157875000000274,
            "durationTicks": 96,
            "midi": 53,
            "name": "F3",
            "ticks": 89472,
            "time": 122.631395,
            "velocity": 0.3937007874015748
          },
          {
            "duration": 0.13157875000000274,
            "durationTicks": 96,
            "midi": 38,
            "name": "D2",
            "ticks": 89472,
            "time": 122.631395,
            "velocity": 0.3937007874015748
          },
          {
            "duration": 0.13157875000000274,
            "durationTicks": 96,
            "midi": 40,
            "name": "E2",
            "ticks": 89472,
            "time": 122.631395,
            "velocity": 0.3937007874015748
          },
          {
            "duration": 0.13157875000000274,
            "durationTicks": 96,
            "midi": 53,
            "name": "F3",
            "ticks": 89856,
            "time": 123.15771,
            "velocity": 0.3937007874015748
          },
          {
            "duration": 0.13157874999998853,
            "durationTicks": 96,
            "midi": 36,
            "name": "C2",
            "ticks": 90048,
            "time": 123.4208675,
            "velocity": 0.3937007874015748
          },
          {
            "duration": 0.13157874999998853,
            "durationTicks": 96,
            "midi": 35,
            "name": "B1",
            "ticks": 90048,
            "time": 123.4208675,
            "velocity": 0.3937007874015748
          },
          {
            "duration": 0.13157874999998853,
            "durationTicks": 96,
            "midi": 41,
            "name": "F2",
            "ticks": 90048,
            "time": 123.4208675,
            "velocity": 0.3937007874015748
          },
          {
            "duration": 0.13157875000000274,
            "durationTicks": 96,
            "midi": 40,
            "name": "E2",
            "ticks": 90240,
            "time": 123.68402499999999,
            "velocity": 0.3937007874015748
          },
          {
            "duration": 0.13157875000000274,
            "durationTicks": 96,
            "midi": 53,
            "name": "F3",
            "ticks": 90240,
            "time": 123.68402499999999,
            "velocity": 0.3937007874015748
          },
          {
            "duration": 0.13157875000000274,
            "durationTicks": 96,
            "midi": 38,
            "name": "D2",
            "ticks": 90240,
            "time": 123.68402499999999,
            "velocity": 0.3937007874015748
          },
          {
            "duration": 0.13157875000000274,
            "durationTicks": 96,
            "midi": 53,
            "name": "F3",
            "ticks": 90624,
            "time": 124.21033999999999,
            "velocity": 0.3937007874015748
          },
          {
            "duration": 0.13157875000000274,
            "durationTicks": 96,
            "midi": 36,
            "name": "C2",
            "ticks": 90624,
            "time": 124.21033999999999,
            "velocity": 0.3937007874015748
          },
          {
            "duration": 0.13157875000000274,
            "durationTicks": 96,
            "midi": 41,
            "name": "F2",
            "ticks": 90624,
            "time": 124.21033999999999,
            "velocity": 0.3937007874015748
          },
          {
            "duration": 0.13157875000000274,
            "durationTicks": 96,
            "midi": 35,
            "name": "B1",
            "ticks": 90624,
            "time": 124.21033999999999,
            "velocity": 0.3937007874015748
          },
          {
            "duration": 0.13157875000000274,
            "durationTicks": 96,
            "midi": 40,
            "name": "E2",
            "ticks": 91008,
            "time": 124.736655,
            "velocity": 0.3937007874015748
          },
          {
            "duration": 0.13157875000000274,
            "durationTicks": 96,
            "midi": 53,
            "name": "F3",
            "ticks": 91008,
            "time": 124.736655,
            "velocity": 0.3937007874015748
          },
          {
            "duration": 0.13157875000000274,
            "durationTicks": 96,
            "midi": 38,
            "name": "D2",
            "ticks": 91008,
            "time": 124.736655,
            "velocity": 0.3937007874015748
          },
          {
            "duration": 0.13157875000000274,
            "durationTicks": 96,
            "midi": 53,
            "name": "F3",
            "ticks": 91392,
            "time": 125.26297,
            "velocity": 0.3937007874015748
          },
          {
            "duration": 0.13157874999998853,
            "durationTicks": 96,
            "midi": 41,
            "name": "F2",
            "ticks": 91584,
            "time": 125.5261275,
            "velocity": 0.3937007874015748
          },
          {
            "duration": 0.13157874999998853,
            "durationTicks": 96,
            "midi": 35,
            "name": "B1",
            "ticks": 91584,
            "time": 125.5261275,
            "velocity": 0.3937007874015748
          },
          {
            "duration": 0.13157874999998853,
            "durationTicks": 96,
            "midi": 36,
            "name": "C2",
            "ticks": 91584,
            "time": 125.5261275,
            "velocity": 0.3937007874015748
          },
          {
            "duration": 0.13157875000000274,
            "durationTicks": 96,
            "midi": 53,
            "name": "F3",
            "ticks": 91776,
            "time": 125.78928499999999,
            "velocity": 0.3937007874015748
          },
          {
            "duration": 0.13157875000000274,
            "durationTicks": 96,
            "midi": 40,
            "name": "E2",
            "ticks": 91776,
            "time": 125.78928499999999,
            "velocity": 0.3937007874015748
          },
          {
            "duration": 0.13157875000000274,
            "durationTicks": 96,
            "midi": 38,
            "name": "D2",
            "ticks": 91776,
            "time": 125.78928499999999,
            "velocity": 0.3937007874015748
          },
          {
            "duration": 0.13157874999998853,
            "durationTicks": 96,
            "midi": 38,
            "name": "D2",
            "ticks": 92064,
            "time": 126.18402125,
            "velocity": 0.3937007874015748
          },
          {
            "duration": 0.13157874999998853,
            "durationTicks": 96,
            "midi": 40,
            "name": "E2",
            "ticks": 92064,
            "time": 126.18402125,
            "velocity": 0.3937007874015748
          },
          {
            "duration": 0.13157875000000274,
            "durationTicks": 96,
            "midi": 57,
            "name": "A3",
            "ticks": 92160,
            "time": 126.31559999999999,
            "velocity": 0.3937007874015748
          },
          {
            "duration": 0.13157875000000274,
            "durationTicks": 96,
            "midi": 49,
            "name": "C#3",
            "ticks": 92160,
            "time": 126.31559999999999,
            "velocity": 0.3937007874015748
          },
          {
            "duration": 0.13157875000000274,
            "durationTicks": 96,
            "midi": 57,
            "name": "A3",
            "ticks": 92160,
            "time": 126.31559999999999,
            "velocity": 0.3937007874015748
          },
          {
            "duration": 0.13157875000000274,
            "durationTicks": 96,
            "midi": 57,
            "name": "A3",
            "ticks": 92160,
            "time": 126.31559999999999,
            "velocity": 0.3937007874015748
          },
          {
            "duration": 0.13157874999998853,
            "durationTicks": 96,
            "midi": 38,
            "name": "D2",
            "ticks": 92544,
            "time": 126.841915,
            "velocity": 0.3937007874015748
          },
          {
            "duration": 0.13157874999998853,
            "durationTicks": 96,
            "midi": 53,
            "name": "F3",
            "ticks": 92544,
            "time": 126.841915,
            "velocity": 0.3937007874015748
          },
          {
            "duration": 0.13157874999998853,
            "durationTicks": 96,
            "midi": 40,
            "name": "E2",
            "ticks": 92544,
            "time": 126.841915,
            "velocity": 0.3937007874015748
          },
          {
            "duration": 0.13157875000000274,
            "durationTicks": 96,
            "midi": 53,
            "name": "F3",
            "ticks": 92928,
            "time": 127.36823,
            "velocity": 0.3937007874015748
          },
          {
            "duration": 0.13157875000000274,
            "durationTicks": 96,
            "midi": 36,
            "name": "C2",
            "ticks": 93120,
            "time": 127.63138749999999,
            "velocity": 0.3937007874015748
          },
          {
            "duration": 0.13157875000000274,
            "durationTicks": 96,
            "midi": 41,
            "name": "F2",
            "ticks": 93120,
            "time": 127.63138749999999,
            "velocity": 0.3937007874015748
          },
          {
            "duration": 0.13157875000000274,
            "durationTicks": 96,
            "midi": 35,
            "name": "B1",
            "ticks": 93120,
            "time": 127.63138749999999,
            "velocity": 0.3937007874015748
          },
          {
            "duration": 0.13157874999998853,
            "durationTicks": 96,
            "midi": 40,
            "name": "E2",
            "ticks": 93312,
            "time": 127.894545,
            "velocity": 0.3937007874015748
          },
          {
            "duration": 0.13157874999998853,
            "durationTicks": 96,
            "midi": 38,
            "name": "D2",
            "ticks": 93312,
            "time": 127.894545,
            "velocity": 0.3937007874015748
          },
          {
            "duration": 0.13157874999998853,
            "durationTicks": 96,
            "midi": 53,
            "name": "F3",
            "ticks": 93312,
            "time": 127.894545,
            "velocity": 0.3937007874015748
          },
          {
            "duration": 0.13157874999998853,
            "durationTicks": 96,
            "midi": 53,
            "name": "F3",
            "ticks": 93696,
            "time": 128.42086,
            "velocity": 0.3937007874015748
          },
          {
            "duration": 0.13157874999998853,
            "durationTicks": 96,
            "midi": 36,
            "name": "C2",
            "ticks": 93696,
            "time": 128.42086,
            "velocity": 0.3937007874015748
          },
          {
            "duration": 0.13157874999998853,
            "durationTicks": 96,
            "midi": 35,
            "name": "B1",
            "ticks": 93696,
            "time": 128.42086,
            "velocity": 0.3937007874015748
          },
          {
            "duration": 0.13157874999998853,
            "durationTicks": 96,
            "midi": 41,
            "name": "F2",
            "ticks": 93696,
            "time": 128.42086,
            "velocity": 0.3937007874015748
          },
          {
            "duration": 0.13157875000001695,
            "durationTicks": 96,
            "midi": 53,
            "name": "F3",
            "ticks": 94080,
            "time": 128.947175,
            "velocity": 0.3937007874015748
          },
          {
            "duration": 0.13157875000001695,
            "durationTicks": 96,
            "midi": 40,
            "name": "E2",
            "ticks": 94080,
            "time": 128.947175,
            "velocity": 0.3937007874015748
          },
          {
            "duration": 0.13157875000001695,
            "durationTicks": 96,
            "midi": 38,
            "name": "D2",
            "ticks": 94080,
            "time": 128.947175,
            "velocity": 0.3937007874015748
          },
          {
            "duration": 0.13157874999998853,
            "durationTicks": 96,
            "midi": 53,
            "name": "F3",
            "ticks": 94464,
            "time": 129.47349,
            "velocity": 0.3937007874015748
          },
          {
            "duration": 0.13157874999998853,
            "durationTicks": 96,
            "midi": 41,
            "name": "F2",
            "ticks": 94656,
            "time": 129.7366475,
            "velocity": 0.3937007874015748
          },
          {
            "duration": 0.13157874999998853,
            "durationTicks": 96,
            "midi": 36,
            "name": "C2",
            "ticks": 94656,
            "time": 129.7366475,
            "velocity": 0.3937007874015748
          },
          {
            "duration": 0.13157874999998853,
            "durationTicks": 96,
            "midi": 35,
            "name": "B1",
            "ticks": 94656,
            "time": 129.7366475,
            "velocity": 0.3937007874015748
          },
          {
            "duration": 0.13157875000001695,
            "durationTicks": 96,
            "midi": 40,
            "name": "E2",
            "ticks": 94848,
            "time": 129.99980499999998,
            "velocity": 0.3937007874015748
          },
          {
            "duration": 0.13157875000001695,
            "durationTicks": 96,
            "midi": 53,
            "name": "F3",
            "ticks": 94848,
            "time": 129.99980499999998,
            "velocity": 0.3937007874015748
          },
          {
            "duration": 0.13157875000001695,
            "durationTicks": 96,
            "midi": 38,
            "name": "D2",
            "ticks": 94848,
            "time": 129.99980499999998,
            "velocity": 0.3937007874015748
          },
          {
            "duration": 0.13157874999998853,
            "durationTicks": 96,
            "midi": 35,
            "name": "B1",
            "ticks": 95232,
            "time": 130.52612,
            "velocity": 0.3937007874015748
          },
          {
            "duration": 0.13157874999998853,
            "durationTicks": 96,
            "midi": 36,
            "name": "C2",
            "ticks": 95232,
            "time": 130.52612,
            "velocity": 0.3937007874015748
          },
          {
            "duration": 0.13157874999998853,
            "durationTicks": 96,
            "midi": 41,
            "name": "F2",
            "ticks": 95232,
            "time": 130.52612,
            "velocity": 0.3937007874015748
          },
          {
            "duration": 0.13157874999998853,
            "durationTicks": 96,
            "midi": 53,
            "name": "F3",
            "ticks": 95232,
            "time": 130.52612,
            "velocity": 0.3937007874015748
          },
          {
            "duration": 0.13157874999998853,
            "durationTicks": 96,
            "midi": 40,
            "name": "E2",
            "ticks": 95616,
            "time": 131.052435,
            "velocity": 0.3937007874015748
          },
          {
            "duration": 0.13157874999998853,
            "durationTicks": 96,
            "midi": 53,
            "name": "F3",
            "ticks": 95616,
            "time": 131.052435,
            "velocity": 0.3937007874015748
          },
          {
            "duration": 0.13157874999998853,
            "durationTicks": 96,
            "midi": 38,
            "name": "D2",
            "ticks": 95616,
            "time": 131.052435,
            "velocity": 0.3937007874015748
          },
          {
            "duration": 0.13157875000001695,
            "durationTicks": 96,
            "midi": 53,
            "name": "F3",
            "ticks": 96000,
            "time": 131.57874999999999,
            "velocity": 0.3937007874015748
          },
          {
            "duration": 0.13157875000001695,
            "durationTicks": 96,
            "midi": 35,
            "name": "B1",
            "ticks": 96192,
            "time": 131.8419075,
            "velocity": 0.3937007874015748
          },
          {
            "duration": 0.13157875000001695,
            "durationTicks": 96,
            "midi": 36,
            "name": "C2",
            "ticks": 96192,
            "time": 131.8419075,
            "velocity": 0.3937007874015748
          },
          {
            "duration": 0.13157875000001695,
            "durationTicks": 96,
            "midi": 41,
            "name": "F2",
            "ticks": 96192,
            "time": 131.8419075,
            "velocity": 0.3937007874015748
          },
          {
            "duration": 0.13157874999998853,
            "durationTicks": 96,
            "midi": 53,
            "name": "F3",
            "ticks": 96384,
            "time": 132.105065,
            "velocity": 0.3937007874015748
          },
          {
            "duration": 0.13157874999998853,
            "durationTicks": 96,
            "midi": 38,
            "name": "D2",
            "ticks": 96384,
            "time": 132.105065,
            "velocity": 0.3937007874015748
          },
          {
            "duration": 0.13157874999998853,
            "durationTicks": 96,
            "midi": 40,
            "name": "E2",
            "ticks": 96384,
            "time": 132.105065,
            "velocity": 0.3937007874015748
          },
          {
            "duration": 0.13157874999998853,
            "durationTicks": 96,
            "midi": 53,
            "name": "F3",
            "ticks": 96768,
            "time": 132.63138,
            "velocity": 0.3937007874015748
          },
          {
            "duration": 0.13157874999998853,
            "durationTicks": 96,
            "midi": 35,
            "name": "B1",
            "ticks": 96768,
            "time": 132.63138,
            "velocity": 0.3937007874015748
          },
          {
            "duration": 0.13157874999998853,
            "durationTicks": 96,
            "midi": 41,
            "name": "F2",
            "ticks": 96768,
            "time": 132.63138,
            "velocity": 0.3937007874015748
          },
          {
            "duration": 0.13157874999998853,
            "durationTicks": 96,
            "midi": 36,
            "name": "C2",
            "ticks": 96768,
            "time": 132.63138,
            "velocity": 0.3937007874015748
          },
          {
            "duration": 0.13157875000001695,
            "durationTicks": 96,
            "midi": 53,
            "name": "F3",
            "ticks": 97152,
            "time": 133.157695,
            "velocity": 0.3937007874015748
          },
          {
            "duration": 0.13157875000001695,
            "durationTicks": 96,
            "midi": 40,
            "name": "E2",
            "ticks": 97152,
            "time": 133.157695,
            "velocity": 0.3937007874015748
          },
          {
            "duration": 0.13157875000001695,
            "durationTicks": 96,
            "midi": 38,
            "name": "D2",
            "ticks": 97152,
            "time": 133.157695,
            "velocity": 0.3937007874015748
          },
          {
            "duration": 0.13157874999998853,
            "durationTicks": 96,
            "midi": 53,
            "name": "F3",
            "ticks": 97536,
            "time": 133.68401,
            "velocity": 0.3937007874015748
          },
          {
            "duration": 0.13157874999998853,
            "durationTicks": 96,
            "midi": 35,
            "name": "B1",
            "ticks": 97728,
            "time": 133.9471675,
            "velocity": 0.3937007874015748
          },
          {
            "duration": 0.13157874999998853,
            "durationTicks": 96,
            "midi": 41,
            "name": "F2",
            "ticks": 97728,
            "time": 133.9471675,
            "velocity": 0.3937007874015748
          },
          {
            "duration": 0.13157874999998853,
            "durationTicks": 96,
            "midi": 36,
            "name": "C2",
            "ticks": 97728,
            "time": 133.9471675,
            "velocity": 0.3937007874015748
          },
          {
            "duration": 0.13157875000001695,
            "durationTicks": 96,
            "midi": 40,
            "name": "E2",
            "ticks": 97920,
            "time": 134.21032499999998,
            "velocity": 0.3937007874015748
          },
          {
            "duration": 0.13157875000001695,
            "durationTicks": 96,
            "midi": 53,
            "name": "F3",
            "ticks": 97920,
            "time": 134.21032499999998,
            "velocity": 0.3937007874015748
          },
          {
            "duration": 0.13157875000001695,
            "durationTicks": 96,
            "midi": 38,
            "name": "D2",
            "ticks": 97920,
            "time": 134.21032499999998,
            "velocity": 0.3937007874015748
          },
          {
            "duration": 0.13157874999998853,
            "durationTicks": 96,
            "midi": 40,
            "name": "E2",
            "ticks": 98208,
            "time": 134.60506125,
            "velocity": 0.3937007874015748
          },
          {
            "duration": 0.13157874999998853,
            "durationTicks": 96,
            "midi": 38,
            "name": "D2",
            "ticks": 98208,
            "time": 134.60506125,
            "velocity": 0.3937007874015748
          },
          {
            "duration": 0.13157874999998853,
            "durationTicks": 96,
            "midi": 57,
            "name": "A3",
            "ticks": 98304,
            "time": 134.73664,
            "velocity": 0.3937007874015748
          },
          {
            "duration": 0.13157874999998853,
            "durationTicks": 96,
            "midi": 53,
            "name": "F3",
            "ticks": 98304,
            "time": 134.73664,
            "velocity": 0.3937007874015748
          },
          {
            "duration": 0.13157874999998853,
            "durationTicks": 96,
            "midi": 35,
            "name": "B1",
            "ticks": 98304,
            "time": 134.73664,
            "velocity": 0.3937007874015748
          },
          {
            "duration": 0.13157874999998853,
            "durationTicks": 96,
            "midi": 41,
            "name": "F2",
            "ticks": 98304,
            "time": 134.73664,
            "velocity": 0.3937007874015748
          },
          {
            "duration": 0.13157874999998853,
            "durationTicks": 96,
            "midi": 57,
            "name": "A3",
            "ticks": 98304,
            "time": 134.73664,
            "velocity": 0.3937007874015748
          },
          {
            "duration": 0.13157874999998853,
            "durationTicks": 96,
            "midi": 36,
            "name": "C2",
            "ticks": 98304,
            "time": 134.73664,
            "velocity": 0.3937007874015748
          },
          {
            "duration": 0.13157874999998853,
            "durationTicks": 96,
            "midi": 49,
            "name": "C#3",
            "ticks": 98304,
            "time": 134.73664,
            "velocity": 0.3937007874015748
          },
          {
            "duration": 0.13157874999998853,
            "durationTicks": 96,
            "midi": 38,
            "name": "D2",
            "ticks": 98688,
            "time": 135.262955,
            "velocity": 0.3937007874015748
          },
          {
            "duration": 0.13157874999998853,
            "durationTicks": 96,
            "midi": 40,
            "name": "E2",
            "ticks": 98688,
            "time": 135.262955,
            "velocity": 0.3937007874015748
          },
          {
            "duration": 0.13157874999998853,
            "durationTicks": 96,
            "midi": 53,
            "name": "F3",
            "ticks": 98688,
            "time": 135.262955,
            "velocity": 0.3937007874015748
          },
          {
            "duration": 0.13157875000001695,
            "durationTicks": 96,
            "midi": 53,
            "name": "F3",
            "ticks": 99072,
            "time": 135.78927,
            "velocity": 0.3937007874015748
          },
          {
            "duration": 0.13157874999998853,
            "durationTicks": 96,
            "midi": 41,
            "name": "F2",
            "ticks": 99264,
            "time": 136.0524275,
            "velocity": 0.3937007874015748
          },
          {
            "duration": 0.13157874999998853,
            "durationTicks": 96,
            "midi": 36,
            "name": "C2",
            "ticks": 99264,
            "time": 136.0524275,
            "velocity": 0.3937007874015748
          },
          {
            "duration": 0.13157874999998853,
            "durationTicks": 96,
            "midi": 35,
            "name": "B1",
            "ticks": 99264,
            "time": 136.0524275,
            "velocity": 0.3937007874015748
          },
          {
            "duration": 0.13157874999998853,
            "durationTicks": 96,
            "midi": 40,
            "name": "E2",
            "ticks": 99456,
            "time": 136.315585,
            "velocity": 0.3937007874015748
          },
          {
            "duration": 0.13157874999998853,
            "durationTicks": 96,
            "midi": 38,
            "name": "D2",
            "ticks": 99456,
            "time": 136.315585,
            "velocity": 0.3937007874015748
          },
          {
            "duration": 0.13157874999998853,
            "durationTicks": 96,
            "midi": 53,
            "name": "F3",
            "ticks": 99456,
            "time": 136.315585,
            "velocity": 0.3937007874015748
          },
          {
            "duration": 0.13157875000001695,
            "durationTicks": 96,
            "midi": 36,
            "name": "C2",
            "ticks": 99840,
            "time": 136.84189999999998,
            "velocity": 0.3937007874015748
          },
          {
            "duration": 0.13157875000001695,
            "durationTicks": 96,
            "midi": 41,
            "name": "F2",
            "ticks": 99840,
            "time": 136.84189999999998,
            "velocity": 0.3937007874015748
          },
          {
            "duration": 0.13157875000001695,
            "durationTicks": 96,
            "midi": 53,
            "name": "F3",
            "ticks": 99840,
            "time": 136.84189999999998,
            "velocity": 0.3937007874015748
          },
          {
            "duration": 0.13157875000001695,
            "durationTicks": 96,
            "midi": 35,
            "name": "B1",
            "ticks": 99840,
            "time": 136.84189999999998,
            "velocity": 0.3937007874015748
          },
          {
            "duration": 0.13157874999998853,
            "durationTicks": 96,
            "midi": 38,
            "name": "D2",
            "ticks": 100224,
            "time": 137.368215,
            "velocity": 0.3937007874015748
          },
          {
            "duration": 0.13157874999998853,
            "durationTicks": 96,
            "midi": 53,
            "name": "F3",
            "ticks": 100224,
            "time": 137.368215,
            "velocity": 0.3937007874015748
          },
          {
            "duration": 0.13157874999998853,
            "durationTicks": 96,
            "midi": 40,
            "name": "E2",
            "ticks": 100224,
            "time": 137.368215,
            "velocity": 0.3937007874015748
          },
          {
            "duration": 0.13157874999998853,
            "durationTicks": 96,
            "midi": 53,
            "name": "F3",
            "ticks": 100608,
            "time": 137.89453,
            "velocity": 0.3937007874015748
          },
          {
            "duration": 0.13157875000001695,
            "durationTicks": 96,
            "midi": 35,
            "name": "B1",
            "ticks": 100800,
            "time": 138.15768749999998,
            "velocity": 0.3937007874015748
          },
          {
            "duration": 0.13157875000001695,
            "durationTicks": 96,
            "midi": 41,
            "name": "F2",
            "ticks": 100800,
            "time": 138.15768749999998,
            "velocity": 0.3937007874015748
          },
          {
            "duration": 0.13157875000001695,
            "durationTicks": 96,
            "midi": 36,
            "name": "C2",
            "ticks": 100800,
            "time": 138.15768749999998,
            "velocity": 0.3937007874015748
          },
          {
            "duration": 0.13157875000001695,
            "durationTicks": 96,
            "midi": 38,
            "name": "D2",
            "ticks": 100992,
            "time": 138.42084499999999,
            "velocity": 0.3937007874015748
          },
          {
            "duration": 0.13157875000001695,
            "durationTicks": 96,
            "midi": 40,
            "name": "E2",
            "ticks": 100992,
            "time": 138.42084499999999,
            "velocity": 0.3937007874015748
          },
          {
            "duration": 0.13157875000001695,
            "durationTicks": 96,
            "midi": 53,
            "name": "F3",
            "ticks": 100992,
            "time": 138.42084499999999,
            "velocity": 0.3937007874015748
          },
          {
            "duration": 0.13157874999998853,
            "durationTicks": 96,
            "midi": 35,
            "name": "B1",
            "ticks": 101376,
            "time": 138.94716,
            "velocity": 0.3937007874015748
          },
          {
            "duration": 0.13157874999998853,
            "durationTicks": 96,
            "midi": 41,
            "name": "F2",
            "ticks": 101376,
            "time": 138.94716,
            "velocity": 0.3937007874015748
          },
          {
            "duration": 0.13157874999998853,
            "durationTicks": 96,
            "midi": 36,
            "name": "C2",
            "ticks": 101376,
            "time": 138.94716,
            "velocity": 0.3937007874015748
          },
          {
            "duration": 0.13157874999998853,
            "durationTicks": 96,
            "midi": 53,
            "name": "F3",
            "ticks": 101376,
            "time": 138.94716,
            "velocity": 0.3937007874015748
          },
          {
            "duration": 0.13157874999998853,
            "durationTicks": 96,
            "midi": 40,
            "name": "E2",
            "ticks": 101760,
            "time": 139.473475,
            "velocity": 0.3937007874015748
          },
          {
            "duration": 0.13157874999998853,
            "durationTicks": 96,
            "midi": 38,
            "name": "D2",
            "ticks": 101760,
            "time": 139.473475,
            "velocity": 0.3937007874015748
          },
          {
            "duration": 0.13157874999998853,
            "durationTicks": 96,
            "midi": 53,
            "name": "F3",
            "ticks": 101760,
            "time": 139.473475,
            "velocity": 0.3937007874015748
          },
          {
            "duration": 0.13157875000001695,
            "durationTicks": 96,
            "midi": 53,
            "name": "F3",
            "ticks": 102144,
            "time": 139.99979,
            "velocity": 0.3937007874015748
          },
          {
            "duration": 0.13157874999998853,
            "durationTicks": 96,
            "midi": 35,
            "name": "B1",
            "ticks": 102336,
            "time": 140.2629475,
            "velocity": 0.3937007874015748
          },
          {
            "duration": 0.13157874999998853,
            "durationTicks": 96,
            "midi": 41,
            "name": "F2",
            "ticks": 102336,
            "time": 140.2629475,
            "velocity": 0.3937007874015748
          },
          {
            "duration": 0.13157874999998853,
            "durationTicks": 96,
            "midi": 36,
            "name": "C2",
            "ticks": 102336,
            "time": 140.2629475,
            "velocity": 0.3937007874015748
          },
          {
            "duration": 0.13157874999998853,
            "durationTicks": 96,
            "midi": 38,
            "name": "D2",
            "ticks": 102528,
            "time": 140.526105,
            "velocity": 0.3937007874015748
          },
          {
            "duration": 0.13157874999998853,
            "durationTicks": 96,
            "midi": 53,
            "name": "F3",
            "ticks": 102528,
            "time": 140.526105,
            "velocity": 0.3937007874015748
          },
          {
            "duration": 0.13157874999998853,
            "durationTicks": 96,
            "midi": 40,
            "name": "E2",
            "ticks": 102528,
            "time": 140.526105,
            "velocity": 0.3937007874015748
          },
          {
            "duration": 0.13157875000001695,
            "durationTicks": 96,
            "midi": 53,
            "name": "F3",
            "ticks": 102912,
            "time": 141.05241999999998,
            "velocity": 0.3937007874015748
          },
          {
            "duration": 0.13157875000001695,
            "durationTicks": 96,
            "midi": 36,
            "name": "C2",
            "ticks": 102912,
            "time": 141.05241999999998,
            "velocity": 0.3937007874015748
          },
          {
            "duration": 0.13157875000001695,
            "durationTicks": 96,
            "midi": 35,
            "name": "B1",
            "ticks": 102912,
            "time": 141.05241999999998,
            "velocity": 0.3937007874015748
          },
          {
            "duration": 0.13157875000001695,
            "durationTicks": 96,
            "midi": 41,
            "name": "F2",
            "ticks": 102912,
            "time": 141.05241999999998,
            "velocity": 0.3937007874015748
          },
          {
            "duration": 0.13157874999998853,
            "durationTicks": 96,
            "midi": 53,
            "name": "F3",
            "ticks": 103296,
            "time": 141.578735,
            "velocity": 0.3937007874015748
          },
          {
            "duration": 0.13157874999998853,
            "durationTicks": 96,
            "midi": 38,
            "name": "D2",
            "ticks": 103296,
            "time": 141.578735,
            "velocity": 0.3937007874015748
          },
          {
            "duration": 0.13157874999998853,
            "durationTicks": 96,
            "midi": 40,
            "name": "E2",
            "ticks": 103296,
            "time": 141.578735,
            "velocity": 0.3937007874015748
          },
          {
            "duration": 0.13157874999998853,
            "durationTicks": 96,
            "midi": 53,
            "name": "F3",
            "ticks": 103680,
            "time": 142.10505,
            "velocity": 0.3937007874015748
          },
          {
            "duration": 0.13157875000001695,
            "durationTicks": 96,
            "midi": 36,
            "name": "C2",
            "ticks": 103872,
            "time": 142.36820749999998,
            "velocity": 0.3937007874015748
          },
          {
            "duration": 0.13157875000001695,
            "durationTicks": 96,
            "midi": 41,
            "name": "F2",
            "ticks": 103872,
            "time": 142.36820749999998,
            "velocity": 0.3937007874015748
          },
          {
            "duration": 0.13157875000001695,
            "durationTicks": 96,
            "midi": 35,
            "name": "B1",
            "ticks": 103872,
            "time": 142.36820749999998,
            "velocity": 0.3937007874015748
          },
          {
            "duration": 0.13157875000001695,
            "durationTicks": 96,
            "midi": 40,
            "name": "E2",
            "ticks": 104064,
            "time": 142.631365,
            "velocity": 0.3937007874015748
          },
          {
            "duration": 0.13157875000001695,
            "durationTicks": 96,
            "midi": 53,
            "name": "F3",
            "ticks": 104064,
            "time": 142.631365,
            "velocity": 0.3937007874015748
          },
          {
            "duration": 0.13157875000001695,
            "durationTicks": 96,
            "midi": 38,
            "name": "D2",
            "ticks": 104064,
            "time": 142.631365,
            "velocity": 0.3937007874015748
          },
          {
            "duration": 0.13157875000001695,
            "durationTicks": 96,
            "midi": 40,
            "name": "E2",
            "ticks": 104352,
            "time": 143.02610124999998,
            "velocity": 0.3937007874015748
          },
          {
            "duration": 0.13157875000001695,
            "durationTicks": 96,
            "midi": 38,
            "name": "D2",
            "ticks": 104352,
            "time": 143.02610124999998,
            "velocity": 0.3937007874015748
          },
          {
            "duration": 0.13157874999998853,
            "durationTicks": 96,
            "midi": 57,
            "name": "A3",
            "ticks": 104448,
            "time": 143.15768,
            "velocity": 0.3937007874015748
          },
          {
            "duration": 0.13157874999998853,
            "durationTicks": 96,
            "midi": 57,
            "name": "A3",
            "ticks": 104448,
            "time": 143.15768,
            "velocity": 0.3937007874015748
          },
          {
            "duration": 0.13157874999998853,
            "durationTicks": 96,
            "midi": 35,
            "name": "B1",
            "ticks": 104448,
            "time": 143.15768,
            "velocity": 0.3937007874015748
          },
          {
            "duration": 0.13157874999998853,
            "durationTicks": 96,
            "midi": 42,
            "name": "F#2",
            "ticks": 104448,
            "time": 143.15768,
            "velocity": 0.3937007874015748
          },
          {
            "duration": 0.13157874999998853,
            "durationTicks": 96,
            "midi": 52,
            "name": "E3",
            "ticks": 104448,
            "time": 143.15768,
            "velocity": 0.3937007874015748
          },
          {
            "duration": 0.13157874999998853,
            "durationTicks": 96,
            "midi": 49,
            "name": "C#3",
            "ticks": 104448,
            "time": 143.15768,
            "velocity": 0.3937007874015748
          },
          {
            "duration": 0.13157874999998853,
            "durationTicks": 96,
            "midi": 57,
            "name": "A3",
            "ticks": 104448,
            "time": 143.15768,
            "velocity": 0.3937007874015748
          },
          {
            "duration": 0.13157874999998853,
            "durationTicks": 96,
            "midi": 42,
            "name": "F#2",
            "ticks": 104640,
            "time": 143.4208375,
            "velocity": 0.3937007874015748
          },
          {
            "duration": 0.13157874999998853,
            "durationTicks": 96,
            "midi": 52,
            "name": "E3",
            "ticks": 104640,
            "time": 143.4208375,
            "velocity": 0.3937007874015748
          },
          {
            "duration": 0.13157875000001695,
            "durationTicks": 96,
            "midi": 52,
            "name": "E3",
            "ticks": 104832,
            "time": 143.68399499999998,
            "velocity": 0.3937007874015748
          },
          {
            "duration": 0.13157875000001695,
            "durationTicks": 96,
            "midi": 42,
            "name": "F#2",
            "ticks": 104832,
            "time": 143.68399499999998,
            "velocity": 0.3937007874015748
          },
          {
            "duration": 0.13157875000001695,
            "durationTicks": 96,
            "midi": 38,
            "name": "D2",
            "ticks": 104832,
            "time": 143.68399499999998,
            "velocity": 0.3937007874015748
          },
          {
            "duration": 0.13157875000001695,
            "durationTicks": 96,
            "midi": 42,
            "name": "F#2",
            "ticks": 105024,
            "time": 143.9471525,
            "velocity": 0.3937007874015748
          },
          {
            "duration": 0.13157875000001695,
            "durationTicks": 96,
            "midi": 52,
            "name": "E3",
            "ticks": 105024,
            "time": 143.9471525,
            "velocity": 0.3937007874015748
          },
          {
            "duration": 0.13157874999998853,
            "durationTicks": 96,
            "midi": 52,
            "name": "E3",
            "ticks": 105216,
            "time": 144.21031,
            "velocity": 0.3937007874015748
          },
          {
            "duration": 0.13157874999998853,
            "durationTicks": 96,
            "midi": 42,
            "name": "F#2",
            "ticks": 105216,
            "time": 144.21031,
            "velocity": 0.3937007874015748
          },
          {
            "duration": 0.13157874999998853,
            "durationTicks": 96,
            "midi": 35,
            "name": "B1",
            "ticks": 105408,
            "time": 144.4734675,
            "velocity": 0.3937007874015748
          },
          {
            "duration": 0.13157874999998853,
            "durationTicks": 96,
            "midi": 52,
            "name": "E3",
            "ticks": 105408,
            "time": 144.4734675,
            "velocity": 0.3937007874015748
          },
          {
            "duration": 0.13157874999998853,
            "durationTicks": 96,
            "midi": 42,
            "name": "F#2",
            "ticks": 105408,
            "time": 144.4734675,
            "velocity": 0.3937007874015748
          },
          {
            "duration": 0.13157874999998853,
            "durationTicks": 96,
            "midi": 38,
            "name": "D2",
            "ticks": 105600,
            "time": 144.736625,
            "velocity": 0.3937007874015748
          },
          {
            "duration": 0.13157874999998853,
            "durationTicks": 96,
            "midi": 52,
            "name": "E3",
            "ticks": 105600,
            "time": 144.736625,
            "velocity": 0.3937007874015748
          },
          {
            "duration": 0.13157874999998853,
            "durationTicks": 96,
            "midi": 42,
            "name": "F#2",
            "ticks": 105600,
            "time": 144.736625,
            "velocity": 0.3937007874015748
          },
          {
            "duration": 0.13157875000001695,
            "durationTicks": 96,
            "midi": 52,
            "name": "E3",
            "ticks": 105792,
            "time": 144.99978249999998,
            "velocity": 0.3937007874015748
          },
          {
            "duration": 0.13157875000001695,
            "durationTicks": 96,
            "midi": 42,
            "name": "F#2",
            "ticks": 105792,
            "time": 144.99978249999998,
            "velocity": 0.3937007874015748
          },
          {
            "duration": 0.13157875000001695,
            "durationTicks": 96,
            "midi": 52,
            "name": "E3",
            "ticks": 105984,
            "time": 145.26294,
            "velocity": 0.3937007874015748
          },
          {
            "duration": 0.13157875000001695,
            "durationTicks": 96,
            "midi": 35,
            "name": "B1",
            "ticks": 105984,
            "time": 145.26294,
            "velocity": 0.3937007874015748
          },
          {
            "duration": 0.13157875000001695,
            "durationTicks": 96,
            "midi": 42,
            "name": "F#2",
            "ticks": 105984,
            "time": 145.26294,
            "velocity": 0.3937007874015748
          },
          {
            "duration": 0.13157874999998853,
            "durationTicks": 96,
            "midi": 42,
            "name": "F#2",
            "ticks": 106176,
            "time": 145.5260975,
            "velocity": 0.3937007874015748
          },
          {
            "duration": 0.13157874999998853,
            "durationTicks": 96,
            "midi": 52,
            "name": "E3",
            "ticks": 106176,
            "time": 145.5260975,
            "velocity": 0.3937007874015748
          },
          {
            "duration": 0.13157874999998853,
            "durationTicks": 96,
            "midi": 38,
            "name": "D2",
            "ticks": 106368,
            "time": 145.789255,
            "velocity": 0.3937007874015748
          },
          {
            "duration": 0.13157874999998853,
            "durationTicks": 96,
            "midi": 42,
            "name": "F#2",
            "ticks": 106368,
            "time": 145.789255,
            "velocity": 0.3937007874015748
          },
          {
            "duration": 0.13157874999998853,
            "durationTicks": 96,
            "midi": 52,
            "name": "E3",
            "ticks": 106368,
            "time": 145.789255,
            "velocity": 0.3937007874015748
          },
          {
            "duration": 0.13157874999998853,
            "durationTicks": 96,
            "midi": 42,
            "name": "F#2",
            "ticks": 106560,
            "time": 146.0524125,
            "velocity": 0.3937007874015748
          },
          {
            "duration": 0.13157874999998853,
            "durationTicks": 96,
            "midi": 52,
            "name": "E3",
            "ticks": 106560,
            "time": 146.0524125,
            "velocity": 0.3937007874015748
          },
          {
            "duration": 0.13157875000001695,
            "durationTicks": 96,
            "midi": 42,
            "name": "F#2",
            "ticks": 106752,
            "time": 146.31556999999998,
            "velocity": 0.3937007874015748
          },
          {
            "duration": 0.13157875000001695,
            "durationTicks": 96,
            "midi": 52,
            "name": "E3",
            "ticks": 106752,
            "time": 146.31556999999998,
            "velocity": 0.3937007874015748
          },
          {
            "duration": 0.13157875000001695,
            "durationTicks": 96,
            "midi": 52,
            "name": "E3",
            "ticks": 106944,
            "time": 146.57872749999999,
            "velocity": 0.3937007874015748
          },
          {
            "duration": 0.13157875000001695,
            "durationTicks": 96,
            "midi": 35,
            "name": "B1",
            "ticks": 106944,
            "time": 146.57872749999999,
            "velocity": 0.3937007874015748
          },
          {
            "duration": 0.13157875000001695,
            "durationTicks": 96,
            "midi": 42,
            "name": "F#2",
            "ticks": 106944,
            "time": 146.57872749999999,
            "velocity": 0.3937007874015748
          },
          {
            "duration": 0.13157875000001695,
            "durationTicks": 96,
            "midi": 38,
            "name": "D2",
            "ticks": 107136,
            "time": 146.841885,
            "velocity": 0.3937007874015748
          },
          {
            "duration": 0.13157875000001695,
            "durationTicks": 96,
            "midi": 42,
            "name": "F#2",
            "ticks": 107136,
            "time": 146.841885,
            "velocity": 0.3937007874015748
          },
          {
            "duration": 0.13157875000001695,
            "durationTicks": 96,
            "midi": 52,
            "name": "E3",
            "ticks": 107136,
            "time": 146.841885,
            "velocity": 0.3937007874015748
          },
          {
            "duration": 0.13157874999998853,
            "durationTicks": 96,
            "midi": 42,
            "name": "F#2",
            "ticks": 107328,
            "time": 147.1050425,
            "velocity": 0.3937007874015748
          },
          {
            "duration": 0.13157874999998853,
            "durationTicks": 96,
            "midi": 52,
            "name": "E3",
            "ticks": 107328,
            "time": 147.1050425,
            "velocity": 0.3937007874015748
          },
          {
            "duration": 0.13157874999998853,
            "durationTicks": 96,
            "midi": 42,
            "name": "F#2",
            "ticks": 107520,
            "time": 147.3682,
            "velocity": 0.3937007874015748
          },
          {
            "duration": 0.13157874999998853,
            "durationTicks": 96,
            "midi": 35,
            "name": "B1",
            "ticks": 107520,
            "time": 147.3682,
            "velocity": 0.3937007874015748
          },
          {
            "duration": 0.13157874999998853,
            "durationTicks": 96,
            "midi": 52,
            "name": "E3",
            "ticks": 107520,
            "time": 147.3682,
            "velocity": 0.3937007874015748
          },
          {
            "duration": 0.13157874999998853,
            "durationTicks": 96,
            "midi": 42,
            "name": "F#2",
            "ticks": 107712,
            "time": 147.6313575,
            "velocity": 0.3937007874015748
          },
          {
            "duration": 0.13157874999998853,
            "durationTicks": 96,
            "midi": 52,
            "name": "E3",
            "ticks": 107712,
            "time": 147.6313575,
            "velocity": 0.3937007874015748
          },
          {
            "duration": 0.13157875000001695,
            "durationTicks": 96,
            "midi": 38,
            "name": "D2",
            "ticks": 107904,
            "time": 147.89451499999998,
            "velocity": 0.3937007874015748
          },
          {
            "duration": 0.13157875000001695,
            "durationTicks": 96,
            "midi": 42,
            "name": "F#2",
            "ticks": 107904,
            "time": 147.89451499999998,
            "velocity": 0.3937007874015748
          },
          {
            "duration": 0.13157875000001695,
            "durationTicks": 96,
            "midi": 52,
            "name": "E3",
            "ticks": 107904,
            "time": 147.89451499999998,
            "velocity": 0.3937007874015748
          },
          {
            "duration": 0.13157875000001695,
            "durationTicks": 96,
            "midi": 42,
            "name": "F#2",
            "ticks": 108096,
            "time": 148.1576725,
            "velocity": 0.3937007874015748
          },
          {
            "duration": 0.13157875000001695,
            "durationTicks": 96,
            "midi": 52,
            "name": "E3",
            "ticks": 108096,
            "time": 148.1576725,
            "velocity": 0.3937007874015748
          },
          {
            "duration": 0.13157874999998853,
            "durationTicks": 96,
            "midi": 52,
            "name": "E3",
            "ticks": 108288,
            "time": 148.42083,
            "velocity": 0.3937007874015748
          },
          {
            "duration": 0.13157874999998853,
            "durationTicks": 96,
            "midi": 42,
            "name": "F#2",
            "ticks": 108288,
            "time": 148.42083,
            "velocity": 0.3937007874015748
          },
          {
            "duration": 0.13157874999998853,
            "durationTicks": 96,
            "midi": 52,
            "name": "E3",
            "ticks": 108480,
            "time": 148.6839875,
            "velocity": 0.3937007874015748
          },
          {
            "duration": 0.13157874999998853,
            "durationTicks": 96,
            "midi": 35,
            "name": "B1",
            "ticks": 108480,
            "time": 148.6839875,
            "velocity": 0.3937007874015748
          },
          {
            "duration": 0.13157874999998853,
            "durationTicks": 96,
            "midi": 42,
            "name": "F#2",
            "ticks": 108480,
            "time": 148.6839875,
            "velocity": 0.3937007874015748
          },
          {
            "duration": 0.13157874999998853,
            "durationTicks": 96,
            "midi": 38,
            "name": "D2",
            "ticks": 108672,
            "time": 148.947145,
            "velocity": 0.3937007874015748
          },
          {
            "duration": 0.13157874999998853,
            "durationTicks": 96,
            "midi": 42,
            "name": "F#2",
            "ticks": 108672,
            "time": 148.947145,
            "velocity": 0.3937007874015748
          },
          {
            "duration": 0.13157874999998853,
            "durationTicks": 96,
            "midi": 52,
            "name": "E3",
            "ticks": 108672,
            "time": 148.947145,
            "velocity": 0.3937007874015748
          },
          {
            "duration": 0.13157875000001695,
            "durationTicks": 96,
            "midi": 42,
            "name": "F#2",
            "ticks": 108864,
            "time": 149.21030249999998,
            "velocity": 0.3937007874015748
          },
          {
            "duration": 0.13157875000001695,
            "durationTicks": 96,
            "midi": 52,
            "name": "E3",
            "ticks": 108864,
            "time": 149.21030249999998,
            "velocity": 0.3937007874015748
          },
          {
            "duration": 0.13157875000001695,
            "durationTicks": 96,
            "midi": 52,
            "name": "E3",
            "ticks": 109056,
            "time": 149.47346,
            "velocity": 0.3937007874015748
          },
          {
            "duration": 0.13157875000001695,
            "durationTicks": 96,
            "midi": 35,
            "name": "B1",
            "ticks": 109056,
            "time": 149.47346,
            "velocity": 0.3937007874015748
          },
          {
            "duration": 0.13157875000001695,
            "durationTicks": 96,
            "midi": 42,
            "name": "F#2",
            "ticks": 109056,
            "time": 149.47346,
            "velocity": 0.3937007874015748
          },
          {
            "duration": 0.13157874999998853,
            "durationTicks": 96,
            "midi": 52,
            "name": "E3",
            "ticks": 109248,
            "time": 149.7366175,
            "velocity": 0.3937007874015748
          },
          {
            "duration": 0.13157874999998853,
            "durationTicks": 96,
            "midi": 42,
            "name": "F#2",
            "ticks": 109248,
            "time": 149.7366175,
            "velocity": 0.3937007874015748
          },
          {
            "duration": 0.13157874999998853,
            "durationTicks": 96,
            "midi": 52,
            "name": "E3",
            "ticks": 109440,
            "time": 149.999775,
            "velocity": 0.3937007874015748
          },
          {
            "duration": 0.13157874999998853,
            "durationTicks": 96,
            "midi": 42,
            "name": "F#2",
            "ticks": 109440,
            "time": 149.999775,
            "velocity": 0.3937007874015748
          },
          {
            "duration": 0.13157874999998853,
            "durationTicks": 96,
            "midi": 38,
            "name": "D2",
            "ticks": 109440,
            "time": 149.999775,
            "velocity": 0.3937007874015748
          },
          {
            "duration": 0.13157874999998853,
            "durationTicks": 96,
            "midi": 42,
            "name": "F#2",
            "ticks": 109632,
            "time": 150.2629325,
            "velocity": 0.3937007874015748
          },
          {
            "duration": 0.13157874999998853,
            "durationTicks": 96,
            "midi": 52,
            "name": "E3",
            "ticks": 109632,
            "time": 150.2629325,
            "velocity": 0.3937007874015748
          },
          {
            "duration": 0.13157875000001695,
            "durationTicks": 96,
            "midi": 52,
            "name": "E3",
            "ticks": 109824,
            "time": 150.52608999999998,
            "velocity": 0.3937007874015748
          },
          {
            "duration": 0.13157875000001695,
            "durationTicks": 96,
            "midi": 42,
            "name": "F#2",
            "ticks": 109824,
            "time": 150.52608999999998,
            "velocity": 0.3937007874015748
          },
          {
            "duration": 0.13157875000001695,
            "durationTicks": 96,
            "midi": 35,
            "name": "B1",
            "ticks": 110016,
            "time": 150.7892475,
            "velocity": 0.3937007874015748
          },
          {
            "duration": 0.13157875000001695,
            "durationTicks": 96,
            "midi": 52,
            "name": "E3",
            "ticks": 110016,
            "time": 150.7892475,
            "velocity": 0.3937007874015748
          },
          {
            "duration": 0.13157875000001695,
            "durationTicks": 96,
            "midi": 42,
            "name": "F#2",
            "ticks": 110016,
            "time": 150.7892475,
            "velocity": 0.3937007874015748
          },
          {
            "duration": 0.13157874999998853,
            "durationTicks": 96,
            "midi": 42,
            "name": "F#2",
            "ticks": 110208,
            "time": 151.052405,
            "velocity": 0.3937007874015748
          },
          {
            "duration": 0.13157874999998853,
            "durationTicks": 96,
            "midi": 38,
            "name": "D2",
            "ticks": 110208,
            "time": 151.052405,
            "velocity": 0.3937007874015748
          },
          {
            "duration": 0.13157874999998853,
            "durationTicks": 96,
            "midi": 52,
            "name": "E3",
            "ticks": 110208,
            "time": 151.052405,
            "velocity": 0.3937007874015748
          },
          {
            "duration": 0.13157874999998853,
            "durationTicks": 96,
            "midi": 42,
            "name": "F#2",
            "ticks": 110400,
            "time": 151.3155625,
            "velocity": 0.3937007874015748
          },
          {
            "duration": 0.13157874999998853,
            "durationTicks": 96,
            "midi": 52,
            "name": "E3",
            "ticks": 110400,
            "time": 151.3155625,
            "velocity": 0.3937007874015748
          }
        ],
        "endOfTrackTicks": 110496
      }
    ]
  }