{
    "header": {
      "keySignatures": [],
      "meta": [],
      "name": "",
      "ppq": 384,
      "tempos": [
        {
          "bpm": 120,
          "ticks": 0
        }
      ],
      "timeSignatures": [
        {
          "ticks": 0,
          "timeSignature": [
            1,
            4
          ],
          "measures": 0
        }
      ]
    },
    "tracks": [
      {
        "channel": 0,
        "controlChanges": {},
        "pitchBends": [],
        "instrument": {
          "family": "synth lead",
          "number": 82,
          "name": "lead 3 (calliope)"
        },
        "name": "8-Bit Sine",
        "notes": [
          {
            "duration": 0,
            "durationTicks": 0,
            "midi": 77,
            "name": "F5",
            "ticks": 0,
            "time": 0,
            "velocity": 0.12598425196850394
          },
          {
            "duration": 0,
            "durationTicks": 0,
            "midi": 78,
            "name": "F#5",
            "ticks": 0,
            "time": 0,
            "velocity": 0.05511811023622047
          },
          {
            "duration": 0.12890625,
            "durationTicks": 99,
            "midi": 74,
            "name": "D5",
            "ticks": 0,
            "time": 0,
            "velocity": 0.06299212598425197
          },
          {
            "duration": 0,
            "durationTicks": 0,
            "midi": 55,
            "name": "G3",
            "ticks": 9,
            "time": 0.01171875,
            "velocity": 0.1968503937007874
          },
          {
            "duration": 0,
            "durationTicks": 0,
            "midi": 79,
            "name": "G5",
            "ticks": 9,
            "time": 0.01171875,
            "velocity": 0.07086614173228346
          },
          {
            "duration": 0,
            "durationTicks": 0,
            "midi": 75,
            "name": "D#5",
            "ticks": 9,
            "time": 0.01171875,
            "velocity": 0.09448818897637795
          },
          {
            "duration": 0,
            "durationTicks": 0,
            "midi": 57,
            "name": "A3",
            "ticks": 19,
            "time": 0.024739583333333332,
            "velocity": 0.18110236220472442
          },
          {
            "duration": 0,
            "durationTicks": 0,
            "midi": 73,
            "name": "C#5",
            "ticks": 19,
            "time": 0.024739583333333332,
            "velocity": 0.03937007874015748
          },
          {
            "duration": 0.12760416666666666,
            "durationTicks": 98,
            "midi": 73,
            "name": "C#5",
            "ticks": 28,
            "time": 0.036458333333333336,
            "velocity": 0.13385826771653545
          },
          {
            "duration": 0,
            "durationTicks": 0,
            "midi": 60,
            "name": "C4",
            "ticks": 28,
            "time": 0.036458333333333336,
            "velocity": 0.15748031496062992
          },
          {
            "duration": 0,
            "durationTicks": 0,
            "midi": 49,
            "name": "C#3",
            "ticks": 37,
            "time": 0.048177083333333336,
            "velocity": 0.1889763779527559
          },
          {
            "duration": 0,
            "durationTicks": 0,
            "midi": 69,
            "name": "A4",
            "ticks": 47,
            "time": 0.061197916666666664,
            "velocity": 0.11811023622047244
          },
          {
            "duration": 0.12630208333333334,
            "durationTicks": 97,
            "midi": 62,
            "name": "D4",
            "ticks": 47,
            "time": 0.061197916666666664,
            "velocity": 0.13385826771653545
          },
          {
            "duration": 0,
            "durationTicks": 0,
            "midi": 50,
            "name": "D3",
            "ticks": 56,
            "time": 0.07291666666666667,
            "velocity": 0.18110236220472442
          },
          {
            "duration": 0,
            "durationTicks": 0,
            "midi": 46,
            "name": "A#2",
            "ticks": 92,
            "time": 0.11979166666666667,
            "velocity": 0.15748031496062992
          },
          {
            "duration": 0,
            "durationTicks": 0,
            "midi": 57,
            "name": "A3",
            "ticks": 101,
            "time": 0.13151041666666666,
            "velocity": 0.06299212598425197
          },
          {
            "duration": 0.12760416666666669,
            "durationTicks": 98,
            "midi": 45,
            "name": "A2",
            "ticks": 111,
            "time": 0.14453125,
            "velocity": 0.16535433070866143
          },
          {
            "duration": 0,
            "durationTicks": 0,
            "midi": 39,
            "name": "D#2",
            "ticks": 155,
            "time": 0.20182291666666666,
            "velocity": 0.11811023622047244
          },
          {
            "duration": 0,
            "durationTicks": 0,
            "midi": 79,
            "name": "G5",
            "ticks": 155,
            "time": 0.20182291666666666,
            "velocity": 0.031496062992125984
          },
          {
            "duration": 0,
            "durationTicks": 0,
            "midi": 61,
            "name": "C#4",
            "ticks": 164,
            "time": 0.21354166666666666,
            "velocity": 0.18110236220472442
          },
          {
            "duration": 0,
            "durationTicks": 0,
            "midi": 68,
            "name": "G#4",
            "ticks": 174,
            "time": 0.2265625,
            "velocity": 0.13385826771653545
          },
          {
            "duration": 0,
            "durationTicks": 0,
            "midi": 49,
            "name": "C#3",
            "ticks": 174,
            "time": 0.2265625,
            "velocity": 0.2440944881889764
          },
          {
            "duration": 0.12760416666666669,
            "durationTicks": 98,
            "midi": 74,
            "name": "D5",
            "ticks": 183,
            "time": 0.23828125,
            "velocity": 0.14960629921259844
          },
          {
            "duration": 0.12760416666666669,
            "durationTicks": 98,
            "midi": 78,
            "name": "F#5",
            "ticks": 183,
            "time": 0.23828125,
            "velocity": 0.1732283464566929
          },
          {
            "duration": 0,
            "durationTicks": 0,
            "midi": 72,
            "name": "C5",
            "ticks": 192,
            "time": 0.25,
            "velocity": 0.11023622047244094
          },
          {
            "duration": 0.12760416666666669,
            "durationTicks": 98,
            "midi": 62,
            "name": "D4",
            "ticks": 192,
            "time": 0.25,
            "velocity": 0.2204724409448819
          },
          {
            "duration": 0.12760416666666669,
            "durationTicks": 98,
            "midi": 69,
            "name": "A4",
            "ticks": 192,
            "time": 0.25,
            "velocity": 0.14173228346456693
          },
          {
            "duration": 0.12760416666666669,
            "durationTicks": 98,
            "midi": 76,
            "name": "E5",
            "ticks": 192,
            "time": 0.25,
            "velocity": 0.07086614173228346
          },
          {
            "duration": 0,
            "durationTicks": 0,
            "midi": 50,
            "name": "D3",
            "ticks": 202,
            "time": 0.2630208333333333,
            "velocity": 0.2047244094488189
          },
          {
            "duration": 0.12630208333333337,
            "durationTicks": 97,
            "midi": 83,
            "name": "B5",
            "ticks": 229,
            "time": 0.2981770833333333,
            "velocity": 0.11023622047244094
          },
          {
            "duration": 0,
            "durationTicks": 0,
            "midi": 77,
            "name": "F5",
            "ticks": 238,
            "time": 0.3098958333333333,
            "velocity": 0.2125984251968504
          },
          {
            "duration": 0,
            "durationTicks": 0,
            "midi": 73,
            "name": "C#5",
            "ticks": 247,
            "time": 0.3216145833333333,
            "velocity": 0.09448818897637795
          },
          {
            "duration": 0,
            "durationTicks": 0,
            "midi": 49,
            "name": "C#3",
            "ticks": 247,
            "time": 0.3216145833333333,
            "velocity": 0.16535433070866143
          },
          {
            "duration": 0,
            "durationTicks": 0,
            "midi": 68,
            "name": "G#4",
            "ticks": 247,
            "time": 0.3216145833333333,
            "velocity": 0.09448818897637795
          },
          {
            "duration": 0,
            "durationTicks": 0,
            "midi": 61,
            "name": "C#4",
            "ticks": 247,
            "time": 0.3216145833333333,
            "velocity": 0.2047244094488189
          },
          {
            "duration": 0.12630208333333337,
            "durationTicks": 97,
            "midi": 50,
            "name": "D3",
            "ticks": 274,
            "time": 0.3567708333333333,
            "velocity": 0.15748031496062992
          },
          {
            "duration": 0.12630208333333337,
            "durationTicks": 97,
            "midi": 62,
            "name": "D4",
            "ticks": 274,
            "time": 0.3567708333333333,
            "velocity": 0.2283464566929134
          },
          {
            "duration": 0.12630208333333337,
            "durationTicks": 97,
            "midi": 74,
            "name": "D5",
            "ticks": 274,
            "time": 0.3567708333333333,
            "velocity": 0.14960629921259844
          },
          {
            "duration": 0.12630208333333337,
            "durationTicks": 97,
            "midi": 69,
            "name": "A4",
            "ticks": 274,
            "time": 0.3567708333333333,
            "velocity": 0.15748031496062992
          },
          {
            "duration": 0.12630208333333337,
            "durationTicks": 97,
            "midi": 78,
            "name": "F#5",
            "ticks": 283,
            "time": 0.3684895833333333,
            "velocity": 0.2125984251968504
          },
          {
            "duration": 0,
            "durationTicks": 0,
            "midi": 72,
            "name": "C5",
            "ticks": 283,
            "time": 0.3684895833333333,
            "velocity": 0.10236220472440945
          },
          {
            "duration": 0,
            "durationTicks": 0,
            "midi": 76,
            "name": "E5",
            "ticks": 310,
            "time": 0.4036458333333333,
            "velocity": 0.05511811023622047
          },
          {
            "duration": 0.12760416666666669,
            "durationTicks": 98,
            "midi": 83,
            "name": "B5",
            "ticks": 328,
            "time": 0.4270833333333333,
            "velocity": 0.08661417322834646
          },
          {
            "duration": 0,
            "durationTicks": 0,
            "midi": 77,
            "name": "F5",
            "ticks": 337,
            "time": 0.4388020833333333,
            "velocity": 0.1732283464566929
          },
          {
            "duration": 0,
            "durationTicks": 0,
            "midi": 49,
            "name": "C#3",
            "ticks": 337,
            "time": 0.4388020833333333,
            "velocity": 0.12598425196850394
          },
          {
            "duration": 0.12760416666666669,
            "durationTicks": 98,
            "midi": 80,
            "name": "G#5",
            "ticks": 337,
            "time": 0.4388020833333333,
            "velocity": 0.14173228346456693
          },
          {
            "duration": 0,
            "durationTicks": 0,
            "midi": 68,
            "name": "G#4",
            "ticks": 346,
            "time": 0.4505208333333333,
            "velocity": 0.1968503937007874
          },
          {
            "duration": 0,
            "durationTicks": 0,
            "midi": 61,
            "name": "C#4",
            "ticks": 346,
            "time": 0.4505208333333333,
            "velocity": 0.2047244094488189
          },
          {
            "duration": 0.04817708333333337,
            "durationTicks": 37,
            "midi": 78,
            "name": "F#5",
            "ticks": 346,
            "time": 0.4505208333333333,
            "velocity": 0.07086614173228346
          },
          {
            "duration": 0,
            "durationTicks": 0,
            "midi": 75,
            "name": "D#5",
            "ticks": 346,
            "time": 0.4505208333333333,
            "velocity": 0.03937007874015748
          },
          {
            "duration": 0,
            "durationTicks": 0,
            "midi": 79,
            "name": "G5",
            "ticks": 373,
            "time": 0.4856770833333333,
            "velocity": 0.05511811023622047
          },
          {
            "duration": 0,
            "durationTicks": 0,
            "midi": 50,
            "name": "D3",
            "ticks": 383,
            "time": 0.4986979166666667,
            "velocity": 0.12598425196850394
          },
          {
            "duration": 0,
            "durationTicks": 0,
            "midi": 72,
            "name": "C5",
            "ticks": 383,
            "time": 0.4986979166666667,
            "velocity": 0.047244094488188976
          },
          {
            "duration": 0.07942708333333331,
            "durationTicks": 61,
            "midi": 78,
            "name": "F#5",
            "ticks": 383,
            "time": 0.4986979166666667,
            "velocity": 0.12598425196850394
          },
          {
            "duration": 0,
            "durationTicks": 0,
            "midi": 69,
            "name": "A4",
            "ticks": 383,
            "time": 0.4986979166666667,
            "velocity": 0.1889763779527559
          },
          {
            "duration": 0,
            "durationTicks": 0,
            "midi": 62,
            "name": "D4",
            "ticks": 383,
            "time": 0.4986979166666667,
            "velocity": 0.18110236220472442
          },
          {
            "duration": 0,
            "durationTicks": 0,
            "midi": 76,
            "name": "E5",
            "ticks": 383,
            "time": 0.4986979166666667,
            "velocity": 0.05511811023622047
          },
          {
            "duration": 0.12630208333333337,
            "durationTicks": 97,
            "midi": 77,
            "name": "F5",
            "ticks": 392,
            "time": 0.5104166666666666,
            "velocity": 0.06299212598425197
          },
          {
            "duration": 0.12630208333333337,
            "durationTicks": 97,
            "midi": 77,
            "name": "F5",
            "ticks": 392,
            "time": 0.5104166666666666,
            "velocity": 0.14173228346456693
          },
          {
            "duration": 0.12630208333333337,
            "durationTicks": 97,
            "midi": 79,
            "name": "G5",
            "ticks": 401,
            "time": 0.5221354166666666,
            "velocity": 0.14960629921259844
          },
          {
            "duration": 0.12630208333333337,
            "durationTicks": 97,
            "midi": 51,
            "name": "D#3",
            "ticks": 401,
            "time": 0.5221354166666666,
            "velocity": 0.13385826771653545
          },
          {
            "duration": 0.12630208333333337,
            "durationTicks": 97,
            "midi": 70,
            "name": "A#4",
            "ticks": 401,
            "time": 0.5221354166666666,
            "velocity": 0.16535433070866143
          },
          {
            "duration": 0.1171875,
            "durationTicks": 90,
            "midi": 63,
            "name": "D#4",
            "ticks": 401,
            "time": 0.5221354166666666,
            "velocity": 0.25984251968503935
          },
          {
            "duration": 0.12630208333333337,
            "durationTicks": 97,
            "midi": 73,
            "name": "C#5",
            "ticks": 411,
            "time": 0.53515625,
            "velocity": 0.10236220472440945
          },
          {
            "duration": 0,
            "durationTicks": 0,
            "midi": 45,
            "name": "A2",
            "ticks": 482,
            "time": 0.6276041666666666,
            "velocity": 0.11811023622047244
          },
          {
            "duration": 0.00911458333333337,
            "durationTicks": 7,
            "midi": 63,
            "name": "D#4",
            "ticks": 491,
            "time": 0.6393229166666666,
            "velocity": 0.11811023622047244
          },
          {
            "duration": 0.12630208333333337,
            "durationTicks": 97,
            "midi": 62,
            "name": "D4",
            "ticks": 519,
            "time": 0.67578125,
            "velocity": 0.2125984251968504
          },
          {
            "duration": 0.12630208333333337,
            "durationTicks": 97,
            "midi": 81,
            "name": "A5",
            "ticks": 519,
            "time": 0.67578125,
            "velocity": 0.15748031496062992
          },
          {
            "duration": 0,
            "durationTicks": 0,
            "midi": 51,
            "name": "D#3",
            "ticks": 519,
            "time": 0.67578125,
            "velocity": 0.2125984251968504
          },
          {
            "duration": 0.12630208333333326,
            "durationTicks": 97,
            "midi": 76,
            "name": "E5",
            "ticks": 529,
            "time": 0.6888020833333334,
            "velocity": 0.11811023622047244
          },
          {
            "duration": 0.12630208333333326,
            "durationTicks": 97,
            "midi": 78,
            "name": "F#5",
            "ticks": 529,
            "time": 0.6888020833333334,
            "velocity": 0.13385826771653545
          },
          {
            "duration": 0,
            "durationTicks": 0,
            "midi": 72,
            "name": "C5",
            "ticks": 529,
            "time": 0.6888020833333334,
            "velocity": 0.09448818897637795
          },
          {
            "duration": 0.12630208333333326,
            "durationTicks": 97,
            "midi": 69,
            "name": "A4",
            "ticks": 538,
            "time": 0.7005208333333334,
            "velocity": 0.11023622047244094
          },
          {
            "duration": 0,
            "durationTicks": 0,
            "midi": 55,
            "name": "G3",
            "ticks": 538,
            "time": 0.7005208333333334,
            "velocity": 0.09448818897637795
          },
          {
            "duration": 0.12630208333333326,
            "durationTicks": 97,
            "midi": 50,
            "name": "D3",
            "ticks": 547,
            "time": 0.7122395833333334,
            "velocity": 0.2047244094488189
          },
          {
            "duration": 0.12630208333333326,
            "durationTicks": 97,
            "midi": 78,
            "name": "F#5",
            "ticks": 601,
            "time": 0.7825520833333334,
            "velocity": 0.11023622047244094
          },
          {
            "duration": 0,
            "durationTicks": 0,
            "midi": 61,
            "name": "C#4",
            "ticks": 646,
            "time": 0.8411458333333334,
            "velocity": 0.14173228346456693
          },
          {
            "duration": 0,
            "durationTicks": 0,
            "midi": 50,
            "name": "D3",
            "ticks": 664,
            "time": 0.8645833333333334,
            "velocity": 0.11023622047244094
          },
          {
            "duration": 0,
            "durationTicks": 0,
            "midi": 63,
            "name": "D#4",
            "ticks": 682,
            "time": 0.8880208333333334,
            "velocity": 0.05511811023622047
          },
          {
            "duration": 0.12630208333333337,
            "durationTicks": 97,
            "midi": 79,
            "name": "G5",
            "ticks": 682,
            "time": 0.8880208333333334,
            "velocity": 0.14960629921259844
          },
          {
            "duration": 0,
            "durationTicks": 0,
            "midi": 49,
            "name": "C#3",
            "ticks": 691,
            "time": 0.8997395833333334,
            "velocity": 0.18110236220472442
          },
          {
            "duration": 0.12630208333333337,
            "durationTicks": 97,
            "midi": 76,
            "name": "E5",
            "ticks": 691,
            "time": 0.8997395833333334,
            "velocity": 0.12598425196850394
          },
          {
            "duration": 0.12630208333333337,
            "durationTicks": 97,
            "midi": 74,
            "name": "D5",
            "ticks": 691,
            "time": 0.8997395833333334,
            "velocity": 0.10236220472440945
          },
          {
            "duration": 0,
            "durationTicks": 0,
            "midi": 60,
            "name": "C4",
            "ticks": 691,
            "time": 0.8997395833333334,
            "velocity": 0.14960629921259844
          },
          {
            "duration": 0,
            "durationTicks": 0,
            "midi": 82,
            "name": "A#5",
            "ticks": 691,
            "time": 0.8997395833333334,
            "velocity": 0.14960629921259844
          },
          {
            "duration": 0,
            "durationTicks": 0,
            "midi": 67,
            "name": "G4",
            "ticks": 691,
            "time": 0.8997395833333334,
            "velocity": 0.09448818897637795
          },
          {
            "duration": 0,
            "durationTicks": 0,
            "midi": 48,
            "name": "C3",
            "ticks": 710,
            "time": 0.9244791666666666,
            "velocity": 0.1968503937007874
          },
          {
            "duration": 0,
            "durationTicks": 0,
            "midi": 81,
            "name": "A5",
            "ticks": 727,
            "time": 0.9466145833333334,
            "velocity": 0.13385826771653545
          },
          {
            "duration": 0,
            "durationTicks": 0,
            "midi": 44,
            "name": "G#2",
            "ticks": 754,
            "time": 0.9817708333333334,
            "velocity": 0.11023622047244094
          },
          {
            "duration": 0.12630208333333348,
            "durationTicks": 97,
            "midi": 81,
            "name": "A5",
            "ticks": 844,
            "time": 1.0989583333333333,
            "velocity": 0.2047244094488189
          },
          {
            "duration": 0,
            "durationTicks": 0,
            "midi": 51,
            "name": "D#3",
            "ticks": 844,
            "time": 1.0989583333333333,
            "velocity": 0.2047244094488189
          },
          {
            "duration": 0,
            "durationTicks": 0,
            "midi": 78,
            "name": "F#5",
            "ticks": 853,
            "time": 1.1106770833333333,
            "velocity": 0.14173228346456693
          },
          {
            "duration": 0.12630208333333348,
            "durationTicks": 97,
            "midi": 62,
            "name": "D4",
            "ticks": 853,
            "time": 1.1106770833333333,
            "velocity": 0.2440944881889764
          },
          {
            "duration": 0.12630208333333348,
            "durationTicks": 97,
            "midi": 76,
            "name": "E5",
            "ticks": 853,
            "time": 1.1106770833333333,
            "velocity": 0.11023622047244094
          },
          {
            "duration": 0,
            "durationTicks": 0,
            "midi": 72,
            "name": "C5",
            "ticks": 863,
            "time": 1.1236979166666667,
            "velocity": 0.08661417322834646
          },
          {
            "duration": 0,
            "durationTicks": 0,
            "midi": 69,
            "name": "A4",
            "ticks": 863,
            "time": 1.1236979166666667,
            "velocity": 0.15748031496062992
          },
          {
            "duration": 0,
            "durationTicks": 0,
            "midi": 50,
            "name": "D3",
            "ticks": 872,
            "time": 1.1354166666666667,
            "velocity": 0.16535433070866143
          },
          {
            "duration": 0.12630208333333326,
            "durationTicks": 97,
            "midi": 77,
            "name": "F5",
            "ticks": 890,
            "time": 1.1588541666666667,
            "velocity": 0.18110236220472442
          },
          {
            "duration": 0,
            "durationTicks": 0,
            "midi": 49,
            "name": "C#3",
            "ticks": 899,
            "time": 1.1705729166666667,
            "velocity": 0.13385826771653545
          },
          {
            "duration": 0,
            "durationTicks": 0,
            "midi": 68,
            "name": "G#4",
            "ticks": 899,
            "time": 1.1705729166666667,
            "velocity": 0.1968503937007874
          },
          {
            "duration": 0.12630208333333326,
            "durationTicks": 97,
            "midi": 73,
            "name": "C#5",
            "ticks": 899,
            "time": 1.1705729166666667,
            "velocity": 0.15748031496062992
          },
          {
            "duration": 0,
            "durationTicks": 0,
            "midi": 61,
            "name": "C#4",
            "ticks": 908,
            "time": 1.1822916666666667,
            "velocity": 0.2125984251968504
          },
          {
            "duration": 0,
            "durationTicks": 0,
            "midi": 78,
            "name": "F#5",
            "ticks": 926,
            "time": 1.2057291666666667,
            "velocity": 0.031496062992125984
          },
          {
            "duration": 0,
            "durationTicks": 0,
            "midi": 67,
            "name": "G4",
            "ticks": 943,
            "time": 1.2278645833333333,
            "velocity": 0.14173228346456693
          },
          {
            "duration": 0,
            "durationTicks": 0,
            "midi": 60,
            "name": "C4",
            "ticks": 943,
            "time": 1.2278645833333333,
            "velocity": 0.2047244094488189
          },
          {
            "duration": 0,
            "durationTicks": 0,
            "midi": 48,
            "name": "C3",
            "ticks": 943,
            "time": 1.2278645833333333,
            "velocity": 0.14960629921259844
          },
          {
            "duration": 0,
            "durationTicks": 0,
            "midi": 66,
            "name": "F#4",
            "ticks": 962,
            "time": 1.2526041666666667,
            "velocity": 0.10236220472440945
          },
          {
            "duration": 0,
            "durationTicks": 0,
            "midi": 58,
            "name": "A#3",
            "ticks": 971,
            "time": 1.2643229166666667,
            "velocity": 0.1968503937007874
          },
          {
            "duration": 0.12630208333333326,
            "durationTicks": 97,
            "midi": 73,
            "name": "C#5",
            "ticks": 971,
            "time": 1.2643229166666667,
            "velocity": 0.07086614173228346
          },
          {
            "duration": 0,
            "durationTicks": 0,
            "midi": 43,
            "name": "G2",
            "ticks": 998,
            "time": 1.2994791666666667,
            "velocity": 0.1968503937007874
          },
          {
            "duration": 0.12760416666666674,
            "durationTicks": 98,
            "midi": 52,
            "name": "E3",
            "ticks": 1008,
            "time": 1.3125,
            "velocity": 0.14173228346456693
          },
          {
            "duration": 0,
            "durationTicks": 0,
            "midi": 37,
            "name": "C#2",
            "ticks": 1025,
            "time": 1.3346354166666667,
            "velocity": 0.1889763779527559
          },
          {
            "duration": 0,
            "durationTicks": 0,
            "midi": 57,
            "name": "A3",
            "ticks": 1025,
            "time": 1.3346354166666667,
            "velocity": 0.05511811023622047
          },
          {
            "duration": 0,
            "durationTicks": 0,
            "midi": 78,
            "name": "F#5",
            "ticks": 1034,
            "time": 1.3463541666666667,
            "velocity": 0.07086614173228346
          },
          {
            "duration": 0,
            "durationTicks": 0,
            "midi": 63,
            "name": "D#4",
            "ticks": 1052,
            "time": 1.3697916666666667,
            "velocity": 0.15748031496062992
          },
          {
            "duration": 0,
            "durationTicks": 0,
            "midi": 40,
            "name": "E2",
            "ticks": 1052,
            "time": 1.3697916666666667,
            "velocity": 0.2047244094488189
          },
          {
            "duration": 0,
            "durationTicks": 0,
            "midi": 56,
            "name": "G#3",
            "ticks": 1061,
            "time": 1.3815104166666667,
            "velocity": 0.12598425196850394
          },
          {
            "duration": 0,
            "durationTicks": 0,
            "midi": 62,
            "name": "D4",
            "ticks": 1061,
            "time": 1.3815104166666667,
            "velocity": 0.2047244094488189
          },
          {
            "duration": 0.12890625,
            "durationTicks": 99,
            "midi": 72,
            "name": "C5",
            "ticks": 1061,
            "time": 1.3815104166666667,
            "velocity": 0.11023622047244094
          },
          {
            "duration": 0,
            "durationTicks": 0,
            "midi": 69,
            "name": "A4",
            "ticks": 1061,
            "time": 1.3815104166666667,
            "velocity": 0.11023622047244094
          },
          {
            "duration": 0,
            "durationTicks": 0,
            "midi": 41,
            "name": "F2",
            "ticks": 1061,
            "time": 1.3815104166666667,
            "velocity": 0.2047244094488189
          },
          {
            "duration": 0.48697916666666674,
            "durationTicks": 374,
            "midi": 51,
            "name": "D#3",
            "ticks": 1071,
            "time": 1.39453125,
            "velocity": 0.1968503937007874
          },
          {
            "duration": 0,
            "durationTicks": 0,
            "midi": 71,
            "name": "B4",
            "ticks": 1071,
            "time": 1.39453125,
            "velocity": 0.13385826771653545
          },
          {
            "duration": 0,
            "durationTicks": 0,
            "midi": 73,
            "name": "C#5",
            "ticks": 1071,
            "time": 1.39453125,
            "velocity": 0.09448818897637795
          },
          {
            "duration": 0,
            "durationTicks": 0,
            "midi": 42,
            "name": "F#2",
            "ticks": 1071,
            "time": 1.39453125,
            "velocity": 0.2047244094488189
          },
          {
            "duration": 0.2265625,
            "durationTicks": 174,
            "midi": 58,
            "name": "A#3",
            "ticks": 1080,
            "time": 1.40625,
            "velocity": 0.12598425196850394
          },
          {
            "duration": 0.12760416666666674,
            "durationTicks": 98,
            "midi": 67,
            "name": "G4",
            "ticks": 1080,
            "time": 1.40625,
            "velocity": 0.15748031496062992
          },
          {
            "duration": 0,
            "durationTicks": 0,
            "midi": 43,
            "name": "G2",
            "ticks": 1080,
            "time": 1.40625,
            "velocity": 0.1889763779527559
          },
          {
            "duration": 0,
            "durationTicks": 0,
            "midi": 63,
            "name": "D#4",
            "ticks": 1089,
            "time": 1.41796875,
            "velocity": 0.1968503937007874
          },
          {
            "duration": 0.12760416666666674,
            "durationTicks": 98,
            "midi": 70,
            "name": "A#4",
            "ticks": 1089,
            "time": 1.41796875,
            "velocity": 0.2047244094488189
          },
          {
            "duration": 0.12760416666666674,
            "durationTicks": 98,
            "midi": 27,
            "name": "D#1",
            "ticks": 1089,
            "time": 1.41796875,
            "velocity": 0.1732283464566929
          },
          {
            "duration": 0.12760416666666674,
            "durationTicks": 98,
            "midi": 81,
            "name": "A5",
            "ticks": 1099,
            "time": 1.4309895833333333,
            "velocity": 0.08661417322834646
          },
          {
            "duration": 0,
            "durationTicks": 0,
            "midi": 54,
            "name": "F#3",
            "ticks": 1099,
            "time": 1.4309895833333333,
            "velocity": 0.08661417322834646
          },
          {
            "duration": 0,
            "durationTicks": 0,
            "midi": 43,
            "name": "G2",
            "ticks": 1108,
            "time": 1.4427083333333333,
            "velocity": 0.18110236220472442
          },
          {
            "duration": 0.12760416666666674,
            "durationTicks": 98,
            "midi": 71,
            "name": "B4",
            "ticks": 1117,
            "time": 1.4544270833333333,
            "velocity": 0.11023622047244094
          },
          {
            "duration": 0.12760416666666674,
            "durationTicks": 98,
            "midi": 62,
            "name": "D4",
            "ticks": 1117,
            "time": 1.4544270833333333,
            "velocity": 0.18110236220472442
          },
          {
            "duration": 0,
            "durationTicks": 0,
            "midi": 65,
            "name": "F4",
            "ticks": 1135,
            "time": 1.4778645833333333,
            "velocity": 0.07086614173228346
          },
          {
            "duration": 0.3828125,
            "durationTicks": 294,
            "midi": 55,
            "name": "G3",
            "ticks": 1135,
            "time": 1.4778645833333333,
            "velocity": 0.16535433070866143
          },
          {
            "duration": 0,
            "durationTicks": 0,
            "midi": 60,
            "name": "C4",
            "ticks": 1135,
            "time": 1.4778645833333333,
            "velocity": 0.08661417322834646
          },
          {
            "duration": 0,
            "durationTicks": 0,
            "midi": 41,
            "name": "F2",
            "ticks": 1144,
            "time": 1.4895833333333333,
            "velocity": 0.2047244094488189
          },
          {
            "duration": 0,
            "durationTicks": 0,
            "midi": 40,
            "name": "E2",
            "ticks": 1153,
            "time": 1.5013020833333333,
            "velocity": 0.2125984251968504
          },
          {
            "duration": 0,
            "durationTicks": 0,
            "midi": 26,
            "name": "D1",
            "ticks": 1199,
            "time": 1.5611979166666667,
            "velocity": 0.08661417322834646
          },
          {
            "duration": 0,
            "durationTicks": 0,
            "midi": 42,
            "name": "F#2",
            "ticks": 1199,
            "time": 1.5611979166666667,
            "velocity": 0.2125984251968504
          },
          {
            "duration": 0.12760416666666652,
            "durationTicks": 98,
            "midi": 63,
            "name": "D#4",
            "ticks": 1208,
            "time": 1.5729166666666667,
            "velocity": 0.2047244094488189
          },
          {
            "duration": 0.12760416666666674,
            "durationTicks": 98,
            "midi": 43,
            "name": "G2",
            "ticks": 1218,
            "time": 1.5859375,
            "velocity": 0.2204724409448819
          },
          {
            "duration": 0.12760416666666674,
            "durationTicks": 98,
            "midi": 71,
            "name": "B4",
            "ticks": 1227,
            "time": 1.59765625,
            "velocity": 0.12598425196850394
          },
          {
            "duration": 0,
            "durationTicks": 0,
            "midi": 69,
            "name": "A4",
            "ticks": 1244,
            "time": 1.6197916666666667,
            "velocity": 0.09448818897637795
          },
          {
            "duration": 0.02994791666666674,
            "durationTicks": 23,
            "midi": 58,
            "name": "A#3",
            "ticks": 1254,
            "time": 1.6328125,
            "velocity": 0.05511811023622047
          },
          {
            "duration": 0.12760416666666674,
            "durationTicks": 98,
            "midi": 70,
            "name": "A#4",
            "ticks": 1254,
            "time": 1.6328125,
            "velocity": 0.15748031496062992
          },
          {
            "duration": 0.25520833333333326,
            "durationTicks": 196,
            "midi": 67,
            "name": "G4",
            "ticks": 1263,
            "time": 1.64453125,
            "velocity": 0.18110236220472442
          },
          {
            "duration": 0,
            "durationTicks": 0,
            "midi": 42,
            "name": "F#2",
            "ticks": 1272,
            "time": 1.65625,
            "velocity": 0.2125984251968504
          },
          {
            "duration": 0,
            "durationTicks": 0,
            "midi": 41,
            "name": "F2",
            "ticks": 1309,
            "time": 1.7044270833333333,
            "velocity": 0.1968503937007874
          },
          {
            "duration": 0.12630208333333348,
            "durationTicks": 97,
            "midi": 62,
            "name": "D4",
            "ticks": 1318,
            "time": 1.7161458333333333,
            "velocity": 0.08661417322834646
          },
          {
            "duration": 0.12630208333333348,
            "durationTicks": 97,
            "midi": 58,
            "name": "A#3",
            "ticks": 1327,
            "time": 1.7278645833333333,
            "velocity": 0.031496062992125984
          },
          {
            "duration": 0,
            "durationTicks": 0,
            "midi": 42,
            "name": "F#2",
            "ticks": 1336,
            "time": 1.7395833333333333,
            "velocity": 0.2125984251968504
          },
          {
            "duration": 0,
            "durationTicks": 0,
            "midi": 43,
            "name": "G2",
            "ticks": 1363,
            "time": 1.7747395833333333,
            "velocity": 0.2125984251968504
          },
          {
            "duration": 0.13020833333333348,
            "durationTicks": 100,
            "midi": 72,
            "name": "C5",
            "ticks": 1408,
            "time": 1.8333333333333333,
            "velocity": 0.12598425196850394
          },
          {
            "duration": 0,
            "durationTicks": 0,
            "midi": 46,
            "name": "A#2",
            "ticks": 1408,
            "time": 1.8333333333333333,
            "velocity": 0.14173228346456693
          },
          {
            "duration": 0,
            "durationTicks": 0,
            "midi": 74,
            "name": "D5",
            "ticks": 1408,
            "time": 1.8333333333333333,
            "velocity": 0.047244094488188976
          },
          {
            "duration": 0,
            "durationTicks": 0,
            "midi": 73,
            "name": "C#5",
            "ticks": 1417,
            "time": 1.8450520833333333,
            "velocity": 0.05511811023622047
          },
          {
            "duration": 0,
            "durationTicks": 0,
            "midi": 71,
            "name": "B4",
            "ticks": 1417,
            "time": 1.8450520833333333,
            "velocity": 0.08661417322834646
          },
          {
            "duration": 0,
            "durationTicks": 0,
            "midi": 57,
            "name": "A3",
            "ticks": 1417,
            "time": 1.8450520833333333,
            "velocity": 0.2283464566929134
          },
          {
            "duration": 0,
            "durationTicks": 0,
            "midi": 76,
            "name": "E5",
            "ticks": 1417,
            "time": 1.8450520833333333,
            "velocity": 0.09448818897637795
          },
          {
            "duration": 0,
            "durationTicks": 0,
            "midi": 50,
            "name": "D3",
            "ticks": 1426,
            "time": 1.8567708333333333,
            "velocity": 0.14173228346456693
          },
          {
            "duration": 0,
            "durationTicks": 0,
            "midi": 43,
            "name": "G2",
            "ticks": 1426,
            "time": 1.8567708333333333,
            "velocity": 0.14173228346456693
          },
          {
            "duration": 0.12890625,
            "durationTicks": 99,
            "midi": 74,
            "name": "D5",
            "ticks": 1426,
            "time": 1.8567708333333333,
            "velocity": 0.14173228346456693
          },
          {
            "duration": 0,
            "durationTicks": 0,
            "midi": 70,
            "name": "A#4",
            "ticks": 1436,
            "time": 1.8697916666666667,
            "velocity": 0.12598425196850394
          },
          {
            "duration": 0.02473958333333326,
            "durationTicks": 19,
            "midi": 51,
            "name": "D#3",
            "ticks": 1445,
            "time": 1.8815104166666667,
            "velocity": 0.13385826771653545
          },
          {
            "duration": 0,
            "durationTicks": 0,
            "midi": 62,
            "name": "D4",
            "ticks": 1445,
            "time": 1.8815104166666667,
            "velocity": 0.14173228346456693
          },
          {
            "duration": 0,
            "durationTicks": 0,
            "midi": 64,
            "name": "E4",
            "ticks": 1445,
            "time": 1.8815104166666667,
            "velocity": 0.15748031496062992
          },
          {
            "duration": 0,
            "durationTicks": 0,
            "midi": 56,
            "name": "G#3",
            "ticks": 1454,
            "time": 1.8932291666666667,
            "velocity": 0.2125984251968504
          },
          {
            "duration": 0,
            "durationTicks": 0,
            "midi": 57,
            "name": "A3",
            "ticks": 1464,
            "time": 1.90625,
            "velocity": 0.2047244094488189
          },
          {
            "duration": 0,
            "durationTicks": 0,
            "midi": 46,
            "name": "A#2",
            "ticks": 1464,
            "time": 1.90625,
            "velocity": 0.11023622047244094
          },
          {
            "duration": 0,
            "durationTicks": 0,
            "midi": 49,
            "name": "C#3",
            "ticks": 1473,
            "time": 1.91796875,
            "velocity": 0.16535433070866143
          },
          {
            "duration": 0,
            "durationTicks": 0,
            "midi": 57,
            "name": "A3",
            "ticks": 1482,
            "time": 1.9296875,
            "velocity": 0.10236220472440945
          },
          {
            "duration": 0,
            "durationTicks": 0,
            "midi": 68,
            "name": "G#4",
            "ticks": 1482,
            "time": 1.9296875,
            "velocity": 0.14173228346456693
          },
          {
            "duration": 0,
            "durationTicks": 0,
            "midi": 60,
            "name": "C4",
            "ticks": 1482,
            "time": 1.9296875,
            "velocity": 0.16535433070866143
          },
          {
            "duration": 0,
            "durationTicks": 0,
            "midi": 73,
            "name": "C#5",
            "ticks": 1492,
            "time": 1.9427083333333333,
            "velocity": 0.06299212598425197
          },
          {
            "duration": 0,
            "durationTicks": 0,
            "midi": 61,
            "name": "C#4",
            "ticks": 1501,
            "time": 1.9544270833333333,
            "velocity": 0.1889763779527559
          },
          {
            "duration": 0,
            "durationTicks": 0,
            "midi": 48,
            "name": "C3",
            "ticks": 1510,
            "time": 1.9661458333333333,
            "velocity": 0.2047244094488189
          },
          {
            "duration": 0,
            "durationTicks": 0,
            "midi": 67,
            "name": "G4",
            "ticks": 1510,
            "time": 1.9661458333333333,
            "velocity": 0.09448818897637795
          },
          {
            "duration": 0.12760416666666652,
            "durationTicks": 98,
            "midi": 47,
            "name": "B2",
            "ticks": 1545,
            "time": 2.01171875,
            "velocity": 0.23622047244094488
          },
          {
            "duration": 0.12760416666666652,
            "durationTicks": 98,
            "midi": 73,
            "name": "C#5",
            "ticks": 1555,
            "time": 2.0247395833333335,
            "velocity": 0.10236220472440945
          },
          {
            "duration": 0.12760416666666652,
            "durationTicks": 98,
            "midi": 66,
            "name": "F#4",
            "ticks": 1555,
            "time": 2.0247395833333335,
            "velocity": 0.12598425196850394
          },
          {
            "duration": 0,
            "durationTicks": 0,
            "midi": 77,
            "name": "F5",
            "ticks": 1555,
            "time": 2.0247395833333335,
            "velocity": 0.047244094488188976
          },
          {
            "duration": 0,
            "durationTicks": 0,
            "midi": 75,
            "name": "D#5",
            "ticks": 1564,
            "time": 2.0364583333333335,
            "velocity": 0.031496062992125984
          },
          {
            "duration": 0,
            "durationTicks": 0,
            "midi": 55,
            "name": "G3",
            "ticks": 1582,
            "time": 2.0598958333333335,
            "velocity": 0.14173228346456693
          },
          {
            "duration": 0,
            "durationTicks": 0,
            "midi": 63,
            "name": "D#4",
            "ticks": 1582,
            "time": 2.0598958333333335,
            "velocity": 0.15748031496062992
          },
          {
            "duration": 0.01171875,
            "durationTicks": 9,
            "midi": 76,
            "name": "E5",
            "ticks": 1582,
            "time": 2.0598958333333335,
            "velocity": 0.06299212598425197
          },
          {
            "duration": 0.11588541666666652,
            "durationTicks": 89,
            "midi": 76,
            "name": "E5",
            "ticks": 1591,
            "time": 2.0716145833333335,
            "velocity": 0.09448818897637795
          },
          {
            "duration": 0.12760416666666652,
            "durationTicks": 98,
            "midi": 67,
            "name": "G4",
            "ticks": 1591,
            "time": 2.0716145833333335,
            "velocity": 0.14173228346456693
          },
          {
            "duration": 0.12760416666666652,
            "durationTicks": 98,
            "midi": 70,
            "name": "A#4",
            "ticks": 1591,
            "time": 2.0716145833333335,
            "velocity": 0.09448818897637795
          },
          {
            "duration": 0,
            "durationTicks": 0,
            "midi": 77,
            "name": "F5",
            "ticks": 1600,
            "time": 2.0833333333333335,
            "velocity": 0.05511811023622047
          },
          {
            "duration": 0.12760416666666652,
            "durationTicks": 98,
            "midi": 81,
            "name": "A5",
            "ticks": 1600,
            "time": 2.0833333333333335,
            "velocity": 0.08661417322834646
          },
          {
            "duration": 0.12760416666666696,
            "durationTicks": 98,
            "midi": 51,
            "name": "D#3",
            "ticks": 1610,
            "time": 2.0963541666666665,
            "velocity": 0.09448818897637795
          },
          {
            "duration": 0.12760416666666696,
            "durationTicks": 98,
            "midi": 65,
            "name": "F4",
            "ticks": 1610,
            "time": 2.0963541666666665,
            "velocity": 0.1889763779527559
          },
          {
            "duration": 0.12760416666666696,
            "durationTicks": 98,
            "midi": 72,
            "name": "C5",
            "ticks": 1610,
            "time": 2.0963541666666665,
            "velocity": 0.15748031496062992
          },
          {
            "duration": 0,
            "durationTicks": 0,
            "midi": 83,
            "name": "B5",
            "ticks": 1610,
            "time": 2.0963541666666665,
            "velocity": 0.13385826771653545
          },
          {
            "duration": 0.12760416666666696,
            "durationTicks": 98,
            "midi": 74,
            "name": "D5",
            "ticks": 1610,
            "time": 2.0963541666666665,
            "velocity": 0.08661417322834646
          },
          {
            "duration": 0,
            "durationTicks": 0,
            "midi": 58,
            "name": "A#3",
            "ticks": 1619,
            "time": 2.1080729166666665,
            "velocity": 0.2125984251968504
          },
          {
            "duration": 0.12760416666666696,
            "durationTicks": 98,
            "midi": 74,
            "name": "D5",
            "ticks": 1619,
            "time": 2.1080729166666665,
            "velocity": 0.16535433070866143
          },
          {
            "duration": 0.12760416666666696,
            "durationTicks": 98,
            "midi": 62,
            "name": "D4",
            "ticks": 1619,
            "time": 2.1080729166666665,
            "velocity": 0.08661417322834646
          },
          {
            "duration": 0,
            "durationTicks": 0,
            "midi": 59,
            "name": "B3",
            "ticks": 1636,
            "time": 2.1302083333333335,
            "velocity": 0.14960629921259844
          },
          {
            "duration": 0,
            "durationTicks": 0,
            "midi": 77,
            "name": "F5",
            "ticks": 1636,
            "time": 2.1302083333333335,
            "velocity": 0.023622047244094488
          },
          {
            "duration": 0.12890625,
            "durationTicks": 99,
            "midi": 46,
            "name": "A#2",
            "ticks": 1636,
            "time": 2.1302083333333335,
            "velocity": 0.2283464566929134
          },
          {
            "duration": 0,
            "durationTicks": 0,
            "midi": 82,
            "name": "A#5",
            "ticks": 1646,
            "time": 2.1432291666666665,
            "velocity": 0.10236220472440945
          },
          {
            "duration": 0,
            "durationTicks": 0,
            "midi": 79,
            "name": "G5",
            "ticks": 1646,
            "time": 2.1432291666666665,
            "velocity": 0.047244094488188976
          },
          {
            "duration": 0,
            "durationTicks": 0,
            "midi": 64,
            "name": "E4",
            "ticks": 1728,
            "time": 2.25,
            "velocity": 0.047244094488188976
          },
          {
            "duration": 0,
            "durationTicks": 0,
            "midi": 45,
            "name": "A2",
            "ticks": 1728,
            "time": 2.25,
            "velocity": 0.2283464566929134
          },
          {
            "duration": 0.04817708333333348,
            "durationTicks": 37,
            "midi": 73,
            "name": "C#5",
            "ticks": 1728,
            "time": 2.25,
            "velocity": 0.10236220472440945
          },
          {
            "duration": 0.38020833333333304,
            "durationTicks": 292,
            "midi": 74,
            "name": "D5",
            "ticks": 1738,
            "time": 2.2630208333333335,
            "velocity": 0.10236220472440945
          },
          {
            "duration": 0,
            "durationTicks": 0,
            "midi": 63,
            "name": "D#4",
            "ticks": 1755,
            "time": 2.28515625,
            "velocity": 0.1732283464566929
          },
          {
            "duration": 0.12630208333333348,
            "durationTicks": 97,
            "midi": 77,
            "name": "F5",
            "ticks": 1755,
            "time": 2.28515625,
            "velocity": 0.09448818897637795
          },
          {
            "duration": 0,
            "durationTicks": 0,
            "midi": 44,
            "name": "G#2",
            "ticks": 1755,
            "time": 2.28515625,
            "velocity": 0.2125984251968504
          },
          {
            "duration": 0,
            "durationTicks": 0,
            "midi": 68,
            "name": "G#4",
            "ticks": 1755,
            "time": 2.28515625,
            "velocity": 0.10236220472440945
          },
          {
            "duration": 0.12630208333333304,
            "durationTicks": 97,
            "midi": 72,
            "name": "C5",
            "ticks": 1765,
            "time": 2.2981770833333335,
            "velocity": 0.15748031496062992
          },
          {
            "duration": 0,
            "durationTicks": 0,
            "midi": 83,
            "name": "B5",
            "ticks": 1765,
            "time": 2.2981770833333335,
            "velocity": 0.03937007874015748
          },
          {
            "duration": 0.12630208333333304,
            "durationTicks": 97,
            "midi": 81,
            "name": "A5",
            "ticks": 1765,
            "time": 2.2981770833333335,
            "velocity": 0.07874015748031496
          },
          {
            "duration": 0.078125,
            "durationTicks": 60,
            "midi": 73,
            "name": "C#5",
            "ticks": 1765,
            "time": 2.2981770833333335,
            "velocity": 0.07086614173228346
          },
          {
            "duration": 0.32942708333333304,
            "durationTicks": 253,
            "midi": 55,
            "name": "G3",
            "ticks": 1765,
            "time": 2.2981770833333335,
            "velocity": 0.2283464566929134
          },
          {
            "duration": 0.12630208333333304,
            "durationTicks": 97,
            "midi": 58,
            "name": "A#3",
            "ticks": 1774,
            "time": 2.3098958333333335,
            "velocity": 0.12598425196850394
          },
          {
            "duration": 0.2526041666666665,
            "durationTicks": 194,
            "midi": 43,
            "name": "G2",
            "ticks": 1774,
            "time": 2.3098958333333335,
            "velocity": 0.2204724409448819
          },
          {
            "duration": 0,
            "durationTicks": 0,
            "midi": 70,
            "name": "A#4",
            "ticks": 1783,
            "time": 2.3216145833333335,
            "velocity": 0.13385826771653545
          },
          {
            "duration": 0.12630208333333304,
            "durationTicks": 97,
            "midi": 51,
            "name": "D#3",
            "ticks": 1783,
            "time": 2.3216145833333335,
            "velocity": 0.07874015748031496
          },
          {
            "duration": 0.12630208333333304,
            "durationTicks": 97,
            "midi": 62,
            "name": "D4",
            "ticks": 1783,
            "time": 2.3216145833333335,
            "velocity": 0.12598425196850394
          },
          {
            "duration": 0.12630208333333304,
            "durationTicks": 97,
            "midi": 71,
            "name": "B4",
            "ticks": 1810,
            "time": 2.3567708333333335,
            "velocity": 0.05511811023622047
          },
          {
            "duration": 0.2552083333333335,
            "durationTicks": 196,
            "midi": 78,
            "name": "F#5",
            "ticks": 1845,
            "time": 2.40234375,
            "velocity": 0.06299212598425197
          },
          {
            "duration": 0.12630208333333304,
            "durationTicks": 97,
            "midi": 73,
            "name": "C#5",
            "ticks": 1864,
            "time": 2.4270833333333335,
            "velocity": 0.047244094488188976
          },
          {
            "duration": 0.12630208333333304,
            "durationTicks": 97,
            "midi": 75,
            "name": "D#5",
            "ticks": 1909,
            "time": 2.4856770833333335,
            "velocity": 0.03937007874015748
          },
          {
            "duration": 0,
            "durationTicks": 0,
            "midi": 83,
            "name": "B5",
            "ticks": 1909,
            "time": 2.4856770833333335,
            "velocity": 0.023622047244094488
          },
          {
            "duration": 0,
            "durationTicks": 0,
            "midi": 63,
            "name": "D#4",
            "ticks": 1927,
            "time": 2.5091145833333335,
            "velocity": 0.11023622047244094
          },
          {
            "duration": 0.12760416666666652,
            "durationTicks": 98,
            "midi": 71,
            "name": "B4",
            "ticks": 1936,
            "time": 2.5208333333333335,
            "velocity": 0.03937007874015748
          },
          {
            "duration": 0,
            "durationTicks": 0,
            "midi": 51,
            "name": "D#3",
            "ticks": 1954,
            "time": 2.5442708333333335,
            "velocity": 0.03937007874015748
          },
          {
            "duration": 0,
            "durationTicks": 0,
            "midi": 70,
            "name": "A#4",
            "ticks": 1963,
            "time": 2.5559895833333335,
            "velocity": 0.05511811023622047
          },
          {
            "duration": 0,
            "durationTicks": 0,
            "midi": 79,
            "name": "G5",
            "ticks": 1973,
            "time": 2.5690104166666665,
            "velocity": 0.023622047244094488
          },
          {
            "duration": 0.05078125,
            "durationTicks": 39,
            "midi": 55,
            "name": "G3",
            "ticks": 2018,
            "time": 2.6276041666666665,
            "velocity": 0.047244094488188976
          },
          {
            "duration": 0,
            "durationTicks": 0,
            "midi": 39,
            "name": "D#2",
            "ticks": 2027,
            "time": 2.6393229166666665,
            "velocity": 0.11023622047244094
          },
          {
            "duration": 0,
            "durationTicks": 0,
            "midi": 42,
            "name": "F#2",
            "ticks": 2064,
            "time": 2.6875,
            "velocity": 0.11811023622047244
          },
          {
            "duration": 0.03645833333333348,
            "durationTicks": 28,
            "midi": 74,
            "name": "D5",
            "ticks": 2081,
            "time": 2.7096354166666665,
            "velocity": 0.14960629921259844
          },
          {
            "duration": 0,
            "durationTicks": 0,
            "midi": 80,
            "name": "G#5",
            "ticks": 2091,
            "time": 2.72265625,
            "velocity": 0.12598425196850394
          },
          {
            "duration": 0.12760416666666652,
            "durationTicks": 98,
            "midi": 46,
            "name": "A#2",
            "ticks": 2091,
            "time": 2.72265625,
            "velocity": 0.2204724409448819
          },
          {
            "duration": 0.22526041666666652,
            "durationTicks": 173,
            "midi": 58,
            "name": "A#3",
            "ticks": 2091,
            "time": 2.72265625,
            "velocity": 0.23622047244094488
          },
          {
            "duration": 0.2565104166666665,
            "durationTicks": 197,
            "midi": 72,
            "name": "C5",
            "ticks": 2091,
            "time": 2.72265625,
            "velocity": 0.11023622047244094
          },
          {
            "duration": 0,
            "durationTicks": 0,
            "midi": 76,
            "name": "E5",
            "ticks": 2091,
            "time": 2.72265625,
            "velocity": 0.08661417322834646
          },
          {
            "duration": 0.2565104166666665,
            "durationTicks": 197,
            "midi": 82,
            "name": "A#5",
            "ticks": 2091,
            "time": 2.72265625,
            "velocity": 0.14173228346456693
          },
          {
            "duration": 0,
            "durationTicks": 0,
            "midi": 63,
            "name": "D#4",
            "ticks": 2100,
            "time": 2.734375,
            "velocity": 0.10236220472440945
          },
          {
            "duration": 0.2565104166666665,
            "durationTicks": 197,
            "midi": 65,
            "name": "F4",
            "ticks": 2100,
            "time": 2.734375,
            "velocity": 0.14173228346456693
          },
          {
            "duration": 0.12760416666666652,
            "durationTicks": 98,
            "midi": 75,
            "name": "D#5",
            "ticks": 2109,
            "time": 2.74609375,
            "velocity": 0.13385826771653545
          },
          {
            "duration": 0.0703125,
            "durationTicks": 54,
            "midi": 74,
            "name": "D5",
            "ticks": 2109,
            "time": 2.74609375,
            "velocity": 0.047244094488188976
          },
          {
            "duration": 0.12760416666666652,
            "durationTicks": 98,
            "midi": 79,
            "name": "G5",
            "ticks": 2118,
            "time": 2.7578125,
            "velocity": 0.14960629921259844
          },
          {
            "duration": 0.12760416666666652,
            "durationTicks": 98,
            "midi": 51,
            "name": "D#3",
            "ticks": 2118,
            "time": 2.7578125,
            "velocity": 0.07874015748031496
          },
          {
            "duration": 0,
            "durationTicks": 0,
            "midi": 67,
            "name": "G4",
            "ticks": 2118,
            "time": 2.7578125,
            "velocity": 0.12598425196850394
          },
          {
            "duration": 0,
            "durationTicks": 0,
            "midi": 73,
            "name": "C#5",
            "ticks": 2136,
            "time": 2.78125,
            "velocity": 0.11811023622047244
          },
          {
            "duration": 0,
            "durationTicks": 0,
            "midi": 73,
            "name": "C#5",
            "ticks": 2136,
            "time": 2.78125,
            "velocity": 0.05511811023622047
          },
          {
            "duration": 0.12890625,
            "durationTicks": 99,
            "midi": 46,
            "name": "A#2",
            "ticks": 2154,
            "time": 2.8046875,
            "velocity": 0.2047244094488189
          },
          {
            "duration": 0.02083333333333348,
            "durationTicks": 16,
            "midi": 74,
            "name": "D5",
            "ticks": 2163,
            "time": 2.81640625,
            "velocity": 0.06299212598425197
          },
          {
            "duration": 0.12890625,
            "durationTicks": 99,
            "midi": 74,
            "name": "D5",
            "ticks": 2163,
            "time": 2.81640625,
            "velocity": 0.12598425196850394
          },
          {
            "duration": 0,
            "durationTicks": 0,
            "midi": 78,
            "name": "F#5",
            "ticks": 2172,
            "time": 2.828125,
            "velocity": 0.023622047244094488
          },
          {
            "duration": 0.12890625,
            "durationTicks": 99,
            "midi": 80,
            "name": "G#5",
            "ticks": 2182,
            "time": 2.8411458333333335,
            "velocity": 0.14960629921259844
          },
          {
            "duration": 0.12890625,
            "durationTicks": 99,
            "midi": 76,
            "name": "E5",
            "ticks": 2200,
            "time": 2.8645833333333335,
            "velocity": 0.12598425196850394
          },
          {
            "duration": 0,
            "durationTicks": 0,
            "midi": 45,
            "name": "A2",
            "ticks": 2246,
            "time": 2.9244791666666665,
            "velocity": 0.2204724409448819
          },
          {
            "duration": 0,
            "durationTicks": 0,
            "midi": 43,
            "name": "G2",
            "ticks": 2264,
            "time": 2.9479166666666665,
            "velocity": 0.15748031496062992
          },
          {
            "duration": 0.03125,
            "durationTicks": 24,
            "midi": 58,
            "name": "A#3",
            "ticks": 2264,
            "time": 2.9479166666666665,
            "velocity": 0.07086614173228346
          },
          {
            "duration": 0,
            "durationTicks": 0,
            "midi": 63,
            "name": "D#4",
            "ticks": 2274,
            "time": 2.9609375,
            "velocity": 0.05511811023622047
          },
          {
            "duration": 0,
            "durationTicks": 0,
            "midi": 45,
            "name": "A2",
            "ticks": 2311,
            "time": 3.0091145833333335,
            "velocity": 0.06299212598425197
          },
          {
            "duration": 0.09505208333333348,
            "durationTicks": 73,
            "midi": 76,
            "name": "E5",
            "ticks": 2382,
            "time": 3.1015625,
            "velocity": 0.05511811023622047
          },
          {
            "duration": 0,
            "durationTicks": 0,
            "midi": 77,
            "name": "F5",
            "ticks": 2382,
            "time": 3.1015625,
            "velocity": 0.08661417322834646
          },
          {
            "duration": 0,
            "durationTicks": 0,
            "midi": 78,
            "name": "F#5",
            "ticks": 2392,
            "time": 3.1145833333333335,
            "velocity": 0.09448818897637795
          },
          {
            "duration": 0,
            "durationTicks": 0,
            "midi": 73,
            "name": "C#5",
            "ticks": 2392,
            "time": 3.1145833333333335,
            "velocity": 0.03937007874015748
          },
          {
            "duration": 0,
            "durationTicks": 0,
            "midi": 75,
            "name": "D#5",
            "ticks": 2392,
            "time": 3.1145833333333335,
            "velocity": 0.047244094488188976
          },
          {
            "duration": 0.05729166666666652,
            "durationTicks": 44,
            "midi": 74,
            "name": "D5",
            "ticks": 2401,
            "time": 3.1263020833333335,
            "velocity": 0.09448818897637795
          },
          {
            "duration": 0,
            "durationTicks": 0,
            "midi": 52,
            "name": "E3",
            "ticks": 2418,
            "time": 3.1484375,
            "velocity": 0.15748031496062992
          },
          {
            "duration": 0,
            "durationTicks": 0,
            "midi": 42,
            "name": "F#2",
            "ticks": 2436,
            "time": 3.171875,
            "velocity": 0.12598425196850394
          },
          {
            "duration": 0,
            "durationTicks": 0,
            "midi": 55,
            "name": "G3",
            "ticks": 2445,
            "time": 3.18359375,
            "velocity": 0.2047244094488189
          },
          {
            "duration": 0.5130208333333335,
            "durationTicks": 394,
            "midi": 70,
            "name": "A#4",
            "ticks": 2445,
            "time": 3.18359375,
            "velocity": 0.2047244094488189
          },
          {
            "duration": 0,
            "durationTicks": 0,
            "midi": 46,
            "name": "A#2",
            "ticks": 2445,
            "time": 3.18359375,
            "velocity": 0.1732283464566929
          },
          {
            "duration": 0,
            "durationTicks": 0,
            "midi": 60,
            "name": "C4",
            "ticks": 2445,
            "time": 3.18359375,
            "velocity": 0.14960629921259844
          },
          {
            "duration": 0,
            "durationTicks": 0,
            "midi": 66,
            "name": "F#4",
            "ticks": 2445,
            "time": 3.18359375,
            "velocity": 0.16535433070866143
          },
          {
            "duration": 0.0703125,
            "durationTicks": 54,
            "midi": 74,
            "name": "D5",
            "ticks": 2445,
            "time": 3.18359375,
            "velocity": 0.14173228346456693
          },
          {
            "duration": 0.12890625,
            "durationTicks": 99,
            "midi": 73,
            "name": "C#5",
            "ticks": 2445,
            "time": 3.18359375,
            "velocity": 0.15748031496062992
          },
          {
            "duration": 0.12890625,
            "durationTicks": 99,
            "midi": 72,
            "name": "C5",
            "ticks": 2445,
            "time": 3.18359375,
            "velocity": 0.14960629921259844
          },
          {
            "duration": 0,
            "durationTicks": 0,
            "midi": 62,
            "name": "D4",
            "ticks": 2445,
            "time": 3.18359375,
            "velocity": 0.12598425196850394
          },
          {
            "duration": 0.12890625,
            "durationTicks": 99,
            "midi": 75,
            "name": "D#5",
            "ticks": 2445,
            "time": 3.18359375,
            "velocity": 0.11811023622047244
          },
          {
            "duration": 0.5130208333333335,
            "durationTicks": 394,
            "midi": 65,
            "name": "F4",
            "ticks": 2445,
            "time": 3.18359375,
            "velocity": 0.1732283464566929
          },
          {
            "duration": 0.03255208333333304,
            "durationTicks": 25,
            "midi": 76,
            "name": "E5",
            "ticks": 2455,
            "time": 3.1966145833333335,
            "velocity": 0.10236220472440945
          },
          {
            "duration": 0.12890625,
            "durationTicks": 99,
            "midi": 58,
            "name": "A#3",
            "ticks": 2455,
            "time": 3.1966145833333335,
            "velocity": 0.2125984251968504
          },
          {
            "duration": 0,
            "durationTicks": 0,
            "midi": 79,
            "name": "G5",
            "ticks": 2455,
            "time": 3.1966145833333335,
            "velocity": 0.05511811023622047
          },
          {
            "duration": 0,
            "durationTicks": 0,
            "midi": 68,
            "name": "G#4",
            "ticks": 2455,
            "time": 3.1966145833333335,
            "velocity": 0.14173228346456693
          },
          {
            "duration": 0.2578125,
            "durationTicks": 198,
            "midi": 29,
            "name": "F1",
            "ticks": 2455,
            "time": 3.1966145833333335,
            "velocity": 0.1968503937007874
          },
          {
            "duration": 0,
            "durationTicks": 0,
            "midi": 53,
            "name": "F3",
            "ticks": 2464,
            "time": 3.2083333333333335,
            "velocity": 0.1732283464566929
          },
          {
            "duration": 0.38411458333333304,
            "durationTicks": 295,
            "midi": 72,
            "name": "C5",
            "ticks": 2464,
            "time": 3.2083333333333335,
            "velocity": 0.2125984251968504
          },
          {
            "duration": 0,
            "durationTicks": 0,
            "midi": 55,
            "name": "G3",
            "ticks": 2473,
            "time": 3.2200520833333335,
            "velocity": 0.13385826771653545
          },
          {
            "duration": 0.2565104166666665,
            "durationTicks": 197,
            "midi": 67,
            "name": "G4",
            "ticks": 2473,
            "time": 3.2200520833333335,
            "velocity": 0.15748031496062992
          },
          {
            "duration": 0.12890625,
            "durationTicks": 99,
            "midi": 46,
            "name": "A#2",
            "ticks": 2483,
            "time": 3.2330729166666665,
            "velocity": 0.18110236220472442
          },
          {
            "duration": 0,
            "durationTicks": 0,
            "midi": 52,
            "name": "E3",
            "ticks": 2483,
            "time": 3.2330729166666665,
            "velocity": 0.14173228346456693
          },
          {
            "duration": 0.04817708333333348,
            "durationTicks": 37,
            "midi": 74,
            "name": "D5",
            "ticks": 2492,
            "time": 3.2447916666666665,
            "velocity": 0.09448818897637795
          },
          {
            "duration": 0,
            "durationTicks": 0,
            "midi": 61,
            "name": "C#4",
            "ticks": 2492,
            "time": 3.2447916666666665,
            "velocity": 0.08661417322834646
          },
          {
            "duration": 0.12760416666666696,
            "durationTicks": 98,
            "midi": 80,
            "name": "G#5",
            "ticks": 2510,
            "time": 3.2682291666666665,
            "velocity": 0.14173228346456693
          },
          {
            "duration": 0,
            "durationTicks": 0,
            "midi": 55,
            "name": "G3",
            "ticks": 2520,
            "time": 3.28125,
            "velocity": 0.11023622047244094
          },
          {
            "duration": 0.08072916666666652,
            "durationTicks": 62,
            "midi": 74,
            "name": "D5",
            "ticks": 2529,
            "time": 3.29296875,
            "velocity": 0.03937007874015748
          },
          {
            "duration": 0,
            "durationTicks": 0,
            "midi": 45,
            "name": "A2",
            "ticks": 2565,
            "time": 3.33984375,
            "velocity": 0.1968503937007874
          },
          {
            "duration": 0.12760416666666652,
            "durationTicks": 98,
            "midi": 46,
            "name": "A#2",
            "ticks": 2575,
            "time": 3.3528645833333335,
            "velocity": 0.2125984251968504
          },
          {
            "duration": 0,
            "durationTicks": 0,
            "midi": 73,
            "name": "C#5",
            "ticks": 2620,
            "time": 3.4114583333333335,
            "velocity": 0.11811023622047244
          },
          {
            "duration": 0,
            "durationTicks": 0,
            "midi": 74,
            "name": "D5",
            "ticks": 2620,
            "time": 3.4114583333333335,
            "velocity": 0.09448818897637795
          },
          {
            "duration": 0,
            "durationTicks": 0,
            "midi": 54,
            "name": "F#3",
            "ticks": 2620,
            "time": 3.4114583333333335,
            "velocity": 0.12598425196850394
          },
          {
            "duration": 0,
            "durationTicks": 0,
            "midi": 63,
            "name": "D#4",
            "ticks": 2620,
            "time": 3.4114583333333335,
            "velocity": 0.05511811023622047
          },
          {
            "duration": 0,
            "durationTicks": 0,
            "midi": 68,
            "name": "G#4",
            "ticks": 2629,
            "time": 3.4231770833333335,
            "velocity": 0.09448818897637795
          },
          {
            "duration": 0,
            "durationTicks": 0,
            "midi": 75,
            "name": "D#5",
            "ticks": 2629,
            "time": 3.4231770833333335,
            "velocity": 0.07874015748031496
          },
          {
            "duration": 0.12760416666666652,
            "durationTicks": 98,
            "midi": 60,
            "name": "C4",
            "ticks": 2629,
            "time": 3.4231770833333335,
            "velocity": 0.13385826771653545
          },
          {
            "duration": 0,
            "durationTicks": 0,
            "midi": 76,
            "name": "E5",
            "ticks": 2629,
            "time": 3.4231770833333335,
            "velocity": 0.05511811023622047
          },
          {
            "duration": 0.12760416666666696,
            "durationTicks": 98,
            "midi": 48,
            "name": "C3",
            "ticks": 2639,
            "time": 3.4361979166666665,
            "velocity": 0.2283464566929134
          },
          {
            "duration": 0,
            "durationTicks": 0,
            "midi": 53,
            "name": "F3",
            "ticks": 2639,
            "time": 3.4361979166666665,
            "velocity": 0.13385826771653545
          },
          {
            "duration": 0.12760416666666696,
            "durationTicks": 98,
            "midi": 58,
            "name": "A#3",
            "ticks": 2639,
            "time": 3.4361979166666665,
            "velocity": 0.12598425196850394
          },
          {
            "duration": 0,
            "durationTicks": 0,
            "midi": 55,
            "name": "G3",
            "ticks": 2648,
            "time": 3.4479166666666665,
            "velocity": 0.09448818897637795
          },
          {
            "duration": 0.12760416666666696,
            "durationTicks": 98,
            "midi": 67,
            "name": "G4",
            "ticks": 2648,
            "time": 3.4479166666666665,
            "velocity": 0.12598425196850394
          },
          {
            "duration": 0.12630208333333348,
            "durationTicks": 97,
            "midi": 78,
            "name": "F#5",
            "ticks": 2684,
            "time": 3.4947916666666665,
            "velocity": 0.05511811023622047
          },
          {
            "duration": 0.12630208333333348,
            "durationTicks": 97,
            "midi": 74,
            "name": "D5",
            "ticks": 2693,
            "time": 3.5065104166666665,
            "velocity": 0.05511811023622047
          },
          {
            "duration": 0.12630208333333348,
            "durationTicks": 97,
            "midi": 53,
            "name": "F3",
            "ticks": 2693,
            "time": 3.5065104166666665,
            "velocity": 0.047244094488188976
          },
          {
            "duration": 0,
            "durationTicks": 0,
            "midi": 47,
            "name": "B2",
            "ticks": 2774,
            "time": 3.6119791666666665,
            "velocity": 0.2204724409448819
          },
          {
            "duration": 0.38020833333333304,
            "durationTicks": 292,
            "midi": 60,
            "name": "C4",
            "ticks": 2784,
            "time": 3.625,
            "velocity": 0.2283464566929134
          },
          {
            "duration": 0.12890625,
            "durationTicks": 99,
            "midi": 75,
            "name": "D#5",
            "ticks": 2784,
            "time": 3.625,
            "velocity": 0.12598425196850394
          },
          {
            "duration": 0,
            "durationTicks": 0,
            "midi": 54,
            "name": "F#3",
            "ticks": 2784,
            "time": 3.625,
            "velocity": 0.15748031496062992
          },
          {
            "duration": 0,
            "durationTicks": 0,
            "midi": 76,
            "name": "E5",
            "ticks": 2784,
            "time": 3.625,
            "velocity": 0.05511811023622047
          },
          {
            "duration": 0,
            "durationTicks": 0,
            "midi": 74,
            "name": "D5",
            "ticks": 2793,
            "time": 3.63671875,
            "velocity": 0.10236220472440945
          },
          {
            "duration": 0.25390625,
            "durationTicks": 195,
            "midi": 76,
            "name": "E5",
            "ticks": 2793,
            "time": 3.63671875,
            "velocity": 0.1968503937007874
          },
          {
            "duration": 0.38020833333333304,
            "durationTicks": 292,
            "midi": 48,
            "name": "C3",
            "ticks": 2793,
            "time": 3.63671875,
            "velocity": 0.2047244094488189
          },
          {
            "duration": 0.25390625,
            "durationTicks": 195,
            "midi": 67,
            "name": "G4",
            "ticks": 2793,
            "time": 3.63671875,
            "velocity": 0.2047244094488189
          },
          {
            "duration": 0,
            "durationTicks": 0,
            "midi": 78,
            "name": "F#5",
            "ticks": 2802,
            "time": 3.6484375,
            "velocity": 0.09448818897637795
          },
          {
            "duration": 0.38020833333333304,
            "durationTicks": 292,
            "midi": 82,
            "name": "A#5",
            "ticks": 2802,
            "time": 3.6484375,
            "velocity": 0.1889763779527559
          },
          {
            "duration": 0,
            "durationTicks": 0,
            "midi": 78,
            "name": "F#5",
            "ticks": 2802,
            "time": 3.6484375,
            "velocity": 0.12598425196850394
          },
          {
            "duration": 0,
            "durationTicks": 0,
            "midi": 58,
            "name": "A#3",
            "ticks": 2811,
            "time": 3.66015625,
            "velocity": 0.13385826771653545
          },
          {
            "duration": 0.12760416666666652,
            "durationTicks": 98,
            "midi": 70,
            "name": "A#4",
            "ticks": 2811,
            "time": 3.66015625,
            "velocity": 0.1732283464566929
          },
          {
            "duration": 0,
            "durationTicks": 0,
            "midi": 73,
            "name": "C#5",
            "ticks": 2811,
            "time": 3.66015625,
            "velocity": 0.09448818897637795
          },
          {
            "duration": 0.12760416666666652,
            "durationTicks": 98,
            "midi": 65,
            "name": "F4",
            "ticks": 2811,
            "time": 3.66015625,
            "velocity": 0.13385826771653545
          },
          {
            "duration": 0,
            "durationTicks": 0,
            "midi": 62,
            "name": "D4",
            "ticks": 2811,
            "time": 3.66015625,
            "velocity": 0.14960629921259844
          },
          {
            "duration": 0,
            "durationTicks": 0,
            "midi": 45,
            "name": "A2",
            "ticks": 2811,
            "time": 3.66015625,
            "velocity": 0.11023622047244094
          },
          {
            "duration": 0,
            "durationTicks": 0,
            "midi": 53,
            "name": "F3",
            "ticks": 2821,
            "time": 3.6731770833333335,
            "velocity": 0.16535433070866143
          },
          {
            "duration": 0.12630208333333304,
            "durationTicks": 97,
            "midi": 57,
            "name": "A3",
            "ticks": 2830,
            "time": 3.6848958333333335,
            "velocity": 0.15748031496062992
          },
          {
            "duration": 0,
            "durationTicks": 0,
            "midi": 77,
            "name": "F5",
            "ticks": 2849,
            "time": 3.7096354166666665,
            "velocity": 0.10236220472440945
          },
          {
            "duration": 0.125,
            "durationTicks": 96,
            "midi": 53,
            "name": "F3",
            "ticks": 2858,
            "time": 3.7213541666666665,
            "velocity": 0.05511811023622047
          },
          {
            "duration": 0.12630208333333304,
            "durationTicks": 97,
            "midi": 77,
            "name": "F5",
            "ticks": 2902,
            "time": 3.7786458333333335,
            "velocity": 0.14173228346456693
          },
          {
            "duration": 0.0703125,
            "durationTicks": 54,
            "midi": 74,
            "name": "D5",
            "ticks": 2912,
            "time": 3.7916666666666665,
            "velocity": 0.16535433070866143
          },
          {
            "duration": 0.125,
            "durationTicks": 96,
            "midi": 65,
            "name": "F4",
            "ticks": 2966,
            "time": 3.8619791666666665,
            "velocity": 0.12598425196850394
          },
          {
            "duration": 0,
            "durationTicks": 0,
            "midi": 73,
            "name": "C#5",
            "ticks": 2966,
            "time": 3.8619791666666665,
            "velocity": 0.08661417322834646
          },
          {
            "duration": 0.05598958333333348,
            "durationTicks": 43,
            "midi": 74,
            "name": "D5",
            "ticks": 2966,
            "time": 3.8619791666666665,
            "velocity": 0.05511811023622047
          },
          {
            "duration": 0.125,
            "durationTicks": 96,
            "midi": 70,
            "name": "A#4",
            "ticks": 2975,
            "time": 3.8736979166666665,
            "velocity": 0.14173228346456693
          },
          {
            "duration": 0.12630208333333348,
            "durationTicks": 97,
            "midi": 67,
            "name": "G4",
            "ticks": 2992,
            "time": 3.8958333333333335,
            "velocity": 0.11023622047244094
          },
          {
            "duration": 0.12630208333333348,
            "durationTicks": 97,
            "midi": 57,
            "name": "A3",
            "ticks": 3002,
            "time": 3.9088541666666665,
            "velocity": 0.16535433070866143
          },
          {
            "duration": 0,
            "durationTicks": 0,
            "midi": 77,
            "name": "F5",
            "ticks": 3029,
            "time": 3.9440104166666665,
            "velocity": 0.08661417322834646
          },
          {
            "duration": 0,
            "durationTicks": 0,
            "midi": 45,
            "name": "A2",
            "ticks": 3046,
            "time": 3.9661458333333335,
            "velocity": 0.15748031496062992
          },
          {
            "duration": 0,
            "durationTicks": 0,
            "midi": 44,
            "name": "G#2",
            "ticks": 3064,
            "time": 3.9895833333333335,
            "velocity": 0.13385826771653545
          },
          {
            "duration": 0.12760416666666607,
            "durationTicks": 98,
            "midi": 76,
            "name": "E5",
            "ticks": 3101,
            "time": 4.037760416666667,
            "velocity": 0.07086614173228346
          },
          {
            "duration": 0,
            "durationTicks": 0,
            "midi": 47,
            "name": "B2",
            "ticks": 3119,
            "time": 4.061197916666667,
            "velocity": 0.1732283464566929
          },
          {
            "duration": 0,
            "durationTicks": 0,
            "midi": 75,
            "name": "D#5",
            "ticks": 3119,
            "time": 4.061197916666667,
            "velocity": 0.031496062992125984
          },
          {
            "duration": 0.12760416666666607,
            "durationTicks": 98,
            "midi": 80,
            "name": "G#5",
            "ticks": 3128,
            "time": 4.072916666666667,
            "velocity": 0.14173228346456693
          },
          {
            "duration": 0,
            "durationTicks": 0,
            "midi": 58,
            "name": "A#3",
            "ticks": 3128,
            "time": 4.072916666666667,
            "velocity": 0.1732283464566929
          },
          {
            "duration": 0.01171875,
            "durationTicks": 9,
            "midi": 74,
            "name": "D5",
            "ticks": 3128,
            "time": 4.072916666666667,
            "velocity": 0.1732283464566929
          },
          {
            "duration": 0,
            "durationTicks": 0,
            "midi": 82,
            "name": "A#5",
            "ticks": 3128,
            "time": 4.072916666666667,
            "velocity": 0.11023622047244094
          },
          {
            "duration": 0,
            "durationTicks": 0,
            "midi": 77,
            "name": "F5",
            "ticks": 3128,
            "time": 4.072916666666667,
            "velocity": 0.11023622047244094
          },
          {
            "duration": 0,
            "durationTicks": 0,
            "midi": 46,
            "name": "A#2",
            "ticks": 3137,
            "time": 4.084635416666667,
            "velocity": 0.2204724409448819
          },
          {
            "duration": 0,
            "durationTicks": 0,
            "midi": 68,
            "name": "G#4",
            "ticks": 3137,
            "time": 4.084635416666667,
            "velocity": 0.07086614173228346
          },
          {
            "duration": 0,
            "durationTicks": 0,
            "midi": 78,
            "name": "F#5",
            "ticks": 3137,
            "time": 4.084635416666667,
            "velocity": 0.06299212598425197
          },
          {
            "duration": 0.12760416666666607,
            "durationTicks": 98,
            "midi": 72,
            "name": "C5",
            "ticks": 3137,
            "time": 4.084635416666667,
            "velocity": 0.14960629921259844
          },
          {
            "duration": 0.12760416666666607,
            "durationTicks": 98,
            "midi": 65,
            "name": "F4",
            "ticks": 3137,
            "time": 4.084635416666667,
            "velocity": 0.11023622047244094
          },
          {
            "duration": 0.11588541666666607,
            "durationTicks": 89,
            "midi": 74,
            "name": "D5",
            "ticks": 3137,
            "time": 4.084635416666667,
            "velocity": 0.10236220472440945
          },
          {
            "duration": 0,
            "durationTicks": 0,
            "midi": 81,
            "name": "A5",
            "ticks": 3137,
            "time": 4.084635416666667,
            "velocity": 0.08661417322834646
          },
          {
            "duration": 0.12760416666666696,
            "durationTicks": 98,
            "midi": 79,
            "name": "G5",
            "ticks": 3147,
            "time": 4.09765625,
            "velocity": 0.05511811023622047
          },
          {
            "duration": 0,
            "durationTicks": 0,
            "midi": 78,
            "name": "F#5",
            "ticks": 3147,
            "time": 4.09765625,
            "velocity": 0.11023622047244094
          },
          {
            "duration": 0.12760416666666696,
            "durationTicks": 98,
            "midi": 67,
            "name": "G4",
            "ticks": 3156,
            "time": 4.109375,
            "velocity": 0.13385826771653545
          },
          {
            "duration": 0,
            "durationTicks": 0,
            "midi": 83,
            "name": "B5",
            "ticks": 3156,
            "time": 4.109375,
            "velocity": 0.11023622047244094
          },
          {
            "duration": 0,
            "durationTicks": 0,
            "midi": 75,
            "name": "D#5",
            "ticks": 3156,
            "time": 4.109375,
            "velocity": 0.11811023622047244
          },
          {
            "duration": 0,
            "durationTicks": 0,
            "midi": 73,
            "name": "C#5",
            "ticks": 3156,
            "time": 4.109375,
            "velocity": 0.12598425196850394
          },
          {
            "duration": 0,
            "durationTicks": 0,
            "midi": 47,
            "name": "B2",
            "ticks": 3156,
            "time": 4.109375,
            "velocity": 0.1968503937007874
          },
          {
            "duration": 0,
            "durationTicks": 0,
            "midi": 60,
            "name": "C4",
            "ticks": 3165,
            "time": 4.12109375,
            "velocity": 0.1732283464566929
          },
          {
            "duration": 0.12630208333333393,
            "durationTicks": 97,
            "midi": 76,
            "name": "E5",
            "ticks": 3175,
            "time": 4.134114583333333,
            "velocity": 0.14173228346456693
          },
          {
            "duration": 0.12630208333333393,
            "durationTicks": 97,
            "midi": 57,
            "name": "A3",
            "ticks": 3175,
            "time": 4.134114583333333,
            "velocity": 0.15748031496062992
          },
          {
            "duration": 0,
            "durationTicks": 0,
            "midi": 61,
            "name": "C#4",
            "ticks": 3184,
            "time": 4.145833333333333,
            "velocity": 0.1889763779527559
          },
          {
            "duration": 0,
            "durationTicks": 0,
            "midi": 49,
            "name": "C#3",
            "ticks": 3184,
            "time": 4.145833333333333,
            "velocity": 0.1732283464566929
          },
          {
            "duration": 0.12760416666666696,
            "durationTicks": 98,
            "midi": 60,
            "name": "C4",
            "ticks": 3201,
            "time": 4.16796875,
            "velocity": 0.10236220472440945
          },
          {
            "duration": 0.12760416666666696,
            "durationTicks": 98,
            "midi": 62,
            "name": "D4",
            "ticks": 3201,
            "time": 4.16796875,
            "velocity": 0.1968503937007874
          },
          {
            "duration": 0.12760416666666696,
            "durationTicks": 98,
            "midi": 50,
            "name": "D3",
            "ticks": 3211,
            "time": 4.180989583333333,
            "velocity": 0.18110236220472442
          },
          {
            "duration": 0,
            "durationTicks": 0,
            "midi": 78,
            "name": "F#5",
            "ticks": 3247,
            "time": 4.227864583333333,
            "velocity": 0.023622047244094488
          },
          {
            "duration": 0,
            "durationTicks": 0,
            "midi": 49,
            "name": "C#3",
            "ticks": 3283,
            "time": 4.274739583333333,
            "velocity": 0.1968503937007874
          },
          {
            "duration": 0,
            "durationTicks": 0,
            "midi": 68,
            "name": "G#4",
            "ticks": 3292,
            "time": 4.286458333333333,
            "velocity": 0.09448818897637795
          },
          {
            "duration": 0,
            "durationTicks": 0,
            "midi": 65,
            "name": "F4",
            "ticks": 3320,
            "time": 4.322916666666667,
            "velocity": 0.06299212598425197
          },
          {
            "duration": 0.125,
            "durationTicks": 96,
            "midi": 48,
            "name": "C3",
            "ticks": 3320,
            "time": 4.322916666666667,
            "velocity": 0.1968503937007874
          },
          {
            "duration": 0.125,
            "durationTicks": 96,
            "midi": 67,
            "name": "G4",
            "ticks": 3320,
            "time": 4.322916666666667,
            "velocity": 0.15748031496062992
          },
          {
            "duration": 0.125,
            "durationTicks": 96,
            "midi": 76,
            "name": "E5",
            "ticks": 3320,
            "time": 4.322916666666667,
            "velocity": 0.07874015748031496
          },
          {
            "duration": 0,
            "durationTicks": 0,
            "midi": 70,
            "name": "A#4",
            "ticks": 3320,
            "time": 4.322916666666667,
            "velocity": 0.07874015748031496
          },
          {
            "duration": 0.125,
            "durationTicks": 96,
            "midi": 74,
            "name": "D5",
            "ticks": 3330,
            "time": 4.3359375,
            "velocity": 0.07874015748031496
          },
          {
            "duration": 0,
            "durationTicks": 0,
            "midi": 73,
            "name": "C#5",
            "ticks": 3419,
            "time": 4.451822916666667,
            "velocity": 0.047244094488188976
          },
          {
            "duration": 0,
            "durationTicks": 0,
            "midi": 75,
            "name": "D#5",
            "ticks": 3419,
            "time": 4.451822916666667,
            "velocity": 0.05511811023622047
          },
          {
            "duration": 0,
            "durationTicks": 0,
            "midi": 47,
            "name": "B2",
            "ticks": 3428,
            "time": 4.463541666666667,
            "velocity": 0.1968503937007874
          },
          {
            "duration": 0,
            "durationTicks": 0,
            "midi": 58,
            "name": "A#3",
            "ticks": 3437,
            "time": 4.475260416666667,
            "velocity": 0.11023622047244094
          },
          {
            "duration": 0,
            "durationTicks": 0,
            "midi": 43,
            "name": "G2",
            "ticks": 3455,
            "time": 4.498697916666667,
            "velocity": 0.14173228346456693
          },
          {
            "duration": 0,
            "durationTicks": 0,
            "midi": 79,
            "name": "G5",
            "ticks": 3472,
            "time": 4.520833333333333,
            "velocity": 0.07874015748031496
          },
          {
            "duration": 0,
            "durationTicks": 0,
            "midi": 75,
            "name": "D#5",
            "ticks": 3472,
            "time": 4.520833333333333,
            "velocity": 0.06299212598425197
          },
          {
            "duration": 0.6315104166666661,
            "durationTicks": 485,
            "midi": 74,
            "name": "D5",
            "ticks": 3482,
            "time": 4.533854166666667,
            "velocity": 0.2677165354330709
          },
          {
            "duration": 0,
            "durationTicks": 0,
            "midi": 53,
            "name": "F3",
            "ticks": 3482,
            "time": 4.533854166666667,
            "velocity": 0.07086614173228346
          },
          {
            "duration": 0,
            "durationTicks": 0,
            "midi": 78,
            "name": "F#5",
            "ticks": 3482,
            "time": 4.533854166666667,
            "velocity": 0.07086614173228346
          },
          {
            "duration": 0,
            "durationTicks": 0,
            "midi": 69,
            "name": "A4",
            "ticks": 3482,
            "time": 4.533854166666667,
            "velocity": 0.08661417322834646
          },
          {
            "duration": 0,
            "durationTicks": 0,
            "midi": 72,
            "name": "C5",
            "ticks": 3482,
            "time": 4.533854166666667,
            "velocity": 0.11811023622047244
          },
          {
            "duration": 0.12630208333333304,
            "durationTicks": 97,
            "midi": 46,
            "name": "A#2",
            "ticks": 3482,
            "time": 4.533854166666667,
            "velocity": 0.2047244094488189
          },
          {
            "duration": 0.12630208333333304,
            "durationTicks": 97,
            "midi": 82,
            "name": "A#5",
            "ticks": 3482,
            "time": 4.533854166666667,
            "velocity": 0.13385826771653545
          },
          {
            "duration": 0.12630208333333304,
            "durationTicks": 97,
            "midi": 77,
            "name": "F5",
            "ticks": 3482,
            "time": 4.533854166666667,
            "velocity": 0.12598425196850394
          },
          {
            "duration": 0.12630208333333304,
            "durationTicks": 97,
            "midi": 61,
            "name": "C#4",
            "ticks": 3491,
            "time": 4.545572916666667,
            "velocity": 0.12598425196850394
          },
          {
            "duration": 0.12630208333333304,
            "durationTicks": 97,
            "midi": 65,
            "name": "F4",
            "ticks": 3491,
            "time": 4.545572916666667,
            "velocity": 0.08661417322834646
          },
          {
            "duration": 0,
            "durationTicks": 0,
            "midi": 67,
            "name": "G4",
            "ticks": 3491,
            "time": 4.545572916666667,
            "velocity": 0.09448818897637795
          },
          {
            "duration": 0.12630208333333304,
            "durationTicks": 97,
            "midi": 80,
            "name": "G#5",
            "ticks": 3491,
            "time": 4.545572916666667,
            "velocity": 0.11811023622047244
          },
          {
            "duration": 0.10546875,
            "durationTicks": 81,
            "midi": 76,
            "name": "E5",
            "ticks": 3491,
            "time": 4.545572916666667,
            "velocity": 0.07086614173228346
          },
          {
            "duration": 0,
            "durationTicks": 0,
            "midi": 78,
            "name": "F#5",
            "ticks": 3518,
            "time": 4.580729166666667,
            "velocity": 0.11811023622047244
          },
          {
            "duration": 0,
            "durationTicks": 0,
            "midi": 72,
            "name": "C5",
            "ticks": 3518,
            "time": 4.580729166666667,
            "velocity": 0.09448818897637795
          },
          {
            "duration": 0,
            "durationTicks": 0,
            "midi": 78,
            "name": "F#5",
            "ticks": 3554,
            "time": 4.627604166666667,
            "velocity": 0.07874015748031496
          },
          {
            "duration": 0.020833333333333037,
            "durationTicks": 16,
            "midi": 76,
            "name": "E5",
            "ticks": 3572,
            "time": 4.651041666666667,
            "velocity": 0.05511811023622047
          },
          {
            "duration": 0,
            "durationTicks": 0,
            "midi": 62,
            "name": "D4",
            "ticks": 3581,
            "time": 4.662760416666667,
            "velocity": 0.047244094488188976
          },
          {
            "duration": 0,
            "durationTicks": 0,
            "midi": 45,
            "name": "A2",
            "ticks": 3590,
            "time": 4.674479166666667,
            "velocity": 0.2047244094488189
          },
          {
            "duration": 0,
            "durationTicks": 0,
            "midi": 78,
            "name": "F#5",
            "ticks": 3600,
            "time": 4.6875,
            "velocity": 0.047244094488188976
          },
          {
            "duration": 0.12630208333333304,
            "durationTicks": 97,
            "midi": 79,
            "name": "G5",
            "ticks": 3600,
            "time": 4.6875,
            "velocity": 0.07874015748031496
          },
          {
            "duration": 0,
            "durationTicks": 0,
            "midi": 72,
            "name": "C5",
            "ticks": 3617,
            "time": 4.709635416666667,
            "velocity": 0.05511811023622047
          },
          {
            "duration": 0,
            "durationTicks": 0,
            "midi": 46,
            "name": "A#2",
            "ticks": 3627,
            "time": 4.72265625,
            "velocity": 0.2204724409448819
          },
          {
            "duration": 0,
            "durationTicks": 0,
            "midi": 83,
            "name": "B5",
            "ticks": 3636,
            "time": 4.734375,
            "velocity": 0.13385826771653545
          },
          {
            "duration": 0,
            "durationTicks": 0,
            "midi": 78,
            "name": "F#5",
            "ticks": 3636,
            "time": 4.734375,
            "velocity": 0.07086614173228346
          },
          {
            "duration": 0,
            "durationTicks": 0,
            "midi": 59,
            "name": "B3",
            "ticks": 3636,
            "time": 4.734375,
            "velocity": 0.12598425196850394
          },
          {
            "duration": 0.25130208333333304,
            "durationTicks": 193,
            "midi": 67,
            "name": "G4",
            "ticks": 3645,
            "time": 4.74609375,
            "velocity": 0.15748031496062992
          },
          {
            "duration": 0,
            "durationTicks": 0,
            "midi": 47,
            "name": "B2",
            "ticks": 3645,
            "time": 4.74609375,
            "velocity": 0.2204724409448819
          },
          {
            "duration": 0,
            "durationTicks": 0,
            "midi": 77,
            "name": "F5",
            "ticks": 3645,
            "time": 4.74609375,
            "velocity": 0.09448818897637795
          },
          {
            "duration": 0,
            "durationTicks": 0,
            "midi": 81,
            "name": "A5",
            "ticks": 3645,
            "time": 4.74609375,
            "velocity": 0.15748031496062992
          },
          {
            "duration": 0.2513020833333339,
            "durationTicks": 193,
            "midi": 48,
            "name": "C3",
            "ticks": 3655,
            "time": 4.759114583333333,
            "velocity": 0.1968503937007874
          },
          {
            "duration": 0.12369791666666696,
            "durationTicks": 95,
            "midi": 72,
            "name": "C5",
            "ticks": 3655,
            "time": 4.759114583333333,
            "velocity": 0.15748031496062992
          },
          {
            "duration": 0.2513020833333339,
            "durationTicks": 193,
            "midi": 60,
            "name": "C4",
            "ticks": 3655,
            "time": 4.759114583333333,
            "velocity": 0.2283464566929134
          },
          {
            "duration": 0.12369791666666696,
            "durationTicks": 95,
            "midi": 76,
            "name": "E5",
            "ticks": 3664,
            "time": 4.770833333333333,
            "velocity": 0.15748031496062992
          },
          {
            "duration": 0,
            "durationTicks": 0,
            "midi": 77,
            "name": "F5",
            "ticks": 3681,
            "time": 4.79296875,
            "velocity": 0.07874015748031496
          },
          {
            "duration": 0.12369791666666696,
            "durationTicks": 95,
            "midi": 82,
            "name": "A#5",
            "ticks": 3681,
            "time": 4.79296875,
            "velocity": 0.10236220472440945
          },
          {
            "duration": 0,
            "durationTicks": 0,
            "midi": 78,
            "name": "F#5",
            "ticks": 3734,
            "time": 4.861979166666667,
            "velocity": 0.031496062992125984
          },
          {
            "duration": 0,
            "durationTicks": 0,
            "midi": 68,
            "name": "G#4",
            "ticks": 3806,
            "time": 4.955729166666667,
            "velocity": 0.08661417322834646
          },
          {
            "duration": 0,
            "durationTicks": 0,
            "midi": 47,
            "name": "B2",
            "ticks": 3806,
            "time": 4.955729166666667,
            "velocity": 0.14173228346456693
          },
          {
            "duration": 0.12630208333333304,
            "durationTicks": 97,
            "midi": 72,
            "name": "C5",
            "ticks": 3815,
            "time": 4.967447916666667,
            "velocity": 0.08661417322834646
          },
          {
            "duration": 0.3815104166666661,
            "durationTicks": 293,
            "midi": 69,
            "name": "A4",
            "ticks": 3815,
            "time": 4.967447916666667,
            "velocity": 0.2125984251968504
          },
          {
            "duration": 0,
            "durationTicks": 0,
            "midi": 76,
            "name": "E5",
            "ticks": 3815,
            "time": 4.967447916666667,
            "velocity": 0.05511811023622047
          },
          {
            "duration": 0.25520833333333304,
            "durationTicks": 196,
            "midi": 50,
            "name": "D3",
            "ticks": 3815,
            "time": 4.967447916666667,
            "velocity": 0.1968503937007874
          },
          {
            "duration": 0,
            "durationTicks": 0,
            "midi": 75,
            "name": "D#5",
            "ticks": 3815,
            "time": 4.967447916666667,
            "velocity": 0.047244094488188976
          },
          {
            "duration": 0,
            "durationTicks": 0,
            "midi": 55,
            "name": "G3",
            "ticks": 3815,
            "time": 4.967447916666667,
            "velocity": 0.14960629921259844
          },
          {
            "duration": 0.25520833333333304,
            "durationTicks": 196,
            "midi": 65,
            "name": "F4",
            "ticks": 3824,
            "time": 4.979166666666667,
            "velocity": 0.16535433070866143
          },
          {
            "duration": 0,
            "durationTicks": 0,
            "midi": 66,
            "name": "F#4",
            "ticks": 3824,
            "time": 4.979166666666667,
            "velocity": 0.14173228346456693
          },
          {
            "duration": 0,
            "durationTicks": 0,
            "midi": 25,
            "name": "C#1",
            "ticks": 3824,
            "time": 4.979166666666667,
            "velocity": 0.16535433070866143
          },
          {
            "duration": 0.12630208333333304,
            "durationTicks": 97,
            "midi": 45,
            "name": "A2",
            "ticks": 3824,
            "time": 4.979166666666667,
            "velocity": 0.12598425196850394
          },
          {
            "duration": 0,
            "durationTicks": 0,
            "midi": 39,
            "name": "D#2",
            "ticks": 3824,
            "time": 4.979166666666667,
            "velocity": 0.09448818897637795
          },
          {
            "duration": 0,
            "durationTicks": 0,
            "midi": 71,
            "name": "B4",
            "ticks": 3824,
            "time": 4.979166666666667,
            "velocity": 0.10236220472440945
          },
          {
            "duration": 0.25520833333333304,
            "durationTicks": 196,
            "midi": 62,
            "name": "D4",
            "ticks": 3824,
            "time": 4.979166666666667,
            "velocity": 0.23622047244094488
          },
          {
            "duration": 0.12630208333333304,
            "durationTicks": 97,
            "midi": 76,
            "name": "E5",
            "ticks": 3834,
            "time": 4.9921875,
            "velocity": 0.07874015748031496
          },
          {
            "duration": 0,
            "durationTicks": 0,
            "midi": 70,
            "name": "A#4",
            "ticks": 3843,
            "time": 5.00390625,
            "velocity": 0.08661417322834646
          },
          {
            "duration": 0,
            "durationTicks": 0,
            "midi": 73,
            "name": "C#5",
            "ticks": 3843,
            "time": 5.00390625,
            "velocity": 0.06299212598425197
          },
          {
            "duration": 0.12630208333333304,
            "durationTicks": 97,
            "midi": 26,
            "name": "D1",
            "ticks": 3843,
            "time": 5.00390625,
            "velocity": 0.15748031496062992
          },
          {
            "duration": 0.12630208333333304,
            "durationTicks": 97,
            "midi": 55,
            "name": "G3",
            "ticks": 3860,
            "time": 5.026041666666667,
            "velocity": 0.11023622047244094
          },
          {
            "duration": 0.12760416666666607,
            "durationTicks": 98,
            "midi": 78,
            "name": "F#5",
            "ticks": 3887,
            "time": 5.061197916666667,
            "velocity": 0.03937007874015748
          },
          {
            "duration": 0.34375,
            "durationTicks": 264,
            "midi": 57,
            "name": "A3",
            "ticks": 3914,
            "time": 5.096354166666667,
            "velocity": 0.14960629921259844
          },
          {
            "duration": 0,
            "durationTicks": 0,
            "midi": 25,
            "name": "C#1",
            "ticks": 3924,
            "time": 5.109375,
            "velocity": 0.11023622047244094
          },
          {
            "duration": 0,
            "durationTicks": 0,
            "midi": 63,
            "name": "D#4",
            "ticks": 3978,
            "time": 5.1796875,
            "velocity": 0.11023622047244094
          },
          {
            "duration": 0,
            "durationTicks": 0,
            "midi": 61,
            "name": "C#4",
            "ticks": 3978,
            "time": 5.1796875,
            "velocity": 0.15748031496062992
          },
          {
            "duration": 0,
            "durationTicks": 0,
            "midi": 53,
            "name": "F3",
            "ticks": 3978,
            "time": 5.1796875,
            "velocity": 0.11811023622047244
          },
          {
            "duration": 0,
            "durationTicks": 0,
            "midi": 74,
            "name": "D5",
            "ticks": 3988,
            "time": 5.192708333333333,
            "velocity": 0.07874015748031496
          },
          {
            "duration": 0,
            "durationTicks": 0,
            "midi": 64,
            "name": "E4",
            "ticks": 3997,
            "time": 5.204427083333333,
            "velocity": 0.08661417322834646
          },
          {
            "duration": 0.25390625,
            "durationTicks": 195,
            "midi": 65,
            "name": "F4",
            "ticks": 4006,
            "time": 5.216145833333333,
            "velocity": 0.14960629921259844
          },
          {
            "duration": 0,
            "durationTicks": 0,
            "midi": 55,
            "name": "G3",
            "ticks": 4006,
            "time": 5.216145833333333,
            "velocity": 0.07874015748031496
          },
          {
            "duration": 0,
            "durationTicks": 0,
            "midi": 49,
            "name": "C#3",
            "ticks": 4006,
            "time": 5.216145833333333,
            "velocity": 0.16535433070866143
          },
          {
            "duration": 0,
            "durationTicks": 0,
            "midi": 75,
            "name": "D#5",
            "ticks": 4016,
            "time": 5.229166666666667,
            "velocity": 0.031496062992125984
          },
          {
            "duration": 0,
            "durationTicks": 0,
            "midi": 48,
            "name": "C3",
            "ticks": 4025,
            "time": 5.240885416666667,
            "velocity": 0.1732283464566929
          },
          {
            "duration": 0.22395833333333304,
            "durationTicks": 172,
            "midi": 62,
            "name": "D4",
            "ticks": 4025,
            "time": 5.240885416666667,
            "velocity": 0.16535433070866143
          },
          {
            "duration": 0.125,
            "durationTicks": 96,
            "midi": 67,
            "name": "G4",
            "ticks": 4034,
            "time": 5.252604166666667,
            "velocity": 0.06299212598425197
          },
          {
            "duration": 0,
            "durationTicks": 0,
            "midi": 53,
            "name": "F3",
            "ticks": 4034,
            "time": 5.252604166666667,
            "velocity": 0.08661417322834646
          },
          {
            "duration": 0,
            "durationTicks": 0,
            "midi": 47,
            "name": "B2",
            "ticks": 4052,
            "time": 5.276041666666667,
            "velocity": 0.15748031496062992
          },
          {
            "duration": 0,
            "durationTicks": 0,
            "midi": 46,
            "name": "A#2",
            "ticks": 4069,
            "time": 5.298177083333333,
            "velocity": 0.13385826771653545
          },
          {
            "duration": 0.12630208333333393,
            "durationTicks": 97,
            "midi": 53,
            "name": "F3",
            "ticks": 4069,
            "time": 5.298177083333333,
            "velocity": 0.08661417322834646
          },
          {
            "duration": 0,
            "durationTicks": 0,
            "midi": 50,
            "name": "D3",
            "ticks": 4069,
            "time": 5.298177083333333,
            "velocity": 0.07086614173228346
          },
          {
            "duration": 0,
            "durationTicks": 0,
            "midi": 43,
            "name": "G2",
            "ticks": 4096,
            "time": 5.333333333333333,
            "velocity": 0.13385826771653545
          },
          {
            "duration": 0.12760416666666607,
            "durationTicks": 98,
            "midi": 69,
            "name": "A4",
            "ticks": 4106,
            "time": 5.346354166666667,
            "velocity": 0.1889763779527559
          },
          {
            "duration": 0,
            "durationTicks": 0,
            "midi": 73,
            "name": "C#5",
            "ticks": 4150,
            "time": 5.403645833333333,
            "velocity": 0.10236220472440945
          },
          {
            "duration": 0,
            "durationTicks": 0,
            "midi": 55,
            "name": "G3",
            "ticks": 4159,
            "time": 5.415364583333333,
            "velocity": 0.1732283464566929
          },
          {
            "duration": 0,
            "durationTicks": 0,
            "midi": 77,
            "name": "F5",
            "ticks": 4159,
            "time": 5.415364583333333,
            "velocity": 0.11023622047244094
          },
          {
            "duration": 0,
            "durationTicks": 0,
            "midi": 36,
            "name": "C2",
            "ticks": 4159,
            "time": 5.415364583333333,
            "velocity": 0.11811023622047244
          },
          {
            "duration": 0,
            "durationTicks": 0,
            "midi": 48,
            "name": "C3",
            "ticks": 4159,
            "time": 5.415364583333333,
            "velocity": 0.14960629921259844
          },
          {
            "duration": 0,
            "durationTicks": 0,
            "midi": 76,
            "name": "E5",
            "ticks": 4159,
            "time": 5.415364583333333,
            "velocity": 0.07874015748031496
          },
          {
            "duration": 0,
            "durationTicks": 0,
            "midi": 59,
            "name": "B3",
            "ticks": 4159,
            "time": 5.415364583333333,
            "velocity": 0.18110236220472442
          },
          {
            "duration": 0,
            "durationTicks": 0,
            "midi": 64,
            "name": "E4",
            "ticks": 4169,
            "time": 5.428385416666667,
            "velocity": 0.14173228346456693
          },
          {
            "duration": 0,
            "durationTicks": 0,
            "midi": 43,
            "name": "G2",
            "ticks": 4178,
            "time": 5.440104166666667,
            "velocity": 0.10236220472440945
          },
          {
            "duration": 0.0390625,
            "durationTicks": 30,
            "midi": 57,
            "name": "A3",
            "ticks": 4178,
            "time": 5.440104166666667,
            "velocity": 0.2125984251968504
          },
          {
            "duration": 0,
            "durationTicks": 0,
            "midi": 51,
            "name": "D#3",
            "ticks": 4178,
            "time": 5.440104166666667,
            "velocity": 0.14960629921259844
          },
          {
            "duration": 0.12760416666666607,
            "durationTicks": 98,
            "midi": 70,
            "name": "A#4",
            "ticks": 4187,
            "time": 5.451822916666667,
            "velocity": 0.11811023622047244
          },
          {
            "duration": 0,
            "durationTicks": 0,
            "midi": 71,
            "name": "B4",
            "ticks": 4187,
            "time": 5.451822916666667,
            "velocity": 0.11023622047244094
          },
          {
            "duration": 0.12760416666666696,
            "durationTicks": 98,
            "midi": 65,
            "name": "F4",
            "ticks": 4197,
            "time": 5.46484375,
            "velocity": 0.13385826771653545
          },
          {
            "duration": 0.029947916666666963,
            "durationTicks": 23,
            "midi": 62,
            "name": "D4",
            "ticks": 4197,
            "time": 5.46484375,
            "velocity": 0.15748031496062992
          },
          {
            "duration": 0,
            "durationTicks": 0,
            "midi": 49,
            "name": "C#3",
            "ticks": 4197,
            "time": 5.46484375,
            "velocity": 0.13385826771653545
          },
          {
            "duration": 0,
            "durationTicks": 0,
            "midi": 67,
            "name": "G4",
            "ticks": 4197,
            "time": 5.46484375,
            "velocity": 0.09448818897637795
          },
          {
            "duration": 0,
            "durationTicks": 0,
            "midi": 43,
            "name": "G2",
            "ticks": 4206,
            "time": 5.4765625,
            "velocity": 0.14173228346456693
          },
          {
            "duration": 0,
            "durationTicks": 0,
            "midi": 56,
            "name": "G#3",
            "ticks": 4215,
            "time": 5.48828125,
            "velocity": 0.2047244094488189
          },
          {
            "duration": 0,
            "durationTicks": 0,
            "midi": 50,
            "name": "D3",
            "ticks": 4215,
            "time": 5.48828125,
            "velocity": 0.11023622047244094
          },
          {
            "duration": 0,
            "durationTicks": 0,
            "midi": 46,
            "name": "A#2",
            "ticks": 4233,
            "time": 5.51171875,
            "velocity": 0.2125984251968504
          },
          {
            "duration": 0.12760416666666696,
            "durationTicks": 98,
            "midi": 53,
            "name": "F3",
            "ticks": 4233,
            "time": 5.51171875,
            "velocity": 0.10236220472440945
          },
          {
            "duration": 0,
            "durationTicks": 0,
            "midi": 50,
            "name": "D3",
            "ticks": 4242,
            "time": 5.5234375,
            "velocity": 0.05511811023622047
          },
          {
            "duration": 0,
            "durationTicks": 0,
            "midi": 45,
            "name": "A2",
            "ticks": 4269,
            "time": 5.55859375,
            "velocity": 0.2125984251968504
          },
          {
            "duration": 0,
            "durationTicks": 0,
            "midi": 74,
            "name": "D5",
            "ticks": 4269,
            "time": 5.55859375,
            "velocity": 0.031496062992125984
          },
          {
            "duration": 0,
            "durationTicks": 0,
            "midi": 74,
            "name": "D5",
            "ticks": 4278,
            "time": 5.5703125,
            "velocity": 0.12598425196850394
          },
          {
            "duration": 0.25520833333333304,
            "durationTicks": 196,
            "midi": 75,
            "name": "D#5",
            "ticks": 4278,
            "time": 5.5703125,
            "velocity": 0.11023622047244094
          },
          {
            "duration": 0,
            "durationTicks": 0,
            "midi": 44,
            "name": "G#2",
            "ticks": 4278,
            "time": 5.5703125,
            "velocity": 0.2283464566929134
          },
          {
            "duration": 0,
            "durationTicks": 0,
            "midi": 83,
            "name": "B5",
            "ticks": 4288,
            "time": 5.583333333333333,
            "velocity": 0.03937007874015748
          },
          {
            "duration": 0,
            "durationTicks": 0,
            "midi": 43,
            "name": "G2",
            "ticks": 4288,
            "time": 5.583333333333333,
            "velocity": 0.2440944881889764
          },
          {
            "duration": 0.12760416666666696,
            "durationTicks": 98,
            "midi": 72,
            "name": "C5",
            "ticks": 4297,
            "time": 5.595052083333333,
            "velocity": 0.14173228346456693
          },
          {
            "duration": 0,
            "durationTicks": 0,
            "midi": 73,
            "name": "C#5",
            "ticks": 4315,
            "time": 5.618489583333333,
            "velocity": 0.16535433070866143
          },
          {
            "duration": 0,
            "durationTicks": 0,
            "midi": 42,
            "name": "F#2",
            "ticks": 4324,
            "time": 5.630208333333333,
            "velocity": 0.23622047244094488
          },
          {
            "duration": 0,
            "durationTicks": 0,
            "midi": 55,
            "name": "G3",
            "ticks": 4333,
            "time": 5.641927083333333,
            "velocity": 0.1968503937007874
          },
          {
            "duration": 0,
            "durationTicks": 0,
            "midi": 73,
            "name": "C#5",
            "ticks": 4333,
            "time": 5.641927083333333,
            "velocity": 0.05511811023622047
          },
          {
            "duration": 0,
            "durationTicks": 0,
            "midi": 76,
            "name": "E5",
            "ticks": 4333,
            "time": 5.641927083333333,
            "velocity": 0.09448818897637795
          },
          {
            "duration": 0,
            "durationTicks": 0,
            "midi": 82,
            "name": "A#5",
            "ticks": 4343,
            "time": 5.654947916666667,
            "velocity": 0.08661417322834646
          },
          {
            "duration": 0,
            "durationTicks": 0,
            "midi": 69,
            "name": "A4",
            "ticks": 4343,
            "time": 5.654947916666667,
            "velocity": 0.14173228346456693
          },
          {
            "duration": 0,
            "durationTicks": 0,
            "midi": 64,
            "name": "E4",
            "ticks": 4343,
            "time": 5.654947916666667,
            "velocity": 0.14173228346456693
          },
          {
            "duration": 0.37890625,
            "durationTicks": 291,
            "midi": 43,
            "name": "G2",
            "ticks": 4343,
            "time": 5.654947916666667,
            "velocity": 0.2283464566929134
          },
          {
            "duration": 0,
            "durationTicks": 0,
            "midi": 78,
            "name": "F#5",
            "ticks": 4343,
            "time": 5.654947916666667,
            "velocity": 0.07086614173228346
          },
          {
            "duration": 0.13932291666666607,
            "durationTicks": 107,
            "midi": 74,
            "name": "D5",
            "ticks": 4343,
            "time": 5.654947916666667,
            "velocity": 0.07874015748031496
          },
          {
            "duration": 0,
            "durationTicks": 0,
            "midi": 61,
            "name": "C#4",
            "ticks": 4352,
            "time": 5.666666666666667,
            "velocity": 0.13385826771653545
          },
          {
            "duration": 0.24348958333333304,
            "durationTicks": 187,
            "midi": 74,
            "name": "D5",
            "ticks": 4352,
            "time": 5.666666666666667,
            "velocity": 0.1732283464566929
          },
          {
            "duration": 0,
            "durationTicks": 0,
            "midi": 71,
            "name": "B4",
            "ticks": 4352,
            "time": 5.666666666666667,
            "velocity": 0.09448818897637795
          },
          {
            "duration": 0,
            "durationTicks": 0,
            "midi": 51,
            "name": "D#3",
            "ticks": 4352,
            "time": 5.666666666666667,
            "velocity": 0.14173228346456693
          },
          {
            "duration": 0,
            "durationTicks": 0,
            "midi": 77,
            "name": "F5",
            "ticks": 4352,
            "time": 5.666666666666667,
            "velocity": 0.10236220472440945
          },
          {
            "duration": 0,
            "durationTicks": 0,
            "midi": 57,
            "name": "A3",
            "ticks": 4361,
            "time": 5.678385416666667,
            "velocity": 0.14173228346456693
          },
          {
            "duration": 0,
            "durationTicks": 0,
            "midi": 65,
            "name": "F4",
            "ticks": 4361,
            "time": 5.678385416666667,
            "velocity": 0.14173228346456693
          },
          {
            "duration": 0,
            "durationTicks": 0,
            "midi": 68,
            "name": "G#4",
            "ticks": 4361,
            "time": 5.678385416666667,
            "velocity": 0.10236220472440945
          },
          {
            "duration": 0.12760416666666607,
            "durationTicks": 98,
            "midi": 83,
            "name": "B5",
            "ticks": 4361,
            "time": 5.678385416666667,
            "velocity": 0.13385826771653545
          },
          {
            "duration": 0,
            "durationTicks": 0,
            "midi": 70,
            "name": "A#4",
            "ticks": 4361,
            "time": 5.678385416666667,
            "velocity": 0.12598425196850394
          },
          {
            "duration": 0.25390625,
            "durationTicks": 195,
            "midi": 62,
            "name": "D4",
            "ticks": 4370,
            "time": 5.690104166666667,
            "velocity": 0.13385826771653545
          },
          {
            "duration": 0,
            "durationTicks": 0,
            "midi": 73,
            "name": "C#5",
            "ticks": 4397,
            "time": 5.725260416666667,
            "velocity": 0.15748031496062992
          },
          {
            "duration": 0,
            "durationTicks": 0,
            "midi": 77,
            "name": "F5",
            "ticks": 4407,
            "time": 5.73828125,
            "velocity": 0.05511811023622047
          },
          {
            "duration": 0,
            "durationTicks": 0,
            "midi": 78,
            "name": "F#5",
            "ticks": 4416,
            "time": 5.75,
            "velocity": 0.06299212598425197
          },
          {
            "duration": 0,
            "durationTicks": 0,
            "midi": 79,
            "name": "G5",
            "ticks": 4416,
            "time": 5.75,
            "velocity": 0.07086614173228346
          },
          {
            "duration": 0.12630208333333304,
            "durationTicks": 97,
            "midi": 72,
            "name": "C5",
            "ticks": 4425,
            "time": 5.76171875,
            "velocity": 0.12598425196850394
          },
          {
            "duration": 0,
            "durationTicks": 0,
            "midi": 50,
            "name": "D3",
            "ticks": 4435,
            "time": 5.774739583333333,
            "velocity": 0.047244094488188976
          },
          {
            "duration": 0.25,
            "durationTicks": 192,
            "midi": 74,
            "name": "D5",
            "ticks": 4461,
            "time": 5.80859375,
            "velocity": 0.11811023622047244
          },
          {
            "duration": 0,
            "durationTicks": 0,
            "midi": 75,
            "name": "D#5",
            "ticks": 4506,
            "time": 5.8671875,
            "velocity": 0.11023622047244094
          },
          {
            "duration": 0.12630208333333304,
            "durationTicks": 97,
            "midi": 69,
            "name": "A4",
            "ticks": 4506,
            "time": 5.8671875,
            "velocity": 0.15748031496062992
          },
          {
            "duration": 0.12630208333333304,
            "durationTicks": 97,
            "midi": 83,
            "name": "B5",
            "ticks": 4506,
            "time": 5.8671875,
            "velocity": 0.07086614173228346
          },
          {
            "duration": 0,
            "durationTicks": 0,
            "midi": 73,
            "name": "C#5",
            "ticks": 4506,
            "time": 5.8671875,
            "velocity": 0.09448818897637795
          },
          {
            "duration": 0,
            "durationTicks": 0,
            "midi": 76,
            "name": "E5",
            "ticks": 4515,
            "time": 5.87890625,
            "velocity": 0.07086614173228346
          },
          {
            "duration": 0,
            "durationTicks": 0,
            "midi": 65,
            "name": "F4",
            "ticks": 4515,
            "time": 5.87890625,
            "velocity": 0.11023622047244094
          },
          {
            "duration": 0.125,
            "durationTicks": 96,
            "midi": 73,
            "name": "C#5",
            "ticks": 4525,
            "time": 5.891927083333333,
            "velocity": 0.16535433070866143
          },
          {
            "duration": 0,
            "durationTicks": 0,
            "midi": 61,
            "name": "C#4",
            "ticks": 4525,
            "time": 5.891927083333333,
            "velocity": 0.13385826771653545
          },
          {
            "duration": 0,
            "durationTicks": 0,
            "midi": 72,
            "name": "C5",
            "ticks": 4525,
            "time": 5.891927083333333,
            "velocity": 0.09448818897637795
          },
          {
            "duration": 0,
            "durationTicks": 0,
            "midi": 64,
            "name": "E4",
            "ticks": 4534,
            "time": 5.903645833333333,
            "velocity": 0.10236220472440945
          },
          {
            "duration": 0,
            "durationTicks": 0,
            "midi": 78,
            "name": "F#5",
            "ticks": 4543,
            "time": 5.915364583333333,
            "velocity": 0.031496062992125984
          },
          {
            "duration": 0.12369791666666696,
            "durationTicks": 95,
            "midi": 75,
            "name": "D#5",
            "ticks": 4543,
            "time": 5.915364583333333,
            "velocity": 0.09448818897637795
          },
          {
            "duration": 0,
            "durationTicks": 0,
            "midi": 71,
            "name": "B4",
            "ticks": 4543,
            "time": 5.915364583333333,
            "velocity": 0.05511811023622047
          },
          {
            "duration": 0.24869791666666696,
            "durationTicks": 191,
            "midi": 62,
            "name": "D4",
            "ticks": 4543,
            "time": 5.915364583333333,
            "velocity": 0.13385826771653545
          },
          {
            "duration": 0,
            "durationTicks": 0,
            "midi": 79,
            "name": "G5",
            "ticks": 4561,
            "time": 5.938802083333333,
            "velocity": 0.06299212598425197
          },
          {
            "duration": 0.12369791666666696,
            "durationTicks": 95,
            "midi": 72,
            "name": "C5",
            "ticks": 4578,
            "time": 5.9609375,
            "velocity": 0.1732283464566929
          },
          {
            "duration": 0,
            "durationTicks": 0,
            "midi": 44,
            "name": "G#2",
            "ticks": 4640,
            "time": 6.041666666666667,
            "velocity": 0.2125984251968504
          },
          {
            "duration": 0,
            "durationTicks": 0,
            "midi": 45,
            "name": "A2",
            "ticks": 4666,
            "time": 6.075520833333333,
            "velocity": 0.2125984251968504
          },
          {
            "duration": 0,
            "durationTicks": 0,
            "midi": 69,
            "name": "A4",
            "ticks": 4685,
            "time": 6.100260416666667,
            "velocity": 0.08661417322834646
          },
          {
            "duration": 0.12630208333333304,
            "durationTicks": 97,
            "midi": 46,
            "name": "A#2",
            "ticks": 4685,
            "time": 6.100260416666667,
            "velocity": 0.2440944881889764
          },
          {
            "duration": 0,
            "durationTicks": 0,
            "midi": 61,
            "name": "C#4",
            "ticks": 4694,
            "time": 6.111979166666667,
            "velocity": 0.07086614173228346
          },
          {
            "duration": 0,
            "durationTicks": 0,
            "midi": 65,
            "name": "F4",
            "ticks": 4694,
            "time": 6.111979166666667,
            "velocity": 0.05511811023622047
          },
          {
            "duration": 0,
            "durationTicks": 0,
            "midi": 74,
            "name": "D5",
            "ticks": 4739,
            "time": 6.170572916666667,
            "velocity": 0.07086614173228346
          },
          {
            "duration": 0,
            "durationTicks": 0,
            "midi": 76,
            "name": "E5",
            "ticks": 4748,
            "time": 6.182291666666667,
            "velocity": 0.047244094488188976
          },
          {
            "duration": 0,
            "durationTicks": 0,
            "midi": 45,
            "name": "A2",
            "ticks": 4794,
            "time": 6.2421875,
            "velocity": 0.2283464566929134
          },
          {
            "duration": 0,
            "durationTicks": 0,
            "midi": 44,
            "name": "G#2",
            "ticks": 4803,
            "time": 6.25390625,
            "velocity": 0.1968503937007874
          },
          {
            "duration": 0,
            "durationTicks": 0,
            "midi": 41,
            "name": "F2",
            "ticks": 4821,
            "time": 6.27734375,
            "velocity": 0.2283464566929134
          },
          {
            "duration": 0,
            "durationTicks": 0,
            "midi": 81,
            "name": "A5",
            "ticks": 4838,
            "time": 6.299479166666667,
            "velocity": 0.12598425196850394
          },
          {
            "duration": 0.12760416666666607,
            "durationTicks": 98,
            "midi": 75,
            "name": "D#5",
            "ticks": 4838,
            "time": 6.299479166666667,
            "velocity": 0.12598425196850394
          },
          {
            "duration": 0,
            "durationTicks": 0,
            "midi": 83,
            "name": "B5",
            "ticks": 4838,
            "time": 6.299479166666667,
            "velocity": 0.11811023622047244
          },
          {
            "duration": 0,
            "durationTicks": 0,
            "midi": 54,
            "name": "F#3",
            "ticks": 4838,
            "time": 6.299479166666667,
            "velocity": 0.2047244094488189
          },
          {
            "duration": 0,
            "durationTicks": 0,
            "midi": 74,
            "name": "D5",
            "ticks": 4847,
            "time": 6.311197916666667,
            "velocity": 0.10236220472440945
          },
          {
            "duration": 0,
            "durationTicks": 0,
            "midi": 70,
            "name": "A#4",
            "ticks": 4847,
            "time": 6.311197916666667,
            "velocity": 0.08661417322834646
          },
          {
            "duration": 0,
            "durationTicks": 0,
            "midi": 73,
            "name": "C#5",
            "ticks": 4847,
            "time": 6.311197916666667,
            "velocity": 0.11811023622047244
          },
          {
            "duration": 0,
            "durationTicks": 0,
            "midi": 61,
            "name": "C#4",
            "ticks": 4847,
            "time": 6.311197916666667,
            "velocity": 0.1732283464566929
          },
          {
            "duration": 0,
            "durationTicks": 0,
            "midi": 80,
            "name": "G#5",
            "ticks": 4847,
            "time": 6.311197916666667,
            "velocity": 0.12598425196850394
          },
          {
            "duration": 0,
            "durationTicks": 0,
            "midi": 78,
            "name": "F#5",
            "ticks": 4857,
            "time": 6.32421875,
            "velocity": 0.12598425196850394
          },
          {
            "duration": 0,
            "durationTicks": 0,
            "midi": 42,
            "name": "F#2",
            "ticks": 4857,
            "time": 6.32421875,
            "velocity": 0.1968503937007874
          },
          {
            "duration": 0,
            "durationTicks": 0,
            "midi": 82,
            "name": "A#5",
            "ticks": 4857,
            "time": 6.32421875,
            "velocity": 0.14173228346456693
          },
          {
            "duration": 0.12630208333333304,
            "durationTicks": 97,
            "midi": 62,
            "name": "D4",
            "ticks": 4866,
            "time": 6.3359375,
            "velocity": 0.2440944881889764
          },
          {
            "duration": 0,
            "durationTicks": 0,
            "midi": 76,
            "name": "E5",
            "ticks": 4866,
            "time": 6.3359375,
            "velocity": 0.12598425196850394
          },
          {
            "duration": 0,
            "durationTicks": 0,
            "midi": 72,
            "name": "C5",
            "ticks": 4866,
            "time": 6.3359375,
            "velocity": 0.05511811023622047
          },
          {
            "duration": 0.12630208333333304,
            "durationTicks": 97,
            "midi": 71,
            "name": "B4",
            "ticks": 4884,
            "time": 6.359375,
            "velocity": 0.11023622047244094
          },
          {
            "duration": 0.12630208333333304,
            "durationTicks": 97,
            "midi": 43,
            "name": "G2",
            "ticks": 4884,
            "time": 6.359375,
            "velocity": 0.1968503937007874
          },
          {
            "duration": 0.12630208333333304,
            "durationTicks": 97,
            "midi": 77,
            "name": "F5",
            "ticks": 4893,
            "time": 6.37109375,
            "velocity": 0.11023622047244094
          },
          {
            "duration": 0,
            "durationTicks": 0,
            "midi": 78,
            "name": "F#5",
            "ticks": 4902,
            "time": 6.3828125,
            "velocity": 0.023622047244094488
          },
          {
            "duration": 0,
            "durationTicks": 0,
            "midi": 44,
            "name": "G#2",
            "ticks": 5002,
            "time": 6.513020833333333,
            "velocity": 0.2047244094488189
          },
          {
            "duration": 0,
            "durationTicks": 0,
            "midi": 68,
            "name": "G#4",
            "ticks": 5002,
            "time": 6.513020833333333,
            "velocity": 0.05511811023622047
          },
          {
            "duration": 0,
            "durationTicks": 0,
            "midi": 45,
            "name": "A2",
            "ticks": 5028,
            "time": 6.546875,
            "velocity": 0.2047244094488189
          },
          {
            "duration": 0.125,
            "durationTicks": 96,
            "midi": 65,
            "name": "F4",
            "ticks": 5046,
            "time": 6.5703125,
            "velocity": 0.06299212598425197
          },
          {
            "duration": 0.125,
            "durationTicks": 96,
            "midi": 46,
            "name": "A#2",
            "ticks": 5046,
            "time": 6.5703125,
            "velocity": 0.2125984251968504
          },
          {
            "duration": 0,
            "durationTicks": 0,
            "midi": 45,
            "name": "A2",
            "ticks": 5118,
            "time": 6.6640625,
            "velocity": 0.2047244094488189
          },
          {
            "duration": 0,
            "durationTicks": 0,
            "midi": 46,
            "name": "A#2",
            "ticks": 5144,
            "time": 6.697916666666667,
            "velocity": 0.2047244094488189
          },
          {
            "duration": 0,
            "durationTicks": 0,
            "midi": 73,
            "name": "C#5",
            "ticks": 5154,
            "time": 6.7109375,
            "velocity": 0.06299212598425197
          },
          {
            "duration": 0,
            "durationTicks": 0,
            "midi": 59,
            "name": "B3",
            "ticks": 5154,
            "time": 6.7109375,
            "velocity": 0.14173228346456693
          },
          {
            "duration": 0,
            "durationTicks": 0,
            "midi": 47,
            "name": "B2",
            "ticks": 5163,
            "time": 6.72265625,
            "velocity": 0.1889763779527559
          },
          {
            "duration": 0.25520833333333304,
            "durationTicks": 196,
            "midi": 77,
            "name": "F5",
            "ticks": 5172,
            "time": 6.734375,
            "velocity": 0.2283464566929134
          },
          {
            "duration": 0.12760416666666696,
            "durationTicks": 98,
            "midi": 82,
            "name": "A#5",
            "ticks": 5172,
            "time": 6.734375,
            "velocity": 0.05511811023622047
          },
          {
            "duration": 0,
            "durationTicks": 0,
            "midi": 76,
            "name": "E5",
            "ticks": 5172,
            "time": 6.734375,
            "velocity": 0.047244094488188976
          },
          {
            "duration": 0,
            "durationTicks": 0,
            "midi": 83,
            "name": "B5",
            "ticks": 5172,
            "time": 6.734375,
            "velocity": 0.07086614173228346
          },
          {
            "duration": 0,
            "durationTicks": 0,
            "midi": 81,
            "name": "A5",
            "ticks": 5172,
            "time": 6.734375,
            "velocity": 0.06299212598425197
          },
          {
            "duration": 0.23697916666666696,
            "durationTicks": 182,
            "midi": 67,
            "name": "G4",
            "ticks": 5182,
            "time": 6.747395833333333,
            "velocity": 0.1968503937007874
          },
          {
            "duration": 0.12760416666666696,
            "durationTicks": 98,
            "midi": 80,
            "name": "G#5",
            "ticks": 5182,
            "time": 6.747395833333333,
            "velocity": 0.10236220472440945
          },
          {
            "duration": 0.12760416666666696,
            "durationTicks": 98,
            "midi": 78,
            "name": "F#5",
            "ticks": 5182,
            "time": 6.747395833333333,
            "velocity": 0.13385826771653545
          },
          {
            "duration": 0,
            "durationTicks": 0,
            "midi": 71,
            "name": "B4",
            "ticks": 5182,
            "time": 6.747395833333333,
            "velocity": 0.12598425196850394
          },
          {
            "duration": 0,
            "durationTicks": 0,
            "midi": 58,
            "name": "A#3",
            "ticks": 5182,
            "time": 6.747395833333333,
            "velocity": 0.15748031496062992
          },
          {
            "duration": 0.2552083333333339,
            "durationTicks": 196,
            "midi": 74,
            "name": "D5",
            "ticks": 5182,
            "time": 6.747395833333333,
            "velocity": 0.2125984251968504
          },
          {
            "duration": 0,
            "durationTicks": 0,
            "midi": 55,
            "name": "G3",
            "ticks": 5182,
            "time": 6.747395833333333,
            "velocity": 0.11023622047244094
          },
          {
            "duration": 0,
            "durationTicks": 0,
            "midi": 73,
            "name": "C#5",
            "ticks": 5182,
            "time": 6.747395833333333,
            "velocity": 0.13385826771653545
          },
          {
            "duration": 0.3802083333333339,
            "durationTicks": 292,
            "midi": 70,
            "name": "A#4",
            "ticks": 5191,
            "time": 6.759114583333333,
            "velocity": 0.18110236220472442
          },
          {
            "duration": 0,
            "durationTicks": 0,
            "midi": 32,
            "name": "G#1",
            "ticks": 5191,
            "time": 6.759114583333333,
            "velocity": 0.14960629921259844
          },
          {
            "duration": 0,
            "durationTicks": 0,
            "midi": 64,
            "name": "E4",
            "ticks": 5200,
            "time": 6.770833333333333,
            "velocity": 0.06299212598425197
          },
          {
            "duration": 0,
            "durationTicks": 0,
            "midi": 43,
            "name": "G2",
            "ticks": 5200,
            "time": 6.770833333333333,
            "velocity": 0.1732283464566929
          },
          {
            "duration": 0.38020833333333304,
            "durationTicks": 292,
            "midi": 58,
            "name": "A#3",
            "ticks": 5210,
            "time": 6.783854166666667,
            "velocity": 0.12598425196850394
          },
          {
            "duration": 0.12630208333333304,
            "durationTicks": 97,
            "midi": 55,
            "name": "G3",
            "ticks": 5210,
            "time": 6.783854166666667,
            "velocity": 0.1732283464566929
          },
          {
            "duration": 0.12630208333333304,
            "durationTicks": 97,
            "midi": 31,
            "name": "G1",
            "ticks": 5210,
            "time": 6.783854166666667,
            "velocity": 0.12598425196850394
          },
          {
            "duration": 0,
            "durationTicks": 0,
            "midi": 42,
            "name": "F#2",
            "ticks": 5219,
            "time": 6.795572916666667,
            "velocity": 0.1968503937007874
          },
          {
            "duration": 0,
            "durationTicks": 0,
            "midi": 76,
            "name": "E5",
            "ticks": 5219,
            "time": 6.795572916666667,
            "velocity": 0.11023622047244094
          },
          {
            "duration": 0.12630208333333304,
            "durationTicks": 97,
            "midi": 62,
            "name": "D4",
            "ticks": 5228,
            "time": 6.807291666666667,
            "velocity": 0.13385826771653545
          },
          {
            "duration": 0.09375,
            "durationTicks": 72,
            "midi": 43,
            "name": "G2",
            "ticks": 5246,
            "time": 6.830729166666667,
            "velocity": 0.2283464566929134
          },
          {
            "duration": 0,
            "durationTicks": 0,
            "midi": 71,
            "name": "B4",
            "ticks": 5246,
            "time": 6.830729166666667,
            "velocity": 0.07086614173228346
          },
          {
            "duration": 0.03255208333333304,
            "durationTicks": 25,
            "midi": 43,
            "name": "G2",
            "ticks": 5318,
            "time": 6.924479166666667,
            "velocity": 0.06299212598425197
          },
          {
            "duration": 0,
            "durationTicks": 0,
            "midi": 78,
            "name": "F#5",
            "ticks": 5354,
            "time": 6.971354166666667,
            "velocity": 0.07874015748031496
          },
          {
            "duration": 0,
            "durationTicks": 0,
            "midi": 71,
            "name": "B4",
            "ticks": 5354,
            "time": 6.971354166666667,
            "velocity": 0.11023622047244094
          },
          {
            "duration": 0,
            "durationTicks": 0,
            "midi": 73,
            "name": "C#5",
            "ticks": 5354,
            "time": 6.971354166666667,
            "velocity": 0.11811023622047244
          },
          {
            "duration": 0,
            "durationTicks": 0,
            "midi": 80,
            "name": "G#5",
            "ticks": 5354,
            "time": 6.971354166666667,
            "velocity": 0.031496062992125984
          },
          {
            "duration": 0,
            "durationTicks": 0,
            "midi": 62,
            "name": "D4",
            "ticks": 5364,
            "time": 6.984375,
            "velocity": 0.05511811023622047
          },
          {
            "duration": 0.018229166666666963,
            "durationTicks": 14,
            "midi": 67,
            "name": "G4",
            "ticks": 5364,
            "time": 6.984375,
            "velocity": 0.1732283464566929
          },
          {
            "duration": 0.12630208333333304,
            "durationTicks": 97,
            "midi": 55,
            "name": "G3",
            "ticks": 5400,
            "time": 7.03125,
            "velocity": 0.031496062992125984
          },
          {
            "duration": 0.12760416666666696,
            "durationTicks": 98,
            "midi": 67,
            "name": "G4",
            "ticks": 5427,
            "time": 7.06640625,
            "velocity": 0.05511811023622047
          },
          {
            "duration": 0,
            "durationTicks": 0,
            "midi": 74,
            "name": "D5",
            "ticks": 5490,
            "time": 7.1484375,
            "velocity": 0.07086614173228346
          },
          {
            "duration": 0.13020833333333304,
            "durationTicks": 100,
            "midi": 75,
            "name": "D#5",
            "ticks": 5490,
            "time": 7.1484375,
            "velocity": 0.10236220472440945
          },
          {
            "duration": 0.13020833333333304,
            "durationTicks": 100,
            "midi": 73,
            "name": "C#5",
            "ticks": 5499,
            "time": 7.16015625,
            "velocity": 0.11023622047244094
          },
          {
            "duration": 0.06119791666666696,
            "durationTicks": 47,
            "midi": 72,
            "name": "C5",
            "ticks": 5499,
            "time": 7.16015625,
            "velocity": 0.08661417322834646
          },
          {
            "duration": 0,
            "durationTicks": 0,
            "midi": 76,
            "name": "E5",
            "ticks": 5499,
            "time": 7.16015625,
            "velocity": 0.08661417322834646
          },
          {
            "duration": 0,
            "durationTicks": 0,
            "midi": 77,
            "name": "F5",
            "ticks": 5499,
            "time": 7.16015625,
            "velocity": 0.15748031496062992
          },
          {
            "duration": 0.13020833333333304,
            "durationTicks": 100,
            "midi": 81,
            "name": "A5",
            "ticks": 5499,
            "time": 7.16015625,
            "velocity": 0.14960629921259844
          },
          {
            "duration": 0,
            "durationTicks": 0,
            "midi": 38,
            "name": "D2",
            "ticks": 5499,
            "time": 7.16015625,
            "velocity": 0.1732283464566929
          },
          {
            "duration": 0.13020833333333393,
            "durationTicks": 100,
            "midi": 82,
            "name": "A#5",
            "ticks": 5509,
            "time": 7.173177083333333,
            "velocity": 0.11023622047244094
          },
          {
            "duration": 0,
            "durationTicks": 0,
            "midi": 83,
            "name": "B5",
            "ticks": 5509,
            "time": 7.173177083333333,
            "velocity": 0.05511811023622047
          },
          {
            "duration": 0.13020833333333393,
            "durationTicks": 100,
            "midi": 80,
            "name": "G#5",
            "ticks": 5509,
            "time": 7.173177083333333,
            "velocity": 0.08661417322834646
          },
          {
            "duration": 0.13020833333333393,
            "durationTicks": 100,
            "midi": 70,
            "name": "A#4",
            "ticks": 5518,
            "time": 7.184895833333333,
            "velocity": 0.14173228346456693
          },
          {
            "duration": 0.13020833333333393,
            "durationTicks": 100,
            "midi": 78,
            "name": "F#5",
            "ticks": 5518,
            "time": 7.184895833333333,
            "velocity": 0.07086614173228346
          },
          {
            "duration": 0,
            "durationTicks": 0,
            "midi": 53,
            "name": "F3",
            "ticks": 5527,
            "time": 7.196614583333333,
            "velocity": 0.2125984251968504
          },
          {
            "duration": 0,
            "durationTicks": 0,
            "midi": 71,
            "name": "B4",
            "ticks": 5527,
            "time": 7.196614583333333,
            "velocity": 0.08661417322834646
          },
          {
            "duration": 0,
            "durationTicks": 0,
            "midi": 40,
            "name": "E2",
            "ticks": 5527,
            "time": 7.196614583333333,
            "velocity": 0.1732283464566929
          },
          {
            "duration": 0,
            "durationTicks": 0,
            "midi": 67,
            "name": "G4",
            "ticks": 5536,
            "time": 7.208333333333333,
            "velocity": 0.14173228346456693
          },
          {
            "duration": 0,
            "durationTicks": 0,
            "midi": 54,
            "name": "F#3",
            "ticks": 5536,
            "time": 7.208333333333333,
            "velocity": 0.2125984251968504
          },
          {
            "duration": 0.13020833333333393,
            "durationTicks": 100,
            "midi": 74,
            "name": "D5",
            "ticks": 5536,
            "time": 7.208333333333333,
            "velocity": 0.14960629921259844
          },
          {
            "duration": 0.06901041666666607,
            "durationTicks": 53,
            "midi": 72,
            "name": "C5",
            "ticks": 5546,
            "time": 7.221354166666667,
            "velocity": 0.06299212598425197
          },
          {
            "duration": 0.12109375,
            "durationTicks": 93,
            "midi": 65,
            "name": "F4",
            "ticks": 5546,
            "time": 7.221354166666667,
            "velocity": 0.12598425196850394
          },
          {
            "duration": 0.13020833333333304,
            "durationTicks": 100,
            "midi": 56,
            "name": "G#3",
            "ticks": 5546,
            "time": 7.221354166666667,
            "velocity": 0.2204724409448819
          },
          {
            "duration": 0.13020833333333304,
            "durationTicks": 100,
            "midi": 69,
            "name": "A4",
            "ticks": 5555,
            "time": 7.233072916666667,
            "velocity": 0.14173228346456693
          },
          {
            "duration": 0,
            "durationTicks": 0,
            "midi": 46,
            "name": "A#2",
            "ticks": 5555,
            "time": 7.233072916666667,
            "velocity": 0.11023622047244094
          },
          {
            "duration": 0.109375,
            "durationTicks": 84,
            "midi": 58,
            "name": "A#3",
            "ticks": 5564,
            "time": 7.244791666666667,
            "velocity": 0.18110236220472442
          },
          {
            "duration": 0.13020833333333304,
            "durationTicks": 100,
            "midi": 50,
            "name": "D3",
            "ticks": 5564,
            "time": 7.244791666666667,
            "velocity": 0.14960629921259844
          },
          {
            "duration": 0,
            "durationTicks": 0,
            "midi": 76,
            "name": "E5",
            "ticks": 5564,
            "time": 7.244791666666667,
            "velocity": 0.05511811023622047
          },
          {
            "duration": 0,
            "durationTicks": 0,
            "midi": 67,
            "name": "G4",
            "ticks": 5564,
            "time": 7.244791666666667,
            "velocity": 0.14960629921259844
          },
          {
            "duration": 0,
            "durationTicks": 0,
            "midi": 76,
            "name": "E5",
            "ticks": 5574,
            "time": 7.2578125,
            "velocity": 0.06299212598425197
          },
          {
            "duration": 0.13020833333333304,
            "durationTicks": 100,
            "midi": 62,
            "name": "D4",
            "ticks": 5583,
            "time": 7.26953125,
            "velocity": 0.2283464566929134
          },
          {
            "duration": 0,
            "durationTicks": 0,
            "midi": 77,
            "name": "F5",
            "ticks": 5611,
            "time": 7.305989583333333,
            "velocity": 0.14960629921259844
          },
          {
            "duration": 0.13020833333333393,
            "durationTicks": 100,
            "midi": 78,
            "name": "F#5",
            "ticks": 5629,
            "time": 7.329427083333333,
            "velocity": 0.11811023622047244
          },
          {
            "duration": 0.13020833333333393,
            "durationTicks": 100,
            "midi": 75,
            "name": "D#5",
            "ticks": 5629,
            "time": 7.329427083333333,
            "velocity": 0.08661417322834646
          },
          {
            "duration": 0.009114583333333037,
            "durationTicks": 7,
            "midi": 65,
            "name": "F4",
            "ticks": 5639,
            "time": 7.342447916666667,
            "velocity": 0.1889763779527559
          },
          {
            "duration": 0.13020833333333304,
            "durationTicks": 100,
            "midi": 79,
            "name": "G5",
            "ticks": 5639,
            "time": 7.342447916666667,
            "velocity": 0.03937007874015748
          },
          {
            "duration": 0.020833333333333037,
            "durationTicks": 16,
            "midi": 58,
            "name": "A#3",
            "ticks": 5648,
            "time": 7.354166666666667,
            "velocity": 0.09448818897637795
          },
          {
            "duration": 0,
            "durationTicks": 0,
            "midi": 68,
            "name": "G#4",
            "ticks": 5648,
            "time": 7.354166666666667,
            "velocity": 0.1889763779527559
          },
          {
            "duration": 0,
            "durationTicks": 0,
            "midi": 72,
            "name": "C5",
            "ticks": 5648,
            "time": 7.354166666666667,
            "velocity": 0.07874015748031496
          },
          {
            "duration": 0.12890625,
            "durationTicks": 99,
            "midi": 76,
            "name": "E5",
            "ticks": 5657,
            "time": 7.365885416666667,
            "velocity": 0.14960629921259844
          },
          {
            "duration": 0,
            "durationTicks": 0,
            "midi": 63,
            "name": "D#4",
            "ticks": 5657,
            "time": 7.365885416666667,
            "velocity": 0.12598425196850394
          },
          {
            "duration": 0.12890625,
            "durationTicks": 99,
            "midi": 79,
            "name": "G5",
            "ticks": 5667,
            "time": 7.37890625,
            "velocity": 0.13385826771653545
          },
          {
            "duration": 0.12890625,
            "durationTicks": 99,
            "midi": 81,
            "name": "A5",
            "ticks": 5676,
            "time": 7.390625,
            "velocity": 0.13385826771653545
          },
          {
            "duration": 0,
            "durationTicks": 0,
            "midi": 57,
            "name": "A3",
            "ticks": 5676,
            "time": 7.390625,
            "velocity": 0.11023622047244094
          },
          {
            "duration": 0,
            "durationTicks": 0,
            "midi": 60,
            "name": "C4",
            "ticks": 5676,
            "time": 7.390625,
            "velocity": 0.11023622047244094
          },
          {
            "duration": 0,
            "durationTicks": 0,
            "midi": 77,
            "name": "F5",
            "ticks": 5676,
            "time": 7.390625,
            "velocity": 0.047244094488188976
          },
          {
            "duration": 0,
            "durationTicks": 0,
            "midi": 74,
            "name": "D5",
            "ticks": 5685,
            "time": 7.40234375,
            "velocity": 0.11023622047244094
          },
          {
            "duration": 0,
            "durationTicks": 0,
            "midi": 82,
            "name": "A#5",
            "ticks": 5685,
            "time": 7.40234375,
            "velocity": 0.03937007874015748
          },
          {
            "duration": 0.12890625,
            "durationTicks": 99,
            "midi": 77,
            "name": "F5",
            "ticks": 5685,
            "time": 7.40234375,
            "velocity": 0.1732283464566929
          },
          {
            "duration": 0,
            "durationTicks": 0,
            "midi": 71,
            "name": "B4",
            "ticks": 5685,
            "time": 7.40234375,
            "velocity": 0.10236220472440945
          },
          {
            "duration": 0.12890625,
            "durationTicks": 99,
            "midi": 69,
            "name": "A4",
            "ticks": 5685,
            "time": 7.40234375,
            "velocity": 0.15748031496062992
          },
          {
            "duration": 0,
            "durationTicks": 0,
            "midi": 66,
            "name": "F#4",
            "ticks": 5695,
            "time": 7.415364583333333,
            "velocity": 0.11811023622047244
          },
          {
            "duration": 0,
            "durationTicks": 0,
            "midi": 72,
            "name": "C5",
            "ticks": 5695,
            "time": 7.415364583333333,
            "velocity": 0.11811023622047244
          },
          {
            "duration": 0,
            "durationTicks": 0,
            "midi": 61,
            "name": "C#4",
            "ticks": 5695,
            "time": 7.415364583333333,
            "velocity": 0.12598425196850394
          },
          {
            "duration": 0,
            "durationTicks": 0,
            "midi": 64,
            "name": "E4",
            "ticks": 5695,
            "time": 7.415364583333333,
            "velocity": 0.08661417322834646
          },
          {
            "duration": 0,
            "durationTicks": 0,
            "midi": 49,
            "name": "C#3",
            "ticks": 5695,
            "time": 7.415364583333333,
            "velocity": 0.09448818897637795
          },
          {
            "duration": 0.12760416666666696,
            "durationTicks": 98,
            "midi": 78,
            "name": "F#5",
            "ticks": 5704,
            "time": 7.427083333333333,
            "velocity": 0.14173228346456693
          },
          {
            "duration": 0,
            "durationTicks": 0,
            "midi": 73,
            "name": "C#5",
            "ticks": 5704,
            "time": 7.427083333333333,
            "velocity": 0.14173228346456693
          },
          {
            "duration": 0,
            "durationTicks": 0,
            "midi": 55,
            "name": "G3",
            "ticks": 5704,
            "time": 7.427083333333333,
            "velocity": 0.047244094488188976
          },
          {
            "duration": 0.12760416666666696,
            "durationTicks": 98,
            "midi": 62,
            "name": "D4",
            "ticks": 5713,
            "time": 7.438802083333333,
            "velocity": 0.23622047244094488
          },
          {
            "duration": 0,
            "durationTicks": 0,
            "midi": 70,
            "name": "A#4",
            "ticks": 5713,
            "time": 7.438802083333333,
            "velocity": 0.11023622047244094
          },
          {
            "duration": 0,
            "durationTicks": 0,
            "midi": 46,
            "name": "A#2",
            "ticks": 5713,
            "time": 7.438802083333333,
            "velocity": 0.03937007874015748
          },
          {
            "duration": 0,
            "durationTicks": 0,
            "midi": 42,
            "name": "F#2",
            "ticks": 5713,
            "time": 7.438802083333333,
            "velocity": 0.09448818897637795
          },
          {
            "duration": 0,
            "durationTicks": 0,
            "midi": 67,
            "name": "G4",
            "ticks": 5713,
            "time": 7.438802083333333,
            "velocity": 0.14960629921259844
          },
          {
            "duration": 0,
            "durationTicks": 0,
            "midi": 51,
            "name": "D#3",
            "ticks": 5722,
            "time": 7.450520833333333,
            "velocity": 0.11023622047244094
          },
          {
            "duration": 0.12760416666666607,
            "durationTicks": 98,
            "midi": 72,
            "name": "C5",
            "ticks": 5732,
            "time": 7.463541666666667,
            "velocity": 0.1889763779527559
          },
          {
            "duration": 0,
            "durationTicks": 0,
            "midi": 65,
            "name": "F4",
            "ticks": 5732,
            "time": 7.463541666666667,
            "velocity": 0.07086614173228346
          },
          {
            "duration": 0.12760416666666607,
            "durationTicks": 98,
            "midi": 76,
            "name": "E5",
            "ticks": 5741,
            "time": 7.475260416666667,
            "velocity": 0.10236220472440945
          },
          {
            "duration": 0.12760416666666607,
            "durationTicks": 98,
            "midi": 50,
            "name": "D3",
            "ticks": 5741,
            "time": 7.475260416666667,
            "velocity": 0.18110236220472442
          },
          {
            "duration": 0.12109375,
            "durationTicks": 93,
            "midi": 75,
            "name": "D#5",
            "ticks": 5813,
            "time": 7.569010416666667,
            "velocity": 0.13385826771653545
          },
          {
            "duration": 0,
            "durationTicks": 0,
            "midi": 61,
            "name": "C#4",
            "ticks": 5813,
            "time": 7.569010416666667,
            "velocity": 0.11811023622047244
          },
          {
            "duration": 0,
            "durationTicks": 0,
            "midi": 83,
            "name": "B5",
            "ticks": 5813,
            "time": 7.569010416666667,
            "velocity": 0.11811023622047244
          },
          {
            "duration": 0,
            "durationTicks": 0,
            "midi": 77,
            "name": "F5",
            "ticks": 5823,
            "time": 7.58203125,
            "velocity": 0.06299212598425197
          },
          {
            "duration": 0,
            "durationTicks": 0,
            "midi": 73,
            "name": "C#5",
            "ticks": 5823,
            "time": 7.58203125,
            "velocity": 0.14960629921259844
          },
          {
            "duration": 0,
            "durationTicks": 0,
            "midi": 49,
            "name": "C#3",
            "ticks": 5823,
            "time": 7.58203125,
            "velocity": 0.2125984251968504
          },
          {
            "duration": 0,
            "durationTicks": 0,
            "midi": 68,
            "name": "G#4",
            "ticks": 5832,
            "time": 7.59375,
            "velocity": 0.03937007874015748
          },
          {
            "duration": 0,
            "durationTicks": 0,
            "midi": 74,
            "name": "D5",
            "ticks": 5841,
            "time": 7.60546875,
            "velocity": 0.12598425196850394
          },
          {
            "duration": 0.13020833333333304,
            "durationTicks": 100,
            "midi": 58,
            "name": "A#3",
            "ticks": 5859,
            "time": 7.62890625,
            "velocity": 0.09448818897637795
          },
          {
            "duration": 0,
            "durationTicks": 0,
            "midi": 50,
            "name": "D3",
            "ticks": 5859,
            "time": 7.62890625,
            "velocity": 0.2204724409448819
          },
          {
            "duration": 0,
            "durationTicks": 0,
            "midi": 72,
            "name": "C5",
            "ticks": 5859,
            "time": 7.62890625,
            "velocity": 0.13385826771653545
          },
          {
            "duration": 0,
            "durationTicks": 0,
            "midi": 76,
            "name": "E5",
            "ticks": 5859,
            "time": 7.62890625,
            "velocity": 0.047244094488188976
          },
          {
            "duration": 0.13020833333333304,
            "durationTicks": 100,
            "midi": 77,
            "name": "F5",
            "ticks": 5859,
            "time": 7.62890625,
            "velocity": 0.13385826771653545
          },
          {
            "duration": 0,
            "durationTicks": 0,
            "midi": 71,
            "name": "B4",
            "ticks": 5868,
            "time": 7.640625,
            "velocity": 0.07086614173228346
          },
          {
            "duration": 0.13020833333333304,
            "durationTicks": 100,
            "midi": 70,
            "name": "A#4",
            "ticks": 5868,
            "time": 7.640625,
            "velocity": 0.11811023622047244
          },
          {
            "duration": 0,
            "durationTicks": 0,
            "midi": 51,
            "name": "D#3",
            "ticks": 5878,
            "time": 7.653645833333333,
            "velocity": 0.2283464566929134
          },
          {
            "duration": 0,
            "durationTicks": 0,
            "midi": 73,
            "name": "C#5",
            "ticks": 5878,
            "time": 7.653645833333333,
            "velocity": 0.11023622047244094
          },
          {
            "duration": 0,
            "durationTicks": 0,
            "midi": 67,
            "name": "G4",
            "ticks": 5878,
            "time": 7.653645833333333,
            "velocity": 0.14173228346456693
          },
          {
            "duration": 0,
            "durationTicks": 0,
            "midi": 76,
            "name": "E5",
            "ticks": 5878,
            "time": 7.653645833333333,
            "velocity": 0.14960629921259844
          },
          {
            "duration": 0.13020833333333393,
            "durationTicks": 100,
            "midi": 65,
            "name": "F4",
            "ticks": 5878,
            "time": 7.653645833333333,
            "velocity": 0.14173228346456693
          },
          {
            "duration": 0.13020833333333393,
            "durationTicks": 100,
            "midi": 73,
            "name": "C#5",
            "ticks": 5878,
            "time": 7.653645833333333,
            "velocity": 0.1732283464566929
          },
          {
            "duration": 0.13020833333333393,
            "durationTicks": 100,
            "midi": 83,
            "name": "B5",
            "ticks": 5887,
            "time": 7.665364583333333,
            "velocity": 0.08661417322834646
          },
          {
            "duration": 0,
            "durationTicks": 0,
            "midi": 64,
            "name": "E4",
            "ticks": 5887,
            "time": 7.665364583333333,
            "velocity": 0.10236220472440945
          },
          {
            "duration": 0,
            "durationTicks": 0,
            "midi": 78,
            "name": "F#5",
            "ticks": 5887,
            "time": 7.665364583333333,
            "velocity": 0.031496062992125984
          },
          {
            "duration": 0.13020833333333393,
            "durationTicks": 100,
            "midi": 74,
            "name": "D5",
            "ticks": 5896,
            "time": 7.677083333333333,
            "velocity": 0.12598425196850394
          },
          {
            "duration": 0,
            "durationTicks": 0,
            "midi": 52,
            "name": "E3",
            "ticks": 5896,
            "time": 7.677083333333333,
            "velocity": 0.23622047244094488
          },
          {
            "duration": 0.0078125,
            "durationTicks": 6,
            "midi": 75,
            "name": "D#5",
            "ticks": 5906,
            "time": 7.690104166666667,
            "velocity": 0.10236220472440945
          },
          {
            "duration": 0,
            "durationTicks": 0,
            "midi": 63,
            "name": "D#4",
            "ticks": 5906,
            "time": 7.690104166666667,
            "velocity": 0.09448818897637795
          },
          {
            "duration": 0,
            "durationTicks": 0,
            "midi": 67,
            "name": "G4",
            "ticks": 5906,
            "time": 7.690104166666667,
            "velocity": 0.10236220472440945
          },
          {
            "duration": 0,
            "durationTicks": 0,
            "midi": 51,
            "name": "D#3",
            "ticks": 5924,
            "time": 7.713541666666667,
            "velocity": 0.1968503937007874
          },
          {
            "duration": 0,
            "durationTicks": 0,
            "midi": 72,
            "name": "C5",
            "ticks": 5933,
            "time": 7.725260416666667,
            "velocity": 0.08661417322834646
          },
          {
            "duration": 0,
            "durationTicks": 0,
            "midi": 52,
            "name": "E3",
            "ticks": 5943,
            "time": 7.73828125,
            "velocity": 0.06299212598425197
          },
          {
            "duration": 0,
            "durationTicks": 0,
            "midi": 45,
            "name": "A2",
            "ticks": 5952,
            "time": 7.75,
            "velocity": 0.15748031496062992
          },
          {
            "duration": 0.25130208333333304,
            "durationTicks": 193,
            "midi": 62,
            "name": "D4",
            "ticks": 5999,
            "time": 7.811197916666667,
            "velocity": 0.25984251968503935
          },
          {
            "duration": 0,
            "durationTicks": 0,
            "midi": 77,
            "name": "F5",
            "ticks": 6008,
            "time": 7.822916666666667,
            "velocity": 0.11023622047244094
          },
          {
            "duration": 0.25130208333333304,
            "durationTicks": 193,
            "midi": 69,
            "name": "A4",
            "ticks": 6008,
            "time": 7.822916666666667,
            "velocity": 0.1968503937007874
          },
          {
            "duration": 0,
            "durationTicks": 0,
            "midi": 76,
            "name": "E5",
            "ticks": 6008,
            "time": 7.822916666666667,
            "velocity": 0.08661417322834646
          },
          {
            "duration": 0.125,
            "durationTicks": 96,
            "midi": 76,
            "name": "E5",
            "ticks": 6008,
            "time": 7.822916666666667,
            "velocity": 0.13385826771653545
          },
          {
            "duration": 0.25130208333333304,
            "durationTicks": 193,
            "midi": 50,
            "name": "D3",
            "ticks": 6017,
            "time": 7.834635416666667,
            "velocity": 0.1968503937007874
          },
          {
            "duration": 0.125,
            "durationTicks": 96,
            "midi": 78,
            "name": "F#5",
            "ticks": 6017,
            "time": 7.834635416666667,
            "velocity": 0.1889763779527559
          },
          {
            "duration": 0.125,
            "durationTicks": 96,
            "midi": 83,
            "name": "B5",
            "ticks": 6035,
            "time": 7.858072916666667,
            "velocity": 0.09448818897637795
          },
          {
            "duration": 0,
            "durationTicks": 0,
            "midi": 77,
            "name": "F5",
            "ticks": 6044,
            "time": 7.869791666666667,
            "velocity": 0.09448818897637795
          },
          {
            "duration": 0.11588541666666696,
            "durationTicks": 89,
            "midi": 72,
            "name": "C5",
            "ticks": 6089,
            "time": 7.928385416666667,
            "velocity": 0.13385826771653545
          },
          {
            "duration": 0,
            "durationTicks": 0,
            "midi": 58,
            "name": "A#3",
            "ticks": 6142,
            "time": 7.997395833333333,
            "velocity": 0.08661417322834646
          },
          {
            "duration": 0,
            "durationTicks": 0,
            "midi": 76,
            "name": "E5",
            "ticks": 6178,
            "time": 8.044270833333334,
            "velocity": 0.15748031496062992
          },
          {
            "duration": 0.009114583333332149,
            "durationTicks": 7,
            "midi": 72,
            "name": "C5",
            "ticks": 6178,
            "time": 8.044270833333334,
            "velocity": 0.16535433070866143
          },
          {
            "duration": 0,
            "durationTicks": 0,
            "midi": 74,
            "name": "D5",
            "ticks": 6178,
            "time": 8.044270833333334,
            "velocity": 0.11023622047244094
          },
          {
            "duration": 0,
            "durationTicks": 0,
            "midi": 83,
            "name": "B5",
            "ticks": 6196,
            "time": 8.067708333333334,
            "velocity": 0.16535433070866143
          },
          {
            "duration": 0,
            "durationTicks": 0,
            "midi": 68,
            "name": "G#4",
            "ticks": 6205,
            "time": 8.079427083333334,
            "velocity": 0.08661417322834646
          },
          {
            "duration": 0,
            "durationTicks": 0,
            "midi": 73,
            "name": "C#5",
            "ticks": 6205,
            "time": 8.079427083333334,
            "velocity": 0.1968503937007874
          },
          {
            "duration": 0,
            "durationTicks": 0,
            "midi": 49,
            "name": "C#3",
            "ticks": 6205,
            "time": 8.079427083333334,
            "velocity": 0.1968503937007874
          },
          {
            "duration": 0,
            "durationTicks": 0,
            "midi": 75,
            "name": "D#5",
            "ticks": 6205,
            "time": 8.079427083333334,
            "velocity": 0.1732283464566929
          },
          {
            "duration": 0,
            "durationTicks": 0,
            "midi": 77,
            "name": "F5",
            "ticks": 6215,
            "time": 8.092447916666666,
            "velocity": 0.11811023622047244
          },
          {
            "duration": 0,
            "durationTicks": 0,
            "midi": 72,
            "name": "C5",
            "ticks": 6215,
            "time": 8.092447916666666,
            "velocity": 0.16535433070866143
          },
          {
            "duration": 0,
            "durationTicks": 0,
            "midi": 71,
            "name": "B4",
            "ticks": 6215,
            "time": 8.092447916666666,
            "velocity": 0.1889763779527559
          },
          {
            "duration": 0,
            "durationTicks": 0,
            "midi": 78,
            "name": "F#5",
            "ticks": 6215,
            "time": 8.092447916666666,
            "velocity": 0.031496062992125984
          },
          {
            "duration": 0,
            "durationTicks": 0,
            "midi": 55,
            "name": "G3",
            "ticks": 6224,
            "time": 8.104166666666666,
            "velocity": 0.05511811023622047
          },
          {
            "duration": 0.12630208333333393,
            "durationTicks": 97,
            "midi": 82,
            "name": "A#5",
            "ticks": 6224,
            "time": 8.104166666666666,
            "velocity": 0.07874015748031496
          },
          {
            "duration": 0.12630208333333393,
            "durationTicks": 97,
            "midi": 48,
            "name": "C3",
            "ticks": 6233,
            "time": 8.115885416666666,
            "velocity": 0.2283464566929134
          },
          {
            "duration": 0,
            "durationTicks": 0,
            "midi": 75,
            "name": "D#5",
            "ticks": 6233,
            "time": 8.115885416666666,
            "velocity": 0.09448818897637795
          },
          {
            "duration": 0.234375,
            "durationTicks": 180,
            "midi": 74,
            "name": "D5",
            "ticks": 6233,
            "time": 8.115885416666666,
            "velocity": 0.1889763779527559
          },
          {
            "duration": 0.12630208333333393,
            "durationTicks": 97,
            "midi": 67,
            "name": "G4",
            "ticks": 6243,
            "time": 8.12890625,
            "velocity": 0.09448818897637795
          },
          {
            "duration": 0.2513020833333339,
            "durationTicks": 193,
            "midi": 72,
            "name": "C5",
            "ticks": 6243,
            "time": 8.12890625,
            "velocity": 0.28346456692913385
          },
          {
            "duration": 0.12630208333333393,
            "durationTicks": 97,
            "midi": 70,
            "name": "A#4",
            "ticks": 6243,
            "time": 8.12890625,
            "velocity": 0.13385826771653545
          },
          {
            "duration": 0,
            "durationTicks": 0,
            "midi": 76,
            "name": "E5",
            "ticks": 6297,
            "time": 8.19921875,
            "velocity": 0.06299212598425197
          },
          {
            "duration": 0.12630208333333393,
            "durationTicks": 97,
            "midi": 75,
            "name": "D#5",
            "ticks": 6314,
            "time": 8.221354166666666,
            "velocity": 0.07086614173228346
          },
          {
            "duration": 0,
            "durationTicks": 0,
            "midi": 47,
            "name": "B2",
            "ticks": 6323,
            "time": 8.233072916666666,
            "velocity": 0.23622047244094488
          },
          {
            "duration": 0.125,
            "durationTicks": 96,
            "midi": 58,
            "name": "A#3",
            "ticks": 6333,
            "time": 8.24609375,
            "velocity": 0.15748031496062992
          },
          {
            "duration": 0.125,
            "durationTicks": 96,
            "midi": 65,
            "name": "F4",
            "ticks": 6333,
            "time": 8.24609375,
            "velocity": 0.14173228346456693
          },
          {
            "duration": 0.125,
            "durationTicks": 96,
            "midi": 46,
            "name": "A#2",
            "ticks": 6342,
            "time": 8.2578125,
            "velocity": 0.2283464566929134
          },
          {
            "duration": 0.016927083333333925,
            "durationTicks": 13,
            "midi": 74,
            "name": "D5",
            "ticks": 6413,
            "time": 8.350260416666666,
            "velocity": 0.06299212598425197
          },
          {
            "duration": 0,
            "durationTicks": 0,
            "midi": 47,
            "name": "B2",
            "ticks": 6440,
            "time": 8.385416666666666,
            "velocity": 0.10236220472440945
          },
          {
            "duration": 0,
            "durationTicks": 0,
            "midi": 43,
            "name": "G2",
            "ticks": 6440,
            "time": 8.385416666666666,
            "velocity": 0.16535433070866143
          },
          {
            "duration": 0,
            "durationTicks": 0,
            "midi": 43,
            "name": "G2",
            "ticks": 6485,
            "time": 8.444010416666666,
            "velocity": 0.03937007874015748
          },
          {
            "duration": 0,
            "durationTicks": 0,
            "midi": 74,
            "name": "D5",
            "ticks": 6529,
            "time": 8.501302083333334,
            "velocity": 0.08661417322834646
          },
          {
            "duration": 0,
            "durationTicks": 0,
            "midi": 62,
            "name": "D4",
            "ticks": 6529,
            "time": 8.501302083333334,
            "velocity": 0.09448818897637795
          },
          {
            "duration": 0.12890625,
            "durationTicks": 99,
            "midi": 78,
            "name": "F#5",
            "ticks": 6529,
            "time": 8.501302083333334,
            "velocity": 0.07874015748031496
          },
          {
            "duration": 0,
            "durationTicks": 0,
            "midi": 51,
            "name": "D#3",
            "ticks": 6539,
            "time": 8.514322916666666,
            "velocity": 0.1968503937007874
          },
          {
            "duration": 0.12890625,
            "durationTicks": 99,
            "midi": 74,
            "name": "D5",
            "ticks": 6539,
            "time": 8.514322916666666,
            "velocity": 0.1732283464566929
          },
          {
            "duration": 0,
            "durationTicks": 0,
            "midi": 40,
            "name": "E2",
            "ticks": 6548,
            "time": 8.526041666666666,
            "velocity": 0.14960629921259844
          },
          {
            "duration": 0,
            "durationTicks": 0,
            "midi": 71,
            "name": "B4",
            "ticks": 6548,
            "time": 8.526041666666666,
            "velocity": 0.08661417322834646
          },
          {
            "duration": 0,
            "durationTicks": 0,
            "midi": 63,
            "name": "D#4",
            "ticks": 6548,
            "time": 8.526041666666666,
            "velocity": 0.1968503937007874
          },
          {
            "duration": 0.3802083333333339,
            "durationTicks": 292,
            "midi": 70,
            "name": "A#4",
            "ticks": 6557,
            "time": 8.537760416666666,
            "velocity": 0.2047244094488189
          },
          {
            "duration": 0,
            "durationTicks": 0,
            "midi": 50,
            "name": "D3",
            "ticks": 6557,
            "time": 8.537760416666666,
            "velocity": 0.15748031496062992
          },
          {
            "duration": 0,
            "durationTicks": 0,
            "midi": 57,
            "name": "A3",
            "ticks": 6557,
            "time": 8.537760416666666,
            "velocity": 0.14960629921259844
          },
          {
            "duration": 0,
            "durationTicks": 0,
            "midi": 79,
            "name": "G5",
            "ticks": 6557,
            "time": 8.537760416666666,
            "velocity": 0.06299212598425197
          },
          {
            "duration": 0,
            "durationTicks": 0,
            "midi": 66,
            "name": "F#4",
            "ticks": 6557,
            "time": 8.537760416666666,
            "velocity": 0.12598425196850394
          },
          {
            "duration": 0,
            "durationTicks": 0,
            "midi": 65,
            "name": "F4",
            "ticks": 6557,
            "time": 8.537760416666666,
            "velocity": 0.12598425196850394
          },
          {
            "duration": 0.12760416666666607,
            "durationTicks": 98,
            "midi": 39,
            "name": "D#2",
            "ticks": 6567,
            "time": 8.55078125,
            "velocity": 0.1732283464566929
          },
          {
            "duration": 0,
            "durationTicks": 0,
            "midi": 81,
            "name": "A5",
            "ticks": 6567,
            "time": 8.55078125,
            "velocity": 0.047244094488188976
          },
          {
            "duration": 0.12760416666666607,
            "durationTicks": 98,
            "midi": 76,
            "name": "E5",
            "ticks": 6567,
            "time": 8.55078125,
            "velocity": 0.08661417322834646
          },
          {
            "duration": 0,
            "durationTicks": 0,
            "midi": 46,
            "name": "A#2",
            "ticks": 6567,
            "time": 8.55078125,
            "velocity": 0.11023622047244094
          },
          {
            "duration": 0.12760416666666607,
            "durationTicks": 98,
            "midi": 67,
            "name": "G4",
            "ticks": 6576,
            "time": 8.5625,
            "velocity": 0.15748031496062992
          },
          {
            "duration": 0.25390625,
            "durationTicks": 195,
            "midi": 55,
            "name": "G3",
            "ticks": 6576,
            "time": 8.5625,
            "velocity": 0.15748031496062992
          },
          {
            "duration": 0,
            "durationTicks": 0,
            "midi": 72,
            "name": "C5",
            "ticks": 6576,
            "time": 8.5625,
            "velocity": 0.09448818897637795
          },
          {
            "duration": 0,
            "durationTicks": 0,
            "midi": 62,
            "name": "D4",
            "ticks": 6576,
            "time": 8.5625,
            "velocity": 0.1889763779527559
          },
          {
            "duration": 0.12760416666666607,
            "durationTicks": 98,
            "midi": 27,
            "name": "D#1",
            "ticks": 6576,
            "time": 8.5625,
            "velocity": 0.14960629921259844
          },
          {
            "duration": 0.37890625,
            "durationTicks": 291,
            "midi": 58,
            "name": "A#3",
            "ticks": 6585,
            "time": 8.57421875,
            "velocity": 0.14960629921259844
          },
          {
            "duration": 0,
            "durationTicks": 0,
            "midi": 69,
            "name": "A4",
            "ticks": 6594,
            "time": 8.5859375,
            "velocity": 0.11811023622047244
          },
          {
            "duration": 0.12760416666666607,
            "durationTicks": 98,
            "midi": 50,
            "name": "D3",
            "ticks": 6612,
            "time": 8.609375,
            "velocity": 0.2125984251968504
          },
          {
            "duration": 0.12760416666666607,
            "durationTicks": 98,
            "midi": 69,
            "name": "A4",
            "ticks": 6621,
            "time": 8.62109375,
            "velocity": 0.15748031496062992
          },
          {
            "duration": 0,
            "durationTicks": 0,
            "midi": 26,
            "name": "D1",
            "ticks": 6658,
            "time": 8.669270833333334,
            "velocity": 0.11811023622047244
          },
          {
            "duration": 0,
            "durationTicks": 0,
            "midi": 61,
            "name": "C#4",
            "ticks": 6676,
            "time": 8.692708333333334,
            "velocity": 0.15748031496062992
          },
          {
            "duration": 0,
            "durationTicks": 0,
            "midi": 68,
            "name": "G#4",
            "ticks": 6686,
            "time": 8.705729166666666,
            "velocity": 0.14173228346456693
          },
          {
            "duration": 0,
            "durationTicks": 0,
            "midi": 49,
            "name": "C#3",
            "ticks": 6686,
            "time": 8.705729166666666,
            "velocity": 0.2125984251968504
          },
          {
            "duration": 0,
            "durationTicks": 0,
            "midi": 72,
            "name": "C5",
            "ticks": 6703,
            "time": 8.727864583333334,
            "velocity": 0.08661417322834646
          },
          {
            "duration": 0.37890625,
            "durationTicks": 291,
            "midi": 48,
            "name": "C3",
            "ticks": 6703,
            "time": 8.727864583333334,
            "velocity": 0.2283464566929134
          },
          {
            "duration": 0.125,
            "durationTicks": 96,
            "midi": 63,
            "name": "D#4",
            "ticks": 6712,
            "time": 8.739583333333334,
            "velocity": 0.14960629921259844
          },
          {
            "duration": 0.125,
            "durationTicks": 96,
            "midi": 74,
            "name": "D5",
            "ticks": 6722,
            "time": 8.752604166666666,
            "velocity": 0.13385826771653545
          },
          {
            "duration": 0,
            "durationTicks": 0,
            "midi": 51,
            "name": "D#3",
            "ticks": 6722,
            "time": 8.752604166666666,
            "velocity": 0.11023622047244094
          },
          {
            "duration": 0.2513020833333339,
            "durationTicks": 193,
            "midi": 55,
            "name": "G3",
            "ticks": 6758,
            "time": 8.799479166666666,
            "velocity": 0.11811023622047244
          },
          {
            "duration": 0.10546875,
            "durationTicks": 81,
            "midi": 76,
            "name": "E5",
            "ticks": 6838,
            "time": 8.903645833333334,
            "velocity": 0.05511811023622047
          },
          {
            "duration": 0.12630208333333215,
            "durationTicks": 97,
            "midi": 74,
            "name": "D5",
            "ticks": 6883,
            "time": 8.962239583333334,
            "velocity": 0.10236220472440945
          },
          {
            "duration": 0.12630208333333215,
            "durationTicks": 97,
            "midi": 77,
            "name": "F5",
            "ticks": 6883,
            "time": 8.962239583333334,
            "velocity": 0.09448818897637795
          },
          {
            "duration": 0,
            "durationTicks": 0,
            "midi": 64,
            "name": "E4",
            "ticks": 6883,
            "time": 8.962239583333334,
            "velocity": 0.11023622047244094
          },
          {
            "duration": 0,
            "durationTicks": 0,
            "midi": 62,
            "name": "D4",
            "ticks": 6892,
            "time": 8.973958333333334,
            "velocity": 0.15748031496062992
          },
          {
            "duration": 0,
            "durationTicks": 0,
            "midi": 75,
            "name": "D#5",
            "ticks": 6892,
            "time": 8.973958333333334,
            "velocity": 0.06299212598425197
          },
          {
            "duration": 0.12630208333333215,
            "durationTicks": 97,
            "midi": 70,
            "name": "A#4",
            "ticks": 6910,
            "time": 8.997395833333334,
            "velocity": 0.1889763779527559
          },
          {
            "duration": 0,
            "durationTicks": 0,
            "midi": 54,
            "name": "F#3",
            "ticks": 6919,
            "time": 9.009114583333334,
            "velocity": 0.08661417322834646
          },
          {
            "duration": 0.02083333333333215,
            "durationTicks": 16,
            "midi": 76,
            "name": "E5",
            "ticks": 6919,
            "time": 9.009114583333334,
            "velocity": 0.11023622047244094
          },
          {
            "duration": 0.12630208333333215,
            "durationTicks": 97,
            "midi": 55,
            "name": "G3",
            "ticks": 6946,
            "time": 9.044270833333334,
            "velocity": 0.06299212598425197
          },
          {
            "duration": 0,
            "durationTicks": 0,
            "midi": 62,
            "name": "D4",
            "ticks": 6946,
            "time": 9.044270833333334,
            "velocity": 0.047244094488188976
          },
          {
            "duration": 0,
            "durationTicks": 0,
            "midi": 45,
            "name": "A2",
            "ticks": 6956,
            "time": 9.057291666666666,
            "velocity": 0.15748031496062992
          },
          {
            "duration": 0,
            "durationTicks": 0,
            "midi": 51,
            "name": "D#3",
            "ticks": 6973,
            "time": 9.079427083333334,
            "velocity": 0.07086614173228346
          },
          {
            "duration": 0,
            "durationTicks": 0,
            "midi": 58,
            "name": "A#3",
            "ticks": 6982,
            "time": 9.091145833333334,
            "velocity": 0.047244094488188976
          },
          {
            "duration": 0.12630208333333215,
            "durationTicks": 97,
            "midi": 72,
            "name": "C5",
            "ticks": 7009,
            "time": 9.126302083333334,
            "velocity": 0.09448818897637795
          },
          {
            "duration": 0,
            "durationTicks": 0,
            "midi": 75,
            "name": "D#5",
            "ticks": 7009,
            "time": 9.126302083333334,
            "velocity": 0.07086614173228346
          },
          {
            "duration": 0,
            "durationTicks": 0,
            "midi": 78,
            "name": "F#5",
            "ticks": 7009,
            "time": 9.126302083333334,
            "velocity": 0.05511811023622047
          },
          {
            "duration": 0,
            "durationTicks": 0,
            "midi": 51,
            "name": "D#3",
            "ticks": 7019,
            "time": 9.139322916666666,
            "velocity": 0.2125984251968504
          },
          {
            "duration": 0.12630208333333393,
            "durationTicks": 97,
            "midi": 81,
            "name": "A5",
            "ticks": 7019,
            "time": 9.139322916666666,
            "velocity": 0.12598425196850394
          },
          {
            "duration": 0.12630208333333393,
            "durationTicks": 97,
            "midi": 69,
            "name": "A4",
            "ticks": 7019,
            "time": 9.139322916666666,
            "velocity": 0.09448818897637795
          },
          {
            "duration": 0.12630208333333393,
            "durationTicks": 97,
            "midi": 62,
            "name": "D4",
            "ticks": 7019,
            "time": 9.139322916666666,
            "velocity": 0.1968503937007874
          },
          {
            "duration": 0.12630208333333393,
            "durationTicks": 97,
            "midi": 78,
            "name": "F#5",
            "ticks": 7019,
            "time": 9.139322916666666,
            "velocity": 0.08661417322834646
          },
          {
            "duration": 0.12630208333333393,
            "durationTicks": 97,
            "midi": 76,
            "name": "E5",
            "ticks": 7019,
            "time": 9.139322916666666,
            "velocity": 0.08661417322834646
          },
          {
            "duration": 0.12630208333333393,
            "durationTicks": 97,
            "midi": 74,
            "name": "D5",
            "ticks": 7019,
            "time": 9.139322916666666,
            "velocity": 0.11811023622047244
          },
          {
            "duration": 0.12630208333333393,
            "durationTicks": 97,
            "midi": 50,
            "name": "D3",
            "ticks": 7028,
            "time": 9.151041666666666,
            "velocity": 0.2204724409448819
          },
          {
            "duration": 0.09375,
            "durationTicks": 72,
            "midi": 67,
            "name": "G4",
            "ticks": 7055,
            "time": 9.186197916666666,
            "velocity": 0.12598425196850394
          },
          {
            "duration": 0,
            "durationTicks": 0,
            "midi": 70,
            "name": "A#4",
            "ticks": 7073,
            "time": 9.209635416666666,
            "velocity": 0.08661417322834646
          },
          {
            "duration": 0,
            "durationTicks": 0,
            "midi": 71,
            "name": "B4",
            "ticks": 7073,
            "time": 9.209635416666666,
            "velocity": 0.08661417322834646
          },
          {
            "duration": 0,
            "durationTicks": 0,
            "midi": 75,
            "name": "D#5",
            "ticks": 7073,
            "time": 9.209635416666666,
            "velocity": 0.06299212598425197
          },
          {
            "duration": 0,
            "durationTicks": 0,
            "midi": 77,
            "name": "F5",
            "ticks": 7082,
            "time": 9.221354166666666,
            "velocity": 0.07874015748031496
          },
          {
            "duration": 0,
            "durationTicks": 0,
            "midi": 58,
            "name": "A#3",
            "ticks": 7091,
            "time": 9.233072916666666,
            "velocity": 0.047244094488188976
          },
          {
            "duration": 0,
            "durationTicks": 0,
            "midi": 48,
            "name": "C3",
            "ticks": 7109,
            "time": 9.256510416666666,
            "velocity": 0.2283464566929134
          },
          {
            "duration": 0.03385416666666785,
            "durationTicks": 26,
            "midi": 67,
            "name": "G4",
            "ticks": 7127,
            "time": 9.279947916666666,
            "velocity": 0.023622047244094488
          },
          {
            "duration": 0.13020833333333393,
            "durationTicks": 100,
            "midi": 62,
            "name": "D4",
            "ticks": 7137,
            "time": 9.29296875,
            "velocity": 0.11811023622047244
          },
          {
            "duration": 0,
            "durationTicks": 0,
            "midi": 58,
            "name": "A#3",
            "ticks": 7146,
            "time": 9.3046875,
            "velocity": 0.11811023622047244
          },
          {
            "duration": 0,
            "durationTicks": 0,
            "midi": 47,
            "name": "B2",
            "ticks": 7146,
            "time": 9.3046875,
            "velocity": 0.2283464566929134
          },
          {
            "duration": 0,
            "durationTicks": 0,
            "midi": 46,
            "name": "A#2",
            "ticks": 7155,
            "time": 9.31640625,
            "velocity": 0.23622047244094488
          },
          {
            "duration": 0,
            "durationTicks": 0,
            "midi": 45,
            "name": "A2",
            "ticks": 7165,
            "time": 9.329427083333334,
            "velocity": 0.2283464566929134
          },
          {
            "duration": 0,
            "durationTicks": 0,
            "midi": 53,
            "name": "F3",
            "ticks": 7174,
            "time": 9.341145833333334,
            "velocity": 0.15748031496062992
          },
          {
            "duration": 0,
            "durationTicks": 0,
            "midi": 43,
            "name": "G2",
            "ticks": 7174,
            "time": 9.341145833333334,
            "velocity": 0.2204724409448819
          },
          {
            "duration": 0,
            "durationTicks": 0,
            "midi": 41,
            "name": "F2",
            "ticks": 7183,
            "time": 9.352864583333334,
            "velocity": 0.23622047244094488
          },
          {
            "duration": 0,
            "durationTicks": 0,
            "midi": 40,
            "name": "E2",
            "ticks": 7192,
            "time": 9.364583333333334,
            "velocity": 0.2440944881889764
          },
          {
            "duration": 0,
            "durationTicks": 0,
            "midi": 53,
            "name": "F3",
            "ticks": 7202,
            "time": 9.377604166666666,
            "velocity": 0.15748031496062992
          },
          {
            "duration": 0,
            "durationTicks": 0,
            "midi": 41,
            "name": "F2",
            "ticks": 7211,
            "time": 9.389322916666666,
            "velocity": 0.2440944881889764
          },
          {
            "duration": 0,
            "durationTicks": 0,
            "midi": 42,
            "name": "F#2",
            "ticks": 7220,
            "time": 9.401041666666666,
            "velocity": 0.23622047244094488
          },
          {
            "duration": 0.12890625,
            "durationTicks": 99,
            "midi": 67,
            "name": "G4",
            "ticks": 7220,
            "time": 9.401041666666666,
            "velocity": 0.09448818897637795
          },
          {
            "duration": 0,
            "durationTicks": 0,
            "midi": 43,
            "name": "G2",
            "ticks": 7230,
            "time": 9.4140625,
            "velocity": 0.23622047244094488
          },
          {
            "duration": 0,
            "durationTicks": 0,
            "midi": 75,
            "name": "D#5",
            "ticks": 7230,
            "time": 9.4140625,
            "velocity": 0.09448818897637795
          },
          {
            "duration": 0,
            "durationTicks": 0,
            "midi": 63,
            "name": "D#4",
            "ticks": 7239,
            "time": 9.42578125,
            "velocity": 0.11023622047244094
          },
          {
            "duration": 0,
            "durationTicks": 0,
            "midi": 80,
            "name": "G#5",
            "ticks": 7239,
            "time": 9.42578125,
            "velocity": 0.05511811023622047
          },
          {
            "duration": 0,
            "durationTicks": 0,
            "midi": 69,
            "name": "A4",
            "ticks": 7239,
            "time": 9.42578125,
            "velocity": 0.12598425196850394
          },
          {
            "duration": 0,
            "durationTicks": 0,
            "midi": 78,
            "name": "F#5",
            "ticks": 7239,
            "time": 9.42578125,
            "velocity": 0.07086614173228346
          },
          {
            "duration": 0,
            "durationTicks": 0,
            "midi": 73,
            "name": "C#5",
            "ticks": 7239,
            "time": 9.42578125,
            "velocity": 0.07086614173228346
          },
          {
            "duration": 0,
            "durationTicks": 0,
            "midi": 77,
            "name": "F5",
            "ticks": 7239,
            "time": 9.42578125,
            "velocity": 0.08661417322834646
          },
          {
            "duration": 0,
            "durationTicks": 0,
            "midi": 72,
            "name": "C5",
            "ticks": 7248,
            "time": 9.4375,
            "velocity": 0.07086614173228346
          },
          {
            "duration": 0.12760416666666607,
            "durationTicks": 98,
            "midi": 58,
            "name": "A#3",
            "ticks": 7248,
            "time": 9.4375,
            "velocity": 0.12598425196850394
          },
          {
            "duration": 0,
            "durationTicks": 0,
            "midi": 44,
            "name": "G#2",
            "ticks": 7248,
            "time": 9.4375,
            "velocity": 0.2125984251968504
          },
          {
            "duration": 0.12760416666666607,
            "durationTicks": 98,
            "midi": 70,
            "name": "A#4",
            "ticks": 7248,
            "time": 9.4375,
            "velocity": 0.14173228346456693
          },
          {
            "duration": 0.12760416666666607,
            "durationTicks": 98,
            "midi": 62,
            "name": "D4",
            "ticks": 7258,
            "time": 9.450520833333334,
            "velocity": 0.11811023622047244
          },
          {
            "duration": 0,
            "durationTicks": 0,
            "midi": 43,
            "name": "G2",
            "ticks": 7258,
            "time": 9.450520833333334,
            "velocity": 0.2125984251968504
          },
          {
            "duration": 0,
            "durationTicks": 0,
            "midi": 54,
            "name": "F#3",
            "ticks": 7267,
            "time": 9.462239583333334,
            "velocity": 0.09448818897637795
          },
          {
            "duration": 0,
            "durationTicks": 0,
            "midi": 42,
            "name": "F#2",
            "ticks": 7276,
            "time": 9.473958333333334,
            "velocity": 0.2204724409448819
          },
          {
            "duration": 0,
            "durationTicks": 0,
            "midi": 56,
            "name": "G#3",
            "ticks": 7276,
            "time": 9.473958333333334,
            "velocity": 0.12598425196850394
          },
          {
            "duration": 0,
            "durationTicks": 0,
            "midi": 41,
            "name": "F2",
            "ticks": 7285,
            "time": 9.485677083333334,
            "velocity": 0.2283464566929134
          },
          {
            "duration": 0,
            "durationTicks": 0,
            "midi": 71,
            "name": "B4",
            "ticks": 7285,
            "time": 9.485677083333334,
            "velocity": 0.03937007874015748
          },
          {
            "duration": 0,
            "durationTicks": 0,
            "midi": 40,
            "name": "E2",
            "ticks": 7295,
            "time": 9.498697916666666,
            "velocity": 0.2204724409448819
          },
          {
            "duration": 0.12630208333333393,
            "durationTicks": 97,
            "midi": 55,
            "name": "G3",
            "ticks": 7295,
            "time": 9.498697916666666,
            "velocity": 0.14960629921259844
          },
          {
            "duration": 0,
            "durationTicks": 0,
            "midi": 41,
            "name": "F2",
            "ticks": 7322,
            "time": 9.533854166666666,
            "velocity": 0.2047244094488189
          },
          {
            "duration": 0,
            "durationTicks": 0,
            "midi": 42,
            "name": "F#2",
            "ticks": 7331,
            "time": 9.545572916666666,
            "velocity": 0.1968503937007874
          },
          {
            "duration": 0,
            "durationTicks": 0,
            "midi": 39,
            "name": "D#2",
            "ticks": 7367,
            "time": 9.592447916666666,
            "velocity": 0.08661417322834646
          },
          {
            "duration": 0.12630208333333393,
            "durationTicks": 97,
            "midi": 82,
            "name": "A#5",
            "ticks": 7403,
            "time": 9.639322916666666,
            "velocity": 0.047244094488188976
          },
          {
            "duration": 0,
            "durationTicks": 0,
            "midi": 63,
            "name": "D#4",
            "ticks": 7413,
            "time": 9.65234375,
            "velocity": 0.06299212598425197
          },
          {
            "duration": 0,
            "durationTicks": 0,
            "midi": 70,
            "name": "A#4",
            "ticks": 7422,
            "time": 9.6640625,
            "velocity": 0.07874015748031496
          },
          {
            "duration": 0,
            "durationTicks": 0,
            "midi": 47,
            "name": "B2",
            "ticks": 7440,
            "time": 9.6875,
            "velocity": 0.14173228346456693
          },
          {
            "duration": 0,
            "durationTicks": 0,
            "midi": 46,
            "name": "A#2",
            "ticks": 7467,
            "time": 9.72265625,
            "velocity": 0.12598425196850394
          },
          {
            "duration": 0,
            "durationTicks": 0,
            "midi": 83,
            "name": "B5",
            "ticks": 7538,
            "time": 9.815104166666666,
            "velocity": 0.05511811023622047
          },
          {
            "duration": 0,
            "durationTicks": 0,
            "midi": 48,
            "name": "C3",
            "ticks": 7538,
            "time": 9.815104166666666,
            "velocity": 0.2125984251968504
          },
          {
            "duration": 0,
            "durationTicks": 0,
            "midi": 74,
            "name": "D5",
            "ticks": 7538,
            "time": 9.815104166666666,
            "velocity": 0.05511811023622047
          },
          {
            "duration": 0,
            "durationTicks": 0,
            "midi": 36,
            "name": "C2",
            "ticks": 7547,
            "time": 9.826822916666666,
            "velocity": 0.14173228346456693
          },
          {
            "duration": 0,
            "durationTicks": 0,
            "midi": 75,
            "name": "D#5",
            "ticks": 7547,
            "time": 9.826822916666666,
            "velocity": 0.047244094488188976
          },
          {
            "duration": 0,
            "durationTicks": 0,
            "midi": 55,
            "name": "G3",
            "ticks": 7547,
            "time": 9.826822916666666,
            "velocity": 0.15748031496062992
          },
          {
            "duration": 0,
            "durationTicks": 0,
            "midi": 72,
            "name": "C5",
            "ticks": 7547,
            "time": 9.826822916666666,
            "velocity": 0.12598425196850394
          },
          {
            "duration": 0.12630208333333393,
            "durationTicks": 97,
            "midi": 73,
            "name": "C#5",
            "ticks": 7557,
            "time": 9.83984375,
            "velocity": 0.15748031496062992
          },
          {
            "duration": 0,
            "durationTicks": 0,
            "midi": 76,
            "name": "E5",
            "ticks": 7557,
            "time": 9.83984375,
            "velocity": 0.07086614173228346
          },
          {
            "duration": 0,
            "durationTicks": 0,
            "midi": 40,
            "name": "E2",
            "ticks": 7583,
            "time": 9.873697916666666,
            "velocity": 0.1732283464566929
          },
          {
            "duration": 0,
            "durationTicks": 0,
            "midi": 63,
            "name": "D#4",
            "ticks": 7583,
            "time": 9.873697916666666,
            "velocity": 0.07086614173228346
          },
          {
            "duration": 0,
            "durationTicks": 0,
            "midi": 54,
            "name": "F#3",
            "ticks": 7601,
            "time": 9.897135416666666,
            "velocity": 0.15748031496062992
          },
          {
            "duration": 0,
            "durationTicks": 0,
            "midi": 72,
            "name": "C5",
            "ticks": 7601,
            "time": 9.897135416666666,
            "velocity": 0.12598425196850394
          },
          {
            "duration": 0,
            "durationTicks": 0,
            "midi": 69,
            "name": "A4",
            "ticks": 7601,
            "time": 9.897135416666666,
            "velocity": 0.07874015748031496
          },
          {
            "duration": 0,
            "durationTicks": 0,
            "midi": 74,
            "name": "D5",
            "ticks": 7601,
            "time": 9.897135416666666,
            "velocity": 0.023622047244094488
          },
          {
            "duration": 0.12630208333333393,
            "durationTicks": 97,
            "midi": 43,
            "name": "G2",
            "ticks": 7610,
            "time": 9.908854166666666,
            "velocity": 0.2204724409448819
          },
          {
            "duration": 0,
            "durationTicks": 0,
            "midi": 62,
            "name": "D4",
            "ticks": 7610,
            "time": 9.908854166666666,
            "velocity": 0.047244094488188976
          },
          {
            "duration": 0.12630208333333393,
            "durationTicks": 97,
            "midi": 74,
            "name": "D5",
            "ticks": 7610,
            "time": 9.908854166666666,
            "velocity": 0.09448818897637795
          },
          {
            "duration": 0.1171875,
            "durationTicks": 90,
            "midi": 83,
            "name": "B5",
            "ticks": 7620,
            "time": 9.921875,
            "velocity": 0.14173228346456693
          },
          {
            "duration": 0,
            "durationTicks": 0,
            "midi": 70,
            "name": "A#4",
            "ticks": 7620,
            "time": 9.921875,
            "velocity": 0.031496062992125984
          },
          {
            "duration": 0.12630208333333393,
            "durationTicks": 97,
            "midi": 79,
            "name": "G5",
            "ticks": 7629,
            "time": 9.93359375,
            "velocity": 0.03937007874015748
          },
          {
            "duration": 0.12630208333333393,
            "durationTicks": 97,
            "midi": 75,
            "name": "D#5",
            "ticks": 7629,
            "time": 9.93359375,
            "velocity": 0.11023622047244094
          },
          {
            "duration": 0,
            "durationTicks": 0,
            "midi": 72,
            "name": "C5",
            "ticks": 7638,
            "time": 9.9453125,
            "velocity": 0.12598425196850394
          },
          {
            "duration": 0,
            "durationTicks": 0,
            "midi": 73,
            "name": "C#5",
            "ticks": 7700,
            "time": 10.026041666666666,
            "velocity": 0.03937007874015748
          },
          {
            "duration": 0.12630208333333393,
            "durationTicks": 97,
            "midi": 74,
            "name": "D5",
            "ticks": 7700,
            "time": 10.026041666666666,
            "velocity": 0.11023622047244094
          },
          {
            "duration": 0.009114583333333925,
            "durationTicks": 7,
            "midi": 83,
            "name": "B5",
            "ticks": 7710,
            "time": 10.0390625,
            "velocity": 0.10236220472440945
          },
          {
            "duration": 0.12630208333333393,
            "durationTicks": 97,
            "midi": 72,
            "name": "C5",
            "ticks": 7710,
            "time": 10.0390625,
            "velocity": 0.1968503937007874
          },
          {
            "duration": 0.12630208333333393,
            "durationTicks": 97,
            "midi": 46,
            "name": "A#2",
            "ticks": 7719,
            "time": 10.05078125,
            "velocity": 0.2440944881889764
          },
          {
            "duration": 0.12630208333333393,
            "durationTicks": 97,
            "midi": 82,
            "name": "A#5",
            "ticks": 7719,
            "time": 10.05078125,
            "velocity": 0.08661417322834646
          },
          {
            "duration": 0,
            "durationTicks": 0,
            "midi": 79,
            "name": "G5",
            "ticks": 7728,
            "time": 10.0625,
            "velocity": 0.07874015748031496
          },
          {
            "duration": 0,
            "durationTicks": 0,
            "midi": 76,
            "name": "E5",
            "ticks": 7728,
            "time": 10.0625,
            "velocity": 0.11023622047244094
          },
          {
            "duration": 0.125,
            "durationTicks": 96,
            "midi": 65,
            "name": "F4",
            "ticks": 7738,
            "time": 10.075520833333334,
            "velocity": 0.07874015748031496
          },
          {
            "duration": 0,
            "durationTicks": 0,
            "midi": 78,
            "name": "F#5",
            "ticks": 7755,
            "time": 10.09765625,
            "velocity": 0.05511811023622047
          },
          {
            "duration": 0,
            "durationTicks": 0,
            "midi": 75,
            "name": "D#5",
            "ticks": 7764,
            "time": 10.109375,
            "velocity": 0.07874015748031496
          },
          {
            "duration": 0,
            "durationTicks": 0,
            "midi": 73,
            "name": "C#5",
            "ticks": 7782,
            "time": 10.1328125,
            "velocity": 0.09448818897637795
          },
          {
            "duration": 0.125,
            "durationTicks": 96,
            "midi": 58,
            "name": "A#3",
            "ticks": 7782,
            "time": 10.1328125,
            "velocity": 0.14173228346456693
          },
          {
            "duration": 0,
            "durationTicks": 0,
            "midi": 83,
            "name": "B5",
            "ticks": 7782,
            "time": 10.1328125,
            "velocity": 0.11811023622047244
          },
          {
            "duration": 0,
            "durationTicks": 0,
            "midi": 45,
            "name": "A2",
            "ticks": 7782,
            "time": 10.1328125,
            "velocity": 0.2283464566929134
          },
          {
            "duration": 0,
            "durationTicks": 0,
            "midi": 43,
            "name": "G2",
            "ticks": 7809,
            "time": 10.16796875,
            "velocity": 0.1732283464566929
          },
          {
            "duration": 0,
            "durationTicks": 0,
            "midi": 66,
            "name": "F#4",
            "ticks": 7916,
            "time": 10.307291666666666,
            "velocity": 0.16535433070866143
          },
          {
            "duration": 0,
            "durationTicks": 0,
            "midi": 62,
            "name": "D4",
            "ticks": 7916,
            "time": 10.307291666666666,
            "velocity": 0.06299212598425197
          },
          {
            "duration": 0,
            "durationTicks": 0,
            "midi": 41,
            "name": "F2",
            "ticks": 7916,
            "time": 10.307291666666666,
            "velocity": 0.1732283464566929
          },
          {
            "duration": 0,
            "durationTicks": 0,
            "midi": 68,
            "name": "G#4",
            "ticks": 7925,
            "time": 10.319010416666666,
            "velocity": 0.15748031496062992
          },
          {
            "duration": 0.12890625,
            "durationTicks": 99,
            "midi": 82,
            "name": "A#5",
            "ticks": 7925,
            "time": 10.319010416666666,
            "velocity": 0.13385826771653545
          },
          {
            "duration": 0,
            "durationTicks": 0,
            "midi": 58,
            "name": "A#3",
            "ticks": 7925,
            "time": 10.319010416666666,
            "velocity": 0.10236220472440945
          },
          {
            "duration": 0.12890625,
            "durationTicks": 99,
            "midi": 29,
            "name": "F1",
            "ticks": 7925,
            "time": 10.319010416666666,
            "velocity": 0.1889763779527559
          },
          {
            "duration": 0,
            "durationTicks": 0,
            "midi": 76,
            "name": "E5",
            "ticks": 7925,
            "time": 10.319010416666666,
            "velocity": 0.08661417322834646
          },
          {
            "duration": 0,
            "durationTicks": 0,
            "midi": 71,
            "name": "B4",
            "ticks": 7925,
            "time": 10.319010416666666,
            "velocity": 0.12598425196850394
          },
          {
            "duration": 0.11979166666666785,
            "durationTicks": 92,
            "midi": 74,
            "name": "D5",
            "ticks": 7925,
            "time": 10.319010416666666,
            "velocity": 0.14960629921259844
          },
          {
            "duration": 0,
            "durationTicks": 0,
            "midi": 75,
            "name": "D#5",
            "ticks": 7925,
            "time": 10.319010416666666,
            "velocity": 0.07086614173228346
          },
          {
            "duration": 0,
            "durationTicks": 0,
            "midi": 52,
            "name": "E3",
            "ticks": 7925,
            "time": 10.319010416666666,
            "velocity": 0.1889763779527559
          },
          {
            "duration": 0,
            "durationTicks": 0,
            "midi": 67,
            "name": "G4",
            "ticks": 7934,
            "time": 10.330729166666666,
            "velocity": 0.1889763779527559
          },
          {
            "duration": 0,
            "durationTicks": 0,
            "midi": 78,
            "name": "F#5",
            "ticks": 7934,
            "time": 10.330729166666666,
            "velocity": 0.023622047244094488
          },
          {
            "duration": 0.25651041666666785,
            "durationTicks": 197,
            "midi": 72,
            "name": "C5",
            "ticks": 7934,
            "time": 10.330729166666666,
            "velocity": 0.1968503937007874
          },
          {
            "duration": 0.7630208333333339,
            "durationTicks": 586,
            "midi": 65,
            "name": "F4",
            "ticks": 7934,
            "time": 10.330729166666666,
            "velocity": 0.2125984251968504
          },
          {
            "duration": 0.12890625,
            "durationTicks": 99,
            "midi": 70,
            "name": "A#4",
            "ticks": 7944,
            "time": 10.34375,
            "velocity": 0.1732283464566929
          },
          {
            "duration": 0,
            "durationTicks": 0,
            "midi": 45,
            "name": "A2",
            "ticks": 7944,
            "time": 10.34375,
            "velocity": 0.1889763779527559
          },
          {
            "duration": 0,
            "durationTicks": 0,
            "midi": 55,
            "name": "G3",
            "ticks": 7944,
            "time": 10.34375,
            "velocity": 0.13385826771653545
          },
          {
            "duration": 0,
            "durationTicks": 0,
            "midi": 66,
            "name": "F#4",
            "ticks": 7953,
            "time": 10.35546875,
            "velocity": 0.1732283464566929
          },
          {
            "duration": 0,
            "durationTicks": 0,
            "midi": 68,
            "name": "G#4",
            "ticks": 7953,
            "time": 10.35546875,
            "velocity": 0.07874015748031496
          },
          {
            "duration": 0,
            "durationTicks": 0,
            "midi": 56,
            "name": "G#3",
            "ticks": 7962,
            "time": 10.3671875,
            "velocity": 0.11023622047244094
          },
          {
            "duration": 0.12760416666666607,
            "durationTicks": 98,
            "midi": 58,
            "name": "A#3",
            "ticks": 7962,
            "time": 10.3671875,
            "velocity": 0.09448818897637795
          },
          {
            "duration": 0,
            "durationTicks": 0,
            "midi": 53,
            "name": "F3",
            "ticks": 7971,
            "time": 10.37890625,
            "velocity": 0.16535433070866143
          },
          {
            "duration": 0,
            "durationTicks": 0,
            "midi": 73,
            "name": "C#5",
            "ticks": 7981,
            "time": 10.391927083333334,
            "velocity": 0.11023622047244094
          },
          {
            "duration": 0,
            "durationTicks": 0,
            "midi": 43,
            "name": "G2",
            "ticks": 7981,
            "time": 10.391927083333334,
            "velocity": 0.2283464566929134
          },
          {
            "duration": 0,
            "durationTicks": 0,
            "midi": 44,
            "name": "G#2",
            "ticks": 8008,
            "time": 10.427083333333334,
            "velocity": 0.2283464566929134
          },
          {
            "duration": 0.009114583333332149,
            "durationTicks": 7,
            "midi": 74,
            "name": "D5",
            "ticks": 8017,
            "time": 10.438802083333334,
            "velocity": 0.09448818897637795
          },
          {
            "duration": 0.12760416666666607,
            "durationTicks": 98,
            "midi": 53,
            "name": "F3",
            "ticks": 8017,
            "time": 10.438802083333334,
            "velocity": 0.1732283464566929
          },
          {
            "duration": 0.25520833333333215,
            "durationTicks": 196,
            "midi": 83,
            "name": "B5",
            "ticks": 8017,
            "time": 10.438802083333334,
            "velocity": 0.07086614173228346
          },
          {
            "duration": 0.25390625,
            "durationTicks": 195,
            "midi": 45,
            "name": "A2",
            "ticks": 8036,
            "time": 10.463541666666666,
            "velocity": 0.2283464566929134
          },
          {
            "duration": 0.15364583333333393,
            "durationTicks": 118,
            "midi": 73,
            "name": "C#5",
            "ticks": 8036,
            "time": 10.463541666666666,
            "velocity": 0.14173228346456693
          },
          {
            "duration": 0,
            "durationTicks": 0,
            "midi": 75,
            "name": "D#5",
            "ticks": 8045,
            "time": 10.475260416666666,
            "velocity": 0.08661417322834646
          },
          {
            "duration": 0,
            "durationTicks": 0,
            "midi": 76,
            "name": "E5",
            "ticks": 8080,
            "time": 10.520833333333334,
            "velocity": 0.05511811023622047
          },
          {
            "duration": 0.25520833333333215,
            "durationTicks": 196,
            "midi": 60,
            "name": "C4",
            "ticks": 8080,
            "time": 10.520833333333334,
            "velocity": 0.07086614173228346
          },
          {
            "duration": 0,
            "durationTicks": 0,
            "midi": 74,
            "name": "D5",
            "ticks": 8089,
            "time": 10.532552083333334,
            "velocity": 0.12598425196850394
          },
          {
            "duration": 0,
            "durationTicks": 0,
            "midi": 64,
            "name": "E4",
            "ticks": 8089,
            "time": 10.532552083333334,
            "velocity": 0.11811023622047244
          },
          {
            "duration": 0,
            "durationTicks": 0,
            "midi": 68,
            "name": "G#4",
            "ticks": 8099,
            "time": 10.545572916666666,
            "velocity": 0.11023622047244094
          },
          {
            "duration": 0,
            "durationTicks": 0,
            "midi": 74,
            "name": "D5",
            "ticks": 8099,
            "time": 10.545572916666666,
            "velocity": 0.09448818897637795
          },
          {
            "duration": 0.12760416666666785,
            "durationTicks": 98,
            "midi": 70,
            "name": "A#4",
            "ticks": 8108,
            "time": 10.557291666666666,
            "velocity": 0.14173228346456693
          },
          {
            "duration": 0,
            "durationTicks": 0,
            "midi": 75,
            "name": "D#5",
            "ticks": 8117,
            "time": 10.569010416666666,
            "velocity": 0.11023622047244094
          },
          {
            "duration": 0,
            "durationTicks": 0,
            "midi": 66,
            "name": "F#4",
            "ticks": 8127,
            "time": 10.58203125,
            "velocity": 0.12598425196850394
          },
          {
            "duration": 0,
            "durationTicks": 0,
            "midi": 76,
            "name": "E5",
            "ticks": 8136,
            "time": 10.59375,
            "velocity": 0.023622047244094488
          },
          {
            "duration": 0.2513020833333339,
            "durationTicks": 193,
            "midi": 67,
            "name": "G4",
            "ticks": 8145,
            "time": 10.60546875,
            "velocity": 0.15748031496062992
          },
          {
            "duration": 0.10026041666666607,
            "durationTicks": 77,
            "midi": 73,
            "name": "C#5",
            "ticks": 8154,
            "time": 10.6171875,
            "velocity": 0.03937007874015748
          },
          {
            "duration": 0.125,
            "durationTicks": 96,
            "midi": 53,
            "name": "F3",
            "ticks": 8164,
            "time": 10.630208333333334,
            "velocity": 0.06299212598425197
          },
          {
            "duration": 0.12630208333333393,
            "durationTicks": 97,
            "midi": 55,
            "name": "G3",
            "ticks": 8181,
            "time": 10.65234375,
            "velocity": 0.12598425196850394
          },
          {
            "duration": 0,
            "durationTicks": 0,
            "midi": 79,
            "name": "G5",
            "ticks": 8208,
            "time": 10.6875,
            "velocity": 0.06299212598425197
          },
          {
            "duration": 0,
            "durationTicks": 0,
            "midi": 78,
            "name": "F#5",
            "ticks": 8208,
            "time": 10.6875,
            "velocity": 0.05511811023622047
          },
          {
            "duration": 0,
            "durationTicks": 0,
            "midi": 44,
            "name": "G#2",
            "ticks": 8208,
            "time": 10.6875,
            "velocity": 0.08661417322834646
          },
          {
            "duration": 0,
            "durationTicks": 0,
            "midi": 58,
            "name": "A#3",
            "ticks": 8218,
            "time": 10.700520833333334,
            "velocity": 0.03937007874015748
          },
          {
            "duration": 0,
            "durationTicks": 0,
            "midi": 43,
            "name": "G2",
            "ticks": 8235,
            "time": 10.72265625,
            "velocity": 0.05511811023622047
          },
          {
            "duration": 0,
            "durationTicks": 0,
            "midi": 54,
            "name": "F#3",
            "ticks": 8262,
            "time": 10.7578125,
            "velocity": 0.2283464566929134
          },
          {
            "duration": 0,
            "durationTicks": 0,
            "midi": 68,
            "name": "G#4",
            "ticks": 8262,
            "time": 10.7578125,
            "velocity": 0.09448818897637795
          },
          {
            "duration": 0,
            "durationTicks": 0,
            "midi": 74,
            "name": "D5",
            "ticks": 8271,
            "time": 10.76953125,
            "velocity": 0.07086614173228346
          },
          {
            "duration": 0,
            "durationTicks": 0,
            "midi": 83,
            "name": "B5",
            "ticks": 8271,
            "time": 10.76953125,
            "velocity": 0.08661417322834646
          },
          {
            "duration": 0,
            "durationTicks": 0,
            "midi": 76,
            "name": "E5",
            "ticks": 8271,
            "time": 10.76953125,
            "velocity": 0.07086614173228346
          },
          {
            "duration": 0,
            "durationTicks": 0,
            "midi": 73,
            "name": "C#5",
            "ticks": 8271,
            "time": 10.76953125,
            "velocity": 0.03937007874015748
          },
          {
            "duration": 0.125,
            "durationTicks": 96,
            "midi": 72,
            "name": "C5",
            "ticks": 8271,
            "time": 10.76953125,
            "velocity": 0.14173228346456693
          },
          {
            "duration": 0,
            "durationTicks": 0,
            "midi": 71,
            "name": "B4",
            "ticks": 8271,
            "time": 10.76953125,
            "velocity": 0.08661417322834646
          },
          {
            "duration": 0,
            "durationTicks": 0,
            "midi": 70,
            "name": "A#4",
            "ticks": 8281,
            "time": 10.782552083333334,
            "velocity": 0.12598425196850394
          },
          {
            "duration": 0.37630208333333215,
            "durationTicks": 289,
            "midi": 57,
            "name": "A3",
            "ticks": 8281,
            "time": 10.782552083333334,
            "velocity": 0.23622047244094488
          },
          {
            "duration": 0.2526041666666661,
            "durationTicks": 194,
            "midi": 45,
            "name": "A2",
            "ticks": 8281,
            "time": 10.782552083333334,
            "velocity": 0.2283464566929134
          },
          {
            "duration": 0.125,
            "durationTicks": 96,
            "midi": 74,
            "name": "D5",
            "ticks": 8281,
            "time": 10.782552083333334,
            "velocity": 0.11023622047244094
          },
          {
            "duration": 0,
            "durationTicks": 0,
            "midi": 81,
            "name": "A5",
            "ticks": 8281,
            "time": 10.782552083333334,
            "velocity": 0.05511811023622047
          },
          {
            "duration": 0.125,
            "durationTicks": 96,
            "midi": 53,
            "name": "F3",
            "ticks": 8308,
            "time": 10.817708333333334,
            "velocity": 0.11811023622047244
          },
          {
            "duration": 0.140625,
            "durationTicks": 108,
            "midi": 76,
            "name": "E5",
            "ticks": 8325,
            "time": 10.83984375,
            "velocity": 0.08661417322834646
          },
          {
            "duration": 0.10677083333333393,
            "durationTicks": 82,
            "midi": 74,
            "name": "D5",
            "ticks": 8360,
            "time": 10.885416666666666,
            "velocity": 0.14960629921259844
          },
          {
            "duration": 0,
            "durationTicks": 0,
            "midi": 73,
            "name": "C#5",
            "ticks": 8379,
            "time": 10.91015625,
            "velocity": 0.03937007874015748
          },
          {
            "duration": 0.12890625,
            "durationTicks": 99,
            "midi": 81,
            "name": "A5",
            "ticks": 8424,
            "time": 10.96875,
            "velocity": 0.12598425196850394
          },
          {
            "duration": 0.12890625,
            "durationTicks": 99,
            "midi": 79,
            "name": "G5",
            "ticks": 8424,
            "time": 10.96875,
            "velocity": 0.10236220472440945
          },
          {
            "duration": 0.12890625,
            "durationTicks": 99,
            "midi": 83,
            "name": "B5",
            "ticks": 8424,
            "time": 10.96875,
            "velocity": 0.10236220472440945
          },
          {
            "duration": 0,
            "durationTicks": 0,
            "midi": 67,
            "name": "G4",
            "ticks": 8433,
            "time": 10.98046875,
            "velocity": 0.11023622047244094
          },
          {
            "duration": 0.11328125,
            "durationTicks": 87,
            "midi": 76,
            "name": "E5",
            "ticks": 8433,
            "time": 10.98046875,
            "velocity": 0.031496062992125984
          },
          {
            "duration": 0.12890625,
            "durationTicks": 99,
            "midi": 73,
            "name": "C#5",
            "ticks": 8433,
            "time": 10.98046875,
            "velocity": 0.11023622047244094
          },
          {
            "duration": 0.020833333333333925,
            "durationTicks": 16,
            "midi": 74,
            "name": "D5",
            "ticks": 8442,
            "time": 10.9921875,
            "velocity": 0.06299212598425197
          },
          {
            "duration": 0,
            "durationTicks": 0,
            "midi": 53,
            "name": "F3",
            "ticks": 8442,
            "time": 10.9921875,
            "velocity": 0.14960629921259844
          },
          {
            "duration": 0,
            "durationTicks": 0,
            "midi": 75,
            "name": "D#5",
            "ticks": 8442,
            "time": 10.9921875,
            "velocity": 0.14173228346456693
          },
          {
            "duration": 0,
            "durationTicks": 0,
            "midi": 72,
            "name": "C5",
            "ticks": 8451,
            "time": 11.00390625,
            "velocity": 0.11811023622047244
          },
          {
            "duration": 0,
            "durationTicks": 0,
            "midi": 70,
            "name": "A#4",
            "ticks": 8461,
            "time": 11.016927083333334,
            "velocity": 0.10236220472440945
          },
          {
            "duration": 0,
            "durationTicks": 0,
            "midi": 66,
            "name": "F#4",
            "ticks": 8470,
            "time": 11.028645833333334,
            "velocity": 0.08661417322834646
          },
          {
            "duration": 0,
            "durationTicks": 0,
            "midi": 74,
            "name": "D5",
            "ticks": 8479,
            "time": 11.040364583333334,
            "velocity": 0.12598425196850394
          },
          {
            "duration": 0,
            "durationTicks": 0,
            "midi": 44,
            "name": "G#2",
            "ticks": 8489,
            "time": 11.053385416666666,
            "velocity": 0.1968503937007874
          },
          {
            "duration": 0,
            "durationTicks": 0,
            "midi": 64,
            "name": "E4",
            "ticks": 8498,
            "time": 11.065104166666666,
            "velocity": 0.08661417322834646
          },
          {
            "duration": 0,
            "durationTicks": 0,
            "midi": 42,
            "name": "F#2",
            "ticks": 8516,
            "time": 11.088541666666666,
            "velocity": 0.1732283464566929
          },
          {
            "duration": 0,
            "durationTicks": 0,
            "midi": 41,
            "name": "F2",
            "ticks": 8534,
            "time": 11.111979166666666,
            "velocity": 0.15748031496062992
          },
          {
            "duration": 0.00390625,
            "durationTicks": 3,
            "midi": 57,
            "name": "A3",
            "ticks": 8570,
            "time": 11.158854166666666,
            "velocity": 0.03937007874015748
          },
          {
            "duration": 0,
            "durationTicks": 0,
            "midi": 35,
            "name": "B1",
            "ticks": 8580,
            "time": 11.171875,
            "velocity": 0.14173228346456693
          },
          {
            "duration": 0,
            "durationTicks": 0,
            "midi": 53,
            "name": "F3",
            "ticks": 8589,
            "time": 11.18359375,
            "velocity": 0.14173228346456693
          },
          {
            "duration": 0,
            "durationTicks": 0,
            "midi": 80,
            "name": "G#5",
            "ticks": 8598,
            "time": 11.1953125,
            "velocity": 0.13385826771653545
          },
          {
            "duration": 0,
            "durationTicks": 0,
            "midi": 72,
            "name": "C5",
            "ticks": 8598,
            "time": 11.1953125,
            "velocity": 0.08661417322834646
          },
          {
            "duration": 0,
            "durationTicks": 0,
            "midi": 79,
            "name": "G5",
            "ticks": 8598,
            "time": 11.1953125,
            "velocity": 0.14960629921259844
          },
          {
            "duration": 0,
            "durationTicks": 0,
            "midi": 65,
            "name": "F4",
            "ticks": 8598,
            "time": 11.1953125,
            "velocity": 0.14960629921259844
          },
          {
            "duration": 0.12890625,
            "durationTicks": 99,
            "midi": 83,
            "name": "B5",
            "ticks": 8608,
            "time": 11.208333333333334,
            "velocity": 0.09448818897637795
          },
          {
            "duration": 0,
            "durationTicks": 0,
            "midi": 67,
            "name": "G4",
            "ticks": 8608,
            "time": 11.208333333333334,
            "velocity": 0.10236220472440945
          },
          {
            "duration": 0.12890625,
            "durationTicks": 99,
            "midi": 73,
            "name": "C#5",
            "ticks": 8608,
            "time": 11.208333333333334,
            "velocity": 0.09448818897637795
          },
          {
            "duration": 0.12890625,
            "durationTicks": 99,
            "midi": 78,
            "name": "F#5",
            "ticks": 8608,
            "time": 11.208333333333334,
            "velocity": 0.11023622047244094
          },
          {
            "duration": 0,
            "durationTicks": 0,
            "midi": 76,
            "name": "E5",
            "ticks": 8617,
            "time": 11.220052083333334,
            "velocity": 0.031496062992125984
          },
          {
            "duration": 0,
            "durationTicks": 0,
            "midi": 56,
            "name": "G#3",
            "ticks": 8617,
            "time": 11.220052083333334,
            "velocity": 0.2047244094488189
          },
          {
            "duration": 0.12890625,
            "durationTicks": 99,
            "midi": 75,
            "name": "D#5",
            "ticks": 8617,
            "time": 11.220052083333334,
            "velocity": 0.15748031496062992
          },
          {
            "duration": 0.12890625,
            "durationTicks": 99,
            "midi": 81,
            "name": "A5",
            "ticks": 8617,
            "time": 11.220052083333334,
            "velocity": 0.12598425196850394
          },
          {
            "duration": 0,
            "durationTicks": 0,
            "midi": 74,
            "name": "D5",
            "ticks": 8626,
            "time": 11.231770833333334,
            "velocity": 0.03937007874015748
          },
          {
            "duration": 0,
            "durationTicks": 0,
            "midi": 46,
            "name": "A#2",
            "ticks": 8626,
            "time": 11.231770833333334,
            "velocity": 0.1889763779527559
          },
          {
            "duration": 0.12890625,
            "durationTicks": 99,
            "midi": 72,
            "name": "C5",
            "ticks": 8626,
            "time": 11.231770833333334,
            "velocity": 0.11811023622047244
          },
          {
            "duration": 0,
            "durationTicks": 0,
            "midi": 70,
            "name": "A#4",
            "ticks": 8626,
            "time": 11.231770833333334,
            "velocity": 0.07874015748031496
          },
          {
            "duration": 0,
            "durationTicks": 0,
            "midi": 66,
            "name": "F#4",
            "ticks": 8636,
            "time": 11.244791666666666,
            "velocity": 0.09448818897637795
          },
          {
            "duration": 0.12890625,
            "durationTicks": 99,
            "midi": 67,
            "name": "G4",
            "ticks": 8645,
            "time": 11.256510416666666,
            "velocity": 0.14960629921259844
          },
          {
            "duration": 0.12890625,
            "durationTicks": 99,
            "midi": 60,
            "name": "C4",
            "ticks": 8645,
            "time": 11.256510416666666,
            "velocity": 0.2440944881889764
          },
          {
            "duration": 0,
            "durationTicks": 0,
            "midi": 65,
            "name": "F4",
            "ticks": 8654,
            "time": 11.268229166666666,
            "velocity": 0.07086614173228346
          },
          {
            "duration": 0,
            "durationTicks": 0,
            "midi": 47,
            "name": "B2",
            "ticks": 8654,
            "time": 11.268229166666666,
            "velocity": 0.14173228346456693
          },
          {
            "duration": 0.12890625,
            "durationTicks": 99,
            "midi": 53,
            "name": "F3",
            "ticks": 8654,
            "time": 11.268229166666666,
            "velocity": 0.07086614173228346
          },
          {
            "duration": 0.12890625,
            "durationTicks": 99,
            "midi": 77,
            "name": "F5",
            "ticks": 8663,
            "time": 11.279947916666666,
            "velocity": 0.09448818897637795
          },
          {
            "duration": 0,
            "durationTicks": 0,
            "midi": 76,
            "name": "E5",
            "ticks": 8663,
            "time": 11.279947916666666,
            "velocity": 0.08661417322834646
          },
          {
            "duration": 0,
            "durationTicks": 0,
            "midi": 79,
            "name": "G5",
            "ticks": 8663,
            "time": 11.279947916666666,
            "velocity": 0.06299212598425197
          },
          {
            "duration": 0.12890625,
            "durationTicks": 99,
            "midi": 48,
            "name": "C3",
            "ticks": 8673,
            "time": 11.29296875,
            "velocity": 0.14173228346456693
          },
          {
            "duration": 0,
            "durationTicks": 0,
            "midi": 76,
            "name": "E5",
            "ticks": 8673,
            "time": 11.29296875,
            "velocity": 0.1889763779527559
          },
          {
            "duration": 0,
            "durationTicks": 0,
            "midi": 76,
            "name": "E5",
            "ticks": 8709,
            "time": 11.33984375,
            "velocity": 0.12598425196850394
          },
          {
            "duration": 0,
            "durationTicks": 0,
            "midi": 78,
            "name": "F#5",
            "ticks": 8737,
            "time": 11.376302083333334,
            "velocity": 0.03937007874015748
          },
          {
            "duration": 0,
            "durationTicks": 0,
            "midi": 68,
            "name": "G#4",
            "ticks": 8755,
            "time": 11.399739583333334,
            "velocity": 0.05511811023622047
          },
          {
            "duration": 0,
            "durationTicks": 0,
            "midi": 49,
            "name": "C#3",
            "ticks": 8755,
            "time": 11.399739583333334,
            "velocity": 0.16535433070866143
          },
          {
            "duration": 0,
            "durationTicks": 0,
            "midi": 67,
            "name": "G4",
            "ticks": 8765,
            "time": 11.412760416666666,
            "velocity": 0.031496062992125984
          },
          {
            "duration": 0.25390625,
            "durationTicks": 195,
            "midi": 50,
            "name": "D3",
            "ticks": 8783,
            "time": 11.436197916666666,
            "velocity": 0.2047244094488189
          },
          {
            "duration": 0.25390625,
            "durationTicks": 195,
            "midi": 69,
            "name": "A4",
            "ticks": 8783,
            "time": 11.436197916666666,
            "velocity": 0.09448818897637795
          },
          {
            "duration": 0,
            "durationTicks": 0,
            "midi": 72,
            "name": "C5",
            "ticks": 8793,
            "time": 11.44921875,
            "velocity": 0.07874015748031496
          },
          {
            "duration": 0,
            "durationTicks": 0,
            "midi": 65,
            "name": "F4",
            "ticks": 8802,
            "time": 11.4609375,
            "velocity": 0.10236220472440945
          },
          {
            "duration": 0.12630208333333393,
            "durationTicks": 97,
            "midi": 72,
            "name": "C5",
            "ticks": 8829,
            "time": 11.49609375,
            "velocity": 0.10236220472440945
          },
          {
            "duration": 0.12630208333333393,
            "durationTicks": 97,
            "midi": 74,
            "name": "D5",
            "ticks": 8838,
            "time": 11.5078125,
            "velocity": 0.10236220472440945
          },
          {
            "duration": 0,
            "durationTicks": 0,
            "midi": 78,
            "name": "F#5",
            "ticks": 8883,
            "time": 11.56640625,
            "velocity": 0.08661417322834646
          },
          {
            "duration": 0.19791666666666607,
            "durationTicks": 152,
            "midi": 76,
            "name": "E5",
            "ticks": 8892,
            "time": 11.578125,
            "velocity": 0.12598425196850394
          },
          {
            "duration": 0.12760416666666607,
            "durationTicks": 98,
            "midi": 74,
            "name": "D5",
            "ticks": 8910,
            "time": 11.6015625,
            "velocity": 0.2047244094488189
          },
          {
            "duration": 0,
            "durationTicks": 0,
            "midi": 78,
            "name": "F#5",
            "ticks": 8919,
            "time": 11.61328125,
            "velocity": 0.06299212598425197
          },
          {
            "duration": 0,
            "durationTicks": 0,
            "midi": 61,
            "name": "C#4",
            "ticks": 8928,
            "time": 11.625,
            "velocity": 0.1889763779527559
          },
          {
            "duration": 0,
            "durationTicks": 0,
            "midi": 77,
            "name": "F5",
            "ticks": 8928,
            "time": 11.625,
            "velocity": 0.07874015748031496
          },
          {
            "duration": 0,
            "durationTicks": 0,
            "midi": 49,
            "name": "C#3",
            "ticks": 8937,
            "time": 11.63671875,
            "velocity": 0.2047244094488189
          },
          {
            "duration": 0.12630208333333393,
            "durationTicks": 97,
            "midi": 79,
            "name": "G5",
            "ticks": 8937,
            "time": 11.63671875,
            "velocity": 0.15748031496062992
          },
          {
            "duration": 0,
            "durationTicks": 0,
            "midi": 80,
            "name": "G#5",
            "ticks": 8937,
            "time": 11.63671875,
            "velocity": 0.10236220472440945
          },
          {
            "duration": 0,
            "durationTicks": 0,
            "midi": 75,
            "name": "D#5",
            "ticks": 8937,
            "time": 11.63671875,
            "velocity": 0.09448818897637795
          },
          {
            "duration": 0.12630208333333393,
            "durationTicks": 97,
            "midi": 82,
            "name": "A#5",
            "ticks": 8937,
            "time": 11.63671875,
            "velocity": 0.1732283464566929
          },
          {
            "duration": 0.25130208333333215,
            "durationTicks": 193,
            "midi": 67,
            "name": "G4",
            "ticks": 8947,
            "time": 11.649739583333334,
            "velocity": 0.14173228346456693
          },
          {
            "duration": 0.12630208333333215,
            "durationTicks": 97,
            "midi": 72,
            "name": "C5",
            "ticks": 8947,
            "time": 11.649739583333334,
            "velocity": 0.10236220472440945
          },
          {
            "duration": 0.18098958333333215,
            "durationTicks": 139,
            "midi": 76,
            "name": "E5",
            "ticks": 8947,
            "time": 11.649739583333334,
            "velocity": 0.1732283464566929
          },
          {
            "duration": 0.25130208333333215,
            "durationTicks": 193,
            "midi": 60,
            "name": "C4",
            "ticks": 8956,
            "time": 11.661458333333334,
            "velocity": 0.25984251968503935
          },
          {
            "duration": 0.25130208333333215,
            "durationTicks": 193,
            "midi": 48,
            "name": "C3",
            "ticks": 8965,
            "time": 11.673177083333334,
            "velocity": 0.16535433070866143
          },
          {
            "duration": 0,
            "durationTicks": 0,
            "midi": 65,
            "name": "F4",
            "ticks": 8965,
            "time": 11.673177083333334,
            "velocity": 0.03937007874015748
          },
          {
            "duration": 0,
            "durationTicks": 0,
            "midi": 49,
            "name": "C#3",
            "ticks": 9118,
            "time": 11.872395833333334,
            "velocity": 0.12598425196850394
          },
          {
            "duration": 0,
            "durationTicks": 0,
            "midi": 50,
            "name": "D3",
            "ticks": 9135,
            "time": 11.89453125,
            "velocity": 0.1968503937007874
          },
          {
            "duration": 0,
            "durationTicks": 0,
            "midi": 69,
            "name": "A4",
            "ticks": 9135,
            "time": 11.89453125,
            "velocity": 0.10236220472440945
          },
          {
            "duration": 0,
            "durationTicks": 0,
            "midi": 78,
            "name": "F#5",
            "ticks": 9154,
            "time": 11.919270833333334,
            "velocity": 0.09448818897637795
          },
          {
            "duration": 0,
            "durationTicks": 0,
            "midi": 72,
            "name": "C5",
            "ticks": 9163,
            "time": 11.930989583333334,
            "velocity": 0.05511811023622047
          },
          {
            "duration": 0,
            "durationTicks": 0,
            "midi": 48,
            "name": "C3",
            "ticks": 9181,
            "time": 11.954427083333334,
            "velocity": 0.13385826771653545
          },
          {
            "duration": 0.125,
            "durationTicks": 96,
            "midi": 79,
            "name": "G5",
            "ticks": 9190,
            "time": 11.966145833333334,
            "velocity": 0.08661417322834646
          },
          {
            "duration": 0,
            "durationTicks": 0,
            "midi": 66,
            "name": "F#4",
            "ticks": 9288,
            "time": 12.09375,
            "velocity": 0.09448818897637795
          },
          {
            "duration": 0,
            "durationTicks": 0,
            "midi": 52,
            "name": "E3",
            "ticks": 9288,
            "time": 12.09375,
            "velocity": 0.1968503937007874
          },
          {
            "duration": 0.12630208333333393,
            "durationTicks": 97,
            "midi": 79,
            "name": "G5",
            "ticks": 9288,
            "time": 12.09375,
            "velocity": 0.09448818897637795
          },
          {
            "duration": 0.2526041666666661,
            "durationTicks": 194,
            "midi": 65,
            "name": "F4",
            "ticks": 9288,
            "time": 12.09375,
            "velocity": 0.14173228346456693
          },
          {
            "duration": 0,
            "durationTicks": 0,
            "midi": 62,
            "name": "D4",
            "ticks": 9298,
            "time": 12.106770833333334,
            "velocity": 0.18110236220472442
          },
          {
            "duration": 0,
            "durationTicks": 0,
            "midi": 69,
            "name": "A4",
            "ticks": 9298,
            "time": 12.106770833333334,
            "velocity": 0.08661417322834646
          },
          {
            "duration": 0.5052083333333321,
            "durationTicks": 388,
            "midi": 58,
            "name": "A#3",
            "ticks": 9298,
            "time": 12.106770833333334,
            "velocity": 0.2677165354330709
          },
          {
            "duration": 0.01171875,
            "durationTicks": 9,
            "midi": 72,
            "name": "C5",
            "ticks": 9298,
            "time": 12.106770833333334,
            "velocity": 0.06299212598425197
          },
          {
            "duration": 0.24088541666666607,
            "durationTicks": 185,
            "midi": 72,
            "name": "C5",
            "ticks": 9307,
            "time": 12.118489583333334,
            "velocity": 0.06299212598425197
          },
          {
            "duration": 0,
            "durationTicks": 0,
            "midi": 68,
            "name": "G#4",
            "ticks": 9307,
            "time": 12.118489583333334,
            "velocity": 0.11811023622047244
          },
          {
            "duration": 0.3776041666666661,
            "durationTicks": 290,
            "midi": 46,
            "name": "A#2",
            "ticks": 9307,
            "time": 12.118489583333334,
            "velocity": 0.2125984251968504
          },
          {
            "duration": 0.3776041666666661,
            "durationTicks": 290,
            "midi": 50,
            "name": "D3",
            "ticks": 9316,
            "time": 12.130208333333334,
            "velocity": 0.1968503937007874
          },
          {
            "duration": 1.514322916666666,
            "durationTicks": 1163,
            "midi": 82,
            "name": "A#5",
            "ticks": 9316,
            "time": 12.130208333333334,
            "velocity": 0.1732283464566929
          },
          {
            "duration": 0,
            "durationTicks": 0,
            "midi": 61,
            "name": "C#4",
            "ticks": 9316,
            "time": 12.130208333333334,
            "velocity": 0.15748031496062992
          },
          {
            "duration": 0.125,
            "durationTicks": 96,
            "midi": 69,
            "name": "A4",
            "ticks": 9325,
            "time": 12.141927083333334,
            "velocity": 0.14960629921259844
          },
          {
            "duration": 0.25130208333333215,
            "durationTicks": 193,
            "midi": 75,
            "name": "D#5",
            "ticks": 9325,
            "time": 12.141927083333334,
            "velocity": 0.07086614173228346
          },
          {
            "duration": 0,
            "durationTicks": 0,
            "midi": 73,
            "name": "C#5",
            "ticks": 9325,
            "time": 12.141927083333334,
            "velocity": 0.09448818897637795
          },
          {
            "duration": 1.260416666666666,
            "durationTicks": 968,
            "midi": 78,
            "name": "F#5",
            "ticks": 9352,
            "time": 12.177083333333334,
            "velocity": 0.08661417322834646
          },
          {
            "duration": 1.4114583333333321,
            "durationTicks": 1084,
            "midi": 74,
            "name": "D5",
            "ticks": 9370,
            "time": 12.200520833333334,
            "velocity": 0.09448818897637795
          },
          {
            "duration": 1.89453125,
            "durationTicks": 1455,
            "midi": 80,
            "name": "G#5",
            "ticks": 9388,
            "time": 12.223958333333334,
            "velocity": 0.11023622047244094
          },
          {
            "duration": 0,
            "durationTicks": 0,
            "midi": 53,
            "name": "F3",
            "ticks": 9424,
            "time": 12.270833333333334,
            "velocity": 0.09448818897637795
          },
          {
            "duration": 0,
            "durationTicks": 0,
            "midi": 53,
            "name": "F3",
            "ticks": 9451,
            "time": 12.305989583333334,
            "velocity": 0.08661417322834646
          },
          {
            "duration": 0.12630208333333215,
            "durationTicks": 97,
            "midi": 69,
            "name": "A4",
            "ticks": 9478,
            "time": 12.341145833333334,
            "velocity": 0.11811023622047244
          },
          {
            "duration": 0.24739583333333215,
            "durationTicks": 190,
            "midi": 53,
            "name": "F3",
            "ticks": 9478,
            "time": 12.341145833333334,
            "velocity": 0.13385826771653545
          },
          {
            "duration": 0,
            "durationTicks": 0,
            "midi": 76,
            "name": "E5",
            "ticks": 9478,
            "time": 12.341145833333334,
            "velocity": 0.07086614173228346
          },
          {
            "duration": 0.2526041666666661,
            "durationTicks": 194,
            "midi": 72,
            "name": "C5",
            "ticks": 9496,
            "time": 12.364583333333334,
            "velocity": 0.047244094488188976
          },
          {
            "duration": 0.12630208333333215,
            "durationTicks": 97,
            "midi": 75,
            "name": "D#5",
            "ticks": 9550,
            "time": 12.434895833333334,
            "velocity": 0.08661417322834646
          },
          {
            "duration": 2.276041666666666,
            "durationTicks": 1748,
            "midi": 46,
            "name": "A#2",
            "ticks": 9604,
            "time": 12.505208333333334,
            "velocity": 0.2755905511811024
          },
          {
            "duration": 0,
            "durationTicks": 0,
            "midi": 62,
            "name": "D4",
            "ticks": 9631,
            "time": 12.540364583333334,
            "velocity": 0.1732283464566929
          },
          {
            "duration": 0,
            "durationTicks": 0,
            "midi": 73,
            "name": "C#5",
            "ticks": 9631,
            "time": 12.540364583333334,
            "velocity": 0.05511811023622047
          },
          {
            "duration": 0.12630208333333215,
            "durationTicks": 97,
            "midi": 69,
            "name": "A4",
            "ticks": 9640,
            "time": 12.552083333333334,
            "velocity": 0.13385826771653545
          },
          {
            "duration": 0.25390625,
            "durationTicks": 195,
            "midi": 50,
            "name": "D3",
            "ticks": 9640,
            "time": 12.552083333333334,
            "velocity": 0.15748031496062992
          },
          {
            "duration": 0,
            "durationTicks": 0,
            "midi": 61,
            "name": "C#4",
            "ticks": 9659,
            "time": 12.576822916666666,
            "velocity": 0.14173228346456693
          },
          {
            "duration": 0,
            "durationTicks": 0,
            "midi": 76,
            "name": "E5",
            "ticks": 9659,
            "time": 12.576822916666666,
            "velocity": 0.07086614173228346
          },
          {
            "duration": 0.006510416666667851,
            "durationTicks": 5,
            "midi": 53,
            "name": "F3",
            "ticks": 9668,
            "time": 12.588541666666666,
            "velocity": 0.08661417322834646
          },
          {
            "duration": 0,
            "durationTicks": 0,
            "midi": 57,
            "name": "A3",
            "ticks": 9686,
            "time": 12.611979166666666,
            "velocity": 0.13385826771653545
          },
          {
            "duration": 0,
            "durationTicks": 0,
            "midi": 76,
            "name": "E5",
            "ticks": 9712,
            "time": 12.645833333333334,
            "velocity": 0.06299212598425197
          },
          {
            "duration": 0,
            "durationTicks": 0,
            "midi": 72,
            "name": "C5",
            "ticks": 9749,
            "time": 12.694010416666666,
            "velocity": 0.023622047244094488
          },
          {
            "duration": 0,
            "durationTicks": 0,
            "midi": 75,
            "name": "D#5",
            "ticks": 9758,
            "time": 12.705729166666666,
            "velocity": 0.07086614173228346
          },
          {
            "duration": 0.9869791666666679,
            "durationTicks": 758,
            "midi": 74,
            "name": "D5",
            "ticks": 9776,
            "time": 12.729166666666666,
            "velocity": 0.09448818897637795
          },
          {
            "duration": 0.12760416666666785,
            "durationTicks": 98,
            "midi": 76,
            "name": "E5",
            "ticks": 9785,
            "time": 12.740885416666666,
            "velocity": 0.08661417322834646
          },
          {
            "duration": 0,
            "durationTicks": 0,
            "midi": 62,
            "name": "D4",
            "ticks": 9803,
            "time": 12.764322916666666,
            "velocity": 0.13385826771653545
          },
          {
            "duration": 0.12760416666666785,
            "durationTicks": 98,
            "midi": 50,
            "name": "D3",
            "ticks": 9812,
            "time": 12.776041666666666,
            "velocity": 0.12598425196850394
          },
          {
            "duration": 0.12760416666666785,
            "durationTicks": 98,
            "midi": 69,
            "name": "A4",
            "ticks": 9821,
            "time": 12.787760416666666,
            "velocity": 0.09448818897637795
          },
          {
            "duration": 0,
            "durationTicks": 0,
            "midi": 61,
            "name": "C#4",
            "ticks": 9830,
            "time": 12.799479166666666,
            "velocity": 0.08661417322834646
          },
          {
            "duration": 0,
            "durationTicks": 0,
            "midi": 53,
            "name": "F3",
            "ticks": 9840,
            "time": 12.8125,
            "velocity": 0.07086614173228346
          },
          {
            "duration": 0.12630208333333393,
            "durationTicks": 97,
            "midi": 72,
            "name": "C5",
            "ticks": 9849,
            "time": 12.82421875,
            "velocity": 0.03937007874015748
          },
          {
            "duration": 0,
            "durationTicks": 0,
            "midi": 76,
            "name": "E5",
            "ticks": 9885,
            "time": 12.87109375,
            "velocity": 0.08661417322834646
          },
          {
            "duration": 0,
            "durationTicks": 0,
            "midi": 50,
            "name": "D3",
            "ticks": 9931,
            "time": 12.930989583333334,
            "velocity": 0.03937007874015748
          },
          {
            "duration": 0,
            "durationTicks": 0,
            "midi": 75,
            "name": "D#5",
            "ticks": 9931,
            "time": 12.930989583333334,
            "velocity": 0.06299212598425197
          },
          {
            "duration": 0.25130208333333215,
            "durationTicks": 193,
            "midi": 76,
            "name": "E5",
            "ticks": 9958,
            "time": 12.966145833333334,
            "velocity": 0.09448818897637795
          },
          {
            "duration": 0,
            "durationTicks": 0,
            "midi": 50,
            "name": "D3",
            "ticks": 9975,
            "time": 12.98828125,
            "velocity": 0.11811023622047244
          },
          {
            "duration": 0,
            "durationTicks": 0,
            "midi": 62,
            "name": "D4",
            "ticks": 9975,
            "time": 12.98828125,
            "velocity": 0.14173228346456693
          },
          {
            "duration": 0.12630208333333393,
            "durationTicks": 97,
            "midi": 72,
            "name": "C5",
            "ticks": 9975,
            "time": 12.98828125,
            "velocity": 0.05511811023622047
          },
          {
            "duration": 0.12630208333333215,
            "durationTicks": 97,
            "midi": 69,
            "name": "A4",
            "ticks": 9985,
            "time": 13.001302083333334,
            "velocity": 0.11023622047244094
          },
          {
            "duration": 0,
            "durationTicks": 0,
            "midi": 66,
            "name": "F#4",
            "ticks": 9994,
            "time": 13.013020833333334,
            "velocity": 0.08661417322834646
          },
          {
            "duration": 0,
            "durationTicks": 0,
            "midi": 61,
            "name": "C#4",
            "ticks": 10003,
            "time": 13.024739583333334,
            "velocity": 0.10236220472440945
          },
          {
            "duration": 0,
            "durationTicks": 0,
            "midi": 64,
            "name": "E4",
            "ticks": 10003,
            "time": 13.024739583333334,
            "velocity": 0.12598425196850394
          },
          {
            "duration": 0,
            "durationTicks": 0,
            "midi": 50,
            "name": "D3",
            "ticks": 10003,
            "time": 13.024739583333334,
            "velocity": 0.11811023622047244
          },
          {
            "duration": 0.62890625,
            "durationTicks": 483,
            "midi": 65,
            "name": "F4",
            "ticks": 10030,
            "time": 13.059895833333334,
            "velocity": 0.14173228346456693
          },
          {
            "duration": 0.125,
            "durationTicks": 96,
            "midi": 72,
            "name": "C5",
            "ticks": 10101,
            "time": 13.15234375,
            "velocity": 0.06299212598425197
          },
          {
            "duration": 0,
            "durationTicks": 0,
            "midi": 62,
            "name": "D4",
            "ticks": 10146,
            "time": 13.2109375,
            "velocity": 0.09448818897637795
          },
          {
            "duration": 0,
            "durationTicks": 0,
            "midi": 53,
            "name": "F3",
            "ticks": 10173,
            "time": 13.24609375,
            "velocity": 0.06299212598425197
          },
          {
            "duration": 0,
            "durationTicks": 0,
            "midi": 75,
            "name": "D#5",
            "ticks": 10173,
            "time": 13.24609375,
            "velocity": 0.07086614173228346
          },
          {
            "duration": 0.125,
            "durationTicks": 96,
            "midi": 76,
            "name": "E5",
            "ticks": 10217,
            "time": 13.303385416666666,
            "velocity": 0.07086614173228346
          },
          {
            "duration": 0,
            "durationTicks": 0,
            "midi": 62,
            "name": "D4",
            "ticks": 10227,
            "time": 13.31640625,
            "velocity": 0.06299212598425197
          },
          {
            "duration": 0.2513020833333339,
            "durationTicks": 193,
            "midi": 72,
            "name": "C5",
            "ticks": 10227,
            "time": 13.31640625,
            "velocity": 0.07086614173228346
          },
          {
            "duration": 0,
            "durationTicks": 0,
            "midi": 62,
            "name": "D4",
            "ticks": 10316,
            "time": 13.432291666666666,
            "velocity": 0.08661417322834646
          },
          {
            "duration": 0.12630208333333393,
            "durationTicks": 97,
            "midi": 81,
            "name": "A5",
            "ticks": 10325,
            "time": 13.444010416666666,
            "velocity": 0.07086614173228346
          },
          {
            "duration": 0.6328125,
            "durationTicks": 486,
            "midi": 72,
            "name": "C5",
            "ticks": 10325,
            "time": 13.444010416666666,
            "velocity": 0.10236220472440945
          },
          {
            "duration": 0,
            "durationTicks": 0,
            "midi": 76,
            "name": "E5",
            "ticks": 10325,
            "time": 13.444010416666666,
            "velocity": 0.05511811023622047
          },
          {
            "duration": 0,
            "durationTicks": 0,
            "midi": 75,
            "name": "D#5",
            "ticks": 10334,
            "time": 13.455729166666666,
            "velocity": 0.031496062992125984
          },
          {
            "duration": 0.12630208333333393,
            "durationTicks": 97,
            "midi": 78,
            "name": "F#5",
            "ticks": 10334,
            "time": 13.455729166666666,
            "velocity": 0.07874015748031496
          },
          {
            "duration": 0.25390625,
            "durationTicks": 195,
            "midi": 53,
            "name": "F3",
            "ticks": 10334,
            "time": 13.455729166666666,
            "velocity": 0.2047244094488189
          },
          {
            "duration": 0,
            "durationTicks": 0,
            "midi": 61,
            "name": "C#4",
            "ticks": 10344,
            "time": 13.46875,
            "velocity": 0.05511811023622047
          },
          {
            "duration": 0,
            "durationTicks": 0,
            "midi": 76,
            "name": "E5",
            "ticks": 10415,
            "time": 13.561197916666666,
            "velocity": 0.08661417322834646
          },
          {
            "duration": 0,
            "durationTicks": 0,
            "midi": 76,
            "name": "E5",
            "ticks": 10461,
            "time": 13.62109375,
            "velocity": 0.047244094488188976
          },
          {
            "duration": 0,
            "durationTicks": 0,
            "midi": 79,
            "name": "G5",
            "ticks": 10470,
            "time": 13.6328125,
            "velocity": 0.047244094488188976
          },
          {
            "duration": 0,
            "durationTicks": 0,
            "midi": 73,
            "name": "C#5",
            "ticks": 10497,
            "time": 13.66796875,
            "velocity": 0.031496062992125984
          },
          {
            "duration": 0.328125,
            "durationTicks": 252,
            "midi": 73,
            "name": "C#5",
            "ticks": 10497,
            "time": 13.66796875,
            "velocity": 0.10236220472440945
          },
          {
            "duration": 0,
            "durationTicks": 0,
            "midi": 66,
            "name": "F#4",
            "ticks": 10506,
            "time": 13.6796875,
            "velocity": 0.08661417322834646
          },
          {
            "duration": 0,
            "durationTicks": 0,
            "midi": 54,
            "name": "F#3",
            "ticks": 10515,
            "time": 13.69140625,
            "velocity": 0.15748031496062992
          },
          {
            "duration": 0.7591145833333321,
            "durationTicks": 583,
            "midi": 82,
            "name": "A#5",
            "ticks": 10525,
            "time": 13.704427083333334,
            "velocity": 0.11811023622047244
          },
          {
            "duration": 0.37890625,
            "durationTicks": 291,
            "midi": 65,
            "name": "F4",
            "ticks": 10534,
            "time": 13.716145833333334,
            "velocity": 0.11023622047244094
          },
          {
            "duration": 0.09505208333333215,
            "durationTicks": 73,
            "midi": 69,
            "name": "A4",
            "ticks": 10543,
            "time": 13.727864583333334,
            "velocity": 0.03937007874015748
          },
          {
            "duration": 1.01171875,
            "durationTicks": 777,
            "midi": 53,
            "name": "F3",
            "ticks": 10553,
            "time": 13.740885416666666,
            "velocity": 0.18110236220472442
          },
          {
            "duration": 0,
            "durationTicks": 0,
            "midi": 74,
            "name": "D5",
            "ticks": 10562,
            "time": 13.752604166666666,
            "velocity": 0.047244094488188976
          },
          {
            "duration": 0.25,
            "durationTicks": 192,
            "midi": 76,
            "name": "E5",
            "ticks": 10562,
            "time": 13.752604166666666,
            "velocity": 0.06299212598425197
          },
          {
            "duration": 0.03385416666666785,
            "durationTicks": 26,
            "midi": 74,
            "name": "D5",
            "ticks": 10580,
            "time": 13.776041666666666,
            "velocity": 0.07874015748031496
          },
          {
            "duration": 0,
            "durationTicks": 0,
            "midi": 71,
            "name": "B4",
            "ticks": 10606,
            "time": 13.809895833333334,
            "velocity": 0.09448818897637795
          },
          {
            "duration": 0,
            "durationTicks": 0,
            "midi": 60,
            "name": "C4",
            "ticks": 10606,
            "time": 13.809895833333334,
            "velocity": 0.09448818897637795
          },
          {
            "duration": 0.34505208333333215,
            "durationTicks": 265,
            "midi": 74,
            "name": "D5",
            "ticks": 10606,
            "time": 13.809895833333334,
            "velocity": 0.05511811023622047
          },
          {
            "duration": 0.03125,
            "durationTicks": 24,
            "midi": 69,
            "name": "A4",
            "ticks": 10616,
            "time": 13.822916666666666,
            "velocity": 0.07086614173228346
          },
          {
            "duration": 0.8697916666666679,
            "durationTicks": 668,
            "midi": 62,
            "name": "D4",
            "ticks": 10643,
            "time": 13.858072916666666,
            "velocity": 0.14960629921259844
          },
          {
            "duration": 0.125,
            "durationTicks": 96,
            "midi": 81,
            "name": "A5",
            "ticks": 10660,
            "time": 13.880208333333334,
            "velocity": 0.05511811023622047
          },
          {
            "duration": 0.37890625,
            "durationTicks": 291,
            "midi": 78,
            "name": "F#5",
            "ticks": 10660,
            "time": 13.880208333333334,
            "velocity": 0.07874015748031496
          },
          {
            "duration": 0,
            "durationTicks": 0,
            "midi": 69,
            "name": "A4",
            "ticks": 10670,
            "time": 13.893229166666666,
            "velocity": 0.10236220472440945
          },
          {
            "duration": 0,
            "durationTicks": 0,
            "midi": 66,
            "name": "F#4",
            "ticks": 10687,
            "time": 13.915364583333334,
            "velocity": 0.08661417322834646
          },
          {
            "duration": 0,
            "durationTicks": 0,
            "midi": 69,
            "name": "A4",
            "ticks": 10732,
            "time": 13.973958333333334,
            "velocity": 0.07086614173228346
          },
          {
            "duration": 0.059895833333333925,
            "durationTicks": 46,
            "midi": 76,
            "name": "E5",
            "ticks": 10749,
            "time": 13.99609375,
            "velocity": 0.05511811023622047
          },
          {
            "duration": 0.17838541666666607,
            "durationTicks": 137,
            "midi": 73,
            "name": "C#5",
            "ticks": 10749,
            "time": 13.99609375,
            "velocity": 0.07086614173228346
          },
          {
            "duration": 0.12760416666666607,
            "durationTicks": 98,
            "midi": 81,
            "name": "A5",
            "ticks": 10785,
            "time": 14.04296875,
            "velocity": 0.03937007874015748
          },
          {
            "duration": 0,
            "durationTicks": 0,
            "midi": 66,
            "name": "F#4",
            "ticks": 10795,
            "time": 14.055989583333334,
            "velocity": 0.07874015748031496
          },
          {
            "duration": 0.06770833333333215,
            "durationTicks": 52,
            "midi": 76,
            "name": "E5",
            "ticks": 10795,
            "time": 14.055989583333334,
            "velocity": 0.031496062992125984
          },
          {
            "duration": 0,
            "durationTicks": 0,
            "midi": 57,
            "name": "A3",
            "ticks": 10804,
            "time": 14.067708333333334,
            "velocity": 0.1732283464566929
          },
          {
            "duration": 0.12630208333333393,
            "durationTicks": 97,
            "midi": 72,
            "name": "C5",
            "ticks": 10823,
            "time": 14.092447916666666,
            "velocity": 0.07086614173228346
          },
          {
            "duration": 0.25260416666666785,
            "durationTicks": 194,
            "midi": 80,
            "name": "G#5",
            "ticks": 10859,
            "time": 14.139322916666666,
            "velocity": 0.047244094488188976
          },
          {
            "duration": 0.12630208333333393,
            "durationTicks": 97,
            "midi": 57,
            "name": "A3",
            "ticks": 10859,
            "time": 14.139322916666666,
            "velocity": 0.15748031496062992
          },
          {
            "duration": 0.12630208333333393,
            "durationTicks": 97,
            "midi": 81,
            "name": "A5",
            "ticks": 10868,
            "time": 14.151041666666666,
            "velocity": 0.031496062992125984
          },
          {
            "duration": 0,
            "durationTicks": 0,
            "midi": 75,
            "name": "D#5",
            "ticks": 10895,
            "time": 14.186197916666666,
            "velocity": 0.05511811023622047
          },
          {
            "duration": 0,
            "durationTicks": 0,
            "midi": 73,
            "name": "C#5",
            "ticks": 10922,
            "time": 14.221354166666666,
            "velocity": 0.031496062992125984
          },
          {
            "duration": 0,
            "durationTicks": 0,
            "midi": 71,
            "name": "B4",
            "ticks": 10949,
            "time": 14.256510416666666,
            "velocity": 0.07874015748031496
          },
          {
            "duration": 0,
            "durationTicks": 0,
            "midi": 73,
            "name": "C#5",
            "ticks": 10949,
            "time": 14.256510416666666,
            "velocity": 0.03937007874015748
          },
          {
            "duration": 0,
            "durationTicks": 0,
            "midi": 72,
            "name": "C5",
            "ticks": 10958,
            "time": 14.268229166666666,
            "velocity": 0.07086614173228346
          },
          {
            "duration": 0.12630208333333393,
            "durationTicks": 97,
            "midi": 74,
            "name": "D5",
            "ticks": 10985,
            "time": 14.303385416666666,
            "velocity": 0.03937007874015748
          },
          {
            "duration": 0.11848958333333393,
            "durationTicks": 91,
            "midi": 57,
            "name": "A3",
            "ticks": 11003,
            "time": 14.326822916666666,
            "velocity": 0.15748031496062992
          },
          {
            "duration": 0,
            "durationTicks": 0,
            "midi": 66,
            "name": "F#4",
            "ticks": 11012,
            "time": 14.338541666666666,
            "velocity": 0.06299212598425197
          },
          {
            "duration": 0,
            "durationTicks": 0,
            "midi": 64,
            "name": "E4",
            "ticks": 11012,
            "time": 14.338541666666666,
            "velocity": 0.13385826771653545
          },
          {
            "duration": 0.12760416666666785,
            "durationTicks": 98,
            "midi": 70,
            "name": "A#4",
            "ticks": 11012,
            "time": 14.338541666666666,
            "velocity": 0.07874015748031496
          },
          {
            "duration": 0,
            "durationTicks": 0,
            "midi": 72,
            "name": "C5",
            "ticks": 11048,
            "time": 14.385416666666666,
            "velocity": 0.08661417322834646
          },
          {
            "duration": 0,
            "durationTicks": 0,
            "midi": 60,
            "name": "C4",
            "ticks": 11058,
            "time": 14.3984375,
            "velocity": 0.11023622047244094
          },
          {
            "duration": 0,
            "durationTicks": 0,
            "midi": 77,
            "name": "F5",
            "ticks": 11058,
            "time": 14.3984375,
            "velocity": 0.07086614173228346
          },
          {
            "duration": 0,
            "durationTicks": 0,
            "midi": 71,
            "name": "B4",
            "ticks": 11075,
            "time": 14.420572916666666,
            "velocity": 0.05511811023622047
          },
          {
            "duration": 0.009114583333333925,
            "durationTicks": 7,
            "midi": 57,
            "name": "A3",
            "ticks": 11094,
            "time": 14.4453125,
            "velocity": 0.13385826771653545
          },
          {
            "duration": 0,
            "durationTicks": 0,
            "midi": 70,
            "name": "A#4",
            "ticks": 11122,
            "time": 14.481770833333334,
            "velocity": 0.023622047244094488
          },
          {
            "duration": 0,
            "durationTicks": 0,
            "midi": 68,
            "name": "G#4",
            "ticks": 11139,
            "time": 14.50390625,
            "velocity": 0.047244094488188976
          },
          {
            "duration": 0.12630208333333393,
            "durationTicks": 97,
            "midi": 57,
            "name": "A3",
            "ticks": 11139,
            "time": 14.50390625,
            "velocity": 0.14173228346456693
          },
          {
            "duration": 0,
            "durationTicks": 0,
            "midi": 71,
            "name": "B4",
            "ticks": 11166,
            "time": 14.5390625,
            "velocity": 0.03937007874015748
          },
          {
            "duration": 0,
            "durationTicks": 0,
            "midi": 70,
            "name": "A#4",
            "ticks": 11175,
            "time": 14.55078125,
            "velocity": 0.047244094488188976
          },
          {
            "duration": 0,
            "durationTicks": 0,
            "midi": 68,
            "name": "G#4",
            "ticks": 11202,
            "time": 14.5859375,
            "velocity": 0.047244094488188976
          },
          {
            "duration": 0.12630208333333393,
            "durationTicks": 97,
            "midi": 72,
            "name": "C5",
            "ticks": 11202,
            "time": 14.5859375,
            "velocity": 0.11023622047244094
          },
          {
            "duration": 0,
            "durationTicks": 0,
            "midi": 73,
            "name": "C#5",
            "ticks": 11212,
            "time": 14.598958333333334,
            "velocity": 0.023622047244094488
          },
          {
            "duration": 0.12760416666666607,
            "durationTicks": 98,
            "midi": 57,
            "name": "A3",
            "ticks": 11229,
            "time": 14.62109375,
            "velocity": 0.14960629921259844
          },
          {
            "duration": 0,
            "durationTicks": 0,
            "midi": 76,
            "name": "E5",
            "ticks": 11239,
            "time": 14.634114583333334,
            "velocity": 0.06299212598425197
          },
          {
            "duration": 0,
            "durationTicks": 0,
            "midi": 68,
            "name": "G#4",
            "ticks": 11256,
            "time": 14.65625,
            "velocity": 0.031496062992125984
          },
          {
            "duration": 0,
            "durationTicks": 0,
            "midi": 70,
            "name": "A#4",
            "ticks": 11283,
            "time": 14.69140625,
            "velocity": 0.05511811023622047
          },
          {
            "duration": 0,
            "durationTicks": 0,
            "midi": 74,
            "name": "D5",
            "ticks": 11292,
            "time": 14.703125,
            "velocity": 0.047244094488188976
          },
          {
            "duration": 0.015625,
            "durationTicks": 12,
            "midi": 62,
            "name": "D4",
            "ticks": 11311,
            "time": 14.727864583333334,
            "velocity": 0.03937007874015748
          },
          {
            "duration": 0,
            "durationTicks": 0,
            "midi": 60,
            "name": "C4",
            "ticks": 11357,
            "time": 14.787760416666666,
            "velocity": 0.2440944881889764
          },
          {
            "duration": 0,
            "durationTicks": 0,
            "midi": 62,
            "name": "D4",
            "ticks": 11366,
            "time": 14.799479166666666,
            "velocity": 0.25984251968503935
          },
          {
            "duration": 0,
            "durationTicks": 0,
            "midi": 64,
            "name": "E4",
            "ticks": 11375,
            "time": 14.811197916666666,
            "velocity": 0.2677165354330709
          }
        ],
        "endOfTrackTicks": 11375
      }
    ]
  }