{
    "header": {
      "keySignatures": [],
      "meta": [],
      "name": "",
      "ppq": 384,
      "tempos": [
        {
          "bpm": 95.00014250021376,
          "ticks": 0
        }
      ],
      "timeSignatures": [
        {
          "ticks": 0,
          "timeSignature": [
            1,
            4
          ],
          "measures": 0
        }
      ]
    },
    "tracks": [
      {
        "channel": 0,
        "controlChanges": {},
        "pitchBends": [],
        "instrument": {
          "family": "piano",
          "number": 0,
          "name": "acoustic grand piano"
        },
        "name": "Elec. Piano (Classic)",
        "notes": [
          {
            "duration": 0.1578945,
            "durationTicks": 96,
            "midi": 44,
            "name": "G#2",
            "ticks": 0,
            "time": 0,
            "velocity": 0.5433070866141733
          },
          {
            "duration": 0.1578945,
            "durationTicks": 96,
            "midi": 59,
            "name": "B3",
            "ticks": 96,
            "time": 0.1578945,
            "velocity": 0.5433070866141733
          },
          {
            "duration": 0.1578945,
            "durationTicks": 96,
            "midi": 63,
            "name": "D#4",
            "ticks": 96,
            "time": 0.1578945,
            "velocity": 0.5433070866141733
          },
          {
            "duration": 0.1578945,
            "durationTicks": 96,
            "midi": 47,
            "name": "B2",
            "ticks": 96,
            "time": 0.1578945,
            "velocity": 0.5433070866141733
          },
          {
            "duration": 0.1578945,
            "durationTicks": 96,
            "midi": 62,
            "name": "D4",
            "ticks": 192,
            "time": 0.315789,
            "velocity": 0.5433070866141733
          },
          {
            "duration": 0.1578945,
            "durationTicks": 96,
            "midi": 39,
            "name": "D#2",
            "ticks": 192,
            "time": 0.315789,
            "velocity": 0.5433070866141733
          },
          {
            "duration": 0.1578945,
            "durationTicks": 96,
            "midi": 58,
            "name": "A#3",
            "ticks": 192,
            "time": 0.315789,
            "velocity": 0.5433070866141733
          },
          {
            "duration": 0.1578945,
            "durationTicks": 96,
            "midi": 63,
            "name": "D#4",
            "ticks": 288,
            "time": 0.4736835,
            "velocity": 0.5433070866141733
          },
          {
            "duration": 0.1578945,
            "durationTicks": 96,
            "midi": 59,
            "name": "B3",
            "ticks": 288,
            "time": 0.4736835,
            "velocity": 0.5433070866141733
          },
          {
            "duration": 0.1578945,
            "durationTicks": 96,
            "midi": 47,
            "name": "B2",
            "ticks": 288,
            "time": 0.4736835,
            "velocity": 0.5433070866141733
          },
          {
            "duration": 0.15789450000000005,
            "durationTicks": 96,
            "midi": 58,
            "name": "A#3",
            "ticks": 384,
            "time": 0.631578,
            "velocity": 0.5433070866141733
          },
          {
            "duration": 0.15789450000000005,
            "durationTicks": 96,
            "midi": 44,
            "name": "G#2",
            "ticks": 384,
            "time": 0.631578,
            "velocity": 0.5433070866141733
          },
          {
            "duration": 0.15789450000000005,
            "durationTicks": 96,
            "midi": 62,
            "name": "D4",
            "ticks": 384,
            "time": 0.631578,
            "velocity": 0.5433070866141733
          },
          {
            "duration": 0.15789449999999994,
            "durationTicks": 96,
            "midi": 63,
            "name": "D#4",
            "ticks": 480,
            "time": 0.7894725,
            "velocity": 0.5433070866141733
          },
          {
            "duration": 0.15789449999999994,
            "durationTicks": 96,
            "midi": 59,
            "name": "B3",
            "ticks": 480,
            "time": 0.7894725,
            "velocity": 0.5433070866141733
          },
          {
            "duration": 0.15789449999999994,
            "durationTicks": 96,
            "midi": 47,
            "name": "B2",
            "ticks": 480,
            "time": 0.7894725,
            "velocity": 0.5433070866141733
          },
          {
            "duration": 0.15789449999999994,
            "durationTicks": 96,
            "midi": 39,
            "name": "D#2",
            "ticks": 576,
            "time": 0.947367,
            "velocity": 0.5433070866141733
          },
          {
            "duration": 0.15789450000000005,
            "durationTicks": 96,
            "midi": 47,
            "name": "B2",
            "ticks": 672,
            "time": 1.1052615,
            "velocity": 0.5433070866141733
          },
          {
            "duration": 0.15789450000000005,
            "durationTicks": 96,
            "midi": 59,
            "name": "B3",
            "ticks": 672,
            "time": 1.1052615,
            "velocity": 0.5433070866141733
          },
          {
            "duration": 0.15789450000000005,
            "durationTicks": 96,
            "midi": 63,
            "name": "D#4",
            "ticks": 672,
            "time": 1.1052615,
            "velocity": 0.5433070866141733
          },
          {
            "duration": 0.15789450000000005,
            "durationTicks": 96,
            "midi": 44,
            "name": "G#2",
            "ticks": 768,
            "time": 1.263156,
            "velocity": 0.5433070866141733
          },
          {
            "duration": 0.15789450000000005,
            "durationTicks": 96,
            "midi": 63,
            "name": "D#4",
            "ticks": 864,
            "time": 1.4210505,
            "velocity": 0.5433070866141733
          },
          {
            "duration": 0.15789450000000005,
            "durationTicks": 96,
            "midi": 47,
            "name": "B2",
            "ticks": 864,
            "time": 1.4210505,
            "velocity": 0.5433070866141733
          },
          {
            "duration": 0.15789450000000005,
            "durationTicks": 96,
            "midi": 59,
            "name": "B3",
            "ticks": 864,
            "time": 1.4210505,
            "velocity": 0.5433070866141733
          },
          {
            "duration": 0.15789449999999983,
            "durationTicks": 96,
            "midi": 58,
            "name": "A#3",
            "ticks": 960,
            "time": 1.578945,
            "velocity": 0.5433070866141733
          },
          {
            "duration": 0.15789449999999983,
            "durationTicks": 96,
            "midi": 62,
            "name": "D4",
            "ticks": 960,
            "time": 1.578945,
            "velocity": 0.5433070866141733
          },
          {
            "duration": 0.15789449999999983,
            "durationTicks": 96,
            "midi": 39,
            "name": "D#2",
            "ticks": 960,
            "time": 1.578945,
            "velocity": 0.5433070866141733
          },
          {
            "duration": 0.15789450000000005,
            "durationTicks": 96,
            "midi": 47,
            "name": "B2",
            "ticks": 1056,
            "time": 1.7368394999999999,
            "velocity": 0.5433070866141733
          },
          {
            "duration": 0.15789450000000005,
            "durationTicks": 96,
            "midi": 59,
            "name": "B3",
            "ticks": 1056,
            "time": 1.7368394999999999,
            "velocity": 0.5433070866141733
          },
          {
            "duration": 0.15789450000000005,
            "durationTicks": 96,
            "midi": 63,
            "name": "D#4",
            "ticks": 1056,
            "time": 1.7368394999999999,
            "velocity": 0.5433070866141733
          },
          {
            "duration": 0.15789450000000005,
            "durationTicks": 96,
            "midi": 44,
            "name": "G#2",
            "ticks": 1152,
            "time": 1.894734,
            "velocity": 0.5433070866141733
          },
          {
            "duration": 0.15789450000000005,
            "durationTicks": 96,
            "midi": 58,
            "name": "A#3",
            "ticks": 1152,
            "time": 1.894734,
            "velocity": 0.5433070866141733
          },
          {
            "duration": 0.15789450000000005,
            "durationTicks": 96,
            "midi": 62,
            "name": "D4",
            "ticks": 1152,
            "time": 1.894734,
            "velocity": 0.5433070866141733
          },
          {
            "duration": 0.15789449999999983,
            "durationTicks": 96,
            "midi": 47,
            "name": "B2",
            "ticks": 1248,
            "time": 2.0526285,
            "velocity": 0.5433070866141733
          },
          {
            "duration": 0.15789449999999983,
            "durationTicks": 96,
            "midi": 63,
            "name": "D#4",
            "ticks": 1248,
            "time": 2.0526285,
            "velocity": 0.5433070866141733
          },
          {
            "duration": 0.15789449999999983,
            "durationTicks": 96,
            "midi": 59,
            "name": "B3",
            "ticks": 1248,
            "time": 2.0526285,
            "velocity": 0.5433070866141733
          },
          {
            "duration": 0.15789450000000027,
            "durationTicks": 96,
            "midi": 39,
            "name": "D#2",
            "ticks": 1344,
            "time": 2.210523,
            "velocity": 0.5433070866141733
          },
          {
            "duration": 0.15789449999999983,
            "durationTicks": 96,
            "midi": 47,
            "name": "B2",
            "ticks": 1440,
            "time": 2.3684175,
            "velocity": 0.5433070866141733
          },
          {
            "duration": 0.15789449999999983,
            "durationTicks": 96,
            "midi": 40,
            "name": "E2",
            "ticks": 1536,
            "time": 2.526312,
            "velocity": 0.5433070866141733
          },
          {
            "duration": 0.4736834999999999,
            "durationTicks": 288,
            "midi": 71,
            "name": "B4",
            "ticks": 1536,
            "time": 2.526312,
            "velocity": 0.5433070866141733
          },
          {
            "duration": 0.15789450000000027,
            "durationTicks": 96,
            "midi": 43,
            "name": "G2",
            "ticks": 1632,
            "time": 2.6842064999999997,
            "velocity": 0.5433070866141733
          },
          {
            "duration": 0.15789449999999983,
            "durationTicks": 96,
            "midi": 35,
            "name": "B1",
            "ticks": 1728,
            "time": 2.842101,
            "velocity": 0.5433070866141733
          },
          {
            "duration": 0.4736834999999999,
            "durationTicks": 288,
            "midi": 64,
            "name": "E4",
            "ticks": 1824,
            "time": 2.9999955,
            "velocity": 0.5433070866141733
          },
          {
            "duration": 0.15789450000000027,
            "durationTicks": 96,
            "midi": 43,
            "name": "G2",
            "ticks": 1824,
            "time": 2.9999955,
            "velocity": 0.5433070866141733
          },
          {
            "duration": 0.15789449999999983,
            "durationTicks": 96,
            "midi": 40,
            "name": "E2",
            "ticks": 1920,
            "time": 3.15789,
            "velocity": 0.5433070866141733
          },
          {
            "duration": 0.15789449999999983,
            "durationTicks": 96,
            "midi": 43,
            "name": "G2",
            "ticks": 2016,
            "time": 3.3157845,
            "velocity": 0.5433070866141733
          },
          {
            "duration": 0.15789450000000027,
            "durationTicks": 96,
            "midi": 35,
            "name": "B1",
            "ticks": 2112,
            "time": 3.4736789999999997,
            "velocity": 0.5433070866141733
          },
          {
            "duration": 0.3157890000000001,
            "durationTicks": 192,
            "midi": 67,
            "name": "G4",
            "ticks": 2112,
            "time": 3.4736789999999997,
            "velocity": 0.5433070866141733
          },
          {
            "duration": 0.15789449999999983,
            "durationTicks": 96,
            "midi": 43,
            "name": "G2",
            "ticks": 2208,
            "time": 3.6315735,
            "velocity": 0.5433070866141733
          },
          {
            "duration": 0.15789449999999983,
            "durationTicks": 96,
            "midi": 40,
            "name": "E2",
            "ticks": 2304,
            "time": 3.789468,
            "velocity": 0.5433070866141733
          },
          {
            "duration": 0.3157890000000001,
            "durationTicks": 192,
            "midi": 78,
            "name": "F#5",
            "ticks": 2304,
            "time": 3.789468,
            "velocity": 0.5433070866141733
          },
          {
            "duration": 0.15789450000000027,
            "durationTicks": 96,
            "midi": 43,
            "name": "G2",
            "ticks": 2400,
            "time": 3.9473624999999997,
            "velocity": 0.5433070866141733
          },
          {
            "duration": 0.15789450000000027,
            "durationTicks": 96,
            "midi": 35,
            "name": "B1",
            "ticks": 2496,
            "time": 4.105257,
            "velocity": 0.5433070866141733
          },
          {
            "duration": 0.31578899999999965,
            "durationTicks": 192,
            "midi": 76,
            "name": "E5",
            "ticks": 2496,
            "time": 4.105257,
            "velocity": 0.5433070866141733
          },
          {
            "duration": 0.15789449999999938,
            "durationTicks": 96,
            "midi": 43,
            "name": "G2",
            "ticks": 2592,
            "time": 4.2631515,
            "velocity": 0.5433070866141733
          },
          {
            "duration": 0.15789450000000027,
            "durationTicks": 96,
            "midi": 42,
            "name": "F#2",
            "ticks": 2688,
            "time": 4.421046,
            "velocity": 0.5433070866141733
          },
          {
            "duration": 0.31578900000000054,
            "durationTicks": 192,
            "midi": 71,
            "name": "B4",
            "ticks": 2688,
            "time": 4.421046,
            "velocity": 0.5433070866141733
          },
          {
            "duration": 0.15789450000000027,
            "durationTicks": 96,
            "midi": 43,
            "name": "G2",
            "ticks": 2784,
            "time": 4.5789405,
            "velocity": 0.5433070866141733
          },
          {
            "duration": 0.31578899999999965,
            "durationTicks": 192,
            "midi": 73,
            "name": "C#5",
            "ticks": 2880,
            "time": 4.736835,
            "velocity": 0.5433070866141733
          },
          {
            "duration": 0.15789449999999938,
            "durationTicks": 96,
            "midi": 37,
            "name": "C#2",
            "ticks": 2880,
            "time": 4.736835,
            "velocity": 0.5433070866141733
          },
          {
            "duration": 0.15789450000000027,
            "durationTicks": 96,
            "midi": 43,
            "name": "G2",
            "ticks": 2976,
            "time": 4.8947294999999995,
            "velocity": 0.5433070866141733
          },
          {
            "duration": 1.2631560000000004,
            "durationTicks": 768,
            "midi": 75,
            "name": "D#5",
            "ticks": 3072,
            "time": 5.052624,
            "velocity": 0.5433070866141733
          },
          {
            "duration": 0.15789450000000027,
            "durationTicks": 96,
            "midi": 44,
            "name": "G#2",
            "ticks": 3072,
            "time": 5.052624,
            "velocity": 0.5433070866141733
          },
          {
            "duration": 0.15789449999999938,
            "durationTicks": 96,
            "midi": 47,
            "name": "B2",
            "ticks": 3168,
            "time": 5.2105185,
            "velocity": 0.5433070866141733
          },
          {
            "duration": 0.15789449999999938,
            "durationTicks": 96,
            "midi": 63,
            "name": "D#4",
            "ticks": 3168,
            "time": 5.2105185,
            "velocity": 0.5433070866141733
          },
          {
            "duration": 0.15789449999999938,
            "durationTicks": 96,
            "midi": 59,
            "name": "B3",
            "ticks": 3168,
            "time": 5.2105185,
            "velocity": 0.5433070866141733
          },
          {
            "duration": 0.15789450000000027,
            "durationTicks": 96,
            "midi": 39,
            "name": "D#2",
            "ticks": 3264,
            "time": 5.368412999999999,
            "velocity": 0.5433070866141733
          },
          {
            "duration": 0.15789450000000027,
            "durationTicks": 96,
            "midi": 58,
            "name": "A#3",
            "ticks": 3264,
            "time": 5.368412999999999,
            "velocity": 0.5433070866141733
          },
          {
            "duration": 0.15789450000000027,
            "durationTicks": 96,
            "midi": 62,
            "name": "D4",
            "ticks": 3264,
            "time": 5.368412999999999,
            "velocity": 0.5433070866141733
          },
          {
            "duration": 0.15789450000000027,
            "durationTicks": 96,
            "midi": 63,
            "name": "D#4",
            "ticks": 3360,
            "time": 5.5263075,
            "velocity": 0.5433070866141733
          },
          {
            "duration": 0.15789450000000027,
            "durationTicks": 96,
            "midi": 47,
            "name": "B2",
            "ticks": 3360,
            "time": 5.5263075,
            "velocity": 0.5433070866141733
          },
          {
            "duration": 0.15789450000000027,
            "durationTicks": 96,
            "midi": 59,
            "name": "B3",
            "ticks": 3360,
            "time": 5.5263075,
            "velocity": 0.5433070866141733
          },
          {
            "duration": 0.15789449999999938,
            "durationTicks": 96,
            "midi": 44,
            "name": "G#2",
            "ticks": 3456,
            "time": 5.684202,
            "velocity": 0.5433070866141733
          },
          {
            "duration": 0.15789449999999938,
            "durationTicks": 96,
            "midi": 62,
            "name": "D4",
            "ticks": 3456,
            "time": 5.684202,
            "velocity": 0.5433070866141733
          },
          {
            "duration": 0.15789449999999938,
            "durationTicks": 96,
            "midi": 58,
            "name": "A#3",
            "ticks": 3456,
            "time": 5.684202,
            "velocity": 0.5433070866141733
          },
          {
            "duration": 0.15789450000000027,
            "durationTicks": 96,
            "midi": 59,
            "name": "B3",
            "ticks": 3552,
            "time": 5.842096499999999,
            "velocity": 0.5433070866141733
          },
          {
            "duration": 0.15789450000000027,
            "durationTicks": 96,
            "midi": 63,
            "name": "D#4",
            "ticks": 3552,
            "time": 5.842096499999999,
            "velocity": 0.5433070866141733
          },
          {
            "duration": 0.15789450000000027,
            "durationTicks": 96,
            "midi": 47,
            "name": "B2",
            "ticks": 3552,
            "time": 5.842096499999999,
            "velocity": 0.5433070866141733
          },
          {
            "duration": 0.15789450000000027,
            "durationTicks": 96,
            "midi": 39,
            "name": "D#2",
            "ticks": 3648,
            "time": 5.999991,
            "velocity": 0.5433070866141733
          },
          {
            "duration": 0.15789450000000027,
            "durationTicks": 96,
            "midi": 59,
            "name": "B3",
            "ticks": 3744,
            "time": 6.1578855,
            "velocity": 0.5433070866141733
          },
          {
            "duration": 0.15789450000000027,
            "durationTicks": 96,
            "midi": 63,
            "name": "D#4",
            "ticks": 3744,
            "time": 6.1578855,
            "velocity": 0.5433070866141733
          },
          {
            "duration": 0.15789450000000027,
            "durationTicks": 96,
            "midi": 47,
            "name": "B2",
            "ticks": 3744,
            "time": 6.1578855,
            "velocity": 0.5433070866141733
          },
          {
            "duration": 0.15789449999999938,
            "durationTicks": 96,
            "midi": 44,
            "name": "G#2",
            "ticks": 3840,
            "time": 6.31578,
            "velocity": 0.5433070866141733
          },
          {
            "duration": 0.15789450000000027,
            "durationTicks": 96,
            "midi": 59,
            "name": "B3",
            "ticks": 3936,
            "time": 6.4736744999999996,
            "velocity": 0.5433070866141733
          },
          {
            "duration": 0.15789450000000027,
            "durationTicks": 96,
            "midi": 63,
            "name": "D#4",
            "ticks": 3936,
            "time": 6.4736744999999996,
            "velocity": 0.5433070866141733
          },
          {
            "duration": 0.15789450000000027,
            "durationTicks": 96,
            "midi": 47,
            "name": "B2",
            "ticks": 3936,
            "time": 6.4736744999999996,
            "velocity": 0.5433070866141733
          },
          {
            "duration": 0.15789450000000027,
            "durationTicks": 96,
            "midi": 62,
            "name": "D4",
            "ticks": 4032,
            "time": 6.631569,
            "velocity": 0.5433070866141733
          },
          {
            "duration": 0.15789450000000027,
            "durationTicks": 96,
            "midi": 39,
            "name": "D#2",
            "ticks": 4032,
            "time": 6.631569,
            "velocity": 0.5433070866141733
          },
          {
            "duration": 0.15789450000000027,
            "durationTicks": 96,
            "midi": 58,
            "name": "A#3",
            "ticks": 4032,
            "time": 6.631569,
            "velocity": 0.5433070866141733
          },
          {
            "duration": 0.15789449999999938,
            "durationTicks": 96,
            "midi": 63,
            "name": "D#4",
            "ticks": 4128,
            "time": 6.7894635,
            "velocity": 0.5433070866141733
          },
          {
            "duration": 0.15789449999999938,
            "durationTicks": 96,
            "midi": 59,
            "name": "B3",
            "ticks": 4128,
            "time": 6.7894635,
            "velocity": 0.5433070866141733
          },
          {
            "duration": 0.15789449999999938,
            "durationTicks": 96,
            "midi": 47,
            "name": "B2",
            "ticks": 4128,
            "time": 6.7894635,
            "velocity": 0.5433070866141733
          },
          {
            "duration": 0.15789450000000027,
            "durationTicks": 96,
            "midi": 44,
            "name": "G#2",
            "ticks": 4224,
            "time": 6.9473579999999995,
            "velocity": 0.5433070866141733
          },
          {
            "duration": 0.15789450000000027,
            "durationTicks": 96,
            "midi": 58,
            "name": "A#3",
            "ticks": 4224,
            "time": 6.9473579999999995,
            "velocity": 0.5433070866141733
          },
          {
            "duration": 0.15789450000000027,
            "durationTicks": 96,
            "midi": 62,
            "name": "D4",
            "ticks": 4224,
            "time": 6.9473579999999995,
            "velocity": 0.5433070866141733
          },
          {
            "duration": 0.15789450000000027,
            "durationTicks": 96,
            "midi": 47,
            "name": "B2",
            "ticks": 4320,
            "time": 7.1052525,
            "velocity": 0.5433070866141733
          },
          {
            "duration": 0.15789450000000027,
            "durationTicks": 96,
            "midi": 59,
            "name": "B3",
            "ticks": 4320,
            "time": 7.1052525,
            "velocity": 0.5433070866141733
          },
          {
            "duration": 0.15789450000000027,
            "durationTicks": 96,
            "midi": 63,
            "name": "D#4",
            "ticks": 4320,
            "time": 7.1052525,
            "velocity": 0.5433070866141733
          },
          {
            "duration": 0.15789449999999938,
            "durationTicks": 96,
            "midi": 39,
            "name": "D#2",
            "ticks": 4416,
            "time": 7.263147,
            "velocity": 0.5433070866141733
          },
          {
            "duration": 0.15789450000000027,
            "durationTicks": 96,
            "midi": 47,
            "name": "B2",
            "ticks": 4512,
            "time": 7.421041499999999,
            "velocity": 0.5433070866141733
          },
          {
            "duration": 0.4736835000000008,
            "durationTicks": 288,
            "midi": 71,
            "name": "B4",
            "ticks": 4608,
            "time": 7.578936,
            "velocity": 0.5433070866141733
          },
          {
            "duration": 0.15789450000000027,
            "durationTicks": 96,
            "midi": 40,
            "name": "E2",
            "ticks": 4608,
            "time": 7.578936,
            "velocity": 0.5433070866141733
          },
          {
            "duration": 0.15789449999999938,
            "durationTicks": 96,
            "midi": 47,
            "name": "B2",
            "ticks": 4704,
            "time": 7.7368305,
            "velocity": 0.5433070866141733
          },
          {
            "duration": 0.15789450000000116,
            "durationTicks": 96,
            "midi": 44,
            "name": "G#2",
            "ticks": 4800,
            "time": 7.894724999999999,
            "velocity": 0.5433070866141733
          },
          {
            "duration": 0.15789449999999938,
            "durationTicks": 96,
            "midi": 47,
            "name": "B2",
            "ticks": 4896,
            "time": 8.0526195,
            "velocity": 0.5433070866141733
          },
          {
            "duration": 0.4736834999999999,
            "durationTicks": 288,
            "midi": 73,
            "name": "C#5",
            "ticks": 4896,
            "time": 8.0526195,
            "velocity": 0.5433070866141733
          },
          {
            "duration": 0.15789449999999938,
            "durationTicks": 96,
            "midi": 40,
            "name": "E2",
            "ticks": 4992,
            "time": 8.210514,
            "velocity": 0.5433070866141733
          },
          {
            "duration": 0.15789450000000116,
            "durationTicks": 96,
            "midi": 47,
            "name": "B2",
            "ticks": 5088,
            "time": 8.3684085,
            "velocity": 0.5433070866141733
          },
          {
            "duration": 0.31578899999999877,
            "durationTicks": 192,
            "midi": 75,
            "name": "D#5",
            "ticks": 5184,
            "time": 8.526303,
            "velocity": 0.5433070866141733
          },
          {
            "duration": 0.15789449999999938,
            "durationTicks": 96,
            "midi": 44,
            "name": "G#2",
            "ticks": 5184,
            "time": 8.526303,
            "velocity": 0.5433070866141733
          },
          {
            "duration": 0.15789449999999938,
            "durationTicks": 96,
            "midi": 47,
            "name": "B2",
            "ticks": 5280,
            "time": 8.6841975,
            "velocity": 0.5433070866141733
          },
          {
            "duration": 0.15789450000000116,
            "durationTicks": 96,
            "midi": 42,
            "name": "F#2",
            "ticks": 5376,
            "time": 8.842092,
            "velocity": 0.5433070866141733
          },
          {
            "duration": 0.4736834999999999,
            "durationTicks": 288,
            "midi": 75,
            "name": "D#5",
            "ticks": 5376,
            "time": 8.842092,
            "velocity": 0.5433070866141733
          },
          {
            "duration": 0.15789449999999938,
            "durationTicks": 96,
            "midi": 51,
            "name": "D#3",
            "ticks": 5472,
            "time": 8.9999865,
            "velocity": 0.5433070866141733
          },
          {
            "duration": 0.15789449999999938,
            "durationTicks": 96,
            "midi": 47,
            "name": "B2",
            "ticks": 5568,
            "time": 9.157881,
            "velocity": 0.5433070866141733
          },
          {
            "duration": 0.07894725000000058,
            "durationTicks": 48,
            "midi": 76,
            "name": "E5",
            "ticks": 5664,
            "time": 9.315775499999999,
            "velocity": 0.5433070866141733
          },
          {
            "duration": 0.15789450000000116,
            "durationTicks": 96,
            "midi": 51,
            "name": "D#3",
            "ticks": 5664,
            "time": 9.315775499999999,
            "velocity": 0.5433070866141733
          },
          {
            "duration": 0.07894725000000058,
            "durationTicks": 48,
            "midi": 75,
            "name": "D#5",
            "ticks": 5712,
            "time": 9.39472275,
            "velocity": 0.5433070866141733
          },
          {
            "duration": 0.15789449999999938,
            "durationTicks": 96,
            "midi": 42,
            "name": "F#2",
            "ticks": 5760,
            "time": 9.47367,
            "velocity": 0.5433070866141733
          },
          {
            "duration": 0.6315779999999993,
            "durationTicks": 384,
            "midi": 73,
            "name": "C#5",
            "ticks": 5760,
            "time": 9.47367,
            "velocity": 0.5433070866141733
          },
          {
            "duration": 0.15789449999999938,
            "durationTicks": 96,
            "midi": 49,
            "name": "C#3",
            "ticks": 5856,
            "time": 9.6315645,
            "velocity": 0.5433070866141733
          },
          {
            "duration": 0.15789450000000116,
            "durationTicks": 96,
            "midi": 46,
            "name": "A#2",
            "ticks": 5952,
            "time": 9.789458999999999,
            "velocity": 0.5433070866141733
          },
          {
            "duration": 0.15789449999999938,
            "durationTicks": 96,
            "midi": 49,
            "name": "C#3",
            "ticks": 6048,
            "time": 9.9473535,
            "velocity": 0.5433070866141733
          },
          {
            "duration": 0.15789449999999938,
            "durationTicks": 96,
            "midi": 44,
            "name": "G#2",
            "ticks": 6144,
            "time": 10.105248,
            "velocity": 0.5433070866141733
          },
          {
            "duration": 0.15789450000000116,
            "durationTicks": 96,
            "midi": 59,
            "name": "B3",
            "ticks": 6240,
            "time": 10.263142499999999,
            "velocity": 0.5433070866141733
          },
          {
            "duration": 0.15789450000000116,
            "durationTicks": 96,
            "midi": 63,
            "name": "D#4",
            "ticks": 6240,
            "time": 10.263142499999999,
            "velocity": 0.5433070866141733
          },
          {
            "duration": 0.15789450000000116,
            "durationTicks": 96,
            "midi": 47,
            "name": "B2",
            "ticks": 6240,
            "time": 10.263142499999999,
            "velocity": 0.5433070866141733
          },
          {
            "duration": 0.15789449999999938,
            "durationTicks": 96,
            "midi": 62,
            "name": "D4",
            "ticks": 6336,
            "time": 10.421037,
            "velocity": 0.5433070866141733
          },
          {
            "duration": 0.15789449999999938,
            "durationTicks": 96,
            "midi": 39,
            "name": "D#2",
            "ticks": 6336,
            "time": 10.421037,
            "velocity": 0.5433070866141733
          },
          {
            "duration": 0.15789449999999938,
            "durationTicks": 96,
            "midi": 58,
            "name": "A#3",
            "ticks": 6336,
            "time": 10.421037,
            "velocity": 0.5433070866141733
          },
          {
            "duration": 0.15789449999999938,
            "durationTicks": 96,
            "midi": 59,
            "name": "B3",
            "ticks": 6432,
            "time": 10.5789315,
            "velocity": 0.5433070866141733
          },
          {
            "duration": 0.15789449999999938,
            "durationTicks": 96,
            "midi": 63,
            "name": "D#4",
            "ticks": 6432,
            "time": 10.5789315,
            "velocity": 0.5433070866141733
          },
          {
            "duration": 0.15789449999999938,
            "durationTicks": 96,
            "midi": 47,
            "name": "B2",
            "ticks": 6432,
            "time": 10.5789315,
            "velocity": 0.5433070866141733
          },
          {
            "duration": 0.15789450000000116,
            "durationTicks": 96,
            "midi": 58,
            "name": "A#3",
            "ticks": 6528,
            "time": 10.736825999999999,
            "velocity": 0.5433070866141733
          },
          {
            "duration": 0.15789450000000116,
            "durationTicks": 96,
            "midi": 44,
            "name": "G#2",
            "ticks": 6528,
            "time": 10.736825999999999,
            "velocity": 0.5433070866141733
          },
          {
            "duration": 0.15789450000000116,
            "durationTicks": 96,
            "midi": 62,
            "name": "D4",
            "ticks": 6528,
            "time": 10.736825999999999,
            "velocity": 0.5433070866141733
          },
          {
            "duration": 0.15789449999999938,
            "durationTicks": 96,
            "midi": 63,
            "name": "D#4",
            "ticks": 6624,
            "time": 10.8947205,
            "velocity": 0.5433070866141733
          },
          {
            "duration": 0.15789449999999938,
            "durationTicks": 96,
            "midi": 59,
            "name": "B3",
            "ticks": 6624,
            "time": 10.8947205,
            "velocity": 0.5433070866141733
          },
          {
            "duration": 0.15789449999999938,
            "durationTicks": 96,
            "midi": 47,
            "name": "B2",
            "ticks": 6624,
            "time": 10.8947205,
            "velocity": 0.5433070866141733
          },
          {
            "duration": 0.15789449999999938,
            "durationTicks": 96,
            "midi": 39,
            "name": "D#2",
            "ticks": 6720,
            "time": 11.052615,
            "velocity": 0.5433070866141733
          },
          {
            "duration": 0.15789450000000116,
            "durationTicks": 96,
            "midi": 63,
            "name": "D#4",
            "ticks": 6816,
            "time": 11.210509499999999,
            "velocity": 0.5433070866141733
          },
          {
            "duration": 0.15789450000000116,
            "durationTicks": 96,
            "midi": 59,
            "name": "B3",
            "ticks": 6816,
            "time": 11.210509499999999,
            "velocity": 0.5433070866141733
          },
          {
            "duration": 0.15789450000000116,
            "durationTicks": 96,
            "midi": 47,
            "name": "B2",
            "ticks": 6816,
            "time": 11.210509499999999,
            "velocity": 0.5433070866141733
          },
          {
            "duration": 0.15789449999999938,
            "durationTicks": 96,
            "midi": 44,
            "name": "G#2",
            "ticks": 6912,
            "time": 11.368404,
            "velocity": 0.5433070866141733
          },
          {
            "duration": 0.15789449999999938,
            "durationTicks": 96,
            "midi": 47,
            "name": "B2",
            "ticks": 7008,
            "time": 11.5262985,
            "velocity": 0.5433070866141733
          },
          {
            "duration": 0.15789449999999938,
            "durationTicks": 96,
            "midi": 59,
            "name": "B3",
            "ticks": 7008,
            "time": 11.5262985,
            "velocity": 0.5433070866141733
          },
          {
            "duration": 0.15789449999999938,
            "durationTicks": 96,
            "midi": 63,
            "name": "D#4",
            "ticks": 7008,
            "time": 11.5262985,
            "velocity": 0.5433070866141733
          },
          {
            "duration": 0.15789450000000116,
            "durationTicks": 96,
            "midi": 39,
            "name": "D#2",
            "ticks": 7104,
            "time": 11.684192999999999,
            "velocity": 0.5433070866141733
          },
          {
            "duration": 0.15789450000000116,
            "durationTicks": 96,
            "midi": 58,
            "name": "A#3",
            "ticks": 7104,
            "time": 11.684192999999999,
            "velocity": 0.5433070866141733
          },
          {
            "duration": 0.15789450000000116,
            "durationTicks": 96,
            "midi": 62,
            "name": "D4",
            "ticks": 7104,
            "time": 11.684192999999999,
            "velocity": 0.5433070866141733
          },
          {
            "duration": 0.15789449999999938,
            "durationTicks": 96,
            "midi": 59,
            "name": "B3",
            "ticks": 7200,
            "time": 11.8420875,
            "velocity": 0.5433070866141733
          },
          {
            "duration": 0.15789449999999938,
            "durationTicks": 96,
            "midi": 47,
            "name": "B2",
            "ticks": 7200,
            "time": 11.8420875,
            "velocity": 0.5433070866141733
          },
          {
            "duration": 0.15789449999999938,
            "durationTicks": 96,
            "midi": 63,
            "name": "D#4",
            "ticks": 7200,
            "time": 11.8420875,
            "velocity": 0.5433070866141733
          },
          {
            "duration": 0.15789449999999938,
            "durationTicks": 96,
            "midi": 62,
            "name": "D4",
            "ticks": 7296,
            "time": 11.999982,
            "velocity": 0.5433070866141733
          },
          {
            "duration": 0.15789449999999938,
            "durationTicks": 96,
            "midi": 44,
            "name": "G#2",
            "ticks": 7296,
            "time": 11.999982,
            "velocity": 0.5433070866141733
          },
          {
            "duration": 0.15789449999999938,
            "durationTicks": 96,
            "midi": 58,
            "name": "A#3",
            "ticks": 7296,
            "time": 11.999982,
            "velocity": 0.5433070866141733
          },
          {
            "duration": 0.15789450000000116,
            "durationTicks": 96,
            "midi": 59,
            "name": "B3",
            "ticks": 7392,
            "time": 12.157876499999999,
            "velocity": 0.5433070866141733
          },
          {
            "duration": 0.15789450000000116,
            "durationTicks": 96,
            "midi": 63,
            "name": "D#4",
            "ticks": 7392,
            "time": 12.157876499999999,
            "velocity": 0.5433070866141733
          },
          {
            "duration": 0.15789450000000116,
            "durationTicks": 96,
            "midi": 47,
            "name": "B2",
            "ticks": 7392,
            "time": 12.157876499999999,
            "velocity": 0.5433070866141733
          },
          {
            "duration": 0.15789449999999938,
            "durationTicks": 96,
            "midi": 39,
            "name": "D#2",
            "ticks": 7488,
            "time": 12.315771,
            "velocity": 0.5433070866141733
          },
          {
            "duration": 0.15789450000000116,
            "durationTicks": 96,
            "midi": 47,
            "name": "B2",
            "ticks": 7584,
            "time": 12.4736655,
            "velocity": 0.5433070866141733
          },
          {
            "duration": 0.15789449999999938,
            "durationTicks": 96,
            "midi": 40,
            "name": "E2",
            "ticks": 7680,
            "time": 12.63156,
            "velocity": 0.5433070866141733
          },
          {
            "duration": 0.4736834999999999,
            "durationTicks": 288,
            "midi": 71,
            "name": "B4",
            "ticks": 7680,
            "time": 12.63156,
            "velocity": 0.5433070866141733
          },
          {
            "duration": 0.15789449999999938,
            "durationTicks": 96,
            "midi": 43,
            "name": "G2",
            "ticks": 7776,
            "time": 12.7894545,
            "velocity": 0.5433070866141733
          },
          {
            "duration": 0.15789450000000116,
            "durationTicks": 96,
            "midi": 35,
            "name": "B1",
            "ticks": 7872,
            "time": 12.947348999999999,
            "velocity": 0.5433070866141733
          },
          {
            "duration": 0.15789449999999938,
            "durationTicks": 96,
            "midi": 43,
            "name": "G2",
            "ticks": 7968,
            "time": 13.1052435,
            "velocity": 0.5433070866141733
          },
          {
            "duration": 0.4736834999999999,
            "durationTicks": 288,
            "midi": 64,
            "name": "E4",
            "ticks": 7968,
            "time": 13.1052435,
            "velocity": 0.5433070866141733
          },
          {
            "duration": 0.15789449999999938,
            "durationTicks": 96,
            "midi": 40,
            "name": "E2",
            "ticks": 8064,
            "time": 13.263138,
            "velocity": 0.5433070866141733
          },
          {
            "duration": 0.15789450000000116,
            "durationTicks": 96,
            "midi": 43,
            "name": "G2",
            "ticks": 8160,
            "time": 13.421032499999999,
            "velocity": 0.5433070866141733
          },
          {
            "duration": 0.31578899999999877,
            "durationTicks": 192,
            "midi": 67,
            "name": "G4",
            "ticks": 8256,
            "time": 13.578927,
            "velocity": 0.5433070866141733
          },
          {
            "duration": 0.15789449999999938,
            "durationTicks": 96,
            "midi": 35,
            "name": "B1",
            "ticks": 8256,
            "time": 13.578927,
            "velocity": 0.5433070866141733
          },
          {
            "duration": 0.15789449999999938,
            "durationTicks": 96,
            "midi": 43,
            "name": "G2",
            "ticks": 8352,
            "time": 13.7368215,
            "velocity": 0.5433070866141733
          },
          {
            "duration": 0.31578900000000054,
            "durationTicks": 192,
            "midi": 78,
            "name": "F#5",
            "ticks": 8448,
            "time": 13.894715999999999,
            "velocity": 0.5433070866141733
          },
          {
            "duration": 0.15789450000000116,
            "durationTicks": 96,
            "midi": 40,
            "name": "E2",
            "ticks": 8448,
            "time": 13.894715999999999,
            "velocity": 0.5433070866141733
          },
          {
            "duration": 0.15789449999999938,
            "durationTicks": 96,
            "midi": 43,
            "name": "G2",
            "ticks": 8544,
            "time": 14.0526105,
            "velocity": 0.5433070866141733
          },
          {
            "duration": 0.31578900000000054,
            "durationTicks": 192,
            "midi": 76,
            "name": "E5",
            "ticks": 8640,
            "time": 14.210505,
            "velocity": 0.5433070866141733
          },
          {
            "duration": 0.15789449999999938,
            "durationTicks": 96,
            "midi": 35,
            "name": "B1",
            "ticks": 8640,
            "time": 14.210505,
            "velocity": 0.5433070866141733
          },
          {
            "duration": 0.15789450000000116,
            "durationTicks": 96,
            "midi": 43,
            "name": "G2",
            "ticks": 8736,
            "time": 14.368399499999999,
            "velocity": 0.5433070866141733
          },
          {
            "duration": 0.31578899999999877,
            "durationTicks": 192,
            "midi": 71,
            "name": "B4",
            "ticks": 8832,
            "time": 14.526294,
            "velocity": 0.5433070866141733
          },
          {
            "duration": 0.15789449999999938,
            "durationTicks": 96,
            "midi": 42,
            "name": "F#2",
            "ticks": 8832,
            "time": 14.526294,
            "velocity": 0.5433070866141733
          },
          {
            "duration": 0.15789449999999938,
            "durationTicks": 96,
            "midi": 43,
            "name": "G2",
            "ticks": 8928,
            "time": 14.6841885,
            "velocity": 0.5433070866141733
          },
          {
            "duration": 0.31578900000000054,
            "durationTicks": 192,
            "midi": 73,
            "name": "C#5",
            "ticks": 9024,
            "time": 14.842082999999999,
            "velocity": 0.5433070866141733
          },
          {
            "duration": 0.15789450000000116,
            "durationTicks": 96,
            "midi": 37,
            "name": "C#2",
            "ticks": 9024,
            "time": 14.842082999999999,
            "velocity": 0.5433070866141733
          },
          {
            "duration": 0.15789449999999938,
            "durationTicks": 96,
            "midi": 43,
            "name": "G2",
            "ticks": 9120,
            "time": 14.9999775,
            "velocity": 0.5433070866141733
          },
          {
            "duration": 0.15789449999999938,
            "durationTicks": 96,
            "midi": 44,
            "name": "G#2",
            "ticks": 9216,
            "time": 15.157872,
            "velocity": 0.5433070866141733
          },
          {
            "duration": 1.2631560000000004,
            "durationTicks": 768,
            "midi": 75,
            "name": "D#5",
            "ticks": 9216,
            "time": 15.157872,
            "velocity": 0.5433070866141733
          },
          {
            "duration": 0.15789450000000116,
            "durationTicks": 96,
            "midi": 63,
            "name": "D#4",
            "ticks": 9312,
            "time": 15.315766499999999,
            "velocity": 0.5433070866141733
          },
          {
            "duration": 0.15789450000000116,
            "durationTicks": 96,
            "midi": 59,
            "name": "B3",
            "ticks": 9312,
            "time": 15.315766499999999,
            "velocity": 0.5433070866141733
          },
          {
            "duration": 0.15789450000000116,
            "durationTicks": 96,
            "midi": 47,
            "name": "B2",
            "ticks": 9312,
            "time": 15.315766499999999,
            "velocity": 0.5433070866141733
          },
          {
            "duration": 0.15789449999999938,
            "durationTicks": 96,
            "midi": 39,
            "name": "D#2",
            "ticks": 9408,
            "time": 15.473661,
            "velocity": 0.5433070866141733
          },
          {
            "duration": 0.15789449999999938,
            "durationTicks": 96,
            "midi": 58,
            "name": "A#3",
            "ticks": 9408,
            "time": 15.473661,
            "velocity": 0.5433070866141733
          },
          {
            "duration": 0.15789449999999938,
            "durationTicks": 96,
            "midi": 62,
            "name": "D4",
            "ticks": 9408,
            "time": 15.473661,
            "velocity": 0.5433070866141733
          },
          {
            "duration": 0.15789449999999938,
            "durationTicks": 96,
            "midi": 47,
            "name": "B2",
            "ticks": 9504,
            "time": 15.6315555,
            "velocity": 0.5433070866141733
          },
          {
            "duration": 0.15789449999999938,
            "durationTicks": 96,
            "midi": 59,
            "name": "B3",
            "ticks": 9504,
            "time": 15.6315555,
            "velocity": 0.5433070866141733
          },
          {
            "duration": 0.15789449999999938,
            "durationTicks": 96,
            "midi": 63,
            "name": "D#4",
            "ticks": 9504,
            "time": 15.6315555,
            "velocity": 0.5433070866141733
          },
          {
            "duration": 0.15789450000000116,
            "durationTicks": 96,
            "midi": 62,
            "name": "D4",
            "ticks": 9600,
            "time": 15.789449999999999,
            "velocity": 0.5433070866141733
          },
          {
            "duration": 0.15789450000000116,
            "durationTicks": 96,
            "midi": 44,
            "name": "G#2",
            "ticks": 9600,
            "time": 15.789449999999999,
            "velocity": 0.5433070866141733
          },
          {
            "duration": 0.15789450000000116,
            "durationTicks": 96,
            "midi": 58,
            "name": "A#3",
            "ticks": 9600,
            "time": 15.789449999999999,
            "velocity": 0.5433070866141733
          },
          {
            "duration": 0.15789450000000116,
            "durationTicks": 96,
            "midi": 47,
            "name": "B2",
            "ticks": 9696,
            "time": 15.9473445,
            "velocity": 0.5433070866141733
          },
          {
            "duration": 0.15789450000000116,
            "durationTicks": 96,
            "midi": 63,
            "name": "D#4",
            "ticks": 9696,
            "time": 15.9473445,
            "velocity": 0.5433070866141733
          },
          {
            "duration": 0.15789450000000116,
            "durationTicks": 96,
            "midi": 59,
            "name": "B3",
            "ticks": 9696,
            "time": 15.9473445,
            "velocity": 0.5433070866141733
          },
          {
            "duration": 0.1578944999999976,
            "durationTicks": 96,
            "midi": 39,
            "name": "D#2",
            "ticks": 9792,
            "time": 16.105239,
            "velocity": 0.5433070866141733
          },
          {
            "duration": 0.15789450000000116,
            "durationTicks": 96,
            "midi": 47,
            "name": "B2",
            "ticks": 9888,
            "time": 16.2631335,
            "velocity": 0.5433070866141733
          },
          {
            "duration": 0.15789450000000116,
            "durationTicks": 96,
            "midi": 63,
            "name": "D#4",
            "ticks": 9888,
            "time": 16.2631335,
            "velocity": 0.5433070866141733
          },
          {
            "duration": 0.15789450000000116,
            "durationTicks": 96,
            "midi": 59,
            "name": "B3",
            "ticks": 9888,
            "time": 16.2631335,
            "velocity": 0.5433070866141733
          },
          {
            "duration": 0.15789450000000116,
            "durationTicks": 96,
            "midi": 44,
            "name": "G#2",
            "ticks": 9984,
            "time": 16.421028,
            "velocity": 0.5433070866141733
          },
          {
            "duration": 0.1578944999999976,
            "durationTicks": 96,
            "midi": 59,
            "name": "B3",
            "ticks": 10080,
            "time": 16.5789225,
            "velocity": 0.5433070866141733
          },
          {
            "duration": 0.1578944999999976,
            "durationTicks": 96,
            "midi": 47,
            "name": "B2",
            "ticks": 10080,
            "time": 16.5789225,
            "velocity": 0.5433070866141733
          },
          {
            "duration": 0.1578944999999976,
            "durationTicks": 96,
            "midi": 63,
            "name": "D#4",
            "ticks": 10080,
            "time": 16.5789225,
            "velocity": 0.5433070866141733
          },
          {
            "duration": 0.15789450000000116,
            "durationTicks": 96,
            "midi": 58,
            "name": "A#3",
            "ticks": 10176,
            "time": 16.736817,
            "velocity": 0.5433070866141733
          },
          {
            "duration": 0.15789450000000116,
            "durationTicks": 96,
            "midi": 39,
            "name": "D#2",
            "ticks": 10176,
            "time": 16.736817,
            "velocity": 0.5433070866141733
          },
          {
            "duration": 0.15789450000000116,
            "durationTicks": 96,
            "midi": 62,
            "name": "D4",
            "ticks": 10176,
            "time": 16.736817,
            "velocity": 0.5433070866141733
          },
          {
            "duration": 0.15789450000000116,
            "durationTicks": 96,
            "midi": 63,
            "name": "D#4",
            "ticks": 10272,
            "time": 16.8947115,
            "velocity": 0.5433070866141733
          },
          {
            "duration": 0.15789450000000116,
            "durationTicks": 96,
            "midi": 47,
            "name": "B2",
            "ticks": 10272,
            "time": 16.8947115,
            "velocity": 0.5433070866141733
          },
          {
            "duration": 0.15789450000000116,
            "durationTicks": 96,
            "midi": 59,
            "name": "B3",
            "ticks": 10272,
            "time": 16.8947115,
            "velocity": 0.5433070866141733
          },
          {
            "duration": 0.1578944999999976,
            "durationTicks": 96,
            "midi": 62,
            "name": "D4",
            "ticks": 10368,
            "time": 17.052606,
            "velocity": 0.5433070866141733
          },
          {
            "duration": 0.1578944999999976,
            "durationTicks": 96,
            "midi": 44,
            "name": "G#2",
            "ticks": 10368,
            "time": 17.052606,
            "velocity": 0.5433070866141733
          },
          {
            "duration": 0.1578944999999976,
            "durationTicks": 96,
            "midi": 58,
            "name": "A#3",
            "ticks": 10368,
            "time": 17.052606,
            "velocity": 0.5433070866141733
          },
          {
            "duration": 0.15789450000000116,
            "durationTicks": 96,
            "midi": 59,
            "name": "B3",
            "ticks": 10464,
            "time": 17.2105005,
            "velocity": 0.5433070866141733
          },
          {
            "duration": 0.15789450000000116,
            "durationTicks": 96,
            "midi": 47,
            "name": "B2",
            "ticks": 10464,
            "time": 17.2105005,
            "velocity": 0.5433070866141733
          },
          {
            "duration": 0.15789450000000116,
            "durationTicks": 96,
            "midi": 63,
            "name": "D#4",
            "ticks": 10464,
            "time": 17.2105005,
            "velocity": 0.5433070866141733
          },
          {
            "duration": 0.15789450000000116,
            "durationTicks": 96,
            "midi": 39,
            "name": "D#2",
            "ticks": 10560,
            "time": 17.368395,
            "velocity": 0.5433070866141733
          },
          {
            "duration": 0.1578944999999976,
            "durationTicks": 96,
            "midi": 47,
            "name": "B2",
            "ticks": 10656,
            "time": 17.5262895,
            "velocity": 0.5433070866141733
          },
          {
            "duration": 1.2631560000000022,
            "durationTicks": 768,
            "midi": 44,
            "name": "G#2",
            "ticks": 10752,
            "time": 17.684184,
            "velocity": 0.5433070866141733
          },
          {
            "duration": 0.4736834999999999,
            "durationTicks": 288,
            "midi": 68,
            "name": "G#4",
            "ticks": 10752,
            "time": 17.684184,
            "velocity": 0.5433070866141733
          },
          {
            "duration": 1.2631560000000022,
            "durationTicks": 768,
            "midi": 47,
            "name": "B2",
            "ticks": 10752,
            "time": 17.684184,
            "velocity": 0.5433070866141733
          },
          {
            "duration": 1.2631560000000022,
            "durationTicks": 768,
            "midi": 40,
            "name": "E2",
            "ticks": 10752,
            "time": 17.684184,
            "velocity": 0.5433070866141733
          },
          {
            "duration": 0.4736834999999999,
            "durationTicks": 288,
            "midi": 71,
            "name": "B4",
            "ticks": 10752,
            "time": 17.684184,
            "velocity": 0.5433070866141733
          },
          {
            "duration": 0.4736834999999999,
            "durationTicks": 288,
            "midi": 73,
            "name": "C#5",
            "ticks": 11040,
            "time": 18.1578675,
            "velocity": 0.5433070866141733
          },
          {
            "duration": 0.4736834999999999,
            "durationTicks": 288,
            "midi": 63,
            "name": "D#4",
            "ticks": 11040,
            "time": 18.1578675,
            "velocity": 0.5433070866141733
          },
          {
            "duration": 0.3157890000000023,
            "durationTicks": 192,
            "midi": 66,
            "name": "F#4",
            "ticks": 11328,
            "time": 18.631550999999998,
            "velocity": 0.5433070866141733
          },
          {
            "duration": 0.3157890000000023,
            "durationTicks": 192,
            "midi": 75,
            "name": "D#5",
            "ticks": 11328,
            "time": 18.631550999999998,
            "velocity": 0.5433070866141733
          },
          {
            "duration": 1.2631559999999986,
            "durationTicks": 768,
            "midi": 46,
            "name": "A#2",
            "ticks": 11520,
            "time": 18.94734,
            "velocity": 0.5433070866141733
          },
          {
            "duration": 0.6315779999999975,
            "durationTicks": 384,
            "midi": 64,
            "name": "E4",
            "ticks": 11520,
            "time": 18.94734,
            "velocity": 0.5433070866141733
          },
          {
            "duration": 1.2631559999999986,
            "durationTicks": 768,
            "midi": 49,
            "name": "C#3",
            "ticks": 11520,
            "time": 18.94734,
            "velocity": 0.5433070866141733
          },
          {
            "duration": 0.4736834999999999,
            "durationTicks": 288,
            "midi": 75,
            "name": "D#5",
            "ticks": 11520,
            "time": 18.94734,
            "velocity": 0.5433070866141733
          },
          {
            "duration": 1.2631559999999986,
            "durationTicks": 768,
            "midi": 42,
            "name": "F#2",
            "ticks": 11520,
            "time": 18.94734,
            "velocity": 0.5433070866141733
          },
          {
            "duration": 0.0789472499999988,
            "durationTicks": 48,
            "midi": 76,
            "name": "E5",
            "ticks": 11808,
            "time": 19.4210235,
            "velocity": 0.5433070866141733
          },
          {
            "duration": 0.0789472499999988,
            "durationTicks": 48,
            "midi": 75,
            "name": "D#5",
            "ticks": 11856,
            "time": 19.49997075,
            "velocity": 0.5433070866141733
          },
          {
            "duration": 0.6315780000000011,
            "durationTicks": 384,
            "midi": 73,
            "name": "C#5",
            "ticks": 11904,
            "time": 19.578917999999998,
            "velocity": 0.5433070866141733
          },
          {
            "duration": 0.6315780000000011,
            "durationTicks": 384,
            "midi": 70,
            "name": "A#4",
            "ticks": 11904,
            "time": 19.578917999999998,
            "velocity": 0.5433070866141733
          },
          {
            "duration": 0.15789450000000116,
            "durationTicks": 96,
            "midi": 40,
            "name": "E2",
            "ticks": 12288,
            "time": 20.210496,
            "velocity": 0.5433070866141733
          },
          {
            "duration": 1.2631559999999986,
            "durationTicks": 768,
            "midi": 71,
            "name": "B4",
            "ticks": 12288,
            "time": 20.210496,
            "velocity": 0.5433070866141733
          },
          {
            "duration": 0.1578944999999976,
            "durationTicks": 96,
            "midi": 44,
            "name": "G#2",
            "ticks": 12384,
            "time": 20.3683905,
            "velocity": 0.5433070866141733
          },
          {
            "duration": 0.15789450000000116,
            "durationTicks": 96,
            "midi": 35,
            "name": "B1",
            "ticks": 12480,
            "time": 20.526284999999998,
            "velocity": 0.5433070866141733
          },
          {
            "duration": 0.15789450000000116,
            "durationTicks": 96,
            "midi": 44,
            "name": "G#2",
            "ticks": 12576,
            "time": 20.6841795,
            "velocity": 0.5433070866141733
          },
          {
            "duration": 0.1578944999999976,
            "durationTicks": 96,
            "midi": 40,
            "name": "E2",
            "ticks": 12672,
            "time": 20.842074,
            "velocity": 0.5433070866141733
          },
          {
            "duration": 0.15789450000000116,
            "durationTicks": 96,
            "midi": 44,
            "name": "G#2",
            "ticks": 12768,
            "time": 20.999968499999998,
            "velocity": 0.5433070866141733
          },
          {
            "duration": 0.15789450000000116,
            "durationTicks": 96,
            "midi": 35,
            "name": "B1",
            "ticks": 12864,
            "time": 21.157863,
            "velocity": 0.5433070866141733
          },
          {
            "duration": 0.1578944999999976,
            "durationTicks": 96,
            "midi": 44,
            "name": "G#2",
            "ticks": 12960,
            "time": 21.3157575,
            "velocity": 0.5433070866141733
          },
          {
            "duration": 0.15789450000000116,
            "durationTicks": 96,
            "midi": 42,
            "name": "F#2",
            "ticks": 13056,
            "time": 21.473651999999998,
            "velocity": 0.5433070866141733
          },
          {
            "duration": 0.15789450000000116,
            "durationTicks": 96,
            "midi": 46,
            "name": "A#2",
            "ticks": 13152,
            "time": 21.6315465,
            "velocity": 0.5433070866141733
          },
          {
            "duration": 0.15789450000000116,
            "durationTicks": 96,
            "midi": 71,
            "name": "B4",
            "ticks": 13152,
            "time": 21.6315465,
            "velocity": 0.5433070866141733
          },
          {
            "duration": 0.1578944999999976,
            "durationTicks": 96,
            "midi": 37,
            "name": "C#2",
            "ticks": 13248,
            "time": 21.789441,
            "velocity": 0.5433070866141733
          },
          {
            "duration": 0.1578944999999976,
            "durationTicks": 96,
            "midi": 70,
            "name": "A#4",
            "ticks": 13248,
            "time": 21.789441,
            "velocity": 0.5433070866141733
          },
          {
            "duration": 0.15789450000000116,
            "durationTicks": 96,
            "midi": 46,
            "name": "A#2",
            "ticks": 13344,
            "time": 21.947335499999998,
            "velocity": 0.5433070866141733
          },
          {
            "duration": 0.15789450000000116,
            "durationTicks": 96,
            "midi": 71,
            "name": "B4",
            "ticks": 13344,
            "time": 21.947335499999998,
            "velocity": 0.5433070866141733
          },
          {
            "duration": 0.31578899999999877,
            "durationTicks": 192,
            "midi": 78,
            "name": "F#5",
            "ticks": 13440,
            "time": 22.10523,
            "velocity": 0.5433070866141733
          },
          {
            "duration": 0.15789450000000116,
            "durationTicks": 96,
            "midi": 42,
            "name": "F#2",
            "ticks": 13440,
            "time": 22.10523,
            "velocity": 0.5433070866141733
          },
          {
            "duration": 0.1578944999999976,
            "durationTicks": 96,
            "midi": 46,
            "name": "A#2",
            "ticks": 13536,
            "time": 22.2631245,
            "velocity": 0.5433070866141733
          },
          {
            "duration": 0.15789450000000116,
            "durationTicks": 96,
            "midi": 37,
            "name": "C#2",
            "ticks": 13632,
            "time": 22.421018999999998,
            "velocity": 0.5433070866141733
          },
          {
            "duration": 0.15789450000000116,
            "durationTicks": 96,
            "midi": 70,
            "name": "A#4",
            "ticks": 13632,
            "time": 22.421018999999998,
            "velocity": 0.5433070866141733
          },
          {
            "duration": 1.4210504999999998,
            "durationTicks": 864,
            "midi": 71,
            "name": "B4",
            "ticks": 13728,
            "time": 22.5789135,
            "velocity": 0.5433070866141733
          },
          {
            "duration": 0.15789450000000116,
            "durationTicks": 96,
            "midi": 46,
            "name": "A#2",
            "ticks": 13728,
            "time": 22.5789135,
            "velocity": 0.5433070866141733
          },
          {
            "duration": 0.1578944999999976,
            "durationTicks": 96,
            "midi": 44,
            "name": "G#2",
            "ticks": 13824,
            "time": 22.736808,
            "velocity": 0.5433070866141733
          },
          {
            "duration": 0.15789450000000116,
            "durationTicks": 96,
            "midi": 47,
            "name": "B2",
            "ticks": 13920,
            "time": 22.894702499999998,
            "velocity": 0.5433070866141733
          },
          {
            "duration": 0.15789450000000116,
            "durationTicks": 96,
            "midi": 39,
            "name": "D#2",
            "ticks": 14016,
            "time": 23.052597,
            "velocity": 0.5433070866141733
          },
          {
            "duration": 0.1578944999999976,
            "durationTicks": 96,
            "midi": 47,
            "name": "B2",
            "ticks": 14112,
            "time": 23.2104915,
            "velocity": 0.5433070866141733
          },
          {
            "duration": 0.15789450000000116,
            "durationTicks": 96,
            "midi": 44,
            "name": "G#2",
            "ticks": 14208,
            "time": 23.368385999999997,
            "velocity": 0.5433070866141733
          },
          {
            "duration": 0.15789450000000116,
            "durationTicks": 96,
            "midi": 47,
            "name": "B2",
            "ticks": 14304,
            "time": 23.5262805,
            "velocity": 0.5433070866141733
          },
          {
            "duration": 0.1578944999999976,
            "durationTicks": 96,
            "midi": 39,
            "name": "D#2",
            "ticks": 14400,
            "time": 23.684175,
            "velocity": 0.5433070866141733
          },
          {
            "duration": 0.15789450000000116,
            "durationTicks": 96,
            "midi": 47,
            "name": "B2",
            "ticks": 14496,
            "time": 23.842069499999997,
            "velocity": 0.5433070866141733
          },
          {
            "duration": 0.15789450000000116,
            "durationTicks": 96,
            "midi": 39,
            "name": "D#2",
            "ticks": 14592,
            "time": 23.999964,
            "velocity": 0.5433070866141733
          },
          {
            "duration": 0.1578944999999976,
            "durationTicks": 96,
            "midi": 42,
            "name": "F#2",
            "ticks": 14688,
            "time": 24.1578585,
            "velocity": 0.5433070866141733
          },
          {
            "duration": 0.1578944999999976,
            "durationTicks": 96,
            "midi": 71,
            "name": "B4",
            "ticks": 14688,
            "time": 24.1578585,
            "velocity": 0.5433070866141733
          },
          {
            "duration": 0.15789450000000116,
            "durationTicks": 96,
            "midi": 70,
            "name": "A#4",
            "ticks": 14784,
            "time": 24.315752999999997,
            "velocity": 0.5433070866141733
          },
          {
            "duration": 0.15789450000000116,
            "durationTicks": 96,
            "midi": 34,
            "name": "A#1",
            "ticks": 14784,
            "time": 24.315752999999997,
            "velocity": 0.5433070866141733
          },
          {
            "duration": 0.15789450000000116,
            "durationTicks": 96,
            "midi": 42,
            "name": "F#2",
            "ticks": 14880,
            "time": 24.4736475,
            "velocity": 0.5433070866141733
          },
          {
            "duration": 0.15789450000000116,
            "durationTicks": 96,
            "midi": 68,
            "name": "G#4",
            "ticks": 14880,
            "time": 24.4736475,
            "velocity": 0.5433070866141733
          },
          {
            "duration": 0.1578944999999976,
            "durationTicks": 96,
            "midi": 39,
            "name": "D#2",
            "ticks": 14976,
            "time": 24.631542,
            "velocity": 0.5433070866141733
          },
          {
            "duration": 0.31578899999999877,
            "durationTicks": 192,
            "midi": 66,
            "name": "F#4",
            "ticks": 14976,
            "time": 24.631542,
            "velocity": 0.5433070866141733
          },
          {
            "duration": 0.15789450000000116,
            "durationTicks": 96,
            "midi": 42,
            "name": "F#2",
            "ticks": 15072,
            "time": 24.789436499999997,
            "velocity": 0.5433070866141733
          },
          {
            "duration": 0.15789450000000116,
            "durationTicks": 96,
            "midi": 34,
            "name": "A#1",
            "ticks": 15168,
            "time": 24.947331,
            "velocity": 0.5433070866141733
          },
          {
            "duration": 0.3157890000000023,
            "durationTicks": 192,
            "midi": 70,
            "name": "A#4",
            "ticks": 15168,
            "time": 24.947331,
            "velocity": 0.5433070866141733
          },
          {
            "duration": 0.15789450000000116,
            "durationTicks": 96,
            "midi": 42,
            "name": "F#2",
            "ticks": 15264,
            "time": 25.1052255,
            "velocity": 0.5433070866141733
          },
          {
            "duration": 0.1578944999999976,
            "durationTicks": 96,
            "midi": 71,
            "name": "B4",
            "ticks": 15360,
            "time": 25.26312,
            "velocity": 0.5433070866141733
          },
          {
            "duration": 0.1578944999999976,
            "durationTicks": 96,
            "midi": 40,
            "name": "E2",
            "ticks": 15360,
            "time": 25.26312,
            "velocity": 0.5433070866141733
          },
          {
            "duration": 0.15789450000000116,
            "durationTicks": 96,
            "midi": 70,
            "name": "A#4",
            "ticks": 15456,
            "time": 25.4210145,
            "velocity": 0.5433070866141733
          },
          {
            "duration": 0.15789450000000116,
            "durationTicks": 96,
            "midi": 44,
            "name": "G#2",
            "ticks": 15456,
            "time": 25.4210145,
            "velocity": 0.5433070866141733
          },
          {
            "duration": 0.15789450000000116,
            "durationTicks": 96,
            "midi": 35,
            "name": "B1",
            "ticks": 15552,
            "time": 25.578909,
            "velocity": 0.5433070866141733
          },
          {
            "duration": 0.15789450000000116,
            "durationTicks": 96,
            "midi": 71,
            "name": "B4",
            "ticks": 15552,
            "time": 25.578909,
            "velocity": 0.5433070866141733
          },
          {
            "duration": 0.39473624999999757,
            "durationTicks": 240,
            "midi": 78,
            "name": "F#5",
            "ticks": 15648,
            "time": 25.7368035,
            "velocity": 0.5433070866141733
          },
          {
            "duration": 0.1578944999999976,
            "durationTicks": 96,
            "midi": 44,
            "name": "G#2",
            "ticks": 15648,
            "time": 25.7368035,
            "velocity": 0.5433070866141733
          },
          {
            "duration": 0.15789450000000116,
            "durationTicks": 96,
            "midi": 40,
            "name": "E2",
            "ticks": 15744,
            "time": 25.894697999999998,
            "velocity": 0.5433070866141733
          },
          {
            "duration": 0.15789450000000116,
            "durationTicks": 96,
            "midi": 44,
            "name": "G#2",
            "ticks": 15840,
            "time": 26.0525925,
            "velocity": 0.5433070866141733
          },
          {
            "duration": 0.1578944999999976,
            "durationTicks": 96,
            "midi": 78,
            "name": "F#5",
            "ticks": 15936,
            "time": 26.210487,
            "velocity": 0.5433070866141733
          },
          {
            "duration": 0.1578944999999976,
            "durationTicks": 96,
            "midi": 35,
            "name": "B1",
            "ticks": 15936,
            "time": 26.210487,
            "velocity": 0.5433070866141733
          },
          {
            "duration": 0.15789450000000116,
            "durationTicks": 96,
            "midi": 80,
            "name": "G#5",
            "ticks": 16032,
            "time": 26.368381499999998,
            "velocity": 0.5433070866141733
          },
          {
            "duration": 0.15789450000000116,
            "durationTicks": 96,
            "midi": 44,
            "name": "G#2",
            "ticks": 16032,
            "time": 26.368381499999998,
            "velocity": 0.5433070866141733
          },
          {
            "duration": 0.15789450000000116,
            "durationTicks": 96,
            "midi": 47,
            "name": "B2",
            "ticks": 16128,
            "time": 26.526276,
            "velocity": 0.5433070866141733
          },
          {
            "duration": 0.31578899999999877,
            "durationTicks": 192,
            "midi": 78,
            "name": "F#5",
            "ticks": 16128,
            "time": 26.526276,
            "velocity": 0.5433070866141733
          },
          {
            "duration": 0.1578944999999976,
            "durationTicks": 96,
            "midi": 51,
            "name": "D#3",
            "ticks": 16224,
            "time": 26.6841705,
            "velocity": 0.5433070866141733
          },
          {
            "duration": 0.15789450000000116,
            "durationTicks": 96,
            "midi": 76,
            "name": "E5",
            "ticks": 16320,
            "time": 26.842064999999998,
            "velocity": 0.5433070866141733
          },
          {
            "duration": 0.15789450000000116,
            "durationTicks": 96,
            "midi": 42,
            "name": "F#2",
            "ticks": 16320,
            "time": 26.842064999999998,
            "velocity": 0.5433070866141733
          },
          {
            "duration": 0.4736834999999999,
            "durationTicks": 288,
            "midi": 75,
            "name": "D#5",
            "ticks": 16416,
            "time": 26.9999595,
            "velocity": 0.5433070866141733
          },
          {
            "duration": 0.15789450000000116,
            "durationTicks": 96,
            "midi": 51,
            "name": "D#3",
            "ticks": 16416,
            "time": 26.9999595,
            "velocity": 0.5433070866141733
          },
          {
            "duration": 0.1578944999999976,
            "durationTicks": 96,
            "midi": 47,
            "name": "B2",
            "ticks": 16512,
            "time": 27.157854,
            "velocity": 0.5433070866141733
          },
          {
            "duration": 0.15789450000000116,
            "durationTicks": 96,
            "midi": 51,
            "name": "D#3",
            "ticks": 16608,
            "time": 27.315748499999998,
            "velocity": 0.5433070866141733
          },
          {
            "duration": 0.31578899999999877,
            "durationTicks": 192,
            "midi": 71,
            "name": "B4",
            "ticks": 16704,
            "time": 27.473643,
            "velocity": 0.5433070866141733
          },
          {
            "duration": 0.15789450000000116,
            "durationTicks": 96,
            "midi": 42,
            "name": "F#2",
            "ticks": 16704,
            "time": 27.473643,
            "velocity": 0.5433070866141733
          },
          {
            "duration": 0.1578944999999976,
            "durationTicks": 96,
            "midi": 51,
            "name": "D#3",
            "ticks": 16800,
            "time": 27.6315375,
            "velocity": 0.5433070866141733
          },
          {
            "duration": 0.4736834999999999,
            "durationTicks": 288,
            "midi": 73,
            "name": "C#5",
            "ticks": 16896,
            "time": 27.789431999999998,
            "velocity": 0.5433070866141733
          },
          {
            "duration": 0.15789450000000116,
            "durationTicks": 96,
            "midi": 37,
            "name": "C#2",
            "ticks": 16896,
            "time": 27.789431999999998,
            "velocity": 0.5433070866141733
          },
          {
            "duration": 0.15789450000000116,
            "durationTicks": 96,
            "midi": 40,
            "name": "E2",
            "ticks": 16992,
            "time": 27.9473265,
            "velocity": 0.5433070866141733
          },
          {
            "duration": 0.1578944999999976,
            "durationTicks": 96,
            "midi": 32,
            "name": "G#1",
            "ticks": 17088,
            "time": 28.105221,
            "velocity": 0.5433070866141733
          },
          {
            "duration": 0.4736834999999999,
            "durationTicks": 288,
            "midi": 68,
            "name": "G#4",
            "ticks": 17184,
            "time": 28.263115499999998,
            "velocity": 0.5433070866141733
          },
          {
            "duration": 0.15789450000000116,
            "durationTicks": 96,
            "midi": 40,
            "name": "E2",
            "ticks": 17184,
            "time": 28.263115499999998,
            "velocity": 0.5433070866141733
          },
          {
            "duration": 0.15789450000000116,
            "durationTicks": 96,
            "midi": 37,
            "name": "C#2",
            "ticks": 17280,
            "time": 28.42101,
            "velocity": 0.5433070866141733
          },
          {
            "duration": 0.1578944999999976,
            "durationTicks": 96,
            "midi": 40,
            "name": "E2",
            "ticks": 17376,
            "time": 28.5789045,
            "velocity": 0.5433070866141733
          },
          {
            "duration": 0.15789450000000116,
            "durationTicks": 96,
            "midi": 32,
            "name": "G#1",
            "ticks": 17472,
            "time": 28.736798999999998,
            "velocity": 0.5433070866141733
          },
          {
            "duration": 0.3157890000000023,
            "durationTicks": 192,
            "midi": 73,
            "name": "C#5",
            "ticks": 17472,
            "time": 28.736798999999998,
            "velocity": 0.5433070866141733
          },
          {
            "duration": 0.15789450000000116,
            "durationTicks": 96,
            "midi": 40,
            "name": "E2",
            "ticks": 17568,
            "time": 28.8946935,
            "velocity": 0.5433070866141733
          },
          {
            "duration": 0.4736834999999999,
            "durationTicks": 288,
            "midi": 75,
            "name": "D#5",
            "ticks": 17664,
            "time": 29.052588,
            "velocity": 0.5433070866141733
          },
          {
            "duration": 0.1578944999999976,
            "durationTicks": 96,
            "midi": 43,
            "name": "G2",
            "ticks": 17664,
            "time": 29.052588,
            "velocity": 0.5433070866141733
          },
          {
            "duration": 0.15789450000000116,
            "durationTicks": 96,
            "midi": 46,
            "name": "A#2",
            "ticks": 17760,
            "time": 29.210482499999998,
            "velocity": 0.5433070866141733
          },
          {
            "duration": 0.15789450000000116,
            "durationTicks": 96,
            "midi": 39,
            "name": "D#2",
            "ticks": 17856,
            "time": 29.368377,
            "velocity": 0.5433070866141733
          },
          {
            "duration": 0.1578944999999976,
            "durationTicks": 96,
            "midi": 46,
            "name": "A#2",
            "ticks": 17952,
            "time": 29.5262715,
            "velocity": 0.5433070866141733
          },
          {
            "duration": 0.0789472499999988,
            "durationTicks": 48,
            "midi": 76,
            "name": "E5",
            "ticks": 17952,
            "time": 29.5262715,
            "velocity": 0.5433070866141733
          },
          {
            "duration": 0.0789472499999988,
            "durationTicks": 48,
            "midi": 75,
            "name": "D#5",
            "ticks": 18000,
            "time": 29.60521875,
            "velocity": 0.5433070866141733
          },
          {
            "duration": 0.6315780000000011,
            "durationTicks": 384,
            "midi": 73,
            "name": "C#5",
            "ticks": 18048,
            "time": 29.684165999999998,
            "velocity": 0.5433070866141733
          },
          {
            "duration": 0.15789450000000116,
            "durationTicks": 96,
            "midi": 43,
            "name": "G2",
            "ticks": 18048,
            "time": 29.684165999999998,
            "velocity": 0.5433070866141733
          },
          {
            "duration": 0.15789450000000116,
            "durationTicks": 96,
            "midi": 46,
            "name": "A#2",
            "ticks": 18144,
            "time": 29.8420605,
            "velocity": 0.5433070866141733
          },
          {
            "duration": 0.1578944999999976,
            "durationTicks": 96,
            "midi": 39,
            "name": "D#2",
            "ticks": 18240,
            "time": 29.999955,
            "velocity": 0.5433070866141733
          },
          {
            "duration": 0.15789450000000116,
            "durationTicks": 96,
            "midi": 46,
            "name": "A#2",
            "ticks": 18336,
            "time": 30.157849499999998,
            "velocity": 0.5433070866141733
          },
          {
            "duration": 0.15789450000000116,
            "durationTicks": 96,
            "midi": 40,
            "name": "E2",
            "ticks": 18432,
            "time": 30.315744,
            "velocity": 0.5433070866141733
          },
          {
            "duration": 1.2631559999999986,
            "durationTicks": 768,
            "midi": 71,
            "name": "B4",
            "ticks": 18432,
            "time": 30.315744,
            "velocity": 0.5433070866141733
          },
          {
            "duration": 0.1578944999999976,
            "durationTicks": 96,
            "midi": 44,
            "name": "G#2",
            "ticks": 18528,
            "time": 30.4736385,
            "velocity": 0.5433070866141733
          },
          {
            "duration": 0.15789450000000116,
            "durationTicks": 96,
            "midi": 35,
            "name": "B1",
            "ticks": 18624,
            "time": 30.631532999999997,
            "velocity": 0.5433070866141733
          },
          {
            "duration": 0.15789450000000116,
            "durationTicks": 96,
            "midi": 44,
            "name": "G#2",
            "ticks": 18720,
            "time": 30.7894275,
            "velocity": 0.5433070866141733
          },
          {
            "duration": 0.1578944999999976,
            "durationTicks": 96,
            "midi": 40,
            "name": "E2",
            "ticks": 18816,
            "time": 30.947322,
            "velocity": 0.5433070866141733
          },
          {
            "duration": 0.15789450000000116,
            "durationTicks": 96,
            "midi": 44,
            "name": "G#2",
            "ticks": 18912,
            "time": 31.105216499999997,
            "velocity": 0.5433070866141733
          },
          {
            "duration": 0.15789450000000116,
            "durationTicks": 96,
            "midi": 35,
            "name": "B1",
            "ticks": 19008,
            "time": 31.263111,
            "velocity": 0.5433070866141733
          },
          {
            "duration": 0.1578944999999976,
            "durationTicks": 96,
            "midi": 44,
            "name": "G#2",
            "ticks": 19104,
            "time": 31.4210055,
            "velocity": 0.5433070866141733
          },
          {
            "duration": 0.15789450000000116,
            "durationTicks": 96,
            "midi": 42,
            "name": "F#2",
            "ticks": 19200,
            "time": 31.578899999999997,
            "velocity": 0.5433070866141733
          },
          {
            "duration": 0.15789450000000116,
            "durationTicks": 96,
            "midi": 46,
            "name": "A#2",
            "ticks": 19296,
            "time": 31.7367945,
            "velocity": 0.5433070866141733
          },
          {
            "duration": 0.15789450000000116,
            "durationTicks": 96,
            "midi": 71,
            "name": "B4",
            "ticks": 19296,
            "time": 31.7367945,
            "velocity": 0.5433070866141733
          },
          {
            "duration": 0.1578944999999976,
            "durationTicks": 96,
            "midi": 70,
            "name": "A#4",
            "ticks": 19392,
            "time": 31.894689,
            "velocity": 0.5433070866141733
          },
          {
            "duration": 0.1578944999999976,
            "durationTicks": 96,
            "midi": 37,
            "name": "C#2",
            "ticks": 19392,
            "time": 31.894689,
            "velocity": 0.5433070866141733
          },
          {
            "duration": 0.1578945000000047,
            "durationTicks": 96,
            "midi": 46,
            "name": "A#2",
            "ticks": 19488,
            "time": 32.0525835,
            "velocity": 0.5433070866141733
          },
          {
            "duration": 0.1578945000000047,
            "durationTicks": 96,
            "midi": 71,
            "name": "B4",
            "ticks": 19488,
            "time": 32.0525835,
            "velocity": 0.5433070866141733
          },
          {
            "duration": 0.3157889999999952,
            "durationTicks": 192,
            "midi": 78,
            "name": "F#5",
            "ticks": 19584,
            "time": 32.210478,
            "velocity": 0.5433070866141733
          },
          {
            "duration": 0.1578944999999976,
            "durationTicks": 96,
            "midi": 42,
            "name": "F#2",
            "ticks": 19584,
            "time": 32.210478,
            "velocity": 0.5433070866141733
          },
          {
            "duration": 0.1578944999999976,
            "durationTicks": 96,
            "midi": 46,
            "name": "A#2",
            "ticks": 19680,
            "time": 32.3683725,
            "velocity": 0.5433070866141733
          },
          {
            "duration": 0.1578945000000047,
            "durationTicks": 96,
            "midi": 70,
            "name": "A#4",
            "ticks": 19776,
            "time": 32.526267,
            "velocity": 0.5433070866141733
          },
          {
            "duration": 0.1578945000000047,
            "durationTicks": 96,
            "midi": 37,
            "name": "C#2",
            "ticks": 19776,
            "time": 32.526267,
            "velocity": 0.5433070866141733
          },
          {
            "duration": 0.1578944999999976,
            "durationTicks": 96,
            "midi": 46,
            "name": "A#2",
            "ticks": 19872,
            "time": 32.6841615,
            "velocity": 0.5433070866141733
          },
          {
            "duration": 1.4210504999999998,
            "durationTicks": 864,
            "midi": 71,
            "name": "B4",
            "ticks": 19872,
            "time": 32.6841615,
            "velocity": 0.5433070866141733
          },
          {
            "duration": 0.1578944999999976,
            "durationTicks": 96,
            "midi": 44,
            "name": "G#2",
            "ticks": 19968,
            "time": 32.842056,
            "velocity": 0.5433070866141733
          },
          {
            "duration": 0.1578945000000047,
            "durationTicks": 96,
            "midi": 47,
            "name": "B2",
            "ticks": 20064,
            "time": 32.9999505,
            "velocity": 0.5433070866141733
          },
          {
            "duration": 0.1578944999999976,
            "durationTicks": 96,
            "midi": 39,
            "name": "D#2",
            "ticks": 20160,
            "time": 33.157845,
            "velocity": 0.5433070866141733
          },
          {
            "duration": 0.1578944999999976,
            "durationTicks": 96,
            "midi": 47,
            "name": "B2",
            "ticks": 20256,
            "time": 33.3157395,
            "velocity": 0.5433070866141733
          },
          {
            "duration": 0.1578945000000047,
            "durationTicks": 96,
            "midi": 44,
            "name": "G#2",
            "ticks": 20352,
            "time": 33.473634,
            "velocity": 0.5433070866141733
          },
          {
            "duration": 0.1578944999999976,
            "durationTicks": 96,
            "midi": 47,
            "name": "B2",
            "ticks": 20448,
            "time": 33.6315285,
            "velocity": 0.5433070866141733
          },
          {
            "duration": 0.1578944999999976,
            "durationTicks": 96,
            "midi": 39,
            "name": "D#2",
            "ticks": 20544,
            "time": 33.789423,
            "velocity": 0.5433070866141733
          },
          {
            "duration": 0.1578945000000047,
            "durationTicks": 96,
            "midi": 47,
            "name": "B2",
            "ticks": 20640,
            "time": 33.9473175,
            "velocity": 0.5433070866141733
          },
          {
            "duration": 0.1578944999999976,
            "durationTicks": 96,
            "midi": 39,
            "name": "D#2",
            "ticks": 20736,
            "time": 34.105212,
            "velocity": 0.5433070866141733
          },
          {
            "duration": 0.1578944999999976,
            "durationTicks": 96,
            "midi": 71,
            "name": "B4",
            "ticks": 20832,
            "time": 34.2631065,
            "velocity": 0.5433070866141733
          },
          {
            "duration": 0.1578944999999976,
            "durationTicks": 96,
            "midi": 42,
            "name": "F#2",
            "ticks": 20832,
            "time": 34.2631065,
            "velocity": 0.5433070866141733
          },
          {
            "duration": 0.1578945000000047,
            "durationTicks": 96,
            "midi": 34,
            "name": "A#1",
            "ticks": 20928,
            "time": 34.421001,
            "velocity": 0.5433070866141733
          },
          {
            "duration": 0.1578945000000047,
            "durationTicks": 96,
            "midi": 70,
            "name": "A#4",
            "ticks": 20928,
            "time": 34.421001,
            "velocity": 0.5433070866141733
          },
          {
            "duration": 0.1578944999999976,
            "durationTicks": 96,
            "midi": 42,
            "name": "F#2",
            "ticks": 21024,
            "time": 34.5788955,
            "velocity": 0.5433070866141733
          },
          {
            "duration": 0.1578944999999976,
            "durationTicks": 96,
            "midi": 68,
            "name": "G#4",
            "ticks": 21024,
            "time": 34.5788955,
            "velocity": 0.5433070866141733
          },
          {
            "duration": 0.1578944999999976,
            "durationTicks": 96,
            "midi": 39,
            "name": "D#2",
            "ticks": 21120,
            "time": 34.73679,
            "velocity": 0.5433070866141733
          },
          {
            "duration": 0.3157890000000023,
            "durationTicks": 192,
            "midi": 66,
            "name": "F#4",
            "ticks": 21120,
            "time": 34.73679,
            "velocity": 0.5433070866141733
          },
          {
            "duration": 0.1578945000000047,
            "durationTicks": 96,
            "midi": 42,
            "name": "F#2",
            "ticks": 21216,
            "time": 34.8946845,
            "velocity": 0.5433070866141733
          },
          {
            "duration": 0.1578944999999976,
            "durationTicks": 96,
            "midi": 34,
            "name": "A#1",
            "ticks": 21312,
            "time": 35.052579,
            "velocity": 0.5433070866141733
          },
          {
            "duration": 0.3157889999999952,
            "durationTicks": 192,
            "midi": 70,
            "name": "A#4",
            "ticks": 21312,
            "time": 35.052579,
            "velocity": 0.5433070866141733
          },
          {
            "duration": 0.1578944999999976,
            "durationTicks": 96,
            "midi": 42,
            "name": "F#2",
            "ticks": 21408,
            "time": 35.2104735,
            "velocity": 0.5433070866141733
          },
          {
            "duration": 0.1578945000000047,
            "durationTicks": 96,
            "midi": 71,
            "name": "B4",
            "ticks": 21504,
            "time": 35.368368,
            "velocity": 0.5433070866141733
          },
          {
            "duration": 0.1578945000000047,
            "durationTicks": 96,
            "midi": 40,
            "name": "E2",
            "ticks": 21504,
            "time": 35.368368,
            "velocity": 0.5433070866141733
          },
          {
            "duration": 0.1578944999999976,
            "durationTicks": 96,
            "midi": 44,
            "name": "G#2",
            "ticks": 21600,
            "time": 35.5262625,
            "velocity": 0.5433070866141733
          },
          {
            "duration": 0.1578944999999976,
            "durationTicks": 96,
            "midi": 70,
            "name": "A#4",
            "ticks": 21600,
            "time": 35.5262625,
            "velocity": 0.5433070866141733
          },
          {
            "duration": 0.1578944999999976,
            "durationTicks": 96,
            "midi": 35,
            "name": "B1",
            "ticks": 21696,
            "time": 35.684157,
            "velocity": 0.5433070866141733
          },
          {
            "duration": 0.1578944999999976,
            "durationTicks": 96,
            "midi": 71,
            "name": "B4",
            "ticks": 21696,
            "time": 35.684157,
            "velocity": 0.5433070866141733
          },
          {
            "duration": 0.3157890000000023,
            "durationTicks": 192,
            "midi": 78,
            "name": "F#5",
            "ticks": 21792,
            "time": 35.8420515,
            "velocity": 0.5433070866141733
          },
          {
            "duration": 0.1578945000000047,
            "durationTicks": 96,
            "midi": 44,
            "name": "G#2",
            "ticks": 21792,
            "time": 35.8420515,
            "velocity": 0.5433070866141733
          },
          {
            "duration": 0.1578944999999976,
            "durationTicks": 96,
            "midi": 40,
            "name": "E2",
            "ticks": 21888,
            "time": 35.999946,
            "velocity": 0.5433070866141733
          },
          {
            "duration": 0.1578944999999976,
            "durationTicks": 96,
            "midi": 44,
            "name": "G#2",
            "ticks": 21984,
            "time": 36.1578405,
            "velocity": 0.5433070866141733
          },
          {
            "duration": 0.1578945000000047,
            "durationTicks": 96,
            "midi": 78,
            "name": "F#5",
            "ticks": 22080,
            "time": 36.315735,
            "velocity": 0.5433070866141733
          },
          {
            "duration": 0.1578945000000047,
            "durationTicks": 96,
            "midi": 35,
            "name": "B1",
            "ticks": 22080,
            "time": 36.315735,
            "velocity": 0.5433070866141733
          },
          {
            "duration": 0.1578944999999976,
            "durationTicks": 96,
            "midi": 44,
            "name": "G#2",
            "ticks": 22176,
            "time": 36.4736295,
            "velocity": 0.5433070866141733
          },
          {
            "duration": 0.1578944999999976,
            "durationTicks": 96,
            "midi": 80,
            "name": "G#5",
            "ticks": 22176,
            "time": 36.4736295,
            "velocity": 0.5433070866141733
          },
          {
            "duration": 0.3157890000000023,
            "durationTicks": 192,
            "midi": 78,
            "name": "F#5",
            "ticks": 22272,
            "time": 36.631524,
            "velocity": 0.5433070866141733
          },
          {
            "duration": 0.1578944999999976,
            "durationTicks": 96,
            "midi": 47,
            "name": "B2",
            "ticks": 22272,
            "time": 36.631524,
            "velocity": 0.5433070866141733
          },
          {
            "duration": 0.1578945000000047,
            "durationTicks": 96,
            "midi": 51,
            "name": "D#3",
            "ticks": 22368,
            "time": 36.7894185,
            "velocity": 0.5433070866141733
          },
          {
            "duration": 0.1578944999999976,
            "durationTicks": 96,
            "midi": 76,
            "name": "E5",
            "ticks": 22464,
            "time": 36.947313,
            "velocity": 0.5433070866141733
          },
          {
            "duration": 0.1578944999999976,
            "durationTicks": 96,
            "midi": 42,
            "name": "F#2",
            "ticks": 22464,
            "time": 36.947313,
            "velocity": 0.5433070866141733
          },
          {
            "duration": 0.4736834999999999,
            "durationTicks": 288,
            "midi": 75,
            "name": "D#5",
            "ticks": 22560,
            "time": 37.1052075,
            "velocity": 0.5433070866141733
          },
          {
            "duration": 0.1578944999999976,
            "durationTicks": 96,
            "midi": 51,
            "name": "D#3",
            "ticks": 22560,
            "time": 37.1052075,
            "velocity": 0.5433070866141733
          },
          {
            "duration": 0.1578945000000047,
            "durationTicks": 96,
            "midi": 47,
            "name": "B2",
            "ticks": 22656,
            "time": 37.263101999999996,
            "velocity": 0.5433070866141733
          },
          {
            "duration": 0.1578944999999976,
            "durationTicks": 96,
            "midi": 51,
            "name": "D#3",
            "ticks": 22752,
            "time": 37.4209965,
            "velocity": 0.5433070866141733
          },
          {
            "duration": 0.1578944999999976,
            "durationTicks": 96,
            "midi": 42,
            "name": "F#2",
            "ticks": 22848,
            "time": 37.578891,
            "velocity": 0.5433070866141733
          },
          {
            "duration": 0.3157890000000023,
            "durationTicks": 192,
            "midi": 71,
            "name": "B4",
            "ticks": 22848,
            "time": 37.578891,
            "velocity": 0.5433070866141733
          },
          {
            "duration": 0.1578945000000047,
            "durationTicks": 96,
            "midi": 51,
            "name": "D#3",
            "ticks": 22944,
            "time": 37.736785499999996,
            "velocity": 0.5433070866141733
          },
          {
            "duration": 0.4736834999999999,
            "durationTicks": 288,
            "midi": 73,
            "name": "C#5",
            "ticks": 23040,
            "time": 37.89468,
            "velocity": 0.5433070866141733
          },
          {
            "duration": 0.1578944999999976,
            "durationTicks": 96,
            "midi": 37,
            "name": "C#2",
            "ticks": 23040,
            "time": 37.89468,
            "velocity": 0.5433070866141733
          },
          {
            "duration": 0.1578944999999976,
            "durationTicks": 96,
            "midi": 40,
            "name": "E2",
            "ticks": 23136,
            "time": 38.0525745,
            "velocity": 0.5433070866141733
          },
          {
            "duration": 0.1578945000000047,
            "durationTicks": 96,
            "midi": 32,
            "name": "G#1",
            "ticks": 23232,
            "time": 38.210468999999996,
            "velocity": 0.5433070866141733
          },
          {
            "duration": 0.1578944999999976,
            "durationTicks": 96,
            "midi": 40,
            "name": "E2",
            "ticks": 23328,
            "time": 38.3683635,
            "velocity": 0.5433070866141733
          },
          {
            "duration": 0.4736834999999999,
            "durationTicks": 288,
            "midi": 68,
            "name": "G#4",
            "ticks": 23328,
            "time": 38.3683635,
            "velocity": 0.5433070866141733
          },
          {
            "duration": 0.1578944999999976,
            "durationTicks": 96,
            "midi": 37,
            "name": "C#2",
            "ticks": 23424,
            "time": 38.526258,
            "velocity": 0.5433070866141733
          },
          {
            "duration": 0.1578945000000047,
            "durationTicks": 96,
            "midi": 40,
            "name": "E2",
            "ticks": 23520,
            "time": 38.684152499999996,
            "velocity": 0.5433070866141733
          },
          {
            "duration": 0.1578944999999976,
            "durationTicks": 96,
            "midi": 32,
            "name": "G#1",
            "ticks": 23616,
            "time": 38.842047,
            "velocity": 0.5433070866141733
          },
          {
            "duration": 0.3157889999999952,
            "durationTicks": 192,
            "midi": 73,
            "name": "C#5",
            "ticks": 23616,
            "time": 38.842047,
            "velocity": 0.5433070866141733
          },
          {
            "duration": 0.1578944999999976,
            "durationTicks": 96,
            "midi": 40,
            "name": "E2",
            "ticks": 23712,
            "time": 38.9999415,
            "velocity": 0.5433070866141733
          },
          {
            "duration": 0.1578945000000047,
            "durationTicks": 96,
            "midi": 43,
            "name": "G2",
            "ticks": 23808,
            "time": 39.157835999999996,
            "velocity": 0.5433070866141733
          },
          {
            "duration": 0.4736834999999999,
            "durationTicks": 288,
            "midi": 75,
            "name": "D#5",
            "ticks": 23808,
            "time": 39.157835999999996,
            "velocity": 0.5433070866141733
          },
          {
            "duration": 0.1578944999999976,
            "durationTicks": 96,
            "midi": 46,
            "name": "A#2",
            "ticks": 23904,
            "time": 39.3157305,
            "velocity": 0.5433070866141733
          },
          {
            "duration": 0.1578944999999976,
            "durationTicks": 96,
            "midi": 39,
            "name": "D#2",
            "ticks": 24000,
            "time": 39.473625,
            "velocity": 0.5433070866141733
          },
          {
            "duration": 0.1578945000000047,
            "durationTicks": 96,
            "midi": 46,
            "name": "A#2",
            "ticks": 24096,
            "time": 39.631519499999996,
            "velocity": 0.5433070866141733
          },
          {
            "duration": 0.0789472499999988,
            "durationTicks": 48,
            "midi": 76,
            "name": "E5",
            "ticks": 24096,
            "time": 39.631519499999996,
            "velocity": 0.5433070866141733
          },
          {
            "duration": 0.07894725000000591,
            "durationTicks": 48,
            "midi": 75,
            "name": "D#5",
            "ticks": 24144,
            "time": 39.710466749999995,
            "velocity": 0.5433070866141733
          },
          {
            "duration": 0.1578944999999976,
            "durationTicks": 96,
            "midi": 43,
            "name": "G2",
            "ticks": 24192,
            "time": 39.789414,
            "velocity": 0.5433070866141733
          },
          {
            "duration": 0.6315779999999975,
            "durationTicks": 384,
            "midi": 73,
            "name": "C#5",
            "ticks": 24192,
            "time": 39.789414,
            "velocity": 0.5433070866141733
          },
          {
            "duration": 0.1578944999999976,
            "durationTicks": 96,
            "midi": 46,
            "name": "A#2",
            "ticks": 24288,
            "time": 39.9473085,
            "velocity": 0.5433070866141733
          },
          {
            "duration": 0.1578945000000047,
            "durationTicks": 96,
            "midi": 39,
            "name": "D#2",
            "ticks": 24384,
            "time": 40.105202999999996,
            "velocity": 0.5433070866141733
          },
          {
            "duration": 0.1578944999999976,
            "durationTicks": 96,
            "midi": 46,
            "name": "A#2",
            "ticks": 24480,
            "time": 40.2630975,
            "velocity": 0.5433070866141733
          },
          {
            "duration": 0.1578944999999976,
            "durationTicks": 96,
            "midi": 40,
            "name": "E2",
            "ticks": 24576,
            "time": 40.420992,
            "velocity": 0.5433070866141733
          },
          {
            "duration": 0.1578945000000047,
            "durationTicks": 96,
            "midi": 44,
            "name": "G#2",
            "ticks": 24672,
            "time": 40.578886499999996,
            "velocity": 0.5433070866141733
          },
          {
            "duration": 0.1578945000000047,
            "durationTicks": 96,
            "midi": 71,
            "name": "B4",
            "ticks": 24672,
            "time": 40.578886499999996,
            "velocity": 0.5433070866141733
          },
          {
            "duration": 0.1578944999999976,
            "durationTicks": 96,
            "midi": 70,
            "name": "A#4",
            "ticks": 24768,
            "time": 40.736781,
            "velocity": 0.5433070866141733
          },
          {
            "duration": 0.1578944999999976,
            "durationTicks": 96,
            "midi": 35,
            "name": "B1",
            "ticks": 24768,
            "time": 40.736781,
            "velocity": 0.5433070866141733
          },
          {
            "duration": 0.1578944999999976,
            "durationTicks": 96,
            "midi": 44,
            "name": "G#2",
            "ticks": 24864,
            "time": 40.8946755,
            "velocity": 0.5433070866141733
          },
          {
            "duration": 0.1578944999999976,
            "durationTicks": 96,
            "midi": 71,
            "name": "B4",
            "ticks": 24864,
            "time": 40.8946755,
            "velocity": 0.5433070866141733
          },
          {
            "duration": 0.1578945000000047,
            "durationTicks": 96,
            "midi": 40,
            "name": "E2",
            "ticks": 24960,
            "time": 41.052569999999996,
            "velocity": 0.5433070866141733
          },
          {
            "duration": 0.1578945000000047,
            "durationTicks": 96,
            "midi": 78,
            "name": "F#5",
            "ticks": 24960,
            "time": 41.052569999999996,
            "velocity": 0.5433070866141733
          },
          {
            "duration": 0.1578944999999976,
            "durationTicks": 96,
            "midi": 71,
            "name": "B4",
            "ticks": 25056,
            "time": 41.2104645,
            "velocity": 0.5433070866141733
          },
          {
            "duration": 0.1578944999999976,
            "durationTicks": 96,
            "midi": 44,
            "name": "G#2",
            "ticks": 25056,
            "time": 41.2104645,
            "velocity": 0.5433070866141733
          },
          {
            "duration": 0.1578944999999976,
            "durationTicks": 96,
            "midi": 70,
            "name": "A#4",
            "ticks": 25152,
            "time": 41.368359,
            "velocity": 0.5433070866141733
          },
          {
            "duration": 0.1578944999999976,
            "durationTicks": 96,
            "midi": 35,
            "name": "B1",
            "ticks": 25152,
            "time": 41.368359,
            "velocity": 0.5433070866141733
          },
          {
            "duration": 0.1578945000000047,
            "durationTicks": 96,
            "midi": 44,
            "name": "G#2",
            "ticks": 25248,
            "time": 41.526253499999996,
            "velocity": 0.5433070866141733
          },
          {
            "duration": 0.1578945000000047,
            "durationTicks": 96,
            "midi": 71,
            "name": "B4",
            "ticks": 25248,
            "time": 41.526253499999996,
            "velocity": 0.5433070866141733
          },
          {
            "duration": 0.1578944999999976,
            "durationTicks": 96,
            "midi": 42,
            "name": "F#2",
            "ticks": 25344,
            "time": 41.684148,
            "velocity": 0.5433070866141733
          },
          {
            "duration": 0.1578944999999976,
            "durationTicks": 96,
            "midi": 80,
            "name": "G#5",
            "ticks": 25344,
            "time": 41.684148,
            "velocity": 0.5433070866141733
          },
          {
            "duration": 0.1578944999999976,
            "durationTicks": 96,
            "midi": 46,
            "name": "A#2",
            "ticks": 25440,
            "time": 41.8420425,
            "velocity": 0.5433070866141733
          },
          {
            "duration": 0.1578944999999976,
            "durationTicks": 96,
            "midi": 71,
            "name": "B4",
            "ticks": 25440,
            "time": 41.8420425,
            "velocity": 0.5433070866141733
          },
          {
            "duration": 0.1578945000000047,
            "durationTicks": 96,
            "midi": 37,
            "name": "C#2",
            "ticks": 25536,
            "time": 41.999936999999996,
            "velocity": 0.5433070866141733
          },
          {
            "duration": 0.1578945000000047,
            "durationTicks": 96,
            "midi": 70,
            "name": "A#4",
            "ticks": 25536,
            "time": 41.999936999999996,
            "velocity": 0.5433070866141733
          },
          {
            "duration": 0.1578944999999976,
            "durationTicks": 96,
            "midi": 46,
            "name": "A#2",
            "ticks": 25632,
            "time": 42.1578315,
            "velocity": 0.5433070866141733
          },
          {
            "duration": 0.1578944999999976,
            "durationTicks": 96,
            "midi": 71,
            "name": "B4",
            "ticks": 25632,
            "time": 42.1578315,
            "velocity": 0.5433070866141733
          },
          {
            "duration": 0.1578944999999976,
            "durationTicks": 96,
            "midi": 42,
            "name": "F#2",
            "ticks": 25728,
            "time": 42.315726,
            "velocity": 0.5433070866141733
          },
          {
            "duration": 0.1578944999999976,
            "durationTicks": 96,
            "midi": 82,
            "name": "A#5",
            "ticks": 25728,
            "time": 42.315726,
            "velocity": 0.5433070866141733
          },
          {
            "duration": 0.1578945000000047,
            "durationTicks": 96,
            "midi": 71,
            "name": "B4",
            "ticks": 25824,
            "time": 42.473620499999996,
            "velocity": 0.5433070866141733
          },
          {
            "duration": 0.1578945000000047,
            "durationTicks": 96,
            "midi": 46,
            "name": "A#2",
            "ticks": 25824,
            "time": 42.473620499999996,
            "velocity": 0.5433070866141733
          },
          {
            "duration": 0.1578944999999976,
            "durationTicks": 96,
            "midi": 37,
            "name": "C#2",
            "ticks": 25920,
            "time": 42.631515,
            "velocity": 0.5433070866141733
          },
          {
            "duration": 0.1578944999999976,
            "durationTicks": 96,
            "midi": 70,
            "name": "A#4",
            "ticks": 25920,
            "time": 42.631515,
            "velocity": 0.5433070866141733
          },
          {
            "duration": 0.1578944999999976,
            "durationTicks": 96,
            "midi": 46,
            "name": "A#2",
            "ticks": 26016,
            "time": 42.7894095,
            "velocity": 0.5433070866141733
          },
          {
            "duration": 0.1578944999999976,
            "durationTicks": 96,
            "midi": 71,
            "name": "B4",
            "ticks": 26016,
            "time": 42.7894095,
            "velocity": 0.5433070866141733
          },
          {
            "duration": 0.1578945000000047,
            "durationTicks": 96,
            "midi": 44,
            "name": "G#2",
            "ticks": 26112,
            "time": 42.947303999999995,
            "velocity": 0.5433070866141733
          },
          {
            "duration": 0.07894725000000591,
            "durationTicks": 48,
            "midi": 83,
            "name": "B5",
            "ticks": 26112,
            "time": 42.947303999999995,
            "velocity": 0.5433070866141733
          },
          {
            "duration": 0.1578944999999976,
            "durationTicks": 96,
            "midi": 47,
            "name": "B2",
            "ticks": 26208,
            "time": 43.1051985,
            "velocity": 0.5433070866141733
          },
          {
            "duration": 0.0394736249999994,
            "durationTicks": 24,
            "midi": 82,
            "name": "A#5",
            "ticks": 26208,
            "time": 43.1051985,
            "velocity": 0.5433070866141733
          },
          {
            "duration": 0.0394736249999994,
            "durationTicks": 24,
            "midi": 83,
            "name": "B5",
            "ticks": 26232,
            "time": 43.144672125,
            "velocity": 0.5433070866141733
          },
          {
            "duration": 0.0394736249999994,
            "durationTicks": 24,
            "midi": 82,
            "name": "A#5",
            "ticks": 26256,
            "time": 43.18414575,
            "velocity": 0.5433070866141733
          },
          {
            "duration": 0.1578944999999976,
            "durationTicks": 96,
            "midi": 39,
            "name": "D#2",
            "ticks": 26304,
            "time": 43.263093,
            "velocity": 0.5433070866141733
          },
          {
            "duration": 0.1578944999999976,
            "durationTicks": 96,
            "midi": 80,
            "name": "G#5",
            "ticks": 26304,
            "time": 43.263093,
            "velocity": 0.5433070866141733
          },
          {
            "duration": 0.1578945000000047,
            "durationTicks": 96,
            "midi": 78,
            "name": "F#5",
            "ticks": 26400,
            "time": 43.420987499999995,
            "velocity": 0.5433070866141733
          },
          {
            "duration": 0.1578945000000047,
            "durationTicks": 96,
            "midi": 47,
            "name": "B2",
            "ticks": 26400,
            "time": 43.420987499999995,
            "velocity": 0.5433070866141733
          },
          {
            "duration": 0.1578944999999976,
            "durationTicks": 96,
            "midi": 75,
            "name": "D#5",
            "ticks": 26496,
            "time": 43.578882,
            "velocity": 0.5433070866141733
          },
          {
            "duration": 0.1578944999999976,
            "durationTicks": 96,
            "midi": 44,
            "name": "G#2",
            "ticks": 26496,
            "time": 43.578882,
            "velocity": 0.5433070866141733
          },
          {
            "duration": 0.1578944999999976,
            "durationTicks": 96,
            "midi": 47,
            "name": "B2",
            "ticks": 26592,
            "time": 43.7367765,
            "velocity": 0.5433070866141733
          },
          {
            "duration": 0.1578944999999976,
            "durationTicks": 96,
            "midi": 71,
            "name": "B4",
            "ticks": 26592,
            "time": 43.7367765,
            "velocity": 0.5433070866141733
          },
          {
            "duration": 0.1578945000000047,
            "durationTicks": 96,
            "midi": 39,
            "name": "D#2",
            "ticks": 26688,
            "time": 43.894670999999995,
            "velocity": 0.5433070866141733
          },
          {
            "duration": 0.1578945000000047,
            "durationTicks": 96,
            "midi": 70,
            "name": "A#4",
            "ticks": 26688,
            "time": 43.894670999999995,
            "velocity": 0.5433070866141733
          },
          {
            "duration": 0.1578944999999976,
            "durationTicks": 96,
            "midi": 71,
            "name": "B4",
            "ticks": 26784,
            "time": 44.0525655,
            "velocity": 0.5433070866141733
          },
          {
            "duration": 0.1578944999999976,
            "durationTicks": 96,
            "midi": 47,
            "name": "B2",
            "ticks": 26784,
            "time": 44.0525655,
            "velocity": 0.5433070866141733
          },
          {
            "duration": 0.1578944999999976,
            "durationTicks": 96,
            "midi": 77,
            "name": "F5",
            "ticks": 26880,
            "time": 44.21046,
            "velocity": 0.5433070866141733
          },
          {
            "duration": 0.1578944999999976,
            "durationTicks": 96,
            "midi": 39,
            "name": "D#2",
            "ticks": 26880,
            "time": 44.21046,
            "velocity": 0.5433070866141733
          },
          {
            "duration": 0.1578945000000047,
            "durationTicks": 96,
            "midi": 42,
            "name": "F#2",
            "ticks": 26976,
            "time": 44.368354499999995,
            "velocity": 0.5433070866141733
          },
          {
            "duration": 0.1578945000000047,
            "durationTicks": 96,
            "midi": 70,
            "name": "A#4",
            "ticks": 26976,
            "time": 44.368354499999995,
            "velocity": 0.5433070866141733
          },
          {
            "duration": 0.1578944999999976,
            "durationTicks": 96,
            "midi": 66,
            "name": "F#4",
            "ticks": 27072,
            "time": 44.526249,
            "velocity": 0.5433070866141733
          },
          {
            "duration": 0.1578944999999976,
            "durationTicks": 96,
            "midi": 34,
            "name": "A#1",
            "ticks": 27072,
            "time": 44.526249,
            "velocity": 0.5433070866141733
          },
          {
            "duration": 0.1578944999999976,
            "durationTicks": 96,
            "midi": 70,
            "name": "A#4",
            "ticks": 27168,
            "time": 44.6841435,
            "velocity": 0.5433070866141733
          },
          {
            "duration": 0.1578944999999976,
            "durationTicks": 96,
            "midi": 42,
            "name": "F#2",
            "ticks": 27168,
            "time": 44.6841435,
            "velocity": 0.5433070866141733
          },
          {
            "duration": 0.1578945000000047,
            "durationTicks": 96,
            "midi": 78,
            "name": "F#5",
            "ticks": 27264,
            "time": 44.842037999999995,
            "velocity": 0.5433070866141733
          },
          {
            "duration": 0.1578945000000047,
            "durationTicks": 96,
            "midi": 39,
            "name": "D#2",
            "ticks": 27264,
            "time": 44.842037999999995,
            "velocity": 0.5433070866141733
          },
          {
            "duration": 0.1578944999999976,
            "durationTicks": 96,
            "midi": 70,
            "name": "A#4",
            "ticks": 27360,
            "time": 44.9999325,
            "velocity": 0.5433070866141733
          },
          {
            "duration": 0.1578944999999976,
            "durationTicks": 96,
            "midi": 42,
            "name": "F#2",
            "ticks": 27360,
            "time": 44.9999325,
            "velocity": 0.5433070866141733
          },
          {
            "duration": 0.1578944999999976,
            "durationTicks": 96,
            "midi": 66,
            "name": "F#4",
            "ticks": 27456,
            "time": 45.157827,
            "velocity": 0.5433070866141733
          },
          {
            "duration": 0.1578944999999976,
            "durationTicks": 96,
            "midi": 34,
            "name": "A#1",
            "ticks": 27456,
            "time": 45.157827,
            "velocity": 0.5433070866141733
          },
          {
            "duration": 0.1578945000000047,
            "durationTicks": 96,
            "midi": 42,
            "name": "F#2",
            "ticks": 27552,
            "time": 45.315721499999995,
            "velocity": 0.5433070866141733
          },
          {
            "duration": 0.1578945000000047,
            "durationTicks": 96,
            "midi": 70,
            "name": "A#4",
            "ticks": 27552,
            "time": 45.315721499999995,
            "velocity": 0.5433070866141733
          },
          {
            "duration": 0.1578944999999976,
            "durationTicks": 96,
            "midi": 40,
            "name": "E2",
            "ticks": 27648,
            "time": 45.473616,
            "velocity": 0.5433070866141733
          },
          {
            "duration": 0.0789472499999988,
            "durationTicks": 48,
            "midi": 80,
            "name": "G#5",
            "ticks": 27648,
            "time": 45.473616,
            "velocity": 0.5433070866141733
          },
          {
            "duration": 0.0394736249999994,
            "durationTicks": 24,
            "midi": 78,
            "name": "F#5",
            "ticks": 27744,
            "time": 45.6315105,
            "velocity": 0.5433070866141733
          },
          {
            "duration": 0.1578944999999976,
            "durationTicks": 96,
            "midi": 44,
            "name": "G#2",
            "ticks": 27744,
            "time": 45.6315105,
            "velocity": 0.5433070866141733
          },
          {
            "duration": 0.0394736249999994,
            "durationTicks": 24,
            "midi": 80,
            "name": "G#5",
            "ticks": 27768,
            "time": 45.670984125,
            "velocity": 0.5433070866141733
          },
          {
            "duration": 0.0394736249999994,
            "durationTicks": 24,
            "midi": 78,
            "name": "F#5",
            "ticks": 27792,
            "time": 45.710457749999996,
            "velocity": 0.5433070866141733
          },
          {
            "duration": 0.1578945000000047,
            "durationTicks": 96,
            "midi": 35,
            "name": "B1",
            "ticks": 27840,
            "time": 45.789404999999995,
            "velocity": 0.5433070866141733
          },
          {
            "duration": 0.1578945000000047,
            "durationTicks": 96,
            "midi": 76,
            "name": "E5",
            "ticks": 27840,
            "time": 45.789404999999995,
            "velocity": 0.5433070866141733
          },
          {
            "duration": 0.1578944999999976,
            "durationTicks": 96,
            "midi": 75,
            "name": "D#5",
            "ticks": 27936,
            "time": 45.9472995,
            "velocity": 0.5433070866141733
          },
          {
            "duration": 0.1578944999999976,
            "durationTicks": 96,
            "midi": 44,
            "name": "G#2",
            "ticks": 27936,
            "time": 45.9472995,
            "velocity": 0.5433070866141733
          },
          {
            "duration": 0.1578944999999976,
            "durationTicks": 96,
            "midi": 73,
            "name": "C#5",
            "ticks": 28032,
            "time": 46.105194,
            "velocity": 0.5433070866141733
          },
          {
            "duration": 0.1578944999999976,
            "durationTicks": 96,
            "midi": 40,
            "name": "E2",
            "ticks": 28032,
            "time": 46.105194,
            "velocity": 0.5433070866141733
          },
          {
            "duration": 0.1578945000000047,
            "durationTicks": 96,
            "midi": 71,
            "name": "B4",
            "ticks": 28128,
            "time": 46.263088499999995,
            "velocity": 0.5433070866141733
          },
          {
            "duration": 0.1578945000000047,
            "durationTicks": 96,
            "midi": 44,
            "name": "G#2",
            "ticks": 28128,
            "time": 46.263088499999995,
            "velocity": 0.5433070866141733
          },
          {
            "duration": 0.1578944999999976,
            "durationTicks": 96,
            "midi": 73,
            "name": "C#5",
            "ticks": 28224,
            "time": 46.420983,
            "velocity": 0.5433070866141733
          },
          {
            "duration": 0.1578944999999976,
            "durationTicks": 96,
            "midi": 35,
            "name": "B1",
            "ticks": 28224,
            "time": 46.420983,
            "velocity": 0.5433070866141733
          },
          {
            "duration": 0.1578944999999976,
            "durationTicks": 96,
            "midi": 44,
            "name": "G#2",
            "ticks": 28320,
            "time": 46.5788775,
            "velocity": 0.5433070866141733
          },
          {
            "duration": 0.1578944999999976,
            "durationTicks": 96,
            "midi": 76,
            "name": "E5",
            "ticks": 28320,
            "time": 46.5788775,
            "velocity": 0.5433070866141733
          },
          {
            "duration": 0.1578945000000047,
            "durationTicks": 96,
            "midi": 75,
            "name": "D#5",
            "ticks": 28416,
            "time": 46.736771999999995,
            "velocity": 0.5433070866141733
          },
          {
            "duration": 0.1578945000000047,
            "durationTicks": 96,
            "midi": 47,
            "name": "B2",
            "ticks": 28416,
            "time": 46.736771999999995,
            "velocity": 0.5433070866141733
          },
          {
            "duration": 0.1578944999999976,
            "durationTicks": 96,
            "midi": 71,
            "name": "B4",
            "ticks": 28512,
            "time": 46.8946665,
            "velocity": 0.5433070866141733
          },
          {
            "duration": 0.1578944999999976,
            "durationTicks": 96,
            "midi": 51,
            "name": "D#3",
            "ticks": 28512,
            "time": 46.8946665,
            "velocity": 0.5433070866141733
          },
          {
            "duration": 0.1578944999999976,
            "durationTicks": 96,
            "midi": 42,
            "name": "F#2",
            "ticks": 28608,
            "time": 47.052561,
            "velocity": 0.5433070866141733
          },
          {
            "duration": 0.1578944999999976,
            "durationTicks": 96,
            "midi": 66,
            "name": "F#4",
            "ticks": 28608,
            "time": 47.052561,
            "velocity": 0.5433070866141733
          },
          {
            "duration": 0.1578945000000047,
            "durationTicks": 96,
            "midi": 51,
            "name": "D#3",
            "ticks": 28704,
            "time": 47.210455499999995,
            "velocity": 0.5433070866141733
          },
          {
            "duration": 0.1578945000000047,
            "durationTicks": 96,
            "midi": 71,
            "name": "B4",
            "ticks": 28704,
            "time": 47.210455499999995,
            "velocity": 0.5433070866141733
          },
          {
            "duration": 0.1578944999999976,
            "durationTicks": 96,
            "midi": 47,
            "name": "B2",
            "ticks": 28800,
            "time": 47.36835,
            "velocity": 0.5433070866141733
          },
          {
            "duration": 0.4736834999999999,
            "durationTicks": 288,
            "midi": 75,
            "name": "D#5",
            "ticks": 28800,
            "time": 47.36835,
            "velocity": 0.5433070866141733
          },
          {
            "duration": 0.1578944999999976,
            "durationTicks": 96,
            "midi": 51,
            "name": "D#3",
            "ticks": 28896,
            "time": 47.5262445,
            "velocity": 0.5433070866141733
          },
          {
            "duration": 0.1578945000000047,
            "durationTicks": 96,
            "midi": 42,
            "name": "F#2",
            "ticks": 28992,
            "time": 47.684138999999995,
            "velocity": 0.5433070866141733
          },
          {
            "duration": 0.1578944999999976,
            "durationTicks": 96,
            "midi": 71,
            "name": "B4",
            "ticks": 29088,
            "time": 47.8420335,
            "velocity": 0.5433070866141733
          },
          {
            "duration": 0.1578944999999976,
            "durationTicks": 96,
            "midi": 51,
            "name": "D#3",
            "ticks": 29088,
            "time": 47.8420335,
            "velocity": 0.5433070866141733
          },
          {
            "duration": 0.1578944999999976,
            "durationTicks": 96,
            "midi": 37,
            "name": "C#2",
            "ticks": 29184,
            "time": 47.999928,
            "velocity": 0.5433070866141733
          },
          {
            "duration": 0.1578944999999976,
            "durationTicks": 96,
            "midi": 73,
            "name": "C#5",
            "ticks": 29184,
            "time": 47.999928,
            "velocity": 0.5433070866141733
          },
          {
            "duration": 0.1578945000000047,
            "durationTicks": 96,
            "midi": 40,
            "name": "E2",
            "ticks": 29280,
            "time": 48.157822499999995,
            "velocity": 0.5433070866141733
          },
          {
            "duration": 0.1578945000000047,
            "durationTicks": 96,
            "midi": 68,
            "name": "G#4",
            "ticks": 29280,
            "time": 48.157822499999995,
            "velocity": 0.5433070866141733
          },
          {
            "duration": 0.1578944999999976,
            "durationTicks": 96,
            "midi": 32,
            "name": "G#1",
            "ticks": 29376,
            "time": 48.315717,
            "velocity": 0.5433070866141733
          },
          {
            "duration": 0.1578944999999976,
            "durationTicks": 96,
            "midi": 64,
            "name": "E4",
            "ticks": 29376,
            "time": 48.315717,
            "velocity": 0.5433070866141733
          },
          {
            "duration": 0.1578944999999976,
            "durationTicks": 96,
            "midi": 40,
            "name": "E2",
            "ticks": 29472,
            "time": 48.4736115,
            "velocity": 0.5433070866141733
          },
          {
            "duration": 0.1578944999999976,
            "durationTicks": 96,
            "midi": 68,
            "name": "G#4",
            "ticks": 29472,
            "time": 48.4736115,
            "velocity": 0.5433070866141733
          },
          {
            "duration": 0.1578945000000047,
            "durationTicks": 96,
            "midi": 37,
            "name": "C#2",
            "ticks": 29568,
            "time": 48.631505999999995,
            "velocity": 0.5433070866141733
          },
          {
            "duration": 0.1578945000000047,
            "durationTicks": 96,
            "midi": 73,
            "name": "C#5",
            "ticks": 29568,
            "time": 48.631505999999995,
            "velocity": 0.5433070866141733
          },
          {
            "duration": 0.1578944999999976,
            "durationTicks": 96,
            "midi": 40,
            "name": "E2",
            "ticks": 29664,
            "time": 48.7894005,
            "velocity": 0.5433070866141733
          },
          {
            "duration": 0.1578944999999976,
            "durationTicks": 96,
            "midi": 68,
            "name": "G#4",
            "ticks": 29664,
            "time": 48.7894005,
            "velocity": 0.5433070866141733
          },
          {
            "duration": 0.1578944999999976,
            "durationTicks": 96,
            "midi": 76,
            "name": "E5",
            "ticks": 29760,
            "time": 48.947295,
            "velocity": 0.5433070866141733
          },
          {
            "duration": 0.1578944999999976,
            "durationTicks": 96,
            "midi": 32,
            "name": "G#1",
            "ticks": 29760,
            "time": 48.947295,
            "velocity": 0.5433070866141733
          },
          {
            "duration": 0.1578945000000047,
            "durationTicks": 96,
            "midi": 68,
            "name": "G#4",
            "ticks": 29856,
            "time": 49.105189499999994,
            "velocity": 0.5433070866141733
          },
          {
            "duration": 0.1578945000000047,
            "durationTicks": 96,
            "midi": 40,
            "name": "E2",
            "ticks": 29856,
            "time": 49.105189499999994,
            "velocity": 0.5433070866141733
          },
          {
            "duration": 0.4736834999999999,
            "durationTicks": 288,
            "midi": 75,
            "name": "D#5",
            "ticks": 29952,
            "time": 49.263084,
            "velocity": 0.5433070866141733
          },
          {
            "duration": 0.1578944999999976,
            "durationTicks": 96,
            "midi": 43,
            "name": "G2",
            "ticks": 29952,
            "time": 49.263084,
            "velocity": 0.5433070866141733
          },
          {
            "duration": 0.1578944999999976,
            "durationTicks": 96,
            "midi": 46,
            "name": "A#2",
            "ticks": 30048,
            "time": 49.4209785,
            "velocity": 0.5433070866141733
          },
          {
            "duration": 0.1578945000000047,
            "durationTicks": 96,
            "midi": 39,
            "name": "D#2",
            "ticks": 30144,
            "time": 49.578872999999994,
            "velocity": 0.5433070866141733
          },
          {
            "duration": 0.1578944999999976,
            "durationTicks": 96,
            "midi": 46,
            "name": "A#2",
            "ticks": 30240,
            "time": 49.7367675,
            "velocity": 0.5433070866141733
          },
          {
            "duration": 0.0789472499999988,
            "durationTicks": 48,
            "midi": 76,
            "name": "E5",
            "ticks": 30240,
            "time": 49.7367675,
            "velocity": 0.5433070866141733
          },
          {
            "duration": 0.0789472499999988,
            "durationTicks": 48,
            "midi": 75,
            "name": "D#5",
            "ticks": 30288,
            "time": 49.81571475,
            "velocity": 0.5433070866141733
          },
          {
            "duration": 0.6315780000000046,
            "durationTicks": 384,
            "midi": 73,
            "name": "C#5",
            "ticks": 30336,
            "time": 49.894662,
            "velocity": 0.5433070866141733
          },
          {
            "duration": 0.1578944999999976,
            "durationTicks": 96,
            "midi": 43,
            "name": "G2",
            "ticks": 30336,
            "time": 49.894662,
            "velocity": 0.5433070866141733
          },
          {
            "duration": 0.1578945000000047,
            "durationTicks": 96,
            "midi": 46,
            "name": "A#2",
            "ticks": 30432,
            "time": 50.052556499999994,
            "velocity": 0.5433070866141733
          },
          {
            "duration": 0.1578944999999976,
            "durationTicks": 96,
            "midi": 39,
            "name": "D#2",
            "ticks": 30528,
            "time": 50.210451,
            "velocity": 0.5433070866141733
          },
          {
            "duration": 0.1578945000000047,
            "durationTicks": 96,
            "midi": 46,
            "name": "A#2",
            "ticks": 30624,
            "time": 50.3683455,
            "velocity": 0.5433070866141733
          },
          {
            "duration": 0.1578944999999976,
            "durationTicks": 96,
            "midi": 40,
            "name": "E2",
            "ticks": 30720,
            "time": 50.52624,
            "velocity": 0.5433070866141733
          },
          {
            "duration": 0.1578944999999976,
            "durationTicks": 96,
            "midi": 71,
            "name": "B4",
            "ticks": 30816,
            "time": 50.6841345,
            "velocity": 0.5433070866141733
          },
          {
            "duration": 0.1578944999999976,
            "durationTicks": 96,
            "midi": 44,
            "name": "G#2",
            "ticks": 30816,
            "time": 50.6841345,
            "velocity": 0.5433070866141733
          },
          {
            "duration": 0.1578945000000047,
            "durationTicks": 96,
            "midi": 35,
            "name": "B1",
            "ticks": 30912,
            "time": 50.842029,
            "velocity": 0.5433070866141733
          },
          {
            "duration": 0.1578945000000047,
            "durationTicks": 96,
            "midi": 70,
            "name": "A#4",
            "ticks": 30912,
            "time": 50.842029,
            "velocity": 0.5433070866141733
          },
          {
            "duration": 0.1578944999999976,
            "durationTicks": 96,
            "midi": 71,
            "name": "B4",
            "ticks": 31008,
            "time": 50.9999235,
            "velocity": 0.5433070866141733
          },
          {
            "duration": 0.1578944999999976,
            "durationTicks": 96,
            "midi": 44,
            "name": "G#2",
            "ticks": 31008,
            "time": 50.9999235,
            "velocity": 0.5433070866141733
          },
          {
            "duration": 0.1578944999999976,
            "durationTicks": 96,
            "midi": 40,
            "name": "E2",
            "ticks": 31104,
            "time": 51.157818,
            "velocity": 0.5433070866141733
          },
          {
            "duration": 0.1578944999999976,
            "durationTicks": 96,
            "midi": 78,
            "name": "F#5",
            "ticks": 31104,
            "time": 51.157818,
            "velocity": 0.5433070866141733
          },
          {
            "duration": 0.1578945000000047,
            "durationTicks": 96,
            "midi": 71,
            "name": "B4",
            "ticks": 31200,
            "time": 51.3157125,
            "velocity": 0.5433070866141733
          },
          {
            "duration": 0.1578945000000047,
            "durationTicks": 96,
            "midi": 44,
            "name": "G#2",
            "ticks": 31200,
            "time": 51.3157125,
            "velocity": 0.5433070866141733
          },
          {
            "duration": 0.1578944999999976,
            "durationTicks": 96,
            "midi": 70,
            "name": "A#4",
            "ticks": 31296,
            "time": 51.473607,
            "velocity": 0.5433070866141733
          },
          {
            "duration": 0.1578944999999976,
            "durationTicks": 96,
            "midi": 35,
            "name": "B1",
            "ticks": 31296,
            "time": 51.473607,
            "velocity": 0.5433070866141733
          },
          {
            "duration": 0.1578944999999976,
            "durationTicks": 96,
            "midi": 71,
            "name": "B4",
            "ticks": 31392,
            "time": 51.6315015,
            "velocity": 0.5433070866141733
          },
          {
            "duration": 0.1578944999999976,
            "durationTicks": 96,
            "midi": 44,
            "name": "G#2",
            "ticks": 31392,
            "time": 51.6315015,
            "velocity": 0.5433070866141733
          },
          {
            "duration": 0.1578945000000047,
            "durationTicks": 96,
            "midi": 42,
            "name": "F#2",
            "ticks": 31488,
            "time": 51.789395999999996,
            "velocity": 0.5433070866141733
          },
          {
            "duration": 0.1578945000000047,
            "durationTicks": 96,
            "midi": 80,
            "name": "G#5",
            "ticks": 31488,
            "time": 51.789395999999996,
            "velocity": 0.5433070866141733
          },
          {
            "duration": 0.1578944999999976,
            "durationTicks": 96,
            "midi": 46,
            "name": "A#2",
            "ticks": 31584,
            "time": 51.9472905,
            "velocity": 0.5433070866141733
          },
          {
            "duration": 0.1578944999999976,
            "durationTicks": 96,
            "midi": 71,
            "name": "B4",
            "ticks": 31584,
            "time": 51.9472905,
            "velocity": 0.5433070866141733
          },
          {
            "duration": 0.1578944999999976,
            "durationTicks": 96,
            "midi": 37,
            "name": "C#2",
            "ticks": 31680,
            "time": 52.105185,
            "velocity": 0.5433070866141733
          },
          {
            "duration": 0.1578944999999976,
            "durationTicks": 96,
            "midi": 70,
            "name": "A#4",
            "ticks": 31680,
            "time": 52.105185,
            "velocity": 0.5433070866141733
          },
          {
            "duration": 0.1578945000000047,
            "durationTicks": 96,
            "midi": 46,
            "name": "A#2",
            "ticks": 31776,
            "time": 52.263079499999996,
            "velocity": 0.5433070866141733
          },
          {
            "duration": 0.1578945000000047,
            "durationTicks": 96,
            "midi": 71,
            "name": "B4",
            "ticks": 31776,
            "time": 52.263079499999996,
            "velocity": 0.5433070866141733
          },
          {
            "duration": 0.1578944999999976,
            "durationTicks": 96,
            "midi": 42,
            "name": "F#2",
            "ticks": 31872,
            "time": 52.420974,
            "velocity": 0.5433070866141733
          },
          {
            "duration": 0.1578944999999976,
            "durationTicks": 96,
            "midi": 82,
            "name": "A#5",
            "ticks": 31872,
            "time": 52.420974,
            "velocity": 0.5433070866141733
          },
          {
            "duration": 0.1578944999999976,
            "durationTicks": 96,
            "midi": 71,
            "name": "B4",
            "ticks": 31968,
            "time": 52.5788685,
            "velocity": 0.5433070866141733
          },
          {
            "duration": 0.1578944999999976,
            "durationTicks": 96,
            "midi": 46,
            "name": "A#2",
            "ticks": 31968,
            "time": 52.5788685,
            "velocity": 0.5433070866141733
          },
          {
            "duration": 0.1578945000000047,
            "durationTicks": 96,
            "midi": 37,
            "name": "C#2",
            "ticks": 32064,
            "time": 52.736762999999996,
            "velocity": 0.5433070866141733
          },
          {
            "duration": 0.1578945000000047,
            "durationTicks": 96,
            "midi": 70,
            "name": "A#4",
            "ticks": 32064,
            "time": 52.736762999999996,
            "velocity": 0.5433070866141733
          },
          {
            "duration": 0.1578944999999976,
            "durationTicks": 96,
            "midi": 71,
            "name": "B4",
            "ticks": 32160,
            "time": 52.8946575,
            "velocity": 0.5433070866141733
          },
          {
            "duration": 0.1578944999999976,
            "durationTicks": 96,
            "midi": 46,
            "name": "A#2",
            "ticks": 32160,
            "time": 52.8946575,
            "velocity": 0.5433070866141733
          },
          {
            "duration": 0.1578944999999976,
            "durationTicks": 96,
            "midi": 44,
            "name": "G#2",
            "ticks": 32256,
            "time": 53.052552,
            "velocity": 0.5433070866141733
          },
          {
            "duration": 0.0789472499999988,
            "durationTicks": 48,
            "midi": 83,
            "name": "B5",
            "ticks": 32256,
            "time": 53.052552,
            "velocity": 0.5433070866141733
          },
          {
            "duration": 0.1578945000000047,
            "durationTicks": 96,
            "midi": 47,
            "name": "B2",
            "ticks": 32352,
            "time": 53.210446499999996,
            "velocity": 0.5433070866141733
          },
          {
            "duration": 0.0394736249999994,
            "durationTicks": 24,
            "midi": 82,
            "name": "A#5",
            "ticks": 32352,
            "time": 53.210446499999996,
            "velocity": 0.5433070866141733
          },
          {
            "duration": 0.0394736249999994,
            "durationTicks": 24,
            "midi": 83,
            "name": "B5",
            "ticks": 32376,
            "time": 53.249920124999996,
            "velocity": 0.5433070866141733
          },
          {
            "duration": 0.0394736249999994,
            "durationTicks": 24,
            "midi": 82,
            "name": "A#5",
            "ticks": 32400,
            "time": 53.289393749999995,
            "velocity": 0.5433070866141733
          },
          {
            "duration": 0.1578944999999976,
            "durationTicks": 96,
            "midi": 39,
            "name": "D#2",
            "ticks": 32448,
            "time": 53.368341,
            "velocity": 0.5433070866141733
          },
          {
            "duration": 0.1578944999999976,
            "durationTicks": 96,
            "midi": 80,
            "name": "G#5",
            "ticks": 32448,
            "time": 53.368341,
            "velocity": 0.5433070866141733
          },
          {
            "duration": 0.1578944999999976,
            "durationTicks": 96,
            "midi": 78,
            "name": "F#5",
            "ticks": 32544,
            "time": 53.5262355,
            "velocity": 0.5433070866141733
          },
          {
            "duration": 0.1578944999999976,
            "durationTicks": 96,
            "midi": 47,
            "name": "B2",
            "ticks": 32544,
            "time": 53.5262355,
            "velocity": 0.5433070866141733
          },
          {
            "duration": 0.1578945000000047,
            "durationTicks": 96,
            "midi": 75,
            "name": "D#5",
            "ticks": 32640,
            "time": 53.684129999999996,
            "velocity": 0.5433070866141733
          },
          {
            "duration": 0.1578945000000047,
            "durationTicks": 96,
            "midi": 44,
            "name": "G#2",
            "ticks": 32640,
            "time": 53.684129999999996,
            "velocity": 0.5433070866141733
          },
          {
            "duration": 0.1578944999999976,
            "durationTicks": 96,
            "midi": 47,
            "name": "B2",
            "ticks": 32736,
            "time": 53.8420245,
            "velocity": 0.5433070866141733
          },
          {
            "duration": 0.1578944999999976,
            "durationTicks": 96,
            "midi": 71,
            "name": "B4",
            "ticks": 32736,
            "time": 53.8420245,
            "velocity": 0.5433070866141733
          },
          {
            "duration": 0.1578944999999976,
            "durationTicks": 96,
            "midi": 70,
            "name": "A#4",
            "ticks": 32832,
            "time": 53.999919,
            "velocity": 0.5433070866141733
          },
          {
            "duration": 0.1578944999999976,
            "durationTicks": 96,
            "midi": 39,
            "name": "D#2",
            "ticks": 32832,
            "time": 53.999919,
            "velocity": 0.5433070866141733
          },
          {
            "duration": 0.1578945000000047,
            "durationTicks": 96,
            "midi": 71,
            "name": "B4",
            "ticks": 32928,
            "time": 54.157813499999996,
            "velocity": 0.5433070866141733
          },
          {
            "duration": 0.1578945000000047,
            "durationTicks": 96,
            "midi": 47,
            "name": "B2",
            "ticks": 32928,
            "time": 54.157813499999996,
            "velocity": 0.5433070866141733
          },
          {
            "duration": 0.1578944999999976,
            "durationTicks": 96,
            "midi": 39,
            "name": "D#2",
            "ticks": 33024,
            "time": 54.315708,
            "velocity": 0.5433070866141733
          },
          {
            "duration": 0.1578944999999976,
            "durationTicks": 96,
            "midi": 77,
            "name": "F5",
            "ticks": 33024,
            "time": 54.315708,
            "velocity": 0.5433070866141733
          },
          {
            "duration": 0.1578944999999976,
            "durationTicks": 96,
            "midi": 70,
            "name": "A#4",
            "ticks": 33120,
            "time": 54.4736025,
            "velocity": 0.5433070866141733
          },
          {
            "duration": 0.1578944999999976,
            "durationTicks": 96,
            "midi": 42,
            "name": "F#2",
            "ticks": 33120,
            "time": 54.4736025,
            "velocity": 0.5433070866141733
          },
          {
            "duration": 0.1578945000000047,
            "durationTicks": 96,
            "midi": 66,
            "name": "F#4",
            "ticks": 33216,
            "time": 54.631496999999996,
            "velocity": 0.5433070866141733
          },
          {
            "duration": 0.1578945000000047,
            "durationTicks": 96,
            "midi": 34,
            "name": "A#1",
            "ticks": 33216,
            "time": 54.631496999999996,
            "velocity": 0.5433070866141733
          },
          {
            "duration": 0.1578944999999976,
            "durationTicks": 96,
            "midi": 70,
            "name": "A#4",
            "ticks": 33312,
            "time": 54.7893915,
            "velocity": 0.5433070866141733
          },
          {
            "duration": 0.1578944999999976,
            "durationTicks": 96,
            "midi": 42,
            "name": "F#2",
            "ticks": 33312,
            "time": 54.7893915,
            "velocity": 0.5433070866141733
          },
          {
            "duration": 0.1578944999999976,
            "durationTicks": 96,
            "midi": 39,
            "name": "D#2",
            "ticks": 33408,
            "time": 54.947286,
            "velocity": 0.5433070866141733
          },
          {
            "duration": 0.1578944999999976,
            "durationTicks": 96,
            "midi": 78,
            "name": "F#5",
            "ticks": 33408,
            "time": 54.947286,
            "velocity": 0.5433070866141733
          },
          {
            "duration": 0.1578945000000047,
            "durationTicks": 96,
            "midi": 70,
            "name": "A#4",
            "ticks": 33504,
            "time": 55.105180499999996,
            "velocity": 0.5433070866141733
          },
          {
            "duration": 0.1578945000000047,
            "durationTicks": 96,
            "midi": 42,
            "name": "F#2",
            "ticks": 33504,
            "time": 55.105180499999996,
            "velocity": 0.5433070866141733
          },
          {
            "duration": 0.1578944999999976,
            "durationTicks": 96,
            "midi": 34,
            "name": "A#1",
            "ticks": 33600,
            "time": 55.263075,
            "velocity": 0.5433070866141733
          },
          {
            "duration": 0.1578944999999976,
            "durationTicks": 96,
            "midi": 66,
            "name": "F#4",
            "ticks": 33600,
            "time": 55.263075,
            "velocity": 0.5433070866141733
          },
          {
            "duration": 0.1578944999999976,
            "durationTicks": 96,
            "midi": 70,
            "name": "A#4",
            "ticks": 33696,
            "time": 55.4209695,
            "velocity": 0.5433070866141733
          },
          {
            "duration": 0.1578944999999976,
            "durationTicks": 96,
            "midi": 42,
            "name": "F#2",
            "ticks": 33696,
            "time": 55.4209695,
            "velocity": 0.5433070866141733
          },
          {
            "duration": 0.1578945000000047,
            "durationTicks": 96,
            "midi": 40,
            "name": "E2",
            "ticks": 33792,
            "time": 55.578863999999996,
            "velocity": 0.5433070866141733
          },
          {
            "duration": 0.0789472499999988,
            "durationTicks": 48,
            "midi": 80,
            "name": "G#5",
            "ticks": 33792,
            "time": 55.578863999999996,
            "velocity": 0.5433070866141733
          },
          {
            "duration": 0.1578944999999976,
            "durationTicks": 96,
            "midi": 44,
            "name": "G#2",
            "ticks": 33888,
            "time": 55.7367585,
            "velocity": 0.5433070866141733
          },
          {
            "duration": 0.0394736249999994,
            "durationTicks": 24,
            "midi": 78,
            "name": "F#5",
            "ticks": 33888,
            "time": 55.7367585,
            "velocity": 0.5433070866141733
          },
          {
            "duration": 0.0394736249999994,
            "durationTicks": 24,
            "midi": 80,
            "name": "G#5",
            "ticks": 33912,
            "time": 55.776232125,
            "velocity": 0.5433070866141733
          },
          {
            "duration": 0.0394736249999994,
            "durationTicks": 24,
            "midi": 78,
            "name": "F#5",
            "ticks": 33936,
            "time": 55.81570575,
            "velocity": 0.5433070866141733
          },
          {
            "duration": 0.1578944999999976,
            "durationTicks": 96,
            "midi": 76,
            "name": "E5",
            "ticks": 33984,
            "time": 55.894653,
            "velocity": 0.5433070866141733
          },
          {
            "duration": 0.1578944999999976,
            "durationTicks": 96,
            "midi": 35,
            "name": "B1",
            "ticks": 33984,
            "time": 55.894653,
            "velocity": 0.5433070866141733
          },
          {
            "duration": 0.1578945000000047,
            "durationTicks": 96,
            "midi": 44,
            "name": "G#2",
            "ticks": 34080,
            "time": 56.052547499999996,
            "velocity": 0.5433070866141733
          },
          {
            "duration": 0.1578945000000047,
            "durationTicks": 96,
            "midi": 75,
            "name": "D#5",
            "ticks": 34080,
            "time": 56.052547499999996,
            "velocity": 0.5433070866141733
          },
          {
            "duration": 0.1578944999999976,
            "durationTicks": 96,
            "midi": 73,
            "name": "C#5",
            "ticks": 34176,
            "time": 56.210442,
            "velocity": 0.5433070866141733
          },
          {
            "duration": 0.1578944999999976,
            "durationTicks": 96,
            "midi": 40,
            "name": "E2",
            "ticks": 34176,
            "time": 56.210442,
            "velocity": 0.5433070866141733
          },
          {
            "duration": 0.1578944999999976,
            "durationTicks": 96,
            "midi": 44,
            "name": "G#2",
            "ticks": 34272,
            "time": 56.3683365,
            "velocity": 0.5433070866141733
          },
          {
            "duration": 0.1578944999999976,
            "durationTicks": 96,
            "midi": 71,
            "name": "B4",
            "ticks": 34272,
            "time": 56.3683365,
            "velocity": 0.5433070866141733
          },
          {
            "duration": 0.1578945000000047,
            "durationTicks": 96,
            "midi": 73,
            "name": "C#5",
            "ticks": 34368,
            "time": 56.526230999999996,
            "velocity": 0.5433070866141733
          },
          {
            "duration": 0.1578945000000047,
            "durationTicks": 96,
            "midi": 35,
            "name": "B1",
            "ticks": 34368,
            "time": 56.526230999999996,
            "velocity": 0.5433070866141733
          },
          {
            "duration": 0.1578944999999976,
            "durationTicks": 96,
            "midi": 44,
            "name": "G#2",
            "ticks": 34464,
            "time": 56.6841255,
            "velocity": 0.5433070866141733
          },
          {
            "duration": 0.1578944999999976,
            "durationTicks": 96,
            "midi": 76,
            "name": "E5",
            "ticks": 34464,
            "time": 56.6841255,
            "velocity": 0.5433070866141733
          },
          {
            "duration": 0.1578944999999976,
            "durationTicks": 96,
            "midi": 75,
            "name": "D#5",
            "ticks": 34560,
            "time": 56.84202,
            "velocity": 0.5433070866141733
          },
          {
            "duration": 0.1578944999999976,
            "durationTicks": 96,
            "midi": 47,
            "name": "B2",
            "ticks": 34560,
            "time": 56.84202,
            "velocity": 0.5433070866141733
          },
          {
            "duration": 0.1578945000000047,
            "durationTicks": 96,
            "midi": 51,
            "name": "D#3",
            "ticks": 34656,
            "time": 56.999914499999996,
            "velocity": 0.5433070866141733
          },
          {
            "duration": 0.1578945000000047,
            "durationTicks": 96,
            "midi": 71,
            "name": "B4",
            "ticks": 34656,
            "time": 56.999914499999996,
            "velocity": 0.5433070866141733
          },
          {
            "duration": 0.1578944999999976,
            "durationTicks": 96,
            "midi": 42,
            "name": "F#2",
            "ticks": 34752,
            "time": 57.157809,
            "velocity": 0.5433070866141733
          },
          {
            "duration": 0.1578944999999976,
            "durationTicks": 96,
            "midi": 66,
            "name": "F#4",
            "ticks": 34752,
            "time": 57.157809,
            "velocity": 0.5433070866141733
          },
          {
            "duration": 0.1578944999999976,
            "durationTicks": 96,
            "midi": 51,
            "name": "D#3",
            "ticks": 34848,
            "time": 57.3157035,
            "velocity": 0.5433070866141733
          },
          {
            "duration": 0.1578944999999976,
            "durationTicks": 96,
            "midi": 71,
            "name": "B4",
            "ticks": 34848,
            "time": 57.3157035,
            "velocity": 0.5433070866141733
          },
          {
            "duration": 0.4736834999999999,
            "durationTicks": 288,
            "midi": 75,
            "name": "D#5",
            "ticks": 34944,
            "time": 57.473597999999996,
            "velocity": 0.5433070866141733
          },
          {
            "duration": 0.1578945000000047,
            "durationTicks": 96,
            "midi": 47,
            "name": "B2",
            "ticks": 34944,
            "time": 57.473597999999996,
            "velocity": 0.5433070866141733
          },
          {
            "duration": 0.1578944999999976,
            "durationTicks": 96,
            "midi": 51,
            "name": "D#3",
            "ticks": 35040,
            "time": 57.6314925,
            "velocity": 0.5433070866141733
          },
          {
            "duration": 0.1578944999999976,
            "durationTicks": 96,
            "midi": 42,
            "name": "F#2",
            "ticks": 35136,
            "time": 57.789387,
            "velocity": 0.5433070866141733
          },
          {
            "duration": 0.1578945000000047,
            "durationTicks": 96,
            "midi": 51,
            "name": "D#3",
            "ticks": 35232,
            "time": 57.947281499999995,
            "velocity": 0.5433070866141733
          },
          {
            "duration": 0.1578945000000047,
            "durationTicks": 96,
            "midi": 71,
            "name": "B4",
            "ticks": 35232,
            "time": 57.947281499999995,
            "velocity": 0.5433070866141733
          },
          {
            "duration": 0.1578944999999976,
            "durationTicks": 96,
            "midi": 73,
            "name": "C#5",
            "ticks": 35328,
            "time": 58.105176,
            "velocity": 0.5433070866141733
          },
          {
            "duration": 0.1578944999999976,
            "durationTicks": 96,
            "midi": 49,
            "name": "C#3",
            "ticks": 35328,
            "time": 58.105176,
            "velocity": 0.5433070866141733
          },
          {
            "duration": 0.1578944999999976,
            "durationTicks": 96,
            "midi": 68,
            "name": "G#4",
            "ticks": 35424,
            "time": 58.2630705,
            "velocity": 0.5433070866141733
          },
          {
            "duration": 0.1578945000000047,
            "durationTicks": 96,
            "midi": 47,
            "name": "B2",
            "ticks": 35520,
            "time": 58.420964999999995,
            "velocity": 0.5433070866141733
          },
          {
            "duration": 0.1578945000000047,
            "durationTicks": 96,
            "midi": 64,
            "name": "E4",
            "ticks": 35520,
            "time": 58.420964999999995,
            "velocity": 0.5433070866141733
          },
          {
            "duration": 0.1578944999999976,
            "durationTicks": 96,
            "midi": 68,
            "name": "G#4",
            "ticks": 35616,
            "time": 58.5788595,
            "velocity": 0.5433070866141733
          },
          {
            "duration": 0.1578944999999976,
            "durationTicks": 96,
            "midi": 46,
            "name": "A#2",
            "ticks": 35712,
            "time": 58.736754,
            "velocity": 0.5433070866141733
          },
          {
            "duration": 0.1578944999999976,
            "durationTicks": 96,
            "midi": 73,
            "name": "C#5",
            "ticks": 35712,
            "time": 58.736754,
            "velocity": 0.5433070866141733
          },
          {
            "duration": 0.1578945000000047,
            "durationTicks": 96,
            "midi": 68,
            "name": "G#4",
            "ticks": 35808,
            "time": 58.894648499999995,
            "velocity": 0.5433070866141733
          },
          {
            "duration": 0.1578944999999976,
            "durationTicks": 96,
            "midi": 44,
            "name": "G#2",
            "ticks": 35904,
            "time": 59.052543,
            "velocity": 0.5433070866141733
          },
          {
            "duration": 0.1578944999999976,
            "durationTicks": 96,
            "midi": 76,
            "name": "E5",
            "ticks": 35904,
            "time": 59.052543,
            "velocity": 0.5433070866141733
          },
          {
            "duration": 0.1578944999999976,
            "durationTicks": 96,
            "midi": 68,
            "name": "G#4",
            "ticks": 36000,
            "time": 59.2104375,
            "velocity": 0.5433070866141733
          },
          {
            "duration": 0.4736834999999999,
            "durationTicks": 288,
            "midi": 75,
            "name": "D#5",
            "ticks": 36096,
            "time": 59.368331999999995,
            "velocity": 0.5433070866141733
          },
          {
            "duration": 0.6315780000000046,
            "durationTicks": 384,
            "midi": 39,
            "name": "D#2",
            "ticks": 36096,
            "time": 59.368331999999995,
            "velocity": 0.5433070866141733
          },
          {
            "duration": 0.0789472499999988,
            "durationTicks": 48,
            "midi": 76,
            "name": "E5",
            "ticks": 36384,
            "time": 59.842015499999995,
            "velocity": 0.5433070866141733
          },
          {
            "duration": 0.07894725000000591,
            "durationTicks": 48,
            "midi": 75,
            "name": "D#5",
            "ticks": 36432,
            "time": 59.920962749999994,
            "velocity": 0.5433070866141733
          },
          {
            "duration": 0.6315779999999975,
            "durationTicks": 384,
            "midi": 43,
            "name": "G2",
            "ticks": 36480,
            "time": 59.99991,
            "velocity": 0.5433070866141733
          },
          {
            "duration": 0.6315779999999975,
            "durationTicks": 384,
            "midi": 73,
            "name": "C#5",
            "ticks": 36480,
            "time": 59.99991,
            "velocity": 0.5433070866141733
          },
          {
            "duration": 0.1578944999999976,
            "durationTicks": 96,
            "midi": 40,
            "name": "E2",
            "ticks": 36864,
            "time": 60.631488,
            "velocity": 0.5433070866141733
          },
          {
            "duration": 1.2631560000000022,
            "durationTicks": 768,
            "midi": 71,
            "name": "B4",
            "ticks": 36864,
            "time": 60.631488,
            "velocity": 0.5433070866141733
          },
          {
            "duration": 0.1578945000000047,
            "durationTicks": 96,
            "midi": 43,
            "name": "G2",
            "ticks": 36960,
            "time": 60.789382499999995,
            "velocity": 0.5433070866141733
          },
          {
            "duration": 0.1578944999999976,
            "durationTicks": 96,
            "midi": 35,
            "name": "B1",
            "ticks": 37056,
            "time": 60.947277,
            "velocity": 0.5433070866141733
          },
          {
            "duration": 0.1578944999999976,
            "durationTicks": 96,
            "midi": 43,
            "name": "G2",
            "ticks": 37152,
            "time": 61.1051715,
            "velocity": 0.5433070866141733
          },
          {
            "duration": 0.1578945000000047,
            "durationTicks": 96,
            "midi": 40,
            "name": "E2",
            "ticks": 37248,
            "time": 61.263065999999995,
            "velocity": 0.5433070866141733
          },
          {
            "duration": 0.1578944999999976,
            "durationTicks": 96,
            "midi": 43,
            "name": "G2",
            "ticks": 37344,
            "time": 61.4209605,
            "velocity": 0.5433070866141733
          },
          {
            "duration": 0.1578944999999976,
            "durationTicks": 96,
            "midi": 35,
            "name": "B1",
            "ticks": 37440,
            "time": 61.578855,
            "velocity": 0.5433070866141733
          },
          {
            "duration": 0.1578945000000047,
            "durationTicks": 96,
            "midi": 43,
            "name": "G2",
            "ticks": 37536,
            "time": 61.736749499999995,
            "velocity": 0.5433070866141733
          },
          {
            "duration": 0.1578944999999976,
            "durationTicks": 96,
            "midi": 40,
            "name": "E2",
            "ticks": 37632,
            "time": 61.894644,
            "velocity": 0.5433070866141733
          },
          {
            "duration": 0.1578944999999976,
            "durationTicks": 96,
            "midi": 71,
            "name": "B4",
            "ticks": 37728,
            "time": 62.0525385,
            "velocity": 0.5433070866141733
          },
          {
            "duration": 0.1578944999999976,
            "durationTicks": 96,
            "midi": 43,
            "name": "G2",
            "ticks": 37728,
            "time": 62.0525385,
            "velocity": 0.5433070866141733
          },
          {
            "duration": 0.1578945000000047,
            "durationTicks": 96,
            "midi": 69,
            "name": "A4",
            "ticks": 37824,
            "time": 62.210432999999995,
            "velocity": 0.5433070866141733
          },
          {
            "duration": 0.1578945000000047,
            "durationTicks": 96,
            "midi": 35,
            "name": "B1",
            "ticks": 37824,
            "time": 62.210432999999995,
            "velocity": 0.5433070866141733
          },
          {
            "duration": 0.1578944999999976,
            "durationTicks": 96,
            "midi": 43,
            "name": "G2",
            "ticks": 37920,
            "time": 62.3683275,
            "velocity": 0.5433070866141733
          },
          {
            "duration": 0.1578944999999976,
            "durationTicks": 96,
            "midi": 67,
            "name": "G4",
            "ticks": 37920,
            "time": 62.3683275,
            "velocity": 0.5433070866141733
          },
          {
            "duration": 0.3157890000000023,
            "durationTicks": 192,
            "midi": 66,
            "name": "F#4",
            "ticks": 38016,
            "time": 62.526222,
            "velocity": 0.5433070866141733
          },
          {
            "duration": 0.1578944999999976,
            "durationTicks": 96,
            "midi": 40,
            "name": "E2",
            "ticks": 38016,
            "time": 62.526222,
            "velocity": 0.5433070866141733
          },
          {
            "duration": 0.1578945000000047,
            "durationTicks": 96,
            "midi": 43,
            "name": "G2",
            "ticks": 38112,
            "time": 62.684116499999995,
            "velocity": 0.5433070866141733
          },
          {
            "duration": 0.1578944999999976,
            "durationTicks": 96,
            "midi": 35,
            "name": "B1",
            "ticks": 38208,
            "time": 62.842011,
            "velocity": 0.5433070866141733
          },
          {
            "duration": 0.1578944999999976,
            "durationTicks": 96,
            "midi": 64,
            "name": "E4",
            "ticks": 38208,
            "time": 62.842011,
            "velocity": 0.5433070866141733
          },
          {
            "duration": 1.4210505000000069,
            "durationTicks": 864,
            "midi": 63,
            "name": "D#4",
            "ticks": 38304,
            "time": 62.9999055,
            "velocity": 0.5433070866141733
          },
          {
            "duration": 0.1578944999999976,
            "durationTicks": 96,
            "midi": 43,
            "name": "G2",
            "ticks": 38304,
            "time": 62.9999055,
            "velocity": 0.5433070866141733
          },
          {
            "duration": 0.1578945000000047,
            "durationTicks": 96,
            "midi": 47,
            "name": "B2",
            "ticks": 38400,
            "time": 63.157799999999995,
            "velocity": 0.5433070866141733
          },
          {
            "duration": 0.1578944999999976,
            "durationTicks": 96,
            "midi": 51,
            "name": "D#3",
            "ticks": 38496,
            "time": 63.3156945,
            "velocity": 0.5433070866141733
          },
          {
            "duration": 0.1578944999999976,
            "durationTicks": 96,
            "midi": 42,
            "name": "F#2",
            "ticks": 38592,
            "time": 63.473589,
            "velocity": 0.5433070866141733
          },
          {
            "duration": 0.1578945000000047,
            "durationTicks": 96,
            "midi": 51,
            "name": "D#3",
            "ticks": 38688,
            "time": 63.631483499999995,
            "velocity": 0.5433070866141733
          },
          {
            "duration": 0.1578944999999976,
            "durationTicks": 96,
            "midi": 47,
            "name": "B2",
            "ticks": 38784,
            "time": 63.789378,
            "velocity": 0.5433070866141733
          },
          {
            "duration": 0.1578944999999976,
            "durationTicks": 96,
            "midi": 51,
            "name": "D#3",
            "ticks": 38880,
            "time": 63.9472725,
            "velocity": 0.5433070866141733
          },
          {
            "duration": 0.1578944999999976,
            "durationTicks": 96,
            "midi": 42,
            "name": "F#2",
            "ticks": 38976,
            "time": 64.105167,
            "velocity": 0.5433070866141733
          },
          {
            "duration": 0.15789450000001182,
            "durationTicks": 96,
            "midi": 51,
            "name": "D#3",
            "ticks": 39072,
            "time": 64.26306149999999,
            "velocity": 0.5433070866141733
          },
          {
            "duration": 0.1578944999999976,
            "durationTicks": 96,
            "midi": 42,
            "name": "F#2",
            "ticks": 39168,
            "time": 64.420956,
            "velocity": 0.5433070866141733
          },
          {
            "duration": 0.1578944999999976,
            "durationTicks": 96,
            "midi": 63,
            "name": "D#4",
            "ticks": 39264,
            "time": 64.5788505,
            "velocity": 0.5433070866141733
          },
          {
            "duration": 0.1578944999999976,
            "durationTicks": 96,
            "midi": 47,
            "name": "B2",
            "ticks": 39264,
            "time": 64.5788505,
            "velocity": 0.5433070866141733
          },
          {
            "duration": 0.1578944999999976,
            "durationTicks": 96,
            "midi": 37,
            "name": "C#2",
            "ticks": 39360,
            "time": 64.736745,
            "velocity": 0.5433070866141733
          },
          {
            "duration": 0.1578944999999976,
            "durationTicks": 96,
            "midi": 64,
            "name": "E4",
            "ticks": 39360,
            "time": 64.736745,
            "velocity": 0.5433070866141733
          },
          {
            "duration": 0.1578944999999976,
            "durationTicks": 96,
            "midi": 47,
            "name": "B2",
            "ticks": 39456,
            "time": 64.8946395,
            "velocity": 0.5433070866141733
          },
          {
            "duration": 0.1578944999999976,
            "durationTicks": 96,
            "midi": 63,
            "name": "D#4",
            "ticks": 39456,
            "time": 64.8946395,
            "velocity": 0.5433070866141733
          },
          {
            "duration": 0.3157890000000094,
            "durationTicks": 192,
            "midi": 61,
            "name": "C#4",
            "ticks": 39552,
            "time": 65.052534,
            "velocity": 0.5433070866141733
          },
          {
            "duration": 0.1578944999999976,
            "durationTicks": 96,
            "midi": 42,
            "name": "F#2",
            "ticks": 39552,
            "time": 65.052534,
            "velocity": 0.5433070866141733
          },
          {
            "duration": 0.15789450000001182,
            "durationTicks": 96,
            "midi": 47,
            "name": "B2",
            "ticks": 39648,
            "time": 65.21042849999999,
            "velocity": 0.5433070866141733
          },
          {
            "duration": 0.1578944999999976,
            "durationTicks": 96,
            "midi": 37,
            "name": "C#2",
            "ticks": 39744,
            "time": 65.368323,
            "velocity": 0.5433070866141733
          },
          {
            "duration": 0.3157889999999952,
            "durationTicks": 192,
            "midi": 66,
            "name": "F#4",
            "ticks": 39744,
            "time": 65.368323,
            "velocity": 0.5433070866141733
          },
          {
            "duration": 0.1578944999999976,
            "durationTicks": 96,
            "midi": 47,
            "name": "B2",
            "ticks": 39840,
            "time": 65.5262175,
            "velocity": 0.5433070866141733
          },
          {
            "duration": 1.263155999999995,
            "durationTicks": 768,
            "midi": 71,
            "name": "B4",
            "ticks": 39936,
            "time": 65.684112,
            "velocity": 0.5433070866141733
          },
          {
            "duration": 0.1578944999999976,
            "durationTicks": 96,
            "midi": 40,
            "name": "E2",
            "ticks": 39936,
            "time": 65.684112,
            "velocity": 0.5433070866141733
          },
          {
            "duration": 0.1578944999999976,
            "durationTicks": 96,
            "midi": 43,
            "name": "G2",
            "ticks": 40032,
            "time": 65.8420065,
            "velocity": 0.5433070866141733
          },
          {
            "duration": 0.1578944999999976,
            "durationTicks": 96,
            "midi": 35,
            "name": "B1",
            "ticks": 40128,
            "time": 65.999901,
            "velocity": 0.5433070866141733
          },
          {
            "duration": 0.15789450000001182,
            "durationTicks": 96,
            "midi": 43,
            "name": "G2",
            "ticks": 40224,
            "time": 66.15779549999999,
            "velocity": 0.5433070866141733
          },
          {
            "duration": 0.1578944999999976,
            "durationTicks": 96,
            "midi": 40,
            "name": "E2",
            "ticks": 40320,
            "time": 66.31569,
            "velocity": 0.5433070866141733
          },
          {
            "duration": 0.1578944999999976,
            "durationTicks": 96,
            "midi": 43,
            "name": "G2",
            "ticks": 40416,
            "time": 66.4735845,
            "velocity": 0.5433070866141733
          },
          {
            "duration": 0.1578944999999976,
            "durationTicks": 96,
            "midi": 35,
            "name": "B1",
            "ticks": 40512,
            "time": 66.631479,
            "velocity": 0.5433070866141733
          },
          {
            "duration": 0.1578944999999976,
            "durationTicks": 96,
            "midi": 43,
            "name": "G2",
            "ticks": 40608,
            "time": 66.7893735,
            "velocity": 0.5433070866141733
          },
          {
            "duration": 0.1578944999999976,
            "durationTicks": 96,
            "midi": 40,
            "name": "E2",
            "ticks": 40704,
            "time": 66.947268,
            "velocity": 0.5433070866141733
          },
          {
            "duration": 0.15789450000001182,
            "durationTicks": 96,
            "midi": 71,
            "name": "B4",
            "ticks": 40800,
            "time": 67.10516249999999,
            "velocity": 0.5433070866141733
          },
          {
            "duration": 0.15789450000001182,
            "durationTicks": 96,
            "midi": 43,
            "name": "G2",
            "ticks": 40800,
            "time": 67.10516249999999,
            "velocity": 0.5433070866141733
          },
          {
            "duration": 0.1578944999999976,
            "durationTicks": 96,
            "midi": 35,
            "name": "B1",
            "ticks": 40896,
            "time": 67.263057,
            "velocity": 0.5433070866141733
          },
          {
            "duration": 0.1578944999999976,
            "durationTicks": 96,
            "midi": 70,
            "name": "A#4",
            "ticks": 40896,
            "time": 67.263057,
            "velocity": 0.5433070866141733
          },
          {
            "duration": 0.1578944999999976,
            "durationTicks": 96,
            "midi": 43,
            "name": "G2",
            "ticks": 40992,
            "time": 67.4209515,
            "velocity": 0.5433070866141733
          },
          {
            "duration": 0.1578944999999976,
            "durationTicks": 96,
            "midi": 71,
            "name": "B4",
            "ticks": 40992,
            "time": 67.4209515,
            "velocity": 0.5433070866141733
          },
          {
            "duration": 0.3157889999999952,
            "durationTicks": 192,
            "midi": 78,
            "name": "F#5",
            "ticks": 41088,
            "time": 67.578846,
            "velocity": 0.5433070866141733
          },
          {
            "duration": 0.1578944999999976,
            "durationTicks": 96,
            "midi": 40,
            "name": "E2",
            "ticks": 41088,
            "time": 67.578846,
            "velocity": 0.5433070866141733
          },
          {
            "duration": 0.1578944999999976,
            "durationTicks": 96,
            "midi": 43,
            "name": "G2",
            "ticks": 41184,
            "time": 67.7367405,
            "velocity": 0.5433070866141733
          },
          {
            "duration": 0.1578944999999976,
            "durationTicks": 96,
            "midi": 35,
            "name": "B1",
            "ticks": 41280,
            "time": 67.894635,
            "velocity": 0.5433070866141733
          },
          {
            "duration": 0.0789472499999988,
            "durationTicks": 48,
            "midi": 71,
            "name": "B4",
            "ticks": 41280,
            "time": 67.894635,
            "velocity": 0.5433070866141733
          },
          {
            "duration": 1.1052615000000117,
            "durationTicks": 672,
            "midi": 71,
            "name": "B4",
            "ticks": 41376,
            "time": 68.05252949999999,
            "velocity": 0.5433070866141733
          },
          {
            "duration": 0.15789450000001182,
            "durationTicks": 96,
            "midi": 43,
            "name": "G2",
            "ticks": 41376,
            "time": 68.05252949999999,
            "velocity": 0.5433070866141733
          },
          {
            "duration": 0.1578944999999976,
            "durationTicks": 96,
            "midi": 47,
            "name": "B2",
            "ticks": 41472,
            "time": 68.210424,
            "velocity": 0.5433070866141733
          },
          {
            "duration": 0.1578944999999976,
            "durationTicks": 96,
            "midi": 51,
            "name": "D#3",
            "ticks": 41568,
            "time": 68.3683185,
            "velocity": 0.5433070866141733
          },
          {
            "duration": 0.1578944999999976,
            "durationTicks": 96,
            "midi": 42,
            "name": "F#2",
            "ticks": 41664,
            "time": 68.526213,
            "velocity": 0.5433070866141733
          },
          {
            "duration": 0.1578944999999976,
            "durationTicks": 96,
            "midi": 51,
            "name": "D#3",
            "ticks": 41760,
            "time": 68.6841075,
            "velocity": 0.5433070866141733
          },
          {
            "duration": 0.1578944999999976,
            "durationTicks": 96,
            "midi": 47,
            "name": "B2",
            "ticks": 41856,
            "time": 68.842002,
            "velocity": 0.5433070866141733
          },
          {
            "duration": 0.15789450000001182,
            "durationTicks": 96,
            "midi": 51,
            "name": "D#3",
            "ticks": 41952,
            "time": 68.99989649999999,
            "velocity": 0.5433070866141733
          },
          {
            "duration": 0.1578944999999976,
            "durationTicks": 96,
            "midi": 42,
            "name": "F#2",
            "ticks": 42048,
            "time": 69.157791,
            "velocity": 0.5433070866141733
          },
          {
            "duration": 0.1578944999999976,
            "durationTicks": 96,
            "midi": 51,
            "name": "D#3",
            "ticks": 42144,
            "time": 69.3156855,
            "velocity": 0.5433070866141733
          },
          {
            "duration": 0.0789472499999988,
            "durationTicks": 48,
            "midi": 73,
            "name": "C#5",
            "ticks": 42144,
            "time": 69.3156855,
            "velocity": 0.5433070866141733
          },
          {
            "duration": 0.0789472499999988,
            "durationTicks": 48,
            "midi": 71,
            "name": "B4",
            "ticks": 42192,
            "time": 69.39463275,
            "velocity": 0.5433070866141733
          },
          {
            "duration": 0.3157889999999952,
            "durationTicks": 192,
            "midi": 70,
            "name": "A#4",
            "ticks": 42240,
            "time": 69.47358,
            "velocity": 0.5433070866141733
          },
          {
            "duration": 0.1578944999999976,
            "durationTicks": 96,
            "midi": 42,
            "name": "F#2",
            "ticks": 42240,
            "time": 69.47358,
            "velocity": 0.5433070866141733
          },
          {
            "duration": 0.1578944999999976,
            "durationTicks": 96,
            "midi": 47,
            "name": "B2",
            "ticks": 42336,
            "time": 69.6314745,
            "velocity": 0.5433070866141733
          },
          {
            "duration": 0.1578944999999976,
            "durationTicks": 96,
            "midi": 44,
            "name": "G#2",
            "ticks": 42432,
            "time": 69.789369,
            "velocity": 0.5433070866141733
          },
          {
            "duration": 0.3157890000000094,
            "durationTicks": 192,
            "midi": 71,
            "name": "B4",
            "ticks": 42432,
            "time": 69.789369,
            "velocity": 0.5433070866141733
          },
          {
            "duration": 0.15789450000001182,
            "durationTicks": 96,
            "midi": 47,
            "name": "B2",
            "ticks": 42528,
            "time": 69.94726349999999,
            "velocity": 0.5433070866141733
          },
          {
            "duration": 0.3157889999999952,
            "durationTicks": 192,
            "midi": 73,
            "name": "C#5",
            "ticks": 42624,
            "time": 70.105158,
            "velocity": 0.5433070866141733
          },
          {
            "duration": 0.1578944999999976,
            "durationTicks": 96,
            "midi": 46,
            "name": "A#2",
            "ticks": 42624,
            "time": 70.105158,
            "velocity": 0.5433070866141733
          },
          {
            "duration": 0.1578944999999976,
            "durationTicks": 96,
            "midi": 47,
            "name": "B2",
            "ticks": 42720,
            "time": 70.2630525,
            "velocity": 0.5433070866141733
          },
          {
            "duration": 0.3157889999999952,
            "durationTicks": 192,
            "midi": 70,
            "name": "A#4",
            "ticks": 42816,
            "time": 70.420947,
            "velocity": 0.5433070866141733
          },
          {
            "duration": 0.1578944999999976,
            "durationTicks": 96,
            "midi": 42,
            "name": "F#2",
            "ticks": 42816,
            "time": 70.420947,
            "velocity": 0.5433070866141733
          },
          {
            "duration": 0.1578944999999976,
            "durationTicks": 96,
            "midi": 47,
            "name": "B2",
            "ticks": 42912,
            "time": 70.5788415,
            "velocity": 0.5433070866141733
          },
          {
            "duration": 1.2631560000000093,
            "durationTicks": 768,
            "midi": 71,
            "name": "B4",
            "ticks": 43008,
            "time": 70.736736,
            "velocity": 0.5433070866141733
          },
          {
            "duration": 0.1578944999999976,
            "durationTicks": 96,
            "midi": 40,
            "name": "E2",
            "ticks": 43008,
            "time": 70.736736,
            "velocity": 0.5433070866141733
          },
          {
            "duration": 0.15789450000001182,
            "durationTicks": 96,
            "midi": 43,
            "name": "G2",
            "ticks": 43104,
            "time": 70.89463049999999,
            "velocity": 0.5433070866141733
          },
          {
            "duration": 0.1578944999999976,
            "durationTicks": 96,
            "midi": 35,
            "name": "B1",
            "ticks": 43200,
            "time": 71.052525,
            "velocity": 0.5433070866141733
          },
          {
            "duration": 0.1578944999999976,
            "durationTicks": 96,
            "midi": 43,
            "name": "G2",
            "ticks": 43296,
            "time": 71.2104195,
            "velocity": 0.5433070866141733
          },
          {
            "duration": 0.1578944999999976,
            "durationTicks": 96,
            "midi": 40,
            "name": "E2",
            "ticks": 43392,
            "time": 71.368314,
            "velocity": 0.5433070866141733
          },
          {
            "duration": 0.1578944999999976,
            "durationTicks": 96,
            "midi": 43,
            "name": "G2",
            "ticks": 43488,
            "time": 71.5262085,
            "velocity": 0.5433070866141733
          },
          {
            "duration": 0.1578944999999976,
            "durationTicks": 96,
            "midi": 35,
            "name": "B1",
            "ticks": 43584,
            "time": 71.684103,
            "velocity": 0.5433070866141733
          },
          {
            "duration": 0.15789450000001182,
            "durationTicks": 96,
            "midi": 43,
            "name": "G2",
            "ticks": 43680,
            "time": 71.84199749999999,
            "velocity": 0.5433070866141733
          },
          {
            "duration": 0.1578944999999976,
            "durationTicks": 96,
            "midi": 40,
            "name": "E2",
            "ticks": 43776,
            "time": 71.999892,
            "velocity": 0.5433070866141733
          },
          {
            "duration": 0.1578944999999976,
            "durationTicks": 96,
            "midi": 43,
            "name": "G2",
            "ticks": 43872,
            "time": 72.1577865,
            "velocity": 0.5433070866141733
          },
          {
            "duration": 0.1578944999999976,
            "durationTicks": 96,
            "midi": 71,
            "name": "B4",
            "ticks": 43872,
            "time": 72.1577865,
            "velocity": 0.5433070866141733
          },
          {
            "duration": 0.1578944999999976,
            "durationTicks": 96,
            "midi": 35,
            "name": "B1",
            "ticks": 43968,
            "time": 72.315681,
            "velocity": 0.5433070866141733
          },
          {
            "duration": 0.1578944999999976,
            "durationTicks": 96,
            "midi": 69,
            "name": "A4",
            "ticks": 43968,
            "time": 72.315681,
            "velocity": 0.5433070866141733
          },
          {
            "duration": 0.1578944999999976,
            "durationTicks": 96,
            "midi": 43,
            "name": "G2",
            "ticks": 44064,
            "time": 72.4735755,
            "velocity": 0.5433070866141733
          },
          {
            "duration": 0.1578944999999976,
            "durationTicks": 96,
            "midi": 67,
            "name": "G4",
            "ticks": 44064,
            "time": 72.4735755,
            "velocity": 0.5433070866141733
          },
          {
            "duration": 0.3157890000000094,
            "durationTicks": 192,
            "midi": 66,
            "name": "F#4",
            "ticks": 44160,
            "time": 72.63147,
            "velocity": 0.5433070866141733
          },
          {
            "duration": 0.1578944999999976,
            "durationTicks": 96,
            "midi": 40,
            "name": "E2",
            "ticks": 44160,
            "time": 72.63147,
            "velocity": 0.5433070866141733
          },
          {
            "duration": 0.15789450000001182,
            "durationTicks": 96,
            "midi": 43,
            "name": "G2",
            "ticks": 44256,
            "time": 72.78936449999999,
            "velocity": 0.5433070866141733
          },
          {
            "duration": 0.1578944999999976,
            "durationTicks": 96,
            "midi": 35,
            "name": "B1",
            "ticks": 44352,
            "time": 72.947259,
            "velocity": 0.5433070866141733
          },
          {
            "duration": 0.1578944999999976,
            "durationTicks": 96,
            "midi": 64,
            "name": "E4",
            "ticks": 44352,
            "time": 72.947259,
            "velocity": 0.5433070866141733
          },
          {
            "duration": 0.1578944999999976,
            "durationTicks": 96,
            "midi": 43,
            "name": "G2",
            "ticks": 44448,
            "time": 73.1051535,
            "velocity": 0.5433070866141733
          },
          {
            "duration": 1.4210504999999927,
            "durationTicks": 864,
            "midi": 63,
            "name": "D#4",
            "ticks": 44448,
            "time": 73.1051535,
            "velocity": 0.5433070866141733
          },
          {
            "duration": 0.1578944999999976,
            "durationTicks": 96,
            "midi": 47,
            "name": "B2",
            "ticks": 44544,
            "time": 73.263048,
            "velocity": 0.5433070866141733
          },
          {
            "duration": 0.1578944999999976,
            "durationTicks": 96,
            "midi": 51,
            "name": "D#3",
            "ticks": 44640,
            "time": 73.4209425,
            "velocity": 0.5433070866141733
          },
          {
            "duration": 0.1578944999999976,
            "durationTicks": 96,
            "midi": 42,
            "name": "F#2",
            "ticks": 44736,
            "time": 73.578837,
            "velocity": 0.5433070866141733
          },
          {
            "duration": 0.15789450000001182,
            "durationTicks": 96,
            "midi": 51,
            "name": "D#3",
            "ticks": 44832,
            "time": 73.73673149999999,
            "velocity": 0.5433070866141733
          },
          {
            "duration": 0.1578944999999976,
            "durationTicks": 96,
            "midi": 47,
            "name": "B2",
            "ticks": 44928,
            "time": 73.894626,
            "velocity": 0.5433070866141733
          },
          {
            "duration": 0.1578944999999976,
            "durationTicks": 96,
            "midi": 51,
            "name": "D#3",
            "ticks": 45024,
            "time": 74.0525205,
            "velocity": 0.5433070866141733
          },
          {
            "duration": 0.1578944999999976,
            "durationTicks": 96,
            "midi": 42,
            "name": "F#2",
            "ticks": 45120,
            "time": 74.210415,
            "velocity": 0.5433070866141733
          },
          {
            "duration": 0.1578944999999976,
            "durationTicks": 96,
            "midi": 51,
            "name": "D#3",
            "ticks": 45216,
            "time": 74.3683095,
            "velocity": 0.5433070866141733
          },
          {
            "duration": 0.1578944999999976,
            "durationTicks": 96,
            "midi": 42,
            "name": "F#2",
            "ticks": 45312,
            "time": 74.52620399999999,
            "velocity": 0.5433070866141733
          },
          {
            "duration": 0.15789450000001182,
            "durationTicks": 96,
            "midi": 47,
            "name": "B2",
            "ticks": 45408,
            "time": 74.68409849999999,
            "velocity": 0.5433070866141733
          },
          {
            "duration": 0.15789450000001182,
            "durationTicks": 96,
            "midi": 63,
            "name": "D#4",
            "ticks": 45408,
            "time": 74.68409849999999,
            "velocity": 0.5433070866141733
          },
          {
            "duration": 0.1578944999999976,
            "durationTicks": 96,
            "midi": 37,
            "name": "C#2",
            "ticks": 45504,
            "time": 74.841993,
            "velocity": 0.5433070866141733
          },
          {
            "duration": 0.1578944999999976,
            "durationTicks": 96,
            "midi": 64,
            "name": "E4",
            "ticks": 45504,
            "time": 74.841993,
            "velocity": 0.5433070866141733
          },
          {
            "duration": 0.1578944999999976,
            "durationTicks": 96,
            "midi": 63,
            "name": "D#4",
            "ticks": 45600,
            "time": 74.9998875,
            "velocity": 0.5433070866141733
          },
          {
            "duration": 0.1578944999999976,
            "durationTicks": 96,
            "midi": 47,
            "name": "B2",
            "ticks": 45600,
            "time": 74.9998875,
            "velocity": 0.5433070866141733
          },
          {
            "duration": 0.3157889999999952,
            "durationTicks": 192,
            "midi": 61,
            "name": "C#4",
            "ticks": 45696,
            "time": 75.157782,
            "velocity": 0.5433070866141733
          },
          {
            "duration": 0.1578944999999976,
            "durationTicks": 96,
            "midi": 42,
            "name": "F#2",
            "ticks": 45696,
            "time": 75.157782,
            "velocity": 0.5433070866141733
          },
          {
            "duration": 0.1578944999999976,
            "durationTicks": 96,
            "midi": 47,
            "name": "B2",
            "ticks": 45792,
            "time": 75.3156765,
            "velocity": 0.5433070866141733
          },
          {
            "duration": 0.1578944999999976,
            "durationTicks": 96,
            "midi": 37,
            "name": "C#2",
            "ticks": 45888,
            "time": 75.47357099999999,
            "velocity": 0.5433070866141733
          },
          {
            "duration": 0.3157890000000094,
            "durationTicks": 192,
            "midi": 66,
            "name": "F#4",
            "ticks": 45888,
            "time": 75.47357099999999,
            "velocity": 0.5433070866141733
          },
          {
            "duration": 0.15789450000001182,
            "durationTicks": 96,
            "midi": 47,
            "name": "B2",
            "ticks": 45984,
            "time": 75.63146549999999,
            "velocity": 0.5433070866141733
          },
          {
            "duration": 0.1578944999999976,
            "durationTicks": 96,
            "midi": 40,
            "name": "E2",
            "ticks": 46080,
            "time": 75.78936,
            "velocity": 0.5433070866141733
          },
          {
            "duration": 1.263155999999995,
            "durationTicks": 768,
            "midi": 71,
            "name": "B4",
            "ticks": 46080,
            "time": 75.78936,
            "velocity": 0.5433070866141733
          },
          {
            "duration": 0.1578944999999976,
            "durationTicks": 96,
            "midi": 43,
            "name": "G2",
            "ticks": 46176,
            "time": 75.9472545,
            "velocity": 0.5433070866141733
          },
          {
            "duration": 0.1578944999999976,
            "durationTicks": 96,
            "midi": 35,
            "name": "B1",
            "ticks": 46272,
            "time": 76.105149,
            "velocity": 0.5433070866141733
          },
          {
            "duration": 0.1578944999999976,
            "durationTicks": 96,
            "midi": 43,
            "name": "G2",
            "ticks": 46368,
            "time": 76.2630435,
            "velocity": 0.5433070866141733
          },
          {
            "duration": 0.1578944999999976,
            "durationTicks": 96,
            "midi": 40,
            "name": "E2",
            "ticks": 46464,
            "time": 76.42093799999999,
            "velocity": 0.5433070866141733
          },
          {
            "duration": 0.15789450000001182,
            "durationTicks": 96,
            "midi": 43,
            "name": "G2",
            "ticks": 46560,
            "time": 76.57883249999999,
            "velocity": 0.5433070866141733
          },
          {
            "duration": 0.1578944999999976,
            "durationTicks": 96,
            "midi": 35,
            "name": "B1",
            "ticks": 46656,
            "time": 76.736727,
            "velocity": 0.5433070866141733
          },
          {
            "duration": 0.1578944999999976,
            "durationTicks": 96,
            "midi": 43,
            "name": "G2",
            "ticks": 46752,
            "time": 76.8946215,
            "velocity": 0.5433070866141733
          },
          {
            "duration": 0.1578944999999976,
            "durationTicks": 96,
            "midi": 40,
            "name": "E2",
            "ticks": 46848,
            "time": 77.052516,
            "velocity": 0.5433070866141733
          },
          {
            "duration": 0.1578944999999976,
            "durationTicks": 96,
            "midi": 43,
            "name": "G2",
            "ticks": 46944,
            "time": 77.2104105,
            "velocity": 0.5433070866141733
          },
          {
            "duration": 0.1578944999999976,
            "durationTicks": 96,
            "midi": 71,
            "name": "B4",
            "ticks": 46944,
            "time": 77.2104105,
            "velocity": 0.5433070866141733
          },
          {
            "duration": 0.1578944999999976,
            "durationTicks": 96,
            "midi": 35,
            "name": "B1",
            "ticks": 47040,
            "time": 77.36830499999999,
            "velocity": 0.5433070866141733
          },
          {
            "duration": 0.1578944999999976,
            "durationTicks": 96,
            "midi": 70,
            "name": "A#4",
            "ticks": 47040,
            "time": 77.36830499999999,
            "velocity": 0.5433070866141733
          },
          {
            "duration": 0.15789450000001182,
            "durationTicks": 96,
            "midi": 71,
            "name": "B4",
            "ticks": 47136,
            "time": 77.52619949999999,
            "velocity": 0.5433070866141733
          },
          {
            "duration": 0.15789450000001182,
            "durationTicks": 96,
            "midi": 43,
            "name": "G2",
            "ticks": 47136,
            "time": 77.52619949999999,
            "velocity": 0.5433070866141733
          },
          {
            "duration": 0.1578944999999976,
            "durationTicks": 96,
            "midi": 40,
            "name": "E2",
            "ticks": 47232,
            "time": 77.684094,
            "velocity": 0.5433070866141733
          },
          {
            "duration": 0.3157889999999952,
            "durationTicks": 192,
            "midi": 78,
            "name": "F#5",
            "ticks": 47232,
            "time": 77.684094,
            "velocity": 0.5433070866141733
          },
          {
            "duration": 0.1578944999999976,
            "durationTicks": 96,
            "midi": 43,
            "name": "G2",
            "ticks": 47328,
            "time": 77.8419885,
            "velocity": 0.5433070866141733
          },
          {
            "duration": 0.1578944999999976,
            "durationTicks": 96,
            "midi": 35,
            "name": "B1",
            "ticks": 47424,
            "time": 77.999883,
            "velocity": 0.5433070866141733
          },
          {
            "duration": 0.0789472499999988,
            "durationTicks": 48,
            "midi": 71,
            "name": "B4",
            "ticks": 47424,
            "time": 77.999883,
            "velocity": 0.5433070866141733
          },
          {
            "duration": 1.1052614999999975,
            "durationTicks": 672,
            "midi": 71,
            "name": "B4",
            "ticks": 47520,
            "time": 78.1577775,
            "velocity": 0.5433070866141733
          },
          {
            "duration": 0.1578944999999976,
            "durationTicks": 96,
            "midi": 43,
            "name": "G2",
            "ticks": 47520,
            "time": 78.1577775,
            "velocity": 0.5433070866141733
          },
          {
            "duration": 0.1578944999999976,
            "durationTicks": 96,
            "midi": 47,
            "name": "B2",
            "ticks": 47616,
            "time": 78.31567199999999,
            "velocity": 0.5433070866141733
          },
          {
            "duration": 0.15789450000001182,
            "durationTicks": 96,
            "midi": 51,
            "name": "D#3",
            "ticks": 47712,
            "time": 78.47356649999999,
            "velocity": 0.5433070866141733
          },
          {
            "duration": 0.1578944999999976,
            "durationTicks": 96,
            "midi": 42,
            "name": "F#2",
            "ticks": 47808,
            "time": 78.631461,
            "velocity": 0.5433070866141733
          },
          {
            "duration": 0.1578944999999976,
            "durationTicks": 96,
            "midi": 51,
            "name": "D#3",
            "ticks": 47904,
            "time": 78.7893555,
            "velocity": 0.5433070866141733
          },
          {
            "duration": 0.1578944999999976,
            "durationTicks": 96,
            "midi": 47,
            "name": "B2",
            "ticks": 48000,
            "time": 78.94725,
            "velocity": 0.5433070866141733
          },
          {
            "duration": 0.1578944999999976,
            "durationTicks": 96,
            "midi": 51,
            "name": "D#3",
            "ticks": 48096,
            "time": 79.1051445,
            "velocity": 0.5433070866141733
          },
          {
            "duration": 0.1578944999999976,
            "durationTicks": 96,
            "midi": 42,
            "name": "F#2",
            "ticks": 48192,
            "time": 79.26303899999999,
            "velocity": 0.5433070866141733
          },
          {
            "duration": 0.15789450000001182,
            "durationTicks": 96,
            "midi": 51,
            "name": "D#3",
            "ticks": 48288,
            "time": 79.42093349999999,
            "velocity": 0.5433070866141733
          },
          {
            "duration": 0.07894725000001301,
            "durationTicks": 48,
            "midi": 73,
            "name": "C#5",
            "ticks": 48288,
            "time": 79.42093349999999,
            "velocity": 0.5433070866141733
          },
          {
            "duration": 0.0789472499999988,
            "durationTicks": 48,
            "midi": 71,
            "name": "B4",
            "ticks": 48336,
            "time": 79.49988075,
            "velocity": 0.5433070866141733
          },
          {
            "duration": 0.3157889999999952,
            "durationTicks": 192,
            "midi": 70,
            "name": "A#4",
            "ticks": 48384,
            "time": 79.578828,
            "velocity": 0.5433070866141733
          },
          {
            "duration": 0.1578944999999976,
            "durationTicks": 96,
            "midi": 42,
            "name": "F#2",
            "ticks": 48384,
            "time": 79.578828,
            "velocity": 0.5433070866141733
          },
          {
            "duration": 0.1578944999999976,
            "durationTicks": 96,
            "midi": 47,
            "name": "B2",
            "ticks": 48480,
            "time": 79.7367225,
            "velocity": 0.5433070866141733
          },
          {
            "duration": 0.1578944999999976,
            "durationTicks": 96,
            "midi": 44,
            "name": "G#2",
            "ticks": 48576,
            "time": 79.894617,
            "velocity": 0.5433070866141733
          },
          {
            "duration": 0.3157889999999952,
            "durationTicks": 192,
            "midi": 71,
            "name": "B4",
            "ticks": 48576,
            "time": 79.894617,
            "velocity": 0.5433070866141733
          },
          {
            "duration": 0.1578944999999976,
            "durationTicks": 96,
            "midi": 47,
            "name": "B2",
            "ticks": 48672,
            "time": 80.0525115,
            "velocity": 0.5433070866141733
          },
          {
            "duration": 0.3157890000000094,
            "durationTicks": 192,
            "midi": 73,
            "name": "C#5",
            "ticks": 48768,
            "time": 80.21040599999999,
            "velocity": 0.5433070866141733
          },
          {
            "duration": 0.1578944999999976,
            "durationTicks": 96,
            "midi": 46,
            "name": "A#2",
            "ticks": 48768,
            "time": 80.21040599999999,
            "velocity": 0.5433070866141733
          },
          {
            "duration": 0.15789450000001182,
            "durationTicks": 96,
            "midi": 47,
            "name": "B2",
            "ticks": 48864,
            "time": 80.36830049999999,
            "velocity": 0.5433070866141733
          },
          {
            "duration": 0.3157889999999952,
            "durationTicks": 192,
            "midi": 70,
            "name": "A#4",
            "ticks": 48960,
            "time": 80.526195,
            "velocity": 0.5433070866141733
          },
          {
            "duration": 0.1578944999999976,
            "durationTicks": 96,
            "midi": 42,
            "name": "F#2",
            "ticks": 48960,
            "time": 80.526195,
            "velocity": 0.5433070866141733
          },
          {
            "duration": 0.1578944999999976,
            "durationTicks": 96,
            "midi": 47,
            "name": "B2",
            "ticks": 49056,
            "time": 80.6840895,
            "velocity": 0.5433070866141733
          },
          {
            "duration": 0.1578944999999976,
            "durationTicks": 96,
            "midi": 40,
            "name": "E2",
            "ticks": 49152,
            "time": 80.841984,
            "velocity": 0.5433070866141733
          },
          {
            "duration": 0.9473669999999998,
            "durationTicks": 576,
            "midi": 71,
            "name": "B4",
            "ticks": 49152,
            "time": 80.841984,
            "velocity": 0.5433070866141733
          },
          {
            "duration": 0.1578944999999976,
            "durationTicks": 96,
            "midi": 44,
            "name": "G#2",
            "ticks": 49248,
            "time": 80.9998785,
            "velocity": 0.5433070866141733
          },
          {
            "duration": 0.15789450000001182,
            "durationTicks": 96,
            "midi": 35,
            "name": "B1",
            "ticks": 49344,
            "time": 81.15777299999999,
            "velocity": 0.5433070866141733
          },
          {
            "duration": 0.1578944999999976,
            "durationTicks": 96,
            "midi": 44,
            "name": "G#2",
            "ticks": 49440,
            "time": 81.3156675,
            "velocity": 0.5433070866141733
          },
          {
            "duration": 0.1578944999999976,
            "durationTicks": 96,
            "midi": 40,
            "name": "E2",
            "ticks": 49536,
            "time": 81.473562,
            "velocity": 0.5433070866141733
          },
          {
            "duration": 0.1578944999999976,
            "durationTicks": 96,
            "midi": 44,
            "name": "G#2",
            "ticks": 49632,
            "time": 81.6314565,
            "velocity": 0.5433070866141733
          },
          {
            "duration": 0.3157889999999952,
            "durationTicks": 192,
            "midi": 66,
            "name": "F#4",
            "ticks": 49728,
            "time": 81.789351,
            "velocity": 0.5433070866141733
          },
          {
            "duration": 0.1578944999999976,
            "durationTicks": 96,
            "midi": 35,
            "name": "B1",
            "ticks": 49728,
            "time": 81.789351,
            "velocity": 0.5433070866141733
          },
          {
            "duration": 0.1578944999999976,
            "durationTicks": 96,
            "midi": 44,
            "name": "G#2",
            "ticks": 49824,
            "time": 81.9472455,
            "velocity": 0.5433070866141733
          },
          {
            "duration": 0.3157890000000094,
            "durationTicks": 192,
            "midi": 75,
            "name": "D#5",
            "ticks": 49920,
            "time": 82.10513999999999,
            "velocity": 0.5433070866141733
          },
          {
            "duration": 0.15789450000001182,
            "durationTicks": 96,
            "midi": 42,
            "name": "F#2",
            "ticks": 49920,
            "time": 82.10513999999999,
            "velocity": 0.5433070866141733
          },
          {
            "duration": 0.1578944999999976,
            "durationTicks": 96,
            "midi": 46,
            "name": "A#2",
            "ticks": 50016,
            "time": 82.2630345,
            "velocity": 0.5433070866141733
          },
          {
            "duration": 0.1578944999999976,
            "durationTicks": 96,
            "midi": 37,
            "name": "C#2",
            "ticks": 50112,
            "time": 82.420929,
            "velocity": 0.5433070866141733
          },
          {
            "duration": 0.3157889999999952,
            "durationTicks": 192,
            "midi": 76,
            "name": "E5",
            "ticks": 50112,
            "time": 82.420929,
            "velocity": 0.5433070866141733
          },
          {
            "duration": 0.1578944999999976,
            "durationTicks": 96,
            "midi": 46,
            "name": "A#2",
            "ticks": 50208,
            "time": 82.5788235,
            "velocity": 0.5433070866141733
          },
          {
            "duration": 0.1578944999999976,
            "durationTicks": 96,
            "midi": 42,
            "name": "F#2",
            "ticks": 50304,
            "time": 82.736718,
            "velocity": 0.5433070866141733
          },
          {
            "duration": 0.47368350000000703,
            "durationTicks": 288,
            "midi": 73,
            "name": "C#5",
            "ticks": 50304,
            "time": 82.736718,
            "velocity": 0.5433070866141733
          },
          {
            "duration": 0.1578944999999976,
            "durationTicks": 96,
            "midi": 46,
            "name": "A#2",
            "ticks": 50400,
            "time": 82.8946125,
            "velocity": 0.5433070866141733
          },
          {
            "duration": 0.15789450000001182,
            "durationTicks": 96,
            "midi": 37,
            "name": "C#2",
            "ticks": 50496,
            "time": 83.05250699999999,
            "velocity": 0.5433070866141733
          },
          {
            "duration": 0.1578944999999976,
            "durationTicks": 96,
            "midi": 46,
            "name": "A#2",
            "ticks": 50592,
            "time": 83.2104015,
            "velocity": 0.5433070866141733
          },
          {
            "duration": 0.0789472499999988,
            "durationTicks": 48,
            "midi": 71,
            "name": "B4",
            "ticks": 50592,
            "time": 83.2104015,
            "velocity": 0.5433070866141733
          },
          {
            "duration": 0.9473669999999998,
            "durationTicks": 576,
            "midi": 71,
            "name": "B4",
            "ticks": 50688,
            "time": 83.368296,
            "velocity": 0.5433070866141733
          },
          {
            "duration": 0.1578944999999976,
            "durationTicks": 96,
            "midi": 44,
            "name": "G#2",
            "ticks": 50688,
            "time": 83.368296,
            "velocity": 0.5433070866141733
          },
          {
            "duration": 0.1578944999999976,
            "durationTicks": 96,
            "midi": 47,
            "name": "B2",
            "ticks": 50784,
            "time": 83.5261905,
            "velocity": 0.5433070866141733
          },
          {
            "duration": 0.1578944999999976,
            "durationTicks": 96,
            "midi": 39,
            "name": "D#2",
            "ticks": 50880,
            "time": 83.684085,
            "velocity": 0.5433070866141733
          },
          {
            "duration": 0.1578944999999976,
            "durationTicks": 96,
            "midi": 47,
            "name": "B2",
            "ticks": 50976,
            "time": 83.8419795,
            "velocity": 0.5433070866141733
          },
          {
            "duration": 0.15789450000001182,
            "durationTicks": 96,
            "midi": 44,
            "name": "G#2",
            "ticks": 51072,
            "time": 83.99987399999999,
            "velocity": 0.5433070866141733
          },
          {
            "duration": 0.1578944999999976,
            "durationTicks": 96,
            "midi": 47,
            "name": "B2",
            "ticks": 51168,
            "time": 84.1577685,
            "velocity": 0.5433070866141733
          },
          {
            "duration": 0.3157889999999952,
            "durationTicks": 192,
            "midi": 66,
            "name": "F#4",
            "ticks": 51264,
            "time": 84.315663,
            "velocity": 0.5433070866141733
          },
          {
            "duration": 0.1578944999999976,
            "durationTicks": 96,
            "midi": 39,
            "name": "D#2",
            "ticks": 51264,
            "time": 84.315663,
            "velocity": 0.5433070866141733
          },
          {
            "duration": 0.1578944999999976,
            "durationTicks": 96,
            "midi": 47,
            "name": "B2",
            "ticks": 51360,
            "time": 84.4735575,
            "velocity": 0.5433070866141733
          },
          {
            "duration": 0.1578944999999976,
            "durationTicks": 96,
            "midi": 42,
            "name": "F#2",
            "ticks": 51456,
            "time": 84.631452,
            "velocity": 0.5433070866141733
          },
          {
            "duration": 0.3157889999999952,
            "durationTicks": 192,
            "midi": 75,
            "name": "D#5",
            "ticks": 51456,
            "time": 84.631452,
            "velocity": 0.5433070866141733
          },
          {
            "duration": 0.1578944999999976,
            "durationTicks": 96,
            "midi": 46,
            "name": "A#2",
            "ticks": 51552,
            "time": 84.7893465,
            "velocity": 0.5433070866141733
          },
          {
            "duration": 0.3157890000000094,
            "durationTicks": 192,
            "midi": 76,
            "name": "E5",
            "ticks": 51648,
            "time": 84.94724099999999,
            "velocity": 0.5433070866141733
          },
          {
            "duration": 0.15789450000001182,
            "durationTicks": 96,
            "midi": 37,
            "name": "C#2",
            "ticks": 51648,
            "time": 84.94724099999999,
            "velocity": 0.5433070866141733
          },
          {
            "duration": 0.1578944999999976,
            "durationTicks": 96,
            "midi": 46,
            "name": "A#2",
            "ticks": 51744,
            "time": 85.1051355,
            "velocity": 0.5433070866141733
          },
          {
            "duration": 0.3157889999999952,
            "durationTicks": 192,
            "midi": 73,
            "name": "C#5",
            "ticks": 51840,
            "time": 85.26303,
            "velocity": 0.5433070866141733
          },
          {
            "duration": 0.1578944999999976,
            "durationTicks": 96,
            "midi": 42,
            "name": "F#2",
            "ticks": 51840,
            "time": 85.26303,
            "velocity": 0.5433070866141733
          },
          {
            "duration": 0.1578944999999976,
            "durationTicks": 96,
            "midi": 46,
            "name": "A#2",
            "ticks": 51936,
            "time": 85.4209245,
            "velocity": 0.5433070866141733
          },
          {
            "duration": 0.2368417499999964,
            "durationTicks": 144,
            "midi": 71,
            "name": "B4",
            "ticks": 52032,
            "time": 85.578819,
            "velocity": 0.5433070866141733
          },
          {
            "duration": 0.1578944999999976,
            "durationTicks": 96,
            "midi": 37,
            "name": "C#2",
            "ticks": 52032,
            "time": 85.578819,
            "velocity": 0.5433070866141733
          },
          {
            "duration": 0.1578944999999976,
            "durationTicks": 96,
            "midi": 46,
            "name": "A#2",
            "ticks": 52128,
            "time": 85.7367135,
            "velocity": 0.5433070866141733
          },
          {
            "duration": 0.15789450000001182,
            "durationTicks": 96,
            "midi": 40,
            "name": "E2",
            "ticks": 52224,
            "time": 85.89460799999999,
            "velocity": 0.5433070866141733
          },
          {
            "duration": 0.9473669999999998,
            "durationTicks": 576,
            "midi": 71,
            "name": "B4",
            "ticks": 52224,
            "time": 85.89460799999999,
            "velocity": 0.5433070866141733
          },
          {
            "duration": 0.1578944999999976,
            "durationTicks": 96,
            "midi": 44,
            "name": "G#2",
            "ticks": 52320,
            "time": 86.0525025,
            "velocity": 0.5433070866141733
          },
          {
            "duration": 0.1578944999999976,
            "durationTicks": 96,
            "midi": 35,
            "name": "B1",
            "ticks": 52416,
            "time": 86.210397,
            "velocity": 0.5433070866141733
          },
          {
            "duration": 0.1578944999999976,
            "durationTicks": 96,
            "midi": 44,
            "name": "G#2",
            "ticks": 52512,
            "time": 86.3682915,
            "velocity": 0.5433070866141733
          },
          {
            "duration": 0.1578944999999976,
            "durationTicks": 96,
            "midi": 40,
            "name": "E2",
            "ticks": 52608,
            "time": 86.526186,
            "velocity": 0.5433070866141733
          },
          {
            "duration": 0.1578944999999976,
            "durationTicks": 96,
            "midi": 44,
            "name": "G#2",
            "ticks": 52704,
            "time": 86.6840805,
            "velocity": 0.5433070866141733
          },
          {
            "duration": 0.15789450000001182,
            "durationTicks": 96,
            "midi": 35,
            "name": "B1",
            "ticks": 52800,
            "time": 86.84197499999999,
            "velocity": 0.5433070866141733
          },
          {
            "duration": 0.3157890000000094,
            "durationTicks": 192,
            "midi": 66,
            "name": "F#4",
            "ticks": 52800,
            "time": 86.84197499999999,
            "velocity": 0.5433070866141733
          },
          {
            "duration": 0.1578944999999976,
            "durationTicks": 96,
            "midi": 44,
            "name": "G#2",
            "ticks": 52896,
            "time": 86.9998695,
            "velocity": 0.5433070866141733
          },
          {
            "duration": 0.3157889999999952,
            "durationTicks": 192,
            "midi": 75,
            "name": "D#5",
            "ticks": 52992,
            "time": 87.157764,
            "velocity": 0.5433070866141733
          },
          {
            "duration": 0.1578944999999976,
            "durationTicks": 96,
            "midi": 42,
            "name": "F#2",
            "ticks": 52992,
            "time": 87.157764,
            "velocity": 0.5433070866141733
          },
          {
            "duration": 0.1578944999999976,
            "durationTicks": 96,
            "midi": 46,
            "name": "A#2",
            "ticks": 53088,
            "time": 87.3156585,
            "velocity": 0.5433070866141733
          },
          {
            "duration": 0.3157889999999952,
            "durationTicks": 192,
            "midi": 76,
            "name": "E5",
            "ticks": 53184,
            "time": 87.473553,
            "velocity": 0.5433070866141733
          },
          {
            "duration": 0.1578944999999976,
            "durationTicks": 96,
            "midi": 37,
            "name": "C#2",
            "ticks": 53184,
            "time": 87.473553,
            "velocity": 0.5433070866141733
          },
          {
            "duration": 0.1578944999999976,
            "durationTicks": 96,
            "midi": 46,
            "name": "A#2",
            "ticks": 53280,
            "time": 87.6314475,
            "velocity": 0.5433070866141733
          },
          {
            "duration": 0.47368350000000703,
            "durationTicks": 288,
            "midi": 73,
            "name": "C#5",
            "ticks": 53376,
            "time": 87.78934199999999,
            "velocity": 0.5433070866141733
          },
          {
            "duration": 0.15789450000001182,
            "durationTicks": 96,
            "midi": 42,
            "name": "F#2",
            "ticks": 53376,
            "time": 87.78934199999999,
            "velocity": 0.5433070866141733
          },
          {
            "duration": 0.1578944999999976,
            "durationTicks": 96,
            "midi": 46,
            "name": "A#2",
            "ticks": 53472,
            "time": 87.9472365,
            "velocity": 0.5433070866141733
          },
          {
            "duration": 0.1578944999999976,
            "durationTicks": 96,
            "midi": 37,
            "name": "C#2",
            "ticks": 53568,
            "time": 88.105131,
            "velocity": 0.5433070866141733
          },
          {
            "duration": 0.1578944999999976,
            "durationTicks": 96,
            "midi": 46,
            "name": "A#2",
            "ticks": 53664,
            "time": 88.2630255,
            "velocity": 0.5433070866141733
          },
          {
            "duration": 0.0789472499999988,
            "durationTicks": 48,
            "midi": 71,
            "name": "B4",
            "ticks": 53664,
            "time": 88.2630255,
            "velocity": 0.5433070866141733
          },
          {
            "duration": 0.1578944999999976,
            "durationTicks": 96,
            "midi": 44,
            "name": "G#2",
            "ticks": 53760,
            "time": 88.42092,
            "velocity": 0.5433070866141733
          },
          {
            "duration": 0.9473669999999998,
            "durationTicks": 576,
            "midi": 71,
            "name": "B4",
            "ticks": 53760,
            "time": 88.42092,
            "velocity": 0.5433070866141733
          },
          {
            "duration": 0.1578944999999976,
            "durationTicks": 96,
            "midi": 47,
            "name": "B2",
            "ticks": 53856,
            "time": 88.5788145,
            "velocity": 0.5433070866141733
          },
          {
            "duration": 0.15789450000001182,
            "durationTicks": 96,
            "midi": 39,
            "name": "D#2",
            "ticks": 53952,
            "time": 88.73670899999999,
            "velocity": 0.5433070866141733
          },
          {
            "duration": 0.1578944999999976,
            "durationTicks": 96,
            "midi": 47,
            "name": "B2",
            "ticks": 54048,
            "time": 88.8946035,
            "velocity": 0.5433070866141733
          },
          {
            "duration": 0.1578944999999976,
            "durationTicks": 96,
            "midi": 44,
            "name": "G#2",
            "ticks": 54144,
            "time": 89.052498,
            "velocity": 0.5433070866141733
          },
          {
            "duration": 0.1578944999999976,
            "durationTicks": 96,
            "midi": 47,
            "name": "B2",
            "ticks": 54240,
            "time": 89.2103925,
            "velocity": 0.5433070866141733
          },
          {
            "duration": 0.1578944999999976,
            "durationTicks": 96,
            "midi": 39,
            "name": "D#2",
            "ticks": 54336,
            "time": 89.368287,
            "velocity": 0.5433070866141733
          },
          {
            "duration": 0.3157889999999952,
            "durationTicks": 192,
            "midi": 66,
            "name": "F#4",
            "ticks": 54336,
            "time": 89.368287,
            "velocity": 0.5433070866141733
          },
          {
            "duration": 0.1578944999999976,
            "durationTicks": 96,
            "midi": 47,
            "name": "B2",
            "ticks": 54432,
            "time": 89.52618149999999,
            "velocity": 0.5433070866141733
          },
          {
            "duration": 0.15789450000001182,
            "durationTicks": 96,
            "midi": 42,
            "name": "F#2",
            "ticks": 54528,
            "time": 89.68407599999999,
            "velocity": 0.5433070866141733
          },
          {
            "duration": 0.3157890000000094,
            "durationTicks": 192,
            "midi": 75,
            "name": "D#5",
            "ticks": 54528,
            "time": 89.68407599999999,
            "velocity": 0.5433070866141733
          },
          {
            "duration": 0.1578944999999976,
            "durationTicks": 96,
            "midi": 46,
            "name": "A#2",
            "ticks": 54624,
            "time": 89.8419705,
            "velocity": 0.5433070866141733
          },
          {
            "duration": 0.3157889999999952,
            "durationTicks": 192,
            "midi": 76,
            "name": "E5",
            "ticks": 54720,
            "time": 89.999865,
            "velocity": 0.5433070866141733
          },
          {
            "duration": 0.1578944999999976,
            "durationTicks": 96,
            "midi": 37,
            "name": "C#2",
            "ticks": 54720,
            "time": 89.999865,
            "velocity": 0.5433070866141733
          },
          {
            "duration": 0.1578944999999976,
            "durationTicks": 96,
            "midi": 46,
            "name": "A#2",
            "ticks": 54816,
            "time": 90.1577595,
            "velocity": 0.5433070866141733
          },
          {
            "duration": 0.3157889999999952,
            "durationTicks": 192,
            "midi": 73,
            "name": "C#5",
            "ticks": 54912,
            "time": 90.315654,
            "velocity": 0.5433070866141733
          },
          {
            "duration": 0.1578944999999976,
            "durationTicks": 96,
            "midi": 42,
            "name": "F#2",
            "ticks": 54912,
            "time": 90.315654,
            "velocity": 0.5433070866141733
          },
          {
            "duration": 0.1578944999999976,
            "durationTicks": 96,
            "midi": 46,
            "name": "A#2",
            "ticks": 55008,
            "time": 90.47354849999999,
            "velocity": 0.5433070866141733
          },
          {
            "duration": 0.23684175000001062,
            "durationTicks": 144,
            "midi": 71,
            "name": "B4",
            "ticks": 55104,
            "time": 90.63144299999999,
            "velocity": 0.5433070866141733
          },
          {
            "duration": 0.15789450000001182,
            "durationTicks": 96,
            "midi": 37,
            "name": "C#2",
            "ticks": 55104,
            "time": 90.63144299999999,
            "velocity": 0.5433070866141733
          },
          {
            "duration": 0.1578944999999976,
            "durationTicks": 96,
            "midi": 46,
            "name": "A#2",
            "ticks": 55200,
            "time": 90.7893375,
            "velocity": 0.5433070866141733
          },
          {
            "duration": 0.9473669999999998,
            "durationTicks": 576,
            "midi": 71,
            "name": "B4",
            "ticks": 55296,
            "time": 90.947232,
            "velocity": 0.5433070866141733
          },
          {
            "duration": 0.1578944999999976,
            "durationTicks": 96,
            "midi": 40,
            "name": "E2",
            "ticks": 55296,
            "time": 90.947232,
            "velocity": 0.5433070866141733
          },
          {
            "duration": 0.1578944999999976,
            "durationTicks": 96,
            "midi": 44,
            "name": "G#2",
            "ticks": 55392,
            "time": 91.1051265,
            "velocity": 0.5433070866141733
          },
          {
            "duration": 0.1578944999999976,
            "durationTicks": 96,
            "midi": 35,
            "name": "B1",
            "ticks": 55488,
            "time": 91.263021,
            "velocity": 0.5433070866141733
          },
          {
            "duration": 0.1578944999999976,
            "durationTicks": 96,
            "midi": 44,
            "name": "G#2",
            "ticks": 55584,
            "time": 91.42091549999999,
            "velocity": 0.5433070866141733
          },
          {
            "duration": 0.15789450000001182,
            "durationTicks": 96,
            "midi": 40,
            "name": "E2",
            "ticks": 55680,
            "time": 91.57880999999999,
            "velocity": 0.5433070866141733
          },
          {
            "duration": 0.1578944999999976,
            "durationTicks": 96,
            "midi": 44,
            "name": "G#2",
            "ticks": 55776,
            "time": 91.7367045,
            "velocity": 0.5433070866141733
          },
          {
            "duration": 0.3157889999999952,
            "durationTicks": 192,
            "midi": 66,
            "name": "F#4",
            "ticks": 55872,
            "time": 91.894599,
            "velocity": 0.5433070866141733
          },
          {
            "duration": 0.1578944999999976,
            "durationTicks": 96,
            "midi": 35,
            "name": "B1",
            "ticks": 55872,
            "time": 91.894599,
            "velocity": 0.5433070866141733
          },
          {
            "duration": 0.1578944999999976,
            "durationTicks": 96,
            "midi": 44,
            "name": "G#2",
            "ticks": 55968,
            "time": 92.0524935,
            "velocity": 0.5433070866141733
          },
          {
            "duration": 0.3157889999999952,
            "durationTicks": 192,
            "midi": 75,
            "name": "D#5",
            "ticks": 56064,
            "time": 92.210388,
            "velocity": 0.5433070866141733
          },
          {
            "duration": 0.1578944999999976,
            "durationTicks": 96,
            "midi": 42,
            "name": "F#2",
            "ticks": 56064,
            "time": 92.210388,
            "velocity": 0.5433070866141733
          },
          {
            "duration": 0.1578944999999976,
            "durationTicks": 96,
            "midi": 46,
            "name": "A#2",
            "ticks": 56160,
            "time": 92.36828249999999,
            "velocity": 0.5433070866141733
          },
          {
            "duration": 0.3157890000000094,
            "durationTicks": 192,
            "midi": 76,
            "name": "E5",
            "ticks": 56256,
            "time": 92.52617699999999,
            "velocity": 0.5433070866141733
          },
          {
            "duration": 0.15789450000001182,
            "durationTicks": 96,
            "midi": 37,
            "name": "C#2",
            "ticks": 56256,
            "time": 92.52617699999999,
            "velocity": 0.5433070866141733
          },
          {
            "duration": 0.1578944999999976,
            "durationTicks": 96,
            "midi": 46,
            "name": "A#2",
            "ticks": 56352,
            "time": 92.6840715,
            "velocity": 0.5433070866141733
          },
          {
            "duration": 0.1578944999999976,
            "durationTicks": 96,
            "midi": 42,
            "name": "F#2",
            "ticks": 56448,
            "time": 92.841966,
            "velocity": 0.5433070866141733
          },
          {
            "duration": 0.4736834999999928,
            "durationTicks": 288,
            "midi": 73,
            "name": "C#5",
            "ticks": 56448,
            "time": 92.841966,
            "velocity": 0.5433070866141733
          },
          {
            "duration": 0.1578944999999976,
            "durationTicks": 96,
            "midi": 46,
            "name": "A#2",
            "ticks": 56544,
            "time": 92.9998605,
            "velocity": 0.5433070866141733
          },
          {
            "duration": 0.1578944999999976,
            "durationTicks": 96,
            "midi": 37,
            "name": "C#2",
            "ticks": 56640,
            "time": 93.157755,
            "velocity": 0.5433070866141733
          },
          {
            "duration": 0.0789472499999988,
            "durationTicks": 48,
            "midi": 71,
            "name": "B4",
            "ticks": 56736,
            "time": 93.31564949999999,
            "velocity": 0.5433070866141733
          },
          {
            "duration": 0.1578944999999976,
            "durationTicks": 96,
            "midi": 46,
            "name": "A#2",
            "ticks": 56736,
            "time": 93.31564949999999,
            "velocity": 0.5433070866141733
          },
          {
            "duration": 0.9473669999999998,
            "durationTicks": 576,
            "midi": 71,
            "name": "B4",
            "ticks": 56832,
            "time": 93.47354399999999,
            "velocity": 0.5433070866141733
          },
          {
            "duration": 0.15789450000001182,
            "durationTicks": 96,
            "midi": 44,
            "name": "G#2",
            "ticks": 56832,
            "time": 93.47354399999999,
            "velocity": 0.5433070866141733
          },
          {
            "duration": 0.1578944999999976,
            "durationTicks": 96,
            "midi": 47,
            "name": "B2",
            "ticks": 56928,
            "time": 93.6314385,
            "velocity": 0.5433070866141733
          },
          {
            "duration": 0.1578944999999976,
            "durationTicks": 96,
            "midi": 39,
            "name": "D#2",
            "ticks": 57024,
            "time": 93.789333,
            "velocity": 0.5433070866141733
          },
          {
            "duration": 0.1578944999999976,
            "durationTicks": 96,
            "midi": 47,
            "name": "B2",
            "ticks": 57120,
            "time": 93.9472275,
            "velocity": 0.5433070866141733
          },
          {
            "duration": 0.1578944999999976,
            "durationTicks": 96,
            "midi": 44,
            "name": "G#2",
            "ticks": 57216,
            "time": 94.105122,
            "velocity": 0.5433070866141733
          },
          {
            "duration": 0.1578944999999976,
            "durationTicks": 96,
            "midi": 47,
            "name": "B2",
            "ticks": 57312,
            "time": 94.26301649999999,
            "velocity": 0.5433070866141733
          },
          {
            "duration": 0.3157890000000094,
            "durationTicks": 192,
            "midi": 66,
            "name": "F#4",
            "ticks": 57408,
            "time": 94.42091099999999,
            "velocity": 0.5433070866141733
          },
          {
            "duration": 0.15789450000001182,
            "durationTicks": 96,
            "midi": 39,
            "name": "D#2",
            "ticks": 57408,
            "time": 94.42091099999999,
            "velocity": 0.5433070866141733
          },
          {
            "duration": 0.1578944999999976,
            "durationTicks": 96,
            "midi": 47,
            "name": "B2",
            "ticks": 57504,
            "time": 94.5788055,
            "velocity": 0.5433070866141733
          },
          {
            "duration": 0.3157889999999952,
            "durationTicks": 192,
            "midi": 75,
            "name": "D#5",
            "ticks": 57600,
            "time": 94.7367,
            "velocity": 0.5433070866141733
          },
          {
            "duration": 0.1578944999999976,
            "durationTicks": 96,
            "midi": 42,
            "name": "F#2",
            "ticks": 57600,
            "time": 94.7367,
            "velocity": 0.5433070866141733
          },
          {
            "duration": 0.1578944999999976,
            "durationTicks": 96,
            "midi": 46,
            "name": "A#2",
            "ticks": 57696,
            "time": 94.8945945,
            "velocity": 0.5433070866141733
          },
          {
            "duration": 0.3157889999999952,
            "durationTicks": 192,
            "midi": 76,
            "name": "E5",
            "ticks": 57792,
            "time": 95.052489,
            "velocity": 0.5433070866141733
          },
          {
            "duration": 0.1578944999999976,
            "durationTicks": 96,
            "midi": 37,
            "name": "C#2",
            "ticks": 57792,
            "time": 95.052489,
            "velocity": 0.5433070866141733
          },
          {
            "duration": 0.1578944999999976,
            "durationTicks": 96,
            "midi": 46,
            "name": "A#2",
            "ticks": 57888,
            "time": 95.21038349999999,
            "velocity": 0.5433070866141733
          },
          {
            "duration": 0.15789450000001182,
            "durationTicks": 96,
            "midi": 42,
            "name": "F#2",
            "ticks": 57984,
            "time": 95.36827799999999,
            "velocity": 0.5433070866141733
          },
          {
            "duration": 0.3157890000000094,
            "durationTicks": 192,
            "midi": 73,
            "name": "C#5",
            "ticks": 57984,
            "time": 95.36827799999999,
            "velocity": 0.5433070866141733
          },
          {
            "duration": 0.1578944999999976,
            "durationTicks": 96,
            "midi": 46,
            "name": "A#2",
            "ticks": 58080,
            "time": 95.5261725,
            "velocity": 0.5433070866141733
          },
          {
            "duration": 0.2368417499999964,
            "durationTicks": 144,
            "midi": 71,
            "name": "B4",
            "ticks": 58176,
            "time": 95.684067,
            "velocity": 0.5433070866141733
          },
          {
            "duration": 0.1578944999999976,
            "durationTicks": 96,
            "midi": 37,
            "name": "C#2",
            "ticks": 58176,
            "time": 95.684067,
            "velocity": 0.5433070866141733
          },
          {
            "duration": 0.1578944999999976,
            "durationTicks": 96,
            "midi": 46,
            "name": "A#2",
            "ticks": 58272,
            "time": 95.8419615,
            "velocity": 0.5433070866141733
          },
          {
            "duration": 0.9473669999999998,
            "durationTicks": 576,
            "midi": 71,
            "name": "B4",
            "ticks": 58368,
            "time": 95.999856,
            "velocity": 0.5433070866141733
          },
          {
            "duration": 0.1578944999999976,
            "durationTicks": 96,
            "midi": 40,
            "name": "E2",
            "ticks": 58368,
            "time": 95.999856,
            "velocity": 0.5433070866141733
          },
          {
            "duration": 0.1578944999999976,
            "durationTicks": 96,
            "midi": 44,
            "name": "G#2",
            "ticks": 58464,
            "time": 96.15775049999999,
            "velocity": 0.5433070866141733
          },
          {
            "duration": 0.15789450000001182,
            "durationTicks": 96,
            "midi": 35,
            "name": "B1",
            "ticks": 58560,
            "time": 96.31564499999999,
            "velocity": 0.5433070866141733
          },
          {
            "duration": 0.1578944999999976,
            "durationTicks": 96,
            "midi": 44,
            "name": "G#2",
            "ticks": 58656,
            "time": 96.4735395,
            "velocity": 0.5433070866141733
          },
          {
            "duration": 0.1578944999999976,
            "durationTicks": 96,
            "midi": 40,
            "name": "E2",
            "ticks": 58752,
            "time": 96.631434,
            "velocity": 0.5433070866141733
          },
          {
            "duration": 0.1578944999999976,
            "durationTicks": 96,
            "midi": 44,
            "name": "G#2",
            "ticks": 58848,
            "time": 96.7893285,
            "velocity": 0.5433070866141733
          },
          {
            "duration": 0.1578944999999976,
            "durationTicks": 96,
            "midi": 35,
            "name": "B1",
            "ticks": 58944,
            "time": 96.947223,
            "velocity": 0.5433070866141733
          },
          {
            "duration": 0.3157889999999952,
            "durationTicks": 192,
            "midi": 66,
            "name": "F#4",
            "ticks": 58944,
            "time": 96.947223,
            "velocity": 0.5433070866141733
          },
          {
            "duration": 0.1578944999999976,
            "durationTicks": 96,
            "midi": 44,
            "name": "G#2",
            "ticks": 59040,
            "time": 97.10511749999999,
            "velocity": 0.5433070866141733
          },
          {
            "duration": 0.15789450000001182,
            "durationTicks": 96,
            "midi": 42,
            "name": "F#2",
            "ticks": 59136,
            "time": 97.26301199999999,
            "velocity": 0.5433070866141733
          },
          {
            "duration": 0.3157890000000094,
            "durationTicks": 192,
            "midi": 75,
            "name": "D#5",
            "ticks": 59136,
            "time": 97.26301199999999,
            "velocity": 0.5433070866141733
          },
          {
            "duration": 0.1578944999999976,
            "durationTicks": 96,
            "midi": 46,
            "name": "A#2",
            "ticks": 59232,
            "time": 97.4209065,
            "velocity": 0.5433070866141733
          },
          {
            "duration": 0.1578944999999976,
            "durationTicks": 96,
            "midi": 37,
            "name": "C#2",
            "ticks": 59328,
            "time": 97.578801,
            "velocity": 0.5433070866141733
          },
          {
            "duration": 0.3157889999999952,
            "durationTicks": 192,
            "midi": 76,
            "name": "E5",
            "ticks": 59328,
            "time": 97.578801,
            "velocity": 0.5433070866141733
          },
          {
            "duration": 0.1578944999999976,
            "durationTicks": 96,
            "midi": 46,
            "name": "A#2",
            "ticks": 59424,
            "time": 97.7366955,
            "velocity": 0.5433070866141733
          },
          {
            "duration": 0.1578944999999976,
            "durationTicks": 96,
            "midi": 42,
            "name": "F#2",
            "ticks": 59520,
            "time": 97.89459,
            "velocity": 0.5433070866141733
          },
          {
            "duration": 0.47368350000000703,
            "durationTicks": 288,
            "midi": 73,
            "name": "C#5",
            "ticks": 59520,
            "time": 97.89459,
            "velocity": 0.5433070866141733
          },
          {
            "duration": 0.1578944999999976,
            "durationTicks": 96,
            "midi": 46,
            "name": "A#2",
            "ticks": 59616,
            "time": 98.05248449999999,
            "velocity": 0.5433070866141733
          },
          {
            "duration": 0.15789450000001182,
            "durationTicks": 96,
            "midi": 37,
            "name": "C#2",
            "ticks": 59712,
            "time": 98.21037899999999,
            "velocity": 0.5433070866141733
          },
          {
            "duration": 0.0789472499999988,
            "durationTicks": 48,
            "midi": 71,
            "name": "B4",
            "ticks": 59808,
            "time": 98.3682735,
            "velocity": 0.5433070866141733
          },
          {
            "duration": 0.1578944999999976,
            "durationTicks": 96,
            "midi": 46,
            "name": "A#2",
            "ticks": 59808,
            "time": 98.3682735,
            "velocity": 0.5433070866141733
          },
          {
            "duration": 0.9473669999999998,
            "durationTicks": 576,
            "midi": 71,
            "name": "B4",
            "ticks": 59904,
            "time": 98.526168,
            "velocity": 0.5433070866141733
          },
          {
            "duration": 0.1578944999999976,
            "durationTicks": 96,
            "midi": 44,
            "name": "G#2",
            "ticks": 59904,
            "time": 98.526168,
            "velocity": 0.5433070866141733
          },
          {
            "duration": 0.1578944999999976,
            "durationTicks": 96,
            "midi": 47,
            "name": "B2",
            "ticks": 60000,
            "time": 98.6840625,
            "velocity": 0.5433070866141733
          },
          {
            "duration": 0.1578944999999976,
            "durationTicks": 96,
            "midi": 39,
            "name": "D#2",
            "ticks": 60096,
            "time": 98.841957,
            "velocity": 0.5433070866141733
          },
          {
            "duration": 0.1578944999999976,
            "durationTicks": 96,
            "midi": 47,
            "name": "B2",
            "ticks": 60192,
            "time": 98.99985149999999,
            "velocity": 0.5433070866141733
          },
          {
            "duration": 0.15789450000001182,
            "durationTicks": 96,
            "midi": 44,
            "name": "G#2",
            "ticks": 60288,
            "time": 99.15774599999999,
            "velocity": 0.5433070866141733
          },
          {
            "duration": 0.1578944999999976,
            "durationTicks": 96,
            "midi": 47,
            "name": "B2",
            "ticks": 60384,
            "time": 99.3156405,
            "velocity": 0.5433070866141733
          },
          {
            "duration": 0.3157889999999952,
            "durationTicks": 192,
            "midi": 66,
            "name": "F#4",
            "ticks": 60480,
            "time": 99.473535,
            "velocity": 0.5433070866141733
          },
          {
            "duration": 0.1578944999999976,
            "durationTicks": 96,
            "midi": 39,
            "name": "D#2",
            "ticks": 60480,
            "time": 99.473535,
            "velocity": 0.5433070866141733
          },
          {
            "duration": 0.1578944999999976,
            "durationTicks": 96,
            "midi": 47,
            "name": "B2",
            "ticks": 60576,
            "time": 99.6314295,
            "velocity": 0.5433070866141733
          },
          {
            "duration": 0.6315780000000046,
            "durationTicks": 384,
            "midi": 42,
            "name": "F#2",
            "ticks": 60672,
            "time": 99.789324,
            "velocity": 0.5433070866141733
          },
          {
            "duration": 0.3157889999999952,
            "durationTicks": 192,
            "midi": 75,
            "name": "D#5",
            "ticks": 60672,
            "time": 99.789324,
            "velocity": 0.5433070866141733
          },
          {
            "duration": 0.3157890000000094,
            "durationTicks": 192,
            "midi": 76,
            "name": "E5",
            "ticks": 60864,
            "time": 100.10511299999999,
            "velocity": 0.5433070866141733
          },
          {
            "duration": 0.3157889999999952,
            "durationTicks": 192,
            "midi": 73,
            "name": "C#5",
            "ticks": 61056,
            "time": 100.420902,
            "velocity": 0.5433070866141733
          },
          {
            "duration": 0.6315780000000046,
            "durationTicks": 384,
            "midi": 43,
            "name": "G2",
            "ticks": 61056,
            "time": 100.420902,
            "velocity": 0.5433070866141733
          },
          {
            "duration": 0.3157890000000094,
            "durationTicks": 192,
            "midi": 71,
            "name": "B4",
            "ticks": 61248,
            "time": 100.736691,
            "velocity": 0.5433070866141733
          }
        ],
        "endOfTrackTicks": 61440
      },
      {
        "channel": 1,
        "controlChanges": {},
        "pitchBends": [],
        "instrument": {
          "family": "synth lead",
          "number": 80,
          "name": "lead 1 (square)"
        },
        "name": "Smooth Synth",
        "notes": [
          {
            "duration": 0.1578944999999976,
            "durationTicks": 96,
            "midi": 47,
            "name": "B2",
            "ticks": 24576,
            "time": 40.420992,
            "velocity": 0.1732283464566929
          },
          {
            "duration": 0.1578945000000047,
            "durationTicks": 96,
            "midi": 47,
            "name": "B2",
            "ticks": 24672,
            "time": 40.578886499999996,
            "velocity": 0.1732283464566929
          },
          {
            "duration": 0.1578944999999976,
            "durationTicks": 96,
            "midi": 47,
            "name": "B2",
            "ticks": 24768,
            "time": 40.736781,
            "velocity": 0.1732283464566929
          },
          {
            "duration": 0.1578944999999976,
            "durationTicks": 96,
            "midi": 47,
            "name": "B2",
            "ticks": 24864,
            "time": 40.8946755,
            "velocity": 0.1732283464566929
          },
          {
            "duration": 0.1578945000000047,
            "durationTicks": 96,
            "midi": 47,
            "name": "B2",
            "ticks": 24960,
            "time": 41.052569999999996,
            "velocity": 0.1732283464566929
          },
          {
            "duration": 0.1578944999999976,
            "durationTicks": 96,
            "midi": 47,
            "name": "B2",
            "ticks": 25056,
            "time": 41.2104645,
            "velocity": 0.1732283464566929
          },
          {
            "duration": 0.1578944999999976,
            "durationTicks": 96,
            "midi": 47,
            "name": "B2",
            "ticks": 25152,
            "time": 41.368359,
            "velocity": 0.1732283464566929
          },
          {
            "duration": 0.1578945000000047,
            "durationTicks": 96,
            "midi": 47,
            "name": "B2",
            "ticks": 25248,
            "time": 41.526253499999996,
            "velocity": 0.1732283464566929
          },
          {
            "duration": 0.1578944999999976,
            "durationTicks": 96,
            "midi": 49,
            "name": "C#3",
            "ticks": 25344,
            "time": 41.684148,
            "velocity": 0.1732283464566929
          },
          {
            "duration": 0.1578944999999976,
            "durationTicks": 96,
            "midi": 49,
            "name": "C#3",
            "ticks": 25440,
            "time": 41.8420425,
            "velocity": 0.1732283464566929
          },
          {
            "duration": 0.1578945000000047,
            "durationTicks": 96,
            "midi": 49,
            "name": "C#3",
            "ticks": 25536,
            "time": 41.999936999999996,
            "velocity": 0.1732283464566929
          },
          {
            "duration": 0.1578944999999976,
            "durationTicks": 96,
            "midi": 49,
            "name": "C#3",
            "ticks": 25632,
            "time": 42.1578315,
            "velocity": 0.1732283464566929
          },
          {
            "duration": 0.1578944999999976,
            "durationTicks": 96,
            "midi": 49,
            "name": "C#3",
            "ticks": 25728,
            "time": 42.315726,
            "velocity": 0.1732283464566929
          },
          {
            "duration": 0.1578945000000047,
            "durationTicks": 96,
            "midi": 49,
            "name": "C#3",
            "ticks": 25824,
            "time": 42.473620499999996,
            "velocity": 0.1732283464566929
          },
          {
            "duration": 0.1578944999999976,
            "durationTicks": 96,
            "midi": 49,
            "name": "C#3",
            "ticks": 25920,
            "time": 42.631515,
            "velocity": 0.1732283464566929
          },
          {
            "duration": 0.1578944999999976,
            "durationTicks": 96,
            "midi": 49,
            "name": "C#3",
            "ticks": 26016,
            "time": 42.7894095,
            "velocity": 0.1732283464566929
          },
          {
            "duration": 0.1578945000000047,
            "durationTicks": 96,
            "midi": 51,
            "name": "D#3",
            "ticks": 26112,
            "time": 42.947303999999995,
            "velocity": 0.1732283464566929
          },
          {
            "duration": 0.1578944999999976,
            "durationTicks": 96,
            "midi": 51,
            "name": "D#3",
            "ticks": 26208,
            "time": 43.1051985,
            "velocity": 0.1732283464566929
          },
          {
            "duration": 0.1578944999999976,
            "durationTicks": 96,
            "midi": 51,
            "name": "D#3",
            "ticks": 26304,
            "time": 43.263093,
            "velocity": 0.1732283464566929
          },
          {
            "duration": 0.1578945000000047,
            "durationTicks": 96,
            "midi": 51,
            "name": "D#3",
            "ticks": 26400,
            "time": 43.420987499999995,
            "velocity": 0.1732283464566929
          },
          {
            "duration": 0.1578944999999976,
            "durationTicks": 96,
            "midi": 51,
            "name": "D#3",
            "ticks": 26496,
            "time": 43.578882,
            "velocity": 0.1732283464566929
          },
          {
            "duration": 0.1578944999999976,
            "durationTicks": 96,
            "midi": 51,
            "name": "D#3",
            "ticks": 26592,
            "time": 43.7367765,
            "velocity": 0.1732283464566929
          },
          {
            "duration": 0.1578945000000047,
            "durationTicks": 96,
            "midi": 51,
            "name": "D#3",
            "ticks": 26688,
            "time": 43.894670999999995,
            "velocity": 0.1732283464566929
          },
          {
            "duration": 0.1578944999999976,
            "durationTicks": 96,
            "midi": 51,
            "name": "D#3",
            "ticks": 26784,
            "time": 44.0525655,
            "velocity": 0.1732283464566929
          },
          {
            "duration": 0.1578944999999976,
            "durationTicks": 96,
            "midi": 46,
            "name": "A#2",
            "ticks": 26880,
            "time": 44.21046,
            "velocity": 0.1732283464566929
          },
          {
            "duration": 0.1578944999999976,
            "durationTicks": 96,
            "midi": 46,
            "name": "A#2",
            "ticks": 26880,
            "time": 44.21046,
            "velocity": 0.1732283464566929
          },
          {
            "duration": 0.1578945000000047,
            "durationTicks": 96,
            "midi": 46,
            "name": "A#2",
            "ticks": 26976,
            "time": 44.368354499999995,
            "velocity": 0.1732283464566929
          },
          {
            "duration": 0.1578945000000047,
            "durationTicks": 96,
            "midi": 46,
            "name": "A#2",
            "ticks": 26976,
            "time": 44.368354499999995,
            "velocity": 0.1732283464566929
          },
          {
            "duration": 0.1578944999999976,
            "durationTicks": 96,
            "midi": 46,
            "name": "A#2",
            "ticks": 27072,
            "time": 44.526249,
            "velocity": 0.1732283464566929
          },
          {
            "duration": 0.1578944999999976,
            "durationTicks": 96,
            "midi": 46,
            "name": "A#2",
            "ticks": 27072,
            "time": 44.526249,
            "velocity": 0.1732283464566929
          },
          {
            "duration": 0.1578944999999976,
            "durationTicks": 96,
            "midi": 46,
            "name": "A#2",
            "ticks": 27168,
            "time": 44.6841435,
            "velocity": 0.1732283464566929
          },
          {
            "duration": 0.1578944999999976,
            "durationTicks": 96,
            "midi": 46,
            "name": "A#2",
            "ticks": 27168,
            "time": 44.6841435,
            "velocity": 0.1732283464566929
          },
          {
            "duration": 0.1578945000000047,
            "durationTicks": 96,
            "midi": 46,
            "name": "A#2",
            "ticks": 27264,
            "time": 44.842037999999995,
            "velocity": 0.1732283464566929
          },
          {
            "duration": 0.1578945000000047,
            "durationTicks": 96,
            "midi": 46,
            "name": "A#2",
            "ticks": 27264,
            "time": 44.842037999999995,
            "velocity": 0.1732283464566929
          },
          {
            "duration": 0.1578944999999976,
            "durationTicks": 96,
            "midi": 46,
            "name": "A#2",
            "ticks": 27360,
            "time": 44.9999325,
            "velocity": 0.1732283464566929
          },
          {
            "duration": 0.1578944999999976,
            "durationTicks": 96,
            "midi": 46,
            "name": "A#2",
            "ticks": 27360,
            "time": 44.9999325,
            "velocity": 0.1732283464566929
          },
          {
            "duration": 0.1578944999999976,
            "durationTicks": 96,
            "midi": 46,
            "name": "A#2",
            "ticks": 27456,
            "time": 45.157827,
            "velocity": 0.1732283464566929
          },
          {
            "duration": 0.1578944999999976,
            "durationTicks": 96,
            "midi": 46,
            "name": "A#2",
            "ticks": 27456,
            "time": 45.157827,
            "velocity": 0.1732283464566929
          },
          {
            "duration": 0.1578945000000047,
            "durationTicks": 96,
            "midi": 46,
            "name": "A#2",
            "ticks": 27552,
            "time": 45.315721499999995,
            "velocity": 0.1732283464566929
          },
          {
            "duration": 0.1578945000000047,
            "durationTicks": 96,
            "midi": 46,
            "name": "A#2",
            "ticks": 27552,
            "time": 45.315721499999995,
            "velocity": 0.1732283464566929
          },
          {
            "duration": 0.1578944999999976,
            "durationTicks": 96,
            "midi": 56,
            "name": "G#3",
            "ticks": 27648,
            "time": 45.473616,
            "velocity": 0.1732283464566929
          },
          {
            "duration": 0.1578944999999976,
            "durationTicks": 96,
            "midi": 56,
            "name": "G#3",
            "ticks": 27744,
            "time": 45.6315105,
            "velocity": 0.1732283464566929
          },
          {
            "duration": 0.1578945000000047,
            "durationTicks": 96,
            "midi": 56,
            "name": "G#3",
            "ticks": 27840,
            "time": 45.789404999999995,
            "velocity": 0.1732283464566929
          },
          {
            "duration": 0.1578944999999976,
            "durationTicks": 96,
            "midi": 56,
            "name": "G#3",
            "ticks": 27936,
            "time": 45.9472995,
            "velocity": 0.1732283464566929
          },
          {
            "duration": 0.1578944999999976,
            "durationTicks": 96,
            "midi": 56,
            "name": "G#3",
            "ticks": 28032,
            "time": 46.105194,
            "velocity": 0.1732283464566929
          },
          {
            "duration": 0.1578945000000047,
            "durationTicks": 96,
            "midi": 56,
            "name": "G#3",
            "ticks": 28128,
            "time": 46.263088499999995,
            "velocity": 0.1732283464566929
          },
          {
            "duration": 0.1578944999999976,
            "durationTicks": 96,
            "midi": 56,
            "name": "G#3",
            "ticks": 28224,
            "time": 46.420983,
            "velocity": 0.1732283464566929
          },
          {
            "duration": 0.1578944999999976,
            "durationTicks": 96,
            "midi": 56,
            "name": "G#3",
            "ticks": 28320,
            "time": 46.5788775,
            "velocity": 0.1732283464566929
          },
          {
            "duration": 0.1578945000000047,
            "durationTicks": 96,
            "midi": 54,
            "name": "F#3",
            "ticks": 28416,
            "time": 46.736771999999995,
            "velocity": 0.1732283464566929
          },
          {
            "duration": 0.1578944999999976,
            "durationTicks": 96,
            "midi": 54,
            "name": "F#3",
            "ticks": 28512,
            "time": 46.8946665,
            "velocity": 0.1732283464566929
          },
          {
            "duration": 0.1578944999999976,
            "durationTicks": 96,
            "midi": 54,
            "name": "F#3",
            "ticks": 28608,
            "time": 47.052561,
            "velocity": 0.1732283464566929
          },
          {
            "duration": 0.1578945000000047,
            "durationTicks": 96,
            "midi": 54,
            "name": "F#3",
            "ticks": 28704,
            "time": 47.210455499999995,
            "velocity": 0.1732283464566929
          },
          {
            "duration": 0.1578944999999976,
            "durationTicks": 96,
            "midi": 54,
            "name": "F#3",
            "ticks": 28800,
            "time": 47.36835,
            "velocity": 0.1732283464566929
          },
          {
            "duration": 0.1578944999999976,
            "durationTicks": 96,
            "midi": 54,
            "name": "F#3",
            "ticks": 28896,
            "time": 47.5262445,
            "velocity": 0.1732283464566929
          },
          {
            "duration": 0.1578945000000047,
            "durationTicks": 96,
            "midi": 54,
            "name": "F#3",
            "ticks": 28992,
            "time": 47.684138999999995,
            "velocity": 0.1732283464566929
          },
          {
            "duration": 0.1578944999999976,
            "durationTicks": 96,
            "midi": 54,
            "name": "F#3",
            "ticks": 29088,
            "time": 47.8420335,
            "velocity": 0.1732283464566929
          },
          {
            "duration": 0.1578944999999976,
            "durationTicks": 96,
            "midi": 52,
            "name": "E3",
            "ticks": 29184,
            "time": 47.999928,
            "velocity": 0.1732283464566929
          },
          {
            "duration": 0.1578945000000047,
            "durationTicks": 96,
            "midi": 52,
            "name": "E3",
            "ticks": 29280,
            "time": 48.157822499999995,
            "velocity": 0.1732283464566929
          },
          {
            "duration": 0.1578944999999976,
            "durationTicks": 96,
            "midi": 52,
            "name": "E3",
            "ticks": 29376,
            "time": 48.315717,
            "velocity": 0.1732283464566929
          },
          {
            "duration": 0.1578944999999976,
            "durationTicks": 96,
            "midi": 52,
            "name": "E3",
            "ticks": 29472,
            "time": 48.4736115,
            "velocity": 0.1732283464566929
          },
          {
            "duration": 0.1578945000000047,
            "durationTicks": 96,
            "midi": 52,
            "name": "E3",
            "ticks": 29568,
            "time": 48.631505999999995,
            "velocity": 0.1732283464566929
          },
          {
            "duration": 0.1578944999999976,
            "durationTicks": 96,
            "midi": 52,
            "name": "E3",
            "ticks": 29664,
            "time": 48.7894005,
            "velocity": 0.1732283464566929
          },
          {
            "duration": 0.1578944999999976,
            "durationTicks": 96,
            "midi": 52,
            "name": "E3",
            "ticks": 29760,
            "time": 48.947295,
            "velocity": 0.1732283464566929
          },
          {
            "duration": 0.1578945000000047,
            "durationTicks": 96,
            "midi": 52,
            "name": "E3",
            "ticks": 29856,
            "time": 49.105189499999994,
            "velocity": 0.1732283464566929
          },
          {
            "duration": 0.1578944999999976,
            "durationTicks": 96,
            "midi": 51,
            "name": "D#3",
            "ticks": 29952,
            "time": 49.263084,
            "velocity": 0.1732283464566929
          },
          {
            "duration": 0.1578944999999976,
            "durationTicks": 96,
            "midi": 51,
            "name": "D#3",
            "ticks": 30048,
            "time": 49.4209785,
            "velocity": 0.1732283464566929
          },
          {
            "duration": 0.1578945000000047,
            "durationTicks": 96,
            "midi": 51,
            "name": "D#3",
            "ticks": 30144,
            "time": 49.578872999999994,
            "velocity": 0.1732283464566929
          },
          {
            "duration": 0.1578944999999976,
            "durationTicks": 96,
            "midi": 51,
            "name": "D#3",
            "ticks": 30240,
            "time": 49.7367675,
            "velocity": 0.1732283464566929
          },
          {
            "duration": 0.1578944999999976,
            "durationTicks": 96,
            "midi": 51,
            "name": "D#3",
            "ticks": 30336,
            "time": 49.894662,
            "velocity": 0.1732283464566929
          },
          {
            "duration": 0.1578945000000047,
            "durationTicks": 96,
            "midi": 51,
            "name": "D#3",
            "ticks": 30432,
            "time": 50.052556499999994,
            "velocity": 0.1732283464566929
          },
          {
            "duration": 0.1578944999999976,
            "durationTicks": 96,
            "midi": 51,
            "name": "D#3",
            "ticks": 30528,
            "time": 50.210451,
            "velocity": 0.1732283464566929
          },
          {
            "duration": 0.1578945000000047,
            "durationTicks": 96,
            "midi": 51,
            "name": "D#3",
            "ticks": 30624,
            "time": 50.3683455,
            "velocity": 0.1732283464566929
          },
          {
            "duration": 0.1578944999999976,
            "durationTicks": 96,
            "midi": 47,
            "name": "B2",
            "ticks": 30720,
            "time": 50.52624,
            "velocity": 0.1732283464566929
          },
          {
            "duration": 0.1578944999999976,
            "durationTicks": 96,
            "midi": 47,
            "name": "B2",
            "ticks": 30816,
            "time": 50.6841345,
            "velocity": 0.1732283464566929
          },
          {
            "duration": 0.1578945000000047,
            "durationTicks": 96,
            "midi": 47,
            "name": "B2",
            "ticks": 30912,
            "time": 50.842029,
            "velocity": 0.1732283464566929
          },
          {
            "duration": 0.1578944999999976,
            "durationTicks": 96,
            "midi": 47,
            "name": "B2",
            "ticks": 31008,
            "time": 50.9999235,
            "velocity": 0.1732283464566929
          },
          {
            "duration": 0.1578944999999976,
            "durationTicks": 96,
            "midi": 47,
            "name": "B2",
            "ticks": 31104,
            "time": 51.157818,
            "velocity": 0.1732283464566929
          },
          {
            "duration": 0.1578945000000047,
            "durationTicks": 96,
            "midi": 47,
            "name": "B2",
            "ticks": 31200,
            "time": 51.3157125,
            "velocity": 0.1732283464566929
          },
          {
            "duration": 0.1578944999999976,
            "durationTicks": 96,
            "midi": 47,
            "name": "B2",
            "ticks": 31296,
            "time": 51.473607,
            "velocity": 0.1732283464566929
          },
          {
            "duration": 0.1578944999999976,
            "durationTicks": 96,
            "midi": 47,
            "name": "B2",
            "ticks": 31392,
            "time": 51.6315015,
            "velocity": 0.1732283464566929
          },
          {
            "duration": 0.1578945000000047,
            "durationTicks": 96,
            "midi": 49,
            "name": "C#3",
            "ticks": 31488,
            "time": 51.789395999999996,
            "velocity": 0.1732283464566929
          },
          {
            "duration": 0.1578944999999976,
            "durationTicks": 96,
            "midi": 49,
            "name": "C#3",
            "ticks": 31584,
            "time": 51.9472905,
            "velocity": 0.1732283464566929
          },
          {
            "duration": 0.1578944999999976,
            "durationTicks": 96,
            "midi": 49,
            "name": "C#3",
            "ticks": 31680,
            "time": 52.105185,
            "velocity": 0.1732283464566929
          },
          {
            "duration": 0.1578945000000047,
            "durationTicks": 96,
            "midi": 49,
            "name": "C#3",
            "ticks": 31776,
            "time": 52.263079499999996,
            "velocity": 0.1732283464566929
          },
          {
            "duration": 0.1578944999999976,
            "durationTicks": 96,
            "midi": 49,
            "name": "C#3",
            "ticks": 31872,
            "time": 52.420974,
            "velocity": 0.1732283464566929
          },
          {
            "duration": 0.1578944999999976,
            "durationTicks": 96,
            "midi": 49,
            "name": "C#3",
            "ticks": 31968,
            "time": 52.5788685,
            "velocity": 0.1732283464566929
          },
          {
            "duration": 0.1578945000000047,
            "durationTicks": 96,
            "midi": 49,
            "name": "C#3",
            "ticks": 32064,
            "time": 52.736762999999996,
            "velocity": 0.1732283464566929
          },
          {
            "duration": 0.1578944999999976,
            "durationTicks": 96,
            "midi": 49,
            "name": "C#3",
            "ticks": 32160,
            "time": 52.8946575,
            "velocity": 0.1732283464566929
          },
          {
            "duration": 0.1578944999999976,
            "durationTicks": 96,
            "midi": 51,
            "name": "D#3",
            "ticks": 32256,
            "time": 53.052552,
            "velocity": 0.1732283464566929
          },
          {
            "duration": 0.1578945000000047,
            "durationTicks": 96,
            "midi": 51,
            "name": "D#3",
            "ticks": 32352,
            "time": 53.210446499999996,
            "velocity": 0.1732283464566929
          },
          {
            "duration": 0.1578944999999976,
            "durationTicks": 96,
            "midi": 51,
            "name": "D#3",
            "ticks": 32448,
            "time": 53.368341,
            "velocity": 0.1732283464566929
          },
          {
            "duration": 0.1578944999999976,
            "durationTicks": 96,
            "midi": 51,
            "name": "D#3",
            "ticks": 32544,
            "time": 53.5262355,
            "velocity": 0.1732283464566929
          },
          {
            "duration": 0.1578945000000047,
            "durationTicks": 96,
            "midi": 51,
            "name": "D#3",
            "ticks": 32640,
            "time": 53.684129999999996,
            "velocity": 0.1732283464566929
          },
          {
            "duration": 0.1578944999999976,
            "durationTicks": 96,
            "midi": 51,
            "name": "D#3",
            "ticks": 32736,
            "time": 53.8420245,
            "velocity": 0.1732283464566929
          },
          {
            "duration": 0.1578944999999976,
            "durationTicks": 96,
            "midi": 51,
            "name": "D#3",
            "ticks": 32832,
            "time": 53.999919,
            "velocity": 0.1732283464566929
          },
          {
            "duration": 0.1578945000000047,
            "durationTicks": 96,
            "midi": 51,
            "name": "D#3",
            "ticks": 32928,
            "time": 54.157813499999996,
            "velocity": 0.1732283464566929
          },
          {
            "duration": 0.1578944999999976,
            "durationTicks": 96,
            "midi": 46,
            "name": "A#2",
            "ticks": 33024,
            "time": 54.315708,
            "velocity": 0.1732283464566929
          },
          {
            "duration": 0.1578944999999976,
            "durationTicks": 96,
            "midi": 46,
            "name": "A#2",
            "ticks": 33024,
            "time": 54.315708,
            "velocity": 0.1732283464566929
          },
          {
            "duration": 0.1578944999999976,
            "durationTicks": 96,
            "midi": 46,
            "name": "A#2",
            "ticks": 33120,
            "time": 54.4736025,
            "velocity": 0.1732283464566929
          },
          {
            "duration": 0.1578944999999976,
            "durationTicks": 96,
            "midi": 46,
            "name": "A#2",
            "ticks": 33120,
            "time": 54.4736025,
            "velocity": 0.1732283464566929
          },
          {
            "duration": 0.1578945000000047,
            "durationTicks": 96,
            "midi": 46,
            "name": "A#2",
            "ticks": 33216,
            "time": 54.631496999999996,
            "velocity": 0.1732283464566929
          },
          {
            "duration": 0.1578945000000047,
            "durationTicks": 96,
            "midi": 46,
            "name": "A#2",
            "ticks": 33216,
            "time": 54.631496999999996,
            "velocity": 0.1732283464566929
          },
          {
            "duration": 0.1578944999999976,
            "durationTicks": 96,
            "midi": 46,
            "name": "A#2",
            "ticks": 33312,
            "time": 54.7893915,
            "velocity": 0.1732283464566929
          },
          {
            "duration": 0.1578944999999976,
            "durationTicks": 96,
            "midi": 46,
            "name": "A#2",
            "ticks": 33312,
            "time": 54.7893915,
            "velocity": 0.1732283464566929
          },
          {
            "duration": 0.1578944999999976,
            "durationTicks": 96,
            "midi": 46,
            "name": "A#2",
            "ticks": 33408,
            "time": 54.947286,
            "velocity": 0.1732283464566929
          },
          {
            "duration": 0.1578944999999976,
            "durationTicks": 96,
            "midi": 46,
            "name": "A#2",
            "ticks": 33408,
            "time": 54.947286,
            "velocity": 0.1732283464566929
          },
          {
            "duration": 0.1578945000000047,
            "durationTicks": 96,
            "midi": 46,
            "name": "A#2",
            "ticks": 33504,
            "time": 55.105180499999996,
            "velocity": 0.1732283464566929
          },
          {
            "duration": 0.1578945000000047,
            "durationTicks": 96,
            "midi": 46,
            "name": "A#2",
            "ticks": 33504,
            "time": 55.105180499999996,
            "velocity": 0.1732283464566929
          },
          {
            "duration": 0.1578944999999976,
            "durationTicks": 96,
            "midi": 46,
            "name": "A#2",
            "ticks": 33600,
            "time": 55.263075,
            "velocity": 0.1732283464566929
          },
          {
            "duration": 0.1578944999999976,
            "durationTicks": 96,
            "midi": 46,
            "name": "A#2",
            "ticks": 33600,
            "time": 55.263075,
            "velocity": 0.1732283464566929
          },
          {
            "duration": 0.1578944999999976,
            "durationTicks": 96,
            "midi": 46,
            "name": "A#2",
            "ticks": 33696,
            "time": 55.4209695,
            "velocity": 0.1732283464566929
          },
          {
            "duration": 0.1578944999999976,
            "durationTicks": 96,
            "midi": 46,
            "name": "A#2",
            "ticks": 33696,
            "time": 55.4209695,
            "velocity": 0.1732283464566929
          },
          {
            "duration": 0.1578945000000047,
            "durationTicks": 96,
            "midi": 56,
            "name": "G#3",
            "ticks": 33792,
            "time": 55.578863999999996,
            "velocity": 0.1732283464566929
          },
          {
            "duration": 0.1578944999999976,
            "durationTicks": 96,
            "midi": 56,
            "name": "G#3",
            "ticks": 33888,
            "time": 55.7367585,
            "velocity": 0.1732283464566929
          },
          {
            "duration": 0.1578944999999976,
            "durationTicks": 96,
            "midi": 56,
            "name": "G#3",
            "ticks": 33984,
            "time": 55.894653,
            "velocity": 0.1732283464566929
          },
          {
            "duration": 0.1578945000000047,
            "durationTicks": 96,
            "midi": 56,
            "name": "G#3",
            "ticks": 34080,
            "time": 56.052547499999996,
            "velocity": 0.1732283464566929
          },
          {
            "duration": 0.1578944999999976,
            "durationTicks": 96,
            "midi": 56,
            "name": "G#3",
            "ticks": 34176,
            "time": 56.210442,
            "velocity": 0.1732283464566929
          },
          {
            "duration": 0.1578944999999976,
            "durationTicks": 96,
            "midi": 56,
            "name": "G#3",
            "ticks": 34272,
            "time": 56.3683365,
            "velocity": 0.1732283464566929
          },
          {
            "duration": 0.1578945000000047,
            "durationTicks": 96,
            "midi": 56,
            "name": "G#3",
            "ticks": 34368,
            "time": 56.526230999999996,
            "velocity": 0.1732283464566929
          },
          {
            "duration": 0.1578944999999976,
            "durationTicks": 96,
            "midi": 56,
            "name": "G#3",
            "ticks": 34464,
            "time": 56.6841255,
            "velocity": 0.1732283464566929
          },
          {
            "duration": 0.1578944999999976,
            "durationTicks": 96,
            "midi": 54,
            "name": "F#3",
            "ticks": 34560,
            "time": 56.84202,
            "velocity": 0.1732283464566929
          },
          {
            "duration": 0.1578945000000047,
            "durationTicks": 96,
            "midi": 54,
            "name": "F#3",
            "ticks": 34656,
            "time": 56.999914499999996,
            "velocity": 0.1732283464566929
          },
          {
            "duration": 0.1578944999999976,
            "durationTicks": 96,
            "midi": 54,
            "name": "F#3",
            "ticks": 34752,
            "time": 57.157809,
            "velocity": 0.1732283464566929
          },
          {
            "duration": 0.1578944999999976,
            "durationTicks": 96,
            "midi": 54,
            "name": "F#3",
            "ticks": 34848,
            "time": 57.3157035,
            "velocity": 0.1732283464566929
          },
          {
            "duration": 0.1578945000000047,
            "durationTicks": 96,
            "midi": 54,
            "name": "F#3",
            "ticks": 34944,
            "time": 57.473597999999996,
            "velocity": 0.1732283464566929
          },
          {
            "duration": 0.1578944999999976,
            "durationTicks": 96,
            "midi": 54,
            "name": "F#3",
            "ticks": 35040,
            "time": 57.6314925,
            "velocity": 0.1732283464566929
          },
          {
            "duration": 0.1578944999999976,
            "durationTicks": 96,
            "midi": 54,
            "name": "F#3",
            "ticks": 35136,
            "time": 57.789387,
            "velocity": 0.1732283464566929
          },
          {
            "duration": 0.1578945000000047,
            "durationTicks": 96,
            "midi": 54,
            "name": "F#3",
            "ticks": 35232,
            "time": 57.947281499999995,
            "velocity": 0.1732283464566929
          },
          {
            "duration": 0.1578944999999976,
            "durationTicks": 96,
            "midi": 52,
            "name": "E3",
            "ticks": 35328,
            "time": 58.105176,
            "velocity": 0.1732283464566929
          },
          {
            "duration": 0.1578944999999976,
            "durationTicks": 96,
            "midi": 52,
            "name": "E3",
            "ticks": 35424,
            "time": 58.2630705,
            "velocity": 0.1732283464566929
          },
          {
            "duration": 0.1578945000000047,
            "durationTicks": 96,
            "midi": 52,
            "name": "E3",
            "ticks": 35520,
            "time": 58.420964999999995,
            "velocity": 0.1732283464566929
          },
          {
            "duration": 0.1578944999999976,
            "durationTicks": 96,
            "midi": 52,
            "name": "E3",
            "ticks": 35616,
            "time": 58.5788595,
            "velocity": 0.1732283464566929
          },
          {
            "duration": 0.1578944999999976,
            "durationTicks": 96,
            "midi": 52,
            "name": "E3",
            "ticks": 35712,
            "time": 58.736754,
            "velocity": 0.1732283464566929
          },
          {
            "duration": 0.1578945000000047,
            "durationTicks": 96,
            "midi": 52,
            "name": "E3",
            "ticks": 35808,
            "time": 58.894648499999995,
            "velocity": 0.1732283464566929
          },
          {
            "duration": 0.1578944999999976,
            "durationTicks": 96,
            "midi": 52,
            "name": "E3",
            "ticks": 35904,
            "time": 59.052543,
            "velocity": 0.1732283464566929
          },
          {
            "duration": 0.1578944999999976,
            "durationTicks": 96,
            "midi": 52,
            "name": "E3",
            "ticks": 36000,
            "time": 59.2104375,
            "velocity": 0.1732283464566929
          },
          {
            "duration": 0.1578944999999976,
            "durationTicks": 96,
            "midi": 56,
            "name": "G#3",
            "ticks": 49152,
            "time": 80.841984,
            "velocity": 0.1732283464566929
          },
          {
            "duration": 0.1578944999999976,
            "durationTicks": 96,
            "midi": 56,
            "name": "G#3",
            "ticks": 49248,
            "time": 80.9998785,
            "velocity": 0.1732283464566929
          },
          {
            "duration": 0.15789450000001182,
            "durationTicks": 96,
            "midi": 56,
            "name": "G#3",
            "ticks": 49344,
            "time": 81.15777299999999,
            "velocity": 0.1732283464566929
          },
          {
            "duration": 0.1578944999999976,
            "durationTicks": 96,
            "midi": 56,
            "name": "G#3",
            "ticks": 49440,
            "time": 81.3156675,
            "velocity": 0.1732283464566929
          },
          {
            "duration": 0.1578944999999976,
            "durationTicks": 96,
            "midi": 56,
            "name": "G#3",
            "ticks": 49536,
            "time": 81.473562,
            "velocity": 0.1732283464566929
          },
          {
            "duration": 0.1578944999999976,
            "durationTicks": 96,
            "midi": 56,
            "name": "G#3",
            "ticks": 49632,
            "time": 81.6314565,
            "velocity": 0.1732283464566929
          },
          {
            "duration": 0.1578944999999976,
            "durationTicks": 96,
            "midi": 56,
            "name": "G#3",
            "ticks": 49728,
            "time": 81.789351,
            "velocity": 0.1732283464566929
          },
          {
            "duration": 0.1578944999999976,
            "durationTicks": 96,
            "midi": 56,
            "name": "G#3",
            "ticks": 49824,
            "time": 81.9472455,
            "velocity": 0.1732283464566929
          },
          {
            "duration": 0.15789450000001182,
            "durationTicks": 96,
            "midi": 58,
            "name": "A#3",
            "ticks": 49920,
            "time": 82.10513999999999,
            "velocity": 0.1732283464566929
          },
          {
            "duration": 0.1578944999999976,
            "durationTicks": 96,
            "midi": 58,
            "name": "A#3",
            "ticks": 50016,
            "time": 82.2630345,
            "velocity": 0.1732283464566929
          },
          {
            "duration": 0.1578944999999976,
            "durationTicks": 96,
            "midi": 58,
            "name": "A#3",
            "ticks": 50112,
            "time": 82.420929,
            "velocity": 0.1732283464566929
          },
          {
            "duration": 0.1578944999999976,
            "durationTicks": 96,
            "midi": 58,
            "name": "A#3",
            "ticks": 50208,
            "time": 82.5788235,
            "velocity": 0.1732283464566929
          },
          {
            "duration": 0.1578944999999976,
            "durationTicks": 96,
            "midi": 58,
            "name": "A#3",
            "ticks": 50304,
            "time": 82.736718,
            "velocity": 0.1732283464566929
          },
          {
            "duration": 0.1578944999999976,
            "durationTicks": 96,
            "midi": 58,
            "name": "A#3",
            "ticks": 50400,
            "time": 82.8946125,
            "velocity": 0.1732283464566929
          },
          {
            "duration": 0.15789450000001182,
            "durationTicks": 96,
            "midi": 58,
            "name": "A#3",
            "ticks": 50496,
            "time": 83.05250699999999,
            "velocity": 0.1732283464566929
          },
          {
            "duration": 0.1578944999999976,
            "durationTicks": 96,
            "midi": 58,
            "name": "A#3",
            "ticks": 50592,
            "time": 83.2104015,
            "velocity": 0.1732283464566929
          },
          {
            "duration": 0.1578944999999976,
            "durationTicks": 96,
            "midi": 56,
            "name": "G#3",
            "ticks": 50688,
            "time": 83.368296,
            "velocity": 0.1732283464566929
          },
          {
            "duration": 0.1578944999999976,
            "durationTicks": 96,
            "midi": 56,
            "name": "G#3",
            "ticks": 50784,
            "time": 83.5261905,
            "velocity": 0.1732283464566929
          },
          {
            "duration": 0.1578944999999976,
            "durationTicks": 96,
            "midi": 56,
            "name": "G#3",
            "ticks": 50880,
            "time": 83.684085,
            "velocity": 0.1732283464566929
          },
          {
            "duration": 0.1578944999999976,
            "durationTicks": 96,
            "midi": 56,
            "name": "G#3",
            "ticks": 50976,
            "time": 83.8419795,
            "velocity": 0.1732283464566929
          },
          {
            "duration": 0.15789450000001182,
            "durationTicks": 96,
            "midi": 56,
            "name": "G#3",
            "ticks": 51072,
            "time": 83.99987399999999,
            "velocity": 0.1732283464566929
          },
          {
            "duration": 0.1578944999999976,
            "durationTicks": 96,
            "midi": 56,
            "name": "G#3",
            "ticks": 51168,
            "time": 84.1577685,
            "velocity": 0.1732283464566929
          },
          {
            "duration": 0.1578944999999976,
            "durationTicks": 96,
            "midi": 56,
            "name": "G#3",
            "ticks": 51264,
            "time": 84.315663,
            "velocity": 0.1732283464566929
          },
          {
            "duration": 0.1578944999999976,
            "durationTicks": 96,
            "midi": 56,
            "name": "G#3",
            "ticks": 51360,
            "time": 84.4735575,
            "velocity": 0.1732283464566929
          },
          {
            "duration": 0.1578944999999976,
            "durationTicks": 96,
            "midi": 58,
            "name": "A#3",
            "ticks": 51456,
            "time": 84.631452,
            "velocity": 0.1732283464566929
          },
          {
            "duration": 0.1578944999999976,
            "durationTicks": 96,
            "midi": 58,
            "name": "A#3",
            "ticks": 51552,
            "time": 84.7893465,
            "velocity": 0.1732283464566929
          },
          {
            "duration": 0.15789450000001182,
            "durationTicks": 96,
            "midi": 58,
            "name": "A#3",
            "ticks": 51648,
            "time": 84.94724099999999,
            "velocity": 0.1732283464566929
          },
          {
            "duration": 0.1578944999999976,
            "durationTicks": 96,
            "midi": 58,
            "name": "A#3",
            "ticks": 51744,
            "time": 85.1051355,
            "velocity": 0.1732283464566929
          },
          {
            "duration": 0.1578944999999976,
            "durationTicks": 96,
            "midi": 58,
            "name": "A#3",
            "ticks": 51840,
            "time": 85.26303,
            "velocity": 0.1732283464566929
          },
          {
            "duration": 0.1578944999999976,
            "durationTicks": 96,
            "midi": 58,
            "name": "A#3",
            "ticks": 51936,
            "time": 85.4209245,
            "velocity": 0.1732283464566929
          },
          {
            "duration": 0.1578944999999976,
            "durationTicks": 96,
            "midi": 58,
            "name": "A#3",
            "ticks": 52032,
            "time": 85.578819,
            "velocity": 0.1732283464566929
          },
          {
            "duration": 0.1578944999999976,
            "durationTicks": 96,
            "midi": 58,
            "name": "A#3",
            "ticks": 52128,
            "time": 85.7367135,
            "velocity": 0.1732283464566929
          },
          {
            "duration": 0.15789450000001182,
            "durationTicks": 96,
            "midi": 56,
            "name": "G#3",
            "ticks": 52224,
            "time": 85.89460799999999,
            "velocity": 0.1732283464566929
          },
          {
            "duration": 0.15789450000001182,
            "durationTicks": 96,
            "midi": 63,
            "name": "D#4",
            "ticks": 52224,
            "time": 85.89460799999999,
            "velocity": 0.1732283464566929
          },
          {
            "duration": 0.1578944999999976,
            "durationTicks": 96,
            "midi": 56,
            "name": "G#3",
            "ticks": 52320,
            "time": 86.0525025,
            "velocity": 0.1732283464566929
          },
          {
            "duration": 0.1578944999999976,
            "durationTicks": 96,
            "midi": 63,
            "name": "D#4",
            "ticks": 52320,
            "time": 86.0525025,
            "velocity": 0.1732283464566929
          },
          {
            "duration": 0.1578944999999976,
            "durationTicks": 96,
            "midi": 63,
            "name": "D#4",
            "ticks": 52416,
            "time": 86.210397,
            "velocity": 0.1732283464566929
          },
          {
            "duration": 0.1578944999999976,
            "durationTicks": 96,
            "midi": 56,
            "name": "G#3",
            "ticks": 52416,
            "time": 86.210397,
            "velocity": 0.1732283464566929
          },
          {
            "duration": 0.1578944999999976,
            "durationTicks": 96,
            "midi": 63,
            "name": "D#4",
            "ticks": 52512,
            "time": 86.3682915,
            "velocity": 0.1732283464566929
          },
          {
            "duration": 0.1578944999999976,
            "durationTicks": 96,
            "midi": 56,
            "name": "G#3",
            "ticks": 52512,
            "time": 86.3682915,
            "velocity": 0.1732283464566929
          },
          {
            "duration": 0.1578944999999976,
            "durationTicks": 96,
            "midi": 63,
            "name": "D#4",
            "ticks": 52608,
            "time": 86.526186,
            "velocity": 0.1732283464566929
          },
          {
            "duration": 0.1578944999999976,
            "durationTicks": 96,
            "midi": 56,
            "name": "G#3",
            "ticks": 52608,
            "time": 86.526186,
            "velocity": 0.1732283464566929
          },
          {
            "duration": 0.1578944999999976,
            "durationTicks": 96,
            "midi": 56,
            "name": "G#3",
            "ticks": 52704,
            "time": 86.6840805,
            "velocity": 0.1732283464566929
          },
          {
            "duration": 0.1578944999999976,
            "durationTicks": 96,
            "midi": 63,
            "name": "D#4",
            "ticks": 52704,
            "time": 86.6840805,
            "velocity": 0.1732283464566929
          },
          {
            "duration": 0.15789450000001182,
            "durationTicks": 96,
            "midi": 56,
            "name": "G#3",
            "ticks": 52800,
            "time": 86.84197499999999,
            "velocity": 0.1732283464566929
          },
          {
            "duration": 0.15789450000001182,
            "durationTicks": 96,
            "midi": 63,
            "name": "D#4",
            "ticks": 52800,
            "time": 86.84197499999999,
            "velocity": 0.1732283464566929
          },
          {
            "duration": 0.1578944999999976,
            "durationTicks": 96,
            "midi": 56,
            "name": "G#3",
            "ticks": 52896,
            "time": 86.9998695,
            "velocity": 0.1732283464566929
          },
          {
            "duration": 0.1578944999999976,
            "durationTicks": 96,
            "midi": 63,
            "name": "D#4",
            "ticks": 52896,
            "time": 86.9998695,
            "velocity": 0.1732283464566929
          },
          {
            "duration": 0.1578944999999976,
            "durationTicks": 96,
            "midi": 61,
            "name": "C#4",
            "ticks": 52992,
            "time": 87.157764,
            "velocity": 0.1732283464566929
          },
          {
            "duration": 0.1578944999999976,
            "durationTicks": 96,
            "midi": 58,
            "name": "A#3",
            "ticks": 52992,
            "time": 87.157764,
            "velocity": 0.1732283464566929
          },
          {
            "duration": 0.1578944999999976,
            "durationTicks": 96,
            "midi": 61,
            "name": "C#4",
            "ticks": 53088,
            "time": 87.3156585,
            "velocity": 0.1732283464566929
          },
          {
            "duration": 0.1578944999999976,
            "durationTicks": 96,
            "midi": 58,
            "name": "A#3",
            "ticks": 53088,
            "time": 87.3156585,
            "velocity": 0.1732283464566929
          },
          {
            "duration": 0.1578944999999976,
            "durationTicks": 96,
            "midi": 58,
            "name": "A#3",
            "ticks": 53184,
            "time": 87.473553,
            "velocity": 0.1732283464566929
          },
          {
            "duration": 0.1578944999999976,
            "durationTicks": 96,
            "midi": 61,
            "name": "C#4",
            "ticks": 53184,
            "time": 87.473553,
            "velocity": 0.1732283464566929
          },
          {
            "duration": 0.1578944999999976,
            "durationTicks": 96,
            "midi": 61,
            "name": "C#4",
            "ticks": 53280,
            "time": 87.6314475,
            "velocity": 0.1732283464566929
          },
          {
            "duration": 0.1578944999999976,
            "durationTicks": 96,
            "midi": 58,
            "name": "A#3",
            "ticks": 53280,
            "time": 87.6314475,
            "velocity": 0.1732283464566929
          },
          {
            "duration": 0.15789450000001182,
            "durationTicks": 96,
            "midi": 61,
            "name": "C#4",
            "ticks": 53376,
            "time": 87.78934199999999,
            "velocity": 0.1732283464566929
          },
          {
            "duration": 0.15789450000001182,
            "durationTicks": 96,
            "midi": 58,
            "name": "A#3",
            "ticks": 53376,
            "time": 87.78934199999999,
            "velocity": 0.1732283464566929
          },
          {
            "duration": 0.1578944999999976,
            "durationTicks": 96,
            "midi": 58,
            "name": "A#3",
            "ticks": 53472,
            "time": 87.9472365,
            "velocity": 0.1732283464566929
          },
          {
            "duration": 0.1578944999999976,
            "durationTicks": 96,
            "midi": 61,
            "name": "C#4",
            "ticks": 53472,
            "time": 87.9472365,
            "velocity": 0.1732283464566929
          },
          {
            "duration": 0.1578944999999976,
            "durationTicks": 96,
            "midi": 61,
            "name": "C#4",
            "ticks": 53568,
            "time": 88.105131,
            "velocity": 0.1732283464566929
          },
          {
            "duration": 0.1578944999999976,
            "durationTicks": 96,
            "midi": 58,
            "name": "A#3",
            "ticks": 53568,
            "time": 88.105131,
            "velocity": 0.1732283464566929
          },
          {
            "duration": 0.1578944999999976,
            "durationTicks": 96,
            "midi": 61,
            "name": "C#4",
            "ticks": 53664,
            "time": 88.2630255,
            "velocity": 0.1732283464566929
          },
          {
            "duration": 0.1578944999999976,
            "durationTicks": 96,
            "midi": 58,
            "name": "A#3",
            "ticks": 53664,
            "time": 88.2630255,
            "velocity": 0.1732283464566929
          },
          {
            "duration": 0.1578944999999976,
            "durationTicks": 96,
            "midi": 56,
            "name": "G#3",
            "ticks": 53760,
            "time": 88.42092,
            "velocity": 0.1732283464566929
          },
          {
            "duration": 0.1578944999999976,
            "durationTicks": 96,
            "midi": 59,
            "name": "B3",
            "ticks": 53760,
            "time": 88.42092,
            "velocity": 0.1732283464566929
          },
          {
            "duration": 0.1578944999999976,
            "durationTicks": 96,
            "midi": 59,
            "name": "B3",
            "ticks": 53856,
            "time": 88.5788145,
            "velocity": 0.1732283464566929
          },
          {
            "duration": 0.1578944999999976,
            "durationTicks": 96,
            "midi": 56,
            "name": "G#3",
            "ticks": 53856,
            "time": 88.5788145,
            "velocity": 0.1732283464566929
          },
          {
            "duration": 0.15789450000001182,
            "durationTicks": 96,
            "midi": 56,
            "name": "G#3",
            "ticks": 53952,
            "time": 88.73670899999999,
            "velocity": 0.1732283464566929
          },
          {
            "duration": 0.15789450000001182,
            "durationTicks": 96,
            "midi": 59,
            "name": "B3",
            "ticks": 53952,
            "time": 88.73670899999999,
            "velocity": 0.1732283464566929
          },
          {
            "duration": 0.1578944999999976,
            "durationTicks": 96,
            "midi": 59,
            "name": "B3",
            "ticks": 54048,
            "time": 88.8946035,
            "velocity": 0.1732283464566929
          },
          {
            "duration": 0.1578944999999976,
            "durationTicks": 96,
            "midi": 56,
            "name": "G#3",
            "ticks": 54048,
            "time": 88.8946035,
            "velocity": 0.1732283464566929
          },
          {
            "duration": 0.1578944999999976,
            "durationTicks": 96,
            "midi": 59,
            "name": "B3",
            "ticks": 54144,
            "time": 89.052498,
            "velocity": 0.1732283464566929
          },
          {
            "duration": 0.1578944999999976,
            "durationTicks": 96,
            "midi": 56,
            "name": "G#3",
            "ticks": 54144,
            "time": 89.052498,
            "velocity": 0.1732283464566929
          },
          {
            "duration": 0.1578944999999976,
            "durationTicks": 96,
            "midi": 59,
            "name": "B3",
            "ticks": 54240,
            "time": 89.2103925,
            "velocity": 0.1732283464566929
          },
          {
            "duration": 0.1578944999999976,
            "durationTicks": 96,
            "midi": 56,
            "name": "G#3",
            "ticks": 54240,
            "time": 89.2103925,
            "velocity": 0.1732283464566929
          },
          {
            "duration": 0.1578944999999976,
            "durationTicks": 96,
            "midi": 56,
            "name": "G#3",
            "ticks": 54336,
            "time": 89.368287,
            "velocity": 0.1732283464566929
          },
          {
            "duration": 0.1578944999999976,
            "durationTicks": 96,
            "midi": 59,
            "name": "B3",
            "ticks": 54336,
            "time": 89.368287,
            "velocity": 0.1732283464566929
          },
          {
            "duration": 0.1578944999999976,
            "durationTicks": 96,
            "midi": 56,
            "name": "G#3",
            "ticks": 54432,
            "time": 89.52618149999999,
            "velocity": 0.1732283464566929
          },
          {
            "duration": 0.1578944999999976,
            "durationTicks": 96,
            "midi": 59,
            "name": "B3",
            "ticks": 54432,
            "time": 89.52618149999999,
            "velocity": 0.1732283464566929
          },
          {
            "duration": 0.15789450000001182,
            "durationTicks": 96,
            "midi": 61,
            "name": "C#4",
            "ticks": 54528,
            "time": 89.68407599999999,
            "velocity": 0.1732283464566929
          },
          {
            "duration": 0.15789450000001182,
            "durationTicks": 96,
            "midi": 58,
            "name": "A#3",
            "ticks": 54528,
            "time": 89.68407599999999,
            "velocity": 0.1732283464566929
          },
          {
            "duration": 0.1578944999999976,
            "durationTicks": 96,
            "midi": 61,
            "name": "C#4",
            "ticks": 54624,
            "time": 89.8419705,
            "velocity": 0.1732283464566929
          },
          {
            "duration": 0.1578944999999976,
            "durationTicks": 96,
            "midi": 58,
            "name": "A#3",
            "ticks": 54624,
            "time": 89.8419705,
            "velocity": 0.1732283464566929
          },
          {
            "duration": 0.1578944999999976,
            "durationTicks": 96,
            "midi": 58,
            "name": "A#3",
            "ticks": 54720,
            "time": 89.999865,
            "velocity": 0.1732283464566929
          },
          {
            "duration": 0.1578944999999976,
            "durationTicks": 96,
            "midi": 61,
            "name": "C#4",
            "ticks": 54720,
            "time": 89.999865,
            "velocity": 0.1732283464566929
          },
          {
            "duration": 0.1578944999999976,
            "durationTicks": 96,
            "midi": 61,
            "name": "C#4",
            "ticks": 54816,
            "time": 90.1577595,
            "velocity": 0.1732283464566929
          },
          {
            "duration": 0.1578944999999976,
            "durationTicks": 96,
            "midi": 58,
            "name": "A#3",
            "ticks": 54816,
            "time": 90.1577595,
            "velocity": 0.1732283464566929
          },
          {
            "duration": 0.1578944999999976,
            "durationTicks": 96,
            "midi": 58,
            "name": "A#3",
            "ticks": 54912,
            "time": 90.315654,
            "velocity": 0.1732283464566929
          },
          {
            "duration": 0.1578944999999976,
            "durationTicks": 96,
            "midi": 61,
            "name": "C#4",
            "ticks": 54912,
            "time": 90.315654,
            "velocity": 0.1732283464566929
          },
          {
            "duration": 0.1578944999999976,
            "durationTicks": 96,
            "midi": 61,
            "name": "C#4",
            "ticks": 55008,
            "time": 90.47354849999999,
            "velocity": 0.1732283464566929
          },
          {
            "duration": 0.1578944999999976,
            "durationTicks": 96,
            "midi": 58,
            "name": "A#3",
            "ticks": 55008,
            "time": 90.47354849999999,
            "velocity": 0.1732283464566929
          },
          {
            "duration": 0.15789450000001182,
            "durationTicks": 96,
            "midi": 61,
            "name": "C#4",
            "ticks": 55104,
            "time": 90.63144299999999,
            "velocity": 0.1732283464566929
          },
          {
            "duration": 0.15789450000001182,
            "durationTicks": 96,
            "midi": 58,
            "name": "A#3",
            "ticks": 55104,
            "time": 90.63144299999999,
            "velocity": 0.1732283464566929
          },
          {
            "duration": 0.1578944999999976,
            "durationTicks": 96,
            "midi": 58,
            "name": "A#3",
            "ticks": 55200,
            "time": 90.7893375,
            "velocity": 0.1732283464566929
          },
          {
            "duration": 0.1578944999999976,
            "durationTicks": 96,
            "midi": 61,
            "name": "C#4",
            "ticks": 55200,
            "time": 90.7893375,
            "velocity": 0.1732283464566929
          },
          {
            "duration": 0.1578944999999976,
            "durationTicks": 96,
            "midi": 56,
            "name": "G#3",
            "ticks": 55296,
            "time": 90.947232,
            "velocity": 0.1732283464566929
          },
          {
            "duration": 0.1578944999999976,
            "durationTicks": 96,
            "midi": 56,
            "name": "G#3",
            "ticks": 55392,
            "time": 91.1051265,
            "velocity": 0.1732283464566929
          },
          {
            "duration": 0.1578944999999976,
            "durationTicks": 96,
            "midi": 56,
            "name": "G#3",
            "ticks": 55488,
            "time": 91.263021,
            "velocity": 0.1732283464566929
          },
          {
            "duration": 0.1578944999999976,
            "durationTicks": 96,
            "midi": 56,
            "name": "G#3",
            "ticks": 55584,
            "time": 91.42091549999999,
            "velocity": 0.1732283464566929
          },
          {
            "duration": 0.15789450000001182,
            "durationTicks": 96,
            "midi": 56,
            "name": "G#3",
            "ticks": 55680,
            "time": 91.57880999999999,
            "velocity": 0.1732283464566929
          },
          {
            "duration": 0.1578944999999976,
            "durationTicks": 96,
            "midi": 56,
            "name": "G#3",
            "ticks": 55776,
            "time": 91.7367045,
            "velocity": 0.1732283464566929
          },
          {
            "duration": 0.1578944999999976,
            "durationTicks": 96,
            "midi": 56,
            "name": "G#3",
            "ticks": 55872,
            "time": 91.894599,
            "velocity": 0.1732283464566929
          },
          {
            "duration": 0.1578944999999976,
            "durationTicks": 96,
            "midi": 56,
            "name": "G#3",
            "ticks": 55968,
            "time": 92.0524935,
            "velocity": 0.1732283464566929
          },
          {
            "duration": 0.1578944999999976,
            "durationTicks": 96,
            "midi": 58,
            "name": "A#3",
            "ticks": 56064,
            "time": 92.210388,
            "velocity": 0.1732283464566929
          },
          {
            "duration": 0.1578944999999976,
            "durationTicks": 96,
            "midi": 58,
            "name": "A#3",
            "ticks": 56160,
            "time": 92.36828249999999,
            "velocity": 0.1732283464566929
          },
          {
            "duration": 0.15789450000001182,
            "durationTicks": 96,
            "midi": 58,
            "name": "A#3",
            "ticks": 56256,
            "time": 92.52617699999999,
            "velocity": 0.1732283464566929
          },
          {
            "duration": 0.1578944999999976,
            "durationTicks": 96,
            "midi": 58,
            "name": "A#3",
            "ticks": 56352,
            "time": 92.6840715,
            "velocity": 0.1732283464566929
          },
          {
            "duration": 0.1578944999999976,
            "durationTicks": 96,
            "midi": 58,
            "name": "A#3",
            "ticks": 56448,
            "time": 92.841966,
            "velocity": 0.1732283464566929
          },
          {
            "duration": 0.1578944999999976,
            "durationTicks": 96,
            "midi": 58,
            "name": "A#3",
            "ticks": 56544,
            "time": 92.9998605,
            "velocity": 0.1732283464566929
          },
          {
            "duration": 0.1578944999999976,
            "durationTicks": 96,
            "midi": 58,
            "name": "A#3",
            "ticks": 56640,
            "time": 93.157755,
            "velocity": 0.1732283464566929
          },
          {
            "duration": 0.1578944999999976,
            "durationTicks": 96,
            "midi": 58,
            "name": "A#3",
            "ticks": 56736,
            "time": 93.31564949999999,
            "velocity": 0.1732283464566929
          },
          {
            "duration": 0.15789450000001182,
            "durationTicks": 96,
            "midi": 56,
            "name": "G#3",
            "ticks": 56832,
            "time": 93.47354399999999,
            "velocity": 0.1732283464566929
          },
          {
            "duration": 0.1578944999999976,
            "durationTicks": 96,
            "midi": 56,
            "name": "G#3",
            "ticks": 56928,
            "time": 93.6314385,
            "velocity": 0.1732283464566929
          },
          {
            "duration": 0.1578944999999976,
            "durationTicks": 96,
            "midi": 56,
            "name": "G#3",
            "ticks": 57024,
            "time": 93.789333,
            "velocity": 0.1732283464566929
          },
          {
            "duration": 0.1578944999999976,
            "durationTicks": 96,
            "midi": 56,
            "name": "G#3",
            "ticks": 57120,
            "time": 93.9472275,
            "velocity": 0.1732283464566929
          },
          {
            "duration": 0.1578944999999976,
            "durationTicks": 96,
            "midi": 56,
            "name": "G#3",
            "ticks": 57216,
            "time": 94.105122,
            "velocity": 0.1732283464566929
          },
          {
            "duration": 0.1578944999999976,
            "durationTicks": 96,
            "midi": 56,
            "name": "G#3",
            "ticks": 57312,
            "time": 94.26301649999999,
            "velocity": 0.1732283464566929
          },
          {
            "duration": 0.15789450000001182,
            "durationTicks": 96,
            "midi": 56,
            "name": "G#3",
            "ticks": 57408,
            "time": 94.42091099999999,
            "velocity": 0.1732283464566929
          },
          {
            "duration": 0.1578944999999976,
            "durationTicks": 96,
            "midi": 56,
            "name": "G#3",
            "ticks": 57504,
            "time": 94.5788055,
            "velocity": 0.1732283464566929
          },
          {
            "duration": 0.1578944999999976,
            "durationTicks": 96,
            "midi": 58,
            "name": "A#3",
            "ticks": 57600,
            "time": 94.7367,
            "velocity": 0.1732283464566929
          },
          {
            "duration": 0.1578944999999976,
            "durationTicks": 96,
            "midi": 58,
            "name": "A#3",
            "ticks": 57696,
            "time": 94.8945945,
            "velocity": 0.1732283464566929
          },
          {
            "duration": 0.1578944999999976,
            "durationTicks": 96,
            "midi": 58,
            "name": "A#3",
            "ticks": 57792,
            "time": 95.052489,
            "velocity": 0.1732283464566929
          },
          {
            "duration": 0.1578944999999976,
            "durationTicks": 96,
            "midi": 58,
            "name": "A#3",
            "ticks": 57888,
            "time": 95.21038349999999,
            "velocity": 0.1732283464566929
          },
          {
            "duration": 0.15789450000001182,
            "durationTicks": 96,
            "midi": 58,
            "name": "A#3",
            "ticks": 57984,
            "time": 95.36827799999999,
            "velocity": 0.1732283464566929
          },
          {
            "duration": 0.1578944999999976,
            "durationTicks": 96,
            "midi": 58,
            "name": "A#3",
            "ticks": 58080,
            "time": 95.5261725,
            "velocity": 0.1732283464566929
          },
          {
            "duration": 0.1578944999999976,
            "durationTicks": 96,
            "midi": 58,
            "name": "A#3",
            "ticks": 58176,
            "time": 95.684067,
            "velocity": 0.1732283464566929
          },
          {
            "duration": 0.1578944999999976,
            "durationTicks": 96,
            "midi": 58,
            "name": "A#3",
            "ticks": 58272,
            "time": 95.8419615,
            "velocity": 0.1732283464566929
          },
          {
            "duration": 0.1578944999999976,
            "durationTicks": 96,
            "midi": 63,
            "name": "D#4",
            "ticks": 58368,
            "time": 95.999856,
            "velocity": 0.1732283464566929
          },
          {
            "duration": 0.1578944999999976,
            "durationTicks": 96,
            "midi": 56,
            "name": "G#3",
            "ticks": 58368,
            "time": 95.999856,
            "velocity": 0.1732283464566929
          },
          {
            "duration": 0.1578944999999976,
            "durationTicks": 96,
            "midi": 56,
            "name": "G#3",
            "ticks": 58464,
            "time": 96.15775049999999,
            "velocity": 0.1732283464566929
          },
          {
            "duration": 0.1578944999999976,
            "durationTicks": 96,
            "midi": 63,
            "name": "D#4",
            "ticks": 58464,
            "time": 96.15775049999999,
            "velocity": 0.1732283464566929
          },
          {
            "duration": 0.15789450000001182,
            "durationTicks": 96,
            "midi": 63,
            "name": "D#4",
            "ticks": 58560,
            "time": 96.31564499999999,
            "velocity": 0.1732283464566929
          },
          {
            "duration": 0.15789450000001182,
            "durationTicks": 96,
            "midi": 56,
            "name": "G#3",
            "ticks": 58560,
            "time": 96.31564499999999,
            "velocity": 0.1732283464566929
          },
          {
            "duration": 0.1578944999999976,
            "durationTicks": 96,
            "midi": 56,
            "name": "G#3",
            "ticks": 58656,
            "time": 96.4735395,
            "velocity": 0.1732283464566929
          },
          {
            "duration": 0.1578944999999976,
            "durationTicks": 96,
            "midi": 63,
            "name": "D#4",
            "ticks": 58656,
            "time": 96.4735395,
            "velocity": 0.1732283464566929
          },
          {
            "duration": 0.1578944999999976,
            "durationTicks": 96,
            "midi": 56,
            "name": "G#3",
            "ticks": 58752,
            "time": 96.631434,
            "velocity": 0.1732283464566929
          },
          {
            "duration": 0.1578944999999976,
            "durationTicks": 96,
            "midi": 63,
            "name": "D#4",
            "ticks": 58752,
            "time": 96.631434,
            "velocity": 0.1732283464566929
          },
          {
            "duration": 0.1578944999999976,
            "durationTicks": 96,
            "midi": 63,
            "name": "D#4",
            "ticks": 58848,
            "time": 96.7893285,
            "velocity": 0.1732283464566929
          },
          {
            "duration": 0.1578944999999976,
            "durationTicks": 96,
            "midi": 56,
            "name": "G#3",
            "ticks": 58848,
            "time": 96.7893285,
            "velocity": 0.1732283464566929
          },
          {
            "duration": 0.1578944999999976,
            "durationTicks": 96,
            "midi": 63,
            "name": "D#4",
            "ticks": 58944,
            "time": 96.947223,
            "velocity": 0.1732283464566929
          },
          {
            "duration": 0.1578944999999976,
            "durationTicks": 96,
            "midi": 56,
            "name": "G#3",
            "ticks": 58944,
            "time": 96.947223,
            "velocity": 0.1732283464566929
          },
          {
            "duration": 0.1578944999999976,
            "durationTicks": 96,
            "midi": 56,
            "name": "G#3",
            "ticks": 59040,
            "time": 97.10511749999999,
            "velocity": 0.1732283464566929
          },
          {
            "duration": 0.1578944999999976,
            "durationTicks": 96,
            "midi": 63,
            "name": "D#4",
            "ticks": 59040,
            "time": 97.10511749999999,
            "velocity": 0.1732283464566929
          },
          {
            "duration": 0.15789450000001182,
            "durationTicks": 96,
            "midi": 58,
            "name": "A#3",
            "ticks": 59136,
            "time": 97.26301199999999,
            "velocity": 0.1732283464566929
          },
          {
            "duration": 0.15789450000001182,
            "durationTicks": 96,
            "midi": 61,
            "name": "C#4",
            "ticks": 59136,
            "time": 97.26301199999999,
            "velocity": 0.1732283464566929
          },
          {
            "duration": 0.1578944999999976,
            "durationTicks": 96,
            "midi": 61,
            "name": "C#4",
            "ticks": 59232,
            "time": 97.4209065,
            "velocity": 0.1732283464566929
          },
          {
            "duration": 0.1578944999999976,
            "durationTicks": 96,
            "midi": 58,
            "name": "A#3",
            "ticks": 59232,
            "time": 97.4209065,
            "velocity": 0.1732283464566929
          },
          {
            "duration": 0.1578944999999976,
            "durationTicks": 96,
            "midi": 61,
            "name": "C#4",
            "ticks": 59328,
            "time": 97.578801,
            "velocity": 0.1732283464566929
          },
          {
            "duration": 0.1578944999999976,
            "durationTicks": 96,
            "midi": 58,
            "name": "A#3",
            "ticks": 59328,
            "time": 97.578801,
            "velocity": 0.1732283464566929
          },
          {
            "duration": 0.1578944999999976,
            "durationTicks": 96,
            "midi": 61,
            "name": "C#4",
            "ticks": 59424,
            "time": 97.7366955,
            "velocity": 0.1732283464566929
          },
          {
            "duration": 0.1578944999999976,
            "durationTicks": 96,
            "midi": 58,
            "name": "A#3",
            "ticks": 59424,
            "time": 97.7366955,
            "velocity": 0.1732283464566929
          },
          {
            "duration": 0.1578944999999976,
            "durationTicks": 96,
            "midi": 58,
            "name": "A#3",
            "ticks": 59520,
            "time": 97.89459,
            "velocity": 0.1732283464566929
          },
          {
            "duration": 0.1578944999999976,
            "durationTicks": 96,
            "midi": 61,
            "name": "C#4",
            "ticks": 59520,
            "time": 97.89459,
            "velocity": 0.1732283464566929
          },
          {
            "duration": 0.1578944999999976,
            "durationTicks": 96,
            "midi": 58,
            "name": "A#3",
            "ticks": 59616,
            "time": 98.05248449999999,
            "velocity": 0.1732283464566929
          },
          {
            "duration": 0.1578944999999976,
            "durationTicks": 96,
            "midi": 61,
            "name": "C#4",
            "ticks": 59616,
            "time": 98.05248449999999,
            "velocity": 0.1732283464566929
          },
          {
            "duration": 0.15789450000001182,
            "durationTicks": 96,
            "midi": 58,
            "name": "A#3",
            "ticks": 59712,
            "time": 98.21037899999999,
            "velocity": 0.1732283464566929
          },
          {
            "duration": 0.15789450000001182,
            "durationTicks": 96,
            "midi": 61,
            "name": "C#4",
            "ticks": 59712,
            "time": 98.21037899999999,
            "velocity": 0.1732283464566929
          },
          {
            "duration": 0.1578944999999976,
            "durationTicks": 96,
            "midi": 58,
            "name": "A#3",
            "ticks": 59808,
            "time": 98.3682735,
            "velocity": 0.1732283464566929
          },
          {
            "duration": 0.1578944999999976,
            "durationTicks": 96,
            "midi": 61,
            "name": "C#4",
            "ticks": 59808,
            "time": 98.3682735,
            "velocity": 0.1732283464566929
          },
          {
            "duration": 0.1578944999999976,
            "durationTicks": 96,
            "midi": 56,
            "name": "G#3",
            "ticks": 59904,
            "time": 98.526168,
            "velocity": 0.1732283464566929
          },
          {
            "duration": 0.1578944999999976,
            "durationTicks": 96,
            "midi": 59,
            "name": "B3",
            "ticks": 59904,
            "time": 98.526168,
            "velocity": 0.1732283464566929
          },
          {
            "duration": 0.1578944999999976,
            "durationTicks": 96,
            "midi": 59,
            "name": "B3",
            "ticks": 60000,
            "time": 98.6840625,
            "velocity": 0.1732283464566929
          },
          {
            "duration": 0.1578944999999976,
            "durationTicks": 96,
            "midi": 56,
            "name": "G#3",
            "ticks": 60000,
            "time": 98.6840625,
            "velocity": 0.1732283464566929
          },
          {
            "duration": 0.1578944999999976,
            "durationTicks": 96,
            "midi": 59,
            "name": "B3",
            "ticks": 60096,
            "time": 98.841957,
            "velocity": 0.1732283464566929
          },
          {
            "duration": 0.1578944999999976,
            "durationTicks": 96,
            "midi": 56,
            "name": "G#3",
            "ticks": 60096,
            "time": 98.841957,
            "velocity": 0.1732283464566929
          },
          {
            "duration": 0.1578944999999976,
            "durationTicks": 96,
            "midi": 56,
            "name": "G#3",
            "ticks": 60192,
            "time": 98.99985149999999,
            "velocity": 0.1732283464566929
          },
          {
            "duration": 0.1578944999999976,
            "durationTicks": 96,
            "midi": 59,
            "name": "B3",
            "ticks": 60192,
            "time": 98.99985149999999,
            "velocity": 0.1732283464566929
          },
          {
            "duration": 0.15789450000001182,
            "durationTicks": 96,
            "midi": 56,
            "name": "G#3",
            "ticks": 60288,
            "time": 99.15774599999999,
            "velocity": 0.1732283464566929
          },
          {
            "duration": 0.15789450000001182,
            "durationTicks": 96,
            "midi": 59,
            "name": "B3",
            "ticks": 60288,
            "time": 99.15774599999999,
            "velocity": 0.1732283464566929
          },
          {
            "duration": 0.1578944999999976,
            "durationTicks": 96,
            "midi": 59,
            "name": "B3",
            "ticks": 60384,
            "time": 99.3156405,
            "velocity": 0.1732283464566929
          },
          {
            "duration": 0.1578944999999976,
            "durationTicks": 96,
            "midi": 56,
            "name": "G#3",
            "ticks": 60384,
            "time": 99.3156405,
            "velocity": 0.1732283464566929
          },
          {
            "duration": 0.1578944999999976,
            "durationTicks": 96,
            "midi": 56,
            "name": "G#3",
            "ticks": 60480,
            "time": 99.473535,
            "velocity": 0.1732283464566929
          },
          {
            "duration": 0.1578944999999976,
            "durationTicks": 96,
            "midi": 59,
            "name": "B3",
            "ticks": 60480,
            "time": 99.473535,
            "velocity": 0.1732283464566929
          },
          {
            "duration": 0.1578944999999976,
            "durationTicks": 96,
            "midi": 59,
            "name": "B3",
            "ticks": 60576,
            "time": 99.6314295,
            "velocity": 0.1732283464566929
          },
          {
            "duration": 0.1578944999999976,
            "durationTicks": 96,
            "midi": 56,
            "name": "G#3",
            "ticks": 60576,
            "time": 99.6314295,
            "velocity": 0.1732283464566929
          }
        ],
        "endOfTrackTicks": 60672
      },
      {
        "channel": 0,
        "controlChanges": {},
        "pitchBends": [],
        "instrument": {
          "family": "guitar",
          "number": 29,
          "name": "overdriven guitar"
        },
        "name": "Electric Guitar",
        "notes": [],
        "endOfTrackTicks": 4608
      },
      {
        "channel": 0,
        "controlChanges": {},
        "pitchBends": [],
        "instrument": {
          "family": "bass",
          "number": 32,
          "name": "acoustic bass"
        },
        "name": "Bass (Classic)",
        "notes": [],
        "endOfTrackTicks": 5376
      },
      {
        "channel": 0,
        "controlChanges": {},
        "pitchBends": [],
        "instrument": {
          "family": "synth lead",
          "number": 87,
          "name": "lead 8 (bass + lead)"
        },
        "name": "Synth Pluck",
        "notes": [],
        "endOfTrackTicks": 4224
      },
      {
        "channel": 0,
        "controlChanges": {},
        "pitchBends": [],
        "instrument": {
          "family": "synth effects",
          "number": 99,
          "name": "fx 4 (atmosphere)"
        },
        "name": "Scifi",
        "notes": [],
        "endOfTrackTicks": 5184
      },
      {
        "channel": 6,
        "controlChanges": {},
        "pitchBends": [],
        "instrument": {
          "family": "brass",
          "number": 57,
          "name": "trombone"
        },
        "name": "Trombone",
        "notes": [
          {
            "duration": 0.1578944999999976,
            "durationTicks": 96,
            "midi": 59,
            "name": "B3",
            "ticks": 49248,
            "time": 80.9998785,
            "velocity": 0.3937007874015748
          },
          {
            "duration": 0.1578944999999976,
            "durationTicks": 96,
            "midi": 59,
            "name": "B3",
            "ticks": 49440,
            "time": 81.3156675,
            "velocity": 0.3937007874015748
          },
          {
            "duration": 0.1578944999999976,
            "durationTicks": 96,
            "midi": 59,
            "name": "B3",
            "ticks": 49632,
            "time": 81.6314565,
            "velocity": 0.3937007874015748
          },
          {
            "duration": 0.1578944999999976,
            "durationTicks": 96,
            "midi": 59,
            "name": "B3",
            "ticks": 49824,
            "time": 81.9472455,
            "velocity": 0.3937007874015748
          },
          {
            "duration": 0.1578944999999976,
            "durationTicks": 96,
            "midi": 61,
            "name": "C#4",
            "ticks": 50016,
            "time": 82.2630345,
            "velocity": 0.3937007874015748
          },
          {
            "duration": 0.1578944999999976,
            "durationTicks": 96,
            "midi": 61,
            "name": "C#4",
            "ticks": 50208,
            "time": 82.5788235,
            "velocity": 0.3937007874015748
          },
          {
            "duration": 0.1578944999999976,
            "durationTicks": 96,
            "midi": 61,
            "name": "C#4",
            "ticks": 50400,
            "time": 82.8946125,
            "velocity": 0.3937007874015748
          },
          {
            "duration": 0.1578944999999976,
            "durationTicks": 96,
            "midi": 61,
            "name": "C#4",
            "ticks": 50592,
            "time": 83.2104015,
            "velocity": 0.3937007874015748
          },
          {
            "duration": 0.1578944999999976,
            "durationTicks": 96,
            "midi": 63,
            "name": "D#4",
            "ticks": 50784,
            "time": 83.5261905,
            "velocity": 0.3937007874015748
          },
          {
            "duration": 0.1578944999999976,
            "durationTicks": 96,
            "midi": 59,
            "name": "B3",
            "ticks": 50784,
            "time": 83.5261905,
            "velocity": 0.3937007874015748
          },
          {
            "duration": 0.1578944999999976,
            "durationTicks": 96,
            "midi": 63,
            "name": "D#4",
            "ticks": 50976,
            "time": 83.8419795,
            "velocity": 0.3937007874015748
          },
          {
            "duration": 0.1578944999999976,
            "durationTicks": 96,
            "midi": 59,
            "name": "B3",
            "ticks": 50976,
            "time": 83.8419795,
            "velocity": 0.3937007874015748
          },
          {
            "duration": 0.1578944999999976,
            "durationTicks": 96,
            "midi": 63,
            "name": "D#4",
            "ticks": 51168,
            "time": 84.1577685,
            "velocity": 0.3937007874015748
          },
          {
            "duration": 0.1578944999999976,
            "durationTicks": 96,
            "midi": 59,
            "name": "B3",
            "ticks": 51168,
            "time": 84.1577685,
            "velocity": 0.3937007874015748
          },
          {
            "duration": 0.1578944999999976,
            "durationTicks": 96,
            "midi": 63,
            "name": "D#4",
            "ticks": 51360,
            "time": 84.4735575,
            "velocity": 0.3937007874015748
          },
          {
            "duration": 0.1578944999999976,
            "durationTicks": 96,
            "midi": 59,
            "name": "B3",
            "ticks": 51360,
            "time": 84.4735575,
            "velocity": 0.3937007874015748
          },
          {
            "duration": 0.1578944999999976,
            "durationTicks": 96,
            "midi": 61,
            "name": "C#4",
            "ticks": 51552,
            "time": 84.7893465,
            "velocity": 0.3937007874015748
          },
          {
            "duration": 0.1578944999999976,
            "durationTicks": 96,
            "midi": 61,
            "name": "C#4",
            "ticks": 51744,
            "time": 85.1051355,
            "velocity": 0.3937007874015748
          },
          {
            "duration": 0.1578944999999976,
            "durationTicks": 96,
            "midi": 61,
            "name": "C#4",
            "ticks": 51936,
            "time": 85.4209245,
            "velocity": 0.3937007874015748
          },
          {
            "duration": 0.1578944999999976,
            "durationTicks": 96,
            "midi": 61,
            "name": "C#4",
            "ticks": 52128,
            "time": 85.7367135,
            "velocity": 0.3937007874015748
          },
          {
            "duration": 0.1578944999999976,
            "durationTicks": 96,
            "midi": 59,
            "name": "B3",
            "ticks": 52320,
            "time": 86.0525025,
            "velocity": 0.3937007874015748
          },
          {
            "duration": 0.1578944999999976,
            "durationTicks": 96,
            "midi": 59,
            "name": "B3",
            "ticks": 52512,
            "time": 86.3682915,
            "velocity": 0.3937007874015748
          },
          {
            "duration": 0.1578944999999976,
            "durationTicks": 96,
            "midi": 59,
            "name": "B3",
            "ticks": 52704,
            "time": 86.6840805,
            "velocity": 0.3937007874015748
          },
          {
            "duration": 0.1578944999999976,
            "durationTicks": 96,
            "midi": 59,
            "name": "B3",
            "ticks": 52896,
            "time": 86.9998695,
            "velocity": 0.3937007874015748
          },
          {
            "duration": 0.1578944999999976,
            "durationTicks": 96,
            "midi": 61,
            "name": "C#4",
            "ticks": 53088,
            "time": 87.3156585,
            "velocity": 0.3937007874015748
          },
          {
            "duration": 0.1578944999999976,
            "durationTicks": 96,
            "midi": 61,
            "name": "C#4",
            "ticks": 53280,
            "time": 87.6314475,
            "velocity": 0.3937007874015748
          },
          {
            "duration": 0.1578944999999976,
            "durationTicks": 96,
            "midi": 61,
            "name": "C#4",
            "ticks": 53472,
            "time": 87.9472365,
            "velocity": 0.3937007874015748
          },
          {
            "duration": 0.1578944999999976,
            "durationTicks": 96,
            "midi": 61,
            "name": "C#4",
            "ticks": 53664,
            "time": 88.2630255,
            "velocity": 0.3937007874015748
          },
          {
            "duration": 0.1578944999999976,
            "durationTicks": 96,
            "midi": 59,
            "name": "B3",
            "ticks": 53856,
            "time": 88.5788145,
            "velocity": 0.3937007874015748
          },
          {
            "duration": 0.1578944999999976,
            "durationTicks": 96,
            "midi": 63,
            "name": "D#4",
            "ticks": 53856,
            "time": 88.5788145,
            "velocity": 0.3937007874015748
          },
          {
            "duration": 0.1578944999999976,
            "durationTicks": 96,
            "midi": 59,
            "name": "B3",
            "ticks": 54048,
            "time": 88.8946035,
            "velocity": 0.3937007874015748
          },
          {
            "duration": 0.1578944999999976,
            "durationTicks": 96,
            "midi": 63,
            "name": "D#4",
            "ticks": 54048,
            "time": 88.8946035,
            "velocity": 0.3937007874015748
          },
          {
            "duration": 0.1578944999999976,
            "durationTicks": 96,
            "midi": 59,
            "name": "B3",
            "ticks": 54240,
            "time": 89.2103925,
            "velocity": 0.3937007874015748
          },
          {
            "duration": 0.1578944999999976,
            "durationTicks": 96,
            "midi": 63,
            "name": "D#4",
            "ticks": 54240,
            "time": 89.2103925,
            "velocity": 0.3937007874015748
          },
          {
            "duration": 0.1578944999999976,
            "durationTicks": 96,
            "midi": 63,
            "name": "D#4",
            "ticks": 54432,
            "time": 89.52618149999999,
            "velocity": 0.3937007874015748
          },
          {
            "duration": 0.1578944999999976,
            "durationTicks": 96,
            "midi": 59,
            "name": "B3",
            "ticks": 54432,
            "time": 89.52618149999999,
            "velocity": 0.3937007874015748
          },
          {
            "duration": 0.1578944999999976,
            "durationTicks": 96,
            "midi": 61,
            "name": "C#4",
            "ticks": 54624,
            "time": 89.8419705,
            "velocity": 0.3937007874015748
          },
          {
            "duration": 0.1578944999999976,
            "durationTicks": 96,
            "midi": 61,
            "name": "C#4",
            "ticks": 54816,
            "time": 90.1577595,
            "velocity": 0.3937007874015748
          },
          {
            "duration": 0.1578944999999976,
            "durationTicks": 96,
            "midi": 61,
            "name": "C#4",
            "ticks": 55008,
            "time": 90.47354849999999,
            "velocity": 0.3937007874015748
          },
          {
            "duration": 0.1578944999999976,
            "durationTicks": 96,
            "midi": 61,
            "name": "C#4",
            "ticks": 55200,
            "time": 90.7893375,
            "velocity": 0.3937007874015748
          },
          {
            "duration": 0.1578944999999976,
            "durationTicks": 96,
            "midi": 59,
            "name": "B3",
            "ticks": 55392,
            "time": 91.1051265,
            "velocity": 0.3937007874015748
          },
          {
            "duration": 0.1578944999999976,
            "durationTicks": 96,
            "midi": 59,
            "name": "B3",
            "ticks": 55584,
            "time": 91.42091549999999,
            "velocity": 0.3937007874015748
          },
          {
            "duration": 0.1578944999999976,
            "durationTicks": 96,
            "midi": 59,
            "name": "B3",
            "ticks": 55776,
            "time": 91.7367045,
            "velocity": 0.3937007874015748
          },
          {
            "duration": 0.1578944999999976,
            "durationTicks": 96,
            "midi": 59,
            "name": "B3",
            "ticks": 55968,
            "time": 92.0524935,
            "velocity": 0.3937007874015748
          },
          {
            "duration": 0.1578944999999976,
            "durationTicks": 96,
            "midi": 61,
            "name": "C#4",
            "ticks": 56160,
            "time": 92.36828249999999,
            "velocity": 0.3937007874015748
          },
          {
            "duration": 0.1578944999999976,
            "durationTicks": 96,
            "midi": 61,
            "name": "C#4",
            "ticks": 56352,
            "time": 92.6840715,
            "velocity": 0.3937007874015748
          },
          {
            "duration": 0.1578944999999976,
            "durationTicks": 96,
            "midi": 61,
            "name": "C#4",
            "ticks": 56544,
            "time": 92.9998605,
            "velocity": 0.3937007874015748
          },
          {
            "duration": 0.1578944999999976,
            "durationTicks": 96,
            "midi": 61,
            "name": "C#4",
            "ticks": 56736,
            "time": 93.31564949999999,
            "velocity": 0.3937007874015748
          },
          {
            "duration": 0.1578944999999976,
            "durationTicks": 96,
            "midi": 59,
            "name": "B3",
            "ticks": 56928,
            "time": 93.6314385,
            "velocity": 0.3937007874015748
          },
          {
            "duration": 0.1578944999999976,
            "durationTicks": 96,
            "midi": 63,
            "name": "D#4",
            "ticks": 56928,
            "time": 93.6314385,
            "velocity": 0.3937007874015748
          },
          {
            "duration": 0.1578944999999976,
            "durationTicks": 96,
            "midi": 59,
            "name": "B3",
            "ticks": 57120,
            "time": 93.9472275,
            "velocity": 0.3937007874015748
          },
          {
            "duration": 0.1578944999999976,
            "durationTicks": 96,
            "midi": 63,
            "name": "D#4",
            "ticks": 57120,
            "time": 93.9472275,
            "velocity": 0.3937007874015748
          },
          {
            "duration": 0.1578944999999976,
            "durationTicks": 96,
            "midi": 63,
            "name": "D#4",
            "ticks": 57312,
            "time": 94.26301649999999,
            "velocity": 0.3937007874015748
          },
          {
            "duration": 0.1578944999999976,
            "durationTicks": 96,
            "midi": 59,
            "name": "B3",
            "ticks": 57312,
            "time": 94.26301649999999,
            "velocity": 0.3937007874015748
          },
          {
            "duration": 0.1578944999999976,
            "durationTicks": 96,
            "midi": 63,
            "name": "D#4",
            "ticks": 57504,
            "time": 94.5788055,
            "velocity": 0.3937007874015748
          },
          {
            "duration": 0.1578944999999976,
            "durationTicks": 96,
            "midi": 59,
            "name": "B3",
            "ticks": 57504,
            "time": 94.5788055,
            "velocity": 0.3937007874015748
          },
          {
            "duration": 0.1578944999999976,
            "durationTicks": 96,
            "midi": 61,
            "name": "C#4",
            "ticks": 57696,
            "time": 94.8945945,
            "velocity": 0.3937007874015748
          },
          {
            "duration": 0.1578944999999976,
            "durationTicks": 96,
            "midi": 61,
            "name": "C#4",
            "ticks": 57888,
            "time": 95.21038349999999,
            "velocity": 0.3937007874015748
          },
          {
            "duration": 0.1578944999999976,
            "durationTicks": 96,
            "midi": 61,
            "name": "C#4",
            "ticks": 58080,
            "time": 95.5261725,
            "velocity": 0.3937007874015748
          },
          {
            "duration": 0.1578944999999976,
            "durationTicks": 96,
            "midi": 61,
            "name": "C#4",
            "ticks": 58272,
            "time": 95.8419615,
            "velocity": 0.3937007874015748
          },
          {
            "duration": 0.1578944999999976,
            "durationTicks": 96,
            "midi": 63,
            "name": "D#4",
            "ticks": 58464,
            "time": 96.15775049999999,
            "velocity": 0.3937007874015748
          },
          {
            "duration": 0.1578944999999976,
            "durationTicks": 96,
            "midi": 59,
            "name": "B3",
            "ticks": 58464,
            "time": 96.15775049999999,
            "velocity": 0.3937007874015748
          },
          {
            "duration": 0.1578944999999976,
            "durationTicks": 96,
            "midi": 63,
            "name": "D#4",
            "ticks": 58656,
            "time": 96.4735395,
            "velocity": 0.3937007874015748
          },
          {
            "duration": 0.1578944999999976,
            "durationTicks": 96,
            "midi": 59,
            "name": "B3",
            "ticks": 58656,
            "time": 96.4735395,
            "velocity": 0.3937007874015748
          },
          {
            "duration": 0.1578944999999976,
            "durationTicks": 96,
            "midi": 59,
            "name": "B3",
            "ticks": 58848,
            "time": 96.7893285,
            "velocity": 0.3937007874015748
          },
          {
            "duration": 0.1578944999999976,
            "durationTicks": 96,
            "midi": 63,
            "name": "D#4",
            "ticks": 58848,
            "time": 96.7893285,
            "velocity": 0.3937007874015748
          },
          {
            "duration": 0.1578944999999976,
            "durationTicks": 96,
            "midi": 63,
            "name": "D#4",
            "ticks": 59040,
            "time": 97.10511749999999,
            "velocity": 0.3937007874015748
          },
          {
            "duration": 0.1578944999999976,
            "durationTicks": 96,
            "midi": 59,
            "name": "B3",
            "ticks": 59040,
            "time": 97.10511749999999,
            "velocity": 0.3937007874015748
          },
          {
            "duration": 0.1578944999999976,
            "durationTicks": 96,
            "midi": 61,
            "name": "C#4",
            "ticks": 59232,
            "time": 97.4209065,
            "velocity": 0.3937007874015748
          },
          {
            "duration": 0.1578944999999976,
            "durationTicks": 96,
            "midi": 61,
            "name": "C#4",
            "ticks": 59424,
            "time": 97.7366955,
            "velocity": 0.3937007874015748
          },
          {
            "duration": 0.1578944999999976,
            "durationTicks": 96,
            "midi": 61,
            "name": "C#4",
            "ticks": 59616,
            "time": 98.05248449999999,
            "velocity": 0.3937007874015748
          },
          {
            "duration": 0.1578944999999976,
            "durationTicks": 96,
            "midi": 61,
            "name": "C#4",
            "ticks": 59808,
            "time": 98.3682735,
            "velocity": 0.3937007874015748
          },
          {
            "duration": 0.1578944999999976,
            "durationTicks": 96,
            "midi": 59,
            "name": "B3",
            "ticks": 60000,
            "time": 98.6840625,
            "velocity": 0.3937007874015748
          },
          {
            "duration": 0.1578944999999976,
            "durationTicks": 96,
            "midi": 59,
            "name": "B3",
            "ticks": 60192,
            "time": 98.99985149999999,
            "velocity": 0.3937007874015748
          },
          {
            "duration": 0.1578944999999976,
            "durationTicks": 96,
            "midi": 59,
            "name": "B3",
            "ticks": 60384,
            "time": 99.3156405,
            "velocity": 0.3937007874015748
          },
          {
            "duration": 0.1578944999999976,
            "durationTicks": 96,
            "midi": 59,
            "name": "B3",
            "ticks": 60576,
            "time": 99.6314295,
            "velocity": 0.3937007874015748
          }
        ],
        "endOfTrackTicks": 60672
      },
      {
        "channel": 7,
        "controlChanges": {},
        "pitchBends": [],
        "instrument": {
          "family": "synth lead",
          "number": 80,
          "name": "lead 1 (square)"
        },
        "name": "8-Bit Square",
        "notes": [
          {
            "duration": 0.0789472499999988,
            "durationTicks": 48,
            "midi": 44,
            "name": "G#2",
            "ticks": 12288,
            "time": 20.210496,
            "velocity": 0.16535433070866143
          },
          {
            "duration": 0.07894725000000236,
            "durationTicks": 48,
            "midi": 47,
            "name": "B2",
            "ticks": 12336,
            "time": 20.289443249999998,
            "velocity": 0.16535433070866143
          },
          {
            "duration": 0.0789472499999988,
            "durationTicks": 48,
            "midi": 52,
            "name": "E3",
            "ticks": 12384,
            "time": 20.3683905,
            "velocity": 0.16535433070866143
          },
          {
            "duration": 0.0789472499999988,
            "durationTicks": 48,
            "midi": 56,
            "name": "G#3",
            "ticks": 12432,
            "time": 20.44733775,
            "velocity": 0.16535433070866143
          },
          {
            "duration": 0.07894725000000236,
            "durationTicks": 48,
            "midi": 59,
            "name": "B3",
            "ticks": 12480,
            "time": 20.526284999999998,
            "velocity": 0.16535433070866143
          },
          {
            "duration": 0.0789472499999988,
            "durationTicks": 48,
            "midi": 56,
            "name": "G#3",
            "ticks": 12528,
            "time": 20.60523225,
            "velocity": 0.16535433070866143
          },
          {
            "duration": 0.0789472499999988,
            "durationTicks": 48,
            "midi": 52,
            "name": "E3",
            "ticks": 12576,
            "time": 20.6841795,
            "velocity": 0.16535433070866143
          },
          {
            "duration": 0.07894725000000236,
            "durationTicks": 48,
            "midi": 47,
            "name": "B2",
            "ticks": 12624,
            "time": 20.763126749999998,
            "velocity": 0.16535433070866143
          },
          {
            "duration": 0.0789472499999988,
            "durationTicks": 48,
            "midi": 44,
            "name": "G#2",
            "ticks": 12672,
            "time": 20.842074,
            "velocity": 0.16535433070866143
          },
          {
            "duration": 0.0789472499999988,
            "durationTicks": 48,
            "midi": 47,
            "name": "B2",
            "ticks": 12720,
            "time": 20.92102125,
            "velocity": 0.16535433070866143
          },
          {
            "duration": 0.07894725000000236,
            "durationTicks": 48,
            "midi": 52,
            "name": "E3",
            "ticks": 12768,
            "time": 20.999968499999998,
            "velocity": 0.16535433070866143
          },
          {
            "duration": 0.0789472499999988,
            "durationTicks": 48,
            "midi": 56,
            "name": "G#3",
            "ticks": 12816,
            "time": 21.07891575,
            "velocity": 0.16535433070866143
          },
          {
            "duration": 0.0789472499999988,
            "durationTicks": 48,
            "midi": 59,
            "name": "B3",
            "ticks": 12864,
            "time": 21.157863,
            "velocity": 0.16535433070866143
          },
          {
            "duration": 0.07894725000000236,
            "durationTicks": 48,
            "midi": 56,
            "name": "G#3",
            "ticks": 12912,
            "time": 21.236810249999998,
            "velocity": 0.16535433070866143
          },
          {
            "duration": 0.0789472499999988,
            "durationTicks": 48,
            "midi": 52,
            "name": "E3",
            "ticks": 12960,
            "time": 21.3157575,
            "velocity": 0.16535433070866143
          },
          {
            "duration": 0.0789472499999988,
            "durationTicks": 48,
            "midi": 47,
            "name": "B2",
            "ticks": 13008,
            "time": 21.39470475,
            "velocity": 0.16535433070866143
          },
          {
            "duration": 0.07894725000000236,
            "durationTicks": 48,
            "midi": 46,
            "name": "A#2",
            "ticks": 13056,
            "time": 21.473651999999998,
            "velocity": 0.16535433070866143
          },
          {
            "duration": 0.0789472499999988,
            "durationTicks": 48,
            "midi": 49,
            "name": "C#3",
            "ticks": 13104,
            "time": 21.55259925,
            "velocity": 0.16535433070866143
          },
          {
            "duration": 0.0789472499999988,
            "durationTicks": 48,
            "midi": 54,
            "name": "F#3",
            "ticks": 13152,
            "time": 21.6315465,
            "velocity": 0.16535433070866143
          },
          {
            "duration": 0.07894725000000236,
            "durationTicks": 48,
            "midi": 58,
            "name": "A#3",
            "ticks": 13200,
            "time": 21.710493749999998,
            "velocity": 0.16535433070866143
          },
          {
            "duration": 0.0789472499999988,
            "durationTicks": 48,
            "midi": 61,
            "name": "C#4",
            "ticks": 13248,
            "time": 21.789441,
            "velocity": 0.16535433070866143
          },
          {
            "duration": 0.0789472499999988,
            "durationTicks": 48,
            "midi": 58,
            "name": "A#3",
            "ticks": 13296,
            "time": 21.86838825,
            "velocity": 0.16535433070866143
          },
          {
            "duration": 0.07894725000000236,
            "durationTicks": 48,
            "midi": 54,
            "name": "F#3",
            "ticks": 13344,
            "time": 21.947335499999998,
            "velocity": 0.16535433070866143
          },
          {
            "duration": 0.0789472499999988,
            "durationTicks": 48,
            "midi": 49,
            "name": "C#3",
            "ticks": 13392,
            "time": 22.02628275,
            "velocity": 0.16535433070866143
          },
          {
            "duration": 0.0789472499999988,
            "durationTicks": 48,
            "midi": 46,
            "name": "A#2",
            "ticks": 13440,
            "time": 22.10523,
            "velocity": 0.16535433070866143
          },
          {
            "duration": 0.07894725000000236,
            "durationTicks": 48,
            "midi": 49,
            "name": "C#3",
            "ticks": 13488,
            "time": 22.184177249999998,
            "velocity": 0.16535433070866143
          },
          {
            "duration": 0.0789472499999988,
            "durationTicks": 48,
            "midi": 54,
            "name": "F#3",
            "ticks": 13536,
            "time": 22.2631245,
            "velocity": 0.16535433070866143
          },
          {
            "duration": 0.0789472499999988,
            "durationTicks": 48,
            "midi": 58,
            "name": "A#3",
            "ticks": 13584,
            "time": 22.34207175,
            "velocity": 0.16535433070866143
          },
          {
            "duration": 0.07894725000000236,
            "durationTicks": 48,
            "midi": 61,
            "name": "C#4",
            "ticks": 13632,
            "time": 22.421018999999998,
            "velocity": 0.16535433070866143
          },
          {
            "duration": 0.0789472499999988,
            "durationTicks": 48,
            "midi": 58,
            "name": "A#3",
            "ticks": 13680,
            "time": 22.49996625,
            "velocity": 0.16535433070866143
          },
          {
            "duration": 0.0789472499999988,
            "durationTicks": 48,
            "midi": 54,
            "name": "F#3",
            "ticks": 13728,
            "time": 22.5789135,
            "velocity": 0.16535433070866143
          },
          {
            "duration": 0.07894725000000236,
            "durationTicks": 48,
            "midi": 51,
            "name": "D#3",
            "ticks": 13776,
            "time": 22.657860749999998,
            "velocity": 0.16535433070866143
          },
          {
            "duration": 0.0789472499999988,
            "durationTicks": 48,
            "midi": 47,
            "name": "B2",
            "ticks": 13824,
            "time": 22.736808,
            "velocity": 0.16535433070866143
          },
          {
            "duration": 0.0789472499999988,
            "durationTicks": 48,
            "midi": 51,
            "name": "D#3",
            "ticks": 13872,
            "time": 22.81575525,
            "velocity": 0.16535433070866143
          },
          {
            "duration": 0.07894725000000236,
            "durationTicks": 48,
            "midi": 56,
            "name": "G#3",
            "ticks": 13920,
            "time": 22.894702499999998,
            "velocity": 0.16535433070866143
          },
          {
            "duration": 0.0789472499999988,
            "durationTicks": 48,
            "midi": 59,
            "name": "B3",
            "ticks": 13968,
            "time": 22.97364975,
            "velocity": 0.16535433070866143
          },
          {
            "duration": 0.0789472499999988,
            "durationTicks": 48,
            "midi": 63,
            "name": "D#4",
            "ticks": 14016,
            "time": 23.052597,
            "velocity": 0.16535433070866143
          },
          {
            "duration": 0.07894725000000236,
            "durationTicks": 48,
            "midi": 59,
            "name": "B3",
            "ticks": 14064,
            "time": 23.131544249999997,
            "velocity": 0.16535433070866143
          },
          {
            "duration": 0.0789472499999988,
            "durationTicks": 48,
            "midi": 56,
            "name": "G#3",
            "ticks": 14112,
            "time": 23.2104915,
            "velocity": 0.16535433070866143
          },
          {
            "duration": 0.0789472499999988,
            "durationTicks": 48,
            "midi": 51,
            "name": "D#3",
            "ticks": 14160,
            "time": 23.28943875,
            "velocity": 0.16535433070866143
          },
          {
            "duration": 0.07894725000000236,
            "durationTicks": 48,
            "midi": 47,
            "name": "B2",
            "ticks": 14208,
            "time": 23.368385999999997,
            "velocity": 0.16535433070866143
          },
          {
            "duration": 0.0789472499999988,
            "durationTicks": 48,
            "midi": 51,
            "name": "D#3",
            "ticks": 14256,
            "time": 23.44733325,
            "velocity": 0.16535433070866143
          },
          {
            "duration": 0.0789472499999988,
            "durationTicks": 48,
            "midi": 56,
            "name": "G#3",
            "ticks": 14304,
            "time": 23.5262805,
            "velocity": 0.16535433070866143
          },
          {
            "duration": 0.07894725000000236,
            "durationTicks": 48,
            "midi": 59,
            "name": "B3",
            "ticks": 14352,
            "time": 23.605227749999997,
            "velocity": 0.16535433070866143
          },
          {
            "duration": 0.0789472499999988,
            "durationTicks": 48,
            "midi": 63,
            "name": "D#4",
            "ticks": 14400,
            "time": 23.684175,
            "velocity": 0.16535433070866143
          },
          {
            "duration": 0.0789472499999988,
            "durationTicks": 48,
            "midi": 59,
            "name": "B3",
            "ticks": 14448,
            "time": 23.76312225,
            "velocity": 0.16535433070866143
          },
          {
            "duration": 0.07894725000000236,
            "durationTicks": 48,
            "midi": 56,
            "name": "G#3",
            "ticks": 14496,
            "time": 23.842069499999997,
            "velocity": 0.16535433070866143
          },
          {
            "duration": 0.0789472499999988,
            "durationTicks": 48,
            "midi": 51,
            "name": "D#3",
            "ticks": 14544,
            "time": 23.92101675,
            "velocity": 0.16535433070866143
          },
          {
            "duration": 0.0789472499999988,
            "durationTicks": 48,
            "midi": 42,
            "name": "F#2",
            "ticks": 14592,
            "time": 23.999964,
            "velocity": 0.16535433070866143
          },
          {
            "duration": 0.07894725000000236,
            "durationTicks": 48,
            "midi": 46,
            "name": "A#2",
            "ticks": 14640,
            "time": 24.078911249999997,
            "velocity": 0.16535433070866143
          },
          {
            "duration": 0.0789472499999988,
            "durationTicks": 48,
            "midi": 51,
            "name": "D#3",
            "ticks": 14688,
            "time": 24.1578585,
            "velocity": 0.16535433070866143
          },
          {
            "duration": 0.0789472499999988,
            "durationTicks": 48,
            "midi": 54,
            "name": "F#3",
            "ticks": 14736,
            "time": 24.23680575,
            "velocity": 0.16535433070866143
          },
          {
            "duration": 0.07894725000000236,
            "durationTicks": 48,
            "midi": 58,
            "name": "A#3",
            "ticks": 14784,
            "time": 24.315752999999997,
            "velocity": 0.16535433070866143
          },
          {
            "duration": 0.0789472499999988,
            "durationTicks": 48,
            "midi": 54,
            "name": "F#3",
            "ticks": 14832,
            "time": 24.39470025,
            "velocity": 0.16535433070866143
          },
          {
            "duration": 0.0789472499999988,
            "durationTicks": 48,
            "midi": 51,
            "name": "D#3",
            "ticks": 14880,
            "time": 24.4736475,
            "velocity": 0.16535433070866143
          },
          {
            "duration": 0.07894725000000236,
            "durationTicks": 48,
            "midi": 46,
            "name": "A#2",
            "ticks": 14928,
            "time": 24.552594749999997,
            "velocity": 0.16535433070866143
          },
          {
            "duration": 0.0789472499999988,
            "durationTicks": 48,
            "midi": 42,
            "name": "F#2",
            "ticks": 14976,
            "time": 24.631542,
            "velocity": 0.16535433070866143
          },
          {
            "duration": 0.0789472499999988,
            "durationTicks": 48,
            "midi": 46,
            "name": "A#2",
            "ticks": 15024,
            "time": 24.71048925,
            "velocity": 0.16535433070866143
          },
          {
            "duration": 0.07894725000000236,
            "durationTicks": 48,
            "midi": 51,
            "name": "D#3",
            "ticks": 15072,
            "time": 24.789436499999997,
            "velocity": 0.16535433070866143
          },
          {
            "duration": 0.0789472499999988,
            "durationTicks": 48,
            "midi": 54,
            "name": "F#3",
            "ticks": 15120,
            "time": 24.86838375,
            "velocity": 0.16535433070866143
          },
          {
            "duration": 0.0789472499999988,
            "durationTicks": 48,
            "midi": 58,
            "name": "A#3",
            "ticks": 15168,
            "time": 24.947331,
            "velocity": 0.16535433070866143
          },
          {
            "duration": 0.07894725000000236,
            "durationTicks": 48,
            "midi": 54,
            "name": "F#3",
            "ticks": 15216,
            "time": 25.026278249999997,
            "velocity": 0.16535433070866143
          },
          {
            "duration": 0.0789472499999988,
            "durationTicks": 48,
            "midi": 51,
            "name": "D#3",
            "ticks": 15264,
            "time": 25.1052255,
            "velocity": 0.16535433070866143
          },
          {
            "duration": 0.07894725000000236,
            "durationTicks": 48,
            "midi": 46,
            "name": "A#2",
            "ticks": 15312,
            "time": 25.18417275,
            "velocity": 0.16535433070866143
          },
          {
            "duration": 0.0789472499999988,
            "durationTicks": 48,
            "midi": 44,
            "name": "G#2",
            "ticks": 15360,
            "time": 25.26312,
            "velocity": 0.16535433070866143
          },
          {
            "duration": 0.0789472499999988,
            "durationTicks": 48,
            "midi": 47,
            "name": "B2",
            "ticks": 15408,
            "time": 25.34206725,
            "velocity": 0.16535433070866143
          },
          {
            "duration": 0.07894725000000236,
            "durationTicks": 48,
            "midi": 52,
            "name": "E3",
            "ticks": 15456,
            "time": 25.4210145,
            "velocity": 0.16535433070866143
          },
          {
            "duration": 0.0789472499999988,
            "durationTicks": 48,
            "midi": 56,
            "name": "G#3",
            "ticks": 15504,
            "time": 25.49996175,
            "velocity": 0.16535433070866143
          },
          {
            "duration": 0.0789472499999988,
            "durationTicks": 48,
            "midi": 59,
            "name": "B3",
            "ticks": 15552,
            "time": 25.578909,
            "velocity": 0.16535433070866143
          },
          {
            "duration": 0.07894725000000236,
            "durationTicks": 48,
            "midi": 56,
            "name": "G#3",
            "ticks": 15600,
            "time": 25.65785625,
            "velocity": 0.16535433070866143
          },
          {
            "duration": 0.0789472499999988,
            "durationTicks": 48,
            "midi": 52,
            "name": "E3",
            "ticks": 15648,
            "time": 25.7368035,
            "velocity": 0.16535433070866143
          },
          {
            "duration": 0.0789472499999988,
            "durationTicks": 48,
            "midi": 47,
            "name": "B2",
            "ticks": 15696,
            "time": 25.81575075,
            "velocity": 0.16535433070866143
          },
          {
            "duration": 0.07894725000000236,
            "durationTicks": 48,
            "midi": 44,
            "name": "G#2",
            "ticks": 15744,
            "time": 25.894697999999998,
            "velocity": 0.16535433070866143
          },
          {
            "duration": 0.0789472499999988,
            "durationTicks": 48,
            "midi": 47,
            "name": "B2",
            "ticks": 15792,
            "time": 25.97364525,
            "velocity": 0.16535433070866143
          },
          {
            "duration": 0.0789472499999988,
            "durationTicks": 48,
            "midi": 52,
            "name": "E3",
            "ticks": 15840,
            "time": 26.0525925,
            "velocity": 0.16535433070866143
          },
          {
            "duration": 0.07894725000000236,
            "durationTicks": 48,
            "midi": 56,
            "name": "G#3",
            "ticks": 15888,
            "time": 26.131539749999998,
            "velocity": 0.16535433070866143
          },
          {
            "duration": 0.0789472499999988,
            "durationTicks": 48,
            "midi": 59,
            "name": "B3",
            "ticks": 15936,
            "time": 26.210487,
            "velocity": 0.16535433070866143
          },
          {
            "duration": 0.0789472499999988,
            "durationTicks": 48,
            "midi": 56,
            "name": "G#3",
            "ticks": 15984,
            "time": 26.28943425,
            "velocity": 0.16535433070866143
          },
          {
            "duration": 0.07894725000000236,
            "durationTicks": 48,
            "midi": 52,
            "name": "E3",
            "ticks": 16032,
            "time": 26.368381499999998,
            "velocity": 0.16535433070866143
          },
          {
            "duration": 0.0789472499999988,
            "durationTicks": 48,
            "midi": 47,
            "name": "B2",
            "ticks": 16080,
            "time": 26.44732875,
            "velocity": 0.16535433070866143
          },
          {
            "duration": 0.0789472499999988,
            "durationTicks": 48,
            "midi": 51,
            "name": "D#3",
            "ticks": 16128,
            "time": 26.526276,
            "velocity": 0.16535433070866143
          },
          {
            "duration": 0.07894725000000236,
            "durationTicks": 48,
            "midi": 54,
            "name": "F#3",
            "ticks": 16176,
            "time": 26.605223249999998,
            "velocity": 0.16535433070866143
          },
          {
            "duration": 0.0789472499999988,
            "durationTicks": 48,
            "midi": 59,
            "name": "B3",
            "ticks": 16224,
            "time": 26.6841705,
            "velocity": 0.16535433070866143
          },
          {
            "duration": 0.0789472499999988,
            "durationTicks": 48,
            "midi": 63,
            "name": "D#4",
            "ticks": 16272,
            "time": 26.76311775,
            "velocity": 0.16535433070866143
          },
          {
            "duration": 0.07894725000000236,
            "durationTicks": 48,
            "midi": 66,
            "name": "F#4",
            "ticks": 16320,
            "time": 26.842064999999998,
            "velocity": 0.16535433070866143
          },
          {
            "duration": 0.0789472499999988,
            "durationTicks": 48,
            "midi": 63,
            "name": "D#4",
            "ticks": 16368,
            "time": 26.92101225,
            "velocity": 0.16535433070866143
          },
          {
            "duration": 0.0789472499999988,
            "durationTicks": 48,
            "midi": 59,
            "name": "B3",
            "ticks": 16416,
            "time": 26.9999595,
            "velocity": 0.16535433070866143
          },
          {
            "duration": 0.07894725000000236,
            "durationTicks": 48,
            "midi": 54,
            "name": "F#3",
            "ticks": 16464,
            "time": 27.078906749999998,
            "velocity": 0.16535433070866143
          },
          {
            "duration": 0.0789472499999988,
            "durationTicks": 48,
            "midi": 51,
            "name": "D#3",
            "ticks": 16512,
            "time": 27.157854,
            "velocity": 0.16535433070866143
          },
          {
            "duration": 0.0789472499999988,
            "durationTicks": 48,
            "midi": 54,
            "name": "F#3",
            "ticks": 16560,
            "time": 27.23680125,
            "velocity": 0.16535433070866143
          },
          {
            "duration": 0.07894725000000236,
            "durationTicks": 48,
            "midi": 59,
            "name": "B3",
            "ticks": 16608,
            "time": 27.315748499999998,
            "velocity": 0.16535433070866143
          },
          {
            "duration": 0.0789472499999988,
            "durationTicks": 48,
            "midi": 63,
            "name": "D#4",
            "ticks": 16656,
            "time": 27.39469575,
            "velocity": 0.16535433070866143
          },
          {
            "duration": 0.0789472499999988,
            "durationTicks": 48,
            "midi": 66,
            "name": "F#4",
            "ticks": 16704,
            "time": 27.473643,
            "velocity": 0.16535433070866143
          },
          {
            "duration": 0.07894725000000236,
            "durationTicks": 48,
            "midi": 63,
            "name": "D#4",
            "ticks": 16752,
            "time": 27.552590249999998,
            "velocity": 0.16535433070866143
          },
          {
            "duration": 0.0789472499999988,
            "durationTicks": 48,
            "midi": 59,
            "name": "B3",
            "ticks": 16800,
            "time": 27.6315375,
            "velocity": 0.16535433070866143
          },
          {
            "duration": 0.0789472499999988,
            "durationTicks": 48,
            "midi": 54,
            "name": "F#3",
            "ticks": 16848,
            "time": 27.71048475,
            "velocity": 0.16535433070866143
          },
          {
            "duration": 0.07894725000000236,
            "durationTicks": 48,
            "midi": 52,
            "name": "E3",
            "ticks": 16896,
            "time": 27.789431999999998,
            "velocity": 0.16535433070866143
          },
          {
            "duration": 0.0789472499999988,
            "durationTicks": 48,
            "midi": 56,
            "name": "G#3",
            "ticks": 16944,
            "time": 27.86837925,
            "velocity": 0.16535433070866143
          },
          {
            "duration": 0.0789472499999988,
            "durationTicks": 48,
            "midi": 61,
            "name": "C#4",
            "ticks": 16992,
            "time": 27.9473265,
            "velocity": 0.16535433070866143
          },
          {
            "duration": 0.07894725000000236,
            "durationTicks": 48,
            "midi": 64,
            "name": "E4",
            "ticks": 17040,
            "time": 28.026273749999998,
            "velocity": 0.16535433070866143
          },
          {
            "duration": 0.0789472499999988,
            "durationTicks": 48,
            "midi": 68,
            "name": "G#4",
            "ticks": 17088,
            "time": 28.105221,
            "velocity": 0.16535433070866143
          },
          {
            "duration": 0.0789472499999988,
            "durationTicks": 48,
            "midi": 64,
            "name": "E4",
            "ticks": 17136,
            "time": 28.18416825,
            "velocity": 0.16535433070866143
          },
          {
            "duration": 0.07894725000000236,
            "durationTicks": 48,
            "midi": 61,
            "name": "C#4",
            "ticks": 17184,
            "time": 28.263115499999998,
            "velocity": 0.16535433070866143
          },
          {
            "duration": 0.0789472499999988,
            "durationTicks": 48,
            "midi": 56,
            "name": "G#3",
            "ticks": 17232,
            "time": 28.34206275,
            "velocity": 0.16535433070866143
          },
          {
            "duration": 0.0789472499999988,
            "durationTicks": 48,
            "midi": 52,
            "name": "E3",
            "ticks": 17280,
            "time": 28.42101,
            "velocity": 0.16535433070866143
          },
          {
            "duration": 0.07894725000000236,
            "durationTicks": 48,
            "midi": 56,
            "name": "G#3",
            "ticks": 17328,
            "time": 28.499957249999998,
            "velocity": 0.16535433070866143
          },
          {
            "duration": 0.0789472499999988,
            "durationTicks": 48,
            "midi": 61,
            "name": "C#4",
            "ticks": 17376,
            "time": 28.5789045,
            "velocity": 0.16535433070866143
          },
          {
            "duration": 0.0789472499999988,
            "durationTicks": 48,
            "midi": 64,
            "name": "E4",
            "ticks": 17424,
            "time": 28.65785175,
            "velocity": 0.16535433070866143
          },
          {
            "duration": 0.07894725000000236,
            "durationTicks": 48,
            "midi": 68,
            "name": "G#4",
            "ticks": 17472,
            "time": 28.736798999999998,
            "velocity": 0.16535433070866143
          },
          {
            "duration": 0.0789472499999988,
            "durationTicks": 48,
            "midi": 64,
            "name": "E4",
            "ticks": 17520,
            "time": 28.81574625,
            "velocity": 0.16535433070866143
          },
          {
            "duration": 0.0789472499999988,
            "durationTicks": 48,
            "midi": 61,
            "name": "C#4",
            "ticks": 17568,
            "time": 28.8946935,
            "velocity": 0.16535433070866143
          },
          {
            "duration": 0.07894725000000236,
            "durationTicks": 48,
            "midi": 56,
            "name": "G#3",
            "ticks": 17616,
            "time": 28.973640749999998,
            "velocity": 0.16535433070866143
          },
          {
            "duration": 0.0789472499999988,
            "durationTicks": 48,
            "midi": 46,
            "name": "A#2",
            "ticks": 17664,
            "time": 29.052588,
            "velocity": 0.16535433070866143
          },
          {
            "duration": 0.0789472499999988,
            "durationTicks": 48,
            "midi": 51,
            "name": "D#3",
            "ticks": 17712,
            "time": 29.13153525,
            "velocity": 0.16535433070866143
          },
          {
            "duration": 0.07894725000000236,
            "durationTicks": 48,
            "midi": 55,
            "name": "G3",
            "ticks": 17760,
            "time": 29.210482499999998,
            "velocity": 0.16535433070866143
          },
          {
            "duration": 0.0789472499999988,
            "durationTicks": 48,
            "midi": 58,
            "name": "A#3",
            "ticks": 17808,
            "time": 29.28942975,
            "velocity": 0.16535433070866143
          },
          {
            "duration": 0.0789472499999988,
            "durationTicks": 48,
            "midi": 63,
            "name": "D#4",
            "ticks": 17856,
            "time": 29.368377,
            "velocity": 0.16535433070866143
          },
          {
            "duration": 0.07894725000000236,
            "durationTicks": 48,
            "midi": 58,
            "name": "A#3",
            "ticks": 17904,
            "time": 29.447324249999998,
            "velocity": 0.16535433070866143
          },
          {
            "duration": 0.0789472499999988,
            "durationTicks": 48,
            "midi": 55,
            "name": "G3",
            "ticks": 17952,
            "time": 29.5262715,
            "velocity": 0.16535433070866143
          },
          {
            "duration": 0.0789472499999988,
            "durationTicks": 48,
            "midi": 51,
            "name": "D#3",
            "ticks": 18000,
            "time": 29.60521875,
            "velocity": 0.16535433070866143
          },
          {
            "duration": 0.07894725000000236,
            "durationTicks": 48,
            "midi": 46,
            "name": "A#2",
            "ticks": 18048,
            "time": 29.684165999999998,
            "velocity": 0.16535433070866143
          },
          {
            "duration": 0.0789472499999988,
            "durationTicks": 48,
            "midi": 51,
            "name": "D#3",
            "ticks": 18096,
            "time": 29.76311325,
            "velocity": 0.16535433070866143
          },
          {
            "duration": 0.0789472499999988,
            "durationTicks": 48,
            "midi": 55,
            "name": "G3",
            "ticks": 18144,
            "time": 29.8420605,
            "velocity": 0.16535433070866143
          },
          {
            "duration": 0.07894725000000236,
            "durationTicks": 48,
            "midi": 58,
            "name": "A#3",
            "ticks": 18192,
            "time": 29.921007749999998,
            "velocity": 0.16535433070866143
          },
          {
            "duration": 0.0789472499999988,
            "durationTicks": 48,
            "midi": 63,
            "name": "D#4",
            "ticks": 18240,
            "time": 29.999955,
            "velocity": 0.16535433070866143
          },
          {
            "duration": 0.0789472499999988,
            "durationTicks": 48,
            "midi": 58,
            "name": "A#3",
            "ticks": 18288,
            "time": 30.07890225,
            "velocity": 0.16535433070866143
          },
          {
            "duration": 0.07894725000000236,
            "durationTicks": 48,
            "midi": 55,
            "name": "G3",
            "ticks": 18336,
            "time": 30.157849499999998,
            "velocity": 0.16535433070866143
          },
          {
            "duration": 0.0789472499999988,
            "durationTicks": 48,
            "midi": 51,
            "name": "D#3",
            "ticks": 18384,
            "time": 30.23679675,
            "velocity": 0.16535433070866143
          },
          {
            "duration": 0.0789472499999988,
            "durationTicks": 48,
            "midi": 44,
            "name": "G#2",
            "ticks": 18432,
            "time": 30.315744,
            "velocity": 0.16535433070866143
          },
          {
            "duration": 0.07894725000000236,
            "durationTicks": 48,
            "midi": 47,
            "name": "B2",
            "ticks": 18480,
            "time": 30.394691249999997,
            "velocity": 0.16535433070866143
          },
          {
            "duration": 0.0789472499999988,
            "durationTicks": 48,
            "midi": 52,
            "name": "E3",
            "ticks": 18528,
            "time": 30.4736385,
            "velocity": 0.16535433070866143
          },
          {
            "duration": 0.0789472499999988,
            "durationTicks": 48,
            "midi": 56,
            "name": "G#3",
            "ticks": 18576,
            "time": 30.55258575,
            "velocity": 0.16535433070866143
          },
          {
            "duration": 0.07894725000000236,
            "durationTicks": 48,
            "midi": 59,
            "name": "B3",
            "ticks": 18624,
            "time": 30.631532999999997,
            "velocity": 0.16535433070866143
          },
          {
            "duration": 0.0789472499999988,
            "durationTicks": 48,
            "midi": 56,
            "name": "G#3",
            "ticks": 18672,
            "time": 30.71048025,
            "velocity": 0.16535433070866143
          },
          {
            "duration": 0.0789472499999988,
            "durationTicks": 48,
            "midi": 52,
            "name": "E3",
            "ticks": 18720,
            "time": 30.7894275,
            "velocity": 0.16535433070866143
          },
          {
            "duration": 0.07894725000000236,
            "durationTicks": 48,
            "midi": 47,
            "name": "B2",
            "ticks": 18768,
            "time": 30.868374749999997,
            "velocity": 0.16535433070866143
          },
          {
            "duration": 0.0789472499999988,
            "durationTicks": 48,
            "midi": 44,
            "name": "G#2",
            "ticks": 18816,
            "time": 30.947322,
            "velocity": 0.16535433070866143
          },
          {
            "duration": 0.0789472499999988,
            "durationTicks": 48,
            "midi": 47,
            "name": "B2",
            "ticks": 18864,
            "time": 31.02626925,
            "velocity": 0.16535433070866143
          },
          {
            "duration": 0.07894725000000236,
            "durationTicks": 48,
            "midi": 52,
            "name": "E3",
            "ticks": 18912,
            "time": 31.105216499999997,
            "velocity": 0.16535433070866143
          },
          {
            "duration": 0.0789472499999988,
            "durationTicks": 48,
            "midi": 56,
            "name": "G#3",
            "ticks": 18960,
            "time": 31.18416375,
            "velocity": 0.16535433070866143
          },
          {
            "duration": 0.0789472499999988,
            "durationTicks": 48,
            "midi": 59,
            "name": "B3",
            "ticks": 19008,
            "time": 31.263111,
            "velocity": 0.16535433070866143
          },
          {
            "duration": 0.07894725000000236,
            "durationTicks": 48,
            "midi": 56,
            "name": "G#3",
            "ticks": 19056,
            "time": 31.342058249999997,
            "velocity": 0.16535433070866143
          },
          {
            "duration": 0.0789472499999988,
            "durationTicks": 48,
            "midi": 52,
            "name": "E3",
            "ticks": 19104,
            "time": 31.4210055,
            "velocity": 0.16535433070866143
          },
          {
            "duration": 0.0789472499999988,
            "durationTicks": 48,
            "midi": 47,
            "name": "B2",
            "ticks": 19152,
            "time": 31.49995275,
            "velocity": 0.16535433070866143
          },
          {
            "duration": 0.07894725000000236,
            "durationTicks": 48,
            "midi": 46,
            "name": "A#2",
            "ticks": 19200,
            "time": 31.578899999999997,
            "velocity": 0.16535433070866143
          },
          {
            "duration": 0.0789472499999988,
            "durationTicks": 48,
            "midi": 49,
            "name": "C#3",
            "ticks": 19248,
            "time": 31.65784725,
            "velocity": 0.16535433070866143
          },
          {
            "duration": 0.0789472499999988,
            "durationTicks": 48,
            "midi": 54,
            "name": "F#3",
            "ticks": 19296,
            "time": 31.7367945,
            "velocity": 0.16535433070866143
          },
          {
            "duration": 0.07894725000000236,
            "durationTicks": 48,
            "midi": 58,
            "name": "A#3",
            "ticks": 19344,
            "time": 31.815741749999997,
            "velocity": 0.16535433070866143
          },
          {
            "duration": 0.0789472499999988,
            "durationTicks": 48,
            "midi": 61,
            "name": "C#4",
            "ticks": 19392,
            "time": 31.894689,
            "velocity": 0.16535433070866143
          },
          {
            "duration": 0.0789472499999988,
            "durationTicks": 48,
            "midi": 58,
            "name": "A#3",
            "ticks": 19440,
            "time": 31.97363625,
            "velocity": 0.16535433070866143
          },
          {
            "duration": 0.0789472499999988,
            "durationTicks": 48,
            "midi": 54,
            "name": "F#3",
            "ticks": 19488,
            "time": 32.0525835,
            "velocity": 0.16535433070866143
          },
          {
            "duration": 0.07894725000000591,
            "durationTicks": 48,
            "midi": 49,
            "name": "C#3",
            "ticks": 19536,
            "time": 32.131530749999996,
            "velocity": 0.16535433070866143
          },
          {
            "duration": 0.0789472499999988,
            "durationTicks": 48,
            "midi": 46,
            "name": "A#2",
            "ticks": 19584,
            "time": 32.210478,
            "velocity": 0.16535433070866143
          },
          {
            "duration": 0.0789472499999988,
            "durationTicks": 48,
            "midi": 49,
            "name": "C#3",
            "ticks": 19632,
            "time": 32.28942525,
            "velocity": 0.16535433070866143
          },
          {
            "duration": 0.0789472499999988,
            "durationTicks": 48,
            "midi": 54,
            "name": "F#3",
            "ticks": 19680,
            "time": 32.3683725,
            "velocity": 0.16535433070866143
          },
          {
            "duration": 0.0789472499999988,
            "durationTicks": 48,
            "midi": 58,
            "name": "A#3",
            "ticks": 19728,
            "time": 32.44731975,
            "velocity": 0.16535433070866143
          },
          {
            "duration": 0.0789472499999988,
            "durationTicks": 48,
            "midi": 61,
            "name": "C#4",
            "ticks": 19776,
            "time": 32.526267,
            "velocity": 0.16535433070866143
          },
          {
            "duration": 0.07894725000000591,
            "durationTicks": 48,
            "midi": 58,
            "name": "A#3",
            "ticks": 19824,
            "time": 32.605214249999996,
            "velocity": 0.16535433070866143
          },
          {
            "duration": 0.0789472499999988,
            "durationTicks": 48,
            "midi": 54,
            "name": "F#3",
            "ticks": 19872,
            "time": 32.6841615,
            "velocity": 0.16535433070866143
          },
          {
            "duration": 0.0789472499999988,
            "durationTicks": 48,
            "midi": 51,
            "name": "D#3",
            "ticks": 19920,
            "time": 32.76310875,
            "velocity": 0.16535433070866143
          },
          {
            "duration": 0.0789472499999988,
            "durationTicks": 48,
            "midi": 47,
            "name": "B2",
            "ticks": 19968,
            "time": 32.842056,
            "velocity": 0.16535433070866143
          },
          {
            "duration": 0.0789472499999988,
            "durationTicks": 48,
            "midi": 51,
            "name": "D#3",
            "ticks": 20016,
            "time": 32.92100325,
            "velocity": 0.16535433070866143
          },
          {
            "duration": 0.0789472499999988,
            "durationTicks": 48,
            "midi": 56,
            "name": "G#3",
            "ticks": 20064,
            "time": 32.9999505,
            "velocity": 0.16535433070866143
          },
          {
            "duration": 0.07894725000000591,
            "durationTicks": 48,
            "midi": 59,
            "name": "B3",
            "ticks": 20112,
            "time": 33.078897749999996,
            "velocity": 0.16535433070866143
          },
          {
            "duration": 0.0789472499999988,
            "durationTicks": 48,
            "midi": 63,
            "name": "D#4",
            "ticks": 20160,
            "time": 33.157845,
            "velocity": 0.16535433070866143
          },
          {
            "duration": 0.0789472499999988,
            "durationTicks": 48,
            "midi": 59,
            "name": "B3",
            "ticks": 20208,
            "time": 33.23679225,
            "velocity": 0.16535433070866143
          },
          {
            "duration": 0.0789472499999988,
            "durationTicks": 48,
            "midi": 56,
            "name": "G#3",
            "ticks": 20256,
            "time": 33.3157395,
            "velocity": 0.16535433070866143
          },
          {
            "duration": 0.0789472499999988,
            "durationTicks": 48,
            "midi": 51,
            "name": "D#3",
            "ticks": 20304,
            "time": 33.39468675,
            "velocity": 0.16535433070866143
          },
          {
            "duration": 0.0789472499999988,
            "durationTicks": 48,
            "midi": 47,
            "name": "B2",
            "ticks": 20352,
            "time": 33.473634,
            "velocity": 0.16535433070866143
          },
          {
            "duration": 0.07894725000000591,
            "durationTicks": 48,
            "midi": 51,
            "name": "D#3",
            "ticks": 20400,
            "time": 33.552581249999996,
            "velocity": 0.16535433070866143
          },
          {
            "duration": 0.0789472499999988,
            "durationTicks": 48,
            "midi": 56,
            "name": "G#3",
            "ticks": 20448,
            "time": 33.6315285,
            "velocity": 0.16535433070866143
          },
          {
            "duration": 0.0789472499999988,
            "durationTicks": 48,
            "midi": 59,
            "name": "B3",
            "ticks": 20496,
            "time": 33.71047575,
            "velocity": 0.16535433070866143
          },
          {
            "duration": 0.0789472499999988,
            "durationTicks": 48,
            "midi": 63,
            "name": "D#4",
            "ticks": 20544,
            "time": 33.789423,
            "velocity": 0.16535433070866143
          },
          {
            "duration": 0.0789472499999988,
            "durationTicks": 48,
            "midi": 59,
            "name": "B3",
            "ticks": 20592,
            "time": 33.86837025,
            "velocity": 0.16535433070866143
          },
          {
            "duration": 0.0789472499999988,
            "durationTicks": 48,
            "midi": 56,
            "name": "G#3",
            "ticks": 20640,
            "time": 33.9473175,
            "velocity": 0.16535433070866143
          },
          {
            "duration": 0.07894725000000591,
            "durationTicks": 48,
            "midi": 51,
            "name": "D#3",
            "ticks": 20688,
            "time": 34.026264749999996,
            "velocity": 0.16535433070866143
          },
          {
            "duration": 0.0789472499999988,
            "durationTicks": 48,
            "midi": 42,
            "name": "F#2",
            "ticks": 20736,
            "time": 34.105212,
            "velocity": 0.16535433070866143
          },
          {
            "duration": 0.0789472499999988,
            "durationTicks": 48,
            "midi": 46,
            "name": "A#2",
            "ticks": 20784,
            "time": 34.18415925,
            "velocity": 0.16535433070866143
          },
          {
            "duration": 0.0789472499999988,
            "durationTicks": 48,
            "midi": 51,
            "name": "D#3",
            "ticks": 20832,
            "time": 34.2631065,
            "velocity": 0.16535433070866143
          },
          {
            "duration": 0.0789472499999988,
            "durationTicks": 48,
            "midi": 54,
            "name": "F#3",
            "ticks": 20880,
            "time": 34.34205375,
            "velocity": 0.16535433070866143
          },
          {
            "duration": 0.0789472499999988,
            "durationTicks": 48,
            "midi": 58,
            "name": "A#3",
            "ticks": 20928,
            "time": 34.421001,
            "velocity": 0.16535433070866143
          },
          {
            "duration": 0.07894725000000591,
            "durationTicks": 48,
            "midi": 54,
            "name": "F#3",
            "ticks": 20976,
            "time": 34.499948249999996,
            "velocity": 0.16535433070866143
          },
          {
            "duration": 0.0789472499999988,
            "durationTicks": 48,
            "midi": 51,
            "name": "D#3",
            "ticks": 21024,
            "time": 34.5788955,
            "velocity": 0.16535433070866143
          },
          {
            "duration": 0.0789472499999988,
            "durationTicks": 48,
            "midi": 46,
            "name": "A#2",
            "ticks": 21072,
            "time": 34.65784275,
            "velocity": 0.16535433070866143
          },
          {
            "duration": 0.0789472499999988,
            "durationTicks": 48,
            "midi": 42,
            "name": "F#2",
            "ticks": 21120,
            "time": 34.73679,
            "velocity": 0.16535433070866143
          },
          {
            "duration": 0.0789472499999988,
            "durationTicks": 48,
            "midi": 46,
            "name": "A#2",
            "ticks": 21168,
            "time": 34.81573725,
            "velocity": 0.16535433070866143
          },
          {
            "duration": 0.0789472499999988,
            "durationTicks": 48,
            "midi": 51,
            "name": "D#3",
            "ticks": 21216,
            "time": 34.8946845,
            "velocity": 0.16535433070866143
          },
          {
            "duration": 0.07894725000000591,
            "durationTicks": 48,
            "midi": 54,
            "name": "F#3",
            "ticks": 21264,
            "time": 34.973631749999996,
            "velocity": 0.16535433070866143
          },
          {
            "duration": 0.0789472499999988,
            "durationTicks": 48,
            "midi": 58,
            "name": "A#3",
            "ticks": 21312,
            "time": 35.052579,
            "velocity": 0.16535433070866143
          },
          {
            "duration": 0.0789472499999988,
            "durationTicks": 48,
            "midi": 54,
            "name": "F#3",
            "ticks": 21360,
            "time": 35.13152625,
            "velocity": 0.16535433070866143
          },
          {
            "duration": 0.0789472499999988,
            "durationTicks": 48,
            "midi": 51,
            "name": "D#3",
            "ticks": 21408,
            "time": 35.2104735,
            "velocity": 0.16535433070866143
          },
          {
            "duration": 0.0789472499999988,
            "durationTicks": 48,
            "midi": 46,
            "name": "A#2",
            "ticks": 21456,
            "time": 35.28942075,
            "velocity": 0.16535433070866143
          },
          {
            "duration": 0.0789472499999988,
            "durationTicks": 48,
            "midi": 44,
            "name": "G#2",
            "ticks": 21504,
            "time": 35.368368,
            "velocity": 0.16535433070866143
          },
          {
            "duration": 0.07894725000000591,
            "durationTicks": 48,
            "midi": 47,
            "name": "B2",
            "ticks": 21552,
            "time": 35.447315249999996,
            "velocity": 0.16535433070866143
          },
          {
            "duration": 0.0789472499999988,
            "durationTicks": 48,
            "midi": 52,
            "name": "E3",
            "ticks": 21600,
            "time": 35.5262625,
            "velocity": 0.16535433070866143
          },
          {
            "duration": 0.0789472499999988,
            "durationTicks": 48,
            "midi": 56,
            "name": "G#3",
            "ticks": 21648,
            "time": 35.60520975,
            "velocity": 0.16535433070866143
          },
          {
            "duration": 0.0789472499999988,
            "durationTicks": 48,
            "midi": 59,
            "name": "B3",
            "ticks": 21696,
            "time": 35.684157,
            "velocity": 0.16535433070866143
          },
          {
            "duration": 0.0789472499999988,
            "durationTicks": 48,
            "midi": 56,
            "name": "G#3",
            "ticks": 21744,
            "time": 35.76310425,
            "velocity": 0.16535433070866143
          },
          {
            "duration": 0.0789472499999988,
            "durationTicks": 48,
            "midi": 52,
            "name": "E3",
            "ticks": 21792,
            "time": 35.8420515,
            "velocity": 0.16535433070866143
          },
          {
            "duration": 0.07894725000000591,
            "durationTicks": 48,
            "midi": 47,
            "name": "B2",
            "ticks": 21840,
            "time": 35.920998749999995,
            "velocity": 0.16535433070866143
          },
          {
            "duration": 0.0789472499999988,
            "durationTicks": 48,
            "midi": 44,
            "name": "G#2",
            "ticks": 21888,
            "time": 35.999946,
            "velocity": 0.16535433070866143
          },
          {
            "duration": 0.0789472499999988,
            "durationTicks": 48,
            "midi": 47,
            "name": "B2",
            "ticks": 21936,
            "time": 36.07889325,
            "velocity": 0.16535433070866143
          },
          {
            "duration": 0.0789472499999988,
            "durationTicks": 48,
            "midi": 52,
            "name": "E3",
            "ticks": 21984,
            "time": 36.1578405,
            "velocity": 0.16535433070866143
          },
          {
            "duration": 0.0789472499999988,
            "durationTicks": 48,
            "midi": 56,
            "name": "G#3",
            "ticks": 22032,
            "time": 36.23678775,
            "velocity": 0.16535433070866143
          },
          {
            "duration": 0.0789472499999988,
            "durationTicks": 48,
            "midi": 59,
            "name": "B3",
            "ticks": 22080,
            "time": 36.315735,
            "velocity": 0.16535433070866143
          },
          {
            "duration": 0.07894725000000591,
            "durationTicks": 48,
            "midi": 56,
            "name": "G#3",
            "ticks": 22128,
            "time": 36.394682249999995,
            "velocity": 0.16535433070866143
          },
          {
            "duration": 0.0789472499999988,
            "durationTicks": 48,
            "midi": 52,
            "name": "E3",
            "ticks": 22176,
            "time": 36.4736295,
            "velocity": 0.16535433070866143
          },
          {
            "duration": 0.0789472499999988,
            "durationTicks": 48,
            "midi": 47,
            "name": "B2",
            "ticks": 22224,
            "time": 36.55257675,
            "velocity": 0.16535433070866143
          },
          {
            "duration": 0.0789472499999988,
            "durationTicks": 48,
            "midi": 51,
            "name": "D#3",
            "ticks": 22272,
            "time": 36.631524,
            "velocity": 0.16535433070866143
          },
          {
            "duration": 0.0789472499999988,
            "durationTicks": 48,
            "midi": 47,
            "name": "B2",
            "ticks": 22272,
            "time": 36.631524,
            "velocity": 0.16535433070866143
          },
          {
            "duration": 0.0789472499999988,
            "durationTicks": 48,
            "midi": 54,
            "name": "F#3",
            "ticks": 22320,
            "time": 36.71047125,
            "velocity": 0.16535433070866143
          },
          {
            "duration": 0.0789472499999988,
            "durationTicks": 48,
            "midi": 59,
            "name": "B3",
            "ticks": 22368,
            "time": 36.7894185,
            "velocity": 0.16535433070866143
          },
          {
            "duration": 0.07894725000000591,
            "durationTicks": 48,
            "midi": 63,
            "name": "D#4",
            "ticks": 22416,
            "time": 36.868365749999995,
            "velocity": 0.16535433070866143
          },
          {
            "duration": 0.0789472499999988,
            "durationTicks": 48,
            "midi": 66,
            "name": "F#4",
            "ticks": 22464,
            "time": 36.947313,
            "velocity": 0.16535433070866143
          },
          {
            "duration": 0.0789472499999988,
            "durationTicks": 48,
            "midi": 63,
            "name": "D#4",
            "ticks": 22512,
            "time": 37.02626025,
            "velocity": 0.16535433070866143
          },
          {
            "duration": 0.0789472499999988,
            "durationTicks": 48,
            "midi": 59,
            "name": "B3",
            "ticks": 22560,
            "time": 37.1052075,
            "velocity": 0.16535433070866143
          },
          {
            "duration": 0.0789472499999988,
            "durationTicks": 48,
            "midi": 54,
            "name": "F#3",
            "ticks": 22608,
            "time": 37.18415475,
            "velocity": 0.16535433070866143
          },
          {
            "duration": 0.0789472499999988,
            "durationTicks": 48,
            "midi": 51,
            "name": "D#3",
            "ticks": 22656,
            "time": 37.263101999999996,
            "velocity": 0.16535433070866143
          },
          {
            "duration": 0.0789472499999988,
            "durationTicks": 48,
            "midi": 47,
            "name": "B2",
            "ticks": 22656,
            "time": 37.263101999999996,
            "velocity": 0.16535433070866143
          },
          {
            "duration": 0.07894725000000591,
            "durationTicks": 48,
            "midi": 54,
            "name": "F#3",
            "ticks": 22704,
            "time": 37.342049249999995,
            "velocity": 0.16535433070866143
          },
          {
            "duration": 0.0789472499999988,
            "durationTicks": 48,
            "midi": 59,
            "name": "B3",
            "ticks": 22752,
            "time": 37.4209965,
            "velocity": 0.16535433070866143
          },
          {
            "duration": 0.0789472499999988,
            "durationTicks": 48,
            "midi": 63,
            "name": "D#4",
            "ticks": 22800,
            "time": 37.49994375,
            "velocity": 0.16535433070866143
          },
          {
            "duration": 0.0789472499999988,
            "durationTicks": 48,
            "midi": 66,
            "name": "F#4",
            "ticks": 22848,
            "time": 37.578891,
            "velocity": 0.16535433070866143
          },
          {
            "duration": 0.0789472499999988,
            "durationTicks": 48,
            "midi": 63,
            "name": "D#4",
            "ticks": 22896,
            "time": 37.65783825,
            "velocity": 0.16535433070866143
          },
          {
            "duration": 0.0789472499999988,
            "durationTicks": 48,
            "midi": 59,
            "name": "B3",
            "ticks": 22944,
            "time": 37.736785499999996,
            "velocity": 0.16535433070866143
          },
          {
            "duration": 0.07894725000000591,
            "durationTicks": 48,
            "midi": 54,
            "name": "F#3",
            "ticks": 22992,
            "time": 37.815732749999995,
            "velocity": 0.16535433070866143
          },
          {
            "duration": 0.0789472499999988,
            "durationTicks": 48,
            "midi": 52,
            "name": "E3",
            "ticks": 23040,
            "time": 37.89468,
            "velocity": 0.16535433070866143
          },
          {
            "duration": 0.0789472499999988,
            "durationTicks": 48,
            "midi": 56,
            "name": "G#3",
            "ticks": 23088,
            "time": 37.97362725,
            "velocity": 0.16535433070866143
          },
          {
            "duration": 0.0789472499999988,
            "durationTicks": 48,
            "midi": 61,
            "name": "C#4",
            "ticks": 23136,
            "time": 38.0525745,
            "velocity": 0.16535433070866143
          },
          {
            "duration": 0.0789472499999988,
            "durationTicks": 48,
            "midi": 64,
            "name": "E4",
            "ticks": 23184,
            "time": 38.13152175,
            "velocity": 0.16535433070866143
          },
          {
            "duration": 0.0789472499999988,
            "durationTicks": 48,
            "midi": 68,
            "name": "G#4",
            "ticks": 23232,
            "time": 38.210468999999996,
            "velocity": 0.16535433070866143
          },
          {
            "duration": 0.0789472499999988,
            "durationTicks": 48,
            "midi": 68,
            "name": "G#4",
            "ticks": 23232,
            "time": 38.210468999999996,
            "velocity": 0.16535433070866143
          },
          {
            "duration": 0.07894725000000591,
            "durationTicks": 48,
            "midi": 64,
            "name": "E4",
            "ticks": 23280,
            "time": 38.289416249999995,
            "velocity": 0.16535433070866143
          },
          {
            "duration": 0.0789472499999988,
            "durationTicks": 48,
            "midi": 61,
            "name": "C#4",
            "ticks": 23328,
            "time": 38.3683635,
            "velocity": 0.16535433070866143
          },
          {
            "duration": 0.0789472499999988,
            "durationTicks": 48,
            "midi": 56,
            "name": "G#3",
            "ticks": 23376,
            "time": 38.44731075,
            "velocity": 0.16535433070866143
          },
          {
            "duration": 0.0789472499999988,
            "durationTicks": 48,
            "midi": 52,
            "name": "E3",
            "ticks": 23424,
            "time": 38.526258,
            "velocity": 0.16535433070866143
          },
          {
            "duration": 0.0789472499999988,
            "durationTicks": 48,
            "midi": 56,
            "name": "G#3",
            "ticks": 23472,
            "time": 38.60520525,
            "velocity": 0.16535433070866143
          },
          {
            "duration": 0.0789472499999988,
            "durationTicks": 48,
            "midi": 61,
            "name": "C#4",
            "ticks": 23520,
            "time": 38.684152499999996,
            "velocity": 0.16535433070866143
          },
          {
            "duration": 0.07894725000000591,
            "durationTicks": 48,
            "midi": 64,
            "name": "E4",
            "ticks": 23568,
            "time": 38.763099749999995,
            "velocity": 0.16535433070866143
          },
          {
            "duration": 0.0789472499999988,
            "durationTicks": 48,
            "midi": 68,
            "name": "G#4",
            "ticks": 23616,
            "time": 38.842047,
            "velocity": 0.16535433070866143
          },
          {
            "duration": 0.0789472499999988,
            "durationTicks": 48,
            "midi": 68,
            "name": "G#4",
            "ticks": 23616,
            "time": 38.842047,
            "velocity": 0.16535433070866143
          },
          {
            "duration": 0.0789472499999988,
            "durationTicks": 48,
            "midi": 64,
            "name": "E4",
            "ticks": 23664,
            "time": 38.92099425,
            "velocity": 0.16535433070866143
          },
          {
            "duration": 0.0789472499999988,
            "durationTicks": 48,
            "midi": 61,
            "name": "C#4",
            "ticks": 23712,
            "time": 38.9999415,
            "velocity": 0.16535433070866143
          },
          {
            "duration": 0.0789472499999988,
            "durationTicks": 48,
            "midi": 56,
            "name": "G#3",
            "ticks": 23760,
            "time": 39.07888875,
            "velocity": 0.16535433070866143
          },
          {
            "duration": 0.0789472499999988,
            "durationTicks": 48,
            "midi": 46,
            "name": "A#2",
            "ticks": 23808,
            "time": 39.157835999999996,
            "velocity": 0.16535433070866143
          },
          {
            "duration": 0.07894725000000591,
            "durationTicks": 48,
            "midi": 51,
            "name": "D#3",
            "ticks": 23856,
            "time": 39.236783249999995,
            "velocity": 0.16535433070866143
          },
          {
            "duration": 0.0789472499999988,
            "durationTicks": 48,
            "midi": 55,
            "name": "G3",
            "ticks": 23904,
            "time": 39.3157305,
            "velocity": 0.16535433070866143
          },
          {
            "duration": 0.0789472499999988,
            "durationTicks": 48,
            "midi": 58,
            "name": "A#3",
            "ticks": 23952,
            "time": 39.39467775,
            "velocity": 0.16535433070866143
          },
          {
            "duration": 0.0789472499999988,
            "durationTicks": 48,
            "midi": 63,
            "name": "D#4",
            "ticks": 24000,
            "time": 39.473625,
            "velocity": 0.16535433070866143
          },
          {
            "duration": 0.0789472499999988,
            "durationTicks": 48,
            "midi": 58,
            "name": "A#3",
            "ticks": 24048,
            "time": 39.55257225,
            "velocity": 0.16535433070866143
          },
          {
            "duration": 0.0789472499999988,
            "durationTicks": 48,
            "midi": 55,
            "name": "G3",
            "ticks": 24096,
            "time": 39.631519499999996,
            "velocity": 0.16535433070866143
          },
          {
            "duration": 0.07894725000000591,
            "durationTicks": 48,
            "midi": 51,
            "name": "D#3",
            "ticks": 24144,
            "time": 39.710466749999995,
            "velocity": 0.16535433070866143
          },
          {
            "duration": 0.0789472499999988,
            "durationTicks": 48,
            "midi": 46,
            "name": "A#2",
            "ticks": 24192,
            "time": 39.789414,
            "velocity": 0.16535433070866143
          },
          {
            "duration": 0.0789472499999988,
            "durationTicks": 48,
            "midi": 51,
            "name": "D#3",
            "ticks": 24240,
            "time": 39.86836125,
            "velocity": 0.16535433070866143
          },
          {
            "duration": 0.0789472499999988,
            "durationTicks": 48,
            "midi": 55,
            "name": "G3",
            "ticks": 24288,
            "time": 39.9473085,
            "velocity": 0.16535433070866143
          },
          {
            "duration": 0.0789472499999988,
            "durationTicks": 48,
            "midi": 58,
            "name": "A#3",
            "ticks": 24336,
            "time": 40.02625575,
            "velocity": 0.16535433070866143
          },
          {
            "duration": 0.0789472499999988,
            "durationTicks": 48,
            "midi": 63,
            "name": "D#4",
            "ticks": 24384,
            "time": 40.105202999999996,
            "velocity": 0.16535433070866143
          },
          {
            "duration": 0.07894725000000591,
            "durationTicks": 48,
            "midi": 58,
            "name": "A#3",
            "ticks": 24432,
            "time": 40.184150249999995,
            "velocity": 0.16535433070866143
          },
          {
            "duration": 0.0789472499999988,
            "durationTicks": 48,
            "midi": 55,
            "name": "G3",
            "ticks": 24480,
            "time": 40.2630975,
            "velocity": 0.16535433070866143
          },
          {
            "duration": 0.0789472499999988,
            "durationTicks": 48,
            "midi": 51,
            "name": "D#3",
            "ticks": 24528,
            "time": 40.34204475,
            "velocity": 0.16535433070866143
          },
          {
            "duration": 0.0789472499999988,
            "durationTicks": 48,
            "midi": 52,
            "name": "E3",
            "ticks": 36864,
            "time": 60.631488,
            "velocity": 0.16535433070866143
          },
          {
            "duration": 0.0789472499999988,
            "durationTicks": 48,
            "midi": 55,
            "name": "G3",
            "ticks": 36912,
            "time": 60.710435249999996,
            "velocity": 0.16535433070866143
          },
          {
            "duration": 0.07894725000000591,
            "durationTicks": 48,
            "midi": 59,
            "name": "B3",
            "ticks": 36960,
            "time": 60.789382499999995,
            "velocity": 0.16535433070866143
          },
          {
            "duration": 0.0789472499999988,
            "durationTicks": 48,
            "midi": 64,
            "name": "E4",
            "ticks": 37008,
            "time": 60.86832975,
            "velocity": 0.16535433070866143
          },
          {
            "duration": 0.0789472499999988,
            "durationTicks": 48,
            "midi": 67,
            "name": "G4",
            "ticks": 37056,
            "time": 60.947277,
            "velocity": 0.16535433070866143
          },
          {
            "duration": 0.0789472499999988,
            "durationTicks": 48,
            "midi": 64,
            "name": "E4",
            "ticks": 37104,
            "time": 61.02622425,
            "velocity": 0.16535433070866143
          },
          {
            "duration": 0.0789472499999988,
            "durationTicks": 48,
            "midi": 59,
            "name": "B3",
            "ticks": 37152,
            "time": 61.1051715,
            "velocity": 0.16535433070866143
          },
          {
            "duration": 0.0789472499999988,
            "durationTicks": 48,
            "midi": 55,
            "name": "G3",
            "ticks": 37200,
            "time": 61.184118749999996,
            "velocity": 0.16535433070866143
          },
          {
            "duration": 0.07894725000000591,
            "durationTicks": 48,
            "midi": 52,
            "name": "E3",
            "ticks": 37248,
            "time": 61.263065999999995,
            "velocity": 0.16535433070866143
          },
          {
            "duration": 0.0789472499999988,
            "durationTicks": 48,
            "midi": 55,
            "name": "G3",
            "ticks": 37296,
            "time": 61.34201325,
            "velocity": 0.16535433070866143
          },
          {
            "duration": 0.0789472499999988,
            "durationTicks": 48,
            "midi": 59,
            "name": "B3",
            "ticks": 37344,
            "time": 61.4209605,
            "velocity": 0.16535433070866143
          },
          {
            "duration": 0.0789472499999988,
            "durationTicks": 48,
            "midi": 64,
            "name": "E4",
            "ticks": 37392,
            "time": 61.49990775,
            "velocity": 0.16535433070866143
          },
          {
            "duration": 0.0789472499999988,
            "durationTicks": 48,
            "midi": 67,
            "name": "G4",
            "ticks": 37440,
            "time": 61.578855,
            "velocity": 0.16535433070866143
          },
          {
            "duration": 0.0789472499999988,
            "durationTicks": 48,
            "midi": 64,
            "name": "E4",
            "ticks": 37488,
            "time": 61.657802249999996,
            "velocity": 0.16535433070866143
          },
          {
            "duration": 0.07894725000000591,
            "durationTicks": 48,
            "midi": 59,
            "name": "B3",
            "ticks": 37536,
            "time": 61.736749499999995,
            "velocity": 0.16535433070866143
          },
          {
            "duration": 0.0789472499999988,
            "durationTicks": 48,
            "midi": 55,
            "name": "G3",
            "ticks": 37584,
            "time": 61.81569675,
            "velocity": 0.16535433070866143
          },
          {
            "duration": 0.0789472499999988,
            "durationTicks": 48,
            "midi": 52,
            "name": "E3",
            "ticks": 37632,
            "time": 61.894644,
            "velocity": 0.16535433070866143
          },
          {
            "duration": 0.0789472499999988,
            "durationTicks": 48,
            "midi": 55,
            "name": "G3",
            "ticks": 37680,
            "time": 61.97359125,
            "velocity": 0.16535433070866143
          },
          {
            "duration": 0.0789472499999988,
            "durationTicks": 48,
            "midi": 59,
            "name": "B3",
            "ticks": 37728,
            "time": 62.0525385,
            "velocity": 0.16535433070866143
          },
          {
            "duration": 0.0789472499999988,
            "durationTicks": 48,
            "midi": 64,
            "name": "E4",
            "ticks": 37776,
            "time": 62.131485749999996,
            "velocity": 0.16535433070866143
          },
          {
            "duration": 0.07894725000000591,
            "durationTicks": 48,
            "midi": 67,
            "name": "G4",
            "ticks": 37824,
            "time": 62.210432999999995,
            "velocity": 0.16535433070866143
          },
          {
            "duration": 0.0789472499999988,
            "durationTicks": 48,
            "midi": 64,
            "name": "E4",
            "ticks": 37872,
            "time": 62.28938025,
            "velocity": 0.16535433070866143
          },
          {
            "duration": 0.0789472499999988,
            "durationTicks": 48,
            "midi": 59,
            "name": "B3",
            "ticks": 37920,
            "time": 62.3683275,
            "velocity": 0.16535433070866143
          },
          {
            "duration": 0.0789472499999988,
            "durationTicks": 48,
            "midi": 55,
            "name": "G3",
            "ticks": 37968,
            "time": 62.44727475,
            "velocity": 0.16535433070866143
          },
          {
            "duration": 0.0789472499999988,
            "durationTicks": 48,
            "midi": 52,
            "name": "E3",
            "ticks": 38016,
            "time": 62.526222,
            "velocity": 0.16535433070866143
          },
          {
            "duration": 0.0789472499999988,
            "durationTicks": 48,
            "midi": 55,
            "name": "G3",
            "ticks": 38064,
            "time": 62.605169249999996,
            "velocity": 0.16535433070866143
          },
          {
            "duration": 0.07894725000000591,
            "durationTicks": 48,
            "midi": 59,
            "name": "B3",
            "ticks": 38112,
            "time": 62.684116499999995,
            "velocity": 0.16535433070866143
          },
          {
            "duration": 0.0789472499999988,
            "durationTicks": 48,
            "midi": 64,
            "name": "E4",
            "ticks": 38160,
            "time": 62.76306375,
            "velocity": 0.16535433070866143
          },
          {
            "duration": 0.0789472499999988,
            "durationTicks": 48,
            "midi": 67,
            "name": "G4",
            "ticks": 38208,
            "time": 62.842011,
            "velocity": 0.16535433070866143
          },
          {
            "duration": 0.0789472499999988,
            "durationTicks": 48,
            "midi": 64,
            "name": "E4",
            "ticks": 38256,
            "time": 62.92095825,
            "velocity": 0.16535433070866143
          },
          {
            "duration": 0.0789472499999988,
            "durationTicks": 48,
            "midi": 59,
            "name": "B3",
            "ticks": 38304,
            "time": 62.9999055,
            "velocity": 0.16535433070866143
          },
          {
            "duration": 0.0789472499999988,
            "durationTicks": 48,
            "midi": 55,
            "name": "G3",
            "ticks": 38352,
            "time": 63.078852749999996,
            "velocity": 0.16535433070866143
          },
          {
            "duration": 0.07894725000000591,
            "durationTicks": 48,
            "midi": 59,
            "name": "B3",
            "ticks": 38400,
            "time": 63.157799999999995,
            "velocity": 0.16535433070866143
          },
          {
            "duration": 0.0789472499999988,
            "durationTicks": 48,
            "midi": 63,
            "name": "D#4",
            "ticks": 38448,
            "time": 63.23674725,
            "velocity": 0.16535433070866143
          },
          {
            "duration": 0.0789472499999988,
            "durationTicks": 48,
            "midi": 66,
            "name": "F#4",
            "ticks": 38496,
            "time": 63.3156945,
            "velocity": 0.16535433070866143
          },
          {
            "duration": 0.0789472499999988,
            "durationTicks": 48,
            "midi": 71,
            "name": "B4",
            "ticks": 38544,
            "time": 63.39464175,
            "velocity": 0.16535433070866143
          },
          {
            "duration": 0.0789472499999988,
            "durationTicks": 48,
            "midi": 75,
            "name": "D#5",
            "ticks": 38592,
            "time": 63.473589,
            "velocity": 0.16535433070866143
          },
          {
            "duration": 0.0789472499999988,
            "durationTicks": 48,
            "midi": 71,
            "name": "B4",
            "ticks": 38640,
            "time": 63.552536249999996,
            "velocity": 0.16535433070866143
          },
          {
            "duration": 0.07894725000000591,
            "durationTicks": 48,
            "midi": 66,
            "name": "F#4",
            "ticks": 38688,
            "time": 63.631483499999995,
            "velocity": 0.16535433070866143
          },
          {
            "duration": 0.0789472499999988,
            "durationTicks": 48,
            "midi": 63,
            "name": "D#4",
            "ticks": 38736,
            "time": 63.71043075,
            "velocity": 0.16535433070866143
          },
          {
            "duration": 0.0789472499999988,
            "durationTicks": 48,
            "midi": 59,
            "name": "B3",
            "ticks": 38784,
            "time": 63.789378,
            "velocity": 0.16535433070866143
          },
          {
            "duration": 0.0789472499999988,
            "durationTicks": 48,
            "midi": 63,
            "name": "D#4",
            "ticks": 38832,
            "time": 63.86832525,
            "velocity": 0.16535433070866143
          },
          {
            "duration": 0.0789472499999988,
            "durationTicks": 48,
            "midi": 66,
            "name": "F#4",
            "ticks": 38880,
            "time": 63.9472725,
            "velocity": 0.16535433070866143
          },
          {
            "duration": 0.0789472499999988,
            "durationTicks": 48,
            "midi": 71,
            "name": "B4",
            "ticks": 38928,
            "time": 64.02621975,
            "velocity": 0.16535433070866143
          },
          {
            "duration": 0.0789472499999988,
            "durationTicks": 48,
            "midi": 75,
            "name": "D#5",
            "ticks": 38976,
            "time": 64.105167,
            "velocity": 0.16535433070866143
          },
          {
            "duration": 0.0789472499999988,
            "durationTicks": 48,
            "midi": 71,
            "name": "B4",
            "ticks": 39024,
            "time": 64.18411425,
            "velocity": 0.16535433070866143
          },
          {
            "duration": 0.0789472499999988,
            "durationTicks": 48,
            "midi": 66,
            "name": "F#4",
            "ticks": 39072,
            "time": 64.26306149999999,
            "velocity": 0.16535433070866143
          },
          {
            "duration": 0.07894725000001301,
            "durationTicks": 48,
            "midi": 63,
            "name": "D#4",
            "ticks": 39120,
            "time": 64.34200874999999,
            "velocity": 0.16535433070866143
          },
          {
            "duration": 0.0789472499999988,
            "durationTicks": 48,
            "midi": 58,
            "name": "A#3",
            "ticks": 39168,
            "time": 64.420956,
            "velocity": 0.16535433070866143
          },
          {
            "duration": 0.0789472499999988,
            "durationTicks": 48,
            "midi": 61,
            "name": "C#4",
            "ticks": 39216,
            "time": 64.49990325,
            "velocity": 0.16535433070866143
          },
          {
            "duration": 0.0789472499999988,
            "durationTicks": 48,
            "midi": 66,
            "name": "F#4",
            "ticks": 39264,
            "time": 64.5788505,
            "velocity": 0.16535433070866143
          },
          {
            "duration": 0.0789472499999988,
            "durationTicks": 48,
            "midi": 70,
            "name": "A#4",
            "ticks": 39312,
            "time": 64.65779775,
            "velocity": 0.16535433070866143
          },
          {
            "duration": 0.0789472499999988,
            "durationTicks": 48,
            "midi": 73,
            "name": "C#5",
            "ticks": 39360,
            "time": 64.736745,
            "velocity": 0.16535433070866143
          },
          {
            "duration": 0.0789472499999988,
            "durationTicks": 48,
            "midi": 70,
            "name": "A#4",
            "ticks": 39408,
            "time": 64.81569225,
            "velocity": 0.16535433070866143
          },
          {
            "duration": 0.0789472499999988,
            "durationTicks": 48,
            "midi": 66,
            "name": "F#4",
            "ticks": 39456,
            "time": 64.8946395,
            "velocity": 0.16535433070866143
          },
          {
            "duration": 0.0789472499999988,
            "durationTicks": 48,
            "midi": 61,
            "name": "C#4",
            "ticks": 39504,
            "time": 64.97358675,
            "velocity": 0.16535433070866143
          },
          {
            "duration": 0.0789472499999988,
            "durationTicks": 48,
            "midi": 58,
            "name": "A#3",
            "ticks": 39552,
            "time": 65.052534,
            "velocity": 0.16535433070866143
          },
          {
            "duration": 0.0789472499999988,
            "durationTicks": 48,
            "midi": 61,
            "name": "C#4",
            "ticks": 39600,
            "time": 65.13148125,
            "velocity": 0.16535433070866143
          },
          {
            "duration": 0.0789472499999988,
            "durationTicks": 48,
            "midi": 66,
            "name": "F#4",
            "ticks": 39648,
            "time": 65.21042849999999,
            "velocity": 0.16535433070866143
          },
          {
            "duration": 0.07894725000001301,
            "durationTicks": 48,
            "midi": 70,
            "name": "A#4",
            "ticks": 39696,
            "time": 65.28937574999999,
            "velocity": 0.16535433070866143
          },
          {
            "duration": 0.0789472499999988,
            "durationTicks": 48,
            "midi": 73,
            "name": "C#5",
            "ticks": 39744,
            "time": 65.368323,
            "velocity": 0.16535433070866143
          },
          {
            "duration": 0.0789472499999988,
            "durationTicks": 48,
            "midi": 70,
            "name": "A#4",
            "ticks": 39792,
            "time": 65.44727025,
            "velocity": 0.16535433070866143
          },
          {
            "duration": 0.0789472499999988,
            "durationTicks": 48,
            "midi": 66,
            "name": "F#4",
            "ticks": 39840,
            "time": 65.5262175,
            "velocity": 0.16535433070866143
          },
          {
            "duration": 0.0789472499999988,
            "durationTicks": 48,
            "midi": 61,
            "name": "C#4",
            "ticks": 39888,
            "time": 65.60516475,
            "velocity": 0.16535433070866143
          },
          {
            "duration": 0.0789472499999988,
            "durationTicks": 48,
            "midi": 54,
            "name": "F#3",
            "ticks": 39936,
            "time": 65.684112,
            "velocity": 0.16535433070866143
          },
          {
            "duration": 0.0789472499999988,
            "durationTicks": 48,
            "midi": 59,
            "name": "B3",
            "ticks": 39984,
            "time": 65.76305925,
            "velocity": 0.16535433070866143
          },
          {
            "duration": 0.0789472499999988,
            "durationTicks": 48,
            "midi": 66,
            "name": "F#4",
            "ticks": 40032,
            "time": 65.8420065,
            "velocity": 0.16535433070866143
          },
          {
            "duration": 0.0789472499999988,
            "durationTicks": 48,
            "midi": 64,
            "name": "E4",
            "ticks": 40080,
            "time": 65.92095375,
            "velocity": 0.16535433070866143
          },
          {
            "duration": 0.0789472499999988,
            "durationTicks": 48,
            "midi": 67,
            "name": "G4",
            "ticks": 40128,
            "time": 65.999901,
            "velocity": 0.16535433070866143
          },
          {
            "duration": 0.0789472499999988,
            "durationTicks": 48,
            "midi": 64,
            "name": "E4",
            "ticks": 40176,
            "time": 66.07884825,
            "velocity": 0.16535433070866143
          },
          {
            "duration": 0.0789472499999988,
            "durationTicks": 48,
            "midi": 66,
            "name": "F#4",
            "ticks": 40224,
            "time": 66.15779549999999,
            "velocity": 0.16535433070866143
          },
          {
            "duration": 0.07894725000001301,
            "durationTicks": 48,
            "midi": 64,
            "name": "E4",
            "ticks": 40272,
            "time": 66.23674274999999,
            "velocity": 0.16535433070866143
          },
          {
            "duration": 0.0789472499999988,
            "durationTicks": 48,
            "midi": 54,
            "name": "F#3",
            "ticks": 40320,
            "time": 66.31569,
            "velocity": 0.16535433070866143
          },
          {
            "duration": 0.0789472499999988,
            "durationTicks": 48,
            "midi": 59,
            "name": "B3",
            "ticks": 40368,
            "time": 66.39463725,
            "velocity": 0.16535433070866143
          },
          {
            "duration": 0.0789472499999988,
            "durationTicks": 48,
            "midi": 66,
            "name": "F#4",
            "ticks": 40416,
            "time": 66.4735845,
            "velocity": 0.16535433070866143
          },
          {
            "duration": 0.0789472499999988,
            "durationTicks": 48,
            "midi": 64,
            "name": "E4",
            "ticks": 40464,
            "time": 66.55253175,
            "velocity": 0.16535433070866143
          },
          {
            "duration": 0.0789472499999988,
            "durationTicks": 48,
            "midi": 67,
            "name": "G4",
            "ticks": 40512,
            "time": 66.631479,
            "velocity": 0.16535433070866143
          },
          {
            "duration": 0.0789472499999988,
            "durationTicks": 48,
            "midi": 64,
            "name": "E4",
            "ticks": 40560,
            "time": 66.71042625,
            "velocity": 0.16535433070866143
          },
          {
            "duration": 0.0789472499999988,
            "durationTicks": 48,
            "midi": 66,
            "name": "F#4",
            "ticks": 40608,
            "time": 66.7893735,
            "velocity": 0.16535433070866143
          },
          {
            "duration": 0.0789472499999988,
            "durationTicks": 48,
            "midi": 64,
            "name": "E4",
            "ticks": 40656,
            "time": 66.86832075,
            "velocity": 0.16535433070866143
          },
          {
            "duration": 0.0789472499999988,
            "durationTicks": 48,
            "midi": 54,
            "name": "F#3",
            "ticks": 40704,
            "time": 66.947268,
            "velocity": 0.16535433070866143
          },
          {
            "duration": 0.0789472499999988,
            "durationTicks": 48,
            "midi": 59,
            "name": "B3",
            "ticks": 40752,
            "time": 67.02621524999999,
            "velocity": 0.16535433070866143
          },
          {
            "duration": 0.0789472499999988,
            "durationTicks": 48,
            "midi": 66,
            "name": "F#4",
            "ticks": 40800,
            "time": 67.10516249999999,
            "velocity": 0.16535433070866143
          },
          {
            "duration": 0.07894725000001301,
            "durationTicks": 48,
            "midi": 64,
            "name": "E4",
            "ticks": 40848,
            "time": 67.18410974999999,
            "velocity": 0.16535433070866143
          },
          {
            "duration": 0.0789472499999988,
            "durationTicks": 48,
            "midi": 67,
            "name": "G4",
            "ticks": 40896,
            "time": 67.263057,
            "velocity": 0.16535433070866143
          },
          {
            "duration": 0.0789472499999988,
            "durationTicks": 48,
            "midi": 64,
            "name": "E4",
            "ticks": 40944,
            "time": 67.34200425,
            "velocity": 0.16535433070866143
          },
          {
            "duration": 0.0789472499999988,
            "durationTicks": 48,
            "midi": 66,
            "name": "F#4",
            "ticks": 40992,
            "time": 67.4209515,
            "velocity": 0.16535433070866143
          },
          {
            "duration": 0.0789472499999988,
            "durationTicks": 48,
            "midi": 64,
            "name": "E4",
            "ticks": 41040,
            "time": 67.49989875,
            "velocity": 0.16535433070866143
          },
          {
            "duration": 0.0789472499999988,
            "durationTicks": 48,
            "midi": 54,
            "name": "F#3",
            "ticks": 41088,
            "time": 67.578846,
            "velocity": 0.16535433070866143
          },
          {
            "duration": 0.0789472499999988,
            "durationTicks": 48,
            "midi": 59,
            "name": "B3",
            "ticks": 41136,
            "time": 67.65779325,
            "velocity": 0.16535433070866143
          },
          {
            "duration": 0.0789472499999988,
            "durationTicks": 48,
            "midi": 66,
            "name": "F#4",
            "ticks": 41184,
            "time": 67.7367405,
            "velocity": 0.16535433070866143
          },
          {
            "duration": 0.0789472499999988,
            "durationTicks": 48,
            "midi": 64,
            "name": "E4",
            "ticks": 41232,
            "time": 67.81568775,
            "velocity": 0.16535433070866143
          },
          {
            "duration": 0.0789472499999988,
            "durationTicks": 48,
            "midi": 67,
            "name": "G4",
            "ticks": 41280,
            "time": 67.894635,
            "velocity": 0.16535433070866143
          },
          {
            "duration": 0.0789472499999988,
            "durationTicks": 48,
            "midi": 64,
            "name": "E4",
            "ticks": 41328,
            "time": 67.97358224999999,
            "velocity": 0.16535433070866143
          },
          {
            "duration": 0.0789472499999988,
            "durationTicks": 48,
            "midi": 66,
            "name": "F#4",
            "ticks": 41376,
            "time": 68.05252949999999,
            "velocity": 0.16535433070866143
          },
          {
            "duration": 0.07894725000001301,
            "durationTicks": 48,
            "midi": 64,
            "name": "E4",
            "ticks": 41424,
            "time": 68.13147674999999,
            "velocity": 0.16535433070866143
          },
          {
            "duration": 0.0789472499999988,
            "durationTicks": 48,
            "midi": 59,
            "name": "B3",
            "ticks": 41472,
            "time": 68.210424,
            "velocity": 0.16535433070866143
          },
          {
            "duration": 0.0789472499999988,
            "durationTicks": 48,
            "midi": 63,
            "name": "D#4",
            "ticks": 41520,
            "time": 68.28937125,
            "velocity": 0.16535433070866143
          },
          {
            "duration": 0.0789472499999988,
            "durationTicks": 48,
            "midi": 66,
            "name": "F#4",
            "ticks": 41568,
            "time": 68.3683185,
            "velocity": 0.16535433070866143
          },
          {
            "duration": 0.0789472499999988,
            "durationTicks": 48,
            "midi": 71,
            "name": "B4",
            "ticks": 41616,
            "time": 68.44726575,
            "velocity": 0.16535433070866143
          },
          {
            "duration": 0.0789472499999988,
            "durationTicks": 48,
            "midi": 75,
            "name": "D#5",
            "ticks": 41664,
            "time": 68.526213,
            "velocity": 0.16535433070866143
          },
          {
            "duration": 0.0789472499999988,
            "durationTicks": 48,
            "midi": 71,
            "name": "B4",
            "ticks": 41712,
            "time": 68.60516025,
            "velocity": 0.16535433070866143
          },
          {
            "duration": 0.0789472499999988,
            "durationTicks": 48,
            "midi": 66,
            "name": "F#4",
            "ticks": 41760,
            "time": 68.6841075,
            "velocity": 0.16535433070866143
          },
          {
            "duration": 0.0789472499999988,
            "durationTicks": 48,
            "midi": 63,
            "name": "D#4",
            "ticks": 41808,
            "time": 68.76305475,
            "velocity": 0.16535433070866143
          },
          {
            "duration": 0.0789472499999988,
            "durationTicks": 48,
            "midi": 59,
            "name": "B3",
            "ticks": 41856,
            "time": 68.842002,
            "velocity": 0.16535433070866143
          },
          {
            "duration": 0.0789472499999988,
            "durationTicks": 48,
            "midi": 63,
            "name": "D#4",
            "ticks": 41904,
            "time": 68.92094924999999,
            "velocity": 0.16535433070866143
          },
          {
            "duration": 0.0789472499999988,
            "durationTicks": 48,
            "midi": 66,
            "name": "F#4",
            "ticks": 41952,
            "time": 68.99989649999999,
            "velocity": 0.16535433070866143
          },
          {
            "duration": 0.07894725000001301,
            "durationTicks": 48,
            "midi": 71,
            "name": "B4",
            "ticks": 42000,
            "time": 69.07884374999999,
            "velocity": 0.16535433070866143
          },
          {
            "duration": 0.0789472499999988,
            "durationTicks": 48,
            "midi": 75,
            "name": "D#5",
            "ticks": 42048,
            "time": 69.157791,
            "velocity": 0.16535433070866143
          },
          {
            "duration": 0.0789472499999988,
            "durationTicks": 48,
            "midi": 71,
            "name": "B4",
            "ticks": 42096,
            "time": 69.23673825,
            "velocity": 0.16535433070866143
          },
          {
            "duration": 0.0789472499999988,
            "durationTicks": 48,
            "midi": 66,
            "name": "F#4",
            "ticks": 42144,
            "time": 69.3156855,
            "velocity": 0.16535433070866143
          },
          {
            "duration": 0.0789472499999988,
            "durationTicks": 48,
            "midi": 63,
            "name": "D#4",
            "ticks": 42192,
            "time": 69.39463275,
            "velocity": 0.16535433070866143
          },
          {
            "duration": 0.0789472499999988,
            "durationTicks": 48,
            "midi": 58,
            "name": "A#3",
            "ticks": 42240,
            "time": 69.47358,
            "velocity": 0.16535433070866143
          },
          {
            "duration": 0.0789472499999988,
            "durationTicks": 48,
            "midi": 61,
            "name": "C#4",
            "ticks": 42288,
            "time": 69.55252725,
            "velocity": 0.16535433070866143
          },
          {
            "duration": 0.0789472499999988,
            "durationTicks": 48,
            "midi": 66,
            "name": "F#4",
            "ticks": 42336,
            "time": 69.6314745,
            "velocity": 0.16535433070866143
          },
          {
            "duration": 0.0789472499999988,
            "durationTicks": 48,
            "midi": 70,
            "name": "A#4",
            "ticks": 42384,
            "time": 69.71042175,
            "velocity": 0.16535433070866143
          },
          {
            "duration": 0.0789472499999988,
            "durationTicks": 48,
            "midi": 73,
            "name": "C#5",
            "ticks": 42432,
            "time": 69.789369,
            "velocity": 0.16535433070866143
          },
          {
            "duration": 0.0789472499999988,
            "durationTicks": 48,
            "midi": 70,
            "name": "A#4",
            "ticks": 42480,
            "time": 69.86831624999999,
            "velocity": 0.16535433070866143
          },
          {
            "duration": 0.0789472499999988,
            "durationTicks": 48,
            "midi": 66,
            "name": "F#4",
            "ticks": 42528,
            "time": 69.94726349999999,
            "velocity": 0.16535433070866143
          },
          {
            "duration": 0.07894725000001301,
            "durationTicks": 48,
            "midi": 61,
            "name": "C#4",
            "ticks": 42576,
            "time": 70.02621074999999,
            "velocity": 0.16535433070866143
          },
          {
            "duration": 0.0789472499999988,
            "durationTicks": 48,
            "midi": 58,
            "name": "A#3",
            "ticks": 42624,
            "time": 70.105158,
            "velocity": 0.16535433070866143
          },
          {
            "duration": 0.0789472499999988,
            "durationTicks": 48,
            "midi": 61,
            "name": "C#4",
            "ticks": 42672,
            "time": 70.18410525,
            "velocity": 0.16535433070866143
          },
          {
            "duration": 0.0789472499999988,
            "durationTicks": 48,
            "midi": 66,
            "name": "F#4",
            "ticks": 42720,
            "time": 70.2630525,
            "velocity": 0.16535433070866143
          },
          {
            "duration": 0.0789472499999988,
            "durationTicks": 48,
            "midi": 70,
            "name": "A#4",
            "ticks": 42768,
            "time": 70.34199975,
            "velocity": 0.16535433070866143
          },
          {
            "duration": 0.0789472499999988,
            "durationTicks": 48,
            "midi": 73,
            "name": "C#5",
            "ticks": 42816,
            "time": 70.420947,
            "velocity": 0.16535433070866143
          },
          {
            "duration": 0.0789472499999988,
            "durationTicks": 48,
            "midi": 70,
            "name": "A#4",
            "ticks": 42864,
            "time": 70.49989425,
            "velocity": 0.16535433070866143
          },
          {
            "duration": 0.0789472499999988,
            "durationTicks": 48,
            "midi": 66,
            "name": "F#4",
            "ticks": 42912,
            "time": 70.5788415,
            "velocity": 0.16535433070866143
          },
          {
            "duration": 0.0789472499999988,
            "durationTicks": 48,
            "midi": 61,
            "name": "C#4",
            "ticks": 42960,
            "time": 70.65778875,
            "velocity": 0.16535433070866143
          },
          {
            "duration": 0.0789472499999988,
            "durationTicks": 48,
            "midi": 52,
            "name": "E3",
            "ticks": 43008,
            "time": 70.736736,
            "velocity": 0.16535433070866143
          },
          {
            "duration": 0.0789472499999988,
            "durationTicks": 48,
            "midi": 55,
            "name": "G3",
            "ticks": 43056,
            "time": 70.81568324999999,
            "velocity": 0.16535433070866143
          },
          {
            "duration": 0.07894725000001301,
            "durationTicks": 48,
            "midi": 59,
            "name": "B3",
            "ticks": 43104,
            "time": 70.89463049999999,
            "velocity": 0.16535433070866143
          },
          {
            "duration": 0.0789472499999988,
            "durationTicks": 48,
            "midi": 64,
            "name": "E4",
            "ticks": 43152,
            "time": 70.97357775,
            "velocity": 0.16535433070866143
          },
          {
            "duration": 0.0789472499999988,
            "durationTicks": 48,
            "midi": 67,
            "name": "G4",
            "ticks": 43200,
            "time": 71.052525,
            "velocity": 0.16535433070866143
          },
          {
            "duration": 0.0789472499999988,
            "durationTicks": 48,
            "midi": 64,
            "name": "E4",
            "ticks": 43248,
            "time": 71.13147225,
            "velocity": 0.16535433070866143
          },
          {
            "duration": 0.0789472499999988,
            "durationTicks": 48,
            "midi": 59,
            "name": "B3",
            "ticks": 43296,
            "time": 71.2104195,
            "velocity": 0.16535433070866143
          },
          {
            "duration": 0.0789472499999988,
            "durationTicks": 48,
            "midi": 55,
            "name": "G3",
            "ticks": 43344,
            "time": 71.28936675,
            "velocity": 0.16535433070866143
          },
          {
            "duration": 0.0789472499999988,
            "durationTicks": 48,
            "midi": 52,
            "name": "E3",
            "ticks": 43392,
            "time": 71.368314,
            "velocity": 0.16535433070866143
          },
          {
            "duration": 0.0789472499999988,
            "durationTicks": 48,
            "midi": 55,
            "name": "G3",
            "ticks": 43440,
            "time": 71.44726125,
            "velocity": 0.16535433070866143
          },
          {
            "duration": 0.0789472499999988,
            "durationTicks": 48,
            "midi": 59,
            "name": "B3",
            "ticks": 43488,
            "time": 71.5262085,
            "velocity": 0.16535433070866143
          },
          {
            "duration": 0.0789472499999988,
            "durationTicks": 48,
            "midi": 64,
            "name": "E4",
            "ticks": 43536,
            "time": 71.60515575,
            "velocity": 0.16535433070866143
          },
          {
            "duration": 0.0789472499999988,
            "durationTicks": 48,
            "midi": 67,
            "name": "G4",
            "ticks": 43584,
            "time": 71.684103,
            "velocity": 0.16535433070866143
          },
          {
            "duration": 0.0789472499999988,
            "durationTicks": 48,
            "midi": 64,
            "name": "E4",
            "ticks": 43632,
            "time": 71.76305024999999,
            "velocity": 0.16535433070866143
          },
          {
            "duration": 0.07894725000001301,
            "durationTicks": 48,
            "midi": 59,
            "name": "B3",
            "ticks": 43680,
            "time": 71.84199749999999,
            "velocity": 0.16535433070866143
          },
          {
            "duration": 0.0789472499999988,
            "durationTicks": 48,
            "midi": 55,
            "name": "G3",
            "ticks": 43728,
            "time": 71.92094475,
            "velocity": 0.16535433070866143
          },
          {
            "duration": 0.0789472499999988,
            "durationTicks": 48,
            "midi": 52,
            "name": "E3",
            "ticks": 43776,
            "time": 71.999892,
            "velocity": 0.16535433070866143
          },
          {
            "duration": 0.0789472499999988,
            "durationTicks": 48,
            "midi": 55,
            "name": "G3",
            "ticks": 43824,
            "time": 72.07883925,
            "velocity": 0.16535433070866143
          },
          {
            "duration": 0.0789472499999988,
            "durationTicks": 48,
            "midi": 59,
            "name": "B3",
            "ticks": 43872,
            "time": 72.1577865,
            "velocity": 0.16535433070866143
          },
          {
            "duration": 0.0789472499999988,
            "durationTicks": 48,
            "midi": 64,
            "name": "E4",
            "ticks": 43920,
            "time": 72.23673375,
            "velocity": 0.16535433070866143
          },
          {
            "duration": 0.0789472499999988,
            "durationTicks": 48,
            "midi": 67,
            "name": "G4",
            "ticks": 43968,
            "time": 72.315681,
            "velocity": 0.16535433070866143
          },
          {
            "duration": 0.0789472499999988,
            "durationTicks": 48,
            "midi": 64,
            "name": "E4",
            "ticks": 44016,
            "time": 72.39462825,
            "velocity": 0.16535433070866143
          },
          {
            "duration": 0.0789472499999988,
            "durationTicks": 48,
            "midi": 59,
            "name": "B3",
            "ticks": 44064,
            "time": 72.4735755,
            "velocity": 0.16535433070866143
          },
          {
            "duration": 0.0789472499999988,
            "durationTicks": 48,
            "midi": 55,
            "name": "G3",
            "ticks": 44112,
            "time": 72.55252275,
            "velocity": 0.16535433070866143
          },
          {
            "duration": 0.0789472499999988,
            "durationTicks": 48,
            "midi": 52,
            "name": "E3",
            "ticks": 44160,
            "time": 72.63147,
            "velocity": 0.16535433070866143
          },
          {
            "duration": 0.0789472499999988,
            "durationTicks": 48,
            "midi": 55,
            "name": "G3",
            "ticks": 44208,
            "time": 72.71041724999999,
            "velocity": 0.16535433070866143
          },
          {
            "duration": 0.07894725000001301,
            "durationTicks": 48,
            "midi": 59,
            "name": "B3",
            "ticks": 44256,
            "time": 72.78936449999999,
            "velocity": 0.16535433070866143
          },
          {
            "duration": 0.0789472499999988,
            "durationTicks": 48,
            "midi": 64,
            "name": "E4",
            "ticks": 44304,
            "time": 72.86831175,
            "velocity": 0.16535433070866143
          },
          {
            "duration": 0.0789472499999988,
            "durationTicks": 48,
            "midi": 67,
            "name": "G4",
            "ticks": 44352,
            "time": 72.947259,
            "velocity": 0.16535433070866143
          },
          {
            "duration": 0.0789472499999988,
            "durationTicks": 48,
            "midi": 64,
            "name": "E4",
            "ticks": 44400,
            "time": 73.02620625,
            "velocity": 0.16535433070866143
          },
          {
            "duration": 0.0789472499999988,
            "durationTicks": 48,
            "midi": 59,
            "name": "B3",
            "ticks": 44448,
            "time": 73.1051535,
            "velocity": 0.16535433070866143
          },
          {
            "duration": 0.0789472499999988,
            "durationTicks": 48,
            "midi": 55,
            "name": "G3",
            "ticks": 44496,
            "time": 73.18410075,
            "velocity": 0.16535433070866143
          },
          {
            "duration": 0.0789472499999988,
            "durationTicks": 48,
            "midi": 59,
            "name": "B3",
            "ticks": 44544,
            "time": 73.263048,
            "velocity": 0.16535433070866143
          },
          {
            "duration": 0.0789472499999988,
            "durationTicks": 48,
            "midi": 63,
            "name": "D#4",
            "ticks": 44592,
            "time": 73.34199525,
            "velocity": 0.16535433070866143
          },
          {
            "duration": 0.0789472499999988,
            "durationTicks": 48,
            "midi": 66,
            "name": "F#4",
            "ticks": 44640,
            "time": 73.4209425,
            "velocity": 0.16535433070866143
          },
          {
            "duration": 0.0789472499999988,
            "durationTicks": 48,
            "midi": 71,
            "name": "B4",
            "ticks": 44688,
            "time": 73.49988975,
            "velocity": 0.16535433070866143
          },
          {
            "duration": 0.0789472499999988,
            "durationTicks": 48,
            "midi": 75,
            "name": "D#5",
            "ticks": 44736,
            "time": 73.578837,
            "velocity": 0.16535433070866143
          },
          {
            "duration": 0.0789472499999988,
            "durationTicks": 48,
            "midi": 71,
            "name": "B4",
            "ticks": 44784,
            "time": 73.65778424999999,
            "velocity": 0.16535433070866143
          },
          {
            "duration": 0.07894725000001301,
            "durationTicks": 48,
            "midi": 66,
            "name": "F#4",
            "ticks": 44832,
            "time": 73.73673149999999,
            "velocity": 0.16535433070866143
          },
          {
            "duration": 0.0789472499999988,
            "durationTicks": 48,
            "midi": 63,
            "name": "D#4",
            "ticks": 44880,
            "time": 73.81567875,
            "velocity": 0.16535433070866143
          },
          {
            "duration": 0.0789472499999988,
            "durationTicks": 48,
            "midi": 59,
            "name": "B3",
            "ticks": 44928,
            "time": 73.894626,
            "velocity": 0.16535433070866143
          },
          {
            "duration": 0.0789472499999988,
            "durationTicks": 48,
            "midi": 63,
            "name": "D#4",
            "ticks": 44976,
            "time": 73.97357325,
            "velocity": 0.16535433070866143
          },
          {
            "duration": 0.0789472499999988,
            "durationTicks": 48,
            "midi": 66,
            "name": "F#4",
            "ticks": 45024,
            "time": 74.0525205,
            "velocity": 0.16535433070866143
          },
          {
            "duration": 0.0789472499999988,
            "durationTicks": 48,
            "midi": 71,
            "name": "B4",
            "ticks": 45072,
            "time": 74.13146775,
            "velocity": 0.16535433070866143
          },
          {
            "duration": 0.0789472499999988,
            "durationTicks": 48,
            "midi": 75,
            "name": "D#5",
            "ticks": 45120,
            "time": 74.210415,
            "velocity": 0.16535433070866143
          },
          {
            "duration": 0.0789472499999988,
            "durationTicks": 48,
            "midi": 71,
            "name": "B4",
            "ticks": 45168,
            "time": 74.28936225,
            "velocity": 0.16535433070866143
          },
          {
            "duration": 0.0789472499999988,
            "durationTicks": 48,
            "midi": 66,
            "name": "F#4",
            "ticks": 45216,
            "time": 74.3683095,
            "velocity": 0.16535433070866143
          },
          {
            "duration": 0.0789472499999988,
            "durationTicks": 48,
            "midi": 63,
            "name": "D#4",
            "ticks": 45264,
            "time": 74.44725675,
            "velocity": 0.16535433070866143
          },
          {
            "duration": 0.0789472499999988,
            "durationTicks": 48,
            "midi": 58,
            "name": "A#3",
            "ticks": 45312,
            "time": 74.52620399999999,
            "velocity": 0.16535433070866143
          },
          {
            "duration": 0.0789472499999988,
            "durationTicks": 48,
            "midi": 61,
            "name": "C#4",
            "ticks": 45360,
            "time": 74.60515124999999,
            "velocity": 0.16535433070866143
          },
          {
            "duration": 0.07894725000001301,
            "durationTicks": 48,
            "midi": 66,
            "name": "F#4",
            "ticks": 45408,
            "time": 74.68409849999999,
            "velocity": 0.16535433070866143
          },
          {
            "duration": 0.0789472499999988,
            "durationTicks": 48,
            "midi": 70,
            "name": "A#4",
            "ticks": 45456,
            "time": 74.76304575,
            "velocity": 0.16535433070866143
          },
          {
            "duration": 0.0789472499999988,
            "durationTicks": 48,
            "midi": 73,
            "name": "C#5",
            "ticks": 45504,
            "time": 74.841993,
            "velocity": 0.16535433070866143
          },
          {
            "duration": 0.0789472499999988,
            "durationTicks": 48,
            "midi": 70,
            "name": "A#4",
            "ticks": 45552,
            "time": 74.92094025,
            "velocity": 0.16535433070866143
          },
          {
            "duration": 0.0789472499999988,
            "durationTicks": 48,
            "midi": 66,
            "name": "F#4",
            "ticks": 45600,
            "time": 74.9998875,
            "velocity": 0.16535433070866143
          },
          {
            "duration": 0.0789472499999988,
            "durationTicks": 48,
            "midi": 61,
            "name": "C#4",
            "ticks": 45648,
            "time": 75.07883475,
            "velocity": 0.16535433070866143
          },
          {
            "duration": 0.0789472499999988,
            "durationTicks": 48,
            "midi": 58,
            "name": "A#3",
            "ticks": 45696,
            "time": 75.157782,
            "velocity": 0.16535433070866143
          },
          {
            "duration": 0.0789472499999988,
            "durationTicks": 48,
            "midi": 61,
            "name": "C#4",
            "ticks": 45744,
            "time": 75.23672925,
            "velocity": 0.16535433070866143
          },
          {
            "duration": 0.0789472499999988,
            "durationTicks": 48,
            "midi": 66,
            "name": "F#4",
            "ticks": 45792,
            "time": 75.3156765,
            "velocity": 0.16535433070866143
          },
          {
            "duration": 0.0789472499999988,
            "durationTicks": 48,
            "midi": 70,
            "name": "A#4",
            "ticks": 45840,
            "time": 75.39462375,
            "velocity": 0.16535433070866143
          },
          {
            "duration": 0.0789472499999988,
            "durationTicks": 48,
            "midi": 73,
            "name": "C#5",
            "ticks": 45888,
            "time": 75.47357099999999,
            "velocity": 0.16535433070866143
          },
          {
            "duration": 0.0789472499999988,
            "durationTicks": 48,
            "midi": 70,
            "name": "A#4",
            "ticks": 45936,
            "time": 75.55251824999999,
            "velocity": 0.16535433070866143
          },
          {
            "duration": 0.07894725000001301,
            "durationTicks": 48,
            "midi": 66,
            "name": "F#4",
            "ticks": 45984,
            "time": 75.63146549999999,
            "velocity": 0.16535433070866143
          },
          {
            "duration": 0.0789472499999988,
            "durationTicks": 48,
            "midi": 61,
            "name": "C#4",
            "ticks": 46032,
            "time": 75.71041275,
            "velocity": 0.16535433070866143
          },
          {
            "duration": 0.0789472499999988,
            "durationTicks": 48,
            "midi": 54,
            "name": "F#3",
            "ticks": 46080,
            "time": 75.78936,
            "velocity": 0.16535433070866143
          },
          {
            "duration": 0.0789472499999988,
            "durationTicks": 48,
            "midi": 59,
            "name": "B3",
            "ticks": 46128,
            "time": 75.86830725,
            "velocity": 0.16535433070866143
          },
          {
            "duration": 0.0789472499999988,
            "durationTicks": 48,
            "midi": 66,
            "name": "F#4",
            "ticks": 46176,
            "time": 75.9472545,
            "velocity": 0.16535433070866143
          },
          {
            "duration": 0.0789472499999988,
            "durationTicks": 48,
            "midi": 64,
            "name": "E4",
            "ticks": 46224,
            "time": 76.02620175,
            "velocity": 0.16535433070866143
          },
          {
            "duration": 0.0789472499999988,
            "durationTicks": 48,
            "midi": 67,
            "name": "G4",
            "ticks": 46272,
            "time": 76.105149,
            "velocity": 0.16535433070866143
          },
          {
            "duration": 0.0789472499999988,
            "durationTicks": 48,
            "midi": 64,
            "name": "E4",
            "ticks": 46320,
            "time": 76.18409625,
            "velocity": 0.16535433070866143
          },
          {
            "duration": 0.0789472499999988,
            "durationTicks": 48,
            "midi": 66,
            "name": "F#4",
            "ticks": 46368,
            "time": 76.2630435,
            "velocity": 0.16535433070866143
          },
          {
            "duration": 0.0789472499999988,
            "durationTicks": 48,
            "midi": 64,
            "name": "E4",
            "ticks": 46416,
            "time": 76.34199075,
            "velocity": 0.16535433070866143
          },
          {
            "duration": 0.0789472499999988,
            "durationTicks": 48,
            "midi": 54,
            "name": "F#3",
            "ticks": 46464,
            "time": 76.42093799999999,
            "velocity": 0.16535433070866143
          },
          {
            "duration": 0.0789472499999988,
            "durationTicks": 48,
            "midi": 59,
            "name": "B3",
            "ticks": 46512,
            "time": 76.49988524999999,
            "velocity": 0.16535433070866143
          },
          {
            "duration": 0.07894725000001301,
            "durationTicks": 48,
            "midi": 66,
            "name": "F#4",
            "ticks": 46560,
            "time": 76.57883249999999,
            "velocity": 0.16535433070866143
          },
          {
            "duration": 0.0789472499999988,
            "durationTicks": 48,
            "midi": 64,
            "name": "E4",
            "ticks": 46608,
            "time": 76.65777975,
            "velocity": 0.16535433070866143
          },
          {
            "duration": 0.0789472499999988,
            "durationTicks": 48,
            "midi": 67,
            "name": "G4",
            "ticks": 46656,
            "time": 76.736727,
            "velocity": 0.16535433070866143
          },
          {
            "duration": 0.0789472499999988,
            "durationTicks": 48,
            "midi": 64,
            "name": "E4",
            "ticks": 46704,
            "time": 76.81567425,
            "velocity": 0.16535433070866143
          },
          {
            "duration": 0.0789472499999988,
            "durationTicks": 48,
            "midi": 66,
            "name": "F#4",
            "ticks": 46752,
            "time": 76.8946215,
            "velocity": 0.16535433070866143
          },
          {
            "duration": 0.0789472499999988,
            "durationTicks": 48,
            "midi": 64,
            "name": "E4",
            "ticks": 46800,
            "time": 76.97356875,
            "velocity": 0.16535433070866143
          },
          {
            "duration": 0.0789472499999988,
            "durationTicks": 48,
            "midi": 54,
            "name": "F#3",
            "ticks": 46848,
            "time": 77.052516,
            "velocity": 0.16535433070866143
          },
          {
            "duration": 0.0789472499999988,
            "durationTicks": 48,
            "midi": 59,
            "name": "B3",
            "ticks": 46896,
            "time": 77.13146325,
            "velocity": 0.16535433070866143
          },
          {
            "duration": 0.0789472499999988,
            "durationTicks": 48,
            "midi": 66,
            "name": "F#4",
            "ticks": 46944,
            "time": 77.2104105,
            "velocity": 0.16535433070866143
          },
          {
            "duration": 0.0789472499999988,
            "durationTicks": 48,
            "midi": 64,
            "name": "E4",
            "ticks": 46992,
            "time": 77.28935775,
            "velocity": 0.16535433070866143
          },
          {
            "duration": 0.0789472499999988,
            "durationTicks": 48,
            "midi": 67,
            "name": "G4",
            "ticks": 47040,
            "time": 77.36830499999999,
            "velocity": 0.16535433070866143
          },
          {
            "duration": 0.0789472499999988,
            "durationTicks": 48,
            "midi": 64,
            "name": "E4",
            "ticks": 47088,
            "time": 77.44725224999999,
            "velocity": 0.16535433070866143
          },
          {
            "duration": 0.07894725000001301,
            "durationTicks": 48,
            "midi": 66,
            "name": "F#4",
            "ticks": 47136,
            "time": 77.52619949999999,
            "velocity": 0.16535433070866143
          },
          {
            "duration": 0.0789472499999988,
            "durationTicks": 48,
            "midi": 64,
            "name": "E4",
            "ticks": 47184,
            "time": 77.60514675,
            "velocity": 0.16535433070866143
          },
          {
            "duration": 0.0789472499999988,
            "durationTicks": 48,
            "midi": 54,
            "name": "F#3",
            "ticks": 47232,
            "time": 77.684094,
            "velocity": 0.16535433070866143
          },
          {
            "duration": 0.0789472499999988,
            "durationTicks": 48,
            "midi": 59,
            "name": "B3",
            "ticks": 47280,
            "time": 77.76304125,
            "velocity": 0.16535433070866143
          },
          {
            "duration": 0.0789472499999988,
            "durationTicks": 48,
            "midi": 66,
            "name": "F#4",
            "ticks": 47328,
            "time": 77.8419885,
            "velocity": 0.16535433070866143
          },
          {
            "duration": 0.0789472499999988,
            "durationTicks": 48,
            "midi": 64,
            "name": "E4",
            "ticks": 47376,
            "time": 77.92093575,
            "velocity": 0.16535433070866143
          },
          {
            "duration": 0.0789472499999988,
            "durationTicks": 48,
            "midi": 67,
            "name": "G4",
            "ticks": 47424,
            "time": 77.999883,
            "velocity": 0.16535433070866143
          },
          {
            "duration": 0.0789472499999988,
            "durationTicks": 48,
            "midi": 64,
            "name": "E4",
            "ticks": 47472,
            "time": 78.07883025,
            "velocity": 0.16535433070866143
          },
          {
            "duration": 0.0789472499999988,
            "durationTicks": 48,
            "midi": 66,
            "name": "F#4",
            "ticks": 47520,
            "time": 78.1577775,
            "velocity": 0.16535433070866143
          },
          {
            "duration": 0.0789472499999988,
            "durationTicks": 48,
            "midi": 64,
            "name": "E4",
            "ticks": 47568,
            "time": 78.23672475,
            "velocity": 0.16535433070866143
          },
          {
            "duration": 0.0789472499999988,
            "durationTicks": 48,
            "midi": 59,
            "name": "B3",
            "ticks": 47616,
            "time": 78.31567199999999,
            "velocity": 0.16535433070866143
          },
          {
            "duration": 0.0789472499999988,
            "durationTicks": 48,
            "midi": 63,
            "name": "D#4",
            "ticks": 47664,
            "time": 78.39461924999999,
            "velocity": 0.16535433070866143
          },
          {
            "duration": 0.07894725000001301,
            "durationTicks": 48,
            "midi": 66,
            "name": "F#4",
            "ticks": 47712,
            "time": 78.47356649999999,
            "velocity": 0.16535433070866143
          },
          {
            "duration": 0.0789472499999988,
            "durationTicks": 48,
            "midi": 71,
            "name": "B4",
            "ticks": 47760,
            "time": 78.55251375,
            "velocity": 0.16535433070866143
          },
          {
            "duration": 0.0789472499999988,
            "durationTicks": 48,
            "midi": 75,
            "name": "D#5",
            "ticks": 47808,
            "time": 78.631461,
            "velocity": 0.16535433070866143
          },
          {
            "duration": 0.0789472499999988,
            "durationTicks": 48,
            "midi": 71,
            "name": "B4",
            "ticks": 47856,
            "time": 78.71040825,
            "velocity": 0.16535433070866143
          },
          {
            "duration": 0.0789472499999988,
            "durationTicks": 48,
            "midi": 66,
            "name": "F#4",
            "ticks": 47904,
            "time": 78.7893555,
            "velocity": 0.16535433070866143
          },
          {
            "duration": 0.0789472499999988,
            "durationTicks": 48,
            "midi": 63,
            "name": "D#4",
            "ticks": 47952,
            "time": 78.86830275,
            "velocity": 0.16535433070866143
          },
          {
            "duration": 0.0789472499999988,
            "durationTicks": 48,
            "midi": 59,
            "name": "B3",
            "ticks": 48000,
            "time": 78.94725,
            "velocity": 0.16535433070866143
          },
          {
            "duration": 0.0789472499999988,
            "durationTicks": 48,
            "midi": 63,
            "name": "D#4",
            "ticks": 48048,
            "time": 79.02619725,
            "velocity": 0.16535433070866143
          },
          {
            "duration": 0.0789472499999988,
            "durationTicks": 48,
            "midi": 66,
            "name": "F#4",
            "ticks": 48096,
            "time": 79.1051445,
            "velocity": 0.16535433070866143
          },
          {
            "duration": 0.0789472499999988,
            "durationTicks": 48,
            "midi": 71,
            "name": "B4",
            "ticks": 48144,
            "time": 79.18409175,
            "velocity": 0.16535433070866143
          },
          {
            "duration": 0.0789472499999988,
            "durationTicks": 48,
            "midi": 75,
            "name": "D#5",
            "ticks": 48192,
            "time": 79.26303899999999,
            "velocity": 0.16535433070866143
          },
          {
            "duration": 0.0789472499999988,
            "durationTicks": 48,
            "midi": 71,
            "name": "B4",
            "ticks": 48240,
            "time": 79.34198624999999,
            "velocity": 0.16535433070866143
          },
          {
            "duration": 0.07894725000001301,
            "durationTicks": 48,
            "midi": 66,
            "name": "F#4",
            "ticks": 48288,
            "time": 79.42093349999999,
            "velocity": 0.16535433070866143
          },
          {
            "duration": 0.0789472499999988,
            "durationTicks": 48,
            "midi": 63,
            "name": "D#4",
            "ticks": 48336,
            "time": 79.49988075,
            "velocity": 0.16535433070866143
          },
          {
            "duration": 0.0789472499999988,
            "durationTicks": 48,
            "midi": 58,
            "name": "A#3",
            "ticks": 48384,
            "time": 79.578828,
            "velocity": 0.16535433070866143
          },
          {
            "duration": 0.0789472499999988,
            "durationTicks": 48,
            "midi": 61,
            "name": "C#4",
            "ticks": 48432,
            "time": 79.65777525,
            "velocity": 0.16535433070866143
          },
          {
            "duration": 0.0789472499999988,
            "durationTicks": 48,
            "midi": 66,
            "name": "F#4",
            "ticks": 48480,
            "time": 79.7367225,
            "velocity": 0.16535433070866143
          },
          {
            "duration": 0.0789472499999988,
            "durationTicks": 48,
            "midi": 70,
            "name": "A#4",
            "ticks": 48528,
            "time": 79.81566975,
            "velocity": 0.16535433070866143
          },
          {
            "duration": 0.0789472499999988,
            "durationTicks": 48,
            "midi": 73,
            "name": "C#5",
            "ticks": 48576,
            "time": 79.894617,
            "velocity": 0.16535433070866143
          },
          {
            "duration": 0.0789472499999988,
            "durationTicks": 48,
            "midi": 70,
            "name": "A#4",
            "ticks": 48624,
            "time": 79.97356425,
            "velocity": 0.16535433070866143
          },
          {
            "duration": 0.0789472499999988,
            "durationTicks": 48,
            "midi": 66,
            "name": "F#4",
            "ticks": 48672,
            "time": 80.0525115,
            "velocity": 0.16535433070866143
          },
          {
            "duration": 0.0789472499999988,
            "durationTicks": 48,
            "midi": 61,
            "name": "C#4",
            "ticks": 48720,
            "time": 80.13145875,
            "velocity": 0.16535433070866143
          },
          {
            "duration": 0.0789472499999988,
            "durationTicks": 48,
            "midi": 58,
            "name": "A#3",
            "ticks": 48768,
            "time": 80.21040599999999,
            "velocity": 0.16535433070866143
          },
          {
            "duration": 0.0789472499999988,
            "durationTicks": 48,
            "midi": 61,
            "name": "C#4",
            "ticks": 48816,
            "time": 80.28935324999999,
            "velocity": 0.16535433070866143
          },
          {
            "duration": 0.07894725000001301,
            "durationTicks": 48,
            "midi": 66,
            "name": "F#4",
            "ticks": 48864,
            "time": 80.36830049999999,
            "velocity": 0.16535433070866143
          },
          {
            "duration": 0.0789472499999988,
            "durationTicks": 48,
            "midi": 70,
            "name": "A#4",
            "ticks": 48912,
            "time": 80.44724775,
            "velocity": 0.16535433070866143
          },
          {
            "duration": 0.0789472499999988,
            "durationTicks": 48,
            "midi": 73,
            "name": "C#5",
            "ticks": 48960,
            "time": 80.526195,
            "velocity": 0.16535433070866143
          },
          {
            "duration": 0.0789472499999988,
            "durationTicks": 48,
            "midi": 70,
            "name": "A#4",
            "ticks": 49008,
            "time": 80.60514225,
            "velocity": 0.16535433070866143
          },
          {
            "duration": 0.0789472499999988,
            "durationTicks": 48,
            "midi": 66,
            "name": "F#4",
            "ticks": 49056,
            "time": 80.6840895,
            "velocity": 0.16535433070866143
          },
          {
            "duration": 0.0789472499999988,
            "durationTicks": 48,
            "midi": 61,
            "name": "C#4",
            "ticks": 49104,
            "time": 80.76303675,
            "velocity": 0.16535433070866143
          }
        ],
        "endOfTrackTicks": 49152
      },
      {
        "channel": 8,
        "controlChanges": {},
        "pitchBends": [],
        "instrument": {
          "family": "percussive",
          "number": 114,
          "name": "steel drums"
        },
        "name": "Steel Drums",
        "notes": [
          {
            "duration": 0.1578945,
            "durationTicks": 96,
            "midi": 44,
            "name": "G#2",
            "ticks": 0,
            "time": 0,
            "velocity": 0.4409448818897638
          },
          {
            "duration": 0.1578945,
            "durationTicks": 96,
            "midi": 47,
            "name": "B2",
            "ticks": 96,
            "time": 0.1578945,
            "velocity": 0.4409448818897638
          },
          {
            "duration": 0.1578945,
            "durationTicks": 96,
            "midi": 39,
            "name": "D#2",
            "ticks": 192,
            "time": 0.315789,
            "velocity": 0.4409448818897638
          },
          {
            "duration": 0.1578945,
            "durationTicks": 96,
            "midi": 47,
            "name": "B2",
            "ticks": 288,
            "time": 0.4736835,
            "velocity": 0.4409448818897638
          },
          {
            "duration": 0.15789450000000005,
            "durationTicks": 96,
            "midi": 44,
            "name": "G#2",
            "ticks": 384,
            "time": 0.631578,
            "velocity": 0.4409448818897638
          },
          {
            "duration": 0.15789449999999994,
            "durationTicks": 96,
            "midi": 47,
            "name": "B2",
            "ticks": 480,
            "time": 0.7894725,
            "velocity": 0.4409448818897638
          },
          {
            "duration": 0.15789449999999994,
            "durationTicks": 96,
            "midi": 39,
            "name": "D#2",
            "ticks": 576,
            "time": 0.947367,
            "velocity": 0.4409448818897638
          },
          {
            "duration": 0.15789450000000005,
            "durationTicks": 96,
            "midi": 47,
            "name": "B2",
            "ticks": 672,
            "time": 1.1052615,
            "velocity": 0.4409448818897638
          },
          {
            "duration": 0.15789450000000005,
            "durationTicks": 96,
            "midi": 44,
            "name": "G#2",
            "ticks": 768,
            "time": 1.263156,
            "velocity": 0.4409448818897638
          },
          {
            "duration": 0.15789450000000005,
            "durationTicks": 96,
            "midi": 47,
            "name": "B2",
            "ticks": 864,
            "time": 1.4210505,
            "velocity": 0.4409448818897638
          },
          {
            "duration": 0.15789449999999983,
            "durationTicks": 96,
            "midi": 39,
            "name": "D#2",
            "ticks": 960,
            "time": 1.578945,
            "velocity": 0.4409448818897638
          },
          {
            "duration": 0.15789450000000005,
            "durationTicks": 96,
            "midi": 47,
            "name": "B2",
            "ticks": 1056,
            "time": 1.7368394999999999,
            "velocity": 0.4409448818897638
          },
          {
            "duration": 0.15789450000000005,
            "durationTicks": 96,
            "midi": 44,
            "name": "G#2",
            "ticks": 1152,
            "time": 1.894734,
            "velocity": 0.4409448818897638
          },
          {
            "duration": 0.15789449999999983,
            "durationTicks": 96,
            "midi": 47,
            "name": "B2",
            "ticks": 1248,
            "time": 2.0526285,
            "velocity": 0.4409448818897638
          },
          {
            "duration": 0.15789450000000027,
            "durationTicks": 96,
            "midi": 39,
            "name": "D#2",
            "ticks": 1344,
            "time": 2.210523,
            "velocity": 0.4409448818897638
          },
          {
            "duration": 0.15789449999999983,
            "durationTicks": 96,
            "midi": 47,
            "name": "B2",
            "ticks": 1440,
            "time": 2.3684175,
            "velocity": 0.4409448818897638
          },
          {
            "duration": 0.15789449999999983,
            "durationTicks": 96,
            "midi": 40,
            "name": "E2",
            "ticks": 1536,
            "time": 2.526312,
            "velocity": 0.4409448818897638
          },
          {
            "duration": 0.15789450000000027,
            "durationTicks": 96,
            "midi": 43,
            "name": "G2",
            "ticks": 1632,
            "time": 2.6842064999999997,
            "velocity": 0.4409448818897638
          },
          {
            "duration": 0.15789449999999983,
            "durationTicks": 96,
            "midi": 35,
            "name": "B1",
            "ticks": 1728,
            "time": 2.842101,
            "velocity": 0.4409448818897638
          },
          {
            "duration": 0.15789450000000027,
            "durationTicks": 96,
            "midi": 43,
            "name": "G2",
            "ticks": 1824,
            "time": 2.9999955,
            "velocity": 0.4409448818897638
          },
          {
            "duration": 0.15789449999999983,
            "durationTicks": 96,
            "midi": 40,
            "name": "E2",
            "ticks": 1920,
            "time": 3.15789,
            "velocity": 0.4409448818897638
          },
          {
            "duration": 0.15789449999999983,
            "durationTicks": 96,
            "midi": 43,
            "name": "G2",
            "ticks": 2016,
            "time": 3.3157845,
            "velocity": 0.4409448818897638
          },
          {
            "duration": 0.15789450000000027,
            "durationTicks": 96,
            "midi": 35,
            "name": "B1",
            "ticks": 2112,
            "time": 3.4736789999999997,
            "velocity": 0.4409448818897638
          },
          {
            "duration": 0.15789449999999983,
            "durationTicks": 96,
            "midi": 43,
            "name": "G2",
            "ticks": 2208,
            "time": 3.6315735,
            "velocity": 0.4409448818897638
          },
          {
            "duration": 0.15789449999999983,
            "durationTicks": 96,
            "midi": 40,
            "name": "E2",
            "ticks": 2304,
            "time": 3.789468,
            "velocity": 0.4409448818897638
          },
          {
            "duration": 0.15789450000000027,
            "durationTicks": 96,
            "midi": 43,
            "name": "G2",
            "ticks": 2400,
            "time": 3.9473624999999997,
            "velocity": 0.4409448818897638
          },
          {
            "duration": 0.15789450000000027,
            "durationTicks": 96,
            "midi": 35,
            "name": "B1",
            "ticks": 2496,
            "time": 4.105257,
            "velocity": 0.4409448818897638
          },
          {
            "duration": 0.15789449999999938,
            "durationTicks": 96,
            "midi": 43,
            "name": "G2",
            "ticks": 2592,
            "time": 4.2631515,
            "velocity": 0.4409448818897638
          },
          {
            "duration": 0.15789450000000027,
            "durationTicks": 96,
            "midi": 42,
            "name": "F#2",
            "ticks": 2688,
            "time": 4.421046,
            "velocity": 0.4409448818897638
          },
          {
            "duration": 0.15789450000000027,
            "durationTicks": 96,
            "midi": 43,
            "name": "G2",
            "ticks": 2784,
            "time": 4.5789405,
            "velocity": 0.4409448818897638
          },
          {
            "duration": 0.15789449999999938,
            "durationTicks": 96,
            "midi": 37,
            "name": "C#2",
            "ticks": 2880,
            "time": 4.736835,
            "velocity": 0.4409448818897638
          },
          {
            "duration": 0.15789450000000027,
            "durationTicks": 96,
            "midi": 43,
            "name": "G2",
            "ticks": 2976,
            "time": 4.8947294999999995,
            "velocity": 0.4409448818897638
          },
          {
            "duration": 0.15789450000000027,
            "durationTicks": 96,
            "midi": 44,
            "name": "G#2",
            "ticks": 3072,
            "time": 5.052624,
            "velocity": 0.4409448818897638
          },
          {
            "duration": 0.15789449999999938,
            "durationTicks": 96,
            "midi": 47,
            "name": "B2",
            "ticks": 3168,
            "time": 5.2105185,
            "velocity": 0.4409448818897638
          },
          {
            "duration": 0.15789450000000027,
            "durationTicks": 96,
            "midi": 39,
            "name": "D#2",
            "ticks": 3264,
            "time": 5.368412999999999,
            "velocity": 0.4409448818897638
          },
          {
            "duration": 0.15789450000000027,
            "durationTicks": 96,
            "midi": 47,
            "name": "B2",
            "ticks": 3360,
            "time": 5.5263075,
            "velocity": 0.4409448818897638
          },
          {
            "duration": 0.15789449999999938,
            "durationTicks": 96,
            "midi": 44,
            "name": "G#2",
            "ticks": 3456,
            "time": 5.684202,
            "velocity": 0.4409448818897638
          },
          {
            "duration": 0.15789450000000027,
            "durationTicks": 96,
            "midi": 47,
            "name": "B2",
            "ticks": 3552,
            "time": 5.842096499999999,
            "velocity": 0.4409448818897638
          },
          {
            "duration": 0.15789450000000027,
            "durationTicks": 96,
            "midi": 39,
            "name": "D#2",
            "ticks": 3648,
            "time": 5.999991,
            "velocity": 0.4409448818897638
          },
          {
            "duration": 0.15789450000000027,
            "durationTicks": 96,
            "midi": 47,
            "name": "B2",
            "ticks": 3744,
            "time": 6.1578855,
            "velocity": 0.4409448818897638
          },
          {
            "duration": 0.15789449999999938,
            "durationTicks": 96,
            "midi": 44,
            "name": "G#2",
            "ticks": 3840,
            "time": 6.31578,
            "velocity": 0.4409448818897638
          },
          {
            "duration": 0.15789450000000027,
            "durationTicks": 96,
            "midi": 47,
            "name": "B2",
            "ticks": 3936,
            "time": 6.4736744999999996,
            "velocity": 0.4409448818897638
          },
          {
            "duration": 0.15789450000000027,
            "durationTicks": 96,
            "midi": 39,
            "name": "D#2",
            "ticks": 4032,
            "time": 6.631569,
            "velocity": 0.4409448818897638
          },
          {
            "duration": 0.15789449999999938,
            "durationTicks": 96,
            "midi": 47,
            "name": "B2",
            "ticks": 4128,
            "time": 6.7894635,
            "velocity": 0.4409448818897638
          },
          {
            "duration": 0.15789450000000027,
            "durationTicks": 96,
            "midi": 44,
            "name": "G#2",
            "ticks": 4224,
            "time": 6.9473579999999995,
            "velocity": 0.4409448818897638
          },
          {
            "duration": 0.15789450000000027,
            "durationTicks": 96,
            "midi": 47,
            "name": "B2",
            "ticks": 4320,
            "time": 7.1052525,
            "velocity": 0.4409448818897638
          },
          {
            "duration": 0.15789449999999938,
            "durationTicks": 96,
            "midi": 39,
            "name": "D#2",
            "ticks": 4416,
            "time": 7.263147,
            "velocity": 0.4409448818897638
          },
          {
            "duration": 0.15789450000000027,
            "durationTicks": 96,
            "midi": 47,
            "name": "B2",
            "ticks": 4512,
            "time": 7.421041499999999,
            "velocity": 0.4409448818897638
          },
          {
            "duration": 0.15789450000000027,
            "durationTicks": 96,
            "midi": 40,
            "name": "E2",
            "ticks": 4608,
            "time": 7.578936,
            "velocity": 0.4409448818897638
          },
          {
            "duration": 0.15789449999999938,
            "durationTicks": 96,
            "midi": 47,
            "name": "B2",
            "ticks": 4704,
            "time": 7.7368305,
            "velocity": 0.4409448818897638
          },
          {
            "duration": 0.15789450000000116,
            "durationTicks": 96,
            "midi": 44,
            "name": "G#2",
            "ticks": 4800,
            "time": 7.894724999999999,
            "velocity": 0.4409448818897638
          },
          {
            "duration": 0.15789449999999938,
            "durationTicks": 96,
            "midi": 47,
            "name": "B2",
            "ticks": 4896,
            "time": 8.0526195,
            "velocity": 0.4409448818897638
          },
          {
            "duration": 0.15789449999999938,
            "durationTicks": 96,
            "midi": 40,
            "name": "E2",
            "ticks": 4992,
            "time": 8.210514,
            "velocity": 0.4409448818897638
          },
          {
            "duration": 0.15789450000000116,
            "durationTicks": 96,
            "midi": 47,
            "name": "B2",
            "ticks": 5088,
            "time": 8.3684085,
            "velocity": 0.4409448818897638
          },
          {
            "duration": 0.15789449999999938,
            "durationTicks": 96,
            "midi": 44,
            "name": "G#2",
            "ticks": 5184,
            "time": 8.526303,
            "velocity": 0.4409448818897638
          },
          {
            "duration": 0.15789449999999938,
            "durationTicks": 96,
            "midi": 47,
            "name": "B2",
            "ticks": 5280,
            "time": 8.6841975,
            "velocity": 0.4409448818897638
          },
          {
            "duration": 0.15789450000000116,
            "durationTicks": 96,
            "midi": 42,
            "name": "F#2",
            "ticks": 5376,
            "time": 8.842092,
            "velocity": 0.4409448818897638
          },
          {
            "duration": 0.15789449999999938,
            "durationTicks": 96,
            "midi": 51,
            "name": "D#3",
            "ticks": 5472,
            "time": 8.9999865,
            "velocity": 0.4409448818897638
          },
          {
            "duration": 0.15789449999999938,
            "durationTicks": 96,
            "midi": 47,
            "name": "B2",
            "ticks": 5568,
            "time": 9.157881,
            "velocity": 0.4409448818897638
          },
          {
            "duration": 0.15789450000000116,
            "durationTicks": 96,
            "midi": 51,
            "name": "D#3",
            "ticks": 5664,
            "time": 9.315775499999999,
            "velocity": 0.4409448818897638
          },
          {
            "duration": 0.15789449999999938,
            "durationTicks": 96,
            "midi": 42,
            "name": "F#2",
            "ticks": 5760,
            "time": 9.47367,
            "velocity": 0.4409448818897638
          },
          {
            "duration": 0.15789449999999938,
            "durationTicks": 96,
            "midi": 49,
            "name": "C#3",
            "ticks": 5856,
            "time": 9.6315645,
            "velocity": 0.4409448818897638
          },
          {
            "duration": 0.15789450000000116,
            "durationTicks": 96,
            "midi": 46,
            "name": "A#2",
            "ticks": 5952,
            "time": 9.789458999999999,
            "velocity": 0.4409448818897638
          },
          {
            "duration": 0.15789449999999938,
            "durationTicks": 96,
            "midi": 49,
            "name": "C#3",
            "ticks": 6048,
            "time": 9.9473535,
            "velocity": 0.4409448818897638
          },
          {
            "duration": 0.15789449999999938,
            "durationTicks": 96,
            "midi": 44,
            "name": "G#2",
            "ticks": 6144,
            "time": 10.105248,
            "velocity": 0.4409448818897638
          },
          {
            "duration": 0.15789450000000116,
            "durationTicks": 96,
            "midi": 47,
            "name": "B2",
            "ticks": 6240,
            "time": 10.263142499999999,
            "velocity": 0.4409448818897638
          },
          {
            "duration": 0.15789449999999938,
            "durationTicks": 96,
            "midi": 39,
            "name": "D#2",
            "ticks": 6336,
            "time": 10.421037,
            "velocity": 0.4409448818897638
          },
          {
            "duration": 0.15789449999999938,
            "durationTicks": 96,
            "midi": 47,
            "name": "B2",
            "ticks": 6432,
            "time": 10.5789315,
            "velocity": 0.4409448818897638
          },
          {
            "duration": 0.15789450000000116,
            "durationTicks": 96,
            "midi": 44,
            "name": "G#2",
            "ticks": 6528,
            "time": 10.736825999999999,
            "velocity": 0.4409448818897638
          },
          {
            "duration": 0.15789449999999938,
            "durationTicks": 96,
            "midi": 47,
            "name": "B2",
            "ticks": 6624,
            "time": 10.8947205,
            "velocity": 0.4409448818897638
          },
          {
            "duration": 0.15789449999999938,
            "durationTicks": 96,
            "midi": 39,
            "name": "D#2",
            "ticks": 6720,
            "time": 11.052615,
            "velocity": 0.4409448818897638
          },
          {
            "duration": 0.15789450000000116,
            "durationTicks": 96,
            "midi": 47,
            "name": "B2",
            "ticks": 6816,
            "time": 11.210509499999999,
            "velocity": 0.4409448818897638
          },
          {
            "duration": 0.15789449999999938,
            "durationTicks": 96,
            "midi": 44,
            "name": "G#2",
            "ticks": 6912,
            "time": 11.368404,
            "velocity": 0.4409448818897638
          },
          {
            "duration": 0.15789449999999938,
            "durationTicks": 96,
            "midi": 47,
            "name": "B2",
            "ticks": 7008,
            "time": 11.5262985,
            "velocity": 0.4409448818897638
          },
          {
            "duration": 0.15789450000000116,
            "durationTicks": 96,
            "midi": 39,
            "name": "D#2",
            "ticks": 7104,
            "time": 11.684192999999999,
            "velocity": 0.4409448818897638
          },
          {
            "duration": 0.15789449999999938,
            "durationTicks": 96,
            "midi": 47,
            "name": "B2",
            "ticks": 7200,
            "time": 11.8420875,
            "velocity": 0.4409448818897638
          },
          {
            "duration": 0.15789449999999938,
            "durationTicks": 96,
            "midi": 44,
            "name": "G#2",
            "ticks": 7296,
            "time": 11.999982,
            "velocity": 0.4409448818897638
          },
          {
            "duration": 0.15789450000000116,
            "durationTicks": 96,
            "midi": 47,
            "name": "B2",
            "ticks": 7392,
            "time": 12.157876499999999,
            "velocity": 0.4409448818897638
          },
          {
            "duration": 0.15789449999999938,
            "durationTicks": 96,
            "midi": 39,
            "name": "D#2",
            "ticks": 7488,
            "time": 12.315771,
            "velocity": 0.4409448818897638
          },
          {
            "duration": 0.15789450000000116,
            "durationTicks": 96,
            "midi": 47,
            "name": "B2",
            "ticks": 7584,
            "time": 12.4736655,
            "velocity": 0.4409448818897638
          },
          {
            "duration": 0.15789449999999938,
            "durationTicks": 96,
            "midi": 40,
            "name": "E2",
            "ticks": 7680,
            "time": 12.63156,
            "velocity": 0.4409448818897638
          },
          {
            "duration": 0.15789449999999938,
            "durationTicks": 96,
            "midi": 43,
            "name": "G2",
            "ticks": 7776,
            "time": 12.7894545,
            "velocity": 0.4409448818897638
          },
          {
            "duration": 0.15789450000000116,
            "durationTicks": 96,
            "midi": 35,
            "name": "B1",
            "ticks": 7872,
            "time": 12.947348999999999,
            "velocity": 0.4409448818897638
          },
          {
            "duration": 0.15789449999999938,
            "durationTicks": 96,
            "midi": 43,
            "name": "G2",
            "ticks": 7968,
            "time": 13.1052435,
            "velocity": 0.4409448818897638
          },
          {
            "duration": 0.15789449999999938,
            "durationTicks": 96,
            "midi": 40,
            "name": "E2",
            "ticks": 8064,
            "time": 13.263138,
            "velocity": 0.4409448818897638
          },
          {
            "duration": 0.15789450000000116,
            "durationTicks": 96,
            "midi": 43,
            "name": "G2",
            "ticks": 8160,
            "time": 13.421032499999999,
            "velocity": 0.4409448818897638
          },
          {
            "duration": 0.15789449999999938,
            "durationTicks": 96,
            "midi": 35,
            "name": "B1",
            "ticks": 8256,
            "time": 13.578927,
            "velocity": 0.4409448818897638
          },
          {
            "duration": 0.15789449999999938,
            "durationTicks": 96,
            "midi": 43,
            "name": "G2",
            "ticks": 8352,
            "time": 13.7368215,
            "velocity": 0.4409448818897638
          },
          {
            "duration": 0.15789450000000116,
            "durationTicks": 96,
            "midi": 40,
            "name": "E2",
            "ticks": 8448,
            "time": 13.894715999999999,
            "velocity": 0.4409448818897638
          },
          {
            "duration": 0.15789449999999938,
            "durationTicks": 96,
            "midi": 43,
            "name": "G2",
            "ticks": 8544,
            "time": 14.0526105,
            "velocity": 0.4409448818897638
          },
          {
            "duration": 0.15789449999999938,
            "durationTicks": 96,
            "midi": 35,
            "name": "B1",
            "ticks": 8640,
            "time": 14.210505,
            "velocity": 0.4409448818897638
          },
          {
            "duration": 0.15789450000000116,
            "durationTicks": 96,
            "midi": 43,
            "name": "G2",
            "ticks": 8736,
            "time": 14.368399499999999,
            "velocity": 0.4409448818897638
          },
          {
            "duration": 0.15789449999999938,
            "durationTicks": 96,
            "midi": 42,
            "name": "F#2",
            "ticks": 8832,
            "time": 14.526294,
            "velocity": 0.4409448818897638
          },
          {
            "duration": 0.15789449999999938,
            "durationTicks": 96,
            "midi": 43,
            "name": "G2",
            "ticks": 8928,
            "time": 14.6841885,
            "velocity": 0.4409448818897638
          },
          {
            "duration": 0.15789450000000116,
            "durationTicks": 96,
            "midi": 37,
            "name": "C#2",
            "ticks": 9024,
            "time": 14.842082999999999,
            "velocity": 0.4409448818897638
          },
          {
            "duration": 0.15789449999999938,
            "durationTicks": 96,
            "midi": 43,
            "name": "G2",
            "ticks": 9120,
            "time": 14.9999775,
            "velocity": 0.4409448818897638
          },
          {
            "duration": 0.15789449999999938,
            "durationTicks": 96,
            "midi": 44,
            "name": "G#2",
            "ticks": 9216,
            "time": 15.157872,
            "velocity": 0.4409448818897638
          },
          {
            "duration": 0.15789450000000116,
            "durationTicks": 96,
            "midi": 47,
            "name": "B2",
            "ticks": 9312,
            "time": 15.315766499999999,
            "velocity": 0.4409448818897638
          },
          {
            "duration": 0.15789449999999938,
            "durationTicks": 96,
            "midi": 39,
            "name": "D#2",
            "ticks": 9408,
            "time": 15.473661,
            "velocity": 0.4409448818897638
          },
          {
            "duration": 0.15789449999999938,
            "durationTicks": 96,
            "midi": 47,
            "name": "B2",
            "ticks": 9504,
            "time": 15.6315555,
            "velocity": 0.4409448818897638
          },
          {
            "duration": 0.15789450000000116,
            "durationTicks": 96,
            "midi": 44,
            "name": "G#2",
            "ticks": 9600,
            "time": 15.789449999999999,
            "velocity": 0.4409448818897638
          },
          {
            "duration": 0.15789450000000116,
            "durationTicks": 96,
            "midi": 47,
            "name": "B2",
            "ticks": 9696,
            "time": 15.9473445,
            "velocity": 0.4409448818897638
          },
          {
            "duration": 0.1578944999999976,
            "durationTicks": 96,
            "midi": 39,
            "name": "D#2",
            "ticks": 9792,
            "time": 16.105239,
            "velocity": 0.4409448818897638
          },
          {
            "duration": 0.15789450000000116,
            "durationTicks": 96,
            "midi": 47,
            "name": "B2",
            "ticks": 9888,
            "time": 16.2631335,
            "velocity": 0.4409448818897638
          },
          {
            "duration": 0.15789450000000116,
            "durationTicks": 96,
            "midi": 44,
            "name": "G#2",
            "ticks": 9984,
            "time": 16.421028,
            "velocity": 0.4409448818897638
          },
          {
            "duration": 0.1578944999999976,
            "durationTicks": 96,
            "midi": 47,
            "name": "B2",
            "ticks": 10080,
            "time": 16.5789225,
            "velocity": 0.4409448818897638
          },
          {
            "duration": 0.15789450000000116,
            "durationTicks": 96,
            "midi": 39,
            "name": "D#2",
            "ticks": 10176,
            "time": 16.736817,
            "velocity": 0.4409448818897638
          },
          {
            "duration": 0.15789450000000116,
            "durationTicks": 96,
            "midi": 47,
            "name": "B2",
            "ticks": 10272,
            "time": 16.8947115,
            "velocity": 0.4409448818897638
          },
          {
            "duration": 0.1578944999999976,
            "durationTicks": 96,
            "midi": 44,
            "name": "G#2",
            "ticks": 10368,
            "time": 17.052606,
            "velocity": 0.4409448818897638
          },
          {
            "duration": 0.15789450000000116,
            "durationTicks": 96,
            "midi": 47,
            "name": "B2",
            "ticks": 10464,
            "time": 17.2105005,
            "velocity": 0.4409448818897638
          },
          {
            "duration": 0.15789450000000116,
            "durationTicks": 96,
            "midi": 39,
            "name": "D#2",
            "ticks": 10560,
            "time": 17.368395,
            "velocity": 0.4409448818897638
          },
          {
            "duration": 0.1578944999999976,
            "durationTicks": 96,
            "midi": 47,
            "name": "B2",
            "ticks": 10656,
            "time": 17.5262895,
            "velocity": 0.4409448818897638
          },
          {
            "duration": 0.15789450000000116,
            "durationTicks": 96,
            "midi": 44,
            "name": "G#2",
            "ticks": 10752,
            "time": 17.684184,
            "velocity": 0.4409448818897638
          },
          {
            "duration": 0.15789450000000116,
            "durationTicks": 96,
            "midi": 40,
            "name": "E2",
            "ticks": 10752,
            "time": 17.684184,
            "velocity": 0.4409448818897638
          },
          {
            "duration": 0.15789450000000116,
            "durationTicks": 96,
            "midi": 47,
            "name": "B2",
            "ticks": 10752,
            "time": 17.684184,
            "velocity": 0.4409448818897638
          },
          {
            "duration": 0.15789450000000116,
            "durationTicks": 96,
            "midi": 44,
            "name": "G#2",
            "ticks": 10848,
            "time": 17.8420785,
            "velocity": 0.4409448818897638
          },
          {
            "duration": 0.15789450000000116,
            "durationTicks": 96,
            "midi": 47,
            "name": "B2",
            "ticks": 10848,
            "time": 17.8420785,
            "velocity": 0.4409448818897638
          },
          {
            "duration": 0.15789450000000116,
            "durationTicks": 96,
            "midi": 40,
            "name": "E2",
            "ticks": 10848,
            "time": 17.8420785,
            "velocity": 0.4409448818897638
          },
          {
            "duration": 0.1578944999999976,
            "durationTicks": 96,
            "midi": 44,
            "name": "G#2",
            "ticks": 10944,
            "time": 17.999973,
            "velocity": 0.4409448818897638
          },
          {
            "duration": 0.1578944999999976,
            "durationTicks": 96,
            "midi": 40,
            "name": "E2",
            "ticks": 10944,
            "time": 17.999973,
            "velocity": 0.4409448818897638
          },
          {
            "duration": 0.1578944999999976,
            "durationTicks": 96,
            "midi": 47,
            "name": "B2",
            "ticks": 10944,
            "time": 17.999973,
            "velocity": 0.4409448818897638
          },
          {
            "duration": 0.15789450000000116,
            "durationTicks": 96,
            "midi": 40,
            "name": "E2",
            "ticks": 11040,
            "time": 18.1578675,
            "velocity": 0.4409448818897638
          },
          {
            "duration": 0.15789450000000116,
            "durationTicks": 96,
            "midi": 44,
            "name": "G#2",
            "ticks": 11040,
            "time": 18.1578675,
            "velocity": 0.4409448818897638
          },
          {
            "duration": 0.15789450000000116,
            "durationTicks": 96,
            "midi": 47,
            "name": "B2",
            "ticks": 11040,
            "time": 18.1578675,
            "velocity": 0.4409448818897638
          },
          {
            "duration": 0.15789450000000116,
            "durationTicks": 96,
            "midi": 40,
            "name": "E2",
            "ticks": 11136,
            "time": 18.315762,
            "velocity": 0.4409448818897638
          },
          {
            "duration": 0.15789450000000116,
            "durationTicks": 96,
            "midi": 47,
            "name": "B2",
            "ticks": 11136,
            "time": 18.315762,
            "velocity": 0.4409448818897638
          },
          {
            "duration": 0.15789450000000116,
            "durationTicks": 96,
            "midi": 44,
            "name": "G#2",
            "ticks": 11136,
            "time": 18.315762,
            "velocity": 0.4409448818897638
          },
          {
            "duration": 0.1578944999999976,
            "durationTicks": 96,
            "midi": 47,
            "name": "B2",
            "ticks": 11232,
            "time": 18.4736565,
            "velocity": 0.4409448818897638
          },
          {
            "duration": 0.1578944999999976,
            "durationTicks": 96,
            "midi": 40,
            "name": "E2",
            "ticks": 11232,
            "time": 18.4736565,
            "velocity": 0.4409448818897638
          },
          {
            "duration": 0.1578944999999976,
            "durationTicks": 96,
            "midi": 44,
            "name": "G#2",
            "ticks": 11232,
            "time": 18.4736565,
            "velocity": 0.4409448818897638
          },
          {
            "duration": 0.15789450000000116,
            "durationTicks": 96,
            "midi": 47,
            "name": "B2",
            "ticks": 11328,
            "time": 18.631550999999998,
            "velocity": 0.4409448818897638
          },
          {
            "duration": 0.15789450000000116,
            "durationTicks": 96,
            "midi": 44,
            "name": "G#2",
            "ticks": 11328,
            "time": 18.631550999999998,
            "velocity": 0.4409448818897638
          },
          {
            "duration": 0.15789450000000116,
            "durationTicks": 96,
            "midi": 40,
            "name": "E2",
            "ticks": 11328,
            "time": 18.631550999999998,
            "velocity": 0.4409448818897638
          },
          {
            "duration": 0.15789450000000116,
            "durationTicks": 96,
            "midi": 44,
            "name": "G#2",
            "ticks": 11424,
            "time": 18.7894455,
            "velocity": 0.4409448818897638
          },
          {
            "duration": 0.15789450000000116,
            "durationTicks": 96,
            "midi": 47,
            "name": "B2",
            "ticks": 11424,
            "time": 18.7894455,
            "velocity": 0.4409448818897638
          },
          {
            "duration": 0.15789450000000116,
            "durationTicks": 96,
            "midi": 40,
            "name": "E2",
            "ticks": 11424,
            "time": 18.7894455,
            "velocity": 0.4409448818897638
          },
          {
            "duration": 0.1578944999999976,
            "durationTicks": 96,
            "midi": 49,
            "name": "C#3",
            "ticks": 11520,
            "time": 18.94734,
            "velocity": 0.4409448818897638
          },
          {
            "duration": 0.1578944999999976,
            "durationTicks": 96,
            "midi": 46,
            "name": "A#2",
            "ticks": 11520,
            "time": 18.94734,
            "velocity": 0.4409448818897638
          },
          {
            "duration": 0.1578944999999976,
            "durationTicks": 96,
            "midi": 42,
            "name": "F#2",
            "ticks": 11520,
            "time": 18.94734,
            "velocity": 0.4409448818897638
          },
          {
            "duration": 0.15789450000000116,
            "durationTicks": 96,
            "midi": 46,
            "name": "A#2",
            "ticks": 11616,
            "time": 19.105234499999998,
            "velocity": 0.4409448818897638
          },
          {
            "duration": 0.15789450000000116,
            "durationTicks": 96,
            "midi": 42,
            "name": "F#2",
            "ticks": 11616,
            "time": 19.105234499999998,
            "velocity": 0.4409448818897638
          },
          {
            "duration": 0.15789450000000116,
            "durationTicks": 96,
            "midi": 49,
            "name": "C#3",
            "ticks": 11616,
            "time": 19.105234499999998,
            "velocity": 0.4409448818897638
          },
          {
            "duration": 0.15789450000000116,
            "durationTicks": 96,
            "midi": 49,
            "name": "C#3",
            "ticks": 11712,
            "time": 19.263129,
            "velocity": 0.4409448818897638
          },
          {
            "duration": 0.15789450000000116,
            "durationTicks": 96,
            "midi": 42,
            "name": "F#2",
            "ticks": 11712,
            "time": 19.263129,
            "velocity": 0.4409448818897638
          },
          {
            "duration": 0.15789450000000116,
            "durationTicks": 96,
            "midi": 46,
            "name": "A#2",
            "ticks": 11712,
            "time": 19.263129,
            "velocity": 0.4409448818897638
          },
          {
            "duration": 0.1578944999999976,
            "durationTicks": 96,
            "midi": 42,
            "name": "F#2",
            "ticks": 11808,
            "time": 19.4210235,
            "velocity": 0.4409448818897638
          },
          {
            "duration": 0.1578944999999976,
            "durationTicks": 96,
            "midi": 46,
            "name": "A#2",
            "ticks": 11808,
            "time": 19.4210235,
            "velocity": 0.4409448818897638
          },
          {
            "duration": 0.1578944999999976,
            "durationTicks": 96,
            "midi": 49,
            "name": "C#3",
            "ticks": 11808,
            "time": 19.4210235,
            "velocity": 0.4409448818897638
          },
          {
            "duration": 0.15789450000000116,
            "durationTicks": 96,
            "midi": 46,
            "name": "A#2",
            "ticks": 11904,
            "time": 19.578917999999998,
            "velocity": 0.4409448818897638
          },
          {
            "duration": 0.15789450000000116,
            "durationTicks": 96,
            "midi": 49,
            "name": "C#3",
            "ticks": 11904,
            "time": 19.578917999999998,
            "velocity": 0.4409448818897638
          },
          {
            "duration": 0.15789450000000116,
            "durationTicks": 96,
            "midi": 42,
            "name": "F#2",
            "ticks": 11904,
            "time": 19.578917999999998,
            "velocity": 0.4409448818897638
          },
          {
            "duration": 0.15789450000000116,
            "durationTicks": 96,
            "midi": 46,
            "name": "A#2",
            "ticks": 12000,
            "time": 19.7368125,
            "velocity": 0.4409448818897638
          },
          {
            "duration": 0.15789450000000116,
            "durationTicks": 96,
            "midi": 42,
            "name": "F#2",
            "ticks": 12000,
            "time": 19.7368125,
            "velocity": 0.4409448818897638
          },
          {
            "duration": 0.15789450000000116,
            "durationTicks": 96,
            "midi": 49,
            "name": "C#3",
            "ticks": 12000,
            "time": 19.7368125,
            "velocity": 0.4409448818897638
          },
          {
            "duration": 0.1578944999999976,
            "durationTicks": 96,
            "midi": 46,
            "name": "A#2",
            "ticks": 12096,
            "time": 19.894707,
            "velocity": 0.4409448818897638
          },
          {
            "duration": 0.1578944999999976,
            "durationTicks": 96,
            "midi": 42,
            "name": "F#2",
            "ticks": 12096,
            "time": 19.894707,
            "velocity": 0.4409448818897638
          },
          {
            "duration": 0.1578944999999976,
            "durationTicks": 96,
            "midi": 49,
            "name": "C#3",
            "ticks": 12096,
            "time": 19.894707,
            "velocity": 0.4409448818897638
          },
          {
            "duration": 0.15789450000000116,
            "durationTicks": 96,
            "midi": 46,
            "name": "A#2",
            "ticks": 12192,
            "time": 20.052601499999998,
            "velocity": 0.4409448818897638
          },
          {
            "duration": 0.15789450000000116,
            "durationTicks": 96,
            "midi": 42,
            "name": "F#2",
            "ticks": 12192,
            "time": 20.052601499999998,
            "velocity": 0.4409448818897638
          },
          {
            "duration": 0.15789450000000116,
            "durationTicks": 96,
            "midi": 49,
            "name": "C#3",
            "ticks": 12192,
            "time": 20.052601499999998,
            "velocity": 0.4409448818897638
          },
          {
            "duration": 0.15789450000000116,
            "durationTicks": 96,
            "midi": 40,
            "name": "E2",
            "ticks": 12288,
            "time": 20.210496,
            "velocity": 0.4409448818897638
          },
          {
            "duration": 0.1578944999999976,
            "durationTicks": 96,
            "midi": 44,
            "name": "G#2",
            "ticks": 12384,
            "time": 20.3683905,
            "velocity": 0.4409448818897638
          },
          {
            "duration": 0.15789450000000116,
            "durationTicks": 96,
            "midi": 35,
            "name": "B1",
            "ticks": 12480,
            "time": 20.526284999999998,
            "velocity": 0.4409448818897638
          },
          {
            "duration": 0.15789450000000116,
            "durationTicks": 96,
            "midi": 44,
            "name": "G#2",
            "ticks": 12576,
            "time": 20.6841795,
            "velocity": 0.4409448818897638
          },
          {
            "duration": 0.1578944999999976,
            "durationTicks": 96,
            "midi": 40,
            "name": "E2",
            "ticks": 12672,
            "time": 20.842074,
            "velocity": 0.4409448818897638
          },
          {
            "duration": 0.15789450000000116,
            "durationTicks": 96,
            "midi": 44,
            "name": "G#2",
            "ticks": 12768,
            "time": 20.999968499999998,
            "velocity": 0.4409448818897638
          },
          {
            "duration": 0.15789450000000116,
            "durationTicks": 96,
            "midi": 35,
            "name": "B1",
            "ticks": 12864,
            "time": 21.157863,
            "velocity": 0.4409448818897638
          },
          {
            "duration": 0.1578944999999976,
            "durationTicks": 96,
            "midi": 44,
            "name": "G#2",
            "ticks": 12960,
            "time": 21.3157575,
            "velocity": 0.4409448818897638
          },
          {
            "duration": 0.15789450000000116,
            "durationTicks": 96,
            "midi": 42,
            "name": "F#2",
            "ticks": 13056,
            "time": 21.473651999999998,
            "velocity": 0.4409448818897638
          },
          {
            "duration": 0.15789450000000116,
            "durationTicks": 96,
            "midi": 46,
            "name": "A#2",
            "ticks": 13152,
            "time": 21.6315465,
            "velocity": 0.4409448818897638
          },
          {
            "duration": 0.1578944999999976,
            "durationTicks": 96,
            "midi": 37,
            "name": "C#2",
            "ticks": 13248,
            "time": 21.789441,
            "velocity": 0.4409448818897638
          },
          {
            "duration": 0.15789450000000116,
            "durationTicks": 96,
            "midi": 46,
            "name": "A#2",
            "ticks": 13344,
            "time": 21.947335499999998,
            "velocity": 0.4409448818897638
          },
          {
            "duration": 0.15789450000000116,
            "durationTicks": 96,
            "midi": 42,
            "name": "F#2",
            "ticks": 13440,
            "time": 22.10523,
            "velocity": 0.4409448818897638
          },
          {
            "duration": 0.1578944999999976,
            "durationTicks": 96,
            "midi": 46,
            "name": "A#2",
            "ticks": 13536,
            "time": 22.2631245,
            "velocity": 0.4409448818897638
          },
          {
            "duration": 0.15789450000000116,
            "durationTicks": 96,
            "midi": 37,
            "name": "C#2",
            "ticks": 13632,
            "time": 22.421018999999998,
            "velocity": 0.4409448818897638
          },
          {
            "duration": 0.15789450000000116,
            "durationTicks": 96,
            "midi": 46,
            "name": "A#2",
            "ticks": 13728,
            "time": 22.5789135,
            "velocity": 0.4409448818897638
          },
          {
            "duration": 0.1578944999999976,
            "durationTicks": 96,
            "midi": 44,
            "name": "G#2",
            "ticks": 13824,
            "time": 22.736808,
            "velocity": 0.4409448818897638
          },
          {
            "duration": 0.15789450000000116,
            "durationTicks": 96,
            "midi": 47,
            "name": "B2",
            "ticks": 13920,
            "time": 22.894702499999998,
            "velocity": 0.4409448818897638
          },
          {
            "duration": 0.15789450000000116,
            "durationTicks": 96,
            "midi": 39,
            "name": "D#2",
            "ticks": 14016,
            "time": 23.052597,
            "velocity": 0.4409448818897638
          },
          {
            "duration": 0.1578944999999976,
            "durationTicks": 96,
            "midi": 47,
            "name": "B2",
            "ticks": 14112,
            "time": 23.2104915,
            "velocity": 0.4409448818897638
          },
          {
            "duration": 0.15789450000000116,
            "durationTicks": 96,
            "midi": 44,
            "name": "G#2",
            "ticks": 14208,
            "time": 23.368385999999997,
            "velocity": 0.4409448818897638
          },
          {
            "duration": 0.15789450000000116,
            "durationTicks": 96,
            "midi": 47,
            "name": "B2",
            "ticks": 14304,
            "time": 23.5262805,
            "velocity": 0.4409448818897638
          },
          {
            "duration": 0.1578944999999976,
            "durationTicks": 96,
            "midi": 39,
            "name": "D#2",
            "ticks": 14400,
            "time": 23.684175,
            "velocity": 0.4409448818897638
          },
          {
            "duration": 0.15789450000000116,
            "durationTicks": 96,
            "midi": 47,
            "name": "B2",
            "ticks": 14496,
            "time": 23.842069499999997,
            "velocity": 0.4409448818897638
          },
          {
            "duration": 0.15789450000000116,
            "durationTicks": 96,
            "midi": 39,
            "name": "D#2",
            "ticks": 14592,
            "time": 23.999964,
            "velocity": 0.4409448818897638
          },
          {
            "duration": 0.1578944999999976,
            "durationTicks": 96,
            "midi": 42,
            "name": "F#2",
            "ticks": 14688,
            "time": 24.1578585,
            "velocity": 0.4409448818897638
          },
          {
            "duration": 0.15789450000000116,
            "durationTicks": 96,
            "midi": 34,
            "name": "A#1",
            "ticks": 14784,
            "time": 24.315752999999997,
            "velocity": 0.4409448818897638
          },
          {
            "duration": 0.15789450000000116,
            "durationTicks": 96,
            "midi": 42,
            "name": "F#2",
            "ticks": 14880,
            "time": 24.4736475,
            "velocity": 0.4409448818897638
          },
          {
            "duration": 0.1578944999999976,
            "durationTicks": 96,
            "midi": 39,
            "name": "D#2",
            "ticks": 14976,
            "time": 24.631542,
            "velocity": 0.4409448818897638
          },
          {
            "duration": 0.15789450000000116,
            "durationTicks": 96,
            "midi": 42,
            "name": "F#2",
            "ticks": 15072,
            "time": 24.789436499999997,
            "velocity": 0.4409448818897638
          },
          {
            "duration": 0.15789450000000116,
            "durationTicks": 96,
            "midi": 34,
            "name": "A#1",
            "ticks": 15168,
            "time": 24.947331,
            "velocity": 0.4409448818897638
          },
          {
            "duration": 0.15789450000000116,
            "durationTicks": 96,
            "midi": 42,
            "name": "F#2",
            "ticks": 15264,
            "time": 25.1052255,
            "velocity": 0.4409448818897638
          },
          {
            "duration": 0.1578944999999976,
            "durationTicks": 96,
            "midi": 40,
            "name": "E2",
            "ticks": 15360,
            "time": 25.26312,
            "velocity": 0.4409448818897638
          },
          {
            "duration": 0.15789450000000116,
            "durationTicks": 96,
            "midi": 44,
            "name": "G#2",
            "ticks": 15456,
            "time": 25.4210145,
            "velocity": 0.4409448818897638
          },
          {
            "duration": 0.15789450000000116,
            "durationTicks": 96,
            "midi": 35,
            "name": "B1",
            "ticks": 15552,
            "time": 25.578909,
            "velocity": 0.4409448818897638
          },
          {
            "duration": 0.1578944999999976,
            "durationTicks": 96,
            "midi": 44,
            "name": "G#2",
            "ticks": 15648,
            "time": 25.7368035,
            "velocity": 0.4409448818897638
          },
          {
            "duration": 0.15789450000000116,
            "durationTicks": 96,
            "midi": 40,
            "name": "E2",
            "ticks": 15744,
            "time": 25.894697999999998,
            "velocity": 0.4409448818897638
          },
          {
            "duration": 0.15789450000000116,
            "durationTicks": 96,
            "midi": 44,
            "name": "G#2",
            "ticks": 15840,
            "time": 26.0525925,
            "velocity": 0.4409448818897638
          },
          {
            "duration": 0.1578944999999976,
            "durationTicks": 96,
            "midi": 35,
            "name": "B1",
            "ticks": 15936,
            "time": 26.210487,
            "velocity": 0.4409448818897638
          },
          {
            "duration": 0.15789450000000116,
            "durationTicks": 96,
            "midi": 44,
            "name": "G#2",
            "ticks": 16032,
            "time": 26.368381499999998,
            "velocity": 0.4409448818897638
          },
          {
            "duration": 0.15789450000000116,
            "durationTicks": 96,
            "midi": 47,
            "name": "B2",
            "ticks": 16128,
            "time": 26.526276,
            "velocity": 0.4409448818897638
          },
          {
            "duration": 0.1578944999999976,
            "durationTicks": 96,
            "midi": 51,
            "name": "D#3",
            "ticks": 16224,
            "time": 26.6841705,
            "velocity": 0.4409448818897638
          },
          {
            "duration": 0.15789450000000116,
            "durationTicks": 96,
            "midi": 42,
            "name": "F#2",
            "ticks": 16320,
            "time": 26.842064999999998,
            "velocity": 0.4409448818897638
          },
          {
            "duration": 0.15789450000000116,
            "durationTicks": 96,
            "midi": 51,
            "name": "D#3",
            "ticks": 16416,
            "time": 26.9999595,
            "velocity": 0.4409448818897638
          },
          {
            "duration": 0.1578944999999976,
            "durationTicks": 96,
            "midi": 47,
            "name": "B2",
            "ticks": 16512,
            "time": 27.157854,
            "velocity": 0.4409448818897638
          },
          {
            "duration": 0.15789450000000116,
            "durationTicks": 96,
            "midi": 51,
            "name": "D#3",
            "ticks": 16608,
            "time": 27.315748499999998,
            "velocity": 0.4409448818897638
          },
          {
            "duration": 0.15789450000000116,
            "durationTicks": 96,
            "midi": 42,
            "name": "F#2",
            "ticks": 16704,
            "time": 27.473643,
            "velocity": 0.4409448818897638
          },
          {
            "duration": 0.1578944999999976,
            "durationTicks": 96,
            "midi": 51,
            "name": "D#3",
            "ticks": 16800,
            "time": 27.6315375,
            "velocity": 0.4409448818897638
          },
          {
            "duration": 0.15789450000000116,
            "durationTicks": 96,
            "midi": 37,
            "name": "C#2",
            "ticks": 16896,
            "time": 27.789431999999998,
            "velocity": 0.4409448818897638
          },
          {
            "duration": 0.15789450000000116,
            "durationTicks": 96,
            "midi": 40,
            "name": "E2",
            "ticks": 16992,
            "time": 27.9473265,
            "velocity": 0.4409448818897638
          },
          {
            "duration": 0.1578944999999976,
            "durationTicks": 96,
            "midi": 32,
            "name": "G#1",
            "ticks": 17088,
            "time": 28.105221,
            "velocity": 0.4409448818897638
          },
          {
            "duration": 0.15789450000000116,
            "durationTicks": 96,
            "midi": 40,
            "name": "E2",
            "ticks": 17184,
            "time": 28.263115499999998,
            "velocity": 0.4409448818897638
          },
          {
            "duration": 0.15789450000000116,
            "durationTicks": 96,
            "midi": 37,
            "name": "C#2",
            "ticks": 17280,
            "time": 28.42101,
            "velocity": 0.4409448818897638
          },
          {
            "duration": 0.1578944999999976,
            "durationTicks": 96,
            "midi": 40,
            "name": "E2",
            "ticks": 17376,
            "time": 28.5789045,
            "velocity": 0.4409448818897638
          },
          {
            "duration": 0.15789450000000116,
            "durationTicks": 96,
            "midi": 32,
            "name": "G#1",
            "ticks": 17472,
            "time": 28.736798999999998,
            "velocity": 0.4409448818897638
          },
          {
            "duration": 0.15789450000000116,
            "durationTicks": 96,
            "midi": 40,
            "name": "E2",
            "ticks": 17568,
            "time": 28.8946935,
            "velocity": 0.4409448818897638
          },
          {
            "duration": 0.1578944999999976,
            "durationTicks": 96,
            "midi": 43,
            "name": "G2",
            "ticks": 17664,
            "time": 29.052588,
            "velocity": 0.4409448818897638
          },
          {
            "duration": 0.15789450000000116,
            "durationTicks": 96,
            "midi": 46,
            "name": "A#2",
            "ticks": 17760,
            "time": 29.210482499999998,
            "velocity": 0.4409448818897638
          },
          {
            "duration": 0.15789450000000116,
            "durationTicks": 96,
            "midi": 39,
            "name": "D#2",
            "ticks": 17856,
            "time": 29.368377,
            "velocity": 0.4409448818897638
          },
          {
            "duration": 0.1578944999999976,
            "durationTicks": 96,
            "midi": 46,
            "name": "A#2",
            "ticks": 17952,
            "time": 29.5262715,
            "velocity": 0.4409448818897638
          },
          {
            "duration": 0.15789450000000116,
            "durationTicks": 96,
            "midi": 43,
            "name": "G2",
            "ticks": 18048,
            "time": 29.684165999999998,
            "velocity": 0.4409448818897638
          },
          {
            "duration": 0.15789450000000116,
            "durationTicks": 96,
            "midi": 46,
            "name": "A#2",
            "ticks": 18144,
            "time": 29.8420605,
            "velocity": 0.4409448818897638
          },
          {
            "duration": 0.1578944999999976,
            "durationTicks": 96,
            "midi": 39,
            "name": "D#2",
            "ticks": 18240,
            "time": 29.999955,
            "velocity": 0.4409448818897638
          },
          {
            "duration": 0.15789450000000116,
            "durationTicks": 96,
            "midi": 46,
            "name": "A#2",
            "ticks": 18336,
            "time": 30.157849499999998,
            "velocity": 0.4409448818897638
          },
          {
            "duration": 0.15789450000000116,
            "durationTicks": 96,
            "midi": 40,
            "name": "E2",
            "ticks": 18432,
            "time": 30.315744,
            "velocity": 0.4409448818897638
          },
          {
            "duration": 0.1578944999999976,
            "durationTicks": 96,
            "midi": 44,
            "name": "G#2",
            "ticks": 18528,
            "time": 30.4736385,
            "velocity": 0.4409448818897638
          },
          {
            "duration": 0.15789450000000116,
            "durationTicks": 96,
            "midi": 35,
            "name": "B1",
            "ticks": 18624,
            "time": 30.631532999999997,
            "velocity": 0.4409448818897638
          },
          {
            "duration": 0.15789450000000116,
            "durationTicks": 96,
            "midi": 44,
            "name": "G#2",
            "ticks": 18720,
            "time": 30.7894275,
            "velocity": 0.4409448818897638
          },
          {
            "duration": 0.1578944999999976,
            "durationTicks": 96,
            "midi": 40,
            "name": "E2",
            "ticks": 18816,
            "time": 30.947322,
            "velocity": 0.4409448818897638
          },
          {
            "duration": 0.15789450000000116,
            "durationTicks": 96,
            "midi": 44,
            "name": "G#2",
            "ticks": 18912,
            "time": 31.105216499999997,
            "velocity": 0.4409448818897638
          },
          {
            "duration": 0.15789450000000116,
            "durationTicks": 96,
            "midi": 35,
            "name": "B1",
            "ticks": 19008,
            "time": 31.263111,
            "velocity": 0.4409448818897638
          },
          {
            "duration": 0.1578944999999976,
            "durationTicks": 96,
            "midi": 44,
            "name": "G#2",
            "ticks": 19104,
            "time": 31.4210055,
            "velocity": 0.4409448818897638
          },
          {
            "duration": 0.15789450000000116,
            "durationTicks": 96,
            "midi": 42,
            "name": "F#2",
            "ticks": 19200,
            "time": 31.578899999999997,
            "velocity": 0.4409448818897638
          },
          {
            "duration": 0.15789450000000116,
            "durationTicks": 96,
            "midi": 46,
            "name": "A#2",
            "ticks": 19296,
            "time": 31.7367945,
            "velocity": 0.4409448818897638
          },
          {
            "duration": 0.1578944999999976,
            "durationTicks": 96,
            "midi": 37,
            "name": "C#2",
            "ticks": 19392,
            "time": 31.894689,
            "velocity": 0.4409448818897638
          },
          {
            "duration": 0.1578945000000047,
            "durationTicks": 96,
            "midi": 46,
            "name": "A#2",
            "ticks": 19488,
            "time": 32.0525835,
            "velocity": 0.4409448818897638
          },
          {
            "duration": 0.1578944999999976,
            "durationTicks": 96,
            "midi": 42,
            "name": "F#2",
            "ticks": 19584,
            "time": 32.210478,
            "velocity": 0.4409448818897638
          },
          {
            "duration": 0.1578944999999976,
            "durationTicks": 96,
            "midi": 46,
            "name": "A#2",
            "ticks": 19680,
            "time": 32.3683725,
            "velocity": 0.4409448818897638
          },
          {
            "duration": 0.1578945000000047,
            "durationTicks": 96,
            "midi": 37,
            "name": "C#2",
            "ticks": 19776,
            "time": 32.526267,
            "velocity": 0.4409448818897638
          },
          {
            "duration": 0.1578944999999976,
            "durationTicks": 96,
            "midi": 46,
            "name": "A#2",
            "ticks": 19872,
            "time": 32.6841615,
            "velocity": 0.4409448818897638
          },
          {
            "duration": 0.1578944999999976,
            "durationTicks": 96,
            "midi": 44,
            "name": "G#2",
            "ticks": 19968,
            "time": 32.842056,
            "velocity": 0.4409448818897638
          },
          {
            "duration": 0.1578945000000047,
            "durationTicks": 96,
            "midi": 47,
            "name": "B2",
            "ticks": 20064,
            "time": 32.9999505,
            "velocity": 0.4409448818897638
          },
          {
            "duration": 0.1578944999999976,
            "durationTicks": 96,
            "midi": 39,
            "name": "D#2",
            "ticks": 20160,
            "time": 33.157845,
            "velocity": 0.4409448818897638
          },
          {
            "duration": 0.1578944999999976,
            "durationTicks": 96,
            "midi": 47,
            "name": "B2",
            "ticks": 20256,
            "time": 33.3157395,
            "velocity": 0.4409448818897638
          },
          {
            "duration": 0.1578945000000047,
            "durationTicks": 96,
            "midi": 44,
            "name": "G#2",
            "ticks": 20352,
            "time": 33.473634,
            "velocity": 0.4409448818897638
          },
          {
            "duration": 0.1578944999999976,
            "durationTicks": 96,
            "midi": 47,
            "name": "B2",
            "ticks": 20448,
            "time": 33.6315285,
            "velocity": 0.4409448818897638
          },
          {
            "duration": 0.1578944999999976,
            "durationTicks": 96,
            "midi": 39,
            "name": "D#2",
            "ticks": 20544,
            "time": 33.789423,
            "velocity": 0.4409448818897638
          },
          {
            "duration": 0.1578945000000047,
            "durationTicks": 96,
            "midi": 47,
            "name": "B2",
            "ticks": 20640,
            "time": 33.9473175,
            "velocity": 0.4409448818897638
          },
          {
            "duration": 0.1578944999999976,
            "durationTicks": 96,
            "midi": 39,
            "name": "D#2",
            "ticks": 20736,
            "time": 34.105212,
            "velocity": 0.4409448818897638
          },
          {
            "duration": 0.1578944999999976,
            "durationTicks": 96,
            "midi": 42,
            "name": "F#2",
            "ticks": 20832,
            "time": 34.2631065,
            "velocity": 0.4409448818897638
          },
          {
            "duration": 0.1578945000000047,
            "durationTicks": 96,
            "midi": 34,
            "name": "A#1",
            "ticks": 20928,
            "time": 34.421001,
            "velocity": 0.4409448818897638
          },
          {
            "duration": 0.1578944999999976,
            "durationTicks": 96,
            "midi": 42,
            "name": "F#2",
            "ticks": 21024,
            "time": 34.5788955,
            "velocity": 0.4409448818897638
          },
          {
            "duration": 0.1578944999999976,
            "durationTicks": 96,
            "midi": 39,
            "name": "D#2",
            "ticks": 21120,
            "time": 34.73679,
            "velocity": 0.4409448818897638
          },
          {
            "duration": 0.1578945000000047,
            "durationTicks": 96,
            "midi": 42,
            "name": "F#2",
            "ticks": 21216,
            "time": 34.8946845,
            "velocity": 0.4409448818897638
          },
          {
            "duration": 0.1578944999999976,
            "durationTicks": 96,
            "midi": 34,
            "name": "A#1",
            "ticks": 21312,
            "time": 35.052579,
            "velocity": 0.4409448818897638
          },
          {
            "duration": 0.1578944999999976,
            "durationTicks": 96,
            "midi": 42,
            "name": "F#2",
            "ticks": 21408,
            "time": 35.2104735,
            "velocity": 0.4409448818897638
          },
          {
            "duration": 0.1578945000000047,
            "durationTicks": 96,
            "midi": 40,
            "name": "E2",
            "ticks": 21504,
            "time": 35.368368,
            "velocity": 0.4409448818897638
          },
          {
            "duration": 0.1578944999999976,
            "durationTicks": 96,
            "midi": 44,
            "name": "G#2",
            "ticks": 21600,
            "time": 35.5262625,
            "velocity": 0.4409448818897638
          },
          {
            "duration": 0.1578944999999976,
            "durationTicks": 96,
            "midi": 35,
            "name": "B1",
            "ticks": 21696,
            "time": 35.684157,
            "velocity": 0.4409448818897638
          },
          {
            "duration": 0.1578945000000047,
            "durationTicks": 96,
            "midi": 44,
            "name": "G#2",
            "ticks": 21792,
            "time": 35.8420515,
            "velocity": 0.4409448818897638
          },
          {
            "duration": 0.1578944999999976,
            "durationTicks": 96,
            "midi": 40,
            "name": "E2",
            "ticks": 21888,
            "time": 35.999946,
            "velocity": 0.4409448818897638
          },
          {
            "duration": 0.1578944999999976,
            "durationTicks": 96,
            "midi": 44,
            "name": "G#2",
            "ticks": 21984,
            "time": 36.1578405,
            "velocity": 0.4409448818897638
          },
          {
            "duration": 0.1578945000000047,
            "durationTicks": 96,
            "midi": 35,
            "name": "B1",
            "ticks": 22080,
            "time": 36.315735,
            "velocity": 0.4409448818897638
          },
          {
            "duration": 0.1578944999999976,
            "durationTicks": 96,
            "midi": 44,
            "name": "G#2",
            "ticks": 22176,
            "time": 36.4736295,
            "velocity": 0.4409448818897638
          },
          {
            "duration": 0.1578944999999976,
            "durationTicks": 96,
            "midi": 47,
            "name": "B2",
            "ticks": 22272,
            "time": 36.631524,
            "velocity": 0.4409448818897638
          },
          {
            "duration": 0.1578945000000047,
            "durationTicks": 96,
            "midi": 51,
            "name": "D#3",
            "ticks": 22368,
            "time": 36.7894185,
            "velocity": 0.4409448818897638
          },
          {
            "duration": 0.1578944999999976,
            "durationTicks": 96,
            "midi": 42,
            "name": "F#2",
            "ticks": 22464,
            "time": 36.947313,
            "velocity": 0.4409448818897638
          },
          {
            "duration": 0.1578944999999976,
            "durationTicks": 96,
            "midi": 51,
            "name": "D#3",
            "ticks": 22560,
            "time": 37.1052075,
            "velocity": 0.4409448818897638
          },
          {
            "duration": 0.1578945000000047,
            "durationTicks": 96,
            "midi": 47,
            "name": "B2",
            "ticks": 22656,
            "time": 37.263101999999996,
            "velocity": 0.4409448818897638
          },
          {
            "duration": 0.1578944999999976,
            "durationTicks": 96,
            "midi": 51,
            "name": "D#3",
            "ticks": 22752,
            "time": 37.4209965,
            "velocity": 0.4409448818897638
          },
          {
            "duration": 0.1578944999999976,
            "durationTicks": 96,
            "midi": 42,
            "name": "F#2",
            "ticks": 22848,
            "time": 37.578891,
            "velocity": 0.4409448818897638
          },
          {
            "duration": 0.1578945000000047,
            "durationTicks": 96,
            "midi": 51,
            "name": "D#3",
            "ticks": 22944,
            "time": 37.736785499999996,
            "velocity": 0.4409448818897638
          },
          {
            "duration": 0.1578944999999976,
            "durationTicks": 96,
            "midi": 37,
            "name": "C#2",
            "ticks": 23040,
            "time": 37.89468,
            "velocity": 0.4409448818897638
          },
          {
            "duration": 0.1578944999999976,
            "durationTicks": 96,
            "midi": 40,
            "name": "E2",
            "ticks": 23136,
            "time": 38.0525745,
            "velocity": 0.4409448818897638
          },
          {
            "duration": 0.1578945000000047,
            "durationTicks": 96,
            "midi": 32,
            "name": "G#1",
            "ticks": 23232,
            "time": 38.210468999999996,
            "velocity": 0.4409448818897638
          },
          {
            "duration": 0.1578944999999976,
            "durationTicks": 96,
            "midi": 40,
            "name": "E2",
            "ticks": 23328,
            "time": 38.3683635,
            "velocity": 0.4409448818897638
          },
          {
            "duration": 0.1578944999999976,
            "durationTicks": 96,
            "midi": 37,
            "name": "C#2",
            "ticks": 23424,
            "time": 38.526258,
            "velocity": 0.4409448818897638
          },
          {
            "duration": 0.1578945000000047,
            "durationTicks": 96,
            "midi": 40,
            "name": "E2",
            "ticks": 23520,
            "time": 38.684152499999996,
            "velocity": 0.4409448818897638
          },
          {
            "duration": 0.1578944999999976,
            "durationTicks": 96,
            "midi": 32,
            "name": "G#1",
            "ticks": 23616,
            "time": 38.842047,
            "velocity": 0.4409448818897638
          },
          {
            "duration": 0.1578944999999976,
            "durationTicks": 96,
            "midi": 40,
            "name": "E2",
            "ticks": 23712,
            "time": 38.9999415,
            "velocity": 0.4409448818897638
          },
          {
            "duration": 0.1578945000000047,
            "durationTicks": 96,
            "midi": 43,
            "name": "G2",
            "ticks": 23808,
            "time": 39.157835999999996,
            "velocity": 0.4409448818897638
          },
          {
            "duration": 0.1578944999999976,
            "durationTicks": 96,
            "midi": 46,
            "name": "A#2",
            "ticks": 23904,
            "time": 39.3157305,
            "velocity": 0.4409448818897638
          },
          {
            "duration": 0.1578944999999976,
            "durationTicks": 96,
            "midi": 39,
            "name": "D#2",
            "ticks": 24000,
            "time": 39.473625,
            "velocity": 0.4409448818897638
          },
          {
            "duration": 0.1578945000000047,
            "durationTicks": 96,
            "midi": 46,
            "name": "A#2",
            "ticks": 24096,
            "time": 39.631519499999996,
            "velocity": 0.4409448818897638
          },
          {
            "duration": 0.1578944999999976,
            "durationTicks": 96,
            "midi": 43,
            "name": "G2",
            "ticks": 24192,
            "time": 39.789414,
            "velocity": 0.4409448818897638
          },
          {
            "duration": 0.1578944999999976,
            "durationTicks": 96,
            "midi": 46,
            "name": "A#2",
            "ticks": 24288,
            "time": 39.9473085,
            "velocity": 0.4409448818897638
          },
          {
            "duration": 0.1578945000000047,
            "durationTicks": 96,
            "midi": 39,
            "name": "D#2",
            "ticks": 24384,
            "time": 40.105202999999996,
            "velocity": 0.4409448818897638
          },
          {
            "duration": 0.1578944999999976,
            "durationTicks": 96,
            "midi": 46,
            "name": "A#2",
            "ticks": 24480,
            "time": 40.2630975,
            "velocity": 0.4409448818897638
          },
          {
            "duration": 0.1578944999999976,
            "durationTicks": 96,
            "midi": 40,
            "name": "E2",
            "ticks": 24576,
            "time": 40.420992,
            "velocity": 0.4409448818897638
          },
          {
            "duration": 0.1578945000000047,
            "durationTicks": 96,
            "midi": 44,
            "name": "G#2",
            "ticks": 24672,
            "time": 40.578886499999996,
            "velocity": 0.4409448818897638
          },
          {
            "duration": 0.1578944999999976,
            "durationTicks": 96,
            "midi": 35,
            "name": "B1",
            "ticks": 24768,
            "time": 40.736781,
            "velocity": 0.4409448818897638
          },
          {
            "duration": 0.1578944999999976,
            "durationTicks": 96,
            "midi": 44,
            "name": "G#2",
            "ticks": 24864,
            "time": 40.8946755,
            "velocity": 0.4409448818897638
          },
          {
            "duration": 0.1578945000000047,
            "durationTicks": 96,
            "midi": 40,
            "name": "E2",
            "ticks": 24960,
            "time": 41.052569999999996,
            "velocity": 0.4409448818897638
          },
          {
            "duration": 0.1578944999999976,
            "durationTicks": 96,
            "midi": 44,
            "name": "G#2",
            "ticks": 25056,
            "time": 41.2104645,
            "velocity": 0.4409448818897638
          },
          {
            "duration": 0.1578944999999976,
            "durationTicks": 96,
            "midi": 35,
            "name": "B1",
            "ticks": 25152,
            "time": 41.368359,
            "velocity": 0.4409448818897638
          },
          {
            "duration": 0.1578945000000047,
            "durationTicks": 96,
            "midi": 44,
            "name": "G#2",
            "ticks": 25248,
            "time": 41.526253499999996,
            "velocity": 0.4409448818897638
          },
          {
            "duration": 0.1578944999999976,
            "durationTicks": 96,
            "midi": 42,
            "name": "F#2",
            "ticks": 25344,
            "time": 41.684148,
            "velocity": 0.4409448818897638
          },
          {
            "duration": 0.1578944999999976,
            "durationTicks": 96,
            "midi": 46,
            "name": "A#2",
            "ticks": 25440,
            "time": 41.8420425,
            "velocity": 0.4409448818897638
          },
          {
            "duration": 0.1578945000000047,
            "durationTicks": 96,
            "midi": 37,
            "name": "C#2",
            "ticks": 25536,
            "time": 41.999936999999996,
            "velocity": 0.4409448818897638
          },
          {
            "duration": 0.1578944999999976,
            "durationTicks": 96,
            "midi": 46,
            "name": "A#2",
            "ticks": 25632,
            "time": 42.1578315,
            "velocity": 0.4409448818897638
          },
          {
            "duration": 0.1578944999999976,
            "durationTicks": 96,
            "midi": 42,
            "name": "F#2",
            "ticks": 25728,
            "time": 42.315726,
            "velocity": 0.4409448818897638
          },
          {
            "duration": 0.1578945000000047,
            "durationTicks": 96,
            "midi": 46,
            "name": "A#2",
            "ticks": 25824,
            "time": 42.473620499999996,
            "velocity": 0.4409448818897638
          },
          {
            "duration": 0.1578944999999976,
            "durationTicks": 96,
            "midi": 37,
            "name": "C#2",
            "ticks": 25920,
            "time": 42.631515,
            "velocity": 0.4409448818897638
          },
          {
            "duration": 0.1578944999999976,
            "durationTicks": 96,
            "midi": 46,
            "name": "A#2",
            "ticks": 26016,
            "time": 42.7894095,
            "velocity": 0.4409448818897638
          },
          {
            "duration": 0.1578945000000047,
            "durationTicks": 96,
            "midi": 44,
            "name": "G#2",
            "ticks": 26112,
            "time": 42.947303999999995,
            "velocity": 0.4409448818897638
          },
          {
            "duration": 0.1578944999999976,
            "durationTicks": 96,
            "midi": 47,
            "name": "B2",
            "ticks": 26208,
            "time": 43.1051985,
            "velocity": 0.4409448818897638
          },
          {
            "duration": 0.1578944999999976,
            "durationTicks": 96,
            "midi": 39,
            "name": "D#2",
            "ticks": 26304,
            "time": 43.263093,
            "velocity": 0.4409448818897638
          },
          {
            "duration": 0.1578945000000047,
            "durationTicks": 96,
            "midi": 47,
            "name": "B2",
            "ticks": 26400,
            "time": 43.420987499999995,
            "velocity": 0.4409448818897638
          },
          {
            "duration": 0.1578944999999976,
            "durationTicks": 96,
            "midi": 44,
            "name": "G#2",
            "ticks": 26496,
            "time": 43.578882,
            "velocity": 0.4409448818897638
          },
          {
            "duration": 0.1578944999999976,
            "durationTicks": 96,
            "midi": 47,
            "name": "B2",
            "ticks": 26592,
            "time": 43.7367765,
            "velocity": 0.4409448818897638
          },
          {
            "duration": 0.1578945000000047,
            "durationTicks": 96,
            "midi": 39,
            "name": "D#2",
            "ticks": 26688,
            "time": 43.894670999999995,
            "velocity": 0.4409448818897638
          },
          {
            "duration": 0.1578944999999976,
            "durationTicks": 96,
            "midi": 47,
            "name": "B2",
            "ticks": 26784,
            "time": 44.0525655,
            "velocity": 0.4409448818897638
          },
          {
            "duration": 0.1578944999999976,
            "durationTicks": 96,
            "midi": 39,
            "name": "D#2",
            "ticks": 26880,
            "time": 44.21046,
            "velocity": 0.4409448818897638
          },
          {
            "duration": 0.1578945000000047,
            "durationTicks": 96,
            "midi": 42,
            "name": "F#2",
            "ticks": 26976,
            "time": 44.368354499999995,
            "velocity": 0.4409448818897638
          },
          {
            "duration": 0.1578944999999976,
            "durationTicks": 96,
            "midi": 34,
            "name": "A#1",
            "ticks": 27072,
            "time": 44.526249,
            "velocity": 0.4409448818897638
          },
          {
            "duration": 0.1578944999999976,
            "durationTicks": 96,
            "midi": 42,
            "name": "F#2",
            "ticks": 27168,
            "time": 44.6841435,
            "velocity": 0.4409448818897638
          },
          {
            "duration": 0.1578945000000047,
            "durationTicks": 96,
            "midi": 39,
            "name": "D#2",
            "ticks": 27264,
            "time": 44.842037999999995,
            "velocity": 0.4409448818897638
          },
          {
            "duration": 0.1578944999999976,
            "durationTicks": 96,
            "midi": 42,
            "name": "F#2",
            "ticks": 27360,
            "time": 44.9999325,
            "velocity": 0.4409448818897638
          },
          {
            "duration": 0.1578944999999976,
            "durationTicks": 96,
            "midi": 34,
            "name": "A#1",
            "ticks": 27456,
            "time": 45.157827,
            "velocity": 0.4409448818897638
          },
          {
            "duration": 0.1578945000000047,
            "durationTicks": 96,
            "midi": 42,
            "name": "F#2",
            "ticks": 27552,
            "time": 45.315721499999995,
            "velocity": 0.4409448818897638
          },
          {
            "duration": 0.1578944999999976,
            "durationTicks": 96,
            "midi": 40,
            "name": "E2",
            "ticks": 27648,
            "time": 45.473616,
            "velocity": 0.4409448818897638
          },
          {
            "duration": 0.1578944999999976,
            "durationTicks": 96,
            "midi": 44,
            "name": "G#2",
            "ticks": 27744,
            "time": 45.6315105,
            "velocity": 0.4409448818897638
          },
          {
            "duration": 0.1578945000000047,
            "durationTicks": 96,
            "midi": 35,
            "name": "B1",
            "ticks": 27840,
            "time": 45.789404999999995,
            "velocity": 0.4409448818897638
          },
          {
            "duration": 0.1578944999999976,
            "durationTicks": 96,
            "midi": 44,
            "name": "G#2",
            "ticks": 27936,
            "time": 45.9472995,
            "velocity": 0.4409448818897638
          },
          {
            "duration": 0.1578944999999976,
            "durationTicks": 96,
            "midi": 40,
            "name": "E2",
            "ticks": 28032,
            "time": 46.105194,
            "velocity": 0.4409448818897638
          },
          {
            "duration": 0.1578945000000047,
            "durationTicks": 96,
            "midi": 44,
            "name": "G#2",
            "ticks": 28128,
            "time": 46.263088499999995,
            "velocity": 0.4409448818897638
          },
          {
            "duration": 0.1578944999999976,
            "durationTicks": 96,
            "midi": 35,
            "name": "B1",
            "ticks": 28224,
            "time": 46.420983,
            "velocity": 0.4409448818897638
          },
          {
            "duration": 0.1578944999999976,
            "durationTicks": 96,
            "midi": 44,
            "name": "G#2",
            "ticks": 28320,
            "time": 46.5788775,
            "velocity": 0.4409448818897638
          },
          {
            "duration": 0.1578945000000047,
            "durationTicks": 96,
            "midi": 47,
            "name": "B2",
            "ticks": 28416,
            "time": 46.736771999999995,
            "velocity": 0.4409448818897638
          },
          {
            "duration": 0.1578944999999976,
            "durationTicks": 96,
            "midi": 51,
            "name": "D#3",
            "ticks": 28512,
            "time": 46.8946665,
            "velocity": 0.4409448818897638
          },
          {
            "duration": 0.1578944999999976,
            "durationTicks": 96,
            "midi": 42,
            "name": "F#2",
            "ticks": 28608,
            "time": 47.052561,
            "velocity": 0.4409448818897638
          },
          {
            "duration": 0.1578945000000047,
            "durationTicks": 96,
            "midi": 51,
            "name": "D#3",
            "ticks": 28704,
            "time": 47.210455499999995,
            "velocity": 0.4409448818897638
          },
          {
            "duration": 0.1578944999999976,
            "durationTicks": 96,
            "midi": 47,
            "name": "B2",
            "ticks": 28800,
            "time": 47.36835,
            "velocity": 0.4409448818897638
          },
          {
            "duration": 0.1578944999999976,
            "durationTicks": 96,
            "midi": 51,
            "name": "D#3",
            "ticks": 28896,
            "time": 47.5262445,
            "velocity": 0.4409448818897638
          },
          {
            "duration": 0.1578945000000047,
            "durationTicks": 96,
            "midi": 42,
            "name": "F#2",
            "ticks": 28992,
            "time": 47.684138999999995,
            "velocity": 0.4409448818897638
          },
          {
            "duration": 0.1578944999999976,
            "durationTicks": 96,
            "midi": 51,
            "name": "D#3",
            "ticks": 29088,
            "time": 47.8420335,
            "velocity": 0.4409448818897638
          },
          {
            "duration": 0.1578944999999976,
            "durationTicks": 96,
            "midi": 37,
            "name": "C#2",
            "ticks": 29184,
            "time": 47.999928,
            "velocity": 0.4409448818897638
          },
          {
            "duration": 0.1578945000000047,
            "durationTicks": 96,
            "midi": 40,
            "name": "E2",
            "ticks": 29280,
            "time": 48.157822499999995,
            "velocity": 0.4409448818897638
          },
          {
            "duration": 0.1578944999999976,
            "durationTicks": 96,
            "midi": 32,
            "name": "G#1",
            "ticks": 29376,
            "time": 48.315717,
            "velocity": 0.4409448818897638
          },
          {
            "duration": 0.1578944999999976,
            "durationTicks": 96,
            "midi": 40,
            "name": "E2",
            "ticks": 29472,
            "time": 48.4736115,
            "velocity": 0.4409448818897638
          },
          {
            "duration": 0.1578945000000047,
            "durationTicks": 96,
            "midi": 37,
            "name": "C#2",
            "ticks": 29568,
            "time": 48.631505999999995,
            "velocity": 0.4409448818897638
          },
          {
            "duration": 0.1578944999999976,
            "durationTicks": 96,
            "midi": 40,
            "name": "E2",
            "ticks": 29664,
            "time": 48.7894005,
            "velocity": 0.4409448818897638
          },
          {
            "duration": 0.1578944999999976,
            "durationTicks": 96,
            "midi": 32,
            "name": "G#1",
            "ticks": 29760,
            "time": 48.947295,
            "velocity": 0.4409448818897638
          },
          {
            "duration": 0.1578945000000047,
            "durationTicks": 96,
            "midi": 40,
            "name": "E2",
            "ticks": 29856,
            "time": 49.105189499999994,
            "velocity": 0.4409448818897638
          },
          {
            "duration": 0.1578944999999976,
            "durationTicks": 96,
            "midi": 43,
            "name": "G2",
            "ticks": 29952,
            "time": 49.263084,
            "velocity": 0.4409448818897638
          },
          {
            "duration": 0.1578944999999976,
            "durationTicks": 96,
            "midi": 46,
            "name": "A#2",
            "ticks": 30048,
            "time": 49.4209785,
            "velocity": 0.4409448818897638
          },
          {
            "duration": 0.1578945000000047,
            "durationTicks": 96,
            "midi": 39,
            "name": "D#2",
            "ticks": 30144,
            "time": 49.578872999999994,
            "velocity": 0.4409448818897638
          },
          {
            "duration": 0.1578944999999976,
            "durationTicks": 96,
            "midi": 46,
            "name": "A#2",
            "ticks": 30240,
            "time": 49.7367675,
            "velocity": 0.4409448818897638
          },
          {
            "duration": 0.1578944999999976,
            "durationTicks": 96,
            "midi": 43,
            "name": "G2",
            "ticks": 30336,
            "time": 49.894662,
            "velocity": 0.4409448818897638
          },
          {
            "duration": 0.1578945000000047,
            "durationTicks": 96,
            "midi": 46,
            "name": "A#2",
            "ticks": 30432,
            "time": 50.052556499999994,
            "velocity": 0.4409448818897638
          },
          {
            "duration": 0.1578944999999976,
            "durationTicks": 96,
            "midi": 39,
            "name": "D#2",
            "ticks": 30528,
            "time": 50.210451,
            "velocity": 0.4409448818897638
          },
          {
            "duration": 0.1578945000000047,
            "durationTicks": 96,
            "midi": 46,
            "name": "A#2",
            "ticks": 30624,
            "time": 50.3683455,
            "velocity": 0.4409448818897638
          },
          {
            "duration": 0.1578944999999976,
            "durationTicks": 96,
            "midi": 40,
            "name": "E2",
            "ticks": 30720,
            "time": 50.52624,
            "velocity": 0.4409448818897638
          },
          {
            "duration": 0.1578944999999976,
            "durationTicks": 96,
            "midi": 44,
            "name": "G#2",
            "ticks": 30816,
            "time": 50.6841345,
            "velocity": 0.4409448818897638
          },
          {
            "duration": 0.1578945000000047,
            "durationTicks": 96,
            "midi": 35,
            "name": "B1",
            "ticks": 30912,
            "time": 50.842029,
            "velocity": 0.4409448818897638
          },
          {
            "duration": 0.1578944999999976,
            "durationTicks": 96,
            "midi": 44,
            "name": "G#2",
            "ticks": 31008,
            "time": 50.9999235,
            "velocity": 0.4409448818897638
          },
          {
            "duration": 0.1578944999999976,
            "durationTicks": 96,
            "midi": 40,
            "name": "E2",
            "ticks": 31104,
            "time": 51.157818,
            "velocity": 0.4409448818897638
          },
          {
            "duration": 0.1578945000000047,
            "durationTicks": 96,
            "midi": 44,
            "name": "G#2",
            "ticks": 31200,
            "time": 51.3157125,
            "velocity": 0.4409448818897638
          },
          {
            "duration": 0.1578944999999976,
            "durationTicks": 96,
            "midi": 35,
            "name": "B1",
            "ticks": 31296,
            "time": 51.473607,
            "velocity": 0.4409448818897638
          },
          {
            "duration": 0.1578944999999976,
            "durationTicks": 96,
            "midi": 44,
            "name": "G#2",
            "ticks": 31392,
            "time": 51.6315015,
            "velocity": 0.4409448818897638
          },
          {
            "duration": 0.1578945000000047,
            "durationTicks": 96,
            "midi": 42,
            "name": "F#2",
            "ticks": 31488,
            "time": 51.789395999999996,
            "velocity": 0.4409448818897638
          },
          {
            "duration": 0.1578944999999976,
            "durationTicks": 96,
            "midi": 46,
            "name": "A#2",
            "ticks": 31584,
            "time": 51.9472905,
            "velocity": 0.4409448818897638
          },
          {
            "duration": 0.1578944999999976,
            "durationTicks": 96,
            "midi": 37,
            "name": "C#2",
            "ticks": 31680,
            "time": 52.105185,
            "velocity": 0.4409448818897638
          },
          {
            "duration": 0.1578945000000047,
            "durationTicks": 96,
            "midi": 46,
            "name": "A#2",
            "ticks": 31776,
            "time": 52.263079499999996,
            "velocity": 0.4409448818897638
          },
          {
            "duration": 0.1578944999999976,
            "durationTicks": 96,
            "midi": 42,
            "name": "F#2",
            "ticks": 31872,
            "time": 52.420974,
            "velocity": 0.4409448818897638
          },
          {
            "duration": 0.1578944999999976,
            "durationTicks": 96,
            "midi": 46,
            "name": "A#2",
            "ticks": 31968,
            "time": 52.5788685,
            "velocity": 0.4409448818897638
          },
          {
            "duration": 0.1578945000000047,
            "durationTicks": 96,
            "midi": 37,
            "name": "C#2",
            "ticks": 32064,
            "time": 52.736762999999996,
            "velocity": 0.4409448818897638
          },
          {
            "duration": 0.1578944999999976,
            "durationTicks": 96,
            "midi": 46,
            "name": "A#2",
            "ticks": 32160,
            "time": 52.8946575,
            "velocity": 0.4409448818897638
          },
          {
            "duration": 0.1578944999999976,
            "durationTicks": 96,
            "midi": 44,
            "name": "G#2",
            "ticks": 32256,
            "time": 53.052552,
            "velocity": 0.4409448818897638
          },
          {
            "duration": 0.1578945000000047,
            "durationTicks": 96,
            "midi": 47,
            "name": "B2",
            "ticks": 32352,
            "time": 53.210446499999996,
            "velocity": 0.4409448818897638
          },
          {
            "duration": 0.1578944999999976,
            "durationTicks": 96,
            "midi": 39,
            "name": "D#2",
            "ticks": 32448,
            "time": 53.368341,
            "velocity": 0.4409448818897638
          },
          {
            "duration": 0.1578944999999976,
            "durationTicks": 96,
            "midi": 47,
            "name": "B2",
            "ticks": 32544,
            "time": 53.5262355,
            "velocity": 0.4409448818897638
          },
          {
            "duration": 0.1578945000000047,
            "durationTicks": 96,
            "midi": 44,
            "name": "G#2",
            "ticks": 32640,
            "time": 53.684129999999996,
            "velocity": 0.4409448818897638
          },
          {
            "duration": 0.1578944999999976,
            "durationTicks": 96,
            "midi": 47,
            "name": "B2",
            "ticks": 32736,
            "time": 53.8420245,
            "velocity": 0.4409448818897638
          },
          {
            "duration": 0.1578944999999976,
            "durationTicks": 96,
            "midi": 39,
            "name": "D#2",
            "ticks": 32832,
            "time": 53.999919,
            "velocity": 0.4409448818897638
          },
          {
            "duration": 0.1578945000000047,
            "durationTicks": 96,
            "midi": 47,
            "name": "B2",
            "ticks": 32928,
            "time": 54.157813499999996,
            "velocity": 0.4409448818897638
          },
          {
            "duration": 0.1578944999999976,
            "durationTicks": 96,
            "midi": 39,
            "name": "D#2",
            "ticks": 33024,
            "time": 54.315708,
            "velocity": 0.4409448818897638
          },
          {
            "duration": 0.1578944999999976,
            "durationTicks": 96,
            "midi": 42,
            "name": "F#2",
            "ticks": 33120,
            "time": 54.4736025,
            "velocity": 0.4409448818897638
          },
          {
            "duration": 0.1578945000000047,
            "durationTicks": 96,
            "midi": 34,
            "name": "A#1",
            "ticks": 33216,
            "time": 54.631496999999996,
            "velocity": 0.4409448818897638
          },
          {
            "duration": 0.1578944999999976,
            "durationTicks": 96,
            "midi": 42,
            "name": "F#2",
            "ticks": 33312,
            "time": 54.7893915,
            "velocity": 0.4409448818897638
          },
          {
            "duration": 0.1578944999999976,
            "durationTicks": 96,
            "midi": 39,
            "name": "D#2",
            "ticks": 33408,
            "time": 54.947286,
            "velocity": 0.4409448818897638
          },
          {
            "duration": 0.1578945000000047,
            "durationTicks": 96,
            "midi": 42,
            "name": "F#2",
            "ticks": 33504,
            "time": 55.105180499999996,
            "velocity": 0.4409448818897638
          },
          {
            "duration": 0.1578944999999976,
            "durationTicks": 96,
            "midi": 34,
            "name": "A#1",
            "ticks": 33600,
            "time": 55.263075,
            "velocity": 0.4409448818897638
          },
          {
            "duration": 0.1578944999999976,
            "durationTicks": 96,
            "midi": 42,
            "name": "F#2",
            "ticks": 33696,
            "time": 55.4209695,
            "velocity": 0.4409448818897638
          },
          {
            "duration": 0.1578945000000047,
            "durationTicks": 96,
            "midi": 40,
            "name": "E2",
            "ticks": 33792,
            "time": 55.578863999999996,
            "velocity": 0.4409448818897638
          },
          {
            "duration": 0.1578944999999976,
            "durationTicks": 96,
            "midi": 44,
            "name": "G#2",
            "ticks": 33888,
            "time": 55.7367585,
            "velocity": 0.4409448818897638
          },
          {
            "duration": 0.1578944999999976,
            "durationTicks": 96,
            "midi": 35,
            "name": "B1",
            "ticks": 33984,
            "time": 55.894653,
            "velocity": 0.4409448818897638
          },
          {
            "duration": 0.1578945000000047,
            "durationTicks": 96,
            "midi": 44,
            "name": "G#2",
            "ticks": 34080,
            "time": 56.052547499999996,
            "velocity": 0.4409448818897638
          },
          {
            "duration": 0.1578944999999976,
            "durationTicks": 96,
            "midi": 40,
            "name": "E2",
            "ticks": 34176,
            "time": 56.210442,
            "velocity": 0.4409448818897638
          },
          {
            "duration": 0.1578944999999976,
            "durationTicks": 96,
            "midi": 44,
            "name": "G#2",
            "ticks": 34272,
            "time": 56.3683365,
            "velocity": 0.4409448818897638
          },
          {
            "duration": 0.1578945000000047,
            "durationTicks": 96,
            "midi": 35,
            "name": "B1",
            "ticks": 34368,
            "time": 56.526230999999996,
            "velocity": 0.4409448818897638
          },
          {
            "duration": 0.1578944999999976,
            "durationTicks": 96,
            "midi": 44,
            "name": "G#2",
            "ticks": 34464,
            "time": 56.6841255,
            "velocity": 0.4409448818897638
          },
          {
            "duration": 0.1578944999999976,
            "durationTicks": 96,
            "midi": 47,
            "name": "B2",
            "ticks": 34560,
            "time": 56.84202,
            "velocity": 0.4409448818897638
          },
          {
            "duration": 0.1578945000000047,
            "durationTicks": 96,
            "midi": 51,
            "name": "D#3",
            "ticks": 34656,
            "time": 56.999914499999996,
            "velocity": 0.4409448818897638
          },
          {
            "duration": 0.1578944999999976,
            "durationTicks": 96,
            "midi": 42,
            "name": "F#2",
            "ticks": 34752,
            "time": 57.157809,
            "velocity": 0.4409448818897638
          },
          {
            "duration": 0.1578944999999976,
            "durationTicks": 96,
            "midi": 51,
            "name": "D#3",
            "ticks": 34848,
            "time": 57.3157035,
            "velocity": 0.4409448818897638
          },
          {
            "duration": 0.1578945000000047,
            "durationTicks": 96,
            "midi": 47,
            "name": "B2",
            "ticks": 34944,
            "time": 57.473597999999996,
            "velocity": 0.4409448818897638
          },
          {
            "duration": 0.1578944999999976,
            "durationTicks": 96,
            "midi": 51,
            "name": "D#3",
            "ticks": 35040,
            "time": 57.6314925,
            "velocity": 0.4409448818897638
          },
          {
            "duration": 0.1578944999999976,
            "durationTicks": 96,
            "midi": 42,
            "name": "F#2",
            "ticks": 35136,
            "time": 57.789387,
            "velocity": 0.4409448818897638
          },
          {
            "duration": 0.1578945000000047,
            "durationTicks": 96,
            "midi": 51,
            "name": "D#3",
            "ticks": 35232,
            "time": 57.947281499999995,
            "velocity": 0.4409448818897638
          },
          {
            "duration": 0.1578944999999976,
            "durationTicks": 96,
            "midi": 49,
            "name": "C#3",
            "ticks": 35328,
            "time": 58.105176,
            "velocity": 0.4409448818897638
          },
          {
            "duration": 0.1578945000000047,
            "durationTicks": 96,
            "midi": 47,
            "name": "B2",
            "ticks": 35520,
            "time": 58.420964999999995,
            "velocity": 0.4409448818897638
          },
          {
            "duration": 0.1578944999999976,
            "durationTicks": 96,
            "midi": 46,
            "name": "A#2",
            "ticks": 35712,
            "time": 58.736754,
            "velocity": 0.4409448818897638
          },
          {
            "duration": 0.1578944999999976,
            "durationTicks": 96,
            "midi": 44,
            "name": "G#2",
            "ticks": 35904,
            "time": 59.052543,
            "velocity": 0.4409448818897638
          },
          {
            "duration": 0.1578944999999976,
            "durationTicks": 96,
            "midi": 40,
            "name": "E2",
            "ticks": 36864,
            "time": 60.631488,
            "velocity": 0.4409448818897638
          },
          {
            "duration": 0.1578945000000047,
            "durationTicks": 96,
            "midi": 43,
            "name": "G2",
            "ticks": 36960,
            "time": 60.789382499999995,
            "velocity": 0.4409448818897638
          },
          {
            "duration": 0.1578944999999976,
            "durationTicks": 96,
            "midi": 35,
            "name": "B1",
            "ticks": 37056,
            "time": 60.947277,
            "velocity": 0.4409448818897638
          },
          {
            "duration": 0.1578944999999976,
            "durationTicks": 96,
            "midi": 43,
            "name": "G2",
            "ticks": 37152,
            "time": 61.1051715,
            "velocity": 0.4409448818897638
          },
          {
            "duration": 0.1578945000000047,
            "durationTicks": 96,
            "midi": 40,
            "name": "E2",
            "ticks": 37248,
            "time": 61.263065999999995,
            "velocity": 0.4409448818897638
          },
          {
            "duration": 0.1578944999999976,
            "durationTicks": 96,
            "midi": 43,
            "name": "G2",
            "ticks": 37344,
            "time": 61.4209605,
            "velocity": 0.4409448818897638
          },
          {
            "duration": 0.1578944999999976,
            "durationTicks": 96,
            "midi": 35,
            "name": "B1",
            "ticks": 37440,
            "time": 61.578855,
            "velocity": 0.4409448818897638
          },
          {
            "duration": 0.1578945000000047,
            "durationTicks": 96,
            "midi": 43,
            "name": "G2",
            "ticks": 37536,
            "time": 61.736749499999995,
            "velocity": 0.4409448818897638
          },
          {
            "duration": 0.1578944999999976,
            "durationTicks": 96,
            "midi": 40,
            "name": "E2",
            "ticks": 37632,
            "time": 61.894644,
            "velocity": 0.4409448818897638
          },
          {
            "duration": 0.1578944999999976,
            "durationTicks": 96,
            "midi": 43,
            "name": "G2",
            "ticks": 37728,
            "time": 62.0525385,
            "velocity": 0.4409448818897638
          },
          {
            "duration": 0.1578945000000047,
            "durationTicks": 96,
            "midi": 35,
            "name": "B1",
            "ticks": 37824,
            "time": 62.210432999999995,
            "velocity": 0.4409448818897638
          },
          {
            "duration": 0.1578944999999976,
            "durationTicks": 96,
            "midi": 43,
            "name": "G2",
            "ticks": 37920,
            "time": 62.3683275,
            "velocity": 0.4409448818897638
          },
          {
            "duration": 0.1578944999999976,
            "durationTicks": 96,
            "midi": 40,
            "name": "E2",
            "ticks": 38016,
            "time": 62.526222,
            "velocity": 0.4409448818897638
          },
          {
            "duration": 0.1578945000000047,
            "durationTicks": 96,
            "midi": 43,
            "name": "G2",
            "ticks": 38112,
            "time": 62.684116499999995,
            "velocity": 0.4409448818897638
          },
          {
            "duration": 0.1578944999999976,
            "durationTicks": 96,
            "midi": 35,
            "name": "B1",
            "ticks": 38208,
            "time": 62.842011,
            "velocity": 0.4409448818897638
          },
          {
            "duration": 0.1578944999999976,
            "durationTicks": 96,
            "midi": 43,
            "name": "G2",
            "ticks": 38304,
            "time": 62.9999055,
            "velocity": 0.4409448818897638
          },
          {
            "duration": 0.1578945000000047,
            "durationTicks": 96,
            "midi": 47,
            "name": "B2",
            "ticks": 38400,
            "time": 63.157799999999995,
            "velocity": 0.4409448818897638
          },
          {
            "duration": 0.1578944999999976,
            "durationTicks": 96,
            "midi": 51,
            "name": "D#3",
            "ticks": 38496,
            "time": 63.3156945,
            "velocity": 0.4409448818897638
          },
          {
            "duration": 0.1578944999999976,
            "durationTicks": 96,
            "midi": 42,
            "name": "F#2",
            "ticks": 38592,
            "time": 63.473589,
            "velocity": 0.4409448818897638
          },
          {
            "duration": 0.1578945000000047,
            "durationTicks": 96,
            "midi": 51,
            "name": "D#3",
            "ticks": 38688,
            "time": 63.631483499999995,
            "velocity": 0.4409448818897638
          },
          {
            "duration": 0.1578944999999976,
            "durationTicks": 96,
            "midi": 47,
            "name": "B2",
            "ticks": 38784,
            "time": 63.789378,
            "velocity": 0.4409448818897638
          },
          {
            "duration": 0.1578944999999976,
            "durationTicks": 96,
            "midi": 51,
            "name": "D#3",
            "ticks": 38880,
            "time": 63.9472725,
            "velocity": 0.4409448818897638
          },
          {
            "duration": 0.1578944999999976,
            "durationTicks": 96,
            "midi": 42,
            "name": "F#2",
            "ticks": 38976,
            "time": 64.105167,
            "velocity": 0.4409448818897638
          },
          {
            "duration": 0.15789450000001182,
            "durationTicks": 96,
            "midi": 51,
            "name": "D#3",
            "ticks": 39072,
            "time": 64.26306149999999,
            "velocity": 0.4409448818897638
          },
          {
            "duration": 0.1578944999999976,
            "durationTicks": 96,
            "midi": 42,
            "name": "F#2",
            "ticks": 39168,
            "time": 64.420956,
            "velocity": 0.4409448818897638
          },
          {
            "duration": 0.1578944999999976,
            "durationTicks": 96,
            "midi": 47,
            "name": "B2",
            "ticks": 39264,
            "time": 64.5788505,
            "velocity": 0.4409448818897638
          },
          {
            "duration": 0.1578944999999976,
            "durationTicks": 96,
            "midi": 37,
            "name": "C#2",
            "ticks": 39360,
            "time": 64.736745,
            "velocity": 0.4409448818897638
          },
          {
            "duration": 0.1578944999999976,
            "durationTicks": 96,
            "midi": 47,
            "name": "B2",
            "ticks": 39456,
            "time": 64.8946395,
            "velocity": 0.4409448818897638
          },
          {
            "duration": 0.1578944999999976,
            "durationTicks": 96,
            "midi": 42,
            "name": "F#2",
            "ticks": 39552,
            "time": 65.052534,
            "velocity": 0.4409448818897638
          },
          {
            "duration": 0.15789450000001182,
            "durationTicks": 96,
            "midi": 47,
            "name": "B2",
            "ticks": 39648,
            "time": 65.21042849999999,
            "velocity": 0.4409448818897638
          },
          {
            "duration": 0.1578944999999976,
            "durationTicks": 96,
            "midi": 37,
            "name": "C#2",
            "ticks": 39744,
            "time": 65.368323,
            "velocity": 0.4409448818897638
          },
          {
            "duration": 0.1578944999999976,
            "durationTicks": 96,
            "midi": 47,
            "name": "B2",
            "ticks": 39840,
            "time": 65.5262175,
            "velocity": 0.4409448818897638
          },
          {
            "duration": 0.1578944999999976,
            "durationTicks": 96,
            "midi": 40,
            "name": "E2",
            "ticks": 39936,
            "time": 65.684112,
            "velocity": 0.4409448818897638
          },
          {
            "duration": 0.1578944999999976,
            "durationTicks": 96,
            "midi": 43,
            "name": "G2",
            "ticks": 40032,
            "time": 65.8420065,
            "velocity": 0.4409448818897638
          },
          {
            "duration": 0.1578944999999976,
            "durationTicks": 96,
            "midi": 35,
            "name": "B1",
            "ticks": 40128,
            "time": 65.999901,
            "velocity": 0.4409448818897638
          },
          {
            "duration": 0.15789450000001182,
            "durationTicks": 96,
            "midi": 43,
            "name": "G2",
            "ticks": 40224,
            "time": 66.15779549999999,
            "velocity": 0.4409448818897638
          },
          {
            "duration": 0.1578944999999976,
            "durationTicks": 96,
            "midi": 40,
            "name": "E2",
            "ticks": 40320,
            "time": 66.31569,
            "velocity": 0.4409448818897638
          },
          {
            "duration": 0.1578944999999976,
            "durationTicks": 96,
            "midi": 43,
            "name": "G2",
            "ticks": 40416,
            "time": 66.4735845,
            "velocity": 0.4409448818897638
          },
          {
            "duration": 0.1578944999999976,
            "durationTicks": 96,
            "midi": 35,
            "name": "B1",
            "ticks": 40512,
            "time": 66.631479,
            "velocity": 0.4409448818897638
          },
          {
            "duration": 0.1578944999999976,
            "durationTicks": 96,
            "midi": 43,
            "name": "G2",
            "ticks": 40608,
            "time": 66.7893735,
            "velocity": 0.4409448818897638
          },
          {
            "duration": 0.1578944999999976,
            "durationTicks": 96,
            "midi": 40,
            "name": "E2",
            "ticks": 40704,
            "time": 66.947268,
            "velocity": 0.4409448818897638
          },
          {
            "duration": 0.15789450000001182,
            "durationTicks": 96,
            "midi": 43,
            "name": "G2",
            "ticks": 40800,
            "time": 67.10516249999999,
            "velocity": 0.4409448818897638
          },
          {
            "duration": 0.1578944999999976,
            "durationTicks": 96,
            "midi": 35,
            "name": "B1",
            "ticks": 40896,
            "time": 67.263057,
            "velocity": 0.4409448818897638
          },
          {
            "duration": 0.1578944999999976,
            "durationTicks": 96,
            "midi": 43,
            "name": "G2",
            "ticks": 40992,
            "time": 67.4209515,
            "velocity": 0.4409448818897638
          },
          {
            "duration": 0.1578944999999976,
            "durationTicks": 96,
            "midi": 40,
            "name": "E2",
            "ticks": 41088,
            "time": 67.578846,
            "velocity": 0.4409448818897638
          },
          {
            "duration": 0.1578944999999976,
            "durationTicks": 96,
            "midi": 43,
            "name": "G2",
            "ticks": 41184,
            "time": 67.7367405,
            "velocity": 0.4409448818897638
          },
          {
            "duration": 0.1578944999999976,
            "durationTicks": 96,
            "midi": 35,
            "name": "B1",
            "ticks": 41280,
            "time": 67.894635,
            "velocity": 0.4409448818897638
          },
          {
            "duration": 0.15789450000001182,
            "durationTicks": 96,
            "midi": 43,
            "name": "G2",
            "ticks": 41376,
            "time": 68.05252949999999,
            "velocity": 0.4409448818897638
          },
          {
            "duration": 0.1578944999999976,
            "durationTicks": 96,
            "midi": 47,
            "name": "B2",
            "ticks": 41472,
            "time": 68.210424,
            "velocity": 0.4409448818897638
          },
          {
            "duration": 0.1578944999999976,
            "durationTicks": 96,
            "midi": 51,
            "name": "D#3",
            "ticks": 41568,
            "time": 68.3683185,
            "velocity": 0.4409448818897638
          },
          {
            "duration": 0.1578944999999976,
            "durationTicks": 96,
            "midi": 42,
            "name": "F#2",
            "ticks": 41664,
            "time": 68.526213,
            "velocity": 0.4409448818897638
          },
          {
            "duration": 0.1578944999999976,
            "durationTicks": 96,
            "midi": 51,
            "name": "D#3",
            "ticks": 41760,
            "time": 68.6841075,
            "velocity": 0.4409448818897638
          },
          {
            "duration": 0.1578944999999976,
            "durationTicks": 96,
            "midi": 47,
            "name": "B2",
            "ticks": 41856,
            "time": 68.842002,
            "velocity": 0.4409448818897638
          },
          {
            "duration": 0.15789450000001182,
            "durationTicks": 96,
            "midi": 51,
            "name": "D#3",
            "ticks": 41952,
            "time": 68.99989649999999,
            "velocity": 0.4409448818897638
          },
          {
            "duration": 0.1578944999999976,
            "durationTicks": 96,
            "midi": 42,
            "name": "F#2",
            "ticks": 42048,
            "time": 69.157791,
            "velocity": 0.4409448818897638
          },
          {
            "duration": 0.1578944999999976,
            "durationTicks": 96,
            "midi": 51,
            "name": "D#3",
            "ticks": 42144,
            "time": 69.3156855,
            "velocity": 0.4409448818897638
          },
          {
            "duration": 0.1578944999999976,
            "durationTicks": 96,
            "midi": 42,
            "name": "F#2",
            "ticks": 42240,
            "time": 69.47358,
            "velocity": 0.4409448818897638
          },
          {
            "duration": 0.1578944999999976,
            "durationTicks": 96,
            "midi": 47,
            "name": "B2",
            "ticks": 42336,
            "time": 69.6314745,
            "velocity": 0.4409448818897638
          },
          {
            "duration": 0.1578944999999976,
            "durationTicks": 96,
            "midi": 44,
            "name": "G#2",
            "ticks": 42432,
            "time": 69.789369,
            "velocity": 0.4409448818897638
          },
          {
            "duration": 0.15789450000001182,
            "durationTicks": 96,
            "midi": 47,
            "name": "B2",
            "ticks": 42528,
            "time": 69.94726349999999,
            "velocity": 0.4409448818897638
          },
          {
            "duration": 0.1578944999999976,
            "durationTicks": 96,
            "midi": 46,
            "name": "A#2",
            "ticks": 42624,
            "time": 70.105158,
            "velocity": 0.4409448818897638
          },
          {
            "duration": 0.1578944999999976,
            "durationTicks": 96,
            "midi": 47,
            "name": "B2",
            "ticks": 42720,
            "time": 70.2630525,
            "velocity": 0.4409448818897638
          },
          {
            "duration": 0.1578944999999976,
            "durationTicks": 96,
            "midi": 42,
            "name": "F#2",
            "ticks": 42816,
            "time": 70.420947,
            "velocity": 0.4409448818897638
          },
          {
            "duration": 0.1578944999999976,
            "durationTicks": 96,
            "midi": 47,
            "name": "B2",
            "ticks": 42912,
            "time": 70.5788415,
            "velocity": 0.4409448818897638
          },
          {
            "duration": 0.1578944999999976,
            "durationTicks": 96,
            "midi": 40,
            "name": "E2",
            "ticks": 43008,
            "time": 70.736736,
            "velocity": 0.4409448818897638
          },
          {
            "duration": 0.15789450000001182,
            "durationTicks": 96,
            "midi": 43,
            "name": "G2",
            "ticks": 43104,
            "time": 70.89463049999999,
            "velocity": 0.4409448818897638
          },
          {
            "duration": 0.1578944999999976,
            "durationTicks": 96,
            "midi": 35,
            "name": "B1",
            "ticks": 43200,
            "time": 71.052525,
            "velocity": 0.4409448818897638
          },
          {
            "duration": 0.1578944999999976,
            "durationTicks": 96,
            "midi": 43,
            "name": "G2",
            "ticks": 43296,
            "time": 71.2104195,
            "velocity": 0.4409448818897638
          },
          {
            "duration": 0.1578944999999976,
            "durationTicks": 96,
            "midi": 40,
            "name": "E2",
            "ticks": 43392,
            "time": 71.368314,
            "velocity": 0.4409448818897638
          },
          {
            "duration": 0.1578944999999976,
            "durationTicks": 96,
            "midi": 43,
            "name": "G2",
            "ticks": 43488,
            "time": 71.5262085,
            "velocity": 0.4409448818897638
          },
          {
            "duration": 0.1578944999999976,
            "durationTicks": 96,
            "midi": 35,
            "name": "B1",
            "ticks": 43584,
            "time": 71.684103,
            "velocity": 0.4409448818897638
          },
          {
            "duration": 0.15789450000001182,
            "durationTicks": 96,
            "midi": 43,
            "name": "G2",
            "ticks": 43680,
            "time": 71.84199749999999,
            "velocity": 0.4409448818897638
          },
          {
            "duration": 0.1578944999999976,
            "durationTicks": 96,
            "midi": 40,
            "name": "E2",
            "ticks": 43776,
            "time": 71.999892,
            "velocity": 0.4409448818897638
          },
          {
            "duration": 0.1578944999999976,
            "durationTicks": 96,
            "midi": 43,
            "name": "G2",
            "ticks": 43872,
            "time": 72.1577865,
            "velocity": 0.4409448818897638
          },
          {
            "duration": 0.1578944999999976,
            "durationTicks": 96,
            "midi": 35,
            "name": "B1",
            "ticks": 43968,
            "time": 72.315681,
            "velocity": 0.4409448818897638
          },
          {
            "duration": 0.1578944999999976,
            "durationTicks": 96,
            "midi": 43,
            "name": "G2",
            "ticks": 44064,
            "time": 72.4735755,
            "velocity": 0.4409448818897638
          },
          {
            "duration": 0.1578944999999976,
            "durationTicks": 96,
            "midi": 40,
            "name": "E2",
            "ticks": 44160,
            "time": 72.63147,
            "velocity": 0.4409448818897638
          },
          {
            "duration": 0.15789450000001182,
            "durationTicks": 96,
            "midi": 43,
            "name": "G2",
            "ticks": 44256,
            "time": 72.78936449999999,
            "velocity": 0.4409448818897638
          },
          {
            "duration": 0.1578944999999976,
            "durationTicks": 96,
            "midi": 35,
            "name": "B1",
            "ticks": 44352,
            "time": 72.947259,
            "velocity": 0.4409448818897638
          },
          {
            "duration": 0.1578944999999976,
            "durationTicks": 96,
            "midi": 43,
            "name": "G2",
            "ticks": 44448,
            "time": 73.1051535,
            "velocity": 0.4409448818897638
          },
          {
            "duration": 0.1578944999999976,
            "durationTicks": 96,
            "midi": 47,
            "name": "B2",
            "ticks": 44544,
            "time": 73.263048,
            "velocity": 0.4409448818897638
          },
          {
            "duration": 0.1578944999999976,
            "durationTicks": 96,
            "midi": 51,
            "name": "D#3",
            "ticks": 44640,
            "time": 73.4209425,
            "velocity": 0.4409448818897638
          },
          {
            "duration": 0.1578944999999976,
            "durationTicks": 96,
            "midi": 42,
            "name": "F#2",
            "ticks": 44736,
            "time": 73.578837,
            "velocity": 0.4409448818897638
          },
          {
            "duration": 0.15789450000001182,
            "durationTicks": 96,
            "midi": 51,
            "name": "D#3",
            "ticks": 44832,
            "time": 73.73673149999999,
            "velocity": 0.4409448818897638
          },
          {
            "duration": 0.1578944999999976,
            "durationTicks": 96,
            "midi": 47,
            "name": "B2",
            "ticks": 44928,
            "time": 73.894626,
            "velocity": 0.4409448818897638
          },
          {
            "duration": 0.1578944999999976,
            "durationTicks": 96,
            "midi": 51,
            "name": "D#3",
            "ticks": 45024,
            "time": 74.0525205,
            "velocity": 0.4409448818897638
          },
          {
            "duration": 0.1578944999999976,
            "durationTicks": 96,
            "midi": 42,
            "name": "F#2",
            "ticks": 45120,
            "time": 74.210415,
            "velocity": 0.4409448818897638
          },
          {
            "duration": 0.1578944999999976,
            "durationTicks": 96,
            "midi": 51,
            "name": "D#3",
            "ticks": 45216,
            "time": 74.3683095,
            "velocity": 0.4409448818897638
          },
          {
            "duration": 0.1578944999999976,
            "durationTicks": 96,
            "midi": 42,
            "name": "F#2",
            "ticks": 45312,
            "time": 74.52620399999999,
            "velocity": 0.4409448818897638
          },
          {
            "duration": 0.15789450000001182,
            "durationTicks": 96,
            "midi": 47,
            "name": "B2",
            "ticks": 45408,
            "time": 74.68409849999999,
            "velocity": 0.4409448818897638
          },
          {
            "duration": 0.1578944999999976,
            "durationTicks": 96,
            "midi": 37,
            "name": "C#2",
            "ticks": 45504,
            "time": 74.841993,
            "velocity": 0.4409448818897638
          },
          {
            "duration": 0.1578944999999976,
            "durationTicks": 96,
            "midi": 47,
            "name": "B2",
            "ticks": 45600,
            "time": 74.9998875,
            "velocity": 0.4409448818897638
          },
          {
            "duration": 0.1578944999999976,
            "durationTicks": 96,
            "midi": 42,
            "name": "F#2",
            "ticks": 45696,
            "time": 75.157782,
            "velocity": 0.4409448818897638
          },
          {
            "duration": 0.1578944999999976,
            "durationTicks": 96,
            "midi": 47,
            "name": "B2",
            "ticks": 45792,
            "time": 75.3156765,
            "velocity": 0.4409448818897638
          },
          {
            "duration": 0.1578944999999976,
            "durationTicks": 96,
            "midi": 37,
            "name": "C#2",
            "ticks": 45888,
            "time": 75.47357099999999,
            "velocity": 0.4409448818897638
          },
          {
            "duration": 0.15789450000001182,
            "durationTicks": 96,
            "midi": 47,
            "name": "B2",
            "ticks": 45984,
            "time": 75.63146549999999,
            "velocity": 0.4409448818897638
          },
          {
            "duration": 0.1578944999999976,
            "durationTicks": 96,
            "midi": 40,
            "name": "E2",
            "ticks": 46080,
            "time": 75.78936,
            "velocity": 0.4409448818897638
          },
          {
            "duration": 0.1578944999999976,
            "durationTicks": 96,
            "midi": 43,
            "name": "G2",
            "ticks": 46176,
            "time": 75.9472545,
            "velocity": 0.4409448818897638
          },
          {
            "duration": 0.1578944999999976,
            "durationTicks": 96,
            "midi": 35,
            "name": "B1",
            "ticks": 46272,
            "time": 76.105149,
            "velocity": 0.4409448818897638
          },
          {
            "duration": 0.1578944999999976,
            "durationTicks": 96,
            "midi": 43,
            "name": "G2",
            "ticks": 46368,
            "time": 76.2630435,
            "velocity": 0.4409448818897638
          },
          {
            "duration": 0.1578944999999976,
            "durationTicks": 96,
            "midi": 40,
            "name": "E2",
            "ticks": 46464,
            "time": 76.42093799999999,
            "velocity": 0.4409448818897638
          },
          {
            "duration": 0.15789450000001182,
            "durationTicks": 96,
            "midi": 43,
            "name": "G2",
            "ticks": 46560,
            "time": 76.57883249999999,
            "velocity": 0.4409448818897638
          },
          {
            "duration": 0.1578944999999976,
            "durationTicks": 96,
            "midi": 35,
            "name": "B1",
            "ticks": 46656,
            "time": 76.736727,
            "velocity": 0.4409448818897638
          },
          {
            "duration": 0.1578944999999976,
            "durationTicks": 96,
            "midi": 43,
            "name": "G2",
            "ticks": 46752,
            "time": 76.8946215,
            "velocity": 0.4409448818897638
          },
          {
            "duration": 0.1578944999999976,
            "durationTicks": 96,
            "midi": 40,
            "name": "E2",
            "ticks": 46848,
            "time": 77.052516,
            "velocity": 0.4409448818897638
          },
          {
            "duration": 0.1578944999999976,
            "durationTicks": 96,
            "midi": 43,
            "name": "G2",
            "ticks": 46944,
            "time": 77.2104105,
            "velocity": 0.4409448818897638
          },
          {
            "duration": 0.1578944999999976,
            "durationTicks": 96,
            "midi": 35,
            "name": "B1",
            "ticks": 47040,
            "time": 77.36830499999999,
            "velocity": 0.4409448818897638
          },
          {
            "duration": 0.15789450000001182,
            "durationTicks": 96,
            "midi": 43,
            "name": "G2",
            "ticks": 47136,
            "time": 77.52619949999999,
            "velocity": 0.4409448818897638
          },
          {
            "duration": 0.1578944999999976,
            "durationTicks": 96,
            "midi": 40,
            "name": "E2",
            "ticks": 47232,
            "time": 77.684094,
            "velocity": 0.4409448818897638
          },
          {
            "duration": 0.1578944999999976,
            "durationTicks": 96,
            "midi": 43,
            "name": "G2",
            "ticks": 47328,
            "time": 77.8419885,
            "velocity": 0.4409448818897638
          },
          {
            "duration": 0.1578944999999976,
            "durationTicks": 96,
            "midi": 35,
            "name": "B1",
            "ticks": 47424,
            "time": 77.999883,
            "velocity": 0.4409448818897638
          },
          {
            "duration": 0.1578944999999976,
            "durationTicks": 96,
            "midi": 43,
            "name": "G2",
            "ticks": 47520,
            "time": 78.1577775,
            "velocity": 0.4409448818897638
          },
          {
            "duration": 0.1578944999999976,
            "durationTicks": 96,
            "midi": 47,
            "name": "B2",
            "ticks": 47616,
            "time": 78.31567199999999,
            "velocity": 0.4409448818897638
          },
          {
            "duration": 0.15789450000001182,
            "durationTicks": 96,
            "midi": 51,
            "name": "D#3",
            "ticks": 47712,
            "time": 78.47356649999999,
            "velocity": 0.4409448818897638
          },
          {
            "duration": 0.1578944999999976,
            "durationTicks": 96,
            "midi": 42,
            "name": "F#2",
            "ticks": 47808,
            "time": 78.631461,
            "velocity": 0.4409448818897638
          },
          {
            "duration": 0.1578944999999976,
            "durationTicks": 96,
            "midi": 51,
            "name": "D#3",
            "ticks": 47904,
            "time": 78.7893555,
            "velocity": 0.4409448818897638
          },
          {
            "duration": 0.1578944999999976,
            "durationTicks": 96,
            "midi": 47,
            "name": "B2",
            "ticks": 48000,
            "time": 78.94725,
            "velocity": 0.4409448818897638
          },
          {
            "duration": 0.1578944999999976,
            "durationTicks": 96,
            "midi": 51,
            "name": "D#3",
            "ticks": 48096,
            "time": 79.1051445,
            "velocity": 0.4409448818897638
          },
          {
            "duration": 0.1578944999999976,
            "durationTicks": 96,
            "midi": 42,
            "name": "F#2",
            "ticks": 48192,
            "time": 79.26303899999999,
            "velocity": 0.4409448818897638
          },
          {
            "duration": 0.15789450000001182,
            "durationTicks": 96,
            "midi": 51,
            "name": "D#3",
            "ticks": 48288,
            "time": 79.42093349999999,
            "velocity": 0.4409448818897638
          },
          {
            "duration": 0.1578944999999976,
            "durationTicks": 96,
            "midi": 42,
            "name": "F#2",
            "ticks": 48384,
            "time": 79.578828,
            "velocity": 0.4409448818897638
          },
          {
            "duration": 0.1578944999999976,
            "durationTicks": 96,
            "midi": 47,
            "name": "B2",
            "ticks": 48480,
            "time": 79.7367225,
            "velocity": 0.4409448818897638
          },
          {
            "duration": 0.1578944999999976,
            "durationTicks": 96,
            "midi": 44,
            "name": "G#2",
            "ticks": 48576,
            "time": 79.894617,
            "velocity": 0.4409448818897638
          },
          {
            "duration": 0.1578944999999976,
            "durationTicks": 96,
            "midi": 47,
            "name": "B2",
            "ticks": 48672,
            "time": 80.0525115,
            "velocity": 0.4409448818897638
          },
          {
            "duration": 0.1578944999999976,
            "durationTicks": 96,
            "midi": 46,
            "name": "A#2",
            "ticks": 48768,
            "time": 80.21040599999999,
            "velocity": 0.4409448818897638
          },
          {
            "duration": 0.15789450000001182,
            "durationTicks": 96,
            "midi": 47,
            "name": "B2",
            "ticks": 48864,
            "time": 80.36830049999999,
            "velocity": 0.4409448818897638
          },
          {
            "duration": 0.1578944999999976,
            "durationTicks": 96,
            "midi": 42,
            "name": "F#2",
            "ticks": 48960,
            "time": 80.526195,
            "velocity": 0.4409448818897638
          },
          {
            "duration": 0.1578944999999976,
            "durationTicks": 96,
            "midi": 47,
            "name": "B2",
            "ticks": 49056,
            "time": 80.6840895,
            "velocity": 0.4409448818897638
          },
          {
            "duration": 0.1578944999999976,
            "durationTicks": 96,
            "midi": 40,
            "name": "E2",
            "ticks": 49152,
            "time": 80.841984,
            "velocity": 0.4409448818897638
          },
          {
            "duration": 0.1578944999999976,
            "durationTicks": 96,
            "midi": 44,
            "name": "G#2",
            "ticks": 49248,
            "time": 80.9998785,
            "velocity": 0.4409448818897638
          },
          {
            "duration": 0.15789450000001182,
            "durationTicks": 96,
            "midi": 35,
            "name": "B1",
            "ticks": 49344,
            "time": 81.15777299999999,
            "velocity": 0.4409448818897638
          },
          {
            "duration": 0.1578944999999976,
            "durationTicks": 96,
            "midi": 44,
            "name": "G#2",
            "ticks": 49440,
            "time": 81.3156675,
            "velocity": 0.4409448818897638
          },
          {
            "duration": 0.1578944999999976,
            "durationTicks": 96,
            "midi": 40,
            "name": "E2",
            "ticks": 49536,
            "time": 81.473562,
            "velocity": 0.4409448818897638
          },
          {
            "duration": 0.1578944999999976,
            "durationTicks": 96,
            "midi": 44,
            "name": "G#2",
            "ticks": 49632,
            "time": 81.6314565,
            "velocity": 0.4409448818897638
          },
          {
            "duration": 0.1578944999999976,
            "durationTicks": 96,
            "midi": 35,
            "name": "B1",
            "ticks": 49728,
            "time": 81.789351,
            "velocity": 0.4409448818897638
          },
          {
            "duration": 0.1578944999999976,
            "durationTicks": 96,
            "midi": 44,
            "name": "G#2",
            "ticks": 49824,
            "time": 81.9472455,
            "velocity": 0.4409448818897638
          },
          {
            "duration": 0.15789450000001182,
            "durationTicks": 96,
            "midi": 42,
            "name": "F#2",
            "ticks": 49920,
            "time": 82.10513999999999,
            "velocity": 0.4409448818897638
          },
          {
            "duration": 0.1578944999999976,
            "durationTicks": 96,
            "midi": 46,
            "name": "A#2",
            "ticks": 50016,
            "time": 82.2630345,
            "velocity": 0.4409448818897638
          },
          {
            "duration": 0.1578944999999976,
            "durationTicks": 96,
            "midi": 37,
            "name": "C#2",
            "ticks": 50112,
            "time": 82.420929,
            "velocity": 0.4409448818897638
          },
          {
            "duration": 0.1578944999999976,
            "durationTicks": 96,
            "midi": 46,
            "name": "A#2",
            "ticks": 50208,
            "time": 82.5788235,
            "velocity": 0.4409448818897638
          },
          {
            "duration": 0.1578944999999976,
            "durationTicks": 96,
            "midi": 42,
            "name": "F#2",
            "ticks": 50304,
            "time": 82.736718,
            "velocity": 0.4409448818897638
          },
          {
            "duration": 0.1578944999999976,
            "durationTicks": 96,
            "midi": 46,
            "name": "A#2",
            "ticks": 50400,
            "time": 82.8946125,
            "velocity": 0.4409448818897638
          },
          {
            "duration": 0.15789450000001182,
            "durationTicks": 96,
            "midi": 37,
            "name": "C#2",
            "ticks": 50496,
            "time": 83.05250699999999,
            "velocity": 0.4409448818897638
          },
          {
            "duration": 0.1578944999999976,
            "durationTicks": 96,
            "midi": 46,
            "name": "A#2",
            "ticks": 50592,
            "time": 83.2104015,
            "velocity": 0.4409448818897638
          },
          {
            "duration": 0.1578944999999976,
            "durationTicks": 96,
            "midi": 44,
            "name": "G#2",
            "ticks": 50688,
            "time": 83.368296,
            "velocity": 0.4409448818897638
          },
          {
            "duration": 0.1578944999999976,
            "durationTicks": 96,
            "midi": 47,
            "name": "B2",
            "ticks": 50784,
            "time": 83.5261905,
            "velocity": 0.4409448818897638
          },
          {
            "duration": 0.1578944999999976,
            "durationTicks": 96,
            "midi": 39,
            "name": "D#2",
            "ticks": 50880,
            "time": 83.684085,
            "velocity": 0.4409448818897638
          },
          {
            "duration": 0.1578944999999976,
            "durationTicks": 96,
            "midi": 47,
            "name": "B2",
            "ticks": 50976,
            "time": 83.8419795,
            "velocity": 0.4409448818897638
          },
          {
            "duration": 0.15789450000001182,
            "durationTicks": 96,
            "midi": 44,
            "name": "G#2",
            "ticks": 51072,
            "time": 83.99987399999999,
            "velocity": 0.4409448818897638
          },
          {
            "duration": 0.1578944999999976,
            "durationTicks": 96,
            "midi": 47,
            "name": "B2",
            "ticks": 51168,
            "time": 84.1577685,
            "velocity": 0.4409448818897638
          },
          {
            "duration": 0.1578944999999976,
            "durationTicks": 96,
            "midi": 39,
            "name": "D#2",
            "ticks": 51264,
            "time": 84.315663,
            "velocity": 0.4409448818897638
          },
          {
            "duration": 0.1578944999999976,
            "durationTicks": 96,
            "midi": 47,
            "name": "B2",
            "ticks": 51360,
            "time": 84.4735575,
            "velocity": 0.4409448818897638
          },
          {
            "duration": 0.1578944999999976,
            "durationTicks": 96,
            "midi": 42,
            "name": "F#2",
            "ticks": 51456,
            "time": 84.631452,
            "velocity": 0.4409448818897638
          },
          {
            "duration": 0.1578944999999976,
            "durationTicks": 96,
            "midi": 46,
            "name": "A#2",
            "ticks": 51552,
            "time": 84.7893465,
            "velocity": 0.4409448818897638
          },
          {
            "duration": 0.15789450000001182,
            "durationTicks": 96,
            "midi": 37,
            "name": "C#2",
            "ticks": 51648,
            "time": 84.94724099999999,
            "velocity": 0.4409448818897638
          },
          {
            "duration": 0.1578944999999976,
            "durationTicks": 96,
            "midi": 46,
            "name": "A#2",
            "ticks": 51744,
            "time": 85.1051355,
            "velocity": 0.4409448818897638
          },
          {
            "duration": 0.1578944999999976,
            "durationTicks": 96,
            "midi": 42,
            "name": "F#2",
            "ticks": 51840,
            "time": 85.26303,
            "velocity": 0.4409448818897638
          },
          {
            "duration": 0.1578944999999976,
            "durationTicks": 96,
            "midi": 46,
            "name": "A#2",
            "ticks": 51936,
            "time": 85.4209245,
            "velocity": 0.4409448818897638
          },
          {
            "duration": 0.1578944999999976,
            "durationTicks": 96,
            "midi": 37,
            "name": "C#2",
            "ticks": 52032,
            "time": 85.578819,
            "velocity": 0.4409448818897638
          },
          {
            "duration": 0.1578944999999976,
            "durationTicks": 96,
            "midi": 46,
            "name": "A#2",
            "ticks": 52128,
            "time": 85.7367135,
            "velocity": 0.4409448818897638
          },
          {
            "duration": 0.15789450000001182,
            "durationTicks": 96,
            "midi": 40,
            "name": "E2",
            "ticks": 52224,
            "time": 85.89460799999999,
            "velocity": 0.4409448818897638
          },
          {
            "duration": 0.1578944999999976,
            "durationTicks": 96,
            "midi": 44,
            "name": "G#2",
            "ticks": 52320,
            "time": 86.0525025,
            "velocity": 0.4409448818897638
          },
          {
            "duration": 0.1578944999999976,
            "durationTicks": 96,
            "midi": 35,
            "name": "B1",
            "ticks": 52416,
            "time": 86.210397,
            "velocity": 0.4409448818897638
          },
          {
            "duration": 0.1578944999999976,
            "durationTicks": 96,
            "midi": 44,
            "name": "G#2",
            "ticks": 52512,
            "time": 86.3682915,
            "velocity": 0.4409448818897638
          },
          {
            "duration": 0.1578944999999976,
            "durationTicks": 96,
            "midi": 40,
            "name": "E2",
            "ticks": 52608,
            "time": 86.526186,
            "velocity": 0.4409448818897638
          },
          {
            "duration": 0.1578944999999976,
            "durationTicks": 96,
            "midi": 44,
            "name": "G#2",
            "ticks": 52704,
            "time": 86.6840805,
            "velocity": 0.4409448818897638
          },
          {
            "duration": 0.15789450000001182,
            "durationTicks": 96,
            "midi": 35,
            "name": "B1",
            "ticks": 52800,
            "time": 86.84197499999999,
            "velocity": 0.4409448818897638
          },
          {
            "duration": 0.1578944999999976,
            "durationTicks": 96,
            "midi": 44,
            "name": "G#2",
            "ticks": 52896,
            "time": 86.9998695,
            "velocity": 0.4409448818897638
          },
          {
            "duration": 0.1578944999999976,
            "durationTicks": 96,
            "midi": 42,
            "name": "F#2",
            "ticks": 52992,
            "time": 87.157764,
            "velocity": 0.4409448818897638
          },
          {
            "duration": 0.1578944999999976,
            "durationTicks": 96,
            "midi": 46,
            "name": "A#2",
            "ticks": 53088,
            "time": 87.3156585,
            "velocity": 0.4409448818897638
          },
          {
            "duration": 0.1578944999999976,
            "durationTicks": 96,
            "midi": 37,
            "name": "C#2",
            "ticks": 53184,
            "time": 87.473553,
            "velocity": 0.4409448818897638
          },
          {
            "duration": 0.1578944999999976,
            "durationTicks": 96,
            "midi": 46,
            "name": "A#2",
            "ticks": 53280,
            "time": 87.6314475,
            "velocity": 0.4409448818897638
          },
          {
            "duration": 0.15789450000001182,
            "durationTicks": 96,
            "midi": 42,
            "name": "F#2",
            "ticks": 53376,
            "time": 87.78934199999999,
            "velocity": 0.4409448818897638
          },
          {
            "duration": 0.1578944999999976,
            "durationTicks": 96,
            "midi": 46,
            "name": "A#2",
            "ticks": 53472,
            "time": 87.9472365,
            "velocity": 0.4409448818897638
          },
          {
            "duration": 0.1578944999999976,
            "durationTicks": 96,
            "midi": 37,
            "name": "C#2",
            "ticks": 53568,
            "time": 88.105131,
            "velocity": 0.4409448818897638
          },
          {
            "duration": 0.1578944999999976,
            "durationTicks": 96,
            "midi": 46,
            "name": "A#2",
            "ticks": 53664,
            "time": 88.2630255,
            "velocity": 0.4409448818897638
          },
          {
            "duration": 0.1578944999999976,
            "durationTicks": 96,
            "midi": 44,
            "name": "G#2",
            "ticks": 53760,
            "time": 88.42092,
            "velocity": 0.4409448818897638
          },
          {
            "duration": 0.1578944999999976,
            "durationTicks": 96,
            "midi": 47,
            "name": "B2",
            "ticks": 53856,
            "time": 88.5788145,
            "velocity": 0.4409448818897638
          },
          {
            "duration": 0.15789450000001182,
            "durationTicks": 96,
            "midi": 39,
            "name": "D#2",
            "ticks": 53952,
            "time": 88.73670899999999,
            "velocity": 0.4409448818897638
          },
          {
            "duration": 0.1578944999999976,
            "durationTicks": 96,
            "midi": 47,
            "name": "B2",
            "ticks": 54048,
            "time": 88.8946035,
            "velocity": 0.4409448818897638
          },
          {
            "duration": 0.1578944999999976,
            "durationTicks": 96,
            "midi": 44,
            "name": "G#2",
            "ticks": 54144,
            "time": 89.052498,
            "velocity": 0.4409448818897638
          },
          {
            "duration": 0.1578944999999976,
            "durationTicks": 96,
            "midi": 47,
            "name": "B2",
            "ticks": 54240,
            "time": 89.2103925,
            "velocity": 0.4409448818897638
          },
          {
            "duration": 0.1578944999999976,
            "durationTicks": 96,
            "midi": 39,
            "name": "D#2",
            "ticks": 54336,
            "time": 89.368287,
            "velocity": 0.4409448818897638
          },
          {
            "duration": 0.1578944999999976,
            "durationTicks": 96,
            "midi": 47,
            "name": "B2",
            "ticks": 54432,
            "time": 89.52618149999999,
            "velocity": 0.4409448818897638
          },
          {
            "duration": 0.15789450000001182,
            "durationTicks": 96,
            "midi": 42,
            "name": "F#2",
            "ticks": 54528,
            "time": 89.68407599999999,
            "velocity": 0.4409448818897638
          },
          {
            "duration": 0.1578944999999976,
            "durationTicks": 96,
            "midi": 46,
            "name": "A#2",
            "ticks": 54624,
            "time": 89.8419705,
            "velocity": 0.4409448818897638
          },
          {
            "duration": 0.1578944999999976,
            "durationTicks": 96,
            "midi": 37,
            "name": "C#2",
            "ticks": 54720,
            "time": 89.999865,
            "velocity": 0.4409448818897638
          },
          {
            "duration": 0.1578944999999976,
            "durationTicks": 96,
            "midi": 46,
            "name": "A#2",
            "ticks": 54816,
            "time": 90.1577595,
            "velocity": 0.4409448818897638
          },
          {
            "duration": 0.1578944999999976,
            "durationTicks": 96,
            "midi": 42,
            "name": "F#2",
            "ticks": 54912,
            "time": 90.315654,
            "velocity": 0.4409448818897638
          },
          {
            "duration": 0.1578944999999976,
            "durationTicks": 96,
            "midi": 46,
            "name": "A#2",
            "ticks": 55008,
            "time": 90.47354849999999,
            "velocity": 0.4409448818897638
          },
          {
            "duration": 0.15789450000001182,
            "durationTicks": 96,
            "midi": 37,
            "name": "C#2",
            "ticks": 55104,
            "time": 90.63144299999999,
            "velocity": 0.4409448818897638
          },
          {
            "duration": 0.1578944999999976,
            "durationTicks": 96,
            "midi": 46,
            "name": "A#2",
            "ticks": 55200,
            "time": 90.7893375,
            "velocity": 0.4409448818897638
          },
          {
            "duration": 0.1578944999999976,
            "durationTicks": 96,
            "midi": 40,
            "name": "E2",
            "ticks": 55296,
            "time": 90.947232,
            "velocity": 0.4409448818897638
          },
          {
            "duration": 0.1578944999999976,
            "durationTicks": 96,
            "midi": 44,
            "name": "G#2",
            "ticks": 55392,
            "time": 91.1051265,
            "velocity": 0.4409448818897638
          },
          {
            "duration": 0.1578944999999976,
            "durationTicks": 96,
            "midi": 35,
            "name": "B1",
            "ticks": 55488,
            "time": 91.263021,
            "velocity": 0.4409448818897638
          },
          {
            "duration": 0.1578944999999976,
            "durationTicks": 96,
            "midi": 44,
            "name": "G#2",
            "ticks": 55584,
            "time": 91.42091549999999,
            "velocity": 0.4409448818897638
          },
          {
            "duration": 0.15789450000001182,
            "durationTicks": 96,
            "midi": 40,
            "name": "E2",
            "ticks": 55680,
            "time": 91.57880999999999,
            "velocity": 0.4409448818897638
          },
          {
            "duration": 0.1578944999999976,
            "durationTicks": 96,
            "midi": 44,
            "name": "G#2",
            "ticks": 55776,
            "time": 91.7367045,
            "velocity": 0.4409448818897638
          },
          {
            "duration": 0.1578944999999976,
            "durationTicks": 96,
            "midi": 35,
            "name": "B1",
            "ticks": 55872,
            "time": 91.894599,
            "velocity": 0.4409448818897638
          },
          {
            "duration": 0.1578944999999976,
            "durationTicks": 96,
            "midi": 44,
            "name": "G#2",
            "ticks": 55968,
            "time": 92.0524935,
            "velocity": 0.4409448818897638
          },
          {
            "duration": 0.1578944999999976,
            "durationTicks": 96,
            "midi": 42,
            "name": "F#2",
            "ticks": 56064,
            "time": 92.210388,
            "velocity": 0.4409448818897638
          },
          {
            "duration": 0.1578944999999976,
            "durationTicks": 96,
            "midi": 46,
            "name": "A#2",
            "ticks": 56160,
            "time": 92.36828249999999,
            "velocity": 0.4409448818897638
          },
          {
            "duration": 0.15789450000001182,
            "durationTicks": 96,
            "midi": 37,
            "name": "C#2",
            "ticks": 56256,
            "time": 92.52617699999999,
            "velocity": 0.4409448818897638
          },
          {
            "duration": 0.1578944999999976,
            "durationTicks": 96,
            "midi": 46,
            "name": "A#2",
            "ticks": 56352,
            "time": 92.6840715,
            "velocity": 0.4409448818897638
          },
          {
            "duration": 0.1578944999999976,
            "durationTicks": 96,
            "midi": 42,
            "name": "F#2",
            "ticks": 56448,
            "time": 92.841966,
            "velocity": 0.4409448818897638
          },
          {
            "duration": 0.1578944999999976,
            "durationTicks": 96,
            "midi": 46,
            "name": "A#2",
            "ticks": 56544,
            "time": 92.9998605,
            "velocity": 0.4409448818897638
          },
          {
            "duration": 0.1578944999999976,
            "durationTicks": 96,
            "midi": 37,
            "name": "C#2",
            "ticks": 56640,
            "time": 93.157755,
            "velocity": 0.4409448818897638
          },
          {
            "duration": 0.1578944999999976,
            "durationTicks": 96,
            "midi": 46,
            "name": "A#2",
            "ticks": 56736,
            "time": 93.31564949999999,
            "velocity": 0.4409448818897638
          },
          {
            "duration": 0.15789450000001182,
            "durationTicks": 96,
            "midi": 44,
            "name": "G#2",
            "ticks": 56832,
            "time": 93.47354399999999,
            "velocity": 0.4409448818897638
          },
          {
            "duration": 0.1578944999999976,
            "durationTicks": 96,
            "midi": 47,
            "name": "B2",
            "ticks": 56928,
            "time": 93.6314385,
            "velocity": 0.4409448818897638
          },
          {
            "duration": 0.1578944999999976,
            "durationTicks": 96,
            "midi": 39,
            "name": "D#2",
            "ticks": 57024,
            "time": 93.789333,
            "velocity": 0.4409448818897638
          },
          {
            "duration": 0.1578944999999976,
            "durationTicks": 96,
            "midi": 47,
            "name": "B2",
            "ticks": 57120,
            "time": 93.9472275,
            "velocity": 0.4409448818897638
          },
          {
            "duration": 0.1578944999999976,
            "durationTicks": 96,
            "midi": 44,
            "name": "G#2",
            "ticks": 57216,
            "time": 94.105122,
            "velocity": 0.4409448818897638
          },
          {
            "duration": 0.1578944999999976,
            "durationTicks": 96,
            "midi": 47,
            "name": "B2",
            "ticks": 57312,
            "time": 94.26301649999999,
            "velocity": 0.4409448818897638
          },
          {
            "duration": 0.15789450000001182,
            "durationTicks": 96,
            "midi": 39,
            "name": "D#2",
            "ticks": 57408,
            "time": 94.42091099999999,
            "velocity": 0.4409448818897638
          },
          {
            "duration": 0.1578944999999976,
            "durationTicks": 96,
            "midi": 47,
            "name": "B2",
            "ticks": 57504,
            "time": 94.5788055,
            "velocity": 0.4409448818897638
          },
          {
            "duration": 0.1578944999999976,
            "durationTicks": 96,
            "midi": 42,
            "name": "F#2",
            "ticks": 57600,
            "time": 94.7367,
            "velocity": 0.4409448818897638
          },
          {
            "duration": 0.1578944999999976,
            "durationTicks": 96,
            "midi": 46,
            "name": "A#2",
            "ticks": 57696,
            "time": 94.8945945,
            "velocity": 0.4409448818897638
          },
          {
            "duration": 0.1578944999999976,
            "durationTicks": 96,
            "midi": 37,
            "name": "C#2",
            "ticks": 57792,
            "time": 95.052489,
            "velocity": 0.4409448818897638
          },
          {
            "duration": 0.1578944999999976,
            "durationTicks": 96,
            "midi": 46,
            "name": "A#2",
            "ticks": 57888,
            "time": 95.21038349999999,
            "velocity": 0.4409448818897638
          },
          {
            "duration": 0.15789450000001182,
            "durationTicks": 96,
            "midi": 42,
            "name": "F#2",
            "ticks": 57984,
            "time": 95.36827799999999,
            "velocity": 0.4409448818897638
          },
          {
            "duration": 0.1578944999999976,
            "durationTicks": 96,
            "midi": 46,
            "name": "A#2",
            "ticks": 58080,
            "time": 95.5261725,
            "velocity": 0.4409448818897638
          },
          {
            "duration": 0.1578944999999976,
            "durationTicks": 96,
            "midi": 37,
            "name": "C#2",
            "ticks": 58176,
            "time": 95.684067,
            "velocity": 0.4409448818897638
          },
          {
            "duration": 0.1578944999999976,
            "durationTicks": 96,
            "midi": 46,
            "name": "A#2",
            "ticks": 58272,
            "time": 95.8419615,
            "velocity": 0.4409448818897638
          },
          {
            "duration": 0.1578944999999976,
            "durationTicks": 96,
            "midi": 40,
            "name": "E2",
            "ticks": 58368,
            "time": 95.999856,
            "velocity": 0.4409448818897638
          },
          {
            "duration": 0.1578944999999976,
            "durationTicks": 96,
            "midi": 44,
            "name": "G#2",
            "ticks": 58464,
            "time": 96.15775049999999,
            "velocity": 0.4409448818897638
          },
          {
            "duration": 0.15789450000001182,
            "durationTicks": 96,
            "midi": 35,
            "name": "B1",
            "ticks": 58560,
            "time": 96.31564499999999,
            "velocity": 0.4409448818897638
          },
          {
            "duration": 0.1578944999999976,
            "durationTicks": 96,
            "midi": 44,
            "name": "G#2",
            "ticks": 58656,
            "time": 96.4735395,
            "velocity": 0.4409448818897638
          },
          {
            "duration": 0.1578944999999976,
            "durationTicks": 96,
            "midi": 40,
            "name": "E2",
            "ticks": 58752,
            "time": 96.631434,
            "velocity": 0.4409448818897638
          },
          {
            "duration": 0.1578944999999976,
            "durationTicks": 96,
            "midi": 44,
            "name": "G#2",
            "ticks": 58848,
            "time": 96.7893285,
            "velocity": 0.4409448818897638
          },
          {
            "duration": 0.1578944999999976,
            "durationTicks": 96,
            "midi": 35,
            "name": "B1",
            "ticks": 58944,
            "time": 96.947223,
            "velocity": 0.4409448818897638
          },
          {
            "duration": 0.1578944999999976,
            "durationTicks": 96,
            "midi": 44,
            "name": "G#2",
            "ticks": 59040,
            "time": 97.10511749999999,
            "velocity": 0.4409448818897638
          },
          {
            "duration": 0.15789450000001182,
            "durationTicks": 96,
            "midi": 42,
            "name": "F#2",
            "ticks": 59136,
            "time": 97.26301199999999,
            "velocity": 0.4409448818897638
          },
          {
            "duration": 0.1578944999999976,
            "durationTicks": 96,
            "midi": 46,
            "name": "A#2",
            "ticks": 59232,
            "time": 97.4209065,
            "velocity": 0.4409448818897638
          },
          {
            "duration": 0.1578944999999976,
            "durationTicks": 96,
            "midi": 37,
            "name": "C#2",
            "ticks": 59328,
            "time": 97.578801,
            "velocity": 0.4409448818897638
          },
          {
            "duration": 0.1578944999999976,
            "durationTicks": 96,
            "midi": 46,
            "name": "A#2",
            "ticks": 59424,
            "time": 97.7366955,
            "velocity": 0.4409448818897638
          },
          {
            "duration": 0.1578944999999976,
            "durationTicks": 96,
            "midi": 42,
            "name": "F#2",
            "ticks": 59520,
            "time": 97.89459,
            "velocity": 0.4409448818897638
          },
          {
            "duration": 0.1578944999999976,
            "durationTicks": 96,
            "midi": 46,
            "name": "A#2",
            "ticks": 59616,
            "time": 98.05248449999999,
            "velocity": 0.4409448818897638
          },
          {
            "duration": 0.15789450000001182,
            "durationTicks": 96,
            "midi": 37,
            "name": "C#2",
            "ticks": 59712,
            "time": 98.21037899999999,
            "velocity": 0.4409448818897638
          },
          {
            "duration": 0.1578944999999976,
            "durationTicks": 96,
            "midi": 46,
            "name": "A#2",
            "ticks": 59808,
            "time": 98.3682735,
            "velocity": 0.4409448818897638
          },
          {
            "duration": 0.1578944999999976,
            "durationTicks": 96,
            "midi": 44,
            "name": "G#2",
            "ticks": 59904,
            "time": 98.526168,
            "velocity": 0.4409448818897638
          },
          {
            "duration": 0.1578944999999976,
            "durationTicks": 96,
            "midi": 47,
            "name": "B2",
            "ticks": 60000,
            "time": 98.6840625,
            "velocity": 0.4409448818897638
          },
          {
            "duration": 0.1578944999999976,
            "durationTicks": 96,
            "midi": 39,
            "name": "D#2",
            "ticks": 60096,
            "time": 98.841957,
            "velocity": 0.4409448818897638
          },
          {
            "duration": 0.1578944999999976,
            "durationTicks": 96,
            "midi": 47,
            "name": "B2",
            "ticks": 60192,
            "time": 98.99985149999999,
            "velocity": 0.4409448818897638
          },
          {
            "duration": 0.15789450000001182,
            "durationTicks": 96,
            "midi": 44,
            "name": "G#2",
            "ticks": 60288,
            "time": 99.15774599999999,
            "velocity": 0.4409448818897638
          },
          {
            "duration": 0.1578944999999976,
            "durationTicks": 96,
            "midi": 47,
            "name": "B2",
            "ticks": 60384,
            "time": 99.3156405,
            "velocity": 0.4409448818897638
          },
          {
            "duration": 0.1578944999999976,
            "durationTicks": 96,
            "midi": 39,
            "name": "D#2",
            "ticks": 60480,
            "time": 99.473535,
            "velocity": 0.4409448818897638
          },
          {
            "duration": 0.1578944999999976,
            "durationTicks": 96,
            "midi": 47,
            "name": "B2",
            "ticks": 60576,
            "time": 99.6314295,
            "velocity": 0.4409448818897638
          },
          {
            "duration": 0.6315780000000046,
            "durationTicks": 384,
            "midi": 42,
            "name": "F#2",
            "ticks": 60672,
            "time": 99.789324,
            "velocity": 0.4409448818897638
          },
          {
            "duration": 0.6315780000000046,
            "durationTicks": 384,
            "midi": 43,
            "name": "G2",
            "ticks": 61056,
            "time": 100.420902,
            "velocity": 0.4409448818897638
          }
        ],
        "endOfTrackTicks": 61440
      },
      {
        "channel": 9,
        "controlChanges": {},
        "pitchBends": [],
        "instrument": {
          "family": "drums",
          "number": 0,
          "name": "standard kit"
        },
        "name": "Electric Drum Kit",
        "notes": [
          {
            "duration": 0.1578945,
            "durationTicks": 96,
            "midi": 35,
            "name": "B1",
            "ticks": 0,
            "time": 0,
            "velocity": 0.6850393700787402
          },
          {
            "duration": 0.07894725,
            "durationTicks": 48,
            "midi": 42,
            "name": "F#2",
            "ticks": 0,
            "time": 0,
            "velocity": 0.6850393700787402
          },
          {
            "duration": 0.1578945,
            "durationTicks": 96,
            "midi": 49,
            "name": "C#3",
            "ticks": 0,
            "time": 0,
            "velocity": 0.6850393700787402
          },
          {
            "duration": 0.07894725,
            "durationTicks": 48,
            "midi": 42,
            "name": "F#2",
            "ticks": 48,
            "time": 0.07894725,
            "velocity": 0.6850393700787402
          },
          {
            "duration": 0.07894725,
            "durationTicks": 48,
            "midi": 42,
            "name": "F#2",
            "ticks": 96,
            "time": 0.1578945,
            "velocity": 0.6850393700787402
          },
          {
            "duration": 0.1578945,
            "durationTicks": 96,
            "midi": 38,
            "name": "D2",
            "ticks": 192,
            "time": 0.315789,
            "velocity": 0.6850393700787402
          },
          {
            "duration": 0.07894725000000002,
            "durationTicks": 48,
            "midi": 42,
            "name": "F#2",
            "ticks": 192,
            "time": 0.315789,
            "velocity": 0.6850393700787402
          },
          {
            "duration": 0.07894724999999997,
            "durationTicks": 48,
            "midi": 42,
            "name": "F#2",
            "ticks": 240,
            "time": 0.39473625,
            "velocity": 0.6850393700787402
          },
          {
            "duration": 0.07894724999999997,
            "durationTicks": 48,
            "midi": 42,
            "name": "F#2",
            "ticks": 288,
            "time": 0.4736835,
            "velocity": 0.6850393700787402
          },
          {
            "duration": 0.07894725000000002,
            "durationTicks": 48,
            "midi": 42,
            "name": "F#2",
            "ticks": 336,
            "time": 0.55263075,
            "velocity": 0.6850393700787402
          },
          {
            "duration": 0.07894725000000002,
            "durationTicks": 48,
            "midi": 42,
            "name": "F#2",
            "ticks": 384,
            "time": 0.631578,
            "velocity": 0.6850393700787402
          },
          {
            "duration": 0.15789450000000005,
            "durationTicks": 96,
            "midi": 35,
            "name": "B1",
            "ticks": 384,
            "time": 0.631578,
            "velocity": 0.6850393700787402
          },
          {
            "duration": 0.07894724999999991,
            "durationTicks": 48,
            "midi": 42,
            "name": "F#2",
            "ticks": 480,
            "time": 0.7894725,
            "velocity": 0.6850393700787402
          },
          {
            "duration": 0.15789449999999994,
            "durationTicks": 96,
            "midi": 38,
            "name": "D2",
            "ticks": 576,
            "time": 0.947367,
            "velocity": 0.6850393700787402
          },
          {
            "duration": 0.15789450000000005,
            "durationTicks": 96,
            "midi": 46,
            "name": "A#2",
            "ticks": 672,
            "time": 1.1052615,
            "velocity": 0.6850393700787402
          },
          {
            "duration": 0.15789450000000005,
            "durationTicks": 96,
            "midi": 35,
            "name": "B1",
            "ticks": 672,
            "time": 1.1052615,
            "velocity": 0.6850393700787402
          },
          {
            "duration": 0.15789450000000005,
            "durationTicks": 96,
            "midi": 35,
            "name": "B1",
            "ticks": 768,
            "time": 1.263156,
            "velocity": 0.6850393700787402
          },
          {
            "duration": 0.07894724999999991,
            "durationTicks": 48,
            "midi": 42,
            "name": "F#2",
            "ticks": 768,
            "time": 1.263156,
            "velocity": 0.6850393700787402
          },
          {
            "duration": 0.07894724999999991,
            "durationTicks": 48,
            "midi": 42,
            "name": "F#2",
            "ticks": 864,
            "time": 1.4210505,
            "velocity": 0.6850393700787402
          },
          {
            "duration": 0.07894725000000014,
            "durationTicks": 48,
            "midi": 42,
            "name": "F#2",
            "ticks": 912,
            "time": 1.49999775,
            "velocity": 0.6850393700787402
          },
          {
            "duration": 0.07894724999999991,
            "durationTicks": 48,
            "midi": 42,
            "name": "F#2",
            "ticks": 960,
            "time": 1.578945,
            "velocity": 0.6850393700787402
          },
          {
            "duration": 0.15789449999999983,
            "durationTicks": 96,
            "midi": 38,
            "name": "D2",
            "ticks": 960,
            "time": 1.578945,
            "velocity": 0.6850393700787402
          },
          {
            "duration": 0.07894725000000014,
            "durationTicks": 48,
            "midi": 42,
            "name": "F#2",
            "ticks": 1056,
            "time": 1.7368394999999999,
            "velocity": 0.6850393700787402
          },
          {
            "duration": 0.15789450000000005,
            "durationTicks": 96,
            "midi": 35,
            "name": "B1",
            "ticks": 1152,
            "time": 1.894734,
            "velocity": 0.6850393700787402
          },
          {
            "duration": 0.07894724999999991,
            "durationTicks": 48,
            "midi": 42,
            "name": "F#2",
            "ticks": 1152,
            "time": 1.894734,
            "velocity": 0.6850393700787402
          },
          {
            "duration": 0.07894725000000014,
            "durationTicks": 48,
            "midi": 42,
            "name": "F#2",
            "ticks": 1248,
            "time": 2.0526285,
            "velocity": 0.6850393700787402
          },
          {
            "duration": 0.15789449999999983,
            "durationTicks": 96,
            "midi": 35,
            "name": "B1",
            "ticks": 1248,
            "time": 2.0526285,
            "velocity": 0.6850393700787402
          },
          {
            "duration": 0.07894724999999969,
            "durationTicks": 48,
            "midi": 42,
            "name": "F#2",
            "ticks": 1296,
            "time": 2.13157575,
            "velocity": 0.6850393700787402
          },
          {
            "duration": 0.07894725000000014,
            "durationTicks": 48,
            "midi": 42,
            "name": "F#2",
            "ticks": 1344,
            "time": 2.210523,
            "velocity": 0.6850393700787402
          },
          {
            "duration": 0.15789450000000027,
            "durationTicks": 96,
            "midi": 38,
            "name": "D2",
            "ticks": 1344,
            "time": 2.210523,
            "velocity": 0.6850393700787402
          },
          {
            "duration": 0.07894725000000014,
            "durationTicks": 48,
            "midi": 42,
            "name": "F#2",
            "ticks": 1392,
            "time": 2.28947025,
            "velocity": 0.6850393700787402
          },
          {
            "duration": 0.07894724999999969,
            "durationTicks": 48,
            "midi": 42,
            "name": "F#2",
            "ticks": 1440,
            "time": 2.3684175,
            "velocity": 0.6850393700787402
          },
          {
            "duration": 0.15789449999999983,
            "durationTicks": 96,
            "midi": 35,
            "name": "B1",
            "ticks": 1440,
            "time": 2.3684175,
            "velocity": 0.6850393700787402
          },
          {
            "duration": 0.15789449999999983,
            "durationTicks": 96,
            "midi": 35,
            "name": "B1",
            "ticks": 1536,
            "time": 2.526312,
            "velocity": 0.6850393700787402
          },
          {
            "duration": 0.07894725000000014,
            "durationTicks": 48,
            "midi": 42,
            "name": "F#2",
            "ticks": 1536,
            "time": 2.526312,
            "velocity": 0.6850393700787402
          },
          {
            "duration": 0.07894724999999969,
            "durationTicks": 48,
            "midi": 42,
            "name": "F#2",
            "ticks": 1584,
            "time": 2.60525925,
            "velocity": 0.6850393700787402
          },
          {
            "duration": 0.07894725000000014,
            "durationTicks": 48,
            "midi": 42,
            "name": "F#2",
            "ticks": 1632,
            "time": 2.6842064999999997,
            "velocity": 0.6850393700787402
          },
          {
            "duration": 0.07894724999999969,
            "durationTicks": 48,
            "midi": 42,
            "name": "F#2",
            "ticks": 1728,
            "time": 2.842101,
            "velocity": 0.6850393700787402
          },
          {
            "duration": 0.15789449999999983,
            "durationTicks": 96,
            "midi": 38,
            "name": "D2",
            "ticks": 1728,
            "time": 2.842101,
            "velocity": 0.6850393700787402
          },
          {
            "duration": 0.07894725000000014,
            "durationTicks": 48,
            "midi": 42,
            "name": "F#2",
            "ticks": 1776,
            "time": 2.9210482499999997,
            "velocity": 0.6850393700787402
          },
          {
            "duration": 0.07894725000000014,
            "durationTicks": 48,
            "midi": 42,
            "name": "F#2",
            "ticks": 1824,
            "time": 2.9999955,
            "velocity": 0.6850393700787402
          },
          {
            "duration": 0.07894725000000014,
            "durationTicks": 48,
            "midi": 42,
            "name": "F#2",
            "ticks": 1872,
            "time": 3.07894275,
            "velocity": 0.6850393700787402
          },
          {
            "duration": 0.15789449999999983,
            "durationTicks": 96,
            "midi": 35,
            "name": "B1",
            "ticks": 1920,
            "time": 3.15789,
            "velocity": 0.6850393700787402
          },
          {
            "duration": 0.07894724999999969,
            "durationTicks": 48,
            "midi": 42,
            "name": "F#2",
            "ticks": 1920,
            "time": 3.15789,
            "velocity": 0.6850393700787402
          },
          {
            "duration": 0.07894725000000014,
            "durationTicks": 48,
            "midi": 42,
            "name": "F#2",
            "ticks": 2016,
            "time": 3.3157845,
            "velocity": 0.6850393700787402
          },
          {
            "duration": 0.15789450000000027,
            "durationTicks": 96,
            "midi": 38,
            "name": "D2",
            "ticks": 2112,
            "time": 3.4736789999999997,
            "velocity": 0.6850393700787402
          },
          {
            "duration": 0.15789449999999983,
            "durationTicks": 96,
            "midi": 35,
            "name": "B1",
            "ticks": 2208,
            "time": 3.6315735,
            "velocity": 0.6850393700787402
          },
          {
            "duration": 0.15789449999999983,
            "durationTicks": 96,
            "midi": 46,
            "name": "A#2",
            "ticks": 2208,
            "time": 3.6315735,
            "velocity": 0.6850393700787402
          },
          {
            "duration": 0.15789449999999983,
            "durationTicks": 96,
            "midi": 35,
            "name": "B1",
            "ticks": 2304,
            "time": 3.789468,
            "velocity": 0.6850393700787402
          },
          {
            "duration": 0.07894725000000014,
            "durationTicks": 48,
            "midi": 42,
            "name": "F#2",
            "ticks": 2304,
            "time": 3.789468,
            "velocity": 0.6850393700787402
          },
          {
            "duration": 0.07894725000000058,
            "durationTicks": 48,
            "midi": 42,
            "name": "F#2",
            "ticks": 2400,
            "time": 3.9473624999999997,
            "velocity": 0.6850393700787402
          },
          {
            "duration": 0.07894724999999969,
            "durationTicks": 48,
            "midi": 42,
            "name": "F#2",
            "ticks": 2448,
            "time": 4.02630975,
            "velocity": 0.6850393700787402
          },
          {
            "duration": 0.15789450000000027,
            "durationTicks": 96,
            "midi": 38,
            "name": "D2",
            "ticks": 2496,
            "time": 4.105257,
            "velocity": 0.6850393700787402
          },
          {
            "duration": 0.07894724999999969,
            "durationTicks": 48,
            "midi": 42,
            "name": "F#2",
            "ticks": 2496,
            "time": 4.105257,
            "velocity": 0.6850393700787402
          },
          {
            "duration": 0.07894724999999969,
            "durationTicks": 48,
            "midi": 42,
            "name": "F#2",
            "ticks": 2592,
            "time": 4.2631515,
            "velocity": 0.6850393700787402
          },
          {
            "duration": 0.07894725000000058,
            "durationTicks": 48,
            "midi": 42,
            "name": "F#2",
            "ticks": 2688,
            "time": 4.421046,
            "velocity": 0.6850393700787402
          },
          {
            "duration": 0.15789450000000027,
            "durationTicks": 96,
            "midi": 35,
            "name": "B1",
            "ticks": 2688,
            "time": 4.421046,
            "velocity": 0.6850393700787402
          },
          {
            "duration": 0.07894724999999969,
            "durationTicks": 48,
            "midi": 42,
            "name": "F#2",
            "ticks": 2784,
            "time": 4.5789405,
            "velocity": 0.6850393700787402
          },
          {
            "duration": 0.15789450000000027,
            "durationTicks": 96,
            "midi": 35,
            "name": "B1",
            "ticks": 2784,
            "time": 4.5789405,
            "velocity": 0.6850393700787402
          },
          {
            "duration": 0.07894725000000058,
            "durationTicks": 48,
            "midi": 42,
            "name": "F#2",
            "ticks": 2832,
            "time": 4.6578877499999995,
            "velocity": 0.6850393700787402
          },
          {
            "duration": 0.07894724999999969,
            "durationTicks": 48,
            "midi": 42,
            "name": "F#2",
            "ticks": 2880,
            "time": 4.736835,
            "velocity": 0.6850393700787402
          },
          {
            "duration": 0.15789449999999938,
            "durationTicks": 96,
            "midi": 38,
            "name": "D2",
            "ticks": 2880,
            "time": 4.736835,
            "velocity": 0.6850393700787402
          },
          {
            "duration": 0.07894724999999969,
            "durationTicks": 48,
            "midi": 42,
            "name": "F#2",
            "ticks": 2928,
            "time": 4.81578225,
            "velocity": 0.6850393700787402
          },
          {
            "duration": 0.07894725000000058,
            "durationTicks": 48,
            "midi": 42,
            "name": "F#2",
            "ticks": 2976,
            "time": 4.8947294999999995,
            "velocity": 0.6850393700787402
          },
          {
            "duration": 0.15789450000000027,
            "durationTicks": 96,
            "midi": 35,
            "name": "B1",
            "ticks": 2976,
            "time": 4.8947294999999995,
            "velocity": 0.6850393700787402
          },
          {
            "duration": 0.15789450000000027,
            "durationTicks": 96,
            "midi": 35,
            "name": "B1",
            "ticks": 3072,
            "time": 5.052624,
            "velocity": 0.6850393700787402
          },
          {
            "duration": 0.07894724999999969,
            "durationTicks": 48,
            "midi": 42,
            "name": "F#2",
            "ticks": 3072,
            "time": 5.052624,
            "velocity": 0.6850393700787402
          },
          {
            "duration": 0.07894724999999969,
            "durationTicks": 48,
            "midi": 42,
            "name": "F#2",
            "ticks": 3168,
            "time": 5.2105185,
            "velocity": 0.6850393700787402
          },
          {
            "duration": 0.07894724999999969,
            "durationTicks": 48,
            "midi": 42,
            "name": "F#2",
            "ticks": 3216,
            "time": 5.28946575,
            "velocity": 0.6850393700787402
          },
          {
            "duration": 0.07894725000000058,
            "durationTicks": 48,
            "midi": 42,
            "name": "F#2",
            "ticks": 3264,
            "time": 5.368412999999999,
            "velocity": 0.6850393700787402
          },
          {
            "duration": 0.15789450000000027,
            "durationTicks": 96,
            "midi": 38,
            "name": "D2",
            "ticks": 3264,
            "time": 5.368412999999999,
            "velocity": 0.6850393700787402
          },
          {
            "duration": 0.07894724999999969,
            "durationTicks": 48,
            "midi": 42,
            "name": "F#2",
            "ticks": 3360,
            "time": 5.5263075,
            "velocity": 0.6850393700787402
          },
          {
            "duration": 0.15789449999999938,
            "durationTicks": 96,
            "midi": 35,
            "name": "B1",
            "ticks": 3456,
            "time": 5.684202,
            "velocity": 0.6850393700787402
          },
          {
            "duration": 0.07894724999999969,
            "durationTicks": 48,
            "midi": 42,
            "name": "F#2",
            "ticks": 3456,
            "time": 5.684202,
            "velocity": 0.6850393700787402
          },
          {
            "duration": 0.07894725000000058,
            "durationTicks": 48,
            "midi": 42,
            "name": "F#2",
            "ticks": 3552,
            "time": 5.842096499999999,
            "velocity": 0.6850393700787402
          },
          {
            "duration": 0.07894724999999969,
            "durationTicks": 48,
            "midi": 42,
            "name": "F#2",
            "ticks": 3600,
            "time": 5.92104375,
            "velocity": 0.6850393700787402
          },
          {
            "duration": 0.07894724999999969,
            "durationTicks": 48,
            "midi": 42,
            "name": "F#2",
            "ticks": 3648,
            "time": 5.999991,
            "velocity": 0.6850393700787402
          },
          {
            "duration": 0.15789450000000027,
            "durationTicks": 96,
            "midi": 38,
            "name": "D2",
            "ticks": 3648,
            "time": 5.999991,
            "velocity": 0.6850393700787402
          },
          {
            "duration": 0.15789450000000027,
            "durationTicks": 96,
            "midi": 46,
            "name": "A#2",
            "ticks": 3744,
            "time": 6.1578855,
            "velocity": 0.6850393700787402
          },
          {
            "duration": 0.15789450000000027,
            "durationTicks": 96,
            "midi": 35,
            "name": "B1",
            "ticks": 3744,
            "time": 6.1578855,
            "velocity": 0.6850393700787402
          },
          {
            "duration": 0.07894724999999969,
            "durationTicks": 48,
            "midi": 42,
            "name": "F#2",
            "ticks": 3840,
            "time": 6.31578,
            "velocity": 0.6850393700787402
          },
          {
            "duration": 0.15789449999999938,
            "durationTicks": 96,
            "midi": 35,
            "name": "B1",
            "ticks": 3840,
            "time": 6.31578,
            "velocity": 0.6850393700787402
          },
          {
            "duration": 0.07894725000000058,
            "durationTicks": 48,
            "midi": 42,
            "name": "F#2",
            "ticks": 3936,
            "time": 6.4736744999999996,
            "velocity": 0.6850393700787402
          },
          {
            "duration": 0.07894724999999969,
            "durationTicks": 48,
            "midi": 42,
            "name": "F#2",
            "ticks": 3984,
            "time": 6.55262175,
            "velocity": 0.6850393700787402
          },
          {
            "duration": 0.07894724999999969,
            "durationTicks": 48,
            "midi": 42,
            "name": "F#2",
            "ticks": 4032,
            "time": 6.631569,
            "velocity": 0.6850393700787402
          },
          {
            "duration": 0.15789450000000027,
            "durationTicks": 96,
            "midi": 38,
            "name": "D2",
            "ticks": 4032,
            "time": 6.631569,
            "velocity": 0.6850393700787402
          },
          {
            "duration": 0.07894724999999969,
            "durationTicks": 48,
            "midi": 42,
            "name": "F#2",
            "ticks": 4128,
            "time": 6.7894635,
            "velocity": 0.6850393700787402
          },
          {
            "duration": 0.15789450000000027,
            "durationTicks": 96,
            "midi": 35,
            "name": "B1",
            "ticks": 4224,
            "time": 6.9473579999999995,
            "velocity": 0.6850393700787402
          },
          {
            "duration": 0.07894725000000058,
            "durationTicks": 48,
            "midi": 42,
            "name": "F#2",
            "ticks": 4224,
            "time": 6.9473579999999995,
            "velocity": 0.6850393700787402
          },
          {
            "duration": 0.07894724999999969,
            "durationTicks": 48,
            "midi": 42,
            "name": "F#2",
            "ticks": 4320,
            "time": 7.1052525,
            "velocity": 0.6850393700787402
          },
          {
            "duration": 0.15789450000000027,
            "durationTicks": 96,
            "midi": 35,
            "name": "B1",
            "ticks": 4320,
            "time": 7.1052525,
            "velocity": 0.6850393700787402
          },
          {
            "duration": 0.07894725000000058,
            "durationTicks": 48,
            "midi": 42,
            "name": "F#2",
            "ticks": 4368,
            "time": 7.184199749999999,
            "velocity": 0.6850393700787402
          },
          {
            "duration": 0.15789449999999938,
            "durationTicks": 96,
            "midi": 38,
            "name": "D2",
            "ticks": 4416,
            "time": 7.263147,
            "velocity": 0.6850393700787402
          },
          {
            "duration": 0.07894724999999969,
            "durationTicks": 48,
            "midi": 42,
            "name": "F#2",
            "ticks": 4416,
            "time": 7.263147,
            "velocity": 0.6850393700787402
          },
          {
            "duration": 0.07894724999999969,
            "durationTicks": 48,
            "midi": 42,
            "name": "F#2",
            "ticks": 4464,
            "time": 7.34209425,
            "velocity": 0.6850393700787402
          },
          {
            "duration": 0.07894725000000058,
            "durationTicks": 48,
            "midi": 42,
            "name": "F#2",
            "ticks": 4512,
            "time": 7.421041499999999,
            "velocity": 0.6850393700787402
          },
          {
            "duration": 0.15789450000000027,
            "durationTicks": 96,
            "midi": 35,
            "name": "B1",
            "ticks": 4512,
            "time": 7.421041499999999,
            "velocity": 0.6850393700787402
          },
          {
            "duration": 0.15789450000000027,
            "durationTicks": 96,
            "midi": 35,
            "name": "B1",
            "ticks": 4608,
            "time": 7.578936,
            "velocity": 0.6850393700787402
          },
          {
            "duration": 0.07894724999999969,
            "durationTicks": 48,
            "midi": 42,
            "name": "F#2",
            "ticks": 4608,
            "time": 7.578936,
            "velocity": 0.6850393700787402
          },
          {
            "duration": 0.07894724999999969,
            "durationTicks": 48,
            "midi": 42,
            "name": "F#2",
            "ticks": 4704,
            "time": 7.7368305,
            "velocity": 0.6850393700787402
          },
          {
            "duration": 0.07894724999999969,
            "durationTicks": 48,
            "midi": 42,
            "name": "F#2",
            "ticks": 4752,
            "time": 7.81577775,
            "velocity": 0.6850393700787402
          },
          {
            "duration": 0.15789450000000116,
            "durationTicks": 96,
            "midi": 38,
            "name": "D2",
            "ticks": 4800,
            "time": 7.894724999999999,
            "velocity": 0.6850393700787402
          },
          {
            "duration": 0.07894725000000058,
            "durationTicks": 48,
            "midi": 42,
            "name": "F#2",
            "ticks": 4800,
            "time": 7.894724999999999,
            "velocity": 0.6850393700787402
          },
          {
            "duration": 0.0789472499999988,
            "durationTicks": 48,
            "midi": 42,
            "name": "F#2",
            "ticks": 4896,
            "time": 8.0526195,
            "velocity": 0.6850393700787402
          },
          {
            "duration": 0.15789449999999938,
            "durationTicks": 96,
            "midi": 35,
            "name": "B1",
            "ticks": 4992,
            "time": 8.210514,
            "velocity": 0.6850393700787402
          },
          {
            "duration": 0.07894725000000058,
            "durationTicks": 48,
            "midi": 42,
            "name": "F#2",
            "ticks": 4992,
            "time": 8.210514,
            "velocity": 0.6850393700787402
          },
          {
            "duration": 0.07894725000000058,
            "durationTicks": 48,
            "midi": 42,
            "name": "F#2",
            "ticks": 5088,
            "time": 8.3684085,
            "velocity": 0.6850393700787402
          },
          {
            "duration": 0.07894725000000058,
            "durationTicks": 48,
            "midi": 42,
            "name": "F#2",
            "ticks": 5136,
            "time": 8.44735575,
            "velocity": 0.6850393700787402
          },
          {
            "duration": 0.15789449999999938,
            "durationTicks": 96,
            "midi": 38,
            "name": "D2",
            "ticks": 5184,
            "time": 8.526303,
            "velocity": 0.6850393700787402
          },
          {
            "duration": 0.0789472499999988,
            "durationTicks": 48,
            "midi": 42,
            "name": "F#2",
            "ticks": 5184,
            "time": 8.526303,
            "velocity": 0.6850393700787402
          },
          {
            "duration": 0.15789449999999938,
            "durationTicks": 96,
            "midi": 35,
            "name": "B1",
            "ticks": 5280,
            "time": 8.6841975,
            "velocity": 0.6850393700787402
          },
          {
            "duration": 0.15789450000000116,
            "durationTicks": 96,
            "midi": 35,
            "name": "B1",
            "ticks": 5376,
            "time": 8.842092,
            "velocity": 0.6850393700787402
          },
          {
            "duration": 0.07894725000000058,
            "durationTicks": 48,
            "midi": 42,
            "name": "F#2",
            "ticks": 5376,
            "time": 8.842092,
            "velocity": 0.6850393700787402
          },
          {
            "duration": 0.0789472499999988,
            "durationTicks": 48,
            "midi": 42,
            "name": "F#2",
            "ticks": 5472,
            "time": 8.9999865,
            "velocity": 0.6850393700787402
          },
          {
            "duration": 0.07894725000000058,
            "durationTicks": 48,
            "midi": 42,
            "name": "F#2",
            "ticks": 5520,
            "time": 9.07893375,
            "velocity": 0.6850393700787402
          },
          {
            "duration": 0.15789449999999938,
            "durationTicks": 96,
            "midi": 38,
            "name": "D2",
            "ticks": 5568,
            "time": 9.157881,
            "velocity": 0.6850393700787402
          },
          {
            "duration": 0.07894725000000058,
            "durationTicks": 48,
            "midi": 42,
            "name": "F#2",
            "ticks": 5568,
            "time": 9.157881,
            "velocity": 0.6850393700787402
          },
          {
            "duration": 0.07894725000000058,
            "durationTicks": 48,
            "midi": 42,
            "name": "F#2",
            "ticks": 5664,
            "time": 9.315775499999999,
            "velocity": 0.6850393700787402
          },
          {
            "duration": 0.0789472499999988,
            "durationTicks": 48,
            "midi": 42,
            "name": "F#2",
            "ticks": 5760,
            "time": 9.47367,
            "velocity": 0.6850393700787402
          },
          {
            "duration": 0.15789449999999938,
            "durationTicks": 96,
            "midi": 35,
            "name": "B1",
            "ticks": 5760,
            "time": 9.47367,
            "velocity": 0.6850393700787402
          },
          {
            "duration": 0.07894725000000058,
            "durationTicks": 48,
            "midi": 42,
            "name": "F#2",
            "ticks": 5856,
            "time": 9.6315645,
            "velocity": 0.6850393700787402
          },
          {
            "duration": 0.15789449999999938,
            "durationTicks": 96,
            "midi": 35,
            "name": "B1",
            "ticks": 5856,
            "time": 9.6315645,
            "velocity": 0.6850393700787402
          },
          {
            "duration": 0.0789472499999988,
            "durationTicks": 48,
            "midi": 42,
            "name": "F#2",
            "ticks": 5904,
            "time": 9.71051175,
            "velocity": 0.6850393700787402
          },
          {
            "duration": 0.15789450000000116,
            "durationTicks": 96,
            "midi": 38,
            "name": "D2",
            "ticks": 5952,
            "time": 9.789458999999999,
            "velocity": 0.6850393700787402
          },
          {
            "duration": 0.07894725000000058,
            "durationTicks": 48,
            "midi": 42,
            "name": "F#2",
            "ticks": 5952,
            "time": 9.789458999999999,
            "velocity": 0.6850393700787402
          },
          {
            "duration": 0.07894725000000058,
            "durationTicks": 48,
            "midi": 42,
            "name": "F#2",
            "ticks": 6000,
            "time": 9.86840625,
            "velocity": 0.6850393700787402
          },
          {
            "duration": 0.0789472499999988,
            "durationTicks": 48,
            "midi": 42,
            "name": "F#2",
            "ticks": 6048,
            "time": 9.9473535,
            "velocity": 0.6850393700787402
          },
          {
            "duration": 0.15789449999999938,
            "durationTicks": 96,
            "midi": 38,
            "name": "D2",
            "ticks": 6048,
            "time": 9.9473535,
            "velocity": 0.6850393700787402
          },
          {
            "duration": 0.15789449999999938,
            "durationTicks": 96,
            "midi": 35,
            "name": "B1",
            "ticks": 6048,
            "time": 9.9473535,
            "velocity": 0.6850393700787402
          },
          {
            "duration": 0.07894725000000058,
            "durationTicks": 48,
            "midi": 42,
            "name": "F#2",
            "ticks": 6144,
            "time": 10.105248,
            "velocity": 0.6850393700787402
          },
          {
            "duration": 0.15789449999999938,
            "durationTicks": 96,
            "midi": 35,
            "name": "B1",
            "ticks": 6144,
            "time": 10.105248,
            "velocity": 0.6850393700787402
          },
          {
            "duration": 0.07894725000000058,
            "durationTicks": 48,
            "midi": 42,
            "name": "F#2",
            "ticks": 6240,
            "time": 10.263142499999999,
            "velocity": 0.6850393700787402
          },
          {
            "duration": 0.07894725000000058,
            "durationTicks": 48,
            "midi": 42,
            "name": "F#2",
            "ticks": 6288,
            "time": 10.34208975,
            "velocity": 0.6850393700787402
          },
          {
            "duration": 0.0789472499999988,
            "durationTicks": 48,
            "midi": 42,
            "name": "F#2",
            "ticks": 6336,
            "time": 10.421037,
            "velocity": 0.6850393700787402
          },
          {
            "duration": 0.15789449999999938,
            "durationTicks": 96,
            "midi": 38,
            "name": "D2",
            "ticks": 6336,
            "time": 10.421037,
            "velocity": 0.6850393700787402
          },
          {
            "duration": 0.07894725000000058,
            "durationTicks": 48,
            "midi": 42,
            "name": "F#2",
            "ticks": 6432,
            "time": 10.5789315,
            "velocity": 0.6850393700787402
          },
          {
            "duration": 0.07894725000000058,
            "durationTicks": 48,
            "midi": 42,
            "name": "F#2",
            "ticks": 6528,
            "time": 10.736825999999999,
            "velocity": 0.6850393700787402
          },
          {
            "duration": 0.15789450000000116,
            "durationTicks": 96,
            "midi": 35,
            "name": "B1",
            "ticks": 6528,
            "time": 10.736825999999999,
            "velocity": 0.6850393700787402
          },
          {
            "duration": 0.0789472499999988,
            "durationTicks": 48,
            "midi": 42,
            "name": "F#2",
            "ticks": 6624,
            "time": 10.8947205,
            "velocity": 0.6850393700787402
          },
          {
            "duration": 0.07894725000000058,
            "durationTicks": 48,
            "midi": 42,
            "name": "F#2",
            "ticks": 6672,
            "time": 10.973667749999999,
            "velocity": 0.6850393700787402
          },
          {
            "duration": 0.07894725000000058,
            "durationTicks": 48,
            "midi": 42,
            "name": "F#2",
            "ticks": 6720,
            "time": 11.052615,
            "velocity": 0.6850393700787402
          },
          {
            "duration": 0.15789449999999938,
            "durationTicks": 96,
            "midi": 38,
            "name": "D2",
            "ticks": 6720,
            "time": 11.052615,
            "velocity": 0.6850393700787402
          },
          {
            "duration": 0.15789450000000116,
            "durationTicks": 96,
            "midi": 46,
            "name": "A#2",
            "ticks": 6816,
            "time": 11.210509499999999,
            "velocity": 0.6850393700787402
          },
          {
            "duration": 0.15789450000000116,
            "durationTicks": 96,
            "midi": 35,
            "name": "B1",
            "ticks": 6816,
            "time": 11.210509499999999,
            "velocity": 0.6850393700787402
          },
          {
            "duration": 0.15789449999999938,
            "durationTicks": 96,
            "midi": 35,
            "name": "B1",
            "ticks": 6912,
            "time": 11.368404,
            "velocity": 0.6850393700787402
          },
          {
            "duration": 0.0789472499999988,
            "durationTicks": 48,
            "midi": 42,
            "name": "F#2",
            "ticks": 6912,
            "time": 11.368404,
            "velocity": 0.6850393700787402
          },
          {
            "duration": 0.07894725000000058,
            "durationTicks": 48,
            "midi": 42,
            "name": "F#2",
            "ticks": 7008,
            "time": 11.5262985,
            "velocity": 0.6850393700787402
          },
          {
            "duration": 0.0789472499999988,
            "durationTicks": 48,
            "midi": 42,
            "name": "F#2",
            "ticks": 7056,
            "time": 11.60524575,
            "velocity": 0.6850393700787402
          },
          {
            "duration": 0.07894725000000058,
            "durationTicks": 48,
            "midi": 42,
            "name": "F#2",
            "ticks": 7104,
            "time": 11.684192999999999,
            "velocity": 0.6850393700787402
          },
          {
            "duration": 0.15789450000000116,
            "durationTicks": 96,
            "midi": 38,
            "name": "D2",
            "ticks": 7104,
            "time": 11.684192999999999,
            "velocity": 0.6850393700787402
          },
          {
            "duration": 0.0789472499999988,
            "durationTicks": 48,
            "midi": 42,
            "name": "F#2",
            "ticks": 7200,
            "time": 11.8420875,
            "velocity": 0.6850393700787402
          },
          {
            "duration": 0.07894725000000058,
            "durationTicks": 48,
            "midi": 42,
            "name": "F#2",
            "ticks": 7296,
            "time": 11.999982,
            "velocity": 0.6850393700787402
          },
          {
            "duration": 0.15789449999999938,
            "durationTicks": 96,
            "midi": 35,
            "name": "B1",
            "ticks": 7296,
            "time": 11.999982,
            "velocity": 0.6850393700787402
          },
          {
            "duration": 0.07894725000000058,
            "durationTicks": 48,
            "midi": 42,
            "name": "F#2",
            "ticks": 7392,
            "time": 12.157876499999999,
            "velocity": 0.6850393700787402
          },
          {
            "duration": 0.15789450000000116,
            "durationTicks": 96,
            "midi": 35,
            "name": "B1",
            "ticks": 7392,
            "time": 12.157876499999999,
            "velocity": 0.6850393700787402
          },
          {
            "duration": 0.07894725000000058,
            "durationTicks": 48,
            "midi": 42,
            "name": "F#2",
            "ticks": 7440,
            "time": 12.23682375,
            "velocity": 0.6850393700787402
          },
          {
            "duration": 0.15789449999999938,
            "durationTicks": 96,
            "midi": 38,
            "name": "D2",
            "ticks": 7488,
            "time": 12.315771,
            "velocity": 0.6850393700787402
          },
          {
            "duration": 0.0789472499999988,
            "durationTicks": 48,
            "midi": 42,
            "name": "F#2",
            "ticks": 7488,
            "time": 12.315771,
            "velocity": 0.6850393700787402
          },
          {
            "duration": 0.07894725000000058,
            "durationTicks": 48,
            "midi": 42,
            "name": "F#2",
            "ticks": 7536,
            "time": 12.394718249999999,
            "velocity": 0.6850393700787402
          },
          {
            "duration": 0.15789450000000116,
            "durationTicks": 96,
            "midi": 35,
            "name": "B1",
            "ticks": 7584,
            "time": 12.4736655,
            "velocity": 0.6850393700787402
          },
          {
            "duration": 0.07894725000000058,
            "durationTicks": 48,
            "midi": 42,
            "name": "F#2",
            "ticks": 7584,
            "time": 12.4736655,
            "velocity": 0.6850393700787402
          },
          {
            "duration": 0.15789449999999938,
            "durationTicks": 96,
            "midi": 35,
            "name": "B1",
            "ticks": 7680,
            "time": 12.63156,
            "velocity": 0.6850393700787402
          },
          {
            "duration": 0.0789472499999988,
            "durationTicks": 48,
            "midi": 42,
            "name": "F#2",
            "ticks": 7680,
            "time": 12.63156,
            "velocity": 0.6850393700787402
          },
          {
            "duration": 0.07894725000000058,
            "durationTicks": 48,
            "midi": 42,
            "name": "F#2",
            "ticks": 7776,
            "time": 12.7894545,
            "velocity": 0.6850393700787402
          },
          {
            "duration": 0.0789472499999988,
            "durationTicks": 48,
            "midi": 42,
            "name": "F#2",
            "ticks": 7824,
            "time": 12.86840175,
            "velocity": 0.6850393700787402
          },
          {
            "duration": 0.15789450000000116,
            "durationTicks": 96,
            "midi": 38,
            "name": "D2",
            "ticks": 7872,
            "time": 12.947348999999999,
            "velocity": 0.6850393700787402
          },
          {
            "duration": 0.07894725000000058,
            "durationTicks": 48,
            "midi": 42,
            "name": "F#2",
            "ticks": 7872,
            "time": 12.947348999999999,
            "velocity": 0.6850393700787402
          },
          {
            "duration": 0.0789472499999988,
            "durationTicks": 48,
            "midi": 42,
            "name": "F#2",
            "ticks": 7968,
            "time": 13.1052435,
            "velocity": 0.6850393700787402
          },
          {
            "duration": 0.07894725000000058,
            "durationTicks": 48,
            "midi": 42,
            "name": "F#2",
            "ticks": 8064,
            "time": 13.263138,
            "velocity": 0.6850393700787402
          },
          {
            "duration": 0.15789449999999938,
            "durationTicks": 96,
            "midi": 35,
            "name": "B1",
            "ticks": 8064,
            "time": 13.263138,
            "velocity": 0.6850393700787402
          },
          {
            "duration": 0.07894725000000058,
            "durationTicks": 48,
            "midi": 42,
            "name": "F#2",
            "ticks": 8160,
            "time": 13.421032499999999,
            "velocity": 0.6850393700787402
          },
          {
            "duration": 0.07894725000000058,
            "durationTicks": 48,
            "midi": 42,
            "name": "F#2",
            "ticks": 8208,
            "time": 13.49997975,
            "velocity": 0.6850393700787402
          },
          {
            "duration": 0.15789449999999938,
            "durationTicks": 96,
            "midi": 38,
            "name": "D2",
            "ticks": 8256,
            "time": 13.578927,
            "velocity": 0.6850393700787402
          },
          {
            "duration": 0.0789472499999988,
            "durationTicks": 48,
            "midi": 42,
            "name": "F#2",
            "ticks": 8256,
            "time": 13.578927,
            "velocity": 0.6850393700787402
          },
          {
            "duration": 0.15789449999999938,
            "durationTicks": 96,
            "midi": 46,
            "name": "A#2",
            "ticks": 8352,
            "time": 13.7368215,
            "velocity": 0.6850393700787402
          },
          {
            "duration": 0.15789449999999938,
            "durationTicks": 96,
            "midi": 35,
            "name": "B1",
            "ticks": 8352,
            "time": 13.7368215,
            "velocity": 0.6850393700787402
          },
          {
            "duration": 0.15789450000000116,
            "durationTicks": 96,
            "midi": 35,
            "name": "B1",
            "ticks": 8448,
            "time": 13.894715999999999,
            "velocity": 0.6850393700787402
          },
          {
            "duration": 0.07894725000000058,
            "durationTicks": 48,
            "midi": 42,
            "name": "F#2",
            "ticks": 8448,
            "time": 13.894715999999999,
            "velocity": 0.6850393700787402
          },
          {
            "duration": 0.0789472499999988,
            "durationTicks": 48,
            "midi": 42,
            "name": "F#2",
            "ticks": 8544,
            "time": 14.0526105,
            "velocity": 0.6850393700787402
          },
          {
            "duration": 0.07894725000000058,
            "durationTicks": 48,
            "midi": 42,
            "name": "F#2",
            "ticks": 8592,
            "time": 14.131557749999999,
            "velocity": 0.6850393700787402
          },
          {
            "duration": 0.07894725000000058,
            "durationTicks": 48,
            "midi": 42,
            "name": "F#2",
            "ticks": 8640,
            "time": 14.210505,
            "velocity": 0.6850393700787402
          },
          {
            "duration": 0.15789449999999938,
            "durationTicks": 96,
            "midi": 38,
            "name": "D2",
            "ticks": 8640,
            "time": 14.210505,
            "velocity": 0.6850393700787402
          },
          {
            "duration": 0.07894725000000058,
            "durationTicks": 48,
            "midi": 42,
            "name": "F#2",
            "ticks": 8736,
            "time": 14.368399499999999,
            "velocity": 0.6850393700787402
          },
          {
            "duration": 0.0789472499999988,
            "durationTicks": 48,
            "midi": 42,
            "name": "F#2",
            "ticks": 8832,
            "time": 14.526294,
            "velocity": 0.6850393700787402
          },
          {
            "duration": 0.15789449999999938,
            "durationTicks": 96,
            "midi": 35,
            "name": "B1",
            "ticks": 8832,
            "time": 14.526294,
            "velocity": 0.6850393700787402
          },
          {
            "duration": 0.15789449999999938,
            "durationTicks": 96,
            "midi": 35,
            "name": "B1",
            "ticks": 8928,
            "time": 14.6841885,
            "velocity": 0.6850393700787402
          },
          {
            "duration": 0.07894725000000058,
            "durationTicks": 48,
            "midi": 42,
            "name": "F#2",
            "ticks": 8928,
            "time": 14.6841885,
            "velocity": 0.6850393700787402
          },
          {
            "duration": 0.0789472499999988,
            "durationTicks": 48,
            "midi": 42,
            "name": "F#2",
            "ticks": 8976,
            "time": 14.76313575,
            "velocity": 0.6850393700787402
          },
          {
            "duration": 0.15789450000000116,
            "durationTicks": 96,
            "midi": 38,
            "name": "D2",
            "ticks": 9024,
            "time": 14.842082999999999,
            "velocity": 0.6850393700787402
          },
          {
            "duration": 0.07894725000000058,
            "durationTicks": 48,
            "midi": 42,
            "name": "F#2",
            "ticks": 9024,
            "time": 14.842082999999999,
            "velocity": 0.6850393700787402
          },
          {
            "duration": 0.07894725000000058,
            "durationTicks": 48,
            "midi": 42,
            "name": "F#2",
            "ticks": 9072,
            "time": 14.92103025,
            "velocity": 0.6850393700787402
          },
          {
            "duration": 0.15789449999999938,
            "durationTicks": 96,
            "midi": 35,
            "name": "B1",
            "ticks": 9120,
            "time": 14.9999775,
            "velocity": 0.6850393700787402
          },
          {
            "duration": 0.0789472499999988,
            "durationTicks": 48,
            "midi": 42,
            "name": "F#2",
            "ticks": 9120,
            "time": 14.9999775,
            "velocity": 0.6850393700787402
          },
          {
            "duration": 0.07894725000000058,
            "durationTicks": 48,
            "midi": 42,
            "name": "F#2",
            "ticks": 9216,
            "time": 15.157872,
            "velocity": 0.6850393700787402
          },
          {
            "duration": 0.15789449999999938,
            "durationTicks": 96,
            "midi": 35,
            "name": "B1",
            "ticks": 9216,
            "time": 15.157872,
            "velocity": 0.6850393700787402
          },
          {
            "duration": 0.07894725000000058,
            "durationTicks": 48,
            "midi": 42,
            "name": "F#2",
            "ticks": 9312,
            "time": 15.315766499999999,
            "velocity": 0.6850393700787402
          },
          {
            "duration": 0.07894725000000058,
            "durationTicks": 48,
            "midi": 42,
            "name": "F#2",
            "ticks": 9360,
            "time": 15.39471375,
            "velocity": 0.6850393700787402
          },
          {
            "duration": 0.0789472499999988,
            "durationTicks": 48,
            "midi": 42,
            "name": "F#2",
            "ticks": 9408,
            "time": 15.473661,
            "velocity": 0.6850393700787402
          },
          {
            "duration": 0.15789449999999938,
            "durationTicks": 96,
            "midi": 38,
            "name": "D2",
            "ticks": 9408,
            "time": 15.473661,
            "velocity": 0.6850393700787402
          },
          {
            "duration": 0.07894725000000058,
            "durationTicks": 48,
            "midi": 42,
            "name": "F#2",
            "ticks": 9504,
            "time": 15.6315555,
            "velocity": 0.6850393700787402
          },
          {
            "duration": 0.07894725000000058,
            "durationTicks": 48,
            "midi": 42,
            "name": "F#2",
            "ticks": 9600,
            "time": 15.789449999999999,
            "velocity": 0.6850393700787402
          },
          {
            "duration": 0.15789450000000116,
            "durationTicks": 96,
            "midi": 35,
            "name": "B1",
            "ticks": 9600,
            "time": 15.789449999999999,
            "velocity": 0.6850393700787402
          },
          {
            "duration": 0.0789472499999988,
            "durationTicks": 48,
            "midi": 42,
            "name": "F#2",
            "ticks": 9696,
            "time": 15.9473445,
            "velocity": 0.6850393700787402
          },
          {
            "duration": 0.07894725000000236,
            "durationTicks": 48,
            "midi": 42,
            "name": "F#2",
            "ticks": 9744,
            "time": 16.02629175,
            "velocity": 0.6850393700787402
          },
          {
            "duration": 0.0789472499999988,
            "durationTicks": 48,
            "midi": 42,
            "name": "F#2",
            "ticks": 9792,
            "time": 16.105239,
            "velocity": 0.6850393700787402
          },
          {
            "duration": 0.1578944999999976,
            "durationTicks": 96,
            "midi": 38,
            "name": "D2",
            "ticks": 9792,
            "time": 16.105239,
            "velocity": 0.6850393700787402
          },
          {
            "duration": 0.15789450000000116,
            "durationTicks": 96,
            "midi": 35,
            "name": "B1",
            "ticks": 9888,
            "time": 16.2631335,
            "velocity": 0.6850393700787402
          },
          {
            "duration": 0.15789450000000116,
            "durationTicks": 96,
            "midi": 46,
            "name": "A#2",
            "ticks": 9888,
            "time": 16.2631335,
            "velocity": 0.6850393700787402
          },
          {
            "duration": 0.15789450000000116,
            "durationTicks": 96,
            "midi": 35,
            "name": "B1",
            "ticks": 9984,
            "time": 16.421028,
            "velocity": 0.6850393700787402
          },
          {
            "duration": 0.0789472499999988,
            "durationTicks": 48,
            "midi": 42,
            "name": "F#2",
            "ticks": 9984,
            "time": 16.421028,
            "velocity": 0.6850393700787402
          },
          {
            "duration": 0.0789472499999988,
            "durationTicks": 48,
            "midi": 42,
            "name": "F#2",
            "ticks": 10080,
            "time": 16.5789225,
            "velocity": 0.6850393700787402
          },
          {
            "duration": 0.0789472499999988,
            "durationTicks": 48,
            "midi": 42,
            "name": "F#2",
            "ticks": 10128,
            "time": 16.65786975,
            "velocity": 0.6850393700787402
          },
          {
            "duration": 0.15789450000000116,
            "durationTicks": 96,
            "midi": 38,
            "name": "D2",
            "ticks": 10176,
            "time": 16.736817,
            "velocity": 0.6850393700787402
          },
          {
            "duration": 0.07894725000000236,
            "durationTicks": 48,
            "midi": 42,
            "name": "F#2",
            "ticks": 10176,
            "time": 16.736817,
            "velocity": 0.6850393700787402
          },
          {
            "duration": 0.0789472499999988,
            "durationTicks": 48,
            "midi": 42,
            "name": "F#2",
            "ticks": 10272,
            "time": 16.8947115,
            "velocity": 0.6850393700787402
          },
          {
            "duration": 0.0789472499999988,
            "durationTicks": 48,
            "midi": 42,
            "name": "F#2",
            "ticks": 10368,
            "time": 17.052606,
            "velocity": 0.6850393700787402
          },
          {
            "duration": 0.1578944999999976,
            "durationTicks": 96,
            "midi": 35,
            "name": "B1",
            "ticks": 10368,
            "time": 17.052606,
            "velocity": 0.6850393700787402
          },
          {
            "duration": 0.07894725000000236,
            "durationTicks": 48,
            "midi": 42,
            "name": "F#2",
            "ticks": 10464,
            "time": 17.2105005,
            "velocity": 0.6850393700787402
          },
          {
            "duration": 0.15789450000000116,
            "durationTicks": 96,
            "midi": 35,
            "name": "B1",
            "ticks": 10464,
            "time": 17.2105005,
            "velocity": 0.6850393700787402
          },
          {
            "duration": 0.0789472499999988,
            "durationTicks": 48,
            "midi": 42,
            "name": "F#2",
            "ticks": 10512,
            "time": 17.28944775,
            "velocity": 0.6850393700787402
          },
          {
            "duration": 0.15789450000000116,
            "durationTicks": 96,
            "midi": 38,
            "name": "D2",
            "ticks": 10560,
            "time": 17.368395,
            "velocity": 0.6850393700787402
          },
          {
            "duration": 0.0789472499999988,
            "durationTicks": 48,
            "midi": 42,
            "name": "F#2",
            "ticks": 10560,
            "time": 17.368395,
            "velocity": 0.6850393700787402
          },
          {
            "duration": 0.07894725000000236,
            "durationTicks": 48,
            "midi": 42,
            "name": "F#2",
            "ticks": 10608,
            "time": 17.44734225,
            "velocity": 0.6850393700787402
          },
          {
            "duration": 0.1578944999999976,
            "durationTicks": 96,
            "midi": 35,
            "name": "B1",
            "ticks": 10656,
            "time": 17.5262895,
            "velocity": 0.6850393700787402
          },
          {
            "duration": 0.0789472499999988,
            "durationTicks": 48,
            "midi": 42,
            "name": "F#2",
            "ticks": 10656,
            "time": 17.5262895,
            "velocity": 0.6850393700787402
          },
          {
            "duration": 0.0394736249999994,
            "durationTicks": 24,
            "midi": 46,
            "name": "A#2",
            "ticks": 11904,
            "time": 19.578917999999998,
            "velocity": 0.6850393700787402
          },
          {
            "duration": 0.039473625000002954,
            "durationTicks": 24,
            "midi": 46,
            "name": "A#2",
            "ticks": 11928,
            "time": 19.618391624999997,
            "velocity": 0.6850393700787402
          },
          {
            "duration": 0.0394736249999994,
            "durationTicks": 24,
            "midi": 46,
            "name": "A#2",
            "ticks": 11952,
            "time": 19.65786525,
            "velocity": 0.6850393700787402
          },
          {
            "duration": 0.0394736249999994,
            "durationTicks": 24,
            "midi": 46,
            "name": "A#2",
            "ticks": 11976,
            "time": 19.697338875,
            "velocity": 0.6850393700787402
          },
          {
            "duration": 0.0394736249999994,
            "durationTicks": 24,
            "midi": 46,
            "name": "A#2",
            "ticks": 12000,
            "time": 19.7368125,
            "velocity": 0.6850393700787402
          },
          {
            "duration": 0.0394736249999994,
            "durationTicks": 24,
            "midi": 46,
            "name": "A#2",
            "ticks": 12024,
            "time": 19.776286125,
            "velocity": 0.6850393700787402
          },
          {
            "duration": 0.0394736249999994,
            "durationTicks": 24,
            "midi": 46,
            "name": "A#2",
            "ticks": 12048,
            "time": 19.815759749999998,
            "velocity": 0.6850393700787402
          },
          {
            "duration": 0.039473625000002954,
            "durationTicks": 24,
            "midi": 46,
            "name": "A#2",
            "ticks": 12072,
            "time": 19.855233374999997,
            "velocity": 0.6850393700787402
          },
          {
            "duration": 0.0394736249999994,
            "durationTicks": 24,
            "midi": 46,
            "name": "A#2",
            "ticks": 12096,
            "time": 19.894707,
            "velocity": 0.6850393700787402
          },
          {
            "duration": 0.0394736249999994,
            "durationTicks": 24,
            "midi": 46,
            "name": "A#2",
            "ticks": 12096,
            "time": 19.894707,
            "velocity": 0.6850393700787402
          },
          {
            "duration": 0.0394736249999994,
            "durationTicks": 24,
            "midi": 46,
            "name": "A#2",
            "ticks": 12120,
            "time": 19.934180625,
            "velocity": 0.6850393700787402
          },
          {
            "duration": 0.0394736249999994,
            "durationTicks": 24,
            "midi": 46,
            "name": "A#2",
            "ticks": 12120,
            "time": 19.934180625,
            "velocity": 0.6850393700787402
          },
          {
            "duration": 0.0394736249999994,
            "durationTicks": 24,
            "midi": 46,
            "name": "A#2",
            "ticks": 12144,
            "time": 19.97365425,
            "velocity": 0.6850393700787402
          },
          {
            "duration": 0.0394736249999994,
            "durationTicks": 24,
            "midi": 46,
            "name": "A#2",
            "ticks": 12144,
            "time": 19.97365425,
            "velocity": 0.6850393700787402
          },
          {
            "duration": 0.0394736249999994,
            "durationTicks": 24,
            "midi": 46,
            "name": "A#2",
            "ticks": 12168,
            "time": 20.013127875,
            "velocity": 0.6850393700787402
          },
          {
            "duration": 0.0394736249999994,
            "durationTicks": 24,
            "midi": 46,
            "name": "A#2",
            "ticks": 12168,
            "time": 20.013127875,
            "velocity": 0.6850393700787402
          },
          {
            "duration": 0.0394736249999994,
            "durationTicks": 24,
            "midi": 46,
            "name": "A#2",
            "ticks": 12192,
            "time": 20.052601499999998,
            "velocity": 0.6850393700787402
          },
          {
            "duration": 0.0394736249999994,
            "durationTicks": 24,
            "midi": 46,
            "name": "A#2",
            "ticks": 12192,
            "time": 20.052601499999998,
            "velocity": 0.6850393700787402
          },
          {
            "duration": 0.039473625000002954,
            "durationTicks": 24,
            "midi": 46,
            "name": "A#2",
            "ticks": 12216,
            "time": 20.092075124999997,
            "velocity": 0.6850393700787402
          },
          {
            "duration": 0.039473625000002954,
            "durationTicks": 24,
            "midi": 46,
            "name": "A#2",
            "ticks": 12216,
            "time": 20.092075124999997,
            "velocity": 0.6850393700787402
          },
          {
            "duration": 0.0394736249999994,
            "durationTicks": 24,
            "midi": 46,
            "name": "A#2",
            "ticks": 12240,
            "time": 20.13154875,
            "velocity": 0.6850393700787402
          },
          {
            "duration": 0.0394736249999994,
            "durationTicks": 24,
            "midi": 46,
            "name": "A#2",
            "ticks": 12240,
            "time": 20.13154875,
            "velocity": 0.6850393700787402
          },
          {
            "duration": 0.0394736249999994,
            "durationTicks": 24,
            "midi": 46,
            "name": "A#2",
            "ticks": 12264,
            "time": 20.171022375,
            "velocity": 0.6850393700787402
          },
          {
            "duration": 0.0394736249999994,
            "durationTicks": 24,
            "midi": 46,
            "name": "A#2",
            "ticks": 12264,
            "time": 20.171022375,
            "velocity": 0.6850393700787402
          },
          {
            "duration": 0.15789450000000116,
            "durationTicks": 96,
            "midi": 46,
            "name": "A#2",
            "ticks": 12288,
            "time": 20.210496,
            "velocity": 0.6850393700787402
          },
          {
            "duration": 0.15789450000000116,
            "durationTicks": 96,
            "midi": 49,
            "name": "C#3",
            "ticks": 12288,
            "time": 20.210496,
            "velocity": 0.6850393700787402
          },
          {
            "duration": 0.15789450000000116,
            "durationTicks": 96,
            "midi": 49,
            "name": "C#3",
            "ticks": 12288,
            "time": 20.210496,
            "velocity": 0.6850393700787402
          },
          {
            "duration": 0.15789450000000116,
            "durationTicks": 96,
            "midi": 35,
            "name": "B1",
            "ticks": 12288,
            "time": 20.210496,
            "velocity": 0.6850393700787402
          },
          {
            "duration": 0.15789450000000116,
            "durationTicks": 96,
            "midi": 52,
            "name": "E3",
            "ticks": 12288,
            "time": 20.210496,
            "velocity": 0.6850393700787402
          },
          {
            "duration": 0.1578944999999976,
            "durationTicks": 96,
            "midi": 38,
            "name": "D2",
            "ticks": 12384,
            "time": 20.3683905,
            "velocity": 0.6850393700787402
          },
          {
            "duration": 0.15789450000000116,
            "durationTicks": 96,
            "midi": 46,
            "name": "A#2",
            "ticks": 12480,
            "time": 20.526284999999998,
            "velocity": 0.6850393700787402
          },
          {
            "duration": 0.07894725000000236,
            "durationTicks": 48,
            "midi": 35,
            "name": "B1",
            "ticks": 12480,
            "time": 20.526284999999998,
            "velocity": 0.6850393700787402
          },
          {
            "duration": 0.15789450000000116,
            "durationTicks": 96,
            "midi": 38,
            "name": "D2",
            "ticks": 12576,
            "time": 20.6841795,
            "velocity": 0.6850393700787402
          },
          {
            "duration": 0.1578944999999976,
            "durationTicks": 96,
            "midi": 46,
            "name": "A#2",
            "ticks": 12672,
            "time": 20.842074,
            "velocity": 0.6850393700787402
          },
          {
            "duration": 0.1578944999999976,
            "durationTicks": 96,
            "midi": 35,
            "name": "B1",
            "ticks": 12672,
            "time": 20.842074,
            "velocity": 0.6850393700787402
          },
          {
            "duration": 0.15789450000000116,
            "durationTicks": 96,
            "midi": 38,
            "name": "D2",
            "ticks": 12768,
            "time": 20.999968499999998,
            "velocity": 0.6850393700787402
          },
          {
            "duration": 0.0789472499999988,
            "durationTicks": 48,
            "midi": 35,
            "name": "B1",
            "ticks": 12864,
            "time": 21.157863,
            "velocity": 0.6850393700787402
          },
          {
            "duration": 0.15789450000000116,
            "durationTicks": 96,
            "midi": 46,
            "name": "A#2",
            "ticks": 12864,
            "time": 21.157863,
            "velocity": 0.6850393700787402
          },
          {
            "duration": 0.07894725000000236,
            "durationTicks": 48,
            "midi": 35,
            "name": "B1",
            "ticks": 12912,
            "time": 21.236810249999998,
            "velocity": 0.6850393700787402
          },
          {
            "duration": 0.1578944999999976,
            "durationTicks": 96,
            "midi": 38,
            "name": "D2",
            "ticks": 12960,
            "time": 21.3157575,
            "velocity": 0.6850393700787402
          },
          {
            "duration": 0.15789450000000116,
            "durationTicks": 96,
            "midi": 35,
            "name": "B1",
            "ticks": 13056,
            "time": 21.473651999999998,
            "velocity": 0.6850393700787402
          },
          {
            "duration": 0.15789450000000116,
            "durationTicks": 96,
            "midi": 46,
            "name": "A#2",
            "ticks": 13056,
            "time": 21.473651999999998,
            "velocity": 0.6850393700787402
          },
          {
            "duration": 0.15789450000000116,
            "durationTicks": 96,
            "midi": 38,
            "name": "D2",
            "ticks": 13152,
            "time": 21.6315465,
            "velocity": 0.6850393700787402
          },
          {
            "duration": 0.0789472499999988,
            "durationTicks": 48,
            "midi": 35,
            "name": "B1",
            "ticks": 13248,
            "time": 21.789441,
            "velocity": 0.6850393700787402
          },
          {
            "duration": 0.1578944999999976,
            "durationTicks": 96,
            "midi": 46,
            "name": "A#2",
            "ticks": 13248,
            "time": 21.789441,
            "velocity": 0.6850393700787402
          },
          {
            "duration": 0.15789450000000116,
            "durationTicks": 96,
            "midi": 38,
            "name": "D2",
            "ticks": 13344,
            "time": 21.947335499999998,
            "velocity": 0.6850393700787402
          },
          {
            "duration": 0.15789450000000116,
            "durationTicks": 96,
            "midi": 35,
            "name": "B1",
            "ticks": 13440,
            "time": 22.10523,
            "velocity": 0.6850393700787402
          },
          {
            "duration": 0.15789450000000116,
            "durationTicks": 96,
            "midi": 46,
            "name": "A#2",
            "ticks": 13440,
            "time": 22.10523,
            "velocity": 0.6850393700787402
          },
          {
            "duration": 0.1578944999999976,
            "durationTicks": 96,
            "midi": 38,
            "name": "D2",
            "ticks": 13536,
            "time": 22.2631245,
            "velocity": 0.6850393700787402
          },
          {
            "duration": 0.15789450000000116,
            "durationTicks": 96,
            "midi": 46,
            "name": "A#2",
            "ticks": 13632,
            "time": 22.421018999999998,
            "velocity": 0.6850393700787402
          },
          {
            "duration": 0.07894725000000236,
            "durationTicks": 48,
            "midi": 35,
            "name": "B1",
            "ticks": 13632,
            "time": 22.421018999999998,
            "velocity": 0.6850393700787402
          },
          {
            "duration": 0.0789472499999988,
            "durationTicks": 48,
            "midi": 35,
            "name": "B1",
            "ticks": 13680,
            "time": 22.49996625,
            "velocity": 0.6850393700787402
          },
          {
            "duration": 0.15789450000000116,
            "durationTicks": 96,
            "midi": 38,
            "name": "D2",
            "ticks": 13728,
            "time": 22.5789135,
            "velocity": 0.6850393700787402
          },
          {
            "duration": 0.1578944999999976,
            "durationTicks": 96,
            "midi": 35,
            "name": "B1",
            "ticks": 13824,
            "time": 22.736808,
            "velocity": 0.6850393700787402
          },
          {
            "duration": 0.1578944999999976,
            "durationTicks": 96,
            "midi": 49,
            "name": "C#3",
            "ticks": 13824,
            "time": 22.736808,
            "velocity": 0.6850393700787402
          },
          {
            "duration": 0.1578944999999976,
            "durationTicks": 96,
            "midi": 49,
            "name": "C#3",
            "ticks": 13824,
            "time": 22.736808,
            "velocity": 0.6850393700787402
          },
          {
            "duration": 0.1578944999999976,
            "durationTicks": 96,
            "midi": 46,
            "name": "A#2",
            "ticks": 13824,
            "time": 22.736808,
            "velocity": 0.6850393700787402
          },
          {
            "duration": 0.1578944999999976,
            "durationTicks": 96,
            "midi": 52,
            "name": "E3",
            "ticks": 13824,
            "time": 22.736808,
            "velocity": 0.6850393700787402
          },
          {
            "duration": 0.15789450000000116,
            "durationTicks": 96,
            "midi": 38,
            "name": "D2",
            "ticks": 13920,
            "time": 22.894702499999998,
            "velocity": 0.6850393700787402
          },
          {
            "duration": 0.0789472499999988,
            "durationTicks": 48,
            "midi": 35,
            "name": "B1",
            "ticks": 14016,
            "time": 23.052597,
            "velocity": 0.6850393700787402
          },
          {
            "duration": 0.15789450000000116,
            "durationTicks": 96,
            "midi": 46,
            "name": "A#2",
            "ticks": 14016,
            "time": 23.052597,
            "velocity": 0.6850393700787402
          },
          {
            "duration": 0.1578944999999976,
            "durationTicks": 96,
            "midi": 38,
            "name": "D2",
            "ticks": 14112,
            "time": 23.2104915,
            "velocity": 0.6850393700787402
          },
          {
            "duration": 0.15789450000000116,
            "durationTicks": 96,
            "midi": 46,
            "name": "A#2",
            "ticks": 14208,
            "time": 23.368385999999997,
            "velocity": 0.6850393700787402
          },
          {
            "duration": 0.15789450000000116,
            "durationTicks": 96,
            "midi": 35,
            "name": "B1",
            "ticks": 14208,
            "time": 23.368385999999997,
            "velocity": 0.6850393700787402
          },
          {
            "duration": 0.15789450000000116,
            "durationTicks": 96,
            "midi": 38,
            "name": "D2",
            "ticks": 14304,
            "time": 23.5262805,
            "velocity": 0.6850393700787402
          },
          {
            "duration": 0.1578944999999976,
            "durationTicks": 96,
            "midi": 46,
            "name": "A#2",
            "ticks": 14400,
            "time": 23.684175,
            "velocity": 0.6850393700787402
          },
          {
            "duration": 0.0789472499999988,
            "durationTicks": 48,
            "midi": 35,
            "name": "B1",
            "ticks": 14400,
            "time": 23.684175,
            "velocity": 0.6850393700787402
          },
          {
            "duration": 0.0789472499999988,
            "durationTicks": 48,
            "midi": 35,
            "name": "B1",
            "ticks": 14448,
            "time": 23.76312225,
            "velocity": 0.6850393700787402
          },
          {
            "duration": 0.15789450000000116,
            "durationTicks": 96,
            "midi": 38,
            "name": "D2",
            "ticks": 14496,
            "time": 23.842069499999997,
            "velocity": 0.6850393700787402
          },
          {
            "duration": 0.15789450000000116,
            "durationTicks": 96,
            "midi": 46,
            "name": "A#2",
            "ticks": 14592,
            "time": 23.999964,
            "velocity": 0.6850393700787402
          },
          {
            "duration": 0.15789450000000116,
            "durationTicks": 96,
            "midi": 35,
            "name": "B1",
            "ticks": 14592,
            "time": 23.999964,
            "velocity": 0.6850393700787402
          },
          {
            "duration": 0.1578944999999976,
            "durationTicks": 96,
            "midi": 38,
            "name": "D2",
            "ticks": 14688,
            "time": 24.1578585,
            "velocity": 0.6850393700787402
          },
          {
            "duration": 0.07894725000000236,
            "durationTicks": 48,
            "midi": 35,
            "name": "B1",
            "ticks": 14784,
            "time": 24.315752999999997,
            "velocity": 0.6850393700787402
          },
          {
            "duration": 0.15789450000000116,
            "durationTicks": 96,
            "midi": 46,
            "name": "A#2",
            "ticks": 14784,
            "time": 24.315752999999997,
            "velocity": 0.6850393700787402
          },
          {
            "duration": 0.15789450000000116,
            "durationTicks": 96,
            "midi": 38,
            "name": "D2",
            "ticks": 14880,
            "time": 24.4736475,
            "velocity": 0.6850393700787402
          },
          {
            "duration": 0.1578944999999976,
            "durationTicks": 96,
            "midi": 35,
            "name": "B1",
            "ticks": 14976,
            "time": 24.631542,
            "velocity": 0.6850393700787402
          },
          {
            "duration": 0.1578944999999976,
            "durationTicks": 96,
            "midi": 46,
            "name": "A#2",
            "ticks": 14976,
            "time": 24.631542,
            "velocity": 0.6850393700787402
          },
          {
            "duration": 0.15789450000000116,
            "durationTicks": 96,
            "midi": 38,
            "name": "D2",
            "ticks": 15072,
            "time": 24.789436499999997,
            "velocity": 0.6850393700787402
          },
          {
            "duration": 0.0789472499999988,
            "durationTicks": 48,
            "midi": 35,
            "name": "B1",
            "ticks": 15168,
            "time": 24.947331,
            "velocity": 0.6850393700787402
          },
          {
            "duration": 0.15789450000000116,
            "durationTicks": 96,
            "midi": 46,
            "name": "A#2",
            "ticks": 15168,
            "time": 24.947331,
            "velocity": 0.6850393700787402
          },
          {
            "duration": 0.07894725000000236,
            "durationTicks": 48,
            "midi": 35,
            "name": "B1",
            "ticks": 15216,
            "time": 25.026278249999997,
            "velocity": 0.6850393700787402
          },
          {
            "duration": 0.15789450000000116,
            "durationTicks": 96,
            "midi": 38,
            "name": "D2",
            "ticks": 15264,
            "time": 25.1052255,
            "velocity": 0.6850393700787402
          },
          {
            "duration": 0.1578944999999976,
            "durationTicks": 96,
            "midi": 46,
            "name": "A#2",
            "ticks": 15360,
            "time": 25.26312,
            "velocity": 0.6850393700787402
          },
          {
            "duration": 0.1578944999999976,
            "durationTicks": 96,
            "midi": 49,
            "name": "C#3",
            "ticks": 15360,
            "time": 25.26312,
            "velocity": 0.6850393700787402
          },
          {
            "duration": 0.1578944999999976,
            "durationTicks": 96,
            "midi": 49,
            "name": "C#3",
            "ticks": 15360,
            "time": 25.26312,
            "velocity": 0.6850393700787402
          },
          {
            "duration": 0.1578944999999976,
            "durationTicks": 96,
            "midi": 35,
            "name": "B1",
            "ticks": 15360,
            "time": 25.26312,
            "velocity": 0.6850393700787402
          },
          {
            "duration": 0.1578944999999976,
            "durationTicks": 96,
            "midi": 52,
            "name": "E3",
            "ticks": 15360,
            "time": 25.26312,
            "velocity": 0.6850393700787402
          },
          {
            "duration": 0.15789450000000116,
            "durationTicks": 96,
            "midi": 38,
            "name": "D2",
            "ticks": 15456,
            "time": 25.4210145,
            "velocity": 0.6850393700787402
          },
          {
            "duration": 0.15789450000000116,
            "durationTicks": 96,
            "midi": 46,
            "name": "A#2",
            "ticks": 15552,
            "time": 25.578909,
            "velocity": 0.6850393700787402
          },
          {
            "duration": 0.0789472499999988,
            "durationTicks": 48,
            "midi": 35,
            "name": "B1",
            "ticks": 15552,
            "time": 25.578909,
            "velocity": 0.6850393700787402
          },
          {
            "duration": 0.1578944999999976,
            "durationTicks": 96,
            "midi": 38,
            "name": "D2",
            "ticks": 15648,
            "time": 25.7368035,
            "velocity": 0.6850393700787402
          },
          {
            "duration": 0.15789450000000116,
            "durationTicks": 96,
            "midi": 46,
            "name": "A#2",
            "ticks": 15744,
            "time": 25.894697999999998,
            "velocity": 0.6850393700787402
          },
          {
            "duration": 0.15789450000000116,
            "durationTicks": 96,
            "midi": 35,
            "name": "B1",
            "ticks": 15744,
            "time": 25.894697999999998,
            "velocity": 0.6850393700787402
          },
          {
            "duration": 0.15789450000000116,
            "durationTicks": 96,
            "midi": 38,
            "name": "D2",
            "ticks": 15840,
            "time": 26.0525925,
            "velocity": 0.6850393700787402
          },
          {
            "duration": 0.0789472499999988,
            "durationTicks": 48,
            "midi": 35,
            "name": "B1",
            "ticks": 15936,
            "time": 26.210487,
            "velocity": 0.6850393700787402
          },
          {
            "duration": 0.1578944999999976,
            "durationTicks": 96,
            "midi": 46,
            "name": "A#2",
            "ticks": 15936,
            "time": 26.210487,
            "velocity": 0.6850393700787402
          },
          {
            "duration": 0.0789472499999988,
            "durationTicks": 48,
            "midi": 35,
            "name": "B1",
            "ticks": 15984,
            "time": 26.28943425,
            "velocity": 0.6850393700787402
          },
          {
            "duration": 0.15789450000000116,
            "durationTicks": 96,
            "midi": 38,
            "name": "D2",
            "ticks": 16032,
            "time": 26.368381499999998,
            "velocity": 0.6850393700787402
          },
          {
            "duration": 0.15789450000000116,
            "durationTicks": 96,
            "midi": 46,
            "name": "A#2",
            "ticks": 16128,
            "time": 26.526276,
            "velocity": 0.6850393700787402
          },
          {
            "duration": 0.15789450000000116,
            "durationTicks": 96,
            "midi": 35,
            "name": "B1",
            "ticks": 16128,
            "time": 26.526276,
            "velocity": 0.6850393700787402
          },
          {
            "duration": 0.1578944999999976,
            "durationTicks": 96,
            "midi": 38,
            "name": "D2",
            "ticks": 16224,
            "time": 26.6841705,
            "velocity": 0.6850393700787402
          },
          {
            "duration": 0.15789450000000116,
            "durationTicks": 96,
            "midi": 46,
            "name": "A#2",
            "ticks": 16320,
            "time": 26.842064999999998,
            "velocity": 0.6850393700787402
          },
          {
            "duration": 0.07894725000000236,
            "durationTicks": 48,
            "midi": 35,
            "name": "B1",
            "ticks": 16320,
            "time": 26.842064999999998,
            "velocity": 0.6850393700787402
          },
          {
            "duration": 0.15789450000000116,
            "durationTicks": 96,
            "midi": 38,
            "name": "D2",
            "ticks": 16416,
            "time": 26.9999595,
            "velocity": 0.6850393700787402
          },
          {
            "duration": 0.1578944999999976,
            "durationTicks": 96,
            "midi": 46,
            "name": "A#2",
            "ticks": 16512,
            "time": 27.157854,
            "velocity": 0.6850393700787402
          },
          {
            "duration": 0.1578944999999976,
            "durationTicks": 96,
            "midi": 35,
            "name": "B1",
            "ticks": 16512,
            "time": 27.157854,
            "velocity": 0.6850393700787402
          },
          {
            "duration": 0.15789450000000116,
            "durationTicks": 96,
            "midi": 38,
            "name": "D2",
            "ticks": 16608,
            "time": 27.315748499999998,
            "velocity": 0.6850393700787402
          },
          {
            "duration": 0.15789450000000116,
            "durationTicks": 96,
            "midi": 46,
            "name": "A#2",
            "ticks": 16704,
            "time": 27.473643,
            "velocity": 0.6850393700787402
          },
          {
            "duration": 0.0789472499999988,
            "durationTicks": 48,
            "midi": 35,
            "name": "B1",
            "ticks": 16704,
            "time": 27.473643,
            "velocity": 0.6850393700787402
          },
          {
            "duration": 0.07894725000000236,
            "durationTicks": 48,
            "midi": 35,
            "name": "B1",
            "ticks": 16752,
            "time": 27.552590249999998,
            "velocity": 0.6850393700787402
          },
          {
            "duration": 0.1578944999999976,
            "durationTicks": 96,
            "midi": 38,
            "name": "D2",
            "ticks": 16800,
            "time": 27.6315375,
            "velocity": 0.6850393700787402
          },
          {
            "duration": 0.15789450000000116,
            "durationTicks": 96,
            "midi": 35,
            "name": "B1",
            "ticks": 16896,
            "time": 27.789431999999998,
            "velocity": 0.6850393700787402
          },
          {
            "duration": 0.15789450000000116,
            "durationTicks": 96,
            "midi": 49,
            "name": "C#3",
            "ticks": 16896,
            "time": 27.789431999999998,
            "velocity": 0.6850393700787402
          },
          {
            "duration": 0.15789450000000116,
            "durationTicks": 96,
            "midi": 52,
            "name": "E3",
            "ticks": 16896,
            "time": 27.789431999999998,
            "velocity": 0.6850393700787402
          },
          {
            "duration": 0.15789450000000116,
            "durationTicks": 96,
            "midi": 49,
            "name": "C#3",
            "ticks": 16896,
            "time": 27.789431999999998,
            "velocity": 0.6850393700787402
          },
          {
            "duration": 0.15789450000000116,
            "durationTicks": 96,
            "midi": 46,
            "name": "A#2",
            "ticks": 16896,
            "time": 27.789431999999998,
            "velocity": 0.6850393700787402
          },
          {
            "duration": 0.15789450000000116,
            "durationTicks": 96,
            "midi": 38,
            "name": "D2",
            "ticks": 16992,
            "time": 27.9473265,
            "velocity": 0.6850393700787402
          },
          {
            "duration": 0.1578944999999976,
            "durationTicks": 96,
            "midi": 46,
            "name": "A#2",
            "ticks": 17088,
            "time": 28.105221,
            "velocity": 0.6850393700787402
          },
          {
            "duration": 0.0789472499999988,
            "durationTicks": 48,
            "midi": 35,
            "name": "B1",
            "ticks": 17088,
            "time": 28.105221,
            "velocity": 0.6850393700787402
          },
          {
            "duration": 0.15789450000000116,
            "durationTicks": 96,
            "midi": 38,
            "name": "D2",
            "ticks": 17184,
            "time": 28.263115499999998,
            "velocity": 0.6850393700787402
          },
          {
            "duration": 0.15789450000000116,
            "durationTicks": 96,
            "midi": 46,
            "name": "A#2",
            "ticks": 17280,
            "time": 28.42101,
            "velocity": 0.6850393700787402
          },
          {
            "duration": 0.15789450000000116,
            "durationTicks": 96,
            "midi": 35,
            "name": "B1",
            "ticks": 17280,
            "time": 28.42101,
            "velocity": 0.6850393700787402
          },
          {
            "duration": 0.1578944999999976,
            "durationTicks": 96,
            "midi": 38,
            "name": "D2",
            "ticks": 17376,
            "time": 28.5789045,
            "velocity": 0.6850393700787402
          },
          {
            "duration": 0.15789450000000116,
            "durationTicks": 96,
            "midi": 46,
            "name": "A#2",
            "ticks": 17472,
            "time": 28.736798999999998,
            "velocity": 0.6850393700787402
          },
          {
            "duration": 0.07894725000000236,
            "durationTicks": 48,
            "midi": 35,
            "name": "B1",
            "ticks": 17472,
            "time": 28.736798999999998,
            "velocity": 0.6850393700787402
          },
          {
            "duration": 0.0789472499999988,
            "durationTicks": 48,
            "midi": 35,
            "name": "B1",
            "ticks": 17520,
            "time": 28.81574625,
            "velocity": 0.6850393700787402
          },
          {
            "duration": 0.15789450000000116,
            "durationTicks": 96,
            "midi": 38,
            "name": "D2",
            "ticks": 17568,
            "time": 28.8946935,
            "velocity": 0.6850393700787402
          },
          {
            "duration": 0.1578944999999976,
            "durationTicks": 96,
            "midi": 46,
            "name": "A#2",
            "ticks": 17664,
            "time": 29.052588,
            "velocity": 0.6850393700787402
          },
          {
            "duration": 0.1578944999999976,
            "durationTicks": 96,
            "midi": 35,
            "name": "B1",
            "ticks": 17664,
            "time": 29.052588,
            "velocity": 0.6850393700787402
          },
          {
            "duration": 0.15789450000000116,
            "durationTicks": 96,
            "midi": 38,
            "name": "D2",
            "ticks": 17760,
            "time": 29.210482499999998,
            "velocity": 0.6850393700787402
          },
          {
            "duration": 0.0789472499999988,
            "durationTicks": 48,
            "midi": 35,
            "name": "B1",
            "ticks": 17856,
            "time": 29.368377,
            "velocity": 0.6850393700787402
          },
          {
            "duration": 0.15789450000000116,
            "durationTicks": 96,
            "midi": 46,
            "name": "A#2",
            "ticks": 17856,
            "time": 29.368377,
            "velocity": 0.6850393700787402
          },
          {
            "duration": 0.1578944999999976,
            "durationTicks": 96,
            "midi": 38,
            "name": "D2",
            "ticks": 17952,
            "time": 29.5262715,
            "velocity": 0.6850393700787402
          },
          {
            "duration": 0.15789450000000116,
            "durationTicks": 96,
            "midi": 46,
            "name": "A#2",
            "ticks": 18048,
            "time": 29.684165999999998,
            "velocity": 0.6850393700787402
          },
          {
            "duration": 0.15789450000000116,
            "durationTicks": 96,
            "midi": 35,
            "name": "B1",
            "ticks": 18048,
            "time": 29.684165999999998,
            "velocity": 0.6850393700787402
          },
          {
            "duration": 0.15789450000000116,
            "durationTicks": 96,
            "midi": 38,
            "name": "D2",
            "ticks": 18144,
            "time": 29.8420605,
            "velocity": 0.6850393700787402
          },
          {
            "duration": 0.1578944999999976,
            "durationTicks": 96,
            "midi": 46,
            "name": "A#2",
            "ticks": 18240,
            "time": 29.999955,
            "velocity": 0.6850393700787402
          },
          {
            "duration": 0.0789472499999988,
            "durationTicks": 48,
            "midi": 35,
            "name": "B1",
            "ticks": 18240,
            "time": 29.999955,
            "velocity": 0.6850393700787402
          },
          {
            "duration": 0.0789472499999988,
            "durationTicks": 48,
            "midi": 35,
            "name": "B1",
            "ticks": 18288,
            "time": 30.07890225,
            "velocity": 0.6850393700787402
          },
          {
            "duration": 0.15789450000000116,
            "durationTicks": 96,
            "midi": 38,
            "name": "D2",
            "ticks": 18336,
            "time": 30.157849499999998,
            "velocity": 0.6850393700787402
          },
          {
            "duration": 0.15789450000000116,
            "durationTicks": 96,
            "midi": 46,
            "name": "A#2",
            "ticks": 18432,
            "time": 30.315744,
            "velocity": 0.6850393700787402
          },
          {
            "duration": 0.15789450000000116,
            "durationTicks": 96,
            "midi": 49,
            "name": "C#3",
            "ticks": 18432,
            "time": 30.315744,
            "velocity": 0.6850393700787402
          },
          {
            "duration": 0.15789450000000116,
            "durationTicks": 96,
            "midi": 52,
            "name": "E3",
            "ticks": 18432,
            "time": 30.315744,
            "velocity": 0.6850393700787402
          },
          {
            "duration": 0.15789450000000116,
            "durationTicks": 96,
            "midi": 35,
            "name": "B1",
            "ticks": 18432,
            "time": 30.315744,
            "velocity": 0.6850393700787402
          },
          {
            "duration": 0.15789450000000116,
            "durationTicks": 96,
            "midi": 49,
            "name": "C#3",
            "ticks": 18432,
            "time": 30.315744,
            "velocity": 0.6850393700787402
          },
          {
            "duration": 0.1578944999999976,
            "durationTicks": 96,
            "midi": 38,
            "name": "D2",
            "ticks": 18528,
            "time": 30.4736385,
            "velocity": 0.6850393700787402
          },
          {
            "duration": 0.07894725000000236,
            "durationTicks": 48,
            "midi": 35,
            "name": "B1",
            "ticks": 18624,
            "time": 30.631532999999997,
            "velocity": 0.6850393700787402
          },
          {
            "duration": 0.15789450000000116,
            "durationTicks": 96,
            "midi": 46,
            "name": "A#2",
            "ticks": 18624,
            "time": 30.631532999999997,
            "velocity": 0.6850393700787402
          },
          {
            "duration": 0.15789450000000116,
            "durationTicks": 96,
            "midi": 38,
            "name": "D2",
            "ticks": 18720,
            "time": 30.7894275,
            "velocity": 0.6850393700787402
          },
          {
            "duration": 0.1578944999999976,
            "durationTicks": 96,
            "midi": 46,
            "name": "A#2",
            "ticks": 18816,
            "time": 30.947322,
            "velocity": 0.6850393700787402
          },
          {
            "duration": 0.1578944999999976,
            "durationTicks": 96,
            "midi": 35,
            "name": "B1",
            "ticks": 18816,
            "time": 30.947322,
            "velocity": 0.6850393700787402
          },
          {
            "duration": 0.15789450000000116,
            "durationTicks": 96,
            "midi": 38,
            "name": "D2",
            "ticks": 18912,
            "time": 31.105216499999997,
            "velocity": 0.6850393700787402
          },
          {
            "duration": 0.15789450000000116,
            "durationTicks": 96,
            "midi": 46,
            "name": "A#2",
            "ticks": 19008,
            "time": 31.263111,
            "velocity": 0.6850393700787402
          },
          {
            "duration": 0.0789472499999988,
            "durationTicks": 48,
            "midi": 35,
            "name": "B1",
            "ticks": 19008,
            "time": 31.263111,
            "velocity": 0.6850393700787402
          },
          {
            "duration": 0.07894725000000236,
            "durationTicks": 48,
            "midi": 35,
            "name": "B1",
            "ticks": 19056,
            "time": 31.342058249999997,
            "velocity": 0.6850393700787402
          },
          {
            "duration": 0.1578944999999976,
            "durationTicks": 96,
            "midi": 38,
            "name": "D2",
            "ticks": 19104,
            "time": 31.4210055,
            "velocity": 0.6850393700787402
          },
          {
            "duration": 0.15789450000000116,
            "durationTicks": 96,
            "midi": 46,
            "name": "A#2",
            "ticks": 19200,
            "time": 31.578899999999997,
            "velocity": 0.6850393700787402
          },
          {
            "duration": 0.15789450000000116,
            "durationTicks": 96,
            "midi": 35,
            "name": "B1",
            "ticks": 19200,
            "time": 31.578899999999997,
            "velocity": 0.6850393700787402
          },
          {
            "duration": 0.15789450000000116,
            "durationTicks": 96,
            "midi": 38,
            "name": "D2",
            "ticks": 19296,
            "time": 31.7367945,
            "velocity": 0.6850393700787402
          },
          {
            "duration": 0.1578944999999976,
            "durationTicks": 96,
            "midi": 46,
            "name": "A#2",
            "ticks": 19392,
            "time": 31.894689,
            "velocity": 0.6850393700787402
          },
          {
            "duration": 0.0789472499999988,
            "durationTicks": 48,
            "midi": 35,
            "name": "B1",
            "ticks": 19392,
            "time": 31.894689,
            "velocity": 0.6850393700787402
          },
          {
            "duration": 0.1578945000000047,
            "durationTicks": 96,
            "midi": 38,
            "name": "D2",
            "ticks": 19488,
            "time": 32.0525835,
            "velocity": 0.6850393700787402
          },
          {
            "duration": 0.1578944999999976,
            "durationTicks": 96,
            "midi": 46,
            "name": "A#2",
            "ticks": 19584,
            "time": 32.210478,
            "velocity": 0.6850393700787402
          },
          {
            "duration": 0.1578944999999976,
            "durationTicks": 96,
            "midi": 35,
            "name": "B1",
            "ticks": 19584,
            "time": 32.210478,
            "velocity": 0.6850393700787402
          },
          {
            "duration": 0.1578944999999976,
            "durationTicks": 96,
            "midi": 38,
            "name": "D2",
            "ticks": 19680,
            "time": 32.3683725,
            "velocity": 0.6850393700787402
          },
          {
            "duration": 0.0789472499999988,
            "durationTicks": 48,
            "midi": 35,
            "name": "B1",
            "ticks": 19776,
            "time": 32.526267,
            "velocity": 0.6850393700787402
          },
          {
            "duration": 0.1578945000000047,
            "durationTicks": 96,
            "midi": 46,
            "name": "A#2",
            "ticks": 19776,
            "time": 32.526267,
            "velocity": 0.6850393700787402
          },
          {
            "duration": 0.07894725000000591,
            "durationTicks": 48,
            "midi": 35,
            "name": "B1",
            "ticks": 19824,
            "time": 32.605214249999996,
            "velocity": 0.6850393700787402
          },
          {
            "duration": 0.1578944999999976,
            "durationTicks": 96,
            "midi": 38,
            "name": "D2",
            "ticks": 19872,
            "time": 32.6841615,
            "velocity": 0.6850393700787402
          },
          {
            "duration": 0.1578944999999976,
            "durationTicks": 96,
            "midi": 52,
            "name": "E3",
            "ticks": 19968,
            "time": 32.842056,
            "velocity": 0.6850393700787402
          },
          {
            "duration": 0.1578944999999976,
            "durationTicks": 96,
            "midi": 46,
            "name": "A#2",
            "ticks": 19968,
            "time": 32.842056,
            "velocity": 0.6850393700787402
          },
          {
            "duration": 0.1578944999999976,
            "durationTicks": 96,
            "midi": 49,
            "name": "C#3",
            "ticks": 19968,
            "time": 32.842056,
            "velocity": 0.6850393700787402
          },
          {
            "duration": 0.1578944999999976,
            "durationTicks": 96,
            "midi": 49,
            "name": "C#3",
            "ticks": 19968,
            "time": 32.842056,
            "velocity": 0.6850393700787402
          },
          {
            "duration": 0.1578944999999976,
            "durationTicks": 96,
            "midi": 35,
            "name": "B1",
            "ticks": 19968,
            "time": 32.842056,
            "velocity": 0.6850393700787402
          },
          {
            "duration": 0.1578945000000047,
            "durationTicks": 96,
            "midi": 38,
            "name": "D2",
            "ticks": 20064,
            "time": 32.9999505,
            "velocity": 0.6850393700787402
          },
          {
            "duration": 0.0789472499999988,
            "durationTicks": 48,
            "midi": 35,
            "name": "B1",
            "ticks": 20160,
            "time": 33.157845,
            "velocity": 0.6850393700787402
          },
          {
            "duration": 0.1578944999999976,
            "durationTicks": 96,
            "midi": 46,
            "name": "A#2",
            "ticks": 20160,
            "time": 33.157845,
            "velocity": 0.6850393700787402
          },
          {
            "duration": 0.1578944999999976,
            "durationTicks": 96,
            "midi": 38,
            "name": "D2",
            "ticks": 20256,
            "time": 33.3157395,
            "velocity": 0.6850393700787402
          },
          {
            "duration": 0.1578945000000047,
            "durationTicks": 96,
            "midi": 46,
            "name": "A#2",
            "ticks": 20352,
            "time": 33.473634,
            "velocity": 0.6850393700787402
          },
          {
            "duration": 0.1578945000000047,
            "durationTicks": 96,
            "midi": 35,
            "name": "B1",
            "ticks": 20352,
            "time": 33.473634,
            "velocity": 0.6850393700787402
          },
          {
            "duration": 0.1578944999999976,
            "durationTicks": 96,
            "midi": 38,
            "name": "D2",
            "ticks": 20448,
            "time": 33.6315285,
            "velocity": 0.6850393700787402
          },
          {
            "duration": 0.1578944999999976,
            "durationTicks": 96,
            "midi": 46,
            "name": "A#2",
            "ticks": 20544,
            "time": 33.789423,
            "velocity": 0.6850393700787402
          },
          {
            "duration": 0.0789472499999988,
            "durationTicks": 48,
            "midi": 35,
            "name": "B1",
            "ticks": 20544,
            "time": 33.789423,
            "velocity": 0.6850393700787402
          },
          {
            "duration": 0.0789472499999988,
            "durationTicks": 48,
            "midi": 35,
            "name": "B1",
            "ticks": 20592,
            "time": 33.86837025,
            "velocity": 0.6850393700787402
          },
          {
            "duration": 0.1578945000000047,
            "durationTicks": 96,
            "midi": 38,
            "name": "D2",
            "ticks": 20640,
            "time": 33.9473175,
            "velocity": 0.6850393700787402
          },
          {
            "duration": 0.1578944999999976,
            "durationTicks": 96,
            "midi": 35,
            "name": "B1",
            "ticks": 20736,
            "time": 34.105212,
            "velocity": 0.6850393700787402
          },
          {
            "duration": 0.1578944999999976,
            "durationTicks": 96,
            "midi": 46,
            "name": "A#2",
            "ticks": 20736,
            "time": 34.105212,
            "velocity": 0.6850393700787402
          },
          {
            "duration": 0.1578944999999976,
            "durationTicks": 96,
            "midi": 38,
            "name": "D2",
            "ticks": 20832,
            "time": 34.2631065,
            "velocity": 0.6850393700787402
          },
          {
            "duration": 0.1578945000000047,
            "durationTicks": 96,
            "midi": 46,
            "name": "A#2",
            "ticks": 20928,
            "time": 34.421001,
            "velocity": 0.6850393700787402
          },
          {
            "duration": 0.0789472499999988,
            "durationTicks": 48,
            "midi": 35,
            "name": "B1",
            "ticks": 20928,
            "time": 34.421001,
            "velocity": 0.6850393700787402
          },
          {
            "duration": 0.1578944999999976,
            "durationTicks": 96,
            "midi": 38,
            "name": "D2",
            "ticks": 21024,
            "time": 34.5788955,
            "velocity": 0.6850393700787402
          },
          {
            "duration": 0.1578944999999976,
            "durationTicks": 96,
            "midi": 35,
            "name": "B1",
            "ticks": 21120,
            "time": 34.73679,
            "velocity": 0.6850393700787402
          },
          {
            "duration": 0.1578944999999976,
            "durationTicks": 96,
            "midi": 46,
            "name": "A#2",
            "ticks": 21120,
            "time": 34.73679,
            "velocity": 0.6850393700787402
          },
          {
            "duration": 0.1578945000000047,
            "durationTicks": 96,
            "midi": 38,
            "name": "D2",
            "ticks": 21216,
            "time": 34.8946845,
            "velocity": 0.6850393700787402
          },
          {
            "duration": 0.1578944999999976,
            "durationTicks": 96,
            "midi": 46,
            "name": "A#2",
            "ticks": 21312,
            "time": 35.052579,
            "velocity": 0.6850393700787402
          },
          {
            "duration": 0.0789472499999988,
            "durationTicks": 48,
            "midi": 35,
            "name": "B1",
            "ticks": 21312,
            "time": 35.052579,
            "velocity": 0.6850393700787402
          },
          {
            "duration": 0.0789472499999988,
            "durationTicks": 48,
            "midi": 35,
            "name": "B1",
            "ticks": 21360,
            "time": 35.13152625,
            "velocity": 0.6850393700787402
          },
          {
            "duration": 0.1578944999999976,
            "durationTicks": 96,
            "midi": 38,
            "name": "D2",
            "ticks": 21408,
            "time": 35.2104735,
            "velocity": 0.6850393700787402
          },
          {
            "duration": 0.1578945000000047,
            "durationTicks": 96,
            "midi": 49,
            "name": "C#3",
            "ticks": 21504,
            "time": 35.368368,
            "velocity": 0.6850393700787402
          },
          {
            "duration": 0.1578945000000047,
            "durationTicks": 96,
            "midi": 49,
            "name": "C#3",
            "ticks": 21504,
            "time": 35.368368,
            "velocity": 0.6850393700787402
          },
          {
            "duration": 0.1578945000000047,
            "durationTicks": 96,
            "midi": 46,
            "name": "A#2",
            "ticks": 21504,
            "time": 35.368368,
            "velocity": 0.6850393700787402
          },
          {
            "duration": 0.1578945000000047,
            "durationTicks": 96,
            "midi": 35,
            "name": "B1",
            "ticks": 21504,
            "time": 35.368368,
            "velocity": 0.6850393700787402
          },
          {
            "duration": 0.1578945000000047,
            "durationTicks": 96,
            "midi": 52,
            "name": "E3",
            "ticks": 21504,
            "time": 35.368368,
            "velocity": 0.6850393700787402
          },
          {
            "duration": 0.1578944999999976,
            "durationTicks": 96,
            "midi": 38,
            "name": "D2",
            "ticks": 21600,
            "time": 35.5262625,
            "velocity": 0.6850393700787402
          },
          {
            "duration": 0.1578944999999976,
            "durationTicks": 96,
            "midi": 46,
            "name": "A#2",
            "ticks": 21696,
            "time": 35.684157,
            "velocity": 0.6850393700787402
          },
          {
            "duration": 0.0789472499999988,
            "durationTicks": 48,
            "midi": 35,
            "name": "B1",
            "ticks": 21696,
            "time": 35.684157,
            "velocity": 0.6850393700787402
          },
          {
            "duration": 0.1578945000000047,
            "durationTicks": 96,
            "midi": 38,
            "name": "D2",
            "ticks": 21792,
            "time": 35.8420515,
            "velocity": 0.6850393700787402
          },
          {
            "duration": 0.1578944999999976,
            "durationTicks": 96,
            "midi": 46,
            "name": "A#2",
            "ticks": 21888,
            "time": 35.999946,
            "velocity": 0.6850393700787402
          },
          {
            "duration": 0.1578944999999976,
            "durationTicks": 96,
            "midi": 35,
            "name": "B1",
            "ticks": 21888,
            "time": 35.999946,
            "velocity": 0.6850393700787402
          },
          {
            "duration": 0.1578944999999976,
            "durationTicks": 96,
            "midi": 38,
            "name": "D2",
            "ticks": 21984,
            "time": 36.1578405,
            "velocity": 0.6850393700787402
          },
          {
            "duration": 0.0789472499999988,
            "durationTicks": 48,
            "midi": 35,
            "name": "B1",
            "ticks": 22080,
            "time": 36.315735,
            "velocity": 0.6850393700787402
          },
          {
            "duration": 0.1578945000000047,
            "durationTicks": 96,
            "midi": 46,
            "name": "A#2",
            "ticks": 22080,
            "time": 36.315735,
            "velocity": 0.6850393700787402
          },
          {
            "duration": 0.07894725000000591,
            "durationTicks": 48,
            "midi": 35,
            "name": "B1",
            "ticks": 22128,
            "time": 36.394682249999995,
            "velocity": 0.6850393700787402
          },
          {
            "duration": 0.1578944999999976,
            "durationTicks": 96,
            "midi": 38,
            "name": "D2",
            "ticks": 22176,
            "time": 36.4736295,
            "velocity": 0.6850393700787402
          },
          {
            "duration": 0.1578944999999976,
            "durationTicks": 96,
            "midi": 35,
            "name": "B1",
            "ticks": 22272,
            "time": 36.631524,
            "velocity": 0.6850393700787402
          },
          {
            "duration": 0.1578944999999976,
            "durationTicks": 96,
            "midi": 46,
            "name": "A#2",
            "ticks": 22272,
            "time": 36.631524,
            "velocity": 0.6850393700787402
          },
          {
            "duration": 0.1578945000000047,
            "durationTicks": 96,
            "midi": 38,
            "name": "D2",
            "ticks": 22368,
            "time": 36.7894185,
            "velocity": 0.6850393700787402
          },
          {
            "duration": 0.0789472499999988,
            "durationTicks": 48,
            "midi": 35,
            "name": "B1",
            "ticks": 22464,
            "time": 36.947313,
            "velocity": 0.6850393700787402
          },
          {
            "duration": 0.1578944999999976,
            "durationTicks": 96,
            "midi": 46,
            "name": "A#2",
            "ticks": 22464,
            "time": 36.947313,
            "velocity": 0.6850393700787402
          },
          {
            "duration": 0.1578944999999976,
            "durationTicks": 96,
            "midi": 38,
            "name": "D2",
            "ticks": 22560,
            "time": 37.1052075,
            "velocity": 0.6850393700787402
          },
          {
            "duration": 0.1578945000000047,
            "durationTicks": 96,
            "midi": 35,
            "name": "B1",
            "ticks": 22656,
            "time": 37.263101999999996,
            "velocity": 0.6850393700787402
          },
          {
            "duration": 0.1578945000000047,
            "durationTicks": 96,
            "midi": 46,
            "name": "A#2",
            "ticks": 22656,
            "time": 37.263101999999996,
            "velocity": 0.6850393700787402
          },
          {
            "duration": 0.1578944999999976,
            "durationTicks": 96,
            "midi": 38,
            "name": "D2",
            "ticks": 22752,
            "time": 37.4209965,
            "velocity": 0.6850393700787402
          },
          {
            "duration": 0.1578944999999976,
            "durationTicks": 96,
            "midi": 46,
            "name": "A#2",
            "ticks": 22848,
            "time": 37.578891,
            "velocity": 0.6850393700787402
          },
          {
            "duration": 0.0789472499999988,
            "durationTicks": 48,
            "midi": 35,
            "name": "B1",
            "ticks": 22848,
            "time": 37.578891,
            "velocity": 0.6850393700787402
          },
          {
            "duration": 0.0789472499999988,
            "durationTicks": 48,
            "midi": 35,
            "name": "B1",
            "ticks": 22896,
            "time": 37.65783825,
            "velocity": 0.6850393700787402
          },
          {
            "duration": 0.1578945000000047,
            "durationTicks": 96,
            "midi": 38,
            "name": "D2",
            "ticks": 22944,
            "time": 37.736785499999996,
            "velocity": 0.6850393700787402
          },
          {
            "duration": 0.1578944999999976,
            "durationTicks": 96,
            "midi": 52,
            "name": "E3",
            "ticks": 23040,
            "time": 37.89468,
            "velocity": 0.6850393700787402
          },
          {
            "duration": 0.1578944999999976,
            "durationTicks": 96,
            "midi": 46,
            "name": "A#2",
            "ticks": 23040,
            "time": 37.89468,
            "velocity": 0.6850393700787402
          },
          {
            "duration": 0.1578944999999976,
            "durationTicks": 96,
            "midi": 35,
            "name": "B1",
            "ticks": 23040,
            "time": 37.89468,
            "velocity": 0.6850393700787402
          },
          {
            "duration": 0.1578944999999976,
            "durationTicks": 96,
            "midi": 49,
            "name": "C#3",
            "ticks": 23040,
            "time": 37.89468,
            "velocity": 0.6850393700787402
          },
          {
            "duration": 0.1578944999999976,
            "durationTicks": 96,
            "midi": 49,
            "name": "C#3",
            "ticks": 23040,
            "time": 37.89468,
            "velocity": 0.6850393700787402
          },
          {
            "duration": 0.1578944999999976,
            "durationTicks": 96,
            "midi": 38,
            "name": "D2",
            "ticks": 23136,
            "time": 38.0525745,
            "velocity": 0.6850393700787402
          },
          {
            "duration": 0.1578945000000047,
            "durationTicks": 96,
            "midi": 46,
            "name": "A#2",
            "ticks": 23232,
            "time": 38.210468999999996,
            "velocity": 0.6850393700787402
          },
          {
            "duration": 0.0789472499999988,
            "durationTicks": 48,
            "midi": 35,
            "name": "B1",
            "ticks": 23232,
            "time": 38.210468999999996,
            "velocity": 0.6850393700787402
          },
          {
            "duration": 0.1578944999999976,
            "durationTicks": 96,
            "midi": 38,
            "name": "D2",
            "ticks": 23328,
            "time": 38.3683635,
            "velocity": 0.6850393700787402
          },
          {
            "duration": 0.1578944999999976,
            "durationTicks": 96,
            "midi": 35,
            "name": "B1",
            "ticks": 23424,
            "time": 38.526258,
            "velocity": 0.6850393700787402
          },
          {
            "duration": 0.1578944999999976,
            "durationTicks": 96,
            "midi": 46,
            "name": "A#2",
            "ticks": 23424,
            "time": 38.526258,
            "velocity": 0.6850393700787402
          },
          {
            "duration": 0.1578945000000047,
            "durationTicks": 96,
            "midi": 38,
            "name": "D2",
            "ticks": 23520,
            "time": 38.684152499999996,
            "velocity": 0.6850393700787402
          },
          {
            "duration": 0.1578944999999976,
            "durationTicks": 96,
            "midi": 46,
            "name": "A#2",
            "ticks": 23616,
            "time": 38.842047,
            "velocity": 0.6850393700787402
          },
          {
            "duration": 0.0789472499999988,
            "durationTicks": 48,
            "midi": 35,
            "name": "B1",
            "ticks": 23616,
            "time": 38.842047,
            "velocity": 0.6850393700787402
          },
          {
            "duration": 0.0789472499999988,
            "durationTicks": 48,
            "midi": 35,
            "name": "B1",
            "ticks": 23664,
            "time": 38.92099425,
            "velocity": 0.6850393700787402
          },
          {
            "duration": 0.1578944999999976,
            "durationTicks": 96,
            "midi": 38,
            "name": "D2",
            "ticks": 23712,
            "time": 38.9999415,
            "velocity": 0.6850393700787402
          },
          {
            "duration": 0.1578945000000047,
            "durationTicks": 96,
            "midi": 46,
            "name": "A#2",
            "ticks": 23808,
            "time": 39.157835999999996,
            "velocity": 0.6850393700787402
          },
          {
            "duration": 0.1578945000000047,
            "durationTicks": 96,
            "midi": 35,
            "name": "B1",
            "ticks": 23808,
            "time": 39.157835999999996,
            "velocity": 0.6850393700787402
          },
          {
            "duration": 0.1578944999999976,
            "durationTicks": 96,
            "midi": 38,
            "name": "D2",
            "ticks": 23904,
            "time": 39.3157305,
            "velocity": 0.6850393700787402
          },
          {
            "duration": 0.0789472499999988,
            "durationTicks": 48,
            "midi": 35,
            "name": "B1",
            "ticks": 24000,
            "time": 39.473625,
            "velocity": 0.6850393700787402
          },
          {
            "duration": 0.1578944999999976,
            "durationTicks": 96,
            "midi": 46,
            "name": "A#2",
            "ticks": 24000,
            "time": 39.473625,
            "velocity": 0.6850393700787402
          },
          {
            "duration": 0.1578945000000047,
            "durationTicks": 96,
            "midi": 38,
            "name": "D2",
            "ticks": 24096,
            "time": 39.631519499999996,
            "velocity": 0.6850393700787402
          },
          {
            "duration": 0.1578944999999976,
            "durationTicks": 96,
            "midi": 35,
            "name": "B1",
            "ticks": 24192,
            "time": 39.789414,
            "velocity": 0.6850393700787402
          },
          {
            "duration": 0.1578944999999976,
            "durationTicks": 96,
            "midi": 46,
            "name": "A#2",
            "ticks": 24192,
            "time": 39.789414,
            "velocity": 0.6850393700787402
          },
          {
            "duration": 0.1578944999999976,
            "durationTicks": 96,
            "midi": 38,
            "name": "D2",
            "ticks": 24288,
            "time": 39.9473085,
            "velocity": 0.6850393700787402
          },
          {
            "duration": 0.1578945000000047,
            "durationTicks": 96,
            "midi": 46,
            "name": "A#2",
            "ticks": 24384,
            "time": 40.105202999999996,
            "velocity": 0.6850393700787402
          },
          {
            "duration": 0.0789472499999988,
            "durationTicks": 48,
            "midi": 35,
            "name": "B1",
            "ticks": 24384,
            "time": 40.105202999999996,
            "velocity": 0.6850393700787402
          },
          {
            "duration": 0.07894725000000591,
            "durationTicks": 48,
            "midi": 35,
            "name": "B1",
            "ticks": 24432,
            "time": 40.184150249999995,
            "velocity": 0.6850393700787402
          },
          {
            "duration": 0.1578944999999976,
            "durationTicks": 96,
            "midi": 38,
            "name": "D2",
            "ticks": 24480,
            "time": 40.2630975,
            "velocity": 0.6850393700787402
          },
          {
            "duration": 0.1578944999999976,
            "durationTicks": 96,
            "midi": 46,
            "name": "A#2",
            "ticks": 24576,
            "time": 40.420992,
            "velocity": 0.6850393700787402
          },
          {
            "duration": 0.1578944999999976,
            "durationTicks": 96,
            "midi": 49,
            "name": "C#3",
            "ticks": 24576,
            "time": 40.420992,
            "velocity": 0.6850393700787402
          },
          {
            "duration": 0.1578944999999976,
            "durationTicks": 96,
            "midi": 35,
            "name": "B1",
            "ticks": 24576,
            "time": 40.420992,
            "velocity": 0.6850393700787402
          },
          {
            "duration": 0.1578944999999976,
            "durationTicks": 96,
            "midi": 52,
            "name": "E3",
            "ticks": 24576,
            "time": 40.420992,
            "velocity": 0.6850393700787402
          },
          {
            "duration": 0.1578944999999976,
            "durationTicks": 96,
            "midi": 49,
            "name": "C#3",
            "ticks": 24576,
            "time": 40.420992,
            "velocity": 0.6850393700787402
          },
          {
            "duration": 0.1578945000000047,
            "durationTicks": 96,
            "midi": 38,
            "name": "D2",
            "ticks": 24672,
            "time": 40.578886499999996,
            "velocity": 0.6850393700787402
          },
          {
            "duration": 0.0789472499999988,
            "durationTicks": 48,
            "midi": 35,
            "name": "B1",
            "ticks": 24768,
            "time": 40.736781,
            "velocity": 0.6850393700787402
          },
          {
            "duration": 0.1578944999999976,
            "durationTicks": 96,
            "midi": 46,
            "name": "A#2",
            "ticks": 24768,
            "time": 40.736781,
            "velocity": 0.6850393700787402
          },
          {
            "duration": 0.1578944999999976,
            "durationTicks": 96,
            "midi": 38,
            "name": "D2",
            "ticks": 24864,
            "time": 40.8946755,
            "velocity": 0.6850393700787402
          },
          {
            "duration": 0.1578945000000047,
            "durationTicks": 96,
            "midi": 35,
            "name": "B1",
            "ticks": 24960,
            "time": 41.052569999999996,
            "velocity": 0.6850393700787402
          },
          {
            "duration": 0.1578945000000047,
            "durationTicks": 96,
            "midi": 46,
            "name": "A#2",
            "ticks": 24960,
            "time": 41.052569999999996,
            "velocity": 0.6850393700787402
          },
          {
            "duration": 0.1578944999999976,
            "durationTicks": 96,
            "midi": 38,
            "name": "D2",
            "ticks": 25056,
            "time": 41.2104645,
            "velocity": 0.6850393700787402
          },
          {
            "duration": 0.0789472499999988,
            "durationTicks": 48,
            "midi": 35,
            "name": "B1",
            "ticks": 25152,
            "time": 41.368359,
            "velocity": 0.6850393700787402
          },
          {
            "duration": 0.1578944999999976,
            "durationTicks": 96,
            "midi": 46,
            "name": "A#2",
            "ticks": 25152,
            "time": 41.368359,
            "velocity": 0.6850393700787402
          },
          {
            "duration": 0.0789472499999988,
            "durationTicks": 48,
            "midi": 35,
            "name": "B1",
            "ticks": 25200,
            "time": 41.44730625,
            "velocity": 0.6850393700787402
          },
          {
            "duration": 0.1578945000000047,
            "durationTicks": 96,
            "midi": 38,
            "name": "D2",
            "ticks": 25248,
            "time": 41.526253499999996,
            "velocity": 0.6850393700787402
          },
          {
            "duration": 0.1578944999999976,
            "durationTicks": 96,
            "midi": 46,
            "name": "A#2",
            "ticks": 25344,
            "time": 41.684148,
            "velocity": 0.6850393700787402
          },
          {
            "duration": 0.1578944999999976,
            "durationTicks": 96,
            "midi": 35,
            "name": "B1",
            "ticks": 25344,
            "time": 41.684148,
            "velocity": 0.6850393700787402
          },
          {
            "duration": 0.1578944999999976,
            "durationTicks": 96,
            "midi": 38,
            "name": "D2",
            "ticks": 25440,
            "time": 41.8420425,
            "velocity": 0.6850393700787402
          },
          {
            "duration": 0.1578945000000047,
            "durationTicks": 96,
            "midi": 46,
            "name": "A#2",
            "ticks": 25536,
            "time": 41.999936999999996,
            "velocity": 0.6850393700787402
          },
          {
            "duration": 0.07894725000000591,
            "durationTicks": 48,
            "midi": 35,
            "name": "B1",
            "ticks": 25536,
            "time": 41.999936999999996,
            "velocity": 0.6850393700787402
          },
          {
            "duration": 0.1578944999999976,
            "durationTicks": 96,
            "midi": 38,
            "name": "D2",
            "ticks": 25632,
            "time": 42.1578315,
            "velocity": 0.6850393700787402
          },
          {
            "duration": 0.1578944999999976,
            "durationTicks": 96,
            "midi": 35,
            "name": "B1",
            "ticks": 25728,
            "time": 42.315726,
            "velocity": 0.6850393700787402
          },
          {
            "duration": 0.1578944999999976,
            "durationTicks": 96,
            "midi": 46,
            "name": "A#2",
            "ticks": 25728,
            "time": 42.315726,
            "velocity": 0.6850393700787402
          },
          {
            "duration": 0.1578945000000047,
            "durationTicks": 96,
            "midi": 38,
            "name": "D2",
            "ticks": 25824,
            "time": 42.473620499999996,
            "velocity": 0.6850393700787402
          },
          {
            "duration": 0.1578944999999976,
            "durationTicks": 96,
            "midi": 46,
            "name": "A#2",
            "ticks": 25920,
            "time": 42.631515,
            "velocity": 0.6850393700787402
          },
          {
            "duration": 0.0789472499999988,
            "durationTicks": 48,
            "midi": 35,
            "name": "B1",
            "ticks": 25920,
            "time": 42.631515,
            "velocity": 0.6850393700787402
          },
          {
            "duration": 0.0789472499999988,
            "durationTicks": 48,
            "midi": 35,
            "name": "B1",
            "ticks": 25968,
            "time": 42.71046225,
            "velocity": 0.6850393700787402
          },
          {
            "duration": 0.1578944999999976,
            "durationTicks": 96,
            "midi": 38,
            "name": "D2",
            "ticks": 26016,
            "time": 42.7894095,
            "velocity": 0.6850393700787402
          },
          {
            "duration": 0.1578945000000047,
            "durationTicks": 96,
            "midi": 46,
            "name": "A#2",
            "ticks": 26112,
            "time": 42.947303999999995,
            "velocity": 0.6850393700787402
          },
          {
            "duration": 0.1578945000000047,
            "durationTicks": 96,
            "midi": 52,
            "name": "E3",
            "ticks": 26112,
            "time": 42.947303999999995,
            "velocity": 0.6850393700787402
          },
          {
            "duration": 0.1578945000000047,
            "durationTicks": 96,
            "midi": 49,
            "name": "C#3",
            "ticks": 26112,
            "time": 42.947303999999995,
            "velocity": 0.6850393700787402
          },
          {
            "duration": 0.1578945000000047,
            "durationTicks": 96,
            "midi": 49,
            "name": "C#3",
            "ticks": 26112,
            "time": 42.947303999999995,
            "velocity": 0.6850393700787402
          },
          {
            "duration": 0.1578945000000047,
            "durationTicks": 96,
            "midi": 35,
            "name": "B1",
            "ticks": 26112,
            "time": 42.947303999999995,
            "velocity": 0.6850393700787402
          },
          {
            "duration": 0.1578944999999976,
            "durationTicks": 96,
            "midi": 38,
            "name": "D2",
            "ticks": 26208,
            "time": 43.1051985,
            "velocity": 0.6850393700787402
          },
          {
            "duration": 0.0789472499999988,
            "durationTicks": 48,
            "midi": 35,
            "name": "B1",
            "ticks": 26304,
            "time": 43.263093,
            "velocity": 0.6850393700787402
          },
          {
            "duration": 0.1578944999999976,
            "durationTicks": 96,
            "midi": 46,
            "name": "A#2",
            "ticks": 26304,
            "time": 43.263093,
            "velocity": 0.6850393700787402
          },
          {
            "duration": 0.1578945000000047,
            "durationTicks": 96,
            "midi": 38,
            "name": "D2",
            "ticks": 26400,
            "time": 43.420987499999995,
            "velocity": 0.6850393700787402
          },
          {
            "duration": 0.1578944999999976,
            "durationTicks": 96,
            "midi": 46,
            "name": "A#2",
            "ticks": 26496,
            "time": 43.578882,
            "velocity": 0.6850393700787402
          },
          {
            "duration": 0.1578944999999976,
            "durationTicks": 96,
            "midi": 35,
            "name": "B1",
            "ticks": 26496,
            "time": 43.578882,
            "velocity": 0.6850393700787402
          },
          {
            "duration": 0.1578944999999976,
            "durationTicks": 96,
            "midi": 38,
            "name": "D2",
            "ticks": 26592,
            "time": 43.7367765,
            "velocity": 0.6850393700787402
          },
          {
            "duration": 0.1578945000000047,
            "durationTicks": 96,
            "midi": 46,
            "name": "A#2",
            "ticks": 26688,
            "time": 43.894670999999995,
            "velocity": 0.6850393700787402
          },
          {
            "duration": 0.07894725000000591,
            "durationTicks": 48,
            "midi": 35,
            "name": "B1",
            "ticks": 26688,
            "time": 43.894670999999995,
            "velocity": 0.6850393700787402
          },
          {
            "duration": 0.0789472499999988,
            "durationTicks": 48,
            "midi": 35,
            "name": "B1",
            "ticks": 26736,
            "time": 43.97361825,
            "velocity": 0.6850393700787402
          },
          {
            "duration": 0.1578944999999976,
            "durationTicks": 96,
            "midi": 38,
            "name": "D2",
            "ticks": 26784,
            "time": 44.0525655,
            "velocity": 0.6850393700787402
          },
          {
            "duration": 0.1578944999999976,
            "durationTicks": 96,
            "midi": 35,
            "name": "B1",
            "ticks": 26880,
            "time": 44.21046,
            "velocity": 0.6850393700787402
          },
          {
            "duration": 0.1578944999999976,
            "durationTicks": 96,
            "midi": 46,
            "name": "A#2",
            "ticks": 26880,
            "time": 44.21046,
            "velocity": 0.6850393700787402
          },
          {
            "duration": 0.1578945000000047,
            "durationTicks": 96,
            "midi": 38,
            "name": "D2",
            "ticks": 26976,
            "time": 44.368354499999995,
            "velocity": 0.6850393700787402
          },
          {
            "duration": 0.0789472499999988,
            "durationTicks": 48,
            "midi": 35,
            "name": "B1",
            "ticks": 27072,
            "time": 44.526249,
            "velocity": 0.6850393700787402
          },
          {
            "duration": 0.1578944999999976,
            "durationTicks": 96,
            "midi": 46,
            "name": "A#2",
            "ticks": 27072,
            "time": 44.526249,
            "velocity": 0.6850393700787402
          },
          {
            "duration": 0.1578944999999976,
            "durationTicks": 96,
            "midi": 38,
            "name": "D2",
            "ticks": 27168,
            "time": 44.6841435,
            "velocity": 0.6850393700787402
          },
          {
            "duration": 0.1578945000000047,
            "durationTicks": 96,
            "midi": 35,
            "name": "B1",
            "ticks": 27264,
            "time": 44.842037999999995,
            "velocity": 0.6850393700787402
          },
          {
            "duration": 0.1578945000000047,
            "durationTicks": 96,
            "midi": 46,
            "name": "A#2",
            "ticks": 27264,
            "time": 44.842037999999995,
            "velocity": 0.6850393700787402
          },
          {
            "duration": 0.1578944999999976,
            "durationTicks": 96,
            "midi": 38,
            "name": "D2",
            "ticks": 27360,
            "time": 44.9999325,
            "velocity": 0.6850393700787402
          },
          {
            "duration": 0.1578944999999976,
            "durationTicks": 96,
            "midi": 46,
            "name": "A#2",
            "ticks": 27456,
            "time": 45.157827,
            "velocity": 0.6850393700787402
          },
          {
            "duration": 0.0789472499999988,
            "durationTicks": 48,
            "midi": 35,
            "name": "B1",
            "ticks": 27456,
            "time": 45.157827,
            "velocity": 0.6850393700787402
          },
          {
            "duration": 0.0789472499999988,
            "durationTicks": 48,
            "midi": 35,
            "name": "B1",
            "ticks": 27504,
            "time": 45.236774249999996,
            "velocity": 0.6850393700787402
          },
          {
            "duration": 0.1578945000000047,
            "durationTicks": 96,
            "midi": 38,
            "name": "D2",
            "ticks": 27552,
            "time": 45.315721499999995,
            "velocity": 0.6850393700787402
          },
          {
            "duration": 0.1578944999999976,
            "durationTicks": 96,
            "midi": 35,
            "name": "B1",
            "ticks": 27648,
            "time": 45.473616,
            "velocity": 0.6850393700787402
          },
          {
            "duration": 0.1578944999999976,
            "durationTicks": 96,
            "midi": 46,
            "name": "A#2",
            "ticks": 27648,
            "time": 45.473616,
            "velocity": 0.6850393700787402
          },
          {
            "duration": 0.1578944999999976,
            "durationTicks": 96,
            "midi": 49,
            "name": "C#3",
            "ticks": 27648,
            "time": 45.473616,
            "velocity": 0.6850393700787402
          },
          {
            "duration": 0.1578944999999976,
            "durationTicks": 96,
            "midi": 52,
            "name": "E3",
            "ticks": 27648,
            "time": 45.473616,
            "velocity": 0.6850393700787402
          },
          {
            "duration": 0.1578944999999976,
            "durationTicks": 96,
            "midi": 49,
            "name": "C#3",
            "ticks": 27648,
            "time": 45.473616,
            "velocity": 0.6850393700787402
          },
          {
            "duration": 0.1578944999999976,
            "durationTicks": 96,
            "midi": 38,
            "name": "D2",
            "ticks": 27744,
            "time": 45.6315105,
            "velocity": 0.6850393700787402
          },
          {
            "duration": 0.07894725000000591,
            "durationTicks": 48,
            "midi": 35,
            "name": "B1",
            "ticks": 27840,
            "time": 45.789404999999995,
            "velocity": 0.6850393700787402
          },
          {
            "duration": 0.1578945000000047,
            "durationTicks": 96,
            "midi": 46,
            "name": "A#2",
            "ticks": 27840,
            "time": 45.789404999999995,
            "velocity": 0.6850393700787402
          },
          {
            "duration": 0.1578944999999976,
            "durationTicks": 96,
            "midi": 38,
            "name": "D2",
            "ticks": 27936,
            "time": 45.9472995,
            "velocity": 0.6850393700787402
          },
          {
            "duration": 0.1578944999999976,
            "durationTicks": 96,
            "midi": 46,
            "name": "A#2",
            "ticks": 28032,
            "time": 46.105194,
            "velocity": 0.6850393700787402
          },
          {
            "duration": 0.1578944999999976,
            "durationTicks": 96,
            "midi": 35,
            "name": "B1",
            "ticks": 28032,
            "time": 46.105194,
            "velocity": 0.6850393700787402
          },
          {
            "duration": 0.1578945000000047,
            "durationTicks": 96,
            "midi": 38,
            "name": "D2",
            "ticks": 28128,
            "time": 46.263088499999995,
            "velocity": 0.6850393700787402
          },
          {
            "duration": 0.1578944999999976,
            "durationTicks": 96,
            "midi": 46,
            "name": "A#2",
            "ticks": 28224,
            "time": 46.420983,
            "velocity": 0.6850393700787402
          },
          {
            "duration": 0.0789472499999988,
            "durationTicks": 48,
            "midi": 35,
            "name": "B1",
            "ticks": 28224,
            "time": 46.420983,
            "velocity": 0.6850393700787402
          },
          {
            "duration": 0.0789472499999988,
            "durationTicks": 48,
            "midi": 35,
            "name": "B1",
            "ticks": 28272,
            "time": 46.49993025,
            "velocity": 0.6850393700787402
          },
          {
            "duration": 0.1578944999999976,
            "durationTicks": 96,
            "midi": 38,
            "name": "D2",
            "ticks": 28320,
            "time": 46.5788775,
            "velocity": 0.6850393700787402
          },
          {
            "duration": 0.1578945000000047,
            "durationTicks": 96,
            "midi": 46,
            "name": "A#2",
            "ticks": 28416,
            "time": 46.736771999999995,
            "velocity": 0.6850393700787402
          },
          {
            "duration": 0.1578945000000047,
            "durationTicks": 96,
            "midi": 35,
            "name": "B1",
            "ticks": 28416,
            "time": 46.736771999999995,
            "velocity": 0.6850393700787402
          },
          {
            "duration": 0.1578944999999976,
            "durationTicks": 96,
            "midi": 38,
            "name": "D2",
            "ticks": 28512,
            "time": 46.8946665,
            "velocity": 0.6850393700787402
          },
          {
            "duration": 0.1578944999999976,
            "durationTicks": 96,
            "midi": 46,
            "name": "A#2",
            "ticks": 28608,
            "time": 47.052561,
            "velocity": 0.6850393700787402
          },
          {
            "duration": 0.0789472499999988,
            "durationTicks": 48,
            "midi": 35,
            "name": "B1",
            "ticks": 28608,
            "time": 47.052561,
            "velocity": 0.6850393700787402
          },
          {
            "duration": 0.1578945000000047,
            "durationTicks": 96,
            "midi": 38,
            "name": "D2",
            "ticks": 28704,
            "time": 47.210455499999995,
            "velocity": 0.6850393700787402
          },
          {
            "duration": 0.1578944999999976,
            "durationTicks": 96,
            "midi": 35,
            "name": "B1",
            "ticks": 28800,
            "time": 47.36835,
            "velocity": 0.6850393700787402
          },
          {
            "duration": 0.1578944999999976,
            "durationTicks": 96,
            "midi": 46,
            "name": "A#2",
            "ticks": 28800,
            "time": 47.36835,
            "velocity": 0.6850393700787402
          },
          {
            "duration": 0.1578944999999976,
            "durationTicks": 96,
            "midi": 38,
            "name": "D2",
            "ticks": 28896,
            "time": 47.5262445,
            "velocity": 0.6850393700787402
          },
          {
            "duration": 0.1578945000000047,
            "durationTicks": 96,
            "midi": 46,
            "name": "A#2",
            "ticks": 28992,
            "time": 47.684138999999995,
            "velocity": 0.6850393700787402
          },
          {
            "duration": 0.07894725000000591,
            "durationTicks": 48,
            "midi": 35,
            "name": "B1",
            "ticks": 28992,
            "time": 47.684138999999995,
            "velocity": 0.6850393700787402
          },
          {
            "duration": 0.0789472499999988,
            "durationTicks": 48,
            "midi": 35,
            "name": "B1",
            "ticks": 29040,
            "time": 47.76308625,
            "velocity": 0.6850393700787402
          },
          {
            "duration": 0.1578944999999976,
            "durationTicks": 96,
            "midi": 38,
            "name": "D2",
            "ticks": 29088,
            "time": 47.8420335,
            "velocity": 0.6850393700787402
          },
          {
            "duration": 0.1578944999999976,
            "durationTicks": 96,
            "midi": 46,
            "name": "A#2",
            "ticks": 29184,
            "time": 47.999928,
            "velocity": 0.6850393700787402
          },
          {
            "duration": 0.1578944999999976,
            "durationTicks": 96,
            "midi": 52,
            "name": "E3",
            "ticks": 29184,
            "time": 47.999928,
            "velocity": 0.6850393700787402
          },
          {
            "duration": 0.1578944999999976,
            "durationTicks": 96,
            "midi": 49,
            "name": "C#3",
            "ticks": 29184,
            "time": 47.999928,
            "velocity": 0.6850393700787402
          },
          {
            "duration": 0.1578944999999976,
            "durationTicks": 96,
            "midi": 49,
            "name": "C#3",
            "ticks": 29184,
            "time": 47.999928,
            "velocity": 0.6850393700787402
          },
          {
            "duration": 0.1578944999999976,
            "durationTicks": 96,
            "midi": 35,
            "name": "B1",
            "ticks": 29184,
            "time": 47.999928,
            "velocity": 0.6850393700787402
          },
          {
            "duration": 0.1578945000000047,
            "durationTicks": 96,
            "midi": 38,
            "name": "D2",
            "ticks": 29280,
            "time": 48.157822499999995,
            "velocity": 0.6850393700787402
          },
          {
            "duration": 0.1578944999999976,
            "durationTicks": 96,
            "midi": 46,
            "name": "A#2",
            "ticks": 29376,
            "time": 48.315717,
            "velocity": 0.6850393700787402
          },
          {
            "duration": 0.0789472499999988,
            "durationTicks": 48,
            "midi": 35,
            "name": "B1",
            "ticks": 29376,
            "time": 48.315717,
            "velocity": 0.6850393700787402
          },
          {
            "duration": 0.1578944999999976,
            "durationTicks": 96,
            "midi": 38,
            "name": "D2",
            "ticks": 29472,
            "time": 48.4736115,
            "velocity": 0.6850393700787402
          },
          {
            "duration": 0.1578945000000047,
            "durationTicks": 96,
            "midi": 46,
            "name": "A#2",
            "ticks": 29568,
            "time": 48.631505999999995,
            "velocity": 0.6850393700787402
          },
          {
            "duration": 0.1578945000000047,
            "durationTicks": 96,
            "midi": 35,
            "name": "B1",
            "ticks": 29568,
            "time": 48.631505999999995,
            "velocity": 0.6850393700787402
          },
          {
            "duration": 0.1578944999999976,
            "durationTicks": 96,
            "midi": 38,
            "name": "D2",
            "ticks": 29664,
            "time": 48.7894005,
            "velocity": 0.6850393700787402
          },
          {
            "duration": 0.0789472499999988,
            "durationTicks": 48,
            "midi": 35,
            "name": "B1",
            "ticks": 29760,
            "time": 48.947295,
            "velocity": 0.6850393700787402
          },
          {
            "duration": 0.1578944999999976,
            "durationTicks": 96,
            "midi": 46,
            "name": "A#2",
            "ticks": 29760,
            "time": 48.947295,
            "velocity": 0.6850393700787402
          },
          {
            "duration": 0.0789472499999988,
            "durationTicks": 48,
            "midi": 35,
            "name": "B1",
            "ticks": 29808,
            "time": 49.026242249999996,
            "velocity": 0.6850393700787402
          },
          {
            "duration": 0.1578945000000047,
            "durationTicks": 96,
            "midi": 38,
            "name": "D2",
            "ticks": 29856,
            "time": 49.105189499999994,
            "velocity": 0.6850393700787402
          },
          {
            "duration": 0.1578944999999976,
            "durationTicks": 96,
            "midi": 46,
            "name": "A#2",
            "ticks": 29952,
            "time": 49.263084,
            "velocity": 0.6850393700787402
          },
          {
            "duration": 0.1578944999999976,
            "durationTicks": 96,
            "midi": 35,
            "name": "B1",
            "ticks": 29952,
            "time": 49.263084,
            "velocity": 0.6850393700787402
          },
          {
            "duration": 0.1578944999999976,
            "durationTicks": 96,
            "midi": 38,
            "name": "D2",
            "ticks": 30048,
            "time": 49.4209785,
            "velocity": 0.6850393700787402
          },
          {
            "duration": 0.07894725000000591,
            "durationTicks": 48,
            "midi": 35,
            "name": "B1",
            "ticks": 30144,
            "time": 49.578872999999994,
            "velocity": 0.6850393700787402
          },
          {
            "duration": 0.1578945000000047,
            "durationTicks": 96,
            "midi": 46,
            "name": "A#2",
            "ticks": 30144,
            "time": 49.578872999999994,
            "velocity": 0.6850393700787402
          },
          {
            "duration": 0.1578944999999976,
            "durationTicks": 96,
            "midi": 38,
            "name": "D2",
            "ticks": 30240,
            "time": 49.7367675,
            "velocity": 0.6850393700787402
          },
          {
            "duration": 0.1578944999999976,
            "durationTicks": 96,
            "midi": 46,
            "name": "A#2",
            "ticks": 30336,
            "time": 49.894662,
            "velocity": 0.6850393700787402
          },
          {
            "duration": 0.1578944999999976,
            "durationTicks": 96,
            "midi": 35,
            "name": "B1",
            "ticks": 30336,
            "time": 49.894662,
            "velocity": 0.6850393700787402
          },
          {
            "duration": 0.1578945000000047,
            "durationTicks": 96,
            "midi": 38,
            "name": "D2",
            "ticks": 30432,
            "time": 50.052556499999994,
            "velocity": 0.6850393700787402
          },
          {
            "duration": 0.1578944999999976,
            "durationTicks": 96,
            "midi": 46,
            "name": "A#2",
            "ticks": 30528,
            "time": 50.210451,
            "velocity": 0.6850393700787402
          },
          {
            "duration": 0.0789472499999988,
            "durationTicks": 48,
            "midi": 35,
            "name": "B1",
            "ticks": 30528,
            "time": 50.210451,
            "velocity": 0.6850393700787402
          },
          {
            "duration": 0.0789472499999988,
            "durationTicks": 48,
            "midi": 35,
            "name": "B1",
            "ticks": 30576,
            "time": 50.28939825,
            "velocity": 0.6850393700787402
          },
          {
            "duration": 0.1578945000000047,
            "durationTicks": 96,
            "midi": 38,
            "name": "D2",
            "ticks": 30624,
            "time": 50.3683455,
            "velocity": 0.6850393700787402
          },
          {
            "duration": 0.1578944999999976,
            "durationTicks": 96,
            "midi": 49,
            "name": "C#3",
            "ticks": 30720,
            "time": 50.52624,
            "velocity": 0.6850393700787402
          },
          {
            "duration": 0.1578944999999976,
            "durationTicks": 96,
            "midi": 49,
            "name": "C#3",
            "ticks": 30720,
            "time": 50.52624,
            "velocity": 0.6850393700787402
          },
          {
            "duration": 0.1578944999999976,
            "durationTicks": 96,
            "midi": 35,
            "name": "B1",
            "ticks": 30720,
            "time": 50.52624,
            "velocity": 0.6850393700787402
          },
          {
            "duration": 0.1578944999999976,
            "durationTicks": 96,
            "midi": 52,
            "name": "E3",
            "ticks": 30720,
            "time": 50.52624,
            "velocity": 0.6850393700787402
          },
          {
            "duration": 0.1578944999999976,
            "durationTicks": 96,
            "midi": 46,
            "name": "A#2",
            "ticks": 30720,
            "time": 50.52624,
            "velocity": 0.6850393700787402
          },
          {
            "duration": 0.1578944999999976,
            "durationTicks": 96,
            "midi": 38,
            "name": "D2",
            "ticks": 30816,
            "time": 50.6841345,
            "velocity": 0.6850393700787402
          },
          {
            "duration": 0.0789472499999988,
            "durationTicks": 48,
            "midi": 35,
            "name": "B1",
            "ticks": 30912,
            "time": 50.842029,
            "velocity": 0.6850393700787402
          },
          {
            "duration": 0.1578945000000047,
            "durationTicks": 96,
            "midi": 46,
            "name": "A#2",
            "ticks": 30912,
            "time": 50.842029,
            "velocity": 0.6850393700787402
          },
          {
            "duration": 0.1578944999999976,
            "durationTicks": 96,
            "midi": 38,
            "name": "D2",
            "ticks": 31008,
            "time": 50.9999235,
            "velocity": 0.6850393700787402
          },
          {
            "duration": 0.1578944999999976,
            "durationTicks": 96,
            "midi": 46,
            "name": "A#2",
            "ticks": 31104,
            "time": 51.157818,
            "velocity": 0.6850393700787402
          },
          {
            "duration": 0.1578944999999976,
            "durationTicks": 96,
            "midi": 35,
            "name": "B1",
            "ticks": 31104,
            "time": 51.157818,
            "velocity": 0.6850393700787402
          },
          {
            "duration": 0.1578945000000047,
            "durationTicks": 96,
            "midi": 38,
            "name": "D2",
            "ticks": 31200,
            "time": 51.3157125,
            "velocity": 0.6850393700787402
          },
          {
            "duration": 0.0789472499999988,
            "durationTicks": 48,
            "midi": 35,
            "name": "B1",
            "ticks": 31296,
            "time": 51.473607,
            "velocity": 0.6850393700787402
          },
          {
            "duration": 0.1578944999999976,
            "durationTicks": 96,
            "midi": 46,
            "name": "A#2",
            "ticks": 31296,
            "time": 51.473607,
            "velocity": 0.6850393700787402
          },
          {
            "duration": 0.0789472499999988,
            "durationTicks": 48,
            "midi": 35,
            "name": "B1",
            "ticks": 31344,
            "time": 51.55255425,
            "velocity": 0.6850393700787402
          },
          {
            "duration": 0.1578944999999976,
            "durationTicks": 96,
            "midi": 38,
            "name": "D2",
            "ticks": 31392,
            "time": 51.6315015,
            "velocity": 0.6850393700787402
          },
          {
            "duration": 0.1578945000000047,
            "durationTicks": 96,
            "midi": 35,
            "name": "B1",
            "ticks": 31488,
            "time": 51.789395999999996,
            "velocity": 0.6850393700787402
          },
          {
            "duration": 0.1578945000000047,
            "durationTicks": 96,
            "midi": 46,
            "name": "A#2",
            "ticks": 31488,
            "time": 51.789395999999996,
            "velocity": 0.6850393700787402
          },
          {
            "duration": 0.1578944999999976,
            "durationTicks": 96,
            "midi": 38,
            "name": "D2",
            "ticks": 31584,
            "time": 51.9472905,
            "velocity": 0.6850393700787402
          },
          {
            "duration": 0.0789472499999988,
            "durationTicks": 48,
            "midi": 35,
            "name": "B1",
            "ticks": 31680,
            "time": 52.105185,
            "velocity": 0.6850393700787402
          },
          {
            "duration": 0.1578944999999976,
            "durationTicks": 96,
            "midi": 46,
            "name": "A#2",
            "ticks": 31680,
            "time": 52.105185,
            "velocity": 0.6850393700787402
          },
          {
            "duration": 0.1578945000000047,
            "durationTicks": 96,
            "midi": 38,
            "name": "D2",
            "ticks": 31776,
            "time": 52.263079499999996,
            "velocity": 0.6850393700787402
          },
          {
            "duration": 0.1578944999999976,
            "durationTicks": 96,
            "midi": 46,
            "name": "A#2",
            "ticks": 31872,
            "time": 52.420974,
            "velocity": 0.6850393700787402
          },
          {
            "duration": 0.1578944999999976,
            "durationTicks": 96,
            "midi": 35,
            "name": "B1",
            "ticks": 31872,
            "time": 52.420974,
            "velocity": 0.6850393700787402
          },
          {
            "duration": 0.1578944999999976,
            "durationTicks": 96,
            "midi": 38,
            "name": "D2",
            "ticks": 31968,
            "time": 52.5788685,
            "velocity": 0.6850393700787402
          },
          {
            "duration": 0.0789472499999988,
            "durationTicks": 48,
            "midi": 35,
            "name": "B1",
            "ticks": 32064,
            "time": 52.736762999999996,
            "velocity": 0.6850393700787402
          },
          {
            "duration": 0.1578945000000047,
            "durationTicks": 96,
            "midi": 46,
            "name": "A#2",
            "ticks": 32064,
            "time": 52.736762999999996,
            "velocity": 0.6850393700787402
          },
          {
            "duration": 0.07894725000000591,
            "durationTicks": 48,
            "midi": 35,
            "name": "B1",
            "ticks": 32112,
            "time": 52.815710249999995,
            "velocity": 0.6850393700787402
          },
          {
            "duration": 0.1578944999999976,
            "durationTicks": 96,
            "midi": 38,
            "name": "D2",
            "ticks": 32160,
            "time": 52.8946575,
            "velocity": 0.6850393700787402
          },
          {
            "duration": 0.1578944999999976,
            "durationTicks": 96,
            "midi": 49,
            "name": "C#3",
            "ticks": 32256,
            "time": 53.052552,
            "velocity": 0.6850393700787402
          },
          {
            "duration": 0.1578944999999976,
            "durationTicks": 96,
            "midi": 46,
            "name": "A#2",
            "ticks": 32256,
            "time": 53.052552,
            "velocity": 0.6850393700787402
          },
          {
            "duration": 0.1578944999999976,
            "durationTicks": 96,
            "midi": 52,
            "name": "E3",
            "ticks": 32256,
            "time": 53.052552,
            "velocity": 0.6850393700787402
          },
          {
            "duration": 0.1578944999999976,
            "durationTicks": 96,
            "midi": 35,
            "name": "B1",
            "ticks": 32256,
            "time": 53.052552,
            "velocity": 0.6850393700787402
          },
          {
            "duration": 0.1578944999999976,
            "durationTicks": 96,
            "midi": 49,
            "name": "C#3",
            "ticks": 32256,
            "time": 53.052552,
            "velocity": 0.6850393700787402
          },
          {
            "duration": 0.1578945000000047,
            "durationTicks": 96,
            "midi": 38,
            "name": "D2",
            "ticks": 32352,
            "time": 53.210446499999996,
            "velocity": 0.6850393700787402
          },
          {
            "duration": 0.0789472499999988,
            "durationTicks": 48,
            "midi": 35,
            "name": "B1",
            "ticks": 32448,
            "time": 53.368341,
            "velocity": 0.6850393700787402
          },
          {
            "duration": 0.1578944999999976,
            "durationTicks": 96,
            "midi": 46,
            "name": "A#2",
            "ticks": 32448,
            "time": 53.368341,
            "velocity": 0.6850393700787402
          },
          {
            "duration": 0.1578944999999976,
            "durationTicks": 96,
            "midi": 38,
            "name": "D2",
            "ticks": 32544,
            "time": 53.5262355,
            "velocity": 0.6850393700787402
          },
          {
            "duration": 0.1578945000000047,
            "durationTicks": 96,
            "midi": 46,
            "name": "A#2",
            "ticks": 32640,
            "time": 53.684129999999996,
            "velocity": 0.6850393700787402
          },
          {
            "duration": 0.1578945000000047,
            "durationTicks": 96,
            "midi": 35,
            "name": "B1",
            "ticks": 32640,
            "time": 53.684129999999996,
            "velocity": 0.6850393700787402
          },
          {
            "duration": 0.1578944999999976,
            "durationTicks": 96,
            "midi": 38,
            "name": "D2",
            "ticks": 32736,
            "time": 53.8420245,
            "velocity": 0.6850393700787402
          },
          {
            "duration": 0.1578944999999976,
            "durationTicks": 96,
            "midi": 46,
            "name": "A#2",
            "ticks": 32832,
            "time": 53.999919,
            "velocity": 0.6850393700787402
          },
          {
            "duration": 0.0789472499999988,
            "durationTicks": 48,
            "midi": 35,
            "name": "B1",
            "ticks": 32832,
            "time": 53.999919,
            "velocity": 0.6850393700787402
          },
          {
            "duration": 0.0789472499999988,
            "durationTicks": 48,
            "midi": 35,
            "name": "B1",
            "ticks": 32880,
            "time": 54.07886625,
            "velocity": 0.6850393700787402
          },
          {
            "duration": 0.1578945000000047,
            "durationTicks": 96,
            "midi": 38,
            "name": "D2",
            "ticks": 32928,
            "time": 54.157813499999996,
            "velocity": 0.6850393700787402
          },
          {
            "duration": 0.1578944999999976,
            "durationTicks": 96,
            "midi": 35,
            "name": "B1",
            "ticks": 33024,
            "time": 54.315708,
            "velocity": 0.6850393700787402
          },
          {
            "duration": 0.1578944999999976,
            "durationTicks": 96,
            "midi": 46,
            "name": "A#2",
            "ticks": 33024,
            "time": 54.315708,
            "velocity": 0.6850393700787402
          },
          {
            "duration": 0.1578944999999976,
            "durationTicks": 96,
            "midi": 38,
            "name": "D2",
            "ticks": 33120,
            "time": 54.4736025,
            "velocity": 0.6850393700787402
          },
          {
            "duration": 0.0789472499999988,
            "durationTicks": 48,
            "midi": 35,
            "name": "B1",
            "ticks": 33216,
            "time": 54.631496999999996,
            "velocity": 0.6850393700787402
          },
          {
            "duration": 0.1578945000000047,
            "durationTicks": 96,
            "midi": 46,
            "name": "A#2",
            "ticks": 33216,
            "time": 54.631496999999996,
            "velocity": 0.6850393700787402
          },
          {
            "duration": 0.1578944999999976,
            "durationTicks": 96,
            "midi": 38,
            "name": "D2",
            "ticks": 33312,
            "time": 54.7893915,
            "velocity": 0.6850393700787402
          },
          {
            "duration": 0.1578944999999976,
            "durationTicks": 96,
            "midi": 46,
            "name": "A#2",
            "ticks": 33408,
            "time": 54.947286,
            "velocity": 0.6850393700787402
          },
          {
            "duration": 0.1578944999999976,
            "durationTicks": 96,
            "midi": 35,
            "name": "B1",
            "ticks": 33408,
            "time": 54.947286,
            "velocity": 0.6850393700787402
          },
          {
            "duration": 0.1578945000000047,
            "durationTicks": 96,
            "midi": 38,
            "name": "D2",
            "ticks": 33504,
            "time": 55.105180499999996,
            "velocity": 0.6850393700787402
          },
          {
            "duration": 0.0789472499999988,
            "durationTicks": 48,
            "midi": 35,
            "name": "B1",
            "ticks": 33600,
            "time": 55.263075,
            "velocity": 0.6850393700787402
          },
          {
            "duration": 0.1578944999999976,
            "durationTicks": 96,
            "midi": 46,
            "name": "A#2",
            "ticks": 33600,
            "time": 55.263075,
            "velocity": 0.6850393700787402
          },
          {
            "duration": 0.0789472499999988,
            "durationTicks": 48,
            "midi": 35,
            "name": "B1",
            "ticks": 33648,
            "time": 55.34202225,
            "velocity": 0.6850393700787402
          },
          {
            "duration": 0.1578944999999976,
            "durationTicks": 96,
            "midi": 38,
            "name": "D2",
            "ticks": 33696,
            "time": 55.4209695,
            "velocity": 0.6850393700787402
          },
          {
            "duration": 0.1578945000000047,
            "durationTicks": 96,
            "midi": 49,
            "name": "C#3",
            "ticks": 33792,
            "time": 55.578863999999996,
            "velocity": 0.6850393700787402
          },
          {
            "duration": 0.1578945000000047,
            "durationTicks": 96,
            "midi": 46,
            "name": "A#2",
            "ticks": 33792,
            "time": 55.578863999999996,
            "velocity": 0.6850393700787402
          },
          {
            "duration": 0.1578945000000047,
            "durationTicks": 96,
            "midi": 35,
            "name": "B1",
            "ticks": 33792,
            "time": 55.578863999999996,
            "velocity": 0.6850393700787402
          },
          {
            "duration": 0.1578945000000047,
            "durationTicks": 96,
            "midi": 49,
            "name": "C#3",
            "ticks": 33792,
            "time": 55.578863999999996,
            "velocity": 0.6850393700787402
          },
          {
            "duration": 0.1578945000000047,
            "durationTicks": 96,
            "midi": 52,
            "name": "E3",
            "ticks": 33792,
            "time": 55.578863999999996,
            "velocity": 0.6850393700787402
          },
          {
            "duration": 0.1578944999999976,
            "durationTicks": 96,
            "midi": 38,
            "name": "D2",
            "ticks": 33888,
            "time": 55.7367585,
            "velocity": 0.6850393700787402
          },
          {
            "duration": 0.1578944999999976,
            "durationTicks": 96,
            "midi": 46,
            "name": "A#2",
            "ticks": 33984,
            "time": 55.894653,
            "velocity": 0.6850393700787402
          },
          {
            "duration": 0.0789472499999988,
            "durationTicks": 48,
            "midi": 35,
            "name": "B1",
            "ticks": 33984,
            "time": 55.894653,
            "velocity": 0.6850393700787402
          },
          {
            "duration": 0.1578945000000047,
            "durationTicks": 96,
            "midi": 38,
            "name": "D2",
            "ticks": 34080,
            "time": 56.052547499999996,
            "velocity": 0.6850393700787402
          },
          {
            "duration": 0.1578944999999976,
            "durationTicks": 96,
            "midi": 46,
            "name": "A#2",
            "ticks": 34176,
            "time": 56.210442,
            "velocity": 0.6850393700787402
          },
          {
            "duration": 0.1578944999999976,
            "durationTicks": 96,
            "midi": 35,
            "name": "B1",
            "ticks": 34176,
            "time": 56.210442,
            "velocity": 0.6850393700787402
          },
          {
            "duration": 0.1578944999999976,
            "durationTicks": 96,
            "midi": 38,
            "name": "D2",
            "ticks": 34272,
            "time": 56.3683365,
            "velocity": 0.6850393700787402
          },
          {
            "duration": 0.0789472499999988,
            "durationTicks": 48,
            "midi": 35,
            "name": "B1",
            "ticks": 34368,
            "time": 56.526230999999996,
            "velocity": 0.6850393700787402
          },
          {
            "duration": 0.1578945000000047,
            "durationTicks": 96,
            "midi": 46,
            "name": "A#2",
            "ticks": 34368,
            "time": 56.526230999999996,
            "velocity": 0.6850393700787402
          },
          {
            "duration": 0.07894725000000591,
            "durationTicks": 48,
            "midi": 35,
            "name": "B1",
            "ticks": 34416,
            "time": 56.605178249999994,
            "velocity": 0.6850393700787402
          },
          {
            "duration": 0.1578944999999976,
            "durationTicks": 96,
            "midi": 38,
            "name": "D2",
            "ticks": 34464,
            "time": 56.6841255,
            "velocity": 0.6850393700787402
          },
          {
            "duration": 0.1578944999999976,
            "durationTicks": 96,
            "midi": 35,
            "name": "B1",
            "ticks": 34560,
            "time": 56.84202,
            "velocity": 0.6850393700787402
          },
          {
            "duration": 0.1578944999999976,
            "durationTicks": 96,
            "midi": 46,
            "name": "A#2",
            "ticks": 34560,
            "time": 56.84202,
            "velocity": 0.6850393700787402
          },
          {
            "duration": 0.1578945000000047,
            "durationTicks": 96,
            "midi": 38,
            "name": "D2",
            "ticks": 34656,
            "time": 56.999914499999996,
            "velocity": 0.6850393700787402
          },
          {
            "duration": 0.1578944999999976,
            "durationTicks": 96,
            "midi": 46,
            "name": "A#2",
            "ticks": 34752,
            "time": 57.157809,
            "velocity": 0.6850393700787402
          },
          {
            "duration": 0.0789472499999988,
            "durationTicks": 48,
            "midi": 35,
            "name": "B1",
            "ticks": 34752,
            "time": 57.157809,
            "velocity": 0.6850393700787402
          },
          {
            "duration": 0.1578944999999976,
            "durationTicks": 96,
            "midi": 38,
            "name": "D2",
            "ticks": 34848,
            "time": 57.3157035,
            "velocity": 0.6850393700787402
          },
          {
            "duration": 0.1578945000000047,
            "durationTicks": 96,
            "midi": 35,
            "name": "B1",
            "ticks": 34944,
            "time": 57.473597999999996,
            "velocity": 0.6850393700787402
          },
          {
            "duration": 0.1578945000000047,
            "durationTicks": 96,
            "midi": 46,
            "name": "A#2",
            "ticks": 34944,
            "time": 57.473597999999996,
            "velocity": 0.6850393700787402
          },
          {
            "duration": 0.1578944999999976,
            "durationTicks": 96,
            "midi": 38,
            "name": "D2",
            "ticks": 35040,
            "time": 57.6314925,
            "velocity": 0.6850393700787402
          },
          {
            "duration": 0.0789472499999988,
            "durationTicks": 48,
            "midi": 35,
            "name": "B1",
            "ticks": 35136,
            "time": 57.789387,
            "velocity": 0.6850393700787402
          },
          {
            "duration": 0.1578944999999976,
            "durationTicks": 96,
            "midi": 46,
            "name": "A#2",
            "ticks": 35136,
            "time": 57.789387,
            "velocity": 0.6850393700787402
          },
          {
            "duration": 0.0789472499999988,
            "durationTicks": 48,
            "midi": 35,
            "name": "B1",
            "ticks": 35184,
            "time": 57.86833425,
            "velocity": 0.6850393700787402
          },
          {
            "duration": 0.1578945000000047,
            "durationTicks": 96,
            "midi": 38,
            "name": "D2",
            "ticks": 35232,
            "time": 57.947281499999995,
            "velocity": 0.6850393700787402
          },
          {
            "duration": 0.1578944999999976,
            "durationTicks": 96,
            "midi": 46,
            "name": "A#2",
            "ticks": 35328,
            "time": 58.105176,
            "velocity": 0.6850393700787402
          },
          {
            "duration": 0.1578944999999976,
            "durationTicks": 96,
            "midi": 52,
            "name": "E3",
            "ticks": 35328,
            "time": 58.105176,
            "velocity": 0.6850393700787402
          },
          {
            "duration": 0.1578944999999976,
            "durationTicks": 96,
            "midi": 49,
            "name": "C#3",
            "ticks": 35328,
            "time": 58.105176,
            "velocity": 0.6850393700787402
          },
          {
            "duration": 0.1578944999999976,
            "durationTicks": 96,
            "midi": 49,
            "name": "C#3",
            "ticks": 35328,
            "time": 58.105176,
            "velocity": 0.6850393700787402
          },
          {
            "duration": 0.1578944999999976,
            "durationTicks": 96,
            "midi": 35,
            "name": "B1",
            "ticks": 35328,
            "time": 58.105176,
            "velocity": 0.6850393700787402
          },
          {
            "duration": 0.1578944999999976,
            "durationTicks": 96,
            "midi": 38,
            "name": "D2",
            "ticks": 35424,
            "time": 58.2630705,
            "velocity": 0.6850393700787402
          },
          {
            "duration": 0.0789472499999988,
            "durationTicks": 48,
            "midi": 35,
            "name": "B1",
            "ticks": 35520,
            "time": 58.420964999999995,
            "velocity": 0.6850393700787402
          },
          {
            "duration": 0.1578945000000047,
            "durationTicks": 96,
            "midi": 46,
            "name": "A#2",
            "ticks": 35520,
            "time": 58.420964999999995,
            "velocity": 0.6850393700787402
          },
          {
            "duration": 0.1578944999999976,
            "durationTicks": 96,
            "midi": 38,
            "name": "D2",
            "ticks": 35616,
            "time": 58.5788595,
            "velocity": 0.6850393700787402
          },
          {
            "duration": 0.1578944999999976,
            "durationTicks": 96,
            "midi": 46,
            "name": "A#2",
            "ticks": 35712,
            "time": 58.736754,
            "velocity": 0.6850393700787402
          },
          {
            "duration": 0.1578944999999976,
            "durationTicks": 96,
            "midi": 35,
            "name": "B1",
            "ticks": 35712,
            "time": 58.736754,
            "velocity": 0.6850393700787402
          },
          {
            "duration": 0.1578945000000047,
            "durationTicks": 96,
            "midi": 38,
            "name": "D2",
            "ticks": 35808,
            "time": 58.894648499999995,
            "velocity": 0.6850393700787402
          },
          {
            "duration": 0.0789472499999988,
            "durationTicks": 48,
            "midi": 35,
            "name": "B1",
            "ticks": 35904,
            "time": 59.052543,
            "velocity": 0.6850393700787402
          },
          {
            "duration": 0.1578944999999976,
            "durationTicks": 96,
            "midi": 46,
            "name": "A#2",
            "ticks": 35904,
            "time": 59.052543,
            "velocity": 0.6850393700787402
          },
          {
            "duration": 0.0789472499999988,
            "durationTicks": 48,
            "midi": 35,
            "name": "B1",
            "ticks": 35952,
            "time": 59.13149025,
            "velocity": 0.6850393700787402
          },
          {
            "duration": 0.1578944999999976,
            "durationTicks": 96,
            "midi": 38,
            "name": "D2",
            "ticks": 36000,
            "time": 59.2104375,
            "velocity": 0.6850393700787402
          },
          {
            "duration": 0.1578944999999976,
            "durationTicks": 96,
            "midi": 49,
            "name": "C#3",
            "ticks": 36864,
            "time": 60.631488,
            "velocity": 0.6850393700787402
          },
          {
            "duration": 0.1578944999999976,
            "durationTicks": 96,
            "midi": 35,
            "name": "B1",
            "ticks": 36864,
            "time": 60.631488,
            "velocity": 0.6850393700787402
          },
          {
            "duration": 0.1578944999999976,
            "durationTicks": 96,
            "midi": 46,
            "name": "A#2",
            "ticks": 36864,
            "time": 60.631488,
            "velocity": 0.6850393700787402
          },
          {
            "duration": 0.1578944999999976,
            "durationTicks": 96,
            "midi": 49,
            "name": "C#3",
            "ticks": 36864,
            "time": 60.631488,
            "velocity": 0.6850393700787402
          },
          {
            "duration": 0.1578944999999976,
            "durationTicks": 96,
            "midi": 52,
            "name": "E3",
            "ticks": 36864,
            "time": 60.631488,
            "velocity": 0.6850393700787402
          },
          {
            "duration": 0.1578945000000047,
            "durationTicks": 96,
            "midi": 38,
            "name": "D2",
            "ticks": 36960,
            "time": 60.789382499999995,
            "velocity": 0.6850393700787402
          },
          {
            "duration": 0.0789472499999988,
            "durationTicks": 48,
            "midi": 35,
            "name": "B1",
            "ticks": 37056,
            "time": 60.947277,
            "velocity": 0.6850393700787402
          },
          {
            "duration": 0.1578944999999976,
            "durationTicks": 96,
            "midi": 46,
            "name": "A#2",
            "ticks": 37056,
            "time": 60.947277,
            "velocity": 0.6850393700787402
          },
          {
            "duration": 0.1578944999999976,
            "durationTicks": 96,
            "midi": 38,
            "name": "D2",
            "ticks": 37152,
            "time": 61.1051715,
            "velocity": 0.6850393700787402
          },
          {
            "duration": 0.1578945000000047,
            "durationTicks": 96,
            "midi": 35,
            "name": "B1",
            "ticks": 37248,
            "time": 61.263065999999995,
            "velocity": 0.6850393700787402
          },
          {
            "duration": 0.1578945000000047,
            "durationTicks": 96,
            "midi": 46,
            "name": "A#2",
            "ticks": 37248,
            "time": 61.263065999999995,
            "velocity": 0.6850393700787402
          },
          {
            "duration": 0.1578944999999976,
            "durationTicks": 96,
            "midi": 38,
            "name": "D2",
            "ticks": 37344,
            "time": 61.4209605,
            "velocity": 0.6850393700787402
          },
          {
            "duration": 0.0789472499999988,
            "durationTicks": 48,
            "midi": 35,
            "name": "B1",
            "ticks": 37440,
            "time": 61.578855,
            "velocity": 0.6850393700787402
          },
          {
            "duration": 0.1578944999999976,
            "durationTicks": 96,
            "midi": 46,
            "name": "A#2",
            "ticks": 37440,
            "time": 61.578855,
            "velocity": 0.6850393700787402
          },
          {
            "duration": 0.0789472499999988,
            "durationTicks": 48,
            "midi": 35,
            "name": "B1",
            "ticks": 37488,
            "time": 61.657802249999996,
            "velocity": 0.6850393700787402
          },
          {
            "duration": 0.1578945000000047,
            "durationTicks": 96,
            "midi": 38,
            "name": "D2",
            "ticks": 37536,
            "time": 61.736749499999995,
            "velocity": 0.6850393700787402
          },
          {
            "duration": 0.1578944999999976,
            "durationTicks": 96,
            "midi": 46,
            "name": "A#2",
            "ticks": 37632,
            "time": 61.894644,
            "velocity": 0.6850393700787402
          },
          {
            "duration": 0.1578944999999976,
            "durationTicks": 96,
            "midi": 35,
            "name": "B1",
            "ticks": 37632,
            "time": 61.894644,
            "velocity": 0.6850393700787402
          },
          {
            "duration": 0.1578944999999976,
            "durationTicks": 96,
            "midi": 38,
            "name": "D2",
            "ticks": 37728,
            "time": 62.0525385,
            "velocity": 0.6850393700787402
          },
          {
            "duration": 0.07894725000000591,
            "durationTicks": 48,
            "midi": 35,
            "name": "B1",
            "ticks": 37824,
            "time": 62.210432999999995,
            "velocity": 0.6850393700787402
          },
          {
            "duration": 0.1578945000000047,
            "durationTicks": 96,
            "midi": 46,
            "name": "A#2",
            "ticks": 37824,
            "time": 62.210432999999995,
            "velocity": 0.6850393700787402
          },
          {
            "duration": 0.1578944999999976,
            "durationTicks": 96,
            "midi": 38,
            "name": "D2",
            "ticks": 37920,
            "time": 62.3683275,
            "velocity": 0.6850393700787402
          },
          {
            "duration": 0.1578944999999976,
            "durationTicks": 96,
            "midi": 46,
            "name": "A#2",
            "ticks": 38016,
            "time": 62.526222,
            "velocity": 0.6850393700787402
          },
          {
            "duration": 0.1578944999999976,
            "durationTicks": 96,
            "midi": 35,
            "name": "B1",
            "ticks": 38016,
            "time": 62.526222,
            "velocity": 0.6850393700787402
          },
          {
            "duration": 0.1578945000000047,
            "durationTicks": 96,
            "midi": 38,
            "name": "D2",
            "ticks": 38112,
            "time": 62.684116499999995,
            "velocity": 0.6850393700787402
          },
          {
            "duration": 0.1578944999999976,
            "durationTicks": 96,
            "midi": 46,
            "name": "A#2",
            "ticks": 38208,
            "time": 62.842011,
            "velocity": 0.6850393700787402
          },
          {
            "duration": 0.0789472499999988,
            "durationTicks": 48,
            "midi": 35,
            "name": "B1",
            "ticks": 38208,
            "time": 62.842011,
            "velocity": 0.6850393700787402
          },
          {
            "duration": 0.0789472499999988,
            "durationTicks": 48,
            "midi": 35,
            "name": "B1",
            "ticks": 38256,
            "time": 62.92095825,
            "velocity": 0.6850393700787402
          },
          {
            "duration": 0.1578944999999976,
            "durationTicks": 96,
            "midi": 38,
            "name": "D2",
            "ticks": 38304,
            "time": 62.9999055,
            "velocity": 0.6850393700787402
          },
          {
            "duration": 0.1578945000000047,
            "durationTicks": 96,
            "midi": 35,
            "name": "B1",
            "ticks": 38400,
            "time": 63.157799999999995,
            "velocity": 0.6850393700787402
          },
          {
            "duration": 0.1578945000000047,
            "durationTicks": 96,
            "midi": 49,
            "name": "C#3",
            "ticks": 38400,
            "time": 63.157799999999995,
            "velocity": 0.6850393700787402
          },
          {
            "duration": 0.1578945000000047,
            "durationTicks": 96,
            "midi": 49,
            "name": "C#3",
            "ticks": 38400,
            "time": 63.157799999999995,
            "velocity": 0.6850393700787402
          },
          {
            "duration": 0.1578945000000047,
            "durationTicks": 96,
            "midi": 52,
            "name": "E3",
            "ticks": 38400,
            "time": 63.157799999999995,
            "velocity": 0.6850393700787402
          },
          {
            "duration": 0.1578945000000047,
            "durationTicks": 96,
            "midi": 46,
            "name": "A#2",
            "ticks": 38400,
            "time": 63.157799999999995,
            "velocity": 0.6850393700787402
          },
          {
            "duration": 0.1578944999999976,
            "durationTicks": 96,
            "midi": 38,
            "name": "D2",
            "ticks": 38496,
            "time": 63.3156945,
            "velocity": 0.6850393700787402
          },
          {
            "duration": 0.1578944999999976,
            "durationTicks": 96,
            "midi": 46,
            "name": "A#2",
            "ticks": 38592,
            "time": 63.473589,
            "velocity": 0.6850393700787402
          },
          {
            "duration": 0.0789472499999988,
            "durationTicks": 48,
            "midi": 35,
            "name": "B1",
            "ticks": 38592,
            "time": 63.473589,
            "velocity": 0.6850393700787402
          },
          {
            "duration": 0.1578945000000047,
            "durationTicks": 96,
            "midi": 38,
            "name": "D2",
            "ticks": 38688,
            "time": 63.631483499999995,
            "velocity": 0.6850393700787402
          },
          {
            "duration": 0.1578944999999976,
            "durationTicks": 96,
            "midi": 46,
            "name": "A#2",
            "ticks": 38784,
            "time": 63.789378,
            "velocity": 0.6850393700787402
          },
          {
            "duration": 0.1578944999999976,
            "durationTicks": 96,
            "midi": 35,
            "name": "B1",
            "ticks": 38784,
            "time": 63.789378,
            "velocity": 0.6850393700787402
          },
          {
            "duration": 0.1578944999999976,
            "durationTicks": 96,
            "midi": 38,
            "name": "D2",
            "ticks": 38880,
            "time": 63.9472725,
            "velocity": 0.6850393700787402
          },
          {
            "duration": 0.1578944999999976,
            "durationTicks": 96,
            "midi": 46,
            "name": "A#2",
            "ticks": 38976,
            "time": 64.105167,
            "velocity": 0.6850393700787402
          },
          {
            "duration": 0.0789472499999988,
            "durationTicks": 48,
            "midi": 35,
            "name": "B1",
            "ticks": 38976,
            "time": 64.105167,
            "velocity": 0.6850393700787402
          },
          {
            "duration": 0.0789472499999988,
            "durationTicks": 48,
            "midi": 35,
            "name": "B1",
            "ticks": 39024,
            "time": 64.18411425,
            "velocity": 0.6850393700787402
          },
          {
            "duration": 0.15789450000001182,
            "durationTicks": 96,
            "midi": 38,
            "name": "D2",
            "ticks": 39072,
            "time": 64.26306149999999,
            "velocity": 0.6850393700787402
          },
          {
            "duration": 0.1578944999999976,
            "durationTicks": 96,
            "midi": 35,
            "name": "B1",
            "ticks": 39168,
            "time": 64.420956,
            "velocity": 0.6850393700787402
          },
          {
            "duration": 0.1578944999999976,
            "durationTicks": 96,
            "midi": 46,
            "name": "A#2",
            "ticks": 39168,
            "time": 64.420956,
            "velocity": 0.6850393700787402
          },
          {
            "duration": 0.1578944999999976,
            "durationTicks": 96,
            "midi": 38,
            "name": "D2",
            "ticks": 39264,
            "time": 64.5788505,
            "velocity": 0.6850393700787402
          },
          {
            "duration": 0.1578944999999976,
            "durationTicks": 96,
            "midi": 46,
            "name": "A#2",
            "ticks": 39360,
            "time": 64.736745,
            "velocity": 0.6850393700787402
          },
          {
            "duration": 0.0789472499999988,
            "durationTicks": 48,
            "midi": 35,
            "name": "B1",
            "ticks": 39360,
            "time": 64.736745,
            "velocity": 0.6850393700787402
          },
          {
            "duration": 0.1578944999999976,
            "durationTicks": 96,
            "midi": 38,
            "name": "D2",
            "ticks": 39456,
            "time": 64.8946395,
            "velocity": 0.6850393700787402
          },
          {
            "duration": 0.1578944999999976,
            "durationTicks": 96,
            "midi": 46,
            "name": "A#2",
            "ticks": 39552,
            "time": 65.052534,
            "velocity": 0.6850393700787402
          },
          {
            "duration": 0.1578944999999976,
            "durationTicks": 96,
            "midi": 35,
            "name": "B1",
            "ticks": 39552,
            "time": 65.052534,
            "velocity": 0.6850393700787402
          },
          {
            "duration": 0.15789450000001182,
            "durationTicks": 96,
            "midi": 38,
            "name": "D2",
            "ticks": 39648,
            "time": 65.21042849999999,
            "velocity": 0.6850393700787402
          },
          {
            "duration": 0.1578944999999976,
            "durationTicks": 96,
            "midi": 46,
            "name": "A#2",
            "ticks": 39744,
            "time": 65.368323,
            "velocity": 0.6850393700787402
          },
          {
            "duration": 0.0789472499999988,
            "durationTicks": 48,
            "midi": 35,
            "name": "B1",
            "ticks": 39744,
            "time": 65.368323,
            "velocity": 0.6850393700787402
          },
          {
            "duration": 0.0789472499999988,
            "durationTicks": 48,
            "midi": 35,
            "name": "B1",
            "ticks": 39792,
            "time": 65.44727025,
            "velocity": 0.6850393700787402
          },
          {
            "duration": 0.1578944999999976,
            "durationTicks": 96,
            "midi": 38,
            "name": "D2",
            "ticks": 39840,
            "time": 65.5262175,
            "velocity": 0.6850393700787402
          },
          {
            "duration": 0.1578944999999976,
            "durationTicks": 96,
            "midi": 35,
            "name": "B1",
            "ticks": 39936,
            "time": 65.684112,
            "velocity": 0.6850393700787402
          },
          {
            "duration": 0.1578944999999976,
            "durationTicks": 96,
            "midi": 52,
            "name": "E3",
            "ticks": 39936,
            "time": 65.684112,
            "velocity": 0.6850393700787402
          },
          {
            "duration": 0.1578944999999976,
            "durationTicks": 96,
            "midi": 49,
            "name": "C#3",
            "ticks": 39936,
            "time": 65.684112,
            "velocity": 0.6850393700787402
          },
          {
            "duration": 0.1578944999999976,
            "durationTicks": 96,
            "midi": 46,
            "name": "A#2",
            "ticks": 39936,
            "time": 65.684112,
            "velocity": 0.6850393700787402
          },
          {
            "duration": 0.1578944999999976,
            "durationTicks": 96,
            "midi": 49,
            "name": "C#3",
            "ticks": 39936,
            "time": 65.684112,
            "velocity": 0.6850393700787402
          },
          {
            "duration": 0.1578944999999976,
            "durationTicks": 96,
            "midi": 38,
            "name": "D2",
            "ticks": 40032,
            "time": 65.8420065,
            "velocity": 0.6850393700787402
          },
          {
            "duration": 0.1578944999999976,
            "durationTicks": 96,
            "midi": 46,
            "name": "A#2",
            "ticks": 40128,
            "time": 65.999901,
            "velocity": 0.6850393700787402
          },
          {
            "duration": 0.0789472499999988,
            "durationTicks": 48,
            "midi": 35,
            "name": "B1",
            "ticks": 40128,
            "time": 65.999901,
            "velocity": 0.6850393700787402
          },
          {
            "duration": 0.15789450000001182,
            "durationTicks": 96,
            "midi": 38,
            "name": "D2",
            "ticks": 40224,
            "time": 66.15779549999999,
            "velocity": 0.6850393700787402
          },
          {
            "duration": 0.1578944999999976,
            "durationTicks": 96,
            "midi": 35,
            "name": "B1",
            "ticks": 40320,
            "time": 66.31569,
            "velocity": 0.6850393700787402
          },
          {
            "duration": 0.1578944999999976,
            "durationTicks": 96,
            "midi": 46,
            "name": "A#2",
            "ticks": 40320,
            "time": 66.31569,
            "velocity": 0.6850393700787402
          },
          {
            "duration": 0.1578944999999976,
            "durationTicks": 96,
            "midi": 38,
            "name": "D2",
            "ticks": 40416,
            "time": 66.4735845,
            "velocity": 0.6850393700787402
          },
          {
            "duration": 0.1578944999999976,
            "durationTicks": 96,
            "midi": 46,
            "name": "A#2",
            "ticks": 40512,
            "time": 66.631479,
            "velocity": 0.6850393700787402
          },
          {
            "duration": 0.0789472499999988,
            "durationTicks": 48,
            "midi": 35,
            "name": "B1",
            "ticks": 40512,
            "time": 66.631479,
            "velocity": 0.6850393700787402
          },
          {
            "duration": 0.0789472499999988,
            "durationTicks": 48,
            "midi": 35,
            "name": "B1",
            "ticks": 40560,
            "time": 66.71042625,
            "velocity": 0.6850393700787402
          },
          {
            "duration": 0.1578944999999976,
            "durationTicks": 96,
            "midi": 38,
            "name": "D2",
            "ticks": 40608,
            "time": 66.7893735,
            "velocity": 0.6850393700787402
          },
          {
            "duration": 0.1578944999999976,
            "durationTicks": 96,
            "midi": 35,
            "name": "B1",
            "ticks": 40704,
            "time": 66.947268,
            "velocity": 0.6850393700787402
          },
          {
            "duration": 0.1578944999999976,
            "durationTicks": 96,
            "midi": 46,
            "name": "A#2",
            "ticks": 40704,
            "time": 66.947268,
            "velocity": 0.6850393700787402
          },
          {
            "duration": 0.15789450000001182,
            "durationTicks": 96,
            "midi": 38,
            "name": "D2",
            "ticks": 40800,
            "time": 67.10516249999999,
            "velocity": 0.6850393700787402
          },
          {
            "duration": 0.0789472499999988,
            "durationTicks": 48,
            "midi": 35,
            "name": "B1",
            "ticks": 40896,
            "time": 67.263057,
            "velocity": 0.6850393700787402
          },
          {
            "duration": 0.1578944999999976,
            "durationTicks": 96,
            "midi": 46,
            "name": "A#2",
            "ticks": 40896,
            "time": 67.263057,
            "velocity": 0.6850393700787402
          },
          {
            "duration": 0.1578944999999976,
            "durationTicks": 96,
            "midi": 38,
            "name": "D2",
            "ticks": 40992,
            "time": 67.4209515,
            "velocity": 0.6850393700787402
          },
          {
            "duration": 0.1578944999999976,
            "durationTicks": 96,
            "midi": 46,
            "name": "A#2",
            "ticks": 41088,
            "time": 67.578846,
            "velocity": 0.6850393700787402
          },
          {
            "duration": 0.1578944999999976,
            "durationTicks": 96,
            "midi": 35,
            "name": "B1",
            "ticks": 41088,
            "time": 67.578846,
            "velocity": 0.6850393700787402
          },
          {
            "duration": 0.1578944999999976,
            "durationTicks": 96,
            "midi": 38,
            "name": "D2",
            "ticks": 41184,
            "time": 67.7367405,
            "velocity": 0.6850393700787402
          },
          {
            "duration": 0.1578944999999976,
            "durationTicks": 96,
            "midi": 46,
            "name": "A#2",
            "ticks": 41280,
            "time": 67.894635,
            "velocity": 0.6850393700787402
          },
          {
            "duration": 0.0789472499999988,
            "durationTicks": 48,
            "midi": 35,
            "name": "B1",
            "ticks": 41280,
            "time": 67.894635,
            "velocity": 0.6850393700787402
          },
          {
            "duration": 0.0789472499999988,
            "durationTicks": 48,
            "midi": 35,
            "name": "B1",
            "ticks": 41328,
            "time": 67.97358224999999,
            "velocity": 0.6850393700787402
          },
          {
            "duration": 0.15789450000001182,
            "durationTicks": 96,
            "midi": 38,
            "name": "D2",
            "ticks": 41376,
            "time": 68.05252949999999,
            "velocity": 0.6850393700787402
          },
          {
            "duration": 0.1578944999999976,
            "durationTicks": 96,
            "midi": 46,
            "name": "A#2",
            "ticks": 41472,
            "time": 68.210424,
            "velocity": 0.6850393700787402
          },
          {
            "duration": 0.1578944999999976,
            "durationTicks": 96,
            "midi": 49,
            "name": "C#3",
            "ticks": 41472,
            "time": 68.210424,
            "velocity": 0.6850393700787402
          },
          {
            "duration": 0.1578944999999976,
            "durationTicks": 96,
            "midi": 49,
            "name": "C#3",
            "ticks": 41472,
            "time": 68.210424,
            "velocity": 0.6850393700787402
          },
          {
            "duration": 0.1578944999999976,
            "durationTicks": 96,
            "midi": 52,
            "name": "E3",
            "ticks": 41472,
            "time": 68.210424,
            "velocity": 0.6850393700787402
          },
          {
            "duration": 0.1578944999999976,
            "durationTicks": 96,
            "midi": 35,
            "name": "B1",
            "ticks": 41472,
            "time": 68.210424,
            "velocity": 0.6850393700787402
          },
          {
            "duration": 0.1578944999999976,
            "durationTicks": 96,
            "midi": 38,
            "name": "D2",
            "ticks": 41568,
            "time": 68.3683185,
            "velocity": 0.6850393700787402
          },
          {
            "duration": 0.0789472499999988,
            "durationTicks": 48,
            "midi": 35,
            "name": "B1",
            "ticks": 41664,
            "time": 68.526213,
            "velocity": 0.6850393700787402
          },
          {
            "duration": 0.1578944999999976,
            "durationTicks": 96,
            "midi": 46,
            "name": "A#2",
            "ticks": 41664,
            "time": 68.526213,
            "velocity": 0.6850393700787402
          },
          {
            "duration": 0.1578944999999976,
            "durationTicks": 96,
            "midi": 38,
            "name": "D2",
            "ticks": 41760,
            "time": 68.6841075,
            "velocity": 0.6850393700787402
          },
          {
            "duration": 0.1578944999999976,
            "durationTicks": 96,
            "midi": 35,
            "name": "B1",
            "ticks": 41856,
            "time": 68.842002,
            "velocity": 0.6850393700787402
          },
          {
            "duration": 0.1578944999999976,
            "durationTicks": 96,
            "midi": 46,
            "name": "A#2",
            "ticks": 41856,
            "time": 68.842002,
            "velocity": 0.6850393700787402
          },
          {
            "duration": 0.15789450000001182,
            "durationTicks": 96,
            "midi": 38,
            "name": "D2",
            "ticks": 41952,
            "time": 68.99989649999999,
            "velocity": 0.6850393700787402
          },
          {
            "duration": 0.1578944999999976,
            "durationTicks": 96,
            "midi": 46,
            "name": "A#2",
            "ticks": 42048,
            "time": 69.157791,
            "velocity": 0.6850393700787402
          },
          {
            "duration": 0.0789472499999988,
            "durationTicks": 48,
            "midi": 35,
            "name": "B1",
            "ticks": 42048,
            "time": 69.157791,
            "velocity": 0.6850393700787402
          },
          {
            "duration": 0.0789472499999988,
            "durationTicks": 48,
            "midi": 35,
            "name": "B1",
            "ticks": 42096,
            "time": 69.23673825,
            "velocity": 0.6850393700787402
          },
          {
            "duration": 0.1578944999999976,
            "durationTicks": 96,
            "midi": 38,
            "name": "D2",
            "ticks": 42144,
            "time": 69.3156855,
            "velocity": 0.6850393700787402
          },
          {
            "duration": 0.1578944999999976,
            "durationTicks": 96,
            "midi": 35,
            "name": "B1",
            "ticks": 42240,
            "time": 69.47358,
            "velocity": 0.6850393700787402
          },
          {
            "duration": 0.1578944999999976,
            "durationTicks": 96,
            "midi": 46,
            "name": "A#2",
            "ticks": 42240,
            "time": 69.47358,
            "velocity": 0.6850393700787402
          },
          {
            "duration": 0.1578944999999976,
            "durationTicks": 96,
            "midi": 38,
            "name": "D2",
            "ticks": 42336,
            "time": 69.6314745,
            "velocity": 0.6850393700787402
          },
          {
            "duration": 0.1578944999999976,
            "durationTicks": 96,
            "midi": 46,
            "name": "A#2",
            "ticks": 42432,
            "time": 69.789369,
            "velocity": 0.6850393700787402
          },
          {
            "duration": 0.0789472499999988,
            "durationTicks": 48,
            "midi": 35,
            "name": "B1",
            "ticks": 42432,
            "time": 69.789369,
            "velocity": 0.6850393700787402
          },
          {
            "duration": 0.15789450000001182,
            "durationTicks": 96,
            "midi": 38,
            "name": "D2",
            "ticks": 42528,
            "time": 69.94726349999999,
            "velocity": 0.6850393700787402
          },
          {
            "duration": 0.1578944999999976,
            "durationTicks": 96,
            "midi": 46,
            "name": "A#2",
            "ticks": 42624,
            "time": 70.105158,
            "velocity": 0.6850393700787402
          },
          {
            "duration": 0.1578944999999976,
            "durationTicks": 96,
            "midi": 35,
            "name": "B1",
            "ticks": 42624,
            "time": 70.105158,
            "velocity": 0.6850393700787402
          },
          {
            "duration": 0.1578944999999976,
            "durationTicks": 96,
            "midi": 38,
            "name": "D2",
            "ticks": 42720,
            "time": 70.2630525,
            "velocity": 0.6850393700787402
          },
          {
            "duration": 0.0789472499999988,
            "durationTicks": 48,
            "midi": 35,
            "name": "B1",
            "ticks": 42816,
            "time": 70.420947,
            "velocity": 0.6850393700787402
          },
          {
            "duration": 0.1578944999999976,
            "durationTicks": 96,
            "midi": 46,
            "name": "A#2",
            "ticks": 42816,
            "time": 70.420947,
            "velocity": 0.6850393700787402
          },
          {
            "duration": 0.0789472499999988,
            "durationTicks": 48,
            "midi": 35,
            "name": "B1",
            "ticks": 42864,
            "time": 70.49989425,
            "velocity": 0.6850393700787402
          },
          {
            "duration": 0.1578944999999976,
            "durationTicks": 96,
            "midi": 38,
            "name": "D2",
            "ticks": 42912,
            "time": 70.5788415,
            "velocity": 0.6850393700787402
          },
          {
            "duration": 0.1578944999999976,
            "durationTicks": 96,
            "midi": 49,
            "name": "C#3",
            "ticks": 43008,
            "time": 70.736736,
            "velocity": 0.6850393700787402
          },
          {
            "duration": 0.1578944999999976,
            "durationTicks": 96,
            "midi": 52,
            "name": "E3",
            "ticks": 43008,
            "time": 70.736736,
            "velocity": 0.6850393700787402
          },
          {
            "duration": 0.1578944999999976,
            "durationTicks": 96,
            "midi": 46,
            "name": "A#2",
            "ticks": 43008,
            "time": 70.736736,
            "velocity": 0.6850393700787402
          },
          {
            "duration": 0.1578944999999976,
            "durationTicks": 96,
            "midi": 49,
            "name": "C#3",
            "ticks": 43008,
            "time": 70.736736,
            "velocity": 0.6850393700787402
          },
          {
            "duration": 0.1578944999999976,
            "durationTicks": 96,
            "midi": 35,
            "name": "B1",
            "ticks": 43008,
            "time": 70.736736,
            "velocity": 0.6850393700787402
          },
          {
            "duration": 0.15789450000001182,
            "durationTicks": 96,
            "midi": 38,
            "name": "D2",
            "ticks": 43104,
            "time": 70.89463049999999,
            "velocity": 0.6850393700787402
          },
          {
            "duration": 0.1578944999999976,
            "durationTicks": 96,
            "midi": 46,
            "name": "A#2",
            "ticks": 43200,
            "time": 71.052525,
            "velocity": 0.6850393700787402
          },
          {
            "duration": 0.0789472499999988,
            "durationTicks": 48,
            "midi": 35,
            "name": "B1",
            "ticks": 43200,
            "time": 71.052525,
            "velocity": 0.6850393700787402
          },
          {
            "duration": 0.1578944999999976,
            "durationTicks": 96,
            "midi": 38,
            "name": "D2",
            "ticks": 43296,
            "time": 71.2104195,
            "velocity": 0.6850393700787402
          },
          {
            "duration": 0.1578944999999976,
            "durationTicks": 96,
            "midi": 46,
            "name": "A#2",
            "ticks": 43392,
            "time": 71.368314,
            "velocity": 0.6850393700787402
          },
          {
            "duration": 0.1578944999999976,
            "durationTicks": 96,
            "midi": 35,
            "name": "B1",
            "ticks": 43392,
            "time": 71.368314,
            "velocity": 0.6850393700787402
          },
          {
            "duration": 0.1578944999999976,
            "durationTicks": 96,
            "midi": 38,
            "name": "D2",
            "ticks": 43488,
            "time": 71.5262085,
            "velocity": 0.6850393700787402
          },
          {
            "duration": 0.1578944999999976,
            "durationTicks": 96,
            "midi": 46,
            "name": "A#2",
            "ticks": 43584,
            "time": 71.684103,
            "velocity": 0.6850393700787402
          },
          {
            "duration": 0.0789472499999988,
            "durationTicks": 48,
            "midi": 35,
            "name": "B1",
            "ticks": 43584,
            "time": 71.684103,
            "velocity": 0.6850393700787402
          },
          {
            "duration": 0.0789472499999988,
            "durationTicks": 48,
            "midi": 35,
            "name": "B1",
            "ticks": 43632,
            "time": 71.76305024999999,
            "velocity": 0.6850393700787402
          },
          {
            "duration": 0.15789450000001182,
            "durationTicks": 96,
            "midi": 38,
            "name": "D2",
            "ticks": 43680,
            "time": 71.84199749999999,
            "velocity": 0.6850393700787402
          },
          {
            "duration": 0.1578944999999976,
            "durationTicks": 96,
            "midi": 35,
            "name": "B1",
            "ticks": 43776,
            "time": 71.999892,
            "velocity": 0.6850393700787402
          },
          {
            "duration": 0.1578944999999976,
            "durationTicks": 96,
            "midi": 46,
            "name": "A#2",
            "ticks": 43776,
            "time": 71.999892,
            "velocity": 0.6850393700787402
          },
          {
            "duration": 0.1578944999999976,
            "durationTicks": 96,
            "midi": 38,
            "name": "D2",
            "ticks": 43872,
            "time": 72.1577865,
            "velocity": 0.6850393700787402
          },
          {
            "duration": 0.0789472499999988,
            "durationTicks": 48,
            "midi": 35,
            "name": "B1",
            "ticks": 43968,
            "time": 72.315681,
            "velocity": 0.6850393700787402
          },
          {
            "duration": 0.1578944999999976,
            "durationTicks": 96,
            "midi": 46,
            "name": "A#2",
            "ticks": 43968,
            "time": 72.315681,
            "velocity": 0.6850393700787402
          },
          {
            "duration": 0.1578944999999976,
            "durationTicks": 96,
            "midi": 38,
            "name": "D2",
            "ticks": 44064,
            "time": 72.4735755,
            "velocity": 0.6850393700787402
          },
          {
            "duration": 0.1578944999999976,
            "durationTicks": 96,
            "midi": 46,
            "name": "A#2",
            "ticks": 44160,
            "time": 72.63147,
            "velocity": 0.6850393700787402
          },
          {
            "duration": 0.1578944999999976,
            "durationTicks": 96,
            "midi": 35,
            "name": "B1",
            "ticks": 44160,
            "time": 72.63147,
            "velocity": 0.6850393700787402
          },
          {
            "duration": 0.15789450000001182,
            "durationTicks": 96,
            "midi": 38,
            "name": "D2",
            "ticks": 44256,
            "time": 72.78936449999999,
            "velocity": 0.6850393700787402
          },
          {
            "duration": 0.1578944999999976,
            "durationTicks": 96,
            "midi": 46,
            "name": "A#2",
            "ticks": 44352,
            "time": 72.947259,
            "velocity": 0.6850393700787402
          },
          {
            "duration": 0.0789472499999988,
            "durationTicks": 48,
            "midi": 35,
            "name": "B1",
            "ticks": 44352,
            "time": 72.947259,
            "velocity": 0.6850393700787402
          },
          {
            "duration": 0.0789472499999988,
            "durationTicks": 48,
            "midi": 35,
            "name": "B1",
            "ticks": 44400,
            "time": 73.02620625,
            "velocity": 0.6850393700787402
          },
          {
            "duration": 0.1578944999999976,
            "durationTicks": 96,
            "midi": 38,
            "name": "D2",
            "ticks": 44448,
            "time": 73.1051535,
            "velocity": 0.6850393700787402
          },
          {
            "duration": 0.1578944999999976,
            "durationTicks": 96,
            "midi": 46,
            "name": "A#2",
            "ticks": 44544,
            "time": 73.263048,
            "velocity": 0.6850393700787402
          },
          {
            "duration": 0.1578944999999976,
            "durationTicks": 96,
            "midi": 49,
            "name": "C#3",
            "ticks": 44544,
            "time": 73.263048,
            "velocity": 0.6850393700787402
          },
          {
            "duration": 0.1578944999999976,
            "durationTicks": 96,
            "midi": 49,
            "name": "C#3",
            "ticks": 44544,
            "time": 73.263048,
            "velocity": 0.6850393700787402
          },
          {
            "duration": 0.1578944999999976,
            "durationTicks": 96,
            "midi": 35,
            "name": "B1",
            "ticks": 44544,
            "time": 73.263048,
            "velocity": 0.6850393700787402
          },
          {
            "duration": 0.1578944999999976,
            "durationTicks": 96,
            "midi": 52,
            "name": "E3",
            "ticks": 44544,
            "time": 73.263048,
            "velocity": 0.6850393700787402
          },
          {
            "duration": 0.1578944999999976,
            "durationTicks": 96,
            "midi": 38,
            "name": "D2",
            "ticks": 44640,
            "time": 73.4209425,
            "velocity": 0.6850393700787402
          },
          {
            "duration": 0.0789472499999988,
            "durationTicks": 48,
            "midi": 35,
            "name": "B1",
            "ticks": 44736,
            "time": 73.578837,
            "velocity": 0.6850393700787402
          },
          {
            "duration": 0.1578944999999976,
            "durationTicks": 96,
            "midi": 46,
            "name": "A#2",
            "ticks": 44736,
            "time": 73.578837,
            "velocity": 0.6850393700787402
          },
          {
            "duration": 0.15789450000001182,
            "durationTicks": 96,
            "midi": 38,
            "name": "D2",
            "ticks": 44832,
            "time": 73.73673149999999,
            "velocity": 0.6850393700787402
          },
          {
            "duration": 0.1578944999999976,
            "durationTicks": 96,
            "midi": 46,
            "name": "A#2",
            "ticks": 44928,
            "time": 73.894626,
            "velocity": 0.6850393700787402
          },
          {
            "duration": 0.1578944999999976,
            "durationTicks": 96,
            "midi": 35,
            "name": "B1",
            "ticks": 44928,
            "time": 73.894626,
            "velocity": 0.6850393700787402
          },
          {
            "duration": 0.1578944999999976,
            "durationTicks": 96,
            "midi": 38,
            "name": "D2",
            "ticks": 45024,
            "time": 74.0525205,
            "velocity": 0.6850393700787402
          },
          {
            "duration": 0.1578944999999976,
            "durationTicks": 96,
            "midi": 46,
            "name": "A#2",
            "ticks": 45120,
            "time": 74.210415,
            "velocity": 0.6850393700787402
          },
          {
            "duration": 0.0789472499999988,
            "durationTicks": 48,
            "midi": 35,
            "name": "B1",
            "ticks": 45120,
            "time": 74.210415,
            "velocity": 0.6850393700787402
          },
          {
            "duration": 0.0789472499999988,
            "durationTicks": 48,
            "midi": 35,
            "name": "B1",
            "ticks": 45168,
            "time": 74.28936225,
            "velocity": 0.6850393700787402
          },
          {
            "duration": 0.1578944999999976,
            "durationTicks": 96,
            "midi": 38,
            "name": "D2",
            "ticks": 45216,
            "time": 74.3683095,
            "velocity": 0.6850393700787402
          },
          {
            "duration": 0.1578944999999976,
            "durationTicks": 96,
            "midi": 46,
            "name": "A#2",
            "ticks": 45312,
            "time": 74.52620399999999,
            "velocity": 0.6850393700787402
          },
          {
            "duration": 0.1578944999999976,
            "durationTicks": 96,
            "midi": 35,
            "name": "B1",
            "ticks": 45312,
            "time": 74.52620399999999,
            "velocity": 0.6850393700787402
          },
          {
            "duration": 0.15789450000001182,
            "durationTicks": 96,
            "midi": 38,
            "name": "D2",
            "ticks": 45408,
            "time": 74.68409849999999,
            "velocity": 0.6850393700787402
          },
          {
            "duration": 0.1578944999999976,
            "durationTicks": 96,
            "midi": 46,
            "name": "A#2",
            "ticks": 45504,
            "time": 74.841993,
            "velocity": 0.6850393700787402
          },
          {
            "duration": 0.0789472499999988,
            "durationTicks": 48,
            "midi": 35,
            "name": "B1",
            "ticks": 45504,
            "time": 74.841993,
            "velocity": 0.6850393700787402
          },
          {
            "duration": 0.1578944999999976,
            "durationTicks": 96,
            "midi": 38,
            "name": "D2",
            "ticks": 45600,
            "time": 74.9998875,
            "velocity": 0.6850393700787402
          },
          {
            "duration": 0.1578944999999976,
            "durationTicks": 96,
            "midi": 35,
            "name": "B1",
            "ticks": 45696,
            "time": 75.157782,
            "velocity": 0.6850393700787402
          },
          {
            "duration": 0.1578944999999976,
            "durationTicks": 96,
            "midi": 46,
            "name": "A#2",
            "ticks": 45696,
            "time": 75.157782,
            "velocity": 0.6850393700787402
          },
          {
            "duration": 0.1578944999999976,
            "durationTicks": 96,
            "midi": 38,
            "name": "D2",
            "ticks": 45792,
            "time": 75.3156765,
            "velocity": 0.6850393700787402
          },
          {
            "duration": 0.0789472499999988,
            "durationTicks": 48,
            "midi": 35,
            "name": "B1",
            "ticks": 45888,
            "time": 75.47357099999999,
            "velocity": 0.6850393700787402
          },
          {
            "duration": 0.1578944999999976,
            "durationTicks": 96,
            "midi": 46,
            "name": "A#2",
            "ticks": 45888,
            "time": 75.47357099999999,
            "velocity": 0.6850393700787402
          },
          {
            "duration": 0.0789472499999988,
            "durationTicks": 48,
            "midi": 35,
            "name": "B1",
            "ticks": 45936,
            "time": 75.55251824999999,
            "velocity": 0.6850393700787402
          },
          {
            "duration": 0.15789450000001182,
            "durationTicks": 96,
            "midi": 38,
            "name": "D2",
            "ticks": 45984,
            "time": 75.63146549999999,
            "velocity": 0.6850393700787402
          },
          {
            "duration": 0.1578944999999976,
            "durationTicks": 96,
            "midi": 46,
            "name": "A#2",
            "ticks": 46080,
            "time": 75.78936,
            "velocity": 0.6850393700787402
          },
          {
            "duration": 0.1578944999999976,
            "durationTicks": 96,
            "midi": 49,
            "name": "C#3",
            "ticks": 46080,
            "time": 75.78936,
            "velocity": 0.6850393700787402
          },
          {
            "duration": 0.1578944999999976,
            "durationTicks": 96,
            "midi": 35,
            "name": "B1",
            "ticks": 46080,
            "time": 75.78936,
            "velocity": 0.6850393700787402
          },
          {
            "duration": 0.1578944999999976,
            "durationTicks": 96,
            "midi": 49,
            "name": "C#3",
            "ticks": 46080,
            "time": 75.78936,
            "velocity": 0.6850393700787402
          },
          {
            "duration": 0.1578944999999976,
            "durationTicks": 96,
            "midi": 52,
            "name": "E3",
            "ticks": 46080,
            "time": 75.78936,
            "velocity": 0.6850393700787402
          },
          {
            "duration": 0.1578944999999976,
            "durationTicks": 96,
            "midi": 38,
            "name": "D2",
            "ticks": 46176,
            "time": 75.9472545,
            "velocity": 0.6850393700787402
          },
          {
            "duration": 0.0789472499999988,
            "durationTicks": 48,
            "midi": 35,
            "name": "B1",
            "ticks": 46272,
            "time": 76.105149,
            "velocity": 0.6850393700787402
          },
          {
            "duration": 0.1578944999999976,
            "durationTicks": 96,
            "midi": 46,
            "name": "A#2",
            "ticks": 46272,
            "time": 76.105149,
            "velocity": 0.6850393700787402
          },
          {
            "duration": 0.1578944999999976,
            "durationTicks": 96,
            "midi": 38,
            "name": "D2",
            "ticks": 46368,
            "time": 76.2630435,
            "velocity": 0.6850393700787402
          },
          {
            "duration": 0.1578944999999976,
            "durationTicks": 96,
            "midi": 35,
            "name": "B1",
            "ticks": 46464,
            "time": 76.42093799999999,
            "velocity": 0.6850393700787402
          },
          {
            "duration": 0.1578944999999976,
            "durationTicks": 96,
            "midi": 46,
            "name": "A#2",
            "ticks": 46464,
            "time": 76.42093799999999,
            "velocity": 0.6850393700787402
          },
          {
            "duration": 0.15789450000001182,
            "durationTicks": 96,
            "midi": 38,
            "name": "D2",
            "ticks": 46560,
            "time": 76.57883249999999,
            "velocity": 0.6850393700787402
          },
          {
            "duration": 0.0789472499999988,
            "durationTicks": 48,
            "midi": 35,
            "name": "B1",
            "ticks": 46656,
            "time": 76.736727,
            "velocity": 0.6850393700787402
          },
          {
            "duration": 0.1578944999999976,
            "durationTicks": 96,
            "midi": 46,
            "name": "A#2",
            "ticks": 46656,
            "time": 76.736727,
            "velocity": 0.6850393700787402
          },
          {
            "duration": 0.0789472499999988,
            "durationTicks": 48,
            "midi": 35,
            "name": "B1",
            "ticks": 46704,
            "time": 76.81567425,
            "velocity": 0.6850393700787402
          },
          {
            "duration": 0.1578944999999976,
            "durationTicks": 96,
            "midi": 38,
            "name": "D2",
            "ticks": 46752,
            "time": 76.8946215,
            "velocity": 0.6850393700787402
          },
          {
            "duration": 0.1578944999999976,
            "durationTicks": 96,
            "midi": 35,
            "name": "B1",
            "ticks": 46848,
            "time": 77.052516,
            "velocity": 0.6850393700787402
          },
          {
            "duration": 0.1578944999999976,
            "durationTicks": 96,
            "midi": 46,
            "name": "A#2",
            "ticks": 46848,
            "time": 77.052516,
            "velocity": 0.6850393700787402
          },
          {
            "duration": 0.1578944999999976,
            "durationTicks": 96,
            "midi": 38,
            "name": "D2",
            "ticks": 46944,
            "time": 77.2104105,
            "velocity": 0.6850393700787402
          },
          {
            "duration": 0.0789472499999988,
            "durationTicks": 48,
            "midi": 35,
            "name": "B1",
            "ticks": 47040,
            "time": 77.36830499999999,
            "velocity": 0.6850393700787402
          },
          {
            "duration": 0.1578944999999976,
            "durationTicks": 96,
            "midi": 46,
            "name": "A#2",
            "ticks": 47040,
            "time": 77.36830499999999,
            "velocity": 0.6850393700787402
          },
          {
            "duration": 0.15789450000001182,
            "durationTicks": 96,
            "midi": 38,
            "name": "D2",
            "ticks": 47136,
            "time": 77.52619949999999,
            "velocity": 0.6850393700787402
          },
          {
            "duration": 0.1578944999999976,
            "durationTicks": 96,
            "midi": 46,
            "name": "A#2",
            "ticks": 47232,
            "time": 77.684094,
            "velocity": 0.6850393700787402
          },
          {
            "duration": 0.1578944999999976,
            "durationTicks": 96,
            "midi": 35,
            "name": "B1",
            "ticks": 47232,
            "time": 77.684094,
            "velocity": 0.6850393700787402
          },
          {
            "duration": 0.1578944999999976,
            "durationTicks": 96,
            "midi": 38,
            "name": "D2",
            "ticks": 47328,
            "time": 77.8419885,
            "velocity": 0.6850393700787402
          },
          {
            "duration": 0.1578944999999976,
            "durationTicks": 96,
            "midi": 46,
            "name": "A#2",
            "ticks": 47424,
            "time": 77.999883,
            "velocity": 0.6850393700787402
          },
          {
            "duration": 0.0789472499999988,
            "durationTicks": 48,
            "midi": 35,
            "name": "B1",
            "ticks": 47424,
            "time": 77.999883,
            "velocity": 0.6850393700787402
          },
          {
            "duration": 0.0789472499999988,
            "durationTicks": 48,
            "midi": 35,
            "name": "B1",
            "ticks": 47472,
            "time": 78.07883025,
            "velocity": 0.6850393700787402
          },
          {
            "duration": 0.1578944999999976,
            "durationTicks": 96,
            "midi": 38,
            "name": "D2",
            "ticks": 47520,
            "time": 78.1577775,
            "velocity": 0.6850393700787402
          },
          {
            "duration": 0.1578944999999976,
            "durationTicks": 96,
            "midi": 52,
            "name": "E3",
            "ticks": 47616,
            "time": 78.31567199999999,
            "velocity": 0.6850393700787402
          },
          {
            "duration": 0.1578944999999976,
            "durationTicks": 96,
            "midi": 49,
            "name": "C#3",
            "ticks": 47616,
            "time": 78.31567199999999,
            "velocity": 0.6850393700787402
          },
          {
            "duration": 0.1578944999999976,
            "durationTicks": 96,
            "midi": 49,
            "name": "C#3",
            "ticks": 47616,
            "time": 78.31567199999999,
            "velocity": 0.6850393700787402
          },
          {
            "duration": 0.1578944999999976,
            "durationTicks": 96,
            "midi": 46,
            "name": "A#2",
            "ticks": 47616,
            "time": 78.31567199999999,
            "velocity": 0.6850393700787402
          },
          {
            "duration": 0.1578944999999976,
            "durationTicks": 96,
            "midi": 35,
            "name": "B1",
            "ticks": 47616,
            "time": 78.31567199999999,
            "velocity": 0.6850393700787402
          },
          {
            "duration": 0.15789450000001182,
            "durationTicks": 96,
            "midi": 38,
            "name": "D2",
            "ticks": 47712,
            "time": 78.47356649999999,
            "velocity": 0.6850393700787402
          },
          {
            "duration": 0.0789472499999988,
            "durationTicks": 48,
            "midi": 35,
            "name": "B1",
            "ticks": 47808,
            "time": 78.631461,
            "velocity": 0.6850393700787402
          },
          {
            "duration": 0.1578944999999976,
            "durationTicks": 96,
            "midi": 46,
            "name": "A#2",
            "ticks": 47808,
            "time": 78.631461,
            "velocity": 0.6850393700787402
          },
          {
            "duration": 0.1578944999999976,
            "durationTicks": 96,
            "midi": 38,
            "name": "D2",
            "ticks": 47904,
            "time": 78.7893555,
            "velocity": 0.6850393700787402
          },
          {
            "duration": 0.1578944999999976,
            "durationTicks": 96,
            "midi": 35,
            "name": "B1",
            "ticks": 48000,
            "time": 78.94725,
            "velocity": 0.6850393700787402
          },
          {
            "duration": 0.1578944999999976,
            "durationTicks": 96,
            "midi": 46,
            "name": "A#2",
            "ticks": 48000,
            "time": 78.94725,
            "velocity": 0.6850393700787402
          },
          {
            "duration": 0.1578944999999976,
            "durationTicks": 96,
            "midi": 38,
            "name": "D2",
            "ticks": 48096,
            "time": 79.1051445,
            "velocity": 0.6850393700787402
          },
          {
            "duration": 0.0789472499999988,
            "durationTicks": 48,
            "midi": 35,
            "name": "B1",
            "ticks": 48192,
            "time": 79.26303899999999,
            "velocity": 0.6850393700787402
          },
          {
            "duration": 0.1578944999999976,
            "durationTicks": 96,
            "midi": 46,
            "name": "A#2",
            "ticks": 48192,
            "time": 79.26303899999999,
            "velocity": 0.6850393700787402
          },
          {
            "duration": 0.0789472499999988,
            "durationTicks": 48,
            "midi": 35,
            "name": "B1",
            "ticks": 48240,
            "time": 79.34198624999999,
            "velocity": 0.6850393700787402
          },
          {
            "duration": 0.15789450000001182,
            "durationTicks": 96,
            "midi": 38,
            "name": "D2",
            "ticks": 48288,
            "time": 79.42093349999999,
            "velocity": 0.6850393700787402
          },
          {
            "duration": 0.1578944999999976,
            "durationTicks": 96,
            "midi": 49,
            "name": "C#3",
            "ticks": 49152,
            "time": 80.841984,
            "velocity": 0.6850393700787402
          },
          {
            "duration": 0.1578944999999976,
            "durationTicks": 96,
            "midi": 52,
            "name": "E3",
            "ticks": 49152,
            "time": 80.841984,
            "velocity": 0.6850393700787402
          },
          {
            "duration": 0.1578944999999976,
            "durationTicks": 96,
            "midi": 49,
            "name": "C#3",
            "ticks": 49152,
            "time": 80.841984,
            "velocity": 0.6850393700787402
          },
          {
            "duration": 0.1578944999999976,
            "durationTicks": 96,
            "midi": 35,
            "name": "B1",
            "ticks": 49152,
            "time": 80.841984,
            "velocity": 0.6850393700787402
          },
          {
            "duration": 0.1578944999999976,
            "durationTicks": 96,
            "midi": 46,
            "name": "A#2",
            "ticks": 49152,
            "time": 80.841984,
            "velocity": 0.6850393700787402
          },
          {
            "duration": 0.1578944999999976,
            "durationTicks": 96,
            "midi": 38,
            "name": "D2",
            "ticks": 49248,
            "time": 80.9998785,
            "velocity": 0.6850393700787402
          },
          {
            "duration": 0.0789472499999988,
            "durationTicks": 48,
            "midi": 35,
            "name": "B1",
            "ticks": 49344,
            "time": 81.15777299999999,
            "velocity": 0.6850393700787402
          },
          {
            "duration": 0.15789450000001182,
            "durationTicks": 96,
            "midi": 46,
            "name": "A#2",
            "ticks": 49344,
            "time": 81.15777299999999,
            "velocity": 0.6850393700787402
          },
          {
            "duration": 0.1578944999999976,
            "durationTicks": 96,
            "midi": 38,
            "name": "D2",
            "ticks": 49440,
            "time": 81.3156675,
            "velocity": 0.6850393700787402
          },
          {
            "duration": 0.1578944999999976,
            "durationTicks": 96,
            "midi": 35,
            "name": "B1",
            "ticks": 49536,
            "time": 81.473562,
            "velocity": 0.6850393700787402
          },
          {
            "duration": 0.1578944999999976,
            "durationTicks": 96,
            "midi": 46,
            "name": "A#2",
            "ticks": 49536,
            "time": 81.473562,
            "velocity": 0.6850393700787402
          },
          {
            "duration": 0.1578944999999976,
            "durationTicks": 96,
            "midi": 38,
            "name": "D2",
            "ticks": 49632,
            "time": 81.6314565,
            "velocity": 0.6850393700787402
          },
          {
            "duration": 0.0789472499999988,
            "durationTicks": 48,
            "midi": 35,
            "name": "B1",
            "ticks": 49728,
            "time": 81.789351,
            "velocity": 0.6850393700787402
          },
          {
            "duration": 0.1578944999999976,
            "durationTicks": 96,
            "midi": 46,
            "name": "A#2",
            "ticks": 49728,
            "time": 81.789351,
            "velocity": 0.6850393700787402
          },
          {
            "duration": 0.0789472499999988,
            "durationTicks": 48,
            "midi": 35,
            "name": "B1",
            "ticks": 49776,
            "time": 81.86829825,
            "velocity": 0.6850393700787402
          },
          {
            "duration": 0.1578944999999976,
            "durationTicks": 96,
            "midi": 38,
            "name": "D2",
            "ticks": 49824,
            "time": 81.9472455,
            "velocity": 0.6850393700787402
          },
          {
            "duration": 0.15789450000001182,
            "durationTicks": 96,
            "midi": 35,
            "name": "B1",
            "ticks": 49920,
            "time": 82.10513999999999,
            "velocity": 0.6850393700787402
          },
          {
            "duration": 0.15789450000001182,
            "durationTicks": 96,
            "midi": 46,
            "name": "A#2",
            "ticks": 49920,
            "time": 82.10513999999999,
            "velocity": 0.6850393700787402
          },
          {
            "duration": 0.1578944999999976,
            "durationTicks": 96,
            "midi": 38,
            "name": "D2",
            "ticks": 50016,
            "time": 82.2630345,
            "velocity": 0.6850393700787402
          },
          {
            "duration": 0.1578944999999976,
            "durationTicks": 96,
            "midi": 46,
            "name": "A#2",
            "ticks": 50112,
            "time": 82.420929,
            "velocity": 0.6850393700787402
          },
          {
            "duration": 0.0789472499999988,
            "durationTicks": 48,
            "midi": 35,
            "name": "B1",
            "ticks": 50112,
            "time": 82.420929,
            "velocity": 0.6850393700787402
          },
          {
            "duration": 0.1578944999999976,
            "durationTicks": 96,
            "midi": 38,
            "name": "D2",
            "ticks": 50208,
            "time": 82.5788235,
            "velocity": 0.6850393700787402
          },
          {
            "duration": 0.1578944999999976,
            "durationTicks": 96,
            "midi": 46,
            "name": "A#2",
            "ticks": 50304,
            "time": 82.736718,
            "velocity": 0.6850393700787402
          },
          {
            "duration": 0.1578944999999976,
            "durationTicks": 96,
            "midi": 35,
            "name": "B1",
            "ticks": 50304,
            "time": 82.736718,
            "velocity": 0.6850393700787402
          },
          {
            "duration": 0.1578944999999976,
            "durationTicks": 96,
            "midi": 38,
            "name": "D2",
            "ticks": 50400,
            "time": 82.8946125,
            "velocity": 0.6850393700787402
          },
          {
            "duration": 0.0789472499999988,
            "durationTicks": 48,
            "midi": 35,
            "name": "B1",
            "ticks": 50496,
            "time": 83.05250699999999,
            "velocity": 0.6850393700787402
          },
          {
            "duration": 0.15789450000001182,
            "durationTicks": 96,
            "midi": 46,
            "name": "A#2",
            "ticks": 50496,
            "time": 83.05250699999999,
            "velocity": 0.6850393700787402
          },
          {
            "duration": 0.07894725000001301,
            "durationTicks": 48,
            "midi": 35,
            "name": "B1",
            "ticks": 50544,
            "time": 83.13145424999999,
            "velocity": 0.6850393700787402
          },
          {
            "duration": 0.1578944999999976,
            "durationTicks": 96,
            "midi": 38,
            "name": "D2",
            "ticks": 50592,
            "time": 83.2104015,
            "velocity": 0.6850393700787402
          },
          {
            "duration": 0.1578944999999976,
            "durationTicks": 96,
            "midi": 46,
            "name": "A#2",
            "ticks": 50688,
            "time": 83.368296,
            "velocity": 0.6850393700787402
          },
          {
            "duration": 0.1578944999999976,
            "durationTicks": 96,
            "midi": 49,
            "name": "C#3",
            "ticks": 50688,
            "time": 83.368296,
            "velocity": 0.6850393700787402
          },
          {
            "duration": 0.1578944999999976,
            "durationTicks": 96,
            "midi": 35,
            "name": "B1",
            "ticks": 50688,
            "time": 83.368296,
            "velocity": 0.6850393700787402
          },
          {
            "duration": 0.1578944999999976,
            "durationTicks": 96,
            "midi": 52,
            "name": "E3",
            "ticks": 50688,
            "time": 83.368296,
            "velocity": 0.6850393700787402
          },
          {
            "duration": 0.1578944999999976,
            "durationTicks": 96,
            "midi": 49,
            "name": "C#3",
            "ticks": 50688,
            "time": 83.368296,
            "velocity": 0.6850393700787402
          },
          {
            "duration": 0.1578944999999976,
            "durationTicks": 96,
            "midi": 38,
            "name": "D2",
            "ticks": 50784,
            "time": 83.5261905,
            "velocity": 0.6850393700787402
          },
          {
            "duration": 0.0789472499999988,
            "durationTicks": 48,
            "midi": 35,
            "name": "B1",
            "ticks": 50880,
            "time": 83.684085,
            "velocity": 0.6850393700787402
          },
          {
            "duration": 0.1578944999999976,
            "durationTicks": 96,
            "midi": 46,
            "name": "A#2",
            "ticks": 50880,
            "time": 83.684085,
            "velocity": 0.6850393700787402
          },
          {
            "duration": 0.1578944999999976,
            "durationTicks": 96,
            "midi": 38,
            "name": "D2",
            "ticks": 50976,
            "time": 83.8419795,
            "velocity": 0.6850393700787402
          },
          {
            "duration": 0.15789450000001182,
            "durationTicks": 96,
            "midi": 46,
            "name": "A#2",
            "ticks": 51072,
            "time": 83.99987399999999,
            "velocity": 0.6850393700787402
          },
          {
            "duration": 0.15789450000001182,
            "durationTicks": 96,
            "midi": 35,
            "name": "B1",
            "ticks": 51072,
            "time": 83.99987399999999,
            "velocity": 0.6850393700787402
          },
          {
            "duration": 0.1578944999999976,
            "durationTicks": 96,
            "midi": 38,
            "name": "D2",
            "ticks": 51168,
            "time": 84.1577685,
            "velocity": 0.6850393700787402
          },
          {
            "duration": 0.1578944999999976,
            "durationTicks": 96,
            "midi": 46,
            "name": "A#2",
            "ticks": 51264,
            "time": 84.315663,
            "velocity": 0.6850393700787402
          },
          {
            "duration": 0.0789472499999988,
            "durationTicks": 48,
            "midi": 35,
            "name": "B1",
            "ticks": 51264,
            "time": 84.315663,
            "velocity": 0.6850393700787402
          },
          {
            "duration": 0.0789472499999988,
            "durationTicks": 48,
            "midi": 35,
            "name": "B1",
            "ticks": 51312,
            "time": 84.39461025,
            "velocity": 0.6850393700787402
          },
          {
            "duration": 0.1578944999999976,
            "durationTicks": 96,
            "midi": 38,
            "name": "D2",
            "ticks": 51360,
            "time": 84.4735575,
            "velocity": 0.6850393700787402
          },
          {
            "duration": 0.1578944999999976,
            "durationTicks": 96,
            "midi": 35,
            "name": "B1",
            "ticks": 51456,
            "time": 84.631452,
            "velocity": 0.6850393700787402
          },
          {
            "duration": 0.1578944999999976,
            "durationTicks": 96,
            "midi": 46,
            "name": "A#2",
            "ticks": 51456,
            "time": 84.631452,
            "velocity": 0.6850393700787402
          },
          {
            "duration": 0.1578944999999976,
            "durationTicks": 96,
            "midi": 38,
            "name": "D2",
            "ticks": 51552,
            "time": 84.7893465,
            "velocity": 0.6850393700787402
          },
          {
            "duration": 0.15789450000001182,
            "durationTicks": 96,
            "midi": 46,
            "name": "A#2",
            "ticks": 51648,
            "time": 84.94724099999999,
            "velocity": 0.6850393700787402
          },
          {
            "duration": 0.0789472499999988,
            "durationTicks": 48,
            "midi": 35,
            "name": "B1",
            "ticks": 51648,
            "time": 84.94724099999999,
            "velocity": 0.6850393700787402
          },
          {
            "duration": 0.1578944999999976,
            "durationTicks": 96,
            "midi": 38,
            "name": "D2",
            "ticks": 51744,
            "time": 85.1051355,
            "velocity": 0.6850393700787402
          },
          {
            "duration": 0.1578944999999976,
            "durationTicks": 96,
            "midi": 46,
            "name": "A#2",
            "ticks": 51840,
            "time": 85.26303,
            "velocity": 0.6850393700787402
          },
          {
            "duration": 0.1578944999999976,
            "durationTicks": 96,
            "midi": 35,
            "name": "B1",
            "ticks": 51840,
            "time": 85.26303,
            "velocity": 0.6850393700787402
          },
          {
            "duration": 0.1578944999999976,
            "durationTicks": 96,
            "midi": 38,
            "name": "D2",
            "ticks": 51936,
            "time": 85.4209245,
            "velocity": 0.6850393700787402
          },
          {
            "duration": 0.1578944999999976,
            "durationTicks": 96,
            "midi": 46,
            "name": "A#2",
            "ticks": 52032,
            "time": 85.578819,
            "velocity": 0.6850393700787402
          },
          {
            "duration": 0.0789472499999988,
            "durationTicks": 48,
            "midi": 35,
            "name": "B1",
            "ticks": 52032,
            "time": 85.578819,
            "velocity": 0.6850393700787402
          },
          {
            "duration": 0.0789472499999988,
            "durationTicks": 48,
            "midi": 35,
            "name": "B1",
            "ticks": 52080,
            "time": 85.65776625,
            "velocity": 0.6850393700787402
          },
          {
            "duration": 0.1578944999999976,
            "durationTicks": 96,
            "midi": 38,
            "name": "D2",
            "ticks": 52128,
            "time": 85.7367135,
            "velocity": 0.6850393700787402
          },
          {
            "duration": 0.15789450000001182,
            "durationTicks": 96,
            "midi": 49,
            "name": "C#3",
            "ticks": 52224,
            "time": 85.89460799999999,
            "velocity": 0.6850393700787402
          },
          {
            "duration": 0.15789450000001182,
            "durationTicks": 96,
            "midi": 52,
            "name": "E3",
            "ticks": 52224,
            "time": 85.89460799999999,
            "velocity": 0.6850393700787402
          },
          {
            "duration": 0.15789450000001182,
            "durationTicks": 96,
            "midi": 35,
            "name": "B1",
            "ticks": 52224,
            "time": 85.89460799999999,
            "velocity": 0.6850393700787402
          },
          {
            "duration": 0.15789450000001182,
            "durationTicks": 96,
            "midi": 49,
            "name": "C#3",
            "ticks": 52224,
            "time": 85.89460799999999,
            "velocity": 0.6850393700787402
          },
          {
            "duration": 0.15789450000001182,
            "durationTicks": 96,
            "midi": 46,
            "name": "A#2",
            "ticks": 52224,
            "time": 85.89460799999999,
            "velocity": 0.6850393700787402
          },
          {
            "duration": 0.1578944999999976,
            "durationTicks": 96,
            "midi": 38,
            "name": "D2",
            "ticks": 52320,
            "time": 86.0525025,
            "velocity": 0.6850393700787402
          },
          {
            "duration": 0.1578944999999976,
            "durationTicks": 96,
            "midi": 46,
            "name": "A#2",
            "ticks": 52416,
            "time": 86.210397,
            "velocity": 0.6850393700787402
          },
          {
            "duration": 0.0789472499999988,
            "durationTicks": 48,
            "midi": 35,
            "name": "B1",
            "ticks": 52416,
            "time": 86.210397,
            "velocity": 0.6850393700787402
          },
          {
            "duration": 0.1578944999999976,
            "durationTicks": 96,
            "midi": 38,
            "name": "D2",
            "ticks": 52512,
            "time": 86.3682915,
            "velocity": 0.6850393700787402
          },
          {
            "duration": 0.1578944999999976,
            "durationTicks": 96,
            "midi": 46,
            "name": "A#2",
            "ticks": 52608,
            "time": 86.526186,
            "velocity": 0.6850393700787402
          },
          {
            "duration": 0.1578944999999976,
            "durationTicks": 96,
            "midi": 35,
            "name": "B1",
            "ticks": 52608,
            "time": 86.526186,
            "velocity": 0.6850393700787402
          },
          {
            "duration": 0.1578944999999976,
            "durationTicks": 96,
            "midi": 38,
            "name": "D2",
            "ticks": 52704,
            "time": 86.6840805,
            "velocity": 0.6850393700787402
          },
          {
            "duration": 0.15789450000001182,
            "durationTicks": 96,
            "midi": 46,
            "name": "A#2",
            "ticks": 52800,
            "time": 86.84197499999999,
            "velocity": 0.6850393700787402
          },
          {
            "duration": 0.0789472499999988,
            "durationTicks": 48,
            "midi": 35,
            "name": "B1",
            "ticks": 52800,
            "time": 86.84197499999999,
            "velocity": 0.6850393700787402
          },
          {
            "duration": 0.07894725000001301,
            "durationTicks": 48,
            "midi": 35,
            "name": "B1",
            "ticks": 52848,
            "time": 86.92092224999999,
            "velocity": 0.6850393700787402
          },
          {
            "duration": 0.1578944999999976,
            "durationTicks": 96,
            "midi": 38,
            "name": "D2",
            "ticks": 52896,
            "time": 86.9998695,
            "velocity": 0.6850393700787402
          },
          {
            "duration": 0.1578944999999976,
            "durationTicks": 96,
            "midi": 35,
            "name": "B1",
            "ticks": 52992,
            "time": 87.157764,
            "velocity": 0.6850393700787402
          },
          {
            "duration": 0.1578944999999976,
            "durationTicks": 96,
            "midi": 46,
            "name": "A#2",
            "ticks": 52992,
            "time": 87.157764,
            "velocity": 0.6850393700787402
          },
          {
            "duration": 0.1578944999999976,
            "durationTicks": 96,
            "midi": 38,
            "name": "D2",
            "ticks": 53088,
            "time": 87.3156585,
            "velocity": 0.6850393700787402
          },
          {
            "duration": 0.1578944999999976,
            "durationTicks": 96,
            "midi": 46,
            "name": "A#2",
            "ticks": 53184,
            "time": 87.473553,
            "velocity": 0.6850393700787402
          },
          {
            "duration": 0.0789472499999988,
            "durationTicks": 48,
            "midi": 35,
            "name": "B1",
            "ticks": 53184,
            "time": 87.473553,
            "velocity": 0.6850393700787402
          },
          {
            "duration": 0.1578944999999976,
            "durationTicks": 96,
            "midi": 38,
            "name": "D2",
            "ticks": 53280,
            "time": 87.6314475,
            "velocity": 0.6850393700787402
          },
          {
            "duration": 0.15789450000001182,
            "durationTicks": 96,
            "midi": 46,
            "name": "A#2",
            "ticks": 53376,
            "time": 87.78934199999999,
            "velocity": 0.6850393700787402
          },
          {
            "duration": 0.15789450000001182,
            "durationTicks": 96,
            "midi": 35,
            "name": "B1",
            "ticks": 53376,
            "time": 87.78934199999999,
            "velocity": 0.6850393700787402
          },
          {
            "duration": 0.1578944999999976,
            "durationTicks": 96,
            "midi": 38,
            "name": "D2",
            "ticks": 53472,
            "time": 87.9472365,
            "velocity": 0.6850393700787402
          },
          {
            "duration": 0.1578944999999976,
            "durationTicks": 96,
            "midi": 46,
            "name": "A#2",
            "ticks": 53568,
            "time": 88.105131,
            "velocity": 0.6850393700787402
          },
          {
            "duration": 0.0789472499999988,
            "durationTicks": 48,
            "midi": 35,
            "name": "B1",
            "ticks": 53568,
            "time": 88.105131,
            "velocity": 0.6850393700787402
          },
          {
            "duration": 0.0789472499999988,
            "durationTicks": 48,
            "midi": 35,
            "name": "B1",
            "ticks": 53616,
            "time": 88.18407825,
            "velocity": 0.6850393700787402
          },
          {
            "duration": 0.1578944999999976,
            "durationTicks": 96,
            "midi": 38,
            "name": "D2",
            "ticks": 53664,
            "time": 88.2630255,
            "velocity": 0.6850393700787402
          },
          {
            "duration": 0.1578944999999976,
            "durationTicks": 96,
            "midi": 52,
            "name": "E3",
            "ticks": 53760,
            "time": 88.42092,
            "velocity": 0.6850393700787402
          },
          {
            "duration": 0.1578944999999976,
            "durationTicks": 96,
            "midi": 46,
            "name": "A#2",
            "ticks": 53760,
            "time": 88.42092,
            "velocity": 0.6850393700787402
          },
          {
            "duration": 0.1578944999999976,
            "durationTicks": 96,
            "midi": 49,
            "name": "C#3",
            "ticks": 53760,
            "time": 88.42092,
            "velocity": 0.6850393700787402
          },
          {
            "duration": 0.1578944999999976,
            "durationTicks": 96,
            "midi": 49,
            "name": "C#3",
            "ticks": 53760,
            "time": 88.42092,
            "velocity": 0.6850393700787402
          },
          {
            "duration": 0.1578944999999976,
            "durationTicks": 96,
            "midi": 35,
            "name": "B1",
            "ticks": 53760,
            "time": 88.42092,
            "velocity": 0.6850393700787402
          },
          {
            "duration": 0.1578944999999976,
            "durationTicks": 96,
            "midi": 38,
            "name": "D2",
            "ticks": 53856,
            "time": 88.5788145,
            "velocity": 0.6850393700787402
          },
          {
            "duration": 0.0789472499999988,
            "durationTicks": 48,
            "midi": 35,
            "name": "B1",
            "ticks": 53952,
            "time": 88.73670899999999,
            "velocity": 0.6850393700787402
          },
          {
            "duration": 0.15789450000001182,
            "durationTicks": 96,
            "midi": 46,
            "name": "A#2",
            "ticks": 53952,
            "time": 88.73670899999999,
            "velocity": 0.6850393700787402
          },
          {
            "duration": 0.1578944999999976,
            "durationTicks": 96,
            "midi": 38,
            "name": "D2",
            "ticks": 54048,
            "time": 88.8946035,
            "velocity": 0.6850393700787402
          },
          {
            "duration": 0.1578944999999976,
            "durationTicks": 96,
            "midi": 35,
            "name": "B1",
            "ticks": 54144,
            "time": 89.052498,
            "velocity": 0.6850393700787402
          },
          {
            "duration": 0.1578944999999976,
            "durationTicks": 96,
            "midi": 46,
            "name": "A#2",
            "ticks": 54144,
            "time": 89.052498,
            "velocity": 0.6850393700787402
          },
          {
            "duration": 0.1578944999999976,
            "durationTicks": 96,
            "midi": 38,
            "name": "D2",
            "ticks": 54240,
            "time": 89.2103925,
            "velocity": 0.6850393700787402
          },
          {
            "duration": 0.1578944999999976,
            "durationTicks": 96,
            "midi": 46,
            "name": "A#2",
            "ticks": 54336,
            "time": 89.368287,
            "velocity": 0.6850393700787402
          },
          {
            "duration": 0.0789472499999988,
            "durationTicks": 48,
            "midi": 35,
            "name": "B1",
            "ticks": 54336,
            "time": 89.368287,
            "velocity": 0.6850393700787402
          },
          {
            "duration": 0.0789472499999988,
            "durationTicks": 48,
            "midi": 35,
            "name": "B1",
            "ticks": 54384,
            "time": 89.44723425,
            "velocity": 0.6850393700787402
          },
          {
            "duration": 0.1578944999999976,
            "durationTicks": 96,
            "midi": 38,
            "name": "D2",
            "ticks": 54432,
            "time": 89.52618149999999,
            "velocity": 0.6850393700787402
          },
          {
            "duration": 0.15789450000001182,
            "durationTicks": 96,
            "midi": 35,
            "name": "B1",
            "ticks": 54528,
            "time": 89.68407599999999,
            "velocity": 0.6850393700787402
          },
          {
            "duration": 0.15789450000001182,
            "durationTicks": 96,
            "midi": 46,
            "name": "A#2",
            "ticks": 54528,
            "time": 89.68407599999999,
            "velocity": 0.6850393700787402
          },
          {
            "duration": 0.1578944999999976,
            "durationTicks": 96,
            "midi": 38,
            "name": "D2",
            "ticks": 54624,
            "time": 89.8419705,
            "velocity": 0.6850393700787402
          },
          {
            "duration": 0.0789472499999988,
            "durationTicks": 48,
            "midi": 35,
            "name": "B1",
            "ticks": 54720,
            "time": 89.999865,
            "velocity": 0.6850393700787402
          },
          {
            "duration": 0.1578944999999976,
            "durationTicks": 96,
            "midi": 46,
            "name": "A#2",
            "ticks": 54720,
            "time": 89.999865,
            "velocity": 0.6850393700787402
          },
          {
            "duration": 0.1578944999999976,
            "durationTicks": 96,
            "midi": 38,
            "name": "D2",
            "ticks": 54816,
            "time": 90.1577595,
            "velocity": 0.6850393700787402
          },
          {
            "duration": 0.1578944999999976,
            "durationTicks": 96,
            "midi": 35,
            "name": "B1",
            "ticks": 54912,
            "time": 90.315654,
            "velocity": 0.6850393700787402
          },
          {
            "duration": 0.1578944999999976,
            "durationTicks": 96,
            "midi": 46,
            "name": "A#2",
            "ticks": 54912,
            "time": 90.315654,
            "velocity": 0.6850393700787402
          },
          {
            "duration": 0.1578944999999976,
            "durationTicks": 96,
            "midi": 38,
            "name": "D2",
            "ticks": 55008,
            "time": 90.47354849999999,
            "velocity": 0.6850393700787402
          },
          {
            "duration": 0.0789472499999988,
            "durationTicks": 48,
            "midi": 35,
            "name": "B1",
            "ticks": 55104,
            "time": 90.63144299999999,
            "velocity": 0.6850393700787402
          },
          {
            "duration": 0.15789450000001182,
            "durationTicks": 96,
            "midi": 46,
            "name": "A#2",
            "ticks": 55104,
            "time": 90.63144299999999,
            "velocity": 0.6850393700787402
          },
          {
            "duration": 0.07894725000001301,
            "durationTicks": 48,
            "midi": 35,
            "name": "B1",
            "ticks": 55152,
            "time": 90.71039024999999,
            "velocity": 0.6850393700787402
          },
          {
            "duration": 0.1578944999999976,
            "durationTicks": 96,
            "midi": 38,
            "name": "D2",
            "ticks": 55200,
            "time": 90.7893375,
            "velocity": 0.6850393700787402
          },
          {
            "duration": 0.1578944999999976,
            "durationTicks": 96,
            "midi": 46,
            "name": "A#2",
            "ticks": 55296,
            "time": 90.947232,
            "velocity": 0.6850393700787402
          },
          {
            "duration": 0.1578944999999976,
            "durationTicks": 96,
            "midi": 49,
            "name": "C#3",
            "ticks": 55296,
            "time": 90.947232,
            "velocity": 0.6850393700787402
          },
          {
            "duration": 0.1578944999999976,
            "durationTicks": 96,
            "midi": 52,
            "name": "E3",
            "ticks": 55296,
            "time": 90.947232,
            "velocity": 0.6850393700787402
          },
          {
            "duration": 0.1578944999999976,
            "durationTicks": 96,
            "midi": 49,
            "name": "C#3",
            "ticks": 55296,
            "time": 90.947232,
            "velocity": 0.6850393700787402
          },
          {
            "duration": 0.1578944999999976,
            "durationTicks": 96,
            "midi": 35,
            "name": "B1",
            "ticks": 55296,
            "time": 90.947232,
            "velocity": 0.6850393700787402
          },
          {
            "duration": 0.1578944999999976,
            "durationTicks": 96,
            "midi": 38,
            "name": "D2",
            "ticks": 55392,
            "time": 91.1051265,
            "velocity": 0.6850393700787402
          },
          {
            "duration": 0.0789472499999988,
            "durationTicks": 48,
            "midi": 35,
            "name": "B1",
            "ticks": 55488,
            "time": 91.263021,
            "velocity": 0.6850393700787402
          },
          {
            "duration": 0.1578944999999976,
            "durationTicks": 96,
            "midi": 46,
            "name": "A#2",
            "ticks": 55488,
            "time": 91.263021,
            "velocity": 0.6850393700787402
          },
          {
            "duration": 0.1578944999999976,
            "durationTicks": 96,
            "midi": 38,
            "name": "D2",
            "ticks": 55584,
            "time": 91.42091549999999,
            "velocity": 0.6850393700787402
          },
          {
            "duration": 0.15789450000001182,
            "durationTicks": 96,
            "midi": 35,
            "name": "B1",
            "ticks": 55680,
            "time": 91.57880999999999,
            "velocity": 0.6850393700787402
          },
          {
            "duration": 0.15789450000001182,
            "durationTicks": 96,
            "midi": 46,
            "name": "A#2",
            "ticks": 55680,
            "time": 91.57880999999999,
            "velocity": 0.6850393700787402
          },
          {
            "duration": 0.1578944999999976,
            "durationTicks": 96,
            "midi": 38,
            "name": "D2",
            "ticks": 55776,
            "time": 91.7367045,
            "velocity": 0.6850393700787402
          },
          {
            "duration": 0.0789472499999988,
            "durationTicks": 48,
            "midi": 35,
            "name": "B1",
            "ticks": 55872,
            "time": 91.894599,
            "velocity": 0.6850393700787402
          },
          {
            "duration": 0.1578944999999976,
            "durationTicks": 96,
            "midi": 46,
            "name": "A#2",
            "ticks": 55872,
            "time": 91.894599,
            "velocity": 0.6850393700787402
          },
          {
            "duration": 0.0789472499999988,
            "durationTicks": 48,
            "midi": 35,
            "name": "B1",
            "ticks": 55920,
            "time": 91.97354625,
            "velocity": 0.6850393700787402
          },
          {
            "duration": 0.1578944999999976,
            "durationTicks": 96,
            "midi": 38,
            "name": "D2",
            "ticks": 55968,
            "time": 92.0524935,
            "velocity": 0.6850393700787402
          },
          {
            "duration": 0.1578944999999976,
            "durationTicks": 96,
            "midi": 46,
            "name": "A#2",
            "ticks": 56064,
            "time": 92.210388,
            "velocity": 0.6850393700787402
          },
          {
            "duration": 0.1578944999999976,
            "durationTicks": 96,
            "midi": 35,
            "name": "B1",
            "ticks": 56064,
            "time": 92.210388,
            "velocity": 0.6850393700787402
          },
          {
            "duration": 0.1578944999999976,
            "durationTicks": 96,
            "midi": 38,
            "name": "D2",
            "ticks": 56160,
            "time": 92.36828249999999,
            "velocity": 0.6850393700787402
          },
          {
            "duration": 0.07894725000001301,
            "durationTicks": 48,
            "midi": 35,
            "name": "B1",
            "ticks": 56256,
            "time": 92.52617699999999,
            "velocity": 0.6850393700787402
          },
          {
            "duration": 0.15789450000001182,
            "durationTicks": 96,
            "midi": 46,
            "name": "A#2",
            "ticks": 56256,
            "time": 92.52617699999999,
            "velocity": 0.6850393700787402
          },
          {
            "duration": 0.1578944999999976,
            "durationTicks": 96,
            "midi": 38,
            "name": "D2",
            "ticks": 56352,
            "time": 92.6840715,
            "velocity": 0.6850393700787402
          },
          {
            "duration": 0.1578944999999976,
            "durationTicks": 96,
            "midi": 46,
            "name": "A#2",
            "ticks": 56448,
            "time": 92.841966,
            "velocity": 0.6850393700787402
          },
          {
            "duration": 0.1578944999999976,
            "durationTicks": 96,
            "midi": 35,
            "name": "B1",
            "ticks": 56448,
            "time": 92.841966,
            "velocity": 0.6850393700787402
          },
          {
            "duration": 0.1578944999999976,
            "durationTicks": 96,
            "midi": 38,
            "name": "D2",
            "ticks": 56544,
            "time": 92.9998605,
            "velocity": 0.6850393700787402
          },
          {
            "duration": 0.0789472499999988,
            "durationTicks": 48,
            "midi": 35,
            "name": "B1",
            "ticks": 56640,
            "time": 93.157755,
            "velocity": 0.6850393700787402
          },
          {
            "duration": 0.1578944999999976,
            "durationTicks": 96,
            "midi": 46,
            "name": "A#2",
            "ticks": 56640,
            "time": 93.157755,
            "velocity": 0.6850393700787402
          },
          {
            "duration": 0.0789472499999988,
            "durationTicks": 48,
            "midi": 35,
            "name": "B1",
            "ticks": 56688,
            "time": 93.23670225,
            "velocity": 0.6850393700787402
          },
          {
            "duration": 0.1578944999999976,
            "durationTicks": 96,
            "midi": 38,
            "name": "D2",
            "ticks": 56736,
            "time": 93.31564949999999,
            "velocity": 0.6850393700787402
          },
          {
            "duration": 0.15789450000001182,
            "durationTicks": 96,
            "midi": 49,
            "name": "C#3",
            "ticks": 56832,
            "time": 93.47354399999999,
            "velocity": 0.6850393700787402
          },
          {
            "duration": 0.15789450000001182,
            "durationTicks": 96,
            "midi": 52,
            "name": "E3",
            "ticks": 56832,
            "time": 93.47354399999999,
            "velocity": 0.6850393700787402
          },
          {
            "duration": 0.15789450000001182,
            "durationTicks": 96,
            "midi": 46,
            "name": "A#2",
            "ticks": 56832,
            "time": 93.47354399999999,
            "velocity": 0.6850393700787402
          },
          {
            "duration": 0.15789450000001182,
            "durationTicks": 96,
            "midi": 35,
            "name": "B1",
            "ticks": 56832,
            "time": 93.47354399999999,
            "velocity": 0.6850393700787402
          },
          {
            "duration": 0.15789450000001182,
            "durationTicks": 96,
            "midi": 49,
            "name": "C#3",
            "ticks": 56832,
            "time": 93.47354399999999,
            "velocity": 0.6850393700787402
          },
          {
            "duration": 0.1578944999999976,
            "durationTicks": 96,
            "midi": 38,
            "name": "D2",
            "ticks": 56928,
            "time": 93.6314385,
            "velocity": 0.6850393700787402
          },
          {
            "duration": 0.0789472499999988,
            "durationTicks": 48,
            "midi": 35,
            "name": "B1",
            "ticks": 57024,
            "time": 93.789333,
            "velocity": 0.6850393700787402
          },
          {
            "duration": 0.1578944999999976,
            "durationTicks": 96,
            "midi": 46,
            "name": "A#2",
            "ticks": 57024,
            "time": 93.789333,
            "velocity": 0.6850393700787402
          },
          {
            "duration": 0.1578944999999976,
            "durationTicks": 96,
            "midi": 38,
            "name": "D2",
            "ticks": 57120,
            "time": 93.9472275,
            "velocity": 0.6850393700787402
          },
          {
            "duration": 0.1578944999999976,
            "durationTicks": 96,
            "midi": 35,
            "name": "B1",
            "ticks": 57216,
            "time": 94.105122,
            "velocity": 0.6850393700787402
          },
          {
            "duration": 0.1578944999999976,
            "durationTicks": 96,
            "midi": 46,
            "name": "A#2",
            "ticks": 57216,
            "time": 94.105122,
            "velocity": 0.6850393700787402
          },
          {
            "duration": 0.1578944999999976,
            "durationTicks": 96,
            "midi": 38,
            "name": "D2",
            "ticks": 57312,
            "time": 94.26301649999999,
            "velocity": 0.6850393700787402
          },
          {
            "duration": 0.07894725000001301,
            "durationTicks": 48,
            "midi": 35,
            "name": "B1",
            "ticks": 57408,
            "time": 94.42091099999999,
            "velocity": 0.6850393700787402
          },
          {
            "duration": 0.15789450000001182,
            "durationTicks": 96,
            "midi": 46,
            "name": "A#2",
            "ticks": 57408,
            "time": 94.42091099999999,
            "velocity": 0.6850393700787402
          },
          {
            "duration": 0.0789472499999988,
            "durationTicks": 48,
            "midi": 35,
            "name": "B1",
            "ticks": 57456,
            "time": 94.49985825,
            "velocity": 0.6850393700787402
          },
          {
            "duration": 0.1578944999999976,
            "durationTicks": 96,
            "midi": 38,
            "name": "D2",
            "ticks": 57504,
            "time": 94.5788055,
            "velocity": 0.6850393700787402
          },
          {
            "duration": 0.1578944999999976,
            "durationTicks": 96,
            "midi": 46,
            "name": "A#2",
            "ticks": 57600,
            "time": 94.7367,
            "velocity": 0.6850393700787402
          },
          {
            "duration": 0.1578944999999976,
            "durationTicks": 96,
            "midi": 35,
            "name": "B1",
            "ticks": 57600,
            "time": 94.7367,
            "velocity": 0.6850393700787402
          },
          {
            "duration": 0.1578944999999976,
            "durationTicks": 96,
            "midi": 38,
            "name": "D2",
            "ticks": 57696,
            "time": 94.8945945,
            "velocity": 0.6850393700787402
          },
          {
            "duration": 0.1578944999999976,
            "durationTicks": 96,
            "midi": 46,
            "name": "A#2",
            "ticks": 57792,
            "time": 95.052489,
            "velocity": 0.6850393700787402
          },
          {
            "duration": 0.0789472499999988,
            "durationTicks": 48,
            "midi": 35,
            "name": "B1",
            "ticks": 57792,
            "time": 95.052489,
            "velocity": 0.6850393700787402
          },
          {
            "duration": 0.1578944999999976,
            "durationTicks": 96,
            "midi": 38,
            "name": "D2",
            "ticks": 57888,
            "time": 95.21038349999999,
            "velocity": 0.6850393700787402
          },
          {
            "duration": 0.15789450000001182,
            "durationTicks": 96,
            "midi": 35,
            "name": "B1",
            "ticks": 57984,
            "time": 95.36827799999999,
            "velocity": 0.6850393700787402
          },
          {
            "duration": 0.15789450000001182,
            "durationTicks": 96,
            "midi": 46,
            "name": "A#2",
            "ticks": 57984,
            "time": 95.36827799999999,
            "velocity": 0.6850393700787402
          },
          {
            "duration": 0.1578944999999976,
            "durationTicks": 96,
            "midi": 38,
            "name": "D2",
            "ticks": 58080,
            "time": 95.5261725,
            "velocity": 0.6850393700787402
          },
          {
            "duration": 0.0789472499999988,
            "durationTicks": 48,
            "midi": 35,
            "name": "B1",
            "ticks": 58176,
            "time": 95.684067,
            "velocity": 0.6850393700787402
          },
          {
            "duration": 0.1578944999999976,
            "durationTicks": 96,
            "midi": 46,
            "name": "A#2",
            "ticks": 58176,
            "time": 95.684067,
            "velocity": 0.6850393700787402
          },
          {
            "duration": 0.0789472499999988,
            "durationTicks": 48,
            "midi": 35,
            "name": "B1",
            "ticks": 58224,
            "time": 95.76301425,
            "velocity": 0.6850393700787402
          },
          {
            "duration": 0.1578944999999976,
            "durationTicks": 96,
            "midi": 38,
            "name": "D2",
            "ticks": 58272,
            "time": 95.8419615,
            "velocity": 0.6850393700787402
          },
          {
            "duration": 0.1578944999999976,
            "durationTicks": 96,
            "midi": 35,
            "name": "B1",
            "ticks": 58368,
            "time": 95.999856,
            "velocity": 0.6850393700787402
          },
          {
            "duration": 0.1578944999999976,
            "durationTicks": 96,
            "midi": 49,
            "name": "C#3",
            "ticks": 58368,
            "time": 95.999856,
            "velocity": 0.6850393700787402
          },
          {
            "duration": 0.1578944999999976,
            "durationTicks": 96,
            "midi": 46,
            "name": "A#2",
            "ticks": 58368,
            "time": 95.999856,
            "velocity": 0.6850393700787402
          },
          {
            "duration": 0.1578944999999976,
            "durationTicks": 96,
            "midi": 49,
            "name": "C#3",
            "ticks": 58368,
            "time": 95.999856,
            "velocity": 0.6850393700787402
          },
          {
            "duration": 0.1578944999999976,
            "durationTicks": 96,
            "midi": 52,
            "name": "E3",
            "ticks": 58368,
            "time": 95.999856,
            "velocity": 0.6850393700787402
          },
          {
            "duration": 0.1578944999999976,
            "durationTicks": 96,
            "midi": 38,
            "name": "D2",
            "ticks": 58464,
            "time": 96.15775049999999,
            "velocity": 0.6850393700787402
          },
          {
            "duration": 0.15789450000001182,
            "durationTicks": 96,
            "midi": 46,
            "name": "A#2",
            "ticks": 58560,
            "time": 96.31564499999999,
            "velocity": 0.6850393700787402
          },
          {
            "duration": 0.07894725000001301,
            "durationTicks": 48,
            "midi": 35,
            "name": "B1",
            "ticks": 58560,
            "time": 96.31564499999999,
            "velocity": 0.6850393700787402
          },
          {
            "duration": 0.1578944999999976,
            "durationTicks": 96,
            "midi": 38,
            "name": "D2",
            "ticks": 58656,
            "time": 96.4735395,
            "velocity": 0.6850393700787402
          },
          {
            "duration": 0.1578944999999976,
            "durationTicks": 96,
            "midi": 46,
            "name": "A#2",
            "ticks": 58752,
            "time": 96.631434,
            "velocity": 0.6850393700787402
          },
          {
            "duration": 0.1578944999999976,
            "durationTicks": 96,
            "midi": 35,
            "name": "B1",
            "ticks": 58752,
            "time": 96.631434,
            "velocity": 0.6850393700787402
          },
          {
            "duration": 0.1578944999999976,
            "durationTicks": 96,
            "midi": 38,
            "name": "D2",
            "ticks": 58848,
            "time": 96.7893285,
            "velocity": 0.6850393700787402
          },
          {
            "duration": 0.0789472499999988,
            "durationTicks": 48,
            "midi": 35,
            "name": "B1",
            "ticks": 58944,
            "time": 96.947223,
            "velocity": 0.6850393700787402
          },
          {
            "duration": 0.1578944999999976,
            "durationTicks": 96,
            "midi": 46,
            "name": "A#2",
            "ticks": 58944,
            "time": 96.947223,
            "velocity": 0.6850393700787402
          },
          {
            "duration": 0.0789472499999988,
            "durationTicks": 48,
            "midi": 35,
            "name": "B1",
            "ticks": 58992,
            "time": 97.02617024999999,
            "velocity": 0.6850393700787402
          },
          {
            "duration": 0.1578944999999976,
            "durationTicks": 96,
            "midi": 38,
            "name": "D2",
            "ticks": 59040,
            "time": 97.10511749999999,
            "velocity": 0.6850393700787402
          },
          {
            "duration": 0.15789450000001182,
            "durationTicks": 96,
            "midi": 35,
            "name": "B1",
            "ticks": 59136,
            "time": 97.26301199999999,
            "velocity": 0.6850393700787402
          },
          {
            "duration": 0.15789450000001182,
            "durationTicks": 96,
            "midi": 46,
            "name": "A#2",
            "ticks": 59136,
            "time": 97.26301199999999,
            "velocity": 0.6850393700787402
          },
          {
            "duration": 0.1578944999999976,
            "durationTicks": 96,
            "midi": 38,
            "name": "D2",
            "ticks": 59232,
            "time": 97.4209065,
            "velocity": 0.6850393700787402
          },
          {
            "duration": 0.1578944999999976,
            "durationTicks": 96,
            "midi": 46,
            "name": "A#2",
            "ticks": 59328,
            "time": 97.578801,
            "velocity": 0.6850393700787402
          },
          {
            "duration": 0.0789472499999988,
            "durationTicks": 48,
            "midi": 35,
            "name": "B1",
            "ticks": 59328,
            "time": 97.578801,
            "velocity": 0.6850393700787402
          },
          {
            "duration": 0.1578944999999976,
            "durationTicks": 96,
            "midi": 38,
            "name": "D2",
            "ticks": 59424,
            "time": 97.7366955,
            "velocity": 0.6850393700787402
          },
          {
            "duration": 0.1578944999999976,
            "durationTicks": 96,
            "midi": 35,
            "name": "B1",
            "ticks": 59520,
            "time": 97.89459,
            "velocity": 0.6850393700787402
          },
          {
            "duration": 0.1578944999999976,
            "durationTicks": 96,
            "midi": 46,
            "name": "A#2",
            "ticks": 59520,
            "time": 97.89459,
            "velocity": 0.6850393700787402
          },
          {
            "duration": 0.1578944999999976,
            "durationTicks": 96,
            "midi": 38,
            "name": "D2",
            "ticks": 59616,
            "time": 98.05248449999999,
            "velocity": 0.6850393700787402
          },
          {
            "duration": 0.15789450000001182,
            "durationTicks": 96,
            "midi": 46,
            "name": "A#2",
            "ticks": 59712,
            "time": 98.21037899999999,
            "velocity": 0.6850393700787402
          },
          {
            "duration": 0.07894725000001301,
            "durationTicks": 48,
            "midi": 35,
            "name": "B1",
            "ticks": 59712,
            "time": 98.21037899999999,
            "velocity": 0.6850393700787402
          },
          {
            "duration": 0.0789472499999988,
            "durationTicks": 48,
            "midi": 35,
            "name": "B1",
            "ticks": 59760,
            "time": 98.28932625,
            "velocity": 0.6850393700787402
          },
          {
            "duration": 0.1578944999999976,
            "durationTicks": 96,
            "midi": 38,
            "name": "D2",
            "ticks": 59808,
            "time": 98.3682735,
            "velocity": 0.6850393700787402
          },
          {
            "duration": 0.1578944999999976,
            "durationTicks": 96,
            "midi": 46,
            "name": "A#2",
            "ticks": 59904,
            "time": 98.526168,
            "velocity": 0.6850393700787402
          },
          {
            "duration": 0.1578944999999976,
            "durationTicks": 96,
            "midi": 52,
            "name": "E3",
            "ticks": 59904,
            "time": 98.526168,
            "velocity": 0.6850393700787402
          },
          {
            "duration": 0.1578944999999976,
            "durationTicks": 96,
            "midi": 49,
            "name": "C#3",
            "ticks": 59904,
            "time": 98.526168,
            "velocity": 0.6850393700787402
          },
          {
            "duration": 0.1578944999999976,
            "durationTicks": 96,
            "midi": 49,
            "name": "C#3",
            "ticks": 59904,
            "time": 98.526168,
            "velocity": 0.6850393700787402
          },
          {
            "duration": 0.1578944999999976,
            "durationTicks": 96,
            "midi": 35,
            "name": "B1",
            "ticks": 59904,
            "time": 98.526168,
            "velocity": 0.6850393700787402
          },
          {
            "duration": 0.1578944999999976,
            "durationTicks": 96,
            "midi": 38,
            "name": "D2",
            "ticks": 60000,
            "time": 98.6840625,
            "velocity": 0.6850393700787402
          },
          {
            "duration": 0.1578944999999976,
            "durationTicks": 96,
            "midi": 46,
            "name": "A#2",
            "ticks": 60096,
            "time": 98.841957,
            "velocity": 0.6850393700787402
          },
          {
            "duration": 0.0789472499999988,
            "durationTicks": 48,
            "midi": 35,
            "name": "B1",
            "ticks": 60096,
            "time": 98.841957,
            "velocity": 0.6850393700787402
          },
          {
            "duration": 0.1578944999999976,
            "durationTicks": 96,
            "midi": 38,
            "name": "D2",
            "ticks": 60192,
            "time": 98.99985149999999,
            "velocity": 0.6850393700787402
          },
          {
            "duration": 0.15789450000001182,
            "durationTicks": 96,
            "midi": 35,
            "name": "B1",
            "ticks": 60288,
            "time": 99.15774599999999,
            "velocity": 0.6850393700787402
          },
          {
            "duration": 0.15789450000001182,
            "durationTicks": 96,
            "midi": 46,
            "name": "A#2",
            "ticks": 60288,
            "time": 99.15774599999999,
            "velocity": 0.6850393700787402
          },
          {
            "duration": 0.1578944999999976,
            "durationTicks": 96,
            "midi": 38,
            "name": "D2",
            "ticks": 60384,
            "time": 99.3156405,
            "velocity": 0.6850393700787402
          },
          {
            "duration": 0.0789472499999988,
            "durationTicks": 48,
            "midi": 35,
            "name": "B1",
            "ticks": 60480,
            "time": 99.473535,
            "velocity": 0.6850393700787402
          },
          {
            "duration": 0.1578944999999976,
            "durationTicks": 96,
            "midi": 46,
            "name": "A#2",
            "ticks": 60480,
            "time": 99.473535,
            "velocity": 0.6850393700787402
          },
          {
            "duration": 0.0789472499999988,
            "durationTicks": 48,
            "midi": 35,
            "name": "B1",
            "ticks": 60528,
            "time": 99.55248225,
            "velocity": 0.6850393700787402
          },
          {
            "duration": 0.1578944999999976,
            "durationTicks": 96,
            "midi": 38,
            "name": "D2",
            "ticks": 60576,
            "time": 99.6314295,
            "velocity": 0.6850393700787402
          }
        ],
        "endOfTrackTicks": 60672
      },
      {
        "channel": 0,
        "controlChanges": {},
        "pitchBends": [],
        "instrument": {
          "family": "chromatic percussion",
          "number": 11,
          "name": "vibraphone"
        },
        "name": "Vibraphone",
        "notes": [],
        "endOfTrackTicks": 4416
      }
    ]
  }