{
  "header": {
    "keySignatures": [],
    "meta": [],
    "name": "",
    "ppq": 384,
    "tempos": [
      {
        "bpm": 95.00014250021376,
        "ticks": 0
      }
    ],
    "timeSignatures": [
      {
        "ticks": 0,
        "timeSignature": [
          1,
          4
        ],
        "measures": 0
      }
    ]
  },
  "tracks": [
    {
      "channel": 0,
      "controlChanges": {},
      "pitchBends": [],
      "instrument": {
        "family": "piano",
        "number": 0,
        "name": "acoustic grand piano"
      },
      "name": "Elec. Piano (Classic)",
      "notes": [
        {
          "duration": 0.315789,
          "durationTicks": 192,
          "midi": 37,
          "name": "C#2",
          "ticks": 0,
          "time": 0,
          "velocity": 0.3937007874015748
        },
        {
          "duration": 0.315789,
          "durationTicks": 192,
          "midi": 49,
          "name": "C#3",
          "ticks": 192,
          "time": 0.315789,
          "velocity": 0.3937007874015748
        },
        {
          "duration": 0.15789450000000005,
          "durationTicks": 96,
          "midi": 44,
          "name": "G#2",
          "ticks": 384,
          "time": 0.631578,
          "velocity": 0.3937007874015748
        },
        {
          "duration": 0.3157890000000001,
          "durationTicks": 192,
          "midi": 43,
          "name": "G2",
          "ticks": 672,
          "time": 1.1052615,
          "velocity": 0.3937007874015748
        },
        {
          "duration": 0.3157889999999999,
          "durationTicks": 192,
          "midi": 42,
          "name": "F#2",
          "ticks": 960,
          "time": 1.578945,
          "velocity": 0.3937007874015748
        },
        {
          "duration": 0.15789450000000005,
          "durationTicks": 96,
          "midi": 40,
          "name": "E2",
          "ticks": 1152,
          "time": 1.894734,
          "velocity": 0.3937007874015748
        },
        {
          "duration": 0.15789449999999983,
          "durationTicks": 96,
          "midi": 37,
          "name": "C#2",
          "ticks": 1248,
          "time": 2.0526285,
          "velocity": 0.3937007874015748
        },
        {
          "duration": 0.15789450000000027,
          "durationTicks": 96,
          "midi": 40,
          "name": "E2",
          "ticks": 1344,
          "time": 2.210523,
          "velocity": 0.3937007874015748
        },
        {
          "duration": 0.15789449999999983,
          "durationTicks": 96,
          "midi": 42,
          "name": "F#2",
          "ticks": 1440,
          "time": 2.3684175,
          "velocity": 0.3937007874015748
        },
        {
          "duration": 0.3157890000000001,
          "durationTicks": 192,
          "midi": 35,
          "name": "B1",
          "ticks": 1536,
          "time": 2.526312,
          "velocity": 0.3937007874015748
        },
        {
          "duration": 0.3157890000000001,
          "durationTicks": 192,
          "midi": 49,
          "name": "C#3",
          "ticks": 1728,
          "time": 2.842101,
          "velocity": 0.3937007874015748
        },
        {
          "duration": 0.31578899999999965,
          "durationTicks": 192,
          "midi": 44,
          "name": "G#2",
          "ticks": 1920,
          "time": 3.15789,
          "velocity": 0.3937007874015748
        },
        {
          "duration": 0.3157890000000001,
          "durationTicks": 192,
          "midi": 42,
          "name": "F#2",
          "ticks": 2112,
          "time": 3.4736789999999997,
          "velocity": 0.3937007874015748
        },
        {
          "duration": 0.3157890000000001,
          "durationTicks": 192,
          "midi": 40,
          "name": "E2",
          "ticks": 2304,
          "time": 3.789468,
          "velocity": 0.3937007874015748
        },
        {
          "duration": 0.15789450000000027,
          "durationTicks": 96,
          "midi": 39,
          "name": "D#2",
          "ticks": 2496,
          "time": 4.105257,
          "velocity": 0.3937007874015748
        },
        {
          "duration": 0.15789449999999938,
          "durationTicks": 96,
          "midi": 40,
          "name": "E2",
          "ticks": 2592,
          "time": 4.2631515,
          "velocity": 0.3937007874015748
        },
        {
          "duration": 0.15789450000000027,
          "durationTicks": 96,
          "midi": 39,
          "name": "D#2",
          "ticks": 2688,
          "time": 4.421046,
          "velocity": 0.3937007874015748
        },
        {
          "duration": 0.15789450000000027,
          "durationTicks": 96,
          "midi": 37,
          "name": "C#2",
          "ticks": 2784,
          "time": 4.5789405,
          "velocity": 0.3937007874015748
        },
        {
          "duration": 0.15789449999999938,
          "durationTicks": 96,
          "midi": 35,
          "name": "B1",
          "ticks": 2880,
          "time": 4.736835,
          "velocity": 0.3937007874015748
        },
        {
          "duration": 0.15789450000000027,
          "durationTicks": 96,
          "midi": 32,
          "name": "G#1",
          "ticks": 2976,
          "time": 4.8947294999999995,
          "velocity": 0.3937007874015748
        },
        {
          "duration": 0.15789450000000027,
          "durationTicks": 96,
          "midi": 33,
          "name": "A1",
          "ticks": 3072,
          "time": 5.052624,
          "velocity": 0.3937007874015748
        },
        {
          "duration": 0.15789449999999938,
          "durationTicks": 96,
          "midi": 33,
          "name": "A1",
          "ticks": 3168,
          "time": 5.2105185,
          "velocity": 0.3937007874015748
        },
        {
          "duration": 0.31578900000000054,
          "durationTicks": 192,
          "midi": 49,
          "name": "C#3",
          "ticks": 3264,
          "time": 5.368412999999999,
          "velocity": 0.3937007874015748
        },
        {
          "duration": 0.31578899999999965,
          "durationTicks": 192,
          "midi": 44,
          "name": "G#2",
          "ticks": 3456,
          "time": 5.684202,
          "velocity": 0.3937007874015748
        },
        {
          "duration": 0.15789450000000027,
          "durationTicks": 96,
          "midi": 49,
          "name": "C#3",
          "ticks": 3648,
          "time": 5.999991,
          "velocity": 0.3937007874015748
        },
        {
          "duration": 0.15789450000000027,
          "durationTicks": 96,
          "midi": 45,
          "name": "A2",
          "ticks": 3744,
          "time": 6.1578855,
          "velocity": 0.3937007874015748
        },
        {
          "duration": 0.15789449999999938,
          "durationTicks": 96,
          "midi": 49,
          "name": "C#3",
          "ticks": 3840,
          "time": 6.31578,
          "velocity": 0.3937007874015748
        },
        {
          "duration": 0.15789450000000027,
          "durationTicks": 96,
          "midi": 47,
          "name": "B2",
          "ticks": 3936,
          "time": 6.4736744999999996,
          "velocity": 0.3937007874015748
        },
        {
          "duration": 0.31578899999999965,
          "durationTicks": 192,
          "midi": 44,
          "name": "G#2",
          "ticks": 4032,
          "time": 6.631569,
          "velocity": 0.3937007874015748
        },
        {
          "duration": 0.31578900000000054,
          "durationTicks": 192,
          "midi": 42,
          "name": "F#2",
          "ticks": 4224,
          "time": 6.9473579999999995,
          "velocity": 0.3937007874015748
        },
        {
          "duration": 0.15789449999999938,
          "durationTicks": 96,
          "midi": 44,
          "name": "G#2",
          "ticks": 4416,
          "time": 7.263147,
          "velocity": 0.3937007874015748
        },
        {
          "duration": 0.15789450000000027,
          "durationTicks": 96,
          "midi": 40,
          "name": "E2",
          "ticks": 4512,
          "time": 7.421041499999999,
          "velocity": 0.3937007874015748
        },
        {
          "duration": 0.31578899999999965,
          "durationTicks": 192,
          "midi": 32,
          "name": "G#1",
          "ticks": 4608,
          "time": 7.578936,
          "velocity": 0.3937007874015748
        },
        {
          "duration": 0.31578900000000054,
          "durationTicks": 192,
          "midi": 49,
          "name": "C#3",
          "ticks": 4800,
          "time": 7.894724999999999,
          "velocity": 0.3937007874015748
        },
        {
          "duration": 0.31578900000000054,
          "durationTicks": 192,
          "midi": 32,
          "name": "G#1",
          "ticks": 4992,
          "time": 8.210514,
          "velocity": 0.3937007874015748
        },
        {
          "duration": 0.31578899999999877,
          "durationTicks": 192,
          "midi": 49,
          "name": "C#3",
          "ticks": 5184,
          "time": 8.526303,
          "velocity": 0.3937007874015748
        },
        {
          "duration": 0.31578900000000054,
          "durationTicks": 192,
          "midi": 31,
          "name": "G1",
          "ticks": 5376,
          "time": 8.842092,
          "velocity": 0.3937007874015748
        },
        {
          "duration": 0.31578900000000054,
          "durationTicks": 192,
          "midi": 49,
          "name": "C#3",
          "ticks": 5568,
          "time": 9.157881,
          "velocity": 0.3937007874015748
        },
        {
          "duration": 0.31578899999999877,
          "durationTicks": 192,
          "midi": 33,
          "name": "A1",
          "ticks": 5760,
          "time": 9.47367,
          "velocity": 0.3937007874015748
        },
        {
          "duration": 0.31578900000000054,
          "durationTicks": 192,
          "midi": 51,
          "name": "D#3",
          "ticks": 5952,
          "time": 9.789458999999999,
          "velocity": 0.3937007874015748
        },
        {
          "duration": 0.31578900000000054,
          "durationTicks": 192,
          "midi": 37,
          "name": "C#2",
          "ticks": 6144,
          "time": 10.105248,
          "velocity": 0.3937007874015748
        },
        {
          "duration": 0.31578899999999877,
          "durationTicks": 192,
          "midi": 49,
          "name": "C#3",
          "ticks": 6336,
          "time": 10.421037,
          "velocity": 0.3937007874015748
        },
        {
          "duration": 0.15789450000000116,
          "durationTicks": 96,
          "midi": 44,
          "name": "G#2",
          "ticks": 6528,
          "time": 10.736825999999999,
          "velocity": 0.3937007874015748
        },
        {
          "duration": 0.31578900000000054,
          "durationTicks": 192,
          "midi": 43,
          "name": "G2",
          "ticks": 6816,
          "time": 11.210509499999999,
          "velocity": 0.3937007874015748
        },
        {
          "duration": 0.31578900000000054,
          "durationTicks": 192,
          "midi": 42,
          "name": "F#2",
          "ticks": 7104,
          "time": 11.684192999999999,
          "velocity": 0.3937007874015748
        },
        {
          "duration": 0.15789449999999938,
          "durationTicks": 96,
          "midi": 40,
          "name": "E2",
          "ticks": 7296,
          "time": 11.999982,
          "velocity": 0.3937007874015748
        },
        {
          "duration": 0.15789450000000116,
          "durationTicks": 96,
          "midi": 37,
          "name": "C#2",
          "ticks": 7392,
          "time": 12.157876499999999,
          "velocity": 0.3937007874015748
        },
        {
          "duration": 0.15789449999999938,
          "durationTicks": 96,
          "midi": 40,
          "name": "E2",
          "ticks": 7488,
          "time": 12.315771,
          "velocity": 0.3937007874015748
        },
        {
          "duration": 0.15789450000000116,
          "durationTicks": 96,
          "midi": 42,
          "name": "F#2",
          "ticks": 7584,
          "time": 12.4736655,
          "velocity": 0.3937007874015748
        },
        {
          "duration": 0.31578899999999877,
          "durationTicks": 192,
          "midi": 35,
          "name": "B1",
          "ticks": 7680,
          "time": 12.63156,
          "velocity": 0.3937007874015748
        },
        {
          "duration": 0.31578900000000054,
          "durationTicks": 192,
          "midi": 49,
          "name": "C#3",
          "ticks": 7872,
          "time": 12.947348999999999,
          "velocity": 0.3937007874015748
        },
        {
          "duration": 0.31578900000000054,
          "durationTicks": 192,
          "midi": 44,
          "name": "G#2",
          "ticks": 8064,
          "time": 13.263138,
          "velocity": 0.3937007874015748
        },
        {
          "duration": 0.31578899999999877,
          "durationTicks": 192,
          "midi": 42,
          "name": "F#2",
          "ticks": 8256,
          "time": 13.578927,
          "velocity": 0.3937007874015748
        },
        {
          "duration": 0.31578900000000054,
          "durationTicks": 192,
          "midi": 40,
          "name": "E2",
          "ticks": 8448,
          "time": 13.894715999999999,
          "velocity": 0.3937007874015748
        },
        {
          "duration": 0.15789449999999938,
          "durationTicks": 96,
          "midi": 39,
          "name": "D#2",
          "ticks": 8640,
          "time": 14.210505,
          "velocity": 0.3937007874015748
        },
        {
          "duration": 0.15789450000000116,
          "durationTicks": 96,
          "midi": 40,
          "name": "E2",
          "ticks": 8736,
          "time": 14.368399499999999,
          "velocity": 0.3937007874015748
        },
        {
          "duration": 0.15789449999999938,
          "durationTicks": 96,
          "midi": 39,
          "name": "D#2",
          "ticks": 8832,
          "time": 14.526294,
          "velocity": 0.3937007874015748
        },
        {
          "duration": 0.15789449999999938,
          "durationTicks": 96,
          "midi": 37,
          "name": "C#2",
          "ticks": 8928,
          "time": 14.6841885,
          "velocity": 0.3937007874015748
        },
        {
          "duration": 0.15789450000000116,
          "durationTicks": 96,
          "midi": 35,
          "name": "B1",
          "ticks": 9024,
          "time": 14.842082999999999,
          "velocity": 0.3937007874015748
        },
        {
          "duration": 0.15789449999999938,
          "durationTicks": 96,
          "midi": 32,
          "name": "G#1",
          "ticks": 9120,
          "time": 14.9999775,
          "velocity": 0.3937007874015748
        },
        {
          "duration": 0.15789449999999938,
          "durationTicks": 96,
          "midi": 33,
          "name": "A1",
          "ticks": 9216,
          "time": 15.157872,
          "velocity": 0.3937007874015748
        },
        {
          "duration": 0.15789450000000116,
          "durationTicks": 96,
          "midi": 33,
          "name": "A1",
          "ticks": 9312,
          "time": 15.315766499999999,
          "velocity": 0.3937007874015748
        },
        {
          "duration": 0.31578899999999877,
          "durationTicks": 192,
          "midi": 49,
          "name": "C#3",
          "ticks": 9408,
          "time": 15.473661,
          "velocity": 0.3937007874015748
        },
        {
          "duration": 0.3157890000000023,
          "durationTicks": 192,
          "midi": 44,
          "name": "G#2",
          "ticks": 9600,
          "time": 15.789449999999999,
          "velocity": 0.3937007874015748
        },
        {
          "duration": 0.1578944999999976,
          "durationTicks": 96,
          "midi": 49,
          "name": "C#3",
          "ticks": 9792,
          "time": 16.105239,
          "velocity": 0.3937007874015748
        },
        {
          "duration": 0.15789450000000116,
          "durationTicks": 96,
          "midi": 45,
          "name": "A2",
          "ticks": 9888,
          "time": 16.2631335,
          "velocity": 0.3937007874015748
        },
        {
          "duration": 0.15789450000000116,
          "durationTicks": 96,
          "midi": 49,
          "name": "C#3",
          "ticks": 9984,
          "time": 16.421028,
          "velocity": 0.3937007874015748
        },
        {
          "duration": 0.1578944999999976,
          "durationTicks": 96,
          "midi": 47,
          "name": "B2",
          "ticks": 10080,
          "time": 16.5789225,
          "velocity": 0.3937007874015748
        },
        {
          "duration": 0.3157890000000023,
          "durationTicks": 192,
          "midi": 44,
          "name": "G#2",
          "ticks": 10176,
          "time": 16.736817,
          "velocity": 0.3937007874015748
        },
        {
          "duration": 0.31578899999999877,
          "durationTicks": 192,
          "midi": 42,
          "name": "F#2",
          "ticks": 10368,
          "time": 17.052606,
          "velocity": 0.3937007874015748
        },
        {
          "duration": 0.15789450000000116,
          "durationTicks": 96,
          "midi": 44,
          "name": "G#2",
          "ticks": 10560,
          "time": 17.368395,
          "velocity": 0.3937007874015748
        },
        {
          "duration": 0.1578944999999976,
          "durationTicks": 96,
          "midi": 40,
          "name": "E2",
          "ticks": 10656,
          "time": 17.5262895,
          "velocity": 0.3937007874015748
        },
        {
          "duration": 0.3157890000000023,
          "durationTicks": 192,
          "midi": 32,
          "name": "G#1",
          "ticks": 10752,
          "time": 17.684184,
          "velocity": 0.3937007874015748
        },
        {
          "duration": 0.31578899999999877,
          "durationTicks": 192,
          "midi": 49,
          "name": "C#3",
          "ticks": 10944,
          "time": 17.999973,
          "velocity": 0.3937007874015748
        },
        {
          "duration": 0.31578899999999877,
          "durationTicks": 192,
          "midi": 32,
          "name": "G#1",
          "ticks": 11136,
          "time": 18.315762,
          "velocity": 0.3937007874015748
        },
        {
          "duration": 0.3157890000000023,
          "durationTicks": 192,
          "midi": 49,
          "name": "C#3",
          "ticks": 11328,
          "time": 18.631550999999998,
          "velocity": 0.3937007874015748
        },
        {
          "duration": 0.31578899999999877,
          "durationTicks": 192,
          "midi": 31,
          "name": "G1",
          "ticks": 11520,
          "time": 18.94734,
          "velocity": 0.3937007874015748
        },
        {
          "duration": 0.31578899999999877,
          "durationTicks": 192,
          "midi": 49,
          "name": "C#3",
          "ticks": 11712,
          "time": 19.263129,
          "velocity": 0.3937007874015748
        },
        {
          "duration": 0.3157890000000023,
          "durationTicks": 192,
          "midi": 33,
          "name": "A1",
          "ticks": 11904,
          "time": 19.578917999999998,
          "velocity": 0.3937007874015748
        },
        {
          "duration": 0.31578899999999877,
          "durationTicks": 192,
          "midi": 51,
          "name": "D#3",
          "ticks": 12096,
          "time": 19.894707,
          "velocity": 0.3937007874015748
        },
        {
          "duration": 0.31578899999999877,
          "durationTicks": 192,
          "midi": 37,
          "name": "C#2",
          "ticks": 12288,
          "time": 20.210496,
          "velocity": 0.3937007874015748
        },
        {
          "duration": 0.3157890000000023,
          "durationTicks": 192,
          "midi": 49,
          "name": "C#3",
          "ticks": 12480,
          "time": 20.526284999999998,
          "velocity": 0.3937007874015748
        },
        {
          "duration": 0.1578944999999976,
          "durationTicks": 96,
          "midi": 44,
          "name": "G#2",
          "ticks": 12672,
          "time": 20.842074,
          "velocity": 0.3937007874015748
        },
        {
          "duration": 0.31578899999999877,
          "durationTicks": 192,
          "midi": 43,
          "name": "G2",
          "ticks": 12960,
          "time": 21.3157575,
          "velocity": 0.3937007874015748
        },
        {
          "duration": 0.31578899999999877,
          "durationTicks": 192,
          "midi": 42,
          "name": "F#2",
          "ticks": 13248,
          "time": 21.789441,
          "velocity": 0.3937007874015748
        },
        {
          "duration": 0.15789450000000116,
          "durationTicks": 96,
          "midi": 40,
          "name": "E2",
          "ticks": 13440,
          "time": 22.10523,
          "velocity": 0.3937007874015748
        },
        {
          "duration": 0.1578944999999976,
          "durationTicks": 96,
          "midi": 37,
          "name": "C#2",
          "ticks": 13536,
          "time": 22.2631245,
          "velocity": 0.3937007874015748
        },
        {
          "duration": 0.15789450000000116,
          "durationTicks": 96,
          "midi": 40,
          "name": "E2",
          "ticks": 13632,
          "time": 22.421018999999998,
          "velocity": 0.3937007874015748
        },
        {
          "duration": 0.15789450000000116,
          "durationTicks": 96,
          "midi": 42,
          "name": "F#2",
          "ticks": 13728,
          "time": 22.5789135,
          "velocity": 0.3937007874015748
        },
        {
          "duration": 0.31578899999999877,
          "durationTicks": 192,
          "midi": 35,
          "name": "B1",
          "ticks": 13824,
          "time": 22.736808,
          "velocity": 0.3937007874015748
        },
        {
          "duration": 0.31578899999999877,
          "durationTicks": 192,
          "midi": 49,
          "name": "C#3",
          "ticks": 14016,
          "time": 23.052597,
          "velocity": 0.3937007874015748
        },
        {
          "duration": 0.3157890000000023,
          "durationTicks": 192,
          "midi": 44,
          "name": "G#2",
          "ticks": 14208,
          "time": 23.368385999999997,
          "velocity": 0.3937007874015748
        },
        {
          "duration": 0.31578899999999877,
          "durationTicks": 192,
          "midi": 42,
          "name": "F#2",
          "ticks": 14400,
          "time": 23.684175,
          "velocity": 0.3937007874015748
        },
        {
          "duration": 0.31578899999999877,
          "durationTicks": 192,
          "midi": 40,
          "name": "E2",
          "ticks": 14592,
          "time": 23.999964,
          "velocity": 0.3937007874015748
        },
        {
          "duration": 0.15789450000000116,
          "durationTicks": 96,
          "midi": 39,
          "name": "D#2",
          "ticks": 14784,
          "time": 24.315752999999997,
          "velocity": 0.3937007874015748
        },
        {
          "duration": 0.15789450000000116,
          "durationTicks": 96,
          "midi": 40,
          "name": "E2",
          "ticks": 14880,
          "time": 24.4736475,
          "velocity": 0.3937007874015748
        },
        {
          "duration": 0.1578944999999976,
          "durationTicks": 96,
          "midi": 39,
          "name": "D#2",
          "ticks": 14976,
          "time": 24.631542,
          "velocity": 0.3937007874015748
        },
        {
          "duration": 0.15789450000000116,
          "durationTicks": 96,
          "midi": 37,
          "name": "C#2",
          "ticks": 15072,
          "time": 24.789436499999997,
          "velocity": 0.3937007874015748
        },
        {
          "duration": 0.15789450000000116,
          "durationTicks": 96,
          "midi": 35,
          "name": "B1",
          "ticks": 15168,
          "time": 24.947331,
          "velocity": 0.3937007874015748
        },
        {
          "duration": 0.15789450000000116,
          "durationTicks": 96,
          "midi": 32,
          "name": "G#1",
          "ticks": 15264,
          "time": 25.1052255,
          "velocity": 0.3937007874015748
        },
        {
          "duration": 0.1578944999999976,
          "durationTicks": 96,
          "midi": 33,
          "name": "A1",
          "ticks": 15360,
          "time": 25.26312,
          "velocity": 0.3937007874015748
        },
        {
          "duration": 0.15789450000000116,
          "durationTicks": 96,
          "midi": 33,
          "name": "A1",
          "ticks": 15456,
          "time": 25.4210145,
          "velocity": 0.3937007874015748
        },
        {
          "duration": 0.31578899999999877,
          "durationTicks": 192,
          "midi": 49,
          "name": "C#3",
          "ticks": 15552,
          "time": 25.578909,
          "velocity": 0.3937007874015748
        },
        {
          "duration": 0.3157890000000023,
          "durationTicks": 192,
          "midi": 44,
          "name": "G#2",
          "ticks": 15744,
          "time": 25.894697999999998,
          "velocity": 0.3937007874015748
        },
        {
          "duration": 0.1578944999999976,
          "durationTicks": 96,
          "midi": 49,
          "name": "C#3",
          "ticks": 15936,
          "time": 26.210487,
          "velocity": 0.3937007874015748
        },
        {
          "duration": 0.15789450000000116,
          "durationTicks": 96,
          "midi": 45,
          "name": "A2",
          "ticks": 16032,
          "time": 26.368381499999998,
          "velocity": 0.3937007874015748
        },
        {
          "duration": 0.15789450000000116,
          "durationTicks": 96,
          "midi": 49,
          "name": "C#3",
          "ticks": 16128,
          "time": 26.526276,
          "velocity": 0.3937007874015748
        },
        {
          "duration": 0.1578944999999976,
          "durationTicks": 96,
          "midi": 47,
          "name": "B2",
          "ticks": 16224,
          "time": 26.6841705,
          "velocity": 0.3937007874015748
        },
        {
          "duration": 0.3157890000000023,
          "durationTicks": 192,
          "midi": 44,
          "name": "G#2",
          "ticks": 16320,
          "time": 26.842064999999998,
          "velocity": 0.3937007874015748
        },
        {
          "duration": 0.31578899999999877,
          "durationTicks": 192,
          "midi": 42,
          "name": "F#2",
          "ticks": 16512,
          "time": 27.157854,
          "velocity": 0.3937007874015748
        },
        {
          "duration": 0.15789450000000116,
          "durationTicks": 96,
          "midi": 44,
          "name": "G#2",
          "ticks": 16704,
          "time": 27.473643,
          "velocity": 0.3937007874015748
        },
        {
          "duration": 0.1578944999999976,
          "durationTicks": 96,
          "midi": 40,
          "name": "E2",
          "ticks": 16800,
          "time": 27.6315375,
          "velocity": 0.3937007874015748
        },
        {
          "duration": 0.3157890000000023,
          "durationTicks": 192,
          "midi": 32,
          "name": "G#1",
          "ticks": 16896,
          "time": 27.789431999999998,
          "velocity": 0.3937007874015748
        },
        {
          "duration": 0.31578899999999877,
          "durationTicks": 192,
          "midi": 49,
          "name": "C#3",
          "ticks": 17088,
          "time": 28.105221,
          "velocity": 0.3937007874015748
        },
        {
          "duration": 0.31578899999999877,
          "durationTicks": 192,
          "midi": 32,
          "name": "G#1",
          "ticks": 17280,
          "time": 28.42101,
          "velocity": 0.3937007874015748
        },
        {
          "duration": 0.3157890000000023,
          "durationTicks": 192,
          "midi": 49,
          "name": "C#3",
          "ticks": 17472,
          "time": 28.736798999999998,
          "velocity": 0.3937007874015748
        },
        {
          "duration": 0.31578899999999877,
          "durationTicks": 192,
          "midi": 31,
          "name": "G1",
          "ticks": 17664,
          "time": 29.052588,
          "velocity": 0.3937007874015748
        },
        {
          "duration": 0.31578899999999877,
          "durationTicks": 192,
          "midi": 49,
          "name": "C#3",
          "ticks": 17856,
          "time": 29.368377,
          "velocity": 0.3937007874015748
        },
        {
          "duration": 0.3157890000000023,
          "durationTicks": 192,
          "midi": 33,
          "name": "A1",
          "ticks": 18048,
          "time": 29.684165999999998,
          "velocity": 0.3937007874015748
        },
        {
          "duration": 0.31578899999999877,
          "durationTicks": 192,
          "midi": 51,
          "name": "D#3",
          "ticks": 18240,
          "time": 29.999955,
          "velocity": 0.3937007874015748
        },
        {
          "duration": 0.31578899999999877,
          "durationTicks": 192,
          "midi": 37,
          "name": "C#2",
          "ticks": 18432,
          "time": 30.315744,
          "velocity": 0.3937007874015748
        },
        {
          "duration": 0.3157890000000023,
          "durationTicks": 192,
          "midi": 49,
          "name": "C#3",
          "ticks": 18624,
          "time": 30.631532999999997,
          "velocity": 0.3937007874015748
        },
        {
          "duration": 0.1578944999999976,
          "durationTicks": 96,
          "midi": 44,
          "name": "G#2",
          "ticks": 18816,
          "time": 30.947322,
          "velocity": 0.3937007874015748
        },
        {
          "duration": 0.31578899999999877,
          "durationTicks": 192,
          "midi": 43,
          "name": "G2",
          "ticks": 19104,
          "time": 31.4210055,
          "velocity": 0.3937007874015748
        },
        {
          "duration": 0.3157890000000023,
          "durationTicks": 192,
          "midi": 42,
          "name": "F#2",
          "ticks": 19392,
          "time": 31.894689,
          "velocity": 0.3937007874015748
        },
        {
          "duration": 0.1578944999999976,
          "durationTicks": 96,
          "midi": 40,
          "name": "E2",
          "ticks": 19584,
          "time": 32.210478,
          "velocity": 0.3937007874015748
        },
        {
          "duration": 0.1578944999999976,
          "durationTicks": 96,
          "midi": 37,
          "name": "C#2",
          "ticks": 19680,
          "time": 32.3683725,
          "velocity": 0.3937007874015748
        },
        {
          "duration": 0.1578945000000047,
          "durationTicks": 96,
          "midi": 40,
          "name": "E2",
          "ticks": 19776,
          "time": 32.526267,
          "velocity": 0.3937007874015748
        },
        {
          "duration": 0.1578944999999976,
          "durationTicks": 96,
          "midi": 42,
          "name": "F#2",
          "ticks": 19872,
          "time": 32.6841615,
          "velocity": 0.3937007874015748
        },
        {
          "duration": 0.3157890000000023,
          "durationTicks": 192,
          "midi": 35,
          "name": "B1",
          "ticks": 19968,
          "time": 32.842056,
          "velocity": 0.3937007874015748
        },
        {
          "duration": 0.3157889999999952,
          "durationTicks": 192,
          "midi": 49,
          "name": "C#3",
          "ticks": 20160,
          "time": 33.157845,
          "velocity": 0.3937007874015748
        },
        {
          "duration": 0.3157890000000023,
          "durationTicks": 192,
          "midi": 44,
          "name": "G#2",
          "ticks": 20352,
          "time": 33.473634,
          "velocity": 0.3937007874015748
        },
        {
          "duration": 0.3157890000000023,
          "durationTicks": 192,
          "midi": 42,
          "name": "F#2",
          "ticks": 20544,
          "time": 33.789423,
          "velocity": 0.3937007874015748
        },
        {
          "duration": 0.3157889999999952,
          "durationTicks": 192,
          "midi": 40,
          "name": "E2",
          "ticks": 20736,
          "time": 34.105212,
          "velocity": 0.3937007874015748
        },
        {
          "duration": 0.1578945000000047,
          "durationTicks": 96,
          "midi": 39,
          "name": "D#2",
          "ticks": 20928,
          "time": 34.421001,
          "velocity": 0.3937007874015748
        },
        {
          "duration": 0.1578944999999976,
          "durationTicks": 96,
          "midi": 40,
          "name": "E2",
          "ticks": 21024,
          "time": 34.5788955,
          "velocity": 0.3937007874015748
        },
        {
          "duration": 0.1578944999999976,
          "durationTicks": 96,
          "midi": 39,
          "name": "D#2",
          "ticks": 21120,
          "time": 34.73679,
          "velocity": 0.3937007874015748
        },
        {
          "duration": 0.1578945000000047,
          "durationTicks": 96,
          "midi": 37,
          "name": "C#2",
          "ticks": 21216,
          "time": 34.8946845,
          "velocity": 0.3937007874015748
        },
        {
          "duration": 0.1578944999999976,
          "durationTicks": 96,
          "midi": 35,
          "name": "B1",
          "ticks": 21312,
          "time": 35.052579,
          "velocity": 0.3937007874015748
        },
        {
          "duration": 0.1578944999999976,
          "durationTicks": 96,
          "midi": 32,
          "name": "G#1",
          "ticks": 21408,
          "time": 35.2104735,
          "velocity": 0.3937007874015748
        },
        {
          "duration": 0.1578945000000047,
          "durationTicks": 96,
          "midi": 33,
          "name": "A1",
          "ticks": 21504,
          "time": 35.368368,
          "velocity": 0.3937007874015748
        },
        {
          "duration": 0.1578944999999976,
          "durationTicks": 96,
          "midi": 33,
          "name": "A1",
          "ticks": 21600,
          "time": 35.5262625,
          "velocity": 0.3937007874015748
        },
        {
          "duration": 0.3157890000000023,
          "durationTicks": 192,
          "midi": 49,
          "name": "C#3",
          "ticks": 21696,
          "time": 35.684157,
          "velocity": 0.3937007874015748
        },
        {
          "duration": 0.3157889999999952,
          "durationTicks": 192,
          "midi": 44,
          "name": "G#2",
          "ticks": 21888,
          "time": 35.999946,
          "velocity": 0.3937007874015748
        },
        {
          "duration": 0.1578945000000047,
          "durationTicks": 96,
          "midi": 49,
          "name": "C#3",
          "ticks": 22080,
          "time": 36.315735,
          "velocity": 0.3937007874015748
        },
        {
          "duration": 0.1578944999999976,
          "durationTicks": 96,
          "midi": 45,
          "name": "A2",
          "ticks": 22176,
          "time": 36.4736295,
          "velocity": 0.3937007874015748
        },
        {
          "duration": 0.1578944999999976,
          "durationTicks": 96,
          "midi": 49,
          "name": "C#3",
          "ticks": 22272,
          "time": 36.631524,
          "velocity": 0.3937007874015748
        },
        {
          "duration": 0.1578945000000047,
          "durationTicks": 96,
          "midi": 47,
          "name": "B2",
          "ticks": 22368,
          "time": 36.7894185,
          "velocity": 0.3937007874015748
        },
        {
          "duration": 0.3157889999999952,
          "durationTicks": 192,
          "midi": 44,
          "name": "G#2",
          "ticks": 22464,
          "time": 36.947313,
          "velocity": 0.3937007874015748
        },
        {
          "duration": 0.3157890000000023,
          "durationTicks": 192,
          "midi": 42,
          "name": "F#2",
          "ticks": 22656,
          "time": 37.263101999999996,
          "velocity": 0.3937007874015748
        },
        {
          "duration": 0.1578944999999976,
          "durationTicks": 96,
          "midi": 44,
          "name": "G#2",
          "ticks": 22848,
          "time": 37.578891,
          "velocity": 0.3937007874015748
        },
        {
          "duration": 0.1578945000000047,
          "durationTicks": 96,
          "midi": 40,
          "name": "E2",
          "ticks": 22944,
          "time": 37.736785499999996,
          "velocity": 0.3937007874015748
        },
        {
          "duration": 0.3157889999999952,
          "durationTicks": 192,
          "midi": 32,
          "name": "G#1",
          "ticks": 23040,
          "time": 37.89468,
          "velocity": 0.3937007874015748
        },
        {
          "duration": 0.3157890000000023,
          "durationTicks": 192,
          "midi": 49,
          "name": "C#3",
          "ticks": 23232,
          "time": 38.210468999999996,
          "velocity": 0.3937007874015748
        },
        {
          "duration": 0.3157890000000023,
          "durationTicks": 192,
          "midi": 32,
          "name": "G#1",
          "ticks": 23424,
          "time": 38.526258,
          "velocity": 0.3937007874015748
        },
        {
          "duration": 0.3157889999999952,
          "durationTicks": 192,
          "midi": 49,
          "name": "C#3",
          "ticks": 23616,
          "time": 38.842047,
          "velocity": 0.3937007874015748
        },
        {
          "duration": 0.3157890000000023,
          "durationTicks": 192,
          "midi": 31,
          "name": "G1",
          "ticks": 23808,
          "time": 39.157835999999996,
          "velocity": 0.3937007874015748
        },
        {
          "duration": 0.3157890000000023,
          "durationTicks": 192,
          "midi": 49,
          "name": "C#3",
          "ticks": 24000,
          "time": 39.473625,
          "velocity": 0.3937007874015748
        },
        {
          "duration": 0.3157889999999952,
          "durationTicks": 192,
          "midi": 33,
          "name": "A1",
          "ticks": 24192,
          "time": 39.789414,
          "velocity": 0.3937007874015748
        },
        {
          "duration": 0.3157890000000023,
          "durationTicks": 192,
          "midi": 51,
          "name": "D#3",
          "ticks": 24384,
          "time": 40.105202999999996,
          "velocity": 0.3937007874015748
        },
        {
          "duration": 0.3157890000000023,
          "durationTicks": 192,
          "midi": 37,
          "name": "C#2",
          "ticks": 24576,
          "time": 40.420992,
          "velocity": 0.3937007874015748
        },
        {
          "duration": 0.3157889999999952,
          "durationTicks": 192,
          "midi": 49,
          "name": "C#3",
          "ticks": 24768,
          "time": 40.736781,
          "velocity": 0.3937007874015748
        },
        {
          "duration": 0.1578945000000047,
          "durationTicks": 96,
          "midi": 44,
          "name": "G#2",
          "ticks": 24960,
          "time": 41.052569999999996,
          "velocity": 0.3937007874015748
        },
        {
          "duration": 0.3157890000000023,
          "durationTicks": 192,
          "midi": 43,
          "name": "G2",
          "ticks": 25248,
          "time": 41.526253499999996,
          "velocity": 0.3937007874015748
        },
        {
          "duration": 0.3157890000000023,
          "durationTicks": 192,
          "midi": 42,
          "name": "F#2",
          "ticks": 25536,
          "time": 41.999936999999996,
          "velocity": 0.3937007874015748
        },
        {
          "duration": 0.1578944999999976,
          "durationTicks": 96,
          "midi": 40,
          "name": "E2",
          "ticks": 25728,
          "time": 42.315726,
          "velocity": 0.3937007874015748
        },
        {
          "duration": 0.1578945000000047,
          "durationTicks": 96,
          "midi": 37,
          "name": "C#2",
          "ticks": 25824,
          "time": 42.473620499999996,
          "velocity": 0.3937007874015748
        },
        {
          "duration": 0.1578944999999976,
          "durationTicks": 96,
          "midi": 40,
          "name": "E2",
          "ticks": 25920,
          "time": 42.631515,
          "velocity": 0.3937007874015748
        },
        {
          "duration": 0.1578944999999976,
          "durationTicks": 96,
          "midi": 42,
          "name": "F#2",
          "ticks": 26016,
          "time": 42.7894095,
          "velocity": 0.3937007874015748
        },
        {
          "duration": 0.3157890000000023,
          "durationTicks": 192,
          "midi": 35,
          "name": "B1",
          "ticks": 26112,
          "time": 42.947303999999995,
          "velocity": 0.3937007874015748
        },
        {
          "duration": 0.3157890000000023,
          "durationTicks": 192,
          "midi": 49,
          "name": "C#3",
          "ticks": 26304,
          "time": 43.263093,
          "velocity": 0.3937007874015748
        },
        {
          "duration": 0.3157889999999952,
          "durationTicks": 192,
          "midi": 44,
          "name": "G#2",
          "ticks": 26496,
          "time": 43.578882,
          "velocity": 0.3937007874015748
        },
        {
          "duration": 0.3157890000000023,
          "durationTicks": 192,
          "midi": 42,
          "name": "F#2",
          "ticks": 26688,
          "time": 43.894670999999995,
          "velocity": 0.3937007874015748
        },
        {
          "duration": 0.3157890000000023,
          "durationTicks": 192,
          "midi": 40,
          "name": "E2",
          "ticks": 26880,
          "time": 44.21046,
          "velocity": 0.3937007874015748
        },
        {
          "duration": 0.1578944999999976,
          "durationTicks": 96,
          "midi": 39,
          "name": "D#2",
          "ticks": 27072,
          "time": 44.526249,
          "velocity": 0.3937007874015748
        },
        {
          "duration": 0.1578944999999976,
          "durationTicks": 96,
          "midi": 40,
          "name": "E2",
          "ticks": 27168,
          "time": 44.6841435,
          "velocity": 0.3937007874015748
        },
        {
          "duration": 0.1578945000000047,
          "durationTicks": 96,
          "midi": 39,
          "name": "D#2",
          "ticks": 27264,
          "time": 44.842037999999995,
          "velocity": 0.3937007874015748
        },
        {
          "duration": 0.1578944999999976,
          "durationTicks": 96,
          "midi": 37,
          "name": "C#2",
          "ticks": 27360,
          "time": 44.9999325,
          "velocity": 0.3937007874015748
        },
        {
          "duration": 0.1578944999999976,
          "durationTicks": 96,
          "midi": 35,
          "name": "B1",
          "ticks": 27456,
          "time": 45.157827,
          "velocity": 0.3937007874015748
        },
        {
          "duration": 0.1578945000000047,
          "durationTicks": 96,
          "midi": 32,
          "name": "G#1",
          "ticks": 27552,
          "time": 45.315721499999995,
          "velocity": 0.3937007874015748
        },
        {
          "duration": 0.1578944999999976,
          "durationTicks": 96,
          "midi": 33,
          "name": "A1",
          "ticks": 27648,
          "time": 45.473616,
          "velocity": 0.3937007874015748
        },
        {
          "duration": 0.1578944999999976,
          "durationTicks": 96,
          "midi": 33,
          "name": "A1",
          "ticks": 27744,
          "time": 45.6315105,
          "velocity": 0.3937007874015748
        },
        {
          "duration": 0.3157890000000023,
          "durationTicks": 192,
          "midi": 49,
          "name": "C#3",
          "ticks": 27840,
          "time": 45.789404999999995,
          "velocity": 0.3937007874015748
        },
        {
          "duration": 0.3157890000000023,
          "durationTicks": 192,
          "midi": 44,
          "name": "G#2",
          "ticks": 28032,
          "time": 46.105194,
          "velocity": 0.3937007874015748
        },
        {
          "duration": 0.1578944999999976,
          "durationTicks": 96,
          "midi": 49,
          "name": "C#3",
          "ticks": 28224,
          "time": 46.420983,
          "velocity": 0.3937007874015748
        },
        {
          "duration": 0.1578944999999976,
          "durationTicks": 96,
          "midi": 45,
          "name": "A2",
          "ticks": 28320,
          "time": 46.5788775,
          "velocity": 0.3937007874015748
        },
        {
          "duration": 0.1578945000000047,
          "durationTicks": 96,
          "midi": 49,
          "name": "C#3",
          "ticks": 28416,
          "time": 46.736771999999995,
          "velocity": 0.3937007874015748
        },
        {
          "duration": 0.1578944999999976,
          "durationTicks": 96,
          "midi": 47,
          "name": "B2",
          "ticks": 28512,
          "time": 46.8946665,
          "velocity": 0.3937007874015748
        },
        {
          "duration": 0.3157890000000023,
          "durationTicks": 192,
          "midi": 44,
          "name": "G#2",
          "ticks": 28608,
          "time": 47.052561,
          "velocity": 0.3937007874015748
        },
        {
          "duration": 0.3157889999999952,
          "durationTicks": 192,
          "midi": 42,
          "name": "F#2",
          "ticks": 28800,
          "time": 47.36835,
          "velocity": 0.3937007874015748
        },
        {
          "duration": 0.1578945000000047,
          "durationTicks": 96,
          "midi": 44,
          "name": "G#2",
          "ticks": 28992,
          "time": 47.684138999999995,
          "velocity": 0.3937007874015748
        },
        {
          "duration": 0.1578944999999976,
          "durationTicks": 96,
          "midi": 40,
          "name": "E2",
          "ticks": 29088,
          "time": 47.8420335,
          "velocity": 0.3937007874015748
        },
        {
          "duration": 0.3157890000000023,
          "durationTicks": 192,
          "midi": 32,
          "name": "G#1",
          "ticks": 29184,
          "time": 47.999928,
          "velocity": 0.3937007874015748
        },
        {
          "duration": 0.3157889999999952,
          "durationTicks": 192,
          "midi": 49,
          "name": "C#3",
          "ticks": 29376,
          "time": 48.315717,
          "velocity": 0.3937007874015748
        },
        {
          "duration": 0.3157890000000023,
          "durationTicks": 192,
          "midi": 32,
          "name": "G#1",
          "ticks": 29568,
          "time": 48.631505999999995,
          "velocity": 0.3937007874015748
        },
        {
          "duration": 0.3157890000000023,
          "durationTicks": 192,
          "midi": 49,
          "name": "C#3",
          "ticks": 29760,
          "time": 48.947295,
          "velocity": 0.3937007874015748
        },
        {
          "duration": 0.3157889999999952,
          "durationTicks": 192,
          "midi": 31,
          "name": "G1",
          "ticks": 29952,
          "time": 49.263084,
          "velocity": 0.3937007874015748
        },
        {
          "duration": 0.3157890000000023,
          "durationTicks": 192,
          "midi": 49,
          "name": "C#3",
          "ticks": 30144,
          "time": 49.578872999999994,
          "velocity": 0.3937007874015748
        },
        {
          "duration": 0.3157890000000023,
          "durationTicks": 192,
          "midi": 33,
          "name": "A1",
          "ticks": 30336,
          "time": 49.894662,
          "velocity": 0.3937007874015748
        },
        {
          "duration": 0.3157890000000023,
          "durationTicks": 192,
          "midi": 51,
          "name": "D#3",
          "ticks": 30528,
          "time": 50.210451,
          "velocity": 0.3937007874015748
        },
        {
          "duration": 0.3157889999999952,
          "durationTicks": 192,
          "midi": 49,
          "name": "C#3",
          "ticks": 30720,
          "time": 50.52624,
          "velocity": 0.3937007874015748
        },
        {
          "duration": 0.3157890000000023,
          "durationTicks": 192,
          "midi": 61,
          "name": "C#4",
          "ticks": 30912,
          "time": 50.842029,
          "velocity": 0.3937007874015748
        },
        {
          "duration": 0.1578944999999976,
          "durationTicks": 96,
          "midi": 56,
          "name": "G#3",
          "ticks": 31104,
          "time": 51.157818,
          "velocity": 0.3937007874015748
        },
        {
          "duration": 0.3157890000000023,
          "durationTicks": 192,
          "midi": 55,
          "name": "G3",
          "ticks": 31392,
          "time": 51.6315015,
          "velocity": 0.3937007874015748
        },
        {
          "duration": 0.3157890000000023,
          "durationTicks": 192,
          "midi": 54,
          "name": "F#3",
          "ticks": 31680,
          "time": 52.105185,
          "velocity": 0.3937007874015748
        },
        {
          "duration": 0.1578944999999976,
          "durationTicks": 96,
          "midi": 52,
          "name": "E3",
          "ticks": 31872,
          "time": 52.420974,
          "velocity": 0.3937007874015748
        },
        {
          "duration": 0.1578944999999976,
          "durationTicks": 96,
          "midi": 49,
          "name": "C#3",
          "ticks": 31968,
          "time": 52.5788685,
          "velocity": 0.3937007874015748
        },
        {
          "duration": 0.1578945000000047,
          "durationTicks": 96,
          "midi": 52,
          "name": "E3",
          "ticks": 32064,
          "time": 52.736762999999996,
          "velocity": 0.3937007874015748
        },
        {
          "duration": 0.1578944999999976,
          "durationTicks": 96,
          "midi": 54,
          "name": "F#3",
          "ticks": 32160,
          "time": 52.8946575,
          "velocity": 0.3937007874015748
        },
        {
          "duration": 0.3157890000000023,
          "durationTicks": 192,
          "midi": 47,
          "name": "B2",
          "ticks": 32256,
          "time": 53.052552,
          "velocity": 0.3937007874015748
        },
        {
          "duration": 0.3157889999999952,
          "durationTicks": 192,
          "midi": 61,
          "name": "C#4",
          "ticks": 32448,
          "time": 53.368341,
          "velocity": 0.3937007874015748
        },
        {
          "duration": 0.3157890000000023,
          "durationTicks": 192,
          "midi": 56,
          "name": "G#3",
          "ticks": 32640,
          "time": 53.684129999999996,
          "velocity": 0.3937007874015748
        },
        {
          "duration": 0.3157890000000023,
          "durationTicks": 192,
          "midi": 54,
          "name": "F#3",
          "ticks": 32832,
          "time": 53.999919,
          "velocity": 0.3937007874015748
        },
        {
          "duration": 0.3157889999999952,
          "durationTicks": 192,
          "midi": 52,
          "name": "E3",
          "ticks": 33024,
          "time": 54.315708,
          "velocity": 0.3937007874015748
        },
        {
          "duration": 0.1578945000000047,
          "durationTicks": 96,
          "midi": 51,
          "name": "D#3",
          "ticks": 33216,
          "time": 54.631496999999996,
          "velocity": 0.3937007874015748
        },
        {
          "duration": 0.1578944999999976,
          "durationTicks": 96,
          "midi": 52,
          "name": "E3",
          "ticks": 33312,
          "time": 54.7893915,
          "velocity": 0.3937007874015748
        },
        {
          "duration": 0.1578944999999976,
          "durationTicks": 96,
          "midi": 51,
          "name": "D#3",
          "ticks": 33408,
          "time": 54.947286,
          "velocity": 0.3937007874015748
        },
        {
          "duration": 0.1578945000000047,
          "durationTicks": 96,
          "midi": 49,
          "name": "C#3",
          "ticks": 33504,
          "time": 55.105180499999996,
          "velocity": 0.3937007874015748
        },
        {
          "duration": 0.1578944999999976,
          "durationTicks": 96,
          "midi": 47,
          "name": "B2",
          "ticks": 33600,
          "time": 55.263075,
          "velocity": 0.3937007874015748
        },
        {
          "duration": 0.1578944999999976,
          "durationTicks": 96,
          "midi": 44,
          "name": "G#2",
          "ticks": 33696,
          "time": 55.4209695,
          "velocity": 0.3937007874015748
        },
        {
          "duration": 0.1578945000000047,
          "durationTicks": 96,
          "midi": 45,
          "name": "A2",
          "ticks": 33792,
          "time": 55.578863999999996,
          "velocity": 0.3937007874015748
        },
        {
          "duration": 0.1578944999999976,
          "durationTicks": 96,
          "midi": 45,
          "name": "A2",
          "ticks": 33888,
          "time": 55.7367585,
          "velocity": 0.3937007874015748
        },
        {
          "duration": 0.3157890000000023,
          "durationTicks": 192,
          "midi": 61,
          "name": "C#4",
          "ticks": 33984,
          "time": 55.894653,
          "velocity": 0.3937007874015748
        },
        {
          "duration": 0.3157889999999952,
          "durationTicks": 192,
          "midi": 56,
          "name": "G#3",
          "ticks": 34176,
          "time": 56.210442,
          "velocity": 0.3937007874015748
        },
        {
          "duration": 0.1578945000000047,
          "durationTicks": 96,
          "midi": 61,
          "name": "C#4",
          "ticks": 34368,
          "time": 56.526230999999996,
          "velocity": 0.3937007874015748
        },
        {
          "duration": 0.1578944999999976,
          "durationTicks": 96,
          "midi": 57,
          "name": "A3",
          "ticks": 34464,
          "time": 56.6841255,
          "velocity": 0.3937007874015748
        },
        {
          "duration": 0.1578944999999976,
          "durationTicks": 96,
          "midi": 61,
          "name": "C#4",
          "ticks": 34560,
          "time": 56.84202,
          "velocity": 0.3937007874015748
        },
        {
          "duration": 0.1578945000000047,
          "durationTicks": 96,
          "midi": 59,
          "name": "B3",
          "ticks": 34656,
          "time": 56.999914499999996,
          "velocity": 0.3937007874015748
        },
        {
          "duration": 0.3157889999999952,
          "durationTicks": 192,
          "midi": 56,
          "name": "G#3",
          "ticks": 34752,
          "time": 57.157809,
          "velocity": 0.3937007874015748
        },
        {
          "duration": 0.3157890000000023,
          "durationTicks": 192,
          "midi": 54,
          "name": "F#3",
          "ticks": 34944,
          "time": 57.473597999999996,
          "velocity": 0.3937007874015748
        },
        {
          "duration": 0.1578944999999976,
          "durationTicks": 96,
          "midi": 56,
          "name": "G#3",
          "ticks": 35136,
          "time": 57.789387,
          "velocity": 0.3937007874015748
        },
        {
          "duration": 0.1578945000000047,
          "durationTicks": 96,
          "midi": 52,
          "name": "E3",
          "ticks": 35232,
          "time": 57.947281499999995,
          "velocity": 0.3937007874015748
        },
        {
          "duration": 0.3157889999999952,
          "durationTicks": 192,
          "midi": 44,
          "name": "G#2",
          "ticks": 35328,
          "time": 58.105176,
          "velocity": 0.3937007874015748
        },
        {
          "duration": 0.3157890000000023,
          "durationTicks": 192,
          "midi": 61,
          "name": "C#4",
          "ticks": 35520,
          "time": 58.420964999999995,
          "velocity": 0.3937007874015748
        },
        {
          "duration": 0.3157890000000023,
          "durationTicks": 192,
          "midi": 44,
          "name": "G#2",
          "ticks": 35712,
          "time": 58.736754,
          "velocity": 0.3937007874015748
        },
        {
          "duration": 0.3157889999999952,
          "durationTicks": 192,
          "midi": 61,
          "name": "C#4",
          "ticks": 35904,
          "time": 59.052543,
          "velocity": 0.3937007874015748
        },
        {
          "duration": 0.3157890000000023,
          "durationTicks": 192,
          "midi": 43,
          "name": "G2",
          "ticks": 36096,
          "time": 59.368331999999995,
          "velocity": 0.3937007874015748
        },
        {
          "duration": 0.3157890000000023,
          "durationTicks": 192,
          "midi": 61,
          "name": "C#4",
          "ticks": 36288,
          "time": 59.684121,
          "velocity": 0.3937007874015748
        },
        {
          "duration": 0.3157889999999952,
          "durationTicks": 192,
          "midi": 45,
          "name": "A2",
          "ticks": 36480,
          "time": 59.99991,
          "velocity": 0.3937007874015748
        },
        {
          "duration": 0.3157890000000023,
          "durationTicks": 192,
          "midi": 63,
          "name": "D#4",
          "ticks": 36672,
          "time": 60.315698999999995,
          "velocity": 0.3937007874015748
        },
        {
          "duration": 0.3157890000000023,
          "durationTicks": 192,
          "midi": 49,
          "name": "C#3",
          "ticks": 36864,
          "time": 60.631488,
          "velocity": 0.3937007874015748
        },
        {
          "duration": 0.3157889999999952,
          "durationTicks": 192,
          "midi": 61,
          "name": "C#4",
          "ticks": 37056,
          "time": 60.947277,
          "velocity": 0.3937007874015748
        },
        {
          "duration": 0.1578945000000047,
          "durationTicks": 96,
          "midi": 56,
          "name": "G#3",
          "ticks": 37248,
          "time": 61.263065999999995,
          "velocity": 0.3937007874015748
        },
        {
          "duration": 0.3157890000000023,
          "durationTicks": 192,
          "midi": 55,
          "name": "G3",
          "ticks": 37536,
          "time": 61.736749499999995,
          "velocity": 0.3937007874015748
        },
        {
          "duration": 0.3157890000000023,
          "durationTicks": 192,
          "midi": 54,
          "name": "F#3",
          "ticks": 37824,
          "time": 62.210432999999995,
          "velocity": 0.3937007874015748
        },
        {
          "duration": 0.1578944999999976,
          "durationTicks": 96,
          "midi": 52,
          "name": "E3",
          "ticks": 38016,
          "time": 62.526222,
          "velocity": 0.3937007874015748
        },
        {
          "duration": 0.1578945000000047,
          "durationTicks": 96,
          "midi": 49,
          "name": "C#3",
          "ticks": 38112,
          "time": 62.684116499999995,
          "velocity": 0.3937007874015748
        },
        {
          "duration": 0.1578944999999976,
          "durationTicks": 96,
          "midi": 52,
          "name": "E3",
          "ticks": 38208,
          "time": 62.842011,
          "velocity": 0.3937007874015748
        },
        {
          "duration": 0.1578944999999976,
          "durationTicks": 96,
          "midi": 54,
          "name": "F#3",
          "ticks": 38304,
          "time": 62.9999055,
          "velocity": 0.3937007874015748
        },
        {
          "duration": 0.3157890000000023,
          "durationTicks": 192,
          "midi": 47,
          "name": "B2",
          "ticks": 38400,
          "time": 63.157799999999995,
          "velocity": 0.3937007874015748
        },
        {
          "duration": 0.3157890000000023,
          "durationTicks": 192,
          "midi": 61,
          "name": "C#4",
          "ticks": 38592,
          "time": 63.473589,
          "velocity": 0.3937007874015748
        },
        {
          "duration": 0.3157889999999952,
          "durationTicks": 192,
          "midi": 56,
          "name": "G#3",
          "ticks": 38784,
          "time": 63.789378,
          "velocity": 0.3937007874015748
        },
        {
          "duration": 0.3157890000000094,
          "durationTicks": 192,
          "midi": 54,
          "name": "F#3",
          "ticks": 38976,
          "time": 64.105167,
          "velocity": 0.3937007874015748
        },
        {
          "duration": 0.3157889999999952,
          "durationTicks": 192,
          "midi": 52,
          "name": "E3",
          "ticks": 39168,
          "time": 64.420956,
          "velocity": 0.3937007874015748
        },
        {
          "duration": 0.1578944999999976,
          "durationTicks": 96,
          "midi": 51,
          "name": "D#3",
          "ticks": 39360,
          "time": 64.736745,
          "velocity": 0.3937007874015748
        },
        {
          "duration": 0.1578944999999976,
          "durationTicks": 96,
          "midi": 52,
          "name": "E3",
          "ticks": 39456,
          "time": 64.8946395,
          "velocity": 0.3937007874015748
        },
        {
          "duration": 0.1578944999999976,
          "durationTicks": 96,
          "midi": 51,
          "name": "D#3",
          "ticks": 39552,
          "time": 65.052534,
          "velocity": 0.3937007874015748
        },
        {
          "duration": 0.15789450000001182,
          "durationTicks": 96,
          "midi": 49,
          "name": "C#3",
          "ticks": 39648,
          "time": 65.21042849999999,
          "velocity": 0.3937007874015748
        },
        {
          "duration": 0.1578944999999976,
          "durationTicks": 96,
          "midi": 47,
          "name": "B2",
          "ticks": 39744,
          "time": 65.368323,
          "velocity": 0.3937007874015748
        },
        {
          "duration": 0.1578944999999976,
          "durationTicks": 96,
          "midi": 44,
          "name": "G#2",
          "ticks": 39840,
          "time": 65.5262175,
          "velocity": 0.3937007874015748
        },
        {
          "duration": 0.1578944999999976,
          "durationTicks": 96,
          "midi": 45,
          "name": "A2",
          "ticks": 39936,
          "time": 65.684112,
          "velocity": 0.3937007874015748
        },
        {
          "duration": 0.1578944999999976,
          "durationTicks": 96,
          "midi": 45,
          "name": "A2",
          "ticks": 40032,
          "time": 65.8420065,
          "velocity": 0.3937007874015748
        },
        {
          "duration": 0.3157890000000094,
          "durationTicks": 192,
          "midi": 61,
          "name": "C#4",
          "ticks": 40128,
          "time": 65.999901,
          "velocity": 0.3937007874015748
        },
        {
          "duration": 0.3157889999999952,
          "durationTicks": 192,
          "midi": 56,
          "name": "G#3",
          "ticks": 40320,
          "time": 66.31569,
          "velocity": 0.3937007874015748
        },
        {
          "duration": 0.1578944999999976,
          "durationTicks": 96,
          "midi": 61,
          "name": "C#4",
          "ticks": 40512,
          "time": 66.631479,
          "velocity": 0.3937007874015748
        },
        {
          "duration": 0.1578944999999976,
          "durationTicks": 96,
          "midi": 57,
          "name": "A3",
          "ticks": 40608,
          "time": 66.7893735,
          "velocity": 0.3937007874015748
        },
        {
          "duration": 0.1578944999999976,
          "durationTicks": 96,
          "midi": 61,
          "name": "C#4",
          "ticks": 40704,
          "time": 66.947268,
          "velocity": 0.3937007874015748
        },
        {
          "duration": 0.15789450000001182,
          "durationTicks": 96,
          "midi": 59,
          "name": "B3",
          "ticks": 40800,
          "time": 67.10516249999999,
          "velocity": 0.3937007874015748
        },
        {
          "duration": 0.3157889999999952,
          "durationTicks": 192,
          "midi": 56,
          "name": "G#3",
          "ticks": 40896,
          "time": 67.263057,
          "velocity": 0.3937007874015748
        },
        {
          "duration": 0.3157889999999952,
          "durationTicks": 192,
          "midi": 54,
          "name": "F#3",
          "ticks": 41088,
          "time": 67.578846,
          "velocity": 0.3937007874015748
        },
        {
          "duration": 0.1578944999999976,
          "durationTicks": 96,
          "midi": 56,
          "name": "G#3",
          "ticks": 41280,
          "time": 67.894635,
          "velocity": 0.3937007874015748
        },
        {
          "duration": 0.15789450000001182,
          "durationTicks": 96,
          "midi": 52,
          "name": "E3",
          "ticks": 41376,
          "time": 68.05252949999999,
          "velocity": 0.3937007874015748
        },
        {
          "duration": 0.3157889999999952,
          "durationTicks": 192,
          "midi": 44,
          "name": "G#2",
          "ticks": 41472,
          "time": 68.210424,
          "velocity": 0.3937007874015748
        },
        {
          "duration": 0.3157889999999952,
          "durationTicks": 192,
          "midi": 61,
          "name": "C#4",
          "ticks": 41664,
          "time": 68.526213,
          "velocity": 0.3937007874015748
        },
        {
          "duration": 0.3157890000000094,
          "durationTicks": 192,
          "midi": 44,
          "name": "G#2",
          "ticks": 41856,
          "time": 68.842002,
          "velocity": 0.3937007874015748
        },
        {
          "duration": 0.3157889999999952,
          "durationTicks": 192,
          "midi": 61,
          "name": "C#4",
          "ticks": 42048,
          "time": 69.157791,
          "velocity": 0.3937007874015748
        },
        {
          "duration": 0.3157889999999952,
          "durationTicks": 192,
          "midi": 43,
          "name": "G2",
          "ticks": 42240,
          "time": 69.47358,
          "velocity": 0.3937007874015748
        },
        {
          "duration": 0.3157890000000094,
          "durationTicks": 192,
          "midi": 61,
          "name": "C#4",
          "ticks": 42432,
          "time": 69.789369,
          "velocity": 0.3937007874015748
        },
        {
          "duration": 0.3157889999999952,
          "durationTicks": 192,
          "midi": 45,
          "name": "A2",
          "ticks": 42624,
          "time": 70.105158,
          "velocity": 0.3937007874015748
        },
        {
          "duration": 0.3157889999999952,
          "durationTicks": 192,
          "midi": 63,
          "name": "D#4",
          "ticks": 42816,
          "time": 70.420947,
          "velocity": 0.3937007874015748
        },
        {
          "duration": 0.3157890000000094,
          "durationTicks": 192,
          "midi": 73,
          "name": "C#5",
          "ticks": 43008,
          "time": 70.736736,
          "velocity": 0.3937007874015748
        },
        {
          "duration": 0.3157889999999952,
          "durationTicks": 192,
          "midi": 85,
          "name": "C#6",
          "ticks": 43200,
          "time": 71.052525,
          "velocity": 0.3937007874015748
        },
        {
          "duration": 0.1578944999999976,
          "durationTicks": 96,
          "midi": 80,
          "name": "G#5",
          "ticks": 43392,
          "time": 71.368314,
          "velocity": 0.3937007874015748
        },
        {
          "duration": 0.3157890000000094,
          "durationTicks": 192,
          "midi": 79,
          "name": "G5",
          "ticks": 43680,
          "time": 71.84199749999999,
          "velocity": 0.3937007874015748
        },
        {
          "duration": 0.3157889999999952,
          "durationTicks": 192,
          "midi": 78,
          "name": "F#5",
          "ticks": 43968,
          "time": 72.315681,
          "velocity": 0.3937007874015748
        },
        {
          "duration": 0.1578944999999976,
          "durationTicks": 96,
          "midi": 76,
          "name": "E5",
          "ticks": 44160,
          "time": 72.63147,
          "velocity": 0.3937007874015748
        },
        {
          "duration": 0.15789450000001182,
          "durationTicks": 96,
          "midi": 73,
          "name": "C#5",
          "ticks": 44256,
          "time": 72.78936449999999,
          "velocity": 0.3937007874015748
        },
        {
          "duration": 0.1578944999999976,
          "durationTicks": 96,
          "midi": 76,
          "name": "E5",
          "ticks": 44352,
          "time": 72.947259,
          "velocity": 0.3937007874015748
        },
        {
          "duration": 0.1578944999999976,
          "durationTicks": 96,
          "midi": 78,
          "name": "F#5",
          "ticks": 44448,
          "time": 73.1051535,
          "velocity": 0.3937007874015748
        },
        {
          "duration": 0.3157889999999952,
          "durationTicks": 192,
          "midi": 71,
          "name": "B4",
          "ticks": 44544,
          "time": 73.263048,
          "velocity": 0.3937007874015748
        },
        {
          "duration": 0.3157890000000094,
          "durationTicks": 192,
          "midi": 85,
          "name": "C#6",
          "ticks": 44736,
          "time": 73.578837,
          "velocity": 0.3937007874015748
        },
        {
          "duration": 0.3157889999999952,
          "durationTicks": 192,
          "midi": 80,
          "name": "G#5",
          "ticks": 44928,
          "time": 73.894626,
          "velocity": 0.3937007874015748
        },
        {
          "duration": 0.3157889999999952,
          "durationTicks": 192,
          "midi": 78,
          "name": "F#5",
          "ticks": 45120,
          "time": 74.210415,
          "velocity": 0.3937007874015748
        },
        {
          "duration": 0.3157890000000094,
          "durationTicks": 192,
          "midi": 76,
          "name": "E5",
          "ticks": 45312,
          "time": 74.52620399999999,
          "velocity": 0.3937007874015748
        },
        {
          "duration": 0.1578944999999976,
          "durationTicks": 96,
          "midi": 75,
          "name": "D#5",
          "ticks": 45504,
          "time": 74.841993,
          "velocity": 0.3937007874015748
        },
        {
          "duration": 0.1578944999999976,
          "durationTicks": 96,
          "midi": 76,
          "name": "E5",
          "ticks": 45600,
          "time": 74.9998875,
          "velocity": 0.3937007874015748
        },
        {
          "duration": 0.1578944999999976,
          "durationTicks": 96,
          "midi": 75,
          "name": "D#5",
          "ticks": 45696,
          "time": 75.157782,
          "velocity": 0.3937007874015748
        },
        {
          "duration": 0.1578944999999976,
          "durationTicks": 96,
          "midi": 73,
          "name": "C#5",
          "ticks": 45792,
          "time": 75.3156765,
          "velocity": 0.3937007874015748
        },
        {
          "duration": 0.1578944999999976,
          "durationTicks": 96,
          "midi": 71,
          "name": "B4",
          "ticks": 45888,
          "time": 75.47357099999999,
          "velocity": 0.3937007874015748
        },
        {
          "duration": 0.15789450000001182,
          "durationTicks": 96,
          "midi": 68,
          "name": "G#4",
          "ticks": 45984,
          "time": 75.63146549999999,
          "velocity": 0.3937007874015748
        },
        {
          "duration": 0.1578944999999976,
          "durationTicks": 96,
          "midi": 69,
          "name": "A4",
          "ticks": 46080,
          "time": 75.78936,
          "velocity": 0.3937007874015748
        },
        {
          "duration": 2.3684174999999925,
          "durationTicks": 1440,
          "midi": 57,
          "name": "A3",
          "ticks": 46080,
          "time": 75.78936,
          "velocity": 0.3937007874015748
        },
        {
          "duration": 0.1578944999999976,
          "durationTicks": 96,
          "midi": 69,
          "name": "A4",
          "ticks": 46176,
          "time": 75.9472545,
          "velocity": 0.3937007874015748
        },
        {
          "duration": 0.3157889999999952,
          "durationTicks": 192,
          "midi": 85,
          "name": "C#6",
          "ticks": 46272,
          "time": 76.105149,
          "velocity": 0.3937007874015748
        },
        {
          "duration": 0.3157890000000094,
          "durationTicks": 192,
          "midi": 80,
          "name": "G#5",
          "ticks": 46464,
          "time": 76.42093799999999,
          "velocity": 0.3937007874015748
        },
        {
          "duration": 0.1578944999999976,
          "durationTicks": 96,
          "midi": 85,
          "name": "C#6",
          "ticks": 46656,
          "time": 76.736727,
          "velocity": 0.3937007874015748
        },
        {
          "duration": 0.1578944999999976,
          "durationTicks": 96,
          "midi": 81,
          "name": "A5",
          "ticks": 46752,
          "time": 76.8946215,
          "velocity": 0.3937007874015748
        },
        {
          "duration": 0.1578944999999976,
          "durationTicks": 96,
          "midi": 85,
          "name": "C#6",
          "ticks": 46848,
          "time": 77.052516,
          "velocity": 0.3937007874015748
        },
        {
          "duration": 0.1578944999999976,
          "durationTicks": 96,
          "midi": 83,
          "name": "B5",
          "ticks": 46944,
          "time": 77.2104105,
          "velocity": 0.3937007874015748
        },
        {
          "duration": 0.3157890000000094,
          "durationTicks": 192,
          "midi": 80,
          "name": "G#5",
          "ticks": 47040,
          "time": 77.36830499999999,
          "velocity": 0.3937007874015748
        },
        {
          "duration": 0.3157889999999952,
          "durationTicks": 192,
          "midi": 78,
          "name": "F#5",
          "ticks": 47232,
          "time": 77.684094,
          "velocity": 0.3937007874015748
        },
        {
          "duration": 0.1578944999999976,
          "durationTicks": 96,
          "midi": 80,
          "name": "G#5",
          "ticks": 47424,
          "time": 77.999883,
          "velocity": 0.3937007874015748
        },
        {
          "duration": 0.1578944999999976,
          "durationTicks": 96,
          "midi": 76,
          "name": "E5",
          "ticks": 47520,
          "time": 78.1577775,
          "velocity": 0.3937007874015748
        },
        {
          "duration": 0.3157890000000094,
          "durationTicks": 192,
          "midi": 68,
          "name": "G#4",
          "ticks": 47616,
          "time": 78.31567199999999,
          "velocity": 0.3937007874015748
        },
        {
          "duration": 1.2631560000000093,
          "durationTicks": 768,
          "midi": 56,
          "name": "G#3",
          "ticks": 47616,
          "time": 78.31567199999999,
          "velocity": 0.3937007874015748
        },
        {
          "duration": 0.3157889999999952,
          "durationTicks": 192,
          "midi": 85,
          "name": "C#6",
          "ticks": 47808,
          "time": 78.631461,
          "velocity": 0.3937007874015748
        },
        {
          "duration": 0.3157889999999952,
          "durationTicks": 192,
          "midi": 68,
          "name": "G#4",
          "ticks": 48000,
          "time": 78.94725,
          "velocity": 0.3937007874015748
        },
        {
          "duration": 0.3157890000000094,
          "durationTicks": 192,
          "midi": 85,
          "name": "C#6",
          "ticks": 48192,
          "time": 79.26303899999999,
          "velocity": 0.3937007874015748
        },
        {
          "duration": 0.3157889999999952,
          "durationTicks": 192,
          "midi": 67,
          "name": "G4",
          "ticks": 48384,
          "time": 79.578828,
          "velocity": 0.3937007874015748
        },
        {
          "duration": 0.6315779999999904,
          "durationTicks": 384,
          "midi": 55,
          "name": "G3",
          "ticks": 48384,
          "time": 79.578828,
          "velocity": 0.3937007874015748
        },
        {
          "duration": 0.3157889999999952,
          "durationTicks": 192,
          "midi": 85,
          "name": "C#6",
          "ticks": 48576,
          "time": 79.894617,
          "velocity": 0.3937007874015748
        },
        {
          "duration": 0.3157890000000094,
          "durationTicks": 192,
          "midi": 57,
          "name": "A3",
          "ticks": 48768,
          "time": 80.21040599999999,
          "velocity": 0.3937007874015748
        },
        {
          "duration": 0.3157890000000094,
          "durationTicks": 192,
          "midi": 69,
          "name": "A4",
          "ticks": 48768,
          "time": 80.21040599999999,
          "velocity": 0.3937007874015748
        },
        {
          "duration": 0.3157889999999952,
          "durationTicks": 192,
          "midi": 87,
          "name": "D#6",
          "ticks": 48960,
          "time": 80.526195,
          "velocity": 0.3937007874015748
        },
        {
          "duration": 0.3157889999999952,
          "durationTicks": 192,
          "midi": 75,
          "name": "D#5",
          "ticks": 48960,
          "time": 80.526195,
          "velocity": 0.3937007874015748
        },
        {
          "duration": 0.3157889999999952,
          "durationTicks": 192,
          "midi": 61,
          "name": "C#4",
          "ticks": 49152,
          "time": 80.841984,
          "velocity": 0.3937007874015748
        },
        {
          "duration": 0.3157889999999952,
          "durationTicks": 192,
          "midi": 49,
          "name": "C#3",
          "ticks": 49152,
          "time": 80.841984,
          "velocity": 0.3937007874015748
        },
        {
          "duration": 0.3157890000000094,
          "durationTicks": 192,
          "midi": 73,
          "name": "C#5",
          "ticks": 49344,
          "time": 81.15777299999999,
          "velocity": 0.3937007874015748
        },
        {
          "duration": 0.3157890000000094,
          "durationTicks": 192,
          "midi": 61,
          "name": "C#4",
          "ticks": 49344,
          "time": 81.15777299999999,
          "velocity": 0.3937007874015748
        },
        {
          "duration": 0.1578944999999976,
          "durationTicks": 96,
          "midi": 56,
          "name": "G#3",
          "ticks": 49536,
          "time": 81.473562,
          "velocity": 0.3937007874015748
        },
        {
          "duration": 0.1578944999999976,
          "durationTicks": 96,
          "midi": 68,
          "name": "G#4",
          "ticks": 49536,
          "time": 81.473562,
          "velocity": 0.3937007874015748
        },
        {
          "duration": 0.3157890000000094,
          "durationTicks": 192,
          "midi": 55,
          "name": "G3",
          "ticks": 49824,
          "time": 81.9472455,
          "velocity": 0.3937007874015748
        },
        {
          "duration": 0.3157890000000094,
          "durationTicks": 192,
          "midi": 67,
          "name": "G4",
          "ticks": 49824,
          "time": 81.9472455,
          "velocity": 0.3937007874015748
        },
        {
          "duration": 0.3157889999999952,
          "durationTicks": 192,
          "midi": 66,
          "name": "F#4",
          "ticks": 50112,
          "time": 82.420929,
          "velocity": 0.3937007874015748
        },
        {
          "duration": 0.3157889999999952,
          "durationTicks": 192,
          "midi": 54,
          "name": "F#3",
          "ticks": 50112,
          "time": 82.420929,
          "velocity": 0.3937007874015748
        },
        {
          "duration": 0.1578944999999976,
          "durationTicks": 96,
          "midi": 52,
          "name": "E3",
          "ticks": 50304,
          "time": 82.736718,
          "velocity": 0.3937007874015748
        },
        {
          "duration": 0.1578944999999976,
          "durationTicks": 96,
          "midi": 64,
          "name": "E4",
          "ticks": 50304,
          "time": 82.736718,
          "velocity": 0.3937007874015748
        },
        {
          "duration": 0.1578944999999976,
          "durationTicks": 96,
          "midi": 49,
          "name": "C#3",
          "ticks": 50400,
          "time": 82.8946125,
          "velocity": 0.3937007874015748
        },
        {
          "duration": 0.1578944999999976,
          "durationTicks": 96,
          "midi": 61,
          "name": "C#4",
          "ticks": 50400,
          "time": 82.8946125,
          "velocity": 0.3937007874015748
        },
        {
          "duration": 0.15789450000001182,
          "durationTicks": 96,
          "midi": 52,
          "name": "E3",
          "ticks": 50496,
          "time": 83.05250699999999,
          "velocity": 0.3937007874015748
        },
        {
          "duration": 0.15789450000001182,
          "durationTicks": 96,
          "midi": 64,
          "name": "E4",
          "ticks": 50496,
          "time": 83.05250699999999,
          "velocity": 0.3937007874015748
        },
        {
          "duration": 0.1578944999999976,
          "durationTicks": 96,
          "midi": 66,
          "name": "F#4",
          "ticks": 50592,
          "time": 83.2104015,
          "velocity": 0.3937007874015748
        },
        {
          "duration": 0.1578944999999976,
          "durationTicks": 96,
          "midi": 54,
          "name": "F#3",
          "ticks": 50592,
          "time": 83.2104015,
          "velocity": 0.3937007874015748
        },
        {
          "duration": 0.3157889999999952,
          "durationTicks": 192,
          "midi": 47,
          "name": "B2",
          "ticks": 50688,
          "time": 83.368296,
          "velocity": 0.3937007874015748
        },
        {
          "duration": 0.3157889999999952,
          "durationTicks": 192,
          "midi": 59,
          "name": "B3",
          "ticks": 50688,
          "time": 83.368296,
          "velocity": 0.3937007874015748
        },
        {
          "duration": 0.3157889999999952,
          "durationTicks": 192,
          "midi": 61,
          "name": "C#4",
          "ticks": 50880,
          "time": 83.684085,
          "velocity": 0.3937007874015748
        },
        {
          "duration": 0.3157889999999952,
          "durationTicks": 192,
          "midi": 73,
          "name": "C#5",
          "ticks": 50880,
          "time": 83.684085,
          "velocity": 0.3937007874015748
        },
        {
          "duration": 0.3157890000000094,
          "durationTicks": 192,
          "midi": 56,
          "name": "G#3",
          "ticks": 51072,
          "time": 83.99987399999999,
          "velocity": 0.3937007874015748
        },
        {
          "duration": 0.3157890000000094,
          "durationTicks": 192,
          "midi": 68,
          "name": "G#4",
          "ticks": 51072,
          "time": 83.99987399999999,
          "velocity": 0.3937007874015748
        },
        {
          "duration": 0.3157889999999952,
          "durationTicks": 192,
          "midi": 66,
          "name": "F#4",
          "ticks": 51264,
          "time": 84.315663,
          "velocity": 0.3937007874015748
        },
        {
          "duration": 0.3157889999999952,
          "durationTicks": 192,
          "midi": 54,
          "name": "F#3",
          "ticks": 51264,
          "time": 84.315663,
          "velocity": 0.3937007874015748
        },
        {
          "duration": 0.3157889999999952,
          "durationTicks": 192,
          "midi": 64,
          "name": "E4",
          "ticks": 51456,
          "time": 84.631452,
          "velocity": 0.3937007874015748
        },
        {
          "duration": 0.3157889999999952,
          "durationTicks": 192,
          "midi": 52,
          "name": "E3",
          "ticks": 51456,
          "time": 84.631452,
          "velocity": 0.3937007874015748
        },
        {
          "duration": 0.15789450000001182,
          "durationTicks": 96,
          "midi": 51,
          "name": "D#3",
          "ticks": 51648,
          "time": 84.94724099999999,
          "velocity": 0.3937007874015748
        },
        {
          "duration": 0.15789450000001182,
          "durationTicks": 96,
          "midi": 63,
          "name": "D#4",
          "ticks": 51648,
          "time": 84.94724099999999,
          "velocity": 0.3937007874015748
        },
        {
          "duration": 0.1578944999999976,
          "durationTicks": 96,
          "midi": 52,
          "name": "E3",
          "ticks": 51744,
          "time": 85.1051355,
          "velocity": 0.3937007874015748
        },
        {
          "duration": 0.1578944999999976,
          "durationTicks": 96,
          "midi": 64,
          "name": "E4",
          "ticks": 51744,
          "time": 85.1051355,
          "velocity": 0.3937007874015748
        },
        {
          "duration": 0.1578944999999976,
          "durationTicks": 96,
          "midi": 63,
          "name": "D#4",
          "ticks": 51840,
          "time": 85.26303,
          "velocity": 0.3937007874015748
        },
        {
          "duration": 0.1578944999999976,
          "durationTicks": 96,
          "midi": 51,
          "name": "D#3",
          "ticks": 51840,
          "time": 85.26303,
          "velocity": 0.3937007874015748
        },
        {
          "duration": 0.1578944999999976,
          "durationTicks": 96,
          "midi": 49,
          "name": "C#3",
          "ticks": 51936,
          "time": 85.4209245,
          "velocity": 0.3937007874015748
        },
        {
          "duration": 0.1578944999999976,
          "durationTicks": 96,
          "midi": 61,
          "name": "C#4",
          "ticks": 51936,
          "time": 85.4209245,
          "velocity": 0.3937007874015748
        },
        {
          "duration": 0.1578944999999976,
          "durationTicks": 96,
          "midi": 47,
          "name": "B2",
          "ticks": 52032,
          "time": 85.578819,
          "velocity": 0.3937007874015748
        },
        {
          "duration": 0.1578944999999976,
          "durationTicks": 96,
          "midi": 59,
          "name": "B3",
          "ticks": 52032,
          "time": 85.578819,
          "velocity": 0.3937007874015748
        },
        {
          "duration": 0.1578944999999976,
          "durationTicks": 96,
          "midi": 44,
          "name": "G#2",
          "ticks": 52128,
          "time": 85.7367135,
          "velocity": 0.3937007874015748
        },
        {
          "duration": 0.1578944999999976,
          "durationTicks": 96,
          "midi": 56,
          "name": "G#3",
          "ticks": 52128,
          "time": 85.7367135,
          "velocity": 0.3937007874015748
        },
        {
          "duration": 0.15789450000001182,
          "durationTicks": 96,
          "midi": 45,
          "name": "A2",
          "ticks": 52224,
          "time": 85.89460799999999,
          "velocity": 0.3937007874015748
        },
        {
          "duration": 0.15789450000001182,
          "durationTicks": 96,
          "midi": 57,
          "name": "A3",
          "ticks": 52224,
          "time": 85.89460799999999,
          "velocity": 0.3937007874015748
        },
        {
          "duration": 0.1578944999999976,
          "durationTicks": 96,
          "midi": 57,
          "name": "A3",
          "ticks": 52320,
          "time": 86.0525025,
          "velocity": 0.3937007874015748
        },
        {
          "duration": 0.1578944999999976,
          "durationTicks": 96,
          "midi": 45,
          "name": "A2",
          "ticks": 52320,
          "time": 86.0525025,
          "velocity": 0.3937007874015748
        },
        {
          "duration": 0.3157889999999952,
          "durationTicks": 192,
          "midi": 61,
          "name": "C#4",
          "ticks": 52416,
          "time": 86.210397,
          "velocity": 0.3937007874015748
        },
        {
          "duration": 0.3157889999999952,
          "durationTicks": 192,
          "midi": 73,
          "name": "C#5",
          "ticks": 52416,
          "time": 86.210397,
          "velocity": 0.3937007874015748
        },
        {
          "duration": 0.3157889999999952,
          "durationTicks": 192,
          "midi": 56,
          "name": "G#3",
          "ticks": 52608,
          "time": 86.526186,
          "velocity": 0.3937007874015748
        },
        {
          "duration": 0.3157889999999952,
          "durationTicks": 192,
          "midi": 68,
          "name": "G#4",
          "ticks": 52608,
          "time": 86.526186,
          "velocity": 0.3937007874015748
        },
        {
          "duration": 0.15789450000001182,
          "durationTicks": 96,
          "midi": 73,
          "name": "C#5",
          "ticks": 52800,
          "time": 86.84197499999999,
          "velocity": 0.3937007874015748
        },
        {
          "duration": 0.15789450000001182,
          "durationTicks": 96,
          "midi": 61,
          "name": "C#4",
          "ticks": 52800,
          "time": 86.84197499999999,
          "velocity": 0.3937007874015748
        },
        {
          "duration": 0.1578944999999976,
          "durationTicks": 96,
          "midi": 69,
          "name": "A4",
          "ticks": 52896,
          "time": 86.9998695,
          "velocity": 0.3937007874015748
        },
        {
          "duration": 0.1578944999999976,
          "durationTicks": 96,
          "midi": 57,
          "name": "A3",
          "ticks": 52896,
          "time": 86.9998695,
          "velocity": 0.3937007874015748
        },
        {
          "duration": 0.1578944999999976,
          "durationTicks": 96,
          "midi": 73,
          "name": "C#5",
          "ticks": 52992,
          "time": 87.157764,
          "velocity": 0.3937007874015748
        },
        {
          "duration": 0.1578944999999976,
          "durationTicks": 96,
          "midi": 61,
          "name": "C#4",
          "ticks": 52992,
          "time": 87.157764,
          "velocity": 0.3937007874015748
        },
        {
          "duration": 0.1578944999999976,
          "durationTicks": 96,
          "midi": 59,
          "name": "B3",
          "ticks": 53088,
          "time": 87.3156585,
          "velocity": 0.3937007874015748
        },
        {
          "duration": 0.1578944999999976,
          "durationTicks": 96,
          "midi": 71,
          "name": "B4",
          "ticks": 53088,
          "time": 87.3156585,
          "velocity": 0.3937007874015748
        },
        {
          "duration": 0.3157889999999952,
          "durationTicks": 192,
          "midi": 56,
          "name": "G#3",
          "ticks": 53184,
          "time": 87.473553,
          "velocity": 0.3937007874015748
        },
        {
          "duration": 0.3157889999999952,
          "durationTicks": 192,
          "midi": 68,
          "name": "G#4",
          "ticks": 53184,
          "time": 87.473553,
          "velocity": 0.3937007874015748
        },
        {
          "duration": 0.3157890000000094,
          "durationTicks": 192,
          "midi": 54,
          "name": "F#3",
          "ticks": 53376,
          "time": 87.78934199999999,
          "velocity": 0.3937007874015748
        },
        {
          "duration": 0.3157890000000094,
          "durationTicks": 192,
          "midi": 66,
          "name": "F#4",
          "ticks": 53376,
          "time": 87.78934199999999,
          "velocity": 0.3937007874015748
        },
        {
          "duration": 0.1578944999999976,
          "durationTicks": 96,
          "midi": 56,
          "name": "G#3",
          "ticks": 53568,
          "time": 88.105131,
          "velocity": 0.3937007874015748
        },
        {
          "duration": 0.1578944999999976,
          "durationTicks": 96,
          "midi": 68,
          "name": "G#4",
          "ticks": 53568,
          "time": 88.105131,
          "velocity": 0.3937007874015748
        },
        {
          "duration": 0.1578944999999976,
          "durationTicks": 96,
          "midi": 52,
          "name": "E3",
          "ticks": 53664,
          "time": 88.2630255,
          "velocity": 0.3937007874015748
        },
        {
          "duration": 0.1578944999999976,
          "durationTicks": 96,
          "midi": 64,
          "name": "E4",
          "ticks": 53664,
          "time": 88.2630255,
          "velocity": 0.3937007874015748
        },
        {
          "duration": 0.1578944999999976,
          "durationTicks": 96,
          "midi": 44,
          "name": "G#2",
          "ticks": 53760,
          "time": 88.42092,
          "velocity": 0.3937007874015748
        },
        {
          "duration": 0.1578944999999976,
          "durationTicks": 96,
          "midi": 56,
          "name": "G#3",
          "ticks": 53760,
          "time": 88.42092,
          "velocity": 0.3937007874015748
        },
        {
          "duration": 0.1578944999999976,
          "durationTicks": 96,
          "midi": 56,
          "name": "G#3",
          "ticks": 53856,
          "time": 88.5788145,
          "velocity": 0.3937007874015748
        },
        {
          "duration": 0.1578944999999976,
          "durationTicks": 96,
          "midi": 44,
          "name": "G#2",
          "ticks": 53856,
          "time": 88.5788145,
          "velocity": 0.3937007874015748
        },
        {
          "duration": 0.3157890000000094,
          "durationTicks": 192,
          "midi": 61,
          "name": "C#4",
          "ticks": 53952,
          "time": 88.73670899999999,
          "velocity": 0.3937007874015748
        },
        {
          "duration": 0.3157890000000094,
          "durationTicks": 192,
          "midi": 73,
          "name": "C#5",
          "ticks": 53952,
          "time": 88.73670899999999,
          "velocity": 0.3937007874015748
        },
        {
          "duration": 0.3157889999999952,
          "durationTicks": 192,
          "midi": 44,
          "name": "G#2",
          "ticks": 54144,
          "time": 89.052498,
          "velocity": 0.3937007874015748
        },
        {
          "duration": 0.3157889999999952,
          "durationTicks": 192,
          "midi": 56,
          "name": "G#3",
          "ticks": 54144,
          "time": 89.052498,
          "velocity": 0.3937007874015748
        },
        {
          "duration": 0.3157889999999952,
          "durationTicks": 192,
          "midi": 61,
          "name": "C#4",
          "ticks": 54336,
          "time": 89.368287,
          "velocity": 0.3937007874015748
        },
        {
          "duration": 0.3157889999999952,
          "durationTicks": 192,
          "midi": 73,
          "name": "C#5",
          "ticks": 54336,
          "time": 89.368287,
          "velocity": 0.3937007874015748
        },
        {
          "duration": 0.15789450000001182,
          "durationTicks": 96,
          "midi": 43,
          "name": "G2",
          "ticks": 54528,
          "time": 89.68407599999999,
          "velocity": 0.3937007874015748
        },
        {
          "duration": 0.15789450000001182,
          "durationTicks": 96,
          "midi": 55,
          "name": "G3",
          "ticks": 54528,
          "time": 89.68407599999999,
          "velocity": 0.3937007874015748
        },
        {
          "duration": 0.1578944999999976,
          "durationTicks": 96,
          "midi": 43,
          "name": "G2",
          "ticks": 54624,
          "time": 89.8419705,
          "velocity": 0.3937007874015748
        },
        {
          "duration": 0.1578944999999976,
          "durationTicks": 96,
          "midi": 55,
          "name": "G3",
          "ticks": 54624,
          "time": 89.8419705,
          "velocity": 0.3937007874015748
        },
        {
          "duration": 0.3157889999999952,
          "durationTicks": 192,
          "midi": 61,
          "name": "C#4",
          "ticks": 54720,
          "time": 89.999865,
          "velocity": 0.3937007874015748
        },
        {
          "duration": 0.3157889999999952,
          "durationTicks": 192,
          "midi": 73,
          "name": "C#5",
          "ticks": 54720,
          "time": 89.999865,
          "velocity": 0.3937007874015748
        },
        {
          "duration": 0.3157889999999952,
          "durationTicks": 192,
          "midi": 45,
          "name": "A2",
          "ticks": 54912,
          "time": 90.315654,
          "velocity": 0.3937007874015748
        },
        {
          "duration": 0.3157889999999952,
          "durationTicks": 192,
          "midi": 57,
          "name": "A3",
          "ticks": 54912,
          "time": 90.315654,
          "velocity": 0.3937007874015748
        },
        {
          "duration": 0.3157890000000094,
          "durationTicks": 192,
          "midi": 63,
          "name": "D#4",
          "ticks": 55104,
          "time": 90.63144299999999,
          "velocity": 0.3937007874015748
        },
        {
          "duration": 0.3157890000000094,
          "durationTicks": 192,
          "midi": 75,
          "name": "D#5",
          "ticks": 55104,
          "time": 90.63144299999999,
          "velocity": 0.3937007874015748
        },
        {
          "duration": 0.3157889999999952,
          "durationTicks": 192,
          "midi": 61,
          "name": "C#4",
          "ticks": 55296,
          "time": 90.947232,
          "velocity": 0.3937007874015748
        },
        {
          "duration": 0.3157889999999952,
          "durationTicks": 192,
          "midi": 49,
          "name": "C#3",
          "ticks": 55296,
          "time": 90.947232,
          "velocity": 0.3937007874015748
        },
        {
          "duration": 0.3157889999999952,
          "durationTicks": 192,
          "midi": 61,
          "name": "C#4",
          "ticks": 55488,
          "time": 91.263021,
          "velocity": 0.3937007874015748
        },
        {
          "duration": 0.3157889999999952,
          "durationTicks": 192,
          "midi": 73,
          "name": "C#5",
          "ticks": 55488,
          "time": 91.263021,
          "velocity": 0.3937007874015748
        },
        {
          "duration": 0.15789450000001182,
          "durationTicks": 96,
          "midi": 56,
          "name": "G#3",
          "ticks": 55680,
          "time": 91.57880999999999,
          "velocity": 0.3937007874015748
        },
        {
          "duration": 0.15789450000001182,
          "durationTicks": 96,
          "midi": 68,
          "name": "G#4",
          "ticks": 55680,
          "time": 91.57880999999999,
          "velocity": 0.3937007874015748
        },
        {
          "duration": 0.3157889999999952,
          "durationTicks": 192,
          "midi": 55,
          "name": "G3",
          "ticks": 55968,
          "time": 92.0524935,
          "velocity": 0.3937007874015748
        },
        {
          "duration": 0.3157889999999952,
          "durationTicks": 192,
          "midi": 67,
          "name": "G4",
          "ticks": 55968,
          "time": 92.0524935,
          "velocity": 0.3937007874015748
        },
        {
          "duration": 0.3157890000000094,
          "durationTicks": 192,
          "midi": 54,
          "name": "F#3",
          "ticks": 56256,
          "time": 92.52617699999999,
          "velocity": 0.3937007874015748
        },
        {
          "duration": 0.3157890000000094,
          "durationTicks": 192,
          "midi": 66,
          "name": "F#4",
          "ticks": 56256,
          "time": 92.52617699999999,
          "velocity": 0.3937007874015748
        },
        {
          "duration": 0.1578944999999976,
          "durationTicks": 96,
          "midi": 52,
          "name": "E3",
          "ticks": 56448,
          "time": 92.841966,
          "velocity": 0.3937007874015748
        },
        {
          "duration": 0.1578944999999976,
          "durationTicks": 96,
          "midi": 64,
          "name": "E4",
          "ticks": 56448,
          "time": 92.841966,
          "velocity": 0.3937007874015748
        },
        {
          "duration": 0.1578944999999976,
          "durationTicks": 96,
          "midi": 49,
          "name": "C#3",
          "ticks": 56544,
          "time": 92.9998605,
          "velocity": 0.3937007874015748
        },
        {
          "duration": 0.1578944999999976,
          "durationTicks": 96,
          "midi": 61,
          "name": "C#4",
          "ticks": 56544,
          "time": 92.9998605,
          "velocity": 0.3937007874015748
        },
        {
          "duration": 0.1578944999999976,
          "durationTicks": 96,
          "midi": 52,
          "name": "E3",
          "ticks": 56640,
          "time": 93.157755,
          "velocity": 0.3937007874015748
        },
        {
          "duration": 0.1578944999999976,
          "durationTicks": 96,
          "midi": 64,
          "name": "E4",
          "ticks": 56640,
          "time": 93.157755,
          "velocity": 0.3937007874015748
        },
        {
          "duration": 0.1578944999999976,
          "durationTicks": 96,
          "midi": 66,
          "name": "F#4",
          "ticks": 56736,
          "time": 93.31564949999999,
          "velocity": 0.3937007874015748
        },
        {
          "duration": 0.1578944999999976,
          "durationTicks": 96,
          "midi": 54,
          "name": "F#3",
          "ticks": 56736,
          "time": 93.31564949999999,
          "velocity": 0.3937007874015748
        },
        {
          "duration": 0.3157890000000094,
          "durationTicks": 192,
          "midi": 47,
          "name": "B2",
          "ticks": 56832,
          "time": 93.47354399999999,
          "velocity": 0.3937007874015748
        },
        {
          "duration": 0.3157890000000094,
          "durationTicks": 192,
          "midi": 59,
          "name": "B3",
          "ticks": 56832,
          "time": 93.47354399999999,
          "velocity": 0.3937007874015748
        },
        {
          "duration": 0.3157889999999952,
          "durationTicks": 192,
          "midi": 61,
          "name": "C#4",
          "ticks": 57024,
          "time": 93.789333,
          "velocity": 0.3937007874015748
        },
        {
          "duration": 0.3157889999999952,
          "durationTicks": 192,
          "midi": 73,
          "name": "C#5",
          "ticks": 57024,
          "time": 93.789333,
          "velocity": 0.3937007874015748
        },
        {
          "duration": 0.3157889999999952,
          "durationTicks": 192,
          "midi": 56,
          "name": "G#3",
          "ticks": 57216,
          "time": 94.105122,
          "velocity": 0.3937007874015748
        },
        {
          "duration": 0.3157889999999952,
          "durationTicks": 192,
          "midi": 68,
          "name": "G#4",
          "ticks": 57216,
          "time": 94.105122,
          "velocity": 0.3937007874015748
        },
        {
          "duration": 0.3157890000000094,
          "durationTicks": 192,
          "midi": 54,
          "name": "F#3",
          "ticks": 57408,
          "time": 94.42091099999999,
          "velocity": 0.3937007874015748
        },
        {
          "duration": 0.3157890000000094,
          "durationTicks": 192,
          "midi": 66,
          "name": "F#4",
          "ticks": 57408,
          "time": 94.42091099999999,
          "velocity": 0.3937007874015748
        },
        {
          "duration": 0.3157889999999952,
          "durationTicks": 192,
          "midi": 52,
          "name": "E3",
          "ticks": 57600,
          "time": 94.7367,
          "velocity": 0.3937007874015748
        },
        {
          "duration": 0.3157889999999952,
          "durationTicks": 192,
          "midi": 64,
          "name": "E4",
          "ticks": 57600,
          "time": 94.7367,
          "velocity": 0.3937007874015748
        },
        {
          "duration": 0.1578944999999976,
          "durationTicks": 96,
          "midi": 51,
          "name": "D#3",
          "ticks": 57792,
          "time": 95.052489,
          "velocity": 0.3937007874015748
        },
        {
          "duration": 0.1578944999999976,
          "durationTicks": 96,
          "midi": 63,
          "name": "D#4",
          "ticks": 57792,
          "time": 95.052489,
          "velocity": 0.3937007874015748
        },
        {
          "duration": 0.1578944999999976,
          "durationTicks": 96,
          "midi": 52,
          "name": "E3",
          "ticks": 57888,
          "time": 95.21038349999999,
          "velocity": 0.3937007874015748
        },
        {
          "duration": 0.1578944999999976,
          "durationTicks": 96,
          "midi": 64,
          "name": "E4",
          "ticks": 57888,
          "time": 95.21038349999999,
          "velocity": 0.3937007874015748
        },
        {
          "duration": 0.15789450000001182,
          "durationTicks": 96,
          "midi": 63,
          "name": "D#4",
          "ticks": 57984,
          "time": 95.36827799999999,
          "velocity": 0.3937007874015748
        },
        {
          "duration": 0.15789450000001182,
          "durationTicks": 96,
          "midi": 51,
          "name": "D#3",
          "ticks": 57984,
          "time": 95.36827799999999,
          "velocity": 0.3937007874015748
        },
        {
          "duration": 0.1578944999999976,
          "durationTicks": 96,
          "midi": 61,
          "name": "C#4",
          "ticks": 58080,
          "time": 95.5261725,
          "velocity": 0.3937007874015748
        },
        {
          "duration": 0.1578944999999976,
          "durationTicks": 96,
          "midi": 49,
          "name": "C#3",
          "ticks": 58080,
          "time": 95.5261725,
          "velocity": 0.3937007874015748
        },
        {
          "duration": 0.1578944999999976,
          "durationTicks": 96,
          "midi": 47,
          "name": "B2",
          "ticks": 58176,
          "time": 95.684067,
          "velocity": 0.3937007874015748
        },
        {
          "duration": 0.1578944999999976,
          "durationTicks": 96,
          "midi": 59,
          "name": "B3",
          "ticks": 58176,
          "time": 95.684067,
          "velocity": 0.3937007874015748
        },
        {
          "duration": 0.1578944999999976,
          "durationTicks": 96,
          "midi": 44,
          "name": "G#2",
          "ticks": 58272,
          "time": 95.8419615,
          "velocity": 0.3937007874015748
        },
        {
          "duration": 0.1578944999999976,
          "durationTicks": 96,
          "midi": 56,
          "name": "G#3",
          "ticks": 58272,
          "time": 95.8419615,
          "velocity": 0.3937007874015748
        },
        {
          "duration": 0.1578944999999976,
          "durationTicks": 96,
          "midi": 57,
          "name": "A3",
          "ticks": 58368,
          "time": 95.999856,
          "velocity": 0.3937007874015748
        },
        {
          "duration": 0.1578944999999976,
          "durationTicks": 96,
          "midi": 45,
          "name": "A2",
          "ticks": 58368,
          "time": 95.999856,
          "velocity": 0.3937007874015748
        },
        {
          "duration": 0.1578944999999976,
          "durationTicks": 96,
          "midi": 45,
          "name": "A2",
          "ticks": 58464,
          "time": 96.15775049999999,
          "velocity": 0.3937007874015748
        },
        {
          "duration": 0.1578944999999976,
          "durationTicks": 96,
          "midi": 57,
          "name": "A3",
          "ticks": 58464,
          "time": 96.15775049999999,
          "velocity": 0.3937007874015748
        },
        {
          "duration": 0.3157890000000094,
          "durationTicks": 192,
          "midi": 61,
          "name": "C#4",
          "ticks": 58560,
          "time": 96.31564499999999,
          "velocity": 0.3937007874015748
        },
        {
          "duration": 0.3157890000000094,
          "durationTicks": 192,
          "midi": 73,
          "name": "C#5",
          "ticks": 58560,
          "time": 96.31564499999999,
          "velocity": 0.3937007874015748
        },
        {
          "duration": 0.3157889999999952,
          "durationTicks": 192,
          "midi": 56,
          "name": "G#3",
          "ticks": 58752,
          "time": 96.631434,
          "velocity": 0.3937007874015748
        },
        {
          "duration": 0.3157889999999952,
          "durationTicks": 192,
          "midi": 68,
          "name": "G#4",
          "ticks": 58752,
          "time": 96.631434,
          "velocity": 0.3937007874015748
        },
        {
          "duration": 0.1578944999999976,
          "durationTicks": 96,
          "midi": 73,
          "name": "C#5",
          "ticks": 58944,
          "time": 96.947223,
          "velocity": 0.3937007874015748
        },
        {
          "duration": 0.1578944999999976,
          "durationTicks": 96,
          "midi": 61,
          "name": "C#4",
          "ticks": 58944,
          "time": 96.947223,
          "velocity": 0.3937007874015748
        },
        {
          "duration": 0.1578944999999976,
          "durationTicks": 96,
          "midi": 57,
          "name": "A3",
          "ticks": 59040,
          "time": 97.10511749999999,
          "velocity": 0.3937007874015748
        },
        {
          "duration": 0.1578944999999976,
          "durationTicks": 96,
          "midi": 69,
          "name": "A4",
          "ticks": 59040,
          "time": 97.10511749999999,
          "velocity": 0.3937007874015748
        },
        {
          "duration": 0.15789450000001182,
          "durationTicks": 96,
          "midi": 61,
          "name": "C#4",
          "ticks": 59136,
          "time": 97.26301199999999,
          "velocity": 0.3937007874015748
        },
        {
          "duration": 0.15789450000001182,
          "durationTicks": 96,
          "midi": 73,
          "name": "C#5",
          "ticks": 59136,
          "time": 97.26301199999999,
          "velocity": 0.3937007874015748
        },
        {
          "duration": 0.1578944999999976,
          "durationTicks": 96,
          "midi": 59,
          "name": "B3",
          "ticks": 59232,
          "time": 97.4209065,
          "velocity": 0.3937007874015748
        },
        {
          "duration": 0.1578944999999976,
          "durationTicks": 96,
          "midi": 71,
          "name": "B4",
          "ticks": 59232,
          "time": 97.4209065,
          "velocity": 0.3937007874015748
        },
        {
          "duration": 0.3157889999999952,
          "durationTicks": 192,
          "midi": 56,
          "name": "G#3",
          "ticks": 59328,
          "time": 97.578801,
          "velocity": 0.3937007874015748
        },
        {
          "duration": 0.3157889999999952,
          "durationTicks": 192,
          "midi": 68,
          "name": "G#4",
          "ticks": 59328,
          "time": 97.578801,
          "velocity": 0.3937007874015748
        },
        {
          "duration": 0.3157889999999952,
          "durationTicks": 192,
          "midi": 66,
          "name": "F#4",
          "ticks": 59520,
          "time": 97.89459,
          "velocity": 0.3937007874015748
        },
        {
          "duration": 0.3157889999999952,
          "durationTicks": 192,
          "midi": 54,
          "name": "F#3",
          "ticks": 59520,
          "time": 97.89459,
          "velocity": 0.3937007874015748
        },
        {
          "duration": 0.15789450000001182,
          "durationTicks": 96,
          "midi": 56,
          "name": "G#3",
          "ticks": 59712,
          "time": 98.21037899999999,
          "velocity": 0.3937007874015748
        },
        {
          "duration": 0.15789450000001182,
          "durationTicks": 96,
          "midi": 68,
          "name": "G#4",
          "ticks": 59712,
          "time": 98.21037899999999,
          "velocity": 0.3937007874015748
        },
        {
          "duration": 0.1578944999999976,
          "durationTicks": 96,
          "midi": 52,
          "name": "E3",
          "ticks": 59808,
          "time": 98.3682735,
          "velocity": 0.3937007874015748
        },
        {
          "duration": 0.1578944999999976,
          "durationTicks": 96,
          "midi": 64,
          "name": "E4",
          "ticks": 59808,
          "time": 98.3682735,
          "velocity": 0.3937007874015748
        },
        {
          "duration": 0.1578944999999976,
          "durationTicks": 96,
          "midi": 56,
          "name": "G#3",
          "ticks": 59904,
          "time": 98.526168,
          "velocity": 0.3937007874015748
        },
        {
          "duration": 0.1578944999999976,
          "durationTicks": 96,
          "midi": 44,
          "name": "G#2",
          "ticks": 59904,
          "time": 98.526168,
          "velocity": 0.3937007874015748
        },
        {
          "duration": 0.1578944999999976,
          "durationTicks": 96,
          "midi": 56,
          "name": "G#3",
          "ticks": 60000,
          "time": 98.6840625,
          "velocity": 0.3937007874015748
        },
        {
          "duration": 0.1578944999999976,
          "durationTicks": 96,
          "midi": 44,
          "name": "G#2",
          "ticks": 60000,
          "time": 98.6840625,
          "velocity": 0.3937007874015748
        },
        {
          "duration": 0.3157889999999952,
          "durationTicks": 192,
          "midi": 61,
          "name": "C#4",
          "ticks": 60096,
          "time": 98.841957,
          "velocity": 0.3937007874015748
        },
        {
          "duration": 0.3157889999999952,
          "durationTicks": 192,
          "midi": 73,
          "name": "C#5",
          "ticks": 60096,
          "time": 98.841957,
          "velocity": 0.3937007874015748
        },
        {
          "duration": 0.3157890000000094,
          "durationTicks": 192,
          "midi": 44,
          "name": "G#2",
          "ticks": 60288,
          "time": 99.15774599999999,
          "velocity": 0.3937007874015748
        },
        {
          "duration": 0.3157890000000094,
          "durationTicks": 192,
          "midi": 56,
          "name": "G#3",
          "ticks": 60288,
          "time": 99.15774599999999,
          "velocity": 0.3937007874015748
        },
        {
          "duration": 0.3157889999999952,
          "durationTicks": 192,
          "midi": 61,
          "name": "C#4",
          "ticks": 60480,
          "time": 99.473535,
          "velocity": 0.3937007874015748
        },
        {
          "duration": 0.3157889999999952,
          "durationTicks": 192,
          "midi": 73,
          "name": "C#5",
          "ticks": 60480,
          "time": 99.473535,
          "velocity": 0.3937007874015748
        },
        {
          "duration": 0.1578944999999976,
          "durationTicks": 96,
          "midi": 55,
          "name": "G3",
          "ticks": 60672,
          "time": 99.789324,
          "velocity": 0.3937007874015748
        },
        {
          "duration": 0.1578944999999976,
          "durationTicks": 96,
          "midi": 43,
          "name": "G2",
          "ticks": 60672,
          "time": 99.789324,
          "velocity": 0.3937007874015748
        },
        {
          "duration": 0.1578944999999976,
          "durationTicks": 96,
          "midi": 43,
          "name": "G2",
          "ticks": 60768,
          "time": 99.94721849999999,
          "velocity": 0.3937007874015748
        },
        {
          "duration": 0.1578944999999976,
          "durationTicks": 96,
          "midi": 55,
          "name": "G3",
          "ticks": 60768,
          "time": 99.94721849999999,
          "velocity": 0.3937007874015748
        },
        {
          "duration": 0.3157890000000094,
          "durationTicks": 192,
          "midi": 61,
          "name": "C#4",
          "ticks": 60864,
          "time": 100.10511299999999,
          "velocity": 0.3937007874015748
        },
        {
          "duration": 0.3157890000000094,
          "durationTicks": 192,
          "midi": 73,
          "name": "C#5",
          "ticks": 60864,
          "time": 100.10511299999999,
          "velocity": 0.3937007874015748
        },
        {
          "duration": 0.3157889999999952,
          "durationTicks": 192,
          "midi": 45,
          "name": "A2",
          "ticks": 61056,
          "time": 100.420902,
          "velocity": 0.3937007874015748
        },
        {
          "duration": 0.3157889999999952,
          "durationTicks": 192,
          "midi": 57,
          "name": "A3",
          "ticks": 61056,
          "time": 100.420902,
          "velocity": 0.3937007874015748
        },
        {
          "duration": 0.3157890000000094,
          "durationTicks": 192,
          "midi": 75,
          "name": "D#5",
          "ticks": 61248,
          "time": 100.736691,
          "velocity": 0.3937007874015748
        },
        {
          "duration": 0.3157890000000094,
          "durationTicks": 192,
          "midi": 63,
          "name": "D#4",
          "ticks": 61248,
          "time": 100.736691,
          "velocity": 0.3937007874015748
        },
        {
          "duration": 0.3157889999999952,
          "durationTicks": 192,
          "midi": 61,
          "name": "C#4",
          "ticks": 61440,
          "time": 101.05248,
          "velocity": 0.3937007874015748
        },
        {
          "duration": 0.3157889999999952,
          "durationTicks": 192,
          "midi": 73,
          "name": "C#5",
          "ticks": 61632,
          "time": 101.368269,
          "velocity": 0.3937007874015748
        },
        {
          "duration": 0.1578944999999976,
          "durationTicks": 96,
          "midi": 68,
          "name": "G#4",
          "ticks": 61824,
          "time": 101.684058,
          "velocity": 0.3937007874015748
        },
        {
          "duration": 0.3157889999999952,
          "durationTicks": 192,
          "midi": 67,
          "name": "G4",
          "ticks": 62112,
          "time": 102.1577415,
          "velocity": 0.3937007874015748
        },
        {
          "duration": 0.3157890000000094,
          "durationTicks": 192,
          "midi": 66,
          "name": "F#4",
          "ticks": 62400,
          "time": 102.631425,
          "velocity": 0.3937007874015748
        },
        {
          "duration": 0.1578944999999976,
          "durationTicks": 96,
          "midi": 64,
          "name": "E4",
          "ticks": 62592,
          "time": 102.947214,
          "velocity": 0.3937007874015748
        },
        {
          "duration": 0.1578944999999976,
          "durationTicks": 96,
          "midi": 61,
          "name": "C#4",
          "ticks": 62688,
          "time": 103.1051085,
          "velocity": 0.3937007874015748
        },
        {
          "duration": 0.1578944999999976,
          "durationTicks": 96,
          "midi": 64,
          "name": "E4",
          "ticks": 62784,
          "time": 103.263003,
          "velocity": 0.3937007874015748
        },
        {
          "duration": 0.1578944999999976,
          "durationTicks": 96,
          "midi": 66,
          "name": "F#4",
          "ticks": 62880,
          "time": 103.4208975,
          "velocity": 0.3937007874015748
        },
        {
          "duration": 0.3157890000000094,
          "durationTicks": 192,
          "midi": 59,
          "name": "B3",
          "ticks": 62976,
          "time": 103.57879199999999,
          "velocity": 0.3937007874015748
        },
        {
          "duration": 0.3157889999999952,
          "durationTicks": 192,
          "midi": 73,
          "name": "C#5",
          "ticks": 63168,
          "time": 103.894581,
          "velocity": 0.3937007874015748
        },
        {
          "duration": 0.3157889999999952,
          "durationTicks": 192,
          "midi": 68,
          "name": "G#4",
          "ticks": 63360,
          "time": 104.21037,
          "velocity": 0.3937007874015748
        },
        {
          "duration": 0.3157890000000094,
          "durationTicks": 192,
          "midi": 66,
          "name": "F#4",
          "ticks": 63552,
          "time": 104.52615899999999,
          "velocity": 0.3937007874015748
        },
        {
          "duration": 0.3157889999999952,
          "durationTicks": 192,
          "midi": 64,
          "name": "E4",
          "ticks": 63744,
          "time": 104.841948,
          "velocity": 0.3937007874015748
        },
        {
          "duration": 0.1578944999999976,
          "durationTicks": 96,
          "midi": 63,
          "name": "D#4",
          "ticks": 63936,
          "time": 105.157737,
          "velocity": 0.3937007874015748
        },
        {
          "duration": 0.1578944999999976,
          "durationTicks": 96,
          "midi": 64,
          "name": "E4",
          "ticks": 64032,
          "time": 105.3156315,
          "velocity": 0.3937007874015748
        },
        {
          "duration": 0.1578944999999976,
          "durationTicks": 96,
          "midi": 63,
          "name": "D#4",
          "ticks": 64128,
          "time": 105.47352599999999,
          "velocity": 0.3937007874015748
        },
        {
          "duration": 0.15789450000001182,
          "durationTicks": 96,
          "midi": 61,
          "name": "C#4",
          "ticks": 64224,
          "time": 105.63142049999999,
          "velocity": 0.3937007874015748
        },
        {
          "duration": 0.1578944999999976,
          "durationTicks": 96,
          "midi": 59,
          "name": "B3",
          "ticks": 64320,
          "time": 105.789315,
          "velocity": 0.3937007874015748
        },
        {
          "duration": 0.1578944999999976,
          "durationTicks": 96,
          "midi": 56,
          "name": "G#3",
          "ticks": 64416,
          "time": 105.9472095,
          "velocity": 0.3937007874015748
        },
        {
          "duration": 0.1578944999999976,
          "durationTicks": 96,
          "midi": 57,
          "name": "A3",
          "ticks": 64512,
          "time": 106.105104,
          "velocity": 0.3937007874015748
        },
        {
          "duration": 0.1578944999999976,
          "durationTicks": 96,
          "midi": 57,
          "name": "A3",
          "ticks": 64608,
          "time": 106.2629985,
          "velocity": 0.3937007874015748
        },
        {
          "duration": 0.3157890000000094,
          "durationTicks": 192,
          "midi": 73,
          "name": "C#5",
          "ticks": 64704,
          "time": 106.42089299999999,
          "velocity": 0.3937007874015748
        },
        {
          "duration": 0.3157889999999952,
          "durationTicks": 192,
          "midi": 68,
          "name": "G#4",
          "ticks": 64896,
          "time": 106.736682,
          "velocity": 0.3937007874015748
        },
        {
          "duration": 0.1578944999999976,
          "durationTicks": 96,
          "midi": 73,
          "name": "C#5",
          "ticks": 65088,
          "time": 107.052471,
          "velocity": 0.3937007874015748
        },
        {
          "duration": 0.1578944999999976,
          "durationTicks": 96,
          "midi": 69,
          "name": "A4",
          "ticks": 65184,
          "time": 107.2103655,
          "velocity": 0.3937007874015748
        },
        {
          "duration": 0.1578944999999976,
          "durationTicks": 96,
          "midi": 73,
          "name": "C#5",
          "ticks": 65280,
          "time": 107.36825999999999,
          "velocity": 0.3937007874015748
        },
        {
          "duration": 0.15789450000001182,
          "durationTicks": 96,
          "midi": 71,
          "name": "B4",
          "ticks": 65376,
          "time": 107.52615449999999,
          "velocity": 0.3937007874015748
        },
        {
          "duration": 0.3157889999999952,
          "durationTicks": 192,
          "midi": 68,
          "name": "G#4",
          "ticks": 65472,
          "time": 107.684049,
          "velocity": 0.3937007874015748
        },
        {
          "duration": 0.3157889999999952,
          "durationTicks": 192,
          "midi": 66,
          "name": "F#4",
          "ticks": 65664,
          "time": 107.999838,
          "velocity": 0.3937007874015748
        },
        {
          "duration": 0.1578944999999976,
          "durationTicks": 96,
          "midi": 68,
          "name": "G#4",
          "ticks": 65856,
          "time": 108.31562699999999,
          "velocity": 0.3937007874015748
        },
        {
          "duration": 0.15789450000001182,
          "durationTicks": 96,
          "midi": 64,
          "name": "E4",
          "ticks": 65952,
          "time": 108.47352149999999,
          "velocity": 0.3937007874015748
        },
        {
          "duration": 0.3157889999999952,
          "durationTicks": 192,
          "midi": 56,
          "name": "G#3",
          "ticks": 66048,
          "time": 108.631416,
          "velocity": 0.3937007874015748
        },
        {
          "duration": 0.3157889999999952,
          "durationTicks": 192,
          "midi": 73,
          "name": "C#5",
          "ticks": 66240,
          "time": 108.947205,
          "velocity": 0.3937007874015748
        },
        {
          "duration": 0.47368350000000703,
          "durationTicks": 288,
          "midi": 56,
          "name": "G#3",
          "ticks": 66432,
          "time": 109.26299399999999,
          "velocity": 0.3937007874015748
        },
        {
          "duration": 0.4736834999999928,
          "durationTicks": 288,
          "midi": 73,
          "name": "C#5",
          "ticks": 66720,
          "time": 109.7366775,
          "velocity": 0.3937007874015748
        },
        {
          "duration": 0.6315780000000046,
          "durationTicks": 384,
          "midi": 55,
          "name": "G3",
          "ticks": 67008,
          "time": 110.21036099999999,
          "velocity": 0.3937007874015748
        },
        {
          "duration": 0.6315780000000046,
          "durationTicks": 384,
          "midi": 73,
          "name": "C#5",
          "ticks": 67392,
          "time": 110.841939,
          "velocity": 0.3937007874015748
        },
        {
          "duration": 0.789472499999988,
          "durationTicks": 480,
          "midi": 57,
          "name": "A3",
          "ticks": 67776,
          "time": 111.473517,
          "velocity": 0.3937007874015748
        },
        {
          "duration": 1.4210505000000069,
          "durationTicks": 864,
          "midi": 75,
          "name": "D#5",
          "ticks": 68256,
          "time": 112.26298949999999,
          "velocity": 0.3937007874015748
        },
        {
          "duration": 0.3157889999999952,
          "durationTicks": 192,
          "midi": 37,
          "name": "C#2",
          "ticks": 69120,
          "time": 113.68404,
          "velocity": 0.3937007874015748
        },
        {
          "duration": 0.3157890000000094,
          "durationTicks": 192,
          "midi": 49,
          "name": "C#3",
          "ticks": 69312,
          "time": 113.99982899999999,
          "velocity": 0.3937007874015748
        },
        {
          "duration": 0.1578944999999976,
          "durationTicks": 96,
          "midi": 44,
          "name": "G#2",
          "ticks": 69504,
          "time": 114.315618,
          "velocity": 0.3937007874015748
        },
        {
          "duration": 0.3157889999999952,
          "durationTicks": 192,
          "midi": 43,
          "name": "G2",
          "ticks": 69792,
          "time": 114.7893015,
          "velocity": 0.3937007874015748
        },
        {
          "duration": 0.3157889999999952,
          "durationTicks": 192,
          "midi": 42,
          "name": "F#2",
          "ticks": 70080,
          "time": 115.262985,
          "velocity": 0.3937007874015748
        },
        {
          "duration": 0.1578944999999976,
          "durationTicks": 96,
          "midi": 40,
          "name": "E2",
          "ticks": 70272,
          "time": 115.578774,
          "velocity": 0.3937007874015748
        },
        {
          "duration": 0.1578944999999976,
          "durationTicks": 96,
          "midi": 37,
          "name": "C#2",
          "ticks": 70368,
          "time": 115.7366685,
          "velocity": 0.3937007874015748
        },
        {
          "duration": 0.1578944999999976,
          "durationTicks": 96,
          "midi": 40,
          "name": "E2",
          "ticks": 70464,
          "time": 115.89456299999999,
          "velocity": 0.3937007874015748
        },
        {
          "duration": 0.15789450000001182,
          "durationTicks": 96,
          "midi": 42,
          "name": "F#2",
          "ticks": 70560,
          "time": 116.05245749999999,
          "velocity": 0.3937007874015748
        },
        {
          "duration": 0.3157889999999952,
          "durationTicks": 192,
          "midi": 35,
          "name": "B1",
          "ticks": 70656,
          "time": 116.210352,
          "velocity": 0.3937007874015748
        },
        {
          "duration": 0.3157889999999952,
          "durationTicks": 192,
          "midi": 49,
          "name": "C#3",
          "ticks": 70848,
          "time": 116.526141,
          "velocity": 0.3937007874015748
        },
        {
          "duration": 0.3157890000000094,
          "durationTicks": 192,
          "midi": 44,
          "name": "G#2",
          "ticks": 71040,
          "time": 116.84192999999999,
          "velocity": 0.3937007874015748
        },
        {
          "duration": 0.3157889999999952,
          "durationTicks": 192,
          "midi": 42,
          "name": "F#2",
          "ticks": 71232,
          "time": 117.157719,
          "velocity": 0.3937007874015748
        },
        {
          "duration": 0.3157889999999952,
          "durationTicks": 192,
          "midi": 40,
          "name": "E2",
          "ticks": 71424,
          "time": 117.473508,
          "velocity": 0.3937007874015748
        },
        {
          "duration": 0.1578944999999976,
          "durationTicks": 96,
          "midi": 39,
          "name": "D#2",
          "ticks": 71616,
          "time": 117.78929699999999,
          "velocity": 0.3937007874015748
        },
        {
          "duration": 0.15789450000001182,
          "durationTicks": 96,
          "midi": 40,
          "name": "E2",
          "ticks": 71712,
          "time": 117.94719149999999,
          "velocity": 0.3937007874015748
        },
        {
          "duration": 0.1578944999999976,
          "durationTicks": 96,
          "midi": 39,
          "name": "D#2",
          "ticks": 71808,
          "time": 118.105086,
          "velocity": 0.3937007874015748
        },
        {
          "duration": 0.1578944999999976,
          "durationTicks": 96,
          "midi": 37,
          "name": "C#2",
          "ticks": 71904,
          "time": 118.2629805,
          "velocity": 0.3937007874015748
        },
        {
          "duration": 0.1578944999999976,
          "durationTicks": 96,
          "midi": 35,
          "name": "B1",
          "ticks": 72000,
          "time": 118.420875,
          "velocity": 0.3937007874015748
        },
        {
          "duration": 0.1578944999999976,
          "durationTicks": 96,
          "midi": 32,
          "name": "G#1",
          "ticks": 72096,
          "time": 118.57876949999999,
          "velocity": 0.3937007874015748
        },
        {
          "duration": 0.1578944999999976,
          "durationTicks": 96,
          "midi": 33,
          "name": "A1",
          "ticks": 72192,
          "time": 118.73666399999999,
          "velocity": 0.3937007874015748
        },
        {
          "duration": 0.15789450000001182,
          "durationTicks": 96,
          "midi": 33,
          "name": "A1",
          "ticks": 72288,
          "time": 118.89455849999999,
          "velocity": 0.3937007874015748
        },
        {
          "duration": 0.3157889999999952,
          "durationTicks": 192,
          "midi": 49,
          "name": "C#3",
          "ticks": 72384,
          "time": 119.052453,
          "velocity": 0.3937007874015748
        },
        {
          "duration": 0.3157889999999952,
          "durationTicks": 192,
          "midi": 44,
          "name": "G#2",
          "ticks": 72576,
          "time": 119.368242,
          "velocity": 0.3937007874015748
        },
        {
          "duration": 0.1578944999999976,
          "durationTicks": 96,
          "midi": 49,
          "name": "C#3",
          "ticks": 72768,
          "time": 119.68403099999999,
          "velocity": 0.3937007874015748
        },
        {
          "duration": 0.15789450000001182,
          "durationTicks": 96,
          "midi": 45,
          "name": "A2",
          "ticks": 72864,
          "time": 119.84192549999999,
          "velocity": 0.3937007874015748
        },
        {
          "duration": 0.1578944999999976,
          "durationTicks": 96,
          "midi": 49,
          "name": "C#3",
          "ticks": 72960,
          "time": 119.99982,
          "velocity": 0.3937007874015748
        },
        {
          "duration": 0.1578944999999976,
          "durationTicks": 96,
          "midi": 47,
          "name": "B2",
          "ticks": 73056,
          "time": 120.1577145,
          "velocity": 0.3937007874015748
        },
        {
          "duration": 0.3157889999999952,
          "durationTicks": 192,
          "midi": 44,
          "name": "G#2",
          "ticks": 73152,
          "time": 120.315609,
          "velocity": 0.3937007874015748
        },
        {
          "duration": 0.3157890000000094,
          "durationTicks": 192,
          "midi": 42,
          "name": "F#2",
          "ticks": 73344,
          "time": 120.63139799999999,
          "velocity": 0.3937007874015748
        },
        {
          "duration": 0.1578944999999976,
          "durationTicks": 96,
          "midi": 44,
          "name": "G#2",
          "ticks": 73536,
          "time": 120.947187,
          "velocity": 0.3937007874015748
        },
        {
          "duration": 0.1578944999999976,
          "durationTicks": 96,
          "midi": 40,
          "name": "E2",
          "ticks": 73632,
          "time": 121.1050815,
          "velocity": 0.3937007874015748
        },
        {
          "duration": 0.3157889999999952,
          "durationTicks": 192,
          "midi": 32,
          "name": "G#1",
          "ticks": 73728,
          "time": 121.262976,
          "velocity": 0.3937007874015748
        },
        {
          "duration": 0.3157890000000094,
          "durationTicks": 192,
          "midi": 49,
          "name": "C#3",
          "ticks": 73920,
          "time": 121.57876499999999,
          "velocity": 0.3937007874015748
        },
        {
          "duration": 0.3157889999999952,
          "durationTicks": 192,
          "midi": 32,
          "name": "G#1",
          "ticks": 74112,
          "time": 121.894554,
          "velocity": 0.3937007874015748
        },
        {
          "duration": 0.3157889999999952,
          "durationTicks": 192,
          "midi": 49,
          "name": "C#3",
          "ticks": 74304,
          "time": 122.210343,
          "velocity": 0.3937007874015748
        },
        {
          "duration": 0.3157890000000094,
          "durationTicks": 192,
          "midi": 31,
          "name": "G1",
          "ticks": 74496,
          "time": 122.52613199999999,
          "velocity": 0.3937007874015748
        },
        {
          "duration": 0.3157889999999952,
          "durationTicks": 192,
          "midi": 49,
          "name": "C#3",
          "ticks": 74688,
          "time": 122.841921,
          "velocity": 0.3937007874015748
        },
        {
          "duration": 0.3157889999999952,
          "durationTicks": 192,
          "midi": 33,
          "name": "A1",
          "ticks": 74880,
          "time": 123.15771,
          "velocity": 0.3937007874015748
        },
        {
          "duration": 0.3157890000000094,
          "durationTicks": 192,
          "midi": 51,
          "name": "D#3",
          "ticks": 75072,
          "time": 123.47349899999999,
          "velocity": 0.3937007874015748
        },
        {
          "duration": 0.3157889999999952,
          "durationTicks": 192,
          "midi": 37,
          "name": "C#2",
          "ticks": 75264,
          "time": 123.789288,
          "velocity": 0.3937007874015748
        },
        {
          "duration": 0.3157889999999952,
          "durationTicks": 192,
          "midi": 49,
          "name": "C#3",
          "ticks": 75456,
          "time": 124.105077,
          "velocity": 0.3937007874015748
        },
        {
          "duration": 0.15789450000001182,
          "durationTicks": 96,
          "midi": 44,
          "name": "G#2",
          "ticks": 75648,
          "time": 124.42086599999999,
          "velocity": 0.3937007874015748
        },
        {
          "duration": 0.3157889999999952,
          "durationTicks": 192,
          "midi": 43,
          "name": "G2",
          "ticks": 75936,
          "time": 124.8945495,
          "velocity": 0.3937007874015748
        },
        {
          "duration": 0.3157890000000094,
          "durationTicks": 192,
          "midi": 42,
          "name": "F#2",
          "ticks": 76224,
          "time": 125.36823299999999,
          "velocity": 0.3937007874015748
        },
        {
          "duration": 0.1578944999999976,
          "durationTicks": 96,
          "midi": 40,
          "name": "E2",
          "ticks": 76416,
          "time": 125.684022,
          "velocity": 0.3937007874015748
        },
        {
          "duration": 0.1578944999999976,
          "durationTicks": 96,
          "midi": 37,
          "name": "C#2",
          "ticks": 76512,
          "time": 125.8419165,
          "velocity": 0.3937007874015748
        },
        {
          "duration": 0.1578944999999976,
          "durationTicks": 96,
          "midi": 40,
          "name": "E2",
          "ticks": 76608,
          "time": 125.999811,
          "velocity": 0.3937007874015748
        },
        {
          "duration": 0.1578944999999976,
          "durationTicks": 96,
          "midi": 42,
          "name": "F#2",
          "ticks": 76704,
          "time": 126.15770549999999,
          "velocity": 0.3937007874015748
        },
        {
          "duration": 0.3157890000000094,
          "durationTicks": 192,
          "midi": 35,
          "name": "B1",
          "ticks": 76800,
          "time": 126.31559999999999,
          "velocity": 0.3937007874015748
        },
        {
          "duration": 0.3157889999999952,
          "durationTicks": 192,
          "midi": 49,
          "name": "C#3",
          "ticks": 76992,
          "time": 126.631389,
          "velocity": 0.3937007874015748
        },
        {
          "duration": 0.3157889999999952,
          "durationTicks": 192,
          "midi": 44,
          "name": "G#2",
          "ticks": 77184,
          "time": 126.947178,
          "velocity": 0.3937007874015748
        },
        {
          "duration": 0.3157890000000094,
          "durationTicks": 192,
          "midi": 42,
          "name": "F#2",
          "ticks": 77376,
          "time": 127.26296699999999,
          "velocity": 0.3937007874015748
        },
        {
          "duration": 0.3157889999999952,
          "durationTicks": 192,
          "midi": 40,
          "name": "E2",
          "ticks": 77568,
          "time": 127.578756,
          "velocity": 0.3937007874015748
        },
        {
          "duration": 0.1578944999999976,
          "durationTicks": 96,
          "midi": 39,
          "name": "D#2",
          "ticks": 77760,
          "time": 127.894545,
          "velocity": 0.3937007874015748
        },
        {
          "duration": 0.1578944999999976,
          "durationTicks": 96,
          "midi": 40,
          "name": "E2",
          "ticks": 77856,
          "time": 128.0524395,
          "velocity": 0.3937007874015748
        },
        {
          "duration": 0.1578944999999976,
          "durationTicks": 96,
          "midi": 39,
          "name": "D#2",
          "ticks": 77952,
          "time": 128.210334,
          "velocity": 0.3937007874015748
        },
        {
          "duration": 0.1578944999999976,
          "durationTicks": 96,
          "midi": 37,
          "name": "C#2",
          "ticks": 78048,
          "time": 128.3682285,
          "velocity": 0.3937007874015748
        },
        {
          "duration": 0.1578944999999976,
          "durationTicks": 96,
          "midi": 35,
          "name": "B1",
          "ticks": 78144,
          "time": 128.52612299999998,
          "velocity": 0.3937007874015748
        },
        {
          "duration": 0.15789450000002603,
          "durationTicks": 96,
          "midi": 32,
          "name": "G#1",
          "ticks": 78240,
          "time": 128.68401749999998,
          "velocity": 0.3937007874015748
        },
        {
          "duration": 0.1578944999999976,
          "durationTicks": 96,
          "midi": 33,
          "name": "A1",
          "ticks": 78336,
          "time": 128.841912,
          "velocity": 0.3937007874015748
        },
        {
          "duration": 0.1578944999999976,
          "durationTicks": 96,
          "midi": 33,
          "name": "A1",
          "ticks": 78432,
          "time": 128.9998065,
          "velocity": 0.3937007874015748
        },
        {
          "duration": 0.3157889999999952,
          "durationTicks": 192,
          "midi": 49,
          "name": "C#3",
          "ticks": 78528,
          "time": 129.157701,
          "velocity": 0.3937007874015748
        },
        {
          "duration": 0.3157889999999952,
          "durationTicks": 192,
          "midi": 44,
          "name": "G#2",
          "ticks": 78720,
          "time": 129.47349,
          "velocity": 0.3937007874015748
        },
        {
          "duration": 0.1578944999999976,
          "durationTicks": 96,
          "midi": 49,
          "name": "C#3",
          "ticks": 78912,
          "time": 129.789279,
          "velocity": 0.3937007874015748
        },
        {
          "duration": 0.1578944999999976,
          "durationTicks": 96,
          "midi": 45,
          "name": "A2",
          "ticks": 79008,
          "time": 129.9471735,
          "velocity": 0.3937007874015748
        },
        {
          "duration": 0.1578944999999976,
          "durationTicks": 96,
          "midi": 49,
          "name": "C#3",
          "ticks": 79104,
          "time": 130.105068,
          "velocity": 0.3937007874015748
        },
        {
          "duration": 0.1578944999999976,
          "durationTicks": 96,
          "midi": 47,
          "name": "B2",
          "ticks": 79200,
          "time": 130.2629625,
          "velocity": 0.3937007874015748
        },
        {
          "duration": 0.31578900000002363,
          "durationTicks": 192,
          "midi": 44,
          "name": "G#2",
          "ticks": 79296,
          "time": 130.42085699999998,
          "velocity": 0.3937007874015748
        },
        {
          "duration": 0.3157889999999952,
          "durationTicks": 192,
          "midi": 42,
          "name": "F#2",
          "ticks": 79488,
          "time": 130.736646,
          "velocity": 0.3937007874015748
        },
        {
          "duration": 0.1578944999999976,
          "durationTicks": 96,
          "midi": 44,
          "name": "G#2",
          "ticks": 79680,
          "time": 131.052435,
          "velocity": 0.3937007874015748
        },
        {
          "duration": 0.1578944999999976,
          "durationTicks": 96,
          "midi": 40,
          "name": "E2",
          "ticks": 79776,
          "time": 131.2103295,
          "velocity": 0.3937007874015748
        },
        {
          "duration": 0.3157889999999952,
          "durationTicks": 192,
          "midi": 32,
          "name": "G#1",
          "ticks": 79872,
          "time": 131.368224,
          "velocity": 0.3937007874015748
        },
        {
          "duration": 0.3157889999999952,
          "durationTicks": 192,
          "midi": 49,
          "name": "C#3",
          "ticks": 80064,
          "time": 131.684013,
          "velocity": 0.3937007874015748
        },
        {
          "duration": 0.3157889999999952,
          "durationTicks": 192,
          "midi": 32,
          "name": "G#1",
          "ticks": 80256,
          "time": 131.999802,
          "velocity": 0.3937007874015748
        },
        {
          "duration": 0.31578900000002363,
          "durationTicks": 192,
          "midi": 49,
          "name": "C#3",
          "ticks": 80448,
          "time": 132.31559099999998,
          "velocity": 0.3937007874015748
        },
        {
          "duration": 0.3157889999999952,
          "durationTicks": 192,
          "midi": 31,
          "name": "G1",
          "ticks": 80640,
          "time": 132.63138,
          "velocity": 0.3937007874015748
        },
        {
          "duration": 0.3157889999999952,
          "durationTicks": 192,
          "midi": 49,
          "name": "C#3",
          "ticks": 80832,
          "time": 132.947169,
          "velocity": 0.3937007874015748
        },
        {
          "duration": 0.3157889999999952,
          "durationTicks": 192,
          "midi": 33,
          "name": "A1",
          "ticks": 81024,
          "time": 133.262958,
          "velocity": 0.3937007874015748
        },
        {
          "duration": 0.3157889999999952,
          "durationTicks": 192,
          "midi": 51,
          "name": "D#3",
          "ticks": 81216,
          "time": 133.578747,
          "velocity": 0.3937007874015748
        },
        {
          "duration": 0.3157889999999952,
          "durationTicks": 192,
          "midi": 37,
          "name": "C#2",
          "ticks": 81408,
          "time": 133.894536,
          "velocity": 0.3937007874015748
        },
        {
          "duration": 0.31578900000002363,
          "durationTicks": 192,
          "midi": 49,
          "name": "C#3",
          "ticks": 81600,
          "time": 134.21032499999998,
          "velocity": 0.3937007874015748
        },
        {
          "duration": 0.1578944999999976,
          "durationTicks": 96,
          "midi": 44,
          "name": "G#2",
          "ticks": 81792,
          "time": 134.526114,
          "velocity": 0.3937007874015748
        },
        {
          "duration": 0.3157889999999952,
          "durationTicks": 192,
          "midi": 43,
          "name": "G2",
          "ticks": 82080,
          "time": 134.9997975,
          "velocity": 0.3937007874015748
        },
        {
          "duration": 0.3157889999999952,
          "durationTicks": 192,
          "midi": 42,
          "name": "F#2",
          "ticks": 82368,
          "time": 135.473481,
          "velocity": 0.3937007874015748
        },
        {
          "duration": 0.1578944999999976,
          "durationTicks": 96,
          "midi": 40,
          "name": "E2",
          "ticks": 82560,
          "time": 135.78927,
          "velocity": 0.3937007874015748
        },
        {
          "duration": 0.1578944999999976,
          "durationTicks": 96,
          "midi": 37,
          "name": "C#2",
          "ticks": 82656,
          "time": 135.94716449999999,
          "velocity": 0.3937007874015748
        },
        {
          "duration": 0.1578944999999976,
          "durationTicks": 96,
          "midi": 40,
          "name": "E2",
          "ticks": 82752,
          "time": 136.10505899999998,
          "velocity": 0.3937007874015748
        },
        {
          "duration": 0.15789450000002603,
          "durationTicks": 96,
          "midi": 42,
          "name": "F#2",
          "ticks": 82848,
          "time": 136.26295349999998,
          "velocity": 0.3937007874015748
        },
        {
          "duration": 0.3157889999999952,
          "durationTicks": 192,
          "midi": 35,
          "name": "B1",
          "ticks": 82944,
          "time": 136.420848,
          "velocity": 0.3937007874015748
        },
        {
          "duration": 0.3157889999999952,
          "durationTicks": 192,
          "midi": 49,
          "name": "C#3",
          "ticks": 83136,
          "time": 136.736637,
          "velocity": 0.3937007874015748
        },
        {
          "duration": 0.3157889999999952,
          "durationTicks": 192,
          "midi": 44,
          "name": "G#2",
          "ticks": 83328,
          "time": 137.052426,
          "velocity": 0.3937007874015748
        },
        {
          "duration": 0.3157889999999952,
          "durationTicks": 192,
          "midi": 42,
          "name": "F#2",
          "ticks": 83520,
          "time": 137.368215,
          "velocity": 0.3937007874015748
        },
        {
          "duration": 0.3157889999999952,
          "durationTicks": 192,
          "midi": 40,
          "name": "E2",
          "ticks": 83712,
          "time": 137.684004,
          "velocity": 0.3937007874015748
        },
        {
          "duration": 0.1578944999999976,
          "durationTicks": 96,
          "midi": 39,
          "name": "D#2",
          "ticks": 83904,
          "time": 137.99979299999998,
          "velocity": 0.3937007874015748
        },
        {
          "duration": 0.15789450000002603,
          "durationTicks": 96,
          "midi": 40,
          "name": "E2",
          "ticks": 84000,
          "time": 138.15768749999998,
          "velocity": 0.3937007874015748
        },
        {
          "duration": 0.1578944999999976,
          "durationTicks": 96,
          "midi": 39,
          "name": "D#2",
          "ticks": 84096,
          "time": 138.315582,
          "velocity": 0.3937007874015748
        },
        {
          "duration": 0.1578944999999976,
          "durationTicks": 96,
          "midi": 37,
          "name": "C#2",
          "ticks": 84192,
          "time": 138.4734765,
          "velocity": 0.3937007874015748
        },
        {
          "duration": 0.1578944999999976,
          "durationTicks": 96,
          "midi": 35,
          "name": "B1",
          "ticks": 84288,
          "time": 138.631371,
          "velocity": 0.3937007874015748
        },
        {
          "duration": 0.1578944999999976,
          "durationTicks": 96,
          "midi": 32,
          "name": "G#1",
          "ticks": 84384,
          "time": 138.7892655,
          "velocity": 0.3937007874015748
        },
        {
          "duration": 0.1578944999999976,
          "durationTicks": 96,
          "midi": 33,
          "name": "A1",
          "ticks": 84480,
          "time": 138.94716,
          "velocity": 0.3937007874015748
        },
        {
          "duration": 0.1578944999999976,
          "durationTicks": 96,
          "midi": 33,
          "name": "A1",
          "ticks": 84576,
          "time": 139.1050545,
          "velocity": 0.3937007874015748
        },
        {
          "duration": 0.3157889999999952,
          "durationTicks": 192,
          "midi": 49,
          "name": "C#3",
          "ticks": 84672,
          "time": 139.262949,
          "velocity": 0.3937007874015748
        },
        {
          "duration": 0.3157889999999952,
          "durationTicks": 192,
          "midi": 44,
          "name": "G#2",
          "ticks": 84864,
          "time": 139.578738,
          "velocity": 0.3937007874015748
        },
        {
          "duration": 0.1578944999999976,
          "durationTicks": 96,
          "midi": 49,
          "name": "C#3",
          "ticks": 85056,
          "time": 139.89452699999998,
          "velocity": 0.3937007874015748
        },
        {
          "duration": 0.15789450000002603,
          "durationTicks": 96,
          "midi": 45,
          "name": "A2",
          "ticks": 85152,
          "time": 140.05242149999998,
          "velocity": 0.3937007874015748
        },
        {
          "duration": 0.1578944999999976,
          "durationTicks": 96,
          "midi": 49,
          "name": "C#3",
          "ticks": 85248,
          "time": 140.210316,
          "velocity": 0.3937007874015748
        },
        {
          "duration": 0.1578944999999976,
          "durationTicks": 96,
          "midi": 47,
          "name": "B2",
          "ticks": 85344,
          "time": 140.3682105,
          "velocity": 0.3937007874015748
        },
        {
          "duration": 0.3157889999999952,
          "durationTicks": 192,
          "midi": 44,
          "name": "G#2",
          "ticks": 85440,
          "time": 140.526105,
          "velocity": 0.3937007874015748
        },
        {
          "duration": 0.3157889999999952,
          "durationTicks": 192,
          "midi": 42,
          "name": "F#2",
          "ticks": 85632,
          "time": 140.841894,
          "velocity": 0.3937007874015748
        },
        {
          "duration": 0.1578944999999976,
          "durationTicks": 96,
          "midi": 44,
          "name": "G#2",
          "ticks": 85824,
          "time": 141.157683,
          "velocity": 0.3937007874015748
        },
        {
          "duration": 0.1578944999999976,
          "durationTicks": 96,
          "midi": 40,
          "name": "E2",
          "ticks": 85920,
          "time": 141.3155775,
          "velocity": 0.3937007874015748
        },
        {
          "duration": 0.3157889999999952,
          "durationTicks": 192,
          "midi": 32,
          "name": "G#1",
          "ticks": 86016,
          "time": 141.473472,
          "velocity": 0.3937007874015748
        },
        {
          "duration": 0.31578900000002363,
          "durationTicks": 192,
          "midi": 49,
          "name": "C#3",
          "ticks": 86208,
          "time": 141.78926099999998,
          "velocity": 0.3937007874015748
        },
        {
          "duration": 0.3157889999999952,
          "durationTicks": 192,
          "midi": 32,
          "name": "G#1",
          "ticks": 86400,
          "time": 142.10505,
          "velocity": 0.3937007874015748
        },
        {
          "duration": 0.3157889999999952,
          "durationTicks": 192,
          "midi": 49,
          "name": "C#3",
          "ticks": 86592,
          "time": 142.420839,
          "velocity": 0.3937007874015748
        },
        {
          "duration": 0.3157889999999952,
          "durationTicks": 192,
          "midi": 31,
          "name": "G1",
          "ticks": 86784,
          "time": 142.736628,
          "velocity": 0.3937007874015748
        },
        {
          "duration": 0.3157889999999952,
          "durationTicks": 192,
          "midi": 49,
          "name": "C#3",
          "ticks": 86976,
          "time": 143.052417,
          "velocity": 0.3937007874015748
        },
        {
          "duration": 0.3157889999999952,
          "durationTicks": 192,
          "midi": 33,
          "name": "A1",
          "ticks": 87168,
          "time": 143.368206,
          "velocity": 0.3937007874015748
        },
        {
          "duration": 0.31578900000002363,
          "durationTicks": 192,
          "midi": 51,
          "name": "D#3",
          "ticks": 87360,
          "time": 143.68399499999998,
          "velocity": 0.3937007874015748
        },
        {
          "duration": 0.3157889999999952,
          "durationTicks": 192,
          "midi": 37,
          "name": "C#2",
          "ticks": 87552,
          "time": 143.999784,
          "velocity": 0.3937007874015748
        },
        {
          "duration": 0.3157889999999952,
          "durationTicks": 192,
          "midi": 49,
          "name": "C#3",
          "ticks": 87744,
          "time": 144.315573,
          "velocity": 0.3937007874015748
        },
        {
          "duration": 0.1578944999999976,
          "durationTicks": 96,
          "midi": 44,
          "name": "G#2",
          "ticks": 87936,
          "time": 144.631362,
          "velocity": 0.3937007874015748
        },
        {
          "duration": 0.3157889999999952,
          "durationTicks": 192,
          "midi": 43,
          "name": "G2",
          "ticks": 88224,
          "time": 145.1050455,
          "velocity": 0.3937007874015748
        },
        {
          "duration": 0.31578900000002363,
          "durationTicks": 192,
          "midi": 42,
          "name": "F#2",
          "ticks": 88512,
          "time": 145.57872899999998,
          "velocity": 0.3937007874015748
        },
        {
          "duration": 0.1578944999999976,
          "durationTicks": 96,
          "midi": 40,
          "name": "E2",
          "ticks": 88704,
          "time": 145.894518,
          "velocity": 0.3937007874015748
        },
        {
          "duration": 0.1578944999999976,
          "durationTicks": 96,
          "midi": 37,
          "name": "C#2",
          "ticks": 88800,
          "time": 146.0524125,
          "velocity": 0.3937007874015748
        },
        {
          "duration": 0.1578944999999976,
          "durationTicks": 96,
          "midi": 40,
          "name": "E2",
          "ticks": 88896,
          "time": 146.210307,
          "velocity": 0.3937007874015748
        },
        {
          "duration": 0.1578944999999976,
          "durationTicks": 96,
          "midi": 42,
          "name": "F#2",
          "ticks": 88992,
          "time": 146.3682015,
          "velocity": 0.3937007874015748
        },
        {
          "duration": 0.3157889999999952,
          "durationTicks": 192,
          "midi": 35,
          "name": "B1",
          "ticks": 89088,
          "time": 146.526096,
          "velocity": 0.3937007874015748
        },
        {
          "duration": 0.3157889999999952,
          "durationTicks": 192,
          "midi": 49,
          "name": "C#3",
          "ticks": 89280,
          "time": 146.841885,
          "velocity": 0.3937007874015748
        },
        {
          "duration": 0.3157889999999952,
          "durationTicks": 192,
          "midi": 44,
          "name": "G#2",
          "ticks": 89472,
          "time": 147.157674,
          "velocity": 0.3937007874015748
        },
        {
          "duration": 0.31578900000002363,
          "durationTicks": 192,
          "midi": 42,
          "name": "F#2",
          "ticks": 89664,
          "time": 147.47346299999998,
          "velocity": 0.3937007874015748
        },
        {
          "duration": 0.3157889999999952,
          "durationTicks": 192,
          "midi": 40,
          "name": "E2",
          "ticks": 89856,
          "time": 147.789252,
          "velocity": 0.3937007874015748
        },
        {
          "duration": 0.1578944999999976,
          "durationTicks": 96,
          "midi": 39,
          "name": "D#2",
          "ticks": 90048,
          "time": 148.105041,
          "velocity": 0.3937007874015748
        },
        {
          "duration": 0.1578944999999976,
          "durationTicks": 96,
          "midi": 40,
          "name": "E2",
          "ticks": 90144,
          "time": 148.2629355,
          "velocity": 0.3937007874015748
        },
        {
          "duration": 0.1578944999999976,
          "durationTicks": 96,
          "midi": 39,
          "name": "D#2",
          "ticks": 90240,
          "time": 148.42083,
          "velocity": 0.3937007874015748
        },
        {
          "duration": 0.1578944999999976,
          "durationTicks": 96,
          "midi": 37,
          "name": "C#2",
          "ticks": 90336,
          "time": 148.5787245,
          "velocity": 0.3937007874015748
        },
        {
          "duration": 0.1578944999999976,
          "durationTicks": 96,
          "midi": 35,
          "name": "B1",
          "ticks": 90432,
          "time": 148.736619,
          "velocity": 0.3937007874015748
        },
        {
          "duration": 0.1578944999999976,
          "durationTicks": 96,
          "midi": 32,
          "name": "G#1",
          "ticks": 90528,
          "time": 148.8945135,
          "velocity": 0.3937007874015748
        },
        {
          "duration": 0.1578944999999976,
          "durationTicks": 96,
          "midi": 33,
          "name": "A1",
          "ticks": 90624,
          "time": 149.05240799999999,
          "velocity": 0.3937007874015748
        },
        {
          "duration": 0.1578944999999976,
          "durationTicks": 96,
          "midi": 33,
          "name": "A1",
          "ticks": 90720,
          "time": 149.21030249999998,
          "velocity": 0.3937007874015748
        },
        {
          "duration": 0.31578900000002363,
          "durationTicks": 192,
          "midi": 49,
          "name": "C#3",
          "ticks": 90816,
          "time": 149.36819699999998,
          "velocity": 0.3937007874015748
        },
        {
          "duration": 0.3157889999999952,
          "durationTicks": 192,
          "midi": 44,
          "name": "G#2",
          "ticks": 91008,
          "time": 149.683986,
          "velocity": 0.3937007874015748
        },
        {
          "duration": 0.1578944999999976,
          "durationTicks": 96,
          "midi": 49,
          "name": "C#3",
          "ticks": 91200,
          "time": 149.999775,
          "velocity": 0.3937007874015748
        },
        {
          "duration": 0.1578944999999976,
          "durationTicks": 96,
          "midi": 45,
          "name": "A2",
          "ticks": 91296,
          "time": 150.1576695,
          "velocity": 0.3937007874015748
        },
        {
          "duration": 0.1578944999999976,
          "durationTicks": 96,
          "midi": 49,
          "name": "C#3",
          "ticks": 91392,
          "time": 150.315564,
          "velocity": 0.3937007874015748
        },
        {
          "duration": 0.1578944999999976,
          "durationTicks": 96,
          "midi": 47,
          "name": "B2",
          "ticks": 91488,
          "time": 150.4734585,
          "velocity": 0.3937007874015748
        },
        {
          "duration": 0.3157889999999952,
          "durationTicks": 192,
          "midi": 44,
          "name": "G#2",
          "ticks": 91584,
          "time": 150.631353,
          "velocity": 0.3937007874015748
        },
        {
          "duration": 0.3157889999999952,
          "durationTicks": 192,
          "midi": 42,
          "name": "F#2",
          "ticks": 91776,
          "time": 150.94714199999999,
          "velocity": 0.3937007874015748
        },
        {
          "duration": 0.15789450000002603,
          "durationTicks": 96,
          "midi": 44,
          "name": "G#2",
          "ticks": 91968,
          "time": 151.26293099999998,
          "velocity": 0.3937007874015748
        },
        {
          "duration": 0.1578944999999976,
          "durationTicks": 96,
          "midi": 40,
          "name": "E2",
          "ticks": 92064,
          "time": 151.4208255,
          "velocity": 0.3937007874015748
        },
        {
          "duration": 0.3157889999999952,
          "durationTicks": 192,
          "midi": 32,
          "name": "G#1",
          "ticks": 92160,
          "time": 151.57872,
          "velocity": 0.3937007874015748
        },
        {
          "duration": 0.3157889999999952,
          "durationTicks": 192,
          "midi": 49,
          "name": "C#3",
          "ticks": 92352,
          "time": 151.894509,
          "velocity": 0.3937007874015748
        },
        {
          "duration": 0.3157889999999952,
          "durationTicks": 192,
          "midi": 32,
          "name": "G#1",
          "ticks": 92544,
          "time": 152.210298,
          "velocity": 0.3937007874015748
        },
        {
          "duration": 0.3157889999999952,
          "durationTicks": 192,
          "midi": 49,
          "name": "C#3",
          "ticks": 92736,
          "time": 152.526087,
          "velocity": 0.3937007874015748
        },
        {
          "duration": 0.3157889999999952,
          "durationTicks": 192,
          "midi": 31,
          "name": "G1",
          "ticks": 92928,
          "time": 152.84187599999998,
          "velocity": 0.3937007874015748
        },
        {
          "duration": 0.31578900000002363,
          "durationTicks": 192,
          "midi": 49,
          "name": "C#3",
          "ticks": 93120,
          "time": 153.15766499999998,
          "velocity": 0.3937007874015748
        },
        {
          "duration": 0.3157889999999952,
          "durationTicks": 192,
          "midi": 33,
          "name": "A1",
          "ticks": 93312,
          "time": 153.473454,
          "velocity": 0.3937007874015748
        },
        {
          "duration": 0.3157889999999952,
          "durationTicks": 192,
          "midi": 51,
          "name": "D#3",
          "ticks": 93504,
          "time": 153.789243,
          "velocity": 0.3937007874015748
        },
        {
          "duration": 0.3157889999999952,
          "durationTicks": 192,
          "midi": 37,
          "name": "C#2",
          "ticks": 93696,
          "time": 154.105032,
          "velocity": 0.3937007874015748
        },
        {
          "duration": 0.3157889999999952,
          "durationTicks": 192,
          "midi": 49,
          "name": "C#3",
          "ticks": 93888,
          "time": 154.420821,
          "velocity": 0.3937007874015748
        },
        {
          "duration": 0.1578944999999976,
          "durationTicks": 96,
          "midi": 44,
          "name": "G#2",
          "ticks": 94080,
          "time": 154.73660999999998,
          "velocity": 0.3937007874015748
        },
        {
          "duration": 0.3157889999999952,
          "durationTicks": 192,
          "midi": 43,
          "name": "G2",
          "ticks": 94368,
          "time": 155.2102935,
          "velocity": 0.3937007874015748
        },
        {
          "duration": 0.3157889999999952,
          "durationTicks": 192,
          "midi": 42,
          "name": "F#2",
          "ticks": 94656,
          "time": 155.683977,
          "velocity": 0.3937007874015748
        },
        {
          "duration": 0.1578944999999976,
          "durationTicks": 96,
          "midi": 40,
          "name": "E2",
          "ticks": 94848,
          "time": 155.999766,
          "velocity": 0.3937007874015748
        },
        {
          "duration": 0.1578944999999976,
          "durationTicks": 96,
          "midi": 37,
          "name": "C#2",
          "ticks": 94944,
          "time": 156.1576605,
          "velocity": 0.3937007874015748
        },
        {
          "duration": 0.1578944999999976,
          "durationTicks": 96,
          "midi": 40,
          "name": "E2",
          "ticks": 95040,
          "time": 156.315555,
          "velocity": 0.3937007874015748
        },
        {
          "duration": 0.1578944999999976,
          "durationTicks": 96,
          "midi": 42,
          "name": "F#2",
          "ticks": 95136,
          "time": 156.4734495,
          "velocity": 0.3937007874015748
        },
        {
          "duration": 0.3157889999999952,
          "durationTicks": 192,
          "midi": 35,
          "name": "B1",
          "ticks": 95232,
          "time": 156.63134399999998,
          "velocity": 0.3937007874015748
        },
        {
          "duration": 0.31578900000002363,
          "durationTicks": 192,
          "midi": 49,
          "name": "C#3",
          "ticks": 95424,
          "time": 156.94713299999998,
          "velocity": 0.3937007874015748
        },
        {
          "duration": 0.3157889999999952,
          "durationTicks": 192,
          "midi": 44,
          "name": "G#2",
          "ticks": 95616,
          "time": 157.262922,
          "velocity": 0.3937007874015748
        },
        {
          "duration": 0.3157889999999952,
          "durationTicks": 192,
          "midi": 42,
          "name": "F#2",
          "ticks": 95808,
          "time": 157.578711,
          "velocity": 0.3937007874015748
        },
        {
          "duration": 0.3157889999999952,
          "durationTicks": 192,
          "midi": 40,
          "name": "E2",
          "ticks": 96000,
          "time": 157.8945,
          "velocity": 0.3937007874015748
        },
        {
          "duration": 0.1578944999999976,
          "durationTicks": 96,
          "midi": 39,
          "name": "D#2",
          "ticks": 96192,
          "time": 158.210289,
          "velocity": 0.3937007874015748
        },
        {
          "duration": 0.1578944999999976,
          "durationTicks": 96,
          "midi": 40,
          "name": "E2",
          "ticks": 96288,
          "time": 158.3681835,
          "velocity": 0.3937007874015748
        },
        {
          "duration": 0.1578944999999976,
          "durationTicks": 96,
          "midi": 39,
          "name": "D#2",
          "ticks": 96384,
          "time": 158.52607799999998,
          "velocity": 0.3937007874015748
        },
        {
          "duration": 0.1578944999999976,
          "durationTicks": 96,
          "midi": 37,
          "name": "C#2",
          "ticks": 96480,
          "time": 158.68397249999998,
          "velocity": 0.3937007874015748
        },
        {
          "duration": 0.15789450000002603,
          "durationTicks": 96,
          "midi": 35,
          "name": "B1",
          "ticks": 96576,
          "time": 158.84186699999998,
          "velocity": 0.3937007874015748
        },
        {
          "duration": 0.1578944999999976,
          "durationTicks": 96,
          "midi": 32,
          "name": "G#1",
          "ticks": 96672,
          "time": 158.9997615,
          "velocity": 0.3937007874015748
        },
        {
          "duration": 0.1578944999999976,
          "durationTicks": 96,
          "midi": 33,
          "name": "A1",
          "ticks": 96768,
          "time": 159.157656,
          "velocity": 0.3937007874015748
        },
        {
          "duration": 0.1578944999999976,
          "durationTicks": 96,
          "midi": 33,
          "name": "A1",
          "ticks": 96864,
          "time": 159.3155505,
          "velocity": 0.3937007874015748
        },
        {
          "duration": 0.3157889999999952,
          "durationTicks": 192,
          "midi": 49,
          "name": "C#3",
          "ticks": 96960,
          "time": 159.473445,
          "velocity": 0.3937007874015748
        },
        {
          "duration": 0.3157889999999952,
          "durationTicks": 192,
          "midi": 44,
          "name": "G#2",
          "ticks": 97152,
          "time": 159.789234,
          "velocity": 0.3937007874015748
        },
        {
          "duration": 0.1578944999999976,
          "durationTicks": 96,
          "midi": 49,
          "name": "C#3",
          "ticks": 97344,
          "time": 160.105023,
          "velocity": 0.3937007874015748
        },
        {
          "duration": 0.1578944999999976,
          "durationTicks": 96,
          "midi": 45,
          "name": "A2",
          "ticks": 97440,
          "time": 160.2629175,
          "velocity": 0.3937007874015748
        },
        {
          "duration": 0.1578944999999976,
          "durationTicks": 96,
          "midi": 49,
          "name": "C#3",
          "ticks": 97536,
          "time": 160.42081199999998,
          "velocity": 0.3937007874015748
        },
        {
          "duration": 0.1578944999999976,
          "durationTicks": 96,
          "midi": 47,
          "name": "B2",
          "ticks": 97632,
          "time": 160.57870649999998,
          "velocity": 0.3937007874015748
        },
        {
          "duration": 0.31578900000002363,
          "durationTicks": 192,
          "midi": 44,
          "name": "G#2",
          "ticks": 97728,
          "time": 160.73660099999998,
          "velocity": 0.3937007874015748
        },
        {
          "duration": 0.3157889999999952,
          "durationTicks": 192,
          "midi": 42,
          "name": "F#2",
          "ticks": 97920,
          "time": 161.05239,
          "velocity": 0.3937007874015748
        },
        {
          "duration": 0.1578944999999976,
          "durationTicks": 96,
          "midi": 44,
          "name": "G#2",
          "ticks": 98112,
          "time": 161.368179,
          "velocity": 0.3937007874015748
        },
        {
          "duration": 0.1578944999999976,
          "durationTicks": 96,
          "midi": 40,
          "name": "E2",
          "ticks": 98208,
          "time": 161.5260735,
          "velocity": 0.3937007874015748
        },
        {
          "duration": 0.3157889999999952,
          "durationTicks": 192,
          "midi": 32,
          "name": "G#1",
          "ticks": 98304,
          "time": 161.683968,
          "velocity": 0.3937007874015748
        },
        {
          "duration": 0.3157889999999952,
          "durationTicks": 192,
          "midi": 49,
          "name": "C#3",
          "ticks": 98496,
          "time": 161.999757,
          "velocity": 0.3937007874015748
        },
        {
          "duration": 0.31578900000002363,
          "durationTicks": 192,
          "midi": 32,
          "name": "G#1",
          "ticks": 98688,
          "time": 162.31554599999998,
          "velocity": 0.3937007874015748
        },
        {
          "duration": 0.3157889999999952,
          "durationTicks": 192,
          "midi": 49,
          "name": "C#3",
          "ticks": 98880,
          "time": 162.631335,
          "velocity": 0.3937007874015748
        },
        {
          "duration": 0.3157889999999952,
          "durationTicks": 192,
          "midi": 31,
          "name": "G1",
          "ticks": 99072,
          "time": 162.947124,
          "velocity": 0.3937007874015748
        },
        {
          "duration": 0.3157889999999952,
          "durationTicks": 192,
          "midi": 49,
          "name": "C#3",
          "ticks": 99264,
          "time": 163.262913,
          "velocity": 0.3937007874015748
        },
        {
          "duration": 0.3157889999999952,
          "durationTicks": 192,
          "midi": 33,
          "name": "A1",
          "ticks": 99456,
          "time": 163.578702,
          "velocity": 0.3937007874015748
        },
        {
          "duration": 0.3157889999999952,
          "durationTicks": 192,
          "midi": 51,
          "name": "D#3",
          "ticks": 99648,
          "time": 163.894491,
          "velocity": 0.3937007874015748
        },
        {
          "duration": 0.31578900000002363,
          "durationTicks": 192,
          "midi": 49,
          "name": "C#3",
          "ticks": 99840,
          "time": 164.21027999999998,
          "velocity": 0.3937007874015748
        },
        {
          "duration": 0.3157889999999952,
          "durationTicks": 192,
          "midi": 61,
          "name": "C#4",
          "ticks": 100032,
          "time": 164.526069,
          "velocity": 0.3937007874015748
        },
        {
          "duration": 0.1578944999999976,
          "durationTicks": 96,
          "midi": 56,
          "name": "G#3",
          "ticks": 100224,
          "time": 164.841858,
          "velocity": 0.3937007874015748
        },
        {
          "duration": 0.3157889999999952,
          "durationTicks": 192,
          "midi": 55,
          "name": "G3",
          "ticks": 100512,
          "time": 165.3155415,
          "velocity": 0.3937007874015748
        },
        {
          "duration": 0.3157889999999952,
          "durationTicks": 192,
          "midi": 54,
          "name": "F#3",
          "ticks": 100800,
          "time": 165.789225,
          "velocity": 0.3937007874015748
        },
        {
          "duration": 0.1578944999999976,
          "durationTicks": 96,
          "midi": 52,
          "name": "E3",
          "ticks": 100992,
          "time": 166.10501399999998,
          "velocity": 0.3937007874015748
        },
        {
          "duration": 0.15789450000002603,
          "durationTicks": 96,
          "midi": 49,
          "name": "C#3",
          "ticks": 101088,
          "time": 166.26290849999998,
          "velocity": 0.3937007874015748
        },
        {
          "duration": 0.1578944999999976,
          "durationTicks": 96,
          "midi": 52,
          "name": "E3",
          "ticks": 101184,
          "time": 166.420803,
          "velocity": 0.3937007874015748
        },
        {
          "duration": 0.1578944999999976,
          "durationTicks": 96,
          "midi": 54,
          "name": "F#3",
          "ticks": 101280,
          "time": 166.5786975,
          "velocity": 0.3937007874015748
        },
        {
          "duration": 0.3157889999999952,
          "durationTicks": 192,
          "midi": 47,
          "name": "B2",
          "ticks": 101376,
          "time": 166.736592,
          "velocity": 0.3937007874015748
        },
        {
          "duration": 0.3157889999999952,
          "durationTicks": 192,
          "midi": 61,
          "name": "C#4",
          "ticks": 101568,
          "time": 167.052381,
          "velocity": 0.3937007874015748
        },
        {
          "duration": 0.3157889999999952,
          "durationTicks": 192,
          "midi": 56,
          "name": "G#3",
          "ticks": 101760,
          "time": 167.36817,
          "velocity": 0.3937007874015748
        },
        {
          "duration": 0.3157889999999952,
          "durationTicks": 192,
          "midi": 54,
          "name": "F#3",
          "ticks": 101952,
          "time": 167.683959,
          "velocity": 0.3937007874015748
        },
        {
          "duration": 0.31578900000002363,
          "durationTicks": 192,
          "midi": 52,
          "name": "E3",
          "ticks": 102144,
          "time": 167.99974799999998,
          "velocity": 0.3937007874015748
        },
        {
          "duration": 0.1578944999999976,
          "durationTicks": 96,
          "midi": 51,
          "name": "D#3",
          "ticks": 102336,
          "time": 168.315537,
          "velocity": 0.3937007874015748
        },
        {
          "duration": 0.1578944999999976,
          "durationTicks": 96,
          "midi": 52,
          "name": "E3",
          "ticks": 102432,
          "time": 168.4734315,
          "velocity": 0.3937007874015748
        },
        {
          "duration": 0.1578944999999976,
          "durationTicks": 96,
          "midi": 51,
          "name": "D#3",
          "ticks": 102528,
          "time": 168.631326,
          "velocity": 0.3937007874015748
        },
        {
          "duration": 0.1578944999999976,
          "durationTicks": 96,
          "midi": 49,
          "name": "C#3",
          "ticks": 102624,
          "time": 168.7892205,
          "velocity": 0.3937007874015748
        },
        {
          "duration": 0.1578944999999976,
          "durationTicks": 96,
          "midi": 47,
          "name": "B2",
          "ticks": 102720,
          "time": 168.947115,
          "velocity": 0.3937007874015748
        },
        {
          "duration": 0.1578944999999976,
          "durationTicks": 96,
          "midi": 44,
          "name": "G#2",
          "ticks": 102816,
          "time": 169.1050095,
          "velocity": 0.3937007874015748
        },
        {
          "duration": 0.1578944999999976,
          "durationTicks": 96,
          "midi": 45,
          "name": "A2",
          "ticks": 102912,
          "time": 169.262904,
          "velocity": 0.3937007874015748
        },
        {
          "duration": 0.1578944999999976,
          "durationTicks": 96,
          "midi": 45,
          "name": "A2",
          "ticks": 103008,
          "time": 169.4207985,
          "velocity": 0.3937007874015748
        },
        {
          "duration": 0.3157889999999952,
          "durationTicks": 192,
          "midi": 61,
          "name": "C#4",
          "ticks": 103104,
          "time": 169.578693,
          "velocity": 0.3937007874015748
        },
        {
          "duration": 0.31578900000002363,
          "durationTicks": 192,
          "midi": 56,
          "name": "G#3",
          "ticks": 103296,
          "time": 169.89448199999998,
          "velocity": 0.3937007874015748
        },
        {
          "duration": 0.1578944999999976,
          "durationTicks": 96,
          "midi": 61,
          "name": "C#4",
          "ticks": 103488,
          "time": 170.210271,
          "velocity": 0.3937007874015748
        },
        {
          "duration": 0.1578944999999976,
          "durationTicks": 96,
          "midi": 57,
          "name": "A3",
          "ticks": 103584,
          "time": 170.3681655,
          "velocity": 0.3937007874015748
        },
        {
          "duration": 0.1578944999999976,
          "durationTicks": 96,
          "midi": 61,
          "name": "C#4",
          "ticks": 103680,
          "time": 170.52606,
          "velocity": 0.3937007874015748
        },
        {
          "duration": 0.1578944999999976,
          "durationTicks": 96,
          "midi": 59,
          "name": "B3",
          "ticks": 103776,
          "time": 170.6839545,
          "velocity": 0.3937007874015748
        },
        {
          "duration": 0.3157889999999952,
          "durationTicks": 192,
          "midi": 56,
          "name": "G#3",
          "ticks": 103872,
          "time": 170.841849,
          "velocity": 0.3937007874015748
        },
        {
          "duration": 0.3157889999999952,
          "durationTicks": 192,
          "midi": 54,
          "name": "F#3",
          "ticks": 104064,
          "time": 171.157638,
          "velocity": 0.3937007874015748
        },
        {
          "duration": 0.1578944999999976,
          "durationTicks": 96,
          "midi": 56,
          "name": "G#3",
          "ticks": 104256,
          "time": 171.473427,
          "velocity": 0.3937007874015748
        },
        {
          "duration": 0.1578944999999976,
          "durationTicks": 96,
          "midi": 52,
          "name": "E3",
          "ticks": 104352,
          "time": 171.63132149999998,
          "velocity": 0.3937007874015748
        },
        {
          "duration": 0.31578900000002363,
          "durationTicks": 192,
          "midi": 44,
          "name": "G#2",
          "ticks": 104448,
          "time": 171.78921599999998,
          "velocity": 0.3937007874015748
        },
        {
          "duration": 0.3157889999999952,
          "durationTicks": 192,
          "midi": 61,
          "name": "C#4",
          "ticks": 104640,
          "time": 172.105005,
          "velocity": 0.3937007874015748
        },
        {
          "duration": 0.3157889999999952,
          "durationTicks": 192,
          "midi": 44,
          "name": "G#2",
          "ticks": 104832,
          "time": 172.420794,
          "velocity": 0.3937007874015748
        },
        {
          "duration": 0.3157889999999952,
          "durationTicks": 192,
          "midi": 61,
          "name": "C#4",
          "ticks": 105024,
          "time": 172.736583,
          "velocity": 0.3937007874015748
        },
        {
          "duration": 0.3157889999999952,
          "durationTicks": 192,
          "midi": 43,
          "name": "G2",
          "ticks": 105216,
          "time": 173.052372,
          "velocity": 0.3937007874015748
        },
        {
          "duration": 0.3157889999999952,
          "durationTicks": 192,
          "midi": 61,
          "name": "C#4",
          "ticks": 105408,
          "time": 173.368161,
          "velocity": 0.3937007874015748
        },
        {
          "duration": 0.31578900000002363,
          "durationTicks": 192,
          "midi": 45,
          "name": "A2",
          "ticks": 105600,
          "time": 173.68394999999998,
          "velocity": 0.3937007874015748
        },
        {
          "duration": 0.3157889999999952,
          "durationTicks": 192,
          "midi": 63,
          "name": "D#4",
          "ticks": 105792,
          "time": 173.999739,
          "velocity": 0.3937007874015748
        },
        {
          "duration": 0.3157889999999952,
          "durationTicks": 192,
          "midi": 49,
          "name": "C#3",
          "ticks": 105984,
          "time": 174.315528,
          "velocity": 0.3937007874015748
        },
        {
          "duration": 0.3157889999999952,
          "durationTicks": 192,
          "midi": 61,
          "name": "C#4",
          "ticks": 106176,
          "time": 174.631317,
          "velocity": 0.3937007874015748
        },
        {
          "duration": 0.1578944999999976,
          "durationTicks": 96,
          "midi": 56,
          "name": "G#3",
          "ticks": 106368,
          "time": 174.947106,
          "velocity": 0.3937007874015748
        },
        {
          "duration": 0.3157889999999952,
          "durationTicks": 192,
          "midi": 55,
          "name": "G3",
          "ticks": 106656,
          "time": 175.42078949999998,
          "velocity": 0.3937007874015748
        },
        {
          "duration": 0.3157889999999952,
          "durationTicks": 192,
          "midi": 54,
          "name": "F#3",
          "ticks": 106944,
          "time": 175.894473,
          "velocity": 0.3937007874015748
        },
        {
          "duration": 0.1578944999999976,
          "durationTicks": 96,
          "midi": 52,
          "name": "E3",
          "ticks": 107136,
          "time": 176.210262,
          "velocity": 0.3937007874015748
        },
        {
          "duration": 0.1578944999999976,
          "durationTicks": 96,
          "midi": 49,
          "name": "C#3",
          "ticks": 107232,
          "time": 176.3681565,
          "velocity": 0.3937007874015748
        },
        {
          "duration": 0.1578944999999976,
          "durationTicks": 96,
          "midi": 52,
          "name": "E3",
          "ticks": 107328,
          "time": 176.526051,
          "velocity": 0.3937007874015748
        },
        {
          "duration": 0.1578944999999976,
          "durationTicks": 96,
          "midi": 54,
          "name": "F#3",
          "ticks": 107424,
          "time": 176.6839455,
          "velocity": 0.3937007874015748
        },
        {
          "duration": 0.3157889999999952,
          "durationTicks": 192,
          "midi": 47,
          "name": "B2",
          "ticks": 107520,
          "time": 176.84184,
          "velocity": 0.3937007874015748
        },
        {
          "duration": 0.3157889999999952,
          "durationTicks": 192,
          "midi": 61,
          "name": "C#4",
          "ticks": 107712,
          "time": 177.157629,
          "velocity": 0.3937007874015748
        },
        {
          "duration": 0.31578900000002363,
          "durationTicks": 192,
          "midi": 56,
          "name": "G#3",
          "ticks": 107904,
          "time": 177.47341799999998,
          "velocity": 0.3937007874015748
        },
        {
          "duration": 0.3157889999999952,
          "durationTicks": 192,
          "midi": 54,
          "name": "F#3",
          "ticks": 108096,
          "time": 177.789207,
          "velocity": 0.3937007874015748
        },
        {
          "duration": 0.3157889999999952,
          "durationTicks": 192,
          "midi": 52,
          "name": "E3",
          "ticks": 108288,
          "time": 178.104996,
          "velocity": 0.3937007874015748
        },
        {
          "duration": 0.1578944999999976,
          "durationTicks": 96,
          "midi": 51,
          "name": "D#3",
          "ticks": 108480,
          "time": 178.420785,
          "velocity": 0.3937007874015748
        },
        {
          "duration": 0.1578944999999976,
          "durationTicks": 96,
          "midi": 52,
          "name": "E3",
          "ticks": 108576,
          "time": 178.5786795,
          "velocity": 0.3937007874015748
        },
        {
          "duration": 0.1578944999999976,
          "durationTicks": 96,
          "midi": 51,
          "name": "D#3",
          "ticks": 108672,
          "time": 178.736574,
          "velocity": 0.3937007874015748
        },
        {
          "duration": 0.1578944999999976,
          "durationTicks": 96,
          "midi": 49,
          "name": "C#3",
          "ticks": 108768,
          "time": 178.8944685,
          "velocity": 0.3937007874015748
        },
        {
          "duration": 0.1578944999999976,
          "durationTicks": 96,
          "midi": 47,
          "name": "B2",
          "ticks": 108864,
          "time": 179.05236299999999,
          "velocity": 0.3937007874015748
        },
        {
          "duration": 0.1578944999999976,
          "durationTicks": 96,
          "midi": 44,
          "name": "G#2",
          "ticks": 108960,
          "time": 179.21025749999998,
          "velocity": 0.3937007874015748
        },
        {
          "duration": 0.1578944999999976,
          "durationTicks": 96,
          "midi": 45,
          "name": "A2",
          "ticks": 109056,
          "time": 179.36815199999998,
          "velocity": 0.3937007874015748
        },
        {
          "duration": 0.15789450000002603,
          "durationTicks": 96,
          "midi": 45,
          "name": "A2",
          "ticks": 109152,
          "time": 179.52604649999998,
          "velocity": 0.3937007874015748
        },
        {
          "duration": 0.3157889999999952,
          "durationTicks": 192,
          "midi": 61,
          "name": "C#4",
          "ticks": 109248,
          "time": 179.683941,
          "velocity": 0.3937007874015748
        },
        {
          "duration": 0.3157889999999952,
          "durationTicks": 192,
          "midi": 56,
          "name": "G#3",
          "ticks": 109440,
          "time": 179.99973,
          "velocity": 0.3937007874015748
        },
        {
          "duration": 0.1578944999999976,
          "durationTicks": 96,
          "midi": 61,
          "name": "C#4",
          "ticks": 109632,
          "time": 180.315519,
          "velocity": 0.3937007874015748
        },
        {
          "duration": 0.1578944999999976,
          "durationTicks": 96,
          "midi": 57,
          "name": "A3",
          "ticks": 109728,
          "time": 180.4734135,
          "velocity": 0.3937007874015748
        },
        {
          "duration": 0.1578944999999976,
          "durationTicks": 96,
          "midi": 61,
          "name": "C#4",
          "ticks": 109824,
          "time": 180.631308,
          "velocity": 0.3937007874015748
        },
        {
          "duration": 0.1578944999999976,
          "durationTicks": 96,
          "midi": 59,
          "name": "B3",
          "ticks": 109920,
          "time": 180.7892025,
          "velocity": 0.3937007874015748
        },
        {
          "duration": 0.3157889999999952,
          "durationTicks": 192,
          "midi": 56,
          "name": "G#3",
          "ticks": 110016,
          "time": 180.94709699999999,
          "velocity": 0.3937007874015748
        },
        {
          "duration": 0.31578900000002363,
          "durationTicks": 192,
          "midi": 54,
          "name": "F#3",
          "ticks": 110208,
          "time": 181.26288599999998,
          "velocity": 0.3937007874015748
        },
        {
          "duration": 0.1578944999999976,
          "durationTicks": 96,
          "midi": 56,
          "name": "G#3",
          "ticks": 110400,
          "time": 181.578675,
          "velocity": 0.3937007874015748
        },
        {
          "duration": 0.1578944999999976,
          "durationTicks": 96,
          "midi": 52,
          "name": "E3",
          "ticks": 110496,
          "time": 181.7365695,
          "velocity": 0.3937007874015748
        },
        {
          "duration": 0.3157889999999952,
          "durationTicks": 192,
          "midi": 44,
          "name": "G#2",
          "ticks": 110592,
          "time": 181.894464,
          "velocity": 0.3937007874015748
        },
        {
          "duration": 0.3157889999999952,
          "durationTicks": 192,
          "midi": 61,
          "name": "C#4",
          "ticks": 110784,
          "time": 182.210253,
          "velocity": 0.3937007874015748
        },
        {
          "duration": 0.3157889999999952,
          "durationTicks": 192,
          "midi": 44,
          "name": "G#2",
          "ticks": 110976,
          "time": 182.526042,
          "velocity": 0.3937007874015748
        },
        {
          "duration": 0.3157889999999952,
          "durationTicks": 192,
          "midi": 61,
          "name": "C#4",
          "ticks": 111168,
          "time": 182.84183099999998,
          "velocity": 0.3937007874015748
        },
        {
          "duration": 0.31578900000002363,
          "durationTicks": 192,
          "midi": 43,
          "name": "G2",
          "ticks": 111360,
          "time": 183.15761999999998,
          "velocity": 0.3937007874015748
        },
        {
          "duration": 0.3157889999999952,
          "durationTicks": 192,
          "midi": 61,
          "name": "C#4",
          "ticks": 111552,
          "time": 183.473409,
          "velocity": 0.3937007874015748
        },
        {
          "duration": 0.3157889999999952,
          "durationTicks": 192,
          "midi": 45,
          "name": "A2",
          "ticks": 111744,
          "time": 183.789198,
          "velocity": 0.3937007874015748
        },
        {
          "duration": 0.3157889999999952,
          "durationTicks": 192,
          "midi": 63,
          "name": "D#4",
          "ticks": 111936,
          "time": 184.104987,
          "velocity": 0.3937007874015748
        },
        {
          "duration": 0.3157889999999952,
          "durationTicks": 192,
          "midi": 73,
          "name": "C#5",
          "ticks": 112128,
          "time": 184.420776,
          "velocity": 0.3937007874015748
        },
        {
          "duration": 0.3157889999999952,
          "durationTicks": 192,
          "midi": 85,
          "name": "C#6",
          "ticks": 112320,
          "time": 184.73656499999998,
          "velocity": 0.3937007874015748
        },
        {
          "duration": 0.15789450000002603,
          "durationTicks": 96,
          "midi": 80,
          "name": "G#5",
          "ticks": 112512,
          "time": 185.05235399999998,
          "velocity": 0.3937007874015748
        },
        {
          "duration": 0.3157889999999952,
          "durationTicks": 192,
          "midi": 79,
          "name": "G5",
          "ticks": 112800,
          "time": 185.5260375,
          "velocity": 0.3937007874015748
        },
        {
          "duration": 0.3157889999999952,
          "durationTicks": 192,
          "midi": 78,
          "name": "F#5",
          "ticks": 113088,
          "time": 185.999721,
          "velocity": 0.3937007874015748
        },
        {
          "duration": 0.1578944999999976,
          "durationTicks": 96,
          "midi": 76,
          "name": "E5",
          "ticks": 113280,
          "time": 186.31551,
          "velocity": 0.3937007874015748
        },
        {
          "duration": 0.1578944999999976,
          "durationTicks": 96,
          "midi": 73,
          "name": "C#5",
          "ticks": 113376,
          "time": 186.4734045,
          "velocity": 0.3937007874015748
        },
        {
          "duration": 0.1578944999999976,
          "durationTicks": 96,
          "midi": 76,
          "name": "E5",
          "ticks": 113472,
          "time": 186.63129899999998,
          "velocity": 0.3937007874015748
        },
        {
          "duration": 0.1578944999999976,
          "durationTicks": 96,
          "midi": 78,
          "name": "F#5",
          "ticks": 113568,
          "time": 186.78919349999998,
          "velocity": 0.3937007874015748
        },
        {
          "duration": 0.31578900000002363,
          "durationTicks": 192,
          "midi": 71,
          "name": "B4",
          "ticks": 113664,
          "time": 186.94708799999998,
          "velocity": 0.3937007874015748
        },
        {
          "duration": 0.3157889999999952,
          "durationTicks": 192,
          "midi": 85,
          "name": "C#6",
          "ticks": 113856,
          "time": 187.262877,
          "velocity": 0.3937007874015748
        },
        {
          "duration": 0.3157889999999952,
          "durationTicks": 192,
          "midi": 80,
          "name": "G#5",
          "ticks": 114048,
          "time": 187.578666,
          "velocity": 0.3937007874015748
        },
        {
          "duration": 0.3157889999999952,
          "durationTicks": 192,
          "midi": 78,
          "name": "F#5",
          "ticks": 114240,
          "time": 187.894455,
          "velocity": 0.3937007874015748
        },
        {
          "duration": 0.3157889999999952,
          "durationTicks": 192,
          "midi": 76,
          "name": "E5",
          "ticks": 114432,
          "time": 188.210244,
          "velocity": 0.3937007874015748
        },
        {
          "duration": 0.1578944999999976,
          "durationTicks": 96,
          "midi": 75,
          "name": "D#5",
          "ticks": 114624,
          "time": 188.52603299999998,
          "velocity": 0.3937007874015748
        },
        {
          "duration": 0.1578944999999976,
          "durationTicks": 96,
          "midi": 76,
          "name": "E5",
          "ticks": 114720,
          "time": 188.68392749999998,
          "velocity": 0.3937007874015748
        },
        {
          "duration": 0.15789450000002603,
          "durationTicks": 96,
          "midi": 75,
          "name": "D#5",
          "ticks": 114816,
          "time": 188.84182199999998,
          "velocity": 0.3937007874015748
        },
        {
          "duration": 0.1578944999999976,
          "durationTicks": 96,
          "midi": 73,
          "name": "C#5",
          "ticks": 114912,
          "time": 188.9997165,
          "velocity": 0.3937007874015748
        },
        {
          "duration": 0.1578944999999976,
          "durationTicks": 96,
          "midi": 71,
          "name": "B4",
          "ticks": 115008,
          "time": 189.157611,
          "velocity": 0.3937007874015748
        },
        {
          "duration": 0.1578944999999976,
          "durationTicks": 96,
          "midi": 68,
          "name": "G#4",
          "ticks": 115104,
          "time": 189.3155055,
          "velocity": 0.3937007874015748
        },
        {
          "duration": 0.1578944999999976,
          "durationTicks": 96,
          "midi": 69,
          "name": "A4",
          "ticks": 115200,
          "time": 189.4734,
          "velocity": 0.3937007874015748
        },
        {
          "duration": 2.3684174999999925,
          "durationTicks": 1440,
          "midi": 57,
          "name": "A3",
          "ticks": 115200,
          "time": 189.4734,
          "velocity": 0.3937007874015748
        },
        {
          "duration": 0.1578944999999976,
          "durationTicks": 96,
          "midi": 69,
          "name": "A4",
          "ticks": 115296,
          "time": 189.6312945,
          "velocity": 0.3937007874015748
        },
        {
          "duration": 0.3157889999999952,
          "durationTicks": 192,
          "midi": 85,
          "name": "C#6",
          "ticks": 115392,
          "time": 189.789189,
          "velocity": 0.3937007874015748
        },
        {
          "duration": 0.3157889999999952,
          "durationTicks": 192,
          "midi": 80,
          "name": "G#5",
          "ticks": 115584,
          "time": 190.104978,
          "velocity": 0.3937007874015748
        },
        {
          "duration": 0.1578944999999976,
          "durationTicks": 96,
          "midi": 85,
          "name": "C#6",
          "ticks": 115776,
          "time": 190.42076699999998,
          "velocity": 0.3937007874015748
        },
        {
          "duration": 0.1578944999999976,
          "durationTicks": 96,
          "midi": 81,
          "name": "A5",
          "ticks": 115872,
          "time": 190.57866149999998,
          "velocity": 0.3937007874015748
        },
        {
          "duration": 0.15789450000002603,
          "durationTicks": 96,
          "midi": 85,
          "name": "C#6",
          "ticks": 115968,
          "time": 190.73655599999998,
          "velocity": 0.3937007874015748
        },
        {
          "duration": 0.1578944999999976,
          "durationTicks": 96,
          "midi": 83,
          "name": "B5",
          "ticks": 116064,
          "time": 190.8944505,
          "velocity": 0.3937007874015748
        },
        {
          "duration": 0.3157889999999952,
          "durationTicks": 192,
          "midi": 80,
          "name": "G#5",
          "ticks": 116160,
          "time": 191.052345,
          "velocity": 0.3937007874015748
        },
        {
          "duration": 0.3157889999999952,
          "durationTicks": 192,
          "midi": 78,
          "name": "F#5",
          "ticks": 116352,
          "time": 191.368134,
          "velocity": 0.3937007874015748
        },
        {
          "duration": 0.1578944999999976,
          "durationTicks": 96,
          "midi": 80,
          "name": "G#5",
          "ticks": 116544,
          "time": 191.683923,
          "velocity": 0.3937007874015748
        },
        {
          "duration": 0.1578944999999976,
          "durationTicks": 96,
          "midi": 76,
          "name": "E5",
          "ticks": 116640,
          "time": 191.8418175,
          "velocity": 0.3937007874015748
        },
        {
          "duration": 0.3157889999999952,
          "durationTicks": 192,
          "midi": 68,
          "name": "G#4",
          "ticks": 116736,
          "time": 191.999712,
          "velocity": 0.3937007874015748
        },
        {
          "duration": 1.2631560000000093,
          "durationTicks": 768,
          "midi": 56,
          "name": "G#3",
          "ticks": 116736,
          "time": 191.999712,
          "velocity": 0.3937007874015748
        },
        {
          "duration": 0.3157889999999952,
          "durationTicks": 192,
          "midi": 85,
          "name": "C#6",
          "ticks": 116928,
          "time": 192.31550099999998,
          "velocity": 0.3937007874015748
        },
        {
          "duration": 0.31578900000002363,
          "durationTicks": 192,
          "midi": 68,
          "name": "G#4",
          "ticks": 117120,
          "time": 192.63128999999998,
          "velocity": 0.3937007874015748
        },
        {
          "duration": 0.3157889999999952,
          "durationTicks": 192,
          "midi": 85,
          "name": "C#6",
          "ticks": 117312,
          "time": 192.947079,
          "velocity": 0.3937007874015748
        },
        {
          "duration": 0.3157889999999952,
          "durationTicks": 192,
          "midi": 67,
          "name": "G4",
          "ticks": 117504,
          "time": 193.262868,
          "velocity": 0.3937007874015748
        },
        {
          "duration": 0.6315779999999904,
          "durationTicks": 384,
          "midi": 55,
          "name": "G3",
          "ticks": 117504,
          "time": 193.262868,
          "velocity": 0.3937007874015748
        },
        {
          "duration": 0.3157889999999952,
          "durationTicks": 192,
          "midi": 85,
          "name": "C#6",
          "ticks": 117696,
          "time": 193.578657,
          "velocity": 0.3937007874015748
        },
        {
          "duration": 0.3157889999999952,
          "durationTicks": 192,
          "midi": 57,
          "name": "A3",
          "ticks": 117888,
          "time": 193.894446,
          "velocity": 0.3937007874015748
        },
        {
          "duration": 0.3157889999999952,
          "durationTicks": 192,
          "midi": 69,
          "name": "A4",
          "ticks": 117888,
          "time": 193.894446,
          "velocity": 0.3937007874015748
        },
        {
          "duration": 0.3157889999999952,
          "durationTicks": 192,
          "midi": 87,
          "name": "D#6",
          "ticks": 118080,
          "time": 194.21023499999998,
          "velocity": 0.3937007874015748
        },
        {
          "duration": 0.3157889999999952,
          "durationTicks": 192,
          "midi": 75,
          "name": "D#5",
          "ticks": 118080,
          "time": 194.21023499999998,
          "velocity": 0.3937007874015748
        },
        {
          "duration": 0.31578900000002363,
          "durationTicks": 192,
          "midi": 61,
          "name": "C#4",
          "ticks": 118272,
          "time": 194.52602399999998,
          "velocity": 0.3937007874015748
        },
        {
          "duration": 0.31578900000002363,
          "durationTicks": 192,
          "midi": 49,
          "name": "C#3",
          "ticks": 118272,
          "time": 194.52602399999998,
          "velocity": 0.3937007874015748
        },
        {
          "duration": 0.3157889999999952,
          "durationTicks": 192,
          "midi": 73,
          "name": "C#5",
          "ticks": 118464,
          "time": 194.841813,
          "velocity": 0.3937007874015748
        },
        {
          "duration": 0.3157889999999952,
          "durationTicks": 192,
          "midi": 61,
          "name": "C#4",
          "ticks": 118464,
          "time": 194.841813,
          "velocity": 0.3937007874015748
        },
        {
          "duration": 0.1578944999999976,
          "durationTicks": 96,
          "midi": 56,
          "name": "G#3",
          "ticks": 118656,
          "time": 195.157602,
          "velocity": 0.3937007874015748
        },
        {
          "duration": 0.1578944999999976,
          "durationTicks": 96,
          "midi": 68,
          "name": "G#4",
          "ticks": 118656,
          "time": 195.157602,
          "velocity": 0.3937007874015748
        },
        {
          "duration": 0.3157889999999952,
          "durationTicks": 192,
          "midi": 55,
          "name": "G3",
          "ticks": 118944,
          "time": 195.6312855,
          "velocity": 0.3937007874015748
        },
        {
          "duration": 0.3157889999999952,
          "durationTicks": 192,
          "midi": 67,
          "name": "G4",
          "ticks": 118944,
          "time": 195.6312855,
          "velocity": 0.3937007874015748
        },
        {
          "duration": 0.3157889999999952,
          "durationTicks": 192,
          "midi": 54,
          "name": "F#3",
          "ticks": 119232,
          "time": 196.10496899999998,
          "velocity": 0.3937007874015748
        },
        {
          "duration": 0.3157889999999952,
          "durationTicks": 192,
          "midi": 66,
          "name": "F#4",
          "ticks": 119232,
          "time": 196.10496899999998,
          "velocity": 0.3937007874015748
        },
        {
          "duration": 0.15789450000002603,
          "durationTicks": 96,
          "midi": 52,
          "name": "E3",
          "ticks": 119424,
          "time": 196.42075799999998,
          "velocity": 0.3937007874015748
        },
        {
          "duration": 0.15789450000002603,
          "durationTicks": 96,
          "midi": 64,
          "name": "E4",
          "ticks": 119424,
          "time": 196.42075799999998,
          "velocity": 0.3937007874015748
        },
        {
          "duration": 0.1578944999999976,
          "durationTicks": 96,
          "midi": 49,
          "name": "C#3",
          "ticks": 119520,
          "time": 196.5786525,
          "velocity": 0.3937007874015748
        },
        {
          "duration": 0.1578944999999976,
          "durationTicks": 96,
          "midi": 61,
          "name": "C#4",
          "ticks": 119520,
          "time": 196.5786525,
          "velocity": 0.3937007874015748
        },
        {
          "duration": 0.1578944999999976,
          "durationTicks": 96,
          "midi": 52,
          "name": "E3",
          "ticks": 119616,
          "time": 196.736547,
          "velocity": 0.3937007874015748
        },
        {
          "duration": 0.1578944999999976,
          "durationTicks": 96,
          "midi": 64,
          "name": "E4",
          "ticks": 119616,
          "time": 196.736547,
          "velocity": 0.3937007874015748
        },
        {
          "duration": 0.1578944999999976,
          "durationTicks": 96,
          "midi": 66,
          "name": "F#4",
          "ticks": 119712,
          "time": 196.8944415,
          "velocity": 0.3937007874015748
        },
        {
          "duration": 0.1578944999999976,
          "durationTicks": 96,
          "midi": 54,
          "name": "F#3",
          "ticks": 119712,
          "time": 196.8944415,
          "velocity": 0.3937007874015748
        },
        {
          "duration": 0.3157889999999952,
          "durationTicks": 192,
          "midi": 47,
          "name": "B2",
          "ticks": 119808,
          "time": 197.052336,
          "velocity": 0.3937007874015748
        },
        {
          "duration": 0.3157889999999952,
          "durationTicks": 192,
          "midi": 59,
          "name": "B3",
          "ticks": 119808,
          "time": 197.052336,
          "velocity": 0.3937007874015748
        },
        {
          "duration": 0.3157889999999952,
          "durationTicks": 192,
          "midi": 61,
          "name": "C#4",
          "ticks": 120000,
          "time": 197.368125,
          "velocity": 0.3937007874015748
        },
        {
          "duration": 0.3157889999999952,
          "durationTicks": 192,
          "midi": 73,
          "name": "C#5",
          "ticks": 120000,
          "time": 197.368125,
          "velocity": 0.3937007874015748
        },
        {
          "duration": 0.3157889999999952,
          "durationTicks": 192,
          "midi": 56,
          "name": "G#3",
          "ticks": 120192,
          "time": 197.683914,
          "velocity": 0.3937007874015748
        },
        {
          "duration": 0.3157889999999952,
          "durationTicks": 192,
          "midi": 68,
          "name": "G#4",
          "ticks": 120192,
          "time": 197.683914,
          "velocity": 0.3937007874015748
        },
        {
          "duration": 0.3157889999999952,
          "durationTicks": 192,
          "midi": 66,
          "name": "F#4",
          "ticks": 120384,
          "time": 197.99970299999998,
          "velocity": 0.3937007874015748
        },
        {
          "duration": 0.3157889999999952,
          "durationTicks": 192,
          "midi": 54,
          "name": "F#3",
          "ticks": 120384,
          "time": 197.99970299999998,
          "velocity": 0.3937007874015748
        },
        {
          "duration": 0.31578900000002363,
          "durationTicks": 192,
          "midi": 64,
          "name": "E4",
          "ticks": 120576,
          "time": 198.31549199999998,
          "velocity": 0.3937007874015748
        },
        {
          "duration": 0.31578900000002363,
          "durationTicks": 192,
          "midi": 52,
          "name": "E3",
          "ticks": 120576,
          "time": 198.31549199999998,
          "velocity": 0.3937007874015748
        },
        {
          "duration": 0.1578944999999976,
          "durationTicks": 96,
          "midi": 51,
          "name": "D#3",
          "ticks": 120768,
          "time": 198.631281,
          "velocity": 0.3937007874015748
        },
        {
          "duration": 0.1578944999999976,
          "durationTicks": 96,
          "midi": 63,
          "name": "D#4",
          "ticks": 120768,
          "time": 198.631281,
          "velocity": 0.3937007874015748
        },
        {
          "duration": 0.1578944999999976,
          "durationTicks": 96,
          "midi": 52,
          "name": "E3",
          "ticks": 120864,
          "time": 198.7891755,
          "velocity": 0.3937007874015748
        },
        {
          "duration": 0.1578944999999976,
          "durationTicks": 96,
          "midi": 64,
          "name": "E4",
          "ticks": 120864,
          "time": 198.7891755,
          "velocity": 0.3937007874015748
        },
        {
          "duration": 0.1578944999999976,
          "durationTicks": 96,
          "midi": 63,
          "name": "D#4",
          "ticks": 120960,
          "time": 198.94707,
          "velocity": 0.3937007874015748
        },
        {
          "duration": 0.1578944999999976,
          "durationTicks": 96,
          "midi": 51,
          "name": "D#3",
          "ticks": 120960,
          "time": 198.94707,
          "velocity": 0.3937007874015748
        },
        {
          "duration": 0.1578944999999976,
          "durationTicks": 96,
          "midi": 49,
          "name": "C#3",
          "ticks": 121056,
          "time": 199.1049645,
          "velocity": 0.3937007874015748
        },
        {
          "duration": 0.1578944999999976,
          "durationTicks": 96,
          "midi": 61,
          "name": "C#4",
          "ticks": 121056,
          "time": 199.1049645,
          "velocity": 0.3937007874015748
        },
        {
          "duration": 0.1578944999999976,
          "durationTicks": 96,
          "midi": 47,
          "name": "B2",
          "ticks": 121152,
          "time": 199.262859,
          "velocity": 0.3937007874015748
        },
        {
          "duration": 0.1578944999999976,
          "durationTicks": 96,
          "midi": 59,
          "name": "B3",
          "ticks": 121152,
          "time": 199.262859,
          "velocity": 0.3937007874015748
        },
        {
          "duration": 0.1578944999999976,
          "durationTicks": 96,
          "midi": 44,
          "name": "G#2",
          "ticks": 121248,
          "time": 199.4207535,
          "velocity": 0.3937007874015748
        },
        {
          "duration": 0.1578944999999976,
          "durationTicks": 96,
          "midi": 56,
          "name": "G#3",
          "ticks": 121248,
          "time": 199.4207535,
          "velocity": 0.3937007874015748
        },
        {
          "duration": 0.1578944999999976,
          "durationTicks": 96,
          "midi": 45,
          "name": "A2",
          "ticks": 121344,
          "time": 199.578648,
          "velocity": 0.3937007874015748
        },
        {
          "duration": 0.1578944999999976,
          "durationTicks": 96,
          "midi": 57,
          "name": "A3",
          "ticks": 121344,
          "time": 199.578648,
          "velocity": 0.3937007874015748
        },
        {
          "duration": 0.1578944999999976,
          "durationTicks": 96,
          "midi": 57,
          "name": "A3",
          "ticks": 121440,
          "time": 199.73654249999998,
          "velocity": 0.3937007874015748
        },
        {
          "duration": 0.1578944999999976,
          "durationTicks": 96,
          "midi": 45,
          "name": "A2",
          "ticks": 121440,
          "time": 199.73654249999998,
          "velocity": 0.3937007874015748
        },
        {
          "duration": 0.3157889999999952,
          "durationTicks": 192,
          "midi": 61,
          "name": "C#4",
          "ticks": 121536,
          "time": 199.89443699999998,
          "velocity": 0.3937007874015748
        },
        {
          "duration": 0.3157889999999952,
          "durationTicks": 192,
          "midi": 73,
          "name": "C#5",
          "ticks": 121536,
          "time": 199.89443699999998,
          "velocity": 0.3937007874015748
        },
        {
          "duration": 0.31578900000002363,
          "durationTicks": 192,
          "midi": 56,
          "name": "G#3",
          "ticks": 121728,
          "time": 200.21022599999998,
          "velocity": 0.3937007874015748
        },
        {
          "duration": 0.31578900000002363,
          "durationTicks": 192,
          "midi": 68,
          "name": "G#4",
          "ticks": 121728,
          "time": 200.21022599999998,
          "velocity": 0.3937007874015748
        },
        {
          "duration": 0.1578944999999976,
          "durationTicks": 96,
          "midi": 73,
          "name": "C#5",
          "ticks": 121920,
          "time": 200.526015,
          "velocity": 0.3937007874015748
        },
        {
          "duration": 0.1578944999999976,
          "durationTicks": 96,
          "midi": 61,
          "name": "C#4",
          "ticks": 121920,
          "time": 200.526015,
          "velocity": 0.3937007874015748
        },
        {
          "duration": 0.1578944999999976,
          "durationTicks": 96,
          "midi": 69,
          "name": "A4",
          "ticks": 122016,
          "time": 200.6839095,
          "velocity": 0.3937007874015748
        },
        {
          "duration": 0.1578944999999976,
          "durationTicks": 96,
          "midi": 57,
          "name": "A3",
          "ticks": 122016,
          "time": 200.6839095,
          "velocity": 0.3937007874015748
        },
        {
          "duration": 0.1578944999999976,
          "durationTicks": 96,
          "midi": 73,
          "name": "C#5",
          "ticks": 122112,
          "time": 200.841804,
          "velocity": 0.3937007874015748
        },
        {
          "duration": 0.1578944999999976,
          "durationTicks": 96,
          "midi": 61,
          "name": "C#4",
          "ticks": 122112,
          "time": 200.841804,
          "velocity": 0.3937007874015748
        },
        {
          "duration": 0.1578944999999976,
          "durationTicks": 96,
          "midi": 59,
          "name": "B3",
          "ticks": 122208,
          "time": 200.9996985,
          "velocity": 0.3937007874015748
        },
        {
          "duration": 0.1578944999999976,
          "durationTicks": 96,
          "midi": 71,
          "name": "B4",
          "ticks": 122208,
          "time": 200.9996985,
          "velocity": 0.3937007874015748
        },
        {
          "duration": 0.3157889999999952,
          "durationTicks": 192,
          "midi": 56,
          "name": "G#3",
          "ticks": 122304,
          "time": 201.157593,
          "velocity": 0.3937007874015748
        },
        {
          "duration": 0.3157889999999952,
          "durationTicks": 192,
          "midi": 68,
          "name": "G#4",
          "ticks": 122304,
          "time": 201.157593,
          "velocity": 0.3937007874015748
        },
        {
          "duration": 0.3157889999999952,
          "durationTicks": 192,
          "midi": 54,
          "name": "F#3",
          "ticks": 122496,
          "time": 201.473382,
          "velocity": 0.3937007874015748
        },
        {
          "duration": 0.3157889999999952,
          "durationTicks": 192,
          "midi": 66,
          "name": "F#4",
          "ticks": 122496,
          "time": 201.473382,
          "velocity": 0.3937007874015748
        },
        {
          "duration": 0.1578944999999976,
          "durationTicks": 96,
          "midi": 56,
          "name": "G#3",
          "ticks": 122688,
          "time": 201.78917099999998,
          "velocity": 0.3937007874015748
        },
        {
          "duration": 0.1578944999999976,
          "durationTicks": 96,
          "midi": 68,
          "name": "G#4",
          "ticks": 122688,
          "time": 201.78917099999998,
          "velocity": 0.3937007874015748
        },
        {
          "duration": 0.15789450000002603,
          "durationTicks": 96,
          "midi": 52,
          "name": "E3",
          "ticks": 122784,
          "time": 201.94706549999998,
          "velocity": 0.3937007874015748
        },
        {
          "duration": 0.15789450000002603,
          "durationTicks": 96,
          "midi": 64,
          "name": "E4",
          "ticks": 122784,
          "time": 201.94706549999998,
          "velocity": 0.3937007874015748
        },
        {
          "duration": 0.1578944999999976,
          "durationTicks": 96,
          "midi": 44,
          "name": "G#2",
          "ticks": 122880,
          "time": 202.10496,
          "velocity": 0.3937007874015748
        },
        {
          "duration": 0.1578944999999976,
          "durationTicks": 96,
          "midi": 56,
          "name": "G#3",
          "ticks": 122880,
          "time": 202.10496,
          "velocity": 0.3937007874015748
        },
        {
          "duration": 0.1578944999999976,
          "durationTicks": 96,
          "midi": 56,
          "name": "G#3",
          "ticks": 122976,
          "time": 202.2628545,
          "velocity": 0.3937007874015748
        },
        {
          "duration": 0.1578944999999976,
          "durationTicks": 96,
          "midi": 44,
          "name": "G#2",
          "ticks": 122976,
          "time": 202.2628545,
          "velocity": 0.3937007874015748
        },
        {
          "duration": 0.3157889999999952,
          "durationTicks": 192,
          "midi": 61,
          "name": "C#4",
          "ticks": 123072,
          "time": 202.420749,
          "velocity": 0.3937007874015748
        },
        {
          "duration": 0.3157889999999952,
          "durationTicks": 192,
          "midi": 73,
          "name": "C#5",
          "ticks": 123072,
          "time": 202.420749,
          "velocity": 0.3937007874015748
        },
        {
          "duration": 0.3157889999999952,
          "durationTicks": 192,
          "midi": 44,
          "name": "G#2",
          "ticks": 123264,
          "time": 202.736538,
          "velocity": 0.3937007874015748
        },
        {
          "duration": 0.3157889999999952,
          "durationTicks": 192,
          "midi": 56,
          "name": "G#3",
          "ticks": 123264,
          "time": 202.736538,
          "velocity": 0.3937007874015748
        },
        {
          "duration": 0.3157889999999952,
          "durationTicks": 192,
          "midi": 61,
          "name": "C#4",
          "ticks": 123456,
          "time": 203.052327,
          "velocity": 0.3937007874015748
        },
        {
          "duration": 0.3157889999999952,
          "durationTicks": 192,
          "midi": 73,
          "name": "C#5",
          "ticks": 123456,
          "time": 203.052327,
          "velocity": 0.3937007874015748
        },
        {
          "duration": 0.1578944999999976,
          "durationTicks": 96,
          "midi": 43,
          "name": "G2",
          "ticks": 123648,
          "time": 203.368116,
          "velocity": 0.3937007874015748
        },
        {
          "duration": 0.1578944999999976,
          "durationTicks": 96,
          "midi": 55,
          "name": "G3",
          "ticks": 123648,
          "time": 203.368116,
          "velocity": 0.3937007874015748
        },
        {
          "duration": 0.1578944999999976,
          "durationTicks": 96,
          "midi": 43,
          "name": "G2",
          "ticks": 123744,
          "time": 203.52601049999998,
          "velocity": 0.3937007874015748
        },
        {
          "duration": 0.1578944999999976,
          "durationTicks": 96,
          "midi": 55,
          "name": "G3",
          "ticks": 123744,
          "time": 203.52601049999998,
          "velocity": 0.3937007874015748
        },
        {
          "duration": 0.31578900000002363,
          "durationTicks": 192,
          "midi": 61,
          "name": "C#4",
          "ticks": 123840,
          "time": 203.68390499999998,
          "velocity": 0.3937007874015748
        },
        {
          "duration": 0.31578900000002363,
          "durationTicks": 192,
          "midi": 73,
          "name": "C#5",
          "ticks": 123840,
          "time": 203.68390499999998,
          "velocity": 0.3937007874015748
        },
        {
          "duration": 0.3157889999999952,
          "durationTicks": 192,
          "midi": 45,
          "name": "A2",
          "ticks": 124032,
          "time": 203.999694,
          "velocity": 0.3937007874015748
        },
        {
          "duration": 0.3157889999999952,
          "durationTicks": 192,
          "midi": 57,
          "name": "A3",
          "ticks": 124032,
          "time": 203.999694,
          "velocity": 0.3937007874015748
        },
        {
          "duration": 0.3157889999999952,
          "durationTicks": 192,
          "midi": 63,
          "name": "D#4",
          "ticks": 124224,
          "time": 204.315483,
          "velocity": 0.3937007874015748
        },
        {
          "duration": 0.3157889999999952,
          "durationTicks": 192,
          "midi": 75,
          "name": "D#5",
          "ticks": 124224,
          "time": 204.315483,
          "velocity": 0.3937007874015748
        },
        {
          "duration": 0.3157889999999952,
          "durationTicks": 192,
          "midi": 61,
          "name": "C#4",
          "ticks": 124416,
          "time": 204.631272,
          "velocity": 0.3937007874015748
        },
        {
          "duration": 0.3157889999999952,
          "durationTicks": 192,
          "midi": 49,
          "name": "C#3",
          "ticks": 124416,
          "time": 204.631272,
          "velocity": 0.3937007874015748
        },
        {
          "duration": 0.3157889999999952,
          "durationTicks": 192,
          "midi": 61,
          "name": "C#4",
          "ticks": 124608,
          "time": 204.947061,
          "velocity": 0.3937007874015748
        },
        {
          "duration": 0.3157889999999952,
          "durationTicks": 192,
          "midi": 73,
          "name": "C#5",
          "ticks": 124608,
          "time": 204.947061,
          "velocity": 0.3937007874015748
        },
        {
          "duration": 0.1578944999999976,
          "durationTicks": 96,
          "midi": 56,
          "name": "G#3",
          "ticks": 124800,
          "time": 205.26285,
          "velocity": 0.3937007874015748
        },
        {
          "duration": 0.1578944999999976,
          "durationTicks": 96,
          "midi": 68,
          "name": "G#4",
          "ticks": 124800,
          "time": 205.26285,
          "velocity": 0.3937007874015748
        },
        {
          "duration": 0.31578900000002363,
          "durationTicks": 192,
          "midi": 55,
          "name": "G3",
          "ticks": 125088,
          "time": 205.73653349999998,
          "velocity": 0.3937007874015748
        },
        {
          "duration": 0.31578900000002363,
          "durationTicks": 192,
          "midi": 67,
          "name": "G4",
          "ticks": 125088,
          "time": 205.73653349999998,
          "velocity": 0.3937007874015748
        },
        {
          "duration": 0.3157889999999952,
          "durationTicks": 192,
          "midi": 54,
          "name": "F#3",
          "ticks": 125376,
          "time": 206.210217,
          "velocity": 0.3937007874015748
        },
        {
          "duration": 0.3157889999999952,
          "durationTicks": 192,
          "midi": 66,
          "name": "F#4",
          "ticks": 125376,
          "time": 206.210217,
          "velocity": 0.3937007874015748
        },
        {
          "duration": 0.1578944999999976,
          "durationTicks": 96,
          "midi": 52,
          "name": "E3",
          "ticks": 125568,
          "time": 206.526006,
          "velocity": 0.3937007874015748
        },
        {
          "duration": 0.1578944999999976,
          "durationTicks": 96,
          "midi": 64,
          "name": "E4",
          "ticks": 125568,
          "time": 206.526006,
          "velocity": 0.3937007874015748
        },
        {
          "duration": 0.1578944999999976,
          "durationTicks": 96,
          "midi": 49,
          "name": "C#3",
          "ticks": 125664,
          "time": 206.6839005,
          "velocity": 0.3937007874015748
        },
        {
          "duration": 0.1578944999999976,
          "durationTicks": 96,
          "midi": 61,
          "name": "C#4",
          "ticks": 125664,
          "time": 206.6839005,
          "velocity": 0.3937007874015748
        },
        {
          "duration": 0.1578944999999976,
          "durationTicks": 96,
          "midi": 52,
          "name": "E3",
          "ticks": 125760,
          "time": 206.841795,
          "velocity": 0.3937007874015748
        },
        {
          "duration": 0.1578944999999976,
          "durationTicks": 96,
          "midi": 64,
          "name": "E4",
          "ticks": 125760,
          "time": 206.841795,
          "velocity": 0.3937007874015748
        },
        {
          "duration": 0.1578944999999976,
          "durationTicks": 96,
          "midi": 66,
          "name": "F#4",
          "ticks": 125856,
          "time": 206.9996895,
          "velocity": 0.3937007874015748
        },
        {
          "duration": 0.1578944999999976,
          "durationTicks": 96,
          "midi": 54,
          "name": "F#3",
          "ticks": 125856,
          "time": 206.9996895,
          "velocity": 0.3937007874015748
        },
        {
          "duration": 0.3157889999999952,
          "durationTicks": 192,
          "midi": 47,
          "name": "B2",
          "ticks": 125952,
          "time": 207.15758399999999,
          "velocity": 0.3937007874015748
        },
        {
          "duration": 0.3157889999999952,
          "durationTicks": 192,
          "midi": 59,
          "name": "B3",
          "ticks": 125952,
          "time": 207.15758399999999,
          "velocity": 0.3937007874015748
        },
        {
          "duration": 0.31578900000002363,
          "durationTicks": 192,
          "midi": 61,
          "name": "C#4",
          "ticks": 126144,
          "time": 207.47337299999998,
          "velocity": 0.3937007874015748
        },
        {
          "duration": 0.31578900000002363,
          "durationTicks": 192,
          "midi": 73,
          "name": "C#5",
          "ticks": 126144,
          "time": 207.47337299999998,
          "velocity": 0.3937007874015748
        },
        {
          "duration": 0.3157889999999952,
          "durationTicks": 192,
          "midi": 56,
          "name": "G#3",
          "ticks": 126336,
          "time": 207.789162,
          "velocity": 0.3937007874015748
        },
        {
          "duration": 0.3157889999999952,
          "durationTicks": 192,
          "midi": 68,
          "name": "G#4",
          "ticks": 126336,
          "time": 207.789162,
          "velocity": 0.3937007874015748
        },
        {
          "duration": 0.3157889999999952,
          "durationTicks": 192,
          "midi": 54,
          "name": "F#3",
          "ticks": 126528,
          "time": 208.104951,
          "velocity": 0.3937007874015748
        },
        {
          "duration": 0.3157889999999952,
          "durationTicks": 192,
          "midi": 66,
          "name": "F#4",
          "ticks": 126528,
          "time": 208.104951,
          "velocity": 0.3937007874015748
        },
        {
          "duration": 0.3157889999999952,
          "durationTicks": 192,
          "midi": 52,
          "name": "E3",
          "ticks": 126720,
          "time": 208.42074,
          "velocity": 0.3937007874015748
        },
        {
          "duration": 0.3157889999999952,
          "durationTicks": 192,
          "midi": 64,
          "name": "E4",
          "ticks": 126720,
          "time": 208.42074,
          "velocity": 0.3937007874015748
        },
        {
          "duration": 0.1578944999999976,
          "durationTicks": 96,
          "midi": 51,
          "name": "D#3",
          "ticks": 126912,
          "time": 208.736529,
          "velocity": 0.3937007874015748
        },
        {
          "duration": 0.1578944999999976,
          "durationTicks": 96,
          "midi": 63,
          "name": "D#4",
          "ticks": 126912,
          "time": 208.736529,
          "velocity": 0.3937007874015748
        },
        {
          "duration": 0.1578944999999976,
          "durationTicks": 96,
          "midi": 52,
          "name": "E3",
          "ticks": 127008,
          "time": 208.8944235,
          "velocity": 0.3937007874015748
        },
        {
          "duration": 0.1578944999999976,
          "durationTicks": 96,
          "midi": 64,
          "name": "E4",
          "ticks": 127008,
          "time": 208.8944235,
          "velocity": 0.3937007874015748
        },
        {
          "duration": 0.1578944999999976,
          "durationTicks": 96,
          "midi": 63,
          "name": "D#4",
          "ticks": 127104,
          "time": 209.05231799999999,
          "velocity": 0.3937007874015748
        },
        {
          "duration": 0.1578944999999976,
          "durationTicks": 96,
          "midi": 51,
          "name": "D#3",
          "ticks": 127104,
          "time": 209.05231799999999,
          "velocity": 0.3937007874015748
        },
        {
          "duration": 0.1578944999999976,
          "durationTicks": 96,
          "midi": 61,
          "name": "C#4",
          "ticks": 127200,
          "time": 209.21021249999998,
          "velocity": 0.3937007874015748
        },
        {
          "duration": 0.1578944999999976,
          "durationTicks": 96,
          "midi": 49,
          "name": "C#3",
          "ticks": 127200,
          "time": 209.21021249999998,
          "velocity": 0.3937007874015748
        },
        {
          "duration": 0.1578944999999976,
          "durationTicks": 96,
          "midi": 47,
          "name": "B2",
          "ticks": 127296,
          "time": 209.36810699999998,
          "velocity": 0.3937007874015748
        },
        {
          "duration": 0.1578944999999976,
          "durationTicks": 96,
          "midi": 59,
          "name": "B3",
          "ticks": 127296,
          "time": 209.36810699999998,
          "velocity": 0.3937007874015748
        },
        {
          "duration": 0.15789450000002603,
          "durationTicks": 96,
          "midi": 44,
          "name": "G#2",
          "ticks": 127392,
          "time": 209.52600149999998,
          "velocity": 0.3937007874015748
        },
        {
          "duration": 0.15789450000002603,
          "durationTicks": 96,
          "midi": 56,
          "name": "G#3",
          "ticks": 127392,
          "time": 209.52600149999998,
          "velocity": 0.3937007874015748
        },
        {
          "duration": 0.1578944999999976,
          "durationTicks": 96,
          "midi": 57,
          "name": "A3",
          "ticks": 127488,
          "time": 209.683896,
          "velocity": 0.3937007874015748
        },
        {
          "duration": 0.1578944999999976,
          "durationTicks": 96,
          "midi": 45,
          "name": "A2",
          "ticks": 127488,
          "time": 209.683896,
          "velocity": 0.3937007874015748
        },
        {
          "duration": 0.1578944999999976,
          "durationTicks": 96,
          "midi": 45,
          "name": "A2",
          "ticks": 127584,
          "time": 209.8417905,
          "velocity": 0.3937007874015748
        },
        {
          "duration": 0.1578944999999976,
          "durationTicks": 96,
          "midi": 57,
          "name": "A3",
          "ticks": 127584,
          "time": 209.8417905,
          "velocity": 0.3937007874015748
        },
        {
          "duration": 0.3157889999999952,
          "durationTicks": 192,
          "midi": 61,
          "name": "C#4",
          "ticks": 127680,
          "time": 209.999685,
          "velocity": 0.3937007874015748
        },
        {
          "duration": 0.3157889999999952,
          "durationTicks": 192,
          "midi": 73,
          "name": "C#5",
          "ticks": 127680,
          "time": 209.999685,
          "velocity": 0.3937007874015748
        },
        {
          "duration": 0.3157889999999952,
          "durationTicks": 192,
          "midi": 56,
          "name": "G#3",
          "ticks": 127872,
          "time": 210.315474,
          "velocity": 0.3937007874015748
        },
        {
          "duration": 0.3157889999999952,
          "durationTicks": 192,
          "midi": 68,
          "name": "G#4",
          "ticks": 127872,
          "time": 210.315474,
          "velocity": 0.3937007874015748
        },
        {
          "duration": 0.1578944999999976,
          "durationTicks": 96,
          "midi": 73,
          "name": "C#5",
          "ticks": 128064,
          "time": 210.631263,
          "velocity": 0.3937007874015748
        },
        {
          "duration": 0.1578944999999976,
          "durationTicks": 96,
          "midi": 61,
          "name": "C#4",
          "ticks": 128064,
          "time": 210.631263,
          "velocity": 0.3937007874015748
        },
        {
          "duration": 0.1578944999999976,
          "durationTicks": 96,
          "midi": 57,
          "name": "A3",
          "ticks": 128160,
          "time": 210.7891575,
          "velocity": 0.3937007874015748
        },
        {
          "duration": 0.1578944999999976,
          "durationTicks": 96,
          "midi": 69,
          "name": "A4",
          "ticks": 128160,
          "time": 210.7891575,
          "velocity": 0.3937007874015748
        },
        {
          "duration": 0.1578944999999976,
          "durationTicks": 96,
          "midi": 61,
          "name": "C#4",
          "ticks": 128256,
          "time": 210.94705199999999,
          "velocity": 0.3937007874015748
        },
        {
          "duration": 0.1578944999999976,
          "durationTicks": 96,
          "midi": 73,
          "name": "C#5",
          "ticks": 128256,
          "time": 210.94705199999999,
          "velocity": 0.3937007874015748
        },
        {
          "duration": 0.1578944999999976,
          "durationTicks": 96,
          "midi": 59,
          "name": "B3",
          "ticks": 128352,
          "time": 211.10494649999998,
          "velocity": 0.3937007874015748
        },
        {
          "duration": 0.1578944999999976,
          "durationTicks": 96,
          "midi": 71,
          "name": "B4",
          "ticks": 128352,
          "time": 211.10494649999998,
          "velocity": 0.3937007874015748
        },
        {
          "duration": 0.31578900000002363,
          "durationTicks": 192,
          "midi": 56,
          "name": "G#3",
          "ticks": 128448,
          "time": 211.26284099999998,
          "velocity": 0.3937007874015748
        },
        {
          "duration": 0.31578900000002363,
          "durationTicks": 192,
          "midi": 68,
          "name": "G#4",
          "ticks": 128448,
          "time": 211.26284099999998,
          "velocity": 0.3937007874015748
        },
        {
          "duration": 0.3157889999999952,
          "durationTicks": 192,
          "midi": 66,
          "name": "F#4",
          "ticks": 128640,
          "time": 211.57863,
          "velocity": 0.3937007874015748
        },
        {
          "duration": 0.3157889999999952,
          "durationTicks": 192,
          "midi": 54,
          "name": "F#3",
          "ticks": 128640,
          "time": 211.57863,
          "velocity": 0.3937007874015748
        },
        {
          "duration": 0.1578944999999976,
          "durationTicks": 96,
          "midi": 56,
          "name": "G#3",
          "ticks": 128832,
          "time": 211.894419,
          "velocity": 0.3937007874015748
        },
        {
          "duration": 0.1578944999999976,
          "durationTicks": 96,
          "midi": 68,
          "name": "G#4",
          "ticks": 128832,
          "time": 211.894419,
          "velocity": 0.3937007874015748
        },
        {
          "duration": 0.1578944999999976,
          "durationTicks": 96,
          "midi": 52,
          "name": "E3",
          "ticks": 128928,
          "time": 212.0523135,
          "velocity": 0.3937007874015748
        },
        {
          "duration": 0.1578944999999976,
          "durationTicks": 96,
          "midi": 64,
          "name": "E4",
          "ticks": 128928,
          "time": 212.0523135,
          "velocity": 0.3937007874015748
        },
        {
          "duration": 0.1578944999999976,
          "durationTicks": 96,
          "midi": 56,
          "name": "G#3",
          "ticks": 129024,
          "time": 212.210208,
          "velocity": 0.3937007874015748
        },
        {
          "duration": 0.1578944999999976,
          "durationTicks": 96,
          "midi": 44,
          "name": "G#2",
          "ticks": 129024,
          "time": 212.210208,
          "velocity": 0.3937007874015748
        },
        {
          "duration": 0.1578944999999976,
          "durationTicks": 96,
          "midi": 56,
          "name": "G#3",
          "ticks": 129120,
          "time": 212.3681025,
          "velocity": 0.3937007874015748
        },
        {
          "duration": 0.1578944999999976,
          "durationTicks": 96,
          "midi": 44,
          "name": "G#2",
          "ticks": 129120,
          "time": 212.3681025,
          "velocity": 0.3937007874015748
        },
        {
          "duration": 0.3157889999999952,
          "durationTicks": 192,
          "midi": 61,
          "name": "C#4",
          "ticks": 129216,
          "time": 212.525997,
          "velocity": 0.3937007874015748
        },
        {
          "duration": 0.3157889999999952,
          "durationTicks": 192,
          "midi": 73,
          "name": "C#5",
          "ticks": 129216,
          "time": 212.525997,
          "velocity": 0.3937007874015748
        },
        {
          "duration": 0.3157889999999952,
          "durationTicks": 192,
          "midi": 44,
          "name": "G#2",
          "ticks": 129408,
          "time": 212.84178599999998,
          "velocity": 0.3937007874015748
        },
        {
          "duration": 0.3157889999999952,
          "durationTicks": 192,
          "midi": 56,
          "name": "G#3",
          "ticks": 129408,
          "time": 212.84178599999998,
          "velocity": 0.3937007874015748
        },
        {
          "duration": 0.31578900000002363,
          "durationTicks": 192,
          "midi": 61,
          "name": "C#4",
          "ticks": 129600,
          "time": 213.15757499999998,
          "velocity": 0.3937007874015748
        },
        {
          "duration": 0.31578900000002363,
          "durationTicks": 192,
          "midi": 73,
          "name": "C#5",
          "ticks": 129600,
          "time": 213.15757499999998,
          "velocity": 0.3937007874015748
        },
        {
          "duration": 0.1578944999999976,
          "durationTicks": 96,
          "midi": 55,
          "name": "G3",
          "ticks": 129792,
          "time": 213.473364,
          "velocity": 0.3937007874015748
        },
        {
          "duration": 0.1578944999999976,
          "durationTicks": 96,
          "midi": 43,
          "name": "G2",
          "ticks": 129792,
          "time": 213.473364,
          "velocity": 0.3937007874015748
        },
        {
          "duration": 0.1578944999999976,
          "durationTicks": 96,
          "midi": 43,
          "name": "G2",
          "ticks": 129888,
          "time": 213.6312585,
          "velocity": 0.3937007874015748
        },
        {
          "duration": 0.1578944999999976,
          "durationTicks": 96,
          "midi": 55,
          "name": "G3",
          "ticks": 129888,
          "time": 213.6312585,
          "velocity": 0.3937007874015748
        },
        {
          "duration": 0.3157889999999952,
          "durationTicks": 192,
          "midi": 61,
          "name": "C#4",
          "ticks": 129984,
          "time": 213.789153,
          "velocity": 0.3937007874015748
        },
        {
          "duration": 0.3157889999999952,
          "durationTicks": 192,
          "midi": 73,
          "name": "C#5",
          "ticks": 129984,
          "time": 213.789153,
          "velocity": 0.3937007874015748
        },
        {
          "duration": 0.3157889999999952,
          "durationTicks": 192,
          "midi": 45,
          "name": "A2",
          "ticks": 130176,
          "time": 214.104942,
          "velocity": 0.3937007874015748
        },
        {
          "duration": 0.3157889999999952,
          "durationTicks": 192,
          "midi": 57,
          "name": "A3",
          "ticks": 130176,
          "time": 214.104942,
          "velocity": 0.3937007874015748
        },
        {
          "duration": 0.3157889999999952,
          "durationTicks": 192,
          "midi": 75,
          "name": "D#5",
          "ticks": 130368,
          "time": 214.420731,
          "velocity": 0.3937007874015748
        },
        {
          "duration": 0.3157889999999952,
          "durationTicks": 192,
          "midi": 63,
          "name": "D#4",
          "ticks": 130368,
          "time": 214.420731,
          "velocity": 0.3937007874015748
        },
        {
          "duration": 0.3157889999999952,
          "durationTicks": 192,
          "midi": 61,
          "name": "C#4",
          "ticks": 130560,
          "time": 214.73651999999998,
          "velocity": 0.3937007874015748
        },
        {
          "duration": 0.31578900000002363,
          "durationTicks": 192,
          "midi": 73,
          "name": "C#5",
          "ticks": 130752,
          "time": 215.05230899999998,
          "velocity": 0.3937007874015748
        },
        {
          "duration": 0.1578944999999976,
          "durationTicks": 96,
          "midi": 68,
          "name": "G#4",
          "ticks": 130944,
          "time": 215.368098,
          "velocity": 0.3937007874015748
        },
        {
          "duration": 0.3157889999999952,
          "durationTicks": 192,
          "midi": 67,
          "name": "G4",
          "ticks": 131232,
          "time": 215.8417815,
          "velocity": 0.3937007874015748
        },
        {
          "duration": 0.3157889999999952,
          "durationTicks": 192,
          "midi": 66,
          "name": "F#4",
          "ticks": 131520,
          "time": 216.315465,
          "velocity": 0.3937007874015748
        },
        {
          "duration": 0.1578944999999976,
          "durationTicks": 96,
          "midi": 64,
          "name": "E4",
          "ticks": 131712,
          "time": 216.63125399999998,
          "velocity": 0.3937007874015748
        },
        {
          "duration": 0.1578944999999976,
          "durationTicks": 96,
          "midi": 61,
          "name": "C#4",
          "ticks": 131808,
          "time": 216.78914849999998,
          "velocity": 0.3937007874015748
        },
        {
          "duration": 0.1578944999999976,
          "durationTicks": 96,
          "midi": 64,
          "name": "E4",
          "ticks": 131904,
          "time": 216.94704299999998,
          "velocity": 0.3937007874015748
        },
        {
          "duration": 0.15789450000002603,
          "durationTicks": 96,
          "midi": 66,
          "name": "F#4",
          "ticks": 132000,
          "time": 217.10493749999998,
          "velocity": 0.3937007874015748
        },
        {
          "duration": 0.3157889999999952,
          "durationTicks": 192,
          "midi": 59,
          "name": "B3",
          "ticks": 132096,
          "time": 217.262832,
          "velocity": 0.3937007874015748
        },
        {
          "duration": 0.3157889999999952,
          "durationTicks": 192,
          "midi": 73,
          "name": "C#5",
          "ticks": 132288,
          "time": 217.578621,
          "velocity": 0.3937007874015748
        },
        {
          "duration": 0.3157889999999952,
          "durationTicks": 192,
          "midi": 68,
          "name": "G#4",
          "ticks": 132480,
          "time": 217.89441,
          "velocity": 0.3937007874015748
        },
        {
          "duration": 0.3157889999999952,
          "durationTicks": 192,
          "midi": 66,
          "name": "F#4",
          "ticks": 132672,
          "time": 218.210199,
          "velocity": 0.3937007874015748
        },
        {
          "duration": 0.3157889999999952,
          "durationTicks": 192,
          "midi": 64,
          "name": "E4",
          "ticks": 132864,
          "time": 218.52598799999998,
          "velocity": 0.3937007874015748
        },
        {
          "duration": 0.1578944999999976,
          "durationTicks": 96,
          "midi": 63,
          "name": "D#4",
          "ticks": 133056,
          "time": 218.84177699999998,
          "velocity": 0.3937007874015748
        },
        {
          "duration": 0.15789450000002603,
          "durationTicks": 96,
          "midi": 64,
          "name": "E4",
          "ticks": 133152,
          "time": 218.99967149999998,
          "velocity": 0.3937007874015748
        },
        {
          "duration": 0.1578944999999976,
          "durationTicks": 96,
          "midi": 63,
          "name": "D#4",
          "ticks": 133248,
          "time": 219.157566,
          "velocity": 0.3937007874015748
        },
        {
          "duration": 0.1578944999999976,
          "durationTicks": 96,
          "midi": 61,
          "name": "C#4",
          "ticks": 133344,
          "time": 219.3154605,
          "velocity": 0.3937007874015748
        },
        {
          "duration": 0.1578944999999976,
          "durationTicks": 96,
          "midi": 59,
          "name": "B3",
          "ticks": 133440,
          "time": 219.473355,
          "velocity": 0.3937007874015748
        },
        {
          "duration": 0.1578944999999976,
          "durationTicks": 96,
          "midi": 56,
          "name": "G#3",
          "ticks": 133536,
          "time": 219.6312495,
          "velocity": 0.3937007874015748
        },
        {
          "duration": 0.1578944999999976,
          "durationTicks": 96,
          "midi": 57,
          "name": "A3",
          "ticks": 133632,
          "time": 219.789144,
          "velocity": 0.3937007874015748
        },
        {
          "duration": 0.1578944999999976,
          "durationTicks": 96,
          "midi": 57,
          "name": "A3",
          "ticks": 133728,
          "time": 219.9470385,
          "velocity": 0.3937007874015748
        },
        {
          "duration": 0.3157889999999952,
          "durationTicks": 192,
          "midi": 73,
          "name": "C#5",
          "ticks": 133824,
          "time": 220.104933,
          "velocity": 0.3937007874015748
        },
        {
          "duration": 0.3157889999999952,
          "durationTicks": 192,
          "midi": 68,
          "name": "G#4",
          "ticks": 134016,
          "time": 220.42072199999998,
          "velocity": 0.3937007874015748
        },
        {
          "duration": 0.1578944999999976,
          "durationTicks": 96,
          "midi": 73,
          "name": "C#5",
          "ticks": 134208,
          "time": 220.73651099999998,
          "velocity": 0.3937007874015748
        },
        {
          "duration": 0.15789450000002603,
          "durationTicks": 96,
          "midi": 69,
          "name": "A4",
          "ticks": 134304,
          "time": 220.89440549999998,
          "velocity": 0.3937007874015748
        },
        {
          "duration": 0.1578944999999976,
          "durationTicks": 96,
          "midi": 73,
          "name": "C#5",
          "ticks": 134400,
          "time": 221.0523,
          "velocity": 0.3937007874015748
        },
        {
          "duration": 0.1578944999999976,
          "durationTicks": 96,
          "midi": 71,
          "name": "B4",
          "ticks": 134496,
          "time": 221.2101945,
          "velocity": 0.3937007874015748
        },
        {
          "duration": 0.3157889999999952,
          "durationTicks": 192,
          "midi": 68,
          "name": "G#4",
          "ticks": 134592,
          "time": 221.368089,
          "velocity": 0.3937007874015748
        },
        {
          "duration": 0.3157889999999952,
          "durationTicks": 192,
          "midi": 66,
          "name": "F#4",
          "ticks": 134784,
          "time": 221.683878,
          "velocity": 0.3937007874015748
        },
        {
          "duration": 0.1578944999999976,
          "durationTicks": 96,
          "midi": 68,
          "name": "G#4",
          "ticks": 134976,
          "time": 221.999667,
          "velocity": 0.3937007874015748
        },
        {
          "duration": 0.1578944999999976,
          "durationTicks": 96,
          "midi": 64,
          "name": "E4",
          "ticks": 135072,
          "time": 222.15756149999999,
          "velocity": 0.3937007874015748
        },
        {
          "duration": 0.3157889999999952,
          "durationTicks": 192,
          "midi": 56,
          "name": "G#3",
          "ticks": 135168,
          "time": 222.31545599999998,
          "velocity": 0.3937007874015748
        },
        {
          "duration": 0.31578900000002363,
          "durationTicks": 192,
          "midi": 73,
          "name": "C#5",
          "ticks": 135360,
          "time": 222.63124499999998,
          "velocity": 0.3937007874015748
        },
        {
          "duration": 0.4736834999999928,
          "durationTicks": 288,
          "midi": 56,
          "name": "G#3",
          "ticks": 135552,
          "time": 222.947034,
          "velocity": 0.3937007874015748
        },
        {
          "duration": 0.4736834999999928,
          "durationTicks": 288,
          "midi": 73,
          "name": "C#5",
          "ticks": 135840,
          "time": 223.4207175,
          "velocity": 0.3937007874015748
        },
        {
          "duration": 0.6315779999999904,
          "durationTicks": 384,
          "midi": 55,
          "name": "G3",
          "ticks": 136128,
          "time": 223.894401,
          "velocity": 0.3937007874015748
        },
        {
          "duration": 0.6315780000000188,
          "durationTicks": 384,
          "midi": 73,
          "name": "C#5",
          "ticks": 136512,
          "time": 224.52597899999998,
          "velocity": 0.3937007874015748
        },
        {
          "duration": 0.789472499999988,
          "durationTicks": 480,
          "midi": 57,
          "name": "A3",
          "ticks": 136896,
          "time": 225.157557,
          "velocity": 0.3937007874015748
        },
        {
          "duration": 1.4210505000000069,
          "durationTicks": 864,
          "midi": 75,
          "name": "D#5",
          "ticks": 137376,
          "time": 225.94702949999999,
          "velocity": 0.3937007874015748
        }
      ],
      "endOfTrackTicks": 138240
    },
    {
      "channel": 1,
      "controlChanges": {},
      "pitchBends": [],
      "instrument": {
        "family": "bass",
        "number": 32,
        "name": "acoustic bass"
      },
      "name": "Bass (Classic)",
      "notes": [
        {
          "duration": 2.3684174999999996,
          "durationTicks": 1440,
          "midi": 45,
          "name": "A2",
          "ticks": 33792,
          "time": 55.578863999999996,
          "velocity": 0.3937007874015748
        },
        {
          "duration": 1.263155999999995,
          "durationTicks": 768,
          "midi": 44,
          "name": "G#2",
          "ticks": 35328,
          "time": 58.105176,
          "velocity": 0.3937007874015748
        },
        {
          "duration": 1.2631560000000022,
          "durationTicks": 768,
          "midi": 43,
          "name": "G2",
          "ticks": 36096,
          "time": 59.368331999999995,
          "velocity": 0.3937007874015748
        },
        {
          "duration": 1.2631560000000022,
          "durationTicks": 768,
          "midi": 45,
          "name": "A2",
          "ticks": 36864,
          "time": 60.631488,
          "velocity": 0.3937007874015748
        },
        {
          "duration": 0.6315779999999975,
          "durationTicks": 384,
          "midi": 45,
          "name": "A2",
          "ticks": 37632,
          "time": 61.894644,
          "velocity": 0.3937007874015748
        },
        {
          "duration": 0.6315779999999975,
          "durationTicks": 384,
          "midi": 47,
          "name": "B2",
          "ticks": 38016,
          "time": 62.526222,
          "velocity": 0.3937007874015748
        },
        {
          "duration": 1.2631560000000093,
          "durationTicks": 768,
          "midi": 47,
          "name": "B2",
          "ticks": 38400,
          "time": 63.157799999999995,
          "velocity": 0.3937007874015748
        },
        {
          "duration": 0.9473669999999998,
          "durationTicks": 576,
          "midi": 45,
          "name": "A2",
          "ticks": 39168,
          "time": 64.420956,
          "velocity": 0.3937007874015748
        },
        {
          "duration": 0.3157889999999952,
          "durationTicks": 192,
          "midi": 47,
          "name": "B2",
          "ticks": 39744,
          "time": 65.368323,
          "velocity": 0.3937007874015748
        },
        {
          "duration": 1.736839500000002,
          "durationTicks": 1056,
          "midi": 45,
          "name": "A2",
          "ticks": 39936,
          "time": 65.684112,
          "velocity": 0.3937007874015748
        },
        {
          "duration": 0.3157889999999952,
          "durationTicks": 192,
          "midi": 45,
          "name": "A2",
          "ticks": 41088,
          "time": 67.578846,
          "velocity": 0.3937007874015748
        },
        {
          "duration": 0.3157890000000094,
          "durationTicks": 192,
          "midi": 45,
          "name": "A2",
          "ticks": 41280,
          "time": 67.894635,
          "velocity": 0.3937007874015748
        },
        {
          "duration": 0.6315779999999904,
          "durationTicks": 384,
          "midi": 44,
          "name": "G#2",
          "ticks": 41472,
          "time": 68.210424,
          "velocity": 0.3937007874015748
        },
        {
          "duration": 0.6315780000000046,
          "durationTicks": 384,
          "midi": 44,
          "name": "G#2",
          "ticks": 41856,
          "time": 68.842002,
          "velocity": 0.3937007874015748
        },
        {
          "duration": 0.6315780000000046,
          "durationTicks": 384,
          "midi": 43,
          "name": "G2",
          "ticks": 42240,
          "time": 69.47358,
          "velocity": 0.3937007874015748
        },
        {
          "duration": 0.6315779999999904,
          "durationTicks": 384,
          "midi": 45,
          "name": "A2",
          "ticks": 42624,
          "time": 70.105158,
          "velocity": 0.3937007874015748
        },
        {
          "duration": 0.47368350000000703,
          "durationTicks": 288,
          "midi": 25,
          "name": "C#1",
          "ticks": 49152,
          "time": 80.841984,
          "velocity": 0.3937007874015748
        },
        {
          "duration": 0.47368350000000703,
          "durationTicks": 288,
          "midi": 37,
          "name": "C#2",
          "ticks": 49152,
          "time": 80.841984,
          "velocity": 0.3937007874015748
        },
        {
          "duration": 0.1578944999999976,
          "durationTicks": 96,
          "midi": 37,
          "name": "C#2",
          "ticks": 49440,
          "time": 81.3156675,
          "velocity": 0.3937007874015748
        },
        {
          "duration": 0.1578944999999976,
          "durationTicks": 96,
          "midi": 25,
          "name": "C#1",
          "ticks": 49440,
          "time": 81.3156675,
          "velocity": 0.3937007874015748
        },
        {
          "duration": 0.3157889999999952,
          "durationTicks": 192,
          "midi": 25,
          "name": "C#1",
          "ticks": 49536,
          "time": 81.473562,
          "velocity": 0.3937007874015748
        },
        {
          "duration": 0.3157889999999952,
          "durationTicks": 192,
          "midi": 37,
          "name": "C#2",
          "ticks": 49536,
          "time": 81.473562,
          "velocity": 0.3937007874015748
        },
        {
          "duration": 0.1578944999999976,
          "durationTicks": 96,
          "midi": 25,
          "name": "C#1",
          "ticks": 49728,
          "time": 81.789351,
          "velocity": 0.3937007874015748
        },
        {
          "duration": 0.1578944999999976,
          "durationTicks": 96,
          "midi": 37,
          "name": "C#2",
          "ticks": 49728,
          "time": 81.789351,
          "velocity": 0.3937007874015748
        },
        {
          "duration": 0.1578944999999976,
          "durationTicks": 96,
          "midi": 25,
          "name": "C#1",
          "ticks": 49824,
          "time": 81.9472455,
          "velocity": 0.3937007874015748
        },
        {
          "duration": 0.1578944999999976,
          "durationTicks": 96,
          "midi": 37,
          "name": "C#2",
          "ticks": 49824,
          "time": 81.9472455,
          "velocity": 0.3937007874015748
        },
        {
          "duration": 0.15789450000001182,
          "durationTicks": 96,
          "midi": 25,
          "name": "C#1",
          "ticks": 49920,
          "time": 82.10513999999999,
          "velocity": 0.3937007874015748
        },
        {
          "duration": 0.15789450000001182,
          "durationTicks": 96,
          "midi": 37,
          "name": "C#2",
          "ticks": 49920,
          "time": 82.10513999999999,
          "velocity": 0.3937007874015748
        },
        {
          "duration": 0.1578944999999976,
          "durationTicks": 96,
          "midi": 37,
          "name": "C#2",
          "ticks": 50016,
          "time": 82.2630345,
          "velocity": 0.3937007874015748
        },
        {
          "duration": 0.1578944999999976,
          "durationTicks": 96,
          "midi": 25,
          "name": "C#1",
          "ticks": 50016,
          "time": 82.2630345,
          "velocity": 0.3937007874015748
        },
        {
          "duration": 0.1578944999999976,
          "durationTicks": 96,
          "midi": 25,
          "name": "C#1",
          "ticks": 50112,
          "time": 82.420929,
          "velocity": 0.3937007874015748
        },
        {
          "duration": 0.1578944999999976,
          "durationTicks": 96,
          "midi": 37,
          "name": "C#2",
          "ticks": 50112,
          "time": 82.420929,
          "velocity": 0.3937007874015748
        },
        {
          "duration": 0.1578944999999976,
          "durationTicks": 96,
          "midi": 37,
          "name": "C#2",
          "ticks": 50208,
          "time": 82.5788235,
          "velocity": 0.3937007874015748
        },
        {
          "duration": 0.1578944999999976,
          "durationTicks": 96,
          "midi": 25,
          "name": "C#1",
          "ticks": 50208,
          "time": 82.5788235,
          "velocity": 0.3937007874015748
        },
        {
          "duration": 0.3157889999999952,
          "durationTicks": 192,
          "midi": 25,
          "name": "C#1",
          "ticks": 50304,
          "time": 82.736718,
          "velocity": 0.3937007874015748
        },
        {
          "duration": 0.3157889999999952,
          "durationTicks": 192,
          "midi": 37,
          "name": "C#2",
          "ticks": 50304,
          "time": 82.736718,
          "velocity": 0.3937007874015748
        },
        {
          "duration": 0.15789450000001182,
          "durationTicks": 96,
          "midi": 25,
          "name": "C#1",
          "ticks": 50496,
          "time": 83.05250699999999,
          "velocity": 0.3937007874015748
        },
        {
          "duration": 0.15789450000001182,
          "durationTicks": 96,
          "midi": 37,
          "name": "C#2",
          "ticks": 50496,
          "time": 83.05250699999999,
          "velocity": 0.3937007874015748
        },
        {
          "duration": 0.1578944999999976,
          "durationTicks": 96,
          "midi": 37,
          "name": "C#2",
          "ticks": 50592,
          "time": 83.2104015,
          "velocity": 0.3937007874015748
        },
        {
          "duration": 0.1578944999999976,
          "durationTicks": 96,
          "midi": 25,
          "name": "C#1",
          "ticks": 50592,
          "time": 83.2104015,
          "velocity": 0.3937007874015748
        },
        {
          "duration": 0.4736834999999928,
          "durationTicks": 288,
          "midi": 35,
          "name": "B1",
          "ticks": 50688,
          "time": 83.368296,
          "velocity": 0.3937007874015748
        },
        {
          "duration": 0.4736834999999928,
          "durationTicks": 288,
          "midi": 35,
          "name": "B1",
          "ticks": 50688,
          "time": 83.368296,
          "velocity": 0.3937007874015748
        },
        {
          "duration": 0.1578944999999976,
          "durationTicks": 96,
          "midi": 35,
          "name": "B1",
          "ticks": 50976,
          "time": 83.8419795,
          "velocity": 0.3937007874015748
        },
        {
          "duration": 0.1578944999999976,
          "durationTicks": 96,
          "midi": 35,
          "name": "B1",
          "ticks": 50976,
          "time": 83.8419795,
          "velocity": 0.3937007874015748
        },
        {
          "duration": 0.3157890000000094,
          "durationTicks": 192,
          "midi": 35,
          "name": "B1",
          "ticks": 51072,
          "time": 83.99987399999999,
          "velocity": 0.3937007874015748
        },
        {
          "duration": 0.3157890000000094,
          "durationTicks": 192,
          "midi": 35,
          "name": "B1",
          "ticks": 51072,
          "time": 83.99987399999999,
          "velocity": 0.3937007874015748
        },
        {
          "duration": 0.1578944999999976,
          "durationTicks": 96,
          "midi": 35,
          "name": "B1",
          "ticks": 51264,
          "time": 84.315663,
          "velocity": 0.3937007874015748
        },
        {
          "duration": 0.1578944999999976,
          "durationTicks": 96,
          "midi": 35,
          "name": "B1",
          "ticks": 51264,
          "time": 84.315663,
          "velocity": 0.3937007874015748
        },
        {
          "duration": 0.1578944999999976,
          "durationTicks": 96,
          "midi": 35,
          "name": "B1",
          "ticks": 51360,
          "time": 84.4735575,
          "velocity": 0.3937007874015748
        },
        {
          "duration": 0.1578944999999976,
          "durationTicks": 96,
          "midi": 35,
          "name": "B1",
          "ticks": 51360,
          "time": 84.4735575,
          "velocity": 0.3937007874015748
        },
        {
          "duration": 0.1578944999999976,
          "durationTicks": 96,
          "midi": 35,
          "name": "B1",
          "ticks": 51456,
          "time": 84.631452,
          "velocity": 0.3937007874015748
        },
        {
          "duration": 0.1578944999999976,
          "durationTicks": 96,
          "midi": 35,
          "name": "B1",
          "ticks": 51456,
          "time": 84.631452,
          "velocity": 0.3937007874015748
        },
        {
          "duration": 0.1578944999999976,
          "durationTicks": 96,
          "midi": 35,
          "name": "B1",
          "ticks": 51552,
          "time": 84.7893465,
          "velocity": 0.3937007874015748
        },
        {
          "duration": 0.1578944999999976,
          "durationTicks": 96,
          "midi": 35,
          "name": "B1",
          "ticks": 51552,
          "time": 84.7893465,
          "velocity": 0.3937007874015748
        },
        {
          "duration": 0.15789450000001182,
          "durationTicks": 96,
          "midi": 35,
          "name": "B1",
          "ticks": 51648,
          "time": 84.94724099999999,
          "velocity": 0.3937007874015748
        },
        {
          "duration": 0.15789450000001182,
          "durationTicks": 96,
          "midi": 35,
          "name": "B1",
          "ticks": 51648,
          "time": 84.94724099999999,
          "velocity": 0.3937007874015748
        },
        {
          "duration": 0.1578944999999976,
          "durationTicks": 96,
          "midi": 35,
          "name": "B1",
          "ticks": 51744,
          "time": 85.1051355,
          "velocity": 0.3937007874015748
        },
        {
          "duration": 0.1578944999999976,
          "durationTicks": 96,
          "midi": 35,
          "name": "B1",
          "ticks": 51744,
          "time": 85.1051355,
          "velocity": 0.3937007874015748
        },
        {
          "duration": 0.3157889999999952,
          "durationTicks": 192,
          "midi": 35,
          "name": "B1",
          "ticks": 51840,
          "time": 85.26303,
          "velocity": 0.3937007874015748
        },
        {
          "duration": 0.3157889999999952,
          "durationTicks": 192,
          "midi": 35,
          "name": "B1",
          "ticks": 51840,
          "time": 85.26303,
          "velocity": 0.3937007874015748
        },
        {
          "duration": 0.1578944999999976,
          "durationTicks": 96,
          "midi": 35,
          "name": "B1",
          "ticks": 52032,
          "time": 85.578819,
          "velocity": 0.3937007874015748
        },
        {
          "duration": 0.1578944999999976,
          "durationTicks": 96,
          "midi": 35,
          "name": "B1",
          "ticks": 52032,
          "time": 85.578819,
          "velocity": 0.3937007874015748
        },
        {
          "duration": 0.1578944999999976,
          "durationTicks": 96,
          "midi": 35,
          "name": "B1",
          "ticks": 52128,
          "time": 85.7367135,
          "velocity": 0.3937007874015748
        },
        {
          "duration": 0.1578944999999976,
          "durationTicks": 96,
          "midi": 35,
          "name": "B1",
          "ticks": 52128,
          "time": 85.7367135,
          "velocity": 0.3937007874015748
        },
        {
          "duration": 0.47368350000000703,
          "durationTicks": 288,
          "midi": 33,
          "name": "A1",
          "ticks": 52224,
          "time": 85.89460799999999,
          "velocity": 0.3937007874015748
        },
        {
          "duration": 0.47368350000000703,
          "durationTicks": 288,
          "midi": 33,
          "name": "A1",
          "ticks": 52224,
          "time": 85.89460799999999,
          "velocity": 0.3937007874015748
        },
        {
          "duration": 0.1578944999999976,
          "durationTicks": 96,
          "midi": 33,
          "name": "A1",
          "ticks": 52512,
          "time": 86.3682915,
          "velocity": 0.3937007874015748
        },
        {
          "duration": 0.1578944999999976,
          "durationTicks": 96,
          "midi": 33,
          "name": "A1",
          "ticks": 52512,
          "time": 86.3682915,
          "velocity": 0.3937007874015748
        },
        {
          "duration": 0.3157889999999952,
          "durationTicks": 192,
          "midi": 33,
          "name": "A1",
          "ticks": 52608,
          "time": 86.526186,
          "velocity": 0.3937007874015748
        },
        {
          "duration": 0.3157889999999952,
          "durationTicks": 192,
          "midi": 33,
          "name": "A1",
          "ticks": 52608,
          "time": 86.526186,
          "velocity": 0.3937007874015748
        },
        {
          "duration": 0.15789450000001182,
          "durationTicks": 96,
          "midi": 33,
          "name": "A1",
          "ticks": 52800,
          "time": 86.84197499999999,
          "velocity": 0.3937007874015748
        },
        {
          "duration": 0.15789450000001182,
          "durationTicks": 96,
          "midi": 33,
          "name": "A1",
          "ticks": 52800,
          "time": 86.84197499999999,
          "velocity": 0.3937007874015748
        },
        {
          "duration": 0.1578944999999976,
          "durationTicks": 96,
          "midi": 33,
          "name": "A1",
          "ticks": 52896,
          "time": 86.9998695,
          "velocity": 0.3937007874015748
        },
        {
          "duration": 0.1578944999999976,
          "durationTicks": 96,
          "midi": 33,
          "name": "A1",
          "ticks": 52896,
          "time": 86.9998695,
          "velocity": 0.3937007874015748
        },
        {
          "duration": 0.1578944999999976,
          "durationTicks": 96,
          "midi": 33,
          "name": "A1",
          "ticks": 52992,
          "time": 87.157764,
          "velocity": 0.3937007874015748
        },
        {
          "duration": 0.1578944999999976,
          "durationTicks": 96,
          "midi": 33,
          "name": "A1",
          "ticks": 52992,
          "time": 87.157764,
          "velocity": 0.3937007874015748
        },
        {
          "duration": 0.1578944999999976,
          "durationTicks": 96,
          "midi": 33,
          "name": "A1",
          "ticks": 53088,
          "time": 87.3156585,
          "velocity": 0.3937007874015748
        },
        {
          "duration": 0.1578944999999976,
          "durationTicks": 96,
          "midi": 33,
          "name": "A1",
          "ticks": 53088,
          "time": 87.3156585,
          "velocity": 0.3937007874015748
        },
        {
          "duration": 0.1578944999999976,
          "durationTicks": 96,
          "midi": 33,
          "name": "A1",
          "ticks": 53184,
          "time": 87.473553,
          "velocity": 0.3937007874015748
        },
        {
          "duration": 0.1578944999999976,
          "durationTicks": 96,
          "midi": 33,
          "name": "A1",
          "ticks": 53184,
          "time": 87.473553,
          "velocity": 0.3937007874015748
        },
        {
          "duration": 0.1578944999999976,
          "durationTicks": 96,
          "midi": 33,
          "name": "A1",
          "ticks": 53280,
          "time": 87.6314475,
          "velocity": 0.3937007874015748
        },
        {
          "duration": 0.1578944999999976,
          "durationTicks": 96,
          "midi": 33,
          "name": "A1",
          "ticks": 53280,
          "time": 87.6314475,
          "velocity": 0.3937007874015748
        },
        {
          "duration": 0.3157890000000094,
          "durationTicks": 192,
          "midi": 33,
          "name": "A1",
          "ticks": 53376,
          "time": 87.78934199999999,
          "velocity": 0.3937007874015748
        },
        {
          "duration": 0.3157890000000094,
          "durationTicks": 192,
          "midi": 33,
          "name": "A1",
          "ticks": 53376,
          "time": 87.78934199999999,
          "velocity": 0.3937007874015748
        },
        {
          "duration": 0.1578944999999976,
          "durationTicks": 96,
          "midi": 33,
          "name": "A1",
          "ticks": 53568,
          "time": 88.105131,
          "velocity": 0.3937007874015748
        },
        {
          "duration": 0.1578944999999976,
          "durationTicks": 96,
          "midi": 33,
          "name": "A1",
          "ticks": 53568,
          "time": 88.105131,
          "velocity": 0.3937007874015748
        },
        {
          "duration": 0.1578944999999976,
          "durationTicks": 96,
          "midi": 33,
          "name": "A1",
          "ticks": 53664,
          "time": 88.2630255,
          "velocity": 0.3937007874015748
        },
        {
          "duration": 0.1578944999999976,
          "durationTicks": 96,
          "midi": 33,
          "name": "A1",
          "ticks": 53664,
          "time": 88.2630255,
          "velocity": 0.3937007874015748
        },
        {
          "duration": 0.1578944999999976,
          "durationTicks": 96,
          "midi": 32,
          "name": "G#1",
          "ticks": 53760,
          "time": 88.42092,
          "velocity": 0.3937007874015748
        },
        {
          "duration": 0.47368350000000703,
          "durationTicks": 288,
          "midi": 32,
          "name": "G#1",
          "ticks": 53760,
          "time": 88.42092,
          "velocity": 0.3937007874015748
        },
        {
          "duration": 0.1578944999999976,
          "durationTicks": 96,
          "midi": 32,
          "name": "G#1",
          "ticks": 54048,
          "time": 88.8946035,
          "velocity": 0.3937007874015748
        },
        {
          "duration": 0.1578944999999976,
          "durationTicks": 96,
          "midi": 32,
          "name": "G#1",
          "ticks": 54048,
          "time": 88.8946035,
          "velocity": 0.3937007874015748
        },
        {
          "duration": 0.1578944999999976,
          "durationTicks": 96,
          "midi": 32,
          "name": "G#1",
          "ticks": 54144,
          "time": 89.052498,
          "velocity": 0.3937007874015748
        },
        {
          "duration": 0.3157889999999952,
          "durationTicks": 192,
          "midi": 32,
          "name": "G#1",
          "ticks": 54144,
          "time": 89.052498,
          "velocity": 0.3937007874015748
        },
        {
          "duration": 0.1578944999999976,
          "durationTicks": 96,
          "midi": 32,
          "name": "G#1",
          "ticks": 54336,
          "time": 89.368287,
          "velocity": 0.3937007874015748
        },
        {
          "duration": 0.1578944999999976,
          "durationTicks": 96,
          "midi": 32,
          "name": "G#1",
          "ticks": 54336,
          "time": 89.368287,
          "velocity": 0.3937007874015748
        },
        {
          "duration": 0.1578944999999976,
          "durationTicks": 96,
          "midi": 32,
          "name": "G#1",
          "ticks": 54432,
          "time": 89.52618149999999,
          "velocity": 0.3937007874015748
        },
        {
          "duration": 0.1578944999999976,
          "durationTicks": 96,
          "midi": 32,
          "name": "G#1",
          "ticks": 54432,
          "time": 89.52618149999999,
          "velocity": 0.3937007874015748
        },
        {
          "duration": 0.15789450000001182,
          "durationTicks": 96,
          "midi": 32,
          "name": "G#1",
          "ticks": 54528,
          "time": 89.68407599999999,
          "velocity": 0.3937007874015748
        },
        {
          "duration": 0.15789450000001182,
          "durationTicks": 96,
          "midi": 32,
          "name": "G#1",
          "ticks": 54528,
          "time": 89.68407599999999,
          "velocity": 0.3937007874015748
        },
        {
          "duration": 0.1578944999999976,
          "durationTicks": 96,
          "midi": 32,
          "name": "G#1",
          "ticks": 54624,
          "time": 89.8419705,
          "velocity": 0.3937007874015748
        },
        {
          "duration": 0.1578944999999976,
          "durationTicks": 96,
          "midi": 32,
          "name": "G#1",
          "ticks": 54624,
          "time": 89.8419705,
          "velocity": 0.3937007874015748
        },
        {
          "duration": 0.1578944999999976,
          "durationTicks": 96,
          "midi": 32,
          "name": "G#1",
          "ticks": 54720,
          "time": 89.999865,
          "velocity": 0.3937007874015748
        },
        {
          "duration": 0.1578944999999976,
          "durationTicks": 96,
          "midi": 32,
          "name": "G#1",
          "ticks": 54720,
          "time": 89.999865,
          "velocity": 0.3937007874015748
        },
        {
          "duration": 0.1578944999999976,
          "durationTicks": 96,
          "midi": 32,
          "name": "G#1",
          "ticks": 54816,
          "time": 90.1577595,
          "velocity": 0.3937007874015748
        },
        {
          "duration": 0.1578944999999976,
          "durationTicks": 96,
          "midi": 32,
          "name": "G#1",
          "ticks": 54816,
          "time": 90.1577595,
          "velocity": 0.3937007874015748
        },
        {
          "duration": 0.3157889999999952,
          "durationTicks": 192,
          "midi": 32,
          "name": "G#1",
          "ticks": 54912,
          "time": 90.315654,
          "velocity": 0.3937007874015748
        },
        {
          "duration": 0.3157889999999952,
          "durationTicks": 192,
          "midi": 32,
          "name": "G#1",
          "ticks": 54912,
          "time": 90.315654,
          "velocity": 0.3937007874015748
        },
        {
          "duration": 0.15789450000001182,
          "durationTicks": 96,
          "midi": 32,
          "name": "G#1",
          "ticks": 55104,
          "time": 90.63144299999999,
          "velocity": 0.3937007874015748
        },
        {
          "duration": 0.15789450000001182,
          "durationTicks": 96,
          "midi": 32,
          "name": "G#1",
          "ticks": 55104,
          "time": 90.63144299999999,
          "velocity": 0.3937007874015748
        },
        {
          "duration": 0.1578944999999976,
          "durationTicks": 96,
          "midi": 32,
          "name": "G#1",
          "ticks": 55200,
          "time": 90.7893375,
          "velocity": 0.3937007874015748
        },
        {
          "duration": 0.1578944999999976,
          "durationTicks": 96,
          "midi": 32,
          "name": "G#1",
          "ticks": 55200,
          "time": 90.7893375,
          "velocity": 0.3937007874015748
        },
        {
          "duration": 0.4736834999999928,
          "durationTicks": 288,
          "midi": 25,
          "name": "C#1",
          "ticks": 55296,
          "time": 90.947232,
          "velocity": 0.3937007874015748
        },
        {
          "duration": 0.4736834999999928,
          "durationTicks": 288,
          "midi": 37,
          "name": "C#2",
          "ticks": 55296,
          "time": 90.947232,
          "velocity": 0.3937007874015748
        },
        {
          "duration": 0.1578944999999976,
          "durationTicks": 96,
          "midi": 25,
          "name": "C#1",
          "ticks": 55584,
          "time": 91.42091549999999,
          "velocity": 0.3937007874015748
        },
        {
          "duration": 0.1578944999999976,
          "durationTicks": 96,
          "midi": 37,
          "name": "C#2",
          "ticks": 55584,
          "time": 91.42091549999999,
          "velocity": 0.3937007874015748
        },
        {
          "duration": 0.3157890000000094,
          "durationTicks": 192,
          "midi": 37,
          "name": "C#2",
          "ticks": 55680,
          "time": 91.57880999999999,
          "velocity": 0.3937007874015748
        },
        {
          "duration": 0.3157890000000094,
          "durationTicks": 192,
          "midi": 25,
          "name": "C#1",
          "ticks": 55680,
          "time": 91.57880999999999,
          "velocity": 0.3937007874015748
        },
        {
          "duration": 0.1578944999999976,
          "durationTicks": 96,
          "midi": 25,
          "name": "C#1",
          "ticks": 55872,
          "time": 91.894599,
          "velocity": 0.3937007874015748
        },
        {
          "duration": 0.1578944999999976,
          "durationTicks": 96,
          "midi": 37,
          "name": "C#2",
          "ticks": 55872,
          "time": 91.894599,
          "velocity": 0.3937007874015748
        },
        {
          "duration": 0.1578944999999976,
          "durationTicks": 96,
          "midi": 25,
          "name": "C#1",
          "ticks": 55968,
          "time": 92.0524935,
          "velocity": 0.3937007874015748
        },
        {
          "duration": 0.1578944999999976,
          "durationTicks": 96,
          "midi": 37,
          "name": "C#2",
          "ticks": 55968,
          "time": 92.0524935,
          "velocity": 0.3937007874015748
        },
        {
          "duration": 0.1578944999999976,
          "durationTicks": 96,
          "midi": 37,
          "name": "C#2",
          "ticks": 56064,
          "time": 92.210388,
          "velocity": 0.3937007874015748
        },
        {
          "duration": 0.1578944999999976,
          "durationTicks": 96,
          "midi": 25,
          "name": "C#1",
          "ticks": 56064,
          "time": 92.210388,
          "velocity": 0.3937007874015748
        },
        {
          "duration": 0.1578944999999976,
          "durationTicks": 96,
          "midi": 25,
          "name": "C#1",
          "ticks": 56160,
          "time": 92.36828249999999,
          "velocity": 0.3937007874015748
        },
        {
          "duration": 0.1578944999999976,
          "durationTicks": 96,
          "midi": 37,
          "name": "C#2",
          "ticks": 56160,
          "time": 92.36828249999999,
          "velocity": 0.3937007874015748
        },
        {
          "duration": 0.15789450000001182,
          "durationTicks": 96,
          "midi": 25,
          "name": "C#1",
          "ticks": 56256,
          "time": 92.52617699999999,
          "velocity": 0.3937007874015748
        },
        {
          "duration": 0.15789450000001182,
          "durationTicks": 96,
          "midi": 37,
          "name": "C#2",
          "ticks": 56256,
          "time": 92.52617699999999,
          "velocity": 0.3937007874015748
        },
        {
          "duration": 0.1578944999999976,
          "durationTicks": 96,
          "midi": 25,
          "name": "C#1",
          "ticks": 56352,
          "time": 92.6840715,
          "velocity": 0.3937007874015748
        },
        {
          "duration": 0.1578944999999976,
          "durationTicks": 96,
          "midi": 37,
          "name": "C#2",
          "ticks": 56352,
          "time": 92.6840715,
          "velocity": 0.3937007874015748
        },
        {
          "duration": 0.3157889999999952,
          "durationTicks": 192,
          "midi": 25,
          "name": "C#1",
          "ticks": 56448,
          "time": 92.841966,
          "velocity": 0.3937007874015748
        },
        {
          "duration": 0.3157889999999952,
          "durationTicks": 192,
          "midi": 37,
          "name": "C#2",
          "ticks": 56448,
          "time": 92.841966,
          "velocity": 0.3937007874015748
        },
        {
          "duration": 0.1578944999999976,
          "durationTicks": 96,
          "midi": 37,
          "name": "C#2",
          "ticks": 56640,
          "time": 93.157755,
          "velocity": 0.3937007874015748
        },
        {
          "duration": 0.1578944999999976,
          "durationTicks": 96,
          "midi": 25,
          "name": "C#1",
          "ticks": 56640,
          "time": 93.157755,
          "velocity": 0.3937007874015748
        },
        {
          "duration": 0.1578944999999976,
          "durationTicks": 96,
          "midi": 25,
          "name": "C#1",
          "ticks": 56736,
          "time": 93.31564949999999,
          "velocity": 0.3937007874015748
        },
        {
          "duration": 0.1578944999999976,
          "durationTicks": 96,
          "midi": 37,
          "name": "C#2",
          "ticks": 56736,
          "time": 93.31564949999999,
          "velocity": 0.3937007874015748
        },
        {
          "duration": 0.47368350000000703,
          "durationTicks": 288,
          "midi": 35,
          "name": "B1",
          "ticks": 56832,
          "time": 93.47354399999999,
          "velocity": 0.3937007874015748
        },
        {
          "duration": 0.47368350000000703,
          "durationTicks": 288,
          "midi": 35,
          "name": "B1",
          "ticks": 56832,
          "time": 93.47354399999999,
          "velocity": 0.3937007874015748
        },
        {
          "duration": 0.1578944999999976,
          "durationTicks": 96,
          "midi": 35,
          "name": "B1",
          "ticks": 57120,
          "time": 93.9472275,
          "velocity": 0.3937007874015748
        },
        {
          "duration": 0.1578944999999976,
          "durationTicks": 96,
          "midi": 35,
          "name": "B1",
          "ticks": 57120,
          "time": 93.9472275,
          "velocity": 0.3937007874015748
        },
        {
          "duration": 0.3157889999999952,
          "durationTicks": 192,
          "midi": 35,
          "name": "B1",
          "ticks": 57216,
          "time": 94.105122,
          "velocity": 0.3937007874015748
        },
        {
          "duration": 0.3157889999999952,
          "durationTicks": 192,
          "midi": 35,
          "name": "B1",
          "ticks": 57216,
          "time": 94.105122,
          "velocity": 0.3937007874015748
        },
        {
          "duration": 0.15789450000001182,
          "durationTicks": 96,
          "midi": 35,
          "name": "B1",
          "ticks": 57408,
          "time": 94.42091099999999,
          "velocity": 0.3937007874015748
        },
        {
          "duration": 0.15789450000001182,
          "durationTicks": 96,
          "midi": 35,
          "name": "B1",
          "ticks": 57408,
          "time": 94.42091099999999,
          "velocity": 0.3937007874015748
        },
        {
          "duration": 0.1578944999999976,
          "durationTicks": 96,
          "midi": 35,
          "name": "B1",
          "ticks": 57504,
          "time": 94.5788055,
          "velocity": 0.3937007874015748
        },
        {
          "duration": 0.1578944999999976,
          "durationTicks": 96,
          "midi": 35,
          "name": "B1",
          "ticks": 57504,
          "time": 94.5788055,
          "velocity": 0.3937007874015748
        },
        {
          "duration": 0.1578944999999976,
          "durationTicks": 96,
          "midi": 35,
          "name": "B1",
          "ticks": 57600,
          "time": 94.7367,
          "velocity": 0.3937007874015748
        },
        {
          "duration": 0.1578944999999976,
          "durationTicks": 96,
          "midi": 35,
          "name": "B1",
          "ticks": 57600,
          "time": 94.7367,
          "velocity": 0.3937007874015748
        },
        {
          "duration": 0.1578944999999976,
          "durationTicks": 96,
          "midi": 35,
          "name": "B1",
          "ticks": 57696,
          "time": 94.8945945,
          "velocity": 0.3937007874015748
        },
        {
          "duration": 0.1578944999999976,
          "durationTicks": 96,
          "midi": 35,
          "name": "B1",
          "ticks": 57696,
          "time": 94.8945945,
          "velocity": 0.3937007874015748
        },
        {
          "duration": 0.1578944999999976,
          "durationTicks": 96,
          "midi": 35,
          "name": "B1",
          "ticks": 57792,
          "time": 95.052489,
          "velocity": 0.3937007874015748
        },
        {
          "duration": 0.1578944999999976,
          "durationTicks": 96,
          "midi": 35,
          "name": "B1",
          "ticks": 57792,
          "time": 95.052489,
          "velocity": 0.3937007874015748
        },
        {
          "duration": 0.1578944999999976,
          "durationTicks": 96,
          "midi": 35,
          "name": "B1",
          "ticks": 57888,
          "time": 95.21038349999999,
          "velocity": 0.3937007874015748
        },
        {
          "duration": 0.1578944999999976,
          "durationTicks": 96,
          "midi": 35,
          "name": "B1",
          "ticks": 57888,
          "time": 95.21038349999999,
          "velocity": 0.3937007874015748
        },
        {
          "duration": 0.3157890000000094,
          "durationTicks": 192,
          "midi": 35,
          "name": "B1",
          "ticks": 57984,
          "time": 95.36827799999999,
          "velocity": 0.3937007874015748
        },
        {
          "duration": 0.3157890000000094,
          "durationTicks": 192,
          "midi": 35,
          "name": "B1",
          "ticks": 57984,
          "time": 95.36827799999999,
          "velocity": 0.3937007874015748
        },
        {
          "duration": 0.1578944999999976,
          "durationTicks": 96,
          "midi": 35,
          "name": "B1",
          "ticks": 58176,
          "time": 95.684067,
          "velocity": 0.3937007874015748
        },
        {
          "duration": 0.1578944999999976,
          "durationTicks": 96,
          "midi": 35,
          "name": "B1",
          "ticks": 58176,
          "time": 95.684067,
          "velocity": 0.3937007874015748
        },
        {
          "duration": 0.1578944999999976,
          "durationTicks": 96,
          "midi": 35,
          "name": "B1",
          "ticks": 58272,
          "time": 95.8419615,
          "velocity": 0.3937007874015748
        },
        {
          "duration": 0.1578944999999976,
          "durationTicks": 96,
          "midi": 35,
          "name": "B1",
          "ticks": 58272,
          "time": 95.8419615,
          "velocity": 0.3937007874015748
        },
        {
          "duration": 0.47368350000000703,
          "durationTicks": 288,
          "midi": 33,
          "name": "A1",
          "ticks": 58368,
          "time": 95.999856,
          "velocity": 0.3937007874015748
        },
        {
          "duration": 0.47368350000000703,
          "durationTicks": 288,
          "midi": 33,
          "name": "A1",
          "ticks": 58368,
          "time": 95.999856,
          "velocity": 0.3937007874015748
        },
        {
          "duration": 0.1578944999999976,
          "durationTicks": 96,
          "midi": 33,
          "name": "A1",
          "ticks": 58656,
          "time": 96.4735395,
          "velocity": 0.3937007874015748
        },
        {
          "duration": 0.1578944999999976,
          "durationTicks": 96,
          "midi": 33,
          "name": "A1",
          "ticks": 58656,
          "time": 96.4735395,
          "velocity": 0.3937007874015748
        },
        {
          "duration": 0.3157889999999952,
          "durationTicks": 192,
          "midi": 33,
          "name": "A1",
          "ticks": 58752,
          "time": 96.631434,
          "velocity": 0.3937007874015748
        },
        {
          "duration": 0.3157889999999952,
          "durationTicks": 192,
          "midi": 33,
          "name": "A1",
          "ticks": 58752,
          "time": 96.631434,
          "velocity": 0.3937007874015748
        },
        {
          "duration": 0.1578944999999976,
          "durationTicks": 96,
          "midi": 33,
          "name": "A1",
          "ticks": 58944,
          "time": 96.947223,
          "velocity": 0.3937007874015748
        },
        {
          "duration": 0.1578944999999976,
          "durationTicks": 96,
          "midi": 33,
          "name": "A1",
          "ticks": 58944,
          "time": 96.947223,
          "velocity": 0.3937007874015748
        },
        {
          "duration": 0.1578944999999976,
          "durationTicks": 96,
          "midi": 33,
          "name": "A1",
          "ticks": 59040,
          "time": 97.10511749999999,
          "velocity": 0.3937007874015748
        },
        {
          "duration": 0.1578944999999976,
          "durationTicks": 96,
          "midi": 33,
          "name": "A1",
          "ticks": 59040,
          "time": 97.10511749999999,
          "velocity": 0.3937007874015748
        },
        {
          "duration": 0.15789450000001182,
          "durationTicks": 96,
          "midi": 33,
          "name": "A1",
          "ticks": 59136,
          "time": 97.26301199999999,
          "velocity": 0.3937007874015748
        },
        {
          "duration": 0.15789450000001182,
          "durationTicks": 96,
          "midi": 33,
          "name": "A1",
          "ticks": 59136,
          "time": 97.26301199999999,
          "velocity": 0.3937007874015748
        },
        {
          "duration": 0.1578944999999976,
          "durationTicks": 96,
          "midi": 33,
          "name": "A1",
          "ticks": 59232,
          "time": 97.4209065,
          "velocity": 0.3937007874015748
        },
        {
          "duration": 0.1578944999999976,
          "durationTicks": 96,
          "midi": 33,
          "name": "A1",
          "ticks": 59232,
          "time": 97.4209065,
          "velocity": 0.3937007874015748
        },
        {
          "duration": 0.1578944999999976,
          "durationTicks": 96,
          "midi": 33,
          "name": "A1",
          "ticks": 59328,
          "time": 97.578801,
          "velocity": 0.3937007874015748
        },
        {
          "duration": 0.1578944999999976,
          "durationTicks": 96,
          "midi": 33,
          "name": "A1",
          "ticks": 59328,
          "time": 97.578801,
          "velocity": 0.3937007874015748
        },
        {
          "duration": 0.1578944999999976,
          "durationTicks": 96,
          "midi": 33,
          "name": "A1",
          "ticks": 59424,
          "time": 97.7366955,
          "velocity": 0.3937007874015748
        },
        {
          "duration": 0.1578944999999976,
          "durationTicks": 96,
          "midi": 33,
          "name": "A1",
          "ticks": 59424,
          "time": 97.7366955,
          "velocity": 0.3937007874015748
        },
        {
          "duration": 0.3157889999999952,
          "durationTicks": 192,
          "midi": 33,
          "name": "A1",
          "ticks": 59520,
          "time": 97.89459,
          "velocity": 0.3937007874015748
        },
        {
          "duration": 0.3157889999999952,
          "durationTicks": 192,
          "midi": 33,
          "name": "A1",
          "ticks": 59520,
          "time": 97.89459,
          "velocity": 0.3937007874015748
        },
        {
          "duration": 0.15789450000001182,
          "durationTicks": 96,
          "midi": 33,
          "name": "A1",
          "ticks": 59712,
          "time": 98.21037899999999,
          "velocity": 0.3937007874015748
        },
        {
          "duration": 0.15789450000001182,
          "durationTicks": 96,
          "midi": 33,
          "name": "A1",
          "ticks": 59712,
          "time": 98.21037899999999,
          "velocity": 0.3937007874015748
        },
        {
          "duration": 0.1578944999999976,
          "durationTicks": 96,
          "midi": 33,
          "name": "A1",
          "ticks": 59808,
          "time": 98.3682735,
          "velocity": 0.3937007874015748
        },
        {
          "duration": 0.1578944999999976,
          "durationTicks": 96,
          "midi": 33,
          "name": "A1",
          "ticks": 59808,
          "time": 98.3682735,
          "velocity": 0.3937007874015748
        },
        {
          "duration": 0.1578944999999976,
          "durationTicks": 96,
          "midi": 32,
          "name": "G#1",
          "ticks": 59904,
          "time": 98.526168,
          "velocity": 0.3937007874015748
        },
        {
          "duration": 0.4736834999999928,
          "durationTicks": 288,
          "midi": 32,
          "name": "G#1",
          "ticks": 59904,
          "time": 98.526168,
          "velocity": 0.3937007874015748
        },
        {
          "duration": 0.1578944999999976,
          "durationTicks": 96,
          "midi": 32,
          "name": "G#1",
          "ticks": 60192,
          "time": 98.99985149999999,
          "velocity": 0.3937007874015748
        },
        {
          "duration": 0.1578944999999976,
          "durationTicks": 96,
          "midi": 32,
          "name": "G#1",
          "ticks": 60192,
          "time": 98.99985149999999,
          "velocity": 0.3937007874015748
        },
        {
          "duration": 0.15789450000001182,
          "durationTicks": 96,
          "midi": 32,
          "name": "G#1",
          "ticks": 60288,
          "time": 99.15774599999999,
          "velocity": 0.3937007874015748
        },
        {
          "duration": 0.3157890000000094,
          "durationTicks": 192,
          "midi": 32,
          "name": "G#1",
          "ticks": 60288,
          "time": 99.15774599999999,
          "velocity": 0.3937007874015748
        },
        {
          "duration": 0.1578944999999976,
          "durationTicks": 96,
          "midi": 32,
          "name": "G#1",
          "ticks": 60480,
          "time": 99.473535,
          "velocity": 0.3937007874015748
        },
        {
          "duration": 0.1578944999999976,
          "durationTicks": 96,
          "midi": 32,
          "name": "G#1",
          "ticks": 60480,
          "time": 99.473535,
          "velocity": 0.3937007874015748
        },
        {
          "duration": 0.1578944999999976,
          "durationTicks": 96,
          "midi": 32,
          "name": "G#1",
          "ticks": 60576,
          "time": 99.6314295,
          "velocity": 0.3937007874015748
        },
        {
          "duration": 0.1578944999999976,
          "durationTicks": 96,
          "midi": 32,
          "name": "G#1",
          "ticks": 60576,
          "time": 99.6314295,
          "velocity": 0.3937007874015748
        },
        {
          "duration": 0.1578944999999976,
          "durationTicks": 96,
          "midi": 32,
          "name": "G#1",
          "ticks": 60672,
          "time": 99.789324,
          "velocity": 0.3937007874015748
        },
        {
          "duration": 0.1578944999999976,
          "durationTicks": 96,
          "midi": 32,
          "name": "G#1",
          "ticks": 60672,
          "time": 99.789324,
          "velocity": 0.3937007874015748
        },
        {
          "duration": 0.1578944999999976,
          "durationTicks": 96,
          "midi": 32,
          "name": "G#1",
          "ticks": 60768,
          "time": 99.94721849999999,
          "velocity": 0.3937007874015748
        },
        {
          "duration": 0.1578944999999976,
          "durationTicks": 96,
          "midi": 32,
          "name": "G#1",
          "ticks": 60768,
          "time": 99.94721849999999,
          "velocity": 0.3937007874015748
        },
        {
          "duration": 0.15789450000001182,
          "durationTicks": 96,
          "midi": 32,
          "name": "G#1",
          "ticks": 60864,
          "time": 100.10511299999999,
          "velocity": 0.3937007874015748
        },
        {
          "duration": 0.15789450000001182,
          "durationTicks": 96,
          "midi": 32,
          "name": "G#1",
          "ticks": 60864,
          "time": 100.10511299999999,
          "velocity": 0.3937007874015748
        },
        {
          "duration": 0.1578944999999976,
          "durationTicks": 96,
          "midi": 32,
          "name": "G#1",
          "ticks": 60960,
          "time": 100.2630075,
          "velocity": 0.3937007874015748
        },
        {
          "duration": 0.1578944999999976,
          "durationTicks": 96,
          "midi": 32,
          "name": "G#1",
          "ticks": 60960,
          "time": 100.2630075,
          "velocity": 0.3937007874015748
        },
        {
          "duration": 0.3157889999999952,
          "durationTicks": 192,
          "midi": 32,
          "name": "G#1",
          "ticks": 61056,
          "time": 100.420902,
          "velocity": 0.3937007874015748
        },
        {
          "duration": 0.3157889999999952,
          "durationTicks": 192,
          "midi": 32,
          "name": "G#1",
          "ticks": 61056,
          "time": 100.420902,
          "velocity": 0.3937007874015748
        },
        {
          "duration": 0.1578944999999976,
          "durationTicks": 96,
          "midi": 32,
          "name": "G#1",
          "ticks": 61248,
          "time": 100.736691,
          "velocity": 0.3937007874015748
        },
        {
          "duration": 0.1578944999999976,
          "durationTicks": 96,
          "midi": 32,
          "name": "G#1",
          "ticks": 61248,
          "time": 100.736691,
          "velocity": 0.3937007874015748
        },
        {
          "duration": 0.15789450000001182,
          "durationTicks": 96,
          "midi": 32,
          "name": "G#1",
          "ticks": 61344,
          "time": 100.89458549999999,
          "velocity": 0.3937007874015748
        },
        {
          "duration": 0.15789450000001182,
          "durationTicks": 96,
          "midi": 32,
          "name": "G#1",
          "ticks": 61344,
          "time": 100.89458549999999,
          "velocity": 0.3937007874015748
        },
        {
          "duration": 2.3684174999999925,
          "durationTicks": 1440,
          "midi": 45,
          "name": "A2",
          "ticks": 102912,
          "time": 169.262904,
          "velocity": 0.3937007874015748
        },
        {
          "duration": 1.2631560000000093,
          "durationTicks": 768,
          "midi": 44,
          "name": "G#2",
          "ticks": 104448,
          "time": 171.78921599999998,
          "velocity": 0.3937007874015748
        },
        {
          "duration": 1.2631560000000093,
          "durationTicks": 768,
          "midi": 43,
          "name": "G2",
          "ticks": 105216,
          "time": 173.052372,
          "velocity": 0.3937007874015748
        },
        {
          "duration": 1.2631559999999808,
          "durationTicks": 768,
          "midi": 45,
          "name": "A2",
          "ticks": 105984,
          "time": 174.315528,
          "velocity": 0.3937007874015748
        },
        {
          "duration": 0.6315780000000188,
          "durationTicks": 384,
          "midi": 45,
          "name": "A2",
          "ticks": 106752,
          "time": 175.57868399999998,
          "velocity": 0.3937007874015748
        },
        {
          "duration": 0.6315779999999904,
          "durationTicks": 384,
          "midi": 47,
          "name": "B2",
          "ticks": 107136,
          "time": 176.210262,
          "velocity": 0.3937007874015748
        },
        {
          "duration": 1.2631560000000093,
          "durationTicks": 768,
          "midi": 47,
          "name": "B2",
          "ticks": 107520,
          "time": 176.84184,
          "velocity": 0.3937007874015748
        },
        {
          "duration": 0.9473669999999856,
          "durationTicks": 576,
          "midi": 45,
          "name": "A2",
          "ticks": 108288,
          "time": 178.104996,
          "velocity": 0.3937007874015748
        },
        {
          "duration": 0.3157889999999952,
          "durationTicks": 192,
          "midi": 47,
          "name": "B2",
          "ticks": 108864,
          "time": 179.05236299999999,
          "velocity": 0.3937007874015748
        },
        {
          "duration": 1.736839500000002,
          "durationTicks": 1056,
          "midi": 45,
          "name": "A2",
          "ticks": 109056,
          "time": 179.36815199999998,
          "velocity": 0.3937007874015748
        },
        {
          "duration": 0.31578900000002363,
          "durationTicks": 192,
          "midi": 45,
          "name": "A2",
          "ticks": 110208,
          "time": 181.26288599999998,
          "velocity": 0.3937007874015748
        },
        {
          "duration": 0.3157889999999952,
          "durationTicks": 192,
          "midi": 45,
          "name": "A2",
          "ticks": 110400,
          "time": 181.578675,
          "velocity": 0.3937007874015748
        },
        {
          "duration": 0.6315779999999904,
          "durationTicks": 384,
          "midi": 44,
          "name": "G#2",
          "ticks": 110592,
          "time": 181.894464,
          "velocity": 0.3937007874015748
        },
        {
          "duration": 0.6315779999999904,
          "durationTicks": 384,
          "midi": 44,
          "name": "G#2",
          "ticks": 110976,
          "time": 182.526042,
          "velocity": 0.3937007874015748
        },
        {
          "duration": 0.6315780000000188,
          "durationTicks": 384,
          "midi": 43,
          "name": "G2",
          "ticks": 111360,
          "time": 183.15761999999998,
          "velocity": 0.3937007874015748
        },
        {
          "duration": 0.6315779999999904,
          "durationTicks": 384,
          "midi": 45,
          "name": "A2",
          "ticks": 111744,
          "time": 183.789198,
          "velocity": 0.3937007874015748
        },
        {
          "duration": 0.47368350000002124,
          "durationTicks": 288,
          "midi": 37,
          "name": "C#2",
          "ticks": 118272,
          "time": 194.52602399999998,
          "velocity": 0.3937007874015748
        },
        {
          "duration": 0.47368350000002124,
          "durationTicks": 288,
          "midi": 25,
          "name": "C#1",
          "ticks": 118272,
          "time": 194.52602399999998,
          "velocity": 0.3937007874015748
        },
        {
          "duration": 0.1578944999999976,
          "durationTicks": 96,
          "midi": 37,
          "name": "C#2",
          "ticks": 118560,
          "time": 194.9997075,
          "velocity": 0.3937007874015748
        },
        {
          "duration": 0.1578944999999976,
          "durationTicks": 96,
          "midi": 25,
          "name": "C#1",
          "ticks": 118560,
          "time": 194.9997075,
          "velocity": 0.3937007874015748
        },
        {
          "duration": 0.3157889999999952,
          "durationTicks": 192,
          "midi": 25,
          "name": "C#1",
          "ticks": 118656,
          "time": 195.157602,
          "velocity": 0.3937007874015748
        },
        {
          "duration": 0.3157889999999952,
          "durationTicks": 192,
          "midi": 37,
          "name": "C#2",
          "ticks": 118656,
          "time": 195.157602,
          "velocity": 0.3937007874015748
        },
        {
          "duration": 0.1578944999999976,
          "durationTicks": 96,
          "midi": 25,
          "name": "C#1",
          "ticks": 118848,
          "time": 195.473391,
          "velocity": 0.3937007874015748
        },
        {
          "duration": 0.1578944999999976,
          "durationTicks": 96,
          "midi": 37,
          "name": "C#2",
          "ticks": 118848,
          "time": 195.473391,
          "velocity": 0.3937007874015748
        },
        {
          "duration": 0.1578944999999976,
          "durationTicks": 96,
          "midi": 25,
          "name": "C#1",
          "ticks": 118944,
          "time": 195.6312855,
          "velocity": 0.3937007874015748
        },
        {
          "duration": 0.1578944999999976,
          "durationTicks": 96,
          "midi": 37,
          "name": "C#2",
          "ticks": 118944,
          "time": 195.6312855,
          "velocity": 0.3937007874015748
        },
        {
          "duration": 0.1578944999999976,
          "durationTicks": 96,
          "midi": 37,
          "name": "C#2",
          "ticks": 119040,
          "time": 195.78918,
          "velocity": 0.3937007874015748
        },
        {
          "duration": 0.1578944999999976,
          "durationTicks": 96,
          "midi": 25,
          "name": "C#1",
          "ticks": 119040,
          "time": 195.78918,
          "velocity": 0.3937007874015748
        },
        {
          "duration": 0.1578944999999976,
          "durationTicks": 96,
          "midi": 25,
          "name": "C#1",
          "ticks": 119136,
          "time": 195.94707449999999,
          "velocity": 0.3937007874015748
        },
        {
          "duration": 0.1578944999999976,
          "durationTicks": 96,
          "midi": 37,
          "name": "C#2",
          "ticks": 119136,
          "time": 195.94707449999999,
          "velocity": 0.3937007874015748
        },
        {
          "duration": 0.1578944999999976,
          "durationTicks": 96,
          "midi": 25,
          "name": "C#1",
          "ticks": 119232,
          "time": 196.10496899999998,
          "velocity": 0.3937007874015748
        },
        {
          "duration": 0.1578944999999976,
          "durationTicks": 96,
          "midi": 37,
          "name": "C#2",
          "ticks": 119232,
          "time": 196.10496899999998,
          "velocity": 0.3937007874015748
        },
        {
          "duration": 0.1578944999999976,
          "durationTicks": 96,
          "midi": 37,
          "name": "C#2",
          "ticks": 119328,
          "time": 196.26286349999998,
          "velocity": 0.3937007874015748
        },
        {
          "duration": 0.1578944999999976,
          "durationTicks": 96,
          "midi": 25,
          "name": "C#1",
          "ticks": 119328,
          "time": 196.26286349999998,
          "velocity": 0.3937007874015748
        },
        {
          "duration": 0.31578900000002363,
          "durationTicks": 192,
          "midi": 25,
          "name": "C#1",
          "ticks": 119424,
          "time": 196.42075799999998,
          "velocity": 0.3937007874015748
        },
        {
          "duration": 0.31578900000002363,
          "durationTicks": 192,
          "midi": 37,
          "name": "C#2",
          "ticks": 119424,
          "time": 196.42075799999998,
          "velocity": 0.3937007874015748
        },
        {
          "duration": 0.1578944999999976,
          "durationTicks": 96,
          "midi": 25,
          "name": "C#1",
          "ticks": 119616,
          "time": 196.736547,
          "velocity": 0.3937007874015748
        },
        {
          "duration": 0.1578944999999976,
          "durationTicks": 96,
          "midi": 37,
          "name": "C#2",
          "ticks": 119616,
          "time": 196.736547,
          "velocity": 0.3937007874015748
        },
        {
          "duration": 0.1578944999999976,
          "durationTicks": 96,
          "midi": 37,
          "name": "C#2",
          "ticks": 119712,
          "time": 196.8944415,
          "velocity": 0.3937007874015748
        },
        {
          "duration": 0.1578944999999976,
          "durationTicks": 96,
          "midi": 25,
          "name": "C#1",
          "ticks": 119712,
          "time": 196.8944415,
          "velocity": 0.3937007874015748
        },
        {
          "duration": 0.4736834999999928,
          "durationTicks": 288,
          "midi": 35,
          "name": "B1",
          "ticks": 119808,
          "time": 197.052336,
          "velocity": 0.3937007874015748
        },
        {
          "duration": 0.4736834999999928,
          "durationTicks": 288,
          "midi": 35,
          "name": "B1",
          "ticks": 119808,
          "time": 197.052336,
          "velocity": 0.3937007874015748
        },
        {
          "duration": 0.1578944999999976,
          "durationTicks": 96,
          "midi": 35,
          "name": "B1",
          "ticks": 120096,
          "time": 197.5260195,
          "velocity": 0.3937007874015748
        },
        {
          "duration": 0.1578944999999976,
          "durationTicks": 96,
          "midi": 35,
          "name": "B1",
          "ticks": 120096,
          "time": 197.5260195,
          "velocity": 0.3937007874015748
        },
        {
          "duration": 0.3157889999999952,
          "durationTicks": 192,
          "midi": 35,
          "name": "B1",
          "ticks": 120192,
          "time": 197.683914,
          "velocity": 0.3937007874015748
        },
        {
          "duration": 0.3157889999999952,
          "durationTicks": 192,
          "midi": 35,
          "name": "B1",
          "ticks": 120192,
          "time": 197.683914,
          "velocity": 0.3937007874015748
        },
        {
          "duration": 0.1578944999999976,
          "durationTicks": 96,
          "midi": 35,
          "name": "B1",
          "ticks": 120384,
          "time": 197.99970299999998,
          "velocity": 0.3937007874015748
        },
        {
          "duration": 0.1578944999999976,
          "durationTicks": 96,
          "midi": 35,
          "name": "B1",
          "ticks": 120384,
          "time": 197.99970299999998,
          "velocity": 0.3937007874015748
        },
        {
          "duration": 0.1578944999999976,
          "durationTicks": 96,
          "midi": 35,
          "name": "B1",
          "ticks": 120480,
          "time": 198.15759749999998,
          "velocity": 0.3937007874015748
        },
        {
          "duration": 0.1578944999999976,
          "durationTicks": 96,
          "midi": 35,
          "name": "B1",
          "ticks": 120480,
          "time": 198.15759749999998,
          "velocity": 0.3937007874015748
        },
        {
          "duration": 0.15789450000002603,
          "durationTicks": 96,
          "midi": 35,
          "name": "B1",
          "ticks": 120576,
          "time": 198.31549199999998,
          "velocity": 0.3937007874015748
        },
        {
          "duration": 0.15789450000002603,
          "durationTicks": 96,
          "midi": 35,
          "name": "B1",
          "ticks": 120576,
          "time": 198.31549199999998,
          "velocity": 0.3937007874015748
        },
        {
          "duration": 0.1578944999999976,
          "durationTicks": 96,
          "midi": 35,
          "name": "B1",
          "ticks": 120672,
          "time": 198.4733865,
          "velocity": 0.3937007874015748
        },
        {
          "duration": 0.1578944999999976,
          "durationTicks": 96,
          "midi": 35,
          "name": "B1",
          "ticks": 120672,
          "time": 198.4733865,
          "velocity": 0.3937007874015748
        },
        {
          "duration": 0.1578944999999976,
          "durationTicks": 96,
          "midi": 35,
          "name": "B1",
          "ticks": 120768,
          "time": 198.631281,
          "velocity": 0.3937007874015748
        },
        {
          "duration": 0.1578944999999976,
          "durationTicks": 96,
          "midi": 35,
          "name": "B1",
          "ticks": 120768,
          "time": 198.631281,
          "velocity": 0.3937007874015748
        },
        {
          "duration": 0.1578944999999976,
          "durationTicks": 96,
          "midi": 35,
          "name": "B1",
          "ticks": 120864,
          "time": 198.7891755,
          "velocity": 0.3937007874015748
        },
        {
          "duration": 0.1578944999999976,
          "durationTicks": 96,
          "midi": 35,
          "name": "B1",
          "ticks": 120864,
          "time": 198.7891755,
          "velocity": 0.3937007874015748
        },
        {
          "duration": 0.3157889999999952,
          "durationTicks": 192,
          "midi": 35,
          "name": "B1",
          "ticks": 120960,
          "time": 198.94707,
          "velocity": 0.3937007874015748
        },
        {
          "duration": 0.3157889999999952,
          "durationTicks": 192,
          "midi": 35,
          "name": "B1",
          "ticks": 120960,
          "time": 198.94707,
          "velocity": 0.3937007874015748
        },
        {
          "duration": 0.1578944999999976,
          "durationTicks": 96,
          "midi": 35,
          "name": "B1",
          "ticks": 121152,
          "time": 199.262859,
          "velocity": 0.3937007874015748
        },
        {
          "duration": 0.1578944999999976,
          "durationTicks": 96,
          "midi": 35,
          "name": "B1",
          "ticks": 121152,
          "time": 199.262859,
          "velocity": 0.3937007874015748
        },
        {
          "duration": 0.1578944999999976,
          "durationTicks": 96,
          "midi": 35,
          "name": "B1",
          "ticks": 121248,
          "time": 199.4207535,
          "velocity": 0.3937007874015748
        },
        {
          "duration": 0.1578944999999976,
          "durationTicks": 96,
          "midi": 35,
          "name": "B1",
          "ticks": 121248,
          "time": 199.4207535,
          "velocity": 0.3937007874015748
        },
        {
          "duration": 0.4736834999999928,
          "durationTicks": 288,
          "midi": 33,
          "name": "A1",
          "ticks": 121344,
          "time": 199.578648,
          "velocity": 0.3937007874015748
        },
        {
          "duration": 0.4736834999999928,
          "durationTicks": 288,
          "midi": 33,
          "name": "A1",
          "ticks": 121344,
          "time": 199.578648,
          "velocity": 0.3937007874015748
        },
        {
          "duration": 0.1578944999999976,
          "durationTicks": 96,
          "midi": 33,
          "name": "A1",
          "ticks": 121632,
          "time": 200.05233149999998,
          "velocity": 0.3937007874015748
        },
        {
          "duration": 0.1578944999999976,
          "durationTicks": 96,
          "midi": 33,
          "name": "A1",
          "ticks": 121632,
          "time": 200.05233149999998,
          "velocity": 0.3937007874015748
        },
        {
          "duration": 0.31578900000002363,
          "durationTicks": 192,
          "midi": 33,
          "name": "A1",
          "ticks": 121728,
          "time": 200.21022599999998,
          "velocity": 0.3937007874015748
        },
        {
          "duration": 0.31578900000002363,
          "durationTicks": 192,
          "midi": 33,
          "name": "A1",
          "ticks": 121728,
          "time": 200.21022599999998,
          "velocity": 0.3937007874015748
        },
        {
          "duration": 0.1578944999999976,
          "durationTicks": 96,
          "midi": 33,
          "name": "A1",
          "ticks": 121920,
          "time": 200.526015,
          "velocity": 0.3937007874015748
        },
        {
          "duration": 0.1578944999999976,
          "durationTicks": 96,
          "midi": 33,
          "name": "A1",
          "ticks": 121920,
          "time": 200.526015,
          "velocity": 0.3937007874015748
        },
        {
          "duration": 0.1578944999999976,
          "durationTicks": 96,
          "midi": 33,
          "name": "A1",
          "ticks": 122016,
          "time": 200.6839095,
          "velocity": 0.3937007874015748
        },
        {
          "duration": 0.1578944999999976,
          "durationTicks": 96,
          "midi": 33,
          "name": "A1",
          "ticks": 122016,
          "time": 200.6839095,
          "velocity": 0.3937007874015748
        },
        {
          "duration": 0.1578944999999976,
          "durationTicks": 96,
          "midi": 33,
          "name": "A1",
          "ticks": 122112,
          "time": 200.841804,
          "velocity": 0.3937007874015748
        },
        {
          "duration": 0.1578944999999976,
          "durationTicks": 96,
          "midi": 33,
          "name": "A1",
          "ticks": 122112,
          "time": 200.841804,
          "velocity": 0.3937007874015748
        },
        {
          "duration": 0.1578944999999976,
          "durationTicks": 96,
          "midi": 33,
          "name": "A1",
          "ticks": 122208,
          "time": 200.9996985,
          "velocity": 0.3937007874015748
        },
        {
          "duration": 0.1578944999999976,
          "durationTicks": 96,
          "midi": 33,
          "name": "A1",
          "ticks": 122208,
          "time": 200.9996985,
          "velocity": 0.3937007874015748
        },
        {
          "duration": 0.1578944999999976,
          "durationTicks": 96,
          "midi": 33,
          "name": "A1",
          "ticks": 122304,
          "time": 201.157593,
          "velocity": 0.3937007874015748
        },
        {
          "duration": 0.1578944999999976,
          "durationTicks": 96,
          "midi": 33,
          "name": "A1",
          "ticks": 122304,
          "time": 201.157593,
          "velocity": 0.3937007874015748
        },
        {
          "duration": 0.1578944999999976,
          "durationTicks": 96,
          "midi": 33,
          "name": "A1",
          "ticks": 122400,
          "time": 201.3154875,
          "velocity": 0.3937007874015748
        },
        {
          "duration": 0.1578944999999976,
          "durationTicks": 96,
          "midi": 33,
          "name": "A1",
          "ticks": 122400,
          "time": 201.3154875,
          "velocity": 0.3937007874015748
        },
        {
          "duration": 0.3157889999999952,
          "durationTicks": 192,
          "midi": 33,
          "name": "A1",
          "ticks": 122496,
          "time": 201.473382,
          "velocity": 0.3937007874015748
        },
        {
          "duration": 0.3157889999999952,
          "durationTicks": 192,
          "midi": 33,
          "name": "A1",
          "ticks": 122496,
          "time": 201.473382,
          "velocity": 0.3937007874015748
        },
        {
          "duration": 0.1578944999999976,
          "durationTicks": 96,
          "midi": 33,
          "name": "A1",
          "ticks": 122688,
          "time": 201.78917099999998,
          "velocity": 0.3937007874015748
        },
        {
          "duration": 0.1578944999999976,
          "durationTicks": 96,
          "midi": 33,
          "name": "A1",
          "ticks": 122688,
          "time": 201.78917099999998,
          "velocity": 0.3937007874015748
        },
        {
          "duration": 0.15789450000002603,
          "durationTicks": 96,
          "midi": 33,
          "name": "A1",
          "ticks": 122784,
          "time": 201.94706549999998,
          "velocity": 0.3937007874015748
        },
        {
          "duration": 0.15789450000002603,
          "durationTicks": 96,
          "midi": 33,
          "name": "A1",
          "ticks": 122784,
          "time": 201.94706549999998,
          "velocity": 0.3937007874015748
        },
        {
          "duration": 0.1578944999999976,
          "durationTicks": 96,
          "midi": 32,
          "name": "G#1",
          "ticks": 122880,
          "time": 202.10496,
          "velocity": 0.3937007874015748
        },
        {
          "duration": 0.4736834999999928,
          "durationTicks": 288,
          "midi": 32,
          "name": "G#1",
          "ticks": 122880,
          "time": 202.10496,
          "velocity": 0.3937007874015748
        },
        {
          "duration": 0.1578944999999976,
          "durationTicks": 96,
          "midi": 32,
          "name": "G#1",
          "ticks": 123168,
          "time": 202.5786435,
          "velocity": 0.3937007874015748
        },
        {
          "duration": 0.1578944999999976,
          "durationTicks": 96,
          "midi": 32,
          "name": "G#1",
          "ticks": 123168,
          "time": 202.5786435,
          "velocity": 0.3937007874015748
        },
        {
          "duration": 0.1578944999999976,
          "durationTicks": 96,
          "midi": 32,
          "name": "G#1",
          "ticks": 123264,
          "time": 202.736538,
          "velocity": 0.3937007874015748
        },
        {
          "duration": 0.3157889999999952,
          "durationTicks": 192,
          "midi": 32,
          "name": "G#1",
          "ticks": 123264,
          "time": 202.736538,
          "velocity": 0.3937007874015748
        },
        {
          "duration": 0.1578944999999976,
          "durationTicks": 96,
          "midi": 32,
          "name": "G#1",
          "ticks": 123456,
          "time": 203.052327,
          "velocity": 0.3937007874015748
        },
        {
          "duration": 0.1578944999999976,
          "durationTicks": 96,
          "midi": 32,
          "name": "G#1",
          "ticks": 123456,
          "time": 203.052327,
          "velocity": 0.3937007874015748
        },
        {
          "duration": 0.1578944999999976,
          "durationTicks": 96,
          "midi": 32,
          "name": "G#1",
          "ticks": 123552,
          "time": 203.2102215,
          "velocity": 0.3937007874015748
        },
        {
          "duration": 0.1578944999999976,
          "durationTicks": 96,
          "midi": 32,
          "name": "G#1",
          "ticks": 123552,
          "time": 203.2102215,
          "velocity": 0.3937007874015748
        },
        {
          "duration": 0.1578944999999976,
          "durationTicks": 96,
          "midi": 32,
          "name": "G#1",
          "ticks": 123648,
          "time": 203.368116,
          "velocity": 0.3937007874015748
        },
        {
          "duration": 0.1578944999999976,
          "durationTicks": 96,
          "midi": 32,
          "name": "G#1",
          "ticks": 123648,
          "time": 203.368116,
          "velocity": 0.3937007874015748
        },
        {
          "duration": 0.1578944999999976,
          "durationTicks": 96,
          "midi": 32,
          "name": "G#1",
          "ticks": 123744,
          "time": 203.52601049999998,
          "velocity": 0.3937007874015748
        },
        {
          "duration": 0.1578944999999976,
          "durationTicks": 96,
          "midi": 32,
          "name": "G#1",
          "ticks": 123744,
          "time": 203.52601049999998,
          "velocity": 0.3937007874015748
        },
        {
          "duration": 0.1578944999999976,
          "durationTicks": 96,
          "midi": 32,
          "name": "G#1",
          "ticks": 123840,
          "time": 203.68390499999998,
          "velocity": 0.3937007874015748
        },
        {
          "duration": 0.1578944999999976,
          "durationTicks": 96,
          "midi": 32,
          "name": "G#1",
          "ticks": 123840,
          "time": 203.68390499999998,
          "velocity": 0.3937007874015748
        },
        {
          "duration": 0.15789450000002603,
          "durationTicks": 96,
          "midi": 32,
          "name": "G#1",
          "ticks": 123936,
          "time": 203.84179949999998,
          "velocity": 0.3937007874015748
        },
        {
          "duration": 0.15789450000002603,
          "durationTicks": 96,
          "midi": 32,
          "name": "G#1",
          "ticks": 123936,
          "time": 203.84179949999998,
          "velocity": 0.3937007874015748
        },
        {
          "duration": 0.3157889999999952,
          "durationTicks": 192,
          "midi": 32,
          "name": "G#1",
          "ticks": 124032,
          "time": 203.999694,
          "velocity": 0.3937007874015748
        },
        {
          "duration": 0.3157889999999952,
          "durationTicks": 192,
          "midi": 32,
          "name": "G#1",
          "ticks": 124032,
          "time": 203.999694,
          "velocity": 0.3937007874015748
        },
        {
          "duration": 0.1578944999999976,
          "durationTicks": 96,
          "midi": 32,
          "name": "G#1",
          "ticks": 124224,
          "time": 204.315483,
          "velocity": 0.3937007874015748
        },
        {
          "duration": 0.1578944999999976,
          "durationTicks": 96,
          "midi": 32,
          "name": "G#1",
          "ticks": 124224,
          "time": 204.315483,
          "velocity": 0.3937007874015748
        },
        {
          "duration": 0.1578944999999976,
          "durationTicks": 96,
          "midi": 32,
          "name": "G#1",
          "ticks": 124320,
          "time": 204.4733775,
          "velocity": 0.3937007874015748
        },
        {
          "duration": 0.1578944999999976,
          "durationTicks": 96,
          "midi": 32,
          "name": "G#1",
          "ticks": 124320,
          "time": 204.4733775,
          "velocity": 0.3937007874015748
        },
        {
          "duration": 0.4736834999999928,
          "durationTicks": 288,
          "midi": 25,
          "name": "C#1",
          "ticks": 124416,
          "time": 204.631272,
          "velocity": 0.3937007874015748
        },
        {
          "duration": 0.4736834999999928,
          "durationTicks": 288,
          "midi": 37,
          "name": "C#2",
          "ticks": 124416,
          "time": 204.631272,
          "velocity": 0.3937007874015748
        },
        {
          "duration": 0.1578944999999976,
          "durationTicks": 96,
          "midi": 25,
          "name": "C#1",
          "ticks": 124704,
          "time": 205.1049555,
          "velocity": 0.3937007874015748
        },
        {
          "duration": 0.1578944999999976,
          "durationTicks": 96,
          "midi": 37,
          "name": "C#2",
          "ticks": 124704,
          "time": 205.1049555,
          "velocity": 0.3937007874015748
        },
        {
          "duration": 0.3157889999999952,
          "durationTicks": 192,
          "midi": 37,
          "name": "C#2",
          "ticks": 124800,
          "time": 205.26285,
          "velocity": 0.3937007874015748
        },
        {
          "duration": 0.3157889999999952,
          "durationTicks": 192,
          "midi": 25,
          "name": "C#1",
          "ticks": 124800,
          "time": 205.26285,
          "velocity": 0.3937007874015748
        },
        {
          "duration": 0.1578944999999976,
          "durationTicks": 96,
          "midi": 25,
          "name": "C#1",
          "ticks": 124992,
          "time": 205.57863899999998,
          "velocity": 0.3937007874015748
        },
        {
          "duration": 0.1578944999999976,
          "durationTicks": 96,
          "midi": 37,
          "name": "C#2",
          "ticks": 124992,
          "time": 205.57863899999998,
          "velocity": 0.3937007874015748
        },
        {
          "duration": 0.15789450000002603,
          "durationTicks": 96,
          "midi": 25,
          "name": "C#1",
          "ticks": 125088,
          "time": 205.73653349999998,
          "velocity": 0.3937007874015748
        },
        {
          "duration": 0.15789450000002603,
          "durationTicks": 96,
          "midi": 37,
          "name": "C#2",
          "ticks": 125088,
          "time": 205.73653349999998,
          "velocity": 0.3937007874015748
        },
        {
          "duration": 0.1578944999999976,
          "durationTicks": 96,
          "midi": 37,
          "name": "C#2",
          "ticks": 125184,
          "time": 205.894428,
          "velocity": 0.3937007874015748
        },
        {
          "duration": 0.1578944999999976,
          "durationTicks": 96,
          "midi": 25,
          "name": "C#1",
          "ticks": 125184,
          "time": 205.894428,
          "velocity": 0.3937007874015748
        },
        {
          "duration": 0.1578944999999976,
          "durationTicks": 96,
          "midi": 25,
          "name": "C#1",
          "ticks": 125280,
          "time": 206.0523225,
          "velocity": 0.3937007874015748
        },
        {
          "duration": 0.1578944999999976,
          "durationTicks": 96,
          "midi": 37,
          "name": "C#2",
          "ticks": 125280,
          "time": 206.0523225,
          "velocity": 0.3937007874015748
        },
        {
          "duration": 0.1578944999999976,
          "durationTicks": 96,
          "midi": 25,
          "name": "C#1",
          "ticks": 125376,
          "time": 206.210217,
          "velocity": 0.3937007874015748
        },
        {
          "duration": 0.1578944999999976,
          "durationTicks": 96,
          "midi": 37,
          "name": "C#2",
          "ticks": 125376,
          "time": 206.210217,
          "velocity": 0.3937007874015748
        },
        {
          "duration": 0.1578944999999976,
          "durationTicks": 96,
          "midi": 25,
          "name": "C#1",
          "ticks": 125472,
          "time": 206.3681115,
          "velocity": 0.3937007874015748
        },
        {
          "duration": 0.1578944999999976,
          "durationTicks": 96,
          "midi": 37,
          "name": "C#2",
          "ticks": 125472,
          "time": 206.3681115,
          "velocity": 0.3937007874015748
        },
        {
          "duration": 0.3157889999999952,
          "durationTicks": 192,
          "midi": 25,
          "name": "C#1",
          "ticks": 125568,
          "time": 206.526006,
          "velocity": 0.3937007874015748
        },
        {
          "duration": 0.3157889999999952,
          "durationTicks": 192,
          "midi": 37,
          "name": "C#2",
          "ticks": 125568,
          "time": 206.526006,
          "velocity": 0.3937007874015748
        },
        {
          "duration": 0.1578944999999976,
          "durationTicks": 96,
          "midi": 37,
          "name": "C#2",
          "ticks": 125760,
          "time": 206.841795,
          "velocity": 0.3937007874015748
        },
        {
          "duration": 0.1578944999999976,
          "durationTicks": 96,
          "midi": 25,
          "name": "C#1",
          "ticks": 125760,
          "time": 206.841795,
          "velocity": 0.3937007874015748
        },
        {
          "duration": 0.1578944999999976,
          "durationTicks": 96,
          "midi": 25,
          "name": "C#1",
          "ticks": 125856,
          "time": 206.9996895,
          "velocity": 0.3937007874015748
        },
        {
          "duration": 0.1578944999999976,
          "durationTicks": 96,
          "midi": 37,
          "name": "C#2",
          "ticks": 125856,
          "time": 206.9996895,
          "velocity": 0.3937007874015748
        },
        {
          "duration": 0.4736834999999928,
          "durationTicks": 288,
          "midi": 35,
          "name": "B1",
          "ticks": 125952,
          "time": 207.15758399999999,
          "velocity": 0.3937007874015748
        },
        {
          "duration": 0.4736834999999928,
          "durationTicks": 288,
          "midi": 35,
          "name": "B1",
          "ticks": 125952,
          "time": 207.15758399999999,
          "velocity": 0.3937007874015748
        },
        {
          "duration": 0.15789450000002603,
          "durationTicks": 96,
          "midi": 35,
          "name": "B1",
          "ticks": 126240,
          "time": 207.63126749999998,
          "velocity": 0.3937007874015748
        },
        {
          "duration": 0.15789450000002603,
          "durationTicks": 96,
          "midi": 35,
          "name": "B1",
          "ticks": 126240,
          "time": 207.63126749999998,
          "velocity": 0.3937007874015748
        },
        {
          "duration": 0.3157889999999952,
          "durationTicks": 192,
          "midi": 35,
          "name": "B1",
          "ticks": 126336,
          "time": 207.789162,
          "velocity": 0.3937007874015748
        },
        {
          "duration": 0.3157889999999952,
          "durationTicks": 192,
          "midi": 35,
          "name": "B1",
          "ticks": 126336,
          "time": 207.789162,
          "velocity": 0.3937007874015748
        },
        {
          "duration": 0.1578944999999976,
          "durationTicks": 96,
          "midi": 35,
          "name": "B1",
          "ticks": 126528,
          "time": 208.104951,
          "velocity": 0.3937007874015748
        },
        {
          "duration": 0.1578944999999976,
          "durationTicks": 96,
          "midi": 35,
          "name": "B1",
          "ticks": 126528,
          "time": 208.104951,
          "velocity": 0.3937007874015748
        },
        {
          "duration": 0.1578944999999976,
          "durationTicks": 96,
          "midi": 35,
          "name": "B1",
          "ticks": 126624,
          "time": 208.2628455,
          "velocity": 0.3937007874015748
        },
        {
          "duration": 0.1578944999999976,
          "durationTicks": 96,
          "midi": 35,
          "name": "B1",
          "ticks": 126624,
          "time": 208.2628455,
          "velocity": 0.3937007874015748
        },
        {
          "duration": 0.1578944999999976,
          "durationTicks": 96,
          "midi": 35,
          "name": "B1",
          "ticks": 126720,
          "time": 208.42074,
          "velocity": 0.3937007874015748
        },
        {
          "duration": 0.1578944999999976,
          "durationTicks": 96,
          "midi": 35,
          "name": "B1",
          "ticks": 126720,
          "time": 208.42074,
          "velocity": 0.3937007874015748
        },
        {
          "duration": 0.1578944999999976,
          "durationTicks": 96,
          "midi": 35,
          "name": "B1",
          "ticks": 126816,
          "time": 208.5786345,
          "velocity": 0.3937007874015748
        },
        {
          "duration": 0.1578944999999976,
          "durationTicks": 96,
          "midi": 35,
          "name": "B1",
          "ticks": 126816,
          "time": 208.5786345,
          "velocity": 0.3937007874015748
        },
        {
          "duration": 0.1578944999999976,
          "durationTicks": 96,
          "midi": 35,
          "name": "B1",
          "ticks": 126912,
          "time": 208.736529,
          "velocity": 0.3937007874015748
        },
        {
          "duration": 0.1578944999999976,
          "durationTicks": 96,
          "midi": 35,
          "name": "B1",
          "ticks": 126912,
          "time": 208.736529,
          "velocity": 0.3937007874015748
        },
        {
          "duration": 0.1578944999999976,
          "durationTicks": 96,
          "midi": 35,
          "name": "B1",
          "ticks": 127008,
          "time": 208.8944235,
          "velocity": 0.3937007874015748
        },
        {
          "duration": 0.1578944999999976,
          "durationTicks": 96,
          "midi": 35,
          "name": "B1",
          "ticks": 127008,
          "time": 208.8944235,
          "velocity": 0.3937007874015748
        },
        {
          "duration": 0.3157889999999952,
          "durationTicks": 192,
          "midi": 35,
          "name": "B1",
          "ticks": 127104,
          "time": 209.05231799999999,
          "velocity": 0.3937007874015748
        },
        {
          "duration": 0.3157889999999952,
          "durationTicks": 192,
          "midi": 35,
          "name": "B1",
          "ticks": 127104,
          "time": 209.05231799999999,
          "velocity": 0.3937007874015748
        },
        {
          "duration": 0.1578944999999976,
          "durationTicks": 96,
          "midi": 35,
          "name": "B1",
          "ticks": 127296,
          "time": 209.36810699999998,
          "velocity": 0.3937007874015748
        },
        {
          "duration": 0.1578944999999976,
          "durationTicks": 96,
          "midi": 35,
          "name": "B1",
          "ticks": 127296,
          "time": 209.36810699999998,
          "velocity": 0.3937007874015748
        },
        {
          "duration": 0.15789450000002603,
          "durationTicks": 96,
          "midi": 35,
          "name": "B1",
          "ticks": 127392,
          "time": 209.52600149999998,
          "velocity": 0.3937007874015748
        },
        {
          "duration": 0.15789450000002603,
          "durationTicks": 96,
          "midi": 35,
          "name": "B1",
          "ticks": 127392,
          "time": 209.52600149999998,
          "velocity": 0.3937007874015748
        },
        {
          "duration": 0.4736834999999928,
          "durationTicks": 288,
          "midi": 33,
          "name": "A1",
          "ticks": 127488,
          "time": 209.683896,
          "velocity": 0.3937007874015748
        },
        {
          "duration": 0.4736834999999928,
          "durationTicks": 288,
          "midi": 33,
          "name": "A1",
          "ticks": 127488,
          "time": 209.683896,
          "velocity": 0.3937007874015748
        },
        {
          "duration": 0.1578944999999976,
          "durationTicks": 96,
          "midi": 33,
          "name": "A1",
          "ticks": 127776,
          "time": 210.1575795,
          "velocity": 0.3937007874015748
        },
        {
          "duration": 0.1578944999999976,
          "durationTicks": 96,
          "midi": 33,
          "name": "A1",
          "ticks": 127776,
          "time": 210.1575795,
          "velocity": 0.3937007874015748
        },
        {
          "duration": 0.3157889999999952,
          "durationTicks": 192,
          "midi": 33,
          "name": "A1",
          "ticks": 127872,
          "time": 210.315474,
          "velocity": 0.3937007874015748
        },
        {
          "duration": 0.3157889999999952,
          "durationTicks": 192,
          "midi": 33,
          "name": "A1",
          "ticks": 127872,
          "time": 210.315474,
          "velocity": 0.3937007874015748
        },
        {
          "duration": 0.1578944999999976,
          "durationTicks": 96,
          "midi": 33,
          "name": "A1",
          "ticks": 128064,
          "time": 210.631263,
          "velocity": 0.3937007874015748
        },
        {
          "duration": 0.1578944999999976,
          "durationTicks": 96,
          "midi": 33,
          "name": "A1",
          "ticks": 128064,
          "time": 210.631263,
          "velocity": 0.3937007874015748
        },
        {
          "duration": 0.1578944999999976,
          "durationTicks": 96,
          "midi": 33,
          "name": "A1",
          "ticks": 128160,
          "time": 210.7891575,
          "velocity": 0.3937007874015748
        },
        {
          "duration": 0.1578944999999976,
          "durationTicks": 96,
          "midi": 33,
          "name": "A1",
          "ticks": 128160,
          "time": 210.7891575,
          "velocity": 0.3937007874015748
        },
        {
          "duration": 0.1578944999999976,
          "durationTicks": 96,
          "midi": 33,
          "name": "A1",
          "ticks": 128256,
          "time": 210.94705199999999,
          "velocity": 0.3937007874015748
        },
        {
          "duration": 0.1578944999999976,
          "durationTicks": 96,
          "midi": 33,
          "name": "A1",
          "ticks": 128256,
          "time": 210.94705199999999,
          "velocity": 0.3937007874015748
        },
        {
          "duration": 0.1578944999999976,
          "durationTicks": 96,
          "midi": 33,
          "name": "A1",
          "ticks": 128352,
          "time": 211.10494649999998,
          "velocity": 0.3937007874015748
        },
        {
          "duration": 0.1578944999999976,
          "durationTicks": 96,
          "midi": 33,
          "name": "A1",
          "ticks": 128352,
          "time": 211.10494649999998,
          "velocity": 0.3937007874015748
        },
        {
          "duration": 0.1578944999999976,
          "durationTicks": 96,
          "midi": 33,
          "name": "A1",
          "ticks": 128448,
          "time": 211.26284099999998,
          "velocity": 0.3937007874015748
        },
        {
          "duration": 0.1578944999999976,
          "durationTicks": 96,
          "midi": 33,
          "name": "A1",
          "ticks": 128448,
          "time": 211.26284099999998,
          "velocity": 0.3937007874015748
        },
        {
          "duration": 0.15789450000002603,
          "durationTicks": 96,
          "midi": 33,
          "name": "A1",
          "ticks": 128544,
          "time": 211.42073549999998,
          "velocity": 0.3937007874015748
        },
        {
          "duration": 0.15789450000002603,
          "durationTicks": 96,
          "midi": 33,
          "name": "A1",
          "ticks": 128544,
          "time": 211.42073549999998,
          "velocity": 0.3937007874015748
        },
        {
          "duration": 0.3157889999999952,
          "durationTicks": 192,
          "midi": 33,
          "name": "A1",
          "ticks": 128640,
          "time": 211.57863,
          "velocity": 0.3937007874015748
        },
        {
          "duration": 0.3157889999999952,
          "durationTicks": 192,
          "midi": 33,
          "name": "A1",
          "ticks": 128640,
          "time": 211.57863,
          "velocity": 0.3937007874015748
        },
        {
          "duration": 0.1578944999999976,
          "durationTicks": 96,
          "midi": 33,
          "name": "A1",
          "ticks": 128832,
          "time": 211.894419,
          "velocity": 0.3937007874015748
        },
        {
          "duration": 0.1578944999999976,
          "durationTicks": 96,
          "midi": 33,
          "name": "A1",
          "ticks": 128832,
          "time": 211.894419,
          "velocity": 0.3937007874015748
        },
        {
          "duration": 0.1578944999999976,
          "durationTicks": 96,
          "midi": 33,
          "name": "A1",
          "ticks": 128928,
          "time": 212.0523135,
          "velocity": 0.3937007874015748
        },
        {
          "duration": 0.1578944999999976,
          "durationTicks": 96,
          "midi": 33,
          "name": "A1",
          "ticks": 128928,
          "time": 212.0523135,
          "velocity": 0.3937007874015748
        },
        {
          "duration": 0.1578944999999976,
          "durationTicks": 96,
          "midi": 32,
          "name": "G#1",
          "ticks": 129024,
          "time": 212.210208,
          "velocity": 0.3937007874015748
        },
        {
          "duration": 0.4736834999999928,
          "durationTicks": 288,
          "midi": 32,
          "name": "G#1",
          "ticks": 129024,
          "time": 212.210208,
          "velocity": 0.3937007874015748
        },
        {
          "duration": 0.1578944999999976,
          "durationTicks": 96,
          "midi": 32,
          "name": "G#1",
          "ticks": 129312,
          "time": 212.6838915,
          "velocity": 0.3937007874015748
        },
        {
          "duration": 0.1578944999999976,
          "durationTicks": 96,
          "midi": 32,
          "name": "G#1",
          "ticks": 129312,
          "time": 212.6838915,
          "velocity": 0.3937007874015748
        },
        {
          "duration": 0.1578944999999976,
          "durationTicks": 96,
          "midi": 32,
          "name": "G#1",
          "ticks": 129408,
          "time": 212.84178599999998,
          "velocity": 0.3937007874015748
        },
        {
          "duration": 0.3157889999999952,
          "durationTicks": 192,
          "midi": 32,
          "name": "G#1",
          "ticks": 129408,
          "time": 212.84178599999998,
          "velocity": 0.3937007874015748
        },
        {
          "duration": 0.1578944999999976,
          "durationTicks": 96,
          "midi": 32,
          "name": "G#1",
          "ticks": 129600,
          "time": 213.15757499999998,
          "velocity": 0.3937007874015748
        },
        {
          "duration": 0.1578944999999976,
          "durationTicks": 96,
          "midi": 32,
          "name": "G#1",
          "ticks": 129600,
          "time": 213.15757499999998,
          "velocity": 0.3937007874015748
        },
        {
          "duration": 0.15789450000002603,
          "durationTicks": 96,
          "midi": 32,
          "name": "G#1",
          "ticks": 129696,
          "time": 213.31546949999998,
          "velocity": 0.3937007874015748
        },
        {
          "duration": 0.15789450000002603,
          "durationTicks": 96,
          "midi": 32,
          "name": "G#1",
          "ticks": 129696,
          "time": 213.31546949999998,
          "velocity": 0.3937007874015748
        },
        {
          "duration": 0.1578944999999976,
          "durationTicks": 96,
          "midi": 32,
          "name": "G#1",
          "ticks": 129792,
          "time": 213.473364,
          "velocity": 0.3937007874015748
        },
        {
          "duration": 0.1578944999999976,
          "durationTicks": 96,
          "midi": 32,
          "name": "G#1",
          "ticks": 129792,
          "time": 213.473364,
          "velocity": 0.3937007874015748
        },
        {
          "duration": 0.1578944999999976,
          "durationTicks": 96,
          "midi": 32,
          "name": "G#1",
          "ticks": 129888,
          "time": 213.6312585,
          "velocity": 0.3937007874015748
        },
        {
          "duration": 0.1578944999999976,
          "durationTicks": 96,
          "midi": 32,
          "name": "G#1",
          "ticks": 129888,
          "time": 213.6312585,
          "velocity": 0.3937007874015748
        },
        {
          "duration": 0.1578944999999976,
          "durationTicks": 96,
          "midi": 32,
          "name": "G#1",
          "ticks": 129984,
          "time": 213.789153,
          "velocity": 0.3937007874015748
        },
        {
          "duration": 0.1578944999999976,
          "durationTicks": 96,
          "midi": 32,
          "name": "G#1",
          "ticks": 129984,
          "time": 213.789153,
          "velocity": 0.3937007874015748
        },
        {
          "duration": 0.1578944999999976,
          "durationTicks": 96,
          "midi": 32,
          "name": "G#1",
          "ticks": 130080,
          "time": 213.9470475,
          "velocity": 0.3937007874015748
        },
        {
          "duration": 0.1578944999999976,
          "durationTicks": 96,
          "midi": 32,
          "name": "G#1",
          "ticks": 130080,
          "time": 213.9470475,
          "velocity": 0.3937007874015748
        },
        {
          "duration": 0.3157889999999952,
          "durationTicks": 192,
          "midi": 32,
          "name": "G#1",
          "ticks": 130176,
          "time": 214.104942,
          "velocity": 0.3937007874015748
        },
        {
          "duration": 0.3157889999999952,
          "durationTicks": 192,
          "midi": 32,
          "name": "G#1",
          "ticks": 130176,
          "time": 214.104942,
          "velocity": 0.3937007874015748
        },
        {
          "duration": 0.1578944999999976,
          "durationTicks": 96,
          "midi": 32,
          "name": "G#1",
          "ticks": 130368,
          "time": 214.420731,
          "velocity": 0.3937007874015748
        },
        {
          "duration": 0.1578944999999976,
          "durationTicks": 96,
          "midi": 32,
          "name": "G#1",
          "ticks": 130368,
          "time": 214.420731,
          "velocity": 0.3937007874015748
        },
        {
          "duration": 0.1578944999999976,
          "durationTicks": 96,
          "midi": 32,
          "name": "G#1",
          "ticks": 130464,
          "time": 214.5786255,
          "velocity": 0.3937007874015748
        },
        {
          "duration": 0.1578944999999976,
          "durationTicks": 96,
          "midi": 32,
          "name": "G#1",
          "ticks": 130464,
          "time": 214.5786255,
          "velocity": 0.3937007874015748
        }
      ],
      "endOfTrackTicks": 130560
    },
    {
      "channel": 2,
      "controlChanges": {},
      "pitchBends": [],
      "instrument": {
        "family": "piano",
        "number": 0,
        "name": "acoustic grand piano"
      },
      "name": "Grand Piano (Classic)",
      "notes": [
        {
          "duration": 0.315789,
          "durationTicks": 192,
          "midi": 37,
          "name": "C#2",
          "ticks": 0,
          "time": 0,
          "velocity": 0.3937007874015748
        },
        {
          "duration": 0.315789,
          "durationTicks": 192,
          "midi": 49,
          "name": "C#3",
          "ticks": 192,
          "time": 0.315789,
          "velocity": 0.3937007874015748
        },
        {
          "duration": 0.15789450000000005,
          "durationTicks": 96,
          "midi": 44,
          "name": "G#2",
          "ticks": 384,
          "time": 0.631578,
          "velocity": 0.3937007874015748
        },
        {
          "duration": 0.3157890000000001,
          "durationTicks": 192,
          "midi": 43,
          "name": "G2",
          "ticks": 672,
          "time": 1.1052615,
          "velocity": 0.3937007874015748
        },
        {
          "duration": 0.3157889999999999,
          "durationTicks": 192,
          "midi": 42,
          "name": "F#2",
          "ticks": 960,
          "time": 1.578945,
          "velocity": 0.3937007874015748
        },
        {
          "duration": 0.15789450000000005,
          "durationTicks": 96,
          "midi": 40,
          "name": "E2",
          "ticks": 1152,
          "time": 1.894734,
          "velocity": 0.3937007874015748
        },
        {
          "duration": 0.15789449999999983,
          "durationTicks": 96,
          "midi": 37,
          "name": "C#2",
          "ticks": 1248,
          "time": 2.0526285,
          "velocity": 0.3937007874015748
        },
        {
          "duration": 0.15789450000000027,
          "durationTicks": 96,
          "midi": 40,
          "name": "E2",
          "ticks": 1344,
          "time": 2.210523,
          "velocity": 0.3937007874015748
        },
        {
          "duration": 0.15789449999999983,
          "durationTicks": 96,
          "midi": 42,
          "name": "F#2",
          "ticks": 1440,
          "time": 2.3684175,
          "velocity": 0.3937007874015748
        },
        {
          "duration": 0.3157890000000001,
          "durationTicks": 192,
          "midi": 35,
          "name": "B1",
          "ticks": 1536,
          "time": 2.526312,
          "velocity": 0.3937007874015748
        },
        {
          "duration": 0.3157890000000001,
          "durationTicks": 192,
          "midi": 49,
          "name": "C#3",
          "ticks": 1728,
          "time": 2.842101,
          "velocity": 0.3937007874015748
        },
        {
          "duration": 0.31578899999999965,
          "durationTicks": 192,
          "midi": 44,
          "name": "G#2",
          "ticks": 1920,
          "time": 3.15789,
          "velocity": 0.3937007874015748
        },
        {
          "duration": 0.3157890000000001,
          "durationTicks": 192,
          "midi": 42,
          "name": "F#2",
          "ticks": 2112,
          "time": 3.4736789999999997,
          "velocity": 0.3937007874015748
        },
        {
          "duration": 0.3157890000000001,
          "durationTicks": 192,
          "midi": 40,
          "name": "E2",
          "ticks": 2304,
          "time": 3.789468,
          "velocity": 0.3937007874015748
        },
        {
          "duration": 0.15789450000000027,
          "durationTicks": 96,
          "midi": 39,
          "name": "D#2",
          "ticks": 2496,
          "time": 4.105257,
          "velocity": 0.3937007874015748
        },
        {
          "duration": 0.15789449999999938,
          "durationTicks": 96,
          "midi": 40,
          "name": "E2",
          "ticks": 2592,
          "time": 4.2631515,
          "velocity": 0.3937007874015748
        },
        {
          "duration": 0.15789450000000027,
          "durationTicks": 96,
          "midi": 39,
          "name": "D#2",
          "ticks": 2688,
          "time": 4.421046,
          "velocity": 0.3937007874015748
        },
        {
          "duration": 0.15789450000000027,
          "durationTicks": 96,
          "midi": 37,
          "name": "C#2",
          "ticks": 2784,
          "time": 4.5789405,
          "velocity": 0.3937007874015748
        },
        {
          "duration": 0.15789449999999938,
          "durationTicks": 96,
          "midi": 35,
          "name": "B1",
          "ticks": 2880,
          "time": 4.736835,
          "velocity": 0.3937007874015748
        },
        {
          "duration": 0.15789450000000027,
          "durationTicks": 96,
          "midi": 32,
          "name": "G#1",
          "ticks": 2976,
          "time": 4.8947294999999995,
          "velocity": 0.3937007874015748
        },
        {
          "duration": 0.15789450000000027,
          "durationTicks": 96,
          "midi": 33,
          "name": "A1",
          "ticks": 3072,
          "time": 5.052624,
          "velocity": 0.3937007874015748
        },
        {
          "duration": 0.15789449999999938,
          "durationTicks": 96,
          "midi": 33,
          "name": "A1",
          "ticks": 3168,
          "time": 5.2105185,
          "velocity": 0.3937007874015748
        },
        {
          "duration": 0.31578900000000054,
          "durationTicks": 192,
          "midi": 49,
          "name": "C#3",
          "ticks": 3264,
          "time": 5.368412999999999,
          "velocity": 0.3937007874015748
        },
        {
          "duration": 0.31578899999999965,
          "durationTicks": 192,
          "midi": 44,
          "name": "G#2",
          "ticks": 3456,
          "time": 5.684202,
          "velocity": 0.3937007874015748
        },
        {
          "duration": 0.15789450000000027,
          "durationTicks": 96,
          "midi": 49,
          "name": "C#3",
          "ticks": 3648,
          "time": 5.999991,
          "velocity": 0.3937007874015748
        },
        {
          "duration": 0.15789450000000027,
          "durationTicks": 96,
          "midi": 45,
          "name": "A2",
          "ticks": 3744,
          "time": 6.1578855,
          "velocity": 0.3937007874015748
        },
        {
          "duration": 0.15789449999999938,
          "durationTicks": 96,
          "midi": 49,
          "name": "C#3",
          "ticks": 3840,
          "time": 6.31578,
          "velocity": 0.3937007874015748
        },
        {
          "duration": 0.15789450000000027,
          "durationTicks": 96,
          "midi": 47,
          "name": "B2",
          "ticks": 3936,
          "time": 6.4736744999999996,
          "velocity": 0.3937007874015748
        },
        {
          "duration": 0.31578899999999965,
          "durationTicks": 192,
          "midi": 44,
          "name": "G#2",
          "ticks": 4032,
          "time": 6.631569,
          "velocity": 0.3937007874015748
        },
        {
          "duration": 0.31578900000000054,
          "durationTicks": 192,
          "midi": 42,
          "name": "F#2",
          "ticks": 4224,
          "time": 6.9473579999999995,
          "velocity": 0.3937007874015748
        },
        {
          "duration": 0.15789449999999938,
          "durationTicks": 96,
          "midi": 44,
          "name": "G#2",
          "ticks": 4416,
          "time": 7.263147,
          "velocity": 0.3937007874015748
        },
        {
          "duration": 0.15789450000000027,
          "durationTicks": 96,
          "midi": 40,
          "name": "E2",
          "ticks": 4512,
          "time": 7.421041499999999,
          "velocity": 0.3937007874015748
        },
        {
          "duration": 0.31578899999999965,
          "durationTicks": 192,
          "midi": 32,
          "name": "G#1",
          "ticks": 4608,
          "time": 7.578936,
          "velocity": 0.3937007874015748
        },
        {
          "duration": 0.31578900000000054,
          "durationTicks": 192,
          "midi": 49,
          "name": "C#3",
          "ticks": 4800,
          "time": 7.894724999999999,
          "velocity": 0.3937007874015748
        },
        {
          "duration": 0.31578900000000054,
          "durationTicks": 192,
          "midi": 32,
          "name": "G#1",
          "ticks": 4992,
          "time": 8.210514,
          "velocity": 0.3937007874015748
        },
        {
          "duration": 0.31578899999999877,
          "durationTicks": 192,
          "midi": 49,
          "name": "C#3",
          "ticks": 5184,
          "time": 8.526303,
          "velocity": 0.3937007874015748
        },
        {
          "duration": 0.31578900000000054,
          "durationTicks": 192,
          "midi": 31,
          "name": "G1",
          "ticks": 5376,
          "time": 8.842092,
          "velocity": 0.3937007874015748
        },
        {
          "duration": 0.31578900000000054,
          "durationTicks": 192,
          "midi": 49,
          "name": "C#3",
          "ticks": 5568,
          "time": 9.157881,
          "velocity": 0.3937007874015748
        },
        {
          "duration": 0.31578899999999877,
          "durationTicks": 192,
          "midi": 33,
          "name": "A1",
          "ticks": 5760,
          "time": 9.47367,
          "velocity": 0.3937007874015748
        },
        {
          "duration": 0.31578900000000054,
          "durationTicks": 192,
          "midi": 51,
          "name": "D#3",
          "ticks": 5952,
          "time": 9.789458999999999,
          "velocity": 0.3937007874015748
        },
        {
          "duration": 0.31578900000000054,
          "durationTicks": 192,
          "midi": 37,
          "name": "C#2",
          "ticks": 6144,
          "time": 10.105248,
          "velocity": 0.3937007874015748
        },
        {
          "duration": 0.31578899999999877,
          "durationTicks": 192,
          "midi": 49,
          "name": "C#3",
          "ticks": 6336,
          "time": 10.421037,
          "velocity": 0.3937007874015748
        },
        {
          "duration": 0.15789450000000116,
          "durationTicks": 96,
          "midi": 44,
          "name": "G#2",
          "ticks": 6528,
          "time": 10.736825999999999,
          "velocity": 0.3937007874015748
        },
        {
          "duration": 0.31578900000000054,
          "durationTicks": 192,
          "midi": 43,
          "name": "G2",
          "ticks": 6816,
          "time": 11.210509499999999,
          "velocity": 0.3937007874015748
        },
        {
          "duration": 0.31578900000000054,
          "durationTicks": 192,
          "midi": 42,
          "name": "F#2",
          "ticks": 7104,
          "time": 11.684192999999999,
          "velocity": 0.3937007874015748
        },
        {
          "duration": 0.15789449999999938,
          "durationTicks": 96,
          "midi": 40,
          "name": "E2",
          "ticks": 7296,
          "time": 11.999982,
          "velocity": 0.3937007874015748
        },
        {
          "duration": 0.15789450000000116,
          "durationTicks": 96,
          "midi": 37,
          "name": "C#2",
          "ticks": 7392,
          "time": 12.157876499999999,
          "velocity": 0.3937007874015748
        },
        {
          "duration": 0.15789449999999938,
          "durationTicks": 96,
          "midi": 40,
          "name": "E2",
          "ticks": 7488,
          "time": 12.315771,
          "velocity": 0.3937007874015748
        },
        {
          "duration": 0.15789450000000116,
          "durationTicks": 96,
          "midi": 42,
          "name": "F#2",
          "ticks": 7584,
          "time": 12.4736655,
          "velocity": 0.3937007874015748
        },
        {
          "duration": 0.31578899999999877,
          "durationTicks": 192,
          "midi": 35,
          "name": "B1",
          "ticks": 7680,
          "time": 12.63156,
          "velocity": 0.3937007874015748
        },
        {
          "duration": 0.31578900000000054,
          "durationTicks": 192,
          "midi": 49,
          "name": "C#3",
          "ticks": 7872,
          "time": 12.947348999999999,
          "velocity": 0.3937007874015748
        },
        {
          "duration": 0.31578900000000054,
          "durationTicks": 192,
          "midi": 44,
          "name": "G#2",
          "ticks": 8064,
          "time": 13.263138,
          "velocity": 0.3937007874015748
        },
        {
          "duration": 0.31578899999999877,
          "durationTicks": 192,
          "midi": 42,
          "name": "F#2",
          "ticks": 8256,
          "time": 13.578927,
          "velocity": 0.3937007874015748
        },
        {
          "duration": 0.31578900000000054,
          "durationTicks": 192,
          "midi": 40,
          "name": "E2",
          "ticks": 8448,
          "time": 13.894715999999999,
          "velocity": 0.3937007874015748
        },
        {
          "duration": 0.15789449999999938,
          "durationTicks": 96,
          "midi": 39,
          "name": "D#2",
          "ticks": 8640,
          "time": 14.210505,
          "velocity": 0.3937007874015748
        },
        {
          "duration": 0.15789450000000116,
          "durationTicks": 96,
          "midi": 40,
          "name": "E2",
          "ticks": 8736,
          "time": 14.368399499999999,
          "velocity": 0.3937007874015748
        },
        {
          "duration": 0.15789449999999938,
          "durationTicks": 96,
          "midi": 39,
          "name": "D#2",
          "ticks": 8832,
          "time": 14.526294,
          "velocity": 0.3937007874015748
        },
        {
          "duration": 0.15789449999999938,
          "durationTicks": 96,
          "midi": 37,
          "name": "C#2",
          "ticks": 8928,
          "time": 14.6841885,
          "velocity": 0.3937007874015748
        },
        {
          "duration": 0.15789450000000116,
          "durationTicks": 96,
          "midi": 35,
          "name": "B1",
          "ticks": 9024,
          "time": 14.842082999999999,
          "velocity": 0.3937007874015748
        },
        {
          "duration": 0.15789449999999938,
          "durationTicks": 96,
          "midi": 32,
          "name": "G#1",
          "ticks": 9120,
          "time": 14.9999775,
          "velocity": 0.3937007874015748
        },
        {
          "duration": 0.15789449999999938,
          "durationTicks": 96,
          "midi": 33,
          "name": "A1",
          "ticks": 9216,
          "time": 15.157872,
          "velocity": 0.3937007874015748
        },
        {
          "duration": 0.15789450000000116,
          "durationTicks": 96,
          "midi": 33,
          "name": "A1",
          "ticks": 9312,
          "time": 15.315766499999999,
          "velocity": 0.3937007874015748
        },
        {
          "duration": 0.31578899999999877,
          "durationTicks": 192,
          "midi": 49,
          "name": "C#3",
          "ticks": 9408,
          "time": 15.473661,
          "velocity": 0.3937007874015748
        },
        {
          "duration": 0.3157890000000023,
          "durationTicks": 192,
          "midi": 44,
          "name": "G#2",
          "ticks": 9600,
          "time": 15.789449999999999,
          "velocity": 0.3937007874015748
        },
        {
          "duration": 0.1578944999999976,
          "durationTicks": 96,
          "midi": 49,
          "name": "C#3",
          "ticks": 9792,
          "time": 16.105239,
          "velocity": 0.3937007874015748
        },
        {
          "duration": 0.15789450000000116,
          "durationTicks": 96,
          "midi": 45,
          "name": "A2",
          "ticks": 9888,
          "time": 16.2631335,
          "velocity": 0.3937007874015748
        },
        {
          "duration": 0.15789450000000116,
          "durationTicks": 96,
          "midi": 49,
          "name": "C#3",
          "ticks": 9984,
          "time": 16.421028,
          "velocity": 0.3937007874015748
        },
        {
          "duration": 0.1578944999999976,
          "durationTicks": 96,
          "midi": 47,
          "name": "B2",
          "ticks": 10080,
          "time": 16.5789225,
          "velocity": 0.3937007874015748
        },
        {
          "duration": 0.3157890000000023,
          "durationTicks": 192,
          "midi": 44,
          "name": "G#2",
          "ticks": 10176,
          "time": 16.736817,
          "velocity": 0.3937007874015748
        },
        {
          "duration": 0.31578899999999877,
          "durationTicks": 192,
          "midi": 42,
          "name": "F#2",
          "ticks": 10368,
          "time": 17.052606,
          "velocity": 0.3937007874015748
        },
        {
          "duration": 0.15789450000000116,
          "durationTicks": 96,
          "midi": 44,
          "name": "G#2",
          "ticks": 10560,
          "time": 17.368395,
          "velocity": 0.3937007874015748
        },
        {
          "duration": 0.1578944999999976,
          "durationTicks": 96,
          "midi": 40,
          "name": "E2",
          "ticks": 10656,
          "time": 17.5262895,
          "velocity": 0.3937007874015748
        },
        {
          "duration": 0.3157890000000023,
          "durationTicks": 192,
          "midi": 32,
          "name": "G#1",
          "ticks": 10752,
          "time": 17.684184,
          "velocity": 0.3937007874015748
        },
        {
          "duration": 0.31578899999999877,
          "durationTicks": 192,
          "midi": 49,
          "name": "C#3",
          "ticks": 10944,
          "time": 17.999973,
          "velocity": 0.3937007874015748
        },
        {
          "duration": 0.31578899999999877,
          "durationTicks": 192,
          "midi": 32,
          "name": "G#1",
          "ticks": 11136,
          "time": 18.315762,
          "velocity": 0.3937007874015748
        },
        {
          "duration": 0.3157890000000023,
          "durationTicks": 192,
          "midi": 49,
          "name": "C#3",
          "ticks": 11328,
          "time": 18.631550999999998,
          "velocity": 0.3937007874015748
        },
        {
          "duration": 0.31578899999999877,
          "durationTicks": 192,
          "midi": 31,
          "name": "G1",
          "ticks": 11520,
          "time": 18.94734,
          "velocity": 0.3937007874015748
        },
        {
          "duration": 0.31578899999999877,
          "durationTicks": 192,
          "midi": 49,
          "name": "C#3",
          "ticks": 11712,
          "time": 19.263129,
          "velocity": 0.3937007874015748
        },
        {
          "duration": 0.3157890000000023,
          "durationTicks": 192,
          "midi": 33,
          "name": "A1",
          "ticks": 11904,
          "time": 19.578917999999998,
          "velocity": 0.3937007874015748
        },
        {
          "duration": 0.31578899999999877,
          "durationTicks": 192,
          "midi": 51,
          "name": "D#3",
          "ticks": 12096,
          "time": 19.894707,
          "velocity": 0.3937007874015748
        },
        {
          "duration": 0.31578899999999877,
          "durationTicks": 192,
          "midi": 37,
          "name": "C#2",
          "ticks": 12288,
          "time": 20.210496,
          "velocity": 0.3937007874015748
        },
        {
          "duration": 0.3157890000000023,
          "durationTicks": 192,
          "midi": 49,
          "name": "C#3",
          "ticks": 12480,
          "time": 20.526284999999998,
          "velocity": 0.3937007874015748
        },
        {
          "duration": 0.1578944999999976,
          "durationTicks": 96,
          "midi": 44,
          "name": "G#2",
          "ticks": 12672,
          "time": 20.842074,
          "velocity": 0.3937007874015748
        },
        {
          "duration": 0.31578899999999877,
          "durationTicks": 192,
          "midi": 43,
          "name": "G2",
          "ticks": 12960,
          "time": 21.3157575,
          "velocity": 0.3937007874015748
        },
        {
          "duration": 0.31578899999999877,
          "durationTicks": 192,
          "midi": 42,
          "name": "F#2",
          "ticks": 13248,
          "time": 21.789441,
          "velocity": 0.3937007874015748
        },
        {
          "duration": 0.15789450000000116,
          "durationTicks": 96,
          "midi": 40,
          "name": "E2",
          "ticks": 13440,
          "time": 22.10523,
          "velocity": 0.3937007874015748
        },
        {
          "duration": 0.1578944999999976,
          "durationTicks": 96,
          "midi": 37,
          "name": "C#2",
          "ticks": 13536,
          "time": 22.2631245,
          "velocity": 0.3937007874015748
        },
        {
          "duration": 0.15789450000000116,
          "durationTicks": 96,
          "midi": 40,
          "name": "E2",
          "ticks": 13632,
          "time": 22.421018999999998,
          "velocity": 0.3937007874015748
        },
        {
          "duration": 0.15789450000000116,
          "durationTicks": 96,
          "midi": 42,
          "name": "F#2",
          "ticks": 13728,
          "time": 22.5789135,
          "velocity": 0.3937007874015748
        },
        {
          "duration": 0.31578899999999877,
          "durationTicks": 192,
          "midi": 35,
          "name": "B1",
          "ticks": 13824,
          "time": 22.736808,
          "velocity": 0.3937007874015748
        },
        {
          "duration": 0.31578899999999877,
          "durationTicks": 192,
          "midi": 49,
          "name": "C#3",
          "ticks": 14016,
          "time": 23.052597,
          "velocity": 0.3937007874015748
        },
        {
          "duration": 0.3157890000000023,
          "durationTicks": 192,
          "midi": 44,
          "name": "G#2",
          "ticks": 14208,
          "time": 23.368385999999997,
          "velocity": 0.3937007874015748
        },
        {
          "duration": 0.31578899999999877,
          "durationTicks": 192,
          "midi": 42,
          "name": "F#2",
          "ticks": 14400,
          "time": 23.684175,
          "velocity": 0.3937007874015748
        },
        {
          "duration": 0.31578899999999877,
          "durationTicks": 192,
          "midi": 40,
          "name": "E2",
          "ticks": 14592,
          "time": 23.999964,
          "velocity": 0.3937007874015748
        },
        {
          "duration": 0.15789450000000116,
          "durationTicks": 96,
          "midi": 39,
          "name": "D#2",
          "ticks": 14784,
          "time": 24.315752999999997,
          "velocity": 0.3937007874015748
        },
        {
          "duration": 0.15789450000000116,
          "durationTicks": 96,
          "midi": 40,
          "name": "E2",
          "ticks": 14880,
          "time": 24.4736475,
          "velocity": 0.3937007874015748
        },
        {
          "duration": 0.1578944999999976,
          "durationTicks": 96,
          "midi": 39,
          "name": "D#2",
          "ticks": 14976,
          "time": 24.631542,
          "velocity": 0.3937007874015748
        },
        {
          "duration": 0.15789450000000116,
          "durationTicks": 96,
          "midi": 37,
          "name": "C#2",
          "ticks": 15072,
          "time": 24.789436499999997,
          "velocity": 0.3937007874015748
        },
        {
          "duration": 0.15789450000000116,
          "durationTicks": 96,
          "midi": 35,
          "name": "B1",
          "ticks": 15168,
          "time": 24.947331,
          "velocity": 0.3937007874015748
        },
        {
          "duration": 0.15789450000000116,
          "durationTicks": 96,
          "midi": 32,
          "name": "G#1",
          "ticks": 15264,
          "time": 25.1052255,
          "velocity": 0.3937007874015748
        },
        {
          "duration": 0.1578944999999976,
          "durationTicks": 96,
          "midi": 33,
          "name": "A1",
          "ticks": 15360,
          "time": 25.26312,
          "velocity": 0.3937007874015748
        },
        {
          "duration": 0.15789450000000116,
          "durationTicks": 96,
          "midi": 33,
          "name": "A1",
          "ticks": 15456,
          "time": 25.4210145,
          "velocity": 0.3937007874015748
        },
        {
          "duration": 0.31578899999999877,
          "durationTicks": 192,
          "midi": 49,
          "name": "C#3",
          "ticks": 15552,
          "time": 25.578909,
          "velocity": 0.3937007874015748
        },
        {
          "duration": 0.3157890000000023,
          "durationTicks": 192,
          "midi": 44,
          "name": "G#2",
          "ticks": 15744,
          "time": 25.894697999999998,
          "velocity": 0.3937007874015748
        },
        {
          "duration": 0.1578944999999976,
          "durationTicks": 96,
          "midi": 49,
          "name": "C#3",
          "ticks": 15936,
          "time": 26.210487,
          "velocity": 0.3937007874015748
        },
        {
          "duration": 0.15789450000000116,
          "durationTicks": 96,
          "midi": 45,
          "name": "A2",
          "ticks": 16032,
          "time": 26.368381499999998,
          "velocity": 0.3937007874015748
        },
        {
          "duration": 0.15789450000000116,
          "durationTicks": 96,
          "midi": 49,
          "name": "C#3",
          "ticks": 16128,
          "time": 26.526276,
          "velocity": 0.3937007874015748
        },
        {
          "duration": 0.1578944999999976,
          "durationTicks": 96,
          "midi": 47,
          "name": "B2",
          "ticks": 16224,
          "time": 26.6841705,
          "velocity": 0.3937007874015748
        },
        {
          "duration": 0.3157890000000023,
          "durationTicks": 192,
          "midi": 44,
          "name": "G#2",
          "ticks": 16320,
          "time": 26.842064999999998,
          "velocity": 0.3937007874015748
        },
        {
          "duration": 0.31578899999999877,
          "durationTicks": 192,
          "midi": 42,
          "name": "F#2",
          "ticks": 16512,
          "time": 27.157854,
          "velocity": 0.3937007874015748
        },
        {
          "duration": 0.15789450000000116,
          "durationTicks": 96,
          "midi": 44,
          "name": "G#2",
          "ticks": 16704,
          "time": 27.473643,
          "velocity": 0.3937007874015748
        },
        {
          "duration": 0.1578944999999976,
          "durationTicks": 96,
          "midi": 40,
          "name": "E2",
          "ticks": 16800,
          "time": 27.6315375,
          "velocity": 0.3937007874015748
        },
        {
          "duration": 0.3157890000000023,
          "durationTicks": 192,
          "midi": 32,
          "name": "G#1",
          "ticks": 16896,
          "time": 27.789431999999998,
          "velocity": 0.3937007874015748
        },
        {
          "duration": 0.31578899999999877,
          "durationTicks": 192,
          "midi": 49,
          "name": "C#3",
          "ticks": 17088,
          "time": 28.105221,
          "velocity": 0.3937007874015748
        },
        {
          "duration": 0.31578899999999877,
          "durationTicks": 192,
          "midi": 32,
          "name": "G#1",
          "ticks": 17280,
          "time": 28.42101,
          "velocity": 0.3937007874015748
        },
        {
          "duration": 0.3157890000000023,
          "durationTicks": 192,
          "midi": 49,
          "name": "C#3",
          "ticks": 17472,
          "time": 28.736798999999998,
          "velocity": 0.3937007874015748
        },
        {
          "duration": 0.31578899999999877,
          "durationTicks": 192,
          "midi": 31,
          "name": "G1",
          "ticks": 17664,
          "time": 29.052588,
          "velocity": 0.3937007874015748
        },
        {
          "duration": 0.31578899999999877,
          "durationTicks": 192,
          "midi": 49,
          "name": "C#3",
          "ticks": 17856,
          "time": 29.368377,
          "velocity": 0.3937007874015748
        },
        {
          "duration": 0.3157890000000023,
          "durationTicks": 192,
          "midi": 33,
          "name": "A1",
          "ticks": 18048,
          "time": 29.684165999999998,
          "velocity": 0.3937007874015748
        },
        {
          "duration": 0.31578899999999877,
          "durationTicks": 192,
          "midi": 51,
          "name": "D#3",
          "ticks": 18240,
          "time": 29.999955,
          "velocity": 0.3937007874015748
        },
        {
          "duration": 0.31578899999999877,
          "durationTicks": 192,
          "midi": 37,
          "name": "C#2",
          "ticks": 18432,
          "time": 30.315744,
          "velocity": 0.3937007874015748
        },
        {
          "duration": 0.3157890000000023,
          "durationTicks": 192,
          "midi": 49,
          "name": "C#3",
          "ticks": 18624,
          "time": 30.631532999999997,
          "velocity": 0.3937007874015748
        },
        {
          "duration": 0.1578944999999976,
          "durationTicks": 96,
          "midi": 44,
          "name": "G#2",
          "ticks": 18816,
          "time": 30.947322,
          "velocity": 0.3937007874015748
        },
        {
          "duration": 0.31578899999999877,
          "durationTicks": 192,
          "midi": 43,
          "name": "G2",
          "ticks": 19104,
          "time": 31.4210055,
          "velocity": 0.3937007874015748
        },
        {
          "duration": 0.3157890000000023,
          "durationTicks": 192,
          "midi": 42,
          "name": "F#2",
          "ticks": 19392,
          "time": 31.894689,
          "velocity": 0.3937007874015748
        },
        {
          "duration": 0.1578944999999976,
          "durationTicks": 96,
          "midi": 40,
          "name": "E2",
          "ticks": 19584,
          "time": 32.210478,
          "velocity": 0.3937007874015748
        },
        {
          "duration": 0.1578944999999976,
          "durationTicks": 96,
          "midi": 37,
          "name": "C#2",
          "ticks": 19680,
          "time": 32.3683725,
          "velocity": 0.3937007874015748
        },
        {
          "duration": 0.1578945000000047,
          "durationTicks": 96,
          "midi": 40,
          "name": "E2",
          "ticks": 19776,
          "time": 32.526267,
          "velocity": 0.3937007874015748
        },
        {
          "duration": 0.1578944999999976,
          "durationTicks": 96,
          "midi": 42,
          "name": "F#2",
          "ticks": 19872,
          "time": 32.6841615,
          "velocity": 0.3937007874015748
        },
        {
          "duration": 0.3157890000000023,
          "durationTicks": 192,
          "midi": 35,
          "name": "B1",
          "ticks": 19968,
          "time": 32.842056,
          "velocity": 0.3937007874015748
        },
        {
          "duration": 0.3157889999999952,
          "durationTicks": 192,
          "midi": 49,
          "name": "C#3",
          "ticks": 20160,
          "time": 33.157845,
          "velocity": 0.3937007874015748
        },
        {
          "duration": 0.3157890000000023,
          "durationTicks": 192,
          "midi": 44,
          "name": "G#2",
          "ticks": 20352,
          "time": 33.473634,
          "velocity": 0.3937007874015748
        },
        {
          "duration": 0.3157890000000023,
          "durationTicks": 192,
          "midi": 42,
          "name": "F#2",
          "ticks": 20544,
          "time": 33.789423,
          "velocity": 0.3937007874015748
        },
        {
          "duration": 0.3157889999999952,
          "durationTicks": 192,
          "midi": 40,
          "name": "E2",
          "ticks": 20736,
          "time": 34.105212,
          "velocity": 0.3937007874015748
        },
        {
          "duration": 0.1578945000000047,
          "durationTicks": 96,
          "midi": 39,
          "name": "D#2",
          "ticks": 20928,
          "time": 34.421001,
          "velocity": 0.3937007874015748
        },
        {
          "duration": 0.1578944999999976,
          "durationTicks": 96,
          "midi": 40,
          "name": "E2",
          "ticks": 21024,
          "time": 34.5788955,
          "velocity": 0.3937007874015748
        },
        {
          "duration": 0.1578944999999976,
          "durationTicks": 96,
          "midi": 39,
          "name": "D#2",
          "ticks": 21120,
          "time": 34.73679,
          "velocity": 0.3937007874015748
        },
        {
          "duration": 0.1578945000000047,
          "durationTicks": 96,
          "midi": 37,
          "name": "C#2",
          "ticks": 21216,
          "time": 34.8946845,
          "velocity": 0.3937007874015748
        },
        {
          "duration": 0.1578944999999976,
          "durationTicks": 96,
          "midi": 35,
          "name": "B1",
          "ticks": 21312,
          "time": 35.052579,
          "velocity": 0.3937007874015748
        },
        {
          "duration": 0.1578944999999976,
          "durationTicks": 96,
          "midi": 32,
          "name": "G#1",
          "ticks": 21408,
          "time": 35.2104735,
          "velocity": 0.3937007874015748
        },
        {
          "duration": 0.1578945000000047,
          "durationTicks": 96,
          "midi": 33,
          "name": "A1",
          "ticks": 21504,
          "time": 35.368368,
          "velocity": 0.3937007874015748
        },
        {
          "duration": 0.1578944999999976,
          "durationTicks": 96,
          "midi": 33,
          "name": "A1",
          "ticks": 21600,
          "time": 35.5262625,
          "velocity": 0.3937007874015748
        },
        {
          "duration": 0.3157890000000023,
          "durationTicks": 192,
          "midi": 49,
          "name": "C#3",
          "ticks": 21696,
          "time": 35.684157,
          "velocity": 0.3937007874015748
        },
        {
          "duration": 0.3157889999999952,
          "durationTicks": 192,
          "midi": 44,
          "name": "G#2",
          "ticks": 21888,
          "time": 35.999946,
          "velocity": 0.3937007874015748
        },
        {
          "duration": 0.1578945000000047,
          "durationTicks": 96,
          "midi": 49,
          "name": "C#3",
          "ticks": 22080,
          "time": 36.315735,
          "velocity": 0.3937007874015748
        },
        {
          "duration": 0.1578944999999976,
          "durationTicks": 96,
          "midi": 45,
          "name": "A2",
          "ticks": 22176,
          "time": 36.4736295,
          "velocity": 0.3937007874015748
        },
        {
          "duration": 0.1578944999999976,
          "durationTicks": 96,
          "midi": 49,
          "name": "C#3",
          "ticks": 22272,
          "time": 36.631524,
          "velocity": 0.3937007874015748
        },
        {
          "duration": 0.1578945000000047,
          "durationTicks": 96,
          "midi": 47,
          "name": "B2",
          "ticks": 22368,
          "time": 36.7894185,
          "velocity": 0.3937007874015748
        },
        {
          "duration": 0.3157889999999952,
          "durationTicks": 192,
          "midi": 44,
          "name": "G#2",
          "ticks": 22464,
          "time": 36.947313,
          "velocity": 0.3937007874015748
        },
        {
          "duration": 0.3157890000000023,
          "durationTicks": 192,
          "midi": 42,
          "name": "F#2",
          "ticks": 22656,
          "time": 37.263101999999996,
          "velocity": 0.3937007874015748
        },
        {
          "duration": 0.1578944999999976,
          "durationTicks": 96,
          "midi": 44,
          "name": "G#2",
          "ticks": 22848,
          "time": 37.578891,
          "velocity": 0.3937007874015748
        },
        {
          "duration": 0.1578945000000047,
          "durationTicks": 96,
          "midi": 40,
          "name": "E2",
          "ticks": 22944,
          "time": 37.736785499999996,
          "velocity": 0.3937007874015748
        },
        {
          "duration": 0.3157889999999952,
          "durationTicks": 192,
          "midi": 32,
          "name": "G#1",
          "ticks": 23040,
          "time": 37.89468,
          "velocity": 0.3937007874015748
        },
        {
          "duration": 0.3157890000000023,
          "durationTicks": 192,
          "midi": 49,
          "name": "C#3",
          "ticks": 23232,
          "time": 38.210468999999996,
          "velocity": 0.3937007874015748
        },
        {
          "duration": 0.3157890000000023,
          "durationTicks": 192,
          "midi": 32,
          "name": "G#1",
          "ticks": 23424,
          "time": 38.526258,
          "velocity": 0.3937007874015748
        },
        {
          "duration": 0.3157889999999952,
          "durationTicks": 192,
          "midi": 49,
          "name": "C#3",
          "ticks": 23616,
          "time": 38.842047,
          "velocity": 0.3937007874015748
        },
        {
          "duration": 0.3157890000000023,
          "durationTicks": 192,
          "midi": 31,
          "name": "G1",
          "ticks": 23808,
          "time": 39.157835999999996,
          "velocity": 0.3937007874015748
        },
        {
          "duration": 0.3157890000000023,
          "durationTicks": 192,
          "midi": 49,
          "name": "C#3",
          "ticks": 24000,
          "time": 39.473625,
          "velocity": 0.3937007874015748
        },
        {
          "duration": 0.3157889999999952,
          "durationTicks": 192,
          "midi": 33,
          "name": "A1",
          "ticks": 24192,
          "time": 39.789414,
          "velocity": 0.3937007874015748
        },
        {
          "duration": 0.3157890000000023,
          "durationTicks": 192,
          "midi": 51,
          "name": "D#3",
          "ticks": 24384,
          "time": 40.105202999999996,
          "velocity": 0.3937007874015748
        },
        {
          "duration": 0.3157890000000023,
          "durationTicks": 192,
          "midi": 37,
          "name": "C#2",
          "ticks": 24576,
          "time": 40.420992,
          "velocity": 0.3937007874015748
        },
        {
          "duration": 0.3157889999999952,
          "durationTicks": 192,
          "midi": 49,
          "name": "C#3",
          "ticks": 24768,
          "time": 40.736781,
          "velocity": 0.3937007874015748
        },
        {
          "duration": 0.1578945000000047,
          "durationTicks": 96,
          "midi": 44,
          "name": "G#2",
          "ticks": 24960,
          "time": 41.052569999999996,
          "velocity": 0.3937007874015748
        },
        {
          "duration": 0.3157890000000023,
          "durationTicks": 192,
          "midi": 43,
          "name": "G2",
          "ticks": 25248,
          "time": 41.526253499999996,
          "velocity": 0.3937007874015748
        },
        {
          "duration": 0.3157890000000023,
          "durationTicks": 192,
          "midi": 42,
          "name": "F#2",
          "ticks": 25536,
          "time": 41.999936999999996,
          "velocity": 0.3937007874015748
        },
        {
          "duration": 0.1578944999999976,
          "durationTicks": 96,
          "midi": 40,
          "name": "E2",
          "ticks": 25728,
          "time": 42.315726,
          "velocity": 0.3937007874015748
        },
        {
          "duration": 0.1578945000000047,
          "durationTicks": 96,
          "midi": 37,
          "name": "C#2",
          "ticks": 25824,
          "time": 42.473620499999996,
          "velocity": 0.3937007874015748
        },
        {
          "duration": 0.1578944999999976,
          "durationTicks": 96,
          "midi": 40,
          "name": "E2",
          "ticks": 25920,
          "time": 42.631515,
          "velocity": 0.3937007874015748
        },
        {
          "duration": 0.1578944999999976,
          "durationTicks": 96,
          "midi": 42,
          "name": "F#2",
          "ticks": 26016,
          "time": 42.7894095,
          "velocity": 0.3937007874015748
        },
        {
          "duration": 0.3157890000000023,
          "durationTicks": 192,
          "midi": 35,
          "name": "B1",
          "ticks": 26112,
          "time": 42.947303999999995,
          "velocity": 0.3937007874015748
        },
        {
          "duration": 0.3157890000000023,
          "durationTicks": 192,
          "midi": 49,
          "name": "C#3",
          "ticks": 26304,
          "time": 43.263093,
          "velocity": 0.3937007874015748
        },
        {
          "duration": 0.3157889999999952,
          "durationTicks": 192,
          "midi": 44,
          "name": "G#2",
          "ticks": 26496,
          "time": 43.578882,
          "velocity": 0.3937007874015748
        },
        {
          "duration": 0.3157890000000023,
          "durationTicks": 192,
          "midi": 42,
          "name": "F#2",
          "ticks": 26688,
          "time": 43.894670999999995,
          "velocity": 0.3937007874015748
        },
        {
          "duration": 0.3157890000000023,
          "durationTicks": 192,
          "midi": 40,
          "name": "E2",
          "ticks": 26880,
          "time": 44.21046,
          "velocity": 0.3937007874015748
        },
        {
          "duration": 0.1578944999999976,
          "durationTicks": 96,
          "midi": 39,
          "name": "D#2",
          "ticks": 27072,
          "time": 44.526249,
          "velocity": 0.3937007874015748
        },
        {
          "duration": 0.1578944999999976,
          "durationTicks": 96,
          "midi": 40,
          "name": "E2",
          "ticks": 27168,
          "time": 44.6841435,
          "velocity": 0.3937007874015748
        },
        {
          "duration": 0.1578945000000047,
          "durationTicks": 96,
          "midi": 39,
          "name": "D#2",
          "ticks": 27264,
          "time": 44.842037999999995,
          "velocity": 0.3937007874015748
        },
        {
          "duration": 0.1578944999999976,
          "durationTicks": 96,
          "midi": 37,
          "name": "C#2",
          "ticks": 27360,
          "time": 44.9999325,
          "velocity": 0.3937007874015748
        },
        {
          "duration": 0.1578944999999976,
          "durationTicks": 96,
          "midi": 35,
          "name": "B1",
          "ticks": 27456,
          "time": 45.157827,
          "velocity": 0.3937007874015748
        },
        {
          "duration": 0.1578945000000047,
          "durationTicks": 96,
          "midi": 32,
          "name": "G#1",
          "ticks": 27552,
          "time": 45.315721499999995,
          "velocity": 0.3937007874015748
        },
        {
          "duration": 0.1578944999999976,
          "durationTicks": 96,
          "midi": 33,
          "name": "A1",
          "ticks": 27648,
          "time": 45.473616,
          "velocity": 0.3937007874015748
        },
        {
          "duration": 0.1578944999999976,
          "durationTicks": 96,
          "midi": 33,
          "name": "A1",
          "ticks": 27744,
          "time": 45.6315105,
          "velocity": 0.3937007874015748
        },
        {
          "duration": 0.3157890000000023,
          "durationTicks": 192,
          "midi": 49,
          "name": "C#3",
          "ticks": 27840,
          "time": 45.789404999999995,
          "velocity": 0.3937007874015748
        },
        {
          "duration": 0.3157890000000023,
          "durationTicks": 192,
          "midi": 44,
          "name": "G#2",
          "ticks": 28032,
          "time": 46.105194,
          "velocity": 0.3937007874015748
        },
        {
          "duration": 0.1578944999999976,
          "durationTicks": 96,
          "midi": 49,
          "name": "C#3",
          "ticks": 28224,
          "time": 46.420983,
          "velocity": 0.3937007874015748
        },
        {
          "duration": 0.1578944999999976,
          "durationTicks": 96,
          "midi": 45,
          "name": "A2",
          "ticks": 28320,
          "time": 46.5788775,
          "velocity": 0.3937007874015748
        },
        {
          "duration": 0.1578945000000047,
          "durationTicks": 96,
          "midi": 49,
          "name": "C#3",
          "ticks": 28416,
          "time": 46.736771999999995,
          "velocity": 0.3937007874015748
        },
        {
          "duration": 0.1578944999999976,
          "durationTicks": 96,
          "midi": 47,
          "name": "B2",
          "ticks": 28512,
          "time": 46.8946665,
          "velocity": 0.3937007874015748
        },
        {
          "duration": 0.3157890000000023,
          "durationTicks": 192,
          "midi": 44,
          "name": "G#2",
          "ticks": 28608,
          "time": 47.052561,
          "velocity": 0.3937007874015748
        },
        {
          "duration": 0.3157889999999952,
          "durationTicks": 192,
          "midi": 42,
          "name": "F#2",
          "ticks": 28800,
          "time": 47.36835,
          "velocity": 0.3937007874015748
        },
        {
          "duration": 0.1578945000000047,
          "durationTicks": 96,
          "midi": 44,
          "name": "G#2",
          "ticks": 28992,
          "time": 47.684138999999995,
          "velocity": 0.3937007874015748
        },
        {
          "duration": 0.1578944999999976,
          "durationTicks": 96,
          "midi": 40,
          "name": "E2",
          "ticks": 29088,
          "time": 47.8420335,
          "velocity": 0.3937007874015748
        },
        {
          "duration": 0.3157890000000023,
          "durationTicks": 192,
          "midi": 32,
          "name": "G#1",
          "ticks": 29184,
          "time": 47.999928,
          "velocity": 0.3937007874015748
        },
        {
          "duration": 0.3157889999999952,
          "durationTicks": 192,
          "midi": 49,
          "name": "C#3",
          "ticks": 29376,
          "time": 48.315717,
          "velocity": 0.3937007874015748
        },
        {
          "duration": 0.3157890000000023,
          "durationTicks": 192,
          "midi": 32,
          "name": "G#1",
          "ticks": 29568,
          "time": 48.631505999999995,
          "velocity": 0.3937007874015748
        },
        {
          "duration": 0.3157890000000023,
          "durationTicks": 192,
          "midi": 49,
          "name": "C#3",
          "ticks": 29760,
          "time": 48.947295,
          "velocity": 0.3937007874015748
        },
        {
          "duration": 0.3157889999999952,
          "durationTicks": 192,
          "midi": 31,
          "name": "G1",
          "ticks": 29952,
          "time": 49.263084,
          "velocity": 0.3937007874015748
        },
        {
          "duration": 0.3157890000000023,
          "durationTicks": 192,
          "midi": 49,
          "name": "C#3",
          "ticks": 30144,
          "time": 49.578872999999994,
          "velocity": 0.3937007874015748
        },
        {
          "duration": 0.3157890000000023,
          "durationTicks": 192,
          "midi": 33,
          "name": "A1",
          "ticks": 30336,
          "time": 49.894662,
          "velocity": 0.3937007874015748
        },
        {
          "duration": 0.3157890000000023,
          "durationTicks": 192,
          "midi": 51,
          "name": "D#3",
          "ticks": 30528,
          "time": 50.210451,
          "velocity": 0.3937007874015748
        },
        {
          "duration": 0.3157889999999952,
          "durationTicks": 192,
          "midi": 49,
          "name": "C#3",
          "ticks": 30720,
          "time": 50.52624,
          "velocity": 0.3937007874015748
        },
        {
          "duration": 0.3157890000000023,
          "durationTicks": 192,
          "midi": 61,
          "name": "C#4",
          "ticks": 30912,
          "time": 50.842029,
          "velocity": 0.3937007874015748
        },
        {
          "duration": 0.1578944999999976,
          "durationTicks": 96,
          "midi": 56,
          "name": "G#3",
          "ticks": 31104,
          "time": 51.157818,
          "velocity": 0.3937007874015748
        },
        {
          "duration": 0.3157890000000023,
          "durationTicks": 192,
          "midi": 55,
          "name": "G3",
          "ticks": 31392,
          "time": 51.6315015,
          "velocity": 0.3937007874015748
        },
        {
          "duration": 0.3157890000000023,
          "durationTicks": 192,
          "midi": 54,
          "name": "F#3",
          "ticks": 31680,
          "time": 52.105185,
          "velocity": 0.3937007874015748
        },
        {
          "duration": 0.1578944999999976,
          "durationTicks": 96,
          "midi": 52,
          "name": "E3",
          "ticks": 31872,
          "time": 52.420974,
          "velocity": 0.3937007874015748
        },
        {
          "duration": 0.1578944999999976,
          "durationTicks": 96,
          "midi": 49,
          "name": "C#3",
          "ticks": 31968,
          "time": 52.5788685,
          "velocity": 0.3937007874015748
        },
        {
          "duration": 0.1578945000000047,
          "durationTicks": 96,
          "midi": 52,
          "name": "E3",
          "ticks": 32064,
          "time": 52.736762999999996,
          "velocity": 0.3937007874015748
        },
        {
          "duration": 0.1578944999999976,
          "durationTicks": 96,
          "midi": 54,
          "name": "F#3",
          "ticks": 32160,
          "time": 52.8946575,
          "velocity": 0.3937007874015748
        },
        {
          "duration": 0.3157890000000023,
          "durationTicks": 192,
          "midi": 47,
          "name": "B2",
          "ticks": 32256,
          "time": 53.052552,
          "velocity": 0.3937007874015748
        },
        {
          "duration": 0.3157889999999952,
          "durationTicks": 192,
          "midi": 61,
          "name": "C#4",
          "ticks": 32448,
          "time": 53.368341,
          "velocity": 0.3937007874015748
        },
        {
          "duration": 0.3157890000000023,
          "durationTicks": 192,
          "midi": 56,
          "name": "G#3",
          "ticks": 32640,
          "time": 53.684129999999996,
          "velocity": 0.3937007874015748
        },
        {
          "duration": 0.3157890000000023,
          "durationTicks": 192,
          "midi": 54,
          "name": "F#3",
          "ticks": 32832,
          "time": 53.999919,
          "velocity": 0.3937007874015748
        },
        {
          "duration": 0.3157889999999952,
          "durationTicks": 192,
          "midi": 52,
          "name": "E3",
          "ticks": 33024,
          "time": 54.315708,
          "velocity": 0.3937007874015748
        },
        {
          "duration": 0.1578945000000047,
          "durationTicks": 96,
          "midi": 51,
          "name": "D#3",
          "ticks": 33216,
          "time": 54.631496999999996,
          "velocity": 0.3937007874015748
        },
        {
          "duration": 0.1578944999999976,
          "durationTicks": 96,
          "midi": 52,
          "name": "E3",
          "ticks": 33312,
          "time": 54.7893915,
          "velocity": 0.3937007874015748
        },
        {
          "duration": 0.1578944999999976,
          "durationTicks": 96,
          "midi": 51,
          "name": "D#3",
          "ticks": 33408,
          "time": 54.947286,
          "velocity": 0.3937007874015748
        },
        {
          "duration": 0.1578945000000047,
          "durationTicks": 96,
          "midi": 49,
          "name": "C#3",
          "ticks": 33504,
          "time": 55.105180499999996,
          "velocity": 0.3937007874015748
        },
        {
          "duration": 0.1578944999999976,
          "durationTicks": 96,
          "midi": 47,
          "name": "B2",
          "ticks": 33600,
          "time": 55.263075,
          "velocity": 0.3937007874015748
        },
        {
          "duration": 0.1578944999999976,
          "durationTicks": 96,
          "midi": 44,
          "name": "G#2",
          "ticks": 33696,
          "time": 55.4209695,
          "velocity": 0.3937007874015748
        },
        {
          "duration": 0.1578945000000047,
          "durationTicks": 96,
          "midi": 45,
          "name": "A2",
          "ticks": 33792,
          "time": 55.578863999999996,
          "velocity": 0.3937007874015748
        },
        {
          "duration": 0.1578944999999976,
          "durationTicks": 96,
          "midi": 45,
          "name": "A2",
          "ticks": 33888,
          "time": 55.7367585,
          "velocity": 0.3937007874015748
        },
        {
          "duration": 0.3157890000000023,
          "durationTicks": 192,
          "midi": 61,
          "name": "C#4",
          "ticks": 33984,
          "time": 55.894653,
          "velocity": 0.3937007874015748
        },
        {
          "duration": 0.3157889999999952,
          "durationTicks": 192,
          "midi": 56,
          "name": "G#3",
          "ticks": 34176,
          "time": 56.210442,
          "velocity": 0.3937007874015748
        },
        {
          "duration": 0.1578945000000047,
          "durationTicks": 96,
          "midi": 61,
          "name": "C#4",
          "ticks": 34368,
          "time": 56.526230999999996,
          "velocity": 0.3937007874015748
        },
        {
          "duration": 0.1578944999999976,
          "durationTicks": 96,
          "midi": 57,
          "name": "A3",
          "ticks": 34464,
          "time": 56.6841255,
          "velocity": 0.3937007874015748
        },
        {
          "duration": 0.1578944999999976,
          "durationTicks": 96,
          "midi": 61,
          "name": "C#4",
          "ticks": 34560,
          "time": 56.84202,
          "velocity": 0.3937007874015748
        },
        {
          "duration": 0.1578945000000047,
          "durationTicks": 96,
          "midi": 59,
          "name": "B3",
          "ticks": 34656,
          "time": 56.999914499999996,
          "velocity": 0.3937007874015748
        },
        {
          "duration": 0.3157889999999952,
          "durationTicks": 192,
          "midi": 56,
          "name": "G#3",
          "ticks": 34752,
          "time": 57.157809,
          "velocity": 0.3937007874015748
        },
        {
          "duration": 0.3157890000000023,
          "durationTicks": 192,
          "midi": 54,
          "name": "F#3",
          "ticks": 34944,
          "time": 57.473597999999996,
          "velocity": 0.3937007874015748
        },
        {
          "duration": 0.1578944999999976,
          "durationTicks": 96,
          "midi": 56,
          "name": "G#3",
          "ticks": 35136,
          "time": 57.789387,
          "velocity": 0.3937007874015748
        },
        {
          "duration": 0.1578945000000047,
          "durationTicks": 96,
          "midi": 52,
          "name": "E3",
          "ticks": 35232,
          "time": 57.947281499999995,
          "velocity": 0.3937007874015748
        },
        {
          "duration": 0.3157889999999952,
          "durationTicks": 192,
          "midi": 44,
          "name": "G#2",
          "ticks": 35328,
          "time": 58.105176,
          "velocity": 0.3937007874015748
        },
        {
          "duration": 0.3157890000000023,
          "durationTicks": 192,
          "midi": 61,
          "name": "C#4",
          "ticks": 35520,
          "time": 58.420964999999995,
          "velocity": 0.3937007874015748
        },
        {
          "duration": 0.3157890000000023,
          "durationTicks": 192,
          "midi": 44,
          "name": "G#2",
          "ticks": 35712,
          "time": 58.736754,
          "velocity": 0.3937007874015748
        },
        {
          "duration": 0.3157889999999952,
          "durationTicks": 192,
          "midi": 61,
          "name": "C#4",
          "ticks": 35904,
          "time": 59.052543,
          "velocity": 0.3937007874015748
        },
        {
          "duration": 0.3157890000000023,
          "durationTicks": 192,
          "midi": 43,
          "name": "G2",
          "ticks": 36096,
          "time": 59.368331999999995,
          "velocity": 0.3937007874015748
        },
        {
          "duration": 0.3157890000000023,
          "durationTicks": 192,
          "midi": 61,
          "name": "C#4",
          "ticks": 36288,
          "time": 59.684121,
          "velocity": 0.3937007874015748
        },
        {
          "duration": 0.3157889999999952,
          "durationTicks": 192,
          "midi": 45,
          "name": "A2",
          "ticks": 36480,
          "time": 59.99991,
          "velocity": 0.3937007874015748
        },
        {
          "duration": 0.3157890000000023,
          "durationTicks": 192,
          "midi": 63,
          "name": "D#4",
          "ticks": 36672,
          "time": 60.315698999999995,
          "velocity": 0.3937007874015748
        },
        {
          "duration": 0.3157890000000023,
          "durationTicks": 192,
          "midi": 49,
          "name": "C#3",
          "ticks": 36864,
          "time": 60.631488,
          "velocity": 0.3937007874015748
        },
        {
          "duration": 0.3157889999999952,
          "durationTicks": 192,
          "midi": 61,
          "name": "C#4",
          "ticks": 37056,
          "time": 60.947277,
          "velocity": 0.3937007874015748
        },
        {
          "duration": 0.1578945000000047,
          "durationTicks": 96,
          "midi": 56,
          "name": "G#3",
          "ticks": 37248,
          "time": 61.263065999999995,
          "velocity": 0.3937007874015748
        },
        {
          "duration": 0.3157890000000023,
          "durationTicks": 192,
          "midi": 55,
          "name": "G3",
          "ticks": 37536,
          "time": 61.736749499999995,
          "velocity": 0.3937007874015748
        },
        {
          "duration": 0.3157890000000023,
          "durationTicks": 192,
          "midi": 54,
          "name": "F#3",
          "ticks": 37824,
          "time": 62.210432999999995,
          "velocity": 0.3937007874015748
        },
        {
          "duration": 0.1578944999999976,
          "durationTicks": 96,
          "midi": 52,
          "name": "E3",
          "ticks": 38016,
          "time": 62.526222,
          "velocity": 0.3937007874015748
        },
        {
          "duration": 0.1578945000000047,
          "durationTicks": 96,
          "midi": 49,
          "name": "C#3",
          "ticks": 38112,
          "time": 62.684116499999995,
          "velocity": 0.3937007874015748
        },
        {
          "duration": 0.1578944999999976,
          "durationTicks": 96,
          "midi": 52,
          "name": "E3",
          "ticks": 38208,
          "time": 62.842011,
          "velocity": 0.3937007874015748
        },
        {
          "duration": 0.1578944999999976,
          "durationTicks": 96,
          "midi": 54,
          "name": "F#3",
          "ticks": 38304,
          "time": 62.9999055,
          "velocity": 0.3937007874015748
        },
        {
          "duration": 0.3157890000000023,
          "durationTicks": 192,
          "midi": 47,
          "name": "B2",
          "ticks": 38400,
          "time": 63.157799999999995,
          "velocity": 0.3937007874015748
        },
        {
          "duration": 0.3157890000000023,
          "durationTicks": 192,
          "midi": 61,
          "name": "C#4",
          "ticks": 38592,
          "time": 63.473589,
          "velocity": 0.3937007874015748
        },
        {
          "duration": 0.3157889999999952,
          "durationTicks": 192,
          "midi": 56,
          "name": "G#3",
          "ticks": 38784,
          "time": 63.789378,
          "velocity": 0.3937007874015748
        },
        {
          "duration": 0.3157890000000094,
          "durationTicks": 192,
          "midi": 54,
          "name": "F#3",
          "ticks": 38976,
          "time": 64.105167,
          "velocity": 0.3937007874015748
        },
        {
          "duration": 0.3157889999999952,
          "durationTicks": 192,
          "midi": 52,
          "name": "E3",
          "ticks": 39168,
          "time": 64.420956,
          "velocity": 0.3937007874015748
        },
        {
          "duration": 0.1578944999999976,
          "durationTicks": 96,
          "midi": 51,
          "name": "D#3",
          "ticks": 39360,
          "time": 64.736745,
          "velocity": 0.3937007874015748
        },
        {
          "duration": 0.1578944999999976,
          "durationTicks": 96,
          "midi": 52,
          "name": "E3",
          "ticks": 39456,
          "time": 64.8946395,
          "velocity": 0.3937007874015748
        },
        {
          "duration": 0.1578944999999976,
          "durationTicks": 96,
          "midi": 51,
          "name": "D#3",
          "ticks": 39552,
          "time": 65.052534,
          "velocity": 0.3937007874015748
        },
        {
          "duration": 0.15789450000001182,
          "durationTicks": 96,
          "midi": 49,
          "name": "C#3",
          "ticks": 39648,
          "time": 65.21042849999999,
          "velocity": 0.3937007874015748
        },
        {
          "duration": 0.1578944999999976,
          "durationTicks": 96,
          "midi": 47,
          "name": "B2",
          "ticks": 39744,
          "time": 65.368323,
          "velocity": 0.3937007874015748
        },
        {
          "duration": 0.1578944999999976,
          "durationTicks": 96,
          "midi": 44,
          "name": "G#2",
          "ticks": 39840,
          "time": 65.5262175,
          "velocity": 0.3937007874015748
        },
        {
          "duration": 0.1578944999999976,
          "durationTicks": 96,
          "midi": 45,
          "name": "A2",
          "ticks": 39936,
          "time": 65.684112,
          "velocity": 0.3937007874015748
        },
        {
          "duration": 0.1578944999999976,
          "durationTicks": 96,
          "midi": 45,
          "name": "A2",
          "ticks": 40032,
          "time": 65.8420065,
          "velocity": 0.3937007874015748
        },
        {
          "duration": 0.3157890000000094,
          "durationTicks": 192,
          "midi": 61,
          "name": "C#4",
          "ticks": 40128,
          "time": 65.999901,
          "velocity": 0.3937007874015748
        },
        {
          "duration": 0.3157889999999952,
          "durationTicks": 192,
          "midi": 56,
          "name": "G#3",
          "ticks": 40320,
          "time": 66.31569,
          "velocity": 0.3937007874015748
        },
        {
          "duration": 0.1578944999999976,
          "durationTicks": 96,
          "midi": 61,
          "name": "C#4",
          "ticks": 40512,
          "time": 66.631479,
          "velocity": 0.3937007874015748
        },
        {
          "duration": 0.1578944999999976,
          "durationTicks": 96,
          "midi": 57,
          "name": "A3",
          "ticks": 40608,
          "time": 66.7893735,
          "velocity": 0.3937007874015748
        },
        {
          "duration": 0.1578944999999976,
          "durationTicks": 96,
          "midi": 61,
          "name": "C#4",
          "ticks": 40704,
          "time": 66.947268,
          "velocity": 0.3937007874015748
        },
        {
          "duration": 0.15789450000001182,
          "durationTicks": 96,
          "midi": 59,
          "name": "B3",
          "ticks": 40800,
          "time": 67.10516249999999,
          "velocity": 0.3937007874015748
        },
        {
          "duration": 0.3157889999999952,
          "durationTicks": 192,
          "midi": 56,
          "name": "G#3",
          "ticks": 40896,
          "time": 67.263057,
          "velocity": 0.3937007874015748
        },
        {
          "duration": 0.3157889999999952,
          "durationTicks": 192,
          "midi": 54,
          "name": "F#3",
          "ticks": 41088,
          "time": 67.578846,
          "velocity": 0.3937007874015748
        },
        {
          "duration": 0.1578944999999976,
          "durationTicks": 96,
          "midi": 56,
          "name": "G#3",
          "ticks": 41280,
          "time": 67.894635,
          "velocity": 0.3937007874015748
        },
        {
          "duration": 0.15789450000001182,
          "durationTicks": 96,
          "midi": 52,
          "name": "E3",
          "ticks": 41376,
          "time": 68.05252949999999,
          "velocity": 0.3937007874015748
        },
        {
          "duration": 0.3157889999999952,
          "durationTicks": 192,
          "midi": 44,
          "name": "G#2",
          "ticks": 41472,
          "time": 68.210424,
          "velocity": 0.3937007874015748
        },
        {
          "duration": 0.3157889999999952,
          "durationTicks": 192,
          "midi": 61,
          "name": "C#4",
          "ticks": 41664,
          "time": 68.526213,
          "velocity": 0.3937007874015748
        },
        {
          "duration": 0.3157890000000094,
          "durationTicks": 192,
          "midi": 44,
          "name": "G#2",
          "ticks": 41856,
          "time": 68.842002,
          "velocity": 0.3937007874015748
        },
        {
          "duration": 0.3157889999999952,
          "durationTicks": 192,
          "midi": 61,
          "name": "C#4",
          "ticks": 42048,
          "time": 69.157791,
          "velocity": 0.3937007874015748
        },
        {
          "duration": 0.3157889999999952,
          "durationTicks": 192,
          "midi": 43,
          "name": "G2",
          "ticks": 42240,
          "time": 69.47358,
          "velocity": 0.3937007874015748
        },
        {
          "duration": 0.3157890000000094,
          "durationTicks": 192,
          "midi": 61,
          "name": "C#4",
          "ticks": 42432,
          "time": 69.789369,
          "velocity": 0.3937007874015748
        },
        {
          "duration": 0.3157889999999952,
          "durationTicks": 192,
          "midi": 45,
          "name": "A2",
          "ticks": 42624,
          "time": 70.105158,
          "velocity": 0.3937007874015748
        },
        {
          "duration": 0.3157889999999952,
          "durationTicks": 192,
          "midi": 63,
          "name": "D#4",
          "ticks": 42816,
          "time": 70.420947,
          "velocity": 0.3937007874015748
        },
        {
          "duration": 0.3157890000000094,
          "durationTicks": 192,
          "midi": 73,
          "name": "C#5",
          "ticks": 43008,
          "time": 70.736736,
          "velocity": 0.3937007874015748
        },
        {
          "duration": 0.3157889999999952,
          "durationTicks": 192,
          "midi": 85,
          "name": "C#6",
          "ticks": 43200,
          "time": 71.052525,
          "velocity": 0.3937007874015748
        },
        {
          "duration": 0.1578944999999976,
          "durationTicks": 96,
          "midi": 80,
          "name": "G#5",
          "ticks": 43392,
          "time": 71.368314,
          "velocity": 0.3937007874015748
        },
        {
          "duration": 0.3157890000000094,
          "durationTicks": 192,
          "midi": 79,
          "name": "G5",
          "ticks": 43680,
          "time": 71.84199749999999,
          "velocity": 0.3937007874015748
        },
        {
          "duration": 0.3157889999999952,
          "durationTicks": 192,
          "midi": 78,
          "name": "F#5",
          "ticks": 43968,
          "time": 72.315681,
          "velocity": 0.3937007874015748
        },
        {
          "duration": 0.1578944999999976,
          "durationTicks": 96,
          "midi": 76,
          "name": "E5",
          "ticks": 44160,
          "time": 72.63147,
          "velocity": 0.3937007874015748
        },
        {
          "duration": 0.15789450000001182,
          "durationTicks": 96,
          "midi": 73,
          "name": "C#5",
          "ticks": 44256,
          "time": 72.78936449999999,
          "velocity": 0.3937007874015748
        },
        {
          "duration": 0.1578944999999976,
          "durationTicks": 96,
          "midi": 76,
          "name": "E5",
          "ticks": 44352,
          "time": 72.947259,
          "velocity": 0.3937007874015748
        },
        {
          "duration": 0.1578944999999976,
          "durationTicks": 96,
          "midi": 78,
          "name": "F#5",
          "ticks": 44448,
          "time": 73.1051535,
          "velocity": 0.3937007874015748
        },
        {
          "duration": 0.3157889999999952,
          "durationTicks": 192,
          "midi": 71,
          "name": "B4",
          "ticks": 44544,
          "time": 73.263048,
          "velocity": 0.3937007874015748
        },
        {
          "duration": 0.3157890000000094,
          "durationTicks": 192,
          "midi": 85,
          "name": "C#6",
          "ticks": 44736,
          "time": 73.578837,
          "velocity": 0.3937007874015748
        },
        {
          "duration": 0.3157889999999952,
          "durationTicks": 192,
          "midi": 80,
          "name": "G#5",
          "ticks": 44928,
          "time": 73.894626,
          "velocity": 0.3937007874015748
        },
        {
          "duration": 0.3157889999999952,
          "durationTicks": 192,
          "midi": 78,
          "name": "F#5",
          "ticks": 45120,
          "time": 74.210415,
          "velocity": 0.3937007874015748
        },
        {
          "duration": 0.3157890000000094,
          "durationTicks": 192,
          "midi": 76,
          "name": "E5",
          "ticks": 45312,
          "time": 74.52620399999999,
          "velocity": 0.3937007874015748
        },
        {
          "duration": 0.1578944999999976,
          "durationTicks": 96,
          "midi": 75,
          "name": "D#5",
          "ticks": 45504,
          "time": 74.841993,
          "velocity": 0.3937007874015748
        },
        {
          "duration": 0.1578944999999976,
          "durationTicks": 96,
          "midi": 76,
          "name": "E5",
          "ticks": 45600,
          "time": 74.9998875,
          "velocity": 0.3937007874015748
        },
        {
          "duration": 0.1578944999999976,
          "durationTicks": 96,
          "midi": 75,
          "name": "D#5",
          "ticks": 45696,
          "time": 75.157782,
          "velocity": 0.3937007874015748
        },
        {
          "duration": 0.1578944999999976,
          "durationTicks": 96,
          "midi": 73,
          "name": "C#5",
          "ticks": 45792,
          "time": 75.3156765,
          "velocity": 0.3937007874015748
        },
        {
          "duration": 0.1578944999999976,
          "durationTicks": 96,
          "midi": 71,
          "name": "B4",
          "ticks": 45888,
          "time": 75.47357099999999,
          "velocity": 0.3937007874015748
        },
        {
          "duration": 0.15789450000001182,
          "durationTicks": 96,
          "midi": 68,
          "name": "G#4",
          "ticks": 45984,
          "time": 75.63146549999999,
          "velocity": 0.3937007874015748
        },
        {
          "duration": 0.1578944999999976,
          "durationTicks": 96,
          "midi": 69,
          "name": "A4",
          "ticks": 46080,
          "time": 75.78936,
          "velocity": 0.3937007874015748
        },
        {
          "duration": 2.52631199999999,
          "durationTicks": 1536,
          "midi": 57,
          "name": "A3",
          "ticks": 46080,
          "time": 75.78936,
          "velocity": 0.3937007874015748
        },
        {
          "duration": 2.3684174999999925,
          "durationTicks": 1440,
          "midi": 69,
          "name": "A4",
          "ticks": 46176,
          "time": 75.9472545,
          "velocity": 0.3937007874015748
        },
        {
          "duration": 0.3157889999999952,
          "durationTicks": 192,
          "midi": 85,
          "name": "C#6",
          "ticks": 46272,
          "time": 76.105149,
          "velocity": 0.3937007874015748
        },
        {
          "duration": 0.3157890000000094,
          "durationTicks": 192,
          "midi": 80,
          "name": "G#5",
          "ticks": 46464,
          "time": 76.42093799999999,
          "velocity": 0.3937007874015748
        },
        {
          "duration": 0.1578944999999976,
          "durationTicks": 96,
          "midi": 85,
          "name": "C#6",
          "ticks": 46656,
          "time": 76.736727,
          "velocity": 0.3937007874015748
        },
        {
          "duration": 0.1578944999999976,
          "durationTicks": 96,
          "midi": 81,
          "name": "A5",
          "ticks": 46752,
          "time": 76.8946215,
          "velocity": 0.3937007874015748
        },
        {
          "duration": 0.1578944999999976,
          "durationTicks": 96,
          "midi": 85,
          "name": "C#6",
          "ticks": 46848,
          "time": 77.052516,
          "velocity": 0.3937007874015748
        },
        {
          "duration": 0.1578944999999976,
          "durationTicks": 96,
          "midi": 83,
          "name": "B5",
          "ticks": 46944,
          "time": 77.2104105,
          "velocity": 0.3937007874015748
        },
        {
          "duration": 0.3157890000000094,
          "durationTicks": 192,
          "midi": 80,
          "name": "G#5",
          "ticks": 47040,
          "time": 77.36830499999999,
          "velocity": 0.3937007874015748
        },
        {
          "duration": 0.3157889999999952,
          "durationTicks": 192,
          "midi": 78,
          "name": "F#5",
          "ticks": 47232,
          "time": 77.684094,
          "velocity": 0.3937007874015748
        },
        {
          "duration": 0.1578944999999976,
          "durationTicks": 96,
          "midi": 80,
          "name": "G#5",
          "ticks": 47424,
          "time": 77.999883,
          "velocity": 0.3937007874015748
        },
        {
          "duration": 0.1578944999999976,
          "durationTicks": 96,
          "midi": 76,
          "name": "E5",
          "ticks": 47520,
          "time": 78.1577775,
          "velocity": 0.3937007874015748
        },
        {
          "duration": 0.6315780000000046,
          "durationTicks": 384,
          "midi": 68,
          "name": "G#4",
          "ticks": 47616,
          "time": 78.31567199999999,
          "velocity": 0.3937007874015748
        },
        {
          "duration": 1.2631560000000093,
          "durationTicks": 768,
          "midi": 56,
          "name": "G#3",
          "ticks": 47616,
          "time": 78.31567199999999,
          "velocity": 0.3937007874015748
        },
        {
          "duration": 0.3157889999999952,
          "durationTicks": 192,
          "midi": 85,
          "name": "C#6",
          "ticks": 47808,
          "time": 78.631461,
          "velocity": 0.3937007874015748
        },
        {
          "duration": 0.6315780000000046,
          "durationTicks": 384,
          "midi": 68,
          "name": "G#4",
          "ticks": 48000,
          "time": 78.94725,
          "velocity": 0.3937007874015748
        },
        {
          "duration": 0.3157890000000094,
          "durationTicks": 192,
          "midi": 85,
          "name": "C#6",
          "ticks": 48192,
          "time": 79.26303899999999,
          "velocity": 0.3937007874015748
        },
        {
          "duration": 0.6315779999999904,
          "durationTicks": 384,
          "midi": 67,
          "name": "G4",
          "ticks": 48384,
          "time": 79.578828,
          "velocity": 0.3937007874015748
        },
        {
          "duration": 0.6315779999999904,
          "durationTicks": 384,
          "midi": 55,
          "name": "G3",
          "ticks": 48384,
          "time": 79.578828,
          "velocity": 0.3937007874015748
        },
        {
          "duration": 0.3157889999999952,
          "durationTicks": 192,
          "midi": 85,
          "name": "C#6",
          "ticks": 48576,
          "time": 79.894617,
          "velocity": 0.3937007874015748
        },
        {
          "duration": 0.3157890000000094,
          "durationTicks": 192,
          "midi": 57,
          "name": "A3",
          "ticks": 48768,
          "time": 80.21040599999999,
          "velocity": 0.3937007874015748
        },
        {
          "duration": 0.3157890000000094,
          "durationTicks": 192,
          "midi": 69,
          "name": "A4",
          "ticks": 48768,
          "time": 80.21040599999999,
          "velocity": 0.3937007874015748
        },
        {
          "duration": 0.3157889999999952,
          "durationTicks": 192,
          "midi": 75,
          "name": "D#5",
          "ticks": 48960,
          "time": 80.526195,
          "velocity": 0.3937007874015748
        },
        {
          "duration": 0.3157889999999952,
          "durationTicks": 192,
          "midi": 87,
          "name": "D#6",
          "ticks": 48960,
          "time": 80.526195,
          "velocity": 0.3937007874015748
        },
        {
          "duration": 0.3157889999999952,
          "durationTicks": 192,
          "midi": 61,
          "name": "C#4",
          "ticks": 49152,
          "time": 80.841984,
          "velocity": 0.3937007874015748
        },
        {
          "duration": 0.3157889999999952,
          "durationTicks": 192,
          "midi": 49,
          "name": "C#3",
          "ticks": 49152,
          "time": 80.841984,
          "velocity": 0.3937007874015748
        },
        {
          "duration": 0.3157890000000094,
          "durationTicks": 192,
          "midi": 61,
          "name": "C#4",
          "ticks": 49344,
          "time": 81.15777299999999,
          "velocity": 0.3937007874015748
        },
        {
          "duration": 0.3157890000000094,
          "durationTicks": 192,
          "midi": 73,
          "name": "C#5",
          "ticks": 49344,
          "time": 81.15777299999999,
          "velocity": 0.3937007874015748
        },
        {
          "duration": 0.1578944999999976,
          "durationTicks": 96,
          "midi": 56,
          "name": "G#3",
          "ticks": 49536,
          "time": 81.473562,
          "velocity": 0.3937007874015748
        },
        {
          "duration": 0.1578944999999976,
          "durationTicks": 96,
          "midi": 68,
          "name": "G#4",
          "ticks": 49536,
          "time": 81.473562,
          "velocity": 0.3937007874015748
        },
        {
          "duration": 0.3157890000000094,
          "durationTicks": 192,
          "midi": 55,
          "name": "G3",
          "ticks": 49824,
          "time": 81.9472455,
          "velocity": 0.3937007874015748
        },
        {
          "duration": 0.3157890000000094,
          "durationTicks": 192,
          "midi": 67,
          "name": "G4",
          "ticks": 49824,
          "time": 81.9472455,
          "velocity": 0.3937007874015748
        },
        {
          "duration": 0.3157889999999952,
          "durationTicks": 192,
          "midi": 66,
          "name": "F#4",
          "ticks": 50112,
          "time": 82.420929,
          "velocity": 0.3937007874015748
        },
        {
          "duration": 0.3157889999999952,
          "durationTicks": 192,
          "midi": 54,
          "name": "F#3",
          "ticks": 50112,
          "time": 82.420929,
          "velocity": 0.3937007874015748
        },
        {
          "duration": 0.1578944999999976,
          "durationTicks": 96,
          "midi": 52,
          "name": "E3",
          "ticks": 50304,
          "time": 82.736718,
          "velocity": 0.3937007874015748
        },
        {
          "duration": 0.1578944999999976,
          "durationTicks": 96,
          "midi": 64,
          "name": "E4",
          "ticks": 50304,
          "time": 82.736718,
          "velocity": 0.3937007874015748
        },
        {
          "duration": 0.1578944999999976,
          "durationTicks": 96,
          "midi": 49,
          "name": "C#3",
          "ticks": 50400,
          "time": 82.8946125,
          "velocity": 0.3937007874015748
        },
        {
          "duration": 0.1578944999999976,
          "durationTicks": 96,
          "midi": 61,
          "name": "C#4",
          "ticks": 50400,
          "time": 82.8946125,
          "velocity": 0.3937007874015748
        },
        {
          "duration": 0.15789450000001182,
          "durationTicks": 96,
          "midi": 52,
          "name": "E3",
          "ticks": 50496,
          "time": 83.05250699999999,
          "velocity": 0.3937007874015748
        },
        {
          "duration": 0.15789450000001182,
          "durationTicks": 96,
          "midi": 64,
          "name": "E4",
          "ticks": 50496,
          "time": 83.05250699999999,
          "velocity": 0.3937007874015748
        },
        {
          "duration": 0.1578944999999976,
          "durationTicks": 96,
          "midi": 66,
          "name": "F#4",
          "ticks": 50592,
          "time": 83.2104015,
          "velocity": 0.3937007874015748
        },
        {
          "duration": 0.1578944999999976,
          "durationTicks": 96,
          "midi": 54,
          "name": "F#3",
          "ticks": 50592,
          "time": 83.2104015,
          "velocity": 0.3937007874015748
        },
        {
          "duration": 0.3157889999999952,
          "durationTicks": 192,
          "midi": 47,
          "name": "B2",
          "ticks": 50688,
          "time": 83.368296,
          "velocity": 0.3937007874015748
        },
        {
          "duration": 0.3157889999999952,
          "durationTicks": 192,
          "midi": 59,
          "name": "B3",
          "ticks": 50688,
          "time": 83.368296,
          "velocity": 0.3937007874015748
        },
        {
          "duration": 0.3157889999999952,
          "durationTicks": 192,
          "midi": 61,
          "name": "C#4",
          "ticks": 50880,
          "time": 83.684085,
          "velocity": 0.3937007874015748
        },
        {
          "duration": 0.3157889999999952,
          "durationTicks": 192,
          "midi": 73,
          "name": "C#5",
          "ticks": 50880,
          "time": 83.684085,
          "velocity": 0.3937007874015748
        },
        {
          "duration": 0.3157890000000094,
          "durationTicks": 192,
          "midi": 56,
          "name": "G#3",
          "ticks": 51072,
          "time": 83.99987399999999,
          "velocity": 0.3937007874015748
        },
        {
          "duration": 0.3157890000000094,
          "durationTicks": 192,
          "midi": 68,
          "name": "G#4",
          "ticks": 51072,
          "time": 83.99987399999999,
          "velocity": 0.3937007874015748
        },
        {
          "duration": 0.3157889999999952,
          "durationTicks": 192,
          "midi": 66,
          "name": "F#4",
          "ticks": 51264,
          "time": 84.315663,
          "velocity": 0.3937007874015748
        },
        {
          "duration": 0.3157889999999952,
          "durationTicks": 192,
          "midi": 54,
          "name": "F#3",
          "ticks": 51264,
          "time": 84.315663,
          "velocity": 0.3937007874015748
        },
        {
          "duration": 0.3157889999999952,
          "durationTicks": 192,
          "midi": 64,
          "name": "E4",
          "ticks": 51456,
          "time": 84.631452,
          "velocity": 0.3937007874015748
        },
        {
          "duration": 0.3157889999999952,
          "durationTicks": 192,
          "midi": 52,
          "name": "E3",
          "ticks": 51456,
          "time": 84.631452,
          "velocity": 0.3937007874015748
        },
        {
          "duration": 0.15789450000001182,
          "durationTicks": 96,
          "midi": 51,
          "name": "D#3",
          "ticks": 51648,
          "time": 84.94724099999999,
          "velocity": 0.3937007874015748
        },
        {
          "duration": 0.15789450000001182,
          "durationTicks": 96,
          "midi": 63,
          "name": "D#4",
          "ticks": 51648,
          "time": 84.94724099999999,
          "velocity": 0.3937007874015748
        },
        {
          "duration": 0.1578944999999976,
          "durationTicks": 96,
          "midi": 52,
          "name": "E3",
          "ticks": 51744,
          "time": 85.1051355,
          "velocity": 0.3937007874015748
        },
        {
          "duration": 0.1578944999999976,
          "durationTicks": 96,
          "midi": 64,
          "name": "E4",
          "ticks": 51744,
          "time": 85.1051355,
          "velocity": 0.3937007874015748
        },
        {
          "duration": 0.1578944999999976,
          "durationTicks": 96,
          "midi": 63,
          "name": "D#4",
          "ticks": 51840,
          "time": 85.26303,
          "velocity": 0.3937007874015748
        },
        {
          "duration": 0.1578944999999976,
          "durationTicks": 96,
          "midi": 51,
          "name": "D#3",
          "ticks": 51840,
          "time": 85.26303,
          "velocity": 0.3937007874015748
        },
        {
          "duration": 0.1578944999999976,
          "durationTicks": 96,
          "midi": 49,
          "name": "C#3",
          "ticks": 51936,
          "time": 85.4209245,
          "velocity": 0.3937007874015748
        },
        {
          "duration": 0.1578944999999976,
          "durationTicks": 96,
          "midi": 61,
          "name": "C#4",
          "ticks": 51936,
          "time": 85.4209245,
          "velocity": 0.3937007874015748
        },
        {
          "duration": 0.1578944999999976,
          "durationTicks": 96,
          "midi": 47,
          "name": "B2",
          "ticks": 52032,
          "time": 85.578819,
          "velocity": 0.3937007874015748
        },
        {
          "duration": 0.1578944999999976,
          "durationTicks": 96,
          "midi": 59,
          "name": "B3",
          "ticks": 52032,
          "time": 85.578819,
          "velocity": 0.3937007874015748
        },
        {
          "duration": 0.1578944999999976,
          "durationTicks": 96,
          "midi": 44,
          "name": "G#2",
          "ticks": 52128,
          "time": 85.7367135,
          "velocity": 0.3937007874015748
        },
        {
          "duration": 0.1578944999999976,
          "durationTicks": 96,
          "midi": 56,
          "name": "G#3",
          "ticks": 52128,
          "time": 85.7367135,
          "velocity": 0.3937007874015748
        },
        {
          "duration": 0.15789450000001182,
          "durationTicks": 96,
          "midi": 45,
          "name": "A2",
          "ticks": 52224,
          "time": 85.89460799999999,
          "velocity": 0.3937007874015748
        },
        {
          "duration": 0.15789450000001182,
          "durationTicks": 96,
          "midi": 57,
          "name": "A3",
          "ticks": 52224,
          "time": 85.89460799999999,
          "velocity": 0.3937007874015748
        },
        {
          "duration": 0.1578944999999976,
          "durationTicks": 96,
          "midi": 57,
          "name": "A3",
          "ticks": 52320,
          "time": 86.0525025,
          "velocity": 0.3937007874015748
        },
        {
          "duration": 0.1578944999999976,
          "durationTicks": 96,
          "midi": 45,
          "name": "A2",
          "ticks": 52320,
          "time": 86.0525025,
          "velocity": 0.3937007874015748
        },
        {
          "duration": 0.3157889999999952,
          "durationTicks": 192,
          "midi": 61,
          "name": "C#4",
          "ticks": 52416,
          "time": 86.210397,
          "velocity": 0.3937007874015748
        },
        {
          "duration": 0.3157889999999952,
          "durationTicks": 192,
          "midi": 73,
          "name": "C#5",
          "ticks": 52416,
          "time": 86.210397,
          "velocity": 0.3937007874015748
        },
        {
          "duration": 0.3157889999999952,
          "durationTicks": 192,
          "midi": 56,
          "name": "G#3",
          "ticks": 52608,
          "time": 86.526186,
          "velocity": 0.3937007874015748
        },
        {
          "duration": 0.3157889999999952,
          "durationTicks": 192,
          "midi": 68,
          "name": "G#4",
          "ticks": 52608,
          "time": 86.526186,
          "velocity": 0.3937007874015748
        },
        {
          "duration": 0.15789450000001182,
          "durationTicks": 96,
          "midi": 73,
          "name": "C#5",
          "ticks": 52800,
          "time": 86.84197499999999,
          "velocity": 0.3937007874015748
        },
        {
          "duration": 0.15789450000001182,
          "durationTicks": 96,
          "midi": 61,
          "name": "C#4",
          "ticks": 52800,
          "time": 86.84197499999999,
          "velocity": 0.3937007874015748
        },
        {
          "duration": 0.1578944999999976,
          "durationTicks": 96,
          "midi": 69,
          "name": "A4",
          "ticks": 52896,
          "time": 86.9998695,
          "velocity": 0.3937007874015748
        },
        {
          "duration": 0.1578944999999976,
          "durationTicks": 96,
          "midi": 57,
          "name": "A3",
          "ticks": 52896,
          "time": 86.9998695,
          "velocity": 0.3937007874015748
        },
        {
          "duration": 0.1578944999999976,
          "durationTicks": 96,
          "midi": 73,
          "name": "C#5",
          "ticks": 52992,
          "time": 87.157764,
          "velocity": 0.3937007874015748
        },
        {
          "duration": 0.1578944999999976,
          "durationTicks": 96,
          "midi": 61,
          "name": "C#4",
          "ticks": 52992,
          "time": 87.157764,
          "velocity": 0.3937007874015748
        },
        {
          "duration": 0.1578944999999976,
          "durationTicks": 96,
          "midi": 59,
          "name": "B3",
          "ticks": 53088,
          "time": 87.3156585,
          "velocity": 0.3937007874015748
        },
        {
          "duration": 0.1578944999999976,
          "durationTicks": 96,
          "midi": 71,
          "name": "B4",
          "ticks": 53088,
          "time": 87.3156585,
          "velocity": 0.3937007874015748
        },
        {
          "duration": 0.3157889999999952,
          "durationTicks": 192,
          "midi": 56,
          "name": "G#3",
          "ticks": 53184,
          "time": 87.473553,
          "velocity": 0.3937007874015748
        },
        {
          "duration": 0.3157889999999952,
          "durationTicks": 192,
          "midi": 68,
          "name": "G#4",
          "ticks": 53184,
          "time": 87.473553,
          "velocity": 0.3937007874015748
        },
        {
          "duration": 0.3157890000000094,
          "durationTicks": 192,
          "midi": 54,
          "name": "F#3",
          "ticks": 53376,
          "time": 87.78934199999999,
          "velocity": 0.3937007874015748
        },
        {
          "duration": 0.3157890000000094,
          "durationTicks": 192,
          "midi": 66,
          "name": "F#4",
          "ticks": 53376,
          "time": 87.78934199999999,
          "velocity": 0.3937007874015748
        },
        {
          "duration": 0.1578944999999976,
          "durationTicks": 96,
          "midi": 56,
          "name": "G#3",
          "ticks": 53568,
          "time": 88.105131,
          "velocity": 0.3937007874015748
        },
        {
          "duration": 0.1578944999999976,
          "durationTicks": 96,
          "midi": 68,
          "name": "G#4",
          "ticks": 53568,
          "time": 88.105131,
          "velocity": 0.3937007874015748
        },
        {
          "duration": 0.1578944999999976,
          "durationTicks": 96,
          "midi": 52,
          "name": "E3",
          "ticks": 53664,
          "time": 88.2630255,
          "velocity": 0.3937007874015748
        },
        {
          "duration": 0.1578944999999976,
          "durationTicks": 96,
          "midi": 64,
          "name": "E4",
          "ticks": 53664,
          "time": 88.2630255,
          "velocity": 0.3937007874015748
        },
        {
          "duration": 0.1578944999999976,
          "durationTicks": 96,
          "midi": 44,
          "name": "G#2",
          "ticks": 53760,
          "time": 88.42092,
          "velocity": 0.3937007874015748
        },
        {
          "duration": 0.1578944999999976,
          "durationTicks": 96,
          "midi": 56,
          "name": "G#3",
          "ticks": 53760,
          "time": 88.42092,
          "velocity": 0.3937007874015748
        },
        {
          "duration": 0.1578944999999976,
          "durationTicks": 96,
          "midi": 56,
          "name": "G#3",
          "ticks": 53856,
          "time": 88.5788145,
          "velocity": 0.3937007874015748
        },
        {
          "duration": 0.1578944999999976,
          "durationTicks": 96,
          "midi": 44,
          "name": "G#2",
          "ticks": 53856,
          "time": 88.5788145,
          "velocity": 0.3937007874015748
        },
        {
          "duration": 0.3157890000000094,
          "durationTicks": 192,
          "midi": 61,
          "name": "C#4",
          "ticks": 53952,
          "time": 88.73670899999999,
          "velocity": 0.3937007874015748
        },
        {
          "duration": 0.3157890000000094,
          "durationTicks": 192,
          "midi": 73,
          "name": "C#5",
          "ticks": 53952,
          "time": 88.73670899999999,
          "velocity": 0.3937007874015748
        },
        {
          "duration": 0.3157889999999952,
          "durationTicks": 192,
          "midi": 44,
          "name": "G#2",
          "ticks": 54144,
          "time": 89.052498,
          "velocity": 0.3937007874015748
        },
        {
          "duration": 0.3157889999999952,
          "durationTicks": 192,
          "midi": 56,
          "name": "G#3",
          "ticks": 54144,
          "time": 89.052498,
          "velocity": 0.3937007874015748
        },
        {
          "duration": 0.3157889999999952,
          "durationTicks": 192,
          "midi": 61,
          "name": "C#4",
          "ticks": 54336,
          "time": 89.368287,
          "velocity": 0.3937007874015748
        },
        {
          "duration": 0.3157889999999952,
          "durationTicks": 192,
          "midi": 73,
          "name": "C#5",
          "ticks": 54336,
          "time": 89.368287,
          "velocity": 0.3937007874015748
        },
        {
          "duration": 0.15789450000001182,
          "durationTicks": 96,
          "midi": 43,
          "name": "G2",
          "ticks": 54528,
          "time": 89.68407599999999,
          "velocity": 0.3937007874015748
        },
        {
          "duration": 0.15789450000001182,
          "durationTicks": 96,
          "midi": 55,
          "name": "G3",
          "ticks": 54528,
          "time": 89.68407599999999,
          "velocity": 0.3937007874015748
        },
        {
          "duration": 0.1578944999999976,
          "durationTicks": 96,
          "midi": 43,
          "name": "G2",
          "ticks": 54624,
          "time": 89.8419705,
          "velocity": 0.3937007874015748
        },
        {
          "duration": 0.1578944999999976,
          "durationTicks": 96,
          "midi": 55,
          "name": "G3",
          "ticks": 54624,
          "time": 89.8419705,
          "velocity": 0.3937007874015748
        },
        {
          "duration": 0.3157889999999952,
          "durationTicks": 192,
          "midi": 61,
          "name": "C#4",
          "ticks": 54720,
          "time": 89.999865,
          "velocity": 0.3937007874015748
        },
        {
          "duration": 0.3157889999999952,
          "durationTicks": 192,
          "midi": 73,
          "name": "C#5",
          "ticks": 54720,
          "time": 89.999865,
          "velocity": 0.3937007874015748
        },
        {
          "duration": 0.3157889999999952,
          "durationTicks": 192,
          "midi": 45,
          "name": "A2",
          "ticks": 54912,
          "time": 90.315654,
          "velocity": 0.3937007874015748
        },
        {
          "duration": 0.3157889999999952,
          "durationTicks": 192,
          "midi": 57,
          "name": "A3",
          "ticks": 54912,
          "time": 90.315654,
          "velocity": 0.3937007874015748
        },
        {
          "duration": 0.3157890000000094,
          "durationTicks": 192,
          "midi": 63,
          "name": "D#4",
          "ticks": 55104,
          "time": 90.63144299999999,
          "velocity": 0.3937007874015748
        },
        {
          "duration": 0.3157890000000094,
          "durationTicks": 192,
          "midi": 75,
          "name": "D#5",
          "ticks": 55104,
          "time": 90.63144299999999,
          "velocity": 0.3937007874015748
        },
        {
          "duration": 0.3157889999999952,
          "durationTicks": 192,
          "midi": 61,
          "name": "C#4",
          "ticks": 55296,
          "time": 90.947232,
          "velocity": 0.3937007874015748
        },
        {
          "duration": 0.3157889999999952,
          "durationTicks": 192,
          "midi": 49,
          "name": "C#3",
          "ticks": 55296,
          "time": 90.947232,
          "velocity": 0.3937007874015748
        },
        {
          "duration": 0.3157889999999952,
          "durationTicks": 192,
          "midi": 61,
          "name": "C#4",
          "ticks": 55488,
          "time": 91.263021,
          "velocity": 0.3937007874015748
        },
        {
          "duration": 0.3157889999999952,
          "durationTicks": 192,
          "midi": 73,
          "name": "C#5",
          "ticks": 55488,
          "time": 91.263021,
          "velocity": 0.3937007874015748
        },
        {
          "duration": 0.15789450000001182,
          "durationTicks": 96,
          "midi": 56,
          "name": "G#3",
          "ticks": 55680,
          "time": 91.57880999999999,
          "velocity": 0.3937007874015748
        },
        {
          "duration": 0.15789450000001182,
          "durationTicks": 96,
          "midi": 68,
          "name": "G#4",
          "ticks": 55680,
          "time": 91.57880999999999,
          "velocity": 0.3937007874015748
        },
        {
          "duration": 0.3157889999999952,
          "durationTicks": 192,
          "midi": 55,
          "name": "G3",
          "ticks": 55968,
          "time": 92.0524935,
          "velocity": 0.3937007874015748
        },
        {
          "duration": 0.3157889999999952,
          "durationTicks": 192,
          "midi": 67,
          "name": "G4",
          "ticks": 55968,
          "time": 92.0524935,
          "velocity": 0.3937007874015748
        },
        {
          "duration": 0.3157890000000094,
          "durationTicks": 192,
          "midi": 54,
          "name": "F#3",
          "ticks": 56256,
          "time": 92.52617699999999,
          "velocity": 0.3937007874015748
        },
        {
          "duration": 0.3157890000000094,
          "durationTicks": 192,
          "midi": 66,
          "name": "F#4",
          "ticks": 56256,
          "time": 92.52617699999999,
          "velocity": 0.3937007874015748
        },
        {
          "duration": 0.1578944999999976,
          "durationTicks": 96,
          "midi": 52,
          "name": "E3",
          "ticks": 56448,
          "time": 92.841966,
          "velocity": 0.3937007874015748
        },
        {
          "duration": 0.1578944999999976,
          "durationTicks": 96,
          "midi": 64,
          "name": "E4",
          "ticks": 56448,
          "time": 92.841966,
          "velocity": 0.3937007874015748
        },
        {
          "duration": 0.1578944999999976,
          "durationTicks": 96,
          "midi": 49,
          "name": "C#3",
          "ticks": 56544,
          "time": 92.9998605,
          "velocity": 0.3937007874015748
        },
        {
          "duration": 0.1578944999999976,
          "durationTicks": 96,
          "midi": 61,
          "name": "C#4",
          "ticks": 56544,
          "time": 92.9998605,
          "velocity": 0.3937007874015748
        },
        {
          "duration": 0.1578944999999976,
          "durationTicks": 96,
          "midi": 52,
          "name": "E3",
          "ticks": 56640,
          "time": 93.157755,
          "velocity": 0.3937007874015748
        },
        {
          "duration": 0.1578944999999976,
          "durationTicks": 96,
          "midi": 64,
          "name": "E4",
          "ticks": 56640,
          "time": 93.157755,
          "velocity": 0.3937007874015748
        },
        {
          "duration": 0.1578944999999976,
          "durationTicks": 96,
          "midi": 66,
          "name": "F#4",
          "ticks": 56736,
          "time": 93.31564949999999,
          "velocity": 0.3937007874015748
        },
        {
          "duration": 0.1578944999999976,
          "durationTicks": 96,
          "midi": 54,
          "name": "F#3",
          "ticks": 56736,
          "time": 93.31564949999999,
          "velocity": 0.3937007874015748
        },
        {
          "duration": 0.3157890000000094,
          "durationTicks": 192,
          "midi": 47,
          "name": "B2",
          "ticks": 56832,
          "time": 93.47354399999999,
          "velocity": 0.3937007874015748
        },
        {
          "duration": 0.3157890000000094,
          "durationTicks": 192,
          "midi": 59,
          "name": "B3",
          "ticks": 56832,
          "time": 93.47354399999999,
          "velocity": 0.3937007874015748
        },
        {
          "duration": 0.3157889999999952,
          "durationTicks": 192,
          "midi": 61,
          "name": "C#4",
          "ticks": 57024,
          "time": 93.789333,
          "velocity": 0.3937007874015748
        },
        {
          "duration": 0.3157889999999952,
          "durationTicks": 192,
          "midi": 73,
          "name": "C#5",
          "ticks": 57024,
          "time": 93.789333,
          "velocity": 0.3937007874015748
        },
        {
          "duration": 0.3157889999999952,
          "durationTicks": 192,
          "midi": 56,
          "name": "G#3",
          "ticks": 57216,
          "time": 94.105122,
          "velocity": 0.3937007874015748
        },
        {
          "duration": 0.3157889999999952,
          "durationTicks": 192,
          "midi": 68,
          "name": "G#4",
          "ticks": 57216,
          "time": 94.105122,
          "velocity": 0.3937007874015748
        },
        {
          "duration": 0.3157890000000094,
          "durationTicks": 192,
          "midi": 54,
          "name": "F#3",
          "ticks": 57408,
          "time": 94.42091099999999,
          "velocity": 0.3937007874015748
        },
        {
          "duration": 0.3157890000000094,
          "durationTicks": 192,
          "midi": 66,
          "name": "F#4",
          "ticks": 57408,
          "time": 94.42091099999999,
          "velocity": 0.3937007874015748
        },
        {
          "duration": 0.3157889999999952,
          "durationTicks": 192,
          "midi": 52,
          "name": "E3",
          "ticks": 57600,
          "time": 94.7367,
          "velocity": 0.3937007874015748
        },
        {
          "duration": 0.3157889999999952,
          "durationTicks": 192,
          "midi": 64,
          "name": "E4",
          "ticks": 57600,
          "time": 94.7367,
          "velocity": 0.3937007874015748
        },
        {
          "duration": 0.1578944999999976,
          "durationTicks": 96,
          "midi": 51,
          "name": "D#3",
          "ticks": 57792,
          "time": 95.052489,
          "velocity": 0.3937007874015748
        },
        {
          "duration": 0.1578944999999976,
          "durationTicks": 96,
          "midi": 63,
          "name": "D#4",
          "ticks": 57792,
          "time": 95.052489,
          "velocity": 0.3937007874015748
        },
        {
          "duration": 0.1578944999999976,
          "durationTicks": 96,
          "midi": 52,
          "name": "E3",
          "ticks": 57888,
          "time": 95.21038349999999,
          "velocity": 0.3937007874015748
        },
        {
          "duration": 0.1578944999999976,
          "durationTicks": 96,
          "midi": 64,
          "name": "E4",
          "ticks": 57888,
          "time": 95.21038349999999,
          "velocity": 0.3937007874015748
        },
        {
          "duration": 0.15789450000001182,
          "durationTicks": 96,
          "midi": 63,
          "name": "D#4",
          "ticks": 57984,
          "time": 95.36827799999999,
          "velocity": 0.3937007874015748
        },
        {
          "duration": 0.15789450000001182,
          "durationTicks": 96,
          "midi": 51,
          "name": "D#3",
          "ticks": 57984,
          "time": 95.36827799999999,
          "velocity": 0.3937007874015748
        },
        {
          "duration": 0.1578944999999976,
          "durationTicks": 96,
          "midi": 61,
          "name": "C#4",
          "ticks": 58080,
          "time": 95.5261725,
          "velocity": 0.3937007874015748
        },
        {
          "duration": 0.1578944999999976,
          "durationTicks": 96,
          "midi": 49,
          "name": "C#3",
          "ticks": 58080,
          "time": 95.5261725,
          "velocity": 0.3937007874015748
        },
        {
          "duration": 0.1578944999999976,
          "durationTicks": 96,
          "midi": 47,
          "name": "B2",
          "ticks": 58176,
          "time": 95.684067,
          "velocity": 0.3937007874015748
        },
        {
          "duration": 0.1578944999999976,
          "durationTicks": 96,
          "midi": 59,
          "name": "B3",
          "ticks": 58176,
          "time": 95.684067,
          "velocity": 0.3937007874015748
        },
        {
          "duration": 0.1578944999999976,
          "durationTicks": 96,
          "midi": 44,
          "name": "G#2",
          "ticks": 58272,
          "time": 95.8419615,
          "velocity": 0.3937007874015748
        },
        {
          "duration": 0.1578944999999976,
          "durationTicks": 96,
          "midi": 56,
          "name": "G#3",
          "ticks": 58272,
          "time": 95.8419615,
          "velocity": 0.3937007874015748
        },
        {
          "duration": 0.1578944999999976,
          "durationTicks": 96,
          "midi": 57,
          "name": "A3",
          "ticks": 58368,
          "time": 95.999856,
          "velocity": 0.3937007874015748
        },
        {
          "duration": 0.1578944999999976,
          "durationTicks": 96,
          "midi": 45,
          "name": "A2",
          "ticks": 58368,
          "time": 95.999856,
          "velocity": 0.3937007874015748
        },
        {
          "duration": 0.1578944999999976,
          "durationTicks": 96,
          "midi": 45,
          "name": "A2",
          "ticks": 58464,
          "time": 96.15775049999999,
          "velocity": 0.3937007874015748
        },
        {
          "duration": 0.1578944999999976,
          "durationTicks": 96,
          "midi": 57,
          "name": "A3",
          "ticks": 58464,
          "time": 96.15775049999999,
          "velocity": 0.3937007874015748
        },
        {
          "duration": 0.3157890000000094,
          "durationTicks": 192,
          "midi": 61,
          "name": "C#4",
          "ticks": 58560,
          "time": 96.31564499999999,
          "velocity": 0.3937007874015748
        },
        {
          "duration": 0.3157890000000094,
          "durationTicks": 192,
          "midi": 73,
          "name": "C#5",
          "ticks": 58560,
          "time": 96.31564499999999,
          "velocity": 0.3937007874015748
        },
        {
          "duration": 0.3157889999999952,
          "durationTicks": 192,
          "midi": 56,
          "name": "G#3",
          "ticks": 58752,
          "time": 96.631434,
          "velocity": 0.3937007874015748
        },
        {
          "duration": 0.3157889999999952,
          "durationTicks": 192,
          "midi": 68,
          "name": "G#4",
          "ticks": 58752,
          "time": 96.631434,
          "velocity": 0.3937007874015748
        },
        {
          "duration": 0.1578944999999976,
          "durationTicks": 96,
          "midi": 73,
          "name": "C#5",
          "ticks": 58944,
          "time": 96.947223,
          "velocity": 0.3937007874015748
        },
        {
          "duration": 0.1578944999999976,
          "durationTicks": 96,
          "midi": 61,
          "name": "C#4",
          "ticks": 58944,
          "time": 96.947223,
          "velocity": 0.3937007874015748
        },
        {
          "duration": 0.1578944999999976,
          "durationTicks": 96,
          "midi": 57,
          "name": "A3",
          "ticks": 59040,
          "time": 97.10511749999999,
          "velocity": 0.3937007874015748
        },
        {
          "duration": 0.1578944999999976,
          "durationTicks": 96,
          "midi": 69,
          "name": "A4",
          "ticks": 59040,
          "time": 97.10511749999999,
          "velocity": 0.3937007874015748
        },
        {
          "duration": 0.15789450000001182,
          "durationTicks": 96,
          "midi": 61,
          "name": "C#4",
          "ticks": 59136,
          "time": 97.26301199999999,
          "velocity": 0.3937007874015748
        },
        {
          "duration": 0.15789450000001182,
          "durationTicks": 96,
          "midi": 73,
          "name": "C#5",
          "ticks": 59136,
          "time": 97.26301199999999,
          "velocity": 0.3937007874015748
        },
        {
          "duration": 0.1578944999999976,
          "durationTicks": 96,
          "midi": 59,
          "name": "B3",
          "ticks": 59232,
          "time": 97.4209065,
          "velocity": 0.3937007874015748
        },
        {
          "duration": 0.1578944999999976,
          "durationTicks": 96,
          "midi": 71,
          "name": "B4",
          "ticks": 59232,
          "time": 97.4209065,
          "velocity": 0.3937007874015748
        },
        {
          "duration": 0.3157889999999952,
          "durationTicks": 192,
          "midi": 56,
          "name": "G#3",
          "ticks": 59328,
          "time": 97.578801,
          "velocity": 0.3937007874015748
        },
        {
          "duration": 0.3157889999999952,
          "durationTicks": 192,
          "midi": 68,
          "name": "G#4",
          "ticks": 59328,
          "time": 97.578801,
          "velocity": 0.3937007874015748
        },
        {
          "duration": 0.3157889999999952,
          "durationTicks": 192,
          "midi": 66,
          "name": "F#4",
          "ticks": 59520,
          "time": 97.89459,
          "velocity": 0.3937007874015748
        },
        {
          "duration": 0.3157889999999952,
          "durationTicks": 192,
          "midi": 54,
          "name": "F#3",
          "ticks": 59520,
          "time": 97.89459,
          "velocity": 0.3937007874015748
        },
        {
          "duration": 0.15789450000001182,
          "durationTicks": 96,
          "midi": 56,
          "name": "G#3",
          "ticks": 59712,
          "time": 98.21037899999999,
          "velocity": 0.3937007874015748
        },
        {
          "duration": 0.15789450000001182,
          "durationTicks": 96,
          "midi": 68,
          "name": "G#4",
          "ticks": 59712,
          "time": 98.21037899999999,
          "velocity": 0.3937007874015748
        },
        {
          "duration": 0.1578944999999976,
          "durationTicks": 96,
          "midi": 52,
          "name": "E3",
          "ticks": 59808,
          "time": 98.3682735,
          "velocity": 0.3937007874015748
        },
        {
          "duration": 0.1578944999999976,
          "durationTicks": 96,
          "midi": 64,
          "name": "E4",
          "ticks": 59808,
          "time": 98.3682735,
          "velocity": 0.3937007874015748
        },
        {
          "duration": 0.1578944999999976,
          "durationTicks": 96,
          "midi": 56,
          "name": "G#3",
          "ticks": 59904,
          "time": 98.526168,
          "velocity": 0.3937007874015748
        },
        {
          "duration": 0.1578944999999976,
          "durationTicks": 96,
          "midi": 44,
          "name": "G#2",
          "ticks": 59904,
          "time": 98.526168,
          "velocity": 0.3937007874015748
        },
        {
          "duration": 0.1578944999999976,
          "durationTicks": 96,
          "midi": 56,
          "name": "G#3",
          "ticks": 60000,
          "time": 98.6840625,
          "velocity": 0.3937007874015748
        },
        {
          "duration": 0.1578944999999976,
          "durationTicks": 96,
          "midi": 44,
          "name": "G#2",
          "ticks": 60000,
          "time": 98.6840625,
          "velocity": 0.3937007874015748
        },
        {
          "duration": 0.3157889999999952,
          "durationTicks": 192,
          "midi": 61,
          "name": "C#4",
          "ticks": 60096,
          "time": 98.841957,
          "velocity": 0.3937007874015748
        },
        {
          "duration": 0.3157889999999952,
          "durationTicks": 192,
          "midi": 73,
          "name": "C#5",
          "ticks": 60096,
          "time": 98.841957,
          "velocity": 0.3937007874015748
        },
        {
          "duration": 0.3157890000000094,
          "durationTicks": 192,
          "midi": 44,
          "name": "G#2",
          "ticks": 60288,
          "time": 99.15774599999999,
          "velocity": 0.3937007874015748
        },
        {
          "duration": 0.3157890000000094,
          "durationTicks": 192,
          "midi": 56,
          "name": "G#3",
          "ticks": 60288,
          "time": 99.15774599999999,
          "velocity": 0.3937007874015748
        },
        {
          "duration": 0.3157889999999952,
          "durationTicks": 192,
          "midi": 61,
          "name": "C#4",
          "ticks": 60480,
          "time": 99.473535,
          "velocity": 0.3937007874015748
        },
        {
          "duration": 0.3157889999999952,
          "durationTicks": 192,
          "midi": 73,
          "name": "C#5",
          "ticks": 60480,
          "time": 99.473535,
          "velocity": 0.3937007874015748
        },
        {
          "duration": 0.1578944999999976,
          "durationTicks": 96,
          "midi": 55,
          "name": "G3",
          "ticks": 60672,
          "time": 99.789324,
          "velocity": 0.3937007874015748
        },
        {
          "duration": 0.1578944999999976,
          "durationTicks": 96,
          "midi": 43,
          "name": "G2",
          "ticks": 60672,
          "time": 99.789324,
          "velocity": 0.3937007874015748
        },
        {
          "duration": 0.1578944999999976,
          "durationTicks": 96,
          "midi": 43,
          "name": "G2",
          "ticks": 60768,
          "time": 99.94721849999999,
          "velocity": 0.3937007874015748
        },
        {
          "duration": 0.1578944999999976,
          "durationTicks": 96,
          "midi": 55,
          "name": "G3",
          "ticks": 60768,
          "time": 99.94721849999999,
          "velocity": 0.3937007874015748
        },
        {
          "duration": 0.3157890000000094,
          "durationTicks": 192,
          "midi": 61,
          "name": "C#4",
          "ticks": 60864,
          "time": 100.10511299999999,
          "velocity": 0.3937007874015748
        },
        {
          "duration": 0.3157890000000094,
          "durationTicks": 192,
          "midi": 73,
          "name": "C#5",
          "ticks": 60864,
          "time": 100.10511299999999,
          "velocity": 0.3937007874015748
        },
        {
          "duration": 0.3157889999999952,
          "durationTicks": 192,
          "midi": 45,
          "name": "A2",
          "ticks": 61056,
          "time": 100.420902,
          "velocity": 0.3937007874015748
        },
        {
          "duration": 0.3157889999999952,
          "durationTicks": 192,
          "midi": 57,
          "name": "A3",
          "ticks": 61056,
          "time": 100.420902,
          "velocity": 0.3937007874015748
        },
        {
          "duration": 0.3157890000000094,
          "durationTicks": 192,
          "midi": 75,
          "name": "D#5",
          "ticks": 61248,
          "time": 100.736691,
          "velocity": 0.3937007874015748
        },
        {
          "duration": 0.3157890000000094,
          "durationTicks": 192,
          "midi": 63,
          "name": "D#4",
          "ticks": 61248,
          "time": 100.736691,
          "velocity": 0.3937007874015748
        },
        {
          "duration": 0.3157889999999952,
          "durationTicks": 192,
          "midi": 61,
          "name": "C#4",
          "ticks": 61440,
          "time": 101.05248,
          "velocity": 0.3937007874015748
        },
        {
          "duration": 0.3157889999999952,
          "durationTicks": 192,
          "midi": 73,
          "name": "C#5",
          "ticks": 61632,
          "time": 101.368269,
          "velocity": 0.3937007874015748
        },
        {
          "duration": 0.1578944999999976,
          "durationTicks": 96,
          "midi": 68,
          "name": "G#4",
          "ticks": 61824,
          "time": 101.684058,
          "velocity": 0.3937007874015748
        },
        {
          "duration": 0.3157889999999952,
          "durationTicks": 192,
          "midi": 67,
          "name": "G4",
          "ticks": 62112,
          "time": 102.1577415,
          "velocity": 0.3937007874015748
        },
        {
          "duration": 0.3157890000000094,
          "durationTicks": 192,
          "midi": 66,
          "name": "F#4",
          "ticks": 62400,
          "time": 102.631425,
          "velocity": 0.3937007874015748
        },
        {
          "duration": 0.1578944999999976,
          "durationTicks": 96,
          "midi": 64,
          "name": "E4",
          "ticks": 62592,
          "time": 102.947214,
          "velocity": 0.3937007874015748
        },
        {
          "duration": 0.1578944999999976,
          "durationTicks": 96,
          "midi": 61,
          "name": "C#4",
          "ticks": 62688,
          "time": 103.1051085,
          "velocity": 0.3937007874015748
        },
        {
          "duration": 0.1578944999999976,
          "durationTicks": 96,
          "midi": 64,
          "name": "E4",
          "ticks": 62784,
          "time": 103.263003,
          "velocity": 0.3937007874015748
        },
        {
          "duration": 0.1578944999999976,
          "durationTicks": 96,
          "midi": 66,
          "name": "F#4",
          "ticks": 62880,
          "time": 103.4208975,
          "velocity": 0.3937007874015748
        },
        {
          "duration": 0.3157890000000094,
          "durationTicks": 192,
          "midi": 59,
          "name": "B3",
          "ticks": 62976,
          "time": 103.57879199999999,
          "velocity": 0.3937007874015748
        },
        {
          "duration": 0.3157889999999952,
          "durationTicks": 192,
          "midi": 73,
          "name": "C#5",
          "ticks": 63168,
          "time": 103.894581,
          "velocity": 0.3937007874015748
        },
        {
          "duration": 0.3157889999999952,
          "durationTicks": 192,
          "midi": 68,
          "name": "G#4",
          "ticks": 63360,
          "time": 104.21037,
          "velocity": 0.3937007874015748
        },
        {
          "duration": 0.3157890000000094,
          "durationTicks": 192,
          "midi": 66,
          "name": "F#4",
          "ticks": 63552,
          "time": 104.52615899999999,
          "velocity": 0.3937007874015748
        },
        {
          "duration": 0.3157889999999952,
          "durationTicks": 192,
          "midi": 64,
          "name": "E4",
          "ticks": 63744,
          "time": 104.841948,
          "velocity": 0.3937007874015748
        },
        {
          "duration": 0.1578944999999976,
          "durationTicks": 96,
          "midi": 63,
          "name": "D#4",
          "ticks": 63936,
          "time": 105.157737,
          "velocity": 0.3937007874015748
        },
        {
          "duration": 0.1578944999999976,
          "durationTicks": 96,
          "midi": 64,
          "name": "E4",
          "ticks": 64032,
          "time": 105.3156315,
          "velocity": 0.3937007874015748
        },
        {
          "duration": 0.1578944999999976,
          "durationTicks": 96,
          "midi": 63,
          "name": "D#4",
          "ticks": 64128,
          "time": 105.47352599999999,
          "velocity": 0.3937007874015748
        },
        {
          "duration": 0.15789450000001182,
          "durationTicks": 96,
          "midi": 61,
          "name": "C#4",
          "ticks": 64224,
          "time": 105.63142049999999,
          "velocity": 0.3937007874015748
        },
        {
          "duration": 0.1578944999999976,
          "durationTicks": 96,
          "midi": 59,
          "name": "B3",
          "ticks": 64320,
          "time": 105.789315,
          "velocity": 0.3937007874015748
        },
        {
          "duration": 0.1578944999999976,
          "durationTicks": 96,
          "midi": 56,
          "name": "G#3",
          "ticks": 64416,
          "time": 105.9472095,
          "velocity": 0.3937007874015748
        },
        {
          "duration": 0.1578944999999976,
          "durationTicks": 96,
          "midi": 57,
          "name": "A3",
          "ticks": 64512,
          "time": 106.105104,
          "velocity": 0.3937007874015748
        },
        {
          "duration": 0.1578944999999976,
          "durationTicks": 96,
          "midi": 57,
          "name": "A3",
          "ticks": 64608,
          "time": 106.2629985,
          "velocity": 0.3937007874015748
        },
        {
          "duration": 0.3157890000000094,
          "durationTicks": 192,
          "midi": 73,
          "name": "C#5",
          "ticks": 64704,
          "time": 106.42089299999999,
          "velocity": 0.3937007874015748
        },
        {
          "duration": 0.3157889999999952,
          "durationTicks": 192,
          "midi": 68,
          "name": "G#4",
          "ticks": 64896,
          "time": 106.736682,
          "velocity": 0.3937007874015748
        },
        {
          "duration": 0.1578944999999976,
          "durationTicks": 96,
          "midi": 73,
          "name": "C#5",
          "ticks": 65088,
          "time": 107.052471,
          "velocity": 0.3937007874015748
        },
        {
          "duration": 0.1578944999999976,
          "durationTicks": 96,
          "midi": 69,
          "name": "A4",
          "ticks": 65184,
          "time": 107.2103655,
          "velocity": 0.3937007874015748
        },
        {
          "duration": 0.1578944999999976,
          "durationTicks": 96,
          "midi": 73,
          "name": "C#5",
          "ticks": 65280,
          "time": 107.36825999999999,
          "velocity": 0.3937007874015748
        },
        {
          "duration": 0.15789450000001182,
          "durationTicks": 96,
          "midi": 71,
          "name": "B4",
          "ticks": 65376,
          "time": 107.52615449999999,
          "velocity": 0.3937007874015748
        },
        {
          "duration": 0.3157889999999952,
          "durationTicks": 192,
          "midi": 68,
          "name": "G#4",
          "ticks": 65472,
          "time": 107.684049,
          "velocity": 0.3937007874015748
        },
        {
          "duration": 0.3157889999999952,
          "durationTicks": 192,
          "midi": 66,
          "name": "F#4",
          "ticks": 65664,
          "time": 107.999838,
          "velocity": 0.3937007874015748
        },
        {
          "duration": 0.1578944999999976,
          "durationTicks": 96,
          "midi": 68,
          "name": "G#4",
          "ticks": 65856,
          "time": 108.31562699999999,
          "velocity": 0.3937007874015748
        },
        {
          "duration": 0.15789450000001182,
          "durationTicks": 96,
          "midi": 64,
          "name": "E4",
          "ticks": 65952,
          "time": 108.47352149999999,
          "velocity": 0.3937007874015748
        },
        {
          "duration": 0.3157889999999952,
          "durationTicks": 192,
          "midi": 56,
          "name": "G#3",
          "ticks": 66048,
          "time": 108.631416,
          "velocity": 0.3937007874015748
        },
        {
          "duration": 0.3157889999999952,
          "durationTicks": 192,
          "midi": 73,
          "name": "C#5",
          "ticks": 66240,
          "time": 108.947205,
          "velocity": 0.3937007874015748
        },
        {
          "duration": 0.47368350000000703,
          "durationTicks": 288,
          "midi": 56,
          "name": "G#3",
          "ticks": 66432,
          "time": 109.26299399999999,
          "velocity": 0.3937007874015748
        },
        {
          "duration": 0.4736834999999928,
          "durationTicks": 288,
          "midi": 73,
          "name": "C#5",
          "ticks": 66720,
          "time": 109.7366775,
          "velocity": 0.3937007874015748
        },
        {
          "duration": 0.6315780000000046,
          "durationTicks": 384,
          "midi": 55,
          "name": "G3",
          "ticks": 67008,
          "time": 110.21036099999999,
          "velocity": 0.3937007874015748
        },
        {
          "duration": 0.6315780000000046,
          "durationTicks": 384,
          "midi": 73,
          "name": "C#5",
          "ticks": 67392,
          "time": 110.841939,
          "velocity": 0.3937007874015748
        },
        {
          "duration": 0.789472499999988,
          "durationTicks": 480,
          "midi": 57,
          "name": "A3",
          "ticks": 67776,
          "time": 111.473517,
          "velocity": 0.3937007874015748
        },
        {
          "duration": 1.4210505000000069,
          "durationTicks": 864,
          "midi": 75,
          "name": "D#5",
          "ticks": 68256,
          "time": 112.26298949999999,
          "velocity": 0.3937007874015748
        },
        {
          "duration": 0.3157889999999952,
          "durationTicks": 192,
          "midi": 37,
          "name": "C#2",
          "ticks": 69120,
          "time": 113.68404,
          "velocity": 0.3937007874015748
        },
        {
          "duration": 0.3157890000000094,
          "durationTicks": 192,
          "midi": 49,
          "name": "C#3",
          "ticks": 69312,
          "time": 113.99982899999999,
          "velocity": 0.3937007874015748
        },
        {
          "duration": 0.1578944999999976,
          "durationTicks": 96,
          "midi": 44,
          "name": "G#2",
          "ticks": 69504,
          "time": 114.315618,
          "velocity": 0.3937007874015748
        },
        {
          "duration": 0.3157889999999952,
          "durationTicks": 192,
          "midi": 43,
          "name": "G2",
          "ticks": 69792,
          "time": 114.7893015,
          "velocity": 0.3937007874015748
        },
        {
          "duration": 0.3157889999999952,
          "durationTicks": 192,
          "midi": 42,
          "name": "F#2",
          "ticks": 70080,
          "time": 115.262985,
          "velocity": 0.3937007874015748
        },
        {
          "duration": 0.1578944999999976,
          "durationTicks": 96,
          "midi": 40,
          "name": "E2",
          "ticks": 70272,
          "time": 115.578774,
          "velocity": 0.3937007874015748
        },
        {
          "duration": 0.1578944999999976,
          "durationTicks": 96,
          "midi": 37,
          "name": "C#2",
          "ticks": 70368,
          "time": 115.7366685,
          "velocity": 0.3937007874015748
        },
        {
          "duration": 0.1578944999999976,
          "durationTicks": 96,
          "midi": 40,
          "name": "E2",
          "ticks": 70464,
          "time": 115.89456299999999,
          "velocity": 0.3937007874015748
        },
        {
          "duration": 0.15789450000001182,
          "durationTicks": 96,
          "midi": 42,
          "name": "F#2",
          "ticks": 70560,
          "time": 116.05245749999999,
          "velocity": 0.3937007874015748
        },
        {
          "duration": 0.3157889999999952,
          "durationTicks": 192,
          "midi": 35,
          "name": "B1",
          "ticks": 70656,
          "time": 116.210352,
          "velocity": 0.3937007874015748
        },
        {
          "duration": 0.3157889999999952,
          "durationTicks": 192,
          "midi": 49,
          "name": "C#3",
          "ticks": 70848,
          "time": 116.526141,
          "velocity": 0.3937007874015748
        },
        {
          "duration": 0.3157890000000094,
          "durationTicks": 192,
          "midi": 44,
          "name": "G#2",
          "ticks": 71040,
          "time": 116.84192999999999,
          "velocity": 0.3937007874015748
        },
        {
          "duration": 0.3157889999999952,
          "durationTicks": 192,
          "midi": 42,
          "name": "F#2",
          "ticks": 71232,
          "time": 117.157719,
          "velocity": 0.3937007874015748
        },
        {
          "duration": 0.3157889999999952,
          "durationTicks": 192,
          "midi": 40,
          "name": "E2",
          "ticks": 71424,
          "time": 117.473508,
          "velocity": 0.3937007874015748
        },
        {
          "duration": 0.1578944999999976,
          "durationTicks": 96,
          "midi": 39,
          "name": "D#2",
          "ticks": 71616,
          "time": 117.78929699999999,
          "velocity": 0.3937007874015748
        },
        {
          "duration": 0.15789450000001182,
          "durationTicks": 96,
          "midi": 40,
          "name": "E2",
          "ticks": 71712,
          "time": 117.94719149999999,
          "velocity": 0.3937007874015748
        },
        {
          "duration": 0.1578944999999976,
          "durationTicks": 96,
          "midi": 39,
          "name": "D#2",
          "ticks": 71808,
          "time": 118.105086,
          "velocity": 0.3937007874015748
        },
        {
          "duration": 0.1578944999999976,
          "durationTicks": 96,
          "midi": 37,
          "name": "C#2",
          "ticks": 71904,
          "time": 118.2629805,
          "velocity": 0.3937007874015748
        },
        {
          "duration": 0.1578944999999976,
          "durationTicks": 96,
          "midi": 35,
          "name": "B1",
          "ticks": 72000,
          "time": 118.420875,
          "velocity": 0.3937007874015748
        },
        {
          "duration": 0.1578944999999976,
          "durationTicks": 96,
          "midi": 32,
          "name": "G#1",
          "ticks": 72096,
          "time": 118.57876949999999,
          "velocity": 0.3937007874015748
        },
        {
          "duration": 0.1578944999999976,
          "durationTicks": 96,
          "midi": 33,
          "name": "A1",
          "ticks": 72192,
          "time": 118.73666399999999,
          "velocity": 0.3937007874015748
        },
        {
          "duration": 0.15789450000001182,
          "durationTicks": 96,
          "midi": 33,
          "name": "A1",
          "ticks": 72288,
          "time": 118.89455849999999,
          "velocity": 0.3937007874015748
        },
        {
          "duration": 0.3157889999999952,
          "durationTicks": 192,
          "midi": 49,
          "name": "C#3",
          "ticks": 72384,
          "time": 119.052453,
          "velocity": 0.3937007874015748
        },
        {
          "duration": 0.3157889999999952,
          "durationTicks": 192,
          "midi": 44,
          "name": "G#2",
          "ticks": 72576,
          "time": 119.368242,
          "velocity": 0.3937007874015748
        },
        {
          "duration": 0.1578944999999976,
          "durationTicks": 96,
          "midi": 49,
          "name": "C#3",
          "ticks": 72768,
          "time": 119.68403099999999,
          "velocity": 0.3937007874015748
        },
        {
          "duration": 0.15789450000001182,
          "durationTicks": 96,
          "midi": 45,
          "name": "A2",
          "ticks": 72864,
          "time": 119.84192549999999,
          "velocity": 0.3937007874015748
        },
        {
          "duration": 0.1578944999999976,
          "durationTicks": 96,
          "midi": 49,
          "name": "C#3",
          "ticks": 72960,
          "time": 119.99982,
          "velocity": 0.3937007874015748
        },
        {
          "duration": 0.1578944999999976,
          "durationTicks": 96,
          "midi": 47,
          "name": "B2",
          "ticks": 73056,
          "time": 120.1577145,
          "velocity": 0.3937007874015748
        },
        {
          "duration": 0.3157889999999952,
          "durationTicks": 192,
          "midi": 44,
          "name": "G#2",
          "ticks": 73152,
          "time": 120.315609,
          "velocity": 0.3937007874015748
        },
        {
          "duration": 0.3157890000000094,
          "durationTicks": 192,
          "midi": 42,
          "name": "F#2",
          "ticks": 73344,
          "time": 120.63139799999999,
          "velocity": 0.3937007874015748
        },
        {
          "duration": 0.1578944999999976,
          "durationTicks": 96,
          "midi": 44,
          "name": "G#2",
          "ticks": 73536,
          "time": 120.947187,
          "velocity": 0.3937007874015748
        },
        {
          "duration": 0.1578944999999976,
          "durationTicks": 96,
          "midi": 40,
          "name": "E2",
          "ticks": 73632,
          "time": 121.1050815,
          "velocity": 0.3937007874015748
        },
        {
          "duration": 0.3157889999999952,
          "durationTicks": 192,
          "midi": 32,
          "name": "G#1",
          "ticks": 73728,
          "time": 121.262976,
          "velocity": 0.3937007874015748
        },
        {
          "duration": 0.3157890000000094,
          "durationTicks": 192,
          "midi": 49,
          "name": "C#3",
          "ticks": 73920,
          "time": 121.57876499999999,
          "velocity": 0.3937007874015748
        },
        {
          "duration": 0.3157889999999952,
          "durationTicks": 192,
          "midi": 32,
          "name": "G#1",
          "ticks": 74112,
          "time": 121.894554,
          "velocity": 0.3937007874015748
        },
        {
          "duration": 0.3157889999999952,
          "durationTicks": 192,
          "midi": 49,
          "name": "C#3",
          "ticks": 74304,
          "time": 122.210343,
          "velocity": 0.3937007874015748
        },
        {
          "duration": 0.3157890000000094,
          "durationTicks": 192,
          "midi": 31,
          "name": "G1",
          "ticks": 74496,
          "time": 122.52613199999999,
          "velocity": 0.3937007874015748
        },
        {
          "duration": 0.3157889999999952,
          "durationTicks": 192,
          "midi": 49,
          "name": "C#3",
          "ticks": 74688,
          "time": 122.841921,
          "velocity": 0.3937007874015748
        },
        {
          "duration": 0.3157889999999952,
          "durationTicks": 192,
          "midi": 33,
          "name": "A1",
          "ticks": 74880,
          "time": 123.15771,
          "velocity": 0.3937007874015748
        },
        {
          "duration": 0.3157890000000094,
          "durationTicks": 192,
          "midi": 51,
          "name": "D#3",
          "ticks": 75072,
          "time": 123.47349899999999,
          "velocity": 0.3937007874015748
        },
        {
          "duration": 0.3157889999999952,
          "durationTicks": 192,
          "midi": 37,
          "name": "C#2",
          "ticks": 75264,
          "time": 123.789288,
          "velocity": 0.3937007874015748
        },
        {
          "duration": 0.3157889999999952,
          "durationTicks": 192,
          "midi": 49,
          "name": "C#3",
          "ticks": 75456,
          "time": 124.105077,
          "velocity": 0.3937007874015748
        },
        {
          "duration": 0.15789450000001182,
          "durationTicks": 96,
          "midi": 44,
          "name": "G#2",
          "ticks": 75648,
          "time": 124.42086599999999,
          "velocity": 0.3937007874015748
        },
        {
          "duration": 0.3157889999999952,
          "durationTicks": 192,
          "midi": 43,
          "name": "G2",
          "ticks": 75936,
          "time": 124.8945495,
          "velocity": 0.3937007874015748
        },
        {
          "duration": 0.3157890000000094,
          "durationTicks": 192,
          "midi": 42,
          "name": "F#2",
          "ticks": 76224,
          "time": 125.36823299999999,
          "velocity": 0.3937007874015748
        },
        {
          "duration": 0.1578944999999976,
          "durationTicks": 96,
          "midi": 40,
          "name": "E2",
          "ticks": 76416,
          "time": 125.684022,
          "velocity": 0.3937007874015748
        },
        {
          "duration": 0.1578944999999976,
          "durationTicks": 96,
          "midi": 37,
          "name": "C#2",
          "ticks": 76512,
          "time": 125.8419165,
          "velocity": 0.3937007874015748
        },
        {
          "duration": 0.1578944999999976,
          "durationTicks": 96,
          "midi": 40,
          "name": "E2",
          "ticks": 76608,
          "time": 125.999811,
          "velocity": 0.3937007874015748
        },
        {
          "duration": 0.1578944999999976,
          "durationTicks": 96,
          "midi": 42,
          "name": "F#2",
          "ticks": 76704,
          "time": 126.15770549999999,
          "velocity": 0.3937007874015748
        },
        {
          "duration": 0.3157890000000094,
          "durationTicks": 192,
          "midi": 35,
          "name": "B1",
          "ticks": 76800,
          "time": 126.31559999999999,
          "velocity": 0.3937007874015748
        },
        {
          "duration": 0.3157889999999952,
          "durationTicks": 192,
          "midi": 49,
          "name": "C#3",
          "ticks": 76992,
          "time": 126.631389,
          "velocity": 0.3937007874015748
        },
        {
          "duration": 0.3157889999999952,
          "durationTicks": 192,
          "midi": 44,
          "name": "G#2",
          "ticks": 77184,
          "time": 126.947178,
          "velocity": 0.3937007874015748
        },
        {
          "duration": 0.3157890000000094,
          "durationTicks": 192,
          "midi": 42,
          "name": "F#2",
          "ticks": 77376,
          "time": 127.26296699999999,
          "velocity": 0.3937007874015748
        },
        {
          "duration": 0.3157889999999952,
          "durationTicks": 192,
          "midi": 40,
          "name": "E2",
          "ticks": 77568,
          "time": 127.578756,
          "velocity": 0.3937007874015748
        },
        {
          "duration": 0.1578944999999976,
          "durationTicks": 96,
          "midi": 39,
          "name": "D#2",
          "ticks": 77760,
          "time": 127.894545,
          "velocity": 0.3937007874015748
        },
        {
          "duration": 0.1578944999999976,
          "durationTicks": 96,
          "midi": 40,
          "name": "E2",
          "ticks": 77856,
          "time": 128.0524395,
          "velocity": 0.3937007874015748
        },
        {
          "duration": 0.1578944999999976,
          "durationTicks": 96,
          "midi": 39,
          "name": "D#2",
          "ticks": 77952,
          "time": 128.210334,
          "velocity": 0.3937007874015748
        },
        {
          "duration": 0.1578944999999976,
          "durationTicks": 96,
          "midi": 37,
          "name": "C#2",
          "ticks": 78048,
          "time": 128.3682285,
          "velocity": 0.3937007874015748
        },
        {
          "duration": 0.1578944999999976,
          "durationTicks": 96,
          "midi": 35,
          "name": "B1",
          "ticks": 78144,
          "time": 128.52612299999998,
          "velocity": 0.3937007874015748
        },
        {
          "duration": 0.15789450000002603,
          "durationTicks": 96,
          "midi": 32,
          "name": "G#1",
          "ticks": 78240,
          "time": 128.68401749999998,
          "velocity": 0.3937007874015748
        },
        {
          "duration": 0.1578944999999976,
          "durationTicks": 96,
          "midi": 33,
          "name": "A1",
          "ticks": 78336,
          "time": 128.841912,
          "velocity": 0.3937007874015748
        },
        {
          "duration": 0.1578944999999976,
          "durationTicks": 96,
          "midi": 33,
          "name": "A1",
          "ticks": 78432,
          "time": 128.9998065,
          "velocity": 0.3937007874015748
        },
        {
          "duration": 0.3157889999999952,
          "durationTicks": 192,
          "midi": 49,
          "name": "C#3",
          "ticks": 78528,
          "time": 129.157701,
          "velocity": 0.3937007874015748
        },
        {
          "duration": 0.3157889999999952,
          "durationTicks": 192,
          "midi": 44,
          "name": "G#2",
          "ticks": 78720,
          "time": 129.47349,
          "velocity": 0.3937007874015748
        },
        {
          "duration": 0.1578944999999976,
          "durationTicks": 96,
          "midi": 49,
          "name": "C#3",
          "ticks": 78912,
          "time": 129.789279,
          "velocity": 0.3937007874015748
        },
        {
          "duration": 0.1578944999999976,
          "durationTicks": 96,
          "midi": 45,
          "name": "A2",
          "ticks": 79008,
          "time": 129.9471735,
          "velocity": 0.3937007874015748
        },
        {
          "duration": 0.1578944999999976,
          "durationTicks": 96,
          "midi": 49,
          "name": "C#3",
          "ticks": 79104,
          "time": 130.105068,
          "velocity": 0.3937007874015748
        },
        {
          "duration": 0.1578944999999976,
          "durationTicks": 96,
          "midi": 47,
          "name": "B2",
          "ticks": 79200,
          "time": 130.2629625,
          "velocity": 0.3937007874015748
        },
        {
          "duration": 0.31578900000002363,
          "durationTicks": 192,
          "midi": 44,
          "name": "G#2",
          "ticks": 79296,
          "time": 130.42085699999998,
          "velocity": 0.3937007874015748
        },
        {
          "duration": 0.3157889999999952,
          "durationTicks": 192,
          "midi": 42,
          "name": "F#2",
          "ticks": 79488,
          "time": 130.736646,
          "velocity": 0.3937007874015748
        },
        {
          "duration": 0.1578944999999976,
          "durationTicks": 96,
          "midi": 44,
          "name": "G#2",
          "ticks": 79680,
          "time": 131.052435,
          "velocity": 0.3937007874015748
        },
        {
          "duration": 0.1578944999999976,
          "durationTicks": 96,
          "midi": 40,
          "name": "E2",
          "ticks": 79776,
          "time": 131.2103295,
          "velocity": 0.3937007874015748
        },
        {
          "duration": 0.3157889999999952,
          "durationTicks": 192,
          "midi": 32,
          "name": "G#1",
          "ticks": 79872,
          "time": 131.368224,
          "velocity": 0.3937007874015748
        },
        {
          "duration": 0.3157889999999952,
          "durationTicks": 192,
          "midi": 49,
          "name": "C#3",
          "ticks": 80064,
          "time": 131.684013,
          "velocity": 0.3937007874015748
        },
        {
          "duration": 0.3157889999999952,
          "durationTicks": 192,
          "midi": 32,
          "name": "G#1",
          "ticks": 80256,
          "time": 131.999802,
          "velocity": 0.3937007874015748
        },
        {
          "duration": 0.31578900000002363,
          "durationTicks": 192,
          "midi": 49,
          "name": "C#3",
          "ticks": 80448,
          "time": 132.31559099999998,
          "velocity": 0.3937007874015748
        },
        {
          "duration": 0.3157889999999952,
          "durationTicks": 192,
          "midi": 31,
          "name": "G1",
          "ticks": 80640,
          "time": 132.63138,
          "velocity": 0.3937007874015748
        },
        {
          "duration": 0.3157889999999952,
          "durationTicks": 192,
          "midi": 49,
          "name": "C#3",
          "ticks": 80832,
          "time": 132.947169,
          "velocity": 0.3937007874015748
        },
        {
          "duration": 0.3157889999999952,
          "durationTicks": 192,
          "midi": 33,
          "name": "A1",
          "ticks": 81024,
          "time": 133.262958,
          "velocity": 0.3937007874015748
        },
        {
          "duration": 0.3157889999999952,
          "durationTicks": 192,
          "midi": 51,
          "name": "D#3",
          "ticks": 81216,
          "time": 133.578747,
          "velocity": 0.3937007874015748
        },
        {
          "duration": 0.3157889999999952,
          "durationTicks": 192,
          "midi": 37,
          "name": "C#2",
          "ticks": 81408,
          "time": 133.894536,
          "velocity": 0.3937007874015748
        },
        {
          "duration": 0.31578900000002363,
          "durationTicks": 192,
          "midi": 49,
          "name": "C#3",
          "ticks": 81600,
          "time": 134.21032499999998,
          "velocity": 0.3937007874015748
        },
        {
          "duration": 0.1578944999999976,
          "durationTicks": 96,
          "midi": 44,
          "name": "G#2",
          "ticks": 81792,
          "time": 134.526114,
          "velocity": 0.3937007874015748
        },
        {
          "duration": 0.3157889999999952,
          "durationTicks": 192,
          "midi": 43,
          "name": "G2",
          "ticks": 82080,
          "time": 134.9997975,
          "velocity": 0.3937007874015748
        },
        {
          "duration": 0.3157889999999952,
          "durationTicks": 192,
          "midi": 42,
          "name": "F#2",
          "ticks": 82368,
          "time": 135.473481,
          "velocity": 0.3937007874015748
        },
        {
          "duration": 0.1578944999999976,
          "durationTicks": 96,
          "midi": 40,
          "name": "E2",
          "ticks": 82560,
          "time": 135.78927,
          "velocity": 0.3937007874015748
        },
        {
          "duration": 0.1578944999999976,
          "durationTicks": 96,
          "midi": 37,
          "name": "C#2",
          "ticks": 82656,
          "time": 135.94716449999999,
          "velocity": 0.3937007874015748
        },
        {
          "duration": 0.1578944999999976,
          "durationTicks": 96,
          "midi": 40,
          "name": "E2",
          "ticks": 82752,
          "time": 136.10505899999998,
          "velocity": 0.3937007874015748
        },
        {
          "duration": 0.15789450000002603,
          "durationTicks": 96,
          "midi": 42,
          "name": "F#2",
          "ticks": 82848,
          "time": 136.26295349999998,
          "velocity": 0.3937007874015748
        },
        {
          "duration": 0.3157889999999952,
          "durationTicks": 192,
          "midi": 35,
          "name": "B1",
          "ticks": 82944,
          "time": 136.420848,
          "velocity": 0.3937007874015748
        },
        {
          "duration": 0.3157889999999952,
          "durationTicks": 192,
          "midi": 49,
          "name": "C#3",
          "ticks": 83136,
          "time": 136.736637,
          "velocity": 0.3937007874015748
        },
        {
          "duration": 0.3157889999999952,
          "durationTicks": 192,
          "midi": 44,
          "name": "G#2",
          "ticks": 83328,
          "time": 137.052426,
          "velocity": 0.3937007874015748
        },
        {
          "duration": 0.3157889999999952,
          "durationTicks": 192,
          "midi": 42,
          "name": "F#2",
          "ticks": 83520,
          "time": 137.368215,
          "velocity": 0.3937007874015748
        },
        {
          "duration": 0.3157889999999952,
          "durationTicks": 192,
          "midi": 40,
          "name": "E2",
          "ticks": 83712,
          "time": 137.684004,
          "velocity": 0.3937007874015748
        },
        {
          "duration": 0.1578944999999976,
          "durationTicks": 96,
          "midi": 39,
          "name": "D#2",
          "ticks": 83904,
          "time": 137.99979299999998,
          "velocity": 0.3937007874015748
        },
        {
          "duration": 0.15789450000002603,
          "durationTicks": 96,
          "midi": 40,
          "name": "E2",
          "ticks": 84000,
          "time": 138.15768749999998,
          "velocity": 0.3937007874015748
        },
        {
          "duration": 0.1578944999999976,
          "durationTicks": 96,
          "midi": 39,
          "name": "D#2",
          "ticks": 84096,
          "time": 138.315582,
          "velocity": 0.3937007874015748
        },
        {
          "duration": 0.1578944999999976,
          "durationTicks": 96,
          "midi": 37,
          "name": "C#2",
          "ticks": 84192,
          "time": 138.4734765,
          "velocity": 0.3937007874015748
        },
        {
          "duration": 0.1578944999999976,
          "durationTicks": 96,
          "midi": 35,
          "name": "B1",
          "ticks": 84288,
          "time": 138.631371,
          "velocity": 0.3937007874015748
        },
        {
          "duration": 0.1578944999999976,
          "durationTicks": 96,
          "midi": 32,
          "name": "G#1",
          "ticks": 84384,
          "time": 138.7892655,
          "velocity": 0.3937007874015748
        },
        {
          "duration": 0.1578944999999976,
          "durationTicks": 96,
          "midi": 33,
          "name": "A1",
          "ticks": 84480,
          "time": 138.94716,
          "velocity": 0.3937007874015748
        },
        {
          "duration": 0.1578944999999976,
          "durationTicks": 96,
          "midi": 33,
          "name": "A1",
          "ticks": 84576,
          "time": 139.1050545,
          "velocity": 0.3937007874015748
        },
        {
          "duration": 0.3157889999999952,
          "durationTicks": 192,
          "midi": 49,
          "name": "C#3",
          "ticks": 84672,
          "time": 139.262949,
          "velocity": 0.3937007874015748
        },
        {
          "duration": 0.3157889999999952,
          "durationTicks": 192,
          "midi": 44,
          "name": "G#2",
          "ticks": 84864,
          "time": 139.578738,
          "velocity": 0.3937007874015748
        },
        {
          "duration": 0.1578944999999976,
          "durationTicks": 96,
          "midi": 49,
          "name": "C#3",
          "ticks": 85056,
          "time": 139.89452699999998,
          "velocity": 0.3937007874015748
        },
        {
          "duration": 0.15789450000002603,
          "durationTicks": 96,
          "midi": 45,
          "name": "A2",
          "ticks": 85152,
          "time": 140.05242149999998,
          "velocity": 0.3937007874015748
        },
        {
          "duration": 0.1578944999999976,
          "durationTicks": 96,
          "midi": 49,
          "name": "C#3",
          "ticks": 85248,
          "time": 140.210316,
          "velocity": 0.3937007874015748
        },
        {
          "duration": 0.1578944999999976,
          "durationTicks": 96,
          "midi": 47,
          "name": "B2",
          "ticks": 85344,
          "time": 140.3682105,
          "velocity": 0.3937007874015748
        },
        {
          "duration": 0.3157889999999952,
          "durationTicks": 192,
          "midi": 44,
          "name": "G#2",
          "ticks": 85440,
          "time": 140.526105,
          "velocity": 0.3937007874015748
        },
        {
          "duration": 0.3157889999999952,
          "durationTicks": 192,
          "midi": 42,
          "name": "F#2",
          "ticks": 85632,
          "time": 140.841894,
          "velocity": 0.3937007874015748
        },
        {
          "duration": 0.1578944999999976,
          "durationTicks": 96,
          "midi": 44,
          "name": "G#2",
          "ticks": 85824,
          "time": 141.157683,
          "velocity": 0.3937007874015748
        },
        {
          "duration": 0.1578944999999976,
          "durationTicks": 96,
          "midi": 40,
          "name": "E2",
          "ticks": 85920,
          "time": 141.3155775,
          "velocity": 0.3937007874015748
        },
        {
          "duration": 0.3157889999999952,
          "durationTicks": 192,
          "midi": 32,
          "name": "G#1",
          "ticks": 86016,
          "time": 141.473472,
          "velocity": 0.3937007874015748
        },
        {
          "duration": 0.31578900000002363,
          "durationTicks": 192,
          "midi": 49,
          "name": "C#3",
          "ticks": 86208,
          "time": 141.78926099999998,
          "velocity": 0.3937007874015748
        },
        {
          "duration": 0.3157889999999952,
          "durationTicks": 192,
          "midi": 32,
          "name": "G#1",
          "ticks": 86400,
          "time": 142.10505,
          "velocity": 0.3937007874015748
        },
        {
          "duration": 0.3157889999999952,
          "durationTicks": 192,
          "midi": 49,
          "name": "C#3",
          "ticks": 86592,
          "time": 142.420839,
          "velocity": 0.3937007874015748
        },
        {
          "duration": 0.3157889999999952,
          "durationTicks": 192,
          "midi": 31,
          "name": "G1",
          "ticks": 86784,
          "time": 142.736628,
          "velocity": 0.3937007874015748
        },
        {
          "duration": 0.3157889999999952,
          "durationTicks": 192,
          "midi": 49,
          "name": "C#3",
          "ticks": 86976,
          "time": 143.052417,
          "velocity": 0.3937007874015748
        },
        {
          "duration": 0.3157889999999952,
          "durationTicks": 192,
          "midi": 33,
          "name": "A1",
          "ticks": 87168,
          "time": 143.368206,
          "velocity": 0.3937007874015748
        },
        {
          "duration": 0.31578900000002363,
          "durationTicks": 192,
          "midi": 51,
          "name": "D#3",
          "ticks": 87360,
          "time": 143.68399499999998,
          "velocity": 0.3937007874015748
        },
        {
          "duration": 0.3157889999999952,
          "durationTicks": 192,
          "midi": 37,
          "name": "C#2",
          "ticks": 87552,
          "time": 143.999784,
          "velocity": 0.3937007874015748
        },
        {
          "duration": 0.3157889999999952,
          "durationTicks": 192,
          "midi": 49,
          "name": "C#3",
          "ticks": 87744,
          "time": 144.315573,
          "velocity": 0.3937007874015748
        },
        {
          "duration": 0.1578944999999976,
          "durationTicks": 96,
          "midi": 44,
          "name": "G#2",
          "ticks": 87936,
          "time": 144.631362,
          "velocity": 0.3937007874015748
        },
        {
          "duration": 0.3157889999999952,
          "durationTicks": 192,
          "midi": 43,
          "name": "G2",
          "ticks": 88224,
          "time": 145.1050455,
          "velocity": 0.3937007874015748
        },
        {
          "duration": 0.31578900000002363,
          "durationTicks": 192,
          "midi": 42,
          "name": "F#2",
          "ticks": 88512,
          "time": 145.57872899999998,
          "velocity": 0.3937007874015748
        },
        {
          "duration": 0.1578944999999976,
          "durationTicks": 96,
          "midi": 40,
          "name": "E2",
          "ticks": 88704,
          "time": 145.894518,
          "velocity": 0.3937007874015748
        },
        {
          "duration": 0.1578944999999976,
          "durationTicks": 96,
          "midi": 37,
          "name": "C#2",
          "ticks": 88800,
          "time": 146.0524125,
          "velocity": 0.3937007874015748
        },
        {
          "duration": 0.1578944999999976,
          "durationTicks": 96,
          "midi": 40,
          "name": "E2",
          "ticks": 88896,
          "time": 146.210307,
          "velocity": 0.3937007874015748
        },
        {
          "duration": 0.1578944999999976,
          "durationTicks": 96,
          "midi": 42,
          "name": "F#2",
          "ticks": 88992,
          "time": 146.3682015,
          "velocity": 0.3937007874015748
        },
        {
          "duration": 0.3157889999999952,
          "durationTicks": 192,
          "midi": 35,
          "name": "B1",
          "ticks": 89088,
          "time": 146.526096,
          "velocity": 0.3937007874015748
        },
        {
          "duration": 0.3157889999999952,
          "durationTicks": 192,
          "midi": 49,
          "name": "C#3",
          "ticks": 89280,
          "time": 146.841885,
          "velocity": 0.3937007874015748
        },
        {
          "duration": 0.3157889999999952,
          "durationTicks": 192,
          "midi": 44,
          "name": "G#2",
          "ticks": 89472,
          "time": 147.157674,
          "velocity": 0.3937007874015748
        },
        {
          "duration": 0.31578900000002363,
          "durationTicks": 192,
          "midi": 42,
          "name": "F#2",
          "ticks": 89664,
          "time": 147.47346299999998,
          "velocity": 0.3937007874015748
        },
        {
          "duration": 0.3157889999999952,
          "durationTicks": 192,
          "midi": 40,
          "name": "E2",
          "ticks": 89856,
          "time": 147.789252,
          "velocity": 0.3937007874015748
        },
        {
          "duration": 0.1578944999999976,
          "durationTicks": 96,
          "midi": 39,
          "name": "D#2",
          "ticks": 90048,
          "time": 148.105041,
          "velocity": 0.3937007874015748
        },
        {
          "duration": 0.1578944999999976,
          "durationTicks": 96,
          "midi": 40,
          "name": "E2",
          "ticks": 90144,
          "time": 148.2629355,
          "velocity": 0.3937007874015748
        },
        {
          "duration": 0.1578944999999976,
          "durationTicks": 96,
          "midi": 39,
          "name": "D#2",
          "ticks": 90240,
          "time": 148.42083,
          "velocity": 0.3937007874015748
        },
        {
          "duration": 0.1578944999999976,
          "durationTicks": 96,
          "midi": 37,
          "name": "C#2",
          "ticks": 90336,
          "time": 148.5787245,
          "velocity": 0.3937007874015748
        },
        {
          "duration": 0.1578944999999976,
          "durationTicks": 96,
          "midi": 35,
          "name": "B1",
          "ticks": 90432,
          "time": 148.736619,
          "velocity": 0.3937007874015748
        },
        {
          "duration": 0.1578944999999976,
          "durationTicks": 96,
          "midi": 32,
          "name": "G#1",
          "ticks": 90528,
          "time": 148.8945135,
          "velocity": 0.3937007874015748
        },
        {
          "duration": 0.1578944999999976,
          "durationTicks": 96,
          "midi": 33,
          "name": "A1",
          "ticks": 90624,
          "time": 149.05240799999999,
          "velocity": 0.3937007874015748
        },
        {
          "duration": 0.1578944999999976,
          "durationTicks": 96,
          "midi": 33,
          "name": "A1",
          "ticks": 90720,
          "time": 149.21030249999998,
          "velocity": 0.3937007874015748
        },
        {
          "duration": 0.31578900000002363,
          "durationTicks": 192,
          "midi": 49,
          "name": "C#3",
          "ticks": 90816,
          "time": 149.36819699999998,
          "velocity": 0.3937007874015748
        },
        {
          "duration": 0.3157889999999952,
          "durationTicks": 192,
          "midi": 44,
          "name": "G#2",
          "ticks": 91008,
          "time": 149.683986,
          "velocity": 0.3937007874015748
        },
        {
          "duration": 0.1578944999999976,
          "durationTicks": 96,
          "midi": 49,
          "name": "C#3",
          "ticks": 91200,
          "time": 149.999775,
          "velocity": 0.3937007874015748
        },
        {
          "duration": 0.1578944999999976,
          "durationTicks": 96,
          "midi": 45,
          "name": "A2",
          "ticks": 91296,
          "time": 150.1576695,
          "velocity": 0.3937007874015748
        },
        {
          "duration": 0.1578944999999976,
          "durationTicks": 96,
          "midi": 49,
          "name": "C#3",
          "ticks": 91392,
          "time": 150.315564,
          "velocity": 0.3937007874015748
        },
        {
          "duration": 0.1578944999999976,
          "durationTicks": 96,
          "midi": 47,
          "name": "B2",
          "ticks": 91488,
          "time": 150.4734585,
          "velocity": 0.3937007874015748
        },
        {
          "duration": 0.3157889999999952,
          "durationTicks": 192,
          "midi": 44,
          "name": "G#2",
          "ticks": 91584,
          "time": 150.631353,
          "velocity": 0.3937007874015748
        },
        {
          "duration": 0.3157889999999952,
          "durationTicks": 192,
          "midi": 42,
          "name": "F#2",
          "ticks": 91776,
          "time": 150.94714199999999,
          "velocity": 0.3937007874015748
        },
        {
          "duration": 0.15789450000002603,
          "durationTicks": 96,
          "midi": 44,
          "name": "G#2",
          "ticks": 91968,
          "time": 151.26293099999998,
          "velocity": 0.3937007874015748
        },
        {
          "duration": 0.1578944999999976,
          "durationTicks": 96,
          "midi": 40,
          "name": "E2",
          "ticks": 92064,
          "time": 151.4208255,
          "velocity": 0.3937007874015748
        },
        {
          "duration": 0.3157889999999952,
          "durationTicks": 192,
          "midi": 32,
          "name": "G#1",
          "ticks": 92160,
          "time": 151.57872,
          "velocity": 0.3937007874015748
        },
        {
          "duration": 0.3157889999999952,
          "durationTicks": 192,
          "midi": 49,
          "name": "C#3",
          "ticks": 92352,
          "time": 151.894509,
          "velocity": 0.3937007874015748
        },
        {
          "duration": 0.3157889999999952,
          "durationTicks": 192,
          "midi": 32,
          "name": "G#1",
          "ticks": 92544,
          "time": 152.210298,
          "velocity": 0.3937007874015748
        },
        {
          "duration": 0.3157889999999952,
          "durationTicks": 192,
          "midi": 49,
          "name": "C#3",
          "ticks": 92736,
          "time": 152.526087,
          "velocity": 0.3937007874015748
        },
        {
          "duration": 0.3157889999999952,
          "durationTicks": 192,
          "midi": 31,
          "name": "G1",
          "ticks": 92928,
          "time": 152.84187599999998,
          "velocity": 0.3937007874015748
        },
        {
          "duration": 0.31578900000002363,
          "durationTicks": 192,
          "midi": 49,
          "name": "C#3",
          "ticks": 93120,
          "time": 153.15766499999998,
          "velocity": 0.3937007874015748
        },
        {
          "duration": 0.3157889999999952,
          "durationTicks": 192,
          "midi": 33,
          "name": "A1",
          "ticks": 93312,
          "time": 153.473454,
          "velocity": 0.3937007874015748
        },
        {
          "duration": 0.3157889999999952,
          "durationTicks": 192,
          "midi": 51,
          "name": "D#3",
          "ticks": 93504,
          "time": 153.789243,
          "velocity": 0.3937007874015748
        },
        {
          "duration": 0.3157889999999952,
          "durationTicks": 192,
          "midi": 37,
          "name": "C#2",
          "ticks": 93696,
          "time": 154.105032,
          "velocity": 0.3937007874015748
        },
        {
          "duration": 0.3157889999999952,
          "durationTicks": 192,
          "midi": 49,
          "name": "C#3",
          "ticks": 93888,
          "time": 154.420821,
          "velocity": 0.3937007874015748
        },
        {
          "duration": 0.1578944999999976,
          "durationTicks": 96,
          "midi": 44,
          "name": "G#2",
          "ticks": 94080,
          "time": 154.73660999999998,
          "velocity": 0.3937007874015748
        },
        {
          "duration": 0.3157889999999952,
          "durationTicks": 192,
          "midi": 43,
          "name": "G2",
          "ticks": 94368,
          "time": 155.2102935,
          "velocity": 0.3937007874015748
        },
        {
          "duration": 0.3157889999999952,
          "durationTicks": 192,
          "midi": 42,
          "name": "F#2",
          "ticks": 94656,
          "time": 155.683977,
          "velocity": 0.3937007874015748
        },
        {
          "duration": 0.1578944999999976,
          "durationTicks": 96,
          "midi": 40,
          "name": "E2",
          "ticks": 94848,
          "time": 155.999766,
          "velocity": 0.3937007874015748
        },
        {
          "duration": 0.1578944999999976,
          "durationTicks": 96,
          "midi": 37,
          "name": "C#2",
          "ticks": 94944,
          "time": 156.1576605,
          "velocity": 0.3937007874015748
        },
        {
          "duration": 0.1578944999999976,
          "durationTicks": 96,
          "midi": 40,
          "name": "E2",
          "ticks": 95040,
          "time": 156.315555,
          "velocity": 0.3937007874015748
        },
        {
          "duration": 0.1578944999999976,
          "durationTicks": 96,
          "midi": 42,
          "name": "F#2",
          "ticks": 95136,
          "time": 156.4734495,
          "velocity": 0.3937007874015748
        },
        {
          "duration": 0.3157889999999952,
          "durationTicks": 192,
          "midi": 35,
          "name": "B1",
          "ticks": 95232,
          "time": 156.63134399999998,
          "velocity": 0.3937007874015748
        },
        {
          "duration": 0.31578900000002363,
          "durationTicks": 192,
          "midi": 49,
          "name": "C#3",
          "ticks": 95424,
          "time": 156.94713299999998,
          "velocity": 0.3937007874015748
        },
        {
          "duration": 0.3157889999999952,
          "durationTicks": 192,
          "midi": 44,
          "name": "G#2",
          "ticks": 95616,
          "time": 157.262922,
          "velocity": 0.3937007874015748
        },
        {
          "duration": 0.3157889999999952,
          "durationTicks": 192,
          "midi": 42,
          "name": "F#2",
          "ticks": 95808,
          "time": 157.578711,
          "velocity": 0.3937007874015748
        },
        {
          "duration": 0.3157889999999952,
          "durationTicks": 192,
          "midi": 40,
          "name": "E2",
          "ticks": 96000,
          "time": 157.8945,
          "velocity": 0.3937007874015748
        },
        {
          "duration": 0.1578944999999976,
          "durationTicks": 96,
          "midi": 39,
          "name": "D#2",
          "ticks": 96192,
          "time": 158.210289,
          "velocity": 0.3937007874015748
        },
        {
          "duration": 0.1578944999999976,
          "durationTicks": 96,
          "midi": 40,
          "name": "E2",
          "ticks": 96288,
          "time": 158.3681835,
          "velocity": 0.3937007874015748
        },
        {
          "duration": 0.1578944999999976,
          "durationTicks": 96,
          "midi": 39,
          "name": "D#2",
          "ticks": 96384,
          "time": 158.52607799999998,
          "velocity": 0.3937007874015748
        },
        {
          "duration": 0.1578944999999976,
          "durationTicks": 96,
          "midi": 37,
          "name": "C#2",
          "ticks": 96480,
          "time": 158.68397249999998,
          "velocity": 0.3937007874015748
        },
        {
          "duration": 0.15789450000002603,
          "durationTicks": 96,
          "midi": 35,
          "name": "B1",
          "ticks": 96576,
          "time": 158.84186699999998,
          "velocity": 0.3937007874015748
        },
        {
          "duration": 0.1578944999999976,
          "durationTicks": 96,
          "midi": 32,
          "name": "G#1",
          "ticks": 96672,
          "time": 158.9997615,
          "velocity": 0.3937007874015748
        },
        {
          "duration": 0.1578944999999976,
          "durationTicks": 96,
          "midi": 33,
          "name": "A1",
          "ticks": 96768,
          "time": 159.157656,
          "velocity": 0.3937007874015748
        },
        {
          "duration": 0.1578944999999976,
          "durationTicks": 96,
          "midi": 33,
          "name": "A1",
          "ticks": 96864,
          "time": 159.3155505,
          "velocity": 0.3937007874015748
        },
        {
          "duration": 0.3157889999999952,
          "durationTicks": 192,
          "midi": 49,
          "name": "C#3",
          "ticks": 96960,
          "time": 159.473445,
          "velocity": 0.3937007874015748
        },
        {
          "duration": 0.3157889999999952,
          "durationTicks": 192,
          "midi": 44,
          "name": "G#2",
          "ticks": 97152,
          "time": 159.789234,
          "velocity": 0.3937007874015748
        },
        {
          "duration": 0.1578944999999976,
          "durationTicks": 96,
          "midi": 49,
          "name": "C#3",
          "ticks": 97344,
          "time": 160.105023,
          "velocity": 0.3937007874015748
        },
        {
          "duration": 0.1578944999999976,
          "durationTicks": 96,
          "midi": 45,
          "name": "A2",
          "ticks": 97440,
          "time": 160.2629175,
          "velocity": 0.3937007874015748
        },
        {
          "duration": 0.1578944999999976,
          "durationTicks": 96,
          "midi": 49,
          "name": "C#3",
          "ticks": 97536,
          "time": 160.42081199999998,
          "velocity": 0.3937007874015748
        },
        {
          "duration": 0.1578944999999976,
          "durationTicks": 96,
          "midi": 47,
          "name": "B2",
          "ticks": 97632,
          "time": 160.57870649999998,
          "velocity": 0.3937007874015748
        },
        {
          "duration": 0.31578900000002363,
          "durationTicks": 192,
          "midi": 44,
          "name": "G#2",
          "ticks": 97728,
          "time": 160.73660099999998,
          "velocity": 0.3937007874015748
        },
        {
          "duration": 0.3157889999999952,
          "durationTicks": 192,
          "midi": 42,
          "name": "F#2",
          "ticks": 97920,
          "time": 161.05239,
          "velocity": 0.3937007874015748
        },
        {
          "duration": 0.1578944999999976,
          "durationTicks": 96,
          "midi": 44,
          "name": "G#2",
          "ticks": 98112,
          "time": 161.368179,
          "velocity": 0.3937007874015748
        },
        {
          "duration": 0.1578944999999976,
          "durationTicks": 96,
          "midi": 40,
          "name": "E2",
          "ticks": 98208,
          "time": 161.5260735,
          "velocity": 0.3937007874015748
        },
        {
          "duration": 0.3157889999999952,
          "durationTicks": 192,
          "midi": 32,
          "name": "G#1",
          "ticks": 98304,
          "time": 161.683968,
          "velocity": 0.3937007874015748
        },
        {
          "duration": 0.3157889999999952,
          "durationTicks": 192,
          "midi": 49,
          "name": "C#3",
          "ticks": 98496,
          "time": 161.999757,
          "velocity": 0.3937007874015748
        },
        {
          "duration": 0.31578900000002363,
          "durationTicks": 192,
          "midi": 32,
          "name": "G#1",
          "ticks": 98688,
          "time": 162.31554599999998,
          "velocity": 0.3937007874015748
        },
        {
          "duration": 0.3157889999999952,
          "durationTicks": 192,
          "midi": 49,
          "name": "C#3",
          "ticks": 98880,
          "time": 162.631335,
          "velocity": 0.3937007874015748
        },
        {
          "duration": 0.3157889999999952,
          "durationTicks": 192,
          "midi": 31,
          "name": "G1",
          "ticks": 99072,
          "time": 162.947124,
          "velocity": 0.3937007874015748
        },
        {
          "duration": 0.3157889999999952,
          "durationTicks": 192,
          "midi": 49,
          "name": "C#3",
          "ticks": 99264,
          "time": 163.262913,
          "velocity": 0.3937007874015748
        },
        {
          "duration": 0.3157889999999952,
          "durationTicks": 192,
          "midi": 33,
          "name": "A1",
          "ticks": 99456,
          "time": 163.578702,
          "velocity": 0.3937007874015748
        },
        {
          "duration": 0.3157889999999952,
          "durationTicks": 192,
          "midi": 51,
          "name": "D#3",
          "ticks": 99648,
          "time": 163.894491,
          "velocity": 0.3937007874015748
        },
        {
          "duration": 0.31578900000002363,
          "durationTicks": 192,
          "midi": 49,
          "name": "C#3",
          "ticks": 99840,
          "time": 164.21027999999998,
          "velocity": 0.3937007874015748
        },
        {
          "duration": 0.3157889999999952,
          "durationTicks": 192,
          "midi": 61,
          "name": "C#4",
          "ticks": 100032,
          "time": 164.526069,
          "velocity": 0.3937007874015748
        },
        {
          "duration": 0.1578944999999976,
          "durationTicks": 96,
          "midi": 56,
          "name": "G#3",
          "ticks": 100224,
          "time": 164.841858,
          "velocity": 0.3937007874015748
        },
        {
          "duration": 0.3157889999999952,
          "durationTicks": 192,
          "midi": 55,
          "name": "G3",
          "ticks": 100512,
          "time": 165.3155415,
          "velocity": 0.3937007874015748
        },
        {
          "duration": 0.3157889999999952,
          "durationTicks": 192,
          "midi": 54,
          "name": "F#3",
          "ticks": 100800,
          "time": 165.789225,
          "velocity": 0.3937007874015748
        },
        {
          "duration": 0.1578944999999976,
          "durationTicks": 96,
          "midi": 52,
          "name": "E3",
          "ticks": 100992,
          "time": 166.10501399999998,
          "velocity": 0.3937007874015748
        },
        {
          "duration": 0.15789450000002603,
          "durationTicks": 96,
          "midi": 49,
          "name": "C#3",
          "ticks": 101088,
          "time": 166.26290849999998,
          "velocity": 0.3937007874015748
        },
        {
          "duration": 0.1578944999999976,
          "durationTicks": 96,
          "midi": 52,
          "name": "E3",
          "ticks": 101184,
          "time": 166.420803,
          "velocity": 0.3937007874015748
        },
        {
          "duration": 0.1578944999999976,
          "durationTicks": 96,
          "midi": 54,
          "name": "F#3",
          "ticks": 101280,
          "time": 166.5786975,
          "velocity": 0.3937007874015748
        },
        {
          "duration": 0.3157889999999952,
          "durationTicks": 192,
          "midi": 47,
          "name": "B2",
          "ticks": 101376,
          "time": 166.736592,
          "velocity": 0.3937007874015748
        },
        {
          "duration": 0.3157889999999952,
          "durationTicks": 192,
          "midi": 61,
          "name": "C#4",
          "ticks": 101568,
          "time": 167.052381,
          "velocity": 0.3937007874015748
        },
        {
          "duration": 0.3157889999999952,
          "durationTicks": 192,
          "midi": 56,
          "name": "G#3",
          "ticks": 101760,
          "time": 167.36817,
          "velocity": 0.3937007874015748
        },
        {
          "duration": 0.3157889999999952,
          "durationTicks": 192,
          "midi": 54,
          "name": "F#3",
          "ticks": 101952,
          "time": 167.683959,
          "velocity": 0.3937007874015748
        },
        {
          "duration": 0.31578900000002363,
          "durationTicks": 192,
          "midi": 52,
          "name": "E3",
          "ticks": 102144,
          "time": 167.99974799999998,
          "velocity": 0.3937007874015748
        },
        {
          "duration": 0.1578944999999976,
          "durationTicks": 96,
          "midi": 51,
          "name": "D#3",
          "ticks": 102336,
          "time": 168.315537,
          "velocity": 0.3937007874015748
        },
        {
          "duration": 0.1578944999999976,
          "durationTicks": 96,
          "midi": 52,
          "name": "E3",
          "ticks": 102432,
          "time": 168.4734315,
          "velocity": 0.3937007874015748
        },
        {
          "duration": 0.1578944999999976,
          "durationTicks": 96,
          "midi": 51,
          "name": "D#3",
          "ticks": 102528,
          "time": 168.631326,
          "velocity": 0.3937007874015748
        },
        {
          "duration": 0.1578944999999976,
          "durationTicks": 96,
          "midi": 49,
          "name": "C#3",
          "ticks": 102624,
          "time": 168.7892205,
          "velocity": 0.3937007874015748
        },
        {
          "duration": 0.1578944999999976,
          "durationTicks": 96,
          "midi": 47,
          "name": "B2",
          "ticks": 102720,
          "time": 168.947115,
          "velocity": 0.3937007874015748
        },
        {
          "duration": 0.1578944999999976,
          "durationTicks": 96,
          "midi": 44,
          "name": "G#2",
          "ticks": 102816,
          "time": 169.1050095,
          "velocity": 0.3937007874015748
        },
        {
          "duration": 0.1578944999999976,
          "durationTicks": 96,
          "midi": 45,
          "name": "A2",
          "ticks": 102912,
          "time": 169.262904,
          "velocity": 0.3937007874015748
        },
        {
          "duration": 0.1578944999999976,
          "durationTicks": 96,
          "midi": 45,
          "name": "A2",
          "ticks": 103008,
          "time": 169.4207985,
          "velocity": 0.3937007874015748
        },
        {
          "duration": 0.3157889999999952,
          "durationTicks": 192,
          "midi": 61,
          "name": "C#4",
          "ticks": 103104,
          "time": 169.578693,
          "velocity": 0.3937007874015748
        },
        {
          "duration": 0.31578900000002363,
          "durationTicks": 192,
          "midi": 56,
          "name": "G#3",
          "ticks": 103296,
          "time": 169.89448199999998,
          "velocity": 0.3937007874015748
        },
        {
          "duration": 0.1578944999999976,
          "durationTicks": 96,
          "midi": 61,
          "name": "C#4",
          "ticks": 103488,
          "time": 170.210271,
          "velocity": 0.3937007874015748
        },
        {
          "duration": 0.1578944999999976,
          "durationTicks": 96,
          "midi": 57,
          "name": "A3",
          "ticks": 103584,
          "time": 170.3681655,
          "velocity": 0.3937007874015748
        },
        {
          "duration": 0.1578944999999976,
          "durationTicks": 96,
          "midi": 61,
          "name": "C#4",
          "ticks": 103680,
          "time": 170.52606,
          "velocity": 0.3937007874015748
        },
        {
          "duration": 0.1578944999999976,
          "durationTicks": 96,
          "midi": 59,
          "name": "B3",
          "ticks": 103776,
          "time": 170.6839545,
          "velocity": 0.3937007874015748
        },
        {
          "duration": 0.3157889999999952,
          "durationTicks": 192,
          "midi": 56,
          "name": "G#3",
          "ticks": 103872,
          "time": 170.841849,
          "velocity": 0.3937007874015748
        },
        {
          "duration": 0.3157889999999952,
          "durationTicks": 192,
          "midi": 54,
          "name": "F#3",
          "ticks": 104064,
          "time": 171.157638,
          "velocity": 0.3937007874015748
        },
        {
          "duration": 0.1578944999999976,
          "durationTicks": 96,
          "midi": 56,
          "name": "G#3",
          "ticks": 104256,
          "time": 171.473427,
          "velocity": 0.3937007874015748
        },
        {
          "duration": 0.1578944999999976,
          "durationTicks": 96,
          "midi": 52,
          "name": "E3",
          "ticks": 104352,
          "time": 171.63132149999998,
          "velocity": 0.3937007874015748
        },
        {
          "duration": 0.31578900000002363,
          "durationTicks": 192,
          "midi": 44,
          "name": "G#2",
          "ticks": 104448,
          "time": 171.78921599999998,
          "velocity": 0.3937007874015748
        },
        {
          "duration": 0.3157889999999952,
          "durationTicks": 192,
          "midi": 61,
          "name": "C#4",
          "ticks": 104640,
          "time": 172.105005,
          "velocity": 0.3937007874015748
        },
        {
          "duration": 0.3157889999999952,
          "durationTicks": 192,
          "midi": 44,
          "name": "G#2",
          "ticks": 104832,
          "time": 172.420794,
          "velocity": 0.3937007874015748
        },
        {
          "duration": 0.3157889999999952,
          "durationTicks": 192,
          "midi": 61,
          "name": "C#4",
          "ticks": 105024,
          "time": 172.736583,
          "velocity": 0.3937007874015748
        },
        {
          "duration": 0.3157889999999952,
          "durationTicks": 192,
          "midi": 43,
          "name": "G2",
          "ticks": 105216,
          "time": 173.052372,
          "velocity": 0.3937007874015748
        },
        {
          "duration": 0.3157889999999952,
          "durationTicks": 192,
          "midi": 61,
          "name": "C#4",
          "ticks": 105408,
          "time": 173.368161,
          "velocity": 0.3937007874015748
        },
        {
          "duration": 0.31578900000002363,
          "durationTicks": 192,
          "midi": 45,
          "name": "A2",
          "ticks": 105600,
          "time": 173.68394999999998,
          "velocity": 0.3937007874015748
        },
        {
          "duration": 0.3157889999999952,
          "durationTicks": 192,
          "midi": 63,
          "name": "D#4",
          "ticks": 105792,
          "time": 173.999739,
          "velocity": 0.3937007874015748
        },
        {
          "duration": 0.3157889999999952,
          "durationTicks": 192,
          "midi": 49,
          "name": "C#3",
          "ticks": 105984,
          "time": 174.315528,
          "velocity": 0.3937007874015748
        },
        {
          "duration": 0.3157889999999952,
          "durationTicks": 192,
          "midi": 61,
          "name": "C#4",
          "ticks": 106176,
          "time": 174.631317,
          "velocity": 0.3937007874015748
        },
        {
          "duration": 0.1578944999999976,
          "durationTicks": 96,
          "midi": 56,
          "name": "G#3",
          "ticks": 106368,
          "time": 174.947106,
          "velocity": 0.3937007874015748
        },
        {
          "duration": 0.3157889999999952,
          "durationTicks": 192,
          "midi": 55,
          "name": "G3",
          "ticks": 106656,
          "time": 175.42078949999998,
          "velocity": 0.3937007874015748
        },
        {
          "duration": 0.3157889999999952,
          "durationTicks": 192,
          "midi": 54,
          "name": "F#3",
          "ticks": 106944,
          "time": 175.894473,
          "velocity": 0.3937007874015748
        },
        {
          "duration": 0.1578944999999976,
          "durationTicks": 96,
          "midi": 52,
          "name": "E3",
          "ticks": 107136,
          "time": 176.210262,
          "velocity": 0.3937007874015748
        },
        {
          "duration": 0.1578944999999976,
          "durationTicks": 96,
          "midi": 49,
          "name": "C#3",
          "ticks": 107232,
          "time": 176.3681565,
          "velocity": 0.3937007874015748
        },
        {
          "duration": 0.1578944999999976,
          "durationTicks": 96,
          "midi": 52,
          "name": "E3",
          "ticks": 107328,
          "time": 176.526051,
          "velocity": 0.3937007874015748
        },
        {
          "duration": 0.1578944999999976,
          "durationTicks": 96,
          "midi": 54,
          "name": "F#3",
          "ticks": 107424,
          "time": 176.6839455,
          "velocity": 0.3937007874015748
        },
        {
          "duration": 0.3157889999999952,
          "durationTicks": 192,
          "midi": 47,
          "name": "B2",
          "ticks": 107520,
          "time": 176.84184,
          "velocity": 0.3937007874015748
        },
        {
          "duration": 0.3157889999999952,
          "durationTicks": 192,
          "midi": 61,
          "name": "C#4",
          "ticks": 107712,
          "time": 177.157629,
          "velocity": 0.3937007874015748
        },
        {
          "duration": 0.31578900000002363,
          "durationTicks": 192,
          "midi": 56,
          "name": "G#3",
          "ticks": 107904,
          "time": 177.47341799999998,
          "velocity": 0.3937007874015748
        },
        {
          "duration": 0.3157889999999952,
          "durationTicks": 192,
          "midi": 54,
          "name": "F#3",
          "ticks": 108096,
          "time": 177.789207,
          "velocity": 0.3937007874015748
        },
        {
          "duration": 0.3157889999999952,
          "durationTicks": 192,
          "midi": 52,
          "name": "E3",
          "ticks": 108288,
          "time": 178.104996,
          "velocity": 0.3937007874015748
        },
        {
          "duration": 0.1578944999999976,
          "durationTicks": 96,
          "midi": 51,
          "name": "D#3",
          "ticks": 108480,
          "time": 178.420785,
          "velocity": 0.3937007874015748
        },
        {
          "duration": 0.1578944999999976,
          "durationTicks": 96,
          "midi": 52,
          "name": "E3",
          "ticks": 108576,
          "time": 178.5786795,
          "velocity": 0.3937007874015748
        },
        {
          "duration": 0.1578944999999976,
          "durationTicks": 96,
          "midi": 51,
          "name": "D#3",
          "ticks": 108672,
          "time": 178.736574,
          "velocity": 0.3937007874015748
        },
        {
          "duration": 0.1578944999999976,
          "durationTicks": 96,
          "midi": 49,
          "name": "C#3",
          "ticks": 108768,
          "time": 178.8944685,
          "velocity": 0.3937007874015748
        },
        {
          "duration": 0.1578944999999976,
          "durationTicks": 96,
          "midi": 47,
          "name": "B2",
          "ticks": 108864,
          "time": 179.05236299999999,
          "velocity": 0.3937007874015748
        },
        {
          "duration": 0.1578944999999976,
          "durationTicks": 96,
          "midi": 44,
          "name": "G#2",
          "ticks": 108960,
          "time": 179.21025749999998,
          "velocity": 0.3937007874015748
        },
        {
          "duration": 0.1578944999999976,
          "durationTicks": 96,
          "midi": 45,
          "name": "A2",
          "ticks": 109056,
          "time": 179.36815199999998,
          "velocity": 0.3937007874015748
        },
        {
          "duration": 0.15789450000002603,
          "durationTicks": 96,
          "midi": 45,
          "name": "A2",
          "ticks": 109152,
          "time": 179.52604649999998,
          "velocity": 0.3937007874015748
        },
        {
          "duration": 0.3157889999999952,
          "durationTicks": 192,
          "midi": 61,
          "name": "C#4",
          "ticks": 109248,
          "time": 179.683941,
          "velocity": 0.3937007874015748
        },
        {
          "duration": 0.3157889999999952,
          "durationTicks": 192,
          "midi": 56,
          "name": "G#3",
          "ticks": 109440,
          "time": 179.99973,
          "velocity": 0.3937007874015748
        },
        {
          "duration": 0.1578944999999976,
          "durationTicks": 96,
          "midi": 61,
          "name": "C#4",
          "ticks": 109632,
          "time": 180.315519,
          "velocity": 0.3937007874015748
        },
        {
          "duration": 0.1578944999999976,
          "durationTicks": 96,
          "midi": 57,
          "name": "A3",
          "ticks": 109728,
          "time": 180.4734135,
          "velocity": 0.3937007874015748
        },
        {
          "duration": 0.1578944999999976,
          "durationTicks": 96,
          "midi": 61,
          "name": "C#4",
          "ticks": 109824,
          "time": 180.631308,
          "velocity": 0.3937007874015748
        },
        {
          "duration": 0.1578944999999976,
          "durationTicks": 96,
          "midi": 59,
          "name": "B3",
          "ticks": 109920,
          "time": 180.7892025,
          "velocity": 0.3937007874015748
        },
        {
          "duration": 0.3157889999999952,
          "durationTicks": 192,
          "midi": 56,
          "name": "G#3",
          "ticks": 110016,
          "time": 180.94709699999999,
          "velocity": 0.3937007874015748
        },
        {
          "duration": 0.31578900000002363,
          "durationTicks": 192,
          "midi": 54,
          "name": "F#3",
          "ticks": 110208,
          "time": 181.26288599999998,
          "velocity": 0.3937007874015748
        },
        {
          "duration": 0.1578944999999976,
          "durationTicks": 96,
          "midi": 56,
          "name": "G#3",
          "ticks": 110400,
          "time": 181.578675,
          "velocity": 0.3937007874015748
        },
        {
          "duration": 0.1578944999999976,
          "durationTicks": 96,
          "midi": 52,
          "name": "E3",
          "ticks": 110496,
          "time": 181.7365695,
          "velocity": 0.3937007874015748
        },
        {
          "duration": 0.3157889999999952,
          "durationTicks": 192,
          "midi": 44,
          "name": "G#2",
          "ticks": 110592,
          "time": 181.894464,
          "velocity": 0.3937007874015748
        },
        {
          "duration": 0.3157889999999952,
          "durationTicks": 192,
          "midi": 61,
          "name": "C#4",
          "ticks": 110784,
          "time": 182.210253,
          "velocity": 0.3937007874015748
        },
        {
          "duration": 0.3157889999999952,
          "durationTicks": 192,
          "midi": 44,
          "name": "G#2",
          "ticks": 110976,
          "time": 182.526042,
          "velocity": 0.3937007874015748
        },
        {
          "duration": 0.3157889999999952,
          "durationTicks": 192,
          "midi": 61,
          "name": "C#4",
          "ticks": 111168,
          "time": 182.84183099999998,
          "velocity": 0.3937007874015748
        },
        {
          "duration": 0.31578900000002363,
          "durationTicks": 192,
          "midi": 43,
          "name": "G2",
          "ticks": 111360,
          "time": 183.15761999999998,
          "velocity": 0.3937007874015748
        },
        {
          "duration": 0.3157889999999952,
          "durationTicks": 192,
          "midi": 61,
          "name": "C#4",
          "ticks": 111552,
          "time": 183.473409,
          "velocity": 0.3937007874015748
        },
        {
          "duration": 0.3157889999999952,
          "durationTicks": 192,
          "midi": 45,
          "name": "A2",
          "ticks": 111744,
          "time": 183.789198,
          "velocity": 0.3937007874015748
        },
        {
          "duration": 0.3157889999999952,
          "durationTicks": 192,
          "midi": 63,
          "name": "D#4",
          "ticks": 111936,
          "time": 184.104987,
          "velocity": 0.3937007874015748
        },
        {
          "duration": 0.3157889999999952,
          "durationTicks": 192,
          "midi": 73,
          "name": "C#5",
          "ticks": 112128,
          "time": 184.420776,
          "velocity": 0.3937007874015748
        },
        {
          "duration": 0.3157889999999952,
          "durationTicks": 192,
          "midi": 85,
          "name": "C#6",
          "ticks": 112320,
          "time": 184.73656499999998,
          "velocity": 0.3937007874015748
        },
        {
          "duration": 0.15789450000002603,
          "durationTicks": 96,
          "midi": 80,
          "name": "G#5",
          "ticks": 112512,
          "time": 185.05235399999998,
          "velocity": 0.3937007874015748
        },
        {
          "duration": 0.3157889999999952,
          "durationTicks": 192,
          "midi": 79,
          "name": "G5",
          "ticks": 112800,
          "time": 185.5260375,
          "velocity": 0.3937007874015748
        },
        {
          "duration": 0.3157889999999952,
          "durationTicks": 192,
          "midi": 78,
          "name": "F#5",
          "ticks": 113088,
          "time": 185.999721,
          "velocity": 0.3937007874015748
        },
        {
          "duration": 0.1578944999999976,
          "durationTicks": 96,
          "midi": 76,
          "name": "E5",
          "ticks": 113280,
          "time": 186.31551,
          "velocity": 0.3937007874015748
        },
        {
          "duration": 0.1578944999999976,
          "durationTicks": 96,
          "midi": 73,
          "name": "C#5",
          "ticks": 113376,
          "time": 186.4734045,
          "velocity": 0.3937007874015748
        },
        {
          "duration": 0.1578944999999976,
          "durationTicks": 96,
          "midi": 76,
          "name": "E5",
          "ticks": 113472,
          "time": 186.63129899999998,
          "velocity": 0.3937007874015748
        },
        {
          "duration": 0.1578944999999976,
          "durationTicks": 96,
          "midi": 78,
          "name": "F#5",
          "ticks": 113568,
          "time": 186.78919349999998,
          "velocity": 0.3937007874015748
        },
        {
          "duration": 0.31578900000002363,
          "durationTicks": 192,
          "midi": 71,
          "name": "B4",
          "ticks": 113664,
          "time": 186.94708799999998,
          "velocity": 0.3937007874015748
        },
        {
          "duration": 0.3157889999999952,
          "durationTicks": 192,
          "midi": 85,
          "name": "C#6",
          "ticks": 113856,
          "time": 187.262877,
          "velocity": 0.3937007874015748
        },
        {
          "duration": 0.3157889999999952,
          "durationTicks": 192,
          "midi": 80,
          "name": "G#5",
          "ticks": 114048,
          "time": 187.578666,
          "velocity": 0.3937007874015748
        },
        {
          "duration": 0.3157889999999952,
          "durationTicks": 192,
          "midi": 78,
          "name": "F#5",
          "ticks": 114240,
          "time": 187.894455,
          "velocity": 0.3937007874015748
        },
        {
          "duration": 0.3157889999999952,
          "durationTicks": 192,
          "midi": 76,
          "name": "E5",
          "ticks": 114432,
          "time": 188.210244,
          "velocity": 0.3937007874015748
        },
        {
          "duration": 0.1578944999999976,
          "durationTicks": 96,
          "midi": 75,
          "name": "D#5",
          "ticks": 114624,
          "time": 188.52603299999998,
          "velocity": 0.3937007874015748
        },
        {
          "duration": 0.1578944999999976,
          "durationTicks": 96,
          "midi": 76,
          "name": "E5",
          "ticks": 114720,
          "time": 188.68392749999998,
          "velocity": 0.3937007874015748
        },
        {
          "duration": 0.15789450000002603,
          "durationTicks": 96,
          "midi": 75,
          "name": "D#5",
          "ticks": 114816,
          "time": 188.84182199999998,
          "velocity": 0.3937007874015748
        },
        {
          "duration": 0.1578944999999976,
          "durationTicks": 96,
          "midi": 73,
          "name": "C#5",
          "ticks": 114912,
          "time": 188.9997165,
          "velocity": 0.3937007874015748
        },
        {
          "duration": 0.1578944999999976,
          "durationTicks": 96,
          "midi": 71,
          "name": "B4",
          "ticks": 115008,
          "time": 189.157611,
          "velocity": 0.3937007874015748
        },
        {
          "duration": 0.1578944999999976,
          "durationTicks": 96,
          "midi": 68,
          "name": "G#4",
          "ticks": 115104,
          "time": 189.3155055,
          "velocity": 0.3937007874015748
        },
        {
          "duration": 2.52631199999999,
          "durationTicks": 1536,
          "midi": 57,
          "name": "A3",
          "ticks": 115200,
          "time": 189.4734,
          "velocity": 0.3937007874015748
        },
        {
          "duration": 0.1578944999999976,
          "durationTicks": 96,
          "midi": 69,
          "name": "A4",
          "ticks": 115200,
          "time": 189.4734,
          "velocity": 0.3937007874015748
        },
        {
          "duration": 2.3684174999999925,
          "durationTicks": 1440,
          "midi": 69,
          "name": "A4",
          "ticks": 115296,
          "time": 189.6312945,
          "velocity": 0.3937007874015748
        },
        {
          "duration": 0.3157889999999952,
          "durationTicks": 192,
          "midi": 85,
          "name": "C#6",
          "ticks": 115392,
          "time": 189.789189,
          "velocity": 0.3937007874015748
        },
        {
          "duration": 0.3157889999999952,
          "durationTicks": 192,
          "midi": 80,
          "name": "G#5",
          "ticks": 115584,
          "time": 190.104978,
          "velocity": 0.3937007874015748
        },
        {
          "duration": 0.1578944999999976,
          "durationTicks": 96,
          "midi": 85,
          "name": "C#6",
          "ticks": 115776,
          "time": 190.42076699999998,
          "velocity": 0.3937007874015748
        },
        {
          "duration": 0.1578944999999976,
          "durationTicks": 96,
          "midi": 81,
          "name": "A5",
          "ticks": 115872,
          "time": 190.57866149999998,
          "velocity": 0.3937007874015748
        },
        {
          "duration": 0.15789450000002603,
          "durationTicks": 96,
          "midi": 85,
          "name": "C#6",
          "ticks": 115968,
          "time": 190.73655599999998,
          "velocity": 0.3937007874015748
        },
        {
          "duration": 0.1578944999999976,
          "durationTicks": 96,
          "midi": 83,
          "name": "B5",
          "ticks": 116064,
          "time": 190.8944505,
          "velocity": 0.3937007874015748
        },
        {
          "duration": 0.3157889999999952,
          "durationTicks": 192,
          "midi": 80,
          "name": "G#5",
          "ticks": 116160,
          "time": 191.052345,
          "velocity": 0.3937007874015748
        },
        {
          "duration": 0.3157889999999952,
          "durationTicks": 192,
          "midi": 78,
          "name": "F#5",
          "ticks": 116352,
          "time": 191.368134,
          "velocity": 0.3937007874015748
        },
        {
          "duration": 0.1578944999999976,
          "durationTicks": 96,
          "midi": 80,
          "name": "G#5",
          "ticks": 116544,
          "time": 191.683923,
          "velocity": 0.3937007874015748
        },
        {
          "duration": 0.1578944999999976,
          "durationTicks": 96,
          "midi": 76,
          "name": "E5",
          "ticks": 116640,
          "time": 191.8418175,
          "velocity": 0.3937007874015748
        },
        {
          "duration": 0.6315779999999904,
          "durationTicks": 384,
          "midi": 68,
          "name": "G#4",
          "ticks": 116736,
          "time": 191.999712,
          "velocity": 0.3937007874015748
        },
        {
          "duration": 1.2631560000000093,
          "durationTicks": 768,
          "midi": 56,
          "name": "G#3",
          "ticks": 116736,
          "time": 191.999712,
          "velocity": 0.3937007874015748
        },
        {
          "duration": 0.3157889999999952,
          "durationTicks": 192,
          "midi": 85,
          "name": "C#6",
          "ticks": 116928,
          "time": 192.31550099999998,
          "velocity": 0.3937007874015748
        },
        {
          "duration": 0.6315780000000188,
          "durationTicks": 384,
          "midi": 68,
          "name": "G#4",
          "ticks": 117120,
          "time": 192.63128999999998,
          "velocity": 0.3937007874015748
        },
        {
          "duration": 0.3157889999999952,
          "durationTicks": 192,
          "midi": 85,
          "name": "C#6",
          "ticks": 117312,
          "time": 192.947079,
          "velocity": 0.3937007874015748
        },
        {
          "duration": 0.6315779999999904,
          "durationTicks": 384,
          "midi": 55,
          "name": "G3",
          "ticks": 117504,
          "time": 193.262868,
          "velocity": 0.3937007874015748
        },
        {
          "duration": 0.6315779999999904,
          "durationTicks": 384,
          "midi": 67,
          "name": "G4",
          "ticks": 117504,
          "time": 193.262868,
          "velocity": 0.3937007874015748
        },
        {
          "duration": 0.3157889999999952,
          "durationTicks": 192,
          "midi": 85,
          "name": "C#6",
          "ticks": 117696,
          "time": 193.578657,
          "velocity": 0.3937007874015748
        },
        {
          "duration": 0.3157889999999952,
          "durationTicks": 192,
          "midi": 57,
          "name": "A3",
          "ticks": 117888,
          "time": 193.894446,
          "velocity": 0.3937007874015748
        },
        {
          "duration": 0.3157889999999952,
          "durationTicks": 192,
          "midi": 69,
          "name": "A4",
          "ticks": 117888,
          "time": 193.894446,
          "velocity": 0.3937007874015748
        },
        {
          "duration": 0.3157889999999952,
          "durationTicks": 192,
          "midi": 75,
          "name": "D#5",
          "ticks": 118080,
          "time": 194.21023499999998,
          "velocity": 0.3937007874015748
        },
        {
          "duration": 0.3157889999999952,
          "durationTicks": 192,
          "midi": 87,
          "name": "D#6",
          "ticks": 118080,
          "time": 194.21023499999998,
          "velocity": 0.3937007874015748
        },
        {
          "duration": 0.31578900000002363,
          "durationTicks": 192,
          "midi": 61,
          "name": "C#4",
          "ticks": 118272,
          "time": 194.52602399999998,
          "velocity": 0.3937007874015748
        },
        {
          "duration": 0.31578900000002363,
          "durationTicks": 192,
          "midi": 49,
          "name": "C#3",
          "ticks": 118272,
          "time": 194.52602399999998,
          "velocity": 0.3937007874015748
        },
        {
          "duration": 0.3157889999999952,
          "durationTicks": 192,
          "midi": 61,
          "name": "C#4",
          "ticks": 118464,
          "time": 194.841813,
          "velocity": 0.3937007874015748
        },
        {
          "duration": 0.3157889999999952,
          "durationTicks": 192,
          "midi": 73,
          "name": "C#5",
          "ticks": 118464,
          "time": 194.841813,
          "velocity": 0.3937007874015748
        },
        {
          "duration": 0.1578944999999976,
          "durationTicks": 96,
          "midi": 56,
          "name": "G#3",
          "ticks": 118656,
          "time": 195.157602,
          "velocity": 0.3937007874015748
        },
        {
          "duration": 0.1578944999999976,
          "durationTicks": 96,
          "midi": 68,
          "name": "G#4",
          "ticks": 118656,
          "time": 195.157602,
          "velocity": 0.3937007874015748
        },
        {
          "duration": 0.3157889999999952,
          "durationTicks": 192,
          "midi": 55,
          "name": "G3",
          "ticks": 118944,
          "time": 195.6312855,
          "velocity": 0.3937007874015748
        },
        {
          "duration": 0.3157889999999952,
          "durationTicks": 192,
          "midi": 67,
          "name": "G4",
          "ticks": 118944,
          "time": 195.6312855,
          "velocity": 0.3937007874015748
        },
        {
          "duration": 0.3157889999999952,
          "durationTicks": 192,
          "midi": 54,
          "name": "F#3",
          "ticks": 119232,
          "time": 196.10496899999998,
          "velocity": 0.3937007874015748
        },
        {
          "duration": 0.3157889999999952,
          "durationTicks": 192,
          "midi": 66,
          "name": "F#4",
          "ticks": 119232,
          "time": 196.10496899999998,
          "velocity": 0.3937007874015748
        },
        {
          "duration": 0.15789450000002603,
          "durationTicks": 96,
          "midi": 52,
          "name": "E3",
          "ticks": 119424,
          "time": 196.42075799999998,
          "velocity": 0.3937007874015748
        },
        {
          "duration": 0.15789450000002603,
          "durationTicks": 96,
          "midi": 64,
          "name": "E4",
          "ticks": 119424,
          "time": 196.42075799999998,
          "velocity": 0.3937007874015748
        },
        {
          "duration": 0.1578944999999976,
          "durationTicks": 96,
          "midi": 49,
          "name": "C#3",
          "ticks": 119520,
          "time": 196.5786525,
          "velocity": 0.3937007874015748
        },
        {
          "duration": 0.1578944999999976,
          "durationTicks": 96,
          "midi": 61,
          "name": "C#4",
          "ticks": 119520,
          "time": 196.5786525,
          "velocity": 0.3937007874015748
        },
        {
          "duration": 0.1578944999999976,
          "durationTicks": 96,
          "midi": 52,
          "name": "E3",
          "ticks": 119616,
          "time": 196.736547,
          "velocity": 0.3937007874015748
        },
        {
          "duration": 0.1578944999999976,
          "durationTicks": 96,
          "midi": 64,
          "name": "E4",
          "ticks": 119616,
          "time": 196.736547,
          "velocity": 0.3937007874015748
        },
        {
          "duration": 0.1578944999999976,
          "durationTicks": 96,
          "midi": 66,
          "name": "F#4",
          "ticks": 119712,
          "time": 196.8944415,
          "velocity": 0.3937007874015748
        },
        {
          "duration": 0.1578944999999976,
          "durationTicks": 96,
          "midi": 54,
          "name": "F#3",
          "ticks": 119712,
          "time": 196.8944415,
          "velocity": 0.3937007874015748
        },
        {
          "duration": 0.3157889999999952,
          "durationTicks": 192,
          "midi": 47,
          "name": "B2",
          "ticks": 119808,
          "time": 197.052336,
          "velocity": 0.3937007874015748
        },
        {
          "duration": 0.3157889999999952,
          "durationTicks": 192,
          "midi": 59,
          "name": "B3",
          "ticks": 119808,
          "time": 197.052336,
          "velocity": 0.3937007874015748
        },
        {
          "duration": 0.3157889999999952,
          "durationTicks": 192,
          "midi": 61,
          "name": "C#4",
          "ticks": 120000,
          "time": 197.368125,
          "velocity": 0.3937007874015748
        },
        {
          "duration": 0.3157889999999952,
          "durationTicks": 192,
          "midi": 73,
          "name": "C#5",
          "ticks": 120000,
          "time": 197.368125,
          "velocity": 0.3937007874015748
        },
        {
          "duration": 0.3157889999999952,
          "durationTicks": 192,
          "midi": 56,
          "name": "G#3",
          "ticks": 120192,
          "time": 197.683914,
          "velocity": 0.3937007874015748
        },
        {
          "duration": 0.3157889999999952,
          "durationTicks": 192,
          "midi": 68,
          "name": "G#4",
          "ticks": 120192,
          "time": 197.683914,
          "velocity": 0.3937007874015748
        },
        {
          "duration": 0.3157889999999952,
          "durationTicks": 192,
          "midi": 66,
          "name": "F#4",
          "ticks": 120384,
          "time": 197.99970299999998,
          "velocity": 0.3937007874015748
        },
        {
          "duration": 0.3157889999999952,
          "durationTicks": 192,
          "midi": 54,
          "name": "F#3",
          "ticks": 120384,
          "time": 197.99970299999998,
          "velocity": 0.3937007874015748
        },
        {
          "duration": 0.31578900000002363,
          "durationTicks": 192,
          "midi": 64,
          "name": "E4",
          "ticks": 120576,
          "time": 198.31549199999998,
          "velocity": 0.3937007874015748
        },
        {
          "duration": 0.31578900000002363,
          "durationTicks": 192,
          "midi": 52,
          "name": "E3",
          "ticks": 120576,
          "time": 198.31549199999998,
          "velocity": 0.3937007874015748
        },
        {
          "duration": 0.1578944999999976,
          "durationTicks": 96,
          "midi": 51,
          "name": "D#3",
          "ticks": 120768,
          "time": 198.631281,
          "velocity": 0.3937007874015748
        },
        {
          "duration": 0.1578944999999976,
          "durationTicks": 96,
          "midi": 63,
          "name": "D#4",
          "ticks": 120768,
          "time": 198.631281,
          "velocity": 0.3937007874015748
        },
        {
          "duration": 0.1578944999999976,
          "durationTicks": 96,
          "midi": 52,
          "name": "E3",
          "ticks": 120864,
          "time": 198.7891755,
          "velocity": 0.3937007874015748
        },
        {
          "duration": 0.1578944999999976,
          "durationTicks": 96,
          "midi": 64,
          "name": "E4",
          "ticks": 120864,
          "time": 198.7891755,
          "velocity": 0.3937007874015748
        },
        {
          "duration": 0.1578944999999976,
          "durationTicks": 96,
          "midi": 63,
          "name": "D#4",
          "ticks": 120960,
          "time": 198.94707,
          "velocity": 0.3937007874015748
        },
        {
          "duration": 0.1578944999999976,
          "durationTicks": 96,
          "midi": 51,
          "name": "D#3",
          "ticks": 120960,
          "time": 198.94707,
          "velocity": 0.3937007874015748
        },
        {
          "duration": 0.1578944999999976,
          "durationTicks": 96,
          "midi": 49,
          "name": "C#3",
          "ticks": 121056,
          "time": 199.1049645,
          "velocity": 0.3937007874015748
        },
        {
          "duration": 0.1578944999999976,
          "durationTicks": 96,
          "midi": 61,
          "name": "C#4",
          "ticks": 121056,
          "time": 199.1049645,
          "velocity": 0.3937007874015748
        },
        {
          "duration": 0.1578944999999976,
          "durationTicks": 96,
          "midi": 47,
          "name": "B2",
          "ticks": 121152,
          "time": 199.262859,
          "velocity": 0.3937007874015748
        },
        {
          "duration": 0.1578944999999976,
          "durationTicks": 96,
          "midi": 59,
          "name": "B3",
          "ticks": 121152,
          "time": 199.262859,
          "velocity": 0.3937007874015748
        },
        {
          "duration": 0.1578944999999976,
          "durationTicks": 96,
          "midi": 44,
          "name": "G#2",
          "ticks": 121248,
          "time": 199.4207535,
          "velocity": 0.3937007874015748
        },
        {
          "duration": 0.1578944999999976,
          "durationTicks": 96,
          "midi": 56,
          "name": "G#3",
          "ticks": 121248,
          "time": 199.4207535,
          "velocity": 0.3937007874015748
        },
        {
          "duration": 0.1578944999999976,
          "durationTicks": 96,
          "midi": 45,
          "name": "A2",
          "ticks": 121344,
          "time": 199.578648,
          "velocity": 0.3937007874015748
        },
        {
          "duration": 0.1578944999999976,
          "durationTicks": 96,
          "midi": 57,
          "name": "A3",
          "ticks": 121344,
          "time": 199.578648,
          "velocity": 0.3937007874015748
        },
        {
          "duration": 0.1578944999999976,
          "durationTicks": 96,
          "midi": 57,
          "name": "A3",
          "ticks": 121440,
          "time": 199.73654249999998,
          "velocity": 0.3937007874015748
        },
        {
          "duration": 0.1578944999999976,
          "durationTicks": 96,
          "midi": 45,
          "name": "A2",
          "ticks": 121440,
          "time": 199.73654249999998,
          "velocity": 0.3937007874015748
        },
        {
          "duration": 0.3157889999999952,
          "durationTicks": 192,
          "midi": 61,
          "name": "C#4",
          "ticks": 121536,
          "time": 199.89443699999998,
          "velocity": 0.3937007874015748
        },
        {
          "duration": 0.3157889999999952,
          "durationTicks": 192,
          "midi": 73,
          "name": "C#5",
          "ticks": 121536,
          "time": 199.89443699999998,
          "velocity": 0.3937007874015748
        },
        {
          "duration": 0.31578900000002363,
          "durationTicks": 192,
          "midi": 56,
          "name": "G#3",
          "ticks": 121728,
          "time": 200.21022599999998,
          "velocity": 0.3937007874015748
        },
        {
          "duration": 0.31578900000002363,
          "durationTicks": 192,
          "midi": 68,
          "name": "G#4",
          "ticks": 121728,
          "time": 200.21022599999998,
          "velocity": 0.3937007874015748
        },
        {
          "duration": 0.1578944999999976,
          "durationTicks": 96,
          "midi": 73,
          "name": "C#5",
          "ticks": 121920,
          "time": 200.526015,
          "velocity": 0.3937007874015748
        },
        {
          "duration": 0.1578944999999976,
          "durationTicks": 96,
          "midi": 61,
          "name": "C#4",
          "ticks": 121920,
          "time": 200.526015,
          "velocity": 0.3937007874015748
        },
        {
          "duration": 0.1578944999999976,
          "durationTicks": 96,
          "midi": 69,
          "name": "A4",
          "ticks": 122016,
          "time": 200.6839095,
          "velocity": 0.3937007874015748
        },
        {
          "duration": 0.1578944999999976,
          "durationTicks": 96,
          "midi": 57,
          "name": "A3",
          "ticks": 122016,
          "time": 200.6839095,
          "velocity": 0.3937007874015748
        },
        {
          "duration": 0.1578944999999976,
          "durationTicks": 96,
          "midi": 73,
          "name": "C#5",
          "ticks": 122112,
          "time": 200.841804,
          "velocity": 0.3937007874015748
        },
        {
          "duration": 0.1578944999999976,
          "durationTicks": 96,
          "midi": 61,
          "name": "C#4",
          "ticks": 122112,
          "time": 200.841804,
          "velocity": 0.3937007874015748
        },
        {
          "duration": 0.1578944999999976,
          "durationTicks": 96,
          "midi": 59,
          "name": "B3",
          "ticks": 122208,
          "time": 200.9996985,
          "velocity": 0.3937007874015748
        },
        {
          "duration": 0.1578944999999976,
          "durationTicks": 96,
          "midi": 71,
          "name": "B4",
          "ticks": 122208,
          "time": 200.9996985,
          "velocity": 0.3937007874015748
        },
        {
          "duration": 0.3157889999999952,
          "durationTicks": 192,
          "midi": 56,
          "name": "G#3",
          "ticks": 122304,
          "time": 201.157593,
          "velocity": 0.3937007874015748
        },
        {
          "duration": 0.3157889999999952,
          "durationTicks": 192,
          "midi": 68,
          "name": "G#4",
          "ticks": 122304,
          "time": 201.157593,
          "velocity": 0.3937007874015748
        },
        {
          "duration": 0.3157889999999952,
          "durationTicks": 192,
          "midi": 54,
          "name": "F#3",
          "ticks": 122496,
          "time": 201.473382,
          "velocity": 0.3937007874015748
        },
        {
          "duration": 0.3157889999999952,
          "durationTicks": 192,
          "midi": 66,
          "name": "F#4",
          "ticks": 122496,
          "time": 201.473382,
          "velocity": 0.3937007874015748
        },
        {
          "duration": 0.1578944999999976,
          "durationTicks": 96,
          "midi": 56,
          "name": "G#3",
          "ticks": 122688,
          "time": 201.78917099999998,
          "velocity": 0.3937007874015748
        },
        {
          "duration": 0.1578944999999976,
          "durationTicks": 96,
          "midi": 68,
          "name": "G#4",
          "ticks": 122688,
          "time": 201.78917099999998,
          "velocity": 0.3937007874015748
        },
        {
          "duration": 0.15789450000002603,
          "durationTicks": 96,
          "midi": 52,
          "name": "E3",
          "ticks": 122784,
          "time": 201.94706549999998,
          "velocity": 0.3937007874015748
        },
        {
          "duration": 0.15789450000002603,
          "durationTicks": 96,
          "midi": 64,
          "name": "E4",
          "ticks": 122784,
          "time": 201.94706549999998,
          "velocity": 0.3937007874015748
        },
        {
          "duration": 0.1578944999999976,
          "durationTicks": 96,
          "midi": 44,
          "name": "G#2",
          "ticks": 122880,
          "time": 202.10496,
          "velocity": 0.3937007874015748
        },
        {
          "duration": 0.1578944999999976,
          "durationTicks": 96,
          "midi": 56,
          "name": "G#3",
          "ticks": 122880,
          "time": 202.10496,
          "velocity": 0.3937007874015748
        },
        {
          "duration": 0.1578944999999976,
          "durationTicks": 96,
          "midi": 56,
          "name": "G#3",
          "ticks": 122976,
          "time": 202.2628545,
          "velocity": 0.3937007874015748
        },
        {
          "duration": 0.1578944999999976,
          "durationTicks": 96,
          "midi": 44,
          "name": "G#2",
          "ticks": 122976,
          "time": 202.2628545,
          "velocity": 0.3937007874015748
        },
        {
          "duration": 0.3157889999999952,
          "durationTicks": 192,
          "midi": 61,
          "name": "C#4",
          "ticks": 123072,
          "time": 202.420749,
          "velocity": 0.3937007874015748
        },
        {
          "duration": 0.3157889999999952,
          "durationTicks": 192,
          "midi": 73,
          "name": "C#5",
          "ticks": 123072,
          "time": 202.420749,
          "velocity": 0.3937007874015748
        },
        {
          "duration": 0.3157889999999952,
          "durationTicks": 192,
          "midi": 44,
          "name": "G#2",
          "ticks": 123264,
          "time": 202.736538,
          "velocity": 0.3937007874015748
        },
        {
          "duration": 0.3157889999999952,
          "durationTicks": 192,
          "midi": 56,
          "name": "G#3",
          "ticks": 123264,
          "time": 202.736538,
          "velocity": 0.3937007874015748
        },
        {
          "duration": 0.3157889999999952,
          "durationTicks": 192,
          "midi": 61,
          "name": "C#4",
          "ticks": 123456,
          "time": 203.052327,
          "velocity": 0.3937007874015748
        },
        {
          "duration": 0.3157889999999952,
          "durationTicks": 192,
          "midi": 73,
          "name": "C#5",
          "ticks": 123456,
          "time": 203.052327,
          "velocity": 0.3937007874015748
        },
        {
          "duration": 0.1578944999999976,
          "durationTicks": 96,
          "midi": 43,
          "name": "G2",
          "ticks": 123648,
          "time": 203.368116,
          "velocity": 0.3937007874015748
        },
        {
          "duration": 0.1578944999999976,
          "durationTicks": 96,
          "midi": 55,
          "name": "G3",
          "ticks": 123648,
          "time": 203.368116,
          "velocity": 0.3937007874015748
        },
        {
          "duration": 0.1578944999999976,
          "durationTicks": 96,
          "midi": 43,
          "name": "G2",
          "ticks": 123744,
          "time": 203.52601049999998,
          "velocity": 0.3937007874015748
        },
        {
          "duration": 0.1578944999999976,
          "durationTicks": 96,
          "midi": 55,
          "name": "G3",
          "ticks": 123744,
          "time": 203.52601049999998,
          "velocity": 0.3937007874015748
        },
        {
          "duration": 0.31578900000002363,
          "durationTicks": 192,
          "midi": 61,
          "name": "C#4",
          "ticks": 123840,
          "time": 203.68390499999998,
          "velocity": 0.3937007874015748
        },
        {
          "duration": 0.31578900000002363,
          "durationTicks": 192,
          "midi": 73,
          "name": "C#5",
          "ticks": 123840,
          "time": 203.68390499999998,
          "velocity": 0.3937007874015748
        },
        {
          "duration": 0.3157889999999952,
          "durationTicks": 192,
          "midi": 45,
          "name": "A2",
          "ticks": 124032,
          "time": 203.999694,
          "velocity": 0.3937007874015748
        },
        {
          "duration": 0.3157889999999952,
          "durationTicks": 192,
          "midi": 57,
          "name": "A3",
          "ticks": 124032,
          "time": 203.999694,
          "velocity": 0.3937007874015748
        },
        {
          "duration": 0.3157889999999952,
          "durationTicks": 192,
          "midi": 63,
          "name": "D#4",
          "ticks": 124224,
          "time": 204.315483,
          "velocity": 0.3937007874015748
        },
        {
          "duration": 0.3157889999999952,
          "durationTicks": 192,
          "midi": 75,
          "name": "D#5",
          "ticks": 124224,
          "time": 204.315483,
          "velocity": 0.3937007874015748
        },
        {
          "duration": 0.3157889999999952,
          "durationTicks": 192,
          "midi": 61,
          "name": "C#4",
          "ticks": 124416,
          "time": 204.631272,
          "velocity": 0.3937007874015748
        },
        {
          "duration": 0.3157889999999952,
          "durationTicks": 192,
          "midi": 49,
          "name": "C#3",
          "ticks": 124416,
          "time": 204.631272,
          "velocity": 0.3937007874015748
        },
        {
          "duration": 0.3157889999999952,
          "durationTicks": 192,
          "midi": 61,
          "name": "C#4",
          "ticks": 124608,
          "time": 204.947061,
          "velocity": 0.3937007874015748
        },
        {
          "duration": 0.3157889999999952,
          "durationTicks": 192,
          "midi": 73,
          "name": "C#5",
          "ticks": 124608,
          "time": 204.947061,
          "velocity": 0.3937007874015748
        },
        {
          "duration": 0.1578944999999976,
          "durationTicks": 96,
          "midi": 56,
          "name": "G#3",
          "ticks": 124800,
          "time": 205.26285,
          "velocity": 0.3937007874015748
        },
        {
          "duration": 0.1578944999999976,
          "durationTicks": 96,
          "midi": 68,
          "name": "G#4",
          "ticks": 124800,
          "time": 205.26285,
          "velocity": 0.3937007874015748
        },
        {
          "duration": 0.31578900000002363,
          "durationTicks": 192,
          "midi": 55,
          "name": "G3",
          "ticks": 125088,
          "time": 205.73653349999998,
          "velocity": 0.3937007874015748
        },
        {
          "duration": 0.31578900000002363,
          "durationTicks": 192,
          "midi": 67,
          "name": "G4",
          "ticks": 125088,
          "time": 205.73653349999998,
          "velocity": 0.3937007874015748
        },
        {
          "duration": 0.3157889999999952,
          "durationTicks": 192,
          "midi": 54,
          "name": "F#3",
          "ticks": 125376,
          "time": 206.210217,
          "velocity": 0.3937007874015748
        },
        {
          "duration": 0.3157889999999952,
          "durationTicks": 192,
          "midi": 66,
          "name": "F#4",
          "ticks": 125376,
          "time": 206.210217,
          "velocity": 0.3937007874015748
        },
        {
          "duration": 0.1578944999999976,
          "durationTicks": 96,
          "midi": 52,
          "name": "E3",
          "ticks": 125568,
          "time": 206.526006,
          "velocity": 0.3937007874015748
        },
        {
          "duration": 0.1578944999999976,
          "durationTicks": 96,
          "midi": 64,
          "name": "E4",
          "ticks": 125568,
          "time": 206.526006,
          "velocity": 0.3937007874015748
        },
        {
          "duration": 0.1578944999999976,
          "durationTicks": 96,
          "midi": 49,
          "name": "C#3",
          "ticks": 125664,
          "time": 206.6839005,
          "velocity": 0.3937007874015748
        },
        {
          "duration": 0.1578944999999976,
          "durationTicks": 96,
          "midi": 61,
          "name": "C#4",
          "ticks": 125664,
          "time": 206.6839005,
          "velocity": 0.3937007874015748
        },
        {
          "duration": 0.1578944999999976,
          "durationTicks": 96,
          "midi": 52,
          "name": "E3",
          "ticks": 125760,
          "time": 206.841795,
          "velocity": 0.3937007874015748
        },
        {
          "duration": 0.1578944999999976,
          "durationTicks": 96,
          "midi": 64,
          "name": "E4",
          "ticks": 125760,
          "time": 206.841795,
          "velocity": 0.3937007874015748
        },
        {
          "duration": 0.1578944999999976,
          "durationTicks": 96,
          "midi": 66,
          "name": "F#4",
          "ticks": 125856,
          "time": 206.9996895,
          "velocity": 0.3937007874015748
        },
        {
          "duration": 0.1578944999999976,
          "durationTicks": 96,
          "midi": 54,
          "name": "F#3",
          "ticks": 125856,
          "time": 206.9996895,
          "velocity": 0.3937007874015748
        },
        {
          "duration": 0.3157889999999952,
          "durationTicks": 192,
          "midi": 47,
          "name": "B2",
          "ticks": 125952,
          "time": 207.15758399999999,
          "velocity": 0.3937007874015748
        },
        {
          "duration": 0.3157889999999952,
          "durationTicks": 192,
          "midi": 59,
          "name": "B3",
          "ticks": 125952,
          "time": 207.15758399999999,
          "velocity": 0.3937007874015748
        },
        {
          "duration": 0.31578900000002363,
          "durationTicks": 192,
          "midi": 61,
          "name": "C#4",
          "ticks": 126144,
          "time": 207.47337299999998,
          "velocity": 0.3937007874015748
        },
        {
          "duration": 0.31578900000002363,
          "durationTicks": 192,
          "midi": 73,
          "name": "C#5",
          "ticks": 126144,
          "time": 207.47337299999998,
          "velocity": 0.3937007874015748
        },
        {
          "duration": 0.3157889999999952,
          "durationTicks": 192,
          "midi": 56,
          "name": "G#3",
          "ticks": 126336,
          "time": 207.789162,
          "velocity": 0.3937007874015748
        },
        {
          "duration": 0.3157889999999952,
          "durationTicks": 192,
          "midi": 68,
          "name": "G#4",
          "ticks": 126336,
          "time": 207.789162,
          "velocity": 0.3937007874015748
        },
        {
          "duration": 0.3157889999999952,
          "durationTicks": 192,
          "midi": 54,
          "name": "F#3",
          "ticks": 126528,
          "time": 208.104951,
          "velocity": 0.3937007874015748
        },
        {
          "duration": 0.3157889999999952,
          "durationTicks": 192,
          "midi": 66,
          "name": "F#4",
          "ticks": 126528,
          "time": 208.104951,
          "velocity": 0.3937007874015748
        },
        {
          "duration": 0.3157889999999952,
          "durationTicks": 192,
          "midi": 52,
          "name": "E3",
          "ticks": 126720,
          "time": 208.42074,
          "velocity": 0.3937007874015748
        },
        {
          "duration": 0.3157889999999952,
          "durationTicks": 192,
          "midi": 64,
          "name": "E4",
          "ticks": 126720,
          "time": 208.42074,
          "velocity": 0.3937007874015748
        },
        {
          "duration": 0.1578944999999976,
          "durationTicks": 96,
          "midi": 51,
          "name": "D#3",
          "ticks": 126912,
          "time": 208.736529,
          "velocity": 0.3937007874015748
        },
        {
          "duration": 0.1578944999999976,
          "durationTicks": 96,
          "midi": 63,
          "name": "D#4",
          "ticks": 126912,
          "time": 208.736529,
          "velocity": 0.3937007874015748
        },
        {
          "duration": 0.1578944999999976,
          "durationTicks": 96,
          "midi": 52,
          "name": "E3",
          "ticks": 127008,
          "time": 208.8944235,
          "velocity": 0.3937007874015748
        },
        {
          "duration": 0.1578944999999976,
          "durationTicks": 96,
          "midi": 64,
          "name": "E4",
          "ticks": 127008,
          "time": 208.8944235,
          "velocity": 0.3937007874015748
        },
        {
          "duration": 0.1578944999999976,
          "durationTicks": 96,
          "midi": 63,
          "name": "D#4",
          "ticks": 127104,
          "time": 209.05231799999999,
          "velocity": 0.3937007874015748
        },
        {
          "duration": 0.1578944999999976,
          "durationTicks": 96,
          "midi": 51,
          "name": "D#3",
          "ticks": 127104,
          "time": 209.05231799999999,
          "velocity": 0.3937007874015748
        },
        {
          "duration": 0.1578944999999976,
          "durationTicks": 96,
          "midi": 61,
          "name": "C#4",
          "ticks": 127200,
          "time": 209.21021249999998,
          "velocity": 0.3937007874015748
        },
        {
          "duration": 0.1578944999999976,
          "durationTicks": 96,
          "midi": 49,
          "name": "C#3",
          "ticks": 127200,
          "time": 209.21021249999998,
          "velocity": 0.3937007874015748
        },
        {
          "duration": 0.1578944999999976,
          "durationTicks": 96,
          "midi": 47,
          "name": "B2",
          "ticks": 127296,
          "time": 209.36810699999998,
          "velocity": 0.3937007874015748
        },
        {
          "duration": 0.1578944999999976,
          "durationTicks": 96,
          "midi": 59,
          "name": "B3",
          "ticks": 127296,
          "time": 209.36810699999998,
          "velocity": 0.3937007874015748
        },
        {
          "duration": 0.15789450000002603,
          "durationTicks": 96,
          "midi": 44,
          "name": "G#2",
          "ticks": 127392,
          "time": 209.52600149999998,
          "velocity": 0.3937007874015748
        },
        {
          "duration": 0.15789450000002603,
          "durationTicks": 96,
          "midi": 56,
          "name": "G#3",
          "ticks": 127392,
          "time": 209.52600149999998,
          "velocity": 0.3937007874015748
        },
        {
          "duration": 0.1578944999999976,
          "durationTicks": 96,
          "midi": 57,
          "name": "A3",
          "ticks": 127488,
          "time": 209.683896,
          "velocity": 0.3937007874015748
        },
        {
          "duration": 0.1578944999999976,
          "durationTicks": 96,
          "midi": 45,
          "name": "A2",
          "ticks": 127488,
          "time": 209.683896,
          "velocity": 0.3937007874015748
        },
        {
          "duration": 0.1578944999999976,
          "durationTicks": 96,
          "midi": 45,
          "name": "A2",
          "ticks": 127584,
          "time": 209.8417905,
          "velocity": 0.3937007874015748
        },
        {
          "duration": 0.1578944999999976,
          "durationTicks": 96,
          "midi": 57,
          "name": "A3",
          "ticks": 127584,
          "time": 209.8417905,
          "velocity": 0.3937007874015748
        },
        {
          "duration": 0.3157889999999952,
          "durationTicks": 192,
          "midi": 61,
          "name": "C#4",
          "ticks": 127680,
          "time": 209.999685,
          "velocity": 0.3937007874015748
        },
        {
          "duration": 0.3157889999999952,
          "durationTicks": 192,
          "midi": 73,
          "name": "C#5",
          "ticks": 127680,
          "time": 209.999685,
          "velocity": 0.3937007874015748
        },
        {
          "duration": 0.3157889999999952,
          "durationTicks": 192,
          "midi": 56,
          "name": "G#3",
          "ticks": 127872,
          "time": 210.315474,
          "velocity": 0.3937007874015748
        },
        {
          "duration": 0.3157889999999952,
          "durationTicks": 192,
          "midi": 68,
          "name": "G#4",
          "ticks": 127872,
          "time": 210.315474,
          "velocity": 0.3937007874015748
        },
        {
          "duration": 0.1578944999999976,
          "durationTicks": 96,
          "midi": 73,
          "name": "C#5",
          "ticks": 128064,
          "time": 210.631263,
          "velocity": 0.3937007874015748
        },
        {
          "duration": 0.1578944999999976,
          "durationTicks": 96,
          "midi": 61,
          "name": "C#4",
          "ticks": 128064,
          "time": 210.631263,
          "velocity": 0.3937007874015748
        },
        {
          "duration": 0.1578944999999976,
          "durationTicks": 96,
          "midi": 57,
          "name": "A3",
          "ticks": 128160,
          "time": 210.7891575,
          "velocity": 0.3937007874015748
        },
        {
          "duration": 0.1578944999999976,
          "durationTicks": 96,
          "midi": 69,
          "name": "A4",
          "ticks": 128160,
          "time": 210.7891575,
          "velocity": 0.3937007874015748
        },
        {
          "duration": 0.1578944999999976,
          "durationTicks": 96,
          "midi": 61,
          "name": "C#4",
          "ticks": 128256,
          "time": 210.94705199999999,
          "velocity": 0.3937007874015748
        },
        {
          "duration": 0.1578944999999976,
          "durationTicks": 96,
          "midi": 73,
          "name": "C#5",
          "ticks": 128256,
          "time": 210.94705199999999,
          "velocity": 0.3937007874015748
        },
        {
          "duration": 0.1578944999999976,
          "durationTicks": 96,
          "midi": 59,
          "name": "B3",
          "ticks": 128352,
          "time": 211.10494649999998,
          "velocity": 0.3937007874015748
        },
        {
          "duration": 0.1578944999999976,
          "durationTicks": 96,
          "midi": 71,
          "name": "B4",
          "ticks": 128352,
          "time": 211.10494649999998,
          "velocity": 0.3937007874015748
        },
        {
          "duration": 0.31578900000002363,
          "durationTicks": 192,
          "midi": 56,
          "name": "G#3",
          "ticks": 128448,
          "time": 211.26284099999998,
          "velocity": 0.3937007874015748
        },
        {
          "duration": 0.31578900000002363,
          "durationTicks": 192,
          "midi": 68,
          "name": "G#4",
          "ticks": 128448,
          "time": 211.26284099999998,
          "velocity": 0.3937007874015748
        },
        {
          "duration": 0.3157889999999952,
          "durationTicks": 192,
          "midi": 66,
          "name": "F#4",
          "ticks": 128640,
          "time": 211.57863,
          "velocity": 0.3937007874015748
        },
        {
          "duration": 0.3157889999999952,
          "durationTicks": 192,
          "midi": 54,
          "name": "F#3",
          "ticks": 128640,
          "time": 211.57863,
          "velocity": 0.3937007874015748
        },
        {
          "duration": 0.1578944999999976,
          "durationTicks": 96,
          "midi": 56,
          "name": "G#3",
          "ticks": 128832,
          "time": 211.894419,
          "velocity": 0.3937007874015748
        },
        {
          "duration": 0.1578944999999976,
          "durationTicks": 96,
          "midi": 68,
          "name": "G#4",
          "ticks": 128832,
          "time": 211.894419,
          "velocity": 0.3937007874015748
        },
        {
          "duration": 0.1578944999999976,
          "durationTicks": 96,
          "midi": 52,
          "name": "E3",
          "ticks": 128928,
          "time": 212.0523135,
          "velocity": 0.3937007874015748
        },
        {
          "duration": 0.1578944999999976,
          "durationTicks": 96,
          "midi": 64,
          "name": "E4",
          "ticks": 128928,
          "time": 212.0523135,
          "velocity": 0.3937007874015748
        },
        {
          "duration": 0.1578944999999976,
          "durationTicks": 96,
          "midi": 56,
          "name": "G#3",
          "ticks": 129024,
          "time": 212.210208,
          "velocity": 0.3937007874015748
        },
        {
          "duration": 0.1578944999999976,
          "durationTicks": 96,
          "midi": 44,
          "name": "G#2",
          "ticks": 129024,
          "time": 212.210208,
          "velocity": 0.3937007874015748
        },
        {
          "duration": 0.1578944999999976,
          "durationTicks": 96,
          "midi": 56,
          "name": "G#3",
          "ticks": 129120,
          "time": 212.3681025,
          "velocity": 0.3937007874015748
        },
        {
          "duration": 0.1578944999999976,
          "durationTicks": 96,
          "midi": 44,
          "name": "G#2",
          "ticks": 129120,
          "time": 212.3681025,
          "velocity": 0.3937007874015748
        },
        {
          "duration": 0.3157889999999952,
          "durationTicks": 192,
          "midi": 61,
          "name": "C#4",
          "ticks": 129216,
          "time": 212.525997,
          "velocity": 0.3937007874015748
        },
        {
          "duration": 0.3157889999999952,
          "durationTicks": 192,
          "midi": 73,
          "name": "C#5",
          "ticks": 129216,
          "time": 212.525997,
          "velocity": 0.3937007874015748
        },
        {
          "duration": 0.3157889999999952,
          "durationTicks": 192,
          "midi": 44,
          "name": "G#2",
          "ticks": 129408,
          "time": 212.84178599999998,
          "velocity": 0.3937007874015748
        },
        {
          "duration": 0.3157889999999952,
          "durationTicks": 192,
          "midi": 56,
          "name": "G#3",
          "ticks": 129408,
          "time": 212.84178599999998,
          "velocity": 0.3937007874015748
        },
        {
          "duration": 0.31578900000002363,
          "durationTicks": 192,
          "midi": 61,
          "name": "C#4",
          "ticks": 129600,
          "time": 213.15757499999998,
          "velocity": 0.3937007874015748
        },
        {
          "duration": 0.31578900000002363,
          "durationTicks": 192,
          "midi": 73,
          "name": "C#5",
          "ticks": 129600,
          "time": 213.15757499999998,
          "velocity": 0.3937007874015748
        },
        {
          "duration": 0.1578944999999976,
          "durationTicks": 96,
          "midi": 55,
          "name": "G3",
          "ticks": 129792,
          "time": 213.473364,
          "velocity": 0.3937007874015748
        },
        {
          "duration": 0.1578944999999976,
          "durationTicks": 96,
          "midi": 43,
          "name": "G2",
          "ticks": 129792,
          "time": 213.473364,
          "velocity": 0.3937007874015748
        },
        {
          "duration": 0.1578944999999976,
          "durationTicks": 96,
          "midi": 43,
          "name": "G2",
          "ticks": 129888,
          "time": 213.6312585,
          "velocity": 0.3937007874015748
        },
        {
          "duration": 0.1578944999999976,
          "durationTicks": 96,
          "midi": 55,
          "name": "G3",
          "ticks": 129888,
          "time": 213.6312585,
          "velocity": 0.3937007874015748
        },
        {
          "duration": 0.3157889999999952,
          "durationTicks": 192,
          "midi": 61,
          "name": "C#4",
          "ticks": 129984,
          "time": 213.789153,
          "velocity": 0.3937007874015748
        },
        {
          "duration": 0.3157889999999952,
          "durationTicks": 192,
          "midi": 73,
          "name": "C#5",
          "ticks": 129984,
          "time": 213.789153,
          "velocity": 0.3937007874015748
        },
        {
          "duration": 0.3157889999999952,
          "durationTicks": 192,
          "midi": 45,
          "name": "A2",
          "ticks": 130176,
          "time": 214.104942,
          "velocity": 0.3937007874015748
        },
        {
          "duration": 0.3157889999999952,
          "durationTicks": 192,
          "midi": 57,
          "name": "A3",
          "ticks": 130176,
          "time": 214.104942,
          "velocity": 0.3937007874015748
        },
        {
          "duration": 0.3157889999999952,
          "durationTicks": 192,
          "midi": 75,
          "name": "D#5",
          "ticks": 130368,
          "time": 214.420731,
          "velocity": 0.3937007874015748
        },
        {
          "duration": 0.3157889999999952,
          "durationTicks": 192,
          "midi": 63,
          "name": "D#4",
          "ticks": 130368,
          "time": 214.420731,
          "velocity": 0.3937007874015748
        },
        {
          "duration": 0.3157889999999952,
          "durationTicks": 192,
          "midi": 61,
          "name": "C#4",
          "ticks": 130560,
          "time": 214.73651999999998,
          "velocity": 0.3937007874015748
        },
        {
          "duration": 0.31578900000002363,
          "durationTicks": 192,
          "midi": 73,
          "name": "C#5",
          "ticks": 130752,
          "time": 215.05230899999998,
          "velocity": 0.3937007874015748
        },
        {
          "duration": 0.1578944999999976,
          "durationTicks": 96,
          "midi": 68,
          "name": "G#4",
          "ticks": 130944,
          "time": 215.368098,
          "velocity": 0.3937007874015748
        },
        {
          "duration": 0.3157889999999952,
          "durationTicks": 192,
          "midi": 67,
          "name": "G4",
          "ticks": 131232,
          "time": 215.8417815,
          "velocity": 0.3937007874015748
        },
        {
          "duration": 0.3157889999999952,
          "durationTicks": 192,
          "midi": 66,
          "name": "F#4",
          "ticks": 131520,
          "time": 216.315465,
          "velocity": 0.3937007874015748
        },
        {
          "duration": 0.1578944999999976,
          "durationTicks": 96,
          "midi": 64,
          "name": "E4",
          "ticks": 131712,
          "time": 216.63125399999998,
          "velocity": 0.3937007874015748
        },
        {
          "duration": 0.1578944999999976,
          "durationTicks": 96,
          "midi": 61,
          "name": "C#4",
          "ticks": 131808,
          "time": 216.78914849999998,
          "velocity": 0.3937007874015748
        },
        {
          "duration": 0.1578944999999976,
          "durationTicks": 96,
          "midi": 64,
          "name": "E4",
          "ticks": 131904,
          "time": 216.94704299999998,
          "velocity": 0.3937007874015748
        },
        {
          "duration": 0.15789450000002603,
          "durationTicks": 96,
          "midi": 66,
          "name": "F#4",
          "ticks": 132000,
          "time": 217.10493749999998,
          "velocity": 0.3937007874015748
        },
        {
          "duration": 0.3157889999999952,
          "durationTicks": 192,
          "midi": 59,
          "name": "B3",
          "ticks": 132096,
          "time": 217.262832,
          "velocity": 0.3937007874015748
        },
        {
          "duration": 0.3157889999999952,
          "durationTicks": 192,
          "midi": 73,
          "name": "C#5",
          "ticks": 132288,
          "time": 217.578621,
          "velocity": 0.3937007874015748
        },
        {
          "duration": 0.3157889999999952,
          "durationTicks": 192,
          "midi": 68,
          "name": "G#4",
          "ticks": 132480,
          "time": 217.89441,
          "velocity": 0.3937007874015748
        },
        {
          "duration": 0.3157889999999952,
          "durationTicks": 192,
          "midi": 66,
          "name": "F#4",
          "ticks": 132672,
          "time": 218.210199,
          "velocity": 0.3937007874015748
        },
        {
          "duration": 0.3157889999999952,
          "durationTicks": 192,
          "midi": 64,
          "name": "E4",
          "ticks": 132864,
          "time": 218.52598799999998,
          "velocity": 0.3937007874015748
        },
        {
          "duration": 0.1578944999999976,
          "durationTicks": 96,
          "midi": 63,
          "name": "D#4",
          "ticks": 133056,
          "time": 218.84177699999998,
          "velocity": 0.3937007874015748
        },
        {
          "duration": 0.15789450000002603,
          "durationTicks": 96,
          "midi": 64,
          "name": "E4",
          "ticks": 133152,
          "time": 218.99967149999998,
          "velocity": 0.3937007874015748
        },
        {
          "duration": 0.1578944999999976,
          "durationTicks": 96,
          "midi": 63,
          "name": "D#4",
          "ticks": 133248,
          "time": 219.157566,
          "velocity": 0.3937007874015748
        },
        {
          "duration": 0.1578944999999976,
          "durationTicks": 96,
          "midi": 61,
          "name": "C#4",
          "ticks": 133344,
          "time": 219.3154605,
          "velocity": 0.3937007874015748
        },
        {
          "duration": 0.1578944999999976,
          "durationTicks": 96,
          "midi": 59,
          "name": "B3",
          "ticks": 133440,
          "time": 219.473355,
          "velocity": 0.3937007874015748
        },
        {
          "duration": 0.1578944999999976,
          "durationTicks": 96,
          "midi": 56,
          "name": "G#3",
          "ticks": 133536,
          "time": 219.6312495,
          "velocity": 0.3937007874015748
        },
        {
          "duration": 0.1578944999999976,
          "durationTicks": 96,
          "midi": 57,
          "name": "A3",
          "ticks": 133632,
          "time": 219.789144,
          "velocity": 0.3937007874015748
        },
        {
          "duration": 0.1578944999999976,
          "durationTicks": 96,
          "midi": 57,
          "name": "A3",
          "ticks": 133728,
          "time": 219.9470385,
          "velocity": 0.3937007874015748
        },
        {
          "duration": 0.3157889999999952,
          "durationTicks": 192,
          "midi": 73,
          "name": "C#5",
          "ticks": 133824,
          "time": 220.104933,
          "velocity": 0.3937007874015748
        },
        {
          "duration": 0.3157889999999952,
          "durationTicks": 192,
          "midi": 68,
          "name": "G#4",
          "ticks": 134016,
          "time": 220.42072199999998,
          "velocity": 0.3937007874015748
        },
        {
          "duration": 0.1578944999999976,
          "durationTicks": 96,
          "midi": 73,
          "name": "C#5",
          "ticks": 134208,
          "time": 220.73651099999998,
          "velocity": 0.3937007874015748
        },
        {
          "duration": 0.15789450000002603,
          "durationTicks": 96,
          "midi": 69,
          "name": "A4",
          "ticks": 134304,
          "time": 220.89440549999998,
          "velocity": 0.3937007874015748
        },
        {
          "duration": 0.1578944999999976,
          "durationTicks": 96,
          "midi": 73,
          "name": "C#5",
          "ticks": 134400,
          "time": 221.0523,
          "velocity": 0.3937007874015748
        },
        {
          "duration": 0.1578944999999976,
          "durationTicks": 96,
          "midi": 71,
          "name": "B4",
          "ticks": 134496,
          "time": 221.2101945,
          "velocity": 0.3937007874015748
        },
        {
          "duration": 0.3157889999999952,
          "durationTicks": 192,
          "midi": 68,
          "name": "G#4",
          "ticks": 134592,
          "time": 221.368089,
          "velocity": 0.3937007874015748
        },
        {
          "duration": 0.3157889999999952,
          "durationTicks": 192,
          "midi": 66,
          "name": "F#4",
          "ticks": 134784,
          "time": 221.683878,
          "velocity": 0.3937007874015748
        },
        {
          "duration": 0.1578944999999976,
          "durationTicks": 96,
          "midi": 68,
          "name": "G#4",
          "ticks": 134976,
          "time": 221.999667,
          "velocity": 0.3937007874015748
        },
        {
          "duration": 0.1578944999999976,
          "durationTicks": 96,
          "midi": 64,
          "name": "E4",
          "ticks": 135072,
          "time": 222.15756149999999,
          "velocity": 0.3937007874015748
        },
        {
          "duration": 0.3157889999999952,
          "durationTicks": 192,
          "midi": 56,
          "name": "G#3",
          "ticks": 135168,
          "time": 222.31545599999998,
          "velocity": 0.3937007874015748
        },
        {
          "duration": 0.31578900000002363,
          "durationTicks": 192,
          "midi": 73,
          "name": "C#5",
          "ticks": 135360,
          "time": 222.63124499999998,
          "velocity": 0.3937007874015748
        },
        {
          "duration": 0.4736834999999928,
          "durationTicks": 288,
          "midi": 56,
          "name": "G#3",
          "ticks": 135552,
          "time": 222.947034,
          "velocity": 0.3937007874015748
        },
        {
          "duration": 0.4736834999999928,
          "durationTicks": 288,
          "midi": 73,
          "name": "C#5",
          "ticks": 135840,
          "time": 223.4207175,
          "velocity": 0.3937007874015748
        },
        {
          "duration": 0.6315779999999904,
          "durationTicks": 384,
          "midi": 55,
          "name": "G3",
          "ticks": 136128,
          "time": 223.894401,
          "velocity": 0.3937007874015748
        },
        {
          "duration": 0.6315780000000188,
          "durationTicks": 384,
          "midi": 73,
          "name": "C#5",
          "ticks": 136512,
          "time": 224.52597899999998,
          "velocity": 0.3937007874015748
        },
        {
          "duration": 0.789472499999988,
          "durationTicks": 480,
          "midi": 57,
          "name": "A3",
          "ticks": 136896,
          "time": 225.157557,
          "velocity": 0.3937007874015748
        },
        {
          "duration": 1.4210505000000069,
          "durationTicks": 864,
          "midi": 75,
          "name": "D#5",
          "ticks": 137376,
          "time": 225.94702949999999,
          "velocity": 0.3937007874015748
        }
      ],
      "endOfTrackTicks": 138240
    },
    {
      "channel": 3,
      "controlChanges": {},
      "pitchBends": [],
      "instrument": {
        "family": "brass",
        "number": 57,
        "name": "trombone"
      },
      "name": "Trombone",
      "notes": [
        {
          "duration": 0.315789,
          "durationTicks": 192,
          "midi": 49,
          "name": "C#3",
          "ticks": 0,
          "time": 0,
          "velocity": 0.3937007874015748
        },
        {
          "duration": 0.315789,
          "durationTicks": 192,
          "midi": 61,
          "name": "C#4",
          "ticks": 192,
          "time": 0.315789,
          "velocity": 0.3937007874015748
        },
        {
          "duration": 0.15789450000000005,
          "durationTicks": 96,
          "midi": 56,
          "name": "G#3",
          "ticks": 384,
          "time": 0.631578,
          "velocity": 0.3937007874015748
        },
        {
          "duration": 0.3157890000000001,
          "durationTicks": 192,
          "midi": 55,
          "name": "G3",
          "ticks": 672,
          "time": 1.1052615,
          "velocity": 0.3937007874015748
        },
        {
          "duration": 0.3157889999999999,
          "durationTicks": 192,
          "midi": 54,
          "name": "F#3",
          "ticks": 960,
          "time": 1.578945,
          "velocity": 0.3937007874015748
        },
        {
          "duration": 0.15789450000000005,
          "durationTicks": 96,
          "midi": 52,
          "name": "E3",
          "ticks": 1152,
          "time": 1.894734,
          "velocity": 0.3937007874015748
        },
        {
          "duration": 0.15789449999999983,
          "durationTicks": 96,
          "midi": 49,
          "name": "C#3",
          "ticks": 1248,
          "time": 2.0526285,
          "velocity": 0.3937007874015748
        },
        {
          "duration": 0.15789450000000027,
          "durationTicks": 96,
          "midi": 52,
          "name": "E3",
          "ticks": 1344,
          "time": 2.210523,
          "velocity": 0.3937007874015748
        },
        {
          "duration": 0.15789449999999983,
          "durationTicks": 96,
          "midi": 54,
          "name": "F#3",
          "ticks": 1440,
          "time": 2.3684175,
          "velocity": 0.3937007874015748
        },
        {
          "duration": 0.3157890000000001,
          "durationTicks": 192,
          "midi": 47,
          "name": "B2",
          "ticks": 1536,
          "time": 2.526312,
          "velocity": 0.3937007874015748
        },
        {
          "duration": 0.3157890000000001,
          "durationTicks": 192,
          "midi": 61,
          "name": "C#4",
          "ticks": 1728,
          "time": 2.842101,
          "velocity": 0.3937007874015748
        },
        {
          "duration": 0.31578899999999965,
          "durationTicks": 192,
          "midi": 56,
          "name": "G#3",
          "ticks": 1920,
          "time": 3.15789,
          "velocity": 0.3937007874015748
        },
        {
          "duration": 0.3157890000000001,
          "durationTicks": 192,
          "midi": 54,
          "name": "F#3",
          "ticks": 2112,
          "time": 3.4736789999999997,
          "velocity": 0.3937007874015748
        },
        {
          "duration": 0.3157890000000001,
          "durationTicks": 192,
          "midi": 52,
          "name": "E3",
          "ticks": 2304,
          "time": 3.789468,
          "velocity": 0.3937007874015748
        },
        {
          "duration": 0.15789450000000027,
          "durationTicks": 96,
          "midi": 51,
          "name": "D#3",
          "ticks": 2496,
          "time": 4.105257,
          "velocity": 0.3937007874015748
        },
        {
          "duration": 0.15789449999999938,
          "durationTicks": 96,
          "midi": 52,
          "name": "E3",
          "ticks": 2592,
          "time": 4.2631515,
          "velocity": 0.3937007874015748
        },
        {
          "duration": 0.15789450000000027,
          "durationTicks": 96,
          "midi": 51,
          "name": "D#3",
          "ticks": 2688,
          "time": 4.421046,
          "velocity": 0.3937007874015748
        },
        {
          "duration": 0.15789450000000027,
          "durationTicks": 96,
          "midi": 49,
          "name": "C#3",
          "ticks": 2784,
          "time": 4.5789405,
          "velocity": 0.3937007874015748
        },
        {
          "duration": 0.15789449999999938,
          "durationTicks": 96,
          "midi": 47,
          "name": "B2",
          "ticks": 2880,
          "time": 4.736835,
          "velocity": 0.3937007874015748
        },
        {
          "duration": 0.15789450000000027,
          "durationTicks": 96,
          "midi": 44,
          "name": "G#2",
          "ticks": 2976,
          "time": 4.8947294999999995,
          "velocity": 0.3937007874015748
        },
        {
          "duration": 0.15789450000000027,
          "durationTicks": 96,
          "midi": 45,
          "name": "A2",
          "ticks": 3072,
          "time": 5.052624,
          "velocity": 0.3937007874015748
        },
        {
          "duration": 0.15789449999999938,
          "durationTicks": 96,
          "midi": 45,
          "name": "A2",
          "ticks": 3168,
          "time": 5.2105185,
          "velocity": 0.3937007874015748
        },
        {
          "duration": 0.31578900000000054,
          "durationTicks": 192,
          "midi": 61,
          "name": "C#4",
          "ticks": 3264,
          "time": 5.368412999999999,
          "velocity": 0.3937007874015748
        },
        {
          "duration": 0.31578899999999965,
          "durationTicks": 192,
          "midi": 56,
          "name": "G#3",
          "ticks": 3456,
          "time": 5.684202,
          "velocity": 0.3937007874015748
        },
        {
          "duration": 0.15789450000000027,
          "durationTicks": 96,
          "midi": 61,
          "name": "C#4",
          "ticks": 3648,
          "time": 5.999991,
          "velocity": 0.3937007874015748
        },
        {
          "duration": 0.15789450000000027,
          "durationTicks": 96,
          "midi": 57,
          "name": "A3",
          "ticks": 3744,
          "time": 6.1578855,
          "velocity": 0.3937007874015748
        },
        {
          "duration": 0.15789449999999938,
          "durationTicks": 96,
          "midi": 61,
          "name": "C#4",
          "ticks": 3840,
          "time": 6.31578,
          "velocity": 0.3937007874015748
        },
        {
          "duration": 0.15789450000000027,
          "durationTicks": 96,
          "midi": 59,
          "name": "B3",
          "ticks": 3936,
          "time": 6.4736744999999996,
          "velocity": 0.3937007874015748
        },
        {
          "duration": 0.31578899999999965,
          "durationTicks": 192,
          "midi": 56,
          "name": "G#3",
          "ticks": 4032,
          "time": 6.631569,
          "velocity": 0.3937007874015748
        },
        {
          "duration": 0.31578900000000054,
          "durationTicks": 192,
          "midi": 54,
          "name": "F#3",
          "ticks": 4224,
          "time": 6.9473579999999995,
          "velocity": 0.3937007874015748
        },
        {
          "duration": 0.15789449999999938,
          "durationTicks": 96,
          "midi": 56,
          "name": "G#3",
          "ticks": 4416,
          "time": 7.263147,
          "velocity": 0.3937007874015748
        },
        {
          "duration": 0.15789450000000027,
          "durationTicks": 96,
          "midi": 52,
          "name": "E3",
          "ticks": 4512,
          "time": 7.421041499999999,
          "velocity": 0.3937007874015748
        },
        {
          "duration": 0.31578899999999965,
          "durationTicks": 192,
          "midi": 44,
          "name": "G#2",
          "ticks": 4608,
          "time": 7.578936,
          "velocity": 0.3937007874015748
        },
        {
          "duration": 0.31578900000000054,
          "durationTicks": 192,
          "midi": 61,
          "name": "C#4",
          "ticks": 4800,
          "time": 7.894724999999999,
          "velocity": 0.3937007874015748
        },
        {
          "duration": 0.31578900000000054,
          "durationTicks": 192,
          "midi": 44,
          "name": "G#2",
          "ticks": 4992,
          "time": 8.210514,
          "velocity": 0.3937007874015748
        },
        {
          "duration": 0.31578899999999877,
          "durationTicks": 192,
          "midi": 61,
          "name": "C#4",
          "ticks": 5184,
          "time": 8.526303,
          "velocity": 0.3937007874015748
        },
        {
          "duration": 0.31578900000000054,
          "durationTicks": 192,
          "midi": 43,
          "name": "G2",
          "ticks": 5376,
          "time": 8.842092,
          "velocity": 0.3937007874015748
        },
        {
          "duration": 0.31578900000000054,
          "durationTicks": 192,
          "midi": 61,
          "name": "C#4",
          "ticks": 5568,
          "time": 9.157881,
          "velocity": 0.3937007874015748
        },
        {
          "duration": 0.31578899999999877,
          "durationTicks": 192,
          "midi": 45,
          "name": "A2",
          "ticks": 5760,
          "time": 9.47367,
          "velocity": 0.3937007874015748
        },
        {
          "duration": 0.31578900000000054,
          "durationTicks": 192,
          "midi": 63,
          "name": "D#4",
          "ticks": 5952,
          "time": 9.789458999999999,
          "velocity": 0.3937007874015748
        },
        {
          "duration": 0.31578900000000054,
          "durationTicks": 192,
          "midi": 49,
          "name": "C#3",
          "ticks": 6144,
          "time": 10.105248,
          "velocity": 0.3937007874015748
        },
        {
          "duration": 0.31578899999999877,
          "durationTicks": 192,
          "midi": 61,
          "name": "C#4",
          "ticks": 6336,
          "time": 10.421037,
          "velocity": 0.3937007874015748
        },
        {
          "duration": 0.15789450000000116,
          "durationTicks": 96,
          "midi": 56,
          "name": "G#3",
          "ticks": 6528,
          "time": 10.736825999999999,
          "velocity": 0.3937007874015748
        },
        {
          "duration": 0.31578900000000054,
          "durationTicks": 192,
          "midi": 55,
          "name": "G3",
          "ticks": 6816,
          "time": 11.210509499999999,
          "velocity": 0.3937007874015748
        },
        {
          "duration": 0.31578900000000054,
          "durationTicks": 192,
          "midi": 54,
          "name": "F#3",
          "ticks": 7104,
          "time": 11.684192999999999,
          "velocity": 0.3937007874015748
        },
        {
          "duration": 0.15789449999999938,
          "durationTicks": 96,
          "midi": 52,
          "name": "E3",
          "ticks": 7296,
          "time": 11.999982,
          "velocity": 0.3937007874015748
        },
        {
          "duration": 0.15789450000000116,
          "durationTicks": 96,
          "midi": 49,
          "name": "C#3",
          "ticks": 7392,
          "time": 12.157876499999999,
          "velocity": 0.3937007874015748
        },
        {
          "duration": 0.15789449999999938,
          "durationTicks": 96,
          "midi": 52,
          "name": "E3",
          "ticks": 7488,
          "time": 12.315771,
          "velocity": 0.3937007874015748
        },
        {
          "duration": 0.15789450000000116,
          "durationTicks": 96,
          "midi": 54,
          "name": "F#3",
          "ticks": 7584,
          "time": 12.4736655,
          "velocity": 0.3937007874015748
        },
        {
          "duration": 0.31578899999999877,
          "durationTicks": 192,
          "midi": 47,
          "name": "B2",
          "ticks": 7680,
          "time": 12.63156,
          "velocity": 0.3937007874015748
        },
        {
          "duration": 0.31578900000000054,
          "durationTicks": 192,
          "midi": 61,
          "name": "C#4",
          "ticks": 7872,
          "time": 12.947348999999999,
          "velocity": 0.3937007874015748
        },
        {
          "duration": 0.31578900000000054,
          "durationTicks": 192,
          "midi": 56,
          "name": "G#3",
          "ticks": 8064,
          "time": 13.263138,
          "velocity": 0.3937007874015748
        },
        {
          "duration": 0.31578899999999877,
          "durationTicks": 192,
          "midi": 54,
          "name": "F#3",
          "ticks": 8256,
          "time": 13.578927,
          "velocity": 0.3937007874015748
        },
        {
          "duration": 0.31578900000000054,
          "durationTicks": 192,
          "midi": 52,
          "name": "E3",
          "ticks": 8448,
          "time": 13.894715999999999,
          "velocity": 0.3937007874015748
        },
        {
          "duration": 0.15789449999999938,
          "durationTicks": 96,
          "midi": 51,
          "name": "D#3",
          "ticks": 8640,
          "time": 14.210505,
          "velocity": 0.3937007874015748
        },
        {
          "duration": 0.15789450000000116,
          "durationTicks": 96,
          "midi": 52,
          "name": "E3",
          "ticks": 8736,
          "time": 14.368399499999999,
          "velocity": 0.3937007874015748
        },
        {
          "duration": 0.15789449999999938,
          "durationTicks": 96,
          "midi": 51,
          "name": "D#3",
          "ticks": 8832,
          "time": 14.526294,
          "velocity": 0.3937007874015748
        },
        {
          "duration": 0.15789449999999938,
          "durationTicks": 96,
          "midi": 49,
          "name": "C#3",
          "ticks": 8928,
          "time": 14.6841885,
          "velocity": 0.3937007874015748
        },
        {
          "duration": 0.15789450000000116,
          "durationTicks": 96,
          "midi": 47,
          "name": "B2",
          "ticks": 9024,
          "time": 14.842082999999999,
          "velocity": 0.3937007874015748
        },
        {
          "duration": 0.15789449999999938,
          "durationTicks": 96,
          "midi": 44,
          "name": "G#2",
          "ticks": 9120,
          "time": 14.9999775,
          "velocity": 0.3937007874015748
        },
        {
          "duration": 0.15789449999999938,
          "durationTicks": 96,
          "midi": 45,
          "name": "A2",
          "ticks": 9216,
          "time": 15.157872,
          "velocity": 0.3937007874015748
        },
        {
          "duration": 0.15789450000000116,
          "durationTicks": 96,
          "midi": 45,
          "name": "A2",
          "ticks": 9312,
          "time": 15.315766499999999,
          "velocity": 0.3937007874015748
        },
        {
          "duration": 0.31578899999999877,
          "durationTicks": 192,
          "midi": 61,
          "name": "C#4",
          "ticks": 9408,
          "time": 15.473661,
          "velocity": 0.3937007874015748
        },
        {
          "duration": 0.3157890000000023,
          "durationTicks": 192,
          "midi": 56,
          "name": "G#3",
          "ticks": 9600,
          "time": 15.789449999999999,
          "velocity": 0.3937007874015748
        },
        {
          "duration": 0.1578944999999976,
          "durationTicks": 96,
          "midi": 61,
          "name": "C#4",
          "ticks": 9792,
          "time": 16.105239,
          "velocity": 0.3937007874015748
        },
        {
          "duration": 0.15789450000000116,
          "durationTicks": 96,
          "midi": 57,
          "name": "A3",
          "ticks": 9888,
          "time": 16.2631335,
          "velocity": 0.3937007874015748
        },
        {
          "duration": 0.15789450000000116,
          "durationTicks": 96,
          "midi": 61,
          "name": "C#4",
          "ticks": 9984,
          "time": 16.421028,
          "velocity": 0.3937007874015748
        },
        {
          "duration": 0.1578944999999976,
          "durationTicks": 96,
          "midi": 59,
          "name": "B3",
          "ticks": 10080,
          "time": 16.5789225,
          "velocity": 0.3937007874015748
        },
        {
          "duration": 0.3157890000000023,
          "durationTicks": 192,
          "midi": 56,
          "name": "G#3",
          "ticks": 10176,
          "time": 16.736817,
          "velocity": 0.3937007874015748
        },
        {
          "duration": 0.31578899999999877,
          "durationTicks": 192,
          "midi": 54,
          "name": "F#3",
          "ticks": 10368,
          "time": 17.052606,
          "velocity": 0.3937007874015748
        },
        {
          "duration": 0.15789450000000116,
          "durationTicks": 96,
          "midi": 56,
          "name": "G#3",
          "ticks": 10560,
          "time": 17.368395,
          "velocity": 0.3937007874015748
        },
        {
          "duration": 0.1578944999999976,
          "durationTicks": 96,
          "midi": 52,
          "name": "E3",
          "ticks": 10656,
          "time": 17.5262895,
          "velocity": 0.3937007874015748
        },
        {
          "duration": 0.3157890000000023,
          "durationTicks": 192,
          "midi": 44,
          "name": "G#2",
          "ticks": 10752,
          "time": 17.684184,
          "velocity": 0.3937007874015748
        },
        {
          "duration": 0.31578899999999877,
          "durationTicks": 192,
          "midi": 61,
          "name": "C#4",
          "ticks": 10944,
          "time": 17.999973,
          "velocity": 0.3937007874015748
        },
        {
          "duration": 0.31578899999999877,
          "durationTicks": 192,
          "midi": 44,
          "name": "G#2",
          "ticks": 11136,
          "time": 18.315762,
          "velocity": 0.3937007874015748
        },
        {
          "duration": 0.3157890000000023,
          "durationTicks": 192,
          "midi": 61,
          "name": "C#4",
          "ticks": 11328,
          "time": 18.631550999999998,
          "velocity": 0.3937007874015748
        },
        {
          "duration": 0.31578899999999877,
          "durationTicks": 192,
          "midi": 43,
          "name": "G2",
          "ticks": 11520,
          "time": 18.94734,
          "velocity": 0.3937007874015748
        },
        {
          "duration": 0.31578899999999877,
          "durationTicks": 192,
          "midi": 61,
          "name": "C#4",
          "ticks": 11712,
          "time": 19.263129,
          "velocity": 0.3937007874015748
        },
        {
          "duration": 0.3157890000000023,
          "durationTicks": 192,
          "midi": 45,
          "name": "A2",
          "ticks": 11904,
          "time": 19.578917999999998,
          "velocity": 0.3937007874015748
        },
        {
          "duration": 0.31578899999999877,
          "durationTicks": 192,
          "midi": 63,
          "name": "D#4",
          "ticks": 12096,
          "time": 19.894707,
          "velocity": 0.3937007874015748
        },
        {
          "duration": 0.31578899999999877,
          "durationTicks": 192,
          "midi": 49,
          "name": "C#3",
          "ticks": 12288,
          "time": 20.210496,
          "velocity": 0.3937007874015748
        },
        {
          "duration": 0.3157890000000023,
          "durationTicks": 192,
          "midi": 61,
          "name": "C#4",
          "ticks": 12480,
          "time": 20.526284999999998,
          "velocity": 0.3937007874015748
        },
        {
          "duration": 0.1578944999999976,
          "durationTicks": 96,
          "midi": 56,
          "name": "G#3",
          "ticks": 12672,
          "time": 20.842074,
          "velocity": 0.3937007874015748
        },
        {
          "duration": 0.31578899999999877,
          "durationTicks": 192,
          "midi": 55,
          "name": "G3",
          "ticks": 12960,
          "time": 21.3157575,
          "velocity": 0.3937007874015748
        },
        {
          "duration": 0.31578899999999877,
          "durationTicks": 192,
          "midi": 54,
          "name": "F#3",
          "ticks": 13248,
          "time": 21.789441,
          "velocity": 0.3937007874015748
        },
        {
          "duration": 0.15789450000000116,
          "durationTicks": 96,
          "midi": 52,
          "name": "E3",
          "ticks": 13440,
          "time": 22.10523,
          "velocity": 0.3937007874015748
        },
        {
          "duration": 0.1578944999999976,
          "durationTicks": 96,
          "midi": 49,
          "name": "C#3",
          "ticks": 13536,
          "time": 22.2631245,
          "velocity": 0.3937007874015748
        },
        {
          "duration": 0.15789450000000116,
          "durationTicks": 96,
          "midi": 52,
          "name": "E3",
          "ticks": 13632,
          "time": 22.421018999999998,
          "velocity": 0.3937007874015748
        },
        {
          "duration": 0.15789450000000116,
          "durationTicks": 96,
          "midi": 54,
          "name": "F#3",
          "ticks": 13728,
          "time": 22.5789135,
          "velocity": 0.3937007874015748
        },
        {
          "duration": 0.31578899999999877,
          "durationTicks": 192,
          "midi": 47,
          "name": "B2",
          "ticks": 13824,
          "time": 22.736808,
          "velocity": 0.3937007874015748
        },
        {
          "duration": 0.31578899999999877,
          "durationTicks": 192,
          "midi": 61,
          "name": "C#4",
          "ticks": 14016,
          "time": 23.052597,
          "velocity": 0.3937007874015748
        },
        {
          "duration": 0.3157890000000023,
          "durationTicks": 192,
          "midi": 56,
          "name": "G#3",
          "ticks": 14208,
          "time": 23.368385999999997,
          "velocity": 0.3937007874015748
        },
        {
          "duration": 0.31578899999999877,
          "durationTicks": 192,
          "midi": 54,
          "name": "F#3",
          "ticks": 14400,
          "time": 23.684175,
          "velocity": 0.3937007874015748
        },
        {
          "duration": 0.31578899999999877,
          "durationTicks": 192,
          "midi": 52,
          "name": "E3",
          "ticks": 14592,
          "time": 23.999964,
          "velocity": 0.3937007874015748
        },
        {
          "duration": 0.15789450000000116,
          "durationTicks": 96,
          "midi": 51,
          "name": "D#3",
          "ticks": 14784,
          "time": 24.315752999999997,
          "velocity": 0.3937007874015748
        },
        {
          "duration": 0.15789450000000116,
          "durationTicks": 96,
          "midi": 52,
          "name": "E3",
          "ticks": 14880,
          "time": 24.4736475,
          "velocity": 0.3937007874015748
        },
        {
          "duration": 0.1578944999999976,
          "durationTicks": 96,
          "midi": 51,
          "name": "D#3",
          "ticks": 14976,
          "time": 24.631542,
          "velocity": 0.3937007874015748
        },
        {
          "duration": 0.15789450000000116,
          "durationTicks": 96,
          "midi": 49,
          "name": "C#3",
          "ticks": 15072,
          "time": 24.789436499999997,
          "velocity": 0.3937007874015748
        },
        {
          "duration": 0.15789450000000116,
          "durationTicks": 96,
          "midi": 47,
          "name": "B2",
          "ticks": 15168,
          "time": 24.947331,
          "velocity": 0.3937007874015748
        },
        {
          "duration": 0.15789450000000116,
          "durationTicks": 96,
          "midi": 44,
          "name": "G#2",
          "ticks": 15264,
          "time": 25.1052255,
          "velocity": 0.3937007874015748
        },
        {
          "duration": 0.1578944999999976,
          "durationTicks": 96,
          "midi": 45,
          "name": "A2",
          "ticks": 15360,
          "time": 25.26312,
          "velocity": 0.3937007874015748
        },
        {
          "duration": 0.15789450000000116,
          "durationTicks": 96,
          "midi": 45,
          "name": "A2",
          "ticks": 15456,
          "time": 25.4210145,
          "velocity": 0.3937007874015748
        },
        {
          "duration": 0.31578899999999877,
          "durationTicks": 192,
          "midi": 61,
          "name": "C#4",
          "ticks": 15552,
          "time": 25.578909,
          "velocity": 0.3937007874015748
        },
        {
          "duration": 0.3157890000000023,
          "durationTicks": 192,
          "midi": 56,
          "name": "G#3",
          "ticks": 15744,
          "time": 25.894697999999998,
          "velocity": 0.3937007874015748
        },
        {
          "duration": 0.1578944999999976,
          "durationTicks": 96,
          "midi": 61,
          "name": "C#4",
          "ticks": 15936,
          "time": 26.210487,
          "velocity": 0.3937007874015748
        },
        {
          "duration": 0.15789450000000116,
          "durationTicks": 96,
          "midi": 57,
          "name": "A3",
          "ticks": 16032,
          "time": 26.368381499999998,
          "velocity": 0.3937007874015748
        },
        {
          "duration": 0.15789450000000116,
          "durationTicks": 96,
          "midi": 61,
          "name": "C#4",
          "ticks": 16128,
          "time": 26.526276,
          "velocity": 0.3937007874015748
        },
        {
          "duration": 0.1578944999999976,
          "durationTicks": 96,
          "midi": 59,
          "name": "B3",
          "ticks": 16224,
          "time": 26.6841705,
          "velocity": 0.3937007874015748
        },
        {
          "duration": 0.3157890000000023,
          "durationTicks": 192,
          "midi": 56,
          "name": "G#3",
          "ticks": 16320,
          "time": 26.842064999999998,
          "velocity": 0.3937007874015748
        },
        {
          "duration": 0.31578899999999877,
          "durationTicks": 192,
          "midi": 54,
          "name": "F#3",
          "ticks": 16512,
          "time": 27.157854,
          "velocity": 0.3937007874015748
        },
        {
          "duration": 0.15789450000000116,
          "durationTicks": 96,
          "midi": 56,
          "name": "G#3",
          "ticks": 16704,
          "time": 27.473643,
          "velocity": 0.3937007874015748
        },
        {
          "duration": 0.1578944999999976,
          "durationTicks": 96,
          "midi": 52,
          "name": "E3",
          "ticks": 16800,
          "time": 27.6315375,
          "velocity": 0.3937007874015748
        },
        {
          "duration": 0.3157890000000023,
          "durationTicks": 192,
          "midi": 44,
          "name": "G#2",
          "ticks": 16896,
          "time": 27.789431999999998,
          "velocity": 0.3937007874015748
        },
        {
          "duration": 0.31578899999999877,
          "durationTicks": 192,
          "midi": 61,
          "name": "C#4",
          "ticks": 17088,
          "time": 28.105221,
          "velocity": 0.3937007874015748
        },
        {
          "duration": 0.31578899999999877,
          "durationTicks": 192,
          "midi": 44,
          "name": "G#2",
          "ticks": 17280,
          "time": 28.42101,
          "velocity": 0.3937007874015748
        },
        {
          "duration": 0.3157890000000023,
          "durationTicks": 192,
          "midi": 61,
          "name": "C#4",
          "ticks": 17472,
          "time": 28.736798999999998,
          "velocity": 0.3937007874015748
        },
        {
          "duration": 0.31578899999999877,
          "durationTicks": 192,
          "midi": 43,
          "name": "G2",
          "ticks": 17664,
          "time": 29.052588,
          "velocity": 0.3937007874015748
        },
        {
          "duration": 0.31578899999999877,
          "durationTicks": 192,
          "midi": 61,
          "name": "C#4",
          "ticks": 17856,
          "time": 29.368377,
          "velocity": 0.3937007874015748
        },
        {
          "duration": 0.3157890000000023,
          "durationTicks": 192,
          "midi": 45,
          "name": "A2",
          "ticks": 18048,
          "time": 29.684165999999998,
          "velocity": 0.3937007874015748
        },
        {
          "duration": 0.31578899999999877,
          "durationTicks": 192,
          "midi": 63,
          "name": "D#4",
          "ticks": 18240,
          "time": 29.999955,
          "velocity": 0.3937007874015748
        },
        {
          "duration": 0.31578899999999877,
          "durationTicks": 192,
          "midi": 49,
          "name": "C#3",
          "ticks": 18432,
          "time": 30.315744,
          "velocity": 0.3937007874015748
        },
        {
          "duration": 0.3157890000000023,
          "durationTicks": 192,
          "midi": 61,
          "name": "C#4",
          "ticks": 18624,
          "time": 30.631532999999997,
          "velocity": 0.3937007874015748
        },
        {
          "duration": 0.1578944999999976,
          "durationTicks": 96,
          "midi": 56,
          "name": "G#3",
          "ticks": 18816,
          "time": 30.947322,
          "velocity": 0.3937007874015748
        },
        {
          "duration": 0.31578899999999877,
          "durationTicks": 192,
          "midi": 55,
          "name": "G3",
          "ticks": 19104,
          "time": 31.4210055,
          "velocity": 0.3937007874015748
        },
        {
          "duration": 0.3157890000000023,
          "durationTicks": 192,
          "midi": 54,
          "name": "F#3",
          "ticks": 19392,
          "time": 31.894689,
          "velocity": 0.3937007874015748
        },
        {
          "duration": 0.1578944999999976,
          "durationTicks": 96,
          "midi": 52,
          "name": "E3",
          "ticks": 19584,
          "time": 32.210478,
          "velocity": 0.3937007874015748
        },
        {
          "duration": 0.1578944999999976,
          "durationTicks": 96,
          "midi": 49,
          "name": "C#3",
          "ticks": 19680,
          "time": 32.3683725,
          "velocity": 0.3937007874015748
        },
        {
          "duration": 0.1578945000000047,
          "durationTicks": 96,
          "midi": 52,
          "name": "E3",
          "ticks": 19776,
          "time": 32.526267,
          "velocity": 0.3937007874015748
        },
        {
          "duration": 0.1578944999999976,
          "durationTicks": 96,
          "midi": 54,
          "name": "F#3",
          "ticks": 19872,
          "time": 32.6841615,
          "velocity": 0.3937007874015748
        },
        {
          "duration": 0.3157890000000023,
          "durationTicks": 192,
          "midi": 47,
          "name": "B2",
          "ticks": 19968,
          "time": 32.842056,
          "velocity": 0.3937007874015748
        },
        {
          "duration": 0.3157889999999952,
          "durationTicks": 192,
          "midi": 61,
          "name": "C#4",
          "ticks": 20160,
          "time": 33.157845,
          "velocity": 0.3937007874015748
        },
        {
          "duration": 0.3157890000000023,
          "durationTicks": 192,
          "midi": 56,
          "name": "G#3",
          "ticks": 20352,
          "time": 33.473634,
          "velocity": 0.3937007874015748
        },
        {
          "duration": 0.3157890000000023,
          "durationTicks": 192,
          "midi": 54,
          "name": "F#3",
          "ticks": 20544,
          "time": 33.789423,
          "velocity": 0.3937007874015748
        },
        {
          "duration": 0.3157889999999952,
          "durationTicks": 192,
          "midi": 52,
          "name": "E3",
          "ticks": 20736,
          "time": 34.105212,
          "velocity": 0.3937007874015748
        },
        {
          "duration": 0.1578945000000047,
          "durationTicks": 96,
          "midi": 51,
          "name": "D#3",
          "ticks": 20928,
          "time": 34.421001,
          "velocity": 0.3937007874015748
        },
        {
          "duration": 0.1578944999999976,
          "durationTicks": 96,
          "midi": 52,
          "name": "E3",
          "ticks": 21024,
          "time": 34.5788955,
          "velocity": 0.3937007874015748
        },
        {
          "duration": 0.1578944999999976,
          "durationTicks": 96,
          "midi": 51,
          "name": "D#3",
          "ticks": 21120,
          "time": 34.73679,
          "velocity": 0.3937007874015748
        },
        {
          "duration": 0.1578945000000047,
          "durationTicks": 96,
          "midi": 49,
          "name": "C#3",
          "ticks": 21216,
          "time": 34.8946845,
          "velocity": 0.3937007874015748
        },
        {
          "duration": 0.1578944999999976,
          "durationTicks": 96,
          "midi": 47,
          "name": "B2",
          "ticks": 21312,
          "time": 35.052579,
          "velocity": 0.3937007874015748
        },
        {
          "duration": 0.1578944999999976,
          "durationTicks": 96,
          "midi": 44,
          "name": "G#2",
          "ticks": 21408,
          "time": 35.2104735,
          "velocity": 0.3937007874015748
        },
        {
          "duration": 0.1578945000000047,
          "durationTicks": 96,
          "midi": 45,
          "name": "A2",
          "ticks": 21504,
          "time": 35.368368,
          "velocity": 0.3937007874015748
        },
        {
          "duration": 0.1578944999999976,
          "durationTicks": 96,
          "midi": 45,
          "name": "A2",
          "ticks": 21600,
          "time": 35.5262625,
          "velocity": 0.3937007874015748
        },
        {
          "duration": 0.3157890000000023,
          "durationTicks": 192,
          "midi": 61,
          "name": "C#4",
          "ticks": 21696,
          "time": 35.684157,
          "velocity": 0.3937007874015748
        },
        {
          "duration": 0.3157889999999952,
          "durationTicks": 192,
          "midi": 56,
          "name": "G#3",
          "ticks": 21888,
          "time": 35.999946,
          "velocity": 0.3937007874015748
        },
        {
          "duration": 0.1578945000000047,
          "durationTicks": 96,
          "midi": 61,
          "name": "C#4",
          "ticks": 22080,
          "time": 36.315735,
          "velocity": 0.3937007874015748
        },
        {
          "duration": 0.1578944999999976,
          "durationTicks": 96,
          "midi": 57,
          "name": "A3",
          "ticks": 22176,
          "time": 36.4736295,
          "velocity": 0.3937007874015748
        },
        {
          "duration": 0.1578944999999976,
          "durationTicks": 96,
          "midi": 61,
          "name": "C#4",
          "ticks": 22272,
          "time": 36.631524,
          "velocity": 0.3937007874015748
        },
        {
          "duration": 0.1578945000000047,
          "durationTicks": 96,
          "midi": 59,
          "name": "B3",
          "ticks": 22368,
          "time": 36.7894185,
          "velocity": 0.3937007874015748
        },
        {
          "duration": 0.3157889999999952,
          "durationTicks": 192,
          "midi": 56,
          "name": "G#3",
          "ticks": 22464,
          "time": 36.947313,
          "velocity": 0.3937007874015748
        },
        {
          "duration": 0.3157890000000023,
          "durationTicks": 192,
          "midi": 54,
          "name": "F#3",
          "ticks": 22656,
          "time": 37.263101999999996,
          "velocity": 0.3937007874015748
        },
        {
          "duration": 0.1578944999999976,
          "durationTicks": 96,
          "midi": 56,
          "name": "G#3",
          "ticks": 22848,
          "time": 37.578891,
          "velocity": 0.3937007874015748
        },
        {
          "duration": 0.1578945000000047,
          "durationTicks": 96,
          "midi": 52,
          "name": "E3",
          "ticks": 22944,
          "time": 37.736785499999996,
          "velocity": 0.3937007874015748
        },
        {
          "duration": 0.3157889999999952,
          "durationTicks": 192,
          "midi": 44,
          "name": "G#2",
          "ticks": 23040,
          "time": 37.89468,
          "velocity": 0.3937007874015748
        },
        {
          "duration": 0.3157890000000023,
          "durationTicks": 192,
          "midi": 61,
          "name": "C#4",
          "ticks": 23232,
          "time": 38.210468999999996,
          "velocity": 0.3937007874015748
        },
        {
          "duration": 0.3157890000000023,
          "durationTicks": 192,
          "midi": 44,
          "name": "G#2",
          "ticks": 23424,
          "time": 38.526258,
          "velocity": 0.3937007874015748
        },
        {
          "duration": 0.3157889999999952,
          "durationTicks": 192,
          "midi": 61,
          "name": "C#4",
          "ticks": 23616,
          "time": 38.842047,
          "velocity": 0.3937007874015748
        },
        {
          "duration": 0.3157890000000023,
          "durationTicks": 192,
          "midi": 43,
          "name": "G2",
          "ticks": 23808,
          "time": 39.157835999999996,
          "velocity": 0.3937007874015748
        },
        {
          "duration": 0.3157890000000023,
          "durationTicks": 192,
          "midi": 61,
          "name": "C#4",
          "ticks": 24000,
          "time": 39.473625,
          "velocity": 0.3937007874015748
        },
        {
          "duration": 0.3157889999999952,
          "durationTicks": 192,
          "midi": 45,
          "name": "A2",
          "ticks": 24192,
          "time": 39.789414,
          "velocity": 0.3937007874015748
        },
        {
          "duration": 0.3157890000000023,
          "durationTicks": 192,
          "midi": 63,
          "name": "D#4",
          "ticks": 24384,
          "time": 40.105202999999996,
          "velocity": 0.3937007874015748
        },
        {
          "duration": 0.3157890000000023,
          "durationTicks": 192,
          "midi": 49,
          "name": "C#3",
          "ticks": 24576,
          "time": 40.420992,
          "velocity": 0.3937007874015748
        },
        {
          "duration": 0.3157889999999952,
          "durationTicks": 192,
          "midi": 61,
          "name": "C#4",
          "ticks": 24768,
          "time": 40.736781,
          "velocity": 0.3937007874015748
        },
        {
          "duration": 0.1578945000000047,
          "durationTicks": 96,
          "midi": 56,
          "name": "G#3",
          "ticks": 24960,
          "time": 41.052569999999996,
          "velocity": 0.3937007874015748
        },
        {
          "duration": 0.3157890000000023,
          "durationTicks": 192,
          "midi": 55,
          "name": "G3",
          "ticks": 25248,
          "time": 41.526253499999996,
          "velocity": 0.3937007874015748
        },
        {
          "duration": 0.3157890000000023,
          "durationTicks": 192,
          "midi": 54,
          "name": "F#3",
          "ticks": 25536,
          "time": 41.999936999999996,
          "velocity": 0.3937007874015748
        },
        {
          "duration": 0.1578944999999976,
          "durationTicks": 96,
          "midi": 52,
          "name": "E3",
          "ticks": 25728,
          "time": 42.315726,
          "velocity": 0.3937007874015748
        },
        {
          "duration": 0.1578945000000047,
          "durationTicks": 96,
          "midi": 49,
          "name": "C#3",
          "ticks": 25824,
          "time": 42.473620499999996,
          "velocity": 0.3937007874015748
        },
        {
          "duration": 0.1578944999999976,
          "durationTicks": 96,
          "midi": 52,
          "name": "E3",
          "ticks": 25920,
          "time": 42.631515,
          "velocity": 0.3937007874015748
        },
        {
          "duration": 0.1578944999999976,
          "durationTicks": 96,
          "midi": 54,
          "name": "F#3",
          "ticks": 26016,
          "time": 42.7894095,
          "velocity": 0.3937007874015748
        },
        {
          "duration": 0.3157890000000023,
          "durationTicks": 192,
          "midi": 47,
          "name": "B2",
          "ticks": 26112,
          "time": 42.947303999999995,
          "velocity": 0.3937007874015748
        },
        {
          "duration": 0.3157890000000023,
          "durationTicks": 192,
          "midi": 61,
          "name": "C#4",
          "ticks": 26304,
          "time": 43.263093,
          "velocity": 0.3937007874015748
        },
        {
          "duration": 0.3157889999999952,
          "durationTicks": 192,
          "midi": 56,
          "name": "G#3",
          "ticks": 26496,
          "time": 43.578882,
          "velocity": 0.3937007874015748
        },
        {
          "duration": 0.3157890000000023,
          "durationTicks": 192,
          "midi": 54,
          "name": "F#3",
          "ticks": 26688,
          "time": 43.894670999999995,
          "velocity": 0.3937007874015748
        },
        {
          "duration": 0.3157890000000023,
          "durationTicks": 192,
          "midi": 52,
          "name": "E3",
          "ticks": 26880,
          "time": 44.21046,
          "velocity": 0.3937007874015748
        },
        {
          "duration": 0.1578944999999976,
          "durationTicks": 96,
          "midi": 51,
          "name": "D#3",
          "ticks": 27072,
          "time": 44.526249,
          "velocity": 0.3937007874015748
        },
        {
          "duration": 0.1578944999999976,
          "durationTicks": 96,
          "midi": 52,
          "name": "E3",
          "ticks": 27168,
          "time": 44.6841435,
          "velocity": 0.3937007874015748
        },
        {
          "duration": 0.1578945000000047,
          "durationTicks": 96,
          "midi": 51,
          "name": "D#3",
          "ticks": 27264,
          "time": 44.842037999999995,
          "velocity": 0.3937007874015748
        },
        {
          "duration": 0.1578944999999976,
          "durationTicks": 96,
          "midi": 49,
          "name": "C#3",
          "ticks": 27360,
          "time": 44.9999325,
          "velocity": 0.3937007874015748
        },
        {
          "duration": 0.1578944999999976,
          "durationTicks": 96,
          "midi": 47,
          "name": "B2",
          "ticks": 27456,
          "time": 45.157827,
          "velocity": 0.3937007874015748
        },
        {
          "duration": 0.1578945000000047,
          "durationTicks": 96,
          "midi": 44,
          "name": "G#2",
          "ticks": 27552,
          "time": 45.315721499999995,
          "velocity": 0.3937007874015748
        },
        {
          "duration": 0.1578944999999976,
          "durationTicks": 96,
          "midi": 45,
          "name": "A2",
          "ticks": 27648,
          "time": 45.473616,
          "velocity": 0.3937007874015748
        },
        {
          "duration": 0.1578944999999976,
          "durationTicks": 96,
          "midi": 45,
          "name": "A2",
          "ticks": 27744,
          "time": 45.6315105,
          "velocity": 0.3937007874015748
        },
        {
          "duration": 0.3157890000000023,
          "durationTicks": 192,
          "midi": 61,
          "name": "C#4",
          "ticks": 27840,
          "time": 45.789404999999995,
          "velocity": 0.3937007874015748
        },
        {
          "duration": 0.3157890000000023,
          "durationTicks": 192,
          "midi": 56,
          "name": "G#3",
          "ticks": 28032,
          "time": 46.105194,
          "velocity": 0.3937007874015748
        },
        {
          "duration": 0.1578944999999976,
          "durationTicks": 96,
          "midi": 61,
          "name": "C#4",
          "ticks": 28224,
          "time": 46.420983,
          "velocity": 0.3937007874015748
        },
        {
          "duration": 0.1578944999999976,
          "durationTicks": 96,
          "midi": 57,
          "name": "A3",
          "ticks": 28320,
          "time": 46.5788775,
          "velocity": 0.3937007874015748
        },
        {
          "duration": 0.1578945000000047,
          "durationTicks": 96,
          "midi": 61,
          "name": "C#4",
          "ticks": 28416,
          "time": 46.736771999999995,
          "velocity": 0.3937007874015748
        },
        {
          "duration": 0.1578944999999976,
          "durationTicks": 96,
          "midi": 59,
          "name": "B3",
          "ticks": 28512,
          "time": 46.8946665,
          "velocity": 0.3937007874015748
        },
        {
          "duration": 0.3157890000000023,
          "durationTicks": 192,
          "midi": 56,
          "name": "G#3",
          "ticks": 28608,
          "time": 47.052561,
          "velocity": 0.3937007874015748
        },
        {
          "duration": 0.3157889999999952,
          "durationTicks": 192,
          "midi": 54,
          "name": "F#3",
          "ticks": 28800,
          "time": 47.36835,
          "velocity": 0.3937007874015748
        },
        {
          "duration": 0.1578945000000047,
          "durationTicks": 96,
          "midi": 56,
          "name": "G#3",
          "ticks": 28992,
          "time": 47.684138999999995,
          "velocity": 0.3937007874015748
        },
        {
          "duration": 0.1578944999999976,
          "durationTicks": 96,
          "midi": 52,
          "name": "E3",
          "ticks": 29088,
          "time": 47.8420335,
          "velocity": 0.3937007874015748
        },
        {
          "duration": 0.3157890000000023,
          "durationTicks": 192,
          "midi": 44,
          "name": "G#2",
          "ticks": 29184,
          "time": 47.999928,
          "velocity": 0.3937007874015748
        },
        {
          "duration": 0.3157889999999952,
          "durationTicks": 192,
          "midi": 61,
          "name": "C#4",
          "ticks": 29376,
          "time": 48.315717,
          "velocity": 0.3937007874015748
        },
        {
          "duration": 0.3157890000000023,
          "durationTicks": 192,
          "midi": 44,
          "name": "G#2",
          "ticks": 29568,
          "time": 48.631505999999995,
          "velocity": 0.3937007874015748
        },
        {
          "duration": 0.3157890000000023,
          "durationTicks": 192,
          "midi": 61,
          "name": "C#4",
          "ticks": 29760,
          "time": 48.947295,
          "velocity": 0.3937007874015748
        },
        {
          "duration": 0.3157889999999952,
          "durationTicks": 192,
          "midi": 43,
          "name": "G2",
          "ticks": 29952,
          "time": 49.263084,
          "velocity": 0.3937007874015748
        },
        {
          "duration": 0.3157890000000023,
          "durationTicks": 192,
          "midi": 61,
          "name": "C#4",
          "ticks": 30144,
          "time": 49.578872999999994,
          "velocity": 0.3937007874015748
        },
        {
          "duration": 0.3157890000000023,
          "durationTicks": 192,
          "midi": 45,
          "name": "A2",
          "ticks": 30336,
          "time": 49.894662,
          "velocity": 0.3937007874015748
        },
        {
          "duration": 0.3157890000000023,
          "durationTicks": 192,
          "midi": 63,
          "name": "D#4",
          "ticks": 30528,
          "time": 50.210451,
          "velocity": 0.3937007874015748
        },
        {
          "duration": 0.3157889999999952,
          "durationTicks": 192,
          "midi": 61,
          "name": "C#4",
          "ticks": 30720,
          "time": 50.52624,
          "velocity": 0.3937007874015748
        },
        {
          "duration": 0.3157890000000023,
          "durationTicks": 192,
          "midi": 73,
          "name": "C#5",
          "ticks": 30912,
          "time": 50.842029,
          "velocity": 0.3937007874015748
        },
        {
          "duration": 0.1578944999999976,
          "durationTicks": 96,
          "midi": 68,
          "name": "G#4",
          "ticks": 31104,
          "time": 51.157818,
          "velocity": 0.3937007874015748
        },
        {
          "duration": 0.3157890000000023,
          "durationTicks": 192,
          "midi": 67,
          "name": "G4",
          "ticks": 31392,
          "time": 51.6315015,
          "velocity": 0.3937007874015748
        },
        {
          "duration": 0.3157890000000023,
          "durationTicks": 192,
          "midi": 66,
          "name": "F#4",
          "ticks": 31680,
          "time": 52.105185,
          "velocity": 0.3937007874015748
        },
        {
          "duration": 0.1578944999999976,
          "durationTicks": 96,
          "midi": 64,
          "name": "E4",
          "ticks": 31872,
          "time": 52.420974,
          "velocity": 0.3937007874015748
        },
        {
          "duration": 0.1578944999999976,
          "durationTicks": 96,
          "midi": 61,
          "name": "C#4",
          "ticks": 31968,
          "time": 52.5788685,
          "velocity": 0.3937007874015748
        },
        {
          "duration": 0.1578945000000047,
          "durationTicks": 96,
          "midi": 64,
          "name": "E4",
          "ticks": 32064,
          "time": 52.736762999999996,
          "velocity": 0.3937007874015748
        },
        {
          "duration": 0.1578944999999976,
          "durationTicks": 96,
          "midi": 66,
          "name": "F#4",
          "ticks": 32160,
          "time": 52.8946575,
          "velocity": 0.3937007874015748
        },
        {
          "duration": 0.3157890000000023,
          "durationTicks": 192,
          "midi": 59,
          "name": "B3",
          "ticks": 32256,
          "time": 53.052552,
          "velocity": 0.3937007874015748
        },
        {
          "duration": 0.3157889999999952,
          "durationTicks": 192,
          "midi": 73,
          "name": "C#5",
          "ticks": 32448,
          "time": 53.368341,
          "velocity": 0.3937007874015748
        },
        {
          "duration": 0.3157890000000023,
          "durationTicks": 192,
          "midi": 68,
          "name": "G#4",
          "ticks": 32640,
          "time": 53.684129999999996,
          "velocity": 0.3937007874015748
        },
        {
          "duration": 0.3157890000000023,
          "durationTicks": 192,
          "midi": 66,
          "name": "F#4",
          "ticks": 32832,
          "time": 53.999919,
          "velocity": 0.3937007874015748
        },
        {
          "duration": 0.3157889999999952,
          "durationTicks": 192,
          "midi": 64,
          "name": "E4",
          "ticks": 33024,
          "time": 54.315708,
          "velocity": 0.3937007874015748
        },
        {
          "duration": 0.1578945000000047,
          "durationTicks": 96,
          "midi": 63,
          "name": "D#4",
          "ticks": 33216,
          "time": 54.631496999999996,
          "velocity": 0.3937007874015748
        },
        {
          "duration": 0.1578944999999976,
          "durationTicks": 96,
          "midi": 64,
          "name": "E4",
          "ticks": 33312,
          "time": 54.7893915,
          "velocity": 0.3937007874015748
        },
        {
          "duration": 0.1578944999999976,
          "durationTicks": 96,
          "midi": 63,
          "name": "D#4",
          "ticks": 33408,
          "time": 54.947286,
          "velocity": 0.3937007874015748
        },
        {
          "duration": 0.1578945000000047,
          "durationTicks": 96,
          "midi": 61,
          "name": "C#4",
          "ticks": 33504,
          "time": 55.105180499999996,
          "velocity": 0.3937007874015748
        },
        {
          "duration": 0.1578944999999976,
          "durationTicks": 96,
          "midi": 59,
          "name": "B3",
          "ticks": 33600,
          "time": 55.263075,
          "velocity": 0.3937007874015748
        },
        {
          "duration": 0.1578944999999976,
          "durationTicks": 96,
          "midi": 56,
          "name": "G#3",
          "ticks": 33696,
          "time": 55.4209695,
          "velocity": 0.3937007874015748
        },
        {
          "duration": 0.1578945000000047,
          "durationTicks": 96,
          "midi": 57,
          "name": "A3",
          "ticks": 33792,
          "time": 55.578863999999996,
          "velocity": 0.3937007874015748
        },
        {
          "duration": 0.1578944999999976,
          "durationTicks": 96,
          "midi": 57,
          "name": "A3",
          "ticks": 33888,
          "time": 55.7367585,
          "velocity": 0.3937007874015748
        },
        {
          "duration": 0.3157890000000023,
          "durationTicks": 192,
          "midi": 73,
          "name": "C#5",
          "ticks": 33984,
          "time": 55.894653,
          "velocity": 0.3937007874015748
        },
        {
          "duration": 0.3157889999999952,
          "durationTicks": 192,
          "midi": 68,
          "name": "G#4",
          "ticks": 34176,
          "time": 56.210442,
          "velocity": 0.3937007874015748
        },
        {
          "duration": 0.1578945000000047,
          "durationTicks": 96,
          "midi": 73,
          "name": "C#5",
          "ticks": 34368,
          "time": 56.526230999999996,
          "velocity": 0.3937007874015748
        },
        {
          "duration": 0.1578944999999976,
          "durationTicks": 96,
          "midi": 69,
          "name": "A4",
          "ticks": 34464,
          "time": 56.6841255,
          "velocity": 0.3937007874015748
        },
        {
          "duration": 0.1578944999999976,
          "durationTicks": 96,
          "midi": 73,
          "name": "C#5",
          "ticks": 34560,
          "time": 56.84202,
          "velocity": 0.3937007874015748
        },
        {
          "duration": 0.1578945000000047,
          "durationTicks": 96,
          "midi": 71,
          "name": "B4",
          "ticks": 34656,
          "time": 56.999914499999996,
          "velocity": 0.3937007874015748
        },
        {
          "duration": 0.3157889999999952,
          "durationTicks": 192,
          "midi": 68,
          "name": "G#4",
          "ticks": 34752,
          "time": 57.157809,
          "velocity": 0.3937007874015748
        },
        {
          "duration": 0.3157890000000023,
          "durationTicks": 192,
          "midi": 66,
          "name": "F#4",
          "ticks": 34944,
          "time": 57.473597999999996,
          "velocity": 0.3937007874015748
        },
        {
          "duration": 0.1578944999999976,
          "durationTicks": 96,
          "midi": 68,
          "name": "G#4",
          "ticks": 35136,
          "time": 57.789387,
          "velocity": 0.3937007874015748
        },
        {
          "duration": 0.1578945000000047,
          "durationTicks": 96,
          "midi": 64,
          "name": "E4",
          "ticks": 35232,
          "time": 57.947281499999995,
          "velocity": 0.3937007874015748
        },
        {
          "duration": 0.3157889999999952,
          "durationTicks": 192,
          "midi": 56,
          "name": "G#3",
          "ticks": 35328,
          "time": 58.105176,
          "velocity": 0.3937007874015748
        },
        {
          "duration": 0.3157890000000023,
          "durationTicks": 192,
          "midi": 73,
          "name": "C#5",
          "ticks": 35520,
          "time": 58.420964999999995,
          "velocity": 0.3937007874015748
        },
        {
          "duration": 0.3157890000000023,
          "durationTicks": 192,
          "midi": 56,
          "name": "G#3",
          "ticks": 35712,
          "time": 58.736754,
          "velocity": 0.3937007874015748
        },
        {
          "duration": 0.3157889999999952,
          "durationTicks": 192,
          "midi": 73,
          "name": "C#5",
          "ticks": 35904,
          "time": 59.052543,
          "velocity": 0.3937007874015748
        },
        {
          "duration": 0.3157890000000023,
          "durationTicks": 192,
          "midi": 55,
          "name": "G3",
          "ticks": 36096,
          "time": 59.368331999999995,
          "velocity": 0.3937007874015748
        },
        {
          "duration": 0.3157890000000023,
          "durationTicks": 192,
          "midi": 73,
          "name": "C#5",
          "ticks": 36288,
          "time": 59.684121,
          "velocity": 0.3937007874015748
        },
        {
          "duration": 0.3157889999999952,
          "durationTicks": 192,
          "midi": 57,
          "name": "A3",
          "ticks": 36480,
          "time": 59.99991,
          "velocity": 0.3937007874015748
        },
        {
          "duration": 0.3157890000000023,
          "durationTicks": 192,
          "midi": 75,
          "name": "D#5",
          "ticks": 36672,
          "time": 60.315698999999995,
          "velocity": 0.3937007874015748
        },
        {
          "duration": 0.3157890000000023,
          "durationTicks": 192,
          "midi": 61,
          "name": "C#4",
          "ticks": 36864,
          "time": 60.631488,
          "velocity": 0.3937007874015748
        },
        {
          "duration": 0.3157889999999952,
          "durationTicks": 192,
          "midi": 73,
          "name": "C#5",
          "ticks": 37056,
          "time": 60.947277,
          "velocity": 0.3937007874015748
        },
        {
          "duration": 0.1578945000000047,
          "durationTicks": 96,
          "midi": 68,
          "name": "G#4",
          "ticks": 37248,
          "time": 61.263065999999995,
          "velocity": 0.3937007874015748
        },
        {
          "duration": 0.3157890000000023,
          "durationTicks": 192,
          "midi": 67,
          "name": "G4",
          "ticks": 37536,
          "time": 61.736749499999995,
          "velocity": 0.3937007874015748
        },
        {
          "duration": 0.3157890000000023,
          "durationTicks": 192,
          "midi": 66,
          "name": "F#4",
          "ticks": 37824,
          "time": 62.210432999999995,
          "velocity": 0.3937007874015748
        },
        {
          "duration": 0.1578944999999976,
          "durationTicks": 96,
          "midi": 64,
          "name": "E4",
          "ticks": 38016,
          "time": 62.526222,
          "velocity": 0.3937007874015748
        },
        {
          "duration": 0.1578945000000047,
          "durationTicks": 96,
          "midi": 61,
          "name": "C#4",
          "ticks": 38112,
          "time": 62.684116499999995,
          "velocity": 0.3937007874015748
        },
        {
          "duration": 0.1578944999999976,
          "durationTicks": 96,
          "midi": 64,
          "name": "E4",
          "ticks": 38208,
          "time": 62.842011,
          "velocity": 0.3937007874015748
        },
        {
          "duration": 0.1578944999999976,
          "durationTicks": 96,
          "midi": 66,
          "name": "F#4",
          "ticks": 38304,
          "time": 62.9999055,
          "velocity": 0.3937007874015748
        },
        {
          "duration": 0.3157890000000023,
          "durationTicks": 192,
          "midi": 59,
          "name": "B3",
          "ticks": 38400,
          "time": 63.157799999999995,
          "velocity": 0.3937007874015748
        },
        {
          "duration": 0.3157890000000023,
          "durationTicks": 192,
          "midi": 73,
          "name": "C#5",
          "ticks": 38592,
          "time": 63.473589,
          "velocity": 0.3937007874015748
        },
        {
          "duration": 0.3157889999999952,
          "durationTicks": 192,
          "midi": 68,
          "name": "G#4",
          "ticks": 38784,
          "time": 63.789378,
          "velocity": 0.3937007874015748
        },
        {
          "duration": 0.3157890000000094,
          "durationTicks": 192,
          "midi": 66,
          "name": "F#4",
          "ticks": 38976,
          "time": 64.105167,
          "velocity": 0.3937007874015748
        },
        {
          "duration": 0.3157889999999952,
          "durationTicks": 192,
          "midi": 64,
          "name": "E4",
          "ticks": 39168,
          "time": 64.420956,
          "velocity": 0.3937007874015748
        },
        {
          "duration": 0.1578944999999976,
          "durationTicks": 96,
          "midi": 63,
          "name": "D#4",
          "ticks": 39360,
          "time": 64.736745,
          "velocity": 0.3937007874015748
        },
        {
          "duration": 0.1578944999999976,
          "durationTicks": 96,
          "midi": 64,
          "name": "E4",
          "ticks": 39456,
          "time": 64.8946395,
          "velocity": 0.3937007874015748
        },
        {
          "duration": 0.1578944999999976,
          "durationTicks": 96,
          "midi": 63,
          "name": "D#4",
          "ticks": 39552,
          "time": 65.052534,
          "velocity": 0.3937007874015748
        },
        {
          "duration": 0.15789450000001182,
          "durationTicks": 96,
          "midi": 61,
          "name": "C#4",
          "ticks": 39648,
          "time": 65.21042849999999,
          "velocity": 0.3937007874015748
        },
        {
          "duration": 0.1578944999999976,
          "durationTicks": 96,
          "midi": 59,
          "name": "B3",
          "ticks": 39744,
          "time": 65.368323,
          "velocity": 0.3937007874015748
        },
        {
          "duration": 0.1578944999999976,
          "durationTicks": 96,
          "midi": 56,
          "name": "G#3",
          "ticks": 39840,
          "time": 65.5262175,
          "velocity": 0.3937007874015748
        },
        {
          "duration": 0.1578944999999976,
          "durationTicks": 96,
          "midi": 57,
          "name": "A3",
          "ticks": 39936,
          "time": 65.684112,
          "velocity": 0.3937007874015748
        },
        {
          "duration": 0.1578944999999976,
          "durationTicks": 96,
          "midi": 57,
          "name": "A3",
          "ticks": 40032,
          "time": 65.8420065,
          "velocity": 0.3937007874015748
        },
        {
          "duration": 0.3157890000000094,
          "durationTicks": 192,
          "midi": 73,
          "name": "C#5",
          "ticks": 40128,
          "time": 65.999901,
          "velocity": 0.3937007874015748
        },
        {
          "duration": 0.3157889999999952,
          "durationTicks": 192,
          "midi": 68,
          "name": "G#4",
          "ticks": 40320,
          "time": 66.31569,
          "velocity": 0.3937007874015748
        },
        {
          "duration": 0.1578944999999976,
          "durationTicks": 96,
          "midi": 73,
          "name": "C#5",
          "ticks": 40512,
          "time": 66.631479,
          "velocity": 0.3937007874015748
        },
        {
          "duration": 0.1578944999999976,
          "durationTicks": 96,
          "midi": 69,
          "name": "A4",
          "ticks": 40608,
          "time": 66.7893735,
          "velocity": 0.3937007874015748
        },
        {
          "duration": 0.1578944999999976,
          "durationTicks": 96,
          "midi": 73,
          "name": "C#5",
          "ticks": 40704,
          "time": 66.947268,
          "velocity": 0.3937007874015748
        },
        {
          "duration": 0.15789450000001182,
          "durationTicks": 96,
          "midi": 71,
          "name": "B4",
          "ticks": 40800,
          "time": 67.10516249999999,
          "velocity": 0.3937007874015748
        },
        {
          "duration": 0.3157889999999952,
          "durationTicks": 192,
          "midi": 68,
          "name": "G#4",
          "ticks": 40896,
          "time": 67.263057,
          "velocity": 0.3937007874015748
        },
        {
          "duration": 0.3157889999999952,
          "durationTicks": 192,
          "midi": 66,
          "name": "F#4",
          "ticks": 41088,
          "time": 67.578846,
          "velocity": 0.3937007874015748
        },
        {
          "duration": 0.1578944999999976,
          "durationTicks": 96,
          "midi": 68,
          "name": "G#4",
          "ticks": 41280,
          "time": 67.894635,
          "velocity": 0.3937007874015748
        },
        {
          "duration": 0.15789450000001182,
          "durationTicks": 96,
          "midi": 64,
          "name": "E4",
          "ticks": 41376,
          "time": 68.05252949999999,
          "velocity": 0.3937007874015748
        },
        {
          "duration": 0.3157889999999952,
          "durationTicks": 192,
          "midi": 56,
          "name": "G#3",
          "ticks": 41472,
          "time": 68.210424,
          "velocity": 0.3937007874015748
        },
        {
          "duration": 0.3157889999999952,
          "durationTicks": 192,
          "midi": 73,
          "name": "C#5",
          "ticks": 41664,
          "time": 68.526213,
          "velocity": 0.3937007874015748
        },
        {
          "duration": 0.3157890000000094,
          "durationTicks": 192,
          "midi": 56,
          "name": "G#3",
          "ticks": 41856,
          "time": 68.842002,
          "velocity": 0.3937007874015748
        },
        {
          "duration": 0.3157889999999952,
          "durationTicks": 192,
          "midi": 73,
          "name": "C#5",
          "ticks": 42048,
          "time": 69.157791,
          "velocity": 0.3937007874015748
        },
        {
          "duration": 0.3157889999999952,
          "durationTicks": 192,
          "midi": 55,
          "name": "G3",
          "ticks": 42240,
          "time": 69.47358,
          "velocity": 0.3937007874015748
        },
        {
          "duration": 0.3157890000000094,
          "durationTicks": 192,
          "midi": 73,
          "name": "C#5",
          "ticks": 42432,
          "time": 69.789369,
          "velocity": 0.3937007874015748
        },
        {
          "duration": 0.3157889999999952,
          "durationTicks": 192,
          "midi": 57,
          "name": "A3",
          "ticks": 42624,
          "time": 70.105158,
          "velocity": 0.3937007874015748
        },
        {
          "duration": 0.3157889999999952,
          "durationTicks": 192,
          "midi": 75,
          "name": "D#5",
          "ticks": 42816,
          "time": 70.420947,
          "velocity": 0.3937007874015748
        },
        {
          "duration": 0.3157890000000094,
          "durationTicks": 192,
          "midi": 85,
          "name": "C#6",
          "ticks": 43008,
          "time": 70.736736,
          "velocity": 0.3937007874015748
        },
        {
          "duration": 0.3157889999999952,
          "durationTicks": 192,
          "midi": 85,
          "name": "C#6",
          "ticks": 43200,
          "time": 71.052525,
          "velocity": 0.3937007874015748
        },
        {
          "duration": 0.1578944999999976,
          "durationTicks": 96,
          "midi": 92,
          "name": "G#6",
          "ticks": 43392,
          "time": 71.368314,
          "velocity": 0.3937007874015748
        },
        {
          "duration": 0.3157890000000094,
          "durationTicks": 192,
          "midi": 91,
          "name": "G6",
          "ticks": 43680,
          "time": 71.84199749999999,
          "velocity": 0.3937007874015748
        },
        {
          "duration": 0.3157889999999952,
          "durationTicks": 192,
          "midi": 90,
          "name": "F#6",
          "ticks": 43968,
          "time": 72.315681,
          "velocity": 0.3937007874015748
        },
        {
          "duration": 0.1578944999999976,
          "durationTicks": 96,
          "midi": 88,
          "name": "E6",
          "ticks": 44160,
          "time": 72.63147,
          "velocity": 0.3937007874015748
        },
        {
          "duration": 0.15789450000001182,
          "durationTicks": 96,
          "midi": 85,
          "name": "C#6",
          "ticks": 44256,
          "time": 72.78936449999999,
          "velocity": 0.3937007874015748
        },
        {
          "duration": 0.1578944999999976,
          "durationTicks": 96,
          "midi": 88,
          "name": "E6",
          "ticks": 44352,
          "time": 72.947259,
          "velocity": 0.3937007874015748
        },
        {
          "duration": 0.1578944999999976,
          "durationTicks": 96,
          "midi": 90,
          "name": "F#6",
          "ticks": 44448,
          "time": 73.1051535,
          "velocity": 0.3937007874015748
        },
        {
          "duration": 0.3157889999999952,
          "durationTicks": 192,
          "midi": 83,
          "name": "B5",
          "ticks": 44544,
          "time": 73.263048,
          "velocity": 0.3937007874015748
        },
        {
          "duration": 0.3157890000000094,
          "durationTicks": 192,
          "midi": 85,
          "name": "C#6",
          "ticks": 44736,
          "time": 73.578837,
          "velocity": 0.3937007874015748
        },
        {
          "duration": 0.3157889999999952,
          "durationTicks": 192,
          "midi": 92,
          "name": "G#6",
          "ticks": 44928,
          "time": 73.894626,
          "velocity": 0.3937007874015748
        },
        {
          "duration": 0.3157889999999952,
          "durationTicks": 192,
          "midi": 90,
          "name": "F#6",
          "ticks": 45120,
          "time": 74.210415,
          "velocity": 0.3937007874015748
        },
        {
          "duration": 0.3157890000000094,
          "durationTicks": 192,
          "midi": 88,
          "name": "E6",
          "ticks": 45312,
          "time": 74.52620399999999,
          "velocity": 0.3937007874015748
        },
        {
          "duration": 0.1578944999999976,
          "durationTicks": 96,
          "midi": 87,
          "name": "D#6",
          "ticks": 45504,
          "time": 74.841993,
          "velocity": 0.3937007874015748
        },
        {
          "duration": 0.1578944999999976,
          "durationTicks": 96,
          "midi": 88,
          "name": "E6",
          "ticks": 45600,
          "time": 74.9998875,
          "velocity": 0.3937007874015748
        },
        {
          "duration": 0.1578944999999976,
          "durationTicks": 96,
          "midi": 87,
          "name": "D#6",
          "ticks": 45696,
          "time": 75.157782,
          "velocity": 0.3937007874015748
        },
        {
          "duration": 0.1578944999999976,
          "durationTicks": 96,
          "midi": 85,
          "name": "C#6",
          "ticks": 45792,
          "time": 75.3156765,
          "velocity": 0.3937007874015748
        },
        {
          "duration": 0.1578944999999976,
          "durationTicks": 96,
          "midi": 83,
          "name": "B5",
          "ticks": 45888,
          "time": 75.47357099999999,
          "velocity": 0.3937007874015748
        },
        {
          "duration": 0.15789450000001182,
          "durationTicks": 96,
          "midi": 80,
          "name": "G#5",
          "ticks": 45984,
          "time": 75.63146549999999,
          "velocity": 0.3937007874015748
        },
        {
          "duration": 0.1578944999999976,
          "durationTicks": 96,
          "midi": 81,
          "name": "A5",
          "ticks": 46080,
          "time": 75.78936,
          "velocity": 0.3937007874015748
        },
        {
          "duration": 0.1578944999999976,
          "durationTicks": 96,
          "midi": 81,
          "name": "A5",
          "ticks": 46176,
          "time": 75.9472545,
          "velocity": 0.3937007874015748
        },
        {
          "duration": 0.3157889999999952,
          "durationTicks": 192,
          "midi": 85,
          "name": "C#6",
          "ticks": 46272,
          "time": 76.105149,
          "velocity": 0.3937007874015748
        },
        {
          "duration": 0.3157890000000094,
          "durationTicks": 192,
          "midi": 92,
          "name": "G#6",
          "ticks": 46464,
          "time": 76.42093799999999,
          "velocity": 0.3937007874015748
        },
        {
          "duration": 0.1578944999999976,
          "durationTicks": 96,
          "midi": 85,
          "name": "C#6",
          "ticks": 46656,
          "time": 76.736727,
          "velocity": 0.3937007874015748
        },
        {
          "duration": 0.1578944999999976,
          "durationTicks": 96,
          "midi": 93,
          "name": "A6",
          "ticks": 46752,
          "time": 76.8946215,
          "velocity": 0.3937007874015748
        },
        {
          "duration": 0.1578944999999976,
          "durationTicks": 96,
          "midi": 85,
          "name": "C#6",
          "ticks": 46848,
          "time": 77.052516,
          "velocity": 0.3937007874015748
        },
        {
          "duration": 0.1578944999999976,
          "durationTicks": 96,
          "midi": 95,
          "name": "B6",
          "ticks": 46944,
          "time": 77.2104105,
          "velocity": 0.3937007874015748
        },
        {
          "duration": 0.3157890000000094,
          "durationTicks": 192,
          "midi": 92,
          "name": "G#6",
          "ticks": 47040,
          "time": 77.36830499999999,
          "velocity": 0.3937007874015748
        },
        {
          "duration": 0.3157889999999952,
          "durationTicks": 192,
          "midi": 90,
          "name": "F#6",
          "ticks": 47232,
          "time": 77.684094,
          "velocity": 0.3937007874015748
        },
        {
          "duration": 0.1578944999999976,
          "durationTicks": 96,
          "midi": 92,
          "name": "G#6",
          "ticks": 47424,
          "time": 77.999883,
          "velocity": 0.3937007874015748
        },
        {
          "duration": 0.1578944999999976,
          "durationTicks": 96,
          "midi": 88,
          "name": "E6",
          "ticks": 47520,
          "time": 78.1577775,
          "velocity": 0.3937007874015748
        },
        {
          "duration": 0.3157890000000094,
          "durationTicks": 192,
          "midi": 80,
          "name": "G#5",
          "ticks": 47616,
          "time": 78.31567199999999,
          "velocity": 0.3937007874015748
        },
        {
          "duration": 0.3157889999999952,
          "durationTicks": 192,
          "midi": 85,
          "name": "C#6",
          "ticks": 47808,
          "time": 78.631461,
          "velocity": 0.3937007874015748
        },
        {
          "duration": 0.3157889999999952,
          "durationTicks": 192,
          "midi": 80,
          "name": "G#5",
          "ticks": 48000,
          "time": 78.94725,
          "velocity": 0.3937007874015748
        },
        {
          "duration": 0.3157890000000094,
          "durationTicks": 192,
          "midi": 85,
          "name": "C#6",
          "ticks": 48192,
          "time": 79.26303899999999,
          "velocity": 0.3937007874015748
        },
        {
          "duration": 0.3157889999999952,
          "durationTicks": 192,
          "midi": 79,
          "name": "G5",
          "ticks": 48384,
          "time": 79.578828,
          "velocity": 0.3937007874015748
        },
        {
          "duration": 0.3157889999999952,
          "durationTicks": 192,
          "midi": 85,
          "name": "C#6",
          "ticks": 48576,
          "time": 79.894617,
          "velocity": 0.3937007874015748
        },
        {
          "duration": 0.3157890000000094,
          "durationTicks": 192,
          "midi": 81,
          "name": "A5",
          "ticks": 48768,
          "time": 80.21040599999999,
          "velocity": 0.3937007874015748
        },
        {
          "duration": 0.3157889999999952,
          "durationTicks": 192,
          "midi": 87,
          "name": "D#6",
          "ticks": 48960,
          "time": 80.526195,
          "velocity": 0.3937007874015748
        },
        {
          "duration": 0.3157889999999952,
          "durationTicks": 192,
          "midi": 73,
          "name": "C#5",
          "ticks": 49152,
          "time": 80.841984,
          "velocity": 0.3937007874015748
        },
        {
          "duration": 0.3157890000000094,
          "durationTicks": 192,
          "midi": 85,
          "name": "C#6",
          "ticks": 49344,
          "time": 81.15777299999999,
          "velocity": 0.3937007874015748
        },
        {
          "duration": 0.1578944999999976,
          "durationTicks": 96,
          "midi": 80,
          "name": "G#5",
          "ticks": 49536,
          "time": 81.473562,
          "velocity": 0.3937007874015748
        },
        {
          "duration": 0.3157890000000094,
          "durationTicks": 192,
          "midi": 79,
          "name": "G5",
          "ticks": 49824,
          "time": 81.9472455,
          "velocity": 0.3937007874015748
        },
        {
          "duration": 0.3157889999999952,
          "durationTicks": 192,
          "midi": 78,
          "name": "F#5",
          "ticks": 50112,
          "time": 82.420929,
          "velocity": 0.3937007874015748
        },
        {
          "duration": 0.1578944999999976,
          "durationTicks": 96,
          "midi": 76,
          "name": "E5",
          "ticks": 50304,
          "time": 82.736718,
          "velocity": 0.3937007874015748
        },
        {
          "duration": 0.1578944999999976,
          "durationTicks": 96,
          "midi": 73,
          "name": "C#5",
          "ticks": 50400,
          "time": 82.8946125,
          "velocity": 0.3937007874015748
        },
        {
          "duration": 0.15789450000001182,
          "durationTicks": 96,
          "midi": 76,
          "name": "E5",
          "ticks": 50496,
          "time": 83.05250699999999,
          "velocity": 0.3937007874015748
        },
        {
          "duration": 0.1578944999999976,
          "durationTicks": 96,
          "midi": 78,
          "name": "F#5",
          "ticks": 50592,
          "time": 83.2104015,
          "velocity": 0.3937007874015748
        },
        {
          "duration": 0.3157889999999952,
          "durationTicks": 192,
          "midi": 71,
          "name": "B4",
          "ticks": 50688,
          "time": 83.368296,
          "velocity": 0.3937007874015748
        },
        {
          "duration": 0.3157889999999952,
          "durationTicks": 192,
          "midi": 85,
          "name": "C#6",
          "ticks": 50880,
          "time": 83.684085,
          "velocity": 0.3937007874015748
        },
        {
          "duration": 0.3157890000000094,
          "durationTicks": 192,
          "midi": 80,
          "name": "G#5",
          "ticks": 51072,
          "time": 83.99987399999999,
          "velocity": 0.3937007874015748
        },
        {
          "duration": 0.3157889999999952,
          "durationTicks": 192,
          "midi": 78,
          "name": "F#5",
          "ticks": 51264,
          "time": 84.315663,
          "velocity": 0.3937007874015748
        },
        {
          "duration": 0.3157889999999952,
          "durationTicks": 192,
          "midi": 76,
          "name": "E5",
          "ticks": 51456,
          "time": 84.631452,
          "velocity": 0.3937007874015748
        },
        {
          "duration": 0.15789450000001182,
          "durationTicks": 96,
          "midi": 75,
          "name": "D#5",
          "ticks": 51648,
          "time": 84.94724099999999,
          "velocity": 0.3937007874015748
        },
        {
          "duration": 0.1578944999999976,
          "durationTicks": 96,
          "midi": 76,
          "name": "E5",
          "ticks": 51744,
          "time": 85.1051355,
          "velocity": 0.3937007874015748
        },
        {
          "duration": 0.1578944999999976,
          "durationTicks": 96,
          "midi": 75,
          "name": "D#5",
          "ticks": 51840,
          "time": 85.26303,
          "velocity": 0.3937007874015748
        },
        {
          "duration": 0.1578944999999976,
          "durationTicks": 96,
          "midi": 73,
          "name": "C#5",
          "ticks": 51936,
          "time": 85.4209245,
          "velocity": 0.3937007874015748
        },
        {
          "duration": 0.1578944999999976,
          "durationTicks": 96,
          "midi": 71,
          "name": "B4",
          "ticks": 52032,
          "time": 85.578819,
          "velocity": 0.3937007874015748
        },
        {
          "duration": 0.1578944999999976,
          "durationTicks": 96,
          "midi": 68,
          "name": "G#4",
          "ticks": 52128,
          "time": 85.7367135,
          "velocity": 0.3937007874015748
        },
        {
          "duration": 0.15789450000001182,
          "durationTicks": 96,
          "midi": 69,
          "name": "A4",
          "ticks": 52224,
          "time": 85.89460799999999,
          "velocity": 0.3937007874015748
        },
        {
          "duration": 0.1578944999999976,
          "durationTicks": 96,
          "midi": 69,
          "name": "A4",
          "ticks": 52320,
          "time": 86.0525025,
          "velocity": 0.3937007874015748
        },
        {
          "duration": 0.3157889999999952,
          "durationTicks": 192,
          "midi": 85,
          "name": "C#6",
          "ticks": 52416,
          "time": 86.210397,
          "velocity": 0.3937007874015748
        },
        {
          "duration": 0.3157889999999952,
          "durationTicks": 192,
          "midi": 80,
          "name": "G#5",
          "ticks": 52608,
          "time": 86.526186,
          "velocity": 0.3937007874015748
        },
        {
          "duration": 0.15789450000001182,
          "durationTicks": 96,
          "midi": 85,
          "name": "C#6",
          "ticks": 52800,
          "time": 86.84197499999999,
          "velocity": 0.3937007874015748
        },
        {
          "duration": 0.1578944999999976,
          "durationTicks": 96,
          "midi": 81,
          "name": "A5",
          "ticks": 52896,
          "time": 86.9998695,
          "velocity": 0.3937007874015748
        },
        {
          "duration": 0.1578944999999976,
          "durationTicks": 96,
          "midi": 85,
          "name": "C#6",
          "ticks": 52992,
          "time": 87.157764,
          "velocity": 0.3937007874015748
        },
        {
          "duration": 0.1578944999999976,
          "durationTicks": 96,
          "midi": 83,
          "name": "B5",
          "ticks": 53088,
          "time": 87.3156585,
          "velocity": 0.3937007874015748
        },
        {
          "duration": 0.3157889999999952,
          "durationTicks": 192,
          "midi": 80,
          "name": "G#5",
          "ticks": 53184,
          "time": 87.473553,
          "velocity": 0.3937007874015748
        },
        {
          "duration": 0.3157890000000094,
          "durationTicks": 192,
          "midi": 78,
          "name": "F#5",
          "ticks": 53376,
          "time": 87.78934199999999,
          "velocity": 0.3937007874015748
        },
        {
          "duration": 0.1578944999999976,
          "durationTicks": 96,
          "midi": 80,
          "name": "G#5",
          "ticks": 53568,
          "time": 88.105131,
          "velocity": 0.3937007874015748
        },
        {
          "duration": 0.1578944999999976,
          "durationTicks": 96,
          "midi": 76,
          "name": "E5",
          "ticks": 53664,
          "time": 88.2630255,
          "velocity": 0.3937007874015748
        },
        {
          "duration": 0.1578944999999976,
          "durationTicks": 96,
          "midi": 68,
          "name": "G#4",
          "ticks": 53760,
          "time": 88.42092,
          "velocity": 0.3937007874015748
        },
        {
          "duration": 0.1578944999999976,
          "durationTicks": 96,
          "midi": 68,
          "name": "G#4",
          "ticks": 53856,
          "time": 88.5788145,
          "velocity": 0.3937007874015748
        },
        {
          "duration": 0.3157890000000094,
          "durationTicks": 192,
          "midi": 85,
          "name": "C#6",
          "ticks": 53952,
          "time": 88.73670899999999,
          "velocity": 0.3937007874015748
        },
        {
          "duration": 0.3157889999999952,
          "durationTicks": 192,
          "midi": 68,
          "name": "G#4",
          "ticks": 54144,
          "time": 89.052498,
          "velocity": 0.3937007874015748
        },
        {
          "duration": 0.3157889999999952,
          "durationTicks": 192,
          "midi": 85,
          "name": "C#6",
          "ticks": 54336,
          "time": 89.368287,
          "velocity": 0.3937007874015748
        },
        {
          "duration": 0.15789450000001182,
          "durationTicks": 96,
          "midi": 67,
          "name": "G4",
          "ticks": 54528,
          "time": 89.68407599999999,
          "velocity": 0.3937007874015748
        },
        {
          "duration": 0.1578944999999976,
          "durationTicks": 96,
          "midi": 67,
          "name": "G4",
          "ticks": 54624,
          "time": 89.8419705,
          "velocity": 0.3937007874015748
        },
        {
          "duration": 0.3157889999999952,
          "durationTicks": 192,
          "midi": 85,
          "name": "C#6",
          "ticks": 54720,
          "time": 89.999865,
          "velocity": 0.3937007874015748
        },
        {
          "duration": 0.3157889999999952,
          "durationTicks": 192,
          "midi": 69,
          "name": "A4",
          "ticks": 54912,
          "time": 90.315654,
          "velocity": 0.3937007874015748
        },
        {
          "duration": 0.3157890000000094,
          "durationTicks": 192,
          "midi": 87,
          "name": "D#6",
          "ticks": 55104,
          "time": 90.63144299999999,
          "velocity": 0.3937007874015748
        },
        {
          "duration": 0.3157889999999952,
          "durationTicks": 192,
          "midi": 73,
          "name": "C#5",
          "ticks": 55296,
          "time": 90.947232,
          "velocity": 0.3937007874015748
        },
        {
          "duration": 0.3157889999999952,
          "durationTicks": 192,
          "midi": 85,
          "name": "C#6",
          "ticks": 55488,
          "time": 91.263021,
          "velocity": 0.3937007874015748
        },
        {
          "duration": 0.15789450000001182,
          "durationTicks": 96,
          "midi": 80,
          "name": "G#5",
          "ticks": 55680,
          "time": 91.57880999999999,
          "velocity": 0.3937007874015748
        },
        {
          "duration": 0.3157889999999952,
          "durationTicks": 192,
          "midi": 79,
          "name": "G5",
          "ticks": 55968,
          "time": 92.0524935,
          "velocity": 0.3937007874015748
        },
        {
          "duration": 0.3157890000000094,
          "durationTicks": 192,
          "midi": 78,
          "name": "F#5",
          "ticks": 56256,
          "time": 92.52617699999999,
          "velocity": 0.3937007874015748
        },
        {
          "duration": 0.1578944999999976,
          "durationTicks": 96,
          "midi": 76,
          "name": "E5",
          "ticks": 56448,
          "time": 92.841966,
          "velocity": 0.3937007874015748
        },
        {
          "duration": 0.1578944999999976,
          "durationTicks": 96,
          "midi": 73,
          "name": "C#5",
          "ticks": 56544,
          "time": 92.9998605,
          "velocity": 0.3937007874015748
        },
        {
          "duration": 0.1578944999999976,
          "durationTicks": 96,
          "midi": 76,
          "name": "E5",
          "ticks": 56640,
          "time": 93.157755,
          "velocity": 0.3937007874015748
        },
        {
          "duration": 0.1578944999999976,
          "durationTicks": 96,
          "midi": 78,
          "name": "F#5",
          "ticks": 56736,
          "time": 93.31564949999999,
          "velocity": 0.3937007874015748
        },
        {
          "duration": 0.3157890000000094,
          "durationTicks": 192,
          "midi": 71,
          "name": "B4",
          "ticks": 56832,
          "time": 93.47354399999999,
          "velocity": 0.3937007874015748
        },
        {
          "duration": 0.3157889999999952,
          "durationTicks": 192,
          "midi": 85,
          "name": "C#6",
          "ticks": 57024,
          "time": 93.789333,
          "velocity": 0.3937007874015748
        },
        {
          "duration": 0.3157889999999952,
          "durationTicks": 192,
          "midi": 80,
          "name": "G#5",
          "ticks": 57216,
          "time": 94.105122,
          "velocity": 0.3937007874015748
        },
        {
          "duration": 0.3157890000000094,
          "durationTicks": 192,
          "midi": 78,
          "name": "F#5",
          "ticks": 57408,
          "time": 94.42091099999999,
          "velocity": 0.3937007874015748
        },
        {
          "duration": 0.3157889999999952,
          "durationTicks": 192,
          "midi": 76,
          "name": "E5",
          "ticks": 57600,
          "time": 94.7367,
          "velocity": 0.3937007874015748
        },
        {
          "duration": 0.1578944999999976,
          "durationTicks": 96,
          "midi": 75,
          "name": "D#5",
          "ticks": 57792,
          "time": 95.052489,
          "velocity": 0.3937007874015748
        },
        {
          "duration": 0.1578944999999976,
          "durationTicks": 96,
          "midi": 76,
          "name": "E5",
          "ticks": 57888,
          "time": 95.21038349999999,
          "velocity": 0.3937007874015748
        },
        {
          "duration": 0.15789450000001182,
          "durationTicks": 96,
          "midi": 75,
          "name": "D#5",
          "ticks": 57984,
          "time": 95.36827799999999,
          "velocity": 0.3937007874015748
        },
        {
          "duration": 0.1578944999999976,
          "durationTicks": 96,
          "midi": 73,
          "name": "C#5",
          "ticks": 58080,
          "time": 95.5261725,
          "velocity": 0.3937007874015748
        },
        {
          "duration": 0.1578944999999976,
          "durationTicks": 96,
          "midi": 71,
          "name": "B4",
          "ticks": 58176,
          "time": 95.684067,
          "velocity": 0.3937007874015748
        },
        {
          "duration": 0.1578944999999976,
          "durationTicks": 96,
          "midi": 68,
          "name": "G#4",
          "ticks": 58272,
          "time": 95.8419615,
          "velocity": 0.3937007874015748
        },
        {
          "duration": 0.1578944999999976,
          "durationTicks": 96,
          "midi": 69,
          "name": "A4",
          "ticks": 58368,
          "time": 95.999856,
          "velocity": 0.3937007874015748
        },
        {
          "duration": 0.1578944999999976,
          "durationTicks": 96,
          "midi": 69,
          "name": "A4",
          "ticks": 58464,
          "time": 96.15775049999999,
          "velocity": 0.3937007874015748
        },
        {
          "duration": 0.3157890000000094,
          "durationTicks": 192,
          "midi": 85,
          "name": "C#6",
          "ticks": 58560,
          "time": 96.31564499999999,
          "velocity": 0.3937007874015748
        },
        {
          "duration": 0.3157889999999952,
          "durationTicks": 192,
          "midi": 80,
          "name": "G#5",
          "ticks": 58752,
          "time": 96.631434,
          "velocity": 0.3937007874015748
        },
        {
          "duration": 0.1578944999999976,
          "durationTicks": 96,
          "midi": 85,
          "name": "C#6",
          "ticks": 58944,
          "time": 96.947223,
          "velocity": 0.3937007874015748
        },
        {
          "duration": 0.1578944999999976,
          "durationTicks": 96,
          "midi": 81,
          "name": "A5",
          "ticks": 59040,
          "time": 97.10511749999999,
          "velocity": 0.3937007874015748
        },
        {
          "duration": 0.15789450000001182,
          "durationTicks": 96,
          "midi": 85,
          "name": "C#6",
          "ticks": 59136,
          "time": 97.26301199999999,
          "velocity": 0.3937007874015748
        },
        {
          "duration": 0.1578944999999976,
          "durationTicks": 96,
          "midi": 83,
          "name": "B5",
          "ticks": 59232,
          "time": 97.4209065,
          "velocity": 0.3937007874015748
        },
        {
          "duration": 0.3157889999999952,
          "durationTicks": 192,
          "midi": 80,
          "name": "G#5",
          "ticks": 59328,
          "time": 97.578801,
          "velocity": 0.3937007874015748
        },
        {
          "duration": 0.3157889999999952,
          "durationTicks": 192,
          "midi": 78,
          "name": "F#5",
          "ticks": 59520,
          "time": 97.89459,
          "velocity": 0.3937007874015748
        },
        {
          "duration": 0.15789450000001182,
          "durationTicks": 96,
          "midi": 80,
          "name": "G#5",
          "ticks": 59712,
          "time": 98.21037899999999,
          "velocity": 0.3937007874015748
        },
        {
          "duration": 0.1578944999999976,
          "durationTicks": 96,
          "midi": 76,
          "name": "E5",
          "ticks": 59808,
          "time": 98.3682735,
          "velocity": 0.3937007874015748
        },
        {
          "duration": 0.1578944999999976,
          "durationTicks": 96,
          "midi": 68,
          "name": "G#4",
          "ticks": 59904,
          "time": 98.526168,
          "velocity": 0.3937007874015748
        },
        {
          "duration": 0.1578944999999976,
          "durationTicks": 96,
          "midi": 68,
          "name": "G#4",
          "ticks": 60000,
          "time": 98.6840625,
          "velocity": 0.3937007874015748
        },
        {
          "duration": 0.3157889999999952,
          "durationTicks": 192,
          "midi": 85,
          "name": "C#6",
          "ticks": 60096,
          "time": 98.841957,
          "velocity": 0.3937007874015748
        },
        {
          "duration": 0.3157890000000094,
          "durationTicks": 192,
          "midi": 68,
          "name": "G#4",
          "ticks": 60288,
          "time": 99.15774599999999,
          "velocity": 0.3937007874015748
        },
        {
          "duration": 0.3157889999999952,
          "durationTicks": 192,
          "midi": 85,
          "name": "C#6",
          "ticks": 60480,
          "time": 99.473535,
          "velocity": 0.3937007874015748
        },
        {
          "duration": 0.1578944999999976,
          "durationTicks": 96,
          "midi": 67,
          "name": "G4",
          "ticks": 60672,
          "time": 99.789324,
          "velocity": 0.3937007874015748
        },
        {
          "duration": 0.1578944999999976,
          "durationTicks": 96,
          "midi": 67,
          "name": "G4",
          "ticks": 60768,
          "time": 99.94721849999999,
          "velocity": 0.3937007874015748
        },
        {
          "duration": 0.3157890000000094,
          "durationTicks": 192,
          "midi": 85,
          "name": "C#6",
          "ticks": 60864,
          "time": 100.10511299999999,
          "velocity": 0.3937007874015748
        },
        {
          "duration": 0.3157889999999952,
          "durationTicks": 192,
          "midi": 69,
          "name": "A4",
          "ticks": 61056,
          "time": 100.420902,
          "velocity": 0.3937007874015748
        },
        {
          "duration": 0.3157890000000094,
          "durationTicks": 192,
          "midi": 87,
          "name": "D#6",
          "ticks": 61248,
          "time": 100.736691,
          "velocity": 0.3937007874015748
        },
        {
          "duration": 0.3157889999999952,
          "durationTicks": 192,
          "midi": 73,
          "name": "C#5",
          "ticks": 61440,
          "time": 101.05248,
          "velocity": 0.3937007874015748
        },
        {
          "duration": 0.3157889999999952,
          "durationTicks": 192,
          "midi": 85,
          "name": "C#6",
          "ticks": 61632,
          "time": 101.368269,
          "velocity": 0.3937007874015748
        },
        {
          "duration": 0.1578944999999976,
          "durationTicks": 96,
          "midi": 80,
          "name": "G#5",
          "ticks": 61824,
          "time": 101.684058,
          "velocity": 0.3937007874015748
        },
        {
          "duration": 0.3157889999999952,
          "durationTicks": 192,
          "midi": 79,
          "name": "G5",
          "ticks": 62112,
          "time": 102.1577415,
          "velocity": 0.3937007874015748
        },
        {
          "duration": 0.3157890000000094,
          "durationTicks": 192,
          "midi": 78,
          "name": "F#5",
          "ticks": 62400,
          "time": 102.631425,
          "velocity": 0.3937007874015748
        },
        {
          "duration": 0.1578944999999976,
          "durationTicks": 96,
          "midi": 76,
          "name": "E5",
          "ticks": 62592,
          "time": 102.947214,
          "velocity": 0.3937007874015748
        },
        {
          "duration": 0.1578944999999976,
          "durationTicks": 96,
          "midi": 73,
          "name": "C#5",
          "ticks": 62688,
          "time": 103.1051085,
          "velocity": 0.3937007874015748
        },
        {
          "duration": 0.1578944999999976,
          "durationTicks": 96,
          "midi": 76,
          "name": "E5",
          "ticks": 62784,
          "time": 103.263003,
          "velocity": 0.3937007874015748
        },
        {
          "duration": 0.1578944999999976,
          "durationTicks": 96,
          "midi": 78,
          "name": "F#5",
          "ticks": 62880,
          "time": 103.4208975,
          "velocity": 0.3937007874015748
        },
        {
          "duration": 0.3157890000000094,
          "durationTicks": 192,
          "midi": 71,
          "name": "B4",
          "ticks": 62976,
          "time": 103.57879199999999,
          "velocity": 0.3937007874015748
        },
        {
          "duration": 0.3157889999999952,
          "durationTicks": 192,
          "midi": 85,
          "name": "C#6",
          "ticks": 63168,
          "time": 103.894581,
          "velocity": 0.3937007874015748
        },
        {
          "duration": 0.3157889999999952,
          "durationTicks": 192,
          "midi": 80,
          "name": "G#5",
          "ticks": 63360,
          "time": 104.21037,
          "velocity": 0.3937007874015748
        },
        {
          "duration": 0.3157890000000094,
          "durationTicks": 192,
          "midi": 78,
          "name": "F#5",
          "ticks": 63552,
          "time": 104.52615899999999,
          "velocity": 0.3937007874015748
        },
        {
          "duration": 0.3157889999999952,
          "durationTicks": 192,
          "midi": 76,
          "name": "E5",
          "ticks": 63744,
          "time": 104.841948,
          "velocity": 0.3937007874015748
        },
        {
          "duration": 0.1578944999999976,
          "durationTicks": 96,
          "midi": 75,
          "name": "D#5",
          "ticks": 63936,
          "time": 105.157737,
          "velocity": 0.3937007874015748
        },
        {
          "duration": 0.1578944999999976,
          "durationTicks": 96,
          "midi": 76,
          "name": "E5",
          "ticks": 64032,
          "time": 105.3156315,
          "velocity": 0.3937007874015748
        },
        {
          "duration": 0.1578944999999976,
          "durationTicks": 96,
          "midi": 75,
          "name": "D#5",
          "ticks": 64128,
          "time": 105.47352599999999,
          "velocity": 0.3937007874015748
        },
        {
          "duration": 0.15789450000001182,
          "durationTicks": 96,
          "midi": 73,
          "name": "C#5",
          "ticks": 64224,
          "time": 105.63142049999999,
          "velocity": 0.3937007874015748
        },
        {
          "duration": 0.1578944999999976,
          "durationTicks": 96,
          "midi": 71,
          "name": "B4",
          "ticks": 64320,
          "time": 105.789315,
          "velocity": 0.3937007874015748
        },
        {
          "duration": 0.1578944999999976,
          "durationTicks": 96,
          "midi": 68,
          "name": "G#4",
          "ticks": 64416,
          "time": 105.9472095,
          "velocity": 0.3937007874015748
        },
        {
          "duration": 0.1578944999999976,
          "durationTicks": 96,
          "midi": 69,
          "name": "A4",
          "ticks": 64512,
          "time": 106.105104,
          "velocity": 0.3937007874015748
        },
        {
          "duration": 0.1578944999999976,
          "durationTicks": 96,
          "midi": 69,
          "name": "A4",
          "ticks": 64608,
          "time": 106.2629985,
          "velocity": 0.3937007874015748
        },
        {
          "duration": 0.3157890000000094,
          "durationTicks": 192,
          "midi": 85,
          "name": "C#6",
          "ticks": 64704,
          "time": 106.42089299999999,
          "velocity": 0.3937007874015748
        },
        {
          "duration": 0.3157889999999952,
          "durationTicks": 192,
          "midi": 80,
          "name": "G#5",
          "ticks": 64896,
          "time": 106.736682,
          "velocity": 0.3937007874015748
        },
        {
          "duration": 0.1578944999999976,
          "durationTicks": 96,
          "midi": 85,
          "name": "C#6",
          "ticks": 65088,
          "time": 107.052471,
          "velocity": 0.3937007874015748
        },
        {
          "duration": 0.1578944999999976,
          "durationTicks": 96,
          "midi": 81,
          "name": "A5",
          "ticks": 65184,
          "time": 107.2103655,
          "velocity": 0.3937007874015748
        },
        {
          "duration": 0.1578944999999976,
          "durationTicks": 96,
          "midi": 85,
          "name": "C#6",
          "ticks": 65280,
          "time": 107.36825999999999,
          "velocity": 0.3937007874015748
        },
        {
          "duration": 0.15789450000001182,
          "durationTicks": 96,
          "midi": 83,
          "name": "B5",
          "ticks": 65376,
          "time": 107.52615449999999,
          "velocity": 0.3937007874015748
        },
        {
          "duration": 0.3157889999999952,
          "durationTicks": 192,
          "midi": 80,
          "name": "G#5",
          "ticks": 65472,
          "time": 107.684049,
          "velocity": 0.3937007874015748
        },
        {
          "duration": 0.3157889999999952,
          "durationTicks": 192,
          "midi": 78,
          "name": "F#5",
          "ticks": 65664,
          "time": 107.999838,
          "velocity": 0.3937007874015748
        },
        {
          "duration": 0.1578944999999976,
          "durationTicks": 96,
          "midi": 80,
          "name": "G#5",
          "ticks": 65856,
          "time": 108.31562699999999,
          "velocity": 0.3937007874015748
        },
        {
          "duration": 0.15789450000001182,
          "durationTicks": 96,
          "midi": 76,
          "name": "E5",
          "ticks": 65952,
          "time": 108.47352149999999,
          "velocity": 0.3937007874015748
        },
        {
          "duration": 0.3157889999999952,
          "durationTicks": 192,
          "midi": 68,
          "name": "G#4",
          "ticks": 66048,
          "time": 108.631416,
          "velocity": 0.3937007874015748
        },
        {
          "duration": 0.3157889999999952,
          "durationTicks": 192,
          "midi": 85,
          "name": "C#6",
          "ticks": 66240,
          "time": 108.947205,
          "velocity": 0.3937007874015748
        },
        {
          "duration": 0.47368350000000703,
          "durationTicks": 288,
          "midi": 68,
          "name": "G#4",
          "ticks": 66432,
          "time": 109.26299399999999,
          "velocity": 0.3937007874015748
        },
        {
          "duration": 0.4736834999999928,
          "durationTicks": 288,
          "midi": 85,
          "name": "C#6",
          "ticks": 66720,
          "time": 109.7366775,
          "velocity": 0.3937007874015748
        },
        {
          "duration": 0.6315780000000046,
          "durationTicks": 384,
          "midi": 67,
          "name": "G4",
          "ticks": 67008,
          "time": 110.21036099999999,
          "velocity": 0.3937007874015748
        },
        {
          "duration": 0.6315780000000046,
          "durationTicks": 384,
          "midi": 85,
          "name": "C#6",
          "ticks": 67392,
          "time": 110.841939,
          "velocity": 0.3937007874015748
        },
        {
          "duration": 0.789472499999988,
          "durationTicks": 480,
          "midi": 69,
          "name": "A4",
          "ticks": 67776,
          "time": 111.473517,
          "velocity": 0.3937007874015748
        },
        {
          "duration": 1.4210505000000069,
          "durationTicks": 864,
          "midi": 87,
          "name": "D#6",
          "ticks": 68256,
          "time": 112.26298949999999,
          "velocity": 0.3937007874015748
        },
        {
          "duration": 0.3157889999999952,
          "durationTicks": 192,
          "midi": 49,
          "name": "C#3",
          "ticks": 69120,
          "time": 113.68404,
          "velocity": 0.3937007874015748
        },
        {
          "duration": 0.3157890000000094,
          "durationTicks": 192,
          "midi": 61,
          "name": "C#4",
          "ticks": 69312,
          "time": 113.99982899999999,
          "velocity": 0.3937007874015748
        },
        {
          "duration": 0.1578944999999976,
          "durationTicks": 96,
          "midi": 56,
          "name": "G#3",
          "ticks": 69504,
          "time": 114.315618,
          "velocity": 0.3937007874015748
        },
        {
          "duration": 0.3157889999999952,
          "durationTicks": 192,
          "midi": 55,
          "name": "G3",
          "ticks": 69792,
          "time": 114.7893015,
          "velocity": 0.3937007874015748
        },
        {
          "duration": 0.3157889999999952,
          "durationTicks": 192,
          "midi": 54,
          "name": "F#3",
          "ticks": 70080,
          "time": 115.262985,
          "velocity": 0.3937007874015748
        },
        {
          "duration": 0.1578944999999976,
          "durationTicks": 96,
          "midi": 52,
          "name": "E3",
          "ticks": 70272,
          "time": 115.578774,
          "velocity": 0.3937007874015748
        },
        {
          "duration": 0.1578944999999976,
          "durationTicks": 96,
          "midi": 49,
          "name": "C#3",
          "ticks": 70368,
          "time": 115.7366685,
          "velocity": 0.3937007874015748
        },
        {
          "duration": 0.1578944999999976,
          "durationTicks": 96,
          "midi": 52,
          "name": "E3",
          "ticks": 70464,
          "time": 115.89456299999999,
          "velocity": 0.3937007874015748
        },
        {
          "duration": 0.15789450000001182,
          "durationTicks": 96,
          "midi": 54,
          "name": "F#3",
          "ticks": 70560,
          "time": 116.05245749999999,
          "velocity": 0.3937007874015748
        },
        {
          "duration": 0.3157889999999952,
          "durationTicks": 192,
          "midi": 47,
          "name": "B2",
          "ticks": 70656,
          "time": 116.210352,
          "velocity": 0.3937007874015748
        },
        {
          "duration": 0.3157889999999952,
          "durationTicks": 192,
          "midi": 61,
          "name": "C#4",
          "ticks": 70848,
          "time": 116.526141,
          "velocity": 0.3937007874015748
        },
        {
          "duration": 0.3157890000000094,
          "durationTicks": 192,
          "midi": 56,
          "name": "G#3",
          "ticks": 71040,
          "time": 116.84192999999999,
          "velocity": 0.3937007874015748
        },
        {
          "duration": 0.3157889999999952,
          "durationTicks": 192,
          "midi": 54,
          "name": "F#3",
          "ticks": 71232,
          "time": 117.157719,
          "velocity": 0.3937007874015748
        },
        {
          "duration": 0.3157889999999952,
          "durationTicks": 192,
          "midi": 52,
          "name": "E3",
          "ticks": 71424,
          "time": 117.473508,
          "velocity": 0.3937007874015748
        },
        {
          "duration": 0.1578944999999976,
          "durationTicks": 96,
          "midi": 51,
          "name": "D#3",
          "ticks": 71616,
          "time": 117.78929699999999,
          "velocity": 0.3937007874015748
        },
        {
          "duration": 0.15789450000001182,
          "durationTicks": 96,
          "midi": 52,
          "name": "E3",
          "ticks": 71712,
          "time": 117.94719149999999,
          "velocity": 0.3937007874015748
        },
        {
          "duration": 0.1578944999999976,
          "durationTicks": 96,
          "midi": 51,
          "name": "D#3",
          "ticks": 71808,
          "time": 118.105086,
          "velocity": 0.3937007874015748
        },
        {
          "duration": 0.1578944999999976,
          "durationTicks": 96,
          "midi": 49,
          "name": "C#3",
          "ticks": 71904,
          "time": 118.2629805,
          "velocity": 0.3937007874015748
        },
        {
          "duration": 0.1578944999999976,
          "durationTicks": 96,
          "midi": 47,
          "name": "B2",
          "ticks": 72000,
          "time": 118.420875,
          "velocity": 0.3937007874015748
        },
        {
          "duration": 0.1578944999999976,
          "durationTicks": 96,
          "midi": 44,
          "name": "G#2",
          "ticks": 72096,
          "time": 118.57876949999999,
          "velocity": 0.3937007874015748
        },
        {
          "duration": 0.1578944999999976,
          "durationTicks": 96,
          "midi": 45,
          "name": "A2",
          "ticks": 72192,
          "time": 118.73666399999999,
          "velocity": 0.3937007874015748
        },
        {
          "duration": 0.15789450000001182,
          "durationTicks": 96,
          "midi": 45,
          "name": "A2",
          "ticks": 72288,
          "time": 118.89455849999999,
          "velocity": 0.3937007874015748
        },
        {
          "duration": 0.3157889999999952,
          "durationTicks": 192,
          "midi": 61,
          "name": "C#4",
          "ticks": 72384,
          "time": 119.052453,
          "velocity": 0.3937007874015748
        },
        {
          "duration": 0.3157889999999952,
          "durationTicks": 192,
          "midi": 56,
          "name": "G#3",
          "ticks": 72576,
          "time": 119.368242,
          "velocity": 0.3937007874015748
        },
        {
          "duration": 0.1578944999999976,
          "durationTicks": 96,
          "midi": 61,
          "name": "C#4",
          "ticks": 72768,
          "time": 119.68403099999999,
          "velocity": 0.3937007874015748
        },
        {
          "duration": 0.15789450000001182,
          "durationTicks": 96,
          "midi": 57,
          "name": "A3",
          "ticks": 72864,
          "time": 119.84192549999999,
          "velocity": 0.3937007874015748
        },
        {
          "duration": 0.1578944999999976,
          "durationTicks": 96,
          "midi": 61,
          "name": "C#4",
          "ticks": 72960,
          "time": 119.99982,
          "velocity": 0.3937007874015748
        },
        {
          "duration": 0.1578944999999976,
          "durationTicks": 96,
          "midi": 59,
          "name": "B3",
          "ticks": 73056,
          "time": 120.1577145,
          "velocity": 0.3937007874015748
        },
        {
          "duration": 0.3157889999999952,
          "durationTicks": 192,
          "midi": 56,
          "name": "G#3",
          "ticks": 73152,
          "time": 120.315609,
          "velocity": 0.3937007874015748
        },
        {
          "duration": 0.3157890000000094,
          "durationTicks": 192,
          "midi": 54,
          "name": "F#3",
          "ticks": 73344,
          "time": 120.63139799999999,
          "velocity": 0.3937007874015748
        },
        {
          "duration": 0.1578944999999976,
          "durationTicks": 96,
          "midi": 56,
          "name": "G#3",
          "ticks": 73536,
          "time": 120.947187,
          "velocity": 0.3937007874015748
        },
        {
          "duration": 0.1578944999999976,
          "durationTicks": 96,
          "midi": 52,
          "name": "E3",
          "ticks": 73632,
          "time": 121.1050815,
          "velocity": 0.3937007874015748
        },
        {
          "duration": 0.3157889999999952,
          "durationTicks": 192,
          "midi": 44,
          "name": "G#2",
          "ticks": 73728,
          "time": 121.262976,
          "velocity": 0.3937007874015748
        },
        {
          "duration": 0.3157890000000094,
          "durationTicks": 192,
          "midi": 61,
          "name": "C#4",
          "ticks": 73920,
          "time": 121.57876499999999,
          "velocity": 0.3937007874015748
        },
        {
          "duration": 0.3157889999999952,
          "durationTicks": 192,
          "midi": 44,
          "name": "G#2",
          "ticks": 74112,
          "time": 121.894554,
          "velocity": 0.3937007874015748
        },
        {
          "duration": 0.3157889999999952,
          "durationTicks": 192,
          "midi": 61,
          "name": "C#4",
          "ticks": 74304,
          "time": 122.210343,
          "velocity": 0.3937007874015748
        },
        {
          "duration": 0.3157890000000094,
          "durationTicks": 192,
          "midi": 43,
          "name": "G2",
          "ticks": 74496,
          "time": 122.52613199999999,
          "velocity": 0.3937007874015748
        },
        {
          "duration": 0.3157889999999952,
          "durationTicks": 192,
          "midi": 61,
          "name": "C#4",
          "ticks": 74688,
          "time": 122.841921,
          "velocity": 0.3937007874015748
        },
        {
          "duration": 0.3157889999999952,
          "durationTicks": 192,
          "midi": 45,
          "name": "A2",
          "ticks": 74880,
          "time": 123.15771,
          "velocity": 0.3937007874015748
        },
        {
          "duration": 0.3157890000000094,
          "durationTicks": 192,
          "midi": 63,
          "name": "D#4",
          "ticks": 75072,
          "time": 123.47349899999999,
          "velocity": 0.3937007874015748
        },
        {
          "duration": 0.3157889999999952,
          "durationTicks": 192,
          "midi": 49,
          "name": "C#3",
          "ticks": 75264,
          "time": 123.789288,
          "velocity": 0.3937007874015748
        },
        {
          "duration": 0.3157889999999952,
          "durationTicks": 192,
          "midi": 61,
          "name": "C#4",
          "ticks": 75456,
          "time": 124.105077,
          "velocity": 0.3937007874015748
        },
        {
          "duration": 0.15789450000001182,
          "durationTicks": 96,
          "midi": 56,
          "name": "G#3",
          "ticks": 75648,
          "time": 124.42086599999999,
          "velocity": 0.3937007874015748
        },
        {
          "duration": 0.3157889999999952,
          "durationTicks": 192,
          "midi": 55,
          "name": "G3",
          "ticks": 75936,
          "time": 124.8945495,
          "velocity": 0.3937007874015748
        },
        {
          "duration": 0.3157890000000094,
          "durationTicks": 192,
          "midi": 54,
          "name": "F#3",
          "ticks": 76224,
          "time": 125.36823299999999,
          "velocity": 0.3937007874015748
        },
        {
          "duration": 0.1578944999999976,
          "durationTicks": 96,
          "midi": 52,
          "name": "E3",
          "ticks": 76416,
          "time": 125.684022,
          "velocity": 0.3937007874015748
        },
        {
          "duration": 0.1578944999999976,
          "durationTicks": 96,
          "midi": 49,
          "name": "C#3",
          "ticks": 76512,
          "time": 125.8419165,
          "velocity": 0.3937007874015748
        },
        {
          "duration": 0.1578944999999976,
          "durationTicks": 96,
          "midi": 52,
          "name": "E3",
          "ticks": 76608,
          "time": 125.999811,
          "velocity": 0.3937007874015748
        },
        {
          "duration": 0.1578944999999976,
          "durationTicks": 96,
          "midi": 54,
          "name": "F#3",
          "ticks": 76704,
          "time": 126.15770549999999,
          "velocity": 0.3937007874015748
        },
        {
          "duration": 0.3157890000000094,
          "durationTicks": 192,
          "midi": 47,
          "name": "B2",
          "ticks": 76800,
          "time": 126.31559999999999,
          "velocity": 0.3937007874015748
        },
        {
          "duration": 0.3157889999999952,
          "durationTicks": 192,
          "midi": 61,
          "name": "C#4",
          "ticks": 76992,
          "time": 126.631389,
          "velocity": 0.3937007874015748
        },
        {
          "duration": 0.3157889999999952,
          "durationTicks": 192,
          "midi": 56,
          "name": "G#3",
          "ticks": 77184,
          "time": 126.947178,
          "velocity": 0.3937007874015748
        },
        {
          "duration": 0.3157890000000094,
          "durationTicks": 192,
          "midi": 54,
          "name": "F#3",
          "ticks": 77376,
          "time": 127.26296699999999,
          "velocity": 0.3937007874015748
        },
        {
          "duration": 0.3157889999999952,
          "durationTicks": 192,
          "midi": 52,
          "name": "E3",
          "ticks": 77568,
          "time": 127.578756,
          "velocity": 0.3937007874015748
        },
        {
          "duration": 0.1578944999999976,
          "durationTicks": 96,
          "midi": 51,
          "name": "D#3",
          "ticks": 77760,
          "time": 127.894545,
          "velocity": 0.3937007874015748
        },
        {
          "duration": 0.1578944999999976,
          "durationTicks": 96,
          "midi": 52,
          "name": "E3",
          "ticks": 77856,
          "time": 128.0524395,
          "velocity": 0.3937007874015748
        },
        {
          "duration": 0.1578944999999976,
          "durationTicks": 96,
          "midi": 51,
          "name": "D#3",
          "ticks": 77952,
          "time": 128.210334,
          "velocity": 0.3937007874015748
        },
        {
          "duration": 0.1578944999999976,
          "durationTicks": 96,
          "midi": 49,
          "name": "C#3",
          "ticks": 78048,
          "time": 128.3682285,
          "velocity": 0.3937007874015748
        },
        {
          "duration": 0.1578944999999976,
          "durationTicks": 96,
          "midi": 47,
          "name": "B2",
          "ticks": 78144,
          "time": 128.52612299999998,
          "velocity": 0.3937007874015748
        },
        {
          "duration": 0.15789450000002603,
          "durationTicks": 96,
          "midi": 44,
          "name": "G#2",
          "ticks": 78240,
          "time": 128.68401749999998,
          "velocity": 0.3937007874015748
        },
        {
          "duration": 0.1578944999999976,
          "durationTicks": 96,
          "midi": 45,
          "name": "A2",
          "ticks": 78336,
          "time": 128.841912,
          "velocity": 0.3937007874015748
        },
        {
          "duration": 0.1578944999999976,
          "durationTicks": 96,
          "midi": 45,
          "name": "A2",
          "ticks": 78432,
          "time": 128.9998065,
          "velocity": 0.3937007874015748
        },
        {
          "duration": 0.3157889999999952,
          "durationTicks": 192,
          "midi": 61,
          "name": "C#4",
          "ticks": 78528,
          "time": 129.157701,
          "velocity": 0.3937007874015748
        },
        {
          "duration": 0.3157889999999952,
          "durationTicks": 192,
          "midi": 56,
          "name": "G#3",
          "ticks": 78720,
          "time": 129.47349,
          "velocity": 0.3937007874015748
        },
        {
          "duration": 0.1578944999999976,
          "durationTicks": 96,
          "midi": 61,
          "name": "C#4",
          "ticks": 78912,
          "time": 129.789279,
          "velocity": 0.3937007874015748
        },
        {
          "duration": 0.1578944999999976,
          "durationTicks": 96,
          "midi": 57,
          "name": "A3",
          "ticks": 79008,
          "time": 129.9471735,
          "velocity": 0.3937007874015748
        },
        {
          "duration": 0.1578944999999976,
          "durationTicks": 96,
          "midi": 61,
          "name": "C#4",
          "ticks": 79104,
          "time": 130.105068,
          "velocity": 0.3937007874015748
        },
        {
          "duration": 0.1578944999999976,
          "durationTicks": 96,
          "midi": 59,
          "name": "B3",
          "ticks": 79200,
          "time": 130.2629625,
          "velocity": 0.3937007874015748
        },
        {
          "duration": 0.31578900000002363,
          "durationTicks": 192,
          "midi": 56,
          "name": "G#3",
          "ticks": 79296,
          "time": 130.42085699999998,
          "velocity": 0.3937007874015748
        },
        {
          "duration": 0.3157889999999952,
          "durationTicks": 192,
          "midi": 54,
          "name": "F#3",
          "ticks": 79488,
          "time": 130.736646,
          "velocity": 0.3937007874015748
        },
        {
          "duration": 0.1578944999999976,
          "durationTicks": 96,
          "midi": 56,
          "name": "G#3",
          "ticks": 79680,
          "time": 131.052435,
          "velocity": 0.3937007874015748
        },
        {
          "duration": 0.1578944999999976,
          "durationTicks": 96,
          "midi": 52,
          "name": "E3",
          "ticks": 79776,
          "time": 131.2103295,
          "velocity": 0.3937007874015748
        },
        {
          "duration": 0.3157889999999952,
          "durationTicks": 192,
          "midi": 44,
          "name": "G#2",
          "ticks": 79872,
          "time": 131.368224,
          "velocity": 0.3937007874015748
        },
        {
          "duration": 0.3157889999999952,
          "durationTicks": 192,
          "midi": 61,
          "name": "C#4",
          "ticks": 80064,
          "time": 131.684013,
          "velocity": 0.3937007874015748
        },
        {
          "duration": 0.3157889999999952,
          "durationTicks": 192,
          "midi": 44,
          "name": "G#2",
          "ticks": 80256,
          "time": 131.999802,
          "velocity": 0.3937007874015748
        },
        {
          "duration": 0.31578900000002363,
          "durationTicks": 192,
          "midi": 61,
          "name": "C#4",
          "ticks": 80448,
          "time": 132.31559099999998,
          "velocity": 0.3937007874015748
        },
        {
          "duration": 0.3157889999999952,
          "durationTicks": 192,
          "midi": 43,
          "name": "G2",
          "ticks": 80640,
          "time": 132.63138,
          "velocity": 0.3937007874015748
        },
        {
          "duration": 0.3157889999999952,
          "durationTicks": 192,
          "midi": 61,
          "name": "C#4",
          "ticks": 80832,
          "time": 132.947169,
          "velocity": 0.3937007874015748
        },
        {
          "duration": 0.3157889999999952,
          "durationTicks": 192,
          "midi": 45,
          "name": "A2",
          "ticks": 81024,
          "time": 133.262958,
          "velocity": 0.3937007874015748
        },
        {
          "duration": 0.3157889999999952,
          "durationTicks": 192,
          "midi": 63,
          "name": "D#4",
          "ticks": 81216,
          "time": 133.578747,
          "velocity": 0.3937007874015748
        },
        {
          "duration": 0.3157889999999952,
          "durationTicks": 192,
          "midi": 49,
          "name": "C#3",
          "ticks": 81408,
          "time": 133.894536,
          "velocity": 0.3937007874015748
        },
        {
          "duration": 0.31578900000002363,
          "durationTicks": 192,
          "midi": 61,
          "name": "C#4",
          "ticks": 81600,
          "time": 134.21032499999998,
          "velocity": 0.3937007874015748
        },
        {
          "duration": 0.1578944999999976,
          "durationTicks": 96,
          "midi": 56,
          "name": "G#3",
          "ticks": 81792,
          "time": 134.526114,
          "velocity": 0.3937007874015748
        },
        {
          "duration": 0.3157889999999952,
          "durationTicks": 192,
          "midi": 55,
          "name": "G3",
          "ticks": 82080,
          "time": 134.9997975,
          "velocity": 0.3937007874015748
        },
        {
          "duration": 0.3157889999999952,
          "durationTicks": 192,
          "midi": 54,
          "name": "F#3",
          "ticks": 82368,
          "time": 135.473481,
          "velocity": 0.3937007874015748
        },
        {
          "duration": 0.1578944999999976,
          "durationTicks": 96,
          "midi": 52,
          "name": "E3",
          "ticks": 82560,
          "time": 135.78927,
          "velocity": 0.3937007874015748
        },
        {
          "duration": 0.1578944999999976,
          "durationTicks": 96,
          "midi": 49,
          "name": "C#3",
          "ticks": 82656,
          "time": 135.94716449999999,
          "velocity": 0.3937007874015748
        },
        {
          "duration": 0.1578944999999976,
          "durationTicks": 96,
          "midi": 52,
          "name": "E3",
          "ticks": 82752,
          "time": 136.10505899999998,
          "velocity": 0.3937007874015748
        },
        {
          "duration": 0.15789450000002603,
          "durationTicks": 96,
          "midi": 54,
          "name": "F#3",
          "ticks": 82848,
          "time": 136.26295349999998,
          "velocity": 0.3937007874015748
        },
        {
          "duration": 0.3157889999999952,
          "durationTicks": 192,
          "midi": 47,
          "name": "B2",
          "ticks": 82944,
          "time": 136.420848,
          "velocity": 0.3937007874015748
        },
        {
          "duration": 0.3157889999999952,
          "durationTicks": 192,
          "midi": 61,
          "name": "C#4",
          "ticks": 83136,
          "time": 136.736637,
          "velocity": 0.3937007874015748
        },
        {
          "duration": 0.3157889999999952,
          "durationTicks": 192,
          "midi": 56,
          "name": "G#3",
          "ticks": 83328,
          "time": 137.052426,
          "velocity": 0.3937007874015748
        },
        {
          "duration": 0.3157889999999952,
          "durationTicks": 192,
          "midi": 54,
          "name": "F#3",
          "ticks": 83520,
          "time": 137.368215,
          "velocity": 0.3937007874015748
        },
        {
          "duration": 0.3157889999999952,
          "durationTicks": 192,
          "midi": 52,
          "name": "E3",
          "ticks": 83712,
          "time": 137.684004,
          "velocity": 0.3937007874015748
        },
        {
          "duration": 0.1578944999999976,
          "durationTicks": 96,
          "midi": 51,
          "name": "D#3",
          "ticks": 83904,
          "time": 137.99979299999998,
          "velocity": 0.3937007874015748
        },
        {
          "duration": 0.15789450000002603,
          "durationTicks": 96,
          "midi": 52,
          "name": "E3",
          "ticks": 84000,
          "time": 138.15768749999998,
          "velocity": 0.3937007874015748
        },
        {
          "duration": 0.1578944999999976,
          "durationTicks": 96,
          "midi": 51,
          "name": "D#3",
          "ticks": 84096,
          "time": 138.315582,
          "velocity": 0.3937007874015748
        },
        {
          "duration": 0.1578944999999976,
          "durationTicks": 96,
          "midi": 49,
          "name": "C#3",
          "ticks": 84192,
          "time": 138.4734765,
          "velocity": 0.3937007874015748
        },
        {
          "duration": 0.1578944999999976,
          "durationTicks": 96,
          "midi": 47,
          "name": "B2",
          "ticks": 84288,
          "time": 138.631371,
          "velocity": 0.3937007874015748
        },
        {
          "duration": 0.1578944999999976,
          "durationTicks": 96,
          "midi": 44,
          "name": "G#2",
          "ticks": 84384,
          "time": 138.7892655,
          "velocity": 0.3937007874015748
        },
        {
          "duration": 0.1578944999999976,
          "durationTicks": 96,
          "midi": 45,
          "name": "A2",
          "ticks": 84480,
          "time": 138.94716,
          "velocity": 0.3937007874015748
        },
        {
          "duration": 0.1578944999999976,
          "durationTicks": 96,
          "midi": 45,
          "name": "A2",
          "ticks": 84576,
          "time": 139.1050545,
          "velocity": 0.3937007874015748
        },
        {
          "duration": 0.3157889999999952,
          "durationTicks": 192,
          "midi": 61,
          "name": "C#4",
          "ticks": 84672,
          "time": 139.262949,
          "velocity": 0.3937007874015748
        },
        {
          "duration": 0.3157889999999952,
          "durationTicks": 192,
          "midi": 56,
          "name": "G#3",
          "ticks": 84864,
          "time": 139.578738,
          "velocity": 0.3937007874015748
        },
        {
          "duration": 0.1578944999999976,
          "durationTicks": 96,
          "midi": 61,
          "name": "C#4",
          "ticks": 85056,
          "time": 139.89452699999998,
          "velocity": 0.3937007874015748
        },
        {
          "duration": 0.15789450000002603,
          "durationTicks": 96,
          "midi": 57,
          "name": "A3",
          "ticks": 85152,
          "time": 140.05242149999998,
          "velocity": 0.3937007874015748
        },
        {
          "duration": 0.1578944999999976,
          "durationTicks": 96,
          "midi": 61,
          "name": "C#4",
          "ticks": 85248,
          "time": 140.210316,
          "velocity": 0.3937007874015748
        },
        {
          "duration": 0.1578944999999976,
          "durationTicks": 96,
          "midi": 59,
          "name": "B3",
          "ticks": 85344,
          "time": 140.3682105,
          "velocity": 0.3937007874015748
        },
        {
          "duration": 0.3157889999999952,
          "durationTicks": 192,
          "midi": 56,
          "name": "G#3",
          "ticks": 85440,
          "time": 140.526105,
          "velocity": 0.3937007874015748
        },
        {
          "duration": 0.3157889999999952,
          "durationTicks": 192,
          "midi": 54,
          "name": "F#3",
          "ticks": 85632,
          "time": 140.841894,
          "velocity": 0.3937007874015748
        },
        {
          "duration": 0.1578944999999976,
          "durationTicks": 96,
          "midi": 56,
          "name": "G#3",
          "ticks": 85824,
          "time": 141.157683,
          "velocity": 0.3937007874015748
        },
        {
          "duration": 0.1578944999999976,
          "durationTicks": 96,
          "midi": 52,
          "name": "E3",
          "ticks": 85920,
          "time": 141.3155775,
          "velocity": 0.3937007874015748
        },
        {
          "duration": 0.3157889999999952,
          "durationTicks": 192,
          "midi": 44,
          "name": "G#2",
          "ticks": 86016,
          "time": 141.473472,
          "velocity": 0.3937007874015748
        },
        {
          "duration": 0.31578900000002363,
          "durationTicks": 192,
          "midi": 61,
          "name": "C#4",
          "ticks": 86208,
          "time": 141.78926099999998,
          "velocity": 0.3937007874015748
        },
        {
          "duration": 0.3157889999999952,
          "durationTicks": 192,
          "midi": 44,
          "name": "G#2",
          "ticks": 86400,
          "time": 142.10505,
          "velocity": 0.3937007874015748
        },
        {
          "duration": 0.3157889999999952,
          "durationTicks": 192,
          "midi": 61,
          "name": "C#4",
          "ticks": 86592,
          "time": 142.420839,
          "velocity": 0.3937007874015748
        },
        {
          "duration": 0.3157889999999952,
          "durationTicks": 192,
          "midi": 43,
          "name": "G2",
          "ticks": 86784,
          "time": 142.736628,
          "velocity": 0.3937007874015748
        },
        {
          "duration": 0.3157889999999952,
          "durationTicks": 192,
          "midi": 61,
          "name": "C#4",
          "ticks": 86976,
          "time": 143.052417,
          "velocity": 0.3937007874015748
        },
        {
          "duration": 0.3157889999999952,
          "durationTicks": 192,
          "midi": 45,
          "name": "A2",
          "ticks": 87168,
          "time": 143.368206,
          "velocity": 0.3937007874015748
        },
        {
          "duration": 0.31578900000002363,
          "durationTicks": 192,
          "midi": 63,
          "name": "D#4",
          "ticks": 87360,
          "time": 143.68399499999998,
          "velocity": 0.3937007874015748
        },
        {
          "duration": 0.3157889999999952,
          "durationTicks": 192,
          "midi": 49,
          "name": "C#3",
          "ticks": 87552,
          "time": 143.999784,
          "velocity": 0.3937007874015748
        },
        {
          "duration": 0.3157889999999952,
          "durationTicks": 192,
          "midi": 61,
          "name": "C#4",
          "ticks": 87744,
          "time": 144.315573,
          "velocity": 0.3937007874015748
        },
        {
          "duration": 0.1578944999999976,
          "durationTicks": 96,
          "midi": 56,
          "name": "G#3",
          "ticks": 87936,
          "time": 144.631362,
          "velocity": 0.3937007874015748
        },
        {
          "duration": 0.3157889999999952,
          "durationTicks": 192,
          "midi": 55,
          "name": "G3",
          "ticks": 88224,
          "time": 145.1050455,
          "velocity": 0.3937007874015748
        },
        {
          "duration": 0.31578900000002363,
          "durationTicks": 192,
          "midi": 54,
          "name": "F#3",
          "ticks": 88512,
          "time": 145.57872899999998,
          "velocity": 0.3937007874015748
        },
        {
          "duration": 0.1578944999999976,
          "durationTicks": 96,
          "midi": 52,
          "name": "E3",
          "ticks": 88704,
          "time": 145.894518,
          "velocity": 0.3937007874015748
        },
        {
          "duration": 0.1578944999999976,
          "durationTicks": 96,
          "midi": 49,
          "name": "C#3",
          "ticks": 88800,
          "time": 146.0524125,
          "velocity": 0.3937007874015748
        },
        {
          "duration": 0.1578944999999976,
          "durationTicks": 96,
          "midi": 52,
          "name": "E3",
          "ticks": 88896,
          "time": 146.210307,
          "velocity": 0.3937007874015748
        },
        {
          "duration": 0.1578944999999976,
          "durationTicks": 96,
          "midi": 54,
          "name": "F#3",
          "ticks": 88992,
          "time": 146.3682015,
          "velocity": 0.3937007874015748
        },
        {
          "duration": 0.3157889999999952,
          "durationTicks": 192,
          "midi": 47,
          "name": "B2",
          "ticks": 89088,
          "time": 146.526096,
          "velocity": 0.3937007874015748
        },
        {
          "duration": 0.3157889999999952,
          "durationTicks": 192,
          "midi": 61,
          "name": "C#4",
          "ticks": 89280,
          "time": 146.841885,
          "velocity": 0.3937007874015748
        },
        {
          "duration": 0.3157889999999952,
          "durationTicks": 192,
          "midi": 56,
          "name": "G#3",
          "ticks": 89472,
          "time": 147.157674,
          "velocity": 0.3937007874015748
        },
        {
          "duration": 0.31578900000002363,
          "durationTicks": 192,
          "midi": 54,
          "name": "F#3",
          "ticks": 89664,
          "time": 147.47346299999998,
          "velocity": 0.3937007874015748
        },
        {
          "duration": 0.3157889999999952,
          "durationTicks": 192,
          "midi": 52,
          "name": "E3",
          "ticks": 89856,
          "time": 147.789252,
          "velocity": 0.3937007874015748
        },
        {
          "duration": 0.1578944999999976,
          "durationTicks": 96,
          "midi": 51,
          "name": "D#3",
          "ticks": 90048,
          "time": 148.105041,
          "velocity": 0.3937007874015748
        },
        {
          "duration": 0.1578944999999976,
          "durationTicks": 96,
          "midi": 52,
          "name": "E3",
          "ticks": 90144,
          "time": 148.2629355,
          "velocity": 0.3937007874015748
        },
        {
          "duration": 0.1578944999999976,
          "durationTicks": 96,
          "midi": 51,
          "name": "D#3",
          "ticks": 90240,
          "time": 148.42083,
          "velocity": 0.3937007874015748
        },
        {
          "duration": 0.1578944999999976,
          "durationTicks": 96,
          "midi": 49,
          "name": "C#3",
          "ticks": 90336,
          "time": 148.5787245,
          "velocity": 0.3937007874015748
        },
        {
          "duration": 0.1578944999999976,
          "durationTicks": 96,
          "midi": 47,
          "name": "B2",
          "ticks": 90432,
          "time": 148.736619,
          "velocity": 0.3937007874015748
        },
        {
          "duration": 0.1578944999999976,
          "durationTicks": 96,
          "midi": 44,
          "name": "G#2",
          "ticks": 90528,
          "time": 148.8945135,
          "velocity": 0.3937007874015748
        },
        {
          "duration": 0.1578944999999976,
          "durationTicks": 96,
          "midi": 45,
          "name": "A2",
          "ticks": 90624,
          "time": 149.05240799999999,
          "velocity": 0.3937007874015748
        },
        {
          "duration": 0.1578944999999976,
          "durationTicks": 96,
          "midi": 45,
          "name": "A2",
          "ticks": 90720,
          "time": 149.21030249999998,
          "velocity": 0.3937007874015748
        },
        {
          "duration": 0.31578900000002363,
          "durationTicks": 192,
          "midi": 61,
          "name": "C#4",
          "ticks": 90816,
          "time": 149.36819699999998,
          "velocity": 0.3937007874015748
        },
        {
          "duration": 0.3157889999999952,
          "durationTicks": 192,
          "midi": 56,
          "name": "G#3",
          "ticks": 91008,
          "time": 149.683986,
          "velocity": 0.3937007874015748
        },
        {
          "duration": 0.1578944999999976,
          "durationTicks": 96,
          "midi": 61,
          "name": "C#4",
          "ticks": 91200,
          "time": 149.999775,
          "velocity": 0.3937007874015748
        },
        {
          "duration": 0.1578944999999976,
          "durationTicks": 96,
          "midi": 57,
          "name": "A3",
          "ticks": 91296,
          "time": 150.1576695,
          "velocity": 0.3937007874015748
        },
        {
          "duration": 0.1578944999999976,
          "durationTicks": 96,
          "midi": 61,
          "name": "C#4",
          "ticks": 91392,
          "time": 150.315564,
          "velocity": 0.3937007874015748
        },
        {
          "duration": 0.1578944999999976,
          "durationTicks": 96,
          "midi": 59,
          "name": "B3",
          "ticks": 91488,
          "time": 150.4734585,
          "velocity": 0.3937007874015748
        },
        {
          "duration": 0.3157889999999952,
          "durationTicks": 192,
          "midi": 56,
          "name": "G#3",
          "ticks": 91584,
          "time": 150.631353,
          "velocity": 0.3937007874015748
        },
        {
          "duration": 0.3157889999999952,
          "durationTicks": 192,
          "midi": 54,
          "name": "F#3",
          "ticks": 91776,
          "time": 150.94714199999999,
          "velocity": 0.3937007874015748
        },
        {
          "duration": 0.15789450000002603,
          "durationTicks": 96,
          "midi": 56,
          "name": "G#3",
          "ticks": 91968,
          "time": 151.26293099999998,
          "velocity": 0.3937007874015748
        },
        {
          "duration": 0.1578944999999976,
          "durationTicks": 96,
          "midi": 52,
          "name": "E3",
          "ticks": 92064,
          "time": 151.4208255,
          "velocity": 0.3937007874015748
        },
        {
          "duration": 0.3157889999999952,
          "durationTicks": 192,
          "midi": 44,
          "name": "G#2",
          "ticks": 92160,
          "time": 151.57872,
          "velocity": 0.3937007874015748
        },
        {
          "duration": 0.3157889999999952,
          "durationTicks": 192,
          "midi": 61,
          "name": "C#4",
          "ticks": 92352,
          "time": 151.894509,
          "velocity": 0.3937007874015748
        },
        {
          "duration": 0.3157889999999952,
          "durationTicks": 192,
          "midi": 44,
          "name": "G#2",
          "ticks": 92544,
          "time": 152.210298,
          "velocity": 0.3937007874015748
        },
        {
          "duration": 0.3157889999999952,
          "durationTicks": 192,
          "midi": 61,
          "name": "C#4",
          "ticks": 92736,
          "time": 152.526087,
          "velocity": 0.3937007874015748
        },
        {
          "duration": 0.3157889999999952,
          "durationTicks": 192,
          "midi": 43,
          "name": "G2",
          "ticks": 92928,
          "time": 152.84187599999998,
          "velocity": 0.3937007874015748
        },
        {
          "duration": 0.31578900000002363,
          "durationTicks": 192,
          "midi": 61,
          "name": "C#4",
          "ticks": 93120,
          "time": 153.15766499999998,
          "velocity": 0.3937007874015748
        },
        {
          "duration": 0.3157889999999952,
          "durationTicks": 192,
          "midi": 45,
          "name": "A2",
          "ticks": 93312,
          "time": 153.473454,
          "velocity": 0.3937007874015748
        },
        {
          "duration": 0.3157889999999952,
          "durationTicks": 192,
          "midi": 63,
          "name": "D#4",
          "ticks": 93504,
          "time": 153.789243,
          "velocity": 0.3937007874015748
        },
        {
          "duration": 0.3157889999999952,
          "durationTicks": 192,
          "midi": 49,
          "name": "C#3",
          "ticks": 93696,
          "time": 154.105032,
          "velocity": 0.3937007874015748
        },
        {
          "duration": 0.3157889999999952,
          "durationTicks": 192,
          "midi": 61,
          "name": "C#4",
          "ticks": 93888,
          "time": 154.420821,
          "velocity": 0.3937007874015748
        },
        {
          "duration": 0.1578944999999976,
          "durationTicks": 96,
          "midi": 56,
          "name": "G#3",
          "ticks": 94080,
          "time": 154.73660999999998,
          "velocity": 0.3937007874015748
        },
        {
          "duration": 0.3157889999999952,
          "durationTicks": 192,
          "midi": 55,
          "name": "G3",
          "ticks": 94368,
          "time": 155.2102935,
          "velocity": 0.3937007874015748
        },
        {
          "duration": 0.3157889999999952,
          "durationTicks": 192,
          "midi": 54,
          "name": "F#3",
          "ticks": 94656,
          "time": 155.683977,
          "velocity": 0.3937007874015748
        },
        {
          "duration": 0.1578944999999976,
          "durationTicks": 96,
          "midi": 52,
          "name": "E3",
          "ticks": 94848,
          "time": 155.999766,
          "velocity": 0.3937007874015748
        },
        {
          "duration": 0.1578944999999976,
          "durationTicks": 96,
          "midi": 49,
          "name": "C#3",
          "ticks": 94944,
          "time": 156.1576605,
          "velocity": 0.3937007874015748
        },
        {
          "duration": 0.1578944999999976,
          "durationTicks": 96,
          "midi": 52,
          "name": "E3",
          "ticks": 95040,
          "time": 156.315555,
          "velocity": 0.3937007874015748
        },
        {
          "duration": 0.1578944999999976,
          "durationTicks": 96,
          "midi": 54,
          "name": "F#3",
          "ticks": 95136,
          "time": 156.4734495,
          "velocity": 0.3937007874015748
        },
        {
          "duration": 0.3157889999999952,
          "durationTicks": 192,
          "midi": 47,
          "name": "B2",
          "ticks": 95232,
          "time": 156.63134399999998,
          "velocity": 0.3937007874015748
        },
        {
          "duration": 0.31578900000002363,
          "durationTicks": 192,
          "midi": 61,
          "name": "C#4",
          "ticks": 95424,
          "time": 156.94713299999998,
          "velocity": 0.3937007874015748
        },
        {
          "duration": 0.3157889999999952,
          "durationTicks": 192,
          "midi": 56,
          "name": "G#3",
          "ticks": 95616,
          "time": 157.262922,
          "velocity": 0.3937007874015748
        },
        {
          "duration": 0.3157889999999952,
          "durationTicks": 192,
          "midi": 54,
          "name": "F#3",
          "ticks": 95808,
          "time": 157.578711,
          "velocity": 0.3937007874015748
        },
        {
          "duration": 0.3157889999999952,
          "durationTicks": 192,
          "midi": 52,
          "name": "E3",
          "ticks": 96000,
          "time": 157.8945,
          "velocity": 0.3937007874015748
        },
        {
          "duration": 0.1578944999999976,
          "durationTicks": 96,
          "midi": 51,
          "name": "D#3",
          "ticks": 96192,
          "time": 158.210289,
          "velocity": 0.3937007874015748
        },
        {
          "duration": 0.1578944999999976,
          "durationTicks": 96,
          "midi": 52,
          "name": "E3",
          "ticks": 96288,
          "time": 158.3681835,
          "velocity": 0.3937007874015748
        },
        {
          "duration": 0.1578944999999976,
          "durationTicks": 96,
          "midi": 51,
          "name": "D#3",
          "ticks": 96384,
          "time": 158.52607799999998,
          "velocity": 0.3937007874015748
        },
        {
          "duration": 0.1578944999999976,
          "durationTicks": 96,
          "midi": 49,
          "name": "C#3",
          "ticks": 96480,
          "time": 158.68397249999998,
          "velocity": 0.3937007874015748
        },
        {
          "duration": 0.15789450000002603,
          "durationTicks": 96,
          "midi": 47,
          "name": "B2",
          "ticks": 96576,
          "time": 158.84186699999998,
          "velocity": 0.3937007874015748
        },
        {
          "duration": 0.1578944999999976,
          "durationTicks": 96,
          "midi": 44,
          "name": "G#2",
          "ticks": 96672,
          "time": 158.9997615,
          "velocity": 0.3937007874015748
        },
        {
          "duration": 0.1578944999999976,
          "durationTicks": 96,
          "midi": 45,
          "name": "A2",
          "ticks": 96768,
          "time": 159.157656,
          "velocity": 0.3937007874015748
        },
        {
          "duration": 0.1578944999999976,
          "durationTicks": 96,
          "midi": 45,
          "name": "A2",
          "ticks": 96864,
          "time": 159.3155505,
          "velocity": 0.3937007874015748
        },
        {
          "duration": 0.3157889999999952,
          "durationTicks": 192,
          "midi": 61,
          "name": "C#4",
          "ticks": 96960,
          "time": 159.473445,
          "velocity": 0.3937007874015748
        },
        {
          "duration": 0.3157889999999952,
          "durationTicks": 192,
          "midi": 56,
          "name": "G#3",
          "ticks": 97152,
          "time": 159.789234,
          "velocity": 0.3937007874015748
        },
        {
          "duration": 0.1578944999999976,
          "durationTicks": 96,
          "midi": 61,
          "name": "C#4",
          "ticks": 97344,
          "time": 160.105023,
          "velocity": 0.3937007874015748
        },
        {
          "duration": 0.1578944999999976,
          "durationTicks": 96,
          "midi": 57,
          "name": "A3",
          "ticks": 97440,
          "time": 160.2629175,
          "velocity": 0.3937007874015748
        },
        {
          "duration": 0.1578944999999976,
          "durationTicks": 96,
          "midi": 61,
          "name": "C#4",
          "ticks": 97536,
          "time": 160.42081199999998,
          "velocity": 0.3937007874015748
        },
        {
          "duration": 0.1578944999999976,
          "durationTicks": 96,
          "midi": 59,
          "name": "B3",
          "ticks": 97632,
          "time": 160.57870649999998,
          "velocity": 0.3937007874015748
        },
        {
          "duration": 0.31578900000002363,
          "durationTicks": 192,
          "midi": 56,
          "name": "G#3",
          "ticks": 97728,
          "time": 160.73660099999998,
          "velocity": 0.3937007874015748
        },
        {
          "duration": 0.3157889999999952,
          "durationTicks": 192,
          "midi": 54,
          "name": "F#3",
          "ticks": 97920,
          "time": 161.05239,
          "velocity": 0.3937007874015748
        },
        {
          "duration": 0.1578944999999976,
          "durationTicks": 96,
          "midi": 56,
          "name": "G#3",
          "ticks": 98112,
          "time": 161.368179,
          "velocity": 0.3937007874015748
        },
        {
          "duration": 0.1578944999999976,
          "durationTicks": 96,
          "midi": 52,
          "name": "E3",
          "ticks": 98208,
          "time": 161.5260735,
          "velocity": 0.3937007874015748
        },
        {
          "duration": 0.3157889999999952,
          "durationTicks": 192,
          "midi": 44,
          "name": "G#2",
          "ticks": 98304,
          "time": 161.683968,
          "velocity": 0.3937007874015748
        },
        {
          "duration": 0.3157889999999952,
          "durationTicks": 192,
          "midi": 61,
          "name": "C#4",
          "ticks": 98496,
          "time": 161.999757,
          "velocity": 0.3937007874015748
        },
        {
          "duration": 0.31578900000002363,
          "durationTicks": 192,
          "midi": 44,
          "name": "G#2",
          "ticks": 98688,
          "time": 162.31554599999998,
          "velocity": 0.3937007874015748
        },
        {
          "duration": 0.3157889999999952,
          "durationTicks": 192,
          "midi": 61,
          "name": "C#4",
          "ticks": 98880,
          "time": 162.631335,
          "velocity": 0.3937007874015748
        },
        {
          "duration": 0.3157889999999952,
          "durationTicks": 192,
          "midi": 43,
          "name": "G2",
          "ticks": 99072,
          "time": 162.947124,
          "velocity": 0.3937007874015748
        },
        {
          "duration": 0.3157889999999952,
          "durationTicks": 192,
          "midi": 61,
          "name": "C#4",
          "ticks": 99264,
          "time": 163.262913,
          "velocity": 0.3937007874015748
        },
        {
          "duration": 0.3157889999999952,
          "durationTicks": 192,
          "midi": 45,
          "name": "A2",
          "ticks": 99456,
          "time": 163.578702,
          "velocity": 0.3937007874015748
        },
        {
          "duration": 0.3157889999999952,
          "durationTicks": 192,
          "midi": 63,
          "name": "D#4",
          "ticks": 99648,
          "time": 163.894491,
          "velocity": 0.3937007874015748
        },
        {
          "duration": 0.31578900000002363,
          "durationTicks": 192,
          "midi": 61,
          "name": "C#4",
          "ticks": 99840,
          "time": 164.21027999999998,
          "velocity": 0.3937007874015748
        },
        {
          "duration": 0.3157889999999952,
          "durationTicks": 192,
          "midi": 73,
          "name": "C#5",
          "ticks": 100032,
          "time": 164.526069,
          "velocity": 0.3937007874015748
        },
        {
          "duration": 0.1578944999999976,
          "durationTicks": 96,
          "midi": 68,
          "name": "G#4",
          "ticks": 100224,
          "time": 164.841858,
          "velocity": 0.3937007874015748
        },
        {
          "duration": 0.3157889999999952,
          "durationTicks": 192,
          "midi": 67,
          "name": "G4",
          "ticks": 100512,
          "time": 165.3155415,
          "velocity": 0.3937007874015748
        },
        {
          "duration": 0.3157889999999952,
          "durationTicks": 192,
          "midi": 66,
          "name": "F#4",
          "ticks": 100800,
          "time": 165.789225,
          "velocity": 0.3937007874015748
        },
        {
          "duration": 0.1578944999999976,
          "durationTicks": 96,
          "midi": 64,
          "name": "E4",
          "ticks": 100992,
          "time": 166.10501399999998,
          "velocity": 0.3937007874015748
        },
        {
          "duration": 0.15789450000002603,
          "durationTicks": 96,
          "midi": 61,
          "name": "C#4",
          "ticks": 101088,
          "time": 166.26290849999998,
          "velocity": 0.3937007874015748
        },
        {
          "duration": 0.1578944999999976,
          "durationTicks": 96,
          "midi": 64,
          "name": "E4",
          "ticks": 101184,
          "time": 166.420803,
          "velocity": 0.3937007874015748
        },
        {
          "duration": 0.1578944999999976,
          "durationTicks": 96,
          "midi": 66,
          "name": "F#4",
          "ticks": 101280,
          "time": 166.5786975,
          "velocity": 0.3937007874015748
        },
        {
          "duration": 0.3157889999999952,
          "durationTicks": 192,
          "midi": 59,
          "name": "B3",
          "ticks": 101376,
          "time": 166.736592,
          "velocity": 0.3937007874015748
        },
        {
          "duration": 0.3157889999999952,
          "durationTicks": 192,
          "midi": 73,
          "name": "C#5",
          "ticks": 101568,
          "time": 167.052381,
          "velocity": 0.3937007874015748
        },
        {
          "duration": 0.3157889999999952,
          "durationTicks": 192,
          "midi": 68,
          "name": "G#4",
          "ticks": 101760,
          "time": 167.36817,
          "velocity": 0.3937007874015748
        },
        {
          "duration": 0.3157889999999952,
          "durationTicks": 192,
          "midi": 66,
          "name": "F#4",
          "ticks": 101952,
          "time": 167.683959,
          "velocity": 0.3937007874015748
        },
        {
          "duration": 0.31578900000002363,
          "durationTicks": 192,
          "midi": 64,
          "name": "E4",
          "ticks": 102144,
          "time": 167.99974799999998,
          "velocity": 0.3937007874015748
        },
        {
          "duration": 0.1578944999999976,
          "durationTicks": 96,
          "midi": 63,
          "name": "D#4",
          "ticks": 102336,
          "time": 168.315537,
          "velocity": 0.3937007874015748
        },
        {
          "duration": 0.1578944999999976,
          "durationTicks": 96,
          "midi": 64,
          "name": "E4",
          "ticks": 102432,
          "time": 168.4734315,
          "velocity": 0.3937007874015748
        },
        {
          "duration": 0.1578944999999976,
          "durationTicks": 96,
          "midi": 63,
          "name": "D#4",
          "ticks": 102528,
          "time": 168.631326,
          "velocity": 0.3937007874015748
        },
        {
          "duration": 0.1578944999999976,
          "durationTicks": 96,
          "midi": 61,
          "name": "C#4",
          "ticks": 102624,
          "time": 168.7892205,
          "velocity": 0.3937007874015748
        },
        {
          "duration": 0.1578944999999976,
          "durationTicks": 96,
          "midi": 59,
          "name": "B3",
          "ticks": 102720,
          "time": 168.947115,
          "velocity": 0.3937007874015748
        },
        {
          "duration": 0.1578944999999976,
          "durationTicks": 96,
          "midi": 56,
          "name": "G#3",
          "ticks": 102816,
          "time": 169.1050095,
          "velocity": 0.3937007874015748
        },
        {
          "duration": 0.1578944999999976,
          "durationTicks": 96,
          "midi": 57,
          "name": "A3",
          "ticks": 102912,
          "time": 169.262904,
          "velocity": 0.3937007874015748
        },
        {
          "duration": 0.1578944999999976,
          "durationTicks": 96,
          "midi": 57,
          "name": "A3",
          "ticks": 103008,
          "time": 169.4207985,
          "velocity": 0.3937007874015748
        },
        {
          "duration": 0.3157889999999952,
          "durationTicks": 192,
          "midi": 73,
          "name": "C#5",
          "ticks": 103104,
          "time": 169.578693,
          "velocity": 0.3937007874015748
        },
        {
          "duration": 0.31578900000002363,
          "durationTicks": 192,
          "midi": 68,
          "name": "G#4",
          "ticks": 103296,
          "time": 169.89448199999998,
          "velocity": 0.3937007874015748
        },
        {
          "duration": 0.1578944999999976,
          "durationTicks": 96,
          "midi": 73,
          "name": "C#5",
          "ticks": 103488,
          "time": 170.210271,
          "velocity": 0.3937007874015748
        },
        {
          "duration": 0.1578944999999976,
          "durationTicks": 96,
          "midi": 69,
          "name": "A4",
          "ticks": 103584,
          "time": 170.3681655,
          "velocity": 0.3937007874015748
        },
        {
          "duration": 0.1578944999999976,
          "durationTicks": 96,
          "midi": 73,
          "name": "C#5",
          "ticks": 103680,
          "time": 170.52606,
          "velocity": 0.3937007874015748
        },
        {
          "duration": 0.1578944999999976,
          "durationTicks": 96,
          "midi": 71,
          "name": "B4",
          "ticks": 103776,
          "time": 170.6839545,
          "velocity": 0.3937007874015748
        },
        {
          "duration": 0.3157889999999952,
          "durationTicks": 192,
          "midi": 68,
          "name": "G#4",
          "ticks": 103872,
          "time": 170.841849,
          "velocity": 0.3937007874015748
        },
        {
          "duration": 0.3157889999999952,
          "durationTicks": 192,
          "midi": 66,
          "name": "F#4",
          "ticks": 104064,
          "time": 171.157638,
          "velocity": 0.3937007874015748
        },
        {
          "duration": 0.1578944999999976,
          "durationTicks": 96,
          "midi": 68,
          "name": "G#4",
          "ticks": 104256,
          "time": 171.473427,
          "velocity": 0.3937007874015748
        },
        {
          "duration": 0.1578944999999976,
          "durationTicks": 96,
          "midi": 64,
          "name": "E4",
          "ticks": 104352,
          "time": 171.63132149999998,
          "velocity": 0.3937007874015748
        },
        {
          "duration": 0.31578900000002363,
          "durationTicks": 192,
          "midi": 56,
          "name": "G#3",
          "ticks": 104448,
          "time": 171.78921599999998,
          "velocity": 0.3937007874015748
        },
        {
          "duration": 0.3157889999999952,
          "durationTicks": 192,
          "midi": 73,
          "name": "C#5",
          "ticks": 104640,
          "time": 172.105005,
          "velocity": 0.3937007874015748
        },
        {
          "duration": 0.3157889999999952,
          "durationTicks": 192,
          "midi": 56,
          "name": "G#3",
          "ticks": 104832,
          "time": 172.420794,
          "velocity": 0.3937007874015748
        },
        {
          "duration": 0.3157889999999952,
          "durationTicks": 192,
          "midi": 73,
          "name": "C#5",
          "ticks": 105024,
          "time": 172.736583,
          "velocity": 0.3937007874015748
        },
        {
          "duration": 0.3157889999999952,
          "durationTicks": 192,
          "midi": 55,
          "name": "G3",
          "ticks": 105216,
          "time": 173.052372,
          "velocity": 0.3937007874015748
        },
        {
          "duration": 0.3157889999999952,
          "durationTicks": 192,
          "midi": 73,
          "name": "C#5",
          "ticks": 105408,
          "time": 173.368161,
          "velocity": 0.3937007874015748
        },
        {
          "duration": 0.31578900000002363,
          "durationTicks": 192,
          "midi": 57,
          "name": "A3",
          "ticks": 105600,
          "time": 173.68394999999998,
          "velocity": 0.3937007874015748
        },
        {
          "duration": 0.3157889999999952,
          "durationTicks": 192,
          "midi": 75,
          "name": "D#5",
          "ticks": 105792,
          "time": 173.999739,
          "velocity": 0.3937007874015748
        },
        {
          "duration": 0.3157889999999952,
          "durationTicks": 192,
          "midi": 61,
          "name": "C#4",
          "ticks": 105984,
          "time": 174.315528,
          "velocity": 0.3937007874015748
        },
        {
          "duration": 0.3157889999999952,
          "durationTicks": 192,
          "midi": 73,
          "name": "C#5",
          "ticks": 106176,
          "time": 174.631317,
          "velocity": 0.3937007874015748
        },
        {
          "duration": 0.1578944999999976,
          "durationTicks": 96,
          "midi": 68,
          "name": "G#4",
          "ticks": 106368,
          "time": 174.947106,
          "velocity": 0.3937007874015748
        },
        {
          "duration": 0.3157889999999952,
          "durationTicks": 192,
          "midi": 67,
          "name": "G4",
          "ticks": 106656,
          "time": 175.42078949999998,
          "velocity": 0.3937007874015748
        },
        {
          "duration": 0.3157889999999952,
          "durationTicks": 192,
          "midi": 66,
          "name": "F#4",
          "ticks": 106944,
          "time": 175.894473,
          "velocity": 0.3937007874015748
        },
        {
          "duration": 0.1578944999999976,
          "durationTicks": 96,
          "midi": 64,
          "name": "E4",
          "ticks": 107136,
          "time": 176.210262,
          "velocity": 0.3937007874015748
        },
        {
          "duration": 0.1578944999999976,
          "durationTicks": 96,
          "midi": 61,
          "name": "C#4",
          "ticks": 107232,
          "time": 176.3681565,
          "velocity": 0.3937007874015748
        },
        {
          "duration": 0.1578944999999976,
          "durationTicks": 96,
          "midi": 64,
          "name": "E4",
          "ticks": 107328,
          "time": 176.526051,
          "velocity": 0.3937007874015748
        },
        {
          "duration": 0.1578944999999976,
          "durationTicks": 96,
          "midi": 66,
          "name": "F#4",
          "ticks": 107424,
          "time": 176.6839455,
          "velocity": 0.3937007874015748
        },
        {
          "duration": 0.3157889999999952,
          "durationTicks": 192,
          "midi": 59,
          "name": "B3",
          "ticks": 107520,
          "time": 176.84184,
          "velocity": 0.3937007874015748
        },
        {
          "duration": 0.3157889999999952,
          "durationTicks": 192,
          "midi": 73,
          "name": "C#5",
          "ticks": 107712,
          "time": 177.157629,
          "velocity": 0.3937007874015748
        },
        {
          "duration": 0.31578900000002363,
          "durationTicks": 192,
          "midi": 68,
          "name": "G#4",
          "ticks": 107904,
          "time": 177.47341799999998,
          "velocity": 0.3937007874015748
        },
        {
          "duration": 0.3157889999999952,
          "durationTicks": 192,
          "midi": 66,
          "name": "F#4",
          "ticks": 108096,
          "time": 177.789207,
          "velocity": 0.3937007874015748
        },
        {
          "duration": 0.3157889999999952,
          "durationTicks": 192,
          "midi": 64,
          "name": "E4",
          "ticks": 108288,
          "time": 178.104996,
          "velocity": 0.3937007874015748
        },
        {
          "duration": 0.1578944999999976,
          "durationTicks": 96,
          "midi": 63,
          "name": "D#4",
          "ticks": 108480,
          "time": 178.420785,
          "velocity": 0.3937007874015748
        },
        {
          "duration": 0.1578944999999976,
          "durationTicks": 96,
          "midi": 64,
          "name": "E4",
          "ticks": 108576,
          "time": 178.5786795,
          "velocity": 0.3937007874015748
        },
        {
          "duration": 0.1578944999999976,
          "durationTicks": 96,
          "midi": 63,
          "name": "D#4",
          "ticks": 108672,
          "time": 178.736574,
          "velocity": 0.3937007874015748
        },
        {
          "duration": 0.1578944999999976,
          "durationTicks": 96,
          "midi": 61,
          "name": "C#4",
          "ticks": 108768,
          "time": 178.8944685,
          "velocity": 0.3937007874015748
        },
        {
          "duration": 0.1578944999999976,
          "durationTicks": 96,
          "midi": 59,
          "name": "B3",
          "ticks": 108864,
          "time": 179.05236299999999,
          "velocity": 0.3937007874015748
        },
        {
          "duration": 0.1578944999999976,
          "durationTicks": 96,
          "midi": 56,
          "name": "G#3",
          "ticks": 108960,
          "time": 179.21025749999998,
          "velocity": 0.3937007874015748
        },
        {
          "duration": 0.1578944999999976,
          "durationTicks": 96,
          "midi": 57,
          "name": "A3",
          "ticks": 109056,
          "time": 179.36815199999998,
          "velocity": 0.3937007874015748
        },
        {
          "duration": 0.15789450000002603,
          "durationTicks": 96,
          "midi": 57,
          "name": "A3",
          "ticks": 109152,
          "time": 179.52604649999998,
          "velocity": 0.3937007874015748
        },
        {
          "duration": 0.3157889999999952,
          "durationTicks": 192,
          "midi": 73,
          "name": "C#5",
          "ticks": 109248,
          "time": 179.683941,
          "velocity": 0.3937007874015748
        },
        {
          "duration": 0.3157889999999952,
          "durationTicks": 192,
          "midi": 68,
          "name": "G#4",
          "ticks": 109440,
          "time": 179.99973,
          "velocity": 0.3937007874015748
        },
        {
          "duration": 0.1578944999999976,
          "durationTicks": 96,
          "midi": 73,
          "name": "C#5",
          "ticks": 109632,
          "time": 180.315519,
          "velocity": 0.3937007874015748
        },
        {
          "duration": 0.1578944999999976,
          "durationTicks": 96,
          "midi": 69,
          "name": "A4",
          "ticks": 109728,
          "time": 180.4734135,
          "velocity": 0.3937007874015748
        },
        {
          "duration": 0.1578944999999976,
          "durationTicks": 96,
          "midi": 73,
          "name": "C#5",
          "ticks": 109824,
          "time": 180.631308,
          "velocity": 0.3937007874015748
        },
        {
          "duration": 0.1578944999999976,
          "durationTicks": 96,
          "midi": 71,
          "name": "B4",
          "ticks": 109920,
          "time": 180.7892025,
          "velocity": 0.3937007874015748
        },
        {
          "duration": 0.3157889999999952,
          "durationTicks": 192,
          "midi": 68,
          "name": "G#4",
          "ticks": 110016,
          "time": 180.94709699999999,
          "velocity": 0.3937007874015748
        },
        {
          "duration": 0.31578900000002363,
          "durationTicks": 192,
          "midi": 66,
          "name": "F#4",
          "ticks": 110208,
          "time": 181.26288599999998,
          "velocity": 0.3937007874015748
        },
        {
          "duration": 0.1578944999999976,
          "durationTicks": 96,
          "midi": 68,
          "name": "G#4",
          "ticks": 110400,
          "time": 181.578675,
          "velocity": 0.3937007874015748
        },
        {
          "duration": 0.1578944999999976,
          "durationTicks": 96,
          "midi": 64,
          "name": "E4",
          "ticks": 110496,
          "time": 181.7365695,
          "velocity": 0.3937007874015748
        },
        {
          "duration": 0.3157889999999952,
          "durationTicks": 192,
          "midi": 56,
          "name": "G#3",
          "ticks": 110592,
          "time": 181.894464,
          "velocity": 0.3937007874015748
        },
        {
          "duration": 0.3157889999999952,
          "durationTicks": 192,
          "midi": 73,
          "name": "C#5",
          "ticks": 110784,
          "time": 182.210253,
          "velocity": 0.3937007874015748
        },
        {
          "duration": 0.3157889999999952,
          "durationTicks": 192,
          "midi": 56,
          "name": "G#3",
          "ticks": 110976,
          "time": 182.526042,
          "velocity": 0.3937007874015748
        },
        {
          "duration": 0.3157889999999952,
          "durationTicks": 192,
          "midi": 73,
          "name": "C#5",
          "ticks": 111168,
          "time": 182.84183099999998,
          "velocity": 0.3937007874015748
        },
        {
          "duration": 0.31578900000002363,
          "durationTicks": 192,
          "midi": 55,
          "name": "G3",
          "ticks": 111360,
          "time": 183.15761999999998,
          "velocity": 0.3937007874015748
        },
        {
          "duration": 0.3157889999999952,
          "durationTicks": 192,
          "midi": 73,
          "name": "C#5",
          "ticks": 111552,
          "time": 183.473409,
          "velocity": 0.3937007874015748
        },
        {
          "duration": 0.3157889999999952,
          "durationTicks": 192,
          "midi": 57,
          "name": "A3",
          "ticks": 111744,
          "time": 183.789198,
          "velocity": 0.3937007874015748
        },
        {
          "duration": 0.3157889999999952,
          "durationTicks": 192,
          "midi": 75,
          "name": "D#5",
          "ticks": 111936,
          "time": 184.104987,
          "velocity": 0.3937007874015748
        },
        {
          "duration": 0.3157889999999952,
          "durationTicks": 192,
          "midi": 85,
          "name": "C#6",
          "ticks": 112128,
          "time": 184.420776,
          "velocity": 0.3937007874015748
        },
        {
          "duration": 0.3157889999999952,
          "durationTicks": 192,
          "midi": 85,
          "name": "C#6",
          "ticks": 112320,
          "time": 184.73656499999998,
          "velocity": 0.3937007874015748
        },
        {
          "duration": 0.15789450000002603,
          "durationTicks": 96,
          "midi": 92,
          "name": "G#6",
          "ticks": 112512,
          "time": 185.05235399999998,
          "velocity": 0.3937007874015748
        },
        {
          "duration": 0.3157889999999952,
          "durationTicks": 192,
          "midi": 91,
          "name": "G6",
          "ticks": 112800,
          "time": 185.5260375,
          "velocity": 0.3937007874015748
        },
        {
          "duration": 0.3157889999999952,
          "durationTicks": 192,
          "midi": 90,
          "name": "F#6",
          "ticks": 113088,
          "time": 185.999721,
          "velocity": 0.3937007874015748
        },
        {
          "duration": 0.1578944999999976,
          "durationTicks": 96,
          "midi": 88,
          "name": "E6",
          "ticks": 113280,
          "time": 186.31551,
          "velocity": 0.3937007874015748
        },
        {
          "duration": 0.1578944999999976,
          "durationTicks": 96,
          "midi": 85,
          "name": "C#6",
          "ticks": 113376,
          "time": 186.4734045,
          "velocity": 0.3937007874015748
        },
        {
          "duration": 0.1578944999999976,
          "durationTicks": 96,
          "midi": 88,
          "name": "E6",
          "ticks": 113472,
          "time": 186.63129899999998,
          "velocity": 0.3937007874015748
        },
        {
          "duration": 0.1578944999999976,
          "durationTicks": 96,
          "midi": 90,
          "name": "F#6",
          "ticks": 113568,
          "time": 186.78919349999998,
          "velocity": 0.3937007874015748
        },
        {
          "duration": 0.31578900000002363,
          "durationTicks": 192,
          "midi": 83,
          "name": "B5",
          "ticks": 113664,
          "time": 186.94708799999998,
          "velocity": 0.3937007874015748
        },
        {
          "duration": 0.3157889999999952,
          "durationTicks": 192,
          "midi": 85,
          "name": "C#6",
          "ticks": 113856,
          "time": 187.262877,
          "velocity": 0.3937007874015748
        },
        {
          "duration": 0.3157889999999952,
          "durationTicks": 192,
          "midi": 92,
          "name": "G#6",
          "ticks": 114048,
          "time": 187.578666,
          "velocity": 0.3937007874015748
        },
        {
          "duration": 0.3157889999999952,
          "durationTicks": 192,
          "midi": 90,
          "name": "F#6",
          "ticks": 114240,
          "time": 187.894455,
          "velocity": 0.3937007874015748
        },
        {
          "duration": 0.3157889999999952,
          "durationTicks": 192,
          "midi": 88,
          "name": "E6",
          "ticks": 114432,
          "time": 188.210244,
          "velocity": 0.3937007874015748
        },
        {
          "duration": 0.1578944999999976,
          "durationTicks": 96,
          "midi": 87,
          "name": "D#6",
          "ticks": 114624,
          "time": 188.52603299999998,
          "velocity": 0.3937007874015748
        },
        {
          "duration": 0.1578944999999976,
          "durationTicks": 96,
          "midi": 88,
          "name": "E6",
          "ticks": 114720,
          "time": 188.68392749999998,
          "velocity": 0.3937007874015748
        },
        {
          "duration": 0.15789450000002603,
          "durationTicks": 96,
          "midi": 87,
          "name": "D#6",
          "ticks": 114816,
          "time": 188.84182199999998,
          "velocity": 0.3937007874015748
        },
        {
          "duration": 0.1578944999999976,
          "durationTicks": 96,
          "midi": 85,
          "name": "C#6",
          "ticks": 114912,
          "time": 188.9997165,
          "velocity": 0.3937007874015748
        },
        {
          "duration": 0.1578944999999976,
          "durationTicks": 96,
          "midi": 83,
          "name": "B5",
          "ticks": 115008,
          "time": 189.157611,
          "velocity": 0.3937007874015748
        },
        {
          "duration": 0.1578944999999976,
          "durationTicks": 96,
          "midi": 80,
          "name": "G#5",
          "ticks": 115104,
          "time": 189.3155055,
          "velocity": 0.3937007874015748
        },
        {
          "duration": 0.1578944999999976,
          "durationTicks": 96,
          "midi": 81,
          "name": "A5",
          "ticks": 115200,
          "time": 189.4734,
          "velocity": 0.3937007874015748
        },
        {
          "duration": 0.1578944999999976,
          "durationTicks": 96,
          "midi": 81,
          "name": "A5",
          "ticks": 115296,
          "time": 189.6312945,
          "velocity": 0.3937007874015748
        },
        {
          "duration": 0.3157889999999952,
          "durationTicks": 192,
          "midi": 85,
          "name": "C#6",
          "ticks": 115392,
          "time": 189.789189,
          "velocity": 0.3937007874015748
        },
        {
          "duration": 0.3157889999999952,
          "durationTicks": 192,
          "midi": 92,
          "name": "G#6",
          "ticks": 115584,
          "time": 190.104978,
          "velocity": 0.3937007874015748
        },
        {
          "duration": 0.1578944999999976,
          "durationTicks": 96,
          "midi": 85,
          "name": "C#6",
          "ticks": 115776,
          "time": 190.42076699999998,
          "velocity": 0.3937007874015748
        },
        {
          "duration": 0.1578944999999976,
          "durationTicks": 96,
          "midi": 93,
          "name": "A6",
          "ticks": 115872,
          "time": 190.57866149999998,
          "velocity": 0.3937007874015748
        },
        {
          "duration": 0.15789450000002603,
          "durationTicks": 96,
          "midi": 85,
          "name": "C#6",
          "ticks": 115968,
          "time": 190.73655599999998,
          "velocity": 0.3937007874015748
        },
        {
          "duration": 0.1578944999999976,
          "durationTicks": 96,
          "midi": 95,
          "name": "B6",
          "ticks": 116064,
          "time": 190.8944505,
          "velocity": 0.3937007874015748
        },
        {
          "duration": 0.3157889999999952,
          "durationTicks": 192,
          "midi": 92,
          "name": "G#6",
          "ticks": 116160,
          "time": 191.052345,
          "velocity": 0.3937007874015748
        },
        {
          "duration": 0.3157889999999952,
          "durationTicks": 192,
          "midi": 90,
          "name": "F#6",
          "ticks": 116352,
          "time": 191.368134,
          "velocity": 0.3937007874015748
        },
        {
          "duration": 0.1578944999999976,
          "durationTicks": 96,
          "midi": 92,
          "name": "G#6",
          "ticks": 116544,
          "time": 191.683923,
          "velocity": 0.3937007874015748
        },
        {
          "duration": 0.1578944999999976,
          "durationTicks": 96,
          "midi": 88,
          "name": "E6",
          "ticks": 116640,
          "time": 191.8418175,
          "velocity": 0.3937007874015748
        },
        {
          "duration": 0.3157889999999952,
          "durationTicks": 192,
          "midi": 80,
          "name": "G#5",
          "ticks": 116736,
          "time": 191.999712,
          "velocity": 0.3937007874015748
        },
        {
          "duration": 0.3157889999999952,
          "durationTicks": 192,
          "midi": 85,
          "name": "C#6",
          "ticks": 116928,
          "time": 192.31550099999998,
          "velocity": 0.3937007874015748
        },
        {
          "duration": 0.31578900000002363,
          "durationTicks": 192,
          "midi": 80,
          "name": "G#5",
          "ticks": 117120,
          "time": 192.63128999999998,
          "velocity": 0.3937007874015748
        },
        {
          "duration": 0.3157889999999952,
          "durationTicks": 192,
          "midi": 85,
          "name": "C#6",
          "ticks": 117312,
          "time": 192.947079,
          "velocity": 0.3937007874015748
        },
        {
          "duration": 0.3157889999999952,
          "durationTicks": 192,
          "midi": 79,
          "name": "G5",
          "ticks": 117504,
          "time": 193.262868,
          "velocity": 0.3937007874015748
        },
        {
          "duration": 0.3157889999999952,
          "durationTicks": 192,
          "midi": 85,
          "name": "C#6",
          "ticks": 117696,
          "time": 193.578657,
          "velocity": 0.3937007874015748
        },
        {
          "duration": 0.3157889999999952,
          "durationTicks": 192,
          "midi": 81,
          "name": "A5",
          "ticks": 117888,
          "time": 193.894446,
          "velocity": 0.3937007874015748
        },
        {
          "duration": 0.3157889999999952,
          "durationTicks": 192,
          "midi": 87,
          "name": "D#6",
          "ticks": 118080,
          "time": 194.21023499999998,
          "velocity": 0.3937007874015748
        },
        {
          "duration": 0.31578900000002363,
          "durationTicks": 192,
          "midi": 73,
          "name": "C#5",
          "ticks": 118272,
          "time": 194.52602399999998,
          "velocity": 0.3937007874015748
        },
        {
          "duration": 0.3157889999999952,
          "durationTicks": 192,
          "midi": 85,
          "name": "C#6",
          "ticks": 118464,
          "time": 194.841813,
          "velocity": 0.3937007874015748
        },
        {
          "duration": 0.1578944999999976,
          "durationTicks": 96,
          "midi": 80,
          "name": "G#5",
          "ticks": 118656,
          "time": 195.157602,
          "velocity": 0.3937007874015748
        },
        {
          "duration": 0.3157889999999952,
          "durationTicks": 192,
          "midi": 79,
          "name": "G5",
          "ticks": 118944,
          "time": 195.6312855,
          "velocity": 0.3937007874015748
        },
        {
          "duration": 0.3157889999999952,
          "durationTicks": 192,
          "midi": 78,
          "name": "F#5",
          "ticks": 119232,
          "time": 196.10496899999998,
          "velocity": 0.3937007874015748
        },
        {
          "duration": 0.15789450000002603,
          "durationTicks": 96,
          "midi": 76,
          "name": "E5",
          "ticks": 119424,
          "time": 196.42075799999998,
          "velocity": 0.3937007874015748
        },
        {
          "duration": 0.1578944999999976,
          "durationTicks": 96,
          "midi": 73,
          "name": "C#5",
          "ticks": 119520,
          "time": 196.5786525,
          "velocity": 0.3937007874015748
        },
        {
          "duration": 0.1578944999999976,
          "durationTicks": 96,
          "midi": 76,
          "name": "E5",
          "ticks": 119616,
          "time": 196.736547,
          "velocity": 0.3937007874015748
        },
        {
          "duration": 0.1578944999999976,
          "durationTicks": 96,
          "midi": 78,
          "name": "F#5",
          "ticks": 119712,
          "time": 196.8944415,
          "velocity": 0.3937007874015748
        },
        {
          "duration": 0.3157889999999952,
          "durationTicks": 192,
          "midi": 71,
          "name": "B4",
          "ticks": 119808,
          "time": 197.052336,
          "velocity": 0.3937007874015748
        },
        {
          "duration": 0.3157889999999952,
          "durationTicks": 192,
          "midi": 85,
          "name": "C#6",
          "ticks": 120000,
          "time": 197.368125,
          "velocity": 0.3937007874015748
        },
        {
          "duration": 0.3157889999999952,
          "durationTicks": 192,
          "midi": 80,
          "name": "G#5",
          "ticks": 120192,
          "time": 197.683914,
          "velocity": 0.3937007874015748
        },
        {
          "duration": 0.3157889999999952,
          "durationTicks": 192,
          "midi": 78,
          "name": "F#5",
          "ticks": 120384,
          "time": 197.99970299999998,
          "velocity": 0.3937007874015748
        },
        {
          "duration": 0.31578900000002363,
          "durationTicks": 192,
          "midi": 76,
          "name": "E5",
          "ticks": 120576,
          "time": 198.31549199999998,
          "velocity": 0.3937007874015748
        },
        {
          "duration": 0.1578944999999976,
          "durationTicks": 96,
          "midi": 75,
          "name": "D#5",
          "ticks": 120768,
          "time": 198.631281,
          "velocity": 0.3937007874015748
        },
        {
          "duration": 0.1578944999999976,
          "durationTicks": 96,
          "midi": 76,
          "name": "E5",
          "ticks": 120864,
          "time": 198.7891755,
          "velocity": 0.3937007874015748
        },
        {
          "duration": 0.1578944999999976,
          "durationTicks": 96,
          "midi": 75,
          "name": "D#5",
          "ticks": 120960,
          "time": 198.94707,
          "velocity": 0.3937007874015748
        },
        {
          "duration": 0.1578944999999976,
          "durationTicks": 96,
          "midi": 73,
          "name": "C#5",
          "ticks": 121056,
          "time": 199.1049645,
          "velocity": 0.3937007874015748
        },
        {
          "duration": 0.1578944999999976,
          "durationTicks": 96,
          "midi": 71,
          "name": "B4",
          "ticks": 121152,
          "time": 199.262859,
          "velocity": 0.3937007874015748
        },
        {
          "duration": 0.1578944999999976,
          "durationTicks": 96,
          "midi": 68,
          "name": "G#4",
          "ticks": 121248,
          "time": 199.4207535,
          "velocity": 0.3937007874015748
        },
        {
          "duration": 0.1578944999999976,
          "durationTicks": 96,
          "midi": 69,
          "name": "A4",
          "ticks": 121344,
          "time": 199.578648,
          "velocity": 0.3937007874015748
        },
        {
          "duration": 0.1578944999999976,
          "durationTicks": 96,
          "midi": 69,
          "name": "A4",
          "ticks": 121440,
          "time": 199.73654249999998,
          "velocity": 0.3937007874015748
        },
        {
          "duration": 0.3157889999999952,
          "durationTicks": 192,
          "midi": 85,
          "name": "C#6",
          "ticks": 121536,
          "time": 199.89443699999998,
          "velocity": 0.3937007874015748
        },
        {
          "duration": 0.31578900000002363,
          "durationTicks": 192,
          "midi": 80,
          "name": "G#5",
          "ticks": 121728,
          "time": 200.21022599999998,
          "velocity": 0.3937007874015748
        },
        {
          "duration": 0.1578944999999976,
          "durationTicks": 96,
          "midi": 85,
          "name": "C#6",
          "ticks": 121920,
          "time": 200.526015,
          "velocity": 0.3937007874015748
        },
        {
          "duration": 0.1578944999999976,
          "durationTicks": 96,
          "midi": 81,
          "name": "A5",
          "ticks": 122016,
          "time": 200.6839095,
          "velocity": 0.3937007874015748
        },
        {
          "duration": 0.1578944999999976,
          "durationTicks": 96,
          "midi": 85,
          "name": "C#6",
          "ticks": 122112,
          "time": 200.841804,
          "velocity": 0.3937007874015748
        },
        {
          "duration": 0.1578944999999976,
          "durationTicks": 96,
          "midi": 83,
          "name": "B5",
          "ticks": 122208,
          "time": 200.9996985,
          "velocity": 0.3937007874015748
        },
        {
          "duration": 0.3157889999999952,
          "durationTicks": 192,
          "midi": 80,
          "name": "G#5",
          "ticks": 122304,
          "time": 201.157593,
          "velocity": 0.3937007874015748
        },
        {
          "duration": 0.3157889999999952,
          "durationTicks": 192,
          "midi": 78,
          "name": "F#5",
          "ticks": 122496,
          "time": 201.473382,
          "velocity": 0.3937007874015748
        },
        {
          "duration": 0.1578944999999976,
          "durationTicks": 96,
          "midi": 80,
          "name": "G#5",
          "ticks": 122688,
          "time": 201.78917099999998,
          "velocity": 0.3937007874015748
        },
        {
          "duration": 0.15789450000002603,
          "durationTicks": 96,
          "midi": 76,
          "name": "E5",
          "ticks": 122784,
          "time": 201.94706549999998,
          "velocity": 0.3937007874015748
        },
        {
          "duration": 0.1578944999999976,
          "durationTicks": 96,
          "midi": 68,
          "name": "G#4",
          "ticks": 122880,
          "time": 202.10496,
          "velocity": 0.3937007874015748
        },
        {
          "duration": 0.1578944999999976,
          "durationTicks": 96,
          "midi": 68,
          "name": "G#4",
          "ticks": 122976,
          "time": 202.2628545,
          "velocity": 0.3937007874015748
        },
        {
          "duration": 0.3157889999999952,
          "durationTicks": 192,
          "midi": 85,
          "name": "C#6",
          "ticks": 123072,
          "time": 202.420749,
          "velocity": 0.3937007874015748
        },
        {
          "duration": 0.3157889999999952,
          "durationTicks": 192,
          "midi": 68,
          "name": "G#4",
          "ticks": 123264,
          "time": 202.736538,
          "velocity": 0.3937007874015748
        },
        {
          "duration": 0.3157889999999952,
          "durationTicks": 192,
          "midi": 85,
          "name": "C#6",
          "ticks": 123456,
          "time": 203.052327,
          "velocity": 0.3937007874015748
        },
        {
          "duration": 0.1578944999999976,
          "durationTicks": 96,
          "midi": 67,
          "name": "G4",
          "ticks": 123648,
          "time": 203.368116,
          "velocity": 0.3937007874015748
        },
        {
          "duration": 0.1578944999999976,
          "durationTicks": 96,
          "midi": 67,
          "name": "G4",
          "ticks": 123744,
          "time": 203.52601049999998,
          "velocity": 0.3937007874015748
        },
        {
          "duration": 0.31578900000002363,
          "durationTicks": 192,
          "midi": 85,
          "name": "C#6",
          "ticks": 123840,
          "time": 203.68390499999998,
          "velocity": 0.3937007874015748
        },
        {
          "duration": 0.3157889999999952,
          "durationTicks": 192,
          "midi": 69,
          "name": "A4",
          "ticks": 124032,
          "time": 203.999694,
          "velocity": 0.3937007874015748
        },
        {
          "duration": 0.3157889999999952,
          "durationTicks": 192,
          "midi": 87,
          "name": "D#6",
          "ticks": 124224,
          "time": 204.315483,
          "velocity": 0.3937007874015748
        },
        {
          "duration": 0.3157889999999952,
          "durationTicks": 192,
          "midi": 73,
          "name": "C#5",
          "ticks": 124416,
          "time": 204.631272,
          "velocity": 0.3937007874015748
        },
        {
          "duration": 0.3157889999999952,
          "durationTicks": 192,
          "midi": 85,
          "name": "C#6",
          "ticks": 124608,
          "time": 204.947061,
          "velocity": 0.3937007874015748
        },
        {
          "duration": 0.1578944999999976,
          "durationTicks": 96,
          "midi": 80,
          "name": "G#5",
          "ticks": 124800,
          "time": 205.26285,
          "velocity": 0.3937007874015748
        },
        {
          "duration": 0.31578900000002363,
          "durationTicks": 192,
          "midi": 79,
          "name": "G5",
          "ticks": 125088,
          "time": 205.73653349999998,
          "velocity": 0.3937007874015748
        },
        {
          "duration": 0.3157889999999952,
          "durationTicks": 192,
          "midi": 78,
          "name": "F#5",
          "ticks": 125376,
          "time": 206.210217,
          "velocity": 0.3937007874015748
        },
        {
          "duration": 0.1578944999999976,
          "durationTicks": 96,
          "midi": 76,
          "name": "E5",
          "ticks": 125568,
          "time": 206.526006,
          "velocity": 0.3937007874015748
        },
        {
          "duration": 0.1578944999999976,
          "durationTicks": 96,
          "midi": 73,
          "name": "C#5",
          "ticks": 125664,
          "time": 206.6839005,
          "velocity": 0.3937007874015748
        },
        {
          "duration": 0.1578944999999976,
          "durationTicks": 96,
          "midi": 76,
          "name": "E5",
          "ticks": 125760,
          "time": 206.841795,
          "velocity": 0.3937007874015748
        },
        {
          "duration": 0.1578944999999976,
          "durationTicks": 96,
          "midi": 78,
          "name": "F#5",
          "ticks": 125856,
          "time": 206.9996895,
          "velocity": 0.3937007874015748
        },
        {
          "duration": 0.3157889999999952,
          "durationTicks": 192,
          "midi": 71,
          "name": "B4",
          "ticks": 125952,
          "time": 207.15758399999999,
          "velocity": 0.3937007874015748
        },
        {
          "duration": 0.31578900000002363,
          "durationTicks": 192,
          "midi": 85,
          "name": "C#6",
          "ticks": 126144,
          "time": 207.47337299999998,
          "velocity": 0.3937007874015748
        },
        {
          "duration": 0.3157889999999952,
          "durationTicks": 192,
          "midi": 80,
          "name": "G#5",
          "ticks": 126336,
          "time": 207.789162,
          "velocity": 0.3937007874015748
        },
        {
          "duration": 0.3157889999999952,
          "durationTicks": 192,
          "midi": 78,
          "name": "F#5",
          "ticks": 126528,
          "time": 208.104951,
          "velocity": 0.3937007874015748
        },
        {
          "duration": 0.3157889999999952,
          "durationTicks": 192,
          "midi": 76,
          "name": "E5",
          "ticks": 126720,
          "time": 208.42074,
          "velocity": 0.3937007874015748
        },
        {
          "duration": 0.1578944999999976,
          "durationTicks": 96,
          "midi": 75,
          "name": "D#5",
          "ticks": 126912,
          "time": 208.736529,
          "velocity": 0.3937007874015748
        },
        {
          "duration": 0.1578944999999976,
          "durationTicks": 96,
          "midi": 76,
          "name": "E5",
          "ticks": 127008,
          "time": 208.8944235,
          "velocity": 0.3937007874015748
        },
        {
          "duration": 0.1578944999999976,
          "durationTicks": 96,
          "midi": 75,
          "name": "D#5",
          "ticks": 127104,
          "time": 209.05231799999999,
          "velocity": 0.3937007874015748
        },
        {
          "duration": 0.1578944999999976,
          "durationTicks": 96,
          "midi": 73,
          "name": "C#5",
          "ticks": 127200,
          "time": 209.21021249999998,
          "velocity": 0.3937007874015748
        },
        {
          "duration": 0.1578944999999976,
          "durationTicks": 96,
          "midi": 71,
          "name": "B4",
          "ticks": 127296,
          "time": 209.36810699999998,
          "velocity": 0.3937007874015748
        },
        {
          "duration": 0.15789450000002603,
          "durationTicks": 96,
          "midi": 68,
          "name": "G#4",
          "ticks": 127392,
          "time": 209.52600149999998,
          "velocity": 0.3937007874015748
        },
        {
          "duration": 0.1578944999999976,
          "durationTicks": 96,
          "midi": 69,
          "name": "A4",
          "ticks": 127488,
          "time": 209.683896,
          "velocity": 0.3937007874015748
        },
        {
          "duration": 0.1578944999999976,
          "durationTicks": 96,
          "midi": 69,
          "name": "A4",
          "ticks": 127584,
          "time": 209.8417905,
          "velocity": 0.3937007874015748
        },
        {
          "duration": 0.3157889999999952,
          "durationTicks": 192,
          "midi": 85,
          "name": "C#6",
          "ticks": 127680,
          "time": 209.999685,
          "velocity": 0.3937007874015748
        },
        {
          "duration": 0.3157889999999952,
          "durationTicks": 192,
          "midi": 80,
          "name": "G#5",
          "ticks": 127872,
          "time": 210.315474,
          "velocity": 0.3937007874015748
        },
        {
          "duration": 0.1578944999999976,
          "durationTicks": 96,
          "midi": 85,
          "name": "C#6",
          "ticks": 128064,
          "time": 210.631263,
          "velocity": 0.3937007874015748
        },
        {
          "duration": 0.1578944999999976,
          "durationTicks": 96,
          "midi": 81,
          "name": "A5",
          "ticks": 128160,
          "time": 210.7891575,
          "velocity": 0.3937007874015748
        },
        {
          "duration": 0.1578944999999976,
          "durationTicks": 96,
          "midi": 85,
          "name": "C#6",
          "ticks": 128256,
          "time": 210.94705199999999,
          "velocity": 0.3937007874015748
        },
        {
          "duration": 0.1578944999999976,
          "durationTicks": 96,
          "midi": 83,
          "name": "B5",
          "ticks": 128352,
          "time": 211.10494649999998,
          "velocity": 0.3937007874015748
        },
        {
          "duration": 0.31578900000002363,
          "durationTicks": 192,
          "midi": 80,
          "name": "G#5",
          "ticks": 128448,
          "time": 211.26284099999998,
          "velocity": 0.3937007874015748
        },
        {
          "duration": 0.3157889999999952,
          "durationTicks": 192,
          "midi": 78,
          "name": "F#5",
          "ticks": 128640,
          "time": 211.57863,
          "velocity": 0.3937007874015748
        },
        {
          "duration": 0.1578944999999976,
          "durationTicks": 96,
          "midi": 80,
          "name": "G#5",
          "ticks": 128832,
          "time": 211.894419,
          "velocity": 0.3937007874015748
        },
        {
          "duration": 0.1578944999999976,
          "durationTicks": 96,
          "midi": 76,
          "name": "E5",
          "ticks": 128928,
          "time": 212.0523135,
          "velocity": 0.3937007874015748
        },
        {
          "duration": 0.1578944999999976,
          "durationTicks": 96,
          "midi": 68,
          "name": "G#4",
          "ticks": 129024,
          "time": 212.210208,
          "velocity": 0.3937007874015748
        },
        {
          "duration": 0.1578944999999976,
          "durationTicks": 96,
          "midi": 68,
          "name": "G#4",
          "ticks": 129120,
          "time": 212.3681025,
          "velocity": 0.3937007874015748
        },
        {
          "duration": 0.3157889999999952,
          "durationTicks": 192,
          "midi": 85,
          "name": "C#6",
          "ticks": 129216,
          "time": 212.525997,
          "velocity": 0.3937007874015748
        },
        {
          "duration": 0.3157889999999952,
          "durationTicks": 192,
          "midi": 68,
          "name": "G#4",
          "ticks": 129408,
          "time": 212.84178599999998,
          "velocity": 0.3937007874015748
        },
        {
          "duration": 0.31578900000002363,
          "durationTicks": 192,
          "midi": 85,
          "name": "C#6",
          "ticks": 129600,
          "time": 213.15757499999998,
          "velocity": 0.3937007874015748
        },
        {
          "duration": 0.1578944999999976,
          "durationTicks": 96,
          "midi": 67,
          "name": "G4",
          "ticks": 129792,
          "time": 213.473364,
          "velocity": 0.3937007874015748
        },
        {
          "duration": 0.1578944999999976,
          "durationTicks": 96,
          "midi": 67,
          "name": "G4",
          "ticks": 129888,
          "time": 213.6312585,
          "velocity": 0.3937007874015748
        },
        {
          "duration": 0.3157889999999952,
          "durationTicks": 192,
          "midi": 85,
          "name": "C#6",
          "ticks": 129984,
          "time": 213.789153,
          "velocity": 0.3937007874015748
        },
        {
          "duration": 0.3157889999999952,
          "durationTicks": 192,
          "midi": 69,
          "name": "A4",
          "ticks": 130176,
          "time": 214.104942,
          "velocity": 0.3937007874015748
        },
        {
          "duration": 0.3157889999999952,
          "durationTicks": 192,
          "midi": 87,
          "name": "D#6",
          "ticks": 130368,
          "time": 214.420731,
          "velocity": 0.3937007874015748
        },
        {
          "duration": 0.3157889999999952,
          "durationTicks": 192,
          "midi": 73,
          "name": "C#5",
          "ticks": 130560,
          "time": 214.73651999999998,
          "velocity": 0.3937007874015748
        },
        {
          "duration": 0.31578900000002363,
          "durationTicks": 192,
          "midi": 85,
          "name": "C#6",
          "ticks": 130752,
          "time": 215.05230899999998,
          "velocity": 0.3937007874015748
        },
        {
          "duration": 0.1578944999999976,
          "durationTicks": 96,
          "midi": 80,
          "name": "G#5",
          "ticks": 130944,
          "time": 215.368098,
          "velocity": 0.3937007874015748
        },
        {
          "duration": 0.3157889999999952,
          "durationTicks": 192,
          "midi": 79,
          "name": "G5",
          "ticks": 131232,
          "time": 215.8417815,
          "velocity": 0.3937007874015748
        },
        {
          "duration": 0.3157889999999952,
          "durationTicks": 192,
          "midi": 78,
          "name": "F#5",
          "ticks": 131520,
          "time": 216.315465,
          "velocity": 0.3937007874015748
        },
        {
          "duration": 0.1578944999999976,
          "durationTicks": 96,
          "midi": 76,
          "name": "E5",
          "ticks": 131712,
          "time": 216.63125399999998,
          "velocity": 0.3937007874015748
        },
        {
          "duration": 0.1578944999999976,
          "durationTicks": 96,
          "midi": 73,
          "name": "C#5",
          "ticks": 131808,
          "time": 216.78914849999998,
          "velocity": 0.3937007874015748
        },
        {
          "duration": 0.1578944999999976,
          "durationTicks": 96,
          "midi": 76,
          "name": "E5",
          "ticks": 131904,
          "time": 216.94704299999998,
          "velocity": 0.3937007874015748
        },
        {
          "duration": 0.15789450000002603,
          "durationTicks": 96,
          "midi": 78,
          "name": "F#5",
          "ticks": 132000,
          "time": 217.10493749999998,
          "velocity": 0.3937007874015748
        },
        {
          "duration": 0.3157889999999952,
          "durationTicks": 192,
          "midi": 71,
          "name": "B4",
          "ticks": 132096,
          "time": 217.262832,
          "velocity": 0.3937007874015748
        },
        {
          "duration": 0.3157889999999952,
          "durationTicks": 192,
          "midi": 85,
          "name": "C#6",
          "ticks": 132288,
          "time": 217.578621,
          "velocity": 0.3937007874015748
        },
        {
          "duration": 0.3157889999999952,
          "durationTicks": 192,
          "midi": 80,
          "name": "G#5",
          "ticks": 132480,
          "time": 217.89441,
          "velocity": 0.3937007874015748
        },
        {
          "duration": 0.3157889999999952,
          "durationTicks": 192,
          "midi": 78,
          "name": "F#5",
          "ticks": 132672,
          "time": 218.210199,
          "velocity": 0.3937007874015748
        },
        {
          "duration": 0.3157889999999952,
          "durationTicks": 192,
          "midi": 76,
          "name": "E5",
          "ticks": 132864,
          "time": 218.52598799999998,
          "velocity": 0.3937007874015748
        },
        {
          "duration": 0.1578944999999976,
          "durationTicks": 96,
          "midi": 75,
          "name": "D#5",
          "ticks": 133056,
          "time": 218.84177699999998,
          "velocity": 0.3937007874015748
        },
        {
          "duration": 0.15789450000002603,
          "durationTicks": 96,
          "midi": 76,
          "name": "E5",
          "ticks": 133152,
          "time": 218.99967149999998,
          "velocity": 0.3937007874015748
        },
        {
          "duration": 0.1578944999999976,
          "durationTicks": 96,
          "midi": 75,
          "name": "D#5",
          "ticks": 133248,
          "time": 219.157566,
          "velocity": 0.3937007874015748
        },
        {
          "duration": 0.1578944999999976,
          "durationTicks": 96,
          "midi": 73,
          "name": "C#5",
          "ticks": 133344,
          "time": 219.3154605,
          "velocity": 0.3937007874015748
        },
        {
          "duration": 0.1578944999999976,
          "durationTicks": 96,
          "midi": 71,
          "name": "B4",
          "ticks": 133440,
          "time": 219.473355,
          "velocity": 0.3937007874015748
        },
        {
          "duration": 0.1578944999999976,
          "durationTicks": 96,
          "midi": 68,
          "name": "G#4",
          "ticks": 133536,
          "time": 219.6312495,
          "velocity": 0.3937007874015748
        },
        {
          "duration": 0.1578944999999976,
          "durationTicks": 96,
          "midi": 69,
          "name": "A4",
          "ticks": 133632,
          "time": 219.789144,
          "velocity": 0.3937007874015748
        },
        {
          "duration": 0.1578944999999976,
          "durationTicks": 96,
          "midi": 69,
          "name": "A4",
          "ticks": 133728,
          "time": 219.9470385,
          "velocity": 0.3937007874015748
        },
        {
          "duration": 0.3157889999999952,
          "durationTicks": 192,
          "midi": 85,
          "name": "C#6",
          "ticks": 133824,
          "time": 220.104933,
          "velocity": 0.3937007874015748
        },
        {
          "duration": 0.3157889999999952,
          "durationTicks": 192,
          "midi": 80,
          "name": "G#5",
          "ticks": 134016,
          "time": 220.42072199999998,
          "velocity": 0.3937007874015748
        },
        {
          "duration": 0.1578944999999976,
          "durationTicks": 96,
          "midi": 85,
          "name": "C#6",
          "ticks": 134208,
          "time": 220.73651099999998,
          "velocity": 0.3937007874015748
        },
        {
          "duration": 0.15789450000002603,
          "durationTicks": 96,
          "midi": 81,
          "name": "A5",
          "ticks": 134304,
          "time": 220.89440549999998,
          "velocity": 0.3937007874015748
        },
        {
          "duration": 0.1578944999999976,
          "durationTicks": 96,
          "midi": 85,
          "name": "C#6",
          "ticks": 134400,
          "time": 221.0523,
          "velocity": 0.3937007874015748
        },
        {
          "duration": 0.1578944999999976,
          "durationTicks": 96,
          "midi": 83,
          "name": "B5",
          "ticks": 134496,
          "time": 221.2101945,
          "velocity": 0.3937007874015748
        },
        {
          "duration": 0.3157889999999952,
          "durationTicks": 192,
          "midi": 80,
          "name": "G#5",
          "ticks": 134592,
          "time": 221.368089,
          "velocity": 0.3937007874015748
        },
        {
          "duration": 0.3157889999999952,
          "durationTicks": 192,
          "midi": 78,
          "name": "F#5",
          "ticks": 134784,
          "time": 221.683878,
          "velocity": 0.3937007874015748
        },
        {
          "duration": 0.1578944999999976,
          "durationTicks": 96,
          "midi": 80,
          "name": "G#5",
          "ticks": 134976,
          "time": 221.999667,
          "velocity": 0.3937007874015748
        },
        {
          "duration": 0.1578944999999976,
          "durationTicks": 96,
          "midi": 76,
          "name": "E5",
          "ticks": 135072,
          "time": 222.15756149999999,
          "velocity": 0.3937007874015748
        },
        {
          "duration": 0.3157889999999952,
          "durationTicks": 192,
          "midi": 68,
          "name": "G#4",
          "ticks": 135168,
          "time": 222.31545599999998,
          "velocity": 0.3937007874015748
        },
        {
          "duration": 0.31578900000002363,
          "durationTicks": 192,
          "midi": 85,
          "name": "C#6",
          "ticks": 135360,
          "time": 222.63124499999998,
          "velocity": 0.3937007874015748
        },
        {
          "duration": 0.4736834999999928,
          "durationTicks": 288,
          "midi": 68,
          "name": "G#4",
          "ticks": 135552,
          "time": 222.947034,
          "velocity": 0.3937007874015748
        },
        {
          "duration": 0.4736834999999928,
          "durationTicks": 288,
          "midi": 85,
          "name": "C#6",
          "ticks": 135840,
          "time": 223.4207175,
          "velocity": 0.3937007874015748
        },
        {
          "duration": 0.6315779999999904,
          "durationTicks": 384,
          "midi": 67,
          "name": "G4",
          "ticks": 136128,
          "time": 223.894401,
          "velocity": 0.3937007874015748
        },
        {
          "duration": 0.6315780000000188,
          "durationTicks": 384,
          "midi": 85,
          "name": "C#6",
          "ticks": 136512,
          "time": 224.52597899999998,
          "velocity": 0.3937007874015748
        },
        {
          "duration": 0.789472499999988,
          "durationTicks": 480,
          "midi": 69,
          "name": "A4",
          "ticks": 136896,
          "time": 225.157557,
          "velocity": 0.3937007874015748
        },
        {
          "duration": 1.4210505000000069,
          "durationTicks": 864,
          "midi": 87,
          "name": "D#6",
          "ticks": 137376,
          "time": 225.94702949999999,
          "velocity": 0.3937007874015748
        }
      ],
      "endOfTrackTicks": 138240
    },
    {
      "channel": 4,
      "controlChanges": {},
      "pitchBends": [],
      "instrument": {
        "family": "piano",
        "number": 6,
        "name": "harpsichord"
      },
      "name": "Harpsichord",
      "notes": [
        {
          "duration": 2.3684174999999996,
          "durationTicks": 1440,
          "midi": 37,
          "name": "C#2",
          "ticks": 6144,
          "time": 10.105248,
          "velocity": 0.3937007874015748
        },
        {
          "duration": 2.3684174999999996,
          "durationTicks": 1440,
          "midi": 49,
          "name": "C#3",
          "ticks": 6144,
          "time": 10.105248,
          "velocity": 0.3937007874015748
        },
        {
          "duration": 2.3684174999999996,
          "durationTicks": 1440,
          "midi": 47,
          "name": "B2",
          "ticks": 7680,
          "time": 12.63156,
          "velocity": 0.3937007874015748
        },
        {
          "duration": 2.3684174999999996,
          "durationTicks": 1440,
          "midi": 35,
          "name": "B1",
          "ticks": 7680,
          "time": 12.63156,
          "velocity": 0.3937007874015748
        },
        {
          "duration": 2.3684175000000014,
          "durationTicks": 1440,
          "midi": 33,
          "name": "A1",
          "ticks": 9216,
          "time": 15.157872,
          "velocity": 0.3937007874015748
        },
        {
          "duration": 2.3684175000000014,
          "durationTicks": 1440,
          "midi": 45,
          "name": "A2",
          "ticks": 9216,
          "time": 15.157872,
          "velocity": 0.3937007874015748
        },
        {
          "duration": 0.6315780000000011,
          "durationTicks": 384,
          "midi": 32,
          "name": "G#1",
          "ticks": 10752,
          "time": 17.684184,
          "velocity": 0.3937007874015748
        },
        {
          "duration": 0.6315780000000011,
          "durationTicks": 384,
          "midi": 44,
          "name": "G#2",
          "ticks": 10752,
          "time": 17.684184,
          "velocity": 0.3937007874015748
        },
        {
          "duration": 0.6315780000000011,
          "durationTicks": 384,
          "midi": 44,
          "name": "G#2",
          "ticks": 11136,
          "time": 18.315762,
          "velocity": 0.3937007874015748
        },
        {
          "duration": 0.6315780000000011,
          "durationTicks": 384,
          "midi": 32,
          "name": "G#1",
          "ticks": 11136,
          "time": 18.315762,
          "velocity": 0.3937007874015748
        },
        {
          "duration": 0.6315779999999975,
          "durationTicks": 384,
          "midi": 31,
          "name": "G1",
          "ticks": 11520,
          "time": 18.94734,
          "velocity": 0.3937007874015748
        },
        {
          "duration": 0.6315779999999975,
          "durationTicks": 384,
          "midi": 43,
          "name": "G2",
          "ticks": 11520,
          "time": 18.94734,
          "velocity": 0.3937007874015748
        },
        {
          "duration": 0.6315780000000011,
          "durationTicks": 384,
          "midi": 33,
          "name": "A1",
          "ticks": 11904,
          "time": 19.578917999999998,
          "velocity": 0.3937007874015748
        },
        {
          "duration": 0.6315780000000011,
          "durationTicks": 384,
          "midi": 45,
          "name": "A2",
          "ticks": 11904,
          "time": 19.578917999999998,
          "velocity": 0.3937007874015748
        },
        {
          "duration": 1.7368394999999985,
          "durationTicks": 1056,
          "midi": 49,
          "name": "C#3",
          "ticks": 12288,
          "time": 20.210496,
          "velocity": 0.3937007874015748
        },
        {
          "duration": 1.7368394999999985,
          "durationTicks": 1056,
          "midi": 37,
          "name": "C#2",
          "ticks": 12288,
          "time": 20.210496,
          "velocity": 0.3937007874015748
        },
        {
          "duration": 0.6315780000000011,
          "durationTicks": 384,
          "midi": 37,
          "name": "C#2",
          "ticks": 13440,
          "time": 22.10523,
          "velocity": 0.3937007874015748
        },
        {
          "duration": 0.6315780000000011,
          "durationTicks": 384,
          "midi": 49,
          "name": "C#3",
          "ticks": 13440,
          "time": 22.10523,
          "velocity": 0.3937007874015748
        },
        {
          "duration": 2.0526284999999973,
          "durationTicks": 1248,
          "midi": 35,
          "name": "B1",
          "ticks": 13824,
          "time": 22.736808,
          "velocity": 0.3937007874015748
        },
        {
          "duration": 2.0526284999999973,
          "durationTicks": 1248,
          "midi": 47,
          "name": "B2",
          "ticks": 13824,
          "time": 22.736808,
          "velocity": 0.3937007874015748
        },
        {
          "duration": 0.3157890000000023,
          "durationTicks": 192,
          "midi": 35,
          "name": "B1",
          "ticks": 15168,
          "time": 24.947331,
          "velocity": 0.3937007874015748
        },
        {
          "duration": 0.3157890000000023,
          "durationTicks": 192,
          "midi": 47,
          "name": "B2",
          "ticks": 15168,
          "time": 24.947331,
          "velocity": 0.3937007874015748
        },
        {
          "duration": 1.2631559999999986,
          "durationTicks": 768,
          "midi": 45,
          "name": "A2",
          "ticks": 15360,
          "time": 25.26312,
          "velocity": 0.3937007874015748
        },
        {
          "duration": 1.2631559999999986,
          "durationTicks": 768,
          "midi": 33,
          "name": "A1",
          "ticks": 15360,
          "time": 25.26312,
          "velocity": 0.3937007874015748
        },
        {
          "duration": 0.6315780000000011,
          "durationTicks": 384,
          "midi": 33,
          "name": "A1",
          "ticks": 16128,
          "time": 26.526276,
          "velocity": 0.3937007874015748
        },
        {
          "duration": 0.6315780000000011,
          "durationTicks": 384,
          "midi": 45,
          "name": "A2",
          "ticks": 16128,
          "time": 26.526276,
          "velocity": 0.3937007874015748
        },
        {
          "duration": 0.31578899999999877,
          "durationTicks": 192,
          "midi": 33,
          "name": "A1",
          "ticks": 16512,
          "time": 27.157854,
          "velocity": 0.3937007874015748
        },
        {
          "duration": 0.31578899999999877,
          "durationTicks": 192,
          "midi": 45,
          "name": "A2",
          "ticks": 16512,
          "time": 27.157854,
          "velocity": 0.3937007874015748
        },
        {
          "duration": 0.31578899999999877,
          "durationTicks": 192,
          "midi": 33,
          "name": "A1",
          "ticks": 16704,
          "time": 27.473643,
          "velocity": 0.3937007874015748
        },
        {
          "duration": 0.31578899999999877,
          "durationTicks": 192,
          "midi": 45,
          "name": "A2",
          "ticks": 16704,
          "time": 27.473643,
          "velocity": 0.3937007874015748
        },
        {
          "duration": 0.3157890000000023,
          "durationTicks": 192,
          "midi": 32,
          "name": "G#1",
          "ticks": 16896,
          "time": 27.789431999999998,
          "velocity": 0.3937007874015748
        },
        {
          "duration": 0.3157890000000023,
          "durationTicks": 192,
          "midi": 44,
          "name": "G#2",
          "ticks": 16896,
          "time": 27.789431999999998,
          "velocity": 0.3937007874015748
        },
        {
          "duration": 0.31578899999999877,
          "durationTicks": 192,
          "midi": 49,
          "name": "C#3",
          "ticks": 17088,
          "time": 28.105221,
          "velocity": 0.3937007874015748
        },
        {
          "duration": 0.31578899999999877,
          "durationTicks": 192,
          "midi": 61,
          "name": "C#4",
          "ticks": 17088,
          "time": 28.105221,
          "velocity": 0.3937007874015748
        },
        {
          "duration": 0.31578899999999877,
          "durationTicks": 192,
          "midi": 32,
          "name": "G#1",
          "ticks": 17280,
          "time": 28.42101,
          "velocity": 0.3937007874015748
        },
        {
          "duration": 0.31578899999999877,
          "durationTicks": 192,
          "midi": 44,
          "name": "G#2",
          "ticks": 17280,
          "time": 28.42101,
          "velocity": 0.3937007874015748
        },
        {
          "duration": 0.3157890000000023,
          "durationTicks": 192,
          "midi": 61,
          "name": "C#4",
          "ticks": 17472,
          "time": 28.736798999999998,
          "velocity": 0.3937007874015748
        },
        {
          "duration": 0.3157890000000023,
          "durationTicks": 192,
          "midi": 49,
          "name": "C#3",
          "ticks": 17472,
          "time": 28.736798999999998,
          "velocity": 0.3937007874015748
        },
        {
          "duration": 0.31578899999999877,
          "durationTicks": 192,
          "midi": 43,
          "name": "G2",
          "ticks": 17664,
          "time": 29.052588,
          "velocity": 0.3937007874015748
        },
        {
          "duration": 0.31578899999999877,
          "durationTicks": 192,
          "midi": 31,
          "name": "G1",
          "ticks": 17664,
          "time": 29.052588,
          "velocity": 0.3937007874015748
        },
        {
          "duration": 0.31578899999999877,
          "durationTicks": 192,
          "midi": 49,
          "name": "C#3",
          "ticks": 17856,
          "time": 29.368377,
          "velocity": 0.3937007874015748
        },
        {
          "duration": 0.31578899999999877,
          "durationTicks": 192,
          "midi": 61,
          "name": "C#4",
          "ticks": 17856,
          "time": 29.368377,
          "velocity": 0.3937007874015748
        },
        {
          "duration": 0.3157890000000023,
          "durationTicks": 192,
          "midi": 33,
          "name": "A1",
          "ticks": 18048,
          "time": 29.684165999999998,
          "velocity": 0.3937007874015748
        },
        {
          "duration": 0.3157890000000023,
          "durationTicks": 192,
          "midi": 45,
          "name": "A2",
          "ticks": 18048,
          "time": 29.684165999999998,
          "velocity": 0.3937007874015748
        },
        {
          "duration": 0.31578899999999877,
          "durationTicks": 192,
          "midi": 63,
          "name": "D#4",
          "ticks": 18240,
          "time": 29.999955,
          "velocity": 0.3937007874015748
        },
        {
          "duration": 0.31578899999999877,
          "durationTicks": 192,
          "midi": 51,
          "name": "D#3",
          "ticks": 18240,
          "time": 29.999955,
          "velocity": 0.3937007874015748
        },
        {
          "duration": 0.31578899999999877,
          "durationTicks": 192,
          "midi": 37,
          "name": "C#2",
          "ticks": 18432,
          "time": 30.315744,
          "velocity": 0.3937007874015748
        },
        {
          "duration": 0.31578899999999877,
          "durationTicks": 192,
          "midi": 49,
          "name": "C#3",
          "ticks": 18432,
          "time": 30.315744,
          "velocity": 0.3937007874015748
        },
        {
          "duration": 0.3157890000000023,
          "durationTicks": 192,
          "midi": 37,
          "name": "C#2",
          "ticks": 18624,
          "time": 30.631532999999997,
          "velocity": 0.3937007874015748
        },
        {
          "duration": 0.3157890000000023,
          "durationTicks": 192,
          "midi": 49,
          "name": "C#3",
          "ticks": 18624,
          "time": 30.631532999999997,
          "velocity": 0.3937007874015748
        },
        {
          "duration": 0.1578944999999976,
          "durationTicks": 96,
          "midi": 37,
          "name": "C#2",
          "ticks": 18816,
          "time": 30.947322,
          "velocity": 0.3937007874015748
        },
        {
          "duration": 0.1578944999999976,
          "durationTicks": 96,
          "midi": 49,
          "name": "C#3",
          "ticks": 18816,
          "time": 30.947322,
          "velocity": 0.3937007874015748
        },
        {
          "duration": 0.4736834999999999,
          "durationTicks": 288,
          "midi": 49,
          "name": "C#3",
          "ticks": 18912,
          "time": 31.105216499999997,
          "velocity": 0.3937007874015748
        },
        {
          "duration": 0.4736834999999999,
          "durationTicks": 288,
          "midi": 37,
          "name": "C#2",
          "ticks": 18912,
          "time": 31.105216499999997,
          "velocity": 0.3937007874015748
        },
        {
          "duration": 0.3157890000000023,
          "durationTicks": 192,
          "midi": 37,
          "name": "C#2",
          "ticks": 19200,
          "time": 31.578899999999997,
          "velocity": 0.3937007874015748
        },
        {
          "duration": 0.3157890000000023,
          "durationTicks": 192,
          "midi": 49,
          "name": "C#3",
          "ticks": 19200,
          "time": 31.578899999999997,
          "velocity": 0.3937007874015748
        },
        {
          "duration": 0.3157890000000023,
          "durationTicks": 192,
          "midi": 37,
          "name": "C#2",
          "ticks": 19392,
          "time": 31.894689,
          "velocity": 0.3937007874015748
        },
        {
          "duration": 0.3157890000000023,
          "durationTicks": 192,
          "midi": 49,
          "name": "C#3",
          "ticks": 19392,
          "time": 31.894689,
          "velocity": 0.3937007874015748
        },
        {
          "duration": 0.1578944999999976,
          "durationTicks": 96,
          "midi": 49,
          "name": "C#3",
          "ticks": 19584,
          "time": 32.210478,
          "velocity": 0.3937007874015748
        },
        {
          "duration": 0.1578944999999976,
          "durationTicks": 96,
          "midi": 37,
          "name": "C#2",
          "ticks": 19584,
          "time": 32.210478,
          "velocity": 0.3937007874015748
        },
        {
          "duration": 0.1578944999999976,
          "durationTicks": 96,
          "midi": 37,
          "name": "C#2",
          "ticks": 19680,
          "time": 32.3683725,
          "velocity": 0.3937007874015748
        },
        {
          "duration": 0.1578944999999976,
          "durationTicks": 96,
          "midi": 49,
          "name": "C#3",
          "ticks": 19680,
          "time": 32.3683725,
          "velocity": 0.3937007874015748
        },
        {
          "duration": 0.3157890000000023,
          "durationTicks": 192,
          "midi": 37,
          "name": "C#2",
          "ticks": 19776,
          "time": 32.526267,
          "velocity": 0.3937007874015748
        },
        {
          "duration": 0.3157890000000023,
          "durationTicks": 192,
          "midi": 49,
          "name": "C#3",
          "ticks": 19776,
          "time": 32.526267,
          "velocity": 0.3937007874015748
        },
        {
          "duration": 0.3157890000000023,
          "durationTicks": 192,
          "midi": 35,
          "name": "B1",
          "ticks": 19968,
          "time": 32.842056,
          "velocity": 0.3937007874015748
        },
        {
          "duration": 0.3157890000000023,
          "durationTicks": 192,
          "midi": 47,
          "name": "B2",
          "ticks": 19968,
          "time": 32.842056,
          "velocity": 0.3937007874015748
        },
        {
          "duration": 0.3157889999999952,
          "durationTicks": 192,
          "midi": 47,
          "name": "B2",
          "ticks": 20160,
          "time": 33.157845,
          "velocity": 0.3937007874015748
        },
        {
          "duration": 0.3157889999999952,
          "durationTicks": 192,
          "midi": 35,
          "name": "B1",
          "ticks": 20160,
          "time": 33.157845,
          "velocity": 0.3937007874015748
        },
        {
          "duration": 0.1578945000000047,
          "durationTicks": 96,
          "midi": 35,
          "name": "B1",
          "ticks": 20352,
          "time": 33.473634,
          "velocity": 0.3937007874015748
        },
        {
          "duration": 0.1578945000000047,
          "durationTicks": 96,
          "midi": 47,
          "name": "B2",
          "ticks": 20352,
          "time": 33.473634,
          "velocity": 0.3937007874015748
        },
        {
          "duration": 0.4736834999999999,
          "durationTicks": 288,
          "midi": 35,
          "name": "B1",
          "ticks": 20448,
          "time": 33.6315285,
          "velocity": 0.3937007874015748
        },
        {
          "duration": 0.4736834999999999,
          "durationTicks": 288,
          "midi": 47,
          "name": "B2",
          "ticks": 20448,
          "time": 33.6315285,
          "velocity": 0.3937007874015748
        },
        {
          "duration": 0.3157889999999952,
          "durationTicks": 192,
          "midi": 47,
          "name": "B2",
          "ticks": 20736,
          "time": 34.105212,
          "velocity": 0.3937007874015748
        },
        {
          "duration": 0.3157889999999952,
          "durationTicks": 192,
          "midi": 35,
          "name": "B1",
          "ticks": 20736,
          "time": 34.105212,
          "velocity": 0.3937007874015748
        },
        {
          "duration": 0.3157890000000023,
          "durationTicks": 192,
          "midi": 47,
          "name": "B2",
          "ticks": 20928,
          "time": 34.421001,
          "velocity": 0.3937007874015748
        },
        {
          "duration": 0.3157890000000023,
          "durationTicks": 192,
          "midi": 35,
          "name": "B1",
          "ticks": 20928,
          "time": 34.421001,
          "velocity": 0.3937007874015748
        },
        {
          "duration": 0.1578944999999976,
          "durationTicks": 96,
          "midi": 47,
          "name": "B2",
          "ticks": 21120,
          "time": 34.73679,
          "velocity": 0.3937007874015748
        },
        {
          "duration": 0.1578944999999976,
          "durationTicks": 96,
          "midi": 35,
          "name": "B1",
          "ticks": 21120,
          "time": 34.73679,
          "velocity": 0.3937007874015748
        },
        {
          "duration": 0.1578945000000047,
          "durationTicks": 96,
          "midi": 35,
          "name": "B1",
          "ticks": 21216,
          "time": 34.8946845,
          "velocity": 0.3937007874015748
        },
        {
          "duration": 0.1578945000000047,
          "durationTicks": 96,
          "midi": 47,
          "name": "B2",
          "ticks": 21216,
          "time": 34.8946845,
          "velocity": 0.3937007874015748
        },
        {
          "duration": 0.3157889999999952,
          "durationTicks": 192,
          "midi": 47,
          "name": "B2",
          "ticks": 21312,
          "time": 35.052579,
          "velocity": 0.3937007874015748
        },
        {
          "duration": 0.3157889999999952,
          "durationTicks": 192,
          "midi": 35,
          "name": "B1",
          "ticks": 21312,
          "time": 35.052579,
          "velocity": 0.3937007874015748
        },
        {
          "duration": 0.3157890000000023,
          "durationTicks": 192,
          "midi": 33,
          "name": "A1",
          "ticks": 21504,
          "time": 35.368368,
          "velocity": 0.3937007874015748
        },
        {
          "duration": 0.3157890000000023,
          "durationTicks": 192,
          "midi": 45,
          "name": "A2",
          "ticks": 21504,
          "time": 35.368368,
          "velocity": 0.3937007874015748
        },
        {
          "duration": 0.3157890000000023,
          "durationTicks": 192,
          "midi": 33,
          "name": "A1",
          "ticks": 21696,
          "time": 35.684157,
          "velocity": 0.3937007874015748
        },
        {
          "duration": 0.3157890000000023,
          "durationTicks": 192,
          "midi": 45,
          "name": "A2",
          "ticks": 21696,
          "time": 35.684157,
          "velocity": 0.3937007874015748
        },
        {
          "duration": 0.1578944999999976,
          "durationTicks": 96,
          "midi": 33,
          "name": "A1",
          "ticks": 21888,
          "time": 35.999946,
          "velocity": 0.3937007874015748
        },
        {
          "duration": 0.1578944999999976,
          "durationTicks": 96,
          "midi": 45,
          "name": "A2",
          "ticks": 21888,
          "time": 35.999946,
          "velocity": 0.3937007874015748
        },
        {
          "duration": 0.4736834999999999,
          "durationTicks": 288,
          "midi": 45,
          "name": "A2",
          "ticks": 21984,
          "time": 36.1578405,
          "velocity": 0.3937007874015748
        },
        {
          "duration": 0.4736834999999999,
          "durationTicks": 288,
          "midi": 33,
          "name": "A1",
          "ticks": 21984,
          "time": 36.1578405,
          "velocity": 0.3937007874015748
        },
        {
          "duration": 0.3157890000000023,
          "durationTicks": 192,
          "midi": 45,
          "name": "A2",
          "ticks": 22272,
          "time": 36.631524,
          "velocity": 0.3937007874015748
        },
        {
          "duration": 0.3157890000000023,
          "durationTicks": 192,
          "midi": 33,
          "name": "A1",
          "ticks": 22272,
          "time": 36.631524,
          "velocity": 0.3937007874015748
        },
        {
          "duration": 0.3157889999999952,
          "durationTicks": 192,
          "midi": 33,
          "name": "A1",
          "ticks": 22464,
          "time": 36.947313,
          "velocity": 0.3937007874015748
        },
        {
          "duration": 0.3157889999999952,
          "durationTicks": 192,
          "midi": 45,
          "name": "A2",
          "ticks": 22464,
          "time": 36.947313,
          "velocity": 0.3937007874015748
        },
        {
          "duration": 0.1578945000000047,
          "durationTicks": 96,
          "midi": 45,
          "name": "A2",
          "ticks": 22656,
          "time": 37.263101999999996,
          "velocity": 0.3937007874015748
        },
        {
          "duration": 0.1578945000000047,
          "durationTicks": 96,
          "midi": 33,
          "name": "A1",
          "ticks": 22656,
          "time": 37.263101999999996,
          "velocity": 0.3937007874015748
        },
        {
          "duration": 0.1578944999999976,
          "durationTicks": 96,
          "midi": 45,
          "name": "A2",
          "ticks": 22752,
          "time": 37.4209965,
          "velocity": 0.3937007874015748
        },
        {
          "duration": 0.1578944999999976,
          "durationTicks": 96,
          "midi": 33,
          "name": "A1",
          "ticks": 22752,
          "time": 37.4209965,
          "velocity": 0.3937007874015748
        },
        {
          "duration": 0.3157890000000023,
          "durationTicks": 192,
          "midi": 33,
          "name": "A1",
          "ticks": 22848,
          "time": 37.578891,
          "velocity": 0.3937007874015748
        },
        {
          "duration": 0.3157890000000023,
          "durationTicks": 192,
          "midi": 45,
          "name": "A2",
          "ticks": 22848,
          "time": 37.578891,
          "velocity": 0.3937007874015748
        },
        {
          "duration": 0.1578944999999976,
          "durationTicks": 96,
          "midi": 32,
          "name": "G#1",
          "ticks": 23040,
          "time": 37.89468,
          "velocity": 0.3937007874015748
        },
        {
          "duration": 0.1578944999999976,
          "durationTicks": 96,
          "midi": 44,
          "name": "G#2",
          "ticks": 23040,
          "time": 37.89468,
          "velocity": 0.3937007874015748
        },
        {
          "duration": 0.1578944999999976,
          "durationTicks": 96,
          "midi": 44,
          "name": "G#2",
          "ticks": 23136,
          "time": 38.0525745,
          "velocity": 0.3937007874015748
        },
        {
          "duration": 0.1578944999999976,
          "durationTicks": 96,
          "midi": 32,
          "name": "G#1",
          "ticks": 23136,
          "time": 38.0525745,
          "velocity": 0.3937007874015748
        },
        {
          "duration": 0.3157890000000023,
          "durationTicks": 192,
          "midi": 61,
          "name": "C#4",
          "ticks": 23232,
          "time": 38.210468999999996,
          "velocity": 0.3937007874015748
        },
        {
          "duration": 0.3157890000000023,
          "durationTicks": 192,
          "midi": 49,
          "name": "C#3",
          "ticks": 23232,
          "time": 38.210468999999996,
          "velocity": 0.3937007874015748
        },
        {
          "duration": 0.1578944999999976,
          "durationTicks": 96,
          "midi": 32,
          "name": "G#1",
          "ticks": 23424,
          "time": 38.526258,
          "velocity": 0.3937007874015748
        },
        {
          "duration": 0.1578944999999976,
          "durationTicks": 96,
          "midi": 44,
          "name": "G#2",
          "ticks": 23424,
          "time": 38.526258,
          "velocity": 0.3937007874015748
        },
        {
          "duration": 0.1578945000000047,
          "durationTicks": 96,
          "midi": 32,
          "name": "G#1",
          "ticks": 23520,
          "time": 38.684152499999996,
          "velocity": 0.3937007874015748
        },
        {
          "duration": 0.1578945000000047,
          "durationTicks": 96,
          "midi": 44,
          "name": "G#2",
          "ticks": 23520,
          "time": 38.684152499999996,
          "velocity": 0.3937007874015748
        },
        {
          "duration": 0.3157889999999952,
          "durationTicks": 192,
          "midi": 61,
          "name": "C#4",
          "ticks": 23616,
          "time": 38.842047,
          "velocity": 0.3937007874015748
        },
        {
          "duration": 0.3157889999999952,
          "durationTicks": 192,
          "midi": 49,
          "name": "C#3",
          "ticks": 23616,
          "time": 38.842047,
          "velocity": 0.3937007874015748
        },
        {
          "duration": 0.1578945000000047,
          "durationTicks": 96,
          "midi": 31,
          "name": "G1",
          "ticks": 23808,
          "time": 39.157835999999996,
          "velocity": 0.3937007874015748
        },
        {
          "duration": 0.1578945000000047,
          "durationTicks": 96,
          "midi": 43,
          "name": "G2",
          "ticks": 23808,
          "time": 39.157835999999996,
          "velocity": 0.3937007874015748
        },
        {
          "duration": 0.1578944999999976,
          "durationTicks": 96,
          "midi": 31,
          "name": "G1",
          "ticks": 23904,
          "time": 39.3157305,
          "velocity": 0.3937007874015748
        },
        {
          "duration": 0.1578944999999976,
          "durationTicks": 96,
          "midi": 43,
          "name": "G2",
          "ticks": 23904,
          "time": 39.3157305,
          "velocity": 0.3937007874015748
        },
        {
          "duration": 0.3157890000000023,
          "durationTicks": 192,
          "midi": 49,
          "name": "C#3",
          "ticks": 24000,
          "time": 39.473625,
          "velocity": 0.3937007874015748
        },
        {
          "duration": 0.3157890000000023,
          "durationTicks": 192,
          "midi": 61,
          "name": "C#4",
          "ticks": 24000,
          "time": 39.473625,
          "velocity": 0.3937007874015748
        },
        {
          "duration": 0.1578944999999976,
          "durationTicks": 96,
          "midi": 33,
          "name": "A1",
          "ticks": 24192,
          "time": 39.789414,
          "velocity": 0.3937007874015748
        },
        {
          "duration": 0.1578944999999976,
          "durationTicks": 96,
          "midi": 45,
          "name": "A2",
          "ticks": 24192,
          "time": 39.789414,
          "velocity": 0.3937007874015748
        },
        {
          "duration": 0.1578944999999976,
          "durationTicks": 96,
          "midi": 33,
          "name": "A1",
          "ticks": 24288,
          "time": 39.9473085,
          "velocity": 0.3937007874015748
        },
        {
          "duration": 0.1578944999999976,
          "durationTicks": 96,
          "midi": 45,
          "name": "A2",
          "ticks": 24288,
          "time": 39.9473085,
          "velocity": 0.3937007874015748
        },
        {
          "duration": 0.3157890000000023,
          "durationTicks": 192,
          "midi": 51,
          "name": "D#3",
          "ticks": 24384,
          "time": 40.105202999999996,
          "velocity": 0.3937007874015748
        },
        {
          "duration": 0.3157890000000023,
          "durationTicks": 192,
          "midi": 63,
          "name": "D#4",
          "ticks": 24384,
          "time": 40.105202999999996,
          "velocity": 0.3937007874015748
        },
        {
          "duration": 0.3157890000000023,
          "durationTicks": 192,
          "midi": 49,
          "name": "C#3",
          "ticks": 24576,
          "time": 40.420992,
          "velocity": 0.3937007874015748
        },
        {
          "duration": 0.3157890000000023,
          "durationTicks": 192,
          "midi": 37,
          "name": "C#2",
          "ticks": 24576,
          "time": 40.420992,
          "velocity": 0.3937007874015748
        },
        {
          "duration": 0.3157889999999952,
          "durationTicks": 192,
          "midi": 37,
          "name": "C#2",
          "ticks": 24768,
          "time": 40.736781,
          "velocity": 0.3937007874015748
        },
        {
          "duration": 0.3157889999999952,
          "durationTicks": 192,
          "midi": 49,
          "name": "C#3",
          "ticks": 24768,
          "time": 40.736781,
          "velocity": 0.3937007874015748
        },
        {
          "duration": 0.1578945000000047,
          "durationTicks": 96,
          "midi": 37,
          "name": "C#2",
          "ticks": 24960,
          "time": 41.052569999999996,
          "velocity": 0.3937007874015748
        },
        {
          "duration": 0.1578945000000047,
          "durationTicks": 96,
          "midi": 49,
          "name": "C#3",
          "ticks": 24960,
          "time": 41.052569999999996,
          "velocity": 0.3937007874015748
        },
        {
          "duration": 0.4736834999999999,
          "durationTicks": 288,
          "midi": 37,
          "name": "C#2",
          "ticks": 25056,
          "time": 41.2104645,
          "velocity": 0.3937007874015748
        },
        {
          "duration": 0.4736834999999999,
          "durationTicks": 288,
          "midi": 49,
          "name": "C#3",
          "ticks": 25056,
          "time": 41.2104645,
          "velocity": 0.3937007874015748
        },
        {
          "duration": 0.3157889999999952,
          "durationTicks": 192,
          "midi": 49,
          "name": "C#3",
          "ticks": 25344,
          "time": 41.684148,
          "velocity": 0.3937007874015748
        },
        {
          "duration": 0.3157889999999952,
          "durationTicks": 192,
          "midi": 37,
          "name": "C#2",
          "ticks": 25344,
          "time": 41.684148,
          "velocity": 0.3937007874015748
        },
        {
          "duration": 0.3157890000000023,
          "durationTicks": 192,
          "midi": 49,
          "name": "C#3",
          "ticks": 25536,
          "time": 41.999936999999996,
          "velocity": 0.3937007874015748
        },
        {
          "duration": 0.3157890000000023,
          "durationTicks": 192,
          "midi": 37,
          "name": "C#2",
          "ticks": 25536,
          "time": 41.999936999999996,
          "velocity": 0.3937007874015748
        },
        {
          "duration": 0.1578944999999976,
          "durationTicks": 96,
          "midi": 37,
          "name": "C#2",
          "ticks": 25728,
          "time": 42.315726,
          "velocity": 0.3937007874015748
        },
        {
          "duration": 0.1578944999999976,
          "durationTicks": 96,
          "midi": 49,
          "name": "C#3",
          "ticks": 25728,
          "time": 42.315726,
          "velocity": 0.3937007874015748
        },
        {
          "duration": 0.1578945000000047,
          "durationTicks": 96,
          "midi": 49,
          "name": "C#3",
          "ticks": 25824,
          "time": 42.473620499999996,
          "velocity": 0.3937007874015748
        },
        {
          "duration": 0.1578945000000047,
          "durationTicks": 96,
          "midi": 37,
          "name": "C#2",
          "ticks": 25824,
          "time": 42.473620499999996,
          "velocity": 0.3937007874015748
        },
        {
          "duration": 0.3157889999999952,
          "durationTicks": 192,
          "midi": 37,
          "name": "C#2",
          "ticks": 25920,
          "time": 42.631515,
          "velocity": 0.3937007874015748
        },
        {
          "duration": 0.3157889999999952,
          "durationTicks": 192,
          "midi": 49,
          "name": "C#3",
          "ticks": 25920,
          "time": 42.631515,
          "velocity": 0.3937007874015748
        },
        {
          "duration": 0.3157890000000023,
          "durationTicks": 192,
          "midi": 35,
          "name": "B1",
          "ticks": 26112,
          "time": 42.947303999999995,
          "velocity": 0.3937007874015748
        },
        {
          "duration": 0.3157890000000023,
          "durationTicks": 192,
          "midi": 47,
          "name": "B2",
          "ticks": 26112,
          "time": 42.947303999999995,
          "velocity": 0.3937007874015748
        },
        {
          "duration": 0.3157890000000023,
          "durationTicks": 192,
          "midi": 35,
          "name": "B1",
          "ticks": 26304,
          "time": 43.263093,
          "velocity": 0.3937007874015748
        },
        {
          "duration": 0.3157890000000023,
          "durationTicks": 192,
          "midi": 47,
          "name": "B2",
          "ticks": 26304,
          "time": 43.263093,
          "velocity": 0.3937007874015748
        },
        {
          "duration": 0.1578944999999976,
          "durationTicks": 96,
          "midi": 35,
          "name": "B1",
          "ticks": 26496,
          "time": 43.578882,
          "velocity": 0.3937007874015748
        },
        {
          "duration": 0.1578944999999976,
          "durationTicks": 96,
          "midi": 47,
          "name": "B2",
          "ticks": 26496,
          "time": 43.578882,
          "velocity": 0.3937007874015748
        },
        {
          "duration": 0.4736834999999999,
          "durationTicks": 288,
          "midi": 47,
          "name": "B2",
          "ticks": 26592,
          "time": 43.7367765,
          "velocity": 0.3937007874015748
        },
        {
          "duration": 0.4736834999999999,
          "durationTicks": 288,
          "midi": 35,
          "name": "B1",
          "ticks": 26592,
          "time": 43.7367765,
          "velocity": 0.3937007874015748
        },
        {
          "duration": 0.3157890000000023,
          "durationTicks": 192,
          "midi": 35,
          "name": "B1",
          "ticks": 26880,
          "time": 44.21046,
          "velocity": 0.3937007874015748
        },
        {
          "duration": 0.3157890000000023,
          "durationTicks": 192,
          "midi": 47,
          "name": "B2",
          "ticks": 26880,
          "time": 44.21046,
          "velocity": 0.3937007874015748
        },
        {
          "duration": 0.3157889999999952,
          "durationTicks": 192,
          "midi": 35,
          "name": "B1",
          "ticks": 27072,
          "time": 44.526249,
          "velocity": 0.3937007874015748
        },
        {
          "duration": 0.3157889999999952,
          "durationTicks": 192,
          "midi": 47,
          "name": "B2",
          "ticks": 27072,
          "time": 44.526249,
          "velocity": 0.3937007874015748
        },
        {
          "duration": 0.1578945000000047,
          "durationTicks": 96,
          "midi": 47,
          "name": "B2",
          "ticks": 27264,
          "time": 44.842037999999995,
          "velocity": 0.3937007874015748
        },
        {
          "duration": 0.1578945000000047,
          "durationTicks": 96,
          "midi": 35,
          "name": "B1",
          "ticks": 27264,
          "time": 44.842037999999995,
          "velocity": 0.3937007874015748
        },
        {
          "duration": 0.1578944999999976,
          "durationTicks": 96,
          "midi": 35,
          "name": "B1",
          "ticks": 27360,
          "time": 44.9999325,
          "velocity": 0.3937007874015748
        },
        {
          "duration": 0.1578944999999976,
          "durationTicks": 96,
          "midi": 47,
          "name": "B2",
          "ticks": 27360,
          "time": 44.9999325,
          "velocity": 0.3937007874015748
        },
        {
          "duration": 0.3157890000000023,
          "durationTicks": 192,
          "midi": 35,
          "name": "B1",
          "ticks": 27456,
          "time": 45.157827,
          "velocity": 0.3937007874015748
        },
        {
          "duration": 0.3157890000000023,
          "durationTicks": 192,
          "midi": 47,
          "name": "B2",
          "ticks": 27456,
          "time": 45.157827,
          "velocity": 0.3937007874015748
        },
        {
          "duration": 0.3157889999999952,
          "durationTicks": 192,
          "midi": 45,
          "name": "A2",
          "ticks": 27648,
          "time": 45.473616,
          "velocity": 0.3937007874015748
        },
        {
          "duration": 0.3157889999999952,
          "durationTicks": 192,
          "midi": 33,
          "name": "A1",
          "ticks": 27648,
          "time": 45.473616,
          "velocity": 0.3937007874015748
        },
        {
          "duration": 0.3157890000000023,
          "durationTicks": 192,
          "midi": 33,
          "name": "A1",
          "ticks": 27840,
          "time": 45.789404999999995,
          "velocity": 0.3937007874015748
        },
        {
          "duration": 0.3157890000000023,
          "durationTicks": 192,
          "midi": 45,
          "name": "A2",
          "ticks": 27840,
          "time": 45.789404999999995,
          "velocity": 0.3937007874015748
        },
        {
          "duration": 0.1578944999999976,
          "durationTicks": 96,
          "midi": 33,
          "name": "A1",
          "ticks": 28032,
          "time": 46.105194,
          "velocity": 0.3937007874015748
        },
        {
          "duration": 0.1578944999999976,
          "durationTicks": 96,
          "midi": 45,
          "name": "A2",
          "ticks": 28032,
          "time": 46.105194,
          "velocity": 0.3937007874015748
        },
        {
          "duration": 0.4736834999999999,
          "durationTicks": 288,
          "midi": 33,
          "name": "A1",
          "ticks": 28128,
          "time": 46.263088499999995,
          "velocity": 0.3937007874015748
        },
        {
          "duration": 0.4736834999999999,
          "durationTicks": 288,
          "midi": 45,
          "name": "A2",
          "ticks": 28128,
          "time": 46.263088499999995,
          "velocity": 0.3937007874015748
        },
        {
          "duration": 0.3157890000000023,
          "durationTicks": 192,
          "midi": 45,
          "name": "A2",
          "ticks": 28416,
          "time": 46.736771999999995,
          "velocity": 0.3937007874015748
        },
        {
          "duration": 0.3157890000000023,
          "durationTicks": 192,
          "midi": 33,
          "name": "A1",
          "ticks": 28416,
          "time": 46.736771999999995,
          "velocity": 0.3937007874015748
        },
        {
          "duration": 0.3157890000000023,
          "durationTicks": 192,
          "midi": 33,
          "name": "A1",
          "ticks": 28608,
          "time": 47.052561,
          "velocity": 0.3937007874015748
        },
        {
          "duration": 0.3157890000000023,
          "durationTicks": 192,
          "midi": 45,
          "name": "A2",
          "ticks": 28608,
          "time": 47.052561,
          "velocity": 0.3937007874015748
        },
        {
          "duration": 0.1578944999999976,
          "durationTicks": 96,
          "midi": 33,
          "name": "A1",
          "ticks": 28800,
          "time": 47.36835,
          "velocity": 0.3937007874015748
        },
        {
          "duration": 0.1578944999999976,
          "durationTicks": 96,
          "midi": 45,
          "name": "A2",
          "ticks": 28800,
          "time": 47.36835,
          "velocity": 0.3937007874015748
        },
        {
          "duration": 0.1578944999999976,
          "durationTicks": 96,
          "midi": 33,
          "name": "A1",
          "ticks": 28896,
          "time": 47.5262445,
          "velocity": 0.3937007874015748
        },
        {
          "duration": 0.1578944999999976,
          "durationTicks": 96,
          "midi": 45,
          "name": "A2",
          "ticks": 28896,
          "time": 47.5262445,
          "velocity": 0.3937007874015748
        },
        {
          "duration": 0.3157890000000023,
          "durationTicks": 192,
          "midi": 33,
          "name": "A1",
          "ticks": 28992,
          "time": 47.684138999999995,
          "velocity": 0.3937007874015748
        },
        {
          "duration": 0.3157890000000023,
          "durationTicks": 192,
          "midi": 45,
          "name": "A2",
          "ticks": 28992,
          "time": 47.684138999999995,
          "velocity": 0.3937007874015748
        },
        {
          "duration": 0.1578944999999976,
          "durationTicks": 96,
          "midi": 44,
          "name": "G#2",
          "ticks": 29184,
          "time": 47.999928,
          "velocity": 0.3937007874015748
        },
        {
          "duration": 0.1578944999999976,
          "durationTicks": 96,
          "midi": 32,
          "name": "G#1",
          "ticks": 29184,
          "time": 47.999928,
          "velocity": 0.3937007874015748
        },
        {
          "duration": 0.1578945000000047,
          "durationTicks": 96,
          "midi": 32,
          "name": "G#1",
          "ticks": 29280,
          "time": 48.157822499999995,
          "velocity": 0.3937007874015748
        },
        {
          "duration": 0.1578945000000047,
          "durationTicks": 96,
          "midi": 44,
          "name": "G#2",
          "ticks": 29280,
          "time": 48.157822499999995,
          "velocity": 0.3937007874015748
        },
        {
          "duration": 0.3157889999999952,
          "durationTicks": 192,
          "midi": 61,
          "name": "C#4",
          "ticks": 29376,
          "time": 48.315717,
          "velocity": 0.3937007874015748
        },
        {
          "duration": 0.3157889999999952,
          "durationTicks": 192,
          "midi": 49,
          "name": "C#3",
          "ticks": 29376,
          "time": 48.315717,
          "velocity": 0.3937007874015748
        },
        {
          "duration": 0.1578945000000047,
          "durationTicks": 96,
          "midi": 32,
          "name": "G#1",
          "ticks": 29568,
          "time": 48.631505999999995,
          "velocity": 0.3937007874015748
        },
        {
          "duration": 0.1578945000000047,
          "durationTicks": 96,
          "midi": 44,
          "name": "G#2",
          "ticks": 29568,
          "time": 48.631505999999995,
          "velocity": 0.3937007874015748
        },
        {
          "duration": 0.1578944999999976,
          "durationTicks": 96,
          "midi": 32,
          "name": "G#1",
          "ticks": 29664,
          "time": 48.7894005,
          "velocity": 0.3937007874015748
        },
        {
          "duration": 0.1578944999999976,
          "durationTicks": 96,
          "midi": 44,
          "name": "G#2",
          "ticks": 29664,
          "time": 48.7894005,
          "velocity": 0.3937007874015748
        },
        {
          "duration": 0.3157890000000023,
          "durationTicks": 192,
          "midi": 49,
          "name": "C#3",
          "ticks": 29760,
          "time": 48.947295,
          "velocity": 0.3937007874015748
        },
        {
          "duration": 0.3157890000000023,
          "durationTicks": 192,
          "midi": 61,
          "name": "C#4",
          "ticks": 29760,
          "time": 48.947295,
          "velocity": 0.3937007874015748
        },
        {
          "duration": 0.1578944999999976,
          "durationTicks": 96,
          "midi": 43,
          "name": "G2",
          "ticks": 29952,
          "time": 49.263084,
          "velocity": 0.3937007874015748
        },
        {
          "duration": 0.1578944999999976,
          "durationTicks": 96,
          "midi": 31,
          "name": "G1",
          "ticks": 29952,
          "time": 49.263084,
          "velocity": 0.3937007874015748
        },
        {
          "duration": 0.1578944999999976,
          "durationTicks": 96,
          "midi": 31,
          "name": "G1",
          "ticks": 30048,
          "time": 49.4209785,
          "velocity": 0.3937007874015748
        },
        {
          "duration": 0.1578944999999976,
          "durationTicks": 96,
          "midi": 43,
          "name": "G2",
          "ticks": 30048,
          "time": 49.4209785,
          "velocity": 0.3937007874015748
        },
        {
          "duration": 0.3157890000000023,
          "durationTicks": 192,
          "midi": 49,
          "name": "C#3",
          "ticks": 30144,
          "time": 49.578872999999994,
          "velocity": 0.3937007874015748
        },
        {
          "duration": 0.3157890000000023,
          "durationTicks": 192,
          "midi": 61,
          "name": "C#4",
          "ticks": 30144,
          "time": 49.578872999999994,
          "velocity": 0.3937007874015748
        },
        {
          "duration": 0.1578944999999976,
          "durationTicks": 96,
          "midi": 33,
          "name": "A1",
          "ticks": 30336,
          "time": 49.894662,
          "velocity": 0.3937007874015748
        },
        {
          "duration": 0.1578944999999976,
          "durationTicks": 96,
          "midi": 45,
          "name": "A2",
          "ticks": 30336,
          "time": 49.894662,
          "velocity": 0.3937007874015748
        },
        {
          "duration": 0.1578945000000047,
          "durationTicks": 96,
          "midi": 45,
          "name": "A2",
          "ticks": 30432,
          "time": 50.052556499999994,
          "velocity": 0.3937007874015748
        },
        {
          "duration": 0.1578945000000047,
          "durationTicks": 96,
          "midi": 33,
          "name": "A1",
          "ticks": 30432,
          "time": 50.052556499999994,
          "velocity": 0.3937007874015748
        },
        {
          "duration": 0.3157890000000023,
          "durationTicks": 192,
          "midi": 51,
          "name": "D#3",
          "ticks": 30528,
          "time": 50.210451,
          "velocity": 0.3937007874015748
        },
        {
          "duration": 0.3157890000000023,
          "durationTicks": 192,
          "midi": 63,
          "name": "D#4",
          "ticks": 30528,
          "time": 50.210451,
          "velocity": 0.3937007874015748
        },
        {
          "duration": 1.736839499999995,
          "durationTicks": 1056,
          "midi": 49,
          "name": "C#3",
          "ticks": 30720,
          "time": 50.52624,
          "velocity": 0.3937007874015748
        },
        {
          "duration": 0.3157889999999952,
          "durationTicks": 192,
          "midi": 52,
          "name": "E3",
          "ticks": 31872,
          "time": 52.420974,
          "velocity": 0.3937007874015748
        },
        {
          "duration": 0.3157890000000023,
          "durationTicks": 192,
          "midi": 54,
          "name": "F#3",
          "ticks": 32064,
          "time": 52.736762999999996,
          "velocity": 0.3937007874015748
        },
        {
          "duration": 1.2631560000000022,
          "durationTicks": 768,
          "midi": 59,
          "name": "B3",
          "ticks": 32256,
          "time": 53.052552,
          "velocity": 0.3937007874015748
        },
        {
          "duration": 1.263155999999995,
          "durationTicks": 768,
          "midi": 57,
          "name": "A3",
          "ticks": 33024,
          "time": 54.315708,
          "velocity": 0.3937007874015748
        },
        {
          "duration": 0.3157890000000094,
          "durationTicks": 192,
          "midi": 44,
          "name": "G#2",
          "ticks": 53856,
          "time": 88.5788145,
          "velocity": 0.3937007874015748
        },
        {
          "duration": 0.15789450000001182,
          "durationTicks": 96,
          "midi": 61,
          "name": "C#4",
          "ticks": 53952,
          "time": 88.73670899999999,
          "velocity": 0.3937007874015748
        },
        {
          "duration": 0.1578944999999976,
          "durationTicks": 96,
          "midi": 61,
          "name": "C#4",
          "ticks": 54048,
          "time": 88.8946035,
          "velocity": 0.3937007874015748
        },
        {
          "duration": 0.1578944999999976,
          "durationTicks": 96,
          "midi": 44,
          "name": "G#2",
          "ticks": 54240,
          "time": 89.2103925,
          "velocity": 0.3937007874015748
        },
        {
          "duration": 0.1578944999999976,
          "durationTicks": 96,
          "midi": 61,
          "name": "C#4",
          "ticks": 54336,
          "time": 89.368287,
          "velocity": 0.3937007874015748
        },
        {
          "duration": 0.1578944999999976,
          "durationTicks": 96,
          "midi": 61,
          "name": "C#4",
          "ticks": 54432,
          "time": 89.52618149999999,
          "velocity": 0.3937007874015748
        },
        {
          "duration": 0.15789450000001182,
          "durationTicks": 96,
          "midi": 43,
          "name": "G2",
          "ticks": 54528,
          "time": 89.68407599999999,
          "velocity": 0.3937007874015748
        },
        {
          "duration": 0.1578944999999976,
          "durationTicks": 96,
          "midi": 43,
          "name": "G2",
          "ticks": 54624,
          "time": 89.8419705,
          "velocity": 0.3937007874015748
        },
        {
          "duration": 0.1578944999999976,
          "durationTicks": 96,
          "midi": 61,
          "name": "C#4",
          "ticks": 54720,
          "time": 89.999865,
          "velocity": 0.3937007874015748
        },
        {
          "duration": 0.1578944999999976,
          "durationTicks": 96,
          "midi": 61,
          "name": "C#4",
          "ticks": 54816,
          "time": 90.1577595,
          "velocity": 0.3937007874015748
        },
        {
          "duration": 0.1578944999999976,
          "durationTicks": 96,
          "midi": 45,
          "name": "A2",
          "ticks": 54912,
          "time": 90.315654,
          "velocity": 0.3937007874015748
        },
        {
          "duration": 0.1578944999999976,
          "durationTicks": 96,
          "midi": 45,
          "name": "A2",
          "ticks": 55008,
          "time": 90.47354849999999,
          "velocity": 0.3937007874015748
        },
        {
          "duration": 0.15789450000001182,
          "durationTicks": 96,
          "midi": 63,
          "name": "D#4",
          "ticks": 55104,
          "time": 90.63144299999999,
          "velocity": 0.3937007874015748
        },
        {
          "duration": 0.1578944999999976,
          "durationTicks": 96,
          "midi": 63,
          "name": "D#4",
          "ticks": 55200,
          "time": 90.7893375,
          "velocity": 0.3937007874015748
        },
        {
          "duration": 0.3157889999999952,
          "durationTicks": 192,
          "midi": 44,
          "name": "G#2",
          "ticks": 60000,
          "time": 98.6840625,
          "velocity": 0.3937007874015748
        },
        {
          "duration": 0.1578944999999976,
          "durationTicks": 96,
          "midi": 61,
          "name": "C#4",
          "ticks": 60096,
          "time": 98.841957,
          "velocity": 0.3937007874015748
        },
        {
          "duration": 0.1578944999999976,
          "durationTicks": 96,
          "midi": 61,
          "name": "C#4",
          "ticks": 60192,
          "time": 98.99985149999999,
          "velocity": 0.3937007874015748
        },
        {
          "duration": 0.1578944999999976,
          "durationTicks": 96,
          "midi": 44,
          "name": "G#2",
          "ticks": 60384,
          "time": 99.3156405,
          "velocity": 0.3937007874015748
        },
        {
          "duration": 0.1578944999999976,
          "durationTicks": 96,
          "midi": 61,
          "name": "C#4",
          "ticks": 60480,
          "time": 99.473535,
          "velocity": 0.3937007874015748
        },
        {
          "duration": 0.1578944999999976,
          "durationTicks": 96,
          "midi": 61,
          "name": "C#4",
          "ticks": 60576,
          "time": 99.6314295,
          "velocity": 0.3937007874015748
        },
        {
          "duration": 0.1578944999999976,
          "durationTicks": 96,
          "midi": 43,
          "name": "G2",
          "ticks": 60672,
          "time": 99.789324,
          "velocity": 0.3937007874015748
        },
        {
          "duration": 0.1578944999999976,
          "durationTicks": 96,
          "midi": 43,
          "name": "G2",
          "ticks": 60768,
          "time": 99.94721849999999,
          "velocity": 0.3937007874015748
        },
        {
          "duration": 0.15789450000001182,
          "durationTicks": 96,
          "midi": 61,
          "name": "C#4",
          "ticks": 60864,
          "time": 100.10511299999999,
          "velocity": 0.3937007874015748
        },
        {
          "duration": 0.1578944999999976,
          "durationTicks": 96,
          "midi": 61,
          "name": "C#4",
          "ticks": 60960,
          "time": 100.2630075,
          "velocity": 0.3937007874015748
        },
        {
          "duration": 0.1578944999999976,
          "durationTicks": 96,
          "midi": 45,
          "name": "A2",
          "ticks": 61056,
          "time": 100.420902,
          "velocity": 0.3937007874015748
        },
        {
          "duration": 0.1578944999999976,
          "durationTicks": 96,
          "midi": 45,
          "name": "A2",
          "ticks": 61152,
          "time": 100.5787965,
          "velocity": 0.3937007874015748
        },
        {
          "duration": 0.1578944999999976,
          "durationTicks": 96,
          "midi": 63,
          "name": "D#4",
          "ticks": 61248,
          "time": 100.736691,
          "velocity": 0.3937007874015748
        },
        {
          "duration": 0.15789450000001182,
          "durationTicks": 96,
          "midi": 63,
          "name": "D#4",
          "ticks": 61344,
          "time": 100.89458549999999,
          "velocity": 0.3937007874015748
        },
        {
          "duration": 2.3684174999999925,
          "durationTicks": 1440,
          "midi": 49,
          "name": "C#3",
          "ticks": 75264,
          "time": 123.789288,
          "velocity": 0.3937007874015748
        },
        {
          "duration": 2.3684174999999925,
          "durationTicks": 1440,
          "midi": 37,
          "name": "C#2",
          "ticks": 75264,
          "time": 123.789288,
          "velocity": 0.3937007874015748
        },
        {
          "duration": 2.3684174999999925,
          "durationTicks": 1440,
          "midi": 47,
          "name": "B2",
          "ticks": 76800,
          "time": 126.31559999999999,
          "velocity": 0.3937007874015748
        },
        {
          "duration": 2.3684174999999925,
          "durationTicks": 1440,
          "midi": 35,
          "name": "B1",
          "ticks": 76800,
          "time": 126.31559999999999,
          "velocity": 0.3937007874015748
        },
        {
          "duration": 2.3684174999999925,
          "durationTicks": 1440,
          "midi": 33,
          "name": "A1",
          "ticks": 78336,
          "time": 128.841912,
          "velocity": 0.3937007874015748
        },
        {
          "duration": 2.3684174999999925,
          "durationTicks": 1440,
          "midi": 45,
          "name": "A2",
          "ticks": 78336,
          "time": 128.841912,
          "velocity": 0.3937007874015748
        },
        {
          "duration": 0.6315779999999904,
          "durationTicks": 384,
          "midi": 32,
          "name": "G#1",
          "ticks": 79872,
          "time": 131.368224,
          "velocity": 0.3937007874015748
        },
        {
          "duration": 0.6315779999999904,
          "durationTicks": 384,
          "midi": 44,
          "name": "G#2",
          "ticks": 79872,
          "time": 131.368224,
          "velocity": 0.3937007874015748
        },
        {
          "duration": 0.6315780000000188,
          "durationTicks": 384,
          "midi": 44,
          "name": "G#2",
          "ticks": 80256,
          "time": 131.999802,
          "velocity": 0.3937007874015748
        },
        {
          "duration": 0.6315780000000188,
          "durationTicks": 384,
          "midi": 32,
          "name": "G#1",
          "ticks": 80256,
          "time": 131.999802,
          "velocity": 0.3937007874015748
        },
        {
          "duration": 0.6315779999999904,
          "durationTicks": 384,
          "midi": 31,
          "name": "G1",
          "ticks": 80640,
          "time": 132.63138,
          "velocity": 0.3937007874015748
        },
        {
          "duration": 0.6315779999999904,
          "durationTicks": 384,
          "midi": 43,
          "name": "G2",
          "ticks": 80640,
          "time": 132.63138,
          "velocity": 0.3937007874015748
        },
        {
          "duration": 0.6315779999999904,
          "durationTicks": 384,
          "midi": 33,
          "name": "A1",
          "ticks": 81024,
          "time": 133.262958,
          "velocity": 0.3937007874015748
        },
        {
          "duration": 0.6315779999999904,
          "durationTicks": 384,
          "midi": 45,
          "name": "A2",
          "ticks": 81024,
          "time": 133.262958,
          "velocity": 0.3937007874015748
        },
        {
          "duration": 1.736839500000002,
          "durationTicks": 1056,
          "midi": 49,
          "name": "C#3",
          "ticks": 81408,
          "time": 133.894536,
          "velocity": 0.3937007874015748
        },
        {
          "duration": 1.736839500000002,
          "durationTicks": 1056,
          "midi": 37,
          "name": "C#2",
          "ticks": 81408,
          "time": 133.894536,
          "velocity": 0.3937007874015748
        },
        {
          "duration": 0.6315780000000188,
          "durationTicks": 384,
          "midi": 49,
          "name": "C#3",
          "ticks": 82560,
          "time": 135.78927,
          "velocity": 0.3937007874015748
        },
        {
          "duration": 0.6315780000000188,
          "durationTicks": 384,
          "midi": 37,
          "name": "C#2",
          "ticks": 82560,
          "time": 135.78927,
          "velocity": 0.3937007874015748
        },
        {
          "duration": 2.0526284999999973,
          "durationTicks": 1248,
          "midi": 47,
          "name": "B2",
          "ticks": 82944,
          "time": 136.420848,
          "velocity": 0.3937007874015748
        },
        {
          "duration": 2.0526284999999973,
          "durationTicks": 1248,
          "midi": 35,
          "name": "B1",
          "ticks": 82944,
          "time": 136.420848,
          "velocity": 0.3937007874015748
        },
        {
          "duration": 0.3157889999999952,
          "durationTicks": 192,
          "midi": 35,
          "name": "B1",
          "ticks": 84288,
          "time": 138.631371,
          "velocity": 0.3937007874015748
        },
        {
          "duration": 0.3157889999999952,
          "durationTicks": 192,
          "midi": 47,
          "name": "B2",
          "ticks": 84288,
          "time": 138.631371,
          "velocity": 0.3937007874015748
        },
        {
          "duration": 1.2631560000000093,
          "durationTicks": 768,
          "midi": 45,
          "name": "A2",
          "ticks": 84480,
          "time": 138.94716,
          "velocity": 0.3937007874015748
        },
        {
          "duration": 1.2631560000000093,
          "durationTicks": 768,
          "midi": 33,
          "name": "A1",
          "ticks": 84480,
          "time": 138.94716,
          "velocity": 0.3937007874015748
        },
        {
          "duration": 0.6315779999999904,
          "durationTicks": 384,
          "midi": 33,
          "name": "A1",
          "ticks": 85248,
          "time": 140.210316,
          "velocity": 0.3937007874015748
        },
        {
          "duration": 0.6315779999999904,
          "durationTicks": 384,
          "midi": 45,
          "name": "A2",
          "ticks": 85248,
          "time": 140.210316,
          "velocity": 0.3937007874015748
        },
        {
          "duration": 0.3157889999999952,
          "durationTicks": 192,
          "midi": 33,
          "name": "A1",
          "ticks": 85632,
          "time": 140.841894,
          "velocity": 0.3937007874015748
        },
        {
          "duration": 0.3157889999999952,
          "durationTicks": 192,
          "midi": 45,
          "name": "A2",
          "ticks": 85632,
          "time": 140.841894,
          "velocity": 0.3937007874015748
        },
        {
          "duration": 0.3157889999999952,
          "durationTicks": 192,
          "midi": 33,
          "name": "A1",
          "ticks": 85824,
          "time": 141.157683,
          "velocity": 0.3937007874015748
        },
        {
          "duration": 0.3157889999999952,
          "durationTicks": 192,
          "midi": 45,
          "name": "A2",
          "ticks": 85824,
          "time": 141.157683,
          "velocity": 0.3937007874015748
        },
        {
          "duration": 0.3157889999999952,
          "durationTicks": 192,
          "midi": 44,
          "name": "G#2",
          "ticks": 86016,
          "time": 141.473472,
          "velocity": 0.3937007874015748
        },
        {
          "duration": 0.3157889999999952,
          "durationTicks": 192,
          "midi": 32,
          "name": "G#1",
          "ticks": 86016,
          "time": 141.473472,
          "velocity": 0.3937007874015748
        },
        {
          "duration": 0.31578900000002363,
          "durationTicks": 192,
          "midi": 61,
          "name": "C#4",
          "ticks": 86208,
          "time": 141.78926099999998,
          "velocity": 0.3937007874015748
        },
        {
          "duration": 0.31578900000002363,
          "durationTicks": 192,
          "midi": 49,
          "name": "C#3",
          "ticks": 86208,
          "time": 141.78926099999998,
          "velocity": 0.3937007874015748
        },
        {
          "duration": 0.3157889999999952,
          "durationTicks": 192,
          "midi": 32,
          "name": "G#1",
          "ticks": 86400,
          "time": 142.10505,
          "velocity": 0.3937007874015748
        },
        {
          "duration": 0.3157889999999952,
          "durationTicks": 192,
          "midi": 44,
          "name": "G#2",
          "ticks": 86400,
          "time": 142.10505,
          "velocity": 0.3937007874015748
        },
        {
          "duration": 0.3157889999999952,
          "durationTicks": 192,
          "midi": 61,
          "name": "C#4",
          "ticks": 86592,
          "time": 142.420839,
          "velocity": 0.3937007874015748
        },
        {
          "duration": 0.3157889999999952,
          "durationTicks": 192,
          "midi": 49,
          "name": "C#3",
          "ticks": 86592,
          "time": 142.420839,
          "velocity": 0.3937007874015748
        },
        {
          "duration": 0.3157889999999952,
          "durationTicks": 192,
          "midi": 43,
          "name": "G2",
          "ticks": 86784,
          "time": 142.736628,
          "velocity": 0.3937007874015748
        },
        {
          "duration": 0.3157889999999952,
          "durationTicks": 192,
          "midi": 31,
          "name": "G1",
          "ticks": 86784,
          "time": 142.736628,
          "velocity": 0.3937007874015748
        },
        {
          "duration": 0.3157889999999952,
          "durationTicks": 192,
          "midi": 49,
          "name": "C#3",
          "ticks": 86976,
          "time": 143.052417,
          "velocity": 0.3937007874015748
        },
        {
          "duration": 0.3157889999999952,
          "durationTicks": 192,
          "midi": 61,
          "name": "C#4",
          "ticks": 86976,
          "time": 143.052417,
          "velocity": 0.3937007874015748
        },
        {
          "duration": 0.3157889999999952,
          "durationTicks": 192,
          "midi": 33,
          "name": "A1",
          "ticks": 87168,
          "time": 143.368206,
          "velocity": 0.3937007874015748
        },
        {
          "duration": 0.3157889999999952,
          "durationTicks": 192,
          "midi": 45,
          "name": "A2",
          "ticks": 87168,
          "time": 143.368206,
          "velocity": 0.3937007874015748
        },
        {
          "duration": 0.31578900000002363,
          "durationTicks": 192,
          "midi": 63,
          "name": "D#4",
          "ticks": 87360,
          "time": 143.68399499999998,
          "velocity": 0.3937007874015748
        },
        {
          "duration": 0.31578900000002363,
          "durationTicks": 192,
          "midi": 51,
          "name": "D#3",
          "ticks": 87360,
          "time": 143.68399499999998,
          "velocity": 0.3937007874015748
        },
        {
          "duration": 0.3157889999999952,
          "durationTicks": 192,
          "midi": 49,
          "name": "C#3",
          "ticks": 87552,
          "time": 143.999784,
          "velocity": 0.3937007874015748
        },
        {
          "duration": 0.3157889999999952,
          "durationTicks": 192,
          "midi": 37,
          "name": "C#2",
          "ticks": 87552,
          "time": 143.999784,
          "velocity": 0.3937007874015748
        },
        {
          "duration": 0.3157889999999952,
          "durationTicks": 192,
          "midi": 37,
          "name": "C#2",
          "ticks": 87744,
          "time": 144.315573,
          "velocity": 0.3937007874015748
        },
        {
          "duration": 0.3157889999999952,
          "durationTicks": 192,
          "midi": 49,
          "name": "C#3",
          "ticks": 87744,
          "time": 144.315573,
          "velocity": 0.3937007874015748
        },
        {
          "duration": 0.1578944999999976,
          "durationTicks": 96,
          "midi": 37,
          "name": "C#2",
          "ticks": 87936,
          "time": 144.631362,
          "velocity": 0.3937007874015748
        },
        {
          "duration": 0.1578944999999976,
          "durationTicks": 96,
          "midi": 49,
          "name": "C#3",
          "ticks": 87936,
          "time": 144.631362,
          "velocity": 0.3937007874015748
        },
        {
          "duration": 0.4736834999999928,
          "durationTicks": 288,
          "midi": 49,
          "name": "C#3",
          "ticks": 88032,
          "time": 144.7892565,
          "velocity": 0.3937007874015748
        },
        {
          "duration": 0.4736834999999928,
          "durationTicks": 288,
          "midi": 37,
          "name": "C#2",
          "ticks": 88032,
          "time": 144.7892565,
          "velocity": 0.3937007874015748
        },
        {
          "duration": 0.3157889999999952,
          "durationTicks": 192,
          "midi": 37,
          "name": "C#2",
          "ticks": 88320,
          "time": 145.26294,
          "velocity": 0.3937007874015748
        },
        {
          "duration": 0.3157889999999952,
          "durationTicks": 192,
          "midi": 49,
          "name": "C#3",
          "ticks": 88320,
          "time": 145.26294,
          "velocity": 0.3937007874015748
        },
        {
          "duration": 0.31578900000002363,
          "durationTicks": 192,
          "midi": 37,
          "name": "C#2",
          "ticks": 88512,
          "time": 145.57872899999998,
          "velocity": 0.3937007874015748
        },
        {
          "duration": 0.31578900000002363,
          "durationTicks": 192,
          "midi": 49,
          "name": "C#3",
          "ticks": 88512,
          "time": 145.57872899999998,
          "velocity": 0.3937007874015748
        },
        {
          "duration": 0.1578944999999976,
          "durationTicks": 96,
          "midi": 49,
          "name": "C#3",
          "ticks": 88704,
          "time": 145.894518,
          "velocity": 0.3937007874015748
        },
        {
          "duration": 0.1578944999999976,
          "durationTicks": 96,
          "midi": 37,
          "name": "C#2",
          "ticks": 88704,
          "time": 145.894518,
          "velocity": 0.3937007874015748
        },
        {
          "duration": 0.1578944999999976,
          "durationTicks": 96,
          "midi": 49,
          "name": "C#3",
          "ticks": 88800,
          "time": 146.0524125,
          "velocity": 0.3937007874015748
        },
        {
          "duration": 0.1578944999999976,
          "durationTicks": 96,
          "midi": 37,
          "name": "C#2",
          "ticks": 88800,
          "time": 146.0524125,
          "velocity": 0.3937007874015748
        },
        {
          "duration": 0.3157889999999952,
          "durationTicks": 192,
          "midi": 37,
          "name": "C#2",
          "ticks": 88896,
          "time": 146.210307,
          "velocity": 0.3937007874015748
        },
        {
          "duration": 0.3157889999999952,
          "durationTicks": 192,
          "midi": 49,
          "name": "C#3",
          "ticks": 88896,
          "time": 146.210307,
          "velocity": 0.3937007874015748
        },
        {
          "duration": 0.3157889999999952,
          "durationTicks": 192,
          "midi": 35,
          "name": "B1",
          "ticks": 89088,
          "time": 146.526096,
          "velocity": 0.3937007874015748
        },
        {
          "duration": 0.3157889999999952,
          "durationTicks": 192,
          "midi": 47,
          "name": "B2",
          "ticks": 89088,
          "time": 146.526096,
          "velocity": 0.3937007874015748
        },
        {
          "duration": 0.3157889999999952,
          "durationTicks": 192,
          "midi": 47,
          "name": "B2",
          "ticks": 89280,
          "time": 146.841885,
          "velocity": 0.3937007874015748
        },
        {
          "duration": 0.3157889999999952,
          "durationTicks": 192,
          "midi": 35,
          "name": "B1",
          "ticks": 89280,
          "time": 146.841885,
          "velocity": 0.3937007874015748
        },
        {
          "duration": 0.1578944999999976,
          "durationTicks": 96,
          "midi": 35,
          "name": "B1",
          "ticks": 89472,
          "time": 147.157674,
          "velocity": 0.3937007874015748
        },
        {
          "duration": 0.1578944999999976,
          "durationTicks": 96,
          "midi": 47,
          "name": "B2",
          "ticks": 89472,
          "time": 147.157674,
          "velocity": 0.3937007874015748
        },
        {
          "duration": 0.47368350000002124,
          "durationTicks": 288,
          "midi": 35,
          "name": "B1",
          "ticks": 89568,
          "time": 147.31556849999998,
          "velocity": 0.3937007874015748
        },
        {
          "duration": 0.47368350000002124,
          "durationTicks": 288,
          "midi": 47,
          "name": "B2",
          "ticks": 89568,
          "time": 147.31556849999998,
          "velocity": 0.3937007874015748
        },
        {
          "duration": 0.3157889999999952,
          "durationTicks": 192,
          "midi": 47,
          "name": "B2",
          "ticks": 89856,
          "time": 147.789252,
          "velocity": 0.3937007874015748
        },
        {
          "duration": 0.3157889999999952,
          "durationTicks": 192,
          "midi": 35,
          "name": "B1",
          "ticks": 89856,
          "time": 147.789252,
          "velocity": 0.3937007874015748
        },
        {
          "duration": 0.3157889999999952,
          "durationTicks": 192,
          "midi": 47,
          "name": "B2",
          "ticks": 90048,
          "time": 148.105041,
          "velocity": 0.3937007874015748
        },
        {
          "duration": 0.3157889999999952,
          "durationTicks": 192,
          "midi": 35,
          "name": "B1",
          "ticks": 90048,
          "time": 148.105041,
          "velocity": 0.3937007874015748
        },
        {
          "duration": 0.1578944999999976,
          "durationTicks": 96,
          "midi": 47,
          "name": "B2",
          "ticks": 90240,
          "time": 148.42083,
          "velocity": 0.3937007874015748
        },
        {
          "duration": 0.1578944999999976,
          "durationTicks": 96,
          "midi": 35,
          "name": "B1",
          "ticks": 90240,
          "time": 148.42083,
          "velocity": 0.3937007874015748
        },
        {
          "duration": 0.1578944999999976,
          "durationTicks": 96,
          "midi": 35,
          "name": "B1",
          "ticks": 90336,
          "time": 148.5787245,
          "velocity": 0.3937007874015748
        },
        {
          "duration": 0.1578944999999976,
          "durationTicks": 96,
          "midi": 47,
          "name": "B2",
          "ticks": 90336,
          "time": 148.5787245,
          "velocity": 0.3937007874015748
        },
        {
          "duration": 0.3157889999999952,
          "durationTicks": 192,
          "midi": 47,
          "name": "B2",
          "ticks": 90432,
          "time": 148.736619,
          "velocity": 0.3937007874015748
        },
        {
          "duration": 0.3157889999999952,
          "durationTicks": 192,
          "midi": 35,
          "name": "B1",
          "ticks": 90432,
          "time": 148.736619,
          "velocity": 0.3937007874015748
        },
        {
          "duration": 0.3157889999999952,
          "durationTicks": 192,
          "midi": 33,
          "name": "A1",
          "ticks": 90624,
          "time": 149.05240799999999,
          "velocity": 0.3937007874015748
        },
        {
          "duration": 0.3157889999999952,
          "durationTicks": 192,
          "midi": 45,
          "name": "A2",
          "ticks": 90624,
          "time": 149.05240799999999,
          "velocity": 0.3937007874015748
        },
        {
          "duration": 0.31578900000002363,
          "durationTicks": 192,
          "midi": 33,
          "name": "A1",
          "ticks": 90816,
          "time": 149.36819699999998,
          "velocity": 0.3937007874015748
        },
        {
          "duration": 0.31578900000002363,
          "durationTicks": 192,
          "midi": 45,
          "name": "A2",
          "ticks": 90816,
          "time": 149.36819699999998,
          "velocity": 0.3937007874015748
        },
        {
          "duration": 0.1578944999999976,
          "durationTicks": 96,
          "midi": 33,
          "name": "A1",
          "ticks": 91008,
          "time": 149.683986,
          "velocity": 0.3937007874015748
        },
        {
          "duration": 0.1578944999999976,
          "durationTicks": 96,
          "midi": 45,
          "name": "A2",
          "ticks": 91008,
          "time": 149.683986,
          "velocity": 0.3937007874015748
        },
        {
          "duration": 0.4736834999999928,
          "durationTicks": 288,
          "midi": 45,
          "name": "A2",
          "ticks": 91104,
          "time": 149.8418805,
          "velocity": 0.3937007874015748
        },
        {
          "duration": 0.4736834999999928,
          "durationTicks": 288,
          "midi": 33,
          "name": "A1",
          "ticks": 91104,
          "time": 149.8418805,
          "velocity": 0.3937007874015748
        },
        {
          "duration": 0.3157889999999952,
          "durationTicks": 192,
          "midi": 45,
          "name": "A2",
          "ticks": 91392,
          "time": 150.315564,
          "velocity": 0.3937007874015748
        },
        {
          "duration": 0.3157889999999952,
          "durationTicks": 192,
          "midi": 33,
          "name": "A1",
          "ticks": 91392,
          "time": 150.315564,
          "velocity": 0.3937007874015748
        },
        {
          "duration": 0.3157889999999952,
          "durationTicks": 192,
          "midi": 33,
          "name": "A1",
          "ticks": 91584,
          "time": 150.631353,
          "velocity": 0.3937007874015748
        },
        {
          "duration": 0.3157889999999952,
          "durationTicks": 192,
          "midi": 45,
          "name": "A2",
          "ticks": 91584,
          "time": 150.631353,
          "velocity": 0.3937007874015748
        },
        {
          "duration": 0.1578944999999976,
          "durationTicks": 96,
          "midi": 45,
          "name": "A2",
          "ticks": 91776,
          "time": 150.94714199999999,
          "velocity": 0.3937007874015748
        },
        {
          "duration": 0.1578944999999976,
          "durationTicks": 96,
          "midi": 33,
          "name": "A1",
          "ticks": 91776,
          "time": 150.94714199999999,
          "velocity": 0.3937007874015748
        },
        {
          "duration": 0.1578944999999976,
          "durationTicks": 96,
          "midi": 45,
          "name": "A2",
          "ticks": 91872,
          "time": 151.10503649999998,
          "velocity": 0.3937007874015748
        },
        {
          "duration": 0.1578944999999976,
          "durationTicks": 96,
          "midi": 33,
          "name": "A1",
          "ticks": 91872,
          "time": 151.10503649999998,
          "velocity": 0.3937007874015748
        },
        {
          "duration": 0.31578900000002363,
          "durationTicks": 192,
          "midi": 33,
          "name": "A1",
          "ticks": 91968,
          "time": 151.26293099999998,
          "velocity": 0.3937007874015748
        },
        {
          "duration": 0.31578900000002363,
          "durationTicks": 192,
          "midi": 45,
          "name": "A2",
          "ticks": 91968,
          "time": 151.26293099999998,
          "velocity": 0.3937007874015748
        },
        {
          "duration": 0.1578944999999976,
          "durationTicks": 96,
          "midi": 32,
          "name": "G#1",
          "ticks": 92160,
          "time": 151.57872,
          "velocity": 0.3937007874015748
        },
        {
          "duration": 0.1578944999999976,
          "durationTicks": 96,
          "midi": 44,
          "name": "G#2",
          "ticks": 92160,
          "time": 151.57872,
          "velocity": 0.3937007874015748
        },
        {
          "duration": 0.1578944999999976,
          "durationTicks": 96,
          "midi": 44,
          "name": "G#2",
          "ticks": 92256,
          "time": 151.7366145,
          "velocity": 0.3937007874015748
        },
        {
          "duration": 0.1578944999999976,
          "durationTicks": 96,
          "midi": 32,
          "name": "G#1",
          "ticks": 92256,
          "time": 151.7366145,
          "velocity": 0.3937007874015748
        },
        {
          "duration": 0.3157889999999952,
          "durationTicks": 192,
          "midi": 61,
          "name": "C#4",
          "ticks": 92352,
          "time": 151.894509,
          "velocity": 0.3937007874015748
        },
        {
          "duration": 0.3157889999999952,
          "durationTicks": 192,
          "midi": 49,
          "name": "C#3",
          "ticks": 92352,
          "time": 151.894509,
          "velocity": 0.3937007874015748
        },
        {
          "duration": 0.1578944999999976,
          "durationTicks": 96,
          "midi": 32,
          "name": "G#1",
          "ticks": 92544,
          "time": 152.210298,
          "velocity": 0.3937007874015748
        },
        {
          "duration": 0.1578944999999976,
          "durationTicks": 96,
          "midi": 44,
          "name": "G#2",
          "ticks": 92544,
          "time": 152.210298,
          "velocity": 0.3937007874015748
        },
        {
          "duration": 0.1578944999999976,
          "durationTicks": 96,
          "midi": 32,
          "name": "G#1",
          "ticks": 92640,
          "time": 152.3681925,
          "velocity": 0.3937007874015748
        },
        {
          "duration": 0.1578944999999976,
          "durationTicks": 96,
          "midi": 44,
          "name": "G#2",
          "ticks": 92640,
          "time": 152.3681925,
          "velocity": 0.3937007874015748
        },
        {
          "duration": 0.3157889999999952,
          "durationTicks": 192,
          "midi": 61,
          "name": "C#4",
          "ticks": 92736,
          "time": 152.526087,
          "velocity": 0.3937007874015748
        },
        {
          "duration": 0.3157889999999952,
          "durationTicks": 192,
          "midi": 49,
          "name": "C#3",
          "ticks": 92736,
          "time": 152.526087,
          "velocity": 0.3937007874015748
        },
        {
          "duration": 0.1578944999999976,
          "durationTicks": 96,
          "midi": 31,
          "name": "G1",
          "ticks": 92928,
          "time": 152.84187599999998,
          "velocity": 0.3937007874015748
        },
        {
          "duration": 0.1578944999999976,
          "durationTicks": 96,
          "midi": 43,
          "name": "G2",
          "ticks": 92928,
          "time": 152.84187599999998,
          "velocity": 0.3937007874015748
        },
        {
          "duration": 0.1578944999999976,
          "durationTicks": 96,
          "midi": 31,
          "name": "G1",
          "ticks": 93024,
          "time": 152.99977049999998,
          "velocity": 0.3937007874015748
        },
        {
          "duration": 0.1578944999999976,
          "durationTicks": 96,
          "midi": 43,
          "name": "G2",
          "ticks": 93024,
          "time": 152.99977049999998,
          "velocity": 0.3937007874015748
        },
        {
          "duration": 0.31578900000002363,
          "durationTicks": 192,
          "midi": 49,
          "name": "C#3",
          "ticks": 93120,
          "time": 153.15766499999998,
          "velocity": 0.3937007874015748
        },
        {
          "duration": 0.31578900000002363,
          "durationTicks": 192,
          "midi": 61,
          "name": "C#4",
          "ticks": 93120,
          "time": 153.15766499999998,
          "velocity": 0.3937007874015748
        },
        {
          "duration": 0.1578944999999976,
          "durationTicks": 96,
          "midi": 45,
          "name": "A2",
          "ticks": 93312,
          "time": 153.473454,
          "velocity": 0.3937007874015748
        },
        {
          "duration": 0.1578944999999976,
          "durationTicks": 96,
          "midi": 33,
          "name": "A1",
          "ticks": 93312,
          "time": 153.473454,
          "velocity": 0.3937007874015748
        },
        {
          "duration": 0.1578944999999976,
          "durationTicks": 96,
          "midi": 33,
          "name": "A1",
          "ticks": 93408,
          "time": 153.6313485,
          "velocity": 0.3937007874015748
        },
        {
          "duration": 0.1578944999999976,
          "durationTicks": 96,
          "midi": 45,
          "name": "A2",
          "ticks": 93408,
          "time": 153.6313485,
          "velocity": 0.3937007874015748
        },
        {
          "duration": 0.3157889999999952,
          "durationTicks": 192,
          "midi": 51,
          "name": "D#3",
          "ticks": 93504,
          "time": 153.789243,
          "velocity": 0.3937007874015748
        },
        {
          "duration": 0.3157889999999952,
          "durationTicks": 192,
          "midi": 63,
          "name": "D#4",
          "ticks": 93504,
          "time": 153.789243,
          "velocity": 0.3937007874015748
        },
        {
          "duration": 0.3157889999999952,
          "durationTicks": 192,
          "midi": 49,
          "name": "C#3",
          "ticks": 93696,
          "time": 154.105032,
          "velocity": 0.3937007874015748
        },
        {
          "duration": 0.3157889999999952,
          "durationTicks": 192,
          "midi": 37,
          "name": "C#2",
          "ticks": 93696,
          "time": 154.105032,
          "velocity": 0.3937007874015748
        },
        {
          "duration": 0.3157889999999952,
          "durationTicks": 192,
          "midi": 37,
          "name": "C#2",
          "ticks": 93888,
          "time": 154.420821,
          "velocity": 0.3937007874015748
        },
        {
          "duration": 0.3157889999999952,
          "durationTicks": 192,
          "midi": 49,
          "name": "C#3",
          "ticks": 93888,
          "time": 154.420821,
          "velocity": 0.3937007874015748
        },
        {
          "duration": 0.1578944999999976,
          "durationTicks": 96,
          "midi": 37,
          "name": "C#2",
          "ticks": 94080,
          "time": 154.73660999999998,
          "velocity": 0.3937007874015748
        },
        {
          "duration": 0.1578944999999976,
          "durationTicks": 96,
          "midi": 49,
          "name": "C#3",
          "ticks": 94080,
          "time": 154.73660999999998,
          "velocity": 0.3937007874015748
        },
        {
          "duration": 0.47368350000002124,
          "durationTicks": 288,
          "midi": 37,
          "name": "C#2",
          "ticks": 94176,
          "time": 154.89450449999998,
          "velocity": 0.3937007874015748
        },
        {
          "duration": 0.47368350000002124,
          "durationTicks": 288,
          "midi": 49,
          "name": "C#3",
          "ticks": 94176,
          "time": 154.89450449999998,
          "velocity": 0.3937007874015748
        },
        {
          "duration": 0.3157889999999952,
          "durationTicks": 192,
          "midi": 49,
          "name": "C#3",
          "ticks": 94464,
          "time": 155.368188,
          "velocity": 0.3937007874015748
        },
        {
          "duration": 0.3157889999999952,
          "durationTicks": 192,
          "midi": 37,
          "name": "C#2",
          "ticks": 94464,
          "time": 155.368188,
          "velocity": 0.3937007874015748
        },
        {
          "duration": 0.3157889999999952,
          "durationTicks": 192,
          "midi": 49,
          "name": "C#3",
          "ticks": 94656,
          "time": 155.683977,
          "velocity": 0.3937007874015748
        },
        {
          "duration": 0.3157889999999952,
          "durationTicks": 192,
          "midi": 37,
          "name": "C#2",
          "ticks": 94656,
          "time": 155.683977,
          "velocity": 0.3937007874015748
        },
        {
          "duration": 0.1578944999999976,
          "durationTicks": 96,
          "midi": 37,
          "name": "C#2",
          "ticks": 94848,
          "time": 155.999766,
          "velocity": 0.3937007874015748
        },
        {
          "duration": 0.1578944999999976,
          "durationTicks": 96,
          "midi": 49,
          "name": "C#3",
          "ticks": 94848,
          "time": 155.999766,
          "velocity": 0.3937007874015748
        },
        {
          "duration": 0.1578944999999976,
          "durationTicks": 96,
          "midi": 49,
          "name": "C#3",
          "ticks": 94944,
          "time": 156.1576605,
          "velocity": 0.3937007874015748
        },
        {
          "duration": 0.1578944999999976,
          "durationTicks": 96,
          "midi": 37,
          "name": "C#2",
          "ticks": 94944,
          "time": 156.1576605,
          "velocity": 0.3937007874015748
        },
        {
          "duration": 0.3157889999999952,
          "durationTicks": 192,
          "midi": 37,
          "name": "C#2",
          "ticks": 95040,
          "time": 156.315555,
          "velocity": 0.3937007874015748
        },
        {
          "duration": 0.3157889999999952,
          "durationTicks": 192,
          "midi": 49,
          "name": "C#3",
          "ticks": 95040,
          "time": 156.315555,
          "velocity": 0.3937007874015748
        },
        {
          "duration": 0.3157889999999952,
          "durationTicks": 192,
          "midi": 35,
          "name": "B1",
          "ticks": 95232,
          "time": 156.63134399999998,
          "velocity": 0.3937007874015748
        },
        {
          "duration": 0.3157889999999952,
          "durationTicks": 192,
          "midi": 47,
          "name": "B2",
          "ticks": 95232,
          "time": 156.63134399999998,
          "velocity": 0.3937007874015748
        },
        {
          "duration": 0.31578900000002363,
          "durationTicks": 192,
          "midi": 35,
          "name": "B1",
          "ticks": 95424,
          "time": 156.94713299999998,
          "velocity": 0.3937007874015748
        },
        {
          "duration": 0.31578900000002363,
          "durationTicks": 192,
          "midi": 47,
          "name": "B2",
          "ticks": 95424,
          "time": 156.94713299999998,
          "velocity": 0.3937007874015748
        },
        {
          "duration": 0.1578944999999976,
          "durationTicks": 96,
          "midi": 35,
          "name": "B1",
          "ticks": 95616,
          "time": 157.262922,
          "velocity": 0.3937007874015748
        },
        {
          "duration": 0.1578944999999976,
          "durationTicks": 96,
          "midi": 47,
          "name": "B2",
          "ticks": 95616,
          "time": 157.262922,
          "velocity": 0.3937007874015748
        },
        {
          "duration": 0.4736834999999928,
          "durationTicks": 288,
          "midi": 47,
          "name": "B2",
          "ticks": 95712,
          "time": 157.4208165,
          "velocity": 0.3937007874015748
        },
        {
          "duration": 0.4736834999999928,
          "durationTicks": 288,
          "midi": 35,
          "name": "B1",
          "ticks": 95712,
          "time": 157.4208165,
          "velocity": 0.3937007874015748
        },
        {
          "duration": 0.3157889999999952,
          "durationTicks": 192,
          "midi": 35,
          "name": "B1",
          "ticks": 96000,
          "time": 157.8945,
          "velocity": 0.3937007874015748
        },
        {
          "duration": 0.3157889999999952,
          "durationTicks": 192,
          "midi": 47,
          "name": "B2",
          "ticks": 96000,
          "time": 157.8945,
          "velocity": 0.3937007874015748
        },
        {
          "duration": 0.3157889999999952,
          "durationTicks": 192,
          "midi": 35,
          "name": "B1",
          "ticks": 96192,
          "time": 158.210289,
          "velocity": 0.3937007874015748
        },
        {
          "duration": 0.3157889999999952,
          "durationTicks": 192,
          "midi": 47,
          "name": "B2",
          "ticks": 96192,
          "time": 158.210289,
          "velocity": 0.3937007874015748
        },
        {
          "duration": 0.1578944999999976,
          "durationTicks": 96,
          "midi": 47,
          "name": "B2",
          "ticks": 96384,
          "time": 158.52607799999998,
          "velocity": 0.3937007874015748
        },
        {
          "duration": 0.1578944999999976,
          "durationTicks": 96,
          "midi": 35,
          "name": "B1",
          "ticks": 96384,
          "time": 158.52607799999998,
          "velocity": 0.3937007874015748
        },
        {
          "duration": 0.1578944999999976,
          "durationTicks": 96,
          "midi": 35,
          "name": "B1",
          "ticks": 96480,
          "time": 158.68397249999998,
          "velocity": 0.3937007874015748
        },
        {
          "duration": 0.1578944999999976,
          "durationTicks": 96,
          "midi": 47,
          "name": "B2",
          "ticks": 96480,
          "time": 158.68397249999998,
          "velocity": 0.3937007874015748
        },
        {
          "duration": 0.31578900000002363,
          "durationTicks": 192,
          "midi": 35,
          "name": "B1",
          "ticks": 96576,
          "time": 158.84186699999998,
          "velocity": 0.3937007874015748
        },
        {
          "duration": 0.31578900000002363,
          "durationTicks": 192,
          "midi": 47,
          "name": "B2",
          "ticks": 96576,
          "time": 158.84186699999998,
          "velocity": 0.3937007874015748
        },
        {
          "duration": 0.3157889999999952,
          "durationTicks": 192,
          "midi": 45,
          "name": "A2",
          "ticks": 96768,
          "time": 159.157656,
          "velocity": 0.3937007874015748
        },
        {
          "duration": 0.3157889999999952,
          "durationTicks": 192,
          "midi": 33,
          "name": "A1",
          "ticks": 96768,
          "time": 159.157656,
          "velocity": 0.3937007874015748
        },
        {
          "duration": 0.3157889999999952,
          "durationTicks": 192,
          "midi": 33,
          "name": "A1",
          "ticks": 96960,
          "time": 159.473445,
          "velocity": 0.3937007874015748
        },
        {
          "duration": 0.3157889999999952,
          "durationTicks": 192,
          "midi": 45,
          "name": "A2",
          "ticks": 96960,
          "time": 159.473445,
          "velocity": 0.3937007874015748
        },
        {
          "duration": 0.1578944999999976,
          "durationTicks": 96,
          "midi": 33,
          "name": "A1",
          "ticks": 97152,
          "time": 159.789234,
          "velocity": 0.3937007874015748
        },
        {
          "duration": 0.1578944999999976,
          "durationTicks": 96,
          "midi": 45,
          "name": "A2",
          "ticks": 97152,
          "time": 159.789234,
          "velocity": 0.3937007874015748
        },
        {
          "duration": 0.4736834999999928,
          "durationTicks": 288,
          "midi": 33,
          "name": "A1",
          "ticks": 97248,
          "time": 159.9471285,
          "velocity": 0.3937007874015748
        },
        {
          "duration": 0.4736834999999928,
          "durationTicks": 288,
          "midi": 45,
          "name": "A2",
          "ticks": 97248,
          "time": 159.9471285,
          "velocity": 0.3937007874015748
        },
        {
          "duration": 0.3157889999999952,
          "durationTicks": 192,
          "midi": 45,
          "name": "A2",
          "ticks": 97536,
          "time": 160.42081199999998,
          "velocity": 0.3937007874015748
        },
        {
          "duration": 0.3157889999999952,
          "durationTicks": 192,
          "midi": 33,
          "name": "A1",
          "ticks": 97536,
          "time": 160.42081199999998,
          "velocity": 0.3937007874015748
        },
        {
          "duration": 0.31578900000002363,
          "durationTicks": 192,
          "midi": 33,
          "name": "A1",
          "ticks": 97728,
          "time": 160.73660099999998,
          "velocity": 0.3937007874015748
        },
        {
          "duration": 0.31578900000002363,
          "durationTicks": 192,
          "midi": 45,
          "name": "A2",
          "ticks": 97728,
          "time": 160.73660099999998,
          "velocity": 0.3937007874015748
        },
        {
          "duration": 0.1578944999999976,
          "durationTicks": 96,
          "midi": 33,
          "name": "A1",
          "ticks": 97920,
          "time": 161.05239,
          "velocity": 0.3937007874015748
        },
        {
          "duration": 0.1578944999999976,
          "durationTicks": 96,
          "midi": 45,
          "name": "A2",
          "ticks": 97920,
          "time": 161.05239,
          "velocity": 0.3937007874015748
        },
        {
          "duration": 0.1578944999999976,
          "durationTicks": 96,
          "midi": 33,
          "name": "A1",
          "ticks": 98016,
          "time": 161.2102845,
          "velocity": 0.3937007874015748
        },
        {
          "duration": 0.1578944999999976,
          "durationTicks": 96,
          "midi": 45,
          "name": "A2",
          "ticks": 98016,
          "time": 161.2102845,
          "velocity": 0.3937007874015748
        },
        {
          "duration": 0.3157889999999952,
          "durationTicks": 192,
          "midi": 33,
          "name": "A1",
          "ticks": 98112,
          "time": 161.368179,
          "velocity": 0.3937007874015748
        },
        {
          "duration": 0.3157889999999952,
          "durationTicks": 192,
          "midi": 45,
          "name": "A2",
          "ticks": 98112,
          "time": 161.368179,
          "velocity": 0.3937007874015748
        },
        {
          "duration": 0.1578944999999976,
          "durationTicks": 96,
          "midi": 44,
          "name": "G#2",
          "ticks": 98304,
          "time": 161.683968,
          "velocity": 0.3937007874015748
        },
        {
          "duration": 0.1578944999999976,
          "durationTicks": 96,
          "midi": 32,
          "name": "G#1",
          "ticks": 98304,
          "time": 161.683968,
          "velocity": 0.3937007874015748
        },
        {
          "duration": 0.1578944999999976,
          "durationTicks": 96,
          "midi": 32,
          "name": "G#1",
          "ticks": 98400,
          "time": 161.8418625,
          "velocity": 0.3937007874015748
        },
        {
          "duration": 0.1578944999999976,
          "durationTicks": 96,
          "midi": 44,
          "name": "G#2",
          "ticks": 98400,
          "time": 161.8418625,
          "velocity": 0.3937007874015748
        },
        {
          "duration": 0.3157889999999952,
          "durationTicks": 192,
          "midi": 61,
          "name": "C#4",
          "ticks": 98496,
          "time": 161.999757,
          "velocity": 0.3937007874015748
        },
        {
          "duration": 0.3157889999999952,
          "durationTicks": 192,
          "midi": 49,
          "name": "C#3",
          "ticks": 98496,
          "time": 161.999757,
          "velocity": 0.3937007874015748
        },
        {
          "duration": 0.1578944999999976,
          "durationTicks": 96,
          "midi": 32,
          "name": "G#1",
          "ticks": 98688,
          "time": 162.31554599999998,
          "velocity": 0.3937007874015748
        },
        {
          "duration": 0.1578944999999976,
          "durationTicks": 96,
          "midi": 44,
          "name": "G#2",
          "ticks": 98688,
          "time": 162.31554599999998,
          "velocity": 0.3937007874015748
        },
        {
          "duration": 0.15789450000002603,
          "durationTicks": 96,
          "midi": 32,
          "name": "G#1",
          "ticks": 98784,
          "time": 162.47344049999998,
          "velocity": 0.3937007874015748
        },
        {
          "duration": 0.15789450000002603,
          "durationTicks": 96,
          "midi": 44,
          "name": "G#2",
          "ticks": 98784,
          "time": 162.47344049999998,
          "velocity": 0.3937007874015748
        },
        {
          "duration": 0.3157889999999952,
          "durationTicks": 192,
          "midi": 49,
          "name": "C#3",
          "ticks": 98880,
          "time": 162.631335,
          "velocity": 0.3937007874015748
        },
        {
          "duration": 0.3157889999999952,
          "durationTicks": 192,
          "midi": 61,
          "name": "C#4",
          "ticks": 98880,
          "time": 162.631335,
          "velocity": 0.3937007874015748
        },
        {
          "duration": 0.1578944999999976,
          "durationTicks": 96,
          "midi": 43,
          "name": "G2",
          "ticks": 99072,
          "time": 162.947124,
          "velocity": 0.3937007874015748
        },
        {
          "duration": 0.1578944999999976,
          "durationTicks": 96,
          "midi": 31,
          "name": "G1",
          "ticks": 99072,
          "time": 162.947124,
          "velocity": 0.3937007874015748
        },
        {
          "duration": 0.1578944999999976,
          "durationTicks": 96,
          "midi": 31,
          "name": "G1",
          "ticks": 99168,
          "time": 163.1050185,
          "velocity": 0.3937007874015748
        },
        {
          "duration": 0.1578944999999976,
          "durationTicks": 96,
          "midi": 43,
          "name": "G2",
          "ticks": 99168,
          "time": 163.1050185,
          "velocity": 0.3937007874015748
        },
        {
          "duration": 0.3157889999999952,
          "durationTicks": 192,
          "midi": 49,
          "name": "C#3",
          "ticks": 99264,
          "time": 163.262913,
          "velocity": 0.3937007874015748
        },
        {
          "duration": 0.3157889999999952,
          "durationTicks": 192,
          "midi": 61,
          "name": "C#4",
          "ticks": 99264,
          "time": 163.262913,
          "velocity": 0.3937007874015748
        },
        {
          "duration": 0.1578944999999976,
          "durationTicks": 96,
          "midi": 33,
          "name": "A1",
          "ticks": 99456,
          "time": 163.578702,
          "velocity": 0.3937007874015748
        },
        {
          "duration": 0.1578944999999976,
          "durationTicks": 96,
          "midi": 45,
          "name": "A2",
          "ticks": 99456,
          "time": 163.578702,
          "velocity": 0.3937007874015748
        },
        {
          "duration": 0.1578944999999976,
          "durationTicks": 96,
          "midi": 45,
          "name": "A2",
          "ticks": 99552,
          "time": 163.7365965,
          "velocity": 0.3937007874015748
        },
        {
          "duration": 0.1578944999999976,
          "durationTicks": 96,
          "midi": 33,
          "name": "A1",
          "ticks": 99552,
          "time": 163.7365965,
          "velocity": 0.3937007874015748
        },
        {
          "duration": 0.3157889999999952,
          "durationTicks": 192,
          "midi": 51,
          "name": "D#3",
          "ticks": 99648,
          "time": 163.894491,
          "velocity": 0.3937007874015748
        },
        {
          "duration": 0.3157889999999952,
          "durationTicks": 192,
          "midi": 63,
          "name": "D#4",
          "ticks": 99648,
          "time": 163.894491,
          "velocity": 0.3937007874015748
        },
        {
          "duration": 1.736839500000002,
          "durationTicks": 1056,
          "midi": 49,
          "name": "C#3",
          "ticks": 99840,
          "time": 164.21027999999998,
          "velocity": 0.3937007874015748
        },
        {
          "duration": 0.31578900000002363,
          "durationTicks": 192,
          "midi": 52,
          "name": "E3",
          "ticks": 100992,
          "time": 166.10501399999998,
          "velocity": 0.3937007874015748
        },
        {
          "duration": 0.3157889999999952,
          "durationTicks": 192,
          "midi": 54,
          "name": "F#3",
          "ticks": 101184,
          "time": 166.420803,
          "velocity": 0.3937007874015748
        },
        {
          "duration": 1.2631559999999808,
          "durationTicks": 768,
          "midi": 59,
          "name": "B3",
          "ticks": 101376,
          "time": 166.736592,
          "velocity": 0.3937007874015748
        },
        {
          "duration": 1.2631560000000093,
          "durationTicks": 768,
          "midi": 57,
          "name": "A3",
          "ticks": 102144,
          "time": 167.99974799999998,
          "velocity": 0.3937007874015748
        },
        {
          "duration": 0.3157889999999952,
          "durationTicks": 192,
          "midi": 44,
          "name": "G#2",
          "ticks": 122976,
          "time": 202.2628545,
          "velocity": 0.3937007874015748
        },
        {
          "duration": 0.1578944999999976,
          "durationTicks": 96,
          "midi": 61,
          "name": "C#4",
          "ticks": 123072,
          "time": 202.420749,
          "velocity": 0.3937007874015748
        },
        {
          "duration": 0.1578944999999976,
          "durationTicks": 96,
          "midi": 61,
          "name": "C#4",
          "ticks": 123168,
          "time": 202.5786435,
          "velocity": 0.3937007874015748
        },
        {
          "duration": 0.1578944999999976,
          "durationTicks": 96,
          "midi": 44,
          "name": "G#2",
          "ticks": 123360,
          "time": 202.8944325,
          "velocity": 0.3937007874015748
        },
        {
          "duration": 0.1578944999999976,
          "durationTicks": 96,
          "midi": 61,
          "name": "C#4",
          "ticks": 123456,
          "time": 203.052327,
          "velocity": 0.3937007874015748
        },
        {
          "duration": 0.1578944999999976,
          "durationTicks": 96,
          "midi": 61,
          "name": "C#4",
          "ticks": 123552,
          "time": 203.2102215,
          "velocity": 0.3937007874015748
        },
        {
          "duration": 0.1578944999999976,
          "durationTicks": 96,
          "midi": 43,
          "name": "G2",
          "ticks": 123648,
          "time": 203.368116,
          "velocity": 0.3937007874015748
        },
        {
          "duration": 0.1578944999999976,
          "durationTicks": 96,
          "midi": 43,
          "name": "G2",
          "ticks": 123744,
          "time": 203.52601049999998,
          "velocity": 0.3937007874015748
        },
        {
          "duration": 0.1578944999999976,
          "durationTicks": 96,
          "midi": 61,
          "name": "C#4",
          "ticks": 123840,
          "time": 203.68390499999998,
          "velocity": 0.3937007874015748
        },
        {
          "duration": 0.15789450000002603,
          "durationTicks": 96,
          "midi": 61,
          "name": "C#4",
          "ticks": 123936,
          "time": 203.84179949999998,
          "velocity": 0.3937007874015748
        },
        {
          "duration": 0.1578944999999976,
          "durationTicks": 96,
          "midi": 45,
          "name": "A2",
          "ticks": 124032,
          "time": 203.999694,
          "velocity": 0.3937007874015748
        },
        {
          "duration": 0.1578944999999976,
          "durationTicks": 96,
          "midi": 45,
          "name": "A2",
          "ticks": 124128,
          "time": 204.1575885,
          "velocity": 0.3937007874015748
        },
        {
          "duration": 0.1578944999999976,
          "durationTicks": 96,
          "midi": 63,
          "name": "D#4",
          "ticks": 124224,
          "time": 204.315483,
          "velocity": 0.3937007874015748
        },
        {
          "duration": 0.1578944999999976,
          "durationTicks": 96,
          "midi": 63,
          "name": "D#4",
          "ticks": 124320,
          "time": 204.4733775,
          "velocity": 0.3937007874015748
        },
        {
          "duration": 0.3157889999999952,
          "durationTicks": 192,
          "midi": 44,
          "name": "G#2",
          "ticks": 129120,
          "time": 212.3681025,
          "velocity": 0.3937007874015748
        },
        {
          "duration": 0.1578944999999976,
          "durationTicks": 96,
          "midi": 61,
          "name": "C#4",
          "ticks": 129216,
          "time": 212.525997,
          "velocity": 0.3937007874015748
        },
        {
          "duration": 0.1578944999999976,
          "durationTicks": 96,
          "midi": 61,
          "name": "C#4",
          "ticks": 129312,
          "time": 212.6838915,
          "velocity": 0.3937007874015748
        },
        {
          "duration": 0.1578944999999976,
          "durationTicks": 96,
          "midi": 44,
          "name": "G#2",
          "ticks": 129504,
          "time": 212.99968049999998,
          "velocity": 0.3937007874015748
        },
        {
          "duration": 0.1578944999999976,
          "durationTicks": 96,
          "midi": 61,
          "name": "C#4",
          "ticks": 129600,
          "time": 213.15757499999998,
          "velocity": 0.3937007874015748
        },
        {
          "duration": 0.15789450000002603,
          "durationTicks": 96,
          "midi": 61,
          "name": "C#4",
          "ticks": 129696,
          "time": 213.31546949999998,
          "velocity": 0.3937007874015748
        },
        {
          "duration": 0.1578944999999976,
          "durationTicks": 96,
          "midi": 43,
          "name": "G2",
          "ticks": 129792,
          "time": 213.473364,
          "velocity": 0.3937007874015748
        },
        {
          "duration": 0.1578944999999976,
          "durationTicks": 96,
          "midi": 43,
          "name": "G2",
          "ticks": 129888,
          "time": 213.6312585,
          "velocity": 0.3937007874015748
        },
        {
          "duration": 0.1578944999999976,
          "durationTicks": 96,
          "midi": 61,
          "name": "C#4",
          "ticks": 129984,
          "time": 213.789153,
          "velocity": 0.3937007874015748
        },
        {
          "duration": 0.1578944999999976,
          "durationTicks": 96,
          "midi": 61,
          "name": "C#4",
          "ticks": 130080,
          "time": 213.9470475,
          "velocity": 0.3937007874015748
        },
        {
          "duration": 0.1578944999999976,
          "durationTicks": 96,
          "midi": 45,
          "name": "A2",
          "ticks": 130176,
          "time": 214.104942,
          "velocity": 0.3937007874015748
        },
        {
          "duration": 0.1578944999999976,
          "durationTicks": 96,
          "midi": 45,
          "name": "A2",
          "ticks": 130272,
          "time": 214.2628365,
          "velocity": 0.3937007874015748
        },
        {
          "duration": 0.1578944999999976,
          "durationTicks": 96,
          "midi": 63,
          "name": "D#4",
          "ticks": 130368,
          "time": 214.420731,
          "velocity": 0.3937007874015748
        },
        {
          "duration": 0.1578944999999976,
          "durationTicks": 96,
          "midi": 63,
          "name": "D#4",
          "ticks": 130464,
          "time": 214.5786255,
          "velocity": 0.3937007874015748
        }
      ],
      "endOfTrackTicks": 130560
    },
    {
      "channel": 5,
      "controlChanges": {},
      "pitchBends": [],
      "instrument": {
        "family": "piano",
        "number": 3,
        "name": "honky-tonk piano"
      },
      "name": "Ragtime Piano",
      "notes": [
        {
          "duration": 0.315789,
          "durationTicks": 192,
          "midi": 49,
          "name": "C#3",
          "ticks": 0,
          "time": 0,
          "velocity": 0.3937007874015748
        },
        {
          "duration": 0.315789,
          "durationTicks": 192,
          "midi": 61,
          "name": "C#4",
          "ticks": 192,
          "time": 0.315789,
          "velocity": 0.3937007874015748
        },
        {
          "duration": 0.15789450000000005,
          "durationTicks": 96,
          "midi": 56,
          "name": "G#3",
          "ticks": 384,
          "time": 0.631578,
          "velocity": 0.3937007874015748
        },
        {
          "duration": 0.3157890000000001,
          "durationTicks": 192,
          "midi": 55,
          "name": "G3",
          "ticks": 672,
          "time": 1.1052615,
          "velocity": 0.3937007874015748
        },
        {
          "duration": 0.3157889999999999,
          "durationTicks": 192,
          "midi": 54,
          "name": "F#3",
          "ticks": 960,
          "time": 1.578945,
          "velocity": 0.3937007874015748
        },
        {
          "duration": 0.15789450000000005,
          "durationTicks": 96,
          "midi": 52,
          "name": "E3",
          "ticks": 1152,
          "time": 1.894734,
          "velocity": 0.3937007874015748
        },
        {
          "duration": 0.15789449999999983,
          "durationTicks": 96,
          "midi": 49,
          "name": "C#3",
          "ticks": 1248,
          "time": 2.0526285,
          "velocity": 0.3937007874015748
        },
        {
          "duration": 0.15789450000000027,
          "durationTicks": 96,
          "midi": 52,
          "name": "E3",
          "ticks": 1344,
          "time": 2.210523,
          "velocity": 0.3937007874015748
        },
        {
          "duration": 0.15789449999999983,
          "durationTicks": 96,
          "midi": 54,
          "name": "F#3",
          "ticks": 1440,
          "time": 2.3684175,
          "velocity": 0.3937007874015748
        },
        {
          "duration": 0.3157890000000001,
          "durationTicks": 192,
          "midi": 47,
          "name": "B2",
          "ticks": 1536,
          "time": 2.526312,
          "velocity": 0.3937007874015748
        },
        {
          "duration": 0.3157890000000001,
          "durationTicks": 192,
          "midi": 61,
          "name": "C#4",
          "ticks": 1728,
          "time": 2.842101,
          "velocity": 0.3937007874015748
        },
        {
          "duration": 0.31578899999999965,
          "durationTicks": 192,
          "midi": 56,
          "name": "G#3",
          "ticks": 1920,
          "time": 3.15789,
          "velocity": 0.3937007874015748
        },
        {
          "duration": 0.3157890000000001,
          "durationTicks": 192,
          "midi": 54,
          "name": "F#3",
          "ticks": 2112,
          "time": 3.4736789999999997,
          "velocity": 0.3937007874015748
        },
        {
          "duration": 0.3157890000000001,
          "durationTicks": 192,
          "midi": 52,
          "name": "E3",
          "ticks": 2304,
          "time": 3.789468,
          "velocity": 0.3937007874015748
        },
        {
          "duration": 0.15789450000000027,
          "durationTicks": 96,
          "midi": 51,
          "name": "D#3",
          "ticks": 2496,
          "time": 4.105257,
          "velocity": 0.3937007874015748
        },
        {
          "duration": 0.15789449999999938,
          "durationTicks": 96,
          "midi": 52,
          "name": "E3",
          "ticks": 2592,
          "time": 4.2631515,
          "velocity": 0.3937007874015748
        },
        {
          "duration": 0.15789450000000027,
          "durationTicks": 96,
          "midi": 51,
          "name": "D#3",
          "ticks": 2688,
          "time": 4.421046,
          "velocity": 0.3937007874015748
        },
        {
          "duration": 0.15789450000000027,
          "durationTicks": 96,
          "midi": 49,
          "name": "C#3",
          "ticks": 2784,
          "time": 4.5789405,
          "velocity": 0.3937007874015748
        },
        {
          "duration": 0.15789449999999938,
          "durationTicks": 96,
          "midi": 47,
          "name": "B2",
          "ticks": 2880,
          "time": 4.736835,
          "velocity": 0.3937007874015748
        },
        {
          "duration": 0.15789450000000027,
          "durationTicks": 96,
          "midi": 44,
          "name": "G#2",
          "ticks": 2976,
          "time": 4.8947294999999995,
          "velocity": 0.3937007874015748
        },
        {
          "duration": 0.15789450000000027,
          "durationTicks": 96,
          "midi": 45,
          "name": "A2",
          "ticks": 3072,
          "time": 5.052624,
          "velocity": 0.3937007874015748
        },
        {
          "duration": 0.15789449999999938,
          "durationTicks": 96,
          "midi": 45,
          "name": "A2",
          "ticks": 3168,
          "time": 5.2105185,
          "velocity": 0.3937007874015748
        },
        {
          "duration": 0.31578900000000054,
          "durationTicks": 192,
          "midi": 61,
          "name": "C#4",
          "ticks": 3264,
          "time": 5.368412999999999,
          "velocity": 0.3937007874015748
        },
        {
          "duration": 0.31578899999999965,
          "durationTicks": 192,
          "midi": 56,
          "name": "G#3",
          "ticks": 3456,
          "time": 5.684202,
          "velocity": 0.3937007874015748
        },
        {
          "duration": 0.15789450000000027,
          "durationTicks": 96,
          "midi": 61,
          "name": "C#4",
          "ticks": 3648,
          "time": 5.999991,
          "velocity": 0.3937007874015748
        },
        {
          "duration": 0.15789450000000027,
          "durationTicks": 96,
          "midi": 57,
          "name": "A3",
          "ticks": 3744,
          "time": 6.1578855,
          "velocity": 0.3937007874015748
        },
        {
          "duration": 0.15789449999999938,
          "durationTicks": 96,
          "midi": 61,
          "name": "C#4",
          "ticks": 3840,
          "time": 6.31578,
          "velocity": 0.3937007874015748
        },
        {
          "duration": 0.15789450000000027,
          "durationTicks": 96,
          "midi": 59,
          "name": "B3",
          "ticks": 3936,
          "time": 6.4736744999999996,
          "velocity": 0.3937007874015748
        },
        {
          "duration": 0.31578899999999965,
          "durationTicks": 192,
          "midi": 56,
          "name": "G#3",
          "ticks": 4032,
          "time": 6.631569,
          "velocity": 0.3937007874015748
        },
        {
          "duration": 0.31578900000000054,
          "durationTicks": 192,
          "midi": 54,
          "name": "F#3",
          "ticks": 4224,
          "time": 6.9473579999999995,
          "velocity": 0.3937007874015748
        },
        {
          "duration": 0.15789449999999938,
          "durationTicks": 96,
          "midi": 56,
          "name": "G#3",
          "ticks": 4416,
          "time": 7.263147,
          "velocity": 0.3937007874015748
        },
        {
          "duration": 0.15789450000000027,
          "durationTicks": 96,
          "midi": 52,
          "name": "E3",
          "ticks": 4512,
          "time": 7.421041499999999,
          "velocity": 0.3937007874015748
        },
        {
          "duration": 0.31578899999999965,
          "durationTicks": 192,
          "midi": 44,
          "name": "G#2",
          "ticks": 4608,
          "time": 7.578936,
          "velocity": 0.3937007874015748
        },
        {
          "duration": 0.31578900000000054,
          "durationTicks": 192,
          "midi": 61,
          "name": "C#4",
          "ticks": 4800,
          "time": 7.894724999999999,
          "velocity": 0.3937007874015748
        },
        {
          "duration": 0.31578900000000054,
          "durationTicks": 192,
          "midi": 44,
          "name": "G#2",
          "ticks": 4992,
          "time": 8.210514,
          "velocity": 0.3937007874015748
        },
        {
          "duration": 0.31578899999999877,
          "durationTicks": 192,
          "midi": 61,
          "name": "C#4",
          "ticks": 5184,
          "time": 8.526303,
          "velocity": 0.3937007874015748
        },
        {
          "duration": 0.31578900000000054,
          "durationTicks": 192,
          "midi": 43,
          "name": "G2",
          "ticks": 5376,
          "time": 8.842092,
          "velocity": 0.3937007874015748
        },
        {
          "duration": 0.31578900000000054,
          "durationTicks": 192,
          "midi": 61,
          "name": "C#4",
          "ticks": 5568,
          "time": 9.157881,
          "velocity": 0.3937007874015748
        },
        {
          "duration": 0.31578899999999877,
          "durationTicks": 192,
          "midi": 45,
          "name": "A2",
          "ticks": 5760,
          "time": 9.47367,
          "velocity": 0.3937007874015748
        },
        {
          "duration": 0.31578900000000054,
          "durationTicks": 192,
          "midi": 63,
          "name": "D#4",
          "ticks": 5952,
          "time": 9.789458999999999,
          "velocity": 0.3937007874015748
        },
        {
          "duration": 0.31578900000000054,
          "durationTicks": 192,
          "midi": 49,
          "name": "C#3",
          "ticks": 6144,
          "time": 10.105248,
          "velocity": 0.3937007874015748
        },
        {
          "duration": 0.31578899999999877,
          "durationTicks": 192,
          "midi": 61,
          "name": "C#4",
          "ticks": 6336,
          "time": 10.421037,
          "velocity": 0.3937007874015748
        },
        {
          "duration": 0.15789450000000116,
          "durationTicks": 96,
          "midi": 56,
          "name": "G#3",
          "ticks": 6528,
          "time": 10.736825999999999,
          "velocity": 0.3937007874015748
        },
        {
          "duration": 0.31578900000000054,
          "durationTicks": 192,
          "midi": 55,
          "name": "G3",
          "ticks": 6816,
          "time": 11.210509499999999,
          "velocity": 0.3937007874015748
        },
        {
          "duration": 0.31578900000000054,
          "durationTicks": 192,
          "midi": 54,
          "name": "F#3",
          "ticks": 7104,
          "time": 11.684192999999999,
          "velocity": 0.3937007874015748
        },
        {
          "duration": 0.15789449999999938,
          "durationTicks": 96,
          "midi": 52,
          "name": "E3",
          "ticks": 7296,
          "time": 11.999982,
          "velocity": 0.3937007874015748
        },
        {
          "duration": 0.15789450000000116,
          "durationTicks": 96,
          "midi": 49,
          "name": "C#3",
          "ticks": 7392,
          "time": 12.157876499999999,
          "velocity": 0.3937007874015748
        },
        {
          "duration": 0.15789449999999938,
          "durationTicks": 96,
          "midi": 52,
          "name": "E3",
          "ticks": 7488,
          "time": 12.315771,
          "velocity": 0.3937007874015748
        },
        {
          "duration": 0.15789450000000116,
          "durationTicks": 96,
          "midi": 54,
          "name": "F#3",
          "ticks": 7584,
          "time": 12.4736655,
          "velocity": 0.3937007874015748
        },
        {
          "duration": 0.31578899999999877,
          "durationTicks": 192,
          "midi": 47,
          "name": "B2",
          "ticks": 7680,
          "time": 12.63156,
          "velocity": 0.3937007874015748
        },
        {
          "duration": 0.31578900000000054,
          "durationTicks": 192,
          "midi": 61,
          "name": "C#4",
          "ticks": 7872,
          "time": 12.947348999999999,
          "velocity": 0.3937007874015748
        },
        {
          "duration": 0.31578900000000054,
          "durationTicks": 192,
          "midi": 56,
          "name": "G#3",
          "ticks": 8064,
          "time": 13.263138,
          "velocity": 0.3937007874015748
        },
        {
          "duration": 0.31578899999999877,
          "durationTicks": 192,
          "midi": 54,
          "name": "F#3",
          "ticks": 8256,
          "time": 13.578927,
          "velocity": 0.3937007874015748
        },
        {
          "duration": 0.31578900000000054,
          "durationTicks": 192,
          "midi": 52,
          "name": "E3",
          "ticks": 8448,
          "time": 13.894715999999999,
          "velocity": 0.3937007874015748
        },
        {
          "duration": 0.15789449999999938,
          "durationTicks": 96,
          "midi": 51,
          "name": "D#3",
          "ticks": 8640,
          "time": 14.210505,
          "velocity": 0.3937007874015748
        },
        {
          "duration": 0.15789450000000116,
          "durationTicks": 96,
          "midi": 52,
          "name": "E3",
          "ticks": 8736,
          "time": 14.368399499999999,
          "velocity": 0.3937007874015748
        },
        {
          "duration": 0.15789449999999938,
          "durationTicks": 96,
          "midi": 51,
          "name": "D#3",
          "ticks": 8832,
          "time": 14.526294,
          "velocity": 0.3937007874015748
        },
        {
          "duration": 0.15789449999999938,
          "durationTicks": 96,
          "midi": 49,
          "name": "C#3",
          "ticks": 8928,
          "time": 14.6841885,
          "velocity": 0.3937007874015748
        },
        {
          "duration": 0.15789450000000116,
          "durationTicks": 96,
          "midi": 47,
          "name": "B2",
          "ticks": 9024,
          "time": 14.842082999999999,
          "velocity": 0.3937007874015748
        },
        {
          "duration": 0.15789449999999938,
          "durationTicks": 96,
          "midi": 44,
          "name": "G#2",
          "ticks": 9120,
          "time": 14.9999775,
          "velocity": 0.3937007874015748
        },
        {
          "duration": 0.15789449999999938,
          "durationTicks": 96,
          "midi": 45,
          "name": "A2",
          "ticks": 9216,
          "time": 15.157872,
          "velocity": 0.3937007874015748
        },
        {
          "duration": 0.15789450000000116,
          "durationTicks": 96,
          "midi": 45,
          "name": "A2",
          "ticks": 9312,
          "time": 15.315766499999999,
          "velocity": 0.3937007874015748
        },
        {
          "duration": 0.31578899999999877,
          "durationTicks": 192,
          "midi": 61,
          "name": "C#4",
          "ticks": 9408,
          "time": 15.473661,
          "velocity": 0.3937007874015748
        },
        {
          "duration": 0.3157890000000023,
          "durationTicks": 192,
          "midi": 56,
          "name": "G#3",
          "ticks": 9600,
          "time": 15.789449999999999,
          "velocity": 0.3937007874015748
        },
        {
          "duration": 0.1578944999999976,
          "durationTicks": 96,
          "midi": 61,
          "name": "C#4",
          "ticks": 9792,
          "time": 16.105239,
          "velocity": 0.3937007874015748
        },
        {
          "duration": 0.15789450000000116,
          "durationTicks": 96,
          "midi": 57,
          "name": "A3",
          "ticks": 9888,
          "time": 16.2631335,
          "velocity": 0.3937007874015748
        },
        {
          "duration": 0.15789450000000116,
          "durationTicks": 96,
          "midi": 61,
          "name": "C#4",
          "ticks": 9984,
          "time": 16.421028,
          "velocity": 0.3937007874015748
        },
        {
          "duration": 0.1578944999999976,
          "durationTicks": 96,
          "midi": 59,
          "name": "B3",
          "ticks": 10080,
          "time": 16.5789225,
          "velocity": 0.3937007874015748
        },
        {
          "duration": 0.3157890000000023,
          "durationTicks": 192,
          "midi": 56,
          "name": "G#3",
          "ticks": 10176,
          "time": 16.736817,
          "velocity": 0.3937007874015748
        },
        {
          "duration": 0.31578899999999877,
          "durationTicks": 192,
          "midi": 54,
          "name": "F#3",
          "ticks": 10368,
          "time": 17.052606,
          "velocity": 0.3937007874015748
        },
        {
          "duration": 0.15789450000000116,
          "durationTicks": 96,
          "midi": 56,
          "name": "G#3",
          "ticks": 10560,
          "time": 17.368395,
          "velocity": 0.3937007874015748
        },
        {
          "duration": 0.1578944999999976,
          "durationTicks": 96,
          "midi": 52,
          "name": "E3",
          "ticks": 10656,
          "time": 17.5262895,
          "velocity": 0.3937007874015748
        },
        {
          "duration": 0.3157890000000023,
          "durationTicks": 192,
          "midi": 44,
          "name": "G#2",
          "ticks": 10752,
          "time": 17.684184,
          "velocity": 0.3937007874015748
        },
        {
          "duration": 0.31578899999999877,
          "durationTicks": 192,
          "midi": 61,
          "name": "C#4",
          "ticks": 10944,
          "time": 17.999973,
          "velocity": 0.3937007874015748
        },
        {
          "duration": 0.31578899999999877,
          "durationTicks": 192,
          "midi": 44,
          "name": "G#2",
          "ticks": 11136,
          "time": 18.315762,
          "velocity": 0.3937007874015748
        },
        {
          "duration": 0.3157890000000023,
          "durationTicks": 192,
          "midi": 61,
          "name": "C#4",
          "ticks": 11328,
          "time": 18.631550999999998,
          "velocity": 0.3937007874015748
        },
        {
          "duration": 0.31578899999999877,
          "durationTicks": 192,
          "midi": 43,
          "name": "G2",
          "ticks": 11520,
          "time": 18.94734,
          "velocity": 0.3937007874015748
        },
        {
          "duration": 0.31578899999999877,
          "durationTicks": 192,
          "midi": 61,
          "name": "C#4",
          "ticks": 11712,
          "time": 19.263129,
          "velocity": 0.3937007874015748
        },
        {
          "duration": 0.3157890000000023,
          "durationTicks": 192,
          "midi": 45,
          "name": "A2",
          "ticks": 11904,
          "time": 19.578917999999998,
          "velocity": 0.3937007874015748
        },
        {
          "duration": 0.31578899999999877,
          "durationTicks": 192,
          "midi": 63,
          "name": "D#4",
          "ticks": 12096,
          "time": 19.894707,
          "velocity": 0.3937007874015748
        },
        {
          "duration": 0.31578899999999877,
          "durationTicks": 192,
          "midi": 49,
          "name": "C#3",
          "ticks": 12288,
          "time": 20.210496,
          "velocity": 0.3937007874015748
        },
        {
          "duration": 0.3157890000000023,
          "durationTicks": 192,
          "midi": 61,
          "name": "C#4",
          "ticks": 12480,
          "time": 20.526284999999998,
          "velocity": 0.3937007874015748
        },
        {
          "duration": 0.1578944999999976,
          "durationTicks": 96,
          "midi": 56,
          "name": "G#3",
          "ticks": 12672,
          "time": 20.842074,
          "velocity": 0.3937007874015748
        },
        {
          "duration": 0.31578899999999877,
          "durationTicks": 192,
          "midi": 55,
          "name": "G3",
          "ticks": 12960,
          "time": 21.3157575,
          "velocity": 0.3937007874015748
        },
        {
          "duration": 0.31578899999999877,
          "durationTicks": 192,
          "midi": 54,
          "name": "F#3",
          "ticks": 13248,
          "time": 21.789441,
          "velocity": 0.3937007874015748
        },
        {
          "duration": 0.15789450000000116,
          "durationTicks": 96,
          "midi": 52,
          "name": "E3",
          "ticks": 13440,
          "time": 22.10523,
          "velocity": 0.3937007874015748
        },
        {
          "duration": 0.1578944999999976,
          "durationTicks": 96,
          "midi": 49,
          "name": "C#3",
          "ticks": 13536,
          "time": 22.2631245,
          "velocity": 0.3937007874015748
        },
        {
          "duration": 0.15789450000000116,
          "durationTicks": 96,
          "midi": 52,
          "name": "E3",
          "ticks": 13632,
          "time": 22.421018999999998,
          "velocity": 0.3937007874015748
        },
        {
          "duration": 0.15789450000000116,
          "durationTicks": 96,
          "midi": 54,
          "name": "F#3",
          "ticks": 13728,
          "time": 22.5789135,
          "velocity": 0.3937007874015748
        },
        {
          "duration": 0.31578899999999877,
          "durationTicks": 192,
          "midi": 47,
          "name": "B2",
          "ticks": 13824,
          "time": 22.736808,
          "velocity": 0.3937007874015748
        },
        {
          "duration": 0.31578899999999877,
          "durationTicks": 192,
          "midi": 61,
          "name": "C#4",
          "ticks": 14016,
          "time": 23.052597,
          "velocity": 0.3937007874015748
        },
        {
          "duration": 0.3157890000000023,
          "durationTicks": 192,
          "midi": 56,
          "name": "G#3",
          "ticks": 14208,
          "time": 23.368385999999997,
          "velocity": 0.3937007874015748
        },
        {
          "duration": 0.31578899999999877,
          "durationTicks": 192,
          "midi": 54,
          "name": "F#3",
          "ticks": 14400,
          "time": 23.684175,
          "velocity": 0.3937007874015748
        },
        {
          "duration": 0.31578899999999877,
          "durationTicks": 192,
          "midi": 52,
          "name": "E3",
          "ticks": 14592,
          "time": 23.999964,
          "velocity": 0.3937007874015748
        },
        {
          "duration": 0.15789450000000116,
          "durationTicks": 96,
          "midi": 51,
          "name": "D#3",
          "ticks": 14784,
          "time": 24.315752999999997,
          "velocity": 0.3937007874015748
        },
        {
          "duration": 0.15789450000000116,
          "durationTicks": 96,
          "midi": 52,
          "name": "E3",
          "ticks": 14880,
          "time": 24.4736475,
          "velocity": 0.3937007874015748
        },
        {
          "duration": 0.1578944999999976,
          "durationTicks": 96,
          "midi": 51,
          "name": "D#3",
          "ticks": 14976,
          "time": 24.631542,
          "velocity": 0.3937007874015748
        },
        {
          "duration": 0.15789450000000116,
          "durationTicks": 96,
          "midi": 49,
          "name": "C#3",
          "ticks": 15072,
          "time": 24.789436499999997,
          "velocity": 0.3937007874015748
        },
        {
          "duration": 0.15789450000000116,
          "durationTicks": 96,
          "midi": 47,
          "name": "B2",
          "ticks": 15168,
          "time": 24.947331,
          "velocity": 0.3937007874015748
        },
        {
          "duration": 0.15789450000000116,
          "durationTicks": 96,
          "midi": 44,
          "name": "G#2",
          "ticks": 15264,
          "time": 25.1052255,
          "velocity": 0.3937007874015748
        },
        {
          "duration": 0.1578944999999976,
          "durationTicks": 96,
          "midi": 45,
          "name": "A2",
          "ticks": 15360,
          "time": 25.26312,
          "velocity": 0.3937007874015748
        },
        {
          "duration": 0.15789450000000116,
          "durationTicks": 96,
          "midi": 45,
          "name": "A2",
          "ticks": 15456,
          "time": 25.4210145,
          "velocity": 0.3937007874015748
        },
        {
          "duration": 0.31578899999999877,
          "durationTicks": 192,
          "midi": 61,
          "name": "C#4",
          "ticks": 15552,
          "time": 25.578909,
          "velocity": 0.3937007874015748
        },
        {
          "duration": 0.3157890000000023,
          "durationTicks": 192,
          "midi": 56,
          "name": "G#3",
          "ticks": 15744,
          "time": 25.894697999999998,
          "velocity": 0.3937007874015748
        },
        {
          "duration": 0.1578944999999976,
          "durationTicks": 96,
          "midi": 61,
          "name": "C#4",
          "ticks": 15936,
          "time": 26.210487,
          "velocity": 0.3937007874015748
        },
        {
          "duration": 0.15789450000000116,
          "durationTicks": 96,
          "midi": 57,
          "name": "A3",
          "ticks": 16032,
          "time": 26.368381499999998,
          "velocity": 0.3937007874015748
        },
        {
          "duration": 0.15789450000000116,
          "durationTicks": 96,
          "midi": 61,
          "name": "C#4",
          "ticks": 16128,
          "time": 26.526276,
          "velocity": 0.3937007874015748
        },
        {
          "duration": 0.1578944999999976,
          "durationTicks": 96,
          "midi": 59,
          "name": "B3",
          "ticks": 16224,
          "time": 26.6841705,
          "velocity": 0.3937007874015748
        },
        {
          "duration": 0.3157890000000023,
          "durationTicks": 192,
          "midi": 56,
          "name": "G#3",
          "ticks": 16320,
          "time": 26.842064999999998,
          "velocity": 0.3937007874015748
        },
        {
          "duration": 0.31578899999999877,
          "durationTicks": 192,
          "midi": 54,
          "name": "F#3",
          "ticks": 16512,
          "time": 27.157854,
          "velocity": 0.3937007874015748
        },
        {
          "duration": 0.15789450000000116,
          "durationTicks": 96,
          "midi": 56,
          "name": "G#3",
          "ticks": 16704,
          "time": 27.473643,
          "velocity": 0.3937007874015748
        },
        {
          "duration": 0.1578944999999976,
          "durationTicks": 96,
          "midi": 52,
          "name": "E3",
          "ticks": 16800,
          "time": 27.6315375,
          "velocity": 0.3937007874015748
        },
        {
          "duration": 0.3157890000000023,
          "durationTicks": 192,
          "midi": 44,
          "name": "G#2",
          "ticks": 16896,
          "time": 27.789431999999998,
          "velocity": 0.3937007874015748
        },
        {
          "duration": 0.31578899999999877,
          "durationTicks": 192,
          "midi": 61,
          "name": "C#4",
          "ticks": 17088,
          "time": 28.105221,
          "velocity": 0.3937007874015748
        },
        {
          "duration": 0.31578899999999877,
          "durationTicks": 192,
          "midi": 44,
          "name": "G#2",
          "ticks": 17280,
          "time": 28.42101,
          "velocity": 0.3937007874015748
        },
        {
          "duration": 0.3157890000000023,
          "durationTicks": 192,
          "midi": 61,
          "name": "C#4",
          "ticks": 17472,
          "time": 28.736798999999998,
          "velocity": 0.3937007874015748
        },
        {
          "duration": 0.31578899999999877,
          "durationTicks": 192,
          "midi": 43,
          "name": "G2",
          "ticks": 17664,
          "time": 29.052588,
          "velocity": 0.3937007874015748
        },
        {
          "duration": 0.31578899999999877,
          "durationTicks": 192,
          "midi": 61,
          "name": "C#4",
          "ticks": 17856,
          "time": 29.368377,
          "velocity": 0.3937007874015748
        },
        {
          "duration": 0.3157890000000023,
          "durationTicks": 192,
          "midi": 45,
          "name": "A2",
          "ticks": 18048,
          "time": 29.684165999999998,
          "velocity": 0.3937007874015748
        },
        {
          "duration": 0.31578899999999877,
          "durationTicks": 192,
          "midi": 63,
          "name": "D#4",
          "ticks": 18240,
          "time": 29.999955,
          "velocity": 0.3937007874015748
        },
        {
          "duration": 0.31578899999999877,
          "durationTicks": 192,
          "midi": 49,
          "name": "C#3",
          "ticks": 18432,
          "time": 30.315744,
          "velocity": 0.3937007874015748
        },
        {
          "duration": 0.3157890000000023,
          "durationTicks": 192,
          "midi": 61,
          "name": "C#4",
          "ticks": 18624,
          "time": 30.631532999999997,
          "velocity": 0.3937007874015748
        },
        {
          "duration": 0.1578944999999976,
          "durationTicks": 96,
          "midi": 56,
          "name": "G#3",
          "ticks": 18816,
          "time": 30.947322,
          "velocity": 0.3937007874015748
        },
        {
          "duration": 0.31578899999999877,
          "durationTicks": 192,
          "midi": 55,
          "name": "G3",
          "ticks": 19104,
          "time": 31.4210055,
          "velocity": 0.3937007874015748
        },
        {
          "duration": 0.3157890000000023,
          "durationTicks": 192,
          "midi": 54,
          "name": "F#3",
          "ticks": 19392,
          "time": 31.894689,
          "velocity": 0.3937007874015748
        },
        {
          "duration": 0.1578944999999976,
          "durationTicks": 96,
          "midi": 52,
          "name": "E3",
          "ticks": 19584,
          "time": 32.210478,
          "velocity": 0.3937007874015748
        },
        {
          "duration": 0.1578944999999976,
          "durationTicks": 96,
          "midi": 49,
          "name": "C#3",
          "ticks": 19680,
          "time": 32.3683725,
          "velocity": 0.3937007874015748
        },
        {
          "duration": 0.1578945000000047,
          "durationTicks": 96,
          "midi": 52,
          "name": "E3",
          "ticks": 19776,
          "time": 32.526267,
          "velocity": 0.3937007874015748
        },
        {
          "duration": 0.1578944999999976,
          "durationTicks": 96,
          "midi": 54,
          "name": "F#3",
          "ticks": 19872,
          "time": 32.6841615,
          "velocity": 0.3937007874015748
        },
        {
          "duration": 0.3157890000000023,
          "durationTicks": 192,
          "midi": 47,
          "name": "B2",
          "ticks": 19968,
          "time": 32.842056,
          "velocity": 0.3937007874015748
        },
        {
          "duration": 0.3157889999999952,
          "durationTicks": 192,
          "midi": 61,
          "name": "C#4",
          "ticks": 20160,
          "time": 33.157845,
          "velocity": 0.3937007874015748
        },
        {
          "duration": 0.3157890000000023,
          "durationTicks": 192,
          "midi": 56,
          "name": "G#3",
          "ticks": 20352,
          "time": 33.473634,
          "velocity": 0.3937007874015748
        },
        {
          "duration": 0.3157890000000023,
          "durationTicks": 192,
          "midi": 54,
          "name": "F#3",
          "ticks": 20544,
          "time": 33.789423,
          "velocity": 0.3937007874015748
        },
        {
          "duration": 0.3157889999999952,
          "durationTicks": 192,
          "midi": 52,
          "name": "E3",
          "ticks": 20736,
          "time": 34.105212,
          "velocity": 0.3937007874015748
        },
        {
          "duration": 0.1578945000000047,
          "durationTicks": 96,
          "midi": 51,
          "name": "D#3",
          "ticks": 20928,
          "time": 34.421001,
          "velocity": 0.3937007874015748
        },
        {
          "duration": 0.1578944999999976,
          "durationTicks": 96,
          "midi": 52,
          "name": "E3",
          "ticks": 21024,
          "time": 34.5788955,
          "velocity": 0.3937007874015748
        },
        {
          "duration": 0.1578944999999976,
          "durationTicks": 96,
          "midi": 51,
          "name": "D#3",
          "ticks": 21120,
          "time": 34.73679,
          "velocity": 0.3937007874015748
        },
        {
          "duration": 0.1578945000000047,
          "durationTicks": 96,
          "midi": 49,
          "name": "C#3",
          "ticks": 21216,
          "time": 34.8946845,
          "velocity": 0.3937007874015748
        },
        {
          "duration": 0.1578944999999976,
          "durationTicks": 96,
          "midi": 47,
          "name": "B2",
          "ticks": 21312,
          "time": 35.052579,
          "velocity": 0.3937007874015748
        },
        {
          "duration": 0.1578944999999976,
          "durationTicks": 96,
          "midi": 44,
          "name": "G#2",
          "ticks": 21408,
          "time": 35.2104735,
          "velocity": 0.3937007874015748
        },
        {
          "duration": 0.1578945000000047,
          "durationTicks": 96,
          "midi": 45,
          "name": "A2",
          "ticks": 21504,
          "time": 35.368368,
          "velocity": 0.3937007874015748
        },
        {
          "duration": 0.1578944999999976,
          "durationTicks": 96,
          "midi": 45,
          "name": "A2",
          "ticks": 21600,
          "time": 35.5262625,
          "velocity": 0.3937007874015748
        },
        {
          "duration": 0.3157890000000023,
          "durationTicks": 192,
          "midi": 61,
          "name": "C#4",
          "ticks": 21696,
          "time": 35.684157,
          "velocity": 0.3937007874015748
        },
        {
          "duration": 0.3157889999999952,
          "durationTicks": 192,
          "midi": 56,
          "name": "G#3",
          "ticks": 21888,
          "time": 35.999946,
          "velocity": 0.3937007874015748
        },
        {
          "duration": 0.1578945000000047,
          "durationTicks": 96,
          "midi": 61,
          "name": "C#4",
          "ticks": 22080,
          "time": 36.315735,
          "velocity": 0.3937007874015748
        },
        {
          "duration": 0.1578944999999976,
          "durationTicks": 96,
          "midi": 57,
          "name": "A3",
          "ticks": 22176,
          "time": 36.4736295,
          "velocity": 0.3937007874015748
        },
        {
          "duration": 0.1578944999999976,
          "durationTicks": 96,
          "midi": 61,
          "name": "C#4",
          "ticks": 22272,
          "time": 36.631524,
          "velocity": 0.3937007874015748
        },
        {
          "duration": 0.1578945000000047,
          "durationTicks": 96,
          "midi": 59,
          "name": "B3",
          "ticks": 22368,
          "time": 36.7894185,
          "velocity": 0.3937007874015748
        },
        {
          "duration": 0.3157889999999952,
          "durationTicks": 192,
          "midi": 56,
          "name": "G#3",
          "ticks": 22464,
          "time": 36.947313,
          "velocity": 0.3937007874015748
        },
        {
          "duration": 0.3157890000000023,
          "durationTicks": 192,
          "midi": 54,
          "name": "F#3",
          "ticks": 22656,
          "time": 37.263101999999996,
          "velocity": 0.3937007874015748
        },
        {
          "duration": 0.1578944999999976,
          "durationTicks": 96,
          "midi": 56,
          "name": "G#3",
          "ticks": 22848,
          "time": 37.578891,
          "velocity": 0.3937007874015748
        },
        {
          "duration": 0.1578945000000047,
          "durationTicks": 96,
          "midi": 52,
          "name": "E3",
          "ticks": 22944,
          "time": 37.736785499999996,
          "velocity": 0.3937007874015748
        },
        {
          "duration": 0.3157889999999952,
          "durationTicks": 192,
          "midi": 44,
          "name": "G#2",
          "ticks": 23040,
          "time": 37.89468,
          "velocity": 0.3937007874015748
        },
        {
          "duration": 0.3157890000000023,
          "durationTicks": 192,
          "midi": 61,
          "name": "C#4",
          "ticks": 23232,
          "time": 38.210468999999996,
          "velocity": 0.3937007874015748
        },
        {
          "duration": 0.3157890000000023,
          "durationTicks": 192,
          "midi": 44,
          "name": "G#2",
          "ticks": 23424,
          "time": 38.526258,
          "velocity": 0.3937007874015748
        },
        {
          "duration": 0.3157889999999952,
          "durationTicks": 192,
          "midi": 61,
          "name": "C#4",
          "ticks": 23616,
          "time": 38.842047,
          "velocity": 0.3937007874015748
        },
        {
          "duration": 0.3157890000000023,
          "durationTicks": 192,
          "midi": 43,
          "name": "G2",
          "ticks": 23808,
          "time": 39.157835999999996,
          "velocity": 0.3937007874015748
        },
        {
          "duration": 0.3157890000000023,
          "durationTicks": 192,
          "midi": 61,
          "name": "C#4",
          "ticks": 24000,
          "time": 39.473625,
          "velocity": 0.3937007874015748
        },
        {
          "duration": 0.3157889999999952,
          "durationTicks": 192,
          "midi": 45,
          "name": "A2",
          "ticks": 24192,
          "time": 39.789414,
          "velocity": 0.3937007874015748
        },
        {
          "duration": 0.3157890000000023,
          "durationTicks": 192,
          "midi": 63,
          "name": "D#4",
          "ticks": 24384,
          "time": 40.105202999999996,
          "velocity": 0.3937007874015748
        },
        {
          "duration": 0.3157890000000023,
          "durationTicks": 192,
          "midi": 49,
          "name": "C#3",
          "ticks": 24576,
          "time": 40.420992,
          "velocity": 0.3937007874015748
        },
        {
          "duration": 0.3157889999999952,
          "durationTicks": 192,
          "midi": 61,
          "name": "C#4",
          "ticks": 24768,
          "time": 40.736781,
          "velocity": 0.3937007874015748
        },
        {
          "duration": 0.1578945000000047,
          "durationTicks": 96,
          "midi": 56,
          "name": "G#3",
          "ticks": 24960,
          "time": 41.052569999999996,
          "velocity": 0.3937007874015748
        },
        {
          "duration": 0.3157890000000023,
          "durationTicks": 192,
          "midi": 55,
          "name": "G3",
          "ticks": 25248,
          "time": 41.526253499999996,
          "velocity": 0.3937007874015748
        },
        {
          "duration": 0.3157890000000023,
          "durationTicks": 192,
          "midi": 54,
          "name": "F#3",
          "ticks": 25536,
          "time": 41.999936999999996,
          "velocity": 0.3937007874015748
        },
        {
          "duration": 0.1578944999999976,
          "durationTicks": 96,
          "midi": 52,
          "name": "E3",
          "ticks": 25728,
          "time": 42.315726,
          "velocity": 0.3937007874015748
        },
        {
          "duration": 0.1578945000000047,
          "durationTicks": 96,
          "midi": 49,
          "name": "C#3",
          "ticks": 25824,
          "time": 42.473620499999996,
          "velocity": 0.3937007874015748
        },
        {
          "duration": 0.1578944999999976,
          "durationTicks": 96,
          "midi": 52,
          "name": "E3",
          "ticks": 25920,
          "time": 42.631515,
          "velocity": 0.3937007874015748
        },
        {
          "duration": 0.1578944999999976,
          "durationTicks": 96,
          "midi": 54,
          "name": "F#3",
          "ticks": 26016,
          "time": 42.7894095,
          "velocity": 0.3937007874015748
        },
        {
          "duration": 0.3157890000000023,
          "durationTicks": 192,
          "midi": 47,
          "name": "B2",
          "ticks": 26112,
          "time": 42.947303999999995,
          "velocity": 0.3937007874015748
        },
        {
          "duration": 0.3157890000000023,
          "durationTicks": 192,
          "midi": 61,
          "name": "C#4",
          "ticks": 26304,
          "time": 43.263093,
          "velocity": 0.3937007874015748
        },
        {
          "duration": 0.3157889999999952,
          "durationTicks": 192,
          "midi": 56,
          "name": "G#3",
          "ticks": 26496,
          "time": 43.578882,
          "velocity": 0.3937007874015748
        },
        {
          "duration": 0.3157890000000023,
          "durationTicks": 192,
          "midi": 54,
          "name": "F#3",
          "ticks": 26688,
          "time": 43.894670999999995,
          "velocity": 0.3937007874015748
        },
        {
          "duration": 0.3157890000000023,
          "durationTicks": 192,
          "midi": 52,
          "name": "E3",
          "ticks": 26880,
          "time": 44.21046,
          "velocity": 0.3937007874015748
        },
        {
          "duration": 0.1578944999999976,
          "durationTicks": 96,
          "midi": 51,
          "name": "D#3",
          "ticks": 27072,
          "time": 44.526249,
          "velocity": 0.3937007874015748
        },
        {
          "duration": 0.1578944999999976,
          "durationTicks": 96,
          "midi": 52,
          "name": "E3",
          "ticks": 27168,
          "time": 44.6841435,
          "velocity": 0.3937007874015748
        },
        {
          "duration": 0.1578945000000047,
          "durationTicks": 96,
          "midi": 51,
          "name": "D#3",
          "ticks": 27264,
          "time": 44.842037999999995,
          "velocity": 0.3937007874015748
        },
        {
          "duration": 0.1578944999999976,
          "durationTicks": 96,
          "midi": 49,
          "name": "C#3",
          "ticks": 27360,
          "time": 44.9999325,
          "velocity": 0.3937007874015748
        },
        {
          "duration": 0.1578944999999976,
          "durationTicks": 96,
          "midi": 47,
          "name": "B2",
          "ticks": 27456,
          "time": 45.157827,
          "velocity": 0.3937007874015748
        },
        {
          "duration": 0.1578945000000047,
          "durationTicks": 96,
          "midi": 44,
          "name": "G#2",
          "ticks": 27552,
          "time": 45.315721499999995,
          "velocity": 0.3937007874015748
        },
        {
          "duration": 0.1578944999999976,
          "durationTicks": 96,
          "midi": 45,
          "name": "A2",
          "ticks": 27648,
          "time": 45.473616,
          "velocity": 0.3937007874015748
        },
        {
          "duration": 0.1578944999999976,
          "durationTicks": 96,
          "midi": 45,
          "name": "A2",
          "ticks": 27744,
          "time": 45.6315105,
          "velocity": 0.3937007874015748
        },
        {
          "duration": 0.3157890000000023,
          "durationTicks": 192,
          "midi": 61,
          "name": "C#4",
          "ticks": 27840,
          "time": 45.789404999999995,
          "velocity": 0.3937007874015748
        },
        {
          "duration": 0.3157890000000023,
          "durationTicks": 192,
          "midi": 56,
          "name": "G#3",
          "ticks": 28032,
          "time": 46.105194,
          "velocity": 0.3937007874015748
        },
        {
          "duration": 0.1578944999999976,
          "durationTicks": 96,
          "midi": 61,
          "name": "C#4",
          "ticks": 28224,
          "time": 46.420983,
          "velocity": 0.3937007874015748
        },
        {
          "duration": 0.1578944999999976,
          "durationTicks": 96,
          "midi": 57,
          "name": "A3",
          "ticks": 28320,
          "time": 46.5788775,
          "velocity": 0.3937007874015748
        },
        {
          "duration": 0.1578945000000047,
          "durationTicks": 96,
          "midi": 61,
          "name": "C#4",
          "ticks": 28416,
          "time": 46.736771999999995,
          "velocity": 0.3937007874015748
        },
        {
          "duration": 0.1578944999999976,
          "durationTicks": 96,
          "midi": 59,
          "name": "B3",
          "ticks": 28512,
          "time": 46.8946665,
          "velocity": 0.3937007874015748
        },
        {
          "duration": 0.3157890000000023,
          "durationTicks": 192,
          "midi": 56,
          "name": "G#3",
          "ticks": 28608,
          "time": 47.052561,
          "velocity": 0.3937007874015748
        },
        {
          "duration": 0.3157889999999952,
          "durationTicks": 192,
          "midi": 54,
          "name": "F#3",
          "ticks": 28800,
          "time": 47.36835,
          "velocity": 0.3937007874015748
        },
        {
          "duration": 0.1578945000000047,
          "durationTicks": 96,
          "midi": 56,
          "name": "G#3",
          "ticks": 28992,
          "time": 47.684138999999995,
          "velocity": 0.3937007874015748
        },
        {
          "duration": 0.1578944999999976,
          "durationTicks": 96,
          "midi": 52,
          "name": "E3",
          "ticks": 29088,
          "time": 47.8420335,
          "velocity": 0.3937007874015748
        },
        {
          "duration": 0.3157890000000023,
          "durationTicks": 192,
          "midi": 44,
          "name": "G#2",
          "ticks": 29184,
          "time": 47.999928,
          "velocity": 0.3937007874015748
        },
        {
          "duration": 0.3157889999999952,
          "durationTicks": 192,
          "midi": 61,
          "name": "C#4",
          "ticks": 29376,
          "time": 48.315717,
          "velocity": 0.3937007874015748
        },
        {
          "duration": 0.3157890000000023,
          "durationTicks": 192,
          "midi": 44,
          "name": "G#2",
          "ticks": 29568,
          "time": 48.631505999999995,
          "velocity": 0.3937007874015748
        },
        {
          "duration": 0.3157890000000023,
          "durationTicks": 192,
          "midi": 61,
          "name": "C#4",
          "ticks": 29760,
          "time": 48.947295,
          "velocity": 0.3937007874015748
        },
        {
          "duration": 0.3157889999999952,
          "durationTicks": 192,
          "midi": 43,
          "name": "G2",
          "ticks": 29952,
          "time": 49.263084,
          "velocity": 0.3937007874015748
        },
        {
          "duration": 0.3157890000000023,
          "durationTicks": 192,
          "midi": 61,
          "name": "C#4",
          "ticks": 30144,
          "time": 49.578872999999994,
          "velocity": 0.3937007874015748
        },
        {
          "duration": 0.3157890000000023,
          "durationTicks": 192,
          "midi": 45,
          "name": "A2",
          "ticks": 30336,
          "time": 49.894662,
          "velocity": 0.3937007874015748
        },
        {
          "duration": 0.3157890000000023,
          "durationTicks": 192,
          "midi": 63,
          "name": "D#4",
          "ticks": 30528,
          "time": 50.210451,
          "velocity": 0.3937007874015748
        },
        {
          "duration": 0.3157889999999952,
          "durationTicks": 192,
          "midi": 61,
          "name": "C#4",
          "ticks": 30720,
          "time": 50.52624,
          "velocity": 0.3937007874015748
        },
        {
          "duration": 0.3157890000000023,
          "durationTicks": 192,
          "midi": 73,
          "name": "C#5",
          "ticks": 30912,
          "time": 50.842029,
          "velocity": 0.3937007874015748
        },
        {
          "duration": 0.1578944999999976,
          "durationTicks": 96,
          "midi": 68,
          "name": "G#4",
          "ticks": 31104,
          "time": 51.157818,
          "velocity": 0.3937007874015748
        },
        {
          "duration": 0.3157890000000023,
          "durationTicks": 192,
          "midi": 67,
          "name": "G4",
          "ticks": 31392,
          "time": 51.6315015,
          "velocity": 0.3937007874015748
        },
        {
          "duration": 0.3157890000000023,
          "durationTicks": 192,
          "midi": 66,
          "name": "F#4",
          "ticks": 31680,
          "time": 52.105185,
          "velocity": 0.3937007874015748
        },
        {
          "duration": 0.1578944999999976,
          "durationTicks": 96,
          "midi": 64,
          "name": "E4",
          "ticks": 31872,
          "time": 52.420974,
          "velocity": 0.3937007874015748
        },
        {
          "duration": 0.1578944999999976,
          "durationTicks": 96,
          "midi": 61,
          "name": "C#4",
          "ticks": 31968,
          "time": 52.5788685,
          "velocity": 0.3937007874015748
        },
        {
          "duration": 0.1578945000000047,
          "durationTicks": 96,
          "midi": 64,
          "name": "E4",
          "ticks": 32064,
          "time": 52.736762999999996,
          "velocity": 0.3937007874015748
        },
        {
          "duration": 0.1578944999999976,
          "durationTicks": 96,
          "midi": 66,
          "name": "F#4",
          "ticks": 32160,
          "time": 52.8946575,
          "velocity": 0.3937007874015748
        },
        {
          "duration": 0.3157890000000023,
          "durationTicks": 192,
          "midi": 59,
          "name": "B3",
          "ticks": 32256,
          "time": 53.052552,
          "velocity": 0.3937007874015748
        },
        {
          "duration": 0.3157889999999952,
          "durationTicks": 192,
          "midi": 73,
          "name": "C#5",
          "ticks": 32448,
          "time": 53.368341,
          "velocity": 0.3937007874015748
        },
        {
          "duration": 0.3157890000000023,
          "durationTicks": 192,
          "midi": 68,
          "name": "G#4",
          "ticks": 32640,
          "time": 53.684129999999996,
          "velocity": 0.3937007874015748
        },
        {
          "duration": 0.3157890000000023,
          "durationTicks": 192,
          "midi": 66,
          "name": "F#4",
          "ticks": 32832,
          "time": 53.999919,
          "velocity": 0.3937007874015748
        },
        {
          "duration": 0.3157889999999952,
          "durationTicks": 192,
          "midi": 64,
          "name": "E4",
          "ticks": 33024,
          "time": 54.315708,
          "velocity": 0.3937007874015748
        },
        {
          "duration": 0.1578945000000047,
          "durationTicks": 96,
          "midi": 63,
          "name": "D#4",
          "ticks": 33216,
          "time": 54.631496999999996,
          "velocity": 0.3937007874015748
        },
        {
          "duration": 0.1578944999999976,
          "durationTicks": 96,
          "midi": 64,
          "name": "E4",
          "ticks": 33312,
          "time": 54.7893915,
          "velocity": 0.3937007874015748
        },
        {
          "duration": 0.1578944999999976,
          "durationTicks": 96,
          "midi": 63,
          "name": "D#4",
          "ticks": 33408,
          "time": 54.947286,
          "velocity": 0.3937007874015748
        },
        {
          "duration": 0.1578945000000047,
          "durationTicks": 96,
          "midi": 61,
          "name": "C#4",
          "ticks": 33504,
          "time": 55.105180499999996,
          "velocity": 0.3937007874015748
        },
        {
          "duration": 0.1578944999999976,
          "durationTicks": 96,
          "midi": 59,
          "name": "B3",
          "ticks": 33600,
          "time": 55.263075,
          "velocity": 0.3937007874015748
        },
        {
          "duration": 0.1578944999999976,
          "durationTicks": 96,
          "midi": 56,
          "name": "G#3",
          "ticks": 33696,
          "time": 55.4209695,
          "velocity": 0.3937007874015748
        },
        {
          "duration": 0.1578945000000047,
          "durationTicks": 96,
          "midi": 57,
          "name": "A3",
          "ticks": 33792,
          "time": 55.578863999999996,
          "velocity": 0.3937007874015748
        },
        {
          "duration": 0.1578944999999976,
          "durationTicks": 96,
          "midi": 57,
          "name": "A3",
          "ticks": 33888,
          "time": 55.7367585,
          "velocity": 0.3937007874015748
        },
        {
          "duration": 0.3157890000000023,
          "durationTicks": 192,
          "midi": 73,
          "name": "C#5",
          "ticks": 33984,
          "time": 55.894653,
          "velocity": 0.3937007874015748
        },
        {
          "duration": 0.3157889999999952,
          "durationTicks": 192,
          "midi": 68,
          "name": "G#4",
          "ticks": 34176,
          "time": 56.210442,
          "velocity": 0.3937007874015748
        },
        {
          "duration": 0.1578945000000047,
          "durationTicks": 96,
          "midi": 73,
          "name": "C#5",
          "ticks": 34368,
          "time": 56.526230999999996,
          "velocity": 0.3937007874015748
        },
        {
          "duration": 0.1578944999999976,
          "durationTicks": 96,
          "midi": 69,
          "name": "A4",
          "ticks": 34464,
          "time": 56.6841255,
          "velocity": 0.3937007874015748
        },
        {
          "duration": 0.1578944999999976,
          "durationTicks": 96,
          "midi": 73,
          "name": "C#5",
          "ticks": 34560,
          "time": 56.84202,
          "velocity": 0.3937007874015748
        },
        {
          "duration": 0.1578945000000047,
          "durationTicks": 96,
          "midi": 71,
          "name": "B4",
          "ticks": 34656,
          "time": 56.999914499999996,
          "velocity": 0.3937007874015748
        },
        {
          "duration": 0.3157889999999952,
          "durationTicks": 192,
          "midi": 68,
          "name": "G#4",
          "ticks": 34752,
          "time": 57.157809,
          "velocity": 0.3937007874015748
        },
        {
          "duration": 0.3157890000000023,
          "durationTicks": 192,
          "midi": 66,
          "name": "F#4",
          "ticks": 34944,
          "time": 57.473597999999996,
          "velocity": 0.3937007874015748
        },
        {
          "duration": 0.1578944999999976,
          "durationTicks": 96,
          "midi": 68,
          "name": "G#4",
          "ticks": 35136,
          "time": 57.789387,
          "velocity": 0.3937007874015748
        },
        {
          "duration": 0.1578945000000047,
          "durationTicks": 96,
          "midi": 64,
          "name": "E4",
          "ticks": 35232,
          "time": 57.947281499999995,
          "velocity": 0.3937007874015748
        },
        {
          "duration": 0.3157889999999952,
          "durationTicks": 192,
          "midi": 56,
          "name": "G#3",
          "ticks": 35328,
          "time": 58.105176,
          "velocity": 0.3937007874015748
        },
        {
          "duration": 0.3157890000000023,
          "durationTicks": 192,
          "midi": 73,
          "name": "C#5",
          "ticks": 35520,
          "time": 58.420964999999995,
          "velocity": 0.3937007874015748
        },
        {
          "duration": 0.3157890000000023,
          "durationTicks": 192,
          "midi": 56,
          "name": "G#3",
          "ticks": 35712,
          "time": 58.736754,
          "velocity": 0.3937007874015748
        },
        {
          "duration": 0.3157889999999952,
          "durationTicks": 192,
          "midi": 73,
          "name": "C#5",
          "ticks": 35904,
          "time": 59.052543,
          "velocity": 0.3937007874015748
        },
        {
          "duration": 0.3157890000000023,
          "durationTicks": 192,
          "midi": 55,
          "name": "G3",
          "ticks": 36096,
          "time": 59.368331999999995,
          "velocity": 0.3937007874015748
        },
        {
          "duration": 0.3157890000000023,
          "durationTicks": 192,
          "midi": 73,
          "name": "C#5",
          "ticks": 36288,
          "time": 59.684121,
          "velocity": 0.3937007874015748
        },
        {
          "duration": 0.3157889999999952,
          "durationTicks": 192,
          "midi": 57,
          "name": "A3",
          "ticks": 36480,
          "time": 59.99991,
          "velocity": 0.3937007874015748
        },
        {
          "duration": 0.3157890000000023,
          "durationTicks": 192,
          "midi": 75,
          "name": "D#5",
          "ticks": 36672,
          "time": 60.315698999999995,
          "velocity": 0.3937007874015748
        },
        {
          "duration": 0.3157890000000023,
          "durationTicks": 192,
          "midi": 61,
          "name": "C#4",
          "ticks": 36864,
          "time": 60.631488,
          "velocity": 0.3937007874015748
        },
        {
          "duration": 0.3157889999999952,
          "durationTicks": 192,
          "midi": 73,
          "name": "C#5",
          "ticks": 37056,
          "time": 60.947277,
          "velocity": 0.3937007874015748
        },
        {
          "duration": 0.1578945000000047,
          "durationTicks": 96,
          "midi": 68,
          "name": "G#4",
          "ticks": 37248,
          "time": 61.263065999999995,
          "velocity": 0.3937007874015748
        },
        {
          "duration": 0.3157890000000023,
          "durationTicks": 192,
          "midi": 67,
          "name": "G4",
          "ticks": 37536,
          "time": 61.736749499999995,
          "velocity": 0.3937007874015748
        },
        {
          "duration": 0.3157890000000023,
          "durationTicks": 192,
          "midi": 66,
          "name": "F#4",
          "ticks": 37824,
          "time": 62.210432999999995,
          "velocity": 0.3937007874015748
        },
        {
          "duration": 0.1578944999999976,
          "durationTicks": 96,
          "midi": 64,
          "name": "E4",
          "ticks": 38016,
          "time": 62.526222,
          "velocity": 0.3937007874015748
        },
        {
          "duration": 0.1578945000000047,
          "durationTicks": 96,
          "midi": 61,
          "name": "C#4",
          "ticks": 38112,
          "time": 62.684116499999995,
          "velocity": 0.3937007874015748
        },
        {
          "duration": 0.1578944999999976,
          "durationTicks": 96,
          "midi": 64,
          "name": "E4",
          "ticks": 38208,
          "time": 62.842011,
          "velocity": 0.3937007874015748
        },
        {
          "duration": 0.1578944999999976,
          "durationTicks": 96,
          "midi": 66,
          "name": "F#4",
          "ticks": 38304,
          "time": 62.9999055,
          "velocity": 0.3937007874015748
        },
        {
          "duration": 0.3157890000000023,
          "durationTicks": 192,
          "midi": 59,
          "name": "B3",
          "ticks": 38400,
          "time": 63.157799999999995,
          "velocity": 0.3937007874015748
        },
        {
          "duration": 0.3157890000000023,
          "durationTicks": 192,
          "midi": 73,
          "name": "C#5",
          "ticks": 38592,
          "time": 63.473589,
          "velocity": 0.3937007874015748
        },
        {
          "duration": 0.3157889999999952,
          "durationTicks": 192,
          "midi": 68,
          "name": "G#4",
          "ticks": 38784,
          "time": 63.789378,
          "velocity": 0.3937007874015748
        },
        {
          "duration": 0.3157890000000094,
          "durationTicks": 192,
          "midi": 66,
          "name": "F#4",
          "ticks": 38976,
          "time": 64.105167,
          "velocity": 0.3937007874015748
        },
        {
          "duration": 0.3157889999999952,
          "durationTicks": 192,
          "midi": 64,
          "name": "E4",
          "ticks": 39168,
          "time": 64.420956,
          "velocity": 0.3937007874015748
        },
        {
          "duration": 0.1578944999999976,
          "durationTicks": 96,
          "midi": 63,
          "name": "D#4",
          "ticks": 39360,
          "time": 64.736745,
          "velocity": 0.3937007874015748
        },
        {
          "duration": 0.1578944999999976,
          "durationTicks": 96,
          "midi": 64,
          "name": "E4",
          "ticks": 39456,
          "time": 64.8946395,
          "velocity": 0.3937007874015748
        },
        {
          "duration": 0.1578944999999976,
          "durationTicks": 96,
          "midi": 63,
          "name": "D#4",
          "ticks": 39552,
          "time": 65.052534,
          "velocity": 0.3937007874015748
        },
        {
          "duration": 0.15789450000001182,
          "durationTicks": 96,
          "midi": 61,
          "name": "C#4",
          "ticks": 39648,
          "time": 65.21042849999999,
          "velocity": 0.3937007874015748
        },
        {
          "duration": 0.1578944999999976,
          "durationTicks": 96,
          "midi": 59,
          "name": "B3",
          "ticks": 39744,
          "time": 65.368323,
          "velocity": 0.3937007874015748
        },
        {
          "duration": 0.1578944999999976,
          "durationTicks": 96,
          "midi": 56,
          "name": "G#3",
          "ticks": 39840,
          "time": 65.5262175,
          "velocity": 0.3937007874015748
        },
        {
          "duration": 0.1578944999999976,
          "durationTicks": 96,
          "midi": 57,
          "name": "A3",
          "ticks": 39936,
          "time": 65.684112,
          "velocity": 0.3937007874015748
        },
        {
          "duration": 0.1578944999999976,
          "durationTicks": 96,
          "midi": 57,
          "name": "A3",
          "ticks": 40032,
          "time": 65.8420065,
          "velocity": 0.3937007874015748
        },
        {
          "duration": 0.3157890000000094,
          "durationTicks": 192,
          "midi": 73,
          "name": "C#5",
          "ticks": 40128,
          "time": 65.999901,
          "velocity": 0.3937007874015748
        },
        {
          "duration": 0.3157889999999952,
          "durationTicks": 192,
          "midi": 68,
          "name": "G#4",
          "ticks": 40320,
          "time": 66.31569,
          "velocity": 0.3937007874015748
        },
        {
          "duration": 0.1578944999999976,
          "durationTicks": 96,
          "midi": 73,
          "name": "C#5",
          "ticks": 40512,
          "time": 66.631479,
          "velocity": 0.3937007874015748
        },
        {
          "duration": 0.1578944999999976,
          "durationTicks": 96,
          "midi": 69,
          "name": "A4",
          "ticks": 40608,
          "time": 66.7893735,
          "velocity": 0.3937007874015748
        },
        {
          "duration": 0.1578944999999976,
          "durationTicks": 96,
          "midi": 73,
          "name": "C#5",
          "ticks": 40704,
          "time": 66.947268,
          "velocity": 0.3937007874015748
        },
        {
          "duration": 0.15789450000001182,
          "durationTicks": 96,
          "midi": 71,
          "name": "B4",
          "ticks": 40800,
          "time": 67.10516249999999,
          "velocity": 0.3937007874015748
        },
        {
          "duration": 0.3157889999999952,
          "durationTicks": 192,
          "midi": 68,
          "name": "G#4",
          "ticks": 40896,
          "time": 67.263057,
          "velocity": 0.3937007874015748
        },
        {
          "duration": 0.3157889999999952,
          "durationTicks": 192,
          "midi": 66,
          "name": "F#4",
          "ticks": 41088,
          "time": 67.578846,
          "velocity": 0.3937007874015748
        },
        {
          "duration": 0.1578944999999976,
          "durationTicks": 96,
          "midi": 68,
          "name": "G#4",
          "ticks": 41280,
          "time": 67.894635,
          "velocity": 0.3937007874015748
        },
        {
          "duration": 0.15789450000001182,
          "durationTicks": 96,
          "midi": 64,
          "name": "E4",
          "ticks": 41376,
          "time": 68.05252949999999,
          "velocity": 0.3937007874015748
        },
        {
          "duration": 0.3157889999999952,
          "durationTicks": 192,
          "midi": 56,
          "name": "G#3",
          "ticks": 41472,
          "time": 68.210424,
          "velocity": 0.3937007874015748
        },
        {
          "duration": 0.3157889999999952,
          "durationTicks": 192,
          "midi": 73,
          "name": "C#5",
          "ticks": 41664,
          "time": 68.526213,
          "velocity": 0.3937007874015748
        },
        {
          "duration": 0.3157890000000094,
          "durationTicks": 192,
          "midi": 56,
          "name": "G#3",
          "ticks": 41856,
          "time": 68.842002,
          "velocity": 0.3937007874015748
        },
        {
          "duration": 0.3157889999999952,
          "durationTicks": 192,
          "midi": 73,
          "name": "C#5",
          "ticks": 42048,
          "time": 69.157791,
          "velocity": 0.3937007874015748
        },
        {
          "duration": 0.3157889999999952,
          "durationTicks": 192,
          "midi": 55,
          "name": "G3",
          "ticks": 42240,
          "time": 69.47358,
          "velocity": 0.3937007874015748
        },
        {
          "duration": 0.3157890000000094,
          "durationTicks": 192,
          "midi": 73,
          "name": "C#5",
          "ticks": 42432,
          "time": 69.789369,
          "velocity": 0.3937007874015748
        },
        {
          "duration": 0.3157889999999952,
          "durationTicks": 192,
          "midi": 57,
          "name": "A3",
          "ticks": 42624,
          "time": 70.105158,
          "velocity": 0.3937007874015748
        },
        {
          "duration": 0.3157889999999952,
          "durationTicks": 192,
          "midi": 75,
          "name": "D#5",
          "ticks": 42816,
          "time": 70.420947,
          "velocity": 0.3937007874015748
        },
        {
          "duration": 0.3157890000000094,
          "durationTicks": 192,
          "midi": 85,
          "name": "C#6",
          "ticks": 43008,
          "time": 70.736736,
          "velocity": 0.3937007874015748
        },
        {
          "duration": 0.3157889999999952,
          "durationTicks": 192,
          "midi": 85,
          "name": "C#6",
          "ticks": 43200,
          "time": 71.052525,
          "velocity": 0.3937007874015748
        },
        {
          "duration": 0.1578944999999976,
          "durationTicks": 96,
          "midi": 92,
          "name": "G#6",
          "ticks": 43392,
          "time": 71.368314,
          "velocity": 0.3937007874015748
        },
        {
          "duration": 0.3157890000000094,
          "durationTicks": 192,
          "midi": 91,
          "name": "G6",
          "ticks": 43680,
          "time": 71.84199749999999,
          "velocity": 0.3937007874015748
        },
        {
          "duration": 0.3157889999999952,
          "durationTicks": 192,
          "midi": 90,
          "name": "F#6",
          "ticks": 43968,
          "time": 72.315681,
          "velocity": 0.3937007874015748
        },
        {
          "duration": 0.1578944999999976,
          "durationTicks": 96,
          "midi": 88,
          "name": "E6",
          "ticks": 44160,
          "time": 72.63147,
          "velocity": 0.3937007874015748
        },
        {
          "duration": 0.15789450000001182,
          "durationTicks": 96,
          "midi": 85,
          "name": "C#6",
          "ticks": 44256,
          "time": 72.78936449999999,
          "velocity": 0.3937007874015748
        },
        {
          "duration": 0.1578944999999976,
          "durationTicks": 96,
          "midi": 88,
          "name": "E6",
          "ticks": 44352,
          "time": 72.947259,
          "velocity": 0.3937007874015748
        },
        {
          "duration": 0.1578944999999976,
          "durationTicks": 96,
          "midi": 90,
          "name": "F#6",
          "ticks": 44448,
          "time": 73.1051535,
          "velocity": 0.3937007874015748
        },
        {
          "duration": 0.3157889999999952,
          "durationTicks": 192,
          "midi": 83,
          "name": "B5",
          "ticks": 44544,
          "time": 73.263048,
          "velocity": 0.3937007874015748
        },
        {
          "duration": 0.3157890000000094,
          "durationTicks": 192,
          "midi": 85,
          "name": "C#6",
          "ticks": 44736,
          "time": 73.578837,
          "velocity": 0.3937007874015748
        },
        {
          "duration": 0.3157889999999952,
          "durationTicks": 192,
          "midi": 92,
          "name": "G#6",
          "ticks": 44928,
          "time": 73.894626,
          "velocity": 0.3937007874015748
        },
        {
          "duration": 0.3157889999999952,
          "durationTicks": 192,
          "midi": 90,
          "name": "F#6",
          "ticks": 45120,
          "time": 74.210415,
          "velocity": 0.3937007874015748
        },
        {
          "duration": 0.3157890000000094,
          "durationTicks": 192,
          "midi": 88,
          "name": "E6",
          "ticks": 45312,
          "time": 74.52620399999999,
          "velocity": 0.3937007874015748
        },
        {
          "duration": 0.1578944999999976,
          "durationTicks": 96,
          "midi": 87,
          "name": "D#6",
          "ticks": 45504,
          "time": 74.841993,
          "velocity": 0.3937007874015748
        },
        {
          "duration": 0.1578944999999976,
          "durationTicks": 96,
          "midi": 88,
          "name": "E6",
          "ticks": 45600,
          "time": 74.9998875,
          "velocity": 0.3937007874015748
        },
        {
          "duration": 0.1578944999999976,
          "durationTicks": 96,
          "midi": 87,
          "name": "D#6",
          "ticks": 45696,
          "time": 75.157782,
          "velocity": 0.3937007874015748
        },
        {
          "duration": 0.1578944999999976,
          "durationTicks": 96,
          "midi": 85,
          "name": "C#6",
          "ticks": 45792,
          "time": 75.3156765,
          "velocity": 0.3937007874015748
        },
        {
          "duration": 0.1578944999999976,
          "durationTicks": 96,
          "midi": 83,
          "name": "B5",
          "ticks": 45888,
          "time": 75.47357099999999,
          "velocity": 0.3937007874015748
        },
        {
          "duration": 0.15789450000001182,
          "durationTicks": 96,
          "midi": 80,
          "name": "G#5",
          "ticks": 45984,
          "time": 75.63146549999999,
          "velocity": 0.3937007874015748
        },
        {
          "duration": 0.1578944999999976,
          "durationTicks": 96,
          "midi": 81,
          "name": "A5",
          "ticks": 46080,
          "time": 75.78936,
          "velocity": 0.3937007874015748
        },
        {
          "duration": 2.3684174999999925,
          "durationTicks": 1440,
          "midi": 69,
          "name": "A4",
          "ticks": 46080,
          "time": 75.78936,
          "velocity": 0.3937007874015748
        },
        {
          "duration": 0.1578944999999976,
          "durationTicks": 96,
          "midi": 81,
          "name": "A5",
          "ticks": 46176,
          "time": 75.9472545,
          "velocity": 0.3937007874015748
        },
        {
          "duration": 0.3157889999999952,
          "durationTicks": 192,
          "midi": 85,
          "name": "C#6",
          "ticks": 46272,
          "time": 76.105149,
          "velocity": 0.3937007874015748
        },
        {
          "duration": 0.3157890000000094,
          "durationTicks": 192,
          "midi": 92,
          "name": "G#6",
          "ticks": 46464,
          "time": 76.42093799999999,
          "velocity": 0.3937007874015748
        },
        {
          "duration": 0.1578944999999976,
          "durationTicks": 96,
          "midi": 85,
          "name": "C#6",
          "ticks": 46656,
          "time": 76.736727,
          "velocity": 0.3937007874015748
        },
        {
          "duration": 0.1578944999999976,
          "durationTicks": 96,
          "midi": 93,
          "name": "A6",
          "ticks": 46752,
          "time": 76.8946215,
          "velocity": 0.3937007874015748
        },
        {
          "duration": 0.1578944999999976,
          "durationTicks": 96,
          "midi": 85,
          "name": "C#6",
          "ticks": 46848,
          "time": 77.052516,
          "velocity": 0.3937007874015748
        },
        {
          "duration": 0.1578944999999976,
          "durationTicks": 96,
          "midi": 95,
          "name": "B6",
          "ticks": 46944,
          "time": 77.2104105,
          "velocity": 0.3937007874015748
        },
        {
          "duration": 0.3157890000000094,
          "durationTicks": 192,
          "midi": 92,
          "name": "G#6",
          "ticks": 47040,
          "time": 77.36830499999999,
          "velocity": 0.3937007874015748
        },
        {
          "duration": 0.3157889999999952,
          "durationTicks": 192,
          "midi": 90,
          "name": "F#6",
          "ticks": 47232,
          "time": 77.684094,
          "velocity": 0.3937007874015748
        },
        {
          "duration": 0.1578944999999976,
          "durationTicks": 96,
          "midi": 92,
          "name": "G#6",
          "ticks": 47424,
          "time": 77.999883,
          "velocity": 0.3937007874015748
        },
        {
          "duration": 0.1578944999999976,
          "durationTicks": 96,
          "midi": 88,
          "name": "E6",
          "ticks": 47520,
          "time": 78.1577775,
          "velocity": 0.3937007874015748
        },
        {
          "duration": 0.3157890000000094,
          "durationTicks": 192,
          "midi": 80,
          "name": "G#5",
          "ticks": 47616,
          "time": 78.31567199999999,
          "velocity": 0.3937007874015748
        },
        {
          "duration": 1.2631560000000093,
          "durationTicks": 768,
          "midi": 68,
          "name": "G#4",
          "ticks": 47616,
          "time": 78.31567199999999,
          "velocity": 0.3937007874015748
        },
        {
          "duration": 0.3157889999999952,
          "durationTicks": 192,
          "midi": 85,
          "name": "C#6",
          "ticks": 47808,
          "time": 78.631461,
          "velocity": 0.3937007874015748
        },
        {
          "duration": 0.3157889999999952,
          "durationTicks": 192,
          "midi": 80,
          "name": "G#5",
          "ticks": 48000,
          "time": 78.94725,
          "velocity": 0.3937007874015748
        },
        {
          "duration": 0.3157890000000094,
          "durationTicks": 192,
          "midi": 85,
          "name": "C#6",
          "ticks": 48192,
          "time": 79.26303899999999,
          "velocity": 0.3937007874015748
        },
        {
          "duration": 0.3157889999999952,
          "durationTicks": 192,
          "midi": 79,
          "name": "G5",
          "ticks": 48384,
          "time": 79.578828,
          "velocity": 0.3937007874015748
        },
        {
          "duration": 0.6315779999999904,
          "durationTicks": 384,
          "midi": 67,
          "name": "G4",
          "ticks": 48384,
          "time": 79.578828,
          "velocity": 0.3937007874015748
        },
        {
          "duration": 0.3157889999999952,
          "durationTicks": 192,
          "midi": 85,
          "name": "C#6",
          "ticks": 48576,
          "time": 79.894617,
          "velocity": 0.3937007874015748
        },
        {
          "duration": 0.3157890000000094,
          "durationTicks": 192,
          "midi": 69,
          "name": "A4",
          "ticks": 48768,
          "time": 80.21040599999999,
          "velocity": 0.3937007874015748
        },
        {
          "duration": 0.3157890000000094,
          "durationTicks": 192,
          "midi": 81,
          "name": "A5",
          "ticks": 48768,
          "time": 80.21040599999999,
          "velocity": 0.3937007874015748
        },
        {
          "duration": 0.3157889999999952,
          "durationTicks": 192,
          "midi": 87,
          "name": "D#6",
          "ticks": 48960,
          "time": 80.526195,
          "velocity": 0.3937007874015748
        },
        {
          "duration": 0.3157889999999952,
          "durationTicks": 192,
          "midi": 87,
          "name": "D#6",
          "ticks": 48960,
          "time": 80.526195,
          "velocity": 0.3937007874015748
        },
        {
          "duration": 0.3157889999999952,
          "durationTicks": 192,
          "midi": 73,
          "name": "C#5",
          "ticks": 49152,
          "time": 80.841984,
          "velocity": 0.3937007874015748
        },
        {
          "duration": 0.3157889999999952,
          "durationTicks": 192,
          "midi": 61,
          "name": "C#4",
          "ticks": 49152,
          "time": 80.841984,
          "velocity": 0.3937007874015748
        },
        {
          "duration": 0.3157890000000094,
          "durationTicks": 192,
          "midi": 85,
          "name": "C#6",
          "ticks": 49344,
          "time": 81.15777299999999,
          "velocity": 0.3937007874015748
        },
        {
          "duration": 0.3157890000000094,
          "durationTicks": 192,
          "midi": 73,
          "name": "C#5",
          "ticks": 49344,
          "time": 81.15777299999999,
          "velocity": 0.3937007874015748
        },
        {
          "duration": 0.1578944999999976,
          "durationTicks": 96,
          "midi": 68,
          "name": "G#4",
          "ticks": 49536,
          "time": 81.473562,
          "velocity": 0.3937007874015748
        },
        {
          "duration": 0.1578944999999976,
          "durationTicks": 96,
          "midi": 80,
          "name": "G#5",
          "ticks": 49536,
          "time": 81.473562,
          "velocity": 0.3937007874015748
        },
        {
          "duration": 0.3157890000000094,
          "durationTicks": 192,
          "midi": 67,
          "name": "G4",
          "ticks": 49824,
          "time": 81.9472455,
          "velocity": 0.3937007874015748
        },
        {
          "duration": 0.3157890000000094,
          "durationTicks": 192,
          "midi": 79,
          "name": "G5",
          "ticks": 49824,
          "time": 81.9472455,
          "velocity": 0.3937007874015748
        },
        {
          "duration": 0.3157889999999952,
          "durationTicks": 192,
          "midi": 78,
          "name": "F#5",
          "ticks": 50112,
          "time": 82.420929,
          "velocity": 0.3937007874015748
        },
        {
          "duration": 0.3157889999999952,
          "durationTicks": 192,
          "midi": 66,
          "name": "F#4",
          "ticks": 50112,
          "time": 82.420929,
          "velocity": 0.3937007874015748
        },
        {
          "duration": 0.1578944999999976,
          "durationTicks": 96,
          "midi": 64,
          "name": "E4",
          "ticks": 50304,
          "time": 82.736718,
          "velocity": 0.3937007874015748
        },
        {
          "duration": 0.1578944999999976,
          "durationTicks": 96,
          "midi": 76,
          "name": "E5",
          "ticks": 50304,
          "time": 82.736718,
          "velocity": 0.3937007874015748
        },
        {
          "duration": 0.1578944999999976,
          "durationTicks": 96,
          "midi": 61,
          "name": "C#4",
          "ticks": 50400,
          "time": 82.8946125,
          "velocity": 0.3937007874015748
        },
        {
          "duration": 0.1578944999999976,
          "durationTicks": 96,
          "midi": 73,
          "name": "C#5",
          "ticks": 50400,
          "time": 82.8946125,
          "velocity": 0.3937007874015748
        },
        {
          "duration": 0.15789450000001182,
          "durationTicks": 96,
          "midi": 64,
          "name": "E4",
          "ticks": 50496,
          "time": 83.05250699999999,
          "velocity": 0.3937007874015748
        },
        {
          "duration": 0.15789450000001182,
          "durationTicks": 96,
          "midi": 76,
          "name": "E5",
          "ticks": 50496,
          "time": 83.05250699999999,
          "velocity": 0.3937007874015748
        },
        {
          "duration": 0.1578944999999976,
          "durationTicks": 96,
          "midi": 78,
          "name": "F#5",
          "ticks": 50592,
          "time": 83.2104015,
          "velocity": 0.3937007874015748
        },
        {
          "duration": 0.1578944999999976,
          "durationTicks": 96,
          "midi": 66,
          "name": "F#4",
          "ticks": 50592,
          "time": 83.2104015,
          "velocity": 0.3937007874015748
        },
        {
          "duration": 0.3157889999999952,
          "durationTicks": 192,
          "midi": 59,
          "name": "B3",
          "ticks": 50688,
          "time": 83.368296,
          "velocity": 0.3937007874015748
        },
        {
          "duration": 0.3157889999999952,
          "durationTicks": 192,
          "midi": 71,
          "name": "B4",
          "ticks": 50688,
          "time": 83.368296,
          "velocity": 0.3937007874015748
        },
        {
          "duration": 0.3157889999999952,
          "durationTicks": 192,
          "midi": 73,
          "name": "C#5",
          "ticks": 50880,
          "time": 83.684085,
          "velocity": 0.3937007874015748
        },
        {
          "duration": 0.3157889999999952,
          "durationTicks": 192,
          "midi": 85,
          "name": "C#6",
          "ticks": 50880,
          "time": 83.684085,
          "velocity": 0.3937007874015748
        },
        {
          "duration": 0.3157890000000094,
          "durationTicks": 192,
          "midi": 68,
          "name": "G#4",
          "ticks": 51072,
          "time": 83.99987399999999,
          "velocity": 0.3937007874015748
        },
        {
          "duration": 0.3157890000000094,
          "durationTicks": 192,
          "midi": 80,
          "name": "G#5",
          "ticks": 51072,
          "time": 83.99987399999999,
          "velocity": 0.3937007874015748
        },
        {
          "duration": 0.3157889999999952,
          "durationTicks": 192,
          "midi": 78,
          "name": "F#5",
          "ticks": 51264,
          "time": 84.315663,
          "velocity": 0.3937007874015748
        },
        {
          "duration": 0.3157889999999952,
          "durationTicks": 192,
          "midi": 66,
          "name": "F#4",
          "ticks": 51264,
          "time": 84.315663,
          "velocity": 0.3937007874015748
        },
        {
          "duration": 0.3157889999999952,
          "durationTicks": 192,
          "midi": 76,
          "name": "E5",
          "ticks": 51456,
          "time": 84.631452,
          "velocity": 0.3937007874015748
        },
        {
          "duration": 0.3157889999999952,
          "durationTicks": 192,
          "midi": 64,
          "name": "E4",
          "ticks": 51456,
          "time": 84.631452,
          "velocity": 0.3937007874015748
        },
        {
          "duration": 0.15789450000001182,
          "durationTicks": 96,
          "midi": 63,
          "name": "D#4",
          "ticks": 51648,
          "time": 84.94724099999999,
          "velocity": 0.3937007874015748
        },
        {
          "duration": 0.15789450000001182,
          "durationTicks": 96,
          "midi": 75,
          "name": "D#5",
          "ticks": 51648,
          "time": 84.94724099999999,
          "velocity": 0.3937007874015748
        },
        {
          "duration": 0.1578944999999976,
          "durationTicks": 96,
          "midi": 64,
          "name": "E4",
          "ticks": 51744,
          "time": 85.1051355,
          "velocity": 0.3937007874015748
        },
        {
          "duration": 0.1578944999999976,
          "durationTicks": 96,
          "midi": 76,
          "name": "E5",
          "ticks": 51744,
          "time": 85.1051355,
          "velocity": 0.3937007874015748
        },
        {
          "duration": 0.1578944999999976,
          "durationTicks": 96,
          "midi": 75,
          "name": "D#5",
          "ticks": 51840,
          "time": 85.26303,
          "velocity": 0.3937007874015748
        },
        {
          "duration": 0.1578944999999976,
          "durationTicks": 96,
          "midi": 63,
          "name": "D#4",
          "ticks": 51840,
          "time": 85.26303,
          "velocity": 0.3937007874015748
        },
        {
          "duration": 0.1578944999999976,
          "durationTicks": 96,
          "midi": 61,
          "name": "C#4",
          "ticks": 51936,
          "time": 85.4209245,
          "velocity": 0.3937007874015748
        },
        {
          "duration": 0.1578944999999976,
          "durationTicks": 96,
          "midi": 73,
          "name": "C#5",
          "ticks": 51936,
          "time": 85.4209245,
          "velocity": 0.3937007874015748
        },
        {
          "duration": 0.1578944999999976,
          "durationTicks": 96,
          "midi": 59,
          "name": "B3",
          "ticks": 52032,
          "time": 85.578819,
          "velocity": 0.3937007874015748
        },
        {
          "duration": 0.1578944999999976,
          "durationTicks": 96,
          "midi": 71,
          "name": "B4",
          "ticks": 52032,
          "time": 85.578819,
          "velocity": 0.3937007874015748
        },
        {
          "duration": 0.1578944999999976,
          "durationTicks": 96,
          "midi": 56,
          "name": "G#3",
          "ticks": 52128,
          "time": 85.7367135,
          "velocity": 0.3937007874015748
        },
        {
          "duration": 0.1578944999999976,
          "durationTicks": 96,
          "midi": 68,
          "name": "G#4",
          "ticks": 52128,
          "time": 85.7367135,
          "velocity": 0.3937007874015748
        },
        {
          "duration": 0.15789450000001182,
          "durationTicks": 96,
          "midi": 57,
          "name": "A3",
          "ticks": 52224,
          "time": 85.89460799999999,
          "velocity": 0.3937007874015748
        },
        {
          "duration": 0.15789450000001182,
          "durationTicks": 96,
          "midi": 69,
          "name": "A4",
          "ticks": 52224,
          "time": 85.89460799999999,
          "velocity": 0.3937007874015748
        },
        {
          "duration": 0.1578944999999976,
          "durationTicks": 96,
          "midi": 69,
          "name": "A4",
          "ticks": 52320,
          "time": 86.0525025,
          "velocity": 0.3937007874015748
        },
        {
          "duration": 0.1578944999999976,
          "durationTicks": 96,
          "midi": 57,
          "name": "A3",
          "ticks": 52320,
          "time": 86.0525025,
          "velocity": 0.3937007874015748
        },
        {
          "duration": 0.3157889999999952,
          "durationTicks": 192,
          "midi": 73,
          "name": "C#5",
          "ticks": 52416,
          "time": 86.210397,
          "velocity": 0.3937007874015748
        },
        {
          "duration": 0.3157889999999952,
          "durationTicks": 192,
          "midi": 85,
          "name": "C#6",
          "ticks": 52416,
          "time": 86.210397,
          "velocity": 0.3937007874015748
        },
        {
          "duration": 0.3157889999999952,
          "durationTicks": 192,
          "midi": 68,
          "name": "G#4",
          "ticks": 52608,
          "time": 86.526186,
          "velocity": 0.3937007874015748
        },
        {
          "duration": 0.3157889999999952,
          "durationTicks": 192,
          "midi": 80,
          "name": "G#5",
          "ticks": 52608,
          "time": 86.526186,
          "velocity": 0.3937007874015748
        },
        {
          "duration": 0.15789450000001182,
          "durationTicks": 96,
          "midi": 85,
          "name": "C#6",
          "ticks": 52800,
          "time": 86.84197499999999,
          "velocity": 0.3937007874015748
        },
        {
          "duration": 0.15789450000001182,
          "durationTicks": 96,
          "midi": 73,
          "name": "C#5",
          "ticks": 52800,
          "time": 86.84197499999999,
          "velocity": 0.3937007874015748
        },
        {
          "duration": 0.1578944999999976,
          "durationTicks": 96,
          "midi": 81,
          "name": "A5",
          "ticks": 52896,
          "time": 86.9998695,
          "velocity": 0.3937007874015748
        },
        {
          "duration": 0.1578944999999976,
          "durationTicks": 96,
          "midi": 69,
          "name": "A4",
          "ticks": 52896,
          "time": 86.9998695,
          "velocity": 0.3937007874015748
        },
        {
          "duration": 0.1578944999999976,
          "durationTicks": 96,
          "midi": 85,
          "name": "C#6",
          "ticks": 52992,
          "time": 87.157764,
          "velocity": 0.3937007874015748
        },
        {
          "duration": 0.1578944999999976,
          "durationTicks": 96,
          "midi": 73,
          "name": "C#5",
          "ticks": 52992,
          "time": 87.157764,
          "velocity": 0.3937007874015748
        },
        {
          "duration": 0.1578944999999976,
          "durationTicks": 96,
          "midi": 71,
          "name": "B4",
          "ticks": 53088,
          "time": 87.3156585,
          "velocity": 0.3937007874015748
        },
        {
          "duration": 0.1578944999999976,
          "durationTicks": 96,
          "midi": 83,
          "name": "B5",
          "ticks": 53088,
          "time": 87.3156585,
          "velocity": 0.3937007874015748
        },
        {
          "duration": 0.3157889999999952,
          "durationTicks": 192,
          "midi": 68,
          "name": "G#4",
          "ticks": 53184,
          "time": 87.473553,
          "velocity": 0.3937007874015748
        },
        {
          "duration": 0.3157889999999952,
          "durationTicks": 192,
          "midi": 80,
          "name": "G#5",
          "ticks": 53184,
          "time": 87.473553,
          "velocity": 0.3937007874015748
        },
        {
          "duration": 0.3157890000000094,
          "durationTicks": 192,
          "midi": 66,
          "name": "F#4",
          "ticks": 53376,
          "time": 87.78934199999999,
          "velocity": 0.3937007874015748
        },
        {
          "duration": 0.3157890000000094,
          "durationTicks": 192,
          "midi": 78,
          "name": "F#5",
          "ticks": 53376,
          "time": 87.78934199999999,
          "velocity": 0.3937007874015748
        },
        {
          "duration": 0.1578944999999976,
          "durationTicks": 96,
          "midi": 68,
          "name": "G#4",
          "ticks": 53568,
          "time": 88.105131,
          "velocity": 0.3937007874015748
        },
        {
          "duration": 0.1578944999999976,
          "durationTicks": 96,
          "midi": 80,
          "name": "G#5",
          "ticks": 53568,
          "time": 88.105131,
          "velocity": 0.3937007874015748
        },
        {
          "duration": 0.1578944999999976,
          "durationTicks": 96,
          "midi": 64,
          "name": "E4",
          "ticks": 53664,
          "time": 88.2630255,
          "velocity": 0.3937007874015748
        },
        {
          "duration": 0.1578944999999976,
          "durationTicks": 96,
          "midi": 76,
          "name": "E5",
          "ticks": 53664,
          "time": 88.2630255,
          "velocity": 0.3937007874015748
        },
        {
          "duration": 0.1578944999999976,
          "durationTicks": 96,
          "midi": 56,
          "name": "G#3",
          "ticks": 53760,
          "time": 88.42092,
          "velocity": 0.3937007874015748
        },
        {
          "duration": 0.1578944999999976,
          "durationTicks": 96,
          "midi": 68,
          "name": "G#4",
          "ticks": 53760,
          "time": 88.42092,
          "velocity": 0.3937007874015748
        },
        {
          "duration": 0.1578944999999976,
          "durationTicks": 96,
          "midi": 68,
          "name": "G#4",
          "ticks": 53856,
          "time": 88.5788145,
          "velocity": 0.3937007874015748
        },
        {
          "duration": 0.1578944999999976,
          "durationTicks": 96,
          "midi": 56,
          "name": "G#3",
          "ticks": 53856,
          "time": 88.5788145,
          "velocity": 0.3937007874015748
        },
        {
          "duration": 0.3157890000000094,
          "durationTicks": 192,
          "midi": 73,
          "name": "C#5",
          "ticks": 53952,
          "time": 88.73670899999999,
          "velocity": 0.3937007874015748
        },
        {
          "duration": 0.3157890000000094,
          "durationTicks": 192,
          "midi": 85,
          "name": "C#6",
          "ticks": 53952,
          "time": 88.73670899999999,
          "velocity": 0.3937007874015748
        },
        {
          "duration": 0.3157889999999952,
          "durationTicks": 192,
          "midi": 56,
          "name": "G#3",
          "ticks": 54144,
          "time": 89.052498,
          "velocity": 0.3937007874015748
        },
        {
          "duration": 0.3157889999999952,
          "durationTicks": 192,
          "midi": 68,
          "name": "G#4",
          "ticks": 54144,
          "time": 89.052498,
          "velocity": 0.3937007874015748
        },
        {
          "duration": 0.3157889999999952,
          "durationTicks": 192,
          "midi": 73,
          "name": "C#5",
          "ticks": 54336,
          "time": 89.368287,
          "velocity": 0.3937007874015748
        },
        {
          "duration": 0.3157889999999952,
          "durationTicks": 192,
          "midi": 85,
          "name": "C#6",
          "ticks": 54336,
          "time": 89.368287,
          "velocity": 0.3937007874015748
        },
        {
          "duration": 0.15789450000001182,
          "durationTicks": 96,
          "midi": 55,
          "name": "G3",
          "ticks": 54528,
          "time": 89.68407599999999,
          "velocity": 0.3937007874015748
        },
        {
          "duration": 0.15789450000001182,
          "durationTicks": 96,
          "midi": 67,
          "name": "G4",
          "ticks": 54528,
          "time": 89.68407599999999,
          "velocity": 0.3937007874015748
        },
        {
          "duration": 0.1578944999999976,
          "durationTicks": 96,
          "midi": 55,
          "name": "G3",
          "ticks": 54624,
          "time": 89.8419705,
          "velocity": 0.3937007874015748
        },
        {
          "duration": 0.1578944999999976,
          "durationTicks": 96,
          "midi": 67,
          "name": "G4",
          "ticks": 54624,
          "time": 89.8419705,
          "velocity": 0.3937007874015748
        },
        {
          "duration": 0.3157889999999952,
          "durationTicks": 192,
          "midi": 73,
          "name": "C#5",
          "ticks": 54720,
          "time": 89.999865,
          "velocity": 0.3937007874015748
        },
        {
          "duration": 0.3157889999999952,
          "durationTicks": 192,
          "midi": 85,
          "name": "C#6",
          "ticks": 54720,
          "time": 89.999865,
          "velocity": 0.3937007874015748
        },
        {
          "duration": 0.3157889999999952,
          "durationTicks": 192,
          "midi": 57,
          "name": "A3",
          "ticks": 54912,
          "time": 90.315654,
          "velocity": 0.3937007874015748
        },
        {
          "duration": 0.3157889999999952,
          "durationTicks": 192,
          "midi": 69,
          "name": "A4",
          "ticks": 54912,
          "time": 90.315654,
          "velocity": 0.3937007874015748
        },
        {
          "duration": 0.3157890000000094,
          "durationTicks": 192,
          "midi": 75,
          "name": "D#5",
          "ticks": 55104,
          "time": 90.63144299999999,
          "velocity": 0.3937007874015748
        },
        {
          "duration": 0.3157890000000094,
          "durationTicks": 192,
          "midi": 87,
          "name": "D#6",
          "ticks": 55104,
          "time": 90.63144299999999,
          "velocity": 0.3937007874015748
        },
        {
          "duration": 0.3157889999999952,
          "durationTicks": 192,
          "midi": 73,
          "name": "C#5",
          "ticks": 55296,
          "time": 90.947232,
          "velocity": 0.3937007874015748
        },
        {
          "duration": 0.3157889999999952,
          "durationTicks": 192,
          "midi": 61,
          "name": "C#4",
          "ticks": 55296,
          "time": 90.947232,
          "velocity": 0.3937007874015748
        },
        {
          "duration": 0.3157889999999952,
          "durationTicks": 192,
          "midi": 73,
          "name": "C#5",
          "ticks": 55488,
          "time": 91.263021,
          "velocity": 0.3937007874015748
        },
        {
          "duration": 0.3157889999999952,
          "durationTicks": 192,
          "midi": 85,
          "name": "C#6",
          "ticks": 55488,
          "time": 91.263021,
          "velocity": 0.3937007874015748
        },
        {
          "duration": 0.15789450000001182,
          "durationTicks": 96,
          "midi": 68,
          "name": "G#4",
          "ticks": 55680,
          "time": 91.57880999999999,
          "velocity": 0.3937007874015748
        },
        {
          "duration": 0.15789450000001182,
          "durationTicks": 96,
          "midi": 80,
          "name": "G#5",
          "ticks": 55680,
          "time": 91.57880999999999,
          "velocity": 0.3937007874015748
        },
        {
          "duration": 0.3157889999999952,
          "durationTicks": 192,
          "midi": 67,
          "name": "G4",
          "ticks": 55968,
          "time": 92.0524935,
          "velocity": 0.3937007874015748
        },
        {
          "duration": 0.3157889999999952,
          "durationTicks": 192,
          "midi": 79,
          "name": "G5",
          "ticks": 55968,
          "time": 92.0524935,
          "velocity": 0.3937007874015748
        },
        {
          "duration": 0.3157890000000094,
          "durationTicks": 192,
          "midi": 66,
          "name": "F#4",
          "ticks": 56256,
          "time": 92.52617699999999,
          "velocity": 0.3937007874015748
        },
        {
          "duration": 0.3157890000000094,
          "durationTicks": 192,
          "midi": 78,
          "name": "F#5",
          "ticks": 56256,
          "time": 92.52617699999999,
          "velocity": 0.3937007874015748
        },
        {
          "duration": 0.1578944999999976,
          "durationTicks": 96,
          "midi": 64,
          "name": "E4",
          "ticks": 56448,
          "time": 92.841966,
          "velocity": 0.3937007874015748
        },
        {
          "duration": 0.1578944999999976,
          "durationTicks": 96,
          "midi": 76,
          "name": "E5",
          "ticks": 56448,
          "time": 92.841966,
          "velocity": 0.3937007874015748
        },
        {
          "duration": 0.1578944999999976,
          "durationTicks": 96,
          "midi": 61,
          "name": "C#4",
          "ticks": 56544,
          "time": 92.9998605,
          "velocity": 0.3937007874015748
        },
        {
          "duration": 0.1578944999999976,
          "durationTicks": 96,
          "midi": 73,
          "name": "C#5",
          "ticks": 56544,
          "time": 92.9998605,
          "velocity": 0.3937007874015748
        },
        {
          "duration": 0.1578944999999976,
          "durationTicks": 96,
          "midi": 64,
          "name": "E4",
          "ticks": 56640,
          "time": 93.157755,
          "velocity": 0.3937007874015748
        },
        {
          "duration": 0.1578944999999976,
          "durationTicks": 96,
          "midi": 76,
          "name": "E5",
          "ticks": 56640,
          "time": 93.157755,
          "velocity": 0.3937007874015748
        },
        {
          "duration": 0.1578944999999976,
          "durationTicks": 96,
          "midi": 78,
          "name": "F#5",
          "ticks": 56736,
          "time": 93.31564949999999,
          "velocity": 0.3937007874015748
        },
        {
          "duration": 0.1578944999999976,
          "durationTicks": 96,
          "midi": 66,
          "name": "F#4",
          "ticks": 56736,
          "time": 93.31564949999999,
          "velocity": 0.3937007874015748
        },
        {
          "duration": 0.3157890000000094,
          "durationTicks": 192,
          "midi": 59,
          "name": "B3",
          "ticks": 56832,
          "time": 93.47354399999999,
          "velocity": 0.3937007874015748
        },
        {
          "duration": 0.3157890000000094,
          "durationTicks": 192,
          "midi": 71,
          "name": "B4",
          "ticks": 56832,
          "time": 93.47354399999999,
          "velocity": 0.3937007874015748
        },
        {
          "duration": 0.3157889999999952,
          "durationTicks": 192,
          "midi": 73,
          "name": "C#5",
          "ticks": 57024,
          "time": 93.789333,
          "velocity": 0.3937007874015748
        },
        {
          "duration": 0.3157889999999952,
          "durationTicks": 192,
          "midi": 85,
          "name": "C#6",
          "ticks": 57024,
          "time": 93.789333,
          "velocity": 0.3937007874015748
        },
        {
          "duration": 0.3157889999999952,
          "durationTicks": 192,
          "midi": 68,
          "name": "G#4",
          "ticks": 57216,
          "time": 94.105122,
          "velocity": 0.3937007874015748
        },
        {
          "duration": 0.3157889999999952,
          "durationTicks": 192,
          "midi": 80,
          "name": "G#5",
          "ticks": 57216,
          "time": 94.105122,
          "velocity": 0.3937007874015748
        },
        {
          "duration": 0.3157890000000094,
          "durationTicks": 192,
          "midi": 66,
          "name": "F#4",
          "ticks": 57408,
          "time": 94.42091099999999,
          "velocity": 0.3937007874015748
        },
        {
          "duration": 0.3157890000000094,
          "durationTicks": 192,
          "midi": 78,
          "name": "F#5",
          "ticks": 57408,
          "time": 94.42091099999999,
          "velocity": 0.3937007874015748
        },
        {
          "duration": 0.3157889999999952,
          "durationTicks": 192,
          "midi": 64,
          "name": "E4",
          "ticks": 57600,
          "time": 94.7367,
          "velocity": 0.3937007874015748
        },
        {
          "duration": 0.3157889999999952,
          "durationTicks": 192,
          "midi": 76,
          "name": "E5",
          "ticks": 57600,
          "time": 94.7367,
          "velocity": 0.3937007874015748
        },
        {
          "duration": 0.1578944999999976,
          "durationTicks": 96,
          "midi": 63,
          "name": "D#4",
          "ticks": 57792,
          "time": 95.052489,
          "velocity": 0.3937007874015748
        },
        {
          "duration": 0.1578944999999976,
          "durationTicks": 96,
          "midi": 75,
          "name": "D#5",
          "ticks": 57792,
          "time": 95.052489,
          "velocity": 0.3937007874015748
        },
        {
          "duration": 0.1578944999999976,
          "durationTicks": 96,
          "midi": 64,
          "name": "E4",
          "ticks": 57888,
          "time": 95.21038349999999,
          "velocity": 0.3937007874015748
        },
        {
          "duration": 0.1578944999999976,
          "durationTicks": 96,
          "midi": 76,
          "name": "E5",
          "ticks": 57888,
          "time": 95.21038349999999,
          "velocity": 0.3937007874015748
        },
        {
          "duration": 0.15789450000001182,
          "durationTicks": 96,
          "midi": 75,
          "name": "D#5",
          "ticks": 57984,
          "time": 95.36827799999999,
          "velocity": 0.3937007874015748
        },
        {
          "duration": 0.15789450000001182,
          "durationTicks": 96,
          "midi": 63,
          "name": "D#4",
          "ticks": 57984,
          "time": 95.36827799999999,
          "velocity": 0.3937007874015748
        },
        {
          "duration": 0.1578944999999976,
          "durationTicks": 96,
          "midi": 73,
          "name": "C#5",
          "ticks": 58080,
          "time": 95.5261725,
          "velocity": 0.3937007874015748
        },
        {
          "duration": 0.1578944999999976,
          "durationTicks": 96,
          "midi": 61,
          "name": "C#4",
          "ticks": 58080,
          "time": 95.5261725,
          "velocity": 0.3937007874015748
        },
        {
          "duration": 0.1578944999999976,
          "durationTicks": 96,
          "midi": 59,
          "name": "B3",
          "ticks": 58176,
          "time": 95.684067,
          "velocity": 0.3937007874015748
        },
        {
          "duration": 0.1578944999999976,
          "durationTicks": 96,
          "midi": 71,
          "name": "B4",
          "ticks": 58176,
          "time": 95.684067,
          "velocity": 0.3937007874015748
        },
        {
          "duration": 0.1578944999999976,
          "durationTicks": 96,
          "midi": 56,
          "name": "G#3",
          "ticks": 58272,
          "time": 95.8419615,
          "velocity": 0.3937007874015748
        },
        {
          "duration": 0.1578944999999976,
          "durationTicks": 96,
          "midi": 68,
          "name": "G#4",
          "ticks": 58272,
          "time": 95.8419615,
          "velocity": 0.3937007874015748
        },
        {
          "duration": 0.1578944999999976,
          "durationTicks": 96,
          "midi": 69,
          "name": "A4",
          "ticks": 58368,
          "time": 95.999856,
          "velocity": 0.3937007874015748
        },
        {
          "duration": 0.1578944999999976,
          "durationTicks": 96,
          "midi": 57,
          "name": "A3",
          "ticks": 58368,
          "time": 95.999856,
          "velocity": 0.3937007874015748
        },
        {
          "duration": 0.1578944999999976,
          "durationTicks": 96,
          "midi": 57,
          "name": "A3",
          "ticks": 58464,
          "time": 96.15775049999999,
          "velocity": 0.3937007874015748
        },
        {
          "duration": 0.1578944999999976,
          "durationTicks": 96,
          "midi": 69,
          "name": "A4",
          "ticks": 58464,
          "time": 96.15775049999999,
          "velocity": 0.3937007874015748
        },
        {
          "duration": 0.3157890000000094,
          "durationTicks": 192,
          "midi": 73,
          "name": "C#5",
          "ticks": 58560,
          "time": 96.31564499999999,
          "velocity": 0.3937007874015748
        },
        {
          "duration": 0.3157890000000094,
          "durationTicks": 192,
          "midi": 85,
          "name": "C#6",
          "ticks": 58560,
          "time": 96.31564499999999,
          "velocity": 0.3937007874015748
        },
        {
          "duration": 0.3157889999999952,
          "durationTicks": 192,
          "midi": 68,
          "name": "G#4",
          "ticks": 58752,
          "time": 96.631434,
          "velocity": 0.3937007874015748
        },
        {
          "duration": 0.3157889999999952,
          "durationTicks": 192,
          "midi": 80,
          "name": "G#5",
          "ticks": 58752,
          "time": 96.631434,
          "velocity": 0.3937007874015748
        },
        {
          "duration": 0.1578944999999976,
          "durationTicks": 96,
          "midi": 85,
          "name": "C#6",
          "ticks": 58944,
          "time": 96.947223,
          "velocity": 0.3937007874015748
        },
        {
          "duration": 0.1578944999999976,
          "durationTicks": 96,
          "midi": 73,
          "name": "C#5",
          "ticks": 58944,
          "time": 96.947223,
          "velocity": 0.3937007874015748
        },
        {
          "duration": 0.1578944999999976,
          "durationTicks": 96,
          "midi": 69,
          "name": "A4",
          "ticks": 59040,
          "time": 97.10511749999999,
          "velocity": 0.3937007874015748
        },
        {
          "duration": 0.1578944999999976,
          "durationTicks": 96,
          "midi": 81,
          "name": "A5",
          "ticks": 59040,
          "time": 97.10511749999999,
          "velocity": 0.3937007874015748
        },
        {
          "duration": 0.15789450000001182,
          "durationTicks": 96,
          "midi": 73,
          "name": "C#5",
          "ticks": 59136,
          "time": 97.26301199999999,
          "velocity": 0.3937007874015748
        },
        {
          "duration": 0.15789450000001182,
          "durationTicks": 96,
          "midi": 85,
          "name": "C#6",
          "ticks": 59136,
          "time": 97.26301199999999,
          "velocity": 0.3937007874015748
        },
        {
          "duration": 0.1578944999999976,
          "durationTicks": 96,
          "midi": 71,
          "name": "B4",
          "ticks": 59232,
          "time": 97.4209065,
          "velocity": 0.3937007874015748
        },
        {
          "duration": 0.1578944999999976,
          "durationTicks": 96,
          "midi": 83,
          "name": "B5",
          "ticks": 59232,
          "time": 97.4209065,
          "velocity": 0.3937007874015748
        },
        {
          "duration": 0.3157889999999952,
          "durationTicks": 192,
          "midi": 68,
          "name": "G#4",
          "ticks": 59328,
          "time": 97.578801,
          "velocity": 0.3937007874015748
        },
        {
          "duration": 0.3157889999999952,
          "durationTicks": 192,
          "midi": 80,
          "name": "G#5",
          "ticks": 59328,
          "time": 97.578801,
          "velocity": 0.3937007874015748
        },
        {
          "duration": 0.3157889999999952,
          "durationTicks": 192,
          "midi": 78,
          "name": "F#5",
          "ticks": 59520,
          "time": 97.89459,
          "velocity": 0.3937007874015748
        },
        {
          "duration": 0.3157889999999952,
          "durationTicks": 192,
          "midi": 66,
          "name": "F#4",
          "ticks": 59520,
          "time": 97.89459,
          "velocity": 0.3937007874015748
        },
        {
          "duration": 0.15789450000001182,
          "durationTicks": 96,
          "midi": 68,
          "name": "G#4",
          "ticks": 59712,
          "time": 98.21037899999999,
          "velocity": 0.3937007874015748
        },
        {
          "duration": 0.15789450000001182,
          "durationTicks": 96,
          "midi": 80,
          "name": "G#5",
          "ticks": 59712,
          "time": 98.21037899999999,
          "velocity": 0.3937007874015748
        },
        {
          "duration": 0.1578944999999976,
          "durationTicks": 96,
          "midi": 64,
          "name": "E4",
          "ticks": 59808,
          "time": 98.3682735,
          "velocity": 0.3937007874015748
        },
        {
          "duration": 0.1578944999999976,
          "durationTicks": 96,
          "midi": 76,
          "name": "E5",
          "ticks": 59808,
          "time": 98.3682735,
          "velocity": 0.3937007874015748
        },
        {
          "duration": 0.1578944999999976,
          "durationTicks": 96,
          "midi": 68,
          "name": "G#4",
          "ticks": 59904,
          "time": 98.526168,
          "velocity": 0.3937007874015748
        },
        {
          "duration": 0.1578944999999976,
          "durationTicks": 96,
          "midi": 56,
          "name": "G#3",
          "ticks": 59904,
          "time": 98.526168,
          "velocity": 0.3937007874015748
        },
        {
          "duration": 0.1578944999999976,
          "durationTicks": 96,
          "midi": 68,
          "name": "G#4",
          "ticks": 60000,
          "time": 98.6840625,
          "velocity": 0.3937007874015748
        },
        {
          "duration": 0.1578944999999976,
          "durationTicks": 96,
          "midi": 56,
          "name": "G#3",
          "ticks": 60000,
          "time": 98.6840625,
          "velocity": 0.3937007874015748
        },
        {
          "duration": 0.3157889999999952,
          "durationTicks": 192,
          "midi": 73,
          "name": "C#5",
          "ticks": 60096,
          "time": 98.841957,
          "velocity": 0.3937007874015748
        },
        {
          "duration": 0.3157889999999952,
          "durationTicks": 192,
          "midi": 85,
          "name": "C#6",
          "ticks": 60096,
          "time": 98.841957,
          "velocity": 0.3937007874015748
        },
        {
          "duration": 0.3157890000000094,
          "durationTicks": 192,
          "midi": 56,
          "name": "G#3",
          "ticks": 60288,
          "time": 99.15774599999999,
          "velocity": 0.3937007874015748
        },
        {
          "duration": 0.3157890000000094,
          "durationTicks": 192,
          "midi": 68,
          "name": "G#4",
          "ticks": 60288,
          "time": 99.15774599999999,
          "velocity": 0.3937007874015748
        },
        {
          "duration": 0.3157889999999952,
          "durationTicks": 192,
          "midi": 73,
          "name": "C#5",
          "ticks": 60480,
          "time": 99.473535,
          "velocity": 0.3937007874015748
        },
        {
          "duration": 0.3157889999999952,
          "durationTicks": 192,
          "midi": 85,
          "name": "C#6",
          "ticks": 60480,
          "time": 99.473535,
          "velocity": 0.3937007874015748
        },
        {
          "duration": 0.1578944999999976,
          "durationTicks": 96,
          "midi": 67,
          "name": "G4",
          "ticks": 60672,
          "time": 99.789324,
          "velocity": 0.3937007874015748
        },
        {
          "duration": 0.1578944999999976,
          "durationTicks": 96,
          "midi": 55,
          "name": "G3",
          "ticks": 60672,
          "time": 99.789324,
          "velocity": 0.3937007874015748
        },
        {
          "duration": 0.1578944999999976,
          "durationTicks": 96,
          "midi": 55,
          "name": "G3",
          "ticks": 60768,
          "time": 99.94721849999999,
          "velocity": 0.3937007874015748
        },
        {
          "duration": 0.1578944999999976,
          "durationTicks": 96,
          "midi": 67,
          "name": "G4",
          "ticks": 60768,
          "time": 99.94721849999999,
          "velocity": 0.3937007874015748
        },
        {
          "duration": 0.3157890000000094,
          "durationTicks": 192,
          "midi": 73,
          "name": "C#5",
          "ticks": 60864,
          "time": 100.10511299999999,
          "velocity": 0.3937007874015748
        },
        {
          "duration": 0.3157890000000094,
          "durationTicks": 192,
          "midi": 85,
          "name": "C#6",
          "ticks": 60864,
          "time": 100.10511299999999,
          "velocity": 0.3937007874015748
        },
        {
          "duration": 0.3157889999999952,
          "durationTicks": 192,
          "midi": 57,
          "name": "A3",
          "ticks": 61056,
          "time": 100.420902,
          "velocity": 0.3937007874015748
        },
        {
          "duration": 0.3157889999999952,
          "durationTicks": 192,
          "midi": 69,
          "name": "A4",
          "ticks": 61056,
          "time": 100.420902,
          "velocity": 0.3937007874015748
        },
        {
          "duration": 0.3157890000000094,
          "durationTicks": 192,
          "midi": 87,
          "name": "D#6",
          "ticks": 61248,
          "time": 100.736691,
          "velocity": 0.3937007874015748
        },
        {
          "duration": 0.3157890000000094,
          "durationTicks": 192,
          "midi": 75,
          "name": "D#5",
          "ticks": 61248,
          "time": 100.736691,
          "velocity": 0.3937007874015748
        },
        {
          "duration": 0.3157889999999952,
          "durationTicks": 192,
          "midi": 73,
          "name": "C#5",
          "ticks": 61440,
          "time": 101.05248,
          "velocity": 0.3937007874015748
        },
        {
          "duration": 0.3157889999999952,
          "durationTicks": 192,
          "midi": 85,
          "name": "C#6",
          "ticks": 61632,
          "time": 101.368269,
          "velocity": 0.3937007874015748
        },
        {
          "duration": 0.1578944999999976,
          "durationTicks": 96,
          "midi": 80,
          "name": "G#5",
          "ticks": 61824,
          "time": 101.684058,
          "velocity": 0.3937007874015748
        },
        {
          "duration": 0.3157889999999952,
          "durationTicks": 192,
          "midi": 79,
          "name": "G5",
          "ticks": 62112,
          "time": 102.1577415,
          "velocity": 0.3937007874015748
        },
        {
          "duration": 0.3157890000000094,
          "durationTicks": 192,
          "midi": 78,
          "name": "F#5",
          "ticks": 62400,
          "time": 102.631425,
          "velocity": 0.3937007874015748
        },
        {
          "duration": 0.1578944999999976,
          "durationTicks": 96,
          "midi": 76,
          "name": "E5",
          "ticks": 62592,
          "time": 102.947214,
          "velocity": 0.3937007874015748
        },
        {
          "duration": 0.1578944999999976,
          "durationTicks": 96,
          "midi": 73,
          "name": "C#5",
          "ticks": 62688,
          "time": 103.1051085,
          "velocity": 0.3937007874015748
        },
        {
          "duration": 0.1578944999999976,
          "durationTicks": 96,
          "midi": 76,
          "name": "E5",
          "ticks": 62784,
          "time": 103.263003,
          "velocity": 0.3937007874015748
        },
        {
          "duration": 0.1578944999999976,
          "durationTicks": 96,
          "midi": 78,
          "name": "F#5",
          "ticks": 62880,
          "time": 103.4208975,
          "velocity": 0.3937007874015748
        },
        {
          "duration": 0.3157890000000094,
          "durationTicks": 192,
          "midi": 71,
          "name": "B4",
          "ticks": 62976,
          "time": 103.57879199999999,
          "velocity": 0.3937007874015748
        },
        {
          "duration": 0.3157889999999952,
          "durationTicks": 192,
          "midi": 85,
          "name": "C#6",
          "ticks": 63168,
          "time": 103.894581,
          "velocity": 0.3937007874015748
        },
        {
          "duration": 0.3157889999999952,
          "durationTicks": 192,
          "midi": 80,
          "name": "G#5",
          "ticks": 63360,
          "time": 104.21037,
          "velocity": 0.3937007874015748
        },
        {
          "duration": 0.3157890000000094,
          "durationTicks": 192,
          "midi": 78,
          "name": "F#5",
          "ticks": 63552,
          "time": 104.52615899999999,
          "velocity": 0.3937007874015748
        },
        {
          "duration": 0.3157889999999952,
          "durationTicks": 192,
          "midi": 76,
          "name": "E5",
          "ticks": 63744,
          "time": 104.841948,
          "velocity": 0.3937007874015748
        },
        {
          "duration": 0.1578944999999976,
          "durationTicks": 96,
          "midi": 75,
          "name": "D#5",
          "ticks": 63936,
          "time": 105.157737,
          "velocity": 0.3937007874015748
        },
        {
          "duration": 0.1578944999999976,
          "durationTicks": 96,
          "midi": 76,
          "name": "E5",
          "ticks": 64032,
          "time": 105.3156315,
          "velocity": 0.3937007874015748
        },
        {
          "duration": 0.1578944999999976,
          "durationTicks": 96,
          "midi": 75,
          "name": "D#5",
          "ticks": 64128,
          "time": 105.47352599999999,
          "velocity": 0.3937007874015748
        },
        {
          "duration": 0.15789450000001182,
          "durationTicks": 96,
          "midi": 73,
          "name": "C#5",
          "ticks": 64224,
          "time": 105.63142049999999,
          "velocity": 0.3937007874015748
        },
        {
          "duration": 0.1578944999999976,
          "durationTicks": 96,
          "midi": 71,
          "name": "B4",
          "ticks": 64320,
          "time": 105.789315,
          "velocity": 0.3937007874015748
        },
        {
          "duration": 0.1578944999999976,
          "durationTicks": 96,
          "midi": 68,
          "name": "G#4",
          "ticks": 64416,
          "time": 105.9472095,
          "velocity": 0.3937007874015748
        },
        {
          "duration": 0.1578944999999976,
          "durationTicks": 96,
          "midi": 69,
          "name": "A4",
          "ticks": 64512,
          "time": 106.105104,
          "velocity": 0.3937007874015748
        },
        {
          "duration": 0.1578944999999976,
          "durationTicks": 96,
          "midi": 69,
          "name": "A4",
          "ticks": 64608,
          "time": 106.2629985,
          "velocity": 0.3937007874015748
        },
        {
          "duration": 0.3157890000000094,
          "durationTicks": 192,
          "midi": 85,
          "name": "C#6",
          "ticks": 64704,
          "time": 106.42089299999999,
          "velocity": 0.3937007874015748
        },
        {
          "duration": 0.3157889999999952,
          "durationTicks": 192,
          "midi": 80,
          "name": "G#5",
          "ticks": 64896,
          "time": 106.736682,
          "velocity": 0.3937007874015748
        },
        {
          "duration": 0.1578944999999976,
          "durationTicks": 96,
          "midi": 85,
          "name": "C#6",
          "ticks": 65088,
          "time": 107.052471,
          "velocity": 0.3937007874015748
        },
        {
          "duration": 0.1578944999999976,
          "durationTicks": 96,
          "midi": 81,
          "name": "A5",
          "ticks": 65184,
          "time": 107.2103655,
          "velocity": 0.3937007874015748
        },
        {
          "duration": 0.1578944999999976,
          "durationTicks": 96,
          "midi": 85,
          "name": "C#6",
          "ticks": 65280,
          "time": 107.36825999999999,
          "velocity": 0.3937007874015748
        },
        {
          "duration": 0.15789450000001182,
          "durationTicks": 96,
          "midi": 83,
          "name": "B5",
          "ticks": 65376,
          "time": 107.52615449999999,
          "velocity": 0.3937007874015748
        },
        {
          "duration": 0.3157889999999952,
          "durationTicks": 192,
          "midi": 80,
          "name": "G#5",
          "ticks": 65472,
          "time": 107.684049,
          "velocity": 0.3937007874015748
        },
        {
          "duration": 0.3157889999999952,
          "durationTicks": 192,
          "midi": 78,
          "name": "F#5",
          "ticks": 65664,
          "time": 107.999838,
          "velocity": 0.3937007874015748
        },
        {
          "duration": 0.1578944999999976,
          "durationTicks": 96,
          "midi": 80,
          "name": "G#5",
          "ticks": 65856,
          "time": 108.31562699999999,
          "velocity": 0.3937007874015748
        },
        {
          "duration": 0.15789450000001182,
          "durationTicks": 96,
          "midi": 76,
          "name": "E5",
          "ticks": 65952,
          "time": 108.47352149999999,
          "velocity": 0.3937007874015748
        },
        {
          "duration": 0.3157889999999952,
          "durationTicks": 192,
          "midi": 68,
          "name": "G#4",
          "ticks": 66048,
          "time": 108.631416,
          "velocity": 0.3937007874015748
        },
        {
          "duration": 0.3157889999999952,
          "durationTicks": 192,
          "midi": 85,
          "name": "C#6",
          "ticks": 66240,
          "time": 108.947205,
          "velocity": 0.3937007874015748
        },
        {
          "duration": 0.47368350000000703,
          "durationTicks": 288,
          "midi": 68,
          "name": "G#4",
          "ticks": 66432,
          "time": 109.26299399999999,
          "velocity": 0.3937007874015748
        },
        {
          "duration": 0.4736834999999928,
          "durationTicks": 288,
          "midi": 85,
          "name": "C#6",
          "ticks": 66720,
          "time": 109.7366775,
          "velocity": 0.3937007874015748
        },
        {
          "duration": 0.6315780000000046,
          "durationTicks": 384,
          "midi": 67,
          "name": "G4",
          "ticks": 67008,
          "time": 110.21036099999999,
          "velocity": 0.3937007874015748
        },
        {
          "duration": 0.6315780000000046,
          "durationTicks": 384,
          "midi": 85,
          "name": "C#6",
          "ticks": 67392,
          "time": 110.841939,
          "velocity": 0.3937007874015748
        },
        {
          "duration": 0.789472499999988,
          "durationTicks": 480,
          "midi": 69,
          "name": "A4",
          "ticks": 67776,
          "time": 111.473517,
          "velocity": 0.3937007874015748
        },
        {
          "duration": 1.4210505000000069,
          "durationTicks": 864,
          "midi": 87,
          "name": "D#6",
          "ticks": 68256,
          "time": 112.26298949999999,
          "velocity": 0.3937007874015748
        },
        {
          "duration": 0.3157889999999952,
          "durationTicks": 192,
          "midi": 49,
          "name": "C#3",
          "ticks": 69120,
          "time": 113.68404,
          "velocity": 0.3937007874015748
        },
        {
          "duration": 0.3157890000000094,
          "durationTicks": 192,
          "midi": 61,
          "name": "C#4",
          "ticks": 69312,
          "time": 113.99982899999999,
          "velocity": 0.3937007874015748
        },
        {
          "duration": 0.1578944999999976,
          "durationTicks": 96,
          "midi": 56,
          "name": "G#3",
          "ticks": 69504,
          "time": 114.315618,
          "velocity": 0.3937007874015748
        },
        {
          "duration": 0.3157889999999952,
          "durationTicks": 192,
          "midi": 55,
          "name": "G3",
          "ticks": 69792,
          "time": 114.7893015,
          "velocity": 0.3937007874015748
        },
        {
          "duration": 0.3157889999999952,
          "durationTicks": 192,
          "midi": 54,
          "name": "F#3",
          "ticks": 70080,
          "time": 115.262985,
          "velocity": 0.3937007874015748
        },
        {
          "duration": 0.1578944999999976,
          "durationTicks": 96,
          "midi": 52,
          "name": "E3",
          "ticks": 70272,
          "time": 115.578774,
          "velocity": 0.3937007874015748
        },
        {
          "duration": 0.1578944999999976,
          "durationTicks": 96,
          "midi": 49,
          "name": "C#3",
          "ticks": 70368,
          "time": 115.7366685,
          "velocity": 0.3937007874015748
        },
        {
          "duration": 0.1578944999999976,
          "durationTicks": 96,
          "midi": 52,
          "name": "E3",
          "ticks": 70464,
          "time": 115.89456299999999,
          "velocity": 0.3937007874015748
        },
        {
          "duration": 0.15789450000001182,
          "durationTicks": 96,
          "midi": 54,
          "name": "F#3",
          "ticks": 70560,
          "time": 116.05245749999999,
          "velocity": 0.3937007874015748
        },
        {
          "duration": 0.3157889999999952,
          "durationTicks": 192,
          "midi": 47,
          "name": "B2",
          "ticks": 70656,
          "time": 116.210352,
          "velocity": 0.3937007874015748
        },
        {
          "duration": 0.3157889999999952,
          "durationTicks": 192,
          "midi": 61,
          "name": "C#4",
          "ticks": 70848,
          "time": 116.526141,
          "velocity": 0.3937007874015748
        },
        {
          "duration": 0.3157890000000094,
          "durationTicks": 192,
          "midi": 56,
          "name": "G#3",
          "ticks": 71040,
          "time": 116.84192999999999,
          "velocity": 0.3937007874015748
        },
        {
          "duration": 0.3157889999999952,
          "durationTicks": 192,
          "midi": 54,
          "name": "F#3",
          "ticks": 71232,
          "time": 117.157719,
          "velocity": 0.3937007874015748
        },
        {
          "duration": 0.3157889999999952,
          "durationTicks": 192,
          "midi": 52,
          "name": "E3",
          "ticks": 71424,
          "time": 117.473508,
          "velocity": 0.3937007874015748
        },
        {
          "duration": 0.1578944999999976,
          "durationTicks": 96,
          "midi": 51,
          "name": "D#3",
          "ticks": 71616,
          "time": 117.78929699999999,
          "velocity": 0.3937007874015748
        },
        {
          "duration": 0.15789450000001182,
          "durationTicks": 96,
          "midi": 52,
          "name": "E3",
          "ticks": 71712,
          "time": 117.94719149999999,
          "velocity": 0.3937007874015748
        },
        {
          "duration": 0.1578944999999976,
          "durationTicks": 96,
          "midi": 51,
          "name": "D#3",
          "ticks": 71808,
          "time": 118.105086,
          "velocity": 0.3937007874015748
        },
        {
          "duration": 0.1578944999999976,
          "durationTicks": 96,
          "midi": 49,
          "name": "C#3",
          "ticks": 71904,
          "time": 118.2629805,
          "velocity": 0.3937007874015748
        },
        {
          "duration": 0.1578944999999976,
          "durationTicks": 96,
          "midi": 47,
          "name": "B2",
          "ticks": 72000,
          "time": 118.420875,
          "velocity": 0.3937007874015748
        },
        {
          "duration": 0.1578944999999976,
          "durationTicks": 96,
          "midi": 44,
          "name": "G#2",
          "ticks": 72096,
          "time": 118.57876949999999,
          "velocity": 0.3937007874015748
        },
        {
          "duration": 0.1578944999999976,
          "durationTicks": 96,
          "midi": 45,
          "name": "A2",
          "ticks": 72192,
          "time": 118.73666399999999,
          "velocity": 0.3937007874015748
        },
        {
          "duration": 0.15789450000001182,
          "durationTicks": 96,
          "midi": 45,
          "name": "A2",
          "ticks": 72288,
          "time": 118.89455849999999,
          "velocity": 0.3937007874015748
        },
        {
          "duration": 0.3157889999999952,
          "durationTicks": 192,
          "midi": 61,
          "name": "C#4",
          "ticks": 72384,
          "time": 119.052453,
          "velocity": 0.3937007874015748
        },
        {
          "duration": 0.3157889999999952,
          "durationTicks": 192,
          "midi": 56,
          "name": "G#3",
          "ticks": 72576,
          "time": 119.368242,
          "velocity": 0.3937007874015748
        },
        {
          "duration": 0.1578944999999976,
          "durationTicks": 96,
          "midi": 61,
          "name": "C#4",
          "ticks": 72768,
          "time": 119.68403099999999,
          "velocity": 0.3937007874015748
        },
        {
          "duration": 0.15789450000001182,
          "durationTicks": 96,
          "midi": 57,
          "name": "A3",
          "ticks": 72864,
          "time": 119.84192549999999,
          "velocity": 0.3937007874015748
        },
        {
          "duration": 0.1578944999999976,
          "durationTicks": 96,
          "midi": 61,
          "name": "C#4",
          "ticks": 72960,
          "time": 119.99982,
          "velocity": 0.3937007874015748
        },
        {
          "duration": 0.1578944999999976,
          "durationTicks": 96,
          "midi": 59,
          "name": "B3",
          "ticks": 73056,
          "time": 120.1577145,
          "velocity": 0.3937007874015748
        },
        {
          "duration": 0.3157889999999952,
          "durationTicks": 192,
          "midi": 56,
          "name": "G#3",
          "ticks": 73152,
          "time": 120.315609,
          "velocity": 0.3937007874015748
        },
        {
          "duration": 0.3157890000000094,
          "durationTicks": 192,
          "midi": 54,
          "name": "F#3",
          "ticks": 73344,
          "time": 120.63139799999999,
          "velocity": 0.3937007874015748
        },
        {
          "duration": 0.1578944999999976,
          "durationTicks": 96,
          "midi": 56,
          "name": "G#3",
          "ticks": 73536,
          "time": 120.947187,
          "velocity": 0.3937007874015748
        },
        {
          "duration": 0.1578944999999976,
          "durationTicks": 96,
          "midi": 52,
          "name": "E3",
          "ticks": 73632,
          "time": 121.1050815,
          "velocity": 0.3937007874015748
        },
        {
          "duration": 0.3157889999999952,
          "durationTicks": 192,
          "midi": 44,
          "name": "G#2",
          "ticks": 73728,
          "time": 121.262976,
          "velocity": 0.3937007874015748
        },
        {
          "duration": 0.3157890000000094,
          "durationTicks": 192,
          "midi": 61,
          "name": "C#4",
          "ticks": 73920,
          "time": 121.57876499999999,
          "velocity": 0.3937007874015748
        },
        {
          "duration": 0.3157889999999952,
          "durationTicks": 192,
          "midi": 44,
          "name": "G#2",
          "ticks": 74112,
          "time": 121.894554,
          "velocity": 0.3937007874015748
        },
        {
          "duration": 0.3157889999999952,
          "durationTicks": 192,
          "midi": 61,
          "name": "C#4",
          "ticks": 74304,
          "time": 122.210343,
          "velocity": 0.3937007874015748
        },
        {
          "duration": 0.3157890000000094,
          "durationTicks": 192,
          "midi": 43,
          "name": "G2",
          "ticks": 74496,
          "time": 122.52613199999999,
          "velocity": 0.3937007874015748
        },
        {
          "duration": 0.3157889999999952,
          "durationTicks": 192,
          "midi": 61,
          "name": "C#4",
          "ticks": 74688,
          "time": 122.841921,
          "velocity": 0.3937007874015748
        },
        {
          "duration": 0.3157889999999952,
          "durationTicks": 192,
          "midi": 45,
          "name": "A2",
          "ticks": 74880,
          "time": 123.15771,
          "velocity": 0.3937007874015748
        },
        {
          "duration": 0.3157890000000094,
          "durationTicks": 192,
          "midi": 63,
          "name": "D#4",
          "ticks": 75072,
          "time": 123.47349899999999,
          "velocity": 0.3937007874015748
        },
        {
          "duration": 0.3157889999999952,
          "durationTicks": 192,
          "midi": 49,
          "name": "C#3",
          "ticks": 75264,
          "time": 123.789288,
          "velocity": 0.3937007874015748
        },
        {
          "duration": 0.3157889999999952,
          "durationTicks": 192,
          "midi": 61,
          "name": "C#4",
          "ticks": 75456,
          "time": 124.105077,
          "velocity": 0.3937007874015748
        },
        {
          "duration": 0.15789450000001182,
          "durationTicks": 96,
          "midi": 56,
          "name": "G#3",
          "ticks": 75648,
          "time": 124.42086599999999,
          "velocity": 0.3937007874015748
        },
        {
          "duration": 0.3157889999999952,
          "durationTicks": 192,
          "midi": 55,
          "name": "G3",
          "ticks": 75936,
          "time": 124.8945495,
          "velocity": 0.3937007874015748
        },
        {
          "duration": 0.3157890000000094,
          "durationTicks": 192,
          "midi": 54,
          "name": "F#3",
          "ticks": 76224,
          "time": 125.36823299999999,
          "velocity": 0.3937007874015748
        },
        {
          "duration": 0.1578944999999976,
          "durationTicks": 96,
          "midi": 52,
          "name": "E3",
          "ticks": 76416,
          "time": 125.684022,
          "velocity": 0.3937007874015748
        },
        {
          "duration": 0.1578944999999976,
          "durationTicks": 96,
          "midi": 49,
          "name": "C#3",
          "ticks": 76512,
          "time": 125.8419165,
          "velocity": 0.3937007874015748
        },
        {
          "duration": 0.1578944999999976,
          "durationTicks": 96,
          "midi": 52,
          "name": "E3",
          "ticks": 76608,
          "time": 125.999811,
          "velocity": 0.3937007874015748
        },
        {
          "duration": 0.1578944999999976,
          "durationTicks": 96,
          "midi": 54,
          "name": "F#3",
          "ticks": 76704,
          "time": 126.15770549999999,
          "velocity": 0.3937007874015748
        },
        {
          "duration": 0.3157890000000094,
          "durationTicks": 192,
          "midi": 47,
          "name": "B2",
          "ticks": 76800,
          "time": 126.31559999999999,
          "velocity": 0.3937007874015748
        },
        {
          "duration": 0.3157889999999952,
          "durationTicks": 192,
          "midi": 61,
          "name": "C#4",
          "ticks": 76992,
          "time": 126.631389,
          "velocity": 0.3937007874015748
        },
        {
          "duration": 0.3157889999999952,
          "durationTicks": 192,
          "midi": 56,
          "name": "G#3",
          "ticks": 77184,
          "time": 126.947178,
          "velocity": 0.3937007874015748
        },
        {
          "duration": 0.3157890000000094,
          "durationTicks": 192,
          "midi": 54,
          "name": "F#3",
          "ticks": 77376,
          "time": 127.26296699999999,
          "velocity": 0.3937007874015748
        },
        {
          "duration": 0.3157889999999952,
          "durationTicks": 192,
          "midi": 52,
          "name": "E3",
          "ticks": 77568,
          "time": 127.578756,
          "velocity": 0.3937007874015748
        },
        {
          "duration": 0.1578944999999976,
          "durationTicks": 96,
          "midi": 51,
          "name": "D#3",
          "ticks": 77760,
          "time": 127.894545,
          "velocity": 0.3937007874015748
        },
        {
          "duration": 0.1578944999999976,
          "durationTicks": 96,
          "midi": 52,
          "name": "E3",
          "ticks": 77856,
          "time": 128.0524395,
          "velocity": 0.3937007874015748
        },
        {
          "duration": 0.1578944999999976,
          "durationTicks": 96,
          "midi": 51,
          "name": "D#3",
          "ticks": 77952,
          "time": 128.210334,
          "velocity": 0.3937007874015748
        },
        {
          "duration": 0.1578944999999976,
          "durationTicks": 96,
          "midi": 49,
          "name": "C#3",
          "ticks": 78048,
          "time": 128.3682285,
          "velocity": 0.3937007874015748
        },
        {
          "duration": 0.1578944999999976,
          "durationTicks": 96,
          "midi": 47,
          "name": "B2",
          "ticks": 78144,
          "time": 128.52612299999998,
          "velocity": 0.3937007874015748
        },
        {
          "duration": 0.15789450000002603,
          "durationTicks": 96,
          "midi": 44,
          "name": "G#2",
          "ticks": 78240,
          "time": 128.68401749999998,
          "velocity": 0.3937007874015748
        },
        {
          "duration": 0.1578944999999976,
          "durationTicks": 96,
          "midi": 45,
          "name": "A2",
          "ticks": 78336,
          "time": 128.841912,
          "velocity": 0.3937007874015748
        },
        {
          "duration": 0.1578944999999976,
          "durationTicks": 96,
          "midi": 45,
          "name": "A2",
          "ticks": 78432,
          "time": 128.9998065,
          "velocity": 0.3937007874015748
        },
        {
          "duration": 0.3157889999999952,
          "durationTicks": 192,
          "midi": 61,
          "name": "C#4",
          "ticks": 78528,
          "time": 129.157701,
          "velocity": 0.3937007874015748
        },
        {
          "duration": 0.3157889999999952,
          "durationTicks": 192,
          "midi": 56,
          "name": "G#3",
          "ticks": 78720,
          "time": 129.47349,
          "velocity": 0.3937007874015748
        },
        {
          "duration": 0.1578944999999976,
          "durationTicks": 96,
          "midi": 61,
          "name": "C#4",
          "ticks": 78912,
          "time": 129.789279,
          "velocity": 0.3937007874015748
        },
        {
          "duration": 0.1578944999999976,
          "durationTicks": 96,
          "midi": 57,
          "name": "A3",
          "ticks": 79008,
          "time": 129.9471735,
          "velocity": 0.3937007874015748
        },
        {
          "duration": 0.1578944999999976,
          "durationTicks": 96,
          "midi": 61,
          "name": "C#4",
          "ticks": 79104,
          "time": 130.105068,
          "velocity": 0.3937007874015748
        },
        {
          "duration": 0.1578944999999976,
          "durationTicks": 96,
          "midi": 59,
          "name": "B3",
          "ticks": 79200,
          "time": 130.2629625,
          "velocity": 0.3937007874015748
        },
        {
          "duration": 0.31578900000002363,
          "durationTicks": 192,
          "midi": 56,
          "name": "G#3",
          "ticks": 79296,
          "time": 130.42085699999998,
          "velocity": 0.3937007874015748
        },
        {
          "duration": 0.3157889999999952,
          "durationTicks": 192,
          "midi": 54,
          "name": "F#3",
          "ticks": 79488,
          "time": 130.736646,
          "velocity": 0.3937007874015748
        },
        {
          "duration": 0.1578944999999976,
          "durationTicks": 96,
          "midi": 56,
          "name": "G#3",
          "ticks": 79680,
          "time": 131.052435,
          "velocity": 0.3937007874015748
        },
        {
          "duration": 0.1578944999999976,
          "durationTicks": 96,
          "midi": 52,
          "name": "E3",
          "ticks": 79776,
          "time": 131.2103295,
          "velocity": 0.3937007874015748
        },
        {
          "duration": 0.3157889999999952,
          "durationTicks": 192,
          "midi": 44,
          "name": "G#2",
          "ticks": 79872,
          "time": 131.368224,
          "velocity": 0.3937007874015748
        },
        {
          "duration": 0.3157889999999952,
          "durationTicks": 192,
          "midi": 61,
          "name": "C#4",
          "ticks": 80064,
          "time": 131.684013,
          "velocity": 0.3937007874015748
        },
        {
          "duration": 0.3157889999999952,
          "durationTicks": 192,
          "midi": 44,
          "name": "G#2",
          "ticks": 80256,
          "time": 131.999802,
          "velocity": 0.3937007874015748
        },
        {
          "duration": 0.31578900000002363,
          "durationTicks": 192,
          "midi": 61,
          "name": "C#4",
          "ticks": 80448,
          "time": 132.31559099999998,
          "velocity": 0.3937007874015748
        },
        {
          "duration": 0.3157889999999952,
          "durationTicks": 192,
          "midi": 43,
          "name": "G2",
          "ticks": 80640,
          "time": 132.63138,
          "velocity": 0.3937007874015748
        },
        {
          "duration": 0.3157889999999952,
          "durationTicks": 192,
          "midi": 61,
          "name": "C#4",
          "ticks": 80832,
          "time": 132.947169,
          "velocity": 0.3937007874015748
        },
        {
          "duration": 0.3157889999999952,
          "durationTicks": 192,
          "midi": 45,
          "name": "A2",
          "ticks": 81024,
          "time": 133.262958,
          "velocity": 0.3937007874015748
        },
        {
          "duration": 0.3157889999999952,
          "durationTicks": 192,
          "midi": 63,
          "name": "D#4",
          "ticks": 81216,
          "time": 133.578747,
          "velocity": 0.3937007874015748
        },
        {
          "duration": 0.3157889999999952,
          "durationTicks": 192,
          "midi": 49,
          "name": "C#3",
          "ticks": 81408,
          "time": 133.894536,
          "velocity": 0.3937007874015748
        },
        {
          "duration": 0.31578900000002363,
          "durationTicks": 192,
          "midi": 61,
          "name": "C#4",
          "ticks": 81600,
          "time": 134.21032499999998,
          "velocity": 0.3937007874015748
        },
        {
          "duration": 0.1578944999999976,
          "durationTicks": 96,
          "midi": 56,
          "name": "G#3",
          "ticks": 81792,
          "time": 134.526114,
          "velocity": 0.3937007874015748
        },
        {
          "duration": 0.3157889999999952,
          "durationTicks": 192,
          "midi": 55,
          "name": "G3",
          "ticks": 82080,
          "time": 134.9997975,
          "velocity": 0.3937007874015748
        },
        {
          "duration": 0.3157889999999952,
          "durationTicks": 192,
          "midi": 54,
          "name": "F#3",
          "ticks": 82368,
          "time": 135.473481,
          "velocity": 0.3937007874015748
        },
        {
          "duration": 0.1578944999999976,
          "durationTicks": 96,
          "midi": 52,
          "name": "E3",
          "ticks": 82560,
          "time": 135.78927,
          "velocity": 0.3937007874015748
        },
        {
          "duration": 0.1578944999999976,
          "durationTicks": 96,
          "midi": 49,
          "name": "C#3",
          "ticks": 82656,
          "time": 135.94716449999999,
          "velocity": 0.3937007874015748
        },
        {
          "duration": 0.1578944999999976,
          "durationTicks": 96,
          "midi": 52,
          "name": "E3",
          "ticks": 82752,
          "time": 136.10505899999998,
          "velocity": 0.3937007874015748
        },
        {
          "duration": 0.15789450000002603,
          "durationTicks": 96,
          "midi": 54,
          "name": "F#3",
          "ticks": 82848,
          "time": 136.26295349999998,
          "velocity": 0.3937007874015748
        },
        {
          "duration": 0.3157889999999952,
          "durationTicks": 192,
          "midi": 47,
          "name": "B2",
          "ticks": 82944,
          "time": 136.420848,
          "velocity": 0.3937007874015748
        },
        {
          "duration": 0.3157889999999952,
          "durationTicks": 192,
          "midi": 61,
          "name": "C#4",
          "ticks": 83136,
          "time": 136.736637,
          "velocity": 0.3937007874015748
        },
        {
          "duration": 0.3157889999999952,
          "durationTicks": 192,
          "midi": 56,
          "name": "G#3",
          "ticks": 83328,
          "time": 137.052426,
          "velocity": 0.3937007874015748
        },
        {
          "duration": 0.3157889999999952,
          "durationTicks": 192,
          "midi": 54,
          "name": "F#3",
          "ticks": 83520,
          "time": 137.368215,
          "velocity": 0.3937007874015748
        },
        {
          "duration": 0.3157889999999952,
          "durationTicks": 192,
          "midi": 52,
          "name": "E3",
          "ticks": 83712,
          "time": 137.684004,
          "velocity": 0.3937007874015748
        },
        {
          "duration": 0.1578944999999976,
          "durationTicks": 96,
          "midi": 51,
          "name": "D#3",
          "ticks": 83904,
          "time": 137.99979299999998,
          "velocity": 0.3937007874015748
        },
        {
          "duration": 0.15789450000002603,
          "durationTicks": 96,
          "midi": 52,
          "name": "E3",
          "ticks": 84000,
          "time": 138.15768749999998,
          "velocity": 0.3937007874015748
        },
        {
          "duration": 0.1578944999999976,
          "durationTicks": 96,
          "midi": 51,
          "name": "D#3",
          "ticks": 84096,
          "time": 138.315582,
          "velocity": 0.3937007874015748
        },
        {
          "duration": 0.1578944999999976,
          "durationTicks": 96,
          "midi": 49,
          "name": "C#3",
          "ticks": 84192,
          "time": 138.4734765,
          "velocity": 0.3937007874015748
        },
        {
          "duration": 0.1578944999999976,
          "durationTicks": 96,
          "midi": 47,
          "name": "B2",
          "ticks": 84288,
          "time": 138.631371,
          "velocity": 0.3937007874015748
        },
        {
          "duration": 0.1578944999999976,
          "durationTicks": 96,
          "midi": 44,
          "name": "G#2",
          "ticks": 84384,
          "time": 138.7892655,
          "velocity": 0.3937007874015748
        },
        {
          "duration": 0.1578944999999976,
          "durationTicks": 96,
          "midi": 45,
          "name": "A2",
          "ticks": 84480,
          "time": 138.94716,
          "velocity": 0.3937007874015748
        },
        {
          "duration": 0.1578944999999976,
          "durationTicks": 96,
          "midi": 45,
          "name": "A2",
          "ticks": 84576,
          "time": 139.1050545,
          "velocity": 0.3937007874015748
        },
        {
          "duration": 0.3157889999999952,
          "durationTicks": 192,
          "midi": 61,
          "name": "C#4",
          "ticks": 84672,
          "time": 139.262949,
          "velocity": 0.3937007874015748
        },
        {
          "duration": 0.3157889999999952,
          "durationTicks": 192,
          "midi": 56,
          "name": "G#3",
          "ticks": 84864,
          "time": 139.578738,
          "velocity": 0.3937007874015748
        },
        {
          "duration": 0.1578944999999976,
          "durationTicks": 96,
          "midi": 61,
          "name": "C#4",
          "ticks": 85056,
          "time": 139.89452699999998,
          "velocity": 0.3937007874015748
        },
        {
          "duration": 0.15789450000002603,
          "durationTicks": 96,
          "midi": 57,
          "name": "A3",
          "ticks": 85152,
          "time": 140.05242149999998,
          "velocity": 0.3937007874015748
        },
        {
          "duration": 0.1578944999999976,
          "durationTicks": 96,
          "midi": 61,
          "name": "C#4",
          "ticks": 85248,
          "time": 140.210316,
          "velocity": 0.3937007874015748
        },
        {
          "duration": 0.1578944999999976,
          "durationTicks": 96,
          "midi": 59,
          "name": "B3",
          "ticks": 85344,
          "time": 140.3682105,
          "velocity": 0.3937007874015748
        },
        {
          "duration": 0.3157889999999952,
          "durationTicks": 192,
          "midi": 56,
          "name": "G#3",
          "ticks": 85440,
          "time": 140.526105,
          "velocity": 0.3937007874015748
        },
        {
          "duration": 0.3157889999999952,
          "durationTicks": 192,
          "midi": 54,
          "name": "F#3",
          "ticks": 85632,
          "time": 140.841894,
          "velocity": 0.3937007874015748
        },
        {
          "duration": 0.1578944999999976,
          "durationTicks": 96,
          "midi": 56,
          "name": "G#3",
          "ticks": 85824,
          "time": 141.157683,
          "velocity": 0.3937007874015748
        },
        {
          "duration": 0.1578944999999976,
          "durationTicks": 96,
          "midi": 52,
          "name": "E3",
          "ticks": 85920,
          "time": 141.3155775,
          "velocity": 0.3937007874015748
        },
        {
          "duration": 0.3157889999999952,
          "durationTicks": 192,
          "midi": 44,
          "name": "G#2",
          "ticks": 86016,
          "time": 141.473472,
          "velocity": 0.3937007874015748
        },
        {
          "duration": 0.31578900000002363,
          "durationTicks": 192,
          "midi": 61,
          "name": "C#4",
          "ticks": 86208,
          "time": 141.78926099999998,
          "velocity": 0.3937007874015748
        },
        {
          "duration": 0.3157889999999952,
          "durationTicks": 192,
          "midi": 44,
          "name": "G#2",
          "ticks": 86400,
          "time": 142.10505,
          "velocity": 0.3937007874015748
        },
        {
          "duration": 0.3157889999999952,
          "durationTicks": 192,
          "midi": 61,
          "name": "C#4",
          "ticks": 86592,
          "time": 142.420839,
          "velocity": 0.3937007874015748
        },
        {
          "duration": 0.3157889999999952,
          "durationTicks": 192,
          "midi": 43,
          "name": "G2",
          "ticks": 86784,
          "time": 142.736628,
          "velocity": 0.3937007874015748
        },
        {
          "duration": 0.3157889999999952,
          "durationTicks": 192,
          "midi": 61,
          "name": "C#4",
          "ticks": 86976,
          "time": 143.052417,
          "velocity": 0.3937007874015748
        },
        {
          "duration": 0.3157889999999952,
          "durationTicks": 192,
          "midi": 45,
          "name": "A2",
          "ticks": 87168,
          "time": 143.368206,
          "velocity": 0.3937007874015748
        },
        {
          "duration": 0.31578900000002363,
          "durationTicks": 192,
          "midi": 63,
          "name": "D#4",
          "ticks": 87360,
          "time": 143.68399499999998,
          "velocity": 0.3937007874015748
        },
        {
          "duration": 0.3157889999999952,
          "durationTicks": 192,
          "midi": 49,
          "name": "C#3",
          "ticks": 87552,
          "time": 143.999784,
          "velocity": 0.3937007874015748
        },
        {
          "duration": 0.3157889999999952,
          "durationTicks": 192,
          "midi": 61,
          "name": "C#4",
          "ticks": 87744,
          "time": 144.315573,
          "velocity": 0.3937007874015748
        },
        {
          "duration": 0.1578944999999976,
          "durationTicks": 96,
          "midi": 56,
          "name": "G#3",
          "ticks": 87936,
          "time": 144.631362,
          "velocity": 0.3937007874015748
        },
        {
          "duration": 0.3157889999999952,
          "durationTicks": 192,
          "midi": 55,
          "name": "G3",
          "ticks": 88224,
          "time": 145.1050455,
          "velocity": 0.3937007874015748
        },
        {
          "duration": 0.31578900000002363,
          "durationTicks": 192,
          "midi": 54,
          "name": "F#3",
          "ticks": 88512,
          "time": 145.57872899999998,
          "velocity": 0.3937007874015748
        },
        {
          "duration": 0.1578944999999976,
          "durationTicks": 96,
          "midi": 52,
          "name": "E3",
          "ticks": 88704,
          "time": 145.894518,
          "velocity": 0.3937007874015748
        },
        {
          "duration": 0.1578944999999976,
          "durationTicks": 96,
          "midi": 49,
          "name": "C#3",
          "ticks": 88800,
          "time": 146.0524125,
          "velocity": 0.3937007874015748
        },
        {
          "duration": 0.1578944999999976,
          "durationTicks": 96,
          "midi": 52,
          "name": "E3",
          "ticks": 88896,
          "time": 146.210307,
          "velocity": 0.3937007874015748
        },
        {
          "duration": 0.1578944999999976,
          "durationTicks": 96,
          "midi": 54,
          "name": "F#3",
          "ticks": 88992,
          "time": 146.3682015,
          "velocity": 0.3937007874015748
        },
        {
          "duration": 0.3157889999999952,
          "durationTicks": 192,
          "midi": 47,
          "name": "B2",
          "ticks": 89088,
          "time": 146.526096,
          "velocity": 0.3937007874015748
        },
        {
          "duration": 0.3157889999999952,
          "durationTicks": 192,
          "midi": 61,
          "name": "C#4",
          "ticks": 89280,
          "time": 146.841885,
          "velocity": 0.3937007874015748
        },
        {
          "duration": 0.3157889999999952,
          "durationTicks": 192,
          "midi": 56,
          "name": "G#3",
          "ticks": 89472,
          "time": 147.157674,
          "velocity": 0.3937007874015748
        },
        {
          "duration": 0.31578900000002363,
          "durationTicks": 192,
          "midi": 54,
          "name": "F#3",
          "ticks": 89664,
          "time": 147.47346299999998,
          "velocity": 0.3937007874015748
        },
        {
          "duration": 0.3157889999999952,
          "durationTicks": 192,
          "midi": 52,
          "name": "E3",
          "ticks": 89856,
          "time": 147.789252,
          "velocity": 0.3937007874015748
        },
        {
          "duration": 0.1578944999999976,
          "durationTicks": 96,
          "midi": 51,
          "name": "D#3",
          "ticks": 90048,
          "time": 148.105041,
          "velocity": 0.3937007874015748
        },
        {
          "duration": 0.1578944999999976,
          "durationTicks": 96,
          "midi": 52,
          "name": "E3",
          "ticks": 90144,
          "time": 148.2629355,
          "velocity": 0.3937007874015748
        },
        {
          "duration": 0.1578944999999976,
          "durationTicks": 96,
          "midi": 51,
          "name": "D#3",
          "ticks": 90240,
          "time": 148.42083,
          "velocity": 0.3937007874015748
        },
        {
          "duration": 0.1578944999999976,
          "durationTicks": 96,
          "midi": 49,
          "name": "C#3",
          "ticks": 90336,
          "time": 148.5787245,
          "velocity": 0.3937007874015748
        },
        {
          "duration": 0.1578944999999976,
          "durationTicks": 96,
          "midi": 47,
          "name": "B2",
          "ticks": 90432,
          "time": 148.736619,
          "velocity": 0.3937007874015748
        },
        {
          "duration": 0.1578944999999976,
          "durationTicks": 96,
          "midi": 44,
          "name": "G#2",
          "ticks": 90528,
          "time": 148.8945135,
          "velocity": 0.3937007874015748
        },
        {
          "duration": 0.1578944999999976,
          "durationTicks": 96,
          "midi": 45,
          "name": "A2",
          "ticks": 90624,
          "time": 149.05240799999999,
          "velocity": 0.3937007874015748
        },
        {
          "duration": 0.1578944999999976,
          "durationTicks": 96,
          "midi": 45,
          "name": "A2",
          "ticks": 90720,
          "time": 149.21030249999998,
          "velocity": 0.3937007874015748
        },
        {
          "duration": 0.31578900000002363,
          "durationTicks": 192,
          "midi": 61,
          "name": "C#4",
          "ticks": 90816,
          "time": 149.36819699999998,
          "velocity": 0.3937007874015748
        },
        {
          "duration": 0.3157889999999952,
          "durationTicks": 192,
          "midi": 56,
          "name": "G#3",
          "ticks": 91008,
          "time": 149.683986,
          "velocity": 0.3937007874015748
        },
        {
          "duration": 0.1578944999999976,
          "durationTicks": 96,
          "midi": 61,
          "name": "C#4",
          "ticks": 91200,
          "time": 149.999775,
          "velocity": 0.3937007874015748
        },
        {
          "duration": 0.1578944999999976,
          "durationTicks": 96,
          "midi": 57,
          "name": "A3",
          "ticks": 91296,
          "time": 150.1576695,
          "velocity": 0.3937007874015748
        },
        {
          "duration": 0.1578944999999976,
          "durationTicks": 96,
          "midi": 61,
          "name": "C#4",
          "ticks": 91392,
          "time": 150.315564,
          "velocity": 0.3937007874015748
        },
        {
          "duration": 0.1578944999999976,
          "durationTicks": 96,
          "midi": 59,
          "name": "B3",
          "ticks": 91488,
          "time": 150.4734585,
          "velocity": 0.3937007874015748
        },
        {
          "duration": 0.3157889999999952,
          "durationTicks": 192,
          "midi": 56,
          "name": "G#3",
          "ticks": 91584,
          "time": 150.631353,
          "velocity": 0.3937007874015748
        },
        {
          "duration": 0.3157889999999952,
          "durationTicks": 192,
          "midi": 54,
          "name": "F#3",
          "ticks": 91776,
          "time": 150.94714199999999,
          "velocity": 0.3937007874015748
        },
        {
          "duration": 0.15789450000002603,
          "durationTicks": 96,
          "midi": 56,
          "name": "G#3",
          "ticks": 91968,
          "time": 151.26293099999998,
          "velocity": 0.3937007874015748
        },
        {
          "duration": 0.1578944999999976,
          "durationTicks": 96,
          "midi": 52,
          "name": "E3",
          "ticks": 92064,
          "time": 151.4208255,
          "velocity": 0.3937007874015748
        },
        {
          "duration": 0.3157889999999952,
          "durationTicks": 192,
          "midi": 44,
          "name": "G#2",
          "ticks": 92160,
          "time": 151.57872,
          "velocity": 0.3937007874015748
        },
        {
          "duration": 0.3157889999999952,
          "durationTicks": 192,
          "midi": 61,
          "name": "C#4",
          "ticks": 92352,
          "time": 151.894509,
          "velocity": 0.3937007874015748
        },
        {
          "duration": 0.3157889999999952,
          "durationTicks": 192,
          "midi": 44,
          "name": "G#2",
          "ticks": 92544,
          "time": 152.210298,
          "velocity": 0.3937007874015748
        },
        {
          "duration": 0.3157889999999952,
          "durationTicks": 192,
          "midi": 61,
          "name": "C#4",
          "ticks": 92736,
          "time": 152.526087,
          "velocity": 0.3937007874015748
        },
        {
          "duration": 0.3157889999999952,
          "durationTicks": 192,
          "midi": 43,
          "name": "G2",
          "ticks": 92928,
          "time": 152.84187599999998,
          "velocity": 0.3937007874015748
        },
        {
          "duration": 0.31578900000002363,
          "durationTicks": 192,
          "midi": 61,
          "name": "C#4",
          "ticks": 93120,
          "time": 153.15766499999998,
          "velocity": 0.3937007874015748
        },
        {
          "duration": 0.3157889999999952,
          "durationTicks": 192,
          "midi": 45,
          "name": "A2",
          "ticks": 93312,
          "time": 153.473454,
          "velocity": 0.3937007874015748
        },
        {
          "duration": 0.3157889999999952,
          "durationTicks": 192,
          "midi": 63,
          "name": "D#4",
          "ticks": 93504,
          "time": 153.789243,
          "velocity": 0.3937007874015748
        },
        {
          "duration": 0.3157889999999952,
          "durationTicks": 192,
          "midi": 49,
          "name": "C#3",
          "ticks": 93696,
          "time": 154.105032,
          "velocity": 0.3937007874015748
        },
        {
          "duration": 0.3157889999999952,
          "durationTicks": 192,
          "midi": 61,
          "name": "C#4",
          "ticks": 93888,
          "time": 154.420821,
          "velocity": 0.3937007874015748
        },
        {
          "duration": 0.1578944999999976,
          "durationTicks": 96,
          "midi": 56,
          "name": "G#3",
          "ticks": 94080,
          "time": 154.73660999999998,
          "velocity": 0.3937007874015748
        },
        {
          "duration": 0.3157889999999952,
          "durationTicks": 192,
          "midi": 55,
          "name": "G3",
          "ticks": 94368,
          "time": 155.2102935,
          "velocity": 0.3937007874015748
        },
        {
          "duration": 0.3157889999999952,
          "durationTicks": 192,
          "midi": 54,
          "name": "F#3",
          "ticks": 94656,
          "time": 155.683977,
          "velocity": 0.3937007874015748
        },
        {
          "duration": 0.1578944999999976,
          "durationTicks": 96,
          "midi": 52,
          "name": "E3",
          "ticks": 94848,
          "time": 155.999766,
          "velocity": 0.3937007874015748
        },
        {
          "duration": 0.1578944999999976,
          "durationTicks": 96,
          "midi": 49,
          "name": "C#3",
          "ticks": 94944,
          "time": 156.1576605,
          "velocity": 0.3937007874015748
        },
        {
          "duration": 0.1578944999999976,
          "durationTicks": 96,
          "midi": 52,
          "name": "E3",
          "ticks": 95040,
          "time": 156.315555,
          "velocity": 0.3937007874015748
        },
        {
          "duration": 0.1578944999999976,
          "durationTicks": 96,
          "midi": 54,
          "name": "F#3",
          "ticks": 95136,
          "time": 156.4734495,
          "velocity": 0.3937007874015748
        },
        {
          "duration": 0.3157889999999952,
          "durationTicks": 192,
          "midi": 47,
          "name": "B2",
          "ticks": 95232,
          "time": 156.63134399999998,
          "velocity": 0.3937007874015748
        },
        {
          "duration": 0.31578900000002363,
          "durationTicks": 192,
          "midi": 61,
          "name": "C#4",
          "ticks": 95424,
          "time": 156.94713299999998,
          "velocity": 0.3937007874015748
        },
        {
          "duration": 0.3157889999999952,
          "durationTicks": 192,
          "midi": 56,
          "name": "G#3",
          "ticks": 95616,
          "time": 157.262922,
          "velocity": 0.3937007874015748
        },
        {
          "duration": 0.3157889999999952,
          "durationTicks": 192,
          "midi": 54,
          "name": "F#3",
          "ticks": 95808,
          "time": 157.578711,
          "velocity": 0.3937007874015748
        },
        {
          "duration": 0.3157889999999952,
          "durationTicks": 192,
          "midi": 52,
          "name": "E3",
          "ticks": 96000,
          "time": 157.8945,
          "velocity": 0.3937007874015748
        },
        {
          "duration": 0.1578944999999976,
          "durationTicks": 96,
          "midi": 51,
          "name": "D#3",
          "ticks": 96192,
          "time": 158.210289,
          "velocity": 0.3937007874015748
        },
        {
          "duration": 0.1578944999999976,
          "durationTicks": 96,
          "midi": 52,
          "name": "E3",
          "ticks": 96288,
          "time": 158.3681835,
          "velocity": 0.3937007874015748
        },
        {
          "duration": 0.1578944999999976,
          "durationTicks": 96,
          "midi": 51,
          "name": "D#3",
          "ticks": 96384,
          "time": 158.52607799999998,
          "velocity": 0.3937007874015748
        },
        {
          "duration": 0.1578944999999976,
          "durationTicks": 96,
          "midi": 49,
          "name": "C#3",
          "ticks": 96480,
          "time": 158.68397249999998,
          "velocity": 0.3937007874015748
        },
        {
          "duration": 0.15789450000002603,
          "durationTicks": 96,
          "midi": 47,
          "name": "B2",
          "ticks": 96576,
          "time": 158.84186699999998,
          "velocity": 0.3937007874015748
        },
        {
          "duration": 0.1578944999999976,
          "durationTicks": 96,
          "midi": 44,
          "name": "G#2",
          "ticks": 96672,
          "time": 158.9997615,
          "velocity": 0.3937007874015748
        },
        {
          "duration": 0.1578944999999976,
          "durationTicks": 96,
          "midi": 45,
          "name": "A2",
          "ticks": 96768,
          "time": 159.157656,
          "velocity": 0.3937007874015748
        },
        {
          "duration": 0.1578944999999976,
          "durationTicks": 96,
          "midi": 45,
          "name": "A2",
          "ticks": 96864,
          "time": 159.3155505,
          "velocity": 0.3937007874015748
        },
        {
          "duration": 0.3157889999999952,
          "durationTicks": 192,
          "midi": 61,
          "name": "C#4",
          "ticks": 96960,
          "time": 159.473445,
          "velocity": 0.3937007874015748
        },
        {
          "duration": 0.3157889999999952,
          "durationTicks": 192,
          "midi": 56,
          "name": "G#3",
          "ticks": 97152,
          "time": 159.789234,
          "velocity": 0.3937007874015748
        },
        {
          "duration": 0.1578944999999976,
          "durationTicks": 96,
          "midi": 61,
          "name": "C#4",
          "ticks": 97344,
          "time": 160.105023,
          "velocity": 0.3937007874015748
        },
        {
          "duration": 0.1578944999999976,
          "durationTicks": 96,
          "midi": 57,
          "name": "A3",
          "ticks": 97440,
          "time": 160.2629175,
          "velocity": 0.3937007874015748
        },
        {
          "duration": 0.1578944999999976,
          "durationTicks": 96,
          "midi": 61,
          "name": "C#4",
          "ticks": 97536,
          "time": 160.42081199999998,
          "velocity": 0.3937007874015748
        },
        {
          "duration": 0.1578944999999976,
          "durationTicks": 96,
          "midi": 59,
          "name": "B3",
          "ticks": 97632,
          "time": 160.57870649999998,
          "velocity": 0.3937007874015748
        },
        {
          "duration": 0.31578900000002363,
          "durationTicks": 192,
          "midi": 56,
          "name": "G#3",
          "ticks": 97728,
          "time": 160.73660099999998,
          "velocity": 0.3937007874015748
        },
        {
          "duration": 0.3157889999999952,
          "durationTicks": 192,
          "midi": 54,
          "name": "F#3",
          "ticks": 97920,
          "time": 161.05239,
          "velocity": 0.3937007874015748
        },
        {
          "duration": 0.1578944999999976,
          "durationTicks": 96,
          "midi": 56,
          "name": "G#3",
          "ticks": 98112,
          "time": 161.368179,
          "velocity": 0.3937007874015748
        },
        {
          "duration": 0.1578944999999976,
          "durationTicks": 96,
          "midi": 52,
          "name": "E3",
          "ticks": 98208,
          "time": 161.5260735,
          "velocity": 0.3937007874015748
        },
        {
          "duration": 0.3157889999999952,
          "durationTicks": 192,
          "midi": 44,
          "name": "G#2",
          "ticks": 98304,
          "time": 161.683968,
          "velocity": 0.3937007874015748
        },
        {
          "duration": 0.3157889999999952,
          "durationTicks": 192,
          "midi": 61,
          "name": "C#4",
          "ticks": 98496,
          "time": 161.999757,
          "velocity": 0.3937007874015748
        },
        {
          "duration": 0.31578900000002363,
          "durationTicks": 192,
          "midi": 44,
          "name": "G#2",
          "ticks": 98688,
          "time": 162.31554599999998,
          "velocity": 0.3937007874015748
        },
        {
          "duration": 0.3157889999999952,
          "durationTicks": 192,
          "midi": 61,
          "name": "C#4",
          "ticks": 98880,
          "time": 162.631335,
          "velocity": 0.3937007874015748
        },
        {
          "duration": 0.3157889999999952,
          "durationTicks": 192,
          "midi": 43,
          "name": "G2",
          "ticks": 99072,
          "time": 162.947124,
          "velocity": 0.3937007874015748
        },
        {
          "duration": 0.3157889999999952,
          "durationTicks": 192,
          "midi": 61,
          "name": "C#4",
          "ticks": 99264,
          "time": 163.262913,
          "velocity": 0.3937007874015748
        },
        {
          "duration": 0.3157889999999952,
          "durationTicks": 192,
          "midi": 45,
          "name": "A2",
          "ticks": 99456,
          "time": 163.578702,
          "velocity": 0.3937007874015748
        },
        {
          "duration": 0.3157889999999952,
          "durationTicks": 192,
          "midi": 63,
          "name": "D#4",
          "ticks": 99648,
          "time": 163.894491,
          "velocity": 0.3937007874015748
        },
        {
          "duration": 0.31578900000002363,
          "durationTicks": 192,
          "midi": 61,
          "name": "C#4",
          "ticks": 99840,
          "time": 164.21027999999998,
          "velocity": 0.3937007874015748
        },
        {
          "duration": 0.3157889999999952,
          "durationTicks": 192,
          "midi": 73,
          "name": "C#5",
          "ticks": 100032,
          "time": 164.526069,
          "velocity": 0.3937007874015748
        },
        {
          "duration": 0.1578944999999976,
          "durationTicks": 96,
          "midi": 68,
          "name": "G#4",
          "ticks": 100224,
          "time": 164.841858,
          "velocity": 0.3937007874015748
        },
        {
          "duration": 0.3157889999999952,
          "durationTicks": 192,
          "midi": 67,
          "name": "G4",
          "ticks": 100512,
          "time": 165.3155415,
          "velocity": 0.3937007874015748
        },
        {
          "duration": 0.3157889999999952,
          "durationTicks": 192,
          "midi": 66,
          "name": "F#4",
          "ticks": 100800,
          "time": 165.789225,
          "velocity": 0.3937007874015748
        },
        {
          "duration": 0.1578944999999976,
          "durationTicks": 96,
          "midi": 64,
          "name": "E4",
          "ticks": 100992,
          "time": 166.10501399999998,
          "velocity": 0.3937007874015748
        },
        {
          "duration": 0.15789450000002603,
          "durationTicks": 96,
          "midi": 61,
          "name": "C#4",
          "ticks": 101088,
          "time": 166.26290849999998,
          "velocity": 0.3937007874015748
        },
        {
          "duration": 0.1578944999999976,
          "durationTicks": 96,
          "midi": 64,
          "name": "E4",
          "ticks": 101184,
          "time": 166.420803,
          "velocity": 0.3937007874015748
        },
        {
          "duration": 0.1578944999999976,
          "durationTicks": 96,
          "midi": 66,
          "name": "F#4",
          "ticks": 101280,
          "time": 166.5786975,
          "velocity": 0.3937007874015748
        },
        {
          "duration": 0.3157889999999952,
          "durationTicks": 192,
          "midi": 59,
          "name": "B3",
          "ticks": 101376,
          "time": 166.736592,
          "velocity": 0.3937007874015748
        },
        {
          "duration": 0.3157889999999952,
          "durationTicks": 192,
          "midi": 73,
          "name": "C#5",
          "ticks": 101568,
          "time": 167.052381,
          "velocity": 0.3937007874015748
        },
        {
          "duration": 0.3157889999999952,
          "durationTicks": 192,
          "midi": 68,
          "name": "G#4",
          "ticks": 101760,
          "time": 167.36817,
          "velocity": 0.3937007874015748
        },
        {
          "duration": 0.3157889999999952,
          "durationTicks": 192,
          "midi": 66,
          "name": "F#4",
          "ticks": 101952,
          "time": 167.683959,
          "velocity": 0.3937007874015748
        },
        {
          "duration": 0.31578900000002363,
          "durationTicks": 192,
          "midi": 64,
          "name": "E4",
          "ticks": 102144,
          "time": 167.99974799999998,
          "velocity": 0.3937007874015748
        },
        {
          "duration": 0.1578944999999976,
          "durationTicks": 96,
          "midi": 63,
          "name": "D#4",
          "ticks": 102336,
          "time": 168.315537,
          "velocity": 0.3937007874015748
        },
        {
          "duration": 0.1578944999999976,
          "durationTicks": 96,
          "midi": 64,
          "name": "E4",
          "ticks": 102432,
          "time": 168.4734315,
          "velocity": 0.3937007874015748
        },
        {
          "duration": 0.1578944999999976,
          "durationTicks": 96,
          "midi": 63,
          "name": "D#4",
          "ticks": 102528,
          "time": 168.631326,
          "velocity": 0.3937007874015748
        },
        {
          "duration": 0.1578944999999976,
          "durationTicks": 96,
          "midi": 61,
          "name": "C#4",
          "ticks": 102624,
          "time": 168.7892205,
          "velocity": 0.3937007874015748
        },
        {
          "duration": 0.1578944999999976,
          "durationTicks": 96,
          "midi": 59,
          "name": "B3",
          "ticks": 102720,
          "time": 168.947115,
          "velocity": 0.3937007874015748
        },
        {
          "duration": 0.1578944999999976,
          "durationTicks": 96,
          "midi": 56,
          "name": "G#3",
          "ticks": 102816,
          "time": 169.1050095,
          "velocity": 0.3937007874015748
        },
        {
          "duration": 0.1578944999999976,
          "durationTicks": 96,
          "midi": 57,
          "name": "A3",
          "ticks": 102912,
          "time": 169.262904,
          "velocity": 0.3937007874015748
        },
        {
          "duration": 0.1578944999999976,
          "durationTicks": 96,
          "midi": 57,
          "name": "A3",
          "ticks": 103008,
          "time": 169.4207985,
          "velocity": 0.3937007874015748
        },
        {
          "duration": 0.3157889999999952,
          "durationTicks": 192,
          "midi": 73,
          "name": "C#5",
          "ticks": 103104,
          "time": 169.578693,
          "velocity": 0.3937007874015748
        },
        {
          "duration": 0.31578900000002363,
          "durationTicks": 192,
          "midi": 68,
          "name": "G#4",
          "ticks": 103296,
          "time": 169.89448199999998,
          "velocity": 0.3937007874015748
        },
        {
          "duration": 0.1578944999999976,
          "durationTicks": 96,
          "midi": 73,
          "name": "C#5",
          "ticks": 103488,
          "time": 170.210271,
          "velocity": 0.3937007874015748
        },
        {
          "duration": 0.1578944999999976,
          "durationTicks": 96,
          "midi": 69,
          "name": "A4",
          "ticks": 103584,
          "time": 170.3681655,
          "velocity": 0.3937007874015748
        },
        {
          "duration": 0.1578944999999976,
          "durationTicks": 96,
          "midi": 73,
          "name": "C#5",
          "ticks": 103680,
          "time": 170.52606,
          "velocity": 0.3937007874015748
        },
        {
          "duration": 0.1578944999999976,
          "durationTicks": 96,
          "midi": 71,
          "name": "B4",
          "ticks": 103776,
          "time": 170.6839545,
          "velocity": 0.3937007874015748
        },
        {
          "duration": 0.3157889999999952,
          "durationTicks": 192,
          "midi": 68,
          "name": "G#4",
          "ticks": 103872,
          "time": 170.841849,
          "velocity": 0.3937007874015748
        },
        {
          "duration": 0.3157889999999952,
          "durationTicks": 192,
          "midi": 66,
          "name": "F#4",
          "ticks": 104064,
          "time": 171.157638,
          "velocity": 0.3937007874015748
        },
        {
          "duration": 0.1578944999999976,
          "durationTicks": 96,
          "midi": 68,
          "name": "G#4",
          "ticks": 104256,
          "time": 171.473427,
          "velocity": 0.3937007874015748
        },
        {
          "duration": 0.1578944999999976,
          "durationTicks": 96,
          "midi": 64,
          "name": "E4",
          "ticks": 104352,
          "time": 171.63132149999998,
          "velocity": 0.3937007874015748
        },
        {
          "duration": 0.31578900000002363,
          "durationTicks": 192,
          "midi": 56,
          "name": "G#3",
          "ticks": 104448,
          "time": 171.78921599999998,
          "velocity": 0.3937007874015748
        },
        {
          "duration": 0.3157889999999952,
          "durationTicks": 192,
          "midi": 73,
          "name": "C#5",
          "ticks": 104640,
          "time": 172.105005,
          "velocity": 0.3937007874015748
        },
        {
          "duration": 0.3157889999999952,
          "durationTicks": 192,
          "midi": 56,
          "name": "G#3",
          "ticks": 104832,
          "time": 172.420794,
          "velocity": 0.3937007874015748
        },
        {
          "duration": 0.3157889999999952,
          "durationTicks": 192,
          "midi": 73,
          "name": "C#5",
          "ticks": 105024,
          "time": 172.736583,
          "velocity": 0.3937007874015748
        },
        {
          "duration": 0.3157889999999952,
          "durationTicks": 192,
          "midi": 55,
          "name": "G3",
          "ticks": 105216,
          "time": 173.052372,
          "velocity": 0.3937007874015748
        },
        {
          "duration": 0.3157889999999952,
          "durationTicks": 192,
          "midi": 73,
          "name": "C#5",
          "ticks": 105408,
          "time": 173.368161,
          "velocity": 0.3937007874015748
        },
        {
          "duration": 0.31578900000002363,
          "durationTicks": 192,
          "midi": 57,
          "name": "A3",
          "ticks": 105600,
          "time": 173.68394999999998,
          "velocity": 0.3937007874015748
        },
        {
          "duration": 0.3157889999999952,
          "durationTicks": 192,
          "midi": 75,
          "name": "D#5",
          "ticks": 105792,
          "time": 173.999739,
          "velocity": 0.3937007874015748
        },
        {
          "duration": 0.3157889999999952,
          "durationTicks": 192,
          "midi": 61,
          "name": "C#4",
          "ticks": 105984,
          "time": 174.315528,
          "velocity": 0.3937007874015748
        },
        {
          "duration": 0.3157889999999952,
          "durationTicks": 192,
          "midi": 73,
          "name": "C#5",
          "ticks": 106176,
          "time": 174.631317,
          "velocity": 0.3937007874015748
        },
        {
          "duration": 0.1578944999999976,
          "durationTicks": 96,
          "midi": 68,
          "name": "G#4",
          "ticks": 106368,
          "time": 174.947106,
          "velocity": 0.3937007874015748
        },
        {
          "duration": 0.3157889999999952,
          "durationTicks": 192,
          "midi": 67,
          "name": "G4",
          "ticks": 106656,
          "time": 175.42078949999998,
          "velocity": 0.3937007874015748
        },
        {
          "duration": 0.3157889999999952,
          "durationTicks": 192,
          "midi": 66,
          "name": "F#4",
          "ticks": 106944,
          "time": 175.894473,
          "velocity": 0.3937007874015748
        },
        {
          "duration": 0.1578944999999976,
          "durationTicks": 96,
          "midi": 64,
          "name": "E4",
          "ticks": 107136,
          "time": 176.210262,
          "velocity": 0.3937007874015748
        },
        {
          "duration": 0.1578944999999976,
          "durationTicks": 96,
          "midi": 61,
          "name": "C#4",
          "ticks": 107232,
          "time": 176.3681565,
          "velocity": 0.3937007874015748
        },
        {
          "duration": 0.1578944999999976,
          "durationTicks": 96,
          "midi": 64,
          "name": "E4",
          "ticks": 107328,
          "time": 176.526051,
          "velocity": 0.3937007874015748
        },
        {
          "duration": 0.1578944999999976,
          "durationTicks": 96,
          "midi": 66,
          "name": "F#4",
          "ticks": 107424,
          "time": 176.6839455,
          "velocity": 0.3937007874015748
        },
        {
          "duration": 0.3157889999999952,
          "durationTicks": 192,
          "midi": 59,
          "name": "B3",
          "ticks": 107520,
          "time": 176.84184,
          "velocity": 0.3937007874015748
        },
        {
          "duration": 0.3157889999999952,
          "durationTicks": 192,
          "midi": 73,
          "name": "C#5",
          "ticks": 107712,
          "time": 177.157629,
          "velocity": 0.3937007874015748
        },
        {
          "duration": 0.31578900000002363,
          "durationTicks": 192,
          "midi": 68,
          "name": "G#4",
          "ticks": 107904,
          "time": 177.47341799999998,
          "velocity": 0.3937007874015748
        },
        {
          "duration": 0.3157889999999952,
          "durationTicks": 192,
          "midi": 66,
          "name": "F#4",
          "ticks": 108096,
          "time": 177.789207,
          "velocity": 0.3937007874015748
        },
        {
          "duration": 0.3157889999999952,
          "durationTicks": 192,
          "midi": 64,
          "name": "E4",
          "ticks": 108288,
          "time": 178.104996,
          "velocity": 0.3937007874015748
        },
        {
          "duration": 0.1578944999999976,
          "durationTicks": 96,
          "midi": 63,
          "name": "D#4",
          "ticks": 108480,
          "time": 178.420785,
          "velocity": 0.3937007874015748
        },
        {
          "duration": 0.1578944999999976,
          "durationTicks": 96,
          "midi": 64,
          "name": "E4",
          "ticks": 108576,
          "time": 178.5786795,
          "velocity": 0.3937007874015748
        },
        {
          "duration": 0.1578944999999976,
          "durationTicks": 96,
          "midi": 63,
          "name": "D#4",
          "ticks": 108672,
          "time": 178.736574,
          "velocity": 0.3937007874015748
        },
        {
          "duration": 0.1578944999999976,
          "durationTicks": 96,
          "midi": 61,
          "name": "C#4",
          "ticks": 108768,
          "time": 178.8944685,
          "velocity": 0.3937007874015748
        },
        {
          "duration": 0.1578944999999976,
          "durationTicks": 96,
          "midi": 59,
          "name": "B3",
          "ticks": 108864,
          "time": 179.05236299999999,
          "velocity": 0.3937007874015748
        },
        {
          "duration": 0.1578944999999976,
          "durationTicks": 96,
          "midi": 56,
          "name": "G#3",
          "ticks": 108960,
          "time": 179.21025749999998,
          "velocity": 0.3937007874015748
        },
        {
          "duration": 0.1578944999999976,
          "durationTicks": 96,
          "midi": 57,
          "name": "A3",
          "ticks": 109056,
          "time": 179.36815199999998,
          "velocity": 0.3937007874015748
        },
        {
          "duration": 0.15789450000002603,
          "durationTicks": 96,
          "midi": 57,
          "name": "A3",
          "ticks": 109152,
          "time": 179.52604649999998,
          "velocity": 0.3937007874015748
        },
        {
          "duration": 0.3157889999999952,
          "durationTicks": 192,
          "midi": 73,
          "name": "C#5",
          "ticks": 109248,
          "time": 179.683941,
          "velocity": 0.3937007874015748
        },
        {
          "duration": 0.3157889999999952,
          "durationTicks": 192,
          "midi": 68,
          "name": "G#4",
          "ticks": 109440,
          "time": 179.99973,
          "velocity": 0.3937007874015748
        },
        {
          "duration": 0.1578944999999976,
          "durationTicks": 96,
          "midi": 73,
          "name": "C#5",
          "ticks": 109632,
          "time": 180.315519,
          "velocity": 0.3937007874015748
        },
        {
          "duration": 0.1578944999999976,
          "durationTicks": 96,
          "midi": 69,
          "name": "A4",
          "ticks": 109728,
          "time": 180.4734135,
          "velocity": 0.3937007874015748
        },
        {
          "duration": 0.1578944999999976,
          "durationTicks": 96,
          "midi": 73,
          "name": "C#5",
          "ticks": 109824,
          "time": 180.631308,
          "velocity": 0.3937007874015748
        },
        {
          "duration": 0.1578944999999976,
          "durationTicks": 96,
          "midi": 71,
          "name": "B4",
          "ticks": 109920,
          "time": 180.7892025,
          "velocity": 0.3937007874015748
        },
        {
          "duration": 0.3157889999999952,
          "durationTicks": 192,
          "midi": 68,
          "name": "G#4",
          "ticks": 110016,
          "time": 180.94709699999999,
          "velocity": 0.3937007874015748
        },
        {
          "duration": 0.31578900000002363,
          "durationTicks": 192,
          "midi": 66,
          "name": "F#4",
          "ticks": 110208,
          "time": 181.26288599999998,
          "velocity": 0.3937007874015748
        },
        {
          "duration": 0.1578944999999976,
          "durationTicks": 96,
          "midi": 68,
          "name": "G#4",
          "ticks": 110400,
          "time": 181.578675,
          "velocity": 0.3937007874015748
        },
        {
          "duration": 0.1578944999999976,
          "durationTicks": 96,
          "midi": 64,
          "name": "E4",
          "ticks": 110496,
          "time": 181.7365695,
          "velocity": 0.3937007874015748
        },
        {
          "duration": 0.3157889999999952,
          "durationTicks": 192,
          "midi": 56,
          "name": "G#3",
          "ticks": 110592,
          "time": 181.894464,
          "velocity": 0.3937007874015748
        },
        {
          "duration": 0.3157889999999952,
          "durationTicks": 192,
          "midi": 73,
          "name": "C#5",
          "ticks": 110784,
          "time": 182.210253,
          "velocity": 0.3937007874015748
        },
        {
          "duration": 0.3157889999999952,
          "durationTicks": 192,
          "midi": 56,
          "name": "G#3",
          "ticks": 110976,
          "time": 182.526042,
          "velocity": 0.3937007874015748
        },
        {
          "duration": 0.3157889999999952,
          "durationTicks": 192,
          "midi": 73,
          "name": "C#5",
          "ticks": 111168,
          "time": 182.84183099999998,
          "velocity": 0.3937007874015748
        },
        {
          "duration": 0.31578900000002363,
          "durationTicks": 192,
          "midi": 55,
          "name": "G3",
          "ticks": 111360,
          "time": 183.15761999999998,
          "velocity": 0.3937007874015748
        },
        {
          "duration": 0.3157889999999952,
          "durationTicks": 192,
          "midi": 73,
          "name": "C#5",
          "ticks": 111552,
          "time": 183.473409,
          "velocity": 0.3937007874015748
        },
        {
          "duration": 0.3157889999999952,
          "durationTicks": 192,
          "midi": 57,
          "name": "A3",
          "ticks": 111744,
          "time": 183.789198,
          "velocity": 0.3937007874015748
        },
        {
          "duration": 0.3157889999999952,
          "durationTicks": 192,
          "midi": 75,
          "name": "D#5",
          "ticks": 111936,
          "time": 184.104987,
          "velocity": 0.3937007874015748
        },
        {
          "duration": 0.3157889999999952,
          "durationTicks": 192,
          "midi": 85,
          "name": "C#6",
          "ticks": 112128,
          "time": 184.420776,
          "velocity": 0.3937007874015748
        },
        {
          "duration": 0.3157889999999952,
          "durationTicks": 192,
          "midi": 85,
          "name": "C#6",
          "ticks": 112320,
          "time": 184.73656499999998,
          "velocity": 0.3937007874015748
        },
        {
          "duration": 0.15789450000002603,
          "durationTicks": 96,
          "midi": 92,
          "name": "G#6",
          "ticks": 112512,
          "time": 185.05235399999998,
          "velocity": 0.3937007874015748
        },
        {
          "duration": 0.3157889999999952,
          "durationTicks": 192,
          "midi": 91,
          "name": "G6",
          "ticks": 112800,
          "time": 185.5260375,
          "velocity": 0.3937007874015748
        },
        {
          "duration": 0.3157889999999952,
          "durationTicks": 192,
          "midi": 90,
          "name": "F#6",
          "ticks": 113088,
          "time": 185.999721,
          "velocity": 0.3937007874015748
        },
        {
          "duration": 0.1578944999999976,
          "durationTicks": 96,
          "midi": 88,
          "name": "E6",
          "ticks": 113280,
          "time": 186.31551,
          "velocity": 0.3937007874015748
        },
        {
          "duration": 0.1578944999999976,
          "durationTicks": 96,
          "midi": 85,
          "name": "C#6",
          "ticks": 113376,
          "time": 186.4734045,
          "velocity": 0.3937007874015748
        },
        {
          "duration": 0.1578944999999976,
          "durationTicks": 96,
          "midi": 88,
          "name": "E6",
          "ticks": 113472,
          "time": 186.63129899999998,
          "velocity": 0.3937007874015748
        },
        {
          "duration": 0.1578944999999976,
          "durationTicks": 96,
          "midi": 90,
          "name": "F#6",
          "ticks": 113568,
          "time": 186.78919349999998,
          "velocity": 0.3937007874015748
        },
        {
          "duration": 0.31578900000002363,
          "durationTicks": 192,
          "midi": 83,
          "name": "B5",
          "ticks": 113664,
          "time": 186.94708799999998,
          "velocity": 0.3937007874015748
        },
        {
          "duration": 0.3157889999999952,
          "durationTicks": 192,
          "midi": 85,
          "name": "C#6",
          "ticks": 113856,
          "time": 187.262877,
          "velocity": 0.3937007874015748
        },
        {
          "duration": 0.3157889999999952,
          "durationTicks": 192,
          "midi": 92,
          "name": "G#6",
          "ticks": 114048,
          "time": 187.578666,
          "velocity": 0.3937007874015748
        },
        {
          "duration": 0.3157889999999952,
          "durationTicks": 192,
          "midi": 90,
          "name": "F#6",
          "ticks": 114240,
          "time": 187.894455,
          "velocity": 0.3937007874015748
        },
        {
          "duration": 0.3157889999999952,
          "durationTicks": 192,
          "midi": 88,
          "name": "E6",
          "ticks": 114432,
          "time": 188.210244,
          "velocity": 0.3937007874015748
        },
        {
          "duration": 0.1578944999999976,
          "durationTicks": 96,
          "midi": 87,
          "name": "D#6",
          "ticks": 114624,
          "time": 188.52603299999998,
          "velocity": 0.3937007874015748
        },
        {
          "duration": 0.1578944999999976,
          "durationTicks": 96,
          "midi": 88,
          "name": "E6",
          "ticks": 114720,
          "time": 188.68392749999998,
          "velocity": 0.3937007874015748
        },
        {
          "duration": 0.15789450000002603,
          "durationTicks": 96,
          "midi": 87,
          "name": "D#6",
          "ticks": 114816,
          "time": 188.84182199999998,
          "velocity": 0.3937007874015748
        },
        {
          "duration": 0.1578944999999976,
          "durationTicks": 96,
          "midi": 85,
          "name": "C#6",
          "ticks": 114912,
          "time": 188.9997165,
          "velocity": 0.3937007874015748
        },
        {
          "duration": 0.1578944999999976,
          "durationTicks": 96,
          "midi": 83,
          "name": "B5",
          "ticks": 115008,
          "time": 189.157611,
          "velocity": 0.3937007874015748
        },
        {
          "duration": 0.1578944999999976,
          "durationTicks": 96,
          "midi": 80,
          "name": "G#5",
          "ticks": 115104,
          "time": 189.3155055,
          "velocity": 0.3937007874015748
        },
        {
          "duration": 0.1578944999999976,
          "durationTicks": 96,
          "midi": 81,
          "name": "A5",
          "ticks": 115200,
          "time": 189.4734,
          "velocity": 0.3937007874015748
        },
        {
          "duration": 2.3684174999999925,
          "durationTicks": 1440,
          "midi": 69,
          "name": "A4",
          "ticks": 115200,
          "time": 189.4734,
          "velocity": 0.3937007874015748
        },
        {
          "duration": 0.1578944999999976,
          "durationTicks": 96,
          "midi": 81,
          "name": "A5",
          "ticks": 115296,
          "time": 189.6312945,
          "velocity": 0.3937007874015748
        },
        {
          "duration": 0.3157889999999952,
          "durationTicks": 192,
          "midi": 85,
          "name": "C#6",
          "ticks": 115392,
          "time": 189.789189,
          "velocity": 0.3937007874015748
        },
        {
          "duration": 0.3157889999999952,
          "durationTicks": 192,
          "midi": 92,
          "name": "G#6",
          "ticks": 115584,
          "time": 190.104978,
          "velocity": 0.3937007874015748
        },
        {
          "duration": 0.1578944999999976,
          "durationTicks": 96,
          "midi": 85,
          "name": "C#6",
          "ticks": 115776,
          "time": 190.42076699999998,
          "velocity": 0.3937007874015748
        },
        {
          "duration": 0.1578944999999976,
          "durationTicks": 96,
          "midi": 93,
          "name": "A6",
          "ticks": 115872,
          "time": 190.57866149999998,
          "velocity": 0.3937007874015748
        },
        {
          "duration": 0.15789450000002603,
          "durationTicks": 96,
          "midi": 85,
          "name": "C#6",
          "ticks": 115968,
          "time": 190.73655599999998,
          "velocity": 0.3937007874015748
        },
        {
          "duration": 0.1578944999999976,
          "durationTicks": 96,
          "midi": 95,
          "name": "B6",
          "ticks": 116064,
          "time": 190.8944505,
          "velocity": 0.3937007874015748
        },
        {
          "duration": 0.3157889999999952,
          "durationTicks": 192,
          "midi": 92,
          "name": "G#6",
          "ticks": 116160,
          "time": 191.052345,
          "velocity": 0.3937007874015748
        },
        {
          "duration": 0.3157889999999952,
          "durationTicks": 192,
          "midi": 90,
          "name": "F#6",
          "ticks": 116352,
          "time": 191.368134,
          "velocity": 0.3937007874015748
        },
        {
          "duration": 0.1578944999999976,
          "durationTicks": 96,
          "midi": 92,
          "name": "G#6",
          "ticks": 116544,
          "time": 191.683923,
          "velocity": 0.3937007874015748
        },
        {
          "duration": 0.1578944999999976,
          "durationTicks": 96,
          "midi": 88,
          "name": "E6",
          "ticks": 116640,
          "time": 191.8418175,
          "velocity": 0.3937007874015748
        },
        {
          "duration": 0.3157889999999952,
          "durationTicks": 192,
          "midi": 80,
          "name": "G#5",
          "ticks": 116736,
          "time": 191.999712,
          "velocity": 0.3937007874015748
        },
        {
          "duration": 1.2631560000000093,
          "durationTicks": 768,
          "midi": 68,
          "name": "G#4",
          "ticks": 116736,
          "time": 191.999712,
          "velocity": 0.3937007874015748
        },
        {
          "duration": 0.3157889999999952,
          "durationTicks": 192,
          "midi": 85,
          "name": "C#6",
          "ticks": 116928,
          "time": 192.31550099999998,
          "velocity": 0.3937007874015748
        },
        {
          "duration": 0.31578900000002363,
          "durationTicks": 192,
          "midi": 80,
          "name": "G#5",
          "ticks": 117120,
          "time": 192.63128999999998,
          "velocity": 0.3937007874015748
        },
        {
          "duration": 0.3157889999999952,
          "durationTicks": 192,
          "midi": 85,
          "name": "C#6",
          "ticks": 117312,
          "time": 192.947079,
          "velocity": 0.3937007874015748
        },
        {
          "duration": 0.3157889999999952,
          "durationTicks": 192,
          "midi": 79,
          "name": "G5",
          "ticks": 117504,
          "time": 193.262868,
          "velocity": 0.3937007874015748
        },
        {
          "duration": 0.6315779999999904,
          "durationTicks": 384,
          "midi": 67,
          "name": "G4",
          "ticks": 117504,
          "time": 193.262868,
          "velocity": 0.3937007874015748
        },
        {
          "duration": 0.3157889999999952,
          "durationTicks": 192,
          "midi": 85,
          "name": "C#6",
          "ticks": 117696,
          "time": 193.578657,
          "velocity": 0.3937007874015748
        },
        {
          "duration": 0.3157889999999952,
          "durationTicks": 192,
          "midi": 69,
          "name": "A4",
          "ticks": 117888,
          "time": 193.894446,
          "velocity": 0.3937007874015748
        },
        {
          "duration": 0.3157889999999952,
          "durationTicks": 192,
          "midi": 81,
          "name": "A5",
          "ticks": 117888,
          "time": 193.894446,
          "velocity": 0.3937007874015748
        },
        {
          "duration": 0.3157889999999952,
          "durationTicks": 192,
          "midi": 87,
          "name": "D#6",
          "ticks": 118080,
          "time": 194.21023499999998,
          "velocity": 0.3937007874015748
        },
        {
          "duration": 0.3157889999999952,
          "durationTicks": 192,
          "midi": 87,
          "name": "D#6",
          "ticks": 118080,
          "time": 194.21023499999998,
          "velocity": 0.3937007874015748
        },
        {
          "duration": 0.31578900000002363,
          "durationTicks": 192,
          "midi": 73,
          "name": "C#5",
          "ticks": 118272,
          "time": 194.52602399999998,
          "velocity": 0.3937007874015748
        },
        {
          "duration": 0.31578900000002363,
          "durationTicks": 192,
          "midi": 61,
          "name": "C#4",
          "ticks": 118272,
          "time": 194.52602399999998,
          "velocity": 0.3937007874015748
        },
        {
          "duration": 0.3157889999999952,
          "durationTicks": 192,
          "midi": 85,
          "name": "C#6",
          "ticks": 118464,
          "time": 194.841813,
          "velocity": 0.3937007874015748
        },
        {
          "duration": 0.3157889999999952,
          "durationTicks": 192,
          "midi": 73,
          "name": "C#5",
          "ticks": 118464,
          "time": 194.841813,
          "velocity": 0.3937007874015748
        },
        {
          "duration": 0.1578944999999976,
          "durationTicks": 96,
          "midi": 68,
          "name": "G#4",
          "ticks": 118656,
          "time": 195.157602,
          "velocity": 0.3937007874015748
        },
        {
          "duration": 0.1578944999999976,
          "durationTicks": 96,
          "midi": 80,
          "name": "G#5",
          "ticks": 118656,
          "time": 195.157602,
          "velocity": 0.3937007874015748
        },
        {
          "duration": 0.3157889999999952,
          "durationTicks": 192,
          "midi": 67,
          "name": "G4",
          "ticks": 118944,
          "time": 195.6312855,
          "velocity": 0.3937007874015748
        },
        {
          "duration": 0.3157889999999952,
          "durationTicks": 192,
          "midi": 79,
          "name": "G5",
          "ticks": 118944,
          "time": 195.6312855,
          "velocity": 0.3937007874015748
        },
        {
          "duration": 0.3157889999999952,
          "durationTicks": 192,
          "midi": 66,
          "name": "F#4",
          "ticks": 119232,
          "time": 196.10496899999998,
          "velocity": 0.3937007874015748
        },
        {
          "duration": 0.3157889999999952,
          "durationTicks": 192,
          "midi": 78,
          "name": "F#5",
          "ticks": 119232,
          "time": 196.10496899999998,
          "velocity": 0.3937007874015748
        },
        {
          "duration": 0.15789450000002603,
          "durationTicks": 96,
          "midi": 64,
          "name": "E4",
          "ticks": 119424,
          "time": 196.42075799999998,
          "velocity": 0.3937007874015748
        },
        {
          "duration": 0.15789450000002603,
          "durationTicks": 96,
          "midi": 76,
          "name": "E5",
          "ticks": 119424,
          "time": 196.42075799999998,
          "velocity": 0.3937007874015748
        },
        {
          "duration": 0.1578944999999976,
          "durationTicks": 96,
          "midi": 61,
          "name": "C#4",
          "ticks": 119520,
          "time": 196.5786525,
          "velocity": 0.3937007874015748
        },
        {
          "duration": 0.1578944999999976,
          "durationTicks": 96,
          "midi": 73,
          "name": "C#5",
          "ticks": 119520,
          "time": 196.5786525,
          "velocity": 0.3937007874015748
        },
        {
          "duration": 0.1578944999999976,
          "durationTicks": 96,
          "midi": 64,
          "name": "E4",
          "ticks": 119616,
          "time": 196.736547,
          "velocity": 0.3937007874015748
        },
        {
          "duration": 0.1578944999999976,
          "durationTicks": 96,
          "midi": 76,
          "name": "E5",
          "ticks": 119616,
          "time": 196.736547,
          "velocity": 0.3937007874015748
        },
        {
          "duration": 0.1578944999999976,
          "durationTicks": 96,
          "midi": 78,
          "name": "F#5",
          "ticks": 119712,
          "time": 196.8944415,
          "velocity": 0.3937007874015748
        },
        {
          "duration": 0.1578944999999976,
          "durationTicks": 96,
          "midi": 66,
          "name": "F#4",
          "ticks": 119712,
          "time": 196.8944415,
          "velocity": 0.3937007874015748
        },
        {
          "duration": 0.3157889999999952,
          "durationTicks": 192,
          "midi": 59,
          "name": "B3",
          "ticks": 119808,
          "time": 197.052336,
          "velocity": 0.3937007874015748
        },
        {
          "duration": 0.3157889999999952,
          "durationTicks": 192,
          "midi": 71,
          "name": "B4",
          "ticks": 119808,
          "time": 197.052336,
          "velocity": 0.3937007874015748
        },
        {
          "duration": 0.3157889999999952,
          "durationTicks": 192,
          "midi": 73,
          "name": "C#5",
          "ticks": 120000,
          "time": 197.368125,
          "velocity": 0.3937007874015748
        },
        {
          "duration": 0.3157889999999952,
          "durationTicks": 192,
          "midi": 85,
          "name": "C#6",
          "ticks": 120000,
          "time": 197.368125,
          "velocity": 0.3937007874015748
        },
        {
          "duration": 0.3157889999999952,
          "durationTicks": 192,
          "midi": 68,
          "name": "G#4",
          "ticks": 120192,
          "time": 197.683914,
          "velocity": 0.3937007874015748
        },
        {
          "duration": 0.3157889999999952,
          "durationTicks": 192,
          "midi": 80,
          "name": "G#5",
          "ticks": 120192,
          "time": 197.683914,
          "velocity": 0.3937007874015748
        },
        {
          "duration": 0.3157889999999952,
          "durationTicks": 192,
          "midi": 78,
          "name": "F#5",
          "ticks": 120384,
          "time": 197.99970299999998,
          "velocity": 0.3937007874015748
        },
        {
          "duration": 0.3157889999999952,
          "durationTicks": 192,
          "midi": 66,
          "name": "F#4",
          "ticks": 120384,
          "time": 197.99970299999998,
          "velocity": 0.3937007874015748
        },
        {
          "duration": 0.31578900000002363,
          "durationTicks": 192,
          "midi": 76,
          "name": "E5",
          "ticks": 120576,
          "time": 198.31549199999998,
          "velocity": 0.3937007874015748
        },
        {
          "duration": 0.31578900000002363,
          "durationTicks": 192,
          "midi": 64,
          "name": "E4",
          "ticks": 120576,
          "time": 198.31549199999998,
          "velocity": 0.3937007874015748
        },
        {
          "duration": 0.1578944999999976,
          "durationTicks": 96,
          "midi": 63,
          "name": "D#4",
          "ticks": 120768,
          "time": 198.631281,
          "velocity": 0.3937007874015748
        },
        {
          "duration": 0.1578944999999976,
          "durationTicks": 96,
          "midi": 75,
          "name": "D#5",
          "ticks": 120768,
          "time": 198.631281,
          "velocity": 0.3937007874015748
        },
        {
          "duration": 0.1578944999999976,
          "durationTicks": 96,
          "midi": 64,
          "name": "E4",
          "ticks": 120864,
          "time": 198.7891755,
          "velocity": 0.3937007874015748
        },
        {
          "duration": 0.1578944999999976,
          "durationTicks": 96,
          "midi": 76,
          "name": "E5",
          "ticks": 120864,
          "time": 198.7891755,
          "velocity": 0.3937007874015748
        },
        {
          "duration": 0.1578944999999976,
          "durationTicks": 96,
          "midi": 75,
          "name": "D#5",
          "ticks": 120960,
          "time": 198.94707,
          "velocity": 0.3937007874015748
        },
        {
          "duration": 0.1578944999999976,
          "durationTicks": 96,
          "midi": 63,
          "name": "D#4",
          "ticks": 120960,
          "time": 198.94707,
          "velocity": 0.3937007874015748
        },
        {
          "duration": 0.1578944999999976,
          "durationTicks": 96,
          "midi": 61,
          "name": "C#4",
          "ticks": 121056,
          "time": 199.1049645,
          "velocity": 0.3937007874015748
        },
        {
          "duration": 0.1578944999999976,
          "durationTicks": 96,
          "midi": 73,
          "name": "C#5",
          "ticks": 121056,
          "time": 199.1049645,
          "velocity": 0.3937007874015748
        },
        {
          "duration": 0.1578944999999976,
          "durationTicks": 96,
          "midi": 59,
          "name": "B3",
          "ticks": 121152,
          "time": 199.262859,
          "velocity": 0.3937007874015748
        },
        {
          "duration": 0.1578944999999976,
          "durationTicks": 96,
          "midi": 71,
          "name": "B4",
          "ticks": 121152,
          "time": 199.262859,
          "velocity": 0.3937007874015748
        },
        {
          "duration": 0.1578944999999976,
          "durationTicks": 96,
          "midi": 56,
          "name": "G#3",
          "ticks": 121248,
          "time": 199.4207535,
          "velocity": 0.3937007874015748
        },
        {
          "duration": 0.1578944999999976,
          "durationTicks": 96,
          "midi": 68,
          "name": "G#4",
          "ticks": 121248,
          "time": 199.4207535,
          "velocity": 0.3937007874015748
        },
        {
          "duration": 0.1578944999999976,
          "durationTicks": 96,
          "midi": 57,
          "name": "A3",
          "ticks": 121344,
          "time": 199.578648,
          "velocity": 0.3937007874015748
        },
        {
          "duration": 0.1578944999999976,
          "durationTicks": 96,
          "midi": 69,
          "name": "A4",
          "ticks": 121344,
          "time": 199.578648,
          "velocity": 0.3937007874015748
        },
        {
          "duration": 0.1578944999999976,
          "durationTicks": 96,
          "midi": 69,
          "name": "A4",
          "ticks": 121440,
          "time": 199.73654249999998,
          "velocity": 0.3937007874015748
        },
        {
          "duration": 0.1578944999999976,
          "durationTicks": 96,
          "midi": 57,
          "name": "A3",
          "ticks": 121440,
          "time": 199.73654249999998,
          "velocity": 0.3937007874015748
        },
        {
          "duration": 0.3157889999999952,
          "durationTicks": 192,
          "midi": 73,
          "name": "C#5",
          "ticks": 121536,
          "time": 199.89443699999998,
          "velocity": 0.3937007874015748
        },
        {
          "duration": 0.3157889999999952,
          "durationTicks": 192,
          "midi": 85,
          "name": "C#6",
          "ticks": 121536,
          "time": 199.89443699999998,
          "velocity": 0.3937007874015748
        },
        {
          "duration": 0.31578900000002363,
          "durationTicks": 192,
          "midi": 68,
          "name": "G#4",
          "ticks": 121728,
          "time": 200.21022599999998,
          "velocity": 0.3937007874015748
        },
        {
          "duration": 0.31578900000002363,
          "durationTicks": 192,
          "midi": 80,
          "name": "G#5",
          "ticks": 121728,
          "time": 200.21022599999998,
          "velocity": 0.3937007874015748
        },
        {
          "duration": 0.1578944999999976,
          "durationTicks": 96,
          "midi": 85,
          "name": "C#6",
          "ticks": 121920,
          "time": 200.526015,
          "velocity": 0.3937007874015748
        },
        {
          "duration": 0.1578944999999976,
          "durationTicks": 96,
          "midi": 73,
          "name": "C#5",
          "ticks": 121920,
          "time": 200.526015,
          "velocity": 0.3937007874015748
        },
        {
          "duration": 0.1578944999999976,
          "durationTicks": 96,
          "midi": 81,
          "name": "A5",
          "ticks": 122016,
          "time": 200.6839095,
          "velocity": 0.3937007874015748
        },
        {
          "duration": 0.1578944999999976,
          "durationTicks": 96,
          "midi": 69,
          "name": "A4",
          "ticks": 122016,
          "time": 200.6839095,
          "velocity": 0.3937007874015748
        },
        {
          "duration": 0.1578944999999976,
          "durationTicks": 96,
          "midi": 85,
          "name": "C#6",
          "ticks": 122112,
          "time": 200.841804,
          "velocity": 0.3937007874015748
        },
        {
          "duration": 0.1578944999999976,
          "durationTicks": 96,
          "midi": 73,
          "name": "C#5",
          "ticks": 122112,
          "time": 200.841804,
          "velocity": 0.3937007874015748
        },
        {
          "duration": 0.1578944999999976,
          "durationTicks": 96,
          "midi": 71,
          "name": "B4",
          "ticks": 122208,
          "time": 200.9996985,
          "velocity": 0.3937007874015748
        },
        {
          "duration": 0.1578944999999976,
          "durationTicks": 96,
          "midi": 83,
          "name": "B5",
          "ticks": 122208,
          "time": 200.9996985,
          "velocity": 0.3937007874015748
        },
        {
          "duration": 0.3157889999999952,
          "durationTicks": 192,
          "midi": 68,
          "name": "G#4",
          "ticks": 122304,
          "time": 201.157593,
          "velocity": 0.3937007874015748
        },
        {
          "duration": 0.3157889999999952,
          "durationTicks": 192,
          "midi": 80,
          "name": "G#5",
          "ticks": 122304,
          "time": 201.157593,
          "velocity": 0.3937007874015748
        },
        {
          "duration": 0.3157889999999952,
          "durationTicks": 192,
          "midi": 66,
          "name": "F#4",
          "ticks": 122496,
          "time": 201.473382,
          "velocity": 0.3937007874015748
        },
        {
          "duration": 0.3157889999999952,
          "durationTicks": 192,
          "midi": 78,
          "name": "F#5",
          "ticks": 122496,
          "time": 201.473382,
          "velocity": 0.3937007874015748
        },
        {
          "duration": 0.1578944999999976,
          "durationTicks": 96,
          "midi": 68,
          "name": "G#4",
          "ticks": 122688,
          "time": 201.78917099999998,
          "velocity": 0.3937007874015748
        },
        {
          "duration": 0.1578944999999976,
          "durationTicks": 96,
          "midi": 80,
          "name": "G#5",
          "ticks": 122688,
          "time": 201.78917099999998,
          "velocity": 0.3937007874015748
        },
        {
          "duration": 0.15789450000002603,
          "durationTicks": 96,
          "midi": 64,
          "name": "E4",
          "ticks": 122784,
          "time": 201.94706549999998,
          "velocity": 0.3937007874015748
        },
        {
          "duration": 0.15789450000002603,
          "durationTicks": 96,
          "midi": 76,
          "name": "E5",
          "ticks": 122784,
          "time": 201.94706549999998,
          "velocity": 0.3937007874015748
        },
        {
          "duration": 0.1578944999999976,
          "durationTicks": 96,
          "midi": 56,
          "name": "G#3",
          "ticks": 122880,
          "time": 202.10496,
          "velocity": 0.3937007874015748
        },
        {
          "duration": 0.1578944999999976,
          "durationTicks": 96,
          "midi": 68,
          "name": "G#4",
          "ticks": 122880,
          "time": 202.10496,
          "velocity": 0.3937007874015748
        },
        {
          "duration": 0.1578944999999976,
          "durationTicks": 96,
          "midi": 68,
          "name": "G#4",
          "ticks": 122976,
          "time": 202.2628545,
          "velocity": 0.3937007874015748
        },
        {
          "duration": 0.1578944999999976,
          "durationTicks": 96,
          "midi": 56,
          "name": "G#3",
          "ticks": 122976,
          "time": 202.2628545,
          "velocity": 0.3937007874015748
        },
        {
          "duration": 0.3157889999999952,
          "durationTicks": 192,
          "midi": 73,
          "name": "C#5",
          "ticks": 123072,
          "time": 202.420749,
          "velocity": 0.3937007874015748
        },
        {
          "duration": 0.3157889999999952,
          "durationTicks": 192,
          "midi": 85,
          "name": "C#6",
          "ticks": 123072,
          "time": 202.420749,
          "velocity": 0.3937007874015748
        },
        {
          "duration": 0.3157889999999952,
          "durationTicks": 192,
          "midi": 56,
          "name": "G#3",
          "ticks": 123264,
          "time": 202.736538,
          "velocity": 0.3937007874015748
        },
        {
          "duration": 0.3157889999999952,
          "durationTicks": 192,
          "midi": 68,
          "name": "G#4",
          "ticks": 123264,
          "time": 202.736538,
          "velocity": 0.3937007874015748
        },
        {
          "duration": 0.3157889999999952,
          "durationTicks": 192,
          "midi": 73,
          "name": "C#5",
          "ticks": 123456,
          "time": 203.052327,
          "velocity": 0.3937007874015748
        },
        {
          "duration": 0.3157889999999952,
          "durationTicks": 192,
          "midi": 85,
          "name": "C#6",
          "ticks": 123456,
          "time": 203.052327,
          "velocity": 0.3937007874015748
        },
        {
          "duration": 0.1578944999999976,
          "durationTicks": 96,
          "midi": 55,
          "name": "G3",
          "ticks": 123648,
          "time": 203.368116,
          "velocity": 0.3937007874015748
        },
        {
          "duration": 0.1578944999999976,
          "durationTicks": 96,
          "midi": 67,
          "name": "G4",
          "ticks": 123648,
          "time": 203.368116,
          "velocity": 0.3937007874015748
        },
        {
          "duration": 0.1578944999999976,
          "durationTicks": 96,
          "midi": 55,
          "name": "G3",
          "ticks": 123744,
          "time": 203.52601049999998,
          "velocity": 0.3937007874015748
        },
        {
          "duration": 0.1578944999999976,
          "durationTicks": 96,
          "midi": 67,
          "name": "G4",
          "ticks": 123744,
          "time": 203.52601049999998,
          "velocity": 0.3937007874015748
        },
        {
          "duration": 0.31578900000002363,
          "durationTicks": 192,
          "midi": 73,
          "name": "C#5",
          "ticks": 123840,
          "time": 203.68390499999998,
          "velocity": 0.3937007874015748
        },
        {
          "duration": 0.31578900000002363,
          "durationTicks": 192,
          "midi": 85,
          "name": "C#6",
          "ticks": 123840,
          "time": 203.68390499999998,
          "velocity": 0.3937007874015748
        },
        {
          "duration": 0.3157889999999952,
          "durationTicks": 192,
          "midi": 57,
          "name": "A3",
          "ticks": 124032,
          "time": 203.999694,
          "velocity": 0.3937007874015748
        },
        {
          "duration": 0.3157889999999952,
          "durationTicks": 192,
          "midi": 69,
          "name": "A4",
          "ticks": 124032,
          "time": 203.999694,
          "velocity": 0.3937007874015748
        },
        {
          "duration": 0.3157889999999952,
          "durationTicks": 192,
          "midi": 75,
          "name": "D#5",
          "ticks": 124224,
          "time": 204.315483,
          "velocity": 0.3937007874015748
        },
        {
          "duration": 0.3157889999999952,
          "durationTicks": 192,
          "midi": 87,
          "name": "D#6",
          "ticks": 124224,
          "time": 204.315483,
          "velocity": 0.3937007874015748
        },
        {
          "duration": 0.3157889999999952,
          "durationTicks": 192,
          "midi": 73,
          "name": "C#5",
          "ticks": 124416,
          "time": 204.631272,
          "velocity": 0.3937007874015748
        },
        {
          "duration": 0.3157889999999952,
          "durationTicks": 192,
          "midi": 61,
          "name": "C#4",
          "ticks": 124416,
          "time": 204.631272,
          "velocity": 0.3937007874015748
        },
        {
          "duration": 0.3157889999999952,
          "durationTicks": 192,
          "midi": 73,
          "name": "C#5",
          "ticks": 124608,
          "time": 204.947061,
          "velocity": 0.3937007874015748
        },
        {
          "duration": 0.3157889999999952,
          "durationTicks": 192,
          "midi": 85,
          "name": "C#6",
          "ticks": 124608,
          "time": 204.947061,
          "velocity": 0.3937007874015748
        },
        {
          "duration": 0.1578944999999976,
          "durationTicks": 96,
          "midi": 68,
          "name": "G#4",
          "ticks": 124800,
          "time": 205.26285,
          "velocity": 0.3937007874015748
        },
        {
          "duration": 0.1578944999999976,
          "durationTicks": 96,
          "midi": 80,
          "name": "G#5",
          "ticks": 124800,
          "time": 205.26285,
          "velocity": 0.3937007874015748
        },
        {
          "duration": 0.31578900000002363,
          "durationTicks": 192,
          "midi": 67,
          "name": "G4",
          "ticks": 125088,
          "time": 205.73653349999998,
          "velocity": 0.3937007874015748
        },
        {
          "duration": 0.31578900000002363,
          "durationTicks": 192,
          "midi": 79,
          "name": "G5",
          "ticks": 125088,
          "time": 205.73653349999998,
          "velocity": 0.3937007874015748
        },
        {
          "duration": 0.3157889999999952,
          "durationTicks": 192,
          "midi": 66,
          "name": "F#4",
          "ticks": 125376,
          "time": 206.210217,
          "velocity": 0.3937007874015748
        },
        {
          "duration": 0.3157889999999952,
          "durationTicks": 192,
          "midi": 78,
          "name": "F#5",
          "ticks": 125376,
          "time": 206.210217,
          "velocity": 0.3937007874015748
        },
        {
          "duration": 0.1578944999999976,
          "durationTicks": 96,
          "midi": 64,
          "name": "E4",
          "ticks": 125568,
          "time": 206.526006,
          "velocity": 0.3937007874015748
        },
        {
          "duration": 0.1578944999999976,
          "durationTicks": 96,
          "midi": 76,
          "name": "E5",
          "ticks": 125568,
          "time": 206.526006,
          "velocity": 0.3937007874015748
        },
        {
          "duration": 0.1578944999999976,
          "durationTicks": 96,
          "midi": 61,
          "name": "C#4",
          "ticks": 125664,
          "time": 206.6839005,
          "velocity": 0.3937007874015748
        },
        {
          "duration": 0.1578944999999976,
          "durationTicks": 96,
          "midi": 73,
          "name": "C#5",
          "ticks": 125664,
          "time": 206.6839005,
          "velocity": 0.3937007874015748
        },
        {
          "duration": 0.1578944999999976,
          "durationTicks": 96,
          "midi": 64,
          "name": "E4",
          "ticks": 125760,
          "time": 206.841795,
          "velocity": 0.3937007874015748
        },
        {
          "duration": 0.1578944999999976,
          "durationTicks": 96,
          "midi": 76,
          "name": "E5",
          "ticks": 125760,
          "time": 206.841795,
          "velocity": 0.3937007874015748
        },
        {
          "duration": 0.1578944999999976,
          "durationTicks": 96,
          "midi": 78,
          "name": "F#5",
          "ticks": 125856,
          "time": 206.9996895,
          "velocity": 0.3937007874015748
        },
        {
          "duration": 0.1578944999999976,
          "durationTicks": 96,
          "midi": 66,
          "name": "F#4",
          "ticks": 125856,
          "time": 206.9996895,
          "velocity": 0.3937007874015748
        },
        {
          "duration": 0.3157889999999952,
          "durationTicks": 192,
          "midi": 59,
          "name": "B3",
          "ticks": 125952,
          "time": 207.15758399999999,
          "velocity": 0.3937007874015748
        },
        {
          "duration": 0.3157889999999952,
          "durationTicks": 192,
          "midi": 71,
          "name": "B4",
          "ticks": 125952,
          "time": 207.15758399999999,
          "velocity": 0.3937007874015748
        },
        {
          "duration": 0.31578900000002363,
          "durationTicks": 192,
          "midi": 73,
          "name": "C#5",
          "ticks": 126144,
          "time": 207.47337299999998,
          "velocity": 0.3937007874015748
        },
        {
          "duration": 0.31578900000002363,
          "durationTicks": 192,
          "midi": 85,
          "name": "C#6",
          "ticks": 126144,
          "time": 207.47337299999998,
          "velocity": 0.3937007874015748
        },
        {
          "duration": 0.3157889999999952,
          "durationTicks": 192,
          "midi": 68,
          "name": "G#4",
          "ticks": 126336,
          "time": 207.789162,
          "velocity": 0.3937007874015748
        },
        {
          "duration": 0.3157889999999952,
          "durationTicks": 192,
          "midi": 80,
          "name": "G#5",
          "ticks": 126336,
          "time": 207.789162,
          "velocity": 0.3937007874015748
        },
        {
          "duration": 0.3157889999999952,
          "durationTicks": 192,
          "midi": 66,
          "name": "F#4",
          "ticks": 126528,
          "time": 208.104951,
          "velocity": 0.3937007874015748
        },
        {
          "duration": 0.3157889999999952,
          "durationTicks": 192,
          "midi": 78,
          "name": "F#5",
          "ticks": 126528,
          "time": 208.104951,
          "velocity": 0.3937007874015748
        },
        {
          "duration": 0.3157889999999952,
          "durationTicks": 192,
          "midi": 64,
          "name": "E4",
          "ticks": 126720,
          "time": 208.42074,
          "velocity": 0.3937007874015748
        },
        {
          "duration": 0.3157889999999952,
          "durationTicks": 192,
          "midi": 76,
          "name": "E5",
          "ticks": 126720,
          "time": 208.42074,
          "velocity": 0.3937007874015748
        },
        {
          "duration": 0.1578944999999976,
          "durationTicks": 96,
          "midi": 63,
          "name": "D#4",
          "ticks": 126912,
          "time": 208.736529,
          "velocity": 0.3937007874015748
        },
        {
          "duration": 0.1578944999999976,
          "durationTicks": 96,
          "midi": 75,
          "name": "D#5",
          "ticks": 126912,
          "time": 208.736529,
          "velocity": 0.3937007874015748
        },
        {
          "duration": 0.1578944999999976,
          "durationTicks": 96,
          "midi": 64,
          "name": "E4",
          "ticks": 127008,
          "time": 208.8944235,
          "velocity": 0.3937007874015748
        },
        {
          "duration": 0.1578944999999976,
          "durationTicks": 96,
          "midi": 76,
          "name": "E5",
          "ticks": 127008,
          "time": 208.8944235,
          "velocity": 0.3937007874015748
        },
        {
          "duration": 0.1578944999999976,
          "durationTicks": 96,
          "midi": 75,
          "name": "D#5",
          "ticks": 127104,
          "time": 209.05231799999999,
          "velocity": 0.3937007874015748
        },
        {
          "duration": 0.1578944999999976,
          "durationTicks": 96,
          "midi": 63,
          "name": "D#4",
          "ticks": 127104,
          "time": 209.05231799999999,
          "velocity": 0.3937007874015748
        },
        {
          "duration": 0.1578944999999976,
          "durationTicks": 96,
          "midi": 73,
          "name": "C#5",
          "ticks": 127200,
          "time": 209.21021249999998,
          "velocity": 0.3937007874015748
        },
        {
          "duration": 0.1578944999999976,
          "durationTicks": 96,
          "midi": 61,
          "name": "C#4",
          "ticks": 127200,
          "time": 209.21021249999998,
          "velocity": 0.3937007874015748
        },
        {
          "duration": 0.1578944999999976,
          "durationTicks": 96,
          "midi": 59,
          "name": "B3",
          "ticks": 127296,
          "time": 209.36810699999998,
          "velocity": 0.3937007874015748
        },
        {
          "duration": 0.1578944999999976,
          "durationTicks": 96,
          "midi": 71,
          "name": "B4",
          "ticks": 127296,
          "time": 209.36810699999998,
          "velocity": 0.3937007874015748
        },
        {
          "duration": 0.15789450000002603,
          "durationTicks": 96,
          "midi": 56,
          "name": "G#3",
          "ticks": 127392,
          "time": 209.52600149999998,
          "velocity": 0.3937007874015748
        },
        {
          "duration": 0.15789450000002603,
          "durationTicks": 96,
          "midi": 68,
          "name": "G#4",
          "ticks": 127392,
          "time": 209.52600149999998,
          "velocity": 0.3937007874015748
        },
        {
          "duration": 0.1578944999999976,
          "durationTicks": 96,
          "midi": 69,
          "name": "A4",
          "ticks": 127488,
          "time": 209.683896,
          "velocity": 0.3937007874015748
        },
        {
          "duration": 0.1578944999999976,
          "durationTicks": 96,
          "midi": 57,
          "name": "A3",
          "ticks": 127488,
          "time": 209.683896,
          "velocity": 0.3937007874015748
        },
        {
          "duration": 0.1578944999999976,
          "durationTicks": 96,
          "midi": 57,
          "name": "A3",
          "ticks": 127584,
          "time": 209.8417905,
          "velocity": 0.3937007874015748
        },
        {
          "duration": 0.1578944999999976,
          "durationTicks": 96,
          "midi": 69,
          "name": "A4",
          "ticks": 127584,
          "time": 209.8417905,
          "velocity": 0.3937007874015748
        },
        {
          "duration": 0.3157889999999952,
          "durationTicks": 192,
          "midi": 73,
          "name": "C#5",
          "ticks": 127680,
          "time": 209.999685,
          "velocity": 0.3937007874015748
        },
        {
          "duration": 0.3157889999999952,
          "durationTicks": 192,
          "midi": 85,
          "name": "C#6",
          "ticks": 127680,
          "time": 209.999685,
          "velocity": 0.3937007874015748
        },
        {
          "duration": 0.3157889999999952,
          "durationTicks": 192,
          "midi": 68,
          "name": "G#4",
          "ticks": 127872,
          "time": 210.315474,
          "velocity": 0.3937007874015748
        },
        {
          "duration": 0.3157889999999952,
          "durationTicks": 192,
          "midi": 80,
          "name": "G#5",
          "ticks": 127872,
          "time": 210.315474,
          "velocity": 0.3937007874015748
        },
        {
          "duration": 0.1578944999999976,
          "durationTicks": 96,
          "midi": 85,
          "name": "C#6",
          "ticks": 128064,
          "time": 210.631263,
          "velocity": 0.3937007874015748
        },
        {
          "duration": 0.1578944999999976,
          "durationTicks": 96,
          "midi": 73,
          "name": "C#5",
          "ticks": 128064,
          "time": 210.631263,
          "velocity": 0.3937007874015748
        },
        {
          "duration": 0.1578944999999976,
          "durationTicks": 96,
          "midi": 69,
          "name": "A4",
          "ticks": 128160,
          "time": 210.7891575,
          "velocity": 0.3937007874015748
        },
        {
          "duration": 0.1578944999999976,
          "durationTicks": 96,
          "midi": 81,
          "name": "A5",
          "ticks": 128160,
          "time": 210.7891575,
          "velocity": 0.3937007874015748
        },
        {
          "duration": 0.1578944999999976,
          "durationTicks": 96,
          "midi": 73,
          "name": "C#5",
          "ticks": 128256,
          "time": 210.94705199999999,
          "velocity": 0.3937007874015748
        },
        {
          "duration": 0.1578944999999976,
          "durationTicks": 96,
          "midi": 85,
          "name": "C#6",
          "ticks": 128256,
          "time": 210.94705199999999,
          "velocity": 0.3937007874015748
        },
        {
          "duration": 0.1578944999999976,
          "durationTicks": 96,
          "midi": 71,
          "name": "B4",
          "ticks": 128352,
          "time": 211.10494649999998,
          "velocity": 0.3937007874015748
        },
        {
          "duration": 0.1578944999999976,
          "durationTicks": 96,
          "midi": 83,
          "name": "B5",
          "ticks": 128352,
          "time": 211.10494649999998,
          "velocity": 0.3937007874015748
        },
        {
          "duration": 0.31578900000002363,
          "durationTicks": 192,
          "midi": 68,
          "name": "G#4",
          "ticks": 128448,
          "time": 211.26284099999998,
          "velocity": 0.3937007874015748
        },
        {
          "duration": 0.31578900000002363,
          "durationTicks": 192,
          "midi": 80,
          "name": "G#5",
          "ticks": 128448,
          "time": 211.26284099999998,
          "velocity": 0.3937007874015748
        },
        {
          "duration": 0.3157889999999952,
          "durationTicks": 192,
          "midi": 78,
          "name": "F#5",
          "ticks": 128640,
          "time": 211.57863,
          "velocity": 0.3937007874015748
        },
        {
          "duration": 0.3157889999999952,
          "durationTicks": 192,
          "midi": 66,
          "name": "F#4",
          "ticks": 128640,
          "time": 211.57863,
          "velocity": 0.3937007874015748
        },
        {
          "duration": 0.1578944999999976,
          "durationTicks": 96,
          "midi": 68,
          "name": "G#4",
          "ticks": 128832,
          "time": 211.894419,
          "velocity": 0.3937007874015748
        },
        {
          "duration": 0.1578944999999976,
          "durationTicks": 96,
          "midi": 80,
          "name": "G#5",
          "ticks": 128832,
          "time": 211.894419,
          "velocity": 0.3937007874015748
        },
        {
          "duration": 0.1578944999999976,
          "durationTicks": 96,
          "midi": 64,
          "name": "E4",
          "ticks": 128928,
          "time": 212.0523135,
          "velocity": 0.3937007874015748
        },
        {
          "duration": 0.1578944999999976,
          "durationTicks": 96,
          "midi": 76,
          "name": "E5",
          "ticks": 128928,
          "time": 212.0523135,
          "velocity": 0.3937007874015748
        },
        {
          "duration": 0.1578944999999976,
          "durationTicks": 96,
          "midi": 68,
          "name": "G#4",
          "ticks": 129024,
          "time": 212.210208,
          "velocity": 0.3937007874015748
        },
        {
          "duration": 0.1578944999999976,
          "durationTicks": 96,
          "midi": 56,
          "name": "G#3",
          "ticks": 129024,
          "time": 212.210208,
          "velocity": 0.3937007874015748
        },
        {
          "duration": 0.1578944999999976,
          "durationTicks": 96,
          "midi": 68,
          "name": "G#4",
          "ticks": 129120,
          "time": 212.3681025,
          "velocity": 0.3937007874015748
        },
        {
          "duration": 0.1578944999999976,
          "durationTicks": 96,
          "midi": 56,
          "name": "G#3",
          "ticks": 129120,
          "time": 212.3681025,
          "velocity": 0.3937007874015748
        },
        {
          "duration": 0.3157889999999952,
          "durationTicks": 192,
          "midi": 73,
          "name": "C#5",
          "ticks": 129216,
          "time": 212.525997,
          "velocity": 0.3937007874015748
        },
        {
          "duration": 0.3157889999999952,
          "durationTicks": 192,
          "midi": 85,
          "name": "C#6",
          "ticks": 129216,
          "time": 212.525997,
          "velocity": 0.3937007874015748
        },
        {
          "duration": 0.3157889999999952,
          "durationTicks": 192,
          "midi": 56,
          "name": "G#3",
          "ticks": 129408,
          "time": 212.84178599999998,
          "velocity": 0.3937007874015748
        },
        {
          "duration": 0.3157889999999952,
          "durationTicks": 192,
          "midi": 68,
          "name": "G#4",
          "ticks": 129408,
          "time": 212.84178599999998,
          "velocity": 0.3937007874015748
        },
        {
          "duration": 0.31578900000002363,
          "durationTicks": 192,
          "midi": 73,
          "name": "C#5",
          "ticks": 129600,
          "time": 213.15757499999998,
          "velocity": 0.3937007874015748
        },
        {
          "duration": 0.31578900000002363,
          "durationTicks": 192,
          "midi": 85,
          "name": "C#6",
          "ticks": 129600,
          "time": 213.15757499999998,
          "velocity": 0.3937007874015748
        },
        {
          "duration": 0.1578944999999976,
          "durationTicks": 96,
          "midi": 67,
          "name": "G4",
          "ticks": 129792,
          "time": 213.473364,
          "velocity": 0.3937007874015748
        },
        {
          "duration": 0.1578944999999976,
          "durationTicks": 96,
          "midi": 55,
          "name": "G3",
          "ticks": 129792,
          "time": 213.473364,
          "velocity": 0.3937007874015748
        },
        {
          "duration": 0.1578944999999976,
          "durationTicks": 96,
          "midi": 55,
          "name": "G3",
          "ticks": 129888,
          "time": 213.6312585,
          "velocity": 0.3937007874015748
        },
        {
          "duration": 0.1578944999999976,
          "durationTicks": 96,
          "midi": 67,
          "name": "G4",
          "ticks": 129888,
          "time": 213.6312585,
          "velocity": 0.3937007874015748
        },
        {
          "duration": 0.3157889999999952,
          "durationTicks": 192,
          "midi": 73,
          "name": "C#5",
          "ticks": 129984,
          "time": 213.789153,
          "velocity": 0.3937007874015748
        },
        {
          "duration": 0.3157889999999952,
          "durationTicks": 192,
          "midi": 85,
          "name": "C#6",
          "ticks": 129984,
          "time": 213.789153,
          "velocity": 0.3937007874015748
        },
        {
          "duration": 0.3157889999999952,
          "durationTicks": 192,
          "midi": 57,
          "name": "A3",
          "ticks": 130176,
          "time": 214.104942,
          "velocity": 0.3937007874015748
        },
        {
          "duration": 0.3157889999999952,
          "durationTicks": 192,
          "midi": 69,
          "name": "A4",
          "ticks": 130176,
          "time": 214.104942,
          "velocity": 0.3937007874015748
        },
        {
          "duration": 0.3157889999999952,
          "durationTicks": 192,
          "midi": 87,
          "name": "D#6",
          "ticks": 130368,
          "time": 214.420731,
          "velocity": 0.3937007874015748
        },
        {
          "duration": 0.3157889999999952,
          "durationTicks": 192,
          "midi": 75,
          "name": "D#5",
          "ticks": 130368,
          "time": 214.420731,
          "velocity": 0.3937007874015748
        },
        {
          "duration": 0.3157889999999952,
          "durationTicks": 192,
          "midi": 73,
          "name": "C#5",
          "ticks": 130560,
          "time": 214.73651999999998,
          "velocity": 0.3937007874015748
        },
        {
          "duration": 0.31578900000002363,
          "durationTicks": 192,
          "midi": 85,
          "name": "C#6",
          "ticks": 130752,
          "time": 215.05230899999998,
          "velocity": 0.3937007874015748
        },
        {
          "duration": 0.1578944999999976,
          "durationTicks": 96,
          "midi": 80,
          "name": "G#5",
          "ticks": 130944,
          "time": 215.368098,
          "velocity": 0.3937007874015748
        },
        {
          "duration": 0.3157889999999952,
          "durationTicks": 192,
          "midi": 79,
          "name": "G5",
          "ticks": 131232,
          "time": 215.8417815,
          "velocity": 0.3937007874015748
        },
        {
          "duration": 0.3157889999999952,
          "durationTicks": 192,
          "midi": 78,
          "name": "F#5",
          "ticks": 131520,
          "time": 216.315465,
          "velocity": 0.3937007874015748
        },
        {
          "duration": 0.1578944999999976,
          "durationTicks": 96,
          "midi": 76,
          "name": "E5",
          "ticks": 131712,
          "time": 216.63125399999998,
          "velocity": 0.3937007874015748
        },
        {
          "duration": 0.1578944999999976,
          "durationTicks": 96,
          "midi": 73,
          "name": "C#5",
          "ticks": 131808,
          "time": 216.78914849999998,
          "velocity": 0.3937007874015748
        },
        {
          "duration": 0.1578944999999976,
          "durationTicks": 96,
          "midi": 76,
          "name": "E5",
          "ticks": 131904,
          "time": 216.94704299999998,
          "velocity": 0.3937007874015748
        },
        {
          "duration": 0.15789450000002603,
          "durationTicks": 96,
          "midi": 78,
          "name": "F#5",
          "ticks": 132000,
          "time": 217.10493749999998,
          "velocity": 0.3937007874015748
        },
        {
          "duration": 0.3157889999999952,
          "durationTicks": 192,
          "midi": 71,
          "name": "B4",
          "ticks": 132096,
          "time": 217.262832,
          "velocity": 0.3937007874015748
        },
        {
          "duration": 0.3157889999999952,
          "durationTicks": 192,
          "midi": 85,
          "name": "C#6",
          "ticks": 132288,
          "time": 217.578621,
          "velocity": 0.3937007874015748
        },
        {
          "duration": 0.3157889999999952,
          "durationTicks": 192,
          "midi": 80,
          "name": "G#5",
          "ticks": 132480,
          "time": 217.89441,
          "velocity": 0.3937007874015748
        },
        {
          "duration": 0.3157889999999952,
          "durationTicks": 192,
          "midi": 78,
          "name": "F#5",
          "ticks": 132672,
          "time": 218.210199,
          "velocity": 0.3937007874015748
        },
        {
          "duration": 0.3157889999999952,
          "durationTicks": 192,
          "midi": 76,
          "name": "E5",
          "ticks": 132864,
          "time": 218.52598799999998,
          "velocity": 0.3937007874015748
        },
        {
          "duration": 0.1578944999999976,
          "durationTicks": 96,
          "midi": 75,
          "name": "D#5",
          "ticks": 133056,
          "time": 218.84177699999998,
          "velocity": 0.3937007874015748
        },
        {
          "duration": 0.15789450000002603,
          "durationTicks": 96,
          "midi": 76,
          "name": "E5",
          "ticks": 133152,
          "time": 218.99967149999998,
          "velocity": 0.3937007874015748
        },
        {
          "duration": 0.1578944999999976,
          "durationTicks": 96,
          "midi": 75,
          "name": "D#5",
          "ticks": 133248,
          "time": 219.157566,
          "velocity": 0.3937007874015748
        },
        {
          "duration": 0.1578944999999976,
          "durationTicks": 96,
          "midi": 73,
          "name": "C#5",
          "ticks": 133344,
          "time": 219.3154605,
          "velocity": 0.3937007874015748
        },
        {
          "duration": 0.1578944999999976,
          "durationTicks": 96,
          "midi": 71,
          "name": "B4",
          "ticks": 133440,
          "time": 219.473355,
          "velocity": 0.3937007874015748
        },
        {
          "duration": 0.1578944999999976,
          "durationTicks": 96,
          "midi": 68,
          "name": "G#4",
          "ticks": 133536,
          "time": 219.6312495,
          "velocity": 0.3937007874015748
        },
        {
          "duration": 0.1578944999999976,
          "durationTicks": 96,
          "midi": 69,
          "name": "A4",
          "ticks": 133632,
          "time": 219.789144,
          "velocity": 0.3937007874015748
        },
        {
          "duration": 0.1578944999999976,
          "durationTicks": 96,
          "midi": 69,
          "name": "A4",
          "ticks": 133728,
          "time": 219.9470385,
          "velocity": 0.3937007874015748
        },
        {
          "duration": 0.3157889999999952,
          "durationTicks": 192,
          "midi": 85,
          "name": "C#6",
          "ticks": 133824,
          "time": 220.104933,
          "velocity": 0.3937007874015748
        },
        {
          "duration": 0.3157889999999952,
          "durationTicks": 192,
          "midi": 80,
          "name": "G#5",
          "ticks": 134016,
          "time": 220.42072199999998,
          "velocity": 0.3937007874015748
        },
        {
          "duration": 0.1578944999999976,
          "durationTicks": 96,
          "midi": 85,
          "name": "C#6",
          "ticks": 134208,
          "time": 220.73651099999998,
          "velocity": 0.3937007874015748
        },
        {
          "duration": 0.15789450000002603,
          "durationTicks": 96,
          "midi": 81,
          "name": "A5",
          "ticks": 134304,
          "time": 220.89440549999998,
          "velocity": 0.3937007874015748
        },
        {
          "duration": 0.1578944999999976,
          "durationTicks": 96,
          "midi": 85,
          "name": "C#6",
          "ticks": 134400,
          "time": 221.0523,
          "velocity": 0.3937007874015748
        },
        {
          "duration": 0.1578944999999976,
          "durationTicks": 96,
          "midi": 83,
          "name": "B5",
          "ticks": 134496,
          "time": 221.2101945,
          "velocity": 0.3937007874015748
        },
        {
          "duration": 0.3157889999999952,
          "durationTicks": 192,
          "midi": 80,
          "name": "G#5",
          "ticks": 134592,
          "time": 221.368089,
          "velocity": 0.3937007874015748
        },
        {
          "duration": 0.3157889999999952,
          "durationTicks": 192,
          "midi": 78,
          "name": "F#5",
          "ticks": 134784,
          "time": 221.683878,
          "velocity": 0.3937007874015748
        },
        {
          "duration": 0.1578944999999976,
          "durationTicks": 96,
          "midi": 80,
          "name": "G#5",
          "ticks": 134976,
          "time": 221.999667,
          "velocity": 0.3937007874015748
        },
        {
          "duration": 0.1578944999999976,
          "durationTicks": 96,
          "midi": 76,
          "name": "E5",
          "ticks": 135072,
          "time": 222.15756149999999,
          "velocity": 0.3937007874015748
        },
        {
          "duration": 0.3157889999999952,
          "durationTicks": 192,
          "midi": 68,
          "name": "G#4",
          "ticks": 135168,
          "time": 222.31545599999998,
          "velocity": 0.3937007874015748
        },
        {
          "duration": 0.31578900000002363,
          "durationTicks": 192,
          "midi": 85,
          "name": "C#6",
          "ticks": 135360,
          "time": 222.63124499999998,
          "velocity": 0.3937007874015748
        },
        {
          "duration": 0.4736834999999928,
          "durationTicks": 288,
          "midi": 68,
          "name": "G#4",
          "ticks": 135552,
          "time": 222.947034,
          "velocity": 0.3937007874015748
        },
        {
          "duration": 0.4736834999999928,
          "durationTicks": 288,
          "midi": 85,
          "name": "C#6",
          "ticks": 135840,
          "time": 223.4207175,
          "velocity": 0.3937007874015748
        },
        {
          "duration": 0.6315779999999904,
          "durationTicks": 384,
          "midi": 67,
          "name": "G4",
          "ticks": 136128,
          "time": 223.894401,
          "velocity": 0.3937007874015748
        },
        {
          "duration": 0.6315780000000188,
          "durationTicks": 384,
          "midi": 85,
          "name": "C#6",
          "ticks": 136512,
          "time": 224.52597899999998,
          "velocity": 0.3937007874015748
        },
        {
          "duration": 0.789472499999988,
          "durationTicks": 480,
          "midi": 69,
          "name": "A4",
          "ticks": 136896,
          "time": 225.157557,
          "velocity": 0.3937007874015748
        },
        {
          "duration": 1.4210505000000069,
          "durationTicks": 864,
          "midi": 87,
          "name": "D#6",
          "ticks": 137376,
          "time": 225.94702949999999,
          "velocity": 0.3937007874015748
        }
      ],
      "endOfTrackTicks": 138240
    },
    {
      "channel": 9,
      "controlChanges": {},
      "pitchBends": [],
      "instrument": {
        "family": "drums",
        "number": 0,
        "name": "standard kit"
      },
      "name": "Electric Drum Kit",
      "notes": [
        {
          "duration": 0.31578900000000054,
          "durationTicks": 192,
          "midi": 36,
          "name": "C2",
          "ticks": 6144,
          "time": 10.105248,
          "velocity": 0.3937007874015748
        },
        {
          "duration": 0.31578899999999877,
          "durationTicks": 192,
          "midi": 36,
          "name": "C2",
          "ticks": 6336,
          "time": 10.421037,
          "velocity": 0.3937007874015748
        },
        {
          "duration": 0.6315780000000011,
          "durationTicks": 384,
          "midi": 52,
          "name": "E3",
          "ticks": 6528,
          "time": 10.736825999999999,
          "velocity": 0.3937007874015748
        },
        {
          "duration": 0.31578899999999877,
          "durationTicks": 192,
          "midi": 36,
          "name": "C2",
          "ticks": 6912,
          "time": 11.368404,
          "velocity": 0.3937007874015748
        },
        {
          "duration": 0.31578900000000054,
          "durationTicks": 192,
          "midi": 36,
          "name": "C2",
          "ticks": 7104,
          "time": 11.684192999999999,
          "velocity": 0.3937007874015748
        },
        {
          "duration": 0.4736834999999999,
          "durationTicks": 288,
          "midi": 52,
          "name": "E3",
          "ticks": 7296,
          "time": 11.999982,
          "velocity": 0.3937007874015748
        },
        {
          "duration": 0.15789450000000116,
          "durationTicks": 96,
          "midi": 52,
          "name": "E3",
          "ticks": 7584,
          "time": 12.4736655,
          "velocity": 0.3937007874015748
        },
        {
          "duration": 0.31578899999999877,
          "durationTicks": 192,
          "midi": 36,
          "name": "C2",
          "ticks": 7680,
          "time": 12.63156,
          "velocity": 0.3937007874015748
        },
        {
          "duration": 0.31578900000000054,
          "durationTicks": 192,
          "midi": 36,
          "name": "C2",
          "ticks": 7872,
          "time": 12.947348999999999,
          "velocity": 0.3937007874015748
        },
        {
          "duration": 0.6315779999999993,
          "durationTicks": 384,
          "midi": 52,
          "name": "E3",
          "ticks": 8064,
          "time": 13.263138,
          "velocity": 0.3937007874015748
        },
        {
          "duration": 0.31578900000000054,
          "durationTicks": 192,
          "midi": 36,
          "name": "C2",
          "ticks": 8448,
          "time": 13.894715999999999,
          "velocity": 0.3937007874015748
        },
        {
          "duration": 0.31578900000000054,
          "durationTicks": 192,
          "midi": 36,
          "name": "C2",
          "ticks": 8640,
          "time": 14.210505,
          "velocity": 0.3937007874015748
        },
        {
          "duration": 0.4736834999999999,
          "durationTicks": 288,
          "midi": 52,
          "name": "E3",
          "ticks": 8832,
          "time": 14.526294,
          "velocity": 0.3937007874015748
        },
        {
          "duration": 0.15789449999999938,
          "durationTicks": 96,
          "midi": 52,
          "name": "E3",
          "ticks": 9120,
          "time": 14.9999775,
          "velocity": 0.3937007874015748
        },
        {
          "duration": 0.31578900000000054,
          "durationTicks": 192,
          "midi": 36,
          "name": "C2",
          "ticks": 9216,
          "time": 15.157872,
          "velocity": 0.3937007874015748
        },
        {
          "duration": 0.31578899999999877,
          "durationTicks": 192,
          "midi": 36,
          "name": "C2",
          "ticks": 9408,
          "time": 15.473661,
          "velocity": 0.3937007874015748
        },
        {
          "duration": 0.6315780000000011,
          "durationTicks": 384,
          "midi": 52,
          "name": "E3",
          "ticks": 9600,
          "time": 15.789449999999999,
          "velocity": 0.3937007874015748
        },
        {
          "duration": 0.31578899999999877,
          "durationTicks": 192,
          "midi": 36,
          "name": "C2",
          "ticks": 9984,
          "time": 16.421028,
          "velocity": 0.3937007874015748
        },
        {
          "duration": 0.3157890000000023,
          "durationTicks": 192,
          "midi": 36,
          "name": "C2",
          "ticks": 10176,
          "time": 16.736817,
          "velocity": 0.3937007874015748
        },
        {
          "duration": 0.4736834999999999,
          "durationTicks": 288,
          "midi": 52,
          "name": "E3",
          "ticks": 10368,
          "time": 17.052606,
          "velocity": 0.3937007874015748
        },
        {
          "duration": 0.1578944999999976,
          "durationTicks": 96,
          "midi": 52,
          "name": "E3",
          "ticks": 10656,
          "time": 17.5262895,
          "velocity": 0.3937007874015748
        },
        {
          "duration": 0.3157890000000023,
          "durationTicks": 192,
          "midi": 36,
          "name": "C2",
          "ticks": 10752,
          "time": 17.684184,
          "velocity": 0.3937007874015748
        },
        {
          "duration": 0.31578899999999877,
          "durationTicks": 192,
          "midi": 36,
          "name": "C2",
          "ticks": 10944,
          "time": 17.999973,
          "velocity": 0.3937007874015748
        },
        {
          "duration": 0.6315780000000011,
          "durationTicks": 384,
          "midi": 52,
          "name": "E3",
          "ticks": 11136,
          "time": 18.315762,
          "velocity": 0.3937007874015748
        },
        {
          "duration": 0.31578899999999877,
          "durationTicks": 192,
          "midi": 36,
          "name": "C2",
          "ticks": 11520,
          "time": 18.94734,
          "velocity": 0.3937007874015748
        },
        {
          "duration": 0.31578899999999877,
          "durationTicks": 192,
          "midi": 36,
          "name": "C2",
          "ticks": 11712,
          "time": 19.263129,
          "velocity": 0.3937007874015748
        },
        {
          "duration": 0.4736834999999999,
          "durationTicks": 288,
          "midi": 52,
          "name": "E3",
          "ticks": 11904,
          "time": 19.578917999999998,
          "velocity": 0.3937007874015748
        },
        {
          "duration": 0.15789450000000116,
          "durationTicks": 96,
          "midi": 52,
          "name": "E3",
          "ticks": 12192,
          "time": 20.052601499999998,
          "velocity": 0.3937007874015748
        },
        {
          "duration": 0.31578899999999877,
          "durationTicks": 192,
          "midi": 36,
          "name": "C2",
          "ticks": 12288,
          "time": 20.210496,
          "velocity": 0.3937007874015748
        },
        {
          "duration": 0.3157890000000023,
          "durationTicks": 192,
          "midi": 36,
          "name": "C2",
          "ticks": 12480,
          "time": 20.526284999999998,
          "velocity": 0.3937007874015748
        },
        {
          "duration": 0.6315779999999975,
          "durationTicks": 384,
          "midi": 52,
          "name": "E3",
          "ticks": 12672,
          "time": 20.842074,
          "velocity": 0.3937007874015748
        },
        {
          "duration": 0.3157890000000023,
          "durationTicks": 192,
          "midi": 36,
          "name": "C2",
          "ticks": 13056,
          "time": 21.473651999999998,
          "velocity": 0.3937007874015748
        },
        {
          "duration": 0.31578899999999877,
          "durationTicks": 192,
          "midi": 36,
          "name": "C2",
          "ticks": 13248,
          "time": 21.789441,
          "velocity": 0.3937007874015748
        },
        {
          "duration": 0.4736834999999999,
          "durationTicks": 288,
          "midi": 52,
          "name": "E3",
          "ticks": 13440,
          "time": 22.10523,
          "velocity": 0.3937007874015748
        },
        {
          "duration": 0.15789450000000116,
          "durationTicks": 96,
          "midi": 52,
          "name": "E3",
          "ticks": 13728,
          "time": 22.5789135,
          "velocity": 0.3937007874015748
        },
        {
          "duration": 0.31578899999999877,
          "durationTicks": 192,
          "midi": 36,
          "name": "C2",
          "ticks": 13824,
          "time": 22.736808,
          "velocity": 0.3937007874015748
        },
        {
          "duration": 0.31578899999999877,
          "durationTicks": 192,
          "midi": 36,
          "name": "C2",
          "ticks": 14016,
          "time": 23.052597,
          "velocity": 0.3937007874015748
        },
        {
          "duration": 0.6315780000000011,
          "durationTicks": 384,
          "midi": 52,
          "name": "E3",
          "ticks": 14208,
          "time": 23.368385999999997,
          "velocity": 0.3937007874015748
        },
        {
          "duration": 0.31578899999999877,
          "durationTicks": 192,
          "midi": 36,
          "name": "C2",
          "ticks": 14592,
          "time": 23.999964,
          "velocity": 0.3937007874015748
        },
        {
          "duration": 0.3157890000000023,
          "durationTicks": 192,
          "midi": 36,
          "name": "C2",
          "ticks": 14784,
          "time": 24.315752999999997,
          "velocity": 0.3937007874015748
        },
        {
          "duration": 0.4736834999999999,
          "durationTicks": 288,
          "midi": 52,
          "name": "E3",
          "ticks": 14976,
          "time": 24.631542,
          "velocity": 0.3937007874015748
        },
        {
          "duration": 0.15789450000000116,
          "durationTicks": 96,
          "midi": 52,
          "name": "E3",
          "ticks": 15264,
          "time": 25.1052255,
          "velocity": 0.3937007874015748
        },
        {
          "duration": 0.31578899999999877,
          "durationTicks": 192,
          "midi": 36,
          "name": "C2",
          "ticks": 15360,
          "time": 25.26312,
          "velocity": 0.3937007874015748
        },
        {
          "duration": 0.31578899999999877,
          "durationTicks": 192,
          "midi": 36,
          "name": "C2",
          "ticks": 15552,
          "time": 25.578909,
          "velocity": 0.3937007874015748
        },
        {
          "duration": 0.6315780000000011,
          "durationTicks": 384,
          "midi": 52,
          "name": "E3",
          "ticks": 15744,
          "time": 25.894697999999998,
          "velocity": 0.3937007874015748
        },
        {
          "duration": 0.31578899999999877,
          "durationTicks": 192,
          "midi": 36,
          "name": "C2",
          "ticks": 16128,
          "time": 26.526276,
          "velocity": 0.3937007874015748
        },
        {
          "duration": 0.3157890000000023,
          "durationTicks": 192,
          "midi": 36,
          "name": "C2",
          "ticks": 16320,
          "time": 26.842064999999998,
          "velocity": 0.3937007874015748
        },
        {
          "duration": 0.4736834999999999,
          "durationTicks": 288,
          "midi": 52,
          "name": "E3",
          "ticks": 16512,
          "time": 27.157854,
          "velocity": 0.3937007874015748
        },
        {
          "duration": 0.1578944999999976,
          "durationTicks": 96,
          "midi": 52,
          "name": "E3",
          "ticks": 16800,
          "time": 27.6315375,
          "velocity": 0.3937007874015748
        },
        {
          "duration": 0.3157890000000023,
          "durationTicks": 192,
          "midi": 36,
          "name": "C2",
          "ticks": 16896,
          "time": 27.789431999999998,
          "velocity": 0.3937007874015748
        },
        {
          "duration": 0.31578899999999877,
          "durationTicks": 192,
          "midi": 52,
          "name": "E3",
          "ticks": 17088,
          "time": 28.105221,
          "velocity": 0.3937007874015748
        },
        {
          "duration": 0.31578899999999877,
          "durationTicks": 192,
          "midi": 36,
          "name": "C2",
          "ticks": 17088,
          "time": 28.105221,
          "velocity": 0.3937007874015748
        },
        {
          "duration": 0.31578899999999877,
          "durationTicks": 192,
          "midi": 36,
          "name": "C2",
          "ticks": 17280,
          "time": 28.42101,
          "velocity": 0.3937007874015748
        },
        {
          "duration": 0.3157890000000023,
          "durationTicks": 192,
          "midi": 52,
          "name": "E3",
          "ticks": 17472,
          "time": 28.736798999999998,
          "velocity": 0.3937007874015748
        },
        {
          "duration": 0.3157890000000023,
          "durationTicks": 192,
          "midi": 36,
          "name": "C2",
          "ticks": 17472,
          "time": 28.736798999999998,
          "velocity": 0.3937007874015748
        },
        {
          "duration": 0.31578899999999877,
          "durationTicks": 192,
          "midi": 52,
          "name": "E3",
          "ticks": 17664,
          "time": 29.052588,
          "velocity": 0.3937007874015748
        },
        {
          "duration": 0.31578899999999877,
          "durationTicks": 192,
          "midi": 36,
          "name": "C2",
          "ticks": 17664,
          "time": 29.052588,
          "velocity": 0.3937007874015748
        },
        {
          "duration": 0.15789450000000116,
          "durationTicks": 96,
          "midi": 52,
          "name": "E3",
          "ticks": 17856,
          "time": 29.368377,
          "velocity": 0.3937007874015748
        },
        {
          "duration": 0.1578944999999976,
          "durationTicks": 96,
          "midi": 52,
          "name": "E3",
          "ticks": 17952,
          "time": 29.5262715,
          "velocity": 0.3937007874015748
        },
        {
          "duration": 0.15789450000000116,
          "durationTicks": 96,
          "midi": 52,
          "name": "E3",
          "ticks": 18048,
          "time": 29.684165999999998,
          "velocity": 0.3937007874015748
        },
        {
          "duration": 0.15789450000000116,
          "durationTicks": 96,
          "midi": 52,
          "name": "E3",
          "ticks": 18144,
          "time": 29.8420605,
          "velocity": 0.3937007874015748
        },
        {
          "duration": 0.31578899999999877,
          "durationTicks": 192,
          "midi": 36,
          "name": "C2",
          "ticks": 18432,
          "time": 30.315744,
          "velocity": 0.3937007874015748
        },
        {
          "duration": 0.3157890000000023,
          "durationTicks": 192,
          "midi": 36,
          "name": "C2",
          "ticks": 18624,
          "time": 30.631532999999997,
          "velocity": 0.3937007874015748
        },
        {
          "duration": 0.6315779999999975,
          "durationTicks": 384,
          "midi": 52,
          "name": "E3",
          "ticks": 18816,
          "time": 30.947322,
          "velocity": 0.3937007874015748
        },
        {
          "duration": 0.3157890000000023,
          "durationTicks": 192,
          "midi": 36,
          "name": "C2",
          "ticks": 19200,
          "time": 31.578899999999997,
          "velocity": 0.3937007874015748
        },
        {
          "duration": 0.3157890000000023,
          "durationTicks": 192,
          "midi": 36,
          "name": "C2",
          "ticks": 19392,
          "time": 31.894689,
          "velocity": 0.3937007874015748
        },
        {
          "duration": 0.4736834999999999,
          "durationTicks": 288,
          "midi": 52,
          "name": "E3",
          "ticks": 19584,
          "time": 32.210478,
          "velocity": 0.3937007874015748
        },
        {
          "duration": 0.1578944999999976,
          "durationTicks": 96,
          "midi": 52,
          "name": "E3",
          "ticks": 19872,
          "time": 32.6841615,
          "velocity": 0.3937007874015748
        },
        {
          "duration": 0.3157890000000023,
          "durationTicks": 192,
          "midi": 36,
          "name": "C2",
          "ticks": 19968,
          "time": 32.842056,
          "velocity": 0.3937007874015748
        },
        {
          "duration": 0.3157889999999952,
          "durationTicks": 192,
          "midi": 36,
          "name": "C2",
          "ticks": 20160,
          "time": 33.157845,
          "velocity": 0.3937007874015748
        },
        {
          "duration": 0.6315780000000046,
          "durationTicks": 384,
          "midi": 52,
          "name": "E3",
          "ticks": 20352,
          "time": 33.473634,
          "velocity": 0.3937007874015748
        },
        {
          "duration": 0.3157889999999952,
          "durationTicks": 192,
          "midi": 36,
          "name": "C2",
          "ticks": 20736,
          "time": 34.105212,
          "velocity": 0.3937007874015748
        },
        {
          "duration": 0.3157890000000023,
          "durationTicks": 192,
          "midi": 36,
          "name": "C2",
          "ticks": 20928,
          "time": 34.421001,
          "velocity": 0.3937007874015748
        },
        {
          "duration": 0.4736834999999999,
          "durationTicks": 288,
          "midi": 52,
          "name": "E3",
          "ticks": 21120,
          "time": 34.73679,
          "velocity": 0.3937007874015748
        },
        {
          "duration": 0.1578944999999976,
          "durationTicks": 96,
          "midi": 52,
          "name": "E3",
          "ticks": 21408,
          "time": 35.2104735,
          "velocity": 0.3937007874015748
        },
        {
          "duration": 0.3157890000000023,
          "durationTicks": 192,
          "midi": 36,
          "name": "C2",
          "ticks": 21504,
          "time": 35.368368,
          "velocity": 0.3937007874015748
        },
        {
          "duration": 0.3157890000000023,
          "durationTicks": 192,
          "midi": 36,
          "name": "C2",
          "ticks": 21696,
          "time": 35.684157,
          "velocity": 0.3937007874015748
        },
        {
          "duration": 0.6315779999999975,
          "durationTicks": 384,
          "midi": 52,
          "name": "E3",
          "ticks": 21888,
          "time": 35.999946,
          "velocity": 0.3937007874015748
        },
        {
          "duration": 0.3157890000000023,
          "durationTicks": 192,
          "midi": 36,
          "name": "C2",
          "ticks": 22272,
          "time": 36.631524,
          "velocity": 0.3937007874015748
        },
        {
          "duration": 0.3157889999999952,
          "durationTicks": 192,
          "midi": 36,
          "name": "C2",
          "ticks": 22464,
          "time": 36.947313,
          "velocity": 0.3937007874015748
        },
        {
          "duration": 0.4736834999999999,
          "durationTicks": 288,
          "midi": 52,
          "name": "E3",
          "ticks": 22656,
          "time": 37.263101999999996,
          "velocity": 0.3937007874015748
        },
        {
          "duration": 0.1578945000000047,
          "durationTicks": 96,
          "midi": 52,
          "name": "E3",
          "ticks": 22944,
          "time": 37.736785499999996,
          "velocity": 0.3937007874015748
        },
        {
          "duration": 0.3157889999999952,
          "durationTicks": 192,
          "midi": 36,
          "name": "C2",
          "ticks": 23040,
          "time": 37.89468,
          "velocity": 0.3937007874015748
        },
        {
          "duration": 0.3157890000000023,
          "durationTicks": 192,
          "midi": 52,
          "name": "E3",
          "ticks": 23232,
          "time": 38.210468999999996,
          "velocity": 0.3937007874015748
        },
        {
          "duration": 0.3157890000000023,
          "durationTicks": 192,
          "midi": 36,
          "name": "C2",
          "ticks": 23232,
          "time": 38.210468999999996,
          "velocity": 0.3937007874015748
        },
        {
          "duration": 0.3157890000000023,
          "durationTicks": 192,
          "midi": 36,
          "name": "C2",
          "ticks": 23424,
          "time": 38.526258,
          "velocity": 0.3937007874015748
        },
        {
          "duration": 0.3157889999999952,
          "durationTicks": 192,
          "midi": 52,
          "name": "E3",
          "ticks": 23616,
          "time": 38.842047,
          "velocity": 0.3937007874015748
        },
        {
          "duration": 0.3157889999999952,
          "durationTicks": 192,
          "midi": 36,
          "name": "C2",
          "ticks": 23616,
          "time": 38.842047,
          "velocity": 0.3937007874015748
        },
        {
          "duration": 0.3157890000000023,
          "durationTicks": 192,
          "midi": 52,
          "name": "E3",
          "ticks": 23808,
          "time": 39.157835999999996,
          "velocity": 0.3937007874015748
        },
        {
          "duration": 0.3157890000000023,
          "durationTicks": 192,
          "midi": 36,
          "name": "C2",
          "ticks": 23808,
          "time": 39.157835999999996,
          "velocity": 0.3937007874015748
        },
        {
          "duration": 0.1578944999999976,
          "durationTicks": 96,
          "midi": 52,
          "name": "E3",
          "ticks": 24000,
          "time": 39.473625,
          "velocity": 0.3937007874015748
        },
        {
          "duration": 0.1578945000000047,
          "durationTicks": 96,
          "midi": 52,
          "name": "E3",
          "ticks": 24096,
          "time": 39.631519499999996,
          "velocity": 0.3937007874015748
        },
        {
          "duration": 0.1578944999999976,
          "durationTicks": 96,
          "midi": 52,
          "name": "E3",
          "ticks": 24192,
          "time": 39.789414,
          "velocity": 0.3937007874015748
        },
        {
          "duration": 0.1578944999999976,
          "durationTicks": 96,
          "midi": 52,
          "name": "E3",
          "ticks": 24288,
          "time": 39.9473085,
          "velocity": 0.3937007874015748
        },
        {
          "duration": 0.3157890000000023,
          "durationTicks": 192,
          "midi": 36,
          "name": "C2",
          "ticks": 24576,
          "time": 40.420992,
          "velocity": 0.3937007874015748
        },
        {
          "duration": 0.3157889999999952,
          "durationTicks": 192,
          "midi": 36,
          "name": "C2",
          "ticks": 24768,
          "time": 40.736781,
          "velocity": 0.3937007874015748
        },
        {
          "duration": 0.6315780000000046,
          "durationTicks": 384,
          "midi": 52,
          "name": "E3",
          "ticks": 24960,
          "time": 41.052569999999996,
          "velocity": 0.3937007874015748
        },
        {
          "duration": 0.3157889999999952,
          "durationTicks": 192,
          "midi": 36,
          "name": "C2",
          "ticks": 25344,
          "time": 41.684148,
          "velocity": 0.3937007874015748
        },
        {
          "duration": 0.3157890000000023,
          "durationTicks": 192,
          "midi": 36,
          "name": "C2",
          "ticks": 25536,
          "time": 41.999936999999996,
          "velocity": 0.3937007874015748
        },
        {
          "duration": 0.4736834999999999,
          "durationTicks": 288,
          "midi": 52,
          "name": "E3",
          "ticks": 25728,
          "time": 42.315726,
          "velocity": 0.3937007874015748
        },
        {
          "duration": 0.1578944999999976,
          "durationTicks": 96,
          "midi": 52,
          "name": "E3",
          "ticks": 26016,
          "time": 42.7894095,
          "velocity": 0.3937007874015748
        },
        {
          "duration": 0.3157890000000023,
          "durationTicks": 192,
          "midi": 36,
          "name": "C2",
          "ticks": 26112,
          "time": 42.947303999999995,
          "velocity": 0.3937007874015748
        },
        {
          "duration": 0.3157890000000023,
          "durationTicks": 192,
          "midi": 36,
          "name": "C2",
          "ticks": 26304,
          "time": 43.263093,
          "velocity": 0.3937007874015748
        },
        {
          "duration": 0.6315779999999975,
          "durationTicks": 384,
          "midi": 52,
          "name": "E3",
          "ticks": 26496,
          "time": 43.578882,
          "velocity": 0.3937007874015748
        },
        {
          "duration": 0.3157890000000023,
          "durationTicks": 192,
          "midi": 36,
          "name": "C2",
          "ticks": 26880,
          "time": 44.21046,
          "velocity": 0.3937007874015748
        },
        {
          "duration": 0.3157889999999952,
          "durationTicks": 192,
          "midi": 36,
          "name": "C2",
          "ticks": 27072,
          "time": 44.526249,
          "velocity": 0.3937007874015748
        },
        {
          "duration": 0.4736834999999999,
          "durationTicks": 288,
          "midi": 52,
          "name": "E3",
          "ticks": 27264,
          "time": 44.842037999999995,
          "velocity": 0.3937007874015748
        },
        {
          "duration": 0.1578945000000047,
          "durationTicks": 96,
          "midi": 52,
          "name": "E3",
          "ticks": 27552,
          "time": 45.315721499999995,
          "velocity": 0.3937007874015748
        },
        {
          "duration": 0.3157889999999952,
          "durationTicks": 192,
          "midi": 36,
          "name": "C2",
          "ticks": 27648,
          "time": 45.473616,
          "velocity": 0.3937007874015748
        },
        {
          "duration": 0.3157890000000023,
          "durationTicks": 192,
          "midi": 36,
          "name": "C2",
          "ticks": 27840,
          "time": 45.789404999999995,
          "velocity": 0.3937007874015748
        },
        {
          "duration": 0.6315779999999975,
          "durationTicks": 384,
          "midi": 52,
          "name": "E3",
          "ticks": 28032,
          "time": 46.105194,
          "velocity": 0.3937007874015748
        },
        {
          "duration": 0.3157890000000023,
          "durationTicks": 192,
          "midi": 36,
          "name": "C2",
          "ticks": 28416,
          "time": 46.736771999999995,
          "velocity": 0.3937007874015748
        },
        {
          "duration": 0.3157890000000023,
          "durationTicks": 192,
          "midi": 36,
          "name": "C2",
          "ticks": 28608,
          "time": 47.052561,
          "velocity": 0.3937007874015748
        },
        {
          "duration": 0.4736834999999999,
          "durationTicks": 288,
          "midi": 52,
          "name": "E3",
          "ticks": 28800,
          "time": 47.36835,
          "velocity": 0.3937007874015748
        },
        {
          "duration": 0.1578944999999976,
          "durationTicks": 96,
          "midi": 52,
          "name": "E3",
          "ticks": 29088,
          "time": 47.8420335,
          "velocity": 0.3937007874015748
        },
        {
          "duration": 0.3157890000000023,
          "durationTicks": 192,
          "midi": 36,
          "name": "C2",
          "ticks": 29184,
          "time": 47.999928,
          "velocity": 0.3937007874015748
        },
        {
          "duration": 0.3157889999999952,
          "durationTicks": 192,
          "midi": 52,
          "name": "E3",
          "ticks": 29376,
          "time": 48.315717,
          "velocity": 0.3937007874015748
        },
        {
          "duration": 0.3157889999999952,
          "durationTicks": 192,
          "midi": 36,
          "name": "C2",
          "ticks": 29376,
          "time": 48.315717,
          "velocity": 0.3937007874015748
        },
        {
          "duration": 0.3157890000000023,
          "durationTicks": 192,
          "midi": 36,
          "name": "C2",
          "ticks": 29568,
          "time": 48.631505999999995,
          "velocity": 0.3937007874015748
        },
        {
          "duration": 0.3157890000000023,
          "durationTicks": 192,
          "midi": 52,
          "name": "E3",
          "ticks": 29760,
          "time": 48.947295,
          "velocity": 0.3937007874015748
        },
        {
          "duration": 0.3157890000000023,
          "durationTicks": 192,
          "midi": 36,
          "name": "C2",
          "ticks": 29760,
          "time": 48.947295,
          "velocity": 0.3937007874015748
        },
        {
          "duration": 0.3157889999999952,
          "durationTicks": 192,
          "midi": 52,
          "name": "E3",
          "ticks": 29952,
          "time": 49.263084,
          "velocity": 0.3937007874015748
        },
        {
          "duration": 0.3157889999999952,
          "durationTicks": 192,
          "midi": 36,
          "name": "C2",
          "ticks": 29952,
          "time": 49.263084,
          "velocity": 0.3937007874015748
        },
        {
          "duration": 0.1578945000000047,
          "durationTicks": 96,
          "midi": 52,
          "name": "E3",
          "ticks": 30144,
          "time": 49.578872999999994,
          "velocity": 0.3937007874015748
        },
        {
          "duration": 0.1578944999999976,
          "durationTicks": 96,
          "midi": 52,
          "name": "E3",
          "ticks": 30240,
          "time": 49.7367675,
          "velocity": 0.3937007874015748
        },
        {
          "duration": 0.1578944999999976,
          "durationTicks": 96,
          "midi": 52,
          "name": "E3",
          "ticks": 30336,
          "time": 49.894662,
          "velocity": 0.3937007874015748
        },
        {
          "duration": 0.1578945000000047,
          "durationTicks": 96,
          "midi": 52,
          "name": "E3",
          "ticks": 30432,
          "time": 50.052556499999994,
          "velocity": 0.3937007874015748
        },
        {
          "duration": 0.3157890000000023,
          "durationTicks": 192,
          "midi": 36,
          "name": "C2",
          "ticks": 36096,
          "time": 59.368331999999995,
          "velocity": 0.3937007874015748
        },
        {
          "duration": 0.3157890000000023,
          "durationTicks": 192,
          "midi": 36,
          "name": "C2",
          "ticks": 36288,
          "time": 59.684121,
          "velocity": 0.3937007874015748
        },
        {
          "duration": 0.6315779999999975,
          "durationTicks": 384,
          "midi": 52,
          "name": "E3",
          "ticks": 36480,
          "time": 59.99991,
          "velocity": 0.3937007874015748
        },
        {
          "duration": 0.3157890000000023,
          "durationTicks": 192,
          "midi": 36,
          "name": "C2",
          "ticks": 36864,
          "time": 60.631488,
          "velocity": 0.3937007874015748
        },
        {
          "duration": 0.3157889999999952,
          "durationTicks": 192,
          "midi": 36,
          "name": "C2",
          "ticks": 37056,
          "time": 60.947277,
          "velocity": 0.3937007874015748
        },
        {
          "duration": 0.3157889999999952,
          "durationTicks": 192,
          "midi": 36,
          "name": "C2",
          "ticks": 37632,
          "time": 61.894644,
          "velocity": 0.3937007874015748
        },
        {
          "duration": 0.3157890000000023,
          "durationTicks": 192,
          "midi": 36,
          "name": "C2",
          "ticks": 37824,
          "time": 62.210432999999995,
          "velocity": 0.3937007874015748
        },
        {
          "duration": 0.3157890000000023,
          "durationTicks": 192,
          "midi": 36,
          "name": "C2",
          "ticks": 38400,
          "time": 63.157799999999995,
          "velocity": 0.3937007874015748
        },
        {
          "duration": 0.3157890000000023,
          "durationTicks": 192,
          "midi": 36,
          "name": "C2",
          "ticks": 38592,
          "time": 63.473589,
          "velocity": 0.3937007874015748
        },
        {
          "duration": 0.3157889999999952,
          "durationTicks": 192,
          "midi": 36,
          "name": "C2",
          "ticks": 39168,
          "time": 64.420956,
          "velocity": 0.3937007874015748
        },
        {
          "duration": 0.3157889999999952,
          "durationTicks": 192,
          "midi": 36,
          "name": "C2",
          "ticks": 39360,
          "time": 64.736745,
          "velocity": 0.3937007874015748
        },
        {
          "duration": 0.3157889999999952,
          "durationTicks": 192,
          "midi": 36,
          "name": "C2",
          "ticks": 39936,
          "time": 65.684112,
          "velocity": 0.3937007874015748
        },
        {
          "duration": 0.3157890000000094,
          "durationTicks": 192,
          "midi": 36,
          "name": "C2",
          "ticks": 40128,
          "time": 65.999901,
          "velocity": 0.3937007874015748
        },
        {
          "duration": 0.3157890000000094,
          "durationTicks": 192,
          "midi": 36,
          "name": "C2",
          "ticks": 40704,
          "time": 66.947268,
          "velocity": 0.3937007874015748
        },
        {
          "duration": 0.3157889999999952,
          "durationTicks": 192,
          "midi": 36,
          "name": "C2",
          "ticks": 40896,
          "time": 67.263057,
          "velocity": 0.3937007874015748
        },
        {
          "duration": 0.6315780000000046,
          "durationTicks": 384,
          "midi": 52,
          "name": "E3",
          "ticks": 41088,
          "time": 67.578846,
          "velocity": 0.3937007874015748
        },
        {
          "duration": 0.3157889999999952,
          "durationTicks": 192,
          "midi": 36,
          "name": "C2",
          "ticks": 41472,
          "time": 68.210424,
          "velocity": 0.3937007874015748
        },
        {
          "duration": 0.3157889999999952,
          "durationTicks": 192,
          "midi": 36,
          "name": "C2",
          "ticks": 41664,
          "time": 68.526213,
          "velocity": 0.3937007874015748
        },
        {
          "duration": 0.3157890000000094,
          "durationTicks": 192,
          "midi": 36,
          "name": "C2",
          "ticks": 41856,
          "time": 68.842002,
          "velocity": 0.3937007874015748
        },
        {
          "duration": 0.3157889999999952,
          "durationTicks": 192,
          "midi": 36,
          "name": "C2",
          "ticks": 42048,
          "time": 69.157791,
          "velocity": 0.3937007874015748
        },
        {
          "duration": 0.3157889999999952,
          "durationTicks": 192,
          "midi": 36,
          "name": "C2",
          "ticks": 42240,
          "time": 69.47358,
          "velocity": 0.3937007874015748
        },
        {
          "duration": 0.3157890000000094,
          "durationTicks": 192,
          "midi": 36,
          "name": "C2",
          "ticks": 42432,
          "time": 69.789369,
          "velocity": 0.3937007874015748
        },
        {
          "duration": 0.6315779999999904,
          "durationTicks": 384,
          "midi": 52,
          "name": "E3",
          "ticks": 42624,
          "time": 70.105158,
          "velocity": 0.3937007874015748
        },
        {
          "duration": 0.3157889999999952,
          "durationTicks": 192,
          "midi": 36,
          "name": "C2",
          "ticks": 48384,
          "time": 79.578828,
          "velocity": 0.3937007874015748
        },
        {
          "duration": 0.3157889999999952,
          "durationTicks": 192,
          "midi": 36,
          "name": "C2",
          "ticks": 48576,
          "time": 79.894617,
          "velocity": 0.3937007874015748
        },
        {
          "duration": 0.6315780000000046,
          "durationTicks": 384,
          "midi": 52,
          "name": "E3",
          "ticks": 48768,
          "time": 80.21040599999999,
          "velocity": 0.3937007874015748
        },
        {
          "duration": 0.3157889999999952,
          "durationTicks": 192,
          "midi": 36,
          "name": "C2",
          "ticks": 49152,
          "time": 80.841984,
          "velocity": 0.3937007874015748
        },
        {
          "duration": 0.3157890000000094,
          "durationTicks": 192,
          "midi": 36,
          "name": "C2",
          "ticks": 49344,
          "time": 81.15777299999999,
          "velocity": 0.3937007874015748
        },
        {
          "duration": 0.6315779999999904,
          "durationTicks": 384,
          "midi": 52,
          "name": "E3",
          "ticks": 49536,
          "time": 81.473562,
          "velocity": 0.3937007874015748
        },
        {
          "duration": 0.3157890000000094,
          "durationTicks": 192,
          "midi": 36,
          "name": "C2",
          "ticks": 49920,
          "time": 82.10513999999999,
          "velocity": 0.3937007874015748
        },
        {
          "duration": 0.3157889999999952,
          "durationTicks": 192,
          "midi": 36,
          "name": "C2",
          "ticks": 50112,
          "time": 82.420929,
          "velocity": 0.3937007874015748
        },
        {
          "duration": 0.47368350000000703,
          "durationTicks": 288,
          "midi": 52,
          "name": "E3",
          "ticks": 50304,
          "time": 82.736718,
          "velocity": 0.3937007874015748
        },
        {
          "duration": 0.1578944999999976,
          "durationTicks": 96,
          "midi": 52,
          "name": "E3",
          "ticks": 50592,
          "time": 83.2104015,
          "velocity": 0.3937007874015748
        },
        {
          "duration": 0.3157889999999952,
          "durationTicks": 192,
          "midi": 36,
          "name": "C2",
          "ticks": 50688,
          "time": 83.368296,
          "velocity": 0.3937007874015748
        },
        {
          "duration": 0.3157889999999952,
          "durationTicks": 192,
          "midi": 36,
          "name": "C2",
          "ticks": 50880,
          "time": 83.684085,
          "velocity": 0.3937007874015748
        },
        {
          "duration": 0.6315780000000046,
          "durationTicks": 384,
          "midi": 52,
          "name": "E3",
          "ticks": 51072,
          "time": 83.99987399999999,
          "velocity": 0.3937007874015748
        },
        {
          "duration": 0.3157889999999952,
          "durationTicks": 192,
          "midi": 36,
          "name": "C2",
          "ticks": 51456,
          "time": 84.631452,
          "velocity": 0.3937007874015748
        },
        {
          "duration": 0.3157890000000094,
          "durationTicks": 192,
          "midi": 36,
          "name": "C2",
          "ticks": 51648,
          "time": 84.94724099999999,
          "velocity": 0.3937007874015748
        },
        {
          "duration": 0.4736834999999928,
          "durationTicks": 288,
          "midi": 52,
          "name": "E3",
          "ticks": 51840,
          "time": 85.26303,
          "velocity": 0.3937007874015748
        },
        {
          "duration": 0.1578944999999976,
          "durationTicks": 96,
          "midi": 52,
          "name": "E3",
          "ticks": 52128,
          "time": 85.7367135,
          "velocity": 0.3937007874015748
        },
        {
          "duration": 0.3157890000000094,
          "durationTicks": 192,
          "midi": 36,
          "name": "C2",
          "ticks": 52224,
          "time": 85.89460799999999,
          "velocity": 0.3937007874015748
        },
        {
          "duration": 0.3157889999999952,
          "durationTicks": 192,
          "midi": 36,
          "name": "C2",
          "ticks": 52416,
          "time": 86.210397,
          "velocity": 0.3937007874015748
        },
        {
          "duration": 0.6315780000000046,
          "durationTicks": 384,
          "midi": 52,
          "name": "E3",
          "ticks": 52608,
          "time": 86.526186,
          "velocity": 0.3937007874015748
        },
        {
          "duration": 0.3157889999999952,
          "durationTicks": 192,
          "midi": 36,
          "name": "C2",
          "ticks": 52992,
          "time": 87.157764,
          "velocity": 0.3937007874015748
        },
        {
          "duration": 0.3157889999999952,
          "durationTicks": 192,
          "midi": 36,
          "name": "C2",
          "ticks": 53184,
          "time": 87.473553,
          "velocity": 0.3937007874015748
        },
        {
          "duration": 0.47368350000000703,
          "durationTicks": 288,
          "midi": 52,
          "name": "E3",
          "ticks": 53376,
          "time": 87.78934199999999,
          "velocity": 0.3937007874015748
        },
        {
          "duration": 0.1578944999999976,
          "durationTicks": 96,
          "midi": 52,
          "name": "E3",
          "ticks": 53664,
          "time": 88.2630255,
          "velocity": 0.3937007874015748
        },
        {
          "duration": 0.3157889999999952,
          "durationTicks": 192,
          "midi": 36,
          "name": "C2",
          "ticks": 53760,
          "time": 88.42092,
          "velocity": 0.3937007874015748
        },
        {
          "duration": 0.3157890000000094,
          "durationTicks": 192,
          "midi": 36,
          "name": "C2",
          "ticks": 53952,
          "time": 88.73670899999999,
          "velocity": 0.3937007874015748
        },
        {
          "duration": 0.6315779999999904,
          "durationTicks": 384,
          "midi": 52,
          "name": "E3",
          "ticks": 54144,
          "time": 89.052498,
          "velocity": 0.3937007874015748
        },
        {
          "duration": 0.3157890000000094,
          "durationTicks": 192,
          "midi": 36,
          "name": "C2",
          "ticks": 54528,
          "time": 89.68407599999999,
          "velocity": 0.3937007874015748
        },
        {
          "duration": 0.3157889999999952,
          "durationTicks": 192,
          "midi": 36,
          "name": "C2",
          "ticks": 54720,
          "time": 89.999865,
          "velocity": 0.3937007874015748
        },
        {
          "duration": 0.47368350000000703,
          "durationTicks": 288,
          "midi": 52,
          "name": "E3",
          "ticks": 54912,
          "time": 90.315654,
          "velocity": 0.3937007874015748
        },
        {
          "duration": 0.1578944999999976,
          "durationTicks": 96,
          "midi": 52,
          "name": "E3",
          "ticks": 55200,
          "time": 90.7893375,
          "velocity": 0.3937007874015748
        },
        {
          "duration": 0.3157889999999952,
          "durationTicks": 192,
          "midi": 36,
          "name": "C2",
          "ticks": 55296,
          "time": 90.947232,
          "velocity": 0.3937007874015748
        },
        {
          "duration": 0.3157889999999952,
          "durationTicks": 192,
          "midi": 36,
          "name": "C2",
          "ticks": 55488,
          "time": 91.263021,
          "velocity": 0.3937007874015748
        },
        {
          "duration": 0.6315780000000046,
          "durationTicks": 384,
          "midi": 52,
          "name": "E3",
          "ticks": 55680,
          "time": 91.57880999999999,
          "velocity": 0.3937007874015748
        },
        {
          "duration": 0.3157889999999952,
          "durationTicks": 192,
          "midi": 36,
          "name": "C2",
          "ticks": 56064,
          "time": 92.210388,
          "velocity": 0.3937007874015748
        },
        {
          "duration": 0.3157890000000094,
          "durationTicks": 192,
          "midi": 36,
          "name": "C2",
          "ticks": 56256,
          "time": 92.52617699999999,
          "velocity": 0.3937007874015748
        },
        {
          "duration": 0.4736834999999928,
          "durationTicks": 288,
          "midi": 52,
          "name": "E3",
          "ticks": 56448,
          "time": 92.841966,
          "velocity": 0.3937007874015748
        },
        {
          "duration": 0.1578944999999976,
          "durationTicks": 96,
          "midi": 52,
          "name": "E3",
          "ticks": 56736,
          "time": 93.31564949999999,
          "velocity": 0.3937007874015748
        },
        {
          "duration": 0.3157890000000094,
          "durationTicks": 192,
          "midi": 36,
          "name": "C2",
          "ticks": 56832,
          "time": 93.47354399999999,
          "velocity": 0.3937007874015748
        },
        {
          "duration": 0.3157889999999952,
          "durationTicks": 192,
          "midi": 36,
          "name": "C2",
          "ticks": 57024,
          "time": 93.789333,
          "velocity": 0.3937007874015748
        },
        {
          "duration": 0.6315780000000046,
          "durationTicks": 384,
          "midi": 52,
          "name": "E3",
          "ticks": 57216,
          "time": 94.105122,
          "velocity": 0.3937007874015748
        },
        {
          "duration": 0.3157889999999952,
          "durationTicks": 192,
          "midi": 36,
          "name": "C2",
          "ticks": 57600,
          "time": 94.7367,
          "velocity": 0.3937007874015748
        },
        {
          "duration": 0.3157889999999952,
          "durationTicks": 192,
          "midi": 36,
          "name": "C2",
          "ticks": 57792,
          "time": 95.052489,
          "velocity": 0.3937007874015748
        },
        {
          "duration": 0.47368350000000703,
          "durationTicks": 288,
          "midi": 52,
          "name": "E3",
          "ticks": 57984,
          "time": 95.36827799999999,
          "velocity": 0.3937007874015748
        },
        {
          "duration": 0.1578944999999976,
          "durationTicks": 96,
          "midi": 52,
          "name": "E3",
          "ticks": 58272,
          "time": 95.8419615,
          "velocity": 0.3937007874015748
        },
        {
          "duration": 0.3157889999999952,
          "durationTicks": 192,
          "midi": 36,
          "name": "C2",
          "ticks": 58368,
          "time": 95.999856,
          "velocity": 0.3937007874015748
        },
        {
          "duration": 0.3157890000000094,
          "durationTicks": 192,
          "midi": 36,
          "name": "C2",
          "ticks": 58560,
          "time": 96.31564499999999,
          "velocity": 0.3937007874015748
        },
        {
          "duration": 0.6315779999999904,
          "durationTicks": 384,
          "midi": 52,
          "name": "E3",
          "ticks": 58752,
          "time": 96.631434,
          "velocity": 0.3937007874015748
        },
        {
          "duration": 0.3157890000000094,
          "durationTicks": 192,
          "midi": 36,
          "name": "C2",
          "ticks": 59136,
          "time": 97.26301199999999,
          "velocity": 0.3937007874015748
        },
        {
          "duration": 0.3157889999999952,
          "durationTicks": 192,
          "midi": 36,
          "name": "C2",
          "ticks": 59328,
          "time": 97.578801,
          "velocity": 0.3937007874015748
        },
        {
          "duration": 0.47368350000000703,
          "durationTicks": 288,
          "midi": 52,
          "name": "E3",
          "ticks": 59520,
          "time": 97.89459,
          "velocity": 0.3937007874015748
        },
        {
          "duration": 0.1578944999999976,
          "durationTicks": 96,
          "midi": 52,
          "name": "E3",
          "ticks": 59808,
          "time": 98.3682735,
          "velocity": 0.3937007874015748
        },
        {
          "duration": 0.3157889999999952,
          "durationTicks": 192,
          "midi": 36,
          "name": "C2",
          "ticks": 59904,
          "time": 98.526168,
          "velocity": 0.3937007874015748
        },
        {
          "duration": 0.3157889999999952,
          "durationTicks": 192,
          "midi": 36,
          "name": "C2",
          "ticks": 60096,
          "time": 98.841957,
          "velocity": 0.3937007874015748
        },
        {
          "duration": 0.6315780000000046,
          "durationTicks": 384,
          "midi": 52,
          "name": "E3",
          "ticks": 60288,
          "time": 99.15774599999999,
          "velocity": 0.3937007874015748
        },
        {
          "duration": 0.3157889999999952,
          "durationTicks": 192,
          "midi": 36,
          "name": "C2",
          "ticks": 60672,
          "time": 99.789324,
          "velocity": 0.3937007874015748
        },
        {
          "duration": 0.3157890000000094,
          "durationTicks": 192,
          "midi": 36,
          "name": "C2",
          "ticks": 60864,
          "time": 100.10511299999999,
          "velocity": 0.3937007874015748
        },
        {
          "duration": 0.4736834999999928,
          "durationTicks": 288,
          "midi": 52,
          "name": "E3",
          "ticks": 61056,
          "time": 100.420902,
          "velocity": 0.3937007874015748
        },
        {
          "duration": 0.15789450000001182,
          "durationTicks": 96,
          "midi": 52,
          "name": "E3",
          "ticks": 61344,
          "time": 100.89458549999999,
          "velocity": 0.3937007874015748
        },
        {
          "duration": 0.1578944999999976,
          "durationTicks": 96,
          "midi": 52,
          "name": "E3",
          "ticks": 61440,
          "time": 101.05248,
          "velocity": 0.3937007874015748
        },
        {
          "duration": 0.3157889999999952,
          "durationTicks": 192,
          "midi": 36,
          "name": "C2",
          "ticks": 75264,
          "time": 123.789288,
          "velocity": 0.3937007874015748
        },
        {
          "duration": 0.3157889999999952,
          "durationTicks": 192,
          "midi": 36,
          "name": "C2",
          "ticks": 75456,
          "time": 124.105077,
          "velocity": 0.3937007874015748
        },
        {
          "duration": 0.6315780000000046,
          "durationTicks": 384,
          "midi": 52,
          "name": "E3",
          "ticks": 75648,
          "time": 124.42086599999999,
          "velocity": 0.3937007874015748
        },
        {
          "duration": 0.3157889999999952,
          "durationTicks": 192,
          "midi": 36,
          "name": "C2",
          "ticks": 76032,
          "time": 125.052444,
          "velocity": 0.3937007874015748
        },
        {
          "duration": 0.3157890000000094,
          "durationTicks": 192,
          "midi": 36,
          "name": "C2",
          "ticks": 76224,
          "time": 125.36823299999999,
          "velocity": 0.3937007874015748
        },
        {
          "duration": 0.4736834999999928,
          "durationTicks": 288,
          "midi": 52,
          "name": "E3",
          "ticks": 76416,
          "time": 125.684022,
          "velocity": 0.3937007874015748
        },
        {
          "duration": 0.1578944999999976,
          "durationTicks": 96,
          "midi": 52,
          "name": "E3",
          "ticks": 76704,
          "time": 126.15770549999999,
          "velocity": 0.3937007874015748
        },
        {
          "duration": 0.3157890000000094,
          "durationTicks": 192,
          "midi": 36,
          "name": "C2",
          "ticks": 76800,
          "time": 126.31559999999999,
          "velocity": 0.3937007874015748
        },
        {
          "duration": 0.3157889999999952,
          "durationTicks": 192,
          "midi": 36,
          "name": "C2",
          "ticks": 76992,
          "time": 126.631389,
          "velocity": 0.3937007874015748
        },
        {
          "duration": 0.6315780000000046,
          "durationTicks": 384,
          "midi": 52,
          "name": "E3",
          "ticks": 77184,
          "time": 126.947178,
          "velocity": 0.3937007874015748
        },
        {
          "duration": 0.3157889999999952,
          "durationTicks": 192,
          "midi": 36,
          "name": "C2",
          "ticks": 77568,
          "time": 127.578756,
          "velocity": 0.3937007874015748
        },
        {
          "duration": 0.3157889999999952,
          "durationTicks": 192,
          "midi": 36,
          "name": "C2",
          "ticks": 77760,
          "time": 127.894545,
          "velocity": 0.3937007874015748
        },
        {
          "duration": 0.4736834999999928,
          "durationTicks": 288,
          "midi": 52,
          "name": "E3",
          "ticks": 77952,
          "time": 128.210334,
          "velocity": 0.3937007874015748
        },
        {
          "duration": 0.15789450000002603,
          "durationTicks": 96,
          "midi": 52,
          "name": "E3",
          "ticks": 78240,
          "time": 128.68401749999998,
          "velocity": 0.3937007874015748
        },
        {
          "duration": 0.3157889999999952,
          "durationTicks": 192,
          "midi": 36,
          "name": "C2",
          "ticks": 78336,
          "time": 128.841912,
          "velocity": 0.3937007874015748
        },
        {
          "duration": 0.3157889999999952,
          "durationTicks": 192,
          "midi": 36,
          "name": "C2",
          "ticks": 78528,
          "time": 129.157701,
          "velocity": 0.3937007874015748
        },
        {
          "duration": 0.6315779999999904,
          "durationTicks": 384,
          "midi": 52,
          "name": "E3",
          "ticks": 78720,
          "time": 129.47349,
          "velocity": 0.3937007874015748
        },
        {
          "duration": 0.3157889999999952,
          "durationTicks": 192,
          "midi": 36,
          "name": "C2",
          "ticks": 79104,
          "time": 130.105068,
          "velocity": 0.3937007874015748
        },
        {
          "duration": 0.31578900000002363,
          "durationTicks": 192,
          "midi": 36,
          "name": "C2",
          "ticks": 79296,
          "time": 130.42085699999998,
          "velocity": 0.3937007874015748
        },
        {
          "duration": 0.4736834999999928,
          "durationTicks": 288,
          "midi": 52,
          "name": "E3",
          "ticks": 79488,
          "time": 130.736646,
          "velocity": 0.3937007874015748
        },
        {
          "duration": 0.1578944999999976,
          "durationTicks": 96,
          "midi": 52,
          "name": "E3",
          "ticks": 79776,
          "time": 131.2103295,
          "velocity": 0.3937007874015748
        },
        {
          "duration": 0.3157889999999952,
          "durationTicks": 192,
          "midi": 36,
          "name": "C2",
          "ticks": 79872,
          "time": 131.368224,
          "velocity": 0.3937007874015748
        },
        {
          "duration": 0.3157889999999952,
          "durationTicks": 192,
          "midi": 36,
          "name": "C2",
          "ticks": 80064,
          "time": 131.684013,
          "velocity": 0.3937007874015748
        },
        {
          "duration": 0.6315780000000188,
          "durationTicks": 384,
          "midi": 52,
          "name": "E3",
          "ticks": 80256,
          "time": 131.999802,
          "velocity": 0.3937007874015748
        },
        {
          "duration": 0.3157889999999952,
          "durationTicks": 192,
          "midi": 36,
          "name": "C2",
          "ticks": 80640,
          "time": 132.63138,
          "velocity": 0.3937007874015748
        },
        {
          "duration": 0.3157889999999952,
          "durationTicks": 192,
          "midi": 36,
          "name": "C2",
          "ticks": 80832,
          "time": 132.947169,
          "velocity": 0.3937007874015748
        },
        {
          "duration": 0.4736834999999928,
          "durationTicks": 288,
          "midi": 52,
          "name": "E3",
          "ticks": 81024,
          "time": 133.262958,
          "velocity": 0.3937007874015748
        },
        {
          "duration": 0.1578944999999976,
          "durationTicks": 96,
          "midi": 52,
          "name": "E3",
          "ticks": 81312,
          "time": 133.7366415,
          "velocity": 0.3937007874015748
        },
        {
          "duration": 0.3157889999999952,
          "durationTicks": 192,
          "midi": 36,
          "name": "C2",
          "ticks": 81408,
          "time": 133.894536,
          "velocity": 0.3937007874015748
        },
        {
          "duration": 0.31578900000002363,
          "durationTicks": 192,
          "midi": 36,
          "name": "C2",
          "ticks": 81600,
          "time": 134.21032499999998,
          "velocity": 0.3937007874015748
        },
        {
          "duration": 0.6315779999999904,
          "durationTicks": 384,
          "midi": 52,
          "name": "E3",
          "ticks": 81792,
          "time": 134.526114,
          "velocity": 0.3937007874015748
        },
        {
          "duration": 0.3157889999999952,
          "durationTicks": 192,
          "midi": 36,
          "name": "C2",
          "ticks": 82176,
          "time": 135.157692,
          "velocity": 0.3937007874015748
        },
        {
          "duration": 0.3157889999999952,
          "durationTicks": 192,
          "midi": 36,
          "name": "C2",
          "ticks": 82368,
          "time": 135.473481,
          "velocity": 0.3937007874015748
        },
        {
          "duration": 0.4736834999999928,
          "durationTicks": 288,
          "midi": 52,
          "name": "E3",
          "ticks": 82560,
          "time": 135.78927,
          "velocity": 0.3937007874015748
        },
        {
          "duration": 0.15789450000002603,
          "durationTicks": 96,
          "midi": 52,
          "name": "E3",
          "ticks": 82848,
          "time": 136.26295349999998,
          "velocity": 0.3937007874015748
        },
        {
          "duration": 0.3157889999999952,
          "durationTicks": 192,
          "midi": 36,
          "name": "C2",
          "ticks": 82944,
          "time": 136.420848,
          "velocity": 0.3937007874015748
        },
        {
          "duration": 0.3157889999999952,
          "durationTicks": 192,
          "midi": 36,
          "name": "C2",
          "ticks": 83136,
          "time": 136.736637,
          "velocity": 0.3937007874015748
        },
        {
          "duration": 0.6315779999999904,
          "durationTicks": 384,
          "midi": 52,
          "name": "E3",
          "ticks": 83328,
          "time": 137.052426,
          "velocity": 0.3937007874015748
        },
        {
          "duration": 0.3157889999999952,
          "durationTicks": 192,
          "midi": 36,
          "name": "C2",
          "ticks": 83712,
          "time": 137.684004,
          "velocity": 0.3937007874015748
        },
        {
          "duration": 0.31578900000002363,
          "durationTicks": 192,
          "midi": 36,
          "name": "C2",
          "ticks": 83904,
          "time": 137.99979299999998,
          "velocity": 0.3937007874015748
        },
        {
          "duration": 0.4736834999999928,
          "durationTicks": 288,
          "midi": 52,
          "name": "E3",
          "ticks": 84096,
          "time": 138.315582,
          "velocity": 0.3937007874015748
        },
        {
          "duration": 0.1578944999999976,
          "durationTicks": 96,
          "midi": 52,
          "name": "E3",
          "ticks": 84384,
          "time": 138.7892655,
          "velocity": 0.3937007874015748
        },
        {
          "duration": 0.3157889999999952,
          "durationTicks": 192,
          "midi": 36,
          "name": "C2",
          "ticks": 84480,
          "time": 138.94716,
          "velocity": 0.3937007874015748
        },
        {
          "duration": 0.3157889999999952,
          "durationTicks": 192,
          "midi": 36,
          "name": "C2",
          "ticks": 84672,
          "time": 139.262949,
          "velocity": 0.3937007874015748
        },
        {
          "duration": 0.6315780000000188,
          "durationTicks": 384,
          "midi": 52,
          "name": "E3",
          "ticks": 84864,
          "time": 139.578738,
          "velocity": 0.3937007874015748
        },
        {
          "duration": 0.3157889999999952,
          "durationTicks": 192,
          "midi": 36,
          "name": "C2",
          "ticks": 85248,
          "time": 140.210316,
          "velocity": 0.3937007874015748
        },
        {
          "duration": 0.3157889999999952,
          "durationTicks": 192,
          "midi": 36,
          "name": "C2",
          "ticks": 85440,
          "time": 140.526105,
          "velocity": 0.3937007874015748
        },
        {
          "duration": 0.4736834999999928,
          "durationTicks": 288,
          "midi": 52,
          "name": "E3",
          "ticks": 85632,
          "time": 140.841894,
          "velocity": 0.3937007874015748
        },
        {
          "duration": 0.1578944999999976,
          "durationTicks": 96,
          "midi": 52,
          "name": "E3",
          "ticks": 85920,
          "time": 141.3155775,
          "velocity": 0.3937007874015748
        },
        {
          "duration": 0.3157889999999952,
          "durationTicks": 192,
          "midi": 36,
          "name": "C2",
          "ticks": 86016,
          "time": 141.473472,
          "velocity": 0.3937007874015748
        },
        {
          "duration": 0.31578900000002363,
          "durationTicks": 192,
          "midi": 52,
          "name": "E3",
          "ticks": 86208,
          "time": 141.78926099999998,
          "velocity": 0.3937007874015748
        },
        {
          "duration": 0.31578900000002363,
          "durationTicks": 192,
          "midi": 36,
          "name": "C2",
          "ticks": 86208,
          "time": 141.78926099999998,
          "velocity": 0.3937007874015748
        },
        {
          "duration": 0.3157889999999952,
          "durationTicks": 192,
          "midi": 36,
          "name": "C2",
          "ticks": 86400,
          "time": 142.10505,
          "velocity": 0.3937007874015748
        },
        {
          "duration": 0.3157889999999952,
          "durationTicks": 192,
          "midi": 52,
          "name": "E3",
          "ticks": 86592,
          "time": 142.420839,
          "velocity": 0.3937007874015748
        },
        {
          "duration": 0.3157889999999952,
          "durationTicks": 192,
          "midi": 36,
          "name": "C2",
          "ticks": 86592,
          "time": 142.420839,
          "velocity": 0.3937007874015748
        },
        {
          "duration": 0.3157889999999952,
          "durationTicks": 192,
          "midi": 52,
          "name": "E3",
          "ticks": 86784,
          "time": 142.736628,
          "velocity": 0.3937007874015748
        },
        {
          "duration": 0.3157889999999952,
          "durationTicks": 192,
          "midi": 36,
          "name": "C2",
          "ticks": 86784,
          "time": 142.736628,
          "velocity": 0.3937007874015748
        },
        {
          "duration": 0.1578944999999976,
          "durationTicks": 96,
          "midi": 52,
          "name": "E3",
          "ticks": 86976,
          "time": 143.052417,
          "velocity": 0.3937007874015748
        },
        {
          "duration": 0.1578944999999976,
          "durationTicks": 96,
          "midi": 52,
          "name": "E3",
          "ticks": 87072,
          "time": 143.2103115,
          "velocity": 0.3937007874015748
        },
        {
          "duration": 0.1578944999999976,
          "durationTicks": 96,
          "midi": 52,
          "name": "E3",
          "ticks": 87168,
          "time": 143.368206,
          "velocity": 0.3937007874015748
        },
        {
          "duration": 0.1578944999999976,
          "durationTicks": 96,
          "midi": 52,
          "name": "E3",
          "ticks": 87264,
          "time": 143.52610049999998,
          "velocity": 0.3937007874015748
        },
        {
          "duration": 0.3157889999999952,
          "durationTicks": 192,
          "midi": 36,
          "name": "C2",
          "ticks": 87552,
          "time": 143.999784,
          "velocity": 0.3937007874015748
        },
        {
          "duration": 0.3157889999999952,
          "durationTicks": 192,
          "midi": 36,
          "name": "C2",
          "ticks": 87744,
          "time": 144.315573,
          "velocity": 0.3937007874015748
        },
        {
          "duration": 0.6315779999999904,
          "durationTicks": 384,
          "midi": 52,
          "name": "E3",
          "ticks": 87936,
          "time": 144.631362,
          "velocity": 0.3937007874015748
        },
        {
          "duration": 0.3157889999999952,
          "durationTicks": 192,
          "midi": 36,
          "name": "C2",
          "ticks": 88320,
          "time": 145.26294,
          "velocity": 0.3937007874015748
        },
        {
          "duration": 0.31578900000002363,
          "durationTicks": 192,
          "midi": 36,
          "name": "C2",
          "ticks": 88512,
          "time": 145.57872899999998,
          "velocity": 0.3937007874015748
        },
        {
          "duration": 0.4736834999999928,
          "durationTicks": 288,
          "midi": 52,
          "name": "E3",
          "ticks": 88704,
          "time": 145.894518,
          "velocity": 0.3937007874015748
        },
        {
          "duration": 0.1578944999999976,
          "durationTicks": 96,
          "midi": 52,
          "name": "E3",
          "ticks": 88992,
          "time": 146.3682015,
          "velocity": 0.3937007874015748
        },
        {
          "duration": 0.3157889999999952,
          "durationTicks": 192,
          "midi": 36,
          "name": "C2",
          "ticks": 89088,
          "time": 146.526096,
          "velocity": 0.3937007874015748
        },
        {
          "duration": 0.3157889999999952,
          "durationTicks": 192,
          "midi": 36,
          "name": "C2",
          "ticks": 89280,
          "time": 146.841885,
          "velocity": 0.3937007874015748
        },
        {
          "duration": 0.6315780000000188,
          "durationTicks": 384,
          "midi": 52,
          "name": "E3",
          "ticks": 89472,
          "time": 147.157674,
          "velocity": 0.3937007874015748
        },
        {
          "duration": 0.3157889999999952,
          "durationTicks": 192,
          "midi": 36,
          "name": "C2",
          "ticks": 89856,
          "time": 147.789252,
          "velocity": 0.3937007874015748
        },
        {
          "duration": 0.3157889999999952,
          "durationTicks": 192,
          "midi": 36,
          "name": "C2",
          "ticks": 90048,
          "time": 148.105041,
          "velocity": 0.3937007874015748
        },
        {
          "duration": 0.4736834999999928,
          "durationTicks": 288,
          "midi": 52,
          "name": "E3",
          "ticks": 90240,
          "time": 148.42083,
          "velocity": 0.3937007874015748
        },
        {
          "duration": 0.1578944999999976,
          "durationTicks": 96,
          "midi": 52,
          "name": "E3",
          "ticks": 90528,
          "time": 148.8945135,
          "velocity": 0.3937007874015748
        },
        {
          "duration": 0.3157889999999952,
          "durationTicks": 192,
          "midi": 36,
          "name": "C2",
          "ticks": 90624,
          "time": 149.05240799999999,
          "velocity": 0.3937007874015748
        },
        {
          "duration": 0.31578900000002363,
          "durationTicks": 192,
          "midi": 36,
          "name": "C2",
          "ticks": 90816,
          "time": 149.36819699999998,
          "velocity": 0.3937007874015748
        },
        {
          "duration": 0.6315779999999904,
          "durationTicks": 384,
          "midi": 52,
          "name": "E3",
          "ticks": 91008,
          "time": 149.683986,
          "velocity": 0.3937007874015748
        },
        {
          "duration": 0.3157889999999952,
          "durationTicks": 192,
          "midi": 36,
          "name": "C2",
          "ticks": 91392,
          "time": 150.315564,
          "velocity": 0.3937007874015748
        },
        {
          "duration": 0.3157889999999952,
          "durationTicks": 192,
          "midi": 36,
          "name": "C2",
          "ticks": 91584,
          "time": 150.631353,
          "velocity": 0.3937007874015748
        },
        {
          "duration": 0.47368350000002124,
          "durationTicks": 288,
          "midi": 52,
          "name": "E3",
          "ticks": 91776,
          "time": 150.94714199999999,
          "velocity": 0.3937007874015748
        },
        {
          "duration": 0.1578944999999976,
          "durationTicks": 96,
          "midi": 52,
          "name": "E3",
          "ticks": 92064,
          "time": 151.4208255,
          "velocity": 0.3937007874015748
        },
        {
          "duration": 0.3157889999999952,
          "durationTicks": 192,
          "midi": 36,
          "name": "C2",
          "ticks": 92160,
          "time": 151.57872,
          "velocity": 0.3937007874015748
        },
        {
          "duration": 0.3157889999999952,
          "durationTicks": 192,
          "midi": 52,
          "name": "E3",
          "ticks": 92352,
          "time": 151.894509,
          "velocity": 0.3937007874015748
        },
        {
          "duration": 0.3157889999999952,
          "durationTicks": 192,
          "midi": 36,
          "name": "C2",
          "ticks": 92352,
          "time": 151.894509,
          "velocity": 0.3937007874015748
        },
        {
          "duration": 0.3157889999999952,
          "durationTicks": 192,
          "midi": 36,
          "name": "C2",
          "ticks": 92544,
          "time": 152.210298,
          "velocity": 0.3937007874015748
        },
        {
          "duration": 0.3157889999999952,
          "durationTicks": 192,
          "midi": 52,
          "name": "E3",
          "ticks": 92736,
          "time": 152.526087,
          "velocity": 0.3937007874015748
        },
        {
          "duration": 0.3157889999999952,
          "durationTicks": 192,
          "midi": 36,
          "name": "C2",
          "ticks": 92736,
          "time": 152.526087,
          "velocity": 0.3937007874015748
        },
        {
          "duration": 0.3157889999999952,
          "durationTicks": 192,
          "midi": 52,
          "name": "E3",
          "ticks": 92928,
          "time": 152.84187599999998,
          "velocity": 0.3937007874015748
        },
        {
          "duration": 0.3157889999999952,
          "durationTicks": 192,
          "midi": 36,
          "name": "C2",
          "ticks": 92928,
          "time": 152.84187599999998,
          "velocity": 0.3937007874015748
        },
        {
          "duration": 0.15789450000002603,
          "durationTicks": 96,
          "midi": 52,
          "name": "E3",
          "ticks": 93120,
          "time": 153.15766499999998,
          "velocity": 0.3937007874015748
        },
        {
          "duration": 0.1578944999999976,
          "durationTicks": 96,
          "midi": 52,
          "name": "E3",
          "ticks": 93216,
          "time": 153.3155595,
          "velocity": 0.3937007874015748
        },
        {
          "duration": 0.1578944999999976,
          "durationTicks": 96,
          "midi": 52,
          "name": "E3",
          "ticks": 93312,
          "time": 153.473454,
          "velocity": 0.3937007874015748
        },
        {
          "duration": 0.1578944999999976,
          "durationTicks": 96,
          "midi": 52,
          "name": "E3",
          "ticks": 93408,
          "time": 153.6313485,
          "velocity": 0.3937007874015748
        },
        {
          "duration": 0.3157889999999952,
          "durationTicks": 192,
          "midi": 36,
          "name": "C2",
          "ticks": 93696,
          "time": 154.105032,
          "velocity": 0.3937007874015748
        },
        {
          "duration": 0.3157889999999952,
          "durationTicks": 192,
          "midi": 36,
          "name": "C2",
          "ticks": 93888,
          "time": 154.420821,
          "velocity": 0.3937007874015748
        },
        {
          "duration": 0.6315780000000188,
          "durationTicks": 384,
          "midi": 52,
          "name": "E3",
          "ticks": 94080,
          "time": 154.73660999999998,
          "velocity": 0.3937007874015748
        },
        {
          "duration": 0.3157889999999952,
          "durationTicks": 192,
          "midi": 36,
          "name": "C2",
          "ticks": 94464,
          "time": 155.368188,
          "velocity": 0.3937007874015748
        },
        {
          "duration": 0.3157889999999952,
          "durationTicks": 192,
          "midi": 36,
          "name": "C2",
          "ticks": 94656,
          "time": 155.683977,
          "velocity": 0.3937007874015748
        },
        {
          "duration": 0.4736834999999928,
          "durationTicks": 288,
          "midi": 52,
          "name": "E3",
          "ticks": 94848,
          "time": 155.999766,
          "velocity": 0.3937007874015748
        },
        {
          "duration": 0.1578944999999976,
          "durationTicks": 96,
          "midi": 52,
          "name": "E3",
          "ticks": 95136,
          "time": 156.4734495,
          "velocity": 0.3937007874015748
        },
        {
          "duration": 0.3157889999999952,
          "durationTicks": 192,
          "midi": 36,
          "name": "C2",
          "ticks": 95232,
          "time": 156.63134399999998,
          "velocity": 0.3937007874015748
        },
        {
          "duration": 0.31578900000002363,
          "durationTicks": 192,
          "midi": 36,
          "name": "C2",
          "ticks": 95424,
          "time": 156.94713299999998,
          "velocity": 0.3937007874015748
        },
        {
          "duration": 0.6315779999999904,
          "durationTicks": 384,
          "midi": 52,
          "name": "E3",
          "ticks": 95616,
          "time": 157.262922,
          "velocity": 0.3937007874015748
        },
        {
          "duration": 0.3157889999999952,
          "durationTicks": 192,
          "midi": 36,
          "name": "C2",
          "ticks": 96000,
          "time": 157.8945,
          "velocity": 0.3937007874015748
        },
        {
          "duration": 0.3157889999999952,
          "durationTicks": 192,
          "midi": 36,
          "name": "C2",
          "ticks": 96192,
          "time": 158.210289,
          "velocity": 0.3937007874015748
        },
        {
          "duration": 0.47368350000002124,
          "durationTicks": 288,
          "midi": 52,
          "name": "E3",
          "ticks": 96384,
          "time": 158.52607799999998,
          "velocity": 0.3937007874015748
        },
        {
          "duration": 0.1578944999999976,
          "durationTicks": 96,
          "midi": 52,
          "name": "E3",
          "ticks": 96672,
          "time": 158.9997615,
          "velocity": 0.3937007874015748
        },
        {
          "duration": 0.3157889999999952,
          "durationTicks": 192,
          "midi": 36,
          "name": "C2",
          "ticks": 96768,
          "time": 159.157656,
          "velocity": 0.3937007874015748
        },
        {
          "duration": 0.3157889999999952,
          "durationTicks": 192,
          "midi": 36,
          "name": "C2",
          "ticks": 96960,
          "time": 159.473445,
          "velocity": 0.3937007874015748
        },
        {
          "duration": 0.6315779999999904,
          "durationTicks": 384,
          "midi": 52,
          "name": "E3",
          "ticks": 97152,
          "time": 159.789234,
          "velocity": 0.3937007874015748
        },
        {
          "duration": 0.3157889999999952,
          "durationTicks": 192,
          "midi": 36,
          "name": "C2",
          "ticks": 97536,
          "time": 160.42081199999998,
          "velocity": 0.3937007874015748
        },
        {
          "duration": 0.31578900000002363,
          "durationTicks": 192,
          "midi": 36,
          "name": "C2",
          "ticks": 97728,
          "time": 160.73660099999998,
          "velocity": 0.3937007874015748
        },
        {
          "duration": 0.4736834999999928,
          "durationTicks": 288,
          "midi": 52,
          "name": "E3",
          "ticks": 97920,
          "time": 161.05239,
          "velocity": 0.3937007874015748
        },
        {
          "duration": 0.1578944999999976,
          "durationTicks": 96,
          "midi": 52,
          "name": "E3",
          "ticks": 98208,
          "time": 161.5260735,
          "velocity": 0.3937007874015748
        },
        {
          "duration": 0.3157889999999952,
          "durationTicks": 192,
          "midi": 36,
          "name": "C2",
          "ticks": 98304,
          "time": 161.683968,
          "velocity": 0.3937007874015748
        },
        {
          "duration": 0.3157889999999952,
          "durationTicks": 192,
          "midi": 52,
          "name": "E3",
          "ticks": 98496,
          "time": 161.999757,
          "velocity": 0.3937007874015748
        },
        {
          "duration": 0.3157889999999952,
          "durationTicks": 192,
          "midi": 36,
          "name": "C2",
          "ticks": 98496,
          "time": 161.999757,
          "velocity": 0.3937007874015748
        },
        {
          "duration": 0.31578900000002363,
          "durationTicks": 192,
          "midi": 36,
          "name": "C2",
          "ticks": 98688,
          "time": 162.31554599999998,
          "velocity": 0.3937007874015748
        },
        {
          "duration": 0.3157889999999952,
          "durationTicks": 192,
          "midi": 52,
          "name": "E3",
          "ticks": 98880,
          "time": 162.631335,
          "velocity": 0.3937007874015748
        },
        {
          "duration": 0.3157889999999952,
          "durationTicks": 192,
          "midi": 36,
          "name": "C2",
          "ticks": 98880,
          "time": 162.631335,
          "velocity": 0.3937007874015748
        },
        {
          "duration": 0.3157889999999952,
          "durationTicks": 192,
          "midi": 52,
          "name": "E3",
          "ticks": 99072,
          "time": 162.947124,
          "velocity": 0.3937007874015748
        },
        {
          "duration": 0.3157889999999952,
          "durationTicks": 192,
          "midi": 36,
          "name": "C2",
          "ticks": 99072,
          "time": 162.947124,
          "velocity": 0.3937007874015748
        },
        {
          "duration": 0.1578944999999976,
          "durationTicks": 96,
          "midi": 52,
          "name": "E3",
          "ticks": 99264,
          "time": 163.262913,
          "velocity": 0.3937007874015748
        },
        {
          "duration": 0.1578944999999976,
          "durationTicks": 96,
          "midi": 52,
          "name": "E3",
          "ticks": 99360,
          "time": 163.4208075,
          "velocity": 0.3937007874015748
        },
        {
          "duration": 0.1578944999999976,
          "durationTicks": 96,
          "midi": 52,
          "name": "E3",
          "ticks": 99456,
          "time": 163.578702,
          "velocity": 0.3937007874015748
        },
        {
          "duration": 0.1578944999999976,
          "durationTicks": 96,
          "midi": 52,
          "name": "E3",
          "ticks": 99552,
          "time": 163.7365965,
          "velocity": 0.3937007874015748
        },
        {
          "duration": 0.3157889999999952,
          "durationTicks": 192,
          "midi": 36,
          "name": "C2",
          "ticks": 105216,
          "time": 173.052372,
          "velocity": 0.3937007874015748
        },
        {
          "duration": 0.3157889999999952,
          "durationTicks": 192,
          "midi": 36,
          "name": "C2",
          "ticks": 105408,
          "time": 173.368161,
          "velocity": 0.3937007874015748
        },
        {
          "duration": 0.6315780000000188,
          "durationTicks": 384,
          "midi": 52,
          "name": "E3",
          "ticks": 105600,
          "time": 173.68394999999998,
          "velocity": 0.3937007874015748
        },
        {
          "duration": 0.3157889999999952,
          "durationTicks": 192,
          "midi": 36,
          "name": "C2",
          "ticks": 105984,
          "time": 174.315528,
          "velocity": 0.3937007874015748
        },
        {
          "duration": 0.3157889999999952,
          "durationTicks": 192,
          "midi": 36,
          "name": "C2",
          "ticks": 106176,
          "time": 174.631317,
          "velocity": 0.3937007874015748
        },
        {
          "duration": 0.31578900000002363,
          "durationTicks": 192,
          "midi": 36,
          "name": "C2",
          "ticks": 106752,
          "time": 175.57868399999998,
          "velocity": 0.3937007874015748
        },
        {
          "duration": 0.3157889999999952,
          "durationTicks": 192,
          "midi": 36,
          "name": "C2",
          "ticks": 106944,
          "time": 175.894473,
          "velocity": 0.3937007874015748
        },
        {
          "duration": 0.3157889999999952,
          "durationTicks": 192,
          "midi": 36,
          "name": "C2",
          "ticks": 107520,
          "time": 176.84184,
          "velocity": 0.3937007874015748
        },
        {
          "duration": 0.3157889999999952,
          "durationTicks": 192,
          "midi": 36,
          "name": "C2",
          "ticks": 107712,
          "time": 177.157629,
          "velocity": 0.3937007874015748
        },
        {
          "duration": 0.3157889999999952,
          "durationTicks": 192,
          "midi": 36,
          "name": "C2",
          "ticks": 108288,
          "time": 178.104996,
          "velocity": 0.3937007874015748
        },
        {
          "duration": 0.3157889999999952,
          "durationTicks": 192,
          "midi": 36,
          "name": "C2",
          "ticks": 108480,
          "time": 178.420785,
          "velocity": 0.3937007874015748
        },
        {
          "duration": 0.31578900000002363,
          "durationTicks": 192,
          "midi": 36,
          "name": "C2",
          "ticks": 109056,
          "time": 179.36815199999998,
          "velocity": 0.3937007874015748
        },
        {
          "duration": 0.3157889999999952,
          "durationTicks": 192,
          "midi": 36,
          "name": "C2",
          "ticks": 109248,
          "time": 179.683941,
          "velocity": 0.3937007874015748
        },
        {
          "duration": 0.3157889999999952,
          "durationTicks": 192,
          "midi": 36,
          "name": "C2",
          "ticks": 109824,
          "time": 180.631308,
          "velocity": 0.3937007874015748
        },
        {
          "duration": 0.3157889999999952,
          "durationTicks": 192,
          "midi": 36,
          "name": "C2",
          "ticks": 110016,
          "time": 180.94709699999999,
          "velocity": 0.3937007874015748
        },
        {
          "duration": 0.6315780000000188,
          "durationTicks": 384,
          "midi": 52,
          "name": "E3",
          "ticks": 110208,
          "time": 181.26288599999998,
          "velocity": 0.3937007874015748
        },
        {
          "duration": 0.3157889999999952,
          "durationTicks": 192,
          "midi": 36,
          "name": "C2",
          "ticks": 110592,
          "time": 181.894464,
          "velocity": 0.3937007874015748
        },
        {
          "duration": 0.3157889999999952,
          "durationTicks": 192,
          "midi": 36,
          "name": "C2",
          "ticks": 110784,
          "time": 182.210253,
          "velocity": 0.3937007874015748
        },
        {
          "duration": 0.3157889999999952,
          "durationTicks": 192,
          "midi": 36,
          "name": "C2",
          "ticks": 110976,
          "time": 182.526042,
          "velocity": 0.3937007874015748
        },
        {
          "duration": 0.3157889999999952,
          "durationTicks": 192,
          "midi": 36,
          "name": "C2",
          "ticks": 111168,
          "time": 182.84183099999998,
          "velocity": 0.3937007874015748
        },
        {
          "duration": 0.31578900000002363,
          "durationTicks": 192,
          "midi": 36,
          "name": "C2",
          "ticks": 111360,
          "time": 183.15761999999998,
          "velocity": 0.3937007874015748
        },
        {
          "duration": 0.3157889999999952,
          "durationTicks": 192,
          "midi": 36,
          "name": "C2",
          "ticks": 111552,
          "time": 183.473409,
          "velocity": 0.3937007874015748
        },
        {
          "duration": 0.6315779999999904,
          "durationTicks": 384,
          "midi": 52,
          "name": "E3",
          "ticks": 111744,
          "time": 183.789198,
          "velocity": 0.3937007874015748
        },
        {
          "duration": 0.3157889999999952,
          "durationTicks": 192,
          "midi": 36,
          "name": "C2",
          "ticks": 117504,
          "time": 193.262868,
          "velocity": 0.3937007874015748
        },
        {
          "duration": 0.3157889999999952,
          "durationTicks": 192,
          "midi": 36,
          "name": "C2",
          "ticks": 117696,
          "time": 193.578657,
          "velocity": 0.3937007874015748
        },
        {
          "duration": 0.6315779999999904,
          "durationTicks": 384,
          "midi": 52,
          "name": "E3",
          "ticks": 117888,
          "time": 193.894446,
          "velocity": 0.3937007874015748
        },
        {
          "duration": 0.31578900000002363,
          "durationTicks": 192,
          "midi": 36,
          "name": "C2",
          "ticks": 118272,
          "time": 194.52602399999998,
          "velocity": 0.3937007874015748
        },
        {
          "duration": 0.3157889999999952,
          "durationTicks": 192,
          "midi": 36,
          "name": "C2",
          "ticks": 118464,
          "time": 194.841813,
          "velocity": 0.3937007874015748
        },
        {
          "duration": 0.6315779999999904,
          "durationTicks": 384,
          "midi": 52,
          "name": "E3",
          "ticks": 118656,
          "time": 195.157602,
          "velocity": 0.3937007874015748
        },
        {
          "duration": 0.3157889999999952,
          "durationTicks": 192,
          "midi": 36,
          "name": "C2",
          "ticks": 119040,
          "time": 195.78918,
          "velocity": 0.3937007874015748
        },
        {
          "duration": 0.3157889999999952,
          "durationTicks": 192,
          "midi": 36,
          "name": "C2",
          "ticks": 119232,
          "time": 196.10496899999998,
          "velocity": 0.3937007874015748
        },
        {
          "duration": 0.47368350000002124,
          "durationTicks": 288,
          "midi": 52,
          "name": "E3",
          "ticks": 119424,
          "time": 196.42075799999998,
          "velocity": 0.3937007874015748
        },
        {
          "duration": 0.1578944999999976,
          "durationTicks": 96,
          "midi": 52,
          "name": "E3",
          "ticks": 119712,
          "time": 196.8944415,
          "velocity": 0.3937007874015748
        },
        {
          "duration": 0.3157889999999952,
          "durationTicks": 192,
          "midi": 36,
          "name": "C2",
          "ticks": 119808,
          "time": 197.052336,
          "velocity": 0.3937007874015748
        },
        {
          "duration": 0.3157889999999952,
          "durationTicks": 192,
          "midi": 36,
          "name": "C2",
          "ticks": 120000,
          "time": 197.368125,
          "velocity": 0.3937007874015748
        },
        {
          "duration": 0.6315779999999904,
          "durationTicks": 384,
          "midi": 52,
          "name": "E3",
          "ticks": 120192,
          "time": 197.683914,
          "velocity": 0.3937007874015748
        },
        {
          "duration": 0.31578900000002363,
          "durationTicks": 192,
          "midi": 36,
          "name": "C2",
          "ticks": 120576,
          "time": 198.31549199999998,
          "velocity": 0.3937007874015748
        },
        {
          "duration": 0.3157889999999952,
          "durationTicks": 192,
          "midi": 36,
          "name": "C2",
          "ticks": 120768,
          "time": 198.631281,
          "velocity": 0.3937007874015748
        },
        {
          "duration": 0.4736834999999928,
          "durationTicks": 288,
          "midi": 52,
          "name": "E3",
          "ticks": 120960,
          "time": 198.94707,
          "velocity": 0.3937007874015748
        },
        {
          "duration": 0.1578944999999976,
          "durationTicks": 96,
          "midi": 52,
          "name": "E3",
          "ticks": 121248,
          "time": 199.4207535,
          "velocity": 0.3937007874015748
        },
        {
          "duration": 0.3157889999999952,
          "durationTicks": 192,
          "midi": 36,
          "name": "C2",
          "ticks": 121344,
          "time": 199.578648,
          "velocity": 0.3937007874015748
        },
        {
          "duration": 0.3157889999999952,
          "durationTicks": 192,
          "midi": 36,
          "name": "C2",
          "ticks": 121536,
          "time": 199.89443699999998,
          "velocity": 0.3937007874015748
        },
        {
          "duration": 0.6315780000000188,
          "durationTicks": 384,
          "midi": 52,
          "name": "E3",
          "ticks": 121728,
          "time": 200.21022599999998,
          "velocity": 0.3937007874015748
        },
        {
          "duration": 0.3157889999999952,
          "durationTicks": 192,
          "midi": 36,
          "name": "C2",
          "ticks": 122112,
          "time": 200.841804,
          "velocity": 0.3937007874015748
        },
        {
          "duration": 0.3157889999999952,
          "durationTicks": 192,
          "midi": 36,
          "name": "C2",
          "ticks": 122304,
          "time": 201.157593,
          "velocity": 0.3937007874015748
        },
        {
          "duration": 0.4736834999999928,
          "durationTicks": 288,
          "midi": 52,
          "name": "E3",
          "ticks": 122496,
          "time": 201.473382,
          "velocity": 0.3937007874015748
        },
        {
          "duration": 0.15789450000002603,
          "durationTicks": 96,
          "midi": 52,
          "name": "E3",
          "ticks": 122784,
          "time": 201.94706549999998,
          "velocity": 0.3937007874015748
        },
        {
          "duration": 0.3157889999999952,
          "durationTicks": 192,
          "midi": 36,
          "name": "C2",
          "ticks": 122880,
          "time": 202.10496,
          "velocity": 0.3937007874015748
        },
        {
          "duration": 0.3157889999999952,
          "durationTicks": 192,
          "midi": 36,
          "name": "C2",
          "ticks": 123072,
          "time": 202.420749,
          "velocity": 0.3937007874015748
        },
        {
          "duration": 0.6315779999999904,
          "durationTicks": 384,
          "midi": 52,
          "name": "E3",
          "ticks": 123264,
          "time": 202.736538,
          "velocity": 0.3937007874015748
        },
        {
          "duration": 0.3157889999999952,
          "durationTicks": 192,
          "midi": 36,
          "name": "C2",
          "ticks": 123648,
          "time": 203.368116,
          "velocity": 0.3937007874015748
        },
        {
          "duration": 0.31578900000002363,
          "durationTicks": 192,
          "midi": 36,
          "name": "C2",
          "ticks": 123840,
          "time": 203.68390499999998,
          "velocity": 0.3937007874015748
        },
        {
          "duration": 0.4736834999999928,
          "durationTicks": 288,
          "midi": 52,
          "name": "E3",
          "ticks": 124032,
          "time": 203.999694,
          "velocity": 0.3937007874015748
        },
        {
          "duration": 0.1578944999999976,
          "durationTicks": 96,
          "midi": 52,
          "name": "E3",
          "ticks": 124320,
          "time": 204.4733775,
          "velocity": 0.3937007874015748
        },
        {
          "duration": 0.3157889999999952,
          "durationTicks": 192,
          "midi": 36,
          "name": "C2",
          "ticks": 124416,
          "time": 204.631272,
          "velocity": 0.3937007874015748
        },
        {
          "duration": 0.3157889999999952,
          "durationTicks": 192,
          "midi": 36,
          "name": "C2",
          "ticks": 124608,
          "time": 204.947061,
          "velocity": 0.3937007874015748
        },
        {
          "duration": 0.6315780000000188,
          "durationTicks": 384,
          "midi": 52,
          "name": "E3",
          "ticks": 124800,
          "time": 205.26285,
          "velocity": 0.3937007874015748
        },
        {
          "duration": 0.3157889999999952,
          "durationTicks": 192,
          "midi": 36,
          "name": "C2",
          "ticks": 125184,
          "time": 205.894428,
          "velocity": 0.3937007874015748
        },
        {
          "duration": 0.3157889999999952,
          "durationTicks": 192,
          "midi": 36,
          "name": "C2",
          "ticks": 125376,
          "time": 206.210217,
          "velocity": 0.3937007874015748
        },
        {
          "duration": 0.4736834999999928,
          "durationTicks": 288,
          "midi": 52,
          "name": "E3",
          "ticks": 125568,
          "time": 206.526006,
          "velocity": 0.3937007874015748
        },
        {
          "duration": 0.1578944999999976,
          "durationTicks": 96,
          "midi": 52,
          "name": "E3",
          "ticks": 125856,
          "time": 206.9996895,
          "velocity": 0.3937007874015748
        },
        {
          "duration": 0.3157889999999952,
          "durationTicks": 192,
          "midi": 36,
          "name": "C2",
          "ticks": 125952,
          "time": 207.15758399999999,
          "velocity": 0.3937007874015748
        },
        {
          "duration": 0.31578900000002363,
          "durationTicks": 192,
          "midi": 36,
          "name": "C2",
          "ticks": 126144,
          "time": 207.47337299999998,
          "velocity": 0.3937007874015748
        },
        {
          "duration": 0.6315779999999904,
          "durationTicks": 384,
          "midi": 52,
          "name": "E3",
          "ticks": 126336,
          "time": 207.789162,
          "velocity": 0.3937007874015748
        },
        {
          "duration": 0.3157889999999952,
          "durationTicks": 192,
          "midi": 36,
          "name": "C2",
          "ticks": 126720,
          "time": 208.42074,
          "velocity": 0.3937007874015748
        },
        {
          "duration": 0.3157889999999952,
          "durationTicks": 192,
          "midi": 36,
          "name": "C2",
          "ticks": 126912,
          "time": 208.736529,
          "velocity": 0.3937007874015748
        },
        {
          "duration": 0.4736834999999928,
          "durationTicks": 288,
          "midi": 52,
          "name": "E3",
          "ticks": 127104,
          "time": 209.05231799999999,
          "velocity": 0.3937007874015748
        },
        {
          "duration": 0.15789450000002603,
          "durationTicks": 96,
          "midi": 52,
          "name": "E3",
          "ticks": 127392,
          "time": 209.52600149999998,
          "velocity": 0.3937007874015748
        },
        {
          "duration": 0.3157889999999952,
          "durationTicks": 192,
          "midi": 36,
          "name": "C2",
          "ticks": 127488,
          "time": 209.683896,
          "velocity": 0.3937007874015748
        },
        {
          "duration": 0.3157889999999952,
          "durationTicks": 192,
          "midi": 36,
          "name": "C2",
          "ticks": 127680,
          "time": 209.999685,
          "velocity": 0.3937007874015748
        },
        {
          "duration": 0.6315779999999904,
          "durationTicks": 384,
          "midi": 52,
          "name": "E3",
          "ticks": 127872,
          "time": 210.315474,
          "velocity": 0.3937007874015748
        },
        {
          "duration": 0.3157889999999952,
          "durationTicks": 192,
          "midi": 36,
          "name": "C2",
          "ticks": 128256,
          "time": 210.94705199999999,
          "velocity": 0.3937007874015748
        },
        {
          "duration": 0.31578900000002363,
          "durationTicks": 192,
          "midi": 36,
          "name": "C2",
          "ticks": 128448,
          "time": 211.26284099999998,
          "velocity": 0.3937007874015748
        },
        {
          "duration": 0.4736834999999928,
          "durationTicks": 288,
          "midi": 52,
          "name": "E3",
          "ticks": 128640,
          "time": 211.57863,
          "velocity": 0.3937007874015748
        },
        {
          "duration": 0.1578944999999976,
          "durationTicks": 96,
          "midi": 52,
          "name": "E3",
          "ticks": 128928,
          "time": 212.0523135,
          "velocity": 0.3937007874015748
        },
        {
          "duration": 0.3157889999999952,
          "durationTicks": 192,
          "midi": 36,
          "name": "C2",
          "ticks": 129024,
          "time": 212.210208,
          "velocity": 0.3937007874015748
        },
        {
          "duration": 0.3157889999999952,
          "durationTicks": 192,
          "midi": 36,
          "name": "C2",
          "ticks": 129216,
          "time": 212.525997,
          "velocity": 0.3937007874015748
        },
        {
          "duration": 0.6315780000000188,
          "durationTicks": 384,
          "midi": 52,
          "name": "E3",
          "ticks": 129408,
          "time": 212.84178599999998,
          "velocity": 0.3937007874015748
        },
        {
          "duration": 0.3157889999999952,
          "durationTicks": 192,
          "midi": 36,
          "name": "C2",
          "ticks": 129792,
          "time": 213.473364,
          "velocity": 0.3937007874015748
        },
        {
          "duration": 0.3157889999999952,
          "durationTicks": 192,
          "midi": 36,
          "name": "C2",
          "ticks": 129984,
          "time": 213.789153,
          "velocity": 0.3937007874015748
        },
        {
          "duration": 0.4736834999999928,
          "durationTicks": 288,
          "midi": 52,
          "name": "E3",
          "ticks": 130176,
          "time": 214.104942,
          "velocity": 0.3937007874015748
        },
        {
          "duration": 0.1578944999999976,
          "durationTicks": 96,
          "midi": 52,
          "name": "E3",
          "ticks": 130464,
          "time": 214.5786255,
          "velocity": 0.3937007874015748
        },
        {
          "duration": 0.1578944999999976,
          "durationTicks": 96,
          "midi": 52,
          "name": "E3",
          "ticks": 130560,
          "time": 214.73651999999998,
          "velocity": 0.3937007874015748
        }
      ],
      "endOfTrackTicks": 130656
    }
  ]
}