{
    "header": {
      "keySignatures": [],
      "meta": [],
      "name": "",
      "ppq": 384,
      "tempos": [
        {
          "bpm": 140.00014000014,
          "ticks": 0
        }
      ],
      "timeSignatures": [
        {
          "ticks": 0,
          "timeSignature": [
            1,
            4
          ],
          "measures": 0
        }
      ]
    },
    "tracks": [
      {
        "channel": 0,
        "controlChanges": {},
        "pitchBends": [],
        "instrument": {
          "family": "synth lead",
          "number": 87,
          "name": "lead 8 (bass + lead)"
        },
        "name": "Synth Pluck",
        "notes": [
          {
            "duration": 0.2142855000000008,
            "durationTicks": 192,
            "midi": 72,
            "name": "C5",
            "ticks": 9216,
            "time": 10.285704,
            "velocity": 0.3937007874015748
          },
          {
            "duration": 0.21428549999999902,
            "durationTicks": 192,
            "midi": 73,
            "name": "C#5",
            "ticks": 9408,
            "time": 10.499989500000002,
            "velocity": 0.3937007874015748
          },
          {
            "duration": 0.2142855000000008,
            "durationTicks": 192,
            "midi": 72,
            "name": "C5",
            "ticks": 9600,
            "time": 10.714275,
            "velocity": 0.3937007874015748
          },
          {
            "duration": 0.21428549999999902,
            "durationTicks": 192,
            "midi": 73,
            "name": "C#5",
            "ticks": 9792,
            "time": 10.928560500000001,
            "velocity": 0.3937007874015748
          },
          {
            "duration": 0.2142855000000008,
            "durationTicks": 192,
            "midi": 75,
            "name": "D#5",
            "ticks": 9984,
            "time": 11.142846,
            "velocity": 0.3937007874015748
          },
          {
            "duration": 0.10714274999999951,
            "durationTicks": 96,
            "midi": 73,
            "name": "C#5",
            "ticks": 10176,
            "time": 11.357131500000001,
            "velocity": 0.3937007874015748
          },
          {
            "duration": 0.3214282500000003,
            "durationTicks": 288,
            "midi": 72,
            "name": "C5",
            "ticks": 10272,
            "time": 11.46427425,
            "velocity": 0.3937007874015748
          },
          {
            "duration": 0.2142855000000008,
            "durationTicks": 192,
            "midi": 77,
            "name": "F5",
            "ticks": 10560,
            "time": 11.785702500000001,
            "velocity": 0.3937007874015748
          },
          {
            "duration": 0.21428549999999902,
            "durationTicks": 192,
            "midi": 70,
            "name": "A#4",
            "ticks": 10752,
            "time": 11.999988000000002,
            "velocity": 0.3937007874015748
          },
          {
            "duration": 0.2142855000000008,
            "durationTicks": 192,
            "midi": 72,
            "name": "C5",
            "ticks": 10944,
            "time": 12.214273500000001,
            "velocity": 0.3937007874015748
          },
          {
            "duration": 0.21428549999999902,
            "durationTicks": 192,
            "midi": 70,
            "name": "A#4",
            "ticks": 11136,
            "time": 12.428559000000002,
            "velocity": 0.3937007874015748
          },
          {
            "duration": 0.2142855000000008,
            "durationTicks": 192,
            "midi": 73,
            "name": "C#5",
            "ticks": 11328,
            "time": 12.6428445,
            "velocity": 0.3937007874015748
          },
          {
            "duration": 0.21428549999999902,
            "durationTicks": 192,
            "midi": 75,
            "name": "D#5",
            "ticks": 11520,
            "time": 12.857130000000002,
            "velocity": 0.3937007874015748
          },
          {
            "duration": 0.10714275000000129,
            "durationTicks": 96,
            "midi": 73,
            "name": "C#5",
            "ticks": 11712,
            "time": 13.0714155,
            "velocity": 0.3937007874015748
          },
          {
            "duration": 0.3214282499999985,
            "durationTicks": 288,
            "midi": 72,
            "name": "C5",
            "ticks": 11808,
            "time": 13.178558250000002,
            "velocity": 0.3937007874015748
          },
          {
            "duration": 0.2142855000000008,
            "durationTicks": 192,
            "midi": 72,
            "name": "C5",
            "ticks": 12096,
            "time": 13.4999865,
            "velocity": 0.3937007874015748
          },
          {
            "duration": 0.2142855000000008,
            "durationTicks": 192,
            "midi": 73,
            "name": "C#5",
            "ticks": 12288,
            "time": 13.714272000000001,
            "velocity": 0.3937007874015748
          },
          {
            "duration": 0.21428549999999902,
            "durationTicks": 192,
            "midi": 77,
            "name": "F5",
            "ticks": 12480,
            "time": 13.928557500000002,
            "velocity": 0.3937007874015748
          },
          {
            "duration": 0.2142855000000008,
            "durationTicks": 192,
            "midi": 73,
            "name": "C#5",
            "ticks": 12672,
            "time": 14.142843000000001,
            "velocity": 0.3937007874015748
          },
          {
            "duration": 0.21428549999999902,
            "durationTicks": 192,
            "midi": 77,
            "name": "F5",
            "ticks": 12864,
            "time": 14.357128500000002,
            "velocity": 0.3937007874015748
          },
          {
            "duration": 0.2142855000000008,
            "durationTicks": 192,
            "midi": 75,
            "name": "D#5",
            "ticks": 13056,
            "time": 14.571414,
            "velocity": 0.3937007874015748
          },
          {
            "duration": 0.10714274999999951,
            "durationTicks": 96,
            "midi": 77,
            "name": "F5",
            "ticks": 13248,
            "time": 14.785699500000002,
            "velocity": 0.3937007874015748
          },
          {
            "duration": 0.3214282500000003,
            "durationTicks": 288,
            "midi": 75,
            "name": "D#5",
            "ticks": 13344,
            "time": 14.892842250000001,
            "velocity": 0.3937007874015748
          },
          {
            "duration": 0.21428549999999902,
            "durationTicks": 192,
            "midi": 73,
            "name": "C#5",
            "ticks": 13632,
            "time": 15.214270500000001,
            "velocity": 0.3937007874015748
          },
          {
            "duration": 0.2142855000000008,
            "durationTicks": 192,
            "midi": 75,
            "name": "D#5",
            "ticks": 13824,
            "time": 15.428556,
            "velocity": 0.3937007874015748
          },
          {
            "duration": 0.2142855000000008,
            "durationTicks": 192,
            "midi": 73,
            "name": "C#5",
            "ticks": 14016,
            "time": 15.642841500000001,
            "velocity": 0.3937007874015748
          },
          {
            "duration": 0.21428549999999902,
            "durationTicks": 192,
            "midi": 75,
            "name": "D#5",
            "ticks": 14208,
            "time": 15.857127000000002,
            "velocity": 0.3937007874015748
          },
          {
            "duration": 0.21428549999999902,
            "durationTicks": 192,
            "midi": 75,
            "name": "D#5",
            "ticks": 14400,
            "time": 16.0714125,
            "velocity": 0.3937007874015748
          },
          {
            "duration": 0.21428550000000257,
            "durationTicks": 192,
            "midi": 77,
            "name": "F5",
            "ticks": 14592,
            "time": 16.285698,
            "velocity": 0.3937007874015748
          },
          {
            "duration": 0.10714274999999773,
            "durationTicks": 96,
            "midi": 75,
            "name": "D#5",
            "ticks": 14784,
            "time": 16.499983500000003,
            "velocity": 0.3937007874015748
          },
          {
            "duration": 0.3214282500000003,
            "durationTicks": 288,
            "midi": 75,
            "name": "D#5",
            "ticks": 14880,
            "time": 16.60712625,
            "velocity": 0.3937007874015748
          },
          {
            "duration": 0.21428549999999902,
            "durationTicks": 192,
            "midi": 72,
            "name": "C5",
            "ticks": 15168,
            "time": 16.9285545,
            "velocity": 0.3937007874015748
          },
          {
            "duration": 0.21428550000000257,
            "durationTicks": 192,
            "midi": 72,
            "name": "C5",
            "ticks": 15360,
            "time": 17.14284,
            "velocity": 0.3937007874015748
          },
          {
            "duration": 0.21428549999999902,
            "durationTicks": 192,
            "midi": 73,
            "name": "C#5",
            "ticks": 15552,
            "time": 17.357125500000002,
            "velocity": 0.3937007874015748
          },
          {
            "duration": 0.21428549999999902,
            "durationTicks": 192,
            "midi": 72,
            "name": "C5",
            "ticks": 15744,
            "time": 17.571411,
            "velocity": 0.3937007874015748
          },
          {
            "duration": 0.21428550000000257,
            "durationTicks": 192,
            "midi": 73,
            "name": "C#5",
            "ticks": 15936,
            "time": 17.7856965,
            "velocity": 0.3937007874015748
          },
          {
            "duration": 0.21428549999999902,
            "durationTicks": 192,
            "midi": 75,
            "name": "D#5",
            "ticks": 16128,
            "time": 17.999982000000003,
            "velocity": 0.3937007874015748
          },
          {
            "duration": 0.10714275000000129,
            "durationTicks": 96,
            "midi": 73,
            "name": "C#5",
            "ticks": 16320,
            "time": 18.214267500000002,
            "velocity": 0.3937007874015748
          },
          {
            "duration": 0.32142824999999675,
            "durationTicks": 288,
            "midi": 72,
            "name": "C5",
            "ticks": 16416,
            "time": 18.321410250000003,
            "velocity": 0.3937007874015748
          },
          {
            "duration": 0.21428550000000257,
            "durationTicks": 192,
            "midi": 75,
            "name": "D#5",
            "ticks": 16704,
            "time": 18.6428385,
            "velocity": 0.3937007874015748
          },
          {
            "duration": 0.21428549999999902,
            "durationTicks": 192,
            "midi": 73,
            "name": "C#5",
            "ticks": 16896,
            "time": 18.857124000000002,
            "velocity": 0.3937007874015748
          },
          {
            "duration": 0.21428549999999902,
            "durationTicks": 192,
            "midi": 72,
            "name": "C5",
            "ticks": 17088,
            "time": 19.0714095,
            "velocity": 0.3937007874015748
          },
          {
            "duration": 0.21428550000000257,
            "durationTicks": 192,
            "midi": 75,
            "name": "D#5",
            "ticks": 17280,
            "time": 19.285695,
            "velocity": 0.3937007874015748
          },
          {
            "duration": 0.10714274999999773,
            "durationTicks": 96,
            "midi": 73,
            "name": "C#5",
            "ticks": 17472,
            "time": 19.499980500000003,
            "velocity": 0.3937007874015748
          },
          {
            "duration": 0.21428550000000257,
            "durationTicks": 192,
            "midi": 70,
            "name": "A#4",
            "ticks": 17568,
            "time": 19.60712325,
            "velocity": 0.3937007874015748
          },
          {
            "duration": 0.10714274999999773,
            "durationTicks": 96,
            "midi": 72,
            "name": "C5",
            "ticks": 17760,
            "time": 19.821408750000003,
            "velocity": 0.3937007874015748
          },
          {
            "duration": 0.21428549999999902,
            "durationTicks": 192,
            "midi": 75,
            "name": "D#5",
            "ticks": 17856,
            "time": 19.9285515,
            "velocity": 0.3937007874015748
          },
          {
            "duration": 0.10714275000000129,
            "durationTicks": 96,
            "midi": 73,
            "name": "C#5",
            "ticks": 18048,
            "time": 20.142837,
            "velocity": 0.3937007874015748
          },
          {
            "duration": 0.3214282500000003,
            "durationTicks": 288,
            "midi": 72,
            "name": "C5",
            "ticks": 18144,
            "time": 20.24997975,
            "velocity": 0.3937007874015748
          },
          {
            "duration": 0.21428549999999902,
            "durationTicks": 192,
            "midi": 72,
            "name": "C5",
            "ticks": 18432,
            "time": 20.571408,
            "velocity": 0.3937007874015748
          },
          {
            "duration": 0.21428550000000257,
            "durationTicks": 192,
            "midi": 73,
            "name": "C#5",
            "ticks": 18624,
            "time": 20.7856935,
            "velocity": 0.3937007874015748
          },
          {
            "duration": 0.21428549999999902,
            "durationTicks": 192,
            "midi": 72,
            "name": "C5",
            "ticks": 18816,
            "time": 20.999979000000003,
            "velocity": 0.3937007874015748
          },
          {
            "duration": 0.21428549999999902,
            "durationTicks": 192,
            "midi": 73,
            "name": "C#5",
            "ticks": 19008,
            "time": 21.214264500000002,
            "velocity": 0.3937007874015748
          },
          {
            "duration": 0.21428549999999902,
            "durationTicks": 192,
            "midi": 75,
            "name": "D#5",
            "ticks": 19200,
            "time": 21.42855,
            "velocity": 0.3937007874015748
          },
          {
            "duration": 0.10714275000000129,
            "durationTicks": 96,
            "midi": 73,
            "name": "C#5",
            "ticks": 19392,
            "time": 21.6428355,
            "velocity": 0.3937007874015748
          },
          {
            "duration": 0.3214282500000003,
            "durationTicks": 288,
            "midi": 72,
            "name": "C5",
            "ticks": 19488,
            "time": 21.74997825,
            "velocity": 0.3937007874015748
          },
          {
            "duration": 0.21428549999999902,
            "durationTicks": 192,
            "midi": 77,
            "name": "F5",
            "ticks": 19776,
            "time": 22.071406500000002,
            "velocity": 0.3937007874015748
          },
          {
            "duration": 0.21428550000000257,
            "durationTicks": 192,
            "midi": 70,
            "name": "A#4",
            "ticks": 19968,
            "time": 22.285692,
            "velocity": 0.3937007874015748
          },
          {
            "duration": 0.21428549999999902,
            "durationTicks": 192,
            "midi": 72,
            "name": "C5",
            "ticks": 20160,
            "time": 22.499977500000004,
            "velocity": 0.3937007874015748
          },
          {
            "duration": 0.21428549999999902,
            "durationTicks": 192,
            "midi": 70,
            "name": "A#4",
            "ticks": 20352,
            "time": 22.714263000000003,
            "velocity": 0.3937007874015748
          },
          {
            "duration": 0.21428549999999902,
            "durationTicks": 192,
            "midi": 73,
            "name": "C#5",
            "ticks": 20544,
            "time": 22.9285485,
            "velocity": 0.3937007874015748
          },
          {
            "duration": 0.21428550000000257,
            "durationTicks": 192,
            "midi": 75,
            "name": "D#5",
            "ticks": 20736,
            "time": 23.142834,
            "velocity": 0.3937007874015748
          },
          {
            "duration": 0.10714274999999773,
            "durationTicks": 96,
            "midi": 73,
            "name": "C#5",
            "ticks": 20928,
            "time": 23.357119500000003,
            "velocity": 0.3937007874015748
          },
          {
            "duration": 0.3214282500000003,
            "durationTicks": 288,
            "midi": 72,
            "name": "C5",
            "ticks": 21024,
            "time": 23.46426225,
            "velocity": 0.3937007874015748
          },
          {
            "duration": 0.21428550000000257,
            "durationTicks": 192,
            "midi": 72,
            "name": "C5",
            "ticks": 21312,
            "time": 23.7856905,
            "velocity": 0.3937007874015748
          },
          {
            "duration": 0.21428549999999902,
            "durationTicks": 192,
            "midi": 73,
            "name": "C#5",
            "ticks": 21504,
            "time": 23.999976000000004,
            "velocity": 0.3937007874015748
          },
          {
            "duration": 0.21428549999999902,
            "durationTicks": 192,
            "midi": 77,
            "name": "F5",
            "ticks": 21696,
            "time": 24.214261500000003,
            "velocity": 0.3937007874015748
          },
          {
            "duration": 0.21428549999999902,
            "durationTicks": 192,
            "midi": 73,
            "name": "C#5",
            "ticks": 21888,
            "time": 24.428547000000002,
            "velocity": 0.3937007874015748
          },
          {
            "duration": 0.21428550000000257,
            "durationTicks": 192,
            "midi": 77,
            "name": "F5",
            "ticks": 22080,
            "time": 24.6428325,
            "velocity": 0.3937007874015748
          },
          {
            "duration": 0.21428549999999902,
            "durationTicks": 192,
            "midi": 75,
            "name": "D#5",
            "ticks": 22272,
            "time": 24.857118000000003,
            "velocity": 0.3937007874015748
          },
          {
            "duration": 0.10714275000000129,
            "durationTicks": 96,
            "midi": 77,
            "name": "F5",
            "ticks": 22464,
            "time": 25.071403500000002,
            "velocity": 0.3937007874015748
          },
          {
            "duration": 0.32142824999999675,
            "durationTicks": 288,
            "midi": 75,
            "name": "D#5",
            "ticks": 22560,
            "time": 25.178546250000004,
            "velocity": 0.3937007874015748
          },
          {
            "duration": 0.21428550000000257,
            "durationTicks": 192,
            "midi": 73,
            "name": "C#5",
            "ticks": 22848,
            "time": 25.4999745,
            "velocity": 0.3937007874015748
          },
          {
            "duration": 0.21428549999999902,
            "durationTicks": 192,
            "midi": 75,
            "name": "D#5",
            "ticks": 23040,
            "time": 25.714260000000003,
            "velocity": 0.3937007874015748
          },
          {
            "duration": 0.21428549999999902,
            "durationTicks": 192,
            "midi": 73,
            "name": "C#5",
            "ticks": 23232,
            "time": 25.928545500000002,
            "velocity": 0.3937007874015748
          },
          {
            "duration": 0.21428550000000257,
            "durationTicks": 192,
            "midi": 75,
            "name": "D#5",
            "ticks": 23424,
            "time": 26.142831,
            "velocity": 0.3937007874015748
          },
          {
            "duration": 0.21428549999999902,
            "durationTicks": 192,
            "midi": 75,
            "name": "D#5",
            "ticks": 23616,
            "time": 26.357116500000004,
            "velocity": 0.3937007874015748
          },
          {
            "duration": 0.21428549999999902,
            "durationTicks": 192,
            "midi": 77,
            "name": "F5",
            "ticks": 23808,
            "time": 26.571402000000003,
            "velocity": 0.3937007874015748
          },
          {
            "duration": 0.10714275000000129,
            "durationTicks": 96,
            "midi": 75,
            "name": "D#5",
            "ticks": 24000,
            "time": 26.7856875,
            "velocity": 0.3937007874015748
          },
          {
            "duration": 0.3214282500000003,
            "durationTicks": 288,
            "midi": 75,
            "name": "D#5",
            "ticks": 24096,
            "time": 26.892830250000003,
            "velocity": 0.3937007874015748
          },
          {
            "duration": 0.21428549999999902,
            "durationTicks": 192,
            "midi": 72,
            "name": "C5",
            "ticks": 24384,
            "time": 27.214258500000003,
            "velocity": 0.3937007874015748
          },
          {
            "duration": 0.21428549999999902,
            "durationTicks": 192,
            "midi": 72,
            "name": "C5",
            "ticks": 24576,
            "time": 27.428544000000002,
            "velocity": 0.3937007874015748
          },
          {
            "duration": 0.21428550000000257,
            "durationTicks": 192,
            "midi": 73,
            "name": "C#5",
            "ticks": 24768,
            "time": 27.6428295,
            "velocity": 0.3937007874015748
          },
          {
            "duration": 0.21428549999999902,
            "durationTicks": 192,
            "midi": 72,
            "name": "C5",
            "ticks": 24960,
            "time": 27.857115000000004,
            "velocity": 0.3937007874015748
          },
          {
            "duration": 0.21428549999999902,
            "durationTicks": 192,
            "midi": 73,
            "name": "C#5",
            "ticks": 25152,
            "time": 28.071400500000003,
            "velocity": 0.3937007874015748
          },
          {
            "duration": 0.21428549999999902,
            "durationTicks": 192,
            "midi": 75,
            "name": "D#5",
            "ticks": 25344,
            "time": 28.285686000000002,
            "velocity": 0.3937007874015748
          },
          {
            "duration": 0.10714275000000129,
            "durationTicks": 96,
            "midi": 73,
            "name": "C#5",
            "ticks": 25536,
            "time": 28.4999715,
            "velocity": 0.3937007874015748
          },
          {
            "duration": 0.3214282500000003,
            "durationTicks": 288,
            "midi": 72,
            "name": "C5",
            "ticks": 25632,
            "time": 28.607114250000002,
            "velocity": 0.3937007874015748
          },
          {
            "duration": 0.21428549999999902,
            "durationTicks": 192,
            "midi": 75,
            "name": "D#5",
            "ticks": 25920,
            "time": 28.928542500000002,
            "velocity": 0.3937007874015748
          },
          {
            "duration": 0.21428550000000257,
            "durationTicks": 192,
            "midi": 73,
            "name": "C#5",
            "ticks": 26112,
            "time": 29.142828,
            "velocity": 0.3937007874015748
          },
          {
            "duration": 0.21428549999999902,
            "durationTicks": 192,
            "midi": 72,
            "name": "C5",
            "ticks": 26304,
            "time": 29.357113500000004,
            "velocity": 0.3937007874015748
          },
          {
            "duration": 0.21428549999999902,
            "durationTicks": 192,
            "midi": 75,
            "name": "D#5",
            "ticks": 26496,
            "time": 29.571399000000003,
            "velocity": 0.3937007874015748
          },
          {
            "duration": 0.10714275000000129,
            "durationTicks": 96,
            "midi": 73,
            "name": "C#5",
            "ticks": 26688,
            "time": 29.785684500000002,
            "velocity": 0.3937007874015748
          },
          {
            "duration": 0.21428549999999902,
            "durationTicks": 192,
            "midi": 70,
            "name": "A#4",
            "ticks": 26784,
            "time": 29.892827250000003,
            "velocity": 0.3937007874015748
          },
          {
            "duration": 0.10714275000000129,
            "durationTicks": 96,
            "midi": 72,
            "name": "C5",
            "ticks": 26976,
            "time": 30.107112750000002,
            "velocity": 0.3937007874015748
          },
          {
            "duration": 0.21428549999999902,
            "durationTicks": 192,
            "midi": 75,
            "name": "D#5",
            "ticks": 27072,
            "time": 30.214255500000004,
            "velocity": 0.3937007874015748
          },
          {
            "duration": 0.10714275000000129,
            "durationTicks": 96,
            "midi": 73,
            "name": "C#5",
            "ticks": 27264,
            "time": 30.428541000000003,
            "velocity": 0.3937007874015748
          },
          {
            "duration": 0.32142824999999675,
            "durationTicks": 288,
            "midi": 72,
            "name": "C5",
            "ticks": 27360,
            "time": 30.535683750000004,
            "velocity": 0.3937007874015748
          },
          {
            "duration": 0.21428550000000257,
            "durationTicks": 192,
            "midi": 72,
            "name": "C5",
            "ticks": 27648,
            "time": 30.857112,
            "velocity": 0.3937007874015748
          },
          {
            "duration": 0.21428549999999902,
            "durationTicks": 192,
            "midi": 73,
            "name": "C#5",
            "ticks": 27840,
            "time": 31.071397500000003,
            "velocity": 0.3937007874015748
          },
          {
            "duration": 0.21428549999999902,
            "durationTicks": 192,
            "midi": 72,
            "name": "C5",
            "ticks": 28032,
            "time": 31.285683000000002,
            "velocity": 0.3937007874015748
          },
          {
            "duration": 0.21428550000000257,
            "durationTicks": 192,
            "midi": 73,
            "name": "C#5",
            "ticks": 28224,
            "time": 31.4999685,
            "velocity": 0.3937007874015748
          },
          {
            "duration": 0.21428549999999902,
            "durationTicks": 192,
            "midi": 75,
            "name": "D#5",
            "ticks": 28416,
            "time": 31.714254000000004,
            "velocity": 0.3937007874015748
          },
          {
            "duration": 0.10714274999999773,
            "durationTicks": 96,
            "midi": 73,
            "name": "C#5",
            "ticks": 28608,
            "time": 31.928539500000003,
            "velocity": 0.3937007874015748
          },
          {
            "duration": 0.32142825000000386,
            "durationTicks": 288,
            "midi": 72,
            "name": "C5",
            "ticks": 28704,
            "time": 32.03568225,
            "velocity": 0.3937007874015748
          },
          {
            "duration": 0.21428549999999547,
            "durationTicks": 192,
            "midi": 77,
            "name": "F5",
            "ticks": 28992,
            "time": 32.357110500000005,
            "velocity": 0.3937007874015748
          },
          {
            "duration": 0.21428550000000257,
            "durationTicks": 192,
            "midi": 70,
            "name": "A#4",
            "ticks": 29184,
            "time": 32.571396,
            "velocity": 0.3937007874015748
          },
          {
            "duration": 0.21428550000000257,
            "durationTicks": 192,
            "midi": 72,
            "name": "C5",
            "ticks": 29376,
            "time": 32.7856815,
            "velocity": 0.3937007874015748
          },
          {
            "duration": 0.21428549999999547,
            "durationTicks": 192,
            "midi": 70,
            "name": "A#4",
            "ticks": 29568,
            "time": 32.999967000000005,
            "velocity": 0.3937007874015748
          },
          {
            "duration": 0.21428550000000257,
            "durationTicks": 192,
            "midi": 73,
            "name": "C#5",
            "ticks": 29760,
            "time": 33.2142525,
            "velocity": 0.3937007874015748
          },
          {
            "duration": 0.21428550000000257,
            "durationTicks": 192,
            "midi": 75,
            "name": "D#5",
            "ticks": 29952,
            "time": 33.428538,
            "velocity": 0.3937007874015748
          },
          {
            "duration": 0.10714274999999418,
            "durationTicks": 96,
            "midi": 73,
            "name": "C#5",
            "ticks": 30144,
            "time": 33.642823500000006,
            "velocity": 0.3937007874015748
          },
          {
            "duration": 0.32142825000000386,
            "durationTicks": 288,
            "midi": 72,
            "name": "C5",
            "ticks": 30240,
            "time": 33.74996625,
            "velocity": 0.3937007874015748
          },
          {
            "duration": 0.21428549999999547,
            "durationTicks": 192,
            "midi": 72,
            "name": "C5",
            "ticks": 30528,
            "time": 34.071394500000004,
            "velocity": 0.3937007874015748
          },
          {
            "duration": 0.21428550000000257,
            "durationTicks": 192,
            "midi": 73,
            "name": "C#5",
            "ticks": 30720,
            "time": 34.28568,
            "velocity": 0.3937007874015748
          },
          {
            "duration": 0.21428550000000257,
            "durationTicks": 192,
            "midi": 77,
            "name": "F5",
            "ticks": 30912,
            "time": 34.4999655,
            "velocity": 0.3937007874015748
          },
          {
            "duration": 0.21428549999999547,
            "durationTicks": 192,
            "midi": 73,
            "name": "C#5",
            "ticks": 31104,
            "time": 34.714251000000004,
            "velocity": 0.3937007874015748
          },
          {
            "duration": 0.21428550000000257,
            "durationTicks": 192,
            "midi": 77,
            "name": "F5",
            "ticks": 31296,
            "time": 34.9285365,
            "velocity": 0.3937007874015748
          },
          {
            "duration": 0.21428550000000257,
            "durationTicks": 192,
            "midi": 75,
            "name": "D#5",
            "ticks": 31488,
            "time": 35.142822,
            "velocity": 0.3937007874015748
          },
          {
            "duration": 0.10714275000000129,
            "durationTicks": 96,
            "midi": 77,
            "name": "F5",
            "ticks": 31680,
            "time": 35.357107500000005,
            "velocity": 0.3937007874015748
          },
          {
            "duration": 0.32142824999999675,
            "durationTicks": 288,
            "midi": 75,
            "name": "D#5",
            "ticks": 31776,
            "time": 35.464250250000006,
            "velocity": 0.3937007874015748
          },
          {
            "duration": 0.21428550000000257,
            "durationTicks": 192,
            "midi": 73,
            "name": "C#5",
            "ticks": 32064,
            "time": 35.7856785,
            "velocity": 0.3937007874015748
          },
          {
            "duration": 0.21428549999999547,
            "durationTicks": 192,
            "midi": 75,
            "name": "D#5",
            "ticks": 32256,
            "time": 35.999964000000006,
            "velocity": 0.3937007874015748
          },
          {
            "duration": 0.21428550000000257,
            "durationTicks": 192,
            "midi": 73,
            "name": "C#5",
            "ticks": 32448,
            "time": 36.2142495,
            "velocity": 0.3937007874015748
          },
          {
            "duration": 0.21428550000000257,
            "durationTicks": 192,
            "midi": 75,
            "name": "D#5",
            "ticks": 32640,
            "time": 36.428535000000004,
            "velocity": 0.3937007874015748
          },
          {
            "duration": 0.21428549999999547,
            "durationTicks": 192,
            "midi": 75,
            "name": "D#5",
            "ticks": 32832,
            "time": 36.642820500000006,
            "velocity": 0.3937007874015748
          },
          {
            "duration": 0.21428550000000257,
            "durationTicks": 192,
            "midi": 77,
            "name": "F5",
            "ticks": 33024,
            "time": 36.857106,
            "velocity": 0.3937007874015748
          },
          {
            "duration": 0.10714275000000129,
            "durationTicks": 96,
            "midi": 75,
            "name": "D#5",
            "ticks": 33216,
            "time": 37.071391500000004,
            "velocity": 0.3937007874015748
          },
          {
            "duration": 0.32142824999999675,
            "durationTicks": 288,
            "midi": 75,
            "name": "D#5",
            "ticks": 33312,
            "time": 37.178534250000006,
            "velocity": 0.3937007874015748
          },
          {
            "duration": 0.21428550000000257,
            "durationTicks": 192,
            "midi": 72,
            "name": "C5",
            "ticks": 33600,
            "time": 37.4999625,
            "velocity": 0.3937007874015748
          },
          {
            "duration": 0.21428549999999547,
            "durationTicks": 192,
            "midi": 72,
            "name": "C5",
            "ticks": 33792,
            "time": 37.714248000000005,
            "velocity": 0.3937007874015748
          },
          {
            "duration": 0.21428550000000257,
            "durationTicks": 192,
            "midi": 73,
            "name": "C#5",
            "ticks": 33984,
            "time": 37.9285335,
            "velocity": 0.3937007874015748
          },
          {
            "duration": 0.21428550000000257,
            "durationTicks": 192,
            "midi": 72,
            "name": "C5",
            "ticks": 34176,
            "time": 38.142819,
            "velocity": 0.3937007874015748
          },
          {
            "duration": 0.21428549999999547,
            "durationTicks": 192,
            "midi": 73,
            "name": "C#5",
            "ticks": 34368,
            "time": 38.357104500000005,
            "velocity": 0.3937007874015748
          },
          {
            "duration": 0.21428550000000257,
            "durationTicks": 192,
            "midi": 75,
            "name": "D#5",
            "ticks": 34560,
            "time": 38.57139,
            "velocity": 0.3937007874015748
          },
          {
            "duration": 0.10714275000000129,
            "durationTicks": 96,
            "midi": 73,
            "name": "C#5",
            "ticks": 34752,
            "time": 38.7856755,
            "velocity": 0.3937007874015748
          },
          {
            "duration": 0.32142824999999675,
            "durationTicks": 288,
            "midi": 72,
            "name": "C5",
            "ticks": 34848,
            "time": 38.892818250000005,
            "velocity": 0.3937007874015748
          },
          {
            "duration": 0.21428550000000257,
            "durationTicks": 192,
            "midi": 75,
            "name": "D#5",
            "ticks": 35136,
            "time": 39.2142465,
            "velocity": 0.3937007874015748
          },
          {
            "duration": 0.21428550000000257,
            "durationTicks": 192,
            "midi": 73,
            "name": "C#5",
            "ticks": 35328,
            "time": 39.428532000000004,
            "velocity": 0.3937007874015748
          },
          {
            "duration": 0.21428549999999547,
            "durationTicks": 192,
            "midi": 72,
            "name": "C5",
            "ticks": 35520,
            "time": 39.64281750000001,
            "velocity": 0.3937007874015748
          },
          {
            "duration": 0.21428550000000257,
            "durationTicks": 192,
            "midi": 75,
            "name": "D#5",
            "ticks": 35712,
            "time": 39.857103,
            "velocity": 0.3937007874015748
          },
          {
            "duration": 0.10714275000000129,
            "durationTicks": 96,
            "midi": 73,
            "name": "C#5",
            "ticks": 35904,
            "time": 40.071388500000005,
            "velocity": 0.3937007874015748
          },
          {
            "duration": 0.21428549999999547,
            "durationTicks": 192,
            "midi": 70,
            "name": "A#4",
            "ticks": 36000,
            "time": 40.178531250000006,
            "velocity": 0.3937007874015748
          },
          {
            "duration": 0.10714275000000129,
            "durationTicks": 96,
            "midi": 72,
            "name": "C5",
            "ticks": 36192,
            "time": 40.39281675,
            "velocity": 0.3937007874015748
          },
          {
            "duration": 0.21428550000000257,
            "durationTicks": 192,
            "midi": 75,
            "name": "D#5",
            "ticks": 36288,
            "time": 40.4999595,
            "velocity": 0.3937007874015748
          },
          {
            "duration": 0.10714275000000129,
            "durationTicks": 96,
            "midi": 73,
            "name": "C#5",
            "ticks": 36480,
            "time": 40.714245000000005,
            "velocity": 0.3937007874015748
          },
          {
            "duration": 0.32142824999999675,
            "durationTicks": 288,
            "midi": 72,
            "name": "C5",
            "ticks": 36576,
            "time": 40.82138775000001,
            "velocity": 0.3937007874015748
          },
          {
            "duration": 0.21428550000000257,
            "durationTicks": 192,
            "midi": 71,
            "name": "B4",
            "ticks": 36864,
            "time": 41.142816,
            "velocity": 0.3937007874015748
          },
          {
            "duration": 0.21428549999999547,
            "durationTicks": 192,
            "midi": 72,
            "name": "C5",
            "ticks": 37056,
            "time": 41.357101500000006,
            "velocity": 0.3937007874015748
          },
          {
            "duration": 0.21428550000000257,
            "durationTicks": 192,
            "midi": 71,
            "name": "B4",
            "ticks": 37248,
            "time": 41.571387,
            "velocity": 0.3937007874015748
          },
          {
            "duration": 0.21428550000000257,
            "durationTicks": 192,
            "midi": 72,
            "name": "C5",
            "ticks": 37440,
            "time": 41.785672500000004,
            "velocity": 0.3937007874015748
          },
          {
            "duration": 0.21428549999999547,
            "durationTicks": 192,
            "midi": 74,
            "name": "D5",
            "ticks": 37632,
            "time": 41.99995800000001,
            "velocity": 0.3937007874015748
          },
          {
            "duration": 0.10714275000000129,
            "durationTicks": 96,
            "midi": 72,
            "name": "C5",
            "ticks": 37824,
            "time": 42.2142435,
            "velocity": 0.3937007874015748
          },
          {
            "duration": 0.32142824999999675,
            "durationTicks": 288,
            "midi": 71,
            "name": "B4",
            "ticks": 37920,
            "time": 42.32138625,
            "velocity": 0.3937007874015748
          },
          {
            "duration": 0.21428550000000257,
            "durationTicks": 192,
            "midi": 76,
            "name": "E5",
            "ticks": 38208,
            "time": 42.6428145,
            "velocity": 0.3937007874015748
          },
          {
            "duration": 0.21428550000000257,
            "durationTicks": 192,
            "midi": 69,
            "name": "A4",
            "ticks": 38400,
            "time": 42.8571,
            "velocity": 0.3937007874015748
          },
          {
            "duration": 0.21428549999999547,
            "durationTicks": 192,
            "midi": 71,
            "name": "B4",
            "ticks": 38592,
            "time": 43.071385500000005,
            "velocity": 0.3937007874015748
          },
          {
            "duration": 0.21428550000000257,
            "durationTicks": 192,
            "midi": 69,
            "name": "A4",
            "ticks": 38784,
            "time": 43.285671,
            "velocity": 0.3937007874015748
          },
          {
            "duration": 0.21428550000000257,
            "durationTicks": 192,
            "midi": 72,
            "name": "C5",
            "ticks": 38976,
            "time": 43.4999565,
            "velocity": 0.3937007874015748
          },
          {
            "duration": 0.21428549999999547,
            "durationTicks": 192,
            "midi": 74,
            "name": "D5",
            "ticks": 39168,
            "time": 43.714242000000006,
            "velocity": 0.3937007874015748
          },
          {
            "duration": 0.10714275000000129,
            "durationTicks": 96,
            "midi": 72,
            "name": "C5",
            "ticks": 39360,
            "time": 43.9285275,
            "velocity": 0.3937007874015748
          },
          {
            "duration": 0.32142825000000386,
            "durationTicks": 288,
            "midi": 71,
            "name": "B4",
            "ticks": 39456,
            "time": 44.03567025,
            "velocity": 0.3937007874015748
          },
          {
            "duration": 0.21428549999999547,
            "durationTicks": 192,
            "midi": 71,
            "name": "B4",
            "ticks": 39744,
            "time": 44.357098500000006,
            "velocity": 0.3937007874015748
          },
          {
            "duration": 0.21428550000000257,
            "durationTicks": 192,
            "midi": 72,
            "name": "C5",
            "ticks": 39936,
            "time": 44.571384,
            "velocity": 0.3937007874015748
          },
          {
            "duration": 0.21428550000000257,
            "durationTicks": 192,
            "midi": 76,
            "name": "E5",
            "ticks": 40128,
            "time": 44.785669500000004,
            "velocity": 0.3937007874015748
          },
          {
            "duration": 0.21428549999999547,
            "durationTicks": 192,
            "midi": 72,
            "name": "C5",
            "ticks": 40320,
            "time": 44.99995500000001,
            "velocity": 0.3937007874015748
          },
          {
            "duration": 0.21428550000000257,
            "durationTicks": 192,
            "midi": 76,
            "name": "E5",
            "ticks": 40512,
            "time": 45.2142405,
            "velocity": 0.3937007874015748
          },
          {
            "duration": 0.21428549999999547,
            "durationTicks": 192,
            "midi": 74,
            "name": "D5",
            "ticks": 40704,
            "time": 45.428526000000005,
            "velocity": 0.3937007874015748
          },
          {
            "duration": 0.10714275000000129,
            "durationTicks": 96,
            "midi": 76,
            "name": "E5",
            "ticks": 40896,
            "time": 45.6428115,
            "velocity": 0.3937007874015748
          },
          {
            "duration": 0.32142825000000386,
            "durationTicks": 288,
            "midi": 74,
            "name": "D5",
            "ticks": 40992,
            "time": 45.74995425,
            "velocity": 0.3937007874015748
          },
          {
            "duration": 0.21428549999999547,
            "durationTicks": 192,
            "midi": 72,
            "name": "C5",
            "ticks": 41280,
            "time": 46.071382500000006,
            "velocity": 0.3937007874015748
          },
          {
            "duration": 0.21428550000000257,
            "durationTicks": 192,
            "midi": 74,
            "name": "D5",
            "ticks": 41472,
            "time": 46.285668,
            "velocity": 0.3937007874015748
          },
          {
            "duration": 0.21428550000000257,
            "durationTicks": 192,
            "midi": 72,
            "name": "C5",
            "ticks": 41664,
            "time": 46.499953500000004,
            "velocity": 0.3937007874015748
          },
          {
            "duration": 0.21428549999999547,
            "durationTicks": 192,
            "midi": 74,
            "name": "D5",
            "ticks": 41856,
            "time": 46.714239000000006,
            "velocity": 0.3937007874015748
          },
          {
            "duration": 0.21428550000000257,
            "durationTicks": 192,
            "midi": 74,
            "name": "D5",
            "ticks": 42048,
            "time": 46.9285245,
            "velocity": 0.3937007874015748
          },
          {
            "duration": 0.21428550000000257,
            "durationTicks": 192,
            "midi": 76,
            "name": "E5",
            "ticks": 42240,
            "time": 47.142810000000004,
            "velocity": 0.3937007874015748
          },
          {
            "duration": 0.10714274999999418,
            "durationTicks": 96,
            "midi": 74,
            "name": "D5",
            "ticks": 42432,
            "time": 47.35709550000001,
            "velocity": 0.3937007874015748
          },
          {
            "duration": 0.32142825000000386,
            "durationTicks": 288,
            "midi": 74,
            "name": "D5",
            "ticks": 42528,
            "time": 47.46423825,
            "velocity": 0.3937007874015748
          },
          {
            "duration": 0.21428550000000257,
            "durationTicks": 192,
            "midi": 71,
            "name": "B4",
            "ticks": 42816,
            "time": 47.785666500000005,
            "velocity": 0.3937007874015748
          },
          {
            "duration": 0.21428549999999547,
            "durationTicks": 192,
            "midi": 71,
            "name": "B4",
            "ticks": 43008,
            "time": 47.99995200000001,
            "velocity": 0.3937007874015748
          },
          {
            "duration": 0.21428550000000257,
            "durationTicks": 192,
            "midi": 72,
            "name": "C5",
            "ticks": 43200,
            "time": 48.2142375,
            "velocity": 0.3937007874015748
          },
          {
            "duration": 0.21428549999999547,
            "durationTicks": 192,
            "midi": 71,
            "name": "B4",
            "ticks": 43392,
            "time": 48.428523000000006,
            "velocity": 0.3937007874015748
          },
          {
            "duration": 0.21428550000000257,
            "durationTicks": 192,
            "midi": 72,
            "name": "C5",
            "ticks": 43584,
            "time": 48.6428085,
            "velocity": 0.3937007874015748
          },
          {
            "duration": 0.21428550000000257,
            "durationTicks": 192,
            "midi": 74,
            "name": "D5",
            "ticks": 43776,
            "time": 48.857094000000004,
            "velocity": 0.3937007874015748
          },
          {
            "duration": 0.10714275000000129,
            "durationTicks": 96,
            "midi": 72,
            "name": "C5",
            "ticks": 43968,
            "time": 49.071379500000006,
            "velocity": 0.3937007874015748
          },
          {
            "duration": 0.32142824999999675,
            "durationTicks": 288,
            "midi": 71,
            "name": "B4",
            "ticks": 44064,
            "time": 49.17852225000001,
            "velocity": 0.3937007874015748
          },
          {
            "duration": 0.21428550000000257,
            "durationTicks": 192,
            "midi": 74,
            "name": "D5",
            "ticks": 44352,
            "time": 49.499950500000004,
            "velocity": 0.3937007874015748
          },
          {
            "duration": 0.21428549999999547,
            "durationTicks": 192,
            "midi": 72,
            "name": "C5",
            "ticks": 44544,
            "time": 49.71423600000001,
            "velocity": 0.3937007874015748
          },
          {
            "duration": 0.21428550000000257,
            "durationTicks": 192,
            "midi": 71,
            "name": "B4",
            "ticks": 44736,
            "time": 49.9285215,
            "velocity": 0.3937007874015748
          },
          {
            "duration": 0.21428550000000257,
            "durationTicks": 192,
            "midi": 74,
            "name": "D5",
            "ticks": 44928,
            "time": 50.142807000000005,
            "velocity": 0.3937007874015748
          },
          {
            "duration": 0.10714274999999418,
            "durationTicks": 96,
            "midi": 72,
            "name": "C5",
            "ticks": 45120,
            "time": 50.35709250000001,
            "velocity": 0.3937007874015748
          },
          {
            "duration": 0.21428550000000257,
            "durationTicks": 192,
            "midi": 69,
            "name": "A4",
            "ticks": 45216,
            "time": 50.46423525,
            "velocity": 0.3937007874015748
          },
          {
            "duration": 0.10714275000000129,
            "durationTicks": 96,
            "midi": 71,
            "name": "B4",
            "ticks": 45408,
            "time": 50.678520750000004,
            "velocity": 0.3937007874015748
          },
          {
            "duration": 0.21428549999999547,
            "durationTicks": 192,
            "midi": 74,
            "name": "D5",
            "ticks": 45504,
            "time": 50.785663500000005,
            "velocity": 0.3937007874015748
          },
          {
            "duration": 0.10714275000000129,
            "durationTicks": 96,
            "midi": 72,
            "name": "C5",
            "ticks": 45696,
            "time": 50.999949,
            "velocity": 0.3937007874015748
          },
          {
            "duration": 0.32142825000000386,
            "durationTicks": 288,
            "midi": 71,
            "name": "B4",
            "ticks": 45792,
            "time": 51.10709175,
            "velocity": 0.3937007874015748
          },
          {
            "duration": 0.21428549999999547,
            "durationTicks": 192,
            "midi": 71,
            "name": "B4",
            "ticks": 46080,
            "time": 51.428520000000006,
            "velocity": 0.3937007874015748
          },
          {
            "duration": 0.21428550000000257,
            "durationTicks": 192,
            "midi": 72,
            "name": "C5",
            "ticks": 46272,
            "time": 51.6428055,
            "velocity": 0.3937007874015748
          },
          {
            "duration": 0.21428550000000257,
            "durationTicks": 192,
            "midi": 71,
            "name": "B4",
            "ticks": 46464,
            "time": 51.857091000000004,
            "velocity": 0.3937007874015748
          },
          {
            "duration": 0.21428549999999547,
            "durationTicks": 192,
            "midi": 72,
            "name": "C5",
            "ticks": 46656,
            "time": 52.07137650000001,
            "velocity": 0.3937007874015748
          },
          {
            "duration": 0.21428550000000257,
            "durationTicks": 192,
            "midi": 74,
            "name": "D5",
            "ticks": 46848,
            "time": 52.285662,
            "velocity": 0.3937007874015748
          },
          {
            "duration": 0.10714275000000129,
            "durationTicks": 96,
            "midi": 72,
            "name": "C5",
            "ticks": 47040,
            "time": 52.499947500000005,
            "velocity": 0.3937007874015748
          },
          {
            "duration": 0.32142824999999675,
            "durationTicks": 288,
            "midi": 71,
            "name": "B4",
            "ticks": 47136,
            "time": 52.607090250000006,
            "velocity": 0.3937007874015748
          },
          {
            "duration": 0.21428550000000257,
            "durationTicks": 192,
            "midi": 76,
            "name": "E5",
            "ticks": 47424,
            "time": 52.9285185,
            "velocity": 0.3937007874015748
          },
          {
            "duration": 0.21428550000000257,
            "durationTicks": 192,
            "midi": 69,
            "name": "A4",
            "ticks": 47616,
            "time": 53.142804000000005,
            "velocity": 0.3937007874015748
          },
          {
            "duration": 0.21428549999999547,
            "durationTicks": 192,
            "midi": 71,
            "name": "B4",
            "ticks": 47808,
            "time": 53.35708950000001,
            "velocity": 0.3937007874015748
          },
          {
            "duration": 0.21428550000000257,
            "durationTicks": 192,
            "midi": 69,
            "name": "A4",
            "ticks": 48000,
            "time": 53.571375,
            "velocity": 0.3937007874015748
          },
          {
            "duration": 0.21428549999999547,
            "durationTicks": 192,
            "midi": 72,
            "name": "C5",
            "ticks": 48192,
            "time": 53.785660500000006,
            "velocity": 0.3937007874015748
          },
          {
            "duration": 0.21428550000000257,
            "durationTicks": 192,
            "midi": 74,
            "name": "D5",
            "ticks": 48384,
            "time": 53.999946,
            "velocity": 0.3937007874015748
          },
          {
            "duration": 0.10714275000000129,
            "durationTicks": 96,
            "midi": 72,
            "name": "C5",
            "ticks": 48576,
            "time": 54.214231500000004,
            "velocity": 0.3937007874015748
          },
          {
            "duration": 0.32142824999999675,
            "durationTicks": 288,
            "midi": 71,
            "name": "B4",
            "ticks": 48672,
            "time": 54.321374250000005,
            "velocity": 0.3937007874015748
          },
          {
            "duration": 0.21428550000000257,
            "durationTicks": 192,
            "midi": 71,
            "name": "B4",
            "ticks": 48960,
            "time": 54.6428025,
            "velocity": 0.3937007874015748
          },
          {
            "duration": 0.21428550000000257,
            "durationTicks": 192,
            "midi": 72,
            "name": "C5",
            "ticks": 49152,
            "time": 54.857088000000005,
            "velocity": 0.3937007874015748
          },
          {
            "duration": 0.21428549999999547,
            "durationTicks": 192,
            "midi": 76,
            "name": "E5",
            "ticks": 49344,
            "time": 55.07137350000001,
            "velocity": 0.3937007874015748
          },
          {
            "duration": 0.21428550000000257,
            "durationTicks": 192,
            "midi": 72,
            "name": "C5",
            "ticks": 49536,
            "time": 55.285659,
            "velocity": 0.3937007874015748
          },
          {
            "duration": 0.21428550000000257,
            "durationTicks": 192,
            "midi": 76,
            "name": "E5",
            "ticks": 49728,
            "time": 55.499944500000005,
            "velocity": 0.3937007874015748
          },
          {
            "duration": 0.21428549999999547,
            "durationTicks": 192,
            "midi": 74,
            "name": "D5",
            "ticks": 49920,
            "time": 55.71423000000001,
            "velocity": 0.3937007874015748
          },
          {
            "duration": 0.10714275000000129,
            "durationTicks": 96,
            "midi": 76,
            "name": "E5",
            "ticks": 50112,
            "time": 55.9285155,
            "velocity": 0.3937007874015748
          },
          {
            "duration": 0.32142824999999675,
            "durationTicks": 288,
            "midi": 74,
            "name": "D5",
            "ticks": 50208,
            "time": 56.035658250000004,
            "velocity": 0.3937007874015748
          },
          {
            "duration": 0.21428550000000257,
            "durationTicks": 192,
            "midi": 72,
            "name": "C5",
            "ticks": 50496,
            "time": 56.3570865,
            "velocity": 0.3937007874015748
          },
          {
            "duration": 0.21428550000000257,
            "durationTicks": 192,
            "midi": 74,
            "name": "D5",
            "ticks": 50688,
            "time": 56.571372000000004,
            "velocity": 0.3937007874015748
          },
          {
            "duration": 0.21428549999999547,
            "durationTicks": 192,
            "midi": 72,
            "name": "C5",
            "ticks": 50880,
            "time": 56.785657500000006,
            "velocity": 0.3937007874015748
          },
          {
            "duration": 0.21428550000000257,
            "durationTicks": 192,
            "midi": 74,
            "name": "D5",
            "ticks": 51072,
            "time": 56.999943,
            "velocity": 0.3937007874015748
          },
          {
            "duration": 0.21428550000000257,
            "durationTicks": 192,
            "midi": 74,
            "name": "D5",
            "ticks": 51264,
            "time": 57.214228500000004,
            "velocity": 0.3937007874015748
          },
          {
            "duration": 0.21428549999999547,
            "durationTicks": 192,
            "midi": 76,
            "name": "E5",
            "ticks": 51456,
            "time": 57.42851400000001,
            "velocity": 0.3937007874015748
          },
          {
            "duration": 0.10714275000000129,
            "durationTicks": 96,
            "midi": 74,
            "name": "D5",
            "ticks": 51648,
            "time": 57.6427995,
            "velocity": 0.3937007874015748
          },
          {
            "duration": 0.32142825000000386,
            "durationTicks": 288,
            "midi": 74,
            "name": "D5",
            "ticks": 51744,
            "time": 57.749942250000004,
            "velocity": 0.3937007874015748
          },
          {
            "duration": 0.21428549999999547,
            "durationTicks": 192,
            "midi": 71,
            "name": "B4",
            "ticks": 52032,
            "time": 58.07137050000001,
            "velocity": 0.3937007874015748
          },
          {
            "duration": 0.21428550000000257,
            "durationTicks": 192,
            "midi": 71,
            "name": "B4",
            "ticks": 52224,
            "time": 58.285656,
            "velocity": 0.3937007874015748
          },
          {
            "duration": 0.21428550000000257,
            "durationTicks": 192,
            "midi": 72,
            "name": "C5",
            "ticks": 52416,
            "time": 58.499941500000006,
            "velocity": 0.3937007874015748
          },
          {
            "duration": 0.21428549999999547,
            "durationTicks": 192,
            "midi": 71,
            "name": "B4",
            "ticks": 52608,
            "time": 58.71422700000001,
            "velocity": 0.3937007874015748
          },
          {
            "duration": 0.21428550000000257,
            "durationTicks": 192,
            "midi": 72,
            "name": "C5",
            "ticks": 52800,
            "time": 58.928512500000004,
            "velocity": 0.3937007874015748
          },
          {
            "duration": 0.21428549999999547,
            "durationTicks": 192,
            "midi": 74,
            "name": "D5",
            "ticks": 52992,
            "time": 59.142798000000006,
            "velocity": 0.3937007874015748
          },
          {
            "duration": 0.10714275000000129,
            "durationTicks": 96,
            "midi": 72,
            "name": "C5",
            "ticks": 53184,
            "time": 59.3570835,
            "velocity": 0.3937007874015748
          },
          {
            "duration": 0.32142825000000386,
            "durationTicks": 288,
            "midi": 71,
            "name": "B4",
            "ticks": 53280,
            "time": 59.46422625,
            "velocity": 0.3937007874015748
          },
          {
            "duration": 0.21428549999999547,
            "durationTicks": 192,
            "midi": 74,
            "name": "D5",
            "ticks": 53568,
            "time": 59.78565450000001,
            "velocity": 0.3937007874015748
          },
          {
            "duration": 0.21428550000000257,
            "durationTicks": 192,
            "midi": 72,
            "name": "C5",
            "ticks": 53760,
            "time": 59.99994,
            "velocity": 0.3937007874015748
          },
          {
            "duration": 0.21428550000000257,
            "durationTicks": 192,
            "midi": 71,
            "name": "B4",
            "ticks": 53952,
            "time": 60.214225500000005,
            "velocity": 0.3937007874015748
          },
          {
            "duration": 0.21428549999999547,
            "durationTicks": 192,
            "midi": 74,
            "name": "D5",
            "ticks": 54144,
            "time": 60.42851100000001,
            "velocity": 0.3937007874015748
          },
          {
            "duration": 0.10714275000000129,
            "durationTicks": 96,
            "midi": 72,
            "name": "C5",
            "ticks": 54336,
            "time": 60.6427965,
            "velocity": 0.3937007874015748
          },
          {
            "duration": 0.21428550000000257,
            "durationTicks": 192,
            "midi": 69,
            "name": "A4",
            "ticks": 54432,
            "time": 60.749939250000004,
            "velocity": 0.3937007874015748
          },
          {
            "duration": 0.10714275000000129,
            "durationTicks": 96,
            "midi": 71,
            "name": "B4",
            "ticks": 54624,
            "time": 60.96422475000001,
            "velocity": 0.3937007874015748
          },
          {
            "duration": 0.21428549999999547,
            "durationTicks": 192,
            "midi": 74,
            "name": "D5",
            "ticks": 54720,
            "time": 61.07136750000001,
            "velocity": 0.3937007874015748
          },
          {
            "duration": 0.10714275000000129,
            "durationTicks": 96,
            "midi": 72,
            "name": "C5",
            "ticks": 54912,
            "time": 61.285653,
            "velocity": 0.3937007874015748
          },
          {
            "duration": 0.32142824999999675,
            "durationTicks": 288,
            "midi": 71,
            "name": "B4",
            "ticks": 55008,
            "time": 61.392795750000005,
            "velocity": 0.3937007874015748
          },
          {
            "duration": 0.21428550000000257,
            "durationTicks": 192,
            "midi": 73,
            "name": "C#5",
            "ticks": 55296,
            "time": 61.714224,
            "velocity": 0.3937007874015748
          },
          {
            "duration": 0.21428550000000257,
            "durationTicks": 192,
            "midi": 74,
            "name": "D5",
            "ticks": 55488,
            "time": 61.928509500000004,
            "velocity": 0.3937007874015748
          },
          {
            "duration": 0.21428549999999547,
            "durationTicks": 192,
            "midi": 73,
            "name": "C#5",
            "ticks": 55680,
            "time": 62.14279500000001,
            "velocity": 0.3937007874015748
          },
          {
            "duration": 0.21428550000000257,
            "durationTicks": 192,
            "midi": 74,
            "name": "D5",
            "ticks": 55872,
            "time": 62.3570805,
            "velocity": 0.3937007874015748
          },
          {
            "duration": 0.21428550000000257,
            "durationTicks": 192,
            "midi": 76,
            "name": "E5",
            "ticks": 56064,
            "time": 62.571366000000005,
            "velocity": 0.3937007874015748
          },
          {
            "duration": 0.10714275000000129,
            "durationTicks": 96,
            "midi": 74,
            "name": "D5",
            "ticks": 56256,
            "time": 62.78565150000001,
            "velocity": 0.3937007874015748
          },
          {
            "duration": 0.32142824999999675,
            "durationTicks": 288,
            "midi": 73,
            "name": "C#5",
            "ticks": 56352,
            "time": 62.89279425000001,
            "velocity": 0.3937007874015748
          },
          {
            "duration": 0.21428550000000257,
            "durationTicks": 192,
            "midi": 78,
            "name": "F#5",
            "ticks": 56640,
            "time": 63.214222500000005,
            "velocity": 0.3937007874015748
          },
          {
            "duration": 0.21428549999999547,
            "durationTicks": 192,
            "midi": 71,
            "name": "B4",
            "ticks": 56832,
            "time": 63.42850800000001,
            "velocity": 0.3937007874015748
          },
          {
            "duration": 0.21428550000000257,
            "durationTicks": 192,
            "midi": 73,
            "name": "C#5",
            "ticks": 57024,
            "time": 63.6427935,
            "velocity": 0.3937007874015748
          },
          {
            "duration": 0.21428549999999547,
            "durationTicks": 192,
            "midi": 71,
            "name": "B4",
            "ticks": 57216,
            "time": 63.857079000000006,
            "velocity": 0.3937007874015748
          },
          {
            "duration": 0.21428550000000257,
            "durationTicks": 192,
            "midi": 74,
            "name": "D5",
            "ticks": 57408,
            "time": 64.0713645,
            "velocity": 0.3937007874015748
          },
          {
            "duration": 0.21428550000000257,
            "durationTicks": 192,
            "midi": 76,
            "name": "E5",
            "ticks": 57600,
            "time": 64.28565,
            "velocity": 0.3937007874015748
          },
          {
            "duration": 0.10714274999999418,
            "durationTicks": 96,
            "midi": 74,
            "name": "D5",
            "ticks": 57792,
            "time": 64.4999355,
            "velocity": 0.3937007874015748
          },
          {
            "duration": 0.32142825000001096,
            "durationTicks": 288,
            "midi": 73,
            "name": "C#5",
            "ticks": 57888,
            "time": 64.60707825,
            "velocity": 0.3937007874015748
          },
          {
            "duration": 0.21428549999998836,
            "durationTicks": 192,
            "midi": 73,
            "name": "C#5",
            "ticks": 58176,
            "time": 64.92850650000001,
            "velocity": 0.3937007874015748
          },
          {
            "duration": 0.21428550000000257,
            "durationTicks": 192,
            "midi": 74,
            "name": "D5",
            "ticks": 58368,
            "time": 65.142792,
            "velocity": 0.3937007874015748
          },
          {
            "duration": 0.21428550000000257,
            "durationTicks": 192,
            "midi": 78,
            "name": "F#5",
            "ticks": 58560,
            "time": 65.3570775,
            "velocity": 0.3937007874015748
          },
          {
            "duration": 0.21428550000000257,
            "durationTicks": 192,
            "midi": 74,
            "name": "D5",
            "ticks": 58752,
            "time": 65.571363,
            "velocity": 0.3937007874015748
          },
          {
            "duration": 0.21428550000000257,
            "durationTicks": 192,
            "midi": 78,
            "name": "F#5",
            "ticks": 58944,
            "time": 65.78564850000001,
            "velocity": 0.3937007874015748
          },
          {
            "duration": 0.21428549999998836,
            "durationTicks": 192,
            "midi": 76,
            "name": "E5",
            "ticks": 59136,
            "time": 65.99993400000001,
            "velocity": 0.3937007874015748
          },
          {
            "duration": 0.10714275000000839,
            "durationTicks": 96,
            "midi": 78,
            "name": "F#5",
            "ticks": 59328,
            "time": 66.2142195,
            "velocity": 0.3937007874015748
          },
          {
            "duration": 0.32142824999999675,
            "durationTicks": 288,
            "midi": 76,
            "name": "E5",
            "ticks": 59424,
            "time": 66.32136225,
            "velocity": 0.3937007874015748
          },
          {
            "duration": 0.21428550000000257,
            "durationTicks": 192,
            "midi": 74,
            "name": "D5",
            "ticks": 59712,
            "time": 66.6427905,
            "velocity": 0.3937007874015748
          },
          {
            "duration": 0.21428550000000257,
            "durationTicks": 192,
            "midi": 76,
            "name": "E5",
            "ticks": 59904,
            "time": 66.857076,
            "velocity": 0.3937007874015748
          },
          {
            "duration": 0.21428550000000257,
            "durationTicks": 192,
            "midi": 74,
            "name": "D5",
            "ticks": 60096,
            "time": 67.07136150000001,
            "velocity": 0.3937007874015748
          },
          {
            "duration": 0.21428549999998836,
            "durationTicks": 192,
            "midi": 76,
            "name": "E5",
            "ticks": 60288,
            "time": 67.28564700000001,
            "velocity": 0.3937007874015748
          },
          {
            "duration": 0.21428550000000257,
            "durationTicks": 192,
            "midi": 76,
            "name": "E5",
            "ticks": 60480,
            "time": 67.4999325,
            "velocity": 0.3937007874015748
          },
          {
            "duration": 0.21428550000000257,
            "durationTicks": 192,
            "midi": 78,
            "name": "F#5",
            "ticks": 60672,
            "time": 67.714218,
            "velocity": 0.3937007874015748
          },
          {
            "duration": 0.10714274999999418,
            "durationTicks": 96,
            "midi": 76,
            "name": "E5",
            "ticks": 60864,
            "time": 67.9285035,
            "velocity": 0.3937007874015748
          },
          {
            "duration": 0.32142825000001096,
            "durationTicks": 288,
            "midi": 76,
            "name": "E5",
            "ticks": 60960,
            "time": 68.03564625,
            "velocity": 0.3937007874015748
          },
          {
            "duration": 0.21428549999998836,
            "durationTicks": 192,
            "midi": 73,
            "name": "C#5",
            "ticks": 61248,
            "time": 68.35707450000001,
            "velocity": 0.3937007874015748
          },
          {
            "duration": 0.21428550000000257,
            "durationTicks": 192,
            "midi": 73,
            "name": "C#5",
            "ticks": 61440,
            "time": 68.57136,
            "velocity": 0.3937007874015748
          },
          {
            "duration": 0.21428550000000257,
            "durationTicks": 192,
            "midi": 74,
            "name": "D5",
            "ticks": 61632,
            "time": 68.7856455,
            "velocity": 0.3937007874015748
          },
          {
            "duration": 0.21428550000000257,
            "durationTicks": 192,
            "midi": 73,
            "name": "C#5",
            "ticks": 61824,
            "time": 68.999931,
            "velocity": 0.3937007874015748
          },
          {
            "duration": 0.21428550000000257,
            "durationTicks": 192,
            "midi": 74,
            "name": "D5",
            "ticks": 62016,
            "time": 69.2142165,
            "velocity": 0.3937007874015748
          },
          {
            "duration": 0.21428550000000257,
            "durationTicks": 192,
            "midi": 76,
            "name": "E5",
            "ticks": 62208,
            "time": 69.42850200000001,
            "velocity": 0.3937007874015748
          },
          {
            "duration": 0.10714274999999418,
            "durationTicks": 96,
            "midi": 74,
            "name": "D5",
            "ticks": 62400,
            "time": 69.64278750000001,
            "velocity": 0.3937007874015748
          },
          {
            "duration": 0.32142824999999675,
            "durationTicks": 288,
            "midi": 73,
            "name": "C#5",
            "ticks": 62496,
            "time": 69.74993025,
            "velocity": 0.3937007874015748
          },
          {
            "duration": 0.21428550000000257,
            "durationTicks": 192,
            "midi": 76,
            "name": "E5",
            "ticks": 62784,
            "time": 70.0713585,
            "velocity": 0.3937007874015748
          },
          {
            "duration": 0.21428550000000257,
            "durationTicks": 192,
            "midi": 74,
            "name": "D5",
            "ticks": 62976,
            "time": 70.285644,
            "velocity": 0.3937007874015748
          },
          {
            "duration": 0.21428550000000257,
            "durationTicks": 192,
            "midi": 73,
            "name": "C#5",
            "ticks": 63168,
            "time": 70.49992950000001,
            "velocity": 0.3937007874015748
          },
          {
            "duration": 0.21428550000000257,
            "durationTicks": 192,
            "midi": 76,
            "name": "E5",
            "ticks": 63360,
            "time": 70.71421500000001,
            "velocity": 0.3937007874015748
          },
          {
            "duration": 0.10714274999999418,
            "durationTicks": 96,
            "midi": 74,
            "name": "D5",
            "ticks": 63552,
            "time": 70.92850050000001,
            "velocity": 0.3937007874015748
          },
          {
            "duration": 0.21428550000000257,
            "durationTicks": 192,
            "midi": 71,
            "name": "B4",
            "ticks": 63648,
            "time": 71.03564325,
            "velocity": 0.3937007874015748
          },
          {
            "duration": 0.10714274999999418,
            "durationTicks": 96,
            "midi": 73,
            "name": "C#5",
            "ticks": 63840,
            "time": 71.24992875000001,
            "velocity": 0.3937007874015748
          },
          {
            "duration": 0.21428550000000257,
            "durationTicks": 192,
            "midi": 76,
            "name": "E5",
            "ticks": 63936,
            "time": 71.3570715,
            "velocity": 0.3937007874015748
          },
          {
            "duration": 0.10714274999999418,
            "durationTicks": 96,
            "midi": 74,
            "name": "D5",
            "ticks": 64128,
            "time": 71.571357,
            "velocity": 0.3937007874015748
          },
          {
            "duration": 0.32142825000001096,
            "durationTicks": 288,
            "midi": 73,
            "name": "C#5",
            "ticks": 64224,
            "time": 71.67849975,
            "velocity": 0.3937007874015748
          },
          {
            "duration": 0.21428549999998836,
            "durationTicks": 192,
            "midi": 73,
            "name": "C#5",
            "ticks": 64512,
            "time": 71.99992800000001,
            "velocity": 0.3937007874015748
          },
          {
            "duration": 0.21428550000000257,
            "durationTicks": 192,
            "midi": 74,
            "name": "D5",
            "ticks": 64704,
            "time": 72.2142135,
            "velocity": 0.3937007874015748
          },
          {
            "duration": 0.21428550000000257,
            "durationTicks": 192,
            "midi": 73,
            "name": "C#5",
            "ticks": 64896,
            "time": 72.428499,
            "velocity": 0.3937007874015748
          },
          {
            "duration": 0.21428550000000257,
            "durationTicks": 192,
            "midi": 74,
            "name": "D5",
            "ticks": 65088,
            "time": 72.6427845,
            "velocity": 0.3937007874015748
          },
          {
            "duration": 0.21428550000000257,
            "durationTicks": 192,
            "midi": 76,
            "name": "E5",
            "ticks": 65280,
            "time": 72.85707000000001,
            "velocity": 0.3937007874015748
          },
          {
            "duration": 0.10714274999999418,
            "durationTicks": 96,
            "midi": 74,
            "name": "D5",
            "ticks": 65472,
            "time": 73.07135550000001,
            "velocity": 0.3937007874015748
          },
          {
            "duration": 0.32142824999999675,
            "durationTicks": 288,
            "midi": 73,
            "name": "C#5",
            "ticks": 65568,
            "time": 73.17849825,
            "velocity": 0.3937007874015748
          },
          {
            "duration": 0.21428550000000257,
            "durationTicks": 192,
            "midi": 78,
            "name": "F#5",
            "ticks": 65856,
            "time": 73.4999265,
            "velocity": 0.3937007874015748
          },
          {
            "duration": 0.21428550000000257,
            "durationTicks": 192,
            "midi": 71,
            "name": "B4",
            "ticks": 66048,
            "time": 73.714212,
            "velocity": 0.3937007874015748
          },
          {
            "duration": 0.21428550000000257,
            "durationTicks": 192,
            "midi": 73,
            "name": "C#5",
            "ticks": 66240,
            "time": 73.9284975,
            "velocity": 0.3937007874015748
          },
          {
            "duration": 0.21428550000000257,
            "durationTicks": 192,
            "midi": 71,
            "name": "B4",
            "ticks": 66432,
            "time": 74.14278300000001,
            "velocity": 0.3937007874015748
          },
          {
            "duration": 0.21428549999998836,
            "durationTicks": 192,
            "midi": 74,
            "name": "D5",
            "ticks": 66624,
            "time": 74.35706850000001,
            "velocity": 0.3937007874015748
          },
          {
            "duration": 0.21428550000000257,
            "durationTicks": 192,
            "midi": 76,
            "name": "E5",
            "ticks": 66816,
            "time": 74.571354,
            "velocity": 0.3937007874015748
          },
          {
            "duration": 0.10714275000000839,
            "durationTicks": 96,
            "midi": 74,
            "name": "D5",
            "ticks": 67008,
            "time": 74.7856395,
            "velocity": 0.3937007874015748
          },
          {
            "duration": 0.32142824999999675,
            "durationTicks": 288,
            "midi": 73,
            "name": "C#5",
            "ticks": 67104,
            "time": 74.89278225000001,
            "velocity": 0.3937007874015748
          },
          {
            "duration": 0.21428550000000257,
            "durationTicks": 192,
            "midi": 73,
            "name": "C#5",
            "ticks": 67392,
            "time": 75.21421050000001,
            "velocity": 0.3937007874015748
          },
          {
            "duration": 0.21428550000000257,
            "durationTicks": 192,
            "midi": 74,
            "name": "D5",
            "ticks": 67584,
            "time": 75.42849600000001,
            "velocity": 0.3937007874015748
          },
          {
            "duration": 0.21428549999998836,
            "durationTicks": 192,
            "midi": 78,
            "name": "F#5",
            "ticks": 67776,
            "time": 75.64278150000001,
            "velocity": 0.3937007874015748
          },
          {
            "duration": 0.21428550000000257,
            "durationTicks": 192,
            "midi": 74,
            "name": "D5",
            "ticks": 67968,
            "time": 75.857067,
            "velocity": 0.3937007874015748
          },
          {
            "duration": 0.21428550000000257,
            "durationTicks": 192,
            "midi": 78,
            "name": "F#5",
            "ticks": 68160,
            "time": 76.0713525,
            "velocity": 0.3937007874015748
          },
          {
            "duration": 0.21428550000000257,
            "durationTicks": 192,
            "midi": 76,
            "name": "E5",
            "ticks": 68352,
            "time": 76.285638,
            "velocity": 0.3937007874015748
          },
          {
            "duration": 0.10714274999999418,
            "durationTicks": 96,
            "midi": 78,
            "name": "F#5",
            "ticks": 68544,
            "time": 76.49992350000001,
            "velocity": 0.3937007874015748
          },
          {
            "duration": 0.32142824999999675,
            "durationTicks": 288,
            "midi": 76,
            "name": "E5",
            "ticks": 68640,
            "time": 76.60706625,
            "velocity": 0.3937007874015748
          },
          {
            "duration": 0.21428550000000257,
            "durationTicks": 192,
            "midi": 74,
            "name": "D5",
            "ticks": 68928,
            "time": 76.9284945,
            "velocity": 0.3937007874015748
          },
          {
            "duration": 0.21428550000000257,
            "durationTicks": 192,
            "midi": 76,
            "name": "E5",
            "ticks": 69120,
            "time": 77.14278,
            "velocity": 0.3937007874015748
          },
          {
            "duration": 0.21428550000000257,
            "durationTicks": 192,
            "midi": 74,
            "name": "D5",
            "ticks": 69312,
            "time": 77.3570655,
            "velocity": 0.3937007874015748
          },
          {
            "duration": 0.21428550000000257,
            "durationTicks": 192,
            "midi": 76,
            "name": "E5",
            "ticks": 69504,
            "time": 77.571351,
            "velocity": 0.3937007874015748
          },
          {
            "duration": 0.21428550000000257,
            "durationTicks": 192,
            "midi": 76,
            "name": "E5",
            "ticks": 69696,
            "time": 77.78563650000001,
            "velocity": 0.3937007874015748
          },
          {
            "duration": 0.21428549999998836,
            "durationTicks": 192,
            "midi": 78,
            "name": "F#5",
            "ticks": 69888,
            "time": 77.99992200000001,
            "velocity": 0.3937007874015748
          },
          {
            "duration": 0.10714275000000839,
            "durationTicks": 96,
            "midi": 76,
            "name": "E5",
            "ticks": 70080,
            "time": 78.2142075,
            "velocity": 0.3937007874015748
          },
          {
            "duration": 0.32142824999999675,
            "durationTicks": 288,
            "midi": 76,
            "name": "E5",
            "ticks": 70176,
            "time": 78.32135025000001,
            "velocity": 0.3937007874015748
          },
          {
            "duration": 0.21428550000000257,
            "durationTicks": 192,
            "midi": 73,
            "name": "C#5",
            "ticks": 70464,
            "time": 78.6427785,
            "velocity": 0.3937007874015748
          },
          {
            "duration": 0.21428550000000257,
            "durationTicks": 192,
            "midi": 73,
            "name": "C#5",
            "ticks": 70656,
            "time": 78.85706400000001,
            "velocity": 0.3937007874015748
          },
          {
            "duration": 0.21428550000000257,
            "durationTicks": 192,
            "midi": 74,
            "name": "D5",
            "ticks": 70848,
            "time": 79.07134950000001,
            "velocity": 0.3937007874015748
          },
          {
            "duration": 0.21428549999998836,
            "durationTicks": 192,
            "midi": 73,
            "name": "C#5",
            "ticks": 71040,
            "time": 79.28563500000001,
            "velocity": 0.3937007874015748
          },
          {
            "duration": 0.21428550000000257,
            "durationTicks": 192,
            "midi": 74,
            "name": "D5",
            "ticks": 71232,
            "time": 79.4999205,
            "velocity": 0.3937007874015748
          },
          {
            "duration": 0.21428550000000257,
            "durationTicks": 192,
            "midi": 76,
            "name": "E5",
            "ticks": 71424,
            "time": 79.714206,
            "velocity": 0.3937007874015748
          },
          {
            "duration": 0.10714274999999418,
            "durationTicks": 96,
            "midi": 74,
            "name": "D5",
            "ticks": 71616,
            "time": 79.9284915,
            "velocity": 0.3937007874015748
          },
          {
            "duration": 0.32142825000001096,
            "durationTicks": 288,
            "midi": 73,
            "name": "C#5",
            "ticks": 71712,
            "time": 80.03563425,
            "velocity": 0.3937007874015748
          },
          {
            "duration": 0.21428549999998836,
            "durationTicks": 192,
            "midi": 76,
            "name": "E5",
            "ticks": 72000,
            "time": 80.35706250000001,
            "velocity": 0.3937007874015748
          },
          {
            "duration": 0.21428550000000257,
            "durationTicks": 192,
            "midi": 74,
            "name": "D5",
            "ticks": 72192,
            "time": 80.571348,
            "velocity": 0.3937007874015748
          },
          {
            "duration": 0.21428550000000257,
            "durationTicks": 192,
            "midi": 73,
            "name": "C#5",
            "ticks": 72384,
            "time": 80.7856335,
            "velocity": 0.3937007874015748
          },
          {
            "duration": 0.21428550000000257,
            "durationTicks": 192,
            "midi": 76,
            "name": "E5",
            "ticks": 72576,
            "time": 80.999919,
            "velocity": 0.3937007874015748
          },
          {
            "duration": 0.10714274999999418,
            "durationTicks": 96,
            "midi": 74,
            "name": "D5",
            "ticks": 72768,
            "time": 81.21420450000001,
            "velocity": 0.3937007874015748
          },
          {
            "duration": 0.21428550000000257,
            "durationTicks": 192,
            "midi": 71,
            "name": "B4",
            "ticks": 72864,
            "time": 81.32134725,
            "velocity": 0.3937007874015748
          },
          {
            "duration": 0.10714275000000839,
            "durationTicks": 96,
            "midi": 73,
            "name": "C#5",
            "ticks": 73056,
            "time": 81.53563275,
            "velocity": 0.3937007874015748
          },
          {
            "duration": 0.21428549999998836,
            "durationTicks": 192,
            "midi": 76,
            "name": "E5",
            "ticks": 73152,
            "time": 81.64277550000001,
            "velocity": 0.3937007874015748
          },
          {
            "duration": 0.10714275000000839,
            "durationTicks": 96,
            "midi": 74,
            "name": "D5",
            "ticks": 73344,
            "time": 81.857061,
            "velocity": 0.3937007874015748
          },
          {
            "duration": 0.32142824999999675,
            "durationTicks": 288,
            "midi": 73,
            "name": "C#5",
            "ticks": 73440,
            "time": 81.96420375000001,
            "velocity": 0.3937007874015748
          }
        ],
        "endOfTrackTicks": 73728
      },
      {
        "channel": 1,
        "controlChanges": {},
        "pitchBends": [],
        "instrument": {
          "family": "strings",
          "number": 40,
          "name": "violin"
        },
        "name": "Violin",
        "notes": [
          {
            "duration": 0.2142855000000008,
            "durationTicks": 192,
            "midi": 84,
            "name": "C6",
            "ticks": 9216,
            "time": 10.285704,
            "velocity": 0.29133858267716534
          },
          {
            "duration": 0.21428549999999902,
            "durationTicks": 192,
            "midi": 85,
            "name": "C#6",
            "ticks": 9408,
            "time": 10.499989500000002,
            "velocity": 0.29133858267716534
          },
          {
            "duration": 0.2142855000000008,
            "durationTicks": 192,
            "midi": 84,
            "name": "C6",
            "ticks": 9600,
            "time": 10.714275,
            "velocity": 0.29133858267716534
          },
          {
            "duration": 0.21428549999999902,
            "durationTicks": 192,
            "midi": 85,
            "name": "C#6",
            "ticks": 9792,
            "time": 10.928560500000001,
            "velocity": 0.29133858267716534
          },
          {
            "duration": 0.2142855000000008,
            "durationTicks": 192,
            "midi": 87,
            "name": "D#6",
            "ticks": 9984,
            "time": 11.142846,
            "velocity": 0.29133858267716534
          },
          {
            "duration": 0.10714274999999951,
            "durationTicks": 96,
            "midi": 85,
            "name": "C#6",
            "ticks": 10176,
            "time": 11.357131500000001,
            "velocity": 0.29133858267716534
          },
          {
            "duration": 0.3214282500000003,
            "durationTicks": 288,
            "midi": 84,
            "name": "C6",
            "ticks": 10272,
            "time": 11.46427425,
            "velocity": 0.29133858267716534
          },
          {
            "duration": 0.2142855000000008,
            "durationTicks": 192,
            "midi": 89,
            "name": "F6",
            "ticks": 10560,
            "time": 11.785702500000001,
            "velocity": 0.29133858267716534
          },
          {
            "duration": 0.21428549999999902,
            "durationTicks": 192,
            "midi": 82,
            "name": "A#5",
            "ticks": 10752,
            "time": 11.999988000000002,
            "velocity": 0.29133858267716534
          },
          {
            "duration": 0.2142855000000008,
            "durationTicks": 192,
            "midi": 84,
            "name": "C6",
            "ticks": 10944,
            "time": 12.214273500000001,
            "velocity": 0.29133858267716534
          },
          {
            "duration": 0.21428549999999902,
            "durationTicks": 192,
            "midi": 82,
            "name": "A#5",
            "ticks": 11136,
            "time": 12.428559000000002,
            "velocity": 0.29133858267716534
          },
          {
            "duration": 0.2142855000000008,
            "durationTicks": 192,
            "midi": 85,
            "name": "C#6",
            "ticks": 11328,
            "time": 12.6428445,
            "velocity": 0.29133858267716534
          },
          {
            "duration": 0.21428549999999902,
            "durationTicks": 192,
            "midi": 87,
            "name": "D#6",
            "ticks": 11520,
            "time": 12.857130000000002,
            "velocity": 0.29133858267716534
          },
          {
            "duration": 0.10714275000000129,
            "durationTicks": 96,
            "midi": 85,
            "name": "C#6",
            "ticks": 11712,
            "time": 13.0714155,
            "velocity": 0.29133858267716534
          },
          {
            "duration": 0.3214282499999985,
            "durationTicks": 288,
            "midi": 84,
            "name": "C6",
            "ticks": 11808,
            "time": 13.178558250000002,
            "velocity": 0.29133858267716534
          },
          {
            "duration": 0.2142855000000008,
            "durationTicks": 192,
            "midi": 84,
            "name": "C6",
            "ticks": 12096,
            "time": 13.4999865,
            "velocity": 0.29133858267716534
          },
          {
            "duration": 0.2142855000000008,
            "durationTicks": 192,
            "midi": 85,
            "name": "C#6",
            "ticks": 12288,
            "time": 13.714272000000001,
            "velocity": 0.29133858267716534
          },
          {
            "duration": 0.21428549999999902,
            "durationTicks": 192,
            "midi": 89,
            "name": "F6",
            "ticks": 12480,
            "time": 13.928557500000002,
            "velocity": 0.29133858267716534
          },
          {
            "duration": 0.2142855000000008,
            "durationTicks": 192,
            "midi": 85,
            "name": "C#6",
            "ticks": 12672,
            "time": 14.142843000000001,
            "velocity": 0.29133858267716534
          },
          {
            "duration": 0.21428549999999902,
            "durationTicks": 192,
            "midi": 89,
            "name": "F6",
            "ticks": 12864,
            "time": 14.357128500000002,
            "velocity": 0.29133858267716534
          },
          {
            "duration": 0.2142855000000008,
            "durationTicks": 192,
            "midi": 87,
            "name": "D#6",
            "ticks": 13056,
            "time": 14.571414,
            "velocity": 0.29133858267716534
          },
          {
            "duration": 0.10714274999999951,
            "durationTicks": 96,
            "midi": 89,
            "name": "F6",
            "ticks": 13248,
            "time": 14.785699500000002,
            "velocity": 0.29133858267716534
          },
          {
            "duration": 0.3214282500000003,
            "durationTicks": 288,
            "midi": 87,
            "name": "D#6",
            "ticks": 13344,
            "time": 14.892842250000001,
            "velocity": 0.29133858267716534
          },
          {
            "duration": 0.21428549999999902,
            "durationTicks": 192,
            "midi": 85,
            "name": "C#6",
            "ticks": 13632,
            "time": 15.214270500000001,
            "velocity": 0.29133858267716534
          },
          {
            "duration": 0.2142855000000008,
            "durationTicks": 192,
            "midi": 87,
            "name": "D#6",
            "ticks": 13824,
            "time": 15.428556,
            "velocity": 0.29133858267716534
          },
          {
            "duration": 0.2142855000000008,
            "durationTicks": 192,
            "midi": 85,
            "name": "C#6",
            "ticks": 14016,
            "time": 15.642841500000001,
            "velocity": 0.29133858267716534
          },
          {
            "duration": 0.21428549999999902,
            "durationTicks": 192,
            "midi": 87,
            "name": "D#6",
            "ticks": 14208,
            "time": 15.857127000000002,
            "velocity": 0.29133858267716534
          },
          {
            "duration": 0.21428549999999902,
            "durationTicks": 192,
            "midi": 87,
            "name": "D#6",
            "ticks": 14400,
            "time": 16.0714125,
            "velocity": 0.29133858267716534
          },
          {
            "duration": 0.21428550000000257,
            "durationTicks": 192,
            "midi": 89,
            "name": "F6",
            "ticks": 14592,
            "time": 16.285698,
            "velocity": 0.29133858267716534
          },
          {
            "duration": 0.10714274999999773,
            "durationTicks": 96,
            "midi": 87,
            "name": "D#6",
            "ticks": 14784,
            "time": 16.499983500000003,
            "velocity": 0.29133858267716534
          },
          {
            "duration": 0.3214282500000003,
            "durationTicks": 288,
            "midi": 87,
            "name": "D#6",
            "ticks": 14880,
            "time": 16.60712625,
            "velocity": 0.29133858267716534
          },
          {
            "duration": 0.21428549999999902,
            "durationTicks": 192,
            "midi": 84,
            "name": "C6",
            "ticks": 15168,
            "time": 16.9285545,
            "velocity": 0.29133858267716534
          },
          {
            "duration": 0.21428550000000257,
            "durationTicks": 192,
            "midi": 84,
            "name": "C6",
            "ticks": 15360,
            "time": 17.14284,
            "velocity": 0.29133858267716534
          },
          {
            "duration": 0.21428549999999902,
            "durationTicks": 192,
            "midi": 85,
            "name": "C#6",
            "ticks": 15552,
            "time": 17.357125500000002,
            "velocity": 0.29133858267716534
          },
          {
            "duration": 0.21428549999999902,
            "durationTicks": 192,
            "midi": 84,
            "name": "C6",
            "ticks": 15744,
            "time": 17.571411,
            "velocity": 0.29133858267716534
          },
          {
            "duration": 0.21428550000000257,
            "durationTicks": 192,
            "midi": 85,
            "name": "C#6",
            "ticks": 15936,
            "time": 17.7856965,
            "velocity": 0.29133858267716534
          },
          {
            "duration": 0.21428549999999902,
            "durationTicks": 192,
            "midi": 87,
            "name": "D#6",
            "ticks": 16128,
            "time": 17.999982000000003,
            "velocity": 0.29133858267716534
          },
          {
            "duration": 0.10714275000000129,
            "durationTicks": 96,
            "midi": 85,
            "name": "C#6",
            "ticks": 16320,
            "time": 18.214267500000002,
            "velocity": 0.29133858267716534
          },
          {
            "duration": 0.32142824999999675,
            "durationTicks": 288,
            "midi": 84,
            "name": "C6",
            "ticks": 16416,
            "time": 18.321410250000003,
            "velocity": 0.29133858267716534
          },
          {
            "duration": 0.21428550000000257,
            "durationTicks": 192,
            "midi": 87,
            "name": "D#6",
            "ticks": 16704,
            "time": 18.6428385,
            "velocity": 0.29133858267716534
          },
          {
            "duration": 0.21428549999999902,
            "durationTicks": 192,
            "midi": 85,
            "name": "C#6",
            "ticks": 16896,
            "time": 18.857124000000002,
            "velocity": 0.29133858267716534
          },
          {
            "duration": 0.21428549999999902,
            "durationTicks": 192,
            "midi": 84,
            "name": "C6",
            "ticks": 17088,
            "time": 19.0714095,
            "velocity": 0.29133858267716534
          },
          {
            "duration": 0.21428550000000257,
            "durationTicks": 192,
            "midi": 87,
            "name": "D#6",
            "ticks": 17280,
            "time": 19.285695,
            "velocity": 0.29133858267716534
          },
          {
            "duration": 0.10714274999999773,
            "durationTicks": 96,
            "midi": 85,
            "name": "C#6",
            "ticks": 17472,
            "time": 19.499980500000003,
            "velocity": 0.29133858267716534
          },
          {
            "duration": 0.21428550000000257,
            "durationTicks": 192,
            "midi": 82,
            "name": "A#5",
            "ticks": 17568,
            "time": 19.60712325,
            "velocity": 0.29133858267716534
          },
          {
            "duration": 0.10714274999999773,
            "durationTicks": 96,
            "midi": 84,
            "name": "C6",
            "ticks": 17760,
            "time": 19.821408750000003,
            "velocity": 0.29133858267716534
          },
          {
            "duration": 0.21428549999999902,
            "durationTicks": 192,
            "midi": 87,
            "name": "D#6",
            "ticks": 17856,
            "time": 19.9285515,
            "velocity": 0.29133858267716534
          },
          {
            "duration": 0.10714275000000129,
            "durationTicks": 96,
            "midi": 85,
            "name": "C#6",
            "ticks": 18048,
            "time": 20.142837,
            "velocity": 0.29133858267716534
          },
          {
            "duration": 0.3214282500000003,
            "durationTicks": 288,
            "midi": 84,
            "name": "C6",
            "ticks": 18144,
            "time": 20.24997975,
            "velocity": 0.29133858267716534
          },
          {
            "duration": 0.21428549999999902,
            "durationTicks": 192,
            "midi": 84,
            "name": "C6",
            "ticks": 18432,
            "time": 20.571408,
            "velocity": 0.29133858267716534
          },
          {
            "duration": 0.21428550000000257,
            "durationTicks": 192,
            "midi": 85,
            "name": "C#6",
            "ticks": 18624,
            "time": 20.7856935,
            "velocity": 0.29133858267716534
          },
          {
            "duration": 0.21428549999999902,
            "durationTicks": 192,
            "midi": 84,
            "name": "C6",
            "ticks": 18816,
            "time": 20.999979000000003,
            "velocity": 0.29133858267716534
          },
          {
            "duration": 0.21428549999999902,
            "durationTicks": 192,
            "midi": 85,
            "name": "C#6",
            "ticks": 19008,
            "time": 21.214264500000002,
            "velocity": 0.29133858267716534
          },
          {
            "duration": 0.21428549999999902,
            "durationTicks": 192,
            "midi": 87,
            "name": "D#6",
            "ticks": 19200,
            "time": 21.42855,
            "velocity": 0.29133858267716534
          },
          {
            "duration": 0.10714275000000129,
            "durationTicks": 96,
            "midi": 85,
            "name": "C#6",
            "ticks": 19392,
            "time": 21.6428355,
            "velocity": 0.29133858267716534
          },
          {
            "duration": 0.3214282500000003,
            "durationTicks": 288,
            "midi": 84,
            "name": "C6",
            "ticks": 19488,
            "time": 21.74997825,
            "velocity": 0.29133858267716534
          },
          {
            "duration": 0.21428549999999902,
            "durationTicks": 192,
            "midi": 89,
            "name": "F6",
            "ticks": 19776,
            "time": 22.071406500000002,
            "velocity": 0.29133858267716534
          },
          {
            "duration": 0.21428550000000257,
            "durationTicks": 192,
            "midi": 82,
            "name": "A#5",
            "ticks": 19968,
            "time": 22.285692,
            "velocity": 0.29133858267716534
          },
          {
            "duration": 0.21428549999999902,
            "durationTicks": 192,
            "midi": 84,
            "name": "C6",
            "ticks": 20160,
            "time": 22.499977500000004,
            "velocity": 0.29133858267716534
          },
          {
            "duration": 0.21428549999999902,
            "durationTicks": 192,
            "midi": 82,
            "name": "A#5",
            "ticks": 20352,
            "time": 22.714263000000003,
            "velocity": 0.29133858267716534
          },
          {
            "duration": 0.21428549999999902,
            "durationTicks": 192,
            "midi": 85,
            "name": "C#6",
            "ticks": 20544,
            "time": 22.9285485,
            "velocity": 0.29133858267716534
          },
          {
            "duration": 0.21428550000000257,
            "durationTicks": 192,
            "midi": 87,
            "name": "D#6",
            "ticks": 20736,
            "time": 23.142834,
            "velocity": 0.29133858267716534
          },
          {
            "duration": 0.10714274999999773,
            "durationTicks": 96,
            "midi": 85,
            "name": "C#6",
            "ticks": 20928,
            "time": 23.357119500000003,
            "velocity": 0.29133858267716534
          },
          {
            "duration": 0.3214282500000003,
            "durationTicks": 288,
            "midi": 84,
            "name": "C6",
            "ticks": 21024,
            "time": 23.46426225,
            "velocity": 0.29133858267716534
          },
          {
            "duration": 0.21428550000000257,
            "durationTicks": 192,
            "midi": 84,
            "name": "C6",
            "ticks": 21312,
            "time": 23.7856905,
            "velocity": 0.29133858267716534
          },
          {
            "duration": 0.21428549999999902,
            "durationTicks": 192,
            "midi": 85,
            "name": "C#6",
            "ticks": 21504,
            "time": 23.999976000000004,
            "velocity": 0.29133858267716534
          },
          {
            "duration": 0.21428549999999902,
            "durationTicks": 192,
            "midi": 89,
            "name": "F6",
            "ticks": 21696,
            "time": 24.214261500000003,
            "velocity": 0.29133858267716534
          },
          {
            "duration": 0.21428549999999902,
            "durationTicks": 192,
            "midi": 85,
            "name": "C#6",
            "ticks": 21888,
            "time": 24.428547000000002,
            "velocity": 0.29133858267716534
          },
          {
            "duration": 0.21428550000000257,
            "durationTicks": 192,
            "midi": 89,
            "name": "F6",
            "ticks": 22080,
            "time": 24.6428325,
            "velocity": 0.29133858267716534
          },
          {
            "duration": 0.21428549999999902,
            "durationTicks": 192,
            "midi": 87,
            "name": "D#6",
            "ticks": 22272,
            "time": 24.857118000000003,
            "velocity": 0.29133858267716534
          },
          {
            "duration": 0.10714275000000129,
            "durationTicks": 96,
            "midi": 89,
            "name": "F6",
            "ticks": 22464,
            "time": 25.071403500000002,
            "velocity": 0.29133858267716534
          },
          {
            "duration": 0.32142824999999675,
            "durationTicks": 288,
            "midi": 87,
            "name": "D#6",
            "ticks": 22560,
            "time": 25.178546250000004,
            "velocity": 0.29133858267716534
          },
          {
            "duration": 0.21428550000000257,
            "durationTicks": 192,
            "midi": 85,
            "name": "C#6",
            "ticks": 22848,
            "time": 25.4999745,
            "velocity": 0.29133858267716534
          },
          {
            "duration": 0.21428549999999902,
            "durationTicks": 192,
            "midi": 87,
            "name": "D#6",
            "ticks": 23040,
            "time": 25.714260000000003,
            "velocity": 0.29133858267716534
          },
          {
            "duration": 0.21428549999999902,
            "durationTicks": 192,
            "midi": 85,
            "name": "C#6",
            "ticks": 23232,
            "time": 25.928545500000002,
            "velocity": 0.29133858267716534
          },
          {
            "duration": 0.21428550000000257,
            "durationTicks": 192,
            "midi": 87,
            "name": "D#6",
            "ticks": 23424,
            "time": 26.142831,
            "velocity": 0.29133858267716534
          },
          {
            "duration": 0.21428549999999902,
            "durationTicks": 192,
            "midi": 87,
            "name": "D#6",
            "ticks": 23616,
            "time": 26.357116500000004,
            "velocity": 0.29133858267716534
          },
          {
            "duration": 0.21428549999999902,
            "durationTicks": 192,
            "midi": 89,
            "name": "F6",
            "ticks": 23808,
            "time": 26.571402000000003,
            "velocity": 0.29133858267716534
          },
          {
            "duration": 0.10714275000000129,
            "durationTicks": 96,
            "midi": 87,
            "name": "D#6",
            "ticks": 24000,
            "time": 26.7856875,
            "velocity": 0.29133858267716534
          },
          {
            "duration": 0.3214282500000003,
            "durationTicks": 288,
            "midi": 87,
            "name": "D#6",
            "ticks": 24096,
            "time": 26.892830250000003,
            "velocity": 0.29133858267716534
          },
          {
            "duration": 0.21428549999999902,
            "durationTicks": 192,
            "midi": 84,
            "name": "C6",
            "ticks": 24384,
            "time": 27.214258500000003,
            "velocity": 0.29133858267716534
          },
          {
            "duration": 0.21428549999999902,
            "durationTicks": 192,
            "midi": 84,
            "name": "C6",
            "ticks": 24576,
            "time": 27.428544000000002,
            "velocity": 0.29133858267716534
          },
          {
            "duration": 0.21428550000000257,
            "durationTicks": 192,
            "midi": 85,
            "name": "C#6",
            "ticks": 24768,
            "time": 27.6428295,
            "velocity": 0.29133858267716534
          },
          {
            "duration": 0.21428549999999902,
            "durationTicks": 192,
            "midi": 84,
            "name": "C6",
            "ticks": 24960,
            "time": 27.857115000000004,
            "velocity": 0.29133858267716534
          },
          {
            "duration": 0.21428549999999902,
            "durationTicks": 192,
            "midi": 85,
            "name": "C#6",
            "ticks": 25152,
            "time": 28.071400500000003,
            "velocity": 0.29133858267716534
          },
          {
            "duration": 0.21428549999999902,
            "durationTicks": 192,
            "midi": 87,
            "name": "D#6",
            "ticks": 25344,
            "time": 28.285686000000002,
            "velocity": 0.29133858267716534
          },
          {
            "duration": 0.10714275000000129,
            "durationTicks": 96,
            "midi": 85,
            "name": "C#6",
            "ticks": 25536,
            "time": 28.4999715,
            "velocity": 0.29133858267716534
          },
          {
            "duration": 0.3214282500000003,
            "durationTicks": 288,
            "midi": 84,
            "name": "C6",
            "ticks": 25632,
            "time": 28.607114250000002,
            "velocity": 0.29133858267716534
          },
          {
            "duration": 0.21428549999999902,
            "durationTicks": 192,
            "midi": 87,
            "name": "D#6",
            "ticks": 25920,
            "time": 28.928542500000002,
            "velocity": 0.29133858267716534
          },
          {
            "duration": 0.21428550000000257,
            "durationTicks": 192,
            "midi": 85,
            "name": "C#6",
            "ticks": 26112,
            "time": 29.142828,
            "velocity": 0.29133858267716534
          },
          {
            "duration": 0.21428549999999902,
            "durationTicks": 192,
            "midi": 84,
            "name": "C6",
            "ticks": 26304,
            "time": 29.357113500000004,
            "velocity": 0.29133858267716534
          },
          {
            "duration": 0.21428549999999902,
            "durationTicks": 192,
            "midi": 87,
            "name": "D#6",
            "ticks": 26496,
            "time": 29.571399000000003,
            "velocity": 0.29133858267716534
          },
          {
            "duration": 0.10714275000000129,
            "durationTicks": 96,
            "midi": 85,
            "name": "C#6",
            "ticks": 26688,
            "time": 29.785684500000002,
            "velocity": 0.29133858267716534
          },
          {
            "duration": 0.21428549999999902,
            "durationTicks": 192,
            "midi": 82,
            "name": "A#5",
            "ticks": 26784,
            "time": 29.892827250000003,
            "velocity": 0.29133858267716534
          },
          {
            "duration": 0.10714275000000129,
            "durationTicks": 96,
            "midi": 84,
            "name": "C6",
            "ticks": 26976,
            "time": 30.107112750000002,
            "velocity": 0.29133858267716534
          },
          {
            "duration": 0.21428549999999902,
            "durationTicks": 192,
            "midi": 87,
            "name": "D#6",
            "ticks": 27072,
            "time": 30.214255500000004,
            "velocity": 0.29133858267716534
          },
          {
            "duration": 0.10714275000000129,
            "durationTicks": 96,
            "midi": 85,
            "name": "C#6",
            "ticks": 27264,
            "time": 30.428541000000003,
            "velocity": 0.29133858267716534
          },
          {
            "duration": 0.32142824999999675,
            "durationTicks": 288,
            "midi": 84,
            "name": "C6",
            "ticks": 27360,
            "time": 30.535683750000004,
            "velocity": 0.29133858267716534
          },
          {
            "duration": 0.21428550000000257,
            "durationTicks": 192,
            "midi": 84,
            "name": "C6",
            "ticks": 27648,
            "time": 30.857112,
            "velocity": 0.29133858267716534
          },
          {
            "duration": 0.21428549999999902,
            "durationTicks": 192,
            "midi": 85,
            "name": "C#6",
            "ticks": 27840,
            "time": 31.071397500000003,
            "velocity": 0.29133858267716534
          },
          {
            "duration": 0.21428549999999902,
            "durationTicks": 192,
            "midi": 84,
            "name": "C6",
            "ticks": 28032,
            "time": 31.285683000000002,
            "velocity": 0.29133858267716534
          },
          {
            "duration": 0.21428550000000257,
            "durationTicks": 192,
            "midi": 85,
            "name": "C#6",
            "ticks": 28224,
            "time": 31.4999685,
            "velocity": 0.29133858267716534
          },
          {
            "duration": 0.21428549999999902,
            "durationTicks": 192,
            "midi": 87,
            "name": "D#6",
            "ticks": 28416,
            "time": 31.714254000000004,
            "velocity": 0.29133858267716534
          },
          {
            "duration": 0.10714274999999773,
            "durationTicks": 96,
            "midi": 85,
            "name": "C#6",
            "ticks": 28608,
            "time": 31.928539500000003,
            "velocity": 0.29133858267716534
          },
          {
            "duration": 0.32142825000000386,
            "durationTicks": 288,
            "midi": 84,
            "name": "C6",
            "ticks": 28704,
            "time": 32.03568225,
            "velocity": 0.29133858267716534
          },
          {
            "duration": 0.21428549999999547,
            "durationTicks": 192,
            "midi": 89,
            "name": "F6",
            "ticks": 28992,
            "time": 32.357110500000005,
            "velocity": 0.29133858267716534
          },
          {
            "duration": 0.21428550000000257,
            "durationTicks": 192,
            "midi": 82,
            "name": "A#5",
            "ticks": 29184,
            "time": 32.571396,
            "velocity": 0.29133858267716534
          },
          {
            "duration": 0.21428550000000257,
            "durationTicks": 192,
            "midi": 84,
            "name": "C6",
            "ticks": 29376,
            "time": 32.7856815,
            "velocity": 0.29133858267716534
          },
          {
            "duration": 0.21428549999999547,
            "durationTicks": 192,
            "midi": 82,
            "name": "A#5",
            "ticks": 29568,
            "time": 32.999967000000005,
            "velocity": 0.29133858267716534
          },
          {
            "duration": 0.21428550000000257,
            "durationTicks": 192,
            "midi": 85,
            "name": "C#6",
            "ticks": 29760,
            "time": 33.2142525,
            "velocity": 0.29133858267716534
          },
          {
            "duration": 0.21428550000000257,
            "durationTicks": 192,
            "midi": 87,
            "name": "D#6",
            "ticks": 29952,
            "time": 33.428538,
            "velocity": 0.29133858267716534
          },
          {
            "duration": 0.10714274999999418,
            "durationTicks": 96,
            "midi": 85,
            "name": "C#6",
            "ticks": 30144,
            "time": 33.642823500000006,
            "velocity": 0.29133858267716534
          },
          {
            "duration": 0.32142825000000386,
            "durationTicks": 288,
            "midi": 84,
            "name": "C6",
            "ticks": 30240,
            "time": 33.74996625,
            "velocity": 0.29133858267716534
          },
          {
            "duration": 0.21428549999999547,
            "durationTicks": 192,
            "midi": 84,
            "name": "C6",
            "ticks": 30528,
            "time": 34.071394500000004,
            "velocity": 0.29133858267716534
          },
          {
            "duration": 0.21428550000000257,
            "durationTicks": 192,
            "midi": 85,
            "name": "C#6",
            "ticks": 30720,
            "time": 34.28568,
            "velocity": 0.29133858267716534
          },
          {
            "duration": 0.21428550000000257,
            "durationTicks": 192,
            "midi": 89,
            "name": "F6",
            "ticks": 30912,
            "time": 34.4999655,
            "velocity": 0.29133858267716534
          },
          {
            "duration": 0.21428549999999547,
            "durationTicks": 192,
            "midi": 85,
            "name": "C#6",
            "ticks": 31104,
            "time": 34.714251000000004,
            "velocity": 0.29133858267716534
          },
          {
            "duration": 0.21428550000000257,
            "durationTicks": 192,
            "midi": 89,
            "name": "F6",
            "ticks": 31296,
            "time": 34.9285365,
            "velocity": 0.29133858267716534
          },
          {
            "duration": 0.21428550000000257,
            "durationTicks": 192,
            "midi": 87,
            "name": "D#6",
            "ticks": 31488,
            "time": 35.142822,
            "velocity": 0.29133858267716534
          },
          {
            "duration": 0.10714275000000129,
            "durationTicks": 96,
            "midi": 89,
            "name": "F6",
            "ticks": 31680,
            "time": 35.357107500000005,
            "velocity": 0.29133858267716534
          },
          {
            "duration": 0.32142824999999675,
            "durationTicks": 288,
            "midi": 87,
            "name": "D#6",
            "ticks": 31776,
            "time": 35.464250250000006,
            "velocity": 0.29133858267716534
          },
          {
            "duration": 0.21428550000000257,
            "durationTicks": 192,
            "midi": 85,
            "name": "C#6",
            "ticks": 32064,
            "time": 35.7856785,
            "velocity": 0.29133858267716534
          },
          {
            "duration": 0.21428549999999547,
            "durationTicks": 192,
            "midi": 87,
            "name": "D#6",
            "ticks": 32256,
            "time": 35.999964000000006,
            "velocity": 0.29133858267716534
          },
          {
            "duration": 0.21428550000000257,
            "durationTicks": 192,
            "midi": 85,
            "name": "C#6",
            "ticks": 32448,
            "time": 36.2142495,
            "velocity": 0.29133858267716534
          },
          {
            "duration": 0.21428550000000257,
            "durationTicks": 192,
            "midi": 87,
            "name": "D#6",
            "ticks": 32640,
            "time": 36.428535000000004,
            "velocity": 0.29133858267716534
          },
          {
            "duration": 0.21428549999999547,
            "durationTicks": 192,
            "midi": 87,
            "name": "D#6",
            "ticks": 32832,
            "time": 36.642820500000006,
            "velocity": 0.29133858267716534
          },
          {
            "duration": 0.21428550000000257,
            "durationTicks": 192,
            "midi": 89,
            "name": "F6",
            "ticks": 33024,
            "time": 36.857106,
            "velocity": 0.29133858267716534
          },
          {
            "duration": 0.10714275000000129,
            "durationTicks": 96,
            "midi": 87,
            "name": "D#6",
            "ticks": 33216,
            "time": 37.071391500000004,
            "velocity": 0.29133858267716534
          },
          {
            "duration": 0.32142824999999675,
            "durationTicks": 288,
            "midi": 87,
            "name": "D#6",
            "ticks": 33312,
            "time": 37.178534250000006,
            "velocity": 0.29133858267716534
          },
          {
            "duration": 0.21428550000000257,
            "durationTicks": 192,
            "midi": 84,
            "name": "C6",
            "ticks": 33600,
            "time": 37.4999625,
            "velocity": 0.29133858267716534
          },
          {
            "duration": 0.21428549999999547,
            "durationTicks": 192,
            "midi": 84,
            "name": "C6",
            "ticks": 33792,
            "time": 37.714248000000005,
            "velocity": 0.29133858267716534
          },
          {
            "duration": 0.21428550000000257,
            "durationTicks": 192,
            "midi": 85,
            "name": "C#6",
            "ticks": 33984,
            "time": 37.9285335,
            "velocity": 0.29133858267716534
          },
          {
            "duration": 0.21428550000000257,
            "durationTicks": 192,
            "midi": 84,
            "name": "C6",
            "ticks": 34176,
            "time": 38.142819,
            "velocity": 0.29133858267716534
          },
          {
            "duration": 0.21428549999999547,
            "durationTicks": 192,
            "midi": 85,
            "name": "C#6",
            "ticks": 34368,
            "time": 38.357104500000005,
            "velocity": 0.29133858267716534
          },
          {
            "duration": 0.21428550000000257,
            "durationTicks": 192,
            "midi": 87,
            "name": "D#6",
            "ticks": 34560,
            "time": 38.57139,
            "velocity": 0.29133858267716534
          },
          {
            "duration": 0.10714275000000129,
            "durationTicks": 96,
            "midi": 85,
            "name": "C#6",
            "ticks": 34752,
            "time": 38.7856755,
            "velocity": 0.29133858267716534
          },
          {
            "duration": 0.32142824999999675,
            "durationTicks": 288,
            "midi": 84,
            "name": "C6",
            "ticks": 34848,
            "time": 38.892818250000005,
            "velocity": 0.29133858267716534
          },
          {
            "duration": 0.21428550000000257,
            "durationTicks": 192,
            "midi": 87,
            "name": "D#6",
            "ticks": 35136,
            "time": 39.2142465,
            "velocity": 0.29133858267716534
          },
          {
            "duration": 0.21428550000000257,
            "durationTicks": 192,
            "midi": 85,
            "name": "C#6",
            "ticks": 35328,
            "time": 39.428532000000004,
            "velocity": 0.29133858267716534
          },
          {
            "duration": 0.21428549999999547,
            "durationTicks": 192,
            "midi": 84,
            "name": "C6",
            "ticks": 35520,
            "time": 39.64281750000001,
            "velocity": 0.29133858267716534
          },
          {
            "duration": 0.21428550000000257,
            "durationTicks": 192,
            "midi": 87,
            "name": "D#6",
            "ticks": 35712,
            "time": 39.857103,
            "velocity": 0.29133858267716534
          },
          {
            "duration": 0.10714275000000129,
            "durationTicks": 96,
            "midi": 85,
            "name": "C#6",
            "ticks": 35904,
            "time": 40.071388500000005,
            "velocity": 0.29133858267716534
          },
          {
            "duration": 0.21428549999999547,
            "durationTicks": 192,
            "midi": 82,
            "name": "A#5",
            "ticks": 36000,
            "time": 40.178531250000006,
            "velocity": 0.29133858267716534
          },
          {
            "duration": 0.10714275000000129,
            "durationTicks": 96,
            "midi": 84,
            "name": "C6",
            "ticks": 36192,
            "time": 40.39281675,
            "velocity": 0.29133858267716534
          },
          {
            "duration": 0.21428550000000257,
            "durationTicks": 192,
            "midi": 87,
            "name": "D#6",
            "ticks": 36288,
            "time": 40.4999595,
            "velocity": 0.29133858267716534
          },
          {
            "duration": 0.10714275000000129,
            "durationTicks": 96,
            "midi": 85,
            "name": "C#6",
            "ticks": 36480,
            "time": 40.714245000000005,
            "velocity": 0.29133858267716534
          },
          {
            "duration": 0.32142824999999675,
            "durationTicks": 288,
            "midi": 84,
            "name": "C6",
            "ticks": 36576,
            "time": 40.82138775000001,
            "velocity": 0.29133858267716534
          },
          {
            "duration": 0.21428550000000257,
            "durationTicks": 192,
            "midi": 83,
            "name": "B5",
            "ticks": 36864,
            "time": 41.142816,
            "velocity": 0.29133858267716534
          },
          {
            "duration": 0.21428549999999547,
            "durationTicks": 192,
            "midi": 84,
            "name": "C6",
            "ticks": 37056,
            "time": 41.357101500000006,
            "velocity": 0.29133858267716534
          },
          {
            "duration": 0.21428550000000257,
            "durationTicks": 192,
            "midi": 83,
            "name": "B5",
            "ticks": 37248,
            "time": 41.571387,
            "velocity": 0.29133858267716534
          },
          {
            "duration": 0.21428550000000257,
            "durationTicks": 192,
            "midi": 84,
            "name": "C6",
            "ticks": 37440,
            "time": 41.785672500000004,
            "velocity": 0.29133858267716534
          },
          {
            "duration": 0.21428549999999547,
            "durationTicks": 192,
            "midi": 86,
            "name": "D6",
            "ticks": 37632,
            "time": 41.99995800000001,
            "velocity": 0.29133858267716534
          },
          {
            "duration": 0.10714275000000129,
            "durationTicks": 96,
            "midi": 84,
            "name": "C6",
            "ticks": 37824,
            "time": 42.2142435,
            "velocity": 0.29133858267716534
          },
          {
            "duration": 0.32142824999999675,
            "durationTicks": 288,
            "midi": 83,
            "name": "B5",
            "ticks": 37920,
            "time": 42.32138625,
            "velocity": 0.29133858267716534
          },
          {
            "duration": 0.21428550000000257,
            "durationTicks": 192,
            "midi": 88,
            "name": "E6",
            "ticks": 38208,
            "time": 42.6428145,
            "velocity": 0.29133858267716534
          },
          {
            "duration": 0.21428550000000257,
            "durationTicks": 192,
            "midi": 81,
            "name": "A5",
            "ticks": 38400,
            "time": 42.8571,
            "velocity": 0.29133858267716534
          },
          {
            "duration": 0.21428549999999547,
            "durationTicks": 192,
            "midi": 83,
            "name": "B5",
            "ticks": 38592,
            "time": 43.071385500000005,
            "velocity": 0.29133858267716534
          },
          {
            "duration": 0.21428550000000257,
            "durationTicks": 192,
            "midi": 81,
            "name": "A5",
            "ticks": 38784,
            "time": 43.285671,
            "velocity": 0.29133858267716534
          },
          {
            "duration": 0.21428550000000257,
            "durationTicks": 192,
            "midi": 84,
            "name": "C6",
            "ticks": 38976,
            "time": 43.4999565,
            "velocity": 0.29133858267716534
          },
          {
            "duration": 0.21428549999999547,
            "durationTicks": 192,
            "midi": 86,
            "name": "D6",
            "ticks": 39168,
            "time": 43.714242000000006,
            "velocity": 0.29133858267716534
          },
          {
            "duration": 0.10714275000000129,
            "durationTicks": 96,
            "midi": 84,
            "name": "C6",
            "ticks": 39360,
            "time": 43.9285275,
            "velocity": 0.29133858267716534
          },
          {
            "duration": 0.32142825000000386,
            "durationTicks": 288,
            "midi": 83,
            "name": "B5",
            "ticks": 39456,
            "time": 44.03567025,
            "velocity": 0.29133858267716534
          },
          {
            "duration": 0.21428549999999547,
            "durationTicks": 192,
            "midi": 83,
            "name": "B5",
            "ticks": 39744,
            "time": 44.357098500000006,
            "velocity": 0.29133858267716534
          },
          {
            "duration": 0.21428550000000257,
            "durationTicks": 192,
            "midi": 84,
            "name": "C6",
            "ticks": 39936,
            "time": 44.571384,
            "velocity": 0.29133858267716534
          },
          {
            "duration": 0.21428550000000257,
            "durationTicks": 192,
            "midi": 88,
            "name": "E6",
            "ticks": 40128,
            "time": 44.785669500000004,
            "velocity": 0.29133858267716534
          },
          {
            "duration": 0.21428549999999547,
            "durationTicks": 192,
            "midi": 84,
            "name": "C6",
            "ticks": 40320,
            "time": 44.99995500000001,
            "velocity": 0.29133858267716534
          },
          {
            "duration": 0.21428550000000257,
            "durationTicks": 192,
            "midi": 88,
            "name": "E6",
            "ticks": 40512,
            "time": 45.2142405,
            "velocity": 0.29133858267716534
          },
          {
            "duration": 0.21428549999999547,
            "durationTicks": 192,
            "midi": 86,
            "name": "D6",
            "ticks": 40704,
            "time": 45.428526000000005,
            "velocity": 0.29133858267716534
          },
          {
            "duration": 0.10714275000000129,
            "durationTicks": 96,
            "midi": 88,
            "name": "E6",
            "ticks": 40896,
            "time": 45.6428115,
            "velocity": 0.29133858267716534
          },
          {
            "duration": 0.32142825000000386,
            "durationTicks": 288,
            "midi": 86,
            "name": "D6",
            "ticks": 40992,
            "time": 45.74995425,
            "velocity": 0.29133858267716534
          },
          {
            "duration": 0.21428549999999547,
            "durationTicks": 192,
            "midi": 84,
            "name": "C6",
            "ticks": 41280,
            "time": 46.071382500000006,
            "velocity": 0.29133858267716534
          },
          {
            "duration": 0.21428550000000257,
            "durationTicks": 192,
            "midi": 86,
            "name": "D6",
            "ticks": 41472,
            "time": 46.285668,
            "velocity": 0.29133858267716534
          },
          {
            "duration": 0.21428550000000257,
            "durationTicks": 192,
            "midi": 84,
            "name": "C6",
            "ticks": 41664,
            "time": 46.499953500000004,
            "velocity": 0.29133858267716534
          },
          {
            "duration": 0.21428549999999547,
            "durationTicks": 192,
            "midi": 86,
            "name": "D6",
            "ticks": 41856,
            "time": 46.714239000000006,
            "velocity": 0.29133858267716534
          },
          {
            "duration": 0.21428550000000257,
            "durationTicks": 192,
            "midi": 86,
            "name": "D6",
            "ticks": 42048,
            "time": 46.9285245,
            "velocity": 0.29133858267716534
          },
          {
            "duration": 0.21428550000000257,
            "durationTicks": 192,
            "midi": 88,
            "name": "E6",
            "ticks": 42240,
            "time": 47.142810000000004,
            "velocity": 0.29133858267716534
          },
          {
            "duration": 0.10714274999999418,
            "durationTicks": 96,
            "midi": 86,
            "name": "D6",
            "ticks": 42432,
            "time": 47.35709550000001,
            "velocity": 0.29133858267716534
          },
          {
            "duration": 0.32142825000000386,
            "durationTicks": 288,
            "midi": 86,
            "name": "D6",
            "ticks": 42528,
            "time": 47.46423825,
            "velocity": 0.29133858267716534
          },
          {
            "duration": 0.21428550000000257,
            "durationTicks": 192,
            "midi": 83,
            "name": "B5",
            "ticks": 42816,
            "time": 47.785666500000005,
            "velocity": 0.29133858267716534
          },
          {
            "duration": 0.21428549999999547,
            "durationTicks": 192,
            "midi": 83,
            "name": "B5",
            "ticks": 43008,
            "time": 47.99995200000001,
            "velocity": 0.29133858267716534
          },
          {
            "duration": 0.21428550000000257,
            "durationTicks": 192,
            "midi": 84,
            "name": "C6",
            "ticks": 43200,
            "time": 48.2142375,
            "velocity": 0.29133858267716534
          },
          {
            "duration": 0.21428549999999547,
            "durationTicks": 192,
            "midi": 83,
            "name": "B5",
            "ticks": 43392,
            "time": 48.428523000000006,
            "velocity": 0.29133858267716534
          },
          {
            "duration": 0.21428550000000257,
            "durationTicks": 192,
            "midi": 84,
            "name": "C6",
            "ticks": 43584,
            "time": 48.6428085,
            "velocity": 0.29133858267716534
          },
          {
            "duration": 0.21428550000000257,
            "durationTicks": 192,
            "midi": 86,
            "name": "D6",
            "ticks": 43776,
            "time": 48.857094000000004,
            "velocity": 0.29133858267716534
          },
          {
            "duration": 0.10714275000000129,
            "durationTicks": 96,
            "midi": 84,
            "name": "C6",
            "ticks": 43968,
            "time": 49.071379500000006,
            "velocity": 0.29133858267716534
          },
          {
            "duration": 0.32142824999999675,
            "durationTicks": 288,
            "midi": 83,
            "name": "B5",
            "ticks": 44064,
            "time": 49.17852225000001,
            "velocity": 0.29133858267716534
          },
          {
            "duration": 0.21428550000000257,
            "durationTicks": 192,
            "midi": 86,
            "name": "D6",
            "ticks": 44352,
            "time": 49.499950500000004,
            "velocity": 0.29133858267716534
          },
          {
            "duration": 0.21428549999999547,
            "durationTicks": 192,
            "midi": 84,
            "name": "C6",
            "ticks": 44544,
            "time": 49.71423600000001,
            "velocity": 0.29133858267716534
          },
          {
            "duration": 0.21428550000000257,
            "durationTicks": 192,
            "midi": 83,
            "name": "B5",
            "ticks": 44736,
            "time": 49.9285215,
            "velocity": 0.29133858267716534
          },
          {
            "duration": 0.21428550000000257,
            "durationTicks": 192,
            "midi": 86,
            "name": "D6",
            "ticks": 44928,
            "time": 50.142807000000005,
            "velocity": 0.29133858267716534
          },
          {
            "duration": 0.10714274999999418,
            "durationTicks": 96,
            "midi": 84,
            "name": "C6",
            "ticks": 45120,
            "time": 50.35709250000001,
            "velocity": 0.29133858267716534
          },
          {
            "duration": 0.21428550000000257,
            "durationTicks": 192,
            "midi": 81,
            "name": "A5",
            "ticks": 45216,
            "time": 50.46423525,
            "velocity": 0.29133858267716534
          },
          {
            "duration": 0.10714275000000129,
            "durationTicks": 96,
            "midi": 83,
            "name": "B5",
            "ticks": 45408,
            "time": 50.678520750000004,
            "velocity": 0.29133858267716534
          },
          {
            "duration": 0.21428549999999547,
            "durationTicks": 192,
            "midi": 86,
            "name": "D6",
            "ticks": 45504,
            "time": 50.785663500000005,
            "velocity": 0.29133858267716534
          },
          {
            "duration": 0.10714275000000129,
            "durationTicks": 96,
            "midi": 84,
            "name": "C6",
            "ticks": 45696,
            "time": 50.999949,
            "velocity": 0.29133858267716534
          },
          {
            "duration": 0.32142825000000386,
            "durationTicks": 288,
            "midi": 83,
            "name": "B5",
            "ticks": 45792,
            "time": 51.10709175,
            "velocity": 0.29133858267716534
          },
          {
            "duration": 0.21428549999999547,
            "durationTicks": 192,
            "midi": 83,
            "name": "B5",
            "ticks": 46080,
            "time": 51.428520000000006,
            "velocity": 0.29133858267716534
          },
          {
            "duration": 0.21428550000000257,
            "durationTicks": 192,
            "midi": 84,
            "name": "C6",
            "ticks": 46272,
            "time": 51.6428055,
            "velocity": 0.29133858267716534
          },
          {
            "duration": 0.21428550000000257,
            "durationTicks": 192,
            "midi": 83,
            "name": "B5",
            "ticks": 46464,
            "time": 51.857091000000004,
            "velocity": 0.29133858267716534
          },
          {
            "duration": 0.21428549999999547,
            "durationTicks": 192,
            "midi": 84,
            "name": "C6",
            "ticks": 46656,
            "time": 52.07137650000001,
            "velocity": 0.29133858267716534
          },
          {
            "duration": 0.21428550000000257,
            "durationTicks": 192,
            "midi": 86,
            "name": "D6",
            "ticks": 46848,
            "time": 52.285662,
            "velocity": 0.29133858267716534
          },
          {
            "duration": 0.10714275000000129,
            "durationTicks": 96,
            "midi": 84,
            "name": "C6",
            "ticks": 47040,
            "time": 52.499947500000005,
            "velocity": 0.29133858267716534
          },
          {
            "duration": 0.32142824999999675,
            "durationTicks": 288,
            "midi": 83,
            "name": "B5",
            "ticks": 47136,
            "time": 52.607090250000006,
            "velocity": 0.29133858267716534
          },
          {
            "duration": 0.21428550000000257,
            "durationTicks": 192,
            "midi": 88,
            "name": "E6",
            "ticks": 47424,
            "time": 52.9285185,
            "velocity": 0.29133858267716534
          },
          {
            "duration": 0.21428550000000257,
            "durationTicks": 192,
            "midi": 81,
            "name": "A5",
            "ticks": 47616,
            "time": 53.142804000000005,
            "velocity": 0.29133858267716534
          },
          {
            "duration": 0.21428549999999547,
            "durationTicks": 192,
            "midi": 83,
            "name": "B5",
            "ticks": 47808,
            "time": 53.35708950000001,
            "velocity": 0.29133858267716534
          },
          {
            "duration": 0.21428550000000257,
            "durationTicks": 192,
            "midi": 81,
            "name": "A5",
            "ticks": 48000,
            "time": 53.571375,
            "velocity": 0.29133858267716534
          },
          {
            "duration": 0.21428549999999547,
            "durationTicks": 192,
            "midi": 84,
            "name": "C6",
            "ticks": 48192,
            "time": 53.785660500000006,
            "velocity": 0.29133858267716534
          },
          {
            "duration": 0.21428550000000257,
            "durationTicks": 192,
            "midi": 86,
            "name": "D6",
            "ticks": 48384,
            "time": 53.999946,
            "velocity": 0.29133858267716534
          },
          {
            "duration": 0.10714275000000129,
            "durationTicks": 96,
            "midi": 84,
            "name": "C6",
            "ticks": 48576,
            "time": 54.214231500000004,
            "velocity": 0.29133858267716534
          },
          {
            "duration": 0.32142824999999675,
            "durationTicks": 288,
            "midi": 83,
            "name": "B5",
            "ticks": 48672,
            "time": 54.321374250000005,
            "velocity": 0.29133858267716534
          },
          {
            "duration": 0.21428550000000257,
            "durationTicks": 192,
            "midi": 83,
            "name": "B5",
            "ticks": 48960,
            "time": 54.6428025,
            "velocity": 0.29133858267716534
          },
          {
            "duration": 0.21428550000000257,
            "durationTicks": 192,
            "midi": 84,
            "name": "C6",
            "ticks": 49152,
            "time": 54.857088000000005,
            "velocity": 0.29133858267716534
          },
          {
            "duration": 0.21428549999999547,
            "durationTicks": 192,
            "midi": 88,
            "name": "E6",
            "ticks": 49344,
            "time": 55.07137350000001,
            "velocity": 0.29133858267716534
          },
          {
            "duration": 0.21428550000000257,
            "durationTicks": 192,
            "midi": 84,
            "name": "C6",
            "ticks": 49536,
            "time": 55.285659,
            "velocity": 0.29133858267716534
          },
          {
            "duration": 0.21428550000000257,
            "durationTicks": 192,
            "midi": 88,
            "name": "E6",
            "ticks": 49728,
            "time": 55.499944500000005,
            "velocity": 0.29133858267716534
          },
          {
            "duration": 0.21428549999999547,
            "durationTicks": 192,
            "midi": 86,
            "name": "D6",
            "ticks": 49920,
            "time": 55.71423000000001,
            "velocity": 0.29133858267716534
          },
          {
            "duration": 0.10714275000000129,
            "durationTicks": 96,
            "midi": 88,
            "name": "E6",
            "ticks": 50112,
            "time": 55.9285155,
            "velocity": 0.29133858267716534
          },
          {
            "duration": 0.32142824999999675,
            "durationTicks": 288,
            "midi": 86,
            "name": "D6",
            "ticks": 50208,
            "time": 56.035658250000004,
            "velocity": 0.29133858267716534
          },
          {
            "duration": 0.21428550000000257,
            "durationTicks": 192,
            "midi": 84,
            "name": "C6",
            "ticks": 50496,
            "time": 56.3570865,
            "velocity": 0.29133858267716534
          },
          {
            "duration": 0.21428550000000257,
            "durationTicks": 192,
            "midi": 86,
            "name": "D6",
            "ticks": 50688,
            "time": 56.571372000000004,
            "velocity": 0.29133858267716534
          },
          {
            "duration": 0.21428549999999547,
            "durationTicks": 192,
            "midi": 84,
            "name": "C6",
            "ticks": 50880,
            "time": 56.785657500000006,
            "velocity": 0.29133858267716534
          },
          {
            "duration": 0.21428550000000257,
            "durationTicks": 192,
            "midi": 86,
            "name": "D6",
            "ticks": 51072,
            "time": 56.999943,
            "velocity": 0.29133858267716534
          },
          {
            "duration": 0.21428550000000257,
            "durationTicks": 192,
            "midi": 86,
            "name": "D6",
            "ticks": 51264,
            "time": 57.214228500000004,
            "velocity": 0.29133858267716534
          },
          {
            "duration": 0.21428549999999547,
            "durationTicks": 192,
            "midi": 88,
            "name": "E6",
            "ticks": 51456,
            "time": 57.42851400000001,
            "velocity": 0.29133858267716534
          },
          {
            "duration": 0.10714275000000129,
            "durationTicks": 96,
            "midi": 86,
            "name": "D6",
            "ticks": 51648,
            "time": 57.6427995,
            "velocity": 0.29133858267716534
          },
          {
            "duration": 0.32142825000000386,
            "durationTicks": 288,
            "midi": 86,
            "name": "D6",
            "ticks": 51744,
            "time": 57.749942250000004,
            "velocity": 0.29133858267716534
          },
          {
            "duration": 0.21428549999999547,
            "durationTicks": 192,
            "midi": 83,
            "name": "B5",
            "ticks": 52032,
            "time": 58.07137050000001,
            "velocity": 0.29133858267716534
          },
          {
            "duration": 0.21428550000000257,
            "durationTicks": 192,
            "midi": 83,
            "name": "B5",
            "ticks": 52224,
            "time": 58.285656,
            "velocity": 0.29133858267716534
          },
          {
            "duration": 0.21428550000000257,
            "durationTicks": 192,
            "midi": 84,
            "name": "C6",
            "ticks": 52416,
            "time": 58.499941500000006,
            "velocity": 0.29133858267716534
          },
          {
            "duration": 0.21428549999999547,
            "durationTicks": 192,
            "midi": 83,
            "name": "B5",
            "ticks": 52608,
            "time": 58.71422700000001,
            "velocity": 0.29133858267716534
          },
          {
            "duration": 0.21428550000000257,
            "durationTicks": 192,
            "midi": 84,
            "name": "C6",
            "ticks": 52800,
            "time": 58.928512500000004,
            "velocity": 0.29133858267716534
          },
          {
            "duration": 0.21428549999999547,
            "durationTicks": 192,
            "midi": 86,
            "name": "D6",
            "ticks": 52992,
            "time": 59.142798000000006,
            "velocity": 0.29133858267716534
          },
          {
            "duration": 0.10714275000000129,
            "durationTicks": 96,
            "midi": 84,
            "name": "C6",
            "ticks": 53184,
            "time": 59.3570835,
            "velocity": 0.29133858267716534
          },
          {
            "duration": 0.32142825000000386,
            "durationTicks": 288,
            "midi": 83,
            "name": "B5",
            "ticks": 53280,
            "time": 59.46422625,
            "velocity": 0.29133858267716534
          },
          {
            "duration": 0.21428549999999547,
            "durationTicks": 192,
            "midi": 86,
            "name": "D6",
            "ticks": 53568,
            "time": 59.78565450000001,
            "velocity": 0.29133858267716534
          },
          {
            "duration": 0.21428550000000257,
            "durationTicks": 192,
            "midi": 84,
            "name": "C6",
            "ticks": 53760,
            "time": 59.99994,
            "velocity": 0.29133858267716534
          },
          {
            "duration": 0.21428550000000257,
            "durationTicks": 192,
            "midi": 83,
            "name": "B5",
            "ticks": 53952,
            "time": 60.214225500000005,
            "velocity": 0.29133858267716534
          },
          {
            "duration": 0.21428549999999547,
            "durationTicks": 192,
            "midi": 86,
            "name": "D6",
            "ticks": 54144,
            "time": 60.42851100000001,
            "velocity": 0.29133858267716534
          },
          {
            "duration": 0.10714275000000129,
            "durationTicks": 96,
            "midi": 84,
            "name": "C6",
            "ticks": 54336,
            "time": 60.6427965,
            "velocity": 0.29133858267716534
          },
          {
            "duration": 0.21428550000000257,
            "durationTicks": 192,
            "midi": 81,
            "name": "A5",
            "ticks": 54432,
            "time": 60.749939250000004,
            "velocity": 0.29133858267716534
          },
          {
            "duration": 0.10714275000000129,
            "durationTicks": 96,
            "midi": 83,
            "name": "B5",
            "ticks": 54624,
            "time": 60.96422475000001,
            "velocity": 0.29133858267716534
          },
          {
            "duration": 0.21428549999999547,
            "durationTicks": 192,
            "midi": 86,
            "name": "D6",
            "ticks": 54720,
            "time": 61.07136750000001,
            "velocity": 0.29133858267716534
          },
          {
            "duration": 0.10714275000000129,
            "durationTicks": 96,
            "midi": 84,
            "name": "C6",
            "ticks": 54912,
            "time": 61.285653,
            "velocity": 0.29133858267716534
          },
          {
            "duration": 0.32142824999999675,
            "durationTicks": 288,
            "midi": 83,
            "name": "B5",
            "ticks": 55008,
            "time": 61.392795750000005,
            "velocity": 0.29133858267716534
          },
          {
            "duration": 0.21428550000000257,
            "durationTicks": 192,
            "midi": 85,
            "name": "C#6",
            "ticks": 55296,
            "time": 61.714224,
            "velocity": 0.29133858267716534
          },
          {
            "duration": 0.21428550000000257,
            "durationTicks": 192,
            "midi": 86,
            "name": "D6",
            "ticks": 55488,
            "time": 61.928509500000004,
            "velocity": 0.29133858267716534
          },
          {
            "duration": 0.21428549999999547,
            "durationTicks": 192,
            "midi": 85,
            "name": "C#6",
            "ticks": 55680,
            "time": 62.14279500000001,
            "velocity": 0.29133858267716534
          },
          {
            "duration": 0.21428550000000257,
            "durationTicks": 192,
            "midi": 86,
            "name": "D6",
            "ticks": 55872,
            "time": 62.3570805,
            "velocity": 0.29133858267716534
          },
          {
            "duration": 0.21428550000000257,
            "durationTicks": 192,
            "midi": 88,
            "name": "E6",
            "ticks": 56064,
            "time": 62.571366000000005,
            "velocity": 0.29133858267716534
          },
          {
            "duration": 0.10714275000000129,
            "durationTicks": 96,
            "midi": 86,
            "name": "D6",
            "ticks": 56256,
            "time": 62.78565150000001,
            "velocity": 0.29133858267716534
          },
          {
            "duration": 0.32142824999999675,
            "durationTicks": 288,
            "midi": 85,
            "name": "C#6",
            "ticks": 56352,
            "time": 62.89279425000001,
            "velocity": 0.29133858267716534
          },
          {
            "duration": 0.21428550000000257,
            "durationTicks": 192,
            "midi": 90,
            "name": "F#6",
            "ticks": 56640,
            "time": 63.214222500000005,
            "velocity": 0.29133858267716534
          },
          {
            "duration": 0.21428549999999547,
            "durationTicks": 192,
            "midi": 83,
            "name": "B5",
            "ticks": 56832,
            "time": 63.42850800000001,
            "velocity": 0.29133858267716534
          },
          {
            "duration": 0.21428550000000257,
            "durationTicks": 192,
            "midi": 85,
            "name": "C#6",
            "ticks": 57024,
            "time": 63.6427935,
            "velocity": 0.29133858267716534
          },
          {
            "duration": 0.21428549999999547,
            "durationTicks": 192,
            "midi": 83,
            "name": "B5",
            "ticks": 57216,
            "time": 63.857079000000006,
            "velocity": 0.29133858267716534
          },
          {
            "duration": 0.21428550000000257,
            "durationTicks": 192,
            "midi": 86,
            "name": "D6",
            "ticks": 57408,
            "time": 64.0713645,
            "velocity": 0.29133858267716534
          },
          {
            "duration": 0.21428550000000257,
            "durationTicks": 192,
            "midi": 88,
            "name": "E6",
            "ticks": 57600,
            "time": 64.28565,
            "velocity": 0.29133858267716534
          },
          {
            "duration": 0.10714274999999418,
            "durationTicks": 96,
            "midi": 86,
            "name": "D6",
            "ticks": 57792,
            "time": 64.4999355,
            "velocity": 0.29133858267716534
          },
          {
            "duration": 0.32142825000001096,
            "durationTicks": 288,
            "midi": 85,
            "name": "C#6",
            "ticks": 57888,
            "time": 64.60707825,
            "velocity": 0.29133858267716534
          },
          {
            "duration": 0.21428549999998836,
            "durationTicks": 192,
            "midi": 85,
            "name": "C#6",
            "ticks": 58176,
            "time": 64.92850650000001,
            "velocity": 0.29133858267716534
          },
          {
            "duration": 0.21428550000000257,
            "durationTicks": 192,
            "midi": 86,
            "name": "D6",
            "ticks": 58368,
            "time": 65.142792,
            "velocity": 0.29133858267716534
          },
          {
            "duration": 0.21428550000000257,
            "durationTicks": 192,
            "midi": 90,
            "name": "F#6",
            "ticks": 58560,
            "time": 65.3570775,
            "velocity": 0.29133858267716534
          },
          {
            "duration": 0.21428550000000257,
            "durationTicks": 192,
            "midi": 86,
            "name": "D6",
            "ticks": 58752,
            "time": 65.571363,
            "velocity": 0.29133858267716534
          },
          {
            "duration": 0.21428550000000257,
            "durationTicks": 192,
            "midi": 90,
            "name": "F#6",
            "ticks": 58944,
            "time": 65.78564850000001,
            "velocity": 0.29133858267716534
          },
          {
            "duration": 0.21428549999998836,
            "durationTicks": 192,
            "midi": 88,
            "name": "E6",
            "ticks": 59136,
            "time": 65.99993400000001,
            "velocity": 0.29133858267716534
          },
          {
            "duration": 0.10714275000000839,
            "durationTicks": 96,
            "midi": 90,
            "name": "F#6",
            "ticks": 59328,
            "time": 66.2142195,
            "velocity": 0.29133858267716534
          },
          {
            "duration": 0.32142824999999675,
            "durationTicks": 288,
            "midi": 88,
            "name": "E6",
            "ticks": 59424,
            "time": 66.32136225,
            "velocity": 0.29133858267716534
          },
          {
            "duration": 0.21428550000000257,
            "durationTicks": 192,
            "midi": 86,
            "name": "D6",
            "ticks": 59712,
            "time": 66.6427905,
            "velocity": 0.29133858267716534
          },
          {
            "duration": 0.21428550000000257,
            "durationTicks": 192,
            "midi": 88,
            "name": "E6",
            "ticks": 59904,
            "time": 66.857076,
            "velocity": 0.29133858267716534
          },
          {
            "duration": 0.21428550000000257,
            "durationTicks": 192,
            "midi": 86,
            "name": "D6",
            "ticks": 60096,
            "time": 67.07136150000001,
            "velocity": 0.29133858267716534
          },
          {
            "duration": 0.21428549999998836,
            "durationTicks": 192,
            "midi": 88,
            "name": "E6",
            "ticks": 60288,
            "time": 67.28564700000001,
            "velocity": 0.29133858267716534
          },
          {
            "duration": 0.21428550000000257,
            "durationTicks": 192,
            "midi": 88,
            "name": "E6",
            "ticks": 60480,
            "time": 67.4999325,
            "velocity": 0.29133858267716534
          },
          {
            "duration": 0.21428550000000257,
            "durationTicks": 192,
            "midi": 90,
            "name": "F#6",
            "ticks": 60672,
            "time": 67.714218,
            "velocity": 0.29133858267716534
          },
          {
            "duration": 0.10714274999999418,
            "durationTicks": 96,
            "midi": 88,
            "name": "E6",
            "ticks": 60864,
            "time": 67.9285035,
            "velocity": 0.29133858267716534
          },
          {
            "duration": 0.32142825000001096,
            "durationTicks": 288,
            "midi": 88,
            "name": "E6",
            "ticks": 60960,
            "time": 68.03564625,
            "velocity": 0.29133858267716534
          },
          {
            "duration": 0.21428549999998836,
            "durationTicks": 192,
            "midi": 85,
            "name": "C#6",
            "ticks": 61248,
            "time": 68.35707450000001,
            "velocity": 0.29133858267716534
          },
          {
            "duration": 0.21428550000000257,
            "durationTicks": 192,
            "midi": 85,
            "name": "C#6",
            "ticks": 61440,
            "time": 68.57136,
            "velocity": 0.29133858267716534
          },
          {
            "duration": 0.21428550000000257,
            "durationTicks": 192,
            "midi": 86,
            "name": "D6",
            "ticks": 61632,
            "time": 68.7856455,
            "velocity": 0.29133858267716534
          },
          {
            "duration": 0.21428550000000257,
            "durationTicks": 192,
            "midi": 85,
            "name": "C#6",
            "ticks": 61824,
            "time": 68.999931,
            "velocity": 0.29133858267716534
          },
          {
            "duration": 0.21428550000000257,
            "durationTicks": 192,
            "midi": 86,
            "name": "D6",
            "ticks": 62016,
            "time": 69.2142165,
            "velocity": 0.29133858267716534
          },
          {
            "duration": 0.21428550000000257,
            "durationTicks": 192,
            "midi": 88,
            "name": "E6",
            "ticks": 62208,
            "time": 69.42850200000001,
            "velocity": 0.29133858267716534
          },
          {
            "duration": 0.10714274999999418,
            "durationTicks": 96,
            "midi": 86,
            "name": "D6",
            "ticks": 62400,
            "time": 69.64278750000001,
            "velocity": 0.29133858267716534
          },
          {
            "duration": 0.32142824999999675,
            "durationTicks": 288,
            "midi": 85,
            "name": "C#6",
            "ticks": 62496,
            "time": 69.74993025,
            "velocity": 0.29133858267716534
          },
          {
            "duration": 0.21428550000000257,
            "durationTicks": 192,
            "midi": 88,
            "name": "E6",
            "ticks": 62784,
            "time": 70.0713585,
            "velocity": 0.29133858267716534
          },
          {
            "duration": 0.21428550000000257,
            "durationTicks": 192,
            "midi": 86,
            "name": "D6",
            "ticks": 62976,
            "time": 70.285644,
            "velocity": 0.29133858267716534
          },
          {
            "duration": 0.21428550000000257,
            "durationTicks": 192,
            "midi": 85,
            "name": "C#6",
            "ticks": 63168,
            "time": 70.49992950000001,
            "velocity": 0.29133858267716534
          },
          {
            "duration": 0.21428550000000257,
            "durationTicks": 192,
            "midi": 88,
            "name": "E6",
            "ticks": 63360,
            "time": 70.71421500000001,
            "velocity": 0.29133858267716534
          },
          {
            "duration": 0.10714274999999418,
            "durationTicks": 96,
            "midi": 86,
            "name": "D6",
            "ticks": 63552,
            "time": 70.92850050000001,
            "velocity": 0.29133858267716534
          },
          {
            "duration": 0.21428550000000257,
            "durationTicks": 192,
            "midi": 83,
            "name": "B5",
            "ticks": 63648,
            "time": 71.03564325,
            "velocity": 0.29133858267716534
          },
          {
            "duration": 0.10714274999999418,
            "durationTicks": 96,
            "midi": 85,
            "name": "C#6",
            "ticks": 63840,
            "time": 71.24992875000001,
            "velocity": 0.29133858267716534
          },
          {
            "duration": 0.21428550000000257,
            "durationTicks": 192,
            "midi": 88,
            "name": "E6",
            "ticks": 63936,
            "time": 71.3570715,
            "velocity": 0.29133858267716534
          },
          {
            "duration": 0.10714274999999418,
            "durationTicks": 96,
            "midi": 86,
            "name": "D6",
            "ticks": 64128,
            "time": 71.571357,
            "velocity": 0.29133858267716534
          },
          {
            "duration": 0.32142825000001096,
            "durationTicks": 288,
            "midi": 85,
            "name": "C#6",
            "ticks": 64224,
            "time": 71.67849975,
            "velocity": 0.29133858267716534
          },
          {
            "duration": 0.21428549999998836,
            "durationTicks": 192,
            "midi": 85,
            "name": "C#6",
            "ticks": 64512,
            "time": 71.99992800000001,
            "velocity": 0.29133858267716534
          },
          {
            "duration": 0.21428550000000257,
            "durationTicks": 192,
            "midi": 86,
            "name": "D6",
            "ticks": 64704,
            "time": 72.2142135,
            "velocity": 0.29133858267716534
          },
          {
            "duration": 0.21428550000000257,
            "durationTicks": 192,
            "midi": 85,
            "name": "C#6",
            "ticks": 64896,
            "time": 72.428499,
            "velocity": 0.29133858267716534
          },
          {
            "duration": 0.21428550000000257,
            "durationTicks": 192,
            "midi": 86,
            "name": "D6",
            "ticks": 65088,
            "time": 72.6427845,
            "velocity": 0.29133858267716534
          },
          {
            "duration": 0.21428550000000257,
            "durationTicks": 192,
            "midi": 88,
            "name": "E6",
            "ticks": 65280,
            "time": 72.85707000000001,
            "velocity": 0.29133858267716534
          },
          {
            "duration": 0.10714274999999418,
            "durationTicks": 96,
            "midi": 86,
            "name": "D6",
            "ticks": 65472,
            "time": 73.07135550000001,
            "velocity": 0.29133858267716534
          },
          {
            "duration": 0.32142824999999675,
            "durationTicks": 288,
            "midi": 85,
            "name": "C#6",
            "ticks": 65568,
            "time": 73.17849825,
            "velocity": 0.29133858267716534
          },
          {
            "duration": 0.21428550000000257,
            "durationTicks": 192,
            "midi": 90,
            "name": "F#6",
            "ticks": 65856,
            "time": 73.4999265,
            "velocity": 0.29133858267716534
          },
          {
            "duration": 0.21428550000000257,
            "durationTicks": 192,
            "midi": 83,
            "name": "B5",
            "ticks": 66048,
            "time": 73.714212,
            "velocity": 0.29133858267716534
          },
          {
            "duration": 0.21428550000000257,
            "durationTicks": 192,
            "midi": 85,
            "name": "C#6",
            "ticks": 66240,
            "time": 73.9284975,
            "velocity": 0.29133858267716534
          },
          {
            "duration": 0.21428550000000257,
            "durationTicks": 192,
            "midi": 83,
            "name": "B5",
            "ticks": 66432,
            "time": 74.14278300000001,
            "velocity": 0.29133858267716534
          },
          {
            "duration": 0.21428549999998836,
            "durationTicks": 192,
            "midi": 86,
            "name": "D6",
            "ticks": 66624,
            "time": 74.35706850000001,
            "velocity": 0.29133858267716534
          },
          {
            "duration": 0.21428550000000257,
            "durationTicks": 192,
            "midi": 88,
            "name": "E6",
            "ticks": 66816,
            "time": 74.571354,
            "velocity": 0.29133858267716534
          },
          {
            "duration": 0.10714275000000839,
            "durationTicks": 96,
            "midi": 86,
            "name": "D6",
            "ticks": 67008,
            "time": 74.7856395,
            "velocity": 0.29133858267716534
          },
          {
            "duration": 0.32142824999999675,
            "durationTicks": 288,
            "midi": 85,
            "name": "C#6",
            "ticks": 67104,
            "time": 74.89278225000001,
            "velocity": 0.29133858267716534
          },
          {
            "duration": 0.21428550000000257,
            "durationTicks": 192,
            "midi": 85,
            "name": "C#6",
            "ticks": 67392,
            "time": 75.21421050000001,
            "velocity": 0.29133858267716534
          },
          {
            "duration": 0.21428550000000257,
            "durationTicks": 192,
            "midi": 86,
            "name": "D6",
            "ticks": 67584,
            "time": 75.42849600000001,
            "velocity": 0.29133858267716534
          },
          {
            "duration": 0.21428549999998836,
            "durationTicks": 192,
            "midi": 90,
            "name": "F#6",
            "ticks": 67776,
            "time": 75.64278150000001,
            "velocity": 0.29133858267716534
          },
          {
            "duration": 0.21428550000000257,
            "durationTicks": 192,
            "midi": 86,
            "name": "D6",
            "ticks": 67968,
            "time": 75.857067,
            "velocity": 0.29133858267716534
          },
          {
            "duration": 0.21428550000000257,
            "durationTicks": 192,
            "midi": 90,
            "name": "F#6",
            "ticks": 68160,
            "time": 76.0713525,
            "velocity": 0.29133858267716534
          },
          {
            "duration": 0.21428550000000257,
            "durationTicks": 192,
            "midi": 88,
            "name": "E6",
            "ticks": 68352,
            "time": 76.285638,
            "velocity": 0.29133858267716534
          },
          {
            "duration": 0.10714274999999418,
            "durationTicks": 96,
            "midi": 90,
            "name": "F#6",
            "ticks": 68544,
            "time": 76.49992350000001,
            "velocity": 0.29133858267716534
          },
          {
            "duration": 0.32142824999999675,
            "durationTicks": 288,
            "midi": 88,
            "name": "E6",
            "ticks": 68640,
            "time": 76.60706625,
            "velocity": 0.29133858267716534
          },
          {
            "duration": 0.21428550000000257,
            "durationTicks": 192,
            "midi": 86,
            "name": "D6",
            "ticks": 68928,
            "time": 76.9284945,
            "velocity": 0.29133858267716534
          },
          {
            "duration": 0.21428550000000257,
            "durationTicks": 192,
            "midi": 88,
            "name": "E6",
            "ticks": 69120,
            "time": 77.14278,
            "velocity": 0.29133858267716534
          },
          {
            "duration": 0.21428550000000257,
            "durationTicks": 192,
            "midi": 86,
            "name": "D6",
            "ticks": 69312,
            "time": 77.3570655,
            "velocity": 0.29133858267716534
          },
          {
            "duration": 0.21428550000000257,
            "durationTicks": 192,
            "midi": 88,
            "name": "E6",
            "ticks": 69504,
            "time": 77.571351,
            "velocity": 0.29133858267716534
          },
          {
            "duration": 0.21428550000000257,
            "durationTicks": 192,
            "midi": 88,
            "name": "E6",
            "ticks": 69696,
            "time": 77.78563650000001,
            "velocity": 0.29133858267716534
          },
          {
            "duration": 0.21428549999998836,
            "durationTicks": 192,
            "midi": 90,
            "name": "F#6",
            "ticks": 69888,
            "time": 77.99992200000001,
            "velocity": 0.29133858267716534
          },
          {
            "duration": 0.10714275000000839,
            "durationTicks": 96,
            "midi": 88,
            "name": "E6",
            "ticks": 70080,
            "time": 78.2142075,
            "velocity": 0.29133858267716534
          },
          {
            "duration": 0.32142824999999675,
            "durationTicks": 288,
            "midi": 88,
            "name": "E6",
            "ticks": 70176,
            "time": 78.32135025000001,
            "velocity": 0.29133858267716534
          },
          {
            "duration": 0.21428550000000257,
            "durationTicks": 192,
            "midi": 85,
            "name": "C#6",
            "ticks": 70464,
            "time": 78.6427785,
            "velocity": 0.29133858267716534
          },
          {
            "duration": 0.21428550000000257,
            "durationTicks": 192,
            "midi": 85,
            "name": "C#6",
            "ticks": 70656,
            "time": 78.85706400000001,
            "velocity": 0.29133858267716534
          },
          {
            "duration": 0.21428550000000257,
            "durationTicks": 192,
            "midi": 86,
            "name": "D6",
            "ticks": 70848,
            "time": 79.07134950000001,
            "velocity": 0.29133858267716534
          },
          {
            "duration": 0.21428549999998836,
            "durationTicks": 192,
            "midi": 85,
            "name": "C#6",
            "ticks": 71040,
            "time": 79.28563500000001,
            "velocity": 0.29133858267716534
          },
          {
            "duration": 0.21428550000000257,
            "durationTicks": 192,
            "midi": 86,
            "name": "D6",
            "ticks": 71232,
            "time": 79.4999205,
            "velocity": 0.29133858267716534
          },
          {
            "duration": 0.21428550000000257,
            "durationTicks": 192,
            "midi": 88,
            "name": "E6",
            "ticks": 71424,
            "time": 79.714206,
            "velocity": 0.29133858267716534
          },
          {
            "duration": 0.10714274999999418,
            "durationTicks": 96,
            "midi": 86,
            "name": "D6",
            "ticks": 71616,
            "time": 79.9284915,
            "velocity": 0.29133858267716534
          },
          {
            "duration": 0.32142825000001096,
            "durationTicks": 288,
            "midi": 85,
            "name": "C#6",
            "ticks": 71712,
            "time": 80.03563425,
            "velocity": 0.29133858267716534
          },
          {
            "duration": 0.21428549999998836,
            "durationTicks": 192,
            "midi": 88,
            "name": "E6",
            "ticks": 72000,
            "time": 80.35706250000001,
            "velocity": 0.29133858267716534
          },
          {
            "duration": 0.21428550000000257,
            "durationTicks": 192,
            "midi": 86,
            "name": "D6",
            "ticks": 72192,
            "time": 80.571348,
            "velocity": 0.29133858267716534
          },
          {
            "duration": 0.21428550000000257,
            "durationTicks": 192,
            "midi": 85,
            "name": "C#6",
            "ticks": 72384,
            "time": 80.7856335,
            "velocity": 0.29133858267716534
          },
          {
            "duration": 0.21428550000000257,
            "durationTicks": 192,
            "midi": 88,
            "name": "E6",
            "ticks": 72576,
            "time": 80.999919,
            "velocity": 0.29133858267716534
          },
          {
            "duration": 0.10714274999999418,
            "durationTicks": 96,
            "midi": 86,
            "name": "D6",
            "ticks": 72768,
            "time": 81.21420450000001,
            "velocity": 0.29133858267716534
          },
          {
            "duration": 0.21428550000000257,
            "durationTicks": 192,
            "midi": 83,
            "name": "B5",
            "ticks": 72864,
            "time": 81.32134725,
            "velocity": 0.29133858267716534
          },
          {
            "duration": 0.10714275000000839,
            "durationTicks": 96,
            "midi": 85,
            "name": "C#6",
            "ticks": 73056,
            "time": 81.53563275,
            "velocity": 0.29133858267716534
          },
          {
            "duration": 0.21428549999998836,
            "durationTicks": 192,
            "midi": 88,
            "name": "E6",
            "ticks": 73152,
            "time": 81.64277550000001,
            "velocity": 0.29133858267716534
          },
          {
            "duration": 0.10714275000000839,
            "durationTicks": 96,
            "midi": 86,
            "name": "D6",
            "ticks": 73344,
            "time": 81.857061,
            "velocity": 0.29133858267716534
          },
          {
            "duration": 0.32142824999999675,
            "durationTicks": 288,
            "midi": 85,
            "name": "C#6",
            "ticks": 73440,
            "time": 81.96420375000001,
            "velocity": 0.29133858267716534
          }
        ],
        "endOfTrackTicks": 73728
      },
      {
        "channel": 2,
        "controlChanges": {},
        "pitchBends": [],
        "instrument": {
          "family": "strings",
          "number": 42,
          "name": "cello"
        },
        "name": "Cello",
        "notes": [
          {
            "duration": 0.4285710000000016,
            "durationTicks": 384,
            "midi": 53,
            "name": "F3",
            "ticks": 15360,
            "time": 17.14284,
            "velocity": 0.6614173228346457
          },
          {
            "duration": 0.4285710000000016,
            "durationTicks": 384,
            "midi": 55,
            "name": "G3",
            "ticks": 15360,
            "time": 17.14284,
            "velocity": 0.6614173228346457
          },
          {
            "duration": 0.4285710000000016,
            "durationTicks": 384,
            "midi": 48,
            "name": "C3",
            "ticks": 15360,
            "time": 17.14284,
            "velocity": 0.6614173228346457
          },
          {
            "duration": 0.3214282500000003,
            "durationTicks": 288,
            "midi": 48,
            "name": "C3",
            "ticks": 15744,
            "time": 17.571411,
            "velocity": 0.6614173228346457
          },
          {
            "duration": 0.3214282500000003,
            "durationTicks": 288,
            "midi": 55,
            "name": "G3",
            "ticks": 15744,
            "time": 17.571411,
            "velocity": 0.6614173228346457
          },
          {
            "duration": 0.3214282500000003,
            "durationTicks": 288,
            "midi": 53,
            "name": "F3",
            "ticks": 15744,
            "time": 17.571411,
            "velocity": 0.6614173228346457
          },
          {
            "duration": 0.21428549999999902,
            "durationTicks": 192,
            "midi": 55,
            "name": "G3",
            "ticks": 16032,
            "time": 17.89283925,
            "velocity": 0.6614173228346457
          },
          {
            "duration": 0.21428549999999902,
            "durationTicks": 192,
            "midi": 48,
            "name": "C3",
            "ticks": 16032,
            "time": 17.89283925,
            "velocity": 0.6614173228346457
          },
          {
            "duration": 0.21428549999999902,
            "durationTicks": 192,
            "midi": 53,
            "name": "F3",
            "ticks": 16032,
            "time": 17.89283925,
            "velocity": 0.6614173228346457
          },
          {
            "duration": 0.10714275000000129,
            "durationTicks": 96,
            "midi": 55,
            "name": "G3",
            "ticks": 16224,
            "time": 18.10712475,
            "velocity": 0.6614173228346457
          },
          {
            "duration": 0.10714275000000129,
            "durationTicks": 96,
            "midi": 53,
            "name": "F3",
            "ticks": 16224,
            "time": 18.10712475,
            "velocity": 0.6614173228346457
          },
          {
            "duration": 0.10714275000000129,
            "durationTicks": 96,
            "midi": 48,
            "name": "C3",
            "ticks": 16224,
            "time": 18.10712475,
            "velocity": 0.6614173228346457
          },
          {
            "duration": 0.21428549999999902,
            "durationTicks": 192,
            "midi": 48,
            "name": "C3",
            "ticks": 16320,
            "time": 18.214267500000002,
            "velocity": 0.6614173228346457
          },
          {
            "duration": 0.21428549999999902,
            "durationTicks": 192,
            "midi": 55,
            "name": "G3",
            "ticks": 16320,
            "time": 18.214267500000002,
            "velocity": 0.6614173228346457
          },
          {
            "duration": 0.21428549999999902,
            "durationTicks": 192,
            "midi": 53,
            "name": "F3",
            "ticks": 16320,
            "time": 18.214267500000002,
            "velocity": 0.6614173228346457
          },
          {
            "duration": 0.21428549999999902,
            "durationTicks": 192,
            "midi": 51,
            "name": "D#3",
            "ticks": 16512,
            "time": 18.428553,
            "velocity": 0.6614173228346457
          },
          {
            "duration": 0.21428549999999902,
            "durationTicks": 192,
            "midi": 46,
            "name": "A#2",
            "ticks": 16512,
            "time": 18.428553,
            "velocity": 0.6614173228346457
          },
          {
            "duration": 0.21428549999999902,
            "durationTicks": 192,
            "midi": 53,
            "name": "F3",
            "ticks": 16512,
            "time": 18.428553,
            "velocity": 0.6614173228346457
          },
          {
            "duration": 0.21428550000000257,
            "durationTicks": 192,
            "midi": 46,
            "name": "A#2",
            "ticks": 16704,
            "time": 18.6428385,
            "velocity": 0.6614173228346457
          },
          {
            "duration": 0.21428550000000257,
            "durationTicks": 192,
            "midi": 55,
            "name": "G3",
            "ticks": 16704,
            "time": 18.6428385,
            "velocity": 0.6614173228346457
          },
          {
            "duration": 0.21428550000000257,
            "durationTicks": 192,
            "midi": 51,
            "name": "D#3",
            "ticks": 16704,
            "time": 18.6428385,
            "velocity": 0.6614173228346457
          },
          {
            "duration": 0.42857099999999804,
            "durationTicks": 384,
            "midi": 55,
            "name": "G3",
            "ticks": 16896,
            "time": 18.857124000000002,
            "velocity": 0.6614173228346457
          },
          {
            "duration": 0.42857099999999804,
            "durationTicks": 384,
            "midi": 48,
            "name": "C3",
            "ticks": 16896,
            "time": 18.857124000000002,
            "velocity": 0.6614173228346457
          },
          {
            "duration": 0.42857099999999804,
            "durationTicks": 384,
            "midi": 51,
            "name": "D#3",
            "ticks": 16896,
            "time": 18.857124000000002,
            "velocity": 0.6614173228346457
          },
          {
            "duration": 0.3214282500000003,
            "durationTicks": 288,
            "midi": 55,
            "name": "G3",
            "ticks": 17280,
            "time": 19.285695,
            "velocity": 0.6614173228346457
          },
          {
            "duration": 0.3214282500000003,
            "durationTicks": 288,
            "midi": 48,
            "name": "C3",
            "ticks": 17280,
            "time": 19.285695,
            "velocity": 0.6614173228346457
          },
          {
            "duration": 0.3214282500000003,
            "durationTicks": 288,
            "midi": 51,
            "name": "D#3",
            "ticks": 17280,
            "time": 19.285695,
            "velocity": 0.6614173228346457
          },
          {
            "duration": 0.21428550000000257,
            "durationTicks": 192,
            "midi": 48,
            "name": "C3",
            "ticks": 17568,
            "time": 19.60712325,
            "velocity": 0.6614173228346457
          },
          {
            "duration": 0.21428550000000257,
            "durationTicks": 192,
            "midi": 51,
            "name": "D#3",
            "ticks": 17568,
            "time": 19.60712325,
            "velocity": 0.6614173228346457
          },
          {
            "duration": 0.21428550000000257,
            "durationTicks": 192,
            "midi": 55,
            "name": "G3",
            "ticks": 17568,
            "time": 19.60712325,
            "velocity": 0.6614173228346457
          },
          {
            "duration": 0.10714274999999773,
            "durationTicks": 96,
            "midi": 48,
            "name": "C3",
            "ticks": 17760,
            "time": 19.821408750000003,
            "velocity": 0.6614173228346457
          },
          {
            "duration": 0.10714274999999773,
            "durationTicks": 96,
            "midi": 55,
            "name": "G3",
            "ticks": 17760,
            "time": 19.821408750000003,
            "velocity": 0.6614173228346457
          },
          {
            "duration": 0.10714274999999773,
            "durationTicks": 96,
            "midi": 51,
            "name": "D#3",
            "ticks": 17760,
            "time": 19.821408750000003,
            "velocity": 0.6614173228346457
          },
          {
            "duration": 0.21428549999999902,
            "durationTicks": 192,
            "midi": 51,
            "name": "D#3",
            "ticks": 17856,
            "time": 19.9285515,
            "velocity": 0.6614173228346457
          },
          {
            "duration": 0.21428549999999902,
            "durationTicks": 192,
            "midi": 48,
            "name": "C3",
            "ticks": 17856,
            "time": 19.9285515,
            "velocity": 0.6614173228346457
          },
          {
            "duration": 0.21428549999999902,
            "durationTicks": 192,
            "midi": 55,
            "name": "G3",
            "ticks": 17856,
            "time": 19.9285515,
            "velocity": 0.6614173228346457
          },
          {
            "duration": 0.21428550000000257,
            "durationTicks": 192,
            "midi": 53,
            "name": "F3",
            "ticks": 18048,
            "time": 20.142837,
            "velocity": 0.6614173228346457
          },
          {
            "duration": 0.21428550000000257,
            "durationTicks": 192,
            "midi": 46,
            "name": "A#2",
            "ticks": 18048,
            "time": 20.142837,
            "velocity": 0.6614173228346457
          },
          {
            "duration": 0.21428550000000257,
            "durationTicks": 192,
            "midi": 51,
            "name": "D#3",
            "ticks": 18048,
            "time": 20.142837,
            "velocity": 0.6614173228346457
          },
          {
            "duration": 0.21428549999999902,
            "durationTicks": 192,
            "midi": 46,
            "name": "A#2",
            "ticks": 18240,
            "time": 20.357122500000003,
            "velocity": 0.6614173228346457
          },
          {
            "duration": 0.21428549999999902,
            "durationTicks": 192,
            "midi": 51,
            "name": "D#3",
            "ticks": 18240,
            "time": 20.357122500000003,
            "velocity": 0.6614173228346457
          },
          {
            "duration": 0.21428549999999902,
            "durationTicks": 192,
            "midi": 55,
            "name": "G3",
            "ticks": 18240,
            "time": 20.357122500000003,
            "velocity": 0.6614173228346457
          },
          {
            "duration": 0.4285710000000016,
            "durationTicks": 384,
            "midi": 55,
            "name": "G3",
            "ticks": 18432,
            "time": 20.571408,
            "velocity": 0.6614173228346457
          },
          {
            "duration": 0.4285710000000016,
            "durationTicks": 384,
            "midi": 53,
            "name": "F3",
            "ticks": 18432,
            "time": 20.571408,
            "velocity": 0.6614173228346457
          },
          {
            "duration": 0.4285710000000016,
            "durationTicks": 384,
            "midi": 48,
            "name": "C3",
            "ticks": 18432,
            "time": 20.571408,
            "velocity": 0.6614173228346457
          },
          {
            "duration": 0.32142824999999675,
            "durationTicks": 288,
            "midi": 53,
            "name": "F3",
            "ticks": 18816,
            "time": 20.999979000000003,
            "velocity": 0.6614173228346457
          },
          {
            "duration": 0.32142824999999675,
            "durationTicks": 288,
            "midi": 48,
            "name": "C3",
            "ticks": 18816,
            "time": 20.999979000000003,
            "velocity": 0.6614173228346457
          },
          {
            "duration": 0.32142824999999675,
            "durationTicks": 288,
            "midi": 55,
            "name": "G3",
            "ticks": 18816,
            "time": 20.999979000000003,
            "velocity": 0.6614173228346457
          },
          {
            "duration": 0.21428550000000257,
            "durationTicks": 192,
            "midi": 48,
            "name": "C3",
            "ticks": 19104,
            "time": 21.32140725,
            "velocity": 0.6614173228346457
          },
          {
            "duration": 0.21428550000000257,
            "durationTicks": 192,
            "midi": 53,
            "name": "F3",
            "ticks": 19104,
            "time": 21.32140725,
            "velocity": 0.6614173228346457
          },
          {
            "duration": 0.21428550000000257,
            "durationTicks": 192,
            "midi": 55,
            "name": "G3",
            "ticks": 19104,
            "time": 21.32140725,
            "velocity": 0.6614173228346457
          },
          {
            "duration": 0.10714274999999773,
            "durationTicks": 96,
            "midi": 55,
            "name": "G3",
            "ticks": 19296,
            "time": 21.535692750000003,
            "velocity": 0.6614173228346457
          },
          {
            "duration": 0.10714274999999773,
            "durationTicks": 96,
            "midi": 48,
            "name": "C3",
            "ticks": 19296,
            "time": 21.535692750000003,
            "velocity": 0.6614173228346457
          },
          {
            "duration": 0.10714274999999773,
            "durationTicks": 96,
            "midi": 53,
            "name": "F3",
            "ticks": 19296,
            "time": 21.535692750000003,
            "velocity": 0.6614173228346457
          },
          {
            "duration": 0.21428550000000257,
            "durationTicks": 192,
            "midi": 55,
            "name": "G3",
            "ticks": 19392,
            "time": 21.6428355,
            "velocity": 0.6614173228346457
          },
          {
            "duration": 0.21428550000000257,
            "durationTicks": 192,
            "midi": 48,
            "name": "C3",
            "ticks": 19392,
            "time": 21.6428355,
            "velocity": 0.6614173228346457
          },
          {
            "duration": 0.21428550000000257,
            "durationTicks": 192,
            "midi": 53,
            "name": "F3",
            "ticks": 19392,
            "time": 21.6428355,
            "velocity": 0.6614173228346457
          },
          {
            "duration": 0.21428549999999902,
            "durationTicks": 192,
            "midi": 51,
            "name": "D#3",
            "ticks": 19584,
            "time": 21.857121000000003,
            "velocity": 0.6614173228346457
          },
          {
            "duration": 0.21428549999999902,
            "durationTicks": 192,
            "midi": 53,
            "name": "F3",
            "ticks": 19584,
            "time": 21.857121000000003,
            "velocity": 0.6614173228346457
          },
          {
            "duration": 0.21428549999999902,
            "durationTicks": 192,
            "midi": 46,
            "name": "A#2",
            "ticks": 19584,
            "time": 21.857121000000003,
            "velocity": 0.6614173228346457
          },
          {
            "duration": 0.21428549999999902,
            "durationTicks": 192,
            "midi": 46,
            "name": "A#2",
            "ticks": 19776,
            "time": 22.071406500000002,
            "velocity": 0.6614173228346457
          },
          {
            "duration": 0.21428549999999902,
            "durationTicks": 192,
            "midi": 53,
            "name": "F3",
            "ticks": 19776,
            "time": 22.071406500000002,
            "velocity": 0.6614173228346457
          },
          {
            "duration": 0.21428549999999902,
            "durationTicks": 192,
            "midi": 58,
            "name": "A#3",
            "ticks": 19776,
            "time": 22.071406500000002,
            "velocity": 0.6614173228346457
          },
          {
            "duration": 0.4285710000000016,
            "durationTicks": 384,
            "midi": 58,
            "name": "A#3",
            "ticks": 19968,
            "time": 22.285692,
            "velocity": 0.6614173228346457
          },
          {
            "duration": 0.4285710000000016,
            "durationTicks": 384,
            "midi": 48,
            "name": "C3",
            "ticks": 19968,
            "time": 22.285692,
            "velocity": 0.6614173228346457
          },
          {
            "duration": 0.4285710000000016,
            "durationTicks": 384,
            "midi": 51,
            "name": "D#3",
            "ticks": 19968,
            "time": 22.285692,
            "velocity": 0.6614173228346457
          },
          {
            "duration": 0.3214282500000003,
            "durationTicks": 288,
            "midi": 48,
            "name": "C3",
            "ticks": 20352,
            "time": 22.714263000000003,
            "velocity": 0.6614173228346457
          },
          {
            "duration": 0.3214282500000003,
            "durationTicks": 288,
            "midi": 51,
            "name": "D#3",
            "ticks": 20352,
            "time": 22.714263000000003,
            "velocity": 0.6614173228346457
          },
          {
            "duration": 0.3214282500000003,
            "durationTicks": 288,
            "midi": 58,
            "name": "A#3",
            "ticks": 20352,
            "time": 22.714263000000003,
            "velocity": 0.6614173228346457
          },
          {
            "duration": 0.21428549999999902,
            "durationTicks": 192,
            "midi": 58,
            "name": "A#3",
            "ticks": 20640,
            "time": 23.035691250000003,
            "velocity": 0.6614173228346457
          },
          {
            "duration": 0.21428549999999902,
            "durationTicks": 192,
            "midi": 48,
            "name": "C3",
            "ticks": 20640,
            "time": 23.035691250000003,
            "velocity": 0.6614173228346457
          },
          {
            "duration": 0.21428549999999902,
            "durationTicks": 192,
            "midi": 51,
            "name": "D#3",
            "ticks": 20640,
            "time": 23.035691250000003,
            "velocity": 0.6614173228346457
          },
          {
            "duration": 0.10714275000000129,
            "durationTicks": 96,
            "midi": 51,
            "name": "D#3",
            "ticks": 20832,
            "time": 23.249976750000002,
            "velocity": 0.6614173228346457
          },
          {
            "duration": 0.10714275000000129,
            "durationTicks": 96,
            "midi": 48,
            "name": "C3",
            "ticks": 20832,
            "time": 23.249976750000002,
            "velocity": 0.6614173228346457
          },
          {
            "duration": 0.10714275000000129,
            "durationTicks": 96,
            "midi": 58,
            "name": "A#3",
            "ticks": 20832,
            "time": 23.249976750000002,
            "velocity": 0.6614173228346457
          },
          {
            "duration": 0.21428549999999902,
            "durationTicks": 192,
            "midi": 51,
            "name": "D#3",
            "ticks": 20928,
            "time": 23.357119500000003,
            "velocity": 0.6614173228346457
          },
          {
            "duration": 0.21428549999999902,
            "durationTicks": 192,
            "midi": 48,
            "name": "C3",
            "ticks": 20928,
            "time": 23.357119500000003,
            "velocity": 0.6614173228346457
          },
          {
            "duration": 0.21428549999999902,
            "durationTicks": 192,
            "midi": 58,
            "name": "A#3",
            "ticks": 20928,
            "time": 23.357119500000003,
            "velocity": 0.6614173228346457
          },
          {
            "duration": 0.21428549999999902,
            "durationTicks": 192,
            "midi": 56,
            "name": "G#3",
            "ticks": 21120,
            "time": 23.571405000000002,
            "velocity": 0.6614173228346457
          },
          {
            "duration": 0.21428549999999902,
            "durationTicks": 192,
            "midi": 46,
            "name": "A#2",
            "ticks": 21120,
            "time": 23.571405000000002,
            "velocity": 0.6614173228346457
          },
          {
            "duration": 0.21428549999999902,
            "durationTicks": 192,
            "midi": 49,
            "name": "C#3",
            "ticks": 21120,
            "time": 23.571405000000002,
            "velocity": 0.6614173228346457
          },
          {
            "duration": 0.21428550000000257,
            "durationTicks": 192,
            "midi": 51,
            "name": "D#3",
            "ticks": 21312,
            "time": 23.7856905,
            "velocity": 0.6614173228346457
          },
          {
            "duration": 0.21428550000000257,
            "durationTicks": 192,
            "midi": 46,
            "name": "A#2",
            "ticks": 21312,
            "time": 23.7856905,
            "velocity": 0.6614173228346457
          },
          {
            "duration": 0.21428550000000257,
            "durationTicks": 192,
            "midi": 58,
            "name": "A#3",
            "ticks": 21312,
            "time": 23.7856905,
            "velocity": 0.6614173228346457
          },
          {
            "duration": 0.42857099999999804,
            "durationTicks": 384,
            "midi": 53,
            "name": "F3",
            "ticks": 21504,
            "time": 23.999976000000004,
            "velocity": 0.6614173228346457
          },
          {
            "duration": 0.42857099999999804,
            "durationTicks": 384,
            "midi": 63,
            "name": "D#4",
            "ticks": 21504,
            "time": 23.999976000000004,
            "velocity": 0.6614173228346457
          },
          {
            "duration": 0.42857099999999804,
            "durationTicks": 384,
            "midi": 58,
            "name": "A#3",
            "ticks": 21504,
            "time": 23.999976000000004,
            "velocity": 0.6614173228346457
          },
          {
            "duration": 0.3214282500000003,
            "durationTicks": 288,
            "midi": 58,
            "name": "A#3",
            "ticks": 21888,
            "time": 24.428547000000002,
            "velocity": 0.6614173228346457
          },
          {
            "duration": 0.3214282500000003,
            "durationTicks": 288,
            "midi": 53,
            "name": "F3",
            "ticks": 21888,
            "time": 24.428547000000002,
            "velocity": 0.6614173228346457
          },
          {
            "duration": 0.3214282500000003,
            "durationTicks": 288,
            "midi": 63,
            "name": "D#4",
            "ticks": 21888,
            "time": 24.428547000000002,
            "velocity": 0.6614173228346457
          },
          {
            "duration": 0.21428549999999902,
            "durationTicks": 192,
            "midi": 63,
            "name": "D#4",
            "ticks": 22176,
            "time": 24.749975250000002,
            "velocity": 0.6614173228346457
          },
          {
            "duration": 0.21428549999999902,
            "durationTicks": 192,
            "midi": 53,
            "name": "F3",
            "ticks": 22176,
            "time": 24.749975250000002,
            "velocity": 0.6614173228346457
          },
          {
            "duration": 0.21428549999999902,
            "durationTicks": 192,
            "midi": 58,
            "name": "A#3",
            "ticks": 22176,
            "time": 24.749975250000002,
            "velocity": 0.6614173228346457
          },
          {
            "duration": 0.10714275000000129,
            "durationTicks": 96,
            "midi": 53,
            "name": "F3",
            "ticks": 22368,
            "time": 24.96426075,
            "velocity": 0.6614173228346457
          },
          {
            "duration": 0.10714275000000129,
            "durationTicks": 96,
            "midi": 58,
            "name": "A#3",
            "ticks": 22368,
            "time": 24.96426075,
            "velocity": 0.6614173228346457
          },
          {
            "duration": 0.10714275000000129,
            "durationTicks": 96,
            "midi": 63,
            "name": "D#4",
            "ticks": 22368,
            "time": 24.96426075,
            "velocity": 0.6614173228346457
          },
          {
            "duration": 0.21428549999999902,
            "durationTicks": 192,
            "midi": 63,
            "name": "D#4",
            "ticks": 22464,
            "time": 25.071403500000002,
            "velocity": 0.6614173228346457
          },
          {
            "duration": 0.21428549999999902,
            "durationTicks": 192,
            "midi": 58,
            "name": "A#3",
            "ticks": 22464,
            "time": 25.071403500000002,
            "velocity": 0.6614173228346457
          },
          {
            "duration": 0.21428549999999902,
            "durationTicks": 192,
            "midi": 53,
            "name": "F3",
            "ticks": 22464,
            "time": 25.071403500000002,
            "velocity": 0.6614173228346457
          },
          {
            "duration": 0.21428549999999902,
            "durationTicks": 192,
            "midi": 61,
            "name": "C#4",
            "ticks": 22656,
            "time": 25.285689,
            "velocity": 0.6614173228346457
          },
          {
            "duration": 0.21428549999999902,
            "durationTicks": 192,
            "midi": 51,
            "name": "D#3",
            "ticks": 22656,
            "time": 25.285689,
            "velocity": 0.6614173228346457
          },
          {
            "duration": 0.21428549999999902,
            "durationTicks": 192,
            "midi": 56,
            "name": "G#3",
            "ticks": 22656,
            "time": 25.285689,
            "velocity": 0.6614173228346457
          },
          {
            "duration": 0.21428550000000257,
            "durationTicks": 192,
            "midi": 63,
            "name": "D#4",
            "ticks": 22848,
            "time": 25.4999745,
            "velocity": 0.6614173228346457
          },
          {
            "duration": 0.21428550000000257,
            "durationTicks": 192,
            "midi": 51,
            "name": "D#3",
            "ticks": 22848,
            "time": 25.4999745,
            "velocity": 0.6614173228346457
          },
          {
            "duration": 0.21428550000000257,
            "durationTicks": 192,
            "midi": 58,
            "name": "A#3",
            "ticks": 22848,
            "time": 25.4999745,
            "velocity": 0.6614173228346457
          },
          {
            "duration": 0.42857099999999804,
            "durationTicks": 384,
            "midi": 53,
            "name": "F3",
            "ticks": 23040,
            "time": 25.714260000000003,
            "velocity": 0.6614173228346457
          },
          {
            "duration": 0.42857099999999804,
            "durationTicks": 384,
            "midi": 51,
            "name": "D#3",
            "ticks": 23040,
            "time": 25.714260000000003,
            "velocity": 0.6614173228346457
          },
          {
            "duration": 0.42857099999999804,
            "durationTicks": 384,
            "midi": 56,
            "name": "G#3",
            "ticks": 23040,
            "time": 25.714260000000003,
            "velocity": 0.6614173228346457
          },
          {
            "duration": 0.3214282500000003,
            "durationTicks": 288,
            "midi": 51,
            "name": "D#3",
            "ticks": 23424,
            "time": 26.142831,
            "velocity": 0.6614173228346457
          },
          {
            "duration": 0.3214282500000003,
            "durationTicks": 288,
            "midi": 56,
            "name": "G#3",
            "ticks": 23424,
            "time": 26.142831,
            "velocity": 0.6614173228346457
          },
          {
            "duration": 0.3214282500000003,
            "durationTicks": 288,
            "midi": 53,
            "name": "F3",
            "ticks": 23424,
            "time": 26.142831,
            "velocity": 0.6614173228346457
          },
          {
            "duration": 0.21428550000000257,
            "durationTicks": 192,
            "midi": 56,
            "name": "G#3",
            "ticks": 23712,
            "time": 26.46425925,
            "velocity": 0.6614173228346457
          },
          {
            "duration": 0.21428550000000257,
            "durationTicks": 192,
            "midi": 53,
            "name": "F3",
            "ticks": 23712,
            "time": 26.46425925,
            "velocity": 0.6614173228346457
          },
          {
            "duration": 0.21428550000000257,
            "durationTicks": 192,
            "midi": 51,
            "name": "D#3",
            "ticks": 23712,
            "time": 26.46425925,
            "velocity": 0.6614173228346457
          },
          {
            "duration": 0.10714274999999773,
            "durationTicks": 96,
            "midi": 53,
            "name": "F3",
            "ticks": 23904,
            "time": 26.678544750000004,
            "velocity": 0.6614173228346457
          },
          {
            "duration": 0.10714274999999773,
            "durationTicks": 96,
            "midi": 56,
            "name": "G#3",
            "ticks": 23904,
            "time": 26.678544750000004,
            "velocity": 0.6614173228346457
          },
          {
            "duration": 0.10714274999999773,
            "durationTicks": 96,
            "midi": 51,
            "name": "D#3",
            "ticks": 23904,
            "time": 26.678544750000004,
            "velocity": 0.6614173228346457
          },
          {
            "duration": 0.21428549999999902,
            "durationTicks": 192,
            "midi": 56,
            "name": "G#3",
            "ticks": 24000,
            "time": 26.7856875,
            "velocity": 0.6614173228346457
          },
          {
            "duration": 0.21428549999999902,
            "durationTicks": 192,
            "midi": 51,
            "name": "D#3",
            "ticks": 24000,
            "time": 26.7856875,
            "velocity": 0.6614173228346457
          },
          {
            "duration": 0.21428549999999902,
            "durationTicks": 192,
            "midi": 53,
            "name": "F3",
            "ticks": 24000,
            "time": 26.7856875,
            "velocity": 0.6614173228346457
          },
          {
            "duration": 0.21428550000000257,
            "durationTicks": 192,
            "midi": 51,
            "name": "D#3",
            "ticks": 24192,
            "time": 26.999973,
            "velocity": 0.6614173228346457
          },
          {
            "duration": 0.21428550000000257,
            "durationTicks": 192,
            "midi": 55,
            "name": "G3",
            "ticks": 24192,
            "time": 26.999973,
            "velocity": 0.6614173228346457
          },
          {
            "duration": 0.21428550000000257,
            "durationTicks": 192,
            "midi": 49,
            "name": "C#3",
            "ticks": 24192,
            "time": 26.999973,
            "velocity": 0.6614173228346457
          },
          {
            "duration": 0.21428549999999902,
            "durationTicks": 192,
            "midi": 49,
            "name": "C#3",
            "ticks": 24384,
            "time": 27.214258500000003,
            "velocity": 0.6614173228346457
          },
          {
            "duration": 0.21428549999999902,
            "durationTicks": 192,
            "midi": 55,
            "name": "G3",
            "ticks": 24384,
            "time": 27.214258500000003,
            "velocity": 0.6614173228346457
          },
          {
            "duration": 0.21428549999999902,
            "durationTicks": 192,
            "midi": 53,
            "name": "F3",
            "ticks": 24384,
            "time": 27.214258500000003,
            "velocity": 0.6614173228346457
          },
          {
            "duration": 0.4285710000000016,
            "durationTicks": 384,
            "midi": 55,
            "name": "G3",
            "ticks": 24576,
            "time": 27.428544000000002,
            "velocity": 0.6614173228346457
          },
          {
            "duration": 0.4285710000000016,
            "durationTicks": 384,
            "midi": 48,
            "name": "C3",
            "ticks": 24576,
            "time": 27.428544000000002,
            "velocity": 0.6614173228346457
          },
          {
            "duration": 0.4285710000000016,
            "durationTicks": 384,
            "midi": 53,
            "name": "F3",
            "ticks": 24576,
            "time": 27.428544000000002,
            "velocity": 0.6614173228346457
          },
          {
            "duration": 0.32142824999999675,
            "durationTicks": 288,
            "midi": 55,
            "name": "G3",
            "ticks": 24960,
            "time": 27.857115000000004,
            "velocity": 0.6614173228346457
          },
          {
            "duration": 0.32142824999999675,
            "durationTicks": 288,
            "midi": 48,
            "name": "C3",
            "ticks": 24960,
            "time": 27.857115000000004,
            "velocity": 0.6614173228346457
          },
          {
            "duration": 0.32142824999999675,
            "durationTicks": 288,
            "midi": 53,
            "name": "F3",
            "ticks": 24960,
            "time": 27.857115000000004,
            "velocity": 0.6614173228346457
          },
          {
            "duration": 0.21428550000000257,
            "durationTicks": 192,
            "midi": 48,
            "name": "C3",
            "ticks": 25248,
            "time": 28.17854325,
            "velocity": 0.6614173228346457
          },
          {
            "duration": 0.21428550000000257,
            "durationTicks": 192,
            "midi": 55,
            "name": "G3",
            "ticks": 25248,
            "time": 28.17854325,
            "velocity": 0.6614173228346457
          },
          {
            "duration": 0.21428550000000257,
            "durationTicks": 192,
            "midi": 53,
            "name": "F3",
            "ticks": 25248,
            "time": 28.17854325,
            "velocity": 0.6614173228346457
          },
          {
            "duration": 0.10714274999999773,
            "durationTicks": 96,
            "midi": 53,
            "name": "F3",
            "ticks": 25440,
            "time": 28.392828750000003,
            "velocity": 0.6614173228346457
          },
          {
            "duration": 0.10714274999999773,
            "durationTicks": 96,
            "midi": 48,
            "name": "C3",
            "ticks": 25440,
            "time": 28.392828750000003,
            "velocity": 0.6614173228346457
          },
          {
            "duration": 0.10714274999999773,
            "durationTicks": 96,
            "midi": 55,
            "name": "G3",
            "ticks": 25440,
            "time": 28.392828750000003,
            "velocity": 0.6614173228346457
          },
          {
            "duration": 0.21428550000000257,
            "durationTicks": 192,
            "midi": 53,
            "name": "F3",
            "ticks": 25536,
            "time": 28.4999715,
            "velocity": 0.6614173228346457
          },
          {
            "duration": 0.21428550000000257,
            "durationTicks": 192,
            "midi": 55,
            "name": "G3",
            "ticks": 25536,
            "time": 28.4999715,
            "velocity": 0.6614173228346457
          },
          {
            "duration": 0.21428550000000257,
            "durationTicks": 192,
            "midi": 48,
            "name": "C3",
            "ticks": 25536,
            "time": 28.4999715,
            "velocity": 0.6614173228346457
          },
          {
            "duration": 0.21428549999999902,
            "durationTicks": 192,
            "midi": 48,
            "name": "C3",
            "ticks": 25728,
            "time": 28.714257000000003,
            "velocity": 0.6614173228346457
          },
          {
            "duration": 0.21428549999999902,
            "durationTicks": 192,
            "midi": 53,
            "name": "F3",
            "ticks": 25728,
            "time": 28.714257000000003,
            "velocity": 0.6614173228346457
          },
          {
            "duration": 0.21428549999999902,
            "durationTicks": 192,
            "midi": 56,
            "name": "G#3",
            "ticks": 25728,
            "time": 28.714257000000003,
            "velocity": 0.6614173228346457
          },
          {
            "duration": 0.21428549999999902,
            "durationTicks": 192,
            "midi": 51,
            "name": "D#3",
            "ticks": 25920,
            "time": 28.928542500000002,
            "velocity": 0.6614173228346457
          },
          {
            "duration": 0.21428549999999902,
            "durationTicks": 192,
            "midi": 55,
            "name": "G3",
            "ticks": 25920,
            "time": 28.928542500000002,
            "velocity": 0.6614173228346457
          },
          {
            "duration": 0.21428549999999902,
            "durationTicks": 192,
            "midi": 48,
            "name": "C3",
            "ticks": 25920,
            "time": 28.928542500000002,
            "velocity": 0.6614173228346457
          },
          {
            "duration": 0.4285710000000016,
            "durationTicks": 384,
            "midi": 51,
            "name": "D#3",
            "ticks": 26112,
            "time": 29.142828,
            "velocity": 0.6614173228346457
          },
          {
            "duration": 0.4285710000000016,
            "durationTicks": 384,
            "midi": 48,
            "name": "C3",
            "ticks": 26112,
            "time": 29.142828,
            "velocity": 0.6614173228346457
          },
          {
            "duration": 0.4285710000000016,
            "durationTicks": 384,
            "midi": 55,
            "name": "G3",
            "ticks": 26112,
            "time": 29.142828,
            "velocity": 0.6614173228346457
          },
          {
            "duration": 0.3214282500000003,
            "durationTicks": 288,
            "midi": 48,
            "name": "C3",
            "ticks": 26496,
            "time": 29.571399000000003,
            "velocity": 0.6614173228346457
          },
          {
            "duration": 0.3214282500000003,
            "durationTicks": 288,
            "midi": 51,
            "name": "D#3",
            "ticks": 26496,
            "time": 29.571399000000003,
            "velocity": 0.6614173228346457
          },
          {
            "duration": 0.3214282500000003,
            "durationTicks": 288,
            "midi": 55,
            "name": "G3",
            "ticks": 26496,
            "time": 29.571399000000003,
            "velocity": 0.6614173228346457
          },
          {
            "duration": 0.21428549999999902,
            "durationTicks": 192,
            "midi": 51,
            "name": "D#3",
            "ticks": 26784,
            "time": 29.892827250000003,
            "velocity": 0.6614173228346457
          },
          {
            "duration": 0.21428549999999902,
            "durationTicks": 192,
            "midi": 48,
            "name": "C3",
            "ticks": 26784,
            "time": 29.892827250000003,
            "velocity": 0.6614173228346457
          },
          {
            "duration": 0.21428549999999902,
            "durationTicks": 192,
            "midi": 55,
            "name": "G3",
            "ticks": 26784,
            "time": 29.892827250000003,
            "velocity": 0.6614173228346457
          },
          {
            "duration": 0.10714275000000129,
            "durationTicks": 96,
            "midi": 48,
            "name": "C3",
            "ticks": 26976,
            "time": 30.107112750000002,
            "velocity": 0.6614173228346457
          },
          {
            "duration": 0.10714275000000129,
            "durationTicks": 96,
            "midi": 51,
            "name": "D#3",
            "ticks": 26976,
            "time": 30.107112750000002,
            "velocity": 0.6614173228346457
          },
          {
            "duration": 0.10714275000000129,
            "durationTicks": 96,
            "midi": 55,
            "name": "G3",
            "ticks": 26976,
            "time": 30.107112750000002,
            "velocity": 0.6614173228346457
          },
          {
            "duration": 0.21428549999999902,
            "durationTicks": 192,
            "midi": 48,
            "name": "C3",
            "ticks": 27072,
            "time": 30.214255500000004,
            "velocity": 0.6614173228346457
          },
          {
            "duration": 0.21428549999999902,
            "durationTicks": 192,
            "midi": 51,
            "name": "D#3",
            "ticks": 27072,
            "time": 30.214255500000004,
            "velocity": 0.6614173228346457
          },
          {
            "duration": 0.21428549999999902,
            "durationTicks": 192,
            "midi": 55,
            "name": "G3",
            "ticks": 27072,
            "time": 30.214255500000004,
            "velocity": 0.6614173228346457
          },
          {
            "duration": 0.21428549999999902,
            "durationTicks": 192,
            "midi": 56,
            "name": "G#3",
            "ticks": 27264,
            "time": 30.428541000000003,
            "velocity": 0.6614173228346457
          },
          {
            "duration": 0.21428549999999902,
            "durationTicks": 192,
            "midi": 48,
            "name": "C3",
            "ticks": 27264,
            "time": 30.428541000000003,
            "velocity": 0.6614173228346457
          },
          {
            "duration": 0.21428549999999902,
            "durationTicks": 192,
            "midi": 53,
            "name": "F3",
            "ticks": 27264,
            "time": 30.428541000000003,
            "velocity": 0.6614173228346457
          },
          {
            "duration": 0.10714275000000129,
            "durationTicks": 96,
            "midi": 48,
            "name": "C3",
            "ticks": 27456,
            "time": 30.6428265,
            "velocity": 0.6614173228346457
          },
          {
            "duration": 0.10714275000000129,
            "durationTicks": 96,
            "midi": 51,
            "name": "D#3",
            "ticks": 27456,
            "time": 30.6428265,
            "velocity": 0.6614173228346457
          },
          {
            "duration": 0.10714275000000129,
            "durationTicks": 96,
            "midi": 56,
            "name": "G#3",
            "ticks": 27456,
            "time": 30.6428265,
            "velocity": 0.6614173228346457
          },
          {
            "duration": 0.10714274999999773,
            "durationTicks": 96,
            "midi": 55,
            "name": "G3",
            "ticks": 27552,
            "time": 30.749969250000003,
            "velocity": 0.6614173228346457
          },
          {
            "duration": 0.10714274999999773,
            "durationTicks": 96,
            "midi": 51,
            "name": "D#3",
            "ticks": 27552,
            "time": 30.749969250000003,
            "velocity": 0.6614173228346457
          },
          {
            "duration": 0.10714274999999773,
            "durationTicks": 96,
            "midi": 48,
            "name": "C3",
            "ticks": 27552,
            "time": 30.749969250000003,
            "velocity": 0.6614173228346457
          },
          {
            "duration": 0.4285710000000016,
            "durationTicks": 384,
            "midi": 55,
            "name": "G3",
            "ticks": 27648,
            "time": 30.857112,
            "velocity": 0.6614173228346457
          },
          {
            "duration": 0.4285710000000016,
            "durationTicks": 384,
            "midi": 48,
            "name": "C3",
            "ticks": 27648,
            "time": 30.857112,
            "velocity": 0.6614173228346457
          },
          {
            "duration": 0.4285710000000016,
            "durationTicks": 384,
            "midi": 53,
            "name": "F3",
            "ticks": 27648,
            "time": 30.857112,
            "velocity": 0.6614173228346457
          },
          {
            "duration": 0.3214282500000003,
            "durationTicks": 288,
            "midi": 53,
            "name": "F3",
            "ticks": 28032,
            "time": 31.285683000000002,
            "velocity": 0.6614173228346457
          },
          {
            "duration": 0.3214282500000003,
            "durationTicks": 288,
            "midi": 55,
            "name": "G3",
            "ticks": 28032,
            "time": 31.285683000000002,
            "velocity": 0.6614173228346457
          },
          {
            "duration": 0.3214282500000003,
            "durationTicks": 288,
            "midi": 48,
            "name": "C3",
            "ticks": 28032,
            "time": 31.285683000000002,
            "velocity": 0.6614173228346457
          },
          {
            "duration": 0.21428549999999902,
            "durationTicks": 192,
            "midi": 53,
            "name": "F3",
            "ticks": 28320,
            "time": 31.607111250000003,
            "velocity": 0.6614173228346457
          },
          {
            "duration": 0.21428549999999902,
            "durationTicks": 192,
            "midi": 55,
            "name": "G3",
            "ticks": 28320,
            "time": 31.607111250000003,
            "velocity": 0.6614173228346457
          },
          {
            "duration": 0.21428549999999902,
            "durationTicks": 192,
            "midi": 48,
            "name": "C3",
            "ticks": 28320,
            "time": 31.607111250000003,
            "velocity": 0.6614173228346457
          },
          {
            "duration": 0.10714275000000129,
            "durationTicks": 96,
            "midi": 48,
            "name": "C3",
            "ticks": 28512,
            "time": 31.82139675,
            "velocity": 0.6614173228346457
          },
          {
            "duration": 0.10714275000000129,
            "durationTicks": 96,
            "midi": 55,
            "name": "G3",
            "ticks": 28512,
            "time": 31.82139675,
            "velocity": 0.6614173228346457
          },
          {
            "duration": 0.10714275000000129,
            "durationTicks": 96,
            "midi": 53,
            "name": "F3",
            "ticks": 28512,
            "time": 31.82139675,
            "velocity": 0.6614173228346457
          },
          {
            "duration": 0.21428549999999902,
            "durationTicks": 192,
            "midi": 55,
            "name": "G3",
            "ticks": 28608,
            "time": 31.928539500000003,
            "velocity": 0.6614173228346457
          },
          {
            "duration": 0.21428549999999902,
            "durationTicks": 192,
            "midi": 48,
            "name": "C3",
            "ticks": 28608,
            "time": 31.928539500000003,
            "velocity": 0.6614173228346457
          },
          {
            "duration": 0.21428549999999902,
            "durationTicks": 192,
            "midi": 53,
            "name": "F3",
            "ticks": 28608,
            "time": 31.928539500000003,
            "velocity": 0.6614173228346457
          },
          {
            "duration": 0.21428550000000257,
            "durationTicks": 192,
            "midi": 53,
            "name": "F3",
            "ticks": 28800,
            "time": 32.142825,
            "velocity": 0.6614173228346457
          },
          {
            "duration": 0.21428550000000257,
            "durationTicks": 192,
            "midi": 51,
            "name": "D#3",
            "ticks": 28800,
            "time": 32.142825,
            "velocity": 0.6614173228346457
          },
          {
            "duration": 0.21428550000000257,
            "durationTicks": 192,
            "midi": 46,
            "name": "A#2",
            "ticks": 28800,
            "time": 32.142825,
            "velocity": 0.6614173228346457
          },
          {
            "duration": 0.21428549999999547,
            "durationTicks": 192,
            "midi": 53,
            "name": "F3",
            "ticks": 28992,
            "time": 32.357110500000005,
            "velocity": 0.6614173228346457
          },
          {
            "duration": 0.21428549999999547,
            "durationTicks": 192,
            "midi": 46,
            "name": "A#2",
            "ticks": 28992,
            "time": 32.357110500000005,
            "velocity": 0.6614173228346457
          },
          {
            "duration": 0.21428549999999547,
            "durationTicks": 192,
            "midi": 58,
            "name": "A#3",
            "ticks": 28992,
            "time": 32.357110500000005,
            "velocity": 0.6614173228346457
          },
          {
            "duration": 0.42857100000000514,
            "durationTicks": 384,
            "midi": 58,
            "name": "A#3",
            "ticks": 29184,
            "time": 32.571396,
            "velocity": 0.6614173228346457
          },
          {
            "duration": 0.42857100000000514,
            "durationTicks": 384,
            "midi": 48,
            "name": "C3",
            "ticks": 29184,
            "time": 32.571396,
            "velocity": 0.6614173228346457
          },
          {
            "duration": 0.42857100000000514,
            "durationTicks": 384,
            "midi": 51,
            "name": "D#3",
            "ticks": 29184,
            "time": 32.571396,
            "velocity": 0.6614173228346457
          },
          {
            "duration": 0.32142824999999675,
            "durationTicks": 288,
            "midi": 48,
            "name": "C3",
            "ticks": 29568,
            "time": 32.999967000000005,
            "velocity": 0.6614173228346457
          },
          {
            "duration": 0.32142824999999675,
            "durationTicks": 288,
            "midi": 51,
            "name": "D#3",
            "ticks": 29568,
            "time": 32.999967000000005,
            "velocity": 0.6614173228346457
          },
          {
            "duration": 0.32142824999999675,
            "durationTicks": 288,
            "midi": 58,
            "name": "A#3",
            "ticks": 29568,
            "time": 32.999967000000005,
            "velocity": 0.6614173228346457
          },
          {
            "duration": 0.21428550000000257,
            "durationTicks": 192,
            "midi": 58,
            "name": "A#3",
            "ticks": 29856,
            "time": 33.32139525,
            "velocity": 0.6614173228346457
          },
          {
            "duration": 0.21428550000000257,
            "durationTicks": 192,
            "midi": 48,
            "name": "C3",
            "ticks": 29856,
            "time": 33.32139525,
            "velocity": 0.6614173228346457
          },
          {
            "duration": 0.21428550000000257,
            "durationTicks": 192,
            "midi": 51,
            "name": "D#3",
            "ticks": 29856,
            "time": 33.32139525,
            "velocity": 0.6614173228346457
          },
          {
            "duration": 0.10714275000000129,
            "durationTicks": 96,
            "midi": 48,
            "name": "C3",
            "ticks": 30048,
            "time": 33.535680750000004,
            "velocity": 0.6614173228346457
          },
          {
            "duration": 0.10714275000000129,
            "durationTicks": 96,
            "midi": 58,
            "name": "A#3",
            "ticks": 30048,
            "time": 33.535680750000004,
            "velocity": 0.6614173228346457
          },
          {
            "duration": 0.10714275000000129,
            "durationTicks": 96,
            "midi": 51,
            "name": "D#3",
            "ticks": 30048,
            "time": 33.535680750000004,
            "velocity": 0.6614173228346457
          },
          {
            "duration": 0.21428549999999547,
            "durationTicks": 192,
            "midi": 58,
            "name": "A#3",
            "ticks": 30144,
            "time": 33.642823500000006,
            "velocity": 0.6614173228346457
          },
          {
            "duration": 0.21428549999999547,
            "durationTicks": 192,
            "midi": 51,
            "name": "D#3",
            "ticks": 30144,
            "time": 33.642823500000006,
            "velocity": 0.6614173228346457
          },
          {
            "duration": 0.21428549999999547,
            "durationTicks": 192,
            "midi": 48,
            "name": "C3",
            "ticks": 30144,
            "time": 33.642823500000006,
            "velocity": 0.6614173228346457
          },
          {
            "duration": 0.21428550000000257,
            "durationTicks": 192,
            "midi": 46,
            "name": "A#2",
            "ticks": 30336,
            "time": 33.857109,
            "velocity": 0.6614173228346457
          },
          {
            "duration": 0.21428550000000257,
            "durationTicks": 192,
            "midi": 56,
            "name": "G#3",
            "ticks": 30336,
            "time": 33.857109,
            "velocity": 0.6614173228346457
          },
          {
            "duration": 0.21428550000000257,
            "durationTicks": 192,
            "midi": 49,
            "name": "C#3",
            "ticks": 30336,
            "time": 33.857109,
            "velocity": 0.6614173228346457
          },
          {
            "duration": 0.21428549999999547,
            "durationTicks": 192,
            "midi": 46,
            "name": "A#2",
            "ticks": 30528,
            "time": 34.071394500000004,
            "velocity": 0.6614173228346457
          },
          {
            "duration": 0.21428549999999547,
            "durationTicks": 192,
            "midi": 51,
            "name": "D#3",
            "ticks": 30528,
            "time": 34.071394500000004,
            "velocity": 0.6614173228346457
          },
          {
            "duration": 0.21428549999999547,
            "durationTicks": 192,
            "midi": 58,
            "name": "A#3",
            "ticks": 30528,
            "time": 34.071394500000004,
            "velocity": 0.6614173228346457
          },
          {
            "duration": 0.42857100000000514,
            "durationTicks": 384,
            "midi": 53,
            "name": "F3",
            "ticks": 30720,
            "time": 34.28568,
            "velocity": 0.6614173228346457
          },
          {
            "duration": 0.42857100000000514,
            "durationTicks": 384,
            "midi": 58,
            "name": "A#3",
            "ticks": 30720,
            "time": 34.28568,
            "velocity": 0.6614173228346457
          },
          {
            "duration": 0.42857100000000514,
            "durationTicks": 384,
            "midi": 63,
            "name": "D#4",
            "ticks": 30720,
            "time": 34.28568,
            "velocity": 0.6614173228346457
          },
          {
            "duration": 0.32142824999999675,
            "durationTicks": 288,
            "midi": 63,
            "name": "D#4",
            "ticks": 31104,
            "time": 34.714251000000004,
            "velocity": 0.6614173228346457
          },
          {
            "duration": 0.32142824999999675,
            "durationTicks": 288,
            "midi": 58,
            "name": "A#3",
            "ticks": 31104,
            "time": 34.714251000000004,
            "velocity": 0.6614173228346457
          },
          {
            "duration": 0.32142824999999675,
            "durationTicks": 288,
            "midi": 53,
            "name": "F3",
            "ticks": 31104,
            "time": 34.714251000000004,
            "velocity": 0.6614173228346457
          },
          {
            "duration": 0.21428550000000257,
            "durationTicks": 192,
            "midi": 58,
            "name": "A#3",
            "ticks": 31392,
            "time": 35.03567925,
            "velocity": 0.6614173228346457
          },
          {
            "duration": 0.21428550000000257,
            "durationTicks": 192,
            "midi": 53,
            "name": "F3",
            "ticks": 31392,
            "time": 35.03567925,
            "velocity": 0.6614173228346457
          },
          {
            "duration": 0.21428550000000257,
            "durationTicks": 192,
            "midi": 63,
            "name": "D#4",
            "ticks": 31392,
            "time": 35.03567925,
            "velocity": 0.6614173228346457
          },
          {
            "duration": 0.10714275000000129,
            "durationTicks": 96,
            "midi": 63,
            "name": "D#4",
            "ticks": 31584,
            "time": 35.249964750000004,
            "velocity": 0.6614173228346457
          },
          {
            "duration": 0.10714275000000129,
            "durationTicks": 96,
            "midi": 58,
            "name": "A#3",
            "ticks": 31584,
            "time": 35.249964750000004,
            "velocity": 0.6614173228346457
          },
          {
            "duration": 0.10714275000000129,
            "durationTicks": 96,
            "midi": 53,
            "name": "F3",
            "ticks": 31584,
            "time": 35.249964750000004,
            "velocity": 0.6614173228346457
          },
          {
            "duration": 0.21428549999999547,
            "durationTicks": 192,
            "midi": 53,
            "name": "F3",
            "ticks": 31680,
            "time": 35.357107500000005,
            "velocity": 0.6614173228346457
          },
          {
            "duration": 0.21428549999999547,
            "durationTicks": 192,
            "midi": 63,
            "name": "D#4",
            "ticks": 31680,
            "time": 35.357107500000005,
            "velocity": 0.6614173228346457
          },
          {
            "duration": 0.21428549999999547,
            "durationTicks": 192,
            "midi": 58,
            "name": "A#3",
            "ticks": 31680,
            "time": 35.357107500000005,
            "velocity": 0.6614173228346457
          },
          {
            "duration": 0.21428550000000257,
            "durationTicks": 192,
            "midi": 61,
            "name": "C#4",
            "ticks": 31872,
            "time": 35.571393,
            "velocity": 0.6614173228346457
          },
          {
            "duration": 0.21428550000000257,
            "durationTicks": 192,
            "midi": 51,
            "name": "D#3",
            "ticks": 31872,
            "time": 35.571393,
            "velocity": 0.6614173228346457
          },
          {
            "duration": 0.21428550000000257,
            "durationTicks": 192,
            "midi": 56,
            "name": "G#3",
            "ticks": 31872,
            "time": 35.571393,
            "velocity": 0.6614173228346457
          },
          {
            "duration": 0.21428550000000257,
            "durationTicks": 192,
            "midi": 58,
            "name": "A#3",
            "ticks": 32064,
            "time": 35.7856785,
            "velocity": 0.6614173228346457
          },
          {
            "duration": 0.21428550000000257,
            "durationTicks": 192,
            "midi": 51,
            "name": "D#3",
            "ticks": 32064,
            "time": 35.7856785,
            "velocity": 0.6614173228346457
          },
          {
            "duration": 0.21428550000000257,
            "durationTicks": 192,
            "midi": 63,
            "name": "D#4",
            "ticks": 32064,
            "time": 35.7856785,
            "velocity": 0.6614173228346457
          },
          {
            "duration": 0.42857099999999804,
            "durationTicks": 384,
            "midi": 53,
            "name": "F3",
            "ticks": 32256,
            "time": 35.999964000000006,
            "velocity": 0.6614173228346457
          },
          {
            "duration": 0.42857099999999804,
            "durationTicks": 384,
            "midi": 56,
            "name": "G#3",
            "ticks": 32256,
            "time": 35.999964000000006,
            "velocity": 0.6614173228346457
          },
          {
            "duration": 0.42857099999999804,
            "durationTicks": 384,
            "midi": 51,
            "name": "D#3",
            "ticks": 32256,
            "time": 35.999964000000006,
            "velocity": 0.6614173228346457
          },
          {
            "duration": 0.32142824999999675,
            "durationTicks": 288,
            "midi": 51,
            "name": "D#3",
            "ticks": 32640,
            "time": 36.428535000000004,
            "velocity": 0.6614173228346457
          },
          {
            "duration": 0.32142824999999675,
            "durationTicks": 288,
            "midi": 53,
            "name": "F3",
            "ticks": 32640,
            "time": 36.428535000000004,
            "velocity": 0.6614173228346457
          },
          {
            "duration": 0.32142824999999675,
            "durationTicks": 288,
            "midi": 56,
            "name": "G#3",
            "ticks": 32640,
            "time": 36.428535000000004,
            "velocity": 0.6614173228346457
          },
          {
            "duration": 0.21428550000000257,
            "durationTicks": 192,
            "midi": 53,
            "name": "F3",
            "ticks": 32928,
            "time": 36.74996325,
            "velocity": 0.6614173228346457
          },
          {
            "duration": 0.21428550000000257,
            "durationTicks": 192,
            "midi": 51,
            "name": "D#3",
            "ticks": 32928,
            "time": 36.74996325,
            "velocity": 0.6614173228346457
          },
          {
            "duration": 0.21428550000000257,
            "durationTicks": 192,
            "midi": 56,
            "name": "G#3",
            "ticks": 32928,
            "time": 36.74996325,
            "velocity": 0.6614173228346457
          },
          {
            "duration": 0.10714275000000129,
            "durationTicks": 96,
            "midi": 53,
            "name": "F3",
            "ticks": 33120,
            "time": 36.96424875,
            "velocity": 0.6614173228346457
          },
          {
            "duration": 0.10714275000000129,
            "durationTicks": 96,
            "midi": 56,
            "name": "G#3",
            "ticks": 33120,
            "time": 36.96424875,
            "velocity": 0.6614173228346457
          },
          {
            "duration": 0.10714275000000129,
            "durationTicks": 96,
            "midi": 51,
            "name": "D#3",
            "ticks": 33120,
            "time": 36.96424875,
            "velocity": 0.6614173228346457
          },
          {
            "duration": 0.21428549999999547,
            "durationTicks": 192,
            "midi": 51,
            "name": "D#3",
            "ticks": 33216,
            "time": 37.071391500000004,
            "velocity": 0.6614173228346457
          },
          {
            "duration": 0.21428549999999547,
            "durationTicks": 192,
            "midi": 53,
            "name": "F3",
            "ticks": 33216,
            "time": 37.071391500000004,
            "velocity": 0.6614173228346457
          },
          {
            "duration": 0.21428549999999547,
            "durationTicks": 192,
            "midi": 56,
            "name": "G#3",
            "ticks": 33216,
            "time": 37.071391500000004,
            "velocity": 0.6614173228346457
          },
          {
            "duration": 0.21428550000000257,
            "durationTicks": 192,
            "midi": 55,
            "name": "G3",
            "ticks": 33408,
            "time": 37.285677,
            "velocity": 0.6614173228346457
          },
          {
            "duration": 0.21428550000000257,
            "durationTicks": 192,
            "midi": 51,
            "name": "D#3",
            "ticks": 33408,
            "time": 37.285677,
            "velocity": 0.6614173228346457
          },
          {
            "duration": 0.21428550000000257,
            "durationTicks": 192,
            "midi": 49,
            "name": "C#3",
            "ticks": 33408,
            "time": 37.285677,
            "velocity": 0.6614173228346457
          },
          {
            "duration": 0.21428550000000257,
            "durationTicks": 192,
            "midi": 53,
            "name": "F3",
            "ticks": 33600,
            "time": 37.4999625,
            "velocity": 0.6614173228346457
          },
          {
            "duration": 0.21428550000000257,
            "durationTicks": 192,
            "midi": 55,
            "name": "G3",
            "ticks": 33600,
            "time": 37.4999625,
            "velocity": 0.6614173228346457
          },
          {
            "duration": 0.21428550000000257,
            "durationTicks": 192,
            "midi": 49,
            "name": "C#3",
            "ticks": 33600,
            "time": 37.4999625,
            "velocity": 0.6614173228346457
          },
          {
            "duration": 0.42857099999999804,
            "durationTicks": 384,
            "midi": 55,
            "name": "G3",
            "ticks": 33792,
            "time": 37.714248000000005,
            "velocity": 0.6614173228346457
          },
          {
            "duration": 0.42857099999999804,
            "durationTicks": 384,
            "midi": 48,
            "name": "C3",
            "ticks": 33792,
            "time": 37.714248000000005,
            "velocity": 0.6614173228346457
          },
          {
            "duration": 0.42857099999999804,
            "durationTicks": 384,
            "midi": 53,
            "name": "F3",
            "ticks": 33792,
            "time": 37.714248000000005,
            "velocity": 0.6614173228346457
          },
          {
            "duration": 0.32142824999999675,
            "durationTicks": 288,
            "midi": 48,
            "name": "C3",
            "ticks": 34176,
            "time": 38.142819,
            "velocity": 0.6614173228346457
          },
          {
            "duration": 0.32142824999999675,
            "durationTicks": 288,
            "midi": 55,
            "name": "G3",
            "ticks": 34176,
            "time": 38.142819,
            "velocity": 0.6614173228346457
          },
          {
            "duration": 0.32142824999999675,
            "durationTicks": 288,
            "midi": 53,
            "name": "F3",
            "ticks": 34176,
            "time": 38.142819,
            "velocity": 0.6614173228346457
          },
          {
            "duration": 0.21428550000000257,
            "durationTicks": 192,
            "midi": 53,
            "name": "F3",
            "ticks": 34464,
            "time": 38.46424725,
            "velocity": 0.6614173228346457
          },
          {
            "duration": 0.21428550000000257,
            "durationTicks": 192,
            "midi": 55,
            "name": "G3",
            "ticks": 34464,
            "time": 38.46424725,
            "velocity": 0.6614173228346457
          },
          {
            "duration": 0.21428550000000257,
            "durationTicks": 192,
            "midi": 48,
            "name": "C3",
            "ticks": 34464,
            "time": 38.46424725,
            "velocity": 0.6614173228346457
          },
          {
            "duration": 0.10714275000000129,
            "durationTicks": 96,
            "midi": 48,
            "name": "C3",
            "ticks": 34656,
            "time": 38.67853275,
            "velocity": 0.6614173228346457
          },
          {
            "duration": 0.10714275000000129,
            "durationTicks": 96,
            "midi": 53,
            "name": "F3",
            "ticks": 34656,
            "time": 38.67853275,
            "velocity": 0.6614173228346457
          },
          {
            "duration": 0.10714275000000129,
            "durationTicks": 96,
            "midi": 55,
            "name": "G3",
            "ticks": 34656,
            "time": 38.67853275,
            "velocity": 0.6614173228346457
          },
          {
            "duration": 0.21428550000000257,
            "durationTicks": 192,
            "midi": 48,
            "name": "C3",
            "ticks": 34752,
            "time": 38.7856755,
            "velocity": 0.6614173228346457
          },
          {
            "duration": 0.21428550000000257,
            "durationTicks": 192,
            "midi": 53,
            "name": "F3",
            "ticks": 34752,
            "time": 38.7856755,
            "velocity": 0.6614173228346457
          },
          {
            "duration": 0.21428550000000257,
            "durationTicks": 192,
            "midi": 55,
            "name": "G3",
            "ticks": 34752,
            "time": 38.7856755,
            "velocity": 0.6614173228346457
          },
          {
            "duration": 0.21428549999999547,
            "durationTicks": 192,
            "midi": 56,
            "name": "G#3",
            "ticks": 34944,
            "time": 38.999961000000006,
            "velocity": 0.6614173228346457
          },
          {
            "duration": 0.21428549999999547,
            "durationTicks": 192,
            "midi": 48,
            "name": "C3",
            "ticks": 34944,
            "time": 38.999961000000006,
            "velocity": 0.6614173228346457
          },
          {
            "duration": 0.21428549999999547,
            "durationTicks": 192,
            "midi": 53,
            "name": "F3",
            "ticks": 34944,
            "time": 38.999961000000006,
            "velocity": 0.6614173228346457
          },
          {
            "duration": 0.21428550000000257,
            "durationTicks": 192,
            "midi": 51,
            "name": "D#3",
            "ticks": 35136,
            "time": 39.2142465,
            "velocity": 0.6614173228346457
          },
          {
            "duration": 0.21428550000000257,
            "durationTicks": 192,
            "midi": 55,
            "name": "G3",
            "ticks": 35136,
            "time": 39.2142465,
            "velocity": 0.6614173228346457
          },
          {
            "duration": 0.21428550000000257,
            "durationTicks": 192,
            "midi": 48,
            "name": "C3",
            "ticks": 35136,
            "time": 39.2142465,
            "velocity": 0.6614173228346457
          },
          {
            "duration": 0.42857099999999804,
            "durationTicks": 384,
            "midi": 55,
            "name": "G3",
            "ticks": 35328,
            "time": 39.428532000000004,
            "velocity": 0.6614173228346457
          },
          {
            "duration": 0.42857099999999804,
            "durationTicks": 384,
            "midi": 48,
            "name": "C3",
            "ticks": 35328,
            "time": 39.428532000000004,
            "velocity": 0.6614173228346457
          },
          {
            "duration": 0.42857099999999804,
            "durationTicks": 384,
            "midi": 51,
            "name": "D#3",
            "ticks": 35328,
            "time": 39.428532000000004,
            "velocity": 0.6614173228346457
          },
          {
            "duration": 0.32142825000000386,
            "durationTicks": 288,
            "midi": 55,
            "name": "G3",
            "ticks": 35712,
            "time": 39.857103,
            "velocity": 0.6614173228346457
          },
          {
            "duration": 0.32142825000000386,
            "durationTicks": 288,
            "midi": 51,
            "name": "D#3",
            "ticks": 35712,
            "time": 39.857103,
            "velocity": 0.6614173228346457
          },
          {
            "duration": 0.32142825000000386,
            "durationTicks": 288,
            "midi": 48,
            "name": "C3",
            "ticks": 35712,
            "time": 39.857103,
            "velocity": 0.6614173228346457
          },
          {
            "duration": 0.21428549999999547,
            "durationTicks": 192,
            "midi": 48,
            "name": "C3",
            "ticks": 36000,
            "time": 40.178531250000006,
            "velocity": 0.6614173228346457
          },
          {
            "duration": 0.21428549999999547,
            "durationTicks": 192,
            "midi": 55,
            "name": "G3",
            "ticks": 36000,
            "time": 40.178531250000006,
            "velocity": 0.6614173228346457
          },
          {
            "duration": 0.21428549999999547,
            "durationTicks": 192,
            "midi": 51,
            "name": "D#3",
            "ticks": 36000,
            "time": 40.178531250000006,
            "velocity": 0.6614173228346457
          },
          {
            "duration": 0.10714275000000129,
            "durationTicks": 96,
            "midi": 51,
            "name": "D#3",
            "ticks": 36192,
            "time": 40.39281675,
            "velocity": 0.6614173228346457
          },
          {
            "duration": 0.10714275000000129,
            "durationTicks": 96,
            "midi": 48,
            "name": "C3",
            "ticks": 36192,
            "time": 40.39281675,
            "velocity": 0.6614173228346457
          },
          {
            "duration": 0.10714275000000129,
            "durationTicks": 96,
            "midi": 55,
            "name": "G3",
            "ticks": 36192,
            "time": 40.39281675,
            "velocity": 0.6614173228346457
          },
          {
            "duration": 0.21428550000000257,
            "durationTicks": 192,
            "midi": 55,
            "name": "G3",
            "ticks": 36288,
            "time": 40.4999595,
            "velocity": 0.6614173228346457
          },
          {
            "duration": 0.21428550000000257,
            "durationTicks": 192,
            "midi": 51,
            "name": "D#3",
            "ticks": 36288,
            "time": 40.4999595,
            "velocity": 0.6614173228346457
          },
          {
            "duration": 0.21428550000000257,
            "durationTicks": 192,
            "midi": 48,
            "name": "C3",
            "ticks": 36288,
            "time": 40.4999595,
            "velocity": 0.6614173228346457
          },
          {
            "duration": 0.21428549999999547,
            "durationTicks": 192,
            "midi": 48,
            "name": "C3",
            "ticks": 36480,
            "time": 40.714245000000005,
            "velocity": 0.6614173228346457
          },
          {
            "duration": 0.21428549999999547,
            "durationTicks": 192,
            "midi": 56,
            "name": "G#3",
            "ticks": 36480,
            "time": 40.714245000000005,
            "velocity": 0.6614173228346457
          },
          {
            "duration": 0.21428549999999547,
            "durationTicks": 192,
            "midi": 53,
            "name": "F3",
            "ticks": 36480,
            "time": 40.714245000000005,
            "velocity": 0.6614173228346457
          },
          {
            "duration": 0.10714275000000129,
            "durationTicks": 96,
            "midi": 51,
            "name": "D#3",
            "ticks": 36672,
            "time": 40.9285305,
            "velocity": 0.6614173228346457
          },
          {
            "duration": 0.10714275000000129,
            "durationTicks": 96,
            "midi": 48,
            "name": "C3",
            "ticks": 36672,
            "time": 40.9285305,
            "velocity": 0.6614173228346457
          },
          {
            "duration": 0.10714275000000129,
            "durationTicks": 96,
            "midi": 56,
            "name": "G#3",
            "ticks": 36672,
            "time": 40.9285305,
            "velocity": 0.6614173228346457
          },
          {
            "duration": 0.10714275000000129,
            "durationTicks": 96,
            "midi": 51,
            "name": "D#3",
            "ticks": 36768,
            "time": 41.03567325,
            "velocity": 0.6614173228346457
          },
          {
            "duration": 0.10714275000000129,
            "durationTicks": 96,
            "midi": 48,
            "name": "C3",
            "ticks": 36768,
            "time": 41.03567325,
            "velocity": 0.6614173228346457
          },
          {
            "duration": 0.10714275000000129,
            "durationTicks": 96,
            "midi": 55,
            "name": "G3",
            "ticks": 36768,
            "time": 41.03567325,
            "velocity": 0.6614173228346457
          },
          {
            "duration": 0.42857099999999804,
            "durationTicks": 384,
            "midi": 47,
            "name": "B2",
            "ticks": 36864,
            "time": 41.142816,
            "velocity": 0.6614173228346457
          },
          {
            "duration": 0.42857099999999804,
            "durationTicks": 384,
            "midi": 52,
            "name": "E3",
            "ticks": 36864,
            "time": 41.142816,
            "velocity": 0.6614173228346457
          },
          {
            "duration": 0.42857099999999804,
            "durationTicks": 384,
            "midi": 54,
            "name": "F#3",
            "ticks": 36864,
            "time": 41.142816,
            "velocity": 0.6614173228346457
          },
          {
            "duration": 0.32142825000000386,
            "durationTicks": 288,
            "midi": 47,
            "name": "B2",
            "ticks": 37248,
            "time": 41.571387,
            "velocity": 0.6614173228346457
          },
          {
            "duration": 0.32142825000000386,
            "durationTicks": 288,
            "midi": 52,
            "name": "E3",
            "ticks": 37248,
            "time": 41.571387,
            "velocity": 0.6614173228346457
          },
          {
            "duration": 0.32142825000000386,
            "durationTicks": 288,
            "midi": 54,
            "name": "F#3",
            "ticks": 37248,
            "time": 41.571387,
            "velocity": 0.6614173228346457
          },
          {
            "duration": 0.21428549999999547,
            "durationTicks": 192,
            "midi": 52,
            "name": "E3",
            "ticks": 37536,
            "time": 41.892815250000005,
            "velocity": 0.6614173228346457
          },
          {
            "duration": 0.21428549999999547,
            "durationTicks": 192,
            "midi": 54,
            "name": "F#3",
            "ticks": 37536,
            "time": 41.892815250000005,
            "velocity": 0.6614173228346457
          },
          {
            "duration": 0.21428549999999547,
            "durationTicks": 192,
            "midi": 47,
            "name": "B2",
            "ticks": 37536,
            "time": 41.892815250000005,
            "velocity": 0.6614173228346457
          },
          {
            "duration": 0.10714275000000129,
            "durationTicks": 96,
            "midi": 54,
            "name": "F#3",
            "ticks": 37728,
            "time": 42.10710075,
            "velocity": 0.6614173228346457
          },
          {
            "duration": 0.10714275000000129,
            "durationTicks": 96,
            "midi": 47,
            "name": "B2",
            "ticks": 37728,
            "time": 42.10710075,
            "velocity": 0.6614173228346457
          },
          {
            "duration": 0.10714275000000129,
            "durationTicks": 96,
            "midi": 52,
            "name": "E3",
            "ticks": 37728,
            "time": 42.10710075,
            "velocity": 0.6614173228346457
          },
          {
            "duration": 0.21428550000000257,
            "durationTicks": 192,
            "midi": 54,
            "name": "F#3",
            "ticks": 37824,
            "time": 42.2142435,
            "velocity": 0.6614173228346457
          },
          {
            "duration": 0.21428550000000257,
            "durationTicks": 192,
            "midi": 47,
            "name": "B2",
            "ticks": 37824,
            "time": 42.2142435,
            "velocity": 0.6614173228346457
          },
          {
            "duration": 0.21428550000000257,
            "durationTicks": 192,
            "midi": 52,
            "name": "E3",
            "ticks": 37824,
            "time": 42.2142435,
            "velocity": 0.6614173228346457
          },
          {
            "duration": 0.21428549999999547,
            "durationTicks": 192,
            "midi": 45,
            "name": "A2",
            "ticks": 38016,
            "time": 42.428529000000005,
            "velocity": 0.6614173228346457
          },
          {
            "duration": 0.21428549999999547,
            "durationTicks": 192,
            "midi": 52,
            "name": "E3",
            "ticks": 38016,
            "time": 42.428529000000005,
            "velocity": 0.6614173228346457
          },
          {
            "duration": 0.21428549999999547,
            "durationTicks": 192,
            "midi": 50,
            "name": "D3",
            "ticks": 38016,
            "time": 42.428529000000005,
            "velocity": 0.6614173228346457
          },
          {
            "duration": 0.21428550000000257,
            "durationTicks": 192,
            "midi": 52,
            "name": "E3",
            "ticks": 38208,
            "time": 42.6428145,
            "velocity": 0.6614173228346457
          },
          {
            "duration": 0.21428550000000257,
            "durationTicks": 192,
            "midi": 57,
            "name": "A3",
            "ticks": 38208,
            "time": 42.6428145,
            "velocity": 0.6614173228346457
          },
          {
            "duration": 0.21428550000000257,
            "durationTicks": 192,
            "midi": 45,
            "name": "A2",
            "ticks": 38208,
            "time": 42.6428145,
            "velocity": 0.6614173228346457
          },
          {
            "duration": 0.42857099999999804,
            "durationTicks": 384,
            "midi": 47,
            "name": "B2",
            "ticks": 38400,
            "time": 42.8571,
            "velocity": 0.6614173228346457
          },
          {
            "duration": 0.42857099999999804,
            "durationTicks": 384,
            "midi": 57,
            "name": "A3",
            "ticks": 38400,
            "time": 42.8571,
            "velocity": 0.6614173228346457
          },
          {
            "duration": 0.42857099999999804,
            "durationTicks": 384,
            "midi": 50,
            "name": "D3",
            "ticks": 38400,
            "time": 42.8571,
            "velocity": 0.6614173228346457
          },
          {
            "duration": 0.32142825000000386,
            "durationTicks": 288,
            "midi": 50,
            "name": "D3",
            "ticks": 38784,
            "time": 43.285671,
            "velocity": 0.6614173228346457
          },
          {
            "duration": 0.32142825000000386,
            "durationTicks": 288,
            "midi": 57,
            "name": "A3",
            "ticks": 38784,
            "time": 43.285671,
            "velocity": 0.6614173228346457
          },
          {
            "duration": 0.32142825000000386,
            "durationTicks": 288,
            "midi": 47,
            "name": "B2",
            "ticks": 38784,
            "time": 43.285671,
            "velocity": 0.6614173228346457
          },
          {
            "duration": 0.21428550000000257,
            "durationTicks": 192,
            "midi": 47,
            "name": "B2",
            "ticks": 39072,
            "time": 43.607099250000005,
            "velocity": 0.6614173228346457
          },
          {
            "duration": 0.21428550000000257,
            "durationTicks": 192,
            "midi": 57,
            "name": "A3",
            "ticks": 39072,
            "time": 43.607099250000005,
            "velocity": 0.6614173228346457
          },
          {
            "duration": 0.21428550000000257,
            "durationTicks": 192,
            "midi": 50,
            "name": "D3",
            "ticks": 39072,
            "time": 43.607099250000005,
            "velocity": 0.6614173228346457
          },
          {
            "duration": 0.10714274999999418,
            "durationTicks": 96,
            "midi": 50,
            "name": "D3",
            "ticks": 39264,
            "time": 43.82138475000001,
            "velocity": 0.6614173228346457
          },
          {
            "duration": 0.10714274999999418,
            "durationTicks": 96,
            "midi": 47,
            "name": "B2",
            "ticks": 39264,
            "time": 43.82138475000001,
            "velocity": 0.6614173228346457
          },
          {
            "duration": 0.10714274999999418,
            "durationTicks": 96,
            "midi": 57,
            "name": "A3",
            "ticks": 39264,
            "time": 43.82138475000001,
            "velocity": 0.6614173228346457
          },
          {
            "duration": 0.21428550000000257,
            "durationTicks": 192,
            "midi": 57,
            "name": "A3",
            "ticks": 39360,
            "time": 43.9285275,
            "velocity": 0.6614173228346457
          },
          {
            "duration": 0.21428550000000257,
            "durationTicks": 192,
            "midi": 50,
            "name": "D3",
            "ticks": 39360,
            "time": 43.9285275,
            "velocity": 0.6614173228346457
          },
          {
            "duration": 0.21428550000000257,
            "durationTicks": 192,
            "midi": 47,
            "name": "B2",
            "ticks": 39360,
            "time": 43.9285275,
            "velocity": 0.6614173228346457
          },
          {
            "duration": 0.21428550000000257,
            "durationTicks": 192,
            "midi": 45,
            "name": "A2",
            "ticks": 39552,
            "time": 44.142813000000004,
            "velocity": 0.6614173228346457
          },
          {
            "duration": 0.21428550000000257,
            "durationTicks": 192,
            "midi": 48,
            "name": "C3",
            "ticks": 39552,
            "time": 44.142813000000004,
            "velocity": 0.6614173228346457
          },
          {
            "duration": 0.21428550000000257,
            "durationTicks": 192,
            "midi": 55,
            "name": "G3",
            "ticks": 39552,
            "time": 44.142813000000004,
            "velocity": 0.6614173228346457
          },
          {
            "duration": 0.21428549999999547,
            "durationTicks": 192,
            "midi": 45,
            "name": "A2",
            "ticks": 39744,
            "time": 44.357098500000006,
            "velocity": 0.6614173228346457
          },
          {
            "duration": 0.21428549999999547,
            "durationTicks": 192,
            "midi": 57,
            "name": "A3",
            "ticks": 39744,
            "time": 44.357098500000006,
            "velocity": 0.6614173228346457
          },
          {
            "duration": 0.21428549999999547,
            "durationTicks": 192,
            "midi": 50,
            "name": "D3",
            "ticks": 39744,
            "time": 44.357098500000006,
            "velocity": 0.6614173228346457
          },
          {
            "duration": 0.42857100000000514,
            "durationTicks": 384,
            "midi": 62,
            "name": "D4",
            "ticks": 39936,
            "time": 44.571384,
            "velocity": 0.6614173228346457
          },
          {
            "duration": 0.42857100000000514,
            "durationTicks": 384,
            "midi": 57,
            "name": "A3",
            "ticks": 39936,
            "time": 44.571384,
            "velocity": 0.6614173228346457
          },
          {
            "duration": 0.42857100000000514,
            "durationTicks": 384,
            "midi": 52,
            "name": "E3",
            "ticks": 39936,
            "time": 44.571384,
            "velocity": 0.6614173228346457
          },
          {
            "duration": 0.32142824999999675,
            "durationTicks": 288,
            "midi": 62,
            "name": "D4",
            "ticks": 40320,
            "time": 44.99995500000001,
            "velocity": 0.6614173228346457
          },
          {
            "duration": 0.32142824999999675,
            "durationTicks": 288,
            "midi": 57,
            "name": "A3",
            "ticks": 40320,
            "time": 44.99995500000001,
            "velocity": 0.6614173228346457
          },
          {
            "duration": 0.32142824999999675,
            "durationTicks": 288,
            "midi": 52,
            "name": "E3",
            "ticks": 40320,
            "time": 44.99995500000001,
            "velocity": 0.6614173228346457
          },
          {
            "duration": 0.21428550000000257,
            "durationTicks": 192,
            "midi": 57,
            "name": "A3",
            "ticks": 40608,
            "time": 45.321383250000004,
            "velocity": 0.6614173228346457
          },
          {
            "duration": 0.21428550000000257,
            "durationTicks": 192,
            "midi": 52,
            "name": "E3",
            "ticks": 40608,
            "time": 45.321383250000004,
            "velocity": 0.6614173228346457
          },
          {
            "duration": 0.21428550000000257,
            "durationTicks": 192,
            "midi": 62,
            "name": "D4",
            "ticks": 40608,
            "time": 45.321383250000004,
            "velocity": 0.6614173228346457
          },
          {
            "duration": 0.10714274999999418,
            "durationTicks": 96,
            "midi": 52,
            "name": "E3",
            "ticks": 40800,
            "time": 45.535668750000006,
            "velocity": 0.6614173228346457
          },
          {
            "duration": 0.10714274999999418,
            "durationTicks": 96,
            "midi": 62,
            "name": "D4",
            "ticks": 40800,
            "time": 45.535668750000006,
            "velocity": 0.6614173228346457
          },
          {
            "duration": 0.10714274999999418,
            "durationTicks": 96,
            "midi": 57,
            "name": "A3",
            "ticks": 40800,
            "time": 45.535668750000006,
            "velocity": 0.6614173228346457
          },
          {
            "duration": 0.21428550000000257,
            "durationTicks": 192,
            "midi": 62,
            "name": "D4",
            "ticks": 40896,
            "time": 45.6428115,
            "velocity": 0.6614173228346457
          },
          {
            "duration": 0.21428550000000257,
            "durationTicks": 192,
            "midi": 52,
            "name": "E3",
            "ticks": 40896,
            "time": 45.6428115,
            "velocity": 0.6614173228346457
          },
          {
            "duration": 0.21428550000000257,
            "durationTicks": 192,
            "midi": 57,
            "name": "A3",
            "ticks": 40896,
            "time": 45.6428115,
            "velocity": 0.6614173228346457
          },
          {
            "duration": 0.21428550000000257,
            "durationTicks": 192,
            "midi": 60,
            "name": "C4",
            "ticks": 41088,
            "time": 45.857097,
            "velocity": 0.6614173228346457
          },
          {
            "duration": 0.21428550000000257,
            "durationTicks": 192,
            "midi": 55,
            "name": "G3",
            "ticks": 41088,
            "time": 45.857097,
            "velocity": 0.6614173228346457
          },
          {
            "duration": 0.21428550000000257,
            "durationTicks": 192,
            "midi": 50,
            "name": "D3",
            "ticks": 41088,
            "time": 45.857097,
            "velocity": 0.6614173228346457
          },
          {
            "duration": 0.21428549999999547,
            "durationTicks": 192,
            "midi": 62,
            "name": "D4",
            "ticks": 41280,
            "time": 46.071382500000006,
            "velocity": 0.6614173228346457
          },
          {
            "duration": 0.21428549999999547,
            "durationTicks": 192,
            "midi": 57,
            "name": "A3",
            "ticks": 41280,
            "time": 46.071382500000006,
            "velocity": 0.6614173228346457
          },
          {
            "duration": 0.21428549999999547,
            "durationTicks": 192,
            "midi": 50,
            "name": "D3",
            "ticks": 41280,
            "time": 46.071382500000006,
            "velocity": 0.6614173228346457
          },
          {
            "duration": 0.42857100000000514,
            "durationTicks": 384,
            "midi": 55,
            "name": "G3",
            "ticks": 41472,
            "time": 46.285668,
            "velocity": 0.6614173228346457
          },
          {
            "duration": 0.42857100000000514,
            "durationTicks": 384,
            "midi": 50,
            "name": "D3",
            "ticks": 41472,
            "time": 46.285668,
            "velocity": 0.6614173228346457
          },
          {
            "duration": 0.42857100000000514,
            "durationTicks": 384,
            "midi": 52,
            "name": "E3",
            "ticks": 41472,
            "time": 46.285668,
            "velocity": 0.6614173228346457
          },
          {
            "duration": 0.32142824999999675,
            "durationTicks": 288,
            "midi": 55,
            "name": "G3",
            "ticks": 41856,
            "time": 46.714239000000006,
            "velocity": 0.6614173228346457
          },
          {
            "duration": 0.32142824999999675,
            "durationTicks": 288,
            "midi": 50,
            "name": "D3",
            "ticks": 41856,
            "time": 46.714239000000006,
            "velocity": 0.6614173228346457
          },
          {
            "duration": 0.32142824999999675,
            "durationTicks": 288,
            "midi": 52,
            "name": "E3",
            "ticks": 41856,
            "time": 46.714239000000006,
            "velocity": 0.6614173228346457
          },
          {
            "duration": 0.21428550000000257,
            "durationTicks": 192,
            "midi": 50,
            "name": "D3",
            "ticks": 42144,
            "time": 47.03566725,
            "velocity": 0.6614173228346457
          },
          {
            "duration": 0.21428550000000257,
            "durationTicks": 192,
            "midi": 55,
            "name": "G3",
            "ticks": 42144,
            "time": 47.03566725,
            "velocity": 0.6614173228346457
          },
          {
            "duration": 0.21428550000000257,
            "durationTicks": 192,
            "midi": 52,
            "name": "E3",
            "ticks": 42144,
            "time": 47.03566725,
            "velocity": 0.6614173228346457
          },
          {
            "duration": 0.10714275000000129,
            "durationTicks": 96,
            "midi": 52,
            "name": "E3",
            "ticks": 42336,
            "time": 47.249952750000006,
            "velocity": 0.6614173228346457
          },
          {
            "duration": 0.10714275000000129,
            "durationTicks": 96,
            "midi": 50,
            "name": "D3",
            "ticks": 42336,
            "time": 47.249952750000006,
            "velocity": 0.6614173228346457
          },
          {
            "duration": 0.10714275000000129,
            "durationTicks": 96,
            "midi": 55,
            "name": "G3",
            "ticks": 42336,
            "time": 47.249952750000006,
            "velocity": 0.6614173228346457
          },
          {
            "duration": 0.21428549999999547,
            "durationTicks": 192,
            "midi": 55,
            "name": "G3",
            "ticks": 42432,
            "time": 47.35709550000001,
            "velocity": 0.6614173228346457
          },
          {
            "duration": 0.21428549999999547,
            "durationTicks": 192,
            "midi": 52,
            "name": "E3",
            "ticks": 42432,
            "time": 47.35709550000001,
            "velocity": 0.6614173228346457
          },
          {
            "duration": 0.21428549999999547,
            "durationTicks": 192,
            "midi": 50,
            "name": "D3",
            "ticks": 42432,
            "time": 47.35709550000001,
            "velocity": 0.6614173228346457
          },
          {
            "duration": 0.21428550000000257,
            "durationTicks": 192,
            "midi": 50,
            "name": "D3",
            "ticks": 42624,
            "time": 47.571381,
            "velocity": 0.6614173228346457
          },
          {
            "duration": 0.21428550000000257,
            "durationTicks": 192,
            "midi": 54,
            "name": "F#3",
            "ticks": 42624,
            "time": 47.571381,
            "velocity": 0.6614173228346457
          },
          {
            "duration": 0.21428550000000257,
            "durationTicks": 192,
            "midi": 48,
            "name": "C3",
            "ticks": 42624,
            "time": 47.571381,
            "velocity": 0.6614173228346457
          },
          {
            "duration": 0.21428550000000257,
            "durationTicks": 192,
            "midi": 48,
            "name": "C3",
            "ticks": 42816,
            "time": 47.785666500000005,
            "velocity": 0.6614173228346457
          },
          {
            "duration": 0.21428550000000257,
            "durationTicks": 192,
            "midi": 52,
            "name": "E3",
            "ticks": 42816,
            "time": 47.785666500000005,
            "velocity": 0.6614173228346457
          },
          {
            "duration": 0.21428550000000257,
            "durationTicks": 192,
            "midi": 54,
            "name": "F#3",
            "ticks": 42816,
            "time": 47.785666500000005,
            "velocity": 0.6614173228346457
          },
          {
            "duration": 0.42857099999999804,
            "durationTicks": 384,
            "midi": 47,
            "name": "B2",
            "ticks": 43008,
            "time": 47.99995200000001,
            "velocity": 0.6614173228346457
          },
          {
            "duration": 0.42857099999999804,
            "durationTicks": 384,
            "midi": 52,
            "name": "E3",
            "ticks": 43008,
            "time": 47.99995200000001,
            "velocity": 0.6614173228346457
          },
          {
            "duration": 0.42857099999999804,
            "durationTicks": 384,
            "midi": 54,
            "name": "F#3",
            "ticks": 43008,
            "time": 47.99995200000001,
            "velocity": 0.6614173228346457
          },
          {
            "duration": 0.32142824999999675,
            "durationTicks": 288,
            "midi": 54,
            "name": "F#3",
            "ticks": 43392,
            "time": 48.428523000000006,
            "velocity": 0.6614173228346457
          },
          {
            "duration": 0.32142824999999675,
            "durationTicks": 288,
            "midi": 52,
            "name": "E3",
            "ticks": 43392,
            "time": 48.428523000000006,
            "velocity": 0.6614173228346457
          },
          {
            "duration": 0.32142824999999675,
            "durationTicks": 288,
            "midi": 47,
            "name": "B2",
            "ticks": 43392,
            "time": 48.428523000000006,
            "velocity": 0.6614173228346457
          },
          {
            "duration": 0.21428550000000257,
            "durationTicks": 192,
            "midi": 52,
            "name": "E3",
            "ticks": 43680,
            "time": 48.74995125,
            "velocity": 0.6614173228346457
          },
          {
            "duration": 0.21428550000000257,
            "durationTicks": 192,
            "midi": 47,
            "name": "B2",
            "ticks": 43680,
            "time": 48.74995125,
            "velocity": 0.6614173228346457
          },
          {
            "duration": 0.21428550000000257,
            "durationTicks": 192,
            "midi": 54,
            "name": "F#3",
            "ticks": 43680,
            "time": 48.74995125,
            "velocity": 0.6614173228346457
          },
          {
            "duration": 0.10714275000000129,
            "durationTicks": 96,
            "midi": 54,
            "name": "F#3",
            "ticks": 43872,
            "time": 48.964236750000005,
            "velocity": 0.6614173228346457
          },
          {
            "duration": 0.10714275000000129,
            "durationTicks": 96,
            "midi": 52,
            "name": "E3",
            "ticks": 43872,
            "time": 48.964236750000005,
            "velocity": 0.6614173228346457
          },
          {
            "duration": 0.10714275000000129,
            "durationTicks": 96,
            "midi": 47,
            "name": "B2",
            "ticks": 43872,
            "time": 48.964236750000005,
            "velocity": 0.6614173228346457
          },
          {
            "duration": 0.21428549999999547,
            "durationTicks": 192,
            "midi": 52,
            "name": "E3",
            "ticks": 43968,
            "time": 49.071379500000006,
            "velocity": 0.6614173228346457
          },
          {
            "duration": 0.21428549999999547,
            "durationTicks": 192,
            "midi": 54,
            "name": "F#3",
            "ticks": 43968,
            "time": 49.071379500000006,
            "velocity": 0.6614173228346457
          },
          {
            "duration": 0.21428549999999547,
            "durationTicks": 192,
            "midi": 47,
            "name": "B2",
            "ticks": 43968,
            "time": 49.071379500000006,
            "velocity": 0.6614173228346457
          },
          {
            "duration": 0.21428550000000257,
            "durationTicks": 192,
            "midi": 52,
            "name": "E3",
            "ticks": 44160,
            "time": 49.285665,
            "velocity": 0.6614173228346457
          },
          {
            "duration": 0.21428550000000257,
            "durationTicks": 192,
            "midi": 55,
            "name": "G3",
            "ticks": 44160,
            "time": 49.285665,
            "velocity": 0.6614173228346457
          },
          {
            "duration": 0.21428550000000257,
            "durationTicks": 192,
            "midi": 47,
            "name": "B2",
            "ticks": 44160,
            "time": 49.285665,
            "velocity": 0.6614173228346457
          },
          {
            "duration": 0.21428550000000257,
            "durationTicks": 192,
            "midi": 54,
            "name": "F#3",
            "ticks": 44352,
            "time": 49.499950500000004,
            "velocity": 0.6614173228346457
          },
          {
            "duration": 0.21428550000000257,
            "durationTicks": 192,
            "midi": 50,
            "name": "D3",
            "ticks": 44352,
            "time": 49.499950500000004,
            "velocity": 0.6614173228346457
          },
          {
            "duration": 0.21428550000000257,
            "durationTicks": 192,
            "midi": 47,
            "name": "B2",
            "ticks": 44352,
            "time": 49.499950500000004,
            "velocity": 0.6614173228346457
          },
          {
            "duration": 0.42857099999999804,
            "durationTicks": 384,
            "midi": 50,
            "name": "D3",
            "ticks": 44544,
            "time": 49.71423600000001,
            "velocity": 0.6614173228346457
          },
          {
            "duration": 0.42857099999999804,
            "durationTicks": 384,
            "midi": 54,
            "name": "F#3",
            "ticks": 44544,
            "time": 49.71423600000001,
            "velocity": 0.6614173228346457
          },
          {
            "duration": 0.42857099999999804,
            "durationTicks": 384,
            "midi": 47,
            "name": "B2",
            "ticks": 44544,
            "time": 49.71423600000001,
            "velocity": 0.6614173228346457
          },
          {
            "duration": 0.32142824999999675,
            "durationTicks": 288,
            "midi": 47,
            "name": "B2",
            "ticks": 44928,
            "time": 50.142807000000005,
            "velocity": 0.6614173228346457
          },
          {
            "duration": 0.32142824999999675,
            "durationTicks": 288,
            "midi": 54,
            "name": "F#3",
            "ticks": 44928,
            "time": 50.142807000000005,
            "velocity": 0.6614173228346457
          },
          {
            "duration": 0.32142824999999675,
            "durationTicks": 288,
            "midi": 50,
            "name": "D3",
            "ticks": 44928,
            "time": 50.142807000000005,
            "velocity": 0.6614173228346457
          },
          {
            "duration": 0.21428550000000257,
            "durationTicks": 192,
            "midi": 50,
            "name": "D3",
            "ticks": 45216,
            "time": 50.46423525,
            "velocity": 0.6614173228346457
          },
          {
            "duration": 0.21428550000000257,
            "durationTicks": 192,
            "midi": 54,
            "name": "F#3",
            "ticks": 45216,
            "time": 50.46423525,
            "velocity": 0.6614173228346457
          },
          {
            "duration": 0.21428550000000257,
            "durationTicks": 192,
            "midi": 47,
            "name": "B2",
            "ticks": 45216,
            "time": 50.46423525,
            "velocity": 0.6614173228346457
          },
          {
            "duration": 0.10714275000000129,
            "durationTicks": 96,
            "midi": 50,
            "name": "D3",
            "ticks": 45408,
            "time": 50.678520750000004,
            "velocity": 0.6614173228346457
          },
          {
            "duration": 0.10714275000000129,
            "durationTicks": 96,
            "midi": 47,
            "name": "B2",
            "ticks": 45408,
            "time": 50.678520750000004,
            "velocity": 0.6614173228346457
          },
          {
            "duration": 0.10714275000000129,
            "durationTicks": 96,
            "midi": 54,
            "name": "F#3",
            "ticks": 45408,
            "time": 50.678520750000004,
            "velocity": 0.6614173228346457
          },
          {
            "duration": 0.21428549999999547,
            "durationTicks": 192,
            "midi": 54,
            "name": "F#3",
            "ticks": 45504,
            "time": 50.785663500000005,
            "velocity": 0.6614173228346457
          },
          {
            "duration": 0.21428549999999547,
            "durationTicks": 192,
            "midi": 50,
            "name": "D3",
            "ticks": 45504,
            "time": 50.785663500000005,
            "velocity": 0.6614173228346457
          },
          {
            "duration": 0.21428549999999547,
            "durationTicks": 192,
            "midi": 47,
            "name": "B2",
            "ticks": 45504,
            "time": 50.785663500000005,
            "velocity": 0.6614173228346457
          },
          {
            "duration": 0.21428550000000257,
            "durationTicks": 192,
            "midi": 47,
            "name": "B2",
            "ticks": 45696,
            "time": 50.999949,
            "velocity": 0.6614173228346457
          },
          {
            "duration": 0.21428550000000257,
            "durationTicks": 192,
            "midi": 52,
            "name": "E3",
            "ticks": 45696,
            "time": 50.999949,
            "velocity": 0.6614173228346457
          },
          {
            "duration": 0.21428550000000257,
            "durationTicks": 192,
            "midi": 55,
            "name": "G3",
            "ticks": 45696,
            "time": 50.999949,
            "velocity": 0.6614173228346457
          },
          {
            "duration": 0.10714275000000129,
            "durationTicks": 96,
            "midi": 55,
            "name": "G3",
            "ticks": 45888,
            "time": 51.2142345,
            "velocity": 0.6614173228346457
          },
          {
            "duration": 0.10714275000000129,
            "durationTicks": 96,
            "midi": 50,
            "name": "D3",
            "ticks": 45888,
            "time": 51.2142345,
            "velocity": 0.6614173228346457
          },
          {
            "duration": 0.10714275000000129,
            "durationTicks": 96,
            "midi": 47,
            "name": "B2",
            "ticks": 45888,
            "time": 51.2142345,
            "velocity": 0.6614173228346457
          },
          {
            "duration": 0.10714275000000129,
            "durationTicks": 96,
            "midi": 47,
            "name": "B2",
            "ticks": 45984,
            "time": 51.321377250000005,
            "velocity": 0.6614173228346457
          },
          {
            "duration": 0.10714275000000129,
            "durationTicks": 96,
            "midi": 50,
            "name": "D3",
            "ticks": 45984,
            "time": 51.321377250000005,
            "velocity": 0.6614173228346457
          },
          {
            "duration": 0.10714275000000129,
            "durationTicks": 96,
            "midi": 54,
            "name": "F#3",
            "ticks": 45984,
            "time": 51.321377250000005,
            "velocity": 0.6614173228346457
          },
          {
            "duration": 0.42857099999999804,
            "durationTicks": 384,
            "midi": 52,
            "name": "E3",
            "ticks": 46080,
            "time": 51.428520000000006,
            "velocity": 0.6614173228346457
          },
          {
            "duration": 0.42857099999999804,
            "durationTicks": 384,
            "midi": 54,
            "name": "F#3",
            "ticks": 46080,
            "time": 51.428520000000006,
            "velocity": 0.6614173228346457
          },
          {
            "duration": 0.42857099999999804,
            "durationTicks": 384,
            "midi": 47,
            "name": "B2",
            "ticks": 46080,
            "time": 51.428520000000006,
            "velocity": 0.6614173228346457
          },
          {
            "duration": 0.32142824999999675,
            "durationTicks": 288,
            "midi": 54,
            "name": "F#3",
            "ticks": 46464,
            "time": 51.857091000000004,
            "velocity": 0.6614173228346457
          },
          {
            "duration": 0.32142824999999675,
            "durationTicks": 288,
            "midi": 52,
            "name": "E3",
            "ticks": 46464,
            "time": 51.857091000000004,
            "velocity": 0.6614173228346457
          },
          {
            "duration": 0.32142824999999675,
            "durationTicks": 288,
            "midi": 47,
            "name": "B2",
            "ticks": 46464,
            "time": 51.857091000000004,
            "velocity": 0.6614173228346457
          },
          {
            "duration": 0.21428550000000257,
            "durationTicks": 192,
            "midi": 52,
            "name": "E3",
            "ticks": 46752,
            "time": 52.17851925,
            "velocity": 0.6614173228346457
          },
          {
            "duration": 0.21428550000000257,
            "durationTicks": 192,
            "midi": 47,
            "name": "B2",
            "ticks": 46752,
            "time": 52.17851925,
            "velocity": 0.6614173228346457
          },
          {
            "duration": 0.21428550000000257,
            "durationTicks": 192,
            "midi": 54,
            "name": "F#3",
            "ticks": 46752,
            "time": 52.17851925,
            "velocity": 0.6614173228346457
          },
          {
            "duration": 0.10714275000000129,
            "durationTicks": 96,
            "midi": 52,
            "name": "E3",
            "ticks": 46944,
            "time": 52.39280475,
            "velocity": 0.6614173228346457
          },
          {
            "duration": 0.10714275000000129,
            "durationTicks": 96,
            "midi": 54,
            "name": "F#3",
            "ticks": 46944,
            "time": 52.39280475,
            "velocity": 0.6614173228346457
          },
          {
            "duration": 0.10714275000000129,
            "durationTicks": 96,
            "midi": 47,
            "name": "B2",
            "ticks": 46944,
            "time": 52.39280475,
            "velocity": 0.6614173228346457
          },
          {
            "duration": 0.21428550000000257,
            "durationTicks": 192,
            "midi": 54,
            "name": "F#3",
            "ticks": 47040,
            "time": 52.499947500000005,
            "velocity": 0.6614173228346457
          },
          {
            "duration": 0.21428550000000257,
            "durationTicks": 192,
            "midi": 47,
            "name": "B2",
            "ticks": 47040,
            "time": 52.499947500000005,
            "velocity": 0.6614173228346457
          },
          {
            "duration": 0.21428550000000257,
            "durationTicks": 192,
            "midi": 52,
            "name": "E3",
            "ticks": 47040,
            "time": 52.499947500000005,
            "velocity": 0.6614173228346457
          },
          {
            "duration": 0.21428549999999547,
            "durationTicks": 192,
            "midi": 50,
            "name": "D3",
            "ticks": 47232,
            "time": 52.71423300000001,
            "velocity": 0.6614173228346457
          },
          {
            "duration": 0.21428549999999547,
            "durationTicks": 192,
            "midi": 45,
            "name": "A2",
            "ticks": 47232,
            "time": 52.71423300000001,
            "velocity": 0.6614173228346457
          },
          {
            "duration": 0.21428549999999547,
            "durationTicks": 192,
            "midi": 52,
            "name": "E3",
            "ticks": 47232,
            "time": 52.71423300000001,
            "velocity": 0.6614173228346457
          },
          {
            "duration": 0.21428550000000257,
            "durationTicks": 192,
            "midi": 57,
            "name": "A3",
            "ticks": 47424,
            "time": 52.9285185,
            "velocity": 0.6614173228346457
          },
          {
            "duration": 0.21428550000000257,
            "durationTicks": 192,
            "midi": 45,
            "name": "A2",
            "ticks": 47424,
            "time": 52.9285185,
            "velocity": 0.6614173228346457
          },
          {
            "duration": 0.21428550000000257,
            "durationTicks": 192,
            "midi": 52,
            "name": "E3",
            "ticks": 47424,
            "time": 52.9285185,
            "velocity": 0.6614173228346457
          },
          {
            "duration": 0.42857099999999804,
            "durationTicks": 384,
            "midi": 50,
            "name": "D3",
            "ticks": 47616,
            "time": 53.142804000000005,
            "velocity": 0.6614173228346457
          },
          {
            "duration": 0.42857099999999804,
            "durationTicks": 384,
            "midi": 47,
            "name": "B2",
            "ticks": 47616,
            "time": 53.142804000000005,
            "velocity": 0.6614173228346457
          },
          {
            "duration": 0.42857099999999804,
            "durationTicks": 384,
            "midi": 57,
            "name": "A3",
            "ticks": 47616,
            "time": 53.142804000000005,
            "velocity": 0.6614173228346457
          },
          {
            "duration": 0.32142825000000386,
            "durationTicks": 288,
            "midi": 50,
            "name": "D3",
            "ticks": 48000,
            "time": 53.571375,
            "velocity": 0.6614173228346457
          },
          {
            "duration": 0.32142825000000386,
            "durationTicks": 288,
            "midi": 57,
            "name": "A3",
            "ticks": 48000,
            "time": 53.571375,
            "velocity": 0.6614173228346457
          },
          {
            "duration": 0.32142825000000386,
            "durationTicks": 288,
            "midi": 47,
            "name": "B2",
            "ticks": 48000,
            "time": 53.571375,
            "velocity": 0.6614173228346457
          },
          {
            "duration": 0.21428549999999547,
            "durationTicks": 192,
            "midi": 57,
            "name": "A3",
            "ticks": 48288,
            "time": 53.89280325000001,
            "velocity": 0.6614173228346457
          },
          {
            "duration": 0.21428549999999547,
            "durationTicks": 192,
            "midi": 47,
            "name": "B2",
            "ticks": 48288,
            "time": 53.89280325000001,
            "velocity": 0.6614173228346457
          },
          {
            "duration": 0.21428549999999547,
            "durationTicks": 192,
            "midi": 50,
            "name": "D3",
            "ticks": 48288,
            "time": 53.89280325000001,
            "velocity": 0.6614173228346457
          },
          {
            "duration": 0.10714275000000129,
            "durationTicks": 96,
            "midi": 50,
            "name": "D3",
            "ticks": 48480,
            "time": 54.10708875,
            "velocity": 0.6614173228346457
          },
          {
            "duration": 0.10714275000000129,
            "durationTicks": 96,
            "midi": 57,
            "name": "A3",
            "ticks": 48480,
            "time": 54.10708875,
            "velocity": 0.6614173228346457
          },
          {
            "duration": 0.10714275000000129,
            "durationTicks": 96,
            "midi": 47,
            "name": "B2",
            "ticks": 48480,
            "time": 54.10708875,
            "velocity": 0.6614173228346457
          },
          {
            "duration": 0.21428550000000257,
            "durationTicks": 192,
            "midi": 47,
            "name": "B2",
            "ticks": 48576,
            "time": 54.214231500000004,
            "velocity": 0.6614173228346457
          },
          {
            "duration": 0.21428550000000257,
            "durationTicks": 192,
            "midi": 57,
            "name": "A3",
            "ticks": 48576,
            "time": 54.214231500000004,
            "velocity": 0.6614173228346457
          },
          {
            "duration": 0.21428550000000257,
            "durationTicks": 192,
            "midi": 50,
            "name": "D3",
            "ticks": 48576,
            "time": 54.214231500000004,
            "velocity": 0.6614173228346457
          },
          {
            "duration": 0.21428549999999547,
            "durationTicks": 192,
            "midi": 48,
            "name": "C3",
            "ticks": 48768,
            "time": 54.42851700000001,
            "velocity": 0.6614173228346457
          },
          {
            "duration": 0.21428549999999547,
            "durationTicks": 192,
            "midi": 45,
            "name": "A2",
            "ticks": 48768,
            "time": 54.42851700000001,
            "velocity": 0.6614173228346457
          },
          {
            "duration": 0.21428549999999547,
            "durationTicks": 192,
            "midi": 55,
            "name": "G3",
            "ticks": 48768,
            "time": 54.42851700000001,
            "velocity": 0.6614173228346457
          },
          {
            "duration": 0.21428550000000257,
            "durationTicks": 192,
            "midi": 45,
            "name": "A2",
            "ticks": 48960,
            "time": 54.6428025,
            "velocity": 0.6614173228346457
          },
          {
            "duration": 0.21428550000000257,
            "durationTicks": 192,
            "midi": 50,
            "name": "D3",
            "ticks": 48960,
            "time": 54.6428025,
            "velocity": 0.6614173228346457
          },
          {
            "duration": 0.21428550000000257,
            "durationTicks": 192,
            "midi": 57,
            "name": "A3",
            "ticks": 48960,
            "time": 54.6428025,
            "velocity": 0.6614173228346457
          },
          {
            "duration": 0.42857099999999804,
            "durationTicks": 384,
            "midi": 52,
            "name": "E3",
            "ticks": 49152,
            "time": 54.857088000000005,
            "velocity": 0.6614173228346457
          },
          {
            "duration": 0.42857099999999804,
            "durationTicks": 384,
            "midi": 57,
            "name": "A3",
            "ticks": 49152,
            "time": 54.857088000000005,
            "velocity": 0.6614173228346457
          },
          {
            "duration": 0.42857099999999804,
            "durationTicks": 384,
            "midi": 62,
            "name": "D4",
            "ticks": 49152,
            "time": 54.857088000000005,
            "velocity": 0.6614173228346457
          },
          {
            "duration": 0.32142825000000386,
            "durationTicks": 288,
            "midi": 62,
            "name": "D4",
            "ticks": 49536,
            "time": 55.285659,
            "velocity": 0.6614173228346457
          },
          {
            "duration": 0.32142825000000386,
            "durationTicks": 288,
            "midi": 52,
            "name": "E3",
            "ticks": 49536,
            "time": 55.285659,
            "velocity": 0.6614173228346457
          },
          {
            "duration": 0.32142825000000386,
            "durationTicks": 288,
            "midi": 57,
            "name": "A3",
            "ticks": 49536,
            "time": 55.285659,
            "velocity": 0.6614173228346457
          },
          {
            "duration": 0.21428549999999547,
            "durationTicks": 192,
            "midi": 57,
            "name": "A3",
            "ticks": 49824,
            "time": 55.607087250000006,
            "velocity": 0.6614173228346457
          },
          {
            "duration": 0.21428549999999547,
            "durationTicks": 192,
            "midi": 62,
            "name": "D4",
            "ticks": 49824,
            "time": 55.607087250000006,
            "velocity": 0.6614173228346457
          },
          {
            "duration": 0.21428549999999547,
            "durationTicks": 192,
            "midi": 52,
            "name": "E3",
            "ticks": 49824,
            "time": 55.607087250000006,
            "velocity": 0.6614173228346457
          },
          {
            "duration": 0.10714275000000129,
            "durationTicks": 96,
            "midi": 57,
            "name": "A3",
            "ticks": 50016,
            "time": 55.82137275,
            "velocity": 0.6614173228346457
          },
          {
            "duration": 0.10714275000000129,
            "durationTicks": 96,
            "midi": 52,
            "name": "E3",
            "ticks": 50016,
            "time": 55.82137275,
            "velocity": 0.6614173228346457
          },
          {
            "duration": 0.10714275000000129,
            "durationTicks": 96,
            "midi": 62,
            "name": "D4",
            "ticks": 50016,
            "time": 55.82137275,
            "velocity": 0.6614173228346457
          },
          {
            "duration": 0.21428550000000257,
            "durationTicks": 192,
            "midi": 52,
            "name": "E3",
            "ticks": 50112,
            "time": 55.9285155,
            "velocity": 0.6614173228346457
          },
          {
            "duration": 0.21428550000000257,
            "durationTicks": 192,
            "midi": 62,
            "name": "D4",
            "ticks": 50112,
            "time": 55.9285155,
            "velocity": 0.6614173228346457
          },
          {
            "duration": 0.21428550000000257,
            "durationTicks": 192,
            "midi": 57,
            "name": "A3",
            "ticks": 50112,
            "time": 55.9285155,
            "velocity": 0.6614173228346457
          },
          {
            "duration": 0.21428549999999547,
            "durationTicks": 192,
            "midi": 60,
            "name": "C4",
            "ticks": 50304,
            "time": 56.142801000000006,
            "velocity": 0.6614173228346457
          },
          {
            "duration": 0.21428549999999547,
            "durationTicks": 192,
            "midi": 55,
            "name": "G3",
            "ticks": 50304,
            "time": 56.142801000000006,
            "velocity": 0.6614173228346457
          },
          {
            "duration": 0.21428549999999547,
            "durationTicks": 192,
            "midi": 50,
            "name": "D3",
            "ticks": 50304,
            "time": 56.142801000000006,
            "velocity": 0.6614173228346457
          },
          {
            "duration": 0.21428550000000257,
            "durationTicks": 192,
            "midi": 62,
            "name": "D4",
            "ticks": 50496,
            "time": 56.3570865,
            "velocity": 0.6614173228346457
          },
          {
            "duration": 0.21428550000000257,
            "durationTicks": 192,
            "midi": 50,
            "name": "D3",
            "ticks": 50496,
            "time": 56.3570865,
            "velocity": 0.6614173228346457
          },
          {
            "duration": 0.21428550000000257,
            "durationTicks": 192,
            "midi": 57,
            "name": "A3",
            "ticks": 50496,
            "time": 56.3570865,
            "velocity": 0.6614173228346457
          },
          {
            "duration": 0.42857099999999804,
            "durationTicks": 384,
            "midi": 50,
            "name": "D3",
            "ticks": 50688,
            "time": 56.571372000000004,
            "velocity": 0.6614173228346457
          },
          {
            "duration": 0.42857099999999804,
            "durationTicks": 384,
            "midi": 52,
            "name": "E3",
            "ticks": 50688,
            "time": 56.571372000000004,
            "velocity": 0.6614173228346457
          },
          {
            "duration": 0.42857099999999804,
            "durationTicks": 384,
            "midi": 55,
            "name": "G3",
            "ticks": 50688,
            "time": 56.571372000000004,
            "velocity": 0.6614173228346457
          },
          {
            "duration": 0.32142825000000386,
            "durationTicks": 288,
            "midi": 52,
            "name": "E3",
            "ticks": 51072,
            "time": 56.999943,
            "velocity": 0.6614173228346457
          },
          {
            "duration": 0.32142825000000386,
            "durationTicks": 288,
            "midi": 50,
            "name": "D3",
            "ticks": 51072,
            "time": 56.999943,
            "velocity": 0.6614173228346457
          },
          {
            "duration": 0.32142825000000386,
            "durationTicks": 288,
            "midi": 55,
            "name": "G3",
            "ticks": 51072,
            "time": 56.999943,
            "velocity": 0.6614173228346457
          },
          {
            "duration": 0.21428550000000257,
            "durationTicks": 192,
            "midi": 50,
            "name": "D3",
            "ticks": 51360,
            "time": 57.321371250000006,
            "velocity": 0.6614173228346457
          },
          {
            "duration": 0.21428550000000257,
            "durationTicks": 192,
            "midi": 55,
            "name": "G3",
            "ticks": 51360,
            "time": 57.321371250000006,
            "velocity": 0.6614173228346457
          },
          {
            "duration": 0.21428550000000257,
            "durationTicks": 192,
            "midi": 52,
            "name": "E3",
            "ticks": 51360,
            "time": 57.321371250000006,
            "velocity": 0.6614173228346457
          },
          {
            "duration": 0.10714274999999418,
            "durationTicks": 96,
            "midi": 55,
            "name": "G3",
            "ticks": 51552,
            "time": 57.53565675000001,
            "velocity": 0.6614173228346457
          },
          {
            "duration": 0.10714274999999418,
            "durationTicks": 96,
            "midi": 50,
            "name": "D3",
            "ticks": 51552,
            "time": 57.53565675000001,
            "velocity": 0.6614173228346457
          },
          {
            "duration": 0.10714274999999418,
            "durationTicks": 96,
            "midi": 52,
            "name": "E3",
            "ticks": 51552,
            "time": 57.53565675000001,
            "velocity": 0.6614173228346457
          },
          {
            "duration": 0.21428550000000257,
            "durationTicks": 192,
            "midi": 55,
            "name": "G3",
            "ticks": 51648,
            "time": 57.6427995,
            "velocity": 0.6614173228346457
          },
          {
            "duration": 0.21428550000000257,
            "durationTicks": 192,
            "midi": 52,
            "name": "E3",
            "ticks": 51648,
            "time": 57.6427995,
            "velocity": 0.6614173228346457
          },
          {
            "duration": 0.21428550000000257,
            "durationTicks": 192,
            "midi": 50,
            "name": "D3",
            "ticks": 51648,
            "time": 57.6427995,
            "velocity": 0.6614173228346457
          },
          {
            "duration": 0.21428550000000257,
            "durationTicks": 192,
            "midi": 54,
            "name": "F#3",
            "ticks": 51840,
            "time": 57.857085000000005,
            "velocity": 0.6614173228346457
          },
          {
            "duration": 0.21428550000000257,
            "durationTicks": 192,
            "midi": 50,
            "name": "D3",
            "ticks": 51840,
            "time": 57.857085000000005,
            "velocity": 0.6614173228346457
          },
          {
            "duration": 0.21428550000000257,
            "durationTicks": 192,
            "midi": 48,
            "name": "C3",
            "ticks": 51840,
            "time": 57.857085000000005,
            "velocity": 0.6614173228346457
          },
          {
            "duration": 0.21428549999999547,
            "durationTicks": 192,
            "midi": 52,
            "name": "E3",
            "ticks": 52032,
            "time": 58.07137050000001,
            "velocity": 0.6614173228346457
          },
          {
            "duration": 0.21428549999999547,
            "durationTicks": 192,
            "midi": 48,
            "name": "C3",
            "ticks": 52032,
            "time": 58.07137050000001,
            "velocity": 0.6614173228346457
          },
          {
            "duration": 0.21428549999999547,
            "durationTicks": 192,
            "midi": 54,
            "name": "F#3",
            "ticks": 52032,
            "time": 58.07137050000001,
            "velocity": 0.6614173228346457
          },
          {
            "duration": 0.42857100000000514,
            "durationTicks": 384,
            "midi": 52,
            "name": "E3",
            "ticks": 52224,
            "time": 58.285656,
            "velocity": 0.6614173228346457
          },
          {
            "duration": 0.42857100000000514,
            "durationTicks": 384,
            "midi": 54,
            "name": "F#3",
            "ticks": 52224,
            "time": 58.285656,
            "velocity": 0.6614173228346457
          },
          {
            "duration": 0.42857100000000514,
            "durationTicks": 384,
            "midi": 47,
            "name": "B2",
            "ticks": 52224,
            "time": 58.285656,
            "velocity": 0.6614173228346457
          },
          {
            "duration": 0.32142824999999675,
            "durationTicks": 288,
            "midi": 54,
            "name": "F#3",
            "ticks": 52608,
            "time": 58.71422700000001,
            "velocity": 0.6614173228346457
          },
          {
            "duration": 0.32142824999999675,
            "durationTicks": 288,
            "midi": 52,
            "name": "E3",
            "ticks": 52608,
            "time": 58.71422700000001,
            "velocity": 0.6614173228346457
          },
          {
            "duration": 0.32142824999999675,
            "durationTicks": 288,
            "midi": 47,
            "name": "B2",
            "ticks": 52608,
            "time": 58.71422700000001,
            "velocity": 0.6614173228346457
          },
          {
            "duration": 0.21428550000000257,
            "durationTicks": 192,
            "midi": 47,
            "name": "B2",
            "ticks": 52896,
            "time": 59.035655250000005,
            "velocity": 0.6614173228346457
          },
          {
            "duration": 0.21428550000000257,
            "durationTicks": 192,
            "midi": 52,
            "name": "E3",
            "ticks": 52896,
            "time": 59.035655250000005,
            "velocity": 0.6614173228346457
          },
          {
            "duration": 0.21428550000000257,
            "durationTicks": 192,
            "midi": 54,
            "name": "F#3",
            "ticks": 52896,
            "time": 59.035655250000005,
            "velocity": 0.6614173228346457
          },
          {
            "duration": 0.10714274999999418,
            "durationTicks": 96,
            "midi": 52,
            "name": "E3",
            "ticks": 53088,
            "time": 59.24994075000001,
            "velocity": 0.6614173228346457
          },
          {
            "duration": 0.10714274999999418,
            "durationTicks": 96,
            "midi": 54,
            "name": "F#3",
            "ticks": 53088,
            "time": 59.24994075000001,
            "velocity": 0.6614173228346457
          },
          {
            "duration": 0.10714274999999418,
            "durationTicks": 96,
            "midi": 47,
            "name": "B2",
            "ticks": 53088,
            "time": 59.24994075000001,
            "velocity": 0.6614173228346457
          },
          {
            "duration": 0.21428550000000257,
            "durationTicks": 192,
            "midi": 54,
            "name": "F#3",
            "ticks": 53184,
            "time": 59.3570835,
            "velocity": 0.6614173228346457
          },
          {
            "duration": 0.21428550000000257,
            "durationTicks": 192,
            "midi": 52,
            "name": "E3",
            "ticks": 53184,
            "time": 59.3570835,
            "velocity": 0.6614173228346457
          },
          {
            "duration": 0.21428550000000257,
            "durationTicks": 192,
            "midi": 47,
            "name": "B2",
            "ticks": 53184,
            "time": 59.3570835,
            "velocity": 0.6614173228346457
          },
          {
            "duration": 0.21428550000000257,
            "durationTicks": 192,
            "midi": 52,
            "name": "E3",
            "ticks": 53376,
            "time": 59.571369000000004,
            "velocity": 0.6614173228346457
          },
          {
            "duration": 0.21428550000000257,
            "durationTicks": 192,
            "midi": 47,
            "name": "B2",
            "ticks": 53376,
            "time": 59.571369000000004,
            "velocity": 0.6614173228346457
          },
          {
            "duration": 0.21428550000000257,
            "durationTicks": 192,
            "midi": 55,
            "name": "G3",
            "ticks": 53376,
            "time": 59.571369000000004,
            "velocity": 0.6614173228346457
          },
          {
            "duration": 0.21428549999999547,
            "durationTicks": 192,
            "midi": 47,
            "name": "B2",
            "ticks": 53568,
            "time": 59.78565450000001,
            "velocity": 0.6614173228346457
          },
          {
            "duration": 0.21428549999999547,
            "durationTicks": 192,
            "midi": 50,
            "name": "D3",
            "ticks": 53568,
            "time": 59.78565450000001,
            "velocity": 0.6614173228346457
          },
          {
            "duration": 0.21428549999999547,
            "durationTicks": 192,
            "midi": 54,
            "name": "F#3",
            "ticks": 53568,
            "time": 59.78565450000001,
            "velocity": 0.6614173228346457
          },
          {
            "duration": 0.42857100000000514,
            "durationTicks": 384,
            "midi": 54,
            "name": "F#3",
            "ticks": 53760,
            "time": 59.99994,
            "velocity": 0.6614173228346457
          },
          {
            "duration": 0.42857100000000514,
            "durationTicks": 384,
            "midi": 50,
            "name": "D3",
            "ticks": 53760,
            "time": 59.99994,
            "velocity": 0.6614173228346457
          },
          {
            "duration": 0.42857100000000514,
            "durationTicks": 384,
            "midi": 47,
            "name": "B2",
            "ticks": 53760,
            "time": 59.99994,
            "velocity": 0.6614173228346457
          },
          {
            "duration": 0.32142824999999675,
            "durationTicks": 288,
            "midi": 47,
            "name": "B2",
            "ticks": 54144,
            "time": 60.42851100000001,
            "velocity": 0.6614173228346457
          },
          {
            "duration": 0.32142824999999675,
            "durationTicks": 288,
            "midi": 54,
            "name": "F#3",
            "ticks": 54144,
            "time": 60.42851100000001,
            "velocity": 0.6614173228346457
          },
          {
            "duration": 0.32142824999999675,
            "durationTicks": 288,
            "midi": 50,
            "name": "D3",
            "ticks": 54144,
            "time": 60.42851100000001,
            "velocity": 0.6614173228346457
          },
          {
            "duration": 0.21428550000000257,
            "durationTicks": 192,
            "midi": 47,
            "name": "B2",
            "ticks": 54432,
            "time": 60.749939250000004,
            "velocity": 0.6614173228346457
          },
          {
            "duration": 0.21428550000000257,
            "durationTicks": 192,
            "midi": 50,
            "name": "D3",
            "ticks": 54432,
            "time": 60.749939250000004,
            "velocity": 0.6614173228346457
          },
          {
            "duration": 0.21428550000000257,
            "durationTicks": 192,
            "midi": 54,
            "name": "F#3",
            "ticks": 54432,
            "time": 60.749939250000004,
            "velocity": 0.6614173228346457
          },
          {
            "duration": 0.10714275000000129,
            "durationTicks": 96,
            "midi": 47,
            "name": "B2",
            "ticks": 54624,
            "time": 60.96422475000001,
            "velocity": 0.6614173228346457
          },
          {
            "duration": 0.10714275000000129,
            "durationTicks": 96,
            "midi": 54,
            "name": "F#3",
            "ticks": 54624,
            "time": 60.96422475000001,
            "velocity": 0.6614173228346457
          },
          {
            "duration": 0.10714275000000129,
            "durationTicks": 96,
            "midi": 50,
            "name": "D3",
            "ticks": 54624,
            "time": 60.96422475000001,
            "velocity": 0.6614173228346457
          },
          {
            "duration": 0.21428549999999547,
            "durationTicks": 192,
            "midi": 54,
            "name": "F#3",
            "ticks": 54720,
            "time": 61.07136750000001,
            "velocity": 0.6614173228346457
          },
          {
            "duration": 0.21428549999999547,
            "durationTicks": 192,
            "midi": 50,
            "name": "D3",
            "ticks": 54720,
            "time": 61.07136750000001,
            "velocity": 0.6614173228346457
          },
          {
            "duration": 0.21428549999999547,
            "durationTicks": 192,
            "midi": 47,
            "name": "B2",
            "ticks": 54720,
            "time": 61.07136750000001,
            "velocity": 0.6614173228346457
          },
          {
            "duration": 0.21428550000000257,
            "durationTicks": 192,
            "midi": 47,
            "name": "B2",
            "ticks": 54912,
            "time": 61.285653,
            "velocity": 0.6614173228346457
          },
          {
            "duration": 0.21428550000000257,
            "durationTicks": 192,
            "midi": 55,
            "name": "G3",
            "ticks": 54912,
            "time": 61.285653,
            "velocity": 0.6614173228346457
          },
          {
            "duration": 0.21428550000000257,
            "durationTicks": 192,
            "midi": 52,
            "name": "E3",
            "ticks": 54912,
            "time": 61.285653,
            "velocity": 0.6614173228346457
          },
          {
            "duration": 0.10714275000000129,
            "durationTicks": 96,
            "midi": 55,
            "name": "G3",
            "ticks": 55104,
            "time": 61.499938500000006,
            "velocity": 0.6614173228346457
          },
          {
            "duration": 0.10714275000000129,
            "durationTicks": 96,
            "midi": 50,
            "name": "D3",
            "ticks": 55104,
            "time": 61.499938500000006,
            "velocity": 0.6614173228346457
          },
          {
            "duration": 0.10714275000000129,
            "durationTicks": 96,
            "midi": 47,
            "name": "B2",
            "ticks": 55104,
            "time": 61.499938500000006,
            "velocity": 0.6614173228346457
          },
          {
            "duration": 0.10714274999999418,
            "durationTicks": 96,
            "midi": 54,
            "name": "F#3",
            "ticks": 55200,
            "time": 61.60708125000001,
            "velocity": 0.6614173228346457
          },
          {
            "duration": 0.10714274999999418,
            "durationTicks": 96,
            "midi": 50,
            "name": "D3",
            "ticks": 55200,
            "time": 61.60708125000001,
            "velocity": 0.6614173228346457
          },
          {
            "duration": 0.10714274999999418,
            "durationTicks": 96,
            "midi": 47,
            "name": "B2",
            "ticks": 55200,
            "time": 61.60708125000001,
            "velocity": 0.6614173228346457
          },
          {
            "duration": 0.42857100000000514,
            "durationTicks": 384,
            "midi": 56,
            "name": "G#3",
            "ticks": 55296,
            "time": 61.714224,
            "velocity": 0.6614173228346457
          },
          {
            "duration": 0.42857100000000514,
            "durationTicks": 384,
            "midi": 54,
            "name": "F#3",
            "ticks": 55296,
            "time": 61.714224,
            "velocity": 0.6614173228346457
          },
          {
            "duration": 0.42857100000000514,
            "durationTicks": 384,
            "midi": 49,
            "name": "C#3",
            "ticks": 55296,
            "time": 61.714224,
            "velocity": 0.6614173228346457
          },
          {
            "duration": 0.32142824999999675,
            "durationTicks": 288,
            "midi": 56,
            "name": "G#3",
            "ticks": 55680,
            "time": 62.14279500000001,
            "velocity": 0.6614173228346457
          },
          {
            "duration": 0.32142824999999675,
            "durationTicks": 288,
            "midi": 54,
            "name": "F#3",
            "ticks": 55680,
            "time": 62.14279500000001,
            "velocity": 0.6614173228346457
          },
          {
            "duration": 0.32142824999999675,
            "durationTicks": 288,
            "midi": 49,
            "name": "C#3",
            "ticks": 55680,
            "time": 62.14279500000001,
            "velocity": 0.6614173228346457
          },
          {
            "duration": 0.21428550000000257,
            "durationTicks": 192,
            "midi": 56,
            "name": "G#3",
            "ticks": 55968,
            "time": 62.46422325,
            "velocity": 0.6614173228346457
          },
          {
            "duration": 0.21428550000000257,
            "durationTicks": 192,
            "midi": 49,
            "name": "C#3",
            "ticks": 55968,
            "time": 62.46422325,
            "velocity": 0.6614173228346457
          },
          {
            "duration": 0.21428550000000257,
            "durationTicks": 192,
            "midi": 54,
            "name": "F#3",
            "ticks": 55968,
            "time": 62.46422325,
            "velocity": 0.6614173228346457
          },
          {
            "duration": 0.10714275000000129,
            "durationTicks": 96,
            "midi": 56,
            "name": "G#3",
            "ticks": 56160,
            "time": 62.678508750000006,
            "velocity": 0.6614173228346457
          },
          {
            "duration": 0.10714275000000129,
            "durationTicks": 96,
            "midi": 54,
            "name": "F#3",
            "ticks": 56160,
            "time": 62.678508750000006,
            "velocity": 0.6614173228346457
          },
          {
            "duration": 0.10714275000000129,
            "durationTicks": 96,
            "midi": 49,
            "name": "C#3",
            "ticks": 56160,
            "time": 62.678508750000006,
            "velocity": 0.6614173228346457
          },
          {
            "duration": 0.21428549999999547,
            "durationTicks": 192,
            "midi": 54,
            "name": "F#3",
            "ticks": 56256,
            "time": 62.78565150000001,
            "velocity": 0.6614173228346457
          },
          {
            "duration": 0.21428549999999547,
            "durationTicks": 192,
            "midi": 49,
            "name": "C#3",
            "ticks": 56256,
            "time": 62.78565150000001,
            "velocity": 0.6614173228346457
          },
          {
            "duration": 0.21428549999999547,
            "durationTicks": 192,
            "midi": 56,
            "name": "G#3",
            "ticks": 56256,
            "time": 62.78565150000001,
            "velocity": 0.6614173228346457
          },
          {
            "duration": 0.21428550000000257,
            "durationTicks": 192,
            "midi": 54,
            "name": "F#3",
            "ticks": 56448,
            "time": 62.999937,
            "velocity": 0.6614173228346457
          },
          {
            "duration": 0.21428550000000257,
            "durationTicks": 192,
            "midi": 52,
            "name": "E3",
            "ticks": 56448,
            "time": 62.999937,
            "velocity": 0.6614173228346457
          },
          {
            "duration": 0.21428550000000257,
            "durationTicks": 192,
            "midi": 47,
            "name": "B2",
            "ticks": 56448,
            "time": 62.999937,
            "velocity": 0.6614173228346457
          },
          {
            "duration": 0.21428550000000257,
            "durationTicks": 192,
            "midi": 59,
            "name": "B3",
            "ticks": 56640,
            "time": 63.214222500000005,
            "velocity": 0.6614173228346457
          },
          {
            "duration": 0.21428550000000257,
            "durationTicks": 192,
            "midi": 54,
            "name": "F#3",
            "ticks": 56640,
            "time": 63.214222500000005,
            "velocity": 0.6614173228346457
          },
          {
            "duration": 0.21428550000000257,
            "durationTicks": 192,
            "midi": 47,
            "name": "B2",
            "ticks": 56640,
            "time": 63.214222500000005,
            "velocity": 0.6614173228346457
          },
          {
            "duration": 0.42857099999999804,
            "durationTicks": 384,
            "midi": 59,
            "name": "B3",
            "ticks": 56832,
            "time": 63.42850800000001,
            "velocity": 0.6614173228346457
          },
          {
            "duration": 0.42857099999999804,
            "durationTicks": 384,
            "midi": 52,
            "name": "E3",
            "ticks": 56832,
            "time": 63.42850800000001,
            "velocity": 0.6614173228346457
          },
          {
            "duration": 0.42857099999999804,
            "durationTicks": 384,
            "midi": 49,
            "name": "C#3",
            "ticks": 56832,
            "time": 63.42850800000001,
            "velocity": 0.6614173228346457
          },
          {
            "duration": 0.32142825000000386,
            "durationTicks": 288,
            "midi": 59,
            "name": "B3",
            "ticks": 57216,
            "time": 63.857079000000006,
            "velocity": 0.6614173228346457
          },
          {
            "duration": 0.32142825000000386,
            "durationTicks": 288,
            "midi": 52,
            "name": "E3",
            "ticks": 57216,
            "time": 63.857079000000006,
            "velocity": 0.6614173228346457
          },
          {
            "duration": 0.32142825000000386,
            "durationTicks": 288,
            "midi": 49,
            "name": "C#3",
            "ticks": 57216,
            "time": 63.857079000000006,
            "velocity": 0.6614173228346457
          },
          {
            "duration": 0.21428550000000257,
            "durationTicks": 192,
            "midi": 59,
            "name": "B3",
            "ticks": 57504,
            "time": 64.17850725000001,
            "velocity": 0.6614173228346457
          },
          {
            "duration": 0.21428550000000257,
            "durationTicks": 192,
            "midi": 52,
            "name": "E3",
            "ticks": 57504,
            "time": 64.17850725000001,
            "velocity": 0.6614173228346457
          },
          {
            "duration": 0.21428550000000257,
            "durationTicks": 192,
            "midi": 49,
            "name": "C#3",
            "ticks": 57504,
            "time": 64.17850725000001,
            "velocity": 0.6614173228346457
          },
          {
            "duration": 0.10714274999999418,
            "durationTicks": 96,
            "midi": 52,
            "name": "E3",
            "ticks": 57696,
            "time": 64.39279275000001,
            "velocity": 0.6614173228346457
          },
          {
            "duration": 0.10714274999999418,
            "durationTicks": 96,
            "midi": 49,
            "name": "C#3",
            "ticks": 57696,
            "time": 64.39279275000001,
            "velocity": 0.6614173228346457
          },
          {
            "duration": 0.10714274999999418,
            "durationTicks": 96,
            "midi": 59,
            "name": "B3",
            "ticks": 57696,
            "time": 64.39279275000001,
            "velocity": 0.6614173228346457
          },
          {
            "duration": 0.21428550000000257,
            "durationTicks": 192,
            "midi": 52,
            "name": "E3",
            "ticks": 57792,
            "time": 64.4999355,
            "velocity": 0.6614173228346457
          },
          {
            "duration": 0.21428550000000257,
            "durationTicks": 192,
            "midi": 59,
            "name": "B3",
            "ticks": 57792,
            "time": 64.4999355,
            "velocity": 0.6614173228346457
          },
          {
            "duration": 0.21428550000000257,
            "durationTicks": 192,
            "midi": 49,
            "name": "C#3",
            "ticks": 57792,
            "time": 64.4999355,
            "velocity": 0.6614173228346457
          },
          {
            "duration": 0.21428550000000257,
            "durationTicks": 192,
            "midi": 57,
            "name": "A3",
            "ticks": 57984,
            "time": 64.71422100000001,
            "velocity": 0.6614173228346457
          },
          {
            "duration": 0.21428550000000257,
            "durationTicks": 192,
            "midi": 50,
            "name": "D3",
            "ticks": 57984,
            "time": 64.71422100000001,
            "velocity": 0.6614173228346457
          },
          {
            "duration": 0.21428550000000257,
            "durationTicks": 192,
            "midi": 47,
            "name": "B2",
            "ticks": 57984,
            "time": 64.71422100000001,
            "velocity": 0.6614173228346457
          },
          {
            "duration": 0.21428549999998836,
            "durationTicks": 192,
            "midi": 59,
            "name": "B3",
            "ticks": 58176,
            "time": 64.92850650000001,
            "velocity": 0.6614173228346457
          },
          {
            "duration": 0.21428549999998836,
            "durationTicks": 192,
            "midi": 47,
            "name": "B2",
            "ticks": 58176,
            "time": 64.92850650000001,
            "velocity": 0.6614173228346457
          },
          {
            "duration": 0.21428549999998836,
            "durationTicks": 192,
            "midi": 52,
            "name": "E3",
            "ticks": 58176,
            "time": 64.92850650000001,
            "velocity": 0.6614173228346457
          },
          {
            "duration": 0.42857100000000514,
            "durationTicks": 384,
            "midi": 59,
            "name": "B3",
            "ticks": 58368,
            "time": 65.142792,
            "velocity": 0.6614173228346457
          },
          {
            "duration": 0.42857100000000514,
            "durationTicks": 384,
            "midi": 54,
            "name": "F#3",
            "ticks": 58368,
            "time": 65.142792,
            "velocity": 0.6614173228346457
          },
          {
            "duration": 0.42857100000000514,
            "durationTicks": 384,
            "midi": 64,
            "name": "E4",
            "ticks": 58368,
            "time": 65.142792,
            "velocity": 0.6614173228346457
          },
          {
            "duration": 0.32142824999999675,
            "durationTicks": 288,
            "midi": 64,
            "name": "E4",
            "ticks": 58752,
            "time": 65.571363,
            "velocity": 0.6614173228346457
          },
          {
            "duration": 0.32142824999999675,
            "durationTicks": 288,
            "midi": 59,
            "name": "B3",
            "ticks": 58752,
            "time": 65.571363,
            "velocity": 0.6614173228346457
          },
          {
            "duration": 0.32142824999999675,
            "durationTicks": 288,
            "midi": 54,
            "name": "F#3",
            "ticks": 58752,
            "time": 65.571363,
            "velocity": 0.6614173228346457
          },
          {
            "duration": 0.21428550000000257,
            "durationTicks": 192,
            "midi": 59,
            "name": "B3",
            "ticks": 59040,
            "time": 65.89279125,
            "velocity": 0.6614173228346457
          },
          {
            "duration": 0.21428550000000257,
            "durationTicks": 192,
            "midi": 54,
            "name": "F#3",
            "ticks": 59040,
            "time": 65.89279125,
            "velocity": 0.6614173228346457
          },
          {
            "duration": 0.21428550000000257,
            "durationTicks": 192,
            "midi": 64,
            "name": "E4",
            "ticks": 59040,
            "time": 65.89279125,
            "velocity": 0.6614173228346457
          },
          {
            "duration": 0.10714274999999418,
            "durationTicks": 96,
            "midi": 54,
            "name": "F#3",
            "ticks": 59232,
            "time": 66.10707675,
            "velocity": 0.6614173228346457
          },
          {
            "duration": 0.10714274999999418,
            "durationTicks": 96,
            "midi": 64,
            "name": "E4",
            "ticks": 59232,
            "time": 66.10707675,
            "velocity": 0.6614173228346457
          },
          {
            "duration": 0.10714274999999418,
            "durationTicks": 96,
            "midi": 59,
            "name": "B3",
            "ticks": 59232,
            "time": 66.10707675,
            "velocity": 0.6614173228346457
          },
          {
            "duration": 0.21428550000000257,
            "durationTicks": 192,
            "midi": 59,
            "name": "B3",
            "ticks": 59328,
            "time": 66.2142195,
            "velocity": 0.6614173228346457
          },
          {
            "duration": 0.21428550000000257,
            "durationTicks": 192,
            "midi": 54,
            "name": "F#3",
            "ticks": 59328,
            "time": 66.2142195,
            "velocity": 0.6614173228346457
          },
          {
            "duration": 0.21428550000000257,
            "durationTicks": 192,
            "midi": 64,
            "name": "E4",
            "ticks": 59328,
            "time": 66.2142195,
            "velocity": 0.6614173228346457
          },
          {
            "duration": 0.21428550000000257,
            "durationTicks": 192,
            "midi": 62,
            "name": "D4",
            "ticks": 59520,
            "time": 66.428505,
            "velocity": 0.6614173228346457
          },
          {
            "duration": 0.21428550000000257,
            "durationTicks": 192,
            "midi": 52,
            "name": "E3",
            "ticks": 59520,
            "time": 66.428505,
            "velocity": 0.6614173228346457
          },
          {
            "duration": 0.21428550000000257,
            "durationTicks": 192,
            "midi": 57,
            "name": "A3",
            "ticks": 59520,
            "time": 66.428505,
            "velocity": 0.6614173228346457
          },
          {
            "duration": 0.21428550000000257,
            "durationTicks": 192,
            "midi": 64,
            "name": "E4",
            "ticks": 59712,
            "time": 66.6427905,
            "velocity": 0.6614173228346457
          },
          {
            "duration": 0.21428550000000257,
            "durationTicks": 192,
            "midi": 59,
            "name": "B3",
            "ticks": 59712,
            "time": 66.6427905,
            "velocity": 0.6614173228346457
          },
          {
            "duration": 0.21428550000000257,
            "durationTicks": 192,
            "midi": 52,
            "name": "E3",
            "ticks": 59712,
            "time": 66.6427905,
            "velocity": 0.6614173228346457
          },
          {
            "duration": 0.42857100000000514,
            "durationTicks": 384,
            "midi": 57,
            "name": "A3",
            "ticks": 59904,
            "time": 66.857076,
            "velocity": 0.6614173228346457
          },
          {
            "duration": 0.42857100000000514,
            "durationTicks": 384,
            "midi": 54,
            "name": "F#3",
            "ticks": 59904,
            "time": 66.857076,
            "velocity": 0.6614173228346457
          },
          {
            "duration": 0.42857100000000514,
            "durationTicks": 384,
            "midi": 52,
            "name": "E3",
            "ticks": 59904,
            "time": 66.857076,
            "velocity": 0.6614173228346457
          },
          {
            "duration": 0.32142824999999675,
            "durationTicks": 288,
            "midi": 52,
            "name": "E3",
            "ticks": 60288,
            "time": 67.28564700000001,
            "velocity": 0.6614173228346457
          },
          {
            "duration": 0.32142824999999675,
            "durationTicks": 288,
            "midi": 54,
            "name": "F#3",
            "ticks": 60288,
            "time": 67.28564700000001,
            "velocity": 0.6614173228346457
          },
          {
            "duration": 0.32142824999999675,
            "durationTicks": 288,
            "midi": 57,
            "name": "A3",
            "ticks": 60288,
            "time": 67.28564700000001,
            "velocity": 0.6614173228346457
          },
          {
            "duration": 0.21428550000000257,
            "durationTicks": 192,
            "midi": 57,
            "name": "A3",
            "ticks": 60576,
            "time": 67.60707525000001,
            "velocity": 0.6614173228346457
          },
          {
            "duration": 0.21428550000000257,
            "durationTicks": 192,
            "midi": 54,
            "name": "F#3",
            "ticks": 60576,
            "time": 67.60707525000001,
            "velocity": 0.6614173228346457
          },
          {
            "duration": 0.21428550000000257,
            "durationTicks": 192,
            "midi": 52,
            "name": "E3",
            "ticks": 60576,
            "time": 67.60707525000001,
            "velocity": 0.6614173228346457
          },
          {
            "duration": 0.10714274999999418,
            "durationTicks": 96,
            "midi": 52,
            "name": "E3",
            "ticks": 60768,
            "time": 67.82136075000001,
            "velocity": 0.6614173228346457
          },
          {
            "duration": 0.10714274999999418,
            "durationTicks": 96,
            "midi": 54,
            "name": "F#3",
            "ticks": 60768,
            "time": 67.82136075000001,
            "velocity": 0.6614173228346457
          },
          {
            "duration": 0.10714274999999418,
            "durationTicks": 96,
            "midi": 57,
            "name": "A3",
            "ticks": 60768,
            "time": 67.82136075000001,
            "velocity": 0.6614173228346457
          },
          {
            "duration": 0.21428550000000257,
            "durationTicks": 192,
            "midi": 52,
            "name": "E3",
            "ticks": 60864,
            "time": 67.9285035,
            "velocity": 0.6614173228346457
          },
          {
            "duration": 0.21428550000000257,
            "durationTicks": 192,
            "midi": 57,
            "name": "A3",
            "ticks": 60864,
            "time": 67.9285035,
            "velocity": 0.6614173228346457
          },
          {
            "duration": 0.21428550000000257,
            "durationTicks": 192,
            "midi": 54,
            "name": "F#3",
            "ticks": 60864,
            "time": 67.9285035,
            "velocity": 0.6614173228346457
          },
          {
            "duration": 0.21428550000000257,
            "durationTicks": 192,
            "midi": 56,
            "name": "G#3",
            "ticks": 61056,
            "time": 68.14278900000001,
            "velocity": 0.6614173228346457
          },
          {
            "duration": 0.21428550000000257,
            "durationTicks": 192,
            "midi": 52,
            "name": "E3",
            "ticks": 61056,
            "time": 68.14278900000001,
            "velocity": 0.6614173228346457
          },
          {
            "duration": 0.21428550000000257,
            "durationTicks": 192,
            "midi": 50,
            "name": "D3",
            "ticks": 61056,
            "time": 68.14278900000001,
            "velocity": 0.6614173228346457
          },
          {
            "duration": 0.21428549999998836,
            "durationTicks": 192,
            "midi": 56,
            "name": "G#3",
            "ticks": 61248,
            "time": 68.35707450000001,
            "velocity": 0.6614173228346457
          },
          {
            "duration": 0.21428549999998836,
            "durationTicks": 192,
            "midi": 54,
            "name": "F#3",
            "ticks": 61248,
            "time": 68.35707450000001,
            "velocity": 0.6614173228346457
          },
          {
            "duration": 0.21428549999998836,
            "durationTicks": 192,
            "midi": 50,
            "name": "D3",
            "ticks": 61248,
            "time": 68.35707450000001,
            "velocity": 0.6614173228346457
          },
          {
            "duration": 0.42857100000000514,
            "durationTicks": 384,
            "midi": 56,
            "name": "G#3",
            "ticks": 61440,
            "time": 68.57136,
            "velocity": 0.6614173228346457
          },
          {
            "duration": 0.42857100000000514,
            "durationTicks": 384,
            "midi": 54,
            "name": "F#3",
            "ticks": 61440,
            "time": 68.57136,
            "velocity": 0.6614173228346457
          },
          {
            "duration": 0.42857100000000514,
            "durationTicks": 384,
            "midi": 49,
            "name": "C#3",
            "ticks": 61440,
            "time": 68.57136,
            "velocity": 0.6614173228346457
          },
          {
            "duration": 0.32142824999999675,
            "durationTicks": 288,
            "midi": 54,
            "name": "F#3",
            "ticks": 61824,
            "time": 68.999931,
            "velocity": 0.6614173228346457
          },
          {
            "duration": 0.32142824999999675,
            "durationTicks": 288,
            "midi": 49,
            "name": "C#3",
            "ticks": 61824,
            "time": 68.999931,
            "velocity": 0.6614173228346457
          },
          {
            "duration": 0.32142824999999675,
            "durationTicks": 288,
            "midi": 56,
            "name": "G#3",
            "ticks": 61824,
            "time": 68.999931,
            "velocity": 0.6614173228346457
          },
          {
            "duration": 0.21428550000000257,
            "durationTicks": 192,
            "midi": 49,
            "name": "C#3",
            "ticks": 62112,
            "time": 69.32135925,
            "velocity": 0.6614173228346457
          },
          {
            "duration": 0.21428550000000257,
            "durationTicks": 192,
            "midi": 56,
            "name": "G#3",
            "ticks": 62112,
            "time": 69.32135925,
            "velocity": 0.6614173228346457
          },
          {
            "duration": 0.21428550000000257,
            "durationTicks": 192,
            "midi": 54,
            "name": "F#3",
            "ticks": 62112,
            "time": 69.32135925,
            "velocity": 0.6614173228346457
          },
          {
            "duration": 0.10714275000000839,
            "durationTicks": 96,
            "midi": 49,
            "name": "C#3",
            "ticks": 62304,
            "time": 69.53564475,
            "velocity": 0.6614173228346457
          },
          {
            "duration": 0.10714275000000839,
            "durationTicks": 96,
            "midi": 56,
            "name": "G#3",
            "ticks": 62304,
            "time": 69.53564475,
            "velocity": 0.6614173228346457
          },
          {
            "duration": 0.10714275000000839,
            "durationTicks": 96,
            "midi": 54,
            "name": "F#3",
            "ticks": 62304,
            "time": 69.53564475,
            "velocity": 0.6614173228346457
          },
          {
            "duration": 0.21428549999998836,
            "durationTicks": 192,
            "midi": 54,
            "name": "F#3",
            "ticks": 62400,
            "time": 69.64278750000001,
            "velocity": 0.6614173228346457
          },
          {
            "duration": 0.21428549999998836,
            "durationTicks": 192,
            "midi": 49,
            "name": "C#3",
            "ticks": 62400,
            "time": 69.64278750000001,
            "velocity": 0.6614173228346457
          },
          {
            "duration": 0.21428549999998836,
            "durationTicks": 192,
            "midi": 56,
            "name": "G#3",
            "ticks": 62400,
            "time": 69.64278750000001,
            "velocity": 0.6614173228346457
          },
          {
            "duration": 0.21428550000000257,
            "durationTicks": 192,
            "midi": 54,
            "name": "F#3",
            "ticks": 62592,
            "time": 69.857073,
            "velocity": 0.6614173228346457
          },
          {
            "duration": 0.21428550000000257,
            "durationTicks": 192,
            "midi": 49,
            "name": "C#3",
            "ticks": 62592,
            "time": 69.857073,
            "velocity": 0.6614173228346457
          },
          {
            "duration": 0.21428550000000257,
            "durationTicks": 192,
            "midi": 57,
            "name": "A3",
            "ticks": 62592,
            "time": 69.857073,
            "velocity": 0.6614173228346457
          },
          {
            "duration": 0.21428550000000257,
            "durationTicks": 192,
            "midi": 56,
            "name": "G#3",
            "ticks": 62784,
            "time": 70.0713585,
            "velocity": 0.6614173228346457
          },
          {
            "duration": 0.21428550000000257,
            "durationTicks": 192,
            "midi": 52,
            "name": "E3",
            "ticks": 62784,
            "time": 70.0713585,
            "velocity": 0.6614173228346457
          },
          {
            "duration": 0.21428550000000257,
            "durationTicks": 192,
            "midi": 49,
            "name": "C#3",
            "ticks": 62784,
            "time": 70.0713585,
            "velocity": 0.6614173228346457
          },
          {
            "duration": 0.42857100000000514,
            "durationTicks": 384,
            "midi": 52,
            "name": "E3",
            "ticks": 62976,
            "time": 70.285644,
            "velocity": 0.6614173228346457
          },
          {
            "duration": 0.42857100000000514,
            "durationTicks": 384,
            "midi": 49,
            "name": "C#3",
            "ticks": 62976,
            "time": 70.285644,
            "velocity": 0.6614173228346457
          },
          {
            "duration": 0.42857100000000514,
            "durationTicks": 384,
            "midi": 56,
            "name": "G#3",
            "ticks": 62976,
            "time": 70.285644,
            "velocity": 0.6614173228346457
          },
          {
            "duration": 0.32142824999999675,
            "durationTicks": 288,
            "midi": 56,
            "name": "G#3",
            "ticks": 63360,
            "time": 70.71421500000001,
            "velocity": 0.6614173228346457
          },
          {
            "duration": 0.32142824999999675,
            "durationTicks": 288,
            "midi": 52,
            "name": "E3",
            "ticks": 63360,
            "time": 70.71421500000001,
            "velocity": 0.6614173228346457
          },
          {
            "duration": 0.32142824999999675,
            "durationTicks": 288,
            "midi": 49,
            "name": "C#3",
            "ticks": 63360,
            "time": 70.71421500000001,
            "velocity": 0.6614173228346457
          },
          {
            "duration": 0.21428550000000257,
            "durationTicks": 192,
            "midi": 52,
            "name": "E3",
            "ticks": 63648,
            "time": 71.03564325,
            "velocity": 0.6614173228346457
          },
          {
            "duration": 0.21428550000000257,
            "durationTicks": 192,
            "midi": 49,
            "name": "C#3",
            "ticks": 63648,
            "time": 71.03564325,
            "velocity": 0.6614173228346457
          },
          {
            "duration": 0.21428550000000257,
            "durationTicks": 192,
            "midi": 56,
            "name": "G#3",
            "ticks": 63648,
            "time": 71.03564325,
            "velocity": 0.6614173228346457
          },
          {
            "duration": 0.10714274999999418,
            "durationTicks": 96,
            "midi": 49,
            "name": "C#3",
            "ticks": 63840,
            "time": 71.24992875000001,
            "velocity": 0.6614173228346457
          },
          {
            "duration": 0.10714274999999418,
            "durationTicks": 96,
            "midi": 56,
            "name": "G#3",
            "ticks": 63840,
            "time": 71.24992875000001,
            "velocity": 0.6614173228346457
          },
          {
            "duration": 0.10714274999999418,
            "durationTicks": 96,
            "midi": 52,
            "name": "E3",
            "ticks": 63840,
            "time": 71.24992875000001,
            "velocity": 0.6614173228346457
          },
          {
            "duration": 0.21428550000000257,
            "durationTicks": 192,
            "midi": 52,
            "name": "E3",
            "ticks": 63936,
            "time": 71.3570715,
            "velocity": 0.6614173228346457
          },
          {
            "duration": 0.21428550000000257,
            "durationTicks": 192,
            "midi": 56,
            "name": "G#3",
            "ticks": 63936,
            "time": 71.3570715,
            "velocity": 0.6614173228346457
          },
          {
            "duration": 0.21428550000000257,
            "durationTicks": 192,
            "midi": 49,
            "name": "C#3",
            "ticks": 63936,
            "time": 71.3570715,
            "velocity": 0.6614173228346457
          },
          {
            "duration": 0.21428550000000257,
            "durationTicks": 192,
            "midi": 57,
            "name": "A3",
            "ticks": 64128,
            "time": 71.571357,
            "velocity": 0.6614173228346457
          },
          {
            "duration": 0.21428550000000257,
            "durationTicks": 192,
            "midi": 49,
            "name": "C#3",
            "ticks": 64128,
            "time": 71.571357,
            "velocity": 0.6614173228346457
          },
          {
            "duration": 0.21428550000000257,
            "durationTicks": 192,
            "midi": 54,
            "name": "F#3",
            "ticks": 64128,
            "time": 71.571357,
            "velocity": 0.6614173228346457
          },
          {
            "duration": 0.10714274999999418,
            "durationTicks": 96,
            "midi": 52,
            "name": "E3",
            "ticks": 64320,
            "time": 71.78564250000001,
            "velocity": 0.6614173228346457
          },
          {
            "duration": 0.10714274999999418,
            "durationTicks": 96,
            "midi": 49,
            "name": "C#3",
            "ticks": 64320,
            "time": 71.78564250000001,
            "velocity": 0.6614173228346457
          },
          {
            "duration": 0.10714274999999418,
            "durationTicks": 96,
            "midi": 57,
            "name": "A3",
            "ticks": 64320,
            "time": 71.78564250000001,
            "velocity": 0.6614173228346457
          },
          {
            "duration": 0.10714275000000839,
            "durationTicks": 96,
            "midi": 52,
            "name": "E3",
            "ticks": 64416,
            "time": 71.89278525,
            "velocity": 0.6614173228346457
          },
          {
            "duration": 0.10714275000000839,
            "durationTicks": 96,
            "midi": 56,
            "name": "G#3",
            "ticks": 64416,
            "time": 71.89278525,
            "velocity": 0.6614173228346457
          },
          {
            "duration": 0.10714275000000839,
            "durationTicks": 96,
            "midi": 49,
            "name": "C#3",
            "ticks": 64416,
            "time": 71.89278525,
            "velocity": 0.6614173228346457
          },
          {
            "duration": 0.42857099999999093,
            "durationTicks": 384,
            "midi": 54,
            "name": "F#3",
            "ticks": 64512,
            "time": 71.99992800000001,
            "velocity": 0.6614173228346457
          },
          {
            "duration": 0.42857099999999093,
            "durationTicks": 384,
            "midi": 56,
            "name": "G#3",
            "ticks": 64512,
            "time": 71.99992800000001,
            "velocity": 0.6614173228346457
          },
          {
            "duration": 0.42857099999999093,
            "durationTicks": 384,
            "midi": 49,
            "name": "C#3",
            "ticks": 64512,
            "time": 71.99992800000001,
            "velocity": 0.6614173228346457
          },
          {
            "duration": 0.32142824999999675,
            "durationTicks": 288,
            "midi": 49,
            "name": "C#3",
            "ticks": 64896,
            "time": 72.428499,
            "velocity": 0.6614173228346457
          },
          {
            "duration": 0.32142824999999675,
            "durationTicks": 288,
            "midi": 54,
            "name": "F#3",
            "ticks": 64896,
            "time": 72.428499,
            "velocity": 0.6614173228346457
          },
          {
            "duration": 0.32142824999999675,
            "durationTicks": 288,
            "midi": 56,
            "name": "G#3",
            "ticks": 64896,
            "time": 72.428499,
            "velocity": 0.6614173228346457
          },
          {
            "duration": 0.21428550000000257,
            "durationTicks": 192,
            "midi": 56,
            "name": "G#3",
            "ticks": 65184,
            "time": 72.74992725,
            "velocity": 0.6614173228346457
          },
          {
            "duration": 0.21428550000000257,
            "durationTicks": 192,
            "midi": 49,
            "name": "C#3",
            "ticks": 65184,
            "time": 72.74992725,
            "velocity": 0.6614173228346457
          },
          {
            "duration": 0.21428550000000257,
            "durationTicks": 192,
            "midi": 54,
            "name": "F#3",
            "ticks": 65184,
            "time": 72.74992725,
            "velocity": 0.6614173228346457
          },
          {
            "duration": 0.10714275000000839,
            "durationTicks": 96,
            "midi": 49,
            "name": "C#3",
            "ticks": 65376,
            "time": 72.96421275,
            "velocity": 0.6614173228346457
          },
          {
            "duration": 0.10714275000000839,
            "durationTicks": 96,
            "midi": 56,
            "name": "G#3",
            "ticks": 65376,
            "time": 72.96421275,
            "velocity": 0.6614173228346457
          },
          {
            "duration": 0.10714275000000839,
            "durationTicks": 96,
            "midi": 54,
            "name": "F#3",
            "ticks": 65376,
            "time": 72.96421275,
            "velocity": 0.6614173228346457
          },
          {
            "duration": 0.21428550000000257,
            "durationTicks": 192,
            "midi": 56,
            "name": "G#3",
            "ticks": 65472,
            "time": 73.07135550000001,
            "velocity": 0.6614173228346457
          },
          {
            "duration": 0.21428550000000257,
            "durationTicks": 192,
            "midi": 49,
            "name": "C#3",
            "ticks": 65472,
            "time": 73.07135550000001,
            "velocity": 0.6614173228346457
          },
          {
            "duration": 0.21428550000000257,
            "durationTicks": 192,
            "midi": 54,
            "name": "F#3",
            "ticks": 65472,
            "time": 73.07135550000001,
            "velocity": 0.6614173228346457
          },
          {
            "duration": 0.21428549999998836,
            "durationTicks": 192,
            "midi": 52,
            "name": "E3",
            "ticks": 65664,
            "time": 73.28564100000001,
            "velocity": 0.6614173228346457
          },
          {
            "duration": 0.21428549999998836,
            "durationTicks": 192,
            "midi": 47,
            "name": "B2",
            "ticks": 65664,
            "time": 73.28564100000001,
            "velocity": 0.6614173228346457
          },
          {
            "duration": 0.21428549999998836,
            "durationTicks": 192,
            "midi": 54,
            "name": "F#3",
            "ticks": 65664,
            "time": 73.28564100000001,
            "velocity": 0.6614173228346457
          },
          {
            "duration": 0.21428550000000257,
            "durationTicks": 192,
            "midi": 59,
            "name": "B3",
            "ticks": 65856,
            "time": 73.4999265,
            "velocity": 0.6614173228346457
          },
          {
            "duration": 0.21428550000000257,
            "durationTicks": 192,
            "midi": 47,
            "name": "B2",
            "ticks": 65856,
            "time": 73.4999265,
            "velocity": 0.6614173228346457
          },
          {
            "duration": 0.21428550000000257,
            "durationTicks": 192,
            "midi": 54,
            "name": "F#3",
            "ticks": 65856,
            "time": 73.4999265,
            "velocity": 0.6614173228346457
          },
          {
            "duration": 0.42857100000000514,
            "durationTicks": 384,
            "midi": 49,
            "name": "C#3",
            "ticks": 66048,
            "time": 73.714212,
            "velocity": 0.6614173228346457
          },
          {
            "duration": 0.42857100000000514,
            "durationTicks": 384,
            "midi": 59,
            "name": "B3",
            "ticks": 66048,
            "time": 73.714212,
            "velocity": 0.6614173228346457
          },
          {
            "duration": 0.42857100000000514,
            "durationTicks": 384,
            "midi": 52,
            "name": "E3",
            "ticks": 66048,
            "time": 73.714212,
            "velocity": 0.6614173228346457
          },
          {
            "duration": 0.32142824999999675,
            "durationTicks": 288,
            "midi": 49,
            "name": "C#3",
            "ticks": 66432,
            "time": 74.14278300000001,
            "velocity": 0.6614173228346457
          },
          {
            "duration": 0.32142824999999675,
            "durationTicks": 288,
            "midi": 52,
            "name": "E3",
            "ticks": 66432,
            "time": 74.14278300000001,
            "velocity": 0.6614173228346457
          },
          {
            "duration": 0.32142824999999675,
            "durationTicks": 288,
            "midi": 59,
            "name": "B3",
            "ticks": 66432,
            "time": 74.14278300000001,
            "velocity": 0.6614173228346457
          },
          {
            "duration": 0.21428550000000257,
            "durationTicks": 192,
            "midi": 59,
            "name": "B3",
            "ticks": 66720,
            "time": 74.46421125,
            "velocity": 0.6614173228346457
          },
          {
            "duration": 0.21428550000000257,
            "durationTicks": 192,
            "midi": 52,
            "name": "E3",
            "ticks": 66720,
            "time": 74.46421125,
            "velocity": 0.6614173228346457
          },
          {
            "duration": 0.21428550000000257,
            "durationTicks": 192,
            "midi": 49,
            "name": "C#3",
            "ticks": 66720,
            "time": 74.46421125,
            "velocity": 0.6614173228346457
          },
          {
            "duration": 0.10714274999999418,
            "durationTicks": 96,
            "midi": 52,
            "name": "E3",
            "ticks": 66912,
            "time": 74.67849675000001,
            "velocity": 0.6614173228346457
          },
          {
            "duration": 0.10714274999999418,
            "durationTicks": 96,
            "midi": 49,
            "name": "C#3",
            "ticks": 66912,
            "time": 74.67849675000001,
            "velocity": 0.6614173228346457
          },
          {
            "duration": 0.10714274999999418,
            "durationTicks": 96,
            "midi": 59,
            "name": "B3",
            "ticks": 66912,
            "time": 74.67849675000001,
            "velocity": 0.6614173228346457
          },
          {
            "duration": 0.21428550000000257,
            "durationTicks": 192,
            "midi": 49,
            "name": "C#3",
            "ticks": 67008,
            "time": 74.7856395,
            "velocity": 0.6614173228346457
          },
          {
            "duration": 0.21428550000000257,
            "durationTicks": 192,
            "midi": 59,
            "name": "B3",
            "ticks": 67008,
            "time": 74.7856395,
            "velocity": 0.6614173228346457
          },
          {
            "duration": 0.21428550000000257,
            "durationTicks": 192,
            "midi": 52,
            "name": "E3",
            "ticks": 67008,
            "time": 74.7856395,
            "velocity": 0.6614173228346457
          },
          {
            "duration": 0.21428550000000257,
            "durationTicks": 192,
            "midi": 57,
            "name": "A3",
            "ticks": 67200,
            "time": 74.999925,
            "velocity": 0.6614173228346457
          },
          {
            "duration": 0.21428550000000257,
            "durationTicks": 192,
            "midi": 47,
            "name": "B2",
            "ticks": 67200,
            "time": 74.999925,
            "velocity": 0.6614173228346457
          },
          {
            "duration": 0.21428550000000257,
            "durationTicks": 192,
            "midi": 50,
            "name": "D3",
            "ticks": 67200,
            "time": 74.999925,
            "velocity": 0.6614173228346457
          },
          {
            "duration": 0.21428550000000257,
            "durationTicks": 192,
            "midi": 52,
            "name": "E3",
            "ticks": 67392,
            "time": 75.21421050000001,
            "velocity": 0.6614173228346457
          },
          {
            "duration": 0.21428550000000257,
            "durationTicks": 192,
            "midi": 59,
            "name": "B3",
            "ticks": 67392,
            "time": 75.21421050000001,
            "velocity": 0.6614173228346457
          },
          {
            "duration": 0.21428550000000257,
            "durationTicks": 192,
            "midi": 47,
            "name": "B2",
            "ticks": 67392,
            "time": 75.21421050000001,
            "velocity": 0.6614173228346457
          },
          {
            "duration": 0.42857099999999093,
            "durationTicks": 384,
            "midi": 64,
            "name": "E4",
            "ticks": 67584,
            "time": 75.42849600000001,
            "velocity": 0.6614173228346457
          },
          {
            "duration": 0.42857099999999093,
            "durationTicks": 384,
            "midi": 59,
            "name": "B3",
            "ticks": 67584,
            "time": 75.42849600000001,
            "velocity": 0.6614173228346457
          },
          {
            "duration": 0.42857099999999093,
            "durationTicks": 384,
            "midi": 54,
            "name": "F#3",
            "ticks": 67584,
            "time": 75.42849600000001,
            "velocity": 0.6614173228346457
          },
          {
            "duration": 0.32142825000001096,
            "durationTicks": 288,
            "midi": 59,
            "name": "B3",
            "ticks": 67968,
            "time": 75.857067,
            "velocity": 0.6614173228346457
          },
          {
            "duration": 0.32142825000001096,
            "durationTicks": 288,
            "midi": 64,
            "name": "E4",
            "ticks": 67968,
            "time": 75.857067,
            "velocity": 0.6614173228346457
          },
          {
            "duration": 0.32142825000001096,
            "durationTicks": 288,
            "midi": 54,
            "name": "F#3",
            "ticks": 67968,
            "time": 75.857067,
            "velocity": 0.6614173228346457
          },
          {
            "duration": 0.21428549999998836,
            "durationTicks": 192,
            "midi": 59,
            "name": "B3",
            "ticks": 68256,
            "time": 76.17849525000001,
            "velocity": 0.6614173228346457
          },
          {
            "duration": 0.21428549999998836,
            "durationTicks": 192,
            "midi": 64,
            "name": "E4",
            "ticks": 68256,
            "time": 76.17849525000001,
            "velocity": 0.6614173228346457
          },
          {
            "duration": 0.21428549999998836,
            "durationTicks": 192,
            "midi": 54,
            "name": "F#3",
            "ticks": 68256,
            "time": 76.17849525000001,
            "velocity": 0.6614173228346457
          },
          {
            "duration": 0.10714275000000839,
            "durationTicks": 96,
            "midi": 59,
            "name": "B3",
            "ticks": 68448,
            "time": 76.39278075,
            "velocity": 0.6614173228346457
          },
          {
            "duration": 0.10714275000000839,
            "durationTicks": 96,
            "midi": 64,
            "name": "E4",
            "ticks": 68448,
            "time": 76.39278075,
            "velocity": 0.6614173228346457
          },
          {
            "duration": 0.10714275000000839,
            "durationTicks": 96,
            "midi": 54,
            "name": "F#3",
            "ticks": 68448,
            "time": 76.39278075,
            "velocity": 0.6614173228346457
          },
          {
            "duration": 0.21428550000000257,
            "durationTicks": 192,
            "midi": 64,
            "name": "E4",
            "ticks": 68544,
            "time": 76.49992350000001,
            "velocity": 0.6614173228346457
          },
          {
            "duration": 0.21428550000000257,
            "durationTicks": 192,
            "midi": 59,
            "name": "B3",
            "ticks": 68544,
            "time": 76.49992350000001,
            "velocity": 0.6614173228346457
          },
          {
            "duration": 0.21428550000000257,
            "durationTicks": 192,
            "midi": 54,
            "name": "F#3",
            "ticks": 68544,
            "time": 76.49992350000001,
            "velocity": 0.6614173228346457
          },
          {
            "duration": 0.21428549999998836,
            "durationTicks": 192,
            "midi": 62,
            "name": "D4",
            "ticks": 68736,
            "time": 76.71420900000001,
            "velocity": 0.6614173228346457
          },
          {
            "duration": 0.21428549999998836,
            "durationTicks": 192,
            "midi": 57,
            "name": "A3",
            "ticks": 68736,
            "time": 76.71420900000001,
            "velocity": 0.6614173228346457
          },
          {
            "duration": 0.21428549999998836,
            "durationTicks": 192,
            "midi": 52,
            "name": "E3",
            "ticks": 68736,
            "time": 76.71420900000001,
            "velocity": 0.6614173228346457
          },
          {
            "duration": 0.21428550000000257,
            "durationTicks": 192,
            "midi": 59,
            "name": "B3",
            "ticks": 68928,
            "time": 76.9284945,
            "velocity": 0.6614173228346457
          },
          {
            "duration": 0.21428550000000257,
            "durationTicks": 192,
            "midi": 52,
            "name": "E3",
            "ticks": 68928,
            "time": 76.9284945,
            "velocity": 0.6614173228346457
          },
          {
            "duration": 0.21428550000000257,
            "durationTicks": 192,
            "midi": 64,
            "name": "E4",
            "ticks": 68928,
            "time": 76.9284945,
            "velocity": 0.6614173228346457
          },
          {
            "duration": 0.42857100000000514,
            "durationTicks": 384,
            "midi": 57,
            "name": "A3",
            "ticks": 69120,
            "time": 77.14278,
            "velocity": 0.6614173228346457
          },
          {
            "duration": 0.42857100000000514,
            "durationTicks": 384,
            "midi": 52,
            "name": "E3",
            "ticks": 69120,
            "time": 77.14278,
            "velocity": 0.6614173228346457
          },
          {
            "duration": 0.42857100000000514,
            "durationTicks": 384,
            "midi": 54,
            "name": "F#3",
            "ticks": 69120,
            "time": 77.14278,
            "velocity": 0.6614173228346457
          },
          {
            "duration": 0.32142824999999675,
            "durationTicks": 288,
            "midi": 52,
            "name": "E3",
            "ticks": 69504,
            "time": 77.571351,
            "velocity": 0.6614173228346457
          },
          {
            "duration": 0.32142824999999675,
            "durationTicks": 288,
            "midi": 57,
            "name": "A3",
            "ticks": 69504,
            "time": 77.571351,
            "velocity": 0.6614173228346457
          },
          {
            "duration": 0.32142824999999675,
            "durationTicks": 288,
            "midi": 54,
            "name": "F#3",
            "ticks": 69504,
            "time": 77.571351,
            "velocity": 0.6614173228346457
          },
          {
            "duration": 0.21428550000000257,
            "durationTicks": 192,
            "midi": 57,
            "name": "A3",
            "ticks": 69792,
            "time": 77.89277925,
            "velocity": 0.6614173228346457
          },
          {
            "duration": 0.21428550000000257,
            "durationTicks": 192,
            "midi": 52,
            "name": "E3",
            "ticks": 69792,
            "time": 77.89277925,
            "velocity": 0.6614173228346457
          },
          {
            "duration": 0.21428550000000257,
            "durationTicks": 192,
            "midi": 54,
            "name": "F#3",
            "ticks": 69792,
            "time": 77.89277925,
            "velocity": 0.6614173228346457
          },
          {
            "duration": 0.10714274999999418,
            "durationTicks": 96,
            "midi": 54,
            "name": "F#3",
            "ticks": 69984,
            "time": 78.10706475,
            "velocity": 0.6614173228346457
          },
          {
            "duration": 0.10714274999999418,
            "durationTicks": 96,
            "midi": 52,
            "name": "E3",
            "ticks": 69984,
            "time": 78.10706475,
            "velocity": 0.6614173228346457
          },
          {
            "duration": 0.10714274999999418,
            "durationTicks": 96,
            "midi": 57,
            "name": "A3",
            "ticks": 69984,
            "time": 78.10706475,
            "velocity": 0.6614173228346457
          },
          {
            "duration": 0.21428550000000257,
            "durationTicks": 192,
            "midi": 54,
            "name": "F#3",
            "ticks": 70080,
            "time": 78.2142075,
            "velocity": 0.6614173228346457
          },
          {
            "duration": 0.21428550000000257,
            "durationTicks": 192,
            "midi": 52,
            "name": "E3",
            "ticks": 70080,
            "time": 78.2142075,
            "velocity": 0.6614173228346457
          },
          {
            "duration": 0.21428550000000257,
            "durationTicks": 192,
            "midi": 57,
            "name": "A3",
            "ticks": 70080,
            "time": 78.2142075,
            "velocity": 0.6614173228346457
          },
          {
            "duration": 0.21428550000000257,
            "durationTicks": 192,
            "midi": 50,
            "name": "D3",
            "ticks": 70272,
            "time": 78.428493,
            "velocity": 0.6614173228346457
          },
          {
            "duration": 0.21428550000000257,
            "durationTicks": 192,
            "midi": 52,
            "name": "E3",
            "ticks": 70272,
            "time": 78.428493,
            "velocity": 0.6614173228346457
          },
          {
            "duration": 0.21428550000000257,
            "durationTicks": 192,
            "midi": 56,
            "name": "G#3",
            "ticks": 70272,
            "time": 78.428493,
            "velocity": 0.6614173228346457
          },
          {
            "duration": 0.21428550000000257,
            "durationTicks": 192,
            "midi": 50,
            "name": "D3",
            "ticks": 70464,
            "time": 78.6427785,
            "velocity": 0.6614173228346457
          },
          {
            "duration": 0.21428550000000257,
            "durationTicks": 192,
            "midi": 54,
            "name": "F#3",
            "ticks": 70464,
            "time": 78.6427785,
            "velocity": 0.6614173228346457
          },
          {
            "duration": 0.21428550000000257,
            "durationTicks": 192,
            "midi": 56,
            "name": "G#3",
            "ticks": 70464,
            "time": 78.6427785,
            "velocity": 0.6614173228346457
          },
          {
            "duration": 0.42857100000000514,
            "durationTicks": 384,
            "midi": 54,
            "name": "F#3",
            "ticks": 70656,
            "time": 78.85706400000001,
            "velocity": 0.6614173228346457
          },
          {
            "duration": 0.42857100000000514,
            "durationTicks": 384,
            "midi": 49,
            "name": "C#3",
            "ticks": 70656,
            "time": 78.85706400000001,
            "velocity": 0.6614173228346457
          },
          {
            "duration": 0.42857100000000514,
            "durationTicks": 384,
            "midi": 56,
            "name": "G#3",
            "ticks": 70656,
            "time": 78.85706400000001,
            "velocity": 0.6614173228346457
          },
          {
            "duration": 0.32142824999999675,
            "durationTicks": 288,
            "midi": 49,
            "name": "C#3",
            "ticks": 71040,
            "time": 79.28563500000001,
            "velocity": 0.6614173228346457
          },
          {
            "duration": 0.32142824999999675,
            "durationTicks": 288,
            "midi": 54,
            "name": "F#3",
            "ticks": 71040,
            "time": 79.28563500000001,
            "velocity": 0.6614173228346457
          },
          {
            "duration": 0.32142824999999675,
            "durationTicks": 288,
            "midi": 56,
            "name": "G#3",
            "ticks": 71040,
            "time": 79.28563500000001,
            "velocity": 0.6614173228346457
          },
          {
            "duration": 0.21428550000000257,
            "durationTicks": 192,
            "midi": 56,
            "name": "G#3",
            "ticks": 71328,
            "time": 79.60706325000001,
            "velocity": 0.6614173228346457
          },
          {
            "duration": 0.21428550000000257,
            "durationTicks": 192,
            "midi": 49,
            "name": "C#3",
            "ticks": 71328,
            "time": 79.60706325000001,
            "velocity": 0.6614173228346457
          },
          {
            "duration": 0.21428550000000257,
            "durationTicks": 192,
            "midi": 54,
            "name": "F#3",
            "ticks": 71328,
            "time": 79.60706325000001,
            "velocity": 0.6614173228346457
          },
          {
            "duration": 0.10714274999999418,
            "durationTicks": 96,
            "midi": 54,
            "name": "F#3",
            "ticks": 71520,
            "time": 79.82134875000001,
            "velocity": 0.6614173228346457
          },
          {
            "duration": 0.10714274999999418,
            "durationTicks": 96,
            "midi": 56,
            "name": "G#3",
            "ticks": 71520,
            "time": 79.82134875000001,
            "velocity": 0.6614173228346457
          },
          {
            "duration": 0.10714274999999418,
            "durationTicks": 96,
            "midi": 49,
            "name": "C#3",
            "ticks": 71520,
            "time": 79.82134875000001,
            "velocity": 0.6614173228346457
          },
          {
            "duration": 0.21428550000000257,
            "durationTicks": 192,
            "midi": 49,
            "name": "C#3",
            "ticks": 71616,
            "time": 79.9284915,
            "velocity": 0.6614173228346457
          },
          {
            "duration": 0.21428550000000257,
            "durationTicks": 192,
            "midi": 54,
            "name": "F#3",
            "ticks": 71616,
            "time": 79.9284915,
            "velocity": 0.6614173228346457
          },
          {
            "duration": 0.21428550000000257,
            "durationTicks": 192,
            "midi": 56,
            "name": "G#3",
            "ticks": 71616,
            "time": 79.9284915,
            "velocity": 0.6614173228346457
          },
          {
            "duration": 0.21428550000000257,
            "durationTicks": 192,
            "midi": 49,
            "name": "C#3",
            "ticks": 71808,
            "time": 80.14277700000001,
            "velocity": 0.6614173228346457
          },
          {
            "duration": 0.21428550000000257,
            "durationTicks": 192,
            "midi": 54,
            "name": "F#3",
            "ticks": 71808,
            "time": 80.14277700000001,
            "velocity": 0.6614173228346457
          },
          {
            "duration": 0.21428550000000257,
            "durationTicks": 192,
            "midi": 57,
            "name": "A3",
            "ticks": 71808,
            "time": 80.14277700000001,
            "velocity": 0.6614173228346457
          },
          {
            "duration": 0.21428549999998836,
            "durationTicks": 192,
            "midi": 56,
            "name": "G#3",
            "ticks": 72000,
            "time": 80.35706250000001,
            "velocity": 0.6614173228346457
          },
          {
            "duration": 0.21428549999998836,
            "durationTicks": 192,
            "midi": 52,
            "name": "E3",
            "ticks": 72000,
            "time": 80.35706250000001,
            "velocity": 0.6614173228346457
          },
          {
            "duration": 0.21428549999998836,
            "durationTicks": 192,
            "midi": 49,
            "name": "C#3",
            "ticks": 72000,
            "time": 80.35706250000001,
            "velocity": 0.6614173228346457
          },
          {
            "duration": 0.42857100000000514,
            "durationTicks": 384,
            "midi": 52,
            "name": "E3",
            "ticks": 72192,
            "time": 80.571348,
            "velocity": 0.6614173228346457
          },
          {
            "duration": 0.42857100000000514,
            "durationTicks": 384,
            "midi": 49,
            "name": "C#3",
            "ticks": 72192,
            "time": 80.571348,
            "velocity": 0.6614173228346457
          },
          {
            "duration": 0.42857100000000514,
            "durationTicks": 384,
            "midi": 56,
            "name": "G#3",
            "ticks": 72192,
            "time": 80.571348,
            "velocity": 0.6614173228346457
          },
          {
            "duration": 0.32142824999999675,
            "durationTicks": 288,
            "midi": 52,
            "name": "E3",
            "ticks": 72576,
            "time": 80.999919,
            "velocity": 0.6614173228346457
          },
          {
            "duration": 0.32142824999999675,
            "durationTicks": 288,
            "midi": 49,
            "name": "C#3",
            "ticks": 72576,
            "time": 80.999919,
            "velocity": 0.6614173228346457
          },
          {
            "duration": 0.32142824999999675,
            "durationTicks": 288,
            "midi": 56,
            "name": "G#3",
            "ticks": 72576,
            "time": 80.999919,
            "velocity": 0.6614173228346457
          },
          {
            "duration": 0.21428550000000257,
            "durationTicks": 192,
            "midi": 56,
            "name": "G#3",
            "ticks": 72864,
            "time": 81.32134725,
            "velocity": 0.6614173228346457
          },
          {
            "duration": 0.21428550000000257,
            "durationTicks": 192,
            "midi": 52,
            "name": "E3",
            "ticks": 72864,
            "time": 81.32134725,
            "velocity": 0.6614173228346457
          },
          {
            "duration": 0.21428550000000257,
            "durationTicks": 192,
            "midi": 49,
            "name": "C#3",
            "ticks": 72864,
            "time": 81.32134725,
            "velocity": 0.6614173228346457
          },
          {
            "duration": 0.10714275000000839,
            "durationTicks": 96,
            "midi": 56,
            "name": "G#3",
            "ticks": 73056,
            "time": 81.53563275,
            "velocity": 0.6614173228346457
          },
          {
            "duration": 0.10714275000000839,
            "durationTicks": 96,
            "midi": 52,
            "name": "E3",
            "ticks": 73056,
            "time": 81.53563275,
            "velocity": 0.6614173228346457
          },
          {
            "duration": 0.10714275000000839,
            "durationTicks": 96,
            "midi": 49,
            "name": "C#3",
            "ticks": 73056,
            "time": 81.53563275,
            "velocity": 0.6614173228346457
          },
          {
            "duration": 0.21428549999998836,
            "durationTicks": 192,
            "midi": 56,
            "name": "G#3",
            "ticks": 73152,
            "time": 81.64277550000001,
            "velocity": 0.6614173228346457
          },
          {
            "duration": 0.21428549999998836,
            "durationTicks": 192,
            "midi": 49,
            "name": "C#3",
            "ticks": 73152,
            "time": 81.64277550000001,
            "velocity": 0.6614173228346457
          },
          {
            "duration": 0.21428549999998836,
            "durationTicks": 192,
            "midi": 52,
            "name": "E3",
            "ticks": 73152,
            "time": 81.64277550000001,
            "velocity": 0.6614173228346457
          },
          {
            "duration": 0.21428550000000257,
            "durationTicks": 192,
            "midi": 57,
            "name": "A3",
            "ticks": 73344,
            "time": 81.857061,
            "velocity": 0.6614173228346457
          },
          {
            "duration": 0.21428550000000257,
            "durationTicks": 192,
            "midi": 54,
            "name": "F#3",
            "ticks": 73344,
            "time": 81.857061,
            "velocity": 0.6614173228346457
          },
          {
            "duration": 0.21428550000000257,
            "durationTicks": 192,
            "midi": 49,
            "name": "C#3",
            "ticks": 73344,
            "time": 81.857061,
            "velocity": 0.6614173228346457
          },
          {
            "duration": 0.10714275000000839,
            "durationTicks": 96,
            "midi": 49,
            "name": "C#3",
            "ticks": 73536,
            "time": 82.0713465,
            "velocity": 0.6614173228346457
          },
          {
            "duration": 0.10714275000000839,
            "durationTicks": 96,
            "midi": 52,
            "name": "E3",
            "ticks": 73536,
            "time": 82.0713465,
            "velocity": 0.6614173228346457
          },
          {
            "duration": 0.10714275000000839,
            "durationTicks": 96,
            "midi": 57,
            "name": "A3",
            "ticks": 73536,
            "time": 82.0713465,
            "velocity": 0.6614173228346457
          },
          {
            "duration": 0.10714274999999418,
            "durationTicks": 96,
            "midi": 49,
            "name": "C#3",
            "ticks": 73632,
            "time": 82.17848925000001,
            "velocity": 0.6614173228346457
          },
          {
            "duration": 0.10714274999999418,
            "durationTicks": 96,
            "midi": 56,
            "name": "G#3",
            "ticks": 73632,
            "time": 82.17848925000001,
            "velocity": 0.6614173228346457
          },
          {
            "duration": 0.10714274999999418,
            "durationTicks": 96,
            "midi": 52,
            "name": "E3",
            "ticks": 73632,
            "time": 82.17848925000001,
            "velocity": 0.6614173228346457
          }
        ],
        "endOfTrackTicks": 73728
      },
      {
        "channel": 3,
        "controlChanges": {},
        "pitchBends": [],
        "instrument": {
          "family": "synth lead",
          "number": 82,
          "name": "lead 3 (calliope)"
        },
        "name": "8-Bit Sine",
        "notes": [
          {
            "duration": 1.7142839999999993,
            "durationTicks": 1536,
            "midi": 60,
            "name": "C4",
            "ticks": 18432,
            "time": 20.571408,
            "velocity": 0.25984251968503935
          },
          {
            "duration": 1.7142840000000028,
            "durationTicks": 1536,
            "midi": 60,
            "name": "C4",
            "ticks": 19968,
            "time": 22.285692,
            "velocity": 0.25984251968503935
          },
          {
            "duration": 1.7142839999999993,
            "durationTicks": 1536,
            "midi": 56,
            "name": "G#3",
            "ticks": 21504,
            "time": 23.999976000000004,
            "velocity": 0.25984251968503935
          },
          {
            "duration": 1.7142839999999993,
            "durationTicks": 1536,
            "midi": 55,
            "name": "G3",
            "ticks": 23040,
            "time": 25.714260000000003,
            "velocity": 0.25984251968503935
          },
          {
            "duration": 1.7142839999999993,
            "durationTicks": 1536,
            "midi": 53,
            "name": "F3",
            "ticks": 24576,
            "time": 27.428544000000002,
            "velocity": 0.25984251968503935
          },
          {
            "duration": 1.7142839999999993,
            "durationTicks": 1536,
            "midi": 53,
            "name": "F3",
            "ticks": 26112,
            "time": 29.142828,
            "velocity": 0.25984251968503935
          },
          {
            "duration": 1.7142839999999993,
            "durationTicks": 1536,
            "midi": 60,
            "name": "C4",
            "ticks": 27648,
            "time": 30.857112,
            "velocity": 0.25984251968503935
          },
          {
            "duration": 1.7142839999999993,
            "durationTicks": 1536,
            "midi": 60,
            "name": "C4",
            "ticks": 29184,
            "time": 32.571396,
            "velocity": 0.25984251968503935
          },
          {
            "duration": 1.7142840000000064,
            "durationTicks": 1536,
            "midi": 56,
            "name": "G#3",
            "ticks": 30720,
            "time": 34.28568,
            "velocity": 0.25984251968503935
          },
          {
            "duration": 1.7142839999999993,
            "durationTicks": 1536,
            "midi": 55,
            "name": "G3",
            "ticks": 32256,
            "time": 35.999964000000006,
            "velocity": 0.25984251968503935
          },
          {
            "duration": 1.7142839999999993,
            "durationTicks": 1536,
            "midi": 53,
            "name": "F3",
            "ticks": 33792,
            "time": 37.714248000000005,
            "velocity": 0.25984251968503935
          },
          {
            "duration": 1.7142839999999993,
            "durationTicks": 1536,
            "midi": 53,
            "name": "F3",
            "ticks": 35328,
            "time": 39.428532000000004,
            "velocity": 0.25984251968503935
          },
          {
            "duration": 1.7142839999999993,
            "durationTicks": 1536,
            "midi": 59,
            "name": "B3",
            "ticks": 36864,
            "time": 41.142816,
            "velocity": 0.25984251968503935
          },
          {
            "duration": 1.7142839999999993,
            "durationTicks": 1536,
            "midi": 59,
            "name": "B3",
            "ticks": 38400,
            "time": 42.8571,
            "velocity": 0.25984251968503935
          },
          {
            "duration": 1.7142839999999993,
            "durationTicks": 1536,
            "midi": 55,
            "name": "G3",
            "ticks": 39936,
            "time": 44.571384,
            "velocity": 0.25984251968503935
          },
          {
            "duration": 1.7142840000000064,
            "durationTicks": 1536,
            "midi": 54,
            "name": "F#3",
            "ticks": 41472,
            "time": 46.285668,
            "velocity": 0.25984251968503935
          },
          {
            "duration": 1.7142839999999993,
            "durationTicks": 1536,
            "midi": 52,
            "name": "E3",
            "ticks": 43008,
            "time": 47.99995200000001,
            "velocity": 0.25984251968503935
          },
          {
            "duration": 1.7142839999999993,
            "durationTicks": 1536,
            "midi": 52,
            "name": "E3",
            "ticks": 44544,
            "time": 49.71423600000001,
            "velocity": 0.25984251968503935
          },
          {
            "duration": 1.7142839999999993,
            "durationTicks": 1536,
            "midi": 59,
            "name": "B3",
            "ticks": 46080,
            "time": 51.428520000000006,
            "velocity": 0.25984251968503935
          },
          {
            "duration": 1.7142839999999993,
            "durationTicks": 1536,
            "midi": 59,
            "name": "B3",
            "ticks": 47616,
            "time": 53.142804000000005,
            "velocity": 0.25984251968503935
          },
          {
            "duration": 1.7142839999999993,
            "durationTicks": 1536,
            "midi": 55,
            "name": "G3",
            "ticks": 49152,
            "time": 54.857088000000005,
            "velocity": 0.25984251968503935
          },
          {
            "duration": 1.7142839999999993,
            "durationTicks": 1536,
            "midi": 54,
            "name": "F#3",
            "ticks": 50688,
            "time": 56.571372000000004,
            "velocity": 0.25984251968503935
          },
          {
            "duration": 1.7142839999999993,
            "durationTicks": 1536,
            "midi": 52,
            "name": "E3",
            "ticks": 52224,
            "time": 58.285656,
            "velocity": 0.25984251968503935
          },
          {
            "duration": 1.7142839999999993,
            "durationTicks": 1536,
            "midi": 52,
            "name": "E3",
            "ticks": 53760,
            "time": 59.99994,
            "velocity": 0.25984251968503935
          },
          {
            "duration": 1.7142840000000064,
            "durationTicks": 1536,
            "midi": 61,
            "name": "C#4",
            "ticks": 55296,
            "time": 61.714224,
            "velocity": 0.25984251968503935
          },
          {
            "duration": 1.7142839999999921,
            "durationTicks": 1536,
            "midi": 61,
            "name": "C#4",
            "ticks": 56832,
            "time": 63.42850800000001,
            "velocity": 0.25984251968503935
          },
          {
            "duration": 1.7142840000000064,
            "durationTicks": 1536,
            "midi": 57,
            "name": "A3",
            "ticks": 58368,
            "time": 65.142792,
            "velocity": 0.25984251968503935
          },
          {
            "duration": 1.7142839999999921,
            "durationTicks": 1536,
            "midi": 56,
            "name": "G#3",
            "ticks": 59904,
            "time": 66.857076,
            "velocity": 0.25984251968503935
          },
          {
            "duration": 1.7142840000000064,
            "durationTicks": 1536,
            "midi": 54,
            "name": "F#3",
            "ticks": 61440,
            "time": 68.57136,
            "velocity": 0.25984251968503935
          },
          {
            "duration": 1.7142840000000064,
            "durationTicks": 1536,
            "midi": 54,
            "name": "F#3",
            "ticks": 62976,
            "time": 70.285644,
            "velocity": 0.25984251968503935
          },
          {
            "duration": 1.7142839999999921,
            "durationTicks": 1536,
            "midi": 61,
            "name": "C#4",
            "ticks": 64512,
            "time": 71.99992800000001,
            "velocity": 0.25984251968503935
          },
          {
            "duration": 1.7142840000000064,
            "durationTicks": 1536,
            "midi": 61,
            "name": "C#4",
            "ticks": 66048,
            "time": 73.714212,
            "velocity": 0.25984251968503935
          },
          {
            "duration": 1.7142839999999921,
            "durationTicks": 1536,
            "midi": 57,
            "name": "A3",
            "ticks": 67584,
            "time": 75.42849600000001,
            "velocity": 0.25984251968503935
          },
          {
            "duration": 1.7142840000000064,
            "durationTicks": 1536,
            "midi": 56,
            "name": "G#3",
            "ticks": 69120,
            "time": 77.14278,
            "velocity": 0.25984251968503935
          },
          {
            "duration": 1.7142839999999921,
            "durationTicks": 1536,
            "midi": 54,
            "name": "F#3",
            "ticks": 70656,
            "time": 78.85706400000001,
            "velocity": 0.25984251968503935
          },
          {
            "duration": 1.7142840000000064,
            "durationTicks": 1536,
            "midi": 54,
            "name": "F#3",
            "ticks": 72192,
            "time": 80.571348,
            "velocity": 0.25984251968503935
          }
        ],
        "endOfTrackTicks": 73728
      },
      {
        "channel": 4,
        "controlChanges": {},
        "pitchBends": [],
        "instrument": {
          "family": "chromatic percussion",
          "number": 11,
          "name": "vibraphone"
        },
        "name": "Vibraphone",
        "notes": [
          {
            "duration": 0.4285710000000016,
            "durationTicks": 384,
            "midi": 65,
            "name": "F4",
            "ticks": 15360,
            "time": 17.14284,
            "velocity": 0.4566929133858268
          },
          {
            "duration": 0.4285710000000016,
            "durationTicks": 384,
            "midi": 67,
            "name": "G4",
            "ticks": 15360,
            "time": 17.14284,
            "velocity": 0.4566929133858268
          },
          {
            "duration": 0.4285710000000016,
            "durationTicks": 384,
            "midi": 60,
            "name": "C4",
            "ticks": 15360,
            "time": 17.14284,
            "velocity": 0.4566929133858268
          },
          {
            "duration": 0.3214282500000003,
            "durationTicks": 288,
            "midi": 60,
            "name": "C4",
            "ticks": 15744,
            "time": 17.571411,
            "velocity": 0.4566929133858268
          },
          {
            "duration": 0.3214282500000003,
            "durationTicks": 288,
            "midi": 67,
            "name": "G4",
            "ticks": 15744,
            "time": 17.571411,
            "velocity": 0.4566929133858268
          },
          {
            "duration": 0.3214282500000003,
            "durationTicks": 288,
            "midi": 65,
            "name": "F4",
            "ticks": 15744,
            "time": 17.571411,
            "velocity": 0.4566929133858268
          },
          {
            "duration": 0.21428549999999902,
            "durationTicks": 192,
            "midi": 67,
            "name": "G4",
            "ticks": 16032,
            "time": 17.89283925,
            "velocity": 0.4566929133858268
          },
          {
            "duration": 0.21428549999999902,
            "durationTicks": 192,
            "midi": 60,
            "name": "C4",
            "ticks": 16032,
            "time": 17.89283925,
            "velocity": 0.4566929133858268
          },
          {
            "duration": 0.21428549999999902,
            "durationTicks": 192,
            "midi": 65,
            "name": "F4",
            "ticks": 16032,
            "time": 17.89283925,
            "velocity": 0.4566929133858268
          },
          {
            "duration": 0.10714275000000129,
            "durationTicks": 96,
            "midi": 67,
            "name": "G4",
            "ticks": 16224,
            "time": 18.10712475,
            "velocity": 0.4566929133858268
          },
          {
            "duration": 0.10714275000000129,
            "durationTicks": 96,
            "midi": 65,
            "name": "F4",
            "ticks": 16224,
            "time": 18.10712475,
            "velocity": 0.4566929133858268
          },
          {
            "duration": 0.10714275000000129,
            "durationTicks": 96,
            "midi": 60,
            "name": "C4",
            "ticks": 16224,
            "time": 18.10712475,
            "velocity": 0.4566929133858268
          },
          {
            "duration": 0.21428549999999902,
            "durationTicks": 192,
            "midi": 60,
            "name": "C4",
            "ticks": 16320,
            "time": 18.214267500000002,
            "velocity": 0.4566929133858268
          },
          {
            "duration": 0.21428549999999902,
            "durationTicks": 192,
            "midi": 67,
            "name": "G4",
            "ticks": 16320,
            "time": 18.214267500000002,
            "velocity": 0.4566929133858268
          },
          {
            "duration": 0.21428549999999902,
            "durationTicks": 192,
            "midi": 65,
            "name": "F4",
            "ticks": 16320,
            "time": 18.214267500000002,
            "velocity": 0.4566929133858268
          },
          {
            "duration": 0.21428549999999902,
            "durationTicks": 192,
            "midi": 63,
            "name": "D#4",
            "ticks": 16512,
            "time": 18.428553,
            "velocity": 0.4566929133858268
          },
          {
            "duration": 0.21428549999999902,
            "durationTicks": 192,
            "midi": 58,
            "name": "A#3",
            "ticks": 16512,
            "time": 18.428553,
            "velocity": 0.4566929133858268
          },
          {
            "duration": 0.21428549999999902,
            "durationTicks": 192,
            "midi": 65,
            "name": "F4",
            "ticks": 16512,
            "time": 18.428553,
            "velocity": 0.4566929133858268
          },
          {
            "duration": 0.21428550000000257,
            "durationTicks": 192,
            "midi": 58,
            "name": "A#3",
            "ticks": 16704,
            "time": 18.6428385,
            "velocity": 0.4566929133858268
          },
          {
            "duration": 0.21428550000000257,
            "durationTicks": 192,
            "midi": 67,
            "name": "G4",
            "ticks": 16704,
            "time": 18.6428385,
            "velocity": 0.4566929133858268
          },
          {
            "duration": 0.21428550000000257,
            "durationTicks": 192,
            "midi": 63,
            "name": "D#4",
            "ticks": 16704,
            "time": 18.6428385,
            "velocity": 0.4566929133858268
          },
          {
            "duration": 0.42857099999999804,
            "durationTicks": 384,
            "midi": 67,
            "name": "G4",
            "ticks": 16896,
            "time": 18.857124000000002,
            "velocity": 0.4566929133858268
          },
          {
            "duration": 0.42857099999999804,
            "durationTicks": 384,
            "midi": 60,
            "name": "C4",
            "ticks": 16896,
            "time": 18.857124000000002,
            "velocity": 0.4566929133858268
          },
          {
            "duration": 0.42857099999999804,
            "durationTicks": 384,
            "midi": 63,
            "name": "D#4",
            "ticks": 16896,
            "time": 18.857124000000002,
            "velocity": 0.4566929133858268
          },
          {
            "duration": 0.3214282500000003,
            "durationTicks": 288,
            "midi": 67,
            "name": "G4",
            "ticks": 17280,
            "time": 19.285695,
            "velocity": 0.4566929133858268
          },
          {
            "duration": 0.3214282500000003,
            "durationTicks": 288,
            "midi": 60,
            "name": "C4",
            "ticks": 17280,
            "time": 19.285695,
            "velocity": 0.4566929133858268
          },
          {
            "duration": 0.3214282500000003,
            "durationTicks": 288,
            "midi": 63,
            "name": "D#4",
            "ticks": 17280,
            "time": 19.285695,
            "velocity": 0.4566929133858268
          },
          {
            "duration": 0.21428550000000257,
            "durationTicks": 192,
            "midi": 60,
            "name": "C4",
            "ticks": 17568,
            "time": 19.60712325,
            "velocity": 0.4566929133858268
          },
          {
            "duration": 0.21428550000000257,
            "durationTicks": 192,
            "midi": 63,
            "name": "D#4",
            "ticks": 17568,
            "time": 19.60712325,
            "velocity": 0.4566929133858268
          },
          {
            "duration": 0.21428550000000257,
            "durationTicks": 192,
            "midi": 67,
            "name": "G4",
            "ticks": 17568,
            "time": 19.60712325,
            "velocity": 0.4566929133858268
          },
          {
            "duration": 0.10714274999999773,
            "durationTicks": 96,
            "midi": 60,
            "name": "C4",
            "ticks": 17760,
            "time": 19.821408750000003,
            "velocity": 0.4566929133858268
          },
          {
            "duration": 0.10714274999999773,
            "durationTicks": 96,
            "midi": 67,
            "name": "G4",
            "ticks": 17760,
            "time": 19.821408750000003,
            "velocity": 0.4566929133858268
          },
          {
            "duration": 0.10714274999999773,
            "durationTicks": 96,
            "midi": 63,
            "name": "D#4",
            "ticks": 17760,
            "time": 19.821408750000003,
            "velocity": 0.4566929133858268
          },
          {
            "duration": 0.21428549999999902,
            "durationTicks": 192,
            "midi": 63,
            "name": "D#4",
            "ticks": 17856,
            "time": 19.9285515,
            "velocity": 0.4566929133858268
          },
          {
            "duration": 0.21428549999999902,
            "durationTicks": 192,
            "midi": 60,
            "name": "C4",
            "ticks": 17856,
            "time": 19.9285515,
            "velocity": 0.4566929133858268
          },
          {
            "duration": 0.21428549999999902,
            "durationTicks": 192,
            "midi": 67,
            "name": "G4",
            "ticks": 17856,
            "time": 19.9285515,
            "velocity": 0.4566929133858268
          },
          {
            "duration": 0.21428550000000257,
            "durationTicks": 192,
            "midi": 65,
            "name": "F4",
            "ticks": 18048,
            "time": 20.142837,
            "velocity": 0.4566929133858268
          },
          {
            "duration": 0.21428550000000257,
            "durationTicks": 192,
            "midi": 58,
            "name": "A#3",
            "ticks": 18048,
            "time": 20.142837,
            "velocity": 0.4566929133858268
          },
          {
            "duration": 0.21428550000000257,
            "durationTicks": 192,
            "midi": 63,
            "name": "D#4",
            "ticks": 18048,
            "time": 20.142837,
            "velocity": 0.4566929133858268
          },
          {
            "duration": 0.21428549999999902,
            "durationTicks": 192,
            "midi": 58,
            "name": "A#3",
            "ticks": 18240,
            "time": 20.357122500000003,
            "velocity": 0.4566929133858268
          },
          {
            "duration": 0.21428549999999902,
            "durationTicks": 192,
            "midi": 63,
            "name": "D#4",
            "ticks": 18240,
            "time": 20.357122500000003,
            "velocity": 0.4566929133858268
          },
          {
            "duration": 0.21428549999999902,
            "durationTicks": 192,
            "midi": 67,
            "name": "G4",
            "ticks": 18240,
            "time": 20.357122500000003,
            "velocity": 0.4566929133858268
          },
          {
            "duration": 0.4285710000000016,
            "durationTicks": 384,
            "midi": 67,
            "name": "G4",
            "ticks": 18432,
            "time": 20.571408,
            "velocity": 0.4566929133858268
          },
          {
            "duration": 0.4285710000000016,
            "durationTicks": 384,
            "midi": 65,
            "name": "F4",
            "ticks": 18432,
            "time": 20.571408,
            "velocity": 0.4566929133858268
          },
          {
            "duration": 0.4285710000000016,
            "durationTicks": 384,
            "midi": 60,
            "name": "C4",
            "ticks": 18432,
            "time": 20.571408,
            "velocity": 0.4566929133858268
          },
          {
            "duration": 0.32142824999999675,
            "durationTicks": 288,
            "midi": 65,
            "name": "F4",
            "ticks": 18816,
            "time": 20.999979000000003,
            "velocity": 0.4566929133858268
          },
          {
            "duration": 0.32142824999999675,
            "durationTicks": 288,
            "midi": 60,
            "name": "C4",
            "ticks": 18816,
            "time": 20.999979000000003,
            "velocity": 0.4566929133858268
          },
          {
            "duration": 0.32142824999999675,
            "durationTicks": 288,
            "midi": 67,
            "name": "G4",
            "ticks": 18816,
            "time": 20.999979000000003,
            "velocity": 0.4566929133858268
          },
          {
            "duration": 0.21428550000000257,
            "durationTicks": 192,
            "midi": 60,
            "name": "C4",
            "ticks": 19104,
            "time": 21.32140725,
            "velocity": 0.4566929133858268
          },
          {
            "duration": 0.21428550000000257,
            "durationTicks": 192,
            "midi": 65,
            "name": "F4",
            "ticks": 19104,
            "time": 21.32140725,
            "velocity": 0.4566929133858268
          },
          {
            "duration": 0.21428550000000257,
            "durationTicks": 192,
            "midi": 67,
            "name": "G4",
            "ticks": 19104,
            "time": 21.32140725,
            "velocity": 0.4566929133858268
          },
          {
            "duration": 0.10714274999999773,
            "durationTicks": 96,
            "midi": 67,
            "name": "G4",
            "ticks": 19296,
            "time": 21.535692750000003,
            "velocity": 0.4566929133858268
          },
          {
            "duration": 0.10714274999999773,
            "durationTicks": 96,
            "midi": 60,
            "name": "C4",
            "ticks": 19296,
            "time": 21.535692750000003,
            "velocity": 0.4566929133858268
          },
          {
            "duration": 0.10714274999999773,
            "durationTicks": 96,
            "midi": 65,
            "name": "F4",
            "ticks": 19296,
            "time": 21.535692750000003,
            "velocity": 0.4566929133858268
          },
          {
            "duration": 0.21428550000000257,
            "durationTicks": 192,
            "midi": 67,
            "name": "G4",
            "ticks": 19392,
            "time": 21.6428355,
            "velocity": 0.4566929133858268
          },
          {
            "duration": 0.21428550000000257,
            "durationTicks": 192,
            "midi": 60,
            "name": "C4",
            "ticks": 19392,
            "time": 21.6428355,
            "velocity": 0.4566929133858268
          },
          {
            "duration": 0.21428550000000257,
            "durationTicks": 192,
            "midi": 65,
            "name": "F4",
            "ticks": 19392,
            "time": 21.6428355,
            "velocity": 0.4566929133858268
          },
          {
            "duration": 0.21428549999999902,
            "durationTicks": 192,
            "midi": 63,
            "name": "D#4",
            "ticks": 19584,
            "time": 21.857121000000003,
            "velocity": 0.4566929133858268
          },
          {
            "duration": 0.21428549999999902,
            "durationTicks": 192,
            "midi": 65,
            "name": "F4",
            "ticks": 19584,
            "time": 21.857121000000003,
            "velocity": 0.4566929133858268
          },
          {
            "duration": 0.21428549999999902,
            "durationTicks": 192,
            "midi": 58,
            "name": "A#3",
            "ticks": 19584,
            "time": 21.857121000000003,
            "velocity": 0.4566929133858268
          },
          {
            "duration": 0.21428549999999902,
            "durationTicks": 192,
            "midi": 58,
            "name": "A#3",
            "ticks": 19776,
            "time": 22.071406500000002,
            "velocity": 0.4566929133858268
          },
          {
            "duration": 0.21428549999999902,
            "durationTicks": 192,
            "midi": 65,
            "name": "F4",
            "ticks": 19776,
            "time": 22.071406500000002,
            "velocity": 0.4566929133858268
          },
          {
            "duration": 0.21428549999999902,
            "durationTicks": 192,
            "midi": 70,
            "name": "A#4",
            "ticks": 19776,
            "time": 22.071406500000002,
            "velocity": 0.4566929133858268
          },
          {
            "duration": 0.4285710000000016,
            "durationTicks": 384,
            "midi": 70,
            "name": "A#4",
            "ticks": 19968,
            "time": 22.285692,
            "velocity": 0.4566929133858268
          },
          {
            "duration": 0.4285710000000016,
            "durationTicks": 384,
            "midi": 60,
            "name": "C4",
            "ticks": 19968,
            "time": 22.285692,
            "velocity": 0.4566929133858268
          },
          {
            "duration": 0.4285710000000016,
            "durationTicks": 384,
            "midi": 63,
            "name": "D#4",
            "ticks": 19968,
            "time": 22.285692,
            "velocity": 0.4566929133858268
          },
          {
            "duration": 0.3214282500000003,
            "durationTicks": 288,
            "midi": 60,
            "name": "C4",
            "ticks": 20352,
            "time": 22.714263000000003,
            "velocity": 0.4566929133858268
          },
          {
            "duration": 0.3214282500000003,
            "durationTicks": 288,
            "midi": 63,
            "name": "D#4",
            "ticks": 20352,
            "time": 22.714263000000003,
            "velocity": 0.4566929133858268
          },
          {
            "duration": 0.3214282500000003,
            "durationTicks": 288,
            "midi": 70,
            "name": "A#4",
            "ticks": 20352,
            "time": 22.714263000000003,
            "velocity": 0.4566929133858268
          },
          {
            "duration": 0.21428549999999902,
            "durationTicks": 192,
            "midi": 70,
            "name": "A#4",
            "ticks": 20640,
            "time": 23.035691250000003,
            "velocity": 0.4566929133858268
          },
          {
            "duration": 0.21428549999999902,
            "durationTicks": 192,
            "midi": 60,
            "name": "C4",
            "ticks": 20640,
            "time": 23.035691250000003,
            "velocity": 0.4566929133858268
          },
          {
            "duration": 0.21428549999999902,
            "durationTicks": 192,
            "midi": 63,
            "name": "D#4",
            "ticks": 20640,
            "time": 23.035691250000003,
            "velocity": 0.4566929133858268
          },
          {
            "duration": 0.10714275000000129,
            "durationTicks": 96,
            "midi": 63,
            "name": "D#4",
            "ticks": 20832,
            "time": 23.249976750000002,
            "velocity": 0.4566929133858268
          },
          {
            "duration": 0.10714275000000129,
            "durationTicks": 96,
            "midi": 60,
            "name": "C4",
            "ticks": 20832,
            "time": 23.249976750000002,
            "velocity": 0.4566929133858268
          },
          {
            "duration": 0.10714275000000129,
            "durationTicks": 96,
            "midi": 70,
            "name": "A#4",
            "ticks": 20832,
            "time": 23.249976750000002,
            "velocity": 0.4566929133858268
          },
          {
            "duration": 0.21428549999999902,
            "durationTicks": 192,
            "midi": 63,
            "name": "D#4",
            "ticks": 20928,
            "time": 23.357119500000003,
            "velocity": 0.4566929133858268
          },
          {
            "duration": 0.21428549999999902,
            "durationTicks": 192,
            "midi": 60,
            "name": "C4",
            "ticks": 20928,
            "time": 23.357119500000003,
            "velocity": 0.4566929133858268
          },
          {
            "duration": 0.21428549999999902,
            "durationTicks": 192,
            "midi": 70,
            "name": "A#4",
            "ticks": 20928,
            "time": 23.357119500000003,
            "velocity": 0.4566929133858268
          },
          {
            "duration": 0.21428549999999902,
            "durationTicks": 192,
            "midi": 68,
            "name": "G#4",
            "ticks": 21120,
            "time": 23.571405000000002,
            "velocity": 0.4566929133858268
          },
          {
            "duration": 0.21428549999999902,
            "durationTicks": 192,
            "midi": 58,
            "name": "A#3",
            "ticks": 21120,
            "time": 23.571405000000002,
            "velocity": 0.4566929133858268
          },
          {
            "duration": 0.21428549999999902,
            "durationTicks": 192,
            "midi": 61,
            "name": "C#4",
            "ticks": 21120,
            "time": 23.571405000000002,
            "velocity": 0.4566929133858268
          },
          {
            "duration": 0.21428550000000257,
            "durationTicks": 192,
            "midi": 63,
            "name": "D#4",
            "ticks": 21312,
            "time": 23.7856905,
            "velocity": 0.4566929133858268
          },
          {
            "duration": 0.21428550000000257,
            "durationTicks": 192,
            "midi": 58,
            "name": "A#3",
            "ticks": 21312,
            "time": 23.7856905,
            "velocity": 0.4566929133858268
          },
          {
            "duration": 0.21428550000000257,
            "durationTicks": 192,
            "midi": 70,
            "name": "A#4",
            "ticks": 21312,
            "time": 23.7856905,
            "velocity": 0.4566929133858268
          },
          {
            "duration": 0.42857099999999804,
            "durationTicks": 384,
            "midi": 65,
            "name": "F4",
            "ticks": 21504,
            "time": 23.999976000000004,
            "velocity": 0.4566929133858268
          },
          {
            "duration": 0.42857099999999804,
            "durationTicks": 384,
            "midi": 75,
            "name": "D#5",
            "ticks": 21504,
            "time": 23.999976000000004,
            "velocity": 0.4566929133858268
          },
          {
            "duration": 0.42857099999999804,
            "durationTicks": 384,
            "midi": 70,
            "name": "A#4",
            "ticks": 21504,
            "time": 23.999976000000004,
            "velocity": 0.4566929133858268
          },
          {
            "duration": 0.3214282500000003,
            "durationTicks": 288,
            "midi": 70,
            "name": "A#4",
            "ticks": 21888,
            "time": 24.428547000000002,
            "velocity": 0.4566929133858268
          },
          {
            "duration": 0.3214282500000003,
            "durationTicks": 288,
            "midi": 65,
            "name": "F4",
            "ticks": 21888,
            "time": 24.428547000000002,
            "velocity": 0.4566929133858268
          },
          {
            "duration": 0.3214282500000003,
            "durationTicks": 288,
            "midi": 75,
            "name": "D#5",
            "ticks": 21888,
            "time": 24.428547000000002,
            "velocity": 0.4566929133858268
          },
          {
            "duration": 0.21428549999999902,
            "durationTicks": 192,
            "midi": 75,
            "name": "D#5",
            "ticks": 22176,
            "time": 24.749975250000002,
            "velocity": 0.4566929133858268
          },
          {
            "duration": 0.21428549999999902,
            "durationTicks": 192,
            "midi": 65,
            "name": "F4",
            "ticks": 22176,
            "time": 24.749975250000002,
            "velocity": 0.4566929133858268
          },
          {
            "duration": 0.21428549999999902,
            "durationTicks": 192,
            "midi": 70,
            "name": "A#4",
            "ticks": 22176,
            "time": 24.749975250000002,
            "velocity": 0.4566929133858268
          },
          {
            "duration": 0.10714275000000129,
            "durationTicks": 96,
            "midi": 65,
            "name": "F4",
            "ticks": 22368,
            "time": 24.96426075,
            "velocity": 0.4566929133858268
          },
          {
            "duration": 0.10714275000000129,
            "durationTicks": 96,
            "midi": 70,
            "name": "A#4",
            "ticks": 22368,
            "time": 24.96426075,
            "velocity": 0.4566929133858268
          },
          {
            "duration": 0.10714275000000129,
            "durationTicks": 96,
            "midi": 75,
            "name": "D#5",
            "ticks": 22368,
            "time": 24.96426075,
            "velocity": 0.4566929133858268
          },
          {
            "duration": 0.21428549999999902,
            "durationTicks": 192,
            "midi": 75,
            "name": "D#5",
            "ticks": 22464,
            "time": 25.071403500000002,
            "velocity": 0.4566929133858268
          },
          {
            "duration": 0.21428549999999902,
            "durationTicks": 192,
            "midi": 70,
            "name": "A#4",
            "ticks": 22464,
            "time": 25.071403500000002,
            "velocity": 0.4566929133858268
          },
          {
            "duration": 0.21428549999999902,
            "durationTicks": 192,
            "midi": 65,
            "name": "F4",
            "ticks": 22464,
            "time": 25.071403500000002,
            "velocity": 0.4566929133858268
          },
          {
            "duration": 0.21428549999999902,
            "durationTicks": 192,
            "midi": 73,
            "name": "C#5",
            "ticks": 22656,
            "time": 25.285689,
            "velocity": 0.4566929133858268
          },
          {
            "duration": 0.21428549999999902,
            "durationTicks": 192,
            "midi": 63,
            "name": "D#4",
            "ticks": 22656,
            "time": 25.285689,
            "velocity": 0.4566929133858268
          },
          {
            "duration": 0.21428549999999902,
            "durationTicks": 192,
            "midi": 68,
            "name": "G#4",
            "ticks": 22656,
            "time": 25.285689,
            "velocity": 0.4566929133858268
          },
          {
            "duration": 0.21428550000000257,
            "durationTicks": 192,
            "midi": 75,
            "name": "D#5",
            "ticks": 22848,
            "time": 25.4999745,
            "velocity": 0.4566929133858268
          },
          {
            "duration": 0.21428550000000257,
            "durationTicks": 192,
            "midi": 63,
            "name": "D#4",
            "ticks": 22848,
            "time": 25.4999745,
            "velocity": 0.4566929133858268
          },
          {
            "duration": 0.21428550000000257,
            "durationTicks": 192,
            "midi": 70,
            "name": "A#4",
            "ticks": 22848,
            "time": 25.4999745,
            "velocity": 0.4566929133858268
          },
          {
            "duration": 0.42857099999999804,
            "durationTicks": 384,
            "midi": 65,
            "name": "F4",
            "ticks": 23040,
            "time": 25.714260000000003,
            "velocity": 0.4566929133858268
          },
          {
            "duration": 0.42857099999999804,
            "durationTicks": 384,
            "midi": 63,
            "name": "D#4",
            "ticks": 23040,
            "time": 25.714260000000003,
            "velocity": 0.4566929133858268
          },
          {
            "duration": 0.42857099999999804,
            "durationTicks": 384,
            "midi": 68,
            "name": "G#4",
            "ticks": 23040,
            "time": 25.714260000000003,
            "velocity": 0.4566929133858268
          },
          {
            "duration": 0.3214282500000003,
            "durationTicks": 288,
            "midi": 63,
            "name": "D#4",
            "ticks": 23424,
            "time": 26.142831,
            "velocity": 0.4566929133858268
          },
          {
            "duration": 0.3214282500000003,
            "durationTicks": 288,
            "midi": 68,
            "name": "G#4",
            "ticks": 23424,
            "time": 26.142831,
            "velocity": 0.4566929133858268
          },
          {
            "duration": 0.3214282500000003,
            "durationTicks": 288,
            "midi": 65,
            "name": "F4",
            "ticks": 23424,
            "time": 26.142831,
            "velocity": 0.4566929133858268
          },
          {
            "duration": 0.21428550000000257,
            "durationTicks": 192,
            "midi": 68,
            "name": "G#4",
            "ticks": 23712,
            "time": 26.46425925,
            "velocity": 0.4566929133858268
          },
          {
            "duration": 0.21428550000000257,
            "durationTicks": 192,
            "midi": 65,
            "name": "F4",
            "ticks": 23712,
            "time": 26.46425925,
            "velocity": 0.4566929133858268
          },
          {
            "duration": 0.21428550000000257,
            "durationTicks": 192,
            "midi": 63,
            "name": "D#4",
            "ticks": 23712,
            "time": 26.46425925,
            "velocity": 0.4566929133858268
          },
          {
            "duration": 0.10714274999999773,
            "durationTicks": 96,
            "midi": 65,
            "name": "F4",
            "ticks": 23904,
            "time": 26.678544750000004,
            "velocity": 0.4566929133858268
          },
          {
            "duration": 0.10714274999999773,
            "durationTicks": 96,
            "midi": 68,
            "name": "G#4",
            "ticks": 23904,
            "time": 26.678544750000004,
            "velocity": 0.4566929133858268
          },
          {
            "duration": 0.10714274999999773,
            "durationTicks": 96,
            "midi": 63,
            "name": "D#4",
            "ticks": 23904,
            "time": 26.678544750000004,
            "velocity": 0.4566929133858268
          },
          {
            "duration": 0.21428549999999902,
            "durationTicks": 192,
            "midi": 68,
            "name": "G#4",
            "ticks": 24000,
            "time": 26.7856875,
            "velocity": 0.4566929133858268
          },
          {
            "duration": 0.21428549999999902,
            "durationTicks": 192,
            "midi": 63,
            "name": "D#4",
            "ticks": 24000,
            "time": 26.7856875,
            "velocity": 0.4566929133858268
          },
          {
            "duration": 0.21428549999999902,
            "durationTicks": 192,
            "midi": 65,
            "name": "F4",
            "ticks": 24000,
            "time": 26.7856875,
            "velocity": 0.4566929133858268
          },
          {
            "duration": 0.21428550000000257,
            "durationTicks": 192,
            "midi": 63,
            "name": "D#4",
            "ticks": 24192,
            "time": 26.999973,
            "velocity": 0.4566929133858268
          },
          {
            "duration": 0.21428550000000257,
            "durationTicks": 192,
            "midi": 67,
            "name": "G4",
            "ticks": 24192,
            "time": 26.999973,
            "velocity": 0.4566929133858268
          },
          {
            "duration": 0.21428550000000257,
            "durationTicks": 192,
            "midi": 61,
            "name": "C#4",
            "ticks": 24192,
            "time": 26.999973,
            "velocity": 0.4566929133858268
          },
          {
            "duration": 0.21428549999999902,
            "durationTicks": 192,
            "midi": 61,
            "name": "C#4",
            "ticks": 24384,
            "time": 27.214258500000003,
            "velocity": 0.4566929133858268
          },
          {
            "duration": 0.21428549999999902,
            "durationTicks": 192,
            "midi": 67,
            "name": "G4",
            "ticks": 24384,
            "time": 27.214258500000003,
            "velocity": 0.4566929133858268
          },
          {
            "duration": 0.21428549999999902,
            "durationTicks": 192,
            "midi": 65,
            "name": "F4",
            "ticks": 24384,
            "time": 27.214258500000003,
            "velocity": 0.4566929133858268
          },
          {
            "duration": 0.4285710000000016,
            "durationTicks": 384,
            "midi": 67,
            "name": "G4",
            "ticks": 24576,
            "time": 27.428544000000002,
            "velocity": 0.4566929133858268
          },
          {
            "duration": 0.4285710000000016,
            "durationTicks": 384,
            "midi": 60,
            "name": "C4",
            "ticks": 24576,
            "time": 27.428544000000002,
            "velocity": 0.4566929133858268
          },
          {
            "duration": 0.4285710000000016,
            "durationTicks": 384,
            "midi": 65,
            "name": "F4",
            "ticks": 24576,
            "time": 27.428544000000002,
            "velocity": 0.4566929133858268
          },
          {
            "duration": 0.32142824999999675,
            "durationTicks": 288,
            "midi": 67,
            "name": "G4",
            "ticks": 24960,
            "time": 27.857115000000004,
            "velocity": 0.4566929133858268
          },
          {
            "duration": 0.32142824999999675,
            "durationTicks": 288,
            "midi": 60,
            "name": "C4",
            "ticks": 24960,
            "time": 27.857115000000004,
            "velocity": 0.4566929133858268
          },
          {
            "duration": 0.32142824999999675,
            "durationTicks": 288,
            "midi": 65,
            "name": "F4",
            "ticks": 24960,
            "time": 27.857115000000004,
            "velocity": 0.4566929133858268
          },
          {
            "duration": 0.21428550000000257,
            "durationTicks": 192,
            "midi": 60,
            "name": "C4",
            "ticks": 25248,
            "time": 28.17854325,
            "velocity": 0.4566929133858268
          },
          {
            "duration": 0.21428550000000257,
            "durationTicks": 192,
            "midi": 67,
            "name": "G4",
            "ticks": 25248,
            "time": 28.17854325,
            "velocity": 0.4566929133858268
          },
          {
            "duration": 0.21428550000000257,
            "durationTicks": 192,
            "midi": 65,
            "name": "F4",
            "ticks": 25248,
            "time": 28.17854325,
            "velocity": 0.4566929133858268
          },
          {
            "duration": 0.10714274999999773,
            "durationTicks": 96,
            "midi": 65,
            "name": "F4",
            "ticks": 25440,
            "time": 28.392828750000003,
            "velocity": 0.4566929133858268
          },
          {
            "duration": 0.10714274999999773,
            "durationTicks": 96,
            "midi": 60,
            "name": "C4",
            "ticks": 25440,
            "time": 28.392828750000003,
            "velocity": 0.4566929133858268
          },
          {
            "duration": 0.10714274999999773,
            "durationTicks": 96,
            "midi": 67,
            "name": "G4",
            "ticks": 25440,
            "time": 28.392828750000003,
            "velocity": 0.4566929133858268
          },
          {
            "duration": 0.21428550000000257,
            "durationTicks": 192,
            "midi": 65,
            "name": "F4",
            "ticks": 25536,
            "time": 28.4999715,
            "velocity": 0.4566929133858268
          },
          {
            "duration": 0.21428550000000257,
            "durationTicks": 192,
            "midi": 67,
            "name": "G4",
            "ticks": 25536,
            "time": 28.4999715,
            "velocity": 0.4566929133858268
          },
          {
            "duration": 0.21428550000000257,
            "durationTicks": 192,
            "midi": 60,
            "name": "C4",
            "ticks": 25536,
            "time": 28.4999715,
            "velocity": 0.4566929133858268
          },
          {
            "duration": 0.21428549999999902,
            "durationTicks": 192,
            "midi": 60,
            "name": "C4",
            "ticks": 25728,
            "time": 28.714257000000003,
            "velocity": 0.4566929133858268
          },
          {
            "duration": 0.21428549999999902,
            "durationTicks": 192,
            "midi": 65,
            "name": "F4",
            "ticks": 25728,
            "time": 28.714257000000003,
            "velocity": 0.4566929133858268
          },
          {
            "duration": 0.21428549999999902,
            "durationTicks": 192,
            "midi": 68,
            "name": "G#4",
            "ticks": 25728,
            "time": 28.714257000000003,
            "velocity": 0.4566929133858268
          },
          {
            "duration": 0.21428549999999902,
            "durationTicks": 192,
            "midi": 63,
            "name": "D#4",
            "ticks": 25920,
            "time": 28.928542500000002,
            "velocity": 0.4566929133858268
          },
          {
            "duration": 0.21428549999999902,
            "durationTicks": 192,
            "midi": 67,
            "name": "G4",
            "ticks": 25920,
            "time": 28.928542500000002,
            "velocity": 0.4566929133858268
          },
          {
            "duration": 0.21428549999999902,
            "durationTicks": 192,
            "midi": 60,
            "name": "C4",
            "ticks": 25920,
            "time": 28.928542500000002,
            "velocity": 0.4566929133858268
          },
          {
            "duration": 0.4285710000000016,
            "durationTicks": 384,
            "midi": 63,
            "name": "D#4",
            "ticks": 26112,
            "time": 29.142828,
            "velocity": 0.4566929133858268
          },
          {
            "duration": 0.4285710000000016,
            "durationTicks": 384,
            "midi": 60,
            "name": "C4",
            "ticks": 26112,
            "time": 29.142828,
            "velocity": 0.4566929133858268
          },
          {
            "duration": 0.4285710000000016,
            "durationTicks": 384,
            "midi": 67,
            "name": "G4",
            "ticks": 26112,
            "time": 29.142828,
            "velocity": 0.4566929133858268
          },
          {
            "duration": 0.3214282500000003,
            "durationTicks": 288,
            "midi": 60,
            "name": "C4",
            "ticks": 26496,
            "time": 29.571399000000003,
            "velocity": 0.4566929133858268
          },
          {
            "duration": 0.3214282500000003,
            "durationTicks": 288,
            "midi": 63,
            "name": "D#4",
            "ticks": 26496,
            "time": 29.571399000000003,
            "velocity": 0.4566929133858268
          },
          {
            "duration": 0.3214282500000003,
            "durationTicks": 288,
            "midi": 67,
            "name": "G4",
            "ticks": 26496,
            "time": 29.571399000000003,
            "velocity": 0.4566929133858268
          },
          {
            "duration": 0.21428549999999902,
            "durationTicks": 192,
            "midi": 63,
            "name": "D#4",
            "ticks": 26784,
            "time": 29.892827250000003,
            "velocity": 0.4566929133858268
          },
          {
            "duration": 0.21428549999999902,
            "durationTicks": 192,
            "midi": 60,
            "name": "C4",
            "ticks": 26784,
            "time": 29.892827250000003,
            "velocity": 0.4566929133858268
          },
          {
            "duration": 0.21428549999999902,
            "durationTicks": 192,
            "midi": 67,
            "name": "G4",
            "ticks": 26784,
            "time": 29.892827250000003,
            "velocity": 0.4566929133858268
          },
          {
            "duration": 0.10714275000000129,
            "durationTicks": 96,
            "midi": 60,
            "name": "C4",
            "ticks": 26976,
            "time": 30.107112750000002,
            "velocity": 0.4566929133858268
          },
          {
            "duration": 0.10714275000000129,
            "durationTicks": 96,
            "midi": 63,
            "name": "D#4",
            "ticks": 26976,
            "time": 30.107112750000002,
            "velocity": 0.4566929133858268
          },
          {
            "duration": 0.10714275000000129,
            "durationTicks": 96,
            "midi": 67,
            "name": "G4",
            "ticks": 26976,
            "time": 30.107112750000002,
            "velocity": 0.4566929133858268
          },
          {
            "duration": 0.21428549999999902,
            "durationTicks": 192,
            "midi": 60,
            "name": "C4",
            "ticks": 27072,
            "time": 30.214255500000004,
            "velocity": 0.4566929133858268
          },
          {
            "duration": 0.21428549999999902,
            "durationTicks": 192,
            "midi": 63,
            "name": "D#4",
            "ticks": 27072,
            "time": 30.214255500000004,
            "velocity": 0.4566929133858268
          },
          {
            "duration": 0.21428549999999902,
            "durationTicks": 192,
            "midi": 67,
            "name": "G4",
            "ticks": 27072,
            "time": 30.214255500000004,
            "velocity": 0.4566929133858268
          },
          {
            "duration": 0.21428549999999902,
            "durationTicks": 192,
            "midi": 68,
            "name": "G#4",
            "ticks": 27264,
            "time": 30.428541000000003,
            "velocity": 0.4566929133858268
          },
          {
            "duration": 0.21428549999999902,
            "durationTicks": 192,
            "midi": 60,
            "name": "C4",
            "ticks": 27264,
            "time": 30.428541000000003,
            "velocity": 0.4566929133858268
          },
          {
            "duration": 0.21428549999999902,
            "durationTicks": 192,
            "midi": 65,
            "name": "F4",
            "ticks": 27264,
            "time": 30.428541000000003,
            "velocity": 0.4566929133858268
          },
          {
            "duration": 0.10714275000000129,
            "durationTicks": 96,
            "midi": 60,
            "name": "C4",
            "ticks": 27456,
            "time": 30.6428265,
            "velocity": 0.4566929133858268
          },
          {
            "duration": 0.10714275000000129,
            "durationTicks": 96,
            "midi": 63,
            "name": "D#4",
            "ticks": 27456,
            "time": 30.6428265,
            "velocity": 0.4566929133858268
          },
          {
            "duration": 0.10714275000000129,
            "durationTicks": 96,
            "midi": 68,
            "name": "G#4",
            "ticks": 27456,
            "time": 30.6428265,
            "velocity": 0.4566929133858268
          },
          {
            "duration": 0.10714274999999773,
            "durationTicks": 96,
            "midi": 67,
            "name": "G4",
            "ticks": 27552,
            "time": 30.749969250000003,
            "velocity": 0.4566929133858268
          },
          {
            "duration": 0.10714274999999773,
            "durationTicks": 96,
            "midi": 63,
            "name": "D#4",
            "ticks": 27552,
            "time": 30.749969250000003,
            "velocity": 0.4566929133858268
          },
          {
            "duration": 0.10714274999999773,
            "durationTicks": 96,
            "midi": 60,
            "name": "C4",
            "ticks": 27552,
            "time": 30.749969250000003,
            "velocity": 0.4566929133858268
          },
          {
            "duration": 0.4285710000000016,
            "durationTicks": 384,
            "midi": 67,
            "name": "G4",
            "ticks": 27648,
            "time": 30.857112,
            "velocity": 0.4566929133858268
          },
          {
            "duration": 0.4285710000000016,
            "durationTicks": 384,
            "midi": 60,
            "name": "C4",
            "ticks": 27648,
            "time": 30.857112,
            "velocity": 0.4566929133858268
          },
          {
            "duration": 0.4285710000000016,
            "durationTicks": 384,
            "midi": 65,
            "name": "F4",
            "ticks": 27648,
            "time": 30.857112,
            "velocity": 0.4566929133858268
          },
          {
            "duration": 0.3214282500000003,
            "durationTicks": 288,
            "midi": 65,
            "name": "F4",
            "ticks": 28032,
            "time": 31.285683000000002,
            "velocity": 0.4566929133858268
          },
          {
            "duration": 0.3214282500000003,
            "durationTicks": 288,
            "midi": 67,
            "name": "G4",
            "ticks": 28032,
            "time": 31.285683000000002,
            "velocity": 0.4566929133858268
          },
          {
            "duration": 0.3214282500000003,
            "durationTicks": 288,
            "midi": 60,
            "name": "C4",
            "ticks": 28032,
            "time": 31.285683000000002,
            "velocity": 0.4566929133858268
          },
          {
            "duration": 0.21428549999999902,
            "durationTicks": 192,
            "midi": 65,
            "name": "F4",
            "ticks": 28320,
            "time": 31.607111250000003,
            "velocity": 0.4566929133858268
          },
          {
            "duration": 0.21428549999999902,
            "durationTicks": 192,
            "midi": 67,
            "name": "G4",
            "ticks": 28320,
            "time": 31.607111250000003,
            "velocity": 0.4566929133858268
          },
          {
            "duration": 0.21428549999999902,
            "durationTicks": 192,
            "midi": 60,
            "name": "C4",
            "ticks": 28320,
            "time": 31.607111250000003,
            "velocity": 0.4566929133858268
          },
          {
            "duration": 0.10714275000000129,
            "durationTicks": 96,
            "midi": 60,
            "name": "C4",
            "ticks": 28512,
            "time": 31.82139675,
            "velocity": 0.4566929133858268
          },
          {
            "duration": 0.10714275000000129,
            "durationTicks": 96,
            "midi": 67,
            "name": "G4",
            "ticks": 28512,
            "time": 31.82139675,
            "velocity": 0.4566929133858268
          },
          {
            "duration": 0.10714275000000129,
            "durationTicks": 96,
            "midi": 65,
            "name": "F4",
            "ticks": 28512,
            "time": 31.82139675,
            "velocity": 0.4566929133858268
          },
          {
            "duration": 0.21428549999999902,
            "durationTicks": 192,
            "midi": 67,
            "name": "G4",
            "ticks": 28608,
            "time": 31.928539500000003,
            "velocity": 0.4566929133858268
          },
          {
            "duration": 0.21428549999999902,
            "durationTicks": 192,
            "midi": 60,
            "name": "C4",
            "ticks": 28608,
            "time": 31.928539500000003,
            "velocity": 0.4566929133858268
          },
          {
            "duration": 0.21428549999999902,
            "durationTicks": 192,
            "midi": 65,
            "name": "F4",
            "ticks": 28608,
            "time": 31.928539500000003,
            "velocity": 0.4566929133858268
          },
          {
            "duration": 0.21428550000000257,
            "durationTicks": 192,
            "midi": 65,
            "name": "F4",
            "ticks": 28800,
            "time": 32.142825,
            "velocity": 0.4566929133858268
          },
          {
            "duration": 0.21428550000000257,
            "durationTicks": 192,
            "midi": 63,
            "name": "D#4",
            "ticks": 28800,
            "time": 32.142825,
            "velocity": 0.4566929133858268
          },
          {
            "duration": 0.21428550000000257,
            "durationTicks": 192,
            "midi": 58,
            "name": "A#3",
            "ticks": 28800,
            "time": 32.142825,
            "velocity": 0.4566929133858268
          },
          {
            "duration": 0.21428549999999547,
            "durationTicks": 192,
            "midi": 65,
            "name": "F4",
            "ticks": 28992,
            "time": 32.357110500000005,
            "velocity": 0.4566929133858268
          },
          {
            "duration": 0.21428549999999547,
            "durationTicks": 192,
            "midi": 58,
            "name": "A#3",
            "ticks": 28992,
            "time": 32.357110500000005,
            "velocity": 0.4566929133858268
          },
          {
            "duration": 0.21428549999999547,
            "durationTicks": 192,
            "midi": 70,
            "name": "A#4",
            "ticks": 28992,
            "time": 32.357110500000005,
            "velocity": 0.4566929133858268
          },
          {
            "duration": 0.42857100000000514,
            "durationTicks": 384,
            "midi": 70,
            "name": "A#4",
            "ticks": 29184,
            "time": 32.571396,
            "velocity": 0.4566929133858268
          },
          {
            "duration": 0.42857100000000514,
            "durationTicks": 384,
            "midi": 60,
            "name": "C4",
            "ticks": 29184,
            "time": 32.571396,
            "velocity": 0.4566929133858268
          },
          {
            "duration": 0.42857100000000514,
            "durationTicks": 384,
            "midi": 63,
            "name": "D#4",
            "ticks": 29184,
            "time": 32.571396,
            "velocity": 0.4566929133858268
          },
          {
            "duration": 0.32142824999999675,
            "durationTicks": 288,
            "midi": 60,
            "name": "C4",
            "ticks": 29568,
            "time": 32.999967000000005,
            "velocity": 0.4566929133858268
          },
          {
            "duration": 0.32142824999999675,
            "durationTicks": 288,
            "midi": 63,
            "name": "D#4",
            "ticks": 29568,
            "time": 32.999967000000005,
            "velocity": 0.4566929133858268
          },
          {
            "duration": 0.32142824999999675,
            "durationTicks": 288,
            "midi": 70,
            "name": "A#4",
            "ticks": 29568,
            "time": 32.999967000000005,
            "velocity": 0.4566929133858268
          },
          {
            "duration": 0.21428550000000257,
            "durationTicks": 192,
            "midi": 70,
            "name": "A#4",
            "ticks": 29856,
            "time": 33.32139525,
            "velocity": 0.4566929133858268
          },
          {
            "duration": 0.21428550000000257,
            "durationTicks": 192,
            "midi": 60,
            "name": "C4",
            "ticks": 29856,
            "time": 33.32139525,
            "velocity": 0.4566929133858268
          },
          {
            "duration": 0.21428550000000257,
            "durationTicks": 192,
            "midi": 63,
            "name": "D#4",
            "ticks": 29856,
            "time": 33.32139525,
            "velocity": 0.4566929133858268
          },
          {
            "duration": 0.10714275000000129,
            "durationTicks": 96,
            "midi": 60,
            "name": "C4",
            "ticks": 30048,
            "time": 33.535680750000004,
            "velocity": 0.4566929133858268
          },
          {
            "duration": 0.10714275000000129,
            "durationTicks": 96,
            "midi": 70,
            "name": "A#4",
            "ticks": 30048,
            "time": 33.535680750000004,
            "velocity": 0.4566929133858268
          },
          {
            "duration": 0.10714275000000129,
            "durationTicks": 96,
            "midi": 63,
            "name": "D#4",
            "ticks": 30048,
            "time": 33.535680750000004,
            "velocity": 0.4566929133858268
          },
          {
            "duration": 0.21428549999999547,
            "durationTicks": 192,
            "midi": 70,
            "name": "A#4",
            "ticks": 30144,
            "time": 33.642823500000006,
            "velocity": 0.4566929133858268
          },
          {
            "duration": 0.21428549999999547,
            "durationTicks": 192,
            "midi": 63,
            "name": "D#4",
            "ticks": 30144,
            "time": 33.642823500000006,
            "velocity": 0.4566929133858268
          },
          {
            "duration": 0.21428549999999547,
            "durationTicks": 192,
            "midi": 60,
            "name": "C4",
            "ticks": 30144,
            "time": 33.642823500000006,
            "velocity": 0.4566929133858268
          },
          {
            "duration": 0.21428550000000257,
            "durationTicks": 192,
            "midi": 58,
            "name": "A#3",
            "ticks": 30336,
            "time": 33.857109,
            "velocity": 0.4566929133858268
          },
          {
            "duration": 0.21428550000000257,
            "durationTicks": 192,
            "midi": 68,
            "name": "G#4",
            "ticks": 30336,
            "time": 33.857109,
            "velocity": 0.4566929133858268
          },
          {
            "duration": 0.21428550000000257,
            "durationTicks": 192,
            "midi": 61,
            "name": "C#4",
            "ticks": 30336,
            "time": 33.857109,
            "velocity": 0.4566929133858268
          },
          {
            "duration": 0.21428549999999547,
            "durationTicks": 192,
            "midi": 58,
            "name": "A#3",
            "ticks": 30528,
            "time": 34.071394500000004,
            "velocity": 0.4566929133858268
          },
          {
            "duration": 0.21428549999999547,
            "durationTicks": 192,
            "midi": 63,
            "name": "D#4",
            "ticks": 30528,
            "time": 34.071394500000004,
            "velocity": 0.4566929133858268
          },
          {
            "duration": 0.21428549999999547,
            "durationTicks": 192,
            "midi": 70,
            "name": "A#4",
            "ticks": 30528,
            "time": 34.071394500000004,
            "velocity": 0.4566929133858268
          },
          {
            "duration": 0.42857100000000514,
            "durationTicks": 384,
            "midi": 65,
            "name": "F4",
            "ticks": 30720,
            "time": 34.28568,
            "velocity": 0.4566929133858268
          },
          {
            "duration": 0.42857100000000514,
            "durationTicks": 384,
            "midi": 70,
            "name": "A#4",
            "ticks": 30720,
            "time": 34.28568,
            "velocity": 0.4566929133858268
          },
          {
            "duration": 0.42857100000000514,
            "durationTicks": 384,
            "midi": 75,
            "name": "D#5",
            "ticks": 30720,
            "time": 34.28568,
            "velocity": 0.4566929133858268
          },
          {
            "duration": 0.32142824999999675,
            "durationTicks": 288,
            "midi": 75,
            "name": "D#5",
            "ticks": 31104,
            "time": 34.714251000000004,
            "velocity": 0.4566929133858268
          },
          {
            "duration": 0.32142824999999675,
            "durationTicks": 288,
            "midi": 70,
            "name": "A#4",
            "ticks": 31104,
            "time": 34.714251000000004,
            "velocity": 0.4566929133858268
          },
          {
            "duration": 0.32142824999999675,
            "durationTicks": 288,
            "midi": 65,
            "name": "F4",
            "ticks": 31104,
            "time": 34.714251000000004,
            "velocity": 0.4566929133858268
          },
          {
            "duration": 0.21428550000000257,
            "durationTicks": 192,
            "midi": 70,
            "name": "A#4",
            "ticks": 31392,
            "time": 35.03567925,
            "velocity": 0.4566929133858268
          },
          {
            "duration": 0.21428550000000257,
            "durationTicks": 192,
            "midi": 65,
            "name": "F4",
            "ticks": 31392,
            "time": 35.03567925,
            "velocity": 0.4566929133858268
          },
          {
            "duration": 0.21428550000000257,
            "durationTicks": 192,
            "midi": 75,
            "name": "D#5",
            "ticks": 31392,
            "time": 35.03567925,
            "velocity": 0.4566929133858268
          },
          {
            "duration": 0.10714275000000129,
            "durationTicks": 96,
            "midi": 75,
            "name": "D#5",
            "ticks": 31584,
            "time": 35.249964750000004,
            "velocity": 0.4566929133858268
          },
          {
            "duration": 0.10714275000000129,
            "durationTicks": 96,
            "midi": 70,
            "name": "A#4",
            "ticks": 31584,
            "time": 35.249964750000004,
            "velocity": 0.4566929133858268
          },
          {
            "duration": 0.10714275000000129,
            "durationTicks": 96,
            "midi": 65,
            "name": "F4",
            "ticks": 31584,
            "time": 35.249964750000004,
            "velocity": 0.4566929133858268
          },
          {
            "duration": 0.21428549999999547,
            "durationTicks": 192,
            "midi": 65,
            "name": "F4",
            "ticks": 31680,
            "time": 35.357107500000005,
            "velocity": 0.4566929133858268
          },
          {
            "duration": 0.21428549999999547,
            "durationTicks": 192,
            "midi": 75,
            "name": "D#5",
            "ticks": 31680,
            "time": 35.357107500000005,
            "velocity": 0.4566929133858268
          },
          {
            "duration": 0.21428549999999547,
            "durationTicks": 192,
            "midi": 70,
            "name": "A#4",
            "ticks": 31680,
            "time": 35.357107500000005,
            "velocity": 0.4566929133858268
          },
          {
            "duration": 0.21428550000000257,
            "durationTicks": 192,
            "midi": 73,
            "name": "C#5",
            "ticks": 31872,
            "time": 35.571393,
            "velocity": 0.4566929133858268
          },
          {
            "duration": 0.21428550000000257,
            "durationTicks": 192,
            "midi": 63,
            "name": "D#4",
            "ticks": 31872,
            "time": 35.571393,
            "velocity": 0.4566929133858268
          },
          {
            "duration": 0.21428550000000257,
            "durationTicks": 192,
            "midi": 68,
            "name": "G#4",
            "ticks": 31872,
            "time": 35.571393,
            "velocity": 0.4566929133858268
          },
          {
            "duration": 0.21428550000000257,
            "durationTicks": 192,
            "midi": 70,
            "name": "A#4",
            "ticks": 32064,
            "time": 35.7856785,
            "velocity": 0.4566929133858268
          },
          {
            "duration": 0.21428550000000257,
            "durationTicks": 192,
            "midi": 63,
            "name": "D#4",
            "ticks": 32064,
            "time": 35.7856785,
            "velocity": 0.4566929133858268
          },
          {
            "duration": 0.21428550000000257,
            "durationTicks": 192,
            "midi": 75,
            "name": "D#5",
            "ticks": 32064,
            "time": 35.7856785,
            "velocity": 0.4566929133858268
          },
          {
            "duration": 0.42857099999999804,
            "durationTicks": 384,
            "midi": 65,
            "name": "F4",
            "ticks": 32256,
            "time": 35.999964000000006,
            "velocity": 0.4566929133858268
          },
          {
            "duration": 0.42857099999999804,
            "durationTicks": 384,
            "midi": 68,
            "name": "G#4",
            "ticks": 32256,
            "time": 35.999964000000006,
            "velocity": 0.4566929133858268
          },
          {
            "duration": 0.42857099999999804,
            "durationTicks": 384,
            "midi": 63,
            "name": "D#4",
            "ticks": 32256,
            "time": 35.999964000000006,
            "velocity": 0.4566929133858268
          },
          {
            "duration": 0.32142824999999675,
            "durationTicks": 288,
            "midi": 63,
            "name": "D#4",
            "ticks": 32640,
            "time": 36.428535000000004,
            "velocity": 0.4566929133858268
          },
          {
            "duration": 0.32142824999999675,
            "durationTicks": 288,
            "midi": 65,
            "name": "F4",
            "ticks": 32640,
            "time": 36.428535000000004,
            "velocity": 0.4566929133858268
          },
          {
            "duration": 0.32142824999999675,
            "durationTicks": 288,
            "midi": 68,
            "name": "G#4",
            "ticks": 32640,
            "time": 36.428535000000004,
            "velocity": 0.4566929133858268
          },
          {
            "duration": 0.21428550000000257,
            "durationTicks": 192,
            "midi": 65,
            "name": "F4",
            "ticks": 32928,
            "time": 36.74996325,
            "velocity": 0.4566929133858268
          },
          {
            "duration": 0.21428550000000257,
            "durationTicks": 192,
            "midi": 63,
            "name": "D#4",
            "ticks": 32928,
            "time": 36.74996325,
            "velocity": 0.4566929133858268
          },
          {
            "duration": 0.21428550000000257,
            "durationTicks": 192,
            "midi": 68,
            "name": "G#4",
            "ticks": 32928,
            "time": 36.74996325,
            "velocity": 0.4566929133858268
          },
          {
            "duration": 0.10714275000000129,
            "durationTicks": 96,
            "midi": 65,
            "name": "F4",
            "ticks": 33120,
            "time": 36.96424875,
            "velocity": 0.4566929133858268
          },
          {
            "duration": 0.10714275000000129,
            "durationTicks": 96,
            "midi": 68,
            "name": "G#4",
            "ticks": 33120,
            "time": 36.96424875,
            "velocity": 0.4566929133858268
          },
          {
            "duration": 0.10714275000000129,
            "durationTicks": 96,
            "midi": 63,
            "name": "D#4",
            "ticks": 33120,
            "time": 36.96424875,
            "velocity": 0.4566929133858268
          },
          {
            "duration": 0.21428549999999547,
            "durationTicks": 192,
            "midi": 63,
            "name": "D#4",
            "ticks": 33216,
            "time": 37.071391500000004,
            "velocity": 0.4566929133858268
          },
          {
            "duration": 0.21428549999999547,
            "durationTicks": 192,
            "midi": 65,
            "name": "F4",
            "ticks": 33216,
            "time": 37.071391500000004,
            "velocity": 0.4566929133858268
          },
          {
            "duration": 0.21428549999999547,
            "durationTicks": 192,
            "midi": 68,
            "name": "G#4",
            "ticks": 33216,
            "time": 37.071391500000004,
            "velocity": 0.4566929133858268
          },
          {
            "duration": 0.21428550000000257,
            "durationTicks": 192,
            "midi": 67,
            "name": "G4",
            "ticks": 33408,
            "time": 37.285677,
            "velocity": 0.4566929133858268
          },
          {
            "duration": 0.21428550000000257,
            "durationTicks": 192,
            "midi": 63,
            "name": "D#4",
            "ticks": 33408,
            "time": 37.285677,
            "velocity": 0.4566929133858268
          },
          {
            "duration": 0.21428550000000257,
            "durationTicks": 192,
            "midi": 61,
            "name": "C#4",
            "ticks": 33408,
            "time": 37.285677,
            "velocity": 0.4566929133858268
          },
          {
            "duration": 0.21428550000000257,
            "durationTicks": 192,
            "midi": 65,
            "name": "F4",
            "ticks": 33600,
            "time": 37.4999625,
            "velocity": 0.4566929133858268
          },
          {
            "duration": 0.21428550000000257,
            "durationTicks": 192,
            "midi": 67,
            "name": "G4",
            "ticks": 33600,
            "time": 37.4999625,
            "velocity": 0.4566929133858268
          },
          {
            "duration": 0.21428550000000257,
            "durationTicks": 192,
            "midi": 61,
            "name": "C#4",
            "ticks": 33600,
            "time": 37.4999625,
            "velocity": 0.4566929133858268
          },
          {
            "duration": 0.42857099999999804,
            "durationTicks": 384,
            "midi": 67,
            "name": "G4",
            "ticks": 33792,
            "time": 37.714248000000005,
            "velocity": 0.4566929133858268
          },
          {
            "duration": 0.42857099999999804,
            "durationTicks": 384,
            "midi": 60,
            "name": "C4",
            "ticks": 33792,
            "time": 37.714248000000005,
            "velocity": 0.4566929133858268
          },
          {
            "duration": 0.42857099999999804,
            "durationTicks": 384,
            "midi": 65,
            "name": "F4",
            "ticks": 33792,
            "time": 37.714248000000005,
            "velocity": 0.4566929133858268
          },
          {
            "duration": 0.32142824999999675,
            "durationTicks": 288,
            "midi": 60,
            "name": "C4",
            "ticks": 34176,
            "time": 38.142819,
            "velocity": 0.4566929133858268
          },
          {
            "duration": 0.32142824999999675,
            "durationTicks": 288,
            "midi": 67,
            "name": "G4",
            "ticks": 34176,
            "time": 38.142819,
            "velocity": 0.4566929133858268
          },
          {
            "duration": 0.32142824999999675,
            "durationTicks": 288,
            "midi": 65,
            "name": "F4",
            "ticks": 34176,
            "time": 38.142819,
            "velocity": 0.4566929133858268
          },
          {
            "duration": 0.21428550000000257,
            "durationTicks": 192,
            "midi": 65,
            "name": "F4",
            "ticks": 34464,
            "time": 38.46424725,
            "velocity": 0.4566929133858268
          },
          {
            "duration": 0.21428550000000257,
            "durationTicks": 192,
            "midi": 67,
            "name": "G4",
            "ticks": 34464,
            "time": 38.46424725,
            "velocity": 0.4566929133858268
          },
          {
            "duration": 0.21428550000000257,
            "durationTicks": 192,
            "midi": 60,
            "name": "C4",
            "ticks": 34464,
            "time": 38.46424725,
            "velocity": 0.4566929133858268
          },
          {
            "duration": 0.10714275000000129,
            "durationTicks": 96,
            "midi": 60,
            "name": "C4",
            "ticks": 34656,
            "time": 38.67853275,
            "velocity": 0.4566929133858268
          },
          {
            "duration": 0.10714275000000129,
            "durationTicks": 96,
            "midi": 65,
            "name": "F4",
            "ticks": 34656,
            "time": 38.67853275,
            "velocity": 0.4566929133858268
          },
          {
            "duration": 0.10714275000000129,
            "durationTicks": 96,
            "midi": 67,
            "name": "G4",
            "ticks": 34656,
            "time": 38.67853275,
            "velocity": 0.4566929133858268
          },
          {
            "duration": 0.21428550000000257,
            "durationTicks": 192,
            "midi": 60,
            "name": "C4",
            "ticks": 34752,
            "time": 38.7856755,
            "velocity": 0.4566929133858268
          },
          {
            "duration": 0.21428550000000257,
            "durationTicks": 192,
            "midi": 65,
            "name": "F4",
            "ticks": 34752,
            "time": 38.7856755,
            "velocity": 0.4566929133858268
          },
          {
            "duration": 0.21428550000000257,
            "durationTicks": 192,
            "midi": 67,
            "name": "G4",
            "ticks": 34752,
            "time": 38.7856755,
            "velocity": 0.4566929133858268
          },
          {
            "duration": 0.21428549999999547,
            "durationTicks": 192,
            "midi": 68,
            "name": "G#4",
            "ticks": 34944,
            "time": 38.999961000000006,
            "velocity": 0.4566929133858268
          },
          {
            "duration": 0.21428549999999547,
            "durationTicks": 192,
            "midi": 60,
            "name": "C4",
            "ticks": 34944,
            "time": 38.999961000000006,
            "velocity": 0.4566929133858268
          },
          {
            "duration": 0.21428549999999547,
            "durationTicks": 192,
            "midi": 65,
            "name": "F4",
            "ticks": 34944,
            "time": 38.999961000000006,
            "velocity": 0.4566929133858268
          },
          {
            "duration": 0.21428550000000257,
            "durationTicks": 192,
            "midi": 63,
            "name": "D#4",
            "ticks": 35136,
            "time": 39.2142465,
            "velocity": 0.4566929133858268
          },
          {
            "duration": 0.21428550000000257,
            "durationTicks": 192,
            "midi": 67,
            "name": "G4",
            "ticks": 35136,
            "time": 39.2142465,
            "velocity": 0.4566929133858268
          },
          {
            "duration": 0.21428550000000257,
            "durationTicks": 192,
            "midi": 60,
            "name": "C4",
            "ticks": 35136,
            "time": 39.2142465,
            "velocity": 0.4566929133858268
          },
          {
            "duration": 0.42857099999999804,
            "durationTicks": 384,
            "midi": 67,
            "name": "G4",
            "ticks": 35328,
            "time": 39.428532000000004,
            "velocity": 0.4566929133858268
          },
          {
            "duration": 0.42857099999999804,
            "durationTicks": 384,
            "midi": 60,
            "name": "C4",
            "ticks": 35328,
            "time": 39.428532000000004,
            "velocity": 0.4566929133858268
          },
          {
            "duration": 0.42857099999999804,
            "durationTicks": 384,
            "midi": 63,
            "name": "D#4",
            "ticks": 35328,
            "time": 39.428532000000004,
            "velocity": 0.4566929133858268
          },
          {
            "duration": 0.32142825000000386,
            "durationTicks": 288,
            "midi": 67,
            "name": "G4",
            "ticks": 35712,
            "time": 39.857103,
            "velocity": 0.4566929133858268
          },
          {
            "duration": 0.32142825000000386,
            "durationTicks": 288,
            "midi": 63,
            "name": "D#4",
            "ticks": 35712,
            "time": 39.857103,
            "velocity": 0.4566929133858268
          },
          {
            "duration": 0.32142825000000386,
            "durationTicks": 288,
            "midi": 60,
            "name": "C4",
            "ticks": 35712,
            "time": 39.857103,
            "velocity": 0.4566929133858268
          },
          {
            "duration": 0.21428549999999547,
            "durationTicks": 192,
            "midi": 60,
            "name": "C4",
            "ticks": 36000,
            "time": 40.178531250000006,
            "velocity": 0.4566929133858268
          },
          {
            "duration": 0.21428549999999547,
            "durationTicks": 192,
            "midi": 67,
            "name": "G4",
            "ticks": 36000,
            "time": 40.178531250000006,
            "velocity": 0.4566929133858268
          },
          {
            "duration": 0.21428549999999547,
            "durationTicks": 192,
            "midi": 63,
            "name": "D#4",
            "ticks": 36000,
            "time": 40.178531250000006,
            "velocity": 0.4566929133858268
          },
          {
            "duration": 0.10714275000000129,
            "durationTicks": 96,
            "midi": 63,
            "name": "D#4",
            "ticks": 36192,
            "time": 40.39281675,
            "velocity": 0.4566929133858268
          },
          {
            "duration": 0.10714275000000129,
            "durationTicks": 96,
            "midi": 60,
            "name": "C4",
            "ticks": 36192,
            "time": 40.39281675,
            "velocity": 0.4566929133858268
          },
          {
            "duration": 0.10714275000000129,
            "durationTicks": 96,
            "midi": 67,
            "name": "G4",
            "ticks": 36192,
            "time": 40.39281675,
            "velocity": 0.4566929133858268
          },
          {
            "duration": 0.21428550000000257,
            "durationTicks": 192,
            "midi": 67,
            "name": "G4",
            "ticks": 36288,
            "time": 40.4999595,
            "velocity": 0.4566929133858268
          },
          {
            "duration": 0.21428550000000257,
            "durationTicks": 192,
            "midi": 63,
            "name": "D#4",
            "ticks": 36288,
            "time": 40.4999595,
            "velocity": 0.4566929133858268
          },
          {
            "duration": 0.21428550000000257,
            "durationTicks": 192,
            "midi": 60,
            "name": "C4",
            "ticks": 36288,
            "time": 40.4999595,
            "velocity": 0.4566929133858268
          },
          {
            "duration": 0.21428549999999547,
            "durationTicks": 192,
            "midi": 60,
            "name": "C4",
            "ticks": 36480,
            "time": 40.714245000000005,
            "velocity": 0.4566929133858268
          },
          {
            "duration": 0.21428549999999547,
            "durationTicks": 192,
            "midi": 68,
            "name": "G#4",
            "ticks": 36480,
            "time": 40.714245000000005,
            "velocity": 0.4566929133858268
          },
          {
            "duration": 0.21428549999999547,
            "durationTicks": 192,
            "midi": 65,
            "name": "F4",
            "ticks": 36480,
            "time": 40.714245000000005,
            "velocity": 0.4566929133858268
          },
          {
            "duration": 0.10714275000000129,
            "durationTicks": 96,
            "midi": 63,
            "name": "D#4",
            "ticks": 36672,
            "time": 40.9285305,
            "velocity": 0.4566929133858268
          },
          {
            "duration": 0.10714275000000129,
            "durationTicks": 96,
            "midi": 60,
            "name": "C4",
            "ticks": 36672,
            "time": 40.9285305,
            "velocity": 0.4566929133858268
          },
          {
            "duration": 0.10714275000000129,
            "durationTicks": 96,
            "midi": 68,
            "name": "G#4",
            "ticks": 36672,
            "time": 40.9285305,
            "velocity": 0.4566929133858268
          },
          {
            "duration": 0.10714275000000129,
            "durationTicks": 96,
            "midi": 63,
            "name": "D#4",
            "ticks": 36768,
            "time": 41.03567325,
            "velocity": 0.4566929133858268
          },
          {
            "duration": 0.10714275000000129,
            "durationTicks": 96,
            "midi": 60,
            "name": "C4",
            "ticks": 36768,
            "time": 41.03567325,
            "velocity": 0.4566929133858268
          },
          {
            "duration": 0.10714275000000129,
            "durationTicks": 96,
            "midi": 67,
            "name": "G4",
            "ticks": 36768,
            "time": 41.03567325,
            "velocity": 0.4566929133858268
          },
          {
            "duration": 0.42857099999999804,
            "durationTicks": 384,
            "midi": 59,
            "name": "B3",
            "ticks": 36864,
            "time": 41.142816,
            "velocity": 0.4566929133858268
          },
          {
            "duration": 0.42857099999999804,
            "durationTicks": 384,
            "midi": 64,
            "name": "E4",
            "ticks": 36864,
            "time": 41.142816,
            "velocity": 0.4566929133858268
          },
          {
            "duration": 0.42857099999999804,
            "durationTicks": 384,
            "midi": 66,
            "name": "F#4",
            "ticks": 36864,
            "time": 41.142816,
            "velocity": 0.4566929133858268
          },
          {
            "duration": 0.32142825000000386,
            "durationTicks": 288,
            "midi": 59,
            "name": "B3",
            "ticks": 37248,
            "time": 41.571387,
            "velocity": 0.4566929133858268
          },
          {
            "duration": 0.32142825000000386,
            "durationTicks": 288,
            "midi": 64,
            "name": "E4",
            "ticks": 37248,
            "time": 41.571387,
            "velocity": 0.4566929133858268
          },
          {
            "duration": 0.32142825000000386,
            "durationTicks": 288,
            "midi": 66,
            "name": "F#4",
            "ticks": 37248,
            "time": 41.571387,
            "velocity": 0.4566929133858268
          },
          {
            "duration": 0.21428549999999547,
            "durationTicks": 192,
            "midi": 64,
            "name": "E4",
            "ticks": 37536,
            "time": 41.892815250000005,
            "velocity": 0.4566929133858268
          },
          {
            "duration": 0.21428549999999547,
            "durationTicks": 192,
            "midi": 66,
            "name": "F#4",
            "ticks": 37536,
            "time": 41.892815250000005,
            "velocity": 0.4566929133858268
          },
          {
            "duration": 0.21428549999999547,
            "durationTicks": 192,
            "midi": 59,
            "name": "B3",
            "ticks": 37536,
            "time": 41.892815250000005,
            "velocity": 0.4566929133858268
          },
          {
            "duration": 0.10714275000000129,
            "durationTicks": 96,
            "midi": 66,
            "name": "F#4",
            "ticks": 37728,
            "time": 42.10710075,
            "velocity": 0.4566929133858268
          },
          {
            "duration": 0.10714275000000129,
            "durationTicks": 96,
            "midi": 59,
            "name": "B3",
            "ticks": 37728,
            "time": 42.10710075,
            "velocity": 0.4566929133858268
          },
          {
            "duration": 0.10714275000000129,
            "durationTicks": 96,
            "midi": 64,
            "name": "E4",
            "ticks": 37728,
            "time": 42.10710075,
            "velocity": 0.4566929133858268
          },
          {
            "duration": 0.21428550000000257,
            "durationTicks": 192,
            "midi": 66,
            "name": "F#4",
            "ticks": 37824,
            "time": 42.2142435,
            "velocity": 0.4566929133858268
          },
          {
            "duration": 0.21428550000000257,
            "durationTicks": 192,
            "midi": 59,
            "name": "B3",
            "ticks": 37824,
            "time": 42.2142435,
            "velocity": 0.4566929133858268
          },
          {
            "duration": 0.21428550000000257,
            "durationTicks": 192,
            "midi": 64,
            "name": "E4",
            "ticks": 37824,
            "time": 42.2142435,
            "velocity": 0.4566929133858268
          },
          {
            "duration": 0.21428549999999547,
            "durationTicks": 192,
            "midi": 57,
            "name": "A3",
            "ticks": 38016,
            "time": 42.428529000000005,
            "velocity": 0.4566929133858268
          },
          {
            "duration": 0.21428549999999547,
            "durationTicks": 192,
            "midi": 64,
            "name": "E4",
            "ticks": 38016,
            "time": 42.428529000000005,
            "velocity": 0.4566929133858268
          },
          {
            "duration": 0.21428549999999547,
            "durationTicks": 192,
            "midi": 62,
            "name": "D4",
            "ticks": 38016,
            "time": 42.428529000000005,
            "velocity": 0.4566929133858268
          },
          {
            "duration": 0.21428550000000257,
            "durationTicks": 192,
            "midi": 64,
            "name": "E4",
            "ticks": 38208,
            "time": 42.6428145,
            "velocity": 0.4566929133858268
          },
          {
            "duration": 0.21428550000000257,
            "durationTicks": 192,
            "midi": 69,
            "name": "A4",
            "ticks": 38208,
            "time": 42.6428145,
            "velocity": 0.4566929133858268
          },
          {
            "duration": 0.21428550000000257,
            "durationTicks": 192,
            "midi": 57,
            "name": "A3",
            "ticks": 38208,
            "time": 42.6428145,
            "velocity": 0.4566929133858268
          },
          {
            "duration": 0.42857099999999804,
            "durationTicks": 384,
            "midi": 59,
            "name": "B3",
            "ticks": 38400,
            "time": 42.8571,
            "velocity": 0.4566929133858268
          },
          {
            "duration": 0.42857099999999804,
            "durationTicks": 384,
            "midi": 69,
            "name": "A4",
            "ticks": 38400,
            "time": 42.8571,
            "velocity": 0.4566929133858268
          },
          {
            "duration": 0.42857099999999804,
            "durationTicks": 384,
            "midi": 62,
            "name": "D4",
            "ticks": 38400,
            "time": 42.8571,
            "velocity": 0.4566929133858268
          },
          {
            "duration": 0.32142825000000386,
            "durationTicks": 288,
            "midi": 62,
            "name": "D4",
            "ticks": 38784,
            "time": 43.285671,
            "velocity": 0.4566929133858268
          },
          {
            "duration": 0.32142825000000386,
            "durationTicks": 288,
            "midi": 69,
            "name": "A4",
            "ticks": 38784,
            "time": 43.285671,
            "velocity": 0.4566929133858268
          },
          {
            "duration": 0.32142825000000386,
            "durationTicks": 288,
            "midi": 59,
            "name": "B3",
            "ticks": 38784,
            "time": 43.285671,
            "velocity": 0.4566929133858268
          },
          {
            "duration": 0.21428550000000257,
            "durationTicks": 192,
            "midi": 59,
            "name": "B3",
            "ticks": 39072,
            "time": 43.607099250000005,
            "velocity": 0.4566929133858268
          },
          {
            "duration": 0.21428550000000257,
            "durationTicks": 192,
            "midi": 69,
            "name": "A4",
            "ticks": 39072,
            "time": 43.607099250000005,
            "velocity": 0.4566929133858268
          },
          {
            "duration": 0.21428550000000257,
            "durationTicks": 192,
            "midi": 62,
            "name": "D4",
            "ticks": 39072,
            "time": 43.607099250000005,
            "velocity": 0.4566929133858268
          },
          {
            "duration": 0.10714274999999418,
            "durationTicks": 96,
            "midi": 62,
            "name": "D4",
            "ticks": 39264,
            "time": 43.82138475000001,
            "velocity": 0.4566929133858268
          },
          {
            "duration": 0.10714274999999418,
            "durationTicks": 96,
            "midi": 59,
            "name": "B3",
            "ticks": 39264,
            "time": 43.82138475000001,
            "velocity": 0.4566929133858268
          },
          {
            "duration": 0.10714274999999418,
            "durationTicks": 96,
            "midi": 69,
            "name": "A4",
            "ticks": 39264,
            "time": 43.82138475000001,
            "velocity": 0.4566929133858268
          },
          {
            "duration": 0.21428550000000257,
            "durationTicks": 192,
            "midi": 69,
            "name": "A4",
            "ticks": 39360,
            "time": 43.9285275,
            "velocity": 0.4566929133858268
          },
          {
            "duration": 0.21428550000000257,
            "durationTicks": 192,
            "midi": 62,
            "name": "D4",
            "ticks": 39360,
            "time": 43.9285275,
            "velocity": 0.4566929133858268
          },
          {
            "duration": 0.21428550000000257,
            "durationTicks": 192,
            "midi": 59,
            "name": "B3",
            "ticks": 39360,
            "time": 43.9285275,
            "velocity": 0.4566929133858268
          },
          {
            "duration": 0.21428550000000257,
            "durationTicks": 192,
            "midi": 57,
            "name": "A3",
            "ticks": 39552,
            "time": 44.142813000000004,
            "velocity": 0.4566929133858268
          },
          {
            "duration": 0.21428550000000257,
            "durationTicks": 192,
            "midi": 60,
            "name": "C4",
            "ticks": 39552,
            "time": 44.142813000000004,
            "velocity": 0.4566929133858268
          },
          {
            "duration": 0.21428550000000257,
            "durationTicks": 192,
            "midi": 67,
            "name": "G4",
            "ticks": 39552,
            "time": 44.142813000000004,
            "velocity": 0.4566929133858268
          },
          {
            "duration": 0.21428549999999547,
            "durationTicks": 192,
            "midi": 57,
            "name": "A3",
            "ticks": 39744,
            "time": 44.357098500000006,
            "velocity": 0.4566929133858268
          },
          {
            "duration": 0.21428549999999547,
            "durationTicks": 192,
            "midi": 69,
            "name": "A4",
            "ticks": 39744,
            "time": 44.357098500000006,
            "velocity": 0.4566929133858268
          },
          {
            "duration": 0.21428549999999547,
            "durationTicks": 192,
            "midi": 62,
            "name": "D4",
            "ticks": 39744,
            "time": 44.357098500000006,
            "velocity": 0.4566929133858268
          },
          {
            "duration": 0.42857100000000514,
            "durationTicks": 384,
            "midi": 74,
            "name": "D5",
            "ticks": 39936,
            "time": 44.571384,
            "velocity": 0.4566929133858268
          },
          {
            "duration": 0.42857100000000514,
            "durationTicks": 384,
            "midi": 69,
            "name": "A4",
            "ticks": 39936,
            "time": 44.571384,
            "velocity": 0.4566929133858268
          },
          {
            "duration": 0.42857100000000514,
            "durationTicks": 384,
            "midi": 64,
            "name": "E4",
            "ticks": 39936,
            "time": 44.571384,
            "velocity": 0.4566929133858268
          },
          {
            "duration": 0.32142824999999675,
            "durationTicks": 288,
            "midi": 74,
            "name": "D5",
            "ticks": 40320,
            "time": 44.99995500000001,
            "velocity": 0.4566929133858268
          },
          {
            "duration": 0.32142824999999675,
            "durationTicks": 288,
            "midi": 69,
            "name": "A4",
            "ticks": 40320,
            "time": 44.99995500000001,
            "velocity": 0.4566929133858268
          },
          {
            "duration": 0.32142824999999675,
            "durationTicks": 288,
            "midi": 64,
            "name": "E4",
            "ticks": 40320,
            "time": 44.99995500000001,
            "velocity": 0.4566929133858268
          },
          {
            "duration": 0.21428550000000257,
            "durationTicks": 192,
            "midi": 69,
            "name": "A4",
            "ticks": 40608,
            "time": 45.321383250000004,
            "velocity": 0.4566929133858268
          },
          {
            "duration": 0.21428550000000257,
            "durationTicks": 192,
            "midi": 64,
            "name": "E4",
            "ticks": 40608,
            "time": 45.321383250000004,
            "velocity": 0.4566929133858268
          },
          {
            "duration": 0.21428550000000257,
            "durationTicks": 192,
            "midi": 74,
            "name": "D5",
            "ticks": 40608,
            "time": 45.321383250000004,
            "velocity": 0.4566929133858268
          },
          {
            "duration": 0.10714274999999418,
            "durationTicks": 96,
            "midi": 64,
            "name": "E4",
            "ticks": 40800,
            "time": 45.535668750000006,
            "velocity": 0.4566929133858268
          },
          {
            "duration": 0.10714274999999418,
            "durationTicks": 96,
            "midi": 74,
            "name": "D5",
            "ticks": 40800,
            "time": 45.535668750000006,
            "velocity": 0.4566929133858268
          },
          {
            "duration": 0.10714274999999418,
            "durationTicks": 96,
            "midi": 69,
            "name": "A4",
            "ticks": 40800,
            "time": 45.535668750000006,
            "velocity": 0.4566929133858268
          },
          {
            "duration": 0.21428550000000257,
            "durationTicks": 192,
            "midi": 74,
            "name": "D5",
            "ticks": 40896,
            "time": 45.6428115,
            "velocity": 0.4566929133858268
          },
          {
            "duration": 0.21428550000000257,
            "durationTicks": 192,
            "midi": 64,
            "name": "E4",
            "ticks": 40896,
            "time": 45.6428115,
            "velocity": 0.4566929133858268
          },
          {
            "duration": 0.21428550000000257,
            "durationTicks": 192,
            "midi": 69,
            "name": "A4",
            "ticks": 40896,
            "time": 45.6428115,
            "velocity": 0.4566929133858268
          },
          {
            "duration": 0.21428550000000257,
            "durationTicks": 192,
            "midi": 72,
            "name": "C5",
            "ticks": 41088,
            "time": 45.857097,
            "velocity": 0.4566929133858268
          },
          {
            "duration": 0.21428550000000257,
            "durationTicks": 192,
            "midi": 67,
            "name": "G4",
            "ticks": 41088,
            "time": 45.857097,
            "velocity": 0.4566929133858268
          },
          {
            "duration": 0.21428550000000257,
            "durationTicks": 192,
            "midi": 62,
            "name": "D4",
            "ticks": 41088,
            "time": 45.857097,
            "velocity": 0.4566929133858268
          },
          {
            "duration": 0.21428549999999547,
            "durationTicks": 192,
            "midi": 74,
            "name": "D5",
            "ticks": 41280,
            "time": 46.071382500000006,
            "velocity": 0.4566929133858268
          },
          {
            "duration": 0.21428549999999547,
            "durationTicks": 192,
            "midi": 69,
            "name": "A4",
            "ticks": 41280,
            "time": 46.071382500000006,
            "velocity": 0.4566929133858268
          },
          {
            "duration": 0.21428549999999547,
            "durationTicks": 192,
            "midi": 62,
            "name": "D4",
            "ticks": 41280,
            "time": 46.071382500000006,
            "velocity": 0.4566929133858268
          },
          {
            "duration": 0.42857100000000514,
            "durationTicks": 384,
            "midi": 67,
            "name": "G4",
            "ticks": 41472,
            "time": 46.285668,
            "velocity": 0.4566929133858268
          },
          {
            "duration": 0.42857100000000514,
            "durationTicks": 384,
            "midi": 62,
            "name": "D4",
            "ticks": 41472,
            "time": 46.285668,
            "velocity": 0.4566929133858268
          },
          {
            "duration": 0.42857100000000514,
            "durationTicks": 384,
            "midi": 64,
            "name": "E4",
            "ticks": 41472,
            "time": 46.285668,
            "velocity": 0.4566929133858268
          },
          {
            "duration": 0.32142824999999675,
            "durationTicks": 288,
            "midi": 67,
            "name": "G4",
            "ticks": 41856,
            "time": 46.714239000000006,
            "velocity": 0.4566929133858268
          },
          {
            "duration": 0.32142824999999675,
            "durationTicks": 288,
            "midi": 62,
            "name": "D4",
            "ticks": 41856,
            "time": 46.714239000000006,
            "velocity": 0.4566929133858268
          },
          {
            "duration": 0.32142824999999675,
            "durationTicks": 288,
            "midi": 64,
            "name": "E4",
            "ticks": 41856,
            "time": 46.714239000000006,
            "velocity": 0.4566929133858268
          },
          {
            "duration": 0.21428550000000257,
            "durationTicks": 192,
            "midi": 62,
            "name": "D4",
            "ticks": 42144,
            "time": 47.03566725,
            "velocity": 0.4566929133858268
          },
          {
            "duration": 0.21428550000000257,
            "durationTicks": 192,
            "midi": 67,
            "name": "G4",
            "ticks": 42144,
            "time": 47.03566725,
            "velocity": 0.4566929133858268
          },
          {
            "duration": 0.21428550000000257,
            "durationTicks": 192,
            "midi": 64,
            "name": "E4",
            "ticks": 42144,
            "time": 47.03566725,
            "velocity": 0.4566929133858268
          },
          {
            "duration": 0.10714275000000129,
            "durationTicks": 96,
            "midi": 64,
            "name": "E4",
            "ticks": 42336,
            "time": 47.249952750000006,
            "velocity": 0.4566929133858268
          },
          {
            "duration": 0.10714275000000129,
            "durationTicks": 96,
            "midi": 62,
            "name": "D4",
            "ticks": 42336,
            "time": 47.249952750000006,
            "velocity": 0.4566929133858268
          },
          {
            "duration": 0.10714275000000129,
            "durationTicks": 96,
            "midi": 67,
            "name": "G4",
            "ticks": 42336,
            "time": 47.249952750000006,
            "velocity": 0.4566929133858268
          },
          {
            "duration": 0.21428549999999547,
            "durationTicks": 192,
            "midi": 67,
            "name": "G4",
            "ticks": 42432,
            "time": 47.35709550000001,
            "velocity": 0.4566929133858268
          },
          {
            "duration": 0.21428549999999547,
            "durationTicks": 192,
            "midi": 64,
            "name": "E4",
            "ticks": 42432,
            "time": 47.35709550000001,
            "velocity": 0.4566929133858268
          },
          {
            "duration": 0.21428549999999547,
            "durationTicks": 192,
            "midi": 62,
            "name": "D4",
            "ticks": 42432,
            "time": 47.35709550000001,
            "velocity": 0.4566929133858268
          },
          {
            "duration": 0.21428550000000257,
            "durationTicks": 192,
            "midi": 62,
            "name": "D4",
            "ticks": 42624,
            "time": 47.571381,
            "velocity": 0.4566929133858268
          },
          {
            "duration": 0.21428550000000257,
            "durationTicks": 192,
            "midi": 66,
            "name": "F#4",
            "ticks": 42624,
            "time": 47.571381,
            "velocity": 0.4566929133858268
          },
          {
            "duration": 0.21428550000000257,
            "durationTicks": 192,
            "midi": 60,
            "name": "C4",
            "ticks": 42624,
            "time": 47.571381,
            "velocity": 0.4566929133858268
          },
          {
            "duration": 0.21428550000000257,
            "durationTicks": 192,
            "midi": 60,
            "name": "C4",
            "ticks": 42816,
            "time": 47.785666500000005,
            "velocity": 0.4566929133858268
          },
          {
            "duration": 0.21428550000000257,
            "durationTicks": 192,
            "midi": 64,
            "name": "E4",
            "ticks": 42816,
            "time": 47.785666500000005,
            "velocity": 0.4566929133858268
          },
          {
            "duration": 0.21428550000000257,
            "durationTicks": 192,
            "midi": 66,
            "name": "F#4",
            "ticks": 42816,
            "time": 47.785666500000005,
            "velocity": 0.4566929133858268
          },
          {
            "duration": 0.42857099999999804,
            "durationTicks": 384,
            "midi": 59,
            "name": "B3",
            "ticks": 43008,
            "time": 47.99995200000001,
            "velocity": 0.4566929133858268
          },
          {
            "duration": 0.42857099999999804,
            "durationTicks": 384,
            "midi": 64,
            "name": "E4",
            "ticks": 43008,
            "time": 47.99995200000001,
            "velocity": 0.4566929133858268
          },
          {
            "duration": 0.42857099999999804,
            "durationTicks": 384,
            "midi": 66,
            "name": "F#4",
            "ticks": 43008,
            "time": 47.99995200000001,
            "velocity": 0.4566929133858268
          },
          {
            "duration": 0.32142824999999675,
            "durationTicks": 288,
            "midi": 66,
            "name": "F#4",
            "ticks": 43392,
            "time": 48.428523000000006,
            "velocity": 0.4566929133858268
          },
          {
            "duration": 0.32142824999999675,
            "durationTicks": 288,
            "midi": 64,
            "name": "E4",
            "ticks": 43392,
            "time": 48.428523000000006,
            "velocity": 0.4566929133858268
          },
          {
            "duration": 0.32142824999999675,
            "durationTicks": 288,
            "midi": 59,
            "name": "B3",
            "ticks": 43392,
            "time": 48.428523000000006,
            "velocity": 0.4566929133858268
          },
          {
            "duration": 0.21428550000000257,
            "durationTicks": 192,
            "midi": 64,
            "name": "E4",
            "ticks": 43680,
            "time": 48.74995125,
            "velocity": 0.4566929133858268
          },
          {
            "duration": 0.21428550000000257,
            "durationTicks": 192,
            "midi": 59,
            "name": "B3",
            "ticks": 43680,
            "time": 48.74995125,
            "velocity": 0.4566929133858268
          },
          {
            "duration": 0.21428550000000257,
            "durationTicks": 192,
            "midi": 66,
            "name": "F#4",
            "ticks": 43680,
            "time": 48.74995125,
            "velocity": 0.4566929133858268
          },
          {
            "duration": 0.10714275000000129,
            "durationTicks": 96,
            "midi": 66,
            "name": "F#4",
            "ticks": 43872,
            "time": 48.964236750000005,
            "velocity": 0.4566929133858268
          },
          {
            "duration": 0.10714275000000129,
            "durationTicks": 96,
            "midi": 64,
            "name": "E4",
            "ticks": 43872,
            "time": 48.964236750000005,
            "velocity": 0.4566929133858268
          },
          {
            "duration": 0.10714275000000129,
            "durationTicks": 96,
            "midi": 59,
            "name": "B3",
            "ticks": 43872,
            "time": 48.964236750000005,
            "velocity": 0.4566929133858268
          },
          {
            "duration": 0.21428549999999547,
            "durationTicks": 192,
            "midi": 64,
            "name": "E4",
            "ticks": 43968,
            "time": 49.071379500000006,
            "velocity": 0.4566929133858268
          },
          {
            "duration": 0.21428549999999547,
            "durationTicks": 192,
            "midi": 66,
            "name": "F#4",
            "ticks": 43968,
            "time": 49.071379500000006,
            "velocity": 0.4566929133858268
          },
          {
            "duration": 0.21428549999999547,
            "durationTicks": 192,
            "midi": 59,
            "name": "B3",
            "ticks": 43968,
            "time": 49.071379500000006,
            "velocity": 0.4566929133858268
          },
          {
            "duration": 0.21428550000000257,
            "durationTicks": 192,
            "midi": 64,
            "name": "E4",
            "ticks": 44160,
            "time": 49.285665,
            "velocity": 0.4566929133858268
          },
          {
            "duration": 0.21428550000000257,
            "durationTicks": 192,
            "midi": 67,
            "name": "G4",
            "ticks": 44160,
            "time": 49.285665,
            "velocity": 0.4566929133858268
          },
          {
            "duration": 0.21428550000000257,
            "durationTicks": 192,
            "midi": 59,
            "name": "B3",
            "ticks": 44160,
            "time": 49.285665,
            "velocity": 0.4566929133858268
          },
          {
            "duration": 0.21428550000000257,
            "durationTicks": 192,
            "midi": 66,
            "name": "F#4",
            "ticks": 44352,
            "time": 49.499950500000004,
            "velocity": 0.4566929133858268
          },
          {
            "duration": 0.21428550000000257,
            "durationTicks": 192,
            "midi": 62,
            "name": "D4",
            "ticks": 44352,
            "time": 49.499950500000004,
            "velocity": 0.4566929133858268
          },
          {
            "duration": 0.21428550000000257,
            "durationTicks": 192,
            "midi": 59,
            "name": "B3",
            "ticks": 44352,
            "time": 49.499950500000004,
            "velocity": 0.4566929133858268
          },
          {
            "duration": 0.42857099999999804,
            "durationTicks": 384,
            "midi": 62,
            "name": "D4",
            "ticks": 44544,
            "time": 49.71423600000001,
            "velocity": 0.4566929133858268
          },
          {
            "duration": 0.42857099999999804,
            "durationTicks": 384,
            "midi": 66,
            "name": "F#4",
            "ticks": 44544,
            "time": 49.71423600000001,
            "velocity": 0.4566929133858268
          },
          {
            "duration": 0.42857099999999804,
            "durationTicks": 384,
            "midi": 59,
            "name": "B3",
            "ticks": 44544,
            "time": 49.71423600000001,
            "velocity": 0.4566929133858268
          },
          {
            "duration": 0.32142824999999675,
            "durationTicks": 288,
            "midi": 59,
            "name": "B3",
            "ticks": 44928,
            "time": 50.142807000000005,
            "velocity": 0.4566929133858268
          },
          {
            "duration": 0.32142824999999675,
            "durationTicks": 288,
            "midi": 66,
            "name": "F#4",
            "ticks": 44928,
            "time": 50.142807000000005,
            "velocity": 0.4566929133858268
          },
          {
            "duration": 0.32142824999999675,
            "durationTicks": 288,
            "midi": 62,
            "name": "D4",
            "ticks": 44928,
            "time": 50.142807000000005,
            "velocity": 0.4566929133858268
          },
          {
            "duration": 0.21428550000000257,
            "durationTicks": 192,
            "midi": 62,
            "name": "D4",
            "ticks": 45216,
            "time": 50.46423525,
            "velocity": 0.4566929133858268
          },
          {
            "duration": 0.21428550000000257,
            "durationTicks": 192,
            "midi": 66,
            "name": "F#4",
            "ticks": 45216,
            "time": 50.46423525,
            "velocity": 0.4566929133858268
          },
          {
            "duration": 0.21428550000000257,
            "durationTicks": 192,
            "midi": 59,
            "name": "B3",
            "ticks": 45216,
            "time": 50.46423525,
            "velocity": 0.4566929133858268
          },
          {
            "duration": 0.10714275000000129,
            "durationTicks": 96,
            "midi": 62,
            "name": "D4",
            "ticks": 45408,
            "time": 50.678520750000004,
            "velocity": 0.4566929133858268
          },
          {
            "duration": 0.10714275000000129,
            "durationTicks": 96,
            "midi": 59,
            "name": "B3",
            "ticks": 45408,
            "time": 50.678520750000004,
            "velocity": 0.4566929133858268
          },
          {
            "duration": 0.10714275000000129,
            "durationTicks": 96,
            "midi": 66,
            "name": "F#4",
            "ticks": 45408,
            "time": 50.678520750000004,
            "velocity": 0.4566929133858268
          },
          {
            "duration": 0.21428549999999547,
            "durationTicks": 192,
            "midi": 66,
            "name": "F#4",
            "ticks": 45504,
            "time": 50.785663500000005,
            "velocity": 0.4566929133858268
          },
          {
            "duration": 0.21428549999999547,
            "durationTicks": 192,
            "midi": 62,
            "name": "D4",
            "ticks": 45504,
            "time": 50.785663500000005,
            "velocity": 0.4566929133858268
          },
          {
            "duration": 0.21428549999999547,
            "durationTicks": 192,
            "midi": 59,
            "name": "B3",
            "ticks": 45504,
            "time": 50.785663500000005,
            "velocity": 0.4566929133858268
          },
          {
            "duration": 0.21428550000000257,
            "durationTicks": 192,
            "midi": 59,
            "name": "B3",
            "ticks": 45696,
            "time": 50.999949,
            "velocity": 0.4566929133858268
          },
          {
            "duration": 0.21428550000000257,
            "durationTicks": 192,
            "midi": 64,
            "name": "E4",
            "ticks": 45696,
            "time": 50.999949,
            "velocity": 0.4566929133858268
          },
          {
            "duration": 0.21428550000000257,
            "durationTicks": 192,
            "midi": 67,
            "name": "G4",
            "ticks": 45696,
            "time": 50.999949,
            "velocity": 0.4566929133858268
          },
          {
            "duration": 0.10714275000000129,
            "durationTicks": 96,
            "midi": 67,
            "name": "G4",
            "ticks": 45888,
            "time": 51.2142345,
            "velocity": 0.4566929133858268
          },
          {
            "duration": 0.10714275000000129,
            "durationTicks": 96,
            "midi": 62,
            "name": "D4",
            "ticks": 45888,
            "time": 51.2142345,
            "velocity": 0.4566929133858268
          },
          {
            "duration": 0.10714275000000129,
            "durationTicks": 96,
            "midi": 59,
            "name": "B3",
            "ticks": 45888,
            "time": 51.2142345,
            "velocity": 0.4566929133858268
          },
          {
            "duration": 0.10714275000000129,
            "durationTicks": 96,
            "midi": 59,
            "name": "B3",
            "ticks": 45984,
            "time": 51.321377250000005,
            "velocity": 0.4566929133858268
          },
          {
            "duration": 0.10714275000000129,
            "durationTicks": 96,
            "midi": 62,
            "name": "D4",
            "ticks": 45984,
            "time": 51.321377250000005,
            "velocity": 0.4566929133858268
          },
          {
            "duration": 0.10714275000000129,
            "durationTicks": 96,
            "midi": 66,
            "name": "F#4",
            "ticks": 45984,
            "time": 51.321377250000005,
            "velocity": 0.4566929133858268
          },
          {
            "duration": 0.42857099999999804,
            "durationTicks": 384,
            "midi": 64,
            "name": "E4",
            "ticks": 46080,
            "time": 51.428520000000006,
            "velocity": 0.4566929133858268
          },
          {
            "duration": 0.42857099999999804,
            "durationTicks": 384,
            "midi": 66,
            "name": "F#4",
            "ticks": 46080,
            "time": 51.428520000000006,
            "velocity": 0.4566929133858268
          },
          {
            "duration": 0.42857099999999804,
            "durationTicks": 384,
            "midi": 59,
            "name": "B3",
            "ticks": 46080,
            "time": 51.428520000000006,
            "velocity": 0.4566929133858268
          },
          {
            "duration": 0.32142824999999675,
            "durationTicks": 288,
            "midi": 66,
            "name": "F#4",
            "ticks": 46464,
            "time": 51.857091000000004,
            "velocity": 0.4566929133858268
          },
          {
            "duration": 0.32142824999999675,
            "durationTicks": 288,
            "midi": 64,
            "name": "E4",
            "ticks": 46464,
            "time": 51.857091000000004,
            "velocity": 0.4566929133858268
          },
          {
            "duration": 0.32142824999999675,
            "durationTicks": 288,
            "midi": 59,
            "name": "B3",
            "ticks": 46464,
            "time": 51.857091000000004,
            "velocity": 0.4566929133858268
          },
          {
            "duration": 0.21428550000000257,
            "durationTicks": 192,
            "midi": 64,
            "name": "E4",
            "ticks": 46752,
            "time": 52.17851925,
            "velocity": 0.4566929133858268
          },
          {
            "duration": 0.21428550000000257,
            "durationTicks": 192,
            "midi": 59,
            "name": "B3",
            "ticks": 46752,
            "time": 52.17851925,
            "velocity": 0.4566929133858268
          },
          {
            "duration": 0.21428550000000257,
            "durationTicks": 192,
            "midi": 66,
            "name": "F#4",
            "ticks": 46752,
            "time": 52.17851925,
            "velocity": 0.4566929133858268
          },
          {
            "duration": 0.10714275000000129,
            "durationTicks": 96,
            "midi": 64,
            "name": "E4",
            "ticks": 46944,
            "time": 52.39280475,
            "velocity": 0.4566929133858268
          },
          {
            "duration": 0.10714275000000129,
            "durationTicks": 96,
            "midi": 66,
            "name": "F#4",
            "ticks": 46944,
            "time": 52.39280475,
            "velocity": 0.4566929133858268
          },
          {
            "duration": 0.10714275000000129,
            "durationTicks": 96,
            "midi": 59,
            "name": "B3",
            "ticks": 46944,
            "time": 52.39280475,
            "velocity": 0.4566929133858268
          },
          {
            "duration": 0.21428550000000257,
            "durationTicks": 192,
            "midi": 66,
            "name": "F#4",
            "ticks": 47040,
            "time": 52.499947500000005,
            "velocity": 0.4566929133858268
          },
          {
            "duration": 0.21428550000000257,
            "durationTicks": 192,
            "midi": 59,
            "name": "B3",
            "ticks": 47040,
            "time": 52.499947500000005,
            "velocity": 0.4566929133858268
          },
          {
            "duration": 0.21428550000000257,
            "durationTicks": 192,
            "midi": 64,
            "name": "E4",
            "ticks": 47040,
            "time": 52.499947500000005,
            "velocity": 0.4566929133858268
          },
          {
            "duration": 0.21428549999999547,
            "durationTicks": 192,
            "midi": 62,
            "name": "D4",
            "ticks": 47232,
            "time": 52.71423300000001,
            "velocity": 0.4566929133858268
          },
          {
            "duration": 0.21428549999999547,
            "durationTicks": 192,
            "midi": 57,
            "name": "A3",
            "ticks": 47232,
            "time": 52.71423300000001,
            "velocity": 0.4566929133858268
          },
          {
            "duration": 0.21428549999999547,
            "durationTicks": 192,
            "midi": 64,
            "name": "E4",
            "ticks": 47232,
            "time": 52.71423300000001,
            "velocity": 0.4566929133858268
          },
          {
            "duration": 0.21428550000000257,
            "durationTicks": 192,
            "midi": 69,
            "name": "A4",
            "ticks": 47424,
            "time": 52.9285185,
            "velocity": 0.4566929133858268
          },
          {
            "duration": 0.21428550000000257,
            "durationTicks": 192,
            "midi": 57,
            "name": "A3",
            "ticks": 47424,
            "time": 52.9285185,
            "velocity": 0.4566929133858268
          },
          {
            "duration": 0.21428550000000257,
            "durationTicks": 192,
            "midi": 64,
            "name": "E4",
            "ticks": 47424,
            "time": 52.9285185,
            "velocity": 0.4566929133858268
          },
          {
            "duration": 0.42857099999999804,
            "durationTicks": 384,
            "midi": 62,
            "name": "D4",
            "ticks": 47616,
            "time": 53.142804000000005,
            "velocity": 0.4566929133858268
          },
          {
            "duration": 0.42857099999999804,
            "durationTicks": 384,
            "midi": 59,
            "name": "B3",
            "ticks": 47616,
            "time": 53.142804000000005,
            "velocity": 0.4566929133858268
          },
          {
            "duration": 0.42857099999999804,
            "durationTicks": 384,
            "midi": 69,
            "name": "A4",
            "ticks": 47616,
            "time": 53.142804000000005,
            "velocity": 0.4566929133858268
          },
          {
            "duration": 0.32142825000000386,
            "durationTicks": 288,
            "midi": 62,
            "name": "D4",
            "ticks": 48000,
            "time": 53.571375,
            "velocity": 0.4566929133858268
          },
          {
            "duration": 0.32142825000000386,
            "durationTicks": 288,
            "midi": 69,
            "name": "A4",
            "ticks": 48000,
            "time": 53.571375,
            "velocity": 0.4566929133858268
          },
          {
            "duration": 0.32142825000000386,
            "durationTicks": 288,
            "midi": 59,
            "name": "B3",
            "ticks": 48000,
            "time": 53.571375,
            "velocity": 0.4566929133858268
          },
          {
            "duration": 0.21428549999999547,
            "durationTicks": 192,
            "midi": 69,
            "name": "A4",
            "ticks": 48288,
            "time": 53.89280325000001,
            "velocity": 0.4566929133858268
          },
          {
            "duration": 0.21428549999999547,
            "durationTicks": 192,
            "midi": 59,
            "name": "B3",
            "ticks": 48288,
            "time": 53.89280325000001,
            "velocity": 0.4566929133858268
          },
          {
            "duration": 0.21428549999999547,
            "durationTicks": 192,
            "midi": 62,
            "name": "D4",
            "ticks": 48288,
            "time": 53.89280325000001,
            "velocity": 0.4566929133858268
          },
          {
            "duration": 0.10714275000000129,
            "durationTicks": 96,
            "midi": 62,
            "name": "D4",
            "ticks": 48480,
            "time": 54.10708875,
            "velocity": 0.4566929133858268
          },
          {
            "duration": 0.10714275000000129,
            "durationTicks": 96,
            "midi": 69,
            "name": "A4",
            "ticks": 48480,
            "time": 54.10708875,
            "velocity": 0.4566929133858268
          },
          {
            "duration": 0.10714275000000129,
            "durationTicks": 96,
            "midi": 59,
            "name": "B3",
            "ticks": 48480,
            "time": 54.10708875,
            "velocity": 0.4566929133858268
          },
          {
            "duration": 0.21428550000000257,
            "durationTicks": 192,
            "midi": 59,
            "name": "B3",
            "ticks": 48576,
            "time": 54.214231500000004,
            "velocity": 0.4566929133858268
          },
          {
            "duration": 0.21428550000000257,
            "durationTicks": 192,
            "midi": 69,
            "name": "A4",
            "ticks": 48576,
            "time": 54.214231500000004,
            "velocity": 0.4566929133858268
          },
          {
            "duration": 0.21428550000000257,
            "durationTicks": 192,
            "midi": 62,
            "name": "D4",
            "ticks": 48576,
            "time": 54.214231500000004,
            "velocity": 0.4566929133858268
          },
          {
            "duration": 0.21428549999999547,
            "durationTicks": 192,
            "midi": 60,
            "name": "C4",
            "ticks": 48768,
            "time": 54.42851700000001,
            "velocity": 0.4566929133858268
          },
          {
            "duration": 0.21428549999999547,
            "durationTicks": 192,
            "midi": 57,
            "name": "A3",
            "ticks": 48768,
            "time": 54.42851700000001,
            "velocity": 0.4566929133858268
          },
          {
            "duration": 0.21428549999999547,
            "durationTicks": 192,
            "midi": 67,
            "name": "G4",
            "ticks": 48768,
            "time": 54.42851700000001,
            "velocity": 0.4566929133858268
          },
          {
            "duration": 0.21428550000000257,
            "durationTicks": 192,
            "midi": 57,
            "name": "A3",
            "ticks": 48960,
            "time": 54.6428025,
            "velocity": 0.4566929133858268
          },
          {
            "duration": 0.21428550000000257,
            "durationTicks": 192,
            "midi": 62,
            "name": "D4",
            "ticks": 48960,
            "time": 54.6428025,
            "velocity": 0.4566929133858268
          },
          {
            "duration": 0.21428550000000257,
            "durationTicks": 192,
            "midi": 69,
            "name": "A4",
            "ticks": 48960,
            "time": 54.6428025,
            "velocity": 0.4566929133858268
          },
          {
            "duration": 0.42857099999999804,
            "durationTicks": 384,
            "midi": 64,
            "name": "E4",
            "ticks": 49152,
            "time": 54.857088000000005,
            "velocity": 0.4566929133858268
          },
          {
            "duration": 0.42857099999999804,
            "durationTicks": 384,
            "midi": 69,
            "name": "A4",
            "ticks": 49152,
            "time": 54.857088000000005,
            "velocity": 0.4566929133858268
          },
          {
            "duration": 0.42857099999999804,
            "durationTicks": 384,
            "midi": 74,
            "name": "D5",
            "ticks": 49152,
            "time": 54.857088000000005,
            "velocity": 0.4566929133858268
          },
          {
            "duration": 0.32142825000000386,
            "durationTicks": 288,
            "midi": 74,
            "name": "D5",
            "ticks": 49536,
            "time": 55.285659,
            "velocity": 0.4566929133858268
          },
          {
            "duration": 0.32142825000000386,
            "durationTicks": 288,
            "midi": 64,
            "name": "E4",
            "ticks": 49536,
            "time": 55.285659,
            "velocity": 0.4566929133858268
          },
          {
            "duration": 0.32142825000000386,
            "durationTicks": 288,
            "midi": 69,
            "name": "A4",
            "ticks": 49536,
            "time": 55.285659,
            "velocity": 0.4566929133858268
          },
          {
            "duration": 0.21428549999999547,
            "durationTicks": 192,
            "midi": 69,
            "name": "A4",
            "ticks": 49824,
            "time": 55.607087250000006,
            "velocity": 0.4566929133858268
          },
          {
            "duration": 0.21428549999999547,
            "durationTicks": 192,
            "midi": 74,
            "name": "D5",
            "ticks": 49824,
            "time": 55.607087250000006,
            "velocity": 0.4566929133858268
          },
          {
            "duration": 0.21428549999999547,
            "durationTicks": 192,
            "midi": 64,
            "name": "E4",
            "ticks": 49824,
            "time": 55.607087250000006,
            "velocity": 0.4566929133858268
          },
          {
            "duration": 0.10714275000000129,
            "durationTicks": 96,
            "midi": 69,
            "name": "A4",
            "ticks": 50016,
            "time": 55.82137275,
            "velocity": 0.4566929133858268
          },
          {
            "duration": 0.10714275000000129,
            "durationTicks": 96,
            "midi": 64,
            "name": "E4",
            "ticks": 50016,
            "time": 55.82137275,
            "velocity": 0.4566929133858268
          },
          {
            "duration": 0.10714275000000129,
            "durationTicks": 96,
            "midi": 74,
            "name": "D5",
            "ticks": 50016,
            "time": 55.82137275,
            "velocity": 0.4566929133858268
          },
          {
            "duration": 0.21428550000000257,
            "durationTicks": 192,
            "midi": 64,
            "name": "E4",
            "ticks": 50112,
            "time": 55.9285155,
            "velocity": 0.4566929133858268
          },
          {
            "duration": 0.21428550000000257,
            "durationTicks": 192,
            "midi": 74,
            "name": "D5",
            "ticks": 50112,
            "time": 55.9285155,
            "velocity": 0.4566929133858268
          },
          {
            "duration": 0.21428550000000257,
            "durationTicks": 192,
            "midi": 69,
            "name": "A4",
            "ticks": 50112,
            "time": 55.9285155,
            "velocity": 0.4566929133858268
          },
          {
            "duration": 0.21428549999999547,
            "durationTicks": 192,
            "midi": 72,
            "name": "C5",
            "ticks": 50304,
            "time": 56.142801000000006,
            "velocity": 0.4566929133858268
          },
          {
            "duration": 0.21428549999999547,
            "durationTicks": 192,
            "midi": 67,
            "name": "G4",
            "ticks": 50304,
            "time": 56.142801000000006,
            "velocity": 0.4566929133858268
          },
          {
            "duration": 0.21428549999999547,
            "durationTicks": 192,
            "midi": 62,
            "name": "D4",
            "ticks": 50304,
            "time": 56.142801000000006,
            "velocity": 0.4566929133858268
          },
          {
            "duration": 0.21428550000000257,
            "durationTicks": 192,
            "midi": 74,
            "name": "D5",
            "ticks": 50496,
            "time": 56.3570865,
            "velocity": 0.4566929133858268
          },
          {
            "duration": 0.21428550000000257,
            "durationTicks": 192,
            "midi": 62,
            "name": "D4",
            "ticks": 50496,
            "time": 56.3570865,
            "velocity": 0.4566929133858268
          },
          {
            "duration": 0.21428550000000257,
            "durationTicks": 192,
            "midi": 69,
            "name": "A4",
            "ticks": 50496,
            "time": 56.3570865,
            "velocity": 0.4566929133858268
          },
          {
            "duration": 0.42857099999999804,
            "durationTicks": 384,
            "midi": 62,
            "name": "D4",
            "ticks": 50688,
            "time": 56.571372000000004,
            "velocity": 0.4566929133858268
          },
          {
            "duration": 0.42857099999999804,
            "durationTicks": 384,
            "midi": 64,
            "name": "E4",
            "ticks": 50688,
            "time": 56.571372000000004,
            "velocity": 0.4566929133858268
          },
          {
            "duration": 0.42857099999999804,
            "durationTicks": 384,
            "midi": 67,
            "name": "G4",
            "ticks": 50688,
            "time": 56.571372000000004,
            "velocity": 0.4566929133858268
          },
          {
            "duration": 0.32142825000000386,
            "durationTicks": 288,
            "midi": 64,
            "name": "E4",
            "ticks": 51072,
            "time": 56.999943,
            "velocity": 0.4566929133858268
          },
          {
            "duration": 0.32142825000000386,
            "durationTicks": 288,
            "midi": 62,
            "name": "D4",
            "ticks": 51072,
            "time": 56.999943,
            "velocity": 0.4566929133858268
          },
          {
            "duration": 0.32142825000000386,
            "durationTicks": 288,
            "midi": 67,
            "name": "G4",
            "ticks": 51072,
            "time": 56.999943,
            "velocity": 0.4566929133858268
          },
          {
            "duration": 0.21428550000000257,
            "durationTicks": 192,
            "midi": 62,
            "name": "D4",
            "ticks": 51360,
            "time": 57.321371250000006,
            "velocity": 0.4566929133858268
          },
          {
            "duration": 0.21428550000000257,
            "durationTicks": 192,
            "midi": 67,
            "name": "G4",
            "ticks": 51360,
            "time": 57.321371250000006,
            "velocity": 0.4566929133858268
          },
          {
            "duration": 0.21428550000000257,
            "durationTicks": 192,
            "midi": 64,
            "name": "E4",
            "ticks": 51360,
            "time": 57.321371250000006,
            "velocity": 0.4566929133858268
          },
          {
            "duration": 0.10714274999999418,
            "durationTicks": 96,
            "midi": 67,
            "name": "G4",
            "ticks": 51552,
            "time": 57.53565675000001,
            "velocity": 0.4566929133858268
          },
          {
            "duration": 0.10714274999999418,
            "durationTicks": 96,
            "midi": 62,
            "name": "D4",
            "ticks": 51552,
            "time": 57.53565675000001,
            "velocity": 0.4566929133858268
          },
          {
            "duration": 0.10714274999999418,
            "durationTicks": 96,
            "midi": 64,
            "name": "E4",
            "ticks": 51552,
            "time": 57.53565675000001,
            "velocity": 0.4566929133858268
          },
          {
            "duration": 0.21428550000000257,
            "durationTicks": 192,
            "midi": 67,
            "name": "G4",
            "ticks": 51648,
            "time": 57.6427995,
            "velocity": 0.4566929133858268
          },
          {
            "duration": 0.21428550000000257,
            "durationTicks": 192,
            "midi": 64,
            "name": "E4",
            "ticks": 51648,
            "time": 57.6427995,
            "velocity": 0.4566929133858268
          },
          {
            "duration": 0.21428550000000257,
            "durationTicks": 192,
            "midi": 62,
            "name": "D4",
            "ticks": 51648,
            "time": 57.6427995,
            "velocity": 0.4566929133858268
          },
          {
            "duration": 0.21428550000000257,
            "durationTicks": 192,
            "midi": 66,
            "name": "F#4",
            "ticks": 51840,
            "time": 57.857085000000005,
            "velocity": 0.4566929133858268
          },
          {
            "duration": 0.21428550000000257,
            "durationTicks": 192,
            "midi": 62,
            "name": "D4",
            "ticks": 51840,
            "time": 57.857085000000005,
            "velocity": 0.4566929133858268
          },
          {
            "duration": 0.21428550000000257,
            "durationTicks": 192,
            "midi": 60,
            "name": "C4",
            "ticks": 51840,
            "time": 57.857085000000005,
            "velocity": 0.4566929133858268
          },
          {
            "duration": 0.21428549999999547,
            "durationTicks": 192,
            "midi": 64,
            "name": "E4",
            "ticks": 52032,
            "time": 58.07137050000001,
            "velocity": 0.4566929133858268
          },
          {
            "duration": 0.21428549999999547,
            "durationTicks": 192,
            "midi": 60,
            "name": "C4",
            "ticks": 52032,
            "time": 58.07137050000001,
            "velocity": 0.4566929133858268
          },
          {
            "duration": 0.21428549999999547,
            "durationTicks": 192,
            "midi": 66,
            "name": "F#4",
            "ticks": 52032,
            "time": 58.07137050000001,
            "velocity": 0.4566929133858268
          },
          {
            "duration": 0.42857100000000514,
            "durationTicks": 384,
            "midi": 64,
            "name": "E4",
            "ticks": 52224,
            "time": 58.285656,
            "velocity": 0.4566929133858268
          },
          {
            "duration": 0.42857100000000514,
            "durationTicks": 384,
            "midi": 66,
            "name": "F#4",
            "ticks": 52224,
            "time": 58.285656,
            "velocity": 0.4566929133858268
          },
          {
            "duration": 0.42857100000000514,
            "durationTicks": 384,
            "midi": 59,
            "name": "B3",
            "ticks": 52224,
            "time": 58.285656,
            "velocity": 0.4566929133858268
          },
          {
            "duration": 0.32142824999999675,
            "durationTicks": 288,
            "midi": 66,
            "name": "F#4",
            "ticks": 52608,
            "time": 58.71422700000001,
            "velocity": 0.4566929133858268
          },
          {
            "duration": 0.32142824999999675,
            "durationTicks": 288,
            "midi": 64,
            "name": "E4",
            "ticks": 52608,
            "time": 58.71422700000001,
            "velocity": 0.4566929133858268
          },
          {
            "duration": 0.32142824999999675,
            "durationTicks": 288,
            "midi": 59,
            "name": "B3",
            "ticks": 52608,
            "time": 58.71422700000001,
            "velocity": 0.4566929133858268
          },
          {
            "duration": 0.21428550000000257,
            "durationTicks": 192,
            "midi": 59,
            "name": "B3",
            "ticks": 52896,
            "time": 59.035655250000005,
            "velocity": 0.4566929133858268
          },
          {
            "duration": 0.21428550000000257,
            "durationTicks": 192,
            "midi": 64,
            "name": "E4",
            "ticks": 52896,
            "time": 59.035655250000005,
            "velocity": 0.4566929133858268
          },
          {
            "duration": 0.21428550000000257,
            "durationTicks": 192,
            "midi": 66,
            "name": "F#4",
            "ticks": 52896,
            "time": 59.035655250000005,
            "velocity": 0.4566929133858268
          },
          {
            "duration": 0.10714274999999418,
            "durationTicks": 96,
            "midi": 64,
            "name": "E4",
            "ticks": 53088,
            "time": 59.24994075000001,
            "velocity": 0.4566929133858268
          },
          {
            "duration": 0.10714274999999418,
            "durationTicks": 96,
            "midi": 66,
            "name": "F#4",
            "ticks": 53088,
            "time": 59.24994075000001,
            "velocity": 0.4566929133858268
          },
          {
            "duration": 0.10714274999999418,
            "durationTicks": 96,
            "midi": 59,
            "name": "B3",
            "ticks": 53088,
            "time": 59.24994075000001,
            "velocity": 0.4566929133858268
          },
          {
            "duration": 0.21428550000000257,
            "durationTicks": 192,
            "midi": 66,
            "name": "F#4",
            "ticks": 53184,
            "time": 59.3570835,
            "velocity": 0.4566929133858268
          },
          {
            "duration": 0.21428550000000257,
            "durationTicks": 192,
            "midi": 64,
            "name": "E4",
            "ticks": 53184,
            "time": 59.3570835,
            "velocity": 0.4566929133858268
          },
          {
            "duration": 0.21428550000000257,
            "durationTicks": 192,
            "midi": 59,
            "name": "B3",
            "ticks": 53184,
            "time": 59.3570835,
            "velocity": 0.4566929133858268
          },
          {
            "duration": 0.21428550000000257,
            "durationTicks": 192,
            "midi": 64,
            "name": "E4",
            "ticks": 53376,
            "time": 59.571369000000004,
            "velocity": 0.4566929133858268
          },
          {
            "duration": 0.21428550000000257,
            "durationTicks": 192,
            "midi": 59,
            "name": "B3",
            "ticks": 53376,
            "time": 59.571369000000004,
            "velocity": 0.4566929133858268
          },
          {
            "duration": 0.21428550000000257,
            "durationTicks": 192,
            "midi": 67,
            "name": "G4",
            "ticks": 53376,
            "time": 59.571369000000004,
            "velocity": 0.4566929133858268
          },
          {
            "duration": 0.21428549999999547,
            "durationTicks": 192,
            "midi": 59,
            "name": "B3",
            "ticks": 53568,
            "time": 59.78565450000001,
            "velocity": 0.4566929133858268
          },
          {
            "duration": 0.21428549999999547,
            "durationTicks": 192,
            "midi": 62,
            "name": "D4",
            "ticks": 53568,
            "time": 59.78565450000001,
            "velocity": 0.4566929133858268
          },
          {
            "duration": 0.21428549999999547,
            "durationTicks": 192,
            "midi": 66,
            "name": "F#4",
            "ticks": 53568,
            "time": 59.78565450000001,
            "velocity": 0.4566929133858268
          },
          {
            "duration": 0.42857100000000514,
            "durationTicks": 384,
            "midi": 66,
            "name": "F#4",
            "ticks": 53760,
            "time": 59.99994,
            "velocity": 0.4566929133858268
          },
          {
            "duration": 0.42857100000000514,
            "durationTicks": 384,
            "midi": 62,
            "name": "D4",
            "ticks": 53760,
            "time": 59.99994,
            "velocity": 0.4566929133858268
          },
          {
            "duration": 0.42857100000000514,
            "durationTicks": 384,
            "midi": 59,
            "name": "B3",
            "ticks": 53760,
            "time": 59.99994,
            "velocity": 0.4566929133858268
          },
          {
            "duration": 0.32142824999999675,
            "durationTicks": 288,
            "midi": 59,
            "name": "B3",
            "ticks": 54144,
            "time": 60.42851100000001,
            "velocity": 0.4566929133858268
          },
          {
            "duration": 0.32142824999999675,
            "durationTicks": 288,
            "midi": 66,
            "name": "F#4",
            "ticks": 54144,
            "time": 60.42851100000001,
            "velocity": 0.4566929133858268
          },
          {
            "duration": 0.32142824999999675,
            "durationTicks": 288,
            "midi": 62,
            "name": "D4",
            "ticks": 54144,
            "time": 60.42851100000001,
            "velocity": 0.4566929133858268
          },
          {
            "duration": 0.21428550000000257,
            "durationTicks": 192,
            "midi": 59,
            "name": "B3",
            "ticks": 54432,
            "time": 60.749939250000004,
            "velocity": 0.4566929133858268
          },
          {
            "duration": 0.21428550000000257,
            "durationTicks": 192,
            "midi": 62,
            "name": "D4",
            "ticks": 54432,
            "time": 60.749939250000004,
            "velocity": 0.4566929133858268
          },
          {
            "duration": 0.21428550000000257,
            "durationTicks": 192,
            "midi": 66,
            "name": "F#4",
            "ticks": 54432,
            "time": 60.749939250000004,
            "velocity": 0.4566929133858268
          },
          {
            "duration": 0.10714275000000129,
            "durationTicks": 96,
            "midi": 59,
            "name": "B3",
            "ticks": 54624,
            "time": 60.96422475000001,
            "velocity": 0.4566929133858268
          },
          {
            "duration": 0.10714275000000129,
            "durationTicks": 96,
            "midi": 66,
            "name": "F#4",
            "ticks": 54624,
            "time": 60.96422475000001,
            "velocity": 0.4566929133858268
          },
          {
            "duration": 0.10714275000000129,
            "durationTicks": 96,
            "midi": 62,
            "name": "D4",
            "ticks": 54624,
            "time": 60.96422475000001,
            "velocity": 0.4566929133858268
          },
          {
            "duration": 0.21428549999999547,
            "durationTicks": 192,
            "midi": 66,
            "name": "F#4",
            "ticks": 54720,
            "time": 61.07136750000001,
            "velocity": 0.4566929133858268
          },
          {
            "duration": 0.21428549999999547,
            "durationTicks": 192,
            "midi": 62,
            "name": "D4",
            "ticks": 54720,
            "time": 61.07136750000001,
            "velocity": 0.4566929133858268
          },
          {
            "duration": 0.21428549999999547,
            "durationTicks": 192,
            "midi": 59,
            "name": "B3",
            "ticks": 54720,
            "time": 61.07136750000001,
            "velocity": 0.4566929133858268
          },
          {
            "duration": 0.21428550000000257,
            "durationTicks": 192,
            "midi": 59,
            "name": "B3",
            "ticks": 54912,
            "time": 61.285653,
            "velocity": 0.4566929133858268
          },
          {
            "duration": 0.21428550000000257,
            "durationTicks": 192,
            "midi": 67,
            "name": "G4",
            "ticks": 54912,
            "time": 61.285653,
            "velocity": 0.4566929133858268
          },
          {
            "duration": 0.21428550000000257,
            "durationTicks": 192,
            "midi": 64,
            "name": "E4",
            "ticks": 54912,
            "time": 61.285653,
            "velocity": 0.4566929133858268
          },
          {
            "duration": 0.10714275000000129,
            "durationTicks": 96,
            "midi": 67,
            "name": "G4",
            "ticks": 55104,
            "time": 61.499938500000006,
            "velocity": 0.4566929133858268
          },
          {
            "duration": 0.10714275000000129,
            "durationTicks": 96,
            "midi": 62,
            "name": "D4",
            "ticks": 55104,
            "time": 61.499938500000006,
            "velocity": 0.4566929133858268
          },
          {
            "duration": 0.10714275000000129,
            "durationTicks": 96,
            "midi": 59,
            "name": "B3",
            "ticks": 55104,
            "time": 61.499938500000006,
            "velocity": 0.4566929133858268
          },
          {
            "duration": 0.10714274999999418,
            "durationTicks": 96,
            "midi": 66,
            "name": "F#4",
            "ticks": 55200,
            "time": 61.60708125000001,
            "velocity": 0.4566929133858268
          },
          {
            "duration": 0.10714274999999418,
            "durationTicks": 96,
            "midi": 62,
            "name": "D4",
            "ticks": 55200,
            "time": 61.60708125000001,
            "velocity": 0.4566929133858268
          },
          {
            "duration": 0.10714274999999418,
            "durationTicks": 96,
            "midi": 59,
            "name": "B3",
            "ticks": 55200,
            "time": 61.60708125000001,
            "velocity": 0.4566929133858268
          },
          {
            "duration": 0.42857100000000514,
            "durationTicks": 384,
            "midi": 68,
            "name": "G#4",
            "ticks": 55296,
            "time": 61.714224,
            "velocity": 0.4566929133858268
          },
          {
            "duration": 0.42857100000000514,
            "durationTicks": 384,
            "midi": 66,
            "name": "F#4",
            "ticks": 55296,
            "time": 61.714224,
            "velocity": 0.4566929133858268
          },
          {
            "duration": 0.42857100000000514,
            "durationTicks": 384,
            "midi": 61,
            "name": "C#4",
            "ticks": 55296,
            "time": 61.714224,
            "velocity": 0.4566929133858268
          },
          {
            "duration": 0.32142824999999675,
            "durationTicks": 288,
            "midi": 68,
            "name": "G#4",
            "ticks": 55680,
            "time": 62.14279500000001,
            "velocity": 0.4566929133858268
          },
          {
            "duration": 0.32142824999999675,
            "durationTicks": 288,
            "midi": 66,
            "name": "F#4",
            "ticks": 55680,
            "time": 62.14279500000001,
            "velocity": 0.4566929133858268
          },
          {
            "duration": 0.32142824999999675,
            "durationTicks": 288,
            "midi": 61,
            "name": "C#4",
            "ticks": 55680,
            "time": 62.14279500000001,
            "velocity": 0.4566929133858268
          },
          {
            "duration": 0.21428550000000257,
            "durationTicks": 192,
            "midi": 68,
            "name": "G#4",
            "ticks": 55968,
            "time": 62.46422325,
            "velocity": 0.4566929133858268
          },
          {
            "duration": 0.21428550000000257,
            "durationTicks": 192,
            "midi": 61,
            "name": "C#4",
            "ticks": 55968,
            "time": 62.46422325,
            "velocity": 0.4566929133858268
          },
          {
            "duration": 0.21428550000000257,
            "durationTicks": 192,
            "midi": 66,
            "name": "F#4",
            "ticks": 55968,
            "time": 62.46422325,
            "velocity": 0.4566929133858268
          },
          {
            "duration": 0.10714275000000129,
            "durationTicks": 96,
            "midi": 68,
            "name": "G#4",
            "ticks": 56160,
            "time": 62.678508750000006,
            "velocity": 0.4566929133858268
          },
          {
            "duration": 0.10714275000000129,
            "durationTicks": 96,
            "midi": 66,
            "name": "F#4",
            "ticks": 56160,
            "time": 62.678508750000006,
            "velocity": 0.4566929133858268
          },
          {
            "duration": 0.10714275000000129,
            "durationTicks": 96,
            "midi": 61,
            "name": "C#4",
            "ticks": 56160,
            "time": 62.678508750000006,
            "velocity": 0.4566929133858268
          },
          {
            "duration": 0.21428549999999547,
            "durationTicks": 192,
            "midi": 66,
            "name": "F#4",
            "ticks": 56256,
            "time": 62.78565150000001,
            "velocity": 0.4566929133858268
          },
          {
            "duration": 0.21428549999999547,
            "durationTicks": 192,
            "midi": 61,
            "name": "C#4",
            "ticks": 56256,
            "time": 62.78565150000001,
            "velocity": 0.4566929133858268
          },
          {
            "duration": 0.21428549999999547,
            "durationTicks": 192,
            "midi": 68,
            "name": "G#4",
            "ticks": 56256,
            "time": 62.78565150000001,
            "velocity": 0.4566929133858268
          },
          {
            "duration": 0.21428550000000257,
            "durationTicks": 192,
            "midi": 66,
            "name": "F#4",
            "ticks": 56448,
            "time": 62.999937,
            "velocity": 0.4566929133858268
          },
          {
            "duration": 0.21428550000000257,
            "durationTicks": 192,
            "midi": 64,
            "name": "E4",
            "ticks": 56448,
            "time": 62.999937,
            "velocity": 0.4566929133858268
          },
          {
            "duration": 0.21428550000000257,
            "durationTicks": 192,
            "midi": 59,
            "name": "B3",
            "ticks": 56448,
            "time": 62.999937,
            "velocity": 0.4566929133858268
          },
          {
            "duration": 0.21428550000000257,
            "durationTicks": 192,
            "midi": 71,
            "name": "B4",
            "ticks": 56640,
            "time": 63.214222500000005,
            "velocity": 0.4566929133858268
          },
          {
            "duration": 0.21428550000000257,
            "durationTicks": 192,
            "midi": 66,
            "name": "F#4",
            "ticks": 56640,
            "time": 63.214222500000005,
            "velocity": 0.4566929133858268
          },
          {
            "duration": 0.21428550000000257,
            "durationTicks": 192,
            "midi": 59,
            "name": "B3",
            "ticks": 56640,
            "time": 63.214222500000005,
            "velocity": 0.4566929133858268
          },
          {
            "duration": 0.42857099999999804,
            "durationTicks": 384,
            "midi": 71,
            "name": "B4",
            "ticks": 56832,
            "time": 63.42850800000001,
            "velocity": 0.4566929133858268
          },
          {
            "duration": 0.42857099999999804,
            "durationTicks": 384,
            "midi": 64,
            "name": "E4",
            "ticks": 56832,
            "time": 63.42850800000001,
            "velocity": 0.4566929133858268
          },
          {
            "duration": 0.42857099999999804,
            "durationTicks": 384,
            "midi": 61,
            "name": "C#4",
            "ticks": 56832,
            "time": 63.42850800000001,
            "velocity": 0.4566929133858268
          },
          {
            "duration": 0.32142825000000386,
            "durationTicks": 288,
            "midi": 71,
            "name": "B4",
            "ticks": 57216,
            "time": 63.857079000000006,
            "velocity": 0.4566929133858268
          },
          {
            "duration": 0.32142825000000386,
            "durationTicks": 288,
            "midi": 64,
            "name": "E4",
            "ticks": 57216,
            "time": 63.857079000000006,
            "velocity": 0.4566929133858268
          },
          {
            "duration": 0.32142825000000386,
            "durationTicks": 288,
            "midi": 61,
            "name": "C#4",
            "ticks": 57216,
            "time": 63.857079000000006,
            "velocity": 0.4566929133858268
          },
          {
            "duration": 0.21428550000000257,
            "durationTicks": 192,
            "midi": 71,
            "name": "B4",
            "ticks": 57504,
            "time": 64.17850725000001,
            "velocity": 0.4566929133858268
          },
          {
            "duration": 0.21428550000000257,
            "durationTicks": 192,
            "midi": 64,
            "name": "E4",
            "ticks": 57504,
            "time": 64.17850725000001,
            "velocity": 0.4566929133858268
          },
          {
            "duration": 0.21428550000000257,
            "durationTicks": 192,
            "midi": 61,
            "name": "C#4",
            "ticks": 57504,
            "time": 64.17850725000001,
            "velocity": 0.4566929133858268
          },
          {
            "duration": 0.10714274999999418,
            "durationTicks": 96,
            "midi": 64,
            "name": "E4",
            "ticks": 57696,
            "time": 64.39279275000001,
            "velocity": 0.4566929133858268
          },
          {
            "duration": 0.10714274999999418,
            "durationTicks": 96,
            "midi": 61,
            "name": "C#4",
            "ticks": 57696,
            "time": 64.39279275000001,
            "velocity": 0.4566929133858268
          },
          {
            "duration": 0.10714274999999418,
            "durationTicks": 96,
            "midi": 71,
            "name": "B4",
            "ticks": 57696,
            "time": 64.39279275000001,
            "velocity": 0.4566929133858268
          },
          {
            "duration": 0.21428550000000257,
            "durationTicks": 192,
            "midi": 64,
            "name": "E4",
            "ticks": 57792,
            "time": 64.4999355,
            "velocity": 0.4566929133858268
          },
          {
            "duration": 0.21428550000000257,
            "durationTicks": 192,
            "midi": 71,
            "name": "B4",
            "ticks": 57792,
            "time": 64.4999355,
            "velocity": 0.4566929133858268
          },
          {
            "duration": 0.21428550000000257,
            "durationTicks": 192,
            "midi": 61,
            "name": "C#4",
            "ticks": 57792,
            "time": 64.4999355,
            "velocity": 0.4566929133858268
          },
          {
            "duration": 0.21428550000000257,
            "durationTicks": 192,
            "midi": 69,
            "name": "A4",
            "ticks": 57984,
            "time": 64.71422100000001,
            "velocity": 0.4566929133858268
          },
          {
            "duration": 0.21428550000000257,
            "durationTicks": 192,
            "midi": 62,
            "name": "D4",
            "ticks": 57984,
            "time": 64.71422100000001,
            "velocity": 0.4566929133858268
          },
          {
            "duration": 0.21428550000000257,
            "durationTicks": 192,
            "midi": 59,
            "name": "B3",
            "ticks": 57984,
            "time": 64.71422100000001,
            "velocity": 0.4566929133858268
          },
          {
            "duration": 0.21428549999998836,
            "durationTicks": 192,
            "midi": 71,
            "name": "B4",
            "ticks": 58176,
            "time": 64.92850650000001,
            "velocity": 0.4566929133858268
          },
          {
            "duration": 0.21428549999998836,
            "durationTicks": 192,
            "midi": 59,
            "name": "B3",
            "ticks": 58176,
            "time": 64.92850650000001,
            "velocity": 0.4566929133858268
          },
          {
            "duration": 0.21428549999998836,
            "durationTicks": 192,
            "midi": 64,
            "name": "E4",
            "ticks": 58176,
            "time": 64.92850650000001,
            "velocity": 0.4566929133858268
          },
          {
            "duration": 0.42857100000000514,
            "durationTicks": 384,
            "midi": 71,
            "name": "B4",
            "ticks": 58368,
            "time": 65.142792,
            "velocity": 0.4566929133858268
          },
          {
            "duration": 0.42857100000000514,
            "durationTicks": 384,
            "midi": 66,
            "name": "F#4",
            "ticks": 58368,
            "time": 65.142792,
            "velocity": 0.4566929133858268
          },
          {
            "duration": 0.42857100000000514,
            "durationTicks": 384,
            "midi": 76,
            "name": "E5",
            "ticks": 58368,
            "time": 65.142792,
            "velocity": 0.4566929133858268
          },
          {
            "duration": 0.32142824999999675,
            "durationTicks": 288,
            "midi": 76,
            "name": "E5",
            "ticks": 58752,
            "time": 65.571363,
            "velocity": 0.4566929133858268
          },
          {
            "duration": 0.32142824999999675,
            "durationTicks": 288,
            "midi": 71,
            "name": "B4",
            "ticks": 58752,
            "time": 65.571363,
            "velocity": 0.4566929133858268
          },
          {
            "duration": 0.32142824999999675,
            "durationTicks": 288,
            "midi": 66,
            "name": "F#4",
            "ticks": 58752,
            "time": 65.571363,
            "velocity": 0.4566929133858268
          },
          {
            "duration": 0.21428550000000257,
            "durationTicks": 192,
            "midi": 71,
            "name": "B4",
            "ticks": 59040,
            "time": 65.89279125,
            "velocity": 0.4566929133858268
          },
          {
            "duration": 0.21428550000000257,
            "durationTicks": 192,
            "midi": 66,
            "name": "F#4",
            "ticks": 59040,
            "time": 65.89279125,
            "velocity": 0.4566929133858268
          },
          {
            "duration": 0.21428550000000257,
            "durationTicks": 192,
            "midi": 76,
            "name": "E5",
            "ticks": 59040,
            "time": 65.89279125,
            "velocity": 0.4566929133858268
          },
          {
            "duration": 0.10714274999999418,
            "durationTicks": 96,
            "midi": 66,
            "name": "F#4",
            "ticks": 59232,
            "time": 66.10707675,
            "velocity": 0.4566929133858268
          },
          {
            "duration": 0.10714274999999418,
            "durationTicks": 96,
            "midi": 76,
            "name": "E5",
            "ticks": 59232,
            "time": 66.10707675,
            "velocity": 0.4566929133858268
          },
          {
            "duration": 0.10714274999999418,
            "durationTicks": 96,
            "midi": 71,
            "name": "B4",
            "ticks": 59232,
            "time": 66.10707675,
            "velocity": 0.4566929133858268
          },
          {
            "duration": 0.21428550000000257,
            "durationTicks": 192,
            "midi": 71,
            "name": "B4",
            "ticks": 59328,
            "time": 66.2142195,
            "velocity": 0.4566929133858268
          },
          {
            "duration": 0.21428550000000257,
            "durationTicks": 192,
            "midi": 66,
            "name": "F#4",
            "ticks": 59328,
            "time": 66.2142195,
            "velocity": 0.4566929133858268
          },
          {
            "duration": 0.21428550000000257,
            "durationTicks": 192,
            "midi": 76,
            "name": "E5",
            "ticks": 59328,
            "time": 66.2142195,
            "velocity": 0.4566929133858268
          },
          {
            "duration": 0.21428550000000257,
            "durationTicks": 192,
            "midi": 74,
            "name": "D5",
            "ticks": 59520,
            "time": 66.428505,
            "velocity": 0.4566929133858268
          },
          {
            "duration": 0.21428550000000257,
            "durationTicks": 192,
            "midi": 64,
            "name": "E4",
            "ticks": 59520,
            "time": 66.428505,
            "velocity": 0.4566929133858268
          },
          {
            "duration": 0.21428550000000257,
            "durationTicks": 192,
            "midi": 69,
            "name": "A4",
            "ticks": 59520,
            "time": 66.428505,
            "velocity": 0.4566929133858268
          },
          {
            "duration": 0.21428550000000257,
            "durationTicks": 192,
            "midi": 76,
            "name": "E5",
            "ticks": 59712,
            "time": 66.6427905,
            "velocity": 0.4566929133858268
          },
          {
            "duration": 0.21428550000000257,
            "durationTicks": 192,
            "midi": 71,
            "name": "B4",
            "ticks": 59712,
            "time": 66.6427905,
            "velocity": 0.4566929133858268
          },
          {
            "duration": 0.21428550000000257,
            "durationTicks": 192,
            "midi": 64,
            "name": "E4",
            "ticks": 59712,
            "time": 66.6427905,
            "velocity": 0.4566929133858268
          },
          {
            "duration": 0.42857100000000514,
            "durationTicks": 384,
            "midi": 69,
            "name": "A4",
            "ticks": 59904,
            "time": 66.857076,
            "velocity": 0.4566929133858268
          },
          {
            "duration": 0.42857100000000514,
            "durationTicks": 384,
            "midi": 66,
            "name": "F#4",
            "ticks": 59904,
            "time": 66.857076,
            "velocity": 0.4566929133858268
          },
          {
            "duration": 0.42857100000000514,
            "durationTicks": 384,
            "midi": 64,
            "name": "E4",
            "ticks": 59904,
            "time": 66.857076,
            "velocity": 0.4566929133858268
          },
          {
            "duration": 0.32142824999999675,
            "durationTicks": 288,
            "midi": 64,
            "name": "E4",
            "ticks": 60288,
            "time": 67.28564700000001,
            "velocity": 0.4566929133858268
          },
          {
            "duration": 0.32142824999999675,
            "durationTicks": 288,
            "midi": 66,
            "name": "F#4",
            "ticks": 60288,
            "time": 67.28564700000001,
            "velocity": 0.4566929133858268
          },
          {
            "duration": 0.32142824999999675,
            "durationTicks": 288,
            "midi": 69,
            "name": "A4",
            "ticks": 60288,
            "time": 67.28564700000001,
            "velocity": 0.4566929133858268
          },
          {
            "duration": 0.21428550000000257,
            "durationTicks": 192,
            "midi": 69,
            "name": "A4",
            "ticks": 60576,
            "time": 67.60707525000001,
            "velocity": 0.4566929133858268
          },
          {
            "duration": 0.21428550000000257,
            "durationTicks": 192,
            "midi": 66,
            "name": "F#4",
            "ticks": 60576,
            "time": 67.60707525000001,
            "velocity": 0.4566929133858268
          },
          {
            "duration": 0.21428550000000257,
            "durationTicks": 192,
            "midi": 64,
            "name": "E4",
            "ticks": 60576,
            "time": 67.60707525000001,
            "velocity": 0.4566929133858268
          },
          {
            "duration": 0.10714274999999418,
            "durationTicks": 96,
            "midi": 64,
            "name": "E4",
            "ticks": 60768,
            "time": 67.82136075000001,
            "velocity": 0.4566929133858268
          },
          {
            "duration": 0.10714274999999418,
            "durationTicks": 96,
            "midi": 66,
            "name": "F#4",
            "ticks": 60768,
            "time": 67.82136075000001,
            "velocity": 0.4566929133858268
          },
          {
            "duration": 0.10714274999999418,
            "durationTicks": 96,
            "midi": 69,
            "name": "A4",
            "ticks": 60768,
            "time": 67.82136075000001,
            "velocity": 0.4566929133858268
          },
          {
            "duration": 0.21428550000000257,
            "durationTicks": 192,
            "midi": 64,
            "name": "E4",
            "ticks": 60864,
            "time": 67.9285035,
            "velocity": 0.4566929133858268
          },
          {
            "duration": 0.21428550000000257,
            "durationTicks": 192,
            "midi": 69,
            "name": "A4",
            "ticks": 60864,
            "time": 67.9285035,
            "velocity": 0.4566929133858268
          },
          {
            "duration": 0.21428550000000257,
            "durationTicks": 192,
            "midi": 66,
            "name": "F#4",
            "ticks": 60864,
            "time": 67.9285035,
            "velocity": 0.4566929133858268
          },
          {
            "duration": 0.21428550000000257,
            "durationTicks": 192,
            "midi": 68,
            "name": "G#4",
            "ticks": 61056,
            "time": 68.14278900000001,
            "velocity": 0.4566929133858268
          },
          {
            "duration": 0.21428550000000257,
            "durationTicks": 192,
            "midi": 64,
            "name": "E4",
            "ticks": 61056,
            "time": 68.14278900000001,
            "velocity": 0.4566929133858268
          },
          {
            "duration": 0.21428550000000257,
            "durationTicks": 192,
            "midi": 62,
            "name": "D4",
            "ticks": 61056,
            "time": 68.14278900000001,
            "velocity": 0.4566929133858268
          },
          {
            "duration": 0.21428549999998836,
            "durationTicks": 192,
            "midi": 68,
            "name": "G#4",
            "ticks": 61248,
            "time": 68.35707450000001,
            "velocity": 0.4566929133858268
          },
          {
            "duration": 0.21428549999998836,
            "durationTicks": 192,
            "midi": 66,
            "name": "F#4",
            "ticks": 61248,
            "time": 68.35707450000001,
            "velocity": 0.4566929133858268
          },
          {
            "duration": 0.21428549999998836,
            "durationTicks": 192,
            "midi": 62,
            "name": "D4",
            "ticks": 61248,
            "time": 68.35707450000001,
            "velocity": 0.4566929133858268
          },
          {
            "duration": 0.42857100000000514,
            "durationTicks": 384,
            "midi": 68,
            "name": "G#4",
            "ticks": 61440,
            "time": 68.57136,
            "velocity": 0.4566929133858268
          },
          {
            "duration": 0.42857100000000514,
            "durationTicks": 384,
            "midi": 66,
            "name": "F#4",
            "ticks": 61440,
            "time": 68.57136,
            "velocity": 0.4566929133858268
          },
          {
            "duration": 0.42857100000000514,
            "durationTicks": 384,
            "midi": 61,
            "name": "C#4",
            "ticks": 61440,
            "time": 68.57136,
            "velocity": 0.4566929133858268
          },
          {
            "duration": 0.32142824999999675,
            "durationTicks": 288,
            "midi": 66,
            "name": "F#4",
            "ticks": 61824,
            "time": 68.999931,
            "velocity": 0.4566929133858268
          },
          {
            "duration": 0.32142824999999675,
            "durationTicks": 288,
            "midi": 61,
            "name": "C#4",
            "ticks": 61824,
            "time": 68.999931,
            "velocity": 0.4566929133858268
          },
          {
            "duration": 0.32142824999999675,
            "durationTicks": 288,
            "midi": 68,
            "name": "G#4",
            "ticks": 61824,
            "time": 68.999931,
            "velocity": 0.4566929133858268
          },
          {
            "duration": 0.21428550000000257,
            "durationTicks": 192,
            "midi": 61,
            "name": "C#4",
            "ticks": 62112,
            "time": 69.32135925,
            "velocity": 0.4566929133858268
          },
          {
            "duration": 0.21428550000000257,
            "durationTicks": 192,
            "midi": 68,
            "name": "G#4",
            "ticks": 62112,
            "time": 69.32135925,
            "velocity": 0.4566929133858268
          },
          {
            "duration": 0.21428550000000257,
            "durationTicks": 192,
            "midi": 66,
            "name": "F#4",
            "ticks": 62112,
            "time": 69.32135925,
            "velocity": 0.4566929133858268
          },
          {
            "duration": 0.10714275000000839,
            "durationTicks": 96,
            "midi": 61,
            "name": "C#4",
            "ticks": 62304,
            "time": 69.53564475,
            "velocity": 0.4566929133858268
          },
          {
            "duration": 0.10714275000000839,
            "durationTicks": 96,
            "midi": 68,
            "name": "G#4",
            "ticks": 62304,
            "time": 69.53564475,
            "velocity": 0.4566929133858268
          },
          {
            "duration": 0.10714275000000839,
            "durationTicks": 96,
            "midi": 66,
            "name": "F#4",
            "ticks": 62304,
            "time": 69.53564475,
            "velocity": 0.4566929133858268
          },
          {
            "duration": 0.21428549999998836,
            "durationTicks": 192,
            "midi": 66,
            "name": "F#4",
            "ticks": 62400,
            "time": 69.64278750000001,
            "velocity": 0.4566929133858268
          },
          {
            "duration": 0.21428549999998836,
            "durationTicks": 192,
            "midi": 61,
            "name": "C#4",
            "ticks": 62400,
            "time": 69.64278750000001,
            "velocity": 0.4566929133858268
          },
          {
            "duration": 0.21428549999998836,
            "durationTicks": 192,
            "midi": 68,
            "name": "G#4",
            "ticks": 62400,
            "time": 69.64278750000001,
            "velocity": 0.4566929133858268
          },
          {
            "duration": 0.21428550000000257,
            "durationTicks": 192,
            "midi": 66,
            "name": "F#4",
            "ticks": 62592,
            "time": 69.857073,
            "velocity": 0.4566929133858268
          },
          {
            "duration": 0.21428550000000257,
            "durationTicks": 192,
            "midi": 61,
            "name": "C#4",
            "ticks": 62592,
            "time": 69.857073,
            "velocity": 0.4566929133858268
          },
          {
            "duration": 0.21428550000000257,
            "durationTicks": 192,
            "midi": 69,
            "name": "A4",
            "ticks": 62592,
            "time": 69.857073,
            "velocity": 0.4566929133858268
          },
          {
            "duration": 0.21428550000000257,
            "durationTicks": 192,
            "midi": 68,
            "name": "G#4",
            "ticks": 62784,
            "time": 70.0713585,
            "velocity": 0.4566929133858268
          },
          {
            "duration": 0.21428550000000257,
            "durationTicks": 192,
            "midi": 64,
            "name": "E4",
            "ticks": 62784,
            "time": 70.0713585,
            "velocity": 0.4566929133858268
          },
          {
            "duration": 0.21428550000000257,
            "durationTicks": 192,
            "midi": 61,
            "name": "C#4",
            "ticks": 62784,
            "time": 70.0713585,
            "velocity": 0.4566929133858268
          },
          {
            "duration": 0.42857100000000514,
            "durationTicks": 384,
            "midi": 64,
            "name": "E4",
            "ticks": 62976,
            "time": 70.285644,
            "velocity": 0.4566929133858268
          },
          {
            "duration": 0.42857100000000514,
            "durationTicks": 384,
            "midi": 61,
            "name": "C#4",
            "ticks": 62976,
            "time": 70.285644,
            "velocity": 0.4566929133858268
          },
          {
            "duration": 0.42857100000000514,
            "durationTicks": 384,
            "midi": 68,
            "name": "G#4",
            "ticks": 62976,
            "time": 70.285644,
            "velocity": 0.4566929133858268
          },
          {
            "duration": 0.32142824999999675,
            "durationTicks": 288,
            "midi": 68,
            "name": "G#4",
            "ticks": 63360,
            "time": 70.71421500000001,
            "velocity": 0.4566929133858268
          },
          {
            "duration": 0.32142824999999675,
            "durationTicks": 288,
            "midi": 64,
            "name": "E4",
            "ticks": 63360,
            "time": 70.71421500000001,
            "velocity": 0.4566929133858268
          },
          {
            "duration": 0.32142824999999675,
            "durationTicks": 288,
            "midi": 61,
            "name": "C#4",
            "ticks": 63360,
            "time": 70.71421500000001,
            "velocity": 0.4566929133858268
          },
          {
            "duration": 0.21428550000000257,
            "durationTicks": 192,
            "midi": 64,
            "name": "E4",
            "ticks": 63648,
            "time": 71.03564325,
            "velocity": 0.4566929133858268
          },
          {
            "duration": 0.21428550000000257,
            "durationTicks": 192,
            "midi": 61,
            "name": "C#4",
            "ticks": 63648,
            "time": 71.03564325,
            "velocity": 0.4566929133858268
          },
          {
            "duration": 0.21428550000000257,
            "durationTicks": 192,
            "midi": 68,
            "name": "G#4",
            "ticks": 63648,
            "time": 71.03564325,
            "velocity": 0.4566929133858268
          },
          {
            "duration": 0.10714274999999418,
            "durationTicks": 96,
            "midi": 61,
            "name": "C#4",
            "ticks": 63840,
            "time": 71.24992875000001,
            "velocity": 0.4566929133858268
          },
          {
            "duration": 0.10714274999999418,
            "durationTicks": 96,
            "midi": 68,
            "name": "G#4",
            "ticks": 63840,
            "time": 71.24992875000001,
            "velocity": 0.4566929133858268
          },
          {
            "duration": 0.10714274999999418,
            "durationTicks": 96,
            "midi": 64,
            "name": "E4",
            "ticks": 63840,
            "time": 71.24992875000001,
            "velocity": 0.4566929133858268
          },
          {
            "duration": 0.21428550000000257,
            "durationTicks": 192,
            "midi": 64,
            "name": "E4",
            "ticks": 63936,
            "time": 71.3570715,
            "velocity": 0.4566929133858268
          },
          {
            "duration": 0.21428550000000257,
            "durationTicks": 192,
            "midi": 68,
            "name": "G#4",
            "ticks": 63936,
            "time": 71.3570715,
            "velocity": 0.4566929133858268
          },
          {
            "duration": 0.21428550000000257,
            "durationTicks": 192,
            "midi": 61,
            "name": "C#4",
            "ticks": 63936,
            "time": 71.3570715,
            "velocity": 0.4566929133858268
          },
          {
            "duration": 0.21428550000000257,
            "durationTicks": 192,
            "midi": 69,
            "name": "A4",
            "ticks": 64128,
            "time": 71.571357,
            "velocity": 0.4566929133858268
          },
          {
            "duration": 0.21428550000000257,
            "durationTicks": 192,
            "midi": 61,
            "name": "C#4",
            "ticks": 64128,
            "time": 71.571357,
            "velocity": 0.4566929133858268
          },
          {
            "duration": 0.21428550000000257,
            "durationTicks": 192,
            "midi": 66,
            "name": "F#4",
            "ticks": 64128,
            "time": 71.571357,
            "velocity": 0.4566929133858268
          },
          {
            "duration": 0.10714274999999418,
            "durationTicks": 96,
            "midi": 64,
            "name": "E4",
            "ticks": 64320,
            "time": 71.78564250000001,
            "velocity": 0.4566929133858268
          },
          {
            "duration": 0.10714274999999418,
            "durationTicks": 96,
            "midi": 61,
            "name": "C#4",
            "ticks": 64320,
            "time": 71.78564250000001,
            "velocity": 0.4566929133858268
          },
          {
            "duration": 0.10714274999999418,
            "durationTicks": 96,
            "midi": 69,
            "name": "A4",
            "ticks": 64320,
            "time": 71.78564250000001,
            "velocity": 0.4566929133858268
          },
          {
            "duration": 0.10714275000000839,
            "durationTicks": 96,
            "midi": 64,
            "name": "E4",
            "ticks": 64416,
            "time": 71.89278525,
            "velocity": 0.4566929133858268
          },
          {
            "duration": 0.10714275000000839,
            "durationTicks": 96,
            "midi": 68,
            "name": "G#4",
            "ticks": 64416,
            "time": 71.89278525,
            "velocity": 0.4566929133858268
          },
          {
            "duration": 0.10714275000000839,
            "durationTicks": 96,
            "midi": 61,
            "name": "C#4",
            "ticks": 64416,
            "time": 71.89278525,
            "velocity": 0.4566929133858268
          },
          {
            "duration": 0.42857099999999093,
            "durationTicks": 384,
            "midi": 66,
            "name": "F#4",
            "ticks": 64512,
            "time": 71.99992800000001,
            "velocity": 0.4566929133858268
          },
          {
            "duration": 0.42857099999999093,
            "durationTicks": 384,
            "midi": 68,
            "name": "G#4",
            "ticks": 64512,
            "time": 71.99992800000001,
            "velocity": 0.4566929133858268
          },
          {
            "duration": 0.42857099999999093,
            "durationTicks": 384,
            "midi": 61,
            "name": "C#4",
            "ticks": 64512,
            "time": 71.99992800000001,
            "velocity": 0.4566929133858268
          },
          {
            "duration": 0.32142824999999675,
            "durationTicks": 288,
            "midi": 61,
            "name": "C#4",
            "ticks": 64896,
            "time": 72.428499,
            "velocity": 0.4566929133858268
          },
          {
            "duration": 0.32142824999999675,
            "durationTicks": 288,
            "midi": 66,
            "name": "F#4",
            "ticks": 64896,
            "time": 72.428499,
            "velocity": 0.4566929133858268
          },
          {
            "duration": 0.32142824999999675,
            "durationTicks": 288,
            "midi": 68,
            "name": "G#4",
            "ticks": 64896,
            "time": 72.428499,
            "velocity": 0.4566929133858268
          },
          {
            "duration": 0.21428550000000257,
            "durationTicks": 192,
            "midi": 68,
            "name": "G#4",
            "ticks": 65184,
            "time": 72.74992725,
            "velocity": 0.4566929133858268
          },
          {
            "duration": 0.21428550000000257,
            "durationTicks": 192,
            "midi": 61,
            "name": "C#4",
            "ticks": 65184,
            "time": 72.74992725,
            "velocity": 0.4566929133858268
          },
          {
            "duration": 0.21428550000000257,
            "durationTicks": 192,
            "midi": 66,
            "name": "F#4",
            "ticks": 65184,
            "time": 72.74992725,
            "velocity": 0.4566929133858268
          },
          {
            "duration": 0.10714275000000839,
            "durationTicks": 96,
            "midi": 61,
            "name": "C#4",
            "ticks": 65376,
            "time": 72.96421275,
            "velocity": 0.4566929133858268
          },
          {
            "duration": 0.10714275000000839,
            "durationTicks": 96,
            "midi": 68,
            "name": "G#4",
            "ticks": 65376,
            "time": 72.96421275,
            "velocity": 0.4566929133858268
          },
          {
            "duration": 0.10714275000000839,
            "durationTicks": 96,
            "midi": 66,
            "name": "F#4",
            "ticks": 65376,
            "time": 72.96421275,
            "velocity": 0.4566929133858268
          },
          {
            "duration": 0.21428550000000257,
            "durationTicks": 192,
            "midi": 68,
            "name": "G#4",
            "ticks": 65472,
            "time": 73.07135550000001,
            "velocity": 0.4566929133858268
          },
          {
            "duration": 0.21428550000000257,
            "durationTicks": 192,
            "midi": 61,
            "name": "C#4",
            "ticks": 65472,
            "time": 73.07135550000001,
            "velocity": 0.4566929133858268
          },
          {
            "duration": 0.21428550000000257,
            "durationTicks": 192,
            "midi": 66,
            "name": "F#4",
            "ticks": 65472,
            "time": 73.07135550000001,
            "velocity": 0.4566929133858268
          },
          {
            "duration": 0.21428549999998836,
            "durationTicks": 192,
            "midi": 64,
            "name": "E4",
            "ticks": 65664,
            "time": 73.28564100000001,
            "velocity": 0.4566929133858268
          },
          {
            "duration": 0.21428549999998836,
            "durationTicks": 192,
            "midi": 59,
            "name": "B3",
            "ticks": 65664,
            "time": 73.28564100000001,
            "velocity": 0.4566929133858268
          },
          {
            "duration": 0.21428549999998836,
            "durationTicks": 192,
            "midi": 66,
            "name": "F#4",
            "ticks": 65664,
            "time": 73.28564100000001,
            "velocity": 0.4566929133858268
          },
          {
            "duration": 0.21428550000000257,
            "durationTicks": 192,
            "midi": 71,
            "name": "B4",
            "ticks": 65856,
            "time": 73.4999265,
            "velocity": 0.4566929133858268
          },
          {
            "duration": 0.21428550000000257,
            "durationTicks": 192,
            "midi": 59,
            "name": "B3",
            "ticks": 65856,
            "time": 73.4999265,
            "velocity": 0.4566929133858268
          },
          {
            "duration": 0.21428550000000257,
            "durationTicks": 192,
            "midi": 66,
            "name": "F#4",
            "ticks": 65856,
            "time": 73.4999265,
            "velocity": 0.4566929133858268
          },
          {
            "duration": 0.42857100000000514,
            "durationTicks": 384,
            "midi": 61,
            "name": "C#4",
            "ticks": 66048,
            "time": 73.714212,
            "velocity": 0.4566929133858268
          },
          {
            "duration": 0.42857100000000514,
            "durationTicks": 384,
            "midi": 71,
            "name": "B4",
            "ticks": 66048,
            "time": 73.714212,
            "velocity": 0.4566929133858268
          },
          {
            "duration": 0.42857100000000514,
            "durationTicks": 384,
            "midi": 64,
            "name": "E4",
            "ticks": 66048,
            "time": 73.714212,
            "velocity": 0.4566929133858268
          },
          {
            "duration": 0.32142824999999675,
            "durationTicks": 288,
            "midi": 61,
            "name": "C#4",
            "ticks": 66432,
            "time": 74.14278300000001,
            "velocity": 0.4566929133858268
          },
          {
            "duration": 0.32142824999999675,
            "durationTicks": 288,
            "midi": 64,
            "name": "E4",
            "ticks": 66432,
            "time": 74.14278300000001,
            "velocity": 0.4566929133858268
          },
          {
            "duration": 0.32142824999999675,
            "durationTicks": 288,
            "midi": 71,
            "name": "B4",
            "ticks": 66432,
            "time": 74.14278300000001,
            "velocity": 0.4566929133858268
          },
          {
            "duration": 0.21428550000000257,
            "durationTicks": 192,
            "midi": 71,
            "name": "B4",
            "ticks": 66720,
            "time": 74.46421125,
            "velocity": 0.4566929133858268
          },
          {
            "duration": 0.21428550000000257,
            "durationTicks": 192,
            "midi": 64,
            "name": "E4",
            "ticks": 66720,
            "time": 74.46421125,
            "velocity": 0.4566929133858268
          },
          {
            "duration": 0.21428550000000257,
            "durationTicks": 192,
            "midi": 61,
            "name": "C#4",
            "ticks": 66720,
            "time": 74.46421125,
            "velocity": 0.4566929133858268
          },
          {
            "duration": 0.10714274999999418,
            "durationTicks": 96,
            "midi": 64,
            "name": "E4",
            "ticks": 66912,
            "time": 74.67849675000001,
            "velocity": 0.4566929133858268
          },
          {
            "duration": 0.10714274999999418,
            "durationTicks": 96,
            "midi": 61,
            "name": "C#4",
            "ticks": 66912,
            "time": 74.67849675000001,
            "velocity": 0.4566929133858268
          },
          {
            "duration": 0.10714274999999418,
            "durationTicks": 96,
            "midi": 71,
            "name": "B4",
            "ticks": 66912,
            "time": 74.67849675000001,
            "velocity": 0.4566929133858268
          },
          {
            "duration": 0.21428550000000257,
            "durationTicks": 192,
            "midi": 61,
            "name": "C#4",
            "ticks": 67008,
            "time": 74.7856395,
            "velocity": 0.4566929133858268
          },
          {
            "duration": 0.21428550000000257,
            "durationTicks": 192,
            "midi": 71,
            "name": "B4",
            "ticks": 67008,
            "time": 74.7856395,
            "velocity": 0.4566929133858268
          },
          {
            "duration": 0.21428550000000257,
            "durationTicks": 192,
            "midi": 64,
            "name": "E4",
            "ticks": 67008,
            "time": 74.7856395,
            "velocity": 0.4566929133858268
          },
          {
            "duration": 0.21428550000000257,
            "durationTicks": 192,
            "midi": 69,
            "name": "A4",
            "ticks": 67200,
            "time": 74.999925,
            "velocity": 0.4566929133858268
          },
          {
            "duration": 0.21428550000000257,
            "durationTicks": 192,
            "midi": 59,
            "name": "B3",
            "ticks": 67200,
            "time": 74.999925,
            "velocity": 0.4566929133858268
          },
          {
            "duration": 0.21428550000000257,
            "durationTicks": 192,
            "midi": 62,
            "name": "D4",
            "ticks": 67200,
            "time": 74.999925,
            "velocity": 0.4566929133858268
          },
          {
            "duration": 0.21428550000000257,
            "durationTicks": 192,
            "midi": 64,
            "name": "E4",
            "ticks": 67392,
            "time": 75.21421050000001,
            "velocity": 0.4566929133858268
          },
          {
            "duration": 0.21428550000000257,
            "durationTicks": 192,
            "midi": 71,
            "name": "B4",
            "ticks": 67392,
            "time": 75.21421050000001,
            "velocity": 0.4566929133858268
          },
          {
            "duration": 0.21428550000000257,
            "durationTicks": 192,
            "midi": 59,
            "name": "B3",
            "ticks": 67392,
            "time": 75.21421050000001,
            "velocity": 0.4566929133858268
          },
          {
            "duration": 0.42857099999999093,
            "durationTicks": 384,
            "midi": 76,
            "name": "E5",
            "ticks": 67584,
            "time": 75.42849600000001,
            "velocity": 0.4566929133858268
          },
          {
            "duration": 0.42857099999999093,
            "durationTicks": 384,
            "midi": 71,
            "name": "B4",
            "ticks": 67584,
            "time": 75.42849600000001,
            "velocity": 0.4566929133858268
          },
          {
            "duration": 0.42857099999999093,
            "durationTicks": 384,
            "midi": 66,
            "name": "F#4",
            "ticks": 67584,
            "time": 75.42849600000001,
            "velocity": 0.4566929133858268
          },
          {
            "duration": 0.32142825000001096,
            "durationTicks": 288,
            "midi": 71,
            "name": "B4",
            "ticks": 67968,
            "time": 75.857067,
            "velocity": 0.4566929133858268
          },
          {
            "duration": 0.32142825000001096,
            "durationTicks": 288,
            "midi": 76,
            "name": "E5",
            "ticks": 67968,
            "time": 75.857067,
            "velocity": 0.4566929133858268
          },
          {
            "duration": 0.32142825000001096,
            "durationTicks": 288,
            "midi": 66,
            "name": "F#4",
            "ticks": 67968,
            "time": 75.857067,
            "velocity": 0.4566929133858268
          },
          {
            "duration": 0.21428549999998836,
            "durationTicks": 192,
            "midi": 71,
            "name": "B4",
            "ticks": 68256,
            "time": 76.17849525000001,
            "velocity": 0.4566929133858268
          },
          {
            "duration": 0.21428549999998836,
            "durationTicks": 192,
            "midi": 76,
            "name": "E5",
            "ticks": 68256,
            "time": 76.17849525000001,
            "velocity": 0.4566929133858268
          },
          {
            "duration": 0.21428549999998836,
            "durationTicks": 192,
            "midi": 66,
            "name": "F#4",
            "ticks": 68256,
            "time": 76.17849525000001,
            "velocity": 0.4566929133858268
          },
          {
            "duration": 0.10714275000000839,
            "durationTicks": 96,
            "midi": 71,
            "name": "B4",
            "ticks": 68448,
            "time": 76.39278075,
            "velocity": 0.4566929133858268
          },
          {
            "duration": 0.10714275000000839,
            "durationTicks": 96,
            "midi": 76,
            "name": "E5",
            "ticks": 68448,
            "time": 76.39278075,
            "velocity": 0.4566929133858268
          },
          {
            "duration": 0.10714275000000839,
            "durationTicks": 96,
            "midi": 66,
            "name": "F#4",
            "ticks": 68448,
            "time": 76.39278075,
            "velocity": 0.4566929133858268
          },
          {
            "duration": 0.21428550000000257,
            "durationTicks": 192,
            "midi": 76,
            "name": "E5",
            "ticks": 68544,
            "time": 76.49992350000001,
            "velocity": 0.4566929133858268
          },
          {
            "duration": 0.21428550000000257,
            "durationTicks": 192,
            "midi": 71,
            "name": "B4",
            "ticks": 68544,
            "time": 76.49992350000001,
            "velocity": 0.4566929133858268
          },
          {
            "duration": 0.21428550000000257,
            "durationTicks": 192,
            "midi": 66,
            "name": "F#4",
            "ticks": 68544,
            "time": 76.49992350000001,
            "velocity": 0.4566929133858268
          },
          {
            "duration": 0.21428549999998836,
            "durationTicks": 192,
            "midi": 74,
            "name": "D5",
            "ticks": 68736,
            "time": 76.71420900000001,
            "velocity": 0.4566929133858268
          },
          {
            "duration": 0.21428549999998836,
            "durationTicks": 192,
            "midi": 69,
            "name": "A4",
            "ticks": 68736,
            "time": 76.71420900000001,
            "velocity": 0.4566929133858268
          },
          {
            "duration": 0.21428549999998836,
            "durationTicks": 192,
            "midi": 64,
            "name": "E4",
            "ticks": 68736,
            "time": 76.71420900000001,
            "velocity": 0.4566929133858268
          },
          {
            "duration": 0.21428550000000257,
            "durationTicks": 192,
            "midi": 71,
            "name": "B4",
            "ticks": 68928,
            "time": 76.9284945,
            "velocity": 0.4566929133858268
          },
          {
            "duration": 0.21428550000000257,
            "durationTicks": 192,
            "midi": 64,
            "name": "E4",
            "ticks": 68928,
            "time": 76.9284945,
            "velocity": 0.4566929133858268
          },
          {
            "duration": 0.21428550000000257,
            "durationTicks": 192,
            "midi": 76,
            "name": "E5",
            "ticks": 68928,
            "time": 76.9284945,
            "velocity": 0.4566929133858268
          },
          {
            "duration": 0.42857100000000514,
            "durationTicks": 384,
            "midi": 69,
            "name": "A4",
            "ticks": 69120,
            "time": 77.14278,
            "velocity": 0.4566929133858268
          },
          {
            "duration": 0.42857100000000514,
            "durationTicks": 384,
            "midi": 64,
            "name": "E4",
            "ticks": 69120,
            "time": 77.14278,
            "velocity": 0.4566929133858268
          },
          {
            "duration": 0.42857100000000514,
            "durationTicks": 384,
            "midi": 66,
            "name": "F#4",
            "ticks": 69120,
            "time": 77.14278,
            "velocity": 0.4566929133858268
          },
          {
            "duration": 0.32142824999999675,
            "durationTicks": 288,
            "midi": 64,
            "name": "E4",
            "ticks": 69504,
            "time": 77.571351,
            "velocity": 0.4566929133858268
          },
          {
            "duration": 0.32142824999999675,
            "durationTicks": 288,
            "midi": 69,
            "name": "A4",
            "ticks": 69504,
            "time": 77.571351,
            "velocity": 0.4566929133858268
          },
          {
            "duration": 0.32142824999999675,
            "durationTicks": 288,
            "midi": 66,
            "name": "F#4",
            "ticks": 69504,
            "time": 77.571351,
            "velocity": 0.4566929133858268
          },
          {
            "duration": 0.21428550000000257,
            "durationTicks": 192,
            "midi": 69,
            "name": "A4",
            "ticks": 69792,
            "time": 77.89277925,
            "velocity": 0.4566929133858268
          },
          {
            "duration": 0.21428550000000257,
            "durationTicks": 192,
            "midi": 64,
            "name": "E4",
            "ticks": 69792,
            "time": 77.89277925,
            "velocity": 0.4566929133858268
          },
          {
            "duration": 0.21428550000000257,
            "durationTicks": 192,
            "midi": 66,
            "name": "F#4",
            "ticks": 69792,
            "time": 77.89277925,
            "velocity": 0.4566929133858268
          },
          {
            "duration": 0.10714274999999418,
            "durationTicks": 96,
            "midi": 66,
            "name": "F#4",
            "ticks": 69984,
            "time": 78.10706475,
            "velocity": 0.4566929133858268
          },
          {
            "duration": 0.10714274999999418,
            "durationTicks": 96,
            "midi": 64,
            "name": "E4",
            "ticks": 69984,
            "time": 78.10706475,
            "velocity": 0.4566929133858268
          },
          {
            "duration": 0.10714274999999418,
            "durationTicks": 96,
            "midi": 69,
            "name": "A4",
            "ticks": 69984,
            "time": 78.10706475,
            "velocity": 0.4566929133858268
          },
          {
            "duration": 0.21428550000000257,
            "durationTicks": 192,
            "midi": 66,
            "name": "F#4",
            "ticks": 70080,
            "time": 78.2142075,
            "velocity": 0.4566929133858268
          },
          {
            "duration": 0.21428550000000257,
            "durationTicks": 192,
            "midi": 64,
            "name": "E4",
            "ticks": 70080,
            "time": 78.2142075,
            "velocity": 0.4566929133858268
          },
          {
            "duration": 0.21428550000000257,
            "durationTicks": 192,
            "midi": 69,
            "name": "A4",
            "ticks": 70080,
            "time": 78.2142075,
            "velocity": 0.4566929133858268
          },
          {
            "duration": 0.21428550000000257,
            "durationTicks": 192,
            "midi": 62,
            "name": "D4",
            "ticks": 70272,
            "time": 78.428493,
            "velocity": 0.4566929133858268
          },
          {
            "duration": 0.21428550000000257,
            "durationTicks": 192,
            "midi": 64,
            "name": "E4",
            "ticks": 70272,
            "time": 78.428493,
            "velocity": 0.4566929133858268
          },
          {
            "duration": 0.21428550000000257,
            "durationTicks": 192,
            "midi": 68,
            "name": "G#4",
            "ticks": 70272,
            "time": 78.428493,
            "velocity": 0.4566929133858268
          },
          {
            "duration": 0.21428550000000257,
            "durationTicks": 192,
            "midi": 62,
            "name": "D4",
            "ticks": 70464,
            "time": 78.6427785,
            "velocity": 0.4566929133858268
          },
          {
            "duration": 0.21428550000000257,
            "durationTicks": 192,
            "midi": 66,
            "name": "F#4",
            "ticks": 70464,
            "time": 78.6427785,
            "velocity": 0.4566929133858268
          },
          {
            "duration": 0.21428550000000257,
            "durationTicks": 192,
            "midi": 68,
            "name": "G#4",
            "ticks": 70464,
            "time": 78.6427785,
            "velocity": 0.4566929133858268
          },
          {
            "duration": 0.42857100000000514,
            "durationTicks": 384,
            "midi": 66,
            "name": "F#4",
            "ticks": 70656,
            "time": 78.85706400000001,
            "velocity": 0.4566929133858268
          },
          {
            "duration": 0.42857100000000514,
            "durationTicks": 384,
            "midi": 61,
            "name": "C#4",
            "ticks": 70656,
            "time": 78.85706400000001,
            "velocity": 0.4566929133858268
          },
          {
            "duration": 0.42857100000000514,
            "durationTicks": 384,
            "midi": 68,
            "name": "G#4",
            "ticks": 70656,
            "time": 78.85706400000001,
            "velocity": 0.4566929133858268
          },
          {
            "duration": 0.32142824999999675,
            "durationTicks": 288,
            "midi": 61,
            "name": "C#4",
            "ticks": 71040,
            "time": 79.28563500000001,
            "velocity": 0.4566929133858268
          },
          {
            "duration": 0.32142824999999675,
            "durationTicks": 288,
            "midi": 66,
            "name": "F#4",
            "ticks": 71040,
            "time": 79.28563500000001,
            "velocity": 0.4566929133858268
          },
          {
            "duration": 0.32142824999999675,
            "durationTicks": 288,
            "midi": 68,
            "name": "G#4",
            "ticks": 71040,
            "time": 79.28563500000001,
            "velocity": 0.4566929133858268
          },
          {
            "duration": 0.21428550000000257,
            "durationTicks": 192,
            "midi": 68,
            "name": "G#4",
            "ticks": 71328,
            "time": 79.60706325000001,
            "velocity": 0.4566929133858268
          },
          {
            "duration": 0.21428550000000257,
            "durationTicks": 192,
            "midi": 61,
            "name": "C#4",
            "ticks": 71328,
            "time": 79.60706325000001,
            "velocity": 0.4566929133858268
          },
          {
            "duration": 0.21428550000000257,
            "durationTicks": 192,
            "midi": 66,
            "name": "F#4",
            "ticks": 71328,
            "time": 79.60706325000001,
            "velocity": 0.4566929133858268
          },
          {
            "duration": 0.10714274999999418,
            "durationTicks": 96,
            "midi": 66,
            "name": "F#4",
            "ticks": 71520,
            "time": 79.82134875000001,
            "velocity": 0.4566929133858268
          },
          {
            "duration": 0.10714274999999418,
            "durationTicks": 96,
            "midi": 68,
            "name": "G#4",
            "ticks": 71520,
            "time": 79.82134875000001,
            "velocity": 0.4566929133858268
          },
          {
            "duration": 0.10714274999999418,
            "durationTicks": 96,
            "midi": 61,
            "name": "C#4",
            "ticks": 71520,
            "time": 79.82134875000001,
            "velocity": 0.4566929133858268
          },
          {
            "duration": 0.21428550000000257,
            "durationTicks": 192,
            "midi": 61,
            "name": "C#4",
            "ticks": 71616,
            "time": 79.9284915,
            "velocity": 0.4566929133858268
          },
          {
            "duration": 0.21428550000000257,
            "durationTicks": 192,
            "midi": 66,
            "name": "F#4",
            "ticks": 71616,
            "time": 79.9284915,
            "velocity": 0.4566929133858268
          },
          {
            "duration": 0.21428550000000257,
            "durationTicks": 192,
            "midi": 68,
            "name": "G#4",
            "ticks": 71616,
            "time": 79.9284915,
            "velocity": 0.4566929133858268
          },
          {
            "duration": 0.21428550000000257,
            "durationTicks": 192,
            "midi": 61,
            "name": "C#4",
            "ticks": 71808,
            "time": 80.14277700000001,
            "velocity": 0.4566929133858268
          },
          {
            "duration": 0.21428550000000257,
            "durationTicks": 192,
            "midi": 66,
            "name": "F#4",
            "ticks": 71808,
            "time": 80.14277700000001,
            "velocity": 0.4566929133858268
          },
          {
            "duration": 0.21428550000000257,
            "durationTicks": 192,
            "midi": 69,
            "name": "A4",
            "ticks": 71808,
            "time": 80.14277700000001,
            "velocity": 0.4566929133858268
          },
          {
            "duration": 0.21428549999998836,
            "durationTicks": 192,
            "midi": 68,
            "name": "G#4",
            "ticks": 72000,
            "time": 80.35706250000001,
            "velocity": 0.4566929133858268
          },
          {
            "duration": 0.21428549999998836,
            "durationTicks": 192,
            "midi": 64,
            "name": "E4",
            "ticks": 72000,
            "time": 80.35706250000001,
            "velocity": 0.4566929133858268
          },
          {
            "duration": 0.21428549999998836,
            "durationTicks": 192,
            "midi": 61,
            "name": "C#4",
            "ticks": 72000,
            "time": 80.35706250000001,
            "velocity": 0.4566929133858268
          },
          {
            "duration": 0.42857100000000514,
            "durationTicks": 384,
            "midi": 64,
            "name": "E4",
            "ticks": 72192,
            "time": 80.571348,
            "velocity": 0.4566929133858268
          },
          {
            "duration": 0.42857100000000514,
            "durationTicks": 384,
            "midi": 61,
            "name": "C#4",
            "ticks": 72192,
            "time": 80.571348,
            "velocity": 0.4566929133858268
          },
          {
            "duration": 0.42857100000000514,
            "durationTicks": 384,
            "midi": 68,
            "name": "G#4",
            "ticks": 72192,
            "time": 80.571348,
            "velocity": 0.4566929133858268
          },
          {
            "duration": 0.32142824999999675,
            "durationTicks": 288,
            "midi": 64,
            "name": "E4",
            "ticks": 72576,
            "time": 80.999919,
            "velocity": 0.4566929133858268
          },
          {
            "duration": 0.32142824999999675,
            "durationTicks": 288,
            "midi": 61,
            "name": "C#4",
            "ticks": 72576,
            "time": 80.999919,
            "velocity": 0.4566929133858268
          },
          {
            "duration": 0.32142824999999675,
            "durationTicks": 288,
            "midi": 68,
            "name": "G#4",
            "ticks": 72576,
            "time": 80.999919,
            "velocity": 0.4566929133858268
          },
          {
            "duration": 0.21428550000000257,
            "durationTicks": 192,
            "midi": 68,
            "name": "G#4",
            "ticks": 72864,
            "time": 81.32134725,
            "velocity": 0.4566929133858268
          },
          {
            "duration": 0.21428550000000257,
            "durationTicks": 192,
            "midi": 64,
            "name": "E4",
            "ticks": 72864,
            "time": 81.32134725,
            "velocity": 0.4566929133858268
          },
          {
            "duration": 0.21428550000000257,
            "durationTicks": 192,
            "midi": 61,
            "name": "C#4",
            "ticks": 72864,
            "time": 81.32134725,
            "velocity": 0.4566929133858268
          },
          {
            "duration": 0.10714275000000839,
            "durationTicks": 96,
            "midi": 68,
            "name": "G#4",
            "ticks": 73056,
            "time": 81.53563275,
            "velocity": 0.4566929133858268
          },
          {
            "duration": 0.10714275000000839,
            "durationTicks": 96,
            "midi": 64,
            "name": "E4",
            "ticks": 73056,
            "time": 81.53563275,
            "velocity": 0.4566929133858268
          },
          {
            "duration": 0.10714275000000839,
            "durationTicks": 96,
            "midi": 61,
            "name": "C#4",
            "ticks": 73056,
            "time": 81.53563275,
            "velocity": 0.4566929133858268
          },
          {
            "duration": 0.21428549999998836,
            "durationTicks": 192,
            "midi": 68,
            "name": "G#4",
            "ticks": 73152,
            "time": 81.64277550000001,
            "velocity": 0.4566929133858268
          },
          {
            "duration": 0.21428549999998836,
            "durationTicks": 192,
            "midi": 61,
            "name": "C#4",
            "ticks": 73152,
            "time": 81.64277550000001,
            "velocity": 0.4566929133858268
          },
          {
            "duration": 0.21428549999998836,
            "durationTicks": 192,
            "midi": 64,
            "name": "E4",
            "ticks": 73152,
            "time": 81.64277550000001,
            "velocity": 0.4566929133858268
          },
          {
            "duration": 0.21428550000000257,
            "durationTicks": 192,
            "midi": 69,
            "name": "A4",
            "ticks": 73344,
            "time": 81.857061,
            "velocity": 0.4566929133858268
          },
          {
            "duration": 0.21428550000000257,
            "durationTicks": 192,
            "midi": 66,
            "name": "F#4",
            "ticks": 73344,
            "time": 81.857061,
            "velocity": 0.4566929133858268
          },
          {
            "duration": 0.21428550000000257,
            "durationTicks": 192,
            "midi": 61,
            "name": "C#4",
            "ticks": 73344,
            "time": 81.857061,
            "velocity": 0.4566929133858268
          },
          {
            "duration": 0.10714275000000839,
            "durationTicks": 96,
            "midi": 61,
            "name": "C#4",
            "ticks": 73536,
            "time": 82.0713465,
            "velocity": 0.4566929133858268
          },
          {
            "duration": 0.10714275000000839,
            "durationTicks": 96,
            "midi": 64,
            "name": "E4",
            "ticks": 73536,
            "time": 82.0713465,
            "velocity": 0.4566929133858268
          },
          {
            "duration": 0.10714275000000839,
            "durationTicks": 96,
            "midi": 69,
            "name": "A4",
            "ticks": 73536,
            "time": 82.0713465,
            "velocity": 0.4566929133858268
          },
          {
            "duration": 0.10714274999999418,
            "durationTicks": 96,
            "midi": 61,
            "name": "C#4",
            "ticks": 73632,
            "time": 82.17848925000001,
            "velocity": 0.4566929133858268
          },
          {
            "duration": 0.10714274999999418,
            "durationTicks": 96,
            "midi": 68,
            "name": "G#4",
            "ticks": 73632,
            "time": 82.17848925000001,
            "velocity": 0.4566929133858268
          },
          {
            "duration": 0.10714274999999418,
            "durationTicks": 96,
            "midi": 64,
            "name": "E4",
            "ticks": 73632,
            "time": 82.17848925000001,
            "velocity": 0.4566929133858268
          }
        ],
        "endOfTrackTicks": 73728
      },
      {
        "channel": 9,
        "controlChanges": {},
        "pitchBends": [],
        "instrument": {
          "family": "drums",
          "number": 0,
          "name": "standard kit"
        },
        "name": "909 Drum Kit",
        "notes": [
          {
            "duration": 0.10714274999999951,
            "durationTicks": 96,
            "midi": 0,
            "name": "C-1",
            "ticks": 9216,
            "time": 10.285704,
            "velocity": 0.5905511811023622
          },
          {
            "duration": 0.10714274999999951,
            "durationTicks": 96,
            "midi": 0,
            "name": "C-1",
            "ticks": 9600,
            "time": 10.714275,
            "velocity": 0.5905511811023622
          },
          {
            "duration": 0.10714274999999951,
            "durationTicks": 96,
            "midi": 0,
            "name": "C-1",
            "ticks": 9888,
            "time": 11.035703250000001,
            "velocity": 0.5905511811023622
          },
          {
            "duration": 0.10714274999999951,
            "durationTicks": 96,
            "midi": 0,
            "name": "C-1",
            "ticks": 10080,
            "time": 11.249988750000002,
            "velocity": 0.5905511811023622
          },
          {
            "duration": 0.10714274999999951,
            "durationTicks": 96,
            "midi": 0,
            "name": "C-1",
            "ticks": 10176,
            "time": 11.357131500000001,
            "velocity": 0.5905511811023622
          },
          {
            "duration": 0.10714275000000129,
            "durationTicks": 96,
            "midi": 0,
            "name": "C-1",
            "ticks": 10368,
            "time": 11.571417,
            "velocity": 0.5905511811023622
          },
          {
            "duration": 0.10714274999999951,
            "durationTicks": 96,
            "midi": 0,
            "name": "C-1",
            "ticks": 10752,
            "time": 11.999988000000002,
            "velocity": 0.5905511811023622
          },
          {
            "duration": 0.10714274999999951,
            "durationTicks": 96,
            "midi": 0,
            "name": "C-1",
            "ticks": 11136,
            "time": 12.428559000000002,
            "velocity": 0.5905511811023622
          },
          {
            "duration": 0.10714275000000129,
            "durationTicks": 96,
            "midi": 0,
            "name": "C-1",
            "ticks": 11424,
            "time": 12.74998725,
            "velocity": 0.5905511811023622
          },
          {
            "duration": 0.10714274999999951,
            "durationTicks": 96,
            "midi": 0,
            "name": "C-1",
            "ticks": 11616,
            "time": 12.964272750000001,
            "velocity": 0.5905511811023622
          },
          {
            "duration": 0.10714275000000129,
            "durationTicks": 96,
            "midi": 0,
            "name": "C-1",
            "ticks": 11712,
            "time": 13.0714155,
            "velocity": 0.5905511811023622
          },
          {
            "duration": 0.10714274999999951,
            "durationTicks": 96,
            "midi": 0,
            "name": "C-1",
            "ticks": 11904,
            "time": 13.285701000000001,
            "velocity": 0.5905511811023622
          },
          {
            "duration": 0.10714274999999951,
            "durationTicks": 96,
            "midi": 0,
            "name": "C-1",
            "ticks": 12288,
            "time": 13.714272000000001,
            "velocity": 0.5905511811023622
          },
          {
            "duration": 0.10714274999999951,
            "durationTicks": 96,
            "midi": 0,
            "name": "C-1",
            "ticks": 12288,
            "time": 13.714272000000001,
            "velocity": 0.5905511811023622
          },
          {
            "duration": 0.10714274999999951,
            "durationTicks": 96,
            "midi": 0,
            "name": "C-1",
            "ticks": 12480,
            "time": 13.928557500000002,
            "velocity": 0.5905511811023622
          },
          {
            "duration": 0.10714274999999951,
            "durationTicks": 96,
            "midi": 0,
            "name": "C-1",
            "ticks": 12672,
            "time": 14.142843000000001,
            "velocity": 0.5905511811023622
          },
          {
            "duration": 0.10714274999999951,
            "durationTicks": 96,
            "midi": 0,
            "name": "C-1",
            "ticks": 12672,
            "time": 14.142843000000001,
            "velocity": 0.5905511811023622
          },
          {
            "duration": 0.10714274999999951,
            "durationTicks": 96,
            "midi": 0,
            "name": "C-1",
            "ticks": 12864,
            "time": 14.357128500000002,
            "velocity": 0.5905511811023622
          },
          {
            "duration": 0.10714274999999951,
            "durationTicks": 96,
            "midi": 0,
            "name": "C-1",
            "ticks": 12960,
            "time": 14.464271250000001,
            "velocity": 0.5905511811023622
          },
          {
            "duration": 0.10714275000000129,
            "durationTicks": 96,
            "midi": 0,
            "name": "C-1",
            "ticks": 13056,
            "time": 14.571414,
            "velocity": 0.5905511811023622
          },
          {
            "duration": 0.10714274999999951,
            "durationTicks": 96,
            "midi": 0,
            "name": "C-1",
            "ticks": 13152,
            "time": 14.678556750000002,
            "velocity": 0.5905511811023622
          },
          {
            "duration": 0.10714274999999951,
            "durationTicks": 96,
            "midi": 0,
            "name": "C-1",
            "ticks": 13152,
            "time": 14.678556750000002,
            "velocity": 0.5905511811023622
          },
          {
            "duration": 0.10714274999999951,
            "durationTicks": 96,
            "midi": 0,
            "name": "C-1",
            "ticks": 13248,
            "time": 14.785699500000002,
            "velocity": 0.5905511811023622
          },
          {
            "duration": 0.10714275000000129,
            "durationTicks": 96,
            "midi": 0,
            "name": "C-1",
            "ticks": 13440,
            "time": 14.999985,
            "velocity": 0.5905511811023622
          },
          {
            "duration": 0.10714275000000129,
            "durationTicks": 96,
            "midi": 0,
            "name": "C-1",
            "ticks": 13440,
            "time": 14.999985,
            "velocity": 0.5905511811023622
          },
          {
            "duration": 0.10714275000000129,
            "durationTicks": 96,
            "midi": 0,
            "name": "C-1",
            "ticks": 13440,
            "time": 14.999985,
            "velocity": 0.5905511811023622
          },
          {
            "duration": 0.10714274999999951,
            "durationTicks": 96,
            "midi": 0,
            "name": "C-1",
            "ticks": 13632,
            "time": 15.214270500000001,
            "velocity": 0.5905511811023622
          },
          {
            "duration": 0.10714274999999951,
            "durationTicks": 96,
            "midi": 0,
            "name": "C-1",
            "ticks": 13632,
            "time": 15.214270500000001,
            "velocity": 0.5905511811023622
          },
          {
            "duration": 0.10714275000000129,
            "durationTicks": 96,
            "midi": 0,
            "name": "C-1",
            "ticks": 13824,
            "time": 15.428556,
            "velocity": 0.5905511811023622
          },
          {
            "duration": 0.10714275000000129,
            "durationTicks": 96,
            "midi": 0,
            "name": "C-1",
            "ticks": 13824,
            "time": 15.428556,
            "velocity": 0.5905511811023622
          },
          {
            "duration": 0.10714274999999951,
            "durationTicks": 96,
            "midi": 0,
            "name": "C-1",
            "ticks": 14016,
            "time": 15.642841500000001,
            "velocity": 0.5905511811023622
          },
          {
            "duration": 0.10714274999999951,
            "durationTicks": 96,
            "midi": 0,
            "name": "C-1",
            "ticks": 14208,
            "time": 15.857127000000002,
            "velocity": 0.5905511811023622
          },
          {
            "duration": 0.10714274999999951,
            "durationTicks": 96,
            "midi": 0,
            "name": "C-1",
            "ticks": 14208,
            "time": 15.857127000000002,
            "velocity": 0.5905511811023622
          },
          {
            "duration": 0.10714275000000129,
            "durationTicks": 96,
            "midi": 0,
            "name": "C-1",
            "ticks": 14400,
            "time": 16.0714125,
            "velocity": 0.5905511811023622
          },
          {
            "duration": 0.10714274999999773,
            "durationTicks": 96,
            "midi": 0,
            "name": "C-1",
            "ticks": 14496,
            "time": 16.178555250000002,
            "velocity": 0.5905511811023622
          },
          {
            "duration": 0.10714275000000129,
            "durationTicks": 96,
            "midi": 0,
            "name": "C-1",
            "ticks": 14592,
            "time": 16.285698,
            "velocity": 0.5905511811023622
          },
          {
            "duration": 0.10714275000000129,
            "durationTicks": 96,
            "midi": 0,
            "name": "C-1",
            "ticks": 14688,
            "time": 16.39284075,
            "velocity": 0.5905511811023622
          },
          {
            "duration": 0.10714275000000129,
            "durationTicks": 96,
            "midi": 0,
            "name": "C-1",
            "ticks": 14688,
            "time": 16.39284075,
            "velocity": 0.5905511811023622
          },
          {
            "duration": 0.10714274999999773,
            "durationTicks": 96,
            "midi": 0,
            "name": "C-1",
            "ticks": 14784,
            "time": 16.499983500000003,
            "velocity": 0.5905511811023622
          },
          {
            "duration": 0.10714275000000129,
            "durationTicks": 96,
            "midi": 0,
            "name": "C-1",
            "ticks": 14976,
            "time": 16.714269,
            "velocity": 0.5905511811023622
          },
          {
            "duration": 0.10714275000000129,
            "durationTicks": 96,
            "midi": 0,
            "name": "C-1",
            "ticks": 14976,
            "time": 16.714269,
            "velocity": 0.5905511811023622
          },
          {
            "duration": 0.10714275000000129,
            "durationTicks": 96,
            "midi": 0,
            "name": "C-1",
            "ticks": 14976,
            "time": 16.714269,
            "velocity": 0.5905511811023622
          },
          {
            "duration": 0.10714275000000129,
            "durationTicks": 96,
            "midi": 0,
            "name": "C-1",
            "ticks": 15168,
            "time": 16.9285545,
            "velocity": 0.5905511811023622
          },
          {
            "duration": 0.10714275000000129,
            "durationTicks": 96,
            "midi": 0,
            "name": "C-1",
            "ticks": 15168,
            "time": 16.9285545,
            "velocity": 0.5905511811023622
          },
          {
            "duration": 0.10714275000000129,
            "durationTicks": 96,
            "midi": 0,
            "name": "C-1",
            "ticks": 15360,
            "time": 17.14284,
            "velocity": 0.5905511811023622
          },
          {
            "duration": 0.10714275000000129,
            "durationTicks": 96,
            "midi": 0,
            "name": "C-1",
            "ticks": 15360,
            "time": 17.14284,
            "velocity": 0.5905511811023622
          },
          {
            "duration": 0.10714274999999773,
            "durationTicks": 96,
            "midi": 0,
            "name": "C-1",
            "ticks": 15552,
            "time": 17.357125500000002,
            "velocity": 0.5905511811023622
          },
          {
            "duration": 0.10714275000000129,
            "durationTicks": 96,
            "midi": 0,
            "name": "C-1",
            "ticks": 15744,
            "time": 17.571411,
            "velocity": 0.5905511811023622
          },
          {
            "duration": 0.10714275000000129,
            "durationTicks": 96,
            "midi": 0,
            "name": "C-1",
            "ticks": 15744,
            "time": 17.571411,
            "velocity": 0.5905511811023622
          },
          {
            "duration": 0.10714275000000129,
            "durationTicks": 96,
            "midi": 0,
            "name": "C-1",
            "ticks": 15936,
            "time": 17.7856965,
            "velocity": 0.5905511811023622
          },
          {
            "duration": 0.10714275000000129,
            "durationTicks": 96,
            "midi": 0,
            "name": "C-1",
            "ticks": 16032,
            "time": 17.89283925,
            "velocity": 0.5905511811023622
          },
          {
            "duration": 0.10714274999999773,
            "durationTicks": 96,
            "midi": 0,
            "name": "C-1",
            "ticks": 16128,
            "time": 17.999982000000003,
            "velocity": 0.5905511811023622
          },
          {
            "duration": 0.10714275000000129,
            "durationTicks": 96,
            "midi": 0,
            "name": "C-1",
            "ticks": 16224,
            "time": 18.10712475,
            "velocity": 0.5905511811023622
          },
          {
            "duration": 0.10714275000000129,
            "durationTicks": 96,
            "midi": 0,
            "name": "C-1",
            "ticks": 16224,
            "time": 18.10712475,
            "velocity": 0.5905511811023622
          },
          {
            "duration": 0.10714275000000129,
            "durationTicks": 96,
            "midi": 0,
            "name": "C-1",
            "ticks": 16320,
            "time": 18.214267500000002,
            "velocity": 0.5905511811023622
          },
          {
            "duration": 0.10714275000000129,
            "durationTicks": 96,
            "midi": 0,
            "name": "C-1",
            "ticks": 16512,
            "time": 18.428553,
            "velocity": 0.5905511811023622
          },
          {
            "duration": 0.10714275000000129,
            "durationTicks": 96,
            "midi": 0,
            "name": "C-1",
            "ticks": 16512,
            "time": 18.428553,
            "velocity": 0.5905511811023622
          },
          {
            "duration": 0.10714275000000129,
            "durationTicks": 96,
            "midi": 0,
            "name": "C-1",
            "ticks": 16512,
            "time": 18.428553,
            "velocity": 0.5905511811023622
          },
          {
            "duration": 0.10714275000000129,
            "durationTicks": 96,
            "midi": 0,
            "name": "C-1",
            "ticks": 16704,
            "time": 18.6428385,
            "velocity": 0.5905511811023622
          },
          {
            "duration": 0.10714275000000129,
            "durationTicks": 96,
            "midi": 0,
            "name": "C-1",
            "ticks": 16704,
            "time": 18.6428385,
            "velocity": 0.5905511811023622
          },
          {
            "duration": 0.10714274999999773,
            "durationTicks": 96,
            "midi": 0,
            "name": "C-1",
            "ticks": 16896,
            "time": 18.857124000000002,
            "velocity": 0.5905511811023622
          },
          {
            "duration": 0.10714274999999773,
            "durationTicks": 96,
            "midi": 0,
            "name": "C-1",
            "ticks": 16896,
            "time": 18.857124000000002,
            "velocity": 0.5905511811023622
          },
          {
            "duration": 0.10714275000000129,
            "durationTicks": 96,
            "midi": 0,
            "name": "C-1",
            "ticks": 17088,
            "time": 19.0714095,
            "velocity": 0.5905511811023622
          },
          {
            "duration": 0.10714275000000129,
            "durationTicks": 96,
            "midi": 0,
            "name": "C-1",
            "ticks": 17280,
            "time": 19.285695,
            "velocity": 0.5905511811023622
          },
          {
            "duration": 0.10714275000000129,
            "durationTicks": 96,
            "midi": 0,
            "name": "C-1",
            "ticks": 17280,
            "time": 19.285695,
            "velocity": 0.5905511811023622
          },
          {
            "duration": 0.10714274999999773,
            "durationTicks": 96,
            "midi": 0,
            "name": "C-1",
            "ticks": 17472,
            "time": 19.499980500000003,
            "velocity": 0.5905511811023622
          },
          {
            "duration": 0.10714275000000129,
            "durationTicks": 96,
            "midi": 0,
            "name": "C-1",
            "ticks": 17568,
            "time": 19.60712325,
            "velocity": 0.5905511811023622
          },
          {
            "duration": 0.10714275000000129,
            "durationTicks": 96,
            "midi": 0,
            "name": "C-1",
            "ticks": 17664,
            "time": 19.714266000000002,
            "velocity": 0.5905511811023622
          },
          {
            "duration": 0.10714274999999773,
            "durationTicks": 96,
            "midi": 0,
            "name": "C-1",
            "ticks": 17760,
            "time": 19.821408750000003,
            "velocity": 0.5905511811023622
          },
          {
            "duration": 0.10714274999999773,
            "durationTicks": 96,
            "midi": 0,
            "name": "C-1",
            "ticks": 17760,
            "time": 19.821408750000003,
            "velocity": 0.5905511811023622
          },
          {
            "duration": 0.10714275000000129,
            "durationTicks": 96,
            "midi": 0,
            "name": "C-1",
            "ticks": 17856,
            "time": 19.9285515,
            "velocity": 0.5905511811023622
          },
          {
            "duration": 0.10714275000000129,
            "durationTicks": 96,
            "midi": 0,
            "name": "C-1",
            "ticks": 18048,
            "time": 20.142837,
            "velocity": 0.5905511811023622
          },
          {
            "duration": 0.10714275000000129,
            "durationTicks": 96,
            "midi": 0,
            "name": "C-1",
            "ticks": 18048,
            "time": 20.142837,
            "velocity": 0.5905511811023622
          },
          {
            "duration": 0.10714275000000129,
            "durationTicks": 96,
            "midi": 0,
            "name": "C-1",
            "ticks": 18048,
            "time": 20.142837,
            "velocity": 0.5905511811023622
          },
          {
            "duration": 0.10714274999999773,
            "durationTicks": 96,
            "midi": 0,
            "name": "C-1",
            "ticks": 18240,
            "time": 20.357122500000003,
            "velocity": 0.5905511811023622
          },
          {
            "duration": 0.10714274999999773,
            "durationTicks": 96,
            "midi": 0,
            "name": "C-1",
            "ticks": 18240,
            "time": 20.357122500000003,
            "velocity": 0.5905511811023622
          },
          {
            "duration": 0.10714275000000129,
            "durationTicks": 96,
            "midi": 0,
            "name": "C-1",
            "ticks": 18432,
            "time": 20.571408,
            "velocity": 0.5905511811023622
          },
          {
            "duration": 0.10714275000000129,
            "durationTicks": 96,
            "midi": 0,
            "name": "C-1",
            "ticks": 18432,
            "time": 20.571408,
            "velocity": 0.5905511811023622
          },
          {
            "duration": 0.10714275000000129,
            "durationTicks": 96,
            "midi": 0,
            "name": "C-1",
            "ticks": 18624,
            "time": 20.7856935,
            "velocity": 0.5905511811023622
          },
          {
            "duration": 0.10714274999999773,
            "durationTicks": 96,
            "midi": 0,
            "name": "C-1",
            "ticks": 18816,
            "time": 20.999979000000003,
            "velocity": 0.5905511811023622
          },
          {
            "duration": 0.10714274999999773,
            "durationTicks": 96,
            "midi": 0,
            "name": "C-1",
            "ticks": 18816,
            "time": 20.999979000000003,
            "velocity": 0.5905511811023622
          },
          {
            "duration": 0.10714274999999773,
            "durationTicks": 96,
            "midi": 0,
            "name": "C-1",
            "ticks": 19008,
            "time": 21.214264500000002,
            "velocity": 0.5905511811023622
          },
          {
            "duration": 0.10714275000000129,
            "durationTicks": 96,
            "midi": 0,
            "name": "C-1",
            "ticks": 19104,
            "time": 21.32140725,
            "velocity": 0.5905511811023622
          },
          {
            "duration": 0.10714275000000129,
            "durationTicks": 96,
            "midi": 0,
            "name": "C-1",
            "ticks": 19200,
            "time": 21.42855,
            "velocity": 0.5905511811023622
          },
          {
            "duration": 0.10714274999999773,
            "durationTicks": 96,
            "midi": 0,
            "name": "C-1",
            "ticks": 19296,
            "time": 21.535692750000003,
            "velocity": 0.5905511811023622
          },
          {
            "duration": 0.10714274999999773,
            "durationTicks": 96,
            "midi": 0,
            "name": "C-1",
            "ticks": 19296,
            "time": 21.535692750000003,
            "velocity": 0.5905511811023622
          },
          {
            "duration": 0.10714275000000129,
            "durationTicks": 96,
            "midi": 0,
            "name": "C-1",
            "ticks": 19392,
            "time": 21.6428355,
            "velocity": 0.5905511811023622
          },
          {
            "duration": 0.10714274999999773,
            "durationTicks": 96,
            "midi": 0,
            "name": "C-1",
            "ticks": 19584,
            "time": 21.857121000000003,
            "velocity": 0.5905511811023622
          },
          {
            "duration": 0.10714274999999773,
            "durationTicks": 96,
            "midi": 0,
            "name": "C-1",
            "ticks": 19584,
            "time": 21.857121000000003,
            "velocity": 0.5905511811023622
          },
          {
            "duration": 0.10714274999999773,
            "durationTicks": 96,
            "midi": 0,
            "name": "C-1",
            "ticks": 19584,
            "time": 21.857121000000003,
            "velocity": 0.5905511811023622
          },
          {
            "duration": 0.10714275000000129,
            "durationTicks": 96,
            "midi": 0,
            "name": "C-1",
            "ticks": 19776,
            "time": 22.071406500000002,
            "velocity": 0.5905511811023622
          },
          {
            "duration": 0.10714275000000129,
            "durationTicks": 96,
            "midi": 0,
            "name": "C-1",
            "ticks": 19776,
            "time": 22.071406500000002,
            "velocity": 0.5905511811023622
          },
          {
            "duration": 0.10714275000000129,
            "durationTicks": 96,
            "midi": 0,
            "name": "C-1",
            "ticks": 19968,
            "time": 22.285692,
            "velocity": 0.5905511811023622
          },
          {
            "duration": 0.10714275000000129,
            "durationTicks": 96,
            "midi": 0,
            "name": "C-1",
            "ticks": 19968,
            "time": 22.285692,
            "velocity": 0.5905511811023622
          },
          {
            "duration": 0.10714274999999773,
            "durationTicks": 96,
            "midi": 0,
            "name": "C-1",
            "ticks": 20160,
            "time": 22.499977500000004,
            "velocity": 0.5905511811023622
          },
          {
            "duration": 0.10714274999999773,
            "durationTicks": 96,
            "midi": 0,
            "name": "C-1",
            "ticks": 20352,
            "time": 22.714263000000003,
            "velocity": 0.5905511811023622
          },
          {
            "duration": 0.10714274999999773,
            "durationTicks": 96,
            "midi": 0,
            "name": "C-1",
            "ticks": 20352,
            "time": 22.714263000000003,
            "velocity": 0.5905511811023622
          },
          {
            "duration": 0.10714275000000129,
            "durationTicks": 96,
            "midi": 0,
            "name": "C-1",
            "ticks": 20544,
            "time": 22.9285485,
            "velocity": 0.5905511811023622
          },
          {
            "duration": 0.10714274999999773,
            "durationTicks": 96,
            "midi": 0,
            "name": "C-1",
            "ticks": 20640,
            "time": 23.035691250000003,
            "velocity": 0.5905511811023622
          },
          {
            "duration": 0.10714275000000129,
            "durationTicks": 96,
            "midi": 0,
            "name": "C-1",
            "ticks": 20736,
            "time": 23.142834,
            "velocity": 0.5905511811023622
          },
          {
            "duration": 0.10714275000000129,
            "durationTicks": 96,
            "midi": 0,
            "name": "C-1",
            "ticks": 20832,
            "time": 23.249976750000002,
            "velocity": 0.5905511811023622
          },
          {
            "duration": 0.10714275000000129,
            "durationTicks": 96,
            "midi": 0,
            "name": "C-1",
            "ticks": 20832,
            "time": 23.249976750000002,
            "velocity": 0.5905511811023622
          },
          {
            "duration": 0.10714274999999773,
            "durationTicks": 96,
            "midi": 0,
            "name": "C-1",
            "ticks": 20928,
            "time": 23.357119500000003,
            "velocity": 0.5905511811023622
          },
          {
            "duration": 0.10714275000000129,
            "durationTicks": 96,
            "midi": 0,
            "name": "C-1",
            "ticks": 21120,
            "time": 23.571405000000002,
            "velocity": 0.5905511811023622
          },
          {
            "duration": 0.10714275000000129,
            "durationTicks": 96,
            "midi": 0,
            "name": "C-1",
            "ticks": 21120,
            "time": 23.571405000000002,
            "velocity": 0.5905511811023622
          },
          {
            "duration": 0.10714275000000129,
            "durationTicks": 96,
            "midi": 0,
            "name": "C-1",
            "ticks": 21120,
            "time": 23.571405000000002,
            "velocity": 0.5905511811023622
          },
          {
            "duration": 0.10714275000000129,
            "durationTicks": 96,
            "midi": 0,
            "name": "C-1",
            "ticks": 21312,
            "time": 23.7856905,
            "velocity": 0.5905511811023622
          },
          {
            "duration": 0.10714275000000129,
            "durationTicks": 96,
            "midi": 0,
            "name": "C-1",
            "ticks": 21312,
            "time": 23.7856905,
            "velocity": 0.5905511811023622
          },
          {
            "duration": 0.10714274999999773,
            "durationTicks": 96,
            "midi": 0,
            "name": "C-1",
            "ticks": 21504,
            "time": 23.999976000000004,
            "velocity": 0.5905511811023622
          },
          {
            "duration": 0.10714274999999773,
            "durationTicks": 96,
            "midi": 0,
            "name": "C-1",
            "ticks": 21504,
            "time": 23.999976000000004,
            "velocity": 0.5905511811023622
          },
          {
            "duration": 0.10714274999999773,
            "durationTicks": 96,
            "midi": 0,
            "name": "C-1",
            "ticks": 21696,
            "time": 24.214261500000003,
            "velocity": 0.5905511811023622
          },
          {
            "duration": 0.10714275000000129,
            "durationTicks": 96,
            "midi": 0,
            "name": "C-1",
            "ticks": 21888,
            "time": 24.428547000000002,
            "velocity": 0.5905511811023622
          },
          {
            "duration": 0.10714275000000129,
            "durationTicks": 96,
            "midi": 0,
            "name": "C-1",
            "ticks": 21888,
            "time": 24.428547000000002,
            "velocity": 0.5905511811023622
          },
          {
            "duration": 0.10714275000000129,
            "durationTicks": 96,
            "midi": 0,
            "name": "C-1",
            "ticks": 22080,
            "time": 24.6428325,
            "velocity": 0.5905511811023622
          },
          {
            "duration": 0.10714275000000129,
            "durationTicks": 96,
            "midi": 0,
            "name": "C-1",
            "ticks": 22176,
            "time": 24.749975250000002,
            "velocity": 0.5905511811023622
          },
          {
            "duration": 0.10714274999999773,
            "durationTicks": 96,
            "midi": 0,
            "name": "C-1",
            "ticks": 22272,
            "time": 24.857118000000003,
            "velocity": 0.5905511811023622
          },
          {
            "duration": 0.10714275000000129,
            "durationTicks": 96,
            "midi": 0,
            "name": "C-1",
            "ticks": 22368,
            "time": 24.96426075,
            "velocity": 0.5905511811023622
          },
          {
            "duration": 0.10714275000000129,
            "durationTicks": 96,
            "midi": 0,
            "name": "C-1",
            "ticks": 22368,
            "time": 24.96426075,
            "velocity": 0.5905511811023622
          },
          {
            "duration": 0.10714275000000129,
            "durationTicks": 96,
            "midi": 0,
            "name": "C-1",
            "ticks": 22464,
            "time": 25.071403500000002,
            "velocity": 0.5905511811023622
          },
          {
            "duration": 0.10714275000000129,
            "durationTicks": 96,
            "midi": 0,
            "name": "C-1",
            "ticks": 22656,
            "time": 25.285689,
            "velocity": 0.5905511811023622
          },
          {
            "duration": 0.10714275000000129,
            "durationTicks": 96,
            "midi": 0,
            "name": "C-1",
            "ticks": 22656,
            "time": 25.285689,
            "velocity": 0.5905511811023622
          },
          {
            "duration": 0.10714275000000129,
            "durationTicks": 96,
            "midi": 0,
            "name": "C-1",
            "ticks": 22656,
            "time": 25.285689,
            "velocity": 0.5905511811023622
          },
          {
            "duration": 0.10714275000000129,
            "durationTicks": 96,
            "midi": 0,
            "name": "C-1",
            "ticks": 22848,
            "time": 25.4999745,
            "velocity": 0.5905511811023622
          },
          {
            "duration": 0.10714275000000129,
            "durationTicks": 96,
            "midi": 0,
            "name": "C-1",
            "ticks": 22848,
            "time": 25.4999745,
            "velocity": 0.5905511811023622
          },
          {
            "duration": 0.10714274999999773,
            "durationTicks": 96,
            "midi": 0,
            "name": "C-1",
            "ticks": 23040,
            "time": 25.714260000000003,
            "velocity": 0.5905511811023622
          },
          {
            "duration": 0.10714274999999773,
            "durationTicks": 96,
            "midi": 0,
            "name": "C-1",
            "ticks": 23040,
            "time": 25.714260000000003,
            "velocity": 0.5905511811023622
          },
          {
            "duration": 0.10714275000000129,
            "durationTicks": 96,
            "midi": 0,
            "name": "C-1",
            "ticks": 23232,
            "time": 25.928545500000002,
            "velocity": 0.5905511811023622
          },
          {
            "duration": 0.10714275000000129,
            "durationTicks": 96,
            "midi": 0,
            "name": "C-1",
            "ticks": 23424,
            "time": 26.142831,
            "velocity": 0.5905511811023622
          },
          {
            "duration": 0.10714275000000129,
            "durationTicks": 96,
            "midi": 0,
            "name": "C-1",
            "ticks": 23424,
            "time": 26.142831,
            "velocity": 0.5905511811023622
          },
          {
            "duration": 0.10714274999999773,
            "durationTicks": 96,
            "midi": 0,
            "name": "C-1",
            "ticks": 23616,
            "time": 26.357116500000004,
            "velocity": 0.5905511811023622
          },
          {
            "duration": 0.10714275000000129,
            "durationTicks": 96,
            "midi": 0,
            "name": "C-1",
            "ticks": 23712,
            "time": 26.46425925,
            "velocity": 0.5905511811023622
          },
          {
            "duration": 0.10714275000000129,
            "durationTicks": 96,
            "midi": 0,
            "name": "C-1",
            "ticks": 23808,
            "time": 26.571402000000003,
            "velocity": 0.5905511811023622
          },
          {
            "duration": 0.10714274999999773,
            "durationTicks": 96,
            "midi": 0,
            "name": "C-1",
            "ticks": 23904,
            "time": 26.678544750000004,
            "velocity": 0.5905511811023622
          },
          {
            "duration": 0.10714274999999773,
            "durationTicks": 96,
            "midi": 0,
            "name": "C-1",
            "ticks": 23904,
            "time": 26.678544750000004,
            "velocity": 0.5905511811023622
          },
          {
            "duration": 0.10714275000000129,
            "durationTicks": 96,
            "midi": 0,
            "name": "C-1",
            "ticks": 24000,
            "time": 26.7856875,
            "velocity": 0.5905511811023622
          },
          {
            "duration": 0.10714275000000129,
            "durationTicks": 96,
            "midi": 0,
            "name": "C-1",
            "ticks": 24192,
            "time": 26.999973,
            "velocity": 0.5905511811023622
          },
          {
            "duration": 0.10714275000000129,
            "durationTicks": 96,
            "midi": 0,
            "name": "C-1",
            "ticks": 24192,
            "time": 26.999973,
            "velocity": 0.5905511811023622
          },
          {
            "duration": 0.10714275000000129,
            "durationTicks": 96,
            "midi": 0,
            "name": "C-1",
            "ticks": 24192,
            "time": 26.999973,
            "velocity": 0.5905511811023622
          },
          {
            "duration": 0.10714274999999773,
            "durationTicks": 96,
            "midi": 0,
            "name": "C-1",
            "ticks": 24384,
            "time": 27.214258500000003,
            "velocity": 0.5905511811023622
          },
          {
            "duration": 0.10714274999999773,
            "durationTicks": 96,
            "midi": 0,
            "name": "C-1",
            "ticks": 24384,
            "time": 27.214258500000003,
            "velocity": 0.5905511811023622
          },
          {
            "duration": 0.10714275000000129,
            "durationTicks": 96,
            "midi": 0,
            "name": "C-1",
            "ticks": 24576,
            "time": 27.428544000000002,
            "velocity": 0.5905511811023622
          },
          {
            "duration": 0.10714275000000129,
            "durationTicks": 96,
            "midi": 0,
            "name": "C-1",
            "ticks": 24576,
            "time": 27.428544000000002,
            "velocity": 0.5905511811023622
          },
          {
            "duration": 0.10714275000000129,
            "durationTicks": 96,
            "midi": 0,
            "name": "C-1",
            "ticks": 24768,
            "time": 27.6428295,
            "velocity": 0.5905511811023622
          },
          {
            "duration": 0.10714274999999773,
            "durationTicks": 96,
            "midi": 0,
            "name": "C-1",
            "ticks": 24960,
            "time": 27.857115000000004,
            "velocity": 0.5905511811023622
          },
          {
            "duration": 0.10714274999999773,
            "durationTicks": 96,
            "midi": 0,
            "name": "C-1",
            "ticks": 24960,
            "time": 27.857115000000004,
            "velocity": 0.5905511811023622
          },
          {
            "duration": 0.10714274999999773,
            "durationTicks": 96,
            "midi": 0,
            "name": "C-1",
            "ticks": 25152,
            "time": 28.071400500000003,
            "velocity": 0.5905511811023622
          },
          {
            "duration": 0.10714275000000129,
            "durationTicks": 96,
            "midi": 0,
            "name": "C-1",
            "ticks": 25248,
            "time": 28.17854325,
            "velocity": 0.5905511811023622
          },
          {
            "duration": 0.10714275000000129,
            "durationTicks": 96,
            "midi": 0,
            "name": "C-1",
            "ticks": 25344,
            "time": 28.285686000000002,
            "velocity": 0.5905511811023622
          },
          {
            "duration": 0.10714274999999773,
            "durationTicks": 96,
            "midi": 0,
            "name": "C-1",
            "ticks": 25440,
            "time": 28.392828750000003,
            "velocity": 0.5905511811023622
          },
          {
            "duration": 0.10714274999999773,
            "durationTicks": 96,
            "midi": 0,
            "name": "C-1",
            "ticks": 25440,
            "time": 28.392828750000003,
            "velocity": 0.5905511811023622
          },
          {
            "duration": 0.10714275000000129,
            "durationTicks": 96,
            "midi": 0,
            "name": "C-1",
            "ticks": 25536,
            "time": 28.4999715,
            "velocity": 0.5905511811023622
          },
          {
            "duration": 0.10714274999999773,
            "durationTicks": 96,
            "midi": 0,
            "name": "C-1",
            "ticks": 25728,
            "time": 28.714257000000003,
            "velocity": 0.5905511811023622
          },
          {
            "duration": 0.10714274999999773,
            "durationTicks": 96,
            "midi": 0,
            "name": "C-1",
            "ticks": 25728,
            "time": 28.714257000000003,
            "velocity": 0.5905511811023622
          },
          {
            "duration": 0.10714274999999773,
            "durationTicks": 96,
            "midi": 0,
            "name": "C-1",
            "ticks": 25728,
            "time": 28.714257000000003,
            "velocity": 0.5905511811023622
          },
          {
            "duration": 0.10714275000000129,
            "durationTicks": 96,
            "midi": 0,
            "name": "C-1",
            "ticks": 25920,
            "time": 28.928542500000002,
            "velocity": 0.5905511811023622
          },
          {
            "duration": 0.10714275000000129,
            "durationTicks": 96,
            "midi": 0,
            "name": "C-1",
            "ticks": 25920,
            "time": 28.928542500000002,
            "velocity": 0.5905511811023622
          },
          {
            "duration": 0.10714275000000129,
            "durationTicks": 96,
            "midi": 0,
            "name": "C-1",
            "ticks": 26112,
            "time": 29.142828,
            "velocity": 0.5905511811023622
          },
          {
            "duration": 0.10714275000000129,
            "durationTicks": 96,
            "midi": 0,
            "name": "C-1",
            "ticks": 26112,
            "time": 29.142828,
            "velocity": 0.5905511811023622
          },
          {
            "duration": 0.10714274999999773,
            "durationTicks": 96,
            "midi": 0,
            "name": "C-1",
            "ticks": 26304,
            "time": 29.357113500000004,
            "velocity": 0.5905511811023622
          },
          {
            "duration": 0.10714274999999773,
            "durationTicks": 96,
            "midi": 0,
            "name": "C-1",
            "ticks": 26496,
            "time": 29.571399000000003,
            "velocity": 0.5905511811023622
          },
          {
            "duration": 0.10714274999999773,
            "durationTicks": 96,
            "midi": 0,
            "name": "C-1",
            "ticks": 26496,
            "time": 29.571399000000003,
            "velocity": 0.5905511811023622
          },
          {
            "duration": 0.10714275000000129,
            "durationTicks": 96,
            "midi": 0,
            "name": "C-1",
            "ticks": 26688,
            "time": 29.785684500000002,
            "velocity": 0.5905511811023622
          },
          {
            "duration": 0.10714274999999773,
            "durationTicks": 96,
            "midi": 0,
            "name": "C-1",
            "ticks": 26784,
            "time": 29.892827250000003,
            "velocity": 0.5905511811023622
          },
          {
            "duration": 0.10714275000000129,
            "durationTicks": 96,
            "midi": 0,
            "name": "C-1",
            "ticks": 26880,
            "time": 29.99997,
            "velocity": 0.5905511811023622
          },
          {
            "duration": 0.10714275000000129,
            "durationTicks": 96,
            "midi": 0,
            "name": "C-1",
            "ticks": 26976,
            "time": 30.107112750000002,
            "velocity": 0.5905511811023622
          },
          {
            "duration": 0.10714275000000129,
            "durationTicks": 96,
            "midi": 0,
            "name": "C-1",
            "ticks": 26976,
            "time": 30.107112750000002,
            "velocity": 0.5905511811023622
          },
          {
            "duration": 0.10714274999999773,
            "durationTicks": 96,
            "midi": 0,
            "name": "C-1",
            "ticks": 27072,
            "time": 30.214255500000004,
            "velocity": 0.5905511811023622
          },
          {
            "duration": 0.10714275000000129,
            "durationTicks": 96,
            "midi": 0,
            "name": "C-1",
            "ticks": 27264,
            "time": 30.428541000000003,
            "velocity": 0.5905511811023622
          },
          {
            "duration": 0.10714275000000129,
            "durationTicks": 96,
            "midi": 0,
            "name": "C-1",
            "ticks": 27264,
            "time": 30.428541000000003,
            "velocity": 0.5905511811023622
          },
          {
            "duration": 0.10714275000000129,
            "durationTicks": 96,
            "midi": 0,
            "name": "C-1",
            "ticks": 27264,
            "time": 30.428541000000003,
            "velocity": 0.5905511811023622
          },
          {
            "duration": 0.10714275000000129,
            "durationTicks": 96,
            "midi": 0,
            "name": "C-1",
            "ticks": 27456,
            "time": 30.6428265,
            "velocity": 0.5905511811023622
          },
          {
            "duration": 0.10714275000000129,
            "durationTicks": 96,
            "midi": 0,
            "name": "C-1",
            "ticks": 27456,
            "time": 30.6428265,
            "velocity": 0.5905511811023622
          },
          {
            "duration": 0.10714275000000129,
            "durationTicks": 96,
            "midi": 0,
            "name": "C-1",
            "ticks": 27648,
            "time": 30.857112,
            "velocity": 0.5905511811023622
          },
          {
            "duration": 0.10714275000000129,
            "durationTicks": 96,
            "midi": 0,
            "name": "C-1",
            "ticks": 27648,
            "time": 30.857112,
            "velocity": 0.5905511811023622
          },
          {
            "duration": 0.10714274999999773,
            "durationTicks": 96,
            "midi": 0,
            "name": "C-1",
            "ticks": 27840,
            "time": 31.071397500000003,
            "velocity": 0.5905511811023622
          },
          {
            "duration": 0.10714275000000129,
            "durationTicks": 96,
            "midi": 0,
            "name": "C-1",
            "ticks": 28032,
            "time": 31.285683000000002,
            "velocity": 0.5905511811023622
          },
          {
            "duration": 0.10714275000000129,
            "durationTicks": 96,
            "midi": 0,
            "name": "C-1",
            "ticks": 28032,
            "time": 31.285683000000002,
            "velocity": 0.5905511811023622
          },
          {
            "duration": 0.10714275000000129,
            "durationTicks": 96,
            "midi": 0,
            "name": "C-1",
            "ticks": 28224,
            "time": 31.4999685,
            "velocity": 0.5905511811023622
          },
          {
            "duration": 0.10714275000000129,
            "durationTicks": 96,
            "midi": 0,
            "name": "C-1",
            "ticks": 28320,
            "time": 31.607111250000003,
            "velocity": 0.5905511811023622
          },
          {
            "duration": 0.10714274999999773,
            "durationTicks": 96,
            "midi": 0,
            "name": "C-1",
            "ticks": 28416,
            "time": 31.714254000000004,
            "velocity": 0.5905511811023622
          },
          {
            "duration": 0.10714275000000129,
            "durationTicks": 96,
            "midi": 0,
            "name": "C-1",
            "ticks": 28512,
            "time": 31.82139675,
            "velocity": 0.5905511811023622
          },
          {
            "duration": 0.10714275000000129,
            "durationTicks": 96,
            "midi": 0,
            "name": "C-1",
            "ticks": 28512,
            "time": 31.82139675,
            "velocity": 0.5905511811023622
          },
          {
            "duration": 0.10714274999999773,
            "durationTicks": 96,
            "midi": 0,
            "name": "C-1",
            "ticks": 28608,
            "time": 31.928539500000003,
            "velocity": 0.5905511811023622
          },
          {
            "duration": 0.10714275000000129,
            "durationTicks": 96,
            "midi": 0,
            "name": "C-1",
            "ticks": 28800,
            "time": 32.142825,
            "velocity": 0.5905511811023622
          },
          {
            "duration": 0.10714275000000129,
            "durationTicks": 96,
            "midi": 0,
            "name": "C-1",
            "ticks": 28800,
            "time": 32.142825,
            "velocity": 0.5905511811023622
          },
          {
            "duration": 0.10714275000000129,
            "durationTicks": 96,
            "midi": 0,
            "name": "C-1",
            "ticks": 28800,
            "time": 32.142825,
            "velocity": 0.5905511811023622
          },
          {
            "duration": 0.10714275000000129,
            "durationTicks": 96,
            "midi": 0,
            "name": "C-1",
            "ticks": 28992,
            "time": 32.357110500000005,
            "velocity": 0.5905511811023622
          },
          {
            "duration": 0.10714275000000129,
            "durationTicks": 96,
            "midi": 0,
            "name": "C-1",
            "ticks": 28992,
            "time": 32.357110500000005,
            "velocity": 0.5905511811023622
          },
          {
            "duration": 0.10714275000000129,
            "durationTicks": 96,
            "midi": 0,
            "name": "C-1",
            "ticks": 29184,
            "time": 32.571396,
            "velocity": 0.5905511811023622
          },
          {
            "duration": 0.10714275000000129,
            "durationTicks": 96,
            "midi": 0,
            "name": "C-1",
            "ticks": 29184,
            "time": 32.571396,
            "velocity": 0.5905511811023622
          },
          {
            "duration": 0.10714275000000129,
            "durationTicks": 96,
            "midi": 0,
            "name": "C-1",
            "ticks": 29376,
            "time": 32.7856815,
            "velocity": 0.5905511811023622
          },
          {
            "duration": 0.10714274999999418,
            "durationTicks": 96,
            "midi": 0,
            "name": "C-1",
            "ticks": 29568,
            "time": 32.999967000000005,
            "velocity": 0.5905511811023622
          },
          {
            "duration": 0.10714274999999418,
            "durationTicks": 96,
            "midi": 0,
            "name": "C-1",
            "ticks": 29568,
            "time": 32.999967000000005,
            "velocity": 0.5905511811023622
          },
          {
            "duration": 0.10714275000000129,
            "durationTicks": 96,
            "midi": 0,
            "name": "C-1",
            "ticks": 29760,
            "time": 33.2142525,
            "velocity": 0.5905511811023622
          },
          {
            "duration": 0.10714275000000129,
            "durationTicks": 96,
            "midi": 0,
            "name": "C-1",
            "ticks": 29856,
            "time": 33.32139525,
            "velocity": 0.5905511811023622
          },
          {
            "duration": 0.10714275000000129,
            "durationTicks": 96,
            "midi": 0,
            "name": "C-1",
            "ticks": 29952,
            "time": 33.428538,
            "velocity": 0.5905511811023622
          },
          {
            "duration": 0.10714275000000129,
            "durationTicks": 96,
            "midi": 0,
            "name": "C-1",
            "ticks": 30048,
            "time": 33.535680750000004,
            "velocity": 0.5905511811023622
          },
          {
            "duration": 0.10714275000000129,
            "durationTicks": 96,
            "midi": 0,
            "name": "C-1",
            "ticks": 30048,
            "time": 33.535680750000004,
            "velocity": 0.5905511811023622
          },
          {
            "duration": 0.10714274999999418,
            "durationTicks": 96,
            "midi": 0,
            "name": "C-1",
            "ticks": 30144,
            "time": 33.642823500000006,
            "velocity": 0.5905511811023622
          },
          {
            "duration": 0.10714275000000129,
            "durationTicks": 96,
            "midi": 0,
            "name": "C-1",
            "ticks": 30336,
            "time": 33.857109,
            "velocity": 0.5905511811023622
          },
          {
            "duration": 0.10714275000000129,
            "durationTicks": 96,
            "midi": 0,
            "name": "C-1",
            "ticks": 30336,
            "time": 33.857109,
            "velocity": 0.5905511811023622
          },
          {
            "duration": 0.10714275000000129,
            "durationTicks": 96,
            "midi": 0,
            "name": "C-1",
            "ticks": 30336,
            "time": 33.857109,
            "velocity": 0.5905511811023622
          },
          {
            "duration": 0.10714275000000129,
            "durationTicks": 96,
            "midi": 0,
            "name": "C-1",
            "ticks": 30528,
            "time": 34.071394500000004,
            "velocity": 0.5905511811023622
          },
          {
            "duration": 0.10714275000000129,
            "durationTicks": 96,
            "midi": 0,
            "name": "C-1",
            "ticks": 30528,
            "time": 34.071394500000004,
            "velocity": 0.5905511811023622
          },
          {
            "duration": 0.10714275000000129,
            "durationTicks": 96,
            "midi": 0,
            "name": "C-1",
            "ticks": 30720,
            "time": 34.28568,
            "velocity": 0.5905511811023622
          },
          {
            "duration": 0.10714275000000129,
            "durationTicks": 96,
            "midi": 0,
            "name": "C-1",
            "ticks": 30720,
            "time": 34.28568,
            "velocity": 0.5905511811023622
          },
          {
            "duration": 0.10714275000000129,
            "durationTicks": 96,
            "midi": 0,
            "name": "C-1",
            "ticks": 30912,
            "time": 34.4999655,
            "velocity": 0.5905511811023622
          },
          {
            "duration": 0.10714275000000129,
            "durationTicks": 96,
            "midi": 0,
            "name": "C-1",
            "ticks": 31104,
            "time": 34.714251000000004,
            "velocity": 0.5905511811023622
          },
          {
            "duration": 0.10714275000000129,
            "durationTicks": 96,
            "midi": 0,
            "name": "C-1",
            "ticks": 31104,
            "time": 34.714251000000004,
            "velocity": 0.5905511811023622
          },
          {
            "duration": 0.10714275000000129,
            "durationTicks": 96,
            "midi": 0,
            "name": "C-1",
            "ticks": 31296,
            "time": 34.9285365,
            "velocity": 0.5905511811023622
          },
          {
            "duration": 0.10714275000000129,
            "durationTicks": 96,
            "midi": 0,
            "name": "C-1",
            "ticks": 31392,
            "time": 35.03567925,
            "velocity": 0.5905511811023622
          },
          {
            "duration": 0.10714275000000129,
            "durationTicks": 96,
            "midi": 0,
            "name": "C-1",
            "ticks": 31488,
            "time": 35.142822,
            "velocity": 0.5905511811023622
          },
          {
            "duration": 0.10714275000000129,
            "durationTicks": 96,
            "midi": 0,
            "name": "C-1",
            "ticks": 31584,
            "time": 35.249964750000004,
            "velocity": 0.5905511811023622
          },
          {
            "duration": 0.10714275000000129,
            "durationTicks": 96,
            "midi": 0,
            "name": "C-1",
            "ticks": 31584,
            "time": 35.249964750000004,
            "velocity": 0.5905511811023622
          },
          {
            "duration": 0.10714275000000129,
            "durationTicks": 96,
            "midi": 0,
            "name": "C-1",
            "ticks": 31680,
            "time": 35.357107500000005,
            "velocity": 0.5905511811023622
          },
          {
            "duration": 0.10714275000000129,
            "durationTicks": 96,
            "midi": 0,
            "name": "C-1",
            "ticks": 31872,
            "time": 35.571393,
            "velocity": 0.5905511811023622
          },
          {
            "duration": 0.10714275000000129,
            "durationTicks": 96,
            "midi": 0,
            "name": "C-1",
            "ticks": 31872,
            "time": 35.571393,
            "velocity": 0.5905511811023622
          },
          {
            "duration": 0.10714275000000129,
            "durationTicks": 96,
            "midi": 0,
            "name": "C-1",
            "ticks": 31872,
            "time": 35.571393,
            "velocity": 0.5905511811023622
          },
          {
            "duration": 0.10714275000000129,
            "durationTicks": 96,
            "midi": 0,
            "name": "C-1",
            "ticks": 32064,
            "time": 35.7856785,
            "velocity": 0.5905511811023622
          },
          {
            "duration": 0.10714275000000129,
            "durationTicks": 96,
            "midi": 0,
            "name": "C-1",
            "ticks": 32064,
            "time": 35.7856785,
            "velocity": 0.5905511811023622
          },
          {
            "duration": 0.10714274999999418,
            "durationTicks": 96,
            "midi": 0,
            "name": "C-1",
            "ticks": 32256,
            "time": 35.999964000000006,
            "velocity": 0.5905511811023622
          },
          {
            "duration": 0.10714274999999418,
            "durationTicks": 96,
            "midi": 0,
            "name": "C-1",
            "ticks": 32256,
            "time": 35.999964000000006,
            "velocity": 0.5905511811023622
          },
          {
            "duration": 0.10714275000000129,
            "durationTicks": 96,
            "midi": 0,
            "name": "C-1",
            "ticks": 32448,
            "time": 36.2142495,
            "velocity": 0.5905511811023622
          },
          {
            "duration": 0.10714275000000129,
            "durationTicks": 96,
            "midi": 0,
            "name": "C-1",
            "ticks": 32640,
            "time": 36.428535000000004,
            "velocity": 0.5905511811023622
          },
          {
            "duration": 0.10714275000000129,
            "durationTicks": 96,
            "midi": 0,
            "name": "C-1",
            "ticks": 32640,
            "time": 36.428535000000004,
            "velocity": 0.5905511811023622
          },
          {
            "duration": 0.10714274999999418,
            "durationTicks": 96,
            "midi": 0,
            "name": "C-1",
            "ticks": 32832,
            "time": 36.642820500000006,
            "velocity": 0.5905511811023622
          },
          {
            "duration": 0.10714275000000129,
            "durationTicks": 96,
            "midi": 0,
            "name": "C-1",
            "ticks": 32928,
            "time": 36.74996325,
            "velocity": 0.5905511811023622
          },
          {
            "duration": 0.10714275000000129,
            "durationTicks": 96,
            "midi": 0,
            "name": "C-1",
            "ticks": 33024,
            "time": 36.857106,
            "velocity": 0.5905511811023622
          },
          {
            "duration": 0.10714275000000129,
            "durationTicks": 96,
            "midi": 0,
            "name": "C-1",
            "ticks": 33120,
            "time": 36.96424875,
            "velocity": 0.5905511811023622
          },
          {
            "duration": 0.10714275000000129,
            "durationTicks": 96,
            "midi": 0,
            "name": "C-1",
            "ticks": 33120,
            "time": 36.96424875,
            "velocity": 0.5905511811023622
          },
          {
            "duration": 0.10714275000000129,
            "durationTicks": 96,
            "midi": 0,
            "name": "C-1",
            "ticks": 33216,
            "time": 37.071391500000004,
            "velocity": 0.5905511811023622
          },
          {
            "duration": 0.10714275000000129,
            "durationTicks": 96,
            "midi": 0,
            "name": "C-1",
            "ticks": 33408,
            "time": 37.285677,
            "velocity": 0.5905511811023622
          },
          {
            "duration": 0.10714275000000129,
            "durationTicks": 96,
            "midi": 0,
            "name": "C-1",
            "ticks": 33408,
            "time": 37.285677,
            "velocity": 0.5905511811023622
          },
          {
            "duration": 0.10714275000000129,
            "durationTicks": 96,
            "midi": 0,
            "name": "C-1",
            "ticks": 33408,
            "time": 37.285677,
            "velocity": 0.5905511811023622
          },
          {
            "duration": 0.10714275000000129,
            "durationTicks": 96,
            "midi": 0,
            "name": "C-1",
            "ticks": 33600,
            "time": 37.4999625,
            "velocity": 0.5905511811023622
          },
          {
            "duration": 0.10714275000000129,
            "durationTicks": 96,
            "midi": 0,
            "name": "C-1",
            "ticks": 33600,
            "time": 37.4999625,
            "velocity": 0.5905511811023622
          },
          {
            "duration": 0.10714275000000129,
            "durationTicks": 96,
            "midi": 0,
            "name": "C-1",
            "ticks": 33792,
            "time": 37.714248000000005,
            "velocity": 0.5905511811023622
          },
          {
            "duration": 0.10714275000000129,
            "durationTicks": 96,
            "midi": 0,
            "name": "C-1",
            "ticks": 33792,
            "time": 37.714248000000005,
            "velocity": 0.5905511811023622
          },
          {
            "duration": 0.10714275000000129,
            "durationTicks": 96,
            "midi": 0,
            "name": "C-1",
            "ticks": 33984,
            "time": 37.9285335,
            "velocity": 0.5905511811023622
          },
          {
            "duration": 0.10714275000000129,
            "durationTicks": 96,
            "midi": 0,
            "name": "C-1",
            "ticks": 34176,
            "time": 38.142819,
            "velocity": 0.5905511811023622
          },
          {
            "duration": 0.10714275000000129,
            "durationTicks": 96,
            "midi": 0,
            "name": "C-1",
            "ticks": 34176,
            "time": 38.142819,
            "velocity": 0.5905511811023622
          },
          {
            "duration": 0.10714274999999418,
            "durationTicks": 96,
            "midi": 0,
            "name": "C-1",
            "ticks": 34368,
            "time": 38.357104500000005,
            "velocity": 0.5905511811023622
          },
          {
            "duration": 0.10714275000000129,
            "durationTicks": 96,
            "midi": 0,
            "name": "C-1",
            "ticks": 34464,
            "time": 38.46424725,
            "velocity": 0.5905511811023622
          },
          {
            "duration": 0.10714275000000129,
            "durationTicks": 96,
            "midi": 0,
            "name": "C-1",
            "ticks": 34560,
            "time": 38.57139,
            "velocity": 0.5905511811023622
          },
          {
            "duration": 0.10714275000000129,
            "durationTicks": 96,
            "midi": 0,
            "name": "C-1",
            "ticks": 34656,
            "time": 38.67853275,
            "velocity": 0.5905511811023622
          },
          {
            "duration": 0.10714275000000129,
            "durationTicks": 96,
            "midi": 0,
            "name": "C-1",
            "ticks": 34656,
            "time": 38.67853275,
            "velocity": 0.5905511811023622
          },
          {
            "duration": 0.10714275000000129,
            "durationTicks": 96,
            "midi": 0,
            "name": "C-1",
            "ticks": 34752,
            "time": 38.7856755,
            "velocity": 0.5905511811023622
          },
          {
            "duration": 0.10714274999999418,
            "durationTicks": 96,
            "midi": 0,
            "name": "C-1",
            "ticks": 34944,
            "time": 38.999961000000006,
            "velocity": 0.5905511811023622
          },
          {
            "duration": 0.10714274999999418,
            "durationTicks": 96,
            "midi": 0,
            "name": "C-1",
            "ticks": 34944,
            "time": 38.999961000000006,
            "velocity": 0.5905511811023622
          },
          {
            "duration": 0.10714274999999418,
            "durationTicks": 96,
            "midi": 0,
            "name": "C-1",
            "ticks": 34944,
            "time": 38.999961000000006,
            "velocity": 0.5905511811023622
          },
          {
            "duration": 0.10714275000000129,
            "durationTicks": 96,
            "midi": 0,
            "name": "C-1",
            "ticks": 35136,
            "time": 39.2142465,
            "velocity": 0.5905511811023622
          },
          {
            "duration": 0.10714275000000129,
            "durationTicks": 96,
            "midi": 0,
            "name": "C-1",
            "ticks": 35136,
            "time": 39.2142465,
            "velocity": 0.5905511811023622
          },
          {
            "duration": 0.10714275000000129,
            "durationTicks": 96,
            "midi": 0,
            "name": "C-1",
            "ticks": 35328,
            "time": 39.428532000000004,
            "velocity": 0.5905511811023622
          },
          {
            "duration": 0.10714275000000129,
            "durationTicks": 96,
            "midi": 0,
            "name": "C-1",
            "ticks": 35328,
            "time": 39.428532000000004,
            "velocity": 0.5905511811023622
          },
          {
            "duration": 0.10714274999999418,
            "durationTicks": 96,
            "midi": 0,
            "name": "C-1",
            "ticks": 35520,
            "time": 39.64281750000001,
            "velocity": 0.5905511811023622
          },
          {
            "duration": 0.10714275000000129,
            "durationTicks": 96,
            "midi": 0,
            "name": "C-1",
            "ticks": 35712,
            "time": 39.857103,
            "velocity": 0.5905511811023622
          },
          {
            "duration": 0.10714275000000129,
            "durationTicks": 96,
            "midi": 0,
            "name": "C-1",
            "ticks": 35712,
            "time": 39.857103,
            "velocity": 0.5905511811023622
          },
          {
            "duration": 0.10714275000000129,
            "durationTicks": 96,
            "midi": 0,
            "name": "C-1",
            "ticks": 35904,
            "time": 40.071388500000005,
            "velocity": 0.5905511811023622
          },
          {
            "duration": 0.10714274999999418,
            "durationTicks": 96,
            "midi": 0,
            "name": "C-1",
            "ticks": 36000,
            "time": 40.178531250000006,
            "velocity": 0.5905511811023622
          },
          {
            "duration": 0.10714275000000129,
            "durationTicks": 96,
            "midi": 0,
            "name": "C-1",
            "ticks": 36096,
            "time": 40.285674,
            "velocity": 0.5905511811023622
          },
          {
            "duration": 0.10714275000000129,
            "durationTicks": 96,
            "midi": 0,
            "name": "C-1",
            "ticks": 36192,
            "time": 40.39281675,
            "velocity": 0.5905511811023622
          },
          {
            "duration": 0.10714275000000129,
            "durationTicks": 96,
            "midi": 0,
            "name": "C-1",
            "ticks": 36192,
            "time": 40.39281675,
            "velocity": 0.5905511811023622
          },
          {
            "duration": 0.10714275000000129,
            "durationTicks": 96,
            "midi": 0,
            "name": "C-1",
            "ticks": 36288,
            "time": 40.4999595,
            "velocity": 0.5905511811023622
          },
          {
            "duration": 0.10714275000000129,
            "durationTicks": 96,
            "midi": 0,
            "name": "C-1",
            "ticks": 36480,
            "time": 40.714245000000005,
            "velocity": 0.5905511811023622
          },
          {
            "duration": 0.10714275000000129,
            "durationTicks": 96,
            "midi": 0,
            "name": "C-1",
            "ticks": 36480,
            "time": 40.714245000000005,
            "velocity": 0.5905511811023622
          },
          {
            "duration": 0.10714275000000129,
            "durationTicks": 96,
            "midi": 0,
            "name": "C-1",
            "ticks": 36480,
            "time": 40.714245000000005,
            "velocity": 0.5905511811023622
          },
          {
            "duration": 0.10714275000000129,
            "durationTicks": 96,
            "midi": 0,
            "name": "C-1",
            "ticks": 36672,
            "time": 40.9285305,
            "velocity": 0.5905511811023622
          },
          {
            "duration": 0.10714275000000129,
            "durationTicks": 96,
            "midi": 0,
            "name": "C-1",
            "ticks": 36672,
            "time": 40.9285305,
            "velocity": 0.5905511811023622
          },
          {
            "duration": 0.10714275000000129,
            "durationTicks": 96,
            "midi": 0,
            "name": "C-1",
            "ticks": 36864,
            "time": 41.142816,
            "velocity": 0.5905511811023622
          },
          {
            "duration": 0.10714275000000129,
            "durationTicks": 96,
            "midi": 0,
            "name": "C-1",
            "ticks": 36864,
            "time": 41.142816,
            "velocity": 0.5905511811023622
          },
          {
            "duration": 0.10714274999999418,
            "durationTicks": 96,
            "midi": 0,
            "name": "C-1",
            "ticks": 37056,
            "time": 41.357101500000006,
            "velocity": 0.5905511811023622
          },
          {
            "duration": 0.10714275000000129,
            "durationTicks": 96,
            "midi": 0,
            "name": "C-1",
            "ticks": 37248,
            "time": 41.571387,
            "velocity": 0.5905511811023622
          },
          {
            "duration": 0.10714275000000129,
            "durationTicks": 96,
            "midi": 0,
            "name": "C-1",
            "ticks": 37248,
            "time": 41.571387,
            "velocity": 0.5905511811023622
          },
          {
            "duration": 0.10714275000000129,
            "durationTicks": 96,
            "midi": 0,
            "name": "C-1",
            "ticks": 37440,
            "time": 41.785672500000004,
            "velocity": 0.5905511811023622
          },
          {
            "duration": 0.10714275000000129,
            "durationTicks": 96,
            "midi": 0,
            "name": "C-1",
            "ticks": 37536,
            "time": 41.892815250000005,
            "velocity": 0.5905511811023622
          },
          {
            "duration": 0.10714274999999418,
            "durationTicks": 96,
            "midi": 0,
            "name": "C-1",
            "ticks": 37632,
            "time": 41.99995800000001,
            "velocity": 0.5905511811023622
          },
          {
            "duration": 0.10714275000000129,
            "durationTicks": 96,
            "midi": 0,
            "name": "C-1",
            "ticks": 37728,
            "time": 42.10710075,
            "velocity": 0.5905511811023622
          },
          {
            "duration": 0.10714275000000129,
            "durationTicks": 96,
            "midi": 0,
            "name": "C-1",
            "ticks": 37728,
            "time": 42.10710075,
            "velocity": 0.5905511811023622
          },
          {
            "duration": 0.10714275000000129,
            "durationTicks": 96,
            "midi": 0,
            "name": "C-1",
            "ticks": 37824,
            "time": 42.2142435,
            "velocity": 0.5905511811023622
          },
          {
            "duration": 0.10714275000000129,
            "durationTicks": 96,
            "midi": 0,
            "name": "C-1",
            "ticks": 38016,
            "time": 42.428529000000005,
            "velocity": 0.5905511811023622
          },
          {
            "duration": 0.10714275000000129,
            "durationTicks": 96,
            "midi": 0,
            "name": "C-1",
            "ticks": 38016,
            "time": 42.428529000000005,
            "velocity": 0.5905511811023622
          },
          {
            "duration": 0.10714275000000129,
            "durationTicks": 96,
            "midi": 0,
            "name": "C-1",
            "ticks": 38016,
            "time": 42.428529000000005,
            "velocity": 0.5905511811023622
          },
          {
            "duration": 0.10714275000000129,
            "durationTicks": 96,
            "midi": 0,
            "name": "C-1",
            "ticks": 38208,
            "time": 42.6428145,
            "velocity": 0.5905511811023622
          },
          {
            "duration": 0.10714275000000129,
            "durationTicks": 96,
            "midi": 0,
            "name": "C-1",
            "ticks": 38208,
            "time": 42.6428145,
            "velocity": 0.5905511811023622
          },
          {
            "duration": 0.10714275000000129,
            "durationTicks": 96,
            "midi": 0,
            "name": "C-1",
            "ticks": 38400,
            "time": 42.8571,
            "velocity": 0.5905511811023622
          },
          {
            "duration": 0.10714275000000129,
            "durationTicks": 96,
            "midi": 0,
            "name": "C-1",
            "ticks": 38400,
            "time": 42.8571,
            "velocity": 0.5905511811023622
          },
          {
            "duration": 0.10714275000000129,
            "durationTicks": 96,
            "midi": 0,
            "name": "C-1",
            "ticks": 38592,
            "time": 43.071385500000005,
            "velocity": 0.5905511811023622
          },
          {
            "duration": 0.10714275000000129,
            "durationTicks": 96,
            "midi": 0,
            "name": "C-1",
            "ticks": 38784,
            "time": 43.285671,
            "velocity": 0.5905511811023622
          },
          {
            "duration": 0.10714275000000129,
            "durationTicks": 96,
            "midi": 0,
            "name": "C-1",
            "ticks": 38784,
            "time": 43.285671,
            "velocity": 0.5905511811023622
          },
          {
            "duration": 0.10714275000000129,
            "durationTicks": 96,
            "midi": 0,
            "name": "C-1",
            "ticks": 38976,
            "time": 43.4999565,
            "velocity": 0.5905511811023622
          },
          {
            "duration": 0.10714275000000129,
            "durationTicks": 96,
            "midi": 0,
            "name": "C-1",
            "ticks": 39072,
            "time": 43.607099250000005,
            "velocity": 0.5905511811023622
          },
          {
            "duration": 0.10714275000000129,
            "durationTicks": 96,
            "midi": 0,
            "name": "C-1",
            "ticks": 39168,
            "time": 43.714242000000006,
            "velocity": 0.5905511811023622
          },
          {
            "duration": 0.10714274999999418,
            "durationTicks": 96,
            "midi": 0,
            "name": "C-1",
            "ticks": 39264,
            "time": 43.82138475000001,
            "velocity": 0.5905511811023622
          },
          {
            "duration": 0.10714274999999418,
            "durationTicks": 96,
            "midi": 0,
            "name": "C-1",
            "ticks": 39264,
            "time": 43.82138475000001,
            "velocity": 0.5905511811023622
          },
          {
            "duration": 0.10714275000000129,
            "durationTicks": 96,
            "midi": 0,
            "name": "C-1",
            "ticks": 39360,
            "time": 43.9285275,
            "velocity": 0.5905511811023622
          },
          {
            "duration": 0.10714275000000129,
            "durationTicks": 96,
            "midi": 0,
            "name": "C-1",
            "ticks": 39552,
            "time": 44.142813000000004,
            "velocity": 0.5905511811023622
          },
          {
            "duration": 0.10714275000000129,
            "durationTicks": 96,
            "midi": 0,
            "name": "C-1",
            "ticks": 39552,
            "time": 44.142813000000004,
            "velocity": 0.5905511811023622
          },
          {
            "duration": 0.10714275000000129,
            "durationTicks": 96,
            "midi": 0,
            "name": "C-1",
            "ticks": 39552,
            "time": 44.142813000000004,
            "velocity": 0.5905511811023622
          },
          {
            "duration": 0.10714274999999418,
            "durationTicks": 96,
            "midi": 0,
            "name": "C-1",
            "ticks": 39744,
            "time": 44.357098500000006,
            "velocity": 0.5905511811023622
          },
          {
            "duration": 0.10714274999999418,
            "durationTicks": 96,
            "midi": 0,
            "name": "C-1",
            "ticks": 39744,
            "time": 44.357098500000006,
            "velocity": 0.5905511811023622
          },
          {
            "duration": 0.10714275000000129,
            "durationTicks": 96,
            "midi": 0,
            "name": "C-1",
            "ticks": 39936,
            "time": 44.571384,
            "velocity": 0.5905511811023622
          },
          {
            "duration": 0.10714275000000129,
            "durationTicks": 96,
            "midi": 0,
            "name": "C-1",
            "ticks": 39936,
            "time": 44.571384,
            "velocity": 0.5905511811023622
          },
          {
            "duration": 0.10714275000000129,
            "durationTicks": 96,
            "midi": 0,
            "name": "C-1",
            "ticks": 40128,
            "time": 44.785669500000004,
            "velocity": 0.5905511811023622
          },
          {
            "duration": 0.10714274999999418,
            "durationTicks": 96,
            "midi": 0,
            "name": "C-1",
            "ticks": 40320,
            "time": 44.99995500000001,
            "velocity": 0.5905511811023622
          },
          {
            "duration": 0.10714274999999418,
            "durationTicks": 96,
            "midi": 0,
            "name": "C-1",
            "ticks": 40320,
            "time": 44.99995500000001,
            "velocity": 0.5905511811023622
          },
          {
            "duration": 0.10714275000000129,
            "durationTicks": 96,
            "midi": 0,
            "name": "C-1",
            "ticks": 40512,
            "time": 45.2142405,
            "velocity": 0.5905511811023622
          },
          {
            "duration": 0.10714275000000129,
            "durationTicks": 96,
            "midi": 0,
            "name": "C-1",
            "ticks": 40608,
            "time": 45.321383250000004,
            "velocity": 0.5905511811023622
          },
          {
            "duration": 0.10714275000000129,
            "durationTicks": 96,
            "midi": 0,
            "name": "C-1",
            "ticks": 40704,
            "time": 45.428526000000005,
            "velocity": 0.5905511811023622
          },
          {
            "duration": 0.10714274999999418,
            "durationTicks": 96,
            "midi": 0,
            "name": "C-1",
            "ticks": 40800,
            "time": 45.535668750000006,
            "velocity": 0.5905511811023622
          },
          {
            "duration": 0.10714274999999418,
            "durationTicks": 96,
            "midi": 0,
            "name": "C-1",
            "ticks": 40800,
            "time": 45.535668750000006,
            "velocity": 0.5905511811023622
          },
          {
            "duration": 0.10714275000000129,
            "durationTicks": 96,
            "midi": 0,
            "name": "C-1",
            "ticks": 40896,
            "time": 45.6428115,
            "velocity": 0.5905511811023622
          },
          {
            "duration": 0.10714275000000129,
            "durationTicks": 96,
            "midi": 0,
            "name": "C-1",
            "ticks": 41088,
            "time": 45.857097,
            "velocity": 0.5905511811023622
          },
          {
            "duration": 0.10714275000000129,
            "durationTicks": 96,
            "midi": 0,
            "name": "C-1",
            "ticks": 41088,
            "time": 45.857097,
            "velocity": 0.5905511811023622
          },
          {
            "duration": 0.10714275000000129,
            "durationTicks": 96,
            "midi": 0,
            "name": "C-1",
            "ticks": 41088,
            "time": 45.857097,
            "velocity": 0.5905511811023622
          },
          {
            "duration": 0.10714275000000129,
            "durationTicks": 96,
            "midi": 0,
            "name": "C-1",
            "ticks": 41280,
            "time": 46.071382500000006,
            "velocity": 0.5905511811023622
          },
          {
            "duration": 0.10714275000000129,
            "durationTicks": 96,
            "midi": 0,
            "name": "C-1",
            "ticks": 41280,
            "time": 46.071382500000006,
            "velocity": 0.5905511811023622
          },
          {
            "duration": 0.10714275000000129,
            "durationTicks": 96,
            "midi": 0,
            "name": "C-1",
            "ticks": 41472,
            "time": 46.285668,
            "velocity": 0.5905511811023622
          },
          {
            "duration": 0.10714275000000129,
            "durationTicks": 96,
            "midi": 0,
            "name": "C-1",
            "ticks": 41472,
            "time": 46.285668,
            "velocity": 0.5905511811023622
          },
          {
            "duration": 0.10714275000000129,
            "durationTicks": 96,
            "midi": 0,
            "name": "C-1",
            "ticks": 41664,
            "time": 46.499953500000004,
            "velocity": 0.5905511811023622
          },
          {
            "duration": 0.10714274999999418,
            "durationTicks": 96,
            "midi": 0,
            "name": "C-1",
            "ticks": 41856,
            "time": 46.714239000000006,
            "velocity": 0.5905511811023622
          },
          {
            "duration": 0.10714274999999418,
            "durationTicks": 96,
            "midi": 0,
            "name": "C-1",
            "ticks": 41856,
            "time": 46.714239000000006,
            "velocity": 0.5905511811023622
          },
          {
            "duration": 0.10714275000000129,
            "durationTicks": 96,
            "midi": 0,
            "name": "C-1",
            "ticks": 42048,
            "time": 46.9285245,
            "velocity": 0.5905511811023622
          },
          {
            "duration": 0.10714275000000129,
            "durationTicks": 96,
            "midi": 0,
            "name": "C-1",
            "ticks": 42144,
            "time": 47.03566725,
            "velocity": 0.5905511811023622
          },
          {
            "duration": 0.10714275000000129,
            "durationTicks": 96,
            "midi": 0,
            "name": "C-1",
            "ticks": 42240,
            "time": 47.142810000000004,
            "velocity": 0.5905511811023622
          },
          {
            "duration": 0.10714275000000129,
            "durationTicks": 96,
            "midi": 0,
            "name": "C-1",
            "ticks": 42336,
            "time": 47.249952750000006,
            "velocity": 0.5905511811023622
          },
          {
            "duration": 0.10714275000000129,
            "durationTicks": 96,
            "midi": 0,
            "name": "C-1",
            "ticks": 42336,
            "time": 47.249952750000006,
            "velocity": 0.5905511811023622
          },
          {
            "duration": 0.10714274999999418,
            "durationTicks": 96,
            "midi": 0,
            "name": "C-1",
            "ticks": 42432,
            "time": 47.35709550000001,
            "velocity": 0.5905511811023622
          },
          {
            "duration": 0.10714275000000129,
            "durationTicks": 96,
            "midi": 0,
            "name": "C-1",
            "ticks": 42624,
            "time": 47.571381,
            "velocity": 0.5905511811023622
          },
          {
            "duration": 0.10714275000000129,
            "durationTicks": 96,
            "midi": 0,
            "name": "C-1",
            "ticks": 42624,
            "time": 47.571381,
            "velocity": 0.5905511811023622
          },
          {
            "duration": 0.10714275000000129,
            "durationTicks": 96,
            "midi": 0,
            "name": "C-1",
            "ticks": 42624,
            "time": 47.571381,
            "velocity": 0.5905511811023622
          },
          {
            "duration": 0.10714275000000129,
            "durationTicks": 96,
            "midi": 0,
            "name": "C-1",
            "ticks": 42816,
            "time": 47.785666500000005,
            "velocity": 0.5905511811023622
          },
          {
            "duration": 0.10714275000000129,
            "durationTicks": 96,
            "midi": 0,
            "name": "C-1",
            "ticks": 42816,
            "time": 47.785666500000005,
            "velocity": 0.5905511811023622
          },
          {
            "duration": 0.10714274999999418,
            "durationTicks": 96,
            "midi": 0,
            "name": "C-1",
            "ticks": 43008,
            "time": 47.99995200000001,
            "velocity": 0.5905511811023622
          },
          {
            "duration": 0.10714274999999418,
            "durationTicks": 96,
            "midi": 0,
            "name": "C-1",
            "ticks": 43008,
            "time": 47.99995200000001,
            "velocity": 0.5905511811023622
          },
          {
            "duration": 0.10714275000000129,
            "durationTicks": 96,
            "midi": 0,
            "name": "C-1",
            "ticks": 43200,
            "time": 48.2142375,
            "velocity": 0.5905511811023622
          },
          {
            "duration": 0.10714275000000129,
            "durationTicks": 96,
            "midi": 0,
            "name": "C-1",
            "ticks": 43392,
            "time": 48.428523000000006,
            "velocity": 0.5905511811023622
          },
          {
            "duration": 0.10714275000000129,
            "durationTicks": 96,
            "midi": 0,
            "name": "C-1",
            "ticks": 43392,
            "time": 48.428523000000006,
            "velocity": 0.5905511811023622
          },
          {
            "duration": 0.10714275000000129,
            "durationTicks": 96,
            "midi": 0,
            "name": "C-1",
            "ticks": 43584,
            "time": 48.6428085,
            "velocity": 0.5905511811023622
          },
          {
            "duration": 0.10714275000000129,
            "durationTicks": 96,
            "midi": 0,
            "name": "C-1",
            "ticks": 43680,
            "time": 48.74995125,
            "velocity": 0.5905511811023622
          },
          {
            "duration": 0.10714275000000129,
            "durationTicks": 96,
            "midi": 0,
            "name": "C-1",
            "ticks": 43776,
            "time": 48.857094000000004,
            "velocity": 0.5905511811023622
          },
          {
            "duration": 0.10714275000000129,
            "durationTicks": 96,
            "midi": 0,
            "name": "C-1",
            "ticks": 43872,
            "time": 48.964236750000005,
            "velocity": 0.5905511811023622
          },
          {
            "duration": 0.10714275000000129,
            "durationTicks": 96,
            "midi": 0,
            "name": "C-1",
            "ticks": 43872,
            "time": 48.964236750000005,
            "velocity": 0.5905511811023622
          },
          {
            "duration": 0.10714275000000129,
            "durationTicks": 96,
            "midi": 0,
            "name": "C-1",
            "ticks": 43968,
            "time": 49.071379500000006,
            "velocity": 0.5905511811023622
          },
          {
            "duration": 0.10714275000000129,
            "durationTicks": 96,
            "midi": 0,
            "name": "C-1",
            "ticks": 44160,
            "time": 49.285665,
            "velocity": 0.5905511811023622
          },
          {
            "duration": 0.10714275000000129,
            "durationTicks": 96,
            "midi": 0,
            "name": "C-1",
            "ticks": 44160,
            "time": 49.285665,
            "velocity": 0.5905511811023622
          },
          {
            "duration": 0.10714275000000129,
            "durationTicks": 96,
            "midi": 0,
            "name": "C-1",
            "ticks": 44160,
            "time": 49.285665,
            "velocity": 0.5905511811023622
          },
          {
            "duration": 0.10714275000000129,
            "durationTicks": 96,
            "midi": 0,
            "name": "C-1",
            "ticks": 44352,
            "time": 49.499950500000004,
            "velocity": 0.5905511811023622
          },
          {
            "duration": 0.10714275000000129,
            "durationTicks": 96,
            "midi": 0,
            "name": "C-1",
            "ticks": 44352,
            "time": 49.499950500000004,
            "velocity": 0.5905511811023622
          },
          {
            "duration": 0.10714274999999418,
            "durationTicks": 96,
            "midi": 0,
            "name": "C-1",
            "ticks": 44544,
            "time": 49.71423600000001,
            "velocity": 0.5905511811023622
          },
          {
            "duration": 0.10714274999999418,
            "durationTicks": 96,
            "midi": 0,
            "name": "C-1",
            "ticks": 44544,
            "time": 49.71423600000001,
            "velocity": 0.5905511811023622
          },
          {
            "duration": 0.10714275000000129,
            "durationTicks": 96,
            "midi": 0,
            "name": "C-1",
            "ticks": 44736,
            "time": 49.9285215,
            "velocity": 0.5905511811023622
          },
          {
            "duration": 0.10714275000000129,
            "durationTicks": 96,
            "midi": 0,
            "name": "C-1",
            "ticks": 44928,
            "time": 50.142807000000005,
            "velocity": 0.5905511811023622
          },
          {
            "duration": 0.10714275000000129,
            "durationTicks": 96,
            "midi": 0,
            "name": "C-1",
            "ticks": 44928,
            "time": 50.142807000000005,
            "velocity": 0.5905511811023622
          },
          {
            "duration": 0.10714274999999418,
            "durationTicks": 96,
            "midi": 0,
            "name": "C-1",
            "ticks": 45120,
            "time": 50.35709250000001,
            "velocity": 0.5905511811023622
          },
          {
            "duration": 0.10714275000000129,
            "durationTicks": 96,
            "midi": 0,
            "name": "C-1",
            "ticks": 45216,
            "time": 50.46423525,
            "velocity": 0.5905511811023622
          },
          {
            "duration": 0.10714275000000129,
            "durationTicks": 96,
            "midi": 0,
            "name": "C-1",
            "ticks": 45312,
            "time": 50.571378,
            "velocity": 0.5905511811023622
          },
          {
            "duration": 0.10714275000000129,
            "durationTicks": 96,
            "midi": 0,
            "name": "C-1",
            "ticks": 45408,
            "time": 50.678520750000004,
            "velocity": 0.5905511811023622
          },
          {
            "duration": 0.10714275000000129,
            "durationTicks": 96,
            "midi": 0,
            "name": "C-1",
            "ticks": 45408,
            "time": 50.678520750000004,
            "velocity": 0.5905511811023622
          },
          {
            "duration": 0.10714275000000129,
            "durationTicks": 96,
            "midi": 0,
            "name": "C-1",
            "ticks": 45504,
            "time": 50.785663500000005,
            "velocity": 0.5905511811023622
          },
          {
            "duration": 0.10714275000000129,
            "durationTicks": 96,
            "midi": 0,
            "name": "C-1",
            "ticks": 45696,
            "time": 50.999949,
            "velocity": 0.5905511811023622
          },
          {
            "duration": 0.10714275000000129,
            "durationTicks": 96,
            "midi": 0,
            "name": "C-1",
            "ticks": 45696,
            "time": 50.999949,
            "velocity": 0.5905511811023622
          },
          {
            "duration": 0.10714275000000129,
            "durationTicks": 96,
            "midi": 0,
            "name": "C-1",
            "ticks": 45696,
            "time": 50.999949,
            "velocity": 0.5905511811023622
          },
          {
            "duration": 0.10714275000000129,
            "durationTicks": 96,
            "midi": 0,
            "name": "C-1",
            "ticks": 45888,
            "time": 51.2142345,
            "velocity": 0.5905511811023622
          },
          {
            "duration": 0.10714275000000129,
            "durationTicks": 96,
            "midi": 0,
            "name": "C-1",
            "ticks": 45888,
            "time": 51.2142345,
            "velocity": 0.5905511811023622
          },
          {
            "duration": 0.10714275000000129,
            "durationTicks": 96,
            "midi": 0,
            "name": "C-1",
            "ticks": 46080,
            "time": 51.428520000000006,
            "velocity": 0.5905511811023622
          },
          {
            "duration": 0.10714275000000129,
            "durationTicks": 96,
            "midi": 0,
            "name": "C-1",
            "ticks": 46080,
            "time": 51.428520000000006,
            "velocity": 0.5905511811023622
          },
          {
            "duration": 0.10714275000000129,
            "durationTicks": 96,
            "midi": 0,
            "name": "C-1",
            "ticks": 46272,
            "time": 51.6428055,
            "velocity": 0.5905511811023622
          },
          {
            "duration": 0.10714275000000129,
            "durationTicks": 96,
            "midi": 0,
            "name": "C-1",
            "ticks": 46464,
            "time": 51.857091000000004,
            "velocity": 0.5905511811023622
          },
          {
            "duration": 0.10714275000000129,
            "durationTicks": 96,
            "midi": 0,
            "name": "C-1",
            "ticks": 46464,
            "time": 51.857091000000004,
            "velocity": 0.5905511811023622
          },
          {
            "duration": 0.10714274999999418,
            "durationTicks": 96,
            "midi": 0,
            "name": "C-1",
            "ticks": 46656,
            "time": 52.07137650000001,
            "velocity": 0.5905511811023622
          },
          {
            "duration": 0.10714275000000129,
            "durationTicks": 96,
            "midi": 0,
            "name": "C-1",
            "ticks": 46752,
            "time": 52.17851925,
            "velocity": 0.5905511811023622
          },
          {
            "duration": 0.10714275000000129,
            "durationTicks": 96,
            "midi": 0,
            "name": "C-1",
            "ticks": 46848,
            "time": 52.285662,
            "velocity": 0.5905511811023622
          },
          {
            "duration": 0.10714275000000129,
            "durationTicks": 96,
            "midi": 0,
            "name": "C-1",
            "ticks": 46944,
            "time": 52.39280475,
            "velocity": 0.5905511811023622
          },
          {
            "duration": 0.10714275000000129,
            "durationTicks": 96,
            "midi": 0,
            "name": "C-1",
            "ticks": 46944,
            "time": 52.39280475,
            "velocity": 0.5905511811023622
          },
          {
            "duration": 0.10714275000000129,
            "durationTicks": 96,
            "midi": 0,
            "name": "C-1",
            "ticks": 47040,
            "time": 52.499947500000005,
            "velocity": 0.5905511811023622
          },
          {
            "duration": 0.10714274999999418,
            "durationTicks": 96,
            "midi": 0,
            "name": "C-1",
            "ticks": 47232,
            "time": 52.71423300000001,
            "velocity": 0.5905511811023622
          },
          {
            "duration": 0.10714274999999418,
            "durationTicks": 96,
            "midi": 0,
            "name": "C-1",
            "ticks": 47232,
            "time": 52.71423300000001,
            "velocity": 0.5905511811023622
          },
          {
            "duration": 0.10714274999999418,
            "durationTicks": 96,
            "midi": 0,
            "name": "C-1",
            "ticks": 47232,
            "time": 52.71423300000001,
            "velocity": 0.5905511811023622
          },
          {
            "duration": 0.10714275000000129,
            "durationTicks": 96,
            "midi": 0,
            "name": "C-1",
            "ticks": 47424,
            "time": 52.9285185,
            "velocity": 0.5905511811023622
          },
          {
            "duration": 0.10714275000000129,
            "durationTicks": 96,
            "midi": 0,
            "name": "C-1",
            "ticks": 47424,
            "time": 52.9285185,
            "velocity": 0.5905511811023622
          },
          {
            "duration": 0.10714275000000129,
            "durationTicks": 96,
            "midi": 0,
            "name": "C-1",
            "ticks": 47616,
            "time": 53.142804000000005,
            "velocity": 0.5905511811023622
          },
          {
            "duration": 0.10714275000000129,
            "durationTicks": 96,
            "midi": 0,
            "name": "C-1",
            "ticks": 47616,
            "time": 53.142804000000005,
            "velocity": 0.5905511811023622
          },
          {
            "duration": 0.10714274999999418,
            "durationTicks": 96,
            "midi": 0,
            "name": "C-1",
            "ticks": 47808,
            "time": 53.35708950000001,
            "velocity": 0.5905511811023622
          },
          {
            "duration": 0.10714275000000129,
            "durationTicks": 96,
            "midi": 0,
            "name": "C-1",
            "ticks": 48000,
            "time": 53.571375,
            "velocity": 0.5905511811023622
          },
          {
            "duration": 0.10714275000000129,
            "durationTicks": 96,
            "midi": 0,
            "name": "C-1",
            "ticks": 48000,
            "time": 53.571375,
            "velocity": 0.5905511811023622
          },
          {
            "duration": 0.10714275000000129,
            "durationTicks": 96,
            "midi": 0,
            "name": "C-1",
            "ticks": 48192,
            "time": 53.785660500000006,
            "velocity": 0.5905511811023622
          },
          {
            "duration": 0.10714274999999418,
            "durationTicks": 96,
            "midi": 0,
            "name": "C-1",
            "ticks": 48288,
            "time": 53.89280325000001,
            "velocity": 0.5905511811023622
          },
          {
            "duration": 0.10714275000000129,
            "durationTicks": 96,
            "midi": 0,
            "name": "C-1",
            "ticks": 48384,
            "time": 53.999946,
            "velocity": 0.5905511811023622
          },
          {
            "duration": 0.10714275000000129,
            "durationTicks": 96,
            "midi": 0,
            "name": "C-1",
            "ticks": 48480,
            "time": 54.10708875,
            "velocity": 0.5905511811023622
          },
          {
            "duration": 0.10714275000000129,
            "durationTicks": 96,
            "midi": 0,
            "name": "C-1",
            "ticks": 48480,
            "time": 54.10708875,
            "velocity": 0.5905511811023622
          },
          {
            "duration": 0.10714275000000129,
            "durationTicks": 96,
            "midi": 0,
            "name": "C-1",
            "ticks": 48576,
            "time": 54.214231500000004,
            "velocity": 0.5905511811023622
          },
          {
            "duration": 0.10714275000000129,
            "durationTicks": 96,
            "midi": 0,
            "name": "C-1",
            "ticks": 48768,
            "time": 54.42851700000001,
            "velocity": 0.5905511811023622
          },
          {
            "duration": 0.10714275000000129,
            "durationTicks": 96,
            "midi": 0,
            "name": "C-1",
            "ticks": 48768,
            "time": 54.42851700000001,
            "velocity": 0.5905511811023622
          },
          {
            "duration": 0.10714275000000129,
            "durationTicks": 96,
            "midi": 0,
            "name": "C-1",
            "ticks": 48768,
            "time": 54.42851700000001,
            "velocity": 0.5905511811023622
          },
          {
            "duration": 0.10714275000000129,
            "durationTicks": 96,
            "midi": 0,
            "name": "C-1",
            "ticks": 48960,
            "time": 54.6428025,
            "velocity": 0.5905511811023622
          },
          {
            "duration": 0.10714275000000129,
            "durationTicks": 96,
            "midi": 0,
            "name": "C-1",
            "ticks": 48960,
            "time": 54.6428025,
            "velocity": 0.5905511811023622
          },
          {
            "duration": 0.10714275000000129,
            "durationTicks": 96,
            "midi": 0,
            "name": "C-1",
            "ticks": 49152,
            "time": 54.857088000000005,
            "velocity": 0.5905511811023622
          },
          {
            "duration": 0.10714275000000129,
            "durationTicks": 96,
            "midi": 0,
            "name": "C-1",
            "ticks": 49152,
            "time": 54.857088000000005,
            "velocity": 0.5905511811023622
          },
          {
            "duration": 0.10714274999999418,
            "durationTicks": 96,
            "midi": 0,
            "name": "C-1",
            "ticks": 49344,
            "time": 55.07137350000001,
            "velocity": 0.5905511811023622
          },
          {
            "duration": 0.10714275000000129,
            "durationTicks": 96,
            "midi": 0,
            "name": "C-1",
            "ticks": 49536,
            "time": 55.285659,
            "velocity": 0.5905511811023622
          },
          {
            "duration": 0.10714275000000129,
            "durationTicks": 96,
            "midi": 0,
            "name": "C-1",
            "ticks": 49536,
            "time": 55.285659,
            "velocity": 0.5905511811023622
          },
          {
            "duration": 0.10714275000000129,
            "durationTicks": 96,
            "midi": 0,
            "name": "C-1",
            "ticks": 49728,
            "time": 55.499944500000005,
            "velocity": 0.5905511811023622
          },
          {
            "duration": 0.10714275000000129,
            "durationTicks": 96,
            "midi": 0,
            "name": "C-1",
            "ticks": 49824,
            "time": 55.607087250000006,
            "velocity": 0.5905511811023622
          },
          {
            "duration": 0.10714274999999418,
            "durationTicks": 96,
            "midi": 0,
            "name": "C-1",
            "ticks": 49920,
            "time": 55.71423000000001,
            "velocity": 0.5905511811023622
          },
          {
            "duration": 0.10714275000000129,
            "durationTicks": 96,
            "midi": 0,
            "name": "C-1",
            "ticks": 50016,
            "time": 55.82137275,
            "velocity": 0.5905511811023622
          },
          {
            "duration": 0.10714275000000129,
            "durationTicks": 96,
            "midi": 0,
            "name": "C-1",
            "ticks": 50016,
            "time": 55.82137275,
            "velocity": 0.5905511811023622
          },
          {
            "duration": 0.10714275000000129,
            "durationTicks": 96,
            "midi": 0,
            "name": "C-1",
            "ticks": 50112,
            "time": 55.9285155,
            "velocity": 0.5905511811023622
          },
          {
            "duration": 0.10714275000000129,
            "durationTicks": 96,
            "midi": 0,
            "name": "C-1",
            "ticks": 50304,
            "time": 56.142801000000006,
            "velocity": 0.5905511811023622
          },
          {
            "duration": 0.10714275000000129,
            "durationTicks": 96,
            "midi": 0,
            "name": "C-1",
            "ticks": 50304,
            "time": 56.142801000000006,
            "velocity": 0.5905511811023622
          },
          {
            "duration": 0.10714275000000129,
            "durationTicks": 96,
            "midi": 0,
            "name": "C-1",
            "ticks": 50304,
            "time": 56.142801000000006,
            "velocity": 0.5905511811023622
          },
          {
            "duration": 0.10714275000000129,
            "durationTicks": 96,
            "midi": 0,
            "name": "C-1",
            "ticks": 50496,
            "time": 56.3570865,
            "velocity": 0.5905511811023622
          },
          {
            "duration": 0.10714275000000129,
            "durationTicks": 96,
            "midi": 0,
            "name": "C-1",
            "ticks": 50496,
            "time": 56.3570865,
            "velocity": 0.5905511811023622
          },
          {
            "duration": 0.10714275000000129,
            "durationTicks": 96,
            "midi": 0,
            "name": "C-1",
            "ticks": 50688,
            "time": 56.571372000000004,
            "velocity": 0.5905511811023622
          },
          {
            "duration": 0.10714275000000129,
            "durationTicks": 96,
            "midi": 0,
            "name": "C-1",
            "ticks": 50688,
            "time": 56.571372000000004,
            "velocity": 0.5905511811023622
          },
          {
            "duration": 0.10714275000000129,
            "durationTicks": 96,
            "midi": 0,
            "name": "C-1",
            "ticks": 50880,
            "time": 56.785657500000006,
            "velocity": 0.5905511811023622
          },
          {
            "duration": 0.10714275000000129,
            "durationTicks": 96,
            "midi": 0,
            "name": "C-1",
            "ticks": 51072,
            "time": 56.999943,
            "velocity": 0.5905511811023622
          },
          {
            "duration": 0.10714275000000129,
            "durationTicks": 96,
            "midi": 0,
            "name": "C-1",
            "ticks": 51072,
            "time": 56.999943,
            "velocity": 0.5905511811023622
          },
          {
            "duration": 0.10714275000000129,
            "durationTicks": 96,
            "midi": 0,
            "name": "C-1",
            "ticks": 51264,
            "time": 57.214228500000004,
            "velocity": 0.5905511811023622
          },
          {
            "duration": 0.10714275000000129,
            "durationTicks": 96,
            "midi": 0,
            "name": "C-1",
            "ticks": 51360,
            "time": 57.321371250000006,
            "velocity": 0.5905511811023622
          },
          {
            "duration": 0.10714275000000129,
            "durationTicks": 96,
            "midi": 0,
            "name": "C-1",
            "ticks": 51456,
            "time": 57.42851400000001,
            "velocity": 0.5905511811023622
          },
          {
            "duration": 0.10714274999999418,
            "durationTicks": 96,
            "midi": 0,
            "name": "C-1",
            "ticks": 51552,
            "time": 57.53565675000001,
            "velocity": 0.5905511811023622
          },
          {
            "duration": 0.10714274999999418,
            "durationTicks": 96,
            "midi": 0,
            "name": "C-1",
            "ticks": 51552,
            "time": 57.53565675000001,
            "velocity": 0.5905511811023622
          },
          {
            "duration": 0.10714275000000129,
            "durationTicks": 96,
            "midi": 0,
            "name": "C-1",
            "ticks": 51648,
            "time": 57.6427995,
            "velocity": 0.5905511811023622
          },
          {
            "duration": 0.10714275000000129,
            "durationTicks": 96,
            "midi": 0,
            "name": "C-1",
            "ticks": 51840,
            "time": 57.857085000000005,
            "velocity": 0.5905511811023622
          },
          {
            "duration": 0.10714275000000129,
            "durationTicks": 96,
            "midi": 0,
            "name": "C-1",
            "ticks": 51840,
            "time": 57.857085000000005,
            "velocity": 0.5905511811023622
          },
          {
            "duration": 0.10714275000000129,
            "durationTicks": 96,
            "midi": 0,
            "name": "C-1",
            "ticks": 51840,
            "time": 57.857085000000005,
            "velocity": 0.5905511811023622
          },
          {
            "duration": 0.10714274999999418,
            "durationTicks": 96,
            "midi": 0,
            "name": "C-1",
            "ticks": 52032,
            "time": 58.07137050000001,
            "velocity": 0.5905511811023622
          },
          {
            "duration": 0.10714274999999418,
            "durationTicks": 96,
            "midi": 0,
            "name": "C-1",
            "ticks": 52032,
            "time": 58.07137050000001,
            "velocity": 0.5905511811023622
          },
          {
            "duration": 0.10714275000000129,
            "durationTicks": 96,
            "midi": 0,
            "name": "C-1",
            "ticks": 52224,
            "time": 58.285656,
            "velocity": 0.5905511811023622
          },
          {
            "duration": 0.10714275000000129,
            "durationTicks": 96,
            "midi": 0,
            "name": "C-1",
            "ticks": 52224,
            "time": 58.285656,
            "velocity": 0.5905511811023622
          },
          {
            "duration": 0.10714275000000129,
            "durationTicks": 96,
            "midi": 0,
            "name": "C-1",
            "ticks": 52416,
            "time": 58.499941500000006,
            "velocity": 0.5905511811023622
          },
          {
            "duration": 0.10714274999999418,
            "durationTicks": 96,
            "midi": 0,
            "name": "C-1",
            "ticks": 52608,
            "time": 58.71422700000001,
            "velocity": 0.5905511811023622
          },
          {
            "duration": 0.10714274999999418,
            "durationTicks": 96,
            "midi": 0,
            "name": "C-1",
            "ticks": 52608,
            "time": 58.71422700000001,
            "velocity": 0.5905511811023622
          },
          {
            "duration": 0.10714275000000129,
            "durationTicks": 96,
            "midi": 0,
            "name": "C-1",
            "ticks": 52800,
            "time": 58.928512500000004,
            "velocity": 0.5905511811023622
          },
          {
            "duration": 0.10714275000000129,
            "durationTicks": 96,
            "midi": 0,
            "name": "C-1",
            "ticks": 52896,
            "time": 59.035655250000005,
            "velocity": 0.5905511811023622
          },
          {
            "duration": 0.10714275000000129,
            "durationTicks": 96,
            "midi": 0,
            "name": "C-1",
            "ticks": 52992,
            "time": 59.142798000000006,
            "velocity": 0.5905511811023622
          },
          {
            "duration": 0.10714274999999418,
            "durationTicks": 96,
            "midi": 0,
            "name": "C-1",
            "ticks": 53088,
            "time": 59.24994075000001,
            "velocity": 0.5905511811023622
          },
          {
            "duration": 0.10714274999999418,
            "durationTicks": 96,
            "midi": 0,
            "name": "C-1",
            "ticks": 53088,
            "time": 59.24994075000001,
            "velocity": 0.5905511811023622
          },
          {
            "duration": 0.10714275000000129,
            "durationTicks": 96,
            "midi": 0,
            "name": "C-1",
            "ticks": 53184,
            "time": 59.3570835,
            "velocity": 0.5905511811023622
          },
          {
            "duration": 0.10714275000000129,
            "durationTicks": 96,
            "midi": 0,
            "name": "C-1",
            "ticks": 53376,
            "time": 59.571369000000004,
            "velocity": 0.5905511811023622
          },
          {
            "duration": 0.10714275000000129,
            "durationTicks": 96,
            "midi": 0,
            "name": "C-1",
            "ticks": 53376,
            "time": 59.571369000000004,
            "velocity": 0.5905511811023622
          },
          {
            "duration": 0.10714275000000129,
            "durationTicks": 96,
            "midi": 0,
            "name": "C-1",
            "ticks": 53376,
            "time": 59.571369000000004,
            "velocity": 0.5905511811023622
          },
          {
            "duration": 0.10714275000000129,
            "durationTicks": 96,
            "midi": 0,
            "name": "C-1",
            "ticks": 53568,
            "time": 59.78565450000001,
            "velocity": 0.5905511811023622
          },
          {
            "duration": 0.10714275000000129,
            "durationTicks": 96,
            "midi": 0,
            "name": "C-1",
            "ticks": 53568,
            "time": 59.78565450000001,
            "velocity": 0.5905511811023622
          },
          {
            "duration": 0.10714275000000129,
            "durationTicks": 96,
            "midi": 0,
            "name": "C-1",
            "ticks": 53760,
            "time": 59.99994,
            "velocity": 0.5905511811023622
          },
          {
            "duration": 0.10714275000000129,
            "durationTicks": 96,
            "midi": 0,
            "name": "C-1",
            "ticks": 53760,
            "time": 59.99994,
            "velocity": 0.5905511811023622
          },
          {
            "duration": 0.10714275000000129,
            "durationTicks": 96,
            "midi": 0,
            "name": "C-1",
            "ticks": 53952,
            "time": 60.214225500000005,
            "velocity": 0.5905511811023622
          },
          {
            "duration": 0.10714274999999418,
            "durationTicks": 96,
            "midi": 0,
            "name": "C-1",
            "ticks": 54144,
            "time": 60.42851100000001,
            "velocity": 0.5905511811023622
          },
          {
            "duration": 0.10714274999999418,
            "durationTicks": 96,
            "midi": 0,
            "name": "C-1",
            "ticks": 54144,
            "time": 60.42851100000001,
            "velocity": 0.5905511811023622
          },
          {
            "duration": 0.10714275000000129,
            "durationTicks": 96,
            "midi": 0,
            "name": "C-1",
            "ticks": 54336,
            "time": 60.6427965,
            "velocity": 0.5905511811023622
          },
          {
            "duration": 0.10714275000000129,
            "durationTicks": 96,
            "midi": 0,
            "name": "C-1",
            "ticks": 54432,
            "time": 60.749939250000004,
            "velocity": 0.5905511811023622
          },
          {
            "duration": 0.10714275000000129,
            "durationTicks": 96,
            "midi": 0,
            "name": "C-1",
            "ticks": 54528,
            "time": 60.857082000000005,
            "velocity": 0.5905511811023622
          },
          {
            "duration": 0.10714275000000129,
            "durationTicks": 96,
            "midi": 0,
            "name": "C-1",
            "ticks": 54624,
            "time": 60.96422475000001,
            "velocity": 0.5905511811023622
          },
          {
            "duration": 0.10714275000000129,
            "durationTicks": 96,
            "midi": 0,
            "name": "C-1",
            "ticks": 54624,
            "time": 60.96422475000001,
            "velocity": 0.5905511811023622
          },
          {
            "duration": 0.10714274999999418,
            "durationTicks": 96,
            "midi": 0,
            "name": "C-1",
            "ticks": 54720,
            "time": 61.07136750000001,
            "velocity": 0.5905511811023622
          },
          {
            "duration": 0.10714275000000129,
            "durationTicks": 96,
            "midi": 0,
            "name": "C-1",
            "ticks": 54912,
            "time": 61.285653,
            "velocity": 0.5905511811023622
          },
          {
            "duration": 0.10714275000000129,
            "durationTicks": 96,
            "midi": 0,
            "name": "C-1",
            "ticks": 54912,
            "time": 61.285653,
            "velocity": 0.5905511811023622
          },
          {
            "duration": 0.10714275000000129,
            "durationTicks": 96,
            "midi": 0,
            "name": "C-1",
            "ticks": 54912,
            "time": 61.285653,
            "velocity": 0.5905511811023622
          },
          {
            "duration": 0.10714275000000129,
            "durationTicks": 96,
            "midi": 0,
            "name": "C-1",
            "ticks": 55104,
            "time": 61.499938500000006,
            "velocity": 0.5905511811023622
          },
          {
            "duration": 0.10714275000000129,
            "durationTicks": 96,
            "midi": 0,
            "name": "C-1",
            "ticks": 55104,
            "time": 61.499938500000006,
            "velocity": 0.5905511811023622
          },
          {
            "duration": 0.10714275000000129,
            "durationTicks": 96,
            "midi": 0,
            "name": "C-1",
            "ticks": 55296,
            "time": 61.714224,
            "velocity": 0.5905511811023622
          },
          {
            "duration": 0.10714275000000129,
            "durationTicks": 96,
            "midi": 0,
            "name": "C-1",
            "ticks": 55296,
            "time": 61.714224,
            "velocity": 0.5905511811023622
          },
          {
            "duration": 0.10714275000000129,
            "durationTicks": 96,
            "midi": 0,
            "name": "C-1",
            "ticks": 55488,
            "time": 61.928509500000004,
            "velocity": 0.5905511811023622
          },
          {
            "duration": 0.10714275000000129,
            "durationTicks": 96,
            "midi": 0,
            "name": "C-1",
            "ticks": 55680,
            "time": 62.14279500000001,
            "velocity": 0.5905511811023622
          },
          {
            "duration": 0.10714275000000129,
            "durationTicks": 96,
            "midi": 0,
            "name": "C-1",
            "ticks": 55680,
            "time": 62.14279500000001,
            "velocity": 0.5905511811023622
          },
          {
            "duration": 0.10714275000000129,
            "durationTicks": 96,
            "midi": 0,
            "name": "C-1",
            "ticks": 55872,
            "time": 62.3570805,
            "velocity": 0.5905511811023622
          },
          {
            "duration": 0.10714275000000129,
            "durationTicks": 96,
            "midi": 0,
            "name": "C-1",
            "ticks": 55968,
            "time": 62.46422325,
            "velocity": 0.5905511811023622
          },
          {
            "duration": 0.10714275000000129,
            "durationTicks": 96,
            "midi": 0,
            "name": "C-1",
            "ticks": 56064,
            "time": 62.571366000000005,
            "velocity": 0.5905511811023622
          },
          {
            "duration": 0.10714275000000129,
            "durationTicks": 96,
            "midi": 0,
            "name": "C-1",
            "ticks": 56160,
            "time": 62.678508750000006,
            "velocity": 0.5905511811023622
          },
          {
            "duration": 0.10714275000000129,
            "durationTicks": 96,
            "midi": 0,
            "name": "C-1",
            "ticks": 56160,
            "time": 62.678508750000006,
            "velocity": 0.5905511811023622
          },
          {
            "duration": 0.10714275000000129,
            "durationTicks": 96,
            "midi": 0,
            "name": "C-1",
            "ticks": 56256,
            "time": 62.78565150000001,
            "velocity": 0.5905511811023622
          },
          {
            "duration": 0.10714275000000129,
            "durationTicks": 96,
            "midi": 0,
            "name": "C-1",
            "ticks": 56448,
            "time": 62.999937,
            "velocity": 0.5905511811023622
          },
          {
            "duration": 0.10714275000000129,
            "durationTicks": 96,
            "midi": 0,
            "name": "C-1",
            "ticks": 56448,
            "time": 62.999937,
            "velocity": 0.5905511811023622
          },
          {
            "duration": 0.10714275000000129,
            "durationTicks": 96,
            "midi": 0,
            "name": "C-1",
            "ticks": 56448,
            "time": 62.999937,
            "velocity": 0.5905511811023622
          },
          {
            "duration": 0.10714275000000129,
            "durationTicks": 96,
            "midi": 0,
            "name": "C-1",
            "ticks": 56640,
            "time": 63.214222500000005,
            "velocity": 0.5905511811023622
          },
          {
            "duration": 0.10714275000000129,
            "durationTicks": 96,
            "midi": 0,
            "name": "C-1",
            "ticks": 56640,
            "time": 63.214222500000005,
            "velocity": 0.5905511811023622
          },
          {
            "duration": 0.10714274999999418,
            "durationTicks": 96,
            "midi": 0,
            "name": "C-1",
            "ticks": 56832,
            "time": 63.42850800000001,
            "velocity": 0.5905511811023622
          },
          {
            "duration": 0.10714274999999418,
            "durationTicks": 96,
            "midi": 0,
            "name": "C-1",
            "ticks": 56832,
            "time": 63.42850800000001,
            "velocity": 0.5905511811023622
          },
          {
            "duration": 0.10714275000000129,
            "durationTicks": 96,
            "midi": 0,
            "name": "C-1",
            "ticks": 57024,
            "time": 63.6427935,
            "velocity": 0.5905511811023622
          },
          {
            "duration": 0.10714275000000129,
            "durationTicks": 96,
            "midi": 0,
            "name": "C-1",
            "ticks": 57216,
            "time": 63.857079000000006,
            "velocity": 0.5905511811023622
          },
          {
            "duration": 0.10714275000000129,
            "durationTicks": 96,
            "midi": 0,
            "name": "C-1",
            "ticks": 57216,
            "time": 63.857079000000006,
            "velocity": 0.5905511811023622
          },
          {
            "duration": 0.10714275000000839,
            "durationTicks": 96,
            "midi": 0,
            "name": "C-1",
            "ticks": 57408,
            "time": 64.0713645,
            "velocity": 0.5905511811023622
          },
          {
            "duration": 0.10714274999999418,
            "durationTicks": 96,
            "midi": 0,
            "name": "C-1",
            "ticks": 57504,
            "time": 64.17850725000001,
            "velocity": 0.5905511811023622
          },
          {
            "duration": 0.10714275000000839,
            "durationTicks": 96,
            "midi": 0,
            "name": "C-1",
            "ticks": 57600,
            "time": 64.28565,
            "velocity": 0.5905511811023622
          },
          {
            "duration": 0.10714274999999418,
            "durationTicks": 96,
            "midi": 0,
            "name": "C-1",
            "ticks": 57696,
            "time": 64.39279275000001,
            "velocity": 0.5905511811023622
          },
          {
            "duration": 0.10714274999999418,
            "durationTicks": 96,
            "midi": 0,
            "name": "C-1",
            "ticks": 57696,
            "time": 64.39279275000001,
            "velocity": 0.5905511811023622
          },
          {
            "duration": 0.10714274999999418,
            "durationTicks": 96,
            "midi": 0,
            "name": "C-1",
            "ticks": 57792,
            "time": 64.4999355,
            "velocity": 0.5905511811023622
          },
          {
            "duration": 0.10714274999999418,
            "durationTicks": 96,
            "midi": 0,
            "name": "C-1",
            "ticks": 57984,
            "time": 64.71422100000001,
            "velocity": 0.5905511811023622
          },
          {
            "duration": 0.10714274999999418,
            "durationTicks": 96,
            "midi": 0,
            "name": "C-1",
            "ticks": 57984,
            "time": 64.71422100000001,
            "velocity": 0.5905511811023622
          },
          {
            "duration": 0.10714274999999418,
            "durationTicks": 96,
            "midi": 0,
            "name": "C-1",
            "ticks": 57984,
            "time": 64.71422100000001,
            "velocity": 0.5905511811023622
          },
          {
            "duration": 0.10714274999999418,
            "durationTicks": 96,
            "midi": 0,
            "name": "C-1",
            "ticks": 58176,
            "time": 64.92850650000001,
            "velocity": 0.5905511811023622
          },
          {
            "duration": 0.10714274999999418,
            "durationTicks": 96,
            "midi": 0,
            "name": "C-1",
            "ticks": 58176,
            "time": 64.92850650000001,
            "velocity": 0.5905511811023622
          },
          {
            "duration": 0.10714275000000839,
            "durationTicks": 96,
            "midi": 0,
            "name": "C-1",
            "ticks": 58368,
            "time": 65.142792,
            "velocity": 0.5905511811023622
          },
          {
            "duration": 0.10714275000000839,
            "durationTicks": 96,
            "midi": 0,
            "name": "C-1",
            "ticks": 58368,
            "time": 65.142792,
            "velocity": 0.5905511811023622
          },
          {
            "duration": 0.10714275000000839,
            "durationTicks": 96,
            "midi": 0,
            "name": "C-1",
            "ticks": 58560,
            "time": 65.3570775,
            "velocity": 0.5905511811023622
          },
          {
            "duration": 0.10714274999999418,
            "durationTicks": 96,
            "midi": 0,
            "name": "C-1",
            "ticks": 58752,
            "time": 65.571363,
            "velocity": 0.5905511811023622
          },
          {
            "duration": 0.10714274999999418,
            "durationTicks": 96,
            "midi": 0,
            "name": "C-1",
            "ticks": 58752,
            "time": 65.571363,
            "velocity": 0.5905511811023622
          },
          {
            "duration": 0.10714274999999418,
            "durationTicks": 96,
            "midi": 0,
            "name": "C-1",
            "ticks": 58944,
            "time": 65.78564850000001,
            "velocity": 0.5905511811023622
          },
          {
            "duration": 0.10714275000000839,
            "durationTicks": 96,
            "midi": 0,
            "name": "C-1",
            "ticks": 59040,
            "time": 65.89279125,
            "velocity": 0.5905511811023622
          },
          {
            "duration": 0.10714274999999418,
            "durationTicks": 96,
            "midi": 0,
            "name": "C-1",
            "ticks": 59136,
            "time": 65.99993400000001,
            "velocity": 0.5905511811023622
          },
          {
            "duration": 0.10714274999999418,
            "durationTicks": 96,
            "midi": 0,
            "name": "C-1",
            "ticks": 59232,
            "time": 66.10707675,
            "velocity": 0.5905511811023622
          },
          {
            "duration": 0.10714274999999418,
            "durationTicks": 96,
            "midi": 0,
            "name": "C-1",
            "ticks": 59232,
            "time": 66.10707675,
            "velocity": 0.5905511811023622
          },
          {
            "duration": 0.10714275000000839,
            "durationTicks": 96,
            "midi": 0,
            "name": "C-1",
            "ticks": 59328,
            "time": 66.2142195,
            "velocity": 0.5905511811023622
          },
          {
            "duration": 0.10714275000000839,
            "durationTicks": 96,
            "midi": 0,
            "name": "C-1",
            "ticks": 59520,
            "time": 66.428505,
            "velocity": 0.5905511811023622
          },
          {
            "duration": 0.10714275000000839,
            "durationTicks": 96,
            "midi": 0,
            "name": "C-1",
            "ticks": 59520,
            "time": 66.428505,
            "velocity": 0.5905511811023622
          },
          {
            "duration": 0.10714275000000839,
            "durationTicks": 96,
            "midi": 0,
            "name": "C-1",
            "ticks": 59520,
            "time": 66.428505,
            "velocity": 0.5905511811023622
          },
          {
            "duration": 0.10714275000000839,
            "durationTicks": 96,
            "midi": 0,
            "name": "C-1",
            "ticks": 59712,
            "time": 66.6427905,
            "velocity": 0.5905511811023622
          },
          {
            "duration": 0.10714275000000839,
            "durationTicks": 96,
            "midi": 0,
            "name": "C-1",
            "ticks": 59712,
            "time": 66.6427905,
            "velocity": 0.5905511811023622
          },
          {
            "duration": 0.10714274999999418,
            "durationTicks": 96,
            "midi": 0,
            "name": "C-1",
            "ticks": 59904,
            "time": 66.857076,
            "velocity": 0.5905511811023622
          },
          {
            "duration": 0.10714274999999418,
            "durationTicks": 96,
            "midi": 0,
            "name": "C-1",
            "ticks": 59904,
            "time": 66.857076,
            "velocity": 0.5905511811023622
          },
          {
            "duration": 0.10714274999999418,
            "durationTicks": 96,
            "midi": 0,
            "name": "C-1",
            "ticks": 60096,
            "time": 67.07136150000001,
            "velocity": 0.5905511811023622
          },
          {
            "duration": 0.10714274999999418,
            "durationTicks": 96,
            "midi": 0,
            "name": "C-1",
            "ticks": 60288,
            "time": 67.28564700000001,
            "velocity": 0.5905511811023622
          },
          {
            "duration": 0.10714274999999418,
            "durationTicks": 96,
            "midi": 0,
            "name": "C-1",
            "ticks": 60288,
            "time": 67.28564700000001,
            "velocity": 0.5905511811023622
          },
          {
            "duration": 0.10714275000000839,
            "durationTicks": 96,
            "midi": 0,
            "name": "C-1",
            "ticks": 60480,
            "time": 67.4999325,
            "velocity": 0.5905511811023622
          },
          {
            "duration": 0.10714274999999418,
            "durationTicks": 96,
            "midi": 0,
            "name": "C-1",
            "ticks": 60576,
            "time": 67.60707525000001,
            "velocity": 0.5905511811023622
          },
          {
            "duration": 0.10714275000000839,
            "durationTicks": 96,
            "midi": 0,
            "name": "C-1",
            "ticks": 60672,
            "time": 67.714218,
            "velocity": 0.5905511811023622
          },
          {
            "duration": 0.10714274999999418,
            "durationTicks": 96,
            "midi": 0,
            "name": "C-1",
            "ticks": 60768,
            "time": 67.82136075000001,
            "velocity": 0.5905511811023622
          },
          {
            "duration": 0.10714274999999418,
            "durationTicks": 96,
            "midi": 0,
            "name": "C-1",
            "ticks": 60768,
            "time": 67.82136075000001,
            "velocity": 0.5905511811023622
          },
          {
            "duration": 0.10714274999999418,
            "durationTicks": 96,
            "midi": 0,
            "name": "C-1",
            "ticks": 60864,
            "time": 67.9285035,
            "velocity": 0.5905511811023622
          },
          {
            "duration": 0.10714274999999418,
            "durationTicks": 96,
            "midi": 0,
            "name": "C-1",
            "ticks": 61056,
            "time": 68.14278900000001,
            "velocity": 0.5905511811023622
          },
          {
            "duration": 0.10714274999999418,
            "durationTicks": 96,
            "midi": 0,
            "name": "C-1",
            "ticks": 61056,
            "time": 68.14278900000001,
            "velocity": 0.5905511811023622
          },
          {
            "duration": 0.10714274999999418,
            "durationTicks": 96,
            "midi": 0,
            "name": "C-1",
            "ticks": 61056,
            "time": 68.14278900000001,
            "velocity": 0.5905511811023622
          },
          {
            "duration": 0.10714274999999418,
            "durationTicks": 96,
            "midi": 0,
            "name": "C-1",
            "ticks": 61248,
            "time": 68.35707450000001,
            "velocity": 0.5905511811023622
          },
          {
            "duration": 0.10714274999999418,
            "durationTicks": 96,
            "midi": 0,
            "name": "C-1",
            "ticks": 61248,
            "time": 68.35707450000001,
            "velocity": 0.5905511811023622
          },
          {
            "duration": 0.10714275000000839,
            "durationTicks": 96,
            "midi": 0,
            "name": "C-1",
            "ticks": 61440,
            "time": 68.57136,
            "velocity": 0.5905511811023622
          },
          {
            "duration": 0.10714275000000839,
            "durationTicks": 96,
            "midi": 0,
            "name": "C-1",
            "ticks": 61440,
            "time": 68.57136,
            "velocity": 0.5905511811023622
          },
          {
            "duration": 0.10714275000000839,
            "durationTicks": 96,
            "midi": 0,
            "name": "C-1",
            "ticks": 61632,
            "time": 68.7856455,
            "velocity": 0.5905511811023622
          },
          {
            "duration": 0.10714275000000839,
            "durationTicks": 96,
            "midi": 0,
            "name": "C-1",
            "ticks": 61824,
            "time": 68.999931,
            "velocity": 0.5905511811023622
          },
          {
            "duration": 0.10714275000000839,
            "durationTicks": 96,
            "midi": 0,
            "name": "C-1",
            "ticks": 61824,
            "time": 68.999931,
            "velocity": 0.5905511811023622
          },
          {
            "duration": 0.10714274999999418,
            "durationTicks": 96,
            "midi": 0,
            "name": "C-1",
            "ticks": 62016,
            "time": 69.2142165,
            "velocity": 0.5905511811023622
          },
          {
            "duration": 0.10714275000000839,
            "durationTicks": 96,
            "midi": 0,
            "name": "C-1",
            "ticks": 62112,
            "time": 69.32135925,
            "velocity": 0.5905511811023622
          },
          {
            "duration": 0.10714274999999418,
            "durationTicks": 96,
            "midi": 0,
            "name": "C-1",
            "ticks": 62208,
            "time": 69.42850200000001,
            "velocity": 0.5905511811023622
          },
          {
            "duration": 0.10714275000000839,
            "durationTicks": 96,
            "midi": 0,
            "name": "C-1",
            "ticks": 62304,
            "time": 69.53564475,
            "velocity": 0.5905511811023622
          },
          {
            "duration": 0.10714275000000839,
            "durationTicks": 96,
            "midi": 0,
            "name": "C-1",
            "ticks": 62304,
            "time": 69.53564475,
            "velocity": 0.5905511811023622
          },
          {
            "duration": 0.10714274999999418,
            "durationTicks": 96,
            "midi": 0,
            "name": "C-1",
            "ticks": 62400,
            "time": 69.64278750000001,
            "velocity": 0.5905511811023622
          },
          {
            "duration": 0.10714275000000839,
            "durationTicks": 96,
            "midi": 0,
            "name": "C-1",
            "ticks": 62592,
            "time": 69.857073,
            "velocity": 0.5905511811023622
          },
          {
            "duration": 0.10714275000000839,
            "durationTicks": 96,
            "midi": 0,
            "name": "C-1",
            "ticks": 62592,
            "time": 69.857073,
            "velocity": 0.5905511811023622
          },
          {
            "duration": 0.10714275000000839,
            "durationTicks": 96,
            "midi": 0,
            "name": "C-1",
            "ticks": 62592,
            "time": 69.857073,
            "velocity": 0.5905511811023622
          },
          {
            "duration": 0.10714275000000839,
            "durationTicks": 96,
            "midi": 0,
            "name": "C-1",
            "ticks": 62784,
            "time": 70.0713585,
            "velocity": 0.5905511811023622
          },
          {
            "duration": 0.10714275000000839,
            "durationTicks": 96,
            "midi": 0,
            "name": "C-1",
            "ticks": 62784,
            "time": 70.0713585,
            "velocity": 0.5905511811023622
          },
          {
            "duration": 0.10714274999999418,
            "durationTicks": 96,
            "midi": 0,
            "name": "C-1",
            "ticks": 62976,
            "time": 70.285644,
            "velocity": 0.5905511811023622
          },
          {
            "duration": 0.10714274999999418,
            "durationTicks": 96,
            "midi": 0,
            "name": "C-1",
            "ticks": 62976,
            "time": 70.285644,
            "velocity": 0.5905511811023622
          },
          {
            "duration": 0.10714274999999418,
            "durationTicks": 96,
            "midi": 0,
            "name": "C-1",
            "ticks": 63168,
            "time": 70.49992950000001,
            "velocity": 0.5905511811023622
          },
          {
            "duration": 0.10714274999999418,
            "durationTicks": 96,
            "midi": 0,
            "name": "C-1",
            "ticks": 63360,
            "time": 70.71421500000001,
            "velocity": 0.5905511811023622
          },
          {
            "duration": 0.10714274999999418,
            "durationTicks": 96,
            "midi": 0,
            "name": "C-1",
            "ticks": 63360,
            "time": 70.71421500000001,
            "velocity": 0.5905511811023622
          },
          {
            "duration": 0.10714274999999418,
            "durationTicks": 96,
            "midi": 0,
            "name": "C-1",
            "ticks": 63552,
            "time": 70.92850050000001,
            "velocity": 0.5905511811023622
          },
          {
            "duration": 0.10714274999999418,
            "durationTicks": 96,
            "midi": 0,
            "name": "C-1",
            "ticks": 63648,
            "time": 71.03564325,
            "velocity": 0.5905511811023622
          },
          {
            "duration": 0.10714275000000839,
            "durationTicks": 96,
            "midi": 0,
            "name": "C-1",
            "ticks": 63744,
            "time": 71.142786,
            "velocity": 0.5905511811023622
          },
          {
            "duration": 0.10714274999999418,
            "durationTicks": 96,
            "midi": 0,
            "name": "C-1",
            "ticks": 63840,
            "time": 71.24992875000001,
            "velocity": 0.5905511811023622
          },
          {
            "duration": 0.10714274999999418,
            "durationTicks": 96,
            "midi": 0,
            "name": "C-1",
            "ticks": 63840,
            "time": 71.24992875000001,
            "velocity": 0.5905511811023622
          },
          {
            "duration": 0.10714275000000839,
            "durationTicks": 96,
            "midi": 0,
            "name": "C-1",
            "ticks": 63936,
            "time": 71.3570715,
            "velocity": 0.5905511811023622
          },
          {
            "duration": 0.10714274999999418,
            "durationTicks": 96,
            "midi": 0,
            "name": "C-1",
            "ticks": 64128,
            "time": 71.571357,
            "velocity": 0.5905511811023622
          },
          {
            "duration": 0.10714274999999418,
            "durationTicks": 96,
            "midi": 0,
            "name": "C-1",
            "ticks": 64128,
            "time": 71.571357,
            "velocity": 0.5905511811023622
          },
          {
            "duration": 0.10714274999999418,
            "durationTicks": 96,
            "midi": 0,
            "name": "C-1",
            "ticks": 64128,
            "time": 71.571357,
            "velocity": 0.5905511811023622
          },
          {
            "duration": 0.10714274999999418,
            "durationTicks": 96,
            "midi": 0,
            "name": "C-1",
            "ticks": 64320,
            "time": 71.78564250000001,
            "velocity": 0.5905511811023622
          },
          {
            "duration": 0.10714274999999418,
            "durationTicks": 96,
            "midi": 0,
            "name": "C-1",
            "ticks": 64320,
            "time": 71.78564250000001,
            "velocity": 0.5905511811023622
          },
          {
            "duration": 0.10714274999999418,
            "durationTicks": 96,
            "midi": 0,
            "name": "C-1",
            "ticks": 64512,
            "time": 71.99992800000001,
            "velocity": 0.5905511811023622
          },
          {
            "duration": 0.10714274999999418,
            "durationTicks": 96,
            "midi": 0,
            "name": "C-1",
            "ticks": 64512,
            "time": 71.99992800000001,
            "velocity": 0.5905511811023622
          },
          {
            "duration": 0.10714275000000839,
            "durationTicks": 96,
            "midi": 0,
            "name": "C-1",
            "ticks": 64704,
            "time": 72.2142135,
            "velocity": 0.5905511811023622
          },
          {
            "duration": 0.10714275000000839,
            "durationTicks": 96,
            "midi": 0,
            "name": "C-1",
            "ticks": 64896,
            "time": 72.428499,
            "velocity": 0.5905511811023622
          },
          {
            "duration": 0.10714275000000839,
            "durationTicks": 96,
            "midi": 0,
            "name": "C-1",
            "ticks": 64896,
            "time": 72.428499,
            "velocity": 0.5905511811023622
          },
          {
            "duration": 0.10714274999999418,
            "durationTicks": 96,
            "midi": 0,
            "name": "C-1",
            "ticks": 65088,
            "time": 72.6427845,
            "velocity": 0.5905511811023622
          },
          {
            "duration": 0.10714275000000839,
            "durationTicks": 96,
            "midi": 0,
            "name": "C-1",
            "ticks": 65184,
            "time": 72.74992725,
            "velocity": 0.5905511811023622
          },
          {
            "duration": 0.10714274999999418,
            "durationTicks": 96,
            "midi": 0,
            "name": "C-1",
            "ticks": 65280,
            "time": 72.85707000000001,
            "velocity": 0.5905511811023622
          },
          {
            "duration": 0.10714275000000839,
            "durationTicks": 96,
            "midi": 0,
            "name": "C-1",
            "ticks": 65376,
            "time": 72.96421275,
            "velocity": 0.5905511811023622
          },
          {
            "duration": 0.10714275000000839,
            "durationTicks": 96,
            "midi": 0,
            "name": "C-1",
            "ticks": 65376,
            "time": 72.96421275,
            "velocity": 0.5905511811023622
          },
          {
            "duration": 0.10714274999999418,
            "durationTicks": 96,
            "midi": 0,
            "name": "C-1",
            "ticks": 65472,
            "time": 73.07135550000001,
            "velocity": 0.5905511811023622
          },
          {
            "duration": 0.10714274999999418,
            "durationTicks": 96,
            "midi": 0,
            "name": "C-1",
            "ticks": 65664,
            "time": 73.28564100000001,
            "velocity": 0.5905511811023622
          },
          {
            "duration": 0.10714274999999418,
            "durationTicks": 96,
            "midi": 0,
            "name": "C-1",
            "ticks": 65664,
            "time": 73.28564100000001,
            "velocity": 0.5905511811023622
          },
          {
            "duration": 0.10714274999999418,
            "durationTicks": 96,
            "midi": 0,
            "name": "C-1",
            "ticks": 65664,
            "time": 73.28564100000001,
            "velocity": 0.5905511811023622
          },
          {
            "duration": 0.10714275000000839,
            "durationTicks": 96,
            "midi": 0,
            "name": "C-1",
            "ticks": 65856,
            "time": 73.4999265,
            "velocity": 0.5905511811023622
          },
          {
            "duration": 0.10714275000000839,
            "durationTicks": 96,
            "midi": 0,
            "name": "C-1",
            "ticks": 65856,
            "time": 73.4999265,
            "velocity": 0.5905511811023622
          },
          {
            "duration": 0.10714275000000839,
            "durationTicks": 96,
            "midi": 0,
            "name": "C-1",
            "ticks": 66048,
            "time": 73.714212,
            "velocity": 0.5905511811023622
          },
          {
            "duration": 0.10714275000000839,
            "durationTicks": 96,
            "midi": 0,
            "name": "C-1",
            "ticks": 66048,
            "time": 73.714212,
            "velocity": 0.5905511811023622
          },
          {
            "duration": 0.10714274999999418,
            "durationTicks": 96,
            "midi": 0,
            "name": "C-1",
            "ticks": 66240,
            "time": 73.9284975,
            "velocity": 0.5905511811023622
          },
          {
            "duration": 0.10714274999999418,
            "durationTicks": 96,
            "midi": 0,
            "name": "C-1",
            "ticks": 66432,
            "time": 74.14278300000001,
            "velocity": 0.5905511811023622
          },
          {
            "duration": 0.10714274999999418,
            "durationTicks": 96,
            "midi": 0,
            "name": "C-1",
            "ticks": 66432,
            "time": 74.14278300000001,
            "velocity": 0.5905511811023622
          },
          {
            "duration": 0.10714274999999418,
            "durationTicks": 96,
            "midi": 0,
            "name": "C-1",
            "ticks": 66624,
            "time": 74.35706850000001,
            "velocity": 0.5905511811023622
          },
          {
            "duration": 0.10714274999999418,
            "durationTicks": 96,
            "midi": 0,
            "name": "C-1",
            "ticks": 66720,
            "time": 74.46421125,
            "velocity": 0.5905511811023622
          },
          {
            "duration": 0.10714275000000839,
            "durationTicks": 96,
            "midi": 0,
            "name": "C-1",
            "ticks": 66816,
            "time": 74.571354,
            "velocity": 0.5905511811023622
          },
          {
            "duration": 0.10714274999999418,
            "durationTicks": 96,
            "midi": 0,
            "name": "C-1",
            "ticks": 66912,
            "time": 74.67849675000001,
            "velocity": 0.5905511811023622
          },
          {
            "duration": 0.10714274999999418,
            "durationTicks": 96,
            "midi": 0,
            "name": "C-1",
            "ticks": 66912,
            "time": 74.67849675000001,
            "velocity": 0.5905511811023622
          },
          {
            "duration": 0.10714275000000839,
            "durationTicks": 96,
            "midi": 0,
            "name": "C-1",
            "ticks": 67008,
            "time": 74.7856395,
            "velocity": 0.5905511811023622
          },
          {
            "duration": 0.10714275000000839,
            "durationTicks": 96,
            "midi": 0,
            "name": "C-1",
            "ticks": 67200,
            "time": 74.999925,
            "velocity": 0.5905511811023622
          },
          {
            "duration": 0.10714275000000839,
            "durationTicks": 96,
            "midi": 0,
            "name": "C-1",
            "ticks": 67200,
            "time": 74.999925,
            "velocity": 0.5905511811023622
          },
          {
            "duration": 0.10714275000000839,
            "durationTicks": 96,
            "midi": 0,
            "name": "C-1",
            "ticks": 67200,
            "time": 74.999925,
            "velocity": 0.5905511811023622
          },
          {
            "duration": 0.10714274999999418,
            "durationTicks": 96,
            "midi": 0,
            "name": "C-1",
            "ticks": 67392,
            "time": 75.21421050000001,
            "velocity": 0.5905511811023622
          },
          {
            "duration": 0.10714274999999418,
            "durationTicks": 96,
            "midi": 0,
            "name": "C-1",
            "ticks": 67392,
            "time": 75.21421050000001,
            "velocity": 0.5905511811023622
          },
          {
            "duration": 0.10714274999999418,
            "durationTicks": 96,
            "midi": 0,
            "name": "C-1",
            "ticks": 67584,
            "time": 75.42849600000001,
            "velocity": 0.5905511811023622
          },
          {
            "duration": 0.10714274999999418,
            "durationTicks": 96,
            "midi": 0,
            "name": "C-1",
            "ticks": 67584,
            "time": 75.42849600000001,
            "velocity": 0.5905511811023622
          },
          {
            "duration": 0.10714274999999418,
            "durationTicks": 96,
            "midi": 0,
            "name": "C-1",
            "ticks": 67776,
            "time": 75.64278150000001,
            "velocity": 0.5905511811023622
          },
          {
            "duration": 0.10714275000000839,
            "durationTicks": 96,
            "midi": 0,
            "name": "C-1",
            "ticks": 67968,
            "time": 75.857067,
            "velocity": 0.5905511811023622
          },
          {
            "duration": 0.10714275000000839,
            "durationTicks": 96,
            "midi": 0,
            "name": "C-1",
            "ticks": 67968,
            "time": 75.857067,
            "velocity": 0.5905511811023622
          },
          {
            "duration": 0.10714275000000839,
            "durationTicks": 96,
            "midi": 0,
            "name": "C-1",
            "ticks": 68160,
            "time": 76.0713525,
            "velocity": 0.5905511811023622
          },
          {
            "duration": 0.10714274999999418,
            "durationTicks": 96,
            "midi": 0,
            "name": "C-1",
            "ticks": 68256,
            "time": 76.17849525000001,
            "velocity": 0.5905511811023622
          },
          {
            "duration": 0.10714274999999418,
            "durationTicks": 96,
            "midi": 0,
            "name": "C-1",
            "ticks": 68352,
            "time": 76.285638,
            "velocity": 0.5905511811023622
          },
          {
            "duration": 0.10714275000000839,
            "durationTicks": 96,
            "midi": 0,
            "name": "C-1",
            "ticks": 68448,
            "time": 76.39278075,
            "velocity": 0.5905511811023622
          },
          {
            "duration": 0.10714275000000839,
            "durationTicks": 96,
            "midi": 0,
            "name": "C-1",
            "ticks": 68448,
            "time": 76.39278075,
            "velocity": 0.5905511811023622
          },
          {
            "duration": 0.10714274999999418,
            "durationTicks": 96,
            "midi": 0,
            "name": "C-1",
            "ticks": 68544,
            "time": 76.49992350000001,
            "velocity": 0.5905511811023622
          },
          {
            "duration": 0.10714274999999418,
            "durationTicks": 96,
            "midi": 0,
            "name": "C-1",
            "ticks": 68736,
            "time": 76.71420900000001,
            "velocity": 0.5905511811023622
          },
          {
            "duration": 0.10714274999999418,
            "durationTicks": 96,
            "midi": 0,
            "name": "C-1",
            "ticks": 68736,
            "time": 76.71420900000001,
            "velocity": 0.5905511811023622
          },
          {
            "duration": 0.10714274999999418,
            "durationTicks": 96,
            "midi": 0,
            "name": "C-1",
            "ticks": 68736,
            "time": 76.71420900000001,
            "velocity": 0.5905511811023622
          },
          {
            "duration": 0.10714275000000839,
            "durationTicks": 96,
            "midi": 0,
            "name": "C-1",
            "ticks": 68928,
            "time": 76.9284945,
            "velocity": 0.5905511811023622
          },
          {
            "duration": 0.10714275000000839,
            "durationTicks": 96,
            "midi": 0,
            "name": "C-1",
            "ticks": 68928,
            "time": 76.9284945,
            "velocity": 0.5905511811023622
          },
          {
            "duration": 0.10714275000000839,
            "durationTicks": 96,
            "midi": 0,
            "name": "C-1",
            "ticks": 69120,
            "time": 77.14278,
            "velocity": 0.5905511811023622
          },
          {
            "duration": 0.10714275000000839,
            "durationTicks": 96,
            "midi": 0,
            "name": "C-1",
            "ticks": 69120,
            "time": 77.14278,
            "velocity": 0.5905511811023622
          },
          {
            "duration": 0.10714275000000839,
            "durationTicks": 96,
            "midi": 0,
            "name": "C-1",
            "ticks": 69312,
            "time": 77.3570655,
            "velocity": 0.5905511811023622
          },
          {
            "duration": 0.10714274999999418,
            "durationTicks": 96,
            "midi": 0,
            "name": "C-1",
            "ticks": 69504,
            "time": 77.571351,
            "velocity": 0.5905511811023622
          },
          {
            "duration": 0.10714274999999418,
            "durationTicks": 96,
            "midi": 0,
            "name": "C-1",
            "ticks": 69504,
            "time": 77.571351,
            "velocity": 0.5905511811023622
          },
          {
            "duration": 0.10714274999999418,
            "durationTicks": 96,
            "midi": 0,
            "name": "C-1",
            "ticks": 69696,
            "time": 77.78563650000001,
            "velocity": 0.5905511811023622
          },
          {
            "duration": 0.10714275000000839,
            "durationTicks": 96,
            "midi": 0,
            "name": "C-1",
            "ticks": 69792,
            "time": 77.89277925,
            "velocity": 0.5905511811023622
          },
          {
            "duration": 0.10714274999999418,
            "durationTicks": 96,
            "midi": 0,
            "name": "C-1",
            "ticks": 69888,
            "time": 77.99992200000001,
            "velocity": 0.5905511811023622
          },
          {
            "duration": 0.10714274999999418,
            "durationTicks": 96,
            "midi": 0,
            "name": "C-1",
            "ticks": 69984,
            "time": 78.10706475,
            "velocity": 0.5905511811023622
          },
          {
            "duration": 0.10714274999999418,
            "durationTicks": 96,
            "midi": 0,
            "name": "C-1",
            "ticks": 69984,
            "time": 78.10706475,
            "velocity": 0.5905511811023622
          },
          {
            "duration": 0.10714275000000839,
            "durationTicks": 96,
            "midi": 0,
            "name": "C-1",
            "ticks": 70080,
            "time": 78.2142075,
            "velocity": 0.5905511811023622
          },
          {
            "duration": 0.10714275000000839,
            "durationTicks": 96,
            "midi": 0,
            "name": "C-1",
            "ticks": 70272,
            "time": 78.428493,
            "velocity": 0.5905511811023622
          },
          {
            "duration": 0.10714275000000839,
            "durationTicks": 96,
            "midi": 0,
            "name": "C-1",
            "ticks": 70272,
            "time": 78.428493,
            "velocity": 0.5905511811023622
          },
          {
            "duration": 0.10714275000000839,
            "durationTicks": 96,
            "midi": 0,
            "name": "C-1",
            "ticks": 70272,
            "time": 78.428493,
            "velocity": 0.5905511811023622
          },
          {
            "duration": 0.10714274999999418,
            "durationTicks": 96,
            "midi": 0,
            "name": "C-1",
            "ticks": 70464,
            "time": 78.6427785,
            "velocity": 0.5905511811023622
          },
          {
            "duration": 0.10714274999999418,
            "durationTicks": 96,
            "midi": 0,
            "name": "C-1",
            "ticks": 70464,
            "time": 78.6427785,
            "velocity": 0.5905511811023622
          },
          {
            "duration": 0.10714274999999418,
            "durationTicks": 96,
            "midi": 0,
            "name": "C-1",
            "ticks": 70656,
            "time": 78.85706400000001,
            "velocity": 0.5905511811023622
          },
          {
            "duration": 0.10714274999999418,
            "durationTicks": 96,
            "midi": 0,
            "name": "C-1",
            "ticks": 70656,
            "time": 78.85706400000001,
            "velocity": 0.5905511811023622
          },
          {
            "duration": 0.10714274999999418,
            "durationTicks": 96,
            "midi": 0,
            "name": "C-1",
            "ticks": 70848,
            "time": 79.07134950000001,
            "velocity": 0.5905511811023622
          },
          {
            "duration": 0.10714274999999418,
            "durationTicks": 96,
            "midi": 0,
            "name": "C-1",
            "ticks": 71040,
            "time": 79.28563500000001,
            "velocity": 0.5905511811023622
          },
          {
            "duration": 0.10714274999999418,
            "durationTicks": 96,
            "midi": 0,
            "name": "C-1",
            "ticks": 71040,
            "time": 79.28563500000001,
            "velocity": 0.5905511811023622
          },
          {
            "duration": 0.10714275000000839,
            "durationTicks": 96,
            "midi": 0,
            "name": "C-1",
            "ticks": 71232,
            "time": 79.4999205,
            "velocity": 0.5905511811023622
          },
          {
            "duration": 0.10714274999999418,
            "durationTicks": 96,
            "midi": 0,
            "name": "C-1",
            "ticks": 71328,
            "time": 79.60706325000001,
            "velocity": 0.5905511811023622
          },
          {
            "duration": 0.10714275000000839,
            "durationTicks": 96,
            "midi": 0,
            "name": "C-1",
            "ticks": 71424,
            "time": 79.714206,
            "velocity": 0.5905511811023622
          },
          {
            "duration": 0.10714274999999418,
            "durationTicks": 96,
            "midi": 0,
            "name": "C-1",
            "ticks": 71520,
            "time": 79.82134875000001,
            "velocity": 0.5905511811023622
          },
          {
            "duration": 0.10714274999999418,
            "durationTicks": 96,
            "midi": 0,
            "name": "C-1",
            "ticks": 71520,
            "time": 79.82134875000001,
            "velocity": 0.5905511811023622
          },
          {
            "duration": 0.10714274999999418,
            "durationTicks": 96,
            "midi": 0,
            "name": "C-1",
            "ticks": 71616,
            "time": 79.9284915,
            "velocity": 0.5905511811023622
          },
          {
            "duration": 0.10714274999999418,
            "durationTicks": 96,
            "midi": 0,
            "name": "C-1",
            "ticks": 71808,
            "time": 80.14277700000001,
            "velocity": 0.5905511811023622
          },
          {
            "duration": 0.10714274999999418,
            "durationTicks": 96,
            "midi": 0,
            "name": "C-1",
            "ticks": 71808,
            "time": 80.14277700000001,
            "velocity": 0.5905511811023622
          },
          {
            "duration": 0.10714274999999418,
            "durationTicks": 96,
            "midi": 0,
            "name": "C-1",
            "ticks": 71808,
            "time": 80.14277700000001,
            "velocity": 0.5905511811023622
          },
          {
            "duration": 0.10714274999999418,
            "durationTicks": 96,
            "midi": 0,
            "name": "C-1",
            "ticks": 72000,
            "time": 80.35706250000001,
            "velocity": 0.5905511811023622
          },
          {
            "duration": 0.10714274999999418,
            "durationTicks": 96,
            "midi": 0,
            "name": "C-1",
            "ticks": 72000,
            "time": 80.35706250000001,
            "velocity": 0.5905511811023622
          },
          {
            "duration": 0.10714275000000839,
            "durationTicks": 96,
            "midi": 0,
            "name": "C-1",
            "ticks": 72192,
            "time": 80.571348,
            "velocity": 0.5905511811023622
          },
          {
            "duration": 0.10714275000000839,
            "durationTicks": 96,
            "midi": 0,
            "name": "C-1",
            "ticks": 72192,
            "time": 80.571348,
            "velocity": 0.5905511811023622
          },
          {
            "duration": 0.10714275000000839,
            "durationTicks": 96,
            "midi": 0,
            "name": "C-1",
            "ticks": 72384,
            "time": 80.7856335,
            "velocity": 0.5905511811023622
          },
          {
            "duration": 0.10714274999999418,
            "durationTicks": 96,
            "midi": 0,
            "name": "C-1",
            "ticks": 72576,
            "time": 80.999919,
            "velocity": 0.5905511811023622
          },
          {
            "duration": 0.10714274999999418,
            "durationTicks": 96,
            "midi": 0,
            "name": "C-1",
            "ticks": 72576,
            "time": 80.999919,
            "velocity": 0.5905511811023622
          },
          {
            "duration": 0.10714274999999418,
            "durationTicks": 96,
            "midi": 0,
            "name": "C-1",
            "ticks": 72768,
            "time": 81.21420450000001,
            "velocity": 0.5905511811023622
          },
          {
            "duration": 0.10714275000000839,
            "durationTicks": 96,
            "midi": 0,
            "name": "C-1",
            "ticks": 72864,
            "time": 81.32134725,
            "velocity": 0.5905511811023622
          },
          {
            "duration": 0.10714274999999418,
            "durationTicks": 96,
            "midi": 0,
            "name": "C-1",
            "ticks": 72960,
            "time": 81.42849000000001,
            "velocity": 0.5905511811023622
          },
          {
            "duration": 0.10714275000000839,
            "durationTicks": 96,
            "midi": 0,
            "name": "C-1",
            "ticks": 73056,
            "time": 81.53563275,
            "velocity": 0.5905511811023622
          },
          {
            "duration": 0.10714275000000839,
            "durationTicks": 96,
            "midi": 0,
            "name": "C-1",
            "ticks": 73056,
            "time": 81.53563275,
            "velocity": 0.5905511811023622
          },
          {
            "duration": 0.10714274999999418,
            "durationTicks": 96,
            "midi": 0,
            "name": "C-1",
            "ticks": 73152,
            "time": 81.64277550000001,
            "velocity": 0.5905511811023622
          },
          {
            "duration": 0.10714275000000839,
            "durationTicks": 96,
            "midi": 0,
            "name": "C-1",
            "ticks": 73344,
            "time": 81.857061,
            "velocity": 0.5905511811023622
          },
          {
            "duration": 0.10714275000000839,
            "durationTicks": 96,
            "midi": 0,
            "name": "C-1",
            "ticks": 73344,
            "time": 81.857061,
            "velocity": 0.5905511811023622
          },
          {
            "duration": 0.10714275000000839,
            "durationTicks": 96,
            "midi": 0,
            "name": "C-1",
            "ticks": 73344,
            "time": 81.857061,
            "velocity": 0.5905511811023622
          },
          {
            "duration": 0.10714275000000839,
            "durationTicks": 96,
            "midi": 0,
            "name": "C-1",
            "ticks": 73536,
            "time": 82.0713465,
            "velocity": 0.5905511811023622
          },
          {
            "duration": 0.10714275000000839,
            "durationTicks": 96,
            "midi": 0,
            "name": "C-1",
            "ticks": 73536,
            "time": 82.0713465,
            "velocity": 0.5905511811023622
          }
        ],
        "endOfTrackTicks": 73632
      },
      {
        "channel": 5,
        "controlChanges": {},
        "pitchBends": [],
        "instrument": {
          "family": "strings",
          "number": 43,
          "name": "contrabass"
        },
        "name": "Strings (Sustain)",
        "notes": [
          {
            "duration": 1.7142840000000001,
            "durationTicks": 1536,
            "midi": 56,
            "name": "G#3",
            "ticks": 0,
            "time": 0,
            "velocity": 0.11023622047244094
          },
          {
            "duration": 1.7142840000000001,
            "durationTicks": 1536,
            "midi": 63,
            "name": "D#4",
            "ticks": 0,
            "time": 0,
            "velocity": 0.11023622047244094
          },
          {
            "duration": 1.7142840000000001,
            "durationTicks": 1536,
            "midi": 60,
            "name": "C4",
            "ticks": 0,
            "time": 0,
            "velocity": 0.11023622047244094
          },
          {
            "duration": 1.7142840000000001,
            "durationTicks": 1536,
            "midi": 60,
            "name": "C4",
            "ticks": 1536,
            "time": 1.7142840000000001,
            "velocity": 0.11023622047244094
          },
          {
            "duration": 1.7142840000000001,
            "durationTicks": 1536,
            "midi": 65,
            "name": "F4",
            "ticks": 1536,
            "time": 1.7142840000000001,
            "velocity": 0.11023622047244094
          },
          {
            "duration": 1.7142840000000001,
            "durationTicks": 1536,
            "midi": 56,
            "name": "G#3",
            "ticks": 1536,
            "time": 1.7142840000000001,
            "velocity": 0.11023622047244094
          },
          {
            "duration": 1.7142840000000001,
            "durationTicks": 1536,
            "midi": 55,
            "name": "G3",
            "ticks": 3072,
            "time": 3.4285680000000003,
            "velocity": 0.11023622047244094
          },
          {
            "duration": 1.7142840000000001,
            "durationTicks": 1536,
            "midi": 60,
            "name": "C4",
            "ticks": 3072,
            "time": 3.4285680000000003,
            "velocity": 0.11023622047244094
          },
          {
            "duration": 1.7142840000000001,
            "durationTicks": 1536,
            "midi": 63,
            "name": "D#4",
            "ticks": 3072,
            "time": 3.4285680000000003,
            "velocity": 0.11023622047244094
          },
          {
            "duration": 1.7142840000000001,
            "durationTicks": 1536,
            "midi": 61,
            "name": "C#4",
            "ticks": 4608,
            "time": 5.142852,
            "velocity": 0.11023622047244094
          },
          {
            "duration": 1.7142840000000001,
            "durationTicks": 1536,
            "midi": 56,
            "name": "G#3",
            "ticks": 4608,
            "time": 5.142852,
            "velocity": 0.11023622047244094
          },
          {
            "duration": 1.7142840000000001,
            "durationTicks": 1536,
            "midi": 65,
            "name": "F4",
            "ticks": 4608,
            "time": 5.142852,
            "velocity": 0.11023622047244094
          },
          {
            "duration": 1.7142839999999993,
            "durationTicks": 1536,
            "midi": 65,
            "name": "F4",
            "ticks": 6144,
            "time": 6.857136000000001,
            "velocity": 0.11023622047244094
          },
          {
            "duration": 1.7142839999999993,
            "durationTicks": 1536,
            "midi": 67,
            "name": "G4",
            "ticks": 6144,
            "time": 6.857136000000001,
            "velocity": 0.11023622047244094
          },
          {
            "duration": 1.7142839999999993,
            "durationTicks": 1536,
            "midi": 58,
            "name": "A#3",
            "ticks": 6144,
            "time": 6.857136000000001,
            "velocity": 0.11023622047244094
          },
          {
            "duration": 1.714284000000001,
            "durationTicks": 1536,
            "midi": 55,
            "name": "G3",
            "ticks": 7680,
            "time": 8.57142,
            "velocity": 0.11023622047244094
          },
          {
            "duration": 1.714284000000001,
            "durationTicks": 1536,
            "midi": 58,
            "name": "A#3",
            "ticks": 7680,
            "time": 8.57142,
            "velocity": 0.11023622047244094
          },
          {
            "duration": 1.714284000000001,
            "durationTicks": 1536,
            "midi": 65,
            "name": "F4",
            "ticks": 7680,
            "time": 8.57142,
            "velocity": 0.11023622047244094
          }
        ],
        "endOfTrackTicks": 9216
      },
      {
        "channel": 6,
        "controlChanges": {},
        "pitchBends": [],
        "instrument": {
          "family": "bass",
          "number": 32,
          "name": "acoustic bass"
        },
        "name": "Bass",
        "notes": [
          {
            "duration": 0.42857099999999804,
            "durationTicks": 384,
            "midi": 36,
            "name": "C2",
            "ticks": 18816,
            "time": 20.999979000000003,
            "velocity": 0.2755905511811024
          },
          {
            "duration": 0.21428550000000257,
            "durationTicks": 192,
            "midi": 36,
            "name": "C2",
            "ticks": 19392,
            "time": 21.6428355,
            "velocity": 0.2755905511811024
          },
          {
            "duration": 0.42857099999999804,
            "durationTicks": 384,
            "midi": 36,
            "name": "C2",
            "ticks": 19584,
            "time": 21.857121000000003,
            "velocity": 0.2755905511811024
          },
          {
            "duration": 0.42857099999999804,
            "durationTicks": 384,
            "midi": 39,
            "name": "D#2",
            "ticks": 20352,
            "time": 22.714263000000003,
            "velocity": 0.2755905511811024
          },
          {
            "duration": 0.21428549999999902,
            "durationTicks": 192,
            "midi": 39,
            "name": "D#2",
            "ticks": 20928,
            "time": 23.357119500000003,
            "velocity": 0.2755905511811024
          },
          {
            "duration": 0.4285710000000016,
            "durationTicks": 384,
            "midi": 39,
            "name": "D#2",
            "ticks": 21120,
            "time": 23.571405000000002,
            "velocity": 0.2755905511811024
          },
          {
            "duration": 0.4285710000000016,
            "durationTicks": 384,
            "midi": 41,
            "name": "F2",
            "ticks": 21888,
            "time": 24.428547000000002,
            "velocity": 0.2755905511811024
          },
          {
            "duration": 0.21428549999999902,
            "durationTicks": 192,
            "midi": 41,
            "name": "F2",
            "ticks": 22464,
            "time": 25.071403500000002,
            "velocity": 0.2755905511811024
          },
          {
            "duration": 0.4285710000000016,
            "durationTicks": 384,
            "midi": 41,
            "name": "F2",
            "ticks": 22656,
            "time": 25.285689,
            "velocity": 0.2755905511811024
          },
          {
            "duration": 0.4285710000000016,
            "durationTicks": 384,
            "midi": 39,
            "name": "D#2",
            "ticks": 23424,
            "time": 26.142831,
            "velocity": 0.2755905511811024
          },
          {
            "duration": 0.21428549999999902,
            "durationTicks": 192,
            "midi": 39,
            "name": "D#2",
            "ticks": 24000,
            "time": 26.7856875,
            "velocity": 0.2755905511811024
          },
          {
            "duration": 0.4285710000000016,
            "durationTicks": 384,
            "midi": 39,
            "name": "D#2",
            "ticks": 24192,
            "time": 26.999973,
            "velocity": 0.2755905511811024
          },
          {
            "duration": 0.42857099999999804,
            "durationTicks": 384,
            "midi": 37,
            "name": "C#2",
            "ticks": 24960,
            "time": 27.857115000000004,
            "velocity": 0.2755905511811024
          },
          {
            "duration": 0.21428550000000257,
            "durationTicks": 192,
            "midi": 37,
            "name": "C#2",
            "ticks": 25536,
            "time": 28.4999715,
            "velocity": 0.2755905511811024
          },
          {
            "duration": 0.42857099999999804,
            "durationTicks": 384,
            "midi": 36,
            "name": "C2",
            "ticks": 25728,
            "time": 28.714257000000003,
            "velocity": 0.2755905511811024
          },
          {
            "duration": 0.42857099999999804,
            "durationTicks": 384,
            "midi": 36,
            "name": "C2",
            "ticks": 26496,
            "time": 29.571399000000003,
            "velocity": 0.2755905511811024
          },
          {
            "duration": 0.21428549999999902,
            "durationTicks": 192,
            "midi": 36,
            "name": "C2",
            "ticks": 27072,
            "time": 30.214255500000004,
            "velocity": 0.2755905511811024
          },
          {
            "duration": 0.42857099999999804,
            "durationTicks": 384,
            "midi": 36,
            "name": "C2",
            "ticks": 27264,
            "time": 30.428541000000003,
            "velocity": 0.2755905511811024
          },
          {
            "duration": 0.4285710000000016,
            "durationTicks": 384,
            "midi": 36,
            "name": "C2",
            "ticks": 28032,
            "time": 31.285683000000002,
            "velocity": 0.2755905511811024
          },
          {
            "duration": 0.21428549999999902,
            "durationTicks": 192,
            "midi": 36,
            "name": "C2",
            "ticks": 28608,
            "time": 31.928539500000003,
            "velocity": 0.2755905511811024
          },
          {
            "duration": 0.42857099999999804,
            "durationTicks": 384,
            "midi": 36,
            "name": "C2",
            "ticks": 28800,
            "time": 32.142825,
            "velocity": 0.2755905511811024
          },
          {
            "duration": 0.42857099999999804,
            "durationTicks": 384,
            "midi": 39,
            "name": "D#2",
            "ticks": 29568,
            "time": 32.999967000000005,
            "velocity": 0.2755905511811024
          },
          {
            "duration": 0.21428549999999547,
            "durationTicks": 192,
            "midi": 39,
            "name": "D#2",
            "ticks": 30144,
            "time": 33.642823500000006,
            "velocity": 0.2755905511811024
          },
          {
            "duration": 0.42857099999999804,
            "durationTicks": 384,
            "midi": 39,
            "name": "D#2",
            "ticks": 30336,
            "time": 33.857109,
            "velocity": 0.2755905511811024
          },
          {
            "duration": 0.42857099999999804,
            "durationTicks": 384,
            "midi": 41,
            "name": "F2",
            "ticks": 31104,
            "time": 34.714251000000004,
            "velocity": 0.2755905511811024
          },
          {
            "duration": 0.21428549999999547,
            "durationTicks": 192,
            "midi": 41,
            "name": "F2",
            "ticks": 31680,
            "time": 35.357107500000005,
            "velocity": 0.2755905511811024
          },
          {
            "duration": 0.42857100000000514,
            "durationTicks": 384,
            "midi": 41,
            "name": "F2",
            "ticks": 31872,
            "time": 35.571393,
            "velocity": 0.2755905511811024
          },
          {
            "duration": 0.42857099999999804,
            "durationTicks": 384,
            "midi": 39,
            "name": "D#2",
            "ticks": 32640,
            "time": 36.428535000000004,
            "velocity": 0.2755905511811024
          },
          {
            "duration": 0.21428549999999547,
            "durationTicks": 192,
            "midi": 39,
            "name": "D#2",
            "ticks": 33216,
            "time": 37.071391500000004,
            "velocity": 0.2755905511811024
          },
          {
            "duration": 0.42857100000000514,
            "durationTicks": 384,
            "midi": 39,
            "name": "D#2",
            "ticks": 33408,
            "time": 37.285677,
            "velocity": 0.2755905511811024
          },
          {
            "duration": 0.42857099999999804,
            "durationTicks": 384,
            "midi": 37,
            "name": "C#2",
            "ticks": 34176,
            "time": 38.142819,
            "velocity": 0.2755905511811024
          },
          {
            "duration": 0.21428550000000257,
            "durationTicks": 192,
            "midi": 37,
            "name": "C#2",
            "ticks": 34752,
            "time": 38.7856755,
            "velocity": 0.2755905511811024
          },
          {
            "duration": 0.42857099999999804,
            "durationTicks": 384,
            "midi": 36,
            "name": "C2",
            "ticks": 34944,
            "time": 38.999961000000006,
            "velocity": 0.2755905511811024
          },
          {
            "duration": 0.42857099999999804,
            "durationTicks": 384,
            "midi": 36,
            "name": "C2",
            "ticks": 35712,
            "time": 39.857103,
            "velocity": 0.2755905511811024
          },
          {
            "duration": 0.21428550000000257,
            "durationTicks": 192,
            "midi": 36,
            "name": "C2",
            "ticks": 36288,
            "time": 40.4999595,
            "velocity": 0.2755905511811024
          },
          {
            "duration": 0.42857099999999804,
            "durationTicks": 384,
            "midi": 36,
            "name": "C2",
            "ticks": 36480,
            "time": 40.714245000000005,
            "velocity": 0.2755905511811024
          },
          {
            "duration": 0.42857100000000514,
            "durationTicks": 384,
            "midi": 35,
            "name": "B1",
            "ticks": 37248,
            "time": 41.571387,
            "velocity": 0.2755905511811024
          },
          {
            "duration": 0.21428550000000257,
            "durationTicks": 192,
            "midi": 35,
            "name": "B1",
            "ticks": 37824,
            "time": 42.2142435,
            "velocity": 0.2755905511811024
          },
          {
            "duration": 0.42857099999999804,
            "durationTicks": 384,
            "midi": 35,
            "name": "B1",
            "ticks": 38016,
            "time": 42.428529000000005,
            "velocity": 0.2755905511811024
          },
          {
            "duration": 0.42857100000000514,
            "durationTicks": 384,
            "midi": 38,
            "name": "D2",
            "ticks": 38784,
            "time": 43.285671,
            "velocity": 0.2755905511811024
          },
          {
            "duration": 0.21428550000000257,
            "durationTicks": 192,
            "midi": 38,
            "name": "D2",
            "ticks": 39360,
            "time": 43.9285275,
            "velocity": 0.2755905511811024
          },
          {
            "duration": 0.42857099999999804,
            "durationTicks": 384,
            "midi": 38,
            "name": "D2",
            "ticks": 39552,
            "time": 44.142813000000004,
            "velocity": 0.2755905511811024
          },
          {
            "duration": 0.42857099999999804,
            "durationTicks": 384,
            "midi": 40,
            "name": "E2",
            "ticks": 40320,
            "time": 44.99995500000001,
            "velocity": 0.2755905511811024
          },
          {
            "duration": 0.21428550000000257,
            "durationTicks": 192,
            "midi": 40,
            "name": "E2",
            "ticks": 40896,
            "time": 45.6428115,
            "velocity": 0.2755905511811024
          },
          {
            "duration": 0.42857099999999804,
            "durationTicks": 384,
            "midi": 40,
            "name": "E2",
            "ticks": 41088,
            "time": 45.857097,
            "velocity": 0.2755905511811024
          },
          {
            "duration": 0.42857099999999804,
            "durationTicks": 384,
            "midi": 38,
            "name": "D2",
            "ticks": 41856,
            "time": 46.714239000000006,
            "velocity": 0.2755905511811024
          },
          {
            "duration": 0.21428549999999547,
            "durationTicks": 192,
            "midi": 38,
            "name": "D2",
            "ticks": 42432,
            "time": 47.35709550000001,
            "velocity": 0.2755905511811024
          },
          {
            "duration": 0.42857100000000514,
            "durationTicks": 384,
            "midi": 38,
            "name": "D2",
            "ticks": 42624,
            "time": 47.571381,
            "velocity": 0.2755905511811024
          },
          {
            "duration": 0.42857099999999804,
            "durationTicks": 384,
            "midi": 36,
            "name": "C2",
            "ticks": 43392,
            "time": 48.428523000000006,
            "velocity": 0.2755905511811024
          },
          {
            "duration": 0.21428549999999547,
            "durationTicks": 192,
            "midi": 36,
            "name": "C2",
            "ticks": 43968,
            "time": 49.071379500000006,
            "velocity": 0.2755905511811024
          },
          {
            "duration": 0.42857100000000514,
            "durationTicks": 384,
            "midi": 35,
            "name": "B1",
            "ticks": 44160,
            "time": 49.285665,
            "velocity": 0.2755905511811024
          },
          {
            "duration": 0.42857099999999804,
            "durationTicks": 384,
            "midi": 35,
            "name": "B1",
            "ticks": 44928,
            "time": 50.142807000000005,
            "velocity": 0.2755905511811024
          },
          {
            "duration": 0.21428549999999547,
            "durationTicks": 192,
            "midi": 35,
            "name": "B1",
            "ticks": 45504,
            "time": 50.785663500000005,
            "velocity": 0.2755905511811024
          },
          {
            "duration": 0.42857100000000514,
            "durationTicks": 384,
            "midi": 35,
            "name": "B1",
            "ticks": 45696,
            "time": 50.999949,
            "velocity": 0.2755905511811024
          },
          {
            "duration": 0.42857099999999804,
            "durationTicks": 384,
            "midi": 35,
            "name": "B1",
            "ticks": 46464,
            "time": 51.857091000000004,
            "velocity": 0.2755905511811024
          },
          {
            "duration": 0.21428550000000257,
            "durationTicks": 192,
            "midi": 35,
            "name": "B1",
            "ticks": 47040,
            "time": 52.499947500000005,
            "velocity": 0.2755905511811024
          },
          {
            "duration": 0.42857099999999804,
            "durationTicks": 384,
            "midi": 35,
            "name": "B1",
            "ticks": 47232,
            "time": 52.71423300000001,
            "velocity": 0.2755905511811024
          },
          {
            "duration": 0.42857099999999804,
            "durationTicks": 384,
            "midi": 38,
            "name": "D2",
            "ticks": 48000,
            "time": 53.571375,
            "velocity": 0.2755905511811024
          },
          {
            "duration": 0.21428550000000257,
            "durationTicks": 192,
            "midi": 38,
            "name": "D2",
            "ticks": 48576,
            "time": 54.214231500000004,
            "velocity": 0.2755905511811024
          },
          {
            "duration": 0.42857099999999804,
            "durationTicks": 384,
            "midi": 38,
            "name": "D2",
            "ticks": 48768,
            "time": 54.42851700000001,
            "velocity": 0.2755905511811024
          },
          {
            "duration": 0.42857100000000514,
            "durationTicks": 384,
            "midi": 40,
            "name": "E2",
            "ticks": 49536,
            "time": 55.285659,
            "velocity": 0.2755905511811024
          },
          {
            "duration": 0.21428550000000257,
            "durationTicks": 192,
            "midi": 40,
            "name": "E2",
            "ticks": 50112,
            "time": 55.9285155,
            "velocity": 0.2755905511811024
          },
          {
            "duration": 0.42857099999999804,
            "durationTicks": 384,
            "midi": 40,
            "name": "E2",
            "ticks": 50304,
            "time": 56.142801000000006,
            "velocity": 0.2755905511811024
          },
          {
            "duration": 0.42857100000000514,
            "durationTicks": 384,
            "midi": 38,
            "name": "D2",
            "ticks": 51072,
            "time": 56.999943,
            "velocity": 0.2755905511811024
          },
          {
            "duration": 0.21428550000000257,
            "durationTicks": 192,
            "midi": 38,
            "name": "D2",
            "ticks": 51648,
            "time": 57.6427995,
            "velocity": 0.2755905511811024
          },
          {
            "duration": 0.42857099999999804,
            "durationTicks": 384,
            "midi": 38,
            "name": "D2",
            "ticks": 51840,
            "time": 57.857085000000005,
            "velocity": 0.2755905511811024
          },
          {
            "duration": 0.42857099999999804,
            "durationTicks": 384,
            "midi": 36,
            "name": "C2",
            "ticks": 52608,
            "time": 58.71422700000001,
            "velocity": 0.2755905511811024
          },
          {
            "duration": 0.21428550000000257,
            "durationTicks": 192,
            "midi": 36,
            "name": "C2",
            "ticks": 53184,
            "time": 59.3570835,
            "velocity": 0.2755905511811024
          },
          {
            "duration": 0.42857099999999804,
            "durationTicks": 384,
            "midi": 35,
            "name": "B1",
            "ticks": 53376,
            "time": 59.571369000000004,
            "velocity": 0.2755905511811024
          },
          {
            "duration": 0.42857099999999804,
            "durationTicks": 384,
            "midi": 35,
            "name": "B1",
            "ticks": 54144,
            "time": 60.42851100000001,
            "velocity": 0.2755905511811024
          },
          {
            "duration": 0.21428549999999547,
            "durationTicks": 192,
            "midi": 35,
            "name": "B1",
            "ticks": 54720,
            "time": 61.07136750000001,
            "velocity": 0.2755905511811024
          },
          {
            "duration": 0.42857099999999804,
            "durationTicks": 384,
            "midi": 35,
            "name": "B1",
            "ticks": 54912,
            "time": 61.285653,
            "velocity": 0.2755905511811024
          },
          {
            "duration": 0.42857099999999804,
            "durationTicks": 384,
            "midi": 37,
            "name": "C#2",
            "ticks": 55680,
            "time": 62.14279500000001,
            "velocity": 0.2755905511811024
          },
          {
            "duration": 0.21428549999999547,
            "durationTicks": 192,
            "midi": 37,
            "name": "C#2",
            "ticks": 56256,
            "time": 62.78565150000001,
            "velocity": 0.2755905511811024
          },
          {
            "duration": 0.42857100000000514,
            "durationTicks": 384,
            "midi": 37,
            "name": "C#2",
            "ticks": 56448,
            "time": 62.999937,
            "velocity": 0.2755905511811024
          },
          {
            "duration": 0.42857099999999804,
            "durationTicks": 384,
            "midi": 40,
            "name": "E2",
            "ticks": 57216,
            "time": 63.857079000000006,
            "velocity": 0.2755905511811024
          },
          {
            "duration": 0.21428550000000257,
            "durationTicks": 192,
            "midi": 40,
            "name": "E2",
            "ticks": 57792,
            "time": 64.4999355,
            "velocity": 0.2755905511811024
          },
          {
            "duration": 0.42857099999999093,
            "durationTicks": 384,
            "midi": 40,
            "name": "E2",
            "ticks": 57984,
            "time": 64.71422100000001,
            "velocity": 0.2755905511811024
          },
          {
            "duration": 0.42857100000000514,
            "durationTicks": 384,
            "midi": 42,
            "name": "F#2",
            "ticks": 58752,
            "time": 65.571363,
            "velocity": 0.2755905511811024
          },
          {
            "duration": 0.21428550000000257,
            "durationTicks": 192,
            "midi": 42,
            "name": "F#2",
            "ticks": 59328,
            "time": 66.2142195,
            "velocity": 0.2755905511811024
          },
          {
            "duration": 0.42857100000000514,
            "durationTicks": 384,
            "midi": 42,
            "name": "F#2",
            "ticks": 59520,
            "time": 66.428505,
            "velocity": 0.2755905511811024
          },
          {
            "duration": 0.42857099999999093,
            "durationTicks": 384,
            "midi": 40,
            "name": "E2",
            "ticks": 60288,
            "time": 67.28564700000001,
            "velocity": 0.2755905511811024
          },
          {
            "duration": 0.21428550000000257,
            "durationTicks": 192,
            "midi": 40,
            "name": "E2",
            "ticks": 60864,
            "time": 67.9285035,
            "velocity": 0.2755905511811024
          },
          {
            "duration": 0.42857099999999093,
            "durationTicks": 384,
            "midi": 40,
            "name": "E2",
            "ticks": 61056,
            "time": 68.14278900000001,
            "velocity": 0.2755905511811024
          },
          {
            "duration": 0.42857100000000514,
            "durationTicks": 384,
            "midi": 38,
            "name": "D2",
            "ticks": 61824,
            "time": 68.999931,
            "velocity": 0.2755905511811024
          },
          {
            "duration": 0.21428549999998836,
            "durationTicks": 192,
            "midi": 38,
            "name": "D2",
            "ticks": 62400,
            "time": 69.64278750000001,
            "velocity": 0.2755905511811024
          },
          {
            "duration": 0.42857100000000514,
            "durationTicks": 384,
            "midi": 37,
            "name": "C#2",
            "ticks": 62592,
            "time": 69.857073,
            "velocity": 0.2755905511811024
          },
          {
            "duration": 0.42857099999999093,
            "durationTicks": 384,
            "midi": 37,
            "name": "C#2",
            "ticks": 63360,
            "time": 70.71421500000001,
            "velocity": 0.2755905511811024
          },
          {
            "duration": 0.21428550000000257,
            "durationTicks": 192,
            "midi": 37,
            "name": "C#2",
            "ticks": 63936,
            "time": 71.3570715,
            "velocity": 0.2755905511811024
          },
          {
            "duration": 0.42857100000000514,
            "durationTicks": 384,
            "midi": 37,
            "name": "C#2",
            "ticks": 64128,
            "time": 71.571357,
            "velocity": 0.2755905511811024
          },
          {
            "duration": 0.42857100000000514,
            "durationTicks": 384,
            "midi": 37,
            "name": "C#2",
            "ticks": 64896,
            "time": 72.428499,
            "velocity": 0.2755905511811024
          },
          {
            "duration": 0.21428550000000257,
            "durationTicks": 192,
            "midi": 37,
            "name": "C#2",
            "ticks": 65472,
            "time": 73.07135550000001,
            "velocity": 0.2755905511811024
          },
          {
            "duration": 0.42857099999999093,
            "durationTicks": 384,
            "midi": 37,
            "name": "C#2",
            "ticks": 65664,
            "time": 73.28564100000001,
            "velocity": 0.2755905511811024
          },
          {
            "duration": 0.42857099999999093,
            "durationTicks": 384,
            "midi": 40,
            "name": "E2",
            "ticks": 66432,
            "time": 74.14278300000001,
            "velocity": 0.2755905511811024
          },
          {
            "duration": 0.21428550000000257,
            "durationTicks": 192,
            "midi": 40,
            "name": "E2",
            "ticks": 67008,
            "time": 74.7856395,
            "velocity": 0.2755905511811024
          },
          {
            "duration": 0.42857100000000514,
            "durationTicks": 384,
            "midi": 40,
            "name": "E2",
            "ticks": 67200,
            "time": 74.999925,
            "velocity": 0.2755905511811024
          },
          {
            "duration": 0.42857100000000514,
            "durationTicks": 384,
            "midi": 42,
            "name": "F#2",
            "ticks": 67968,
            "time": 75.857067,
            "velocity": 0.2755905511811024
          },
          {
            "duration": 0.21428550000000257,
            "durationTicks": 192,
            "midi": 42,
            "name": "F#2",
            "ticks": 68544,
            "time": 76.49992350000001,
            "velocity": 0.2755905511811024
          },
          {
            "duration": 0.42857099999999093,
            "durationTicks": 384,
            "midi": 42,
            "name": "F#2",
            "ticks": 68736,
            "time": 76.71420900000001,
            "velocity": 0.2755905511811024
          },
          {
            "duration": 0.42857100000000514,
            "durationTicks": 384,
            "midi": 40,
            "name": "E2",
            "ticks": 69504,
            "time": 77.571351,
            "velocity": 0.2755905511811024
          },
          {
            "duration": 0.21428550000000257,
            "durationTicks": 192,
            "midi": 40,
            "name": "E2",
            "ticks": 70080,
            "time": 78.2142075,
            "velocity": 0.2755905511811024
          },
          {
            "duration": 0.42857100000000514,
            "durationTicks": 384,
            "midi": 40,
            "name": "E2",
            "ticks": 70272,
            "time": 78.428493,
            "velocity": 0.2755905511811024
          },
          {
            "duration": 0.42857099999999093,
            "durationTicks": 384,
            "midi": 38,
            "name": "D2",
            "ticks": 71040,
            "time": 79.28563500000001,
            "velocity": 0.2755905511811024
          },
          {
            "duration": 0.21428550000000257,
            "durationTicks": 192,
            "midi": 38,
            "name": "D2",
            "ticks": 71616,
            "time": 79.9284915,
            "velocity": 0.2755905511811024
          },
          {
            "duration": 0.42857099999999093,
            "durationTicks": 384,
            "midi": 37,
            "name": "C#2",
            "ticks": 71808,
            "time": 80.14277700000001,
            "velocity": 0.2755905511811024
          },
          {
            "duration": 0.42857100000000514,
            "durationTicks": 384,
            "midi": 37,
            "name": "C#2",
            "ticks": 72576,
            "time": 80.999919,
            "velocity": 0.2755905511811024
          },
          {
            "duration": 0.21428549999998836,
            "durationTicks": 192,
            "midi": 37,
            "name": "C#2",
            "ticks": 73152,
            "time": 81.64277550000001,
            "velocity": 0.2755905511811024
          },
          {
            "duration": 0.42857100000000514,
            "durationTicks": 384,
            "midi": 37,
            "name": "C#2",
            "ticks": 73344,
            "time": 81.857061,
            "velocity": 0.2755905511811024
          }
        ],
        "endOfTrackTicks": 73728
      }
    ]
  }