{
    "header": {
      "keySignatures": [],
      "meta": [],
      "name": "",
      "ppq": 384,
      "tempos": [
        {
          "bpm": 172.00010320006191,
          "ticks": 0
        }
      ],
      "timeSignatures": [
        {
          "ticks": 0,
          "timeSignature": [
            1,
            4
          ],
          "measures": 0
        }
      ]
    },
    "tracks": [
      {
        "channel": 0,
        "controlChanges": {},
        "pitchBends": [],
        "instrument": {
          "family": "guitar",
          "number": 29,
          "name": "overdriven guitar"
        },
        "name": "Electric Guitar",
        "notes": [
          {
            "duration": 0.5232555000000048,
            "durationTicks": 576,
            "midi": 64,
            "name": "E4",
            "ticks": 47232,
            "time": 42.906951,
            "velocity": 0.3937007874015748
          },
          {
            "duration": 0.34883699999999607,
            "durationTicks": 384,
            "midi": 66,
            "name": "F#4",
            "ticks": 47808,
            "time": 43.430206500000004,
            "velocity": 0.3937007874015748
          },
          {
            "duration": 0.1744185000000016,
            "durationTicks": 192,
            "midi": 64,
            "name": "E4",
            "ticks": 48192,
            "time": 43.7790435,
            "velocity": 0.3937007874015748
          },
          {
            "duration": 1.0465110000000024,
            "durationTicks": 1152,
            "midi": 67,
            "name": "G4",
            "ticks": 48384,
            "time": 43.953462,
            "velocity": 0.3937007874015748
          },
          {
            "duration": 1.0465109999999953,
            "durationTicks": 1152,
            "midi": 66,
            "name": "F#4",
            "ticks": 49536,
            "time": 44.999973000000004,
            "velocity": 0.3937007874015748
          },
          {
            "duration": 1.0465110000000024,
            "durationTicks": 1152,
            "midi": 64,
            "name": "E4",
            "ticks": 50688,
            "time": 46.046484,
            "velocity": 0.3937007874015748
          },
          {
            "duration": 0.5232554999999977,
            "durationTicks": 576,
            "midi": 64,
            "name": "E4",
            "ticks": 51840,
            "time": 47.092995,
            "velocity": 0.3937007874015748
          },
          {
            "duration": 0.3488370000000032,
            "durationTicks": 384,
            "midi": 66,
            "name": "F#4",
            "ticks": 52416,
            "time": 47.6162505,
            "velocity": 0.3937007874015748
          },
          {
            "duration": 0.1744185000000016,
            "durationTicks": 192,
            "midi": 64,
            "name": "E4",
            "ticks": 52800,
            "time": 47.9650875,
            "velocity": 0.3937007874015748
          },
          {
            "duration": 0.5232554999999977,
            "durationTicks": 576,
            "midi": 67,
            "name": "G4",
            "ticks": 52992,
            "time": 48.139506000000004,
            "velocity": 0.3937007874015748
          },
          {
            "duration": 0.5232554999999977,
            "durationTicks": 576,
            "midi": 69,
            "name": "A4",
            "ticks": 53568,
            "time": 48.6627615,
            "velocity": 0.3937007874015748
          },
          {
            "duration": 1.0465110000000024,
            "durationTicks": 1152,
            "midi": 67,
            "name": "G4",
            "ticks": 54144,
            "time": 49.186017,
            "velocity": 0.3937007874015748
          },
          {
            "duration": 1.0465110000000024,
            "durationTicks": 1152,
            "midi": 66,
            "name": "F#4",
            "ticks": 55296,
            "time": 50.232528,
            "velocity": 0.3937007874015748
          },
          {
            "duration": 0.5232554999999977,
            "durationTicks": 576,
            "midi": 64,
            "name": "E4",
            "ticks": 56448,
            "time": 51.279039000000004,
            "velocity": 0.3937007874015748
          },
          {
            "duration": 0.34883699999999607,
            "durationTicks": 384,
            "midi": 66,
            "name": "F#4",
            "ticks": 57024,
            "time": 51.8022945,
            "velocity": 0.3937007874015748
          },
          {
            "duration": 0.1744185000000016,
            "durationTicks": 192,
            "midi": 64,
            "name": "E4",
            "ticks": 57408,
            "time": 52.1511315,
            "velocity": 0.3937007874015748
          },
          {
            "duration": 0.5232555000000048,
            "durationTicks": 576,
            "midi": 67,
            "name": "G4",
            "ticks": 57600,
            "time": 52.32555,
            "velocity": 0.3937007874015748
          },
          {
            "duration": 0.5232554999999977,
            "durationTicks": 576,
            "midi": 69,
            "name": "A4",
            "ticks": 58176,
            "time": 52.848805500000005,
            "velocity": 0.3937007874015748
          },
          {
            "duration": 0.6976739999999992,
            "durationTicks": 768,
            "midi": 71,
            "name": "B4",
            "ticks": 58752,
            "time": 53.372061,
            "velocity": 0.3937007874015748
          },
          {
            "duration": 0.3488370000000032,
            "durationTicks": 384,
            "midi": 72,
            "name": "C5",
            "ticks": 59520,
            "time": 54.069735,
            "velocity": 0.3937007874015748
          },
          {
            "duration": 0.5232554999999977,
            "durationTicks": 576,
            "midi": 69,
            "name": "A4",
            "ticks": 59904,
            "time": 54.418572000000005,
            "velocity": 0.3937007874015748
          },
          {
            "duration": 0.5232554999999977,
            "durationTicks": 576,
            "midi": 67,
            "name": "G4",
            "ticks": 60480,
            "time": 54.9418275,
            "velocity": 0.3937007874015748
          },
          {
            "duration": 0.1744185000000016,
            "durationTicks": 192,
            "midi": 69,
            "name": "A4",
            "ticks": 61056,
            "time": 55.465083,
            "velocity": 0.3937007874015748
          },
          {
            "duration": 0.1744185000000016,
            "durationTicks": 192,
            "midi": 71,
            "name": "B4",
            "ticks": 61248,
            "time": 55.6395015,
            "velocity": 0.3937007874015748
          },
          {
            "duration": 1.3953479999999985,
            "durationTicks": 1536,
            "midi": 71,
            "name": "B4",
            "ticks": 61440,
            "time": 55.81392,
            "velocity": 0.3937007874015748
          },
          {
            "duration": 0.3488370000000032,
            "durationTicks": 384,
            "midi": 72,
            "name": "C5",
            "ticks": 62976,
            "time": 57.209268,
            "velocity": 0.3937007874015748
          },
          {
            "duration": 0.17441849999999448,
            "durationTicks": 192,
            "midi": 69,
            "name": "A4",
            "ticks": 63360,
            "time": 57.558105000000005,
            "velocity": 0.3937007874015748
          },
          {
            "duration": 0.1744185000000016,
            "durationTicks": 192,
            "midi": 71,
            "name": "B4",
            "ticks": 63552,
            "time": 57.7325235,
            "velocity": 0.3937007874015748
          },
          {
            "duration": 1.3953479999999985,
            "durationTicks": 1536,
            "midi": 71,
            "name": "B4",
            "ticks": 63744,
            "time": 57.906942,
            "velocity": 0.3937007874015748
          },
          {
            "duration": 0.1744185000000016,
            "durationTicks": 192,
            "midi": 67,
            "name": "G4",
            "ticks": 65280,
            "time": 59.30229,
            "velocity": 0.3937007874015748
          },
          {
            "duration": 0.1744185000000016,
            "durationTicks": 192,
            "midi": 66,
            "name": "F#4",
            "ticks": 65472,
            "time": 59.4767085,
            "velocity": 0.3937007874015748
          },
          {
            "duration": 0.5232554999999905,
            "durationTicks": 576,
            "midi": 64,
            "name": "E4",
            "ticks": 109440,
            "time": 99.41854500000001,
            "velocity": 0.3937007874015748
          },
          {
            "duration": 0.3488370000000032,
            "durationTicks": 384,
            "midi": 66,
            "name": "F#4",
            "ticks": 110016,
            "time": 99.9418005,
            "velocity": 0.3937007874015748
          },
          {
            "duration": 0.1744185000000016,
            "durationTicks": 192,
            "midi": 64,
            "name": "E4",
            "ticks": 110400,
            "time": 100.2906375,
            "velocity": 0.3937007874015748
          },
          {
            "duration": 1.0465109999999953,
            "durationTicks": 1152,
            "midi": 67,
            "name": "G4",
            "ticks": 110592,
            "time": 100.465056,
            "velocity": 0.3937007874015748
          },
          {
            "duration": 1.0465110000000095,
            "durationTicks": 1152,
            "midi": 66,
            "name": "F#4",
            "ticks": 111744,
            "time": 101.511567,
            "velocity": 0.3937007874015748
          },
          {
            "duration": 1.0465109999999953,
            "durationTicks": 1152,
            "midi": 64,
            "name": "E4",
            "ticks": 112896,
            "time": 102.55807800000001,
            "velocity": 0.3937007874015748
          },
          {
            "duration": 0.5232555000000048,
            "durationTicks": 576,
            "midi": 64,
            "name": "E4",
            "ticks": 114048,
            "time": 103.604589,
            "velocity": 0.3937007874015748
          },
          {
            "duration": 0.34883699999998896,
            "durationTicks": 384,
            "midi": 66,
            "name": "F#4",
            "ticks": 114624,
            "time": 104.12784450000001,
            "velocity": 0.3937007874015748
          },
          {
            "duration": 0.1744185000000016,
            "durationTicks": 192,
            "midi": 64,
            "name": "E4",
            "ticks": 115008,
            "time": 104.4766815,
            "velocity": 0.3937007874015748
          },
          {
            "duration": 0.5232555000000048,
            "durationTicks": 576,
            "midi": 67,
            "name": "G4",
            "ticks": 115200,
            "time": 104.6511,
            "velocity": 0.3937007874015748
          },
          {
            "duration": 0.5232555000000048,
            "durationTicks": 576,
            "midi": 69,
            "name": "A4",
            "ticks": 115776,
            "time": 105.1743555,
            "velocity": 0.3937007874015748
          },
          {
            "duration": 1.0465109999999953,
            "durationTicks": 1152,
            "midi": 67,
            "name": "G4",
            "ticks": 116352,
            "time": 105.69761100000001,
            "velocity": 0.3937007874015748
          },
          {
            "duration": 1.0465109999999953,
            "durationTicks": 1152,
            "midi": 66,
            "name": "F#4",
            "ticks": 117504,
            "time": 106.744122,
            "velocity": 0.3937007874015748
          },
          {
            "duration": 0.5232555000000048,
            "durationTicks": 576,
            "midi": 64,
            "name": "E4",
            "ticks": 118656,
            "time": 107.790633,
            "velocity": 0.3937007874015748
          },
          {
            "duration": 0.3488370000000032,
            "durationTicks": 384,
            "midi": 66,
            "name": "F#4",
            "ticks": 119232,
            "time": 108.3138885,
            "velocity": 0.3937007874015748
          },
          {
            "duration": 0.1744185000000016,
            "durationTicks": 192,
            "midi": 64,
            "name": "E4",
            "ticks": 119616,
            "time": 108.66272550000001,
            "velocity": 0.3937007874015748
          },
          {
            "duration": 0.5232554999999905,
            "durationTicks": 576,
            "midi": 67,
            "name": "G4",
            "ticks": 119808,
            "time": 108.83714400000001,
            "velocity": 0.3937007874015748
          },
          {
            "duration": 0.5232555000000048,
            "durationTicks": 576,
            "midi": 69,
            "name": "A4",
            "ticks": 120384,
            "time": 109.3603995,
            "velocity": 0.3937007874015748
          },
          {
            "duration": 0.6976739999999921,
            "durationTicks": 768,
            "midi": 71,
            "name": "B4",
            "ticks": 120960,
            "time": 109.883655,
            "velocity": 0.3937007874015748
          },
          {
            "duration": 0.3488370000000032,
            "durationTicks": 384,
            "midi": 72,
            "name": "C5",
            "ticks": 121728,
            "time": 110.581329,
            "velocity": 0.3937007874015748
          },
          {
            "duration": 0.5232555000000048,
            "durationTicks": 576,
            "midi": 69,
            "name": "A4",
            "ticks": 122112,
            "time": 110.930166,
            "velocity": 0.3937007874015748
          },
          {
            "duration": 0.5232555000000048,
            "durationTicks": 576,
            "midi": 67,
            "name": "G4",
            "ticks": 122688,
            "time": 111.4534215,
            "velocity": 0.3937007874015748
          },
          {
            "duration": 0.17441849999998738,
            "durationTicks": 192,
            "midi": 69,
            "name": "A4",
            "ticks": 123264,
            "time": 111.97667700000001,
            "velocity": 0.3937007874015748
          },
          {
            "duration": 0.1744185000000016,
            "durationTicks": 192,
            "midi": 71,
            "name": "B4",
            "ticks": 123456,
            "time": 112.1510955,
            "velocity": 0.3937007874015748
          },
          {
            "duration": 1.3953479999999985,
            "durationTicks": 1536,
            "midi": 71,
            "name": "B4",
            "ticks": 123648,
            "time": 112.325514,
            "velocity": 0.3937007874015748
          },
          {
            "duration": 0.3488370000000032,
            "durationTicks": 384,
            "midi": 72,
            "name": "C5",
            "ticks": 125184,
            "time": 113.720862,
            "velocity": 0.3937007874015748
          },
          {
            "duration": 0.1744185000000016,
            "durationTicks": 192,
            "midi": 69,
            "name": "A4",
            "ticks": 125568,
            "time": 114.069699,
            "velocity": 0.3937007874015748
          },
          {
            "duration": 0.1744185000000016,
            "durationTicks": 192,
            "midi": 71,
            "name": "B4",
            "ticks": 125760,
            "time": 114.2441175,
            "velocity": 0.3937007874015748
          },
          {
            "duration": 1.3953479999999985,
            "durationTicks": 1536,
            "midi": 71,
            "name": "B4",
            "ticks": 125952,
            "time": 114.418536,
            "velocity": 0.3937007874015748
          },
          {
            "duration": 0.1744185000000016,
            "durationTicks": 192,
            "midi": 67,
            "name": "G4",
            "ticks": 127488,
            "time": 115.813884,
            "velocity": 0.3937007874015748
          },
          {
            "duration": 0.1744185000000016,
            "durationTicks": 192,
            "midi": 66,
            "name": "F#4",
            "ticks": 127680,
            "time": 115.9883025,
            "velocity": 0.3937007874015748
          }
        ],
        "endOfTrackTicks": 127872
      },
      {
        "channel": 1,
        "controlChanges": {},
        "pitchBends": [],
        "instrument": {
          "family": "strings",
          "number": 40,
          "name": "violin"
        },
        "name": "Violin",
        "notes": [
          {
            "duration": 0.5232555000000048,
            "durationTicks": 576,
            "midi": 76,
            "name": "E5",
            "ticks": 47232,
            "time": 42.906951,
            "velocity": 0.48031496062992124
          },
          {
            "duration": 0.34883699999999607,
            "durationTicks": 384,
            "midi": 78,
            "name": "F#5",
            "ticks": 47808,
            "time": 43.430206500000004,
            "velocity": 0.48031496062992124
          },
          {
            "duration": 0.1744185000000016,
            "durationTicks": 192,
            "midi": 76,
            "name": "E5",
            "ticks": 48192,
            "time": 43.7790435,
            "velocity": 0.48031496062992124
          },
          {
            "duration": 1.0465110000000024,
            "durationTicks": 1152,
            "midi": 79,
            "name": "G5",
            "ticks": 48384,
            "time": 43.953462,
            "velocity": 0.48031496062992124
          },
          {
            "duration": 1.0465109999999953,
            "durationTicks": 1152,
            "midi": 78,
            "name": "F#5",
            "ticks": 49536,
            "time": 44.999973000000004,
            "velocity": 0.48031496062992124
          },
          {
            "duration": 1.0465110000000024,
            "durationTicks": 1152,
            "midi": 76,
            "name": "E5",
            "ticks": 50688,
            "time": 46.046484,
            "velocity": 0.48031496062992124
          },
          {
            "duration": 0.43604624999999686,
            "durationTicks": 480,
            "midi": 76,
            "name": "E5",
            "ticks": 51840,
            "time": 47.092995,
            "velocity": 0.48031496062992124
          },
          {
            "duration": 0.2616277500000024,
            "durationTicks": 288,
            "midi": 78,
            "name": "F#5",
            "ticks": 52416,
            "time": 47.6162505,
            "velocity": 0.48031496062992124
          },
          {
            "duration": 0.0872092500000008,
            "durationTicks": 96,
            "midi": 76,
            "name": "E5",
            "ticks": 52800,
            "time": 47.9650875,
            "velocity": 0.48031496062992124
          },
          {
            "duration": 0.43604624999999686,
            "durationTicks": 480,
            "midi": 79,
            "name": "G5",
            "ticks": 52992,
            "time": 48.139506000000004,
            "velocity": 0.48031496062992124
          },
          {
            "duration": 0.43604624999999686,
            "durationTicks": 480,
            "midi": 81,
            "name": "A5",
            "ticks": 53568,
            "time": 48.6627615,
            "velocity": 0.48031496062992124
          },
          {
            "duration": 0.9593017500000016,
            "durationTicks": 1056,
            "midi": 79,
            "name": "G5",
            "ticks": 54144,
            "time": 49.186017,
            "velocity": 0.48031496062992124
          },
          {
            "duration": 0.9593017500000016,
            "durationTicks": 1056,
            "midi": 78,
            "name": "F#5",
            "ticks": 55296,
            "time": 50.232528,
            "velocity": 0.48031496062992124
          },
          {
            "duration": 0.43604624999999686,
            "durationTicks": 480,
            "midi": 76,
            "name": "E5",
            "ticks": 56448,
            "time": 51.279039000000004,
            "velocity": 0.48031496062992124
          },
          {
            "duration": 0.2616277500000024,
            "durationTicks": 288,
            "midi": 78,
            "name": "F#5",
            "ticks": 57024,
            "time": 51.8022945,
            "velocity": 0.48031496062992124
          },
          {
            "duration": 0.0872092500000008,
            "durationTicks": 96,
            "midi": 76,
            "name": "E5",
            "ticks": 57408,
            "time": 52.1511315,
            "velocity": 0.48031496062992124
          },
          {
            "duration": 0.43604625000000397,
            "durationTicks": 480,
            "midi": 79,
            "name": "G5",
            "ticks": 57600,
            "time": 52.32555,
            "velocity": 0.48031496062992124
          },
          {
            "duration": 0.43604624999999686,
            "durationTicks": 480,
            "midi": 81,
            "name": "A5",
            "ticks": 58176,
            "time": 52.848805500000005,
            "velocity": 0.48031496062992124
          },
          {
            "duration": 0.6104647499999984,
            "durationTicks": 672,
            "midi": 83,
            "name": "B5",
            "ticks": 58752,
            "time": 53.372061,
            "velocity": 0.48031496062992124
          },
          {
            "duration": 0.2616277500000024,
            "durationTicks": 288,
            "midi": 84,
            "name": "C6",
            "ticks": 59520,
            "time": 54.069735,
            "velocity": 0.48031496062992124
          },
          {
            "duration": 0.43604624999999686,
            "durationTicks": 480,
            "midi": 81,
            "name": "A5",
            "ticks": 59904,
            "time": 54.418572000000005,
            "velocity": 0.48031496062992124
          },
          {
            "duration": 0.43604624999999686,
            "durationTicks": 480,
            "midi": 79,
            "name": "G5",
            "ticks": 60480,
            "time": 54.9418275,
            "velocity": 0.48031496062992124
          },
          {
            "duration": 0.0872092500000008,
            "durationTicks": 96,
            "midi": 81,
            "name": "A5",
            "ticks": 61056,
            "time": 55.465083,
            "velocity": 0.48031496062992124
          },
          {
            "duration": 0.0872092500000008,
            "durationTicks": 96,
            "midi": 83,
            "name": "B5",
            "ticks": 61248,
            "time": 55.6395015,
            "velocity": 0.48031496062992124
          },
          {
            "duration": 1.3081387499999977,
            "durationTicks": 1440,
            "midi": 83,
            "name": "B5",
            "ticks": 61440,
            "time": 55.81392,
            "velocity": 0.48031496062992124
          },
          {
            "duration": 0.2616277500000024,
            "durationTicks": 288,
            "midi": 84,
            "name": "C6",
            "ticks": 62976,
            "time": 57.209268,
            "velocity": 0.48031496062992124
          },
          {
            "duration": 0.08720924999999369,
            "durationTicks": 96,
            "midi": 81,
            "name": "A5",
            "ticks": 63360,
            "time": 57.558105000000005,
            "velocity": 0.48031496062992124
          },
          {
            "duration": 0.0872092500000008,
            "durationTicks": 96,
            "midi": 83,
            "name": "B5",
            "ticks": 63552,
            "time": 57.7325235,
            "velocity": 0.48031496062992124
          },
          {
            "duration": 1.3081387499999977,
            "durationTicks": 1440,
            "midi": 83,
            "name": "B5",
            "ticks": 63744,
            "time": 57.906942,
            "velocity": 0.48031496062992124
          },
          {
            "duration": 0.0872092500000008,
            "durationTicks": 96,
            "midi": 79,
            "name": "G5",
            "ticks": 65280,
            "time": 59.30229,
            "velocity": 0.48031496062992124
          },
          {
            "duration": 0.0872092500000008,
            "durationTicks": 96,
            "midi": 78,
            "name": "F#5",
            "ticks": 65472,
            "time": 59.4767085,
            "velocity": 0.48031496062992124
          },
          {
            "duration": 0.5232554999999905,
            "durationTicks": 576,
            "midi": 76,
            "name": "E5",
            "ticks": 109440,
            "time": 99.41854500000001,
            "velocity": 0.48031496062992124
          },
          {
            "duration": 0.3488370000000032,
            "durationTicks": 384,
            "midi": 78,
            "name": "F#5",
            "ticks": 110016,
            "time": 99.9418005,
            "velocity": 0.48031496062992124
          },
          {
            "duration": 0.1744185000000016,
            "durationTicks": 192,
            "midi": 76,
            "name": "E5",
            "ticks": 110400,
            "time": 100.2906375,
            "velocity": 0.48031496062992124
          },
          {
            "duration": 1.0465109999999953,
            "durationTicks": 1152,
            "midi": 79,
            "name": "G5",
            "ticks": 110592,
            "time": 100.465056,
            "velocity": 0.48031496062992124
          },
          {
            "duration": 1.0465110000000095,
            "durationTicks": 1152,
            "midi": 78,
            "name": "F#5",
            "ticks": 111744,
            "time": 101.511567,
            "velocity": 0.48031496062992124
          },
          {
            "duration": 1.0465109999999953,
            "durationTicks": 1152,
            "midi": 76,
            "name": "E5",
            "ticks": 112896,
            "time": 102.55807800000001,
            "velocity": 0.48031496062992124
          },
          {
            "duration": 0.43604625000000397,
            "durationTicks": 480,
            "midi": 76,
            "name": "E5",
            "ticks": 114048,
            "time": 103.604589,
            "velocity": 0.48031496062992124
          },
          {
            "duration": 0.26162774999998817,
            "durationTicks": 288,
            "midi": 78,
            "name": "F#5",
            "ticks": 114624,
            "time": 104.12784450000001,
            "velocity": 0.48031496062992124
          },
          {
            "duration": 0.0872092500000008,
            "durationTicks": 96,
            "midi": 76,
            "name": "E5",
            "ticks": 115008,
            "time": 104.4766815,
            "velocity": 0.48031496062992124
          },
          {
            "duration": 0.43604625000000397,
            "durationTicks": 480,
            "midi": 79,
            "name": "G5",
            "ticks": 115200,
            "time": 104.6511,
            "velocity": 0.48031496062992124
          },
          {
            "duration": 0.43604625000000397,
            "durationTicks": 480,
            "midi": 81,
            "name": "A5",
            "ticks": 115776,
            "time": 105.1743555,
            "velocity": 0.48031496062992124
          },
          {
            "duration": 0.9593017499999945,
            "durationTicks": 1056,
            "midi": 79,
            "name": "G5",
            "ticks": 116352,
            "time": 105.69761100000001,
            "velocity": 0.48031496062992124
          },
          {
            "duration": 0.9593017499999945,
            "durationTicks": 1056,
            "midi": 78,
            "name": "F#5",
            "ticks": 117504,
            "time": 106.744122,
            "velocity": 0.48031496062992124
          },
          {
            "duration": 0.43604625000000397,
            "durationTicks": 480,
            "midi": 76,
            "name": "E5",
            "ticks": 118656,
            "time": 107.790633,
            "velocity": 0.48031496062992124
          },
          {
            "duration": 0.2616277500000024,
            "durationTicks": 288,
            "midi": 78,
            "name": "F#5",
            "ticks": 119232,
            "time": 108.3138885,
            "velocity": 0.48031496062992124
          },
          {
            "duration": 0.0872092500000008,
            "durationTicks": 96,
            "midi": 76,
            "name": "E5",
            "ticks": 119616,
            "time": 108.66272550000001,
            "velocity": 0.48031496062992124
          },
          {
            "duration": 0.43604624999998975,
            "durationTicks": 480,
            "midi": 79,
            "name": "G5",
            "ticks": 119808,
            "time": 108.83714400000001,
            "velocity": 0.48031496062992124
          },
          {
            "duration": 0.43604625000000397,
            "durationTicks": 480,
            "midi": 81,
            "name": "A5",
            "ticks": 120384,
            "time": 109.3603995,
            "velocity": 0.48031496062992124
          },
          {
            "duration": 0.6104647499999913,
            "durationTicks": 672,
            "midi": 83,
            "name": "B5",
            "ticks": 120960,
            "time": 109.883655,
            "velocity": 0.48031496062992124
          },
          {
            "duration": 0.2616277500000024,
            "durationTicks": 288,
            "midi": 84,
            "name": "C6",
            "ticks": 121728,
            "time": 110.581329,
            "velocity": 0.48031496062992124
          },
          {
            "duration": 0.43604625000000397,
            "durationTicks": 480,
            "midi": 81,
            "name": "A5",
            "ticks": 122112,
            "time": 110.930166,
            "velocity": 0.48031496062992124
          },
          {
            "duration": 0.43604625000000397,
            "durationTicks": 480,
            "midi": 79,
            "name": "G5",
            "ticks": 122688,
            "time": 111.4534215,
            "velocity": 0.48031496062992124
          },
          {
            "duration": 0.08720924999998658,
            "durationTicks": 96,
            "midi": 81,
            "name": "A5",
            "ticks": 123264,
            "time": 111.97667700000001,
            "velocity": 0.48031496062992124
          },
          {
            "duration": 0.0872092500000008,
            "durationTicks": 96,
            "midi": 83,
            "name": "B5",
            "ticks": 123456,
            "time": 112.1510955,
            "velocity": 0.48031496062992124
          },
          {
            "duration": 1.3081387499999977,
            "durationTicks": 1440,
            "midi": 83,
            "name": "B5",
            "ticks": 123648,
            "time": 112.325514,
            "velocity": 0.48031496062992124
          },
          {
            "duration": 0.2616277500000024,
            "durationTicks": 288,
            "midi": 84,
            "name": "C6",
            "ticks": 125184,
            "time": 113.720862,
            "velocity": 0.48031496062992124
          },
          {
            "duration": 0.0872092500000008,
            "durationTicks": 96,
            "midi": 81,
            "name": "A5",
            "ticks": 125568,
            "time": 114.069699,
            "velocity": 0.48031496062992124
          },
          {
            "duration": 0.0872092500000008,
            "durationTicks": 96,
            "midi": 83,
            "name": "B5",
            "ticks": 125760,
            "time": 114.2441175,
            "velocity": 0.48031496062992124
          },
          {
            "duration": 1.3081387499999977,
            "durationTicks": 1440,
            "midi": 83,
            "name": "B5",
            "ticks": 125952,
            "time": 114.418536,
            "velocity": 0.48031496062992124
          },
          {
            "duration": 0.0872092500000008,
            "durationTicks": 96,
            "midi": 79,
            "name": "G5",
            "ticks": 127488,
            "time": 115.813884,
            "velocity": 0.48031496062992124
          },
          {
            "duration": 0.0872092500000008,
            "durationTicks": 96,
            "midi": 78,
            "name": "F#5",
            "ticks": 127680,
            "time": 115.9883025,
            "velocity": 0.48031496062992124
          }
        ],
        "endOfTrackTicks": 127776
      },
      {
        "channel": 2,
        "controlChanges": {},
        "pitchBends": [],
        "instrument": {
          "family": "strings",
          "number": 42,
          "name": "cello"
        },
        "name": "Cello",
        "notes": [
          {
            "duration": 0.1744185,
            "durationTicks": 192,
            "midi": 36,
            "name": "C2",
            "ticks": 0,
            "time": 0,
            "velocity": 0.16535433070866143
          },
          {
            "duration": 0.1744185,
            "durationTicks": 192,
            "midi": 41,
            "name": "F2",
            "ticks": 192,
            "time": 0.1744185,
            "velocity": 0.16535433070866143
          },
          {
            "duration": 0.17441849999999998,
            "durationTicks": 192,
            "midi": 46,
            "name": "A#2",
            "ticks": 384,
            "time": 0.348837,
            "velocity": 0.16535433070866143
          },
          {
            "duration": 0.17441850000000003,
            "durationTicks": 192,
            "midi": 55,
            "name": "G3",
            "ticks": 576,
            "time": 0.5232555,
            "velocity": 0.16535433070866143
          },
          {
            "duration": 0.17441850000000003,
            "durationTicks": 192,
            "midi": 46,
            "name": "A#2",
            "ticks": 768,
            "time": 0.697674,
            "velocity": 0.16535433070866143
          },
          {
            "duration": 0.17441849999999992,
            "durationTicks": 192,
            "midi": 41,
            "name": "F2",
            "ticks": 960,
            "time": 0.8720925,
            "velocity": 0.16535433070866143
          },
          {
            "duration": 0.17441850000000003,
            "durationTicks": 192,
            "midi": 36,
            "name": "C2",
            "ticks": 1152,
            "time": 1.046511,
            "velocity": 0.16535433070866143
          },
          {
            "duration": 0.17441850000000003,
            "durationTicks": 192,
            "midi": 41,
            "name": "F2",
            "ticks": 1344,
            "time": 1.2209295,
            "velocity": 0.16535433070866143
          },
          {
            "duration": 0.17441850000000003,
            "durationTicks": 192,
            "midi": 46,
            "name": "A#2",
            "ticks": 1536,
            "time": 1.395348,
            "velocity": 0.16535433070866143
          },
          {
            "duration": 0.17441850000000003,
            "durationTicks": 192,
            "midi": 55,
            "name": "G3",
            "ticks": 1728,
            "time": 1.5697665,
            "velocity": 0.16535433070866143
          },
          {
            "duration": 0.17441850000000003,
            "durationTicks": 192,
            "midi": 46,
            "name": "A#2",
            "ticks": 1920,
            "time": 1.744185,
            "velocity": 0.16535433070866143
          },
          {
            "duration": 0.1744184999999998,
            "durationTicks": 192,
            "midi": 41,
            "name": "F2",
            "ticks": 2112,
            "time": 1.9186035000000001,
            "velocity": 0.16535433070866143
          },
          {
            "duration": 0.17441850000000025,
            "durationTicks": 192,
            "midi": 36,
            "name": "C2",
            "ticks": 2304,
            "time": 2.093022,
            "velocity": 0.16535433070866143
          },
          {
            "duration": 0.1744184999999998,
            "durationTicks": 192,
            "midi": 44,
            "name": "G#2",
            "ticks": 2496,
            "time": 2.2674405,
            "velocity": 0.16535433070866143
          },
          {
            "duration": 0.17441850000000025,
            "durationTicks": 192,
            "midi": 48,
            "name": "C3",
            "ticks": 2688,
            "time": 2.441859,
            "velocity": 0.16535433070866143
          },
          {
            "duration": 0.1744184999999998,
            "durationTicks": 192,
            "midi": 56,
            "name": "G#3",
            "ticks": 2880,
            "time": 2.6162775000000003,
            "velocity": 0.16535433070866143
          },
          {
            "duration": 0.1744184999999998,
            "durationTicks": 192,
            "midi": 48,
            "name": "C3",
            "ticks": 3072,
            "time": 2.790696,
            "velocity": 0.16535433070866143
          },
          {
            "duration": 0.17441850000000025,
            "durationTicks": 192,
            "midi": 44,
            "name": "G#2",
            "ticks": 3264,
            "time": 2.9651145,
            "velocity": 0.16535433070866143
          },
          {
            "duration": 0.1744184999999998,
            "durationTicks": 192,
            "midi": 36,
            "name": "C2",
            "ticks": 3456,
            "time": 3.139533,
            "velocity": 0.16535433070866143
          },
          {
            "duration": 0.17441850000000025,
            "durationTicks": 192,
            "midi": 43,
            "name": "G2",
            "ticks": 3648,
            "time": 3.3139515,
            "velocity": 0.16535433070866143
          },
          {
            "duration": 0.1744184999999998,
            "durationTicks": 192,
            "midi": 48,
            "name": "C3",
            "ticks": 3840,
            "time": 3.48837,
            "velocity": 0.16535433070866143
          },
          {
            "duration": 0.17441850000000025,
            "durationTicks": 192,
            "midi": 56,
            "name": "G#3",
            "ticks": 4032,
            "time": 3.6627885,
            "velocity": 0.16535433070866143
          },
          {
            "duration": 0.1744184999999998,
            "durationTicks": 192,
            "midi": 48,
            "name": "C3",
            "ticks": 4224,
            "time": 3.8372070000000003,
            "velocity": 0.16535433070866143
          },
          {
            "duration": 0.1744184999999998,
            "durationTicks": 192,
            "midi": 44,
            "name": "G#2",
            "ticks": 4416,
            "time": 4.0116255,
            "velocity": 0.16535433070866143
          },
          {
            "duration": 0.1744184999999998,
            "durationTicks": 192,
            "midi": 36,
            "name": "C2",
            "ticks": 4608,
            "time": 4.186044,
            "velocity": 0.16535433070866143
          },
          {
            "duration": 0.1744185000000007,
            "durationTicks": 192,
            "midi": 41,
            "name": "F2",
            "ticks": 4800,
            "time": 4.3604625,
            "velocity": 0.16535433070866143
          },
          {
            "duration": 0.1744184999999998,
            "durationTicks": 192,
            "midi": 48,
            "name": "C3",
            "ticks": 4992,
            "time": 4.534881,
            "velocity": 0.16535433070866143
          },
          {
            "duration": 0.1744184999999998,
            "durationTicks": 192,
            "midi": 55,
            "name": "G3",
            "ticks": 5184,
            "time": 4.7092995,
            "velocity": 0.16535433070866143
          },
          {
            "duration": 0.1744184999999998,
            "durationTicks": 192,
            "midi": 48,
            "name": "C3",
            "ticks": 5376,
            "time": 4.883718,
            "velocity": 0.16535433070866143
          },
          {
            "duration": 0.1744185000000007,
            "durationTicks": 192,
            "midi": 41,
            "name": "F2",
            "ticks": 5568,
            "time": 5.0581365,
            "velocity": 0.16535433070866143
          },
          {
            "duration": 0.1744184999999998,
            "durationTicks": 192,
            "midi": 36,
            "name": "C2",
            "ticks": 5760,
            "time": 5.2325550000000005,
            "velocity": 0.16535433070866143
          },
          {
            "duration": 0.1744184999999998,
            "durationTicks": 192,
            "midi": 41,
            "name": "F2",
            "ticks": 5952,
            "time": 5.4069735,
            "velocity": 0.16535433070866143
          },
          {
            "duration": 0.1744184999999998,
            "durationTicks": 192,
            "midi": 48,
            "name": "C3",
            "ticks": 6144,
            "time": 5.581392,
            "velocity": 0.16535433070866143
          },
          {
            "duration": 0.1744184999999998,
            "durationTicks": 192,
            "midi": 55,
            "name": "G3",
            "ticks": 6336,
            "time": 5.7558105,
            "velocity": 0.16535433070866143
          },
          {
            "duration": 0.1744185000000007,
            "durationTicks": 192,
            "midi": 48,
            "name": "C3",
            "ticks": 6528,
            "time": 5.930229,
            "velocity": 0.16535433070866143
          },
          {
            "duration": 0.1744184999999998,
            "durationTicks": 192,
            "midi": 41,
            "name": "F2",
            "ticks": 6720,
            "time": 6.1046475000000004,
            "velocity": 0.16535433070866143
          },
          {
            "duration": 0.1744184999999998,
            "durationTicks": 192,
            "midi": 36,
            "name": "C2",
            "ticks": 6912,
            "time": 6.279066,
            "velocity": 0.16535433070866143
          },
          {
            "duration": 0.1744184999999998,
            "durationTicks": 192,
            "midi": 44,
            "name": "G#2",
            "ticks": 7104,
            "time": 6.4534845,
            "velocity": 0.16535433070866143
          },
          {
            "duration": 0.1744185000000007,
            "durationTicks": 192,
            "midi": 48,
            "name": "C3",
            "ticks": 7296,
            "time": 6.627903,
            "velocity": 0.16535433070866143
          },
          {
            "duration": 0.1744184999999998,
            "durationTicks": 192,
            "midi": 56,
            "name": "G#3",
            "ticks": 7488,
            "time": 6.802321500000001,
            "velocity": 0.16535433070866143
          },
          {
            "duration": 0.1744184999999998,
            "durationTicks": 192,
            "midi": 48,
            "name": "C3",
            "ticks": 7680,
            "time": 6.97674,
            "velocity": 0.16535433070866143
          },
          {
            "duration": 0.1744184999999998,
            "durationTicks": 192,
            "midi": 44,
            "name": "G#2",
            "ticks": 7872,
            "time": 7.1511585,
            "velocity": 0.16535433070866143
          },
          {
            "duration": 0.1744184999999998,
            "durationTicks": 192,
            "midi": 36,
            "name": "C2",
            "ticks": 8064,
            "time": 7.325577,
            "velocity": 0.16535433070866143
          },
          {
            "duration": 0.1744185000000007,
            "durationTicks": 192,
            "midi": 44,
            "name": "G#2",
            "ticks": 8256,
            "time": 7.4999955,
            "velocity": 0.16535433070866143
          },
          {
            "duration": 0.1744184999999998,
            "durationTicks": 192,
            "midi": 48,
            "name": "C3",
            "ticks": 8448,
            "time": 7.6744140000000005,
            "velocity": 0.16535433070866143
          },
          {
            "duration": 0.1744184999999998,
            "durationTicks": 192,
            "midi": 56,
            "name": "G#3",
            "ticks": 8640,
            "time": 7.8488325,
            "velocity": 0.16535433070866143
          },
          {
            "duration": 0.1744184999999998,
            "durationTicks": 192,
            "midi": 48,
            "name": "C3",
            "ticks": 8832,
            "time": 8.023251,
            "velocity": 0.16535433070866143
          },
          {
            "duration": 0.1744184999999998,
            "durationTicks": 192,
            "midi": 44,
            "name": "G#2",
            "ticks": 9024,
            "time": 8.1976695,
            "velocity": 0.16535433070866143
          },
          {
            "duration": 0.1744184999999998,
            "durationTicks": 192,
            "midi": 36,
            "name": "C2",
            "ticks": 9216,
            "time": 8.372088,
            "velocity": 0.16535433070866143
          },
          {
            "duration": 0.1744184999999998,
            "durationTicks": 192,
            "midi": 41,
            "name": "F2",
            "ticks": 9408,
            "time": 8.5465065,
            "velocity": 0.16535433070866143
          },
          {
            "duration": 0.1744185000000016,
            "durationTicks": 192,
            "midi": 48,
            "name": "C3",
            "ticks": 9600,
            "time": 8.720925,
            "velocity": 0.16535433070866143
          },
          {
            "duration": 0.1744184999999998,
            "durationTicks": 192,
            "midi": 53,
            "name": "F3",
            "ticks": 9792,
            "time": 8.895343500000001,
            "velocity": 0.16535433070866143
          },
          {
            "duration": 0.1744184999999998,
            "durationTicks": 192,
            "midi": 48,
            "name": "C3",
            "ticks": 9984,
            "time": 9.069762,
            "velocity": 0.16535433070866143
          },
          {
            "duration": 0.1744184999999998,
            "durationTicks": 192,
            "midi": 41,
            "name": "F2",
            "ticks": 10176,
            "time": 9.2441805,
            "velocity": 0.16535433070866143
          },
          {
            "duration": 0.1744184999999998,
            "durationTicks": 192,
            "midi": 36,
            "name": "C2",
            "ticks": 10368,
            "time": 9.418599,
            "velocity": 0.16535433070866143
          },
          {
            "duration": 0.1744184999999998,
            "durationTicks": 192,
            "midi": 43,
            "name": "G2",
            "ticks": 10560,
            "time": 9.5930175,
            "velocity": 0.16535433070866143
          },
          {
            "duration": 0.1744184999999998,
            "durationTicks": 192,
            "midi": 48,
            "name": "C3",
            "ticks": 10752,
            "time": 9.767436,
            "velocity": 0.16535433070866143
          },
          {
            "duration": 0.1744184999999998,
            "durationTicks": 192,
            "midi": 53,
            "name": "F3",
            "ticks": 10944,
            "time": 9.9418545,
            "velocity": 0.16535433070866143
          },
          {
            "duration": 0.1744184999999998,
            "durationTicks": 192,
            "midi": 48,
            "name": "C3",
            "ticks": 11136,
            "time": 10.116273,
            "velocity": 0.16535433070866143
          },
          {
            "duration": 0.1744185000000016,
            "durationTicks": 192,
            "midi": 43,
            "name": "G2",
            "ticks": 11328,
            "time": 10.2906915,
            "velocity": 0.16535433070866143
          },
          {
            "duration": 0.1744184999999998,
            "durationTicks": 192,
            "midi": 36,
            "name": "C2",
            "ticks": 11520,
            "time": 10.465110000000001,
            "velocity": 0.16535433070866143
          },
          {
            "duration": 0.1744184999999998,
            "durationTicks": 192,
            "midi": 41,
            "name": "F2",
            "ticks": 11712,
            "time": 10.6395285,
            "velocity": 0.16535433070866143
          },
          {
            "duration": 0.1744184999999998,
            "durationTicks": 192,
            "midi": 47,
            "name": "B2",
            "ticks": 11904,
            "time": 10.813947,
            "velocity": 0.16535433070866143
          },
          {
            "duration": 0.1744184999999998,
            "durationTicks": 192,
            "midi": 55,
            "name": "G3",
            "ticks": 12096,
            "time": 10.9883655,
            "velocity": 0.16535433070866143
          },
          {
            "duration": 0.1744184999999998,
            "durationTicks": 192,
            "midi": 48,
            "name": "C3",
            "ticks": 12288,
            "time": 11.162784,
            "velocity": 0.16535433070866143
          },
          {
            "duration": 0.1744184999999998,
            "durationTicks": 192,
            "midi": 44,
            "name": "G#2",
            "ticks": 12480,
            "time": 11.3372025,
            "velocity": 0.16535433070866143
          },
          {
            "duration": 0.1744184999999998,
            "durationTicks": 192,
            "midi": 36,
            "name": "C2",
            "ticks": 12672,
            "time": 11.511621,
            "velocity": 0.16535433070866143
          },
          {
            "duration": 0.1744184999999998,
            "durationTicks": 192,
            "midi": 41,
            "name": "F2",
            "ticks": 12864,
            "time": 11.6860395,
            "velocity": 0.16535433070866143
          },
          {
            "duration": 0.1744185000000016,
            "durationTicks": 192,
            "midi": 47,
            "name": "B2",
            "ticks": 13056,
            "time": 11.860458,
            "velocity": 0.16535433070866143
          },
          {
            "duration": 0.1744184999999998,
            "durationTicks": 192,
            "midi": 55,
            "name": "G3",
            "ticks": 13248,
            "time": 12.034876500000001,
            "velocity": 0.16535433070866143
          },
          {
            "duration": 0.1744184999999998,
            "durationTicks": 192,
            "midi": 48,
            "name": "C3",
            "ticks": 13440,
            "time": 12.209295000000001,
            "velocity": 0.16535433070866143
          },
          {
            "duration": 0.1744184999999998,
            "durationTicks": 192,
            "midi": 44,
            "name": "G#2",
            "ticks": 13632,
            "time": 12.3837135,
            "velocity": 0.16535433070866143
          },
          {
            "duration": 0.1744184999999998,
            "durationTicks": 192,
            "midi": 37,
            "name": "C#2",
            "ticks": 13824,
            "time": 12.558132,
            "velocity": 0.16535433070866143
          },
          {
            "duration": 0.1744184999999998,
            "durationTicks": 192,
            "midi": 44,
            "name": "G#2",
            "ticks": 14016,
            "time": 12.7325505,
            "velocity": 0.16535433070866143
          },
          {
            "duration": 0.1744184999999998,
            "durationTicks": 192,
            "midi": 48,
            "name": "C3",
            "ticks": 14208,
            "time": 12.906969,
            "velocity": 0.16535433070866143
          },
          {
            "duration": 0.1744184999999998,
            "durationTicks": 192,
            "midi": 55,
            "name": "G3",
            "ticks": 14400,
            "time": 13.0813875,
            "velocity": 0.16535433070866143
          },
          {
            "duration": 0.1744184999999998,
            "durationTicks": 192,
            "midi": 48,
            "name": "C3",
            "ticks": 14592,
            "time": 13.255806,
            "velocity": 0.16535433070866143
          },
          {
            "duration": 0.1744185000000016,
            "durationTicks": 192,
            "midi": 43,
            "name": "G2",
            "ticks": 14784,
            "time": 13.4302245,
            "velocity": 0.16535433070866143
          },
          {
            "duration": 0.1744184999999998,
            "durationTicks": 192,
            "midi": 36,
            "name": "C2",
            "ticks": 14976,
            "time": 13.604643000000001,
            "velocity": 0.16535433070866143
          },
          {
            "duration": 0.1744184999999998,
            "durationTicks": 192,
            "midi": 43,
            "name": "G2",
            "ticks": 15168,
            "time": 13.779061500000001,
            "velocity": 0.16535433070866143
          },
          {
            "duration": 0.1744184999999998,
            "durationTicks": 192,
            "midi": 48,
            "name": "C3",
            "ticks": 15360,
            "time": 13.95348,
            "velocity": 0.16535433070866143
          },
          {
            "duration": 0.1744184999999998,
            "durationTicks": 192,
            "midi": 55,
            "name": "G3",
            "ticks": 15552,
            "time": 14.1278985,
            "velocity": 0.16535433070866143
          },
          {
            "duration": 0.1744184999999998,
            "durationTicks": 192,
            "midi": 48,
            "name": "C3",
            "ticks": 15744,
            "time": 14.302317,
            "velocity": 0.16535433070866143
          },
          {
            "duration": 0.1744184999999998,
            "durationTicks": 192,
            "midi": 43,
            "name": "G2",
            "ticks": 15936,
            "time": 14.4767355,
            "velocity": 0.16535433070866143
          },
          {
            "duration": 0.1744184999999998,
            "durationTicks": 192,
            "midi": 37,
            "name": "C#2",
            "ticks": 16128,
            "time": 14.651154,
            "velocity": 0.16535433070866143
          },
          {
            "duration": 0.1744184999999998,
            "durationTicks": 192,
            "midi": 44,
            "name": "G#2",
            "ticks": 16320,
            "time": 14.8255725,
            "velocity": 0.16535433070866143
          },
          {
            "duration": 0.1744185000000016,
            "durationTicks": 192,
            "midi": 49,
            "name": "C#3",
            "ticks": 16512,
            "time": 14.999991,
            "velocity": 0.16535433070866143
          },
          {
            "duration": 0.1744184999999998,
            "durationTicks": 192,
            "midi": 56,
            "name": "G#3",
            "ticks": 16704,
            "time": 15.174409500000001,
            "velocity": 0.16535433070866143
          },
          {
            "duration": 0.1744184999999998,
            "durationTicks": 192,
            "midi": 49,
            "name": "C#3",
            "ticks": 16896,
            "time": 15.348828000000001,
            "velocity": 0.16535433070866143
          },
          {
            "duration": 0.1744184999999998,
            "durationTicks": 192,
            "midi": 44,
            "name": "G#2",
            "ticks": 17088,
            "time": 15.5232465,
            "velocity": 0.16535433070866143
          },
          {
            "duration": 0.1744184999999998,
            "durationTicks": 192,
            "midi": 37,
            "name": "C#2",
            "ticks": 17280,
            "time": 15.697665,
            "velocity": 0.16535433070866143
          },
          {
            "duration": 0.1744184999999998,
            "durationTicks": 192,
            "midi": 44,
            "name": "G#2",
            "ticks": 17472,
            "time": 15.8720835,
            "velocity": 0.16535433070866143
          },
          {
            "duration": 0.1744185000000016,
            "durationTicks": 192,
            "midi": 49,
            "name": "C#3",
            "ticks": 17664,
            "time": 16.046502,
            "velocity": 0.16535433070866143
          },
          {
            "duration": 0.17441849999999803,
            "durationTicks": 192,
            "midi": 56,
            "name": "G#3",
            "ticks": 17856,
            "time": 16.220920500000002,
            "velocity": 0.16535433070866143
          },
          {
            "duration": 0.1744185000000016,
            "durationTicks": 192,
            "midi": 49,
            "name": "C#3",
            "ticks": 18048,
            "time": 16.395339,
            "velocity": 0.16535433070866143
          },
          {
            "duration": 0.17441849999999803,
            "durationTicks": 192,
            "midi": 44,
            "name": "G#2",
            "ticks": 18240,
            "time": 16.5697575,
            "velocity": 0.16535433070866143
          },
          {
            "duration": 0.1744185000000016,
            "durationTicks": 192,
            "midi": 36,
            "name": "C2",
            "ticks": 18432,
            "time": 16.744176,
            "velocity": 0.16535433070866143
          },
          {
            "duration": 0.17441849999999803,
            "durationTicks": 192,
            "midi": 43,
            "name": "G2",
            "ticks": 18624,
            "time": 16.9185945,
            "velocity": 0.16535433070866143
          },
          {
            "duration": 0.1744185000000016,
            "durationTicks": 192,
            "midi": 48,
            "name": "C3",
            "ticks": 18816,
            "time": 17.093013,
            "velocity": 0.16535433070866143
          },
          {
            "duration": 0.17441849999999803,
            "durationTicks": 192,
            "midi": 55,
            "name": "G3",
            "ticks": 19008,
            "time": 17.2674315,
            "velocity": 0.16535433070866143
          },
          {
            "duration": 0.1744185000000016,
            "durationTicks": 192,
            "midi": 48,
            "name": "C3",
            "ticks": 19200,
            "time": 17.44185,
            "velocity": 0.16535433070866143
          },
          {
            "duration": 0.1744185000000016,
            "durationTicks": 192,
            "midi": 43,
            "name": "G2",
            "ticks": 19392,
            "time": 17.6162685,
            "velocity": 0.16535433070866143
          },
          {
            "duration": 0.17441849999999803,
            "durationTicks": 192,
            "midi": 36,
            "name": "C2",
            "ticks": 19584,
            "time": 17.790687000000002,
            "velocity": 0.16535433070866143
          },
          {
            "duration": 0.1744185000000016,
            "durationTicks": 192,
            "midi": 43,
            "name": "G2",
            "ticks": 19776,
            "time": 17.9651055,
            "velocity": 0.16535433070866143
          },
          {
            "duration": 0.17441849999999803,
            "durationTicks": 192,
            "midi": 48,
            "name": "C3",
            "ticks": 19968,
            "time": 18.139524,
            "velocity": 0.16535433070866143
          },
          {
            "duration": 0.1744185000000016,
            "durationTicks": 192,
            "midi": 55,
            "name": "G3",
            "ticks": 20160,
            "time": 18.3139425,
            "velocity": 0.16535433070866143
          },
          {
            "duration": 0.17441849999999803,
            "durationTicks": 192,
            "midi": 48,
            "name": "C3",
            "ticks": 20352,
            "time": 18.488361,
            "velocity": 0.16535433070866143
          },
          {
            "duration": 0.1744185000000016,
            "durationTicks": 192,
            "midi": 43,
            "name": "G2",
            "ticks": 20544,
            "time": 18.6627795,
            "velocity": 0.16535433070866143
          },
          {
            "duration": 0.17441849999999803,
            "durationTicks": 192,
            "midi": 36,
            "name": "C2",
            "ticks": 20736,
            "time": 18.837198,
            "velocity": 0.16535433070866143
          },
          {
            "duration": 0.1744185000000016,
            "durationTicks": 192,
            "midi": 46,
            "name": "A#2",
            "ticks": 20928,
            "time": 19.0116165,
            "velocity": 0.16535433070866143
          },
          {
            "duration": 0.1744185000000016,
            "durationTicks": 192,
            "midi": 52,
            "name": "E3",
            "ticks": 21120,
            "time": 19.186035,
            "velocity": 0.16535433070866143
          },
          {
            "duration": 0.17441849999999803,
            "durationTicks": 192,
            "midi": 56,
            "name": "G#3",
            "ticks": 21312,
            "time": 19.360453500000002,
            "velocity": 0.16535433070866143
          },
          {
            "duration": 0.1744185000000016,
            "durationTicks": 192,
            "midi": 52,
            "name": "E3",
            "ticks": 21504,
            "time": 19.534872,
            "velocity": 0.16535433070866143
          },
          {
            "duration": 0.17441849999999803,
            "durationTicks": 192,
            "midi": 46,
            "name": "A#2",
            "ticks": 21696,
            "time": 19.7092905,
            "velocity": 0.16535433070866143
          },
          {
            "duration": 0.1744185000000016,
            "durationTicks": 192,
            "midi": 36,
            "name": "C2",
            "ticks": 21888,
            "time": 19.883709,
            "velocity": 0.16535433070866143
          },
          {
            "duration": 0.17441849999999803,
            "durationTicks": 192,
            "midi": 46,
            "name": "A#2",
            "ticks": 22080,
            "time": 20.0581275,
            "velocity": 0.16535433070866143
          },
          {
            "duration": 0.1744185000000016,
            "durationTicks": 192,
            "midi": 52,
            "name": "E3",
            "ticks": 22272,
            "time": 20.232546,
            "velocity": 0.16535433070866143
          },
          {
            "duration": 0.17441849999999803,
            "durationTicks": 192,
            "midi": 56,
            "name": "G#3",
            "ticks": 22464,
            "time": 20.4069645,
            "velocity": 0.16535433070866143
          },
          {
            "duration": 0.1744185000000016,
            "durationTicks": 192,
            "midi": 52,
            "name": "E3",
            "ticks": 22656,
            "time": 20.581383,
            "velocity": 0.16535433070866143
          },
          {
            "duration": 0.1744185000000016,
            "durationTicks": 192,
            "midi": 46,
            "name": "A#2",
            "ticks": 22848,
            "time": 20.7558015,
            "velocity": 0.16535433070866143
          },
          {
            "duration": 0.17441849999999803,
            "durationTicks": 192,
            "midi": 36,
            "name": "C2",
            "ticks": 23040,
            "time": 20.930220000000002,
            "velocity": 0.16535433070866143
          },
          {
            "duration": 0.1744185000000016,
            "durationTicks": 192,
            "midi": 43,
            "name": "G2",
            "ticks": 23232,
            "time": 21.1046385,
            "velocity": 0.16535433070866143
          },
          {
            "duration": 0.17441849999999803,
            "durationTicks": 192,
            "midi": 48,
            "name": "C3",
            "ticks": 23424,
            "time": 21.279057,
            "velocity": 0.16535433070866143
          },
          {
            "duration": 0.1744185000000016,
            "durationTicks": 192,
            "midi": 55,
            "name": "G3",
            "ticks": 23616,
            "time": 21.4534755,
            "velocity": 0.16535433070866143
          },
          {
            "duration": 0.17441849999999803,
            "durationTicks": 192,
            "midi": 48,
            "name": "C3",
            "ticks": 23808,
            "time": 21.627894,
            "velocity": 0.16535433070866143
          },
          {
            "duration": 0.1744185000000016,
            "durationTicks": 192,
            "midi": 43,
            "name": "G2",
            "ticks": 24000,
            "time": 21.8023125,
            "velocity": 0.16535433070866143
          },
          {
            "duration": 0.17441849999999803,
            "durationTicks": 192,
            "midi": 36,
            "name": "C2",
            "ticks": 24192,
            "time": 21.976731,
            "velocity": 0.16535433070866143
          },
          {
            "duration": 0.1744185000000016,
            "durationTicks": 192,
            "midi": 43,
            "name": "G2",
            "ticks": 24384,
            "time": 22.1511495,
            "velocity": 0.16535433070866143
          },
          {
            "duration": 0.1744185000000016,
            "durationTicks": 192,
            "midi": 48,
            "name": "C3",
            "ticks": 24576,
            "time": 22.325568,
            "velocity": 0.16535433070866143
          },
          {
            "duration": 0.17441849999999803,
            "durationTicks": 192,
            "midi": 55,
            "name": "G3",
            "ticks": 24768,
            "time": 22.499986500000002,
            "velocity": 0.16535433070866143
          },
          {
            "duration": 0.1744185000000016,
            "durationTicks": 192,
            "midi": 48,
            "name": "C3",
            "ticks": 24960,
            "time": 22.674405,
            "velocity": 0.16535433070866143
          },
          {
            "duration": 0.17441849999999803,
            "durationTicks": 192,
            "midi": 43,
            "name": "G2",
            "ticks": 25152,
            "time": 22.8488235,
            "velocity": 0.16535433070866143
          },
          {
            "duration": 0.1744185000000016,
            "durationTicks": 192,
            "midi": 36,
            "name": "C2",
            "ticks": 25344,
            "time": 23.023242,
            "velocity": 0.16535433070866143
          },
          {
            "duration": 0.17441849999999803,
            "durationTicks": 192,
            "midi": 43,
            "name": "G2",
            "ticks": 25536,
            "time": 23.1976605,
            "velocity": 0.16535433070866143
          },
          {
            "duration": 0.1744185000000016,
            "durationTicks": 192,
            "midi": 48,
            "name": "C3",
            "ticks": 25728,
            "time": 23.372079,
            "velocity": 0.16535433070866143
          },
          {
            "duration": 0.17441849999999803,
            "durationTicks": 192,
            "midi": 56,
            "name": "G#3",
            "ticks": 25920,
            "time": 23.5464975,
            "velocity": 0.16535433070866143
          },
          {
            "duration": 0.1744185000000016,
            "durationTicks": 192,
            "midi": 48,
            "name": "C3",
            "ticks": 26112,
            "time": 23.720916,
            "velocity": 0.16535433070866143
          },
          {
            "duration": 0.1744185000000016,
            "durationTicks": 192,
            "midi": 44,
            "name": "G#2",
            "ticks": 26304,
            "time": 23.8953345,
            "velocity": 0.16535433070866143
          },
          {
            "duration": 0.17441849999999803,
            "durationTicks": 192,
            "midi": 36,
            "name": "C2",
            "ticks": 26496,
            "time": 24.069753000000002,
            "velocity": 0.16535433070866143
          },
          {
            "duration": 0.1744185000000016,
            "durationTicks": 192,
            "midi": 43,
            "name": "G2",
            "ticks": 26688,
            "time": 24.2441715,
            "velocity": 0.16535433070866143
          },
          {
            "duration": 0.17441849999999803,
            "durationTicks": 192,
            "midi": 48,
            "name": "C3",
            "ticks": 26880,
            "time": 24.418590000000002,
            "velocity": 0.16535433070866143
          },
          {
            "duration": 0.1744185000000016,
            "durationTicks": 192,
            "midi": 56,
            "name": "G#3",
            "ticks": 27072,
            "time": 24.5930085,
            "velocity": 0.16535433070866143
          },
          {
            "duration": 0.17441849999999803,
            "durationTicks": 192,
            "midi": 48,
            "name": "C3",
            "ticks": 27264,
            "time": 24.767427,
            "velocity": 0.16535433070866143
          },
          {
            "duration": 0.1744185000000016,
            "durationTicks": 192,
            "midi": 44,
            "name": "G#2",
            "ticks": 27456,
            "time": 24.9418455,
            "velocity": 0.16535433070866143
          },
          {
            "duration": 0.17441849999999803,
            "durationTicks": 192,
            "midi": 36,
            "name": "C2",
            "ticks": 27648,
            "time": 25.116264,
            "velocity": 0.16535433070866143
          },
          {
            "duration": 0.1744185000000016,
            "durationTicks": 192,
            "midi": 43,
            "name": "G2",
            "ticks": 27840,
            "time": 25.2906825,
            "velocity": 0.16535433070866143
          },
          {
            "duration": 0.1744185000000016,
            "durationTicks": 192,
            "midi": 48,
            "name": "C3",
            "ticks": 28032,
            "time": 25.465101,
            "velocity": 0.16535433070866143
          },
          {
            "duration": 0.17441849999999803,
            "durationTicks": 192,
            "midi": 55,
            "name": "G3",
            "ticks": 28224,
            "time": 25.639519500000002,
            "velocity": 0.16535433070866143
          },
          {
            "duration": 0.1744185000000016,
            "durationTicks": 192,
            "midi": 48,
            "name": "C3",
            "ticks": 28416,
            "time": 25.813938,
            "velocity": 0.16535433070866143
          },
          {
            "duration": 0.17441849999999803,
            "durationTicks": 192,
            "midi": 43,
            "name": "G2",
            "ticks": 28608,
            "time": 25.988356500000002,
            "velocity": 0.16535433070866143
          },
          {
            "duration": 0.1744185000000016,
            "durationTicks": 192,
            "midi": 36,
            "name": "C2",
            "ticks": 28800,
            "time": 26.162775,
            "velocity": 0.16535433070866143
          },
          {
            "duration": 0.17441849999999803,
            "durationTicks": 192,
            "midi": 43,
            "name": "G2",
            "ticks": 28992,
            "time": 26.3371935,
            "velocity": 0.16535433070866143
          },
          {
            "duration": 0.1744185000000016,
            "durationTicks": 192,
            "midi": 48,
            "name": "C3",
            "ticks": 29184,
            "time": 26.511612,
            "velocity": 0.16535433070866143
          },
          {
            "duration": 0.17441849999999803,
            "durationTicks": 192,
            "midi": 55,
            "name": "G3",
            "ticks": 29376,
            "time": 26.6860305,
            "velocity": 0.16535433070866143
          },
          {
            "duration": 0.1744185000000016,
            "durationTicks": 192,
            "midi": 48,
            "name": "C3",
            "ticks": 29568,
            "time": 26.860449,
            "velocity": 0.16535433070866143
          },
          {
            "duration": 0.1744185000000016,
            "durationTicks": 192,
            "midi": 43,
            "name": "G2",
            "ticks": 29760,
            "time": 27.0348675,
            "velocity": 0.16535433070866143
          },
          {
            "duration": 0.17441849999999803,
            "durationTicks": 192,
            "midi": 36,
            "name": "C2",
            "ticks": 29952,
            "time": 27.209286000000002,
            "velocity": 0.16535433070866143
          },
          {
            "duration": 0.1744185000000016,
            "durationTicks": 192,
            "midi": 43,
            "name": "G2",
            "ticks": 30144,
            "time": 27.3837045,
            "velocity": 0.16535433070866143
          },
          {
            "duration": 0.17441849999999803,
            "durationTicks": 192,
            "midi": 48,
            "name": "C3",
            "ticks": 30336,
            "time": 27.558123000000002,
            "velocity": 0.16535433070866143
          },
          {
            "duration": 0.1744185000000016,
            "durationTicks": 192,
            "midi": 56,
            "name": "G#3",
            "ticks": 30528,
            "time": 27.7325415,
            "velocity": 0.16535433070866143
          },
          {
            "duration": 0.17441849999999803,
            "durationTicks": 192,
            "midi": 48,
            "name": "C3",
            "ticks": 30720,
            "time": 27.90696,
            "velocity": 0.16535433070866143
          },
          {
            "duration": 0.1744185000000016,
            "durationTicks": 192,
            "midi": 44,
            "name": "G#2",
            "ticks": 30912,
            "time": 28.0813785,
            "velocity": 0.16535433070866143
          },
          {
            "duration": 0.17441849999999803,
            "durationTicks": 192,
            "midi": 36,
            "name": "C2",
            "ticks": 31104,
            "time": 28.255797,
            "velocity": 0.16535433070866143
          },
          {
            "duration": 0.1744185000000016,
            "durationTicks": 192,
            "midi": 43,
            "name": "G2",
            "ticks": 31296,
            "time": 28.4302155,
            "velocity": 0.16535433070866143
          },
          {
            "duration": 0.1744185000000016,
            "durationTicks": 192,
            "midi": 48,
            "name": "C3",
            "ticks": 31488,
            "time": 28.604634,
            "velocity": 0.16535433070866143
          },
          {
            "duration": 0.17441849999999803,
            "durationTicks": 192,
            "midi": 56,
            "name": "G#3",
            "ticks": 31680,
            "time": 28.779052500000002,
            "velocity": 0.16535433070866143
          },
          {
            "duration": 0.1744185000000016,
            "durationTicks": 192,
            "midi": 48,
            "name": "C3",
            "ticks": 31872,
            "time": 28.953471,
            "velocity": 0.16535433070866143
          },
          {
            "duration": 0.17441849999999803,
            "durationTicks": 192,
            "midi": 44,
            "name": "G#2",
            "ticks": 32064,
            "time": 29.127889500000002,
            "velocity": 0.16535433070866143
          },
          {
            "duration": 0.1744185000000016,
            "durationTicks": 192,
            "midi": 36,
            "name": "C2",
            "ticks": 32256,
            "time": 29.302308,
            "velocity": 0.16535433070866143
          },
          {
            "duration": 0.17441849999999803,
            "durationTicks": 192,
            "midi": 43,
            "name": "G2",
            "ticks": 32448,
            "time": 29.4767265,
            "velocity": 0.16535433070866143
          },
          {
            "duration": 0.1744185000000016,
            "durationTicks": 192,
            "midi": 48,
            "name": "C3",
            "ticks": 32640,
            "time": 29.651145,
            "velocity": 0.16535433070866143
          },
          {
            "duration": 0.17441849999999803,
            "durationTicks": 192,
            "midi": 55,
            "name": "G3",
            "ticks": 32832,
            "time": 29.8255635,
            "velocity": 0.16535433070866143
          },
          {
            "duration": 0.1744185000000016,
            "durationTicks": 192,
            "midi": 48,
            "name": "C3",
            "ticks": 33024,
            "time": 29.999982,
            "velocity": 0.16535433070866143
          },
          {
            "duration": 0.1744185000000016,
            "durationTicks": 192,
            "midi": 43,
            "name": "G2",
            "ticks": 33216,
            "time": 30.1744005,
            "velocity": 0.16535433070866143
          },
          {
            "duration": 0.17441849999999803,
            "durationTicks": 192,
            "midi": 36,
            "name": "C2",
            "ticks": 33408,
            "time": 30.348819000000002,
            "velocity": 0.16535433070866143
          },
          {
            "duration": 0.1744185000000016,
            "durationTicks": 192,
            "midi": 43,
            "name": "G2",
            "ticks": 33600,
            "time": 30.5232375,
            "velocity": 0.16535433070866143
          },
          {
            "duration": 0.17441849999999803,
            "durationTicks": 192,
            "midi": 48,
            "name": "C3",
            "ticks": 33792,
            "time": 30.697656000000002,
            "velocity": 0.16535433070866143
          },
          {
            "duration": 0.1744185000000016,
            "durationTicks": 192,
            "midi": 55,
            "name": "G3",
            "ticks": 33984,
            "time": 30.8720745,
            "velocity": 0.16535433070866143
          },
          {
            "duration": 0.17441849999999803,
            "durationTicks": 192,
            "midi": 48,
            "name": "C3",
            "ticks": 34176,
            "time": 31.046493,
            "velocity": 0.16535433070866143
          },
          {
            "duration": 0.1744185000000016,
            "durationTicks": 192,
            "midi": 43,
            "name": "G2",
            "ticks": 34368,
            "time": 31.2209115,
            "velocity": 0.16535433070866143
          },
          {
            "duration": 0.17441849999999803,
            "durationTicks": 192,
            "midi": 36,
            "name": "C2",
            "ticks": 34560,
            "time": 31.39533,
            "velocity": 0.16535433070866143
          },
          {
            "duration": 0.1744185000000016,
            "durationTicks": 192,
            "midi": 43,
            "name": "G2",
            "ticks": 34752,
            "time": 31.5697485,
            "velocity": 0.16535433070866143
          },
          {
            "duration": 0.1744185000000016,
            "durationTicks": 192,
            "midi": 48,
            "name": "C3",
            "ticks": 34944,
            "time": 31.744167,
            "velocity": 0.16535433070866143
          },
          {
            "duration": 0.17441849999999803,
            "durationTicks": 192,
            "midi": 56,
            "name": "G#3",
            "ticks": 35136,
            "time": 31.918585500000002,
            "velocity": 0.16535433070866143
          },
          {
            "duration": 0.1744185000000016,
            "durationTicks": 192,
            "midi": 48,
            "name": "C3",
            "ticks": 35328,
            "time": 32.093004,
            "velocity": 0.16535433070866143
          },
          {
            "duration": 0.1744185000000016,
            "durationTicks": 192,
            "midi": 44,
            "name": "G#2",
            "ticks": 35520,
            "time": 32.2674225,
            "velocity": 0.16535433070866143
          },
          {
            "duration": 0.17441849999999448,
            "durationTicks": 192,
            "midi": 36,
            "name": "C2",
            "ticks": 35712,
            "time": 32.441841000000004,
            "velocity": 0.16535433070866143
          },
          {
            "duration": 0.1744185000000016,
            "durationTicks": 192,
            "midi": 43,
            "name": "G2",
            "ticks": 35904,
            "time": 32.6162595,
            "velocity": 0.16535433070866143
          },
          {
            "duration": 0.1744185000000016,
            "durationTicks": 192,
            "midi": 48,
            "name": "C3",
            "ticks": 36096,
            "time": 32.790678,
            "velocity": 0.16535433070866143
          },
          {
            "duration": 0.1744185000000016,
            "durationTicks": 192,
            "midi": 56,
            "name": "G#3",
            "ticks": 36288,
            "time": 32.9650965,
            "velocity": 0.16535433070866143
          },
          {
            "duration": 0.17441849999999448,
            "durationTicks": 192,
            "midi": 48,
            "name": "C3",
            "ticks": 36480,
            "time": 33.139515,
            "velocity": 0.16535433070866143
          },
          {
            "duration": 0.1744185000000016,
            "durationTicks": 192,
            "midi": 44,
            "name": "G#2",
            "ticks": 36672,
            "time": 33.3139335,
            "velocity": 0.16535433070866143
          },
          {
            "duration": 0.1744185000000016,
            "durationTicks": 192,
            "midi": 36,
            "name": "C2",
            "ticks": 36864,
            "time": 33.488352,
            "velocity": 0.16535433070866143
          },
          {
            "duration": 0.1744185000000016,
            "durationTicks": 192,
            "midi": 43,
            "name": "G2",
            "ticks": 37056,
            "time": 33.6627705,
            "velocity": 0.16535433070866143
          },
          {
            "duration": 0.1744185000000016,
            "durationTicks": 192,
            "midi": 48,
            "name": "C3",
            "ticks": 37248,
            "time": 33.837189,
            "velocity": 0.16535433070866143
          },
          {
            "duration": 0.17441849999999448,
            "durationTicks": 192,
            "midi": 55,
            "name": "G3",
            "ticks": 37440,
            "time": 34.011607500000004,
            "velocity": 0.16535433070866143
          },
          {
            "duration": 0.1744185000000016,
            "durationTicks": 192,
            "midi": 48,
            "name": "C3",
            "ticks": 37632,
            "time": 34.186026,
            "velocity": 0.16535433070866143
          },
          {
            "duration": 0.1744185000000016,
            "durationTicks": 192,
            "midi": 43,
            "name": "G2",
            "ticks": 37824,
            "time": 34.3604445,
            "velocity": 0.16535433070866143
          },
          {
            "duration": 0.1744185000000016,
            "durationTicks": 192,
            "midi": 36,
            "name": "C2",
            "ticks": 38016,
            "time": 34.534863,
            "velocity": 0.16535433070866143
          },
          {
            "duration": 0.17441849999999448,
            "durationTicks": 192,
            "midi": 43,
            "name": "G2",
            "ticks": 38208,
            "time": 34.7092815,
            "velocity": 0.16535433070866143
          },
          {
            "duration": 0.1744185000000016,
            "durationTicks": 192,
            "midi": 48,
            "name": "C3",
            "ticks": 38400,
            "time": 34.8837,
            "velocity": 0.16535433070866143
          },
          {
            "duration": 0.1744185000000016,
            "durationTicks": 192,
            "midi": 55,
            "name": "G3",
            "ticks": 38592,
            "time": 35.0581185,
            "velocity": 0.16535433070866143
          },
          {
            "duration": 0.1744185000000016,
            "durationTicks": 192,
            "midi": 48,
            "name": "C3",
            "ticks": 38784,
            "time": 35.232537,
            "velocity": 0.16535433070866143
          },
          {
            "duration": 0.1744185000000016,
            "durationTicks": 192,
            "midi": 43,
            "name": "G2",
            "ticks": 38976,
            "time": 35.4069555,
            "velocity": 0.16535433070866143
          },
          {
            "duration": 0.17441849999999448,
            "durationTicks": 192,
            "midi": 36,
            "name": "C2",
            "ticks": 39168,
            "time": 35.581374000000004,
            "velocity": 0.16535433070866143
          },
          {
            "duration": 0.1744185000000016,
            "durationTicks": 192,
            "midi": 43,
            "name": "G2",
            "ticks": 39360,
            "time": 35.7557925,
            "velocity": 0.16535433070866143
          },
          {
            "duration": 0.1744185000000016,
            "durationTicks": 192,
            "midi": 48,
            "name": "C3",
            "ticks": 39552,
            "time": 35.930211,
            "velocity": 0.16535433070866143
          },
          {
            "duration": 0.1744185000000016,
            "durationTicks": 192,
            "midi": 56,
            "name": "G#3",
            "ticks": 39744,
            "time": 36.1046295,
            "velocity": 0.16535433070866143
          },
          {
            "duration": 0.17441849999999448,
            "durationTicks": 192,
            "midi": 48,
            "name": "C3",
            "ticks": 39936,
            "time": 36.279048,
            "velocity": 0.16535433070866143
          },
          {
            "duration": 0.1744185000000016,
            "durationTicks": 192,
            "midi": 44,
            "name": "G#2",
            "ticks": 40128,
            "time": 36.4534665,
            "velocity": 0.16535433070866143
          },
          {
            "duration": 0.1744185000000016,
            "durationTicks": 192,
            "midi": 36,
            "name": "C2",
            "ticks": 40320,
            "time": 36.627885,
            "velocity": 0.16535433070866143
          },
          {
            "duration": 0.1744185000000016,
            "durationTicks": 192,
            "midi": 43,
            "name": "G2",
            "ticks": 40512,
            "time": 36.8023035,
            "velocity": 0.16535433070866143
          },
          {
            "duration": 0.1744185000000016,
            "durationTicks": 192,
            "midi": 48,
            "name": "C3",
            "ticks": 40704,
            "time": 36.976722,
            "velocity": 0.16535433070866143
          },
          {
            "duration": 0.17441849999999448,
            "durationTicks": 192,
            "midi": 56,
            "name": "G#3",
            "ticks": 40896,
            "time": 37.151140500000004,
            "velocity": 0.16535433070866143
          },
          {
            "duration": 0.1744185000000016,
            "durationTicks": 192,
            "midi": 48,
            "name": "C3",
            "ticks": 41088,
            "time": 37.325559,
            "velocity": 0.16535433070866143
          },
          {
            "duration": 0.1744185000000016,
            "durationTicks": 192,
            "midi": 44,
            "name": "G#2",
            "ticks": 41280,
            "time": 37.4999775,
            "velocity": 0.16535433070866143
          }
        ],
        "endOfTrackTicks": 41472
      },
      {
        "channel": 3,
        "controlChanges": {},
        "pitchBends": [],
        "instrument": {
          "family": "pipe",
          "number": 73,
          "name": "flute"
        },
        "name": "Flute",
        "notes": [
          {
            "duration": 0.3488370000000005,
            "durationTicks": 384,
            "midi": 64,
            "name": "E4",
            "ticks": 4608,
            "time": 4.186044,
            "velocity": 0.3937007874015748
          },
          {
            "duration": 0.5232554999999994,
            "durationTicks": 576,
            "midi": 66,
            "name": "F#4",
            "ticks": 4992,
            "time": 4.534881,
            "velocity": 0.3937007874015748
          },
          {
            "duration": 0.1744185000000007,
            "durationTicks": 192,
            "midi": 64,
            "name": "E4",
            "ticks": 5568,
            "time": 5.0581365,
            "velocity": 0.3937007874015748
          },
          {
            "duration": 1.0465109999999997,
            "durationTicks": 1152,
            "midi": 67,
            "name": "G4",
            "ticks": 5760,
            "time": 5.2325550000000005,
            "velocity": 0.3937007874015748
          },
          {
            "duration": 1.0465109999999997,
            "durationTicks": 1152,
            "midi": 66,
            "name": "F#4",
            "ticks": 6912,
            "time": 6.279066,
            "velocity": 0.3937007874015748
          },
          {
            "duration": 1.0465109999999997,
            "durationTicks": 1152,
            "midi": 64,
            "name": "E4",
            "ticks": 8064,
            "time": 7.325577,
            "velocity": 0.3937007874015748
          },
          {
            "duration": 0.3488369999999996,
            "durationTicks": 384,
            "midi": 64,
            "name": "E4",
            "ticks": 9216,
            "time": 8.372088,
            "velocity": 0.3937007874015748
          },
          {
            "duration": 0.5232555000000012,
            "durationTicks": 576,
            "midi": 66,
            "name": "F#4",
            "ticks": 9600,
            "time": 8.720925,
            "velocity": 0.3937007874015748
          },
          {
            "duration": 0.1744184999999998,
            "durationTicks": 192,
            "midi": 64,
            "name": "E4",
            "ticks": 10176,
            "time": 9.2441805,
            "velocity": 0.3937007874015748
          },
          {
            "duration": 0.5232554999999994,
            "durationTicks": 576,
            "midi": 67,
            "name": "G4",
            "ticks": 10368,
            "time": 9.418599,
            "velocity": 0.3937007874015748
          },
          {
            "duration": 0.5232555000000012,
            "durationTicks": 576,
            "midi": 69,
            "name": "A4",
            "ticks": 10944,
            "time": 9.9418545,
            "velocity": 0.3937007874015748
          },
          {
            "duration": 1.0465109999999989,
            "durationTicks": 1152,
            "midi": 67,
            "name": "G4",
            "ticks": 11520,
            "time": 10.465110000000001,
            "velocity": 0.3937007874015748
          },
          {
            "duration": 1.0465110000000006,
            "durationTicks": 1152,
            "midi": 66,
            "name": "F#4",
            "ticks": 12672,
            "time": 11.511621,
            "velocity": 0.3937007874015748
          },
          {
            "duration": 0.5232554999999994,
            "durationTicks": 576,
            "midi": 64,
            "name": "E4",
            "ticks": 13824,
            "time": 12.558132,
            "velocity": 0.3937007874015748
          },
          {
            "duration": 0.3488369999999996,
            "durationTicks": 384,
            "midi": 66,
            "name": "F#4",
            "ticks": 14400,
            "time": 13.0813875,
            "velocity": 0.3937007874015748
          },
          {
            "duration": 0.1744185000000016,
            "durationTicks": 192,
            "midi": 64,
            "name": "E4",
            "ticks": 14784,
            "time": 13.4302245,
            "velocity": 0.3937007874015748
          },
          {
            "duration": 0.5232554999999994,
            "durationTicks": 576,
            "midi": 67,
            "name": "G4",
            "ticks": 14976,
            "time": 13.604643000000001,
            "velocity": 0.3937007874015748
          },
          {
            "duration": 0.5232554999999994,
            "durationTicks": 576,
            "midi": 69,
            "name": "A4",
            "ticks": 15552,
            "time": 14.1278985,
            "velocity": 0.3937007874015748
          },
          {
            "duration": 0.5232555000000012,
            "durationTicks": 576,
            "midi": 71,
            "name": "B4",
            "ticks": 16128,
            "time": 14.651154,
            "velocity": 0.3937007874015748
          },
          {
            "duration": 0.5232554999999994,
            "durationTicks": 576,
            "midi": 72,
            "name": "C5",
            "ticks": 16704,
            "time": 15.174409500000001,
            "velocity": 0.3937007874015748
          },
          {
            "duration": 0.5232555000000012,
            "durationTicks": 576,
            "midi": 69,
            "name": "A4",
            "ticks": 17280,
            "time": 15.697665,
            "velocity": 0.3937007874015748
          },
          {
            "duration": 0.5232554999999977,
            "durationTicks": 576,
            "midi": 67,
            "name": "G4",
            "ticks": 17856,
            "time": 16.220920500000002,
            "velocity": 0.3937007874015748
          },
          {
            "duration": 0.1744185000000016,
            "durationTicks": 192,
            "midi": 69,
            "name": "A4",
            "ticks": 18432,
            "time": 16.744176,
            "velocity": 0.3937007874015748
          },
          {
            "duration": 0.17441849999999803,
            "durationTicks": 192,
            "midi": 71,
            "name": "B4",
            "ticks": 18624,
            "time": 16.9185945,
            "velocity": 0.3937007874015748
          },
          {
            "duration": 1.395348000000002,
            "durationTicks": 1536,
            "midi": 71,
            "name": "B4",
            "ticks": 18816,
            "time": 17.093013,
            "velocity": 0.3937007874015748
          },
          {
            "duration": 0.3488369999999996,
            "durationTicks": 384,
            "midi": 72,
            "name": "C5",
            "ticks": 20352,
            "time": 18.488361,
            "velocity": 0.3937007874015748
          },
          {
            "duration": 0.17441849999999803,
            "durationTicks": 192,
            "midi": 69,
            "name": "A4",
            "ticks": 20736,
            "time": 18.837198,
            "velocity": 0.3937007874015748
          },
          {
            "duration": 0.1744185000000016,
            "durationTicks": 192,
            "midi": 71,
            "name": "B4",
            "ticks": 20928,
            "time": 19.0116165,
            "velocity": 0.3937007874015748
          },
          {
            "duration": 1.3953479999999985,
            "durationTicks": 1536,
            "midi": 71,
            "name": "B4",
            "ticks": 21120,
            "time": 19.186035,
            "velocity": 0.3937007874015748
          },
          {
            "duration": 0.1744185000000016,
            "durationTicks": 192,
            "midi": 67,
            "name": "G4",
            "ticks": 22656,
            "time": 20.581383,
            "velocity": 0.3937007874015748
          },
          {
            "duration": 0.1744185000000016,
            "durationTicks": 192,
            "midi": 66,
            "name": "F#4",
            "ticks": 22848,
            "time": 20.7558015,
            "velocity": 0.3937007874015748
          },
          {
            "duration": 0.5232554999999977,
            "durationTicks": 576,
            "midi": 76,
            "name": "E5",
            "ticks": 23040,
            "time": 20.930220000000002,
            "velocity": 0.3937007874015748
          },
          {
            "duration": 0.5232554999999977,
            "durationTicks": 576,
            "midi": 52,
            "name": "E3",
            "ticks": 23040,
            "time": 20.930220000000002,
            "velocity": 0.3937007874015748
          },
          {
            "duration": 0.5232554999999977,
            "durationTicks": 576,
            "midi": 64,
            "name": "E4",
            "ticks": 23040,
            "time": 20.930220000000002,
            "velocity": 0.3937007874015748
          },
          {
            "duration": 0.3488369999999996,
            "durationTicks": 384,
            "midi": 78,
            "name": "F#5",
            "ticks": 23616,
            "time": 21.4534755,
            "velocity": 0.3937007874015748
          },
          {
            "duration": 0.3488369999999996,
            "durationTicks": 384,
            "midi": 54,
            "name": "F#3",
            "ticks": 23616,
            "time": 21.4534755,
            "velocity": 0.3937007874015748
          },
          {
            "duration": 0.3488369999999996,
            "durationTicks": 384,
            "midi": 66,
            "name": "F#4",
            "ticks": 23616,
            "time": 21.4534755,
            "velocity": 0.3937007874015748
          },
          {
            "duration": 0.1744185000000016,
            "durationTicks": 192,
            "midi": 52,
            "name": "E3",
            "ticks": 24000,
            "time": 21.8023125,
            "velocity": 0.3937007874015748
          },
          {
            "duration": 0.1744185000000016,
            "durationTicks": 192,
            "midi": 64,
            "name": "E4",
            "ticks": 24000,
            "time": 21.8023125,
            "velocity": 0.3937007874015748
          },
          {
            "duration": 0.1744185000000016,
            "durationTicks": 192,
            "midi": 76,
            "name": "E5",
            "ticks": 24000,
            "time": 21.8023125,
            "velocity": 0.3937007874015748
          },
          {
            "duration": 1.0465109999999989,
            "durationTicks": 1152,
            "midi": 55,
            "name": "G3",
            "ticks": 24192,
            "time": 21.976731,
            "velocity": 0.3937007874015748
          },
          {
            "duration": 1.0465109999999989,
            "durationTicks": 1152,
            "midi": 67,
            "name": "G4",
            "ticks": 24192,
            "time": 21.976731,
            "velocity": 0.3937007874015748
          },
          {
            "duration": 1.0465109999999989,
            "durationTicks": 1152,
            "midi": 79,
            "name": "G5",
            "ticks": 24192,
            "time": 21.976731,
            "velocity": 0.3937007874015748
          },
          {
            "duration": 1.0465110000000024,
            "durationTicks": 1152,
            "midi": 54,
            "name": "F#3",
            "ticks": 25344,
            "time": 23.023242,
            "velocity": 0.3937007874015748
          },
          {
            "duration": 1.0465110000000024,
            "durationTicks": 1152,
            "midi": 66,
            "name": "F#4",
            "ticks": 25344,
            "time": 23.023242,
            "velocity": 0.3937007874015748
          },
          {
            "duration": 1.0465110000000024,
            "durationTicks": 1152,
            "midi": 78,
            "name": "F#5",
            "ticks": 25344,
            "time": 23.023242,
            "velocity": 0.3937007874015748
          },
          {
            "duration": 1.0465109999999989,
            "durationTicks": 1152,
            "midi": 52,
            "name": "E3",
            "ticks": 26496,
            "time": 24.069753000000002,
            "velocity": 0.3937007874015748
          },
          {
            "duration": 1.0465109999999989,
            "durationTicks": 1152,
            "midi": 64,
            "name": "E4",
            "ticks": 26496,
            "time": 24.069753000000002,
            "velocity": 0.3937007874015748
          },
          {
            "duration": 1.0465109999999989,
            "durationTicks": 1152,
            "midi": 76,
            "name": "E5",
            "ticks": 26496,
            "time": 24.069753000000002,
            "velocity": 0.3937007874015748
          },
          {
            "duration": 0.5232555000000012,
            "durationTicks": 576,
            "midi": 52,
            "name": "E3",
            "ticks": 27648,
            "time": 25.116264,
            "velocity": 0.3937007874015748
          },
          {
            "duration": 0.5232555000000012,
            "durationTicks": 576,
            "midi": 76,
            "name": "E5",
            "ticks": 27648,
            "time": 25.116264,
            "velocity": 0.3937007874015748
          },
          {
            "duration": 0.5232555000000012,
            "durationTicks": 576,
            "midi": 64,
            "name": "E4",
            "ticks": 27648,
            "time": 25.116264,
            "velocity": 0.3937007874015748
          },
          {
            "duration": 0.3488369999999996,
            "durationTicks": 384,
            "midi": 78,
            "name": "F#5",
            "ticks": 28224,
            "time": 25.639519500000002,
            "velocity": 0.3937007874015748
          },
          {
            "duration": 0.3488369999999996,
            "durationTicks": 384,
            "midi": 66,
            "name": "F#4",
            "ticks": 28224,
            "time": 25.639519500000002,
            "velocity": 0.3937007874015748
          },
          {
            "duration": 0.3488369999999996,
            "durationTicks": 384,
            "midi": 54,
            "name": "F#3",
            "ticks": 28224,
            "time": 25.639519500000002,
            "velocity": 0.3937007874015748
          },
          {
            "duration": 0.17441849999999803,
            "durationTicks": 192,
            "midi": 64,
            "name": "E4",
            "ticks": 28608,
            "time": 25.988356500000002,
            "velocity": 0.3937007874015748
          },
          {
            "duration": 0.17441849999999803,
            "durationTicks": 192,
            "midi": 52,
            "name": "E3",
            "ticks": 28608,
            "time": 25.988356500000002,
            "velocity": 0.3937007874015748
          },
          {
            "duration": 0.17441849999999803,
            "durationTicks": 192,
            "midi": 76,
            "name": "E5",
            "ticks": 28608,
            "time": 25.988356500000002,
            "velocity": 0.3937007874015748
          },
          {
            "duration": 0.5232555000000012,
            "durationTicks": 576,
            "midi": 79,
            "name": "G5",
            "ticks": 28800,
            "time": 26.162775,
            "velocity": 0.3937007874015748
          },
          {
            "duration": 0.5232555000000012,
            "durationTicks": 576,
            "midi": 67,
            "name": "G4",
            "ticks": 28800,
            "time": 26.162775,
            "velocity": 0.3937007874015748
          },
          {
            "duration": 0.5232555000000012,
            "durationTicks": 576,
            "midi": 55,
            "name": "G3",
            "ticks": 28800,
            "time": 26.162775,
            "velocity": 0.3937007874015748
          },
          {
            "duration": 0.5232555000000012,
            "durationTicks": 576,
            "midi": 57,
            "name": "A3",
            "ticks": 29376,
            "time": 26.6860305,
            "velocity": 0.3937007874015748
          },
          {
            "duration": 0.5232555000000012,
            "durationTicks": 576,
            "midi": 69,
            "name": "A4",
            "ticks": 29376,
            "time": 26.6860305,
            "velocity": 0.3937007874015748
          },
          {
            "duration": 0.5232555000000012,
            "durationTicks": 576,
            "midi": 81,
            "name": "A5",
            "ticks": 29376,
            "time": 26.6860305,
            "velocity": 0.3937007874015748
          },
          {
            "duration": 1.0465109999999989,
            "durationTicks": 1152,
            "midi": 55,
            "name": "G3",
            "ticks": 29952,
            "time": 27.209286000000002,
            "velocity": 0.3937007874015748
          },
          {
            "duration": 1.0465109999999989,
            "durationTicks": 1152,
            "midi": 67,
            "name": "G4",
            "ticks": 29952,
            "time": 27.209286000000002,
            "velocity": 0.3937007874015748
          },
          {
            "duration": 1.0465109999999989,
            "durationTicks": 1152,
            "midi": 79,
            "name": "G5",
            "ticks": 29952,
            "time": 27.209286000000002,
            "velocity": 0.3937007874015748
          },
          {
            "duration": 1.0465109999999989,
            "durationTicks": 1152,
            "midi": 78,
            "name": "F#5",
            "ticks": 31104,
            "time": 28.255797,
            "velocity": 0.3937007874015748
          },
          {
            "duration": 1.0465109999999989,
            "durationTicks": 1152,
            "midi": 66,
            "name": "F#4",
            "ticks": 31104,
            "time": 28.255797,
            "velocity": 0.3937007874015748
          },
          {
            "duration": 1.0465109999999989,
            "durationTicks": 1152,
            "midi": 54,
            "name": "F#3",
            "ticks": 31104,
            "time": 28.255797,
            "velocity": 0.3937007874015748
          },
          {
            "duration": 0.5232555000000012,
            "durationTicks": 576,
            "midi": 52,
            "name": "E3",
            "ticks": 32256,
            "time": 29.302308,
            "velocity": 0.3937007874015748
          },
          {
            "duration": 0.5232555000000012,
            "durationTicks": 576,
            "midi": 64,
            "name": "E4",
            "ticks": 32256,
            "time": 29.302308,
            "velocity": 0.3937007874015748
          },
          {
            "duration": 0.5232555000000012,
            "durationTicks": 576,
            "midi": 76,
            "name": "E5",
            "ticks": 32256,
            "time": 29.302308,
            "velocity": 0.3937007874015748
          },
          {
            "duration": 0.3488369999999996,
            "durationTicks": 384,
            "midi": 54,
            "name": "F#3",
            "ticks": 32832,
            "time": 29.8255635,
            "velocity": 0.3937007874015748
          },
          {
            "duration": 0.3488369999999996,
            "durationTicks": 384,
            "midi": 66,
            "name": "F#4",
            "ticks": 32832,
            "time": 29.8255635,
            "velocity": 0.3937007874015748
          },
          {
            "duration": 0.3488369999999996,
            "durationTicks": 384,
            "midi": 78,
            "name": "F#5",
            "ticks": 32832,
            "time": 29.8255635,
            "velocity": 0.3937007874015748
          },
          {
            "duration": 0.1744185000000016,
            "durationTicks": 192,
            "midi": 64,
            "name": "E4",
            "ticks": 33216,
            "time": 30.1744005,
            "velocity": 0.3937007874015748
          },
          {
            "duration": 0.1744185000000016,
            "durationTicks": 192,
            "midi": 52,
            "name": "E3",
            "ticks": 33216,
            "time": 30.1744005,
            "velocity": 0.3937007874015748
          },
          {
            "duration": 0.1744185000000016,
            "durationTicks": 192,
            "midi": 76,
            "name": "E5",
            "ticks": 33216,
            "time": 30.1744005,
            "velocity": 0.3937007874015748
          },
          {
            "duration": 0.5232554999999977,
            "durationTicks": 576,
            "midi": 67,
            "name": "G4",
            "ticks": 33408,
            "time": 30.348819000000002,
            "velocity": 0.3937007874015748
          },
          {
            "duration": 0.5232554999999977,
            "durationTicks": 576,
            "midi": 55,
            "name": "G3",
            "ticks": 33408,
            "time": 30.348819000000002,
            "velocity": 0.3937007874015748
          },
          {
            "duration": 0.5232554999999977,
            "durationTicks": 576,
            "midi": 79,
            "name": "G5",
            "ticks": 33408,
            "time": 30.348819000000002,
            "velocity": 0.3937007874015748
          },
          {
            "duration": 0.5232555000000012,
            "durationTicks": 576,
            "midi": 69,
            "name": "A4",
            "ticks": 33984,
            "time": 30.8720745,
            "velocity": 0.3937007874015748
          },
          {
            "duration": 0.5232555000000012,
            "durationTicks": 576,
            "midi": 81,
            "name": "A5",
            "ticks": 33984,
            "time": 30.8720745,
            "velocity": 0.3937007874015748
          },
          {
            "duration": 0.5232555000000012,
            "durationTicks": 576,
            "midi": 57,
            "name": "A3",
            "ticks": 33984,
            "time": 30.8720745,
            "velocity": 0.3937007874015748
          },
          {
            "duration": 0.6976739999999992,
            "durationTicks": 768,
            "midi": 71,
            "name": "B4",
            "ticks": 34560,
            "time": 31.39533,
            "velocity": 0.3937007874015748
          },
          {
            "duration": 0.6976739999999992,
            "durationTicks": 768,
            "midi": 59,
            "name": "B3",
            "ticks": 34560,
            "time": 31.39533,
            "velocity": 0.3937007874015748
          },
          {
            "duration": 0.6976739999999992,
            "durationTicks": 768,
            "midi": 83,
            "name": "B5",
            "ticks": 34560,
            "time": 31.39533,
            "velocity": 0.3937007874015748
          },
          {
            "duration": 0.3488370000000032,
            "durationTicks": 384,
            "midi": 60,
            "name": "C4",
            "ticks": 35328,
            "time": 32.093004,
            "velocity": 0.3937007874015748
          },
          {
            "duration": 0.3488370000000032,
            "durationTicks": 384,
            "midi": 72,
            "name": "C5",
            "ticks": 35328,
            "time": 32.093004,
            "velocity": 0.3937007874015748
          },
          {
            "duration": 0.3488370000000032,
            "durationTicks": 384,
            "midi": 84,
            "name": "C6",
            "ticks": 35328,
            "time": 32.093004,
            "velocity": 0.3937007874015748
          },
          {
            "duration": 0.5232554999999977,
            "durationTicks": 576,
            "midi": 81,
            "name": "A5",
            "ticks": 35712,
            "time": 32.441841000000004,
            "velocity": 0.3937007874015748
          },
          {
            "duration": 0.5232554999999977,
            "durationTicks": 576,
            "midi": 69,
            "name": "A4",
            "ticks": 35712,
            "time": 32.441841000000004,
            "velocity": 0.3937007874015748
          },
          {
            "duration": 0.5232554999999977,
            "durationTicks": 576,
            "midi": 57,
            "name": "A3",
            "ticks": 35712,
            "time": 32.441841000000004,
            "velocity": 0.3937007874015748
          },
          {
            "duration": 0.5232554999999977,
            "durationTicks": 576,
            "midi": 55,
            "name": "G3",
            "ticks": 36288,
            "time": 32.9650965,
            "velocity": 0.3937007874015748
          },
          {
            "duration": 0.5232554999999977,
            "durationTicks": 576,
            "midi": 79,
            "name": "G5",
            "ticks": 36288,
            "time": 32.9650965,
            "velocity": 0.3937007874015748
          },
          {
            "duration": 0.5232554999999977,
            "durationTicks": 576,
            "midi": 67,
            "name": "G4",
            "ticks": 36288,
            "time": 32.9650965,
            "velocity": 0.3937007874015748
          },
          {
            "duration": 0.1744185000000016,
            "durationTicks": 192,
            "midi": 69,
            "name": "A4",
            "ticks": 36864,
            "time": 33.488352,
            "velocity": 0.3937007874015748
          },
          {
            "duration": 0.1744185000000016,
            "durationTicks": 192,
            "midi": 81,
            "name": "A5",
            "ticks": 36864,
            "time": 33.488352,
            "velocity": 0.3937007874015748
          },
          {
            "duration": 0.1744185000000016,
            "durationTicks": 192,
            "midi": 57,
            "name": "A3",
            "ticks": 36864,
            "time": 33.488352,
            "velocity": 0.3937007874015748
          },
          {
            "duration": 0.1744185000000016,
            "durationTicks": 192,
            "midi": 59,
            "name": "B3",
            "ticks": 37056,
            "time": 33.6627705,
            "velocity": 0.3937007874015748
          },
          {
            "duration": 0.1744185000000016,
            "durationTicks": 192,
            "midi": 71,
            "name": "B4",
            "ticks": 37056,
            "time": 33.6627705,
            "velocity": 0.3937007874015748
          },
          {
            "duration": 0.1744185000000016,
            "durationTicks": 192,
            "midi": 83,
            "name": "B5",
            "ticks": 37056,
            "time": 33.6627705,
            "velocity": 0.3937007874015748
          },
          {
            "duration": 1.3953479999999985,
            "durationTicks": 1536,
            "midi": 83,
            "name": "B5",
            "ticks": 37248,
            "time": 33.837189,
            "velocity": 0.3937007874015748
          },
          {
            "duration": 1.3953479999999985,
            "durationTicks": 1536,
            "midi": 59,
            "name": "B3",
            "ticks": 37248,
            "time": 33.837189,
            "velocity": 0.3937007874015748
          },
          {
            "duration": 1.3953479999999985,
            "durationTicks": 1536,
            "midi": 71,
            "name": "B4",
            "ticks": 37248,
            "time": 33.837189,
            "velocity": 0.3937007874015748
          },
          {
            "duration": 0.3488370000000032,
            "durationTicks": 384,
            "midi": 72,
            "name": "C5",
            "ticks": 38784,
            "time": 35.232537,
            "velocity": 0.3937007874015748
          },
          {
            "duration": 0.3488370000000032,
            "durationTicks": 384,
            "midi": 84,
            "name": "C6",
            "ticks": 38784,
            "time": 35.232537,
            "velocity": 0.3937007874015748
          },
          {
            "duration": 0.3488370000000032,
            "durationTicks": 384,
            "midi": 60,
            "name": "C4",
            "ticks": 38784,
            "time": 35.232537,
            "velocity": 0.3937007874015748
          },
          {
            "duration": 0.17441849999999448,
            "durationTicks": 192,
            "midi": 81,
            "name": "A5",
            "ticks": 39168,
            "time": 35.581374000000004,
            "velocity": 0.3937007874015748
          },
          {
            "duration": 0.17441849999999448,
            "durationTicks": 192,
            "midi": 57,
            "name": "A3",
            "ticks": 39168,
            "time": 35.581374000000004,
            "velocity": 0.3937007874015748
          },
          {
            "duration": 0.17441849999999448,
            "durationTicks": 192,
            "midi": 69,
            "name": "A4",
            "ticks": 39168,
            "time": 35.581374000000004,
            "velocity": 0.3937007874015748
          },
          {
            "duration": 0.1744185000000016,
            "durationTicks": 192,
            "midi": 83,
            "name": "B5",
            "ticks": 39360,
            "time": 35.7557925,
            "velocity": 0.3937007874015748
          },
          {
            "duration": 0.1744185000000016,
            "durationTicks": 192,
            "midi": 59,
            "name": "B3",
            "ticks": 39360,
            "time": 35.7557925,
            "velocity": 0.3937007874015748
          },
          {
            "duration": 0.1744185000000016,
            "durationTicks": 192,
            "midi": 71,
            "name": "B4",
            "ticks": 39360,
            "time": 35.7557925,
            "velocity": 0.3937007874015748
          },
          {
            "duration": 1.3953479999999985,
            "durationTicks": 1536,
            "midi": 71,
            "name": "B4",
            "ticks": 39552,
            "time": 35.930211,
            "velocity": 0.3937007874015748
          },
          {
            "duration": 1.3953479999999985,
            "durationTicks": 1536,
            "midi": 83,
            "name": "B5",
            "ticks": 39552,
            "time": 35.930211,
            "velocity": 0.3937007874015748
          },
          {
            "duration": 1.3953479999999985,
            "durationTicks": 1536,
            "midi": 59,
            "name": "B3",
            "ticks": 39552,
            "time": 35.930211,
            "velocity": 0.3937007874015748
          },
          {
            "duration": 0.3488370000000032,
            "durationTicks": 384,
            "midi": 67,
            "name": "G4",
            "ticks": 41088,
            "time": 37.325559,
            "velocity": 0.3937007874015748
          },
          {
            "duration": 0.6976739999999992,
            "durationTicks": 768,
            "midi": 66,
            "name": "F#4",
            "ticks": 41472,
            "time": 37.674396,
            "velocity": 0.3937007874015748
          },
          {
            "duration": 2.0930219999999977,
            "durationTicks": 2304,
            "midi": 71,
            "name": "B4",
            "ticks": 42240,
            "time": 38.37207,
            "velocity": 0.3937007874015748
          },
          {
            "duration": 2.0930219999999977,
            "durationTicks": 2304,
            "midi": 76,
            "name": "E5",
            "ticks": 42240,
            "time": 38.37207,
            "velocity": 0.3937007874015748
          },
          {
            "duration": 2.0930219999999977,
            "durationTicks": 2304,
            "midi": 64,
            "name": "E4",
            "ticks": 42240,
            "time": 38.37207,
            "velocity": 0.3937007874015748
          },
          {
            "duration": 0.6104647499999984,
            "durationTicks": 672,
            "midi": 76,
            "name": "E5",
            "ticks": 47232,
            "time": 42.906951,
            "velocity": 0.3937007874015748
          },
          {
            "duration": 0.43604624999999686,
            "durationTicks": 480,
            "midi": 78,
            "name": "F#5",
            "ticks": 47808,
            "time": 43.430206500000004,
            "velocity": 0.3937007874015748
          },
          {
            "duration": 0.2616277500000024,
            "durationTicks": 288,
            "midi": 76,
            "name": "E5",
            "ticks": 48192,
            "time": 43.7790435,
            "velocity": 0.3937007874015748
          },
          {
            "duration": 1.133720249999996,
            "durationTicks": 1248,
            "midi": 79,
            "name": "G5",
            "ticks": 48384,
            "time": 43.953462,
            "velocity": 0.3937007874015748
          },
          {
            "duration": 1.133720249999996,
            "durationTicks": 1248,
            "midi": 78,
            "name": "F#5",
            "ticks": 49536,
            "time": 44.999973000000004,
            "velocity": 0.3937007874015748
          },
          {
            "duration": 1.0465110000000024,
            "durationTicks": 1152,
            "midi": 76,
            "name": "E5",
            "ticks": 50688,
            "time": 46.046484,
            "velocity": 0.3937007874015748
          },
          {
            "duration": 0.5232554999999977,
            "durationTicks": 576,
            "midi": 76,
            "name": "E5",
            "ticks": 51840,
            "time": 47.092995,
            "velocity": 0.3937007874015748
          },
          {
            "duration": 0.3488370000000032,
            "durationTicks": 384,
            "midi": 78,
            "name": "F#5",
            "ticks": 52416,
            "time": 47.6162505,
            "velocity": 0.3937007874015748
          },
          {
            "duration": 0.1744185000000016,
            "durationTicks": 192,
            "midi": 76,
            "name": "E5",
            "ticks": 52800,
            "time": 47.9650875,
            "velocity": 0.3937007874015748
          },
          {
            "duration": 0.5232554999999977,
            "durationTicks": 576,
            "midi": 79,
            "name": "G5",
            "ticks": 52992,
            "time": 48.139506000000004,
            "velocity": 0.3937007874015748
          },
          {
            "duration": 0.5232554999999977,
            "durationTicks": 576,
            "midi": 81,
            "name": "A5",
            "ticks": 53568,
            "time": 48.6627615,
            "velocity": 0.3937007874015748
          },
          {
            "duration": 1.0465110000000024,
            "durationTicks": 1152,
            "midi": 79,
            "name": "G5",
            "ticks": 54144,
            "time": 49.186017,
            "velocity": 0.3937007874015748
          },
          {
            "duration": 1.0465110000000024,
            "durationTicks": 1152,
            "midi": 78,
            "name": "F#5",
            "ticks": 55296,
            "time": 50.232528,
            "velocity": 0.3937007874015748
          },
          {
            "duration": 0.5232554999999977,
            "durationTicks": 576,
            "midi": 76,
            "name": "E5",
            "ticks": 56448,
            "time": 51.279039000000004,
            "velocity": 0.3937007874015748
          },
          {
            "duration": 0.34883699999999607,
            "durationTicks": 384,
            "midi": 78,
            "name": "F#5",
            "ticks": 57024,
            "time": 51.8022945,
            "velocity": 0.3937007874015748
          },
          {
            "duration": 0.1744185000000016,
            "durationTicks": 192,
            "midi": 76,
            "name": "E5",
            "ticks": 57408,
            "time": 52.1511315,
            "velocity": 0.3937007874015748
          },
          {
            "duration": 0.5232555000000048,
            "durationTicks": 576,
            "midi": 79,
            "name": "G5",
            "ticks": 57600,
            "time": 52.32555,
            "velocity": 0.3937007874015748
          },
          {
            "duration": 0.5232554999999977,
            "durationTicks": 576,
            "midi": 81,
            "name": "A5",
            "ticks": 58176,
            "time": 52.848805500000005,
            "velocity": 0.3937007874015748
          },
          {
            "duration": 0.6976739999999992,
            "durationTicks": 768,
            "midi": 83,
            "name": "B5",
            "ticks": 58752,
            "time": 53.372061,
            "velocity": 0.3937007874015748
          },
          {
            "duration": 0.3488370000000032,
            "durationTicks": 384,
            "midi": 84,
            "name": "C6",
            "ticks": 59520,
            "time": 54.069735,
            "velocity": 0.3937007874015748
          },
          {
            "duration": 0.5232554999999977,
            "durationTicks": 576,
            "midi": 81,
            "name": "A5",
            "ticks": 59904,
            "time": 54.418572000000005,
            "velocity": 0.3937007874015748
          },
          {
            "duration": 0.5232554999999977,
            "durationTicks": 576,
            "midi": 79,
            "name": "G5",
            "ticks": 60480,
            "time": 54.9418275,
            "velocity": 0.3937007874015748
          },
          {
            "duration": 0.1744185000000016,
            "durationTicks": 192,
            "midi": 81,
            "name": "A5",
            "ticks": 61056,
            "time": 55.465083,
            "velocity": 0.3937007874015748
          },
          {
            "duration": 0.1744185000000016,
            "durationTicks": 192,
            "midi": 83,
            "name": "B5",
            "ticks": 61248,
            "time": 55.6395015,
            "velocity": 0.3937007874015748
          },
          {
            "duration": 1.3953479999999985,
            "durationTicks": 1536,
            "midi": 83,
            "name": "B5",
            "ticks": 61440,
            "time": 55.81392,
            "velocity": 0.3937007874015748
          },
          {
            "duration": 0.3488370000000032,
            "durationTicks": 384,
            "midi": 84,
            "name": "C6",
            "ticks": 62976,
            "time": 57.209268,
            "velocity": 0.3937007874015748
          },
          {
            "duration": 0.17441849999999448,
            "durationTicks": 192,
            "midi": 81,
            "name": "A5",
            "ticks": 63360,
            "time": 57.558105000000005,
            "velocity": 0.3937007874015748
          },
          {
            "duration": 0.1744185000000016,
            "durationTicks": 192,
            "midi": 83,
            "name": "B5",
            "ticks": 63552,
            "time": 57.7325235,
            "velocity": 0.3937007874015748
          },
          {
            "duration": 1.3953479999999985,
            "durationTicks": 1536,
            "midi": 83,
            "name": "B5",
            "ticks": 63744,
            "time": 57.906942,
            "velocity": 0.3937007874015748
          },
          {
            "duration": 0.1744185000000016,
            "durationTicks": 192,
            "midi": 79,
            "name": "G5",
            "ticks": 65280,
            "time": 59.30229,
            "velocity": 0.3937007874015748
          },
          {
            "duration": 0.1744185000000016,
            "durationTicks": 192,
            "midi": 78,
            "name": "F#5",
            "ticks": 65472,
            "time": 59.4767085,
            "velocity": 0.3937007874015748
          },
          {
            "duration": 0.5232554999999977,
            "durationTicks": 576,
            "midi": 76,
            "name": "E5",
            "ticks": 65664,
            "time": 59.651127,
            "velocity": 0.3937007874015748
          },
          {
            "duration": 0.3488370000000032,
            "durationTicks": 384,
            "midi": 78,
            "name": "F#5",
            "ticks": 66240,
            "time": 60.1743825,
            "velocity": 0.3937007874015748
          },
          {
            "duration": 0.1744185000000016,
            "durationTicks": 192,
            "midi": 76,
            "name": "E5",
            "ticks": 66624,
            "time": 60.5232195,
            "velocity": 0.3937007874015748
          },
          {
            "duration": 1.0465109999999953,
            "durationTicks": 1152,
            "midi": 79,
            "name": "G5",
            "ticks": 66816,
            "time": 60.697638000000005,
            "velocity": 0.3937007874015748
          },
          {
            "duration": 1.0465110000000024,
            "durationTicks": 1152,
            "midi": 78,
            "name": "F#5",
            "ticks": 67968,
            "time": 61.744149,
            "velocity": 0.3937007874015748
          },
          {
            "duration": 1.0465110000000024,
            "durationTicks": 1152,
            "midi": 76,
            "name": "E5",
            "ticks": 69120,
            "time": 62.79066,
            "velocity": 0.3937007874015748
          },
          {
            "duration": 0.5232554999999977,
            "durationTicks": 576,
            "midi": 76,
            "name": "E5",
            "ticks": 70272,
            "time": 63.837171000000005,
            "velocity": 0.3937007874015748
          },
          {
            "duration": 0.3488370000000032,
            "durationTicks": 384,
            "midi": 78,
            "name": "F#5",
            "ticks": 70848,
            "time": 64.3604265,
            "velocity": 0.3937007874015748
          },
          {
            "duration": 0.1744185000000016,
            "durationTicks": 192,
            "midi": 76,
            "name": "E5",
            "ticks": 71232,
            "time": 64.7092635,
            "velocity": 0.3937007874015748
          },
          {
            "duration": 0.5232554999999905,
            "durationTicks": 576,
            "midi": 79,
            "name": "G5",
            "ticks": 71424,
            "time": 64.88368200000001,
            "velocity": 0.3937007874015748
          },
          {
            "duration": 0.5232555000000048,
            "durationTicks": 576,
            "midi": 81,
            "name": "A5",
            "ticks": 72000,
            "time": 65.4069375,
            "velocity": 0.3937007874015748
          },
          {
            "duration": 1.0465109999999953,
            "durationTicks": 1152,
            "midi": 79,
            "name": "G5",
            "ticks": 72576,
            "time": 65.930193,
            "velocity": 0.3937007874015748
          },
          {
            "duration": 1.0465110000000095,
            "durationTicks": 1152,
            "midi": 78,
            "name": "F#5",
            "ticks": 73728,
            "time": 66.976704,
            "velocity": 0.3937007874015748
          },
          {
            "duration": 0.5232554999999905,
            "durationTicks": 576,
            "midi": 76,
            "name": "E5",
            "ticks": 74880,
            "time": 68.02321500000001,
            "velocity": 0.3937007874015748
          },
          {
            "duration": 0.3488370000000032,
            "durationTicks": 384,
            "midi": 78,
            "name": "F#5",
            "ticks": 75456,
            "time": 68.5464705,
            "velocity": 0.3937007874015748
          },
          {
            "duration": 0.1744185000000016,
            "durationTicks": 192,
            "midi": 76,
            "name": "E5",
            "ticks": 75840,
            "time": 68.8953075,
            "velocity": 0.3937007874015748
          },
          {
            "duration": 0.5232555000000048,
            "durationTicks": 576,
            "midi": 79,
            "name": "G5",
            "ticks": 76032,
            "time": 69.069726,
            "velocity": 0.3937007874015748
          },
          {
            "duration": 0.5232554999999905,
            "durationTicks": 576,
            "midi": 81,
            "name": "A5",
            "ticks": 76608,
            "time": 69.59298150000001,
            "velocity": 0.3937007874015748
          },
          {
            "duration": 0.6976740000000063,
            "durationTicks": 768,
            "midi": 83,
            "name": "B5",
            "ticks": 77184,
            "time": 70.116237,
            "velocity": 0.3937007874015748
          },
          {
            "duration": 0.3488370000000032,
            "durationTicks": 384,
            "midi": 84,
            "name": "C6",
            "ticks": 77952,
            "time": 70.813911,
            "velocity": 0.3937007874015748
          },
          {
            "duration": 0.5232554999999905,
            "durationTicks": 576,
            "midi": 81,
            "name": "A5",
            "ticks": 78336,
            "time": 71.16274800000001,
            "velocity": 0.3937007874015748
          },
          {
            "duration": 0.5232555000000048,
            "durationTicks": 576,
            "midi": 79,
            "name": "G5",
            "ticks": 78912,
            "time": 71.6860035,
            "velocity": 0.3937007874015748
          },
          {
            "duration": 0.1744185000000016,
            "durationTicks": 192,
            "midi": 81,
            "name": "A5",
            "ticks": 79488,
            "time": 72.209259,
            "velocity": 0.3937007874015748
          },
          {
            "duration": 0.1744185000000016,
            "durationTicks": 192,
            "midi": 83,
            "name": "B5",
            "ticks": 79680,
            "time": 72.3836775,
            "velocity": 0.3937007874015748
          },
          {
            "duration": 1.220929499999997,
            "durationTicks": 1344,
            "midi": 83,
            "name": "B5",
            "ticks": 79872,
            "time": 72.558096,
            "velocity": 0.3937007874015748
          },
          {
            "duration": 0.5232555000000048,
            "durationTicks": 576,
            "midi": 84,
            "name": "C6",
            "ticks": 81216,
            "time": 73.7790255,
            "velocity": 0.3937007874015748
          },
          {
            "duration": 0.17441849999998738,
            "durationTicks": 192,
            "midi": 81,
            "name": "A5",
            "ticks": 81792,
            "time": 74.30228100000001,
            "velocity": 0.3937007874015748
          },
          {
            "duration": 0.1744185000000016,
            "durationTicks": 192,
            "midi": 83,
            "name": "B5",
            "ticks": 81984,
            "time": 74.4766995,
            "velocity": 0.3937007874015748
          },
          {
            "duration": 1.3953479999999985,
            "durationTicks": 1536,
            "midi": 83,
            "name": "B5",
            "ticks": 82176,
            "time": 74.651118,
            "velocity": 0.3937007874015748
          },
          {
            "duration": 0.1744185000000016,
            "durationTicks": 192,
            "midi": 79,
            "name": "G5",
            "ticks": 83712,
            "time": 76.046466,
            "velocity": 0.3937007874015748
          },
          {
            "duration": 0.1744185000000016,
            "durationTicks": 192,
            "midi": 78,
            "name": "F#5",
            "ticks": 83904,
            "time": 76.2208845,
            "velocity": 0.3937007874015748
          },
          {
            "duration": 1.0465110000000095,
            "durationTicks": 1152,
            "midi": 71,
            "name": "B4",
            "ticks": 84096,
            "time": 76.395303,
            "velocity": 0.3937007874015748
          },
          {
            "duration": 0.34883699999998896,
            "durationTicks": 384,
            "midi": 71,
            "name": "B4",
            "ticks": 85248,
            "time": 77.44181400000001,
            "velocity": 0.3937007874015748
          },
          {
            "duration": 0.3488370000000032,
            "durationTicks": 384,
            "midi": 69,
            "name": "A4",
            "ticks": 85632,
            "time": 77.790651,
            "velocity": 0.3937007874015748
          },
          {
            "duration": 0.3488370000000032,
            "durationTicks": 384,
            "midi": 72,
            "name": "C5",
            "ticks": 86016,
            "time": 78.139488,
            "velocity": 0.3937007874015748
          },
          {
            "duration": 1.0465109999999953,
            "durationTicks": 1152,
            "midi": 72,
            "name": "C5",
            "ticks": 86400,
            "time": 78.488325,
            "velocity": 0.3937007874015748
          },
          {
            "duration": 0.3488370000000032,
            "durationTicks": 384,
            "midi": 72,
            "name": "C5",
            "ticks": 87552,
            "time": 79.534836,
            "velocity": 0.3937007874015748
          },
          {
            "duration": 0.3488370000000032,
            "durationTicks": 384,
            "midi": 72,
            "name": "C5",
            "ticks": 87936,
            "time": 79.883673,
            "velocity": 0.3937007874015748
          },
          {
            "duration": 0.3488370000000032,
            "durationTicks": 384,
            "midi": 74,
            "name": "D5",
            "ticks": 88320,
            "time": 80.23251,
            "velocity": 0.3937007874015748
          },
          {
            "duration": 1.0465109999999953,
            "durationTicks": 1152,
            "midi": 71,
            "name": "B4",
            "ticks": 88704,
            "time": 80.58134700000001,
            "velocity": 0.3937007874015748
          },
          {
            "duration": 0.3488370000000032,
            "durationTicks": 384,
            "midi": 71,
            "name": "B4",
            "ticks": 89856,
            "time": 81.627858,
            "velocity": 0.3937007874015748
          },
          {
            "duration": 0.34883699999998896,
            "durationTicks": 384,
            "midi": 69,
            "name": "A4",
            "ticks": 90240,
            "time": 81.976695,
            "velocity": 0.3937007874015748
          },
          {
            "duration": 0.3488370000000032,
            "durationTicks": 384,
            "midi": 72,
            "name": "C5",
            "ticks": 90624,
            "time": 82.325532,
            "velocity": 0.3937007874015748
          },
          {
            "duration": 1.0465110000000095,
            "durationTicks": 1152,
            "midi": 72,
            "name": "C5",
            "ticks": 91008,
            "time": 82.674369,
            "velocity": 0.3937007874015748
          },
          {
            "duration": 0.34883699999998896,
            "durationTicks": 384,
            "midi": 72,
            "name": "C5",
            "ticks": 92160,
            "time": 83.72088000000001,
            "velocity": 0.3937007874015748
          },
          {
            "duration": 0.3488370000000032,
            "durationTicks": 384,
            "midi": 72,
            "name": "C5",
            "ticks": 92544,
            "time": 84.069717,
            "velocity": 0.3937007874015748
          },
          {
            "duration": 0.3488370000000032,
            "durationTicks": 384,
            "midi": 74,
            "name": "D5",
            "ticks": 92928,
            "time": 84.418554,
            "velocity": 0.3937007874015748
          },
          {
            "duration": 1.0465109999999953,
            "durationTicks": 1152,
            "midi": 71,
            "name": "B4",
            "ticks": 93312,
            "time": 84.767391,
            "velocity": 0.3937007874015748
          },
          {
            "duration": 0.3488370000000032,
            "durationTicks": 384,
            "midi": 71,
            "name": "B4",
            "ticks": 94464,
            "time": 85.813902,
            "velocity": 0.3937007874015748
          },
          {
            "duration": 0.3488370000000032,
            "durationTicks": 384,
            "midi": 69,
            "name": "A4",
            "ticks": 94848,
            "time": 86.162739,
            "velocity": 0.3937007874015748
          },
          {
            "duration": 0.3488370000000032,
            "durationTicks": 384,
            "midi": 72,
            "name": "C5",
            "ticks": 95232,
            "time": 86.511576,
            "velocity": 0.3937007874015748
          },
          {
            "duration": 1.0465109999999953,
            "durationTicks": 1152,
            "midi": 72,
            "name": "C5",
            "ticks": 95616,
            "time": 86.86041300000001,
            "velocity": 0.3937007874015748
          },
          {
            "duration": 0.3488370000000032,
            "durationTicks": 384,
            "midi": 72,
            "name": "C5",
            "ticks": 96768,
            "time": 87.906924,
            "velocity": 0.3937007874015748
          },
          {
            "duration": 0.34883699999998896,
            "durationTicks": 384,
            "midi": 72,
            "name": "C5",
            "ticks": 97152,
            "time": 88.255761,
            "velocity": 0.3937007874015748
          },
          {
            "duration": 0.3488370000000032,
            "durationTicks": 384,
            "midi": 74,
            "name": "D5",
            "ticks": 97536,
            "time": 88.604598,
            "velocity": 0.3937007874015748
          },
          {
            "duration": 1.0465110000000095,
            "durationTicks": 1152,
            "midi": 71,
            "name": "B4",
            "ticks": 97920,
            "time": 88.953435,
            "velocity": 0.3937007874015748
          },
          {
            "duration": 0.34883699999998896,
            "durationTicks": 384,
            "midi": 71,
            "name": "B4",
            "ticks": 99072,
            "time": 89.99994600000001,
            "velocity": 0.3937007874015748
          },
          {
            "duration": 0.3488370000000032,
            "durationTicks": 384,
            "midi": 69,
            "name": "A4",
            "ticks": 99456,
            "time": 90.348783,
            "velocity": 0.3937007874015748
          },
          {
            "duration": 0.3488370000000032,
            "durationTicks": 384,
            "midi": 72,
            "name": "C5",
            "ticks": 99840,
            "time": 90.69762,
            "velocity": 0.3937007874015748
          },
          {
            "duration": 1.0465109999999953,
            "durationTicks": 1152,
            "midi": 72,
            "name": "C5",
            "ticks": 100224,
            "time": 91.046457,
            "velocity": 0.3937007874015748
          },
          {
            "duration": 0.3488370000000032,
            "durationTicks": 384,
            "midi": 72,
            "name": "C5",
            "ticks": 101376,
            "time": 92.092968,
            "velocity": 0.3937007874015748
          },
          {
            "duration": 0.3488370000000032,
            "durationTicks": 384,
            "midi": 72,
            "name": "C5",
            "ticks": 101760,
            "time": 92.441805,
            "velocity": 0.3937007874015748
          },
          {
            "duration": 0.3488370000000032,
            "durationTicks": 384,
            "midi": 74,
            "name": "D5",
            "ticks": 102144,
            "time": 92.790642,
            "velocity": 0.3937007874015748
          },
          {
            "duration": 0.6976739999999921,
            "durationTicks": 768,
            "midi": 72,
            "name": "C5",
            "ticks": 102528,
            "time": 93.13947900000001,
            "velocity": 0.3937007874015748
          },
          {
            "duration": 0.3488370000000032,
            "durationTicks": 384,
            "midi": 70,
            "name": "A#4",
            "ticks": 103296,
            "time": 93.837153,
            "velocity": 0.3937007874015748
          },
          {
            "duration": 0.3488370000000032,
            "durationTicks": 384,
            "midi": 69,
            "name": "A4",
            "ticks": 103680,
            "time": 94.18599,
            "velocity": 0.3937007874015748
          },
          {
            "duration": 0.34883699999998896,
            "durationTicks": 384,
            "midi": 69,
            "name": "A4",
            "ticks": 104064,
            "time": 94.534827,
            "velocity": 0.3937007874015748
          },
          {
            "duration": 0.3488370000000032,
            "durationTicks": 384,
            "midi": 71,
            "name": "B4",
            "ticks": 104448,
            "time": 94.883664,
            "velocity": 0.3937007874015748
          },
          {
            "duration": 0.3488370000000032,
            "durationTicks": 384,
            "midi": 67,
            "name": "G4",
            "ticks": 104832,
            "time": 95.232501,
            "velocity": 0.3937007874015748
          },
          {
            "duration": 0.3488370000000032,
            "durationTicks": 384,
            "midi": 67,
            "name": "G4",
            "ticks": 105216,
            "time": 95.581338,
            "velocity": 0.3937007874015748
          },
          {
            "duration": 0.3488370000000032,
            "durationTicks": 384,
            "midi": 67,
            "name": "G4",
            "ticks": 105600,
            "time": 95.930175,
            "velocity": 0.3937007874015748
          },
          {
            "duration": 0.34883699999998896,
            "durationTicks": 384,
            "midi": 69,
            "name": "A4",
            "ticks": 105984,
            "time": 96.27901200000001,
            "velocity": 0.3937007874015748
          },
          {
            "duration": 0.3488370000000032,
            "durationTicks": 384,
            "midi": 69,
            "name": "A4",
            "ticks": 106368,
            "time": 96.627849,
            "velocity": 0.3937007874015748
          },
          {
            "duration": 0.3488370000000032,
            "durationTicks": 384,
            "midi": 68,
            "name": "G#4",
            "ticks": 106752,
            "time": 96.976686,
            "velocity": 0.3937007874015748
          },
          {
            "duration": 0.5232555000000048,
            "durationTicks": 576,
            "midi": 69,
            "name": "A4",
            "ticks": 107136,
            "time": 97.325523,
            "velocity": 0.3937007874015748
          },
          {
            "duration": 0.5232554999999905,
            "durationTicks": 576,
            "midi": 70,
            "name": "A#4",
            "ticks": 107712,
            "time": 97.84877850000001,
            "velocity": 0.3937007874015748
          },
          {
            "duration": 0.5232555000000048,
            "durationTicks": 576,
            "midi": 74,
            "name": "D5",
            "ticks": 108288,
            "time": 98.372034,
            "velocity": 0.3937007874015748
          },
          {
            "duration": 0.5232555000000048,
            "durationTicks": 576,
            "midi": 73,
            "name": "C#5",
            "ticks": 108864,
            "time": 98.8952895,
            "velocity": 0.3937007874015748
          },
          {
            "duration": 0.6104647499999913,
            "durationTicks": 672,
            "midi": 76,
            "name": "E5",
            "ticks": 109440,
            "time": 99.41854500000001,
            "velocity": 0.3937007874015748
          },
          {
            "duration": 0.43604625000000397,
            "durationTicks": 480,
            "midi": 78,
            "name": "F#5",
            "ticks": 110016,
            "time": 99.9418005,
            "velocity": 0.3937007874015748
          },
          {
            "duration": 0.2616277500000024,
            "durationTicks": 288,
            "midi": 76,
            "name": "E5",
            "ticks": 110400,
            "time": 100.2906375,
            "velocity": 0.3937007874015748
          },
          {
            "duration": 1.133720249999996,
            "durationTicks": 1248,
            "midi": 79,
            "name": "G5",
            "ticks": 110592,
            "time": 100.465056,
            "velocity": 0.3937007874015748
          },
          {
            "duration": 1.133720249999996,
            "durationTicks": 1248,
            "midi": 78,
            "name": "F#5",
            "ticks": 111744,
            "time": 101.511567,
            "velocity": 0.3937007874015748
          },
          {
            "duration": 1.0465109999999953,
            "durationTicks": 1152,
            "midi": 76,
            "name": "E5",
            "ticks": 112896,
            "time": 102.55807800000001,
            "velocity": 0.3937007874015748
          },
          {
            "duration": 0.5232555000000048,
            "durationTicks": 576,
            "midi": 76,
            "name": "E5",
            "ticks": 114048,
            "time": 103.604589,
            "velocity": 0.3937007874015748
          },
          {
            "duration": 0.34883699999998896,
            "durationTicks": 384,
            "midi": 78,
            "name": "F#5",
            "ticks": 114624,
            "time": 104.12784450000001,
            "velocity": 0.3937007874015748
          },
          {
            "duration": 0.1744185000000016,
            "durationTicks": 192,
            "midi": 76,
            "name": "E5",
            "ticks": 115008,
            "time": 104.4766815,
            "velocity": 0.3937007874015748
          },
          {
            "duration": 0.5232555000000048,
            "durationTicks": 576,
            "midi": 79,
            "name": "G5",
            "ticks": 115200,
            "time": 104.6511,
            "velocity": 0.3937007874015748
          },
          {
            "duration": 0.5232555000000048,
            "durationTicks": 576,
            "midi": 81,
            "name": "A5",
            "ticks": 115776,
            "time": 105.1743555,
            "velocity": 0.3937007874015748
          },
          {
            "duration": 1.0465109999999953,
            "durationTicks": 1152,
            "midi": 79,
            "name": "G5",
            "ticks": 116352,
            "time": 105.69761100000001,
            "velocity": 0.3937007874015748
          },
          {
            "duration": 1.0465109999999953,
            "durationTicks": 1152,
            "midi": 78,
            "name": "F#5",
            "ticks": 117504,
            "time": 106.744122,
            "velocity": 0.3937007874015748
          },
          {
            "duration": 0.5232555000000048,
            "durationTicks": 576,
            "midi": 76,
            "name": "E5",
            "ticks": 118656,
            "time": 107.790633,
            "velocity": 0.3937007874015748
          },
          {
            "duration": 0.3488370000000032,
            "durationTicks": 384,
            "midi": 78,
            "name": "F#5",
            "ticks": 119232,
            "time": 108.3138885,
            "velocity": 0.3937007874015748
          },
          {
            "duration": 0.1744185000000016,
            "durationTicks": 192,
            "midi": 76,
            "name": "E5",
            "ticks": 119616,
            "time": 108.66272550000001,
            "velocity": 0.3937007874015748
          },
          {
            "duration": 0.5232554999999905,
            "durationTicks": 576,
            "midi": 79,
            "name": "G5",
            "ticks": 119808,
            "time": 108.83714400000001,
            "velocity": 0.3937007874015748
          },
          {
            "duration": 0.5232555000000048,
            "durationTicks": 576,
            "midi": 81,
            "name": "A5",
            "ticks": 120384,
            "time": 109.3603995,
            "velocity": 0.3937007874015748
          },
          {
            "duration": 0.6976739999999921,
            "durationTicks": 768,
            "midi": 83,
            "name": "B5",
            "ticks": 120960,
            "time": 109.883655,
            "velocity": 0.3937007874015748
          },
          {
            "duration": 0.3488370000000032,
            "durationTicks": 384,
            "midi": 84,
            "name": "C6",
            "ticks": 121728,
            "time": 110.581329,
            "velocity": 0.3937007874015748
          },
          {
            "duration": 0.5232555000000048,
            "durationTicks": 576,
            "midi": 81,
            "name": "A5",
            "ticks": 122112,
            "time": 110.930166,
            "velocity": 0.3937007874015748
          },
          {
            "duration": 0.5232555000000048,
            "durationTicks": 576,
            "midi": 79,
            "name": "G5",
            "ticks": 122688,
            "time": 111.4534215,
            "velocity": 0.3937007874015748
          },
          {
            "duration": 0.17441849999998738,
            "durationTicks": 192,
            "midi": 81,
            "name": "A5",
            "ticks": 123264,
            "time": 111.97667700000001,
            "velocity": 0.3937007874015748
          },
          {
            "duration": 0.1744185000000016,
            "durationTicks": 192,
            "midi": 83,
            "name": "B5",
            "ticks": 123456,
            "time": 112.1510955,
            "velocity": 0.3937007874015748
          },
          {
            "duration": 1.3953479999999985,
            "durationTicks": 1536,
            "midi": 83,
            "name": "B5",
            "ticks": 123648,
            "time": 112.325514,
            "velocity": 0.3937007874015748
          },
          {
            "duration": 0.3488370000000032,
            "durationTicks": 384,
            "midi": 84,
            "name": "C6",
            "ticks": 125184,
            "time": 113.720862,
            "velocity": 0.3937007874015748
          },
          {
            "duration": 0.1744185000000016,
            "durationTicks": 192,
            "midi": 81,
            "name": "A5",
            "ticks": 125568,
            "time": 114.069699,
            "velocity": 0.3937007874015748
          },
          {
            "duration": 0.1744185000000016,
            "durationTicks": 192,
            "midi": 83,
            "name": "B5",
            "ticks": 125760,
            "time": 114.2441175,
            "velocity": 0.3937007874015748
          },
          {
            "duration": 1.3953479999999985,
            "durationTicks": 1536,
            "midi": 83,
            "name": "B5",
            "ticks": 125952,
            "time": 114.418536,
            "velocity": 0.3937007874015748
          },
          {
            "duration": 0.1744185000000016,
            "durationTicks": 192,
            "midi": 79,
            "name": "G5",
            "ticks": 127488,
            "time": 115.813884,
            "velocity": 0.3937007874015748
          },
          {
            "duration": 0.1744185000000016,
            "durationTicks": 192,
            "midi": 78,
            "name": "F#5",
            "ticks": 127680,
            "time": 115.9883025,
            "velocity": 0.3937007874015748
          }
        ],
        "endOfTrackTicks": 127872
      },
      {
        "channel": 4,
        "controlChanges": {},
        "pitchBends": [],
        "instrument": {
          "family": "reed",
          "number": 64,
          "name": "soprano sax"
        },
        "name": "Saxophone",
        "notes": [
          {
            "duration": 0.43604625000000397,
            "durationTicks": 480,
            "midi": 64,
            "name": "E4",
            "ticks": 47232,
            "time": 42.906951,
            "velocity": 0.3937007874015748
          },
          {
            "duration": 0.2616277499999953,
            "durationTicks": 288,
            "midi": 66,
            "name": "F#4",
            "ticks": 47808,
            "time": 43.430206500000004,
            "velocity": 0.3937007874015748
          },
          {
            "duration": 0.0872092500000008,
            "durationTicks": 96,
            "midi": 64,
            "name": "E4",
            "ticks": 48192,
            "time": 43.7790435,
            "velocity": 0.3937007874015748
          },
          {
            "duration": 0.9593017500000016,
            "durationTicks": 1056,
            "midi": 67,
            "name": "G4",
            "ticks": 48384,
            "time": 43.953462,
            "velocity": 0.3937007874015748
          },
          {
            "duration": 0.9593017499999945,
            "durationTicks": 1056,
            "midi": 66,
            "name": "F#4",
            "ticks": 49536,
            "time": 44.999973000000004,
            "velocity": 0.3937007874015748
          },
          {
            "duration": 0.9593017500000016,
            "durationTicks": 1056,
            "midi": 64,
            "name": "E4",
            "ticks": 50688,
            "time": 46.046484,
            "velocity": 0.3937007874015748
          },
          {
            "duration": 0.43604624999999686,
            "durationTicks": 480,
            "midi": 64,
            "name": "E4",
            "ticks": 51840,
            "time": 47.092995,
            "velocity": 0.3937007874015748
          },
          {
            "duration": 0.2616277500000024,
            "durationTicks": 288,
            "midi": 66,
            "name": "F#4",
            "ticks": 52416,
            "time": 47.6162505,
            "velocity": 0.3937007874015748
          },
          {
            "duration": 0.0872092500000008,
            "durationTicks": 96,
            "midi": 64,
            "name": "E4",
            "ticks": 52800,
            "time": 47.9650875,
            "velocity": 0.3937007874015748
          },
          {
            "duration": 0.43604624999999686,
            "durationTicks": 480,
            "midi": 67,
            "name": "G4",
            "ticks": 52992,
            "time": 48.139506000000004,
            "velocity": 0.3937007874015748
          },
          {
            "duration": 0.43604624999999686,
            "durationTicks": 480,
            "midi": 69,
            "name": "A4",
            "ticks": 53568,
            "time": 48.6627615,
            "velocity": 0.3937007874015748
          },
          {
            "duration": 0.9593017500000016,
            "durationTicks": 1056,
            "midi": 67,
            "name": "G4",
            "ticks": 54144,
            "time": 49.186017,
            "velocity": 0.3937007874015748
          },
          {
            "duration": 0.9593017500000016,
            "durationTicks": 1056,
            "midi": 66,
            "name": "F#4",
            "ticks": 55296,
            "time": 50.232528,
            "velocity": 0.3937007874015748
          },
          {
            "duration": 0.43604624999999686,
            "durationTicks": 480,
            "midi": 64,
            "name": "E4",
            "ticks": 56448,
            "time": 51.279039000000004,
            "velocity": 0.3937007874015748
          },
          {
            "duration": 0.2616277500000024,
            "durationTicks": 288,
            "midi": 66,
            "name": "F#4",
            "ticks": 57024,
            "time": 51.8022945,
            "velocity": 0.3937007874015748
          },
          {
            "duration": 0.0872092500000008,
            "durationTicks": 96,
            "midi": 64,
            "name": "E4",
            "ticks": 57408,
            "time": 52.1511315,
            "velocity": 0.3937007874015748
          },
          {
            "duration": 0.43604625000000397,
            "durationTicks": 480,
            "midi": 67,
            "name": "G4",
            "ticks": 57600,
            "time": 52.32555,
            "velocity": 0.3937007874015748
          },
          {
            "duration": 0.43604624999999686,
            "durationTicks": 480,
            "midi": 69,
            "name": "A4",
            "ticks": 58176,
            "time": 52.848805500000005,
            "velocity": 0.3937007874015748
          },
          {
            "duration": 0.6104647499999984,
            "durationTicks": 672,
            "midi": 71,
            "name": "B4",
            "ticks": 58752,
            "time": 53.372061,
            "velocity": 0.3937007874015748
          },
          {
            "duration": 0.2616277500000024,
            "durationTicks": 288,
            "midi": 72,
            "name": "C5",
            "ticks": 59520,
            "time": 54.069735,
            "velocity": 0.3937007874015748
          },
          {
            "duration": 0.43604624999999686,
            "durationTicks": 480,
            "midi": 69,
            "name": "A4",
            "ticks": 59904,
            "time": 54.418572000000005,
            "velocity": 0.3937007874015748
          },
          {
            "duration": 0.43604624999999686,
            "durationTicks": 480,
            "midi": 67,
            "name": "G4",
            "ticks": 60480,
            "time": 54.9418275,
            "velocity": 0.3937007874015748
          },
          {
            "duration": 0.0872092500000008,
            "durationTicks": 96,
            "midi": 69,
            "name": "A4",
            "ticks": 61056,
            "time": 55.465083,
            "velocity": 0.3937007874015748
          },
          {
            "duration": 0.0872092500000008,
            "durationTicks": 96,
            "midi": 71,
            "name": "B4",
            "ticks": 61248,
            "time": 55.6395015,
            "velocity": 0.3937007874015748
          },
          {
            "duration": 1.3081387499999977,
            "durationTicks": 1440,
            "midi": 71,
            "name": "B4",
            "ticks": 61440,
            "time": 55.81392,
            "velocity": 0.3937007874015748
          },
          {
            "duration": 0.2616277500000024,
            "durationTicks": 288,
            "midi": 72,
            "name": "C5",
            "ticks": 62976,
            "time": 57.209268,
            "velocity": 0.3937007874015748
          },
          {
            "duration": 0.08720924999999369,
            "durationTicks": 96,
            "midi": 69,
            "name": "A4",
            "ticks": 63360,
            "time": 57.558105000000005,
            "velocity": 0.3937007874015748
          },
          {
            "duration": 0.0872092500000008,
            "durationTicks": 96,
            "midi": 71,
            "name": "B4",
            "ticks": 63552,
            "time": 57.7325235,
            "velocity": 0.3937007874015748
          },
          {
            "duration": 1.3081387499999977,
            "durationTicks": 1440,
            "midi": 71,
            "name": "B4",
            "ticks": 63744,
            "time": 57.906942,
            "velocity": 0.3937007874015748
          },
          {
            "duration": 0.0872092500000008,
            "durationTicks": 96,
            "midi": 67,
            "name": "G4",
            "ticks": 65280,
            "time": 59.30229,
            "velocity": 0.3937007874015748
          },
          {
            "duration": 0.0872092500000008,
            "durationTicks": 96,
            "midi": 66,
            "name": "F#4",
            "ticks": 65472,
            "time": 59.4767085,
            "velocity": 0.3937007874015748
          },
          {
            "duration": 0.43604624999998975,
            "durationTicks": 480,
            "midi": 64,
            "name": "E4",
            "ticks": 109440,
            "time": 99.41854500000001,
            "velocity": 0.3937007874015748
          },
          {
            "duration": 0.2616277500000024,
            "durationTicks": 288,
            "midi": 66,
            "name": "F#4",
            "ticks": 110016,
            "time": 99.9418005,
            "velocity": 0.3937007874015748
          },
          {
            "duration": 0.0872092500000008,
            "durationTicks": 96,
            "midi": 64,
            "name": "E4",
            "ticks": 110400,
            "time": 100.2906375,
            "velocity": 0.3937007874015748
          },
          {
            "duration": 0.9593017499999945,
            "durationTicks": 1056,
            "midi": 67,
            "name": "G4",
            "ticks": 110592,
            "time": 100.465056,
            "velocity": 0.3937007874015748
          },
          {
            "duration": 0.9593017500000087,
            "durationTicks": 1056,
            "midi": 66,
            "name": "F#4",
            "ticks": 111744,
            "time": 101.511567,
            "velocity": 0.3937007874015748
          },
          {
            "duration": 0.9593017499999945,
            "durationTicks": 1056,
            "midi": 64,
            "name": "E4",
            "ticks": 112896,
            "time": 102.55807800000001,
            "velocity": 0.3937007874015748
          },
          {
            "duration": 0.43604625000000397,
            "durationTicks": 480,
            "midi": 64,
            "name": "E4",
            "ticks": 114048,
            "time": 103.604589,
            "velocity": 0.3937007874015748
          },
          {
            "duration": 0.26162774999998817,
            "durationTicks": 288,
            "midi": 66,
            "name": "F#4",
            "ticks": 114624,
            "time": 104.12784450000001,
            "velocity": 0.3937007874015748
          },
          {
            "duration": 0.0872092500000008,
            "durationTicks": 96,
            "midi": 64,
            "name": "E4",
            "ticks": 115008,
            "time": 104.4766815,
            "velocity": 0.3937007874015748
          },
          {
            "duration": 0.43604625000000397,
            "durationTicks": 480,
            "midi": 67,
            "name": "G4",
            "ticks": 115200,
            "time": 104.6511,
            "velocity": 0.3937007874015748
          },
          {
            "duration": 0.43604625000000397,
            "durationTicks": 480,
            "midi": 69,
            "name": "A4",
            "ticks": 115776,
            "time": 105.1743555,
            "velocity": 0.3937007874015748
          },
          {
            "duration": 0.9593017499999945,
            "durationTicks": 1056,
            "midi": 67,
            "name": "G4",
            "ticks": 116352,
            "time": 105.69761100000001,
            "velocity": 0.3937007874015748
          },
          {
            "duration": 0.9593017499999945,
            "durationTicks": 1056,
            "midi": 66,
            "name": "F#4",
            "ticks": 117504,
            "time": 106.744122,
            "velocity": 0.3937007874015748
          },
          {
            "duration": 0.43604625000000397,
            "durationTicks": 480,
            "midi": 64,
            "name": "E4",
            "ticks": 118656,
            "time": 107.790633,
            "velocity": 0.3937007874015748
          },
          {
            "duration": 0.2616277500000024,
            "durationTicks": 288,
            "midi": 66,
            "name": "F#4",
            "ticks": 119232,
            "time": 108.3138885,
            "velocity": 0.3937007874015748
          },
          {
            "duration": 0.0872092500000008,
            "durationTicks": 96,
            "midi": 64,
            "name": "E4",
            "ticks": 119616,
            "time": 108.66272550000001,
            "velocity": 0.3937007874015748
          },
          {
            "duration": 0.43604624999998975,
            "durationTicks": 480,
            "midi": 67,
            "name": "G4",
            "ticks": 119808,
            "time": 108.83714400000001,
            "velocity": 0.3937007874015748
          },
          {
            "duration": 0.43604625000000397,
            "durationTicks": 480,
            "midi": 69,
            "name": "A4",
            "ticks": 120384,
            "time": 109.3603995,
            "velocity": 0.3937007874015748
          },
          {
            "duration": 0.6104647499999913,
            "durationTicks": 672,
            "midi": 71,
            "name": "B4",
            "ticks": 120960,
            "time": 109.883655,
            "velocity": 0.3937007874015748
          },
          {
            "duration": 0.2616277500000024,
            "durationTicks": 288,
            "midi": 72,
            "name": "C5",
            "ticks": 121728,
            "time": 110.581329,
            "velocity": 0.3937007874015748
          },
          {
            "duration": 0.43604625000000397,
            "durationTicks": 480,
            "midi": 69,
            "name": "A4",
            "ticks": 122112,
            "time": 110.930166,
            "velocity": 0.3937007874015748
          },
          {
            "duration": 0.43604625000000397,
            "durationTicks": 480,
            "midi": 67,
            "name": "G4",
            "ticks": 122688,
            "time": 111.4534215,
            "velocity": 0.3937007874015748
          },
          {
            "duration": 0.08720924999998658,
            "durationTicks": 96,
            "midi": 69,
            "name": "A4",
            "ticks": 123264,
            "time": 111.97667700000001,
            "velocity": 0.3937007874015748
          },
          {
            "duration": 0.0872092500000008,
            "durationTicks": 96,
            "midi": 71,
            "name": "B4",
            "ticks": 123456,
            "time": 112.1510955,
            "velocity": 0.3937007874015748
          },
          {
            "duration": 1.3081387499999977,
            "durationTicks": 1440,
            "midi": 71,
            "name": "B4",
            "ticks": 123648,
            "time": 112.325514,
            "velocity": 0.3937007874015748
          },
          {
            "duration": 0.2616277500000024,
            "durationTicks": 288,
            "midi": 72,
            "name": "C5",
            "ticks": 125184,
            "time": 113.720862,
            "velocity": 0.3937007874015748
          },
          {
            "duration": 0.0872092500000008,
            "durationTicks": 96,
            "midi": 69,
            "name": "A4",
            "ticks": 125568,
            "time": 114.069699,
            "velocity": 0.3937007874015748
          },
          {
            "duration": 0.0872092500000008,
            "durationTicks": 96,
            "midi": 71,
            "name": "B4",
            "ticks": 125760,
            "time": 114.2441175,
            "velocity": 0.3937007874015748
          },
          {
            "duration": 1.3081387499999977,
            "durationTicks": 1440,
            "midi": 71,
            "name": "B4",
            "ticks": 125952,
            "time": 114.418536,
            "velocity": 0.3937007874015748
          },
          {
            "duration": 0.0872092500000008,
            "durationTicks": 96,
            "midi": 67,
            "name": "G4",
            "ticks": 127488,
            "time": 115.813884,
            "velocity": 0.3937007874015748
          },
          {
            "duration": 0.0872092500000008,
            "durationTicks": 96,
            "midi": 66,
            "name": "F#4",
            "ticks": 127680,
            "time": 115.9883025,
            "velocity": 0.3937007874015748
          }
        ],
        "endOfTrackTicks": 127776
      },
      {
        "channel": 5,
        "controlChanges": {},
        "pitchBends": [],
        "instrument": {
          "family": "piano",
          "number": 0,
          "name": "acoustic grand piano"
        },
        "name": "Grand Piano",
        "notes": [
          {
            "duration": 0.5232555000000048,
            "durationTicks": 576,
            "midi": 40,
            "name": "E2",
            "ticks": 47232,
            "time": 42.906951,
            "velocity": 0.09448818897637795
          },
          {
            "duration": 0.5232555000000048,
            "durationTicks": 576,
            "midi": 35,
            "name": "B1",
            "ticks": 47232,
            "time": 42.906951,
            "velocity": 0.09448818897637795
          },
          {
            "duration": 0.5232555000000048,
            "durationTicks": 576,
            "midi": 28,
            "name": "E1",
            "ticks": 47232,
            "time": 42.906951,
            "velocity": 0.09448818897637795
          },
          {
            "duration": 0.5232554999999977,
            "durationTicks": 576,
            "midi": 28,
            "name": "E1",
            "ticks": 47808,
            "time": 43.430206500000004,
            "velocity": 0.09448818897637795
          },
          {
            "duration": 0.5232554999999977,
            "durationTicks": 576,
            "midi": 40,
            "name": "E2",
            "ticks": 47808,
            "time": 43.430206500000004,
            "velocity": 0.09448818897637795
          },
          {
            "duration": 0.5232554999999977,
            "durationTicks": 576,
            "midi": 35,
            "name": "B1",
            "ticks": 47808,
            "time": 43.430206500000004,
            "velocity": 0.09448818897637795
          },
          {
            "duration": 0.34883699999999607,
            "durationTicks": 384,
            "midi": 40,
            "name": "E2",
            "ticks": 48384,
            "time": 43.953462,
            "velocity": 0.09448818897637795
          },
          {
            "duration": 0.34883699999999607,
            "durationTicks": 384,
            "midi": 35,
            "name": "B1",
            "ticks": 48384,
            "time": 43.953462,
            "velocity": 0.09448818897637795
          },
          {
            "duration": 0.34883699999999607,
            "durationTicks": 384,
            "midi": 28,
            "name": "E1",
            "ticks": 48384,
            "time": 43.953462,
            "velocity": 0.09448818897637795
          },
          {
            "duration": 0.3488370000000032,
            "durationTicks": 384,
            "midi": 35,
            "name": "B1",
            "ticks": 48768,
            "time": 44.302299,
            "velocity": 0.09448818897637795
          },
          {
            "duration": 0.3488370000000032,
            "durationTicks": 384,
            "midi": 28,
            "name": "E1",
            "ticks": 48768,
            "time": 44.302299,
            "velocity": 0.09448818897637795
          },
          {
            "duration": 0.3488370000000032,
            "durationTicks": 384,
            "midi": 40,
            "name": "E2",
            "ticks": 48768,
            "time": 44.302299,
            "velocity": 0.09448818897637795
          },
          {
            "duration": 0.3488370000000032,
            "durationTicks": 384,
            "midi": 35,
            "name": "B1",
            "ticks": 49152,
            "time": 44.651136,
            "velocity": 0.09448818897637795
          },
          {
            "duration": 0.3488370000000032,
            "durationTicks": 384,
            "midi": 28,
            "name": "E1",
            "ticks": 49152,
            "time": 44.651136,
            "velocity": 0.09448818897637795
          },
          {
            "duration": 0.3488370000000032,
            "durationTicks": 384,
            "midi": 40,
            "name": "E2",
            "ticks": 49152,
            "time": 44.651136,
            "velocity": 0.09448818897637795
          },
          {
            "duration": 0.5232554999999977,
            "durationTicks": 576,
            "midi": 24,
            "name": "C1",
            "ticks": 49536,
            "time": 44.999973000000004,
            "velocity": 0.09448818897637795
          },
          {
            "duration": 0.5232554999999977,
            "durationTicks": 576,
            "midi": 36,
            "name": "C2",
            "ticks": 49536,
            "time": 44.999973000000004,
            "velocity": 0.09448818897637795
          },
          {
            "duration": 0.5232554999999977,
            "durationTicks": 576,
            "midi": 31,
            "name": "G1",
            "ticks": 49536,
            "time": 44.999973000000004,
            "velocity": 0.09448818897637795
          },
          {
            "duration": 0.5232554999999977,
            "durationTicks": 576,
            "midi": 24,
            "name": "C1",
            "ticks": 50112,
            "time": 45.5232285,
            "velocity": 0.09448818897637795
          },
          {
            "duration": 0.5232554999999977,
            "durationTicks": 576,
            "midi": 31,
            "name": "G1",
            "ticks": 50112,
            "time": 45.5232285,
            "velocity": 0.09448818897637795
          },
          {
            "duration": 0.5232554999999977,
            "durationTicks": 576,
            "midi": 36,
            "name": "C2",
            "ticks": 50112,
            "time": 45.5232285,
            "velocity": 0.09448818897637795
          },
          {
            "duration": 0.3488370000000032,
            "durationTicks": 384,
            "midi": 36,
            "name": "C2",
            "ticks": 50688,
            "time": 46.046484,
            "velocity": 0.09448818897637795
          },
          {
            "duration": 0.3488370000000032,
            "durationTicks": 384,
            "midi": 31,
            "name": "G1",
            "ticks": 50688,
            "time": 46.046484,
            "velocity": 0.09448818897637795
          },
          {
            "duration": 0.3488370000000032,
            "durationTicks": 384,
            "midi": 24,
            "name": "C1",
            "ticks": 50688,
            "time": 46.046484,
            "velocity": 0.09448818897637795
          },
          {
            "duration": 0.34883699999999607,
            "durationTicks": 384,
            "midi": 36,
            "name": "C2",
            "ticks": 51072,
            "time": 46.395321,
            "velocity": 0.09448818897637795
          },
          {
            "duration": 0.34883699999999607,
            "durationTicks": 384,
            "midi": 31,
            "name": "G1",
            "ticks": 51072,
            "time": 46.395321,
            "velocity": 0.09448818897637795
          },
          {
            "duration": 0.34883699999999607,
            "durationTicks": 384,
            "midi": 24,
            "name": "C1",
            "ticks": 51072,
            "time": 46.395321,
            "velocity": 0.09448818897637795
          },
          {
            "duration": 0.3488370000000032,
            "durationTicks": 384,
            "midi": 36,
            "name": "C2",
            "ticks": 51456,
            "time": 46.744158,
            "velocity": 0.09448818897637795
          },
          {
            "duration": 0.3488370000000032,
            "durationTicks": 384,
            "midi": 31,
            "name": "G1",
            "ticks": 51456,
            "time": 46.744158,
            "velocity": 0.09448818897637795
          },
          {
            "duration": 0.3488370000000032,
            "durationTicks": 384,
            "midi": 24,
            "name": "C1",
            "ticks": 51456,
            "time": 46.744158,
            "velocity": 0.09448818897637795
          },
          {
            "duration": 0.5232554999999977,
            "durationTicks": 576,
            "midi": 24,
            "name": "C1",
            "ticks": 51840,
            "time": 47.092995,
            "velocity": 0.09448818897637795
          },
          {
            "duration": 0.5232554999999977,
            "durationTicks": 576,
            "midi": 33,
            "name": "A1",
            "ticks": 51840,
            "time": 47.092995,
            "velocity": 0.09448818897637795
          },
          {
            "duration": 0.5232555000000048,
            "durationTicks": 576,
            "midi": 24,
            "name": "C1",
            "ticks": 52416,
            "time": 47.6162505,
            "velocity": 0.09448818897637795
          },
          {
            "duration": 0.5232555000000048,
            "durationTicks": 576,
            "midi": 33,
            "name": "A1",
            "ticks": 52416,
            "time": 47.6162505,
            "velocity": 0.09448818897637795
          },
          {
            "duration": 0.34883699999999607,
            "durationTicks": 384,
            "midi": 24,
            "name": "C1",
            "ticks": 52992,
            "time": 48.139506000000004,
            "velocity": 0.09448818897637795
          },
          {
            "duration": 0.34883699999999607,
            "durationTicks": 384,
            "midi": 33,
            "name": "A1",
            "ticks": 52992,
            "time": 48.139506000000004,
            "velocity": 0.09448818897637795
          },
          {
            "duration": 0.3488370000000032,
            "durationTicks": 384,
            "midi": 33,
            "name": "A1",
            "ticks": 53376,
            "time": 48.488343,
            "velocity": 0.09448818897637795
          },
          {
            "duration": 0.3488370000000032,
            "durationTicks": 384,
            "midi": 24,
            "name": "C1",
            "ticks": 53376,
            "time": 48.488343,
            "velocity": 0.09448818897637795
          },
          {
            "duration": 0.34883699999999607,
            "durationTicks": 384,
            "midi": 24,
            "name": "C1",
            "ticks": 53760,
            "time": 48.837180000000004,
            "velocity": 0.09448818897637795
          },
          {
            "duration": 0.34883699999999607,
            "durationTicks": 384,
            "midi": 33,
            "name": "A1",
            "ticks": 53760,
            "time": 48.837180000000004,
            "velocity": 0.09448818897637795
          },
          {
            "duration": 0.5232555000000048,
            "durationTicks": 576,
            "midi": 24,
            "name": "C1",
            "ticks": 54144,
            "time": 49.186017,
            "velocity": 0.09448818897637795
          },
          {
            "duration": 0.5232555000000048,
            "durationTicks": 576,
            "midi": 35,
            "name": "B1",
            "ticks": 54144,
            "time": 49.186017,
            "velocity": 0.09448818897637795
          },
          {
            "duration": 0.5232554999999977,
            "durationTicks": 576,
            "midi": 24,
            "name": "C1",
            "ticks": 54720,
            "time": 49.709272500000004,
            "velocity": 0.09448818897637795
          },
          {
            "duration": 0.5232554999999977,
            "durationTicks": 576,
            "midi": 35,
            "name": "B1",
            "ticks": 54720,
            "time": 49.709272500000004,
            "velocity": 0.09448818897637795
          },
          {
            "duration": 0.5232554999999977,
            "durationTicks": 576,
            "midi": 35,
            "name": "B1",
            "ticks": 55296,
            "time": 50.232528,
            "velocity": 0.09448818897637795
          },
          {
            "duration": 0.5232554999999977,
            "durationTicks": 576,
            "midi": 40,
            "name": "E2",
            "ticks": 55296,
            "time": 50.232528,
            "velocity": 0.09448818897637795
          },
          {
            "duration": 0.5232554999999977,
            "durationTicks": 576,
            "midi": 24,
            "name": "C1",
            "ticks": 55296,
            "time": 50.232528,
            "velocity": 0.09448818897637795
          },
          {
            "duration": 0.5232555000000048,
            "durationTicks": 576,
            "midi": 24,
            "name": "C1",
            "ticks": 55872,
            "time": 50.7557835,
            "velocity": 0.09448818897637795
          },
          {
            "duration": 0.5232555000000048,
            "durationTicks": 576,
            "midi": 35,
            "name": "B1",
            "ticks": 55872,
            "time": 50.7557835,
            "velocity": 0.09448818897637795
          },
          {
            "duration": 0.5232555000000048,
            "durationTicks": 576,
            "midi": 40,
            "name": "E2",
            "ticks": 55872,
            "time": 50.7557835,
            "velocity": 0.09448818897637795
          },
          {
            "duration": 0.34883699999999607,
            "durationTicks": 384,
            "midi": 40,
            "name": "E2",
            "ticks": 56448,
            "time": 51.279039000000004,
            "velocity": 0.09448818897637795
          },
          {
            "duration": 0.34883699999999607,
            "durationTicks": 384,
            "midi": 24,
            "name": "C1",
            "ticks": 56448,
            "time": 51.279039000000004,
            "velocity": 0.09448818897637795
          },
          {
            "duration": 0.34883699999999607,
            "durationTicks": 384,
            "midi": 35,
            "name": "B1",
            "ticks": 56448,
            "time": 51.279039000000004,
            "velocity": 0.09448818897637795
          },
          {
            "duration": 0.3488370000000032,
            "durationTicks": 384,
            "midi": 35,
            "name": "B1",
            "ticks": 56832,
            "time": 51.627876,
            "velocity": 0.09448818897637795
          },
          {
            "duration": 0.3488370000000032,
            "durationTicks": 384,
            "midi": 24,
            "name": "C1",
            "ticks": 56832,
            "time": 51.627876,
            "velocity": 0.09448818897637795
          },
          {
            "duration": 0.3488370000000032,
            "durationTicks": 384,
            "midi": 40,
            "name": "E2",
            "ticks": 56832,
            "time": 51.627876,
            "velocity": 0.09448818897637795
          },
          {
            "duration": 0.34883699999999607,
            "durationTicks": 384,
            "midi": 35,
            "name": "B1",
            "ticks": 57216,
            "time": 51.976713000000004,
            "velocity": 0.09448818897637795
          },
          {
            "duration": 0.34883699999999607,
            "durationTicks": 384,
            "midi": 40,
            "name": "E2",
            "ticks": 57216,
            "time": 51.976713000000004,
            "velocity": 0.09448818897637795
          },
          {
            "duration": 0.34883699999999607,
            "durationTicks": 384,
            "midi": 24,
            "name": "C1",
            "ticks": 57216,
            "time": 51.976713000000004,
            "velocity": 0.09448818897637795
          },
          {
            "duration": 0.5232555000000048,
            "durationTicks": 576,
            "midi": 25,
            "name": "C#1",
            "ticks": 57600,
            "time": 52.32555,
            "velocity": 0.09448818897637795
          },
          {
            "duration": 0.5232555000000048,
            "durationTicks": 576,
            "midi": 39,
            "name": "D#2",
            "ticks": 57600,
            "time": 52.32555,
            "velocity": 0.09448818897637795
          },
          {
            "duration": 0.5232555000000048,
            "durationTicks": 576,
            "midi": 36,
            "name": "C2",
            "ticks": 57600,
            "time": 52.32555,
            "velocity": 0.09448818897637795
          },
          {
            "duration": 0.5232554999999977,
            "durationTicks": 576,
            "midi": 39,
            "name": "D#2",
            "ticks": 58176,
            "time": 52.848805500000005,
            "velocity": 0.09448818897637795
          },
          {
            "duration": 0.5232554999999977,
            "durationTicks": 576,
            "midi": 25,
            "name": "C#1",
            "ticks": 58176,
            "time": 52.848805500000005,
            "velocity": 0.09448818897637795
          },
          {
            "duration": 0.5232554999999977,
            "durationTicks": 576,
            "midi": 36,
            "name": "C2",
            "ticks": 58176,
            "time": 52.848805500000005,
            "velocity": 0.09448818897637795
          },
          {
            "duration": 0.34883699999999607,
            "durationTicks": 384,
            "midi": 25,
            "name": "C#1",
            "ticks": 58752,
            "time": 53.372061,
            "velocity": 0.09448818897637795
          },
          {
            "duration": 0.34883699999999607,
            "durationTicks": 384,
            "midi": 39,
            "name": "D#2",
            "ticks": 58752,
            "time": 53.372061,
            "velocity": 0.09448818897637795
          },
          {
            "duration": 0.34883699999999607,
            "durationTicks": 384,
            "midi": 36,
            "name": "C2",
            "ticks": 58752,
            "time": 53.372061,
            "velocity": 0.09448818897637795
          },
          {
            "duration": 0.3488370000000032,
            "durationTicks": 384,
            "midi": 39,
            "name": "D#2",
            "ticks": 59136,
            "time": 53.720898,
            "velocity": 0.09448818897637795
          },
          {
            "duration": 0.3488370000000032,
            "durationTicks": 384,
            "midi": 36,
            "name": "C2",
            "ticks": 59136,
            "time": 53.720898,
            "velocity": 0.09448818897637795
          },
          {
            "duration": 0.3488370000000032,
            "durationTicks": 384,
            "midi": 25,
            "name": "C#1",
            "ticks": 59136,
            "time": 53.720898,
            "velocity": 0.09448818897637795
          },
          {
            "duration": 0.3488370000000032,
            "durationTicks": 384,
            "midi": 36,
            "name": "C2",
            "ticks": 59520,
            "time": 54.069735,
            "velocity": 0.09448818897637795
          },
          {
            "duration": 0.3488370000000032,
            "durationTicks": 384,
            "midi": 25,
            "name": "C#1",
            "ticks": 59520,
            "time": 54.069735,
            "velocity": 0.09448818897637795
          },
          {
            "duration": 0.3488370000000032,
            "durationTicks": 384,
            "midi": 39,
            "name": "D#2",
            "ticks": 59520,
            "time": 54.069735,
            "velocity": 0.09448818897637795
          },
          {
            "duration": 0.5232554999999977,
            "durationTicks": 576,
            "midi": 35,
            "name": "B1",
            "ticks": 59904,
            "time": 54.418572000000005,
            "velocity": 0.09448818897637795
          },
          {
            "duration": 0.5232554999999977,
            "durationTicks": 576,
            "midi": 24,
            "name": "C1",
            "ticks": 59904,
            "time": 54.418572000000005,
            "velocity": 0.09448818897637795
          },
          {
            "duration": 0.5232554999999977,
            "durationTicks": 576,
            "midi": 38,
            "name": "D2",
            "ticks": 59904,
            "time": 54.418572000000005,
            "velocity": 0.09448818897637795
          },
          {
            "duration": 0.5232554999999977,
            "durationTicks": 576,
            "midi": 38,
            "name": "D2",
            "ticks": 60480,
            "time": 54.9418275,
            "velocity": 0.09448818897637795
          },
          {
            "duration": 0.5232554999999977,
            "durationTicks": 576,
            "midi": 35,
            "name": "B1",
            "ticks": 60480,
            "time": 54.9418275,
            "velocity": 0.09448818897637795
          },
          {
            "duration": 0.5232554999999977,
            "durationTicks": 576,
            "midi": 24,
            "name": "C1",
            "ticks": 60480,
            "time": 54.9418275,
            "velocity": 0.09448818897637795
          },
          {
            "duration": 0.3488370000000032,
            "durationTicks": 384,
            "midi": 38,
            "name": "D2",
            "ticks": 61056,
            "time": 55.465083,
            "velocity": 0.09448818897637795
          },
          {
            "duration": 0.3488370000000032,
            "durationTicks": 384,
            "midi": 35,
            "name": "B1",
            "ticks": 61056,
            "time": 55.465083,
            "velocity": 0.09448818897637795
          },
          {
            "duration": 0.3488370000000032,
            "durationTicks": 384,
            "midi": 24,
            "name": "C1",
            "ticks": 61056,
            "time": 55.465083,
            "velocity": 0.09448818897637795
          },
          {
            "duration": 0.34883699999999607,
            "durationTicks": 384,
            "midi": 24,
            "name": "C1",
            "ticks": 61440,
            "time": 55.81392,
            "velocity": 0.09448818897637795
          },
          {
            "duration": 0.34883699999999607,
            "durationTicks": 384,
            "midi": 35,
            "name": "B1",
            "ticks": 61440,
            "time": 55.81392,
            "velocity": 0.09448818897637795
          },
          {
            "duration": 0.34883699999999607,
            "durationTicks": 384,
            "midi": 38,
            "name": "D2",
            "ticks": 61440,
            "time": 55.81392,
            "velocity": 0.09448818897637795
          },
          {
            "duration": 0.3488370000000032,
            "durationTicks": 384,
            "midi": 35,
            "name": "B1",
            "ticks": 61824,
            "time": 56.162757,
            "velocity": 0.09448818897637795
          },
          {
            "duration": 0.3488370000000032,
            "durationTicks": 384,
            "midi": 38,
            "name": "D2",
            "ticks": 61824,
            "time": 56.162757,
            "velocity": 0.09448818897637795
          },
          {
            "duration": 0.3488370000000032,
            "durationTicks": 384,
            "midi": 24,
            "name": "C1",
            "ticks": 61824,
            "time": 56.162757,
            "velocity": 0.09448818897637795
          },
          {
            "duration": 0.5232554999999977,
            "durationTicks": 576,
            "midi": 35,
            "name": "B1",
            "ticks": 62208,
            "time": 56.511594,
            "velocity": 0.09448818897637795
          },
          {
            "duration": 0.5232554999999977,
            "durationTicks": 576,
            "midi": 28,
            "name": "E1",
            "ticks": 62208,
            "time": 56.511594,
            "velocity": 0.09448818897637795
          },
          {
            "duration": 0.5232554999999977,
            "durationTicks": 576,
            "midi": 40,
            "name": "E2",
            "ticks": 62208,
            "time": 56.511594,
            "velocity": 0.09448818897637795
          },
          {
            "duration": 0.5232555000000048,
            "durationTicks": 576,
            "midi": 28,
            "name": "E1",
            "ticks": 62784,
            "time": 57.0348495,
            "velocity": 0.09448818897637795
          },
          {
            "duration": 0.5232555000000048,
            "durationTicks": 576,
            "midi": 40,
            "name": "E2",
            "ticks": 62784,
            "time": 57.0348495,
            "velocity": 0.09448818897637795
          },
          {
            "duration": 0.5232555000000048,
            "durationTicks": 576,
            "midi": 35,
            "name": "B1",
            "ticks": 62784,
            "time": 57.0348495,
            "velocity": 0.09448818897637795
          },
          {
            "duration": 0.34883699999999607,
            "durationTicks": 384,
            "midi": 28,
            "name": "E1",
            "ticks": 63360,
            "time": 57.558105000000005,
            "velocity": 0.09448818897637795
          },
          {
            "duration": 0.34883699999999607,
            "durationTicks": 384,
            "midi": 40,
            "name": "E2",
            "ticks": 63360,
            "time": 57.558105000000005,
            "velocity": 0.09448818897637795
          },
          {
            "duration": 0.34883699999999607,
            "durationTicks": 384,
            "midi": 35,
            "name": "B1",
            "ticks": 63360,
            "time": 57.558105000000005,
            "velocity": 0.09448818897637795
          },
          {
            "duration": 0.3488370000000032,
            "durationTicks": 384,
            "midi": 40,
            "name": "E2",
            "ticks": 63744,
            "time": 57.906942,
            "velocity": 0.09448818897637795
          },
          {
            "duration": 0.3488370000000032,
            "durationTicks": 384,
            "midi": 35,
            "name": "B1",
            "ticks": 63744,
            "time": 57.906942,
            "velocity": 0.09448818897637795
          },
          {
            "duration": 0.3488370000000032,
            "durationTicks": 384,
            "midi": 28,
            "name": "E1",
            "ticks": 63744,
            "time": 57.906942,
            "velocity": 0.09448818897637795
          },
          {
            "duration": 0.34883699999999607,
            "durationTicks": 384,
            "midi": 28,
            "name": "E1",
            "ticks": 64128,
            "time": 58.255779000000004,
            "velocity": 0.09448818897637795
          },
          {
            "duration": 0.34883699999999607,
            "durationTicks": 384,
            "midi": 35,
            "name": "B1",
            "ticks": 64128,
            "time": 58.255779000000004,
            "velocity": 0.09448818897637795
          },
          {
            "duration": 0.34883699999999607,
            "durationTicks": 384,
            "midi": 40,
            "name": "E2",
            "ticks": 64128,
            "time": 58.255779000000004,
            "velocity": 0.09448818897637795
          },
          {
            "duration": 0.5232555000000048,
            "durationTicks": 576,
            "midi": 36,
            "name": "C2",
            "ticks": 64512,
            "time": 58.604616,
            "velocity": 0.09448818897637795
          },
          {
            "duration": 0.5232555000000048,
            "durationTicks": 576,
            "midi": 31,
            "name": "G1",
            "ticks": 64512,
            "time": 58.604616,
            "velocity": 0.09448818897637795
          },
          {
            "duration": 0.5232555000000048,
            "durationTicks": 576,
            "midi": 24,
            "name": "C1",
            "ticks": 64512,
            "time": 58.604616,
            "velocity": 0.09448818897637795
          },
          {
            "duration": 0.5232554999999977,
            "durationTicks": 576,
            "midi": 24,
            "name": "C1",
            "ticks": 65088,
            "time": 59.127871500000005,
            "velocity": 0.09448818897637795
          },
          {
            "duration": 0.5232554999999977,
            "durationTicks": 576,
            "midi": 31,
            "name": "G1",
            "ticks": 65088,
            "time": 59.127871500000005,
            "velocity": 0.09448818897637795
          },
          {
            "duration": 0.5232554999999977,
            "durationTicks": 576,
            "midi": 36,
            "name": "C2",
            "ticks": 65088,
            "time": 59.127871500000005,
            "velocity": 0.09448818897637795
          },
          {
            "duration": 0.34883699999999607,
            "durationTicks": 384,
            "midi": 36,
            "name": "C2",
            "ticks": 65664,
            "time": 59.651127,
            "velocity": 0.09448818897637795
          },
          {
            "duration": 0.34883699999999607,
            "durationTicks": 384,
            "midi": 31,
            "name": "G1",
            "ticks": 65664,
            "time": 59.651127,
            "velocity": 0.09448818897637795
          },
          {
            "duration": 0.34883699999999607,
            "durationTicks": 384,
            "midi": 24,
            "name": "C1",
            "ticks": 65664,
            "time": 59.651127,
            "velocity": 0.09448818897637795
          },
          {
            "duration": 0.3488370000000032,
            "durationTicks": 384,
            "midi": 36,
            "name": "C2",
            "ticks": 66048,
            "time": 59.999964,
            "velocity": 0.09448818897637795
          },
          {
            "duration": 0.3488370000000032,
            "durationTicks": 384,
            "midi": 24,
            "name": "C1",
            "ticks": 66048,
            "time": 59.999964,
            "velocity": 0.09448818897637795
          },
          {
            "duration": 0.3488370000000032,
            "durationTicks": 384,
            "midi": 31,
            "name": "G1",
            "ticks": 66048,
            "time": 59.999964,
            "velocity": 0.09448818897637795
          },
          {
            "duration": 0.3488370000000032,
            "durationTicks": 384,
            "midi": 36,
            "name": "C2",
            "ticks": 66432,
            "time": 60.348801,
            "velocity": 0.09448818897637795
          },
          {
            "duration": 0.3488370000000032,
            "durationTicks": 384,
            "midi": 31,
            "name": "G1",
            "ticks": 66432,
            "time": 60.348801,
            "velocity": 0.09448818897637795
          },
          {
            "duration": 0.3488370000000032,
            "durationTicks": 384,
            "midi": 24,
            "name": "C1",
            "ticks": 66432,
            "time": 60.348801,
            "velocity": 0.09448818897637795
          },
          {
            "duration": 0.5232554999999977,
            "durationTicks": 576,
            "midi": 33,
            "name": "A1",
            "ticks": 66816,
            "time": 60.697638000000005,
            "velocity": 0.09448818897637795
          },
          {
            "duration": 0.5232554999999977,
            "durationTicks": 576,
            "midi": 24,
            "name": "C1",
            "ticks": 66816,
            "time": 60.697638000000005,
            "velocity": 0.09448818897637795
          },
          {
            "duration": 0.5232554999999977,
            "durationTicks": 576,
            "midi": 24,
            "name": "C1",
            "ticks": 67392,
            "time": 61.2208935,
            "velocity": 0.09448818897637795
          },
          {
            "duration": 0.5232554999999977,
            "durationTicks": 576,
            "midi": 33,
            "name": "A1",
            "ticks": 67392,
            "time": 61.2208935,
            "velocity": 0.09448818897637795
          },
          {
            "duration": 0.3488370000000032,
            "durationTicks": 384,
            "midi": 33,
            "name": "A1",
            "ticks": 67968,
            "time": 61.744149,
            "velocity": 0.09448818897637795
          },
          {
            "duration": 0.3488370000000032,
            "durationTicks": 384,
            "midi": 24,
            "name": "C1",
            "ticks": 67968,
            "time": 61.744149,
            "velocity": 0.09448818897637795
          },
          {
            "duration": 0.34883699999999607,
            "durationTicks": 384,
            "midi": 24,
            "name": "C1",
            "ticks": 68352,
            "time": 62.092986,
            "velocity": 0.09448818897637795
          },
          {
            "duration": 0.34883699999999607,
            "durationTicks": 384,
            "midi": 33,
            "name": "A1",
            "ticks": 68352,
            "time": 62.092986,
            "velocity": 0.09448818897637795
          },
          {
            "duration": 0.3488370000000032,
            "durationTicks": 384,
            "midi": 33,
            "name": "A1",
            "ticks": 68736,
            "time": 62.441823,
            "velocity": 0.09448818897637795
          },
          {
            "duration": 0.3488370000000032,
            "durationTicks": 384,
            "midi": 24,
            "name": "C1",
            "ticks": 68736,
            "time": 62.441823,
            "velocity": 0.09448818897637795
          },
          {
            "duration": 0.5232554999999977,
            "durationTicks": 576,
            "midi": 24,
            "name": "C1",
            "ticks": 69120,
            "time": 62.79066,
            "velocity": 0.09448818897637795
          },
          {
            "duration": 0.5232554999999977,
            "durationTicks": 576,
            "midi": 35,
            "name": "B1",
            "ticks": 69120,
            "time": 62.79066,
            "velocity": 0.09448818897637795
          },
          {
            "duration": 0.5232555000000048,
            "durationTicks": 576,
            "midi": 35,
            "name": "B1",
            "ticks": 69696,
            "time": 63.3139155,
            "velocity": 0.09448818897637795
          },
          {
            "duration": 0.5232555000000048,
            "durationTicks": 576,
            "midi": 24,
            "name": "C1",
            "ticks": 69696,
            "time": 63.3139155,
            "velocity": 0.09448818897637795
          },
          {
            "duration": 0.34883699999999607,
            "durationTicks": 384,
            "midi": 35,
            "name": "B1",
            "ticks": 70272,
            "time": 63.837171000000005,
            "velocity": 0.09448818897637795
          },
          {
            "duration": 0.34883699999999607,
            "durationTicks": 384,
            "midi": 24,
            "name": "C1",
            "ticks": 70272,
            "time": 63.837171000000005,
            "velocity": 0.09448818897637795
          },
          {
            "duration": 0.3488370000000032,
            "durationTicks": 384,
            "midi": 24,
            "name": "C1",
            "ticks": 70656,
            "time": 64.186008,
            "velocity": 0.09448818897637795
          },
          {
            "duration": 0.3488370000000032,
            "durationTicks": 384,
            "midi": 35,
            "name": "B1",
            "ticks": 70656,
            "time": 64.186008,
            "velocity": 0.09448818897637795
          },
          {
            "duration": 0.3488370000000032,
            "durationTicks": 384,
            "midi": 35,
            "name": "B1",
            "ticks": 71040,
            "time": 64.534845,
            "velocity": 0.09448818897637795
          },
          {
            "duration": 0.3488370000000032,
            "durationTicks": 384,
            "midi": 24,
            "name": "C1",
            "ticks": 71040,
            "time": 64.534845,
            "velocity": 0.09448818897637795
          },
          {
            "duration": 0.5232554999999905,
            "durationTicks": 576,
            "midi": 40,
            "name": "E2",
            "ticks": 71424,
            "time": 64.88368200000001,
            "velocity": 0.09448818897637795
          },
          {
            "duration": 0.5232554999999905,
            "durationTicks": 576,
            "midi": 35,
            "name": "B1",
            "ticks": 71424,
            "time": 64.88368200000001,
            "velocity": 0.09448818897637795
          },
          {
            "duration": 0.5232554999999905,
            "durationTicks": 576,
            "midi": 24,
            "name": "C1",
            "ticks": 71424,
            "time": 64.88368200000001,
            "velocity": 0.09448818897637795
          },
          {
            "duration": 0.5232555000000048,
            "durationTicks": 576,
            "midi": 40,
            "name": "E2",
            "ticks": 72000,
            "time": 65.4069375,
            "velocity": 0.09448818897637795
          },
          {
            "duration": 0.5232555000000048,
            "durationTicks": 576,
            "midi": 35,
            "name": "B1",
            "ticks": 72000,
            "time": 65.4069375,
            "velocity": 0.09448818897637795
          },
          {
            "duration": 0.5232555000000048,
            "durationTicks": 576,
            "midi": 24,
            "name": "C1",
            "ticks": 72000,
            "time": 65.4069375,
            "velocity": 0.09448818897637795
          },
          {
            "duration": 0.3488370000000032,
            "durationTicks": 384,
            "midi": 24,
            "name": "C1",
            "ticks": 72576,
            "time": 65.930193,
            "velocity": 0.09448818897637795
          },
          {
            "duration": 0.3488370000000032,
            "durationTicks": 384,
            "midi": 40,
            "name": "E2",
            "ticks": 72576,
            "time": 65.930193,
            "velocity": 0.09448818897637795
          },
          {
            "duration": 0.3488370000000032,
            "durationTicks": 384,
            "midi": 35,
            "name": "B1",
            "ticks": 72576,
            "time": 65.930193,
            "velocity": 0.09448818897637795
          },
          {
            "duration": 0.34883699999998896,
            "durationTicks": 384,
            "midi": 35,
            "name": "B1",
            "ticks": 72960,
            "time": 66.27903,
            "velocity": 0.09448818897637795
          },
          {
            "duration": 0.34883699999998896,
            "durationTicks": 384,
            "midi": 40,
            "name": "E2",
            "ticks": 72960,
            "time": 66.27903,
            "velocity": 0.09448818897637795
          },
          {
            "duration": 0.34883699999998896,
            "durationTicks": 384,
            "midi": 24,
            "name": "C1",
            "ticks": 72960,
            "time": 66.27903,
            "velocity": 0.09448818897637795
          },
          {
            "duration": 0.3488370000000032,
            "durationTicks": 384,
            "midi": 24,
            "name": "C1",
            "ticks": 73344,
            "time": 66.627867,
            "velocity": 0.09448818897637795
          },
          {
            "duration": 0.3488370000000032,
            "durationTicks": 384,
            "midi": 35,
            "name": "B1",
            "ticks": 73344,
            "time": 66.627867,
            "velocity": 0.09448818897637795
          },
          {
            "duration": 0.3488370000000032,
            "durationTicks": 384,
            "midi": 40,
            "name": "E2",
            "ticks": 73344,
            "time": 66.627867,
            "velocity": 0.09448818897637795
          },
          {
            "duration": 0.5232555000000048,
            "durationTicks": 576,
            "midi": 40,
            "name": "E2",
            "ticks": 73728,
            "time": 66.976704,
            "velocity": 0.09448818897637795
          },
          {
            "duration": 0.5232555000000048,
            "durationTicks": 576,
            "midi": 35,
            "name": "B1",
            "ticks": 73728,
            "time": 66.976704,
            "velocity": 0.09448818897637795
          },
          {
            "duration": 0.5232555000000048,
            "durationTicks": 576,
            "midi": 24,
            "name": "C1",
            "ticks": 73728,
            "time": 66.976704,
            "velocity": 0.09448818897637795
          },
          {
            "duration": 0.5232555000000048,
            "durationTicks": 576,
            "midi": 40,
            "name": "E2",
            "ticks": 74304,
            "time": 67.4999595,
            "velocity": 0.09448818897637795
          },
          {
            "duration": 0.5232555000000048,
            "durationTicks": 576,
            "midi": 24,
            "name": "C1",
            "ticks": 74304,
            "time": 67.4999595,
            "velocity": 0.09448818897637795
          },
          {
            "duration": 0.5232555000000048,
            "durationTicks": 576,
            "midi": 35,
            "name": "B1",
            "ticks": 74304,
            "time": 67.4999595,
            "velocity": 0.09448818897637795
          },
          {
            "duration": 0.34883699999998896,
            "durationTicks": 384,
            "midi": 40,
            "name": "E2",
            "ticks": 74880,
            "time": 68.02321500000001,
            "velocity": 0.09448818897637795
          },
          {
            "duration": 0.34883699999998896,
            "durationTicks": 384,
            "midi": 35,
            "name": "B1",
            "ticks": 74880,
            "time": 68.02321500000001,
            "velocity": 0.09448818897637795
          },
          {
            "duration": 0.34883699999998896,
            "durationTicks": 384,
            "midi": 24,
            "name": "C1",
            "ticks": 74880,
            "time": 68.02321500000001,
            "velocity": 0.09448818897637795
          },
          {
            "duration": 0.3488370000000032,
            "durationTicks": 384,
            "midi": 40,
            "name": "E2",
            "ticks": 75264,
            "time": 68.372052,
            "velocity": 0.09448818897637795
          },
          {
            "duration": 0.3488370000000032,
            "durationTicks": 384,
            "midi": 24,
            "name": "C1",
            "ticks": 75264,
            "time": 68.372052,
            "velocity": 0.09448818897637795
          },
          {
            "duration": 0.3488370000000032,
            "durationTicks": 384,
            "midi": 35,
            "name": "B1",
            "ticks": 75264,
            "time": 68.372052,
            "velocity": 0.09448818897637795
          },
          {
            "duration": 0.3488370000000032,
            "durationTicks": 384,
            "midi": 40,
            "name": "E2",
            "ticks": 75648,
            "time": 68.720889,
            "velocity": 0.09448818897637795
          },
          {
            "duration": 0.3488370000000032,
            "durationTicks": 384,
            "midi": 24,
            "name": "C1",
            "ticks": 75648,
            "time": 68.720889,
            "velocity": 0.09448818897637795
          },
          {
            "duration": 0.3488370000000032,
            "durationTicks": 384,
            "midi": 35,
            "name": "B1",
            "ticks": 75648,
            "time": 68.720889,
            "velocity": 0.09448818897637795
          },
          {
            "duration": 0.5232555000000048,
            "durationTicks": 576,
            "midi": 35,
            "name": "B1",
            "ticks": 76032,
            "time": 69.069726,
            "velocity": 0.09448818897637795
          },
          {
            "duration": 0.5232555000000048,
            "durationTicks": 576,
            "midi": 39,
            "name": "D#2",
            "ticks": 76032,
            "time": 69.069726,
            "velocity": 0.09448818897637795
          },
          {
            "duration": 0.5232555000000048,
            "durationTicks": 576,
            "midi": 24,
            "name": "C1",
            "ticks": 76032,
            "time": 69.069726,
            "velocity": 0.09448818897637795
          },
          {
            "duration": 0.5232554999999905,
            "durationTicks": 576,
            "midi": 39,
            "name": "D#2",
            "ticks": 76608,
            "time": 69.59298150000001,
            "velocity": 0.09448818897637795
          },
          {
            "duration": 0.5232554999999905,
            "durationTicks": 576,
            "midi": 24,
            "name": "C1",
            "ticks": 76608,
            "time": 69.59298150000001,
            "velocity": 0.09448818897637795
          },
          {
            "duration": 0.5232554999999905,
            "durationTicks": 576,
            "midi": 35,
            "name": "B1",
            "ticks": 76608,
            "time": 69.59298150000001,
            "velocity": 0.09448818897637795
          },
          {
            "duration": 0.3488370000000032,
            "durationTicks": 384,
            "midi": 39,
            "name": "D#2",
            "ticks": 77184,
            "time": 70.116237,
            "velocity": 0.09448818897637795
          },
          {
            "duration": 0.3488370000000032,
            "durationTicks": 384,
            "midi": 35,
            "name": "B1",
            "ticks": 77184,
            "time": 70.116237,
            "velocity": 0.09448818897637795
          },
          {
            "duration": 0.3488370000000032,
            "durationTicks": 384,
            "midi": 24,
            "name": "C1",
            "ticks": 77184,
            "time": 70.116237,
            "velocity": 0.09448818897637795
          },
          {
            "duration": 0.3488370000000032,
            "durationTicks": 384,
            "midi": 39,
            "name": "D#2",
            "ticks": 77568,
            "time": 70.465074,
            "velocity": 0.09448818897637795
          },
          {
            "duration": 0.3488370000000032,
            "durationTicks": 384,
            "midi": 35,
            "name": "B1",
            "ticks": 77568,
            "time": 70.465074,
            "velocity": 0.09448818897637795
          },
          {
            "duration": 0.3488370000000032,
            "durationTicks": 384,
            "midi": 24,
            "name": "C1",
            "ticks": 77568,
            "time": 70.465074,
            "velocity": 0.09448818897637795
          },
          {
            "duration": 0.3488370000000032,
            "durationTicks": 384,
            "midi": 39,
            "name": "D#2",
            "ticks": 77952,
            "time": 70.813911,
            "velocity": 0.09448818897637795
          },
          {
            "duration": 0.3488370000000032,
            "durationTicks": 384,
            "midi": 24,
            "name": "C1",
            "ticks": 77952,
            "time": 70.813911,
            "velocity": 0.09448818897637795
          },
          {
            "duration": 0.3488370000000032,
            "durationTicks": 384,
            "midi": 35,
            "name": "B1",
            "ticks": 77952,
            "time": 70.813911,
            "velocity": 0.09448818897637795
          },
          {
            "duration": 0.5232554999999905,
            "durationTicks": 576,
            "midi": 40,
            "name": "E2",
            "ticks": 78336,
            "time": 71.16274800000001,
            "velocity": 0.09448818897637795
          },
          {
            "duration": 0.5232554999999905,
            "durationTicks": 576,
            "midi": 35,
            "name": "B1",
            "ticks": 78336,
            "time": 71.16274800000001,
            "velocity": 0.09448818897637795
          },
          {
            "duration": 0.5232554999999905,
            "durationTicks": 576,
            "midi": 28,
            "name": "E1",
            "ticks": 78336,
            "time": 71.16274800000001,
            "velocity": 0.09448818897637795
          },
          {
            "duration": 0.5232555000000048,
            "durationTicks": 576,
            "midi": 28,
            "name": "E1",
            "ticks": 78912,
            "time": 71.6860035,
            "velocity": 0.09448818897637795
          },
          {
            "duration": 0.5232555000000048,
            "durationTicks": 576,
            "midi": 40,
            "name": "E2",
            "ticks": 78912,
            "time": 71.6860035,
            "velocity": 0.09448818897637795
          },
          {
            "duration": 0.5232555000000048,
            "durationTicks": 576,
            "midi": 35,
            "name": "B1",
            "ticks": 78912,
            "time": 71.6860035,
            "velocity": 0.09448818897637795
          },
          {
            "duration": 0.3488370000000032,
            "durationTicks": 384,
            "midi": 28,
            "name": "E1",
            "ticks": 79488,
            "time": 72.209259,
            "velocity": 0.09448818897637795
          },
          {
            "duration": 0.3488370000000032,
            "durationTicks": 384,
            "midi": 40,
            "name": "E2",
            "ticks": 79488,
            "time": 72.209259,
            "velocity": 0.09448818897637795
          },
          {
            "duration": 0.3488370000000032,
            "durationTicks": 384,
            "midi": 35,
            "name": "B1",
            "ticks": 79488,
            "time": 72.209259,
            "velocity": 0.09448818897637795
          },
          {
            "duration": 0.34883699999998896,
            "durationTicks": 384,
            "midi": 40,
            "name": "E2",
            "ticks": 79872,
            "time": 72.558096,
            "velocity": 0.09448818897637795
          },
          {
            "duration": 0.34883699999998896,
            "durationTicks": 384,
            "midi": 35,
            "name": "B1",
            "ticks": 79872,
            "time": 72.558096,
            "velocity": 0.09448818897637795
          },
          {
            "duration": 0.34883699999998896,
            "durationTicks": 384,
            "midi": 28,
            "name": "E1",
            "ticks": 79872,
            "time": 72.558096,
            "velocity": 0.09448818897637795
          },
          {
            "duration": 0.3488370000000032,
            "durationTicks": 384,
            "midi": 28,
            "name": "E1",
            "ticks": 80256,
            "time": 72.906933,
            "velocity": 0.09448818897637795
          },
          {
            "duration": 0.3488370000000032,
            "durationTicks": 384,
            "midi": 40,
            "name": "E2",
            "ticks": 80256,
            "time": 72.906933,
            "velocity": 0.09448818897637795
          },
          {
            "duration": 0.3488370000000032,
            "durationTicks": 384,
            "midi": 35,
            "name": "B1",
            "ticks": 80256,
            "time": 72.906933,
            "velocity": 0.09448818897637795
          },
          {
            "duration": 0.5232555000000048,
            "durationTicks": 576,
            "midi": 31,
            "name": "G1",
            "ticks": 80640,
            "time": 73.25577,
            "velocity": 0.09448818897637795
          },
          {
            "duration": 0.5232555000000048,
            "durationTicks": 576,
            "midi": 36,
            "name": "C2",
            "ticks": 80640,
            "time": 73.25577,
            "velocity": 0.09448818897637795
          },
          {
            "duration": 0.5232555000000048,
            "durationTicks": 576,
            "midi": 24,
            "name": "C1",
            "ticks": 80640,
            "time": 73.25577,
            "velocity": 0.09448818897637795
          },
          {
            "duration": 0.5232555000000048,
            "durationTicks": 576,
            "midi": 24,
            "name": "C1",
            "ticks": 81216,
            "time": 73.7790255,
            "velocity": 0.09448818897637795
          },
          {
            "duration": 0.5232555000000048,
            "durationTicks": 576,
            "midi": 31,
            "name": "G1",
            "ticks": 81216,
            "time": 73.7790255,
            "velocity": 0.09448818897637795
          },
          {
            "duration": 0.5232555000000048,
            "durationTicks": 576,
            "midi": 36,
            "name": "C2",
            "ticks": 81216,
            "time": 73.7790255,
            "velocity": 0.09448818897637795
          },
          {
            "duration": 0.34883699999998896,
            "durationTicks": 384,
            "midi": 36,
            "name": "C2",
            "ticks": 81792,
            "time": 74.30228100000001,
            "velocity": 0.09448818897637795
          },
          {
            "duration": 0.34883699999998896,
            "durationTicks": 384,
            "midi": 24,
            "name": "C1",
            "ticks": 81792,
            "time": 74.30228100000001,
            "velocity": 0.09448818897637795
          },
          {
            "duration": 0.34883699999998896,
            "durationTicks": 384,
            "midi": 31,
            "name": "G1",
            "ticks": 81792,
            "time": 74.30228100000001,
            "velocity": 0.09448818897637795
          },
          {
            "duration": 0.3488370000000032,
            "durationTicks": 384,
            "midi": 31,
            "name": "G1",
            "ticks": 82176,
            "time": 74.651118,
            "velocity": 0.09448818897637795
          },
          {
            "duration": 0.3488370000000032,
            "durationTicks": 384,
            "midi": 36,
            "name": "C2",
            "ticks": 82176,
            "time": 74.651118,
            "velocity": 0.09448818897637795
          },
          {
            "duration": 0.3488370000000032,
            "durationTicks": 384,
            "midi": 24,
            "name": "C1",
            "ticks": 82176,
            "time": 74.651118,
            "velocity": 0.09448818897637795
          },
          {
            "duration": 0.3488370000000032,
            "durationTicks": 384,
            "midi": 36,
            "name": "C2",
            "ticks": 82560,
            "time": 74.999955,
            "velocity": 0.09448818897637795
          },
          {
            "duration": 0.3488370000000032,
            "durationTicks": 384,
            "midi": 31,
            "name": "G1",
            "ticks": 82560,
            "time": 74.999955,
            "velocity": 0.09448818897637795
          },
          {
            "duration": 0.3488370000000032,
            "durationTicks": 384,
            "midi": 24,
            "name": "C1",
            "ticks": 82560,
            "time": 74.999955,
            "velocity": 0.09448818897637795
          },
          {
            "duration": 0.5232555000000048,
            "durationTicks": 576,
            "midi": 24,
            "name": "C1",
            "ticks": 82944,
            "time": 75.348792,
            "velocity": 0.09448818897637795
          },
          {
            "duration": 0.5232555000000048,
            "durationTicks": 576,
            "midi": 33,
            "name": "A1",
            "ticks": 82944,
            "time": 75.348792,
            "velocity": 0.09448818897637795
          },
          {
            "duration": 0.5232554999999905,
            "durationTicks": 576,
            "midi": 24,
            "name": "C1",
            "ticks": 83520,
            "time": 75.87204750000001,
            "velocity": 0.09448818897637795
          },
          {
            "duration": 0.5232554999999905,
            "durationTicks": 576,
            "midi": 33,
            "name": "A1",
            "ticks": 83520,
            "time": 75.87204750000001,
            "velocity": 0.09448818897637795
          },
          {
            "duration": 0.3488370000000032,
            "durationTicks": 384,
            "midi": 24,
            "name": "C1",
            "ticks": 84096,
            "time": 76.395303,
            "velocity": 0.09448818897637795
          },
          {
            "duration": 0.3488370000000032,
            "durationTicks": 384,
            "midi": 33,
            "name": "A1",
            "ticks": 84096,
            "time": 76.395303,
            "velocity": 0.09448818897637795
          },
          {
            "duration": 0.3488370000000032,
            "durationTicks": 384,
            "midi": 24,
            "name": "C1",
            "ticks": 84480,
            "time": 76.74414,
            "velocity": 0.09448818897637795
          },
          {
            "duration": 0.3488370000000032,
            "durationTicks": 384,
            "midi": 33,
            "name": "A1",
            "ticks": 84480,
            "time": 76.74414,
            "velocity": 0.09448818897637795
          },
          {
            "duration": 0.3488370000000032,
            "durationTicks": 384,
            "midi": 24,
            "name": "C1",
            "ticks": 84864,
            "time": 77.092977,
            "velocity": 0.09448818897637795
          },
          {
            "duration": 0.3488370000000032,
            "durationTicks": 384,
            "midi": 33,
            "name": "A1",
            "ticks": 84864,
            "time": 77.092977,
            "velocity": 0.09448818897637795
          },
          {
            "duration": 0.5232554999999905,
            "durationTicks": 576,
            "midi": 35,
            "name": "B1",
            "ticks": 85248,
            "time": 77.44181400000001,
            "velocity": 0.09448818897637795
          },
          {
            "duration": 0.5232554999999905,
            "durationTicks": 576,
            "midi": 24,
            "name": "C1",
            "ticks": 85248,
            "time": 77.44181400000001,
            "velocity": 0.09448818897637795
          },
          {
            "duration": 0.5232555000000048,
            "durationTicks": 576,
            "midi": 35,
            "name": "B1",
            "ticks": 85824,
            "time": 77.9650695,
            "velocity": 0.09448818897637795
          },
          {
            "duration": 0.5232555000000048,
            "durationTicks": 576,
            "midi": 24,
            "name": "C1",
            "ticks": 85824,
            "time": 77.9650695,
            "velocity": 0.09448818897637795
          },
          {
            "duration": 0.3488370000000032,
            "durationTicks": 384,
            "midi": 24,
            "name": "C1",
            "ticks": 86400,
            "time": 78.488325,
            "velocity": 0.09448818897637795
          },
          {
            "duration": 0.3488370000000032,
            "durationTicks": 384,
            "midi": 35,
            "name": "B1",
            "ticks": 86400,
            "time": 78.488325,
            "velocity": 0.09448818897637795
          },
          {
            "duration": 0.34883699999998896,
            "durationTicks": 384,
            "midi": 35,
            "name": "B1",
            "ticks": 86784,
            "time": 78.837162,
            "velocity": 0.09448818897637795
          },
          {
            "duration": 0.34883699999998896,
            "durationTicks": 384,
            "midi": 24,
            "name": "C1",
            "ticks": 86784,
            "time": 78.837162,
            "velocity": 0.09448818897637795
          },
          {
            "duration": 0.3488370000000032,
            "durationTicks": 384,
            "midi": 24,
            "name": "C1",
            "ticks": 87168,
            "time": 79.185999,
            "velocity": 0.09448818897637795
          },
          {
            "duration": 0.3488370000000032,
            "durationTicks": 384,
            "midi": 35,
            "name": "B1",
            "ticks": 87168,
            "time": 79.185999,
            "velocity": 0.09448818897637795
          },
          {
            "duration": 0.5232555000000048,
            "durationTicks": 576,
            "midi": 40,
            "name": "E2",
            "ticks": 87552,
            "time": 79.534836,
            "velocity": 0.09448818897637795
          },
          {
            "duration": 0.5232555000000048,
            "durationTicks": 576,
            "midi": 35,
            "name": "B1",
            "ticks": 87552,
            "time": 79.534836,
            "velocity": 0.09448818897637795
          },
          {
            "duration": 0.5232555000000048,
            "durationTicks": 576,
            "midi": 24,
            "name": "C1",
            "ticks": 87552,
            "time": 79.534836,
            "velocity": 0.09448818897637795
          },
          {
            "duration": 0.5232555000000048,
            "durationTicks": 576,
            "midi": 35,
            "name": "B1",
            "ticks": 88128,
            "time": 80.0580915,
            "velocity": 0.09448818897637795
          },
          {
            "duration": 0.5232555000000048,
            "durationTicks": 576,
            "midi": 24,
            "name": "C1",
            "ticks": 88128,
            "time": 80.0580915,
            "velocity": 0.09448818897637795
          },
          {
            "duration": 0.5232555000000048,
            "durationTicks": 576,
            "midi": 40,
            "name": "E2",
            "ticks": 88128,
            "time": 80.0580915,
            "velocity": 0.09448818897637795
          },
          {
            "duration": 0.34883699999998896,
            "durationTicks": 384,
            "midi": 35,
            "name": "B1",
            "ticks": 88704,
            "time": 80.58134700000001,
            "velocity": 0.09448818897637795
          },
          {
            "duration": 0.34883699999998896,
            "durationTicks": 384,
            "midi": 40,
            "name": "E2",
            "ticks": 88704,
            "time": 80.58134700000001,
            "velocity": 0.09448818897637795
          },
          {
            "duration": 0.34883699999998896,
            "durationTicks": 384,
            "midi": 24,
            "name": "C1",
            "ticks": 88704,
            "time": 80.58134700000001,
            "velocity": 0.09448818897637795
          },
          {
            "duration": 0.3488370000000032,
            "durationTicks": 384,
            "midi": 24,
            "name": "C1",
            "ticks": 89088,
            "time": 80.930184,
            "velocity": 0.09448818897637795
          },
          {
            "duration": 0.3488370000000032,
            "durationTicks": 384,
            "midi": 40,
            "name": "E2",
            "ticks": 89088,
            "time": 80.930184,
            "velocity": 0.09448818897637795
          },
          {
            "duration": 0.3488370000000032,
            "durationTicks": 384,
            "midi": 35,
            "name": "B1",
            "ticks": 89088,
            "time": 80.930184,
            "velocity": 0.09448818897637795
          },
          {
            "duration": 0.3488370000000032,
            "durationTicks": 384,
            "midi": 40,
            "name": "E2",
            "ticks": 89472,
            "time": 81.279021,
            "velocity": 0.09448818897637795
          },
          {
            "duration": 0.3488370000000032,
            "durationTicks": 384,
            "midi": 35,
            "name": "B1",
            "ticks": 89472,
            "time": 81.279021,
            "velocity": 0.09448818897637795
          },
          {
            "duration": 0.3488370000000032,
            "durationTicks": 384,
            "midi": 24,
            "name": "C1",
            "ticks": 89472,
            "time": 81.279021,
            "velocity": 0.09448818897637795
          },
          {
            "duration": 0.5232555000000048,
            "durationTicks": 576,
            "midi": 36,
            "name": "C2",
            "ticks": 89856,
            "time": 81.627858,
            "velocity": 0.09448818897637795
          },
          {
            "duration": 0.5232555000000048,
            "durationTicks": 576,
            "midi": 39,
            "name": "D#2",
            "ticks": 89856,
            "time": 81.627858,
            "velocity": 0.09448818897637795
          },
          {
            "duration": 0.5232555000000048,
            "durationTicks": 576,
            "midi": 28,
            "name": "E1",
            "ticks": 89856,
            "time": 81.627858,
            "velocity": 0.09448818897637795
          },
          {
            "duration": 0.5232554999999905,
            "durationTicks": 576,
            "midi": 39,
            "name": "D#2",
            "ticks": 90432,
            "time": 82.15111350000001,
            "velocity": 0.09448818897637795
          },
          {
            "duration": 0.5232554999999905,
            "durationTicks": 576,
            "midi": 36,
            "name": "C2",
            "ticks": 90432,
            "time": 82.15111350000001,
            "velocity": 0.09448818897637795
          },
          {
            "duration": 0.5232554999999905,
            "durationTicks": 576,
            "midi": 28,
            "name": "E1",
            "ticks": 90432,
            "time": 82.15111350000001,
            "velocity": 0.09448818897637795
          },
          {
            "duration": 0.3488370000000032,
            "durationTicks": 384,
            "midi": 39,
            "name": "D#2",
            "ticks": 91008,
            "time": 82.674369,
            "velocity": 0.09448818897637795
          },
          {
            "duration": 0.3488370000000032,
            "durationTicks": 384,
            "midi": 36,
            "name": "C2",
            "ticks": 91008,
            "time": 82.674369,
            "velocity": 0.09448818897637795
          },
          {
            "duration": 0.3488370000000032,
            "durationTicks": 384,
            "midi": 28,
            "name": "E1",
            "ticks": 91008,
            "time": 82.674369,
            "velocity": 0.09448818897637795
          },
          {
            "duration": 0.3488370000000032,
            "durationTicks": 384,
            "midi": 36,
            "name": "C2",
            "ticks": 91392,
            "time": 83.023206,
            "velocity": 0.09448818897637795
          },
          {
            "duration": 0.3488370000000032,
            "durationTicks": 384,
            "midi": 39,
            "name": "D#2",
            "ticks": 91392,
            "time": 83.023206,
            "velocity": 0.09448818897637795
          },
          {
            "duration": 0.3488370000000032,
            "durationTicks": 384,
            "midi": 28,
            "name": "E1",
            "ticks": 91392,
            "time": 83.023206,
            "velocity": 0.09448818897637795
          },
          {
            "duration": 0.3488370000000032,
            "durationTicks": 384,
            "midi": 28,
            "name": "E1",
            "ticks": 91776,
            "time": 83.372043,
            "velocity": 0.09448818897637795
          },
          {
            "duration": 0.3488370000000032,
            "durationTicks": 384,
            "midi": 36,
            "name": "C2",
            "ticks": 91776,
            "time": 83.372043,
            "velocity": 0.09448818897637795
          },
          {
            "duration": 0.3488370000000032,
            "durationTicks": 384,
            "midi": 39,
            "name": "D#2",
            "ticks": 91776,
            "time": 83.372043,
            "velocity": 0.09448818897637795
          },
          {
            "duration": 0.5232554999999905,
            "durationTicks": 576,
            "midi": 24,
            "name": "C1",
            "ticks": 92160,
            "time": 83.72088000000001,
            "velocity": 0.09448818897637795
          },
          {
            "duration": 0.5232554999999905,
            "durationTicks": 576,
            "midi": 38,
            "name": "D2",
            "ticks": 92160,
            "time": 83.72088000000001,
            "velocity": 0.09448818897637795
          },
          {
            "duration": 0.5232554999999905,
            "durationTicks": 576,
            "midi": 35,
            "name": "B1",
            "ticks": 92160,
            "time": 83.72088000000001,
            "velocity": 0.09448818897637795
          },
          {
            "duration": 0.5232555000000048,
            "durationTicks": 576,
            "midi": 38,
            "name": "D2",
            "ticks": 92736,
            "time": 84.2441355,
            "velocity": 0.09448818897637795
          },
          {
            "duration": 0.5232555000000048,
            "durationTicks": 576,
            "midi": 24,
            "name": "C1",
            "ticks": 92736,
            "time": 84.2441355,
            "velocity": 0.09448818897637795
          },
          {
            "duration": 0.5232555000000048,
            "durationTicks": 576,
            "midi": 35,
            "name": "B1",
            "ticks": 92736,
            "time": 84.2441355,
            "velocity": 0.09448818897637795
          },
          {
            "duration": 0.3488370000000032,
            "durationTicks": 384,
            "midi": 35,
            "name": "B1",
            "ticks": 93312,
            "time": 84.767391,
            "velocity": 0.09448818897637795
          },
          {
            "duration": 0.3488370000000032,
            "durationTicks": 384,
            "midi": 38,
            "name": "D2",
            "ticks": 93312,
            "time": 84.767391,
            "velocity": 0.09448818897637795
          },
          {
            "duration": 0.3488370000000032,
            "durationTicks": 384,
            "midi": 24,
            "name": "C1",
            "ticks": 93312,
            "time": 84.767391,
            "velocity": 0.09448818897637795
          },
          {
            "duration": 0.34883699999998896,
            "durationTicks": 384,
            "midi": 35,
            "name": "B1",
            "ticks": 93696,
            "time": 85.116228,
            "velocity": 0.09448818897637795
          },
          {
            "duration": 0.34883699999998896,
            "durationTicks": 384,
            "midi": 38,
            "name": "D2",
            "ticks": 93696,
            "time": 85.116228,
            "velocity": 0.09448818897637795
          },
          {
            "duration": 0.34883699999998896,
            "durationTicks": 384,
            "midi": 24,
            "name": "C1",
            "ticks": 93696,
            "time": 85.116228,
            "velocity": 0.09448818897637795
          },
          {
            "duration": 0.3488370000000032,
            "durationTicks": 384,
            "midi": 24,
            "name": "C1",
            "ticks": 94080,
            "time": 85.465065,
            "velocity": 0.09448818897637795
          },
          {
            "duration": 0.3488370000000032,
            "durationTicks": 384,
            "midi": 38,
            "name": "D2",
            "ticks": 94080,
            "time": 85.465065,
            "velocity": 0.09448818897637795
          },
          {
            "duration": 0.3488370000000032,
            "durationTicks": 384,
            "midi": 35,
            "name": "B1",
            "ticks": 94080,
            "time": 85.465065,
            "velocity": 0.09448818897637795
          },
          {
            "duration": 0.5232555000000048,
            "durationTicks": 576,
            "midi": 40,
            "name": "E2",
            "ticks": 94464,
            "time": 85.813902,
            "velocity": 0.09448818897637795
          },
          {
            "duration": 0.5232555000000048,
            "durationTicks": 576,
            "midi": 35,
            "name": "B1",
            "ticks": 94464,
            "time": 85.813902,
            "velocity": 0.09448818897637795
          },
          {
            "duration": 0.5232555000000048,
            "durationTicks": 576,
            "midi": 28,
            "name": "E1",
            "ticks": 94464,
            "time": 85.813902,
            "velocity": 0.09448818897637795
          },
          {
            "duration": 0.5232555000000048,
            "durationTicks": 576,
            "midi": 40,
            "name": "E2",
            "ticks": 95040,
            "time": 86.3371575,
            "velocity": 0.09448818897637795
          },
          {
            "duration": 0.5232555000000048,
            "durationTicks": 576,
            "midi": 35,
            "name": "B1",
            "ticks": 95040,
            "time": 86.3371575,
            "velocity": 0.09448818897637795
          },
          {
            "duration": 0.5232555000000048,
            "durationTicks": 576,
            "midi": 28,
            "name": "E1",
            "ticks": 95040,
            "time": 86.3371575,
            "velocity": 0.09448818897637795
          },
          {
            "duration": 0.34883699999998896,
            "durationTicks": 384,
            "midi": 35,
            "name": "B1",
            "ticks": 95616,
            "time": 86.86041300000001,
            "velocity": 0.09448818897637795
          },
          {
            "duration": 0.34883699999998896,
            "durationTicks": 384,
            "midi": 28,
            "name": "E1",
            "ticks": 95616,
            "time": 86.86041300000001,
            "velocity": 0.09448818897637795
          },
          {
            "duration": 0.34883699999998896,
            "durationTicks": 384,
            "midi": 40,
            "name": "E2",
            "ticks": 95616,
            "time": 86.86041300000001,
            "velocity": 0.09448818897637795
          },
          {
            "duration": 0.3488370000000032,
            "durationTicks": 384,
            "midi": 35,
            "name": "B1",
            "ticks": 96000,
            "time": 87.20925,
            "velocity": 0.09448818897637795
          },
          {
            "duration": 0.3488370000000032,
            "durationTicks": 384,
            "midi": 28,
            "name": "E1",
            "ticks": 96000,
            "time": 87.20925,
            "velocity": 0.09448818897637795
          },
          {
            "duration": 0.3488370000000032,
            "durationTicks": 384,
            "midi": 40,
            "name": "E2",
            "ticks": 96000,
            "time": 87.20925,
            "velocity": 0.09448818897637795
          },
          {
            "duration": 0.3488370000000032,
            "durationTicks": 384,
            "midi": 28,
            "name": "E1",
            "ticks": 96384,
            "time": 87.558087,
            "velocity": 0.09448818897637795
          },
          {
            "duration": 0.3488370000000032,
            "durationTicks": 384,
            "midi": 40,
            "name": "E2",
            "ticks": 96384,
            "time": 87.558087,
            "velocity": 0.09448818897637795
          },
          {
            "duration": 0.3488370000000032,
            "durationTicks": 384,
            "midi": 35,
            "name": "B1",
            "ticks": 96384,
            "time": 87.558087,
            "velocity": 0.09448818897637795
          },
          {
            "duration": 0.5232555000000048,
            "durationTicks": 576,
            "midi": 36,
            "name": "C2",
            "ticks": 96768,
            "time": 87.906924,
            "velocity": 0.09448818897637795
          },
          {
            "duration": 0.5232555000000048,
            "durationTicks": 576,
            "midi": 31,
            "name": "G1",
            "ticks": 96768,
            "time": 87.906924,
            "velocity": 0.09448818897637795
          },
          {
            "duration": 0.5232555000000048,
            "durationTicks": 576,
            "midi": 24,
            "name": "C1",
            "ticks": 96768,
            "time": 87.906924,
            "velocity": 0.09448818897637795
          },
          {
            "duration": 0.5232554999999905,
            "durationTicks": 576,
            "midi": 24,
            "name": "C1",
            "ticks": 97344,
            "time": 88.43017950000001,
            "velocity": 0.09448818897637795
          },
          {
            "duration": 0.5232554999999905,
            "durationTicks": 576,
            "midi": 31,
            "name": "G1",
            "ticks": 97344,
            "time": 88.43017950000001,
            "velocity": 0.09448818897637795
          },
          {
            "duration": 0.5232554999999905,
            "durationTicks": 576,
            "midi": 36,
            "name": "C2",
            "ticks": 97344,
            "time": 88.43017950000001,
            "velocity": 0.09448818897637795
          },
          {
            "duration": 0.3488370000000032,
            "durationTicks": 384,
            "midi": 36,
            "name": "C2",
            "ticks": 97920,
            "time": 88.953435,
            "velocity": 0.09448818897637795
          },
          {
            "duration": 0.3488370000000032,
            "durationTicks": 384,
            "midi": 24,
            "name": "C1",
            "ticks": 97920,
            "time": 88.953435,
            "velocity": 0.09448818897637795
          },
          {
            "duration": 0.3488370000000032,
            "durationTicks": 384,
            "midi": 31,
            "name": "G1",
            "ticks": 97920,
            "time": 88.953435,
            "velocity": 0.09448818897637795
          },
          {
            "duration": 0.3488370000000032,
            "durationTicks": 384,
            "midi": 31,
            "name": "G1",
            "ticks": 98304,
            "time": 89.302272,
            "velocity": 0.09448818897637795
          },
          {
            "duration": 0.3488370000000032,
            "durationTicks": 384,
            "midi": 36,
            "name": "C2",
            "ticks": 98304,
            "time": 89.302272,
            "velocity": 0.09448818897637795
          },
          {
            "duration": 0.3488370000000032,
            "durationTicks": 384,
            "midi": 24,
            "name": "C1",
            "ticks": 98304,
            "time": 89.302272,
            "velocity": 0.09448818897637795
          },
          {
            "duration": 0.3488370000000032,
            "durationTicks": 384,
            "midi": 36,
            "name": "C2",
            "ticks": 98688,
            "time": 89.651109,
            "velocity": 0.09448818897637795
          },
          {
            "duration": 0.3488370000000032,
            "durationTicks": 384,
            "midi": 31,
            "name": "G1",
            "ticks": 98688,
            "time": 89.651109,
            "velocity": 0.09448818897637795
          },
          {
            "duration": 0.3488370000000032,
            "durationTicks": 384,
            "midi": 24,
            "name": "C1",
            "ticks": 98688,
            "time": 89.651109,
            "velocity": 0.09448818897637795
          },
          {
            "duration": 0.5232554999999905,
            "durationTicks": 576,
            "midi": 33,
            "name": "A1",
            "ticks": 99072,
            "time": 89.99994600000001,
            "velocity": 0.09448818897637795
          },
          {
            "duration": 0.5232554999999905,
            "durationTicks": 576,
            "midi": 24,
            "name": "C1",
            "ticks": 99072,
            "time": 89.99994600000001,
            "velocity": 0.09448818897637795
          },
          {
            "duration": 0.5232555000000048,
            "durationTicks": 576,
            "midi": 24,
            "name": "C1",
            "ticks": 99648,
            "time": 90.5232015,
            "velocity": 0.09448818897637795
          },
          {
            "duration": 0.5232555000000048,
            "durationTicks": 576,
            "midi": 33,
            "name": "A1",
            "ticks": 99648,
            "time": 90.5232015,
            "velocity": 0.09448818897637795
          },
          {
            "duration": 0.3488370000000032,
            "durationTicks": 384,
            "midi": 24,
            "name": "C1",
            "ticks": 100224,
            "time": 91.046457,
            "velocity": 0.09448818897637795
          },
          {
            "duration": 0.3488370000000032,
            "durationTicks": 384,
            "midi": 33,
            "name": "A1",
            "ticks": 100224,
            "time": 91.046457,
            "velocity": 0.09448818897637795
          },
          {
            "duration": 0.34883699999998896,
            "durationTicks": 384,
            "midi": 24,
            "name": "C1",
            "ticks": 100608,
            "time": 91.395294,
            "velocity": 0.09448818897637795
          },
          {
            "duration": 0.34883699999998896,
            "durationTicks": 384,
            "midi": 33,
            "name": "A1",
            "ticks": 100608,
            "time": 91.395294,
            "velocity": 0.09448818897637795
          },
          {
            "duration": 0.3488370000000032,
            "durationTicks": 384,
            "midi": 33,
            "name": "A1",
            "ticks": 100992,
            "time": 91.744131,
            "velocity": 0.09448818897637795
          },
          {
            "duration": 0.3488370000000032,
            "durationTicks": 384,
            "midi": 24,
            "name": "C1",
            "ticks": 100992,
            "time": 91.744131,
            "velocity": 0.09448818897637795
          },
          {
            "duration": 0.5232555000000048,
            "durationTicks": 576,
            "midi": 24,
            "name": "C1",
            "ticks": 101376,
            "time": 92.092968,
            "velocity": 0.09448818897637795
          },
          {
            "duration": 0.5232555000000048,
            "durationTicks": 576,
            "midi": 35,
            "name": "B1",
            "ticks": 101376,
            "time": 92.092968,
            "velocity": 0.09448818897637795
          },
          {
            "duration": 0.5232555000000048,
            "durationTicks": 576,
            "midi": 24,
            "name": "C1",
            "ticks": 101952,
            "time": 92.6162235,
            "velocity": 0.09448818897637795
          },
          {
            "duration": 0.5232555000000048,
            "durationTicks": 576,
            "midi": 35,
            "name": "B1",
            "ticks": 101952,
            "time": 92.6162235,
            "velocity": 0.09448818897637795
          },
          {
            "duration": 0.5232554999999905,
            "durationTicks": 576,
            "midi": 24,
            "name": "C1",
            "ticks": 102528,
            "time": 93.13947900000001,
            "velocity": 0.09448818897637795
          },
          {
            "duration": 0.5232554999999905,
            "durationTicks": 576,
            "midi": 35,
            "name": "B1",
            "ticks": 102528,
            "time": 93.13947900000001,
            "velocity": 0.09448818897637795
          },
          {
            "duration": 0.5232554999999905,
            "durationTicks": 576,
            "midi": 40,
            "name": "E2",
            "ticks": 102528,
            "time": 93.13947900000001,
            "velocity": 0.09448818897637795
          },
          {
            "duration": 0.5232555000000048,
            "durationTicks": 576,
            "midi": 24,
            "name": "C1",
            "ticks": 103104,
            "time": 93.6627345,
            "velocity": 0.09448818897637795
          },
          {
            "duration": 0.5232555000000048,
            "durationTicks": 576,
            "midi": 40,
            "name": "E2",
            "ticks": 103104,
            "time": 93.6627345,
            "velocity": 0.09448818897637795
          },
          {
            "duration": 0.5232555000000048,
            "durationTicks": 576,
            "midi": 35,
            "name": "B1",
            "ticks": 103104,
            "time": 93.6627345,
            "velocity": 0.09448818897637795
          },
          {
            "duration": 0.3488370000000032,
            "durationTicks": 384,
            "midi": 24,
            "name": "C1",
            "ticks": 103680,
            "time": 94.18599,
            "velocity": 0.09448818897637795
          },
          {
            "duration": 0.3488370000000032,
            "durationTicks": 384,
            "midi": 35,
            "name": "B1",
            "ticks": 103680,
            "time": 94.18599,
            "velocity": 0.09448818897637795
          },
          {
            "duration": 0.3488370000000032,
            "durationTicks": 384,
            "midi": 40,
            "name": "E2",
            "ticks": 103680,
            "time": 94.18599,
            "velocity": 0.09448818897637795
          },
          {
            "duration": 0.34883699999998896,
            "durationTicks": 384,
            "midi": 40,
            "name": "E2",
            "ticks": 104064,
            "time": 94.534827,
            "velocity": 0.09448818897637795
          },
          {
            "duration": 0.34883699999998896,
            "durationTicks": 384,
            "midi": 35,
            "name": "B1",
            "ticks": 104064,
            "time": 94.534827,
            "velocity": 0.09448818897637795
          },
          {
            "duration": 0.34883699999998896,
            "durationTicks": 384,
            "midi": 24,
            "name": "C1",
            "ticks": 104064,
            "time": 94.534827,
            "velocity": 0.09448818897637795
          },
          {
            "duration": 0.3488370000000032,
            "durationTicks": 384,
            "midi": 24,
            "name": "C1",
            "ticks": 104448,
            "time": 94.883664,
            "velocity": 0.09448818897637795
          },
          {
            "duration": 0.3488370000000032,
            "durationTicks": 384,
            "midi": 40,
            "name": "E2",
            "ticks": 104448,
            "time": 94.883664,
            "velocity": 0.09448818897637795
          },
          {
            "duration": 0.3488370000000032,
            "durationTicks": 384,
            "midi": 35,
            "name": "B1",
            "ticks": 104448,
            "time": 94.883664,
            "velocity": 0.09448818897637795
          },
          {
            "duration": 0.5232555000000048,
            "durationTicks": 576,
            "midi": 39,
            "name": "D#2",
            "ticks": 104832,
            "time": 95.232501,
            "velocity": 0.09448818897637795
          },
          {
            "duration": 0.5232555000000048,
            "durationTicks": 576,
            "midi": 36,
            "name": "C2",
            "ticks": 104832,
            "time": 95.232501,
            "velocity": 0.09448818897637795
          },
          {
            "duration": 0.5232555000000048,
            "durationTicks": 576,
            "midi": 25,
            "name": "C#1",
            "ticks": 104832,
            "time": 95.232501,
            "velocity": 0.09448818897637795
          },
          {
            "duration": 0.5232555000000048,
            "durationTicks": 576,
            "midi": 36,
            "name": "C2",
            "ticks": 105408,
            "time": 95.7557565,
            "velocity": 0.09448818897637795
          },
          {
            "duration": 0.5232555000000048,
            "durationTicks": 576,
            "midi": 39,
            "name": "D#2",
            "ticks": 105408,
            "time": 95.7557565,
            "velocity": 0.09448818897637795
          },
          {
            "duration": 0.5232555000000048,
            "durationTicks": 576,
            "midi": 25,
            "name": "C#1",
            "ticks": 105408,
            "time": 95.7557565,
            "velocity": 0.09448818897637795
          },
          {
            "duration": 0.34883699999998896,
            "durationTicks": 384,
            "midi": 39,
            "name": "D#2",
            "ticks": 105984,
            "time": 96.27901200000001,
            "velocity": 0.09448818897637795
          },
          {
            "duration": 0.34883699999998896,
            "durationTicks": 384,
            "midi": 36,
            "name": "C2",
            "ticks": 105984,
            "time": 96.27901200000001,
            "velocity": 0.09448818897637795
          },
          {
            "duration": 0.34883699999998896,
            "durationTicks": 384,
            "midi": 25,
            "name": "C#1",
            "ticks": 105984,
            "time": 96.27901200000001,
            "velocity": 0.09448818897637795
          },
          {
            "duration": 0.3488370000000032,
            "durationTicks": 384,
            "midi": 25,
            "name": "C#1",
            "ticks": 106368,
            "time": 96.627849,
            "velocity": 0.09448818897637795
          },
          {
            "duration": 0.3488370000000032,
            "durationTicks": 384,
            "midi": 36,
            "name": "C2",
            "ticks": 106368,
            "time": 96.627849,
            "velocity": 0.09448818897637795
          },
          {
            "duration": 0.3488370000000032,
            "durationTicks": 384,
            "midi": 39,
            "name": "D#2",
            "ticks": 106368,
            "time": 96.627849,
            "velocity": 0.09448818897637795
          },
          {
            "duration": 0.3488370000000032,
            "durationTicks": 384,
            "midi": 36,
            "name": "C2",
            "ticks": 106752,
            "time": 96.976686,
            "velocity": 0.09448818897637795
          },
          {
            "duration": 0.3488370000000032,
            "durationTicks": 384,
            "midi": 39,
            "name": "D#2",
            "ticks": 106752,
            "time": 96.976686,
            "velocity": 0.09448818897637795
          },
          {
            "duration": 0.3488370000000032,
            "durationTicks": 384,
            "midi": 25,
            "name": "C#1",
            "ticks": 106752,
            "time": 96.976686,
            "velocity": 0.09448818897637795
          },
          {
            "duration": 0.5232555000000048,
            "durationTicks": 576,
            "midi": 35,
            "name": "B1",
            "ticks": 107136,
            "time": 97.325523,
            "velocity": 0.09448818897637795
          },
          {
            "duration": 0.5232555000000048,
            "durationTicks": 576,
            "midi": 24,
            "name": "C1",
            "ticks": 107136,
            "time": 97.325523,
            "velocity": 0.09448818897637795
          },
          {
            "duration": 0.5232555000000048,
            "durationTicks": 576,
            "midi": 38,
            "name": "D2",
            "ticks": 107136,
            "time": 97.325523,
            "velocity": 0.09448818897637795
          },
          {
            "duration": 0.5232554999999905,
            "durationTicks": 576,
            "midi": 35,
            "name": "B1",
            "ticks": 107712,
            "time": 97.84877850000001,
            "velocity": 0.09448818897637795
          },
          {
            "duration": 0.5232554999999905,
            "durationTicks": 576,
            "midi": 24,
            "name": "C1",
            "ticks": 107712,
            "time": 97.84877850000001,
            "velocity": 0.09448818897637795
          },
          {
            "duration": 0.5232554999999905,
            "durationTicks": 576,
            "midi": 38,
            "name": "D2",
            "ticks": 107712,
            "time": 97.84877850000001,
            "velocity": 0.09448818897637795
          },
          {
            "duration": 0.3488370000000032,
            "durationTicks": 384,
            "midi": 24,
            "name": "C1",
            "ticks": 108288,
            "time": 98.372034,
            "velocity": 0.09448818897637795
          },
          {
            "duration": 0.3488370000000032,
            "durationTicks": 384,
            "midi": 38,
            "name": "D2",
            "ticks": 108288,
            "time": 98.372034,
            "velocity": 0.09448818897637795
          },
          {
            "duration": 0.3488370000000032,
            "durationTicks": 384,
            "midi": 35,
            "name": "B1",
            "ticks": 108288,
            "time": 98.372034,
            "velocity": 0.09448818897637795
          },
          {
            "duration": 0.3488370000000032,
            "durationTicks": 384,
            "midi": 38,
            "name": "D2",
            "ticks": 108672,
            "time": 98.720871,
            "velocity": 0.09448818897637795
          },
          {
            "duration": 0.3488370000000032,
            "durationTicks": 384,
            "midi": 35,
            "name": "B1",
            "ticks": 108672,
            "time": 98.720871,
            "velocity": 0.09448818897637795
          },
          {
            "duration": 0.3488370000000032,
            "durationTicks": 384,
            "midi": 24,
            "name": "C1",
            "ticks": 108672,
            "time": 98.720871,
            "velocity": 0.09448818897637795
          },
          {
            "duration": 0.5232554999999905,
            "durationTicks": 576,
            "midi": 40,
            "name": "E2",
            "ticks": 109056,
            "time": 99.069708,
            "velocity": 0.09448818897637795
          },
          {
            "duration": 0.5232554999999905,
            "durationTicks": 576,
            "midi": 28,
            "name": "E1",
            "ticks": 109056,
            "time": 99.069708,
            "velocity": 0.09448818897637795
          },
          {
            "duration": 0.5232554999999905,
            "durationTicks": 576,
            "midi": 35,
            "name": "B1",
            "ticks": 109056,
            "time": 99.069708,
            "velocity": 0.09448818897637795
          },
          {
            "duration": 0.5232555000000048,
            "durationTicks": 576,
            "midi": 28,
            "name": "E1",
            "ticks": 109632,
            "time": 99.5929635,
            "velocity": 0.09448818897637795
          },
          {
            "duration": 0.5232555000000048,
            "durationTicks": 576,
            "midi": 40,
            "name": "E2",
            "ticks": 109632,
            "time": 99.5929635,
            "velocity": 0.09448818897637795
          },
          {
            "duration": 0.5232555000000048,
            "durationTicks": 576,
            "midi": 35,
            "name": "B1",
            "ticks": 109632,
            "time": 99.5929635,
            "velocity": 0.09448818897637795
          },
          {
            "duration": 0.3488370000000032,
            "durationTicks": 384,
            "midi": 28,
            "name": "E1",
            "ticks": 110208,
            "time": 100.116219,
            "velocity": 0.09448818897637795
          },
          {
            "duration": 0.3488370000000032,
            "durationTicks": 384,
            "midi": 40,
            "name": "E2",
            "ticks": 110208,
            "time": 100.116219,
            "velocity": 0.09448818897637795
          },
          {
            "duration": 0.3488370000000032,
            "durationTicks": 384,
            "midi": 35,
            "name": "B1",
            "ticks": 110208,
            "time": 100.116219,
            "velocity": 0.09448818897637795
          },
          {
            "duration": 0.3488370000000032,
            "durationTicks": 384,
            "midi": 40,
            "name": "E2",
            "ticks": 110592,
            "time": 100.465056,
            "velocity": 0.09448818897637795
          },
          {
            "duration": 0.3488370000000032,
            "durationTicks": 384,
            "midi": 35,
            "name": "B1",
            "ticks": 110592,
            "time": 100.465056,
            "velocity": 0.09448818897637795
          },
          {
            "duration": 0.3488370000000032,
            "durationTicks": 384,
            "midi": 28,
            "name": "E1",
            "ticks": 110592,
            "time": 100.465056,
            "velocity": 0.09448818897637795
          },
          {
            "duration": 0.34883699999998896,
            "durationTicks": 384,
            "midi": 35,
            "name": "B1",
            "ticks": 110976,
            "time": 100.81389300000001,
            "velocity": 0.09448818897637795
          },
          {
            "duration": 0.34883699999998896,
            "durationTicks": 384,
            "midi": 40,
            "name": "E2",
            "ticks": 110976,
            "time": 100.81389300000001,
            "velocity": 0.09448818897637795
          },
          {
            "duration": 0.34883699999998896,
            "durationTicks": 384,
            "midi": 28,
            "name": "E1",
            "ticks": 110976,
            "time": 100.81389300000001,
            "velocity": 0.09448818897637795
          },
          {
            "duration": 0.5232555000000048,
            "durationTicks": 576,
            "midi": 36,
            "name": "C2",
            "ticks": 111360,
            "time": 101.16273,
            "velocity": 0.09448818897637795
          },
          {
            "duration": 0.5232555000000048,
            "durationTicks": 576,
            "midi": 31,
            "name": "G1",
            "ticks": 111360,
            "time": 101.16273,
            "velocity": 0.09448818897637795
          },
          {
            "duration": 0.5232555000000048,
            "durationTicks": 576,
            "midi": 24,
            "name": "C1",
            "ticks": 111360,
            "time": 101.16273,
            "velocity": 0.09448818897637795
          },
          {
            "duration": 0.5232555000000048,
            "durationTicks": 576,
            "midi": 24,
            "name": "C1",
            "ticks": 111936,
            "time": 101.6859855,
            "velocity": 0.09448818897637795
          },
          {
            "duration": 0.5232555000000048,
            "durationTicks": 576,
            "midi": 31,
            "name": "G1",
            "ticks": 111936,
            "time": 101.6859855,
            "velocity": 0.09448818897637795
          },
          {
            "duration": 0.5232555000000048,
            "durationTicks": 576,
            "midi": 36,
            "name": "C2",
            "ticks": 111936,
            "time": 101.6859855,
            "velocity": 0.09448818897637795
          },
          {
            "duration": 0.3488370000000032,
            "durationTicks": 384,
            "midi": 36,
            "name": "C2",
            "ticks": 112512,
            "time": 102.209241,
            "velocity": 0.09448818897637795
          },
          {
            "duration": 0.3488370000000032,
            "durationTicks": 384,
            "midi": 31,
            "name": "G1",
            "ticks": 112512,
            "time": 102.209241,
            "velocity": 0.09448818897637795
          },
          {
            "duration": 0.3488370000000032,
            "durationTicks": 384,
            "midi": 24,
            "name": "C1",
            "ticks": 112512,
            "time": 102.209241,
            "velocity": 0.09448818897637795
          },
          {
            "duration": 0.34883699999998896,
            "durationTicks": 384,
            "midi": 24,
            "name": "C1",
            "ticks": 112896,
            "time": 102.55807800000001,
            "velocity": 0.09448818897637795
          },
          {
            "duration": 0.34883699999998896,
            "durationTicks": 384,
            "midi": 31,
            "name": "G1",
            "ticks": 112896,
            "time": 102.55807800000001,
            "velocity": 0.09448818897637795
          },
          {
            "duration": 0.34883699999998896,
            "durationTicks": 384,
            "midi": 36,
            "name": "C2",
            "ticks": 112896,
            "time": 102.55807800000001,
            "velocity": 0.09448818897637795
          },
          {
            "duration": 0.3488370000000032,
            "durationTicks": 384,
            "midi": 24,
            "name": "C1",
            "ticks": 113280,
            "time": 102.906915,
            "velocity": 0.09448818897637795
          },
          {
            "duration": 0.3488370000000032,
            "durationTicks": 384,
            "midi": 36,
            "name": "C2",
            "ticks": 113280,
            "time": 102.906915,
            "velocity": 0.09448818897637795
          },
          {
            "duration": 0.3488370000000032,
            "durationTicks": 384,
            "midi": 31,
            "name": "G1",
            "ticks": 113280,
            "time": 102.906915,
            "velocity": 0.09448818897637795
          },
          {
            "duration": 0.5232555000000048,
            "durationTicks": 576,
            "midi": 24,
            "name": "C1",
            "ticks": 113664,
            "time": 103.255752,
            "velocity": 0.09448818897637795
          },
          {
            "duration": 0.5232555000000048,
            "durationTicks": 576,
            "midi": 33,
            "name": "A1",
            "ticks": 113664,
            "time": 103.255752,
            "velocity": 0.09448818897637795
          },
          {
            "duration": 0.5232554999999905,
            "durationTicks": 576,
            "midi": 24,
            "name": "C1",
            "ticks": 114240,
            "time": 103.7790075,
            "velocity": 0.09448818897637795
          },
          {
            "duration": 0.5232554999999905,
            "durationTicks": 576,
            "midi": 33,
            "name": "A1",
            "ticks": 114240,
            "time": 103.7790075,
            "velocity": 0.09448818897637795
          },
          {
            "duration": 0.3488370000000032,
            "durationTicks": 384,
            "midi": 33,
            "name": "A1",
            "ticks": 114816,
            "time": 104.302263,
            "velocity": 0.09448818897637795
          },
          {
            "duration": 0.3488370000000032,
            "durationTicks": 384,
            "midi": 24,
            "name": "C1",
            "ticks": 114816,
            "time": 104.302263,
            "velocity": 0.09448818897637795
          },
          {
            "duration": 0.3488370000000032,
            "durationTicks": 384,
            "midi": 24,
            "name": "C1",
            "ticks": 115200,
            "time": 104.6511,
            "velocity": 0.09448818897637795
          },
          {
            "duration": 0.3488370000000032,
            "durationTicks": 384,
            "midi": 33,
            "name": "A1",
            "ticks": 115200,
            "time": 104.6511,
            "velocity": 0.09448818897637795
          },
          {
            "duration": 0.3488370000000032,
            "durationTicks": 384,
            "midi": 33,
            "name": "A1",
            "ticks": 115584,
            "time": 104.999937,
            "velocity": 0.09448818897637795
          },
          {
            "duration": 0.3488370000000032,
            "durationTicks": 384,
            "midi": 24,
            "name": "C1",
            "ticks": 115584,
            "time": 104.999937,
            "velocity": 0.09448818897637795
          },
          {
            "duration": 0.5232554999999905,
            "durationTicks": 576,
            "midi": 24,
            "name": "C1",
            "ticks": 115968,
            "time": 105.348774,
            "velocity": 0.09448818897637795
          },
          {
            "duration": 0.5232554999999905,
            "durationTicks": 576,
            "midi": 35,
            "name": "B1",
            "ticks": 115968,
            "time": 105.348774,
            "velocity": 0.09448818897637795
          },
          {
            "duration": 0.5232555000000048,
            "durationTicks": 576,
            "midi": 24,
            "name": "C1",
            "ticks": 116544,
            "time": 105.8720295,
            "velocity": 0.09448818897637795
          },
          {
            "duration": 0.5232555000000048,
            "durationTicks": 576,
            "midi": 35,
            "name": "B1",
            "ticks": 116544,
            "time": 105.8720295,
            "velocity": 0.09448818897637795
          },
          {
            "duration": 0.3488370000000032,
            "durationTicks": 384,
            "midi": 35,
            "name": "B1",
            "ticks": 117120,
            "time": 106.395285,
            "velocity": 0.09448818897637795
          },
          {
            "duration": 0.3488370000000032,
            "durationTicks": 384,
            "midi": 24,
            "name": "C1",
            "ticks": 117120,
            "time": 106.395285,
            "velocity": 0.09448818897637795
          },
          {
            "duration": 0.3488370000000032,
            "durationTicks": 384,
            "midi": 35,
            "name": "B1",
            "ticks": 117504,
            "time": 106.744122,
            "velocity": 0.09448818897637795
          },
          {
            "duration": 0.3488370000000032,
            "durationTicks": 384,
            "midi": 24,
            "name": "C1",
            "ticks": 117504,
            "time": 106.744122,
            "velocity": 0.09448818897637795
          },
          {
            "duration": 0.34883699999998896,
            "durationTicks": 384,
            "midi": 35,
            "name": "B1",
            "ticks": 117888,
            "time": 107.09295900000001,
            "velocity": 0.09448818897637795
          },
          {
            "duration": 0.34883699999998896,
            "durationTicks": 384,
            "midi": 24,
            "name": "C1",
            "ticks": 117888,
            "time": 107.09295900000001,
            "velocity": 0.09448818897637795
          },
          {
            "duration": 0.5232555000000048,
            "durationTicks": 576,
            "midi": 24,
            "name": "C1",
            "ticks": 118272,
            "time": 107.441796,
            "velocity": 0.09448818897637795
          },
          {
            "duration": 0.5232555000000048,
            "durationTicks": 576,
            "midi": 35,
            "name": "B1",
            "ticks": 118272,
            "time": 107.441796,
            "velocity": 0.09448818897637795
          },
          {
            "duration": 0.5232555000000048,
            "durationTicks": 576,
            "midi": 40,
            "name": "E2",
            "ticks": 118272,
            "time": 107.441796,
            "velocity": 0.09448818897637795
          },
          {
            "duration": 0.5232555000000048,
            "durationTicks": 576,
            "midi": 40,
            "name": "E2",
            "ticks": 118848,
            "time": 107.9650515,
            "velocity": 0.09448818897637795
          },
          {
            "duration": 0.5232555000000048,
            "durationTicks": 576,
            "midi": 35,
            "name": "B1",
            "ticks": 118848,
            "time": 107.9650515,
            "velocity": 0.09448818897637795
          },
          {
            "duration": 0.5232555000000048,
            "durationTicks": 576,
            "midi": 24,
            "name": "C1",
            "ticks": 118848,
            "time": 107.9650515,
            "velocity": 0.09448818897637795
          },
          {
            "duration": 0.3488370000000032,
            "durationTicks": 384,
            "midi": 24,
            "name": "C1",
            "ticks": 119424,
            "time": 108.488307,
            "velocity": 0.09448818897637795
          },
          {
            "duration": 0.3488370000000032,
            "durationTicks": 384,
            "midi": 35,
            "name": "B1",
            "ticks": 119424,
            "time": 108.488307,
            "velocity": 0.09448818897637795
          },
          {
            "duration": 0.3488370000000032,
            "durationTicks": 384,
            "midi": 40,
            "name": "E2",
            "ticks": 119424,
            "time": 108.488307,
            "velocity": 0.09448818897637795
          },
          {
            "duration": 0.34883699999998896,
            "durationTicks": 384,
            "midi": 40,
            "name": "E2",
            "ticks": 119808,
            "time": 108.83714400000001,
            "velocity": 0.09448818897637795
          },
          {
            "duration": 0.34883699999998896,
            "durationTicks": 384,
            "midi": 35,
            "name": "B1",
            "ticks": 119808,
            "time": 108.83714400000001,
            "velocity": 0.09448818897637795
          },
          {
            "duration": 0.34883699999998896,
            "durationTicks": 384,
            "midi": 24,
            "name": "C1",
            "ticks": 119808,
            "time": 108.83714400000001,
            "velocity": 0.09448818897637795
          },
          {
            "duration": 0.3488370000000032,
            "durationTicks": 384,
            "midi": 24,
            "name": "C1",
            "ticks": 120192,
            "time": 109.185981,
            "velocity": 0.09448818897637795
          },
          {
            "duration": 0.3488370000000032,
            "durationTicks": 384,
            "midi": 40,
            "name": "E2",
            "ticks": 120192,
            "time": 109.185981,
            "velocity": 0.09448818897637795
          },
          {
            "duration": 0.3488370000000032,
            "durationTicks": 384,
            "midi": 35,
            "name": "B1",
            "ticks": 120192,
            "time": 109.185981,
            "velocity": 0.09448818897637795
          },
          {
            "duration": 0.5232555000000048,
            "durationTicks": 576,
            "midi": 39,
            "name": "D#2",
            "ticks": 120576,
            "time": 109.534818,
            "velocity": 0.09448818897637795
          },
          {
            "duration": 0.5232555000000048,
            "durationTicks": 576,
            "midi": 28,
            "name": "E1",
            "ticks": 120576,
            "time": 109.534818,
            "velocity": 0.09448818897637795
          },
          {
            "duration": 0.5232555000000048,
            "durationTicks": 576,
            "midi": 36,
            "name": "C2",
            "ticks": 120576,
            "time": 109.534818,
            "velocity": 0.09448818897637795
          },
          {
            "duration": 0.5232554999999905,
            "durationTicks": 576,
            "midi": 39,
            "name": "D#2",
            "ticks": 121152,
            "time": 110.0580735,
            "velocity": 0.09448818897637795
          },
          {
            "duration": 0.5232554999999905,
            "durationTicks": 576,
            "midi": 36,
            "name": "C2",
            "ticks": 121152,
            "time": 110.0580735,
            "velocity": 0.09448818897637795
          },
          {
            "duration": 0.5232554999999905,
            "durationTicks": 576,
            "midi": 28,
            "name": "E1",
            "ticks": 121152,
            "time": 110.0580735,
            "velocity": 0.09448818897637795
          },
          {
            "duration": 0.3488370000000032,
            "durationTicks": 384,
            "midi": 36,
            "name": "C2",
            "ticks": 121728,
            "time": 110.581329,
            "velocity": 0.09448818897637795
          },
          {
            "duration": 0.3488370000000032,
            "durationTicks": 384,
            "midi": 28,
            "name": "E1",
            "ticks": 121728,
            "time": 110.581329,
            "velocity": 0.09448818897637795
          },
          {
            "duration": 0.3488370000000032,
            "durationTicks": 384,
            "midi": 39,
            "name": "D#2",
            "ticks": 121728,
            "time": 110.581329,
            "velocity": 0.09448818897637795
          },
          {
            "duration": 0.3488370000000032,
            "durationTicks": 384,
            "midi": 28,
            "name": "E1",
            "ticks": 122112,
            "time": 110.930166,
            "velocity": 0.09448818897637795
          },
          {
            "duration": 0.3488370000000032,
            "durationTicks": 384,
            "midi": 36,
            "name": "C2",
            "ticks": 122112,
            "time": 110.930166,
            "velocity": 0.09448818897637795
          },
          {
            "duration": 0.3488370000000032,
            "durationTicks": 384,
            "midi": 39,
            "name": "D#2",
            "ticks": 122112,
            "time": 110.930166,
            "velocity": 0.09448818897637795
          },
          {
            "duration": 0.3488370000000032,
            "durationTicks": 384,
            "midi": 39,
            "name": "D#2",
            "ticks": 122496,
            "time": 111.279003,
            "velocity": 0.09448818897637795
          },
          {
            "duration": 0.3488370000000032,
            "durationTicks": 384,
            "midi": 36,
            "name": "C2",
            "ticks": 122496,
            "time": 111.279003,
            "velocity": 0.09448818897637795
          },
          {
            "duration": 0.3488370000000032,
            "durationTicks": 384,
            "midi": 28,
            "name": "E1",
            "ticks": 122496,
            "time": 111.279003,
            "velocity": 0.09448818897637795
          },
          {
            "duration": 0.5232554999999905,
            "durationTicks": 576,
            "midi": 24,
            "name": "C1",
            "ticks": 122880,
            "time": 111.62784,
            "velocity": 0.09448818897637795
          },
          {
            "duration": 0.5232554999999905,
            "durationTicks": 576,
            "midi": 35,
            "name": "B1",
            "ticks": 122880,
            "time": 111.62784,
            "velocity": 0.09448818897637795
          },
          {
            "duration": 0.5232554999999905,
            "durationTicks": 576,
            "midi": 38,
            "name": "D2",
            "ticks": 122880,
            "time": 111.62784,
            "velocity": 0.09448818897637795
          },
          {
            "duration": 0.5232555000000048,
            "durationTicks": 576,
            "midi": 24,
            "name": "C1",
            "ticks": 123456,
            "time": 112.1510955,
            "velocity": 0.09448818897637795
          },
          {
            "duration": 0.5232555000000048,
            "durationTicks": 576,
            "midi": 38,
            "name": "D2",
            "ticks": 123456,
            "time": 112.1510955,
            "velocity": 0.09448818897637795
          },
          {
            "duration": 0.5232555000000048,
            "durationTicks": 576,
            "midi": 35,
            "name": "B1",
            "ticks": 123456,
            "time": 112.1510955,
            "velocity": 0.09448818897637795
          },
          {
            "duration": 0.3488370000000032,
            "durationTicks": 384,
            "midi": 38,
            "name": "D2",
            "ticks": 124032,
            "time": 112.674351,
            "velocity": 0.09448818897637795
          },
          {
            "duration": 0.3488370000000032,
            "durationTicks": 384,
            "midi": 24,
            "name": "C1",
            "ticks": 124032,
            "time": 112.674351,
            "velocity": 0.09448818897637795
          },
          {
            "duration": 0.3488370000000032,
            "durationTicks": 384,
            "midi": 35,
            "name": "B1",
            "ticks": 124032,
            "time": 112.674351,
            "velocity": 0.09448818897637795
          },
          {
            "duration": 0.3488370000000032,
            "durationTicks": 384,
            "midi": 35,
            "name": "B1",
            "ticks": 124416,
            "time": 113.023188,
            "velocity": 0.09448818897637795
          },
          {
            "duration": 0.3488370000000032,
            "durationTicks": 384,
            "midi": 38,
            "name": "D2",
            "ticks": 124416,
            "time": 113.023188,
            "velocity": 0.09448818897637795
          },
          {
            "duration": 0.3488370000000032,
            "durationTicks": 384,
            "midi": 24,
            "name": "C1",
            "ticks": 124416,
            "time": 113.023188,
            "velocity": 0.09448818897637795
          },
          {
            "duration": 0.34883699999998896,
            "durationTicks": 384,
            "midi": 24,
            "name": "C1",
            "ticks": 124800,
            "time": 113.37202500000001,
            "velocity": 0.09448818897637795
          },
          {
            "duration": 0.34883699999998896,
            "durationTicks": 384,
            "midi": 38,
            "name": "D2",
            "ticks": 124800,
            "time": 113.37202500000001,
            "velocity": 0.09448818897637795
          },
          {
            "duration": 0.34883699999998896,
            "durationTicks": 384,
            "midi": 35,
            "name": "B1",
            "ticks": 124800,
            "time": 113.37202500000001,
            "velocity": 0.09448818897637795
          },
          {
            "duration": 0.5232555000000048,
            "durationTicks": 576,
            "midi": 28,
            "name": "E1",
            "ticks": 125184,
            "time": 113.720862,
            "velocity": 0.09448818897637795
          },
          {
            "duration": 0.5232555000000048,
            "durationTicks": 576,
            "midi": 35,
            "name": "B1",
            "ticks": 125184,
            "time": 113.720862,
            "velocity": 0.09448818897637795
          },
          {
            "duration": 0.5232555000000048,
            "durationTicks": 576,
            "midi": 40,
            "name": "E2",
            "ticks": 125184,
            "time": 113.720862,
            "velocity": 0.09448818897637795
          },
          {
            "duration": 0.5232555000000048,
            "durationTicks": 576,
            "midi": 28,
            "name": "E1",
            "ticks": 125760,
            "time": 114.2441175,
            "velocity": 0.09448818897637795
          },
          {
            "duration": 0.5232555000000048,
            "durationTicks": 576,
            "midi": 40,
            "name": "E2",
            "ticks": 125760,
            "time": 114.2441175,
            "velocity": 0.09448818897637795
          },
          {
            "duration": 0.5232555000000048,
            "durationTicks": 576,
            "midi": 35,
            "name": "B1",
            "ticks": 125760,
            "time": 114.2441175,
            "velocity": 0.09448818897637795
          },
          {
            "duration": 0.3488370000000032,
            "durationTicks": 384,
            "midi": 28,
            "name": "E1",
            "ticks": 126336,
            "time": 114.767373,
            "velocity": 0.09448818897637795
          },
          {
            "duration": 0.3488370000000032,
            "durationTicks": 384,
            "midi": 40,
            "name": "E2",
            "ticks": 126336,
            "time": 114.767373,
            "velocity": 0.09448818897637795
          },
          {
            "duration": 0.3488370000000032,
            "durationTicks": 384,
            "midi": 35,
            "name": "B1",
            "ticks": 126336,
            "time": 114.767373,
            "velocity": 0.09448818897637795
          },
          {
            "duration": 0.34883699999998896,
            "durationTicks": 384,
            "midi": 28,
            "name": "E1",
            "ticks": 126720,
            "time": 115.11621000000001,
            "velocity": 0.09448818897637795
          },
          {
            "duration": 0.34883699999998896,
            "durationTicks": 384,
            "midi": 35,
            "name": "B1",
            "ticks": 126720,
            "time": 115.11621000000001,
            "velocity": 0.09448818897637795
          },
          {
            "duration": 0.34883699999998896,
            "durationTicks": 384,
            "midi": 40,
            "name": "E2",
            "ticks": 126720,
            "time": 115.11621000000001,
            "velocity": 0.09448818897637795
          },
          {
            "duration": 0.3488370000000032,
            "durationTicks": 384,
            "midi": 35,
            "name": "B1",
            "ticks": 127104,
            "time": 115.465047,
            "velocity": 0.09448818897637795
          },
          {
            "duration": 0.3488370000000032,
            "durationTicks": 384,
            "midi": 28,
            "name": "E1",
            "ticks": 127104,
            "time": 115.465047,
            "velocity": 0.09448818897637795
          },
          {
            "duration": 0.3488370000000032,
            "durationTicks": 384,
            "midi": 40,
            "name": "E2",
            "ticks": 127104,
            "time": 115.465047,
            "velocity": 0.09448818897637795
          },
          {
            "duration": 0.5232555000000048,
            "durationTicks": 576,
            "midi": 36,
            "name": "C2",
            "ticks": 127488,
            "time": 115.813884,
            "velocity": 0.09448818897637795
          },
          {
            "duration": 0.5232555000000048,
            "durationTicks": 576,
            "midi": 31,
            "name": "G1",
            "ticks": 127488,
            "time": 115.813884,
            "velocity": 0.09448818897637795
          },
          {
            "duration": 0.5232555000000048,
            "durationTicks": 576,
            "midi": 24,
            "name": "C1",
            "ticks": 127488,
            "time": 115.813884,
            "velocity": 0.09448818897637795
          },
          {
            "duration": 0.5232554999999905,
            "durationTicks": 576,
            "midi": 36,
            "name": "C2",
            "ticks": 128064,
            "time": 116.3371395,
            "velocity": 0.09448818897637795
          },
          {
            "duration": 0.5232554999999905,
            "durationTicks": 576,
            "midi": 31,
            "name": "G1",
            "ticks": 128064,
            "time": 116.3371395,
            "velocity": 0.09448818897637795
          },
          {
            "duration": 0.5232554999999905,
            "durationTicks": 576,
            "midi": 24,
            "name": "C1",
            "ticks": 128064,
            "time": 116.3371395,
            "velocity": 0.09448818897637795
          },
          {
            "duration": 0.3488370000000032,
            "durationTicks": 384,
            "midi": 36,
            "name": "C2",
            "ticks": 128640,
            "time": 116.860395,
            "velocity": 0.09448818897637795
          },
          {
            "duration": 0.3488370000000032,
            "durationTicks": 384,
            "midi": 24,
            "name": "C1",
            "ticks": 128640,
            "time": 116.860395,
            "velocity": 0.09448818897637795
          },
          {
            "duration": 0.3488370000000032,
            "durationTicks": 384,
            "midi": 31,
            "name": "G1",
            "ticks": 128640,
            "time": 116.860395,
            "velocity": 0.09448818897637795
          },
          {
            "duration": 0.3488370000000032,
            "durationTicks": 384,
            "midi": 31,
            "name": "G1",
            "ticks": 129024,
            "time": 117.209232,
            "velocity": 0.09448818897637795
          },
          {
            "duration": 0.3488370000000032,
            "durationTicks": 384,
            "midi": 36,
            "name": "C2",
            "ticks": 129024,
            "time": 117.209232,
            "velocity": 0.09448818897637795
          },
          {
            "duration": 0.3488370000000032,
            "durationTicks": 384,
            "midi": 24,
            "name": "C1",
            "ticks": 129024,
            "time": 117.209232,
            "velocity": 0.09448818897637795
          },
          {
            "duration": 0.3488370000000032,
            "durationTicks": 384,
            "midi": 31,
            "name": "G1",
            "ticks": 129408,
            "time": 117.558069,
            "velocity": 0.09448818897637795
          },
          {
            "duration": 0.3488370000000032,
            "durationTicks": 384,
            "midi": 36,
            "name": "C2",
            "ticks": 129408,
            "time": 117.558069,
            "velocity": 0.09448818897637795
          },
          {
            "duration": 0.3488370000000032,
            "durationTicks": 384,
            "midi": 24,
            "name": "C1",
            "ticks": 129408,
            "time": 117.558069,
            "velocity": 0.09448818897637795
          },
          {
            "duration": 0.5232554999999905,
            "durationTicks": 576,
            "midi": 24,
            "name": "C1",
            "ticks": 129792,
            "time": 117.906906,
            "velocity": 0.09448818897637795
          },
          {
            "duration": 0.5232554999999905,
            "durationTicks": 576,
            "midi": 33,
            "name": "A1",
            "ticks": 129792,
            "time": 117.906906,
            "velocity": 0.09448818897637795
          },
          {
            "duration": 0.5232555000000048,
            "durationTicks": 576,
            "midi": 24,
            "name": "C1",
            "ticks": 130368,
            "time": 118.4301615,
            "velocity": 0.09448818897637795
          },
          {
            "duration": 0.5232555000000048,
            "durationTicks": 576,
            "midi": 33,
            "name": "A1",
            "ticks": 130368,
            "time": 118.4301615,
            "velocity": 0.09448818897637795
          },
          {
            "duration": 0.3488370000000032,
            "durationTicks": 384,
            "midi": 24,
            "name": "C1",
            "ticks": 130944,
            "time": 118.953417,
            "velocity": 0.09448818897637795
          },
          {
            "duration": 0.3488370000000032,
            "durationTicks": 384,
            "midi": 33,
            "name": "A1",
            "ticks": 130944,
            "time": 118.953417,
            "velocity": 0.09448818897637795
          },
          {
            "duration": 0.3488370000000032,
            "durationTicks": 384,
            "midi": 33,
            "name": "A1",
            "ticks": 131328,
            "time": 119.302254,
            "velocity": 0.09448818897637795
          },
          {
            "duration": 0.3488370000000032,
            "durationTicks": 384,
            "midi": 24,
            "name": "C1",
            "ticks": 131328,
            "time": 119.302254,
            "velocity": 0.09448818897637795
          },
          {
            "duration": 0.34883699999998896,
            "durationTicks": 384,
            "midi": 24,
            "name": "C1",
            "ticks": 131712,
            "time": 119.65109100000001,
            "velocity": 0.09448818897637795
          },
          {
            "duration": 0.34883699999998896,
            "durationTicks": 384,
            "midi": 33,
            "name": "A1",
            "ticks": 131712,
            "time": 119.65109100000001,
            "velocity": 0.09448818897637795
          },
          {
            "duration": 0.5232555000000048,
            "durationTicks": 576,
            "midi": 35,
            "name": "B1",
            "ticks": 132096,
            "time": 119.999928,
            "velocity": 0.09448818897637795
          },
          {
            "duration": 0.5232555000000048,
            "durationTicks": 576,
            "midi": 24,
            "name": "C1",
            "ticks": 132096,
            "time": 119.999928,
            "velocity": 0.09448818897637795
          },
          {
            "duration": 0.5232555000000048,
            "durationTicks": 576,
            "midi": 35,
            "name": "B1",
            "ticks": 132672,
            "time": 120.5231835,
            "velocity": 0.09448818897637795
          },
          {
            "duration": 0.5232555000000048,
            "durationTicks": 576,
            "midi": 24,
            "name": "C1",
            "ticks": 132672,
            "time": 120.5231835,
            "velocity": 0.09448818897637795
          },
          {
            "duration": 0.5232554999999905,
            "durationTicks": 576,
            "midi": 40,
            "name": "E2",
            "ticks": 133248,
            "time": 121.046439,
            "velocity": 0.09448818897637795
          },
          {
            "duration": 0.5232554999999905,
            "durationTicks": 576,
            "midi": 24,
            "name": "C1",
            "ticks": 133248,
            "time": 121.046439,
            "velocity": 0.09448818897637795
          },
          {
            "duration": 0.5232554999999905,
            "durationTicks": 576,
            "midi": 35,
            "name": "B1",
            "ticks": 133248,
            "time": 121.046439,
            "velocity": 0.09448818897637795
          },
          {
            "duration": 0.5232555000000048,
            "durationTicks": 576,
            "midi": 40,
            "name": "E2",
            "ticks": 133824,
            "time": 121.5696945,
            "velocity": 0.09448818897637795
          },
          {
            "duration": 0.5232555000000048,
            "durationTicks": 576,
            "midi": 35,
            "name": "B1",
            "ticks": 133824,
            "time": 121.5696945,
            "velocity": 0.09448818897637795
          },
          {
            "duration": 0.5232555000000048,
            "durationTicks": 576,
            "midi": 24,
            "name": "C1",
            "ticks": 133824,
            "time": 121.5696945,
            "velocity": 0.09448818897637795
          },
          {
            "duration": 0.3488370000000032,
            "durationTicks": 384,
            "midi": 24,
            "name": "C1",
            "ticks": 134400,
            "time": 122.09295,
            "velocity": 0.09448818897637795
          },
          {
            "duration": 0.3488370000000032,
            "durationTicks": 384,
            "midi": 35,
            "name": "B1",
            "ticks": 134400,
            "time": 122.09295,
            "velocity": 0.09448818897637795
          },
          {
            "duration": 0.3488370000000032,
            "durationTicks": 384,
            "midi": 40,
            "name": "E2",
            "ticks": 134400,
            "time": 122.09295,
            "velocity": 0.09448818897637795
          },
          {
            "duration": 0.3488370000000032,
            "durationTicks": 384,
            "midi": 24,
            "name": "C1",
            "ticks": 134784,
            "time": 122.441787,
            "velocity": 0.09448818897637795
          },
          {
            "duration": 0.3488370000000032,
            "durationTicks": 384,
            "midi": 35,
            "name": "B1",
            "ticks": 134784,
            "time": 122.441787,
            "velocity": 0.09448818897637795
          },
          {
            "duration": 0.3488370000000032,
            "durationTicks": 384,
            "midi": 40,
            "name": "E2",
            "ticks": 134784,
            "time": 122.441787,
            "velocity": 0.09448818897637795
          },
          {
            "duration": 0.34883699999998896,
            "durationTicks": 384,
            "midi": 35,
            "name": "B1",
            "ticks": 135168,
            "time": 122.79062400000001,
            "velocity": 0.09448818897637795
          },
          {
            "duration": 0.34883699999998896,
            "durationTicks": 384,
            "midi": 40,
            "name": "E2",
            "ticks": 135168,
            "time": 122.79062400000001,
            "velocity": 0.09448818897637795
          },
          {
            "duration": 0.34883699999998896,
            "durationTicks": 384,
            "midi": 24,
            "name": "C1",
            "ticks": 135168,
            "time": 122.79062400000001,
            "velocity": 0.09448818897637795
          },
          {
            "duration": 0.5232555000000048,
            "durationTicks": 576,
            "midi": 39,
            "name": "D#2",
            "ticks": 135552,
            "time": 123.139461,
            "velocity": 0.09448818897637795
          },
          {
            "duration": 0.5232555000000048,
            "durationTicks": 576,
            "midi": 36,
            "name": "C2",
            "ticks": 135552,
            "time": 123.139461,
            "velocity": 0.09448818897637795
          },
          {
            "duration": 0.5232555000000048,
            "durationTicks": 576,
            "midi": 25,
            "name": "C#1",
            "ticks": 135552,
            "time": 123.139461,
            "velocity": 0.09448818897637795
          },
          {
            "duration": 0.5232555000000048,
            "durationTicks": 576,
            "midi": 39,
            "name": "D#2",
            "ticks": 136128,
            "time": 123.6627165,
            "velocity": 0.09448818897637795
          },
          {
            "duration": 0.5232555000000048,
            "durationTicks": 576,
            "midi": 36,
            "name": "C2",
            "ticks": 136128,
            "time": 123.6627165,
            "velocity": 0.09448818897637795
          },
          {
            "duration": 0.5232555000000048,
            "durationTicks": 576,
            "midi": 25,
            "name": "C#1",
            "ticks": 136128,
            "time": 123.6627165,
            "velocity": 0.09448818897637795
          },
          {
            "duration": 0.3488370000000032,
            "durationTicks": 384,
            "midi": 39,
            "name": "D#2",
            "ticks": 136704,
            "time": 124.185972,
            "velocity": 0.09448818897637795
          },
          {
            "duration": 0.3488370000000032,
            "durationTicks": 384,
            "midi": 36,
            "name": "C2",
            "ticks": 136704,
            "time": 124.185972,
            "velocity": 0.09448818897637795
          },
          {
            "duration": 0.3488370000000032,
            "durationTicks": 384,
            "midi": 25,
            "name": "C#1",
            "ticks": 136704,
            "time": 124.185972,
            "velocity": 0.09448818897637795
          },
          {
            "duration": 0.34883699999998896,
            "durationTicks": 384,
            "midi": 25,
            "name": "C#1",
            "ticks": 137088,
            "time": 124.53480900000001,
            "velocity": 0.09448818897637795
          },
          {
            "duration": 0.34883699999998896,
            "durationTicks": 384,
            "midi": 39,
            "name": "D#2",
            "ticks": 137088,
            "time": 124.53480900000001,
            "velocity": 0.09448818897637795
          },
          {
            "duration": 0.34883699999998896,
            "durationTicks": 384,
            "midi": 36,
            "name": "C2",
            "ticks": 137088,
            "time": 124.53480900000001,
            "velocity": 0.09448818897637795
          },
          {
            "duration": 0.3488370000000032,
            "durationTicks": 384,
            "midi": 39,
            "name": "D#2",
            "ticks": 137472,
            "time": 124.883646,
            "velocity": 0.09448818897637795
          },
          {
            "duration": 0.3488370000000032,
            "durationTicks": 384,
            "midi": 25,
            "name": "C#1",
            "ticks": 137472,
            "time": 124.883646,
            "velocity": 0.09448818897637795
          },
          {
            "duration": 0.3488370000000032,
            "durationTicks": 384,
            "midi": 36,
            "name": "C2",
            "ticks": 137472,
            "time": 124.883646,
            "velocity": 0.09448818897637795
          },
          {
            "duration": 0.5232555000000048,
            "durationTicks": 576,
            "midi": 38,
            "name": "D2",
            "ticks": 137856,
            "time": 125.232483,
            "velocity": 0.09448818897637795
          },
          {
            "duration": 0.5232555000000048,
            "durationTicks": 576,
            "midi": 35,
            "name": "B1",
            "ticks": 137856,
            "time": 125.232483,
            "velocity": 0.09448818897637795
          },
          {
            "duration": 0.5232555000000048,
            "durationTicks": 576,
            "midi": 24,
            "name": "C1",
            "ticks": 137856,
            "time": 125.232483,
            "velocity": 0.09448818897637795
          },
          {
            "duration": 0.5232554999999905,
            "durationTicks": 576,
            "midi": 24,
            "name": "C1",
            "ticks": 138432,
            "time": 125.7557385,
            "velocity": 0.09448818897637795
          },
          {
            "duration": 0.5232554999999905,
            "durationTicks": 576,
            "midi": 38,
            "name": "D2",
            "ticks": 138432,
            "time": 125.7557385,
            "velocity": 0.09448818897637795
          },
          {
            "duration": 0.5232554999999905,
            "durationTicks": 576,
            "midi": 35,
            "name": "B1",
            "ticks": 138432,
            "time": 125.7557385,
            "velocity": 0.09448818897637795
          },
          {
            "duration": 0.3488370000000032,
            "durationTicks": 384,
            "midi": 38,
            "name": "D2",
            "ticks": 139008,
            "time": 126.278994,
            "velocity": 0.09448818897637795
          },
          {
            "duration": 0.3488370000000032,
            "durationTicks": 384,
            "midi": 35,
            "name": "B1",
            "ticks": 139008,
            "time": 126.278994,
            "velocity": 0.09448818897637795
          },
          {
            "duration": 0.3488370000000032,
            "durationTicks": 384,
            "midi": 24,
            "name": "C1",
            "ticks": 139008,
            "time": 126.278994,
            "velocity": 0.09448818897637795
          },
          {
            "duration": 0.3488370000000032,
            "durationTicks": 384,
            "midi": 38,
            "name": "D2",
            "ticks": 139392,
            "time": 126.627831,
            "velocity": 0.09448818897637795
          },
          {
            "duration": 0.3488370000000032,
            "durationTicks": 384,
            "midi": 35,
            "name": "B1",
            "ticks": 139392,
            "time": 126.627831,
            "velocity": 0.09448818897637795
          },
          {
            "duration": 0.3488370000000032,
            "durationTicks": 384,
            "midi": 24,
            "name": "C1",
            "ticks": 139392,
            "time": 126.627831,
            "velocity": 0.09448818897637795
          },
          {
            "duration": 0.3488370000000032,
            "durationTicks": 384,
            "midi": 38,
            "name": "D2",
            "ticks": 139776,
            "time": 126.976668,
            "velocity": 0.09448818897637795
          },
          {
            "duration": 0.3488370000000032,
            "durationTicks": 384,
            "midi": 38,
            "name": "D2",
            "ticks": 139776,
            "time": 126.976668,
            "velocity": 0.09448818897637795
          },
          {
            "duration": 0.3488370000000032,
            "durationTicks": 384,
            "midi": 35,
            "name": "B1",
            "ticks": 139776,
            "time": 126.976668,
            "velocity": 0.09448818897637795
          },
          {
            "duration": 0.3488370000000032,
            "durationTicks": 384,
            "midi": 35,
            "name": "B1",
            "ticks": 139776,
            "time": 126.976668,
            "velocity": 0.09448818897637795
          },
          {
            "duration": 0.3488370000000032,
            "durationTicks": 384,
            "midi": 24,
            "name": "C1",
            "ticks": 139776,
            "time": 126.976668,
            "velocity": 0.09448818897637795
          },
          {
            "duration": 0.3488370000000032,
            "durationTicks": 384,
            "midi": 24,
            "name": "C1",
            "ticks": 139776,
            "time": 126.976668,
            "velocity": 0.09448818897637795
          },
          {
            "duration": 0.5232554999999905,
            "durationTicks": 576,
            "midi": 28,
            "name": "E1",
            "ticks": 140160,
            "time": 127.325505,
            "velocity": 0.09448818897637795
          },
          {
            "duration": 0.5232554999999905,
            "durationTicks": 576,
            "midi": 40,
            "name": "E2",
            "ticks": 140160,
            "time": 127.325505,
            "velocity": 0.09448818897637795
          },
          {
            "duration": 0.5232554999999905,
            "durationTicks": 576,
            "midi": 35,
            "name": "B1",
            "ticks": 140160,
            "time": 127.325505,
            "velocity": 0.09448818897637795
          },
          {
            "duration": 0.5232555000000048,
            "durationTicks": 576,
            "midi": 28,
            "name": "E1",
            "ticks": 140736,
            "time": 127.8487605,
            "velocity": 0.09448818897637795
          },
          {
            "duration": 0.5232555000000048,
            "durationTicks": 576,
            "midi": 40,
            "name": "E2",
            "ticks": 140736,
            "time": 127.8487605,
            "velocity": 0.09448818897637795
          },
          {
            "duration": 0.5232555000000048,
            "durationTicks": 576,
            "midi": 35,
            "name": "B1",
            "ticks": 140736,
            "time": 127.8487605,
            "velocity": 0.09448818897637795
          },
          {
            "duration": 0.3488370000000032,
            "durationTicks": 384,
            "midi": 28,
            "name": "E1",
            "ticks": 141312,
            "time": 128.372016,
            "velocity": 0.09448818897637795
          },
          {
            "duration": 0.3488370000000032,
            "durationTicks": 384,
            "midi": 35,
            "name": "B1",
            "ticks": 141312,
            "time": 128.372016,
            "velocity": 0.09448818897637795
          },
          {
            "duration": 0.3488370000000032,
            "durationTicks": 384,
            "midi": 40,
            "name": "E2",
            "ticks": 141312,
            "time": 128.372016,
            "velocity": 0.09448818897637795
          },
          {
            "duration": 0.3488370000000032,
            "durationTicks": 384,
            "midi": 40,
            "name": "E2",
            "ticks": 141696,
            "time": 128.720853,
            "velocity": 0.09448818897637795
          },
          {
            "duration": 0.3488370000000032,
            "durationTicks": 384,
            "midi": 28,
            "name": "E1",
            "ticks": 141696,
            "time": 128.720853,
            "velocity": 0.09448818897637795
          },
          {
            "duration": 0.3488370000000032,
            "durationTicks": 384,
            "midi": 35,
            "name": "B1",
            "ticks": 141696,
            "time": 128.720853,
            "velocity": 0.09448818897637795
          },
          {
            "duration": 0.3488370000000032,
            "durationTicks": 384,
            "midi": 28,
            "name": "E1",
            "ticks": 142080,
            "time": 129.06969,
            "velocity": 0.09448818897637795
          },
          {
            "duration": 0.3488370000000032,
            "durationTicks": 384,
            "midi": 40,
            "name": "E2",
            "ticks": 142080,
            "time": 129.06969,
            "velocity": 0.09448818897637795
          },
          {
            "duration": 0.3488370000000032,
            "durationTicks": 384,
            "midi": 35,
            "name": "B1",
            "ticks": 142080,
            "time": 129.06969,
            "velocity": 0.09448818897637795
          },
          {
            "duration": 0.5232555000000048,
            "durationTicks": 576,
            "midi": 31,
            "name": "G1",
            "ticks": 142464,
            "time": 129.418527,
            "velocity": 0.09448818897637795
          },
          {
            "duration": 0.5232555000000048,
            "durationTicks": 576,
            "midi": 36,
            "name": "C2",
            "ticks": 142464,
            "time": 129.418527,
            "velocity": 0.09448818897637795
          },
          {
            "duration": 0.5232555000000048,
            "durationTicks": 576,
            "midi": 24,
            "name": "C1",
            "ticks": 142464,
            "time": 129.418527,
            "velocity": 0.09448818897637795
          },
          {
            "duration": 0.5232554999999763,
            "durationTicks": 576,
            "midi": 24,
            "name": "C1",
            "ticks": 143040,
            "time": 129.94178250000002,
            "velocity": 0.09448818897637795
          },
          {
            "duration": 0.5232554999999763,
            "durationTicks": 576,
            "midi": 36,
            "name": "C2",
            "ticks": 143040,
            "time": 129.94178250000002,
            "velocity": 0.09448818897637795
          },
          {
            "duration": 0.5232554999999763,
            "durationTicks": 576,
            "midi": 31,
            "name": "G1",
            "ticks": 143040,
            "time": 129.94178250000002,
            "velocity": 0.09448818897637795
          },
          {
            "duration": 0.3488370000000032,
            "durationTicks": 384,
            "midi": 24,
            "name": "C1",
            "ticks": 143616,
            "time": 130.465038,
            "velocity": 0.09448818897637795
          },
          {
            "duration": 0.3488370000000032,
            "durationTicks": 384,
            "midi": 36,
            "name": "C2",
            "ticks": 143616,
            "time": 130.465038,
            "velocity": 0.09448818897637795
          },
          {
            "duration": 0.3488370000000032,
            "durationTicks": 384,
            "midi": 31,
            "name": "G1",
            "ticks": 143616,
            "time": 130.465038,
            "velocity": 0.09448818897637795
          },
          {
            "duration": 0.3488370000000032,
            "durationTicks": 384,
            "midi": 36,
            "name": "C2",
            "ticks": 144000,
            "time": 130.813875,
            "velocity": 0.09448818897637795
          },
          {
            "duration": 0.3488370000000032,
            "durationTicks": 384,
            "midi": 31,
            "name": "G1",
            "ticks": 144000,
            "time": 130.813875,
            "velocity": 0.09448818897637795
          },
          {
            "duration": 0.3488370000000032,
            "durationTicks": 384,
            "midi": 24,
            "name": "C1",
            "ticks": 144000,
            "time": 130.813875,
            "velocity": 0.09448818897637795
          },
          {
            "duration": 0.3488370000000032,
            "durationTicks": 384,
            "midi": 24,
            "name": "C1",
            "ticks": 144384,
            "time": 131.162712,
            "velocity": 0.09448818897637795
          },
          {
            "duration": 0.3488370000000032,
            "durationTicks": 384,
            "midi": 31,
            "name": "G1",
            "ticks": 144384,
            "time": 131.162712,
            "velocity": 0.09448818897637795
          },
          {
            "duration": 0.3488370000000032,
            "durationTicks": 384,
            "midi": 36,
            "name": "C2",
            "ticks": 144384,
            "time": 131.162712,
            "velocity": 0.09448818897637795
          },
          {
            "duration": 0.5232555000000048,
            "durationTicks": 576,
            "midi": 24,
            "name": "C1",
            "ticks": 144768,
            "time": 131.511549,
            "velocity": 0.09448818897637795
          },
          {
            "duration": 0.5232555000000048,
            "durationTicks": 576,
            "midi": 33,
            "name": "A1",
            "ticks": 144768,
            "time": 131.511549,
            "velocity": 0.09448818897637795
          },
          {
            "duration": 0.5232555000000048,
            "durationTicks": 576,
            "midi": 33,
            "name": "A1",
            "ticks": 145344,
            "time": 132.0348045,
            "velocity": 0.09448818897637795
          },
          {
            "duration": 0.5232555000000048,
            "durationTicks": 576,
            "midi": 24,
            "name": "C1",
            "ticks": 145344,
            "time": 132.0348045,
            "velocity": 0.09448818897637795
          },
          {
            "duration": 0.3488370000000032,
            "durationTicks": 384,
            "midi": 24,
            "name": "C1",
            "ticks": 145920,
            "time": 132.55806,
            "velocity": 0.09448818897637795
          },
          {
            "duration": 0.3488370000000032,
            "durationTicks": 384,
            "midi": 33,
            "name": "A1",
            "ticks": 145920,
            "time": 132.55806,
            "velocity": 0.09448818897637795
          },
          {
            "duration": 0.34883699999997475,
            "durationTicks": 384,
            "midi": 33,
            "name": "A1",
            "ticks": 146304,
            "time": 132.90689700000001,
            "velocity": 0.09448818897637795
          },
          {
            "duration": 0.34883699999997475,
            "durationTicks": 384,
            "midi": 24,
            "name": "C1",
            "ticks": 146304,
            "time": 132.90689700000001,
            "velocity": 0.09448818897637795
          },
          {
            "duration": 0.3488370000000032,
            "durationTicks": 384,
            "midi": 33,
            "name": "A1",
            "ticks": 146688,
            "time": 133.255734,
            "velocity": 0.09448818897637795
          },
          {
            "duration": 0.3488370000000032,
            "durationTicks": 384,
            "midi": 24,
            "name": "C1",
            "ticks": 146688,
            "time": 133.255734,
            "velocity": 0.09448818897637795
          },
          {
            "duration": 0.5232555000000048,
            "durationTicks": 576,
            "midi": 35,
            "name": "B1",
            "ticks": 147072,
            "time": 133.604571,
            "velocity": 0.09448818897637795
          },
          {
            "duration": 0.5232555000000048,
            "durationTicks": 576,
            "midi": 24,
            "name": "C1",
            "ticks": 147072,
            "time": 133.604571,
            "velocity": 0.09448818897637795
          },
          {
            "duration": 0.5232555000000048,
            "durationTicks": 576,
            "midi": 24,
            "name": "C1",
            "ticks": 147648,
            "time": 134.1278265,
            "velocity": 0.09448818897637795
          },
          {
            "duration": 0.5232555000000048,
            "durationTicks": 576,
            "midi": 35,
            "name": "B1",
            "ticks": 147648,
            "time": 134.1278265,
            "velocity": 0.09448818897637795
          },
          {
            "duration": 0.3488370000000032,
            "durationTicks": 384,
            "midi": 24,
            "name": "C1",
            "ticks": 148224,
            "time": 134.651082,
            "velocity": 0.09448818897637795
          },
          {
            "duration": 0.3488370000000032,
            "durationTicks": 384,
            "midi": 35,
            "name": "B1",
            "ticks": 148224,
            "time": 134.651082,
            "velocity": 0.09448818897637795
          },
          {
            "duration": 0.3488370000000032,
            "durationTicks": 384,
            "midi": 35,
            "name": "B1",
            "ticks": 148608,
            "time": 134.999919,
            "velocity": 0.09448818897637795
          },
          {
            "duration": 0.3488370000000032,
            "durationTicks": 384,
            "midi": 24,
            "name": "C1",
            "ticks": 148608,
            "time": 134.999919,
            "velocity": 0.09448818897637795
          },
          {
            "duration": 0.3488370000000032,
            "durationTicks": 384,
            "midi": 24,
            "name": "C1",
            "ticks": 148992,
            "time": 135.348756,
            "velocity": 0.09448818897637795
          },
          {
            "duration": 0.3488370000000032,
            "durationTicks": 384,
            "midi": 35,
            "name": "B1",
            "ticks": 148992,
            "time": 135.348756,
            "velocity": 0.09448818897637795
          },
          {
            "duration": 0.5232555000000048,
            "durationTicks": 576,
            "midi": 24,
            "name": "C1",
            "ticks": 149376,
            "time": 135.697593,
            "velocity": 0.09448818897637795
          },
          {
            "duration": 0.5232555000000048,
            "durationTicks": 576,
            "midi": 40,
            "name": "E2",
            "ticks": 149376,
            "time": 135.697593,
            "velocity": 0.09448818897637795
          },
          {
            "duration": 0.5232555000000048,
            "durationTicks": 576,
            "midi": 35,
            "name": "B1",
            "ticks": 149376,
            "time": 135.697593,
            "velocity": 0.09448818897637795
          },
          {
            "duration": 0.5232554999999763,
            "durationTicks": 576,
            "midi": 24,
            "name": "C1",
            "ticks": 149952,
            "time": 136.22084850000002,
            "velocity": 0.09448818897637795
          },
          {
            "duration": 0.5232554999999763,
            "durationTicks": 576,
            "midi": 35,
            "name": "B1",
            "ticks": 149952,
            "time": 136.22084850000002,
            "velocity": 0.09448818897637795
          },
          {
            "duration": 0.5232554999999763,
            "durationTicks": 576,
            "midi": 40,
            "name": "E2",
            "ticks": 149952,
            "time": 136.22084850000002,
            "velocity": 0.09448818897637795
          },
          {
            "duration": 0.3488370000000032,
            "durationTicks": 384,
            "midi": 24,
            "name": "C1",
            "ticks": 150528,
            "time": 136.744104,
            "velocity": 0.09448818897637795
          },
          {
            "duration": 0.3488370000000032,
            "durationTicks": 384,
            "midi": 35,
            "name": "B1",
            "ticks": 150528,
            "time": 136.744104,
            "velocity": 0.09448818897637795
          },
          {
            "duration": 0.3488370000000032,
            "durationTicks": 384,
            "midi": 40,
            "name": "E2",
            "ticks": 150528,
            "time": 136.744104,
            "velocity": 0.09448818897637795
          },
          {
            "duration": 0.3488370000000032,
            "durationTicks": 384,
            "midi": 35,
            "name": "B1",
            "ticks": 150912,
            "time": 137.092941,
            "velocity": 0.09448818897637795
          },
          {
            "duration": 0.3488370000000032,
            "durationTicks": 384,
            "midi": 40,
            "name": "E2",
            "ticks": 150912,
            "time": 137.092941,
            "velocity": 0.09448818897637795
          },
          {
            "duration": 0.3488370000000032,
            "durationTicks": 384,
            "midi": 24,
            "name": "C1",
            "ticks": 150912,
            "time": 137.092941,
            "velocity": 0.09448818897637795
          },
          {
            "duration": 0.3488370000000032,
            "durationTicks": 384,
            "midi": 24,
            "name": "C1",
            "ticks": 151296,
            "time": 137.441778,
            "velocity": 0.09448818897637795
          },
          {
            "duration": 0.3488370000000032,
            "durationTicks": 384,
            "midi": 40,
            "name": "E2",
            "ticks": 151296,
            "time": 137.441778,
            "velocity": 0.09448818897637795
          },
          {
            "duration": 0.3488370000000032,
            "durationTicks": 384,
            "midi": 35,
            "name": "B1",
            "ticks": 151296,
            "time": 137.441778,
            "velocity": 0.09448818897637795
          },
          {
            "duration": 0.5232555000000048,
            "durationTicks": 576,
            "midi": 39,
            "name": "D#2",
            "ticks": 151680,
            "time": 137.790615,
            "velocity": 0.09448818897637795
          },
          {
            "duration": 0.5232555000000048,
            "durationTicks": 576,
            "midi": 36,
            "name": "C2",
            "ticks": 151680,
            "time": 137.790615,
            "velocity": 0.09448818897637795
          },
          {
            "duration": 0.5232555000000048,
            "durationTicks": 576,
            "midi": 28,
            "name": "E1",
            "ticks": 151680,
            "time": 137.790615,
            "velocity": 0.09448818897637795
          },
          {
            "duration": 0.5232555000000048,
            "durationTicks": 576,
            "midi": 28,
            "name": "E1",
            "ticks": 152256,
            "time": 138.3138705,
            "velocity": 0.09448818897637795
          },
          {
            "duration": 0.5232555000000048,
            "durationTicks": 576,
            "midi": 36,
            "name": "C2",
            "ticks": 152256,
            "time": 138.3138705,
            "velocity": 0.09448818897637795
          },
          {
            "duration": 0.5232555000000048,
            "durationTicks": 576,
            "midi": 39,
            "name": "D#2",
            "ticks": 152256,
            "time": 138.3138705,
            "velocity": 0.09448818897637795
          },
          {
            "duration": 0.3488370000000032,
            "durationTicks": 384,
            "midi": 39,
            "name": "D#2",
            "ticks": 152832,
            "time": 138.837126,
            "velocity": 0.09448818897637795
          },
          {
            "duration": 0.3488370000000032,
            "durationTicks": 384,
            "midi": 36,
            "name": "C2",
            "ticks": 152832,
            "time": 138.837126,
            "velocity": 0.09448818897637795
          },
          {
            "duration": 0.3488370000000032,
            "durationTicks": 384,
            "midi": 28,
            "name": "E1",
            "ticks": 152832,
            "time": 138.837126,
            "velocity": 0.09448818897637795
          },
          {
            "duration": 0.34883699999997475,
            "durationTicks": 384,
            "midi": 36,
            "name": "C2",
            "ticks": 153216,
            "time": 139.18596300000002,
            "velocity": 0.09448818897637795
          },
          {
            "duration": 0.34883699999997475,
            "durationTicks": 384,
            "midi": 39,
            "name": "D#2",
            "ticks": 153216,
            "time": 139.18596300000002,
            "velocity": 0.09448818897637795
          },
          {
            "duration": 0.34883699999997475,
            "durationTicks": 384,
            "midi": 28,
            "name": "E1",
            "ticks": 153216,
            "time": 139.18596300000002,
            "velocity": 0.09448818897637795
          },
          {
            "duration": 0.3488370000000032,
            "durationTicks": 384,
            "midi": 28,
            "name": "E1",
            "ticks": 153600,
            "time": 139.5348,
            "velocity": 0.09448818897637795
          },
          {
            "duration": 0.3488370000000032,
            "durationTicks": 384,
            "midi": 36,
            "name": "C2",
            "ticks": 153600,
            "time": 139.5348,
            "velocity": 0.09448818897637795
          },
          {
            "duration": 0.3488370000000032,
            "durationTicks": 384,
            "midi": 39,
            "name": "D#2",
            "ticks": 153600,
            "time": 139.5348,
            "velocity": 0.09448818897637795
          },
          {
            "duration": 0.5232555000000048,
            "durationTicks": 576,
            "midi": 38,
            "name": "D2",
            "ticks": 153984,
            "time": 139.883637,
            "velocity": 0.09448818897637795
          },
          {
            "duration": 0.5232555000000048,
            "durationTicks": 576,
            "midi": 24,
            "name": "C1",
            "ticks": 153984,
            "time": 139.883637,
            "velocity": 0.09448818897637795
          },
          {
            "duration": 0.5232555000000048,
            "durationTicks": 576,
            "midi": 35,
            "name": "B1",
            "ticks": 153984,
            "time": 139.883637,
            "velocity": 0.09448818897637795
          },
          {
            "duration": 0.5232555000000048,
            "durationTicks": 576,
            "midi": 38,
            "name": "D2",
            "ticks": 154560,
            "time": 140.4068925,
            "velocity": 0.09448818897637795
          },
          {
            "duration": 0.5232555000000048,
            "durationTicks": 576,
            "midi": 24,
            "name": "C1",
            "ticks": 154560,
            "time": 140.4068925,
            "velocity": 0.09448818897637795
          },
          {
            "duration": 0.5232555000000048,
            "durationTicks": 576,
            "midi": 35,
            "name": "B1",
            "ticks": 154560,
            "time": 140.4068925,
            "velocity": 0.09448818897637795
          },
          {
            "duration": 0.3488370000000032,
            "durationTicks": 384,
            "midi": 38,
            "name": "D2",
            "ticks": 155136,
            "time": 140.930148,
            "velocity": 0.09448818897637795
          },
          {
            "duration": 0.3488370000000032,
            "durationTicks": 384,
            "midi": 35,
            "name": "B1",
            "ticks": 155136,
            "time": 140.930148,
            "velocity": 0.09448818897637795
          },
          {
            "duration": 0.3488370000000032,
            "durationTicks": 384,
            "midi": 24,
            "name": "C1",
            "ticks": 155136,
            "time": 140.930148,
            "velocity": 0.09448818897637795
          },
          {
            "duration": 0.3488370000000032,
            "durationTicks": 384,
            "midi": 24,
            "name": "C1",
            "ticks": 155520,
            "time": 141.278985,
            "velocity": 0.09448818897637795
          },
          {
            "duration": 0.3488370000000032,
            "durationTicks": 384,
            "midi": 35,
            "name": "B1",
            "ticks": 155520,
            "time": 141.278985,
            "velocity": 0.09448818897637795
          },
          {
            "duration": 0.3488370000000032,
            "durationTicks": 384,
            "midi": 38,
            "name": "D2",
            "ticks": 155520,
            "time": 141.278985,
            "velocity": 0.09448818897637795
          },
          {
            "duration": 0.3488370000000032,
            "durationTicks": 384,
            "midi": 38,
            "name": "D2",
            "ticks": 155904,
            "time": 141.627822,
            "velocity": 0.09448818897637795
          },
          {
            "duration": 0.3488370000000032,
            "durationTicks": 384,
            "midi": 35,
            "name": "B1",
            "ticks": 155904,
            "time": 141.627822,
            "velocity": 0.09448818897637795
          },
          {
            "duration": 0.3488370000000032,
            "durationTicks": 384,
            "midi": 24,
            "name": "C1",
            "ticks": 155904,
            "time": 141.627822,
            "velocity": 0.09448818897637795
          },
          {
            "duration": 0.5232555000000048,
            "durationTicks": 576,
            "midi": 28,
            "name": "E1",
            "ticks": 156288,
            "time": 141.976659,
            "velocity": 0.09448818897637795
          },
          {
            "duration": 0.5232555000000048,
            "durationTicks": 576,
            "midi": 40,
            "name": "E2",
            "ticks": 156288,
            "time": 141.976659,
            "velocity": 0.09448818897637795
          },
          {
            "duration": 0.5232555000000048,
            "durationTicks": 576,
            "midi": 35,
            "name": "B1",
            "ticks": 156288,
            "time": 141.976659,
            "velocity": 0.09448818897637795
          },
          {
            "duration": 0.5232554999999763,
            "durationTicks": 576,
            "midi": 40,
            "name": "E2",
            "ticks": 156864,
            "time": 142.49991450000002,
            "velocity": 0.09448818897637795
          },
          {
            "duration": 0.5232554999999763,
            "durationTicks": 576,
            "midi": 35,
            "name": "B1",
            "ticks": 156864,
            "time": 142.49991450000002,
            "velocity": 0.09448818897637795
          },
          {
            "duration": 0.5232554999999763,
            "durationTicks": 576,
            "midi": 28,
            "name": "E1",
            "ticks": 156864,
            "time": 142.49991450000002,
            "velocity": 0.09448818897637795
          },
          {
            "duration": 0.3488370000000032,
            "durationTicks": 384,
            "midi": 35,
            "name": "B1",
            "ticks": 157440,
            "time": 143.02317,
            "velocity": 0.09448818897637795
          },
          {
            "duration": 0.3488370000000032,
            "durationTicks": 384,
            "midi": 40,
            "name": "E2",
            "ticks": 157440,
            "time": 143.02317,
            "velocity": 0.09448818897637795
          },
          {
            "duration": 0.3488370000000032,
            "durationTicks": 384,
            "midi": 28,
            "name": "E1",
            "ticks": 157440,
            "time": 143.02317,
            "velocity": 0.09448818897637795
          },
          {
            "duration": 0.3488370000000032,
            "durationTicks": 384,
            "midi": 40,
            "name": "E2",
            "ticks": 157824,
            "time": 143.372007,
            "velocity": 0.09448818897637795
          },
          {
            "duration": 0.3488370000000032,
            "durationTicks": 384,
            "midi": 28,
            "name": "E1",
            "ticks": 157824,
            "time": 143.372007,
            "velocity": 0.09448818897637795
          },
          {
            "duration": 0.3488370000000032,
            "durationTicks": 384,
            "midi": 35,
            "name": "B1",
            "ticks": 157824,
            "time": 143.372007,
            "velocity": 0.09448818897637795
          },
          {
            "duration": 0.3488370000000032,
            "durationTicks": 384,
            "midi": 40,
            "name": "E2",
            "ticks": 158208,
            "time": 143.720844,
            "velocity": 0.09448818897637795
          },
          {
            "duration": 0.3488370000000032,
            "durationTicks": 384,
            "midi": 35,
            "name": "B1",
            "ticks": 158208,
            "time": 143.720844,
            "velocity": 0.09448818897637795
          },
          {
            "duration": 0.3488370000000032,
            "durationTicks": 384,
            "midi": 28,
            "name": "E1",
            "ticks": 158208,
            "time": 143.720844,
            "velocity": 0.09448818897637795
          },
          {
            "duration": 0.5232555000000048,
            "durationTicks": 576,
            "midi": 36,
            "name": "C2",
            "ticks": 158592,
            "time": 144.069681,
            "velocity": 0.09448818897637795
          },
          {
            "duration": 0.5232555000000048,
            "durationTicks": 576,
            "midi": 24,
            "name": "C1",
            "ticks": 158592,
            "time": 144.069681,
            "velocity": 0.09448818897637795
          },
          {
            "duration": 0.5232555000000048,
            "durationTicks": 576,
            "midi": 31,
            "name": "G1",
            "ticks": 158592,
            "time": 144.069681,
            "velocity": 0.09448818897637795
          },
          {
            "duration": 0.5232555000000048,
            "durationTicks": 576,
            "midi": 24,
            "name": "C1",
            "ticks": 159168,
            "time": 144.5929365,
            "velocity": 0.09448818897637795
          },
          {
            "duration": 0.5232555000000048,
            "durationTicks": 576,
            "midi": 31,
            "name": "G1",
            "ticks": 159168,
            "time": 144.5929365,
            "velocity": 0.09448818897637795
          },
          {
            "duration": 0.5232555000000048,
            "durationTicks": 576,
            "midi": 36,
            "name": "C2",
            "ticks": 159168,
            "time": 144.5929365,
            "velocity": 0.09448818897637795
          },
          {
            "duration": 0.3488370000000032,
            "durationTicks": 384,
            "midi": 24,
            "name": "C1",
            "ticks": 159744,
            "time": 145.116192,
            "velocity": 0.09448818897637795
          },
          {
            "duration": 0.3488370000000032,
            "durationTicks": 384,
            "midi": 36,
            "name": "C2",
            "ticks": 159744,
            "time": 145.116192,
            "velocity": 0.09448818897637795
          },
          {
            "duration": 0.3488370000000032,
            "durationTicks": 384,
            "midi": 31,
            "name": "G1",
            "ticks": 159744,
            "time": 145.116192,
            "velocity": 0.09448818897637795
          },
          {
            "duration": 0.34883699999997475,
            "durationTicks": 384,
            "midi": 31,
            "name": "G1",
            "ticks": 160128,
            "time": 145.46502900000002,
            "velocity": 0.09448818897637795
          },
          {
            "duration": 0.34883699999997475,
            "durationTicks": 384,
            "midi": 24,
            "name": "C1",
            "ticks": 160128,
            "time": 145.46502900000002,
            "velocity": 0.09448818897637795
          },
          {
            "duration": 0.34883699999997475,
            "durationTicks": 384,
            "midi": 36,
            "name": "C2",
            "ticks": 160128,
            "time": 145.46502900000002,
            "velocity": 0.09448818897637795
          },
          {
            "duration": 0.3488370000000032,
            "durationTicks": 384,
            "midi": 24,
            "name": "C1",
            "ticks": 160512,
            "time": 145.813866,
            "velocity": 0.09448818897637795
          },
          {
            "duration": 0.3488370000000032,
            "durationTicks": 384,
            "midi": 36,
            "name": "C2",
            "ticks": 160512,
            "time": 145.813866,
            "velocity": 0.09448818897637795
          },
          {
            "duration": 0.3488370000000032,
            "durationTicks": 384,
            "midi": 31,
            "name": "G1",
            "ticks": 160512,
            "time": 145.813866,
            "velocity": 0.09448818897637795
          },
          {
            "duration": 0.5232555000000048,
            "durationTicks": 576,
            "midi": 33,
            "name": "A1",
            "ticks": 160896,
            "time": 146.162703,
            "velocity": 0.09448818897637795
          },
          {
            "duration": 0.5232555000000048,
            "durationTicks": 576,
            "midi": 24,
            "name": "C1",
            "ticks": 160896,
            "time": 146.162703,
            "velocity": 0.09448818897637795
          },
          {
            "duration": 0.5232555000000048,
            "durationTicks": 576,
            "midi": 24,
            "name": "C1",
            "ticks": 161472,
            "time": 146.6859585,
            "velocity": 0.09448818897637795
          },
          {
            "duration": 0.5232555000000048,
            "durationTicks": 576,
            "midi": 33,
            "name": "A1",
            "ticks": 161472,
            "time": 146.6859585,
            "velocity": 0.09448818897637795
          },
          {
            "duration": 0.3488370000000032,
            "durationTicks": 384,
            "midi": 33,
            "name": "A1",
            "ticks": 162048,
            "time": 147.209214,
            "velocity": 0.09448818897637795
          },
          {
            "duration": 0.3488370000000032,
            "durationTicks": 384,
            "midi": 24,
            "name": "C1",
            "ticks": 162048,
            "time": 147.209214,
            "velocity": 0.09448818897637795
          },
          {
            "duration": 0.3488370000000032,
            "durationTicks": 384,
            "midi": 33,
            "name": "A1",
            "ticks": 162432,
            "time": 147.558051,
            "velocity": 0.09448818897637795
          },
          {
            "duration": 0.3488370000000032,
            "durationTicks": 384,
            "midi": 24,
            "name": "C1",
            "ticks": 162432,
            "time": 147.558051,
            "velocity": 0.09448818897637795
          },
          {
            "duration": 0.3488370000000032,
            "durationTicks": 384,
            "midi": 24,
            "name": "C1",
            "ticks": 162816,
            "time": 147.906888,
            "velocity": 0.09448818897637795
          },
          {
            "duration": 0.3488370000000032,
            "durationTicks": 384,
            "midi": 33,
            "name": "A1",
            "ticks": 162816,
            "time": 147.906888,
            "velocity": 0.09448818897637795
          },
          {
            "duration": 0.5232555000000048,
            "durationTicks": 576,
            "midi": 35,
            "name": "B1",
            "ticks": 163200,
            "time": 148.255725,
            "velocity": 0.09448818897637795
          },
          {
            "duration": 0.5232555000000048,
            "durationTicks": 576,
            "midi": 24,
            "name": "C1",
            "ticks": 163200,
            "time": 148.255725,
            "velocity": 0.09448818897637795
          },
          {
            "duration": 0.5232554999999763,
            "durationTicks": 576,
            "midi": 35,
            "name": "B1",
            "ticks": 163776,
            "time": 148.77898050000002,
            "velocity": 0.09448818897637795
          },
          {
            "duration": 0.5232554999999763,
            "durationTicks": 576,
            "midi": 24,
            "name": "C1",
            "ticks": 163776,
            "time": 148.77898050000002,
            "velocity": 0.09448818897637795
          },
          {
            "duration": 0.5232555000000048,
            "durationTicks": 576,
            "midi": 40,
            "name": "E2",
            "ticks": 164352,
            "time": 149.302236,
            "velocity": 0.09448818897637795
          },
          {
            "duration": 0.5232555000000048,
            "durationTicks": 576,
            "midi": 24,
            "name": "C1",
            "ticks": 164352,
            "time": 149.302236,
            "velocity": 0.09448818897637795
          },
          {
            "duration": 0.5232555000000048,
            "durationTicks": 576,
            "midi": 35,
            "name": "B1",
            "ticks": 164352,
            "time": 149.302236,
            "velocity": 0.09448818897637795
          },
          {
            "duration": 0.5232555000000048,
            "durationTicks": 576,
            "midi": 35,
            "name": "B1",
            "ticks": 164928,
            "time": 149.8254915,
            "velocity": 0.09448818897637795
          },
          {
            "duration": 0.5232555000000048,
            "durationTicks": 576,
            "midi": 24,
            "name": "C1",
            "ticks": 164928,
            "time": 149.8254915,
            "velocity": 0.09448818897637795
          },
          {
            "duration": 0.5232555000000048,
            "durationTicks": 576,
            "midi": 40,
            "name": "E2",
            "ticks": 164928,
            "time": 149.8254915,
            "velocity": 0.09448818897637795
          },
          {
            "duration": 0.3488370000000032,
            "durationTicks": 384,
            "midi": 24,
            "name": "C1",
            "ticks": 165504,
            "time": 150.348747,
            "velocity": 0.09448818897637795
          },
          {
            "duration": 0.3488370000000032,
            "durationTicks": 384,
            "midi": 35,
            "name": "B1",
            "ticks": 165504,
            "time": 150.348747,
            "velocity": 0.09448818897637795
          },
          {
            "duration": 0.3488370000000032,
            "durationTicks": 384,
            "midi": 40,
            "name": "E2",
            "ticks": 165504,
            "time": 150.348747,
            "velocity": 0.09448818897637795
          },
          {
            "duration": 0.3488370000000032,
            "durationTicks": 384,
            "midi": 40,
            "name": "E2",
            "ticks": 165888,
            "time": 150.697584,
            "velocity": 0.09448818897637795
          },
          {
            "duration": 0.3488370000000032,
            "durationTicks": 384,
            "midi": 35,
            "name": "B1",
            "ticks": 165888,
            "time": 150.697584,
            "velocity": 0.09448818897637795
          },
          {
            "duration": 0.3488370000000032,
            "durationTicks": 384,
            "midi": 24,
            "name": "C1",
            "ticks": 165888,
            "time": 150.697584,
            "velocity": 0.09448818897637795
          },
          {
            "duration": 0.3488370000000032,
            "durationTicks": 384,
            "midi": 24,
            "name": "C1",
            "ticks": 166272,
            "time": 151.046421,
            "velocity": 0.09448818897637795
          },
          {
            "duration": 0.3488370000000032,
            "durationTicks": 384,
            "midi": 35,
            "name": "B1",
            "ticks": 166272,
            "time": 151.046421,
            "velocity": 0.09448818897637795
          },
          {
            "duration": 0.3488370000000032,
            "durationTicks": 384,
            "midi": 40,
            "name": "E2",
            "ticks": 166272,
            "time": 151.046421,
            "velocity": 0.09448818897637795
          },
          {
            "duration": 0.5232555000000048,
            "durationTicks": 576,
            "midi": 25,
            "name": "C#1",
            "ticks": 166656,
            "time": 151.395258,
            "velocity": 0.09448818897637795
          },
          {
            "duration": 0.5232555000000048,
            "durationTicks": 576,
            "midi": 39,
            "name": "D#2",
            "ticks": 166656,
            "time": 151.395258,
            "velocity": 0.09448818897637795
          },
          {
            "duration": 0.5232555000000048,
            "durationTicks": 576,
            "midi": 36,
            "name": "C2",
            "ticks": 166656,
            "time": 151.395258,
            "velocity": 0.09448818897637795
          },
          {
            "duration": 0.5232554999999763,
            "durationTicks": 576,
            "midi": 39,
            "name": "D#2",
            "ticks": 167232,
            "time": 151.91851350000002,
            "velocity": 0.09448818897637795
          },
          {
            "duration": 0.5232554999999763,
            "durationTicks": 576,
            "midi": 36,
            "name": "C2",
            "ticks": 167232,
            "time": 151.91851350000002,
            "velocity": 0.09448818897637795
          },
          {
            "duration": 0.5232554999999763,
            "durationTicks": 576,
            "midi": 25,
            "name": "C#1",
            "ticks": 167232,
            "time": 151.91851350000002,
            "velocity": 0.09448818897637795
          },
          {
            "duration": 0.3488370000000032,
            "durationTicks": 384,
            "midi": 39,
            "name": "D#2",
            "ticks": 167808,
            "time": 152.441769,
            "velocity": 0.09448818897637795
          },
          {
            "duration": 0.3488370000000032,
            "durationTicks": 384,
            "midi": 36,
            "name": "C2",
            "ticks": 167808,
            "time": 152.441769,
            "velocity": 0.09448818897637795
          },
          {
            "duration": 0.3488370000000032,
            "durationTicks": 384,
            "midi": 25,
            "name": "C#1",
            "ticks": 167808,
            "time": 152.441769,
            "velocity": 0.09448818897637795
          },
          {
            "duration": 0.3488370000000032,
            "durationTicks": 384,
            "midi": 25,
            "name": "C#1",
            "ticks": 168192,
            "time": 152.790606,
            "velocity": 0.09448818897637795
          },
          {
            "duration": 0.3488370000000032,
            "durationTicks": 384,
            "midi": 36,
            "name": "C2",
            "ticks": 168192,
            "time": 152.790606,
            "velocity": 0.09448818897637795
          },
          {
            "duration": 0.3488370000000032,
            "durationTicks": 384,
            "midi": 39,
            "name": "D#2",
            "ticks": 168192,
            "time": 152.790606,
            "velocity": 0.09448818897637795
          },
          {
            "duration": 0.3488370000000032,
            "durationTicks": 384,
            "midi": 25,
            "name": "C#1",
            "ticks": 168576,
            "time": 153.139443,
            "velocity": 0.09448818897637795
          },
          {
            "duration": 0.3488370000000032,
            "durationTicks": 384,
            "midi": 36,
            "name": "C2",
            "ticks": 168576,
            "time": 153.139443,
            "velocity": 0.09448818897637795
          },
          {
            "duration": 0.3488370000000032,
            "durationTicks": 384,
            "midi": 39,
            "name": "D#2",
            "ticks": 168576,
            "time": 153.139443,
            "velocity": 0.09448818897637795
          },
          {
            "duration": 0.5232555000000048,
            "durationTicks": 576,
            "midi": 35,
            "name": "B1",
            "ticks": 168960,
            "time": 153.48828,
            "velocity": 0.09448818897637795
          },
          {
            "duration": 0.5232555000000048,
            "durationTicks": 576,
            "midi": 24,
            "name": "C1",
            "ticks": 168960,
            "time": 153.48828,
            "velocity": 0.09448818897637795
          },
          {
            "duration": 0.5232555000000048,
            "durationTicks": 576,
            "midi": 38,
            "name": "D2",
            "ticks": 168960,
            "time": 153.48828,
            "velocity": 0.09448818897637795
          },
          {
            "duration": 0.5232555000000048,
            "durationTicks": 576,
            "midi": 35,
            "name": "B1",
            "ticks": 169536,
            "time": 154.0115355,
            "velocity": 0.09448818897637795
          },
          {
            "duration": 0.5232555000000048,
            "durationTicks": 576,
            "midi": 24,
            "name": "C1",
            "ticks": 169536,
            "time": 154.0115355,
            "velocity": 0.09448818897637795
          },
          {
            "duration": 0.5232555000000048,
            "durationTicks": 576,
            "midi": 38,
            "name": "D2",
            "ticks": 169536,
            "time": 154.0115355,
            "velocity": 0.09448818897637795
          },
          {
            "duration": 0.3488370000000032,
            "durationTicks": 384,
            "midi": 24,
            "name": "C1",
            "ticks": 170112,
            "time": 154.534791,
            "velocity": 0.09448818897637795
          },
          {
            "duration": 0.3488370000000032,
            "durationTicks": 384,
            "midi": 35,
            "name": "B1",
            "ticks": 170112,
            "time": 154.534791,
            "velocity": 0.09448818897637795
          },
          {
            "duration": 0.3488370000000032,
            "durationTicks": 384,
            "midi": 38,
            "name": "D2",
            "ticks": 170112,
            "time": 154.534791,
            "velocity": 0.09448818897637795
          },
          {
            "duration": 0.34883699999997475,
            "durationTicks": 384,
            "midi": 38,
            "name": "D2",
            "ticks": 170496,
            "time": 154.88362800000002,
            "velocity": 0.09448818897637795
          },
          {
            "duration": 0.34883699999997475,
            "durationTicks": 384,
            "midi": 35,
            "name": "B1",
            "ticks": 170496,
            "time": 154.88362800000002,
            "velocity": 0.09448818897637795
          },
          {
            "duration": 0.34883699999997475,
            "durationTicks": 384,
            "midi": 24,
            "name": "C1",
            "ticks": 170496,
            "time": 154.88362800000002,
            "velocity": 0.09448818897637795
          },
          {
            "duration": 0.3488370000000032,
            "durationTicks": 384,
            "midi": 38,
            "name": "D2",
            "ticks": 170880,
            "time": 155.232465,
            "velocity": 0.09448818897637795
          },
          {
            "duration": 0.3488370000000032,
            "durationTicks": 384,
            "midi": 24,
            "name": "C1",
            "ticks": 170880,
            "time": 155.232465,
            "velocity": 0.09448818897637795
          },
          {
            "duration": 0.3488370000000032,
            "durationTicks": 384,
            "midi": 35,
            "name": "B1",
            "ticks": 170880,
            "time": 155.232465,
            "velocity": 0.09448818897637795
          }
        ],
        "endOfTrackTicks": 171264
      }
    ]
  }