{
    "header": {
      "keySignatures": [],
      "meta": [],
      "name": "Grand Piano\u0000",
      "ppq": 96,
      "tempos": [],
      "timeSignatures": [
        {
          "ticks": 0,
          "timeSignature": [
            4,
            4
          ],
          "measures": 0
        },
        {
          "ticks": 0,
          "timeSignature": [
            4,
            4
          ],
          "measures": 0
        }
      ]
    },
    "tracks": [
      {
        "channel": 0,
        "controlChanges": {},
        "pitchBends": [],
        "instrument": {
          "family": "piano",
          "number": 0,
          "name": "acoustic grand piano"
        },
        "name": "Grand Piano\u0000",
        "notes": [
          {
            "duration": 0.13020833333333334,
            "durationTicks": 25,
            "midi": 46,
            "name": "A#2",
            "ticks": 0,
            "time": 0,
            "velocity": 0.7401574803149606
          },
          {
            "duration": 0.15104166666666669,
            "durationTicks": 29,
            "midi": 70,
            "name": "A#4",
            "ticks": 24,
            "time": 0.125,
            "velocity": 0.5511811023622047
          },
          {
            "duration": 0.125,
            "durationTicks": 24,
            "midi": 68,
            "name": "G#4",
            "ticks": 48,
            "time": 0.25,
            "velocity": 0.7559055118110236
          },
          {
            "duration": 0.125,
            "durationTicks": 24,
            "midi": 70,
            "name": "A#4",
            "ticks": 72,
            "time": 0.375,
            "velocity": 0.7559055118110236
          },
          {
            "duration": 0.15104166666666663,
            "durationTicks": 29,
            "midi": 66,
            "name": "F#4",
            "ticks": 96,
            "time": 0.5,
            "velocity": 0.7952755905511811
          },
          {
            "duration": 0.125,
            "durationTicks": 24,
            "midi": 70,
            "name": "A#4",
            "ticks": 120,
            "time": 0.625,
            "velocity": 0.4881889763779528
          },
          {
            "duration": 0.13020833333333337,
            "durationTicks": 25,
            "midi": 65,
            "name": "F4",
            "ticks": 144,
            "time": 0.75,
            "velocity": 0.7165354330708661
          },
          {
            "duration": 0.125,
            "durationTicks": 24,
            "midi": 70,
            "name": "A#4",
            "ticks": 168,
            "time": 0.875,
            "velocity": 0.4881889763779528
          },
          {
            "duration": 0.15104166666666674,
            "durationTicks": 29,
            "midi": 64,
            "name": "E4",
            "ticks": 192,
            "time": 1,
            "velocity": 0.7952755905511811
          },
          {
            "duration": 0.125,
            "durationTicks": 24,
            "midi": 70,
            "name": "A#4",
            "ticks": 216,
            "time": 1.125,
            "velocity": 0.4881889763779528
          },
          {
            "duration": 0.13020833333333326,
            "durationTicks": 25,
            "midi": 65,
            "name": "F4",
            "ticks": 240,
            "time": 1.25,
            "velocity": 0.7165354330708661
          },
          {
            "duration": 0.125,
            "durationTicks": 24,
            "midi": 70,
            "name": "A#4",
            "ticks": 264,
            "time": 1.375,
            "velocity": 0.4881889763779528
          },
          {
            "duration": 0.15104166666666674,
            "durationTicks": 29,
            "midi": 61,
            "name": "C#4",
            "ticks": 288,
            "time": 1.5,
            "velocity": 0.7952755905511811
          },
          {
            "duration": 0.125,
            "durationTicks": 24,
            "midi": 70,
            "name": "A#4",
            "ticks": 312,
            "time": 1.625,
            "velocity": 0.4881889763779528
          },
          {
            "duration": 0.18229166666666674,
            "durationTicks": 35,
            "midi": 63,
            "name": "D#4",
            "ticks": 336,
            "time": 1.75,
            "velocity": 0.7165354330708661
          },
          {
            "duration": 0.125,
            "durationTicks": 24,
            "midi": 70,
            "name": "A#4",
            "ticks": 360,
            "time": 1.875,
            "velocity": 0.4881889763779528
          },
          {
            "duration": 0.140625,
            "durationTicks": 27,
            "midi": 45,
            "name": "A2",
            "ticks": 384,
            "time": 2,
            "velocity": 0.6850393700787402
          },
          {
            "duration": 0.140625,
            "durationTicks": 27,
            "midi": 70,
            "name": "A#4",
            "ticks": 408,
            "time": 2.125,
            "velocity": 0.5511811023622047
          },
          {
            "duration": 0.11979166666666652,
            "durationTicks": 23,
            "midi": 68,
            "name": "G#4",
            "ticks": 432,
            "time": 2.25,
            "velocity": 0.7559055118110236
          },
          {
            "duration": 0.13020833333333348,
            "durationTicks": 25,
            "midi": 70,
            "name": "A#4",
            "ticks": 456,
            "time": 2.375,
            "velocity": 0.7559055118110236
          },
          {
            "duration": 0.15104166666666652,
            "durationTicks": 29,
            "midi": 66,
            "name": "F#4",
            "ticks": 480,
            "time": 2.5,
            "velocity": 0.7952755905511811
          },
          {
            "duration": 0.125,
            "durationTicks": 24,
            "midi": 70,
            "name": "A#4",
            "ticks": 504,
            "time": 2.625,
            "velocity": 0.4881889763779528
          },
          {
            "duration": 0.13541666666666652,
            "durationTicks": 26,
            "midi": 65,
            "name": "F4",
            "ticks": 528,
            "time": 2.75,
            "velocity": 0.7165354330708661
          },
          {
            "duration": 0.125,
            "durationTicks": 24,
            "midi": 70,
            "name": "A#4",
            "ticks": 552,
            "time": 2.875,
            "velocity": 0.4881889763779528
          },
          {
            "duration": 0.125,
            "durationTicks": 24,
            "midi": 63,
            "name": "D#4",
            "ticks": 576,
            "time": 3,
            "velocity": 0.7952755905511811
          },
          {
            "duration": 0.125,
            "durationTicks": 24,
            "midi": 70,
            "name": "A#4",
            "ticks": 600,
            "time": 3.125,
            "velocity": 0.4881889763779528
          },
          {
            "duration": 0.13541666666666652,
            "durationTicks": 26,
            "midi": 65,
            "name": "F4",
            "ticks": 624,
            "time": 3.25,
            "velocity": 0.7165354330708661
          },
          {
            "duration": 0.125,
            "durationTicks": 24,
            "midi": 70,
            "name": "A#4",
            "ticks": 648,
            "time": 3.375,
            "velocity": 0.4881889763779528
          },
          {
            "duration": 0.4895833333333335,
            "durationTicks": 94,
            "midi": 45,
            "name": "A2",
            "ticks": 672,
            "time": 3.5,
            "velocity": 0.7007874015748031
          },
          {
            "duration": 0.125,
            "durationTicks": 24,
            "midi": 44,
            "name": "G#2",
            "ticks": 768,
            "time": 4,
            "velocity": 0.6692913385826772
          },
          {
            "duration": 0.140625,
            "durationTicks": 27,
            "midi": 70,
            "name": "A#4",
            "ticks": 792,
            "time": 4.125,
            "velocity": 0.5511811023622047
          },
          {
            "duration": 0.125,
            "durationTicks": 24,
            "midi": 68,
            "name": "G#4",
            "ticks": 816,
            "time": 4.25,
            "velocity": 0.7559055118110236
          },
          {
            "duration": 0.13020833333333304,
            "durationTicks": 25,
            "midi": 70,
            "name": "A#4",
            "ticks": 840,
            "time": 4.375,
            "velocity": 0.7559055118110236
          },
          {
            "duration": 0.15104166666666696,
            "durationTicks": 29,
            "midi": 66,
            "name": "F#4",
            "ticks": 864,
            "time": 4.5,
            "velocity": 0.7952755905511811
          },
          {
            "duration": 0.125,
            "durationTicks": 24,
            "midi": 70,
            "name": "A#4",
            "ticks": 888,
            "time": 4.625,
            "velocity": 0.4881889763779528
          },
          {
            "duration": 0.13541666666666696,
            "durationTicks": 26,
            "midi": 65,
            "name": "F4",
            "ticks": 912,
            "time": 4.75,
            "velocity": 0.7165354330708661
          },
          {
            "duration": 0.125,
            "durationTicks": 24,
            "midi": 70,
            "name": "A#4",
            "ticks": 936,
            "time": 4.875,
            "velocity": 0.4881889763779528
          },
          {
            "duration": 0.15104166666666696,
            "durationTicks": 29,
            "midi": 64,
            "name": "E4",
            "ticks": 960,
            "time": 5,
            "velocity": 0.7952755905511811
          },
          {
            "duration": 0.125,
            "durationTicks": 24,
            "midi": 70,
            "name": "A#4",
            "ticks": 984,
            "time": 5.125,
            "velocity": 0.4881889763779528
          },
          {
            "duration": 0.13541666666666696,
            "durationTicks": 26,
            "midi": 65,
            "name": "F4",
            "ticks": 1008,
            "time": 5.25,
            "velocity": 0.7165354330708661
          },
          {
            "duration": 0.125,
            "durationTicks": 24,
            "midi": 70,
            "name": "A#4",
            "ticks": 1032,
            "time": 5.375,
            "velocity": 0.4881889763779528
          },
          {
            "duration": 0.15104166666666696,
            "durationTicks": 29,
            "midi": 61,
            "name": "C#4",
            "ticks": 1056,
            "time": 5.5,
            "velocity": 0.7952755905511811
          },
          {
            "duration": 0.125,
            "durationTicks": 24,
            "midi": 70,
            "name": "A#4",
            "ticks": 1080,
            "time": 5.625,
            "velocity": 0.4881889763779528
          },
          {
            "duration": 0.13020833333333304,
            "durationTicks": 25,
            "midi": 63,
            "name": "D#4",
            "ticks": 1104,
            "time": 5.75,
            "velocity": 0.7165354330708661
          },
          {
            "duration": 0.125,
            "durationTicks": 24,
            "midi": 70,
            "name": "A#4",
            "ticks": 1128,
            "time": 5.875,
            "velocity": 0.4881889763779528
          },
          {
            "duration": 0.13541666666666696,
            "durationTicks": 26,
            "midi": 43,
            "name": "G2",
            "ticks": 1152,
            "time": 6,
            "velocity": 0.6456692913385826
          },
          {
            "duration": 0.14583333333333304,
            "durationTicks": 28,
            "midi": 70,
            "name": "A#4",
            "ticks": 1176,
            "time": 6.125,
            "velocity": 0.5511811023622047
          },
          {
            "duration": 0.125,
            "durationTicks": 24,
            "midi": 68,
            "name": "G#4",
            "ticks": 1200,
            "time": 6.25,
            "velocity": 0.7559055118110236
          },
          {
            "duration": 0.125,
            "durationTicks": 24,
            "midi": 70,
            "name": "A#4",
            "ticks": 1224,
            "time": 6.375,
            "velocity": 0.7559055118110236
          },
          {
            "duration": 0.15104166666666696,
            "durationTicks": 29,
            "midi": 66,
            "name": "F#4",
            "ticks": 1248,
            "time": 6.5,
            "velocity": 0.7952755905511811
          },
          {
            "duration": 0.125,
            "durationTicks": 24,
            "midi": 70,
            "name": "A#4",
            "ticks": 1272,
            "time": 6.625,
            "velocity": 0.4881889763779528
          },
          {
            "duration": 0.13020833333333304,
            "durationTicks": 25,
            "midi": 65,
            "name": "F4",
            "ticks": 1296,
            "time": 6.75,
            "velocity": 0.7165354330708661
          },
          {
            "duration": 0.125,
            "durationTicks": 24,
            "midi": 70,
            "name": "A#4",
            "ticks": 1320,
            "time": 6.875,
            "velocity": 0.4881889763779528
          },
          {
            "duration": 0.203125,
            "durationTicks": 39,
            "midi": 63,
            "name": "D#4",
            "ticks": 1344,
            "time": 7,
            "velocity": 0.7952755905511811
          },
          {
            "duration": 0.125,
            "durationTicks": 24,
            "midi": 70,
            "name": "A#4",
            "ticks": 1368,
            "time": 7.125,
            "velocity": 0.4881889763779528
          },
          {
            "duration": 0.13020833333333304,
            "durationTicks": 25,
            "midi": 65,
            "name": "F4",
            "ticks": 1392,
            "time": 7.25,
            "velocity": 0.7165354330708661
          },
          {
            "duration": 0.125,
            "durationTicks": 24,
            "midi": 70,
            "name": "A#4",
            "ticks": 1416,
            "time": 7.375,
            "velocity": 0.4881889763779528
          },
          {
            "duration": 0.5,
            "durationTicks": 96,
            "midi": 43,
            "name": "G2",
            "ticks": 1440,
            "time": 7.5,
            "velocity": 0.6929133858267716
          },
          {
            "duration": 0.125,
            "durationTicks": 24,
            "midi": 42,
            "name": "F#2",
            "ticks": 1536,
            "time": 8,
            "velocity": 0.6220472440944882
          },
          {
            "duration": 0.15625,
            "durationTicks": 30,
            "midi": 65,
            "name": "F4",
            "ticks": 1560,
            "time": 8.125,
            "velocity": 0.7007874015748031
          },
          {
            "duration": 0.16666666666666607,
            "durationTicks": 32,
            "midi": 66,
            "name": "F#4",
            "ticks": 1584,
            "time": 8.25,
            "velocity": 0.7244094488188977
          },
          {
            "duration": 0.21354166666666607,
            "durationTicks": 41,
            "midi": 68,
            "name": "G#4",
            "ticks": 1608,
            "time": 8.375,
            "velocity": 0.7637795275590551
          },
          {
            "duration": 0.3958333333333339,
            "durationTicks": 76,
            "midi": 70,
            "name": "A#4",
            "ticks": 1632,
            "time": 8.5,
            "velocity": 0.7716535433070866
          },
          {
            "duration": 0.125,
            "durationTicks": 24,
            "midi": 42,
            "name": "F#2",
            "ticks": 1680,
            "time": 8.75,
            "velocity": 0.6692913385826772
          },
          {
            "duration": 0.13541666666666607,
            "durationTicks": 26,
            "midi": 65,
            "name": "F4",
            "ticks": 1704,
            "time": 8.875,
            "velocity": 0.6929133858267716
          },
          {
            "duration": 0.171875,
            "durationTicks": 33,
            "midi": 66,
            "name": "F#4",
            "ticks": 1728,
            "time": 9,
            "velocity": 0.7165354330708661
          },
          {
            "duration": 0.23958333333333393,
            "durationTicks": 46,
            "midi": 72,
            "name": "C5",
            "ticks": 1752,
            "time": 9.125,
            "velocity": 0.7559055118110236
          },
          {
            "duration": 0.5052083333333339,
            "durationTicks": 97,
            "midi": 70,
            "name": "A#4",
            "ticks": 1776,
            "time": 9.25,
            "velocity": 0.7952755905511811
          },
          {
            "duration": 0.5,
            "durationTicks": 96,
            "midi": 42,
            "name": "F#2",
            "ticks": 1824,
            "time": 9.5,
            "velocity": 0.7007874015748031
          },
          {
            "duration": 0.23958333333333393,
            "durationTicks": 46,
            "midi": 65,
            "name": "F4",
            "ticks": 1872,
            "time": 9.75,
            "velocity": 0.6692913385826772
          },
          {
            "duration": 0.125,
            "durationTicks": 24,
            "midi": 41,
            "name": "F2",
            "ticks": 1920,
            "time": 10,
            "velocity": 0.6692913385826772
          },
          {
            "duration": 0.15625,
            "durationTicks": 30,
            "midi": 65,
            "name": "F4",
            "ticks": 1944,
            "time": 10.125,
            "velocity": 0.7007874015748031
          },
          {
            "duration": 0.16666666666666607,
            "durationTicks": 32,
            "midi": 66,
            "name": "F#4",
            "ticks": 1968,
            "time": 10.25,
            "velocity": 0.6850393700787402
          },
          {
            "duration": 0.21354166666666607,
            "durationTicks": 41,
            "midi": 68,
            "name": "G#4",
            "ticks": 1992,
            "time": 10.375,
            "velocity": 0.7637795275590551
          },
          {
            "duration": 0.2916666666666661,
            "durationTicks": 56,
            "midi": 70,
            "name": "A#4",
            "ticks": 2016,
            "time": 10.5,
            "velocity": 0.7716535433070866
          },
          {
            "duration": 0.125,
            "durationTicks": 24,
            "midi": 41,
            "name": "F2",
            "ticks": 2064,
            "time": 10.75,
            "velocity": 0.6692913385826772
          },
          {
            "duration": 0.171875,
            "durationTicks": 33,
            "midi": 70,
            "name": "A#4",
            "ticks": 2088,
            "time": 10.875,
            "velocity": 0.6062992125984252
          },
          {
            "duration": 0.125,
            "durationTicks": 24,
            "midi": 65,
            "name": "F4",
            "ticks": 2112,
            "time": 11,
            "velocity": 0.6692913385826772
          },
          {
            "duration": 0.18229166666666607,
            "durationTicks": 35,
            "midi": 68,
            "name": "G#4",
            "ticks": 2136,
            "time": 11.125,
            "velocity": 0.7795275590551181
          },
          {
            "duration": 0.125,
            "durationTicks": 24,
            "midi": 65,
            "name": "F4",
            "ticks": 2160,
            "time": 11.25,
            "velocity": 0.7322834645669292
          },
          {
            "duration": 0.125,
            "durationTicks": 24,
            "midi": 66,
            "name": "F#4",
            "ticks": 2184,
            "time": 11.375,
            "velocity": 0.6929133858267716
          },
          {
            "duration": 0.125,
            "durationTicks": 24,
            "midi": 65,
            "name": "F4",
            "ticks": 2208,
            "time": 11.5,
            "velocity": 0.6929133858267716
          },
          {
            "duration": 0.125,
            "durationTicks": 24,
            "midi": 61,
            "name": "C#4",
            "ticks": 2232,
            "time": 11.625,
            "velocity": 0.6929133858267716
          },
          {
            "duration": 0.125,
            "durationTicks": 24,
            "midi": 63,
            "name": "D#4",
            "ticks": 2256,
            "time": 11.75,
            "velocity": 0.7007874015748031
          },
          {
            "duration": 0.125,
            "durationTicks": 24,
            "midi": 65,
            "name": "F4",
            "ticks": 2280,
            "time": 11.875,
            "velocity": 0.7401574803149606
          },
          {
            "duration": 0.125,
            "durationTicks": 24,
            "midi": 40,
            "name": "E2",
            "ticks": 2304,
            "time": 12,
            "velocity": 0.6692913385826772
          },
          {
            "duration": 0.15625,
            "durationTicks": 30,
            "midi": 65,
            "name": "F4",
            "ticks": 2328,
            "time": 12.125,
            "velocity": 0.7007874015748031
          },
          {
            "duration": 0.16666666666666607,
            "durationTicks": 32,
            "midi": 66,
            "name": "F#4",
            "ticks": 2352,
            "time": 12.25,
            "velocity": 0.7165354330708661
          },
          {
            "duration": 0.21354166666666607,
            "durationTicks": 41,
            "midi": 68,
            "name": "G#4",
            "ticks": 2376,
            "time": 12.375,
            "velocity": 0.7637795275590551
          },
          {
            "duration": 0.390625,
            "durationTicks": 75,
            "midi": 70,
            "name": "A#4",
            "ticks": 2400,
            "time": 12.5,
            "velocity": 0.7716535433070866
          },
          {
            "duration": 0.125,
            "durationTicks": 24,
            "midi": 40,
            "name": "E2",
            "ticks": 2448,
            "time": 12.75,
            "velocity": 0.6692913385826772
          },
          {
            "duration": 0.13541666666666607,
            "durationTicks": 26,
            "midi": 65,
            "name": "F4",
            "ticks": 2472,
            "time": 12.875,
            "velocity": 0.6377952755905512
          },
          {
            "duration": 0.171875,
            "durationTicks": 33,
            "midi": 66,
            "name": "F#4",
            "ticks": 2496,
            "time": 13,
            "velocity": 0.6850393700787402
          },
          {
            "duration": 0.140625,
            "durationTicks": 27,
            "midi": 72,
            "name": "C5",
            "ticks": 2520,
            "time": 13.125,
            "velocity": 0.7559055118110236
          },
          {
            "duration": 0.3802083333333339,
            "durationTicks": 73,
            "midi": 70,
            "name": "A#4",
            "ticks": 2544,
            "time": 13.25,
            "velocity": 0.7952755905511811
          },
          {
            "duration": 0.265625,
            "durationTicks": 51,
            "midi": 40,
            "name": "E2",
            "ticks": 2592,
            "time": 13.5,
            "velocity": 0.6692913385826772
          },
          {
            "duration": 0.16145833333333393,
            "durationTicks": 31,
            "midi": 65,
            "name": "F4",
            "ticks": 2640,
            "time": 13.75,
            "velocity": 0.7086614173228346
          },
          {
            "duration": 0.11458333333333393,
            "durationTicks": 22,
            "midi": 41,
            "name": "F2",
            "ticks": 2688,
            "time": 14,
            "velocity": 0.7007874015748031
          },
          {
            "duration": 0.125,
            "durationTicks": 24,
            "midi": 70,
            "name": "A#4",
            "ticks": 2712,
            "time": 14.125,
            "velocity": 0.7795275590551181
          },
          {
            "duration": 0.11458333333333393,
            "durationTicks": 22,
            "midi": 41,
            "name": "F2",
            "ticks": 2736,
            "time": 14.25,
            "velocity": 0.7007874015748031
          },
          {
            "duration": 0.125,
            "durationTicks": 24,
            "midi": 68,
            "name": "G#4",
            "ticks": 2760,
            "time": 14.375,
            "velocity": 0.7165354330708661
          },
          {
            "duration": 0.11458333333333393,
            "durationTicks": 22,
            "midi": 41,
            "name": "F2",
            "ticks": 2784,
            "time": 14.5,
            "velocity": 0.7007874015748031
          },
          {
            "duration": 0.125,
            "durationTicks": 24,
            "midi": 66,
            "name": "F#4",
            "ticks": 2808,
            "time": 14.625,
            "velocity": 0.7480314960629921
          },
          {
            "duration": 0.11458333333333393,
            "durationTicks": 22,
            "midi": 41,
            "name": "F2",
            "ticks": 2832,
            "time": 14.75,
            "velocity": 0.7007874015748031
          },
          {
            "duration": 0.125,
            "durationTicks": 24,
            "midi": 65,
            "name": "F4",
            "ticks": 2856,
            "time": 14.875,
            "velocity": 0.7322834645669292
          },
          {
            "duration": 0.11458333333333393,
            "durationTicks": 22,
            "midi": 41,
            "name": "F2",
            "ticks": 2880,
            "time": 15,
            "velocity": 0.7007874015748031
          },
          {
            "duration": 0.125,
            "durationTicks": 24,
            "midi": 63,
            "name": "D#4",
            "ticks": 2904,
            "time": 15.125,
            "velocity": 0.7401574803149606
          },
          {
            "duration": 0.11458333333333393,
            "durationTicks": 22,
            "midi": 41,
            "name": "F2",
            "ticks": 2928,
            "time": 15.25,
            "velocity": 0.7007874015748031
          },
          {
            "duration": 0.125,
            "durationTicks": 24,
            "midi": 61,
            "name": "C#4",
            "ticks": 2952,
            "time": 15.375,
            "velocity": 0.7401574803149606
          },
          {
            "duration": 0.11458333333333393,
            "durationTicks": 22,
            "midi": 41,
            "name": "F2",
            "ticks": 2976,
            "time": 15.5,
            "velocity": 0.7007874015748031
          },
          {
            "duration": 0.17708333333333393,
            "durationTicks": 34,
            "midi": 63,
            "name": "D#4",
            "ticks": 3000,
            "time": 15.625,
            "velocity": 0.7244094488188977
          },
          {
            "duration": 0.11458333333333393,
            "durationTicks": 22,
            "midi": 41,
            "name": "F2",
            "ticks": 3024,
            "time": 15.75,
            "velocity": 0.7007874015748031
          },
          {
            "duration": 0.10416666666666607,
            "durationTicks": 20,
            "midi": 65,
            "name": "F4",
            "ticks": 3048,
            "time": 15.875,
            "velocity": 0.7244094488188977
          },
          {
            "duration": 2.015625,
            "durationTicks": 387,
            "midi": 46,
            "name": "A#2",
            "ticks": 3060,
            "time": 15.9375,
            "velocity": 0.7559055118110236
          },
          {
            "duration": 1.921875,
            "durationTicks": 369,
            "midi": 53,
            "name": "F3",
            "ticks": 3072,
            "time": 16,
            "velocity": 0.7559055118110236
          },
          {
            "duration": 1.828125,
            "durationTicks": 351,
            "midi": 58,
            "name": "A#3",
            "ticks": 3079,
            "time": 16.036458333333332,
            "velocity": 0.5905511811023622
          },
          {
            "duration": 0.15104166666666785,
            "durationTicks": 29,
            "midi": 70,
            "name": "A#4",
            "ticks": 3096,
            "time": 16.125,
            "velocity": 0.5511811023622047
          },
          {
            "duration": 0.125,
            "durationTicks": 24,
            "midi": 68,
            "name": "G#4",
            "ticks": 3120,
            "time": 16.25,
            "velocity": 0.7559055118110236
          },
          {
            "duration": 0.125,
            "durationTicks": 24,
            "midi": 70,
            "name": "A#4",
            "ticks": 3144,
            "time": 16.375,
            "velocity": 0.7559055118110236
          },
          {
            "duration": 0.15104166666666785,
            "durationTicks": 29,
            "midi": 66,
            "name": "F#4",
            "ticks": 3168,
            "time": 16.5,
            "velocity": 0.7952755905511811
          },
          {
            "duration": 0.125,
            "durationTicks": 24,
            "midi": 70,
            "name": "A#4",
            "ticks": 3192,
            "time": 16.625,
            "velocity": 0.4881889763779528
          },
          {
            "duration": 0.13020833333333215,
            "durationTicks": 25,
            "midi": 65,
            "name": "F4",
            "ticks": 3216,
            "time": 16.75,
            "velocity": 0.7165354330708661
          },
          {
            "duration": 0.125,
            "durationTicks": 24,
            "midi": 70,
            "name": "A#4",
            "ticks": 3240,
            "time": 16.875,
            "velocity": 0.4881889763779528
          },
          {
            "duration": 0.15104166666666785,
            "durationTicks": 29,
            "midi": 64,
            "name": "E4",
            "ticks": 3264,
            "time": 17,
            "velocity": 0.7952755905511811
          },
          {
            "duration": 0.125,
            "durationTicks": 24,
            "midi": 70,
            "name": "A#4",
            "ticks": 3288,
            "time": 17.125,
            "velocity": 0.4881889763779528
          },
          {
            "duration": 0.13020833333333215,
            "durationTicks": 25,
            "midi": 65,
            "name": "F4",
            "ticks": 3312,
            "time": 17.25,
            "velocity": 0.7165354330708661
          },
          {
            "duration": 0.125,
            "durationTicks": 24,
            "midi": 70,
            "name": "A#4",
            "ticks": 3336,
            "time": 17.375,
            "velocity": 0.4881889763779528
          },
          {
            "duration": 0.15104166666666785,
            "durationTicks": 29,
            "midi": 61,
            "name": "C#4",
            "ticks": 3360,
            "time": 17.5,
            "velocity": 0.7952755905511811
          },
          {
            "duration": 0.125,
            "durationTicks": 24,
            "midi": 70,
            "name": "A#4",
            "ticks": 3384,
            "time": 17.625,
            "velocity": 0.5511811023622047
          },
          {
            "duration": 0.18229166666666785,
            "durationTicks": 35,
            "midi": 63,
            "name": "D#4",
            "ticks": 3408,
            "time": 17.75,
            "velocity": 0.7165354330708661
          },
          {
            "duration": 0.125,
            "durationTicks": 24,
            "midi": 70,
            "name": "A#4",
            "ticks": 3432,
            "time": 17.875,
            "velocity": 0.4881889763779528
          },
          {
            "duration": 2.057291666666668,
            "durationTicks": 395,
            "midi": 45,
            "name": "A2",
            "ticks": 3450,
            "time": 17.96875,
            "velocity": 0.6692913385826772
          },
          {
            "duration": 1.8229166666666643,
            "durationTicks": 350,
            "midi": 53,
            "name": "F3",
            "ticks": 3452,
            "time": 17.979166666666668,
            "velocity": 0.7165354330708661
          },
          {
            "duration": 1.3489583333333321,
            "durationTicks": 259,
            "midi": 57,
            "name": "A3",
            "ticks": 3456,
            "time": 18,
            "velocity": 0.7559055118110236
          },
          {
            "duration": 0.140625,
            "durationTicks": 27,
            "midi": 70,
            "name": "A#4",
            "ticks": 3480,
            "time": 18.125,
            "velocity": 0.5511811023622047
          },
          {
            "duration": 0.11979166666666785,
            "durationTicks": 23,
            "midi": 68,
            "name": "G#4",
            "ticks": 3504,
            "time": 18.25,
            "velocity": 0.7559055118110236
          },
          {
            "duration": 0.13020833333333215,
            "durationTicks": 25,
            "midi": 70,
            "name": "A#4",
            "ticks": 3528,
            "time": 18.375,
            "velocity": 0.7559055118110236
          },
          {
            "duration": 0.15104166666666785,
            "durationTicks": 29,
            "midi": 66,
            "name": "F#4",
            "ticks": 3552,
            "time": 18.5,
            "velocity": 0.7952755905511811
          },
          {
            "duration": 0.125,
            "durationTicks": 24,
            "midi": 70,
            "name": "A#4",
            "ticks": 3576,
            "time": 18.625,
            "velocity": 0.4881889763779528
          },
          {
            "duration": 0.13541666666666785,
            "durationTicks": 26,
            "midi": 65,
            "name": "F4",
            "ticks": 3600,
            "time": 18.75,
            "velocity": 0.7165354330708661
          },
          {
            "duration": 0.125,
            "durationTicks": 24,
            "midi": 70,
            "name": "A#4",
            "ticks": 3624,
            "time": 18.875,
            "velocity": 0.4881889763779528
          },
          {
            "duration": 0.125,
            "durationTicks": 24,
            "midi": 63,
            "name": "D#4",
            "ticks": 3648,
            "time": 19,
            "velocity": 0.7952755905511811
          },
          {
            "duration": 0.125,
            "durationTicks": 24,
            "midi": 70,
            "name": "A#4",
            "ticks": 3672,
            "time": 19.125,
            "velocity": 0.4881889763779528
          },
          {
            "duration": 0.13541666666666785,
            "durationTicks": 26,
            "midi": 65,
            "name": "F4",
            "ticks": 3696,
            "time": 19.25,
            "velocity": 0.7165354330708661
          },
          {
            "duration": 0.125,
            "durationTicks": 24,
            "midi": 70,
            "name": "A#4",
            "ticks": 3720,
            "time": 19.375,
            "velocity": 0.4881889763779528
          },
          {
            "duration": 0.44791666666666785,
            "durationTicks": 86,
            "midi": 57,
            "name": "A3",
            "ticks": 3744,
            "time": 19.5,
            "velocity": 0.6299212598425197
          },
          {
            "duration": 1.8125,
            "durationTicks": 348,
            "midi": 51,
            "name": "D#3",
            "ticks": 3832,
            "time": 19.958333333333332,
            "velocity": 0.6929133858267716
          },
          {
            "duration": 1.78125,
            "durationTicks": 342,
            "midi": 44,
            "name": "G#2",
            "ticks": 3834,
            "time": 19.96875,
            "velocity": 0.5669291338582677
          },
          {
            "duration": 1.7864583333333321,
            "durationTicks": 343,
            "midi": 56,
            "name": "G#3",
            "ticks": 3840,
            "time": 20,
            "velocity": 0.6220472440944882
          },
          {
            "duration": 0.140625,
            "durationTicks": 27,
            "midi": 70,
            "name": "A#4",
            "ticks": 3864,
            "time": 20.125,
            "velocity": 0.5511811023622047
          },
          {
            "duration": 0.125,
            "durationTicks": 24,
            "midi": 68,
            "name": "G#4",
            "ticks": 3888,
            "time": 20.25,
            "velocity": 0.7559055118110236
          },
          {
            "duration": 0.13020833333333215,
            "durationTicks": 25,
            "midi": 70,
            "name": "A#4",
            "ticks": 3912,
            "time": 20.375,
            "velocity": 0.7559055118110236
          },
          {
            "duration": 0.15104166666666785,
            "durationTicks": 29,
            "midi": 66,
            "name": "F#4",
            "ticks": 3936,
            "time": 20.5,
            "velocity": 0.7952755905511811
          },
          {
            "duration": 0.125,
            "durationTicks": 24,
            "midi": 70,
            "name": "A#4",
            "ticks": 3960,
            "time": 20.625,
            "velocity": 0.4881889763779528
          },
          {
            "duration": 0.13541666666666785,
            "durationTicks": 26,
            "midi": 65,
            "name": "F4",
            "ticks": 3984,
            "time": 20.75,
            "velocity": 0.7165354330708661
          },
          {
            "duration": 0.125,
            "durationTicks": 24,
            "midi": 70,
            "name": "A#4",
            "ticks": 4008,
            "time": 20.875,
            "velocity": 0.4881889763779528
          },
          {
            "duration": 0.15104166666666785,
            "durationTicks": 29,
            "midi": 64,
            "name": "E4",
            "ticks": 4032,
            "time": 21,
            "velocity": 0.7952755905511811
          },
          {
            "duration": 0.125,
            "durationTicks": 24,
            "midi": 70,
            "name": "A#4",
            "ticks": 4056,
            "time": 21.125,
            "velocity": 0.4881889763779528
          },
          {
            "duration": 0.13541666666666785,
            "durationTicks": 26,
            "midi": 65,
            "name": "F4",
            "ticks": 4080,
            "time": 21.25,
            "velocity": 0.7165354330708661
          },
          {
            "duration": 0.125,
            "durationTicks": 24,
            "midi": 70,
            "name": "A#4",
            "ticks": 4104,
            "time": 21.375,
            "velocity": 0.4881889763779528
          },
          {
            "duration": 0.15104166666666785,
            "durationTicks": 29,
            "midi": 61,
            "name": "C#4",
            "ticks": 4128,
            "time": 21.5,
            "velocity": 0.7952755905511811
          },
          {
            "duration": 0.125,
            "durationTicks": 24,
            "midi": 70,
            "name": "A#4",
            "ticks": 4152,
            "time": 21.625,
            "velocity": 0.4881889763779528
          },
          {
            "duration": 0.13020833333333215,
            "durationTicks": 25,
            "midi": 63,
            "name": "D#4",
            "ticks": 4176,
            "time": 21.75,
            "velocity": 0.7165354330708661
          },
          {
            "duration": 0.125,
            "durationTicks": 24,
            "midi": 70,
            "name": "A#4",
            "ticks": 4200,
            "time": 21.875,
            "velocity": 0.4881889763779528
          },
          {
            "duration": 1.7395833333333321,
            "durationTicks": 334,
            "midi": 51,
            "name": "D#3",
            "ticks": 4220,
            "time": 21.979166666666668,
            "velocity": 0.7086614173228346
          },
          {
            "duration": 2.03125,
            "durationTicks": 390,
            "midi": 43,
            "name": "G2",
            "ticks": 4224,
            "time": 22,
            "velocity": 0.6377952755905512
          },
          {
            "duration": 1.0364583333333321,
            "durationTicks": 199,
            "midi": 55,
            "name": "G3",
            "ticks": 4224,
            "time": 22,
            "velocity": 0.6062992125984252
          },
          {
            "duration": 0.14583333333333215,
            "durationTicks": 28,
            "midi": 70,
            "name": "A#4",
            "ticks": 4248,
            "time": 22.125,
            "velocity": 0.5511811023622047
          },
          {
            "duration": 0.125,
            "durationTicks": 24,
            "midi": 68,
            "name": "G#4",
            "ticks": 4272,
            "time": 22.25,
            "velocity": 0.7559055118110236
          },
          {
            "duration": 0.125,
            "durationTicks": 24,
            "midi": 70,
            "name": "A#4",
            "ticks": 4296,
            "time": 22.375,
            "velocity": 0.7559055118110236
          },
          {
            "duration": 0.15104166666666785,
            "durationTicks": 29,
            "midi": 66,
            "name": "F#4",
            "ticks": 4320,
            "time": 22.5,
            "velocity": 0.7952755905511811
          },
          {
            "duration": 0.125,
            "durationTicks": 24,
            "midi": 70,
            "name": "A#4",
            "ticks": 4344,
            "time": 22.625,
            "velocity": 0.4881889763779528
          },
          {
            "duration": 0.13020833333333215,
            "durationTicks": 25,
            "midi": 65,
            "name": "F4",
            "ticks": 4368,
            "time": 22.75,
            "velocity": 0.7165354330708661
          },
          {
            "duration": 0.125,
            "durationTicks": 24,
            "midi": 70,
            "name": "A#4",
            "ticks": 4392,
            "time": 22.875,
            "velocity": 0.4881889763779528
          },
          {
            "duration": 0.203125,
            "durationTicks": 39,
            "midi": 63,
            "name": "D#4",
            "ticks": 4416,
            "time": 23,
            "velocity": 0.7952755905511811
          },
          {
            "duration": 0.125,
            "durationTicks": 24,
            "midi": 70,
            "name": "A#4",
            "ticks": 4440,
            "time": 23.125,
            "velocity": 0.4881889763779528
          },
          {
            "duration": 0.13020833333333215,
            "durationTicks": 25,
            "midi": 65,
            "name": "F4",
            "ticks": 4464,
            "time": 23.25,
            "velocity": 0.7165354330708661
          },
          {
            "duration": 0.125,
            "durationTicks": 24,
            "midi": 70,
            "name": "A#4",
            "ticks": 4488,
            "time": 23.375,
            "velocity": 0.4881889763779528
          },
          {
            "duration": 0.43229166666666785,
            "durationTicks": 83,
            "midi": 55,
            "name": "G3",
            "ticks": 4512,
            "time": 23.5,
            "velocity": 0.5905511811023622
          },
          {
            "duration": 2.15625,
            "durationTicks": 414,
            "midi": 42,
            "name": "F#2",
            "ticks": 4604,
            "time": 23.979166666666668,
            "velocity": 0.5433070866141733
          },
          {
            "duration": 0.47395833333333215,
            "durationTicks": 91,
            "midi": 49,
            "name": "C#3",
            "ticks": 4605,
            "time": 23.984375,
            "velocity": 0.7086614173228346
          },
          {
            "duration": 0.5208333333333321,
            "durationTicks": 100,
            "midi": 54,
            "name": "F#3",
            "ticks": 4608,
            "time": 24,
            "velocity": 0.6692913385826772
          },
          {
            "duration": 0.15625,
            "durationTicks": 30,
            "midi": 65,
            "name": "F4",
            "ticks": 4632,
            "time": 24.125,
            "velocity": 0.7007874015748031
          },
          {
            "duration": 0.16666666666666785,
            "durationTicks": 32,
            "midi": 66,
            "name": "F#4",
            "ticks": 4656,
            "time": 24.25,
            "velocity": 0.7244094488188977
          },
          {
            "duration": 0.21354166666666785,
            "durationTicks": 41,
            "midi": 68,
            "name": "G#4",
            "ticks": 4680,
            "time": 24.375,
            "velocity": 0.7637795275590551
          },
          {
            "duration": 0.39583333333333215,
            "durationTicks": 76,
            "midi": 70,
            "name": "A#4",
            "ticks": 4704,
            "time": 24.5,
            "velocity": 0.7716535433070866
          },
          {
            "duration": 0.5572916666666679,
            "durationTicks": 107,
            "midi": 49,
            "name": "C#3",
            "ticks": 4750,
            "time": 24.739583333333332,
            "velocity": 0.6614173228346457
          },
          {
            "duration": 0.5572916666666643,
            "durationTicks": 107,
            "midi": 54,
            "name": "F#3",
            "ticks": 4751,
            "time": 24.744791666666668,
            "velocity": 0.6614173228346457
          },
          {
            "duration": 0.13541666666666785,
            "durationTicks": 26,
            "midi": 65,
            "name": "F4",
            "ticks": 4776,
            "time": 24.875,
            "velocity": 0.6929133858267716
          },
          {
            "duration": 0.171875,
            "durationTicks": 33,
            "midi": 66,
            "name": "F#4",
            "ticks": 4800,
            "time": 25,
            "velocity": 0.7165354330708661
          },
          {
            "duration": 0.23958333333333215,
            "durationTicks": 46,
            "midi": 72,
            "name": "C5",
            "ticks": 4824,
            "time": 25.125,
            "velocity": 0.7559055118110236
          },
          {
            "duration": 0.5052083333333321,
            "durationTicks": 97,
            "midi": 70,
            "name": "A#4",
            "ticks": 4848,
            "time": 25.25,
            "velocity": 0.7952755905511811
          },
          {
            "duration": 0.38541666666666785,
            "durationTicks": 74,
            "midi": 49,
            "name": "C#3",
            "ticks": 4896,
            "time": 25.5,
            "velocity": 0.48031496062992124
          },
          {
            "duration": 0.28645833333333215,
            "durationTicks": 55,
            "midi": 54,
            "name": "F#3",
            "ticks": 4896,
            "time": 25.5,
            "velocity": 0.6377952755905512
          },
          {
            "duration": 0.23958333333333215,
            "durationTicks": 46,
            "midi": 65,
            "name": "F4",
            "ticks": 4944,
            "time": 25.75,
            "velocity": 0.6692913385826772
          },
          {
            "duration": 1.7708333333333321,
            "durationTicks": 340,
            "midi": 41,
            "name": "F2",
            "ticks": 4988,
            "time": 25.979166666666668,
            "velocity": 0.5905511811023622
          },
          {
            "duration": 1.8072916666666643,
            "durationTicks": 347,
            "midi": 48,
            "name": "C3",
            "ticks": 4988,
            "time": 25.979166666666668,
            "velocity": 0.5511811023622047
          },
          {
            "duration": 1.8802083333333321,
            "durationTicks": 361,
            "midi": 53,
            "name": "F3",
            "ticks": 4992,
            "time": 26,
            "velocity": 0.6692913385826772
          },
          {
            "duration": 0.15625,
            "durationTicks": 30,
            "midi": 65,
            "name": "F4",
            "ticks": 5016,
            "time": 26.125,
            "velocity": 0.7007874015748031
          },
          {
            "duration": 0.16666666666666785,
            "durationTicks": 32,
            "midi": 66,
            "name": "F#4",
            "ticks": 5040,
            "time": 26.25,
            "velocity": 0.6850393700787402
          },
          {
            "duration": 0.21354166666666785,
            "durationTicks": 41,
            "midi": 68,
            "name": "G#4",
            "ticks": 5064,
            "time": 26.375,
            "velocity": 0.7637795275590551
          },
          {
            "duration": 0.29166666666666785,
            "durationTicks": 56,
            "midi": 70,
            "name": "A#4",
            "ticks": 5088,
            "time": 26.5,
            "velocity": 0.7716535433070866
          },
          {
            "duration": 0.171875,
            "durationTicks": 33,
            "midi": 70,
            "name": "A#4",
            "ticks": 5160,
            "time": 26.875,
            "velocity": 0.6062992125984252
          },
          {
            "duration": 0.125,
            "durationTicks": 24,
            "midi": 65,
            "name": "F4",
            "ticks": 5184,
            "time": 27,
            "velocity": 0.6692913385826772
          },
          {
            "duration": 0.18229166666666785,
            "durationTicks": 35,
            "midi": 68,
            "name": "G#4",
            "ticks": 5208,
            "time": 27.125,
            "velocity": 0.7795275590551181
          },
          {
            "duration": 0.125,
            "durationTicks": 24,
            "midi": 65,
            "name": "F4",
            "ticks": 5232,
            "time": 27.25,
            "velocity": 0.7322834645669292
          },
          {
            "duration": 0.125,
            "durationTicks": 24,
            "midi": 66,
            "name": "F#4",
            "ticks": 5256,
            "time": 27.375,
            "velocity": 0.6929133858267716
          },
          {
            "duration": 0.125,
            "durationTicks": 24,
            "midi": 65,
            "name": "F4",
            "ticks": 5280,
            "time": 27.5,
            "velocity": 0.6929133858267716
          },
          {
            "duration": 0.125,
            "durationTicks": 24,
            "midi": 61,
            "name": "C#4",
            "ticks": 5304,
            "time": 27.625,
            "velocity": 0.6929133858267716
          },
          {
            "duration": 0.125,
            "durationTicks": 24,
            "midi": 63,
            "name": "D#4",
            "ticks": 5328,
            "time": 27.75,
            "velocity": 0.7007874015748031
          },
          {
            "duration": 0.125,
            "durationTicks": 24,
            "midi": 65,
            "name": "F4",
            "ticks": 5352,
            "time": 27.875,
            "velocity": 0.7401574803149606
          },
          {
            "duration": 2.140625,
            "durationTicks": 411,
            "midi": 40,
            "name": "E2",
            "ticks": 5368,
            "time": 27.958333333333332,
            "velocity": 0.7559055118110236
          },
          {
            "duration": 0.5416666666666679,
            "durationTicks": 104,
            "midi": 48,
            "name": "C3",
            "ticks": 5370,
            "time": 27.96875,
            "velocity": 0.7559055118110236
          },
          {
            "duration": 0.5208333333333357,
            "durationTicks": 100,
            "midi": 52,
            "name": "E3",
            "ticks": 5377,
            "time": 28.005208333333332,
            "velocity": 0.49606299212598426
          },
          {
            "duration": 0.15625,
            "durationTicks": 30,
            "midi": 65,
            "name": "F4",
            "ticks": 5400,
            "time": 28.125,
            "velocity": 0.7007874015748031
          },
          {
            "duration": 0.16666666666666785,
            "durationTicks": 32,
            "midi": 66,
            "name": "F#4",
            "ticks": 5424,
            "time": 28.25,
            "velocity": 0.7165354330708661
          },
          {
            "duration": 0.21354166666666785,
            "durationTicks": 41,
            "midi": 68,
            "name": "G#4",
            "ticks": 5448,
            "time": 28.375,
            "velocity": 0.7637795275590551
          },
          {
            "duration": 0.390625,
            "durationTicks": 75,
            "midi": 70,
            "name": "A#4",
            "ticks": 5472,
            "time": 28.5,
            "velocity": 0.7716535433070866
          },
          {
            "duration": 0.5833333333333321,
            "durationTicks": 112,
            "midi": 48,
            "name": "C3",
            "ticks": 5520,
            "time": 28.75,
            "velocity": 0.6299212598425197
          },
          {
            "duration": 0.6458333333333321,
            "durationTicks": 124,
            "midi": 52,
            "name": "E3",
            "ticks": 5520,
            "time": 28.75,
            "velocity": 0.7165354330708661
          },
          {
            "duration": 0.13541666666666785,
            "durationTicks": 26,
            "midi": 65,
            "name": "F4",
            "ticks": 5544,
            "time": 28.875,
            "velocity": 0.6377952755905512
          },
          {
            "duration": 0.171875,
            "durationTicks": 33,
            "midi": 66,
            "name": "F#4",
            "ticks": 5568,
            "time": 29,
            "velocity": 0.6850393700787402
          },
          {
            "duration": 0.140625,
            "durationTicks": 27,
            "midi": 72,
            "name": "C5",
            "ticks": 5592,
            "time": 29.125,
            "velocity": 0.7559055118110236
          },
          {
            "duration": 0.38020833333333215,
            "durationTicks": 73,
            "midi": 70,
            "name": "A#4",
            "ticks": 5616,
            "time": 29.25,
            "velocity": 0.7952755905511811
          },
          {
            "duration": 0.30729166666666785,
            "durationTicks": 59,
            "midi": 48,
            "name": "C3",
            "ticks": 5664,
            "time": 29.5,
            "velocity": 0.6299212598425197
          },
          {
            "duration": 0.375,
            "durationTicks": 72,
            "midi": 52,
            "name": "E3",
            "ticks": 5664,
            "time": 29.5,
            "velocity": 0.7165354330708661
          },
          {
            "duration": 0.16145833333333215,
            "durationTicks": 31,
            "midi": 65,
            "name": "F4",
            "ticks": 5712,
            "time": 29.75,
            "velocity": 0.7086614173228346
          },
          {
            "duration": 1.7760416666666643,
            "durationTicks": 341,
            "midi": 41,
            "name": "F2",
            "ticks": 5756,
            "time": 29.979166666666668,
            "velocity": 0.5669291338582677
          },
          {
            "duration": 1.8177083333333321,
            "durationTicks": 349,
            "midi": 48,
            "name": "C3",
            "ticks": 5759,
            "time": 29.994791666666668,
            "velocity": 0.6535433070866141
          },
          {
            "duration": 1.875,
            "durationTicks": 360,
            "midi": 53,
            "name": "F3",
            "ticks": 5760,
            "time": 30,
            "velocity": 0.6929133858267716
          },
          {
            "duration": 0.125,
            "durationTicks": 24,
            "midi": 70,
            "name": "A#4",
            "ticks": 5784,
            "time": 30.125,
            "velocity": 0.7795275590551181
          },
          {
            "duration": 0.125,
            "durationTicks": 24,
            "midi": 68,
            "name": "G#4",
            "ticks": 5832,
            "time": 30.375,
            "velocity": 0.7165354330708661
          },
          {
            "duration": 0.125,
            "durationTicks": 24,
            "midi": 66,
            "name": "F#4",
            "ticks": 5880,
            "time": 30.625,
            "velocity": 0.7480314960629921
          },
          {
            "duration": 0.125,
            "durationTicks": 24,
            "midi": 65,
            "name": "F4",
            "ticks": 5928,
            "time": 30.875,
            "velocity": 0.7322834645669292
          },
          {
            "duration": 0.125,
            "durationTicks": 24,
            "midi": 63,
            "name": "D#4",
            "ticks": 5976,
            "time": 31.125,
            "velocity": 0.7401574803149606
          },
          {
            "duration": 0.125,
            "durationTicks": 24,
            "midi": 61,
            "name": "C#4",
            "ticks": 6024,
            "time": 31.375,
            "velocity": 0.7086614173228346
          },
          {
            "duration": 0.17708333333333215,
            "durationTicks": 34,
            "midi": 63,
            "name": "D#4",
            "ticks": 6072,
            "time": 31.625,
            "velocity": 0.7244094488188977
          },
          {
            "duration": 0.10416666666666785,
            "durationTicks": 20,
            "midi": 65,
            "name": "F4",
            "ticks": 6120,
            "time": 31.875,
            "velocity": 0.7244094488188977
          },
          {
            "duration": 1.9583333333333321,
            "durationTicks": 376,
            "midi": 53,
            "name": "F3",
            "ticks": 6134,
            "time": 31.947916666666668,
            "velocity": 0.7401574803149606
          },
          {
            "duration": 1.9531249999999964,
            "durationTicks": 375,
            "midi": 46,
            "name": "A#2",
            "ticks": 6137,
            "time": 31.963541666666668,
            "velocity": 0.7401574803149606
          },
          {
            "duration": 0.25,
            "durationTicks": 48,
            "midi": 58,
            "name": "A#3",
            "ticks": 6144,
            "time": 32,
            "velocity": 0.7716535433070866
          },
          {
            "duration": 0.25,
            "durationTicks": 48,
            "midi": 58,
            "name": "A#3",
            "ticks": 6192,
            "time": 32.25,
            "velocity": 0.5433070866141733
          },
          {
            "duration": 0.09375,
            "durationTicks": 18,
            "midi": 78,
            "name": "F#5",
            "ticks": 6216,
            "time": 32.375,
            "velocity": 0.6377952755905512
          },
          {
            "duration": 0.09375,
            "durationTicks": 18,
            "midi": 82,
            "name": "A#5",
            "ticks": 6216,
            "time": 32.375,
            "velocity": 0.6535433070866141
          },
          {
            "duration": 0.25,
            "durationTicks": 48,
            "midi": 58,
            "name": "A#3",
            "ticks": 6240,
            "time": 32.5,
            "velocity": 0.5748031496062992
          },
          {
            "duration": 0.2708333333333357,
            "durationTicks": 52,
            "midi": 78,
            "name": "F#5",
            "ticks": 6240,
            "time": 32.5,
            "velocity": 0.6614173228346457
          },
          {
            "duration": 0.2708333333333357,
            "durationTicks": 52,
            "midi": 82,
            "name": "A#5",
            "ticks": 6240,
            "time": 32.5,
            "velocity": 0.6850393700787402
          },
          {
            "duration": 0.25,
            "durationTicks": 48,
            "midi": 58,
            "name": "A#3",
            "ticks": 6288,
            "time": 32.75,
            "velocity": 0.4881889763779528
          },
          {
            "duration": 0.09375,
            "durationTicks": 18,
            "midi": 77,
            "name": "F5",
            "ticks": 6312,
            "time": 32.875,
            "velocity": 0.6377952755905512
          },
          {
            "duration": 0.09375,
            "durationTicks": 18,
            "midi": 82,
            "name": "A#5",
            "ticks": 6312,
            "time": 32.875,
            "velocity": 0.6535433070866141
          },
          {
            "duration": 0.25,
            "durationTicks": 48,
            "midi": 58,
            "name": "A#3",
            "ticks": 6336,
            "time": 33,
            "velocity": 0.5511811023622047
          },
          {
            "duration": 0.3020833333333357,
            "durationTicks": 58,
            "midi": 77,
            "name": "F5",
            "ticks": 6336,
            "time": 33,
            "velocity": 0.6614173228346457
          },
          {
            "duration": 0.3020833333333357,
            "durationTicks": 58,
            "midi": 82,
            "name": "A#5",
            "ticks": 6336,
            "time": 33,
            "velocity": 0.6850393700787402
          },
          {
            "duration": 0.25,
            "durationTicks": 48,
            "midi": 58,
            "name": "A#3",
            "ticks": 6384,
            "time": 33.25,
            "velocity": 0.47244094488188976
          },
          {
            "duration": 0.09375,
            "durationTicks": 18,
            "midi": 75,
            "name": "D#5",
            "ticks": 6408,
            "time": 33.375,
            "velocity": 0.6377952755905512
          },
          {
            "duration": 0.09375,
            "durationTicks": 18,
            "midi": 82,
            "name": "A#5",
            "ticks": 6408,
            "time": 33.375,
            "velocity": 0.5669291338582677
          },
          {
            "duration": 0.25,
            "durationTicks": 48,
            "midi": 58,
            "name": "A#3",
            "ticks": 6432,
            "time": 33.5,
            "velocity": 0.49606299212598426
          },
          {
            "duration": 0.203125,
            "durationTicks": 39,
            "midi": 75,
            "name": "D#5",
            "ticks": 6432,
            "time": 33.5,
            "velocity": 0.6614173228346457
          },
          {
            "duration": 0.1979166666666643,
            "durationTicks": 38,
            "midi": 82,
            "name": "A#5",
            "ticks": 6432,
            "time": 33.5,
            "velocity": 0.5905511811023622
          },
          {
            "duration": 0.1875,
            "durationTicks": 36,
            "midi": 58,
            "name": "A#3",
            "ticks": 6480,
            "time": 33.75,
            "velocity": 0.4409448818897638
          },
          {
            "duration": 0.46875,
            "durationTicks": 90,
            "midi": 72,
            "name": "C5",
            "ticks": 6480,
            "time": 33.75,
            "velocity": 0.6377952755905512
          },
          {
            "duration": 0.46875,
            "durationTicks": 90,
            "midi": 82,
            "name": "A#5",
            "ticks": 6480,
            "time": 33.75,
            "velocity": 0.4566929133858268
          },
          {
            "duration": 1.9322916666666643,
            "durationTicks": 371,
            "midi": 45,
            "name": "A2",
            "ticks": 6523,
            "time": 33.973958333333336,
            "velocity": 0.6456692913385826
          },
          {
            "duration": 1.8958333333333357,
            "durationTicks": 364,
            "midi": 53,
            "name": "F3",
            "ticks": 6524,
            "time": 33.979166666666664,
            "velocity": 0.6929133858267716
          },
          {
            "duration": 0.25,
            "durationTicks": 48,
            "midi": 57,
            "name": "A3",
            "ticks": 6528,
            "time": 34,
            "velocity": 0.7716535433070866
          },
          {
            "duration": 0.25,
            "durationTicks": 48,
            "midi": 57,
            "name": "A3",
            "ticks": 6576,
            "time": 34.25,
            "velocity": 0.5433070866141733
          },
          {
            "duration": 0.09375,
            "durationTicks": 18,
            "midi": 78,
            "name": "F#5",
            "ticks": 6600,
            "time": 34.375,
            "velocity": 0.6377952755905512
          },
          {
            "duration": 0.09375,
            "durationTicks": 18,
            "midi": 81,
            "name": "A5",
            "ticks": 6600,
            "time": 34.375,
            "velocity": 0.6535433070866141
          },
          {
            "duration": 0.25,
            "durationTicks": 48,
            "midi": 57,
            "name": "A3",
            "ticks": 6624,
            "time": 34.5,
            "velocity": 0.5748031496062992
          },
          {
            "duration": 0.2708333333333357,
            "durationTicks": 52,
            "midi": 78,
            "name": "F#5",
            "ticks": 6624,
            "time": 34.5,
            "velocity": 0.6614173228346457
          },
          {
            "duration": 0.2708333333333357,
            "durationTicks": 52,
            "midi": 81,
            "name": "A5",
            "ticks": 6624,
            "time": 34.5,
            "velocity": 0.6850393700787402
          },
          {
            "duration": 0.25,
            "durationTicks": 48,
            "midi": 57,
            "name": "A3",
            "ticks": 6672,
            "time": 34.75,
            "velocity": 0.4881889763779528
          },
          {
            "duration": 0.09375,
            "durationTicks": 18,
            "midi": 77,
            "name": "F5",
            "ticks": 6696,
            "time": 34.875,
            "velocity": 0.6377952755905512
          },
          {
            "duration": 0.09375,
            "durationTicks": 18,
            "midi": 81,
            "name": "A5",
            "ticks": 6696,
            "time": 34.875,
            "velocity": 0.6535433070866141
          },
          {
            "duration": 0.25,
            "durationTicks": 48,
            "midi": 57,
            "name": "A3",
            "ticks": 6720,
            "time": 35,
            "velocity": 0.5511811023622047
          },
          {
            "duration": 0.3020833333333357,
            "durationTicks": 58,
            "midi": 77,
            "name": "F5",
            "ticks": 6720,
            "time": 35,
            "velocity": 0.6614173228346457
          },
          {
            "duration": 0.3020833333333357,
            "durationTicks": 58,
            "midi": 81,
            "name": "A5",
            "ticks": 6720,
            "time": 35,
            "velocity": 0.6850393700787402
          },
          {
            "duration": 0.25,
            "durationTicks": 48,
            "midi": 57,
            "name": "A3",
            "ticks": 6768,
            "time": 35.25,
            "velocity": 0.47244094488188976
          },
          {
            "duration": 0.09375,
            "durationTicks": 18,
            "midi": 75,
            "name": "D#5",
            "ticks": 6792,
            "time": 35.375,
            "velocity": 0.6377952755905512
          },
          {
            "duration": 0.09375,
            "durationTicks": 18,
            "midi": 81,
            "name": "A5",
            "ticks": 6792,
            "time": 35.375,
            "velocity": 0.5669291338582677
          },
          {
            "duration": 0.25,
            "durationTicks": 48,
            "midi": 57,
            "name": "A3",
            "ticks": 6816,
            "time": 35.5,
            "velocity": 0.49606299212598426
          },
          {
            "duration": 0.203125,
            "durationTicks": 39,
            "midi": 75,
            "name": "D#5",
            "ticks": 6816,
            "time": 35.5,
            "velocity": 0.6614173228346457
          },
          {
            "duration": 0.1979166666666643,
            "durationTicks": 38,
            "midi": 81,
            "name": "A5",
            "ticks": 6816,
            "time": 35.5,
            "velocity": 0.5905511811023622
          },
          {
            "duration": 0.1875,
            "durationTicks": 36,
            "midi": 57,
            "name": "A3",
            "ticks": 6864,
            "time": 35.75,
            "velocity": 0.4409448818897638
          },
          {
            "duration": 0.46875,
            "durationTicks": 90,
            "midi": 72,
            "name": "C5",
            "ticks": 6864,
            "time": 35.75,
            "velocity": 0.6377952755905512
          },
          {
            "duration": 0.46875,
            "durationTicks": 90,
            "midi": 81,
            "name": "A5",
            "ticks": 6864,
            "time": 35.75,
            "velocity": 0.4566929133858268
          },
          {
            "duration": 1.859375,
            "durationTicks": 357,
            "midi": 44,
            "name": "G#2",
            "ticks": 6906,
            "time": 35.96875,
            "velocity": 0.5433070866141733
          },
          {
            "duration": 1.859375,
            "durationTicks": 357,
            "midi": 51,
            "name": "D#3",
            "ticks": 6908,
            "time": 35.979166666666664,
            "velocity": 0.6771653543307087
          },
          {
            "duration": 0.25,
            "durationTicks": 48,
            "midi": 56,
            "name": "G#3",
            "ticks": 6912,
            "time": 36,
            "velocity": 0.7716535433070866
          },
          {
            "duration": 0.25,
            "durationTicks": 48,
            "midi": 56,
            "name": "G#3",
            "ticks": 6960,
            "time": 36.25,
            "velocity": 0.5433070866141733
          },
          {
            "duration": 0.09375,
            "durationTicks": 18,
            "midi": 77,
            "name": "F5",
            "ticks": 6984,
            "time": 36.375,
            "velocity": 0.6377952755905512
          },
          {
            "duration": 0.09375,
            "durationTicks": 18,
            "midi": 80,
            "name": "G#5",
            "ticks": 6984,
            "time": 36.375,
            "velocity": 0.6535433070866141
          },
          {
            "duration": 0.25,
            "durationTicks": 48,
            "midi": 56,
            "name": "G#3",
            "ticks": 7008,
            "time": 36.5,
            "velocity": 0.5748031496062992
          },
          {
            "duration": 0.2708333333333357,
            "durationTicks": 52,
            "midi": 77,
            "name": "F5",
            "ticks": 7008,
            "time": 36.5,
            "velocity": 0.6614173228346457
          },
          {
            "duration": 0.2708333333333357,
            "durationTicks": 52,
            "midi": 80,
            "name": "G#5",
            "ticks": 7008,
            "time": 36.5,
            "velocity": 0.6850393700787402
          },
          {
            "duration": 0.25,
            "durationTicks": 48,
            "midi": 56,
            "name": "G#3",
            "ticks": 7056,
            "time": 36.75,
            "velocity": 0.4881889763779528
          },
          {
            "duration": 0.09375,
            "durationTicks": 18,
            "midi": 75,
            "name": "D#5",
            "ticks": 7080,
            "time": 36.875,
            "velocity": 0.6377952755905512
          },
          {
            "duration": 0.09375,
            "durationTicks": 18,
            "midi": 80,
            "name": "G#5",
            "ticks": 7080,
            "time": 36.875,
            "velocity": 0.6535433070866141
          },
          {
            "duration": 0.25,
            "durationTicks": 48,
            "midi": 56,
            "name": "G#3",
            "ticks": 7104,
            "time": 37,
            "velocity": 0.5511811023622047
          },
          {
            "duration": 0.3020833333333357,
            "durationTicks": 58,
            "midi": 75,
            "name": "D#5",
            "ticks": 7104,
            "time": 37,
            "velocity": 0.6614173228346457
          },
          {
            "duration": 0.3020833333333357,
            "durationTicks": 58,
            "midi": 80,
            "name": "G#5",
            "ticks": 7104,
            "time": 37,
            "velocity": 0.6850393700787402
          },
          {
            "duration": 0.25,
            "durationTicks": 48,
            "midi": 56,
            "name": "G#3",
            "ticks": 7152,
            "time": 37.25,
            "velocity": 0.47244094488188976
          },
          {
            "duration": 0.09375,
            "durationTicks": 18,
            "midi": 73,
            "name": "C#5",
            "ticks": 7176,
            "time": 37.375,
            "velocity": 0.6377952755905512
          },
          {
            "duration": 0.09375,
            "durationTicks": 18,
            "midi": 80,
            "name": "G#5",
            "ticks": 7176,
            "time": 37.375,
            "velocity": 0.5669291338582677
          },
          {
            "duration": 0.25,
            "durationTicks": 48,
            "midi": 56,
            "name": "G#3",
            "ticks": 7200,
            "time": 37.5,
            "velocity": 0.5118110236220472
          },
          {
            "duration": 0.203125,
            "durationTicks": 39,
            "midi": 73,
            "name": "C#5",
            "ticks": 7200,
            "time": 37.5,
            "velocity": 0.6614173228346457
          },
          {
            "duration": 0.1979166666666643,
            "durationTicks": 38,
            "midi": 80,
            "name": "G#5",
            "ticks": 7200,
            "time": 37.5,
            "velocity": 0.5905511811023622
          },
          {
            "duration": 0.1875,
            "durationTicks": 36,
            "midi": 56,
            "name": "G#3",
            "ticks": 7248,
            "time": 37.75,
            "velocity": 0.4409448818897638
          },
          {
            "duration": 0.46875,
            "durationTicks": 90,
            "midi": 72,
            "name": "C5",
            "ticks": 7248,
            "time": 37.75,
            "velocity": 0.6377952755905512
          },
          {
            "duration": 0.46875,
            "durationTicks": 90,
            "midi": 80,
            "name": "G#5",
            "ticks": 7248,
            "time": 37.75,
            "velocity": 0.4566929133858268
          },
          {
            "duration": 1.9479166666666643,
            "durationTicks": 374,
            "midi": 43,
            "name": "G2",
            "ticks": 7290,
            "time": 37.96875,
            "velocity": 0.5511811023622047
          },
          {
            "duration": 1.9375,
            "durationTicks": 372,
            "midi": 51,
            "name": "D#3",
            "ticks": 7292,
            "time": 37.979166666666664,
            "velocity": 0.6220472440944882
          },
          {
            "duration": 0.25,
            "durationTicks": 48,
            "midi": 55,
            "name": "G3",
            "ticks": 7296,
            "time": 38,
            "velocity": 0.7716535433070866
          },
          {
            "duration": 0.25,
            "durationTicks": 48,
            "midi": 55,
            "name": "G3",
            "ticks": 7344,
            "time": 38.25,
            "velocity": 0.5433070866141733
          },
          {
            "duration": 0.09375,
            "durationTicks": 18,
            "midi": 77,
            "name": "F5",
            "ticks": 7368,
            "time": 38.375,
            "velocity": 0.6377952755905512
          },
          {
            "duration": 0.09375,
            "durationTicks": 18,
            "midi": 79,
            "name": "G5",
            "ticks": 7368,
            "time": 38.375,
            "velocity": 0.6535433070866141
          },
          {
            "duration": 0.25,
            "durationTicks": 48,
            "midi": 55,
            "name": "G3",
            "ticks": 7392,
            "time": 38.5,
            "velocity": 0.5748031496062992
          },
          {
            "duration": 0.2708333333333357,
            "durationTicks": 52,
            "midi": 77,
            "name": "F5",
            "ticks": 7392,
            "time": 38.5,
            "velocity": 0.6614173228346457
          },
          {
            "duration": 0.2708333333333357,
            "durationTicks": 52,
            "midi": 79,
            "name": "G5",
            "ticks": 7392,
            "time": 38.5,
            "velocity": 0.6850393700787402
          },
          {
            "duration": 0.25,
            "durationTicks": 48,
            "midi": 55,
            "name": "G3",
            "ticks": 7440,
            "time": 38.75,
            "velocity": 0.4881889763779528
          },
          {
            "duration": 0.09375,
            "durationTicks": 18,
            "midi": 75,
            "name": "D#5",
            "ticks": 7464,
            "time": 38.875,
            "velocity": 0.6377952755905512
          },
          {
            "duration": 0.09375,
            "durationTicks": 18,
            "midi": 79,
            "name": "G5",
            "ticks": 7464,
            "time": 38.875,
            "velocity": 0.6535433070866141
          },
          {
            "duration": 0.25,
            "durationTicks": 48,
            "midi": 55,
            "name": "G3",
            "ticks": 7488,
            "time": 39,
            "velocity": 0.5511811023622047
          },
          {
            "duration": 0.3020833333333357,
            "durationTicks": 58,
            "midi": 75,
            "name": "D#5",
            "ticks": 7488,
            "time": 39,
            "velocity": 0.6614173228346457
          },
          {
            "duration": 0.3020833333333357,
            "durationTicks": 58,
            "midi": 79,
            "name": "G5",
            "ticks": 7488,
            "time": 39,
            "velocity": 0.6850393700787402
          },
          {
            "duration": 0.25,
            "durationTicks": 48,
            "midi": 55,
            "name": "G3",
            "ticks": 7536,
            "time": 39.25,
            "velocity": 0.47244094488188976
          },
          {
            "duration": 0.09375,
            "durationTicks": 18,
            "midi": 73,
            "name": "C#5",
            "ticks": 7560,
            "time": 39.375,
            "velocity": 0.6377952755905512
          },
          {
            "duration": 0.09375,
            "durationTicks": 18,
            "midi": 79,
            "name": "G5",
            "ticks": 7560,
            "time": 39.375,
            "velocity": 0.5669291338582677
          },
          {
            "duration": 0.25,
            "durationTicks": 48,
            "midi": 55,
            "name": "G3",
            "ticks": 7584,
            "time": 39.5,
            "velocity": 0.49606299212598426
          },
          {
            "duration": 0.203125,
            "durationTicks": 39,
            "midi": 73,
            "name": "C#5",
            "ticks": 7584,
            "time": 39.5,
            "velocity": 0.6614173228346457
          },
          {
            "duration": 0.1979166666666643,
            "durationTicks": 38,
            "midi": 79,
            "name": "G5",
            "ticks": 7584,
            "time": 39.5,
            "velocity": 0.5905511811023622
          },
          {
            "duration": 0.1875,
            "durationTicks": 36,
            "midi": 55,
            "name": "G3",
            "ticks": 7632,
            "time": 39.75,
            "velocity": 0.4409448818897638
          },
          {
            "duration": 0.46875,
            "durationTicks": 90,
            "midi": 70,
            "name": "A#4",
            "ticks": 7632,
            "time": 39.75,
            "velocity": 0.6377952755905512
          },
          {
            "duration": 0.46875,
            "durationTicks": 90,
            "midi": 79,
            "name": "G5",
            "ticks": 7632,
            "time": 39.75,
            "velocity": 0.4566929133858268
          },
          {
            "duration": 1.953125,
            "durationTicks": 375,
            "midi": 46,
            "name": "A#2",
            "ticks": 7675,
            "time": 39.973958333333336,
            "velocity": 0.6850393700787402
          },
          {
            "duration": 1.8072916666666643,
            "durationTicks": 347,
            "midi": 53,
            "name": "F3",
            "ticks": 7675,
            "time": 39.973958333333336,
            "velocity": 0.6850393700787402
          },
          {
            "duration": 0.25,
            "durationTicks": 48,
            "midi": 58,
            "name": "A#3",
            "ticks": 7680,
            "time": 40,
            "velocity": 0.8267716535433071
          },
          {
            "duration": 0.25,
            "durationTicks": 48,
            "midi": 58,
            "name": "A#3",
            "ticks": 7728,
            "time": 40.25,
            "velocity": 0.5826771653543307
          },
          {
            "duration": 0.09375,
            "durationTicks": 18,
            "midi": 78,
            "name": "F#5",
            "ticks": 7752,
            "time": 40.375,
            "velocity": 0.6377952755905512
          },
          {
            "duration": 0.09375,
            "durationTicks": 18,
            "midi": 82,
            "name": "A#5",
            "ticks": 7752,
            "time": 40.375,
            "velocity": 0.6535433070866141
          },
          {
            "duration": 0.25,
            "durationTicks": 48,
            "midi": 58,
            "name": "A#3",
            "ticks": 7776,
            "time": 40.5,
            "velocity": 0.6062992125984252
          },
          {
            "duration": 0.2708333333333357,
            "durationTicks": 52,
            "midi": 78,
            "name": "F#5",
            "ticks": 7776,
            "time": 40.5,
            "velocity": 0.6614173228346457
          },
          {
            "duration": 0.2708333333333357,
            "durationTicks": 52,
            "midi": 82,
            "name": "A#5",
            "ticks": 7776,
            "time": 40.5,
            "velocity": 0.6850393700787402
          },
          {
            "duration": 0.25,
            "durationTicks": 48,
            "midi": 58,
            "name": "A#3",
            "ticks": 7824,
            "time": 40.75,
            "velocity": 0.5275590551181102
          },
          {
            "duration": 0.09375,
            "durationTicks": 18,
            "midi": 77,
            "name": "F5",
            "ticks": 7848,
            "time": 40.875,
            "velocity": 0.6377952755905512
          },
          {
            "duration": 0.09375,
            "durationTicks": 18,
            "midi": 82,
            "name": "A#5",
            "ticks": 7848,
            "time": 40.875,
            "velocity": 0.6535433070866141
          },
          {
            "duration": 0.25,
            "durationTicks": 48,
            "midi": 58,
            "name": "A#3",
            "ticks": 7872,
            "time": 41,
            "velocity": 0.5826771653543307
          },
          {
            "duration": 0.3020833333333357,
            "durationTicks": 58,
            "midi": 77,
            "name": "F5",
            "ticks": 7872,
            "time": 41,
            "velocity": 0.6614173228346457
          },
          {
            "duration": 0.3020833333333357,
            "durationTicks": 58,
            "midi": 82,
            "name": "A#5",
            "ticks": 7872,
            "time": 41,
            "velocity": 0.6850393700787402
          },
          {
            "duration": 0.25,
            "durationTicks": 48,
            "midi": 58,
            "name": "A#3",
            "ticks": 7920,
            "time": 41.25,
            "velocity": 0.5118110236220472
          },
          {
            "duration": 0.09375,
            "durationTicks": 18,
            "midi": 80,
            "name": "G#5",
            "ticks": 7944,
            "time": 41.375,
            "velocity": 0.6377952755905512
          },
          {
            "duration": 0.09375,
            "durationTicks": 18,
            "midi": 82,
            "name": "A#5",
            "ticks": 7944,
            "time": 41.375,
            "velocity": 0.5669291338582677
          },
          {
            "duration": 0.25,
            "durationTicks": 48,
            "midi": 58,
            "name": "A#3",
            "ticks": 7968,
            "time": 41.5,
            "velocity": 0.5354330708661418
          },
          {
            "duration": 0.203125,
            "durationTicks": 39,
            "midi": 80,
            "name": "G#5",
            "ticks": 7968,
            "time": 41.5,
            "velocity": 0.6614173228346457
          },
          {
            "duration": 0.1979166666666643,
            "durationTicks": 38,
            "midi": 82,
            "name": "A#5",
            "ticks": 7968,
            "time": 41.5,
            "velocity": 0.5905511811023622
          },
          {
            "duration": 0.1875,
            "durationTicks": 36,
            "midi": 58,
            "name": "A#3",
            "ticks": 8016,
            "time": 41.75,
            "velocity": 0.5275590551181102
          },
          {
            "duration": 0.46875,
            "durationTicks": 90,
            "midi": 78,
            "name": "F#5",
            "ticks": 8016,
            "time": 41.75,
            "velocity": 0.6377952755905512
          },
          {
            "duration": 0.46875,
            "durationTicks": 90,
            "midi": 82,
            "name": "A#5",
            "ticks": 8016,
            "time": 41.75,
            "velocity": 0.4566929133858268
          },
          {
            "duration": 1.9791666666666714,
            "durationTicks": 380,
            "midi": 55,
            "name": "G3",
            "ticks": 8060,
            "time": 41.979166666666664,
            "velocity": 0.6456692913385826
          },
          {
            "duration": 1.953125,
            "durationTicks": 375,
            "midi": 48,
            "name": "C3",
            "ticks": 8061,
            "time": 41.984375,
            "velocity": 0.5984251968503937
          },
          {
            "duration": 0.25,
            "durationTicks": 48,
            "midi": 60,
            "name": "C4",
            "ticks": 8064,
            "time": 42,
            "velocity": 0.9921259842519685
          },
          {
            "duration": 0.25,
            "durationTicks": 48,
            "midi": 60,
            "name": "C4",
            "ticks": 8112,
            "time": 42.25,
            "velocity": 0.7007874015748031
          },
          {
            "duration": 0.09375,
            "durationTicks": 18,
            "midi": 78,
            "name": "F#5",
            "ticks": 8136,
            "time": 42.375,
            "velocity": 0.6377952755905512
          },
          {
            "duration": 0.09375,
            "durationTicks": 18,
            "midi": 84,
            "name": "C6",
            "ticks": 8136,
            "time": 42.375,
            "velocity": 0.6535433070866141
          },
          {
            "duration": 0.25,
            "durationTicks": 48,
            "midi": 60,
            "name": "C4",
            "ticks": 8160,
            "time": 42.5,
            "velocity": 0.7322834645669292
          },
          {
            "duration": 0.2708333333333357,
            "durationTicks": 52,
            "midi": 78,
            "name": "F#5",
            "ticks": 8160,
            "time": 42.5,
            "velocity": 0.6614173228346457
          },
          {
            "duration": 0.2708333333333357,
            "durationTicks": 52,
            "midi": 84,
            "name": "C6",
            "ticks": 8160,
            "time": 42.5,
            "velocity": 0.6850393700787402
          },
          {
            "duration": 0.25,
            "durationTicks": 48,
            "midi": 60,
            "name": "C4",
            "ticks": 8208,
            "time": 42.75,
            "velocity": 0.6220472440944882
          },
          {
            "duration": 0.09375,
            "durationTicks": 18,
            "midi": 77,
            "name": "F5",
            "ticks": 8232,
            "time": 42.875,
            "velocity": 0.6377952755905512
          },
          {
            "duration": 0.09375,
            "durationTicks": 18,
            "midi": 84,
            "name": "C6",
            "ticks": 8232,
            "time": 42.875,
            "velocity": 0.6535433070866141
          },
          {
            "duration": 0.25,
            "durationTicks": 48,
            "midi": 60,
            "name": "C4",
            "ticks": 8256,
            "time": 43,
            "velocity": 0.7007874015748031
          },
          {
            "duration": 0.3020833333333357,
            "durationTicks": 58,
            "midi": 77,
            "name": "F5",
            "ticks": 8256,
            "time": 43,
            "velocity": 0.6614173228346457
          },
          {
            "duration": 0.3020833333333357,
            "durationTicks": 58,
            "midi": 84,
            "name": "C6",
            "ticks": 8256,
            "time": 43,
            "velocity": 0.6850393700787402
          },
          {
            "duration": 0.25,
            "durationTicks": 48,
            "midi": 60,
            "name": "C4",
            "ticks": 8304,
            "time": 43.25,
            "velocity": 0.5984251968503937
          },
          {
            "duration": 0.09375,
            "durationTicks": 18,
            "midi": 80,
            "name": "G#5",
            "ticks": 8328,
            "time": 43.375,
            "velocity": 0.6377952755905512
          },
          {
            "duration": 0.09375,
            "durationTicks": 18,
            "midi": 84,
            "name": "C6",
            "ticks": 8328,
            "time": 43.375,
            "velocity": 0.5669291338582677
          },
          {
            "duration": 0.25,
            "durationTicks": 48,
            "midi": 60,
            "name": "C4",
            "ticks": 8352,
            "time": 43.5,
            "velocity": 0.6377952755905512
          },
          {
            "duration": 0.203125,
            "durationTicks": 39,
            "midi": 80,
            "name": "G#5",
            "ticks": 8352,
            "time": 43.5,
            "velocity": 0.6614173228346457
          },
          {
            "duration": 0.1979166666666643,
            "durationTicks": 38,
            "midi": 84,
            "name": "C6",
            "ticks": 8352,
            "time": 43.5,
            "velocity": 0.5905511811023622
          },
          {
            "duration": 0.1875,
            "durationTicks": 36,
            "midi": 60,
            "name": "C4",
            "ticks": 8400,
            "time": 43.75,
            "velocity": 0.5669291338582677
          },
          {
            "duration": 0.46875,
            "durationTicks": 90,
            "midi": 78,
            "name": "F#5",
            "ticks": 8400,
            "time": 43.75,
            "velocity": 0.6377952755905512
          },
          {
            "duration": 0.46875,
            "durationTicks": 90,
            "midi": 84,
            "name": "C6",
            "ticks": 8400,
            "time": 43.75,
            "velocity": 0.4566929133858268
          },
          {
            "duration": 1.953125,
            "durationTicks": 375,
            "midi": 56,
            "name": "G#3",
            "ticks": 8445,
            "time": 43.984375,
            "velocity": 0.6929133858267716
          },
          {
            "duration": 1.9166666666666643,
            "durationTicks": 368,
            "midi": 49,
            "name": "C#3",
            "ticks": 8446,
            "time": 43.989583333333336,
            "velocity": 0.5669291338582677
          },
          {
            "duration": 0.25,
            "durationTicks": 48,
            "midi": 61,
            "name": "C#4",
            "ticks": 8448,
            "time": 44,
            "velocity": 0.9448818897637795
          },
          {
            "duration": 0.25,
            "durationTicks": 48,
            "midi": 61,
            "name": "C#4",
            "ticks": 8496,
            "time": 44.25,
            "velocity": 0.6771653543307087
          },
          {
            "duration": 0.09375,
            "durationTicks": 18,
            "midi": 78,
            "name": "F#5",
            "ticks": 8520,
            "time": 44.375,
            "velocity": 0.6377952755905512
          },
          {
            "duration": 0.09375,
            "durationTicks": 18,
            "midi": 85,
            "name": "C#6",
            "ticks": 8520,
            "time": 44.375,
            "velocity": 0.6535433070866141
          },
          {
            "duration": 0.25,
            "durationTicks": 48,
            "midi": 61,
            "name": "C#4",
            "ticks": 8544,
            "time": 44.5,
            "velocity": 0.7086614173228346
          },
          {
            "duration": 0.2708333333333357,
            "durationTicks": 52,
            "midi": 78,
            "name": "F#5",
            "ticks": 8544,
            "time": 44.5,
            "velocity": 0.6614173228346457
          },
          {
            "duration": 0.2708333333333357,
            "durationTicks": 52,
            "midi": 85,
            "name": "C#6",
            "ticks": 8544,
            "time": 44.5,
            "velocity": 0.6850393700787402
          },
          {
            "duration": 0.25,
            "durationTicks": 48,
            "midi": 61,
            "name": "C#4",
            "ticks": 8592,
            "time": 44.75,
            "velocity": 0.5984251968503937
          },
          {
            "duration": 0.09375,
            "durationTicks": 18,
            "midi": 77,
            "name": "F5",
            "ticks": 8616,
            "time": 44.875,
            "velocity": 0.6377952755905512
          },
          {
            "duration": 0.09375,
            "durationTicks": 18,
            "midi": 85,
            "name": "C#6",
            "ticks": 8616,
            "time": 44.875,
            "velocity": 0.6535433070866141
          },
          {
            "duration": 0.25,
            "durationTicks": 48,
            "midi": 61,
            "name": "C#4",
            "ticks": 8640,
            "time": 45,
            "velocity": 0.6771653543307087
          },
          {
            "duration": 0.3020833333333357,
            "durationTicks": 58,
            "midi": 77,
            "name": "F5",
            "ticks": 8640,
            "time": 45,
            "velocity": 0.6614173228346457
          },
          {
            "duration": 0.3020833333333357,
            "durationTicks": 58,
            "midi": 85,
            "name": "C#6",
            "ticks": 8640,
            "time": 45,
            "velocity": 0.6850393700787402
          },
          {
            "duration": 0.25,
            "durationTicks": 48,
            "midi": 61,
            "name": "C#4",
            "ticks": 8688,
            "time": 45.25,
            "velocity": 0.5826771653543307
          },
          {
            "duration": 0.09375,
            "durationTicks": 18,
            "midi": 80,
            "name": "G#5",
            "ticks": 8712,
            "time": 45.375,
            "velocity": 0.6377952755905512
          },
          {
            "duration": 0.09375,
            "durationTicks": 18,
            "midi": 85,
            "name": "C#6",
            "ticks": 8712,
            "time": 45.375,
            "velocity": 0.5669291338582677
          },
          {
            "duration": 0.25,
            "durationTicks": 48,
            "midi": 61,
            "name": "C#4",
            "ticks": 8736,
            "time": 45.5,
            "velocity": 0.6220472440944882
          },
          {
            "duration": 0.203125,
            "durationTicks": 39,
            "midi": 80,
            "name": "G#5",
            "ticks": 8736,
            "time": 45.5,
            "velocity": 0.6614173228346457
          },
          {
            "duration": 0.1979166666666643,
            "durationTicks": 38,
            "midi": 85,
            "name": "C#6",
            "ticks": 8736,
            "time": 45.5,
            "velocity": 0.5905511811023622
          },
          {
            "duration": 0.1875,
            "durationTicks": 36,
            "midi": 61,
            "name": "C#4",
            "ticks": 8784,
            "time": 45.75,
            "velocity": 0.5433070866141733
          },
          {
            "duration": 0.46875,
            "durationTicks": 90,
            "midi": 78,
            "name": "F#5",
            "ticks": 8784,
            "time": 45.75,
            "velocity": 0.6377952755905512
          },
          {
            "duration": 0.46875,
            "durationTicks": 90,
            "midi": 85,
            "name": "C#6",
            "ticks": 8784,
            "time": 45.75,
            "velocity": 0.4566929133858268
          },
          {
            "duration": 1.8854166666666643,
            "durationTicks": 362,
            "midi": 45,
            "name": "A2",
            "ticks": 8830,
            "time": 45.989583333333336,
            "velocity": 0.6535433070866141
          },
          {
            "duration": 1.7291666666666643,
            "durationTicks": 332,
            "midi": 52,
            "name": "E3",
            "ticks": 8830,
            "time": 45.989583333333336,
            "velocity": 0.7322834645669292
          },
          {
            "duration": 0.25,
            "durationTicks": 48,
            "midi": 57,
            "name": "A3",
            "ticks": 8832,
            "time": 46,
            "velocity": 0.8267716535433071
          },
          {
            "duration": 0.25,
            "durationTicks": 48,
            "midi": 57,
            "name": "A3",
            "ticks": 8880,
            "time": 46.25,
            "velocity": 0.5826771653543307
          },
          {
            "duration": 0.125,
            "durationTicks": 24,
            "midi": 80,
            "name": "G#5",
            "ticks": 8880,
            "time": 46.25,
            "velocity": 0.7007874015748031
          },
          {
            "duration": 0.125,
            "durationTicks": 24,
            "midi": 81,
            "name": "A5",
            "ticks": 8880,
            "time": 46.25,
            "velocity": 0.5826771653543307
          },
          {
            "duration": 0.25,
            "durationTicks": 48,
            "midi": 57,
            "name": "A3",
            "ticks": 8928,
            "time": 46.5,
            "velocity": 0.6062992125984252
          },
          {
            "duration": 0.25,
            "durationTicks": 48,
            "midi": 80,
            "name": "G#5",
            "ticks": 8928,
            "time": 46.5,
            "velocity": 0.6771653543307087
          },
          {
            "duration": 0.25,
            "durationTicks": 48,
            "midi": 81,
            "name": "A5",
            "ticks": 8928,
            "time": 46.5,
            "velocity": 0.6771653543307087
          },
          {
            "duration": 0.25,
            "durationTicks": 48,
            "midi": 57,
            "name": "A3",
            "ticks": 8976,
            "time": 46.75,
            "velocity": 0.5275590551181102
          },
          {
            "duration": 0.125,
            "durationTicks": 24,
            "midi": 78,
            "name": "F#5",
            "ticks": 8976,
            "time": 46.75,
            "velocity": 0.6614173228346457
          },
          {
            "duration": 0.125,
            "durationTicks": 24,
            "midi": 81,
            "name": "A5",
            "ticks": 8976,
            "time": 46.75,
            "velocity": 0.6220472440944882
          },
          {
            "duration": 0.25,
            "durationTicks": 48,
            "midi": 57,
            "name": "A3",
            "ticks": 9024,
            "time": 47,
            "velocity": 0.5826771653543307
          },
          {
            "duration": 0.25,
            "durationTicks": 48,
            "midi": 78,
            "name": "F#5",
            "ticks": 9024,
            "time": 47,
            "velocity": 0.5511811023622047
          },
          {
            "duration": 0.25,
            "durationTicks": 48,
            "midi": 81,
            "name": "A5",
            "ticks": 9024,
            "time": 47,
            "velocity": 0.5511811023622047
          },
          {
            "duration": 0.25,
            "durationTicks": 48,
            "midi": 57,
            "name": "A3",
            "ticks": 9072,
            "time": 47.25,
            "velocity": 0.5118110236220472
          },
          {
            "duration": 0.125,
            "durationTicks": 24,
            "midi": 77,
            "name": "F5",
            "ticks": 9072,
            "time": 47.25,
            "velocity": 0.6614173228346457
          },
          {
            "duration": 0.125,
            "durationTicks": 24,
            "midi": 81,
            "name": "A5",
            "ticks": 9072,
            "time": 47.25,
            "velocity": 0.5196850393700787
          },
          {
            "duration": 0.25,
            "durationTicks": 48,
            "midi": 57,
            "name": "A3",
            "ticks": 9120,
            "time": 47.5,
            "velocity": 0.5354330708661418
          },
          {
            "duration": 0.28125,
            "durationTicks": 54,
            "midi": 77,
            "name": "F5",
            "ticks": 9120,
            "time": 47.5,
            "velocity": 0.6614173228346457
          },
          {
            "duration": 0.25,
            "durationTicks": 48,
            "midi": 81,
            "name": "A5",
            "ticks": 9120,
            "time": 47.5,
            "velocity": 0.6377952755905512
          },
          {
            "duration": 0.1875,
            "durationTicks": 36,
            "midi": 57,
            "name": "A3",
            "ticks": 9168,
            "time": 47.75,
            "velocity": 0.5275590551181102
          },
          {
            "duration": 0.25,
            "durationTicks": 48,
            "midi": 75,
            "name": "D#5",
            "ticks": 9168,
            "time": 47.75,
            "velocity": 0.6141732283464567
          },
          {
            "duration": 0.25,
            "durationTicks": 48,
            "midi": 81,
            "name": "A5",
            "ticks": 9168,
            "time": 47.75,
            "velocity": 0.5354330708661418
          },
          {
            "duration": 1.953125,
            "durationTicks": 375,
            "midi": 46,
            "name": "A#2",
            "ticks": 9209,
            "time": 47.963541666666664,
            "velocity": 0.7401574803149606
          },
          {
            "duration": 1.9375,
            "durationTicks": 372,
            "midi": 53,
            "name": "F3",
            "ticks": 9210,
            "time": 47.96875,
            "velocity": 0.7401574803149606
          },
          {
            "duration": 0.25,
            "durationTicks": 48,
            "midi": 58,
            "name": "A#3",
            "ticks": 9216,
            "time": 48,
            "velocity": 0.7716535433070866
          },
          {
            "duration": 0.25,
            "durationTicks": 48,
            "midi": 58,
            "name": "A#3",
            "ticks": 9264,
            "time": 48.25,
            "velocity": 0.5433070866141733
          },
          {
            "duration": 0.09375,
            "durationTicks": 18,
            "midi": 78,
            "name": "F#5",
            "ticks": 9288,
            "time": 48.375,
            "velocity": 0.6377952755905512
          },
          {
            "duration": 0.09375,
            "durationTicks": 18,
            "midi": 82,
            "name": "A#5",
            "ticks": 9288,
            "time": 48.375,
            "velocity": 0.6535433070866141
          },
          {
            "duration": 0.25,
            "durationTicks": 48,
            "midi": 58,
            "name": "A#3",
            "ticks": 9312,
            "time": 48.5,
            "velocity": 0.5748031496062992
          },
          {
            "duration": 0.2708333333333357,
            "durationTicks": 52,
            "midi": 78,
            "name": "F#5",
            "ticks": 9312,
            "time": 48.5,
            "velocity": 0.6614173228346457
          },
          {
            "duration": 0.2708333333333357,
            "durationTicks": 52,
            "midi": 82,
            "name": "A#5",
            "ticks": 9312,
            "time": 48.5,
            "velocity": 0.6850393700787402
          },
          {
            "duration": 0.25,
            "durationTicks": 48,
            "midi": 58,
            "name": "A#3",
            "ticks": 9360,
            "time": 48.75,
            "velocity": 0.4881889763779528
          },
          {
            "duration": 0.09375,
            "durationTicks": 18,
            "midi": 77,
            "name": "F5",
            "ticks": 9384,
            "time": 48.875,
            "velocity": 0.6377952755905512
          },
          {
            "duration": 0.09375,
            "durationTicks": 18,
            "midi": 82,
            "name": "A#5",
            "ticks": 9384,
            "time": 48.875,
            "velocity": 0.6535433070866141
          },
          {
            "duration": 0.25,
            "durationTicks": 48,
            "midi": 58,
            "name": "A#3",
            "ticks": 9408,
            "time": 49,
            "velocity": 0.5511811023622047
          },
          {
            "duration": 0.3020833333333357,
            "durationTicks": 58,
            "midi": 77,
            "name": "F5",
            "ticks": 9408,
            "time": 49,
            "velocity": 0.6614173228346457
          },
          {
            "duration": 0.3020833333333357,
            "durationTicks": 58,
            "midi": 82,
            "name": "A#5",
            "ticks": 9408,
            "time": 49,
            "velocity": 0.6850393700787402
          },
          {
            "duration": 0.25,
            "durationTicks": 48,
            "midi": 58,
            "name": "A#3",
            "ticks": 9456,
            "time": 49.25,
            "velocity": 0.47244094488188976
          },
          {
            "duration": 0.09375,
            "durationTicks": 18,
            "midi": 75,
            "name": "D#5",
            "ticks": 9480,
            "time": 49.375,
            "velocity": 0.6377952755905512
          },
          {
            "duration": 0.09375,
            "durationTicks": 18,
            "midi": 82,
            "name": "A#5",
            "ticks": 9480,
            "time": 49.375,
            "velocity": 0.5669291338582677
          },
          {
            "duration": 0.25,
            "durationTicks": 48,
            "midi": 58,
            "name": "A#3",
            "ticks": 9504,
            "time": 49.5,
            "velocity": 0.49606299212598426
          },
          {
            "duration": 0.203125,
            "durationTicks": 39,
            "midi": 75,
            "name": "D#5",
            "ticks": 9504,
            "time": 49.5,
            "velocity": 0.6614173228346457
          },
          {
            "duration": 0.1979166666666643,
            "durationTicks": 38,
            "midi": 82,
            "name": "A#5",
            "ticks": 9504,
            "time": 49.5,
            "velocity": 0.5905511811023622
          },
          {
            "duration": 0.1875,
            "durationTicks": 36,
            "midi": 58,
            "name": "A#3",
            "ticks": 9552,
            "time": 49.75,
            "velocity": 0.4409448818897638
          },
          {
            "duration": 0.46875,
            "durationTicks": 90,
            "midi": 72,
            "name": "C5",
            "ticks": 9552,
            "time": 49.75,
            "velocity": 0.6377952755905512
          },
          {
            "duration": 0.46875,
            "durationTicks": 90,
            "midi": 82,
            "name": "A#5",
            "ticks": 9552,
            "time": 49.75,
            "velocity": 0.4566929133858268
          },
          {
            "duration": 1.9322916666666643,
            "durationTicks": 371,
            "midi": 45,
            "name": "A2",
            "ticks": 9595,
            "time": 49.973958333333336,
            "velocity": 0.6456692913385826
          },
          {
            "duration": 1.8958333333333357,
            "durationTicks": 364,
            "midi": 53,
            "name": "F3",
            "ticks": 9596,
            "time": 49.979166666666664,
            "velocity": 0.6929133858267716
          },
          {
            "duration": 0.25,
            "durationTicks": 48,
            "midi": 57,
            "name": "A3",
            "ticks": 9600,
            "time": 50,
            "velocity": 0.7716535433070866
          },
          {
            "duration": 0.25,
            "durationTicks": 48,
            "midi": 57,
            "name": "A3",
            "ticks": 9648,
            "time": 50.25,
            "velocity": 0.5433070866141733
          },
          {
            "duration": 0.09375,
            "durationTicks": 18,
            "midi": 78,
            "name": "F#5",
            "ticks": 9672,
            "time": 50.375,
            "velocity": 0.6377952755905512
          },
          {
            "duration": 0.09375,
            "durationTicks": 18,
            "midi": 81,
            "name": "A5",
            "ticks": 9672,
            "time": 50.375,
            "velocity": 0.6535433070866141
          },
          {
            "duration": 0.25,
            "durationTicks": 48,
            "midi": 57,
            "name": "A3",
            "ticks": 9696,
            "time": 50.5,
            "velocity": 0.5748031496062992
          },
          {
            "duration": 0.2708333333333357,
            "durationTicks": 52,
            "midi": 78,
            "name": "F#5",
            "ticks": 9696,
            "time": 50.5,
            "velocity": 0.6614173228346457
          },
          {
            "duration": 0.2708333333333357,
            "durationTicks": 52,
            "midi": 81,
            "name": "A5",
            "ticks": 9696,
            "time": 50.5,
            "velocity": 0.6850393700787402
          },
          {
            "duration": 0.25,
            "durationTicks": 48,
            "midi": 57,
            "name": "A3",
            "ticks": 9744,
            "time": 50.75,
            "velocity": 0.4881889763779528
          },
          {
            "duration": 0.09375,
            "durationTicks": 18,
            "midi": 77,
            "name": "F5",
            "ticks": 9768,
            "time": 50.875,
            "velocity": 0.6377952755905512
          },
          {
            "duration": 0.09375,
            "durationTicks": 18,
            "midi": 81,
            "name": "A5",
            "ticks": 9768,
            "time": 50.875,
            "velocity": 0.6535433070866141
          },
          {
            "duration": 0.25,
            "durationTicks": 48,
            "midi": 57,
            "name": "A3",
            "ticks": 9792,
            "time": 51,
            "velocity": 0.5511811023622047
          },
          {
            "duration": 0.3020833333333357,
            "durationTicks": 58,
            "midi": 77,
            "name": "F5",
            "ticks": 9792,
            "time": 51,
            "velocity": 0.6614173228346457
          },
          {
            "duration": 0.3020833333333357,
            "durationTicks": 58,
            "midi": 81,
            "name": "A5",
            "ticks": 9792,
            "time": 51,
            "velocity": 0.6850393700787402
          },
          {
            "duration": 0.25,
            "durationTicks": 48,
            "midi": 57,
            "name": "A3",
            "ticks": 9840,
            "time": 51.25,
            "velocity": 0.47244094488188976
          },
          {
            "duration": 0.09375,
            "durationTicks": 18,
            "midi": 75,
            "name": "D#5",
            "ticks": 9864,
            "time": 51.375,
            "velocity": 0.6377952755905512
          },
          {
            "duration": 0.09375,
            "durationTicks": 18,
            "midi": 81,
            "name": "A5",
            "ticks": 9864,
            "time": 51.375,
            "velocity": 0.5669291338582677
          },
          {
            "duration": 0.25,
            "durationTicks": 48,
            "midi": 57,
            "name": "A3",
            "ticks": 9888,
            "time": 51.5,
            "velocity": 0.49606299212598426
          },
          {
            "duration": 0.203125,
            "durationTicks": 39,
            "midi": 75,
            "name": "D#5",
            "ticks": 9888,
            "time": 51.5,
            "velocity": 0.6614173228346457
          },
          {
            "duration": 0.1979166666666643,
            "durationTicks": 38,
            "midi": 81,
            "name": "A5",
            "ticks": 9888,
            "time": 51.5,
            "velocity": 0.5905511811023622
          },
          {
            "duration": 0.1875,
            "durationTicks": 36,
            "midi": 57,
            "name": "A3",
            "ticks": 9936,
            "time": 51.75,
            "velocity": 0.4409448818897638
          },
          {
            "duration": 0.46875,
            "durationTicks": 90,
            "midi": 72,
            "name": "C5",
            "ticks": 9936,
            "time": 51.75,
            "velocity": 0.6377952755905512
          },
          {
            "duration": 0.46875,
            "durationTicks": 90,
            "midi": 81,
            "name": "A5",
            "ticks": 9936,
            "time": 51.75,
            "velocity": 0.4566929133858268
          },
          {
            "duration": 1.859375,
            "durationTicks": 357,
            "midi": 44,
            "name": "G#2",
            "ticks": 9978,
            "time": 51.96875,
            "velocity": 0.5433070866141733
          },
          {
            "duration": 1.859375,
            "durationTicks": 357,
            "midi": 51,
            "name": "D#3",
            "ticks": 9980,
            "time": 51.979166666666664,
            "velocity": 0.6771653543307087
          },
          {
            "duration": 0.25,
            "durationTicks": 48,
            "midi": 56,
            "name": "G#3",
            "ticks": 9984,
            "time": 52,
            "velocity": 0.7716535433070866
          },
          {
            "duration": 0.25,
            "durationTicks": 48,
            "midi": 56,
            "name": "G#3",
            "ticks": 10032,
            "time": 52.25,
            "velocity": 0.5433070866141733
          },
          {
            "duration": 0.09375,
            "durationTicks": 18,
            "midi": 77,
            "name": "F5",
            "ticks": 10056,
            "time": 52.375,
            "velocity": 0.6377952755905512
          },
          {
            "duration": 0.09375,
            "durationTicks": 18,
            "midi": 80,
            "name": "G#5",
            "ticks": 10056,
            "time": 52.375,
            "velocity": 0.6535433070866141
          },
          {
            "duration": 0.25,
            "durationTicks": 48,
            "midi": 56,
            "name": "G#3",
            "ticks": 10080,
            "time": 52.5,
            "velocity": 0.5748031496062992
          },
          {
            "duration": 0.2708333333333357,
            "durationTicks": 52,
            "midi": 77,
            "name": "F5",
            "ticks": 10080,
            "time": 52.5,
            "velocity": 0.6614173228346457
          },
          {
            "duration": 0.2708333333333357,
            "durationTicks": 52,
            "midi": 80,
            "name": "G#5",
            "ticks": 10080,
            "time": 52.5,
            "velocity": 0.6850393700787402
          },
          {
            "duration": 0.25,
            "durationTicks": 48,
            "midi": 56,
            "name": "G#3",
            "ticks": 10128,
            "time": 52.75,
            "velocity": 0.4881889763779528
          },
          {
            "duration": 0.09375,
            "durationTicks": 18,
            "midi": 75,
            "name": "D#5",
            "ticks": 10152,
            "time": 52.875,
            "velocity": 0.6377952755905512
          },
          {
            "duration": 0.09375,
            "durationTicks": 18,
            "midi": 80,
            "name": "G#5",
            "ticks": 10152,
            "time": 52.875,
            "velocity": 0.6535433070866141
          },
          {
            "duration": 0.25,
            "durationTicks": 48,
            "midi": 56,
            "name": "G#3",
            "ticks": 10176,
            "time": 53,
            "velocity": 0.5511811023622047
          },
          {
            "duration": 0.3020833333333357,
            "durationTicks": 58,
            "midi": 75,
            "name": "D#5",
            "ticks": 10176,
            "time": 53,
            "velocity": 0.6614173228346457
          },
          {
            "duration": 0.3020833333333357,
            "durationTicks": 58,
            "midi": 80,
            "name": "G#5",
            "ticks": 10176,
            "time": 53,
            "velocity": 0.6850393700787402
          },
          {
            "duration": 0.25,
            "durationTicks": 48,
            "midi": 56,
            "name": "G#3",
            "ticks": 10224,
            "time": 53.25,
            "velocity": 0.47244094488188976
          },
          {
            "duration": 0.09375,
            "durationTicks": 18,
            "midi": 73,
            "name": "C#5",
            "ticks": 10248,
            "time": 53.375,
            "velocity": 0.6377952755905512
          },
          {
            "duration": 0.09375,
            "durationTicks": 18,
            "midi": 80,
            "name": "G#5",
            "ticks": 10248,
            "time": 53.375,
            "velocity": 0.5669291338582677
          },
          {
            "duration": 0.25,
            "durationTicks": 48,
            "midi": 56,
            "name": "G#3",
            "ticks": 10272,
            "time": 53.5,
            "velocity": 0.49606299212598426
          },
          {
            "duration": 0.203125,
            "durationTicks": 39,
            "midi": 73,
            "name": "C#5",
            "ticks": 10272,
            "time": 53.5,
            "velocity": 0.6614173228346457
          },
          {
            "duration": 0.1979166666666643,
            "durationTicks": 38,
            "midi": 80,
            "name": "G#5",
            "ticks": 10272,
            "time": 53.5,
            "velocity": 0.5905511811023622
          },
          {
            "duration": 0.1875,
            "durationTicks": 36,
            "midi": 56,
            "name": "G#3",
            "ticks": 10320,
            "time": 53.75,
            "velocity": 0.4645669291338583
          },
          {
            "duration": 0.46875,
            "durationTicks": 90,
            "midi": 72,
            "name": "C5",
            "ticks": 10320,
            "time": 53.75,
            "velocity": 0.6377952755905512
          },
          {
            "duration": 0.46875,
            "durationTicks": 90,
            "midi": 80,
            "name": "G#5",
            "ticks": 10320,
            "time": 53.75,
            "velocity": 0.4566929133858268
          },
          {
            "duration": 1.953125,
            "durationTicks": 375,
            "midi": 43,
            "name": "G2",
            "ticks": 10359,
            "time": 53.953125,
            "velocity": 0.5511811023622047
          },
          {
            "duration": 1.9375,
            "durationTicks": 372,
            "midi": 51,
            "name": "D#3",
            "ticks": 10362,
            "time": 53.96875,
            "velocity": 0.6220472440944882
          },
          {
            "duration": 0.25,
            "durationTicks": 48,
            "midi": 55,
            "name": "G3",
            "ticks": 10368,
            "time": 54,
            "velocity": 0.7716535433070866
          },
          {
            "duration": 0.25,
            "durationTicks": 48,
            "midi": 55,
            "name": "G3",
            "ticks": 10416,
            "time": 54.25,
            "velocity": 0.5433070866141733
          },
          {
            "duration": 0.09375,
            "durationTicks": 18,
            "midi": 77,
            "name": "F5",
            "ticks": 10440,
            "time": 54.375,
            "velocity": 0.6377952755905512
          },
          {
            "duration": 0.09375,
            "durationTicks": 18,
            "midi": 79,
            "name": "G5",
            "ticks": 10440,
            "time": 54.375,
            "velocity": 0.6535433070866141
          },
          {
            "duration": 0.25,
            "durationTicks": 48,
            "midi": 55,
            "name": "G3",
            "ticks": 10464,
            "time": 54.5,
            "velocity": 0.5748031496062992
          },
          {
            "duration": 0.2708333333333357,
            "durationTicks": 52,
            "midi": 77,
            "name": "F5",
            "ticks": 10464,
            "time": 54.5,
            "velocity": 0.6614173228346457
          },
          {
            "duration": 0.2708333333333357,
            "durationTicks": 52,
            "midi": 79,
            "name": "G5",
            "ticks": 10464,
            "time": 54.5,
            "velocity": 0.6850393700787402
          },
          {
            "duration": 0.25,
            "durationTicks": 48,
            "midi": 55,
            "name": "G3",
            "ticks": 10512,
            "time": 54.75,
            "velocity": 0.4881889763779528
          },
          {
            "duration": 0.09375,
            "durationTicks": 18,
            "midi": 75,
            "name": "D#5",
            "ticks": 10536,
            "time": 54.875,
            "velocity": 0.6377952755905512
          },
          {
            "duration": 0.09375,
            "durationTicks": 18,
            "midi": 79,
            "name": "G5",
            "ticks": 10536,
            "time": 54.875,
            "velocity": 0.6535433070866141
          },
          {
            "duration": 0.25,
            "durationTicks": 48,
            "midi": 55,
            "name": "G3",
            "ticks": 10560,
            "time": 55,
            "velocity": 0.5511811023622047
          },
          {
            "duration": 0.3020833333333357,
            "durationTicks": 58,
            "midi": 75,
            "name": "D#5",
            "ticks": 10560,
            "time": 55,
            "velocity": 0.6614173228346457
          },
          {
            "duration": 0.3020833333333357,
            "durationTicks": 58,
            "midi": 79,
            "name": "G5",
            "ticks": 10560,
            "time": 55,
            "velocity": 0.6850393700787402
          },
          {
            "duration": 0.25,
            "durationTicks": 48,
            "midi": 55,
            "name": "G3",
            "ticks": 10608,
            "time": 55.25,
            "velocity": 0.47244094488188976
          },
          {
            "duration": 0.09375,
            "durationTicks": 18,
            "midi": 73,
            "name": "C#5",
            "ticks": 10632,
            "time": 55.375,
            "velocity": 0.6377952755905512
          },
          {
            "duration": 0.09375,
            "durationTicks": 18,
            "midi": 79,
            "name": "G5",
            "ticks": 10632,
            "time": 55.375,
            "velocity": 0.5669291338582677
          },
          {
            "duration": 0.25,
            "durationTicks": 48,
            "midi": 55,
            "name": "G3",
            "ticks": 10656,
            "time": 55.5,
            "velocity": 0.49606299212598426
          },
          {
            "duration": 0.203125,
            "durationTicks": 39,
            "midi": 73,
            "name": "C#5",
            "ticks": 10656,
            "time": 55.5,
            "velocity": 0.6614173228346457
          },
          {
            "duration": 0.1979166666666643,
            "durationTicks": 38,
            "midi": 79,
            "name": "G5",
            "ticks": 10656,
            "time": 55.5,
            "velocity": 0.5905511811023622
          },
          {
            "duration": 0.1875,
            "durationTicks": 36,
            "midi": 55,
            "name": "G3",
            "ticks": 10704,
            "time": 55.75,
            "velocity": 0.4409448818897638
          },
          {
            "duration": 0.46875,
            "durationTicks": 90,
            "midi": 70,
            "name": "A#4",
            "ticks": 10704,
            "time": 55.75,
            "velocity": 0.6377952755905512
          },
          {
            "duration": 0.46875,
            "durationTicks": 90,
            "midi": 79,
            "name": "G5",
            "ticks": 10704,
            "time": 55.75,
            "velocity": 0.4566929133858268
          },
          {
            "duration": 0,
            "durationTicks": 0,
            "midi": 46,
            "name": "A#2",
            "ticks": 10746,
            "time": 55.96875,
            "velocity": 0.6850393700787402
          },
          {
            "duration": 1.953125,
            "durationTicks": 375,
            "midi": 46,
            "name": "A#2",
            "ticks": 10747,
            "time": 55.973958333333336,
            "velocity": 0.6850393700787402
          },
          {
            "duration": 1.8072916666666643,
            "durationTicks": 347,
            "midi": 53,
            "name": "F3",
            "ticks": 10747,
            "time": 55.973958333333336,
            "velocity": 0.6850393700787402
          },
          {
            "duration": 0.25,
            "durationTicks": 48,
            "midi": 58,
            "name": "A#3",
            "ticks": 10752,
            "time": 56,
            "velocity": 0.8267716535433071
          },
          {
            "duration": 0.25,
            "durationTicks": 48,
            "midi": 58,
            "name": "A#3",
            "ticks": 10800,
            "time": 56.25,
            "velocity": 0.5826771653543307
          },
          {
            "duration": 0.09375,
            "durationTicks": 18,
            "midi": 78,
            "name": "F#5",
            "ticks": 10824,
            "time": 56.375,
            "velocity": 0.6377952755905512
          },
          {
            "duration": 0.09375,
            "durationTicks": 18,
            "midi": 82,
            "name": "A#5",
            "ticks": 10824,
            "time": 56.375,
            "velocity": 0.6535433070866141
          },
          {
            "duration": 0.25,
            "durationTicks": 48,
            "midi": 58,
            "name": "A#3",
            "ticks": 10848,
            "time": 56.5,
            "velocity": 0.6062992125984252
          },
          {
            "duration": 0.2708333333333357,
            "durationTicks": 52,
            "midi": 78,
            "name": "F#5",
            "ticks": 10848,
            "time": 56.5,
            "velocity": 0.6614173228346457
          },
          {
            "duration": 0.2708333333333357,
            "durationTicks": 52,
            "midi": 82,
            "name": "A#5",
            "ticks": 10848,
            "time": 56.5,
            "velocity": 0.6850393700787402
          },
          {
            "duration": 0.25,
            "durationTicks": 48,
            "midi": 58,
            "name": "A#3",
            "ticks": 10896,
            "time": 56.75,
            "velocity": 0.5275590551181102
          },
          {
            "duration": 0.09375,
            "durationTicks": 18,
            "midi": 77,
            "name": "F5",
            "ticks": 10920,
            "time": 56.875,
            "velocity": 0.6377952755905512
          },
          {
            "duration": 0.09375,
            "durationTicks": 18,
            "midi": 82,
            "name": "A#5",
            "ticks": 10920,
            "time": 56.875,
            "velocity": 0.6535433070866141
          },
          {
            "duration": 0.25,
            "durationTicks": 48,
            "midi": 58,
            "name": "A#3",
            "ticks": 10944,
            "time": 57,
            "velocity": 0.5826771653543307
          },
          {
            "duration": 0.3020833333333357,
            "durationTicks": 58,
            "midi": 77,
            "name": "F5",
            "ticks": 10944,
            "time": 57,
            "velocity": 0.6614173228346457
          },
          {
            "duration": 0.3020833333333357,
            "durationTicks": 58,
            "midi": 82,
            "name": "A#5",
            "ticks": 10944,
            "time": 57,
            "velocity": 0.6850393700787402
          },
          {
            "duration": 0.25,
            "durationTicks": 48,
            "midi": 58,
            "name": "A#3",
            "ticks": 10992,
            "time": 57.25,
            "velocity": 0.5118110236220472
          },
          {
            "duration": 0.09375,
            "durationTicks": 18,
            "midi": 80,
            "name": "G#5",
            "ticks": 11016,
            "time": 57.375,
            "velocity": 0.6377952755905512
          },
          {
            "duration": 0.09375,
            "durationTicks": 18,
            "midi": 82,
            "name": "A#5",
            "ticks": 11016,
            "time": 57.375,
            "velocity": 0.5669291338582677
          },
          {
            "duration": 0.25,
            "durationTicks": 48,
            "midi": 58,
            "name": "A#3",
            "ticks": 11040,
            "time": 57.5,
            "velocity": 0.5354330708661418
          },
          {
            "duration": 0.203125,
            "durationTicks": 39,
            "midi": 80,
            "name": "G#5",
            "ticks": 11040,
            "time": 57.5,
            "velocity": 0.6614173228346457
          },
          {
            "duration": 0.1979166666666643,
            "durationTicks": 38,
            "midi": 82,
            "name": "A#5",
            "ticks": 11040,
            "time": 57.5,
            "velocity": 0.5905511811023622
          },
          {
            "duration": 0.1875,
            "durationTicks": 36,
            "midi": 58,
            "name": "A#3",
            "ticks": 11088,
            "time": 57.75,
            "velocity": 0.5275590551181102
          },
          {
            "duration": 0.46875,
            "durationTicks": 90,
            "midi": 78,
            "name": "F#5",
            "ticks": 11088,
            "time": 57.75,
            "velocity": 0.6377952755905512
          },
          {
            "duration": 0.46875,
            "durationTicks": 90,
            "midi": 82,
            "name": "A#5",
            "ticks": 11088,
            "time": 57.75,
            "velocity": 0.4566929133858268
          },
          {
            "duration": 1.9791666666666714,
            "durationTicks": 380,
            "midi": 55,
            "name": "G3",
            "ticks": 11132,
            "time": 57.979166666666664,
            "velocity": 0.6456692913385826
          },
          {
            "duration": 1.953125,
            "durationTicks": 375,
            "midi": 48,
            "name": "C3",
            "ticks": 11133,
            "time": 57.984375,
            "velocity": 0.5984251968503937
          },
          {
            "duration": 0.25,
            "durationTicks": 48,
            "midi": 60,
            "name": "C4",
            "ticks": 11136,
            "time": 58,
            "velocity": 0.9921259842519685
          },
          {
            "duration": 0.25,
            "durationTicks": 48,
            "midi": 60,
            "name": "C4",
            "ticks": 11184,
            "time": 58.25,
            "velocity": 0.7007874015748031
          },
          {
            "duration": 0.09375,
            "durationTicks": 18,
            "midi": 78,
            "name": "F#5",
            "ticks": 11208,
            "time": 58.375,
            "velocity": 0.6377952755905512
          },
          {
            "duration": 0.09375,
            "durationTicks": 18,
            "midi": 84,
            "name": "C6",
            "ticks": 11208,
            "time": 58.375,
            "velocity": 0.6535433070866141
          },
          {
            "duration": 0.25,
            "durationTicks": 48,
            "midi": 60,
            "name": "C4",
            "ticks": 11232,
            "time": 58.5,
            "velocity": 0.7322834645669292
          },
          {
            "duration": 0.2708333333333357,
            "durationTicks": 52,
            "midi": 78,
            "name": "F#5",
            "ticks": 11232,
            "time": 58.5,
            "velocity": 0.6614173228346457
          },
          {
            "duration": 0.2708333333333357,
            "durationTicks": 52,
            "midi": 84,
            "name": "C6",
            "ticks": 11232,
            "time": 58.5,
            "velocity": 0.6850393700787402
          },
          {
            "duration": 0.25,
            "durationTicks": 48,
            "midi": 60,
            "name": "C4",
            "ticks": 11280,
            "time": 58.75,
            "velocity": 0.6220472440944882
          },
          {
            "duration": 0.09375,
            "durationTicks": 18,
            "midi": 77,
            "name": "F5",
            "ticks": 11304,
            "time": 58.875,
            "velocity": 0.6377952755905512
          },
          {
            "duration": 0.09375,
            "durationTicks": 18,
            "midi": 84,
            "name": "C6",
            "ticks": 11304,
            "time": 58.875,
            "velocity": 0.6535433070866141
          },
          {
            "duration": 0.25,
            "durationTicks": 48,
            "midi": 60,
            "name": "C4",
            "ticks": 11328,
            "time": 59,
            "velocity": 0.7007874015748031
          },
          {
            "duration": 0.3020833333333357,
            "durationTicks": 58,
            "midi": 77,
            "name": "F5",
            "ticks": 11328,
            "time": 59,
            "velocity": 0.6614173228346457
          },
          {
            "duration": 0.3020833333333357,
            "durationTicks": 58,
            "midi": 84,
            "name": "C6",
            "ticks": 11328,
            "time": 59,
            "velocity": 0.6850393700787402
          },
          {
            "duration": 0.25,
            "durationTicks": 48,
            "midi": 60,
            "name": "C4",
            "ticks": 11376,
            "time": 59.25,
            "velocity": 0.5984251968503937
          },
          {
            "duration": 0.09375,
            "durationTicks": 18,
            "midi": 80,
            "name": "G#5",
            "ticks": 11400,
            "time": 59.375,
            "velocity": 0.6377952755905512
          },
          {
            "duration": 0.09375,
            "durationTicks": 18,
            "midi": 84,
            "name": "C6",
            "ticks": 11400,
            "time": 59.375,
            "velocity": 0.5669291338582677
          },
          {
            "duration": 0.25,
            "durationTicks": 48,
            "midi": 60,
            "name": "C4",
            "ticks": 11424,
            "time": 59.5,
            "velocity": 0.6377952755905512
          },
          {
            "duration": 0.203125,
            "durationTicks": 39,
            "midi": 80,
            "name": "G#5",
            "ticks": 11424,
            "time": 59.5,
            "velocity": 0.6614173228346457
          },
          {
            "duration": 0.1979166666666643,
            "durationTicks": 38,
            "midi": 84,
            "name": "C6",
            "ticks": 11424,
            "time": 59.5,
            "velocity": 0.5905511811023622
          },
          {
            "duration": 0.1875,
            "durationTicks": 36,
            "midi": 60,
            "name": "C4",
            "ticks": 11472,
            "time": 59.75,
            "velocity": 0.5669291338582677
          },
          {
            "duration": 0.46875,
            "durationTicks": 90,
            "midi": 78,
            "name": "F#5",
            "ticks": 11472,
            "time": 59.75,
            "velocity": 0.6377952755905512
          },
          {
            "duration": 0.46875,
            "durationTicks": 90,
            "midi": 84,
            "name": "C6",
            "ticks": 11472,
            "time": 59.75,
            "velocity": 0.4566929133858268
          },
          {
            "duration": 1.953125,
            "durationTicks": 375,
            "midi": 56,
            "name": "G#3",
            "ticks": 11517,
            "time": 59.984375,
            "velocity": 0.6929133858267716
          },
          {
            "duration": 1.9166666666666643,
            "durationTicks": 368,
            "midi": 49,
            "name": "C#3",
            "ticks": 11518,
            "time": 59.989583333333336,
            "velocity": 0.5669291338582677
          },
          {
            "duration": 0.25,
            "durationTicks": 48,
            "midi": 61,
            "name": "C#4",
            "ticks": 11520,
            "time": 60,
            "velocity": 0.9448818897637795
          },
          {
            "duration": 0.25,
            "durationTicks": 48,
            "midi": 61,
            "name": "C#4",
            "ticks": 11568,
            "time": 60.25,
            "velocity": 0.6771653543307087
          },
          {
            "duration": 0.09375,
            "durationTicks": 18,
            "midi": 78,
            "name": "F#5",
            "ticks": 11592,
            "time": 60.375,
            "velocity": 0.6377952755905512
          },
          {
            "duration": 0.09375,
            "durationTicks": 18,
            "midi": 85,
            "name": "C#6",
            "ticks": 11592,
            "time": 60.375,
            "velocity": 0.6535433070866141
          },
          {
            "duration": 0.25,
            "durationTicks": 48,
            "midi": 61,
            "name": "C#4",
            "ticks": 11616,
            "time": 60.5,
            "velocity": 0.7086614173228346
          },
          {
            "duration": 0.2708333333333357,
            "durationTicks": 52,
            "midi": 78,
            "name": "F#5",
            "ticks": 11616,
            "time": 60.5,
            "velocity": 0.6614173228346457
          },
          {
            "duration": 0.2708333333333357,
            "durationTicks": 52,
            "midi": 85,
            "name": "C#6",
            "ticks": 11616,
            "time": 60.5,
            "velocity": 0.6850393700787402
          },
          {
            "duration": 0.25,
            "durationTicks": 48,
            "midi": 61,
            "name": "C#4",
            "ticks": 11664,
            "time": 60.75,
            "velocity": 0.5984251968503937
          },
          {
            "duration": 0.09375,
            "durationTicks": 18,
            "midi": 77,
            "name": "F5",
            "ticks": 11688,
            "time": 60.875,
            "velocity": 0.6377952755905512
          },
          {
            "duration": 0.09375,
            "durationTicks": 18,
            "midi": 85,
            "name": "C#6",
            "ticks": 11688,
            "time": 60.875,
            "velocity": 0.6535433070866141
          },
          {
            "duration": 0.25,
            "durationTicks": 48,
            "midi": 61,
            "name": "C#4",
            "ticks": 11712,
            "time": 61,
            "velocity": 0.6771653543307087
          },
          {
            "duration": 0.3020833333333357,
            "durationTicks": 58,
            "midi": 77,
            "name": "F5",
            "ticks": 11712,
            "time": 61,
            "velocity": 0.6614173228346457
          },
          {
            "duration": 0.3020833333333357,
            "durationTicks": 58,
            "midi": 85,
            "name": "C#6",
            "ticks": 11712,
            "time": 61,
            "velocity": 0.6850393700787402
          },
          {
            "duration": 0.25,
            "durationTicks": 48,
            "midi": 61,
            "name": "C#4",
            "ticks": 11760,
            "time": 61.25,
            "velocity": 0.5826771653543307
          },
          {
            "duration": 0.09375,
            "durationTicks": 18,
            "midi": 80,
            "name": "G#5",
            "ticks": 11784,
            "time": 61.375,
            "velocity": 0.6377952755905512
          },
          {
            "duration": 0.09375,
            "durationTicks": 18,
            "midi": 85,
            "name": "C#6",
            "ticks": 11784,
            "time": 61.375,
            "velocity": 0.5669291338582677
          },
          {
            "duration": 0.25,
            "durationTicks": 48,
            "midi": 61,
            "name": "C#4",
            "ticks": 11808,
            "time": 61.5,
            "velocity": 0.6220472440944882
          },
          {
            "duration": 0.203125,
            "durationTicks": 39,
            "midi": 80,
            "name": "G#5",
            "ticks": 11808,
            "time": 61.5,
            "velocity": 0.6614173228346457
          },
          {
            "duration": 0.1979166666666643,
            "durationTicks": 38,
            "midi": 85,
            "name": "C#6",
            "ticks": 11808,
            "time": 61.5,
            "velocity": 0.5905511811023622
          },
          {
            "duration": 0.1875,
            "durationTicks": 36,
            "midi": 61,
            "name": "C#4",
            "ticks": 11856,
            "time": 61.75,
            "velocity": 0.5433070866141733
          },
          {
            "duration": 0.46875,
            "durationTicks": 90,
            "midi": 78,
            "name": "F#5",
            "ticks": 11856,
            "time": 61.75,
            "velocity": 0.6377952755905512
          },
          {
            "duration": 0.46875,
            "durationTicks": 90,
            "midi": 85,
            "name": "C#6",
            "ticks": 11856,
            "time": 61.75,
            "velocity": 0.4566929133858268
          },
          {
            "duration": 1.8854166666666643,
            "durationTicks": 362,
            "midi": 45,
            "name": "A2",
            "ticks": 11902,
            "time": 61.989583333333336,
            "velocity": 0.6535433070866141
          },
          {
            "duration": 1.7291666666666643,
            "durationTicks": 332,
            "midi": 52,
            "name": "E3",
            "ticks": 11902,
            "time": 61.989583333333336,
            "velocity": 0.7322834645669292
          },
          {
            "duration": 0.25,
            "durationTicks": 48,
            "midi": 57,
            "name": "A3",
            "ticks": 11904,
            "time": 62,
            "velocity": 0.8267716535433071
          },
          {
            "duration": 0.25,
            "durationTicks": 48,
            "midi": 57,
            "name": "A3",
            "ticks": 11952,
            "time": 62.25,
            "velocity": 0.5826771653543307
          },
          {
            "duration": 0.125,
            "durationTicks": 24,
            "midi": 80,
            "name": "G#5",
            "ticks": 11952,
            "time": 62.25,
            "velocity": 0.7007874015748031
          },
          {
            "duration": 0.125,
            "durationTicks": 24,
            "midi": 81,
            "name": "A5",
            "ticks": 11952,
            "time": 62.25,
            "velocity": 0.5826771653543307
          },
          {
            "duration": 0.25,
            "durationTicks": 48,
            "midi": 57,
            "name": "A3",
            "ticks": 12000,
            "time": 62.5,
            "velocity": 0.6062992125984252
          },
          {
            "duration": 0.25,
            "durationTicks": 48,
            "midi": 80,
            "name": "G#5",
            "ticks": 12000,
            "time": 62.5,
            "velocity": 0.6771653543307087
          },
          {
            "duration": 0.25,
            "durationTicks": 48,
            "midi": 81,
            "name": "A5",
            "ticks": 12000,
            "time": 62.5,
            "velocity": 0.6771653543307087
          },
          {
            "duration": 0.25,
            "durationTicks": 48,
            "midi": 57,
            "name": "A3",
            "ticks": 12048,
            "time": 62.75,
            "velocity": 0.5275590551181102
          },
          {
            "duration": 0.125,
            "durationTicks": 24,
            "midi": 78,
            "name": "F#5",
            "ticks": 12048,
            "time": 62.75,
            "velocity": 0.6614173228346457
          },
          {
            "duration": 0.125,
            "durationTicks": 24,
            "midi": 81,
            "name": "A5",
            "ticks": 12048,
            "time": 62.75,
            "velocity": 0.6220472440944882
          },
          {
            "duration": 0.25,
            "durationTicks": 48,
            "midi": 57,
            "name": "A3",
            "ticks": 12096,
            "time": 63,
            "velocity": 0.5826771653543307
          },
          {
            "duration": 0.25,
            "durationTicks": 48,
            "midi": 78,
            "name": "F#5",
            "ticks": 12096,
            "time": 63,
            "velocity": 0.5511811023622047
          },
          {
            "duration": 0.25,
            "durationTicks": 48,
            "midi": 81,
            "name": "A5",
            "ticks": 12096,
            "time": 63,
            "velocity": 0.5511811023622047
          },
          {
            "duration": 0.25,
            "durationTicks": 48,
            "midi": 57,
            "name": "A3",
            "ticks": 12144,
            "time": 63.25,
            "velocity": 0.5118110236220472
          },
          {
            "duration": 0.125,
            "durationTicks": 24,
            "midi": 77,
            "name": "F5",
            "ticks": 12144,
            "time": 63.25,
            "velocity": 0.6614173228346457
          },
          {
            "duration": 0.125,
            "durationTicks": 24,
            "midi": 81,
            "name": "A5",
            "ticks": 12144,
            "time": 63.25,
            "velocity": 0.5196850393700787
          },
          {
            "duration": 0.25,
            "durationTicks": 48,
            "midi": 57,
            "name": "A3",
            "ticks": 12192,
            "time": 63.5,
            "velocity": 0.5354330708661418
          },
          {
            "duration": 0.28125,
            "durationTicks": 54,
            "midi": 77,
            "name": "F5",
            "ticks": 12192,
            "time": 63.5,
            "velocity": 0.6614173228346457
          },
          {
            "duration": 0.25,
            "durationTicks": 48,
            "midi": 81,
            "name": "A5",
            "ticks": 12192,
            "time": 63.5,
            "velocity": 0.6377952755905512
          },
          {
            "duration": 0.1875,
            "durationTicks": 36,
            "midi": 57,
            "name": "A3",
            "ticks": 12240,
            "time": 63.75,
            "velocity": 0.5275590551181102
          },
          {
            "duration": 0.25,
            "durationTicks": 48,
            "midi": 75,
            "name": "D#5",
            "ticks": 12240,
            "time": 63.75,
            "velocity": 0.6141732283464567
          },
          {
            "duration": 0.25,
            "durationTicks": 48,
            "midi": 81,
            "name": "A5",
            "ticks": 12240,
            "time": 63.75,
            "velocity": 0.5354330708661418
          },
          {
            "duration": 0.6614583333333286,
            "durationTicks": 127,
            "midi": 44,
            "name": "G#2",
            "ticks": 12285,
            "time": 63.984375,
            "velocity": 0.7480314960629921
          },
          {
            "duration": 0.5364583333333286,
            "durationTicks": 103,
            "midi": 51,
            "name": "D#3",
            "ticks": 12288,
            "time": 64,
            "velocity": 0.6692913385826772
          },
          {
            "duration": 0.546875,
            "durationTicks": 105,
            "midi": 56,
            "name": "G#3",
            "ticks": 12288,
            "time": 64,
            "velocity": 0.5511811023622047
          },
          {
            "duration": 2,
            "durationTicks": 384,
            "midi": 71,
            "name": "B4",
            "ticks": 12288,
            "time": 64,
            "velocity": 0.6692913385826772
          },
          {
            "duration": 0.6614583333333286,
            "durationTicks": 127,
            "midi": 44,
            "name": "G#2",
            "ticks": 12429,
            "time": 64.734375,
            "velocity": 0.7244094488188977
          },
          {
            "duration": 0.5677083333333286,
            "durationTicks": 109,
            "midi": 51,
            "name": "D#3",
            "ticks": 12432,
            "time": 64.75,
            "velocity": 0.6377952755905512
          },
          {
            "duration": 0.625,
            "durationTicks": 120,
            "midi": 56,
            "name": "G#3",
            "ticks": 12432,
            "time": 64.75,
            "velocity": 0.5590551181102362
          },
          {
            "duration": 0.4583333333333286,
            "durationTicks": 88,
            "midi": 45,
            "name": "A2",
            "ticks": 12576,
            "time": 65.5,
            "velocity": 0.7322834645669292
          },
          {
            "duration": 0.4739583333333286,
            "durationTicks": 91,
            "midi": 52,
            "name": "E3",
            "ticks": 12576,
            "time": 65.5,
            "velocity": 0.6299212598425197
          },
          {
            "duration": 0.5,
            "durationTicks": 96,
            "midi": 57,
            "name": "A3",
            "ticks": 12576,
            "time": 65.5,
            "velocity": 0.5433070866141733
          },
          {
            "duration": 0.6614583333333286,
            "durationTicks": 127,
            "midi": 44,
            "name": "G#2",
            "ticks": 12669,
            "time": 65.984375,
            "velocity": 0.7480314960629921
          },
          {
            "duration": 0.5364583333333286,
            "durationTicks": 103,
            "midi": 51,
            "name": "D#3",
            "ticks": 12672,
            "time": 66,
            "velocity": 0.6692913385826772
          },
          {
            "duration": 0.546875,
            "durationTicks": 105,
            "midi": 56,
            "name": "G#3",
            "ticks": 12672,
            "time": 66,
            "velocity": 0.5511811023622047
          },
          {
            "duration": 1.8854166666666714,
            "durationTicks": 362,
            "midi": 70,
            "name": "A#4",
            "ticks": 12672,
            "time": 66,
            "velocity": 0.6141732283464567
          },
          {
            "duration": 0.7083333333333286,
            "durationTicks": 136,
            "midi": 44,
            "name": "G#2",
            "ticks": 12816,
            "time": 66.75,
            "velocity": 0.7716535433070866
          },
          {
            "duration": 0.6875,
            "durationTicks": 132,
            "midi": 51,
            "name": "D#3",
            "ticks": 12816,
            "time": 66.75,
            "velocity": 0.6850393700787402
          },
          {
            "duration": 0.6875,
            "durationTicks": 132,
            "midi": 56,
            "name": "G#3",
            "ticks": 12816,
            "time": 66.75,
            "velocity": 0.6062992125984252
          },
          {
            "duration": 0.4739583333333286,
            "durationTicks": 91,
            "midi": 42,
            "name": "F#2",
            "ticks": 12957,
            "time": 67.484375,
            "velocity": 0.7322834645669292
          },
          {
            "duration": 0.4791666666666572,
            "durationTicks": 92,
            "midi": 49,
            "name": "C#3",
            "ticks": 12959,
            "time": 67.49479166666667,
            "velocity": 0.6377952755905512
          },
          {
            "duration": 0.5,
            "durationTicks": 96,
            "midi": 54,
            "name": "F#3",
            "ticks": 12960,
            "time": 67.5,
            "velocity": 0.5511811023622047
          },
          {
            "duration": 0.6614583333333286,
            "durationTicks": 127,
            "midi": 44,
            "name": "G#2",
            "ticks": 13053,
            "time": 67.984375,
            "velocity": 0.7480314960629921
          },
          {
            "duration": 0.5364583333333286,
            "durationTicks": 103,
            "midi": 51,
            "name": "D#3",
            "ticks": 13056,
            "time": 68,
            "velocity": 0.6692913385826772
          },
          {
            "duration": 0.546875,
            "durationTicks": 105,
            "midi": 56,
            "name": "G#3",
            "ticks": 13056,
            "time": 68,
            "velocity": 0.5511811023622047
          },
          {
            "duration": 1.8958333333333286,
            "durationTicks": 364,
            "midi": 68,
            "name": "G#4",
            "ticks": 13056,
            "time": 68,
            "velocity": 0.6377952755905512
          },
          {
            "duration": 0.6458333333333286,
            "durationTicks": 124,
            "midi": 44,
            "name": "G#2",
            "ticks": 13200,
            "time": 68.75,
            "velocity": 0.7244094488188977
          },
          {
            "duration": 0.5677083333333286,
            "durationTicks": 109,
            "midi": 51,
            "name": "D#3",
            "ticks": 13200,
            "time": 68.75,
            "velocity": 0.6377952755905512
          },
          {
            "duration": 0.625,
            "durationTicks": 120,
            "midi": 56,
            "name": "G#3",
            "ticks": 13200,
            "time": 68.75,
            "velocity": 0.5590551181102362
          },
          {
            "duration": 0.4583333333333286,
            "durationTicks": 88,
            "midi": 45,
            "name": "A2",
            "ticks": 13344,
            "time": 69.5,
            "velocity": 0.7322834645669292
          },
          {
            "duration": 0.4739583333333286,
            "durationTicks": 91,
            "midi": 52,
            "name": "E3",
            "ticks": 13344,
            "time": 69.5,
            "velocity": 0.6299212598425197
          },
          {
            "duration": 0.5,
            "durationTicks": 96,
            "midi": 57,
            "name": "A3",
            "ticks": 13344,
            "time": 69.5,
            "velocity": 0.5433070866141733
          },
          {
            "duration": 0.6458333333333286,
            "durationTicks": 124,
            "midi": 44,
            "name": "G#2",
            "ticks": 13440,
            "time": 70,
            "velocity": 0.7716535433070866
          },
          {
            "duration": 0.5364583333333286,
            "durationTicks": 103,
            "midi": 51,
            "name": "D#3",
            "ticks": 13440,
            "time": 70,
            "velocity": 0.6456692913385826
          },
          {
            "duration": 0.546875,
            "durationTicks": 105,
            "midi": 56,
            "name": "G#3",
            "ticks": 13440,
            "time": 70,
            "velocity": 0.5669291338582677
          },
          {
            "duration": 1.7604166666666714,
            "durationTicks": 338,
            "midi": 67,
            "name": "G4",
            "ticks": 13440,
            "time": 70,
            "velocity": 0.6377952755905512
          },
          {
            "duration": 0.4947916666666714,
            "durationTicks": 95,
            "midi": 42,
            "name": "F#2",
            "ticks": 13632,
            "time": 71,
            "velocity": 0.6929133858267716
          },
          {
            "duration": 0.4895833333333286,
            "durationTicks": 94,
            "midi": 49,
            "name": "C#3",
            "ticks": 13632,
            "time": 71,
            "velocity": 0.5984251968503937
          },
          {
            "duration": 0.4895833333333286,
            "durationTicks": 94,
            "midi": 54,
            "name": "F#3",
            "ticks": 13632,
            "time": 71,
            "velocity": 0.5196850393700787
          },
          {
            "duration": 0.5208333333333286,
            "durationTicks": 100,
            "midi": 42,
            "name": "F#2",
            "ticks": 13728,
            "time": 71.5,
            "velocity": 0.7165354330708661
          },
          {
            "duration": 0.5052083333333286,
            "durationTicks": 97,
            "midi": 49,
            "name": "C#3",
            "ticks": 13728,
            "time": 71.5,
            "velocity": 0.6141732283464567
          },
          {
            "duration": 0.5,
            "durationTicks": 96,
            "midi": 54,
            "name": "F#3",
            "ticks": 13728,
            "time": 71.5,
            "velocity": 0.5275590551181102
          },
          {
            "duration": 0.6614583333333286,
            "durationTicks": 127,
            "midi": 44,
            "name": "G#2",
            "ticks": 13821,
            "time": 71.984375,
            "velocity": 0.7480314960629921
          },
          {
            "duration": 0.5364583333333286,
            "durationTicks": 103,
            "midi": 51,
            "name": "D#3",
            "ticks": 13824,
            "time": 72,
            "velocity": 0.6692913385826772
          },
          {
            "duration": 0.546875,
            "durationTicks": 105,
            "midi": 56,
            "name": "G#3",
            "ticks": 13824,
            "time": 72,
            "velocity": 0.5511811023622047
          },
          {
            "duration": 2,
            "durationTicks": 384,
            "midi": 71,
            "name": "B4",
            "ticks": 13824,
            "time": 72,
            "velocity": 0.6692913385826772
          },
          {
            "duration": 0.6614583333333286,
            "durationTicks": 127,
            "midi": 44,
            "name": "G#2",
            "ticks": 13965,
            "time": 72.734375,
            "velocity": 0.7244094488188977
          },
          {
            "duration": 0.5677083333333286,
            "durationTicks": 109,
            "midi": 51,
            "name": "D#3",
            "ticks": 13968,
            "time": 72.75,
            "velocity": 0.6377952755905512
          },
          {
            "duration": 0.625,
            "durationTicks": 120,
            "midi": 56,
            "name": "G#3",
            "ticks": 13968,
            "time": 72.75,
            "velocity": 0.5590551181102362
          },
          {
            "duration": 0.4583333333333286,
            "durationTicks": 88,
            "midi": 45,
            "name": "A2",
            "ticks": 14112,
            "time": 73.5,
            "velocity": 0.7322834645669292
          },
          {
            "duration": 0.4739583333333286,
            "durationTicks": 91,
            "midi": 52,
            "name": "E3",
            "ticks": 14112,
            "time": 73.5,
            "velocity": 0.6299212598425197
          },
          {
            "duration": 0.5,
            "durationTicks": 96,
            "midi": 57,
            "name": "A3",
            "ticks": 14112,
            "time": 73.5,
            "velocity": 0.5433070866141733
          },
          {
            "duration": 0.6614583333333286,
            "durationTicks": 127,
            "midi": 44,
            "name": "G#2",
            "ticks": 14205,
            "time": 73.984375,
            "velocity": 0.7480314960629921
          },
          {
            "duration": 0.5364583333333286,
            "durationTicks": 103,
            "midi": 51,
            "name": "D#3",
            "ticks": 14208,
            "time": 74,
            "velocity": 0.6692913385826772
          },
          {
            "duration": 0.546875,
            "durationTicks": 105,
            "midi": 56,
            "name": "G#3",
            "ticks": 14208,
            "time": 74,
            "velocity": 0.5511811023622047
          },
          {
            "duration": 1.8854166666666714,
            "durationTicks": 362,
            "midi": 70,
            "name": "A#4",
            "ticks": 14208,
            "time": 74,
            "velocity": 0.6141732283464567
          },
          {
            "duration": 0.7083333333333286,
            "durationTicks": 136,
            "midi": 44,
            "name": "G#2",
            "ticks": 14352,
            "time": 74.75,
            "velocity": 0.7716535433070866
          },
          {
            "duration": 0.6875,
            "durationTicks": 132,
            "midi": 51,
            "name": "D#3",
            "ticks": 14352,
            "time": 74.75,
            "velocity": 0.6850393700787402
          },
          {
            "duration": 0.6875,
            "durationTicks": 132,
            "midi": 56,
            "name": "G#3",
            "ticks": 14352,
            "time": 74.75,
            "velocity": 0.6062992125984252
          },
          {
            "duration": 0.4739583333333286,
            "durationTicks": 91,
            "midi": 42,
            "name": "F#2",
            "ticks": 14493,
            "time": 75.484375,
            "velocity": 0.7322834645669292
          },
          {
            "duration": 0.4791666666666572,
            "durationTicks": 92,
            "midi": 49,
            "name": "C#3",
            "ticks": 14495,
            "time": 75.49479166666667,
            "velocity": 0.6377952755905512
          },
          {
            "duration": 0.5,
            "durationTicks": 96,
            "midi": 54,
            "name": "F#3",
            "ticks": 14496,
            "time": 75.5,
            "velocity": 0.5511811023622047
          },
          {
            "duration": 0.6614583333333286,
            "durationTicks": 127,
            "midi": 44,
            "name": "G#2",
            "ticks": 14589,
            "time": 75.984375,
            "velocity": 0.7480314960629921
          },
          {
            "duration": 0.5364583333333286,
            "durationTicks": 103,
            "midi": 51,
            "name": "D#3",
            "ticks": 14592,
            "time": 76,
            "velocity": 0.6692913385826772
          },
          {
            "duration": 0.546875,
            "durationTicks": 105,
            "midi": 56,
            "name": "G#3",
            "ticks": 14592,
            "time": 76,
            "velocity": 0.5511811023622047
          },
          {
            "duration": 1.8958333333333286,
            "durationTicks": 364,
            "midi": 68,
            "name": "G#4",
            "ticks": 14592,
            "time": 76,
            "velocity": 0.6377952755905512
          },
          {
            "duration": 0.015625,
            "durationTicks": 3,
            "midi": 44,
            "name": "G#2",
            "ticks": 14733,
            "time": 76.734375,
            "velocity": 0.7244094488188977
          },
          {
            "duration": 0.6458333333333286,
            "durationTicks": 124,
            "midi": 44,
            "name": "G#2",
            "ticks": 14736,
            "time": 76.75,
            "velocity": 0.7244094488188977
          },
          {
            "duration": 0.5677083333333286,
            "durationTicks": 109,
            "midi": 51,
            "name": "D#3",
            "ticks": 14736,
            "time": 76.75,
            "velocity": 0.6377952755905512
          },
          {
            "duration": 0.625,
            "durationTicks": 120,
            "midi": 56,
            "name": "G#3",
            "ticks": 14736,
            "time": 76.75,
            "velocity": 0.5590551181102362
          },
          {
            "duration": 0.4583333333333286,
            "durationTicks": 88,
            "midi": 45,
            "name": "A2",
            "ticks": 14880,
            "time": 77.5,
            "velocity": 0.7322834645669292
          },
          {
            "duration": 0.4739583333333286,
            "durationTicks": 91,
            "midi": 52,
            "name": "E3",
            "ticks": 14880,
            "time": 77.5,
            "velocity": 0.6299212598425197
          },
          {
            "duration": 0.5,
            "durationTicks": 96,
            "midi": 57,
            "name": "A3",
            "ticks": 14880,
            "time": 77.5,
            "velocity": 0.5433070866141733
          },
          {
            "duration": 0.6458333333333286,
            "durationTicks": 124,
            "midi": 44,
            "name": "G#2",
            "ticks": 14976,
            "time": 78,
            "velocity": 0.7716535433070866
          },
          {
            "duration": 0.5364583333333286,
            "durationTicks": 103,
            "midi": 51,
            "name": "D#3",
            "ticks": 14976,
            "time": 78,
            "velocity": 0.6456692913385826
          },
          {
            "duration": 0.546875,
            "durationTicks": 105,
            "midi": 56,
            "name": "G#3",
            "ticks": 14976,
            "time": 78,
            "velocity": 0.5669291338582677
          },
          {
            "duration": 1.7604166666666714,
            "durationTicks": 338,
            "midi": 67,
            "name": "G4",
            "ticks": 14976,
            "time": 78,
            "velocity": 0.6377952755905512
          },
          {
            "duration": 0.4947916666666714,
            "durationTicks": 95,
            "midi": 42,
            "name": "F#2",
            "ticks": 15168,
            "time": 79,
            "velocity": 0.6929133858267716
          },
          {
            "duration": 0.4895833333333286,
            "durationTicks": 94,
            "midi": 49,
            "name": "C#3",
            "ticks": 15168,
            "time": 79,
            "velocity": 0.5984251968503937
          },
          {
            "duration": 0.4895833333333286,
            "durationTicks": 94,
            "midi": 54,
            "name": "F#3",
            "ticks": 15168,
            "time": 79,
            "velocity": 0.5196850393700787
          },
          {
            "duration": 0.484375,
            "durationTicks": 93,
            "midi": 42,
            "name": "F#2",
            "ticks": 15264,
            "time": 79.5,
            "velocity": 0.7165354330708661
          },
          {
            "duration": 0.5,
            "durationTicks": 96,
            "midi": 49,
            "name": "C#3",
            "ticks": 15264,
            "time": 79.5,
            "velocity": 0.6141732283464567
          },
          {
            "duration": 0.5,
            "durationTicks": 96,
            "midi": 54,
            "name": "F#3",
            "ticks": 15264,
            "time": 79.5,
            "velocity": 0.5275590551181102
          },
          {
            "duration": 0.6614583333333286,
            "durationTicks": 127,
            "midi": 42,
            "name": "F#2",
            "ticks": 15357,
            "time": 79.984375,
            "velocity": 0.7480314960629921
          },
          {
            "duration": 0.5364583333333286,
            "durationTicks": 103,
            "midi": 49,
            "name": "C#3",
            "ticks": 15360,
            "time": 80,
            "velocity": 0.6692913385826772
          },
          {
            "duration": 0.546875,
            "durationTicks": 105,
            "midi": 54,
            "name": "F#3",
            "ticks": 15360,
            "time": 80,
            "velocity": 0.5511811023622047
          },
          {
            "duration": 2,
            "durationTicks": 384,
            "midi": 69,
            "name": "A4",
            "ticks": 15360,
            "time": 80,
            "velocity": 0.6850393700787402
          },
          {
            "duration": 0.6614583333333286,
            "durationTicks": 127,
            "midi": 42,
            "name": "F#2",
            "ticks": 15501,
            "time": 80.734375,
            "velocity": 0.7244094488188977
          },
          {
            "duration": 0.5677083333333286,
            "durationTicks": 109,
            "midi": 49,
            "name": "C#3",
            "ticks": 15504,
            "time": 80.75,
            "velocity": 0.6377952755905512
          },
          {
            "duration": 0.625,
            "durationTicks": 120,
            "midi": 54,
            "name": "F#3",
            "ticks": 15504,
            "time": 80.75,
            "velocity": 0.5590551181102362
          },
          {
            "duration": 0.4583333333333286,
            "durationTicks": 88,
            "midi": 43,
            "name": "G2",
            "ticks": 15648,
            "time": 81.5,
            "velocity": 0.7322834645669292
          },
          {
            "duration": 0.4739583333333286,
            "durationTicks": 91,
            "midi": 50,
            "name": "D3",
            "ticks": 15648,
            "time": 81.5,
            "velocity": 0.6299212598425197
          },
          {
            "duration": 0.5,
            "durationTicks": 96,
            "midi": 55,
            "name": "G3",
            "ticks": 15648,
            "time": 81.5,
            "velocity": 0.5433070866141733
          },
          {
            "duration": 0.6614583333333286,
            "durationTicks": 127,
            "midi": 42,
            "name": "F#2",
            "ticks": 15741,
            "time": 81.984375,
            "velocity": 0.7480314960629921
          },
          {
            "duration": 0.5364583333333286,
            "durationTicks": 103,
            "midi": 49,
            "name": "C#3",
            "ticks": 15744,
            "time": 82,
            "velocity": 0.6692913385826772
          },
          {
            "duration": 0.546875,
            "durationTicks": 105,
            "midi": 54,
            "name": "F#3",
            "ticks": 15744,
            "time": 82,
            "velocity": 0.5511811023622047
          },
          {
            "duration": 1.8854166666666714,
            "durationTicks": 362,
            "midi": 68,
            "name": "G#4",
            "ticks": 15744,
            "time": 82,
            "velocity": 0.6377952755905512
          },
          {
            "duration": 0.7083333333333286,
            "durationTicks": 136,
            "midi": 42,
            "name": "F#2",
            "ticks": 15888,
            "time": 82.75,
            "velocity": 0.7716535433070866
          },
          {
            "duration": 0.6875,
            "durationTicks": 132,
            "midi": 49,
            "name": "C#3",
            "ticks": 15888,
            "time": 82.75,
            "velocity": 0.6850393700787402
          },
          {
            "duration": 0.6875,
            "durationTicks": 132,
            "midi": 54,
            "name": "F#3",
            "ticks": 15888,
            "time": 82.75,
            "velocity": 0.6062992125984252
          },
          {
            "duration": 0.4739583333333286,
            "durationTicks": 91,
            "midi": 40,
            "name": "E2",
            "ticks": 16029,
            "time": 83.484375,
            "velocity": 0.7322834645669292
          },
          {
            "duration": 0.4791666666666572,
            "durationTicks": 92,
            "midi": 47,
            "name": "B2",
            "ticks": 16031,
            "time": 83.49479166666667,
            "velocity": 0.6377952755905512
          },
          {
            "duration": 0.5,
            "durationTicks": 96,
            "midi": 52,
            "name": "E3",
            "ticks": 16032,
            "time": 83.5,
            "velocity": 0.5511811023622047
          },
          {
            "duration": 0.6614583333333286,
            "durationTicks": 127,
            "midi": 42,
            "name": "F#2",
            "ticks": 16125,
            "time": 83.984375,
            "velocity": 0.7480314960629921
          },
          {
            "duration": 0.5364583333333286,
            "durationTicks": 103,
            "midi": 49,
            "name": "C#3",
            "ticks": 16128,
            "time": 84,
            "velocity": 0.6692913385826772
          },
          {
            "duration": 0.546875,
            "durationTicks": 105,
            "midi": 54,
            "name": "F#3",
            "ticks": 16128,
            "time": 84,
            "velocity": 0.5511811023622047
          },
          {
            "duration": 1.8958333333333286,
            "durationTicks": 364,
            "midi": 65,
            "name": "F4",
            "ticks": 16128,
            "time": 84,
            "velocity": 0.6535433070866141
          },
          {
            "duration": 0.015625,
            "durationTicks": 3,
            "midi": 42,
            "name": "F#2",
            "ticks": 16269,
            "time": 84.734375,
            "velocity": 0.6535433070866141
          },
          {
            "duration": 0.6458333333333286,
            "durationTicks": 124,
            "midi": 42,
            "name": "F#2",
            "ticks": 16272,
            "time": 84.75,
            "velocity": 0.7244094488188977
          },
          {
            "duration": 0.5677083333333286,
            "durationTicks": 109,
            "midi": 49,
            "name": "C#3",
            "ticks": 16272,
            "time": 84.75,
            "velocity": 0.6377952755905512
          },
          {
            "duration": 0.625,
            "durationTicks": 120,
            "midi": 54,
            "name": "F#3",
            "ticks": 16272,
            "time": 84.75,
            "velocity": 0.5590551181102362
          },
          {
            "duration": 0.4583333333333286,
            "durationTicks": 88,
            "midi": 43,
            "name": "G2",
            "ticks": 16416,
            "time": 85.5,
            "velocity": 0.7322834645669292
          },
          {
            "duration": 0.4739583333333286,
            "durationTicks": 91,
            "midi": 50,
            "name": "D3",
            "ticks": 16416,
            "time": 85.5,
            "velocity": 0.6299212598425197
          },
          {
            "duration": 0.5,
            "durationTicks": 96,
            "midi": 55,
            "name": "G3",
            "ticks": 16416,
            "time": 85.5,
            "velocity": 0.5433070866141733
          },
          {
            "duration": 0.6458333333333286,
            "durationTicks": 124,
            "midi": 42,
            "name": "F#2",
            "ticks": 16512,
            "time": 86,
            "velocity": 0.7716535433070866
          },
          {
            "duration": 0.5364583333333286,
            "durationTicks": 103,
            "midi": 49,
            "name": "C#3",
            "ticks": 16512,
            "time": 86,
            "velocity": 0.6456692913385826
          },
          {
            "duration": 0.546875,
            "durationTicks": 105,
            "midi": 54,
            "name": "F#3",
            "ticks": 16512,
            "time": 86,
            "velocity": 0.5669291338582677
          },
          {
            "duration": 1.7604166666666714,
            "durationTicks": 338,
            "midi": 66,
            "name": "F#4",
            "ticks": 16512,
            "time": 86,
            "velocity": 0.6535433070866141
          },
          {
            "duration": 0.4947916666666714,
            "durationTicks": 95,
            "midi": 40,
            "name": "E2",
            "ticks": 16704,
            "time": 87,
            "velocity": 0.6929133858267716
          },
          {
            "duration": 0.4895833333333286,
            "durationTicks": 94,
            "midi": 47,
            "name": "B2",
            "ticks": 16704,
            "time": 87,
            "velocity": 0.5984251968503937
          },
          {
            "duration": 0.4895833333333286,
            "durationTicks": 94,
            "midi": 52,
            "name": "E3",
            "ticks": 16704,
            "time": 87,
            "velocity": 0.5196850393700787
          },
          {
            "duration": 0.5208333333333286,
            "durationTicks": 100,
            "midi": 40,
            "name": "E2",
            "ticks": 16800,
            "time": 87.5,
            "velocity": 0.7165354330708661
          },
          {
            "duration": 0.5052083333333286,
            "durationTicks": 97,
            "midi": 47,
            "name": "B2",
            "ticks": 16800,
            "time": 87.5,
            "velocity": 0.6141732283464567
          },
          {
            "duration": 0.5,
            "durationTicks": 96,
            "midi": 52,
            "name": "E3",
            "ticks": 16800,
            "time": 87.5,
            "velocity": 0.5275590551181102
          },
          {
            "duration": 0.6614583333333286,
            "durationTicks": 127,
            "midi": 42,
            "name": "F#2",
            "ticks": 16893,
            "time": 87.984375,
            "velocity": 0.7480314960629921
          },
          {
            "duration": 0.5364583333333286,
            "durationTicks": 103,
            "midi": 49,
            "name": "C#3",
            "ticks": 16896,
            "time": 88,
            "velocity": 0.6692913385826772
          },
          {
            "duration": 0.546875,
            "durationTicks": 105,
            "midi": 54,
            "name": "F#3",
            "ticks": 16896,
            "time": 88,
            "velocity": 0.5511811023622047
          },
          {
            "duration": 2,
            "durationTicks": 384,
            "midi": 69,
            "name": "A4",
            "ticks": 16896,
            "time": 88,
            "velocity": 0.6850393700787402
          },
          {
            "duration": 0.6614583333333286,
            "durationTicks": 127,
            "midi": 42,
            "name": "F#2",
            "ticks": 17037,
            "time": 88.734375,
            "velocity": 0.7244094488188977
          },
          {
            "duration": 0.5677083333333286,
            "durationTicks": 109,
            "midi": 49,
            "name": "C#3",
            "ticks": 17040,
            "time": 88.75,
            "velocity": 0.6377952755905512
          },
          {
            "duration": 0.625,
            "durationTicks": 120,
            "midi": 54,
            "name": "F#3",
            "ticks": 17040,
            "time": 88.75,
            "velocity": 0.5590551181102362
          },
          {
            "duration": 0.4583333333333286,
            "durationTicks": 88,
            "midi": 43,
            "name": "G2",
            "ticks": 17184,
            "time": 89.5,
            "velocity": 0.7322834645669292
          },
          {
            "duration": 0.4739583333333286,
            "durationTicks": 91,
            "midi": 50,
            "name": "D3",
            "ticks": 17184,
            "time": 89.5,
            "velocity": 0.6299212598425197
          },
          {
            "duration": 0.5,
            "durationTicks": 96,
            "midi": 55,
            "name": "G3",
            "ticks": 17184,
            "time": 89.5,
            "velocity": 0.5433070866141733
          },
          {
            "duration": 0.6614583333333286,
            "durationTicks": 127,
            "midi": 42,
            "name": "F#2",
            "ticks": 17277,
            "time": 89.984375,
            "velocity": 0.7480314960629921
          },
          {
            "duration": 0.5364583333333286,
            "durationTicks": 103,
            "midi": 49,
            "name": "C#3",
            "ticks": 17280,
            "time": 90,
            "velocity": 0.6692913385826772
          },
          {
            "duration": 0.546875,
            "durationTicks": 105,
            "midi": 54,
            "name": "F#3",
            "ticks": 17280,
            "time": 90,
            "velocity": 0.5511811023622047
          },
          {
            "duration": 1.8854166666666714,
            "durationTicks": 362,
            "midi": 68,
            "name": "G#4",
            "ticks": 17280,
            "time": 90,
            "velocity": 0.6377952755905512
          },
          {
            "duration": 0.7083333333333286,
            "durationTicks": 136,
            "midi": 42,
            "name": "F#2",
            "ticks": 17424,
            "time": 90.75,
            "velocity": 0.7716535433070866
          },
          {
            "duration": 0.6875,
            "durationTicks": 132,
            "midi": 49,
            "name": "C#3",
            "ticks": 17424,
            "time": 90.75,
            "velocity": 0.6850393700787402
          },
          {
            "duration": 0.6875,
            "durationTicks": 132,
            "midi": 54,
            "name": "F#3",
            "ticks": 17424,
            "time": 90.75,
            "velocity": 0.6062992125984252
          },
          {
            "duration": 0.4739583333333286,
            "durationTicks": 91,
            "midi": 40,
            "name": "E2",
            "ticks": 17565,
            "time": 91.484375,
            "velocity": 0.7322834645669292
          },
          {
            "duration": 0.4791666666666572,
            "durationTicks": 92,
            "midi": 47,
            "name": "B2",
            "ticks": 17567,
            "time": 91.49479166666667,
            "velocity": 0.6377952755905512
          },
          {
            "duration": 0.5,
            "durationTicks": 96,
            "midi": 52,
            "name": "E3",
            "ticks": 17568,
            "time": 91.5,
            "velocity": 0.5511811023622047
          },
          {
            "duration": 0.6614583333333286,
            "durationTicks": 127,
            "midi": 42,
            "name": "F#2",
            "ticks": 17661,
            "time": 91.984375,
            "velocity": 0.7480314960629921
          },
          {
            "duration": 0.5364583333333286,
            "durationTicks": 103,
            "midi": 49,
            "name": "C#3",
            "ticks": 17664,
            "time": 92,
            "velocity": 0.6692913385826772
          },
          {
            "duration": 0.546875,
            "durationTicks": 105,
            "midi": 54,
            "name": "F#3",
            "ticks": 17664,
            "time": 92,
            "velocity": 0.5511811023622047
          },
          {
            "duration": 1.8958333333333286,
            "durationTicks": 364,
            "midi": 65,
            "name": "F4",
            "ticks": 17664,
            "time": 92,
            "velocity": 0.6535433070866141
          },
          {
            "duration": 0.015625,
            "durationTicks": 3,
            "midi": 42,
            "name": "F#2",
            "ticks": 17805,
            "time": 92.734375,
            "velocity": 0.7244094488188977
          },
          {
            "duration": 0.6458333333333286,
            "durationTicks": 124,
            "midi": 42,
            "name": "F#2",
            "ticks": 17808,
            "time": 92.75,
            "velocity": 0.7244094488188977
          },
          {
            "duration": 0.5677083333333286,
            "durationTicks": 109,
            "midi": 49,
            "name": "C#3",
            "ticks": 17808,
            "time": 92.75,
            "velocity": 0.6377952755905512
          },
          {
            "duration": 0.625,
            "durationTicks": 120,
            "midi": 54,
            "name": "F#3",
            "ticks": 17808,
            "time": 92.75,
            "velocity": 0.5590551181102362
          },
          {
            "duration": 0.4583333333333286,
            "durationTicks": 88,
            "midi": 43,
            "name": "G2",
            "ticks": 17952,
            "time": 93.5,
            "velocity": 0.7322834645669292
          },
          {
            "duration": 0.4739583333333286,
            "durationTicks": 91,
            "midi": 50,
            "name": "D3",
            "ticks": 17952,
            "time": 93.5,
            "velocity": 0.6299212598425197
          },
          {
            "duration": 0.5,
            "durationTicks": 96,
            "midi": 55,
            "name": "G3",
            "ticks": 17952,
            "time": 93.5,
            "velocity": 0.5433070866141733
          },
          {
            "duration": 0.6458333333333286,
            "durationTicks": 124,
            "midi": 42,
            "name": "F#2",
            "ticks": 18048,
            "time": 94,
            "velocity": 0.7716535433070866
          },
          {
            "duration": 0.5364583333333286,
            "durationTicks": 103,
            "midi": 49,
            "name": "C#3",
            "ticks": 18048,
            "time": 94,
            "velocity": 0.6456692913385826
          },
          {
            "duration": 0.546875,
            "durationTicks": 105,
            "midi": 54,
            "name": "F#3",
            "ticks": 18048,
            "time": 94,
            "velocity": 0.5669291338582677
          },
          {
            "duration": 1.8229166666666714,
            "durationTicks": 350,
            "midi": 66,
            "name": "F#4",
            "ticks": 18048,
            "time": 94,
            "velocity": 0.6535433070866141
          },
          {
            "duration": 0.4947916666666714,
            "durationTicks": 95,
            "midi": 40,
            "name": "E2",
            "ticks": 18240,
            "time": 95,
            "velocity": 0.6929133858267716
          },
          {
            "duration": 0.4895833333333286,
            "durationTicks": 94,
            "midi": 47,
            "name": "B2",
            "ticks": 18240,
            "time": 95,
            "velocity": 0.5984251968503937
          },
          {
            "duration": 0.4895833333333286,
            "durationTicks": 94,
            "midi": 52,
            "name": "E3",
            "ticks": 18240,
            "time": 95,
            "velocity": 0.5196850393700787
          },
          {
            "duration": 0.5208333333333286,
            "durationTicks": 100,
            "midi": 40,
            "name": "E2",
            "ticks": 18336,
            "time": 95.5,
            "velocity": 0.7165354330708661
          },
          {
            "duration": 0.5052083333333286,
            "durationTicks": 97,
            "midi": 47,
            "name": "B2",
            "ticks": 18336,
            "time": 95.5,
            "velocity": 0.6141732283464567
          },
          {
            "duration": 0.5,
            "durationTicks": 96,
            "midi": 52,
            "name": "E3",
            "ticks": 18336,
            "time": 95.5,
            "velocity": 0.5275590551181102
          },
          {
            "duration": 0.171875,
            "durationTicks": 33,
            "midi": 58,
            "name": "A#3",
            "ticks": 18432,
            "time": 96,
            "velocity": 0.5433070866141733
          },
          {
            "duration": 0.1510416666666714,
            "durationTicks": 29,
            "midi": 70,
            "name": "A#4",
            "ticks": 18456,
            "time": 96.125,
            "velocity": 0.5039370078740157
          },
          {
            "duration": 0.109375,
            "durationTicks": 21,
            "midi": 58,
            "name": "A#3",
            "ticks": 18480,
            "time": 96.25,
            "velocity": 0.6062992125984252
          },
          {
            "duration": 0.125,
            "durationTicks": 24,
            "midi": 68,
            "name": "G#4",
            "ticks": 18480,
            "time": 96.25,
            "velocity": 0.6929133858267716
          },
          {
            "duration": 0.125,
            "durationTicks": 24,
            "midi": 70,
            "name": "A#4",
            "ticks": 18504,
            "time": 96.375,
            "velocity": 0.6929133858267716
          },
          {
            "duration": 0.109375,
            "durationTicks": 21,
            "midi": 58,
            "name": "A#3",
            "ticks": 18528,
            "time": 96.5,
            "velocity": 0.5433070866141733
          },
          {
            "duration": 0.1510416666666714,
            "durationTicks": 29,
            "midi": 66,
            "name": "F#4",
            "ticks": 18528,
            "time": 96.5,
            "velocity": 0.7322834645669292
          },
          {
            "duration": 0.125,
            "durationTicks": 24,
            "midi": 70,
            "name": "A#4",
            "ticks": 18552,
            "time": 96.625,
            "velocity": 0.44881889763779526
          },
          {
            "duration": 0.109375,
            "durationTicks": 21,
            "midi": 58,
            "name": "A#3",
            "ticks": 18576,
            "time": 96.75,
            "velocity": 0.5433070866141733
          },
          {
            "duration": 0.1302083333333286,
            "durationTicks": 25,
            "midi": 65,
            "name": "F4",
            "ticks": 18576,
            "time": 96.75,
            "velocity": 0.6535433070866141
          },
          {
            "duration": 0.125,
            "durationTicks": 24,
            "midi": 70,
            "name": "A#4",
            "ticks": 18600,
            "time": 96.875,
            "velocity": 0.44881889763779526
          },
          {
            "duration": 0.109375,
            "durationTicks": 21,
            "midi": 58,
            "name": "A#3",
            "ticks": 18624,
            "time": 97,
            "velocity": 0.47244094488188976
          },
          {
            "duration": 0.1510416666666714,
            "durationTicks": 29,
            "midi": 64,
            "name": "E4",
            "ticks": 18624,
            "time": 97,
            "velocity": 0.7322834645669292
          },
          {
            "duration": 0.125,
            "durationTicks": 24,
            "midi": 70,
            "name": "A#4",
            "ticks": 18648,
            "time": 97.125,
            "velocity": 0.44881889763779526
          },
          {
            "duration": 0.109375,
            "durationTicks": 21,
            "midi": 58,
            "name": "A#3",
            "ticks": 18672,
            "time": 97.25,
            "velocity": 0.47244094488188976
          },
          {
            "duration": 0.1302083333333286,
            "durationTicks": 25,
            "midi": 65,
            "name": "F4",
            "ticks": 18672,
            "time": 97.25,
            "velocity": 0.6535433070866141
          },
          {
            "duration": 0.125,
            "durationTicks": 24,
            "midi": 70,
            "name": "A#4",
            "ticks": 18696,
            "time": 97.375,
            "velocity": 0.44881889763779526
          },
          {
            "duration": 0.109375,
            "durationTicks": 21,
            "midi": 58,
            "name": "A#3",
            "ticks": 18720,
            "time": 97.5,
            "velocity": 0.47244094488188976
          },
          {
            "duration": 0.1510416666666714,
            "durationTicks": 29,
            "midi": 61,
            "name": "C#4",
            "ticks": 18720,
            "time": 97.5,
            "velocity": 0.7322834645669292
          },
          {
            "duration": 0.125,
            "durationTicks": 24,
            "midi": 70,
            "name": "A#4",
            "ticks": 18744,
            "time": 97.625,
            "velocity": 0.44881889763779526
          },
          {
            "duration": 0.109375,
            "durationTicks": 21,
            "midi": 58,
            "name": "A#3",
            "ticks": 18768,
            "time": 97.75,
            "velocity": 0.47244094488188976
          },
          {
            "duration": 0.1822916666666714,
            "durationTicks": 35,
            "midi": 63,
            "name": "D#4",
            "ticks": 18768,
            "time": 97.75,
            "velocity": 0.6535433070866141
          },
          {
            "duration": 0.125,
            "durationTicks": 24,
            "midi": 70,
            "name": "A#4",
            "ticks": 18792,
            "time": 97.875,
            "velocity": 0.44881889763779526
          },
          {
            "duration": 0.109375,
            "durationTicks": 21,
            "midi": 57,
            "name": "A3",
            "ticks": 18816,
            "time": 98,
            "velocity": 0.5748031496062992
          },
          {
            "duration": 0.140625,
            "durationTicks": 27,
            "midi": 70,
            "name": "A#4",
            "ticks": 18840,
            "time": 98.125,
            "velocity": 0.5039370078740157
          },
          {
            "duration": 0.109375,
            "durationTicks": 21,
            "midi": 57,
            "name": "A3",
            "ticks": 18864,
            "time": 98.25,
            "velocity": 0.5433070866141733
          },
          {
            "duration": 0.1197916666666714,
            "durationTicks": 23,
            "midi": 68,
            "name": "G#4",
            "ticks": 18864,
            "time": 98.25,
            "velocity": 0.6929133858267716
          },
          {
            "duration": 0.1302083333333286,
            "durationTicks": 25,
            "midi": 70,
            "name": "A#4",
            "ticks": 18888,
            "time": 98.375,
            "velocity": 0.6929133858267716
          },
          {
            "duration": 0.109375,
            "durationTicks": 21,
            "midi": 57,
            "name": "A3",
            "ticks": 18912,
            "time": 98.5,
            "velocity": 0.5433070866141733
          },
          {
            "duration": 0.1510416666666714,
            "durationTicks": 29,
            "midi": 66,
            "name": "F#4",
            "ticks": 18912,
            "time": 98.5,
            "velocity": 0.7322834645669292
          },
          {
            "duration": 0.125,
            "durationTicks": 24,
            "midi": 70,
            "name": "A#4",
            "ticks": 18936,
            "time": 98.625,
            "velocity": 0.44881889763779526
          },
          {
            "duration": 0.109375,
            "durationTicks": 21,
            "midi": 57,
            "name": "A3",
            "ticks": 18960,
            "time": 98.75,
            "velocity": 0.5433070866141733
          },
          {
            "duration": 0.1354166666666714,
            "durationTicks": 26,
            "midi": 65,
            "name": "F4",
            "ticks": 18960,
            "time": 98.75,
            "velocity": 0.6535433070866141
          },
          {
            "duration": 0.125,
            "durationTicks": 24,
            "midi": 70,
            "name": "A#4",
            "ticks": 18984,
            "time": 98.875,
            "velocity": 0.44881889763779526
          },
          {
            "duration": 0.109375,
            "durationTicks": 21,
            "midi": 57,
            "name": "A3",
            "ticks": 19008,
            "time": 99,
            "velocity": 0.47244094488188976
          },
          {
            "duration": 0.125,
            "durationTicks": 24,
            "midi": 63,
            "name": "D#4",
            "ticks": 19008,
            "time": 99,
            "velocity": 0.7322834645669292
          },
          {
            "duration": 0.125,
            "durationTicks": 24,
            "midi": 70,
            "name": "A#4",
            "ticks": 19032,
            "time": 99.125,
            "velocity": 0.44881889763779526
          },
          {
            "duration": 0.109375,
            "durationTicks": 21,
            "midi": 57,
            "name": "A3",
            "ticks": 19056,
            "time": 99.25,
            "velocity": 0.47244094488188976
          },
          {
            "duration": 0.1354166666666714,
            "durationTicks": 26,
            "midi": 65,
            "name": "F4",
            "ticks": 19056,
            "time": 99.25,
            "velocity": 0.6535433070866141
          },
          {
            "duration": 0.125,
            "durationTicks": 24,
            "midi": 70,
            "name": "A#4",
            "ticks": 19080,
            "time": 99.375,
            "velocity": 0.44881889763779526
          },
          {
            "duration": 0.109375,
            "durationTicks": 21,
            "midi": 57,
            "name": "A3",
            "ticks": 19104,
            "time": 99.5,
            "velocity": 0.47244094488188976
          },
          {
            "duration": 0.109375,
            "durationTicks": 21,
            "midi": 57,
            "name": "A3",
            "ticks": 19152,
            "time": 99.75,
            "velocity": 0.47244094488188976
          },
          {
            "duration": 0.109375,
            "durationTicks": 21,
            "midi": 56,
            "name": "G#3",
            "ticks": 19200,
            "time": 100,
            "velocity": 0.5748031496062992
          },
          {
            "duration": 0.140625,
            "durationTicks": 27,
            "midi": 70,
            "name": "A#4",
            "ticks": 19224,
            "time": 100.125,
            "velocity": 0.5039370078740157
          },
          {
            "duration": 0.109375,
            "durationTicks": 21,
            "midi": 56,
            "name": "G#3",
            "ticks": 19248,
            "time": 100.25,
            "velocity": 0.5433070866141733
          },
          {
            "duration": 0.125,
            "durationTicks": 24,
            "midi": 68,
            "name": "G#4",
            "ticks": 19248,
            "time": 100.25,
            "velocity": 0.6929133858267716
          },
          {
            "duration": 0.1302083333333286,
            "durationTicks": 25,
            "midi": 70,
            "name": "A#4",
            "ticks": 19272,
            "time": 100.375,
            "velocity": 0.6929133858267716
          },
          {
            "duration": 0.109375,
            "durationTicks": 21,
            "midi": 56,
            "name": "G#3",
            "ticks": 19296,
            "time": 100.5,
            "velocity": 0.5433070866141733
          },
          {
            "duration": 0.1510416666666714,
            "durationTicks": 29,
            "midi": 66,
            "name": "F#4",
            "ticks": 19296,
            "time": 100.5,
            "velocity": 0.7322834645669292
          },
          {
            "duration": 0.125,
            "durationTicks": 24,
            "midi": 70,
            "name": "A#4",
            "ticks": 19320,
            "time": 100.625,
            "velocity": 0.44881889763779526
          },
          {
            "duration": 0.109375,
            "durationTicks": 21,
            "midi": 56,
            "name": "G#3",
            "ticks": 19344,
            "time": 100.75,
            "velocity": 0.5433070866141733
          },
          {
            "duration": 0.1354166666666714,
            "durationTicks": 26,
            "midi": 65,
            "name": "F4",
            "ticks": 19344,
            "time": 100.75,
            "velocity": 0.6535433070866141
          },
          {
            "duration": 0.125,
            "durationTicks": 24,
            "midi": 70,
            "name": "A#4",
            "ticks": 19368,
            "time": 100.875,
            "velocity": 0.44881889763779526
          },
          {
            "duration": 0.109375,
            "durationTicks": 21,
            "midi": 56,
            "name": "G#3",
            "ticks": 19392,
            "time": 101,
            "velocity": 0.47244094488188976
          },
          {
            "duration": 0.1510416666666714,
            "durationTicks": 29,
            "midi": 64,
            "name": "E4",
            "ticks": 19392,
            "time": 101,
            "velocity": 0.7322834645669292
          },
          {
            "duration": 0.125,
            "durationTicks": 24,
            "midi": 70,
            "name": "A#4",
            "ticks": 19416,
            "time": 101.125,
            "velocity": 0.44881889763779526
          },
          {
            "duration": 0.109375,
            "durationTicks": 21,
            "midi": 56,
            "name": "G#3",
            "ticks": 19440,
            "time": 101.25,
            "velocity": 0.47244094488188976
          },
          {
            "duration": 0.1354166666666714,
            "durationTicks": 26,
            "midi": 65,
            "name": "F4",
            "ticks": 19440,
            "time": 101.25,
            "velocity": 0.6535433070866141
          },
          {
            "duration": 0.125,
            "durationTicks": 24,
            "midi": 70,
            "name": "A#4",
            "ticks": 19464,
            "time": 101.375,
            "velocity": 0.44881889763779526
          },
          {
            "duration": 0.109375,
            "durationTicks": 21,
            "midi": 56,
            "name": "G#3",
            "ticks": 19488,
            "time": 101.5,
            "velocity": 0.47244094488188976
          },
          {
            "duration": 0.1510416666666714,
            "durationTicks": 29,
            "midi": 61,
            "name": "C#4",
            "ticks": 19488,
            "time": 101.5,
            "velocity": 0.7322834645669292
          },
          {
            "duration": 0.125,
            "durationTicks": 24,
            "midi": 70,
            "name": "A#4",
            "ticks": 19512,
            "time": 101.625,
            "velocity": 0.44881889763779526
          },
          {
            "duration": 0.109375,
            "durationTicks": 21,
            "midi": 56,
            "name": "G#3",
            "ticks": 19536,
            "time": 101.75,
            "velocity": 0.47244094488188976
          },
          {
            "duration": 0.1302083333333286,
            "durationTicks": 25,
            "midi": 63,
            "name": "D#4",
            "ticks": 19536,
            "time": 101.75,
            "velocity": 0.6535433070866141
          },
          {
            "duration": 0.125,
            "durationTicks": 24,
            "midi": 70,
            "name": "A#4",
            "ticks": 19560,
            "time": 101.875,
            "velocity": 0.44881889763779526
          },
          {
            "duration": 0.109375,
            "durationTicks": 21,
            "midi": 55,
            "name": "G3",
            "ticks": 19584,
            "time": 102,
            "velocity": 0.5748031496062992
          },
          {
            "duration": 0.1458333333333286,
            "durationTicks": 28,
            "midi": 70,
            "name": "A#4",
            "ticks": 19608,
            "time": 102.125,
            "velocity": 0.5039370078740157
          },
          {
            "duration": 0.109375,
            "durationTicks": 21,
            "midi": 55,
            "name": "G3",
            "ticks": 19632,
            "time": 102.25,
            "velocity": 0.5433070866141733
          },
          {
            "duration": 0.125,
            "durationTicks": 24,
            "midi": 68,
            "name": "G#4",
            "ticks": 19632,
            "time": 102.25,
            "velocity": 0.6929133858267716
          },
          {
            "duration": 0.125,
            "durationTicks": 24,
            "midi": 70,
            "name": "A#4",
            "ticks": 19656,
            "time": 102.375,
            "velocity": 0.6929133858267716
          },
          {
            "duration": 0.109375,
            "durationTicks": 21,
            "midi": 55,
            "name": "G3",
            "ticks": 19680,
            "time": 102.5,
            "velocity": 0.5433070866141733
          },
          {
            "duration": 0.1510416666666714,
            "durationTicks": 29,
            "midi": 66,
            "name": "F#4",
            "ticks": 19680,
            "time": 102.5,
            "velocity": 0.7322834645669292
          },
          {
            "duration": 0.125,
            "durationTicks": 24,
            "midi": 70,
            "name": "A#4",
            "ticks": 19704,
            "time": 102.625,
            "velocity": 0.44881889763779526
          },
          {
            "duration": 0.109375,
            "durationTicks": 21,
            "midi": 55,
            "name": "G3",
            "ticks": 19728,
            "time": 102.75,
            "velocity": 0.5433070866141733
          },
          {
            "duration": 0.1302083333333286,
            "durationTicks": 25,
            "midi": 65,
            "name": "F4",
            "ticks": 19728,
            "time": 102.75,
            "velocity": 0.6535433070866141
          },
          {
            "duration": 0.125,
            "durationTicks": 24,
            "midi": 70,
            "name": "A#4",
            "ticks": 19752,
            "time": 102.875,
            "velocity": 0.44881889763779526
          },
          {
            "duration": 0.109375,
            "durationTicks": 21,
            "midi": 55,
            "name": "G3",
            "ticks": 19776,
            "time": 103,
            "velocity": 0.47244094488188976
          },
          {
            "duration": 0.203125,
            "durationTicks": 39,
            "midi": 63,
            "name": "D#4",
            "ticks": 19776,
            "time": 103,
            "velocity": 0.7322834645669292
          },
          {
            "duration": 0.125,
            "durationTicks": 24,
            "midi": 70,
            "name": "A#4",
            "ticks": 19800,
            "time": 103.125,
            "velocity": 0.44881889763779526
          },
          {
            "duration": 0.109375,
            "durationTicks": 21,
            "midi": 55,
            "name": "G3",
            "ticks": 19824,
            "time": 103.25,
            "velocity": 0.47244094488188976
          },
          {
            "duration": 0.1302083333333286,
            "durationTicks": 25,
            "midi": 65,
            "name": "F4",
            "ticks": 19824,
            "time": 103.25,
            "velocity": 0.6535433070866141
          },
          {
            "duration": 0.125,
            "durationTicks": 24,
            "midi": 70,
            "name": "A#4",
            "ticks": 19848,
            "time": 103.375,
            "velocity": 0.44881889763779526
          },
          {
            "duration": 0.109375,
            "durationTicks": 21,
            "midi": 55,
            "name": "G3",
            "ticks": 19872,
            "time": 103.5,
            "velocity": 0.47244094488188976
          },
          {
            "duration": 0.109375,
            "durationTicks": 21,
            "midi": 55,
            "name": "G3",
            "ticks": 19920,
            "time": 103.75,
            "velocity": 0.47244094488188976
          },
          {
            "duration": 0.109375,
            "durationTicks": 21,
            "midi": 54,
            "name": "F#3",
            "ticks": 19968,
            "time": 104,
            "velocity": 0.5748031496062992
          },
          {
            "duration": 0.15625,
            "durationTicks": 30,
            "midi": 65,
            "name": "F4",
            "ticks": 19992,
            "time": 104.125,
            "velocity": 0.6377952755905512
          },
          {
            "duration": 0.109375,
            "durationTicks": 21,
            "midi": 54,
            "name": "F#3",
            "ticks": 20016,
            "time": 104.25,
            "velocity": 0.5433070866141733
          },
          {
            "duration": 0.1666666666666714,
            "durationTicks": 32,
            "midi": 66,
            "name": "F#4",
            "ticks": 20016,
            "time": 104.25,
            "velocity": 0.6614173228346457
          },
          {
            "duration": 0.2135416666666714,
            "durationTicks": 41,
            "midi": 68,
            "name": "G#4",
            "ticks": 20040,
            "time": 104.375,
            "velocity": 0.7007874015748031
          },
          {
            "duration": 0.109375,
            "durationTicks": 21,
            "midi": 54,
            "name": "F#3",
            "ticks": 20064,
            "time": 104.5,
            "velocity": 0.5433070866141733
          },
          {
            "duration": 0.3958333333333286,
            "durationTicks": 76,
            "midi": 70,
            "name": "A#4",
            "ticks": 20064,
            "time": 104.5,
            "velocity": 0.7086614173228346
          },
          {
            "duration": 0.109375,
            "durationTicks": 21,
            "midi": 54,
            "name": "F#3",
            "ticks": 20112,
            "time": 104.75,
            "velocity": 0.5433070866141733
          },
          {
            "duration": 0.1354166666666714,
            "durationTicks": 26,
            "midi": 65,
            "name": "F4",
            "ticks": 20136,
            "time": 104.875,
            "velocity": 0.6377952755905512
          },
          {
            "duration": 0.109375,
            "durationTicks": 21,
            "midi": 54,
            "name": "F#3",
            "ticks": 20160,
            "time": 105,
            "velocity": 0.47244094488188976
          },
          {
            "duration": 0.171875,
            "durationTicks": 33,
            "midi": 66,
            "name": "F#4",
            "ticks": 20160,
            "time": 105,
            "velocity": 0.6535433070866141
          },
          {
            "duration": 0.2395833333333286,
            "durationTicks": 46,
            "midi": 72,
            "name": "C5",
            "ticks": 20184,
            "time": 105.125,
            "velocity": 0.6929133858267716
          },
          {
            "duration": 0.109375,
            "durationTicks": 21,
            "midi": 54,
            "name": "F#3",
            "ticks": 20208,
            "time": 105.25,
            "velocity": 0.47244094488188976
          },
          {
            "duration": 0.5052083333333286,
            "durationTicks": 97,
            "midi": 70,
            "name": "A#4",
            "ticks": 20208,
            "time": 105.25,
            "velocity": 0.7322834645669292
          },
          {
            "duration": 0.109375,
            "durationTicks": 21,
            "midi": 54,
            "name": "F#3",
            "ticks": 20256,
            "time": 105.5,
            "velocity": 0.47244094488188976
          },
          {
            "duration": 0.109375,
            "durationTicks": 21,
            "midi": 54,
            "name": "F#3",
            "ticks": 20304,
            "time": 105.75,
            "velocity": 0.47244094488188976
          },
          {
            "duration": 0.2395833333333286,
            "durationTicks": 46,
            "midi": 65,
            "name": "F4",
            "ticks": 20304,
            "time": 105.75,
            "velocity": 0.6141732283464567
          },
          {
            "duration": 0.109375,
            "durationTicks": 21,
            "midi": 53,
            "name": "F3",
            "ticks": 20352,
            "time": 106,
            "velocity": 0.6062992125984252
          },
          {
            "duration": 0.15625,
            "durationTicks": 30,
            "midi": 65,
            "name": "F4",
            "ticks": 20376,
            "time": 106.125,
            "velocity": 0.6692913385826772
          },
          {
            "duration": 0.109375,
            "durationTicks": 21,
            "midi": 53,
            "name": "F3",
            "ticks": 20400,
            "time": 106.25,
            "velocity": 0.5669291338582677
          },
          {
            "duration": 0.1666666666666714,
            "durationTicks": 32,
            "midi": 66,
            "name": "F#4",
            "ticks": 20400,
            "time": 106.25,
            "velocity": 0.6535433070866141
          },
          {
            "duration": 0.2135416666666714,
            "durationTicks": 41,
            "midi": 68,
            "name": "G#4",
            "ticks": 20424,
            "time": 106.375,
            "velocity": 0.7322834645669292
          },
          {
            "duration": 0.109375,
            "durationTicks": 21,
            "midi": 53,
            "name": "F3",
            "ticks": 20448,
            "time": 106.5,
            "velocity": 0.5669291338582677
          },
          {
            "duration": 0.2916666666666714,
            "durationTicks": 56,
            "midi": 70,
            "name": "A#4",
            "ticks": 20448,
            "time": 106.5,
            "velocity": 0.7401574803149606
          },
          {
            "duration": 0.109375,
            "durationTicks": 21,
            "midi": 53,
            "name": "F3",
            "ticks": 20496,
            "time": 106.75,
            "velocity": 0.5669291338582677
          },
          {
            "duration": 0.171875,
            "durationTicks": 33,
            "midi": 70,
            "name": "A#4",
            "ticks": 20520,
            "time": 106.875,
            "velocity": 0.5826771653543307
          },
          {
            "duration": 0.109375,
            "durationTicks": 21,
            "midi": 53,
            "name": "F3",
            "ticks": 20544,
            "time": 107,
            "velocity": 0.47244094488188976
          },
          {
            "duration": 0.125,
            "durationTicks": 24,
            "midi": 65,
            "name": "F4",
            "ticks": 20544,
            "time": 107,
            "velocity": 0.6141732283464567
          },
          {
            "duration": 0.1822916666666714,
            "durationTicks": 35,
            "midi": 68,
            "name": "G#4",
            "ticks": 20568,
            "time": 107.125,
            "velocity": 0.7165354330708661
          },
          {
            "duration": 0.109375,
            "durationTicks": 21,
            "midi": 53,
            "name": "F3",
            "ticks": 20592,
            "time": 107.25,
            "velocity": 0.47244094488188976
          },
          {
            "duration": 0.125,
            "durationTicks": 24,
            "midi": 65,
            "name": "F4",
            "ticks": 20592,
            "time": 107.25,
            "velocity": 0.6692913385826772
          },
          {
            "duration": 0.125,
            "durationTicks": 24,
            "midi": 66,
            "name": "F#4",
            "ticks": 20616,
            "time": 107.375,
            "velocity": 0.6377952755905512
          },
          {
            "duration": 0.109375,
            "durationTicks": 21,
            "midi": 53,
            "name": "F3",
            "ticks": 20640,
            "time": 107.5,
            "velocity": 0.47244094488188976
          },
          {
            "duration": 0.125,
            "durationTicks": 24,
            "midi": 65,
            "name": "F4",
            "ticks": 20640,
            "time": 107.5,
            "velocity": 0.6377952755905512
          },
          {
            "duration": 0.125,
            "durationTicks": 24,
            "midi": 61,
            "name": "C#4",
            "ticks": 20664,
            "time": 107.625,
            "velocity": 0.6929133858267716
          },
          {
            "duration": 0.109375,
            "durationTicks": 21,
            "midi": 53,
            "name": "F3",
            "ticks": 20688,
            "time": 107.75,
            "velocity": 0.47244094488188976
          },
          {
            "duration": 0.125,
            "durationTicks": 24,
            "midi": 63,
            "name": "D#4",
            "ticks": 20688,
            "time": 107.75,
            "velocity": 0.6377952755905512
          },
          {
            "duration": 0.125,
            "durationTicks": 24,
            "midi": 65,
            "name": "F4",
            "ticks": 20712,
            "time": 107.875,
            "velocity": 0.6771653543307087
          },
          {
            "duration": 0.109375,
            "durationTicks": 21,
            "midi": 52,
            "name": "E3",
            "ticks": 20736,
            "time": 108,
            "velocity": 0.5748031496062992
          },
          {
            "duration": 0.15625,
            "durationTicks": 30,
            "midi": 65,
            "name": "F4",
            "ticks": 20760,
            "time": 108.125,
            "velocity": 0.6062992125984252
          },
          {
            "duration": 0.109375,
            "durationTicks": 21,
            "midi": 52,
            "name": "E3",
            "ticks": 20784,
            "time": 108.25,
            "velocity": 0.5433070866141733
          },
          {
            "duration": 0.1666666666666714,
            "durationTicks": 32,
            "midi": 66,
            "name": "F#4",
            "ticks": 20784,
            "time": 108.25,
            "velocity": 0.6220472440944882
          },
          {
            "duration": 0.2135416666666714,
            "durationTicks": 41,
            "midi": 68,
            "name": "G#4",
            "ticks": 20808,
            "time": 108.375,
            "velocity": 0.6614173228346457
          },
          {
            "duration": 0.109375,
            "durationTicks": 21,
            "midi": 52,
            "name": "E3",
            "ticks": 20832,
            "time": 108.5,
            "velocity": 0.5433070866141733
          },
          {
            "duration": 0.390625,
            "durationTicks": 75,
            "midi": 70,
            "name": "A#4",
            "ticks": 20832,
            "time": 108.5,
            "velocity": 0.6692913385826772
          },
          {
            "duration": 0.109375,
            "durationTicks": 21,
            "midi": 52,
            "name": "E3",
            "ticks": 20880,
            "time": 108.75,
            "velocity": 0.5433070866141733
          },
          {
            "duration": 0.1354166666666714,
            "durationTicks": 26,
            "midi": 65,
            "name": "F4",
            "ticks": 20904,
            "time": 108.875,
            "velocity": 0.5118110236220472
          },
          {
            "duration": 0.109375,
            "durationTicks": 21,
            "midi": 52,
            "name": "E3",
            "ticks": 20928,
            "time": 109,
            "velocity": 0.41732283464566927
          },
          {
            "duration": 0.171875,
            "durationTicks": 33,
            "midi": 66,
            "name": "F#4",
            "ticks": 20928,
            "time": 109,
            "velocity": 0.48031496062992124
          },
          {
            "duration": 0.140625,
            "durationTicks": 27,
            "midi": 72,
            "name": "C5",
            "ticks": 20952,
            "time": 109.125,
            "velocity": 0.5354330708661418
          },
          {
            "duration": 0.109375,
            "durationTicks": 21,
            "midi": 52,
            "name": "E3",
            "ticks": 20976,
            "time": 109.25,
            "velocity": 0.41732283464566927
          },
          {
            "duration": 0.3802083333333286,
            "durationTicks": 73,
            "midi": 70,
            "name": "A#4",
            "ticks": 20976,
            "time": 109.25,
            "velocity": 0.5590551181102362
          },
          {
            "duration": 0.109375,
            "durationTicks": 21,
            "midi": 52,
            "name": "E3",
            "ticks": 21024,
            "time": 109.5,
            "velocity": 0.41732283464566927
          },
          {
            "duration": 0.109375,
            "durationTicks": 21,
            "midi": 52,
            "name": "E3",
            "ticks": 21072,
            "time": 109.75,
            "velocity": 0.41732283464566927
          },
          {
            "duration": 0.1614583333333286,
            "durationTicks": 31,
            "midi": 65,
            "name": "F4",
            "ticks": 21072,
            "time": 109.75,
            "velocity": 0.5039370078740157
          },
          {
            "duration": 0.109375,
            "durationTicks": 21,
            "midi": 53,
            "name": "F3",
            "ticks": 21120,
            "time": 110,
            "velocity": 0.5118110236220472
          },
          {
            "duration": 0.125,
            "durationTicks": 24,
            "midi": 70,
            "name": "A#4",
            "ticks": 21144,
            "time": 110.125,
            "velocity": 0.5669291338582677
          },
          {
            "duration": 0.109375,
            "durationTicks": 21,
            "midi": 53,
            "name": "F3",
            "ticks": 21168,
            "time": 110.25,
            "velocity": 0.4330708661417323
          },
          {
            "duration": 0.125,
            "durationTicks": 24,
            "midi": 68,
            "name": "G#4",
            "ticks": 21192,
            "time": 110.375,
            "velocity": 0.5275590551181102
          },
          {
            "duration": 0.109375,
            "durationTicks": 21,
            "midi": 53,
            "name": "F3",
            "ticks": 21216,
            "time": 110.5,
            "velocity": 0.4330708661417323
          },
          {
            "duration": 0.125,
            "durationTicks": 24,
            "midi": 66,
            "name": "F#4",
            "ticks": 21240,
            "time": 110.625,
            "velocity": 0.5511811023622047
          },
          {
            "duration": 0.109375,
            "durationTicks": 21,
            "midi": 53,
            "name": "F3",
            "ticks": 21264,
            "time": 110.75,
            "velocity": 0.4330708661417323
          },
          {
            "duration": 0.125,
            "durationTicks": 24,
            "midi": 65,
            "name": "F4",
            "ticks": 21288,
            "time": 110.875,
            "velocity": 0.5118110236220472
          },
          {
            "duration": 0.109375,
            "durationTicks": 21,
            "midi": 53,
            "name": "F3",
            "ticks": 21312,
            "time": 111,
            "velocity": 0.4251968503937008
          },
          {
            "duration": 0.125,
            "durationTicks": 24,
            "midi": 63,
            "name": "D#4",
            "ticks": 21336,
            "time": 111.125,
            "velocity": 0.6062992125984252
          },
          {
            "duration": 0.109375,
            "durationTicks": 21,
            "midi": 53,
            "name": "F3",
            "ticks": 21360,
            "time": 111.25,
            "velocity": 0.4251968503937008
          },
          {
            "duration": 0.125,
            "durationTicks": 24,
            "midi": 61,
            "name": "C#4",
            "ticks": 21384,
            "time": 111.375,
            "velocity": 0.6535433070866141
          },
          {
            "duration": 0.109375,
            "durationTicks": 21,
            "midi": 53,
            "name": "F3",
            "ticks": 21408,
            "time": 111.5,
            "velocity": 0.4251968503937008
          },
          {
            "duration": 0.1770833333333286,
            "durationTicks": 34,
            "midi": 63,
            "name": "D#4",
            "ticks": 21432,
            "time": 111.625,
            "velocity": 0.5905511811023622
          },
          {
            "duration": 0.109375,
            "durationTicks": 21,
            "midi": 53,
            "name": "F3",
            "ticks": 21456,
            "time": 111.75,
            "velocity": 0.4251968503937008
          },
          {
            "duration": 0.1041666666666714,
            "durationTicks": 20,
            "midi": 65,
            "name": "F4",
            "ticks": 21480,
            "time": 111.875,
            "velocity": 0.5905511811023622
          },
          {
            "duration": 1.9583333333333286,
            "durationTicks": 376,
            "midi": 53,
            "name": "F3",
            "ticks": 21494,
            "time": 111.94791666666667,
            "velocity": 0.7007874015748031
          },
          {
            "duration": 1.953125,
            "durationTicks": 375,
            "midi": 46,
            "name": "A#2",
            "ticks": 21497,
            "time": 111.96354166666667,
            "velocity": 0.7007874015748031
          },
          {
            "duration": 0.25,
            "durationTicks": 48,
            "midi": 58,
            "name": "A#3",
            "ticks": 21504,
            "time": 112,
            "velocity": 0.6692913385826772
          },
          {
            "duration": 0.1510416666666714,
            "durationTicks": 29,
            "midi": 70,
            "name": "A#4",
            "ticks": 21528,
            "time": 112.125,
            "velocity": 0.47244094488188976
          },
          {
            "duration": 0.25,
            "durationTicks": 48,
            "midi": 58,
            "name": "A#3",
            "ticks": 21552,
            "time": 112.25,
            "velocity": 0.47244094488188976
          },
          {
            "duration": 0.005208333333328596,
            "durationTicks": 1,
            "midi": 68,
            "name": "G#4",
            "ticks": 21552,
            "time": 112.25,
            "velocity": 0.5826771653543307
          },
          {
            "duration": 0.125,
            "durationTicks": 24,
            "midi": 68,
            "name": "G#4",
            "ticks": 21553,
            "time": 112.25520833333333,
            "velocity": 0.6535433070866141
          },
          {
            "duration": 0.005208333333328596,
            "durationTicks": 1,
            "midi": 70,
            "name": "A#4",
            "ticks": 21576,
            "time": 112.375,
            "velocity": 0.5826771653543307
          },
          {
            "duration": 0.125,
            "durationTicks": 24,
            "midi": 70,
            "name": "A#4",
            "ticks": 21577,
            "time": 112.38020833333333,
            "velocity": 0.6535433070866141
          },
          {
            "duration": 0.25,
            "durationTicks": 48,
            "midi": 58,
            "name": "A#3",
            "ticks": 21600,
            "time": 112.5,
            "velocity": 0.49606299212598426
          },
          {
            "duration": 0.005208333333328596,
            "durationTicks": 1,
            "midi": 66,
            "name": "F#4",
            "ticks": 21600,
            "time": 112.5,
            "velocity": 0.6062992125984252
          },
          {
            "duration": 0.1510416666666714,
            "durationTicks": 29,
            "midi": 66,
            "name": "F#4",
            "ticks": 21601,
            "time": 112.50520833333333,
            "velocity": 0.6929133858267716
          },
          {
            "duration": 0.005208333333328596,
            "durationTicks": 1,
            "midi": 70,
            "name": "A#4",
            "ticks": 21623,
            "time": 112.61979166666667,
            "velocity": 0.3700787401574803
          },
          {
            "duration": 0.125,
            "durationTicks": 24,
            "midi": 70,
            "name": "A#4",
            "ticks": 21624,
            "time": 112.625,
            "velocity": 0.4251968503937008
          },
          {
            "duration": 0.25,
            "durationTicks": 48,
            "midi": 58,
            "name": "A#3",
            "ticks": 21648,
            "time": 112.75,
            "velocity": 0.4251968503937008
          },
          {
            "duration": 0.005208333333328596,
            "durationTicks": 1,
            "midi": 65,
            "name": "F4",
            "ticks": 21648,
            "time": 112.75,
            "velocity": 0.5433070866141733
          },
          {
            "duration": 0.1302083333333428,
            "durationTicks": 25,
            "midi": 65,
            "name": "F4",
            "ticks": 21649,
            "time": 112.75520833333333,
            "velocity": 0.6220472440944882
          },
          {
            "duration": 0.005208333333328596,
            "durationTicks": 1,
            "midi": 70,
            "name": "A#4",
            "ticks": 21671,
            "time": 112.86979166666667,
            "velocity": 0.3700787401574803
          },
          {
            "duration": 0.125,
            "durationTicks": 24,
            "midi": 70,
            "name": "A#4",
            "ticks": 21672,
            "time": 112.875,
            "velocity": 0.4251968503937008
          },
          {
            "duration": 0.25,
            "durationTicks": 48,
            "midi": 58,
            "name": "A#3",
            "ticks": 21696,
            "time": 113,
            "velocity": 0.48031496062992124
          },
          {
            "duration": 0.005208333333328596,
            "durationTicks": 1,
            "midi": 64,
            "name": "E4",
            "ticks": 21696,
            "time": 113,
            "velocity": 0.6062992125984252
          },
          {
            "duration": 0.1510416666666714,
            "durationTicks": 29,
            "midi": 64,
            "name": "E4",
            "ticks": 21697,
            "time": 113.00520833333333,
            "velocity": 0.6929133858267716
          },
          {
            "duration": 0.005208333333328596,
            "durationTicks": 1,
            "midi": 70,
            "name": "A#4",
            "ticks": 21719,
            "time": 113.11979166666667,
            "velocity": 0.3700787401574803
          },
          {
            "duration": 0.125,
            "durationTicks": 24,
            "midi": 70,
            "name": "A#4",
            "ticks": 21720,
            "time": 113.125,
            "velocity": 0.4251968503937008
          },
          {
            "duration": 0.25,
            "durationTicks": 48,
            "midi": 58,
            "name": "A#3",
            "ticks": 21744,
            "time": 113.25,
            "velocity": 0.4094488188976378
          },
          {
            "duration": 0.005208333333328596,
            "durationTicks": 1,
            "midi": 65,
            "name": "F4",
            "ticks": 21744,
            "time": 113.25,
            "velocity": 0.5433070866141733
          },
          {
            "duration": 0.1302083333333428,
            "durationTicks": 25,
            "midi": 65,
            "name": "F4",
            "ticks": 21745,
            "time": 113.25520833333333,
            "velocity": 0.6220472440944882
          },
          {
            "duration": 0.005208333333328596,
            "durationTicks": 1,
            "midi": 70,
            "name": "A#4",
            "ticks": 21767,
            "time": 113.36979166666667,
            "velocity": 0.3700787401574803
          },
          {
            "duration": 0.125,
            "durationTicks": 24,
            "midi": 70,
            "name": "A#4",
            "ticks": 21768,
            "time": 113.375,
            "velocity": 0.4251968503937008
          },
          {
            "duration": 0.25,
            "durationTicks": 48,
            "midi": 58,
            "name": "A#3",
            "ticks": 21792,
            "time": 113.5,
            "velocity": 0.4330708661417323
          },
          {
            "duration": 0.005208333333328596,
            "durationTicks": 1,
            "midi": 61,
            "name": "C#4",
            "ticks": 21792,
            "time": 113.5,
            "velocity": 0.6062992125984252
          },
          {
            "duration": 0.1510416666666714,
            "durationTicks": 29,
            "midi": 61,
            "name": "C#4",
            "ticks": 21793,
            "time": 113.50520833333333,
            "velocity": 0.6929133858267716
          },
          {
            "duration": 0.005208333333328596,
            "durationTicks": 1,
            "midi": 70,
            "name": "A#4",
            "ticks": 21815,
            "time": 113.61979166666667,
            "velocity": 0.3700787401574803
          },
          {
            "duration": 0.125,
            "durationTicks": 24,
            "midi": 70,
            "name": "A#4",
            "ticks": 21816,
            "time": 113.625,
            "velocity": 0.4251968503937008
          },
          {
            "duration": 0.1875,
            "durationTicks": 36,
            "midi": 58,
            "name": "A#3",
            "ticks": 21840,
            "time": 113.75,
            "velocity": 0.3858267716535433
          },
          {
            "duration": 0.005208333333328596,
            "durationTicks": 1,
            "midi": 63,
            "name": "D#4",
            "ticks": 21840,
            "time": 113.75,
            "velocity": 0.5433070866141733
          },
          {
            "duration": 0.1822916666666714,
            "durationTicks": 35,
            "midi": 63,
            "name": "D#4",
            "ticks": 21841,
            "time": 113.75520833333333,
            "velocity": 0.6220472440944882
          },
          {
            "duration": 0.005208333333328596,
            "durationTicks": 1,
            "midi": 70,
            "name": "A#4",
            "ticks": 21863,
            "time": 113.86979166666667,
            "velocity": 0.3700787401574803
          },
          {
            "duration": 0.125,
            "durationTicks": 24,
            "midi": 70,
            "name": "A#4",
            "ticks": 21864,
            "time": 113.875,
            "velocity": 0.4251968503937008
          },
          {
            "duration": 1.9322916666666714,
            "durationTicks": 371,
            "midi": 45,
            "name": "A2",
            "ticks": 21883,
            "time": 113.97395833333333,
            "velocity": 0.6141732283464567
          },
          {
            "duration": 1.8958333333333286,
            "durationTicks": 364,
            "midi": 53,
            "name": "F3",
            "ticks": 21884,
            "time": 113.97916666666667,
            "velocity": 0.6614173228346457
          },
          {
            "duration": 0.25,
            "durationTicks": 48,
            "midi": 57,
            "name": "A3",
            "ticks": 21888,
            "time": 114,
            "velocity": 0.6692913385826772
          },
          {
            "duration": 0.005208333333328596,
            "durationTicks": 1,
            "midi": 70,
            "name": "A#4",
            "ticks": 21912,
            "time": 114.125,
            "velocity": 0.4251968503937008
          },
          {
            "duration": 0.140625,
            "durationTicks": 27,
            "midi": 70,
            "name": "A#4",
            "ticks": 21913,
            "time": 114.13020833333333,
            "velocity": 0.47244094488188976
          },
          {
            "duration": 0.25,
            "durationTicks": 48,
            "midi": 57,
            "name": "A3",
            "ticks": 21936,
            "time": 114.25,
            "velocity": 0.47244094488188976
          },
          {
            "duration": 0.005208333333328596,
            "durationTicks": 1,
            "midi": 68,
            "name": "G#4",
            "ticks": 21936,
            "time": 114.25,
            "velocity": 0.5826771653543307
          },
          {
            "duration": 0.1197916666666714,
            "durationTicks": 23,
            "midi": 68,
            "name": "G#4",
            "ticks": 21937,
            "time": 114.25520833333333,
            "velocity": 0.6535433070866141
          },
          {
            "duration": 0.1302083333333286,
            "durationTicks": 25,
            "midi": 70,
            "name": "A#4",
            "ticks": 21960,
            "time": 114.375,
            "velocity": 0.6535433070866141
          },
          {
            "duration": 0.25,
            "durationTicks": 48,
            "midi": 57,
            "name": "A3",
            "ticks": 21984,
            "time": 114.5,
            "velocity": 0.49606299212598426
          },
          {
            "duration": 0.1510416666666714,
            "durationTicks": 29,
            "midi": 66,
            "name": "F#4",
            "ticks": 21984,
            "time": 114.5,
            "velocity": 0.6929133858267716
          },
          {
            "duration": 0.005208333333328596,
            "durationTicks": 1,
            "midi": 70,
            "name": "A#4",
            "ticks": 22007,
            "time": 114.61979166666667,
            "velocity": 0.3700787401574803
          },
          {
            "duration": 0.125,
            "durationTicks": 24,
            "midi": 70,
            "name": "A#4",
            "ticks": 22008,
            "time": 114.625,
            "velocity": 0.4251968503937008
          },
          {
            "duration": 0.25,
            "durationTicks": 48,
            "midi": 57,
            "name": "A3",
            "ticks": 22032,
            "time": 114.75,
            "velocity": 0.4251968503937008
          },
          {
            "duration": 0.1354166666666714,
            "durationTicks": 26,
            "midi": 65,
            "name": "F4",
            "ticks": 22032,
            "time": 114.75,
            "velocity": 0.6220472440944882
          },
          {
            "duration": 0.005208333333328596,
            "durationTicks": 1,
            "midi": 70,
            "name": "A#4",
            "ticks": 22055,
            "time": 114.86979166666667,
            "velocity": 0.3700787401574803
          },
          {
            "duration": 0.125,
            "durationTicks": 24,
            "midi": 70,
            "name": "A#4",
            "ticks": 22056,
            "time": 114.875,
            "velocity": 0.4251968503937008
          },
          {
            "duration": 0.25,
            "durationTicks": 48,
            "midi": 57,
            "name": "A3",
            "ticks": 22080,
            "time": 115,
            "velocity": 0.48031496062992124
          },
          {
            "duration": 0.125,
            "durationTicks": 24,
            "midi": 63,
            "name": "D#4",
            "ticks": 22080,
            "time": 115,
            "velocity": 0.6929133858267716
          },
          {
            "duration": 0.005208333333328596,
            "durationTicks": 1,
            "midi": 70,
            "name": "A#4",
            "ticks": 22103,
            "time": 115.11979166666667,
            "velocity": 0.3700787401574803
          },
          {
            "duration": 0.125,
            "durationTicks": 24,
            "midi": 70,
            "name": "A#4",
            "ticks": 22104,
            "time": 115.125,
            "velocity": 0.4251968503937008
          },
          {
            "duration": 0.25,
            "durationTicks": 48,
            "midi": 57,
            "name": "A3",
            "ticks": 22128,
            "time": 115.25,
            "velocity": 0.4094488188976378
          },
          {
            "duration": 0.1354166666666714,
            "durationTicks": 26,
            "midi": 65,
            "name": "F4",
            "ticks": 22128,
            "time": 115.25,
            "velocity": 0.6220472440944882
          },
          {
            "duration": 0.005208333333328596,
            "durationTicks": 1,
            "midi": 70,
            "name": "A#4",
            "ticks": 22151,
            "time": 115.36979166666667,
            "velocity": 0.3700787401574803
          },
          {
            "duration": 0.125,
            "durationTicks": 24,
            "midi": 70,
            "name": "A#4",
            "ticks": 22152,
            "time": 115.375,
            "velocity": 0.4251968503937008
          },
          {
            "duration": 0.25,
            "durationTicks": 48,
            "midi": 57,
            "name": "A3",
            "ticks": 22176,
            "time": 115.5,
            "velocity": 0.4330708661417323
          },
          {
            "duration": 0.1875,
            "durationTicks": 36,
            "midi": 57,
            "name": "A3",
            "ticks": 22224,
            "time": 115.75,
            "velocity": 0.3700787401574803
          },
          {
            "duration": 1.859375,
            "durationTicks": 357,
            "midi": 44,
            "name": "G#2",
            "ticks": 22266,
            "time": 115.96875,
            "velocity": 0.5196850393700787
          },
          {
            "duration": 1.859375,
            "durationTicks": 357,
            "midi": 51,
            "name": "D#3",
            "ticks": 22268,
            "time": 115.97916666666667,
            "velocity": 0.6377952755905512
          },
          {
            "duration": 0.25,
            "durationTicks": 48,
            "midi": 56,
            "name": "G#3",
            "ticks": 22272,
            "time": 116,
            "velocity": 0.6692913385826772
          },
          {
            "duration": 0.140625,
            "durationTicks": 27,
            "midi": 70,
            "name": "A#4",
            "ticks": 22296,
            "time": 116.125,
            "velocity": 0.47244094488188976
          },
          {
            "duration": 0.125,
            "durationTicks": 24,
            "midi": 68,
            "name": "G#4",
            "ticks": 22319,
            "time": 116.24479166666667,
            "velocity": 0.6535433070866141
          },
          {
            "duration": 0.25,
            "durationTicks": 48,
            "midi": 56,
            "name": "G#3",
            "ticks": 22320,
            "time": 116.25,
            "velocity": 0.47244094488188976
          },
          {
            "duration": 0.1302083333333286,
            "durationTicks": 25,
            "midi": 70,
            "name": "A#4",
            "ticks": 22343,
            "time": 116.36979166666667,
            "velocity": 0.6535433070866141
          },
          {
            "duration": 0.1510416666666572,
            "durationTicks": 29,
            "midi": 66,
            "name": "F#4",
            "ticks": 22367,
            "time": 116.49479166666667,
            "velocity": 0.6929133858267716
          },
          {
            "duration": 0.25,
            "durationTicks": 48,
            "midi": 56,
            "name": "G#3",
            "ticks": 22368,
            "time": 116.5,
            "velocity": 0.49606299212598426
          },
          {
            "duration": 0.125,
            "durationTicks": 24,
            "midi": 70,
            "name": "A#4",
            "ticks": 22392,
            "time": 116.625,
            "velocity": 0.4251968503937008
          },
          {
            "duration": 0.1354166666666572,
            "durationTicks": 26,
            "midi": 65,
            "name": "F4",
            "ticks": 22415,
            "time": 116.74479166666667,
            "velocity": 0.6220472440944882
          },
          {
            "duration": 0.25,
            "durationTicks": 48,
            "midi": 56,
            "name": "G#3",
            "ticks": 22416,
            "time": 116.75,
            "velocity": 0.4251968503937008
          },
          {
            "duration": 0.125,
            "durationTicks": 24,
            "midi": 70,
            "name": "A#4",
            "ticks": 22440,
            "time": 116.875,
            "velocity": 0.4251968503937008
          },
          {
            "duration": 0.1510416666666572,
            "durationTicks": 29,
            "midi": 64,
            "name": "E4",
            "ticks": 22463,
            "time": 116.99479166666667,
            "velocity": 0.6929133858267716
          },
          {
            "duration": 0.25,
            "durationTicks": 48,
            "midi": 56,
            "name": "G#3",
            "ticks": 22464,
            "time": 117,
            "velocity": 0.48031496062992124
          },
          {
            "duration": 0.125,
            "durationTicks": 24,
            "midi": 70,
            "name": "A#4",
            "ticks": 22488,
            "time": 117.125,
            "velocity": 0.4251968503937008
          },
          {
            "duration": 0.1354166666666572,
            "durationTicks": 26,
            "midi": 65,
            "name": "F4",
            "ticks": 22511,
            "time": 117.24479166666667,
            "velocity": 0.6220472440944882
          },
          {
            "duration": 0.25,
            "durationTicks": 48,
            "midi": 56,
            "name": "G#3",
            "ticks": 22512,
            "time": 117.25,
            "velocity": 0.4094488188976378
          },
          {
            "duration": 0.125,
            "durationTicks": 24,
            "midi": 70,
            "name": "A#4",
            "ticks": 22536,
            "time": 117.375,
            "velocity": 0.4251968503937008
          },
          {
            "duration": 0.1510416666666572,
            "durationTicks": 29,
            "midi": 61,
            "name": "C#4",
            "ticks": 22559,
            "time": 117.49479166666667,
            "velocity": 0.6929133858267716
          },
          {
            "duration": 0.25,
            "durationTicks": 48,
            "midi": 56,
            "name": "G#3",
            "ticks": 22560,
            "time": 117.5,
            "velocity": 0.4330708661417323
          },
          {
            "duration": 0.125,
            "durationTicks": 24,
            "midi": 70,
            "name": "A#4",
            "ticks": 22584,
            "time": 117.625,
            "velocity": 0.4251968503937008
          },
          {
            "duration": 0.1302083333333286,
            "durationTicks": 25,
            "midi": 63,
            "name": "D#4",
            "ticks": 22607,
            "time": 117.74479166666667,
            "velocity": 0.6220472440944882
          },
          {
            "duration": 0.1875,
            "durationTicks": 36,
            "midi": 56,
            "name": "G#3",
            "ticks": 22608,
            "time": 117.75,
            "velocity": 0.3858267716535433
          },
          {
            "duration": 0.125,
            "durationTicks": 24,
            "midi": 70,
            "name": "A#4",
            "ticks": 22632,
            "time": 117.875,
            "velocity": 0.4251968503937008
          },
          {
            "duration": 1.9479166666666714,
            "durationTicks": 374,
            "midi": 43,
            "name": "G2",
            "ticks": 22650,
            "time": 117.96875,
            "velocity": 0.5275590551181102
          },
          {
            "duration": 1.9375,
            "durationTicks": 372,
            "midi": 51,
            "name": "D#3",
            "ticks": 22652,
            "time": 117.97916666666667,
            "velocity": 0.5826771653543307
          },
          {
            "duration": 0.25,
            "durationTicks": 48,
            "midi": 55,
            "name": "G3",
            "ticks": 22656,
            "time": 118,
            "velocity": 0.6692913385826772
          },
          {
            "duration": 0.1458333333333286,
            "durationTicks": 28,
            "midi": 70,
            "name": "A#4",
            "ticks": 22679,
            "time": 118.11979166666667,
            "velocity": 0.47244094488188976
          },
          {
            "duration": 0.125,
            "durationTicks": 24,
            "midi": 68,
            "name": "G#4",
            "ticks": 22703,
            "time": 118.24479166666667,
            "velocity": 0.6535433070866141
          },
          {
            "duration": 0.25,
            "durationTicks": 48,
            "midi": 55,
            "name": "G3",
            "ticks": 22704,
            "time": 118.25,
            "velocity": 0.47244094488188976
          },
          {
            "duration": 0.125,
            "durationTicks": 24,
            "midi": 70,
            "name": "A#4",
            "ticks": 22727,
            "time": 118.36979166666667,
            "velocity": 0.6535433070866141
          },
          {
            "duration": 0.1510416666666572,
            "durationTicks": 29,
            "midi": 66,
            "name": "F#4",
            "ticks": 22751,
            "time": 118.49479166666667,
            "velocity": 0.6929133858267716
          },
          {
            "duration": 0.25,
            "durationTicks": 48,
            "midi": 55,
            "name": "G3",
            "ticks": 22752,
            "time": 118.5,
            "velocity": 0.49606299212598426
          },
          {
            "duration": 0.125,
            "durationTicks": 24,
            "midi": 70,
            "name": "A#4",
            "ticks": 22776,
            "time": 118.625,
            "velocity": 0.4251968503937008
          },
          {
            "duration": 0.1302083333333286,
            "durationTicks": 25,
            "midi": 65,
            "name": "F4",
            "ticks": 22799,
            "time": 118.74479166666667,
            "velocity": 0.6220472440944882
          },
          {
            "duration": 0.25,
            "durationTicks": 48,
            "midi": 55,
            "name": "G3",
            "ticks": 22800,
            "time": 118.75,
            "velocity": 0.4251968503937008
          },
          {
            "duration": 0.125,
            "durationTicks": 24,
            "midi": 70,
            "name": "A#4",
            "ticks": 22824,
            "time": 118.875,
            "velocity": 0.4251968503937008
          },
          {
            "duration": 0.203125,
            "durationTicks": 39,
            "midi": 63,
            "name": "D#4",
            "ticks": 22847,
            "time": 118.99479166666667,
            "velocity": 0.6929133858267716
          },
          {
            "duration": 0.25,
            "durationTicks": 48,
            "midi": 55,
            "name": "G3",
            "ticks": 22848,
            "time": 119,
            "velocity": 0.48031496062992124
          },
          {
            "duration": 0.125,
            "durationTicks": 24,
            "midi": 70,
            "name": "A#4",
            "ticks": 22872,
            "time": 119.125,
            "velocity": 0.4251968503937008
          },
          {
            "duration": 0.1302083333333286,
            "durationTicks": 25,
            "midi": 65,
            "name": "F4",
            "ticks": 22895,
            "time": 119.24479166666667,
            "velocity": 0.6220472440944882
          },
          {
            "duration": 0.25,
            "durationTicks": 48,
            "midi": 55,
            "name": "G3",
            "ticks": 22896,
            "time": 119.25,
            "velocity": 0.4094488188976378
          },
          {
            "duration": 0.125,
            "durationTicks": 24,
            "midi": 70,
            "name": "A#4",
            "ticks": 22920,
            "time": 119.375,
            "velocity": 0.4251968503937008
          },
          {
            "duration": 0.25,
            "durationTicks": 48,
            "midi": 55,
            "name": "G3",
            "ticks": 22944,
            "time": 119.5,
            "velocity": 0.4330708661417323
          },
          {
            "duration": 0.25,
            "durationTicks": 48,
            "midi": 55,
            "name": "G3",
            "ticks": 22992,
            "time": 119.75,
            "velocity": 0.47244094488188976
          },
          {
            "duration": 1.9583333333333286,
            "durationTicks": 376,
            "midi": 49,
            "name": "C#3",
            "ticks": 23030,
            "time": 119.94791666666667,
            "velocity": 0.7007874015748031
          },
          {
            "duration": 1.953125,
            "durationTicks": 375,
            "midi": 42,
            "name": "F#2",
            "ticks": 23033,
            "time": 119.96354166666667,
            "velocity": 0.7007874015748031
          },
          {
            "duration": 0.25,
            "durationTicks": 48,
            "midi": 54,
            "name": "F#3",
            "ticks": 23040,
            "time": 120,
            "velocity": 0.6692913385826772
          },
          {
            "duration": 0.15625,
            "durationTicks": 30,
            "midi": 65,
            "name": "F4",
            "ticks": 23064,
            "time": 120.125,
            "velocity": 0.6062992125984252
          },
          {
            "duration": 0.25,
            "durationTicks": 48,
            "midi": 54,
            "name": "F#3",
            "ticks": 23088,
            "time": 120.25,
            "velocity": 0.47244094488188976
          },
          {
            "duration": 0.1666666666666714,
            "durationTicks": 32,
            "midi": 66,
            "name": "F#4",
            "ticks": 23088,
            "time": 120.25,
            "velocity": 0.6299212598425197
          },
          {
            "duration": 0.2135416666666714,
            "durationTicks": 41,
            "midi": 68,
            "name": "G#4",
            "ticks": 23112,
            "time": 120.375,
            "velocity": 0.6614173228346457
          },
          {
            "duration": 0.25,
            "durationTicks": 48,
            "midi": 54,
            "name": "F#3",
            "ticks": 23136,
            "time": 120.5,
            "velocity": 0.49606299212598426
          },
          {
            "duration": 0.3958333333333286,
            "durationTicks": 76,
            "midi": 70,
            "name": "A#4",
            "ticks": 23136,
            "time": 120.5,
            "velocity": 0.6692913385826772
          },
          {
            "duration": 0.25,
            "durationTicks": 48,
            "midi": 54,
            "name": "F#3",
            "ticks": 23184,
            "time": 120.75,
            "velocity": 0.4251968503937008
          },
          {
            "duration": 0.1354166666666714,
            "durationTicks": 26,
            "midi": 65,
            "name": "F4",
            "ticks": 23208,
            "time": 120.875,
            "velocity": 0.5984251968503937
          },
          {
            "duration": 0.25,
            "durationTicks": 48,
            "midi": 54,
            "name": "F#3",
            "ticks": 23232,
            "time": 121,
            "velocity": 0.48031496062992124
          },
          {
            "duration": 0.171875,
            "durationTicks": 33,
            "midi": 66,
            "name": "F#4",
            "ticks": 23232,
            "time": 121,
            "velocity": 0.6220472440944882
          },
          {
            "duration": 0.2395833333333286,
            "durationTicks": 46,
            "midi": 72,
            "name": "C5",
            "ticks": 23256,
            "time": 121.125,
            "velocity": 0.6535433070866141
          },
          {
            "duration": 0.25,
            "durationTicks": 48,
            "midi": 54,
            "name": "F#3",
            "ticks": 23280,
            "time": 121.25,
            "velocity": 0.4094488188976378
          },
          {
            "duration": 0.5052083333333286,
            "durationTicks": 97,
            "midi": 70,
            "name": "A#4",
            "ticks": 23280,
            "time": 121.25,
            "velocity": 0.6929133858267716
          },
          {
            "duration": 0.25,
            "durationTicks": 48,
            "midi": 54,
            "name": "F#3",
            "ticks": 23328,
            "time": 121.5,
            "velocity": 0.4330708661417323
          },
          {
            "duration": 0.1875,
            "durationTicks": 36,
            "midi": 54,
            "name": "F#3",
            "ticks": 23376,
            "time": 121.75,
            "velocity": 0.3858267716535433
          },
          {
            "duration": 0.2395833333333286,
            "durationTicks": 46,
            "midi": 65,
            "name": "F4",
            "ticks": 23376,
            "time": 121.75,
            "velocity": 0.5826771653543307
          },
          {
            "duration": 1.9322916666666714,
            "durationTicks": 371,
            "midi": 41,
            "name": "F2",
            "ticks": 23419,
            "time": 121.97395833333333,
            "velocity": 0.6141732283464567
          },
          {
            "duration": 1.8958333333333286,
            "durationTicks": 364,
            "midi": 48,
            "name": "C3",
            "ticks": 23420,
            "time": 121.97916666666667,
            "velocity": 0.6614173228346457
          },
          {
            "duration": 0.25,
            "durationTicks": 48,
            "midi": 53,
            "name": "F3",
            "ticks": 23424,
            "time": 122,
            "velocity": 0.6692913385826772
          },
          {
            "duration": 0.15625,
            "durationTicks": 30,
            "midi": 65,
            "name": "F4",
            "ticks": 23448,
            "time": 122.125,
            "velocity": 0.6062992125984252
          },
          {
            "duration": 0.25,
            "durationTicks": 48,
            "midi": 53,
            "name": "F3",
            "ticks": 23472,
            "time": 122.25,
            "velocity": 0.47244094488188976
          },
          {
            "duration": 0.1666666666666714,
            "durationTicks": 32,
            "midi": 66,
            "name": "F#4",
            "ticks": 23472,
            "time": 122.25,
            "velocity": 0.5905511811023622
          },
          {
            "duration": 0.2135416666666714,
            "durationTicks": 41,
            "midi": 68,
            "name": "G#4",
            "ticks": 23496,
            "time": 122.375,
            "velocity": 0.6614173228346457
          },
          {
            "duration": 0.25,
            "durationTicks": 48,
            "midi": 53,
            "name": "F3",
            "ticks": 23520,
            "time": 122.5,
            "velocity": 0.49606299212598426
          },
          {
            "duration": 0.2916666666666714,
            "durationTicks": 56,
            "midi": 70,
            "name": "A#4",
            "ticks": 23520,
            "time": 122.5,
            "velocity": 0.6692913385826772
          },
          {
            "duration": 0.25,
            "durationTicks": 48,
            "midi": 53,
            "name": "F3",
            "ticks": 23568,
            "time": 122.75,
            "velocity": 0.4251968503937008
          },
          {
            "duration": 0.171875,
            "durationTicks": 33,
            "midi": 70,
            "name": "A#4",
            "ticks": 23592,
            "time": 122.875,
            "velocity": 0.5275590551181102
          },
          {
            "duration": 0.25,
            "durationTicks": 48,
            "midi": 53,
            "name": "F3",
            "ticks": 23616,
            "time": 123,
            "velocity": 0.48031496062992124
          },
          {
            "duration": 0.125,
            "durationTicks": 24,
            "midi": 65,
            "name": "F4",
            "ticks": 23616,
            "time": 123,
            "velocity": 0.5826771653543307
          },
          {
            "duration": 0.1822916666666714,
            "durationTicks": 35,
            "midi": 68,
            "name": "G#4",
            "ticks": 23640,
            "time": 123.125,
            "velocity": 0.6771653543307087
          },
          {
            "duration": 0.25,
            "durationTicks": 48,
            "midi": 53,
            "name": "F3",
            "ticks": 23664,
            "time": 123.25,
            "velocity": 0.4094488188976378
          },
          {
            "duration": 0.125,
            "durationTicks": 24,
            "midi": 65,
            "name": "F4",
            "ticks": 23664,
            "time": 123.25,
            "velocity": 0.6377952755905512
          },
          {
            "duration": 0.125,
            "durationTicks": 24,
            "midi": 66,
            "name": "F#4",
            "ticks": 23688,
            "time": 123.375,
            "velocity": 0.5984251968503937
          },
          {
            "duration": 0.25,
            "durationTicks": 48,
            "midi": 53,
            "name": "F3",
            "ticks": 23712,
            "time": 123.5,
            "velocity": 0.4330708661417323
          },
          {
            "duration": 0.125,
            "durationTicks": 24,
            "midi": 65,
            "name": "F4",
            "ticks": 23712,
            "time": 123.5,
            "velocity": 0.5984251968503937
          },
          {
            "duration": 0.125,
            "durationTicks": 24,
            "midi": 61,
            "name": "C#4",
            "ticks": 23736,
            "time": 123.625,
            "velocity": 0.6456692913385826
          },
          {
            "duration": 0.1875,
            "durationTicks": 36,
            "midi": 53,
            "name": "F3",
            "ticks": 23760,
            "time": 123.75,
            "velocity": 0.3700787401574803
          },
          {
            "duration": 0.125,
            "durationTicks": 24,
            "midi": 63,
            "name": "D#4",
            "ticks": 23760,
            "time": 123.75,
            "velocity": 0.6062992125984252
          },
          {
            "duration": 0.125,
            "durationTicks": 24,
            "midi": 65,
            "name": "F4",
            "ticks": 23784,
            "time": 123.875,
            "velocity": 0.6377952755905512
          },
          {
            "duration": 1.859375,
            "durationTicks": 357,
            "midi": 40,
            "name": "E2",
            "ticks": 23802,
            "time": 123.96875,
            "velocity": 0.5196850393700787
          },
          {
            "duration": 1.859375,
            "durationTicks": 357,
            "midi": 48,
            "name": "C3",
            "ticks": 23804,
            "time": 123.97916666666667,
            "velocity": 0.6377952755905512
          },
          {
            "duration": 0.25,
            "durationTicks": 48,
            "midi": 52,
            "name": "E3",
            "ticks": 23808,
            "time": 124,
            "velocity": 0.6692913385826772
          },
          {
            "duration": 0.15625,
            "durationTicks": 30,
            "midi": 65,
            "name": "F4",
            "ticks": 23832,
            "time": 124.125,
            "velocity": 0.6062992125984252
          },
          {
            "duration": 0.25,
            "durationTicks": 48,
            "midi": 52,
            "name": "E3",
            "ticks": 23856,
            "time": 124.25,
            "velocity": 0.47244094488188976
          },
          {
            "duration": 0.1666666666666714,
            "durationTicks": 32,
            "midi": 66,
            "name": "F#4",
            "ticks": 23856,
            "time": 124.25,
            "velocity": 0.6220472440944882
          },
          {
            "duration": 0.2135416666666714,
            "durationTicks": 41,
            "midi": 68,
            "name": "G#4",
            "ticks": 23880,
            "time": 124.375,
            "velocity": 0.6614173228346457
          },
          {
            "duration": 0.25,
            "durationTicks": 48,
            "midi": 52,
            "name": "E3",
            "ticks": 23904,
            "time": 124.5,
            "velocity": 0.49606299212598426
          },
          {
            "duration": 0.390625,
            "durationTicks": 75,
            "midi": 70,
            "name": "A#4",
            "ticks": 23904,
            "time": 124.5,
            "velocity": 0.6692913385826772
          },
          {
            "duration": 0.25,
            "durationTicks": 48,
            "midi": 52,
            "name": "E3",
            "ticks": 23952,
            "time": 124.75,
            "velocity": 0.4251968503937008
          },
          {
            "duration": 0.1354166666666714,
            "durationTicks": 26,
            "midi": 65,
            "name": "F4",
            "ticks": 23976,
            "time": 124.875,
            "velocity": 0.5511811023622047
          },
          {
            "duration": 0.25,
            "durationTicks": 48,
            "midi": 52,
            "name": "E3",
            "ticks": 24000,
            "time": 125,
            "velocity": 0.48031496062992124
          },
          {
            "duration": 0.171875,
            "durationTicks": 33,
            "midi": 66,
            "name": "F#4",
            "ticks": 24000,
            "time": 125,
            "velocity": 0.5905511811023622
          },
          {
            "duration": 0.140625,
            "durationTicks": 27,
            "midi": 72,
            "name": "C5",
            "ticks": 24024,
            "time": 125.125,
            "velocity": 0.6535433070866141
          },
          {
            "duration": 0.25,
            "durationTicks": 48,
            "midi": 52,
            "name": "E3",
            "ticks": 24048,
            "time": 125.25,
            "velocity": 0.4094488188976378
          },
          {
            "duration": 0.3802083333333286,
            "durationTicks": 73,
            "midi": 70,
            "name": "A#4",
            "ticks": 24048,
            "time": 125.25,
            "velocity": 0.6929133858267716
          },
          {
            "duration": 0.25,
            "durationTicks": 48,
            "midi": 52,
            "name": "E3",
            "ticks": 24096,
            "time": 125.5,
            "velocity": 0.4330708661417323
          },
          {
            "duration": 0.1875,
            "durationTicks": 36,
            "midi": 52,
            "name": "E3",
            "ticks": 24144,
            "time": 125.75,
            "velocity": 0.3858267716535433
          },
          {
            "duration": 0.1614583333333286,
            "durationTicks": 31,
            "midi": 65,
            "name": "F4",
            "ticks": 24144,
            "time": 125.75,
            "velocity": 0.6141732283464567
          },
          {
            "duration": 1.9479166666666714,
            "durationTicks": 374,
            "midi": 41,
            "name": "F2",
            "ticks": 24186,
            "time": 125.96875,
            "velocity": 0.5275590551181102
          },
          {
            "duration": 1.9375,
            "durationTicks": 372,
            "midi": 48,
            "name": "C3",
            "ticks": 24188,
            "time": 125.97916666666667,
            "velocity": 0.5826771653543307
          },
          {
            "duration": 0.25,
            "durationTicks": 48,
            "midi": 53,
            "name": "F3",
            "ticks": 24192,
            "time": 126,
            "velocity": 0.6692913385826772
          },
          {
            "duration": 0.125,
            "durationTicks": 24,
            "midi": 70,
            "name": "A#4",
            "ticks": 24216,
            "time": 126.125,
            "velocity": 0.6771653543307087
          },
          {
            "duration": 0.25,
            "durationTicks": 48,
            "midi": 53,
            "name": "F3",
            "ticks": 24240,
            "time": 126.25,
            "velocity": 0.47244094488188976
          },
          {
            "duration": 0.125,
            "durationTicks": 24,
            "midi": 68,
            "name": "G#4",
            "ticks": 24264,
            "time": 126.375,
            "velocity": 0.6220472440944882
          },
          {
            "duration": 0.25,
            "durationTicks": 48,
            "midi": 53,
            "name": "F3",
            "ticks": 24288,
            "time": 126.5,
            "velocity": 0.49606299212598426
          },
          {
            "duration": 0.125,
            "durationTicks": 24,
            "midi": 66,
            "name": "F#4",
            "ticks": 24312,
            "time": 126.625,
            "velocity": 0.6456692913385826
          },
          {
            "duration": 0.25,
            "durationTicks": 48,
            "midi": 53,
            "name": "F3",
            "ticks": 24336,
            "time": 126.75,
            "velocity": 0.4251968503937008
          },
          {
            "duration": 0.125,
            "durationTicks": 24,
            "midi": 65,
            "name": "F4",
            "ticks": 24360,
            "time": 126.875,
            "velocity": 0.6377952755905512
          },
          {
            "duration": 0.25,
            "durationTicks": 48,
            "midi": 53,
            "name": "F3",
            "ticks": 24384,
            "time": 127,
            "velocity": 0.48031496062992124
          },
          {
            "duration": 0.125,
            "durationTicks": 24,
            "midi": 63,
            "name": "D#4",
            "ticks": 24408,
            "time": 127.125,
            "velocity": 0.6377952755905512
          },
          {
            "duration": 0.25,
            "durationTicks": 48,
            "midi": 53,
            "name": "F3",
            "ticks": 24432,
            "time": 127.25,
            "velocity": 0.4094488188976378
          },
          {
            "duration": 0.125,
            "durationTicks": 24,
            "midi": 61,
            "name": "C#4",
            "ticks": 24456,
            "time": 127.375,
            "velocity": 0.6614173228346457
          },
          {
            "duration": 0.25,
            "durationTicks": 48,
            "midi": 53,
            "name": "F3",
            "ticks": 24480,
            "time": 127.5,
            "velocity": 0.4330708661417323
          },
          {
            "duration": 0.1770833333333286,
            "durationTicks": 34,
            "midi": 63,
            "name": "D#4",
            "ticks": 24504,
            "time": 127.625,
            "velocity": 0.6299212598425197
          },
          {
            "duration": 0.25,
            "durationTicks": 48,
            "midi": 53,
            "name": "F3",
            "ticks": 24528,
            "time": 127.75,
            "velocity": 0.47244094488188976
          },
          {
            "duration": 0.1041666666666714,
            "durationTicks": 20,
            "midi": 65,
            "name": "F4",
            "ticks": 24552,
            "time": 127.875,
            "velocity": 0.6299212598425197
          },
          {
            "duration": 1.1249999999999858,
            "durationTicks": 216,
            "midi": 44,
            "name": "G#2",
            "ticks": 24572,
            "time": 127.97916666666667,
            "velocity": 0.6535433070866141
          },
          {
            "duration": 1.1041666666666572,
            "durationTicks": 212,
            "midi": 56,
            "name": "G#3",
            "ticks": 24576,
            "time": 128,
            "velocity": 0.6535433070866141
          },
          {
            "duration": 0.140625,
            "durationTicks": 27,
            "midi": 70,
            "name": "A#4",
            "ticks": 24648,
            "time": 128.375,
            "velocity": 0.4881889763779528
          },
          {
            "duration": 0.4583333333333428,
            "durationTicks": 88,
            "midi": 65,
            "name": "F4",
            "ticks": 24672,
            "time": 128.5,
            "velocity": 0.5196850393700787
          },
          {
            "duration": 1.125,
            "durationTicks": 216,
            "midi": 42,
            "name": "F#2",
            "ticks": 24764,
            "time": 128.97916666666666,
            "velocity": 0.6929133858267716
          },
          {
            "duration": 1.1041666666666572,
            "durationTicks": 212,
            "midi": 54,
            "name": "F#3",
            "ticks": 24768,
            "time": 129,
            "velocity": 0.6929133858267716
          },
          {
            "duration": 0.140625,
            "durationTicks": 27,
            "midi": 70,
            "name": "A#4",
            "ticks": 24840,
            "time": 129.375,
            "velocity": 0.4566929133858268
          },
          {
            "duration": 0.4583333333333428,
            "durationTicks": 88,
            "midi": 65,
            "name": "F4",
            "ticks": 24864,
            "time": 129.5,
            "velocity": 0.5196850393700787
          },
          {
            "duration": 1.125,
            "durationTicks": 216,
            "midi": 41,
            "name": "F2",
            "ticks": 24956,
            "time": 129.97916666666666,
            "velocity": 0.6850393700787402
          },
          {
            "duration": 1.1041666666666572,
            "durationTicks": 212,
            "midi": 53,
            "name": "F3",
            "ticks": 24960,
            "time": 130,
            "velocity": 0.6850393700787402
          },
          {
            "duration": 0.140625,
            "durationTicks": 27,
            "midi": 70,
            "name": "A#4",
            "ticks": 25032,
            "time": 130.375,
            "velocity": 0.4881889763779528
          },
          {
            "duration": 0.4583333333333428,
            "durationTicks": 88,
            "midi": 65,
            "name": "F4",
            "ticks": 25056,
            "time": 130.5,
            "velocity": 0.5196850393700787
          },
          {
            "duration": 1.125,
            "durationTicks": 216,
            "midi": 40,
            "name": "E2",
            "ticks": 25148,
            "time": 130.97916666666666,
            "velocity": 0.6614173228346457
          },
          {
            "duration": 1.1041666666666572,
            "durationTicks": 212,
            "midi": 52,
            "name": "E3",
            "ticks": 25152,
            "time": 131,
            "velocity": 0.6614173228346457
          },
          {
            "duration": 0.140625,
            "durationTicks": 27,
            "midi": 70,
            "name": "A#4",
            "ticks": 25224,
            "time": 131.375,
            "velocity": 0.4566929133858268
          },
          {
            "duration": 0.4583333333333428,
            "durationTicks": 88,
            "midi": 65,
            "name": "F4",
            "ticks": 25248,
            "time": 131.5,
            "velocity": 0.5196850393700787
          },
          {
            "duration": 1.109375,
            "durationTicks": 213,
            "midi": 44,
            "name": "G#2",
            "ticks": 25343,
            "time": 131.99479166666666,
            "velocity": 0.6929133858267716
          },
          {
            "duration": 1.1041666666666572,
            "durationTicks": 212,
            "midi": 49,
            "name": "C#3",
            "ticks": 25344,
            "time": 132,
            "velocity": 0.6377952755905512
          },
          {
            "duration": 0.140625,
            "durationTicks": 27,
            "midi": 70,
            "name": "A#4",
            "ticks": 25416,
            "time": 132.375,
            "velocity": 0.4881889763779528
          },
          {
            "duration": 0.4583333333333428,
            "durationTicks": 88,
            "midi": 65,
            "name": "F4",
            "ticks": 25440,
            "time": 132.5,
            "velocity": 0.5196850393700787
          },
          {
            "duration": 1.109375,
            "durationTicks": 213,
            "midi": 46,
            "name": "A#2",
            "ticks": 25535,
            "time": 132.99479166666666,
            "velocity": 0.6771653543307087
          },
          {
            "duration": 1.1041666666666572,
            "durationTicks": 212,
            "midi": 51,
            "name": "D#3",
            "ticks": 25536,
            "time": 133,
            "velocity": 0.5905511811023622
          },
          {
            "duration": 0.140625,
            "durationTicks": 27,
            "midi": 70,
            "name": "A#4",
            "ticks": 25608,
            "time": 133.375,
            "velocity": 0.4566929133858268
          },
          {
            "duration": 0.4583333333333428,
            "durationTicks": 88,
            "midi": 65,
            "name": "F4",
            "ticks": 25632,
            "time": 133.5,
            "velocity": 0.5196850393700787
          },
          {
            "duration": 1.0625,
            "durationTicks": 204,
            "midi": 43,
            "name": "G2",
            "ticks": 25727,
            "time": 133.99479166666666,
            "velocity": 0.6456692913385826
          },
          {
            "duration": 1.0572916666666572,
            "durationTicks": 203,
            "midi": 48,
            "name": "C3",
            "ticks": 25728,
            "time": 134,
            "velocity": 0.6535433070866141
          },
          {
            "duration": 0.140625,
            "durationTicks": 27,
            "midi": 70,
            "name": "A#4",
            "ticks": 25800,
            "time": 134.375,
            "velocity": 0.4881889763779528
          },
          {
            "duration": 0.4583333333333428,
            "durationTicks": 88,
            "midi": 65,
            "name": "F4",
            "ticks": 25824,
            "time": 134.5,
            "velocity": 0.5196850393700787
          },
          {
            "duration": 0.984375,
            "durationTicks": 189,
            "midi": 44,
            "name": "G#2",
            "ticks": 25919,
            "time": 134.99479166666666,
            "velocity": 0.6850393700787402
          },
          {
            "duration": 1.1041666666666572,
            "durationTicks": 212,
            "midi": 49,
            "name": "C#3",
            "ticks": 25920,
            "time": 135,
            "velocity": 0.5984251968503937
          },
          {
            "duration": 0.140625,
            "durationTicks": 27,
            "midi": 70,
            "name": "A#4",
            "ticks": 25992,
            "time": 135.375,
            "velocity": 0.4566929133858268
          },
          {
            "duration": 0.4583333333333428,
            "durationTicks": 88,
            "midi": 64,
            "name": "E4",
            "ticks": 26016,
            "time": 135.5,
            "velocity": 0.5196850393700787
          },
          {
            "duration": 1.1041666666666572,
            "durationTicks": 212,
            "midi": 56,
            "name": "G#3",
            "ticks": 26112,
            "time": 136,
            "velocity": 0.6614173228346457
          },
          {
            "duration": 1.09375,
            "durationTicks": 210,
            "midi": 44,
            "name": "G#2",
            "ticks": 26114,
            "time": 136.01041666666666,
            "velocity": 0.6535433070866141
          },
          {
            "duration": 0.140625,
            "durationTicks": 27,
            "midi": 70,
            "name": "A#4",
            "ticks": 26184,
            "time": 136.375,
            "velocity": 0.4881889763779528
          },
          {
            "duration": 0.4583333333333428,
            "durationTicks": 88,
            "midi": 65,
            "name": "F4",
            "ticks": 26208,
            "time": 136.5,
            "velocity": 0.5196850393700787
          },
          {
            "duration": 1.1041666666666572,
            "durationTicks": 212,
            "midi": 54,
            "name": "F#3",
            "ticks": 26304,
            "time": 137,
            "velocity": 0.7007874015748031
          },
          {
            "duration": 1.09375,
            "durationTicks": 210,
            "midi": 42,
            "name": "F#2",
            "ticks": 26306,
            "time": 137.01041666666666,
            "velocity": 0.6929133858267716
          },
          {
            "duration": 0.140625,
            "durationTicks": 27,
            "midi": 70,
            "name": "A#4",
            "ticks": 26376,
            "time": 137.375,
            "velocity": 0.4566929133858268
          },
          {
            "duration": 0.4583333333333428,
            "durationTicks": 88,
            "midi": 65,
            "name": "F4",
            "ticks": 26400,
            "time": 137.5,
            "velocity": 0.5196850393700787
          },
          {
            "duration": 1.1041666666666572,
            "durationTicks": 212,
            "midi": 60,
            "name": "C4",
            "ticks": 26496,
            "time": 138,
            "velocity": 0.7007874015748031
          },
          {
            "duration": 1.09375,
            "durationTicks": 210,
            "midi": 48,
            "name": "C3",
            "ticks": 26498,
            "time": 138.01041666666666,
            "velocity": 0.6850393700787402
          },
          {
            "duration": 0.140625,
            "durationTicks": 27,
            "midi": 70,
            "name": "A#4",
            "ticks": 26568,
            "time": 138.375,
            "velocity": 0.4881889763779528
          },
          {
            "duration": 0.4583333333333428,
            "durationTicks": 88,
            "midi": 65,
            "name": "F4",
            "ticks": 26592,
            "time": 138.5,
            "velocity": 0.5196850393700787
          },
          {
            "duration": 1.1041666666666572,
            "durationTicks": 212,
            "midi": 57,
            "name": "A3",
            "ticks": 26688,
            "time": 139,
            "velocity": 0.6850393700787402
          },
          {
            "duration": 1.09375,
            "durationTicks": 210,
            "midi": 45,
            "name": "A2",
            "ticks": 26690,
            "time": 139.01041666666666,
            "velocity": 0.6299212598425197
          },
          {
            "duration": 0.140625,
            "durationTicks": 27,
            "midi": 70,
            "name": "A#4",
            "ticks": 26760,
            "time": 139.375,
            "velocity": 0.4566929133858268
          },
          {
            "duration": 0.4583333333333428,
            "durationTicks": 88,
            "midi": 65,
            "name": "F4",
            "ticks": 26784,
            "time": 139.5,
            "velocity": 0.5196850393700787
          },
          {
            "duration": 1.109375,
            "durationTicks": 213,
            "midi": 46,
            "name": "A#2",
            "ticks": 26879,
            "time": 139.99479166666666,
            "velocity": 0.5826771653543307
          },
          {
            "duration": 1.109375,
            "durationTicks": 213,
            "midi": 58,
            "name": "A#3",
            "ticks": 26879,
            "time": 139.99479166666666,
            "velocity": 0.5826771653543307
          },
          {
            "duration": 0.2395833333333428,
            "durationTicks": 46,
            "midi": 61,
            "name": "C#4",
            "ticks": 26880,
            "time": 140,
            "velocity": 0.6456692913385826
          },
          {
            "duration": 1.0989583333333428,
            "durationTicks": 211,
            "midi": 49,
            "name": "C#3",
            "ticks": 26882,
            "time": 140.01041666666666,
            "velocity": 0.6456692913385826
          },
          {
            "duration": 0.2395833333333428,
            "durationTicks": 46,
            "midi": 61,
            "name": "C#4",
            "ticks": 26928,
            "time": 140.25,
            "velocity": 0.6456692913385826
          },
          {
            "duration": 0.140625,
            "durationTicks": 27,
            "midi": 70,
            "name": "A#4",
            "ticks": 26952,
            "time": 140.375,
            "velocity": 0.4881889763779528
          },
          {
            "duration": 0.2395833333333428,
            "durationTicks": 46,
            "midi": 61,
            "name": "C#4",
            "ticks": 26976,
            "time": 140.5,
            "velocity": 0.6456692913385826
          },
          {
            "duration": 0.4583333333333428,
            "durationTicks": 88,
            "midi": 65,
            "name": "F4",
            "ticks": 26976,
            "time": 140.5,
            "velocity": 0.5196850393700787
          },
          {
            "duration": 0.2395833333333428,
            "durationTicks": 46,
            "midi": 61,
            "name": "C#4",
            "ticks": 27024,
            "time": 140.75,
            "velocity": 0.5196850393700787
          },
          {
            "duration": 1.109375,
            "durationTicks": 213,
            "midi": 45,
            "name": "A2",
            "ticks": 27071,
            "time": 140.99479166666666,
            "velocity": 0.5826771653543307
          },
          {
            "duration": 1.109375,
            "durationTicks": 213,
            "midi": 57,
            "name": "A3",
            "ticks": 27071,
            "time": 140.99479166666666,
            "velocity": 0.5826771653543307
          },
          {
            "duration": 0.2395833333333428,
            "durationTicks": 46,
            "midi": 60,
            "name": "C4",
            "ticks": 27072,
            "time": 141,
            "velocity": 0.7086614173228346
          },
          {
            "duration": 1.09375,
            "durationTicks": 210,
            "midi": 48,
            "name": "C3",
            "ticks": 27074,
            "time": 141.01041666666666,
            "velocity": 0.5984251968503937
          },
          {
            "duration": 0.1770833333333428,
            "durationTicks": 34,
            "midi": 60,
            "name": "C4",
            "ticks": 27120,
            "time": 141.25,
            "velocity": 0.6614173228346457
          },
          {
            "duration": 0.140625,
            "durationTicks": 27,
            "midi": 70,
            "name": "A#4",
            "ticks": 27144,
            "time": 141.375,
            "velocity": 0.4566929133858268
          },
          {
            "duration": 0.4166666666666572,
            "durationTicks": 80,
            "midi": 60,
            "name": "C4",
            "ticks": 27168,
            "time": 141.5,
            "velocity": 0.6614173228346457
          },
          {
            "duration": 0.4583333333333428,
            "durationTicks": 88,
            "midi": 65,
            "name": "F4",
            "ticks": 27168,
            "time": 141.5,
            "velocity": 0.5196850393700787
          },
          {
            "duration": 1.0625,
            "durationTicks": 204,
            "midi": 46,
            "name": "A#2",
            "ticks": 27263,
            "time": 141.99479166666666,
            "velocity": 0.5590551181102362
          },
          {
            "duration": 1.0625,
            "durationTicks": 204,
            "midi": 58,
            "name": "A#3",
            "ticks": 27263,
            "time": 141.99479166666666,
            "velocity": 0.5590551181102362
          },
          {
            "duration": 0.2395833333333428,
            "durationTicks": 46,
            "midi": 63,
            "name": "D#4",
            "ticks": 27264,
            "time": 142,
            "velocity": 0.7559055118110236
          },
          {
            "duration": 1.046875,
            "durationTicks": 201,
            "midi": 51,
            "name": "D#3",
            "ticks": 27266,
            "time": 142.01041666666666,
            "velocity": 0.6850393700787402
          },
          {
            "duration": 0.2395833333333428,
            "durationTicks": 46,
            "midi": 63,
            "name": "D#4",
            "ticks": 27312,
            "time": 142.25,
            "velocity": 0.7244094488188977
          },
          {
            "duration": 0.140625,
            "durationTicks": 27,
            "midi": 70,
            "name": "A#4",
            "ticks": 27336,
            "time": 142.375,
            "velocity": 0.4881889763779528
          },
          {
            "duration": 0.3645833333333428,
            "durationTicks": 70,
            "midi": 63,
            "name": "D#4",
            "ticks": 27360,
            "time": 142.5,
            "velocity": 0.7244094488188977
          },
          {
            "duration": 0.4583333333333428,
            "durationTicks": 88,
            "midi": 65,
            "name": "F4",
            "ticks": 27360,
            "time": 142.5,
            "velocity": 0.5748031496062992
          },
          {
            "duration": 1.0052083333333428,
            "durationTicks": 193,
            "midi": 48,
            "name": "C3",
            "ticks": 27455,
            "time": 142.99479166666666,
            "velocity": 0.6614173228346457
          },
          {
            "duration": 1.0052083333333428,
            "durationTicks": 193,
            "midi": 60,
            "name": "C4",
            "ticks": 27455,
            "time": 142.99479166666666,
            "velocity": 0.6614173228346457
          },
          {
            "duration": 0.25,
            "durationTicks": 48,
            "midi": 65,
            "name": "F4",
            "ticks": 27456,
            "time": 143,
            "velocity": 0.6771653543307087
          },
          {
            "duration": 1.09375,
            "durationTicks": 210,
            "midi": 53,
            "name": "F3",
            "ticks": 27458,
            "time": 143.01041666666666,
            "velocity": 0.6850393700787402
          },
          {
            "duration": 0.2395833333333428,
            "durationTicks": 46,
            "midi": 65,
            "name": "F4",
            "ticks": 27504,
            "time": 143.25,
            "velocity": 0.6535433070866141
          },
          {
            "duration": 0.25,
            "durationTicks": 48,
            "midi": 65,
            "name": "F4",
            "ticks": 27552,
            "time": 143.5,
            "velocity": 0.7401574803149606
          },
          {
            "duration": 0.2395833333333428,
            "durationTicks": 46,
            "midi": 65,
            "name": "F4",
            "ticks": 27600,
            "time": 143.75,
            "velocity": 0.49606299212598426
          },
          {
            "duration": 1.125,
            "durationTicks": 216,
            "midi": 44,
            "name": "G#2",
            "ticks": 27644,
            "time": 143.97916666666666,
            "velocity": 0.6535433070866141
          },
          {
            "duration": 1.1041666666666572,
            "durationTicks": 212,
            "midi": 56,
            "name": "G#3",
            "ticks": 27648,
            "time": 144,
            "velocity": 0.6535433070866141
          },
          {
            "duration": 0.140625,
            "durationTicks": 27,
            "midi": 70,
            "name": "A#4",
            "ticks": 27720,
            "time": 144.375,
            "velocity": 0.4881889763779528
          },
          {
            "duration": 0.4583333333333428,
            "durationTicks": 88,
            "midi": 65,
            "name": "F4",
            "ticks": 27744,
            "time": 144.5,
            "velocity": 0.5196850393700787
          },
          {
            "duration": 1.125,
            "durationTicks": 216,
            "midi": 42,
            "name": "F#2",
            "ticks": 27836,
            "time": 144.97916666666666,
            "velocity": 0.6929133858267716
          },
          {
            "duration": 1.1041666666666572,
            "durationTicks": 212,
            "midi": 54,
            "name": "F#3",
            "ticks": 27840,
            "time": 145,
            "velocity": 0.6929133858267716
          },
          {
            "duration": 0.140625,
            "durationTicks": 27,
            "midi": 70,
            "name": "A#4",
            "ticks": 27912,
            "time": 145.375,
            "velocity": 0.4566929133858268
          },
          {
            "duration": 0.4583333333333428,
            "durationTicks": 88,
            "midi": 65,
            "name": "F4",
            "ticks": 27936,
            "time": 145.5,
            "velocity": 0.5196850393700787
          },
          {
            "duration": 1.125,
            "durationTicks": 216,
            "midi": 41,
            "name": "F2",
            "ticks": 28028,
            "time": 145.97916666666666,
            "velocity": 0.6850393700787402
          },
          {
            "duration": 1.1041666666666572,
            "durationTicks": 212,
            "midi": 53,
            "name": "F3",
            "ticks": 28032,
            "time": 146,
            "velocity": 0.6850393700787402
          },
          {
            "duration": 0.140625,
            "durationTicks": 27,
            "midi": 70,
            "name": "A#4",
            "ticks": 28104,
            "time": 146.375,
            "velocity": 0.4881889763779528
          },
          {
            "duration": 0.4583333333333428,
            "durationTicks": 88,
            "midi": 65,
            "name": "F4",
            "ticks": 28128,
            "time": 146.5,
            "velocity": 0.5196850393700787
          },
          {
            "duration": 1.125,
            "durationTicks": 216,
            "midi": 40,
            "name": "E2",
            "ticks": 28220,
            "time": 146.97916666666666,
            "velocity": 0.6614173228346457
          },
          {
            "duration": 1.1041666666666572,
            "durationTicks": 212,
            "midi": 52,
            "name": "E3",
            "ticks": 28224,
            "time": 147,
            "velocity": 0.6614173228346457
          },
          {
            "duration": 0.140625,
            "durationTicks": 27,
            "midi": 70,
            "name": "A#4",
            "ticks": 28296,
            "time": 147.375,
            "velocity": 0.4566929133858268
          },
          {
            "duration": 0.4583333333333428,
            "durationTicks": 88,
            "midi": 65,
            "name": "F4",
            "ticks": 28320,
            "time": 147.5,
            "velocity": 0.5196850393700787
          },
          {
            "duration": 1.109375,
            "durationTicks": 213,
            "midi": 44,
            "name": "G#2",
            "ticks": 28415,
            "time": 147.99479166666666,
            "velocity": 0.6929133858267716
          },
          {
            "duration": 1.1041666666666572,
            "durationTicks": 212,
            "midi": 49,
            "name": "C#3",
            "ticks": 28416,
            "time": 148,
            "velocity": 0.6377952755905512
          },
          {
            "duration": 0.140625,
            "durationTicks": 27,
            "midi": 70,
            "name": "A#4",
            "ticks": 28488,
            "time": 148.375,
            "velocity": 0.4881889763779528
          },
          {
            "duration": 0.4583333333333428,
            "durationTicks": 88,
            "midi": 65,
            "name": "F4",
            "ticks": 28512,
            "time": 148.5,
            "velocity": 0.5196850393700787
          },
          {
            "duration": 1.109375,
            "durationTicks": 213,
            "midi": 46,
            "name": "A#2",
            "ticks": 28607,
            "time": 148.99479166666666,
            "velocity": 0.6771653543307087
          },
          {
            "duration": 1.1041666666666572,
            "durationTicks": 212,
            "midi": 51,
            "name": "D#3",
            "ticks": 28608,
            "time": 149,
            "velocity": 0.5905511811023622
          },
          {
            "duration": 0.140625,
            "durationTicks": 27,
            "midi": 70,
            "name": "A#4",
            "ticks": 28680,
            "time": 149.375,
            "velocity": 0.4566929133858268
          },
          {
            "duration": 0.4583333333333428,
            "durationTicks": 88,
            "midi": 65,
            "name": "F4",
            "ticks": 28704,
            "time": 149.5,
            "velocity": 0.5196850393700787
          },
          {
            "duration": 1.0625,
            "durationTicks": 204,
            "midi": 43,
            "name": "G2",
            "ticks": 28799,
            "time": 149.99479166666666,
            "velocity": 0.6456692913385826
          },
          {
            "duration": 1.0572916666666572,
            "durationTicks": 203,
            "midi": 48,
            "name": "C3",
            "ticks": 28800,
            "time": 150,
            "velocity": 0.6535433070866141
          },
          {
            "duration": 0.140625,
            "durationTicks": 27,
            "midi": 70,
            "name": "A#4",
            "ticks": 28872,
            "time": 150.375,
            "velocity": 0.4881889763779528
          },
          {
            "duration": 0.4583333333333428,
            "durationTicks": 88,
            "midi": 65,
            "name": "F4",
            "ticks": 28896,
            "time": 150.5,
            "velocity": 0.5196850393700787
          },
          {
            "duration": 0.984375,
            "durationTicks": 189,
            "midi": 44,
            "name": "G#2",
            "ticks": 28991,
            "time": 150.99479166666666,
            "velocity": 0.6850393700787402
          },
          {
            "duration": 1.1041666666666572,
            "durationTicks": 212,
            "midi": 49,
            "name": "C#3",
            "ticks": 28992,
            "time": 151,
            "velocity": 0.5984251968503937
          },
          {
            "duration": 0.140625,
            "durationTicks": 27,
            "midi": 70,
            "name": "A#4",
            "ticks": 29064,
            "time": 151.375,
            "velocity": 0.4566929133858268
          },
          {
            "duration": 0.4583333333333428,
            "durationTicks": 88,
            "midi": 64,
            "name": "E4",
            "ticks": 29088,
            "time": 151.5,
            "velocity": 0.5196850393700787
          },
          {
            "duration": 1.1041666666666572,
            "durationTicks": 212,
            "midi": 56,
            "name": "G#3",
            "ticks": 29184,
            "time": 152,
            "velocity": 0.6614173228346457
          },
          {
            "duration": 1.09375,
            "durationTicks": 210,
            "midi": 44,
            "name": "G#2",
            "ticks": 29186,
            "time": 152.01041666666666,
            "velocity": 0.6535433070866141
          },
          {
            "duration": 0.140625,
            "durationTicks": 27,
            "midi": 70,
            "name": "A#4",
            "ticks": 29256,
            "time": 152.375,
            "velocity": 0.4881889763779528
          },
          {
            "duration": 0.4583333333333428,
            "durationTicks": 88,
            "midi": 65,
            "name": "F4",
            "ticks": 29280,
            "time": 152.5,
            "velocity": 0.5196850393700787
          },
          {
            "duration": 1.1041666666666572,
            "durationTicks": 212,
            "midi": 54,
            "name": "F#3",
            "ticks": 29376,
            "time": 153,
            "velocity": 0.7007874015748031
          },
          {
            "duration": 1.09375,
            "durationTicks": 210,
            "midi": 42,
            "name": "F#2",
            "ticks": 29378,
            "time": 153.01041666666666,
            "velocity": 0.6929133858267716
          },
          {
            "duration": 0.140625,
            "durationTicks": 27,
            "midi": 70,
            "name": "A#4",
            "ticks": 29448,
            "time": 153.375,
            "velocity": 0.4566929133858268
          },
          {
            "duration": 0.4583333333333428,
            "durationTicks": 88,
            "midi": 65,
            "name": "F4",
            "ticks": 29472,
            "time": 153.5,
            "velocity": 0.5196850393700787
          },
          {
            "duration": 1.1041666666666572,
            "durationTicks": 212,
            "midi": 60,
            "name": "C4",
            "ticks": 29568,
            "time": 154,
            "velocity": 0.7007874015748031
          },
          {
            "duration": 1.09375,
            "durationTicks": 210,
            "midi": 48,
            "name": "C3",
            "ticks": 29570,
            "time": 154.01041666666666,
            "velocity": 0.6850393700787402
          },
          {
            "duration": 0.140625,
            "durationTicks": 27,
            "midi": 70,
            "name": "A#4",
            "ticks": 29640,
            "time": 154.375,
            "velocity": 0.4881889763779528
          },
          {
            "duration": 0.4583333333333428,
            "durationTicks": 88,
            "midi": 65,
            "name": "F4",
            "ticks": 29664,
            "time": 154.5,
            "velocity": 0.5196850393700787
          },
          {
            "duration": 1.1041666666666572,
            "durationTicks": 212,
            "midi": 57,
            "name": "A3",
            "ticks": 29760,
            "time": 155,
            "velocity": 0.6850393700787402
          },
          {
            "duration": 1.09375,
            "durationTicks": 210,
            "midi": 45,
            "name": "A2",
            "ticks": 29762,
            "time": 155.01041666666666,
            "velocity": 0.6299212598425197
          },
          {
            "duration": 0.140625,
            "durationTicks": 27,
            "midi": 70,
            "name": "A#4",
            "ticks": 29832,
            "time": 155.375,
            "velocity": 0.4566929133858268
          },
          {
            "duration": 0.4583333333333428,
            "durationTicks": 88,
            "midi": 65,
            "name": "F4",
            "ticks": 29856,
            "time": 155.5,
            "velocity": 0.5196850393700787
          },
          {
            "duration": 1.109375,
            "durationTicks": 213,
            "midi": 46,
            "name": "A#2",
            "ticks": 29951,
            "time": 155.99479166666666,
            "velocity": 0.5826771653543307
          },
          {
            "duration": 1.109375,
            "durationTicks": 213,
            "midi": 58,
            "name": "A#3",
            "ticks": 29951,
            "time": 155.99479166666666,
            "velocity": 0.5826771653543307
          },
          {
            "duration": 0.2395833333333428,
            "durationTicks": 46,
            "midi": 61,
            "name": "C#4",
            "ticks": 29952,
            "time": 156,
            "velocity": 0.6456692913385826
          },
          {
            "duration": 1.0989583333333428,
            "durationTicks": 211,
            "midi": 49,
            "name": "C#3",
            "ticks": 29954,
            "time": 156.01041666666666,
            "velocity": 0.6456692913385826
          },
          {
            "duration": 0.2395833333333428,
            "durationTicks": 46,
            "midi": 61,
            "name": "C#4",
            "ticks": 30000,
            "time": 156.25,
            "velocity": 0.6456692913385826
          },
          {
            "duration": 0.140625,
            "durationTicks": 27,
            "midi": 70,
            "name": "A#4",
            "ticks": 30024,
            "time": 156.375,
            "velocity": 0.4881889763779528
          },
          {
            "duration": 0.2395833333333428,
            "durationTicks": 46,
            "midi": 61,
            "name": "C#4",
            "ticks": 30048,
            "time": 156.5,
            "velocity": 0.6456692913385826
          },
          {
            "duration": 0.4583333333333428,
            "durationTicks": 88,
            "midi": 65,
            "name": "F4",
            "ticks": 30048,
            "time": 156.5,
            "velocity": 0.5196850393700787
          },
          {
            "duration": 0.2395833333333428,
            "durationTicks": 46,
            "midi": 61,
            "name": "C#4",
            "ticks": 30096,
            "time": 156.75,
            "velocity": 0.5196850393700787
          },
          {
            "duration": 1.109375,
            "durationTicks": 213,
            "midi": 45,
            "name": "A2",
            "ticks": 30143,
            "time": 156.99479166666666,
            "velocity": 0.5826771653543307
          },
          {
            "duration": 1.109375,
            "durationTicks": 213,
            "midi": 57,
            "name": "A3",
            "ticks": 30143,
            "time": 156.99479166666666,
            "velocity": 0.5826771653543307
          },
          {
            "duration": 0.2395833333333428,
            "durationTicks": 46,
            "midi": 60,
            "name": "C4",
            "ticks": 30144,
            "time": 157,
            "velocity": 0.7086614173228346
          },
          {
            "duration": 1.09375,
            "durationTicks": 210,
            "midi": 48,
            "name": "C3",
            "ticks": 30146,
            "time": 157.01041666666666,
            "velocity": 0.5984251968503937
          },
          {
            "duration": 0.1770833333333428,
            "durationTicks": 34,
            "midi": 60,
            "name": "C4",
            "ticks": 30192,
            "time": 157.25,
            "velocity": 0.6614173228346457
          },
          {
            "duration": 0.140625,
            "durationTicks": 27,
            "midi": 70,
            "name": "A#4",
            "ticks": 30216,
            "time": 157.375,
            "velocity": 0.4566929133858268
          },
          {
            "duration": 0.4166666666666572,
            "durationTicks": 80,
            "midi": 60,
            "name": "C4",
            "ticks": 30240,
            "time": 157.5,
            "velocity": 0.6614173228346457
          },
          {
            "duration": 0.4583333333333428,
            "durationTicks": 88,
            "midi": 65,
            "name": "F4",
            "ticks": 30240,
            "time": 157.5,
            "velocity": 0.5196850393700787
          },
          {
            "duration": 1.0625,
            "durationTicks": 204,
            "midi": 46,
            "name": "A#2",
            "ticks": 30335,
            "time": 157.99479166666666,
            "velocity": 0.5590551181102362
          },
          {
            "duration": 1.0625,
            "durationTicks": 204,
            "midi": 58,
            "name": "A#3",
            "ticks": 30335,
            "time": 157.99479166666666,
            "velocity": 0.5590551181102362
          },
          {
            "duration": 0.2395833333333428,
            "durationTicks": 46,
            "midi": 63,
            "name": "D#4",
            "ticks": 30336,
            "time": 158,
            "velocity": 0.7559055118110236
          },
          {
            "duration": 1.046875,
            "durationTicks": 201,
            "midi": 51,
            "name": "D#3",
            "ticks": 30338,
            "time": 158.01041666666666,
            "velocity": 0.6850393700787402
          },
          {
            "duration": 0.2395833333333428,
            "durationTicks": 46,
            "midi": 63,
            "name": "D#4",
            "ticks": 30384,
            "time": 158.25,
            "velocity": 0.7244094488188977
          },
          {
            "duration": 0.140625,
            "durationTicks": 27,
            "midi": 70,
            "name": "A#4",
            "ticks": 30408,
            "time": 158.375,
            "velocity": 0.4881889763779528
          },
          {
            "duration": 0.3645833333333428,
            "durationTicks": 70,
            "midi": 63,
            "name": "D#4",
            "ticks": 30432,
            "time": 158.5,
            "velocity": 0.7244094488188977
          },
          {
            "duration": 0.4583333333333428,
            "durationTicks": 88,
            "midi": 65,
            "name": "F4",
            "ticks": 30432,
            "time": 158.5,
            "velocity": 0.5748031496062992
          },
          {
            "duration": 1.0052083333333428,
            "durationTicks": 193,
            "midi": 48,
            "name": "C3",
            "ticks": 30527,
            "time": 158.99479166666666,
            "velocity": 0.6614173228346457
          },
          {
            "duration": 1.0052083333333428,
            "durationTicks": 193,
            "midi": 60,
            "name": "C4",
            "ticks": 30527,
            "time": 158.99479166666666,
            "velocity": 0.6614173228346457
          },
          {
            "duration": 0.25,
            "durationTicks": 48,
            "midi": 65,
            "name": "F4",
            "ticks": 30528,
            "time": 159,
            "velocity": 0.6771653543307087
          },
          {
            "duration": 1.09375,
            "durationTicks": 210,
            "midi": 53,
            "name": "F3",
            "ticks": 30530,
            "time": 159.01041666666666,
            "velocity": 0.6850393700787402
          },
          {
            "duration": 0.2395833333333428,
            "durationTicks": 46,
            "midi": 65,
            "name": "F4",
            "ticks": 30576,
            "time": 159.25,
            "velocity": 0.6535433070866141
          },
          {
            "duration": 0.25,
            "durationTicks": 48,
            "midi": 65,
            "name": "F4",
            "ticks": 30624,
            "time": 159.5,
            "velocity": 0.7401574803149606
          },
          {
            "duration": 0.2395833333333428,
            "durationTicks": 46,
            "midi": 65,
            "name": "F4",
            "ticks": 30672,
            "time": 159.75,
            "velocity": 0.49606299212598426
          },
          {
            "duration": 0.4895833333333144,
            "durationTicks": 94,
            "midi": 46,
            "name": "A#2",
            "ticks": 30712,
            "time": 159.95833333333334,
            "velocity": 0.7165354330708661
          },
          {
            "duration": 1.8385416666666856,
            "durationTicks": 353,
            "midi": 58,
            "name": "A#3",
            "ticks": 30725,
            "time": 160.02604166666666,
            "velocity": 0.5905511811023622
          },
          {
            "duration": 0.1510416666666572,
            "durationTicks": 29,
            "midi": 70,
            "name": "A#4",
            "ticks": 30744,
            "time": 160.125,
            "velocity": 0.5118110236220472
          },
          {
            "duration": 0.125,
            "durationTicks": 24,
            "midi": 68,
            "name": "G#4",
            "ticks": 30768,
            "time": 160.25,
            "velocity": 0.7086614173228346
          },
          {
            "duration": 0.125,
            "durationTicks": 24,
            "midi": 70,
            "name": "A#4",
            "ticks": 30792,
            "time": 160.375,
            "velocity": 0.7086614173228346
          },
          {
            "duration": 0.4739583333333428,
            "durationTicks": 91,
            "midi": 46,
            "name": "A#2",
            "ticks": 30816,
            "time": 160.5,
            "velocity": 0.6771653543307087
          },
          {
            "duration": 0.1510416666666572,
            "durationTicks": 29,
            "midi": 66,
            "name": "F#4",
            "ticks": 30816,
            "time": 160.5,
            "velocity": 0.7480314960629921
          },
          {
            "duration": 0.125,
            "durationTicks": 24,
            "midi": 70,
            "name": "A#4",
            "ticks": 30840,
            "time": 160.625,
            "velocity": 0.4566929133858268
          },
          {
            "duration": 0.1302083333333428,
            "durationTicks": 25,
            "midi": 65,
            "name": "F4",
            "ticks": 30864,
            "time": 160.75,
            "velocity": 0.6692913385826772
          },
          {
            "duration": 0.125,
            "durationTicks": 24,
            "midi": 70,
            "name": "A#4",
            "ticks": 30888,
            "time": 160.875,
            "velocity": 0.4566929133858268
          },
          {
            "duration": 0.4739583333333428,
            "durationTicks": 91,
            "midi": 46,
            "name": "A#2",
            "ticks": 30912,
            "time": 161,
            "velocity": 0.6771653543307087
          },
          {
            "duration": 0.1510416666666572,
            "durationTicks": 29,
            "midi": 64,
            "name": "E4",
            "ticks": 30912,
            "time": 161,
            "velocity": 0.7480314960629921
          },
          {
            "duration": 0.125,
            "durationTicks": 24,
            "midi": 70,
            "name": "A#4",
            "ticks": 30936,
            "time": 161.125,
            "velocity": 0.4566929133858268
          },
          {
            "duration": 0.1302083333333428,
            "durationTicks": 25,
            "midi": 65,
            "name": "F4",
            "ticks": 30960,
            "time": 161.25,
            "velocity": 0.6692913385826772
          },
          {
            "duration": 0.125,
            "durationTicks": 24,
            "midi": 70,
            "name": "A#4",
            "ticks": 30984,
            "time": 161.375,
            "velocity": 0.4566929133858268
          },
          {
            "duration": 0.2708333333333428,
            "durationTicks": 52,
            "midi": 46,
            "name": "A#2",
            "ticks": 31008,
            "time": 161.5,
            "velocity": 0.6771653543307087
          },
          {
            "duration": 0.1510416666666572,
            "durationTicks": 29,
            "midi": 61,
            "name": "C#4",
            "ticks": 31008,
            "time": 161.5,
            "velocity": 0.7480314960629921
          },
          {
            "duration": 0.125,
            "durationTicks": 24,
            "midi": 70,
            "name": "A#4",
            "ticks": 31032,
            "time": 161.625,
            "velocity": 0.4566929133858268
          },
          {
            "duration": 0.1822916666666572,
            "durationTicks": 35,
            "midi": 63,
            "name": "D#4",
            "ticks": 31056,
            "time": 161.75,
            "velocity": 0.6692913385826772
          },
          {
            "duration": 0.125,
            "durationTicks": 24,
            "midi": 70,
            "name": "A#4",
            "ticks": 31080,
            "time": 161.875,
            "velocity": 0.4566929133858268
          },
          {
            "duration": 0.5104166666666572,
            "durationTicks": 98,
            "midi": 45,
            "name": "A2",
            "ticks": 31092,
            "time": 161.9375,
            "velocity": 0.7165354330708661
          },
          {
            "duration": 1.8229166666666856,
            "durationTicks": 350,
            "midi": 53,
            "name": "F3",
            "ticks": 31100,
            "time": 161.97916666666666,
            "velocity": 0.7165354330708661
          },
          {
            "duration": 1.3489583333333428,
            "durationTicks": 259,
            "midi": 57,
            "name": "A3",
            "ticks": 31104,
            "time": 162,
            "velocity": 0.7559055118110236
          },
          {
            "duration": 0.140625,
            "durationTicks": 27,
            "midi": 70,
            "name": "A#4",
            "ticks": 31128,
            "time": 162.125,
            "velocity": 0.5118110236220472
          },
          {
            "duration": 0.11979166666665719,
            "durationTicks": 23,
            "midi": 68,
            "name": "G#4",
            "ticks": 31152,
            "time": 162.25,
            "velocity": 0.7086614173228346
          },
          {
            "duration": 0.1302083333333428,
            "durationTicks": 25,
            "midi": 70,
            "name": "A#4",
            "ticks": 31176,
            "time": 162.375,
            "velocity": 0.7086614173228346
          },
          {
            "duration": 0.4739583333333428,
            "durationTicks": 91,
            "midi": 45,
            "name": "A2",
            "ticks": 31200,
            "time": 162.5,
            "velocity": 0.6771653543307087
          },
          {
            "duration": 0.1510416666666572,
            "durationTicks": 29,
            "midi": 66,
            "name": "F#4",
            "ticks": 31200,
            "time": 162.5,
            "velocity": 0.7480314960629921
          },
          {
            "duration": 0.125,
            "durationTicks": 24,
            "midi": 70,
            "name": "A#4",
            "ticks": 31224,
            "time": 162.625,
            "velocity": 0.4566929133858268
          },
          {
            "duration": 0.1354166666666572,
            "durationTicks": 26,
            "midi": 65,
            "name": "F4",
            "ticks": 31248,
            "time": 162.75,
            "velocity": 0.6692913385826772
          },
          {
            "duration": 0.125,
            "durationTicks": 24,
            "midi": 70,
            "name": "A#4",
            "ticks": 31272,
            "time": 162.875,
            "velocity": 0.4566929133858268
          },
          {
            "duration": 0.4739583333333428,
            "durationTicks": 91,
            "midi": 45,
            "name": "A2",
            "ticks": 31296,
            "time": 163,
            "velocity": 0.6771653543307087
          },
          {
            "duration": 0.125,
            "durationTicks": 24,
            "midi": 63,
            "name": "D#4",
            "ticks": 31296,
            "time": 163,
            "velocity": 0.7480314960629921
          },
          {
            "duration": 0.125,
            "durationTicks": 24,
            "midi": 70,
            "name": "A#4",
            "ticks": 31320,
            "time": 163.125,
            "velocity": 0.4566929133858268
          },
          {
            "duration": 0.1354166666666572,
            "durationTicks": 26,
            "midi": 65,
            "name": "F4",
            "ticks": 31344,
            "time": 163.25,
            "velocity": 0.6692913385826772
          },
          {
            "duration": 0.125,
            "durationTicks": 24,
            "midi": 70,
            "name": "A#4",
            "ticks": 31368,
            "time": 163.375,
            "velocity": 0.4566929133858268
          },
          {
            "duration": 0.3541666666666572,
            "durationTicks": 68,
            "midi": 45,
            "name": "A2",
            "ticks": 31392,
            "time": 163.5,
            "velocity": 0.6771653543307087
          },
          {
            "duration": 0.4479166666666572,
            "durationTicks": 86,
            "midi": 57,
            "name": "A3",
            "ticks": 31392,
            "time": 163.5,
            "velocity": 0.6299212598425197
          },
          {
            "duration": 1.8125,
            "durationTicks": 348,
            "midi": 51,
            "name": "D#3",
            "ticks": 31480,
            "time": 163.95833333333334,
            "velocity": 0.6929133858267716
          },
          {
            "duration": 0.484375,
            "durationTicks": 93,
            "midi": 44,
            "name": "G#2",
            "ticks": 31481,
            "time": 163.96354166666666,
            "velocity": 0.7165354330708661
          },
          {
            "duration": 1.7864583333333428,
            "durationTicks": 343,
            "midi": 56,
            "name": "G#3",
            "ticks": 31488,
            "time": 164,
            "velocity": 0.6220472440944882
          },
          {
            "duration": 0.140625,
            "durationTicks": 27,
            "midi": 70,
            "name": "A#4",
            "ticks": 31512,
            "time": 164.125,
            "velocity": 0.5118110236220472
          },
          {
            "duration": 0.125,
            "durationTicks": 24,
            "midi": 68,
            "name": "G#4",
            "ticks": 31536,
            "time": 164.25,
            "velocity": 0.7086614173228346
          },
          {
            "duration": 0.1302083333333428,
            "durationTicks": 25,
            "midi": 70,
            "name": "A#4",
            "ticks": 31560,
            "time": 164.375,
            "velocity": 0.7086614173228346
          },
          {
            "duration": 0.4739583333333428,
            "durationTicks": 91,
            "midi": 44,
            "name": "G#2",
            "ticks": 31584,
            "time": 164.5,
            "velocity": 0.6771653543307087
          },
          {
            "duration": 0.1510416666666572,
            "durationTicks": 29,
            "midi": 66,
            "name": "F#4",
            "ticks": 31584,
            "time": 164.5,
            "velocity": 0.7480314960629921
          },
          {
            "duration": 0.125,
            "durationTicks": 24,
            "midi": 70,
            "name": "A#4",
            "ticks": 31608,
            "time": 164.625,
            "velocity": 0.4566929133858268
          },
          {
            "duration": 0.1354166666666572,
            "durationTicks": 26,
            "midi": 65,
            "name": "F4",
            "ticks": 31632,
            "time": 164.75,
            "velocity": 0.6692913385826772
          },
          {
            "duration": 0.125,
            "durationTicks": 24,
            "midi": 70,
            "name": "A#4",
            "ticks": 31656,
            "time": 164.875,
            "velocity": 0.4566929133858268
          },
          {
            "duration": 0.4739583333333428,
            "durationTicks": 91,
            "midi": 44,
            "name": "G#2",
            "ticks": 31680,
            "time": 165,
            "velocity": 0.6771653543307087
          },
          {
            "duration": 0.1510416666666572,
            "durationTicks": 29,
            "midi": 64,
            "name": "E4",
            "ticks": 31680,
            "time": 165,
            "velocity": 0.7480314960629921
          },
          {
            "duration": 0.125,
            "durationTicks": 24,
            "midi": 70,
            "name": "A#4",
            "ticks": 31704,
            "time": 165.125,
            "velocity": 0.4566929133858268
          },
          {
            "duration": 0.1354166666666572,
            "durationTicks": 26,
            "midi": 65,
            "name": "F4",
            "ticks": 31728,
            "time": 165.25,
            "velocity": 0.6692913385826772
          },
          {
            "duration": 0.125,
            "durationTicks": 24,
            "midi": 70,
            "name": "A#4",
            "ticks": 31752,
            "time": 165.375,
            "velocity": 0.4566929133858268
          },
          {
            "duration": 0.3177083333333428,
            "durationTicks": 61,
            "midi": 44,
            "name": "G#2",
            "ticks": 31776,
            "time": 165.5,
            "velocity": 0.6771653543307087
          },
          {
            "duration": 0.1510416666666572,
            "durationTicks": 29,
            "midi": 61,
            "name": "C#4",
            "ticks": 31776,
            "time": 165.5,
            "velocity": 0.7480314960629921
          },
          {
            "duration": 0.125,
            "durationTicks": 24,
            "midi": 70,
            "name": "A#4",
            "ticks": 31800,
            "time": 165.625,
            "velocity": 0.4566929133858268
          },
          {
            "duration": 0.1302083333333428,
            "durationTicks": 25,
            "midi": 63,
            "name": "D#4",
            "ticks": 31824,
            "time": 165.75,
            "velocity": 0.6692913385826772
          },
          {
            "duration": 0.125,
            "durationTicks": 24,
            "midi": 70,
            "name": "A#4",
            "ticks": 31848,
            "time": 165.875,
            "velocity": 0.4566929133858268
          },
          {
            "duration": 0.4947916666666572,
            "durationTicks": 95,
            "midi": 43,
            "name": "G2",
            "ticks": 31863,
            "time": 165.953125,
            "velocity": 0.7165354330708661
          },
          {
            "duration": 1.765625,
            "durationTicks": 339,
            "midi": 51,
            "name": "D#3",
            "ticks": 31863,
            "time": 165.953125,
            "velocity": 0.7086614173228346
          },
          {
            "duration": 1.0364583333333428,
            "durationTicks": 199,
            "midi": 55,
            "name": "G3",
            "ticks": 31872,
            "time": 166,
            "velocity": 0.6062992125984252
          },
          {
            "duration": 0.1458333333333428,
            "durationTicks": 28,
            "midi": 70,
            "name": "A#4",
            "ticks": 31896,
            "time": 166.125,
            "velocity": 0.5118110236220472
          },
          {
            "duration": 0.125,
            "durationTicks": 24,
            "midi": 68,
            "name": "G#4",
            "ticks": 31920,
            "time": 166.25,
            "velocity": 0.7086614173228346
          },
          {
            "duration": 0.125,
            "durationTicks": 24,
            "midi": 70,
            "name": "A#4",
            "ticks": 31944,
            "time": 166.375,
            "velocity": 0.7086614173228346
          },
          {
            "duration": 0.4739583333333428,
            "durationTicks": 91,
            "midi": 43,
            "name": "G2",
            "ticks": 31968,
            "time": 166.5,
            "velocity": 0.6771653543307087
          },
          {
            "duration": 0.1510416666666572,
            "durationTicks": 29,
            "midi": 66,
            "name": "F#4",
            "ticks": 31968,
            "time": 166.5,
            "velocity": 0.7480314960629921
          },
          {
            "duration": 0.125,
            "durationTicks": 24,
            "midi": 70,
            "name": "A#4",
            "ticks": 31992,
            "time": 166.625,
            "velocity": 0.4566929133858268
          },
          {
            "duration": 0.1302083333333428,
            "durationTicks": 25,
            "midi": 65,
            "name": "F4",
            "ticks": 32016,
            "time": 166.75,
            "velocity": 0.6692913385826772
          },
          {
            "duration": 0.125,
            "durationTicks": 24,
            "midi": 70,
            "name": "A#4",
            "ticks": 32040,
            "time": 166.875,
            "velocity": 0.4566929133858268
          },
          {
            "duration": 0.4739583333333428,
            "durationTicks": 91,
            "midi": 43,
            "name": "G2",
            "ticks": 32064,
            "time": 167,
            "velocity": 0.6771653543307087
          },
          {
            "duration": 0.203125,
            "durationTicks": 39,
            "midi": 63,
            "name": "D#4",
            "ticks": 32064,
            "time": 167,
            "velocity": 0.7480314960629921
          },
          {
            "duration": 0.125,
            "durationTicks": 24,
            "midi": 70,
            "name": "A#4",
            "ticks": 32088,
            "time": 167.125,
            "velocity": 0.4566929133858268
          },
          {
            "duration": 0.1302083333333428,
            "durationTicks": 25,
            "midi": 65,
            "name": "F4",
            "ticks": 32112,
            "time": 167.25,
            "velocity": 0.6692913385826772
          },
          {
            "duration": 0.125,
            "durationTicks": 24,
            "midi": 70,
            "name": "A#4",
            "ticks": 32136,
            "time": 167.375,
            "velocity": 0.4566929133858268
          },
          {
            "duration": 0.3541666666666572,
            "durationTicks": 68,
            "midi": 43,
            "name": "G2",
            "ticks": 32160,
            "time": 167.5,
            "velocity": 0.6771653543307087
          },
          {
            "duration": 0.4322916666666572,
            "durationTicks": 83,
            "midi": 55,
            "name": "G3",
            "ticks": 32160,
            "time": 167.5,
            "velocity": 0.5905511811023622
          },
          {
            "duration": 1.7447916666666572,
            "durationTicks": 335,
            "midi": 49,
            "name": "C#3",
            "ticks": 32253,
            "time": 167.984375,
            "velocity": 0.7086614173228346
          },
          {
            "duration": 0.7083333333333144,
            "durationTicks": 136,
            "midi": 42,
            "name": "F#2",
            "ticks": 32254,
            "time": 167.98958333333334,
            "velocity": 0.7165354330708661
          },
          {
            "duration": 1.6875,
            "durationTicks": 324,
            "midi": 54,
            "name": "F#3",
            "ticks": 32254,
            "time": 167.98958333333334,
            "velocity": 0.6692913385826772
          },
          {
            "duration": 0.15625,
            "durationTicks": 30,
            "midi": 65,
            "name": "F4",
            "ticks": 32280,
            "time": 168.125,
            "velocity": 0.6535433070866141
          },
          {
            "duration": 0.1666666666666572,
            "durationTicks": 32,
            "midi": 66,
            "name": "F#4",
            "ticks": 32304,
            "time": 168.25,
            "velocity": 0.6771653543307087
          },
          {
            "duration": 0.2135416666666572,
            "durationTicks": 41,
            "midi": 68,
            "name": "G#4",
            "ticks": 32328,
            "time": 168.375,
            "velocity": 0.7165354330708661
          },
          {
            "duration": 0.3958333333333428,
            "durationTicks": 76,
            "midi": 70,
            "name": "A#4",
            "ticks": 32352,
            "time": 168.5,
            "velocity": 0.7244094488188977
          },
          {
            "duration": 0.7239583333333428,
            "durationTicks": 139,
            "midi": 42,
            "name": "F#2",
            "ticks": 32400,
            "time": 168.75,
            "velocity": 0.6771653543307087
          },
          {
            "duration": 0.1354166666666572,
            "durationTicks": 26,
            "midi": 65,
            "name": "F4",
            "ticks": 32424,
            "time": 168.875,
            "velocity": 0.6456692913385826
          },
          {
            "duration": 0.171875,
            "durationTicks": 33,
            "midi": 66,
            "name": "F#4",
            "ticks": 32448,
            "time": 169,
            "velocity": 0.6692913385826772
          },
          {
            "duration": 0.2395833333333428,
            "durationTicks": 46,
            "midi": 72,
            "name": "C5",
            "ticks": 32472,
            "time": 169.125,
            "velocity": 0.7086614173228346
          },
          {
            "duration": 0.5052083333333428,
            "durationTicks": 97,
            "midi": 70,
            "name": "A#4",
            "ticks": 32496,
            "time": 169.25,
            "velocity": 0.7480314960629921
          },
          {
            "duration": 0.25,
            "durationTicks": 48,
            "midi": 42,
            "name": "F#2",
            "ticks": 32544,
            "time": 169.5,
            "velocity": 0.7244094488188977
          },
          {
            "duration": 0.2395833333333428,
            "durationTicks": 46,
            "midi": 65,
            "name": "F4",
            "ticks": 32592,
            "time": 169.75,
            "velocity": 0.6299212598425197
          },
          {
            "duration": 0.7552083333333428,
            "durationTicks": 145,
            "midi": 41,
            "name": "F2",
            "ticks": 32636,
            "time": 169.97916666666666,
            "velocity": 0.5905511811023622
          },
          {
            "duration": 1.8072916666666856,
            "durationTicks": 347,
            "midi": 48,
            "name": "C3",
            "ticks": 32636,
            "time": 169.97916666666666,
            "velocity": 0.5511811023622047
          },
          {
            "duration": 1.8802083333333428,
            "durationTicks": 361,
            "midi": 53,
            "name": "F3",
            "ticks": 32640,
            "time": 170,
            "velocity": 0.6692913385826772
          },
          {
            "duration": 0.15625,
            "durationTicks": 30,
            "midi": 65,
            "name": "F4",
            "ticks": 32664,
            "time": 170.125,
            "velocity": 0.6535433070866141
          },
          {
            "duration": 0.1666666666666572,
            "durationTicks": 32,
            "midi": 66,
            "name": "F#4",
            "ticks": 32688,
            "time": 170.25,
            "velocity": 0.6377952755905512
          },
          {
            "duration": 0.2135416666666572,
            "durationTicks": 41,
            "midi": 68,
            "name": "G#4",
            "ticks": 32712,
            "time": 170.375,
            "velocity": 0.7165354330708661
          },
          {
            "duration": 0.2916666666666572,
            "durationTicks": 56,
            "midi": 70,
            "name": "A#4",
            "ticks": 32736,
            "time": 170.5,
            "velocity": 0.7244094488188977
          },
          {
            "duration": 1.0208333333333428,
            "durationTicks": 196,
            "midi": 41,
            "name": "F2",
            "ticks": 32784,
            "time": 170.75,
            "velocity": 0.4881889763779528
          },
          {
            "duration": 0.171875,
            "durationTicks": 33,
            "midi": 70,
            "name": "A#4",
            "ticks": 32808,
            "time": 170.875,
            "velocity": 0.5669291338582677
          },
          {
            "duration": 0.125,
            "durationTicks": 24,
            "midi": 65,
            "name": "F4",
            "ticks": 32832,
            "time": 171,
            "velocity": 0.6299212598425197
          },
          {
            "duration": 0.1822916666666572,
            "durationTicks": 35,
            "midi": 68,
            "name": "G#4",
            "ticks": 32856,
            "time": 171.125,
            "velocity": 0.7322834645669292
          },
          {
            "duration": 0.125,
            "durationTicks": 24,
            "midi": 65,
            "name": "F4",
            "ticks": 32880,
            "time": 171.25,
            "velocity": 0.6850393700787402
          },
          {
            "duration": 0.125,
            "durationTicks": 24,
            "midi": 66,
            "name": "F#4",
            "ticks": 32904,
            "time": 171.375,
            "velocity": 0.6456692913385826
          },
          {
            "duration": 0.125,
            "durationTicks": 24,
            "midi": 65,
            "name": "F4",
            "ticks": 32928,
            "time": 171.5,
            "velocity": 0.6456692913385826
          },
          {
            "duration": 0.125,
            "durationTicks": 24,
            "midi": 61,
            "name": "C#4",
            "ticks": 32952,
            "time": 171.625,
            "velocity": 0.6456692913385826
          },
          {
            "duration": 0.125,
            "durationTicks": 24,
            "midi": 63,
            "name": "D#4",
            "ticks": 32976,
            "time": 171.75,
            "velocity": 0.6535433070866141
          },
          {
            "duration": 0.125,
            "durationTicks": 24,
            "midi": 65,
            "name": "F4",
            "ticks": 33000,
            "time": 171.875,
            "velocity": 0.6929133858267716
          },
          {
            "duration": 1.8541666666666572,
            "durationTicks": 356,
            "midi": 48,
            "name": "C3",
            "ticks": 33015,
            "time": 171.953125,
            "velocity": 0.7559055118110236
          },
          {
            "duration": 0.6458333333333428,
            "durationTicks": 124,
            "midi": 40,
            "name": "E2",
            "ticks": 33020,
            "time": 171.97916666666666,
            "velocity": 0.7165354330708661
          },
          {
            "duration": 1.875,
            "durationTicks": 360,
            "midi": 52,
            "name": "E3",
            "ticks": 33024,
            "time": 172,
            "velocity": 0.49606299212598426
          },
          {
            "duration": 0.15625,
            "durationTicks": 30,
            "midi": 65,
            "name": "F4",
            "ticks": 33048,
            "time": 172.125,
            "velocity": 0.6535433070866141
          },
          {
            "duration": 0.1666666666666572,
            "durationTicks": 32,
            "midi": 66,
            "name": "F#4",
            "ticks": 33072,
            "time": 172.25,
            "velocity": 0.6692913385826772
          },
          {
            "duration": 0.2135416666666572,
            "durationTicks": 41,
            "midi": 68,
            "name": "G#4",
            "ticks": 33096,
            "time": 172.375,
            "velocity": 0.7165354330708661
          },
          {
            "duration": 0.390625,
            "durationTicks": 75,
            "midi": 70,
            "name": "A#4",
            "ticks": 33120,
            "time": 172.5,
            "velocity": 0.7244094488188977
          },
          {
            "duration": 0.7239583333333428,
            "durationTicks": 139,
            "midi": 40,
            "name": "E2",
            "ticks": 33168,
            "time": 172.75,
            "velocity": 0.7559055118110236
          },
          {
            "duration": 0.1354166666666572,
            "durationTicks": 26,
            "midi": 65,
            "name": "F4",
            "ticks": 33192,
            "time": 172.875,
            "velocity": 0.5984251968503937
          },
          {
            "duration": 0.171875,
            "durationTicks": 33,
            "midi": 66,
            "name": "F#4",
            "ticks": 33216,
            "time": 173,
            "velocity": 0.6377952755905512
          },
          {
            "duration": 0.140625,
            "durationTicks": 27,
            "midi": 72,
            "name": "C5",
            "ticks": 33240,
            "time": 173.125,
            "velocity": 0.7086614173228346
          },
          {
            "duration": 0.3802083333333428,
            "durationTicks": 73,
            "midi": 70,
            "name": "A#4",
            "ticks": 33264,
            "time": 173.25,
            "velocity": 0.7480314960629921
          },
          {
            "duration": 0.25,
            "durationTicks": 48,
            "midi": 40,
            "name": "E2",
            "ticks": 33312,
            "time": 173.5,
            "velocity": 0.7401574803149606
          },
          {
            "duration": 0.1614583333333428,
            "durationTicks": 31,
            "midi": 65,
            "name": "F4",
            "ticks": 33360,
            "time": 173.75,
            "velocity": 0.6614173228346457
          },
          {
            "duration": 0.7552083333333428,
            "durationTicks": 145,
            "midi": 41,
            "name": "F2",
            "ticks": 33404,
            "time": 173.97916666666666,
            "velocity": 0.5905511811023622
          },
          {
            "duration": 1.8177083333333428,
            "durationTicks": 349,
            "midi": 48,
            "name": "C3",
            "ticks": 33407,
            "time": 173.99479166666666,
            "velocity": 0.6535433070866141
          },
          {
            "duration": 1.875,
            "durationTicks": 360,
            "midi": 53,
            "name": "F3",
            "ticks": 33408,
            "time": 174,
            "velocity": 0.6929133858267716
          },
          {
            "duration": 0.125,
            "durationTicks": 24,
            "midi": 70,
            "name": "A#4",
            "ticks": 33432,
            "time": 174.125,
            "velocity": 0.7322834645669292
          },
          {
            "duration": 0.125,
            "durationTicks": 24,
            "midi": 68,
            "name": "G#4",
            "ticks": 33480,
            "time": 174.375,
            "velocity": 0.6692913385826772
          },
          {
            "duration": 0.125,
            "durationTicks": 24,
            "midi": 66,
            "name": "F#4",
            "ticks": 33528,
            "time": 174.625,
            "velocity": 0.7007874015748031
          },
          {
            "duration": 1.0208333333333428,
            "durationTicks": 196,
            "midi": 41,
            "name": "F2",
            "ticks": 33552,
            "time": 174.75,
            "velocity": 0.5433070866141733
          },
          {
            "duration": 0.125,
            "durationTicks": 24,
            "midi": 65,
            "name": "F4",
            "ticks": 33576,
            "time": 174.875,
            "velocity": 0.6850393700787402
          },
          {
            "duration": 0.125,
            "durationTicks": 24,
            "midi": 63,
            "name": "D#4",
            "ticks": 33624,
            "time": 175.125,
            "velocity": 0.6929133858267716
          },
          {
            "duration": 0.125,
            "durationTicks": 24,
            "midi": 61,
            "name": "C#4",
            "ticks": 33672,
            "time": 175.375,
            "velocity": 0.6614173228346457
          },
          {
            "duration": 0.1770833333333428,
            "durationTicks": 34,
            "midi": 63,
            "name": "D#4",
            "ticks": 33720,
            "time": 175.625,
            "velocity": 0.6771653543307087
          },
          {
            "duration": 0.10416666666665719,
            "durationTicks": 20,
            "midi": 65,
            "name": "F4",
            "ticks": 33768,
            "time": 175.875,
            "velocity": 0.6771653543307087
          },
          {
            "duration": 0.4895833333333144,
            "durationTicks": 94,
            "midi": 46,
            "name": "A#2",
            "ticks": 33784,
            "time": 175.95833333333334,
            "velocity": 0.7165354330708661
          },
          {
            "duration": 1.921875,
            "durationTicks": 369,
            "midi": 53,
            "name": "F3",
            "ticks": 33792,
            "time": 176,
            "velocity": 0.7559055118110236
          },
          {
            "duration": 1.8385416666666856,
            "durationTicks": 353,
            "midi": 58,
            "name": "A#3",
            "ticks": 33797,
            "time": 176.02604166666666,
            "velocity": 0.5905511811023622
          },
          {
            "duration": 0.1510416666666572,
            "durationTicks": 29,
            "midi": 70,
            "name": "A#4",
            "ticks": 33816,
            "time": 176.125,
            "velocity": 0.5118110236220472
          },
          {
            "duration": 0.125,
            "durationTicks": 24,
            "midi": 68,
            "name": "G#4",
            "ticks": 33840,
            "time": 176.25,
            "velocity": 0.7086614173228346
          },
          {
            "duration": 0.125,
            "durationTicks": 24,
            "midi": 70,
            "name": "A#4",
            "ticks": 33864,
            "time": 176.375,
            "velocity": 0.7086614173228346
          },
          {
            "duration": 0.4739583333333428,
            "durationTicks": 91,
            "midi": 46,
            "name": "A#2",
            "ticks": 33888,
            "time": 176.5,
            "velocity": 0.6771653543307087
          },
          {
            "duration": 0.1510416666666572,
            "durationTicks": 29,
            "midi": 66,
            "name": "F#4",
            "ticks": 33888,
            "time": 176.5,
            "velocity": 0.7480314960629921
          },
          {
            "duration": 0.125,
            "durationTicks": 24,
            "midi": 70,
            "name": "A#4",
            "ticks": 33912,
            "time": 176.625,
            "velocity": 0.4566929133858268
          },
          {
            "duration": 0.1302083333333428,
            "durationTicks": 25,
            "midi": 65,
            "name": "F4",
            "ticks": 33936,
            "time": 176.75,
            "velocity": 0.6692913385826772
          },
          {
            "duration": 0.125,
            "durationTicks": 24,
            "midi": 70,
            "name": "A#4",
            "ticks": 33960,
            "time": 176.875,
            "velocity": 0.4566929133858268
          },
          {
            "duration": 0.4739583333333428,
            "durationTicks": 91,
            "midi": 46,
            "name": "A#2",
            "ticks": 33984,
            "time": 177,
            "velocity": 0.6771653543307087
          },
          {
            "duration": 0.1510416666666572,
            "durationTicks": 29,
            "midi": 64,
            "name": "E4",
            "ticks": 33984,
            "time": 177,
            "velocity": 0.7480314960629921
          },
          {
            "duration": 0.125,
            "durationTicks": 24,
            "midi": 70,
            "name": "A#4",
            "ticks": 34008,
            "time": 177.125,
            "velocity": 0.4566929133858268
          },
          {
            "duration": 0.1302083333333428,
            "durationTicks": 25,
            "midi": 65,
            "name": "F4",
            "ticks": 34032,
            "time": 177.25,
            "velocity": 0.6692913385826772
          },
          {
            "duration": 0.125,
            "durationTicks": 24,
            "midi": 70,
            "name": "A#4",
            "ticks": 34056,
            "time": 177.375,
            "velocity": 0.4566929133858268
          },
          {
            "duration": 0.2708333333333428,
            "durationTicks": 52,
            "midi": 46,
            "name": "A#2",
            "ticks": 34080,
            "time": 177.5,
            "velocity": 0.6771653543307087
          },
          {
            "duration": 0.1510416666666572,
            "durationTicks": 29,
            "midi": 61,
            "name": "C#4",
            "ticks": 34080,
            "time": 177.5,
            "velocity": 0.7480314960629921
          },
          {
            "duration": 0.125,
            "durationTicks": 24,
            "midi": 70,
            "name": "A#4",
            "ticks": 34104,
            "time": 177.625,
            "velocity": 0.4566929133858268
          },
          {
            "duration": 0.1822916666666572,
            "durationTicks": 35,
            "midi": 63,
            "name": "D#4",
            "ticks": 34128,
            "time": 177.75,
            "velocity": 0.6692913385826772
          },
          {
            "duration": 0.125,
            "durationTicks": 24,
            "midi": 70,
            "name": "A#4",
            "ticks": 34152,
            "time": 177.875,
            "velocity": 0.4566929133858268
          },
          {
            "duration": 0.5104166666666572,
            "durationTicks": 98,
            "midi": 45,
            "name": "A2",
            "ticks": 34164,
            "time": 177.9375,
            "velocity": 0.7165354330708661
          },
          {
            "duration": 1.8229166666666856,
            "durationTicks": 350,
            "midi": 53,
            "name": "F3",
            "ticks": 34172,
            "time": 177.97916666666666,
            "velocity": 0.7165354330708661
          },
          {
            "duration": 1.3489583333333428,
            "durationTicks": 259,
            "midi": 57,
            "name": "A3",
            "ticks": 34176,
            "time": 178,
            "velocity": 0.7559055118110236
          },
          {
            "duration": 0.140625,
            "durationTicks": 27,
            "midi": 70,
            "name": "A#4",
            "ticks": 34200,
            "time": 178.125,
            "velocity": 0.5118110236220472
          },
          {
            "duration": 0.11979166666665719,
            "durationTicks": 23,
            "midi": 68,
            "name": "G#4",
            "ticks": 34224,
            "time": 178.25,
            "velocity": 0.7086614173228346
          },
          {
            "duration": 0.1302083333333428,
            "durationTicks": 25,
            "midi": 70,
            "name": "A#4",
            "ticks": 34248,
            "time": 178.375,
            "velocity": 0.7086614173228346
          },
          {
            "duration": 0.4739583333333428,
            "durationTicks": 91,
            "midi": 45,
            "name": "A2",
            "ticks": 34272,
            "time": 178.5,
            "velocity": 0.6771653543307087
          },
          {
            "duration": 0.1510416666666572,
            "durationTicks": 29,
            "midi": 66,
            "name": "F#4",
            "ticks": 34272,
            "time": 178.5,
            "velocity": 0.7480314960629921
          },
          {
            "duration": 0.125,
            "durationTicks": 24,
            "midi": 70,
            "name": "A#4",
            "ticks": 34296,
            "time": 178.625,
            "velocity": 0.4566929133858268
          },
          {
            "duration": 0.1354166666666572,
            "durationTicks": 26,
            "midi": 65,
            "name": "F4",
            "ticks": 34320,
            "time": 178.75,
            "velocity": 0.6692913385826772
          },
          {
            "duration": 0.125,
            "durationTicks": 24,
            "midi": 70,
            "name": "A#4",
            "ticks": 34344,
            "time": 178.875,
            "velocity": 0.4566929133858268
          },
          {
            "duration": 0.4739583333333428,
            "durationTicks": 91,
            "midi": 45,
            "name": "A2",
            "ticks": 34368,
            "time": 179,
            "velocity": 0.6771653543307087
          },
          {
            "duration": 0.125,
            "durationTicks": 24,
            "midi": 63,
            "name": "D#4",
            "ticks": 34368,
            "time": 179,
            "velocity": 0.7480314960629921
          },
          {
            "duration": 0.125,
            "durationTicks": 24,
            "midi": 70,
            "name": "A#4",
            "ticks": 34392,
            "time": 179.125,
            "velocity": 0.4566929133858268
          },
          {
            "duration": 0.1354166666666572,
            "durationTicks": 26,
            "midi": 65,
            "name": "F4",
            "ticks": 34416,
            "time": 179.25,
            "velocity": 0.6692913385826772
          },
          {
            "duration": 0.125,
            "durationTicks": 24,
            "midi": 70,
            "name": "A#4",
            "ticks": 34440,
            "time": 179.375,
            "velocity": 0.4566929133858268
          },
          {
            "duration": 0.3541666666666572,
            "durationTicks": 68,
            "midi": 45,
            "name": "A2",
            "ticks": 34464,
            "time": 179.5,
            "velocity": 0.6771653543307087
          },
          {
            "duration": 0.4479166666666572,
            "durationTicks": 86,
            "midi": 57,
            "name": "A3",
            "ticks": 34464,
            "time": 179.5,
            "velocity": 0.6299212598425197
          },
          {
            "duration": 1.8125,
            "durationTicks": 348,
            "midi": 51,
            "name": "D#3",
            "ticks": 34552,
            "time": 179.95833333333334,
            "velocity": 0.6929133858267716
          },
          {
            "duration": 0.484375,
            "durationTicks": 93,
            "midi": 44,
            "name": "G#2",
            "ticks": 34553,
            "time": 179.96354166666666,
            "velocity": 0.7165354330708661
          },
          {
            "duration": 1.7864583333333428,
            "durationTicks": 343,
            "midi": 56,
            "name": "G#3",
            "ticks": 34560,
            "time": 180,
            "velocity": 0.6220472440944882
          },
          {
            "duration": 0.140625,
            "durationTicks": 27,
            "midi": 70,
            "name": "A#4",
            "ticks": 34584,
            "time": 180.125,
            "velocity": 0.5118110236220472
          },
          {
            "duration": 0.125,
            "durationTicks": 24,
            "midi": 68,
            "name": "G#4",
            "ticks": 34608,
            "time": 180.25,
            "velocity": 0.7086614173228346
          },
          {
            "duration": 0.1302083333333428,
            "durationTicks": 25,
            "midi": 70,
            "name": "A#4",
            "ticks": 34632,
            "time": 180.375,
            "velocity": 0.7086614173228346
          },
          {
            "duration": 0.4739583333333428,
            "durationTicks": 91,
            "midi": 44,
            "name": "G#2",
            "ticks": 34656,
            "time": 180.5,
            "velocity": 0.6771653543307087
          },
          {
            "duration": 0.1510416666666572,
            "durationTicks": 29,
            "midi": 66,
            "name": "F#4",
            "ticks": 34656,
            "time": 180.5,
            "velocity": 0.7480314960629921
          },
          {
            "duration": 0.125,
            "durationTicks": 24,
            "midi": 70,
            "name": "A#4",
            "ticks": 34680,
            "time": 180.625,
            "velocity": 0.4566929133858268
          },
          {
            "duration": 0.1354166666666572,
            "durationTicks": 26,
            "midi": 65,
            "name": "F4",
            "ticks": 34704,
            "time": 180.75,
            "velocity": 0.6692913385826772
          },
          {
            "duration": 0.125,
            "durationTicks": 24,
            "midi": 70,
            "name": "A#4",
            "ticks": 34728,
            "time": 180.875,
            "velocity": 0.4566929133858268
          },
          {
            "duration": 0.4739583333333428,
            "durationTicks": 91,
            "midi": 44,
            "name": "G#2",
            "ticks": 34752,
            "time": 181,
            "velocity": 0.6771653543307087
          },
          {
            "duration": 0.1510416666666572,
            "durationTicks": 29,
            "midi": 64,
            "name": "E4",
            "ticks": 34752,
            "time": 181,
            "velocity": 0.7480314960629921
          },
          {
            "duration": 0.125,
            "durationTicks": 24,
            "midi": 70,
            "name": "A#4",
            "ticks": 34776,
            "time": 181.125,
            "velocity": 0.4566929133858268
          },
          {
            "duration": 0.1354166666666572,
            "durationTicks": 26,
            "midi": 65,
            "name": "F4",
            "ticks": 34800,
            "time": 181.25,
            "velocity": 0.6692913385826772
          },
          {
            "duration": 0.125,
            "durationTicks": 24,
            "midi": 70,
            "name": "A#4",
            "ticks": 34824,
            "time": 181.375,
            "velocity": 0.4566929133858268
          },
          {
            "duration": 0.3177083333333428,
            "durationTicks": 61,
            "midi": 44,
            "name": "G#2",
            "ticks": 34848,
            "time": 181.5,
            "velocity": 0.6771653543307087
          },
          {
            "duration": 0.1510416666666572,
            "durationTicks": 29,
            "midi": 61,
            "name": "C#4",
            "ticks": 34848,
            "time": 181.5,
            "velocity": 0.7480314960629921
          },
          {
            "duration": 0.125,
            "durationTicks": 24,
            "midi": 70,
            "name": "A#4",
            "ticks": 34872,
            "time": 181.625,
            "velocity": 0.4566929133858268
          },
          {
            "duration": 0.1302083333333428,
            "durationTicks": 25,
            "midi": 63,
            "name": "D#4",
            "ticks": 34896,
            "time": 181.75,
            "velocity": 0.6692913385826772
          },
          {
            "duration": 0.125,
            "durationTicks": 24,
            "midi": 70,
            "name": "A#4",
            "ticks": 34920,
            "time": 181.875,
            "velocity": 0.4566929133858268
          },
          {
            "duration": 0.4947916666666572,
            "durationTicks": 95,
            "midi": 43,
            "name": "G2",
            "ticks": 34935,
            "time": 181.953125,
            "velocity": 0.7165354330708661
          },
          {
            "duration": 1.765625,
            "durationTicks": 339,
            "midi": 51,
            "name": "D#3",
            "ticks": 34935,
            "time": 181.953125,
            "velocity": 0.7086614173228346
          },
          {
            "duration": 1.0364583333333428,
            "durationTicks": 199,
            "midi": 55,
            "name": "G3",
            "ticks": 34944,
            "time": 182,
            "velocity": 0.6062992125984252
          },
          {
            "duration": 0.1458333333333428,
            "durationTicks": 28,
            "midi": 70,
            "name": "A#4",
            "ticks": 34968,
            "time": 182.125,
            "velocity": 0.5118110236220472
          },
          {
            "duration": 0.125,
            "durationTicks": 24,
            "midi": 68,
            "name": "G#4",
            "ticks": 34992,
            "time": 182.25,
            "velocity": 0.7086614173228346
          },
          {
            "duration": 0.125,
            "durationTicks": 24,
            "midi": 70,
            "name": "A#4",
            "ticks": 35016,
            "time": 182.375,
            "velocity": 0.7086614173228346
          },
          {
            "duration": 0.4739583333333428,
            "durationTicks": 91,
            "midi": 43,
            "name": "G2",
            "ticks": 35040,
            "time": 182.5,
            "velocity": 0.6771653543307087
          },
          {
            "duration": 0.1510416666666572,
            "durationTicks": 29,
            "midi": 66,
            "name": "F#4",
            "ticks": 35040,
            "time": 182.5,
            "velocity": 0.7480314960629921
          },
          {
            "duration": 0.125,
            "durationTicks": 24,
            "midi": 70,
            "name": "A#4",
            "ticks": 35064,
            "time": 182.625,
            "velocity": 0.4566929133858268
          },
          {
            "duration": 0.1302083333333428,
            "durationTicks": 25,
            "midi": 65,
            "name": "F4",
            "ticks": 35088,
            "time": 182.75,
            "velocity": 0.6692913385826772
          },
          {
            "duration": 0.125,
            "durationTicks": 24,
            "midi": 70,
            "name": "A#4",
            "ticks": 35112,
            "time": 182.875,
            "velocity": 0.4566929133858268
          },
          {
            "duration": 0.4739583333333428,
            "durationTicks": 91,
            "midi": 43,
            "name": "G2",
            "ticks": 35136,
            "time": 183,
            "velocity": 0.6771653543307087
          },
          {
            "duration": 0.203125,
            "durationTicks": 39,
            "midi": 63,
            "name": "D#4",
            "ticks": 35136,
            "time": 183,
            "velocity": 0.7480314960629921
          },
          {
            "duration": 0.125,
            "durationTicks": 24,
            "midi": 70,
            "name": "A#4",
            "ticks": 35160,
            "time": 183.125,
            "velocity": 0.4566929133858268
          },
          {
            "duration": 0.1302083333333428,
            "durationTicks": 25,
            "midi": 65,
            "name": "F4",
            "ticks": 35184,
            "time": 183.25,
            "velocity": 0.6692913385826772
          },
          {
            "duration": 0.125,
            "durationTicks": 24,
            "midi": 70,
            "name": "A#4",
            "ticks": 35208,
            "time": 183.375,
            "velocity": 0.4566929133858268
          },
          {
            "duration": 0.3541666666666572,
            "durationTicks": 68,
            "midi": 43,
            "name": "G2",
            "ticks": 35232,
            "time": 183.5,
            "velocity": 0.6771653543307087
          },
          {
            "duration": 0.4322916666666572,
            "durationTicks": 83,
            "midi": 55,
            "name": "G3",
            "ticks": 35232,
            "time": 183.5,
            "velocity": 0.5905511811023622
          },
          {
            "duration": 0.4947916666666572,
            "durationTicks": 95,
            "midi": 42,
            "name": "F#2",
            "ticks": 35319,
            "time": 183.953125,
            "velocity": 0.7165354330708661
          },
          {
            "duration": 1.7447916666666572,
            "durationTicks": 335,
            "midi": 49,
            "name": "C#3",
            "ticks": 35325,
            "time": 183.984375,
            "velocity": 0.7086614173228346
          },
          {
            "duration": 1.6875,
            "durationTicks": 324,
            "midi": 54,
            "name": "F#3",
            "ticks": 35326,
            "time": 183.98958333333334,
            "velocity": 0.6692913385826772
          },
          {
            "duration": 0.15625,
            "durationTicks": 30,
            "midi": 65,
            "name": "F4",
            "ticks": 35352,
            "time": 184.125,
            "velocity": 0.6535433070866141
          },
          {
            "duration": 0.1666666666666572,
            "durationTicks": 32,
            "midi": 66,
            "name": "F#4",
            "ticks": 35376,
            "time": 184.25,
            "velocity": 0.6771653543307087
          },
          {
            "duration": 0.2135416666666572,
            "durationTicks": 41,
            "midi": 68,
            "name": "G#4",
            "ticks": 35400,
            "time": 184.375,
            "velocity": 0.7165354330708661
          },
          {
            "duration": 0.4739583333333428,
            "durationTicks": 91,
            "midi": 42,
            "name": "F#2",
            "ticks": 35424,
            "time": 184.5,
            "velocity": 0.6771653543307087
          },
          {
            "duration": 0.3958333333333428,
            "durationTicks": 76,
            "midi": 70,
            "name": "A#4",
            "ticks": 35424,
            "time": 184.5,
            "velocity": 0.7244094488188977
          },
          {
            "duration": 0.1354166666666572,
            "durationTicks": 26,
            "midi": 65,
            "name": "F4",
            "ticks": 35496,
            "time": 184.875,
            "velocity": 0.6456692913385826
          },
          {
            "duration": 0.4739583333333428,
            "durationTicks": 91,
            "midi": 42,
            "name": "F#2",
            "ticks": 35520,
            "time": 185,
            "velocity": 0.6771653543307087
          },
          {
            "duration": 0.171875,
            "durationTicks": 33,
            "midi": 66,
            "name": "F#4",
            "ticks": 35520,
            "time": 185,
            "velocity": 0.6692913385826772
          },
          {
            "duration": 0.2395833333333428,
            "durationTicks": 46,
            "midi": 72,
            "name": "C5",
            "ticks": 35544,
            "time": 185.125,
            "velocity": 0.7086614173228346
          },
          {
            "duration": 0.5052083333333428,
            "durationTicks": 97,
            "midi": 70,
            "name": "A#4",
            "ticks": 35568,
            "time": 185.25,
            "velocity": 0.7480314960629921
          },
          {
            "duration": 0.3541666666666572,
            "durationTicks": 68,
            "midi": 42,
            "name": "F#2",
            "ticks": 35616,
            "time": 185.5,
            "velocity": 0.6771653543307087
          },
          {
            "duration": 0.2395833333333428,
            "durationTicks": 46,
            "midi": 65,
            "name": "F4",
            "ticks": 35664,
            "time": 185.75,
            "velocity": 0.6299212598425197
          },
          {
            "duration": 0.4947916666666572,
            "durationTicks": 95,
            "midi": 41,
            "name": "F2",
            "ticks": 35703,
            "time": 185.953125,
            "velocity": 0.7165354330708661
          },
          {
            "duration": 1.8072916666666856,
            "durationTicks": 347,
            "midi": 48,
            "name": "C3",
            "ticks": 35708,
            "time": 185.97916666666666,
            "velocity": 0.5511811023622047
          },
          {
            "duration": 1.8802083333333428,
            "durationTicks": 361,
            "midi": 53,
            "name": "F3",
            "ticks": 35712,
            "time": 186,
            "velocity": 0.6692913385826772
          },
          {
            "duration": 0.15625,
            "durationTicks": 30,
            "midi": 65,
            "name": "F4",
            "ticks": 35736,
            "time": 186.125,
            "velocity": 0.6535433070866141
          },
          {
            "duration": 0.1666666666666572,
            "durationTicks": 32,
            "midi": 66,
            "name": "F#4",
            "ticks": 35760,
            "time": 186.25,
            "velocity": 0.6377952755905512
          },
          {
            "duration": 0.2135416666666572,
            "durationTicks": 41,
            "midi": 68,
            "name": "G#4",
            "ticks": 35784,
            "time": 186.375,
            "velocity": 0.7165354330708661
          },
          {
            "duration": 0.4739583333333428,
            "durationTicks": 91,
            "midi": 41,
            "name": "F2",
            "ticks": 35808,
            "time": 186.5,
            "velocity": 0.6771653543307087
          },
          {
            "duration": 0.2916666666666572,
            "durationTicks": 56,
            "midi": 70,
            "name": "A#4",
            "ticks": 35808,
            "time": 186.5,
            "velocity": 0.7244094488188977
          },
          {
            "duration": 0.171875,
            "durationTicks": 33,
            "midi": 70,
            "name": "A#4",
            "ticks": 35880,
            "time": 186.875,
            "velocity": 0.5669291338582677
          },
          {
            "duration": 0.4739583333333428,
            "durationTicks": 91,
            "midi": 41,
            "name": "F2",
            "ticks": 35904,
            "time": 187,
            "velocity": 0.6771653543307087
          },
          {
            "duration": 0.125,
            "durationTicks": 24,
            "midi": 65,
            "name": "F4",
            "ticks": 35904,
            "time": 187,
            "velocity": 0.6299212598425197
          },
          {
            "duration": 0.1822916666666572,
            "durationTicks": 35,
            "midi": 68,
            "name": "G#4",
            "ticks": 35928,
            "time": 187.125,
            "velocity": 0.7322834645669292
          },
          {
            "duration": 0.125,
            "durationTicks": 24,
            "midi": 65,
            "name": "F4",
            "ticks": 35952,
            "time": 187.25,
            "velocity": 0.6850393700787402
          },
          {
            "duration": 0.125,
            "durationTicks": 24,
            "midi": 66,
            "name": "F#4",
            "ticks": 35976,
            "time": 187.375,
            "velocity": 0.6456692913385826
          },
          {
            "duration": 0.3541666666666572,
            "durationTicks": 68,
            "midi": 41,
            "name": "F2",
            "ticks": 36000,
            "time": 187.5,
            "velocity": 0.6771653543307087
          },
          {
            "duration": 0.125,
            "durationTicks": 24,
            "midi": 65,
            "name": "F4",
            "ticks": 36000,
            "time": 187.5,
            "velocity": 0.6456692913385826
          },
          {
            "duration": 0.125,
            "durationTicks": 24,
            "midi": 61,
            "name": "C#4",
            "ticks": 36024,
            "time": 187.625,
            "velocity": 0.6456692913385826
          },
          {
            "duration": 0.125,
            "durationTicks": 24,
            "midi": 63,
            "name": "D#4",
            "ticks": 36048,
            "time": 187.75,
            "velocity": 0.6535433070866141
          },
          {
            "duration": 0.125,
            "durationTicks": 24,
            "midi": 65,
            "name": "F4",
            "ticks": 36072,
            "time": 187.875,
            "velocity": 0.6929133858267716
          },
          {
            "duration": 0.4947916666666572,
            "durationTicks": 95,
            "midi": 40,
            "name": "E2",
            "ticks": 36087,
            "time": 187.953125,
            "velocity": 0.7165354330708661
          },
          {
            "duration": 1.8541666666666572,
            "durationTicks": 356,
            "midi": 48,
            "name": "C3",
            "ticks": 36087,
            "time": 187.953125,
            "velocity": 0.7559055118110236
          },
          {
            "duration": 1.875,
            "durationTicks": 360,
            "midi": 52,
            "name": "E3",
            "ticks": 36096,
            "time": 188,
            "velocity": 0.49606299212598426
          },
          {
            "duration": 0.15625,
            "durationTicks": 30,
            "midi": 65,
            "name": "F4",
            "ticks": 36120,
            "time": 188.125,
            "velocity": 0.6535433070866141
          },
          {
            "duration": 0.1666666666666572,
            "durationTicks": 32,
            "midi": 66,
            "name": "F#4",
            "ticks": 36144,
            "time": 188.25,
            "velocity": 0.6692913385826772
          },
          {
            "duration": 0.2135416666666572,
            "durationTicks": 41,
            "midi": 68,
            "name": "G#4",
            "ticks": 36168,
            "time": 188.375,
            "velocity": 0.7165354330708661
          },
          {
            "duration": 0.4739583333333428,
            "durationTicks": 91,
            "midi": 40,
            "name": "E2",
            "ticks": 36192,
            "time": 188.5,
            "velocity": 0.6771653543307087
          },
          {
            "duration": 0.390625,
            "durationTicks": 75,
            "midi": 70,
            "name": "A#4",
            "ticks": 36192,
            "time": 188.5,
            "velocity": 0.7244094488188977
          },
          {
            "duration": 0.1354166666666572,
            "durationTicks": 26,
            "midi": 65,
            "name": "F4",
            "ticks": 36264,
            "time": 188.875,
            "velocity": 0.5984251968503937
          },
          {
            "duration": 0.4739583333333428,
            "durationTicks": 91,
            "midi": 40,
            "name": "E2",
            "ticks": 36288,
            "time": 189,
            "velocity": 0.6771653543307087
          },
          {
            "duration": 0.171875,
            "durationTicks": 33,
            "midi": 66,
            "name": "F#4",
            "ticks": 36288,
            "time": 189,
            "velocity": 0.6377952755905512
          },
          {
            "duration": 0.140625,
            "durationTicks": 27,
            "midi": 72,
            "name": "C5",
            "ticks": 36312,
            "time": 189.125,
            "velocity": 0.7086614173228346
          },
          {
            "duration": 0.3802083333333428,
            "durationTicks": 73,
            "midi": 70,
            "name": "A#4",
            "ticks": 36336,
            "time": 189.25,
            "velocity": 0.7480314960629921
          },
          {
            "duration": 0.3541666666666572,
            "durationTicks": 68,
            "midi": 40,
            "name": "E2",
            "ticks": 36384,
            "time": 189.5,
            "velocity": 0.6771653543307087
          },
          {
            "duration": 0.1614583333333428,
            "durationTicks": 31,
            "midi": 65,
            "name": "F4",
            "ticks": 36432,
            "time": 189.75,
            "velocity": 0.6614173228346457
          },
          {
            "duration": 1.8177083333333428,
            "durationTicks": 349,
            "midi": 48,
            "name": "C3",
            "ticks": 36479,
            "time": 189.99479166666666,
            "velocity": 0.6535433070866141
          },
          {
            "duration": 0.4479166666666572,
            "durationTicks": 86,
            "midi": 41,
            "name": "F2",
            "ticks": 36480,
            "time": 190,
            "velocity": 0.7165354330708661
          },
          {
            "duration": 1.875,
            "durationTicks": 360,
            "midi": 53,
            "name": "F3",
            "ticks": 36480,
            "time": 190,
            "velocity": 0.6929133858267716
          },
          {
            "duration": 0.125,
            "durationTicks": 24,
            "midi": 70,
            "name": "A#4",
            "ticks": 36504,
            "time": 190.125,
            "velocity": 0.7322834645669292
          },
          {
            "duration": 0.125,
            "durationTicks": 24,
            "midi": 68,
            "name": "G#4",
            "ticks": 36552,
            "time": 190.375,
            "velocity": 0.6692913385826772
          },
          {
            "duration": 0.4739583333333428,
            "durationTicks": 91,
            "midi": 41,
            "name": "F2",
            "ticks": 36576,
            "time": 190.5,
            "velocity": 0.6771653543307087
          },
          {
            "duration": 0.125,
            "durationTicks": 24,
            "midi": 66,
            "name": "F#4",
            "ticks": 36600,
            "time": 190.625,
            "velocity": 0.7007874015748031
          },
          {
            "duration": 0.125,
            "durationTicks": 24,
            "midi": 65,
            "name": "F4",
            "ticks": 36648,
            "time": 190.875,
            "velocity": 0.6850393700787402
          },
          {
            "duration": 0.4739583333333428,
            "durationTicks": 91,
            "midi": 41,
            "name": "F2",
            "ticks": 36672,
            "time": 191,
            "velocity": 0.6771653543307087
          },
          {
            "duration": 0.125,
            "durationTicks": 24,
            "midi": 63,
            "name": "D#4",
            "ticks": 36696,
            "time": 191.125,
            "velocity": 0.6929133858267716
          },
          {
            "duration": 0.125,
            "durationTicks": 24,
            "midi": 61,
            "name": "C#4",
            "ticks": 36744,
            "time": 191.375,
            "velocity": 0.6614173228346457
          },
          {
            "duration": 0.3541666666666572,
            "durationTicks": 68,
            "midi": 41,
            "name": "F2",
            "ticks": 36768,
            "time": 191.5,
            "velocity": 0.6771653543307087
          },
          {
            "duration": 0.1770833333333428,
            "durationTicks": 34,
            "midi": 63,
            "name": "D#4",
            "ticks": 36792,
            "time": 191.625,
            "velocity": 0.6771653543307087
          },
          {
            "duration": 0.10416666666665719,
            "durationTicks": 20,
            "midi": 65,
            "name": "F4",
            "ticks": 36840,
            "time": 191.875,
            "velocity": 0.6771653543307087
          },
          {
            "duration": 1.9583333333333428,
            "durationTicks": 376,
            "midi": 53,
            "name": "F3",
            "ticks": 36854,
            "time": 191.94791666666666,
            "velocity": 0.5984251968503937
          },
          {
            "duration": 0.4895833333333144,
            "durationTicks": 94,
            "midi": 46,
            "name": "A#2",
            "ticks": 36856,
            "time": 191.95833333333334,
            "velocity": 0.6614173228346457
          },
          {
            "duration": 0.25,
            "durationTicks": 48,
            "midi": 58,
            "name": "A#3",
            "ticks": 36864,
            "time": 192,
            "velocity": 0.6220472440944882
          },
          {
            "duration": 0.25,
            "durationTicks": 48,
            "midi": 58,
            "name": "A#3",
            "ticks": 36912,
            "time": 192.25,
            "velocity": 0.4409448818897638
          },
          {
            "duration": 0.09375,
            "durationTicks": 18,
            "midi": 78,
            "name": "F#5",
            "ticks": 36936,
            "time": 192.375,
            "velocity": 0.6771653543307087
          },
          {
            "duration": 0.09375,
            "durationTicks": 18,
            "midi": 82,
            "name": "A#5",
            "ticks": 36936,
            "time": 192.375,
            "velocity": 0.6929133858267716
          },
          {
            "duration": 0.4739583333333428,
            "durationTicks": 91,
            "midi": 46,
            "name": "A#2",
            "ticks": 36960,
            "time": 192.5,
            "velocity": 0.6299212598425197
          },
          {
            "duration": 0.25,
            "durationTicks": 48,
            "midi": 58,
            "name": "A#3",
            "ticks": 36960,
            "time": 192.5,
            "velocity": 0.4566929133858268
          },
          {
            "duration": 0.2708333333333428,
            "durationTicks": 52,
            "midi": 78,
            "name": "F#5",
            "ticks": 36960,
            "time": 192.5,
            "velocity": 0.7007874015748031
          },
          {
            "duration": 0.2708333333333428,
            "durationTicks": 52,
            "midi": 82,
            "name": "A#5",
            "ticks": 36960,
            "time": 192.5,
            "velocity": 0.7322834645669292
          },
          {
            "duration": 0.25,
            "durationTicks": 48,
            "midi": 58,
            "name": "A#3",
            "ticks": 37008,
            "time": 192.75,
            "velocity": 0.3937007874015748
          },
          {
            "duration": 0.09375,
            "durationTicks": 18,
            "midi": 77,
            "name": "F5",
            "ticks": 37032,
            "time": 192.875,
            "velocity": 0.6771653543307087
          },
          {
            "duration": 0.09375,
            "durationTicks": 18,
            "midi": 82,
            "name": "A#5",
            "ticks": 37032,
            "time": 192.875,
            "velocity": 0.6929133858267716
          },
          {
            "duration": 0.4739583333333428,
            "durationTicks": 91,
            "midi": 46,
            "name": "A#2",
            "ticks": 37056,
            "time": 193,
            "velocity": 0.6299212598425197
          },
          {
            "duration": 0.25,
            "durationTicks": 48,
            "midi": 58,
            "name": "A#3",
            "ticks": 37056,
            "time": 193,
            "velocity": 0.44881889763779526
          },
          {
            "duration": 0.3020833333333428,
            "durationTicks": 58,
            "midi": 77,
            "name": "F5",
            "ticks": 37056,
            "time": 193,
            "velocity": 0.7007874015748031
          },
          {
            "duration": 0.3020833333333428,
            "durationTicks": 58,
            "midi": 82,
            "name": "A#5",
            "ticks": 37056,
            "time": 193,
            "velocity": 0.7322834645669292
          },
          {
            "duration": 0.25,
            "durationTicks": 48,
            "midi": 58,
            "name": "A#3",
            "ticks": 37104,
            "time": 193.25,
            "velocity": 0.3779527559055118
          },
          {
            "duration": 0.09375,
            "durationTicks": 18,
            "midi": 75,
            "name": "D#5",
            "ticks": 37128,
            "time": 193.375,
            "velocity": 0.6771653543307087
          },
          {
            "duration": 0.09375,
            "durationTicks": 18,
            "midi": 82,
            "name": "A#5",
            "ticks": 37128,
            "time": 193.375,
            "velocity": 0.5984251968503937
          },
          {
            "duration": 0.2708333333333428,
            "durationTicks": 52,
            "midi": 46,
            "name": "A#2",
            "ticks": 37152,
            "time": 193.5,
            "velocity": 0.6299212598425197
          },
          {
            "duration": 0.25,
            "durationTicks": 48,
            "midi": 58,
            "name": "A#3",
            "ticks": 37152,
            "time": 193.5,
            "velocity": 0.4015748031496063
          },
          {
            "duration": 0.203125,
            "durationTicks": 39,
            "midi": 75,
            "name": "D#5",
            "ticks": 37152,
            "time": 193.5,
            "velocity": 0.7007874015748031
          },
          {
            "duration": 0.1979166666666572,
            "durationTicks": 38,
            "midi": 82,
            "name": "A#5",
            "ticks": 37152,
            "time": 193.5,
            "velocity": 0.6299212598425197
          },
          {
            "duration": 0.1875,
            "durationTicks": 36,
            "midi": 58,
            "name": "A#3",
            "ticks": 37200,
            "time": 193.75,
            "velocity": 0.3543307086614173
          },
          {
            "duration": 0.46875,
            "durationTicks": 90,
            "midi": 72,
            "name": "C5",
            "ticks": 37200,
            "time": 193.75,
            "velocity": 0.6771653543307087
          },
          {
            "duration": 0.46875,
            "durationTicks": 90,
            "midi": 82,
            "name": "A#5",
            "ticks": 37200,
            "time": 193.75,
            "velocity": 0.48031496062992124
          },
          {
            "duration": 0.5104166666666572,
            "durationTicks": 98,
            "midi": 45,
            "name": "A2",
            "ticks": 37236,
            "time": 193.9375,
            "velocity": 0.6614173228346457
          },
          {
            "duration": 1.8958333333333428,
            "durationTicks": 364,
            "midi": 53,
            "name": "F3",
            "ticks": 37244,
            "time": 193.97916666666666,
            "velocity": 0.5590551181102362
          },
          {
            "duration": 0.25,
            "durationTicks": 48,
            "midi": 57,
            "name": "A3",
            "ticks": 37248,
            "time": 194,
            "velocity": 0.6220472440944882
          },
          {
            "duration": 0.25,
            "durationTicks": 48,
            "midi": 57,
            "name": "A3",
            "ticks": 37296,
            "time": 194.25,
            "velocity": 0.4409448818897638
          },
          {
            "duration": 0.09375,
            "durationTicks": 18,
            "midi": 78,
            "name": "F#5",
            "ticks": 37320,
            "time": 194.375,
            "velocity": 0.6771653543307087
          },
          {
            "duration": 0.09375,
            "durationTicks": 18,
            "midi": 81,
            "name": "A5",
            "ticks": 37320,
            "time": 194.375,
            "velocity": 0.6929133858267716
          },
          {
            "duration": 0.4739583333333428,
            "durationTicks": 91,
            "midi": 45,
            "name": "A2",
            "ticks": 37344,
            "time": 194.5,
            "velocity": 0.6299212598425197
          },
          {
            "duration": 0.25,
            "durationTicks": 48,
            "midi": 57,
            "name": "A3",
            "ticks": 37344,
            "time": 194.5,
            "velocity": 0.4566929133858268
          },
          {
            "duration": 0.2708333333333428,
            "durationTicks": 52,
            "midi": 78,
            "name": "F#5",
            "ticks": 37344,
            "time": 194.5,
            "velocity": 0.7007874015748031
          },
          {
            "duration": 0.2708333333333428,
            "durationTicks": 52,
            "midi": 81,
            "name": "A5",
            "ticks": 37344,
            "time": 194.5,
            "velocity": 0.7322834645669292
          },
          {
            "duration": 0.25,
            "durationTicks": 48,
            "midi": 57,
            "name": "A3",
            "ticks": 37392,
            "time": 194.75,
            "velocity": 0.3937007874015748
          },
          {
            "duration": 0.09375,
            "durationTicks": 18,
            "midi": 77,
            "name": "F5",
            "ticks": 37416,
            "time": 194.875,
            "velocity": 0.6771653543307087
          },
          {
            "duration": 0.09375,
            "durationTicks": 18,
            "midi": 81,
            "name": "A5",
            "ticks": 37416,
            "time": 194.875,
            "velocity": 0.6929133858267716
          },
          {
            "duration": 0.4739583333333428,
            "durationTicks": 91,
            "midi": 45,
            "name": "A2",
            "ticks": 37440,
            "time": 195,
            "velocity": 0.6299212598425197
          },
          {
            "duration": 0.25,
            "durationTicks": 48,
            "midi": 57,
            "name": "A3",
            "ticks": 37440,
            "time": 195,
            "velocity": 0.44881889763779526
          },
          {
            "duration": 0.3020833333333428,
            "durationTicks": 58,
            "midi": 77,
            "name": "F5",
            "ticks": 37440,
            "time": 195,
            "velocity": 0.7007874015748031
          },
          {
            "duration": 0.3020833333333428,
            "durationTicks": 58,
            "midi": 81,
            "name": "A5",
            "ticks": 37440,
            "time": 195,
            "velocity": 0.7322834645669292
          },
          {
            "duration": 0.25,
            "durationTicks": 48,
            "midi": 57,
            "name": "A3",
            "ticks": 37488,
            "time": 195.25,
            "velocity": 0.3779527559055118
          },
          {
            "duration": 0.09375,
            "durationTicks": 18,
            "midi": 75,
            "name": "D#5",
            "ticks": 37512,
            "time": 195.375,
            "velocity": 0.6771653543307087
          },
          {
            "duration": 0.09375,
            "durationTicks": 18,
            "midi": 81,
            "name": "A5",
            "ticks": 37512,
            "time": 195.375,
            "velocity": 0.5984251968503937
          },
          {
            "duration": 0.3541666666666572,
            "durationTicks": 68,
            "midi": 45,
            "name": "A2",
            "ticks": 37536,
            "time": 195.5,
            "velocity": 0.6299212598425197
          },
          {
            "duration": 0.25,
            "durationTicks": 48,
            "midi": 57,
            "name": "A3",
            "ticks": 37536,
            "time": 195.5,
            "velocity": 0.4015748031496063
          },
          {
            "duration": 0.203125,
            "durationTicks": 39,
            "midi": 75,
            "name": "D#5",
            "ticks": 37536,
            "time": 195.5,
            "velocity": 0.7007874015748031
          },
          {
            "duration": 0.1979166666666572,
            "durationTicks": 38,
            "midi": 81,
            "name": "A5",
            "ticks": 37536,
            "time": 195.5,
            "velocity": 0.6299212598425197
          },
          {
            "duration": 0.1875,
            "durationTicks": 36,
            "midi": 57,
            "name": "A3",
            "ticks": 37584,
            "time": 195.75,
            "velocity": 0.3543307086614173
          },
          {
            "duration": 0.46875,
            "durationTicks": 90,
            "midi": 72,
            "name": "C5",
            "ticks": 37584,
            "time": 195.75,
            "velocity": 0.6771653543307087
          },
          {
            "duration": 0.46875,
            "durationTicks": 90,
            "midi": 81,
            "name": "A5",
            "ticks": 37584,
            "time": 195.75,
            "velocity": 0.48031496062992124
          },
          {
            "duration": 0.484375,
            "durationTicks": 93,
            "midi": 44,
            "name": "G#2",
            "ticks": 37625,
            "time": 195.96354166666666,
            "velocity": 0.6614173228346457
          },
          {
            "duration": 1.859375,
            "durationTicks": 357,
            "midi": 51,
            "name": "D#3",
            "ticks": 37628,
            "time": 195.97916666666666,
            "velocity": 0.5433070866141733
          },
          {
            "duration": 0.25,
            "durationTicks": 48,
            "midi": 56,
            "name": "G#3",
            "ticks": 37632,
            "time": 196,
            "velocity": 0.6220472440944882
          },
          {
            "duration": 0.25,
            "durationTicks": 48,
            "midi": 56,
            "name": "G#3",
            "ticks": 37680,
            "time": 196.25,
            "velocity": 0.4409448818897638
          },
          {
            "duration": 0.09375,
            "durationTicks": 18,
            "midi": 77,
            "name": "F5",
            "ticks": 37704,
            "time": 196.375,
            "velocity": 0.6771653543307087
          },
          {
            "duration": 0.09375,
            "durationTicks": 18,
            "midi": 80,
            "name": "G#5",
            "ticks": 37704,
            "time": 196.375,
            "velocity": 0.6929133858267716
          },
          {
            "duration": 0.4739583333333428,
            "durationTicks": 91,
            "midi": 44,
            "name": "G#2",
            "ticks": 37728,
            "time": 196.5,
            "velocity": 0.6299212598425197
          },
          {
            "duration": 0.25,
            "durationTicks": 48,
            "midi": 56,
            "name": "G#3",
            "ticks": 37728,
            "time": 196.5,
            "velocity": 0.4566929133858268
          },
          {
            "duration": 0.2708333333333428,
            "durationTicks": 52,
            "midi": 77,
            "name": "F5",
            "ticks": 37728,
            "time": 196.5,
            "velocity": 0.7007874015748031
          },
          {
            "duration": 0.2708333333333428,
            "durationTicks": 52,
            "midi": 80,
            "name": "G#5",
            "ticks": 37728,
            "time": 196.5,
            "velocity": 0.7322834645669292
          },
          {
            "duration": 0.25,
            "durationTicks": 48,
            "midi": 56,
            "name": "G#3",
            "ticks": 37776,
            "time": 196.75,
            "velocity": 0.3937007874015748
          },
          {
            "duration": 0.09375,
            "durationTicks": 18,
            "midi": 75,
            "name": "D#5",
            "ticks": 37800,
            "time": 196.875,
            "velocity": 0.6771653543307087
          },
          {
            "duration": 0.09375,
            "durationTicks": 18,
            "midi": 80,
            "name": "G#5",
            "ticks": 37800,
            "time": 196.875,
            "velocity": 0.6929133858267716
          },
          {
            "duration": 0.4739583333333428,
            "durationTicks": 91,
            "midi": 44,
            "name": "G#2",
            "ticks": 37824,
            "time": 197,
            "velocity": 0.6299212598425197
          },
          {
            "duration": 0.25,
            "durationTicks": 48,
            "midi": 56,
            "name": "G#3",
            "ticks": 37824,
            "time": 197,
            "velocity": 0.44881889763779526
          },
          {
            "duration": 0.3020833333333428,
            "durationTicks": 58,
            "midi": 75,
            "name": "D#5",
            "ticks": 37824,
            "time": 197,
            "velocity": 0.7007874015748031
          },
          {
            "duration": 0.3020833333333428,
            "durationTicks": 58,
            "midi": 80,
            "name": "G#5",
            "ticks": 37824,
            "time": 197,
            "velocity": 0.7322834645669292
          },
          {
            "duration": 0.25,
            "durationTicks": 48,
            "midi": 56,
            "name": "G#3",
            "ticks": 37872,
            "time": 197.25,
            "velocity": 0.3779527559055118
          },
          {
            "duration": 0.09375,
            "durationTicks": 18,
            "midi": 73,
            "name": "C#5",
            "ticks": 37896,
            "time": 197.375,
            "velocity": 0.6771653543307087
          },
          {
            "duration": 0.09375,
            "durationTicks": 18,
            "midi": 80,
            "name": "G#5",
            "ticks": 37896,
            "time": 197.375,
            "velocity": 0.5984251968503937
          },
          {
            "duration": 0.3177083333333428,
            "durationTicks": 61,
            "midi": 44,
            "name": "G#2",
            "ticks": 37920,
            "time": 197.5,
            "velocity": 0.6299212598425197
          },
          {
            "duration": 0.25,
            "durationTicks": 48,
            "midi": 56,
            "name": "G#3",
            "ticks": 37920,
            "time": 197.5,
            "velocity": 0.4015748031496063
          },
          {
            "duration": 0.203125,
            "durationTicks": 39,
            "midi": 73,
            "name": "C#5",
            "ticks": 37920,
            "time": 197.5,
            "velocity": 0.7007874015748031
          },
          {
            "duration": 0.1979166666666572,
            "durationTicks": 38,
            "midi": 80,
            "name": "G#5",
            "ticks": 37920,
            "time": 197.5,
            "velocity": 0.6299212598425197
          },
          {
            "duration": 0.1875,
            "durationTicks": 36,
            "midi": 56,
            "name": "G#3",
            "ticks": 37968,
            "time": 197.75,
            "velocity": 0.3543307086614173
          },
          {
            "duration": 0.46875,
            "durationTicks": 90,
            "midi": 72,
            "name": "C5",
            "ticks": 37968,
            "time": 197.75,
            "velocity": 0.6771653543307087
          },
          {
            "duration": 0.46875,
            "durationTicks": 90,
            "midi": 80,
            "name": "G#5",
            "ticks": 37968,
            "time": 197.75,
            "velocity": 0.48031496062992124
          },
          {
            "duration": 0.4947916666666572,
            "durationTicks": 95,
            "midi": 43,
            "name": "G2",
            "ticks": 38007,
            "time": 197.953125,
            "velocity": 0.6614173228346457
          },
          {
            "duration": 1.9375,
            "durationTicks": 372,
            "midi": 51,
            "name": "D#3",
            "ticks": 38012,
            "time": 197.97916666666666,
            "velocity": 0.49606299212598426
          },
          {
            "duration": 0.25,
            "durationTicks": 48,
            "midi": 55,
            "name": "G3",
            "ticks": 38016,
            "time": 198,
            "velocity": 0.6220472440944882
          },
          {
            "duration": 0.25,
            "durationTicks": 48,
            "midi": 55,
            "name": "G3",
            "ticks": 38064,
            "time": 198.25,
            "velocity": 0.4409448818897638
          },
          {
            "duration": 0.09375,
            "durationTicks": 18,
            "midi": 77,
            "name": "F5",
            "ticks": 38088,
            "time": 198.375,
            "velocity": 0.6771653543307087
          },
          {
            "duration": 0.09375,
            "durationTicks": 18,
            "midi": 79,
            "name": "G5",
            "ticks": 38088,
            "time": 198.375,
            "velocity": 0.6929133858267716
          },
          {
            "duration": 0.4739583333333428,
            "durationTicks": 91,
            "midi": 43,
            "name": "G2",
            "ticks": 38112,
            "time": 198.5,
            "velocity": 0.6299212598425197
          },
          {
            "duration": 0.25,
            "durationTicks": 48,
            "midi": 55,
            "name": "G3",
            "ticks": 38112,
            "time": 198.5,
            "velocity": 0.4566929133858268
          },
          {
            "duration": 0.2708333333333428,
            "durationTicks": 52,
            "midi": 77,
            "name": "F5",
            "ticks": 38112,
            "time": 198.5,
            "velocity": 0.7007874015748031
          },
          {
            "duration": 0.2708333333333428,
            "durationTicks": 52,
            "midi": 79,
            "name": "G5",
            "ticks": 38112,
            "time": 198.5,
            "velocity": 0.7322834645669292
          },
          {
            "duration": 0.25,
            "durationTicks": 48,
            "midi": 55,
            "name": "G3",
            "ticks": 38160,
            "time": 198.75,
            "velocity": 0.3937007874015748
          },
          {
            "duration": 0.09375,
            "durationTicks": 18,
            "midi": 75,
            "name": "D#5",
            "ticks": 38184,
            "time": 198.875,
            "velocity": 0.6771653543307087
          },
          {
            "duration": 0.09375,
            "durationTicks": 18,
            "midi": 79,
            "name": "G5",
            "ticks": 38184,
            "time": 198.875,
            "velocity": 0.6929133858267716
          },
          {
            "duration": 0.4739583333333428,
            "durationTicks": 91,
            "midi": 43,
            "name": "G2",
            "ticks": 38208,
            "time": 199,
            "velocity": 0.6299212598425197
          },
          {
            "duration": 0.25,
            "durationTicks": 48,
            "midi": 55,
            "name": "G3",
            "ticks": 38208,
            "time": 199,
            "velocity": 0.44881889763779526
          },
          {
            "duration": 0.3020833333333428,
            "durationTicks": 58,
            "midi": 75,
            "name": "D#5",
            "ticks": 38208,
            "time": 199,
            "velocity": 0.7007874015748031
          },
          {
            "duration": 0.3020833333333428,
            "durationTicks": 58,
            "midi": 79,
            "name": "G5",
            "ticks": 38208,
            "time": 199,
            "velocity": 0.7322834645669292
          },
          {
            "duration": 0.25,
            "durationTicks": 48,
            "midi": 55,
            "name": "G3",
            "ticks": 38256,
            "time": 199.25,
            "velocity": 0.3779527559055118
          },
          {
            "duration": 0.09375,
            "durationTicks": 18,
            "midi": 73,
            "name": "C#5",
            "ticks": 38280,
            "time": 199.375,
            "velocity": 0.6771653543307087
          },
          {
            "duration": 0.09375,
            "durationTicks": 18,
            "midi": 79,
            "name": "G5",
            "ticks": 38280,
            "time": 199.375,
            "velocity": 0.5984251968503937
          },
          {
            "duration": 0.3541666666666572,
            "durationTicks": 68,
            "midi": 43,
            "name": "G2",
            "ticks": 38304,
            "time": 199.5,
            "velocity": 0.6299212598425197
          },
          {
            "duration": 0.25,
            "durationTicks": 48,
            "midi": 55,
            "name": "G3",
            "ticks": 38304,
            "time": 199.5,
            "velocity": 0.4015748031496063
          },
          {
            "duration": 0.203125,
            "durationTicks": 39,
            "midi": 73,
            "name": "C#5",
            "ticks": 38304,
            "time": 199.5,
            "velocity": 0.7007874015748031
          },
          {
            "duration": 0.1979166666666572,
            "durationTicks": 38,
            "midi": 79,
            "name": "G5",
            "ticks": 38304,
            "time": 199.5,
            "velocity": 0.6299212598425197
          },
          {
            "duration": 0.1875,
            "durationTicks": 36,
            "midi": 55,
            "name": "G3",
            "ticks": 38352,
            "time": 199.75,
            "velocity": 0.3543307086614173
          },
          {
            "duration": 0.46875,
            "durationTicks": 90,
            "midi": 70,
            "name": "A#4",
            "ticks": 38352,
            "time": 199.75,
            "velocity": 0.6771653543307087
          },
          {
            "duration": 0.46875,
            "durationTicks": 90,
            "midi": 79,
            "name": "G5",
            "ticks": 38352,
            "time": 199.75,
            "velocity": 0.48031496062992124
          },
          {
            "duration": 0.4895833333333144,
            "durationTicks": 94,
            "midi": 46,
            "name": "A#2",
            "ticks": 38392,
            "time": 199.95833333333334,
            "velocity": 0.6614173228346457
          },
          {
            "duration": 1.875,
            "durationTicks": 360,
            "midi": 53,
            "name": "F3",
            "ticks": 38395,
            "time": 199.97395833333334,
            "velocity": 0.5511811023622047
          },
          {
            "duration": 0.25,
            "durationTicks": 48,
            "midi": 58,
            "name": "A#3",
            "ticks": 38400,
            "time": 200,
            "velocity": 0.6614173228346457
          },
          {
            "duration": 0.25,
            "durationTicks": 48,
            "midi": 58,
            "name": "A#3",
            "ticks": 38448,
            "time": 200.25,
            "velocity": 0.4645669291338583
          },
          {
            "duration": 0.09375,
            "durationTicks": 18,
            "midi": 78,
            "name": "F#5",
            "ticks": 38472,
            "time": 200.375,
            "velocity": 0.6771653543307087
          },
          {
            "duration": 0.09375,
            "durationTicks": 18,
            "midi": 82,
            "name": "A#5",
            "ticks": 38472,
            "time": 200.375,
            "velocity": 0.6929133858267716
          },
          {
            "duration": 0.4739583333333428,
            "durationTicks": 91,
            "midi": 46,
            "name": "A#2",
            "ticks": 38496,
            "time": 200.5,
            "velocity": 0.6299212598425197
          },
          {
            "duration": 0.25,
            "durationTicks": 48,
            "midi": 58,
            "name": "A#3",
            "ticks": 38496,
            "time": 200.5,
            "velocity": 0.4881889763779528
          },
          {
            "duration": 0.2708333333333428,
            "durationTicks": 52,
            "midi": 78,
            "name": "F#5",
            "ticks": 38496,
            "time": 200.5,
            "velocity": 0.7007874015748031
          },
          {
            "duration": 0.2708333333333428,
            "durationTicks": 52,
            "midi": 82,
            "name": "A#5",
            "ticks": 38496,
            "time": 200.5,
            "velocity": 0.7322834645669292
          },
          {
            "duration": 0.25,
            "durationTicks": 48,
            "midi": 58,
            "name": "A#3",
            "ticks": 38544,
            "time": 200.75,
            "velocity": 0.41732283464566927
          },
          {
            "duration": 0.09375,
            "durationTicks": 18,
            "midi": 77,
            "name": "F5",
            "ticks": 38568,
            "time": 200.875,
            "velocity": 0.6771653543307087
          },
          {
            "duration": 0.09375,
            "durationTicks": 18,
            "midi": 82,
            "name": "A#5",
            "ticks": 38568,
            "time": 200.875,
            "velocity": 0.6929133858267716
          },
          {
            "duration": 0.4739583333333428,
            "durationTicks": 91,
            "midi": 46,
            "name": "A#2",
            "ticks": 38592,
            "time": 201,
            "velocity": 0.6299212598425197
          },
          {
            "duration": 0.25,
            "durationTicks": 48,
            "midi": 58,
            "name": "A#3",
            "ticks": 38592,
            "time": 201,
            "velocity": 0.4645669291338583
          },
          {
            "duration": 0.3020833333333428,
            "durationTicks": 58,
            "midi": 77,
            "name": "F5",
            "ticks": 38592,
            "time": 201,
            "velocity": 0.7007874015748031
          },
          {
            "duration": 0.3020833333333428,
            "durationTicks": 58,
            "midi": 82,
            "name": "A#5",
            "ticks": 38592,
            "time": 201,
            "velocity": 0.7322834645669292
          },
          {
            "duration": 0.25,
            "durationTicks": 48,
            "midi": 58,
            "name": "A#3",
            "ticks": 38640,
            "time": 201.25,
            "velocity": 0.4015748031496063
          },
          {
            "duration": 0.09375,
            "durationTicks": 18,
            "midi": 80,
            "name": "G#5",
            "ticks": 38664,
            "time": 201.375,
            "velocity": 0.6771653543307087
          },
          {
            "duration": 0.09375,
            "durationTicks": 18,
            "midi": 82,
            "name": "A#5",
            "ticks": 38664,
            "time": 201.375,
            "velocity": 0.5984251968503937
          },
          {
            "duration": 0.3541666666666572,
            "durationTicks": 68,
            "midi": 46,
            "name": "A#2",
            "ticks": 38688,
            "time": 201.5,
            "velocity": 0.6299212598425197
          },
          {
            "duration": 0.25,
            "durationTicks": 48,
            "midi": 58,
            "name": "A#3",
            "ticks": 38688,
            "time": 201.5,
            "velocity": 0.4330708661417323
          },
          {
            "duration": 0.203125,
            "durationTicks": 39,
            "midi": 80,
            "name": "G#5",
            "ticks": 38688,
            "time": 201.5,
            "velocity": 0.7007874015748031
          },
          {
            "duration": 0.1979166666666572,
            "durationTicks": 38,
            "midi": 82,
            "name": "A#5",
            "ticks": 38688,
            "time": 201.5,
            "velocity": 0.6299212598425197
          },
          {
            "duration": 0.1875,
            "durationTicks": 36,
            "midi": 58,
            "name": "A#3",
            "ticks": 38736,
            "time": 201.75,
            "velocity": 0.41732283464566927
          },
          {
            "duration": 0.46875,
            "durationTicks": 90,
            "midi": 78,
            "name": "F#5",
            "ticks": 38736,
            "time": 201.75,
            "velocity": 0.6771653543307087
          },
          {
            "duration": 0.46875,
            "durationTicks": 90,
            "midi": 82,
            "name": "A#5",
            "ticks": 38736,
            "time": 201.75,
            "velocity": 0.48031496062992124
          },
          {
            "duration": 0.4895833333333144,
            "durationTicks": 94,
            "midi": 48,
            "name": "C3",
            "ticks": 38776,
            "time": 201.95833333333334,
            "velocity": 0.6614173228346457
          },
          {
            "duration": 1.9791666666666856,
            "durationTicks": 380,
            "midi": 55,
            "name": "G3",
            "ticks": 38780,
            "time": 201.97916666666666,
            "velocity": 0.5196850393700787
          },
          {
            "duration": 0.25,
            "durationTicks": 48,
            "midi": 60,
            "name": "C4",
            "ticks": 38784,
            "time": 202,
            "velocity": 0.7480314960629921
          },
          {
            "duration": 0.25,
            "durationTicks": 48,
            "midi": 60,
            "name": "C4",
            "ticks": 38832,
            "time": 202.25,
            "velocity": 0.5669291338582677
          },
          {
            "duration": 0.09375,
            "durationTicks": 18,
            "midi": 78,
            "name": "F#5",
            "ticks": 38856,
            "time": 202.375,
            "velocity": 0.6771653543307087
          },
          {
            "duration": 0.09375,
            "durationTicks": 18,
            "midi": 84,
            "name": "C6",
            "ticks": 38856,
            "time": 202.375,
            "velocity": 0.6929133858267716
          },
          {
            "duration": 0.4739583333333428,
            "durationTicks": 91,
            "midi": 48,
            "name": "C3",
            "ticks": 38880,
            "time": 202.5,
            "velocity": 0.6299212598425197
          },
          {
            "duration": 0.25,
            "durationTicks": 48,
            "midi": 60,
            "name": "C4",
            "ticks": 38880,
            "time": 202.5,
            "velocity": 0.5511811023622047
          },
          {
            "duration": 0.2708333333333428,
            "durationTicks": 52,
            "midi": 78,
            "name": "F#5",
            "ticks": 38880,
            "time": 202.5,
            "velocity": 0.7007874015748031
          },
          {
            "duration": 0.2708333333333428,
            "durationTicks": 52,
            "midi": 84,
            "name": "C6",
            "ticks": 38880,
            "time": 202.5,
            "velocity": 0.7322834645669292
          },
          {
            "duration": 0.25,
            "durationTicks": 48,
            "midi": 60,
            "name": "C4",
            "ticks": 38928,
            "time": 202.75,
            "velocity": 0.49606299212598426
          },
          {
            "duration": 0.09375,
            "durationTicks": 18,
            "midi": 77,
            "name": "F5",
            "ticks": 38952,
            "time": 202.875,
            "velocity": 0.6771653543307087
          },
          {
            "duration": 0.09375,
            "durationTicks": 18,
            "midi": 84,
            "name": "C6",
            "ticks": 38952,
            "time": 202.875,
            "velocity": 0.6929133858267716
          },
          {
            "duration": 0.4739583333333428,
            "durationTicks": 91,
            "midi": 48,
            "name": "C3",
            "ticks": 38976,
            "time": 203,
            "velocity": 0.6299212598425197
          },
          {
            "duration": 0.25,
            "durationTicks": 48,
            "midi": 60,
            "name": "C4",
            "ticks": 38976,
            "time": 203,
            "velocity": 0.5275590551181102
          },
          {
            "duration": 0.3020833333333428,
            "durationTicks": 58,
            "midi": 77,
            "name": "F5",
            "ticks": 38976,
            "time": 203,
            "velocity": 0.7007874015748031
          },
          {
            "duration": 0.3020833333333428,
            "durationTicks": 58,
            "midi": 84,
            "name": "C6",
            "ticks": 38976,
            "time": 203,
            "velocity": 0.7322834645669292
          },
          {
            "duration": 0.25,
            "durationTicks": 48,
            "midi": 60,
            "name": "C4",
            "ticks": 39024,
            "time": 203.25,
            "velocity": 0.4881889763779528
          },
          {
            "duration": 0.09375,
            "durationTicks": 18,
            "midi": 80,
            "name": "G#5",
            "ticks": 39048,
            "time": 203.375,
            "velocity": 0.6771653543307087
          },
          {
            "duration": 0.09375,
            "durationTicks": 18,
            "midi": 84,
            "name": "C6",
            "ticks": 39048,
            "time": 203.375,
            "velocity": 0.5984251968503937
          },
          {
            "duration": 0.3541666666666572,
            "durationTicks": 68,
            "midi": 48,
            "name": "C3",
            "ticks": 39072,
            "time": 203.5,
            "velocity": 0.6299212598425197
          },
          {
            "duration": 0.25,
            "durationTicks": 48,
            "midi": 60,
            "name": "C4",
            "ticks": 39072,
            "time": 203.5,
            "velocity": 0.48031496062992124
          },
          {
            "duration": 0.203125,
            "durationTicks": 39,
            "midi": 80,
            "name": "G#5",
            "ticks": 39072,
            "time": 203.5,
            "velocity": 0.7007874015748031
          },
          {
            "duration": 0.1979166666666572,
            "durationTicks": 38,
            "midi": 84,
            "name": "C6",
            "ticks": 39072,
            "time": 203.5,
            "velocity": 0.6299212598425197
          },
          {
            "duration": 0.1875,
            "durationTicks": 36,
            "midi": 60,
            "name": "C4",
            "ticks": 39120,
            "time": 203.75,
            "velocity": 0.4566929133858268
          },
          {
            "duration": 0.46875,
            "durationTicks": 90,
            "midi": 78,
            "name": "F#5",
            "ticks": 39120,
            "time": 203.75,
            "velocity": 0.6771653543307087
          },
          {
            "duration": 0.46875,
            "durationTicks": 90,
            "midi": 84,
            "name": "C6",
            "ticks": 39120,
            "time": 203.75,
            "velocity": 0.48031496062992124
          },
          {
            "duration": 0.4739583333333144,
            "durationTicks": 91,
            "midi": 49,
            "name": "C#3",
            "ticks": 39163,
            "time": 203.97395833333334,
            "velocity": 0.6614173228346457
          },
          {
            "duration": 1.9739583333333428,
            "durationTicks": 379,
            "midi": 56,
            "name": "G#3",
            "ticks": 39165,
            "time": 203.984375,
            "velocity": 0.5590551181102362
          },
          {
            "duration": 0.25,
            "durationTicks": 48,
            "midi": 61,
            "name": "C#4",
            "ticks": 39168,
            "time": 204,
            "velocity": 0.6929133858267716
          },
          {
            "duration": 0.25,
            "durationTicks": 48,
            "midi": 61,
            "name": "C#4",
            "ticks": 39216,
            "time": 204.25,
            "velocity": 0.5433070866141733
          },
          {
            "duration": 0.09375,
            "durationTicks": 18,
            "midi": 78,
            "name": "F#5",
            "ticks": 39240,
            "time": 204.375,
            "velocity": 0.6771653543307087
          },
          {
            "duration": 0.09375,
            "durationTicks": 18,
            "midi": 85,
            "name": "C#6",
            "ticks": 39240,
            "time": 204.375,
            "velocity": 0.6929133858267716
          },
          {
            "duration": 0.4427083333333428,
            "durationTicks": 85,
            "midi": 49,
            "name": "C#3",
            "ticks": 39264,
            "time": 204.5,
            "velocity": 0.6299212598425197
          },
          {
            "duration": 0.25,
            "durationTicks": 48,
            "midi": 61,
            "name": "C#4",
            "ticks": 39264,
            "time": 204.5,
            "velocity": 0.5196850393700787
          },
          {
            "duration": 0.2708333333333428,
            "durationTicks": 52,
            "midi": 78,
            "name": "F#5",
            "ticks": 39264,
            "time": 204.5,
            "velocity": 0.7007874015748031
          },
          {
            "duration": 0.2708333333333428,
            "durationTicks": 52,
            "midi": 85,
            "name": "C#6",
            "ticks": 39264,
            "time": 204.5,
            "velocity": 0.7322834645669292
          },
          {
            "duration": 0.25,
            "durationTicks": 48,
            "midi": 61,
            "name": "C#4",
            "ticks": 39312,
            "time": 204.75,
            "velocity": 0.4881889763779528
          },
          {
            "duration": 0.09375,
            "durationTicks": 18,
            "midi": 77,
            "name": "F5",
            "ticks": 39336,
            "time": 204.875,
            "velocity": 0.6771653543307087
          },
          {
            "duration": 0.09375,
            "durationTicks": 18,
            "midi": 85,
            "name": "C#6",
            "ticks": 39336,
            "time": 204.875,
            "velocity": 0.6929133858267716
          },
          {
            "duration": 0.4427083333333428,
            "durationTicks": 85,
            "midi": 49,
            "name": "C#3",
            "ticks": 39360,
            "time": 205,
            "velocity": 0.6299212598425197
          },
          {
            "duration": 0.25,
            "durationTicks": 48,
            "midi": 61,
            "name": "C#4",
            "ticks": 39360,
            "time": 205,
            "velocity": 0.4566929133858268
          },
          {
            "duration": 0.3020833333333428,
            "durationTicks": 58,
            "midi": 77,
            "name": "F5",
            "ticks": 39360,
            "time": 205,
            "velocity": 0.7007874015748031
          },
          {
            "duration": 0.3020833333333428,
            "durationTicks": 58,
            "midi": 85,
            "name": "C#6",
            "ticks": 39360,
            "time": 205,
            "velocity": 0.7322834645669292
          },
          {
            "duration": 0.25,
            "durationTicks": 48,
            "midi": 61,
            "name": "C#4",
            "ticks": 39408,
            "time": 205.25,
            "velocity": 0.47244094488188976
          },
          {
            "duration": 0.09375,
            "durationTicks": 18,
            "midi": 80,
            "name": "G#5",
            "ticks": 39432,
            "time": 205.375,
            "velocity": 0.6771653543307087
          },
          {
            "duration": 0.09375,
            "durationTicks": 18,
            "midi": 85,
            "name": "C#6",
            "ticks": 39432,
            "time": 205.375,
            "velocity": 0.5984251968503937
          },
          {
            "duration": 0.3385416666666572,
            "durationTicks": 65,
            "midi": 49,
            "name": "C#3",
            "ticks": 39456,
            "time": 205.5,
            "velocity": 0.6299212598425197
          },
          {
            "duration": 0.25,
            "durationTicks": 48,
            "midi": 61,
            "name": "C#4",
            "ticks": 39456,
            "time": 205.5,
            "velocity": 0.44881889763779526
          },
          {
            "duration": 0.203125,
            "durationTicks": 39,
            "midi": 80,
            "name": "G#5",
            "ticks": 39456,
            "time": 205.5,
            "velocity": 0.7007874015748031
          },
          {
            "duration": 0.1979166666666572,
            "durationTicks": 38,
            "midi": 85,
            "name": "C#6",
            "ticks": 39456,
            "time": 205.5,
            "velocity": 0.6299212598425197
          },
          {
            "duration": 0.234375,
            "durationTicks": 45,
            "midi": 61,
            "name": "C#4",
            "ticks": 39504,
            "time": 205.75,
            "velocity": 0.4409448818897638
          },
          {
            "duration": 0.46875,
            "durationTicks": 90,
            "midi": 78,
            "name": "F#5",
            "ticks": 39504,
            "time": 205.75,
            "velocity": 0.6771653543307087
          },
          {
            "duration": 0.46875,
            "durationTicks": 90,
            "midi": 85,
            "name": "C#6",
            "ticks": 39504,
            "time": 205.75,
            "velocity": 0.48031496062992124
          },
          {
            "duration": 1.7291666666666572,
            "durationTicks": 332,
            "midi": 52,
            "name": "E3",
            "ticks": 39550,
            "time": 205.98958333333334,
            "velocity": 0.5826771653543307
          },
          {
            "duration": 0.46875,
            "durationTicks": 90,
            "midi": 45,
            "name": "A2",
            "ticks": 39551,
            "time": 205.99479166666666,
            "velocity": 0.6614173228346457
          },
          {
            "duration": 0.25,
            "durationTicks": 48,
            "midi": 57,
            "name": "A3",
            "ticks": 39552,
            "time": 206,
            "velocity": 0.6220472440944882
          },
          {
            "duration": 0.25,
            "durationTicks": 48,
            "midi": 57,
            "name": "A3",
            "ticks": 39600,
            "time": 206.25,
            "velocity": 0.4645669291338583
          },
          {
            "duration": 0.125,
            "durationTicks": 24,
            "midi": 80,
            "name": "G#5",
            "ticks": 39600,
            "time": 206.25,
            "velocity": 0.7480314960629921
          },
          {
            "duration": 0.125,
            "durationTicks": 24,
            "midi": 81,
            "name": "A5",
            "ticks": 39600,
            "time": 206.25,
            "velocity": 0.6220472440944882
          },
          {
            "duration": 0.4427083333333428,
            "durationTicks": 85,
            "midi": 45,
            "name": "A2",
            "ticks": 39648,
            "time": 206.5,
            "velocity": 0.6299212598425197
          },
          {
            "duration": 0.25,
            "durationTicks": 48,
            "midi": 57,
            "name": "A3",
            "ticks": 39648,
            "time": 206.5,
            "velocity": 0.4566929133858268
          },
          {
            "duration": 0.25,
            "durationTicks": 48,
            "midi": 80,
            "name": "G#5",
            "ticks": 39648,
            "time": 206.5,
            "velocity": 0.7165354330708661
          },
          {
            "duration": 0.25,
            "durationTicks": 48,
            "midi": 81,
            "name": "A5",
            "ticks": 39648,
            "time": 206.5,
            "velocity": 0.7165354330708661
          },
          {
            "duration": 0.25,
            "durationTicks": 48,
            "midi": 57,
            "name": "A3",
            "ticks": 39696,
            "time": 206.75,
            "velocity": 0.41732283464566927
          },
          {
            "duration": 0.125,
            "durationTicks": 24,
            "midi": 78,
            "name": "F#5",
            "ticks": 39696,
            "time": 206.75,
            "velocity": 0.7007874015748031
          },
          {
            "duration": 0.125,
            "durationTicks": 24,
            "midi": 81,
            "name": "A5",
            "ticks": 39696,
            "time": 206.75,
            "velocity": 0.6614173228346457
          },
          {
            "duration": 0.4427083333333428,
            "durationTicks": 85,
            "midi": 45,
            "name": "A2",
            "ticks": 39744,
            "time": 207,
            "velocity": 0.6299212598425197
          },
          {
            "duration": 0.25,
            "durationTicks": 48,
            "midi": 57,
            "name": "A3",
            "ticks": 39744,
            "time": 207,
            "velocity": 0.4409448818897638
          },
          {
            "duration": 0.25,
            "durationTicks": 48,
            "midi": 78,
            "name": "F#5",
            "ticks": 39744,
            "time": 207,
            "velocity": 0.5826771653543307
          },
          {
            "duration": 0.25,
            "durationTicks": 48,
            "midi": 81,
            "name": "A5",
            "ticks": 39744,
            "time": 207,
            "velocity": 0.5826771653543307
          },
          {
            "duration": 0.25,
            "durationTicks": 48,
            "midi": 57,
            "name": "A3",
            "ticks": 39792,
            "time": 207.25,
            "velocity": 0.4015748031496063
          },
          {
            "duration": 0.125,
            "durationTicks": 24,
            "midi": 77,
            "name": "F5",
            "ticks": 39792,
            "time": 207.25,
            "velocity": 0.7007874015748031
          },
          {
            "duration": 0.125,
            "durationTicks": 24,
            "midi": 81,
            "name": "A5",
            "ticks": 39792,
            "time": 207.25,
            "velocity": 0.5511811023622047
          },
          {
            "duration": 0.3229166666666572,
            "durationTicks": 62,
            "midi": 45,
            "name": "A2",
            "ticks": 39840,
            "time": 207.5,
            "velocity": 0.6299212598425197
          },
          {
            "duration": 0.25,
            "durationTicks": 48,
            "midi": 57,
            "name": "A3",
            "ticks": 39840,
            "time": 207.5,
            "velocity": 0.4015748031496063
          },
          {
            "duration": 0.28125,
            "durationTicks": 54,
            "midi": 77,
            "name": "F5",
            "ticks": 39840,
            "time": 207.5,
            "velocity": 0.7007874015748031
          },
          {
            "duration": 0.25,
            "durationTicks": 48,
            "midi": 81,
            "name": "A5",
            "ticks": 39840,
            "time": 207.5,
            "velocity": 0.6771653543307087
          },
          {
            "duration": 0.1875,
            "durationTicks": 36,
            "midi": 57,
            "name": "A3",
            "ticks": 39888,
            "time": 207.75,
            "velocity": 0.41732283464566927
          },
          {
            "duration": 0.25,
            "durationTicks": 48,
            "midi": 75,
            "name": "D#5",
            "ticks": 39888,
            "time": 207.75,
            "velocity": 0.6535433070866141
          },
          {
            "duration": 0.25,
            "durationTicks": 48,
            "midi": 81,
            "name": "A5",
            "ticks": 39888,
            "time": 207.75,
            "velocity": 0.5748031496062992
          },
          {
            "duration": 1.9583333333333428,
            "durationTicks": 376,
            "midi": 53,
            "name": "F3",
            "ticks": 39926,
            "time": 207.94791666666666,
            "velocity": 0.5984251968503937
          },
          {
            "duration": 0.4895833333333144,
            "durationTicks": 94,
            "midi": 46,
            "name": "A#2",
            "ticks": 39928,
            "time": 207.95833333333334,
            "velocity": 0.6614173228346457
          },
          {
            "duration": 0.25,
            "durationTicks": 48,
            "midi": 58,
            "name": "A#3",
            "ticks": 39936,
            "time": 208,
            "velocity": 0.6220472440944882
          },
          {
            "duration": 0.25,
            "durationTicks": 48,
            "midi": 58,
            "name": "A#3",
            "ticks": 39984,
            "time": 208.25,
            "velocity": 0.4409448818897638
          },
          {
            "duration": 0.09375,
            "durationTicks": 18,
            "midi": 82,
            "name": "A#5",
            "ticks": 39984,
            "time": 208.25,
            "velocity": 0.3464566929133858
          },
          {
            "duration": 0.09375,
            "durationTicks": 18,
            "midi": 78,
            "name": "F#5",
            "ticks": 40008,
            "time": 208.375,
            "velocity": 0.6771653543307087
          },
          {
            "duration": 0.09375,
            "durationTicks": 18,
            "midi": 82,
            "name": "A#5",
            "ticks": 40008,
            "time": 208.375,
            "velocity": 0.6929133858267716
          },
          {
            "duration": 0.4739583333333428,
            "durationTicks": 91,
            "midi": 46,
            "name": "A#2",
            "ticks": 40032,
            "time": 208.5,
            "velocity": 0.6299212598425197
          },
          {
            "duration": 0.25,
            "durationTicks": 48,
            "midi": 58,
            "name": "A#3",
            "ticks": 40032,
            "time": 208.5,
            "velocity": 0.4566929133858268
          },
          {
            "duration": 0.25,
            "durationTicks": 48,
            "midi": 78,
            "name": "F#5",
            "ticks": 40032,
            "time": 208.5,
            "velocity": 0.7007874015748031
          },
          {
            "duration": 0.25,
            "durationTicks": 48,
            "midi": 82,
            "name": "A#5",
            "ticks": 40032,
            "time": 208.5,
            "velocity": 0.7322834645669292
          },
          {
            "duration": 0.25,
            "durationTicks": 48,
            "midi": 58,
            "name": "A#3",
            "ticks": 40080,
            "time": 208.75,
            "velocity": 0.3937007874015748
          },
          {
            "duration": 0.09375,
            "durationTicks": 18,
            "midi": 77,
            "name": "F5",
            "ticks": 40104,
            "time": 208.875,
            "velocity": 0.6771653543307087
          },
          {
            "duration": 0.09375,
            "durationTicks": 18,
            "midi": 82,
            "name": "A#5",
            "ticks": 40104,
            "time": 208.875,
            "velocity": 0.6929133858267716
          },
          {
            "duration": 0.4739583333333428,
            "durationTicks": 91,
            "midi": 46,
            "name": "A#2",
            "ticks": 40128,
            "time": 209,
            "velocity": 0.6299212598425197
          },
          {
            "duration": 0.25,
            "durationTicks": 48,
            "midi": 58,
            "name": "A#3",
            "ticks": 40128,
            "time": 209,
            "velocity": 0.44881889763779526
          },
          {
            "duration": 0.3020833333333428,
            "durationTicks": 58,
            "midi": 77,
            "name": "F5",
            "ticks": 40128,
            "time": 209,
            "velocity": 0.7007874015748031
          },
          {
            "duration": 0.3125,
            "durationTicks": 60,
            "midi": 82,
            "name": "A#5",
            "ticks": 40128,
            "time": 209,
            "velocity": 0.7322834645669292
          },
          {
            "duration": 0.25,
            "durationTicks": 48,
            "midi": 58,
            "name": "A#3",
            "ticks": 40176,
            "time": 209.25,
            "velocity": 0.3779527559055118
          },
          {
            "duration": 0.09375,
            "durationTicks": 18,
            "midi": 75,
            "name": "D#5",
            "ticks": 40200,
            "time": 209.375,
            "velocity": 0.6771653543307087
          },
          {
            "duration": 0.09375,
            "durationTicks": 18,
            "midi": 82,
            "name": "A#5",
            "ticks": 40200,
            "time": 209.375,
            "velocity": 0.5984251968503937
          },
          {
            "duration": 0.2708333333333428,
            "durationTicks": 52,
            "midi": 46,
            "name": "A#2",
            "ticks": 40224,
            "time": 209.5,
            "velocity": 0.6299212598425197
          },
          {
            "duration": 0.25,
            "durationTicks": 48,
            "midi": 58,
            "name": "A#3",
            "ticks": 40224,
            "time": 209.5,
            "velocity": 0.4015748031496063
          },
          {
            "duration": 0.203125,
            "durationTicks": 39,
            "midi": 75,
            "name": "D#5",
            "ticks": 40224,
            "time": 209.5,
            "velocity": 0.7007874015748031
          },
          {
            "duration": 0.1979166666666572,
            "durationTicks": 38,
            "midi": 82,
            "name": "A#5",
            "ticks": 40224,
            "time": 209.5,
            "velocity": 0.6299212598425197
          },
          {
            "duration": 0.1875,
            "durationTicks": 36,
            "midi": 58,
            "name": "A#3",
            "ticks": 40272,
            "time": 209.75,
            "velocity": 0.3543307086614173
          },
          {
            "duration": 0.46875,
            "durationTicks": 90,
            "midi": 72,
            "name": "C5",
            "ticks": 40272,
            "time": 209.75,
            "velocity": 0.6771653543307087
          },
          {
            "duration": 0.46875,
            "durationTicks": 90,
            "midi": 82,
            "name": "A#5",
            "ticks": 40272,
            "time": 209.75,
            "velocity": 0.48031496062992124
          },
          {
            "duration": 0.5104166666666572,
            "durationTicks": 98,
            "midi": 45,
            "name": "A2",
            "ticks": 40308,
            "time": 209.9375,
            "velocity": 0.6614173228346457
          },
          {
            "duration": 1.8958333333333428,
            "durationTicks": 364,
            "midi": 53,
            "name": "F3",
            "ticks": 40316,
            "time": 209.97916666666666,
            "velocity": 0.5590551181102362
          },
          {
            "duration": 0.25,
            "durationTicks": 48,
            "midi": 57,
            "name": "A3",
            "ticks": 40320,
            "time": 210,
            "velocity": 0.6220472440944882
          },
          {
            "duration": 0.25,
            "durationTicks": 48,
            "midi": 57,
            "name": "A3",
            "ticks": 40368,
            "time": 210.25,
            "velocity": 0.4409448818897638
          },
          {
            "duration": 0.09375,
            "durationTicks": 18,
            "midi": 81,
            "name": "A5",
            "ticks": 40368,
            "time": 210.25,
            "velocity": 0.6535433070866141
          },
          {
            "duration": 0.09375,
            "durationTicks": 18,
            "midi": 78,
            "name": "F#5",
            "ticks": 40392,
            "time": 210.375,
            "velocity": 0.6771653543307087
          },
          {
            "duration": 0.09375,
            "durationTicks": 18,
            "midi": 81,
            "name": "A5",
            "ticks": 40392,
            "time": 210.375,
            "velocity": 0.6929133858267716
          },
          {
            "duration": 0.4739583333333428,
            "durationTicks": 91,
            "midi": 45,
            "name": "A2",
            "ticks": 40416,
            "time": 210.5,
            "velocity": 0.6299212598425197
          },
          {
            "duration": 0.25,
            "durationTicks": 48,
            "midi": 57,
            "name": "A3",
            "ticks": 40416,
            "time": 210.5,
            "velocity": 0.4566929133858268
          },
          {
            "duration": 0.2708333333333428,
            "durationTicks": 52,
            "midi": 78,
            "name": "F#5",
            "ticks": 40416,
            "time": 210.5,
            "velocity": 0.7007874015748031
          },
          {
            "duration": 0.2708333333333428,
            "durationTicks": 52,
            "midi": 81,
            "name": "A5",
            "ticks": 40416,
            "time": 210.5,
            "velocity": 0.7322834645669292
          },
          {
            "duration": 0.25,
            "durationTicks": 48,
            "midi": 57,
            "name": "A3",
            "ticks": 40464,
            "time": 210.75,
            "velocity": 0.3937007874015748
          },
          {
            "duration": 0.09375,
            "durationTicks": 18,
            "midi": 77,
            "name": "F5",
            "ticks": 40488,
            "time": 210.875,
            "velocity": 0.6771653543307087
          },
          {
            "duration": 0.09375,
            "durationTicks": 18,
            "midi": 81,
            "name": "A5",
            "ticks": 40488,
            "time": 210.875,
            "velocity": 0.6929133858267716
          },
          {
            "duration": 0.4739583333333428,
            "durationTicks": 91,
            "midi": 45,
            "name": "A2",
            "ticks": 40512,
            "time": 211,
            "velocity": 0.6299212598425197
          },
          {
            "duration": 0.25,
            "durationTicks": 48,
            "midi": 57,
            "name": "A3",
            "ticks": 40512,
            "time": 211,
            "velocity": 0.44881889763779526
          },
          {
            "duration": 0.3020833333333428,
            "durationTicks": 58,
            "midi": 77,
            "name": "F5",
            "ticks": 40512,
            "time": 211,
            "velocity": 0.7007874015748031
          },
          {
            "duration": 0.3020833333333428,
            "durationTicks": 58,
            "midi": 81,
            "name": "A5",
            "ticks": 40512,
            "time": 211,
            "velocity": 0.7322834645669292
          },
          {
            "duration": 0.25,
            "durationTicks": 48,
            "midi": 57,
            "name": "A3",
            "ticks": 40560,
            "time": 211.25,
            "velocity": 0.3779527559055118
          },
          {
            "duration": 0.09375,
            "durationTicks": 18,
            "midi": 75,
            "name": "D#5",
            "ticks": 40584,
            "time": 211.375,
            "velocity": 0.6771653543307087
          },
          {
            "duration": 0.09375,
            "durationTicks": 18,
            "midi": 81,
            "name": "A5",
            "ticks": 40584,
            "time": 211.375,
            "velocity": 0.5984251968503937
          },
          {
            "duration": 0.3541666666666572,
            "durationTicks": 68,
            "midi": 45,
            "name": "A2",
            "ticks": 40608,
            "time": 211.5,
            "velocity": 0.6299212598425197
          },
          {
            "duration": 0.25,
            "durationTicks": 48,
            "midi": 57,
            "name": "A3",
            "ticks": 40608,
            "time": 211.5,
            "velocity": 0.4015748031496063
          },
          {
            "duration": 0.203125,
            "durationTicks": 39,
            "midi": 75,
            "name": "D#5",
            "ticks": 40608,
            "time": 211.5,
            "velocity": 0.7007874015748031
          },
          {
            "duration": 0.1979166666666572,
            "durationTicks": 38,
            "midi": 81,
            "name": "A5",
            "ticks": 40608,
            "time": 211.5,
            "velocity": 0.6299212598425197
          },
          {
            "duration": 0.1875,
            "durationTicks": 36,
            "midi": 57,
            "name": "A3",
            "ticks": 40656,
            "time": 211.75,
            "velocity": 0.3543307086614173
          },
          {
            "duration": 0.46875,
            "durationTicks": 90,
            "midi": 72,
            "name": "C5",
            "ticks": 40656,
            "time": 211.75,
            "velocity": 0.6771653543307087
          },
          {
            "duration": 0.46875,
            "durationTicks": 90,
            "midi": 81,
            "name": "A5",
            "ticks": 40656,
            "time": 211.75,
            "velocity": 0.48031496062992124
          },
          {
            "duration": 0.484375,
            "durationTicks": 93,
            "midi": 44,
            "name": "G#2",
            "ticks": 40697,
            "time": 211.96354166666666,
            "velocity": 0.6614173228346457
          },
          {
            "duration": 1.859375,
            "durationTicks": 357,
            "midi": 51,
            "name": "D#3",
            "ticks": 40700,
            "time": 211.97916666666666,
            "velocity": 0.5433070866141733
          },
          {
            "duration": 0.25,
            "durationTicks": 48,
            "midi": 56,
            "name": "G#3",
            "ticks": 40704,
            "time": 212,
            "velocity": 0.6220472440944882
          },
          {
            "duration": 0.25,
            "durationTicks": 48,
            "midi": 56,
            "name": "G#3",
            "ticks": 40752,
            "time": 212.25,
            "velocity": 0.4409448818897638
          },
          {
            "duration": 0.09375,
            "durationTicks": 18,
            "midi": 80,
            "name": "G#5",
            "ticks": 40752,
            "time": 212.25,
            "velocity": 0.6929133858267716
          },
          {
            "duration": 0.09375,
            "durationTicks": 18,
            "midi": 77,
            "name": "F5",
            "ticks": 40776,
            "time": 212.375,
            "velocity": 0.6771653543307087
          },
          {
            "duration": 0.09375,
            "durationTicks": 18,
            "midi": 80,
            "name": "G#5",
            "ticks": 40776,
            "time": 212.375,
            "velocity": 0.6929133858267716
          },
          {
            "duration": 0.4739583333333428,
            "durationTicks": 91,
            "midi": 44,
            "name": "G#2",
            "ticks": 40800,
            "time": 212.5,
            "velocity": 0.6299212598425197
          },
          {
            "duration": 0.25,
            "durationTicks": 48,
            "midi": 56,
            "name": "G#3",
            "ticks": 40800,
            "time": 212.5,
            "velocity": 0.4566929133858268
          },
          {
            "duration": 0.2708333333333428,
            "durationTicks": 52,
            "midi": 77,
            "name": "F5",
            "ticks": 40800,
            "time": 212.5,
            "velocity": 0.7007874015748031
          },
          {
            "duration": 0.25,
            "durationTicks": 48,
            "midi": 80,
            "name": "G#5",
            "ticks": 40800,
            "time": 212.5,
            "velocity": 0.7322834645669292
          },
          {
            "duration": 0.25,
            "durationTicks": 48,
            "midi": 56,
            "name": "G#3",
            "ticks": 40848,
            "time": 212.75,
            "velocity": 0.3937007874015748
          },
          {
            "duration": 0.09375,
            "durationTicks": 18,
            "midi": 80,
            "name": "G#5",
            "ticks": 40848,
            "time": 212.75,
            "velocity": 0.4330708661417323
          },
          {
            "duration": 0.09375,
            "durationTicks": 18,
            "midi": 75,
            "name": "D#5",
            "ticks": 40872,
            "time": 212.875,
            "velocity": 0.6771653543307087
          },
          {
            "duration": 0.09375,
            "durationTicks": 18,
            "midi": 80,
            "name": "G#5",
            "ticks": 40872,
            "time": 212.875,
            "velocity": 0.6929133858267716
          },
          {
            "duration": 0.4739583333333428,
            "durationTicks": 91,
            "midi": 44,
            "name": "G#2",
            "ticks": 40896,
            "time": 213,
            "velocity": 0.6299212598425197
          },
          {
            "duration": 0.25,
            "durationTicks": 48,
            "midi": 56,
            "name": "G#3",
            "ticks": 40896,
            "time": 213,
            "velocity": 0.44881889763779526
          },
          {
            "duration": 0.3020833333333428,
            "durationTicks": 58,
            "midi": 75,
            "name": "D#5",
            "ticks": 40896,
            "time": 213,
            "velocity": 0.7007874015748031
          },
          {
            "duration": 0.25,
            "durationTicks": 48,
            "midi": 80,
            "name": "G#5",
            "ticks": 40896,
            "time": 213,
            "velocity": 0.7322834645669292
          },
          {
            "duration": 0.25,
            "durationTicks": 48,
            "midi": 56,
            "name": "G#3",
            "ticks": 40944,
            "time": 213.25,
            "velocity": 0.3779527559055118
          },
          {
            "duration": 0.09375,
            "durationTicks": 18,
            "midi": 80,
            "name": "G#5",
            "ticks": 40944,
            "time": 213.25,
            "velocity": 0.4251968503937008
          },
          {
            "duration": 0.09375,
            "durationTicks": 18,
            "midi": 73,
            "name": "C#5",
            "ticks": 40968,
            "time": 213.375,
            "velocity": 0.6771653543307087
          },
          {
            "duration": 0.09375,
            "durationTicks": 18,
            "midi": 80,
            "name": "G#5",
            "ticks": 40968,
            "time": 213.375,
            "velocity": 0.5984251968503937
          },
          {
            "duration": 0.3177083333333428,
            "durationTicks": 61,
            "midi": 44,
            "name": "G#2",
            "ticks": 40992,
            "time": 213.5,
            "velocity": 0.6299212598425197
          },
          {
            "duration": 0.25,
            "durationTicks": 48,
            "midi": 56,
            "name": "G#3",
            "ticks": 40992,
            "time": 213.5,
            "velocity": 0.4015748031496063
          },
          {
            "duration": 0.203125,
            "durationTicks": 39,
            "midi": 73,
            "name": "C#5",
            "ticks": 40992,
            "time": 213.5,
            "velocity": 0.7007874015748031
          },
          {
            "duration": 0.1979166666666572,
            "durationTicks": 38,
            "midi": 80,
            "name": "G#5",
            "ticks": 40992,
            "time": 213.5,
            "velocity": 0.6299212598425197
          },
          {
            "duration": 0.1875,
            "durationTicks": 36,
            "midi": 56,
            "name": "G#3",
            "ticks": 41040,
            "time": 213.75,
            "velocity": 0.3543307086614173
          },
          {
            "duration": 0.46875,
            "durationTicks": 90,
            "midi": 72,
            "name": "C5",
            "ticks": 41040,
            "time": 213.75,
            "velocity": 0.6771653543307087
          },
          {
            "duration": 0.46875,
            "durationTicks": 90,
            "midi": 80,
            "name": "G#5",
            "ticks": 41040,
            "time": 213.75,
            "velocity": 0.48031496062992124
          },
          {
            "duration": 0.4947916666666572,
            "durationTicks": 95,
            "midi": 43,
            "name": "G2",
            "ticks": 41079,
            "time": 213.953125,
            "velocity": 0.6614173228346457
          },
          {
            "duration": 1.9375,
            "durationTicks": 372,
            "midi": 51,
            "name": "D#3",
            "ticks": 41084,
            "time": 213.97916666666666,
            "velocity": 0.49606299212598426
          },
          {
            "duration": 0.25,
            "durationTicks": 48,
            "midi": 55,
            "name": "G3",
            "ticks": 41088,
            "time": 214,
            "velocity": 0.6220472440944882
          },
          {
            "duration": 0.25,
            "durationTicks": 48,
            "midi": 55,
            "name": "G3",
            "ticks": 41136,
            "time": 214.25,
            "velocity": 0.4409448818897638
          },
          {
            "duration": 0.09375,
            "durationTicks": 18,
            "midi": 79,
            "name": "G5",
            "ticks": 41136,
            "time": 214.25,
            "velocity": 0.4409448818897638
          },
          {
            "duration": 0.09375,
            "durationTicks": 18,
            "midi": 77,
            "name": "F5",
            "ticks": 41160,
            "time": 214.375,
            "velocity": 0.6771653543307087
          },
          {
            "duration": 0.09375,
            "durationTicks": 18,
            "midi": 79,
            "name": "G5",
            "ticks": 41160,
            "time": 214.375,
            "velocity": 0.6929133858267716
          },
          {
            "duration": 0.4739583333333428,
            "durationTicks": 91,
            "midi": 43,
            "name": "G2",
            "ticks": 41184,
            "time": 214.5,
            "velocity": 0.6299212598425197
          },
          {
            "duration": 0.25,
            "durationTicks": 48,
            "midi": 55,
            "name": "G3",
            "ticks": 41184,
            "time": 214.5,
            "velocity": 0.4566929133858268
          },
          {
            "duration": 0.2708333333333428,
            "durationTicks": 52,
            "midi": 77,
            "name": "F5",
            "ticks": 41184,
            "time": 214.5,
            "velocity": 0.7007874015748031
          },
          {
            "duration": 0.25,
            "durationTicks": 48,
            "midi": 79,
            "name": "G5",
            "ticks": 41184,
            "time": 214.5,
            "velocity": 0.7322834645669292
          },
          {
            "duration": 0.25,
            "durationTicks": 48,
            "midi": 55,
            "name": "G3",
            "ticks": 41232,
            "time": 214.75,
            "velocity": 0.3937007874015748
          },
          {
            "duration": 0.09375,
            "durationTicks": 18,
            "midi": 79,
            "name": "G5",
            "ticks": 41232,
            "time": 214.75,
            "velocity": 0.5039370078740157
          },
          {
            "duration": 0.09375,
            "durationTicks": 18,
            "midi": 75,
            "name": "D#5",
            "ticks": 41256,
            "time": 214.875,
            "velocity": 0.6771653543307087
          },
          {
            "duration": 0.09375,
            "durationTicks": 18,
            "midi": 79,
            "name": "G5",
            "ticks": 41256,
            "time": 214.875,
            "velocity": 0.6929133858267716
          },
          {
            "duration": 0.4739583333333428,
            "durationTicks": 91,
            "midi": 43,
            "name": "G2",
            "ticks": 41280,
            "time": 215,
            "velocity": 0.6299212598425197
          },
          {
            "duration": 0.25,
            "durationTicks": 48,
            "midi": 55,
            "name": "G3",
            "ticks": 41280,
            "time": 215,
            "velocity": 0.44881889763779526
          },
          {
            "duration": 0.3020833333333428,
            "durationTicks": 58,
            "midi": 75,
            "name": "D#5",
            "ticks": 41280,
            "time": 215,
            "velocity": 0.7007874015748031
          },
          {
            "duration": 0.25,
            "durationTicks": 48,
            "midi": 79,
            "name": "G5",
            "ticks": 41280,
            "time": 215,
            "velocity": 0.7322834645669292
          },
          {
            "duration": 0.25,
            "durationTicks": 48,
            "midi": 55,
            "name": "G3",
            "ticks": 41328,
            "time": 215.25,
            "velocity": 0.3779527559055118
          },
          {
            "duration": 0.09375,
            "durationTicks": 18,
            "midi": 79,
            "name": "G5",
            "ticks": 41328,
            "time": 215.25,
            "velocity": 0.5039370078740157
          },
          {
            "duration": 0.09375,
            "durationTicks": 18,
            "midi": 73,
            "name": "C#5",
            "ticks": 41352,
            "time": 215.375,
            "velocity": 0.6771653543307087
          },
          {
            "duration": 0.09375,
            "durationTicks": 18,
            "midi": 79,
            "name": "G5",
            "ticks": 41352,
            "time": 215.375,
            "velocity": 0.5984251968503937
          },
          {
            "duration": 0.3541666666666572,
            "durationTicks": 68,
            "midi": 43,
            "name": "G2",
            "ticks": 41376,
            "time": 215.5,
            "velocity": 0.6299212598425197
          },
          {
            "duration": 0.25,
            "durationTicks": 48,
            "midi": 55,
            "name": "G3",
            "ticks": 41376,
            "time": 215.5,
            "velocity": 0.4015748031496063
          },
          {
            "duration": 0.203125,
            "durationTicks": 39,
            "midi": 73,
            "name": "C#5",
            "ticks": 41376,
            "time": 215.5,
            "velocity": 0.7007874015748031
          },
          {
            "duration": 0.1979166666666572,
            "durationTicks": 38,
            "midi": 79,
            "name": "G5",
            "ticks": 41376,
            "time": 215.5,
            "velocity": 0.6299212598425197
          },
          {
            "duration": 0.1875,
            "durationTicks": 36,
            "midi": 55,
            "name": "G3",
            "ticks": 41424,
            "time": 215.75,
            "velocity": 0.3543307086614173
          },
          {
            "duration": 0.46875,
            "durationTicks": 90,
            "midi": 70,
            "name": "A#4",
            "ticks": 41424,
            "time": 215.75,
            "velocity": 0.6771653543307087
          },
          {
            "duration": 0.46875,
            "durationTicks": 90,
            "midi": 79,
            "name": "G5",
            "ticks": 41424,
            "time": 215.75,
            "velocity": 0.48031496062992124
          },
          {
            "duration": 0.4895833333333144,
            "durationTicks": 94,
            "midi": 46,
            "name": "A#2",
            "ticks": 41464,
            "time": 215.95833333333334,
            "velocity": 0.6614173228346457
          },
          {
            "duration": 1.875,
            "durationTicks": 360,
            "midi": 53,
            "name": "F3",
            "ticks": 41467,
            "time": 215.97395833333334,
            "velocity": 0.5511811023622047
          },
          {
            "duration": 0.25,
            "durationTicks": 48,
            "midi": 58,
            "name": "A#3",
            "ticks": 41472,
            "time": 216,
            "velocity": 0.6614173228346457
          },
          {
            "duration": 0.25,
            "durationTicks": 48,
            "midi": 58,
            "name": "A#3",
            "ticks": 41520,
            "time": 216.25,
            "velocity": 0.4645669291338583
          },
          {
            "duration": 0.09375,
            "durationTicks": 18,
            "midi": 82,
            "name": "A#5",
            "ticks": 41520,
            "time": 216.25,
            "velocity": 0.5433070866141733
          },
          {
            "duration": 0.09375,
            "durationTicks": 18,
            "midi": 78,
            "name": "F#5",
            "ticks": 41544,
            "time": 216.375,
            "velocity": 0.6771653543307087
          },
          {
            "duration": 0.09375,
            "durationTicks": 18,
            "midi": 82,
            "name": "A#5",
            "ticks": 41544,
            "time": 216.375,
            "velocity": 0.6929133858267716
          },
          {
            "duration": 0.4739583333333428,
            "durationTicks": 91,
            "midi": 46,
            "name": "A#2",
            "ticks": 41568,
            "time": 216.5,
            "velocity": 0.6299212598425197
          },
          {
            "duration": 0.25,
            "durationTicks": 48,
            "midi": 58,
            "name": "A#3",
            "ticks": 41568,
            "time": 216.5,
            "velocity": 0.4881889763779528
          },
          {
            "duration": 0.2708333333333428,
            "durationTicks": 52,
            "midi": 78,
            "name": "F#5",
            "ticks": 41568,
            "time": 216.5,
            "velocity": 0.7007874015748031
          },
          {
            "duration": 0.2708333333333428,
            "durationTicks": 52,
            "midi": 82,
            "name": "A#5",
            "ticks": 41568,
            "time": 216.5,
            "velocity": 0.7322834645669292
          },
          {
            "duration": 0.25,
            "durationTicks": 48,
            "midi": 58,
            "name": "A#3",
            "ticks": 41616,
            "time": 216.75,
            "velocity": 0.41732283464566927
          },
          {
            "duration": 0.09375,
            "durationTicks": 18,
            "midi": 77,
            "name": "F5",
            "ticks": 41640,
            "time": 216.875,
            "velocity": 0.6771653543307087
          },
          {
            "duration": 0.09375,
            "durationTicks": 18,
            "midi": 82,
            "name": "A#5",
            "ticks": 41640,
            "time": 216.875,
            "velocity": 0.6929133858267716
          },
          {
            "duration": 0.4739583333333428,
            "durationTicks": 91,
            "midi": 46,
            "name": "A#2",
            "ticks": 41664,
            "time": 217,
            "velocity": 0.6299212598425197
          },
          {
            "duration": 0.25,
            "durationTicks": 48,
            "midi": 58,
            "name": "A#3",
            "ticks": 41664,
            "time": 217,
            "velocity": 0.4645669291338583
          },
          {
            "duration": 0.3020833333333428,
            "durationTicks": 58,
            "midi": 77,
            "name": "F5",
            "ticks": 41664,
            "time": 217,
            "velocity": 0.7007874015748031
          },
          {
            "duration": 0.3020833333333428,
            "durationTicks": 58,
            "midi": 82,
            "name": "A#5",
            "ticks": 41664,
            "time": 217,
            "velocity": 0.7322834645669292
          },
          {
            "duration": 0.25,
            "durationTicks": 48,
            "midi": 58,
            "name": "A#3",
            "ticks": 41712,
            "time": 217.25,
            "velocity": 0.4015748031496063
          },
          {
            "duration": 0.09375,
            "durationTicks": 18,
            "midi": 80,
            "name": "G#5",
            "ticks": 41736,
            "time": 217.375,
            "velocity": 0.6771653543307087
          },
          {
            "duration": 0.09375,
            "durationTicks": 18,
            "midi": 82,
            "name": "A#5",
            "ticks": 41736,
            "time": 217.375,
            "velocity": 0.5984251968503937
          },
          {
            "duration": 0.3541666666666572,
            "durationTicks": 68,
            "midi": 46,
            "name": "A#2",
            "ticks": 41760,
            "time": 217.5,
            "velocity": 0.6299212598425197
          },
          {
            "duration": 0.25,
            "durationTicks": 48,
            "midi": 58,
            "name": "A#3",
            "ticks": 41760,
            "time": 217.5,
            "velocity": 0.4330708661417323
          },
          {
            "duration": 0.203125,
            "durationTicks": 39,
            "midi": 80,
            "name": "G#5",
            "ticks": 41760,
            "time": 217.5,
            "velocity": 0.7007874015748031
          },
          {
            "duration": 0.1979166666666572,
            "durationTicks": 38,
            "midi": 82,
            "name": "A#5",
            "ticks": 41760,
            "time": 217.5,
            "velocity": 0.6299212598425197
          },
          {
            "duration": 0.1875,
            "durationTicks": 36,
            "midi": 58,
            "name": "A#3",
            "ticks": 41808,
            "time": 217.75,
            "velocity": 0.41732283464566927
          },
          {
            "duration": 0.46875,
            "durationTicks": 90,
            "midi": 78,
            "name": "F#5",
            "ticks": 41808,
            "time": 217.75,
            "velocity": 0.6771653543307087
          },
          {
            "duration": 0.46875,
            "durationTicks": 90,
            "midi": 82,
            "name": "A#5",
            "ticks": 41808,
            "time": 217.75,
            "velocity": 0.48031496062992124
          },
          {
            "duration": 0.4895833333333144,
            "durationTicks": 94,
            "midi": 48,
            "name": "C3",
            "ticks": 41848,
            "time": 217.95833333333334,
            "velocity": 0.6614173228346457
          },
          {
            "duration": 1.9791666666666856,
            "durationTicks": 380,
            "midi": 55,
            "name": "G3",
            "ticks": 41852,
            "time": 217.97916666666666,
            "velocity": 0.5196850393700787
          },
          {
            "duration": 0.25,
            "durationTicks": 48,
            "midi": 60,
            "name": "C4",
            "ticks": 41856,
            "time": 218,
            "velocity": 0.7007874015748031
          },
          {
            "duration": 0.25,
            "durationTicks": 48,
            "midi": 60,
            "name": "C4",
            "ticks": 41904,
            "time": 218.25,
            "velocity": 0.5669291338582677
          },
          {
            "duration": 0.09375,
            "durationTicks": 18,
            "midi": 84,
            "name": "C6",
            "ticks": 41904,
            "time": 218.25,
            "velocity": 0.5196850393700787
          },
          {
            "duration": 0.09375,
            "durationTicks": 18,
            "midi": 78,
            "name": "F#5",
            "ticks": 41928,
            "time": 218.375,
            "velocity": 0.6771653543307087
          },
          {
            "duration": 0.09375,
            "durationTicks": 18,
            "midi": 84,
            "name": "C6",
            "ticks": 41928,
            "time": 218.375,
            "velocity": 0.6929133858267716
          },
          {
            "duration": 0.4739583333333428,
            "durationTicks": 91,
            "midi": 48,
            "name": "C3",
            "ticks": 41952,
            "time": 218.5,
            "velocity": 0.6299212598425197
          },
          {
            "duration": 0.25,
            "durationTicks": 48,
            "midi": 60,
            "name": "C4",
            "ticks": 41952,
            "time": 218.5,
            "velocity": 0.5511811023622047
          },
          {
            "duration": 0.2708333333333428,
            "durationTicks": 52,
            "midi": 78,
            "name": "F#5",
            "ticks": 41952,
            "time": 218.5,
            "velocity": 0.7007874015748031
          },
          {
            "duration": 0.2708333333333428,
            "durationTicks": 52,
            "midi": 84,
            "name": "C6",
            "ticks": 41952,
            "time": 218.5,
            "velocity": 0.7322834645669292
          },
          {
            "duration": 0.25,
            "durationTicks": 48,
            "midi": 60,
            "name": "C4",
            "ticks": 42000,
            "time": 218.75,
            "velocity": 0.5118110236220472
          },
          {
            "duration": 0.09375,
            "durationTicks": 18,
            "midi": 77,
            "name": "F5",
            "ticks": 42024,
            "time": 218.875,
            "velocity": 0.6771653543307087
          },
          {
            "duration": 0.09375,
            "durationTicks": 18,
            "midi": 84,
            "name": "C6",
            "ticks": 42024,
            "time": 218.875,
            "velocity": 0.6929133858267716
          },
          {
            "duration": 0.4739583333333428,
            "durationTicks": 91,
            "midi": 48,
            "name": "C3",
            "ticks": 42048,
            "time": 219,
            "velocity": 0.6299212598425197
          },
          {
            "duration": 0.25,
            "durationTicks": 48,
            "midi": 60,
            "name": "C4",
            "ticks": 42048,
            "time": 219,
            "velocity": 0.5354330708661418
          },
          {
            "duration": 0.3020833333333428,
            "durationTicks": 58,
            "midi": 77,
            "name": "F5",
            "ticks": 42048,
            "time": 219,
            "velocity": 0.7007874015748031
          },
          {
            "duration": 0.3020833333333428,
            "durationTicks": 58,
            "midi": 84,
            "name": "C6",
            "ticks": 42048,
            "time": 219,
            "velocity": 0.7322834645669292
          },
          {
            "duration": 0.25,
            "durationTicks": 48,
            "midi": 60,
            "name": "C4",
            "ticks": 42096,
            "time": 219.25,
            "velocity": 0.4881889763779528
          },
          {
            "duration": 0.09375,
            "durationTicks": 18,
            "midi": 80,
            "name": "G#5",
            "ticks": 42120,
            "time": 219.375,
            "velocity": 0.6771653543307087
          },
          {
            "duration": 0.09375,
            "durationTicks": 18,
            "midi": 84,
            "name": "C6",
            "ticks": 42120,
            "time": 219.375,
            "velocity": 0.5984251968503937
          },
          {
            "duration": 0.3541666666666572,
            "durationTicks": 68,
            "midi": 48,
            "name": "C3",
            "ticks": 42144,
            "time": 219.5,
            "velocity": 0.6299212598425197
          },
          {
            "duration": 0.25,
            "durationTicks": 48,
            "midi": 60,
            "name": "C4",
            "ticks": 42144,
            "time": 219.5,
            "velocity": 0.4881889763779528
          },
          {
            "duration": 0.203125,
            "durationTicks": 39,
            "midi": 80,
            "name": "G#5",
            "ticks": 42144,
            "time": 219.5,
            "velocity": 0.7007874015748031
          },
          {
            "duration": 0.1979166666666572,
            "durationTicks": 38,
            "midi": 84,
            "name": "C6",
            "ticks": 42144,
            "time": 219.5,
            "velocity": 0.6299212598425197
          },
          {
            "duration": 0.1875,
            "durationTicks": 36,
            "midi": 60,
            "name": "C4",
            "ticks": 42192,
            "time": 219.75,
            "velocity": 0.4566929133858268
          },
          {
            "duration": 0.46875,
            "durationTicks": 90,
            "midi": 78,
            "name": "F#5",
            "ticks": 42192,
            "time": 219.75,
            "velocity": 0.6771653543307087
          },
          {
            "duration": 0.46875,
            "durationTicks": 90,
            "midi": 84,
            "name": "C6",
            "ticks": 42192,
            "time": 219.75,
            "velocity": 0.48031496062992124
          },
          {
            "duration": 0.4739583333333144,
            "durationTicks": 91,
            "midi": 49,
            "name": "C#3",
            "ticks": 42235,
            "time": 219.97395833333334,
            "velocity": 0.6614173228346457
          },
          {
            "duration": 1.9739583333333428,
            "durationTicks": 379,
            "midi": 56,
            "name": "G#3",
            "ticks": 42237,
            "time": 219.984375,
            "velocity": 0.5590551181102362
          },
          {
            "duration": 0.25,
            "durationTicks": 48,
            "midi": 61,
            "name": "C#4",
            "ticks": 42240,
            "time": 220,
            "velocity": 0.6456692913385826
          },
          {
            "duration": 0.25,
            "durationTicks": 48,
            "midi": 61,
            "name": "C#4",
            "ticks": 42288,
            "time": 220.25,
            "velocity": 0.6614173228346457
          },
          {
            "duration": 0.09375,
            "durationTicks": 18,
            "midi": 85,
            "name": "C#6",
            "ticks": 42288,
            "time": 220.25,
            "velocity": 0.4881889763779528
          },
          {
            "duration": 0.09375,
            "durationTicks": 18,
            "midi": 78,
            "name": "F#5",
            "ticks": 42312,
            "time": 220.375,
            "velocity": 0.6771653543307087
          },
          {
            "duration": 0.09375,
            "durationTicks": 18,
            "midi": 85,
            "name": "C#6",
            "ticks": 42312,
            "time": 220.375,
            "velocity": 0.6929133858267716
          },
          {
            "duration": 0.4427083333333428,
            "durationTicks": 85,
            "midi": 49,
            "name": "C#3",
            "ticks": 42336,
            "time": 220.5,
            "velocity": 0.6299212598425197
          },
          {
            "duration": 0.25,
            "durationTicks": 48,
            "midi": 61,
            "name": "C#4",
            "ticks": 42336,
            "time": 220.5,
            "velocity": 0.6299212598425197
          },
          {
            "duration": 0.2708333333333428,
            "durationTicks": 52,
            "midi": 78,
            "name": "F#5",
            "ticks": 42336,
            "time": 220.5,
            "velocity": 0.7007874015748031
          },
          {
            "duration": 0.2708333333333428,
            "durationTicks": 52,
            "midi": 85,
            "name": "C#6",
            "ticks": 42336,
            "time": 220.5,
            "velocity": 0.7322834645669292
          },
          {
            "duration": 0.25,
            "durationTicks": 48,
            "midi": 61,
            "name": "C#4",
            "ticks": 42384,
            "time": 220.75,
            "velocity": 0.5984251968503937
          },
          {
            "duration": 0.09375,
            "durationTicks": 18,
            "midi": 77,
            "name": "F5",
            "ticks": 42408,
            "time": 220.875,
            "velocity": 0.6771653543307087
          },
          {
            "duration": 0.09375,
            "durationTicks": 18,
            "midi": 85,
            "name": "C#6",
            "ticks": 42408,
            "time": 220.875,
            "velocity": 0.6929133858267716
          },
          {
            "duration": 0.4427083333333428,
            "durationTicks": 85,
            "midi": 49,
            "name": "C#3",
            "ticks": 42432,
            "time": 221,
            "velocity": 0.5826771653543307
          },
          {
            "duration": 0.25,
            "durationTicks": 48,
            "midi": 61,
            "name": "C#4",
            "ticks": 42432,
            "time": 221,
            "velocity": 0.5590551181102362
          },
          {
            "duration": 0.3020833333333428,
            "durationTicks": 58,
            "midi": 77,
            "name": "F5",
            "ticks": 42432,
            "time": 221,
            "velocity": 0.7007874015748031
          },
          {
            "duration": 0.3020833333333428,
            "durationTicks": 58,
            "midi": 85,
            "name": "C#6",
            "ticks": 42432,
            "time": 221,
            "velocity": 0.7322834645669292
          },
          {
            "duration": 0.25,
            "durationTicks": 48,
            "midi": 61,
            "name": "C#4",
            "ticks": 42480,
            "time": 221.25,
            "velocity": 0.5748031496062992
          },
          {
            "duration": 0.09375,
            "durationTicks": 18,
            "midi": 80,
            "name": "G#5",
            "ticks": 42504,
            "time": 221.375,
            "velocity": 0.6771653543307087
          },
          {
            "duration": 0.09375,
            "durationTicks": 18,
            "midi": 85,
            "name": "C#6",
            "ticks": 42504,
            "time": 221.375,
            "velocity": 0.5984251968503937
          },
          {
            "duration": 0.3385416666666572,
            "durationTicks": 65,
            "midi": 49,
            "name": "C#3",
            "ticks": 42528,
            "time": 221.5,
            "velocity": 0.5826771653543307
          },
          {
            "duration": 0.25,
            "durationTicks": 48,
            "midi": 61,
            "name": "C#4",
            "ticks": 42528,
            "time": 221.5,
            "velocity": 0.5511811023622047
          },
          {
            "duration": 0.203125,
            "durationTicks": 39,
            "midi": 80,
            "name": "G#5",
            "ticks": 42528,
            "time": 221.5,
            "velocity": 0.7007874015748031
          },
          {
            "duration": 0.1979166666666572,
            "durationTicks": 38,
            "midi": 85,
            "name": "C#6",
            "ticks": 42528,
            "time": 221.5,
            "velocity": 0.6299212598425197
          },
          {
            "duration": 0.234375,
            "durationTicks": 45,
            "midi": 61,
            "name": "C#4",
            "ticks": 42576,
            "time": 221.75,
            "velocity": 0.5433070866141733
          },
          {
            "duration": 0.46875,
            "durationTicks": 90,
            "midi": 78,
            "name": "F#5",
            "ticks": 42576,
            "time": 221.75,
            "velocity": 0.6771653543307087
          },
          {
            "duration": 0.46875,
            "durationTicks": 90,
            "midi": 85,
            "name": "C#6",
            "ticks": 42576,
            "time": 221.75,
            "velocity": 0.48031496062992124
          },
          {
            "duration": 1.7291666666666572,
            "durationTicks": 332,
            "midi": 52,
            "name": "E3",
            "ticks": 42622,
            "time": 221.98958333333334,
            "velocity": 0.5826771653543307
          },
          {
            "duration": 0.46875,
            "durationTicks": 90,
            "midi": 45,
            "name": "A2",
            "ticks": 42623,
            "time": 221.99479166666666,
            "velocity": 0.6220472440944882
          },
          {
            "duration": 0.25,
            "durationTicks": 48,
            "midi": 57,
            "name": "A3",
            "ticks": 42624,
            "time": 222,
            "velocity": 0.5748031496062992
          },
          {
            "duration": 0.25,
            "durationTicks": 48,
            "midi": 57,
            "name": "A3",
            "ticks": 42672,
            "time": 222.25,
            "velocity": 0.5748031496062992
          },
          {
            "duration": 0.125,
            "durationTicks": 24,
            "midi": 80,
            "name": "G#5",
            "ticks": 42672,
            "time": 222.25,
            "velocity": 0.7480314960629921
          },
          {
            "duration": 0.125,
            "durationTicks": 24,
            "midi": 81,
            "name": "A5",
            "ticks": 42672,
            "time": 222.25,
            "velocity": 0.6220472440944882
          },
          {
            "duration": 0.4427083333333428,
            "durationTicks": 85,
            "midi": 45,
            "name": "A2",
            "ticks": 42720,
            "time": 222.5,
            "velocity": 0.5826771653543307
          },
          {
            "duration": 0.25,
            "durationTicks": 48,
            "midi": 57,
            "name": "A3",
            "ticks": 42720,
            "time": 222.5,
            "velocity": 0.5590551181102362
          },
          {
            "duration": 0.25,
            "durationTicks": 48,
            "midi": 80,
            "name": "G#5",
            "ticks": 42720,
            "time": 222.5,
            "velocity": 0.7165354330708661
          },
          {
            "duration": 0.25,
            "durationTicks": 48,
            "midi": 81,
            "name": "A5",
            "ticks": 42720,
            "time": 222.5,
            "velocity": 0.7165354330708661
          },
          {
            "duration": 0.25,
            "durationTicks": 48,
            "midi": 57,
            "name": "A3",
            "ticks": 42768,
            "time": 222.75,
            "velocity": 0.5196850393700787
          },
          {
            "duration": 0.125,
            "durationTicks": 24,
            "midi": 78,
            "name": "F#5",
            "ticks": 42768,
            "time": 222.75,
            "velocity": 0.7007874015748031
          },
          {
            "duration": 0.125,
            "durationTicks": 24,
            "midi": 81,
            "name": "A5",
            "ticks": 42768,
            "time": 222.75,
            "velocity": 0.6614173228346457
          },
          {
            "duration": 0.4427083333333428,
            "durationTicks": 85,
            "midi": 45,
            "name": "A2",
            "ticks": 42816,
            "time": 223,
            "velocity": 0.5826771653543307
          },
          {
            "duration": 0.25,
            "durationTicks": 48,
            "midi": 57,
            "name": "A3",
            "ticks": 42816,
            "time": 223,
            "velocity": 0.5354330708661418
          },
          {
            "duration": 0.25,
            "durationTicks": 48,
            "midi": 78,
            "name": "F#5",
            "ticks": 42816,
            "time": 223,
            "velocity": 0.5826771653543307
          },
          {
            "duration": 0.25,
            "durationTicks": 48,
            "midi": 81,
            "name": "A5",
            "ticks": 42816,
            "time": 223,
            "velocity": 0.5826771653543307
          },
          {
            "duration": 0.25,
            "durationTicks": 48,
            "midi": 57,
            "name": "A3",
            "ticks": 42864,
            "time": 223.25,
            "velocity": 0.49606299212598426
          },
          {
            "duration": 0.125,
            "durationTicks": 24,
            "midi": 77,
            "name": "F5",
            "ticks": 42864,
            "time": 223.25,
            "velocity": 0.7007874015748031
          },
          {
            "duration": 0.125,
            "durationTicks": 24,
            "midi": 81,
            "name": "A5",
            "ticks": 42864,
            "time": 223.25,
            "velocity": 0.5511811023622047
          },
          {
            "duration": 0.3229166666666572,
            "durationTicks": 62,
            "midi": 45,
            "name": "A2",
            "ticks": 42912,
            "time": 223.5,
            "velocity": 0.5826771653543307
          },
          {
            "duration": 0.25,
            "durationTicks": 48,
            "midi": 57,
            "name": "A3",
            "ticks": 42912,
            "time": 223.5,
            "velocity": 0.4881889763779528
          },
          {
            "duration": 0.28125,
            "durationTicks": 54,
            "midi": 77,
            "name": "F5",
            "ticks": 42912,
            "time": 223.5,
            "velocity": 0.7007874015748031
          },
          {
            "duration": 0.25,
            "durationTicks": 48,
            "midi": 81,
            "name": "A5",
            "ticks": 42912,
            "time": 223.5,
            "velocity": 0.6771653543307087
          },
          {
            "duration": 0.1875,
            "durationTicks": 36,
            "midi": 57,
            "name": "A3",
            "ticks": 42960,
            "time": 223.75,
            "velocity": 0.5196850393700787
          },
          {
            "duration": 0.25,
            "durationTicks": 48,
            "midi": 75,
            "name": "D#5",
            "ticks": 42960,
            "time": 223.75,
            "velocity": 0.6535433070866141
          },
          {
            "duration": 0.25,
            "durationTicks": 48,
            "midi": 81,
            "name": "A5",
            "ticks": 42960,
            "time": 223.75,
            "velocity": 0.5748031496062992
          },
          {
            "duration": 0.6614583333333428,
            "durationTicks": 127,
            "midi": 44,
            "name": "G#2",
            "ticks": 43005,
            "time": 223.984375,
            "velocity": 0.7480314960629921
          },
          {
            "duration": 0.5364583333333428,
            "durationTicks": 103,
            "midi": 51,
            "name": "D#3",
            "ticks": 43008,
            "time": 224,
            "velocity": 0.6692913385826772
          },
          {
            "duration": 0.546875,
            "durationTicks": 105,
            "midi": 56,
            "name": "G#3",
            "ticks": 43008,
            "time": 224,
            "velocity": 0.5511811023622047
          },
          {
            "duration": 2,
            "durationTicks": 384,
            "midi": 71,
            "name": "B4",
            "ticks": 43008,
            "time": 224,
            "velocity": 0.6692913385826772
          },
          {
            "duration": 0.6614583333333428,
            "durationTicks": 127,
            "midi": 44,
            "name": "G#2",
            "ticks": 43149,
            "time": 224.734375,
            "velocity": 0.7244094488188977
          },
          {
            "duration": 0.5677083333333428,
            "durationTicks": 109,
            "midi": 51,
            "name": "D#3",
            "ticks": 43152,
            "time": 224.75,
            "velocity": 0.6377952755905512
          },
          {
            "duration": 0.625,
            "durationTicks": 120,
            "midi": 56,
            "name": "G#3",
            "ticks": 43152,
            "time": 224.75,
            "velocity": 0.5590551181102362
          },
          {
            "duration": 0.4583333333333428,
            "durationTicks": 88,
            "midi": 45,
            "name": "A2",
            "ticks": 43296,
            "time": 225.5,
            "velocity": 0.7322834645669292
          },
          {
            "duration": 0.4739583333333428,
            "durationTicks": 91,
            "midi": 52,
            "name": "E3",
            "ticks": 43296,
            "time": 225.5,
            "velocity": 0.6299212598425197
          },
          {
            "duration": 0.5,
            "durationTicks": 96,
            "midi": 57,
            "name": "A3",
            "ticks": 43296,
            "time": 225.5,
            "velocity": 0.5433070866141733
          },
          {
            "duration": 0.6614583333333428,
            "durationTicks": 127,
            "midi": 44,
            "name": "G#2",
            "ticks": 43389,
            "time": 225.984375,
            "velocity": 0.7480314960629921
          },
          {
            "duration": 0.5364583333333428,
            "durationTicks": 103,
            "midi": 51,
            "name": "D#3",
            "ticks": 43392,
            "time": 226,
            "velocity": 0.6692913385826772
          },
          {
            "duration": 0.546875,
            "durationTicks": 105,
            "midi": 56,
            "name": "G#3",
            "ticks": 43392,
            "time": 226,
            "velocity": 0.5511811023622047
          },
          {
            "duration": 1.8854166666666572,
            "durationTicks": 362,
            "midi": 70,
            "name": "A#4",
            "ticks": 43392,
            "time": 226,
            "velocity": 0.6141732283464567
          },
          {
            "duration": 0.7083333333333428,
            "durationTicks": 136,
            "midi": 44,
            "name": "G#2",
            "ticks": 43536,
            "time": 226.75,
            "velocity": 0.6771653543307087
          },
          {
            "duration": 0.6875,
            "durationTicks": 132,
            "midi": 51,
            "name": "D#3",
            "ticks": 43536,
            "time": 226.75,
            "velocity": 0.6062992125984252
          },
          {
            "duration": 0.6875,
            "durationTicks": 132,
            "midi": 56,
            "name": "G#3",
            "ticks": 43536,
            "time": 226.75,
            "velocity": 0.5354330708661418
          },
          {
            "duration": 0.4739583333333428,
            "durationTicks": 91,
            "midi": 42,
            "name": "F#2",
            "ticks": 43677,
            "time": 227.484375,
            "velocity": 0.6456692913385826
          },
          {
            "duration": 0.4791666666666856,
            "durationTicks": 92,
            "midi": 49,
            "name": "C#3",
            "ticks": 43679,
            "time": 227.49479166666666,
            "velocity": 0.5590551181102362
          },
          {
            "duration": 0.5,
            "durationTicks": 96,
            "midi": 54,
            "name": "F#3",
            "ticks": 43680,
            "time": 227.5,
            "velocity": 0.48031496062992124
          },
          {
            "duration": 0.6614583333333428,
            "durationTicks": 127,
            "midi": 44,
            "name": "G#2",
            "ticks": 43773,
            "time": 227.984375,
            "velocity": 0.7480314960629921
          },
          {
            "duration": 0.5364583333333428,
            "durationTicks": 103,
            "midi": 51,
            "name": "D#3",
            "ticks": 43776,
            "time": 228,
            "velocity": 0.6692913385826772
          },
          {
            "duration": 0.546875,
            "durationTicks": 105,
            "midi": 56,
            "name": "G#3",
            "ticks": 43776,
            "time": 228,
            "velocity": 0.5511811023622047
          },
          {
            "duration": 1.8958333333333428,
            "durationTicks": 364,
            "midi": 68,
            "name": "G#4",
            "ticks": 43776,
            "time": 228,
            "velocity": 0.6377952755905512
          },
          {
            "duration": 0.6458333333333428,
            "durationTicks": 124,
            "midi": 44,
            "name": "G#2",
            "ticks": 43920,
            "time": 228.75,
            "velocity": 0.7244094488188977
          },
          {
            "duration": 0.5677083333333428,
            "durationTicks": 109,
            "midi": 51,
            "name": "D#3",
            "ticks": 43920,
            "time": 228.75,
            "velocity": 0.6377952755905512
          },
          {
            "duration": 0.625,
            "durationTicks": 120,
            "midi": 56,
            "name": "G#3",
            "ticks": 43920,
            "time": 228.75,
            "velocity": 0.5590551181102362
          },
          {
            "duration": 0.4583333333333428,
            "durationTicks": 88,
            "midi": 45,
            "name": "A2",
            "ticks": 44064,
            "time": 229.5,
            "velocity": 0.7322834645669292
          },
          {
            "duration": 0.4739583333333428,
            "durationTicks": 91,
            "midi": 52,
            "name": "E3",
            "ticks": 44064,
            "time": 229.5,
            "velocity": 0.6299212598425197
          },
          {
            "duration": 0.5,
            "durationTicks": 96,
            "midi": 57,
            "name": "A3",
            "ticks": 44064,
            "time": 229.5,
            "velocity": 0.5433070866141733
          },
          {
            "duration": 0.6458333333333428,
            "durationTicks": 124,
            "midi": 44,
            "name": "G#2",
            "ticks": 44160,
            "time": 230,
            "velocity": 0.7716535433070866
          },
          {
            "duration": 0.5364583333333428,
            "durationTicks": 103,
            "midi": 51,
            "name": "D#3",
            "ticks": 44160,
            "time": 230,
            "velocity": 0.6456692913385826
          },
          {
            "duration": 0.546875,
            "durationTicks": 105,
            "midi": 56,
            "name": "G#3",
            "ticks": 44160,
            "time": 230,
            "velocity": 0.5669291338582677
          },
          {
            "duration": 1.7604166666666572,
            "durationTicks": 338,
            "midi": 67,
            "name": "G4",
            "ticks": 44160,
            "time": 230,
            "velocity": 0.6377952755905512
          },
          {
            "duration": 0.4947916666666572,
            "durationTicks": 95,
            "midi": 42,
            "name": "F#2",
            "ticks": 44352,
            "time": 231,
            "velocity": 0.6141732283464567
          },
          {
            "duration": 0.4895833333333428,
            "durationTicks": 94,
            "midi": 49,
            "name": "C#3",
            "ticks": 44352,
            "time": 231,
            "velocity": 0.5275590551181102
          },
          {
            "duration": 0.4895833333333428,
            "durationTicks": 94,
            "midi": 54,
            "name": "F#3",
            "ticks": 44352,
            "time": 231,
            "velocity": 0.4566929133858268
          },
          {
            "duration": 0.5208333333333428,
            "durationTicks": 100,
            "midi": 42,
            "name": "F#2",
            "ticks": 44448,
            "time": 231.5,
            "velocity": 0.6299212598425197
          },
          {
            "duration": 0.5052083333333428,
            "durationTicks": 97,
            "midi": 49,
            "name": "C#3",
            "ticks": 44448,
            "time": 231.5,
            "velocity": 0.5433070866141733
          },
          {
            "duration": 0.5,
            "durationTicks": 96,
            "midi": 54,
            "name": "F#3",
            "ticks": 44448,
            "time": 231.5,
            "velocity": 0.4645669291338583
          },
          {
            "duration": 0.6614583333333428,
            "durationTicks": 127,
            "midi": 44,
            "name": "G#2",
            "ticks": 44541,
            "time": 231.984375,
            "velocity": 0.7480314960629921
          },
          {
            "duration": 0.5364583333333428,
            "durationTicks": 103,
            "midi": 51,
            "name": "D#3",
            "ticks": 44544,
            "time": 232,
            "velocity": 0.6692913385826772
          },
          {
            "duration": 0.546875,
            "durationTicks": 105,
            "midi": 56,
            "name": "G#3",
            "ticks": 44544,
            "time": 232,
            "velocity": 0.5511811023622047
          },
          {
            "duration": 2,
            "durationTicks": 384,
            "midi": 71,
            "name": "B4",
            "ticks": 44544,
            "time": 232,
            "velocity": 0.6692913385826772
          },
          {
            "duration": 0.6614583333333428,
            "durationTicks": 127,
            "midi": 44,
            "name": "G#2",
            "ticks": 44685,
            "time": 232.734375,
            "velocity": 0.7244094488188977
          },
          {
            "duration": 0.5677083333333428,
            "durationTicks": 109,
            "midi": 51,
            "name": "D#3",
            "ticks": 44688,
            "time": 232.75,
            "velocity": 0.6377952755905512
          },
          {
            "duration": 0.625,
            "durationTicks": 120,
            "midi": 56,
            "name": "G#3",
            "ticks": 44688,
            "time": 232.75,
            "velocity": 0.5590551181102362
          },
          {
            "duration": 0.4583333333333428,
            "durationTicks": 88,
            "midi": 45,
            "name": "A2",
            "ticks": 44832,
            "time": 233.5,
            "velocity": 0.7322834645669292
          },
          {
            "duration": 0.4739583333333428,
            "durationTicks": 91,
            "midi": 52,
            "name": "E3",
            "ticks": 44832,
            "time": 233.5,
            "velocity": 0.6299212598425197
          },
          {
            "duration": 0.5,
            "durationTicks": 96,
            "midi": 57,
            "name": "A3",
            "ticks": 44832,
            "time": 233.5,
            "velocity": 0.5433070866141733
          },
          {
            "duration": 0.6614583333333428,
            "durationTicks": 127,
            "midi": 44,
            "name": "G#2",
            "ticks": 44925,
            "time": 233.984375,
            "velocity": 0.7480314960629921
          },
          {
            "duration": 0.5364583333333428,
            "durationTicks": 103,
            "midi": 51,
            "name": "D#3",
            "ticks": 44928,
            "time": 234,
            "velocity": 0.6692913385826772
          },
          {
            "duration": 0.546875,
            "durationTicks": 105,
            "midi": 56,
            "name": "G#3",
            "ticks": 44928,
            "time": 234,
            "velocity": 0.5511811023622047
          },
          {
            "duration": 1.8854166666666572,
            "durationTicks": 362,
            "midi": 70,
            "name": "A#4",
            "ticks": 44928,
            "time": 234,
            "velocity": 0.6141732283464567
          },
          {
            "duration": 0.7083333333333428,
            "durationTicks": 136,
            "midi": 44,
            "name": "G#2",
            "ticks": 45072,
            "time": 234.75,
            "velocity": 0.6771653543307087
          },
          {
            "duration": 0.6875,
            "durationTicks": 132,
            "midi": 51,
            "name": "D#3",
            "ticks": 45072,
            "time": 234.75,
            "velocity": 0.6062992125984252
          },
          {
            "duration": 0.6875,
            "durationTicks": 132,
            "midi": 56,
            "name": "G#3",
            "ticks": 45072,
            "time": 234.75,
            "velocity": 0.5354330708661418
          },
          {
            "duration": 0.4739583333333428,
            "durationTicks": 91,
            "midi": 42,
            "name": "F#2",
            "ticks": 45213,
            "time": 235.484375,
            "velocity": 0.6456692913385826
          },
          {
            "duration": 0.4791666666666856,
            "durationTicks": 92,
            "midi": 49,
            "name": "C#3",
            "ticks": 45215,
            "time": 235.49479166666666,
            "velocity": 0.5590551181102362
          },
          {
            "duration": 0.5,
            "durationTicks": 96,
            "midi": 54,
            "name": "F#3",
            "ticks": 45216,
            "time": 235.5,
            "velocity": 0.48031496062992124
          },
          {
            "duration": 0.6614583333333428,
            "durationTicks": 127,
            "midi": 44,
            "name": "G#2",
            "ticks": 45309,
            "time": 235.984375,
            "velocity": 0.7480314960629921
          },
          {
            "duration": 0.5364583333333428,
            "durationTicks": 103,
            "midi": 51,
            "name": "D#3",
            "ticks": 45312,
            "time": 236,
            "velocity": 0.6692913385826772
          },
          {
            "duration": 0.546875,
            "durationTicks": 105,
            "midi": 56,
            "name": "G#3",
            "ticks": 45312,
            "time": 236,
            "velocity": 0.5511811023622047
          },
          {
            "duration": 1.8958333333333428,
            "durationTicks": 364,
            "midi": 68,
            "name": "G#4",
            "ticks": 45312,
            "time": 236,
            "velocity": 0.6377952755905512
          },
          {
            "duration": 0.015625,
            "durationTicks": 3,
            "midi": 44,
            "name": "G#2",
            "ticks": 45453,
            "time": 236.734375,
            "velocity": 0.7244094488188977
          },
          {
            "duration": 0.6458333333333428,
            "durationTicks": 124,
            "midi": 44,
            "name": "G#2",
            "ticks": 45456,
            "time": 236.75,
            "velocity": 0.7244094488188977
          },
          {
            "duration": 0.5677083333333428,
            "durationTicks": 109,
            "midi": 51,
            "name": "D#3",
            "ticks": 45456,
            "time": 236.75,
            "velocity": 0.6377952755905512
          },
          {
            "duration": 0.625,
            "durationTicks": 120,
            "midi": 56,
            "name": "G#3",
            "ticks": 45456,
            "time": 236.75,
            "velocity": 0.5590551181102362
          },
          {
            "duration": 0.4583333333333428,
            "durationTicks": 88,
            "midi": 45,
            "name": "A2",
            "ticks": 45600,
            "time": 237.5,
            "velocity": 0.7322834645669292
          },
          {
            "duration": 0.4739583333333428,
            "durationTicks": 91,
            "midi": 52,
            "name": "E3",
            "ticks": 45600,
            "time": 237.5,
            "velocity": 0.6299212598425197
          },
          {
            "duration": 0.5,
            "durationTicks": 96,
            "midi": 57,
            "name": "A3",
            "ticks": 45600,
            "time": 237.5,
            "velocity": 0.5433070866141733
          },
          {
            "duration": 0.6458333333333428,
            "durationTicks": 124,
            "midi": 44,
            "name": "G#2",
            "ticks": 45696,
            "time": 238,
            "velocity": 0.7716535433070866
          },
          {
            "duration": 0.5364583333333428,
            "durationTicks": 103,
            "midi": 51,
            "name": "D#3",
            "ticks": 45696,
            "time": 238,
            "velocity": 0.6456692913385826
          },
          {
            "duration": 0.546875,
            "durationTicks": 105,
            "midi": 56,
            "name": "G#3",
            "ticks": 45696,
            "time": 238,
            "velocity": 0.5669291338582677
          },
          {
            "duration": 1.7604166666666572,
            "durationTicks": 338,
            "midi": 67,
            "name": "G4",
            "ticks": 45696,
            "time": 238,
            "velocity": 0.6377952755905512
          },
          {
            "duration": 0.4947916666666572,
            "durationTicks": 95,
            "midi": 42,
            "name": "F#2",
            "ticks": 45888,
            "time": 239,
            "velocity": 0.6141732283464567
          },
          {
            "duration": 0.4895833333333428,
            "durationTicks": 94,
            "midi": 49,
            "name": "C#3",
            "ticks": 45888,
            "time": 239,
            "velocity": 0.5275590551181102
          },
          {
            "duration": 0.4895833333333428,
            "durationTicks": 94,
            "midi": 54,
            "name": "F#3",
            "ticks": 45888,
            "time": 239,
            "velocity": 0.4566929133858268
          },
          {
            "duration": 0.484375,
            "durationTicks": 93,
            "midi": 42,
            "name": "F#2",
            "ticks": 45984,
            "time": 239.5,
            "velocity": 0.6299212598425197
          },
          {
            "duration": 0.5,
            "durationTicks": 96,
            "midi": 49,
            "name": "C#3",
            "ticks": 45984,
            "time": 239.5,
            "velocity": 0.5433070866141733
          },
          {
            "duration": 0.5,
            "durationTicks": 96,
            "midi": 54,
            "name": "F#3",
            "ticks": 45984,
            "time": 239.5,
            "velocity": 0.4645669291338583
          },
          {
            "duration": 0.6614583333333428,
            "durationTicks": 127,
            "midi": 42,
            "name": "F#2",
            "ticks": 46077,
            "time": 239.984375,
            "velocity": 0.7480314960629921
          },
          {
            "duration": 0.5364583333333428,
            "durationTicks": 103,
            "midi": 49,
            "name": "C#3",
            "ticks": 46080,
            "time": 240,
            "velocity": 0.6692913385826772
          },
          {
            "duration": 0.546875,
            "durationTicks": 105,
            "midi": 54,
            "name": "F#3",
            "ticks": 46080,
            "time": 240,
            "velocity": 0.5511811023622047
          },
          {
            "duration": 2,
            "durationTicks": 384,
            "midi": 69,
            "name": "A4",
            "ticks": 46080,
            "time": 240,
            "velocity": 0.6850393700787402
          },
          {
            "duration": 0.6614583333333428,
            "durationTicks": 127,
            "midi": 42,
            "name": "F#2",
            "ticks": 46221,
            "time": 240.734375,
            "velocity": 0.7244094488188977
          },
          {
            "duration": 0.5677083333333428,
            "durationTicks": 109,
            "midi": 49,
            "name": "C#3",
            "ticks": 46224,
            "time": 240.75,
            "velocity": 0.6377952755905512
          },
          {
            "duration": 0.625,
            "durationTicks": 120,
            "midi": 54,
            "name": "F#3",
            "ticks": 46224,
            "time": 240.75,
            "velocity": 0.5590551181102362
          },
          {
            "duration": 0.4583333333333428,
            "durationTicks": 88,
            "midi": 43,
            "name": "G2",
            "ticks": 46368,
            "time": 241.5,
            "velocity": 0.7322834645669292
          },
          {
            "duration": 0.4739583333333428,
            "durationTicks": 91,
            "midi": 50,
            "name": "D3",
            "ticks": 46368,
            "time": 241.5,
            "velocity": 0.6299212598425197
          },
          {
            "duration": 0.5,
            "durationTicks": 96,
            "midi": 55,
            "name": "G3",
            "ticks": 46368,
            "time": 241.5,
            "velocity": 0.5433070866141733
          },
          {
            "duration": 0.6614583333333428,
            "durationTicks": 127,
            "midi": 42,
            "name": "F#2",
            "ticks": 46461,
            "time": 241.984375,
            "velocity": 0.7480314960629921
          },
          {
            "duration": 0.5364583333333428,
            "durationTicks": 103,
            "midi": 49,
            "name": "C#3",
            "ticks": 46464,
            "time": 242,
            "velocity": 0.6692913385826772
          },
          {
            "duration": 0.546875,
            "durationTicks": 105,
            "midi": 54,
            "name": "F#3",
            "ticks": 46464,
            "time": 242,
            "velocity": 0.5511811023622047
          },
          {
            "duration": 1.8854166666666572,
            "durationTicks": 362,
            "midi": 68,
            "name": "G#4",
            "ticks": 46464,
            "time": 242,
            "velocity": 0.6377952755905512
          },
          {
            "duration": 0.7083333333333428,
            "durationTicks": 136,
            "midi": 42,
            "name": "F#2",
            "ticks": 46608,
            "time": 242.75,
            "velocity": 0.6771653543307087
          },
          {
            "duration": 0.6875,
            "durationTicks": 132,
            "midi": 49,
            "name": "C#3",
            "ticks": 46608,
            "time": 242.75,
            "velocity": 0.6062992125984252
          },
          {
            "duration": 0.6875,
            "durationTicks": 132,
            "midi": 54,
            "name": "F#3",
            "ticks": 46608,
            "time": 242.75,
            "velocity": 0.5354330708661418
          },
          {
            "duration": 0.4739583333333428,
            "durationTicks": 91,
            "midi": 40,
            "name": "E2",
            "ticks": 46749,
            "time": 243.484375,
            "velocity": 0.6456692913385826
          },
          {
            "duration": 0.4791666666666856,
            "durationTicks": 92,
            "midi": 47,
            "name": "B2",
            "ticks": 46751,
            "time": 243.49479166666666,
            "velocity": 0.5590551181102362
          },
          {
            "duration": 0.5,
            "durationTicks": 96,
            "midi": 52,
            "name": "E3",
            "ticks": 46752,
            "time": 243.5,
            "velocity": 0.48031496062992124
          },
          {
            "duration": 0.6614583333333428,
            "durationTicks": 127,
            "midi": 42,
            "name": "F#2",
            "ticks": 46845,
            "time": 243.984375,
            "velocity": 0.7480314960629921
          },
          {
            "duration": 0.5364583333333428,
            "durationTicks": 103,
            "midi": 49,
            "name": "C#3",
            "ticks": 46848,
            "time": 244,
            "velocity": 0.6692913385826772
          },
          {
            "duration": 0.546875,
            "durationTicks": 105,
            "midi": 54,
            "name": "F#3",
            "ticks": 46848,
            "time": 244,
            "velocity": 0.5511811023622047
          },
          {
            "duration": 1.8958333333333428,
            "durationTicks": 364,
            "midi": 65,
            "name": "F4",
            "ticks": 46848,
            "time": 244,
            "velocity": 0.6535433070866141
          },
          {
            "duration": 0.015625,
            "durationTicks": 3,
            "midi": 42,
            "name": "F#2",
            "ticks": 46989,
            "time": 244.734375,
            "velocity": 0.6535433070866141
          },
          {
            "duration": 0.6458333333333428,
            "durationTicks": 124,
            "midi": 42,
            "name": "F#2",
            "ticks": 46992,
            "time": 244.75,
            "velocity": 0.7244094488188977
          },
          {
            "duration": 0.5677083333333428,
            "durationTicks": 109,
            "midi": 49,
            "name": "C#3",
            "ticks": 46992,
            "time": 244.75,
            "velocity": 0.6377952755905512
          },
          {
            "duration": 0.625,
            "durationTicks": 120,
            "midi": 54,
            "name": "F#3",
            "ticks": 46992,
            "time": 244.75,
            "velocity": 0.5590551181102362
          },
          {
            "duration": 0.4583333333333428,
            "durationTicks": 88,
            "midi": 43,
            "name": "G2",
            "ticks": 47136,
            "time": 245.5,
            "velocity": 0.7322834645669292
          },
          {
            "duration": 0.4739583333333428,
            "durationTicks": 91,
            "midi": 50,
            "name": "D3",
            "ticks": 47136,
            "time": 245.5,
            "velocity": 0.6299212598425197
          },
          {
            "duration": 0.5,
            "durationTicks": 96,
            "midi": 55,
            "name": "G3",
            "ticks": 47136,
            "time": 245.5,
            "velocity": 0.5433070866141733
          },
          {
            "duration": 0.6458333333333428,
            "durationTicks": 124,
            "midi": 42,
            "name": "F#2",
            "ticks": 47232,
            "time": 246,
            "velocity": 0.7716535433070866
          },
          {
            "duration": 0.5364583333333428,
            "durationTicks": 103,
            "midi": 49,
            "name": "C#3",
            "ticks": 47232,
            "time": 246,
            "velocity": 0.6456692913385826
          },
          {
            "duration": 0.546875,
            "durationTicks": 105,
            "midi": 54,
            "name": "F#3",
            "ticks": 47232,
            "time": 246,
            "velocity": 0.5669291338582677
          },
          {
            "duration": 1.7604166666666572,
            "durationTicks": 338,
            "midi": 66,
            "name": "F#4",
            "ticks": 47232,
            "time": 246,
            "velocity": 0.6535433070866141
          },
          {
            "duration": 0.4947916666666572,
            "durationTicks": 95,
            "midi": 40,
            "name": "E2",
            "ticks": 47424,
            "time": 247,
            "velocity": 0.6141732283464567
          },
          {
            "duration": 0.4895833333333428,
            "durationTicks": 94,
            "midi": 47,
            "name": "B2",
            "ticks": 47424,
            "time": 247,
            "velocity": 0.5275590551181102
          },
          {
            "duration": 0.4895833333333428,
            "durationTicks": 94,
            "midi": 52,
            "name": "E3",
            "ticks": 47424,
            "time": 247,
            "velocity": 0.4566929133858268
          },
          {
            "duration": 0.5208333333333428,
            "durationTicks": 100,
            "midi": 40,
            "name": "E2",
            "ticks": 47520,
            "time": 247.5,
            "velocity": 0.6299212598425197
          },
          {
            "duration": 0.5052083333333428,
            "durationTicks": 97,
            "midi": 47,
            "name": "B2",
            "ticks": 47520,
            "time": 247.5,
            "velocity": 0.5433070866141733
          },
          {
            "duration": 0.5,
            "durationTicks": 96,
            "midi": 52,
            "name": "E3",
            "ticks": 47520,
            "time": 247.5,
            "velocity": 0.4645669291338583
          },
          {
            "duration": 0.6614583333333428,
            "durationTicks": 127,
            "midi": 42,
            "name": "F#2",
            "ticks": 47613,
            "time": 247.984375,
            "velocity": 0.7480314960629921
          },
          {
            "duration": 0.5364583333333428,
            "durationTicks": 103,
            "midi": 49,
            "name": "C#3",
            "ticks": 47616,
            "time": 248,
            "velocity": 0.6692913385826772
          },
          {
            "duration": 0.546875,
            "durationTicks": 105,
            "midi": 54,
            "name": "F#3",
            "ticks": 47616,
            "time": 248,
            "velocity": 0.5511811023622047
          },
          {
            "duration": 2,
            "durationTicks": 384,
            "midi": 69,
            "name": "A4",
            "ticks": 47616,
            "time": 248,
            "velocity": 0.6850393700787402
          },
          {
            "duration": 0.6614583333333428,
            "durationTicks": 127,
            "midi": 42,
            "name": "F#2",
            "ticks": 47757,
            "time": 248.734375,
            "velocity": 0.7244094488188977
          },
          {
            "duration": 0.5677083333333428,
            "durationTicks": 109,
            "midi": 49,
            "name": "C#3",
            "ticks": 47760,
            "time": 248.75,
            "velocity": 0.6377952755905512
          },
          {
            "duration": 0.625,
            "durationTicks": 120,
            "midi": 54,
            "name": "F#3",
            "ticks": 47760,
            "time": 248.75,
            "velocity": 0.5590551181102362
          },
          {
            "duration": 0.4583333333333428,
            "durationTicks": 88,
            "midi": 43,
            "name": "G2",
            "ticks": 47904,
            "time": 249.5,
            "velocity": 0.7322834645669292
          },
          {
            "duration": 0.4739583333333428,
            "durationTicks": 91,
            "midi": 50,
            "name": "D3",
            "ticks": 47904,
            "time": 249.5,
            "velocity": 0.6299212598425197
          },
          {
            "duration": 0.5,
            "durationTicks": 96,
            "midi": 55,
            "name": "G3",
            "ticks": 47904,
            "time": 249.5,
            "velocity": 0.5433070866141733
          },
          {
            "duration": 0.6614583333333428,
            "durationTicks": 127,
            "midi": 42,
            "name": "F#2",
            "ticks": 47997,
            "time": 249.984375,
            "velocity": 0.7480314960629921
          },
          {
            "duration": 0.5364583333333428,
            "durationTicks": 103,
            "midi": 49,
            "name": "C#3",
            "ticks": 48000,
            "time": 250,
            "velocity": 0.6692913385826772
          },
          {
            "duration": 0.546875,
            "durationTicks": 105,
            "midi": 54,
            "name": "F#3",
            "ticks": 48000,
            "time": 250,
            "velocity": 0.5511811023622047
          },
          {
            "duration": 1.8854166666666572,
            "durationTicks": 362,
            "midi": 68,
            "name": "G#4",
            "ticks": 48000,
            "time": 250,
            "velocity": 0.6377952755905512
          },
          {
            "duration": 0.7083333333333428,
            "durationTicks": 136,
            "midi": 42,
            "name": "F#2",
            "ticks": 48144,
            "time": 250.75,
            "velocity": 0.6771653543307087
          },
          {
            "duration": 0.6875,
            "durationTicks": 132,
            "midi": 49,
            "name": "C#3",
            "ticks": 48144,
            "time": 250.75,
            "velocity": 0.6062992125984252
          },
          {
            "duration": 0.6875,
            "durationTicks": 132,
            "midi": 54,
            "name": "F#3",
            "ticks": 48144,
            "time": 250.75,
            "velocity": 0.5354330708661418
          },
          {
            "duration": 0.4739583333333428,
            "durationTicks": 91,
            "midi": 40,
            "name": "E2",
            "ticks": 48285,
            "time": 251.484375,
            "velocity": 0.6456692913385826
          },
          {
            "duration": 0.4791666666666856,
            "durationTicks": 92,
            "midi": 47,
            "name": "B2",
            "ticks": 48287,
            "time": 251.49479166666666,
            "velocity": 0.5590551181102362
          },
          {
            "duration": 0.5,
            "durationTicks": 96,
            "midi": 52,
            "name": "E3",
            "ticks": 48288,
            "time": 251.5,
            "velocity": 0.48031496062992124
          },
          {
            "duration": 0.6614583333333428,
            "durationTicks": 127,
            "midi": 42,
            "name": "F#2",
            "ticks": 48381,
            "time": 251.984375,
            "velocity": 0.7480314960629921
          },
          {
            "duration": 0.5364583333333428,
            "durationTicks": 103,
            "midi": 49,
            "name": "C#3",
            "ticks": 48384,
            "time": 252,
            "velocity": 0.6692913385826772
          },
          {
            "duration": 0.546875,
            "durationTicks": 105,
            "midi": 54,
            "name": "F#3",
            "ticks": 48384,
            "time": 252,
            "velocity": 0.5511811023622047
          },
          {
            "duration": 1.8958333333333428,
            "durationTicks": 364,
            "midi": 65,
            "name": "F4",
            "ticks": 48384,
            "time": 252,
            "velocity": 0.6535433070866141
          },
          {
            "duration": 0.015625,
            "durationTicks": 3,
            "midi": 42,
            "name": "F#2",
            "ticks": 48525,
            "time": 252.734375,
            "velocity": 0.7244094488188977
          },
          {
            "duration": 0.6458333333333428,
            "durationTicks": 124,
            "midi": 42,
            "name": "F#2",
            "ticks": 48528,
            "time": 252.75,
            "velocity": 0.7244094488188977
          },
          {
            "duration": 0.5677083333333428,
            "durationTicks": 109,
            "midi": 49,
            "name": "C#3",
            "ticks": 48528,
            "time": 252.75,
            "velocity": 0.6377952755905512
          },
          {
            "duration": 0.625,
            "durationTicks": 120,
            "midi": 54,
            "name": "F#3",
            "ticks": 48528,
            "time": 252.75,
            "velocity": 0.5590551181102362
          },
          {
            "duration": 0.4583333333333428,
            "durationTicks": 88,
            "midi": 43,
            "name": "G2",
            "ticks": 48672,
            "time": 253.5,
            "velocity": 0.7322834645669292
          },
          {
            "duration": 0.4739583333333428,
            "durationTicks": 91,
            "midi": 50,
            "name": "D3",
            "ticks": 48672,
            "time": 253.5,
            "velocity": 0.6299212598425197
          },
          {
            "duration": 0.5,
            "durationTicks": 96,
            "midi": 55,
            "name": "G3",
            "ticks": 48672,
            "time": 253.5,
            "velocity": 0.5433070866141733
          },
          {
            "duration": 0.6458333333333428,
            "durationTicks": 124,
            "midi": 42,
            "name": "F#2",
            "ticks": 48768,
            "time": 254,
            "velocity": 0.7716535433070866
          },
          {
            "duration": 0.5364583333333428,
            "durationTicks": 103,
            "midi": 49,
            "name": "C#3",
            "ticks": 48768,
            "time": 254,
            "velocity": 0.6456692913385826
          },
          {
            "duration": 0.546875,
            "durationTicks": 105,
            "midi": 54,
            "name": "F#3",
            "ticks": 48768,
            "time": 254,
            "velocity": 0.5669291338582677
          },
          {
            "duration": 1.8229166666666572,
            "durationTicks": 350,
            "midi": 66,
            "name": "F#4",
            "ticks": 48768,
            "time": 254,
            "velocity": 0.6535433070866141
          },
          {
            "duration": 0.4947916666666572,
            "durationTicks": 95,
            "midi": 40,
            "name": "E2",
            "ticks": 48960,
            "time": 255,
            "velocity": 0.6141732283464567
          },
          {
            "duration": 0.4895833333333428,
            "durationTicks": 94,
            "midi": 47,
            "name": "B2",
            "ticks": 48960,
            "time": 255,
            "velocity": 0.5275590551181102
          },
          {
            "duration": 0.4895833333333428,
            "durationTicks": 94,
            "midi": 52,
            "name": "E3",
            "ticks": 48960,
            "time": 255,
            "velocity": 0.4566929133858268
          },
          {
            "duration": 0.5208333333333144,
            "durationTicks": 100,
            "midi": 40,
            "name": "E2",
            "ticks": 49056,
            "time": 255.5,
            "velocity": 0.6299212598425197
          },
          {
            "duration": 0.5052083333333144,
            "durationTicks": 97,
            "midi": 47,
            "name": "B2",
            "ticks": 49056,
            "time": 255.5,
            "velocity": 0.5433070866141733
          },
          {
            "duration": 0.5,
            "durationTicks": 96,
            "midi": 52,
            "name": "E3",
            "ticks": 49056,
            "time": 255.5,
            "velocity": 0.4645669291338583
          },
          {
            "duration": 1.9583333333333144,
            "durationTicks": 376,
            "midi": 53,
            "name": "F3",
            "ticks": 49143,
            "time": 255.953125,
            "velocity": 0.5748031496062992
          },
          {
            "duration": 1.953125,
            "durationTicks": 375,
            "midi": 46,
            "name": "A#2",
            "ticks": 49146,
            "time": 255.96875,
            "velocity": 0.5748031496062992
          },
          {
            "duration": 0.25,
            "durationTicks": 48,
            "midi": 58,
            "name": "A#3",
            "ticks": 49152,
            "time": 256,
            "velocity": 0.6692913385826772
          },
          {
            "duration": 0.15104166666668561,
            "durationTicks": 29,
            "midi": 70,
            "name": "A#4",
            "ticks": 49176,
            "time": 256.125,
            "velocity": 0.47244094488188976
          },
          {
            "duration": 0.25,
            "durationTicks": 48,
            "midi": 58,
            "name": "A#3",
            "ticks": 49200,
            "time": 256.25,
            "velocity": 0.47244094488188976
          },
          {
            "duration": 0.125,
            "durationTicks": 24,
            "midi": 68,
            "name": "G#4",
            "ticks": 49200,
            "time": 256.25,
            "velocity": 0.6535433070866141
          },
          {
            "duration": 0.125,
            "durationTicks": 24,
            "midi": 70,
            "name": "A#4",
            "ticks": 49224,
            "time": 256.375,
            "velocity": 0.6535433070866141
          },
          {
            "duration": 0.25,
            "durationTicks": 48,
            "midi": 58,
            "name": "A#3",
            "ticks": 49248,
            "time": 256.5,
            "velocity": 0.49606299212598426
          },
          {
            "duration": 0.15104166666668561,
            "durationTicks": 29,
            "midi": 66,
            "name": "F#4",
            "ticks": 49248,
            "time": 256.5,
            "velocity": 0.6929133858267716
          },
          {
            "duration": 0.125,
            "durationTicks": 24,
            "midi": 70,
            "name": "A#4",
            "ticks": 49272,
            "time": 256.625,
            "velocity": 0.4251968503937008
          },
          {
            "duration": 0.25,
            "durationTicks": 48,
            "midi": 58,
            "name": "A#3",
            "ticks": 49296,
            "time": 256.75,
            "velocity": 0.4251968503937008
          },
          {
            "duration": 0.13020833333331439,
            "durationTicks": 25,
            "midi": 65,
            "name": "F4",
            "ticks": 49296,
            "time": 256.75,
            "velocity": 0.6220472440944882
          },
          {
            "duration": 0.125,
            "durationTicks": 24,
            "midi": 70,
            "name": "A#4",
            "ticks": 49320,
            "time": 256.875,
            "velocity": 0.4251968503937008
          },
          {
            "duration": 0.25,
            "durationTicks": 48,
            "midi": 58,
            "name": "A#3",
            "ticks": 49344,
            "time": 257,
            "velocity": 0.48031496062992124
          },
          {
            "duration": 0.15104166666668561,
            "durationTicks": 29,
            "midi": 64,
            "name": "E4",
            "ticks": 49344,
            "time": 257,
            "velocity": 0.6929133858267716
          },
          {
            "duration": 0.125,
            "durationTicks": 24,
            "midi": 70,
            "name": "A#4",
            "ticks": 49368,
            "time": 257.125,
            "velocity": 0.4251968503937008
          },
          {
            "duration": 0.25,
            "durationTicks": 48,
            "midi": 58,
            "name": "A#3",
            "ticks": 49392,
            "time": 257.25,
            "velocity": 0.4094488188976378
          },
          {
            "duration": 0.13020833333331439,
            "durationTicks": 25,
            "midi": 65,
            "name": "F4",
            "ticks": 49392,
            "time": 257.25,
            "velocity": 0.6220472440944882
          },
          {
            "duration": 0.125,
            "durationTicks": 24,
            "midi": 70,
            "name": "A#4",
            "ticks": 49416,
            "time": 257.375,
            "velocity": 0.4251968503937008
          },
          {
            "duration": 0.25,
            "durationTicks": 48,
            "midi": 58,
            "name": "A#3",
            "ticks": 49440,
            "time": 257.5,
            "velocity": 0.4330708661417323
          },
          {
            "duration": 0.15104166666668561,
            "durationTicks": 29,
            "midi": 61,
            "name": "C#4",
            "ticks": 49440,
            "time": 257.5,
            "velocity": 0.6929133858267716
          },
          {
            "duration": 0.125,
            "durationTicks": 24,
            "midi": 70,
            "name": "A#4",
            "ticks": 49464,
            "time": 257.625,
            "velocity": 0.4251968503937008
          },
          {
            "duration": 0.1875,
            "durationTicks": 36,
            "midi": 58,
            "name": "A#3",
            "ticks": 49488,
            "time": 257.75,
            "velocity": 0.3858267716535433
          },
          {
            "duration": 0.18229166666668561,
            "durationTicks": 35,
            "midi": 63,
            "name": "D#4",
            "ticks": 49488,
            "time": 257.75,
            "velocity": 0.6220472440944882
          },
          {
            "duration": 0.125,
            "durationTicks": 24,
            "midi": 70,
            "name": "A#4",
            "ticks": 49512,
            "time": 257.875,
            "velocity": 0.4251968503937008
          },
          {
            "duration": 1.9322916666666856,
            "durationTicks": 371,
            "midi": 45,
            "name": "A2",
            "ticks": 49536,
            "time": 258,
            "velocity": 0.4330708661417323
          },
          {
            "duration": 0.25,
            "durationTicks": 48,
            "midi": 57,
            "name": "A3",
            "ticks": 49536,
            "time": 258,
            "velocity": 0.5669291338582677
          },
          {
            "duration": 0.140625,
            "durationTicks": 27,
            "midi": 70,
            "name": "A#4",
            "ticks": 49560,
            "time": 258.125,
            "velocity": 0.47244094488188976
          },
          {
            "duration": 0.25,
            "durationTicks": 48,
            "midi": 57,
            "name": "A3",
            "ticks": 49584,
            "time": 258.25,
            "velocity": 0.3937007874015748
          },
          {
            "duration": 0.11979166666668561,
            "durationTicks": 23,
            "midi": 68,
            "name": "G#4",
            "ticks": 49584,
            "time": 258.25,
            "velocity": 0.6535433070866141
          },
          {
            "duration": 0.13020833333331439,
            "durationTicks": 25,
            "midi": 70,
            "name": "A#4",
            "ticks": 49608,
            "time": 258.375,
            "velocity": 0.6535433070866141
          },
          {
            "duration": 0.25,
            "durationTicks": 48,
            "midi": 57,
            "name": "A3",
            "ticks": 49632,
            "time": 258.5,
            "velocity": 0.41732283464566927
          },
          {
            "duration": 0.15104166666668561,
            "durationTicks": 29,
            "midi": 66,
            "name": "F#4",
            "ticks": 49632,
            "time": 258.5,
            "velocity": 0.6929133858267716
          },
          {
            "duration": 0.125,
            "durationTicks": 24,
            "midi": 70,
            "name": "A#4",
            "ticks": 49656,
            "time": 258.625,
            "velocity": 0.4251968503937008
          },
          {
            "duration": 0.25,
            "durationTicks": 48,
            "midi": 57,
            "name": "A3",
            "ticks": 49680,
            "time": 258.75,
            "velocity": 0.3543307086614173
          },
          {
            "duration": 0.13541666666668561,
            "durationTicks": 26,
            "midi": 65,
            "name": "F4",
            "ticks": 49680,
            "time": 258.75,
            "velocity": 0.6220472440944882
          },
          {
            "duration": 0.125,
            "durationTicks": 24,
            "midi": 70,
            "name": "A#4",
            "ticks": 49704,
            "time": 258.875,
            "velocity": 0.4251968503937008
          },
          {
            "duration": 0.25,
            "durationTicks": 48,
            "midi": 57,
            "name": "A3",
            "ticks": 49728,
            "time": 259,
            "velocity": 0.4015748031496063
          },
          {
            "duration": 0.125,
            "durationTicks": 24,
            "midi": 63,
            "name": "D#4",
            "ticks": 49728,
            "time": 259,
            "velocity": 0.6929133858267716
          },
          {
            "duration": 0.125,
            "durationTicks": 24,
            "midi": 70,
            "name": "A#4",
            "ticks": 49752,
            "time": 259.125,
            "velocity": 0.4251968503937008
          },
          {
            "duration": 0.25,
            "durationTicks": 48,
            "midi": 57,
            "name": "A3",
            "ticks": 49776,
            "time": 259.25,
            "velocity": 0.3464566929133858
          },
          {
            "duration": 0.13541666666668561,
            "durationTicks": 26,
            "midi": 65,
            "name": "F4",
            "ticks": 49776,
            "time": 259.25,
            "velocity": 0.6220472440944882
          },
          {
            "duration": 0.125,
            "durationTicks": 24,
            "midi": 70,
            "name": "A#4",
            "ticks": 49800,
            "time": 259.375,
            "velocity": 0.4251968503937008
          },
          {
            "duration": 0.25,
            "durationTicks": 48,
            "midi": 57,
            "name": "A3",
            "ticks": 49824,
            "time": 259.5,
            "velocity": 0.36220472440944884
          },
          {
            "duration": 0.1875,
            "durationTicks": 36,
            "midi": 57,
            "name": "A3",
            "ticks": 49872,
            "time": 259.75,
            "velocity": 0.30708661417322836
          },
          {
            "duration": 1.875,
            "durationTicks": 360,
            "midi": 44,
            "name": "G#2",
            "ticks": 49911,
            "time": 259.953125,
            "velocity": 0.5196850393700787
          },
          {
            "duration": 1.8697916666666856,
            "durationTicks": 359,
            "midi": 51,
            "name": "D#3",
            "ticks": 49915,
            "time": 259.9739583333333,
            "velocity": 0.6377952755905512
          },
          {
            "duration": 0.25,
            "durationTicks": 48,
            "midi": 56,
            "name": "G#3",
            "ticks": 49920,
            "time": 260,
            "velocity": 0.6692913385826772
          },
          {
            "duration": 0.140625,
            "durationTicks": 27,
            "midi": 70,
            "name": "A#4",
            "ticks": 49944,
            "time": 260.125,
            "velocity": 0.47244094488188976
          },
          {
            "duration": 0.25,
            "durationTicks": 48,
            "midi": 56,
            "name": "G#3",
            "ticks": 49968,
            "time": 260.25,
            "velocity": 0.47244094488188976
          },
          {
            "duration": 0.125,
            "durationTicks": 24,
            "midi": 68,
            "name": "G#4",
            "ticks": 49968,
            "time": 260.25,
            "velocity": 0.6535433070866141
          },
          {
            "duration": 0.13020833333331439,
            "durationTicks": 25,
            "midi": 70,
            "name": "A#4",
            "ticks": 49992,
            "time": 260.375,
            "velocity": 0.6535433070866141
          },
          {
            "duration": 0.25,
            "durationTicks": 48,
            "midi": 56,
            "name": "G#3",
            "ticks": 50016,
            "time": 260.5,
            "velocity": 0.49606299212598426
          },
          {
            "duration": 0.15104166666668561,
            "durationTicks": 29,
            "midi": 66,
            "name": "F#4",
            "ticks": 50016,
            "time": 260.5,
            "velocity": 0.6929133858267716
          },
          {
            "duration": 0.125,
            "durationTicks": 24,
            "midi": 70,
            "name": "A#4",
            "ticks": 50040,
            "time": 260.625,
            "velocity": 0.4251968503937008
          },
          {
            "duration": 0.25,
            "durationTicks": 48,
            "midi": 56,
            "name": "G#3",
            "ticks": 50064,
            "time": 260.75,
            "velocity": 0.4251968503937008
          },
          {
            "duration": 0.13541666666668561,
            "durationTicks": 26,
            "midi": 65,
            "name": "F4",
            "ticks": 50064,
            "time": 260.75,
            "velocity": 0.6220472440944882
          },
          {
            "duration": 0.125,
            "durationTicks": 24,
            "midi": 70,
            "name": "A#4",
            "ticks": 50088,
            "time": 260.875,
            "velocity": 0.4251968503937008
          },
          {
            "duration": 0.25,
            "durationTicks": 48,
            "midi": 56,
            "name": "G#3",
            "ticks": 50112,
            "time": 261,
            "velocity": 0.48031496062992124
          },
          {
            "duration": 0.15104166666668561,
            "durationTicks": 29,
            "midi": 64,
            "name": "E4",
            "ticks": 50112,
            "time": 261,
            "velocity": 0.6929133858267716
          },
          {
            "duration": 0.125,
            "durationTicks": 24,
            "midi": 70,
            "name": "A#4",
            "ticks": 50136,
            "time": 261.125,
            "velocity": 0.4251968503937008
          },
          {
            "duration": 0.25,
            "durationTicks": 48,
            "midi": 56,
            "name": "G#3",
            "ticks": 50160,
            "time": 261.25,
            "velocity": 0.4094488188976378
          },
          {
            "duration": 0.13541666666668561,
            "durationTicks": 26,
            "midi": 65,
            "name": "F4",
            "ticks": 50160,
            "time": 261.25,
            "velocity": 0.6220472440944882
          },
          {
            "duration": 0.125,
            "durationTicks": 24,
            "midi": 70,
            "name": "A#4",
            "ticks": 50184,
            "time": 261.375,
            "velocity": 0.4251968503937008
          },
          {
            "duration": 0.25,
            "durationTicks": 48,
            "midi": 56,
            "name": "G#3",
            "ticks": 50208,
            "time": 261.5,
            "velocity": 0.4330708661417323
          },
          {
            "duration": 0.15104166666668561,
            "durationTicks": 29,
            "midi": 61,
            "name": "C#4",
            "ticks": 50208,
            "time": 261.5,
            "velocity": 0.6929133858267716
          },
          {
            "duration": 0.125,
            "durationTicks": 24,
            "midi": 70,
            "name": "A#4",
            "ticks": 50232,
            "time": 261.625,
            "velocity": 0.4251968503937008
          },
          {
            "duration": 0.1875,
            "durationTicks": 36,
            "midi": 56,
            "name": "G#3",
            "ticks": 50256,
            "time": 261.75,
            "velocity": 0.3858267716535433
          },
          {
            "duration": 0.13020833333331439,
            "durationTicks": 25,
            "midi": 63,
            "name": "D#4",
            "ticks": 50256,
            "time": 261.75,
            "velocity": 0.6220472440944882
          },
          {
            "duration": 0.125,
            "durationTicks": 24,
            "midi": 70,
            "name": "A#4",
            "ticks": 50280,
            "time": 261.875,
            "velocity": 0.4251968503937008
          },
          {
            "duration": 1.9479166666666856,
            "durationTicks": 374,
            "midi": 43,
            "name": "G2",
            "ticks": 50304,
            "time": 262,
            "velocity": 0.3779527559055118
          },
          {
            "duration": 0.25,
            "durationTicks": 48,
            "midi": 55,
            "name": "G3",
            "ticks": 50304,
            "time": 262,
            "velocity": 0.5669291338582677
          },
          {
            "duration": 0.14583333333331439,
            "durationTicks": 28,
            "midi": 70,
            "name": "A#4",
            "ticks": 50328,
            "time": 262.125,
            "velocity": 0.47244094488188976
          },
          {
            "duration": 0.25,
            "durationTicks": 48,
            "midi": 55,
            "name": "G3",
            "ticks": 50352,
            "time": 262.25,
            "velocity": 0.3937007874015748
          },
          {
            "duration": 0.125,
            "durationTicks": 24,
            "midi": 68,
            "name": "G#4",
            "ticks": 50352,
            "time": 262.25,
            "velocity": 0.6535433070866141
          },
          {
            "duration": 0.125,
            "durationTicks": 24,
            "midi": 70,
            "name": "A#4",
            "ticks": 50376,
            "time": 262.375,
            "velocity": 0.6535433070866141
          },
          {
            "duration": 0.25,
            "durationTicks": 48,
            "midi": 55,
            "name": "G3",
            "ticks": 50400,
            "time": 262.5,
            "velocity": 0.41732283464566927
          },
          {
            "duration": 0.15104166666668561,
            "durationTicks": 29,
            "midi": 66,
            "name": "F#4",
            "ticks": 50400,
            "time": 262.5,
            "velocity": 0.6929133858267716
          },
          {
            "duration": 0.125,
            "durationTicks": 24,
            "midi": 70,
            "name": "A#4",
            "ticks": 50424,
            "time": 262.625,
            "velocity": 0.4251968503937008
          },
          {
            "duration": 0.25,
            "durationTicks": 48,
            "midi": 55,
            "name": "G3",
            "ticks": 50448,
            "time": 262.75,
            "velocity": 0.3543307086614173
          },
          {
            "duration": 0.13020833333331439,
            "durationTicks": 25,
            "midi": 65,
            "name": "F4",
            "ticks": 50448,
            "time": 262.75,
            "velocity": 0.6220472440944882
          },
          {
            "duration": 0.125,
            "durationTicks": 24,
            "midi": 70,
            "name": "A#4",
            "ticks": 50472,
            "time": 262.875,
            "velocity": 0.4251968503937008
          },
          {
            "duration": 0.25,
            "durationTicks": 48,
            "midi": 55,
            "name": "G3",
            "ticks": 50496,
            "time": 263,
            "velocity": 0.4015748031496063
          },
          {
            "duration": 0.203125,
            "durationTicks": 39,
            "midi": 63,
            "name": "D#4",
            "ticks": 50496,
            "time": 263,
            "velocity": 0.6929133858267716
          },
          {
            "duration": 0.125,
            "durationTicks": 24,
            "midi": 70,
            "name": "A#4",
            "ticks": 50520,
            "time": 263.125,
            "velocity": 0.4251968503937008
          },
          {
            "duration": 0.25,
            "durationTicks": 48,
            "midi": 55,
            "name": "G3",
            "ticks": 50544,
            "time": 263.25,
            "velocity": 0.3464566929133858
          },
          {
            "duration": 0.13020833333331439,
            "durationTicks": 25,
            "midi": 65,
            "name": "F4",
            "ticks": 50544,
            "time": 263.25,
            "velocity": 0.6220472440944882
          },
          {
            "duration": 0.125,
            "durationTicks": 24,
            "midi": 70,
            "name": "A#4",
            "ticks": 50568,
            "time": 263.375,
            "velocity": 0.4251968503937008
          },
          {
            "duration": 0.25,
            "durationTicks": 48,
            "midi": 55,
            "name": "G3",
            "ticks": 50592,
            "time": 263.5,
            "velocity": 0.36220472440944884
          },
          {
            "duration": 0.25,
            "durationTicks": 48,
            "midi": 55,
            "name": "G3",
            "ticks": 50640,
            "time": 263.75,
            "velocity": 0.3937007874015748
          },
          {
            "duration": 1.9583333333333144,
            "durationTicks": 376,
            "midi": 49,
            "name": "C#3",
            "ticks": 50679,
            "time": 263.953125,
            "velocity": 0.7007874015748031
          },
          {
            "duration": 1.953125,
            "durationTicks": 375,
            "midi": 42,
            "name": "F#2",
            "ticks": 50682,
            "time": 263.96875,
            "velocity": 0.7007874015748031
          },
          {
            "duration": 0.25,
            "durationTicks": 48,
            "midi": 54,
            "name": "F#3",
            "ticks": 50688,
            "time": 264,
            "velocity": 0.6692913385826772
          },
          {
            "duration": 0.15625,
            "durationTicks": 30,
            "midi": 65,
            "name": "F4",
            "ticks": 50712,
            "time": 264.125,
            "velocity": 0.6062992125984252
          },
          {
            "duration": 0.25,
            "durationTicks": 48,
            "midi": 54,
            "name": "F#3",
            "ticks": 50736,
            "time": 264.25,
            "velocity": 0.47244094488188976
          },
          {
            "duration": 0.16666666666668561,
            "durationTicks": 32,
            "midi": 66,
            "name": "F#4",
            "ticks": 50736,
            "time": 264.25,
            "velocity": 0.6299212598425197
          },
          {
            "duration": 0.21354166666668561,
            "durationTicks": 41,
            "midi": 68,
            "name": "G#4",
            "ticks": 50760,
            "time": 264.375,
            "velocity": 0.6614173228346457
          },
          {
            "duration": 0.25,
            "durationTicks": 48,
            "midi": 54,
            "name": "F#3",
            "ticks": 50784,
            "time": 264.5,
            "velocity": 0.49606299212598426
          },
          {
            "duration": 0.3958333333333144,
            "durationTicks": 76,
            "midi": 70,
            "name": "A#4",
            "ticks": 50784,
            "time": 264.5,
            "velocity": 0.6692913385826772
          },
          {
            "duration": 0.25,
            "durationTicks": 48,
            "midi": 54,
            "name": "F#3",
            "ticks": 50832,
            "time": 264.75,
            "velocity": 0.4251968503937008
          },
          {
            "duration": 0.13541666666668561,
            "durationTicks": 26,
            "midi": 65,
            "name": "F4",
            "ticks": 50856,
            "time": 264.875,
            "velocity": 0.5984251968503937
          },
          {
            "duration": 0.25,
            "durationTicks": 48,
            "midi": 54,
            "name": "F#3",
            "ticks": 50880,
            "time": 265,
            "velocity": 0.48031496062992124
          },
          {
            "duration": 0.171875,
            "durationTicks": 33,
            "midi": 66,
            "name": "F#4",
            "ticks": 50880,
            "time": 265,
            "velocity": 0.6220472440944882
          },
          {
            "duration": 0.23958333333331439,
            "durationTicks": 46,
            "midi": 72,
            "name": "C5",
            "ticks": 50904,
            "time": 265.125,
            "velocity": 0.6535433070866141
          },
          {
            "duration": 0.25,
            "durationTicks": 48,
            "midi": 54,
            "name": "F#3",
            "ticks": 50928,
            "time": 265.25,
            "velocity": 0.4094488188976378
          },
          {
            "duration": 0.5052083333333144,
            "durationTicks": 97,
            "midi": 70,
            "name": "A#4",
            "ticks": 50928,
            "time": 265.25,
            "velocity": 0.6929133858267716
          },
          {
            "duration": 0.25,
            "durationTicks": 48,
            "midi": 54,
            "name": "F#3",
            "ticks": 50976,
            "time": 265.5,
            "velocity": 0.4330708661417323
          },
          {
            "duration": 0.1875,
            "durationTicks": 36,
            "midi": 54,
            "name": "F#3",
            "ticks": 51024,
            "time": 265.75,
            "velocity": 0.3858267716535433
          },
          {
            "duration": 0.23958333333331439,
            "durationTicks": 46,
            "midi": 65,
            "name": "F4",
            "ticks": 51024,
            "time": 265.75,
            "velocity": 0.5826771653543307
          },
          {
            "duration": 1.9322916666666856,
            "durationTicks": 371,
            "midi": 41,
            "name": "F2",
            "ticks": 51072,
            "time": 266,
            "velocity": 0.4330708661417323
          },
          {
            "duration": 0.25,
            "durationTicks": 48,
            "midi": 53,
            "name": "F3",
            "ticks": 51072,
            "time": 266,
            "velocity": 0.5669291338582677
          },
          {
            "duration": 0.15625,
            "durationTicks": 30,
            "midi": 65,
            "name": "F4",
            "ticks": 51096,
            "time": 266.125,
            "velocity": 0.6062992125984252
          },
          {
            "duration": 0.25,
            "durationTicks": 48,
            "midi": 53,
            "name": "F3",
            "ticks": 51120,
            "time": 266.25,
            "velocity": 0.3937007874015748
          },
          {
            "duration": 0.16666666666668561,
            "durationTicks": 32,
            "midi": 66,
            "name": "F#4",
            "ticks": 51120,
            "time": 266.25,
            "velocity": 0.5905511811023622
          },
          {
            "duration": 0.21354166666668561,
            "durationTicks": 41,
            "midi": 68,
            "name": "G#4",
            "ticks": 51144,
            "time": 266.375,
            "velocity": 0.6614173228346457
          },
          {
            "duration": 0.25,
            "durationTicks": 48,
            "midi": 53,
            "name": "F3",
            "ticks": 51168,
            "time": 266.5,
            "velocity": 0.41732283464566927
          },
          {
            "duration": 0.2916666666666856,
            "durationTicks": 56,
            "midi": 70,
            "name": "A#4",
            "ticks": 51168,
            "time": 266.5,
            "velocity": 0.6692913385826772
          },
          {
            "duration": 0.25,
            "durationTicks": 48,
            "midi": 53,
            "name": "F3",
            "ticks": 51216,
            "time": 266.75,
            "velocity": 0.3543307086614173
          },
          {
            "duration": 0.171875,
            "durationTicks": 33,
            "midi": 70,
            "name": "A#4",
            "ticks": 51240,
            "time": 266.875,
            "velocity": 0.5275590551181102
          },
          {
            "duration": 0.25,
            "durationTicks": 48,
            "midi": 53,
            "name": "F3",
            "ticks": 51264,
            "time": 267,
            "velocity": 0.4015748031496063
          },
          {
            "duration": 0.125,
            "durationTicks": 24,
            "midi": 65,
            "name": "F4",
            "ticks": 51264,
            "time": 267,
            "velocity": 0.5826771653543307
          },
          {
            "duration": 0.18229166666668561,
            "durationTicks": 35,
            "midi": 68,
            "name": "G#4",
            "ticks": 51288,
            "time": 267.125,
            "velocity": 0.6771653543307087
          },
          {
            "duration": 0.25,
            "durationTicks": 48,
            "midi": 53,
            "name": "F3",
            "ticks": 51312,
            "time": 267.25,
            "velocity": 0.3464566929133858
          },
          {
            "duration": 0.125,
            "durationTicks": 24,
            "midi": 65,
            "name": "F4",
            "ticks": 51312,
            "time": 267.25,
            "velocity": 0.6377952755905512
          },
          {
            "duration": 0.125,
            "durationTicks": 24,
            "midi": 66,
            "name": "F#4",
            "ticks": 51336,
            "time": 267.375,
            "velocity": 0.5984251968503937
          },
          {
            "duration": 0.25,
            "durationTicks": 48,
            "midi": 53,
            "name": "F3",
            "ticks": 51360,
            "time": 267.5,
            "velocity": 0.36220472440944884
          },
          {
            "duration": 0.125,
            "durationTicks": 24,
            "midi": 65,
            "name": "F4",
            "ticks": 51360,
            "time": 267.5,
            "velocity": 0.5984251968503937
          },
          {
            "duration": 0.125,
            "durationTicks": 24,
            "midi": 61,
            "name": "C#4",
            "ticks": 51384,
            "time": 267.625,
            "velocity": 0.6850393700787402
          },
          {
            "duration": 0.1875,
            "durationTicks": 36,
            "midi": 53,
            "name": "F3",
            "ticks": 51408,
            "time": 267.75,
            "velocity": 0.30708661417322836
          },
          {
            "duration": 0.125,
            "durationTicks": 24,
            "midi": 63,
            "name": "D#4",
            "ticks": 51408,
            "time": 267.75,
            "velocity": 0.6062992125984252
          },
          {
            "duration": 0.125,
            "durationTicks": 24,
            "midi": 65,
            "name": "F4",
            "ticks": 51432,
            "time": 267.875,
            "velocity": 0.6377952755905512
          },
          {
            "duration": 1.9427083333333144,
            "durationTicks": 373,
            "midi": 40,
            "name": "E2",
            "ticks": 51446,
            "time": 267.9479166666667,
            "velocity": 0.6535433070866141
          },
          {
            "duration": 1.96875,
            "durationTicks": 378,
            "midi": 48,
            "name": "C3",
            "ticks": 51450,
            "time": 267.96875,
            "velocity": 0.6377952755905512
          },
          {
            "duration": 0.25,
            "durationTicks": 48,
            "midi": 52,
            "name": "E3",
            "ticks": 51456,
            "time": 268,
            "velocity": 0.6220472440944882
          },
          {
            "duration": 0.15625,
            "durationTicks": 30,
            "midi": 65,
            "name": "F4",
            "ticks": 51480,
            "time": 268.125,
            "velocity": 0.6062992125984252
          },
          {
            "duration": 0.25,
            "durationTicks": 48,
            "midi": 52,
            "name": "E3",
            "ticks": 51504,
            "time": 268.25,
            "velocity": 0.4330708661417323
          },
          {
            "duration": 0.16666666666668561,
            "durationTicks": 32,
            "midi": 66,
            "name": "F#4",
            "ticks": 51504,
            "time": 268.25,
            "velocity": 0.6220472440944882
          },
          {
            "duration": 0.21354166666668561,
            "durationTicks": 41,
            "midi": 68,
            "name": "G#4",
            "ticks": 51528,
            "time": 268.375,
            "velocity": 0.6614173228346457
          },
          {
            "duration": 0.25,
            "durationTicks": 48,
            "midi": 52,
            "name": "E3",
            "ticks": 51552,
            "time": 268.5,
            "velocity": 0.4566929133858268
          },
          {
            "duration": 0.390625,
            "durationTicks": 75,
            "midi": 70,
            "name": "A#4",
            "ticks": 51552,
            "time": 268.5,
            "velocity": 0.6692913385826772
          },
          {
            "duration": 0.25,
            "durationTicks": 48,
            "midi": 52,
            "name": "E3",
            "ticks": 51600,
            "time": 268.75,
            "velocity": 0.3937007874015748
          },
          {
            "duration": 0.13541666666668561,
            "durationTicks": 26,
            "midi": 65,
            "name": "F4",
            "ticks": 51624,
            "time": 268.875,
            "velocity": 0.5511811023622047
          },
          {
            "duration": 0.25,
            "durationTicks": 48,
            "midi": 52,
            "name": "E3",
            "ticks": 51648,
            "time": 269,
            "velocity": 0.4409448818897638
          },
          {
            "duration": 0.171875,
            "durationTicks": 33,
            "midi": 66,
            "name": "F#4",
            "ticks": 51648,
            "time": 269,
            "velocity": 0.5905511811023622
          },
          {
            "duration": 0.140625,
            "durationTicks": 27,
            "midi": 72,
            "name": "C5",
            "ticks": 51672,
            "time": 269.125,
            "velocity": 0.6535433070866141
          },
          {
            "duration": 0.25,
            "durationTicks": 48,
            "midi": 52,
            "name": "E3",
            "ticks": 51696,
            "time": 269.25,
            "velocity": 0.3779527559055118
          },
          {
            "duration": 0.3802083333333144,
            "durationTicks": 73,
            "midi": 70,
            "name": "A#4",
            "ticks": 51696,
            "time": 269.25,
            "velocity": 0.6929133858267716
          },
          {
            "duration": 0.25,
            "durationTicks": 48,
            "midi": 52,
            "name": "E3",
            "ticks": 51744,
            "time": 269.5,
            "velocity": 0.4015748031496063
          },
          {
            "duration": 0.1875,
            "durationTicks": 36,
            "midi": 52,
            "name": "E3",
            "ticks": 51792,
            "time": 269.75,
            "velocity": 0.3543307086614173
          },
          {
            "duration": 0.16145833333331439,
            "durationTicks": 31,
            "midi": 65,
            "name": "F4",
            "ticks": 51792,
            "time": 269.75,
            "velocity": 0.6141732283464567
          },
          {
            "duration": 1.9479166666666856,
            "durationTicks": 374,
            "midi": 41,
            "name": "F2",
            "ticks": 51834,
            "time": 269.96875,
            "velocity": 0.5511811023622047
          },
          {
            "duration": 1.9375,
            "durationTicks": 372,
            "midi": 48,
            "name": "C3",
            "ticks": 51837,
            "time": 269.984375,
            "velocity": 0.6062992125984252
          },
          {
            "duration": 0.25,
            "durationTicks": 48,
            "midi": 53,
            "name": "F3",
            "ticks": 51840,
            "time": 270,
            "velocity": 0.6220472440944882
          },
          {
            "duration": 0.125,
            "durationTicks": 24,
            "midi": 70,
            "name": "A#4",
            "ticks": 51864,
            "time": 270.125,
            "velocity": 0.6771653543307087
          },
          {
            "duration": 0.25,
            "durationTicks": 48,
            "midi": 53,
            "name": "F3",
            "ticks": 51888,
            "time": 270.25,
            "velocity": 0.4330708661417323
          },
          {
            "duration": 0.125,
            "durationTicks": 24,
            "midi": 68,
            "name": "G#4",
            "ticks": 51912,
            "time": 270.375,
            "velocity": 0.6220472440944882
          },
          {
            "duration": 0.25,
            "durationTicks": 48,
            "midi": 53,
            "name": "F3",
            "ticks": 51936,
            "time": 270.5,
            "velocity": 0.4566929133858268
          },
          {
            "duration": 0.125,
            "durationTicks": 24,
            "midi": 66,
            "name": "F#4",
            "ticks": 51960,
            "time": 270.625,
            "velocity": 0.6456692913385826
          },
          {
            "duration": 0.25,
            "durationTicks": 48,
            "midi": 53,
            "name": "F3",
            "ticks": 51984,
            "time": 270.75,
            "velocity": 0.3937007874015748
          },
          {
            "duration": 0.125,
            "durationTicks": 24,
            "midi": 65,
            "name": "F4",
            "ticks": 52008,
            "time": 270.875,
            "velocity": 0.6377952755905512
          },
          {
            "duration": 0.25,
            "durationTicks": 48,
            "midi": 53,
            "name": "F3",
            "ticks": 52032,
            "time": 271,
            "velocity": 0.4409448818897638
          },
          {
            "duration": 0.125,
            "durationTicks": 24,
            "midi": 63,
            "name": "D#4",
            "ticks": 52056,
            "time": 271.125,
            "velocity": 0.6377952755905512
          },
          {
            "duration": 0.25,
            "durationTicks": 48,
            "midi": 53,
            "name": "F3",
            "ticks": 52080,
            "time": 271.25,
            "velocity": 0.3779527559055118
          },
          {
            "duration": 0.125,
            "durationTicks": 24,
            "midi": 61,
            "name": "C#4",
            "ticks": 52104,
            "time": 271.375,
            "velocity": 0.7007874015748031
          },
          {
            "duration": 0.25,
            "durationTicks": 48,
            "midi": 53,
            "name": "F3",
            "ticks": 52128,
            "time": 271.5,
            "velocity": 0.4015748031496063
          },
          {
            "duration": 0.17708333333331439,
            "durationTicks": 34,
            "midi": 63,
            "name": "D#4",
            "ticks": 52152,
            "time": 271.625,
            "velocity": 0.6299212598425197
          },
          {
            "duration": 0.23958333333331439,
            "durationTicks": 46,
            "midi": 53,
            "name": "F3",
            "ticks": 52176,
            "time": 271.75,
            "velocity": 0.4330708661417323
          },
          {
            "duration": 0.10416666666668561,
            "durationTicks": 20,
            "midi": 65,
            "name": "F4",
            "ticks": 52200,
            "time": 271.875,
            "velocity": 0.5905511811023622
          },
          {
            "duration": 1.953125,
            "durationTicks": 375,
            "midi": 46,
            "name": "A#2",
            "ticks": 52218,
            "time": 271.96875,
            "velocity": 0.7007874015748031
          },
          {
            "duration": 1.96875,
            "durationTicks": 378,
            "midi": 53,
            "name": "F3",
            "ticks": 52222,
            "time": 271.9895833333333,
            "velocity": 0.6062992125984252
          },
          {
            "duration": 0.25,
            "durationTicks": 48,
            "midi": 58,
            "name": "A#3",
            "ticks": 52224,
            "time": 272,
            "velocity": 0.6692913385826772
          },
          {
            "duration": 0.15104166666668561,
            "durationTicks": 29,
            "midi": 70,
            "name": "A#4",
            "ticks": 52248,
            "time": 272.125,
            "velocity": 0.47244094488188976
          },
          {
            "duration": 0.25,
            "durationTicks": 48,
            "midi": 58,
            "name": "A#3",
            "ticks": 52272,
            "time": 272.25,
            "velocity": 0.47244094488188976
          },
          {
            "duration": 0.125,
            "durationTicks": 24,
            "midi": 68,
            "name": "G#4",
            "ticks": 52272,
            "time": 272.25,
            "velocity": 0.6535433070866141
          },
          {
            "duration": 0.125,
            "durationTicks": 24,
            "midi": 70,
            "name": "A#4",
            "ticks": 52296,
            "time": 272.375,
            "velocity": 0.6535433070866141
          },
          {
            "duration": 0.25,
            "durationTicks": 48,
            "midi": 58,
            "name": "A#3",
            "ticks": 52320,
            "time": 272.5,
            "velocity": 0.49606299212598426
          },
          {
            "duration": 0.15104166666668561,
            "durationTicks": 29,
            "midi": 66,
            "name": "F#4",
            "ticks": 52320,
            "time": 272.5,
            "velocity": 0.6929133858267716
          },
          {
            "duration": 0.125,
            "durationTicks": 24,
            "midi": 70,
            "name": "A#4",
            "ticks": 52344,
            "time": 272.625,
            "velocity": 0.4251968503937008
          },
          {
            "duration": 0.25,
            "durationTicks": 48,
            "midi": 58,
            "name": "A#3",
            "ticks": 52368,
            "time": 272.75,
            "velocity": 0.4251968503937008
          },
          {
            "duration": 0.13020833333331439,
            "durationTicks": 25,
            "midi": 65,
            "name": "F4",
            "ticks": 52368,
            "time": 272.75,
            "velocity": 0.6220472440944882
          },
          {
            "duration": 0.125,
            "durationTicks": 24,
            "midi": 70,
            "name": "A#4",
            "ticks": 52392,
            "time": 272.875,
            "velocity": 0.4251968503937008
          },
          {
            "duration": 0.25,
            "durationTicks": 48,
            "midi": 58,
            "name": "A#3",
            "ticks": 52416,
            "time": 273,
            "velocity": 0.48031496062992124
          },
          {
            "duration": 0.15104166666668561,
            "durationTicks": 29,
            "midi": 64,
            "name": "E4",
            "ticks": 52416,
            "time": 273,
            "velocity": 0.6929133858267716
          },
          {
            "duration": 0.125,
            "durationTicks": 24,
            "midi": 70,
            "name": "A#4",
            "ticks": 52440,
            "time": 273.125,
            "velocity": 0.4251968503937008
          },
          {
            "duration": 0.25,
            "durationTicks": 48,
            "midi": 58,
            "name": "A#3",
            "ticks": 52464,
            "time": 273.25,
            "velocity": 0.4094488188976378
          },
          {
            "duration": 0.13020833333331439,
            "durationTicks": 25,
            "midi": 65,
            "name": "F4",
            "ticks": 52464,
            "time": 273.25,
            "velocity": 0.6220472440944882
          },
          {
            "duration": 0.125,
            "durationTicks": 24,
            "midi": 70,
            "name": "A#4",
            "ticks": 52488,
            "time": 273.375,
            "velocity": 0.4251968503937008
          },
          {
            "duration": 0.25,
            "durationTicks": 48,
            "midi": 58,
            "name": "A#3",
            "ticks": 52512,
            "time": 273.5,
            "velocity": 0.4330708661417323
          },
          {
            "duration": 0.15104166666668561,
            "durationTicks": 29,
            "midi": 61,
            "name": "C#4",
            "ticks": 52512,
            "time": 273.5,
            "velocity": 0.7480314960629921
          },
          {
            "duration": 0.125,
            "durationTicks": 24,
            "midi": 70,
            "name": "A#4",
            "ticks": 52536,
            "time": 273.625,
            "velocity": 0.4251968503937008
          },
          {
            "duration": 0.1875,
            "durationTicks": 36,
            "midi": 58,
            "name": "A#3",
            "ticks": 52560,
            "time": 273.75,
            "velocity": 0.3858267716535433
          },
          {
            "duration": 0.18229166666668561,
            "durationTicks": 35,
            "midi": 63,
            "name": "D#4",
            "ticks": 52560,
            "time": 273.75,
            "velocity": 0.6220472440944882
          },
          {
            "duration": 0.125,
            "durationTicks": 24,
            "midi": 70,
            "name": "A#4",
            "ticks": 52584,
            "time": 273.875,
            "velocity": 0.4251968503937008
          },
          {
            "duration": 1.9322916666666856,
            "durationTicks": 371,
            "midi": 45,
            "name": "A2",
            "ticks": 52602,
            "time": 273.96875,
            "velocity": 0.6141732283464567
          },
          {
            "duration": 1.8958333333333144,
            "durationTicks": 364,
            "midi": 53,
            "name": "F3",
            "ticks": 52605,
            "time": 273.984375,
            "velocity": 0.6614173228346457
          },
          {
            "duration": 0.25,
            "durationTicks": 48,
            "midi": 57,
            "name": "A3",
            "ticks": 52608,
            "time": 274,
            "velocity": 0.6692913385826772
          },
          {
            "duration": 0.140625,
            "durationTicks": 27,
            "midi": 70,
            "name": "A#4",
            "ticks": 52632,
            "time": 274.125,
            "velocity": 0.47244094488188976
          },
          {
            "duration": 0.25,
            "durationTicks": 48,
            "midi": 57,
            "name": "A3",
            "ticks": 52656,
            "time": 274.25,
            "velocity": 0.47244094488188976
          },
          {
            "duration": 0.11979166666668561,
            "durationTicks": 23,
            "midi": 68,
            "name": "G#4",
            "ticks": 52656,
            "time": 274.25,
            "velocity": 0.6535433070866141
          },
          {
            "duration": 0.13020833333331439,
            "durationTicks": 25,
            "midi": 70,
            "name": "A#4",
            "ticks": 52680,
            "time": 274.375,
            "velocity": 0.6535433070866141
          },
          {
            "duration": 0.25,
            "durationTicks": 48,
            "midi": 57,
            "name": "A3",
            "ticks": 52704,
            "time": 274.5,
            "velocity": 0.49606299212598426
          },
          {
            "duration": 0.15104166666668561,
            "durationTicks": 29,
            "midi": 66,
            "name": "F#4",
            "ticks": 52704,
            "time": 274.5,
            "velocity": 0.6929133858267716
          },
          {
            "duration": 0.125,
            "durationTicks": 24,
            "midi": 70,
            "name": "A#4",
            "ticks": 52728,
            "time": 274.625,
            "velocity": 0.4251968503937008
          },
          {
            "duration": 0.25,
            "durationTicks": 48,
            "midi": 57,
            "name": "A3",
            "ticks": 52752,
            "time": 274.75,
            "velocity": 0.4251968503937008
          },
          {
            "duration": 0.13541666666668561,
            "durationTicks": 26,
            "midi": 65,
            "name": "F4",
            "ticks": 52752,
            "time": 274.75,
            "velocity": 0.6220472440944882
          },
          {
            "duration": 0.125,
            "durationTicks": 24,
            "midi": 70,
            "name": "A#4",
            "ticks": 52776,
            "time": 274.875,
            "velocity": 0.4251968503937008
          },
          {
            "duration": 0.25,
            "durationTicks": 48,
            "midi": 57,
            "name": "A3",
            "ticks": 52800,
            "time": 275,
            "velocity": 0.48031496062992124
          },
          {
            "duration": 0.125,
            "durationTicks": 24,
            "midi": 63,
            "name": "D#4",
            "ticks": 52800,
            "time": 275,
            "velocity": 0.6929133858267716
          },
          {
            "duration": 0.125,
            "durationTicks": 24,
            "midi": 70,
            "name": "A#4",
            "ticks": 52824,
            "time": 275.125,
            "velocity": 0.4251968503937008
          },
          {
            "duration": 0.25,
            "durationTicks": 48,
            "midi": 57,
            "name": "A3",
            "ticks": 52848,
            "time": 275.25,
            "velocity": 0.4094488188976378
          },
          {
            "duration": 0.13541666666668561,
            "durationTicks": 26,
            "midi": 65,
            "name": "F4",
            "ticks": 52848,
            "time": 275.25,
            "velocity": 0.6220472440944882
          },
          {
            "duration": 0.125,
            "durationTicks": 24,
            "midi": 70,
            "name": "A#4",
            "ticks": 52872,
            "time": 275.375,
            "velocity": 0.4251968503937008
          },
          {
            "duration": 0.25,
            "durationTicks": 48,
            "midi": 57,
            "name": "A3",
            "ticks": 52896,
            "time": 275.5,
            "velocity": 0.4330708661417323
          },
          {
            "duration": 0.1875,
            "durationTicks": 36,
            "midi": 57,
            "name": "A3",
            "ticks": 52944,
            "time": 275.75,
            "velocity": 0.3700787401574803
          },
          {
            "duration": 1.859375,
            "durationTicks": 357,
            "midi": 44,
            "name": "G#2",
            "ticks": 52986,
            "time": 275.96875,
            "velocity": 0.5196850393700787
          },
          {
            "duration": 1.859375,
            "durationTicks": 357,
            "midi": 51,
            "name": "D#3",
            "ticks": 52989,
            "time": 275.984375,
            "velocity": 0.6377952755905512
          },
          {
            "duration": 0.25,
            "durationTicks": 48,
            "midi": 56,
            "name": "G#3",
            "ticks": 52992,
            "time": 276,
            "velocity": 0.6692913385826772
          },
          {
            "duration": 0.140625,
            "durationTicks": 27,
            "midi": 70,
            "name": "A#4",
            "ticks": 53016,
            "time": 276.125,
            "velocity": 0.47244094488188976
          },
          {
            "duration": 0.25,
            "durationTicks": 48,
            "midi": 56,
            "name": "G#3",
            "ticks": 53040,
            "time": 276.25,
            "velocity": 0.47244094488188976
          },
          {
            "duration": 0.125,
            "durationTicks": 24,
            "midi": 68,
            "name": "G#4",
            "ticks": 53040,
            "time": 276.25,
            "velocity": 0.6535433070866141
          },
          {
            "duration": 0.13020833333331439,
            "durationTicks": 25,
            "midi": 70,
            "name": "A#4",
            "ticks": 53064,
            "time": 276.375,
            "velocity": 0.6535433070866141
          },
          {
            "duration": 0.25,
            "durationTicks": 48,
            "midi": 56,
            "name": "G#3",
            "ticks": 53088,
            "time": 276.5,
            "velocity": 0.49606299212598426
          },
          {
            "duration": 0.15104166666668561,
            "durationTicks": 29,
            "midi": 66,
            "name": "F#4",
            "ticks": 53088,
            "time": 276.5,
            "velocity": 0.6929133858267716
          },
          {
            "duration": 0.125,
            "durationTicks": 24,
            "midi": 70,
            "name": "A#4",
            "ticks": 53112,
            "time": 276.625,
            "velocity": 0.4251968503937008
          },
          {
            "duration": 0.25,
            "durationTicks": 48,
            "midi": 56,
            "name": "G#3",
            "ticks": 53136,
            "time": 276.75,
            "velocity": 0.4251968503937008
          },
          {
            "duration": 0.13541666666668561,
            "durationTicks": 26,
            "midi": 65,
            "name": "F4",
            "ticks": 53136,
            "time": 276.75,
            "velocity": 0.6220472440944882
          },
          {
            "duration": 0.125,
            "durationTicks": 24,
            "midi": 70,
            "name": "A#4",
            "ticks": 53160,
            "time": 276.875,
            "velocity": 0.4251968503937008
          },
          {
            "duration": 0.25,
            "durationTicks": 48,
            "midi": 56,
            "name": "G#3",
            "ticks": 53184,
            "time": 277,
            "velocity": 0.48031496062992124
          },
          {
            "duration": 0.15104166666668561,
            "durationTicks": 29,
            "midi": 64,
            "name": "E4",
            "ticks": 53184,
            "time": 277,
            "velocity": 0.6929133858267716
          },
          {
            "duration": 0.125,
            "durationTicks": 24,
            "midi": 70,
            "name": "A#4",
            "ticks": 53208,
            "time": 277.125,
            "velocity": 0.4251968503937008
          },
          {
            "duration": 0.25,
            "durationTicks": 48,
            "midi": 56,
            "name": "G#3",
            "ticks": 53232,
            "time": 277.25,
            "velocity": 0.4094488188976378
          },
          {
            "duration": 0.13541666666668561,
            "durationTicks": 26,
            "midi": 65,
            "name": "F4",
            "ticks": 53232,
            "time": 277.25,
            "velocity": 0.6220472440944882
          },
          {
            "duration": 0.125,
            "durationTicks": 24,
            "midi": 70,
            "name": "A#4",
            "ticks": 53256,
            "time": 277.375,
            "velocity": 0.4251968503937008
          },
          {
            "duration": 0.25,
            "durationTicks": 48,
            "midi": 56,
            "name": "G#3",
            "ticks": 53280,
            "time": 277.5,
            "velocity": 0.4330708661417323
          },
          {
            "duration": 0.15104166666668561,
            "durationTicks": 29,
            "midi": 61,
            "name": "C#4",
            "ticks": 53280,
            "time": 277.5,
            "velocity": 0.7480314960629921
          },
          {
            "duration": 0.125,
            "durationTicks": 24,
            "midi": 70,
            "name": "A#4",
            "ticks": 53304,
            "time": 277.625,
            "velocity": 0.4251968503937008
          },
          {
            "duration": 0.1875,
            "durationTicks": 36,
            "midi": 56,
            "name": "G#3",
            "ticks": 53328,
            "time": 277.75,
            "velocity": 0.3858267716535433
          },
          {
            "duration": 0.13020833333331439,
            "durationTicks": 25,
            "midi": 63,
            "name": "D#4",
            "ticks": 53328,
            "time": 277.75,
            "velocity": 0.6220472440944882
          },
          {
            "duration": 0.125,
            "durationTicks": 24,
            "midi": 70,
            "name": "A#4",
            "ticks": 53352,
            "time": 277.875,
            "velocity": 0.4251968503937008
          },
          {
            "duration": 1.9479166666666856,
            "durationTicks": 374,
            "midi": 43,
            "name": "G2",
            "ticks": 53370,
            "time": 277.96875,
            "velocity": 0.5275590551181102
          },
          {
            "duration": 1.9375,
            "durationTicks": 372,
            "midi": 51,
            "name": "D#3",
            "ticks": 53373,
            "time": 277.984375,
            "velocity": 0.5826771653543307
          },
          {
            "duration": 0.25,
            "durationTicks": 48,
            "midi": 55,
            "name": "G3",
            "ticks": 53376,
            "time": 278,
            "velocity": 0.6692913385826772
          },
          {
            "duration": 0.14583333333331439,
            "durationTicks": 28,
            "midi": 70,
            "name": "A#4",
            "ticks": 53400,
            "time": 278.125,
            "velocity": 0.47244094488188976
          },
          {
            "duration": 0.25,
            "durationTicks": 48,
            "midi": 55,
            "name": "G3",
            "ticks": 53424,
            "time": 278.25,
            "velocity": 0.47244094488188976
          },
          {
            "duration": 0.125,
            "durationTicks": 24,
            "midi": 68,
            "name": "G#4",
            "ticks": 53424,
            "time": 278.25,
            "velocity": 0.6535433070866141
          },
          {
            "duration": 0.125,
            "durationTicks": 24,
            "midi": 70,
            "name": "A#4",
            "ticks": 53448,
            "time": 278.375,
            "velocity": 0.6535433070866141
          },
          {
            "duration": 0.25,
            "durationTicks": 48,
            "midi": 55,
            "name": "G3",
            "ticks": 53472,
            "time": 278.5,
            "velocity": 0.49606299212598426
          },
          {
            "duration": 0.15104166666668561,
            "durationTicks": 29,
            "midi": 66,
            "name": "F#4",
            "ticks": 53472,
            "time": 278.5,
            "velocity": 0.6929133858267716
          },
          {
            "duration": 0.125,
            "durationTicks": 24,
            "midi": 70,
            "name": "A#4",
            "ticks": 53496,
            "time": 278.625,
            "velocity": 0.4251968503937008
          },
          {
            "duration": 0.25,
            "durationTicks": 48,
            "midi": 55,
            "name": "G3",
            "ticks": 53520,
            "time": 278.75,
            "velocity": 0.4251968503937008
          },
          {
            "duration": 0.13020833333331439,
            "durationTicks": 25,
            "midi": 65,
            "name": "F4",
            "ticks": 53520,
            "time": 278.75,
            "velocity": 0.6220472440944882
          },
          {
            "duration": 0.125,
            "durationTicks": 24,
            "midi": 70,
            "name": "A#4",
            "ticks": 53544,
            "time": 278.875,
            "velocity": 0.4251968503937008
          },
          {
            "duration": 0.25,
            "durationTicks": 48,
            "midi": 55,
            "name": "G3",
            "ticks": 53568,
            "time": 279,
            "velocity": 0.48031496062992124
          },
          {
            "duration": 0.203125,
            "durationTicks": 39,
            "midi": 63,
            "name": "D#4",
            "ticks": 53568,
            "time": 279,
            "velocity": 0.6929133858267716
          },
          {
            "duration": 0.125,
            "durationTicks": 24,
            "midi": 70,
            "name": "A#4",
            "ticks": 53592,
            "time": 279.125,
            "velocity": 0.4251968503937008
          },
          {
            "duration": 0.25,
            "durationTicks": 48,
            "midi": 55,
            "name": "G3",
            "ticks": 53616,
            "time": 279.25,
            "velocity": 0.4094488188976378
          },
          {
            "duration": 0.13020833333331439,
            "durationTicks": 25,
            "midi": 65,
            "name": "F4",
            "ticks": 53616,
            "time": 279.25,
            "velocity": 0.6220472440944882
          },
          {
            "duration": 0.125,
            "durationTicks": 24,
            "midi": 70,
            "name": "A#4",
            "ticks": 53640,
            "time": 279.375,
            "velocity": 0.4251968503937008
          },
          {
            "duration": 0.25,
            "durationTicks": 48,
            "midi": 55,
            "name": "G3",
            "ticks": 53664,
            "time": 279.5,
            "velocity": 0.4330708661417323
          },
          {
            "duration": 0.25,
            "durationTicks": 48,
            "midi": 55,
            "name": "G3",
            "ticks": 53712,
            "time": 279.75,
            "velocity": 0.47244094488188976
          },
          {
            "duration": 1.9583333333333144,
            "durationTicks": 376,
            "midi": 49,
            "name": "C#3",
            "ticks": 53751,
            "time": 279.953125,
            "velocity": 0.7007874015748031
          },
          {
            "duration": 1.953125,
            "durationTicks": 375,
            "midi": 42,
            "name": "F#2",
            "ticks": 53754,
            "time": 279.96875,
            "velocity": 0.7007874015748031
          },
          {
            "duration": 0.25,
            "durationTicks": 48,
            "midi": 54,
            "name": "F#3",
            "ticks": 53760,
            "time": 280,
            "velocity": 0.6692913385826772
          },
          {
            "duration": 0.15625,
            "durationTicks": 30,
            "midi": 65,
            "name": "F4",
            "ticks": 53784,
            "time": 280.125,
            "velocity": 0.6062992125984252
          },
          {
            "duration": 0.25,
            "durationTicks": 48,
            "midi": 54,
            "name": "F#3",
            "ticks": 53808,
            "time": 280.25,
            "velocity": 0.47244094488188976
          },
          {
            "duration": 0.16666666666668561,
            "durationTicks": 32,
            "midi": 66,
            "name": "F#4",
            "ticks": 53808,
            "time": 280.25,
            "velocity": 0.6299212598425197
          },
          {
            "duration": 0.21354166666668561,
            "durationTicks": 41,
            "midi": 68,
            "name": "G#4",
            "ticks": 53832,
            "time": 280.375,
            "velocity": 0.6614173228346457
          },
          {
            "duration": 0.25,
            "durationTicks": 48,
            "midi": 54,
            "name": "F#3",
            "ticks": 53856,
            "time": 280.5,
            "velocity": 0.49606299212598426
          },
          {
            "duration": 0.3958333333333144,
            "durationTicks": 76,
            "midi": 70,
            "name": "A#4",
            "ticks": 53856,
            "time": 280.5,
            "velocity": 0.6692913385826772
          },
          {
            "duration": 0.25,
            "durationTicks": 48,
            "midi": 54,
            "name": "F#3",
            "ticks": 53904,
            "time": 280.75,
            "velocity": 0.4251968503937008
          },
          {
            "duration": 0.13541666666668561,
            "durationTicks": 26,
            "midi": 65,
            "name": "F4",
            "ticks": 53928,
            "time": 280.875,
            "velocity": 0.5984251968503937
          },
          {
            "duration": 0.25,
            "durationTicks": 48,
            "midi": 54,
            "name": "F#3",
            "ticks": 53952,
            "time": 281,
            "velocity": 0.48031496062992124
          },
          {
            "duration": 0.171875,
            "durationTicks": 33,
            "midi": 66,
            "name": "F#4",
            "ticks": 53952,
            "time": 281,
            "velocity": 0.6220472440944882
          },
          {
            "duration": 0.23958333333331439,
            "durationTicks": 46,
            "midi": 72,
            "name": "C5",
            "ticks": 53976,
            "time": 281.125,
            "velocity": 0.6535433070866141
          },
          {
            "duration": 0.25,
            "durationTicks": 48,
            "midi": 54,
            "name": "F#3",
            "ticks": 54000,
            "time": 281.25,
            "velocity": 0.4094488188976378
          },
          {
            "duration": 0.5052083333333144,
            "durationTicks": 97,
            "midi": 70,
            "name": "A#4",
            "ticks": 54000,
            "time": 281.25,
            "velocity": 0.6929133858267716
          },
          {
            "duration": 0.25,
            "durationTicks": 48,
            "midi": 54,
            "name": "F#3",
            "ticks": 54048,
            "time": 281.5,
            "velocity": 0.4330708661417323
          },
          {
            "duration": 0.1875,
            "durationTicks": 36,
            "midi": 54,
            "name": "F#3",
            "ticks": 54096,
            "time": 281.75,
            "velocity": 0.3858267716535433
          },
          {
            "duration": 0.23958333333331439,
            "durationTicks": 46,
            "midi": 65,
            "name": "F4",
            "ticks": 54096,
            "time": 281.75,
            "velocity": 0.5826771653543307
          },
          {
            "duration": 1.9322916666666856,
            "durationTicks": 371,
            "midi": 41,
            "name": "F2",
            "ticks": 54138,
            "time": 281.96875,
            "velocity": 0.6141732283464567
          },
          {
            "duration": 1.8958333333333144,
            "durationTicks": 364,
            "midi": 48,
            "name": "C3",
            "ticks": 54141,
            "time": 281.984375,
            "velocity": 0.6614173228346457
          },
          {
            "duration": 0.25,
            "durationTicks": 48,
            "midi": 53,
            "name": "F3",
            "ticks": 54144,
            "time": 282,
            "velocity": 0.6692913385826772
          },
          {
            "duration": 0.15625,
            "durationTicks": 30,
            "midi": 65,
            "name": "F4",
            "ticks": 54168,
            "time": 282.125,
            "velocity": 0.6062992125984252
          },
          {
            "duration": 0.25,
            "durationTicks": 48,
            "midi": 53,
            "name": "F3",
            "ticks": 54192,
            "time": 282.25,
            "velocity": 0.47244094488188976
          },
          {
            "duration": 0.16666666666668561,
            "durationTicks": 32,
            "midi": 66,
            "name": "F#4",
            "ticks": 54192,
            "time": 282.25,
            "velocity": 0.5905511811023622
          },
          {
            "duration": 0.21354166666668561,
            "durationTicks": 41,
            "midi": 68,
            "name": "G#4",
            "ticks": 54216,
            "time": 282.375,
            "velocity": 0.6614173228346457
          },
          {
            "duration": 0.25,
            "durationTicks": 48,
            "midi": 53,
            "name": "F3",
            "ticks": 54240,
            "time": 282.5,
            "velocity": 0.49606299212598426
          },
          {
            "duration": 0.2916666666666856,
            "durationTicks": 56,
            "midi": 70,
            "name": "A#4",
            "ticks": 54240,
            "time": 282.5,
            "velocity": 0.6692913385826772
          },
          {
            "duration": 0.25,
            "durationTicks": 48,
            "midi": 53,
            "name": "F3",
            "ticks": 54288,
            "time": 282.75,
            "velocity": 0.4251968503937008
          },
          {
            "duration": 0.171875,
            "durationTicks": 33,
            "midi": 70,
            "name": "A#4",
            "ticks": 54312,
            "time": 282.875,
            "velocity": 0.5275590551181102
          },
          {
            "duration": 0.25,
            "durationTicks": 48,
            "midi": 53,
            "name": "F3",
            "ticks": 54336,
            "time": 283,
            "velocity": 0.48031496062992124
          },
          {
            "duration": 0.125,
            "durationTicks": 24,
            "midi": 65,
            "name": "F4",
            "ticks": 54336,
            "time": 283,
            "velocity": 0.5826771653543307
          },
          {
            "duration": 0.18229166666668561,
            "durationTicks": 35,
            "midi": 68,
            "name": "G#4",
            "ticks": 54360,
            "time": 283.125,
            "velocity": 0.6771653543307087
          },
          {
            "duration": 0.25,
            "durationTicks": 48,
            "midi": 53,
            "name": "F3",
            "ticks": 54384,
            "time": 283.25,
            "velocity": 0.4094488188976378
          },
          {
            "duration": 0.125,
            "durationTicks": 24,
            "midi": 65,
            "name": "F4",
            "ticks": 54384,
            "time": 283.25,
            "velocity": 0.6377952755905512
          },
          {
            "duration": 0.125,
            "durationTicks": 24,
            "midi": 66,
            "name": "F#4",
            "ticks": 54408,
            "time": 283.375,
            "velocity": 0.5984251968503937
          },
          {
            "duration": 0.25,
            "durationTicks": 48,
            "midi": 53,
            "name": "F3",
            "ticks": 54432,
            "time": 283.5,
            "velocity": 0.4330708661417323
          },
          {
            "duration": 0.125,
            "durationTicks": 24,
            "midi": 65,
            "name": "F4",
            "ticks": 54432,
            "time": 283.5,
            "velocity": 0.5984251968503937
          },
          {
            "duration": 0.125,
            "durationTicks": 24,
            "midi": 61,
            "name": "C#4",
            "ticks": 54456,
            "time": 283.625,
            "velocity": 0.6456692913385826
          },
          {
            "duration": 0.1875,
            "durationTicks": 36,
            "midi": 53,
            "name": "F3",
            "ticks": 54480,
            "time": 283.75,
            "velocity": 0.3700787401574803
          },
          {
            "duration": 0.125,
            "durationTicks": 24,
            "midi": 63,
            "name": "D#4",
            "ticks": 54480,
            "time": 283.75,
            "velocity": 0.6062992125984252
          },
          {
            "duration": 0.125,
            "durationTicks": 24,
            "midi": 65,
            "name": "F4",
            "ticks": 54504,
            "time": 283.875,
            "velocity": 0.6377952755905512
          },
          {
            "duration": 1.859375,
            "durationTicks": 357,
            "midi": 40,
            "name": "E2",
            "ticks": 54522,
            "time": 283.96875,
            "velocity": 0.5196850393700787
          },
          {
            "duration": 1.859375,
            "durationTicks": 357,
            "midi": 48,
            "name": "C3",
            "ticks": 54525,
            "time": 283.984375,
            "velocity": 0.6377952755905512
          },
          {
            "duration": 0.25,
            "durationTicks": 48,
            "midi": 52,
            "name": "E3",
            "ticks": 54528,
            "time": 284,
            "velocity": 0.6692913385826772
          },
          {
            "duration": 0.15625,
            "durationTicks": 30,
            "midi": 65,
            "name": "F4",
            "ticks": 54552,
            "time": 284.125,
            "velocity": 0.6062992125984252
          },
          {
            "duration": 0.25,
            "durationTicks": 48,
            "midi": 52,
            "name": "E3",
            "ticks": 54576,
            "time": 284.25,
            "velocity": 0.47244094488188976
          },
          {
            "duration": 0.16666666666668561,
            "durationTicks": 32,
            "midi": 66,
            "name": "F#4",
            "ticks": 54576,
            "time": 284.25,
            "velocity": 0.6220472440944882
          },
          {
            "duration": 0.21354166666668561,
            "durationTicks": 41,
            "midi": 68,
            "name": "G#4",
            "ticks": 54600,
            "time": 284.375,
            "velocity": 0.6614173228346457
          },
          {
            "duration": 0.25,
            "durationTicks": 48,
            "midi": 52,
            "name": "E3",
            "ticks": 54624,
            "time": 284.5,
            "velocity": 0.49606299212598426
          },
          {
            "duration": 0.390625,
            "durationTicks": 75,
            "midi": 70,
            "name": "A#4",
            "ticks": 54624,
            "time": 284.5,
            "velocity": 0.6692913385826772
          },
          {
            "duration": 0.25,
            "durationTicks": 48,
            "midi": 52,
            "name": "E3",
            "ticks": 54672,
            "time": 284.75,
            "velocity": 0.4251968503937008
          },
          {
            "duration": 0.13541666666668561,
            "durationTicks": 26,
            "midi": 65,
            "name": "F4",
            "ticks": 54696,
            "time": 284.875,
            "velocity": 0.5511811023622047
          },
          {
            "duration": 0.25,
            "durationTicks": 48,
            "midi": 52,
            "name": "E3",
            "ticks": 54720,
            "time": 285,
            "velocity": 0.48031496062992124
          },
          {
            "duration": 0.171875,
            "durationTicks": 33,
            "midi": 66,
            "name": "F#4",
            "ticks": 54720,
            "time": 285,
            "velocity": 0.5905511811023622
          },
          {
            "duration": 0.140625,
            "durationTicks": 27,
            "midi": 72,
            "name": "C5",
            "ticks": 54744,
            "time": 285.125,
            "velocity": 0.6535433070866141
          },
          {
            "duration": 0.25,
            "durationTicks": 48,
            "midi": 52,
            "name": "E3",
            "ticks": 54768,
            "time": 285.25,
            "velocity": 0.4094488188976378
          },
          {
            "duration": 0.3802083333333144,
            "durationTicks": 73,
            "midi": 70,
            "name": "A#4",
            "ticks": 54768,
            "time": 285.25,
            "velocity": 0.6929133858267716
          },
          {
            "duration": 0.25,
            "durationTicks": 48,
            "midi": 52,
            "name": "E3",
            "ticks": 54816,
            "time": 285.5,
            "velocity": 0.4330708661417323
          },
          {
            "duration": 0.1875,
            "durationTicks": 36,
            "midi": 52,
            "name": "E3",
            "ticks": 54864,
            "time": 285.75,
            "velocity": 0.3858267716535433
          },
          {
            "duration": 0.16145833333331439,
            "durationTicks": 31,
            "midi": 65,
            "name": "F4",
            "ticks": 54864,
            "time": 285.75,
            "velocity": 0.6141732283464567
          },
          {
            "duration": 1.9479166666666856,
            "durationTicks": 374,
            "midi": 41,
            "name": "F2",
            "ticks": 54906,
            "time": 285.96875,
            "velocity": 0.5275590551181102
          },
          {
            "duration": 1.9375,
            "durationTicks": 372,
            "midi": 48,
            "name": "C3",
            "ticks": 54909,
            "time": 285.984375,
            "velocity": 0.5826771653543307
          },
          {
            "duration": 0.25,
            "durationTicks": 48,
            "midi": 53,
            "name": "F3",
            "ticks": 54912,
            "time": 286,
            "velocity": 0.6692913385826772
          },
          {
            "duration": 0.125,
            "durationTicks": 24,
            "midi": 70,
            "name": "A#4",
            "ticks": 54936,
            "time": 286.125,
            "velocity": 0.6771653543307087
          },
          {
            "duration": 0.25,
            "durationTicks": 48,
            "midi": 53,
            "name": "F3",
            "ticks": 54960,
            "time": 286.25,
            "velocity": 0.47244094488188976
          },
          {
            "duration": 0.125,
            "durationTicks": 24,
            "midi": 68,
            "name": "G#4",
            "ticks": 54984,
            "time": 286.375,
            "velocity": 0.6220472440944882
          },
          {
            "duration": 0.25,
            "durationTicks": 48,
            "midi": 53,
            "name": "F3",
            "ticks": 55008,
            "time": 286.5,
            "velocity": 0.49606299212598426
          },
          {
            "duration": 0.125,
            "durationTicks": 24,
            "midi": 66,
            "name": "F#4",
            "ticks": 55032,
            "time": 286.625,
            "velocity": 0.6456692913385826
          },
          {
            "duration": 0.25,
            "durationTicks": 48,
            "midi": 53,
            "name": "F3",
            "ticks": 55056,
            "time": 286.75,
            "velocity": 0.4251968503937008
          },
          {
            "duration": 0.125,
            "durationTicks": 24,
            "midi": 65,
            "name": "F4",
            "ticks": 55080,
            "time": 286.875,
            "velocity": 0.6377952755905512
          },
          {
            "duration": 0.25,
            "durationTicks": 48,
            "midi": 53,
            "name": "F3",
            "ticks": 55104,
            "time": 287,
            "velocity": 0.48031496062992124
          },
          {
            "duration": 0.125,
            "durationTicks": 24,
            "midi": 63,
            "name": "D#4",
            "ticks": 55128,
            "time": 287.125,
            "velocity": 0.6377952755905512
          },
          {
            "duration": 0.25,
            "durationTicks": 48,
            "midi": 53,
            "name": "F3",
            "ticks": 55152,
            "time": 287.25,
            "velocity": 0.4094488188976378
          },
          {
            "duration": 0.125,
            "durationTicks": 24,
            "midi": 61,
            "name": "C#4",
            "ticks": 55176,
            "time": 287.375,
            "velocity": 0.6614173228346457
          },
          {
            "duration": 0.25,
            "durationTicks": 48,
            "midi": 53,
            "name": "F3",
            "ticks": 55200,
            "time": 287.5,
            "velocity": 0.4330708661417323
          },
          {
            "duration": 0.17708333333331439,
            "durationTicks": 34,
            "midi": 63,
            "name": "D#4",
            "ticks": 55224,
            "time": 287.625,
            "velocity": 0.6299212598425197
          },
          {
            "duration": 0.25,
            "durationTicks": 48,
            "midi": 53,
            "name": "F3",
            "ticks": 55248,
            "time": 287.75,
            "velocity": 0.47244094488188976
          },
          {
            "duration": 0.10416666666668561,
            "durationTicks": 20,
            "midi": 65,
            "name": "F4",
            "ticks": 55272,
            "time": 287.875,
            "velocity": 0.6299212598425197
          },
          {
            "duration": 1.125,
            "durationTicks": 216,
            "midi": 44,
            "name": "G#2",
            "ticks": 55292,
            "time": 287.9791666666667,
            "velocity": 0.6535433070866141
          },
          {
            "duration": 1.1041666666666856,
            "durationTicks": 212,
            "midi": 56,
            "name": "G#3",
            "ticks": 55296,
            "time": 288,
            "velocity": 0.6535433070866141
          },
          {
            "duration": 0.140625,
            "durationTicks": 27,
            "midi": 70,
            "name": "A#4",
            "ticks": 55368,
            "time": 288.375,
            "velocity": 0.4881889763779528
          },
          {
            "duration": 0.4583333333333144,
            "durationTicks": 88,
            "midi": 65,
            "name": "F4",
            "ticks": 55392,
            "time": 288.5,
            "velocity": 0.5196850393700787
          },
          {
            "duration": 1.125,
            "durationTicks": 216,
            "midi": 42,
            "name": "F#2",
            "ticks": 55484,
            "time": 288.9791666666667,
            "velocity": 0.6929133858267716
          },
          {
            "duration": 1.1041666666666856,
            "durationTicks": 212,
            "midi": 54,
            "name": "F#3",
            "ticks": 55488,
            "time": 289,
            "velocity": 0.6929133858267716
          },
          {
            "duration": 0.140625,
            "durationTicks": 27,
            "midi": 70,
            "name": "A#4",
            "ticks": 55560,
            "time": 289.375,
            "velocity": 0.4566929133858268
          },
          {
            "duration": 0.4583333333333144,
            "durationTicks": 88,
            "midi": 65,
            "name": "F4",
            "ticks": 55584,
            "time": 289.5,
            "velocity": 0.5196850393700787
          },
          {
            "duration": 1.125,
            "durationTicks": 216,
            "midi": 41,
            "name": "F2",
            "ticks": 55676,
            "time": 289.9791666666667,
            "velocity": 0.6850393700787402
          },
          {
            "duration": 1.1041666666666856,
            "durationTicks": 212,
            "midi": 53,
            "name": "F3",
            "ticks": 55680,
            "time": 290,
            "velocity": 0.6850393700787402
          },
          {
            "duration": 0.140625,
            "durationTicks": 27,
            "midi": 70,
            "name": "A#4",
            "ticks": 55752,
            "time": 290.375,
            "velocity": 0.4881889763779528
          },
          {
            "duration": 0.4583333333333144,
            "durationTicks": 88,
            "midi": 65,
            "name": "F4",
            "ticks": 55776,
            "time": 290.5,
            "velocity": 0.5196850393700787
          },
          {
            "duration": 1.125,
            "durationTicks": 216,
            "midi": 40,
            "name": "E2",
            "ticks": 55868,
            "time": 290.9791666666667,
            "velocity": 0.6614173228346457
          },
          {
            "duration": 1.1041666666666856,
            "durationTicks": 212,
            "midi": 52,
            "name": "E3",
            "ticks": 55872,
            "time": 291,
            "velocity": 0.6614173228346457
          },
          {
            "duration": 0.140625,
            "durationTicks": 27,
            "midi": 70,
            "name": "A#4",
            "ticks": 55944,
            "time": 291.375,
            "velocity": 0.4566929133858268
          },
          {
            "duration": 0.4583333333333144,
            "durationTicks": 88,
            "midi": 65,
            "name": "F4",
            "ticks": 55968,
            "time": 291.5,
            "velocity": 0.5196850393700787
          },
          {
            "duration": 1.109375,
            "durationTicks": 213,
            "midi": 44,
            "name": "G#2",
            "ticks": 56063,
            "time": 291.9947916666667,
            "velocity": 0.6929133858267716
          },
          {
            "duration": 1.1041666666666856,
            "durationTicks": 212,
            "midi": 49,
            "name": "C#3",
            "ticks": 56064,
            "time": 292,
            "velocity": 0.6377952755905512
          },
          {
            "duration": 0.140625,
            "durationTicks": 27,
            "midi": 70,
            "name": "A#4",
            "ticks": 56136,
            "time": 292.375,
            "velocity": 0.4881889763779528
          },
          {
            "duration": 0.4583333333333144,
            "durationTicks": 88,
            "midi": 65,
            "name": "F4",
            "ticks": 56160,
            "time": 292.5,
            "velocity": 0.5196850393700787
          },
          {
            "duration": 1.109375,
            "durationTicks": 213,
            "midi": 46,
            "name": "A#2",
            "ticks": 56255,
            "time": 292.9947916666667,
            "velocity": 0.6771653543307087
          },
          {
            "duration": 1.1041666666666856,
            "durationTicks": 212,
            "midi": 51,
            "name": "D#3",
            "ticks": 56256,
            "time": 293,
            "velocity": 0.5905511811023622
          },
          {
            "duration": 0.140625,
            "durationTicks": 27,
            "midi": 70,
            "name": "A#4",
            "ticks": 56328,
            "time": 293.375,
            "velocity": 0.4566929133858268
          },
          {
            "duration": 0.4583333333333144,
            "durationTicks": 88,
            "midi": 65,
            "name": "F4",
            "ticks": 56352,
            "time": 293.5,
            "velocity": 0.5196850393700787
          },
          {
            "duration": 1.0625,
            "durationTicks": 204,
            "midi": 43,
            "name": "G2",
            "ticks": 56447,
            "time": 293.9947916666667,
            "velocity": 0.6456692913385826
          },
          {
            "duration": 1.0572916666666856,
            "durationTicks": 203,
            "midi": 48,
            "name": "C3",
            "ticks": 56448,
            "time": 294,
            "velocity": 0.6535433070866141
          },
          {
            "duration": 0.140625,
            "durationTicks": 27,
            "midi": 70,
            "name": "A#4",
            "ticks": 56520,
            "time": 294.375,
            "velocity": 0.4881889763779528
          },
          {
            "duration": 0.4583333333333144,
            "durationTicks": 88,
            "midi": 65,
            "name": "F4",
            "ticks": 56544,
            "time": 294.5,
            "velocity": 0.5196850393700787
          },
          {
            "duration": 0.984375,
            "durationTicks": 189,
            "midi": 44,
            "name": "G#2",
            "ticks": 56639,
            "time": 294.9947916666667,
            "velocity": 0.6850393700787402
          },
          {
            "duration": 1.1041666666666856,
            "durationTicks": 212,
            "midi": 49,
            "name": "C#3",
            "ticks": 56640,
            "time": 295,
            "velocity": 0.5984251968503937
          },
          {
            "duration": 0.140625,
            "durationTicks": 27,
            "midi": 70,
            "name": "A#4",
            "ticks": 56712,
            "time": 295.375,
            "velocity": 0.4566929133858268
          },
          {
            "duration": 0.4583333333333144,
            "durationTicks": 88,
            "midi": 64,
            "name": "E4",
            "ticks": 56736,
            "time": 295.5,
            "velocity": 0.5196850393700787
          },
          {
            "duration": 1.1041666666666856,
            "durationTicks": 212,
            "midi": 56,
            "name": "G#3",
            "ticks": 56832,
            "time": 296,
            "velocity": 0.6614173228346457
          },
          {
            "duration": 1.09375,
            "durationTicks": 210,
            "midi": 44,
            "name": "G#2",
            "ticks": 56834,
            "time": 296.0104166666667,
            "velocity": 0.6535433070866141
          },
          {
            "duration": 0.140625,
            "durationTicks": 27,
            "midi": 70,
            "name": "A#4",
            "ticks": 56904,
            "time": 296.375,
            "velocity": 0.4881889763779528
          },
          {
            "duration": 0.4583333333333144,
            "durationTicks": 88,
            "midi": 65,
            "name": "F4",
            "ticks": 56928,
            "time": 296.5,
            "velocity": 0.5196850393700787
          },
          {
            "duration": 1.1041666666666856,
            "durationTicks": 212,
            "midi": 54,
            "name": "F#3",
            "ticks": 57024,
            "time": 297,
            "velocity": 0.7007874015748031
          },
          {
            "duration": 1.09375,
            "durationTicks": 210,
            "midi": 42,
            "name": "F#2",
            "ticks": 57026,
            "time": 297.0104166666667,
            "velocity": 0.6929133858267716
          },
          {
            "duration": 0.140625,
            "durationTicks": 27,
            "midi": 70,
            "name": "A#4",
            "ticks": 57096,
            "time": 297.375,
            "velocity": 0.4566929133858268
          },
          {
            "duration": 0.4583333333333144,
            "durationTicks": 88,
            "midi": 65,
            "name": "F4",
            "ticks": 57120,
            "time": 297.5,
            "velocity": 0.5196850393700787
          },
          {
            "duration": 1.1041666666666856,
            "durationTicks": 212,
            "midi": 60,
            "name": "C4",
            "ticks": 57216,
            "time": 298,
            "velocity": 0.7007874015748031
          },
          {
            "duration": 1.09375,
            "durationTicks": 210,
            "midi": 48,
            "name": "C3",
            "ticks": 57218,
            "time": 298.0104166666667,
            "velocity": 0.6850393700787402
          },
          {
            "duration": 0.140625,
            "durationTicks": 27,
            "midi": 70,
            "name": "A#4",
            "ticks": 57288,
            "time": 298.375,
            "velocity": 0.4881889763779528
          },
          {
            "duration": 0.4583333333333144,
            "durationTicks": 88,
            "midi": 65,
            "name": "F4",
            "ticks": 57312,
            "time": 298.5,
            "velocity": 0.5196850393700787
          },
          {
            "duration": 1.1041666666666856,
            "durationTicks": 212,
            "midi": 57,
            "name": "A3",
            "ticks": 57408,
            "time": 299,
            "velocity": 0.6850393700787402
          },
          {
            "duration": 1.09375,
            "durationTicks": 210,
            "midi": 45,
            "name": "A2",
            "ticks": 57410,
            "time": 299.0104166666667,
            "velocity": 0.6299212598425197
          },
          {
            "duration": 0.140625,
            "durationTicks": 27,
            "midi": 70,
            "name": "A#4",
            "ticks": 57480,
            "time": 299.375,
            "velocity": 0.4566929133858268
          },
          {
            "duration": 0.4583333333333144,
            "durationTicks": 88,
            "midi": 65,
            "name": "F4",
            "ticks": 57504,
            "time": 299.5,
            "velocity": 0.5196850393700787
          },
          {
            "duration": 1.109375,
            "durationTicks": 213,
            "midi": 46,
            "name": "A#2",
            "ticks": 57599,
            "time": 299.9947916666667,
            "velocity": 0.5826771653543307
          },
          {
            "duration": 1.109375,
            "durationTicks": 213,
            "midi": 58,
            "name": "A#3",
            "ticks": 57599,
            "time": 299.9947916666667,
            "velocity": 0.5826771653543307
          },
          {
            "duration": 0.23958333333331439,
            "durationTicks": 46,
            "midi": 61,
            "name": "C#4",
            "ticks": 57600,
            "time": 300,
            "velocity": 0.6456692913385826
          },
          {
            "duration": 1.0989583333333144,
            "durationTicks": 211,
            "midi": 49,
            "name": "C#3",
            "ticks": 57602,
            "time": 300.0104166666667,
            "velocity": 0.6456692913385826
          },
          {
            "duration": 0.23958333333331439,
            "durationTicks": 46,
            "midi": 61,
            "name": "C#4",
            "ticks": 57648,
            "time": 300.25,
            "velocity": 0.6456692913385826
          },
          {
            "duration": 0.140625,
            "durationTicks": 27,
            "midi": 70,
            "name": "A#4",
            "ticks": 57672,
            "time": 300.375,
            "velocity": 0.4881889763779528
          },
          {
            "duration": 0.23958333333331439,
            "durationTicks": 46,
            "midi": 61,
            "name": "C#4",
            "ticks": 57696,
            "time": 300.5,
            "velocity": 0.6456692913385826
          },
          {
            "duration": 0.4583333333333144,
            "durationTicks": 88,
            "midi": 65,
            "name": "F4",
            "ticks": 57696,
            "time": 300.5,
            "velocity": 0.5196850393700787
          },
          {
            "duration": 0.23958333333331439,
            "durationTicks": 46,
            "midi": 61,
            "name": "C#4",
            "ticks": 57744,
            "time": 300.75,
            "velocity": 0.5196850393700787
          },
          {
            "duration": 1.109375,
            "durationTicks": 213,
            "midi": 45,
            "name": "A2",
            "ticks": 57791,
            "time": 300.9947916666667,
            "velocity": 0.5826771653543307
          },
          {
            "duration": 1.109375,
            "durationTicks": 213,
            "midi": 57,
            "name": "A3",
            "ticks": 57791,
            "time": 300.9947916666667,
            "velocity": 0.5826771653543307
          },
          {
            "duration": 0.23958333333331439,
            "durationTicks": 46,
            "midi": 60,
            "name": "C4",
            "ticks": 57792,
            "time": 301,
            "velocity": 0.7086614173228346
          },
          {
            "duration": 1.09375,
            "durationTicks": 210,
            "midi": 48,
            "name": "C3",
            "ticks": 57794,
            "time": 301.0104166666667,
            "velocity": 0.5984251968503937
          },
          {
            "duration": 0.17708333333331439,
            "durationTicks": 34,
            "midi": 60,
            "name": "C4",
            "ticks": 57840,
            "time": 301.25,
            "velocity": 0.6614173228346457
          },
          {
            "duration": 0.140625,
            "durationTicks": 27,
            "midi": 70,
            "name": "A#4",
            "ticks": 57864,
            "time": 301.375,
            "velocity": 0.4566929133858268
          },
          {
            "duration": 0.4166666666666856,
            "durationTicks": 80,
            "midi": 60,
            "name": "C4",
            "ticks": 57888,
            "time": 301.5,
            "velocity": 0.6614173228346457
          },
          {
            "duration": 0.4583333333333144,
            "durationTicks": 88,
            "midi": 65,
            "name": "F4",
            "ticks": 57888,
            "time": 301.5,
            "velocity": 0.5196850393700787
          },
          {
            "duration": 1.0625,
            "durationTicks": 204,
            "midi": 46,
            "name": "A#2",
            "ticks": 57983,
            "time": 301.9947916666667,
            "velocity": 0.5590551181102362
          },
          {
            "duration": 1.0625,
            "durationTicks": 204,
            "midi": 58,
            "name": "A#3",
            "ticks": 57983,
            "time": 301.9947916666667,
            "velocity": 0.5590551181102362
          },
          {
            "duration": 0.23958333333331439,
            "durationTicks": 46,
            "midi": 63,
            "name": "D#4",
            "ticks": 57984,
            "time": 302,
            "velocity": 0.7559055118110236
          },
          {
            "duration": 1.046875,
            "durationTicks": 201,
            "midi": 51,
            "name": "D#3",
            "ticks": 57986,
            "time": 302.0104166666667,
            "velocity": 0.6850393700787402
          },
          {
            "duration": 0.23958333333331439,
            "durationTicks": 46,
            "midi": 63,
            "name": "D#4",
            "ticks": 58032,
            "time": 302.25,
            "velocity": 0.7244094488188977
          },
          {
            "duration": 0.140625,
            "durationTicks": 27,
            "midi": 70,
            "name": "A#4",
            "ticks": 58056,
            "time": 302.375,
            "velocity": 0.4881889763779528
          },
          {
            "duration": 0.3645833333333144,
            "durationTicks": 70,
            "midi": 63,
            "name": "D#4",
            "ticks": 58080,
            "time": 302.5,
            "velocity": 0.7244094488188977
          },
          {
            "duration": 0.4583333333333144,
            "durationTicks": 88,
            "midi": 65,
            "name": "F4",
            "ticks": 58080,
            "time": 302.5,
            "velocity": 0.5748031496062992
          },
          {
            "duration": 1.0052083333333144,
            "durationTicks": 193,
            "midi": 48,
            "name": "C3",
            "ticks": 58175,
            "time": 302.9947916666667,
            "velocity": 0.6614173228346457
          },
          {
            "duration": 1.0052083333333144,
            "durationTicks": 193,
            "midi": 60,
            "name": "C4",
            "ticks": 58175,
            "time": 302.9947916666667,
            "velocity": 0.6614173228346457
          },
          {
            "duration": 0.25,
            "durationTicks": 48,
            "midi": 65,
            "name": "F4",
            "ticks": 58176,
            "time": 303,
            "velocity": 0.6771653543307087
          },
          {
            "duration": 1.09375,
            "durationTicks": 210,
            "midi": 53,
            "name": "F3",
            "ticks": 58178,
            "time": 303.0104166666667,
            "velocity": 0.6850393700787402
          },
          {
            "duration": 0.23958333333331439,
            "durationTicks": 46,
            "midi": 65,
            "name": "F4",
            "ticks": 58224,
            "time": 303.25,
            "velocity": 0.6535433070866141
          },
          {
            "duration": 0.25,
            "durationTicks": 48,
            "midi": 65,
            "name": "F4",
            "ticks": 58272,
            "time": 303.5,
            "velocity": 0.7401574803149606
          },
          {
            "duration": 0.23958333333331439,
            "durationTicks": 46,
            "midi": 65,
            "name": "F4",
            "ticks": 58320,
            "time": 303.75,
            "velocity": 0.49606299212598426
          },
          {
            "duration": 1.125,
            "durationTicks": 216,
            "midi": 44,
            "name": "G#2",
            "ticks": 58364,
            "time": 303.9791666666667,
            "velocity": 0.6535433070866141
          },
          {
            "duration": 1.1041666666666856,
            "durationTicks": 212,
            "midi": 56,
            "name": "G#3",
            "ticks": 58368,
            "time": 304,
            "velocity": 0.6535433070866141
          },
          {
            "duration": 0.140625,
            "durationTicks": 27,
            "midi": 70,
            "name": "A#4",
            "ticks": 58440,
            "time": 304.375,
            "velocity": 0.4881889763779528
          },
          {
            "duration": 0.4583333333333144,
            "durationTicks": 88,
            "midi": 65,
            "name": "F4",
            "ticks": 58464,
            "time": 304.5,
            "velocity": 0.5196850393700787
          },
          {
            "duration": 1.125,
            "durationTicks": 216,
            "midi": 42,
            "name": "F#2",
            "ticks": 58556,
            "time": 304.9791666666667,
            "velocity": 0.6929133858267716
          },
          {
            "duration": 1.1041666666666856,
            "durationTicks": 212,
            "midi": 54,
            "name": "F#3",
            "ticks": 58560,
            "time": 305,
            "velocity": 0.6929133858267716
          },
          {
            "duration": 0.140625,
            "durationTicks": 27,
            "midi": 70,
            "name": "A#4",
            "ticks": 58632,
            "time": 305.375,
            "velocity": 0.4566929133858268
          },
          {
            "duration": 0.4583333333333144,
            "durationTicks": 88,
            "midi": 65,
            "name": "F4",
            "ticks": 58656,
            "time": 305.5,
            "velocity": 0.5196850393700787
          },
          {
            "duration": 1.125,
            "durationTicks": 216,
            "midi": 41,
            "name": "F2",
            "ticks": 58748,
            "time": 305.9791666666667,
            "velocity": 0.6850393700787402
          },
          {
            "duration": 1.1041666666666856,
            "durationTicks": 212,
            "midi": 53,
            "name": "F3",
            "ticks": 58752,
            "time": 306,
            "velocity": 0.6850393700787402
          },
          {
            "duration": 0.140625,
            "durationTicks": 27,
            "midi": 70,
            "name": "A#4",
            "ticks": 58824,
            "time": 306.375,
            "velocity": 0.4881889763779528
          },
          {
            "duration": 0.4583333333333144,
            "durationTicks": 88,
            "midi": 65,
            "name": "F4",
            "ticks": 58848,
            "time": 306.5,
            "velocity": 0.5196850393700787
          },
          {
            "duration": 1.125,
            "durationTicks": 216,
            "midi": 40,
            "name": "E2",
            "ticks": 58940,
            "time": 306.9791666666667,
            "velocity": 0.6614173228346457
          },
          {
            "duration": 1.1041666666666856,
            "durationTicks": 212,
            "midi": 52,
            "name": "E3",
            "ticks": 58944,
            "time": 307,
            "velocity": 0.6614173228346457
          },
          {
            "duration": 0.140625,
            "durationTicks": 27,
            "midi": 70,
            "name": "A#4",
            "ticks": 59016,
            "time": 307.375,
            "velocity": 0.4566929133858268
          },
          {
            "duration": 0.4583333333333144,
            "durationTicks": 88,
            "midi": 65,
            "name": "F4",
            "ticks": 59040,
            "time": 307.5,
            "velocity": 0.5196850393700787
          },
          {
            "duration": 1.109375,
            "durationTicks": 213,
            "midi": 44,
            "name": "G#2",
            "ticks": 59135,
            "time": 307.9947916666667,
            "velocity": 0.6929133858267716
          },
          {
            "duration": 1.1041666666666856,
            "durationTicks": 212,
            "midi": 49,
            "name": "C#3",
            "ticks": 59136,
            "time": 308,
            "velocity": 0.6377952755905512
          },
          {
            "duration": 0.140625,
            "durationTicks": 27,
            "midi": 70,
            "name": "A#4",
            "ticks": 59208,
            "time": 308.375,
            "velocity": 0.4881889763779528
          },
          {
            "duration": 0.4583333333333144,
            "durationTicks": 88,
            "midi": 65,
            "name": "F4",
            "ticks": 59232,
            "time": 308.5,
            "velocity": 0.5196850393700787
          },
          {
            "duration": 1.109375,
            "durationTicks": 213,
            "midi": 46,
            "name": "A#2",
            "ticks": 59327,
            "time": 308.9947916666667,
            "velocity": 0.6771653543307087
          },
          {
            "duration": 1.1041666666666856,
            "durationTicks": 212,
            "midi": 51,
            "name": "D#3",
            "ticks": 59328,
            "time": 309,
            "velocity": 0.5905511811023622
          },
          {
            "duration": 0.140625,
            "durationTicks": 27,
            "midi": 70,
            "name": "A#4",
            "ticks": 59400,
            "time": 309.375,
            "velocity": 0.4566929133858268
          },
          {
            "duration": 0.4583333333333144,
            "durationTicks": 88,
            "midi": 65,
            "name": "F4",
            "ticks": 59424,
            "time": 309.5,
            "velocity": 0.5196850393700787
          },
          {
            "duration": 1.0625,
            "durationTicks": 204,
            "midi": 43,
            "name": "G2",
            "ticks": 59519,
            "time": 309.9947916666667,
            "velocity": 0.6456692913385826
          },
          {
            "duration": 1.0572916666666856,
            "durationTicks": 203,
            "midi": 48,
            "name": "C3",
            "ticks": 59520,
            "time": 310,
            "velocity": 0.6535433070866141
          },
          {
            "duration": 0.140625,
            "durationTicks": 27,
            "midi": 70,
            "name": "A#4",
            "ticks": 59592,
            "time": 310.375,
            "velocity": 0.4881889763779528
          },
          {
            "duration": 0.4583333333333144,
            "durationTicks": 88,
            "midi": 65,
            "name": "F4",
            "ticks": 59616,
            "time": 310.5,
            "velocity": 0.5196850393700787
          },
          {
            "duration": 0.984375,
            "durationTicks": 189,
            "midi": 44,
            "name": "G#2",
            "ticks": 59711,
            "time": 310.9947916666667,
            "velocity": 0.6850393700787402
          },
          {
            "duration": 1.1041666666666856,
            "durationTicks": 212,
            "midi": 49,
            "name": "C#3",
            "ticks": 59712,
            "time": 311,
            "velocity": 0.5984251968503937
          },
          {
            "duration": 0.140625,
            "durationTicks": 27,
            "midi": 70,
            "name": "A#4",
            "ticks": 59784,
            "time": 311.375,
            "velocity": 0.4566929133858268
          },
          {
            "duration": 0.4583333333333144,
            "durationTicks": 88,
            "midi": 64,
            "name": "E4",
            "ticks": 59808,
            "time": 311.5,
            "velocity": 0.5196850393700787
          },
          {
            "duration": 1.1041666666666856,
            "durationTicks": 212,
            "midi": 56,
            "name": "G#3",
            "ticks": 59904,
            "time": 312,
            "velocity": 0.6614173228346457
          },
          {
            "duration": 1.09375,
            "durationTicks": 210,
            "midi": 44,
            "name": "G#2",
            "ticks": 59906,
            "time": 312.0104166666667,
            "velocity": 0.6535433070866141
          },
          {
            "duration": 0.140625,
            "durationTicks": 27,
            "midi": 70,
            "name": "A#4",
            "ticks": 59976,
            "time": 312.375,
            "velocity": 0.4881889763779528
          },
          {
            "duration": 0.4583333333333144,
            "durationTicks": 88,
            "midi": 65,
            "name": "F4",
            "ticks": 60000,
            "time": 312.5,
            "velocity": 0.5196850393700787
          },
          {
            "duration": 1.1041666666666856,
            "durationTicks": 212,
            "midi": 54,
            "name": "F#3",
            "ticks": 60096,
            "time": 313,
            "velocity": 0.7007874015748031
          },
          {
            "duration": 1.09375,
            "durationTicks": 210,
            "midi": 42,
            "name": "F#2",
            "ticks": 60098,
            "time": 313.0104166666667,
            "velocity": 0.6929133858267716
          },
          {
            "duration": 0.140625,
            "durationTicks": 27,
            "midi": 70,
            "name": "A#4",
            "ticks": 60168,
            "time": 313.375,
            "velocity": 0.4566929133858268
          },
          {
            "duration": 0.4583333333333144,
            "durationTicks": 88,
            "midi": 65,
            "name": "F4",
            "ticks": 60192,
            "time": 313.5,
            "velocity": 0.5196850393700787
          },
          {
            "duration": 1.1041666666666856,
            "durationTicks": 212,
            "midi": 60,
            "name": "C4",
            "ticks": 60288,
            "time": 314,
            "velocity": 0.7007874015748031
          },
          {
            "duration": 1.09375,
            "durationTicks": 210,
            "midi": 48,
            "name": "C3",
            "ticks": 60290,
            "time": 314.0104166666667,
            "velocity": 0.6850393700787402
          },
          {
            "duration": 0.140625,
            "durationTicks": 27,
            "midi": 70,
            "name": "A#4",
            "ticks": 60360,
            "time": 314.375,
            "velocity": 0.4881889763779528
          },
          {
            "duration": 0.4583333333333144,
            "durationTicks": 88,
            "midi": 65,
            "name": "F4",
            "ticks": 60384,
            "time": 314.5,
            "velocity": 0.5196850393700787
          },
          {
            "duration": 1.1041666666666856,
            "durationTicks": 212,
            "midi": 57,
            "name": "A3",
            "ticks": 60480,
            "time": 315,
            "velocity": 0.6850393700787402
          },
          {
            "duration": 1.09375,
            "durationTicks": 210,
            "midi": 45,
            "name": "A2",
            "ticks": 60482,
            "time": 315.0104166666667,
            "velocity": 0.6299212598425197
          },
          {
            "duration": 0.140625,
            "durationTicks": 27,
            "midi": 70,
            "name": "A#4",
            "ticks": 60552,
            "time": 315.375,
            "velocity": 0.4566929133858268
          },
          {
            "duration": 0.4583333333333144,
            "durationTicks": 88,
            "midi": 65,
            "name": "F4",
            "ticks": 60576,
            "time": 315.5,
            "velocity": 0.5196850393700787
          },
          {
            "duration": 1.109375,
            "durationTicks": 213,
            "midi": 46,
            "name": "A#2",
            "ticks": 60671,
            "time": 315.9947916666667,
            "velocity": 0.5826771653543307
          },
          {
            "duration": 1.109375,
            "durationTicks": 213,
            "midi": 58,
            "name": "A#3",
            "ticks": 60671,
            "time": 315.9947916666667,
            "velocity": 0.5826771653543307
          },
          {
            "duration": 0.23958333333331439,
            "durationTicks": 46,
            "midi": 61,
            "name": "C#4",
            "ticks": 60672,
            "time": 316,
            "velocity": 0.6456692913385826
          },
          {
            "duration": 1.0989583333333144,
            "durationTicks": 211,
            "midi": 49,
            "name": "C#3",
            "ticks": 60674,
            "time": 316.0104166666667,
            "velocity": 0.6456692913385826
          },
          {
            "duration": 0.23958333333331439,
            "durationTicks": 46,
            "midi": 61,
            "name": "C#4",
            "ticks": 60720,
            "time": 316.25,
            "velocity": 0.6456692913385826
          },
          {
            "duration": 0.140625,
            "durationTicks": 27,
            "midi": 70,
            "name": "A#4",
            "ticks": 60744,
            "time": 316.375,
            "velocity": 0.4881889763779528
          },
          {
            "duration": 0.23958333333331439,
            "durationTicks": 46,
            "midi": 61,
            "name": "C#4",
            "ticks": 60768,
            "time": 316.5,
            "velocity": 0.6456692913385826
          },
          {
            "duration": 0.4583333333333144,
            "durationTicks": 88,
            "midi": 65,
            "name": "F4",
            "ticks": 60768,
            "time": 316.5,
            "velocity": 0.5196850393700787
          },
          {
            "duration": 0.23958333333331439,
            "durationTicks": 46,
            "midi": 61,
            "name": "C#4",
            "ticks": 60816,
            "time": 316.75,
            "velocity": 0.5196850393700787
          },
          {
            "duration": 1.109375,
            "durationTicks": 213,
            "midi": 45,
            "name": "A2",
            "ticks": 60863,
            "time": 316.9947916666667,
            "velocity": 0.5826771653543307
          },
          {
            "duration": 1.109375,
            "durationTicks": 213,
            "midi": 57,
            "name": "A3",
            "ticks": 60863,
            "time": 316.9947916666667,
            "velocity": 0.5826771653543307
          },
          {
            "duration": 0.23958333333331439,
            "durationTicks": 46,
            "midi": 60,
            "name": "C4",
            "ticks": 60864,
            "time": 317,
            "velocity": 0.7086614173228346
          },
          {
            "duration": 1.09375,
            "durationTicks": 210,
            "midi": 48,
            "name": "C3",
            "ticks": 60866,
            "time": 317.0104166666667,
            "velocity": 0.5984251968503937
          },
          {
            "duration": 0.17708333333331439,
            "durationTicks": 34,
            "midi": 60,
            "name": "C4",
            "ticks": 60912,
            "time": 317.25,
            "velocity": 0.6614173228346457
          },
          {
            "duration": 0.140625,
            "durationTicks": 27,
            "midi": 70,
            "name": "A#4",
            "ticks": 60936,
            "time": 317.375,
            "velocity": 0.4566929133858268
          },
          {
            "duration": 0.4166666666666856,
            "durationTicks": 80,
            "midi": 60,
            "name": "C4",
            "ticks": 60960,
            "time": 317.5,
            "velocity": 0.6614173228346457
          },
          {
            "duration": 0.4583333333333144,
            "durationTicks": 88,
            "midi": 65,
            "name": "F4",
            "ticks": 60960,
            "time": 317.5,
            "velocity": 0.5196850393700787
          },
          {
            "duration": 1.0625,
            "durationTicks": 204,
            "midi": 46,
            "name": "A#2",
            "ticks": 61055,
            "time": 317.9947916666667,
            "velocity": 0.5590551181102362
          },
          {
            "duration": 1.0625,
            "durationTicks": 204,
            "midi": 58,
            "name": "A#3",
            "ticks": 61055,
            "time": 317.9947916666667,
            "velocity": 0.5590551181102362
          },
          {
            "duration": 0.23958333333331439,
            "durationTicks": 46,
            "midi": 63,
            "name": "D#4",
            "ticks": 61056,
            "time": 318,
            "velocity": 0.7559055118110236
          },
          {
            "duration": 1.046875,
            "durationTicks": 201,
            "midi": 51,
            "name": "D#3",
            "ticks": 61058,
            "time": 318.0104166666667,
            "velocity": 0.6850393700787402
          },
          {
            "duration": 0.23958333333331439,
            "durationTicks": 46,
            "midi": 63,
            "name": "D#4",
            "ticks": 61104,
            "time": 318.25,
            "velocity": 0.7244094488188977
          },
          {
            "duration": 0.140625,
            "durationTicks": 27,
            "midi": 70,
            "name": "A#4",
            "ticks": 61128,
            "time": 318.375,
            "velocity": 0.4881889763779528
          },
          {
            "duration": 0.3645833333333144,
            "durationTicks": 70,
            "midi": 63,
            "name": "D#4",
            "ticks": 61152,
            "time": 318.5,
            "velocity": 0.7244094488188977
          },
          {
            "duration": 0.4583333333333144,
            "durationTicks": 88,
            "midi": 65,
            "name": "F4",
            "ticks": 61152,
            "time": 318.5,
            "velocity": 0.5748031496062992
          },
          {
            "duration": 1.0052083333333144,
            "durationTicks": 193,
            "midi": 48,
            "name": "C3",
            "ticks": 61247,
            "time": 318.9947916666667,
            "velocity": 0.6614173228346457
          },
          {
            "duration": 1.0052083333333144,
            "durationTicks": 193,
            "midi": 60,
            "name": "C4",
            "ticks": 61247,
            "time": 318.9947916666667,
            "velocity": 0.6614173228346457
          },
          {
            "duration": 0.25,
            "durationTicks": 48,
            "midi": 65,
            "name": "F4",
            "ticks": 61248,
            "time": 319,
            "velocity": 0.6771653543307087
          },
          {
            "duration": 1.09375,
            "durationTicks": 210,
            "midi": 53,
            "name": "F3",
            "ticks": 61250,
            "time": 319.0104166666667,
            "velocity": 0.6850393700787402
          },
          {
            "duration": 0.23958333333331439,
            "durationTicks": 46,
            "midi": 65,
            "name": "F4",
            "ticks": 61296,
            "time": 319.25,
            "velocity": 0.6535433070866141
          },
          {
            "duration": 0.25,
            "durationTicks": 48,
            "midi": 65,
            "name": "F4",
            "ticks": 61344,
            "time": 319.5,
            "velocity": 0.7401574803149606
          },
          {
            "duration": 0.23958333333331439,
            "durationTicks": 46,
            "midi": 65,
            "name": "F4",
            "ticks": 61392,
            "time": 319.75,
            "velocity": 0.49606299212598426
          },
          {
            "duration": 0.13020833333331439,
            "durationTicks": 25,
            "midi": 46,
            "name": "A#2",
            "ticks": 61440,
            "time": 320,
            "velocity": 0.7559055118110236
          },
          {
            "duration": 0.15104166666668561,
            "durationTicks": 29,
            "midi": 70,
            "name": "A#4",
            "ticks": 61464,
            "time": 320.125,
            "velocity": 0.47244094488188976
          },
          {
            "duration": 0.125,
            "durationTicks": 24,
            "midi": 68,
            "name": "G#4",
            "ticks": 61488,
            "time": 320.25,
            "velocity": 0.6456692913385826
          },
          {
            "duration": 0.125,
            "durationTicks": 24,
            "midi": 70,
            "name": "A#4",
            "ticks": 61512,
            "time": 320.375,
            "velocity": 0.6456692913385826
          },
          {
            "duration": 0.15104166666668561,
            "durationTicks": 29,
            "midi": 66,
            "name": "F#4",
            "ticks": 61536,
            "time": 320.5,
            "velocity": 0.6850393700787402
          },
          {
            "duration": 0.125,
            "durationTicks": 24,
            "midi": 70,
            "name": "A#4",
            "ticks": 61560,
            "time": 320.625,
            "velocity": 0.41732283464566927
          },
          {
            "duration": 0.13020833333331439,
            "durationTicks": 25,
            "midi": 65,
            "name": "F4",
            "ticks": 61584,
            "time": 320.75,
            "velocity": 0.6141732283464567
          },
          {
            "duration": 0.125,
            "durationTicks": 24,
            "midi": 70,
            "name": "A#4",
            "ticks": 61608,
            "time": 320.875,
            "velocity": 0.41732283464566927
          },
          {
            "duration": 0.15104166666668561,
            "durationTicks": 29,
            "midi": 64,
            "name": "E4",
            "ticks": 61632,
            "time": 321,
            "velocity": 0.6850393700787402
          },
          {
            "duration": 0.125,
            "durationTicks": 24,
            "midi": 70,
            "name": "A#4",
            "ticks": 61656,
            "time": 321.125,
            "velocity": 0.41732283464566927
          },
          {
            "duration": 0.13020833333331439,
            "durationTicks": 25,
            "midi": 65,
            "name": "F4",
            "ticks": 61680,
            "time": 321.25,
            "velocity": 0.6141732283464567
          },
          {
            "duration": 0.125,
            "durationTicks": 24,
            "midi": 70,
            "name": "A#4",
            "ticks": 61704,
            "time": 321.375,
            "velocity": 0.41732283464566927
          },
          {
            "duration": 0.15104166666668561,
            "durationTicks": 29,
            "midi": 61,
            "name": "C#4",
            "ticks": 61728,
            "time": 321.5,
            "velocity": 0.6850393700787402
          },
          {
            "duration": 0.125,
            "durationTicks": 24,
            "midi": 70,
            "name": "A#4",
            "ticks": 61752,
            "time": 321.625,
            "velocity": 0.41732283464566927
          },
          {
            "duration": 0.18229166666668561,
            "durationTicks": 35,
            "midi": 63,
            "name": "D#4",
            "ticks": 61776,
            "time": 321.75,
            "velocity": 0.6141732283464567
          },
          {
            "duration": 0.125,
            "durationTicks": 24,
            "midi": 70,
            "name": "A#4",
            "ticks": 61800,
            "time": 321.875,
            "velocity": 0.41732283464566927
          },
          {
            "duration": 0.140625,
            "durationTicks": 27,
            "midi": 45,
            "name": "A2",
            "ticks": 61824,
            "time": 322,
            "velocity": 0.5984251968503937
          },
          {
            "duration": 0.140625,
            "durationTicks": 27,
            "midi": 70,
            "name": "A#4",
            "ticks": 61848,
            "time": 322.125,
            "velocity": 0.47244094488188976
          },
          {
            "duration": 0.11979166666668561,
            "durationTicks": 23,
            "midi": 68,
            "name": "G#4",
            "ticks": 61872,
            "time": 322.25,
            "velocity": 0.6456692913385826
          },
          {
            "duration": 0.13020833333331439,
            "durationTicks": 25,
            "midi": 70,
            "name": "A#4",
            "ticks": 61896,
            "time": 322.375,
            "velocity": 0.4881889763779528
          },
          {
            "duration": 0.15104166666668561,
            "durationTicks": 29,
            "midi": 66,
            "name": "F#4",
            "ticks": 61920,
            "time": 322.5,
            "velocity": 0.6850393700787402
          },
          {
            "duration": 0.125,
            "durationTicks": 24,
            "midi": 70,
            "name": "A#4",
            "ticks": 61944,
            "time": 322.625,
            "velocity": 0.41732283464566927
          },
          {
            "duration": 0.13541666666668561,
            "durationTicks": 26,
            "midi": 65,
            "name": "F4",
            "ticks": 61968,
            "time": 322.75,
            "velocity": 0.6141732283464567
          },
          {
            "duration": 0.125,
            "durationTicks": 24,
            "midi": 70,
            "name": "A#4",
            "ticks": 61992,
            "time": 322.875,
            "velocity": 0.41732283464566927
          },
          {
            "duration": 0.125,
            "durationTicks": 24,
            "midi": 63,
            "name": "D#4",
            "ticks": 62016,
            "time": 323,
            "velocity": 0.6850393700787402
          },
          {
            "duration": 0.125,
            "durationTicks": 24,
            "midi": 70,
            "name": "A#4",
            "ticks": 62040,
            "time": 323.125,
            "velocity": 0.41732283464566927
          },
          {
            "duration": 0.13541666666668561,
            "durationTicks": 26,
            "midi": 65,
            "name": "F4",
            "ticks": 62064,
            "time": 323.25,
            "velocity": 0.6141732283464567
          },
          {
            "duration": 0.125,
            "durationTicks": 24,
            "midi": 70,
            "name": "A#4",
            "ticks": 62088,
            "time": 323.375,
            "velocity": 0.41732283464566927
          },
          {
            "duration": 0.4895833333333144,
            "durationTicks": 94,
            "midi": 45,
            "name": "A2",
            "ticks": 62112,
            "time": 323.5,
            "velocity": 0.6220472440944882
          },
          {
            "duration": 0.125,
            "durationTicks": 24,
            "midi": 44,
            "name": "G#2",
            "ticks": 62208,
            "time": 324,
            "velocity": 0.5905511811023622
          },
          {
            "duration": 0.140625,
            "durationTicks": 27,
            "midi": 70,
            "name": "A#4",
            "ticks": 62232,
            "time": 324.125,
            "velocity": 0.47244094488188976
          },
          {
            "duration": 0.125,
            "durationTicks": 24,
            "midi": 68,
            "name": "G#4",
            "ticks": 62256,
            "time": 324.25,
            "velocity": 0.6456692913385826
          },
          {
            "duration": 0.13020833333331439,
            "durationTicks": 25,
            "midi": 70,
            "name": "A#4",
            "ticks": 62280,
            "time": 324.375,
            "velocity": 0.6456692913385826
          },
          {
            "duration": 0.15104166666668561,
            "durationTicks": 29,
            "midi": 66,
            "name": "F#4",
            "ticks": 62304,
            "time": 324.5,
            "velocity": 0.6850393700787402
          },
          {
            "duration": 0.125,
            "durationTicks": 24,
            "midi": 70,
            "name": "A#4",
            "ticks": 62328,
            "time": 324.625,
            "velocity": 0.41732283464566927
          },
          {
            "duration": 0.13541666666668561,
            "durationTicks": 26,
            "midi": 65,
            "name": "F4",
            "ticks": 62352,
            "time": 324.75,
            "velocity": 0.6141732283464567
          },
          {
            "duration": 0.125,
            "durationTicks": 24,
            "midi": 70,
            "name": "A#4",
            "ticks": 62376,
            "time": 324.875,
            "velocity": 0.41732283464566927
          },
          {
            "duration": 0.15104166666668561,
            "durationTicks": 29,
            "midi": 64,
            "name": "E4",
            "ticks": 62400,
            "time": 325,
            "velocity": 0.6850393700787402
          },
          {
            "duration": 0.125,
            "durationTicks": 24,
            "midi": 70,
            "name": "A#4",
            "ticks": 62424,
            "time": 325.125,
            "velocity": 0.41732283464566927
          },
          {
            "duration": 0.13541666666668561,
            "durationTicks": 26,
            "midi": 65,
            "name": "F4",
            "ticks": 62448,
            "time": 325.25,
            "velocity": 0.6141732283464567
          },
          {
            "duration": 0.125,
            "durationTicks": 24,
            "midi": 70,
            "name": "A#4",
            "ticks": 62472,
            "time": 325.375,
            "velocity": 0.41732283464566927
          },
          {
            "duration": 0.15104166666668561,
            "durationTicks": 29,
            "midi": 61,
            "name": "C#4",
            "ticks": 62496,
            "time": 325.5,
            "velocity": 0.6850393700787402
          },
          {
            "duration": 0.125,
            "durationTicks": 24,
            "midi": 70,
            "name": "A#4",
            "ticks": 62520,
            "time": 325.625,
            "velocity": 0.41732283464566927
          },
          {
            "duration": 0.13020833333331439,
            "durationTicks": 25,
            "midi": 63,
            "name": "D#4",
            "ticks": 62544,
            "time": 325.75,
            "velocity": 0.6141732283464567
          },
          {
            "duration": 0.125,
            "durationTicks": 24,
            "midi": 70,
            "name": "A#4",
            "ticks": 62568,
            "time": 325.875,
            "velocity": 0.41732283464566927
          },
          {
            "duration": 0.13541666666668561,
            "durationTicks": 26,
            "midi": 43,
            "name": "G2",
            "ticks": 62592,
            "time": 326,
            "velocity": 0.5669291338582677
          },
          {
            "duration": 0.14583333333331439,
            "durationTicks": 28,
            "midi": 70,
            "name": "A#4",
            "ticks": 62616,
            "time": 326.125,
            "velocity": 0.47244094488188976
          },
          {
            "duration": 0.125,
            "durationTicks": 24,
            "midi": 68,
            "name": "G#4",
            "ticks": 62640,
            "time": 326.25,
            "velocity": 0.6456692913385826
          },
          {
            "duration": 0.125,
            "durationTicks": 24,
            "midi": 70,
            "name": "A#4",
            "ticks": 62664,
            "time": 326.375,
            "velocity": 0.6456692913385826
          },
          {
            "duration": 0.15104166666668561,
            "durationTicks": 29,
            "midi": 66,
            "name": "F#4",
            "ticks": 62688,
            "time": 326.5,
            "velocity": 0.6850393700787402
          },
          {
            "duration": 0.125,
            "durationTicks": 24,
            "midi": 70,
            "name": "A#4",
            "ticks": 62712,
            "time": 326.625,
            "velocity": 0.41732283464566927
          },
          {
            "duration": 0.13020833333331439,
            "durationTicks": 25,
            "midi": 65,
            "name": "F4",
            "ticks": 62736,
            "time": 326.75,
            "velocity": 0.6141732283464567
          },
          {
            "duration": 0.125,
            "durationTicks": 24,
            "midi": 70,
            "name": "A#4",
            "ticks": 62760,
            "time": 326.875,
            "velocity": 0.41732283464566927
          },
          {
            "duration": 0.203125,
            "durationTicks": 39,
            "midi": 63,
            "name": "D#4",
            "ticks": 62784,
            "time": 327,
            "velocity": 0.6850393700787402
          },
          {
            "duration": 0.125,
            "durationTicks": 24,
            "midi": 70,
            "name": "A#4",
            "ticks": 62808,
            "time": 327.125,
            "velocity": 0.41732283464566927
          },
          {
            "duration": 0.13020833333331439,
            "durationTicks": 25,
            "midi": 65,
            "name": "F4",
            "ticks": 62832,
            "time": 327.25,
            "velocity": 0.6141732283464567
          },
          {
            "duration": 0.125,
            "durationTicks": 24,
            "midi": 70,
            "name": "A#4",
            "ticks": 62856,
            "time": 327.375,
            "velocity": 0.41732283464566927
          },
          {
            "duration": 0.5,
            "durationTicks": 96,
            "midi": 43,
            "name": "G2",
            "ticks": 62880,
            "time": 327.5,
            "velocity": 0.6141732283464567
          },
          {
            "duration": 0.125,
            "durationTicks": 24,
            "midi": 42,
            "name": "F#2",
            "ticks": 62976,
            "time": 328,
            "velocity": 0.5433070866141733
          },
          {
            "duration": 0.15625,
            "durationTicks": 30,
            "midi": 65,
            "name": "F4",
            "ticks": 63000,
            "time": 328.125,
            "velocity": 0.5984251968503937
          },
          {
            "duration": 0.16666666666668561,
            "durationTicks": 32,
            "midi": 66,
            "name": "F#4",
            "ticks": 63024,
            "time": 328.25,
            "velocity": 0.6220472440944882
          },
          {
            "duration": 0.21354166666668561,
            "durationTicks": 41,
            "midi": 68,
            "name": "G#4",
            "ticks": 63048,
            "time": 328.375,
            "velocity": 0.6535433070866141
          },
          {
            "duration": 0.3958333333333144,
            "durationTicks": 76,
            "midi": 70,
            "name": "A#4",
            "ticks": 63072,
            "time": 328.5,
            "velocity": 0.6614173228346457
          },
          {
            "duration": 0.125,
            "durationTicks": 24,
            "midi": 42,
            "name": "F#2",
            "ticks": 63120,
            "time": 328.75,
            "velocity": 0.5905511811023622
          },
          {
            "duration": 0.13541666666668561,
            "durationTicks": 26,
            "midi": 65,
            "name": "F4",
            "ticks": 63144,
            "time": 328.875,
            "velocity": 0.5905511811023622
          },
          {
            "duration": 0.171875,
            "durationTicks": 33,
            "midi": 66,
            "name": "F#4",
            "ticks": 63168,
            "time": 329,
            "velocity": 0.6141732283464567
          },
          {
            "duration": 0.23958333333331439,
            "durationTicks": 46,
            "midi": 72,
            "name": "C5",
            "ticks": 63192,
            "time": 329.125,
            "velocity": 0.6456692913385826
          },
          {
            "duration": 0.5052083333333144,
            "durationTicks": 97,
            "midi": 70,
            "name": "A#4",
            "ticks": 63216,
            "time": 329.25,
            "velocity": 0.6850393700787402
          },
          {
            "duration": 0.5,
            "durationTicks": 96,
            "midi": 42,
            "name": "F#2",
            "ticks": 63264,
            "time": 329.5,
            "velocity": 0.6220472440944882
          },
          {
            "duration": 0.23958333333331439,
            "durationTicks": 46,
            "midi": 65,
            "name": "F4",
            "ticks": 63312,
            "time": 329.75,
            "velocity": 0.5748031496062992
          },
          {
            "duration": 0.125,
            "durationTicks": 24,
            "midi": 41,
            "name": "F2",
            "ticks": 63360,
            "time": 330,
            "velocity": 0.5905511811023622
          },
          {
            "duration": 0.15625,
            "durationTicks": 30,
            "midi": 65,
            "name": "F4",
            "ticks": 63384,
            "time": 330.125,
            "velocity": 0.5984251968503937
          },
          {
            "duration": 0.16666666666668561,
            "durationTicks": 32,
            "midi": 66,
            "name": "F#4",
            "ticks": 63408,
            "time": 330.25,
            "velocity": 0.5826771653543307
          },
          {
            "duration": 0.21354166666668561,
            "durationTicks": 41,
            "midi": 68,
            "name": "G#4",
            "ticks": 63432,
            "time": 330.375,
            "velocity": 0.6535433070866141
          },
          {
            "duration": 0.2916666666666856,
            "durationTicks": 56,
            "midi": 70,
            "name": "A#4",
            "ticks": 63456,
            "time": 330.5,
            "velocity": 0.6614173228346457
          },
          {
            "duration": 0.125,
            "durationTicks": 24,
            "midi": 41,
            "name": "F2",
            "ticks": 63504,
            "time": 330.75,
            "velocity": 0.5905511811023622
          },
          {
            "duration": 0.171875,
            "durationTicks": 33,
            "midi": 70,
            "name": "A#4",
            "ticks": 63528,
            "time": 330.875,
            "velocity": 0.5196850393700787
          },
          {
            "duration": 0.125,
            "durationTicks": 24,
            "midi": 65,
            "name": "F4",
            "ticks": 63552,
            "time": 331,
            "velocity": 0.5748031496062992
          },
          {
            "duration": 0.18229166666668561,
            "durationTicks": 35,
            "midi": 68,
            "name": "G#4",
            "ticks": 63576,
            "time": 331.125,
            "velocity": 0.6692913385826772
          },
          {
            "duration": 0.125,
            "durationTicks": 24,
            "midi": 65,
            "name": "F4",
            "ticks": 63600,
            "time": 331.25,
            "velocity": 0.6299212598425197
          },
          {
            "duration": 0.125,
            "durationTicks": 24,
            "midi": 66,
            "name": "F#4",
            "ticks": 63624,
            "time": 331.375,
            "velocity": 0.5905511811023622
          },
          {
            "duration": 0.125,
            "durationTicks": 24,
            "midi": 65,
            "name": "F4",
            "ticks": 63648,
            "time": 331.5,
            "velocity": 0.5905511811023622
          },
          {
            "duration": 0.125,
            "durationTicks": 24,
            "midi": 61,
            "name": "C#4",
            "ticks": 63672,
            "time": 331.625,
            "velocity": 0.6377952755905512
          },
          {
            "duration": 0.125,
            "durationTicks": 24,
            "midi": 63,
            "name": "D#4",
            "ticks": 63696,
            "time": 331.75,
            "velocity": 0.5984251968503937
          },
          {
            "duration": 0.125,
            "durationTicks": 24,
            "midi": 65,
            "name": "F4",
            "ticks": 63720,
            "time": 331.875,
            "velocity": 0.6299212598425197
          },
          {
            "duration": 0.125,
            "durationTicks": 24,
            "midi": 40,
            "name": "E2",
            "ticks": 63744,
            "time": 332,
            "velocity": 0.5905511811023622
          },
          {
            "duration": 0.15625,
            "durationTicks": 30,
            "midi": 65,
            "name": "F4",
            "ticks": 63768,
            "time": 332.125,
            "velocity": 0.5984251968503937
          },
          {
            "duration": 0.16666666666668561,
            "durationTicks": 32,
            "midi": 66,
            "name": "F#4",
            "ticks": 63792,
            "time": 332.25,
            "velocity": 0.6141732283464567
          },
          {
            "duration": 0.21354166666668561,
            "durationTicks": 41,
            "midi": 68,
            "name": "G#4",
            "ticks": 63816,
            "time": 332.375,
            "velocity": 0.6535433070866141
          },
          {
            "duration": 0.390625,
            "durationTicks": 75,
            "midi": 70,
            "name": "A#4",
            "ticks": 63840,
            "time": 332.5,
            "velocity": 0.6614173228346457
          },
          {
            "duration": 0.125,
            "durationTicks": 24,
            "midi": 40,
            "name": "E2",
            "ticks": 63888,
            "time": 332.75,
            "velocity": 0.5905511811023622
          },
          {
            "duration": 0.13541666666668561,
            "durationTicks": 26,
            "midi": 65,
            "name": "F4",
            "ticks": 63912,
            "time": 332.875,
            "velocity": 0.5433070866141733
          },
          {
            "duration": 0.171875,
            "durationTicks": 33,
            "midi": 66,
            "name": "F#4",
            "ticks": 63936,
            "time": 333,
            "velocity": 0.5826771653543307
          },
          {
            "duration": 0.140625,
            "durationTicks": 27,
            "midi": 72,
            "name": "C5",
            "ticks": 63960,
            "time": 333.125,
            "velocity": 0.6456692913385826
          },
          {
            "duration": 0.3802083333333144,
            "durationTicks": 73,
            "midi": 70,
            "name": "A#4",
            "ticks": 63984,
            "time": 333.25,
            "velocity": 0.6850393700787402
          },
          {
            "duration": 0.265625,
            "durationTicks": 51,
            "midi": 40,
            "name": "E2",
            "ticks": 64032,
            "time": 333.5,
            "velocity": 0.5905511811023622
          },
          {
            "duration": 0.16145833333331439,
            "durationTicks": 31,
            "midi": 65,
            "name": "F4",
            "ticks": 64080,
            "time": 333.75,
            "velocity": 0.6062992125984252
          },
          {
            "duration": 0.11458333333331439,
            "durationTicks": 22,
            "midi": 41,
            "name": "F2",
            "ticks": 64128,
            "time": 334,
            "velocity": 0.6220472440944882
          },
          {
            "duration": 0.125,
            "durationTicks": 24,
            "midi": 70,
            "name": "A#4",
            "ticks": 64152,
            "time": 334.125,
            "velocity": 0.6692913385826772
          },
          {
            "duration": 0.11458333333331439,
            "durationTicks": 22,
            "midi": 41,
            "name": "F2",
            "ticks": 64176,
            "time": 334.25,
            "velocity": 0.6220472440944882
          },
          {
            "duration": 0.125,
            "durationTicks": 24,
            "midi": 68,
            "name": "G#4",
            "ticks": 64200,
            "time": 334.375,
            "velocity": 0.6141732283464567
          },
          {
            "duration": 0.11458333333331439,
            "durationTicks": 22,
            "midi": 41,
            "name": "F2",
            "ticks": 64224,
            "time": 334.5,
            "velocity": 0.6220472440944882
          },
          {
            "duration": 0.125,
            "durationTicks": 24,
            "midi": 66,
            "name": "F#4",
            "ticks": 64248,
            "time": 334.625,
            "velocity": 0.6377952755905512
          },
          {
            "duration": 0.11458333333331439,
            "durationTicks": 22,
            "midi": 41,
            "name": "F2",
            "ticks": 64272,
            "time": 334.75,
            "velocity": 0.6220472440944882
          },
          {
            "duration": 0.125,
            "durationTicks": 24,
            "midi": 65,
            "name": "F4",
            "ticks": 64296,
            "time": 334.875,
            "velocity": 0.6299212598425197
          },
          {
            "duration": 0.11458333333331439,
            "durationTicks": 22,
            "midi": 41,
            "name": "F2",
            "ticks": 64320,
            "time": 335,
            "velocity": 0.6220472440944882
          },
          {
            "duration": 0.125,
            "durationTicks": 24,
            "midi": 63,
            "name": "D#4",
            "ticks": 64344,
            "time": 335.125,
            "velocity": 0.6299212598425197
          },
          {
            "duration": 0.11458333333331439,
            "durationTicks": 22,
            "midi": 41,
            "name": "F2",
            "ticks": 64368,
            "time": 335.25,
            "velocity": 0.6220472440944882
          },
          {
            "duration": 0.125,
            "durationTicks": 24,
            "midi": 61,
            "name": "C#4",
            "ticks": 64392,
            "time": 335.375,
            "velocity": 0.6850393700787402
          },
          {
            "duration": 0.11458333333331439,
            "durationTicks": 22,
            "midi": 41,
            "name": "F2",
            "ticks": 64416,
            "time": 335.5,
            "velocity": 0.6220472440944882
          },
          {
            "duration": 0.17708333333331439,
            "durationTicks": 34,
            "midi": 63,
            "name": "D#4",
            "ticks": 64440,
            "time": 335.625,
            "velocity": 0.6220472440944882
          },
          {
            "duration": 0.11458333333331439,
            "durationTicks": 22,
            "midi": 41,
            "name": "F2",
            "ticks": 64464,
            "time": 335.75,
            "velocity": 0.6220472440944882
          },
          {
            "duration": 3.640625,
            "durationTicks": 699,
            "midi": 65,
            "name": "F4",
            "ticks": 64488,
            "time": 335.875,
            "velocity": 0.6220472440944882
          }
        ],
        "endOfTrackTicks": 65187
      }
    ]
  }