{
    "header": {
      "keySignatures": [],
      "meta": [],
      "name": "",
      "ppq": 384,
      "tempos": [
        {
          "bpm": 113.00009605008164,
          "ticks": 0
        }
      ],
      "timeSignatures": [
        {
          "ticks": 0,
          "timeSignature": [
            1,
            4
          ],
          "measures": 0
        }
      ]
    },
    "tracks": [
      {
        "channel": 0,
        "controlChanges": {},
        "pitchBends": [],
        "instrument": {
          "family": "synth lead",
          "number": 80,
          "name": "lead 1 (square)"
        },
        "name": "Smooth Synth",
        "notes": [
          {
            "duration": 0.13274325,
            "durationTicks": 96,
            "midi": 49,
            "name": "C#3",
            "ticks": 0,
            "time": 0,
            "velocity": 0.7874015748031497
          },
          {
            "duration": 0.13274324999999998,
            "durationTicks": 96,
            "midi": 51,
            "name": "D#3",
            "ticks": 384,
            "time": 0.530973,
            "velocity": 0.7874015748031497
          },
          {
            "duration": 0.92920275,
            "durationTicks": 672,
            "midi": 45,
            "name": "A2",
            "ticks": 768,
            "time": 1.061946,
            "velocity": 0.7874015748031497
          },
          {
            "duration": 0.13274324999999987,
            "durationTicks": 96,
            "midi": 47,
            "name": "B2",
            "ticks": 1536,
            "time": 2.123892,
            "velocity": 0.7874015748031497
          },
          {
            "duration": 0.1327432500000003,
            "durationTicks": 96,
            "midi": 51,
            "name": "D#3",
            "ticks": 1920,
            "time": 2.654865,
            "velocity": 0.7874015748031497
          },
          {
            "duration": 0.92920275,
            "durationTicks": 672,
            "midi": 49,
            "name": "C#3",
            "ticks": 2304,
            "time": 3.1858380000000004,
            "velocity": 0.7874015748031497
          },
          {
            "duration": 0.13274324999999987,
            "durationTicks": 96,
            "midi": 44,
            "name": "G#2",
            "ticks": 3072,
            "time": 4.247784,
            "velocity": 0.7874015748031497
          },
          {
            "duration": 0.13274324999999987,
            "durationTicks": 96,
            "midi": 47,
            "name": "B2",
            "ticks": 3456,
            "time": 4.778757000000001,
            "velocity": 0.7874015748031497
          },
          {
            "duration": 0.92920275,
            "durationTicks": 672,
            "midi": 45,
            "name": "A2",
            "ticks": 3840,
            "time": 5.30973,
            "velocity": 0.7874015748031497
          },
          {
            "duration": 0.13274324999999987,
            "durationTicks": 96,
            "midi": 42,
            "name": "F#2",
            "ticks": 4608,
            "time": 6.371676000000001,
            "velocity": 0.7874015748031497
          },
          {
            "duration": 0.13274324999999987,
            "durationTicks": 96,
            "midi": 47,
            "name": "B2",
            "ticks": 4992,
            "time": 6.902649,
            "velocity": 0.7874015748031497
          },
          {
            "duration": 0.9292027499999991,
            "durationTicks": 672,
            "midi": 49,
            "name": "C#3",
            "ticks": 5376,
            "time": 7.433622000000001,
            "velocity": 0.7874015748031497
          },
          {
            "duration": 0.13274325000000076,
            "durationTicks": 96,
            "midi": 49,
            "name": "C#3",
            "ticks": 6144,
            "time": 8.495568,
            "velocity": 0.7874015748031497
          },
          {
            "duration": 0.13274325000000076,
            "durationTicks": 96,
            "midi": 51,
            "name": "D#3",
            "ticks": 6528,
            "time": 9.026541,
            "velocity": 0.7874015748031497
          },
          {
            "duration": 0.92920275,
            "durationTicks": 672,
            "midi": 45,
            "name": "A2",
            "ticks": 6912,
            "time": 9.557514000000001,
            "velocity": 0.7874015748031497
          },
          {
            "duration": 0.13274325000000076,
            "durationTicks": 96,
            "midi": 47,
            "name": "B2",
            "ticks": 7680,
            "time": 10.61946,
            "velocity": 0.7874015748031497
          },
          {
            "duration": 0.13274324999999898,
            "durationTicks": 96,
            "midi": 51,
            "name": "D#3",
            "ticks": 8064,
            "time": 11.150433000000001,
            "velocity": 0.7874015748031497
          },
          {
            "duration": 0.92920275,
            "durationTicks": 672,
            "midi": 49,
            "name": "C#3",
            "ticks": 8448,
            "time": 11.681406,
            "velocity": 0.7874015748031497
          },
          {
            "duration": 0.13274324999999898,
            "durationTicks": 96,
            "midi": 44,
            "name": "G#2",
            "ticks": 9216,
            "time": 12.743352000000002,
            "velocity": 0.7874015748031497
          },
          {
            "duration": 0.13274324999999898,
            "durationTicks": 96,
            "midi": 47,
            "name": "B2",
            "ticks": 9600,
            "time": 13.274325000000001,
            "velocity": 0.7874015748031497
          },
          {
            "duration": 0.92920275,
            "durationTicks": 672,
            "midi": 45,
            "name": "A2",
            "ticks": 9984,
            "time": 13.805298,
            "velocity": 0.7874015748031497
          },
          {
            "duration": 0.13274324999999898,
            "durationTicks": 96,
            "midi": 42,
            "name": "F#2",
            "ticks": 10752,
            "time": 14.867244000000001,
            "velocity": 0.7874015748031497
          },
          {
            "duration": 0.13274325000000076,
            "durationTicks": 96,
            "midi": 47,
            "name": "B2",
            "ticks": 11136,
            "time": 15.398217,
            "velocity": 0.7874015748031497
          },
          {
            "duration": 0.92920275,
            "durationTicks": 672,
            "midi": 49,
            "name": "C#3",
            "ticks": 11520,
            "time": 15.92919,
            "velocity": 0.7874015748031497
          },
          {
            "duration": 0.13274325000000076,
            "durationTicks": 96,
            "midi": 49,
            "name": "C#3",
            "ticks": 13056,
            "time": 18.053082,
            "velocity": 0.7874015748031497
          },
          {
            "duration": 0.13274325000000076,
            "durationTicks": 96,
            "midi": 51,
            "name": "D#3",
            "ticks": 13440,
            "time": 18.584055,
            "velocity": 0.7874015748031497
          },
          {
            "duration": 0.1327432499999972,
            "durationTicks": 96,
            "midi": 45,
            "name": "A2",
            "ticks": 13824,
            "time": 19.115028000000002,
            "velocity": 0.7874015748031497
          },
          {
            "duration": 0.13274325000000076,
            "durationTicks": 96,
            "midi": 45,
            "name": "A2",
            "ticks": 13920,
            "time": 19.24777125,
            "velocity": 0.7874015748031497
          },
          {
            "duration": 0.13274325000000076,
            "durationTicks": 96,
            "midi": 49,
            "name": "C#3",
            "ticks": 14016,
            "time": 19.3805145,
            "velocity": 0.7874015748031497
          },
          {
            "duration": 0.13274325000000076,
            "durationTicks": 96,
            "midi": 45,
            "name": "A2",
            "ticks": 14112,
            "time": 19.51325775,
            "velocity": 0.7874015748031497
          },
          {
            "duration": 0.13274325000000076,
            "durationTicks": 96,
            "midi": 45,
            "name": "A2",
            "ticks": 14208,
            "time": 19.646001000000002,
            "velocity": 0.7874015748031497
          },
          {
            "duration": 0.1327432499999972,
            "durationTicks": 96,
            "midi": 51,
            "name": "D#3",
            "ticks": 14304,
            "time": 19.778744250000003,
            "velocity": 0.7874015748031497
          },
          {
            "duration": 0.13274325000000076,
            "durationTicks": 96,
            "midi": 45,
            "name": "A2",
            "ticks": 14400,
            "time": 19.9114875,
            "velocity": 0.7874015748031497
          },
          {
            "duration": 0.13274325000000076,
            "durationTicks": 96,
            "midi": 52,
            "name": "E3",
            "ticks": 14496,
            "time": 20.04423075,
            "velocity": 0.7874015748031497
          },
          {
            "duration": 0.13274325000000076,
            "durationTicks": 96,
            "midi": 45,
            "name": "A2",
            "ticks": 14592,
            "time": 20.176974,
            "velocity": 0.7874015748031497
          },
          {
            "duration": 0.13274325000000076,
            "durationTicks": 96,
            "midi": 45,
            "name": "A2",
            "ticks": 14688,
            "time": 20.309717250000002,
            "velocity": 0.7874015748031497
          },
          {
            "duration": 0.1327432499999972,
            "durationTicks": 96,
            "midi": 54,
            "name": "F#3",
            "ticks": 14784,
            "time": 20.442460500000003,
            "velocity": 0.7874015748031497
          },
          {
            "duration": 0.13274325000000076,
            "durationTicks": 96,
            "midi": 45,
            "name": "A2",
            "ticks": 14880,
            "time": 20.57520375,
            "velocity": 0.7874015748031497
          },
          {
            "duration": 0.13274325000000076,
            "durationTicks": 96,
            "midi": 45,
            "name": "A2",
            "ticks": 14976,
            "time": 20.707947,
            "velocity": 0.7874015748031497
          },
          {
            "duration": 0.13274325000000076,
            "durationTicks": 96,
            "midi": 52,
            "name": "E3",
            "ticks": 15072,
            "time": 20.84069025,
            "velocity": 0.7874015748031497
          },
          {
            "duration": 0.1327432499999972,
            "durationTicks": 96,
            "midi": 45,
            "name": "A2",
            "ticks": 15168,
            "time": 20.973433500000002,
            "velocity": 0.7874015748031497
          },
          {
            "duration": 0.13274325000000076,
            "durationTicks": 96,
            "midi": 45,
            "name": "A2",
            "ticks": 15264,
            "time": 21.10617675,
            "velocity": 0.7874015748031497
          },
          {
            "duration": 0.13274325000000076,
            "durationTicks": 96,
            "midi": 45,
            "name": "A2",
            "ticks": 15360,
            "time": 21.23892,
            "velocity": 0.7874015748031497
          },
          {
            "duration": 0.13274325000000076,
            "durationTicks": 96,
            "midi": 45,
            "name": "A2",
            "ticks": 15456,
            "time": 21.37166325,
            "velocity": 0.7874015748031497
          },
          {
            "duration": 0.13274325000000076,
            "durationTicks": 96,
            "midi": 51,
            "name": "D#3",
            "ticks": 15552,
            "time": 21.5044065,
            "velocity": 0.7874015748031497
          },
          {
            "duration": 0.1327432499999972,
            "durationTicks": 96,
            "midi": 45,
            "name": "A2",
            "ticks": 15648,
            "time": 21.637149750000003,
            "velocity": 0.7874015748031497
          },
          {
            "duration": 0.13274325000000076,
            "durationTicks": 96,
            "midi": 45,
            "name": "A2",
            "ticks": 15744,
            "time": 21.769893,
            "velocity": 0.7874015748031497
          },
          {
            "duration": 0.13274325000000076,
            "durationTicks": 96,
            "midi": 52,
            "name": "E3",
            "ticks": 15840,
            "time": 21.90263625,
            "velocity": 0.7874015748031497
          },
          {
            "duration": 0.13274325000000076,
            "durationTicks": 96,
            "midi": 45,
            "name": "A2",
            "ticks": 15936,
            "time": 22.0353795,
            "velocity": 0.7874015748031497
          },
          {
            "duration": 0.13274325000000076,
            "durationTicks": 96,
            "midi": 52,
            "name": "E3",
            "ticks": 16032,
            "time": 22.168122750000002,
            "velocity": 0.7874015748031497
          },
          {
            "duration": 0.1327432499999972,
            "durationTicks": 96,
            "midi": 45,
            "name": "A2",
            "ticks": 16128,
            "time": 22.300866000000003,
            "velocity": 0.7874015748031497
          },
          {
            "duration": 0.13274325000000076,
            "durationTicks": 96,
            "midi": 49,
            "name": "C#3",
            "ticks": 16224,
            "time": 22.43360925,
            "velocity": 0.7874015748031497
          },
          {
            "duration": 0.13274325000000076,
            "durationTicks": 96,
            "midi": 52,
            "name": "E3",
            "ticks": 16320,
            "time": 22.5663525,
            "velocity": 0.7874015748031497
          },
          {
            "duration": 0.13274325000000076,
            "durationTicks": 96,
            "midi": 45,
            "name": "A2",
            "ticks": 16416,
            "time": 22.69909575,
            "velocity": 0.7874015748031497
          },
          {
            "duration": 0.13274325000000076,
            "durationTicks": 96,
            "midi": 47,
            "name": "B2",
            "ticks": 16512,
            "time": 22.831839000000002,
            "velocity": 0.7874015748031497
          },
          {
            "duration": 0.1327432499999972,
            "durationTicks": 96,
            "midi": 51,
            "name": "D#3",
            "ticks": 16608,
            "time": 22.964582250000003,
            "velocity": 0.7874015748031497
          },
          {
            "duration": 0.13274325000000076,
            "durationTicks": 96,
            "midi": 54,
            "name": "F#3",
            "ticks": 16704,
            "time": 23.0973255,
            "velocity": 0.7874015748031497
          },
          {
            "duration": 0.13274325000000076,
            "durationTicks": 96,
            "midi": 47,
            "name": "B2",
            "ticks": 16800,
            "time": 23.23006875,
            "velocity": 0.7874015748031497
          },
          {
            "duration": 0.13274325000000076,
            "durationTicks": 96,
            "midi": 49,
            "name": "C#3",
            "ticks": 16896,
            "time": 23.362812,
            "velocity": 0.7874015748031497
          },
          {
            "duration": 0.1327432499999972,
            "durationTicks": 96,
            "midi": 49,
            "name": "C#3",
            "ticks": 16992,
            "time": 23.495555250000002,
            "velocity": 0.7874015748031497
          },
          {
            "duration": 0.13274325000000076,
            "durationTicks": 96,
            "midi": 56,
            "name": "G#3",
            "ticks": 17088,
            "time": 23.6282985,
            "velocity": 0.7874015748031497
          },
          {
            "duration": 0.13274325000000076,
            "durationTicks": 96,
            "midi": 49,
            "name": "C#3",
            "ticks": 17184,
            "time": 23.76104175,
            "velocity": 0.7874015748031497
          },
          {
            "duration": 0.13274325000000076,
            "durationTicks": 96,
            "midi": 49,
            "name": "C#3",
            "ticks": 17280,
            "time": 23.893785,
            "velocity": 0.7874015748031497
          },
          {
            "duration": 0.13274325000000076,
            "durationTicks": 96,
            "midi": 54,
            "name": "F#3",
            "ticks": 17376,
            "time": 24.026528250000002,
            "velocity": 0.7874015748031497
          },
          {
            "duration": 0.1327432499999972,
            "durationTicks": 96,
            "midi": 52,
            "name": "E3",
            "ticks": 17472,
            "time": 24.159271500000003,
            "velocity": 0.7874015748031497
          },
          {
            "duration": 0.13274325000000076,
            "durationTicks": 96,
            "midi": 47,
            "name": "B2",
            "ticks": 17568,
            "time": 24.29201475,
            "velocity": 0.7874015748031497
          },
          {
            "duration": 0.13274325000000076,
            "durationTicks": 96,
            "midi": 49,
            "name": "C#3",
            "ticks": 17664,
            "time": 24.424758,
            "velocity": 0.7874015748031497
          },
          {
            "duration": 0.13274325000000076,
            "durationTicks": 96,
            "midi": 49,
            "name": "C#3",
            "ticks": 17760,
            "time": 24.55750125,
            "velocity": 0.7874015748031497
          },
          {
            "duration": 0.13274325000000076,
            "durationTicks": 96,
            "midi": 56,
            "name": "G#3",
            "ticks": 17856,
            "time": 24.690244500000002,
            "velocity": 0.7874015748031497
          },
          {
            "duration": 0.1327432499999972,
            "durationTicks": 96,
            "midi": 49,
            "name": "C#3",
            "ticks": 17952,
            "time": 24.822987750000003,
            "velocity": 0.7874015748031497
          },
          {
            "duration": 0.13274325000000076,
            "durationTicks": 96,
            "midi": 49,
            "name": "C#3",
            "ticks": 18048,
            "time": 24.955731,
            "velocity": 0.7874015748031497
          },
          {
            "duration": 0.13274325000000076,
            "durationTicks": 96,
            "midi": 54,
            "name": "F#3",
            "ticks": 18144,
            "time": 25.08847425,
            "velocity": 0.7874015748031497
          },
          {
            "duration": 0.13274325000000076,
            "durationTicks": 96,
            "midi": 52,
            "name": "E3",
            "ticks": 18240,
            "time": 25.2212175,
            "velocity": 0.7874015748031497
          },
          {
            "duration": 0.13274325000000076,
            "durationTicks": 96,
            "midi": 47,
            "name": "B2",
            "ticks": 18336,
            "time": 25.353960750000002,
            "velocity": 0.7874015748031497
          },
          {
            "duration": 0.1327432499999972,
            "durationTicks": 96,
            "midi": 49,
            "name": "C#3",
            "ticks": 18432,
            "time": 25.486704000000003,
            "velocity": 0.7874015748031497
          },
          {
            "duration": 0.13274325000000076,
            "durationTicks": 96,
            "midi": 49,
            "name": "C#3",
            "ticks": 18528,
            "time": 25.61944725,
            "velocity": 0.7874015748031497
          },
          {
            "duration": 0.13274325000000076,
            "durationTicks": 96,
            "midi": 56,
            "name": "G#3",
            "ticks": 18624,
            "time": 25.7521905,
            "velocity": 0.7874015748031497
          },
          {
            "duration": 0.13274325000000076,
            "durationTicks": 96,
            "midi": 49,
            "name": "C#3",
            "ticks": 18720,
            "time": 25.884933750000002,
            "velocity": 0.7874015748031497
          },
          {
            "duration": 0.1327432499999972,
            "durationTicks": 96,
            "midi": 49,
            "name": "C#3",
            "ticks": 18816,
            "time": 26.017677000000003,
            "velocity": 0.7874015748031497
          },
          {
            "duration": 0.13274325000000076,
            "durationTicks": 96,
            "midi": 54,
            "name": "F#3",
            "ticks": 18912,
            "time": 26.15042025,
            "velocity": 0.7874015748031497
          },
          {
            "duration": 0.13274325000000076,
            "durationTicks": 96,
            "midi": 52,
            "name": "E3",
            "ticks": 19008,
            "time": 26.2831635,
            "velocity": 0.7874015748031497
          },
          {
            "duration": 0.13274325000000076,
            "durationTicks": 96,
            "midi": 47,
            "name": "B2",
            "ticks": 19104,
            "time": 26.41590675,
            "velocity": 0.7874015748031497
          },
          {
            "duration": 0.13274325000000076,
            "durationTicks": 96,
            "midi": 49,
            "name": "C#3",
            "ticks": 19200,
            "time": 26.548650000000002,
            "velocity": 0.7874015748031497
          },
          {
            "duration": 0.1327432499999972,
            "durationTicks": 96,
            "midi": 49,
            "name": "C#3",
            "ticks": 19296,
            "time": 26.681393250000003,
            "velocity": 0.7874015748031497
          },
          {
            "duration": 0.13274325000000076,
            "durationTicks": 96,
            "midi": 47,
            "name": "B2",
            "ticks": 19584,
            "time": 27.079623,
            "velocity": 0.7874015748031497
          },
          {
            "duration": 0.13274325000000076,
            "durationTicks": 96,
            "midi": 47,
            "name": "B2",
            "ticks": 19680,
            "time": 27.212366250000002,
            "velocity": 0.7874015748031497
          },
          {
            "duration": 0.13274325000000076,
            "durationTicks": 96,
            "midi": 42,
            "name": "F#2",
            "ticks": 19968,
            "time": 27.610596,
            "velocity": 0.7874015748031497
          },
          {
            "duration": 0.13274325000000076,
            "durationTicks": 96,
            "midi": 42,
            "name": "F#2",
            "ticks": 20064,
            "time": 27.743339250000002,
            "velocity": 0.7874015748031497
          },
          {
            "duration": 0.1327432499999972,
            "durationTicks": 96,
            "midi": 49,
            "name": "C#3",
            "ticks": 20160,
            "time": 27.876082500000003,
            "velocity": 0.7874015748031497
          },
          {
            "duration": 0.13274325000000076,
            "durationTicks": 96,
            "midi": 42,
            "name": "F#2",
            "ticks": 20256,
            "time": 28.00882575,
            "velocity": 0.7874015748031497
          },
          {
            "duration": 0.13274325000000076,
            "durationTicks": 96,
            "midi": 42,
            "name": "F#2",
            "ticks": 20352,
            "time": 28.141569,
            "velocity": 0.7874015748031497
          },
          {
            "duration": 0.13274325000000076,
            "durationTicks": 96,
            "midi": 42,
            "name": "F#2",
            "ticks": 20448,
            "time": 28.27431225,
            "velocity": 0.7874015748031497
          },
          {
            "duration": 0.13274325000000076,
            "durationTicks": 96,
            "midi": 54,
            "name": "F#3",
            "ticks": 20544,
            "time": 28.407055500000002,
            "velocity": 0.7874015748031497
          },
          {
            "duration": 0.1327432499999972,
            "durationTicks": 96,
            "midi": 56,
            "name": "G#3",
            "ticks": 20640,
            "time": 28.539798750000003,
            "velocity": 0.7874015748031497
          },
          {
            "duration": 0.13274325000000076,
            "durationTicks": 96,
            "midi": 42,
            "name": "F#2",
            "ticks": 20736,
            "time": 28.672542,
            "velocity": 0.7874015748031497
          },
          {
            "duration": 0.13274325000000076,
            "durationTicks": 96,
            "midi": 42,
            "name": "F#2",
            "ticks": 20832,
            "time": 28.80528525,
            "velocity": 0.7874015748031497
          },
          {
            "duration": 0.13274325000000076,
            "durationTicks": 96,
            "midi": 49,
            "name": "C#3",
            "ticks": 20928,
            "time": 28.9380285,
            "velocity": 0.7874015748031497
          },
          {
            "duration": 0.13274325000000076,
            "durationTicks": 96,
            "midi": 42,
            "name": "F#2",
            "ticks": 21024,
            "time": 29.070771750000002,
            "velocity": 0.7874015748031497
          },
          {
            "duration": 0.1327432499999972,
            "durationTicks": 96,
            "midi": 42,
            "name": "F#2",
            "ticks": 21120,
            "time": 29.203515000000003,
            "velocity": 0.7874015748031497
          },
          {
            "duration": 0.13274325000000076,
            "durationTicks": 96,
            "midi": 42,
            "name": "F#2",
            "ticks": 21216,
            "time": 29.33625825,
            "velocity": 0.7874015748031497
          },
          {
            "duration": 0.13274325000000076,
            "durationTicks": 96,
            "midi": 54,
            "name": "F#3",
            "ticks": 21312,
            "time": 29.4690015,
            "velocity": 0.7874015748031497
          },
          {
            "duration": 0.13274325000000076,
            "durationTicks": 96,
            "midi": 56,
            "name": "G#3",
            "ticks": 21408,
            "time": 29.60174475,
            "velocity": 0.7874015748031497
          },
          {
            "duration": 0.13274325000000076,
            "durationTicks": 96,
            "midi": 44,
            "name": "G#2",
            "ticks": 21504,
            "time": 29.734488000000002,
            "velocity": 0.7874015748031497
          },
          {
            "duration": 0.1327432499999972,
            "durationTicks": 96,
            "midi": 44,
            "name": "G#2",
            "ticks": 21600,
            "time": 29.867231250000003,
            "velocity": 0.7874015748031497
          },
          {
            "duration": 0.13274325000000076,
            "durationTicks": 96,
            "midi": 51,
            "name": "D#3",
            "ticks": 21696,
            "time": 29.9999745,
            "velocity": 0.7874015748031497
          },
          {
            "duration": 0.13274325000000076,
            "durationTicks": 96,
            "midi": 44,
            "name": "G#2",
            "ticks": 21792,
            "time": 30.13271775,
            "velocity": 0.7874015748031497
          },
          {
            "duration": 0.13274325000000076,
            "durationTicks": 96,
            "midi": 54,
            "name": "F#3",
            "ticks": 21888,
            "time": 30.265461000000002,
            "velocity": 0.7874015748031497
          },
          {
            "duration": 0.1327432499999972,
            "durationTicks": 96,
            "midi": 44,
            "name": "G#2",
            "ticks": 21984,
            "time": 30.398204250000003,
            "velocity": 0.7874015748031497
          },
          {
            "duration": 0.13274325000000076,
            "durationTicks": 96,
            "midi": 56,
            "name": "G#3",
            "ticks": 22080,
            "time": 30.5309475,
            "velocity": 0.7874015748031497
          },
          {
            "duration": 0.13274325000000076,
            "durationTicks": 96,
            "midi": 59,
            "name": "B3",
            "ticks": 22176,
            "time": 30.66369075,
            "velocity": 0.7874015748031497
          },
          {
            "duration": 0.13274325000000076,
            "durationTicks": 96,
            "midi": 44,
            "name": "G#2",
            "ticks": 22272,
            "time": 30.796434,
            "velocity": 0.7874015748031497
          },
          {
            "duration": 0.13274325000000076,
            "durationTicks": 96,
            "midi": 44,
            "name": "G#2",
            "ticks": 22368,
            "time": 30.929177250000002,
            "velocity": 0.7874015748031497
          },
          {
            "duration": 0.1327432499999972,
            "durationTicks": 96,
            "midi": 51,
            "name": "D#3",
            "ticks": 22464,
            "time": 31.061920500000003,
            "velocity": 0.7874015748031497
          },
          {
            "duration": 0.13274325000000076,
            "durationTicks": 96,
            "midi": 44,
            "name": "G#2",
            "ticks": 22560,
            "time": 31.19466375,
            "velocity": 0.7874015748031497
          },
          {
            "duration": 0.13274325000000076,
            "durationTicks": 96,
            "midi": 54,
            "name": "F#3",
            "ticks": 22656,
            "time": 31.327407,
            "velocity": 0.7874015748031497
          },
          {
            "duration": 0.13274325000000076,
            "durationTicks": 96,
            "midi": 44,
            "name": "G#2",
            "ticks": 22752,
            "time": 31.46015025,
            "velocity": 0.7874015748031497
          },
          {
            "duration": 0.13274325000000076,
            "durationTicks": 96,
            "midi": 56,
            "name": "G#3",
            "ticks": 22848,
            "time": 31.592893500000002,
            "velocity": 0.7874015748031497
          },
          {
            "duration": 0.1327432499999972,
            "durationTicks": 96,
            "midi": 59,
            "name": "B3",
            "ticks": 22944,
            "time": 31.725636750000003,
            "velocity": 0.7874015748031497
          },
          {
            "duration": 0.13274325000000076,
            "durationTicks": 96,
            "midi": 45,
            "name": "A2",
            "ticks": 23040,
            "time": 31.85838,
            "velocity": 0.7874015748031497
          },
          {
            "duration": 0.1327432499999972,
            "durationTicks": 96,
            "midi": 45,
            "name": "A2",
            "ticks": 23136,
            "time": 31.99112325,
            "velocity": 0.7874015748031497
          },
          {
            "duration": 0.1327432500000043,
            "durationTicks": 96,
            "midi": 52,
            "name": "E3",
            "ticks": 23232,
            "time": 32.1238665,
            "velocity": 0.7874015748031497
          },
          {
            "duration": 0.1327432499999972,
            "durationTicks": 96,
            "midi": 45,
            "name": "A2",
            "ticks": 23328,
            "time": 32.25660975,
            "velocity": 0.7874015748031497
          },
          {
            "duration": 0.1327432500000043,
            "durationTicks": 96,
            "midi": 54,
            "name": "F#3",
            "ticks": 23424,
            "time": 32.389353,
            "velocity": 0.7874015748031497
          },
          {
            "duration": 0.1327432499999972,
            "durationTicks": 96,
            "midi": 45,
            "name": "A2",
            "ticks": 23520,
            "time": 32.522096250000004,
            "velocity": 0.7874015748031497
          },
          {
            "duration": 0.1327432499999972,
            "durationTicks": 96,
            "midi": 52,
            "name": "E3",
            "ticks": 23616,
            "time": 32.6548395,
            "velocity": 0.7874015748031497
          },
          {
            "duration": 0.1327432500000043,
            "durationTicks": 96,
            "midi": 45,
            "name": "A2",
            "ticks": 23712,
            "time": 32.78758275,
            "velocity": 0.7874015748031497
          },
          {
            "duration": 0.1327432499999972,
            "durationTicks": 96,
            "midi": 56,
            "name": "G#3",
            "ticks": 23808,
            "time": 32.920326,
            "velocity": 0.7874015748031497
          },
          {
            "duration": 0.1327432500000043,
            "durationTicks": 96,
            "midi": 45,
            "name": "A2",
            "ticks": 23904,
            "time": 33.05306925,
            "velocity": 0.7874015748031497
          },
          {
            "duration": 0.1327432499999972,
            "durationTicks": 96,
            "midi": 52,
            "name": "E3",
            "ticks": 24000,
            "time": 33.185812500000004,
            "velocity": 0.7874015748031497
          },
          {
            "duration": 0.1327432499999972,
            "durationTicks": 96,
            "midi": 45,
            "name": "A2",
            "ticks": 24096,
            "time": 33.31855575,
            "velocity": 0.7874015748031497
          },
          {
            "duration": 0.1327432500000043,
            "durationTicks": 96,
            "midi": 54,
            "name": "F#3",
            "ticks": 24192,
            "time": 33.451299,
            "velocity": 0.7874015748031497
          },
          {
            "duration": 0.1327432499999972,
            "durationTicks": 96,
            "midi": 45,
            "name": "A2",
            "ticks": 24288,
            "time": 33.58404225,
            "velocity": 0.7874015748031497
          },
          {
            "duration": 0.1327432500000043,
            "durationTicks": 96,
            "midi": 52,
            "name": "E3",
            "ticks": 24384,
            "time": 33.7167855,
            "velocity": 0.7874015748031497
          },
          {
            "duration": 0.1327432499999972,
            "durationTicks": 96,
            "midi": 45,
            "name": "A2",
            "ticks": 24480,
            "time": 33.849528750000005,
            "velocity": 0.7874015748031497
          },
          {
            "duration": 0.1327432499999972,
            "durationTicks": 96,
            "midi": 47,
            "name": "B2",
            "ticks": 24576,
            "time": 33.982272,
            "velocity": 0.7874015748031497
          },
          {
            "duration": 0.1327432500000043,
            "durationTicks": 96,
            "midi": 47,
            "name": "B2",
            "ticks": 24672,
            "time": 34.11501525,
            "velocity": 0.7874015748031497
          },
          {
            "duration": 0.1327432499999972,
            "durationTicks": 96,
            "midi": 51,
            "name": "D#3",
            "ticks": 24768,
            "time": 34.2477585,
            "velocity": 0.7874015748031497
          },
          {
            "duration": 0.1327432500000043,
            "durationTicks": 96,
            "midi": 47,
            "name": "B2",
            "ticks": 24864,
            "time": 34.38050175,
            "velocity": 0.7874015748031497
          },
          {
            "duration": 0.1327432499999972,
            "durationTicks": 96,
            "midi": 54,
            "name": "F#3",
            "ticks": 24960,
            "time": 34.513245000000005,
            "velocity": 0.7874015748031497
          },
          {
            "duration": 0.1327432499999972,
            "durationTicks": 96,
            "midi": 47,
            "name": "B2",
            "ticks": 25056,
            "time": 34.64598825,
            "velocity": 0.7874015748031497
          },
          {
            "duration": 0.1327432500000043,
            "durationTicks": 96,
            "midi": 51,
            "name": "D#3",
            "ticks": 25152,
            "time": 34.7787315,
            "velocity": 0.7874015748031497
          },
          {
            "duration": 0.1327432499999972,
            "durationTicks": 96,
            "midi": 54,
            "name": "F#3",
            "ticks": 25248,
            "time": 34.911474750000004,
            "velocity": 0.7874015748031497
          },
          {
            "duration": 0.1327432500000043,
            "durationTicks": 96,
            "midi": 49,
            "name": "C#3",
            "ticks": 25344,
            "time": 35.044218,
            "velocity": 0.7874015748031497
          },
          {
            "duration": 0.1327432499999972,
            "durationTicks": 96,
            "midi": 51,
            "name": "D#3",
            "ticks": 25728,
            "time": 35.575191000000004,
            "velocity": 0.7874015748031497
          },
          {
            "duration": 0.1327432500000043,
            "durationTicks": 96,
            "midi": 45,
            "name": "A2",
            "ticks": 26112,
            "time": 36.106164,
            "velocity": 0.7874015748031497
          },
          {
            "duration": 0.1327432499999972,
            "durationTicks": 96,
            "midi": 45,
            "name": "A2",
            "ticks": 26208,
            "time": 36.238907250000004,
            "velocity": 0.7874015748031497
          },
          {
            "duration": 0.1327432499999972,
            "durationTicks": 96,
            "midi": 49,
            "name": "C#3",
            "ticks": 26304,
            "time": 36.3716505,
            "velocity": 0.7874015748031497
          },
          {
            "duration": 0.1327432500000043,
            "durationTicks": 96,
            "midi": 45,
            "name": "A2",
            "ticks": 26400,
            "time": 36.50439375,
            "velocity": 0.7874015748031497
          },
          {
            "duration": 0.1327432499999972,
            "durationTicks": 96,
            "midi": 45,
            "name": "A2",
            "ticks": 26496,
            "time": 36.637137,
            "velocity": 0.7874015748031497
          },
          {
            "duration": 0.1327432500000043,
            "durationTicks": 96,
            "midi": 51,
            "name": "D#3",
            "ticks": 26592,
            "time": 36.76988025,
            "velocity": 0.7874015748031497
          },
          {
            "duration": 0.1327432499999972,
            "durationTicks": 96,
            "midi": 45,
            "name": "A2",
            "ticks": 26688,
            "time": 36.902623500000004,
            "velocity": 0.7874015748031497
          },
          {
            "duration": 0.1327432499999972,
            "durationTicks": 96,
            "midi": 52,
            "name": "E3",
            "ticks": 26784,
            "time": 37.03536675,
            "velocity": 0.7874015748031497
          },
          {
            "duration": 0.1327432500000043,
            "durationTicks": 96,
            "midi": 45,
            "name": "A2",
            "ticks": 26880,
            "time": 37.16811,
            "velocity": 0.7874015748031497
          },
          {
            "duration": 0.1327432499999972,
            "durationTicks": 96,
            "midi": 45,
            "name": "A2",
            "ticks": 26976,
            "time": 37.30085325,
            "velocity": 0.7874015748031497
          },
          {
            "duration": 0.1327432500000043,
            "durationTicks": 96,
            "midi": 54,
            "name": "F#3",
            "ticks": 27072,
            "time": 37.4335965,
            "velocity": 0.7874015748031497
          },
          {
            "duration": 0.1327432499999972,
            "durationTicks": 96,
            "midi": 45,
            "name": "A2",
            "ticks": 27168,
            "time": 37.566339750000004,
            "velocity": 0.7874015748031497
          },
          {
            "duration": 0.1327432499999972,
            "durationTicks": 96,
            "midi": 45,
            "name": "A2",
            "ticks": 27264,
            "time": 37.699083,
            "velocity": 0.7874015748031497
          },
          {
            "duration": 0.1327432500000043,
            "durationTicks": 96,
            "midi": 52,
            "name": "E3",
            "ticks": 27360,
            "time": 37.83182625,
            "velocity": 0.7874015748031497
          },
          {
            "duration": 0.1327432499999972,
            "durationTicks": 96,
            "midi": 45,
            "name": "A2",
            "ticks": 27456,
            "time": 37.9645695,
            "velocity": 0.7874015748031497
          },
          {
            "duration": 0.1327432500000043,
            "durationTicks": 96,
            "midi": 45,
            "name": "A2",
            "ticks": 27552,
            "time": 38.09731275,
            "velocity": 0.7874015748031497
          },
          {
            "duration": 0.1327432499999972,
            "durationTicks": 96,
            "midi": 45,
            "name": "A2",
            "ticks": 27648,
            "time": 38.230056000000005,
            "velocity": 0.7874015748031497
          },
          {
            "duration": 0.1327432499999972,
            "durationTicks": 96,
            "midi": 45,
            "name": "A2",
            "ticks": 27744,
            "time": 38.36279925,
            "velocity": 0.7874015748031497
          },
          {
            "duration": 0.1327432500000043,
            "durationTicks": 96,
            "midi": 51,
            "name": "D#3",
            "ticks": 27840,
            "time": 38.4955425,
            "velocity": 0.7874015748031497
          },
          {
            "duration": 0.1327432499999972,
            "durationTicks": 96,
            "midi": 45,
            "name": "A2",
            "ticks": 27936,
            "time": 38.62828575,
            "velocity": 0.7874015748031497
          },
          {
            "duration": 0.1327432500000043,
            "durationTicks": 96,
            "midi": 45,
            "name": "A2",
            "ticks": 28032,
            "time": 38.761029,
            "velocity": 0.7874015748031497
          },
          {
            "duration": 0.1327432499999972,
            "durationTicks": 96,
            "midi": 52,
            "name": "E3",
            "ticks": 28128,
            "time": 38.893772250000005,
            "velocity": 0.7874015748031497
          },
          {
            "duration": 0.1327432499999972,
            "durationTicks": 96,
            "midi": 45,
            "name": "A2",
            "ticks": 28224,
            "time": 39.0265155,
            "velocity": 0.7874015748031497
          },
          {
            "duration": 0.1327432500000043,
            "durationTicks": 96,
            "midi": 52,
            "name": "E3",
            "ticks": 28320,
            "time": 39.15925875,
            "velocity": 0.7874015748031497
          },
          {
            "duration": 0.1327432499999972,
            "durationTicks": 96,
            "midi": 45,
            "name": "A2",
            "ticks": 28416,
            "time": 39.292002000000004,
            "velocity": 0.7874015748031497
          },
          {
            "duration": 0.1327432500000043,
            "durationTicks": 96,
            "midi": 49,
            "name": "C#3",
            "ticks": 28512,
            "time": 39.42474525,
            "velocity": 0.7874015748031497
          },
          {
            "duration": 0.1327432499999972,
            "durationTicks": 96,
            "midi": 52,
            "name": "E3",
            "ticks": 28608,
            "time": 39.557488500000005,
            "velocity": 0.7874015748031497
          },
          {
            "duration": 0.1327432499999972,
            "durationTicks": 96,
            "midi": 45,
            "name": "A2",
            "ticks": 28704,
            "time": 39.69023175,
            "velocity": 0.7874015748031497
          },
          {
            "duration": 0.1327432500000043,
            "durationTicks": 96,
            "midi": 47,
            "name": "B2",
            "ticks": 28800,
            "time": 39.822975,
            "velocity": 0.7874015748031497
          },
          {
            "duration": 0.1327432499999972,
            "durationTicks": 96,
            "midi": 51,
            "name": "D#3",
            "ticks": 28896,
            "time": 39.955718250000004,
            "velocity": 0.7874015748031497
          },
          {
            "duration": 0.1327432500000043,
            "durationTicks": 96,
            "midi": 54,
            "name": "F#3",
            "ticks": 28992,
            "time": 40.0884615,
            "velocity": 0.7874015748031497
          },
          {
            "duration": 0.1327432499999972,
            "durationTicks": 96,
            "midi": 47,
            "name": "B2",
            "ticks": 29088,
            "time": 40.221204750000005,
            "velocity": 0.7874015748031497
          },
          {
            "duration": 0.1327432499999972,
            "durationTicks": 96,
            "midi": 49,
            "name": "C#3",
            "ticks": 29184,
            "time": 40.353948,
            "velocity": 0.7874015748031497
          },
          {
            "duration": 0.1327432500000043,
            "durationTicks": 96,
            "midi": 49,
            "name": "C#3",
            "ticks": 29280,
            "time": 40.48669125,
            "velocity": 0.7874015748031497
          },
          {
            "duration": 0.1327432499999972,
            "durationTicks": 96,
            "midi": 56,
            "name": "G#3",
            "ticks": 29376,
            "time": 40.619434500000004,
            "velocity": 0.7874015748031497
          },
          {
            "duration": 0.1327432500000043,
            "durationTicks": 96,
            "midi": 49,
            "name": "C#3",
            "ticks": 29472,
            "time": 40.75217775,
            "velocity": 0.7874015748031497
          },
          {
            "duration": 0.1327432499999972,
            "durationTicks": 96,
            "midi": 49,
            "name": "C#3",
            "ticks": 29568,
            "time": 40.884921000000006,
            "velocity": 0.7874015748031497
          },
          {
            "duration": 0.1327432499999972,
            "durationTicks": 96,
            "midi": 54,
            "name": "F#3",
            "ticks": 29664,
            "time": 41.01766425,
            "velocity": 0.7874015748031497
          },
          {
            "duration": 0.1327432500000043,
            "durationTicks": 96,
            "midi": 52,
            "name": "E3",
            "ticks": 29760,
            "time": 41.1504075,
            "velocity": 0.7874015748031497
          },
          {
            "duration": 0.1327432499999972,
            "durationTicks": 96,
            "midi": 47,
            "name": "B2",
            "ticks": 29856,
            "time": 41.283150750000004,
            "velocity": 0.7874015748031497
          },
          {
            "duration": 0.1327432499999972,
            "durationTicks": 96,
            "midi": 49,
            "name": "C#3",
            "ticks": 29952,
            "time": 41.415894,
            "velocity": 0.7874015748031497
          },
          {
            "duration": 0.1327432500000043,
            "durationTicks": 96,
            "midi": 49,
            "name": "C#3",
            "ticks": 30048,
            "time": 41.54863725,
            "velocity": 0.7874015748031497
          },
          {
            "duration": 0.1327432499999972,
            "durationTicks": 96,
            "midi": 56,
            "name": "G#3",
            "ticks": 30144,
            "time": 41.6813805,
            "velocity": 0.7874015748031497
          },
          {
            "duration": 0.1327432500000043,
            "durationTicks": 96,
            "midi": 49,
            "name": "C#3",
            "ticks": 30240,
            "time": 41.81412375,
            "velocity": 0.7874015748031497
          },
          {
            "duration": 0.1327432499999972,
            "durationTicks": 96,
            "midi": 49,
            "name": "C#3",
            "ticks": 30336,
            "time": 41.946867000000005,
            "velocity": 0.7874015748031497
          },
          {
            "duration": 0.1327432499999972,
            "durationTicks": 96,
            "midi": 54,
            "name": "F#3",
            "ticks": 30432,
            "time": 42.07961025,
            "velocity": 0.7874015748031497
          },
          {
            "duration": 0.1327432500000043,
            "durationTicks": 96,
            "midi": 52,
            "name": "E3",
            "ticks": 30528,
            "time": 42.2123535,
            "velocity": 0.7874015748031497
          },
          {
            "duration": 0.1327432499999972,
            "durationTicks": 96,
            "midi": 47,
            "name": "B2",
            "ticks": 30624,
            "time": 42.34509675,
            "velocity": 0.7874015748031497
          },
          {
            "duration": 0.1327432500000043,
            "durationTicks": 96,
            "midi": 49,
            "name": "C#3",
            "ticks": 30720,
            "time": 42.47784,
            "velocity": 0.7874015748031497
          },
          {
            "duration": 0.1327432499999972,
            "durationTicks": 96,
            "midi": 49,
            "name": "C#3",
            "ticks": 30816,
            "time": 42.610583250000005,
            "velocity": 0.7874015748031497
          },
          {
            "duration": 0.1327432499999972,
            "durationTicks": 96,
            "midi": 56,
            "name": "G#3",
            "ticks": 30912,
            "time": 42.7433265,
            "velocity": 0.7874015748031497
          },
          {
            "duration": 0.1327432500000043,
            "durationTicks": 96,
            "midi": 49,
            "name": "C#3",
            "ticks": 31008,
            "time": 42.87606975,
            "velocity": 0.7874015748031497
          },
          {
            "duration": 0.1327432499999972,
            "durationTicks": 96,
            "midi": 49,
            "name": "C#3",
            "ticks": 31104,
            "time": 43.008813,
            "velocity": 0.7874015748031497
          },
          {
            "duration": 0.1327432500000043,
            "durationTicks": 96,
            "midi": 54,
            "name": "F#3",
            "ticks": 31200,
            "time": 43.14155625,
            "velocity": 0.7874015748031497
          },
          {
            "duration": 0.1327432499999972,
            "durationTicks": 96,
            "midi": 52,
            "name": "E3",
            "ticks": 31296,
            "time": 43.274299500000005,
            "velocity": 0.7874015748031497
          },
          {
            "duration": 0.1327432499999972,
            "durationTicks": 96,
            "midi": 47,
            "name": "B2",
            "ticks": 31392,
            "time": 43.40704275,
            "velocity": 0.7874015748031497
          },
          {
            "duration": 0.1327432500000043,
            "durationTicks": 96,
            "midi": 49,
            "name": "C#3",
            "ticks": 31488,
            "time": 43.539786,
            "velocity": 0.7874015748031497
          },
          {
            "duration": 0.1327432499999972,
            "durationTicks": 96,
            "midi": 49,
            "name": "C#3",
            "ticks": 31584,
            "time": 43.672529250000004,
            "velocity": 0.7874015748031497
          },
          {
            "duration": 0.1327432499999972,
            "durationTicks": 96,
            "midi": 47,
            "name": "B2",
            "ticks": 31872,
            "time": 44.070759,
            "velocity": 0.7874015748031497
          },
          {
            "duration": 0.1327432500000043,
            "durationTicks": 96,
            "midi": 47,
            "name": "B2",
            "ticks": 31968,
            "time": 44.20350225,
            "velocity": 0.7874015748031497
          },
          {
            "duration": 0.1327432499999972,
            "durationTicks": 96,
            "midi": 42,
            "name": "F#2",
            "ticks": 32256,
            "time": 44.601732000000005,
            "velocity": 0.7874015748031497
          },
          {
            "duration": 0.1327432499999972,
            "durationTicks": 96,
            "midi": 42,
            "name": "F#2",
            "ticks": 32352,
            "time": 44.73447525,
            "velocity": 0.7874015748031497
          },
          {
            "duration": 0.1327432500000043,
            "durationTicks": 96,
            "midi": 49,
            "name": "C#3",
            "ticks": 32448,
            "time": 44.8672185,
            "velocity": 0.7874015748031497
          },
          {
            "duration": 0.1327432499999972,
            "durationTicks": 96,
            "midi": 42,
            "name": "F#2",
            "ticks": 32544,
            "time": 44.999961750000004,
            "velocity": 0.7874015748031497
          },
          {
            "duration": 0.1327432500000043,
            "durationTicks": 96,
            "midi": 42,
            "name": "F#2",
            "ticks": 32640,
            "time": 45.132705,
            "velocity": 0.7874015748031497
          },
          {
            "duration": 0.1327432499999972,
            "durationTicks": 96,
            "midi": 42,
            "name": "F#2",
            "ticks": 32736,
            "time": 45.265448250000006,
            "velocity": 0.7874015748031497
          },
          {
            "duration": 0.1327432499999972,
            "durationTicks": 96,
            "midi": 54,
            "name": "F#3",
            "ticks": 32832,
            "time": 45.3981915,
            "velocity": 0.7874015748031497
          },
          {
            "duration": 0.1327432500000043,
            "durationTicks": 96,
            "midi": 56,
            "name": "G#3",
            "ticks": 32928,
            "time": 45.53093475,
            "velocity": 0.7874015748031497
          },
          {
            "duration": 0.1327432499999972,
            "durationTicks": 96,
            "midi": 42,
            "name": "F#2",
            "ticks": 33024,
            "time": 45.663678000000004,
            "velocity": 0.7874015748031497
          },
          {
            "duration": 0.1327432500000043,
            "durationTicks": 96,
            "midi": 42,
            "name": "F#2",
            "ticks": 33120,
            "time": 45.79642125,
            "velocity": 0.7874015748031497
          },
          {
            "duration": 0.1327432499999972,
            "durationTicks": 96,
            "midi": 49,
            "name": "C#3",
            "ticks": 33216,
            "time": 45.929164500000006,
            "velocity": 0.7874015748031497
          },
          {
            "duration": 0.1327432499999972,
            "durationTicks": 96,
            "midi": 42,
            "name": "F#2",
            "ticks": 33312,
            "time": 46.06190775,
            "velocity": 0.7874015748031497
          },
          {
            "duration": 0.1327432500000043,
            "durationTicks": 96,
            "midi": 42,
            "name": "F#2",
            "ticks": 33408,
            "time": 46.194651,
            "velocity": 0.7874015748031497
          },
          {
            "duration": 0.1327432499999972,
            "durationTicks": 96,
            "midi": 42,
            "name": "F#2",
            "ticks": 33504,
            "time": 46.327394250000005,
            "velocity": 0.7874015748031497
          },
          {
            "duration": 0.1327432499999972,
            "durationTicks": 96,
            "midi": 54,
            "name": "F#3",
            "ticks": 33600,
            "time": 46.4601375,
            "velocity": 0.7874015748031497
          },
          {
            "duration": 0.1327432500000043,
            "durationTicks": 96,
            "midi": 56,
            "name": "G#3",
            "ticks": 33696,
            "time": 46.59288075,
            "velocity": 0.7874015748031497
          },
          {
            "duration": 0.1327432499999972,
            "durationTicks": 96,
            "midi": 44,
            "name": "G#2",
            "ticks": 33792,
            "time": 46.725624,
            "velocity": 0.7874015748031497
          },
          {
            "duration": 0.1327432500000043,
            "durationTicks": 96,
            "midi": 44,
            "name": "G#2",
            "ticks": 33888,
            "time": 46.85836725,
            "velocity": 0.7874015748031497
          },
          {
            "duration": 0.1327432499999972,
            "durationTicks": 96,
            "midi": 51,
            "name": "D#3",
            "ticks": 33984,
            "time": 46.991110500000005,
            "velocity": 0.7874015748031497
          },
          {
            "duration": 0.1327432499999972,
            "durationTicks": 96,
            "midi": 44,
            "name": "G#2",
            "ticks": 34080,
            "time": 47.12385375,
            "velocity": 0.7874015748031497
          },
          {
            "duration": 0.1327432500000043,
            "durationTicks": 96,
            "midi": 54,
            "name": "F#3",
            "ticks": 34176,
            "time": 47.256597,
            "velocity": 0.7874015748031497
          },
          {
            "duration": 0.1327432499999972,
            "durationTicks": 96,
            "midi": 44,
            "name": "G#2",
            "ticks": 34272,
            "time": 47.389340250000004,
            "velocity": 0.7874015748031497
          },
          {
            "duration": 0.1327432500000043,
            "durationTicks": 96,
            "midi": 56,
            "name": "G#3",
            "ticks": 34368,
            "time": 47.5220835,
            "velocity": 0.7874015748031497
          },
          {
            "duration": 0.1327432499999972,
            "durationTicks": 96,
            "midi": 59,
            "name": "B3",
            "ticks": 34464,
            "time": 47.654826750000005,
            "velocity": 0.7874015748031497
          },
          {
            "duration": 0.1327432499999972,
            "durationTicks": 96,
            "midi": 44,
            "name": "G#2",
            "ticks": 34560,
            "time": 47.78757,
            "velocity": 0.7874015748031497
          },
          {
            "duration": 0.1327432500000043,
            "durationTicks": 96,
            "midi": 44,
            "name": "G#2",
            "ticks": 34656,
            "time": 47.92031325,
            "velocity": 0.7874015748031497
          },
          {
            "duration": 0.1327432499999972,
            "durationTicks": 96,
            "midi": 51,
            "name": "D#3",
            "ticks": 34752,
            "time": 48.053056500000004,
            "velocity": 0.7874015748031497
          },
          {
            "duration": 0.1327432500000043,
            "durationTicks": 96,
            "midi": 44,
            "name": "G#2",
            "ticks": 34848,
            "time": 48.18579975,
            "velocity": 0.7874015748031497
          },
          {
            "duration": 0.1327432499999972,
            "durationTicks": 96,
            "midi": 54,
            "name": "F#3",
            "ticks": 34944,
            "time": 48.318543000000005,
            "velocity": 0.7874015748031497
          },
          {
            "duration": 0.1327432499999972,
            "durationTicks": 96,
            "midi": 44,
            "name": "G#2",
            "ticks": 35040,
            "time": 48.45128625,
            "velocity": 0.7874015748031497
          },
          {
            "duration": 0.1327432500000043,
            "durationTicks": 96,
            "midi": 56,
            "name": "G#3",
            "ticks": 35136,
            "time": 48.5840295,
            "velocity": 0.7874015748031497
          },
          {
            "duration": 0.1327432499999972,
            "durationTicks": 96,
            "midi": 59,
            "name": "B3",
            "ticks": 35232,
            "time": 48.716772750000004,
            "velocity": 0.7874015748031497
          },
          {
            "duration": 0.1327432500000043,
            "durationTicks": 96,
            "midi": 45,
            "name": "A2",
            "ticks": 35328,
            "time": 48.849516,
            "velocity": 0.7874015748031497
          },
          {
            "duration": 0.1327432499999972,
            "durationTicks": 96,
            "midi": 45,
            "name": "A2",
            "ticks": 35424,
            "time": 48.982259250000006,
            "velocity": 0.7874015748031497
          },
          {
            "duration": 0.1327432499999972,
            "durationTicks": 96,
            "midi": 52,
            "name": "E3",
            "ticks": 35520,
            "time": 49.1150025,
            "velocity": 0.7874015748031497
          },
          {
            "duration": 0.1327432500000043,
            "durationTicks": 96,
            "midi": 45,
            "name": "A2",
            "ticks": 35616,
            "time": 49.24774575,
            "velocity": 0.7874015748031497
          },
          {
            "duration": 0.1327432499999972,
            "durationTicks": 96,
            "midi": 54,
            "name": "F#3",
            "ticks": 35712,
            "time": 49.380489000000004,
            "velocity": 0.7874015748031497
          },
          {
            "duration": 0.1327432500000043,
            "durationTicks": 96,
            "midi": 45,
            "name": "A2",
            "ticks": 35808,
            "time": 49.51323225,
            "velocity": 0.7874015748031497
          },
          {
            "duration": 0.1327432499999972,
            "durationTicks": 96,
            "midi": 52,
            "name": "E3",
            "ticks": 35904,
            "time": 49.645975500000006,
            "velocity": 0.7874015748031497
          },
          {
            "duration": 0.1327432499999972,
            "durationTicks": 96,
            "midi": 45,
            "name": "A2",
            "ticks": 36000,
            "time": 49.77871875,
            "velocity": 0.7874015748031497
          },
          {
            "duration": 0.1327432500000043,
            "durationTicks": 96,
            "midi": 56,
            "name": "G#3",
            "ticks": 36096,
            "time": 49.911462,
            "velocity": 0.7874015748031497
          },
          {
            "duration": 0.1327432499999972,
            "durationTicks": 96,
            "midi": 45,
            "name": "A2",
            "ticks": 36192,
            "time": 50.044205250000005,
            "velocity": 0.7874015748031497
          },
          {
            "duration": 0.1327432500000043,
            "durationTicks": 96,
            "midi": 52,
            "name": "E3",
            "ticks": 36288,
            "time": 50.1769485,
            "velocity": 0.7874015748031497
          },
          {
            "duration": 0.1327432499999972,
            "durationTicks": 96,
            "midi": 45,
            "name": "A2",
            "ticks": 36384,
            "time": 50.309691750000006,
            "velocity": 0.7874015748031497
          },
          {
            "duration": 0.1327432499999972,
            "durationTicks": 96,
            "midi": 54,
            "name": "F#3",
            "ticks": 36480,
            "time": 50.442435,
            "velocity": 0.7874015748031497
          },
          {
            "duration": 0.1327432500000043,
            "durationTicks": 96,
            "midi": 45,
            "name": "A2",
            "ticks": 36576,
            "time": 50.57517825,
            "velocity": 0.7874015748031497
          },
          {
            "duration": 0.1327432499999972,
            "durationTicks": 96,
            "midi": 52,
            "name": "E3",
            "ticks": 36672,
            "time": 50.707921500000005,
            "velocity": 0.7874015748031497
          },
          {
            "duration": 0.1327432500000043,
            "durationTicks": 96,
            "midi": 45,
            "name": "A2",
            "ticks": 36768,
            "time": 50.84066475,
            "velocity": 0.7874015748031497
          },
          {
            "duration": 0.5309729999999959,
            "durationTicks": 384,
            "midi": 44,
            "name": "G#2",
            "ticks": 36864,
            "time": 50.973408000000006,
            "velocity": 0.7874015748031497
          },
          {
            "duration": 0.1327432499999972,
            "durationTicks": 96,
            "midi": 49,
            "name": "C#3",
            "ticks": 37632,
            "time": 52.035354000000005,
            "velocity": 0.7874015748031497
          },
          {
            "duration": 0.1327432500000043,
            "durationTicks": 96,
            "midi": 47,
            "name": "B2",
            "ticks": 38016,
            "time": 52.566327,
            "velocity": 0.7874015748031497
          },
          {
            "duration": 0.1327432499999972,
            "durationTicks": 96,
            "midi": 45,
            "name": "A2",
            "ticks": 38400,
            "time": 53.097300000000004,
            "velocity": 0.7874015748031497
          },
          {
            "duration": 0.1327432499999972,
            "durationTicks": 96,
            "midi": 45,
            "name": "A2",
            "ticks": 38688,
            "time": 53.49552975,
            "velocity": 0.7874015748031497
          },
          {
            "duration": 0.1327432499999972,
            "durationTicks": 96,
            "midi": 45,
            "name": "A2",
            "ticks": 39072,
            "time": 54.026502750000006,
            "velocity": 0.7874015748031497
          },
          {
            "duration": 0.1327432499999972,
            "durationTicks": 96,
            "midi": 45,
            "name": "A2",
            "ticks": 39360,
            "time": 54.424732500000005,
            "velocity": 0.7874015748031497
          },
          {
            "duration": 0.1327432499999972,
            "durationTicks": 96,
            "midi": 45,
            "name": "A2",
            "ticks": 39552,
            "time": 54.690219000000006,
            "velocity": 0.7874015748031497
          },
          {
            "duration": 0.2654865000000015,
            "durationTicks": 192,
            "midi": 47,
            "name": "B2",
            "ticks": 39744,
            "time": 54.9557055,
            "velocity": 0.7874015748031497
          },
          {
            "duration": 0.1327432500000043,
            "durationTicks": 96,
            "midi": 45,
            "name": "A2",
            "ticks": 39936,
            "time": 55.221192,
            "velocity": 0.7874015748031497
          },
          {
            "duration": 0.1327432500000043,
            "durationTicks": 96,
            "midi": 45,
            "name": "A2",
            "ticks": 40224,
            "time": 55.61942175,
            "velocity": 0.7874015748031497
          },
          {
            "duration": 0.1327432499999972,
            "durationTicks": 96,
            "midi": 45,
            "name": "A2",
            "ticks": 40608,
            "time": 56.150394750000004,
            "velocity": 0.7874015748031497
          },
          {
            "duration": 0.1327432499999972,
            "durationTicks": 96,
            "midi": 45,
            "name": "A2",
            "ticks": 40896,
            "time": 56.5486245,
            "velocity": 0.7874015748031497
          },
          {
            "duration": 0.1327432499999972,
            "durationTicks": 96,
            "midi": 45,
            "name": "A2",
            "ticks": 41088,
            "time": 56.814111000000004,
            "velocity": 0.7874015748031497
          },
          {
            "duration": 0.2654864999999944,
            "durationTicks": 192,
            "midi": 47,
            "name": "B2",
            "ticks": 41280,
            "time": 57.079597500000006,
            "velocity": 0.7874015748031497
          },
          {
            "duration": 0.1327432500000043,
            "durationTicks": 96,
            "midi": 49,
            "name": "C#3",
            "ticks": 41472,
            "time": 57.345084,
            "velocity": 0.7874015748031497
          },
          {
            "duration": 0.1327432499999972,
            "durationTicks": 96,
            "midi": 49,
            "name": "C#3",
            "ticks": 41760,
            "time": 57.743313750000006,
            "velocity": 0.7874015748031497
          },
          {
            "duration": 0.1327432500000043,
            "durationTicks": 96,
            "midi": 49,
            "name": "C#3",
            "ticks": 42144,
            "time": 58.27428675,
            "velocity": 0.7874015748031497
          },
          {
            "duration": 0.1327432500000043,
            "durationTicks": 96,
            "midi": 49,
            "name": "C#3",
            "ticks": 42432,
            "time": 58.6725165,
            "velocity": 0.7874015748031497
          },
          {
            "duration": 0.1327432500000043,
            "durationTicks": 96,
            "midi": 49,
            "name": "C#3",
            "ticks": 42624,
            "time": 58.938003,
            "velocity": 0.7874015748031497
          },
          {
            "duration": 0.2654865000000015,
            "durationTicks": 192,
            "midi": 47,
            "name": "B2",
            "ticks": 42816,
            "time": 59.2034895,
            "velocity": 0.7874015748031497
          },
          {
            "duration": 0.1327432499999972,
            "durationTicks": 96,
            "midi": 44,
            "name": "G#2",
            "ticks": 43008,
            "time": 59.468976000000005,
            "velocity": 0.7874015748031497
          },
          {
            "duration": 0.1327432499999972,
            "durationTicks": 96,
            "midi": 44,
            "name": "G#2",
            "ticks": 43296,
            "time": 59.867205750000004,
            "velocity": 0.7874015748031497
          },
          {
            "duration": 0.1327432500000043,
            "durationTicks": 96,
            "midi": 44,
            "name": "G#2",
            "ticks": 43584,
            "time": 60.2654355,
            "velocity": 0.7874015748031497
          },
          {
            "duration": 0.1327432499999972,
            "durationTicks": 96,
            "midi": 47,
            "name": "B2",
            "ticks": 43776,
            "time": 60.530922000000004,
            "velocity": 0.7874015748031497
          },
          {
            "duration": 0.1327432499999972,
            "durationTicks": 96,
            "midi": 51,
            "name": "D#3",
            "ticks": 44064,
            "time": 60.92915175,
            "velocity": 0.7874015748031497
          },
          {
            "duration": 0.2654865000000015,
            "durationTicks": 192,
            "midi": 54,
            "name": "F#3",
            "ticks": 44352,
            "time": 61.3273815,
            "velocity": 0.7874015748031497
          },
          {
            "duration": 0.1327432499999972,
            "durationTicks": 96,
            "midi": 45,
            "name": "A2",
            "ticks": 44544,
            "time": 61.592868,
            "velocity": 0.7874015748031497
          },
          {
            "duration": 0.1327432500000043,
            "durationTicks": 96,
            "midi": 45,
            "name": "A2",
            "ticks": 44832,
            "time": 61.99109775,
            "velocity": 0.7874015748031497
          },
          {
            "duration": 0.1327432499999972,
            "durationTicks": 96,
            "midi": 45,
            "name": "A2",
            "ticks": 45216,
            "time": 62.522070750000005,
            "velocity": 0.7874015748031497
          },
          {
            "duration": 0.1327432499999972,
            "durationTicks": 96,
            "midi": 45,
            "name": "A2",
            "ticks": 45504,
            "time": 62.9203005,
            "velocity": 0.7874015748031497
          },
          {
            "duration": 0.1327432499999972,
            "durationTicks": 96,
            "midi": 45,
            "name": "A2",
            "ticks": 45696,
            "time": 63.185787000000005,
            "velocity": 0.7874015748031497
          },
          {
            "duration": 0.2654864999999944,
            "durationTicks": 192,
            "midi": 47,
            "name": "B2",
            "ticks": 45888,
            "time": 63.451273500000006,
            "velocity": 0.7874015748031497
          },
          {
            "duration": 0.1327432500000043,
            "durationTicks": 96,
            "midi": 45,
            "name": "A2",
            "ticks": 46080,
            "time": 63.71676,
            "velocity": 0.7874015748031497
          },
          {
            "duration": 0.1327432499999901,
            "durationTicks": 96,
            "midi": 45,
            "name": "A2",
            "ticks": 46368,
            "time": 64.11498975,
            "velocity": 0.7874015748031497
          },
          {
            "duration": 0.1327432499999901,
            "durationTicks": 96,
            "midi": 45,
            "name": "A2",
            "ticks": 46752,
            "time": 64.64596275000001,
            "velocity": 0.7874015748031497
          },
          {
            "duration": 0.1327432499999901,
            "durationTicks": 96,
            "midi": 45,
            "name": "A2",
            "ticks": 47040,
            "time": 65.04419250000001,
            "velocity": 0.7874015748031497
          },
          {
            "duration": 0.1327432500000043,
            "durationTicks": 96,
            "midi": 45,
            "name": "A2",
            "ticks": 47232,
            "time": 65.309679,
            "velocity": 0.7874015748031497
          },
          {
            "duration": 0.2654865000000086,
            "durationTicks": 192,
            "midi": 47,
            "name": "B2",
            "ticks": 47424,
            "time": 65.5751655,
            "velocity": 0.7874015748031497
          },
          {
            "duration": 0.1327432500000043,
            "durationTicks": 96,
            "midi": 49,
            "name": "C#3",
            "ticks": 47616,
            "time": 65.840652,
            "velocity": 0.7874015748031497
          },
          {
            "duration": 0.1327432500000043,
            "durationTicks": 96,
            "midi": 49,
            "name": "C#3",
            "ticks": 47904,
            "time": 66.23888175,
            "velocity": 0.7874015748031497
          },
          {
            "duration": 0.1327432499999901,
            "durationTicks": 96,
            "midi": 49,
            "name": "C#3",
            "ticks": 48288,
            "time": 66.76985475000001,
            "velocity": 0.7874015748031497
          },
          {
            "duration": 0.1327432500000043,
            "durationTicks": 96,
            "midi": 49,
            "name": "C#3",
            "ticks": 48576,
            "time": 67.1680845,
            "velocity": 0.7874015748031497
          },
          {
            "duration": 0.1327432500000043,
            "durationTicks": 96,
            "midi": 49,
            "name": "C#3",
            "ticks": 48768,
            "time": 67.433571,
            "velocity": 0.7874015748031497
          },
          {
            "duration": 0.2654864999999944,
            "durationTicks": 192,
            "midi": 47,
            "name": "B2",
            "ticks": 48960,
            "time": 67.69905750000001,
            "velocity": 0.7874015748031497
          },
          {
            "duration": 0.1327432500000043,
            "durationTicks": 96,
            "midi": 44,
            "name": "G#2",
            "ticks": 49152,
            "time": 67.964544,
            "velocity": 0.7874015748031497
          },
          {
            "duration": 0.1327432500000043,
            "durationTicks": 96,
            "midi": 44,
            "name": "G#2",
            "ticks": 49440,
            "time": 68.36277375,
            "velocity": 0.7874015748031497
          },
          {
            "duration": 0.1327432500000043,
            "durationTicks": 96,
            "midi": 44,
            "name": "G#2",
            "ticks": 49728,
            "time": 68.7610035,
            "velocity": 0.7874015748031497
          },
          {
            "duration": 0.1327432499999901,
            "durationTicks": 96,
            "midi": 47,
            "name": "B2",
            "ticks": 49920,
            "time": 69.02649000000001,
            "velocity": 0.7874015748031497
          },
          {
            "duration": 0.1327432499999901,
            "durationTicks": 96,
            "midi": 51,
            "name": "D#3",
            "ticks": 50208,
            "time": 69.42471975000001,
            "velocity": 0.7874015748031497
          },
          {
            "duration": 0.2654864999999944,
            "durationTicks": 192,
            "midi": 54,
            "name": "F#3",
            "ticks": 50496,
            "time": 69.82294950000001,
            "velocity": 0.7874015748031497
          },
          {
            "duration": 0.1327432500000043,
            "durationTicks": 96,
            "midi": 45,
            "name": "A2",
            "ticks": 50688,
            "time": 70.088436,
            "velocity": 0.7874015748031497
          },
          {
            "duration": 0.1327432500000043,
            "durationTicks": 96,
            "midi": 45,
            "name": "A2",
            "ticks": 50784,
            "time": 70.22117925,
            "velocity": 0.7874015748031497
          },
          {
            "duration": 0,
            "durationTicks": 0,
            "midi": 52,
            "name": "E3",
            "ticks": 50880,
            "time": 70.35392250000001,
            "velocity": 0.7874015748031497
          },
          {
            "duration": 0.1327432500000043,
            "durationTicks": 96,
            "midi": 45,
            "name": "A2",
            "ticks": 50976,
            "time": 70.48666575,
            "velocity": 0.7874015748031497
          },
          {
            "duration": 0.1327432500000043,
            "durationTicks": 96,
            "midi": 45,
            "name": "A2",
            "ticks": 51072,
            "time": 70.619409,
            "velocity": 0.7874015748031497
          },
          {
            "duration": 0.1327432499999901,
            "durationTicks": 96,
            "midi": 45,
            "name": "A2",
            "ticks": 51168,
            "time": 70.75215225000001,
            "velocity": 0.7874015748031497
          },
          {
            "duration": 0,
            "durationTicks": 0,
            "midi": 52,
            "name": "E3",
            "ticks": 51264,
            "time": 70.8848955,
            "velocity": 0.7874015748031497
          },
          {
            "duration": 0.1327432500000043,
            "durationTicks": 96,
            "midi": 45,
            "name": "A2",
            "ticks": 51360,
            "time": 71.01763875,
            "velocity": 0.7874015748031497
          },
          {
            "duration": 0.1327432499999901,
            "durationTicks": 96,
            "midi": 45,
            "name": "A2",
            "ticks": 51456,
            "time": 71.15038200000001,
            "velocity": 0.7874015748031497
          },
          {
            "duration": 0.1327432500000043,
            "durationTicks": 96,
            "midi": 45,
            "name": "A2",
            "ticks": 51552,
            "time": 71.28312525,
            "velocity": 0.7874015748031497
          },
          {
            "duration": 0,
            "durationTicks": 0,
            "midi": 52,
            "name": "E3",
            "ticks": 51648,
            "time": 71.4158685,
            "velocity": 0.7874015748031497
          },
          {
            "duration": 0.1327432500000043,
            "durationTicks": 96,
            "midi": 45,
            "name": "A2",
            "ticks": 51744,
            "time": 71.54861175,
            "velocity": 0.7874015748031497
          },
          {
            "duration": 0.1327432499999901,
            "durationTicks": 96,
            "midi": 45,
            "name": "A2",
            "ticks": 51840,
            "time": 71.68135500000001,
            "velocity": 0.7874015748031497
          },
          {
            "duration": 0.1327432500000043,
            "durationTicks": 96,
            "midi": 47,
            "name": "B2",
            "ticks": 52032,
            "time": 71.9468415,
            "velocity": 0.7874015748031497
          },
          {
            "duration": 0.1327432500000043,
            "durationTicks": 96,
            "midi": 45,
            "name": "A2",
            "ticks": 52224,
            "time": 72.212328,
            "velocity": 0.7874015748031497
          },
          {
            "duration": 0.1327432500000043,
            "durationTicks": 96,
            "midi": 45,
            "name": "A2",
            "ticks": 52320,
            "time": 72.34507125,
            "velocity": 0.7874015748031497
          },
          {
            "duration": 0,
            "durationTicks": 0,
            "midi": 52,
            "name": "E3",
            "ticks": 52416,
            "time": 72.47781450000001,
            "velocity": 0.7874015748031497
          },
          {
            "duration": 0.1327432500000043,
            "durationTicks": 96,
            "midi": 45,
            "name": "A2",
            "ticks": 52512,
            "time": 72.61055775,
            "velocity": 0.7874015748031497
          },
          {
            "duration": 0.1327432500000043,
            "durationTicks": 96,
            "midi": 45,
            "name": "A2",
            "ticks": 52608,
            "time": 72.743301,
            "velocity": 0.7874015748031497
          },
          {
            "duration": 0.1327432499999901,
            "durationTicks": 96,
            "midi": 45,
            "name": "A2",
            "ticks": 52704,
            "time": 72.87604425,
            "velocity": 0.7874015748031497
          },
          {
            "duration": 0,
            "durationTicks": 0,
            "midi": 52,
            "name": "E3",
            "ticks": 52800,
            "time": 73.0087875,
            "velocity": 0.7874015748031497
          },
          {
            "duration": 0.1327432500000043,
            "durationTicks": 96,
            "midi": 45,
            "name": "A2",
            "ticks": 52896,
            "time": 73.14153075,
            "velocity": 0.7874015748031497
          },
          {
            "duration": 0.1327432500000043,
            "durationTicks": 96,
            "midi": 45,
            "name": "A2",
            "ticks": 52992,
            "time": 73.274274,
            "velocity": 0.7874015748031497
          },
          {
            "duration": 0.1327432499999901,
            "durationTicks": 96,
            "midi": 45,
            "name": "A2",
            "ticks": 53088,
            "time": 73.40701725000001,
            "velocity": 0.7874015748031497
          },
          {
            "duration": 0,
            "durationTicks": 0,
            "midi": 52,
            "name": "E3",
            "ticks": 53184,
            "time": 73.5397605,
            "velocity": 0.7874015748031497
          },
          {
            "duration": 0.1327432500000043,
            "durationTicks": 96,
            "midi": 45,
            "name": "A2",
            "ticks": 53280,
            "time": 73.67250375,
            "velocity": 0.7874015748031497
          },
          {
            "duration": 0.1327432499999901,
            "durationTicks": 96,
            "midi": 45,
            "name": "A2",
            "ticks": 53376,
            "time": 73.80524700000001,
            "velocity": 0.7874015748031497
          },
          {
            "duration": 0.1327432500000043,
            "durationTicks": 96,
            "midi": 47,
            "name": "B2",
            "ticks": 53568,
            "time": 74.0707335,
            "velocity": 0.7874015748031497
          },
          {
            "duration": 0.1327432500000043,
            "durationTicks": 96,
            "midi": 49,
            "name": "C#3",
            "ticks": 53760,
            "time": 74.33622,
            "velocity": 0.7874015748031497
          },
          {
            "duration": 0.1327432500000043,
            "durationTicks": 96,
            "midi": 49,
            "name": "C#3",
            "ticks": 53856,
            "time": 74.46896325,
            "velocity": 0.7874015748031497
          },
          {
            "duration": 0,
            "durationTicks": 0,
            "midi": 56,
            "name": "G#3",
            "ticks": 53952,
            "time": 74.6017065,
            "velocity": 0.7874015748031497
          },
          {
            "duration": 0.1327432499999901,
            "durationTicks": 96,
            "midi": 49,
            "name": "C#3",
            "ticks": 54048,
            "time": 74.73444975000001,
            "velocity": 0.7874015748031497
          },
          {
            "duration": 0.1327432500000043,
            "durationTicks": 96,
            "midi": 49,
            "name": "C#3",
            "ticks": 54144,
            "time": 74.867193,
            "velocity": 0.7874015748031497
          },
          {
            "duration": 0.1327432500000043,
            "durationTicks": 96,
            "midi": 49,
            "name": "C#3",
            "ticks": 54240,
            "time": 74.99993625,
            "velocity": 0.7874015748031497
          },
          {
            "duration": 0,
            "durationTicks": 0,
            "midi": 56,
            "name": "G#3",
            "ticks": 54336,
            "time": 75.13267950000001,
            "velocity": 0.7874015748031497
          },
          {
            "duration": 0.1327432500000043,
            "durationTicks": 96,
            "midi": 49,
            "name": "C#3",
            "ticks": 54432,
            "time": 75.26542275,
            "velocity": 0.7874015748031497
          },
          {
            "duration": 0.1327432500000043,
            "durationTicks": 96,
            "midi": 49,
            "name": "C#3",
            "ticks": 54528,
            "time": 75.398166,
            "velocity": 0.7874015748031497
          },
          {
            "duration": 0.1327432499999901,
            "durationTicks": 96,
            "midi": 49,
            "name": "C#3",
            "ticks": 54624,
            "time": 75.53090925000001,
            "velocity": 0.7874015748031497
          },
          {
            "duration": 0,
            "durationTicks": 0,
            "midi": 56,
            "name": "G#3",
            "ticks": 54720,
            "time": 75.6636525,
            "velocity": 0.7874015748031497
          },
          {
            "duration": 0.1327432500000043,
            "durationTicks": 96,
            "midi": 49,
            "name": "C#3",
            "ticks": 54816,
            "time": 75.79639575,
            "velocity": 0.7874015748031497
          },
          {
            "duration": 0.1327432500000043,
            "durationTicks": 96,
            "midi": 49,
            "name": "C#3",
            "ticks": 54912,
            "time": 75.929139,
            "velocity": 0.7874015748031497
          },
          {
            "duration": 0.1327432500000043,
            "durationTicks": 96,
            "midi": 47,
            "name": "B2",
            "ticks": 55104,
            "time": 76.1946255,
            "velocity": 0.7874015748031497
          },
          {
            "duration": 0.1327432499999901,
            "durationTicks": 96,
            "midi": 44,
            "name": "G#2",
            "ticks": 55296,
            "time": 76.46011200000001,
            "velocity": 0.7874015748031497
          },
          {
            "duration": 0.1327432499999901,
            "durationTicks": 96,
            "midi": 44,
            "name": "G#2",
            "ticks": 55584,
            "time": 76.85834175000001,
            "velocity": 0.7874015748031497
          },
          {
            "duration": 0.1327432500000043,
            "durationTicks": 96,
            "midi": 44,
            "name": "G#2",
            "ticks": 55872,
            "time": 77.2565715,
            "velocity": 0.7874015748031497
          },
          {
            "duration": 0.1327432500000043,
            "durationTicks": 96,
            "midi": 47,
            "name": "B2",
            "ticks": 56064,
            "time": 77.522058,
            "velocity": 0.7874015748031497
          },
          {
            "duration": 0.1327432500000043,
            "durationTicks": 96,
            "midi": 51,
            "name": "D#3",
            "ticks": 56352,
            "time": 77.92028775,
            "velocity": 0.7874015748031497
          },
          {
            "duration": 0.2654865000000086,
            "durationTicks": 192,
            "midi": 54,
            "name": "F#3",
            "ticks": 56640,
            "time": 78.3185175,
            "velocity": 0.7874015748031497
          },
          {
            "duration": 0.1327432499999901,
            "durationTicks": 96,
            "midi": 45,
            "name": "A2",
            "ticks": 56832,
            "time": 78.58400400000001,
            "velocity": 0.7874015748031497
          },
          {
            "duration": 0.1327432500000043,
            "durationTicks": 96,
            "midi": 45,
            "name": "A2",
            "ticks": 56928,
            "time": 78.71674725,
            "velocity": 0.7874015748031497
          },
          {
            "duration": 0,
            "durationTicks": 0,
            "midi": 52,
            "name": "E3",
            "ticks": 57024,
            "time": 78.8494905,
            "velocity": 0.7874015748031497
          },
          {
            "duration": 0.1327432500000043,
            "durationTicks": 96,
            "midi": 45,
            "name": "A2",
            "ticks": 57120,
            "time": 78.98223375,
            "velocity": 0.7874015748031497
          },
          {
            "duration": 0.1327432499999901,
            "durationTicks": 96,
            "midi": 45,
            "name": "A2",
            "ticks": 57216,
            "time": 79.11497700000001,
            "velocity": 0.7874015748031497
          },
          {
            "duration": 0.1327432500000043,
            "durationTicks": 96,
            "midi": 45,
            "name": "A2",
            "ticks": 57312,
            "time": 79.24772025,
            "velocity": 0.7874015748031497
          },
          {
            "duration": 0,
            "durationTicks": 0,
            "midi": 52,
            "name": "E3",
            "ticks": 57408,
            "time": 79.3804635,
            "velocity": 0.7874015748031497
          },
          {
            "duration": 0.1327432499999901,
            "durationTicks": 96,
            "midi": 45,
            "name": "A2",
            "ticks": 57504,
            "time": 79.51320675000001,
            "velocity": 0.7874015748031497
          },
          {
            "duration": 0.1327432500000043,
            "durationTicks": 96,
            "midi": 45,
            "name": "A2",
            "ticks": 57600,
            "time": 79.64595,
            "velocity": 0.7874015748031497
          },
          {
            "duration": 0.1327432500000043,
            "durationTicks": 96,
            "midi": 45,
            "name": "A2",
            "ticks": 57696,
            "time": 79.77869325,
            "velocity": 0.7874015748031497
          },
          {
            "duration": 0,
            "durationTicks": 0,
            "midi": 52,
            "name": "E3",
            "ticks": 57792,
            "time": 79.91143650000001,
            "velocity": 0.7874015748031497
          },
          {
            "duration": 0.1327432500000043,
            "durationTicks": 96,
            "midi": 45,
            "name": "A2",
            "ticks": 57888,
            "time": 80.04417975,
            "velocity": 0.7874015748031497
          },
          {
            "duration": 0.1327432500000043,
            "durationTicks": 96,
            "midi": 45,
            "name": "A2",
            "ticks": 57984,
            "time": 80.176923,
            "velocity": 0.7874015748031497
          },
          {
            "duration": 0.1327432499999901,
            "durationTicks": 96,
            "midi": 47,
            "name": "B2",
            "ticks": 58176,
            "time": 80.44240950000001,
            "velocity": 0.7874015748031497
          },
          {
            "duration": 0.1327432500000043,
            "durationTicks": 96,
            "midi": 45,
            "name": "A2",
            "ticks": 58368,
            "time": 80.707896,
            "velocity": 0.7874015748031497
          },
          {
            "duration": 0.1327432499999901,
            "durationTicks": 96,
            "midi": 45,
            "name": "A2",
            "ticks": 58464,
            "time": 80.84063925000001,
            "velocity": 0.7874015748031497
          },
          {
            "duration": 0,
            "durationTicks": 0,
            "midi": 52,
            "name": "E3",
            "ticks": 58560,
            "time": 80.9733825,
            "velocity": 0.7874015748031497
          },
          {
            "duration": 0.1327432500000043,
            "durationTicks": 96,
            "midi": 45,
            "name": "A2",
            "ticks": 58656,
            "time": 81.10612575,
            "velocity": 0.7874015748031497
          },
          {
            "duration": 0.1327432499999901,
            "durationTicks": 96,
            "midi": 45,
            "name": "A2",
            "ticks": 58752,
            "time": 81.23886900000001,
            "velocity": 0.7874015748031497
          },
          {
            "duration": 0.1327432500000043,
            "durationTicks": 96,
            "midi": 45,
            "name": "A2",
            "ticks": 58848,
            "time": 81.37161225,
            "velocity": 0.7874015748031497
          },
          {
            "duration": 0,
            "durationTicks": 0,
            "midi": 52,
            "name": "E3",
            "ticks": 58944,
            "time": 81.5043555,
            "velocity": 0.7874015748031497
          },
          {
            "duration": 0.1327432500000043,
            "durationTicks": 96,
            "midi": 45,
            "name": "A2",
            "ticks": 59040,
            "time": 81.63709875,
            "velocity": 0.7874015748031497
          },
          {
            "duration": 0.1327432499999901,
            "durationTicks": 96,
            "midi": 45,
            "name": "A2",
            "ticks": 59136,
            "time": 81.76984200000001,
            "velocity": 0.7874015748031497
          },
          {
            "duration": 0.1327432500000043,
            "durationTicks": 96,
            "midi": 45,
            "name": "A2",
            "ticks": 59232,
            "time": 81.90258525,
            "velocity": 0.7874015748031497
          },
          {
            "duration": 0,
            "durationTicks": 0,
            "midi": 52,
            "name": "E3",
            "ticks": 59328,
            "time": 82.0353285,
            "velocity": 0.7874015748031497
          },
          {
            "duration": 0.1327432499999901,
            "durationTicks": 96,
            "midi": 45,
            "name": "A2",
            "ticks": 59424,
            "time": 82.16807175000001,
            "velocity": 0.7874015748031497
          },
          {
            "duration": 0.1327432500000043,
            "durationTicks": 96,
            "midi": 45,
            "name": "A2",
            "ticks": 59520,
            "time": 82.300815,
            "velocity": 0.7874015748031497
          },
          {
            "duration": 0.1327432499999901,
            "durationTicks": 96,
            "midi": 47,
            "name": "B2",
            "ticks": 59712,
            "time": 82.56630150000001,
            "velocity": 0.7874015748031497
          },
          {
            "duration": 0.1327432500000043,
            "durationTicks": 96,
            "midi": 49,
            "name": "C#3",
            "ticks": 59904,
            "time": 82.831788,
            "velocity": 0.7874015748031497
          },
          {
            "duration": 0.1327432499999901,
            "durationTicks": 96,
            "midi": 49,
            "name": "C#3",
            "ticks": 60000,
            "time": 82.96453125000001,
            "velocity": 0.7874015748031497
          },
          {
            "duration": 0,
            "durationTicks": 0,
            "midi": 56,
            "name": "G#3",
            "ticks": 60096,
            "time": 83.0972745,
            "velocity": 0.7874015748031497
          },
          {
            "duration": 0.1327432500000043,
            "durationTicks": 96,
            "midi": 49,
            "name": "C#3",
            "ticks": 60192,
            "time": 83.23001775,
            "velocity": 0.7874015748031497
          },
          {
            "duration": 0.1327432500000043,
            "durationTicks": 96,
            "midi": 49,
            "name": "C#3",
            "ticks": 60288,
            "time": 83.362761,
            "velocity": 0.7874015748031497
          },
          {
            "duration": 0.1327432499999901,
            "durationTicks": 96,
            "midi": 49,
            "name": "C#3",
            "ticks": 60384,
            "time": 83.49550425000001,
            "velocity": 0.7874015748031497
          },
          {
            "duration": 0,
            "durationTicks": 0,
            "midi": 56,
            "name": "G#3",
            "ticks": 60480,
            "time": 83.6282475,
            "velocity": 0.7874015748031497
          },
          {
            "duration": 0.1327432500000043,
            "durationTicks": 96,
            "midi": 49,
            "name": "C#3",
            "ticks": 60576,
            "time": 83.76099075,
            "velocity": 0.7874015748031497
          },
          {
            "duration": 0.1327432499999901,
            "durationTicks": 96,
            "midi": 49,
            "name": "C#3",
            "ticks": 60672,
            "time": 83.89373400000001,
            "velocity": 0.7874015748031497
          },
          {
            "duration": 0.1327432500000043,
            "durationTicks": 96,
            "midi": 49,
            "name": "C#3",
            "ticks": 60768,
            "time": 84.02647725,
            "velocity": 0.7874015748031497
          },
          {
            "duration": 0,
            "durationTicks": 0,
            "midi": 56,
            "name": "G#3",
            "ticks": 60864,
            "time": 84.1592205,
            "velocity": 0.7874015748031497
          },
          {
            "duration": 0.1327432499999901,
            "durationTicks": 96,
            "midi": 49,
            "name": "C#3",
            "ticks": 60960,
            "time": 84.29196375000001,
            "velocity": 0.7874015748031497
          },
          {
            "duration": 0.1327432500000043,
            "durationTicks": 96,
            "midi": 49,
            "name": "C#3",
            "ticks": 61056,
            "time": 84.424707,
            "velocity": 0.7874015748031497
          },
          {
            "duration": 0.1327432500000043,
            "durationTicks": 96,
            "midi": 47,
            "name": "B2",
            "ticks": 61248,
            "time": 84.6901935,
            "velocity": 0.7874015748031497
          },
          {
            "duration": 0.1327432500000043,
            "durationTicks": 96,
            "midi": 44,
            "name": "G#2",
            "ticks": 61440,
            "time": 84.95568,
            "velocity": 0.7874015748031497
          },
          {
            "duration": 0.1327432500000043,
            "durationTicks": 96,
            "midi": 44,
            "name": "G#2",
            "ticks": 61728,
            "time": 85.35390975,
            "velocity": 0.7874015748031497
          },
          {
            "duration": 0.1327432500000043,
            "durationTicks": 96,
            "midi": 44,
            "name": "G#2",
            "ticks": 62016,
            "time": 85.7521395,
            "velocity": 0.7874015748031497
          },
          {
            "duration": 0.1327432500000043,
            "durationTicks": 96,
            "midi": 49,
            "name": "C#3",
            "ticks": 62208,
            "time": 86.017626,
            "velocity": 0.7874015748031497
          },
          {
            "duration": 0.1327432500000043,
            "durationTicks": 96,
            "midi": 51,
            "name": "D#3",
            "ticks": 62496,
            "time": 86.41585575,
            "velocity": 0.7874015748031497
          },
          {
            "duration": 0.2654864999999944,
            "durationTicks": 192,
            "midi": 54,
            "name": "F#3",
            "ticks": 62784,
            "time": 86.8140855,
            "velocity": 0.7874015748031497
          },
          {
            "duration": 0.1327432500000043,
            "durationTicks": 96,
            "midi": 45,
            "name": "A2",
            "ticks": 62976,
            "time": 87.079572,
            "velocity": 0.7874015748031497
          },
          {
            "duration": 0.1327432500000043,
            "durationTicks": 96,
            "midi": 45,
            "name": "A2",
            "ticks": 63072,
            "time": 87.21231525,
            "velocity": 0.7874015748031497
          },
          {
            "duration": 0,
            "durationTicks": 0,
            "midi": 52,
            "name": "E3",
            "ticks": 63168,
            "time": 87.34505850000001,
            "velocity": 0.7874015748031497
          },
          {
            "duration": 0.1327432500000043,
            "durationTicks": 96,
            "midi": 45,
            "name": "A2",
            "ticks": 63264,
            "time": 87.47780175,
            "velocity": 0.7874015748031497
          },
          {
            "duration": 0.1327432500000043,
            "durationTicks": 96,
            "midi": 45,
            "name": "A2",
            "ticks": 63360,
            "time": 87.610545,
            "velocity": 0.7874015748031497
          },
          {
            "duration": 0.1327432500000043,
            "durationTicks": 96,
            "midi": 45,
            "name": "A2",
            "ticks": 63456,
            "time": 87.74328825,
            "velocity": 0.7874015748031497
          },
          {
            "duration": 0,
            "durationTicks": 0,
            "midi": 52,
            "name": "E3",
            "ticks": 63552,
            "time": 87.87603150000001,
            "velocity": 0.7874015748031497
          },
          {
            "duration": 0.1327432500000043,
            "durationTicks": 96,
            "midi": 45,
            "name": "A2",
            "ticks": 63648,
            "time": 88.00877475,
            "velocity": 0.7874015748031497
          },
          {
            "duration": 0.1327432500000043,
            "durationTicks": 96,
            "midi": 45,
            "name": "A2",
            "ticks": 63744,
            "time": 88.141518,
            "velocity": 0.7874015748031497
          },
          {
            "duration": 0.1327432499999901,
            "durationTicks": 96,
            "midi": 45,
            "name": "A2",
            "ticks": 63840,
            "time": 88.27426125000001,
            "velocity": 0.7874015748031497
          },
          {
            "duration": 0,
            "durationTicks": 0,
            "midi": 52,
            "name": "E3",
            "ticks": 63936,
            "time": 88.4070045,
            "velocity": 0.7874015748031497
          },
          {
            "duration": 0.1327432500000043,
            "durationTicks": 96,
            "midi": 45,
            "name": "A2",
            "ticks": 64032,
            "time": 88.53974775,
            "velocity": 0.7874015748031497
          },
          {
            "duration": 0.1327432499999901,
            "durationTicks": 96,
            "midi": 45,
            "name": "A2",
            "ticks": 64128,
            "time": 88.67249100000001,
            "velocity": 0.7874015748031497
          },
          {
            "duration": 0.1327432500000043,
            "durationTicks": 96,
            "midi": 47,
            "name": "B2",
            "ticks": 64320,
            "time": 88.9379775,
            "velocity": 0.7874015748031497
          },
          {
            "duration": 0.1327432499999901,
            "durationTicks": 96,
            "midi": 45,
            "name": "A2",
            "ticks": 64512,
            "time": 89.20346400000001,
            "velocity": 0.7874015748031497
          },
          {
            "duration": 0.1327432500000043,
            "durationTicks": 96,
            "midi": 45,
            "name": "A2",
            "ticks": 64608,
            "time": 89.33620725,
            "velocity": 0.7874015748031497
          },
          {
            "duration": 0,
            "durationTicks": 0,
            "midi": 52,
            "name": "E3",
            "ticks": 64704,
            "time": 89.4689505,
            "velocity": 0.7874015748031497
          },
          {
            "duration": 0.1327432499999901,
            "durationTicks": 96,
            "midi": 45,
            "name": "A2",
            "ticks": 64800,
            "time": 89.60169375000001,
            "velocity": 0.7874015748031497
          },
          {
            "duration": 0.1327432500000043,
            "durationTicks": 96,
            "midi": 45,
            "name": "A2",
            "ticks": 64896,
            "time": 89.734437,
            "velocity": 0.7874015748031497
          },
          {
            "duration": 0.1327432500000043,
            "durationTicks": 96,
            "midi": 45,
            "name": "A2",
            "ticks": 64992,
            "time": 89.86718025,
            "velocity": 0.7874015748031497
          },
          {
            "duration": 0,
            "durationTicks": 0,
            "midi": 52,
            "name": "E3",
            "ticks": 65088,
            "time": 89.99992350000001,
            "velocity": 0.7874015748031497
          },
          {
            "duration": 0.1327432500000043,
            "durationTicks": 96,
            "midi": 45,
            "name": "A2",
            "ticks": 65184,
            "time": 90.13266675,
            "velocity": 0.7874015748031497
          },
          {
            "duration": 0.1327432500000043,
            "durationTicks": 96,
            "midi": 45,
            "name": "A2",
            "ticks": 65280,
            "time": 90.26541,
            "velocity": 0.7874015748031497
          },
          {
            "duration": 0.1327432500000043,
            "durationTicks": 96,
            "midi": 45,
            "name": "A2",
            "ticks": 65376,
            "time": 90.39815325000001,
            "velocity": 0.7874015748031497
          },
          {
            "duration": 0,
            "durationTicks": 0,
            "midi": 52,
            "name": "E3",
            "ticks": 65472,
            "time": 90.53089650000001,
            "velocity": 0.7874015748031497
          },
          {
            "duration": 0.1327432500000043,
            "durationTicks": 96,
            "midi": 45,
            "name": "A2",
            "ticks": 65568,
            "time": 90.66363975,
            "velocity": 0.7874015748031497
          },
          {
            "duration": 0.1327432500000043,
            "durationTicks": 96,
            "midi": 45,
            "name": "A2",
            "ticks": 65664,
            "time": 90.796383,
            "velocity": 0.7874015748031497
          },
          {
            "duration": 0.1327432500000043,
            "durationTicks": 96,
            "midi": 47,
            "name": "B2",
            "ticks": 65856,
            "time": 91.0618695,
            "velocity": 0.7874015748031497
          },
          {
            "duration": 0.1327432499999901,
            "durationTicks": 96,
            "midi": 49,
            "name": "C#3",
            "ticks": 66048,
            "time": 91.32735600000001,
            "velocity": 0.7874015748031497
          },
          {
            "duration": 0.1327432500000043,
            "durationTicks": 96,
            "midi": 49,
            "name": "C#3",
            "ticks": 66144,
            "time": 91.46009925,
            "velocity": 0.7874015748031497
          },
          {
            "duration": 0,
            "durationTicks": 0,
            "midi": 56,
            "name": "G#3",
            "ticks": 66240,
            "time": 91.5928425,
            "velocity": 0.7874015748031497
          },
          {
            "duration": 0.1327432500000043,
            "durationTicks": 96,
            "midi": 49,
            "name": "C#3",
            "ticks": 66336,
            "time": 91.72558575000001,
            "velocity": 0.7874015748031497
          },
          {
            "duration": 0.1327432499999901,
            "durationTicks": 96,
            "midi": 49,
            "name": "C#3",
            "ticks": 66432,
            "time": 91.85832900000001,
            "velocity": 0.7874015748031497
          },
          {
            "duration": 0.1327432500000043,
            "durationTicks": 96,
            "midi": 49,
            "name": "C#3",
            "ticks": 66528,
            "time": 91.99107225,
            "velocity": 0.7874015748031497
          },
          {
            "duration": 0,
            "durationTicks": 0,
            "midi": 56,
            "name": "G#3",
            "ticks": 66624,
            "time": 92.1238155,
            "velocity": 0.7874015748031497
          },
          {
            "duration": 0.1327432499999901,
            "durationTicks": 96,
            "midi": 49,
            "name": "C#3",
            "ticks": 66720,
            "time": 92.25655875000001,
            "velocity": 0.7874015748031497
          },
          {
            "duration": 0.1327432500000043,
            "durationTicks": 96,
            "midi": 49,
            "name": "C#3",
            "ticks": 66816,
            "time": 92.389302,
            "velocity": 0.7874015748031497
          },
          {
            "duration": 0.1327432500000043,
            "durationTicks": 96,
            "midi": 49,
            "name": "C#3",
            "ticks": 66912,
            "time": 92.52204525,
            "velocity": 0.7874015748031497
          },
          {
            "duration": 0,
            "durationTicks": 0,
            "midi": 56,
            "name": "G#3",
            "ticks": 67008,
            "time": 92.65478850000001,
            "velocity": 0.7874015748031497
          },
          {
            "duration": 0.1327432500000043,
            "durationTicks": 96,
            "midi": 49,
            "name": "C#3",
            "ticks": 67104,
            "time": 92.78753175,
            "velocity": 0.7874015748031497
          },
          {
            "duration": 0.1327432500000043,
            "durationTicks": 96,
            "midi": 49,
            "name": "C#3",
            "ticks": 67200,
            "time": 92.920275,
            "velocity": 0.7874015748031497
          },
          {
            "duration": 0.1327432500000043,
            "durationTicks": 96,
            "midi": 47,
            "name": "B2",
            "ticks": 67392,
            "time": 93.1857615,
            "velocity": 0.7874015748031497
          },
          {
            "duration": 0.1327432500000043,
            "durationTicks": 96,
            "midi": 44,
            "name": "G#2",
            "ticks": 67584,
            "time": 93.451248,
            "velocity": 0.7874015748031497
          },
          {
            "duration": 0.1327432500000043,
            "durationTicks": 96,
            "midi": 44,
            "name": "G#2",
            "ticks": 67872,
            "time": 93.84947775,
            "velocity": 0.7874015748031497
          },
          {
            "duration": 0.1327432500000043,
            "durationTicks": 96,
            "midi": 44,
            "name": "G#2",
            "ticks": 68160,
            "time": 94.2477075,
            "velocity": 0.7874015748031497
          },
          {
            "duration": 0.1327432500000043,
            "durationTicks": 96,
            "midi": 47,
            "name": "B2",
            "ticks": 68352,
            "time": 94.513194,
            "velocity": 0.7874015748031497
          },
          {
            "duration": 0.1327432499999901,
            "durationTicks": 96,
            "midi": 51,
            "name": "D#3",
            "ticks": 68640,
            "time": 94.91142375000001,
            "velocity": 0.7874015748031497
          },
          {
            "duration": 0.2654864999999944,
            "durationTicks": 192,
            "midi": 54,
            "name": "F#3",
            "ticks": 68928,
            "time": 95.30965350000001,
            "velocity": 0.7874015748031497
          },
          {
            "duration": 0.1327432500000043,
            "durationTicks": 96,
            "midi": 45,
            "name": "A2",
            "ticks": 69120,
            "time": 95.57514,
            "velocity": 0.7874015748031497
          },
          {
            "duration": 0.1327432499999901,
            "durationTicks": 96,
            "midi": 45,
            "name": "A2",
            "ticks": 69216,
            "time": 95.70788325000001,
            "velocity": 0.7874015748031497
          },
          {
            "duration": 0,
            "durationTicks": 0,
            "midi": 52,
            "name": "E3",
            "ticks": 69312,
            "time": 95.8406265,
            "velocity": 0.7874015748031497
          },
          {
            "duration": 0.1327432500000043,
            "durationTicks": 96,
            "midi": 45,
            "name": "A2",
            "ticks": 69408,
            "time": 95.97336975,
            "velocity": 0.7874015748031497
          },
          {
            "duration": 0.1327432500000043,
            "durationTicks": 96,
            "midi": 45,
            "name": "A2",
            "ticks": 69504,
            "time": 96.10611300000001,
            "velocity": 0.7874015748031497
          },
          {
            "duration": 0.1327432499999901,
            "durationTicks": 96,
            "midi": 45,
            "name": "A2",
            "ticks": 69600,
            "time": 96.23885625000001,
            "velocity": 0.7874015748031497
          },
          {
            "duration": 0,
            "durationTicks": 0,
            "midi": 52,
            "name": "E3",
            "ticks": 69696,
            "time": 96.3715995,
            "velocity": 0.7874015748031497
          },
          {
            "duration": 0.1327432500000043,
            "durationTicks": 96,
            "midi": 45,
            "name": "A2",
            "ticks": 69792,
            "time": 96.50434275,
            "velocity": 0.7874015748031497
          },
          {
            "duration": 0.1327432499999901,
            "durationTicks": 96,
            "midi": 45,
            "name": "A2",
            "ticks": 69888,
            "time": 96.63708600000001,
            "velocity": 0.7874015748031497
          },
          {
            "duration": 0.1327432500000043,
            "durationTicks": 96,
            "midi": 45,
            "name": "A2",
            "ticks": 69984,
            "time": 96.76982925,
            "velocity": 0.7874015748031497
          },
          {
            "duration": 0,
            "durationTicks": 0,
            "midi": 52,
            "name": "E3",
            "ticks": 70080,
            "time": 96.9025725,
            "velocity": 0.7874015748031497
          },
          {
            "duration": 0.1327432499999901,
            "durationTicks": 96,
            "midi": 45,
            "name": "A2",
            "ticks": 70176,
            "time": 97.03531575000001,
            "velocity": 0.7874015748031497
          },
          {
            "duration": 0.1327432500000043,
            "durationTicks": 96,
            "midi": 45,
            "name": "A2",
            "ticks": 70272,
            "time": 97.168059,
            "velocity": 0.7874015748031497
          },
          {
            "duration": 0.1327432499999901,
            "durationTicks": 96,
            "midi": 47,
            "name": "B2",
            "ticks": 70464,
            "time": 97.43354550000001,
            "velocity": 0.7874015748031497
          },
          {
            "duration": 0.1327432500000043,
            "durationTicks": 96,
            "midi": 45,
            "name": "A2",
            "ticks": 70656,
            "time": 97.699032,
            "velocity": 0.7874015748031497
          },
          {
            "duration": 0.1327432500000043,
            "durationTicks": 96,
            "midi": 45,
            "name": "A2",
            "ticks": 70752,
            "time": 97.83177525,
            "velocity": 0.7874015748031497
          },
          {
            "duration": 0,
            "durationTicks": 0,
            "midi": 52,
            "name": "E3",
            "ticks": 70848,
            "time": 97.96451850000001,
            "velocity": 0.7874015748031497
          },
          {
            "duration": 0.1327432500000043,
            "durationTicks": 96,
            "midi": 45,
            "name": "A2",
            "ticks": 70944,
            "time": 98.09726175,
            "velocity": 0.7874015748031497
          },
          {
            "duration": 0.1327432500000043,
            "durationTicks": 96,
            "midi": 45,
            "name": "A2",
            "ticks": 71040,
            "time": 98.230005,
            "velocity": 0.7874015748031497
          },
          {
            "duration": 0.1327432499999901,
            "durationTicks": 96,
            "midi": 45,
            "name": "A2",
            "ticks": 71136,
            "time": 98.36274825000001,
            "velocity": 0.7874015748031497
          },
          {
            "duration": 0,
            "durationTicks": 0,
            "midi": 52,
            "name": "E3",
            "ticks": 71232,
            "time": 98.4954915,
            "velocity": 0.7874015748031497
          },
          {
            "duration": 0.1327432500000043,
            "durationTicks": 96,
            "midi": 45,
            "name": "A2",
            "ticks": 71328,
            "time": 98.62823475,
            "velocity": 0.7874015748031497
          },
          {
            "duration": 0.1327432499999901,
            "durationTicks": 96,
            "midi": 45,
            "name": "A2",
            "ticks": 71424,
            "time": 98.76097800000001,
            "velocity": 0.7874015748031497
          },
          {
            "duration": 0.1327432500000043,
            "durationTicks": 96,
            "midi": 45,
            "name": "A2",
            "ticks": 71520,
            "time": 98.89372125,
            "velocity": 0.7874015748031497
          },
          {
            "duration": 0,
            "durationTicks": 0,
            "midi": 52,
            "name": "E3",
            "ticks": 71616,
            "time": 99.0264645,
            "velocity": 0.7874015748031497
          },
          {
            "duration": 0.1327432500000043,
            "durationTicks": 96,
            "midi": 45,
            "name": "A2",
            "ticks": 71712,
            "time": 99.15920775000001,
            "velocity": 0.7874015748031497
          },
          {
            "duration": 0.1327432499999901,
            "durationTicks": 96,
            "midi": 45,
            "name": "A2",
            "ticks": 71808,
            "time": 99.29195100000001,
            "velocity": 0.7874015748031497
          },
          {
            "duration": 0.1327432500000043,
            "durationTicks": 96,
            "midi": 47,
            "name": "B2",
            "ticks": 72000,
            "time": 99.5574375,
            "velocity": 0.7874015748031497
          },
          {
            "duration": 0.1327432500000043,
            "durationTicks": 96,
            "midi": 49,
            "name": "C#3",
            "ticks": 72192,
            "time": 99.822924,
            "velocity": 0.7874015748031497
          },
          {
            "duration": 0.1327432500000043,
            "durationTicks": 96,
            "midi": 49,
            "name": "C#3",
            "ticks": 72288,
            "time": 99.95566725,
            "velocity": 0.7874015748031497
          },
          {
            "duration": 0,
            "durationTicks": 0,
            "midi": 56,
            "name": "G#3",
            "ticks": 72384,
            "time": 100.08841050000001,
            "velocity": 0.7874015748031497
          },
          {
            "duration": 0.1327432500000043,
            "durationTicks": 96,
            "midi": 49,
            "name": "C#3",
            "ticks": 72480,
            "time": 100.22115375,
            "velocity": 0.7874015748031497
          },
          {
            "duration": 0.1327432500000043,
            "durationTicks": 96,
            "midi": 49,
            "name": "C#3",
            "ticks": 72576,
            "time": 100.353897,
            "velocity": 0.7874015748031497
          },
          {
            "duration": 0.1327432500000043,
            "durationTicks": 96,
            "midi": 49,
            "name": "C#3",
            "ticks": 72672,
            "time": 100.48664025000001,
            "velocity": 0.7874015748031497
          },
          {
            "duration": 0,
            "durationTicks": 0,
            "midi": 56,
            "name": "G#3",
            "ticks": 72768,
            "time": 100.61938350000001,
            "velocity": 0.7874015748031497
          },
          {
            "duration": 0.1327432500000043,
            "durationTicks": 96,
            "midi": 49,
            "name": "C#3",
            "ticks": 72864,
            "time": 100.75212675,
            "velocity": 0.7874015748031497
          },
          {
            "duration": 0.1327432500000043,
            "durationTicks": 96,
            "midi": 49,
            "name": "C#3",
            "ticks": 72960,
            "time": 100.88487,
            "velocity": 0.7874015748031497
          },
          {
            "duration": 0.1327432499999901,
            "durationTicks": 96,
            "midi": 49,
            "name": "C#3",
            "ticks": 73056,
            "time": 101.01761325000001,
            "velocity": 0.7874015748031497
          },
          {
            "duration": 0,
            "durationTicks": 0,
            "midi": 56,
            "name": "G#3",
            "ticks": 73152,
            "time": 101.1503565,
            "velocity": 0.7874015748031497
          },
          {
            "duration": 0.1327432500000043,
            "durationTicks": 96,
            "midi": 49,
            "name": "C#3",
            "ticks": 73248,
            "time": 101.28309975,
            "velocity": 0.7874015748031497
          },
          {
            "duration": 0.1327432499999901,
            "durationTicks": 96,
            "midi": 49,
            "name": "C#3",
            "ticks": 73344,
            "time": 101.41584300000001,
            "velocity": 0.7874015748031497
          },
          {
            "duration": 0.1327432500000043,
            "durationTicks": 96,
            "midi": 47,
            "name": "B2",
            "ticks": 73536,
            "time": 101.6813295,
            "velocity": 0.7874015748031497
          },
          {
            "duration": 0.1327432499999901,
            "durationTicks": 96,
            "midi": 44,
            "name": "G#2",
            "ticks": 73728,
            "time": 101.94681600000001,
            "velocity": 0.7874015748031497
          },
          {
            "duration": 0.1327432499999901,
            "durationTicks": 96,
            "midi": 44,
            "name": "G#2",
            "ticks": 74016,
            "time": 102.34504575000001,
            "velocity": 0.7874015748031497
          },
          {
            "duration": 0.1327432499999901,
            "durationTicks": 96,
            "midi": 44,
            "name": "G#2",
            "ticks": 74304,
            "time": 102.74327550000001,
            "velocity": 0.7874015748031497
          },
          {
            "duration": 0.1327432500000043,
            "durationTicks": 96,
            "midi": 49,
            "name": "C#3",
            "ticks": 74496,
            "time": 103.008762,
            "velocity": 0.7874015748031497
          },
          {
            "duration": 0.1327432500000043,
            "durationTicks": 96,
            "midi": 51,
            "name": "D#3",
            "ticks": 74784,
            "time": 103.40699175,
            "velocity": 0.7874015748031497
          },
          {
            "duration": 0.2654865000000086,
            "durationTicks": 192,
            "midi": 54,
            "name": "F#3",
            "ticks": 75072,
            "time": 103.8052215,
            "velocity": 0.7874015748031497
          },
          {
            "duration": 0.1327432499999901,
            "durationTicks": 96,
            "midi": 33,
            "name": "A1",
            "ticks": 75264,
            "time": 104.07070800000001,
            "velocity": 0.5905511811023622
          },
          {
            "duration": 0.1327432500000043,
            "durationTicks": 96,
            "midi": 45,
            "name": "A2",
            "ticks": 75360,
            "time": 104.20345125,
            "velocity": 0.7874015748031497
          },
          {
            "duration": 0,
            "durationTicks": 0,
            "midi": 52,
            "name": "E3",
            "ticks": 75456,
            "time": 104.3361945,
            "velocity": 0.7874015748031497
          },
          {
            "duration": 0.1327432499999901,
            "durationTicks": 96,
            "midi": 45,
            "name": "A2",
            "ticks": 75552,
            "time": 104.46893775000001,
            "velocity": 0.7874015748031497
          },
          {
            "duration": 0.1327432500000043,
            "durationTicks": 96,
            "midi": 33,
            "name": "A1",
            "ticks": 75648,
            "time": 104.601681,
            "velocity": 0.5905511811023622
          },
          {
            "duration": 0.1327432500000043,
            "durationTicks": 96,
            "midi": 45,
            "name": "A2",
            "ticks": 75744,
            "time": 104.73442425,
            "velocity": 0.7874015748031497
          },
          {
            "duration": 0,
            "durationTicks": 0,
            "midi": 52,
            "name": "E3",
            "ticks": 75840,
            "time": 104.86716750000001,
            "velocity": 0.7874015748031497
          },
          {
            "duration": 0.1327432499999901,
            "durationTicks": 96,
            "midi": 45,
            "name": "A2",
            "ticks": 75936,
            "time": 104.99991075000001,
            "velocity": 0.7874015748031497
          },
          {
            "duration": 0.1327432500000043,
            "durationTicks": 96,
            "midi": 33,
            "name": "A1",
            "ticks": 76032,
            "time": 105.132654,
            "velocity": 0.5905511811023622
          },
          {
            "duration": 0.1327432500000043,
            "durationTicks": 96,
            "midi": 45,
            "name": "A2",
            "ticks": 76128,
            "time": 105.26539725,
            "velocity": 0.7874015748031497
          },
          {
            "duration": 0,
            "durationTicks": 0,
            "midi": 52,
            "name": "E3",
            "ticks": 76224,
            "time": 105.39814050000001,
            "velocity": 0.7874015748031497
          },
          {
            "duration": 0.1327432500000043,
            "durationTicks": 96,
            "midi": 45,
            "name": "A2",
            "ticks": 76320,
            "time": 105.53088375,
            "velocity": 0.7874015748031497
          },
          {
            "duration": 0.1327432500000043,
            "durationTicks": 96,
            "midi": 33,
            "name": "A1",
            "ticks": 76416,
            "time": 105.663627,
            "velocity": 0.5905511811023622
          },
          {
            "duration": 0.2654865000000086,
            "durationTicks": 192,
            "midi": 37,
            "name": "C#2",
            "ticks": 76608,
            "time": 105.9291135,
            "velocity": 0.5905511811023622
          },
          {
            "duration": 0.1327432500000043,
            "durationTicks": 96,
            "midi": 35,
            "name": "B1",
            "ticks": 76800,
            "time": 106.19460000000001,
            "velocity": 0.5905511811023622
          },
          {
            "duration": 0.1327432499999901,
            "durationTicks": 96,
            "midi": 47,
            "name": "B2",
            "ticks": 76896,
            "time": 106.32734325000001,
            "velocity": 0.7874015748031497
          },
          {
            "duration": 0,
            "durationTicks": 0,
            "midi": 54,
            "name": "F#3",
            "ticks": 76992,
            "time": 106.4600865,
            "velocity": 0.7874015748031497
          },
          {
            "duration": 0.1327432500000043,
            "durationTicks": 96,
            "midi": 47,
            "name": "B2",
            "ticks": 77088,
            "time": 106.59282975,
            "velocity": 0.7874015748031497
          },
          {
            "duration": 0.1327432499999901,
            "durationTicks": 96,
            "midi": 35,
            "name": "B1",
            "ticks": 77184,
            "time": 106.72557300000001,
            "velocity": 0.5905511811023622
          },
          {
            "duration": 0.1327432500000043,
            "durationTicks": 96,
            "midi": 47,
            "name": "B2",
            "ticks": 77280,
            "time": 106.85831625,
            "velocity": 0.7874015748031497
          },
          {
            "duration": 0,
            "durationTicks": 0,
            "midi": 54,
            "name": "F#3",
            "ticks": 77376,
            "time": 106.9910595,
            "velocity": 0.7874015748031497
          },
          {
            "duration": 0.1327432499999901,
            "durationTicks": 96,
            "midi": 47,
            "name": "B2",
            "ticks": 77472,
            "time": 107.12380275000001,
            "velocity": 0.7874015748031497
          },
          {
            "duration": 0.1327432500000043,
            "durationTicks": 96,
            "midi": 35,
            "name": "B1",
            "ticks": 77568,
            "time": 107.256546,
            "velocity": 0.5905511811023622
          },
          {
            "duration": 0.1327432500000043,
            "durationTicks": 96,
            "midi": 47,
            "name": "B2",
            "ticks": 77664,
            "time": 107.38928925,
            "velocity": 0.7874015748031497
          },
          {
            "duration": 0,
            "durationTicks": 0,
            "midi": 54,
            "name": "F#3",
            "ticks": 77760,
            "time": 107.52203250000001,
            "velocity": 0.7874015748031497
          },
          {
            "duration": 0.1327432500000043,
            "durationTicks": 96,
            "midi": 47,
            "name": "B2",
            "ticks": 77856,
            "time": 107.65477575,
            "velocity": 0.7874015748031497
          },
          {
            "duration": 0.1327432500000043,
            "durationTicks": 96,
            "midi": 35,
            "name": "B1",
            "ticks": 77952,
            "time": 107.787519,
            "velocity": 0.5905511811023622
          },
          {
            "duration": 0.2654864999999944,
            "durationTicks": 192,
            "midi": 39,
            "name": "D#2",
            "ticks": 78144,
            "time": 108.05300550000001,
            "velocity": 0.5905511811023622
          },
          {
            "duration": 0.1327432500000043,
            "durationTicks": 96,
            "midi": 37,
            "name": "C#2",
            "ticks": 78336,
            "time": 108.318492,
            "velocity": 0.7874015748031497
          },
          {
            "duration": 0.1327432499999901,
            "durationTicks": 96,
            "midi": 49,
            "name": "C#3",
            "ticks": 78432,
            "time": 108.45123525000001,
            "velocity": 0.7874015748031497
          },
          {
            "duration": 0,
            "durationTicks": 0,
            "midi": 56,
            "name": "G#3",
            "ticks": 78528,
            "time": 108.5839785,
            "velocity": 0.7874015748031497
          },
          {
            "duration": 0.1327432500000043,
            "durationTicks": 96,
            "midi": 49,
            "name": "C#3",
            "ticks": 78624,
            "time": 108.71672175,
            "velocity": 0.7874015748031497
          },
          {
            "duration": 0.1327432499999901,
            "durationTicks": 96,
            "midi": 37,
            "name": "C#2",
            "ticks": 78720,
            "time": 108.84946500000001,
            "velocity": 0.7874015748031497
          },
          {
            "duration": 0.1327432500000043,
            "durationTicks": 96,
            "midi": 49,
            "name": "C#3",
            "ticks": 78816,
            "time": 108.98220825,
            "velocity": 0.7874015748031497
          },
          {
            "duration": 0,
            "durationTicks": 0,
            "midi": 56,
            "name": "G#3",
            "ticks": 78912,
            "time": 109.1149515,
            "velocity": 0.7874015748031497
          },
          {
            "duration": 0.1327432500000043,
            "durationTicks": 96,
            "midi": 49,
            "name": "C#3",
            "ticks": 79008,
            "time": 109.24769475000001,
            "velocity": 0.7874015748031497
          },
          {
            "duration": 0.1327432499999901,
            "durationTicks": 96,
            "midi": 37,
            "name": "C#2",
            "ticks": 79104,
            "time": 109.38043800000001,
            "velocity": 0.7874015748031497
          },
          {
            "duration": 0.1327432500000043,
            "durationTicks": 96,
            "midi": 49,
            "name": "C#3",
            "ticks": 79200,
            "time": 109.51318125,
            "velocity": 0.7874015748031497
          },
          {
            "duration": 0,
            "durationTicks": 0,
            "midi": 56,
            "name": "G#3",
            "ticks": 79296,
            "time": 109.6459245,
            "velocity": 0.7874015748031497
          },
          {
            "duration": 0.1327432499999901,
            "durationTicks": 96,
            "midi": 37,
            "name": "C#2",
            "ticks": 79392,
            "time": 109.77866775000001,
            "velocity": 0.7874015748031497
          },
          {
            "duration": 0.1327432500000043,
            "durationTicks": 96,
            "midi": 49,
            "name": "C#3",
            "ticks": 79488,
            "time": 109.911411,
            "velocity": 0.7874015748031497
          },
          {
            "duration": 0.2654864999999944,
            "durationTicks": 192,
            "midi": 35,
            "name": "B1",
            "ticks": 79680,
            "time": 110.17689750000001,
            "velocity": 0.7874015748031497
          },
          {
            "duration": 0.1327432500000043,
            "durationTicks": 96,
            "midi": 32,
            "name": "G#1",
            "ticks": 79872,
            "time": 110.442384,
            "velocity": 0.7874015748031497
          },
          {
            "duration": 0.1327432500000043,
            "durationTicks": 96,
            "midi": 32,
            "name": "G#1",
            "ticks": 80160,
            "time": 110.84061375,
            "velocity": 0.7874015748031497
          },
          {
            "duration": 0.1327432500000043,
            "durationTicks": 96,
            "midi": 32,
            "name": "G#1",
            "ticks": 80448,
            "time": 111.2388435,
            "velocity": 0.7874015748031497
          },
          {
            "duration": 0.1327432499999901,
            "durationTicks": 96,
            "midi": 37,
            "name": "C#2",
            "ticks": 80640,
            "time": 111.50433000000001,
            "velocity": 0.7874015748031497
          },
          {
            "duration": 0.1327432499999901,
            "durationTicks": 96,
            "midi": 39,
            "name": "D#2",
            "ticks": 80928,
            "time": 111.90255975000001,
            "velocity": 0.7874015748031497
          },
          {
            "duration": 0.1327432500000043,
            "durationTicks": 96,
            "midi": 44,
            "name": "G#2",
            "ticks": 81216,
            "time": 112.30078950000001,
            "velocity": 0.7874015748031497
          },
          {
            "duration": 0.1327432500000043,
            "durationTicks": 96,
            "midi": 42,
            "name": "F#2",
            "ticks": 81408,
            "time": 112.566276,
            "velocity": 0.7874015748031497
          },
          {
            "duration": 0.1327432500000043,
            "durationTicks": 96,
            "midi": 49,
            "name": "C#3",
            "ticks": 81504,
            "time": 112.69901925,
            "velocity": 0.7874015748031497
          },
          {
            "duration": 0.1327432499999901,
            "durationTicks": 96,
            "midi": 54,
            "name": "F#3",
            "ticks": 81600,
            "time": 112.83176250000001,
            "velocity": 0.7874015748031497
          },
          {
            "duration": 0.1327432500000043,
            "durationTicks": 96,
            "midi": 49,
            "name": "C#3",
            "ticks": 81696,
            "time": 112.96450575,
            "velocity": 0.7874015748031497
          },
          {
            "duration": 0.1327432500000043,
            "durationTicks": 96,
            "midi": 42,
            "name": "F#2",
            "ticks": 81792,
            "time": 113.097249,
            "velocity": 0.7874015748031497
          },
          {
            "duration": 0.1327432499999901,
            "durationTicks": 96,
            "midi": 49,
            "name": "C#3",
            "ticks": 81888,
            "time": 113.22999225000001,
            "velocity": 0.7874015748031497
          },
          {
            "duration": 0.1327432500000043,
            "durationTicks": 96,
            "midi": 54,
            "name": "F#3",
            "ticks": 81984,
            "time": 113.3627355,
            "velocity": 0.7874015748031497
          },
          {
            "duration": 0.1327432500000043,
            "durationTicks": 96,
            "midi": 49,
            "name": "C#3",
            "ticks": 82080,
            "time": 113.49547875,
            "velocity": 0.7874015748031497
          },
          {
            "duration": 0.1327432500000043,
            "durationTicks": 96,
            "midi": 42,
            "name": "F#2",
            "ticks": 82176,
            "time": 113.62822200000001,
            "velocity": 0.7874015748031497
          },
          {
            "duration": 0.1327432499999901,
            "durationTicks": 96,
            "midi": 49,
            "name": "C#3",
            "ticks": 82272,
            "time": 113.76096525000001,
            "velocity": 0.7874015748031497
          },
          {
            "duration": 0.1327432500000043,
            "durationTicks": 96,
            "midi": 54,
            "name": "F#3",
            "ticks": 82368,
            "time": 113.8937085,
            "velocity": 0.7874015748031497
          },
          {
            "duration": 0.1327432500000043,
            "durationTicks": 96,
            "midi": 49,
            "name": "C#3",
            "ticks": 82464,
            "time": 114.02645175,
            "velocity": 0.7874015748031497
          },
          {
            "duration": 0.1327432499999901,
            "durationTicks": 96,
            "midi": 44,
            "name": "G#2",
            "ticks": 82560,
            "time": 114.15919500000001,
            "velocity": 0.7874015748031497
          },
          {
            "duration": 0.1327432500000043,
            "durationTicks": 96,
            "midi": 47,
            "name": "B2",
            "ticks": 82752,
            "time": 114.4246815,
            "velocity": 0.7874015748031497
          },
          {
            "duration": 0.1327432500000043,
            "durationTicks": 96,
            "midi": 44,
            "name": "G#2",
            "ticks": 82944,
            "time": 114.690168,
            "velocity": 0.7874015748031497
          },
          {
            "duration": 0.1327432500000043,
            "durationTicks": 96,
            "midi": 51,
            "name": "D#3",
            "ticks": 83040,
            "time": 114.82291125,
            "velocity": 0.7874015748031497
          },
          {
            "duration": 0.1327432500000043,
            "durationTicks": 96,
            "midi": 56,
            "name": "G#3",
            "ticks": 83136,
            "time": 114.95565450000001,
            "velocity": 0.7874015748031497
          },
          {
            "duration": 0.1327432499999901,
            "durationTicks": 96,
            "midi": 51,
            "name": "D#3",
            "ticks": 83232,
            "time": 115.08839775000001,
            "velocity": 0.7874015748031497
          },
          {
            "duration": 0.1327432500000043,
            "durationTicks": 96,
            "midi": 44,
            "name": "G#2",
            "ticks": 83328,
            "time": 115.221141,
            "velocity": 0.7874015748031497
          },
          {
            "duration": 0.1327432500000043,
            "durationTicks": 96,
            "midi": 51,
            "name": "D#3",
            "ticks": 83424,
            "time": 115.35388425000001,
            "velocity": 0.7874015748031497
          },
          {
            "duration": 0.1327432499999901,
            "durationTicks": 96,
            "midi": 56,
            "name": "G#3",
            "ticks": 83520,
            "time": 115.48662750000001,
            "velocity": 0.7874015748031497
          },
          {
            "duration": 0.1327432500000043,
            "durationTicks": 96,
            "midi": 51,
            "name": "D#3",
            "ticks": 83616,
            "time": 115.61937075,
            "velocity": 0.7874015748031497
          },
          {
            "duration": 0.1327432500000043,
            "durationTicks": 96,
            "midi": 44,
            "name": "G#2",
            "ticks": 83712,
            "time": 115.752114,
            "velocity": 0.7874015748031497
          },
          {
            "duration": 0.1327432499999901,
            "durationTicks": 96,
            "midi": 51,
            "name": "D#3",
            "ticks": 83808,
            "time": 115.88485725000001,
            "velocity": 0.7874015748031497
          },
          {
            "duration": 0.1327432500000043,
            "durationTicks": 96,
            "midi": 56,
            "name": "G#3",
            "ticks": 83904,
            "time": 116.0176005,
            "velocity": 0.7874015748031497
          },
          {
            "duration": 0.1327432500000043,
            "durationTicks": 96,
            "midi": 51,
            "name": "D#3",
            "ticks": 84000,
            "time": 116.15034375,
            "velocity": 0.7874015748031497
          },
          {
            "duration": 0.1327432500000043,
            "durationTicks": 96,
            "midi": 47,
            "name": "B2",
            "ticks": 84096,
            "time": 116.28308700000001,
            "velocity": 0.7874015748031497
          },
          {
            "duration": 0.1327432500000043,
            "durationTicks": 96,
            "midi": 51,
            "name": "D#3",
            "ticks": 84288,
            "time": 116.5485735,
            "velocity": 0.7874015748031497
          },
          {
            "duration": 0.1327432499999901,
            "durationTicks": 96,
            "midi": 45,
            "name": "A2",
            "ticks": 84480,
            "time": 116.81406000000001,
            "velocity": 0.7874015748031497
          },
          {
            "duration": 0.1327432500000043,
            "durationTicks": 96,
            "midi": 52,
            "name": "E3",
            "ticks": 84576,
            "time": 116.94680325,
            "velocity": 0.7874015748031497
          },
          {
            "duration": 0.1327432500000043,
            "durationTicks": 96,
            "midi": 57,
            "name": "A3",
            "ticks": 84672,
            "time": 117.0795465,
            "velocity": 0.7874015748031497
          },
          {
            "duration": 0.1327432499999901,
            "durationTicks": 96,
            "midi": 52,
            "name": "E3",
            "ticks": 84768,
            "time": 117.21228975000001,
            "velocity": 0.7874015748031497
          },
          {
            "duration": 0.1327432500000043,
            "durationTicks": 96,
            "midi": 45,
            "name": "A2",
            "ticks": 84864,
            "time": 117.345033,
            "velocity": 0.7874015748031497
          },
          {
            "duration": 0.1327432500000043,
            "durationTicks": 96,
            "midi": 52,
            "name": "E3",
            "ticks": 84960,
            "time": 117.47777625,
            "velocity": 0.7874015748031497
          },
          {
            "duration": 0.1327432499999901,
            "durationTicks": 96,
            "midi": 57,
            "name": "A3",
            "ticks": 85056,
            "time": 117.61051950000001,
            "velocity": 0.7874015748031497
          },
          {
            "duration": 0.1327432500000043,
            "durationTicks": 96,
            "midi": 52,
            "name": "E3",
            "ticks": 85152,
            "time": 117.74326275,
            "velocity": 0.7874015748031497
          },
          {
            "duration": 0.1327432500000043,
            "durationTicks": 96,
            "midi": 45,
            "name": "A2",
            "ticks": 85248,
            "time": 117.876006,
            "velocity": 0.7874015748031497
          },
          {
            "duration": 0.1327432500000043,
            "durationTicks": 96,
            "midi": 52,
            "name": "E3",
            "ticks": 85344,
            "time": 118.00874925000001,
            "velocity": 0.7874015748031497
          },
          {
            "duration": 0.1327432499999901,
            "durationTicks": 96,
            "midi": 57,
            "name": "A3",
            "ticks": 85440,
            "time": 118.14149250000001,
            "velocity": 0.7874015748031497
          },
          {
            "duration": 0.1327432500000043,
            "durationTicks": 96,
            "midi": 52,
            "name": "E3",
            "ticks": 85536,
            "time": 118.27423575,
            "velocity": 0.7874015748031497
          },
          {
            "duration": 0.1327432500000043,
            "durationTicks": 96,
            "midi": 45,
            "name": "A2",
            "ticks": 85632,
            "time": 118.406979,
            "velocity": 0.7874015748031497
          },
          {
            "duration": 0.1327432499999901,
            "durationTicks": 96,
            "midi": 52,
            "name": "E3",
            "ticks": 85728,
            "time": 118.53972225000001,
            "velocity": 0.7874015748031497
          },
          {
            "duration": 0.1327432500000043,
            "durationTicks": 96,
            "midi": 57,
            "name": "A3",
            "ticks": 85824,
            "time": 118.6724655,
            "velocity": 0.7874015748031497
          },
          {
            "duration": 0.1327432500000043,
            "durationTicks": 96,
            "midi": 52,
            "name": "E3",
            "ticks": 85920,
            "time": 118.80520875,
            "velocity": 0.7874015748031497
          },
          {
            "duration": 0.1327432499999901,
            "durationTicks": 96,
            "midi": 44,
            "name": "G#2",
            "ticks": 86016,
            "time": 118.93795200000001,
            "velocity": 0.7874015748031497
          },
          {
            "duration": 0.1327432500000043,
            "durationTicks": 96,
            "midi": 51,
            "name": "D#3",
            "ticks": 86112,
            "time": 119.07069525,
            "velocity": 0.7874015748031497
          },
          {
            "duration": 0.1327432500000043,
            "durationTicks": 96,
            "midi": 56,
            "name": "G#3",
            "ticks": 86208,
            "time": 119.2034385,
            "velocity": 0.7874015748031497
          },
          {
            "duration": 0.1327432500000043,
            "durationTicks": 96,
            "midi": 51,
            "name": "D#3",
            "ticks": 86304,
            "time": 119.33618175000001,
            "velocity": 0.7874015748031497
          },
          {
            "duration": 0.1327432499999901,
            "durationTicks": 96,
            "midi": 44,
            "name": "G#2",
            "ticks": 86400,
            "time": 119.46892500000001,
            "velocity": 0.7874015748031497
          },
          {
            "duration": 0.1327432500000043,
            "durationTicks": 96,
            "midi": 51,
            "name": "D#3",
            "ticks": 86496,
            "time": 119.60166825,
            "velocity": 0.7874015748031497
          },
          {
            "duration": 0.1327432500000043,
            "durationTicks": 96,
            "midi": 56,
            "name": "G#3",
            "ticks": 86592,
            "time": 119.73441150000001,
            "velocity": 0.7874015748031497
          },
          {
            "duration": 0.1327432499999901,
            "durationTicks": 96,
            "midi": 51,
            "name": "D#3",
            "ticks": 86688,
            "time": 119.86715475000001,
            "velocity": 0.7874015748031497
          },
          {
            "duration": 0.1327432500000043,
            "durationTicks": 96,
            "midi": 47,
            "name": "B2",
            "ticks": 86784,
            "time": 119.999898,
            "velocity": 0.7874015748031497
          },
          {
            "duration": 0.1327432500000043,
            "durationTicks": 96,
            "midi": 51,
            "name": "D#3",
            "ticks": 87072,
            "time": 120.39812775,
            "velocity": 0.7874015748031497
          },
          {
            "duration": 0.2654864999999944,
            "durationTicks": 192,
            "midi": 56,
            "name": "G#3",
            "ticks": 87360,
            "time": 120.79635750000001,
            "velocity": 0.7874015748031497
          },
          {
            "duration": 0.1327432500000043,
            "durationTicks": 96,
            "midi": 42,
            "name": "F#2",
            "ticks": 87552,
            "time": 121.06184400000001,
            "velocity": 0.7874015748031497
          },
          {
            "duration": 0.1327432499999901,
            "durationTicks": 96,
            "midi": 49,
            "name": "C#3",
            "ticks": 87648,
            "time": 121.19458725000001,
            "velocity": 0.7874015748031497
          },
          {
            "duration": 0.1327432500000043,
            "durationTicks": 96,
            "midi": 54,
            "name": "F#3",
            "ticks": 87744,
            "time": 121.3273305,
            "velocity": 0.7874015748031497
          },
          {
            "duration": 0.1327432500000043,
            "durationTicks": 96,
            "midi": 49,
            "name": "C#3",
            "ticks": 87840,
            "time": 121.46007375,
            "velocity": 0.7874015748031497
          },
          {
            "duration": 0.1327432499999901,
            "durationTicks": 96,
            "midi": 42,
            "name": "F#2",
            "ticks": 87936,
            "time": 121.59281700000001,
            "velocity": 0.7874015748031497
          },
          {
            "duration": 0.1327432500000043,
            "durationTicks": 96,
            "midi": 49,
            "name": "C#3",
            "ticks": 88032,
            "time": 121.72556025,
            "velocity": 0.7874015748031497
          },
          {
            "duration": 0.1327432500000043,
            "durationTicks": 96,
            "midi": 54,
            "name": "F#3",
            "ticks": 88128,
            "time": 121.8583035,
            "velocity": 0.7874015748031497
          },
          {
            "duration": 0.1327432499999901,
            "durationTicks": 96,
            "midi": 49,
            "name": "C#3",
            "ticks": 88224,
            "time": 121.99104675000001,
            "velocity": 0.7874015748031497
          },
          {
            "duration": 0.1327432500000043,
            "durationTicks": 96,
            "midi": 42,
            "name": "F#2",
            "ticks": 88320,
            "time": 122.12379,
            "velocity": 0.7874015748031497
          },
          {
            "duration": 0.1327432500000043,
            "durationTicks": 96,
            "midi": 49,
            "name": "C#3",
            "ticks": 88416,
            "time": 122.25653325,
            "velocity": 0.7874015748031497
          },
          {
            "duration": 0.1327432500000043,
            "durationTicks": 96,
            "midi": 54,
            "name": "F#3",
            "ticks": 88512,
            "time": 122.38927650000001,
            "velocity": 0.7874015748031497
          },
          {
            "duration": 0.1327432499999901,
            "durationTicks": 96,
            "midi": 49,
            "name": "C#3",
            "ticks": 88608,
            "time": 122.52201975000001,
            "velocity": 0.7874015748031497
          },
          {
            "duration": 0.1327432500000043,
            "durationTicks": 96,
            "midi": 44,
            "name": "G#2",
            "ticks": 88704,
            "time": 122.654763,
            "velocity": 0.7874015748031497
          },
          {
            "duration": 0.1327432499999901,
            "durationTicks": 96,
            "midi": 47,
            "name": "B2",
            "ticks": 88896,
            "time": 122.92024950000001,
            "velocity": 0.7874015748031497
          },
          {
            "duration": 0.1327432500000043,
            "durationTicks": 96,
            "midi": 44,
            "name": "G#2",
            "ticks": 89088,
            "time": 123.185736,
            "velocity": 0.7874015748031497
          },
          {
            "duration": 0.1327432499999901,
            "durationTicks": 96,
            "midi": 51,
            "name": "D#3",
            "ticks": 89184,
            "time": 123.31847925000001,
            "velocity": 0.7874015748031497
          },
          {
            "duration": 0.1327432500000043,
            "durationTicks": 96,
            "midi": 56,
            "name": "G#3",
            "ticks": 89280,
            "time": 123.4512225,
            "velocity": 0.7874015748031497
          },
          {
            "duration": 0.1327432500000043,
            "durationTicks": 96,
            "midi": 51,
            "name": "D#3",
            "ticks": 89376,
            "time": 123.58396575,
            "velocity": 0.7874015748031497
          },
          {
            "duration": 0.1327432500000043,
            "durationTicks": 96,
            "midi": 44,
            "name": "G#2",
            "ticks": 89472,
            "time": 123.71670900000001,
            "velocity": 0.7874015748031497
          },
          {
            "duration": 0.1327432499999901,
            "durationTicks": 96,
            "midi": 51,
            "name": "D#3",
            "ticks": 89568,
            "time": 123.84945225000001,
            "velocity": 0.7874015748031497
          },
          {
            "duration": 0.1327432500000043,
            "durationTicks": 96,
            "midi": 56,
            "name": "G#3",
            "ticks": 89664,
            "time": 123.9821955,
            "velocity": 0.7874015748031497
          },
          {
            "duration": 0.1327432500000043,
            "durationTicks": 96,
            "midi": 51,
            "name": "D#3",
            "ticks": 89760,
            "time": 124.11493875000001,
            "velocity": 0.7874015748031497
          },
          {
            "duration": 0.1327432499999901,
            "durationTicks": 96,
            "midi": 44,
            "name": "G#2",
            "ticks": 89856,
            "time": 124.24768200000001,
            "velocity": 0.7874015748031497
          },
          {
            "duration": 0.1327432500000043,
            "durationTicks": 96,
            "midi": 51,
            "name": "D#3",
            "ticks": 89952,
            "time": 124.38042525,
            "velocity": 0.7874015748031497
          },
          {
            "duration": 0.1327432500000043,
            "durationTicks": 96,
            "midi": 56,
            "name": "G#3",
            "ticks": 90048,
            "time": 124.5131685,
            "velocity": 0.7874015748031497
          },
          {
            "duration": 0.1327432499999901,
            "durationTicks": 96,
            "midi": 51,
            "name": "D#3",
            "ticks": 90144,
            "time": 124.64591175000001,
            "velocity": 0.7874015748031497
          },
          {
            "duration": 0.1327432500000043,
            "durationTicks": 96,
            "midi": 47,
            "name": "B2",
            "ticks": 90240,
            "time": 124.778655,
            "velocity": 0.7874015748031497
          },
          {
            "duration": 0.1327432500000043,
            "durationTicks": 96,
            "midi": 51,
            "name": "D#3",
            "ticks": 90432,
            "time": 125.04414150000001,
            "velocity": 0.7874015748031497
          },
          {
            "duration": 0.1327432500000043,
            "durationTicks": 96,
            "midi": 45,
            "name": "A2",
            "ticks": 90624,
            "time": 125.309628,
            "velocity": 0.7874015748031497
          },
          {
            "duration": 0.1327432500000043,
            "durationTicks": 96,
            "midi": 52,
            "name": "E3",
            "ticks": 90720,
            "time": 125.44237125000001,
            "velocity": 0.7874015748031497
          },
          {
            "duration": 0.1327432499999901,
            "durationTicks": 96,
            "midi": 57,
            "name": "A3",
            "ticks": 90816,
            "time": 125.57511450000001,
            "velocity": 0.7874015748031497
          },
          {
            "duration": 0.1327432500000043,
            "durationTicks": 96,
            "midi": 52,
            "name": "E3",
            "ticks": 90912,
            "time": 125.70785775,
            "velocity": 0.7874015748031497
          },
          {
            "duration": 0.1327432500000043,
            "durationTicks": 96,
            "midi": 45,
            "name": "A2",
            "ticks": 91008,
            "time": 125.840601,
            "velocity": 0.7874015748031497
          },
          {
            "duration": 0.1327432499999901,
            "durationTicks": 96,
            "midi": 52,
            "name": "E3",
            "ticks": 91104,
            "time": 125.97334425000001,
            "velocity": 0.7874015748031497
          },
          {
            "duration": 0.1327432500000043,
            "durationTicks": 96,
            "midi": 57,
            "name": "A3",
            "ticks": 91200,
            "time": 126.1060875,
            "velocity": 0.7874015748031497
          },
          {
            "duration": 0.1327432500000043,
            "durationTicks": 96,
            "midi": 52,
            "name": "E3",
            "ticks": 91296,
            "time": 126.23883075,
            "velocity": 0.7874015748031497
          },
          {
            "duration": 0.1327432499999901,
            "durationTicks": 96,
            "midi": 45,
            "name": "A2",
            "ticks": 91392,
            "time": 126.37157400000001,
            "velocity": 0.7874015748031497
          },
          {
            "duration": 0.1327432500000043,
            "durationTicks": 96,
            "midi": 52,
            "name": "E3",
            "ticks": 91488,
            "time": 126.50431725,
            "velocity": 0.7874015748031497
          },
          {
            "duration": 0.1327432500000043,
            "durationTicks": 96,
            "midi": 57,
            "name": "A3",
            "ticks": 91584,
            "time": 126.6370605,
            "velocity": 0.7874015748031497
          },
          {
            "duration": 0.1327432500000043,
            "durationTicks": 96,
            "midi": 52,
            "name": "E3",
            "ticks": 91680,
            "time": 126.76980375000001,
            "velocity": 0.7874015748031497
          },
          {
            "duration": 0.1327432499999901,
            "durationTicks": 96,
            "midi": 45,
            "name": "A2",
            "ticks": 91776,
            "time": 126.90254700000001,
            "velocity": 0.7874015748031497
          },
          {
            "duration": 0.1327432500000043,
            "durationTicks": 96,
            "midi": 52,
            "name": "E3",
            "ticks": 91872,
            "time": 127.03529025,
            "velocity": 0.7874015748031497
          },
          {
            "duration": 0.1327432500000043,
            "durationTicks": 96,
            "midi": 57,
            "name": "A3",
            "ticks": 91968,
            "time": 127.1680335,
            "velocity": 0.7874015748031497
          },
          {
            "duration": 0.1327432499999901,
            "durationTicks": 96,
            "midi": 52,
            "name": "E3",
            "ticks": 92064,
            "time": 127.30077675000001,
            "velocity": 0.7874015748031497
          },
          {
            "duration": 0.929202750000016,
            "durationTicks": 672,
            "midi": 44,
            "name": "G#2",
            "ticks": 92160,
            "time": 127.43352,
            "velocity": 0.7874015748031497
          },
          {
            "duration": 0.1327432500000043,
            "durationTicks": 96,
            "midi": 47,
            "name": "B2",
            "ticks": 92928,
            "time": 128.495466,
            "velocity": 0.7874015748031497
          },
          {
            "duration": 0.1327432500000043,
            "durationTicks": 96,
            "midi": 51,
            "name": "D#3",
            "ticks": 93216,
            "time": 128.89369575,
            "velocity": 0.7874015748031497
          },
          {
            "duration": 0.2654864999999802,
            "durationTicks": 192,
            "midi": 54,
            "name": "F#3",
            "ticks": 93504,
            "time": 129.29192550000002,
            "velocity": 0.7874015748031497
          },
          {
            "duration": 0.1327432500000043,
            "durationTicks": 96,
            "midi": 51,
            "name": "D#3",
            "ticks": 105984,
            "time": 146.548548,
            "velocity": 0.7874015748031497
          },
          {
            "duration": 0.1327432500000043,
            "durationTicks": 96,
            "midi": 45,
            "name": "A2",
            "ticks": 106080,
            "time": 146.68129125000002,
            "velocity": 0.7874015748031497
          },
          {
            "duration": 0.1327432499999759,
            "durationTicks": 96,
            "midi": 51,
            "name": "D#3",
            "ticks": 106176,
            "time": 146.81403450000002,
            "velocity": 0.7874015748031497
          },
          {
            "duration": 0.2654865000000086,
            "durationTicks": 192,
            "midi": 52,
            "name": "E3",
            "ticks": 106272,
            "time": 146.94677775,
            "velocity": 0.7874015748031497
          },
          {
            "duration": 0.1327432500000043,
            "durationTicks": 96,
            "midi": 51,
            "name": "D#3",
            "ticks": 106464,
            "time": 147.21226425,
            "velocity": 0.7874015748031497
          },
          {
            "duration": 0.1327432500000043,
            "durationTicks": 96,
            "midi": 47,
            "name": "B2",
            "ticks": 106560,
            "time": 147.3450075,
            "velocity": 0.7874015748031497
          },
          {
            "duration": 0.1327432500000043,
            "durationTicks": 96,
            "midi": 51,
            "name": "D#3",
            "ticks": 106656,
            "time": 147.47775075,
            "velocity": 0.7874015748031497
          },
          {
            "duration": 0.1327432500000043,
            "durationTicks": 96,
            "midi": 49,
            "name": "C#3",
            "ticks": 106752,
            "time": 147.61049400000002,
            "velocity": 0.7874015748031497
          },
          {
            "duration": 0.1327432499999759,
            "durationTicks": 96,
            "midi": 61,
            "name": "C#4",
            "ticks": 106848,
            "time": 147.74323725000002,
            "velocity": 0.7874015748031497
          },
          {
            "duration": 0.1327432500000043,
            "durationTicks": 96,
            "midi": 44,
            "name": "G#2",
            "ticks": 106944,
            "time": 147.8759805,
            "velocity": 0.7874015748031497
          },
          {
            "duration": 0.1327432500000043,
            "durationTicks": 96,
            "midi": 56,
            "name": "G#3",
            "ticks": 107040,
            "time": 148.00872375,
            "velocity": 0.7874015748031497
          },
          {
            "duration": 0.1327432500000043,
            "durationTicks": 96,
            "midi": 40,
            "name": "E2",
            "ticks": 107136,
            "time": 148.141467,
            "velocity": 0.7874015748031497
          },
          {
            "duration": 0.1327432500000043,
            "durationTicks": 96,
            "midi": 52,
            "name": "E3",
            "ticks": 107232,
            "time": 148.27421025,
            "velocity": 0.7874015748031497
          },
          {
            "duration": 0.1327432500000043,
            "durationTicks": 96,
            "midi": 44,
            "name": "G#2",
            "ticks": 107328,
            "time": 148.40695350000001,
            "velocity": 0.7874015748031497
          },
          {
            "duration": 0.1327432499999759,
            "durationTicks": 96,
            "midi": 56,
            "name": "G#3",
            "ticks": 107424,
            "time": 148.53969675000002,
            "velocity": 0.7874015748031497
          },
          {
            "duration": 0.1327432500000043,
            "durationTicks": 96,
            "midi": 51,
            "name": "D#3",
            "ticks": 107520,
            "time": 148.67244,
            "velocity": 0.7874015748031497
          },
          {
            "duration": 0.1327432500000043,
            "durationTicks": 96,
            "midi": 45,
            "name": "A2",
            "ticks": 107616,
            "time": 148.80518325,
            "velocity": 0.7874015748031497
          },
          {
            "duration": 0.1327432500000043,
            "durationTicks": 96,
            "midi": 51,
            "name": "D#3",
            "ticks": 107712,
            "time": 148.9379265,
            "velocity": 0.7874015748031497
          },
          {
            "duration": 0.2654865000000086,
            "durationTicks": 192,
            "midi": 52,
            "name": "E3",
            "ticks": 107808,
            "time": 149.07066975,
            "velocity": 0.7874015748031497
          },
          {
            "duration": 0.1327432500000043,
            "durationTicks": 96,
            "midi": 51,
            "name": "D#3",
            "ticks": 108000,
            "time": 149.33615625000002,
            "velocity": 0.7874015748031497
          },
          {
            "duration": 0.1327432499999759,
            "durationTicks": 96,
            "midi": 47,
            "name": "B2",
            "ticks": 108096,
            "time": 149.46889950000002,
            "velocity": 0.7874015748031497
          },
          {
            "duration": 0.1327432500000043,
            "durationTicks": 96,
            "midi": 63,
            "name": "D#4",
            "ticks": 108192,
            "time": 149.60164275,
            "velocity": 0.7874015748031497
          },
          {
            "duration": 0.1327432500000043,
            "durationTicks": 96,
            "midi": 49,
            "name": "C#3",
            "ticks": 108288,
            "time": 149.734386,
            "velocity": 0.7874015748031497
          },
          {
            "duration": 0.1327432500000043,
            "durationTicks": 96,
            "midi": 61,
            "name": "C#4",
            "ticks": 108384,
            "time": 149.86712925,
            "velocity": 0.7874015748031497
          },
          {
            "duration": 0.1327432500000043,
            "durationTicks": 96,
            "midi": 51,
            "name": "D#3",
            "ticks": 108480,
            "time": 149.9998725,
            "velocity": 0.7874015748031497
          },
          {
            "duration": 0.1327432500000043,
            "durationTicks": 96,
            "midi": 63,
            "name": "D#4",
            "ticks": 108576,
            "time": 150.13261575,
            "velocity": 0.7874015748031497
          },
          {
            "duration": 0.1327432500000043,
            "durationTicks": 96,
            "midi": 52,
            "name": "E3",
            "ticks": 108672,
            "time": 150.26535900000002,
            "velocity": 0.7874015748031497
          },
          {
            "duration": 0.1327432499999759,
            "durationTicks": 96,
            "midi": 64,
            "name": "E4",
            "ticks": 108768,
            "time": 150.39810225000002,
            "velocity": 0.7874015748031497
          },
          {
            "duration": 0.1327432500000043,
            "durationTicks": 96,
            "midi": 59,
            "name": "B3",
            "ticks": 108864,
            "time": 150.5308455,
            "velocity": 0.7874015748031497
          },
          {
            "duration": 0.1327432500000043,
            "durationTicks": 96,
            "midi": 52,
            "name": "E3",
            "ticks": 108960,
            "time": 150.66358875,
            "velocity": 0.7874015748031497
          },
          {
            "duration": 0.1327432500000043,
            "durationTicks": 96,
            "midi": 54,
            "name": "F#3",
            "ticks": 109056,
            "time": 150.796332,
            "velocity": 0.7874015748031497
          },
          {
            "duration": 0.1327432500000043,
            "durationTicks": 96,
            "midi": 49,
            "name": "C#3",
            "ticks": 109152,
            "time": 150.92907525,
            "velocity": 0.7874015748031497
          },
          {
            "duration": 0.1327432500000043,
            "durationTicks": 96,
            "midi": 54,
            "name": "F#3",
            "ticks": 109248,
            "time": 151.06181850000002,
            "velocity": 0.7874015748031497
          },
          {
            "duration": 0.2654864999999802,
            "durationTicks": 192,
            "midi": 59,
            "name": "B3",
            "ticks": 109344,
            "time": 151.19456175000002,
            "velocity": 0.7874015748031497
          },
          {
            "duration": 0.1327432500000043,
            "durationTicks": 96,
            "midi": 58,
            "name": "A#3",
            "ticks": 109536,
            "time": 151.46004825,
            "velocity": 0.7874015748031497
          },
          {
            "duration": 0.1327432500000043,
            "durationTicks": 96,
            "midi": 54,
            "name": "F#3",
            "ticks": 109632,
            "time": 151.5927915,
            "velocity": 0.7874015748031497
          },
          {
            "duration": 0.1327432500000043,
            "durationTicks": 96,
            "midi": 52,
            "name": "E3",
            "ticks": 109728,
            "time": 151.72553475,
            "velocity": 0.7874015748031497
          },
          {
            "duration": 0.1327432500000043,
            "durationTicks": 96,
            "midi": 49,
            "name": "C#3",
            "ticks": 109824,
            "time": 151.858278,
            "velocity": 0.7874015748031497
          },
          {
            "duration": 0.1327432500000043,
            "durationTicks": 96,
            "midi": 44,
            "name": "G#2",
            "ticks": 109920,
            "time": 151.99102125000002,
            "velocity": 0.7874015748031497
          },
          {
            "duration": 0.1327432499999759,
            "durationTicks": 96,
            "midi": 51,
            "name": "D#3",
            "ticks": 110016,
            "time": 152.12376450000002,
            "velocity": 0.7874015748031497
          },
          {
            "duration": 0.1327432500000043,
            "durationTicks": 96,
            "midi": 44,
            "name": "G#2",
            "ticks": 110112,
            "time": 152.25650775,
            "velocity": 0.7874015748031497
          },
          {
            "duration": 0.1327432500000043,
            "durationTicks": 96,
            "midi": 52,
            "name": "E3",
            "ticks": 110208,
            "time": 152.389251,
            "velocity": 0.7874015748031497
          },
          {
            "duration": 0.1327432500000043,
            "durationTicks": 96,
            "midi": 44,
            "name": "G#2",
            "ticks": 110304,
            "time": 152.52199425,
            "velocity": 0.7874015748031497
          },
          {
            "duration": 0.1327432500000043,
            "durationTicks": 96,
            "midi": 54,
            "name": "F#3",
            "ticks": 110400,
            "time": 152.6547375,
            "velocity": 0.7874015748031497
          },
          {
            "duration": 0.1327432500000043,
            "durationTicks": 96,
            "midi": 44,
            "name": "G#2",
            "ticks": 110496,
            "time": 152.78748075000001,
            "velocity": 0.7874015748031497
          },
          {
            "duration": 0.1327432499999759,
            "durationTicks": 96,
            "midi": 45,
            "name": "A2",
            "ticks": 110592,
            "time": 152.92022400000002,
            "velocity": 0.7874015748031497
          },
          {
            "duration": 0.1327432500000043,
            "durationTicks": 96,
            "midi": 49,
            "name": "C#3",
            "ticks": 110688,
            "time": 153.05296725,
            "velocity": 0.7874015748031497
          },
          {
            "duration": 0.1327432500000043,
            "durationTicks": 96,
            "midi": 52,
            "name": "E3",
            "ticks": 110784,
            "time": 153.1857105,
            "velocity": 0.7874015748031497
          },
          {
            "duration": 0.2654865000000086,
            "durationTicks": 192,
            "midi": 57,
            "name": "A3",
            "ticks": 110880,
            "time": 153.31845375,
            "velocity": 0.7874015748031497
          },
          {
            "duration": 0.1327432500000043,
            "durationTicks": 96,
            "midi": 56,
            "name": "G#3",
            "ticks": 111072,
            "time": 153.58394025,
            "velocity": 0.7874015748031497
          },
          {
            "duration": 0.1327432500000043,
            "durationTicks": 96,
            "midi": 52,
            "name": "E3",
            "ticks": 111168,
            "time": 153.71668350000002,
            "velocity": 0.7874015748031497
          },
          {
            "duration": 0.1327432499999759,
            "durationTicks": 96,
            "midi": 49,
            "name": "C#3",
            "ticks": 111264,
            "time": 153.84942675000002,
            "velocity": 0.7874015748031497
          },
          {
            "duration": 0.1327432500000043,
            "durationTicks": 96,
            "midi": 49,
            "name": "C#3",
            "ticks": 111360,
            "time": 153.98217,
            "velocity": 0.7874015748031497
          },
          {
            "duration": 0.1327432500000043,
            "durationTicks": 96,
            "midi": 56,
            "name": "G#3",
            "ticks": 111552,
            "time": 154.2476565,
            "velocity": 0.7874015748031497
          },
          {
            "duration": 0.1327432500000043,
            "durationTicks": 96,
            "midi": 51,
            "name": "D#3",
            "ticks": 111744,
            "time": 154.513143,
            "velocity": 0.7874015748031497
          },
          {
            "duration": 0.1327432499999759,
            "durationTicks": 96,
            "midi": 56,
            "name": "G#3",
            "ticks": 111936,
            "time": 154.77862950000002,
            "velocity": 0.7874015748031497
          },
          {
            "duration": 0.1327432500000043,
            "durationTicks": 96,
            "midi": 51,
            "name": "D#3",
            "ticks": 112128,
            "time": 155.044116,
            "velocity": 0.7874015748031497
          },
          {
            "duration": 0.1327432500000043,
            "durationTicks": 96,
            "midi": 45,
            "name": "A2",
            "ticks": 112224,
            "time": 155.17685925,
            "velocity": 0.7874015748031497
          },
          {
            "duration": 0.1327432500000043,
            "durationTicks": 96,
            "midi": 51,
            "name": "D#3",
            "ticks": 112320,
            "time": 155.3096025,
            "velocity": 0.7874015748031497
          },
          {
            "duration": 0.2654864999999802,
            "durationTicks": 192,
            "midi": 52,
            "name": "E3",
            "ticks": 112416,
            "time": 155.44234575000002,
            "velocity": 0.7874015748031497
          },
          {
            "duration": 0.1327432500000043,
            "durationTicks": 96,
            "midi": 51,
            "name": "D#3",
            "ticks": 112608,
            "time": 155.70783225,
            "velocity": 0.7874015748031497
          },
          {
            "duration": 0.1327432500000043,
            "durationTicks": 96,
            "midi": 47,
            "name": "B2",
            "ticks": 112704,
            "time": 155.8405755,
            "velocity": 0.7874015748031497
          },
          {
            "duration": 0.1327432500000043,
            "durationTicks": 96,
            "midi": 51,
            "name": "D#3",
            "ticks": 112800,
            "time": 155.97331875,
            "velocity": 0.7874015748031497
          },
          {
            "duration": 0.1327432500000043,
            "durationTicks": 96,
            "midi": 49,
            "name": "C#3",
            "ticks": 112896,
            "time": 156.106062,
            "velocity": 0.7874015748031497
          },
          {
            "duration": 0.1327432500000043,
            "durationTicks": 96,
            "midi": 61,
            "name": "C#4",
            "ticks": 112992,
            "time": 156.23880525,
            "velocity": 0.7874015748031497
          },
          {
            "duration": 0.1327432500000043,
            "durationTicks": 96,
            "midi": 44,
            "name": "G#2",
            "ticks": 113088,
            "time": 156.37154850000002,
            "velocity": 0.7874015748031497
          },
          {
            "duration": 0.1327432499999759,
            "durationTicks": 96,
            "midi": 56,
            "name": "G#3",
            "ticks": 113184,
            "time": 156.50429175000002,
            "velocity": 0.7874015748031497
          },
          {
            "duration": 0.1327432500000043,
            "durationTicks": 96,
            "midi": 40,
            "name": "E2",
            "ticks": 113280,
            "time": 156.637035,
            "velocity": 0.7874015748031497
          },
          {
            "duration": 0.1327432500000043,
            "durationTicks": 96,
            "midi": 52,
            "name": "E3",
            "ticks": 113376,
            "time": 156.76977825,
            "velocity": 0.7874015748031497
          },
          {
            "duration": 0.1327432500000043,
            "durationTicks": 96,
            "midi": 44,
            "name": "G#2",
            "ticks": 113472,
            "time": 156.9025215,
            "velocity": 0.7874015748031497
          },
          {
            "duration": 0.1327432500000043,
            "durationTicks": 96,
            "midi": 56,
            "name": "G#3",
            "ticks": 113568,
            "time": 157.03526475,
            "velocity": 0.7874015748031497
          },
          {
            "duration": 0.1327432500000043,
            "durationTicks": 96,
            "midi": 51,
            "name": "D#3",
            "ticks": 113664,
            "time": 157.16800800000001,
            "velocity": 0.7874015748031497
          },
          {
            "duration": 0.1327432499999759,
            "durationTicks": 96,
            "midi": 45,
            "name": "A2",
            "ticks": 113760,
            "time": 157.30075125000002,
            "velocity": 0.7874015748031497
          },
          {
            "duration": 0.1327432500000043,
            "durationTicks": 96,
            "midi": 51,
            "name": "D#3",
            "ticks": 113856,
            "time": 157.4334945,
            "velocity": 0.7874015748031497
          },
          {
            "duration": 0.2654865000000086,
            "durationTicks": 192,
            "midi": 52,
            "name": "E3",
            "ticks": 113952,
            "time": 157.56623775,
            "velocity": 0.7874015748031497
          },
          {
            "duration": 0.1327432500000043,
            "durationTicks": 96,
            "midi": 51,
            "name": "D#3",
            "ticks": 114144,
            "time": 157.83172425,
            "velocity": 0.7874015748031497
          },
          {
            "duration": 0.1327432500000043,
            "durationTicks": 96,
            "midi": 47,
            "name": "B2",
            "ticks": 114240,
            "time": 157.9644675,
            "velocity": 0.7874015748031497
          },
          {
            "duration": 0.1327432500000043,
            "durationTicks": 96,
            "midi": 63,
            "name": "D#4",
            "ticks": 114336,
            "time": 158.09721075000002,
            "velocity": 0.7874015748031497
          },
          {
            "duration": 0.1327432499999759,
            "durationTicks": 96,
            "midi": 49,
            "name": "C#3",
            "ticks": 114432,
            "time": 158.22995400000002,
            "velocity": 0.7874015748031497
          },
          {
            "duration": 0.1327432500000043,
            "durationTicks": 96,
            "midi": 61,
            "name": "C#4",
            "ticks": 114528,
            "time": 158.36269725,
            "velocity": 0.7874015748031497
          },
          {
            "duration": 0.1327432500000043,
            "durationTicks": 96,
            "midi": 51,
            "name": "D#3",
            "ticks": 114624,
            "time": 158.4954405,
            "velocity": 0.7874015748031497
          },
          {
            "duration": 0.1327432500000043,
            "durationTicks": 96,
            "midi": 63,
            "name": "D#4",
            "ticks": 114720,
            "time": 158.62818375,
            "velocity": 0.7874015748031497
          },
          {
            "duration": 0.1327432500000043,
            "durationTicks": 96,
            "midi": 52,
            "name": "E3",
            "ticks": 114816,
            "time": 158.760927,
            "velocity": 0.7874015748031497
          },
          {
            "duration": 0.1327432500000043,
            "durationTicks": 96,
            "midi": 64,
            "name": "E4",
            "ticks": 114912,
            "time": 158.89367025,
            "velocity": 0.7874015748031497
          },
          {
            "duration": 0.1327432500000043,
            "durationTicks": 96,
            "midi": 59,
            "name": "B3",
            "ticks": 115008,
            "time": 159.02641350000002,
            "velocity": 0.7874015748031497
          },
          {
            "duration": 0.1327432499999759,
            "durationTicks": 96,
            "midi": 52,
            "name": "E3",
            "ticks": 115104,
            "time": 159.15915675000002,
            "velocity": 0.7874015748031497
          },
          {
            "duration": 0.1327432500000043,
            "durationTicks": 96,
            "midi": 54,
            "name": "F#3",
            "ticks": 115200,
            "time": 159.2919,
            "velocity": 0.7874015748031497
          },
          {
            "duration": 0.1327432500000043,
            "durationTicks": 96,
            "midi": 49,
            "name": "C#3",
            "ticks": 115296,
            "time": 159.42464325,
            "velocity": 0.7874015748031497
          },
          {
            "duration": 0.1327432500000043,
            "durationTicks": 96,
            "midi": 54,
            "name": "F#3",
            "ticks": 115392,
            "time": 159.5573865,
            "velocity": 0.7874015748031497
          },
          {
            "duration": 0.2654865000000086,
            "durationTicks": 192,
            "midi": 59,
            "name": "B3",
            "ticks": 115488,
            "time": 159.69012975,
            "velocity": 0.7874015748031497
          },
          {
            "duration": 0.1327432499999759,
            "durationTicks": 96,
            "midi": 58,
            "name": "A#3",
            "ticks": 115680,
            "time": 159.95561625000002,
            "velocity": 0.7874015748031497
          },
          {
            "duration": 0.1327432500000043,
            "durationTicks": 96,
            "midi": 54,
            "name": "F#3",
            "ticks": 115776,
            "time": 160.0883595,
            "velocity": 0.7874015748031497
          },
          {
            "duration": 0.1327432500000043,
            "durationTicks": 96,
            "midi": 52,
            "name": "E3",
            "ticks": 115872,
            "time": 160.22110275,
            "velocity": 0.7874015748031497
          },
          {
            "duration": 0.1327432500000043,
            "durationTicks": 96,
            "midi": 49,
            "name": "C#3",
            "ticks": 115968,
            "time": 160.353846,
            "velocity": 0.7874015748031497
          },
          {
            "duration": 0.1327432500000043,
            "durationTicks": 96,
            "midi": 44,
            "name": "G#2",
            "ticks": 116064,
            "time": 160.48658925,
            "velocity": 0.7874015748031497
          },
          {
            "duration": 0.1327432500000043,
            "durationTicks": 96,
            "midi": 51,
            "name": "D#3",
            "ticks": 116160,
            "time": 160.6193325,
            "velocity": 0.7874015748031497
          },
          {
            "duration": 0.1327432500000043,
            "durationTicks": 96,
            "midi": 44,
            "name": "G#2",
            "ticks": 116256,
            "time": 160.75207575000002,
            "velocity": 0.7874015748031497
          },
          {
            "duration": 0.1327432499999759,
            "durationTicks": 96,
            "midi": 52,
            "name": "E3",
            "ticks": 116352,
            "time": 160.88481900000002,
            "velocity": 0.7874015748031497
          },
          {
            "duration": 0.1327432500000043,
            "durationTicks": 96,
            "midi": 44,
            "name": "G#2",
            "ticks": 116448,
            "time": 161.01756225,
            "velocity": 0.7874015748031497
          },
          {
            "duration": 0.1327432500000043,
            "durationTicks": 96,
            "midi": 54,
            "name": "F#3",
            "ticks": 116544,
            "time": 161.1503055,
            "velocity": 0.7874015748031497
          },
          {
            "duration": 0.1327432500000043,
            "durationTicks": 96,
            "midi": 44,
            "name": "G#2",
            "ticks": 116640,
            "time": 161.28304875,
            "velocity": 0.7874015748031497
          },
          {
            "duration": 0.1327432500000043,
            "durationTicks": 96,
            "midi": 45,
            "name": "A2",
            "ticks": 116736,
            "time": 161.415792,
            "velocity": 0.7874015748031497
          },
          {
            "duration": 0.1327432500000043,
            "durationTicks": 96,
            "midi": 49,
            "name": "C#3",
            "ticks": 116832,
            "time": 161.54853525000001,
            "velocity": 0.7874015748031497
          },
          {
            "duration": 0.1327432499999759,
            "durationTicks": 96,
            "midi": 52,
            "name": "E3",
            "ticks": 116928,
            "time": 161.68127850000002,
            "velocity": 0.7874015748031497
          },
          {
            "duration": 0.2654865000000086,
            "durationTicks": 192,
            "midi": 57,
            "name": "A3",
            "ticks": 117024,
            "time": 161.81402175,
            "velocity": 0.7874015748031497
          },
          {
            "duration": 0.1327432500000043,
            "durationTicks": 96,
            "midi": 56,
            "name": "G#3",
            "ticks": 117216,
            "time": 162.07950825,
            "velocity": 0.7874015748031497
          },
          {
            "duration": 0.1327432500000043,
            "durationTicks": 96,
            "midi": 52,
            "name": "E3",
            "ticks": 117312,
            "time": 162.2122515,
            "velocity": 0.7874015748031497
          },
          {
            "duration": 0.1327432500000043,
            "durationTicks": 96,
            "midi": 49,
            "name": "C#3",
            "ticks": 117408,
            "time": 162.34499475,
            "velocity": 0.7874015748031497
          },
          {
            "duration": 0.1327432500000043,
            "durationTicks": 96,
            "midi": 45,
            "name": "A2",
            "ticks": 117504,
            "time": 162.47773800000002,
            "velocity": 0.7874015748031497
          },
          {
            "duration": 0.1327432499999759,
            "durationTicks": 96,
            "midi": 49,
            "name": "C#3",
            "ticks": 117600,
            "time": 162.61048125000002,
            "velocity": 0.7874015748031497
          },
          {
            "duration": 0.1327432500000043,
            "durationTicks": 96,
            "midi": 52,
            "name": "E3",
            "ticks": 117696,
            "time": 162.7432245,
            "velocity": 0.7874015748031497
          },
          {
            "duration": 0.2654865000000086,
            "durationTicks": 192,
            "midi": 57,
            "name": "A3",
            "ticks": 117792,
            "time": 162.87596775,
            "velocity": 0.7874015748031497
          },
          {
            "duration": 0.1327432500000043,
            "durationTicks": 96,
            "midi": 56,
            "name": "G#3",
            "ticks": 117984,
            "time": 163.14145425,
            "velocity": 0.7874015748031497
          },
          {
            "duration": 0.1327432500000043,
            "durationTicks": 96,
            "midi": 52,
            "name": "E3",
            "ticks": 118080,
            "time": 163.2741975,
            "velocity": 0.7874015748031497
          },
          {
            "duration": 0.1327432500000043,
            "durationTicks": 96,
            "midi": 49,
            "name": "C#3",
            "ticks": 118176,
            "time": 163.40694075000002,
            "velocity": 0.7874015748031497
          },
          {
            "duration": 0.1327432499999759,
            "durationTicks": 96,
            "midi": 47,
            "name": "B2",
            "ticks": 118272,
            "time": 163.53968400000002,
            "velocity": 0.7874015748031497
          },
          {
            "duration": 0.1327432500000043,
            "durationTicks": 96,
            "midi": 51,
            "name": "D#3",
            "ticks": 118368,
            "time": 163.67242725,
            "velocity": 0.7874015748031497
          },
          {
            "duration": 0.1327432500000043,
            "durationTicks": 96,
            "midi": 54,
            "name": "F#3",
            "ticks": 118464,
            "time": 163.8051705,
            "velocity": 0.7874015748031497
          },
          {
            "duration": 0.2654865000000086,
            "durationTicks": 192,
            "midi": 59,
            "name": "B3",
            "ticks": 118560,
            "time": 163.93791375,
            "velocity": 0.7874015748031497
          },
          {
            "duration": 0.1327432500000043,
            "durationTicks": 96,
            "midi": 54,
            "name": "F#3",
            "ticks": 118752,
            "time": 164.20340025000002,
            "velocity": 0.7874015748031497
          },
          {
            "duration": 0.1327432499999759,
            "durationTicks": 96,
            "midi": 51,
            "name": "D#3",
            "ticks": 118848,
            "time": 164.33614350000002,
            "velocity": 0.7874015748031497
          },
          {
            "duration": 0.1327432500000043,
            "durationTicks": 96,
            "midi": 49,
            "name": "C#3",
            "ticks": 118944,
            "time": 164.46888675,
            "velocity": 0.7874015748031497
          },
          {
            "duration": 0.1327432500000043,
            "durationTicks": 96,
            "midi": 47,
            "name": "B2",
            "ticks": 119040,
            "time": 164.60163,
            "velocity": 0.7874015748031497
          },
          {
            "duration": 0.1327432500000043,
            "durationTicks": 96,
            "midi": 51,
            "name": "D#3",
            "ticks": 119136,
            "time": 164.73437325,
            "velocity": 0.7874015748031497
          },
          {
            "duration": 0.1327432500000043,
            "durationTicks": 96,
            "midi": 54,
            "name": "F#3",
            "ticks": 119232,
            "time": 164.8671165,
            "velocity": 0.7874015748031497
          },
          {
            "duration": 0.2654865000000086,
            "durationTicks": 192,
            "midi": 59,
            "name": "B3",
            "ticks": 119328,
            "time": 164.99985975,
            "velocity": 0.7874015748031497
          },
          {
            "duration": 0.1327432499999759,
            "durationTicks": 96,
            "midi": 54,
            "name": "F#3",
            "ticks": 119520,
            "time": 165.26534625000002,
            "velocity": 0.7874015748031497
          },
          {
            "duration": 0.1327432500000043,
            "durationTicks": 96,
            "midi": 51,
            "name": "D#3",
            "ticks": 119616,
            "time": 165.3980895,
            "velocity": 0.7874015748031497
          },
          {
            "duration": 0.1327432500000043,
            "durationTicks": 96,
            "midi": 47,
            "name": "B2",
            "ticks": 119712,
            "time": 165.53083275,
            "velocity": 0.7874015748031497
          },
          {
            "duration": 0.1327432500000043,
            "durationTicks": 96,
            "midi": 45,
            "name": "A2",
            "ticks": 119808,
            "time": 165.663576,
            "velocity": 0.7874015748031497
          },
          {
            "duration": 0.1327432500000043,
            "durationTicks": 96,
            "midi": 49,
            "name": "C#3",
            "ticks": 119904,
            "time": 165.79631925,
            "velocity": 0.7874015748031497
          },
          {
            "duration": 0.1327432500000043,
            "durationTicks": 96,
            "midi": 52,
            "name": "E3",
            "ticks": 120000,
            "time": 165.92906250000001,
            "velocity": 0.7874015748031497
          },
          {
            "duration": 0.2654864999999802,
            "durationTicks": 192,
            "midi": 57,
            "name": "A3",
            "ticks": 120096,
            "time": 166.06180575000002,
            "velocity": 0.7874015748031497
          },
          {
            "duration": 0.1327432500000043,
            "durationTicks": 96,
            "midi": 56,
            "name": "G#3",
            "ticks": 120288,
            "time": 166.32729225,
            "velocity": 0.7874015748031497
          },
          {
            "duration": 0.1327432500000043,
            "durationTicks": 96,
            "midi": 52,
            "name": "E3",
            "ticks": 120384,
            "time": 166.4600355,
            "velocity": 0.7874015748031497
          },
          {
            "duration": 0.1327432500000043,
            "durationTicks": 96,
            "midi": 49,
            "name": "C#3",
            "ticks": 120480,
            "time": 166.59277875,
            "velocity": 0.7874015748031497
          },
          {
            "duration": 0.1327432500000043,
            "durationTicks": 96,
            "midi": 45,
            "name": "A2",
            "ticks": 120576,
            "time": 166.725522,
            "velocity": 0.7874015748031497
          },
          {
            "duration": 0.1327432500000043,
            "durationTicks": 96,
            "midi": 49,
            "name": "C#3",
            "ticks": 120672,
            "time": 166.85826525000002,
            "velocity": 0.7874015748031497
          },
          {
            "duration": 0.1327432499999759,
            "durationTicks": 96,
            "midi": 52,
            "name": "E3",
            "ticks": 120768,
            "time": 166.99100850000002,
            "velocity": 0.7874015748031497
          },
          {
            "duration": 0.2654865000000086,
            "durationTicks": 192,
            "midi": 57,
            "name": "A3",
            "ticks": 120864,
            "time": 167.12375175,
            "velocity": 0.7874015748031497
          },
          {
            "duration": 0.1327432500000043,
            "durationTicks": 96,
            "midi": 56,
            "name": "G#3",
            "ticks": 121056,
            "time": 167.38923825,
            "velocity": 0.7874015748031497
          },
          {
            "duration": 0.1327432500000043,
            "durationTicks": 96,
            "midi": 52,
            "name": "E3",
            "ticks": 121152,
            "time": 167.5219815,
            "velocity": 0.7874015748031497
          },
          {
            "duration": 0.1327432500000043,
            "durationTicks": 96,
            "midi": 49,
            "name": "C#3",
            "ticks": 121248,
            "time": 167.65472475,
            "velocity": 0.7874015748031497
          },
          {
            "duration": 0.1327432500000043,
            "durationTicks": 96,
            "midi": 47,
            "name": "B2",
            "ticks": 121344,
            "time": 167.78746800000002,
            "velocity": 0.7874015748031497
          },
          {
            "duration": 0.1327432499999759,
            "durationTicks": 96,
            "midi": 51,
            "name": "D#3",
            "ticks": 121440,
            "time": 167.92021125000002,
            "velocity": 0.7874015748031497
          },
          {
            "duration": 0.1327432500000043,
            "durationTicks": 96,
            "midi": 54,
            "name": "F#3",
            "ticks": 121536,
            "time": 168.0529545,
            "velocity": 0.7874015748031497
          },
          {
            "duration": 0.2654865000000086,
            "durationTicks": 192,
            "midi": 59,
            "name": "B3",
            "ticks": 121632,
            "time": 168.18569775,
            "velocity": 0.7874015748031497
          },
          {
            "duration": 0.1327432500000043,
            "durationTicks": 96,
            "midi": 54,
            "name": "F#3",
            "ticks": 121824,
            "time": 168.45118425,
            "velocity": 0.7874015748031497
          },
          {
            "duration": 0.1327432500000043,
            "durationTicks": 96,
            "midi": 51,
            "name": "D#3",
            "ticks": 121920,
            "time": 168.58392750000002,
            "velocity": 0.7874015748031497
          },
          {
            "duration": 0.1327432499999759,
            "durationTicks": 96,
            "midi": 49,
            "name": "C#3",
            "ticks": 122016,
            "time": 168.71667075000002,
            "velocity": 0.7874015748031497
          },
          {
            "duration": 0.1327432500000043,
            "durationTicks": 96,
            "midi": 47,
            "name": "B2",
            "ticks": 122112,
            "time": 168.849414,
            "velocity": 0.7874015748031497
          },
          {
            "duration": 0.1327432500000043,
            "durationTicks": 96,
            "midi": 51,
            "name": "D#3",
            "ticks": 122208,
            "time": 168.98215725,
            "velocity": 0.7874015748031497
          },
          {
            "duration": 0.1327432500000043,
            "durationTicks": 96,
            "midi": 54,
            "name": "F#3",
            "ticks": 122304,
            "time": 169.1149005,
            "velocity": 0.7874015748031497
          },
          {
            "duration": 0.2654865000000086,
            "durationTicks": 192,
            "midi": 59,
            "name": "B3",
            "ticks": 122400,
            "time": 169.24764375,
            "velocity": 0.7874015748031497
          },
          {
            "duration": 0.2654864999999802,
            "durationTicks": 192,
            "midi": 56,
            "name": "G#3",
            "ticks": 122688,
            "time": 169.64587350000002,
            "velocity": 0.7874015748031497
          },
          {
            "duration": 0.1327432500000043,
            "durationTicks": 96,
            "midi": 49,
            "name": "C#3",
            "ticks": 122880,
            "time": 169.91136,
            "velocity": 0.7874015748031497
          },
          {
            "duration": 0.1327432500000043,
            "durationTicks": 96,
            "midi": 44,
            "name": "G#2",
            "ticks": 123168,
            "time": 170.30958975000001,
            "velocity": 0.7874015748031497
          },
          {
            "duration": 0.1327432500000043,
            "durationTicks": 96,
            "midi": 47,
            "name": "B2",
            "ticks": 123456,
            "time": 170.7078195,
            "velocity": 0.7874015748031497
          },
          {
            "duration": 0.1327432500000043,
            "durationTicks": 96,
            "midi": 46,
            "name": "A#2",
            "ticks": 123648,
            "time": 170.973306,
            "velocity": 0.7874015748031497
          },
          {
            "duration": 0.1327432499999759,
            "durationTicks": 96,
            "midi": 42,
            "name": "F#2",
            "ticks": 123936,
            "time": 171.37153575000002,
            "velocity": 0.7874015748031497
          },
          {
            "duration": 0.1327432500000043,
            "durationTicks": 96,
            "midi": 44,
            "name": "G#2",
            "ticks": 124224,
            "time": 171.7697655,
            "velocity": 0.7874015748031497
          },
          {
            "duration": 0.1327432500000043,
            "durationTicks": 96,
            "midi": 49,
            "name": "C#3",
            "ticks": 124416,
            "time": 172.035252,
            "velocity": 0.7874015748031497
          },
          {
            "duration": 0.1327432500000043,
            "durationTicks": 96,
            "midi": 44,
            "name": "G#2",
            "ticks": 124704,
            "time": 172.43348175,
            "velocity": 0.7874015748031497
          },
          {
            "duration": 0.1327432500000043,
            "durationTicks": 96,
            "midi": 47,
            "name": "B2",
            "ticks": 124992,
            "time": 172.8317115,
            "velocity": 0.7874015748031497
          },
          {
            "duration": 0.1327432499999759,
            "durationTicks": 96,
            "midi": 46,
            "name": "A#2",
            "ticks": 125184,
            "time": 173.09719800000002,
            "velocity": 0.7874015748031497
          },
          {
            "duration": 0.1327432500000043,
            "durationTicks": 96,
            "midi": 42,
            "name": "F#2",
            "ticks": 125472,
            "time": 173.49542775,
            "velocity": 0.7874015748031497
          },
          {
            "duration": 0.1327432500000043,
            "durationTicks": 96,
            "midi": 44,
            "name": "G#2",
            "ticks": 125760,
            "time": 173.89365750000002,
            "velocity": 0.7874015748031497
          },
          {
            "duration": 0.1327432500000043,
            "durationTicks": 96,
            "midi": 49,
            "name": "C#3",
            "ticks": 125952,
            "time": 174.159144,
            "velocity": 0.7874015748031497
          }
        ],
        "endOfTrackTicks": 126048
      },
      {
        "channel": 1,
        "controlChanges": {},
        "pitchBends": [],
        "instrument": {
          "family": "brass",
          "number": 60,
          "name": "french horn"
        },
        "name": "French Horn",
        "notes": [
          {
            "duration": 0.3982297499999987,
            "durationTicks": 288,
            "midi": 73,
            "name": "C#5",
            "ticks": 80640,
            "time": 111.50433000000001,
            "velocity": 0.7874015748031497
          },
          {
            "duration": 0.3982297499999987,
            "durationTicks": 288,
            "midi": 64,
            "name": "E4",
            "ticks": 80640,
            "time": 111.50433000000001,
            "velocity": 0.7874015748031497
          },
          {
            "duration": 0.3982297499999987,
            "durationTicks": 288,
            "midi": 68,
            "name": "G#4",
            "ticks": 80928,
            "time": 111.90255975000001,
            "velocity": 0.7874015748031497
          },
          {
            "duration": 0.3982297499999987,
            "durationTicks": 288,
            "midi": 76,
            "name": "E5",
            "ticks": 80928,
            "time": 111.90255975000001,
            "velocity": 0.7874015748031497
          },
          {
            "duration": 0.2654864999999944,
            "durationTicks": 192,
            "midi": 71,
            "name": "B4",
            "ticks": 81216,
            "time": 112.30078950000001,
            "velocity": 0.7874015748031497
          },
          {
            "duration": 0.2654864999999944,
            "durationTicks": 192,
            "midi": 78,
            "name": "F#5",
            "ticks": 81216,
            "time": 112.30078950000001,
            "velocity": 0.7874015748031497
          },
          {
            "duration": 1.061946000000006,
            "durationTicks": 768,
            "midi": 73,
            "name": "C#5",
            "ticks": 81408,
            "time": 112.566276,
            "velocity": 0.7874015748031497
          },
          {
            "duration": 1.061946000000006,
            "durationTicks": 768,
            "midi": 80,
            "name": "G#5",
            "ticks": 81408,
            "time": 112.566276,
            "velocity": 0.7874015748031497
          },
          {
            "duration": 0.1327432499999901,
            "durationTicks": 96,
            "midi": 76,
            "name": "E5",
            "ticks": 82560,
            "time": 114.15919500000001,
            "velocity": 0.7874015748031497
          },
          {
            "duration": 0.1327432499999901,
            "durationTicks": 96,
            "midi": 68,
            "name": "G#4",
            "ticks": 82560,
            "time": 114.15919500000001,
            "velocity": 0.7874015748031497
          },
          {
            "duration": 0.1327432500000043,
            "durationTicks": 96,
            "midi": 76,
            "name": "E5",
            "ticks": 82656,
            "time": 114.29193825,
            "velocity": 0.5905511811023622
          },
          {
            "duration": 0.1327432500000043,
            "durationTicks": 96,
            "midi": 68,
            "name": "G#4",
            "ticks": 82656,
            "time": 114.29193825,
            "velocity": 0.5905511811023622
          },
          {
            "duration": 0.1327432500000043,
            "durationTicks": 96,
            "midi": 78,
            "name": "F#5",
            "ticks": 82752,
            "time": 114.4246815,
            "velocity": 0.7874015748031497
          },
          {
            "duration": 0.1327432500000043,
            "durationTicks": 96,
            "midi": 71,
            "name": "B4",
            "ticks": 82752,
            "time": 114.4246815,
            "velocity": 0.7874015748031497
          },
          {
            "duration": 0.1327432499999901,
            "durationTicks": 96,
            "midi": 71,
            "name": "B4",
            "ticks": 82848,
            "time": 114.55742475000001,
            "velocity": 0.5905511811023622
          },
          {
            "duration": 0.1327432499999901,
            "durationTicks": 96,
            "midi": 78,
            "name": "F#5",
            "ticks": 82848,
            "time": 114.55742475000001,
            "velocity": 0.5905511811023622
          },
          {
            "duration": 0.530973000000003,
            "durationTicks": 384,
            "midi": 73,
            "name": "C#5",
            "ticks": 82944,
            "time": 114.690168,
            "velocity": 0.7874015748031497
          },
          {
            "duration": 0.530973000000003,
            "durationTicks": 384,
            "midi": 80,
            "name": "G#5",
            "ticks": 82944,
            "time": 114.690168,
            "velocity": 0.7874015748031497
          },
          {
            "duration": 0.2654864999999944,
            "durationTicks": 192,
            "midi": 71,
            "name": "B4",
            "ticks": 83520,
            "time": 115.48662750000001,
            "velocity": 0.7874015748031497
          },
          {
            "duration": 0.2654864999999944,
            "durationTicks": 192,
            "midi": 78,
            "name": "F#5",
            "ticks": 83520,
            "time": 115.48662750000001,
            "velocity": 0.7874015748031497
          },
          {
            "duration": 0.2654864999999944,
            "durationTicks": 192,
            "midi": 76,
            "name": "E5",
            "ticks": 83712,
            "time": 115.752114,
            "velocity": 0.7874015748031497
          },
          {
            "duration": 0.2654864999999944,
            "durationTicks": 192,
            "midi": 68,
            "name": "G#4",
            "ticks": 83712,
            "time": 115.752114,
            "velocity": 0.7874015748031497
          },
          {
            "duration": 0.1327432500000043,
            "durationTicks": 96,
            "midi": 71,
            "name": "B4",
            "ticks": 83904,
            "time": 116.0176005,
            "velocity": 0.7874015748031497
          },
          {
            "duration": 0.1327432500000043,
            "durationTicks": 96,
            "midi": 78,
            "name": "F#5",
            "ticks": 83904,
            "time": 116.0176005,
            "velocity": 0.7874015748031497
          },
          {
            "duration": 0.1327432500000043,
            "durationTicks": 96,
            "midi": 66,
            "name": "F#4",
            "ticks": 84000,
            "time": 116.15034375,
            "velocity": 0.7874015748031497
          },
          {
            "duration": 0.1327432500000043,
            "durationTicks": 96,
            "midi": 75,
            "name": "D#5",
            "ticks": 84000,
            "time": 116.15034375,
            "velocity": 0.7874015748031497
          },
          {
            "duration": 0.2654865000000086,
            "durationTicks": 192,
            "midi": 63,
            "name": "D#4",
            "ticks": 84288,
            "time": 116.5485735,
            "velocity": 0.7874015748031497
          },
          {
            "duration": 0.2654865000000086,
            "durationTicks": 192,
            "midi": 71,
            "name": "B4",
            "ticks": 84288,
            "time": 116.5485735,
            "velocity": 0.7874015748031497
          },
          {
            "duration": 1.0619459999999918,
            "durationTicks": 768,
            "midi": 73,
            "name": "C#5",
            "ticks": 84480,
            "time": 116.81406000000001,
            "velocity": 0.7874015748031497
          },
          {
            "duration": 1.0619459999999918,
            "durationTicks": 768,
            "midi": 64,
            "name": "E4",
            "ticks": 84480,
            "time": 116.81406000000001,
            "velocity": 0.7874015748031497
          },
          {
            "duration": 0.1327432500000043,
            "durationTicks": 96,
            "midi": 76,
            "name": "E5",
            "ticks": 85632,
            "time": 118.406979,
            "velocity": 0.7874015748031497
          },
          {
            "duration": 0.1327432500000043,
            "durationTicks": 96,
            "midi": 68,
            "name": "G#4",
            "ticks": 85632,
            "time": 118.406979,
            "velocity": 0.7874015748031497
          },
          {
            "duration": 0.1327432499999901,
            "durationTicks": 96,
            "midi": 76,
            "name": "E5",
            "ticks": 85728,
            "time": 118.53972225000001,
            "velocity": 0.5905511811023622
          },
          {
            "duration": 0.1327432499999901,
            "durationTicks": 96,
            "midi": 68,
            "name": "G#4",
            "ticks": 85728,
            "time": 118.53972225000001,
            "velocity": 0.5905511811023622
          },
          {
            "duration": 0.1327432500000043,
            "durationTicks": 96,
            "midi": 78,
            "name": "F#5",
            "ticks": 85824,
            "time": 118.6724655,
            "velocity": 0.7874015748031497
          },
          {
            "duration": 0.1327432500000043,
            "durationTicks": 96,
            "midi": 71,
            "name": "B4",
            "ticks": 85824,
            "time": 118.6724655,
            "velocity": 0.7874015748031497
          },
          {
            "duration": 0.1327432500000043,
            "durationTicks": 96,
            "midi": 78,
            "name": "F#5",
            "ticks": 85920,
            "time": 118.80520875,
            "velocity": 0.5905511811023622
          },
          {
            "duration": 0.1327432500000043,
            "durationTicks": 96,
            "midi": 71,
            "name": "B4",
            "ticks": 85920,
            "time": 118.80520875,
            "velocity": 0.5905511811023622
          },
          {
            "duration": 0.530973000000003,
            "durationTicks": 384,
            "midi": 80,
            "name": "G#5",
            "ticks": 86016,
            "time": 118.93795200000001,
            "velocity": 0.7874015748031497
          },
          {
            "duration": 0.530973000000003,
            "durationTicks": 384,
            "midi": 73,
            "name": "C#5",
            "ticks": 86016,
            "time": 118.93795200000001,
            "velocity": 0.7874015748031497
          },
          {
            "duration": 0.1327432500000043,
            "durationTicks": 96,
            "midi": 77,
            "name": "F5",
            "ticks": 86544,
            "time": 119.668039875,
            "velocity": 0.7874015748031497
          },
          {
            "duration": 0.1327432500000043,
            "durationTicks": 96,
            "midi": 71,
            "name": "B4",
            "ticks": 86592,
            "time": 119.73441150000001,
            "velocity": 0.7874015748031497
          },
          {
            "duration": 0.1327432500000043,
            "durationTicks": 96,
            "midi": 78,
            "name": "F#5",
            "ticks": 86592,
            "time": 119.73441150000001,
            "velocity": 0.7874015748031497
          },
          {
            "duration": 0.2654865000000086,
            "durationTicks": 192,
            "midi": 68,
            "name": "G#4",
            "ticks": 86784,
            "time": 119.999898,
            "velocity": 0.7874015748031497
          },
          {
            "duration": 0.2654865000000086,
            "durationTicks": 192,
            "midi": 76,
            "name": "E5",
            "ticks": 86784,
            "time": 119.999898,
            "velocity": 0.7874015748031497
          },
          {
            "duration": 0.1327432499999901,
            "durationTicks": 96,
            "midi": 78,
            "name": "F#5",
            "ticks": 86976,
            "time": 120.26538450000001,
            "velocity": 0.7874015748031497
          },
          {
            "duration": 0.1327432499999901,
            "durationTicks": 96,
            "midi": 71,
            "name": "B4",
            "ticks": 86976,
            "time": 120.26538450000001,
            "velocity": 0.7874015748031497
          },
          {
            "duration": 0.1327432500000043,
            "durationTicks": 96,
            "midi": 66,
            "name": "F#4",
            "ticks": 87072,
            "time": 120.39812775,
            "velocity": 0.7874015748031497
          },
          {
            "duration": 0.1327432500000043,
            "durationTicks": 96,
            "midi": 75,
            "name": "D#5",
            "ticks": 87072,
            "time": 120.39812775,
            "velocity": 0.7874015748031497
          },
          {
            "duration": 0.2654864999999944,
            "durationTicks": 192,
            "midi": 83,
            "name": "B5",
            "ticks": 87360,
            "time": 120.79635750000001,
            "velocity": 0.7874015748031497
          },
          {
            "duration": 0.2654864999999944,
            "durationTicks": 192,
            "midi": 75,
            "name": "D#5",
            "ticks": 87360,
            "time": 120.79635750000001,
            "velocity": 0.7874015748031497
          },
          {
            "duration": 1.0619459999999918,
            "durationTicks": 768,
            "midi": 80,
            "name": "G#5",
            "ticks": 87552,
            "time": 121.06184400000001,
            "velocity": 0.7874015748031497
          },
          {
            "duration": 1.0619459999999918,
            "durationTicks": 768,
            "midi": 73,
            "name": "C#5",
            "ticks": 87552,
            "time": 121.06184400000001,
            "velocity": 0.7874015748031497
          },
          {
            "duration": 0.1327432500000043,
            "durationTicks": 96,
            "midi": 68,
            "name": "G#4",
            "ticks": 88704,
            "time": 122.654763,
            "velocity": 0.7874015748031497
          },
          {
            "duration": 0.1327432500000043,
            "durationTicks": 96,
            "midi": 76,
            "name": "E5",
            "ticks": 88704,
            "time": 122.654763,
            "velocity": 0.7874015748031497
          },
          {
            "duration": 0.1327432500000043,
            "durationTicks": 96,
            "midi": 76,
            "name": "E5",
            "ticks": 88800,
            "time": 122.78750625,
            "velocity": 0.5905511811023622
          },
          {
            "duration": 0.1327432500000043,
            "durationTicks": 96,
            "midi": 68,
            "name": "G#4",
            "ticks": 88800,
            "time": 122.78750625,
            "velocity": 0.5905511811023622
          },
          {
            "duration": 0.1327432499999901,
            "durationTicks": 96,
            "midi": 71,
            "name": "B4",
            "ticks": 88896,
            "time": 122.92024950000001,
            "velocity": 0.7874015748031497
          },
          {
            "duration": 0.1327432499999901,
            "durationTicks": 96,
            "midi": 78,
            "name": "F#5",
            "ticks": 88896,
            "time": 122.92024950000001,
            "velocity": 0.7874015748031497
          },
          {
            "duration": 0.1327432500000043,
            "durationTicks": 96,
            "midi": 71,
            "name": "B4",
            "ticks": 88992,
            "time": 123.05299275,
            "velocity": 0.5905511811023622
          },
          {
            "duration": 0.1327432500000043,
            "durationTicks": 96,
            "midi": 78,
            "name": "F#5",
            "ticks": 88992,
            "time": 123.05299275,
            "velocity": 0.5905511811023622
          },
          {
            "duration": 0.530973000000003,
            "durationTicks": 384,
            "midi": 80,
            "name": "G#5",
            "ticks": 89088,
            "time": 123.185736,
            "velocity": 0.7874015748031497
          },
          {
            "duration": 0.530973000000003,
            "durationTicks": 384,
            "midi": 73,
            "name": "C#5",
            "ticks": 89088,
            "time": 123.185736,
            "velocity": 0.7874015748031497
          },
          {
            "duration": 0.2654865000000086,
            "durationTicks": 192,
            "midi": 71,
            "name": "B4",
            "ticks": 89664,
            "time": 123.9821955,
            "velocity": 0.7874015748031497
          },
          {
            "duration": 0.2654865000000086,
            "durationTicks": 192,
            "midi": 78,
            "name": "F#5",
            "ticks": 89664,
            "time": 123.9821955,
            "velocity": 0.7874015748031497
          },
          {
            "duration": 0.2654864999999944,
            "durationTicks": 192,
            "midi": 76,
            "name": "E5",
            "ticks": 89856,
            "time": 124.24768200000001,
            "velocity": 0.7874015748031497
          },
          {
            "duration": 0.2654864999999944,
            "durationTicks": 192,
            "midi": 68,
            "name": "G#4",
            "ticks": 89856,
            "time": 124.24768200000001,
            "velocity": 0.7874015748031497
          },
          {
            "duration": 0.1327432500000043,
            "durationTicks": 96,
            "midi": 78,
            "name": "F#5",
            "ticks": 90048,
            "time": 124.5131685,
            "velocity": 0.7874015748031497
          },
          {
            "duration": 0.1327432500000043,
            "durationTicks": 96,
            "midi": 71,
            "name": "B4",
            "ticks": 90048,
            "time": 124.5131685,
            "velocity": 0.7874015748031497
          },
          {
            "duration": 0.1327432499999901,
            "durationTicks": 96,
            "midi": 75,
            "name": "D#5",
            "ticks": 90144,
            "time": 124.64591175000001,
            "velocity": 0.7874015748031497
          },
          {
            "duration": 0.1327432499999901,
            "durationTicks": 96,
            "midi": 66,
            "name": "F#4",
            "ticks": 90144,
            "time": 124.64591175000001,
            "velocity": 0.7874015748031497
          },
          {
            "duration": 0.2654864999999944,
            "durationTicks": 192,
            "midi": 63,
            "name": "D#4",
            "ticks": 90432,
            "time": 125.04414150000001,
            "velocity": 0.7874015748031497
          },
          {
            "duration": 0.2654864999999944,
            "durationTicks": 192,
            "midi": 71,
            "name": "B4",
            "ticks": 90432,
            "time": 125.04414150000001,
            "velocity": 0.7874015748031497
          },
          {
            "duration": 1.9911487500000078,
            "durationTicks": 1440,
            "midi": 73,
            "name": "C#5",
            "ticks": 90624,
            "time": 125.309628,
            "velocity": 0.7874015748031497
          },
          {
            "duration": 1.9911487500000078,
            "durationTicks": 1440,
            "midi": 64,
            "name": "E4",
            "ticks": 90624,
            "time": 125.309628,
            "velocity": 0.7874015748031497
          }
        ],
        "endOfTrackTicks": 92064
      },
      {
        "channel": 2,
        "controlChanges": {},
        "pitchBends": [],
        "instrument": {
          "family": "brass",
          "number": 57,
          "name": "trombone"
        },
        "name": "Trombone",
        "notes": [
          {
            "duration": 0.1327432499999972,
            "durationTicks": 96,
            "midi": 47,
            "name": "B2",
            "ticks": 38112,
            "time": 52.699070250000005,
            "velocity": 0.5905511811023622
          },
          {
            "duration": 0.1327432499999972,
            "durationTicks": 96,
            "midi": 47,
            "name": "B2",
            "ticks": 38208,
            "time": 52.8318135,
            "velocity": 0.6377952755905512
          },
          {
            "duration": 0.06637162499999505,
            "durationTicks": 48,
            "midi": 47,
            "name": "B2",
            "ticks": 38256,
            "time": 52.898185125000005,
            "velocity": 0.6850393700787402
          },
          {
            "duration": 0.03318581250000108,
            "durationTicks": 24,
            "midi": 47,
            "name": "B2",
            "ticks": 38304,
            "time": 52.96455675,
            "velocity": 0.7322834645669292
          },
          {
            "duration": 0.03318581250000108,
            "durationTicks": 24,
            "midi": 47,
            "name": "B2",
            "ticks": 38328,
            "time": 52.9977425625,
            "velocity": 0.7559055118110236
          },
          {
            "duration": 0,
            "durationTicks": 0,
            "midi": 47,
            "name": "B2",
            "ticks": 38352,
            "time": 53.030928375,
            "velocity": 0.7795275590551181
          },
          {
            "duration": 0,
            "durationTicks": 0,
            "midi": 47,
            "name": "B2",
            "ticks": 38376,
            "time": 53.0641141875,
            "velocity": 0.7874015748031497
          },
          {
            "duration": 0.1327432499999972,
            "durationTicks": 96,
            "midi": 45,
            "name": "A2",
            "ticks": 38400,
            "time": 53.097300000000004,
            "velocity": 0.7874015748031497
          },
          {
            "duration": 0.1327432499999972,
            "durationTicks": 96,
            "midi": 40,
            "name": "E2",
            "ticks": 38592,
            "time": 53.362786500000006,
            "velocity": 0.7874015748031497
          },
          {
            "duration": 0.1327432499999972,
            "durationTicks": 96,
            "midi": 45,
            "name": "A2",
            "ticks": 38688,
            "time": 53.49552975,
            "velocity": 0.7874015748031497
          },
          {
            "duration": 0.1327432499999972,
            "durationTicks": 96,
            "midi": 40,
            "name": "E2",
            "ticks": 38880,
            "time": 53.761016250000004,
            "velocity": 0.7874015748031497
          },
          {
            "duration": 0.1327432500000043,
            "durationTicks": 96,
            "midi": 40,
            "name": "E2",
            "ticks": 38928,
            "time": 53.827387875,
            "velocity": 0.7874015748031497
          },
          {
            "duration": 0.1327432500000043,
            "durationTicks": 96,
            "midi": 40,
            "name": "E2",
            "ticks": 38976,
            "time": 53.8937595,
            "velocity": 0.7874015748031497
          },
          {
            "duration": 0.1327432499999972,
            "durationTicks": 96,
            "midi": 40,
            "name": "E2",
            "ticks": 39024,
            "time": 53.960131125000004,
            "velocity": 0.7874015748031497
          },
          {
            "duration": 0.1327432499999972,
            "durationTicks": 96,
            "midi": 45,
            "name": "A2",
            "ticks": 39072,
            "time": 54.026502750000006,
            "velocity": 0.7874015748031497
          },
          {
            "duration": 0.1327432500000043,
            "durationTicks": 96,
            "midi": 40,
            "name": "E2",
            "ticks": 39264,
            "time": 54.29198925,
            "velocity": 0.7874015748031497
          },
          {
            "duration": 0.1327432499999972,
            "durationTicks": 96,
            "midi": 45,
            "name": "A2",
            "ticks": 39360,
            "time": 54.424732500000005,
            "velocity": 0.7874015748031497
          },
          {
            "duration": 0.1327432499999972,
            "durationTicks": 96,
            "midi": 45,
            "name": "A2",
            "ticks": 39552,
            "time": 54.690219000000006,
            "velocity": 0.7874015748031497
          },
          {
            "duration": 0.2654865000000015,
            "durationTicks": 192,
            "midi": 47,
            "name": "B2",
            "ticks": 39744,
            "time": 54.9557055,
            "velocity": 0.7874015748031497
          },
          {
            "duration": 0.1327432500000043,
            "durationTicks": 96,
            "midi": 45,
            "name": "A2",
            "ticks": 39936,
            "time": 55.221192,
            "velocity": 0.7874015748031497
          },
          {
            "duration": 0.1327432499999972,
            "durationTicks": 96,
            "midi": 40,
            "name": "E2",
            "ticks": 40128,
            "time": 55.486678500000004,
            "velocity": 0.7874015748031497
          },
          {
            "duration": 0.1327432500000043,
            "durationTicks": 96,
            "midi": 45,
            "name": "A2",
            "ticks": 40224,
            "time": 55.61942175,
            "velocity": 0.7874015748031497
          },
          {
            "duration": 0.1327432499999972,
            "durationTicks": 96,
            "midi": 40,
            "name": "E2",
            "ticks": 40416,
            "time": 55.88490825,
            "velocity": 0.7874015748031497
          },
          {
            "duration": 0.1327432500000043,
            "durationTicks": 96,
            "midi": 40,
            "name": "E2",
            "ticks": 40512,
            "time": 56.0176515,
            "velocity": 0.7874015748031497
          },
          {
            "duration": 0.1327432499999972,
            "durationTicks": 96,
            "midi": 45,
            "name": "A2",
            "ticks": 40608,
            "time": 56.150394750000004,
            "velocity": 0.7874015748031497
          },
          {
            "duration": 0.1327432499999972,
            "durationTicks": 96,
            "midi": 40,
            "name": "E2",
            "ticks": 40800,
            "time": 56.415881250000005,
            "velocity": 0.7874015748031497
          },
          {
            "duration": 0.1327432499999972,
            "durationTicks": 96,
            "midi": 45,
            "name": "A2",
            "ticks": 40896,
            "time": 56.5486245,
            "velocity": 0.7874015748031497
          },
          {
            "duration": 0.1327432499999972,
            "durationTicks": 96,
            "midi": 45,
            "name": "A2",
            "ticks": 41088,
            "time": 56.814111000000004,
            "velocity": 0.7874015748031497
          },
          {
            "duration": 0.1327432499999972,
            "durationTicks": 96,
            "midi": 47,
            "name": "B2",
            "ticks": 41280,
            "time": 57.079597500000006,
            "velocity": 0.7874015748031497
          },
          {
            "duration": 0.1327432500000043,
            "durationTicks": 96,
            "midi": 47,
            "name": "B2",
            "ticks": 41328,
            "time": 57.145969125,
            "velocity": 0.7874015748031497
          },
          {
            "duration": 0.1327432499999972,
            "durationTicks": 96,
            "midi": 47,
            "name": "B2",
            "ticks": 41376,
            "time": 57.21234075,
            "velocity": 0.7874015748031497
          },
          {
            "duration": 0.1327432499999972,
            "durationTicks": 96,
            "midi": 47,
            "name": "B2",
            "ticks": 41424,
            "time": 57.278712375000005,
            "velocity": 0.7874015748031497
          },
          {
            "duration": 0.1327432500000043,
            "durationTicks": 96,
            "midi": 49,
            "name": "C#3",
            "ticks": 41472,
            "time": 57.345084,
            "velocity": 0.7874015748031497
          },
          {
            "duration": 0.1327432500000043,
            "durationTicks": 96,
            "midi": 44,
            "name": "G#2",
            "ticks": 41664,
            "time": 57.6105705,
            "velocity": 0.7874015748031497
          },
          {
            "duration": 0.1327432499999972,
            "durationTicks": 96,
            "midi": 49,
            "name": "C#3",
            "ticks": 41760,
            "time": 57.743313750000006,
            "velocity": 0.7874015748031497
          },
          {
            "duration": 0.1327432500000043,
            "durationTicks": 96,
            "midi": 44,
            "name": "G#2",
            "ticks": 41952,
            "time": 58.00880025,
            "velocity": 0.7874015748031497
          },
          {
            "duration": 0.1327432499999972,
            "durationTicks": 96,
            "midi": 44,
            "name": "G#2",
            "ticks": 42048,
            "time": 58.141543500000004,
            "velocity": 0.7874015748031497
          },
          {
            "duration": 0.1327432500000043,
            "durationTicks": 96,
            "midi": 49,
            "name": "C#3",
            "ticks": 42144,
            "time": 58.27428675,
            "velocity": 0.7874015748031497
          },
          {
            "duration": 0.1327432499999972,
            "durationTicks": 96,
            "midi": 44,
            "name": "G#2",
            "ticks": 42336,
            "time": 58.53977325,
            "velocity": 0.7874015748031497
          },
          {
            "duration": 0.1327432500000043,
            "durationTicks": 96,
            "midi": 49,
            "name": "C#3",
            "ticks": 42432,
            "time": 58.6725165,
            "velocity": 0.7874015748031497
          },
          {
            "duration": 0.1327432500000043,
            "durationTicks": 96,
            "midi": 49,
            "name": "C#3",
            "ticks": 42624,
            "time": 58.938003,
            "velocity": 0.7874015748031497
          },
          {
            "duration": 0.1327432499999972,
            "durationTicks": 96,
            "midi": 47,
            "name": "B2",
            "ticks": 42816,
            "time": 59.2034895,
            "velocity": 0.7874015748031497
          },
          {
            "duration": 0.1327432499999972,
            "durationTicks": 96,
            "midi": 47,
            "name": "B2",
            "ticks": 42864,
            "time": 59.269861125000006,
            "velocity": 0.7874015748031497
          },
          {
            "duration": 0.1327432500000043,
            "durationTicks": 96,
            "midi": 47,
            "name": "B2",
            "ticks": 42912,
            "time": 59.33623275,
            "velocity": 0.7874015748031497
          },
          {
            "duration": 0.1327432499999972,
            "durationTicks": 96,
            "midi": 47,
            "name": "B2",
            "ticks": 42960,
            "time": 59.402604375,
            "velocity": 0.7874015748031497
          },
          {
            "duration": 0.1327432499999972,
            "durationTicks": 96,
            "midi": 44,
            "name": "G#2",
            "ticks": 43008,
            "time": 59.468976000000005,
            "velocity": 0.7874015748031497
          },
          {
            "duration": 0.1327432500000043,
            "durationTicks": 96,
            "midi": 39,
            "name": "D#2",
            "ticks": 43104,
            "time": 59.60171925,
            "velocity": 0.7874015748031497
          },
          {
            "duration": 0.1327432499999972,
            "durationTicks": 96,
            "midi": 39,
            "name": "D#2",
            "ticks": 43200,
            "time": 59.73446250000001,
            "velocity": 0.7874015748031497
          },
          {
            "duration": 0.1327432499999972,
            "durationTicks": 96,
            "midi": 44,
            "name": "G#2",
            "ticks": 43296,
            "time": 59.867205750000004,
            "velocity": 0.7874015748031497
          },
          {
            "duration": 0.1327432499999972,
            "durationTicks": 96,
            "midi": 39,
            "name": "D#2",
            "ticks": 43488,
            "time": 60.132692250000005,
            "velocity": 0.7874015748031497
          },
          {
            "duration": 0.1327432500000043,
            "durationTicks": 96,
            "midi": 44,
            "name": "G#2",
            "ticks": 43584,
            "time": 60.2654355,
            "velocity": 0.7874015748031497
          },
          {
            "duration": 0.1327432499999972,
            "durationTicks": 96,
            "midi": 39,
            "name": "D#2",
            "ticks": 43680,
            "time": 60.39817875000001,
            "velocity": 0.7874015748031497
          },
          {
            "duration": 0.1327432499999972,
            "durationTicks": 96,
            "midi": 47,
            "name": "B2",
            "ticks": 43776,
            "time": 60.530922000000004,
            "velocity": 0.7874015748031497
          },
          {
            "duration": 0.1327432499999972,
            "durationTicks": 96,
            "midi": 42,
            "name": "F#2",
            "ticks": 43968,
            "time": 60.796408500000005,
            "velocity": 0.7874015748031497
          },
          {
            "duration": 0.1327432500000043,
            "durationTicks": 96,
            "midi": 42,
            "name": "F#2",
            "ticks": 44016,
            "time": 60.862780125,
            "velocity": 0.7874015748031497
          },
          {
            "duration": 0.1327432499999972,
            "durationTicks": 96,
            "midi": 51,
            "name": "D#3",
            "ticks": 44064,
            "time": 60.92915175,
            "velocity": 0.7874015748031497
          },
          {
            "duration": 0.1327432499999972,
            "durationTicks": 96,
            "midi": 47,
            "name": "B2",
            "ticks": 44256,
            "time": 61.194638250000004,
            "velocity": 0.7874015748031497
          },
          {
            "duration": 0.1327432499999972,
            "durationTicks": 96,
            "midi": 47,
            "name": "B2",
            "ticks": 44304,
            "time": 61.261009875000006,
            "velocity": 0.7874015748031497
          },
          {
            "duration": 0.2654865000000015,
            "durationTicks": 192,
            "midi": 54,
            "name": "F#3",
            "ticks": 44352,
            "time": 61.3273815,
            "velocity": 0.7874015748031497
          },
          {
            "duration": 0.1327432499999972,
            "durationTicks": 96,
            "midi": 45,
            "name": "A2",
            "ticks": 44544,
            "time": 61.592868,
            "velocity": 0.7874015748031497
          },
          {
            "duration": 0.1327432499999972,
            "durationTicks": 96,
            "midi": 40,
            "name": "E2",
            "ticks": 44736,
            "time": 61.858354500000004,
            "velocity": 0.7874015748031497
          },
          {
            "duration": 0.1327432500000043,
            "durationTicks": 96,
            "midi": 45,
            "name": "A2",
            "ticks": 44832,
            "time": 61.99109775,
            "velocity": 0.7874015748031497
          },
          {
            "duration": 0.1327432499999972,
            "durationTicks": 96,
            "midi": 40,
            "name": "E2",
            "ticks": 45024,
            "time": 62.25658425,
            "velocity": 0.7874015748031497
          },
          {
            "duration": 0.1327432499999972,
            "durationTicks": 96,
            "midi": 40,
            "name": "E2",
            "ticks": 45072,
            "time": 62.322955875000005,
            "velocity": 0.7874015748031497
          },
          {
            "duration": 0.1327432500000043,
            "durationTicks": 96,
            "midi": 40,
            "name": "E2",
            "ticks": 45120,
            "time": 62.3893275,
            "velocity": 0.7874015748031497
          },
          {
            "duration": 0.1327432500000043,
            "durationTicks": 96,
            "midi": 40,
            "name": "E2",
            "ticks": 45168,
            "time": 62.455699125,
            "velocity": 0.7874015748031497
          },
          {
            "duration": 0.1327432499999972,
            "durationTicks": 96,
            "midi": 45,
            "name": "A2",
            "ticks": 45216,
            "time": 62.522070750000005,
            "velocity": 0.7874015748031497
          },
          {
            "duration": 0.1327432499999972,
            "durationTicks": 96,
            "midi": 40,
            "name": "E2",
            "ticks": 45408,
            "time": 62.787557250000006,
            "velocity": 0.7874015748031497
          },
          {
            "duration": 0.1327432499999972,
            "durationTicks": 96,
            "midi": 45,
            "name": "A2",
            "ticks": 45504,
            "time": 62.9203005,
            "velocity": 0.7874015748031497
          },
          {
            "duration": 0.1327432499999972,
            "durationTicks": 96,
            "midi": 45,
            "name": "A2",
            "ticks": 45696,
            "time": 63.185787000000005,
            "velocity": 0.7874015748031497
          },
          {
            "duration": 0.2654864999999944,
            "durationTicks": 192,
            "midi": 47,
            "name": "B2",
            "ticks": 45888,
            "time": 63.451273500000006,
            "velocity": 0.7874015748031497
          },
          {
            "duration": 0.1327432500000043,
            "durationTicks": 96,
            "midi": 45,
            "name": "A2",
            "ticks": 46080,
            "time": 63.71676,
            "velocity": 0.7874015748031497
          },
          {
            "duration": 0.1327432500000043,
            "durationTicks": 96,
            "midi": 40,
            "name": "E2",
            "ticks": 46272,
            "time": 63.9822465,
            "velocity": 0.7874015748031497
          },
          {
            "duration": 0.1327432499999901,
            "durationTicks": 96,
            "midi": 45,
            "name": "A2",
            "ticks": 46368,
            "time": 64.11498975,
            "velocity": 0.7874015748031497
          },
          {
            "duration": 0.1327432500000043,
            "durationTicks": 96,
            "midi": 40,
            "name": "E2",
            "ticks": 46560,
            "time": 64.38047625,
            "velocity": 0.7874015748031497
          },
          {
            "duration": 0.1327432500000043,
            "durationTicks": 96,
            "midi": 40,
            "name": "E2",
            "ticks": 46656,
            "time": 64.5132195,
            "velocity": 0.7874015748031497
          },
          {
            "duration": 0.1327432499999901,
            "durationTicks": 96,
            "midi": 45,
            "name": "A2",
            "ticks": 46752,
            "time": 64.64596275000001,
            "velocity": 0.7874015748031497
          },
          {
            "duration": 0.1327432500000043,
            "durationTicks": 96,
            "midi": 40,
            "name": "E2",
            "ticks": 46944,
            "time": 64.91144925,
            "velocity": 0.7874015748031497
          },
          {
            "duration": 0.1327432499999901,
            "durationTicks": 96,
            "midi": 45,
            "name": "A2",
            "ticks": 47040,
            "time": 65.04419250000001,
            "velocity": 0.7874015748031497
          },
          {
            "duration": 0.1327432500000043,
            "durationTicks": 96,
            "midi": 45,
            "name": "A2",
            "ticks": 47232,
            "time": 65.309679,
            "velocity": 0.7874015748031497
          },
          {
            "duration": 0.1327432500000043,
            "durationTicks": 96,
            "midi": 47,
            "name": "B2",
            "ticks": 47424,
            "time": 65.5751655,
            "velocity": 0.7874015748031497
          },
          {
            "duration": 0.1327432500000043,
            "durationTicks": 96,
            "midi": 47,
            "name": "B2",
            "ticks": 47472,
            "time": 65.641537125,
            "velocity": 0.7874015748031497
          },
          {
            "duration": 0.1327432500000043,
            "durationTicks": 96,
            "midi": 47,
            "name": "B2",
            "ticks": 47520,
            "time": 65.70790875,
            "velocity": 0.7874015748031497
          },
          {
            "duration": 0.1327432500000043,
            "durationTicks": 96,
            "midi": 47,
            "name": "B2",
            "ticks": 47568,
            "time": 65.774280375,
            "velocity": 0.7874015748031497
          },
          {
            "duration": 0.1327432500000043,
            "durationTicks": 96,
            "midi": 49,
            "name": "C#3",
            "ticks": 47616,
            "time": 65.840652,
            "velocity": 0.7874015748031497
          },
          {
            "duration": 0.1327432500000043,
            "durationTicks": 96,
            "midi": 44,
            "name": "G#2",
            "ticks": 47808,
            "time": 66.1061385,
            "velocity": 0.7874015748031497
          },
          {
            "duration": 0.1327432500000043,
            "durationTicks": 96,
            "midi": 49,
            "name": "C#3",
            "ticks": 47904,
            "time": 66.23888175,
            "velocity": 0.7874015748031497
          },
          {
            "duration": 0.1327432500000043,
            "durationTicks": 96,
            "midi": 44,
            "name": "G#2",
            "ticks": 48096,
            "time": 66.50436825,
            "velocity": 0.7874015748031497
          },
          {
            "duration": 0.1327432500000043,
            "durationTicks": 96,
            "midi": 44,
            "name": "G#2",
            "ticks": 48192,
            "time": 66.6371115,
            "velocity": 0.7874015748031497
          },
          {
            "duration": 0.1327432499999901,
            "durationTicks": 96,
            "midi": 49,
            "name": "C#3",
            "ticks": 48288,
            "time": 66.76985475000001,
            "velocity": 0.7874015748031497
          },
          {
            "duration": 0.1327432500000043,
            "durationTicks": 96,
            "midi": 44,
            "name": "G#2",
            "ticks": 48480,
            "time": 67.03534125,
            "velocity": 0.7874015748031497
          },
          {
            "duration": 0.1327432500000043,
            "durationTicks": 96,
            "midi": 49,
            "name": "C#3",
            "ticks": 48576,
            "time": 67.1680845,
            "velocity": 0.7874015748031497
          },
          {
            "duration": 0.1327432500000043,
            "durationTicks": 96,
            "midi": 49,
            "name": "C#3",
            "ticks": 48768,
            "time": 67.433571,
            "velocity": 0.7874015748031497
          },
          {
            "duration": 0.1327432499999901,
            "durationTicks": 96,
            "midi": 47,
            "name": "B2",
            "ticks": 48960,
            "time": 67.69905750000001,
            "velocity": 0.7874015748031497
          },
          {
            "duration": 0.1327432500000043,
            "durationTicks": 96,
            "midi": 47,
            "name": "B2",
            "ticks": 49008,
            "time": 67.765429125,
            "velocity": 0.7874015748031497
          },
          {
            "duration": 0.1327432500000043,
            "durationTicks": 96,
            "midi": 47,
            "name": "B2",
            "ticks": 49056,
            "time": 67.83180075,
            "velocity": 0.7874015748031497
          },
          {
            "duration": 0.1327432500000043,
            "durationTicks": 96,
            "midi": 47,
            "name": "B2",
            "ticks": 49104,
            "time": 67.898172375,
            "velocity": 0.7874015748031497
          },
          {
            "duration": 0.1327432500000043,
            "durationTicks": 96,
            "midi": 45,
            "name": "A2",
            "ticks": 50688,
            "time": 70.088436,
            "velocity": 0.7874015748031497
          },
          {
            "duration": 0.1327432499999901,
            "durationTicks": 96,
            "midi": 40,
            "name": "E2",
            "ticks": 50880,
            "time": 70.35392250000001,
            "velocity": 0.7874015748031497
          },
          {
            "duration": 0.1327432500000043,
            "durationTicks": 96,
            "midi": 45,
            "name": "A2",
            "ticks": 50976,
            "time": 70.48666575,
            "velocity": 0.7874015748031497
          },
          {
            "duration": 0.1327432499999901,
            "durationTicks": 96,
            "midi": 40,
            "name": "E2",
            "ticks": 51168,
            "time": 70.75215225000001,
            "velocity": 0.7874015748031497
          },
          {
            "duration": 0.1327432500000043,
            "durationTicks": 96,
            "midi": 40,
            "name": "E2",
            "ticks": 51216,
            "time": 70.818523875,
            "velocity": 0.7874015748031497
          },
          {
            "duration": 0.1327432500000043,
            "durationTicks": 96,
            "midi": 40,
            "name": "E2",
            "ticks": 51264,
            "time": 70.8848955,
            "velocity": 0.7874015748031497
          },
          {
            "duration": 0.1327432500000043,
            "durationTicks": 96,
            "midi": 40,
            "name": "E2",
            "ticks": 51312,
            "time": 70.951267125,
            "velocity": 0.7874015748031497
          },
          {
            "duration": 0.1327432500000043,
            "durationTicks": 96,
            "midi": 45,
            "name": "A2",
            "ticks": 51360,
            "time": 71.01763875,
            "velocity": 0.7874015748031497
          },
          {
            "duration": 0.1327432500000043,
            "durationTicks": 96,
            "midi": 40,
            "name": "E2",
            "ticks": 51552,
            "time": 71.28312525,
            "velocity": 0.7874015748031497
          },
          {
            "duration": 0.1327432500000043,
            "durationTicks": 96,
            "midi": 45,
            "name": "A2",
            "ticks": 51648,
            "time": 71.4158685,
            "velocity": 0.7874015748031497
          },
          {
            "duration": 0.1327432499999901,
            "durationTicks": 96,
            "midi": 45,
            "name": "A2",
            "ticks": 51840,
            "time": 71.68135500000001,
            "velocity": 0.7874015748031497
          },
          {
            "duration": 0.2654864999999944,
            "durationTicks": 192,
            "midi": 47,
            "name": "B2",
            "ticks": 52032,
            "time": 71.9468415,
            "velocity": 0.7874015748031497
          },
          {
            "duration": 0.1327432500000043,
            "durationTicks": 96,
            "midi": 45,
            "name": "A2",
            "ticks": 52224,
            "time": 72.212328,
            "velocity": 0.7874015748031497
          },
          {
            "duration": 0.1327432499999901,
            "durationTicks": 96,
            "midi": 40,
            "name": "E2",
            "ticks": 52416,
            "time": 72.47781450000001,
            "velocity": 0.7874015748031497
          },
          {
            "duration": 0.1327432500000043,
            "durationTicks": 96,
            "midi": 45,
            "name": "A2",
            "ticks": 52512,
            "time": 72.61055775,
            "velocity": 0.7874015748031497
          },
          {
            "duration": 0.1327432499999901,
            "durationTicks": 96,
            "midi": 40,
            "name": "E2",
            "ticks": 52704,
            "time": 72.87604425,
            "velocity": 0.7874015748031497
          },
          {
            "duration": 0.1327432500000043,
            "durationTicks": 96,
            "midi": 40,
            "name": "E2",
            "ticks": 52800,
            "time": 73.0087875,
            "velocity": 0.7874015748031497
          },
          {
            "duration": 0.1327432500000043,
            "durationTicks": 96,
            "midi": 45,
            "name": "A2",
            "ticks": 52896,
            "time": 73.14153075,
            "velocity": 0.7874015748031497
          },
          {
            "duration": 0.1327432499999901,
            "durationTicks": 96,
            "midi": 40,
            "name": "E2",
            "ticks": 53088,
            "time": 73.40701725000001,
            "velocity": 0.7874015748031497
          },
          {
            "duration": 0.1327432500000043,
            "durationTicks": 96,
            "midi": 45,
            "name": "A2",
            "ticks": 53184,
            "time": 73.5397605,
            "velocity": 0.7874015748031497
          },
          {
            "duration": 0.1327432499999901,
            "durationTicks": 96,
            "midi": 45,
            "name": "A2",
            "ticks": 53376,
            "time": 73.80524700000001,
            "velocity": 0.7874015748031497
          },
          {
            "duration": 0.1327432500000043,
            "durationTicks": 96,
            "midi": 47,
            "name": "B2",
            "ticks": 53568,
            "time": 74.0707335,
            "velocity": 0.7874015748031497
          },
          {
            "duration": 0.1327432500000043,
            "durationTicks": 96,
            "midi": 47,
            "name": "B2",
            "ticks": 53616,
            "time": 74.137105125,
            "velocity": 0.7874015748031497
          },
          {
            "duration": 0.1327432499999901,
            "durationTicks": 96,
            "midi": 47,
            "name": "B2",
            "ticks": 53664,
            "time": 74.20347675000001,
            "velocity": 0.7874015748031497
          },
          {
            "duration": 0.1327432499999901,
            "durationTicks": 96,
            "midi": 47,
            "name": "B2",
            "ticks": 53712,
            "time": 74.26984837500001,
            "velocity": 0.7874015748031497
          },
          {
            "duration": 0.1327432500000043,
            "durationTicks": 96,
            "midi": 49,
            "name": "C#3",
            "ticks": 53760,
            "time": 74.33622,
            "velocity": 0.7874015748031497
          },
          {
            "duration": 0.1327432500000043,
            "durationTicks": 96,
            "midi": 44,
            "name": "G#2",
            "ticks": 53952,
            "time": 74.6017065,
            "velocity": 0.7874015748031497
          },
          {
            "duration": 0.1327432499999901,
            "durationTicks": 96,
            "midi": 49,
            "name": "C#3",
            "ticks": 54048,
            "time": 74.73444975000001,
            "velocity": 0.7874015748031497
          },
          {
            "duration": 0.1327432500000043,
            "durationTicks": 96,
            "midi": 44,
            "name": "G#2",
            "ticks": 54240,
            "time": 74.99993625,
            "velocity": 0.7874015748031497
          },
          {
            "duration": 0.1327432499999901,
            "durationTicks": 96,
            "midi": 44,
            "name": "G#2",
            "ticks": 54336,
            "time": 75.13267950000001,
            "velocity": 0.7874015748031497
          },
          {
            "duration": 0.1327432500000043,
            "durationTicks": 96,
            "midi": 49,
            "name": "C#3",
            "ticks": 54432,
            "time": 75.26542275,
            "velocity": 0.7874015748031497
          },
          {
            "duration": 0.1327432499999901,
            "durationTicks": 96,
            "midi": 44,
            "name": "G#2",
            "ticks": 54624,
            "time": 75.53090925000001,
            "velocity": 0.7874015748031497
          },
          {
            "duration": 0.1327432500000043,
            "durationTicks": 96,
            "midi": 49,
            "name": "C#3",
            "ticks": 54720,
            "time": 75.6636525,
            "velocity": 0.7874015748031497
          },
          {
            "duration": 0.1327432500000043,
            "durationTicks": 96,
            "midi": 49,
            "name": "C#3",
            "ticks": 54912,
            "time": 75.929139,
            "velocity": 0.7874015748031497
          },
          {
            "duration": 0.1327432500000043,
            "durationTicks": 96,
            "midi": 47,
            "name": "B2",
            "ticks": 55104,
            "time": 76.1946255,
            "velocity": 0.7874015748031497
          },
          {
            "duration": 0.1327432500000043,
            "durationTicks": 96,
            "midi": 47,
            "name": "B2",
            "ticks": 55152,
            "time": 76.260997125,
            "velocity": 0.7874015748031497
          },
          {
            "duration": 0.1327432500000043,
            "durationTicks": 96,
            "midi": 47,
            "name": "B2",
            "ticks": 55200,
            "time": 76.32736875,
            "velocity": 0.7874015748031497
          },
          {
            "duration": 0.1327432499999901,
            "durationTicks": 96,
            "midi": 47,
            "name": "B2",
            "ticks": 55248,
            "time": 76.39374037500001,
            "velocity": 0.7874015748031497
          },
          {
            "duration": 0.1327432499999901,
            "durationTicks": 96,
            "midi": 44,
            "name": "G#2",
            "ticks": 55296,
            "time": 76.46011200000001,
            "velocity": 0.7874015748031497
          },
          {
            "duration": 0.1327432500000043,
            "durationTicks": 96,
            "midi": 39,
            "name": "D#2",
            "ticks": 55392,
            "time": 76.59285525,
            "velocity": 0.7874015748031497
          },
          {
            "duration": 0.1327432500000043,
            "durationTicks": 96,
            "midi": 39,
            "name": "D#2",
            "ticks": 55488,
            "time": 76.7255985,
            "velocity": 0.7874015748031497
          },
          {
            "duration": 0.1327432499999901,
            "durationTicks": 96,
            "midi": 44,
            "name": "G#2",
            "ticks": 55584,
            "time": 76.85834175000001,
            "velocity": 0.7874015748031497
          },
          {
            "duration": 0.1327432500000043,
            "durationTicks": 96,
            "midi": 39,
            "name": "D#2",
            "ticks": 55776,
            "time": 77.12382825,
            "velocity": 0.7874015748031497
          },
          {
            "duration": 0.1327432500000043,
            "durationTicks": 96,
            "midi": 44,
            "name": "G#2",
            "ticks": 55872,
            "time": 77.2565715,
            "velocity": 0.7874015748031497
          },
          {
            "duration": 0.1327432499999901,
            "durationTicks": 96,
            "midi": 39,
            "name": "D#2",
            "ticks": 55968,
            "time": 77.38931475000001,
            "velocity": 0.7874015748031497
          },
          {
            "duration": 0.1327432500000043,
            "durationTicks": 96,
            "midi": 47,
            "name": "B2",
            "ticks": 56064,
            "time": 77.522058,
            "velocity": 0.7874015748031497
          },
          {
            "duration": 0.1327432499999901,
            "durationTicks": 96,
            "midi": 42,
            "name": "F#2",
            "ticks": 56256,
            "time": 77.78754450000001,
            "velocity": 0.7874015748031497
          },
          {
            "duration": 0.1327432500000043,
            "durationTicks": 96,
            "midi": 42,
            "name": "F#2",
            "ticks": 56304,
            "time": 77.853916125,
            "velocity": 0.7874015748031497
          },
          {
            "duration": 0.1327432500000043,
            "durationTicks": 96,
            "midi": 51,
            "name": "D#3",
            "ticks": 56352,
            "time": 77.92028775,
            "velocity": 0.7874015748031497
          },
          {
            "duration": 0.1327432499999901,
            "durationTicks": 96,
            "midi": 47,
            "name": "B2",
            "ticks": 56544,
            "time": 78.18577425000001,
            "velocity": 0.7874015748031497
          },
          {
            "duration": 0.1327432499999901,
            "durationTicks": 96,
            "midi": 47,
            "name": "B2",
            "ticks": 56592,
            "time": 78.25214587500001,
            "velocity": 0.7874015748031497
          },
          {
            "duration": 0.2654865000000086,
            "durationTicks": 192,
            "midi": 54,
            "name": "F#3",
            "ticks": 56640,
            "time": 78.3185175,
            "velocity": 0.7874015748031497
          },
          {
            "duration": 0.1327432499999901,
            "durationTicks": 96,
            "midi": 45,
            "name": "A2",
            "ticks": 56832,
            "time": 78.58400400000001,
            "velocity": 0.7874015748031497
          },
          {
            "duration": 0.1327432500000043,
            "durationTicks": 96,
            "midi": 40,
            "name": "E2",
            "ticks": 57024,
            "time": 78.8494905,
            "velocity": 0.7874015748031497
          },
          {
            "duration": 0.1327432500000043,
            "durationTicks": 96,
            "midi": 45,
            "name": "A2",
            "ticks": 57120,
            "time": 78.98223375,
            "velocity": 0.7874015748031497
          },
          {
            "duration": 0.1327432500000043,
            "durationTicks": 96,
            "midi": 40,
            "name": "E2",
            "ticks": 57312,
            "time": 79.24772025,
            "velocity": 0.7874015748031497
          },
          {
            "duration": 0.1327432500000043,
            "durationTicks": 96,
            "midi": 40,
            "name": "E2",
            "ticks": 57360,
            "time": 79.314091875,
            "velocity": 0.7874015748031497
          },
          {
            "duration": 0.1327432500000043,
            "durationTicks": 96,
            "midi": 40,
            "name": "E2",
            "ticks": 57408,
            "time": 79.3804635,
            "velocity": 0.7874015748031497
          },
          {
            "duration": 0.1327432500000043,
            "durationTicks": 96,
            "midi": 40,
            "name": "E2",
            "ticks": 57456,
            "time": 79.446835125,
            "velocity": 0.7874015748031497
          },
          {
            "duration": 0.1327432499999901,
            "durationTicks": 96,
            "midi": 45,
            "name": "A2",
            "ticks": 57504,
            "time": 79.51320675000001,
            "velocity": 0.7874015748031497
          },
          {
            "duration": 0.1327432500000043,
            "durationTicks": 96,
            "midi": 40,
            "name": "E2",
            "ticks": 57696,
            "time": 79.77869325,
            "velocity": 0.7874015748031497
          },
          {
            "duration": 0.1327432499999901,
            "durationTicks": 96,
            "midi": 45,
            "name": "A2",
            "ticks": 57792,
            "time": 79.91143650000001,
            "velocity": 0.7874015748031497
          },
          {
            "duration": 0.1327432500000043,
            "durationTicks": 96,
            "midi": 45,
            "name": "A2",
            "ticks": 57984,
            "time": 80.176923,
            "velocity": 0.7874015748031497
          },
          {
            "duration": 0.2654864999999944,
            "durationTicks": 192,
            "midi": 47,
            "name": "B2",
            "ticks": 58176,
            "time": 80.44240950000001,
            "velocity": 0.7874015748031497
          },
          {
            "duration": 0.1327432500000043,
            "durationTicks": 96,
            "midi": 45,
            "name": "A2",
            "ticks": 58368,
            "time": 80.707896,
            "velocity": 0.7874015748031497
          },
          {
            "duration": 0.1327432500000043,
            "durationTicks": 96,
            "midi": 40,
            "name": "E2",
            "ticks": 58560,
            "time": 80.9733825,
            "velocity": 0.7874015748031497
          },
          {
            "duration": 0.1327432500000043,
            "durationTicks": 96,
            "midi": 45,
            "name": "A2",
            "ticks": 58656,
            "time": 81.10612575,
            "velocity": 0.7874015748031497
          },
          {
            "duration": 0.1327432500000043,
            "durationTicks": 96,
            "midi": 40,
            "name": "E2",
            "ticks": 58848,
            "time": 81.37161225,
            "velocity": 0.7874015748031497
          },
          {
            "duration": 0.1327432500000043,
            "durationTicks": 96,
            "midi": 40,
            "name": "E2",
            "ticks": 58944,
            "time": 81.5043555,
            "velocity": 0.7874015748031497
          },
          {
            "duration": 0.1327432500000043,
            "durationTicks": 96,
            "midi": 45,
            "name": "A2",
            "ticks": 59040,
            "time": 81.63709875,
            "velocity": 0.7874015748031497
          },
          {
            "duration": 0.1327432500000043,
            "durationTicks": 96,
            "midi": 40,
            "name": "E2",
            "ticks": 59232,
            "time": 81.90258525,
            "velocity": 0.7874015748031497
          },
          {
            "duration": 0.1327432500000043,
            "durationTicks": 96,
            "midi": 45,
            "name": "A2",
            "ticks": 59328,
            "time": 82.0353285,
            "velocity": 0.7874015748031497
          },
          {
            "duration": 0.1327432500000043,
            "durationTicks": 96,
            "midi": 45,
            "name": "A2",
            "ticks": 59520,
            "time": 82.300815,
            "velocity": 0.7874015748031497
          },
          {
            "duration": 0.1327432499999901,
            "durationTicks": 96,
            "midi": 47,
            "name": "B2",
            "ticks": 59712,
            "time": 82.56630150000001,
            "velocity": 0.7874015748031497
          },
          {
            "duration": 0.1327432499999901,
            "durationTicks": 96,
            "midi": 47,
            "name": "B2",
            "ticks": 59760,
            "time": 82.63267312500001,
            "velocity": 0.7874015748031497
          },
          {
            "duration": 0.1327432500000043,
            "durationTicks": 96,
            "midi": 47,
            "name": "B2",
            "ticks": 59808,
            "time": 82.69904475,
            "velocity": 0.7874015748031497
          },
          {
            "duration": 0.1327432500000043,
            "durationTicks": 96,
            "midi": 47,
            "name": "B2",
            "ticks": 59856,
            "time": 82.765416375,
            "velocity": 0.7874015748031497
          },
          {
            "duration": 0.1327432500000043,
            "durationTicks": 96,
            "midi": 49,
            "name": "C#3",
            "ticks": 59904,
            "time": 82.831788,
            "velocity": 0.7874015748031497
          },
          {
            "duration": 0.1327432500000043,
            "durationTicks": 96,
            "midi": 44,
            "name": "G#2",
            "ticks": 60096,
            "time": 83.0972745,
            "velocity": 0.7874015748031497
          },
          {
            "duration": 0.1327432500000043,
            "durationTicks": 96,
            "midi": 49,
            "name": "C#3",
            "ticks": 60192,
            "time": 83.23001775,
            "velocity": 0.7874015748031497
          },
          {
            "duration": 0.1327432499999901,
            "durationTicks": 96,
            "midi": 44,
            "name": "G#2",
            "ticks": 60384,
            "time": 83.49550425000001,
            "velocity": 0.7874015748031497
          },
          {
            "duration": 0.1327432500000043,
            "durationTicks": 96,
            "midi": 44,
            "name": "G#2",
            "ticks": 60480,
            "time": 83.6282475,
            "velocity": 0.7874015748031497
          },
          {
            "duration": 0.1327432500000043,
            "durationTicks": 96,
            "midi": 49,
            "name": "C#3",
            "ticks": 60576,
            "time": 83.76099075,
            "velocity": 0.7874015748031497
          },
          {
            "duration": 0.1327432500000043,
            "durationTicks": 96,
            "midi": 44,
            "name": "G#2",
            "ticks": 60768,
            "time": 84.02647725,
            "velocity": 0.7874015748031497
          },
          {
            "duration": 0.1327432500000043,
            "durationTicks": 96,
            "midi": 49,
            "name": "C#3",
            "ticks": 60864,
            "time": 84.1592205,
            "velocity": 0.7874015748031497
          },
          {
            "duration": 0.1327432500000043,
            "durationTicks": 96,
            "midi": 49,
            "name": "C#3",
            "ticks": 61056,
            "time": 84.424707,
            "velocity": 0.7874015748031497
          },
          {
            "duration": 0.1327432500000043,
            "durationTicks": 96,
            "midi": 47,
            "name": "B2",
            "ticks": 61248,
            "time": 84.6901935,
            "velocity": 0.7874015748031497
          },
          {
            "duration": 0.1327432499999901,
            "durationTicks": 96,
            "midi": 47,
            "name": "B2",
            "ticks": 61296,
            "time": 84.75656512500001,
            "velocity": 0.7874015748031497
          },
          {
            "duration": 0.1327432499999901,
            "durationTicks": 96,
            "midi": 47,
            "name": "B2",
            "ticks": 61344,
            "time": 84.82293675000001,
            "velocity": 0.7874015748031497
          },
          {
            "duration": 0.1327432500000043,
            "durationTicks": 96,
            "midi": 47,
            "name": "B2",
            "ticks": 61392,
            "time": 84.889308375,
            "velocity": 0.7874015748031497
          },
          {
            "duration": 0.1327432500000043,
            "durationTicks": 96,
            "midi": 44,
            "name": "G#2",
            "ticks": 61440,
            "time": 84.95568,
            "velocity": 0.7874015748031497
          },
          {
            "duration": 0.1327432500000043,
            "durationTicks": 96,
            "midi": 39,
            "name": "D#2",
            "ticks": 61536,
            "time": 85.08842325,
            "velocity": 0.7874015748031497
          },
          {
            "duration": 0.1327432499999901,
            "durationTicks": 96,
            "midi": 39,
            "name": "D#2",
            "ticks": 61632,
            "time": 85.22116650000001,
            "velocity": 0.7874015748031497
          },
          {
            "duration": 0.1327432500000043,
            "durationTicks": 96,
            "midi": 44,
            "name": "G#2",
            "ticks": 61728,
            "time": 85.35390975,
            "velocity": 0.7874015748031497
          },
          {
            "duration": 0.1327432499999901,
            "durationTicks": 96,
            "midi": 39,
            "name": "D#2",
            "ticks": 61920,
            "time": 85.61939625000001,
            "velocity": 0.7874015748031497
          },
          {
            "duration": 0.1327432500000043,
            "durationTicks": 96,
            "midi": 44,
            "name": "G#2",
            "ticks": 62016,
            "time": 85.7521395,
            "velocity": 0.7874015748031497
          },
          {
            "duration": 0.1327432500000043,
            "durationTicks": 96,
            "midi": 39,
            "name": "D#2",
            "ticks": 62112,
            "time": 85.88488275,
            "velocity": 0.7874015748031497
          },
          {
            "duration": 0.1327432500000043,
            "durationTicks": 96,
            "midi": 49,
            "name": "C#3",
            "ticks": 62208,
            "time": 86.017626,
            "velocity": 0.7874015748031497
          },
          {
            "duration": 0.1327432500000043,
            "durationTicks": 96,
            "midi": 42,
            "name": "F#2",
            "ticks": 62400,
            "time": 86.2831125,
            "velocity": 0.7874015748031497
          },
          {
            "duration": 0.1327432500000043,
            "durationTicks": 96,
            "midi": 42,
            "name": "F#2",
            "ticks": 62448,
            "time": 86.349484125,
            "velocity": 0.7874015748031497
          },
          {
            "duration": 0.1327432500000043,
            "durationTicks": 96,
            "midi": 51,
            "name": "D#3",
            "ticks": 62496,
            "time": 86.41585575,
            "velocity": 0.7874015748031497
          },
          {
            "duration": 0.1327432500000043,
            "durationTicks": 96,
            "midi": 49,
            "name": "C#3",
            "ticks": 62688,
            "time": 86.68134225,
            "velocity": 0.7874015748031497
          },
          {
            "duration": 0.1327432500000043,
            "durationTicks": 96,
            "midi": 49,
            "name": "C#3",
            "ticks": 62736,
            "time": 86.747713875,
            "velocity": 0.7874015748031497
          },
          {
            "duration": 0.2654864999999944,
            "durationTicks": 192,
            "midi": 54,
            "name": "F#3",
            "ticks": 62784,
            "time": 86.8140855,
            "velocity": 0.7874015748031497
          },
          {
            "duration": 0.1327432500000043,
            "durationTicks": 96,
            "midi": 45,
            "name": "A2",
            "ticks": 62976,
            "time": 87.079572,
            "velocity": 0.7874015748031497
          },
          {
            "duration": 0.1327432499999901,
            "durationTicks": 96,
            "midi": 40,
            "name": "E2",
            "ticks": 63168,
            "time": 87.34505850000001,
            "velocity": 0.7874015748031497
          },
          {
            "duration": 0.1327432500000043,
            "durationTicks": 96,
            "midi": 45,
            "name": "A2",
            "ticks": 63264,
            "time": 87.47780175,
            "velocity": 0.7874015748031497
          },
          {
            "duration": 0.1327432500000043,
            "durationTicks": 96,
            "midi": 40,
            "name": "E2",
            "ticks": 63456,
            "time": 87.74328825,
            "velocity": 0.7874015748031497
          },
          {
            "duration": 0.1327432499999901,
            "durationTicks": 96,
            "midi": 40,
            "name": "E2",
            "ticks": 63504,
            "time": 87.80965987500001,
            "velocity": 0.7874015748031497
          },
          {
            "duration": 0.1327432499999901,
            "durationTicks": 96,
            "midi": 40,
            "name": "E2",
            "ticks": 63552,
            "time": 87.87603150000001,
            "velocity": 0.7874015748031497
          },
          {
            "duration": 0.1327432500000043,
            "durationTicks": 96,
            "midi": 40,
            "name": "E2",
            "ticks": 63600,
            "time": 87.942403125,
            "velocity": 0.7874015748031497
          },
          {
            "duration": 0.1327432500000043,
            "durationTicks": 96,
            "midi": 45,
            "name": "A2",
            "ticks": 63648,
            "time": 88.00877475,
            "velocity": 0.7874015748031497
          },
          {
            "duration": 0.1327432499999901,
            "durationTicks": 96,
            "midi": 40,
            "name": "E2",
            "ticks": 63840,
            "time": 88.27426125000001,
            "velocity": 0.7874015748031497
          },
          {
            "duration": 0.1327432500000043,
            "durationTicks": 96,
            "midi": 45,
            "name": "A2",
            "ticks": 63936,
            "time": 88.4070045,
            "velocity": 0.7874015748031497
          },
          {
            "duration": 0.1327432499999901,
            "durationTicks": 96,
            "midi": 45,
            "name": "A2",
            "ticks": 64128,
            "time": 88.67249100000001,
            "velocity": 0.7874015748031497
          },
          {
            "duration": 0.2654865000000086,
            "durationTicks": 192,
            "midi": 47,
            "name": "B2",
            "ticks": 64320,
            "time": 88.9379775,
            "velocity": 0.7874015748031497
          },
          {
            "duration": 0.1327432499999901,
            "durationTicks": 96,
            "midi": 45,
            "name": "A2",
            "ticks": 64512,
            "time": 89.20346400000001,
            "velocity": 0.7874015748031497
          },
          {
            "duration": 0.1327432500000043,
            "durationTicks": 96,
            "midi": 40,
            "name": "E2",
            "ticks": 64704,
            "time": 89.4689505,
            "velocity": 0.7874015748031497
          },
          {
            "duration": 0.1327432499999901,
            "durationTicks": 96,
            "midi": 45,
            "name": "A2",
            "ticks": 64800,
            "time": 89.60169375000001,
            "velocity": 0.7874015748031497
          },
          {
            "duration": 0.1327432500000043,
            "durationTicks": 96,
            "midi": 40,
            "name": "E2",
            "ticks": 64992,
            "time": 89.86718025,
            "velocity": 0.7874015748031497
          },
          {
            "duration": 0.1327432499999901,
            "durationTicks": 96,
            "midi": 40,
            "name": "E2",
            "ticks": 65088,
            "time": 89.99992350000001,
            "velocity": 0.7874015748031497
          },
          {
            "duration": 0.1327432500000043,
            "durationTicks": 96,
            "midi": 45,
            "name": "A2",
            "ticks": 65184,
            "time": 90.13266675,
            "velocity": 0.7874015748031497
          },
          {
            "duration": 0.1327432500000043,
            "durationTicks": 96,
            "midi": 40,
            "name": "E2",
            "ticks": 65376,
            "time": 90.39815325000001,
            "velocity": 0.7874015748031497
          },
          {
            "duration": 0.1327432499999901,
            "durationTicks": 96,
            "midi": 45,
            "name": "A2",
            "ticks": 65472,
            "time": 90.53089650000001,
            "velocity": 0.7874015748031497
          },
          {
            "duration": 0.1327432500000043,
            "durationTicks": 96,
            "midi": 45,
            "name": "A2",
            "ticks": 65664,
            "time": 90.796383,
            "velocity": 0.7874015748031497
          },
          {
            "duration": 0.1327432500000043,
            "durationTicks": 96,
            "midi": 47,
            "name": "B2",
            "ticks": 65856,
            "time": 91.0618695,
            "velocity": 0.7874015748031497
          },
          {
            "duration": 0.1327432500000043,
            "durationTicks": 96,
            "midi": 47,
            "name": "B2",
            "ticks": 65904,
            "time": 91.128241125,
            "velocity": 0.7874015748031497
          },
          {
            "duration": 0.1327432500000043,
            "durationTicks": 96,
            "midi": 47,
            "name": "B2",
            "ticks": 65952,
            "time": 91.19461275,
            "velocity": 0.7874015748031497
          },
          {
            "duration": 0.1327432500000043,
            "durationTicks": 96,
            "midi": 47,
            "name": "B2",
            "ticks": 66000,
            "time": 91.260984375,
            "velocity": 0.7874015748031497
          },
          {
            "duration": 0.1327432499999901,
            "durationTicks": 96,
            "midi": 49,
            "name": "C#3",
            "ticks": 66048,
            "time": 91.32735600000001,
            "velocity": 0.7874015748031497
          },
          {
            "duration": 0.1327432500000043,
            "durationTicks": 96,
            "midi": 44,
            "name": "G#2",
            "ticks": 66240,
            "time": 91.5928425,
            "velocity": 0.7874015748031497
          },
          {
            "duration": 0.1327432500000043,
            "durationTicks": 96,
            "midi": 49,
            "name": "C#3",
            "ticks": 66336,
            "time": 91.72558575000001,
            "velocity": 0.7874015748031497
          },
          {
            "duration": 0.1327432500000043,
            "durationTicks": 96,
            "midi": 44,
            "name": "G#2",
            "ticks": 66528,
            "time": 91.99107225,
            "velocity": 0.7874015748031497
          },
          {
            "duration": 0.1327432500000043,
            "durationTicks": 96,
            "midi": 44,
            "name": "G#2",
            "ticks": 66624,
            "time": 92.1238155,
            "velocity": 0.7874015748031497
          },
          {
            "duration": 0.1327432499999901,
            "durationTicks": 96,
            "midi": 49,
            "name": "C#3",
            "ticks": 66720,
            "time": 92.25655875000001,
            "velocity": 0.7874015748031497
          },
          {
            "duration": 0.1327432500000043,
            "durationTicks": 96,
            "midi": 44,
            "name": "G#2",
            "ticks": 66912,
            "time": 92.52204525,
            "velocity": 0.7874015748031497
          },
          {
            "duration": 0.1327432499999901,
            "durationTicks": 96,
            "midi": 49,
            "name": "C#3",
            "ticks": 67008,
            "time": 92.65478850000001,
            "velocity": 0.7874015748031497
          },
          {
            "duration": 0.1327432500000043,
            "durationTicks": 96,
            "midi": 49,
            "name": "C#3",
            "ticks": 67200,
            "time": 92.920275,
            "velocity": 0.7874015748031497
          },
          {
            "duration": 0.1327432500000043,
            "durationTicks": 96,
            "midi": 47,
            "name": "B2",
            "ticks": 67392,
            "time": 93.1857615,
            "velocity": 0.7874015748031497
          },
          {
            "duration": 0.1327432500000043,
            "durationTicks": 96,
            "midi": 47,
            "name": "B2",
            "ticks": 67440,
            "time": 93.252133125,
            "velocity": 0.7874015748031497
          },
          {
            "duration": 0.1327432500000043,
            "durationTicks": 96,
            "midi": 47,
            "name": "B2",
            "ticks": 67488,
            "time": 93.31850475,
            "velocity": 0.7874015748031497
          },
          {
            "duration": 0.1327432500000043,
            "durationTicks": 96,
            "midi": 47,
            "name": "B2",
            "ticks": 67536,
            "time": 93.384876375,
            "velocity": 0.7874015748031497
          },
          {
            "duration": 0.1327432500000043,
            "durationTicks": 96,
            "midi": 44,
            "name": "G#2",
            "ticks": 67584,
            "time": 93.451248,
            "velocity": 0.7874015748031497
          },
          {
            "duration": 0.1327432499999901,
            "durationTicks": 96,
            "midi": 39,
            "name": "D#2",
            "ticks": 67680,
            "time": 93.58399125000001,
            "velocity": 0.7874015748031497
          },
          {
            "duration": 0.1327432500000043,
            "durationTicks": 96,
            "midi": 39,
            "name": "D#2",
            "ticks": 67776,
            "time": 93.7167345,
            "velocity": 0.7874015748031497
          },
          {
            "duration": 0.1327432500000043,
            "durationTicks": 96,
            "midi": 44,
            "name": "G#2",
            "ticks": 67872,
            "time": 93.84947775,
            "velocity": 0.7874015748031497
          },
          {
            "duration": 0.1327432500000043,
            "durationTicks": 96,
            "midi": 39,
            "name": "D#2",
            "ticks": 68064,
            "time": 94.11496425,
            "velocity": 0.7874015748031497
          },
          {
            "duration": 0.1327432500000043,
            "durationTicks": 96,
            "midi": 44,
            "name": "G#2",
            "ticks": 68160,
            "time": 94.2477075,
            "velocity": 0.7874015748031497
          },
          {
            "duration": 0.1327432499999901,
            "durationTicks": 96,
            "midi": 39,
            "name": "D#2",
            "ticks": 68256,
            "time": 94.38045075000001,
            "velocity": 0.7874015748031497
          },
          {
            "duration": 0.1327432500000043,
            "durationTicks": 96,
            "midi": 47,
            "name": "B2",
            "ticks": 68352,
            "time": 94.513194,
            "velocity": 0.7874015748031497
          },
          {
            "duration": 0.1327432500000043,
            "durationTicks": 96,
            "midi": 42,
            "name": "F#2",
            "ticks": 68544,
            "time": 94.77868050000001,
            "velocity": 0.7874015748031497
          },
          {
            "duration": 0.1327432499999901,
            "durationTicks": 96,
            "midi": 42,
            "name": "F#2",
            "ticks": 68592,
            "time": 94.84505212500001,
            "velocity": 0.7874015748031497
          },
          {
            "duration": 0.1327432499999901,
            "durationTicks": 96,
            "midi": 51,
            "name": "D#3",
            "ticks": 68640,
            "time": 94.91142375000001,
            "velocity": 0.7874015748031497
          },
          {
            "duration": 0.1327432500000043,
            "durationTicks": 96,
            "midi": 47,
            "name": "B2",
            "ticks": 68832,
            "time": 95.17691025,
            "velocity": 0.7874015748031497
          },
          {
            "duration": 0.1327432499999901,
            "durationTicks": 96,
            "midi": 47,
            "name": "B2",
            "ticks": 68880,
            "time": 95.24328187500001,
            "velocity": 0.7874015748031497
          },
          {
            "duration": 0.2654864999999944,
            "durationTicks": 192,
            "midi": 54,
            "name": "F#3",
            "ticks": 68928,
            "time": 95.30965350000001,
            "velocity": 0.7874015748031497
          },
          {
            "duration": 0.1327432500000043,
            "durationTicks": 96,
            "midi": 45,
            "name": "A2",
            "ticks": 69120,
            "time": 95.57514,
            "velocity": 0.7874015748031497
          },
          {
            "duration": 0.1327432500000043,
            "durationTicks": 96,
            "midi": 40,
            "name": "E2",
            "ticks": 69312,
            "time": 95.8406265,
            "velocity": 0.7874015748031497
          },
          {
            "duration": 0.1327432500000043,
            "durationTicks": 96,
            "midi": 45,
            "name": "A2",
            "ticks": 69408,
            "time": 95.97336975,
            "velocity": 0.7874015748031497
          },
          {
            "duration": 0.1327432499999901,
            "durationTicks": 96,
            "midi": 40,
            "name": "E2",
            "ticks": 69600,
            "time": 96.23885625000001,
            "velocity": 0.7874015748031497
          },
          {
            "duration": 0.1327432500000043,
            "durationTicks": 96,
            "midi": 40,
            "name": "E2",
            "ticks": 69648,
            "time": 96.305227875,
            "velocity": 0.7874015748031497
          },
          {
            "duration": 0.1327432500000043,
            "durationTicks": 96,
            "midi": 40,
            "name": "E2",
            "ticks": 69696,
            "time": 96.3715995,
            "velocity": 0.7874015748031497
          },
          {
            "duration": 0.1327432500000043,
            "durationTicks": 96,
            "midi": 40,
            "name": "E2",
            "ticks": 69744,
            "time": 96.437971125,
            "velocity": 0.7874015748031497
          },
          {
            "duration": 0.1327432500000043,
            "durationTicks": 96,
            "midi": 45,
            "name": "A2",
            "ticks": 69792,
            "time": 96.50434275,
            "velocity": 0.7874015748031497
          },
          {
            "duration": 0.1327432500000043,
            "durationTicks": 96,
            "midi": 40,
            "name": "E2",
            "ticks": 69984,
            "time": 96.76982925,
            "velocity": 0.7874015748031497
          },
          {
            "duration": 0.1327432500000043,
            "durationTicks": 96,
            "midi": 45,
            "name": "A2",
            "ticks": 70080,
            "time": 96.9025725,
            "velocity": 0.7874015748031497
          },
          {
            "duration": 0.1327432500000043,
            "durationTicks": 96,
            "midi": 45,
            "name": "A2",
            "ticks": 70272,
            "time": 97.168059,
            "velocity": 0.7874015748031497
          },
          {
            "duration": 0.2654864999999944,
            "durationTicks": 192,
            "midi": 47,
            "name": "B2",
            "ticks": 70464,
            "time": 97.43354550000001,
            "velocity": 0.7874015748031497
          },
          {
            "duration": 0.1327432500000043,
            "durationTicks": 96,
            "midi": 45,
            "name": "A2",
            "ticks": 70656,
            "time": 97.699032,
            "velocity": 0.7874015748031497
          },
          {
            "duration": 0.1327432499999901,
            "durationTicks": 96,
            "midi": 40,
            "name": "E2",
            "ticks": 70848,
            "time": 97.96451850000001,
            "velocity": 0.7874015748031497
          },
          {
            "duration": 0.1327432500000043,
            "durationTicks": 96,
            "midi": 45,
            "name": "A2",
            "ticks": 70944,
            "time": 98.09726175,
            "velocity": 0.7874015748031497
          },
          {
            "duration": 0.1327432499999901,
            "durationTicks": 96,
            "midi": 40,
            "name": "E2",
            "ticks": 71136,
            "time": 98.36274825000001,
            "velocity": 0.7874015748031497
          },
          {
            "duration": 0.1327432500000043,
            "durationTicks": 96,
            "midi": 40,
            "name": "E2",
            "ticks": 71232,
            "time": 98.4954915,
            "velocity": 0.7874015748031497
          },
          {
            "duration": 0.1327432500000043,
            "durationTicks": 96,
            "midi": 45,
            "name": "A2",
            "ticks": 71328,
            "time": 98.62823475,
            "velocity": 0.7874015748031497
          },
          {
            "duration": 0.1327432500000043,
            "durationTicks": 96,
            "midi": 40,
            "name": "E2",
            "ticks": 71520,
            "time": 98.89372125,
            "velocity": 0.7874015748031497
          },
          {
            "duration": 0.1327432500000043,
            "durationTicks": 96,
            "midi": 45,
            "name": "A2",
            "ticks": 71616,
            "time": 99.0264645,
            "velocity": 0.7874015748031497
          },
          {
            "duration": 0.1327432499999901,
            "durationTicks": 96,
            "midi": 45,
            "name": "A2",
            "ticks": 71808,
            "time": 99.29195100000001,
            "velocity": 0.7874015748031497
          },
          {
            "duration": 0.1327432500000043,
            "durationTicks": 96,
            "midi": 47,
            "name": "B2",
            "ticks": 72000,
            "time": 99.5574375,
            "velocity": 0.7874015748031497
          },
          {
            "duration": 0.1327432499999901,
            "durationTicks": 96,
            "midi": 47,
            "name": "B2",
            "ticks": 72048,
            "time": 99.62380912500001,
            "velocity": 0.7874015748031497
          },
          {
            "duration": 0.1327432499999901,
            "durationTicks": 96,
            "midi": 47,
            "name": "B2",
            "ticks": 72096,
            "time": 99.69018075000001,
            "velocity": 0.7874015748031497
          },
          {
            "duration": 0.1327432500000043,
            "durationTicks": 96,
            "midi": 47,
            "name": "B2",
            "ticks": 72144,
            "time": 99.756552375,
            "velocity": 0.7874015748031497
          },
          {
            "duration": 0.1327432500000043,
            "durationTicks": 96,
            "midi": 49,
            "name": "C#3",
            "ticks": 72192,
            "time": 99.822924,
            "velocity": 0.7874015748031497
          },
          {
            "duration": 0.1327432499999901,
            "durationTicks": 96,
            "midi": 44,
            "name": "G#2",
            "ticks": 72384,
            "time": 100.08841050000001,
            "velocity": 0.7874015748031497
          },
          {
            "duration": 0.1327432500000043,
            "durationTicks": 96,
            "midi": 49,
            "name": "C#3",
            "ticks": 72480,
            "time": 100.22115375,
            "velocity": 0.7874015748031497
          },
          {
            "duration": 0.1327432500000043,
            "durationTicks": 96,
            "midi": 44,
            "name": "G#2",
            "ticks": 72672,
            "time": 100.48664025000001,
            "velocity": 0.7874015748031497
          },
          {
            "duration": 0.1327432499999901,
            "durationTicks": 96,
            "midi": 44,
            "name": "G#2",
            "ticks": 72768,
            "time": 100.61938350000001,
            "velocity": 0.7874015748031497
          },
          {
            "duration": 0.1327432500000043,
            "durationTicks": 96,
            "midi": 49,
            "name": "C#3",
            "ticks": 72864,
            "time": 100.75212675,
            "velocity": 0.7874015748031497
          },
          {
            "duration": 0.1327432499999901,
            "durationTicks": 96,
            "midi": 44,
            "name": "G#2",
            "ticks": 73056,
            "time": 101.01761325000001,
            "velocity": 0.7874015748031497
          },
          {
            "duration": 0.1327432500000043,
            "durationTicks": 96,
            "midi": 49,
            "name": "C#3",
            "ticks": 73152,
            "time": 101.1503565,
            "velocity": 0.7874015748031497
          },
          {
            "duration": 0.1327432499999901,
            "durationTicks": 96,
            "midi": 49,
            "name": "C#3",
            "ticks": 73344,
            "time": 101.41584300000001,
            "velocity": 0.7874015748031497
          },
          {
            "duration": 0.1327432500000043,
            "durationTicks": 96,
            "midi": 47,
            "name": "B2",
            "ticks": 73536,
            "time": 101.6813295,
            "velocity": 0.7874015748031497
          },
          {
            "duration": 0.1327432500000043,
            "durationTicks": 96,
            "midi": 47,
            "name": "B2",
            "ticks": 73584,
            "time": 101.747701125,
            "velocity": 0.7874015748031497
          },
          {
            "duration": 0.1327432500000043,
            "durationTicks": 96,
            "midi": 47,
            "name": "B2",
            "ticks": 73632,
            "time": 101.81407275000001,
            "velocity": 0.7874015748031497
          },
          {
            "duration": 0.1327432499999901,
            "durationTicks": 96,
            "midi": 47,
            "name": "B2",
            "ticks": 73680,
            "time": 101.88044437500001,
            "velocity": 0.7874015748031497
          },
          {
            "duration": 0.1327432499999901,
            "durationTicks": 96,
            "midi": 44,
            "name": "G#2",
            "ticks": 73728,
            "time": 101.94681600000001,
            "velocity": 0.7874015748031497
          },
          {
            "duration": 0.1327432500000043,
            "durationTicks": 96,
            "midi": 39,
            "name": "D#2",
            "ticks": 73824,
            "time": 102.07955925,
            "velocity": 0.7874015748031497
          },
          {
            "duration": 0.1327432500000043,
            "durationTicks": 96,
            "midi": 39,
            "name": "D#2",
            "ticks": 73920,
            "time": 102.2123025,
            "velocity": 0.7874015748031497
          },
          {
            "duration": 0.1327432499999901,
            "durationTicks": 96,
            "midi": 44,
            "name": "G#2",
            "ticks": 74016,
            "time": 102.34504575000001,
            "velocity": 0.7874015748031497
          },
          {
            "duration": 0.1327432500000043,
            "durationTicks": 96,
            "midi": 39,
            "name": "D#2",
            "ticks": 74208,
            "time": 102.61053225,
            "velocity": 0.7874015748031497
          },
          {
            "duration": 0.1327432499999901,
            "durationTicks": 96,
            "midi": 44,
            "name": "G#2",
            "ticks": 74304,
            "time": 102.74327550000001,
            "velocity": 0.7874015748031497
          },
          {
            "duration": 0.1327432500000043,
            "durationTicks": 96,
            "midi": 39,
            "name": "D#2",
            "ticks": 74400,
            "time": 102.87601875,
            "velocity": 0.7874015748031497
          },
          {
            "duration": 0.1327432500000043,
            "durationTicks": 96,
            "midi": 49,
            "name": "C#3",
            "ticks": 74496,
            "time": 103.008762,
            "velocity": 0.7874015748031497
          },
          {
            "duration": 0.1327432500000043,
            "durationTicks": 96,
            "midi": 42,
            "name": "F#2",
            "ticks": 74688,
            "time": 103.2742485,
            "velocity": 0.7874015748031497
          },
          {
            "duration": 0.1327432500000043,
            "durationTicks": 96,
            "midi": 42,
            "name": "F#2",
            "ticks": 74736,
            "time": 103.340620125,
            "velocity": 0.7874015748031497
          },
          {
            "duration": 0.1327432500000043,
            "durationTicks": 96,
            "midi": 51,
            "name": "D#3",
            "ticks": 74784,
            "time": 103.40699175,
            "velocity": 0.7874015748031497
          },
          {
            "duration": 0.1327432499999901,
            "durationTicks": 96,
            "midi": 49,
            "name": "C#3",
            "ticks": 74976,
            "time": 103.67247825000001,
            "velocity": 0.7874015748031497
          },
          {
            "duration": 0.1327432500000043,
            "durationTicks": 96,
            "midi": 49,
            "name": "C#3",
            "ticks": 75024,
            "time": 103.738849875,
            "velocity": 0.7874015748031497
          },
          {
            "duration": 0.2654865000000086,
            "durationTicks": 192,
            "midi": 54,
            "name": "F#3",
            "ticks": 75072,
            "time": 103.8052215,
            "velocity": 0.7874015748031497
          },
          {
            "duration": 0.1327432500000043,
            "durationTicks": 96,
            "midi": 76,
            "name": "E5",
            "ticks": 81408,
            "time": 112.566276,
            "velocity": 0.7874015748031497
          },
          {
            "duration": 0.1327432500000043,
            "durationTicks": 96,
            "midi": 73,
            "name": "C#5",
            "ticks": 81408,
            "time": 112.566276,
            "velocity": 0.7874015748031497
          },
          {
            "duration": 0.1327432500000043,
            "durationTicks": 96,
            "midi": 80,
            "name": "G#5",
            "ticks": 81504,
            "time": 112.69901925,
            "velocity": 0.7874015748031497
          },
          {
            "duration": 0.1327432500000043,
            "durationTicks": 96,
            "midi": 76,
            "name": "E5",
            "ticks": 81504,
            "time": 112.69901925,
            "velocity": 0.7874015748031497
          },
          {
            "duration": 0.1327432499999901,
            "durationTicks": 96,
            "midi": 78,
            "name": "F#5",
            "ticks": 81600,
            "time": 112.83176250000001,
            "velocity": 0.7874015748031497
          },
          {
            "duration": 0.1327432499999901,
            "durationTicks": 96,
            "midi": 75,
            "name": "D#5",
            "ticks": 81600,
            "time": 112.83176250000001,
            "velocity": 0.7874015748031497
          },
          {
            "duration": 0.1327432500000043,
            "durationTicks": 96,
            "midi": 80,
            "name": "G#5",
            "ticks": 81696,
            "time": 112.96450575,
            "velocity": 0.7874015748031497
          },
          {
            "duration": 0.1327432500000043,
            "durationTicks": 96,
            "midi": 76,
            "name": "E5",
            "ticks": 81696,
            "time": 112.96450575,
            "velocity": 0.7874015748031497
          },
          {
            "duration": 0.1327432500000043,
            "durationTicks": 96,
            "midi": 76,
            "name": "E5",
            "ticks": 81792,
            "time": 113.097249,
            "velocity": 0.7874015748031497
          },
          {
            "duration": 0.1327432500000043,
            "durationTicks": 96,
            "midi": 73,
            "name": "C#5",
            "ticks": 81792,
            "time": 113.097249,
            "velocity": 0.7874015748031497
          },
          {
            "duration": 0.2654865000000086,
            "durationTicks": 192,
            "midi": 73,
            "name": "C#5",
            "ticks": 82080,
            "time": 113.49547875,
            "velocity": 0.7874015748031497
          },
          {
            "duration": 0.2654865000000086,
            "durationTicks": 192,
            "midi": 76,
            "name": "E5",
            "ticks": 82080,
            "time": 113.49547875,
            "velocity": 0.7874015748031497
          },
          {
            "duration": 0.1327432499999901,
            "durationTicks": 96,
            "midi": 78,
            "name": "F#5",
            "ticks": 82272,
            "time": 113.76096525000001,
            "velocity": 0.7874015748031497
          },
          {
            "duration": 0.1327432499999901,
            "durationTicks": 96,
            "midi": 75,
            "name": "D#5",
            "ticks": 82272,
            "time": 113.76096525000001,
            "velocity": 0.7874015748031497
          },
          {
            "duration": 0.1327432500000043,
            "durationTicks": 96,
            "midi": 76,
            "name": "E5",
            "ticks": 82368,
            "time": 113.8937085,
            "velocity": 0.7874015748031497
          },
          {
            "duration": 0.1327432500000043,
            "durationTicks": 96,
            "midi": 80,
            "name": "G#5",
            "ticks": 82368,
            "time": 113.8937085,
            "velocity": 0.7874015748031497
          },
          {
            "duration": 0.1327432500000043,
            "durationTicks": 96,
            "midi": 88,
            "name": "E6",
            "ticks": 82464,
            "time": 114.02645175,
            "velocity": 0.7874015748031497
          },
          {
            "duration": 0.1327432500000043,
            "durationTicks": 96,
            "midi": 83,
            "name": "B5",
            "ticks": 82464,
            "time": 114.02645175,
            "velocity": 0.7874015748031497
          },
          {
            "duration": 0.1327432499999901,
            "durationTicks": 96,
            "midi": 85,
            "name": "C#6",
            "ticks": 82560,
            "time": 114.15919500000001,
            "velocity": 0.7874015748031497
          },
          {
            "duration": 0.1327432499999901,
            "durationTicks": 96,
            "midi": 80,
            "name": "G#5",
            "ticks": 82560,
            "time": 114.15919500000001,
            "velocity": 0.7874015748031497
          },
          {
            "duration": 0.1327432500000043,
            "durationTicks": 96,
            "midi": 76,
            "name": "E5",
            "ticks": 82944,
            "time": 114.690168,
            "velocity": 0.7874015748031497
          },
          {
            "duration": 0.1327432500000043,
            "durationTicks": 96,
            "midi": 73,
            "name": "C#5",
            "ticks": 82944,
            "time": 114.690168,
            "velocity": 0.7874015748031497
          },
          {
            "duration": 0.1327432500000043,
            "durationTicks": 96,
            "midi": 76,
            "name": "E5",
            "ticks": 83040,
            "time": 114.82291125,
            "velocity": 0.7874015748031497
          },
          {
            "duration": 0.1327432500000043,
            "durationTicks": 96,
            "midi": 80,
            "name": "G#5",
            "ticks": 83040,
            "time": 114.82291125,
            "velocity": 0.7874015748031497
          },
          {
            "duration": 0.1327432500000043,
            "durationTicks": 96,
            "midi": 75,
            "name": "D#5",
            "ticks": 83136,
            "time": 114.95565450000001,
            "velocity": 0.7874015748031497
          },
          {
            "duration": 0.1327432500000043,
            "durationTicks": 96,
            "midi": 78,
            "name": "F#5",
            "ticks": 83136,
            "time": 114.95565450000001,
            "velocity": 0.7874015748031497
          },
          {
            "duration": 0.1327432499999901,
            "durationTicks": 96,
            "midi": 80,
            "name": "G#5",
            "ticks": 83232,
            "time": 115.08839775000001,
            "velocity": 0.7874015748031497
          },
          {
            "duration": 0.1327432499999901,
            "durationTicks": 96,
            "midi": 76,
            "name": "E5",
            "ticks": 83232,
            "time": 115.08839775000001,
            "velocity": 0.7874015748031497
          },
          {
            "duration": 0.1327432500000043,
            "durationTicks": 96,
            "midi": 76,
            "name": "E5",
            "ticks": 83328,
            "time": 115.221141,
            "velocity": 0.7874015748031497
          },
          {
            "duration": 0.1327432500000043,
            "durationTicks": 96,
            "midi": 73,
            "name": "C#5",
            "ticks": 83328,
            "time": 115.221141,
            "velocity": 0.7874015748031497
          },
          {
            "duration": 0.1327432499999901,
            "durationTicks": 96,
            "midi": 73,
            "name": "C#5",
            "ticks": 84480,
            "time": 116.81406000000001,
            "velocity": 0.7874015748031497
          },
          {
            "duration": 0.1327432499999901,
            "durationTicks": 96,
            "midi": 76,
            "name": "E5",
            "ticks": 84480,
            "time": 116.81406000000001,
            "velocity": 0.7874015748031497
          },
          {
            "duration": 0.1327432500000043,
            "durationTicks": 96,
            "midi": 80,
            "name": "G#5",
            "ticks": 84576,
            "time": 116.94680325,
            "velocity": 0.7874015748031497
          },
          {
            "duration": 0.1327432500000043,
            "durationTicks": 96,
            "midi": 76,
            "name": "E5",
            "ticks": 84576,
            "time": 116.94680325,
            "velocity": 0.7874015748031497
          },
          {
            "duration": 0.1327432500000043,
            "durationTicks": 96,
            "midi": 78,
            "name": "F#5",
            "ticks": 84672,
            "time": 117.0795465,
            "velocity": 0.7874015748031497
          },
          {
            "duration": 0.1327432500000043,
            "durationTicks": 96,
            "midi": 75,
            "name": "D#5",
            "ticks": 84672,
            "time": 117.0795465,
            "velocity": 0.7874015748031497
          },
          {
            "duration": 0.1327432499999901,
            "durationTicks": 96,
            "midi": 80,
            "name": "G#5",
            "ticks": 84768,
            "time": 117.21228975000001,
            "velocity": 0.7874015748031497
          },
          {
            "duration": 0.1327432499999901,
            "durationTicks": 96,
            "midi": 76,
            "name": "E5",
            "ticks": 84768,
            "time": 117.21228975000001,
            "velocity": 0.7874015748031497
          },
          {
            "duration": 0.1327432500000043,
            "durationTicks": 96,
            "midi": 73,
            "name": "C#5",
            "ticks": 84864,
            "time": 117.345033,
            "velocity": 0.7874015748031497
          },
          {
            "duration": 0.1327432500000043,
            "durationTicks": 96,
            "midi": 76,
            "name": "E5",
            "ticks": 84864,
            "time": 117.345033,
            "velocity": 0.7874015748031497
          },
          {
            "duration": 0.2654865000000086,
            "durationTicks": 192,
            "midi": 76,
            "name": "E5",
            "ticks": 85152,
            "time": 117.74326275,
            "velocity": 0.7874015748031497
          },
          {
            "duration": 0.2654865000000086,
            "durationTicks": 192,
            "midi": 73,
            "name": "C#5",
            "ticks": 85152,
            "time": 117.74326275,
            "velocity": 0.7874015748031497
          },
          {
            "duration": 0.1327432500000043,
            "durationTicks": 96,
            "midi": 75,
            "name": "D#5",
            "ticks": 85344,
            "time": 118.00874925000001,
            "velocity": 0.7874015748031497
          },
          {
            "duration": 0.1327432500000043,
            "durationTicks": 96,
            "midi": 78,
            "name": "F#5",
            "ticks": 85344,
            "time": 118.00874925000001,
            "velocity": 0.7874015748031497
          },
          {
            "duration": 0.1327432499999901,
            "durationTicks": 96,
            "midi": 80,
            "name": "G#5",
            "ticks": 85440,
            "time": 118.14149250000001,
            "velocity": 0.7874015748031497
          },
          {
            "duration": 0.1327432499999901,
            "durationTicks": 96,
            "midi": 76,
            "name": "E5",
            "ticks": 85440,
            "time": 118.14149250000001,
            "velocity": 0.7874015748031497
          },
          {
            "duration": 0.1327432500000043,
            "durationTicks": 96,
            "midi": 83,
            "name": "B5",
            "ticks": 85536,
            "time": 118.27423575,
            "velocity": 0.7874015748031497
          },
          {
            "duration": 0.1327432500000043,
            "durationTicks": 96,
            "midi": 88,
            "name": "E6",
            "ticks": 85536,
            "time": 118.27423575,
            "velocity": 0.7874015748031497
          },
          {
            "duration": 0.1327432500000043,
            "durationTicks": 96,
            "midi": 80,
            "name": "G#5",
            "ticks": 85632,
            "time": 118.406979,
            "velocity": 0.7874015748031497
          },
          {
            "duration": 0.1327432500000043,
            "durationTicks": 96,
            "midi": 85,
            "name": "C#6",
            "ticks": 85632,
            "time": 118.406979,
            "velocity": 0.7874015748031497
          },
          {
            "duration": 0.1327432499999901,
            "durationTicks": 96,
            "midi": 73,
            "name": "C#5",
            "ticks": 86016,
            "time": 118.93795200000001,
            "velocity": 0.7874015748031497
          },
          {
            "duration": 0.1327432499999901,
            "durationTicks": 96,
            "midi": 76,
            "name": "E5",
            "ticks": 86016,
            "time": 118.93795200000001,
            "velocity": 0.7874015748031497
          },
          {
            "duration": 0.1327432500000043,
            "durationTicks": 96,
            "midi": 80,
            "name": "G#5",
            "ticks": 86112,
            "time": 119.07069525,
            "velocity": 0.7874015748031497
          },
          {
            "duration": 0.1327432500000043,
            "durationTicks": 96,
            "midi": 76,
            "name": "E5",
            "ticks": 86112,
            "time": 119.07069525,
            "velocity": 0.7874015748031497
          },
          {
            "duration": 0.1327432500000043,
            "durationTicks": 96,
            "midi": 78,
            "name": "F#5",
            "ticks": 86208,
            "time": 119.2034385,
            "velocity": 0.7874015748031497
          },
          {
            "duration": 0.1327432500000043,
            "durationTicks": 96,
            "midi": 75,
            "name": "D#5",
            "ticks": 86208,
            "time": 119.2034385,
            "velocity": 0.7874015748031497
          },
          {
            "duration": 0.1327432500000043,
            "durationTicks": 96,
            "midi": 76,
            "name": "E5",
            "ticks": 86304,
            "time": 119.33618175000001,
            "velocity": 0.7874015748031497
          },
          {
            "duration": 0.1327432500000043,
            "durationTicks": 96,
            "midi": 80,
            "name": "G#5",
            "ticks": 86304,
            "time": 119.33618175000001,
            "velocity": 0.7874015748031497
          },
          {
            "duration": 0.1327432499999901,
            "durationTicks": 96,
            "midi": 73,
            "name": "C#5",
            "ticks": 86400,
            "time": 119.46892500000001,
            "velocity": 0.7874015748031497
          },
          {
            "duration": 0.1327432499999901,
            "durationTicks": 96,
            "midi": 76,
            "name": "E5",
            "ticks": 86400,
            "time": 119.46892500000001,
            "velocity": 0.7874015748031497
          },
          {
            "duration": 0.1327432500000043,
            "durationTicks": 96,
            "midi": 73,
            "name": "C#5",
            "ticks": 87552,
            "time": 121.06184400000001,
            "velocity": 0.7874015748031497
          },
          {
            "duration": 0.1327432500000043,
            "durationTicks": 96,
            "midi": 76,
            "name": "E5",
            "ticks": 87552,
            "time": 121.06184400000001,
            "velocity": 0.7874015748031497
          },
          {
            "duration": 0.1327432499999901,
            "durationTicks": 96,
            "midi": 76,
            "name": "E5",
            "ticks": 87648,
            "time": 121.19458725000001,
            "velocity": 0.7874015748031497
          },
          {
            "duration": 0.1327432499999901,
            "durationTicks": 96,
            "midi": 80,
            "name": "G#5",
            "ticks": 87648,
            "time": 121.19458725000001,
            "velocity": 0.7874015748031497
          },
          {
            "duration": 0.1327432500000043,
            "durationTicks": 96,
            "midi": 78,
            "name": "F#5",
            "ticks": 87744,
            "time": 121.3273305,
            "velocity": 0.7874015748031497
          },
          {
            "duration": 0.1327432500000043,
            "durationTicks": 96,
            "midi": 75,
            "name": "D#5",
            "ticks": 87744,
            "time": 121.3273305,
            "velocity": 0.7874015748031497
          },
          {
            "duration": 0.1327432500000043,
            "durationTicks": 96,
            "midi": 80,
            "name": "G#5",
            "ticks": 87840,
            "time": 121.46007375,
            "velocity": 0.7874015748031497
          },
          {
            "duration": 0.1327432500000043,
            "durationTicks": 96,
            "midi": 76,
            "name": "E5",
            "ticks": 87840,
            "time": 121.46007375,
            "velocity": 0.7874015748031497
          },
          {
            "duration": 0.1327432499999901,
            "durationTicks": 96,
            "midi": 76,
            "name": "E5",
            "ticks": 87936,
            "time": 121.59281700000001,
            "velocity": 0.7874015748031497
          },
          {
            "duration": 0.1327432499999901,
            "durationTicks": 96,
            "midi": 73,
            "name": "C#5",
            "ticks": 87936,
            "time": 121.59281700000001,
            "velocity": 0.7874015748031497
          },
          {
            "duration": 0.2654864999999944,
            "durationTicks": 192,
            "midi": 73,
            "name": "C#5",
            "ticks": 88224,
            "time": 121.99104675000001,
            "velocity": 0.7874015748031497
          },
          {
            "duration": 0.2654864999999944,
            "durationTicks": 192,
            "midi": 76,
            "name": "E5",
            "ticks": 88224,
            "time": 121.99104675000001,
            "velocity": 0.7874015748031497
          },
          {
            "duration": 0.1327432500000043,
            "durationTicks": 96,
            "midi": 75,
            "name": "D#5",
            "ticks": 88416,
            "time": 122.25653325,
            "velocity": 0.7874015748031497
          },
          {
            "duration": 0.1327432500000043,
            "durationTicks": 96,
            "midi": 78,
            "name": "F#5",
            "ticks": 88416,
            "time": 122.25653325,
            "velocity": 0.7874015748031497
          },
          {
            "duration": 0.1327432500000043,
            "durationTicks": 96,
            "midi": 80,
            "name": "G#5",
            "ticks": 88512,
            "time": 122.38927650000001,
            "velocity": 0.7874015748031497
          },
          {
            "duration": 0.1327432500000043,
            "durationTicks": 96,
            "midi": 76,
            "name": "E5",
            "ticks": 88512,
            "time": 122.38927650000001,
            "velocity": 0.7874015748031497
          },
          {
            "duration": 0.1327432499999901,
            "durationTicks": 96,
            "midi": 88,
            "name": "E6",
            "ticks": 88608,
            "time": 122.52201975000001,
            "velocity": 0.7874015748031497
          },
          {
            "duration": 0.1327432499999901,
            "durationTicks": 96,
            "midi": 83,
            "name": "B5",
            "ticks": 88608,
            "time": 122.52201975000001,
            "velocity": 0.7874015748031497
          },
          {
            "duration": 0.1327432500000043,
            "durationTicks": 96,
            "midi": 85,
            "name": "C#6",
            "ticks": 88704,
            "time": 122.654763,
            "velocity": 0.7874015748031497
          },
          {
            "duration": 0.1327432500000043,
            "durationTicks": 96,
            "midi": 80,
            "name": "G#5",
            "ticks": 88704,
            "time": 122.654763,
            "velocity": 0.7874015748031497
          },
          {
            "duration": 0.1327432500000043,
            "durationTicks": 96,
            "midi": 73,
            "name": "C#5",
            "ticks": 89088,
            "time": 123.185736,
            "velocity": 0.7874015748031497
          },
          {
            "duration": 0.1327432500000043,
            "durationTicks": 96,
            "midi": 76,
            "name": "E5",
            "ticks": 89088,
            "time": 123.185736,
            "velocity": 0.7874015748031497
          },
          {
            "duration": 0.1327432499999901,
            "durationTicks": 96,
            "midi": 80,
            "name": "G#5",
            "ticks": 89184,
            "time": 123.31847925000001,
            "velocity": 0.7874015748031497
          },
          {
            "duration": 0.1327432499999901,
            "durationTicks": 96,
            "midi": 76,
            "name": "E5",
            "ticks": 89184,
            "time": 123.31847925000001,
            "velocity": 0.7874015748031497
          },
          {
            "duration": 0.1327432500000043,
            "durationTicks": 96,
            "midi": 75,
            "name": "D#5",
            "ticks": 89280,
            "time": 123.4512225,
            "velocity": 0.7874015748031497
          },
          {
            "duration": 0.1327432500000043,
            "durationTicks": 96,
            "midi": 78,
            "name": "F#5",
            "ticks": 89280,
            "time": 123.4512225,
            "velocity": 0.7874015748031497
          },
          {
            "duration": 0.1327432500000043,
            "durationTicks": 96,
            "midi": 80,
            "name": "G#5",
            "ticks": 89376,
            "time": 123.58396575,
            "velocity": 0.7874015748031497
          },
          {
            "duration": 0.1327432500000043,
            "durationTicks": 96,
            "midi": 76,
            "name": "E5",
            "ticks": 89376,
            "time": 123.58396575,
            "velocity": 0.7874015748031497
          },
          {
            "duration": 0.1327432500000043,
            "durationTicks": 96,
            "midi": 76,
            "name": "E5",
            "ticks": 89472,
            "time": 123.71670900000001,
            "velocity": 0.7874015748031497
          },
          {
            "duration": 0.1327432500000043,
            "durationTicks": 96,
            "midi": 73,
            "name": "C#5",
            "ticks": 89472,
            "time": 123.71670900000001,
            "velocity": 0.7874015748031497
          },
          {
            "duration": 0.1327432500000043,
            "durationTicks": 96,
            "midi": 76,
            "name": "E5",
            "ticks": 90624,
            "time": 125.309628,
            "velocity": 0.7874015748031497
          },
          {
            "duration": 0.1327432500000043,
            "durationTicks": 96,
            "midi": 73,
            "name": "C#5",
            "ticks": 90624,
            "time": 125.309628,
            "velocity": 0.7874015748031497
          },
          {
            "duration": 0.1327432500000043,
            "durationTicks": 96,
            "midi": 80,
            "name": "G#5",
            "ticks": 90720,
            "time": 125.44237125000001,
            "velocity": 0.7874015748031497
          },
          {
            "duration": 0.1327432500000043,
            "durationTicks": 96,
            "midi": 76,
            "name": "E5",
            "ticks": 90720,
            "time": 125.44237125000001,
            "velocity": 0.7874015748031497
          },
          {
            "duration": 0.1327432499999901,
            "durationTicks": 96,
            "midi": 75,
            "name": "D#5",
            "ticks": 90816,
            "time": 125.57511450000001,
            "velocity": 0.7874015748031497
          },
          {
            "duration": 0.1327432499999901,
            "durationTicks": 96,
            "midi": 78,
            "name": "F#5",
            "ticks": 90816,
            "time": 125.57511450000001,
            "velocity": 0.7874015748031497
          },
          {
            "duration": 0.1327432500000043,
            "durationTicks": 96,
            "midi": 80,
            "name": "G#5",
            "ticks": 90912,
            "time": 125.70785775,
            "velocity": 0.7874015748031497
          },
          {
            "duration": 0.1327432500000043,
            "durationTicks": 96,
            "midi": 76,
            "name": "E5",
            "ticks": 90912,
            "time": 125.70785775,
            "velocity": 0.7874015748031497
          },
          {
            "duration": 0.1327432500000043,
            "durationTicks": 96,
            "midi": 76,
            "name": "E5",
            "ticks": 91008,
            "time": 125.840601,
            "velocity": 0.7874015748031497
          },
          {
            "duration": 0.1327432500000043,
            "durationTicks": 96,
            "midi": 73,
            "name": "C#5",
            "ticks": 91008,
            "time": 125.840601,
            "velocity": 0.7874015748031497
          },
          {
            "duration": 0.2654864999999944,
            "durationTicks": 192,
            "midi": 73,
            "name": "C#5",
            "ticks": 91296,
            "time": 126.23883075,
            "velocity": 0.7874015748031497
          },
          {
            "duration": 0.2654864999999944,
            "durationTicks": 192,
            "midi": 76,
            "name": "E5",
            "ticks": 91296,
            "time": 126.23883075,
            "velocity": 0.7874015748031497
          },
          {
            "duration": 0.1327432500000043,
            "durationTicks": 96,
            "midi": 78,
            "name": "F#5",
            "ticks": 91488,
            "time": 126.50431725,
            "velocity": 0.7874015748031497
          },
          {
            "duration": 0.1327432500000043,
            "durationTicks": 96,
            "midi": 75,
            "name": "D#5",
            "ticks": 91488,
            "time": 126.50431725,
            "velocity": 0.7874015748031497
          },
          {
            "duration": 0.1327432500000043,
            "durationTicks": 96,
            "midi": 76,
            "name": "E5",
            "ticks": 91584,
            "time": 126.6370605,
            "velocity": 0.7874015748031497
          },
          {
            "duration": 0.1327432500000043,
            "durationTicks": 96,
            "midi": 80,
            "name": "G#5",
            "ticks": 91584,
            "time": 126.6370605,
            "velocity": 0.7874015748031497
          },
          {
            "duration": 0.1327432500000043,
            "durationTicks": 96,
            "midi": 88,
            "name": "E6",
            "ticks": 91680,
            "time": 126.76980375000001,
            "velocity": 0.7874015748031497
          },
          {
            "duration": 0.1327432500000043,
            "durationTicks": 96,
            "midi": 83,
            "name": "B5",
            "ticks": 91680,
            "time": 126.76980375000001,
            "velocity": 0.7874015748031497
          },
          {
            "duration": 0.1327432499999901,
            "durationTicks": 96,
            "midi": 85,
            "name": "C#6",
            "ticks": 91776,
            "time": 126.90254700000001,
            "velocity": 0.7874015748031497
          },
          {
            "duration": 0.1327432499999901,
            "durationTicks": 96,
            "midi": 80,
            "name": "G#5",
            "ticks": 91776,
            "time": 126.90254700000001,
            "velocity": 0.7874015748031497
          },
          {
            "duration": 0.1327432500000043,
            "durationTicks": 96,
            "midi": 49,
            "name": "C#3",
            "ticks": 122880,
            "time": 169.91136,
            "velocity": 0.7874015748031497
          },
          {
            "duration": 0.1327432500000043,
            "durationTicks": 96,
            "midi": 44,
            "name": "G#2",
            "ticks": 122976,
            "time": 170.04410325,
            "velocity": 0.5905511811023622
          },
          {
            "duration": 0.1327432500000043,
            "durationTicks": 96,
            "midi": 37,
            "name": "C#2",
            "ticks": 123072,
            "time": 170.1768465,
            "velocity": 0.5905511811023622
          },
          {
            "duration": 0.1327432500000043,
            "durationTicks": 96,
            "midi": 44,
            "name": "G#2",
            "ticks": 123168,
            "time": 170.30958975000001,
            "velocity": 0.7874015748031497
          },
          {
            "duration": 0.1327432499999759,
            "durationTicks": 96,
            "midi": 37,
            "name": "C#2",
            "ticks": 123264,
            "time": 170.44233300000002,
            "velocity": 0.5905511811023622
          },
          {
            "duration": 0.1327432500000043,
            "durationTicks": 96,
            "midi": 32,
            "name": "G#1",
            "ticks": 123360,
            "time": 170.57507625,
            "velocity": 0.5905511811023622
          },
          {
            "duration": 0.1327432500000043,
            "durationTicks": 96,
            "midi": 47,
            "name": "B2",
            "ticks": 123456,
            "time": 170.7078195,
            "velocity": 0.7874015748031497
          },
          {
            "duration": 0.1327432500000043,
            "durationTicks": 96,
            "midi": 42,
            "name": "F#2",
            "ticks": 123552,
            "time": 170.84056275,
            "velocity": 0.5905511811023622
          },
          {
            "duration": 0.1327432500000043,
            "durationTicks": 96,
            "midi": 46,
            "name": "A#2",
            "ticks": 123648,
            "time": 170.973306,
            "velocity": 0.7874015748031497
          },
          {
            "duration": 0.1327432500000043,
            "durationTicks": 96,
            "midi": 42,
            "name": "F#2",
            "ticks": 123744,
            "time": 171.10604925,
            "velocity": 0.5905511811023622
          },
          {
            "duration": 0.1327432500000043,
            "durationTicks": 96,
            "midi": 37,
            "name": "C#2",
            "ticks": 123840,
            "time": 171.23879250000002,
            "velocity": 0.5905511811023622
          },
          {
            "duration": 0.1327432499999759,
            "durationTicks": 96,
            "midi": 42,
            "name": "F#2",
            "ticks": 123936,
            "time": 171.37153575000002,
            "velocity": 0.7874015748031497
          },
          {
            "duration": 0.1327432500000043,
            "durationTicks": 96,
            "midi": 37,
            "name": "C#2",
            "ticks": 124032,
            "time": 171.504279,
            "velocity": 0.5905511811023622
          },
          {
            "duration": 0.1327432500000043,
            "durationTicks": 96,
            "midi": 30,
            "name": "F#1",
            "ticks": 124128,
            "time": 171.63702225,
            "velocity": 0.5905511811023622
          },
          {
            "duration": 0.1327432500000043,
            "durationTicks": 96,
            "midi": 44,
            "name": "G#2",
            "ticks": 124224,
            "time": 171.7697655,
            "velocity": 0.7874015748031497
          },
          {
            "duration": 0.1327432500000043,
            "durationTicks": 96,
            "midi": 37,
            "name": "C#2",
            "ticks": 124320,
            "time": 171.90250875,
            "velocity": 0.5905511811023622
          },
          {
            "duration": 0.1327432500000043,
            "durationTicks": 96,
            "midi": 49,
            "name": "C#3",
            "ticks": 124416,
            "time": 172.035252,
            "velocity": 0.7874015748031497
          },
          {
            "duration": 0.1327432500000043,
            "durationTicks": 96,
            "midi": 44,
            "name": "G#2",
            "ticks": 124512,
            "time": 172.16799525000002,
            "velocity": 0.5905511811023622
          },
          {
            "duration": 0.1327432499999759,
            "durationTicks": 96,
            "midi": 37,
            "name": "C#2",
            "ticks": 124608,
            "time": 172.30073850000002,
            "velocity": 0.5905511811023622
          },
          {
            "duration": 0.1327432500000043,
            "durationTicks": 96,
            "midi": 44,
            "name": "G#2",
            "ticks": 124704,
            "time": 172.43348175,
            "velocity": 0.7874015748031497
          },
          {
            "duration": 0.1327432500000043,
            "durationTicks": 96,
            "midi": 37,
            "name": "C#2",
            "ticks": 124800,
            "time": 172.566225,
            "velocity": 0.5905511811023622
          },
          {
            "duration": 0.1327432500000043,
            "durationTicks": 96,
            "midi": 32,
            "name": "G#1",
            "ticks": 124896,
            "time": 172.69896825,
            "velocity": 0.5905511811023622
          },
          {
            "duration": 0.1327432500000043,
            "durationTicks": 96,
            "midi": 47,
            "name": "B2",
            "ticks": 124992,
            "time": 172.8317115,
            "velocity": 0.7874015748031497
          },
          {
            "duration": 0.1327432500000043,
            "durationTicks": 96,
            "midi": 42,
            "name": "F#2",
            "ticks": 125088,
            "time": 172.96445475000002,
            "velocity": 0.5905511811023622
          },
          {
            "duration": 0.1327432499999759,
            "durationTicks": 96,
            "midi": 46,
            "name": "A#2",
            "ticks": 125184,
            "time": 173.09719800000002,
            "velocity": 0.7874015748031497
          },
          {
            "duration": 0.1327432500000043,
            "durationTicks": 96,
            "midi": 42,
            "name": "F#2",
            "ticks": 125280,
            "time": 173.22994125,
            "velocity": 0.5905511811023622
          },
          {
            "duration": 0.1327432500000043,
            "durationTicks": 96,
            "midi": 37,
            "name": "C#2",
            "ticks": 125376,
            "time": 173.3626845,
            "velocity": 0.5905511811023622
          },
          {
            "duration": 0.1327432500000043,
            "durationTicks": 96,
            "midi": 42,
            "name": "F#2",
            "ticks": 125472,
            "time": 173.49542775,
            "velocity": 0.7874015748031497
          },
          {
            "duration": 0.1327432500000043,
            "durationTicks": 96,
            "midi": 37,
            "name": "C#2",
            "ticks": 125568,
            "time": 173.628171,
            "velocity": 0.5905511811023622
          },
          {
            "duration": 0.1327432500000043,
            "durationTicks": 96,
            "midi": 30,
            "name": "F#1",
            "ticks": 125664,
            "time": 173.76091425,
            "velocity": 0.5905511811023622
          },
          {
            "duration": 0.1327432500000043,
            "durationTicks": 96,
            "midi": 44,
            "name": "G#2",
            "ticks": 125760,
            "time": 173.89365750000002,
            "velocity": 0.7874015748031497
          },
          {
            "duration": 0.1327432499999759,
            "durationTicks": 96,
            "midi": 37,
            "name": "C#2",
            "ticks": 125856,
            "time": 174.02640075000002,
            "velocity": 0.5905511811023622
          },
          {
            "duration": 2.123892000000012,
            "durationTicks": 1536,
            "midi": 49,
            "name": "C#3",
            "ticks": 125952,
            "time": 174.159144,
            "velocity": 0.7874015748031497
          }
        ],
        "endOfTrackTicks": 127488
      },
      {
        "channel": 3,
        "controlChanges": {},
        "pitchBends": [],
        "instrument": {
          "family": "synth lead",
          "number": 80,
          "name": "lead 1 (square)"
        },
        "name": "8-Bit Square",
        "notes": [
          {
            "duration": 0.1327432499999759,
            "durationTicks": 96,
            "midi": 88,
            "name": "E6",
            "ticks": 99840,
            "time": 138.05298000000002,
            "velocity": 0.7874015748031497
          },
          {
            "duration": 0.1327432499999759,
            "durationTicks": 96,
            "midi": 80,
            "name": "G#5",
            "ticks": 99840,
            "time": 138.05298000000002,
            "velocity": 0.7874015748031497
          },
          {
            "duration": 0.1327432500000043,
            "durationTicks": 96,
            "midi": 78,
            "name": "F#5",
            "ticks": 99936,
            "time": 138.18572325,
            "velocity": 0.7874015748031497
          },
          {
            "duration": 0.1327432500000043,
            "durationTicks": 96,
            "midi": 87,
            "name": "D#6",
            "ticks": 99936,
            "time": 138.18572325,
            "velocity": 0.7874015748031497
          },
          {
            "duration": 0.1327432500000043,
            "durationTicks": 96,
            "midi": 80,
            "name": "G#5",
            "ticks": 99984,
            "time": 138.252094875,
            "velocity": 0.5905511811023622
          },
          {
            "duration": 0.1327432500000043,
            "durationTicks": 96,
            "midi": 88,
            "name": "E6",
            "ticks": 99984,
            "time": 138.252094875,
            "velocity": 0.5905511811023622
          },
          {
            "duration": 0.1327432500000043,
            "durationTicks": 96,
            "midi": 85,
            "name": "C#6",
            "ticks": 100032,
            "time": 138.3184665,
            "velocity": 0.7874015748031497
          },
          {
            "duration": 0.1327432500000043,
            "durationTicks": 96,
            "midi": 76,
            "name": "E5",
            "ticks": 100032,
            "time": 138.3184665,
            "velocity": 0.7874015748031497
          },
          {
            "duration": 0.1327432500000043,
            "durationTicks": 96,
            "midi": 78,
            "name": "F#5",
            "ticks": 100080,
            "time": 138.38483812500002,
            "velocity": 0.5905511811023622
          },
          {
            "duration": 0.1327432500000043,
            "durationTicks": 96,
            "midi": 87,
            "name": "D#6",
            "ticks": 100080,
            "time": 138.38483812500002,
            "velocity": 0.5905511811023622
          },
          {
            "duration": 0.1327432500000043,
            "durationTicks": 96,
            "midi": 83,
            "name": "B5",
            "ticks": 100128,
            "time": 138.45120975,
            "velocity": 0.7874015748031497
          },
          {
            "duration": 0.1327432500000043,
            "durationTicks": 96,
            "midi": 75,
            "name": "D#5",
            "ticks": 100128,
            "time": 138.45120975,
            "velocity": 0.7874015748031497
          },
          {
            "duration": 0.1327432499999759,
            "durationTicks": 96,
            "midi": 85,
            "name": "C#6",
            "ticks": 100176,
            "time": 138.51758137500002,
            "velocity": 0.5905511811023622
          },
          {
            "duration": 0.1327432499999759,
            "durationTicks": 96,
            "midi": 76,
            "name": "E5",
            "ticks": 100176,
            "time": 138.51758137500002,
            "velocity": 0.5905511811023622
          },
          {
            "duration": 0.2654865000000086,
            "durationTicks": 192,
            "midi": 76,
            "name": "E5",
            "ticks": 100224,
            "time": 138.583953,
            "velocity": 0.7874015748031497
          },
          {
            "duration": 0.2654865000000086,
            "durationTicks": 192,
            "midi": 85,
            "name": "C#6",
            "ticks": 100224,
            "time": 138.583953,
            "velocity": 0.7874015748031497
          },
          {
            "duration": 0.1327432500000043,
            "durationTicks": 96,
            "midi": 75,
            "name": "D#5",
            "ticks": 100272,
            "time": 138.650324625,
            "velocity": 0.5905511811023622
          },
          {
            "duration": 0.1327432500000043,
            "durationTicks": 96,
            "midi": 83,
            "name": "B5",
            "ticks": 100272,
            "time": 138.650324625,
            "velocity": 0.5905511811023622
          },
          {
            "duration": 0.2654865000000086,
            "durationTicks": 192,
            "midi": 76,
            "name": "E5",
            "ticks": 100368,
            "time": 138.783067875,
            "velocity": 0.5905511811023622
          },
          {
            "duration": 0.2654865000000086,
            "durationTicks": 192,
            "midi": 85,
            "name": "C#6",
            "ticks": 100368,
            "time": 138.783067875,
            "velocity": 0.5905511811023622
          },
          {
            "duration": 0.2654864999999802,
            "durationTicks": 192,
            "midi": 73,
            "name": "C#5",
            "ticks": 100416,
            "time": 138.84943950000002,
            "velocity": 0.7874015748031497
          },
          {
            "duration": 0.2654864999999802,
            "durationTicks": 192,
            "midi": 80,
            "name": "G#5",
            "ticks": 100416,
            "time": 138.84943950000002,
            "velocity": 0.7874015748031497
          },
          {
            "duration": 0.2654865000000086,
            "durationTicks": 192,
            "midi": 80,
            "name": "G#5",
            "ticks": 100560,
            "time": 139.048554375,
            "velocity": 0.5905511811023622
          },
          {
            "duration": 0.2654865000000086,
            "durationTicks": 192,
            "midi": 73,
            "name": "C#5",
            "ticks": 100560,
            "time": 139.048554375,
            "velocity": 0.5905511811023622
          },
          {
            "duration": 0.3982297500000129,
            "durationTicks": 288,
            "midi": 73,
            "name": "C#5",
            "ticks": 100608,
            "time": 139.114926,
            "velocity": 0.7874015748031497
          },
          {
            "duration": 0.3982297500000129,
            "durationTicks": 288,
            "midi": 82,
            "name": "A#5",
            "ticks": 100608,
            "time": 139.114926,
            "velocity": 0.7874015748031497
          },
          {
            "duration": 0.3982297499999845,
            "durationTicks": 288,
            "midi": 82,
            "name": "A#5",
            "ticks": 100752,
            "time": 139.31404087500002,
            "velocity": 0.5905511811023622
          },
          {
            "duration": 0.3982297499999845,
            "durationTicks": 288,
            "midi": 73,
            "name": "C#5",
            "ticks": 100752,
            "time": 139.31404087500002,
            "velocity": 0.5905511811023622
          },
          {
            "duration": 0.1327432500000043,
            "durationTicks": 96,
            "midi": 70,
            "name": "A#4",
            "ticks": 100896,
            "time": 139.51315575,
            "velocity": 0.7874015748031497
          },
          {
            "duration": 0.1327432500000043,
            "durationTicks": 96,
            "midi": 78,
            "name": "F#5",
            "ticks": 100896,
            "time": 139.51315575,
            "velocity": 0.7874015748031497
          },
          {
            "duration": 0.1327432500000043,
            "durationTicks": 96,
            "midi": 70,
            "name": "A#4",
            "ticks": 101040,
            "time": 139.712270625,
            "velocity": 0.5905511811023622
          },
          {
            "duration": 0.1327432500000043,
            "durationTicks": 96,
            "midi": 78,
            "name": "F#5",
            "ticks": 101040,
            "time": 139.712270625,
            "velocity": 0.5905511811023622
          },
          {
            "duration": 0.1327432500000043,
            "durationTicks": 96,
            "midi": 66,
            "name": "F#4",
            "ticks": 101184,
            "time": 139.9113855,
            "velocity": 0.7874015748031497
          },
          {
            "duration": 0.1327432500000043,
            "durationTicks": 96,
            "midi": 73,
            "name": "C#5",
            "ticks": 101184,
            "time": 139.9113855,
            "velocity": 0.7874015748031497
          },
          {
            "duration": 0.1327432500000043,
            "durationTicks": 96,
            "midi": 68,
            "name": "G#4",
            "ticks": 101280,
            "time": 140.04412875,
            "velocity": 0.7874015748031497
          },
          {
            "duration": 0.1327432500000043,
            "durationTicks": 96,
            "midi": 75,
            "name": "D#5",
            "ticks": 101280,
            "time": 140.04412875,
            "velocity": 0.7874015748031497
          },
          {
            "duration": 0.1327432500000043,
            "durationTicks": 96,
            "midi": 73,
            "name": "C#5",
            "ticks": 101328,
            "time": 140.11050037500002,
            "velocity": 0.5905511811023622
          },
          {
            "duration": 0.1327432500000043,
            "durationTicks": 96,
            "midi": 66,
            "name": "F#4",
            "ticks": 101328,
            "time": 140.11050037500002,
            "velocity": 0.5905511811023622
          },
          {
            "duration": 0.3982297500000129,
            "durationTicks": 288,
            "midi": 69,
            "name": "A4",
            "ticks": 101376,
            "time": 140.176872,
            "velocity": 0.7874015748031497
          },
          {
            "duration": 0.3982297500000129,
            "durationTicks": 288,
            "midi": 76,
            "name": "E5",
            "ticks": 101376,
            "time": 140.176872,
            "velocity": 0.7874015748031497
          },
          {
            "duration": 0.1327432499999759,
            "durationTicks": 96,
            "midi": 68,
            "name": "G#4",
            "ticks": 101424,
            "time": 140.24324362500002,
            "velocity": 0.5905511811023622
          },
          {
            "duration": 0.1327432499999759,
            "durationTicks": 96,
            "midi": 75,
            "name": "D#5",
            "ticks": 101424,
            "time": 140.24324362500002,
            "velocity": 0.5905511811023622
          },
          {
            "duration": 0.3982297500000129,
            "durationTicks": 288,
            "midi": 76,
            "name": "E5",
            "ticks": 101520,
            "time": 140.375986875,
            "velocity": 0.5905511811023622
          },
          {
            "duration": 0.3982297500000129,
            "durationTicks": 288,
            "midi": 69,
            "name": "A4",
            "ticks": 101520,
            "time": 140.375986875,
            "velocity": 0.5905511811023622
          },
          {
            "duration": 0.2654864999999802,
            "durationTicks": 192,
            "midi": 78,
            "name": "F#5",
            "ticks": 101664,
            "time": 140.57510175000002,
            "velocity": 0.7874015748031497
          },
          {
            "duration": 0.2654864999999802,
            "durationTicks": 192,
            "midi": 71,
            "name": "B4",
            "ticks": 101664,
            "time": 140.57510175000002,
            "velocity": 0.7874015748031497
          },
          {
            "duration": 0.2654865000000086,
            "durationTicks": 192,
            "midi": 78,
            "name": "F#5",
            "ticks": 101808,
            "time": 140.774216625,
            "velocity": 0.5905511811023622
          },
          {
            "duration": 0.2654865000000086,
            "durationTicks": 192,
            "midi": 71,
            "name": "B4",
            "ticks": 101808,
            "time": 140.774216625,
            "velocity": 0.5905511811023622
          },
          {
            "duration": 0.1327432500000043,
            "durationTicks": 96,
            "midi": 73,
            "name": "C#5",
            "ticks": 101856,
            "time": 140.84058825,
            "velocity": 0.7874015748031497
          },
          {
            "duration": 0.2654865000000086,
            "durationTicks": 192,
            "midi": 83,
            "name": "B5",
            "ticks": 101952,
            "time": 140.9733315,
            "velocity": 0.7874015748031497
          },
          {
            "duration": 0.2654865000000086,
            "durationTicks": 192,
            "midi": 75,
            "name": "D#5",
            "ticks": 101952,
            "time": 140.9733315,
            "velocity": 0.7874015748031497
          },
          {
            "duration": 0.1327432500000043,
            "durationTicks": 96,
            "midi": 73,
            "name": "C#5",
            "ticks": 102000,
            "time": 141.03970312500002,
            "velocity": 0.5905511811023622
          },
          {
            "duration": 0.2654864999999802,
            "durationTicks": 192,
            "midi": 75,
            "name": "D#5",
            "ticks": 102096,
            "time": 141.17244637500002,
            "velocity": 0.5905511811023622
          },
          {
            "duration": 0.2654864999999802,
            "durationTicks": 192,
            "midi": 83,
            "name": "B5",
            "ticks": 102096,
            "time": 141.17244637500002,
            "velocity": 0.5905511811023622
          },
          {
            "duration": 1.061946000000006,
            "durationTicks": 768,
            "midi": 76,
            "name": "E5",
            "ticks": 102144,
            "time": 141.238818,
            "velocity": 0.7874015748031497
          },
          {
            "duration": 1.061946000000006,
            "durationTicks": 768,
            "midi": 80,
            "name": "G#5",
            "ticks": 102144,
            "time": 141.238818,
            "velocity": 0.7874015748031497
          },
          {
            "duration": 1.061946000000006,
            "durationTicks": 768,
            "midi": 76,
            "name": "E5",
            "ticks": 102288,
            "time": 141.437932875,
            "velocity": 0.5905511811023622
          },
          {
            "duration": 0.9955743750000181,
            "durationTicks": 720,
            "midi": 80,
            "name": "G#5",
            "ticks": 102288,
            "time": 141.437932875,
            "velocity": 0.5905511811023622
          },
          {
            "duration": 0.19911487499999225,
            "durationTicks": 144,
            "midi": 80,
            "name": "G#5",
            "ticks": 102912,
            "time": 142.30076400000002,
            "velocity": 0.7874015748031497
          },
          {
            "duration": 0.1327432500000043,
            "durationTicks": 96,
            "midi": 88,
            "name": "E6",
            "ticks": 102912,
            "time": 142.30076400000002,
            "velocity": 0.7874015748031497
          },
          {
            "duration": 0.1327432499999759,
            "durationTicks": 96,
            "midi": 78,
            "name": "F#5",
            "ticks": 103008,
            "time": 142.43350725000002,
            "velocity": 0.7874015748031497
          },
          {
            "duration": 0.1327432499999759,
            "durationTicks": 96,
            "midi": 87,
            "name": "D#6",
            "ticks": 103008,
            "time": 142.43350725000002,
            "velocity": 0.7874015748031497
          },
          {
            "duration": 0.1327432500000043,
            "durationTicks": 96,
            "midi": 80,
            "name": "G#5",
            "ticks": 103056,
            "time": 142.499878875,
            "velocity": 0.5905511811023622
          },
          {
            "duration": 0.1327432500000043,
            "durationTicks": 96,
            "midi": 88,
            "name": "E6",
            "ticks": 103056,
            "time": 142.499878875,
            "velocity": 0.5905511811023622
          },
          {
            "duration": 0.1327432500000043,
            "durationTicks": 96,
            "midi": 76,
            "name": "E5",
            "ticks": 103104,
            "time": 142.5662505,
            "velocity": 0.7874015748031497
          },
          {
            "duration": 0.1327432500000043,
            "durationTicks": 96,
            "midi": 85,
            "name": "C#6",
            "ticks": 103104,
            "time": 142.5662505,
            "velocity": 0.7874015748031497
          },
          {
            "duration": 0.1327432500000043,
            "durationTicks": 96,
            "midi": 78,
            "name": "F#5",
            "ticks": 103152,
            "time": 142.632622125,
            "velocity": 0.5905511811023622
          },
          {
            "duration": 0.1327432500000043,
            "durationTicks": 96,
            "midi": 87,
            "name": "D#6",
            "ticks": 103152,
            "time": 142.632622125,
            "velocity": 0.5905511811023622
          },
          {
            "duration": 0.1327432500000043,
            "durationTicks": 96,
            "midi": 83,
            "name": "B5",
            "ticks": 103200,
            "time": 142.69899375,
            "velocity": 0.7874015748031497
          },
          {
            "duration": 0.1327432500000043,
            "durationTicks": 96,
            "midi": 75,
            "name": "D#5",
            "ticks": 103200,
            "time": 142.69899375,
            "velocity": 0.7874015748031497
          },
          {
            "duration": 0.1327432500000043,
            "durationTicks": 96,
            "midi": 76,
            "name": "E5",
            "ticks": 103248,
            "time": 142.76536537500002,
            "velocity": 0.5905511811023622
          },
          {
            "duration": 0.1327432500000043,
            "durationTicks": 96,
            "midi": 85,
            "name": "C#6",
            "ticks": 103248,
            "time": 142.76536537500002,
            "velocity": 0.5905511811023622
          },
          {
            "duration": 0.2654865000000086,
            "durationTicks": 192,
            "midi": 85,
            "name": "C#6",
            "ticks": 103296,
            "time": 142.831737,
            "velocity": 0.7874015748031497
          },
          {
            "duration": 0.2654865000000086,
            "durationTicks": 192,
            "midi": 76,
            "name": "E5",
            "ticks": 103296,
            "time": 142.831737,
            "velocity": 0.7874015748031497
          },
          {
            "duration": 0.1327432499999759,
            "durationTicks": 96,
            "midi": 75,
            "name": "D#5",
            "ticks": 103344,
            "time": 142.89810862500002,
            "velocity": 0.5905511811023622
          },
          {
            "duration": 0.1327432499999759,
            "durationTicks": 96,
            "midi": 83,
            "name": "B5",
            "ticks": 103344,
            "time": 142.89810862500002,
            "velocity": 0.5905511811023622
          },
          {
            "duration": 0.2654865000000086,
            "durationTicks": 192,
            "midi": 85,
            "name": "C#6",
            "ticks": 103440,
            "time": 143.030851875,
            "velocity": 0.5905511811023622
          },
          {
            "duration": 0.2654865000000086,
            "durationTicks": 192,
            "midi": 76,
            "name": "E5",
            "ticks": 103440,
            "time": 143.030851875,
            "velocity": 0.5905511811023622
          },
          {
            "duration": 0.2654865000000086,
            "durationTicks": 192,
            "midi": 73,
            "name": "C#5",
            "ticks": 103488,
            "time": 143.0972235,
            "velocity": 0.7874015748031497
          },
          {
            "duration": 0.2654865000000086,
            "durationTicks": 192,
            "midi": 80,
            "name": "G#5",
            "ticks": 103488,
            "time": 143.0972235,
            "velocity": 0.7874015748031497
          },
          {
            "duration": 0.2654865000000086,
            "durationTicks": 192,
            "midi": 73,
            "name": "C#5",
            "ticks": 103632,
            "time": 143.296338375,
            "velocity": 0.5905511811023622
          },
          {
            "duration": 0.2654865000000086,
            "durationTicks": 192,
            "midi": 80,
            "name": "G#5",
            "ticks": 103632,
            "time": 143.296338375,
            "velocity": 0.5905511811023622
          },
          {
            "duration": 0.3982297499999845,
            "durationTicks": 288,
            "midi": 73,
            "name": "C#5",
            "ticks": 103680,
            "time": 143.36271000000002,
            "velocity": 0.7874015748031497
          },
          {
            "duration": 0.3982297499999845,
            "durationTicks": 288,
            "midi": 82,
            "name": "A#5",
            "ticks": 103680,
            "time": 143.36271000000002,
            "velocity": 0.7874015748031497
          },
          {
            "duration": 0.3982297499999845,
            "durationTicks": 288,
            "midi": 73,
            "name": "C#5",
            "ticks": 103824,
            "time": 143.561824875,
            "velocity": 0.5905511811023622
          },
          {
            "duration": 0.3982297499999845,
            "durationTicks": 288,
            "midi": 82,
            "name": "A#5",
            "ticks": 103824,
            "time": 143.561824875,
            "velocity": 0.5905511811023622
          },
          {
            "duration": 0.1327432500000043,
            "durationTicks": 96,
            "midi": 78,
            "name": "F#5",
            "ticks": 103968,
            "time": 143.76093975,
            "velocity": 0.7874015748031497
          },
          {
            "duration": 0.1327432500000043,
            "durationTicks": 96,
            "midi": 70,
            "name": "A#4",
            "ticks": 103968,
            "time": 143.76093975,
            "velocity": 0.7874015748031497
          },
          {
            "duration": 0.1327432500000043,
            "durationTicks": 96,
            "midi": 78,
            "name": "F#5",
            "ticks": 104112,
            "time": 143.960054625,
            "velocity": 0.5905511811023622
          },
          {
            "duration": 0.1327432500000043,
            "durationTicks": 96,
            "midi": 70,
            "name": "A#4",
            "ticks": 104112,
            "time": 143.960054625,
            "velocity": 0.5905511811023622
          },
          {
            "duration": 0.1327432499999759,
            "durationTicks": 96,
            "midi": 66,
            "name": "F#4",
            "ticks": 104256,
            "time": 144.15916950000002,
            "velocity": 0.7874015748031497
          },
          {
            "duration": 0.1327432499999759,
            "durationTicks": 96,
            "midi": 73,
            "name": "C#5",
            "ticks": 104256,
            "time": 144.15916950000002,
            "velocity": 0.7874015748031497
          },
          {
            "duration": 0.1327432500000043,
            "durationTicks": 96,
            "midi": 75,
            "name": "D#5",
            "ticks": 104352,
            "time": 144.29191275,
            "velocity": 0.7874015748031497
          },
          {
            "duration": 0.1327432500000043,
            "durationTicks": 96,
            "midi": 68,
            "name": "G#4",
            "ticks": 104352,
            "time": 144.29191275,
            "velocity": 0.7874015748031497
          },
          {
            "duration": 0.1327432500000043,
            "durationTicks": 96,
            "midi": 66,
            "name": "F#4",
            "ticks": 104400,
            "time": 144.358284375,
            "velocity": 0.5905511811023622
          },
          {
            "duration": 0.1327432500000043,
            "durationTicks": 96,
            "midi": 73,
            "name": "C#5",
            "ticks": 104400,
            "time": 144.358284375,
            "velocity": 0.5905511811023622
          },
          {
            "duration": 0.3982297500000129,
            "durationTicks": 288,
            "midi": 69,
            "name": "A4",
            "ticks": 104448,
            "time": 144.424656,
            "velocity": 0.7874015748031497
          },
          {
            "duration": 0.3982297500000129,
            "durationTicks": 288,
            "midi": 76,
            "name": "E5",
            "ticks": 104448,
            "time": 144.424656,
            "velocity": 0.7874015748031497
          },
          {
            "duration": 0.1327432500000043,
            "durationTicks": 96,
            "midi": 75,
            "name": "D#5",
            "ticks": 104496,
            "time": 144.49102762500002,
            "velocity": 0.5905511811023622
          },
          {
            "duration": 0.1327432500000043,
            "durationTicks": 96,
            "midi": 68,
            "name": "G#4",
            "ticks": 104496,
            "time": 144.49102762500002,
            "velocity": 0.5905511811023622
          },
          {
            "duration": 0.3982297499999845,
            "durationTicks": 288,
            "midi": 76,
            "name": "E5",
            "ticks": 104592,
            "time": 144.62377087500002,
            "velocity": 0.5905511811023622
          },
          {
            "duration": 0.3982297499999845,
            "durationTicks": 288,
            "midi": 69,
            "name": "A4",
            "ticks": 104592,
            "time": 144.62377087500002,
            "velocity": 0.5905511811023622
          },
          {
            "duration": 0.2654865000000086,
            "durationTicks": 192,
            "midi": 71,
            "name": "B4",
            "ticks": 104736,
            "time": 144.82288575,
            "velocity": 0.7874015748031497
          },
          {
            "duration": 0.2654865000000086,
            "durationTicks": 192,
            "midi": 75,
            "name": "D#5",
            "ticks": 104736,
            "time": 144.82288575,
            "velocity": 0.7874015748031497
          },
          {
            "duration": 0.2654865000000086,
            "durationTicks": 192,
            "midi": 75,
            "name": "D#5",
            "ticks": 104880,
            "time": 145.022000625,
            "velocity": 0.5905511811023622
          },
          {
            "duration": 0.2654865000000086,
            "durationTicks": 192,
            "midi": 71,
            "name": "B4",
            "ticks": 104880,
            "time": 145.022000625,
            "velocity": 0.5905511811023622
          },
          {
            "duration": 0.1327432499999759,
            "durationTicks": 96,
            "midi": 68,
            "name": "G#4",
            "ticks": 104928,
            "time": 145.08837225000002,
            "velocity": 0.7874015748031497
          },
          {
            "duration": 0.2654865000000086,
            "durationTicks": 192,
            "midi": 71,
            "name": "B4",
            "ticks": 105024,
            "time": 145.2211155,
            "velocity": 0.7874015748031497
          },
          {
            "duration": 0.2654865000000086,
            "durationTicks": 192,
            "midi": 75,
            "name": "D#5",
            "ticks": 105024,
            "time": 145.2211155,
            "velocity": 0.7874015748031497
          },
          {
            "duration": 0.1327432500000043,
            "durationTicks": 96,
            "midi": 68,
            "name": "G#4",
            "ticks": 105072,
            "time": 145.287487125,
            "velocity": 0.5905511811023622
          },
          {
            "duration": 0.2654864999999802,
            "durationTicks": 192,
            "midi": 75,
            "name": "D#5",
            "ticks": 105168,
            "time": 145.42023037500002,
            "velocity": 0.5905511811023622
          },
          {
            "duration": 0.2654864999999802,
            "durationTicks": 192,
            "midi": 71,
            "name": "B4",
            "ticks": 105168,
            "time": 145.42023037500002,
            "velocity": 0.5905511811023622
          },
          {
            "duration": 1.061946000000006,
            "durationTicks": 768,
            "midi": 73,
            "name": "C#5",
            "ticks": 105216,
            "time": 145.486602,
            "velocity": 0.7874015748031497
          },
          {
            "duration": 1.061946000000006,
            "durationTicks": 768,
            "midi": 68,
            "name": "G#4",
            "ticks": 105216,
            "time": 145.486602,
            "velocity": 0.7874015748031497
          },
          {
            "duration": 1.061946000000006,
            "durationTicks": 768,
            "midi": 68,
            "name": "G#4",
            "ticks": 105360,
            "time": 145.685716875,
            "velocity": 0.5905511811023622
          },
          {
            "duration": 1.061946000000006,
            "durationTicks": 768,
            "midi": 73,
            "name": "C#5",
            "ticks": 105360,
            "time": 145.685716875,
            "velocity": 0.5905511811023622
          },
          {
            "duration": 0.1327432500000043,
            "durationTicks": 96,
            "midi": 90,
            "name": "F#6",
            "ticks": 105984,
            "time": 146.548548,
            "velocity": 0.7874015748031497
          },
          {
            "duration": 0.1327432500000043,
            "durationTicks": 96,
            "midi": 87,
            "name": "D#6",
            "ticks": 105984,
            "time": 146.548548,
            "velocity": 0.7874015748031497
          },
          {
            "duration": 0.1327432500000043,
            "durationTicks": 96,
            "midi": 85,
            "name": "C#6",
            "ticks": 106080,
            "time": 146.68129125000002,
            "velocity": 0.7874015748031497
          },
          {
            "duration": 0.1327432500000043,
            "durationTicks": 96,
            "midi": 88,
            "name": "E6",
            "ticks": 106080,
            "time": 146.68129125000002,
            "velocity": 0.7874015748031497
          },
          {
            "duration": 0.1327432500000043,
            "durationTicks": 96,
            "midi": 90,
            "name": "F#6",
            "ticks": 106128,
            "time": 146.747662875,
            "velocity": 0.5905511811023622
          },
          {
            "duration": 0.1327432500000043,
            "durationTicks": 96,
            "midi": 87,
            "name": "D#6",
            "ticks": 106128,
            "time": 146.747662875,
            "velocity": 0.5905511811023622
          },
          {
            "duration": 0.1327432499999759,
            "durationTicks": 96,
            "midi": 83,
            "name": "B5",
            "ticks": 106176,
            "time": 146.81403450000002,
            "velocity": 0.7874015748031497
          },
          {
            "duration": 0.1327432499999759,
            "durationTicks": 96,
            "midi": 87,
            "name": "D#6",
            "ticks": 106176,
            "time": 146.81403450000002,
            "velocity": 0.7874015748031497
          },
          {
            "duration": 0.1327432500000043,
            "durationTicks": 96,
            "midi": 88,
            "name": "E6",
            "ticks": 106224,
            "time": 146.880406125,
            "velocity": 0.5905511811023622
          },
          {
            "duration": 0.1327432500000043,
            "durationTicks": 96,
            "midi": 85,
            "name": "C#6",
            "ticks": 106224,
            "time": 146.880406125,
            "velocity": 0.5905511811023622
          },
          {
            "duration": 0.1327432500000043,
            "durationTicks": 96,
            "midi": 81,
            "name": "A5",
            "ticks": 106272,
            "time": 146.94677775,
            "velocity": 0.7874015748031497
          },
          {
            "duration": 0.1327432500000043,
            "durationTicks": 96,
            "midi": 85,
            "name": "C#6",
            "ticks": 106272,
            "time": 146.94677775,
            "velocity": 0.7874015748031497
          },
          {
            "duration": 0.1327432500000043,
            "durationTicks": 96,
            "midi": 87,
            "name": "D#6",
            "ticks": 106320,
            "time": 147.013149375,
            "velocity": 0.5905511811023622
          },
          {
            "duration": 0.1327432500000043,
            "durationTicks": 96,
            "midi": 83,
            "name": "B5",
            "ticks": 106320,
            "time": 147.013149375,
            "velocity": 0.5905511811023622
          },
          {
            "duration": 0.1327432500000043,
            "durationTicks": 96,
            "midi": 87,
            "name": "D#6",
            "ticks": 106368,
            "time": 147.079521,
            "velocity": 0.7874015748031497
          },
          {
            "duration": 0.1327432500000043,
            "durationTicks": 96,
            "midi": 83,
            "name": "B5",
            "ticks": 106368,
            "time": 147.079521,
            "velocity": 0.7874015748031497
          },
          {
            "duration": 0.1327432500000043,
            "durationTicks": 96,
            "midi": 85,
            "name": "C#6",
            "ticks": 106416,
            "time": 147.14589262500002,
            "velocity": 0.5905511811023622
          },
          {
            "duration": 0.1327432500000043,
            "durationTicks": 96,
            "midi": 81,
            "name": "A5",
            "ticks": 106416,
            "time": 147.14589262500002,
            "velocity": 0.5905511811023622
          },
          {
            "duration": 0.1327432500000043,
            "durationTicks": 96,
            "midi": 81,
            "name": "A5",
            "ticks": 106464,
            "time": 147.21226425,
            "velocity": 0.7874015748031497
          },
          {
            "duration": 0.1327432500000043,
            "durationTicks": 96,
            "midi": 85,
            "name": "C#6",
            "ticks": 106464,
            "time": 147.21226425,
            "velocity": 0.7874015748031497
          },
          {
            "duration": 0.1327432499999759,
            "durationTicks": 96,
            "midi": 83,
            "name": "B5",
            "ticks": 106512,
            "time": 147.27863587500002,
            "velocity": 0.5905511811023622
          },
          {
            "duration": 0.1327432499999759,
            "durationTicks": 96,
            "midi": 87,
            "name": "D#6",
            "ticks": 106512,
            "time": 147.27863587500002,
            "velocity": 0.5905511811023622
          },
          {
            "duration": 0.1327432500000043,
            "durationTicks": 96,
            "midi": 80,
            "name": "G#5",
            "ticks": 106560,
            "time": 147.3450075,
            "velocity": 0.7874015748031497
          },
          {
            "duration": 0.1327432500000043,
            "durationTicks": 96,
            "midi": 83,
            "name": "B5",
            "ticks": 106560,
            "time": 147.3450075,
            "velocity": 0.7874015748031497
          },
          {
            "duration": 0.1327432500000043,
            "durationTicks": 96,
            "midi": 85,
            "name": "C#6",
            "ticks": 106608,
            "time": 147.411379125,
            "velocity": 0.5905511811023622
          },
          {
            "duration": 0.1327432500000043,
            "durationTicks": 96,
            "midi": 81,
            "name": "A5",
            "ticks": 106608,
            "time": 147.411379125,
            "velocity": 0.5905511811023622
          },
          {
            "duration": 0.1327432500000043,
            "durationTicks": 96,
            "midi": 87,
            "name": "D#6",
            "ticks": 106656,
            "time": 147.47775075,
            "velocity": 0.7874015748031497
          },
          {
            "duration": 0.1327432500000043,
            "durationTicks": 96,
            "midi": 83,
            "name": "B5",
            "ticks": 106656,
            "time": 147.47775075,
            "velocity": 0.7874015748031497
          },
          {
            "duration": 0.1327432500000043,
            "durationTicks": 96,
            "midi": 80,
            "name": "G#5",
            "ticks": 106704,
            "time": 147.544122375,
            "velocity": 0.5905511811023622
          },
          {
            "duration": 0.1327432500000043,
            "durationTicks": 96,
            "midi": 83,
            "name": "B5",
            "ticks": 106704,
            "time": 147.544122375,
            "velocity": 0.5905511811023622
          },
          {
            "duration": 0.1327432500000043,
            "durationTicks": 96,
            "midi": 85,
            "name": "C#6",
            "ticks": 106752,
            "time": 147.61049400000002,
            "velocity": 0.7874015748031497
          },
          {
            "duration": 0.1327432500000043,
            "durationTicks": 96,
            "midi": 80,
            "name": "G#5",
            "ticks": 106752,
            "time": 147.61049400000002,
            "velocity": 0.7874015748031497
          },
          {
            "duration": 0.1327432500000043,
            "durationTicks": 96,
            "midi": 87,
            "name": "D#6",
            "ticks": 106800,
            "time": 147.676865625,
            "velocity": 0.5905511811023622
          },
          {
            "duration": 0.1327432500000043,
            "durationTicks": 96,
            "midi": 83,
            "name": "B5",
            "ticks": 106800,
            "time": 147.676865625,
            "velocity": 0.5905511811023622
          },
          {
            "duration": 0.1327432500000043,
            "durationTicks": 96,
            "midi": 85,
            "name": "C#6",
            "ticks": 106896,
            "time": 147.809608875,
            "velocity": 0.5905511811023622
          },
          {
            "duration": 0.1327432500000043,
            "durationTicks": 96,
            "midi": 80,
            "name": "G#5",
            "ticks": 106896,
            "time": 147.809608875,
            "velocity": 0.5905511811023622
          },
          {
            "duration": 0.1327432500000043,
            "durationTicks": 96,
            "midi": 80,
            "name": "G#5",
            "ticks": 107040,
            "time": 148.00872375,
            "velocity": 0.7874015748031497
          },
          {
            "duration": 0.1327432500000043,
            "durationTicks": 96,
            "midi": 73,
            "name": "C#5",
            "ticks": 107040,
            "time": 148.00872375,
            "velocity": 0.7874015748031497
          },
          {
            "duration": 0.1327432500000043,
            "durationTicks": 96,
            "midi": 80,
            "name": "G#5",
            "ticks": 107184,
            "time": 148.207838625,
            "velocity": 0.5905511811023622
          },
          {
            "duration": 0.1327432500000043,
            "durationTicks": 96,
            "midi": 73,
            "name": "C#5",
            "ticks": 107184,
            "time": 148.207838625,
            "velocity": 0.5905511811023622
          },
          {
            "duration": 0.1327432500000043,
            "durationTicks": 96,
            "midi": 73,
            "name": "C#5",
            "ticks": 107328,
            "time": 148.40695350000001,
            "velocity": 0.7874015748031497
          },
          {
            "duration": 0.1327432500000043,
            "durationTicks": 96,
            "midi": 80,
            "name": "G#5",
            "ticks": 107328,
            "time": 148.40695350000001,
            "velocity": 0.7874015748031497
          },
          {
            "duration": 0.1327432499999759,
            "durationTicks": 96,
            "midi": 85,
            "name": "C#6",
            "ticks": 107424,
            "time": 148.53969675000002,
            "velocity": 0.7874015748031497
          },
          {
            "duration": 0.1327432499999759,
            "durationTicks": 96,
            "midi": 80,
            "name": "G#5",
            "ticks": 107424,
            "time": 148.53969675000002,
            "velocity": 0.7874015748031497
          },
          {
            "duration": 0.1327432500000043,
            "durationTicks": 96,
            "midi": 73,
            "name": "C#5",
            "ticks": 107472,
            "time": 148.606068375,
            "velocity": 0.5905511811023622
          },
          {
            "duration": 0.1327432500000043,
            "durationTicks": 96,
            "midi": 80,
            "name": "G#5",
            "ticks": 107472,
            "time": 148.606068375,
            "velocity": 0.5905511811023622
          },
          {
            "duration": 0.1327432500000043,
            "durationTicks": 96,
            "midi": 87,
            "name": "D#6",
            "ticks": 107520,
            "time": 148.67244,
            "velocity": 0.7874015748031497
          },
          {
            "duration": 0.1327432500000043,
            "durationTicks": 96,
            "midi": 90,
            "name": "F#6",
            "ticks": 107520,
            "time": 148.67244,
            "velocity": 0.7874015748031497
          },
          {
            "duration": 0.1327432500000043,
            "durationTicks": 96,
            "midi": 85,
            "name": "C#6",
            "ticks": 107568,
            "time": 148.738811625,
            "velocity": 0.5905511811023622
          },
          {
            "duration": 0.1327432500000043,
            "durationTicks": 96,
            "midi": 80,
            "name": "G#5",
            "ticks": 107568,
            "time": 148.738811625,
            "velocity": 0.5905511811023622
          },
          {
            "duration": 0.1327432500000043,
            "durationTicks": 96,
            "midi": 88,
            "name": "E6",
            "ticks": 107616,
            "time": 148.80518325,
            "velocity": 0.7874015748031497
          },
          {
            "duration": 0.1327432500000043,
            "durationTicks": 96,
            "midi": 85,
            "name": "C#6",
            "ticks": 107616,
            "time": 148.80518325,
            "velocity": 0.7874015748031497
          },
          {
            "duration": 0.1327432500000043,
            "durationTicks": 96,
            "midi": 90,
            "name": "F#6",
            "ticks": 107664,
            "time": 148.87155487500002,
            "velocity": 0.5905511811023622
          },
          {
            "duration": 0.1327432500000043,
            "durationTicks": 96,
            "midi": 87,
            "name": "D#6",
            "ticks": 107664,
            "time": 148.87155487500002,
            "velocity": 0.5905511811023622
          },
          {
            "duration": 0.1327432500000043,
            "durationTicks": 96,
            "midi": 87,
            "name": "D#6",
            "ticks": 107712,
            "time": 148.9379265,
            "velocity": 0.7874015748031497
          },
          {
            "duration": 0.1327432500000043,
            "durationTicks": 96,
            "midi": 83,
            "name": "B5",
            "ticks": 107712,
            "time": 148.9379265,
            "velocity": 0.7874015748031497
          },
          {
            "duration": 0.1327432499999759,
            "durationTicks": 96,
            "midi": 85,
            "name": "C#6",
            "ticks": 107760,
            "time": 149.00429812500002,
            "velocity": 0.5905511811023622
          },
          {
            "duration": 0.1327432499999759,
            "durationTicks": 96,
            "midi": 88,
            "name": "E6",
            "ticks": 107760,
            "time": 149.00429812500002,
            "velocity": 0.5905511811023622
          },
          {
            "duration": 0.1327432500000043,
            "durationTicks": 96,
            "midi": 81,
            "name": "A5",
            "ticks": 107808,
            "time": 149.07066975,
            "velocity": 0.7874015748031497
          },
          {
            "duration": 0.1327432500000043,
            "durationTicks": 96,
            "midi": 85,
            "name": "C#6",
            "ticks": 107808,
            "time": 149.07066975,
            "velocity": 0.7874015748031497
          },
          {
            "duration": 0.1327432500000043,
            "durationTicks": 96,
            "midi": 87,
            "name": "D#6",
            "ticks": 107856,
            "time": 149.137041375,
            "velocity": 0.5905511811023622
          },
          {
            "duration": 0.1327432500000043,
            "durationTicks": 96,
            "midi": 83,
            "name": "B5",
            "ticks": 107856,
            "time": 149.137041375,
            "velocity": 0.5905511811023622
          },
          {
            "duration": 0.1327432500000043,
            "durationTicks": 96,
            "midi": 83,
            "name": "B5",
            "ticks": 107904,
            "time": 149.203413,
            "velocity": 0.7874015748031497
          },
          {
            "duration": 0.1327432500000043,
            "durationTicks": 96,
            "midi": 80,
            "name": "G#5",
            "ticks": 107904,
            "time": 149.203413,
            "velocity": 0.7874015748031497
          },
          {
            "duration": 0.1327432500000043,
            "durationTicks": 96,
            "midi": 81,
            "name": "A5",
            "ticks": 107952,
            "time": 149.269784625,
            "velocity": 0.5905511811023622
          },
          {
            "duration": 0.1327432500000043,
            "durationTicks": 96,
            "midi": 85,
            "name": "C#6",
            "ticks": 107952,
            "time": 149.269784625,
            "velocity": 0.5905511811023622
          },
          {
            "duration": 0.1327432500000043,
            "durationTicks": 96,
            "midi": 78,
            "name": "F#5",
            "ticks": 108000,
            "time": 149.33615625000002,
            "velocity": 0.7874015748031497
          },
          {
            "duration": 0.1327432500000043,
            "durationTicks": 96,
            "midi": 81,
            "name": "A5",
            "ticks": 108000,
            "time": 149.33615625000002,
            "velocity": 0.7874015748031497
          },
          {
            "duration": 0.1327432500000043,
            "durationTicks": 96,
            "midi": 80,
            "name": "G#5",
            "ticks": 108048,
            "time": 149.402527875,
            "velocity": 0.5905511811023622
          },
          {
            "duration": 0.1327432500000043,
            "durationTicks": 96,
            "midi": 83,
            "name": "B5",
            "ticks": 108048,
            "time": 149.402527875,
            "velocity": 0.5905511811023622
          },
          {
            "duration": 0.1327432499999759,
            "durationTicks": 96,
            "midi": 88,
            "name": "E6",
            "ticks": 108096,
            "time": 149.46889950000002,
            "velocity": 0.7874015748031497
          },
          {
            "duration": 0.1327432499999759,
            "durationTicks": 96,
            "midi": 92,
            "name": "G#6",
            "ticks": 108096,
            "time": 149.46889950000002,
            "velocity": 0.7874015748031497
          },
          {
            "duration": 0.1327432500000043,
            "durationTicks": 96,
            "midi": 81,
            "name": "A5",
            "ticks": 108144,
            "time": 149.535271125,
            "velocity": 0.5905511811023622
          },
          {
            "duration": 0.1327432500000043,
            "durationTicks": 96,
            "midi": 78,
            "name": "F#5",
            "ticks": 108144,
            "time": 149.535271125,
            "velocity": 0.5905511811023622
          },
          {
            "duration": 0.1327432500000043,
            "durationTicks": 96,
            "midi": 90,
            "name": "F#6",
            "ticks": 108192,
            "time": 149.60164275,
            "velocity": 0.7874015748031497
          },
          {
            "duration": 0.1327432500000043,
            "durationTicks": 96,
            "midi": 87,
            "name": "D#6",
            "ticks": 108192,
            "time": 149.60164275,
            "velocity": 0.7874015748031497
          },
          {
            "duration": 0.1327432500000043,
            "durationTicks": 96,
            "midi": 88,
            "name": "E6",
            "ticks": 108240,
            "time": 149.668014375,
            "velocity": 0.5905511811023622
          },
          {
            "duration": 0.1327432500000043,
            "durationTicks": 96,
            "midi": 92,
            "name": "G#6",
            "ticks": 108240,
            "time": 149.668014375,
            "velocity": 0.5905511811023622
          },
          {
            "duration": 0.2654865000000086,
            "durationTicks": 192,
            "midi": 85,
            "name": "C#6",
            "ticks": 108288,
            "time": 149.734386,
            "velocity": 0.7874015748031497
          },
          {
            "duration": 0.2654865000000086,
            "durationTicks": 192,
            "midi": 88,
            "name": "E6",
            "ticks": 108288,
            "time": 149.734386,
            "velocity": 0.7874015748031497
          },
          {
            "duration": 0.1327432500000043,
            "durationTicks": 96,
            "midi": 90,
            "name": "F#6",
            "ticks": 108336,
            "time": 149.80075762500002,
            "velocity": 0.5905511811023622
          },
          {
            "duration": 0.1327432500000043,
            "durationTicks": 96,
            "midi": 87,
            "name": "D#6",
            "ticks": 108336,
            "time": 149.80075762500002,
            "velocity": 0.5905511811023622
          },
          {
            "duration": 0.2654864999999802,
            "durationTicks": 192,
            "midi": 85,
            "name": "C#6",
            "ticks": 108432,
            "time": 149.93350087500002,
            "velocity": 0.5905511811023622
          },
          {
            "duration": 0.2654864999999802,
            "durationTicks": 192,
            "midi": 88,
            "name": "E6",
            "ticks": 108432,
            "time": 149.93350087500002,
            "velocity": 0.5905511811023622
          },
          {
            "duration": 0.2654865000000086,
            "durationTicks": 192,
            "midi": 90,
            "name": "F#6",
            "ticks": 108480,
            "time": 149.9998725,
            "velocity": 0.7874015748031497
          },
          {
            "duration": 0.2654865000000086,
            "durationTicks": 192,
            "midi": 87,
            "name": "D#6",
            "ticks": 108480,
            "time": 149.9998725,
            "velocity": 0.7874015748031497
          },
          {
            "duration": 0.2654865000000086,
            "durationTicks": 192,
            "midi": 90,
            "name": "F#6",
            "ticks": 108624,
            "time": 150.198987375,
            "velocity": 0.5905511811023622
          },
          {
            "duration": 0.2654865000000086,
            "durationTicks": 192,
            "midi": 87,
            "name": "D#6",
            "ticks": 108624,
            "time": 150.198987375,
            "velocity": 0.5905511811023622
          },
          {
            "duration": 0.2654864999999802,
            "durationTicks": 192,
            "midi": 92,
            "name": "G#6",
            "ticks": 108672,
            "time": 150.26535900000002,
            "velocity": 0.7874015748031497
          },
          {
            "duration": 0.2654864999999802,
            "durationTicks": 192,
            "midi": 88,
            "name": "E6",
            "ticks": 108672,
            "time": 150.26535900000002,
            "velocity": 0.7874015748031497
          },
          {
            "duration": 0.19911487499999225,
            "durationTicks": 144,
            "midi": 88,
            "name": "E6",
            "ticks": 108816,
            "time": 150.464473875,
            "velocity": 0.5905511811023622
          },
          {
            "duration": 0.19911487499999225,
            "durationTicks": 144,
            "midi": 92,
            "name": "G#6",
            "ticks": 108816,
            "time": 150.464473875,
            "velocity": 0.5905511811023622
          },
          {
            "duration": 0.19911487500002067,
            "durationTicks": 144,
            "midi": 92,
            "name": "G#6",
            "ticks": 108864,
            "time": 150.5308455,
            "velocity": 0.7874015748031497
          },
          {
            "duration": 0.19911487500002067,
            "durationTicks": 144,
            "midi": 88,
            "name": "E6",
            "ticks": 108864,
            "time": 150.5308455,
            "velocity": 0.7874015748031497
          },
          {
            "duration": 0.1327432500000043,
            "durationTicks": 96,
            "midi": 94,
            "name": "A#6",
            "ticks": 108960,
            "time": 150.66358875,
            "velocity": 0.7874015748031497
          },
          {
            "duration": 0.1327432500000043,
            "durationTicks": 96,
            "midi": 90,
            "name": "F#6",
            "ticks": 108960,
            "time": 150.66358875,
            "velocity": 0.7874015748031497
          },
          {
            "duration": 0.1327432499999759,
            "durationTicks": 96,
            "midi": 92,
            "name": "G#6",
            "ticks": 109008,
            "time": 150.72996037500002,
            "velocity": 0.5905511811023622
          },
          {
            "duration": 0.1327432499999759,
            "durationTicks": 96,
            "midi": 88,
            "name": "E6",
            "ticks": 109008,
            "time": 150.72996037500002,
            "velocity": 0.5905511811023622
          },
          {
            "duration": 0.1327432500000043,
            "durationTicks": 96,
            "midi": 92,
            "name": "G#6",
            "ticks": 109056,
            "time": 150.796332,
            "velocity": 0.7874015748031497
          },
          {
            "duration": 0.1327432500000043,
            "durationTicks": 96,
            "midi": 95,
            "name": "B6",
            "ticks": 109056,
            "time": 150.796332,
            "velocity": 0.7874015748031497
          },
          {
            "duration": 0.1327432500000043,
            "durationTicks": 96,
            "midi": 94,
            "name": "A#6",
            "ticks": 109104,
            "time": 150.862703625,
            "velocity": 0.5905511811023622
          },
          {
            "duration": 0.1327432500000043,
            "durationTicks": 96,
            "midi": 90,
            "name": "F#6",
            "ticks": 109104,
            "time": 150.862703625,
            "velocity": 0.5905511811023622
          },
          {
            "duration": 0.1327432500000043,
            "durationTicks": 96,
            "midi": 94,
            "name": "A#6",
            "ticks": 109152,
            "time": 150.92907525,
            "velocity": 0.7874015748031497
          },
          {
            "duration": 0.1327432500000043,
            "durationTicks": 96,
            "midi": 90,
            "name": "F#6",
            "ticks": 109152,
            "time": 150.92907525,
            "velocity": 0.7874015748031497
          },
          {
            "duration": 0.1327432500000043,
            "durationTicks": 96,
            "midi": 95,
            "name": "B6",
            "ticks": 109200,
            "time": 150.995446875,
            "velocity": 0.5905511811023622
          },
          {
            "duration": 0.1327432500000043,
            "durationTicks": 96,
            "midi": 92,
            "name": "G#6",
            "ticks": 109200,
            "time": 150.995446875,
            "velocity": 0.5905511811023622
          },
          {
            "duration": 0.1327432500000043,
            "durationTicks": 96,
            "midi": 92,
            "name": "G#6",
            "ticks": 109248,
            "time": 151.06181850000002,
            "velocity": 0.7874015748031497
          },
          {
            "duration": 0.1327432500000043,
            "durationTicks": 96,
            "midi": 88,
            "name": "E6",
            "ticks": 109248,
            "time": 151.06181850000002,
            "velocity": 0.7874015748031497
          },
          {
            "duration": 0.1327432500000043,
            "durationTicks": 96,
            "midi": 90,
            "name": "F#6",
            "ticks": 109296,
            "time": 151.128190125,
            "velocity": 0.5905511811023622
          },
          {
            "duration": 0.1327432500000043,
            "durationTicks": 96,
            "midi": 94,
            "name": "A#6",
            "ticks": 109296,
            "time": 151.128190125,
            "velocity": 0.5905511811023622
          },
          {
            "duration": 0.1327432499999759,
            "durationTicks": 96,
            "midi": 87,
            "name": "D#6",
            "ticks": 109344,
            "time": 151.19456175000002,
            "velocity": 0.7874015748031497
          },
          {
            "duration": 0.1327432499999759,
            "durationTicks": 96,
            "midi": 90,
            "name": "F#6",
            "ticks": 109344,
            "time": 151.19456175000002,
            "velocity": 0.7874015748031497
          },
          {
            "duration": 0.1327432500000043,
            "durationTicks": 96,
            "midi": 88,
            "name": "E6",
            "ticks": 109392,
            "time": 151.260933375,
            "velocity": 0.5905511811023622
          },
          {
            "duration": 0.1327432500000043,
            "durationTicks": 96,
            "midi": 92,
            "name": "G#6",
            "ticks": 109392,
            "time": 151.260933375,
            "velocity": 0.5905511811023622
          },
          {
            "duration": 0.1327432500000043,
            "durationTicks": 96,
            "midi": 92,
            "name": "G#6",
            "ticks": 109440,
            "time": 151.327305,
            "velocity": 0.7874015748031497
          },
          {
            "duration": 0.1327432500000043,
            "durationTicks": 96,
            "midi": 88,
            "name": "E6",
            "ticks": 109440,
            "time": 151.327305,
            "velocity": 0.7874015748031497
          },
          {
            "duration": 0.1327432500000043,
            "durationTicks": 96,
            "midi": 90,
            "name": "F#6",
            "ticks": 109488,
            "time": 151.393676625,
            "velocity": 0.5905511811023622
          },
          {
            "duration": 0.1327432500000043,
            "durationTicks": 96,
            "midi": 87,
            "name": "D#6",
            "ticks": 109488,
            "time": 151.393676625,
            "velocity": 0.5905511811023622
          },
          {
            "duration": 0.1327432500000043,
            "durationTicks": 96,
            "midi": 87,
            "name": "D#6",
            "ticks": 109536,
            "time": 151.46004825,
            "velocity": 0.7874015748031497
          },
          {
            "duration": 0.1327432500000043,
            "durationTicks": 96,
            "midi": 90,
            "name": "F#6",
            "ticks": 109536,
            "time": 151.46004825,
            "velocity": 0.7874015748031497
          },
          {
            "duration": 0.1327432500000043,
            "durationTicks": 96,
            "midi": 88,
            "name": "E6",
            "ticks": 109584,
            "time": 151.52641987500002,
            "velocity": 0.5905511811023622
          },
          {
            "duration": 0.1327432500000043,
            "durationTicks": 96,
            "midi": 92,
            "name": "G#6",
            "ticks": 109584,
            "time": 151.52641987500002,
            "velocity": 0.5905511811023622
          },
          {
            "duration": 0.1327432500000043,
            "durationTicks": 96,
            "midi": 92,
            "name": "G#6",
            "ticks": 109632,
            "time": 151.5927915,
            "velocity": 0.7874015748031497
          },
          {
            "duration": 0.1327432500000043,
            "durationTicks": 96,
            "midi": 88,
            "name": "E6",
            "ticks": 109632,
            "time": 151.5927915,
            "velocity": 0.7874015748031497
          },
          {
            "duration": 0.1327432499999759,
            "durationTicks": 96,
            "midi": 87,
            "name": "D#6",
            "ticks": 109680,
            "time": 151.65916312500002,
            "velocity": 0.5905511811023622
          },
          {
            "duration": 0.1327432499999759,
            "durationTicks": 96,
            "midi": 90,
            "name": "F#6",
            "ticks": 109680,
            "time": 151.65916312500002,
            "velocity": 0.5905511811023622
          },
          {
            "duration": 0.1327432500000043,
            "durationTicks": 96,
            "midi": 90,
            "name": "F#6",
            "ticks": 109728,
            "time": 151.72553475,
            "velocity": 0.7874015748031497
          },
          {
            "duration": 0.1327432500000043,
            "durationTicks": 96,
            "midi": 94,
            "name": "A#6",
            "ticks": 109728,
            "time": 151.72553475,
            "velocity": 0.7874015748031497
          },
          {
            "duration": 0.1327432500000043,
            "durationTicks": 96,
            "midi": 88,
            "name": "E6",
            "ticks": 109776,
            "time": 151.791906375,
            "velocity": 0.5905511811023622
          },
          {
            "duration": 0.1327432500000043,
            "durationTicks": 96,
            "midi": 92,
            "name": "G#6",
            "ticks": 109776,
            "time": 151.791906375,
            "velocity": 0.5905511811023622
          },
          {
            "duration": 0.1327432500000043,
            "durationTicks": 96,
            "midi": 88,
            "name": "E6",
            "ticks": 109824,
            "time": 151.858278,
            "velocity": 0.7874015748031497
          },
          {
            "duration": 0.1327432500000043,
            "durationTicks": 96,
            "midi": 92,
            "name": "G#6",
            "ticks": 109824,
            "time": 151.858278,
            "velocity": 0.7874015748031497
          },
          {
            "duration": 0.1327432500000043,
            "durationTicks": 96,
            "midi": 90,
            "name": "F#6",
            "ticks": 109872,
            "time": 151.924649625,
            "velocity": 0.5905511811023622
          },
          {
            "duration": 0.1327432500000043,
            "durationTicks": 96,
            "midi": 94,
            "name": "A#6",
            "ticks": 109872,
            "time": 151.924649625,
            "velocity": 0.5905511811023622
          },
          {
            "duration": 0.1327432500000043,
            "durationTicks": 96,
            "midi": 92,
            "name": "G#6",
            "ticks": 109968,
            "time": 152.057392875,
            "velocity": 0.5905511811023622
          },
          {
            "duration": 0.1327432500000043,
            "durationTicks": 96,
            "midi": 88,
            "name": "E6",
            "ticks": 109968,
            "time": 152.057392875,
            "velocity": 0.5905511811023622
          },
          {
            "duration": 0.1327432500000043,
            "durationTicks": 96,
            "midi": 85,
            "name": "C#6",
            "ticks": 110112,
            "time": 152.25650775,
            "velocity": 0.7874015748031497
          },
          {
            "duration": 0.1327432500000043,
            "durationTicks": 96,
            "midi": 80,
            "name": "G#5",
            "ticks": 110112,
            "time": 152.25650775,
            "velocity": 0.7874015748031497
          },
          {
            "duration": 0.1327432500000043,
            "durationTicks": 96,
            "midi": 80,
            "name": "G#5",
            "ticks": 110256,
            "time": 152.45562262500002,
            "velocity": 0.5905511811023622
          },
          {
            "duration": 0.1327432500000043,
            "durationTicks": 96,
            "midi": 85,
            "name": "C#6",
            "ticks": 110256,
            "time": 152.45562262500002,
            "velocity": 0.5905511811023622
          },
          {
            "duration": 0.1327432500000043,
            "durationTicks": 96,
            "midi": 80,
            "name": "G#5",
            "ticks": 110400,
            "time": 152.6547375,
            "velocity": 0.7874015748031497
          },
          {
            "duration": 0.1327432500000043,
            "durationTicks": 96,
            "midi": 85,
            "name": "C#6",
            "ticks": 110400,
            "time": 152.6547375,
            "velocity": 0.7874015748031497
          },
          {
            "duration": 0.1327432500000043,
            "durationTicks": 96,
            "midi": 83,
            "name": "B5",
            "ticks": 110496,
            "time": 152.78748075000001,
            "velocity": 0.7874015748031497
          },
          {
            "duration": 0.1327432500000043,
            "durationTicks": 96,
            "midi": 87,
            "name": "D#6",
            "ticks": 110496,
            "time": 152.78748075000001,
            "velocity": 0.7874015748031497
          },
          {
            "duration": 0.1327432500000043,
            "durationTicks": 96,
            "midi": 85,
            "name": "C#6",
            "ticks": 110544,
            "time": 152.853852375,
            "velocity": 0.5905511811023622
          },
          {
            "duration": 0.1327432500000043,
            "durationTicks": 96,
            "midi": 80,
            "name": "G#5",
            "ticks": 110544,
            "time": 152.853852375,
            "velocity": 0.5905511811023622
          },
          {
            "duration": 0.3982297499999845,
            "durationTicks": 288,
            "midi": 88,
            "name": "E6",
            "ticks": 110592,
            "time": 152.92022400000002,
            "velocity": 0.7874015748031497
          },
          {
            "duration": 0.3982297499999845,
            "durationTicks": 288,
            "midi": 85,
            "name": "C#6",
            "ticks": 110592,
            "time": 152.92022400000002,
            "velocity": 0.7874015748031497
          },
          {
            "duration": 0.1327432500000043,
            "durationTicks": 96,
            "midi": 83,
            "name": "B5",
            "ticks": 110640,
            "time": 152.986595625,
            "velocity": 0.5905511811023622
          },
          {
            "duration": 0.1327432500000043,
            "durationTicks": 96,
            "midi": 87,
            "name": "D#6",
            "ticks": 110640,
            "time": 152.986595625,
            "velocity": 0.5905511811023622
          },
          {
            "duration": 0.3982297499999845,
            "durationTicks": 288,
            "midi": 88,
            "name": "E6",
            "ticks": 110736,
            "time": 153.119338875,
            "velocity": 0.5905511811023622
          },
          {
            "duration": 0.3982297499999845,
            "durationTicks": 288,
            "midi": 85,
            "name": "C#6",
            "ticks": 110736,
            "time": 153.119338875,
            "velocity": 0.5905511811023622
          },
          {
            "duration": 0.3982297500000129,
            "durationTicks": 288,
            "midi": 90,
            "name": "F#6",
            "ticks": 110880,
            "time": 153.31845375,
            "velocity": 0.7874015748031497
          },
          {
            "duration": 0.3982297500000129,
            "durationTicks": 288,
            "midi": 87,
            "name": "D#6",
            "ticks": 110880,
            "time": 153.31845375,
            "velocity": 0.7874015748031497
          },
          {
            "duration": 0.3982297500000129,
            "durationTicks": 288,
            "midi": 90,
            "name": "F#6",
            "ticks": 111024,
            "time": 153.517568625,
            "velocity": 0.5905511811023622
          },
          {
            "duration": 0.3982297500000129,
            "durationTicks": 288,
            "midi": 87,
            "name": "D#6",
            "ticks": 111024,
            "time": 153.517568625,
            "velocity": 0.5905511811023622
          },
          {
            "duration": 0.2654864999999802,
            "durationTicks": 192,
            "midi": 93,
            "name": "A6",
            "ticks": 111168,
            "time": 153.71668350000002,
            "velocity": 0.7874015748031497
          },
          {
            "duration": 0.2654864999999802,
            "durationTicks": 192,
            "midi": 90,
            "name": "F#6",
            "ticks": 111168,
            "time": 153.71668350000002,
            "velocity": 0.7874015748031497
          },
          {
            "duration": 0.2654865000000086,
            "durationTicks": 192,
            "midi": 90,
            "name": "F#6",
            "ticks": 111312,
            "time": 153.915798375,
            "velocity": 0.5905511811023622
          },
          {
            "duration": 0.2654865000000086,
            "durationTicks": 192,
            "midi": 93,
            "name": "A6",
            "ticks": 111312,
            "time": 153.915798375,
            "velocity": 0.5905511811023622
          },
          {
            "duration": 0.1327432500000043,
            "durationTicks": 96,
            "midi": 92,
            "name": "G#6",
            "ticks": 111360,
            "time": 153.98217,
            "velocity": 0.7874015748031497
          },
          {
            "duration": 0.1327432500000043,
            "durationTicks": 96,
            "midi": 92,
            "name": "G#6",
            "ticks": 111360,
            "time": 153.98217,
            "velocity": 0.7874015748031497
          },
          {
            "duration": 0.1327432500000043,
            "durationTicks": 96,
            "midi": 92,
            "name": "G#6",
            "ticks": 111504,
            "time": 154.18128487500002,
            "velocity": 0.5905511811023622
          },
          {
            "duration": 0.1327432500000043,
            "durationTicks": 96,
            "midi": 92,
            "name": "G#6",
            "ticks": 111504,
            "time": 154.18128487500002,
            "velocity": 0.5905511811023622
          },
          {
            "duration": 0.1327432500000043,
            "durationTicks": 96,
            "midi": 87,
            "name": "D#6",
            "ticks": 111552,
            "time": 154.2476565,
            "velocity": 0.7874015748031497
          },
          {
            "duration": 0.1327432500000043,
            "durationTicks": 96,
            "midi": 87,
            "name": "D#6",
            "ticks": 111552,
            "time": 154.2476565,
            "velocity": 0.7874015748031497
          },
          {
            "duration": 0.1327432500000043,
            "durationTicks": 96,
            "midi": 87,
            "name": "D#6",
            "ticks": 111696,
            "time": 154.446771375,
            "velocity": 0.5905511811023622
          },
          {
            "duration": 0.1327432500000043,
            "durationTicks": 96,
            "midi": 87,
            "name": "D#6",
            "ticks": 111696,
            "time": 154.446771375,
            "velocity": 0.5905511811023622
          },
          {
            "duration": 0.1327432500000043,
            "durationTicks": 96,
            "midi": 85,
            "name": "C#6",
            "ticks": 111744,
            "time": 154.513143,
            "velocity": 0.7874015748031497
          },
          {
            "duration": 0.1327432500000043,
            "durationTicks": 96,
            "midi": 85,
            "name": "C#6",
            "ticks": 111744,
            "time": 154.513143,
            "velocity": 0.7874015748031497
          },
          {
            "duration": 0.1327432500000043,
            "durationTicks": 96,
            "midi": 85,
            "name": "C#6",
            "ticks": 111888,
            "time": 154.712257875,
            "velocity": 0.5905511811023622
          },
          {
            "duration": 0.1327432500000043,
            "durationTicks": 96,
            "midi": 85,
            "name": "C#6",
            "ticks": 111888,
            "time": 154.712257875,
            "velocity": 0.5905511811023622
          },
          {
            "duration": 0.1327432499999759,
            "durationTicks": 96,
            "midi": 80,
            "name": "G#5",
            "ticks": 111936,
            "time": 154.77862950000002,
            "velocity": 0.7874015748031497
          },
          {
            "duration": 0.1327432499999759,
            "durationTicks": 96,
            "midi": 80,
            "name": "G#5",
            "ticks": 111936,
            "time": 154.77862950000002,
            "velocity": 0.7874015748031497
          },
          {
            "duration": 0.1327432500000043,
            "durationTicks": 96,
            "midi": 80,
            "name": "G#5",
            "ticks": 112080,
            "time": 154.97774437500001,
            "velocity": 0.5905511811023622
          },
          {
            "duration": 0.1327432500000043,
            "durationTicks": 96,
            "midi": 80,
            "name": "G#5",
            "ticks": 112080,
            "time": 154.97774437500001,
            "velocity": 0.5905511811023622
          },
          {
            "duration": 0.1327432500000043,
            "durationTicks": 96,
            "midi": 87,
            "name": "D#6",
            "ticks": 112128,
            "time": 155.044116,
            "velocity": 0.7874015748031497
          },
          {
            "duration": 0.1327432500000043,
            "durationTicks": 96,
            "midi": 90,
            "name": "F#6",
            "ticks": 112128,
            "time": 155.044116,
            "velocity": 0.7874015748031497
          },
          {
            "duration": 0.1327432500000043,
            "durationTicks": 96,
            "midi": 88,
            "name": "E6",
            "ticks": 112224,
            "time": 155.17685925,
            "velocity": 0.7874015748031497
          },
          {
            "duration": 0.1327432500000043,
            "durationTicks": 96,
            "midi": 85,
            "name": "C#6",
            "ticks": 112224,
            "time": 155.17685925,
            "velocity": 0.7874015748031497
          },
          {
            "duration": 0.1327432500000043,
            "durationTicks": 96,
            "midi": 90,
            "name": "F#6",
            "ticks": 112272,
            "time": 155.243230875,
            "velocity": 0.5905511811023622
          },
          {
            "duration": 0.1327432500000043,
            "durationTicks": 96,
            "midi": 87,
            "name": "D#6",
            "ticks": 112272,
            "time": 155.243230875,
            "velocity": 0.5905511811023622
          },
          {
            "duration": 0.1327432500000043,
            "durationTicks": 96,
            "midi": 87,
            "name": "D#6",
            "ticks": 112320,
            "time": 155.3096025,
            "velocity": 0.7874015748031497
          },
          {
            "duration": 0.1327432500000043,
            "durationTicks": 96,
            "midi": 83,
            "name": "B5",
            "ticks": 112320,
            "time": 155.3096025,
            "velocity": 0.7874015748031497
          },
          {
            "duration": 0.1327432500000043,
            "durationTicks": 96,
            "midi": 85,
            "name": "C#6",
            "ticks": 112368,
            "time": 155.375974125,
            "velocity": 0.5905511811023622
          },
          {
            "duration": 0.1327432500000043,
            "durationTicks": 96,
            "midi": 88,
            "name": "E6",
            "ticks": 112368,
            "time": 155.375974125,
            "velocity": 0.5905511811023622
          },
          {
            "duration": 0.1327432500000043,
            "durationTicks": 96,
            "midi": 85,
            "name": "C#6",
            "ticks": 112416,
            "time": 155.44234575000002,
            "velocity": 0.7874015748031497
          },
          {
            "duration": 0.1327432500000043,
            "durationTicks": 96,
            "midi": 81,
            "name": "A5",
            "ticks": 112416,
            "time": 155.44234575000002,
            "velocity": 0.7874015748031497
          },
          {
            "duration": 0.1327432500000043,
            "durationTicks": 96,
            "midi": 83,
            "name": "B5",
            "ticks": 112464,
            "time": 155.508717375,
            "velocity": 0.5905511811023622
          },
          {
            "duration": 0.1327432500000043,
            "durationTicks": 96,
            "midi": 87,
            "name": "D#6",
            "ticks": 112464,
            "time": 155.508717375,
            "velocity": 0.5905511811023622
          },
          {
            "duration": 0.1327432499999759,
            "durationTicks": 96,
            "midi": 87,
            "name": "D#6",
            "ticks": 112512,
            "time": 155.57508900000002,
            "velocity": 0.7874015748031497
          },
          {
            "duration": 0.1327432499999759,
            "durationTicks": 96,
            "midi": 83,
            "name": "B5",
            "ticks": 112512,
            "time": 155.57508900000002,
            "velocity": 0.7874015748031497
          },
          {
            "duration": 0.1327432500000043,
            "durationTicks": 96,
            "midi": 85,
            "name": "C#6",
            "ticks": 112560,
            "time": 155.641460625,
            "velocity": 0.5905511811023622
          },
          {
            "duration": 0.1327432500000043,
            "durationTicks": 96,
            "midi": 81,
            "name": "A5",
            "ticks": 112560,
            "time": 155.641460625,
            "velocity": 0.5905511811023622
          },
          {
            "duration": 0.1327432500000043,
            "durationTicks": 96,
            "midi": 85,
            "name": "C#6",
            "ticks": 112608,
            "time": 155.70783225,
            "velocity": 0.7874015748031497
          },
          {
            "duration": 0.1327432500000043,
            "durationTicks": 96,
            "midi": 81,
            "name": "A5",
            "ticks": 112608,
            "time": 155.70783225,
            "velocity": 0.7874015748031497
          },
          {
            "duration": 0.1327432500000043,
            "durationTicks": 96,
            "midi": 83,
            "name": "B5",
            "ticks": 112656,
            "time": 155.774203875,
            "velocity": 0.5905511811023622
          },
          {
            "duration": 0.1327432500000043,
            "durationTicks": 96,
            "midi": 87,
            "name": "D#6",
            "ticks": 112656,
            "time": 155.774203875,
            "velocity": 0.5905511811023622
          },
          {
            "duration": 0.1327432500000043,
            "durationTicks": 96,
            "midi": 83,
            "name": "B5",
            "ticks": 112704,
            "time": 155.8405755,
            "velocity": 0.7874015748031497
          },
          {
            "duration": 0.1327432500000043,
            "durationTicks": 96,
            "midi": 80,
            "name": "G#5",
            "ticks": 112704,
            "time": 155.8405755,
            "velocity": 0.7874015748031497
          },
          {
            "duration": 0.1327432500000043,
            "durationTicks": 96,
            "midi": 81,
            "name": "A5",
            "ticks": 112752,
            "time": 155.90694712500002,
            "velocity": 0.5905511811023622
          },
          {
            "duration": 0.1327432500000043,
            "durationTicks": 96,
            "midi": 85,
            "name": "C#6",
            "ticks": 112752,
            "time": 155.90694712500002,
            "velocity": 0.5905511811023622
          },
          {
            "duration": 0.1327432500000043,
            "durationTicks": 96,
            "midi": 87,
            "name": "D#6",
            "ticks": 112800,
            "time": 155.97331875,
            "velocity": 0.7874015748031497
          },
          {
            "duration": 0.1327432500000043,
            "durationTicks": 96,
            "midi": 83,
            "name": "B5",
            "ticks": 112800,
            "time": 155.97331875,
            "velocity": 0.7874015748031497
          },
          {
            "duration": 0.1327432499999759,
            "durationTicks": 96,
            "midi": 80,
            "name": "G#5",
            "ticks": 112848,
            "time": 156.03969037500002,
            "velocity": 0.5905511811023622
          },
          {
            "duration": 0.1327432499999759,
            "durationTicks": 96,
            "midi": 83,
            "name": "B5",
            "ticks": 112848,
            "time": 156.03969037500002,
            "velocity": 0.5905511811023622
          },
          {
            "duration": 0.1327432500000043,
            "durationTicks": 96,
            "midi": 80,
            "name": "G#5",
            "ticks": 112896,
            "time": 156.106062,
            "velocity": 0.7874015748031497
          },
          {
            "duration": 0.1327432500000043,
            "durationTicks": 96,
            "midi": 85,
            "name": "C#6",
            "ticks": 112896,
            "time": 156.106062,
            "velocity": 0.7874015748031497
          },
          {
            "duration": 0.1327432500000043,
            "durationTicks": 96,
            "midi": 83,
            "name": "B5",
            "ticks": 112944,
            "time": 156.172433625,
            "velocity": 0.5905511811023622
          },
          {
            "duration": 0.1327432500000043,
            "durationTicks": 96,
            "midi": 87,
            "name": "D#6",
            "ticks": 112944,
            "time": 156.172433625,
            "velocity": 0.5905511811023622
          },
          {
            "duration": 0.1327432500000043,
            "durationTicks": 96,
            "midi": 85,
            "name": "C#6",
            "ticks": 113040,
            "time": 156.305176875,
            "velocity": 0.5905511811023622
          },
          {
            "duration": 0.1327432500000043,
            "durationTicks": 96,
            "midi": 80,
            "name": "G#5",
            "ticks": 113040,
            "time": 156.305176875,
            "velocity": 0.5905511811023622
          },
          {
            "duration": 0.1327432499999759,
            "durationTicks": 96,
            "midi": 80,
            "name": "G#5",
            "ticks": 113184,
            "time": 156.50429175000002,
            "velocity": 0.7874015748031497
          },
          {
            "duration": 0.1327432499999759,
            "durationTicks": 96,
            "midi": 73,
            "name": "C#5",
            "ticks": 113184,
            "time": 156.50429175000002,
            "velocity": 0.7874015748031497
          },
          {
            "duration": 0.1327432500000043,
            "durationTicks": 96,
            "midi": 80,
            "name": "G#5",
            "ticks": 113328,
            "time": 156.703406625,
            "velocity": 0.5905511811023622
          },
          {
            "duration": 0.1327432500000043,
            "durationTicks": 96,
            "midi": 73,
            "name": "C#5",
            "ticks": 113328,
            "time": 156.703406625,
            "velocity": 0.5905511811023622
          },
          {
            "duration": 0.1327432500000043,
            "durationTicks": 96,
            "midi": 80,
            "name": "G#5",
            "ticks": 113472,
            "time": 156.9025215,
            "velocity": 0.7874015748031497
          },
          {
            "duration": 0.1327432500000043,
            "durationTicks": 96,
            "midi": 73,
            "name": "C#5",
            "ticks": 113472,
            "time": 156.9025215,
            "velocity": 0.7874015748031497
          },
          {
            "duration": 0.1327432500000043,
            "durationTicks": 96,
            "midi": 80,
            "name": "G#5",
            "ticks": 113568,
            "time": 157.03526475,
            "velocity": 0.7874015748031497
          },
          {
            "duration": 0.1327432500000043,
            "durationTicks": 96,
            "midi": 85,
            "name": "C#6",
            "ticks": 113568,
            "time": 157.03526475,
            "velocity": 0.7874015748031497
          },
          {
            "duration": 0.1327432500000043,
            "durationTicks": 96,
            "midi": 73,
            "name": "C#5",
            "ticks": 113616,
            "time": 157.101636375,
            "velocity": 0.5905511811023622
          },
          {
            "duration": 0.1327432500000043,
            "durationTicks": 96,
            "midi": 80,
            "name": "G#5",
            "ticks": 113616,
            "time": 157.101636375,
            "velocity": 0.5905511811023622
          },
          {
            "duration": 0.1327432500000043,
            "durationTicks": 96,
            "midi": 87,
            "name": "D#6",
            "ticks": 113664,
            "time": 157.16800800000001,
            "velocity": 0.7874015748031497
          },
          {
            "duration": 0.1327432500000043,
            "durationTicks": 96,
            "midi": 90,
            "name": "F#6",
            "ticks": 113664,
            "time": 157.16800800000001,
            "velocity": 0.7874015748031497
          },
          {
            "duration": 0.1327432500000043,
            "durationTicks": 96,
            "midi": 85,
            "name": "C#6",
            "ticks": 113712,
            "time": 157.234379625,
            "velocity": 0.5905511811023622
          },
          {
            "duration": 0.1327432500000043,
            "durationTicks": 96,
            "midi": 80,
            "name": "G#5",
            "ticks": 113712,
            "time": 157.234379625,
            "velocity": 0.5905511811023622
          },
          {
            "duration": 0.1327432499999759,
            "durationTicks": 96,
            "midi": 85,
            "name": "C#6",
            "ticks": 113760,
            "time": 157.30075125000002,
            "velocity": 0.7874015748031497
          },
          {
            "duration": 0.1327432499999759,
            "durationTicks": 96,
            "midi": 88,
            "name": "E6",
            "ticks": 113760,
            "time": 157.30075125000002,
            "velocity": 0.7874015748031497
          },
          {
            "duration": 0.1327432500000043,
            "durationTicks": 96,
            "midi": 87,
            "name": "D#6",
            "ticks": 113808,
            "time": 157.367122875,
            "velocity": 0.5905511811023622
          },
          {
            "duration": 0.1327432500000043,
            "durationTicks": 96,
            "midi": 90,
            "name": "F#6",
            "ticks": 113808,
            "time": 157.367122875,
            "velocity": 0.5905511811023622
          },
          {
            "duration": 0.1327432500000043,
            "durationTicks": 96,
            "midi": 83,
            "name": "B5",
            "ticks": 113856,
            "time": 157.4334945,
            "velocity": 0.7874015748031497
          },
          {
            "duration": 0.1327432500000043,
            "durationTicks": 96,
            "midi": 87,
            "name": "D#6",
            "ticks": 113856,
            "time": 157.4334945,
            "velocity": 0.7874015748031497
          },
          {
            "duration": 0.1327432500000043,
            "durationTicks": 96,
            "midi": 85,
            "name": "C#6",
            "ticks": 113904,
            "time": 157.499866125,
            "velocity": 0.5905511811023622
          },
          {
            "duration": 0.1327432500000043,
            "durationTicks": 96,
            "midi": 88,
            "name": "E6",
            "ticks": 113904,
            "time": 157.499866125,
            "velocity": 0.5905511811023622
          },
          {
            "duration": 0.1327432500000043,
            "durationTicks": 96,
            "midi": 85,
            "name": "C#6",
            "ticks": 113952,
            "time": 157.56623775,
            "velocity": 0.7874015748031497
          },
          {
            "duration": 0.1327432500000043,
            "durationTicks": 96,
            "midi": 81,
            "name": "A5",
            "ticks": 113952,
            "time": 157.56623775,
            "velocity": 0.7874015748031497
          },
          {
            "duration": 0.1327432500000043,
            "durationTicks": 96,
            "midi": 87,
            "name": "D#6",
            "ticks": 114000,
            "time": 157.63260937500002,
            "velocity": 0.5905511811023622
          },
          {
            "duration": 0.1327432500000043,
            "durationTicks": 96,
            "midi": 83,
            "name": "B5",
            "ticks": 114000,
            "time": 157.63260937500002,
            "velocity": 0.5905511811023622
          },
          {
            "duration": 0.1327432500000043,
            "durationTicks": 96,
            "midi": 83,
            "name": "B5",
            "ticks": 114048,
            "time": 157.698981,
            "velocity": 0.7874015748031497
          },
          {
            "duration": 0.1327432500000043,
            "durationTicks": 96,
            "midi": 80,
            "name": "G#5",
            "ticks": 114048,
            "time": 157.698981,
            "velocity": 0.7874015748031497
          },
          {
            "duration": 0.1327432499999759,
            "durationTicks": 96,
            "midi": 81,
            "name": "A5",
            "ticks": 114096,
            "time": 157.76535262500002,
            "velocity": 0.5905511811023622
          },
          {
            "duration": 0.1327432499999759,
            "durationTicks": 96,
            "midi": 85,
            "name": "C#6",
            "ticks": 114096,
            "time": 157.76535262500002,
            "velocity": 0.5905511811023622
          },
          {
            "duration": 0.1327432500000043,
            "durationTicks": 96,
            "midi": 78,
            "name": "F#5",
            "ticks": 114144,
            "time": 157.83172425,
            "velocity": 0.7874015748031497
          },
          {
            "duration": 0.1327432500000043,
            "durationTicks": 96,
            "midi": 81,
            "name": "A5",
            "ticks": 114144,
            "time": 157.83172425,
            "velocity": 0.7874015748031497
          },
          {
            "duration": 0.1327432500000043,
            "durationTicks": 96,
            "midi": 83,
            "name": "B5",
            "ticks": 114192,
            "time": 157.898095875,
            "velocity": 0.5905511811023622
          },
          {
            "duration": 0.1327432500000043,
            "durationTicks": 96,
            "midi": 80,
            "name": "G#5",
            "ticks": 114192,
            "time": 157.898095875,
            "velocity": 0.5905511811023622
          },
          {
            "duration": 0.1327432500000043,
            "durationTicks": 96,
            "midi": 92,
            "name": "G#6",
            "ticks": 114240,
            "time": 157.9644675,
            "velocity": 0.7874015748031497
          },
          {
            "duration": 0.1327432500000043,
            "durationTicks": 96,
            "midi": 88,
            "name": "E6",
            "ticks": 114240,
            "time": 157.9644675,
            "velocity": 0.7874015748031497
          },
          {
            "duration": 0.1327432500000043,
            "durationTicks": 96,
            "midi": 78,
            "name": "F#5",
            "ticks": 114288,
            "time": 158.030839125,
            "velocity": 0.5905511811023622
          },
          {
            "duration": 0.1327432500000043,
            "durationTicks": 96,
            "midi": 81,
            "name": "A5",
            "ticks": 114288,
            "time": 158.030839125,
            "velocity": 0.5905511811023622
          },
          {
            "duration": 0.1327432500000043,
            "durationTicks": 96,
            "midi": 87,
            "name": "D#6",
            "ticks": 114336,
            "time": 158.09721075000002,
            "velocity": 0.7874015748031497
          },
          {
            "duration": 0.1327432500000043,
            "durationTicks": 96,
            "midi": 90,
            "name": "F#6",
            "ticks": 114336,
            "time": 158.09721075000002,
            "velocity": 0.7874015748031497
          },
          {
            "duration": 0.1327432500000043,
            "durationTicks": 96,
            "midi": 88,
            "name": "E6",
            "ticks": 114384,
            "time": 158.163582375,
            "velocity": 0.5905511811023622
          },
          {
            "duration": 0.1327432500000043,
            "durationTicks": 96,
            "midi": 92,
            "name": "G#6",
            "ticks": 114384,
            "time": 158.163582375,
            "velocity": 0.5905511811023622
          },
          {
            "duration": 0.2654864999999802,
            "durationTicks": 192,
            "midi": 88,
            "name": "E6",
            "ticks": 114432,
            "time": 158.22995400000002,
            "velocity": 0.7874015748031497
          },
          {
            "duration": 0.2654864999999802,
            "durationTicks": 192,
            "midi": 85,
            "name": "C#6",
            "ticks": 114432,
            "time": 158.22995400000002,
            "velocity": 0.7874015748031497
          },
          {
            "duration": 0.1327432500000043,
            "durationTicks": 96,
            "midi": 87,
            "name": "D#6",
            "ticks": 114480,
            "time": 158.296325625,
            "velocity": 0.5905511811023622
          },
          {
            "duration": 0.1327432500000043,
            "durationTicks": 96,
            "midi": 90,
            "name": "F#6",
            "ticks": 114480,
            "time": 158.296325625,
            "velocity": 0.5905511811023622
          },
          {
            "duration": 0.2654865000000086,
            "durationTicks": 192,
            "midi": 85,
            "name": "C#6",
            "ticks": 114576,
            "time": 158.429068875,
            "velocity": 0.5905511811023622
          },
          {
            "duration": 0.2654865000000086,
            "durationTicks": 192,
            "midi": 88,
            "name": "E6",
            "ticks": 114576,
            "time": 158.429068875,
            "velocity": 0.5905511811023622
          },
          {
            "duration": 0.2654865000000086,
            "durationTicks": 192,
            "midi": 87,
            "name": "D#6",
            "ticks": 114624,
            "time": 158.4954405,
            "velocity": 0.7874015748031497
          },
          {
            "duration": 0.2654865000000086,
            "durationTicks": 192,
            "midi": 90,
            "name": "F#6",
            "ticks": 114624,
            "time": 158.4954405,
            "velocity": 0.7874015748031497
          },
          {
            "duration": 0.2654864999999802,
            "durationTicks": 192,
            "midi": 90,
            "name": "F#6",
            "ticks": 114768,
            "time": 158.69455537500002,
            "velocity": 0.5905511811023622
          },
          {
            "duration": 0.2654864999999802,
            "durationTicks": 192,
            "midi": 87,
            "name": "D#6",
            "ticks": 114768,
            "time": 158.69455537500002,
            "velocity": 0.5905511811023622
          },
          {
            "duration": 0.2654865000000086,
            "durationTicks": 192,
            "midi": 92,
            "name": "G#6",
            "ticks": 114816,
            "time": 158.760927,
            "velocity": 0.7874015748031497
          },
          {
            "duration": 0.2654865000000086,
            "durationTicks": 192,
            "midi": 88,
            "name": "E6",
            "ticks": 114816,
            "time": 158.760927,
            "velocity": 0.7874015748031497
          },
          {
            "duration": 0.19911487500002067,
            "durationTicks": 144,
            "midi": 88,
            "name": "E6",
            "ticks": 114960,
            "time": 158.960041875,
            "velocity": 0.5905511811023622
          },
          {
            "duration": 0.19911487500002067,
            "durationTicks": 144,
            "midi": 92,
            "name": "G#6",
            "ticks": 114960,
            "time": 158.960041875,
            "velocity": 0.5905511811023622
          },
          {
            "duration": 0.19911487499999225,
            "durationTicks": 144,
            "midi": 92,
            "name": "G#6",
            "ticks": 115008,
            "time": 159.02641350000002,
            "velocity": 0.7874015748031497
          },
          {
            "duration": 0.19911487499999225,
            "durationTicks": 144,
            "midi": 88,
            "name": "E6",
            "ticks": 115008,
            "time": 159.02641350000002,
            "velocity": 0.7874015748031497
          },
          {
            "duration": 0.1327432499999759,
            "durationTicks": 96,
            "midi": 90,
            "name": "F#6",
            "ticks": 115104,
            "time": 159.15915675000002,
            "velocity": 0.7874015748031497
          },
          {
            "duration": 0.1327432499999759,
            "durationTicks": 96,
            "midi": 94,
            "name": "A#6",
            "ticks": 115104,
            "time": 159.15915675000002,
            "velocity": 0.7874015748031497
          },
          {
            "duration": 0.1327432500000043,
            "durationTicks": 96,
            "midi": 88,
            "name": "E6",
            "ticks": 115152,
            "time": 159.225528375,
            "velocity": 0.5905511811023622
          },
          {
            "duration": 0.1327432500000043,
            "durationTicks": 96,
            "midi": 92,
            "name": "G#6",
            "ticks": 115152,
            "time": 159.225528375,
            "velocity": 0.5905511811023622
          },
          {
            "duration": 0.1327432500000043,
            "durationTicks": 96,
            "midi": 95,
            "name": "B6",
            "ticks": 115200,
            "time": 159.2919,
            "velocity": 0.7874015748031497
          },
          {
            "duration": 0.1327432500000043,
            "durationTicks": 96,
            "midi": 92,
            "name": "G#6",
            "ticks": 115200,
            "time": 159.2919,
            "velocity": 0.7874015748031497
          },
          {
            "duration": 0.1327432500000043,
            "durationTicks": 96,
            "midi": 90,
            "name": "F#6",
            "ticks": 115248,
            "time": 159.35827162500001,
            "velocity": 0.5905511811023622
          },
          {
            "duration": 0.1327432500000043,
            "durationTicks": 96,
            "midi": 94,
            "name": "A#6",
            "ticks": 115248,
            "time": 159.35827162500001,
            "velocity": 0.5905511811023622
          },
          {
            "duration": 0.1327432500000043,
            "durationTicks": 96,
            "midi": 90,
            "name": "F#6",
            "ticks": 115296,
            "time": 159.42464325,
            "velocity": 0.7874015748031497
          },
          {
            "duration": 0.1327432500000043,
            "durationTicks": 96,
            "midi": 94,
            "name": "A#6",
            "ticks": 115296,
            "time": 159.42464325,
            "velocity": 0.7874015748031497
          },
          {
            "duration": 0.1327432499999759,
            "durationTicks": 96,
            "midi": 92,
            "name": "G#6",
            "ticks": 115344,
            "time": 159.49101487500002,
            "velocity": 0.5905511811023622
          },
          {
            "duration": 0.1327432499999759,
            "durationTicks": 96,
            "midi": 95,
            "name": "B6",
            "ticks": 115344,
            "time": 159.49101487500002,
            "velocity": 0.5905511811023622
          },
          {
            "duration": 0.1327432500000043,
            "durationTicks": 96,
            "midi": 88,
            "name": "E6",
            "ticks": 115392,
            "time": 159.5573865,
            "velocity": 0.7874015748031497
          },
          {
            "duration": 0.1327432500000043,
            "durationTicks": 96,
            "midi": 92,
            "name": "G#6",
            "ticks": 115392,
            "time": 159.5573865,
            "velocity": 0.7874015748031497
          },
          {
            "duration": 0.1327432500000043,
            "durationTicks": 96,
            "midi": 90,
            "name": "F#6",
            "ticks": 115440,
            "time": 159.623758125,
            "velocity": 0.5905511811023622
          },
          {
            "duration": 0.1327432500000043,
            "durationTicks": 96,
            "midi": 94,
            "name": "A#6",
            "ticks": 115440,
            "time": 159.623758125,
            "velocity": 0.5905511811023622
          },
          {
            "duration": 0.1327432500000043,
            "durationTicks": 96,
            "midi": 87,
            "name": "D#6",
            "ticks": 115488,
            "time": 159.69012975,
            "velocity": 0.7874015748031497
          },
          {
            "duration": 0.1327432500000043,
            "durationTicks": 96,
            "midi": 90,
            "name": "F#6",
            "ticks": 115488,
            "time": 159.69012975,
            "velocity": 0.7874015748031497
          },
          {
            "duration": 0.1327432500000043,
            "durationTicks": 96,
            "midi": 88,
            "name": "E6",
            "ticks": 115536,
            "time": 159.756501375,
            "velocity": 0.5905511811023622
          },
          {
            "duration": 0.1327432500000043,
            "durationTicks": 96,
            "midi": 92,
            "name": "G#6",
            "ticks": 115536,
            "time": 159.756501375,
            "velocity": 0.5905511811023622
          },
          {
            "duration": 0.1327432500000043,
            "durationTicks": 96,
            "midi": 92,
            "name": "G#6",
            "ticks": 115584,
            "time": 159.82287300000002,
            "velocity": 0.7874015748031497
          },
          {
            "duration": 0.1327432500000043,
            "durationTicks": 96,
            "midi": 88,
            "name": "E6",
            "ticks": 115584,
            "time": 159.82287300000002,
            "velocity": 0.7874015748031497
          },
          {
            "duration": 0.1327432500000043,
            "durationTicks": 96,
            "midi": 87,
            "name": "D#6",
            "ticks": 115632,
            "time": 159.889244625,
            "velocity": 0.5905511811023622
          },
          {
            "duration": 0.1327432500000043,
            "durationTicks": 96,
            "midi": 90,
            "name": "F#6",
            "ticks": 115632,
            "time": 159.889244625,
            "velocity": 0.5905511811023622
          },
          {
            "duration": 0.1327432499999759,
            "durationTicks": 96,
            "midi": 87,
            "name": "D#6",
            "ticks": 115680,
            "time": 159.95561625000002,
            "velocity": 0.7874015748031497
          },
          {
            "duration": 0.1327432499999759,
            "durationTicks": 96,
            "midi": 90,
            "name": "F#6",
            "ticks": 115680,
            "time": 159.95561625000002,
            "velocity": 0.7874015748031497
          },
          {
            "duration": 0.1327432500000043,
            "durationTicks": 96,
            "midi": 92,
            "name": "G#6",
            "ticks": 115728,
            "time": 160.021987875,
            "velocity": 0.5905511811023622
          },
          {
            "duration": 0.1327432500000043,
            "durationTicks": 96,
            "midi": 88,
            "name": "E6",
            "ticks": 115728,
            "time": 160.021987875,
            "velocity": 0.5905511811023622
          },
          {
            "duration": 0.1327432500000043,
            "durationTicks": 96,
            "midi": 88,
            "name": "E6",
            "ticks": 115776,
            "time": 160.0883595,
            "velocity": 0.7874015748031497
          },
          {
            "duration": 0.1327432500000043,
            "durationTicks": 96,
            "midi": 92,
            "name": "G#6",
            "ticks": 115776,
            "time": 160.0883595,
            "velocity": 0.7874015748031497
          },
          {
            "duration": 0.1327432500000043,
            "durationTicks": 96,
            "midi": 90,
            "name": "F#6",
            "ticks": 115824,
            "time": 160.154731125,
            "velocity": 0.5905511811023622
          },
          {
            "duration": 0.1327432500000043,
            "durationTicks": 96,
            "midi": 87,
            "name": "D#6",
            "ticks": 115824,
            "time": 160.154731125,
            "velocity": 0.5905511811023622
          },
          {
            "duration": 0.1327432500000043,
            "durationTicks": 96,
            "midi": 94,
            "name": "A#6",
            "ticks": 115872,
            "time": 160.22110275,
            "velocity": 0.7874015748031497
          },
          {
            "duration": 0.1327432500000043,
            "durationTicks": 96,
            "midi": 90,
            "name": "F#6",
            "ticks": 115872,
            "time": 160.22110275,
            "velocity": 0.7874015748031497
          },
          {
            "duration": 0.1327432500000043,
            "durationTicks": 96,
            "midi": 92,
            "name": "G#6",
            "ticks": 115920,
            "time": 160.28747437500002,
            "velocity": 0.5905511811023622
          },
          {
            "duration": 0.1327432500000043,
            "durationTicks": 96,
            "midi": 88,
            "name": "E6",
            "ticks": 115920,
            "time": 160.28747437500002,
            "velocity": 0.5905511811023622
          },
          {
            "duration": 0.1327432500000043,
            "durationTicks": 96,
            "midi": 88,
            "name": "E6",
            "ticks": 115968,
            "time": 160.353846,
            "velocity": 0.7874015748031497
          },
          {
            "duration": 0.1327432500000043,
            "durationTicks": 96,
            "midi": 92,
            "name": "G#6",
            "ticks": 115968,
            "time": 160.353846,
            "velocity": 0.7874015748031497
          },
          {
            "duration": 0.1327432499999759,
            "durationTicks": 96,
            "midi": 90,
            "name": "F#6",
            "ticks": 116016,
            "time": 160.42021762500002,
            "velocity": 0.5905511811023622
          },
          {
            "duration": 0.1327432499999759,
            "durationTicks": 96,
            "midi": 94,
            "name": "A#6",
            "ticks": 116016,
            "time": 160.42021762500002,
            "velocity": 0.5905511811023622
          },
          {
            "duration": 0.1327432500000043,
            "durationTicks": 96,
            "midi": 92,
            "name": "G#6",
            "ticks": 116112,
            "time": 160.552960875,
            "velocity": 0.5905511811023622
          },
          {
            "duration": 0.1327432500000043,
            "durationTicks": 96,
            "midi": 88,
            "name": "E6",
            "ticks": 116112,
            "time": 160.552960875,
            "velocity": 0.5905511811023622
          },
          {
            "duration": 0.1327432500000043,
            "durationTicks": 96,
            "midi": 80,
            "name": "G#5",
            "ticks": 116256,
            "time": 160.75207575000002,
            "velocity": 0.7874015748031497
          },
          {
            "duration": 0.1327432500000043,
            "durationTicks": 96,
            "midi": 85,
            "name": "C#6",
            "ticks": 116256,
            "time": 160.75207575000002,
            "velocity": 0.7874015748031497
          },
          {
            "duration": 0.1327432500000043,
            "durationTicks": 96,
            "midi": 85,
            "name": "C#6",
            "ticks": 116400,
            "time": 160.951190625,
            "velocity": 0.5905511811023622
          },
          {
            "duration": 0.1327432500000043,
            "durationTicks": 96,
            "midi": 80,
            "name": "G#5",
            "ticks": 116400,
            "time": 160.951190625,
            "velocity": 0.5905511811023622
          },
          {
            "duration": 0.1327432500000043,
            "durationTicks": 96,
            "midi": 80,
            "name": "G#5",
            "ticks": 116544,
            "time": 161.1503055,
            "velocity": 0.7874015748031497
          },
          {
            "duration": 0.1327432500000043,
            "durationTicks": 96,
            "midi": 85,
            "name": "C#6",
            "ticks": 116544,
            "time": 161.1503055,
            "velocity": 0.7874015748031497
          },
          {
            "duration": 0.1327432500000043,
            "durationTicks": 96,
            "midi": 83,
            "name": "B5",
            "ticks": 116640,
            "time": 161.28304875,
            "velocity": 0.7874015748031497
          },
          {
            "duration": 0.1327432500000043,
            "durationTicks": 96,
            "midi": 87,
            "name": "D#6",
            "ticks": 116640,
            "time": 161.28304875,
            "velocity": 0.7874015748031497
          },
          {
            "duration": 0.1327432499999759,
            "durationTicks": 96,
            "midi": 80,
            "name": "G#5",
            "ticks": 116688,
            "time": 161.34942037500002,
            "velocity": 0.5905511811023622
          },
          {
            "duration": 0.1327432499999759,
            "durationTicks": 96,
            "midi": 85,
            "name": "C#6",
            "ticks": 116688,
            "time": 161.34942037500002,
            "velocity": 0.5905511811023622
          },
          {
            "duration": 0.3982297499999845,
            "durationTicks": 288,
            "midi": 85,
            "name": "C#6",
            "ticks": 116736,
            "time": 161.415792,
            "velocity": 0.7874015748031497
          },
          {
            "duration": 0.3982297499999845,
            "durationTicks": 288,
            "midi": 88,
            "name": "E6",
            "ticks": 116736,
            "time": 161.415792,
            "velocity": 0.7874015748031497
          },
          {
            "duration": 0.1327432500000043,
            "durationTicks": 96,
            "midi": 87,
            "name": "D#6",
            "ticks": 116784,
            "time": 161.482163625,
            "velocity": 0.5905511811023622
          },
          {
            "duration": 0.1327432500000043,
            "durationTicks": 96,
            "midi": 83,
            "name": "B5",
            "ticks": 116784,
            "time": 161.482163625,
            "velocity": 0.5905511811023622
          },
          {
            "duration": 0.3982297500000129,
            "durationTicks": 288,
            "midi": 85,
            "name": "C#6",
            "ticks": 116880,
            "time": 161.614906875,
            "velocity": 0.5905511811023622
          },
          {
            "duration": 0.3982297500000129,
            "durationTicks": 288,
            "midi": 88,
            "name": "E6",
            "ticks": 116880,
            "time": 161.614906875,
            "velocity": 0.5905511811023622
          },
          {
            "duration": 0.3982297500000129,
            "durationTicks": 288,
            "midi": 83,
            "name": "B5",
            "ticks": 117024,
            "time": 161.81402175,
            "velocity": 0.7874015748031497
          },
          {
            "duration": 0.3982297500000129,
            "durationTicks": 288,
            "midi": 87,
            "name": "D#6",
            "ticks": 117024,
            "time": 161.81402175,
            "velocity": 0.7874015748031497
          },
          {
            "duration": 0.3982297499999845,
            "durationTicks": 288,
            "midi": 87,
            "name": "D#6",
            "ticks": 117168,
            "time": 162.01313662500002,
            "velocity": 0.5905511811023622
          },
          {
            "duration": 0.3982297499999845,
            "durationTicks": 288,
            "midi": 83,
            "name": "B5",
            "ticks": 117168,
            "time": 162.01313662500002,
            "velocity": 0.5905511811023622
          },
          {
            "duration": 0.2654865000000086,
            "durationTicks": 192,
            "midi": 83,
            "name": "B5",
            "ticks": 117312,
            "time": 162.2122515,
            "velocity": 0.7874015748031497
          },
          {
            "duration": 0.2654865000000086,
            "durationTicks": 192,
            "midi": 78,
            "name": "F#5",
            "ticks": 117312,
            "time": 162.2122515,
            "velocity": 0.7874015748031497
          },
          {
            "duration": 0.2654865000000086,
            "durationTicks": 192,
            "midi": 83,
            "name": "B5",
            "ticks": 117456,
            "time": 162.411366375,
            "velocity": 0.5905511811023622
          },
          {
            "duration": 0.2654865000000086,
            "durationTicks": 192,
            "midi": 78,
            "name": "F#5",
            "ticks": 117456,
            "time": 162.411366375,
            "velocity": 0.5905511811023622
          },
          {
            "duration": 0.7964594999999974,
            "durationTicks": 576,
            "midi": 80,
            "name": "G#5",
            "ticks": 117504,
            "time": 162.47773800000002,
            "velocity": 0.7874015748031497
          },
          {
            "duration": 0.7964594999999974,
            "durationTicks": 576,
            "midi": 85,
            "name": "C#6",
            "ticks": 117504,
            "time": 162.47773800000002,
            "velocity": 0.7874015748031497
          },
          {
            "duration": 0.7300878750000095,
            "durationTicks": 528,
            "midi": 80,
            "name": "G#5",
            "ticks": 117648,
            "time": 162.676852875,
            "velocity": 0.5905511811023622
          },
          {
            "duration": 0.7300878750000095,
            "durationTicks": 528,
            "midi": 85,
            "name": "C#6",
            "ticks": 117648,
            "time": 162.676852875,
            "velocity": 0.5905511811023622
          },
          {
            "duration": 0.19911487499999225,
            "durationTicks": 144,
            "midi": 85,
            "name": "C#6",
            "ticks": 118080,
            "time": 163.2741975,
            "velocity": 0.7874015748031497
          },
          {
            "duration": 0.19911487499999225,
            "durationTicks": 144,
            "midi": 80,
            "name": "G#5",
            "ticks": 118080,
            "time": 163.2741975,
            "velocity": 0.7874015748031497
          },
          {
            "duration": 0.1327432500000043,
            "durationTicks": 96,
            "midi": 83,
            "name": "B5",
            "ticks": 118176,
            "time": 163.40694075000002,
            "velocity": 0.7874015748031497
          },
          {
            "duration": 0.1327432500000043,
            "durationTicks": 96,
            "midi": 87,
            "name": "D#6",
            "ticks": 118176,
            "time": 163.40694075000002,
            "velocity": 0.7874015748031497
          },
          {
            "duration": 0.1327432500000043,
            "durationTicks": 96,
            "midi": 80,
            "name": "G#5",
            "ticks": 118224,
            "time": 163.473312375,
            "velocity": 0.5905511811023622
          },
          {
            "duration": 0.1327432500000043,
            "durationTicks": 96,
            "midi": 85,
            "name": "C#6",
            "ticks": 118224,
            "time": 163.473312375,
            "velocity": 0.5905511811023622
          },
          {
            "duration": 0.3982297499999845,
            "durationTicks": 288,
            "midi": 85,
            "name": "C#6",
            "ticks": 118272,
            "time": 163.53968400000002,
            "velocity": 0.7874015748031497
          },
          {
            "duration": 0.3982297499999845,
            "durationTicks": 288,
            "midi": 88,
            "name": "E6",
            "ticks": 118272,
            "time": 163.53968400000002,
            "velocity": 0.7874015748031497
          },
          {
            "duration": 0.1327432500000043,
            "durationTicks": 96,
            "midi": 83,
            "name": "B5",
            "ticks": 118320,
            "time": 163.606055625,
            "velocity": 0.5905511811023622
          },
          {
            "duration": 0.1327432500000043,
            "durationTicks": 96,
            "midi": 87,
            "name": "D#6",
            "ticks": 118320,
            "time": 163.606055625,
            "velocity": 0.5905511811023622
          },
          {
            "duration": 0.3982297499999845,
            "durationTicks": 288,
            "midi": 88,
            "name": "E6",
            "ticks": 118416,
            "time": 163.73879887500001,
            "velocity": 0.5905511811023622
          },
          {
            "duration": 0.3982297499999845,
            "durationTicks": 288,
            "midi": 85,
            "name": "C#6",
            "ticks": 118416,
            "time": 163.73879887500001,
            "velocity": 0.5905511811023622
          },
          {
            "duration": 0.3982297500000129,
            "durationTicks": 288,
            "midi": 87,
            "name": "D#6",
            "ticks": 118560,
            "time": 163.93791375,
            "velocity": 0.7874015748031497
          },
          {
            "duration": 0.3982297500000129,
            "durationTicks": 288,
            "midi": 83,
            "name": "B5",
            "ticks": 118560,
            "time": 163.93791375,
            "velocity": 0.7874015748031497
          },
          {
            "duration": 0.3982297500000129,
            "durationTicks": 288,
            "midi": 87,
            "name": "D#6",
            "ticks": 118704,
            "time": 164.137028625,
            "velocity": 0.5905511811023622
          },
          {
            "duration": 0.3982297500000129,
            "durationTicks": 288,
            "midi": 83,
            "name": "B5",
            "ticks": 118704,
            "time": 164.137028625,
            "velocity": 0.5905511811023622
          },
          {
            "duration": 0.2654864999999802,
            "durationTicks": 192,
            "midi": 83,
            "name": "B5",
            "ticks": 118848,
            "time": 164.33614350000002,
            "velocity": 0.7874015748031497
          },
          {
            "duration": 0.2654864999999802,
            "durationTicks": 192,
            "midi": 78,
            "name": "F#5",
            "ticks": 118848,
            "time": 164.33614350000002,
            "velocity": 0.7874015748031497
          },
          {
            "duration": 0.2654865000000086,
            "durationTicks": 192,
            "midi": 83,
            "name": "B5",
            "ticks": 118992,
            "time": 164.535258375,
            "velocity": 0.5905511811023622
          },
          {
            "duration": 0.2654865000000086,
            "durationTicks": 192,
            "midi": 78,
            "name": "F#5",
            "ticks": 118992,
            "time": 164.535258375,
            "velocity": 0.5905511811023622
          },
          {
            "duration": 0.7964594999999974,
            "durationTicks": 576,
            "midi": 80,
            "name": "G#5",
            "ticks": 119040,
            "time": 164.60163,
            "velocity": 0.7874015748031497
          },
          {
            "duration": 0.7964594999999974,
            "durationTicks": 576,
            "midi": 85,
            "name": "C#6",
            "ticks": 119040,
            "time": 164.60163,
            "velocity": 0.7874015748031497
          },
          {
            "duration": 0.7300878749999811,
            "durationTicks": 528,
            "midi": 85,
            "name": "C#6",
            "ticks": 119184,
            "time": 164.80074487500002,
            "velocity": 0.5905511811023622
          },
          {
            "duration": 0.7300878749999811,
            "durationTicks": 528,
            "midi": 80,
            "name": "G#5",
            "ticks": 119184,
            "time": 164.80074487500002,
            "velocity": 0.5905511811023622
          },
          {
            "duration": 0.19911487500002067,
            "durationTicks": 144,
            "midi": 85,
            "name": "C#6",
            "ticks": 119616,
            "time": 165.3980895,
            "velocity": 0.7874015748031497
          },
          {
            "duration": 0.19911487500002067,
            "durationTicks": 144,
            "midi": 80,
            "name": "G#5",
            "ticks": 119616,
            "time": 165.3980895,
            "velocity": 0.7874015748031497
          },
          {
            "duration": 0.1327432500000043,
            "durationTicks": 96,
            "midi": 87,
            "name": "D#6",
            "ticks": 119712,
            "time": 165.53083275,
            "velocity": 0.7874015748031497
          },
          {
            "duration": 0.1327432500000043,
            "durationTicks": 96,
            "midi": 83,
            "name": "B5",
            "ticks": 119712,
            "time": 165.53083275,
            "velocity": 0.7874015748031497
          },
          {
            "duration": 0.1327432500000043,
            "durationTicks": 96,
            "midi": 85,
            "name": "C#6",
            "ticks": 119760,
            "time": 165.59720437500002,
            "velocity": 0.5905511811023622
          },
          {
            "duration": 0.1327432500000043,
            "durationTicks": 96,
            "midi": 80,
            "name": "G#5",
            "ticks": 119760,
            "time": 165.59720437500002,
            "velocity": 0.5905511811023622
          },
          {
            "duration": 0.3982297500000129,
            "durationTicks": 288,
            "midi": 88,
            "name": "E6",
            "ticks": 119808,
            "time": 165.663576,
            "velocity": 0.7874015748031497
          },
          {
            "duration": 0.3982297500000129,
            "durationTicks": 288,
            "midi": 85,
            "name": "C#6",
            "ticks": 119808,
            "time": 165.663576,
            "velocity": 0.7874015748031497
          },
          {
            "duration": 0.1327432499999759,
            "durationTicks": 96,
            "midi": 87,
            "name": "D#6",
            "ticks": 119856,
            "time": 165.72994762500002,
            "velocity": 0.5905511811023622
          },
          {
            "duration": 0.1327432499999759,
            "durationTicks": 96,
            "midi": 83,
            "name": "B5",
            "ticks": 119856,
            "time": 165.72994762500002,
            "velocity": 0.5905511811023622
          },
          {
            "duration": 0.3982297500000129,
            "durationTicks": 288,
            "midi": 85,
            "name": "C#6",
            "ticks": 119952,
            "time": 165.862690875,
            "velocity": 0.5905511811023622
          },
          {
            "duration": 0.3982297500000129,
            "durationTicks": 288,
            "midi": 88,
            "name": "E6",
            "ticks": 119952,
            "time": 165.862690875,
            "velocity": 0.5905511811023622
          },
          {
            "duration": 0.3982297499999845,
            "durationTicks": 288,
            "midi": 87,
            "name": "D#6",
            "ticks": 120096,
            "time": 166.06180575000002,
            "velocity": 0.7874015748031497
          },
          {
            "duration": 0.3982297499999845,
            "durationTicks": 288,
            "midi": 83,
            "name": "B5",
            "ticks": 120096,
            "time": 166.06180575000002,
            "velocity": 0.7874015748031497
          },
          {
            "duration": 0.3982297499999845,
            "durationTicks": 288,
            "midi": 83,
            "name": "B5",
            "ticks": 120240,
            "time": 166.260920625,
            "velocity": 0.5905511811023622
          },
          {
            "duration": 0.3982297499999845,
            "durationTicks": 288,
            "midi": 87,
            "name": "D#6",
            "ticks": 120240,
            "time": 166.260920625,
            "velocity": 0.5905511811023622
          },
          {
            "duration": 0.2654865000000086,
            "durationTicks": 192,
            "midi": 78,
            "name": "F#5",
            "ticks": 120384,
            "time": 166.4600355,
            "velocity": 0.7874015748031497
          },
          {
            "duration": 0.2654865000000086,
            "durationTicks": 192,
            "midi": 83,
            "name": "B5",
            "ticks": 120384,
            "time": 166.4600355,
            "velocity": 0.7874015748031497
          },
          {
            "duration": 0.2654865000000086,
            "durationTicks": 192,
            "midi": 78,
            "name": "F#5",
            "ticks": 120528,
            "time": 166.659150375,
            "velocity": 0.5905511811023622
          },
          {
            "duration": 0.2654865000000086,
            "durationTicks": 192,
            "midi": 83,
            "name": "B5",
            "ticks": 120528,
            "time": 166.659150375,
            "velocity": 0.5905511811023622
          },
          {
            "duration": 0.7964594999999974,
            "durationTicks": 576,
            "midi": 85,
            "name": "C#6",
            "ticks": 120576,
            "time": 166.725522,
            "velocity": 0.7874015748031497
          },
          {
            "duration": 0.7964594999999974,
            "durationTicks": 576,
            "midi": 80,
            "name": "G#5",
            "ticks": 120576,
            "time": 166.725522,
            "velocity": 0.7874015748031497
          },
          {
            "duration": 0.7300878750000095,
            "durationTicks": 528,
            "midi": 80,
            "name": "G#5",
            "ticks": 120720,
            "time": 166.924636875,
            "velocity": 0.5905511811023622
          },
          {
            "duration": 0.7300878750000095,
            "durationTicks": 528,
            "midi": 85,
            "name": "C#6",
            "ticks": 120720,
            "time": 166.924636875,
            "velocity": 0.5905511811023622
          },
          {
            "duration": 0.19911487499999225,
            "durationTicks": 144,
            "midi": 85,
            "name": "C#6",
            "ticks": 121152,
            "time": 167.5219815,
            "velocity": 0.7874015748031497
          },
          {
            "duration": 0.19911487499999225,
            "durationTicks": 144,
            "midi": 80,
            "name": "G#5",
            "ticks": 121152,
            "time": 167.5219815,
            "velocity": 0.7874015748031497
          },
          {
            "duration": 0.1327432500000043,
            "durationTicks": 96,
            "midi": 87,
            "name": "D#6",
            "ticks": 121248,
            "time": 167.65472475,
            "velocity": 0.7874015748031497
          },
          {
            "duration": 0.1327432500000043,
            "durationTicks": 96,
            "midi": 83,
            "name": "B5",
            "ticks": 121248,
            "time": 167.65472475,
            "velocity": 0.7874015748031497
          },
          {
            "duration": 0.1327432500000043,
            "durationTicks": 96,
            "midi": 85,
            "name": "C#6",
            "ticks": 121296,
            "time": 167.721096375,
            "velocity": 0.5905511811023622
          },
          {
            "duration": 0.1327432500000043,
            "durationTicks": 96,
            "midi": 80,
            "name": "G#5",
            "ticks": 121296,
            "time": 167.721096375,
            "velocity": 0.5905511811023622
          },
          {
            "duration": 0.3982297499999845,
            "durationTicks": 288,
            "midi": 85,
            "name": "C#6",
            "ticks": 121344,
            "time": 167.78746800000002,
            "velocity": 0.7874015748031497
          },
          {
            "duration": 0.3982297499999845,
            "durationTicks": 288,
            "midi": 88,
            "name": "E6",
            "ticks": 121344,
            "time": 167.78746800000002,
            "velocity": 0.7874015748031497
          },
          {
            "duration": 0.1327432500000043,
            "durationTicks": 96,
            "midi": 83,
            "name": "B5",
            "ticks": 121392,
            "time": 167.853839625,
            "velocity": 0.5905511811023622
          },
          {
            "duration": 0.1327432500000043,
            "durationTicks": 96,
            "midi": 87,
            "name": "D#6",
            "ticks": 121392,
            "time": 167.853839625,
            "velocity": 0.5905511811023622
          },
          {
            "duration": 0.3982297499999845,
            "durationTicks": 288,
            "midi": 85,
            "name": "C#6",
            "ticks": 121488,
            "time": 167.986582875,
            "velocity": 0.5905511811023622
          },
          {
            "duration": 0.3982297499999845,
            "durationTicks": 288,
            "midi": 88,
            "name": "E6",
            "ticks": 121488,
            "time": 167.986582875,
            "velocity": 0.5905511811023622
          },
          {
            "duration": 0.3982297500000129,
            "durationTicks": 288,
            "midi": 83,
            "name": "B5",
            "ticks": 121632,
            "time": 168.18569775,
            "velocity": 0.7874015748031497
          },
          {
            "duration": 0.3982297500000129,
            "durationTicks": 288,
            "midi": 87,
            "name": "D#6",
            "ticks": 121632,
            "time": 168.18569775,
            "velocity": 0.7874015748031497
          },
          {
            "duration": 0.3982297500000129,
            "durationTicks": 288,
            "midi": 87,
            "name": "D#6",
            "ticks": 121776,
            "time": 168.384812625,
            "velocity": 0.5905511811023622
          },
          {
            "duration": 0.3982297500000129,
            "durationTicks": 288,
            "midi": 83,
            "name": "B5",
            "ticks": 121776,
            "time": 168.384812625,
            "velocity": 0.5905511811023622
          },
          {
            "duration": 0.2654864999999802,
            "durationTicks": 192,
            "midi": 83,
            "name": "B5",
            "ticks": 121920,
            "time": 168.58392750000002,
            "velocity": 0.7874015748031497
          },
          {
            "duration": 0.2654864999999802,
            "durationTicks": 192,
            "midi": 78,
            "name": "F#5",
            "ticks": 121920,
            "time": 168.58392750000002,
            "velocity": 0.7874015748031497
          },
          {
            "duration": 0.2654865000000086,
            "durationTicks": 192,
            "midi": 83,
            "name": "B5",
            "ticks": 122064,
            "time": 168.783042375,
            "velocity": 0.5905511811023622
          },
          {
            "duration": 0.2654865000000086,
            "durationTicks": 192,
            "midi": 78,
            "name": "F#5",
            "ticks": 122064,
            "time": 168.783042375,
            "velocity": 0.5905511811023622
          },
          {
            "duration": 0.7964595000000259,
            "durationTicks": 576,
            "midi": 80,
            "name": "G#5",
            "ticks": 122112,
            "time": 168.849414,
            "velocity": 0.7874015748031497
          },
          {
            "duration": 0.7964595000000259,
            "durationTicks": 576,
            "midi": 85,
            "name": "C#6",
            "ticks": 122112,
            "time": 168.849414,
            "velocity": 0.7874015748031497
          },
          {
            "duration": 0.7964594999999974,
            "durationTicks": 576,
            "midi": 80,
            "name": "G#5",
            "ticks": 122256,
            "time": 169.04852887500002,
            "velocity": 0.5905511811023622
          },
          {
            "duration": 0.7964594999999974,
            "durationTicks": 576,
            "midi": 85,
            "name": "C#6",
            "ticks": 122256,
            "time": 169.04852887500002,
            "velocity": 0.5905511811023622
          },
          {
            "duration": 0.2654864999999802,
            "durationTicks": 192,
            "midi": 83,
            "name": "B5",
            "ticks": 122688,
            "time": 169.64587350000002,
            "velocity": 0.7874015748031497
          },
          {
            "duration": 0.2654864999999802,
            "durationTicks": 192,
            "midi": 78,
            "name": "F#5",
            "ticks": 122688,
            "time": 169.64587350000002,
            "velocity": 0.7874015748031497
          },
          {
            "duration": 0.2654865000000086,
            "durationTicks": 192,
            "midi": 83,
            "name": "B5",
            "ticks": 122832,
            "time": 169.844988375,
            "velocity": 0.5905511811023622
          },
          {
            "duration": 0.2654865000000086,
            "durationTicks": 192,
            "midi": 78,
            "name": "F#5",
            "ticks": 122832,
            "time": 169.844988375,
            "velocity": 0.5905511811023622
          },
          {
            "duration": 4.247783999999996,
            "durationTicks": 3072,
            "midi": 85,
            "name": "C#6",
            "ticks": 122880,
            "time": 169.91136,
            "velocity": 0.7874015748031497
          },
          {
            "duration": 4.247783999999996,
            "durationTicks": 3072,
            "midi": 80,
            "name": "G#5",
            "ticks": 122880,
            "time": 169.91136,
            "velocity": 0.7874015748031497
          },
          {
            "duration": 4.247783999999996,
            "durationTicks": 3072,
            "midi": 85,
            "name": "C#6",
            "ticks": 123024,
            "time": 170.11047487500002,
            "velocity": 0.5905511811023622
          },
          {
            "duration": 4.247783999999996,
            "durationTicks": 3072,
            "midi": 80,
            "name": "G#5",
            "ticks": 123024,
            "time": 170.11047487500002,
            "velocity": 0.5905511811023622
          }
        ],
        "endOfTrackTicks": 126096
      },
      {
        "channel": 4,
        "controlChanges": {},
        "pitchBends": [],
        "instrument": {
          "family": "synth lead",
          "number": 81,
          "name": "lead 2 (sawtooth)"
        },
        "name": "8-Bit Sawtooth",
        "notes": [
          {
            "duration": 0.13274325,
            "durationTicks": 96,
            "midi": 64,
            "name": "E4",
            "ticks": 0,
            "time": 0,
            "velocity": 0.7874015748031497
          },
          {
            "duration": 0.13274325,
            "durationTicks": 96,
            "midi": 56,
            "name": "G#3",
            "ticks": 0,
            "time": 0,
            "velocity": 0.7874015748031497
          },
          {
            "duration": 0.13274325000000003,
            "durationTicks": 96,
            "midi": 64,
            "name": "E4",
            "ticks": 192,
            "time": 0.2654865,
            "velocity": 0.5905511811023622
          },
          {
            "duration": 0.13274325000000003,
            "durationTicks": 96,
            "midi": 56,
            "name": "G#3",
            "ticks": 192,
            "time": 0.2654865,
            "velocity": 0.5905511811023622
          },
          {
            "duration": 0.13274324999999998,
            "durationTicks": 96,
            "midi": 68,
            "name": "G#4",
            "ticks": 384,
            "time": 0.530973,
            "velocity": 0.7874015748031497
          },
          {
            "duration": 0.13274324999999998,
            "durationTicks": 96,
            "midi": 59,
            "name": "B3",
            "ticks": 384,
            "time": 0.530973,
            "velocity": 0.7874015748031497
          },
          {
            "duration": 0.13274324999999998,
            "durationTicks": 96,
            "midi": 59,
            "name": "B3",
            "ticks": 576,
            "time": 0.7964595000000001,
            "velocity": 0.5905511811023622
          },
          {
            "duration": 0.13274324999999998,
            "durationTicks": 96,
            "midi": 68,
            "name": "G#4",
            "ticks": 576,
            "time": 0.7964595000000001,
            "velocity": 0.5905511811023622
          },
          {
            "duration": 0.92920275,
            "durationTicks": 672,
            "midi": 66,
            "name": "F#4",
            "ticks": 768,
            "time": 1.061946,
            "velocity": 0.7874015748031497
          },
          {
            "duration": 0.92920275,
            "durationTicks": 672,
            "midi": 61,
            "name": "C#4",
            "ticks": 768,
            "time": 1.061946,
            "velocity": 0.7874015748031497
          },
          {
            "duration": 0.13274324999999987,
            "durationTicks": 96,
            "midi": 54,
            "name": "F#3",
            "ticks": 1536,
            "time": 2.123892,
            "velocity": 0.7874015748031497
          },
          {
            "duration": 0.13274324999999987,
            "durationTicks": 96,
            "midi": 63,
            "name": "D#4",
            "ticks": 1536,
            "time": 2.123892,
            "velocity": 0.7874015748031497
          },
          {
            "duration": 0.13274324999999987,
            "durationTicks": 96,
            "midi": 63,
            "name": "D#4",
            "ticks": 1728,
            "time": 2.3893785000000003,
            "velocity": 0.5905511811023622
          },
          {
            "duration": 0.13274324999999987,
            "durationTicks": 96,
            "midi": 54,
            "name": "F#3",
            "ticks": 1728,
            "time": 2.3893785000000003,
            "velocity": 0.5905511811023622
          },
          {
            "duration": 0.1327432500000003,
            "durationTicks": 96,
            "midi": 66,
            "name": "F#4",
            "ticks": 1920,
            "time": 2.654865,
            "velocity": 0.7874015748031497
          },
          {
            "duration": 0.1327432500000003,
            "durationTicks": 96,
            "midi": 59,
            "name": "B3",
            "ticks": 1920,
            "time": 2.654865,
            "velocity": 0.7874015748031497
          },
          {
            "duration": 0.13274324999999987,
            "durationTicks": 96,
            "midi": 66,
            "name": "F#4",
            "ticks": 2112,
            "time": 2.9203515,
            "velocity": 0.5905511811023622
          },
          {
            "duration": 0.13274324999999987,
            "durationTicks": 96,
            "midi": 59,
            "name": "B3",
            "ticks": 2112,
            "time": 2.9203515,
            "velocity": 0.5905511811023622
          },
          {
            "duration": 0.92920275,
            "durationTicks": 672,
            "midi": 56,
            "name": "G#3",
            "ticks": 2304,
            "time": 3.1858380000000004,
            "velocity": 0.7874015748031497
          },
          {
            "duration": 0.92920275,
            "durationTicks": 672,
            "midi": 64,
            "name": "E4",
            "ticks": 2304,
            "time": 3.1858380000000004,
            "velocity": 0.7874015748031497
          },
          {
            "duration": 0.13274324999999987,
            "durationTicks": 96,
            "midi": 54,
            "name": "F#3",
            "ticks": 3072,
            "time": 4.247784,
            "velocity": 0.7874015748031497
          },
          {
            "duration": 0.13274324999999987,
            "durationTicks": 96,
            "midi": 61,
            "name": "C#4",
            "ticks": 3072,
            "time": 4.247784,
            "velocity": 0.7874015748031497
          },
          {
            "duration": 0.13274324999999987,
            "durationTicks": 96,
            "midi": 61,
            "name": "C#4",
            "ticks": 3264,
            "time": 4.5132705,
            "velocity": 0.5905511811023622
          },
          {
            "duration": 0.13274324999999987,
            "durationTicks": 96,
            "midi": 54,
            "name": "F#3",
            "ticks": 3264,
            "time": 4.5132705,
            "velocity": 0.5905511811023622
          },
          {
            "duration": 0.13274324999999987,
            "durationTicks": 96,
            "midi": 64,
            "name": "E4",
            "ticks": 3456,
            "time": 4.778757000000001,
            "velocity": 0.7874015748031497
          },
          {
            "duration": 0.13274324999999987,
            "durationTicks": 96,
            "midi": 59,
            "name": "B3",
            "ticks": 3456,
            "time": 4.778757000000001,
            "velocity": 0.7874015748031497
          },
          {
            "duration": 0.13274324999999987,
            "durationTicks": 96,
            "midi": 64,
            "name": "E4",
            "ticks": 3648,
            "time": 5.0442435,
            "velocity": 0.5905511811023622
          },
          {
            "duration": 0.13274324999999987,
            "durationTicks": 96,
            "midi": 59,
            "name": "B3",
            "ticks": 3648,
            "time": 5.0442435,
            "velocity": 0.5905511811023622
          },
          {
            "duration": 0.13274324999999987,
            "durationTicks": 96,
            "midi": 59,
            "name": "B3",
            "ticks": 3840,
            "time": 5.30973,
            "velocity": 0.7874015748031497
          },
          {
            "duration": 0.92920275,
            "durationTicks": 672,
            "midi": 63,
            "name": "D#4",
            "ticks": 3840,
            "time": 5.30973,
            "velocity": 0.7874015748031497
          },
          {
            "duration": 0.13274324999999987,
            "durationTicks": 96,
            "midi": 57,
            "name": "A3",
            "ticks": 4032,
            "time": 5.575216500000001,
            "velocity": 0.7874015748031497
          },
          {
            "duration": 0.13274324999999987,
            "durationTicks": 96,
            "midi": 54,
            "name": "F#3",
            "ticks": 4224,
            "time": 5.840703,
            "velocity": 0.7874015748031497
          },
          {
            "duration": 0.13274324999999987,
            "durationTicks": 96,
            "midi": 56,
            "name": "G#3",
            "ticks": 4416,
            "time": 6.1061895,
            "velocity": 0.7874015748031497
          },
          {
            "duration": 0.13274324999999987,
            "durationTicks": 96,
            "midi": 59,
            "name": "B3",
            "ticks": 4608,
            "time": 6.371676000000001,
            "velocity": 0.7874015748031497
          },
          {
            "duration": 0.13274324999999987,
            "durationTicks": 96,
            "midi": 54,
            "name": "F#3",
            "ticks": 4608,
            "time": 6.371676000000001,
            "velocity": 0.7874015748031497
          },
          {
            "duration": 0.13274324999999987,
            "durationTicks": 96,
            "midi": 52,
            "name": "E3",
            "ticks": 4800,
            "time": 6.6371625000000005,
            "velocity": 0.7874015748031497
          },
          {
            "duration": 0.13274324999999987,
            "durationTicks": 96,
            "midi": 59,
            "name": "B3",
            "ticks": 4800,
            "time": 6.6371625000000005,
            "velocity": 0.5905511811023622
          },
          {
            "duration": 0.13274324999999987,
            "durationTicks": 96,
            "midi": 54,
            "name": "F#3",
            "ticks": 4992,
            "time": 6.902649,
            "velocity": 0.7874015748031497
          },
          {
            "duration": 0.13274324999999987,
            "durationTicks": 96,
            "midi": 61,
            "name": "C#4",
            "ticks": 4992,
            "time": 6.902649,
            "velocity": 0.7874015748031497
          },
          {
            "duration": 0.13274325000000076,
            "durationTicks": 96,
            "midi": 61,
            "name": "C#4",
            "ticks": 5184,
            "time": 7.1681355,
            "velocity": 0.5905511811023622
          },
          {
            "duration": 0.13274325000000076,
            "durationTicks": 96,
            "midi": 56,
            "name": "G#3",
            "ticks": 5184,
            "time": 7.1681355,
            "velocity": 0.7874015748031497
          },
          {
            "duration": 0.9292027499999991,
            "durationTicks": 672,
            "midi": 56,
            "name": "G#3",
            "ticks": 5376,
            "time": 7.433622000000001,
            "velocity": 0.7874015748031497
          },
          {
            "duration": 0.9292027499999991,
            "durationTicks": 672,
            "midi": 49,
            "name": "C#3",
            "ticks": 5376,
            "time": 7.433622000000001,
            "velocity": 0.7874015748031497
          },
          {
            "duration": 0.13274325000000076,
            "durationTicks": 96,
            "midi": 64,
            "name": "E4",
            "ticks": 6144,
            "time": 8.495568,
            "velocity": 0.7874015748031497
          },
          {
            "duration": 0.13274325000000076,
            "durationTicks": 96,
            "midi": 56,
            "name": "G#3",
            "ticks": 6144,
            "time": 8.495568,
            "velocity": 0.7874015748031497
          },
          {
            "duration": 0.13274325000000076,
            "durationTicks": 96,
            "midi": 56,
            "name": "G#3",
            "ticks": 6336,
            "time": 8.7610545,
            "velocity": 0.5905511811023622
          },
          {
            "duration": 0.13274325000000076,
            "durationTicks": 96,
            "midi": 64,
            "name": "E4",
            "ticks": 6336,
            "time": 8.7610545,
            "velocity": 0.5905511811023622
          },
          {
            "duration": 0.13274325000000076,
            "durationTicks": 96,
            "midi": 59,
            "name": "B3",
            "ticks": 6528,
            "time": 9.026541,
            "velocity": 0.7874015748031497
          },
          {
            "duration": 0.13274325000000076,
            "durationTicks": 96,
            "midi": 68,
            "name": "G#4",
            "ticks": 6528,
            "time": 9.026541,
            "velocity": 0.7874015748031497
          },
          {
            "duration": 0.13274325000000076,
            "durationTicks": 96,
            "midi": 59,
            "name": "B3",
            "ticks": 6720,
            "time": 9.2920275,
            "velocity": 0.5905511811023622
          },
          {
            "duration": 0.13274325000000076,
            "durationTicks": 96,
            "midi": 68,
            "name": "G#4",
            "ticks": 6720,
            "time": 9.2920275,
            "velocity": 0.5905511811023622
          },
          {
            "duration": 0.92920275,
            "durationTicks": 672,
            "midi": 61,
            "name": "C#4",
            "ticks": 6912,
            "time": 9.557514000000001,
            "velocity": 0.7874015748031497
          },
          {
            "duration": 0.92920275,
            "durationTicks": 672,
            "midi": 66,
            "name": "F#4",
            "ticks": 6912,
            "time": 9.557514000000001,
            "velocity": 0.7874015748031497
          },
          {
            "duration": 0.13274325000000076,
            "durationTicks": 96,
            "midi": 71,
            "name": "B4",
            "ticks": 7680,
            "time": 10.61946,
            "velocity": 0.7874015748031497
          },
          {
            "duration": 0.13274325000000076,
            "durationTicks": 96,
            "midi": 63,
            "name": "D#4",
            "ticks": 7680,
            "time": 10.61946,
            "velocity": 0.7874015748031497
          },
          {
            "duration": 0.13274325000000076,
            "durationTicks": 96,
            "midi": 71,
            "name": "B4",
            "ticks": 7872,
            "time": 10.8849465,
            "velocity": 0.5905511811023622
          },
          {
            "duration": 0.13274325000000076,
            "durationTicks": 96,
            "midi": 63,
            "name": "D#4",
            "ticks": 7872,
            "time": 10.8849465,
            "velocity": 0.5905511811023622
          },
          {
            "duration": 0.13274324999999898,
            "durationTicks": 96,
            "midi": 66,
            "name": "F#4",
            "ticks": 8064,
            "time": 11.150433000000001,
            "velocity": 0.7874015748031497
          },
          {
            "duration": 0.13274324999999898,
            "durationTicks": 96,
            "midi": 59,
            "name": "B3",
            "ticks": 8064,
            "time": 11.150433000000001,
            "velocity": 0.7874015748031497
          },
          {
            "duration": 0.13274324999999898,
            "durationTicks": 96,
            "midi": 59,
            "name": "B3",
            "ticks": 8256,
            "time": 11.415919500000001,
            "velocity": 0.5905511811023622
          },
          {
            "duration": 0.13274324999999898,
            "durationTicks": 96,
            "midi": 66,
            "name": "F#4",
            "ticks": 8256,
            "time": 11.415919500000001,
            "velocity": 0.5905511811023622
          },
          {
            "duration": 0.92920275,
            "durationTicks": 672,
            "midi": 68,
            "name": "G#4",
            "ticks": 8448,
            "time": 11.681406,
            "velocity": 0.7874015748031497
          },
          {
            "duration": 0.5309729999999995,
            "durationTicks": 384,
            "midi": 63,
            "name": "D#4",
            "ticks": 8448,
            "time": 11.681406,
            "velocity": 0.7874015748031497
          },
          {
            "duration": 0.5309730000000012,
            "durationTicks": 384,
            "midi": 64,
            "name": "E4",
            "ticks": 8832,
            "time": 12.212379,
            "velocity": 0.7874015748031497
          },
          {
            "duration": 0.13274324999999898,
            "durationTicks": 96,
            "midi": 68,
            "name": "G#4",
            "ticks": 9216,
            "time": 12.743352000000002,
            "velocity": 0.7874015748031497
          },
          {
            "duration": 0.13274324999999898,
            "durationTicks": 96,
            "midi": 63,
            "name": "D#4",
            "ticks": 9216,
            "time": 12.743352000000002,
            "velocity": 0.7874015748031497
          },
          {
            "duration": 0.13274324999999898,
            "durationTicks": 96,
            "midi": 61,
            "name": "C#4",
            "ticks": 9408,
            "time": 13.008838500000001,
            "velocity": 0.7874015748031497
          },
          {
            "duration": 0.13274324999999898,
            "durationTicks": 96,
            "midi": 66,
            "name": "F#4",
            "ticks": 9408,
            "time": 13.008838500000001,
            "velocity": 0.7874015748031497
          },
          {
            "duration": 0.13274325000000076,
            "durationTicks": 96,
            "midi": 68,
            "name": "G#4",
            "ticks": 9504,
            "time": 13.14158175,
            "velocity": 0.5905511811023622
          },
          {
            "duration": 0.13274324999999898,
            "durationTicks": 96,
            "midi": 68,
            "name": "G#4",
            "ticks": 9600,
            "time": 13.274325000000001,
            "velocity": 0.7874015748031497
          },
          {
            "duration": 0.13274324999999898,
            "durationTicks": 96,
            "midi": 59,
            "name": "B3",
            "ticks": 9600,
            "time": 13.274325000000001,
            "velocity": 0.7874015748031497
          },
          {
            "duration": 0.13274325000000076,
            "durationTicks": 96,
            "midi": 66,
            "name": "F#4",
            "ticks": 9696,
            "time": 13.40706825,
            "velocity": 0.5905511811023622
          },
          {
            "duration": 0.13274325000000076,
            "durationTicks": 96,
            "midi": 63,
            "name": "D#4",
            "ticks": 9792,
            "time": 13.5398115,
            "velocity": 0.7874015748031497
          },
          {
            "duration": 0.13274325000000076,
            "durationTicks": 96,
            "midi": 71,
            "name": "B4",
            "ticks": 9792,
            "time": 13.5398115,
            "velocity": 0.7874015748031497
          },
          {
            "duration": 0.13274324999999898,
            "durationTicks": 96,
            "midi": 71,
            "name": "B4",
            "ticks": 9888,
            "time": 13.672554750000002,
            "velocity": 0.5905511811023622
          },
          {
            "duration": 0.5309729999999995,
            "durationTicks": 384,
            "midi": 63,
            "name": "D#4",
            "ticks": 9984,
            "time": 13.805298,
            "velocity": 0.7874015748031497
          },
          {
            "duration": 0.5309729999999995,
            "durationTicks": 384,
            "midi": 73,
            "name": "C#5",
            "ticks": 9984,
            "time": 13.805298,
            "velocity": 0.7874015748031497
          },
          {
            "duration": 0.13274325000000076,
            "durationTicks": 96,
            "midi": 76,
            "name": "E5",
            "ticks": 10368,
            "time": 14.336271,
            "velocity": 0.7874015748031497
          },
          {
            "duration": 0.5309730000000012,
            "durationTicks": 384,
            "midi": 61,
            "name": "C#4",
            "ticks": 10368,
            "time": 14.336271,
            "velocity": 0.7874015748031497
          },
          {
            "duration": 0.13274324999999898,
            "durationTicks": 96,
            "midi": 76,
            "name": "E5",
            "ticks": 10560,
            "time": 14.601757500000001,
            "velocity": 0.5905511811023622
          },
          {
            "duration": 0.13274324999999898,
            "durationTicks": 96,
            "midi": 75,
            "name": "D#5",
            "ticks": 10752,
            "time": 14.867244000000001,
            "velocity": 0.7874015748031497
          },
          {
            "duration": 0.13274324999999898,
            "durationTicks": 96,
            "midi": 59,
            "name": "B3",
            "ticks": 10752,
            "time": 14.867244000000001,
            "velocity": 0.7874015748031497
          },
          {
            "duration": 0.13274325000000076,
            "durationTicks": 96,
            "midi": 76,
            "name": "E5",
            "ticks": 10848,
            "time": 14.99998725,
            "velocity": 0.7874015748031497
          },
          {
            "duration": 0.13274325000000076,
            "durationTicks": 96,
            "midi": 75,
            "name": "D#5",
            "ticks": 10896,
            "time": 15.066358875,
            "velocity": 0.7874015748031497
          },
          {
            "duration": 0.13274324999999898,
            "durationTicks": 96,
            "midi": 73,
            "name": "C#5",
            "ticks": 10944,
            "time": 15.132730500000001,
            "velocity": 0.7874015748031497
          },
          {
            "duration": 0.13274324999999898,
            "durationTicks": 96,
            "midi": 52,
            "name": "E3",
            "ticks": 10944,
            "time": 15.132730500000001,
            "velocity": 0.7874015748031497
          },
          {
            "duration": 0.13274325000000076,
            "durationTicks": 96,
            "midi": 75,
            "name": "D#5",
            "ticks": 11040,
            "time": 15.26547375,
            "velocity": 0.6850393700787402
          },
          {
            "duration": 0.13274325000000076,
            "durationTicks": 96,
            "midi": 73,
            "name": "C#5",
            "ticks": 11088,
            "time": 15.331845375,
            "velocity": 0.6850393700787402
          },
          {
            "duration": 0.13274325000000076,
            "durationTicks": 96,
            "midi": 54,
            "name": "F#3",
            "ticks": 11136,
            "time": 15.398217,
            "velocity": 0.7874015748031497
          },
          {
            "duration": 0.13274325000000076,
            "durationTicks": 96,
            "midi": 71,
            "name": "B4",
            "ticks": 11136,
            "time": 15.398217,
            "velocity": 0.7874015748031497
          },
          {
            "duration": 0.13274325000000076,
            "durationTicks": 96,
            "midi": 75,
            "name": "D#5",
            "ticks": 11328,
            "time": 15.6637035,
            "velocity": 0.7874015748031497
          },
          {
            "duration": 0.13274325000000076,
            "durationTicks": 96,
            "midi": 59,
            "name": "B3",
            "ticks": 11328,
            "time": 15.6637035,
            "velocity": 0.7874015748031497
          },
          {
            "duration": 1.0619460000000007,
            "durationTicks": 768,
            "midi": 73,
            "name": "C#5",
            "ticks": 11520,
            "time": 15.92919,
            "velocity": 0.7874015748031497
          },
          {
            "duration": 1.0619460000000007,
            "durationTicks": 768,
            "midi": 56,
            "name": "G#3",
            "ticks": 11520,
            "time": 15.92919,
            "velocity": 0.7874015748031497
          },
          {
            "duration": 0.13274325000000076,
            "durationTicks": 96,
            "midi": 64,
            "name": "E4",
            "ticks": 13056,
            "time": 18.053082,
            "velocity": 0.7874015748031497
          },
          {
            "duration": 0.13274325000000076,
            "durationTicks": 96,
            "midi": 56,
            "name": "G#3",
            "ticks": 13056,
            "time": 18.053082,
            "velocity": 0.7874015748031497
          },
          {
            "duration": 0.13274325000000076,
            "durationTicks": 96,
            "midi": 56,
            "name": "G#3",
            "ticks": 13248,
            "time": 18.3185685,
            "velocity": 0.5905511811023622
          },
          {
            "duration": 0.13274325000000076,
            "durationTicks": 96,
            "midi": 64,
            "name": "E4",
            "ticks": 13248,
            "time": 18.3185685,
            "velocity": 0.5905511811023622
          },
          {
            "duration": 0.13274325000000076,
            "durationTicks": 96,
            "midi": 68,
            "name": "G#4",
            "ticks": 13440,
            "time": 18.584055,
            "velocity": 0.7874015748031497
          },
          {
            "duration": 0.13274325000000076,
            "durationTicks": 96,
            "midi": 59,
            "name": "B3",
            "ticks": 13440,
            "time": 18.584055,
            "velocity": 0.7874015748031497
          },
          {
            "duration": 0.13274325000000076,
            "durationTicks": 96,
            "midi": 59,
            "name": "B3",
            "ticks": 13632,
            "time": 18.8495415,
            "velocity": 0.5905511811023622
          },
          {
            "duration": 0.13274325000000076,
            "durationTicks": 96,
            "midi": 68,
            "name": "G#4",
            "ticks": 13632,
            "time": 18.8495415,
            "velocity": 0.5905511811023622
          },
          {
            "duration": 0.6637162500000002,
            "durationTicks": 480,
            "midi": 66,
            "name": "F#4",
            "ticks": 13824,
            "time": 19.115028000000002,
            "velocity": 0.7874015748031497
          },
          {
            "duration": 0.6637162500000002,
            "durationTicks": 480,
            "midi": 61,
            "name": "C#4",
            "ticks": 13824,
            "time": 19.115028000000002,
            "velocity": 0.7874015748031497
          },
          {
            "duration": 0.13274325000000076,
            "durationTicks": 96,
            "midi": 56,
            "name": "G#3",
            "ticks": 13920,
            "time": 19.24777125,
            "velocity": 0.7874015748031497
          },
          {
            "duration": 0.13274325000000076,
            "durationTicks": 96,
            "midi": 57,
            "name": "A3",
            "ticks": 14016,
            "time": 19.3805145,
            "velocity": 0.7874015748031497
          },
          {
            "duration": 0.13274325000000076,
            "durationTicks": 96,
            "midi": 56,
            "name": "G#3",
            "ticks": 14112,
            "time": 19.51325775,
            "velocity": 0.7874015748031497
          },
          {
            "duration": 0.13274325000000076,
            "durationTicks": 96,
            "midi": 54,
            "name": "F#3",
            "ticks": 14208,
            "time": 19.646001000000002,
            "velocity": 0.7874015748031497
          },
          {
            "duration": 0.1327432499999972,
            "durationTicks": 96,
            "midi": 66,
            "name": "F#4",
            "ticks": 14304,
            "time": 19.778744250000003,
            "velocity": 0.7874015748031497
          },
          {
            "duration": 0.1327432499999972,
            "durationTicks": 96,
            "midi": 56,
            "name": "G#3",
            "ticks": 14304,
            "time": 19.778744250000003,
            "velocity": 0.7874015748031497
          },
          {
            "duration": 0.13274325000000076,
            "durationTicks": 96,
            "midi": 59,
            "name": "B3",
            "ticks": 14400,
            "time": 19.9114875,
            "velocity": 0.7874015748031497
          },
          {
            "duration": 0.13274325000000076,
            "durationTicks": 96,
            "midi": 68,
            "name": "G#4",
            "ticks": 14400,
            "time": 19.9114875,
            "velocity": 0.7874015748031497
          },
          {
            "duration": 0.13274325000000076,
            "durationTicks": 96,
            "midi": 56,
            "name": "G#3",
            "ticks": 14496,
            "time": 20.04423075,
            "velocity": 0.7874015748031497
          },
          {
            "duration": 0.2654865000000015,
            "durationTicks": 192,
            "midi": 61,
            "name": "C#4",
            "ticks": 14592,
            "time": 20.176974,
            "velocity": 0.7874015748031497
          },
          {
            "duration": 0.13274325000000076,
            "durationTicks": 96,
            "midi": 51,
            "name": "D#3",
            "ticks": 14688,
            "time": 20.309717250000002,
            "velocity": 0.7874015748031497
          },
          {
            "duration": 0.1327432499999972,
            "durationTicks": 96,
            "midi": 54,
            "name": "F#3",
            "ticks": 14784,
            "time": 20.442460500000003,
            "velocity": 0.7874015748031497
          },
          {
            "duration": 0.13274325000000076,
            "durationTicks": 96,
            "midi": 56,
            "name": "G#3",
            "ticks": 14880,
            "time": 20.57520375,
            "velocity": 0.7874015748031497
          },
          {
            "duration": 0.2654865000000015,
            "durationTicks": 192,
            "midi": 63,
            "name": "D#4",
            "ticks": 14880,
            "time": 20.57520375,
            "velocity": 0.7874015748031497
          },
          {
            "duration": 0.13274325000000076,
            "durationTicks": 96,
            "midi": 59,
            "name": "B3",
            "ticks": 15072,
            "time": 20.84069025,
            "velocity": 0.7874015748031497
          },
          {
            "duration": 0.1327432499999972,
            "durationTicks": 96,
            "midi": 64,
            "name": "E4",
            "ticks": 15168,
            "time": 20.973433500000002,
            "velocity": 0.7874015748031497
          },
          {
            "duration": 0.13274325000000076,
            "durationTicks": 96,
            "midi": 61,
            "name": "C#4",
            "ticks": 15264,
            "time": 21.10617675,
            "velocity": 0.7874015748031497
          },
          {
            "duration": 0.9292027500000017,
            "durationTicks": 672,
            "midi": 68,
            "name": "G#4",
            "ticks": 15360,
            "time": 21.23892,
            "velocity": 0.7874015748031497
          },
          {
            "duration": 0.13274325000000076,
            "durationTicks": 96,
            "midi": 61,
            "name": "C#4",
            "ticks": 15456,
            "time": 21.37166325,
            "velocity": 0.7874015748031497
          },
          {
            "duration": 0.13274325000000076,
            "durationTicks": 96,
            "midi": 63,
            "name": "D#4",
            "ticks": 15552,
            "time": 21.5044065,
            "velocity": 0.7874015748031497
          },
          {
            "duration": 0.1327432499999972,
            "durationTicks": 96,
            "midi": 59,
            "name": "B3",
            "ticks": 15648,
            "time": 21.637149750000003,
            "velocity": 0.7874015748031497
          },
          {
            "duration": 0.13274325000000076,
            "durationTicks": 96,
            "midi": 61,
            "name": "C#4",
            "ticks": 15840,
            "time": 21.90263625,
            "velocity": 0.7874015748031497
          },
          {
            "duration": 0.13274325000000076,
            "durationTicks": 96,
            "midi": 59,
            "name": "B3",
            "ticks": 15936,
            "time": 22.0353795,
            "velocity": 0.7874015748031497
          },
          {
            "duration": 0.13274325000000076,
            "durationTicks": 96,
            "midi": 56,
            "name": "G#3",
            "ticks": 16032,
            "time": 22.168122750000002,
            "velocity": 0.7874015748031497
          },
          {
            "duration": 0.1327432499999972,
            "durationTicks": 96,
            "midi": 64,
            "name": "E4",
            "ticks": 16128,
            "time": 22.300866000000003,
            "velocity": 0.7874015748031497
          },
          {
            "duration": 0.1327432499999972,
            "durationTicks": 96,
            "midi": 56,
            "name": "G#3",
            "ticks": 16128,
            "time": 22.300866000000003,
            "velocity": 0.7874015748031497
          },
          {
            "duration": 0.13274325000000076,
            "durationTicks": 96,
            "midi": 51,
            "name": "D#3",
            "ticks": 16224,
            "time": 22.43360925,
            "velocity": 0.7874015748031497
          },
          {
            "duration": 0.13274325000000076,
            "durationTicks": 96,
            "midi": 56,
            "name": "G#3",
            "ticks": 16320,
            "time": 22.5663525,
            "velocity": 0.5905511811023622
          },
          {
            "duration": 0.13274325000000076,
            "durationTicks": 96,
            "midi": 64,
            "name": "E4",
            "ticks": 16320,
            "time": 22.5663525,
            "velocity": 0.5905511811023622
          },
          {
            "duration": 0.13274325000000076,
            "durationTicks": 96,
            "midi": 52,
            "name": "E3",
            "ticks": 16320,
            "time": 22.5663525,
            "velocity": 0.7874015748031497
          },
          {
            "duration": 0.13274325000000076,
            "durationTicks": 96,
            "midi": 56,
            "name": "G#3",
            "ticks": 16416,
            "time": 22.69909575,
            "velocity": 0.7874015748031497
          },
          {
            "duration": 0.13274325000000076,
            "durationTicks": 96,
            "midi": 59,
            "name": "B3",
            "ticks": 16512,
            "time": 22.831839000000002,
            "velocity": 0.7874015748031497
          },
          {
            "duration": 0.13274325000000076,
            "durationTicks": 96,
            "midi": 68,
            "name": "G#4",
            "ticks": 16512,
            "time": 22.831839000000002,
            "velocity": 0.7874015748031497
          },
          {
            "duration": 0.13274325000000076,
            "durationTicks": 96,
            "midi": 54,
            "name": "F#3",
            "ticks": 16512,
            "time": 22.831839000000002,
            "velocity": 0.7874015748031497
          },
          {
            "duration": 0.1327432499999972,
            "durationTicks": 96,
            "midi": 59,
            "name": "B3",
            "ticks": 16608,
            "time": 22.964582250000003,
            "velocity": 0.7874015748031497
          },
          {
            "duration": 0.13274325000000076,
            "durationTicks": 96,
            "midi": 59,
            "name": "B3",
            "ticks": 16704,
            "time": 23.0973255,
            "velocity": 0.5905511811023622
          },
          {
            "duration": 0.13274325000000076,
            "durationTicks": 96,
            "midi": 68,
            "name": "G#4",
            "ticks": 16704,
            "time": 23.0973255,
            "velocity": 0.5905511811023622
          },
          {
            "duration": 0.13274325000000076,
            "durationTicks": 96,
            "midi": 63,
            "name": "D#4",
            "ticks": 16704,
            "time": 23.0973255,
            "velocity": 0.7874015748031497
          },
          {
            "duration": 0.13274325000000076,
            "durationTicks": 96,
            "midi": 59,
            "name": "B3",
            "ticks": 16800,
            "time": 23.23006875,
            "velocity": 0.7874015748031497
          },
          {
            "duration": 0.6637162500000002,
            "durationTicks": 480,
            "midi": 61,
            "name": "C#4",
            "ticks": 16896,
            "time": 23.362812,
            "velocity": 0.7874015748031497
          },
          {
            "duration": 0.6637162500000002,
            "durationTicks": 480,
            "midi": 66,
            "name": "F#4",
            "ticks": 16896,
            "time": 23.362812,
            "velocity": 0.7874015748031497
          },
          {
            "duration": 0.1327432499999972,
            "durationTicks": 96,
            "midi": 54,
            "name": "F#3",
            "ticks": 16992,
            "time": 23.495555250000002,
            "velocity": 0.7874015748031497
          },
          {
            "duration": 0.13274325000000076,
            "durationTicks": 96,
            "midi": 56,
            "name": "G#3",
            "ticks": 17088,
            "time": 23.6282985,
            "velocity": 0.7874015748031497
          },
          {
            "duration": 0.13274325000000076,
            "durationTicks": 96,
            "midi": 54,
            "name": "F#3",
            "ticks": 17184,
            "time": 23.76104175,
            "velocity": 0.7874015748031497
          },
          {
            "duration": 0.13274325000000076,
            "durationTicks": 96,
            "midi": 56,
            "name": "G#3",
            "ticks": 17280,
            "time": 23.893785,
            "velocity": 0.7874015748031497
          },
          {
            "duration": 0.13274325000000076,
            "durationTicks": 96,
            "midi": 59,
            "name": "B3",
            "ticks": 17376,
            "time": 24.026528250000002,
            "velocity": 0.7874015748031497
          },
          {
            "duration": 0.13274325000000076,
            "durationTicks": 96,
            "midi": 66,
            "name": "F#4",
            "ticks": 17376,
            "time": 24.026528250000002,
            "velocity": 0.7874015748031497
          },
          {
            "duration": 0.1327432499999972,
            "durationTicks": 96,
            "midi": 54,
            "name": "F#3",
            "ticks": 17472,
            "time": 24.159271500000003,
            "velocity": 0.7874015748031497
          },
          {
            "duration": 0.1327432499999972,
            "durationTicks": 96,
            "midi": 68,
            "name": "G#4",
            "ticks": 17472,
            "time": 24.159271500000003,
            "velocity": 0.7874015748031497
          },
          {
            "duration": 0.13274325000000076,
            "durationTicks": 96,
            "midi": 56,
            "name": "G#3",
            "ticks": 17568,
            "time": 24.29201475,
            "velocity": 0.7874015748031497
          },
          {
            "duration": 0.2654865000000015,
            "durationTicks": 192,
            "midi": 61,
            "name": "C#4",
            "ticks": 17664,
            "time": 24.424758,
            "velocity": 0.7874015748031497
          },
          {
            "duration": 0.13274325000000076,
            "durationTicks": 96,
            "midi": 51,
            "name": "D#3",
            "ticks": 17760,
            "time": 24.55750125,
            "velocity": 0.7874015748031497
          },
          {
            "duration": 0.13274325000000076,
            "durationTicks": 96,
            "midi": 54,
            "name": "F#3",
            "ticks": 17856,
            "time": 24.690244500000002,
            "velocity": 0.7874015748031497
          },
          {
            "duration": 0.1327432499999972,
            "durationTicks": 96,
            "midi": 56,
            "name": "G#3",
            "ticks": 17952,
            "time": 24.822987750000003,
            "velocity": 0.7874015748031497
          },
          {
            "duration": 0.26548649999999796,
            "durationTicks": 192,
            "midi": 63,
            "name": "D#4",
            "ticks": 17952,
            "time": 24.822987750000003,
            "velocity": 0.7874015748031497
          },
          {
            "duration": 0.13274325000000076,
            "durationTicks": 96,
            "midi": 54,
            "name": "F#3",
            "ticks": 18048,
            "time": 24.955731,
            "velocity": 0.7874015748031497
          },
          {
            "duration": 0.13274325000000076,
            "durationTicks": 96,
            "midi": 61,
            "name": "C#4",
            "ticks": 18144,
            "time": 25.08847425,
            "velocity": 0.7874015748031497
          },
          {
            "duration": 0.13274325000000076,
            "durationTicks": 96,
            "midi": 71,
            "name": "B4",
            "ticks": 18240,
            "time": 25.2212175,
            "velocity": 0.7874015748031497
          },
          {
            "duration": 0.13274325000000076,
            "durationTicks": 96,
            "midi": 63,
            "name": "D#4",
            "ticks": 18240,
            "time": 25.2212175,
            "velocity": 0.7874015748031497
          },
          {
            "duration": 0.13274325000000076,
            "durationTicks": 96,
            "midi": 59,
            "name": "B3",
            "ticks": 18336,
            "time": 25.353960750000002,
            "velocity": 0.7874015748031497
          },
          {
            "duration": 0.9292027499999982,
            "durationTicks": 672,
            "midi": 68,
            "name": "G#4",
            "ticks": 18432,
            "time": 25.486704000000003,
            "velocity": 0.7874015748031497
          },
          {
            "duration": 0.13274325000000076,
            "durationTicks": 96,
            "midi": 59,
            "name": "B3",
            "ticks": 18528,
            "time": 25.61944725,
            "velocity": 0.7874015748031497
          },
          {
            "duration": 0.13274325000000076,
            "durationTicks": 96,
            "midi": 61,
            "name": "C#4",
            "ticks": 18624,
            "time": 25.7521905,
            "velocity": 0.7874015748031497
          },
          {
            "duration": 0.13274325000000076,
            "durationTicks": 96,
            "midi": 56,
            "name": "G#3",
            "ticks": 18720,
            "time": 25.884933750000002,
            "velocity": 0.7874015748031497
          },
          {
            "duration": 0.1327432499999972,
            "durationTicks": 96,
            "midi": 59,
            "name": "B3",
            "ticks": 18816,
            "time": 26.017677000000003,
            "velocity": 0.7874015748031497
          },
          {
            "duration": 0.13274325000000076,
            "durationTicks": 96,
            "midi": 61,
            "name": "C#4",
            "ticks": 18912,
            "time": 26.15042025,
            "velocity": 0.7874015748031497
          },
          {
            "duration": 0.13274325000000076,
            "durationTicks": 96,
            "midi": 64,
            "name": "E4",
            "ticks": 19008,
            "time": 26.2831635,
            "velocity": 0.7874015748031497
          },
          {
            "duration": 0.13274325000000076,
            "durationTicks": 96,
            "midi": 59,
            "name": "B3",
            "ticks": 19104,
            "time": 26.41590675,
            "velocity": 0.7874015748031497
          },
          {
            "duration": 0.13274325000000076,
            "durationTicks": 96,
            "midi": 61,
            "name": "C#4",
            "ticks": 19200,
            "time": 26.548650000000002,
            "velocity": 0.7874015748031497
          },
          {
            "duration": 0.13274325000000076,
            "durationTicks": 96,
            "midi": 68,
            "name": "G#4",
            "ticks": 19200,
            "time": 26.548650000000002,
            "velocity": 0.7874015748031497
          },
          {
            "duration": 0.13274325000000076,
            "durationTicks": 96,
            "midi": 61,
            "name": "C#4",
            "ticks": 19392,
            "time": 26.8141365,
            "velocity": 0.5905511811023622
          },
          {
            "duration": 0.13274325000000076,
            "durationTicks": 96,
            "midi": 68,
            "name": "G#4",
            "ticks": 19392,
            "time": 26.8141365,
            "velocity": 0.5905511811023622
          },
          {
            "duration": 0.13274325000000076,
            "durationTicks": 96,
            "midi": 69,
            "name": "A4",
            "ticks": 19584,
            "time": 27.079623,
            "velocity": 0.7874015748031497
          },
          {
            "duration": 0.13274325000000076,
            "durationTicks": 96,
            "midi": 63,
            "name": "D#4",
            "ticks": 19584,
            "time": 27.079623,
            "velocity": 0.7874015748031497
          },
          {
            "duration": 0.1327432499999972,
            "durationTicks": 96,
            "midi": 63,
            "name": "D#4",
            "ticks": 19776,
            "time": 27.345109500000003,
            "velocity": 0.5905511811023622
          },
          {
            "duration": 0.1327432499999972,
            "durationTicks": 96,
            "midi": 69,
            "name": "A4",
            "ticks": 19776,
            "time": 27.345109500000003,
            "velocity": 0.5905511811023622
          },
          {
            "duration": 0.796459500000001,
            "durationTicks": 576,
            "midi": 64,
            "name": "E4",
            "ticks": 19968,
            "time": 27.610596,
            "velocity": 0.7874015748031497
          },
          {
            "duration": 0.796459500000001,
            "durationTicks": 576,
            "midi": 71,
            "name": "B4",
            "ticks": 19968,
            "time": 27.610596,
            "velocity": 0.7874015748031497
          },
          {
            "duration": 0.13274325000000076,
            "durationTicks": 96,
            "midi": 73,
            "name": "C#5",
            "ticks": 20544,
            "time": 28.407055500000002,
            "velocity": 0.7874015748031497
          },
          {
            "duration": 0.13274325000000076,
            "durationTicks": 96,
            "midi": 66,
            "name": "F#4",
            "ticks": 20544,
            "time": 28.407055500000002,
            "velocity": 0.7874015748031497
          },
          {
            "duration": 0.2654865000000015,
            "durationTicks": 192,
            "midi": 64,
            "name": "E4",
            "ticks": 20736,
            "time": 28.672542,
            "velocity": 0.7874015748031497
          },
          {
            "duration": 0.2654865000000015,
            "durationTicks": 192,
            "midi": 56,
            "name": "G#3",
            "ticks": 20736,
            "time": 28.672542,
            "velocity": 0.7874015748031497
          },
          {
            "duration": 0.26548649999999796,
            "durationTicks": 192,
            "midi": 59,
            "name": "B3",
            "ticks": 21024,
            "time": 29.070771750000002,
            "velocity": 0.7874015748031497
          },
          {
            "duration": 0.26548649999999796,
            "durationTicks": 192,
            "midi": 66,
            "name": "F#4",
            "ticks": 21024,
            "time": 29.070771750000002,
            "velocity": 0.7874015748031497
          },
          {
            "duration": 0.13274325000000076,
            "durationTicks": 96,
            "midi": 68,
            "name": "G#4",
            "ticks": 21312,
            "time": 29.4690015,
            "velocity": 0.7874015748031497
          },
          {
            "duration": 0.13274325000000076,
            "durationTicks": 96,
            "midi": 61,
            "name": "C#4",
            "ticks": 21312,
            "time": 29.4690015,
            "velocity": 0.7874015748031497
          },
          {
            "duration": 0.7964594999999974,
            "durationTicks": 576,
            "midi": 71,
            "name": "B4",
            "ticks": 21504,
            "time": 29.734488000000002,
            "velocity": 0.7874015748031497
          },
          {
            "duration": 0.7964594999999974,
            "durationTicks": 576,
            "midi": 63,
            "name": "D#4",
            "ticks": 21504,
            "time": 29.734488000000002,
            "velocity": 0.7874015748031497
          },
          {
            "duration": 0.13274325000000076,
            "durationTicks": 96,
            "midi": 64,
            "name": "E4",
            "ticks": 22080,
            "time": 30.5309475,
            "velocity": 0.7874015748031497
          },
          {
            "duration": 0.13274325000000076,
            "durationTicks": 96,
            "midi": 73,
            "name": "C#5",
            "ticks": 22080,
            "time": 30.5309475,
            "velocity": 0.7874015748031497
          },
          {
            "duration": 0.2654865000000015,
            "durationTicks": 192,
            "midi": 63,
            "name": "D#4",
            "ticks": 22272,
            "time": 30.796434,
            "velocity": 0.7874015748031497
          },
          {
            "duration": 0.2654865000000015,
            "durationTicks": 192,
            "midi": 54,
            "name": "F#3",
            "ticks": 22272,
            "time": 30.796434,
            "velocity": 0.7874015748031497
          },
          {
            "duration": 0.2654865000000015,
            "durationTicks": 192,
            "midi": 75,
            "name": "D#5",
            "ticks": 22560,
            "time": 31.19466375,
            "velocity": 0.7874015748031497
          },
          {
            "duration": 0.2654865000000015,
            "durationTicks": 192,
            "midi": 66,
            "name": "F#4",
            "ticks": 22560,
            "time": 31.19466375,
            "velocity": 0.7874015748031497
          },
          {
            "duration": 0.26548649999999796,
            "durationTicks": 192,
            "midi": 63,
            "name": "D#4",
            "ticks": 22848,
            "time": 31.592893500000002,
            "velocity": 0.7874015748031497
          },
          {
            "duration": 0.26548649999999796,
            "durationTicks": 192,
            "midi": 71,
            "name": "B4",
            "ticks": 22848,
            "time": 31.592893500000002,
            "velocity": 0.7874015748031497
          },
          {
            "duration": 1.8584055,
            "durationTicks": 1344,
            "midi": 64,
            "name": "E4",
            "ticks": 23040,
            "time": 31.85838,
            "velocity": 0.7874015748031497
          },
          {
            "duration": 1.8584055,
            "durationTicks": 1344,
            "midi": 68,
            "name": "G#4",
            "ticks": 23040,
            "time": 31.85838,
            "velocity": 0.7874015748031497
          },
          {
            "duration": 0.1327432500000043,
            "durationTicks": 96,
            "midi": 69,
            "name": "A4",
            "ticks": 24384,
            "time": 33.7167855,
            "velocity": 0.7874015748031497
          },
          {
            "duration": 0.1327432500000043,
            "durationTicks": 96,
            "midi": 66,
            "name": "F#4",
            "ticks": 24384,
            "time": 33.7167855,
            "velocity": 0.7874015748031497
          },
          {
            "duration": 0.1327432499999972,
            "durationTicks": 96,
            "midi": 68,
            "name": "G#4",
            "ticks": 24480,
            "time": 33.849528750000005,
            "velocity": 0.7874015748031497
          },
          {
            "duration": 0.1327432499999972,
            "durationTicks": 96,
            "midi": 64,
            "name": "E4",
            "ticks": 24480,
            "time": 33.849528750000005,
            "velocity": 0.7874015748031497
          },
          {
            "duration": 0.530973000000003,
            "durationTicks": 384,
            "midi": 66,
            "name": "F#4",
            "ticks": 24576,
            "time": 33.982272,
            "velocity": 0.7874015748031497
          },
          {
            "duration": 0.530973000000003,
            "durationTicks": 384,
            "midi": 63,
            "name": "D#4",
            "ticks": 24576,
            "time": 33.982272,
            "velocity": 0.7874015748031497
          },
          {
            "duration": 0.1327432500000043,
            "durationTicks": 96,
            "midi": 64,
            "name": "E4",
            "ticks": 25344,
            "time": 35.044218,
            "velocity": 0.7874015748031497
          },
          {
            "duration": 0.1327432500000043,
            "durationTicks": 96,
            "midi": 56,
            "name": "G#3",
            "ticks": 25344,
            "time": 35.044218,
            "velocity": 0.7874015748031497
          },
          {
            "duration": 0.1327432499999972,
            "durationTicks": 96,
            "midi": 56,
            "name": "G#3",
            "ticks": 25536,
            "time": 35.3097045,
            "velocity": 0.5905511811023622
          },
          {
            "duration": 0.1327432499999972,
            "durationTicks": 96,
            "midi": 64,
            "name": "E4",
            "ticks": 25536,
            "time": 35.3097045,
            "velocity": 0.5905511811023622
          },
          {
            "duration": 0.1327432499999972,
            "durationTicks": 96,
            "midi": 68,
            "name": "G#4",
            "ticks": 25728,
            "time": 35.575191000000004,
            "velocity": 0.7874015748031497
          },
          {
            "duration": 0.1327432499999972,
            "durationTicks": 96,
            "midi": 59,
            "name": "B3",
            "ticks": 25728,
            "time": 35.575191000000004,
            "velocity": 0.7874015748031497
          },
          {
            "duration": 0.1327432499999972,
            "durationTicks": 96,
            "midi": 68,
            "name": "G#4",
            "ticks": 25920,
            "time": 35.840677500000005,
            "velocity": 0.5905511811023622
          },
          {
            "duration": 0.1327432499999972,
            "durationTicks": 96,
            "midi": 59,
            "name": "B3",
            "ticks": 25920,
            "time": 35.840677500000005,
            "velocity": 0.5905511811023622
          },
          {
            "duration": 0.6637162500000002,
            "durationTicks": 480,
            "midi": 66,
            "name": "F#4",
            "ticks": 26112,
            "time": 36.106164,
            "velocity": 0.7874015748031497
          },
          {
            "duration": 0.6637162500000002,
            "durationTicks": 480,
            "midi": 61,
            "name": "C#4",
            "ticks": 26112,
            "time": 36.106164,
            "velocity": 0.7874015748031497
          },
          {
            "duration": 0.1327432499999972,
            "durationTicks": 96,
            "midi": 56,
            "name": "G#3",
            "ticks": 26208,
            "time": 36.238907250000004,
            "velocity": 0.7874015748031497
          },
          {
            "duration": 0.1327432499999972,
            "durationTicks": 96,
            "midi": 57,
            "name": "A3",
            "ticks": 26304,
            "time": 36.3716505,
            "velocity": 0.7874015748031497
          },
          {
            "duration": 0.1327432500000043,
            "durationTicks": 96,
            "midi": 56,
            "name": "G#3",
            "ticks": 26400,
            "time": 36.50439375,
            "velocity": 0.7874015748031497
          },
          {
            "duration": 0.1327432499999972,
            "durationTicks": 96,
            "midi": 54,
            "name": "F#3",
            "ticks": 26496,
            "time": 36.637137,
            "velocity": 0.7874015748031497
          },
          {
            "duration": 0.1327432500000043,
            "durationTicks": 96,
            "midi": 66,
            "name": "F#4",
            "ticks": 26592,
            "time": 36.76988025,
            "velocity": 0.7874015748031497
          },
          {
            "duration": 0.1327432500000043,
            "durationTicks": 96,
            "midi": 56,
            "name": "G#3",
            "ticks": 26592,
            "time": 36.76988025,
            "velocity": 0.7874015748031497
          },
          {
            "duration": 0.1327432499999972,
            "durationTicks": 96,
            "midi": 68,
            "name": "G#4",
            "ticks": 26688,
            "time": 36.902623500000004,
            "velocity": 0.7874015748031497
          },
          {
            "duration": 0.1327432499999972,
            "durationTicks": 96,
            "midi": 59,
            "name": "B3",
            "ticks": 26688,
            "time": 36.902623500000004,
            "velocity": 0.7874015748031497
          },
          {
            "duration": 0.1327432499999972,
            "durationTicks": 96,
            "midi": 56,
            "name": "G#3",
            "ticks": 26784,
            "time": 37.03536675,
            "velocity": 0.7874015748031497
          },
          {
            "duration": 0.2654865000000015,
            "durationTicks": 192,
            "midi": 61,
            "name": "C#4",
            "ticks": 26880,
            "time": 37.16811,
            "velocity": 0.7874015748031497
          },
          {
            "duration": 0.1327432499999972,
            "durationTicks": 96,
            "midi": 51,
            "name": "D#3",
            "ticks": 26976,
            "time": 37.30085325,
            "velocity": 0.7874015748031497
          },
          {
            "duration": 0.1327432500000043,
            "durationTicks": 96,
            "midi": 54,
            "name": "F#3",
            "ticks": 27072,
            "time": 37.4335965,
            "velocity": 0.7874015748031497
          },
          {
            "duration": 0.2654864999999944,
            "durationTicks": 192,
            "midi": 63,
            "name": "D#4",
            "ticks": 27168,
            "time": 37.566339750000004,
            "velocity": 0.7874015748031497
          },
          {
            "duration": 0.1327432499999972,
            "durationTicks": 96,
            "midi": 56,
            "name": "G#3",
            "ticks": 27168,
            "time": 37.566339750000004,
            "velocity": 0.7874015748031497
          },
          {
            "duration": 0.1327432500000043,
            "durationTicks": 96,
            "midi": 59,
            "name": "B3",
            "ticks": 27360,
            "time": 37.83182625,
            "velocity": 0.7874015748031497
          },
          {
            "duration": 0.1327432499999972,
            "durationTicks": 96,
            "midi": 64,
            "name": "E4",
            "ticks": 27456,
            "time": 37.9645695,
            "velocity": 0.7874015748031497
          },
          {
            "duration": 0.1327432500000043,
            "durationTicks": 96,
            "midi": 61,
            "name": "C#4",
            "ticks": 27552,
            "time": 38.09731275,
            "velocity": 0.7874015748031497
          },
          {
            "duration": 0.9292027499999946,
            "durationTicks": 672,
            "midi": 68,
            "name": "G#4",
            "ticks": 27648,
            "time": 38.230056000000005,
            "velocity": 0.7874015748031497
          },
          {
            "duration": 0.1327432499999972,
            "durationTicks": 96,
            "midi": 61,
            "name": "C#4",
            "ticks": 27744,
            "time": 38.36279925,
            "velocity": 0.7874015748031497
          },
          {
            "duration": 0.1327432500000043,
            "durationTicks": 96,
            "midi": 63,
            "name": "D#4",
            "ticks": 27840,
            "time": 38.4955425,
            "velocity": 0.7874015748031497
          },
          {
            "duration": 0.1327432499999972,
            "durationTicks": 96,
            "midi": 59,
            "name": "B3",
            "ticks": 27936,
            "time": 38.62828575,
            "velocity": 0.7874015748031497
          },
          {
            "duration": 0.1327432499999972,
            "durationTicks": 96,
            "midi": 61,
            "name": "C#4",
            "ticks": 28128,
            "time": 38.893772250000005,
            "velocity": 0.7874015748031497
          },
          {
            "duration": 0.1327432499999972,
            "durationTicks": 96,
            "midi": 59,
            "name": "B3",
            "ticks": 28224,
            "time": 39.0265155,
            "velocity": 0.7874015748031497
          },
          {
            "duration": 0.1327432500000043,
            "durationTicks": 96,
            "midi": 56,
            "name": "G#3",
            "ticks": 28320,
            "time": 39.15925875,
            "velocity": 0.7874015748031497
          },
          {
            "duration": 0.1327432499999972,
            "durationTicks": 96,
            "midi": 64,
            "name": "E4",
            "ticks": 28416,
            "time": 39.292002000000004,
            "velocity": 0.7874015748031497
          },
          {
            "duration": 0.1327432499999972,
            "durationTicks": 96,
            "midi": 56,
            "name": "G#3",
            "ticks": 28416,
            "time": 39.292002000000004,
            "velocity": 0.7874015748031497
          },
          {
            "duration": 0.1327432500000043,
            "durationTicks": 96,
            "midi": 51,
            "name": "D#3",
            "ticks": 28512,
            "time": 39.42474525,
            "velocity": 0.7874015748031497
          },
          {
            "duration": 0.1327432499999972,
            "durationTicks": 96,
            "midi": 52,
            "name": "E3",
            "ticks": 28608,
            "time": 39.557488500000005,
            "velocity": 0.7874015748031497
          },
          {
            "duration": 0.1327432499999972,
            "durationTicks": 96,
            "midi": 56,
            "name": "G#3",
            "ticks": 28608,
            "time": 39.557488500000005,
            "velocity": 0.5905511811023622
          },
          {
            "duration": 0.1327432499999972,
            "durationTicks": 96,
            "midi": 64,
            "name": "E4",
            "ticks": 28608,
            "time": 39.557488500000005,
            "velocity": 0.5905511811023622
          },
          {
            "duration": 0.1327432499999972,
            "durationTicks": 96,
            "midi": 56,
            "name": "G#3",
            "ticks": 28704,
            "time": 39.69023175,
            "velocity": 0.7874015748031497
          },
          {
            "duration": 0.1327432500000043,
            "durationTicks": 96,
            "midi": 54,
            "name": "F#3",
            "ticks": 28800,
            "time": 39.822975,
            "velocity": 0.7874015748031497
          },
          {
            "duration": 0.1327432500000043,
            "durationTicks": 96,
            "midi": 59,
            "name": "B3",
            "ticks": 28800,
            "time": 39.822975,
            "velocity": 0.7874015748031497
          },
          {
            "duration": 0.1327432500000043,
            "durationTicks": 96,
            "midi": 68,
            "name": "G#4",
            "ticks": 28800,
            "time": 39.822975,
            "velocity": 0.7874015748031497
          },
          {
            "duration": 0.1327432499999972,
            "durationTicks": 96,
            "midi": 59,
            "name": "B3",
            "ticks": 28896,
            "time": 39.955718250000004,
            "velocity": 0.7874015748031497
          },
          {
            "duration": 0.1327432500000043,
            "durationTicks": 96,
            "midi": 63,
            "name": "D#4",
            "ticks": 28992,
            "time": 40.0884615,
            "velocity": 0.7874015748031497
          },
          {
            "duration": 0.1327432500000043,
            "durationTicks": 96,
            "midi": 68,
            "name": "G#4",
            "ticks": 28992,
            "time": 40.0884615,
            "velocity": 0.5905511811023622
          },
          {
            "duration": 0.1327432500000043,
            "durationTicks": 96,
            "midi": 59,
            "name": "B3",
            "ticks": 28992,
            "time": 40.0884615,
            "velocity": 0.5905511811023622
          },
          {
            "duration": 0.1327432499999972,
            "durationTicks": 96,
            "midi": 59,
            "name": "B3",
            "ticks": 29088,
            "time": 40.221204750000005,
            "velocity": 0.7874015748031497
          },
          {
            "duration": 0.6637162500000002,
            "durationTicks": 480,
            "midi": 61,
            "name": "C#4",
            "ticks": 29184,
            "time": 40.353948,
            "velocity": 0.7874015748031497
          },
          {
            "duration": 0.6637162500000002,
            "durationTicks": 480,
            "midi": 66,
            "name": "F#4",
            "ticks": 29184,
            "time": 40.353948,
            "velocity": 0.7874015748031497
          },
          {
            "duration": 0.1327432500000043,
            "durationTicks": 96,
            "midi": 54,
            "name": "F#3",
            "ticks": 29280,
            "time": 40.48669125,
            "velocity": 0.7874015748031497
          },
          {
            "duration": 0.1327432499999972,
            "durationTicks": 96,
            "midi": 56,
            "name": "G#3",
            "ticks": 29376,
            "time": 40.619434500000004,
            "velocity": 0.7874015748031497
          },
          {
            "duration": 0.1327432500000043,
            "durationTicks": 96,
            "midi": 54,
            "name": "F#3",
            "ticks": 29472,
            "time": 40.75217775,
            "velocity": 0.7874015748031497
          },
          {
            "duration": 0.1327432499999972,
            "durationTicks": 96,
            "midi": 56,
            "name": "G#3",
            "ticks": 29568,
            "time": 40.884921000000006,
            "velocity": 0.7874015748031497
          },
          {
            "duration": 0.1327432499999972,
            "durationTicks": 96,
            "midi": 59,
            "name": "B3",
            "ticks": 29664,
            "time": 41.01766425,
            "velocity": 0.7874015748031497
          },
          {
            "duration": 0.1327432499999972,
            "durationTicks": 96,
            "midi": 66,
            "name": "F#4",
            "ticks": 29664,
            "time": 41.01766425,
            "velocity": 0.7874015748031497
          },
          {
            "duration": 0.1327432500000043,
            "durationTicks": 96,
            "midi": 54,
            "name": "F#3",
            "ticks": 29760,
            "time": 41.1504075,
            "velocity": 0.7874015748031497
          },
          {
            "duration": 0.1327432500000043,
            "durationTicks": 96,
            "midi": 68,
            "name": "G#4",
            "ticks": 29760,
            "time": 41.1504075,
            "velocity": 0.7874015748031497
          },
          {
            "duration": 0.1327432499999972,
            "durationTicks": 96,
            "midi": 56,
            "name": "G#3",
            "ticks": 29856,
            "time": 41.283150750000004,
            "velocity": 0.7874015748031497
          },
          {
            "duration": 0.2654865000000015,
            "durationTicks": 192,
            "midi": 61,
            "name": "C#4",
            "ticks": 29952,
            "time": 41.415894,
            "velocity": 0.7874015748031497
          },
          {
            "duration": 0.1327432500000043,
            "durationTicks": 96,
            "midi": 51,
            "name": "D#3",
            "ticks": 30048,
            "time": 41.54863725,
            "velocity": 0.7874015748031497
          },
          {
            "duration": 0.1327432499999972,
            "durationTicks": 96,
            "midi": 54,
            "name": "F#3",
            "ticks": 30144,
            "time": 41.6813805,
            "velocity": 0.7874015748031497
          },
          {
            "duration": 0.2654865000000015,
            "durationTicks": 192,
            "midi": 63,
            "name": "D#4",
            "ticks": 30240,
            "time": 41.81412375,
            "velocity": 0.7874015748031497
          },
          {
            "duration": 0.1327432500000043,
            "durationTicks": 96,
            "midi": 56,
            "name": "G#3",
            "ticks": 30240,
            "time": 41.81412375,
            "velocity": 0.7874015748031497
          },
          {
            "duration": 0.1327432499999972,
            "durationTicks": 96,
            "midi": 54,
            "name": "F#3",
            "ticks": 30336,
            "time": 41.946867000000005,
            "velocity": 0.7874015748031497
          },
          {
            "duration": 0.1327432499999972,
            "durationTicks": 96,
            "midi": 61,
            "name": "C#4",
            "ticks": 30432,
            "time": 42.07961025,
            "velocity": 0.7874015748031497
          },
          {
            "duration": 0.1327432500000043,
            "durationTicks": 96,
            "midi": 71,
            "name": "B4",
            "ticks": 30528,
            "time": 42.2123535,
            "velocity": 0.7874015748031497
          },
          {
            "duration": 0.1327432500000043,
            "durationTicks": 96,
            "midi": 63,
            "name": "D#4",
            "ticks": 30528,
            "time": 42.2123535,
            "velocity": 0.7874015748031497
          },
          {
            "duration": 0.1327432499999972,
            "durationTicks": 96,
            "midi": 59,
            "name": "B3",
            "ticks": 30624,
            "time": 42.34509675,
            "velocity": 0.7874015748031497
          },
          {
            "duration": 0.9292027500000017,
            "durationTicks": 672,
            "midi": 68,
            "name": "G#4",
            "ticks": 30720,
            "time": 42.47784,
            "velocity": 0.7874015748031497
          },
          {
            "duration": 0.1327432499999972,
            "durationTicks": 96,
            "midi": 59,
            "name": "B3",
            "ticks": 30816,
            "time": 42.610583250000005,
            "velocity": 0.7874015748031497
          },
          {
            "duration": 0.1327432499999972,
            "durationTicks": 96,
            "midi": 61,
            "name": "C#4",
            "ticks": 30912,
            "time": 42.7433265,
            "velocity": 0.7874015748031497
          },
          {
            "duration": 0.1327432500000043,
            "durationTicks": 96,
            "midi": 56,
            "name": "G#3",
            "ticks": 31008,
            "time": 42.87606975,
            "velocity": 0.7874015748031497
          },
          {
            "duration": 0.1327432499999972,
            "durationTicks": 96,
            "midi": 59,
            "name": "B3",
            "ticks": 31104,
            "time": 43.008813,
            "velocity": 0.7874015748031497
          },
          {
            "duration": 0.1327432500000043,
            "durationTicks": 96,
            "midi": 61,
            "name": "C#4",
            "ticks": 31200,
            "time": 43.14155625,
            "velocity": 0.7874015748031497
          },
          {
            "duration": 0.1327432499999972,
            "durationTicks": 96,
            "midi": 64,
            "name": "E4",
            "ticks": 31296,
            "time": 43.274299500000005,
            "velocity": 0.7874015748031497
          },
          {
            "duration": 0.1327432499999972,
            "durationTicks": 96,
            "midi": 59,
            "name": "B3",
            "ticks": 31392,
            "time": 43.40704275,
            "velocity": 0.7874015748031497
          },
          {
            "duration": 0.1327432500000043,
            "durationTicks": 96,
            "midi": 68,
            "name": "G#4",
            "ticks": 31488,
            "time": 43.539786,
            "velocity": 0.7874015748031497
          },
          {
            "duration": 0.1327432500000043,
            "durationTicks": 96,
            "midi": 61,
            "name": "C#4",
            "ticks": 31488,
            "time": 43.539786,
            "velocity": 0.7874015748031497
          },
          {
            "duration": 0.1327432500000043,
            "durationTicks": 96,
            "midi": 68,
            "name": "G#4",
            "ticks": 31680,
            "time": 43.8052725,
            "velocity": 0.5905511811023622
          },
          {
            "duration": 0.1327432500000043,
            "durationTicks": 96,
            "midi": 61,
            "name": "C#4",
            "ticks": 31680,
            "time": 43.8052725,
            "velocity": 0.5905511811023622
          },
          {
            "duration": 0.1327432499999972,
            "durationTicks": 96,
            "midi": 63,
            "name": "D#4",
            "ticks": 31872,
            "time": 44.070759,
            "velocity": 0.7874015748031497
          },
          {
            "duration": 0.1327432499999972,
            "durationTicks": 96,
            "midi": 69,
            "name": "A4",
            "ticks": 31872,
            "time": 44.070759,
            "velocity": 0.7874015748031497
          },
          {
            "duration": 0.1327432499999972,
            "durationTicks": 96,
            "midi": 63,
            "name": "D#4",
            "ticks": 32064,
            "time": 44.336245500000004,
            "velocity": 0.5905511811023622
          },
          {
            "duration": 0.1327432499999972,
            "durationTicks": 96,
            "midi": 69,
            "name": "A4",
            "ticks": 32064,
            "time": 44.336245500000004,
            "velocity": 0.5905511811023622
          },
          {
            "duration": 0.7964594999999974,
            "durationTicks": 576,
            "midi": 64,
            "name": "E4",
            "ticks": 32256,
            "time": 44.601732000000005,
            "velocity": 0.7874015748031497
          },
          {
            "duration": 0.7964594999999974,
            "durationTicks": 576,
            "midi": 71,
            "name": "B4",
            "ticks": 32256,
            "time": 44.601732000000005,
            "velocity": 0.7874015748031497
          },
          {
            "duration": 0.1327432499999972,
            "durationTicks": 96,
            "midi": 66,
            "name": "F#4",
            "ticks": 32832,
            "time": 45.3981915,
            "velocity": 0.7874015748031497
          },
          {
            "duration": 0.1327432499999972,
            "durationTicks": 96,
            "midi": 73,
            "name": "C#5",
            "ticks": 32832,
            "time": 45.3981915,
            "velocity": 0.7874015748031497
          },
          {
            "duration": 0.2654865000000015,
            "durationTicks": 192,
            "midi": 56,
            "name": "G#3",
            "ticks": 33024,
            "time": 45.663678000000004,
            "velocity": 0.7874015748031497
          },
          {
            "duration": 0.2654865000000015,
            "durationTicks": 192,
            "midi": 64,
            "name": "E4",
            "ticks": 33024,
            "time": 45.663678000000004,
            "velocity": 0.7874015748031497
          },
          {
            "duration": 0.2654865000000015,
            "durationTicks": 192,
            "midi": 66,
            "name": "F#4",
            "ticks": 33312,
            "time": 46.06190775,
            "velocity": 0.7874015748031497
          },
          {
            "duration": 0.2654865000000015,
            "durationTicks": 192,
            "midi": 59,
            "name": "B3",
            "ticks": 33312,
            "time": 46.06190775,
            "velocity": 0.7874015748031497
          },
          {
            "duration": 0.1327432499999972,
            "durationTicks": 96,
            "midi": 61,
            "name": "C#4",
            "ticks": 33600,
            "time": 46.4601375,
            "velocity": 0.7874015748031497
          },
          {
            "duration": 0.1327432499999972,
            "durationTicks": 96,
            "midi": 68,
            "name": "G#4",
            "ticks": 33600,
            "time": 46.4601375,
            "velocity": 0.7874015748031497
          },
          {
            "duration": 0.7964594999999974,
            "durationTicks": 576,
            "midi": 71,
            "name": "B4",
            "ticks": 33792,
            "time": 46.725624,
            "velocity": 0.7874015748031497
          },
          {
            "duration": 0.7964594999999974,
            "durationTicks": 576,
            "midi": 63,
            "name": "D#4",
            "ticks": 33792,
            "time": 46.725624,
            "velocity": 0.7874015748031497
          },
          {
            "duration": 0.1327432500000043,
            "durationTicks": 96,
            "midi": 64,
            "name": "E4",
            "ticks": 34368,
            "time": 47.5220835,
            "velocity": 0.7874015748031497
          },
          {
            "duration": 0.1327432500000043,
            "durationTicks": 96,
            "midi": 73,
            "name": "C#5",
            "ticks": 34368,
            "time": 47.5220835,
            "velocity": 0.7874015748031497
          },
          {
            "duration": 0.2654865000000015,
            "durationTicks": 192,
            "midi": 63,
            "name": "D#4",
            "ticks": 34560,
            "time": 47.78757,
            "velocity": 0.7874015748031497
          },
          {
            "duration": 0.2654865000000015,
            "durationTicks": 192,
            "midi": 54,
            "name": "F#3",
            "ticks": 34560,
            "time": 47.78757,
            "velocity": 0.7874015748031497
          },
          {
            "duration": 0.2654865000000015,
            "durationTicks": 192,
            "midi": 66,
            "name": "F#4",
            "ticks": 34848,
            "time": 48.18579975,
            "velocity": 0.7874015748031497
          },
          {
            "duration": 0.2654865000000015,
            "durationTicks": 192,
            "midi": 75,
            "name": "D#5",
            "ticks": 34848,
            "time": 48.18579975,
            "velocity": 0.7874015748031497
          },
          {
            "duration": 0.2654865000000015,
            "durationTicks": 192,
            "midi": 63,
            "name": "D#4",
            "ticks": 35136,
            "time": 48.5840295,
            "velocity": 0.7874015748031497
          },
          {
            "duration": 0.2654865000000015,
            "durationTicks": 192,
            "midi": 71,
            "name": "B4",
            "ticks": 35136,
            "time": 48.5840295,
            "velocity": 0.7874015748031497
          },
          {
            "duration": 1.8584055000000035,
            "durationTicks": 1344,
            "midi": 64,
            "name": "E4",
            "ticks": 35328,
            "time": 48.849516,
            "velocity": 0.7874015748031497
          },
          {
            "duration": 1.8584055000000035,
            "durationTicks": 1344,
            "midi": 68,
            "name": "G#4",
            "ticks": 35328,
            "time": 48.849516,
            "velocity": 0.7874015748031497
          },
          {
            "duration": 0.1327432499999972,
            "durationTicks": 96,
            "midi": 69,
            "name": "A4",
            "ticks": 36672,
            "time": 50.707921500000005,
            "velocity": 0.7874015748031497
          },
          {
            "duration": 0.1327432499999972,
            "durationTicks": 96,
            "midi": 66,
            "name": "F#4",
            "ticks": 36672,
            "time": 50.707921500000005,
            "velocity": 0.7874015748031497
          },
          {
            "duration": 0.1327432500000043,
            "durationTicks": 96,
            "midi": 68,
            "name": "G#4",
            "ticks": 36768,
            "time": 50.84066475,
            "velocity": 0.7874015748031497
          },
          {
            "duration": 0.1327432500000043,
            "durationTicks": 96,
            "midi": 64,
            "name": "E4",
            "ticks": 36768,
            "time": 50.84066475,
            "velocity": 0.7874015748031497
          },
          {
            "duration": 0.5309729999999959,
            "durationTicks": 384,
            "midi": 66,
            "name": "F#4",
            "ticks": 36864,
            "time": 50.973408000000006,
            "velocity": 0.7874015748031497
          },
          {
            "duration": 0.5309729999999959,
            "durationTicks": 384,
            "midi": 63,
            "name": "D#4",
            "ticks": 36864,
            "time": 50.973408000000006,
            "velocity": 0.7874015748031497
          },
          {
            "duration": 0.1327432499999972,
            "durationTicks": 96,
            "midi": 56,
            "name": "G#3",
            "ticks": 37632,
            "time": 52.035354000000005,
            "velocity": 0.7874015748031497
          },
          {
            "duration": 0.1327432499999972,
            "durationTicks": 96,
            "midi": 64,
            "name": "E4",
            "ticks": 37632,
            "time": 52.035354000000005,
            "velocity": 0.7874015748031497
          },
          {
            "duration": 0.1327432500000043,
            "durationTicks": 96,
            "midi": 64,
            "name": "E4",
            "ticks": 37824,
            "time": 52.3008405,
            "velocity": 0.5905511811023622
          },
          {
            "duration": 0.1327432500000043,
            "durationTicks": 96,
            "midi": 56,
            "name": "G#3",
            "ticks": 37824,
            "time": 52.3008405,
            "velocity": 0.5905511811023622
          },
          {
            "duration": 0.1327432500000043,
            "durationTicks": 96,
            "midi": 63,
            "name": "D#4",
            "ticks": 38016,
            "time": 52.566327,
            "velocity": 0.7874015748031497
          },
          {
            "duration": 0.1327432500000043,
            "durationTicks": 96,
            "midi": 54,
            "name": "F#3",
            "ticks": 38016,
            "time": 52.566327,
            "velocity": 0.7874015748031497
          },
          {
            "duration": 0.1327432499999972,
            "durationTicks": 96,
            "midi": 54,
            "name": "F#3",
            "ticks": 38208,
            "time": 52.8318135,
            "velocity": 0.5905511811023622
          },
          {
            "duration": 0.1327432499999972,
            "durationTicks": 96,
            "midi": 63,
            "name": "D#4",
            "ticks": 38208,
            "time": 52.8318135,
            "velocity": 0.5905511811023622
          },
          {
            "duration": 0.1327432499999972,
            "durationTicks": 96,
            "midi": 49,
            "name": "C#3",
            "ticks": 38400,
            "time": 53.097300000000004,
            "velocity": 0.7874015748031497
          },
          {
            "duration": 0.1327432499999972,
            "durationTicks": 96,
            "midi": 61,
            "name": "C#4",
            "ticks": 38400,
            "time": 53.097300000000004,
            "velocity": 0.7874015748031497
          },
          {
            "duration": 0.1327432499999972,
            "durationTicks": 96,
            "midi": 61,
            "name": "C#4",
            "ticks": 38448,
            "time": 53.163671625000006,
            "velocity": 0.5905511811023622
          },
          {
            "duration": 0.1327432499999972,
            "durationTicks": 96,
            "midi": 49,
            "name": "C#3",
            "ticks": 38448,
            "time": 53.163671625000006,
            "velocity": 0.5905511811023622
          },
          {
            "duration": 0.1327432500000043,
            "durationTicks": 96,
            "midi": 64,
            "name": "E4",
            "ticks": 38496,
            "time": 53.23004325,
            "velocity": 0.7874015748031497
          },
          {
            "duration": 0.1327432500000043,
            "durationTicks": 96,
            "midi": 52,
            "name": "E3",
            "ticks": 38496,
            "time": 53.23004325,
            "velocity": 0.7874015748031497
          },
          {
            "duration": 0.1327432499999972,
            "durationTicks": 96,
            "midi": 52,
            "name": "E3",
            "ticks": 38544,
            "time": 53.296414875,
            "velocity": 0.5905511811023622
          },
          {
            "duration": 0.1327432499999972,
            "durationTicks": 96,
            "midi": 64,
            "name": "E4",
            "ticks": 38544,
            "time": 53.296414875,
            "velocity": 0.5905511811023622
          },
          {
            "duration": 0.1327432499999972,
            "durationTicks": 96,
            "midi": 63,
            "name": "D#4",
            "ticks": 38592,
            "time": 53.362786500000006,
            "velocity": 0.7874015748031497
          },
          {
            "duration": 0.1327432499999972,
            "durationTicks": 96,
            "midi": 51,
            "name": "D#3",
            "ticks": 38592,
            "time": 53.362786500000006,
            "velocity": 0.7874015748031497
          },
          {
            "duration": 0.1327432500000043,
            "durationTicks": 96,
            "midi": 63,
            "name": "D#4",
            "ticks": 38640,
            "time": 53.429158125,
            "velocity": 0.5905511811023622
          },
          {
            "duration": 0.1327432500000043,
            "durationTicks": 96,
            "midi": 51,
            "name": "D#3",
            "ticks": 38640,
            "time": 53.429158125,
            "velocity": 0.5905511811023622
          },
          {
            "duration": 0.1327432499999972,
            "durationTicks": 96,
            "midi": 52,
            "name": "E3",
            "ticks": 38688,
            "time": 53.49552975,
            "velocity": 0.7874015748031497
          },
          {
            "duration": 0.1327432499999972,
            "durationTicks": 96,
            "midi": 64,
            "name": "E4",
            "ticks": 38688,
            "time": 53.49552975,
            "velocity": 0.7874015748031497
          },
          {
            "duration": 0.1327432499999972,
            "durationTicks": 96,
            "midi": 52,
            "name": "E3",
            "ticks": 38736,
            "time": 53.561901375000005,
            "velocity": 0.5905511811023622
          },
          {
            "duration": 0.1327432499999972,
            "durationTicks": 96,
            "midi": 64,
            "name": "E4",
            "ticks": 38736,
            "time": 53.561901375000005,
            "velocity": 0.5905511811023622
          },
          {
            "duration": 0.1327432500000043,
            "durationTicks": 96,
            "midi": 61,
            "name": "C#4",
            "ticks": 38784,
            "time": 53.628273,
            "velocity": 0.7874015748031497
          },
          {
            "duration": 0.1327432500000043,
            "durationTicks": 96,
            "midi": 49,
            "name": "C#3",
            "ticks": 38784,
            "time": 53.628273,
            "velocity": 0.7874015748031497
          },
          {
            "duration": 0.1327432499999972,
            "durationTicks": 96,
            "midi": 49,
            "name": "C#3",
            "ticks": 38832,
            "time": 53.694644625,
            "velocity": 0.5905511811023622
          },
          {
            "duration": 0.1327432499999972,
            "durationTicks": 96,
            "midi": 61,
            "name": "C#4",
            "ticks": 38832,
            "time": 53.694644625,
            "velocity": 0.5905511811023622
          },
          {
            "duration": 0.1327432499999972,
            "durationTicks": 96,
            "midi": 61,
            "name": "C#4",
            "ticks": 38880,
            "time": 53.761016250000004,
            "velocity": 0.4881889763779528
          },
          {
            "duration": 0.1327432499999972,
            "durationTicks": 96,
            "midi": 49,
            "name": "C#3",
            "ticks": 38880,
            "time": 53.761016250000004,
            "velocity": 0.4881889763779528
          },
          {
            "duration": 0.1327432500000043,
            "durationTicks": 96,
            "midi": 49,
            "name": "C#3",
            "ticks": 38928,
            "time": 53.827387875,
            "velocity": 0.4330708661417323
          },
          {
            "duration": 0.1327432500000043,
            "durationTicks": 96,
            "midi": 61,
            "name": "C#4",
            "ticks": 38928,
            "time": 53.827387875,
            "velocity": 0.4330708661417323
          },
          {
            "duration": 0.2654864999999944,
            "durationTicks": 192,
            "midi": 61,
            "name": "C#4",
            "ticks": 39072,
            "time": 54.026502750000006,
            "velocity": 0.7874015748031497
          },
          {
            "duration": 0.2654864999999944,
            "durationTicks": 192,
            "midi": 49,
            "name": "C#3",
            "ticks": 39072,
            "time": 54.026502750000006,
            "velocity": 0.7874015748031497
          },
          {
            "duration": 0.1327432500000043,
            "durationTicks": 96,
            "midi": 51,
            "name": "D#3",
            "ticks": 39264,
            "time": 54.29198925,
            "velocity": 0.7874015748031497
          },
          {
            "duration": 0.1327432500000043,
            "durationTicks": 96,
            "midi": 63,
            "name": "D#4",
            "ticks": 39264,
            "time": 54.29198925,
            "velocity": 0.7874015748031497
          },
          {
            "duration": 0.1327432499999972,
            "durationTicks": 96,
            "midi": 63,
            "name": "D#4",
            "ticks": 39312,
            "time": 54.358360875,
            "velocity": 0.5905511811023622
          },
          {
            "duration": 0.1327432499999972,
            "durationTicks": 96,
            "midi": 51,
            "name": "D#3",
            "ticks": 39312,
            "time": 54.358360875,
            "velocity": 0.5905511811023622
          },
          {
            "duration": 0.1327432499999972,
            "durationTicks": 96,
            "midi": 64,
            "name": "E4",
            "ticks": 39360,
            "time": 54.424732500000005,
            "velocity": 0.7874015748031497
          },
          {
            "duration": 0.1327432499999972,
            "durationTicks": 96,
            "midi": 52,
            "name": "E3",
            "ticks": 39360,
            "time": 54.424732500000005,
            "velocity": 0.7874015748031497
          },
          {
            "duration": 0.1327432500000043,
            "durationTicks": 96,
            "midi": 64,
            "name": "E4",
            "ticks": 39408,
            "time": 54.491104125,
            "velocity": 0.5905511811023622
          },
          {
            "duration": 0.1327432500000043,
            "durationTicks": 96,
            "midi": 52,
            "name": "E3",
            "ticks": 39408,
            "time": 54.491104125,
            "velocity": 0.5905511811023622
          },
          {
            "duration": 0.1327432500000043,
            "durationTicks": 96,
            "midi": 71,
            "name": "B4",
            "ticks": 39456,
            "time": 54.55747575,
            "velocity": 0.7874015748031497
          },
          {
            "duration": 0.1327432500000043,
            "durationTicks": 96,
            "midi": 59,
            "name": "B3",
            "ticks": 39456,
            "time": 54.55747575,
            "velocity": 0.7874015748031497
          },
          {
            "duration": 0.1327432499999972,
            "durationTicks": 96,
            "midi": 71,
            "name": "B4",
            "ticks": 39504,
            "time": 54.623847375000004,
            "velocity": 0.5905511811023622
          },
          {
            "duration": 0.1327432499999972,
            "durationTicks": 96,
            "midi": 59,
            "name": "B3",
            "ticks": 39504,
            "time": 54.623847375000004,
            "velocity": 0.5905511811023622
          },
          {
            "duration": 0.1327432499999972,
            "durationTicks": 96,
            "midi": 56,
            "name": "G#3",
            "ticks": 39552,
            "time": 54.690219000000006,
            "velocity": 0.7874015748031497
          },
          {
            "duration": 0.1327432499999972,
            "durationTicks": 96,
            "midi": 68,
            "name": "G#4",
            "ticks": 39552,
            "time": 54.690219000000006,
            "velocity": 0.7874015748031497
          },
          {
            "duration": 0.1327432500000043,
            "durationTicks": 96,
            "midi": 56,
            "name": "G#3",
            "ticks": 39600,
            "time": 54.756590625,
            "velocity": 0.5905511811023622
          },
          {
            "duration": 0.1327432500000043,
            "durationTicks": 96,
            "midi": 68,
            "name": "G#4",
            "ticks": 39600,
            "time": 54.756590625,
            "velocity": 0.5905511811023622
          },
          {
            "duration": 0.1327432499999972,
            "durationTicks": 96,
            "midi": 68,
            "name": "G#4",
            "ticks": 39648,
            "time": 54.82296225,
            "velocity": 0.4881889763779528
          },
          {
            "duration": 0.1327432499999972,
            "durationTicks": 96,
            "midi": 56,
            "name": "G#3",
            "ticks": 39648,
            "time": 54.82296225,
            "velocity": 0.4881889763779528
          },
          {
            "duration": 0.1327432499999972,
            "durationTicks": 96,
            "midi": 68,
            "name": "G#4",
            "ticks": 39696,
            "time": 54.889333875000005,
            "velocity": 0.4330708661417323
          },
          {
            "duration": 0.1327432499999972,
            "durationTicks": 96,
            "midi": 56,
            "name": "G#3",
            "ticks": 39696,
            "time": 54.889333875000005,
            "velocity": 0.4330708661417323
          },
          {
            "duration": 0.1327432500000043,
            "durationTicks": 96,
            "midi": 49,
            "name": "C#3",
            "ticks": 39936,
            "time": 55.221192,
            "velocity": 0.7874015748031497
          },
          {
            "duration": 0.1327432500000043,
            "durationTicks": 96,
            "midi": 61,
            "name": "C#4",
            "ticks": 39936,
            "time": 55.221192,
            "velocity": 0.7874015748031497
          },
          {
            "duration": 0.1327432499999972,
            "durationTicks": 96,
            "midi": 49,
            "name": "C#3",
            "ticks": 39984,
            "time": 55.287563625000004,
            "velocity": 0.5905511811023622
          },
          {
            "duration": 0.1327432499999972,
            "durationTicks": 96,
            "midi": 61,
            "name": "C#4",
            "ticks": 39984,
            "time": 55.287563625000004,
            "velocity": 0.5905511811023622
          },
          {
            "duration": 0.1327432499999972,
            "durationTicks": 96,
            "midi": 64,
            "name": "E4",
            "ticks": 40032,
            "time": 55.353935250000006,
            "velocity": 0.7874015748031497
          },
          {
            "duration": 0.1327432499999972,
            "durationTicks": 96,
            "midi": 52,
            "name": "E3",
            "ticks": 40032,
            "time": 55.353935250000006,
            "velocity": 0.7874015748031497
          },
          {
            "duration": 0.1327432500000043,
            "durationTicks": 96,
            "midi": 64,
            "name": "E4",
            "ticks": 40080,
            "time": 55.420306875,
            "velocity": 0.5905511811023622
          },
          {
            "duration": 0.1327432500000043,
            "durationTicks": 96,
            "midi": 52,
            "name": "E3",
            "ticks": 40080,
            "time": 55.420306875,
            "velocity": 0.5905511811023622
          },
          {
            "duration": 0.1327432499999972,
            "durationTicks": 96,
            "midi": 51,
            "name": "D#3",
            "ticks": 40128,
            "time": 55.486678500000004,
            "velocity": 0.7874015748031497
          },
          {
            "duration": 0.1327432499999972,
            "durationTicks": 96,
            "midi": 63,
            "name": "D#4",
            "ticks": 40128,
            "time": 55.486678500000004,
            "velocity": 0.7874015748031497
          },
          {
            "duration": 0.1327432499999972,
            "durationTicks": 96,
            "midi": 51,
            "name": "D#3",
            "ticks": 40176,
            "time": 55.553050125000006,
            "velocity": 0.5905511811023622
          },
          {
            "duration": 0.1327432499999972,
            "durationTicks": 96,
            "midi": 63,
            "name": "D#4",
            "ticks": 40176,
            "time": 55.553050125000006,
            "velocity": 0.5905511811023622
          },
          {
            "duration": 0.1327432500000043,
            "durationTicks": 96,
            "midi": 52,
            "name": "E3",
            "ticks": 40224,
            "time": 55.61942175,
            "velocity": 0.7874015748031497
          },
          {
            "duration": 0.1327432500000043,
            "durationTicks": 96,
            "midi": 64,
            "name": "E4",
            "ticks": 40224,
            "time": 55.61942175,
            "velocity": 0.7874015748031497
          },
          {
            "duration": 0.1327432499999972,
            "durationTicks": 96,
            "midi": 52,
            "name": "E3",
            "ticks": 40272,
            "time": 55.685793375,
            "velocity": 0.5905511811023622
          },
          {
            "duration": 0.1327432499999972,
            "durationTicks": 96,
            "midi": 64,
            "name": "E4",
            "ticks": 40272,
            "time": 55.685793375,
            "velocity": 0.5905511811023622
          },
          {
            "duration": 0.1327432499999972,
            "durationTicks": 96,
            "midi": 49,
            "name": "C#3",
            "ticks": 40320,
            "time": 55.752165000000005,
            "velocity": 0.7874015748031497
          },
          {
            "duration": 0.1327432499999972,
            "durationTicks": 96,
            "midi": 61,
            "name": "C#4",
            "ticks": 40320,
            "time": 55.752165000000005,
            "velocity": 0.7874015748031497
          },
          {
            "duration": 0.1327432500000043,
            "durationTicks": 96,
            "midi": 61,
            "name": "C#4",
            "ticks": 40368,
            "time": 55.818536625,
            "velocity": 0.5905511811023622
          },
          {
            "duration": 0.1327432500000043,
            "durationTicks": 96,
            "midi": 49,
            "name": "C#3",
            "ticks": 40368,
            "time": 55.818536625,
            "velocity": 0.5905511811023622
          },
          {
            "duration": 0.1327432499999972,
            "durationTicks": 96,
            "midi": 61,
            "name": "C#4",
            "ticks": 40416,
            "time": 55.88490825,
            "velocity": 0.4881889763779528
          },
          {
            "duration": 0.1327432499999972,
            "durationTicks": 96,
            "midi": 49,
            "name": "C#3",
            "ticks": 40416,
            "time": 55.88490825,
            "velocity": 0.4881889763779528
          },
          {
            "duration": 0.1327432499999972,
            "durationTicks": 96,
            "midi": 61,
            "name": "C#4",
            "ticks": 40464,
            "time": 55.951279875000004,
            "velocity": 0.4330708661417323
          },
          {
            "duration": 0.1327432499999972,
            "durationTicks": 96,
            "midi": 49,
            "name": "C#3",
            "ticks": 40464,
            "time": 55.951279875000004,
            "velocity": 0.4330708661417323
          },
          {
            "duration": 0.2654865000000015,
            "durationTicks": 192,
            "midi": 61,
            "name": "C#4",
            "ticks": 40608,
            "time": 56.150394750000004,
            "velocity": 0.7874015748031497
          },
          {
            "duration": 0.2654865000000015,
            "durationTicks": 192,
            "midi": 49,
            "name": "C#3",
            "ticks": 40608,
            "time": 56.150394750000004,
            "velocity": 0.7874015748031497
          },
          {
            "duration": 0.1327432499999972,
            "durationTicks": 96,
            "midi": 63,
            "name": "D#4",
            "ticks": 40800,
            "time": 56.415881250000005,
            "velocity": 0.7874015748031497
          },
          {
            "duration": 0.1327432499999972,
            "durationTicks": 96,
            "midi": 51,
            "name": "D#3",
            "ticks": 40800,
            "time": 56.415881250000005,
            "velocity": 0.7874015748031497
          },
          {
            "duration": 0.1327432500000043,
            "durationTicks": 96,
            "midi": 63,
            "name": "D#4",
            "ticks": 40848,
            "time": 56.482252875,
            "velocity": 0.5905511811023622
          },
          {
            "duration": 0.1327432500000043,
            "durationTicks": 96,
            "midi": 51,
            "name": "D#3",
            "ticks": 40848,
            "time": 56.482252875,
            "velocity": 0.5905511811023622
          },
          {
            "duration": 0.1327432499999972,
            "durationTicks": 96,
            "midi": 64,
            "name": "E4",
            "ticks": 40896,
            "time": 56.5486245,
            "velocity": 0.7874015748031497
          },
          {
            "duration": 0.1327432499999972,
            "durationTicks": 96,
            "midi": 52,
            "name": "E3",
            "ticks": 40896,
            "time": 56.5486245,
            "velocity": 0.7874015748031497
          },
          {
            "duration": 0.1327432499999972,
            "durationTicks": 96,
            "midi": 64,
            "name": "E4",
            "ticks": 40944,
            "time": 56.614996125000005,
            "velocity": 0.5905511811023622
          },
          {
            "duration": 0.1327432499999972,
            "durationTicks": 96,
            "midi": 52,
            "name": "E3",
            "ticks": 40944,
            "time": 56.614996125000005,
            "velocity": 0.5905511811023622
          },
          {
            "duration": 0.1327432500000043,
            "durationTicks": 96,
            "midi": 59,
            "name": "B3",
            "ticks": 40992,
            "time": 56.68136775,
            "velocity": 0.7874015748031497
          },
          {
            "duration": 0.1327432500000043,
            "durationTicks": 96,
            "midi": 71,
            "name": "B4",
            "ticks": 40992,
            "time": 56.68136775,
            "velocity": 0.7874015748031497
          },
          {
            "duration": 0.1327432500000043,
            "durationTicks": 96,
            "midi": 71,
            "name": "B4",
            "ticks": 41040,
            "time": 56.747739375,
            "velocity": 0.5905511811023622
          },
          {
            "duration": 0.1327432500000043,
            "durationTicks": 96,
            "midi": 59,
            "name": "B3",
            "ticks": 41040,
            "time": 56.747739375,
            "velocity": 0.5905511811023622
          },
          {
            "duration": 0.1327432499999972,
            "durationTicks": 96,
            "midi": 68,
            "name": "G#4",
            "ticks": 41088,
            "time": 56.814111000000004,
            "velocity": 0.7874015748031497
          },
          {
            "duration": 0.1327432499999972,
            "durationTicks": 96,
            "midi": 56,
            "name": "G#3",
            "ticks": 41088,
            "time": 56.814111000000004,
            "velocity": 0.7874015748031497
          },
          {
            "duration": 0.1327432499999972,
            "durationTicks": 96,
            "midi": 68,
            "name": "G#4",
            "ticks": 41136,
            "time": 56.880482625000006,
            "velocity": 0.5905511811023622
          },
          {
            "duration": 0.1327432499999972,
            "durationTicks": 96,
            "midi": 56,
            "name": "G#3",
            "ticks": 41136,
            "time": 56.880482625000006,
            "velocity": 0.5905511811023622
          },
          {
            "duration": 0.1327432500000043,
            "durationTicks": 96,
            "midi": 56,
            "name": "G#3",
            "ticks": 41184,
            "time": 56.94685425,
            "velocity": 0.4881889763779528
          },
          {
            "duration": 0.1327432500000043,
            "durationTicks": 96,
            "midi": 68,
            "name": "G#4",
            "ticks": 41184,
            "time": 56.94685425,
            "velocity": 0.4881889763779528
          },
          {
            "duration": 0.1327432499999972,
            "durationTicks": 96,
            "midi": 68,
            "name": "G#4",
            "ticks": 41232,
            "time": 57.013225875,
            "velocity": 0.4330708661417323
          },
          {
            "duration": 0.1327432499999972,
            "durationTicks": 96,
            "midi": 56,
            "name": "G#3",
            "ticks": 41232,
            "time": 57.013225875,
            "velocity": 0.4330708661417323
          },
          {
            "duration": 0.1327432500000043,
            "durationTicks": 96,
            "midi": 49,
            "name": "C#3",
            "ticks": 41472,
            "time": 57.345084,
            "velocity": 0.7874015748031497
          },
          {
            "duration": 0.1327432500000043,
            "durationTicks": 96,
            "midi": 61,
            "name": "C#4",
            "ticks": 41472,
            "time": 57.345084,
            "velocity": 0.7874015748031497
          },
          {
            "duration": 0.1327432500000043,
            "durationTicks": 96,
            "midi": 61,
            "name": "C#4",
            "ticks": 41520,
            "time": 57.411455625,
            "velocity": 0.5905511811023622
          },
          {
            "duration": 0.1327432500000043,
            "durationTicks": 96,
            "midi": 49,
            "name": "C#3",
            "ticks": 41520,
            "time": 57.411455625,
            "velocity": 0.5905511811023622
          },
          {
            "duration": 0.1327432499999972,
            "durationTicks": 96,
            "midi": 64,
            "name": "E4",
            "ticks": 41568,
            "time": 57.477827250000004,
            "velocity": 0.7874015748031497
          },
          {
            "duration": 0.1327432499999972,
            "durationTicks": 96,
            "midi": 52,
            "name": "E3",
            "ticks": 41568,
            "time": 57.477827250000004,
            "velocity": 0.7874015748031497
          },
          {
            "duration": 0.1327432499999972,
            "durationTicks": 96,
            "midi": 52,
            "name": "E3",
            "ticks": 41616,
            "time": 57.544198875000006,
            "velocity": 0.5905511811023622
          },
          {
            "duration": 0.1327432499999972,
            "durationTicks": 96,
            "midi": 64,
            "name": "E4",
            "ticks": 41616,
            "time": 57.544198875000006,
            "velocity": 0.5905511811023622
          },
          {
            "duration": 0.1327432500000043,
            "durationTicks": 96,
            "midi": 51,
            "name": "D#3",
            "ticks": 41664,
            "time": 57.6105705,
            "velocity": 0.7874015748031497
          },
          {
            "duration": 0.1327432500000043,
            "durationTicks": 96,
            "midi": 63,
            "name": "D#4",
            "ticks": 41664,
            "time": 57.6105705,
            "velocity": 0.7874015748031497
          },
          {
            "duration": 0.1327432499999972,
            "durationTicks": 96,
            "midi": 51,
            "name": "D#3",
            "ticks": 41712,
            "time": 57.676942125000004,
            "velocity": 0.5905511811023622
          },
          {
            "duration": 0.1327432499999972,
            "durationTicks": 96,
            "midi": 63,
            "name": "D#4",
            "ticks": 41712,
            "time": 57.676942125000004,
            "velocity": 0.5905511811023622
          },
          {
            "duration": 0.1327432499999972,
            "durationTicks": 96,
            "midi": 64,
            "name": "E4",
            "ticks": 41760,
            "time": 57.743313750000006,
            "velocity": 0.7874015748031497
          },
          {
            "duration": 0.1327432499999972,
            "durationTicks": 96,
            "midi": 52,
            "name": "E3",
            "ticks": 41760,
            "time": 57.743313750000006,
            "velocity": 0.7874015748031497
          },
          {
            "duration": 0.1327432500000043,
            "durationTicks": 96,
            "midi": 64,
            "name": "E4",
            "ticks": 41808,
            "time": 57.809685375,
            "velocity": 0.5905511811023622
          },
          {
            "duration": 0.1327432500000043,
            "durationTicks": 96,
            "midi": 52,
            "name": "E3",
            "ticks": 41808,
            "time": 57.809685375,
            "velocity": 0.5905511811023622
          },
          {
            "duration": 0.1327432499999972,
            "durationTicks": 96,
            "midi": 49,
            "name": "C#3",
            "ticks": 41856,
            "time": 57.876057,
            "velocity": 0.7874015748031497
          },
          {
            "duration": 0.1327432499999972,
            "durationTicks": 96,
            "midi": 61,
            "name": "C#4",
            "ticks": 41856,
            "time": 57.876057,
            "velocity": 0.7874015748031497
          },
          {
            "duration": 0.1327432499999972,
            "durationTicks": 96,
            "midi": 61,
            "name": "C#4",
            "ticks": 41904,
            "time": 57.942428625000005,
            "velocity": 0.5905511811023622
          },
          {
            "duration": 0.1327432499999972,
            "durationTicks": 96,
            "midi": 49,
            "name": "C#3",
            "ticks": 41904,
            "time": 57.942428625000005,
            "velocity": 0.5905511811023622
          },
          {
            "duration": 0.1327432500000043,
            "durationTicks": 96,
            "midi": 49,
            "name": "C#3",
            "ticks": 41952,
            "time": 58.00880025,
            "velocity": 0.4881889763779528
          },
          {
            "duration": 0.1327432500000043,
            "durationTicks": 96,
            "midi": 61,
            "name": "C#4",
            "ticks": 41952,
            "time": 58.00880025,
            "velocity": 0.4881889763779528
          },
          {
            "duration": 0.1327432500000043,
            "durationTicks": 96,
            "midi": 49,
            "name": "C#3",
            "ticks": 42000,
            "time": 58.075171875,
            "velocity": 0.4330708661417323
          },
          {
            "duration": 0.1327432500000043,
            "durationTicks": 96,
            "midi": 61,
            "name": "C#4",
            "ticks": 42000,
            "time": 58.075171875,
            "velocity": 0.4330708661417323
          },
          {
            "duration": 0.2654865000000015,
            "durationTicks": 192,
            "midi": 49,
            "name": "C#3",
            "ticks": 42144,
            "time": 58.27428675,
            "velocity": 0.7874015748031497
          },
          {
            "duration": 0.2654865000000015,
            "durationTicks": 192,
            "midi": 61,
            "name": "C#4",
            "ticks": 42144,
            "time": 58.27428675,
            "velocity": 0.7874015748031497
          },
          {
            "duration": 0.1327432499999972,
            "durationTicks": 96,
            "midi": 51,
            "name": "D#3",
            "ticks": 42336,
            "time": 58.53977325,
            "velocity": 0.7874015748031497
          },
          {
            "duration": 0.1327432499999972,
            "durationTicks": 96,
            "midi": 63,
            "name": "D#4",
            "ticks": 42336,
            "time": 58.53977325,
            "velocity": 0.7874015748031497
          },
          {
            "duration": 0.1327432499999972,
            "durationTicks": 96,
            "midi": 51,
            "name": "D#3",
            "ticks": 42384,
            "time": 58.606144875000005,
            "velocity": 0.5905511811023622
          },
          {
            "duration": 0.1327432499999972,
            "durationTicks": 96,
            "midi": 63,
            "name": "D#4",
            "ticks": 42384,
            "time": 58.606144875000005,
            "velocity": 0.5905511811023622
          },
          {
            "duration": 0.1327432500000043,
            "durationTicks": 96,
            "midi": 64,
            "name": "E4",
            "ticks": 42432,
            "time": 58.6725165,
            "velocity": 0.7874015748031497
          },
          {
            "duration": 0.1327432500000043,
            "durationTicks": 96,
            "midi": 52,
            "name": "E3",
            "ticks": 42432,
            "time": 58.6725165,
            "velocity": 0.7874015748031497
          },
          {
            "duration": 0.1327432499999972,
            "durationTicks": 96,
            "midi": 52,
            "name": "E3",
            "ticks": 42480,
            "time": 58.738888125,
            "velocity": 0.5905511811023622
          },
          {
            "duration": 0.1327432499999972,
            "durationTicks": 96,
            "midi": 64,
            "name": "E4",
            "ticks": 42480,
            "time": 58.738888125,
            "velocity": 0.5905511811023622
          },
          {
            "duration": 0.1327432499999972,
            "durationTicks": 96,
            "midi": 71,
            "name": "B4",
            "ticks": 42528,
            "time": 58.805259750000005,
            "velocity": 0.7874015748031497
          },
          {
            "duration": 0.1327432499999972,
            "durationTicks": 96,
            "midi": 59,
            "name": "B3",
            "ticks": 42528,
            "time": 58.805259750000005,
            "velocity": 0.7874015748031497
          },
          {
            "duration": 0.1327432500000043,
            "durationTicks": 96,
            "midi": 71,
            "name": "B4",
            "ticks": 42576,
            "time": 58.871631375,
            "velocity": 0.5905511811023622
          },
          {
            "duration": 0.1327432500000043,
            "durationTicks": 96,
            "midi": 59,
            "name": "B3",
            "ticks": 42576,
            "time": 58.871631375,
            "velocity": 0.5905511811023622
          },
          {
            "duration": 0.1327432500000043,
            "durationTicks": 96,
            "midi": 56,
            "name": "G#3",
            "ticks": 42624,
            "time": 58.938003,
            "velocity": 0.7874015748031497
          },
          {
            "duration": 0.1327432500000043,
            "durationTicks": 96,
            "midi": 68,
            "name": "G#4",
            "ticks": 42624,
            "time": 58.938003,
            "velocity": 0.7874015748031497
          },
          {
            "duration": 0.1327432499999972,
            "durationTicks": 96,
            "midi": 56,
            "name": "G#3",
            "ticks": 42672,
            "time": 59.004374625000004,
            "velocity": 0.5905511811023622
          },
          {
            "duration": 0.1327432499999972,
            "durationTicks": 96,
            "midi": 68,
            "name": "G#4",
            "ticks": 42672,
            "time": 59.004374625000004,
            "velocity": 0.5905511811023622
          },
          {
            "duration": 0.1327432499999972,
            "durationTicks": 96,
            "midi": 56,
            "name": "G#3",
            "ticks": 42720,
            "time": 59.070746250000006,
            "velocity": 0.4881889763779528
          },
          {
            "duration": 0.1327432499999972,
            "durationTicks": 96,
            "midi": 68,
            "name": "G#4",
            "ticks": 42720,
            "time": 59.070746250000006,
            "velocity": 0.4881889763779528
          },
          {
            "duration": 0.1327432500000043,
            "durationTicks": 96,
            "midi": 68,
            "name": "G#4",
            "ticks": 42768,
            "time": 59.137117875,
            "velocity": 0.4330708661417323
          },
          {
            "duration": 0.1327432500000043,
            "durationTicks": 96,
            "midi": 56,
            "name": "G#3",
            "ticks": 42768,
            "time": 59.137117875,
            "velocity": 0.4330708661417323
          },
          {
            "duration": 0.3982297499999987,
            "durationTicks": 288,
            "midi": 59,
            "name": "B3",
            "ticks": 43008,
            "time": 59.468976000000005,
            "velocity": 0.7874015748031497
          },
          {
            "duration": 0.3982297499999987,
            "durationTicks": 288,
            "midi": 47,
            "name": "B2",
            "ticks": 43008,
            "time": 59.468976000000005,
            "velocity": 0.7874015748031497
          },
          {
            "duration": 0.3982297499999987,
            "durationTicks": 288,
            "midi": 66,
            "name": "F#4",
            "ticks": 43296,
            "time": 59.867205750000004,
            "velocity": 0.7874015748031497
          },
          {
            "duration": 0.3982297499999987,
            "durationTicks": 288,
            "midi": 54,
            "name": "F#3",
            "ticks": 43296,
            "time": 59.867205750000004,
            "velocity": 0.7874015748031497
          },
          {
            "duration": 0.1327432500000043,
            "durationTicks": 96,
            "midi": 52,
            "name": "E3",
            "ticks": 43584,
            "time": 60.2654355,
            "velocity": 0.7874015748031497
          },
          {
            "duration": 0.1327432500000043,
            "durationTicks": 96,
            "midi": 64,
            "name": "E4",
            "ticks": 43584,
            "time": 60.2654355,
            "velocity": 0.7874015748031497
          },
          {
            "duration": 0.1327432499999972,
            "durationTicks": 96,
            "midi": 52,
            "name": "E3",
            "ticks": 43680,
            "time": 60.39817875000001,
            "velocity": 0.5905511811023622
          },
          {
            "duration": 0.1327432499999972,
            "durationTicks": 96,
            "midi": 64,
            "name": "E4",
            "ticks": 43680,
            "time": 60.39817875000001,
            "velocity": 0.5905511811023622
          },
          {
            "duration": 0.1327432500000043,
            "durationTicks": 96,
            "midi": 51,
            "name": "D#3",
            "ticks": 43728,
            "time": 60.464550375,
            "velocity": 0.7874015748031497
          },
          {
            "duration": 0.1327432500000043,
            "durationTicks": 96,
            "midi": 63,
            "name": "D#4",
            "ticks": 43728,
            "time": 60.464550375,
            "velocity": 0.7874015748031497
          },
          {
            "duration": 0.1327432499999972,
            "durationTicks": 96,
            "midi": 51,
            "name": "D#3",
            "ticks": 43776,
            "time": 60.530922000000004,
            "velocity": 0.7874015748031497
          },
          {
            "duration": 0.1327432499999972,
            "durationTicks": 96,
            "midi": 63,
            "name": "D#4",
            "ticks": 43776,
            "time": 60.530922000000004,
            "velocity": 0.7874015748031497
          },
          {
            "duration": 0.1327432500000043,
            "durationTicks": 96,
            "midi": 61,
            "name": "C#4",
            "ticks": 43872,
            "time": 60.66366525,
            "velocity": 0.7874015748031497
          },
          {
            "duration": 0.1327432500000043,
            "durationTicks": 96,
            "midi": 49,
            "name": "C#3",
            "ticks": 43872,
            "time": 60.66366525,
            "velocity": 0.7874015748031497
          },
          {
            "duration": 0.1327432499999972,
            "durationTicks": 96,
            "midi": 61,
            "name": "C#4",
            "ticks": 43968,
            "time": 60.796408500000005,
            "velocity": 0.5905511811023622
          },
          {
            "duration": 0.1327432499999972,
            "durationTicks": 96,
            "midi": 49,
            "name": "C#3",
            "ticks": 43968,
            "time": 60.796408500000005,
            "velocity": 0.5905511811023622
          },
          {
            "duration": 0.2654865000000015,
            "durationTicks": 192,
            "midi": 47,
            "name": "B2",
            "ticks": 44064,
            "time": 60.92915175,
            "velocity": 0.7874015748031497
          },
          {
            "duration": 0.2654865000000015,
            "durationTicks": 192,
            "midi": 59,
            "name": "B3",
            "ticks": 44064,
            "time": 60.92915175,
            "velocity": 0.7874015748031497
          },
          {
            "duration": 0.1327432499999972,
            "durationTicks": 96,
            "midi": 61,
            "name": "C#4",
            "ticks": 44256,
            "time": 61.194638250000004,
            "velocity": 0.7874015748031497
          },
          {
            "duration": 0.1327432499999972,
            "durationTicks": 96,
            "midi": 49,
            "name": "C#3",
            "ticks": 44256,
            "time": 61.194638250000004,
            "velocity": 0.7874015748031497
          },
          {
            "duration": 0.1327432499999972,
            "durationTicks": 96,
            "midi": 63,
            "name": "D#4",
            "ticks": 44304,
            "time": 61.261009875000006,
            "velocity": 0.7874015748031497
          },
          {
            "duration": 0.1327432499999972,
            "durationTicks": 96,
            "midi": 51,
            "name": "D#3",
            "ticks": 44304,
            "time": 61.261009875000006,
            "velocity": 0.7874015748031497
          },
          {
            "duration": 0.2654865000000015,
            "durationTicks": 192,
            "midi": 63,
            "name": "D#4",
            "ticks": 44352,
            "time": 61.3273815,
            "velocity": 0.7874015748031497
          },
          {
            "duration": 0.2654865000000015,
            "durationTicks": 192,
            "midi": 51,
            "name": "D#3",
            "ticks": 44352,
            "time": 61.3273815,
            "velocity": 0.7874015748031497
          },
          {
            "duration": 0.1327432499999972,
            "durationTicks": 96,
            "midi": 61,
            "name": "C#4",
            "ticks": 44544,
            "time": 61.592868,
            "velocity": 0.7874015748031497
          },
          {
            "duration": 0.1327432499999972,
            "durationTicks": 96,
            "midi": 49,
            "name": "C#3",
            "ticks": 44544,
            "time": 61.592868,
            "velocity": 0.7874015748031497
          },
          {
            "duration": 0.1327432499999972,
            "durationTicks": 96,
            "midi": 49,
            "name": "C#3",
            "ticks": 44592,
            "time": 61.659239625000005,
            "velocity": 0.5905511811023622
          },
          {
            "duration": 0.1327432499999972,
            "durationTicks": 96,
            "midi": 61,
            "name": "C#4",
            "ticks": 44592,
            "time": 61.659239625000005,
            "velocity": 0.5905511811023622
          },
          {
            "duration": 0.1327432500000043,
            "durationTicks": 96,
            "midi": 52,
            "name": "E3",
            "ticks": 44640,
            "time": 61.72561125,
            "velocity": 0.7874015748031497
          },
          {
            "duration": 0.1327432500000043,
            "durationTicks": 96,
            "midi": 64,
            "name": "E4",
            "ticks": 44640,
            "time": 61.72561125,
            "velocity": 0.7874015748031497
          },
          {
            "duration": 0.1327432500000043,
            "durationTicks": 96,
            "midi": 64,
            "name": "E4",
            "ticks": 44688,
            "time": 61.791982875,
            "velocity": 0.5905511811023622
          },
          {
            "duration": 0.1327432500000043,
            "durationTicks": 96,
            "midi": 52,
            "name": "E3",
            "ticks": 44688,
            "time": 61.791982875,
            "velocity": 0.5905511811023622
          },
          {
            "duration": 0.1327432499999972,
            "durationTicks": 96,
            "midi": 51,
            "name": "D#3",
            "ticks": 44736,
            "time": 61.858354500000004,
            "velocity": 0.7874015748031497
          },
          {
            "duration": 0.1327432499999972,
            "durationTicks": 96,
            "midi": 63,
            "name": "D#4",
            "ticks": 44736,
            "time": 61.858354500000004,
            "velocity": 0.7874015748031497
          },
          {
            "duration": 0.1327432499999972,
            "durationTicks": 96,
            "midi": 51,
            "name": "D#3",
            "ticks": 44784,
            "time": 61.92472612500001,
            "velocity": 0.5905511811023622
          },
          {
            "duration": 0.1327432499999972,
            "durationTicks": 96,
            "midi": 63,
            "name": "D#4",
            "ticks": 44784,
            "time": 61.92472612500001,
            "velocity": 0.5905511811023622
          },
          {
            "duration": 0.1327432500000043,
            "durationTicks": 96,
            "midi": 64,
            "name": "E4",
            "ticks": 44832,
            "time": 61.99109775,
            "velocity": 0.7874015748031497
          },
          {
            "duration": 0.1327432500000043,
            "durationTicks": 96,
            "midi": 52,
            "name": "E3",
            "ticks": 44832,
            "time": 61.99109775,
            "velocity": 0.7874015748031497
          },
          {
            "duration": 0.1327432499999972,
            "durationTicks": 96,
            "midi": 52,
            "name": "E3",
            "ticks": 44880,
            "time": 62.057469375000004,
            "velocity": 0.5905511811023622
          },
          {
            "duration": 0.1327432499999972,
            "durationTicks": 96,
            "midi": 64,
            "name": "E4",
            "ticks": 44880,
            "time": 62.057469375000004,
            "velocity": 0.5905511811023622
          },
          {
            "duration": 0.1327432499999972,
            "durationTicks": 96,
            "midi": 49,
            "name": "C#3",
            "ticks": 44928,
            "time": 62.123841000000006,
            "velocity": 0.7874015748031497
          },
          {
            "duration": 0.1327432499999972,
            "durationTicks": 96,
            "midi": 61,
            "name": "C#4",
            "ticks": 44928,
            "time": 62.123841000000006,
            "velocity": 0.7874015748031497
          },
          {
            "duration": 0.1327432500000043,
            "durationTicks": 96,
            "midi": 61,
            "name": "C#4",
            "ticks": 44976,
            "time": 62.190212625,
            "velocity": 0.5905511811023622
          },
          {
            "duration": 0.1327432500000043,
            "durationTicks": 96,
            "midi": 49,
            "name": "C#3",
            "ticks": 44976,
            "time": 62.190212625,
            "velocity": 0.5905511811023622
          },
          {
            "duration": 0.1327432499999972,
            "durationTicks": 96,
            "midi": 49,
            "name": "C#3",
            "ticks": 45024,
            "time": 62.25658425,
            "velocity": 0.4881889763779528
          },
          {
            "duration": 0.1327432499999972,
            "durationTicks": 96,
            "midi": 61,
            "name": "C#4",
            "ticks": 45024,
            "time": 62.25658425,
            "velocity": 0.4881889763779528
          },
          {
            "duration": 0.1327432499999972,
            "durationTicks": 96,
            "midi": 61,
            "name": "C#4",
            "ticks": 45072,
            "time": 62.322955875000005,
            "velocity": 0.4330708661417323
          },
          {
            "duration": 0.1327432499999972,
            "durationTicks": 96,
            "midi": 49,
            "name": "C#3",
            "ticks": 45072,
            "time": 62.322955875000005,
            "velocity": 0.4330708661417323
          },
          {
            "duration": 0.2654865000000015,
            "durationTicks": 192,
            "midi": 49,
            "name": "C#3",
            "ticks": 45216,
            "time": 62.522070750000005,
            "velocity": 0.7874015748031497
          },
          {
            "duration": 0.2654865000000015,
            "durationTicks": 192,
            "midi": 61,
            "name": "C#4",
            "ticks": 45216,
            "time": 62.522070750000005,
            "velocity": 0.7874015748031497
          },
          {
            "duration": 0.1327432499999972,
            "durationTicks": 96,
            "midi": 51,
            "name": "D#3",
            "ticks": 45408,
            "time": 62.787557250000006,
            "velocity": 0.7874015748031497
          },
          {
            "duration": 0.1327432499999972,
            "durationTicks": 96,
            "midi": 63,
            "name": "D#4",
            "ticks": 45408,
            "time": 62.787557250000006,
            "velocity": 0.7874015748031497
          },
          {
            "duration": 0.1327432500000043,
            "durationTicks": 96,
            "midi": 51,
            "name": "D#3",
            "ticks": 45456,
            "time": 62.853928875,
            "velocity": 0.5905511811023622
          },
          {
            "duration": 0.1327432500000043,
            "durationTicks": 96,
            "midi": 63,
            "name": "D#4",
            "ticks": 45456,
            "time": 62.853928875,
            "velocity": 0.5905511811023622
          },
          {
            "duration": 0.1327432499999972,
            "durationTicks": 96,
            "midi": 64,
            "name": "E4",
            "ticks": 45504,
            "time": 62.9203005,
            "velocity": 0.7874015748031497
          },
          {
            "duration": 0.1327432499999972,
            "durationTicks": 96,
            "midi": 52,
            "name": "E3",
            "ticks": 45504,
            "time": 62.9203005,
            "velocity": 0.7874015748031497
          },
          {
            "duration": 0.1327432499999972,
            "durationTicks": 96,
            "midi": 52,
            "name": "E3",
            "ticks": 45552,
            "time": 62.986672125000005,
            "velocity": 0.5905511811023622
          },
          {
            "duration": 0.1327432499999972,
            "durationTicks": 96,
            "midi": 64,
            "name": "E4",
            "ticks": 45552,
            "time": 62.986672125000005,
            "velocity": 0.5905511811023622
          },
          {
            "duration": 0.1327432500000043,
            "durationTicks": 96,
            "midi": 71,
            "name": "B4",
            "ticks": 45600,
            "time": 63.05304375,
            "velocity": 0.7874015748031497
          },
          {
            "duration": 0.1327432500000043,
            "durationTicks": 96,
            "midi": 59,
            "name": "B3",
            "ticks": 45600,
            "time": 63.05304375,
            "velocity": 0.7874015748031497
          },
          {
            "duration": 0.1327432499999972,
            "durationTicks": 96,
            "midi": 59,
            "name": "B3",
            "ticks": 45648,
            "time": 63.119415375,
            "velocity": 0.5905511811023622
          },
          {
            "duration": 0.1327432499999972,
            "durationTicks": 96,
            "midi": 71,
            "name": "B4",
            "ticks": 45648,
            "time": 63.119415375,
            "velocity": 0.5905511811023622
          },
          {
            "duration": 0.1327432499999972,
            "durationTicks": 96,
            "midi": 56,
            "name": "G#3",
            "ticks": 45696,
            "time": 63.185787000000005,
            "velocity": 0.7874015748031497
          },
          {
            "duration": 0.1327432499999972,
            "durationTicks": 96,
            "midi": 68,
            "name": "G#4",
            "ticks": 45696,
            "time": 63.185787000000005,
            "velocity": 0.7874015748031497
          },
          {
            "duration": 0.1327432500000043,
            "durationTicks": 96,
            "midi": 68,
            "name": "G#4",
            "ticks": 45744,
            "time": 63.252158625,
            "velocity": 0.5905511811023622
          },
          {
            "duration": 0.1327432500000043,
            "durationTicks": 96,
            "midi": 56,
            "name": "G#3",
            "ticks": 45744,
            "time": 63.252158625,
            "velocity": 0.5905511811023622
          },
          {
            "duration": 0.1327432500000043,
            "durationTicks": 96,
            "midi": 56,
            "name": "G#3",
            "ticks": 45792,
            "time": 63.31853025,
            "velocity": 0.4881889763779528
          },
          {
            "duration": 0.1327432500000043,
            "durationTicks": 96,
            "midi": 68,
            "name": "G#4",
            "ticks": 45792,
            "time": 63.31853025,
            "velocity": 0.4881889763779528
          },
          {
            "duration": 0.1327432499999972,
            "durationTicks": 96,
            "midi": 56,
            "name": "G#3",
            "ticks": 45840,
            "time": 63.384901875000004,
            "velocity": 0.4330708661417323
          },
          {
            "duration": 0.1327432499999972,
            "durationTicks": 96,
            "midi": 68,
            "name": "G#4",
            "ticks": 45840,
            "time": 63.384901875000004,
            "velocity": 0.4330708661417323
          },
          {
            "duration": 0.1327432500000043,
            "durationTicks": 96,
            "midi": 49,
            "name": "C#3",
            "ticks": 46080,
            "time": 63.71676,
            "velocity": 0.7874015748031497
          },
          {
            "duration": 0.1327432500000043,
            "durationTicks": 96,
            "midi": 61,
            "name": "C#4",
            "ticks": 46080,
            "time": 63.71676,
            "velocity": 0.7874015748031497
          },
          {
            "duration": 0.1327432499999972,
            "durationTicks": 96,
            "midi": 61,
            "name": "C#4",
            "ticks": 46128,
            "time": 63.783131625,
            "velocity": 0.5905511811023622
          },
          {
            "duration": 0.1327432499999972,
            "durationTicks": 96,
            "midi": 49,
            "name": "C#3",
            "ticks": 46128,
            "time": 63.783131625,
            "velocity": 0.5905511811023622
          },
          {
            "duration": 0.1327432499999972,
            "durationTicks": 96,
            "midi": 64,
            "name": "E4",
            "ticks": 46176,
            "time": 63.849503250000005,
            "velocity": 0.7874015748031497
          },
          {
            "duration": 0.1327432499999972,
            "durationTicks": 96,
            "midi": 52,
            "name": "E3",
            "ticks": 46176,
            "time": 63.849503250000005,
            "velocity": 0.7874015748031497
          },
          {
            "duration": 0.1327432500000043,
            "durationTicks": 96,
            "midi": 64,
            "name": "E4",
            "ticks": 46224,
            "time": 63.915874875,
            "velocity": 0.5905511811023622
          },
          {
            "duration": 0.1327432500000043,
            "durationTicks": 96,
            "midi": 52,
            "name": "E3",
            "ticks": 46224,
            "time": 63.915874875,
            "velocity": 0.5905511811023622
          },
          {
            "duration": 0.1327432500000043,
            "durationTicks": 96,
            "midi": 63,
            "name": "D#4",
            "ticks": 46272,
            "time": 63.9822465,
            "velocity": 0.7874015748031497
          },
          {
            "duration": 0.1327432500000043,
            "durationTicks": 96,
            "midi": 51,
            "name": "D#3",
            "ticks": 46272,
            "time": 63.9822465,
            "velocity": 0.7874015748031497
          },
          {
            "duration": 0.1327432500000043,
            "durationTicks": 96,
            "midi": 51,
            "name": "D#3",
            "ticks": 46320,
            "time": 64.048618125,
            "velocity": 0.5905511811023622
          },
          {
            "duration": 0.1327432500000043,
            "durationTicks": 96,
            "midi": 63,
            "name": "D#4",
            "ticks": 46320,
            "time": 64.048618125,
            "velocity": 0.5905511811023622
          },
          {
            "duration": 0.1327432499999901,
            "durationTicks": 96,
            "midi": 52,
            "name": "E3",
            "ticks": 46368,
            "time": 64.11498975,
            "velocity": 0.7874015748031497
          },
          {
            "duration": 0.1327432499999901,
            "durationTicks": 96,
            "midi": 64,
            "name": "E4",
            "ticks": 46368,
            "time": 64.11498975,
            "velocity": 0.7874015748031497
          },
          {
            "duration": 0.1327432499999901,
            "durationTicks": 96,
            "midi": 52,
            "name": "E3",
            "ticks": 46416,
            "time": 64.18136137500001,
            "velocity": 0.5905511811023622
          },
          {
            "duration": 0.1327432499999901,
            "durationTicks": 96,
            "midi": 64,
            "name": "E4",
            "ticks": 46416,
            "time": 64.18136137500001,
            "velocity": 0.5905511811023622
          },
          {
            "duration": 0.1327432500000043,
            "durationTicks": 96,
            "midi": 61,
            "name": "C#4",
            "ticks": 46464,
            "time": 64.247733,
            "velocity": 0.7874015748031497
          },
          {
            "duration": 0.1327432500000043,
            "durationTicks": 96,
            "midi": 49,
            "name": "C#3",
            "ticks": 46464,
            "time": 64.247733,
            "velocity": 0.7874015748031497
          },
          {
            "duration": 0.1327432500000043,
            "durationTicks": 96,
            "midi": 61,
            "name": "C#4",
            "ticks": 46512,
            "time": 64.314104625,
            "velocity": 0.5905511811023622
          },
          {
            "duration": 0.1327432500000043,
            "durationTicks": 96,
            "midi": 49,
            "name": "C#3",
            "ticks": 46512,
            "time": 64.314104625,
            "velocity": 0.5905511811023622
          },
          {
            "duration": 0.1327432500000043,
            "durationTicks": 96,
            "midi": 61,
            "name": "C#4",
            "ticks": 46560,
            "time": 64.38047625,
            "velocity": 0.4881889763779528
          },
          {
            "duration": 0.1327432500000043,
            "durationTicks": 96,
            "midi": 49,
            "name": "C#3",
            "ticks": 46560,
            "time": 64.38047625,
            "velocity": 0.4881889763779528
          },
          {
            "duration": 0.1327432500000043,
            "durationTicks": 96,
            "midi": 49,
            "name": "C#3",
            "ticks": 46608,
            "time": 64.446847875,
            "velocity": 0.4330708661417323
          },
          {
            "duration": 0.1327432500000043,
            "durationTicks": 96,
            "midi": 61,
            "name": "C#4",
            "ticks": 46608,
            "time": 64.446847875,
            "velocity": 0.4330708661417323
          },
          {
            "duration": 0.2654864999999944,
            "durationTicks": 192,
            "midi": 49,
            "name": "C#3",
            "ticks": 46752,
            "time": 64.64596275000001,
            "velocity": 0.7874015748031497
          },
          {
            "duration": 0.2654864999999944,
            "durationTicks": 192,
            "midi": 61,
            "name": "C#4",
            "ticks": 46752,
            "time": 64.64596275000001,
            "velocity": 0.7874015748031497
          },
          {
            "duration": 0.1327432500000043,
            "durationTicks": 96,
            "midi": 51,
            "name": "D#3",
            "ticks": 46944,
            "time": 64.91144925,
            "velocity": 0.7874015748031497
          },
          {
            "duration": 0.1327432500000043,
            "durationTicks": 96,
            "midi": 63,
            "name": "D#4",
            "ticks": 46944,
            "time": 64.91144925,
            "velocity": 0.7874015748031497
          },
          {
            "duration": 0.1327432500000043,
            "durationTicks": 96,
            "midi": 51,
            "name": "D#3",
            "ticks": 46992,
            "time": 64.977820875,
            "velocity": 0.5905511811023622
          },
          {
            "duration": 0.1327432500000043,
            "durationTicks": 96,
            "midi": 63,
            "name": "D#4",
            "ticks": 46992,
            "time": 64.977820875,
            "velocity": 0.5905511811023622
          },
          {
            "duration": 0.1327432499999901,
            "durationTicks": 96,
            "midi": 52,
            "name": "E3",
            "ticks": 47040,
            "time": 65.04419250000001,
            "velocity": 0.7874015748031497
          },
          {
            "duration": 0.1327432499999901,
            "durationTicks": 96,
            "midi": 64,
            "name": "E4",
            "ticks": 47040,
            "time": 65.04419250000001,
            "velocity": 0.7874015748031497
          },
          {
            "duration": 0.1327432499999901,
            "durationTicks": 96,
            "midi": 64,
            "name": "E4",
            "ticks": 47088,
            "time": 65.11056412500001,
            "velocity": 0.5905511811023622
          },
          {
            "duration": 0.1327432499999901,
            "durationTicks": 96,
            "midi": 52,
            "name": "E3",
            "ticks": 47088,
            "time": 65.11056412500001,
            "velocity": 0.5905511811023622
          },
          {
            "duration": 0.1327432500000043,
            "durationTicks": 96,
            "midi": 59,
            "name": "B3",
            "ticks": 47136,
            "time": 65.17693575,
            "velocity": 0.7874015748031497
          },
          {
            "duration": 0.1327432500000043,
            "durationTicks": 96,
            "midi": 71,
            "name": "B4",
            "ticks": 47136,
            "time": 65.17693575,
            "velocity": 0.7874015748031497
          },
          {
            "duration": 0.1327432500000043,
            "durationTicks": 96,
            "midi": 71,
            "name": "B4",
            "ticks": 47184,
            "time": 65.243307375,
            "velocity": 0.5905511811023622
          },
          {
            "duration": 0.1327432500000043,
            "durationTicks": 96,
            "midi": 59,
            "name": "B3",
            "ticks": 47184,
            "time": 65.243307375,
            "velocity": 0.5905511811023622
          },
          {
            "duration": 0.1327432500000043,
            "durationTicks": 96,
            "midi": 68,
            "name": "G#4",
            "ticks": 47232,
            "time": 65.309679,
            "velocity": 0.7874015748031497
          },
          {
            "duration": 0.1327432500000043,
            "durationTicks": 96,
            "midi": 56,
            "name": "G#3",
            "ticks": 47232,
            "time": 65.309679,
            "velocity": 0.7874015748031497
          },
          {
            "duration": 0.1327432500000043,
            "durationTicks": 96,
            "midi": 68,
            "name": "G#4",
            "ticks": 47280,
            "time": 65.376050625,
            "velocity": 0.5905511811023622
          },
          {
            "duration": 0.1327432500000043,
            "durationTicks": 96,
            "midi": 56,
            "name": "G#3",
            "ticks": 47280,
            "time": 65.376050625,
            "velocity": 0.5905511811023622
          },
          {
            "duration": 0.1327432499999901,
            "durationTicks": 96,
            "midi": 56,
            "name": "G#3",
            "ticks": 47328,
            "time": 65.44242225,
            "velocity": 0.4881889763779528
          },
          {
            "duration": 0.1327432499999901,
            "durationTicks": 96,
            "midi": 68,
            "name": "G#4",
            "ticks": 47328,
            "time": 65.44242225,
            "velocity": 0.4881889763779528
          },
          {
            "duration": 0.1327432499999901,
            "durationTicks": 96,
            "midi": 56,
            "name": "G#3",
            "ticks": 47376,
            "time": 65.50879387500001,
            "velocity": 0.4330708661417323
          },
          {
            "duration": 0.1327432499999901,
            "durationTicks": 96,
            "midi": 68,
            "name": "G#4",
            "ticks": 47376,
            "time": 65.50879387500001,
            "velocity": 0.4330708661417323
          },
          {
            "duration": 0.1327432500000043,
            "durationTicks": 96,
            "midi": 61,
            "name": "C#4",
            "ticks": 47616,
            "time": 65.840652,
            "velocity": 0.7874015748031497
          },
          {
            "duration": 0.1327432500000043,
            "durationTicks": 96,
            "midi": 49,
            "name": "C#3",
            "ticks": 47616,
            "time": 65.840652,
            "velocity": 0.7874015748031497
          },
          {
            "duration": 0.1327432499999901,
            "durationTicks": 96,
            "midi": 49,
            "name": "C#3",
            "ticks": 47664,
            "time": 65.90702362500001,
            "velocity": 0.5905511811023622
          },
          {
            "duration": 0.1327432499999901,
            "durationTicks": 96,
            "midi": 61,
            "name": "C#4",
            "ticks": 47664,
            "time": 65.90702362500001,
            "velocity": 0.5905511811023622
          },
          {
            "duration": 0.1327432499999901,
            "durationTicks": 96,
            "midi": 52,
            "name": "E3",
            "ticks": 47712,
            "time": 65.97339525000001,
            "velocity": 0.7874015748031497
          },
          {
            "duration": 0.1327432499999901,
            "durationTicks": 96,
            "midi": 64,
            "name": "E4",
            "ticks": 47712,
            "time": 65.97339525000001,
            "velocity": 0.7874015748031497
          },
          {
            "duration": 0.1327432500000043,
            "durationTicks": 96,
            "midi": 52,
            "name": "E3",
            "ticks": 47760,
            "time": 66.039766875,
            "velocity": 0.5905511811023622
          },
          {
            "duration": 0.1327432500000043,
            "durationTicks": 96,
            "midi": 64,
            "name": "E4",
            "ticks": 47760,
            "time": 66.039766875,
            "velocity": 0.5905511811023622
          },
          {
            "duration": 0.1327432500000043,
            "durationTicks": 96,
            "midi": 63,
            "name": "D#4",
            "ticks": 47808,
            "time": 66.1061385,
            "velocity": 0.7874015748031497
          },
          {
            "duration": 0.1327432500000043,
            "durationTicks": 96,
            "midi": 51,
            "name": "D#3",
            "ticks": 47808,
            "time": 66.1061385,
            "velocity": 0.7874015748031497
          },
          {
            "duration": 0.1327432500000043,
            "durationTicks": 96,
            "midi": 51,
            "name": "D#3",
            "ticks": 47856,
            "time": 66.172510125,
            "velocity": 0.5905511811023622
          },
          {
            "duration": 0.1327432500000043,
            "durationTicks": 96,
            "midi": 63,
            "name": "D#4",
            "ticks": 47856,
            "time": 66.172510125,
            "velocity": 0.5905511811023622
          },
          {
            "duration": 0.1327432500000043,
            "durationTicks": 96,
            "midi": 52,
            "name": "E3",
            "ticks": 47904,
            "time": 66.23888175,
            "velocity": 0.7874015748031497
          },
          {
            "duration": 0.1327432500000043,
            "durationTicks": 96,
            "midi": 64,
            "name": "E4",
            "ticks": 47904,
            "time": 66.23888175,
            "velocity": 0.7874015748031497
          },
          {
            "duration": 0.1327432499999901,
            "durationTicks": 96,
            "midi": 64,
            "name": "E4",
            "ticks": 47952,
            "time": 66.305253375,
            "velocity": 0.5905511811023622
          },
          {
            "duration": 0.1327432499999901,
            "durationTicks": 96,
            "midi": 52,
            "name": "E3",
            "ticks": 47952,
            "time": 66.305253375,
            "velocity": 0.5905511811023622
          },
          {
            "duration": 0.1327432499999901,
            "durationTicks": 96,
            "midi": 49,
            "name": "C#3",
            "ticks": 48000,
            "time": 66.37162500000001,
            "velocity": 0.7874015748031497
          },
          {
            "duration": 0.1327432499999901,
            "durationTicks": 96,
            "midi": 61,
            "name": "C#4",
            "ticks": 48000,
            "time": 66.37162500000001,
            "velocity": 0.7874015748031497
          },
          {
            "duration": 0.1327432500000043,
            "durationTicks": 96,
            "midi": 49,
            "name": "C#3",
            "ticks": 48048,
            "time": 66.437996625,
            "velocity": 0.5905511811023622
          },
          {
            "duration": 0.1327432500000043,
            "durationTicks": 96,
            "midi": 61,
            "name": "C#4",
            "ticks": 48048,
            "time": 66.437996625,
            "velocity": 0.5905511811023622
          },
          {
            "duration": 0.1327432500000043,
            "durationTicks": 96,
            "midi": 49,
            "name": "C#3",
            "ticks": 48096,
            "time": 66.50436825,
            "velocity": 0.4881889763779528
          },
          {
            "duration": 0.1327432500000043,
            "durationTicks": 96,
            "midi": 61,
            "name": "C#4",
            "ticks": 48096,
            "time": 66.50436825,
            "velocity": 0.4881889763779528
          },
          {
            "duration": 0.1327432500000043,
            "durationTicks": 96,
            "midi": 49,
            "name": "C#3",
            "ticks": 48144,
            "time": 66.570739875,
            "velocity": 0.4330708661417323
          },
          {
            "duration": 0.1327432500000043,
            "durationTicks": 96,
            "midi": 61,
            "name": "C#4",
            "ticks": 48144,
            "time": 66.570739875,
            "velocity": 0.4330708661417323
          },
          {
            "duration": 0.2654864999999944,
            "durationTicks": 192,
            "midi": 49,
            "name": "C#3",
            "ticks": 48288,
            "time": 66.76985475000001,
            "velocity": 0.7874015748031497
          },
          {
            "duration": 0.2654864999999944,
            "durationTicks": 192,
            "midi": 61,
            "name": "C#4",
            "ticks": 48288,
            "time": 66.76985475000001,
            "velocity": 0.7874015748031497
          },
          {
            "duration": 0.1327432500000043,
            "durationTicks": 96,
            "midi": 51,
            "name": "D#3",
            "ticks": 48480,
            "time": 67.03534125,
            "velocity": 0.7874015748031497
          },
          {
            "duration": 0.1327432500000043,
            "durationTicks": 96,
            "midi": 63,
            "name": "D#4",
            "ticks": 48480,
            "time": 67.03534125,
            "velocity": 0.7874015748031497
          },
          {
            "duration": 0.1327432500000043,
            "durationTicks": 96,
            "midi": 51,
            "name": "D#3",
            "ticks": 48528,
            "time": 67.101712875,
            "velocity": 0.5905511811023622
          },
          {
            "duration": 0.1327432500000043,
            "durationTicks": 96,
            "midi": 63,
            "name": "D#4",
            "ticks": 48528,
            "time": 67.101712875,
            "velocity": 0.5905511811023622
          },
          {
            "duration": 0.1327432500000043,
            "durationTicks": 96,
            "midi": 52,
            "name": "E3",
            "ticks": 48576,
            "time": 67.1680845,
            "velocity": 0.7874015748031497
          },
          {
            "duration": 0.1327432500000043,
            "durationTicks": 96,
            "midi": 64,
            "name": "E4",
            "ticks": 48576,
            "time": 67.1680845,
            "velocity": 0.7874015748031497
          },
          {
            "duration": 0.1327432499999901,
            "durationTicks": 96,
            "midi": 52,
            "name": "E3",
            "ticks": 48624,
            "time": 67.23445612500001,
            "velocity": 0.5905511811023622
          },
          {
            "duration": 0.1327432499999901,
            "durationTicks": 96,
            "midi": 64,
            "name": "E4",
            "ticks": 48624,
            "time": 67.23445612500001,
            "velocity": 0.5905511811023622
          },
          {
            "duration": 0.1327432499999901,
            "durationTicks": 96,
            "midi": 59,
            "name": "B3",
            "ticks": 48672,
            "time": 67.30082775000001,
            "velocity": 0.7874015748031497
          },
          {
            "duration": 0.1327432499999901,
            "durationTicks": 96,
            "midi": 71,
            "name": "B4",
            "ticks": 48672,
            "time": 67.30082775000001,
            "velocity": 0.7874015748031497
          },
          {
            "duration": 0.1327432500000043,
            "durationTicks": 96,
            "midi": 71,
            "name": "B4",
            "ticks": 48720,
            "time": 67.367199375,
            "velocity": 0.5905511811023622
          },
          {
            "duration": 0.1327432500000043,
            "durationTicks": 96,
            "midi": 59,
            "name": "B3",
            "ticks": 48720,
            "time": 67.367199375,
            "velocity": 0.5905511811023622
          },
          {
            "duration": 0.1327432500000043,
            "durationTicks": 96,
            "midi": 68,
            "name": "G#4",
            "ticks": 48768,
            "time": 67.433571,
            "velocity": 0.7874015748031497
          },
          {
            "duration": 0.1327432500000043,
            "durationTicks": 96,
            "midi": 56,
            "name": "G#3",
            "ticks": 48768,
            "time": 67.433571,
            "velocity": 0.7874015748031497
          },
          {
            "duration": 0.1327432500000043,
            "durationTicks": 96,
            "midi": 56,
            "name": "G#3",
            "ticks": 48816,
            "time": 67.499942625,
            "velocity": 0.5905511811023622
          },
          {
            "duration": 0.1327432500000043,
            "durationTicks": 96,
            "midi": 68,
            "name": "G#4",
            "ticks": 48816,
            "time": 67.499942625,
            "velocity": 0.5905511811023622
          },
          {
            "duration": 0.1327432500000043,
            "durationTicks": 96,
            "midi": 56,
            "name": "G#3",
            "ticks": 48864,
            "time": 67.56631425,
            "velocity": 0.4881889763779528
          },
          {
            "duration": 0.1327432500000043,
            "durationTicks": 96,
            "midi": 68,
            "name": "G#4",
            "ticks": 48864,
            "time": 67.56631425,
            "velocity": 0.4881889763779528
          },
          {
            "duration": 0.1327432499999901,
            "durationTicks": 96,
            "midi": 68,
            "name": "G#4",
            "ticks": 48912,
            "time": 67.632685875,
            "velocity": 0.4330708661417323
          },
          {
            "duration": 0.1327432499999901,
            "durationTicks": 96,
            "midi": 56,
            "name": "G#3",
            "ticks": 48912,
            "time": 67.632685875,
            "velocity": 0.4330708661417323
          },
          {
            "duration": 0.3982297499999987,
            "durationTicks": 288,
            "midi": 59,
            "name": "B3",
            "ticks": 49152,
            "time": 67.964544,
            "velocity": 0.7874015748031497
          },
          {
            "duration": 0.3982297499999987,
            "durationTicks": 288,
            "midi": 47,
            "name": "B2",
            "ticks": 49152,
            "time": 67.964544,
            "velocity": 0.7874015748031497
          },
          {
            "duration": 0.3982297499999987,
            "durationTicks": 288,
            "midi": 54,
            "name": "F#3",
            "ticks": 49440,
            "time": 68.36277375,
            "velocity": 0.7874015748031497
          },
          {
            "duration": 0.3982297499999987,
            "durationTicks": 288,
            "midi": 66,
            "name": "F#4",
            "ticks": 49440,
            "time": 68.36277375,
            "velocity": 0.7874015748031497
          },
          {
            "duration": 0.1327432500000043,
            "durationTicks": 96,
            "midi": 64,
            "name": "E4",
            "ticks": 49728,
            "time": 68.7610035,
            "velocity": 0.7874015748031497
          },
          {
            "duration": 0.1327432500000043,
            "durationTicks": 96,
            "midi": 52,
            "name": "E3",
            "ticks": 49728,
            "time": 68.7610035,
            "velocity": 0.7874015748031497
          },
          {
            "duration": 0.1327432500000043,
            "durationTicks": 96,
            "midi": 52,
            "name": "E3",
            "ticks": 49824,
            "time": 68.89374675,
            "velocity": 0.5905511811023622
          },
          {
            "duration": 0.1327432500000043,
            "durationTicks": 96,
            "midi": 64,
            "name": "E4",
            "ticks": 49824,
            "time": 68.89374675,
            "velocity": 0.5905511811023622
          },
          {
            "duration": 0.1327432499999901,
            "durationTicks": 96,
            "midi": 63,
            "name": "D#4",
            "ticks": 49872,
            "time": 68.96011837500001,
            "velocity": 0.7874015748031497
          },
          {
            "duration": 0.1327432499999901,
            "durationTicks": 96,
            "midi": 51,
            "name": "D#3",
            "ticks": 49872,
            "time": 68.96011837500001,
            "velocity": 0.7874015748031497
          },
          {
            "duration": 0.1327432499999901,
            "durationTicks": 96,
            "midi": 63,
            "name": "D#4",
            "ticks": 49920,
            "time": 69.02649000000001,
            "velocity": 0.7874015748031497
          },
          {
            "duration": 0.1327432499999901,
            "durationTicks": 96,
            "midi": 51,
            "name": "D#3",
            "ticks": 49920,
            "time": 69.02649000000001,
            "velocity": 0.7874015748031497
          },
          {
            "duration": 0.1327432500000043,
            "durationTicks": 96,
            "midi": 61,
            "name": "C#4",
            "ticks": 50016,
            "time": 69.15923325,
            "velocity": 0.7874015748031497
          },
          {
            "duration": 0.1327432500000043,
            "durationTicks": 96,
            "midi": 49,
            "name": "C#3",
            "ticks": 50016,
            "time": 69.15923325,
            "velocity": 0.7874015748031497
          },
          {
            "duration": 0.1327432500000043,
            "durationTicks": 96,
            "midi": 49,
            "name": "C#3",
            "ticks": 50112,
            "time": 69.2919765,
            "velocity": 0.5905511811023622
          },
          {
            "duration": 0.1327432500000043,
            "durationTicks": 96,
            "midi": 61,
            "name": "C#4",
            "ticks": 50112,
            "time": 69.2919765,
            "velocity": 0.5905511811023622
          },
          {
            "duration": 0.2654864999999944,
            "durationTicks": 192,
            "midi": 59,
            "name": "B3",
            "ticks": 50208,
            "time": 69.42471975000001,
            "velocity": 0.7874015748031497
          },
          {
            "duration": 0.2654864999999944,
            "durationTicks": 192,
            "midi": 47,
            "name": "B2",
            "ticks": 50208,
            "time": 69.42471975000001,
            "velocity": 0.7874015748031497
          },
          {
            "duration": 0.1327432500000043,
            "durationTicks": 96,
            "midi": 49,
            "name": "C#3",
            "ticks": 50400,
            "time": 69.69020625,
            "velocity": 0.7874015748031497
          },
          {
            "duration": 0.1327432500000043,
            "durationTicks": 96,
            "midi": 61,
            "name": "C#4",
            "ticks": 50400,
            "time": 69.69020625,
            "velocity": 0.7874015748031497
          },
          {
            "duration": 0.1327432500000043,
            "durationTicks": 96,
            "midi": 63,
            "name": "D#4",
            "ticks": 50448,
            "time": 69.756577875,
            "velocity": 0.7874015748031497
          },
          {
            "duration": 0.1327432500000043,
            "durationTicks": 96,
            "midi": 51,
            "name": "D#3",
            "ticks": 50448,
            "time": 69.756577875,
            "velocity": 0.7874015748031497
          },
          {
            "duration": 0.2654864999999944,
            "durationTicks": 192,
            "midi": 51,
            "name": "D#3",
            "ticks": 50496,
            "time": 69.82294950000001,
            "velocity": 0.7874015748031497
          },
          {
            "duration": 0.2654864999999944,
            "durationTicks": 192,
            "midi": 63,
            "name": "D#4",
            "ticks": 50496,
            "time": 69.82294950000001,
            "velocity": 0.7874015748031497
          },
          {
            "duration": 0.1327432500000043,
            "durationTicks": 96,
            "midi": 52,
            "name": "E3",
            "ticks": 50688,
            "time": 70.088436,
            "velocity": 0.7874015748031497
          },
          {
            "duration": 0.1327432500000043,
            "durationTicks": 96,
            "midi": 61,
            "name": "C#4",
            "ticks": 50688,
            "time": 70.088436,
            "velocity": 0.7874015748031497
          },
          {
            "duration": 0.1327432500000043,
            "durationTicks": 96,
            "midi": 61,
            "name": "C#4",
            "ticks": 50736,
            "time": 70.154807625,
            "velocity": 0.5905511811023622
          },
          {
            "duration": 0.1327432500000043,
            "durationTicks": 96,
            "midi": 52,
            "name": "E3",
            "ticks": 50736,
            "time": 70.154807625,
            "velocity": 0.5905511811023622
          },
          {
            "duration": 0.1327432500000043,
            "durationTicks": 96,
            "midi": 64,
            "name": "E4",
            "ticks": 50784,
            "time": 70.22117925,
            "velocity": 0.7874015748031497
          },
          {
            "duration": 0.1327432500000043,
            "durationTicks": 96,
            "midi": 56,
            "name": "G#3",
            "ticks": 50784,
            "time": 70.22117925,
            "velocity": 0.7874015748031497
          },
          {
            "duration": 0.1327432499999901,
            "durationTicks": 96,
            "midi": 56,
            "name": "G#3",
            "ticks": 50832,
            "time": 70.28755087500001,
            "velocity": 0.5905511811023622
          },
          {
            "duration": 0.1327432499999901,
            "durationTicks": 96,
            "midi": 64,
            "name": "E4",
            "ticks": 50832,
            "time": 70.28755087500001,
            "velocity": 0.5905511811023622
          },
          {
            "duration": 0.1327432499999901,
            "durationTicks": 96,
            "midi": 54,
            "name": "F#3",
            "ticks": 50880,
            "time": 70.35392250000001,
            "velocity": 0.7874015748031497
          },
          {
            "duration": 0.1327432499999901,
            "durationTicks": 96,
            "midi": 63,
            "name": "D#4",
            "ticks": 50880,
            "time": 70.35392250000001,
            "velocity": 0.7874015748031497
          },
          {
            "duration": 0.1327432500000043,
            "durationTicks": 96,
            "midi": 63,
            "name": "D#4",
            "ticks": 50928,
            "time": 70.420294125,
            "velocity": 0.5905511811023622
          },
          {
            "duration": 0.1327432500000043,
            "durationTicks": 96,
            "midi": 54,
            "name": "F#3",
            "ticks": 50928,
            "time": 70.420294125,
            "velocity": 0.5905511811023622
          },
          {
            "duration": 0.1327432500000043,
            "durationTicks": 96,
            "midi": 64,
            "name": "E4",
            "ticks": 50976,
            "time": 70.48666575,
            "velocity": 0.7874015748031497
          },
          {
            "duration": 0.1327432500000043,
            "durationTicks": 96,
            "midi": 56,
            "name": "G#3",
            "ticks": 50976,
            "time": 70.48666575,
            "velocity": 0.7874015748031497
          },
          {
            "duration": 0.1327432500000043,
            "durationTicks": 96,
            "midi": 56,
            "name": "G#3",
            "ticks": 51024,
            "time": 70.553037375,
            "velocity": 0.5905511811023622
          },
          {
            "duration": 0.1327432500000043,
            "durationTicks": 96,
            "midi": 64,
            "name": "E4",
            "ticks": 51024,
            "time": 70.553037375,
            "velocity": 0.5905511811023622
          },
          {
            "duration": 0.1327432500000043,
            "durationTicks": 96,
            "midi": 61,
            "name": "C#4",
            "ticks": 51072,
            "time": 70.619409,
            "velocity": 0.7874015748031497
          },
          {
            "duration": 0.1327432500000043,
            "durationTicks": 96,
            "midi": 52,
            "name": "E3",
            "ticks": 51072,
            "time": 70.619409,
            "velocity": 0.7874015748031497
          },
          {
            "duration": 0.1327432499999901,
            "durationTicks": 96,
            "midi": 61,
            "name": "C#4",
            "ticks": 51120,
            "time": 70.685780625,
            "velocity": 0.5905511811023622
          },
          {
            "duration": 0.1327432499999901,
            "durationTicks": 96,
            "midi": 52,
            "name": "E3",
            "ticks": 51120,
            "time": 70.685780625,
            "velocity": 0.5905511811023622
          },
          {
            "duration": 0.1327432499999901,
            "durationTicks": 96,
            "midi": 61,
            "name": "C#4",
            "ticks": 51168,
            "time": 70.75215225000001,
            "velocity": 0.4881889763779528
          },
          {
            "duration": 0.1327432499999901,
            "durationTicks": 96,
            "midi": 52,
            "name": "E3",
            "ticks": 51168,
            "time": 70.75215225000001,
            "velocity": 0.4881889763779528
          },
          {
            "duration": 0.1327432500000043,
            "durationTicks": 96,
            "midi": 61,
            "name": "C#4",
            "ticks": 51216,
            "time": 70.818523875,
            "velocity": 0.4330708661417323
          },
          {
            "duration": 0.1327432500000043,
            "durationTicks": 96,
            "midi": 52,
            "name": "E3",
            "ticks": 51216,
            "time": 70.818523875,
            "velocity": 0.4330708661417323
          },
          {
            "duration": 0.2654864999999944,
            "durationTicks": 192,
            "midi": 61,
            "name": "C#4",
            "ticks": 51360,
            "time": 71.01763875,
            "velocity": 0.7874015748031497
          },
          {
            "duration": 0.2654864999999944,
            "durationTicks": 192,
            "midi": 52,
            "name": "E3",
            "ticks": 51360,
            "time": 71.01763875,
            "velocity": 0.7874015748031497
          },
          {
            "duration": 0.1327432500000043,
            "durationTicks": 96,
            "midi": 63,
            "name": "D#4",
            "ticks": 51552,
            "time": 71.28312525,
            "velocity": 0.7874015748031497
          },
          {
            "duration": 0.1327432500000043,
            "durationTicks": 96,
            "midi": 54,
            "name": "F#3",
            "ticks": 51552,
            "time": 71.28312525,
            "velocity": 0.7874015748031497
          },
          {
            "duration": 0.1327432500000043,
            "durationTicks": 96,
            "midi": 63,
            "name": "D#4",
            "ticks": 51600,
            "time": 71.349496875,
            "velocity": 0.5905511811023622
          },
          {
            "duration": 0.1327432500000043,
            "durationTicks": 96,
            "midi": 54,
            "name": "F#3",
            "ticks": 51600,
            "time": 71.349496875,
            "velocity": 0.5905511811023622
          },
          {
            "duration": 0.1327432500000043,
            "durationTicks": 96,
            "midi": 64,
            "name": "E4",
            "ticks": 51648,
            "time": 71.4158685,
            "velocity": 0.7874015748031497
          },
          {
            "duration": 0.1327432500000043,
            "durationTicks": 96,
            "midi": 56,
            "name": "G#3",
            "ticks": 51648,
            "time": 71.4158685,
            "velocity": 0.7874015748031497
          },
          {
            "duration": 0.1327432500000043,
            "durationTicks": 96,
            "midi": 56,
            "name": "G#3",
            "ticks": 51696,
            "time": 71.482240125,
            "velocity": 0.5905511811023622
          },
          {
            "duration": 0.1327432500000043,
            "durationTicks": 96,
            "midi": 64,
            "name": "E4",
            "ticks": 51696,
            "time": 71.482240125,
            "velocity": 0.5905511811023622
          },
          {
            "duration": 0.1327432500000043,
            "durationTicks": 96,
            "midi": 64,
            "name": "E4",
            "ticks": 51744,
            "time": 71.54861175,
            "velocity": 0.7874015748031497
          },
          {
            "duration": 0.1327432500000043,
            "durationTicks": 96,
            "midi": 71,
            "name": "B4",
            "ticks": 51744,
            "time": 71.54861175,
            "velocity": 0.7874015748031497
          },
          {
            "duration": 0.1327432499999901,
            "durationTicks": 96,
            "midi": 71,
            "name": "B4",
            "ticks": 51792,
            "time": 71.61498337500001,
            "velocity": 0.5905511811023622
          },
          {
            "duration": 0.1327432499999901,
            "durationTicks": 96,
            "midi": 64,
            "name": "E4",
            "ticks": 51792,
            "time": 71.61498337500001,
            "velocity": 0.5905511811023622
          },
          {
            "duration": 0.1327432499999901,
            "durationTicks": 96,
            "midi": 68,
            "name": "G#4",
            "ticks": 51840,
            "time": 71.68135500000001,
            "velocity": 0.7874015748031497
          },
          {
            "duration": 0.1327432499999901,
            "durationTicks": 96,
            "midi": 61,
            "name": "C#4",
            "ticks": 51840,
            "time": 71.68135500000001,
            "velocity": 0.7874015748031497
          },
          {
            "duration": 0.1327432500000043,
            "durationTicks": 96,
            "midi": 68,
            "name": "G#4",
            "ticks": 51888,
            "time": 71.747726625,
            "velocity": 0.5905511811023622
          },
          {
            "duration": 0.1327432500000043,
            "durationTicks": 96,
            "midi": 61,
            "name": "C#4",
            "ticks": 51888,
            "time": 71.747726625,
            "velocity": 0.5905511811023622
          },
          {
            "duration": 0.1327432500000043,
            "durationTicks": 96,
            "midi": 61,
            "name": "C#4",
            "ticks": 51936,
            "time": 71.81409825,
            "velocity": 0.4881889763779528
          },
          {
            "duration": 0.1327432500000043,
            "durationTicks": 96,
            "midi": 68,
            "name": "G#4",
            "ticks": 51936,
            "time": 71.81409825,
            "velocity": 0.4881889763779528
          },
          {
            "duration": 0.1327432500000043,
            "durationTicks": 96,
            "midi": 61,
            "name": "C#4",
            "ticks": 51984,
            "time": 71.880469875,
            "velocity": 0.4330708661417323
          },
          {
            "duration": 0.1327432500000043,
            "durationTicks": 96,
            "midi": 68,
            "name": "G#4",
            "ticks": 51984,
            "time": 71.880469875,
            "velocity": 0.4330708661417323
          },
          {
            "duration": 0.1327432500000043,
            "durationTicks": 96,
            "midi": 52,
            "name": "E3",
            "ticks": 52224,
            "time": 72.212328,
            "velocity": 0.7874015748031497
          },
          {
            "duration": 0.1327432500000043,
            "durationTicks": 96,
            "midi": 61,
            "name": "C#4",
            "ticks": 52224,
            "time": 72.212328,
            "velocity": 0.7874015748031497
          },
          {
            "duration": 0.1327432500000043,
            "durationTicks": 96,
            "midi": 52,
            "name": "E3",
            "ticks": 52272,
            "time": 72.278699625,
            "velocity": 0.5905511811023622
          },
          {
            "duration": 0.1327432500000043,
            "durationTicks": 96,
            "midi": 61,
            "name": "C#4",
            "ticks": 52272,
            "time": 72.278699625,
            "velocity": 0.5905511811023622
          },
          {
            "duration": 0.1327432500000043,
            "durationTicks": 96,
            "midi": 56,
            "name": "G#3",
            "ticks": 52320,
            "time": 72.34507125,
            "velocity": 0.7874015748031497
          },
          {
            "duration": 0.1327432500000043,
            "durationTicks": 96,
            "midi": 64,
            "name": "E4",
            "ticks": 52320,
            "time": 72.34507125,
            "velocity": 0.7874015748031497
          },
          {
            "duration": 0.1327432500000043,
            "durationTicks": 96,
            "midi": 56,
            "name": "G#3",
            "ticks": 52368,
            "time": 72.411442875,
            "velocity": 0.5905511811023622
          },
          {
            "duration": 0.1327432500000043,
            "durationTicks": 96,
            "midi": 64,
            "name": "E4",
            "ticks": 52368,
            "time": 72.411442875,
            "velocity": 0.5905511811023622
          },
          {
            "duration": 0.1327432499999901,
            "durationTicks": 96,
            "midi": 63,
            "name": "D#4",
            "ticks": 52416,
            "time": 72.47781450000001,
            "velocity": 0.7874015748031497
          },
          {
            "duration": 0.1327432499999901,
            "durationTicks": 96,
            "midi": 54,
            "name": "F#3",
            "ticks": 52416,
            "time": 72.47781450000001,
            "velocity": 0.7874015748031497
          },
          {
            "duration": 0.1327432499999901,
            "durationTicks": 96,
            "midi": 54,
            "name": "F#3",
            "ticks": 52464,
            "time": 72.54418612500001,
            "velocity": 0.5905511811023622
          },
          {
            "duration": 0.1327432499999901,
            "durationTicks": 96,
            "midi": 63,
            "name": "D#4",
            "ticks": 52464,
            "time": 72.54418612500001,
            "velocity": 0.5905511811023622
          },
          {
            "duration": 0.1327432500000043,
            "durationTicks": 96,
            "midi": 64,
            "name": "E4",
            "ticks": 52512,
            "time": 72.61055775,
            "velocity": 0.7874015748031497
          },
          {
            "duration": 0.1327432500000043,
            "durationTicks": 96,
            "midi": 56,
            "name": "G#3",
            "ticks": 52512,
            "time": 72.61055775,
            "velocity": 0.7874015748031497
          },
          {
            "duration": 0.1327432500000043,
            "durationTicks": 96,
            "midi": 64,
            "name": "E4",
            "ticks": 52560,
            "time": 72.676929375,
            "velocity": 0.5905511811023622
          },
          {
            "duration": 0.1327432500000043,
            "durationTicks": 96,
            "midi": 56,
            "name": "G#3",
            "ticks": 52560,
            "time": 72.676929375,
            "velocity": 0.5905511811023622
          },
          {
            "duration": 0.1327432500000043,
            "durationTicks": 96,
            "midi": 61,
            "name": "C#4",
            "ticks": 52608,
            "time": 72.743301,
            "velocity": 0.7874015748031497
          },
          {
            "duration": 0.1327432500000043,
            "durationTicks": 96,
            "midi": 52,
            "name": "E3",
            "ticks": 52608,
            "time": 72.743301,
            "velocity": 0.7874015748031497
          },
          {
            "duration": 0.1327432500000043,
            "durationTicks": 96,
            "midi": 61,
            "name": "C#4",
            "ticks": 52656,
            "time": 72.809672625,
            "velocity": 0.5905511811023622
          },
          {
            "duration": 0.1327432500000043,
            "durationTicks": 96,
            "midi": 52,
            "name": "E3",
            "ticks": 52656,
            "time": 72.809672625,
            "velocity": 0.5905511811023622
          },
          {
            "duration": 0.1327432499999901,
            "durationTicks": 96,
            "midi": 61,
            "name": "C#4",
            "ticks": 52704,
            "time": 72.87604425,
            "velocity": 0.4881889763779528
          },
          {
            "duration": 0.1327432499999901,
            "durationTicks": 96,
            "midi": 52,
            "name": "E3",
            "ticks": 52704,
            "time": 72.87604425,
            "velocity": 0.4881889763779528
          },
          {
            "duration": 0.1327432499999901,
            "durationTicks": 96,
            "midi": 61,
            "name": "C#4",
            "ticks": 52752,
            "time": 72.94241587500001,
            "velocity": 0.4330708661417323
          },
          {
            "duration": 0.1327432499999901,
            "durationTicks": 96,
            "midi": 52,
            "name": "E3",
            "ticks": 52752,
            "time": 72.94241587500001,
            "velocity": 0.4330708661417323
          },
          {
            "duration": 0.2654865000000086,
            "durationTicks": 192,
            "midi": 61,
            "name": "C#4",
            "ticks": 52896,
            "time": 73.14153075,
            "velocity": 0.7874015748031497
          },
          {
            "duration": 0.2654865000000086,
            "durationTicks": 192,
            "midi": 52,
            "name": "E3",
            "ticks": 52896,
            "time": 73.14153075,
            "velocity": 0.7874015748031497
          },
          {
            "duration": 0.1327432499999901,
            "durationTicks": 96,
            "midi": 63,
            "name": "D#4",
            "ticks": 53088,
            "time": 73.40701725000001,
            "velocity": 0.7874015748031497
          },
          {
            "duration": 0.1327432499999901,
            "durationTicks": 96,
            "midi": 54,
            "name": "F#3",
            "ticks": 53088,
            "time": 73.40701725000001,
            "velocity": 0.7874015748031497
          },
          {
            "duration": 0.1327432500000043,
            "durationTicks": 96,
            "midi": 63,
            "name": "D#4",
            "ticks": 53136,
            "time": 73.473388875,
            "velocity": 0.5905511811023622
          },
          {
            "duration": 0.1327432500000043,
            "durationTicks": 96,
            "midi": 54,
            "name": "F#3",
            "ticks": 53136,
            "time": 73.473388875,
            "velocity": 0.5905511811023622
          },
          {
            "duration": 0.1327432500000043,
            "durationTicks": 96,
            "midi": 56,
            "name": "G#3",
            "ticks": 53184,
            "time": 73.5397605,
            "velocity": 0.7874015748031497
          },
          {
            "duration": 0.1327432500000043,
            "durationTicks": 96,
            "midi": 64,
            "name": "E4",
            "ticks": 53184,
            "time": 73.5397605,
            "velocity": 0.7874015748031497
          },
          {
            "duration": 0.1327432500000043,
            "durationTicks": 96,
            "midi": 64,
            "name": "E4",
            "ticks": 53232,
            "time": 73.606132125,
            "velocity": 0.5905511811023622
          },
          {
            "duration": 0.1327432500000043,
            "durationTicks": 96,
            "midi": 56,
            "name": "G#3",
            "ticks": 53232,
            "time": 73.606132125,
            "velocity": 0.5905511811023622
          },
          {
            "duration": 0.1327432500000043,
            "durationTicks": 96,
            "midi": 71,
            "name": "B4",
            "ticks": 53280,
            "time": 73.67250375,
            "velocity": 0.7874015748031497
          },
          {
            "duration": 0.1327432500000043,
            "durationTicks": 96,
            "midi": 64,
            "name": "E4",
            "ticks": 53280,
            "time": 73.67250375,
            "velocity": 0.7874015748031497
          },
          {
            "duration": 0.1327432500000043,
            "durationTicks": 96,
            "midi": 71,
            "name": "B4",
            "ticks": 53328,
            "time": 73.738875375,
            "velocity": 0.5905511811023622
          },
          {
            "duration": 0.1327432500000043,
            "durationTicks": 96,
            "midi": 64,
            "name": "E4",
            "ticks": 53328,
            "time": 73.738875375,
            "velocity": 0.5905511811023622
          },
          {
            "duration": 0.1327432499999901,
            "durationTicks": 96,
            "midi": 68,
            "name": "G#4",
            "ticks": 53376,
            "time": 73.80524700000001,
            "velocity": 0.7874015748031497
          },
          {
            "duration": 0.1327432499999901,
            "durationTicks": 96,
            "midi": 61,
            "name": "C#4",
            "ticks": 53376,
            "time": 73.80524700000001,
            "velocity": 0.7874015748031497
          },
          {
            "duration": 0.1327432499999901,
            "durationTicks": 96,
            "midi": 68,
            "name": "G#4",
            "ticks": 53424,
            "time": 73.87161862500001,
            "velocity": 0.5905511811023622
          },
          {
            "duration": 0.1327432499999901,
            "durationTicks": 96,
            "midi": 61,
            "name": "C#4",
            "ticks": 53424,
            "time": 73.87161862500001,
            "velocity": 0.5905511811023622
          },
          {
            "duration": 0.1327432500000043,
            "durationTicks": 96,
            "midi": 68,
            "name": "G#4",
            "ticks": 53472,
            "time": 73.93799025,
            "velocity": 0.4881889763779528
          },
          {
            "duration": 0.1327432500000043,
            "durationTicks": 96,
            "midi": 61,
            "name": "C#4",
            "ticks": 53472,
            "time": 73.93799025,
            "velocity": 0.4881889763779528
          },
          {
            "duration": 0.1327432500000043,
            "durationTicks": 96,
            "midi": 68,
            "name": "G#4",
            "ticks": 53520,
            "time": 74.004361875,
            "velocity": 0.4330708661417323
          },
          {
            "duration": 0.1327432500000043,
            "durationTicks": 96,
            "midi": 61,
            "name": "C#4",
            "ticks": 53520,
            "time": 74.004361875,
            "velocity": 0.4330708661417323
          },
          {
            "duration": 0.1327432500000043,
            "durationTicks": 96,
            "midi": 61,
            "name": "C#4",
            "ticks": 53760,
            "time": 74.33622,
            "velocity": 0.7874015748031497
          },
          {
            "duration": 0.1327432500000043,
            "durationTicks": 96,
            "midi": 52,
            "name": "E3",
            "ticks": 53760,
            "time": 74.33622,
            "velocity": 0.7874015748031497
          },
          {
            "duration": 0.1327432500000043,
            "durationTicks": 96,
            "midi": 52,
            "name": "E3",
            "ticks": 53808,
            "time": 74.402591625,
            "velocity": 0.5905511811023622
          },
          {
            "duration": 0.1327432500000043,
            "durationTicks": 96,
            "midi": 61,
            "name": "C#4",
            "ticks": 53808,
            "time": 74.402591625,
            "velocity": 0.5905511811023622
          },
          {
            "duration": 0.1327432500000043,
            "durationTicks": 96,
            "midi": 56,
            "name": "G#3",
            "ticks": 53856,
            "time": 74.46896325,
            "velocity": 0.7874015748031497
          },
          {
            "duration": 0.1327432500000043,
            "durationTicks": 96,
            "midi": 64,
            "name": "E4",
            "ticks": 53856,
            "time": 74.46896325,
            "velocity": 0.7874015748031497
          },
          {
            "duration": 0.1327432500000043,
            "durationTicks": 96,
            "midi": 64,
            "name": "E4",
            "ticks": 53904,
            "time": 74.535334875,
            "velocity": 0.5905511811023622
          },
          {
            "duration": 0.1327432500000043,
            "durationTicks": 96,
            "midi": 56,
            "name": "G#3",
            "ticks": 53904,
            "time": 74.535334875,
            "velocity": 0.5905511811023622
          },
          {
            "duration": 0.1327432500000043,
            "durationTicks": 96,
            "midi": 63,
            "name": "D#4",
            "ticks": 53952,
            "time": 74.6017065,
            "velocity": 0.7874015748031497
          },
          {
            "duration": 0.1327432500000043,
            "durationTicks": 96,
            "midi": 54,
            "name": "F#3",
            "ticks": 53952,
            "time": 74.6017065,
            "velocity": 0.7874015748031497
          },
          {
            "duration": 0.1327432499999901,
            "durationTicks": 96,
            "midi": 54,
            "name": "F#3",
            "ticks": 54000,
            "time": 74.66807812500001,
            "velocity": 0.5905511811023622
          },
          {
            "duration": 0.1327432499999901,
            "durationTicks": 96,
            "midi": 63,
            "name": "D#4",
            "ticks": 54000,
            "time": 74.66807812500001,
            "velocity": 0.5905511811023622
          },
          {
            "duration": 0.1327432499999901,
            "durationTicks": 96,
            "midi": 64,
            "name": "E4",
            "ticks": 54048,
            "time": 74.73444975000001,
            "velocity": 0.7874015748031497
          },
          {
            "duration": 0.1327432499999901,
            "durationTicks": 96,
            "midi": 56,
            "name": "G#3",
            "ticks": 54048,
            "time": 74.73444975000001,
            "velocity": 0.7874015748031497
          },
          {
            "duration": 0.1327432500000043,
            "durationTicks": 96,
            "midi": 56,
            "name": "G#3",
            "ticks": 54096,
            "time": 74.800821375,
            "velocity": 0.5905511811023622
          },
          {
            "duration": 0.1327432500000043,
            "durationTicks": 96,
            "midi": 64,
            "name": "E4",
            "ticks": 54096,
            "time": 74.800821375,
            "velocity": 0.5905511811023622
          },
          {
            "duration": 0.1327432500000043,
            "durationTicks": 96,
            "midi": 52,
            "name": "E3",
            "ticks": 54144,
            "time": 74.867193,
            "velocity": 0.7874015748031497
          },
          {
            "duration": 0.1327432500000043,
            "durationTicks": 96,
            "midi": 61,
            "name": "C#4",
            "ticks": 54144,
            "time": 74.867193,
            "velocity": 0.7874015748031497
          },
          {
            "duration": 0.1327432500000043,
            "durationTicks": 96,
            "midi": 61,
            "name": "C#4",
            "ticks": 54192,
            "time": 74.933564625,
            "velocity": 0.5905511811023622
          },
          {
            "duration": 0.1327432500000043,
            "durationTicks": 96,
            "midi": 52,
            "name": "E3",
            "ticks": 54192,
            "time": 74.933564625,
            "velocity": 0.5905511811023622
          },
          {
            "duration": 0.1327432500000043,
            "durationTicks": 96,
            "midi": 52,
            "name": "E3",
            "ticks": 54240,
            "time": 74.99993625,
            "velocity": 0.4881889763779528
          },
          {
            "duration": 0.1327432500000043,
            "durationTicks": 96,
            "midi": 61,
            "name": "C#4",
            "ticks": 54240,
            "time": 74.99993625,
            "velocity": 0.4881889763779528
          },
          {
            "duration": 0.1327432500000043,
            "durationTicks": 96,
            "midi": 52,
            "name": "E3",
            "ticks": 54288,
            "time": 75.066307875,
            "velocity": 0.4330708661417323
          },
          {
            "duration": 0.1327432500000043,
            "durationTicks": 96,
            "midi": 61,
            "name": "C#4",
            "ticks": 54288,
            "time": 75.066307875,
            "velocity": 0.4330708661417323
          },
          {
            "duration": 0.2654865000000086,
            "durationTicks": 192,
            "midi": 52,
            "name": "E3",
            "ticks": 54432,
            "time": 75.26542275,
            "velocity": 0.7874015748031497
          },
          {
            "duration": 0.2654865000000086,
            "durationTicks": 192,
            "midi": 61,
            "name": "C#4",
            "ticks": 54432,
            "time": 75.26542275,
            "velocity": 0.7874015748031497
          },
          {
            "duration": 0.1327432499999901,
            "durationTicks": 96,
            "midi": 54,
            "name": "F#3",
            "ticks": 54624,
            "time": 75.53090925000001,
            "velocity": 0.7874015748031497
          },
          {
            "duration": 0.1327432499999901,
            "durationTicks": 96,
            "midi": 63,
            "name": "D#4",
            "ticks": 54624,
            "time": 75.53090925000001,
            "velocity": 0.7874015748031497
          },
          {
            "duration": 0.1327432499999901,
            "durationTicks": 96,
            "midi": 63,
            "name": "D#4",
            "ticks": 54672,
            "time": 75.59728087500001,
            "velocity": 0.5905511811023622
          },
          {
            "duration": 0.1327432499999901,
            "durationTicks": 96,
            "midi": 54,
            "name": "F#3",
            "ticks": 54672,
            "time": 75.59728087500001,
            "velocity": 0.5905511811023622
          },
          {
            "duration": 0.1327432500000043,
            "durationTicks": 96,
            "midi": 64,
            "name": "E4",
            "ticks": 54720,
            "time": 75.6636525,
            "velocity": 0.7874015748031497
          },
          {
            "duration": 0.1327432500000043,
            "durationTicks": 96,
            "midi": 56,
            "name": "G#3",
            "ticks": 54720,
            "time": 75.6636525,
            "velocity": 0.7874015748031497
          },
          {
            "duration": 0.1327432500000043,
            "durationTicks": 96,
            "midi": 64,
            "name": "E4",
            "ticks": 54768,
            "time": 75.730024125,
            "velocity": 0.5905511811023622
          },
          {
            "duration": 0.1327432500000043,
            "durationTicks": 96,
            "midi": 56,
            "name": "G#3",
            "ticks": 54768,
            "time": 75.730024125,
            "velocity": 0.5905511811023622
          },
          {
            "duration": 0.1327432500000043,
            "durationTicks": 96,
            "midi": 71,
            "name": "B4",
            "ticks": 54816,
            "time": 75.79639575,
            "velocity": 0.7874015748031497
          },
          {
            "duration": 0.1327432500000043,
            "durationTicks": 96,
            "midi": 64,
            "name": "E4",
            "ticks": 54816,
            "time": 75.79639575,
            "velocity": 0.7874015748031497
          },
          {
            "duration": 0.1327432500000043,
            "durationTicks": 96,
            "midi": 64,
            "name": "E4",
            "ticks": 54864,
            "time": 75.862767375,
            "velocity": 0.5905511811023622
          },
          {
            "duration": 0.1327432500000043,
            "durationTicks": 96,
            "midi": 71,
            "name": "B4",
            "ticks": 54864,
            "time": 75.862767375,
            "velocity": 0.5905511811023622
          },
          {
            "duration": 0.1327432500000043,
            "durationTicks": 96,
            "midi": 68,
            "name": "G#4",
            "ticks": 54912,
            "time": 75.929139,
            "velocity": 0.7874015748031497
          },
          {
            "duration": 0.1327432500000043,
            "durationTicks": 96,
            "midi": 61,
            "name": "C#4",
            "ticks": 54912,
            "time": 75.929139,
            "velocity": 0.7874015748031497
          },
          {
            "duration": 0.1327432499999901,
            "durationTicks": 96,
            "midi": 61,
            "name": "C#4",
            "ticks": 54960,
            "time": 75.99551062500001,
            "velocity": 0.5905511811023622
          },
          {
            "duration": 0.1327432499999901,
            "durationTicks": 96,
            "midi": 68,
            "name": "G#4",
            "ticks": 54960,
            "time": 75.99551062500001,
            "velocity": 0.5905511811023622
          },
          {
            "duration": 0.1327432499999901,
            "durationTicks": 96,
            "midi": 68,
            "name": "G#4",
            "ticks": 55008,
            "time": 76.06188225000001,
            "velocity": 0.4881889763779528
          },
          {
            "duration": 0.1327432499999901,
            "durationTicks": 96,
            "midi": 61,
            "name": "C#4",
            "ticks": 55008,
            "time": 76.06188225000001,
            "velocity": 0.4881889763779528
          },
          {
            "duration": 0.1327432500000043,
            "durationTicks": 96,
            "midi": 61,
            "name": "C#4",
            "ticks": 55056,
            "time": 76.128253875,
            "velocity": 0.4330708661417323
          },
          {
            "duration": 0.1327432500000043,
            "durationTicks": 96,
            "midi": 68,
            "name": "G#4",
            "ticks": 55056,
            "time": 76.128253875,
            "velocity": 0.4330708661417323
          },
          {
            "duration": 0.3982297499999987,
            "durationTicks": 288,
            "midi": 59,
            "name": "B3",
            "ticks": 55296,
            "time": 76.46011200000001,
            "velocity": 0.7874015748031497
          },
          {
            "duration": 0.1327432499999901,
            "durationTicks": 96,
            "midi": 51,
            "name": "D#3",
            "ticks": 55296,
            "time": 76.46011200000001,
            "velocity": 0.7874015748031497
          },
          {
            "duration": 0.1327432500000043,
            "durationTicks": 96,
            "midi": 51,
            "name": "D#3",
            "ticks": 55344,
            "time": 76.526483625,
            "velocity": 0.5905511811023622
          },
          {
            "duration": 0.1327432500000043,
            "durationTicks": 96,
            "midi": 54,
            "name": "F#3",
            "ticks": 55392,
            "time": 76.59285525,
            "velocity": 0.7874015748031497
          },
          {
            "duration": 0.1327432500000043,
            "durationTicks": 96,
            "midi": 54,
            "name": "F#3",
            "ticks": 55440,
            "time": 76.659226875,
            "velocity": 0.5905511811023622
          },
          {
            "duration": 0.1327432500000043,
            "durationTicks": 96,
            "midi": 56,
            "name": "G#3",
            "ticks": 55488,
            "time": 76.7255985,
            "velocity": 0.7874015748031497
          },
          {
            "duration": 0.1327432500000043,
            "durationTicks": 96,
            "midi": 56,
            "name": "G#3",
            "ticks": 55536,
            "time": 76.791970125,
            "velocity": 0.5905511811023622
          },
          {
            "duration": 0.1327432499999901,
            "durationTicks": 96,
            "midi": 54,
            "name": "F#3",
            "ticks": 55584,
            "time": 76.85834175000001,
            "velocity": 0.7874015748031497
          },
          {
            "duration": 0.3982297499999987,
            "durationTicks": 288,
            "midi": 66,
            "name": "F#4",
            "ticks": 55584,
            "time": 76.85834175000001,
            "velocity": 0.7874015748031497
          },
          {
            "duration": 0.1327432499999901,
            "durationTicks": 96,
            "midi": 54,
            "name": "F#3",
            "ticks": 55632,
            "time": 76.92471337500001,
            "velocity": 0.5905511811023622
          },
          {
            "duration": 0.1327432500000043,
            "durationTicks": 96,
            "midi": 56,
            "name": "G#3",
            "ticks": 55776,
            "time": 77.12382825,
            "velocity": 0.7874015748031497
          },
          {
            "duration": 0.1327432500000043,
            "durationTicks": 96,
            "midi": 56,
            "name": "G#3",
            "ticks": 55824,
            "time": 77.190199875,
            "velocity": 0.5905511811023622
          },
          {
            "duration": 0.1327432500000043,
            "durationTicks": 96,
            "midi": 59,
            "name": "B3",
            "ticks": 55872,
            "time": 77.2565715,
            "velocity": 0.7874015748031497
          },
          {
            "duration": 0.1327432500000043,
            "durationTicks": 96,
            "midi": 64,
            "name": "E4",
            "ticks": 55872,
            "time": 77.2565715,
            "velocity": 0.7874015748031497
          },
          {
            "duration": 0.1327432499999901,
            "durationTicks": 96,
            "midi": 64,
            "name": "E4",
            "ticks": 55968,
            "time": 77.38931475000001,
            "velocity": 0.5905511811023622
          },
          {
            "duration": 0.1327432499999901,
            "durationTicks": 96,
            "midi": 59,
            "name": "B3",
            "ticks": 55968,
            "time": 77.38931475000001,
            "velocity": 0.5905511811023622
          },
          {
            "duration": 0.1327432500000043,
            "durationTicks": 96,
            "midi": 63,
            "name": "D#4",
            "ticks": 56016,
            "time": 77.455686375,
            "velocity": 0.7874015748031497
          },
          {
            "duration": 0.1327432500000043,
            "durationTicks": 96,
            "midi": 59,
            "name": "B3",
            "ticks": 56064,
            "time": 77.522058,
            "velocity": 0.7874015748031497
          },
          {
            "duration": 0.1327432500000043,
            "durationTicks": 96,
            "midi": 63,
            "name": "D#4",
            "ticks": 56064,
            "time": 77.522058,
            "velocity": 0.7874015748031497
          },
          {
            "duration": 0.1327432500000043,
            "durationTicks": 96,
            "midi": 56,
            "name": "G#3",
            "ticks": 56160,
            "time": 77.65480125,
            "velocity": 0.7874015748031497
          },
          {
            "duration": 0.1327432500000043,
            "durationTicks": 96,
            "midi": 61,
            "name": "C#4",
            "ticks": 56160,
            "time": 77.65480125,
            "velocity": 0.7874015748031497
          },
          {
            "duration": 0.1327432499999901,
            "durationTicks": 96,
            "midi": 61,
            "name": "C#4",
            "ticks": 56256,
            "time": 77.78754450000001,
            "velocity": 0.5905511811023622
          },
          {
            "duration": 0.1327432499999901,
            "durationTicks": 96,
            "midi": 56,
            "name": "G#3",
            "ticks": 56256,
            "time": 77.78754450000001,
            "velocity": 0.5905511811023622
          },
          {
            "duration": 0.2654865000000086,
            "durationTicks": 192,
            "midi": 54,
            "name": "F#3",
            "ticks": 56352,
            "time": 77.92028775,
            "velocity": 0.7874015748031497
          },
          {
            "duration": 0.2654865000000086,
            "durationTicks": 192,
            "midi": 59,
            "name": "B3",
            "ticks": 56352,
            "time": 77.92028775,
            "velocity": 0.7874015748031497
          },
          {
            "duration": 0.1327432499999901,
            "durationTicks": 96,
            "midi": 61,
            "name": "C#4",
            "ticks": 56544,
            "time": 78.18577425000001,
            "velocity": 0.7874015748031497
          },
          {
            "duration": 0.1327432499999901,
            "durationTicks": 96,
            "midi": 54,
            "name": "F#3",
            "ticks": 56544,
            "time": 78.18577425000001,
            "velocity": 0.5905511811023622
          },
          {
            "duration": 0.1327432499999901,
            "durationTicks": 96,
            "midi": 63,
            "name": "D#4",
            "ticks": 56592,
            "time": 78.25214587500001,
            "velocity": 0.7874015748031497
          },
          {
            "duration": 0.2654865000000086,
            "durationTicks": 192,
            "midi": 59,
            "name": "B3",
            "ticks": 56640,
            "time": 78.3185175,
            "velocity": 0.7874015748031497
          },
          {
            "duration": 0.2654865000000086,
            "durationTicks": 192,
            "midi": 63,
            "name": "D#4",
            "ticks": 56640,
            "time": 78.3185175,
            "velocity": 0.7874015748031497
          },
          {
            "duration": 0.1327432499999901,
            "durationTicks": 96,
            "midi": 52,
            "name": "E3",
            "ticks": 56832,
            "time": 78.58400400000001,
            "velocity": 0.7874015748031497
          },
          {
            "duration": 0.1327432499999901,
            "durationTicks": 96,
            "midi": 61,
            "name": "C#4",
            "ticks": 56832,
            "time": 78.58400400000001,
            "velocity": 0.7874015748031497
          },
          {
            "duration": 0.1327432499999901,
            "durationTicks": 96,
            "midi": 52,
            "name": "E3",
            "ticks": 56880,
            "time": 78.65037562500001,
            "velocity": 0.5905511811023622
          },
          {
            "duration": 0.1327432499999901,
            "durationTicks": 96,
            "midi": 61,
            "name": "C#4",
            "ticks": 56880,
            "time": 78.65037562500001,
            "velocity": 0.5905511811023622
          },
          {
            "duration": 0.1327432500000043,
            "durationTicks": 96,
            "midi": 64,
            "name": "E4",
            "ticks": 56928,
            "time": 78.71674725,
            "velocity": 0.7874015748031497
          },
          {
            "duration": 0.1327432500000043,
            "durationTicks": 96,
            "midi": 56,
            "name": "G#3",
            "ticks": 56928,
            "time": 78.71674725,
            "velocity": 0.7874015748031497
          },
          {
            "duration": 0.1327432500000043,
            "durationTicks": 96,
            "midi": 64,
            "name": "E4",
            "ticks": 56976,
            "time": 78.783118875,
            "velocity": 0.5905511811023622
          },
          {
            "duration": 0.1327432500000043,
            "durationTicks": 96,
            "midi": 56,
            "name": "G#3",
            "ticks": 56976,
            "time": 78.783118875,
            "velocity": 0.5905511811023622
          },
          {
            "duration": 0.1327432500000043,
            "durationTicks": 96,
            "midi": 63,
            "name": "D#4",
            "ticks": 57024,
            "time": 78.8494905,
            "velocity": 0.7874015748031497
          },
          {
            "duration": 0.1327432500000043,
            "durationTicks": 96,
            "midi": 54,
            "name": "F#3",
            "ticks": 57024,
            "time": 78.8494905,
            "velocity": 0.7874015748031497
          },
          {
            "duration": 0.1327432500000043,
            "durationTicks": 96,
            "midi": 63,
            "name": "D#4",
            "ticks": 57072,
            "time": 78.915862125,
            "velocity": 0.5905511811023622
          },
          {
            "duration": 0.1327432500000043,
            "durationTicks": 96,
            "midi": 54,
            "name": "F#3",
            "ticks": 57072,
            "time": 78.915862125,
            "velocity": 0.5905511811023622
          },
          {
            "duration": 0.1327432500000043,
            "durationTicks": 96,
            "midi": 64,
            "name": "E4",
            "ticks": 57120,
            "time": 78.98223375,
            "velocity": 0.7874015748031497
          },
          {
            "duration": 0.1327432500000043,
            "durationTicks": 96,
            "midi": 56,
            "name": "G#3",
            "ticks": 57120,
            "time": 78.98223375,
            "velocity": 0.7874015748031497
          },
          {
            "duration": 0.1327432499999901,
            "durationTicks": 96,
            "midi": 64,
            "name": "E4",
            "ticks": 57168,
            "time": 79.04860537500001,
            "velocity": 0.5905511811023622
          },
          {
            "duration": 0.1327432499999901,
            "durationTicks": 96,
            "midi": 56,
            "name": "G#3",
            "ticks": 57168,
            "time": 79.04860537500001,
            "velocity": 0.5905511811023622
          },
          {
            "duration": 0.1327432499999901,
            "durationTicks": 96,
            "midi": 61,
            "name": "C#4",
            "ticks": 57216,
            "time": 79.11497700000001,
            "velocity": 0.7874015748031497
          },
          {
            "duration": 0.1327432499999901,
            "durationTicks": 96,
            "midi": 52,
            "name": "E3",
            "ticks": 57216,
            "time": 79.11497700000001,
            "velocity": 0.7874015748031497
          },
          {
            "duration": 0.1327432500000043,
            "durationTicks": 96,
            "midi": 52,
            "name": "E3",
            "ticks": 57264,
            "time": 79.181348625,
            "velocity": 0.5905511811023622
          },
          {
            "duration": 0.1327432500000043,
            "durationTicks": 96,
            "midi": 61,
            "name": "C#4",
            "ticks": 57264,
            "time": 79.181348625,
            "velocity": 0.5905511811023622
          },
          {
            "duration": 0.1327432500000043,
            "durationTicks": 96,
            "midi": 61,
            "name": "C#4",
            "ticks": 57312,
            "time": 79.24772025,
            "velocity": 0.4881889763779528
          },
          {
            "duration": 0.1327432500000043,
            "durationTicks": 96,
            "midi": 52,
            "name": "E3",
            "ticks": 57312,
            "time": 79.24772025,
            "velocity": 0.4881889763779528
          },
          {
            "duration": 0.1327432500000043,
            "durationTicks": 96,
            "midi": 52,
            "name": "E3",
            "ticks": 57360,
            "time": 79.314091875,
            "velocity": 0.4330708661417323
          },
          {
            "duration": 0.1327432500000043,
            "durationTicks": 96,
            "midi": 61,
            "name": "C#4",
            "ticks": 57360,
            "time": 79.314091875,
            "velocity": 0.4330708661417323
          },
          {
            "duration": 0.2654864999999944,
            "durationTicks": 192,
            "midi": 61,
            "name": "C#4",
            "ticks": 57504,
            "time": 79.51320675000001,
            "velocity": 0.7874015748031497
          },
          {
            "duration": 0.2654864999999944,
            "durationTicks": 192,
            "midi": 52,
            "name": "E3",
            "ticks": 57504,
            "time": 79.51320675000001,
            "velocity": 0.7874015748031497
          },
          {
            "duration": 0.1327432500000043,
            "durationTicks": 96,
            "midi": 63,
            "name": "D#4",
            "ticks": 57696,
            "time": 79.77869325,
            "velocity": 0.7874015748031497
          },
          {
            "duration": 0.1327432500000043,
            "durationTicks": 96,
            "midi": 54,
            "name": "F#3",
            "ticks": 57696,
            "time": 79.77869325,
            "velocity": 0.7874015748031497
          },
          {
            "duration": 0.1327432500000043,
            "durationTicks": 96,
            "midi": 54,
            "name": "F#3",
            "ticks": 57744,
            "time": 79.845064875,
            "velocity": 0.5905511811023622
          },
          {
            "duration": 0.1327432500000043,
            "durationTicks": 96,
            "midi": 63,
            "name": "D#4",
            "ticks": 57744,
            "time": 79.845064875,
            "velocity": 0.5905511811023622
          },
          {
            "duration": 0.1327432499999901,
            "durationTicks": 96,
            "midi": 64,
            "name": "E4",
            "ticks": 57792,
            "time": 79.91143650000001,
            "velocity": 0.7874015748031497
          },
          {
            "duration": 0.1327432499999901,
            "durationTicks": 96,
            "midi": 56,
            "name": "G#3",
            "ticks": 57792,
            "time": 79.91143650000001,
            "velocity": 0.7874015748031497
          },
          {
            "duration": 0.1327432499999901,
            "durationTicks": 96,
            "midi": 64,
            "name": "E4",
            "ticks": 57840,
            "time": 79.97780812500001,
            "velocity": 0.5905511811023622
          },
          {
            "duration": 0.1327432499999901,
            "durationTicks": 96,
            "midi": 56,
            "name": "G#3",
            "ticks": 57840,
            "time": 79.97780812500001,
            "velocity": 0.5905511811023622
          },
          {
            "duration": 0.1327432500000043,
            "durationTicks": 96,
            "midi": 71,
            "name": "B4",
            "ticks": 57888,
            "time": 80.04417975,
            "velocity": 0.7874015748031497
          },
          {
            "duration": 0.1327432500000043,
            "durationTicks": 96,
            "midi": 64,
            "name": "E4",
            "ticks": 57888,
            "time": 80.04417975,
            "velocity": 0.7874015748031497
          },
          {
            "duration": 0.1327432500000043,
            "durationTicks": 96,
            "midi": 71,
            "name": "B4",
            "ticks": 57936,
            "time": 80.110551375,
            "velocity": 0.5905511811023622
          },
          {
            "duration": 0.1327432500000043,
            "durationTicks": 96,
            "midi": 64,
            "name": "E4",
            "ticks": 57936,
            "time": 80.110551375,
            "velocity": 0.5905511811023622
          },
          {
            "duration": 0.1327432500000043,
            "durationTicks": 96,
            "midi": 68,
            "name": "G#4",
            "ticks": 57984,
            "time": 80.176923,
            "velocity": 0.7874015748031497
          },
          {
            "duration": 0.1327432500000043,
            "durationTicks": 96,
            "midi": 61,
            "name": "C#4",
            "ticks": 57984,
            "time": 80.176923,
            "velocity": 0.7874015748031497
          },
          {
            "duration": 0.1327432500000043,
            "durationTicks": 96,
            "midi": 68,
            "name": "G#4",
            "ticks": 58032,
            "time": 80.243294625,
            "velocity": 0.5905511811023622
          },
          {
            "duration": 0.1327432500000043,
            "durationTicks": 96,
            "midi": 61,
            "name": "C#4",
            "ticks": 58032,
            "time": 80.243294625,
            "velocity": 0.5905511811023622
          },
          {
            "duration": 0.1327432500000043,
            "durationTicks": 96,
            "midi": 61,
            "name": "C#4",
            "ticks": 58080,
            "time": 80.30966625,
            "velocity": 0.4881889763779528
          },
          {
            "duration": 0.1327432500000043,
            "durationTicks": 96,
            "midi": 68,
            "name": "G#4",
            "ticks": 58080,
            "time": 80.30966625,
            "velocity": 0.4881889763779528
          },
          {
            "duration": 0.1327432499999901,
            "durationTicks": 96,
            "midi": 61,
            "name": "C#4",
            "ticks": 58128,
            "time": 80.37603787500001,
            "velocity": 0.4330708661417323
          },
          {
            "duration": 0.1327432499999901,
            "durationTicks": 96,
            "midi": 68,
            "name": "G#4",
            "ticks": 58128,
            "time": 80.37603787500001,
            "velocity": 0.4330708661417323
          },
          {
            "duration": 0.1327432500000043,
            "durationTicks": 96,
            "midi": 52,
            "name": "E3",
            "ticks": 58368,
            "time": 80.707896,
            "velocity": 0.7874015748031497
          },
          {
            "duration": 0.1327432500000043,
            "durationTicks": 96,
            "midi": 61,
            "name": "C#4",
            "ticks": 58368,
            "time": 80.707896,
            "velocity": 0.7874015748031497
          },
          {
            "duration": 0.1327432499999901,
            "durationTicks": 96,
            "midi": 52,
            "name": "E3",
            "ticks": 58416,
            "time": 80.77426762500001,
            "velocity": 0.5905511811023622
          },
          {
            "duration": 0.1327432499999901,
            "durationTicks": 96,
            "midi": 61,
            "name": "C#4",
            "ticks": 58416,
            "time": 80.77426762500001,
            "velocity": 0.5905511811023622
          },
          {
            "duration": 0.1327432499999901,
            "durationTicks": 96,
            "midi": 56,
            "name": "G#3",
            "ticks": 58464,
            "time": 80.84063925000001,
            "velocity": 0.7874015748031497
          },
          {
            "duration": 0.1327432499999901,
            "durationTicks": 96,
            "midi": 64,
            "name": "E4",
            "ticks": 58464,
            "time": 80.84063925000001,
            "velocity": 0.7874015748031497
          },
          {
            "duration": 0.1327432500000043,
            "durationTicks": 96,
            "midi": 64,
            "name": "E4",
            "ticks": 58512,
            "time": 80.907010875,
            "velocity": 0.5905511811023622
          },
          {
            "duration": 0.1327432500000043,
            "durationTicks": 96,
            "midi": 56,
            "name": "G#3",
            "ticks": 58512,
            "time": 80.907010875,
            "velocity": 0.5905511811023622
          },
          {
            "duration": 0.1327432500000043,
            "durationTicks": 96,
            "midi": 54,
            "name": "F#3",
            "ticks": 58560,
            "time": 80.9733825,
            "velocity": 0.7874015748031497
          },
          {
            "duration": 0.1327432500000043,
            "durationTicks": 96,
            "midi": 63,
            "name": "D#4",
            "ticks": 58560,
            "time": 80.9733825,
            "velocity": 0.7874015748031497
          },
          {
            "duration": 0.1327432500000043,
            "durationTicks": 96,
            "midi": 63,
            "name": "D#4",
            "ticks": 58608,
            "time": 81.039754125,
            "velocity": 0.5905511811023622
          },
          {
            "duration": 0.1327432500000043,
            "durationTicks": 96,
            "midi": 54,
            "name": "F#3",
            "ticks": 58608,
            "time": 81.039754125,
            "velocity": 0.5905511811023622
          },
          {
            "duration": 0.1327432500000043,
            "durationTicks": 96,
            "midi": 64,
            "name": "E4",
            "ticks": 58656,
            "time": 81.10612575,
            "velocity": 0.7874015748031497
          },
          {
            "duration": 0.1327432500000043,
            "durationTicks": 96,
            "midi": 56,
            "name": "G#3",
            "ticks": 58656,
            "time": 81.10612575,
            "velocity": 0.7874015748031497
          },
          {
            "duration": 0.1327432500000043,
            "durationTicks": 96,
            "midi": 56,
            "name": "G#3",
            "ticks": 58704,
            "time": 81.172497375,
            "velocity": 0.5905511811023622
          },
          {
            "duration": 0.1327432500000043,
            "durationTicks": 96,
            "midi": 64,
            "name": "E4",
            "ticks": 58704,
            "time": 81.172497375,
            "velocity": 0.5905511811023622
          },
          {
            "duration": 0.1327432499999901,
            "durationTicks": 96,
            "midi": 61,
            "name": "C#4",
            "ticks": 58752,
            "time": 81.23886900000001,
            "velocity": 0.7874015748031497
          },
          {
            "duration": 0.1327432499999901,
            "durationTicks": 96,
            "midi": 52,
            "name": "E3",
            "ticks": 58752,
            "time": 81.23886900000001,
            "velocity": 0.7874015748031497
          },
          {
            "duration": 0.1327432499999901,
            "durationTicks": 96,
            "midi": 52,
            "name": "E3",
            "ticks": 58800,
            "time": 81.30524062500001,
            "velocity": 0.5905511811023622
          },
          {
            "duration": 0.1327432499999901,
            "durationTicks": 96,
            "midi": 61,
            "name": "C#4",
            "ticks": 58800,
            "time": 81.30524062500001,
            "velocity": 0.5905511811023622
          },
          {
            "duration": 0.1327432500000043,
            "durationTicks": 96,
            "midi": 52,
            "name": "E3",
            "ticks": 58848,
            "time": 81.37161225,
            "velocity": 0.4881889763779528
          },
          {
            "duration": 0.1327432500000043,
            "durationTicks": 96,
            "midi": 61,
            "name": "C#4",
            "ticks": 58848,
            "time": 81.37161225,
            "velocity": 0.4881889763779528
          },
          {
            "duration": 0.1327432500000043,
            "durationTicks": 96,
            "midi": 52,
            "name": "E3",
            "ticks": 58896,
            "time": 81.437983875,
            "velocity": 0.4330708661417323
          },
          {
            "duration": 0.1327432500000043,
            "durationTicks": 96,
            "midi": 61,
            "name": "C#4",
            "ticks": 58896,
            "time": 81.437983875,
            "velocity": 0.4330708661417323
          },
          {
            "duration": 0.2654864999999944,
            "durationTicks": 192,
            "midi": 61,
            "name": "C#4",
            "ticks": 59040,
            "time": 81.63709875,
            "velocity": 0.7874015748031497
          },
          {
            "duration": 0.2654864999999944,
            "durationTicks": 192,
            "midi": 52,
            "name": "E3",
            "ticks": 59040,
            "time": 81.63709875,
            "velocity": 0.7874015748031497
          },
          {
            "duration": 0.1327432500000043,
            "durationTicks": 96,
            "midi": 54,
            "name": "F#3",
            "ticks": 59232,
            "time": 81.90258525,
            "velocity": 0.7874015748031497
          },
          {
            "duration": 0.1327432500000043,
            "durationTicks": 96,
            "midi": 63,
            "name": "D#4",
            "ticks": 59232,
            "time": 81.90258525,
            "velocity": 0.7874015748031497
          },
          {
            "duration": 0.1327432500000043,
            "durationTicks": 96,
            "midi": 63,
            "name": "D#4",
            "ticks": 59280,
            "time": 81.968956875,
            "velocity": 0.5905511811023622
          },
          {
            "duration": 0.1327432500000043,
            "durationTicks": 96,
            "midi": 54,
            "name": "F#3",
            "ticks": 59280,
            "time": 81.968956875,
            "velocity": 0.5905511811023622
          },
          {
            "duration": 0.1327432500000043,
            "durationTicks": 96,
            "midi": 64,
            "name": "E4",
            "ticks": 59328,
            "time": 82.0353285,
            "velocity": 0.7874015748031497
          },
          {
            "duration": 0.1327432500000043,
            "durationTicks": 96,
            "midi": 56,
            "name": "G#3",
            "ticks": 59328,
            "time": 82.0353285,
            "velocity": 0.7874015748031497
          },
          {
            "duration": 0.1327432499999901,
            "durationTicks": 96,
            "midi": 56,
            "name": "G#3",
            "ticks": 59376,
            "time": 82.10170012500001,
            "velocity": 0.5905511811023622
          },
          {
            "duration": 0.1327432499999901,
            "durationTicks": 96,
            "midi": 64,
            "name": "E4",
            "ticks": 59376,
            "time": 82.10170012500001,
            "velocity": 0.5905511811023622
          },
          {
            "duration": 0.1327432499999901,
            "durationTicks": 96,
            "midi": 64,
            "name": "E4",
            "ticks": 59424,
            "time": 82.16807175000001,
            "velocity": 0.7874015748031497
          },
          {
            "duration": 0.1327432499999901,
            "durationTicks": 96,
            "midi": 71,
            "name": "B4",
            "ticks": 59424,
            "time": 82.16807175000001,
            "velocity": 0.7874015748031497
          },
          {
            "duration": 0.1327432500000043,
            "durationTicks": 96,
            "midi": 71,
            "name": "B4",
            "ticks": 59472,
            "time": 82.234443375,
            "velocity": 0.5905511811023622
          },
          {
            "duration": 0.1327432500000043,
            "durationTicks": 96,
            "midi": 64,
            "name": "E4",
            "ticks": 59472,
            "time": 82.234443375,
            "velocity": 0.5905511811023622
          },
          {
            "duration": 0.1327432500000043,
            "durationTicks": 96,
            "midi": 68,
            "name": "G#4",
            "ticks": 59520,
            "time": 82.300815,
            "velocity": 0.7874015748031497
          },
          {
            "duration": 0.1327432500000043,
            "durationTicks": 96,
            "midi": 61,
            "name": "C#4",
            "ticks": 59520,
            "time": 82.300815,
            "velocity": 0.7874015748031497
          },
          {
            "duration": 0.1327432500000043,
            "durationTicks": 96,
            "midi": 61,
            "name": "C#4",
            "ticks": 59568,
            "time": 82.367186625,
            "velocity": 0.5905511811023622
          },
          {
            "duration": 0.1327432500000043,
            "durationTicks": 96,
            "midi": 68,
            "name": "G#4",
            "ticks": 59568,
            "time": 82.367186625,
            "velocity": 0.5905511811023622
          },
          {
            "duration": 0.1327432500000043,
            "durationTicks": 96,
            "midi": 68,
            "name": "G#4",
            "ticks": 59616,
            "time": 82.43355825,
            "velocity": 0.4881889763779528
          },
          {
            "duration": 0.1327432500000043,
            "durationTicks": 96,
            "midi": 61,
            "name": "C#4",
            "ticks": 59616,
            "time": 82.43355825,
            "velocity": 0.4881889763779528
          },
          {
            "duration": 0.1327432500000043,
            "durationTicks": 96,
            "midi": 68,
            "name": "G#4",
            "ticks": 59664,
            "time": 82.499929875,
            "velocity": 0.4330708661417323
          },
          {
            "duration": 0.1327432500000043,
            "durationTicks": 96,
            "midi": 61,
            "name": "C#4",
            "ticks": 59664,
            "time": 82.499929875,
            "velocity": 0.4330708661417323
          },
          {
            "duration": 0.1327432500000043,
            "durationTicks": 96,
            "midi": 61,
            "name": "C#4",
            "ticks": 59904,
            "time": 82.831788,
            "velocity": 0.7874015748031497
          },
          {
            "duration": 0.1327432500000043,
            "durationTicks": 96,
            "midi": 52,
            "name": "E3",
            "ticks": 59904,
            "time": 82.831788,
            "velocity": 0.7874015748031497
          },
          {
            "duration": 0.1327432500000043,
            "durationTicks": 96,
            "midi": 61,
            "name": "C#4",
            "ticks": 59952,
            "time": 82.898159625,
            "velocity": 0.5905511811023622
          },
          {
            "duration": 0.1327432500000043,
            "durationTicks": 96,
            "midi": 52,
            "name": "E3",
            "ticks": 59952,
            "time": 82.898159625,
            "velocity": 0.5905511811023622
          },
          {
            "duration": 0.1327432499999901,
            "durationTicks": 96,
            "midi": 64,
            "name": "E4",
            "ticks": 60000,
            "time": 82.96453125000001,
            "velocity": 0.7874015748031497
          },
          {
            "duration": 0.1327432499999901,
            "durationTicks": 96,
            "midi": 56,
            "name": "G#3",
            "ticks": 60000,
            "time": 82.96453125000001,
            "velocity": 0.7874015748031497
          },
          {
            "duration": 0.1327432499999901,
            "durationTicks": 96,
            "midi": 56,
            "name": "G#3",
            "ticks": 60048,
            "time": 83.03090287500001,
            "velocity": 0.5905511811023622
          },
          {
            "duration": 0.1327432499999901,
            "durationTicks": 96,
            "midi": 64,
            "name": "E4",
            "ticks": 60048,
            "time": 83.03090287500001,
            "velocity": 0.5905511811023622
          },
          {
            "duration": 0.1327432500000043,
            "durationTicks": 96,
            "midi": 54,
            "name": "F#3",
            "ticks": 60096,
            "time": 83.0972745,
            "velocity": 0.7874015748031497
          },
          {
            "duration": 0.1327432500000043,
            "durationTicks": 96,
            "midi": 63,
            "name": "D#4",
            "ticks": 60096,
            "time": 83.0972745,
            "velocity": 0.7874015748031497
          },
          {
            "duration": 0.1327432500000043,
            "durationTicks": 96,
            "midi": 54,
            "name": "F#3",
            "ticks": 60144,
            "time": 83.163646125,
            "velocity": 0.5905511811023622
          },
          {
            "duration": 0.1327432500000043,
            "durationTicks": 96,
            "midi": 63,
            "name": "D#4",
            "ticks": 60144,
            "time": 83.163646125,
            "velocity": 0.5905511811023622
          },
          {
            "duration": 0.1327432500000043,
            "durationTicks": 96,
            "midi": 56,
            "name": "G#3",
            "ticks": 60192,
            "time": 83.23001775,
            "velocity": 0.7874015748031497
          },
          {
            "duration": 0.1327432500000043,
            "durationTicks": 96,
            "midi": 64,
            "name": "E4",
            "ticks": 60192,
            "time": 83.23001775,
            "velocity": 0.7874015748031497
          },
          {
            "duration": 0.1327432500000043,
            "durationTicks": 96,
            "midi": 64,
            "name": "E4",
            "ticks": 60240,
            "time": 83.296389375,
            "velocity": 0.5905511811023622
          },
          {
            "duration": 0.1327432500000043,
            "durationTicks": 96,
            "midi": 56,
            "name": "G#3",
            "ticks": 60240,
            "time": 83.296389375,
            "velocity": 0.5905511811023622
          },
          {
            "duration": 0.1327432500000043,
            "durationTicks": 96,
            "midi": 52,
            "name": "E3",
            "ticks": 60288,
            "time": 83.362761,
            "velocity": 0.7874015748031497
          },
          {
            "duration": 0.1327432500000043,
            "durationTicks": 96,
            "midi": 61,
            "name": "C#4",
            "ticks": 60288,
            "time": 83.362761,
            "velocity": 0.7874015748031497
          },
          {
            "duration": 0.1327432499999901,
            "durationTicks": 96,
            "midi": 61,
            "name": "C#4",
            "ticks": 60336,
            "time": 83.42913262500001,
            "velocity": 0.5905511811023622
          },
          {
            "duration": 0.1327432499999901,
            "durationTicks": 96,
            "midi": 52,
            "name": "E3",
            "ticks": 60336,
            "time": 83.42913262500001,
            "velocity": 0.5905511811023622
          },
          {
            "duration": 0.1327432499999901,
            "durationTicks": 96,
            "midi": 61,
            "name": "C#4",
            "ticks": 60384,
            "time": 83.49550425000001,
            "velocity": 0.4881889763779528
          },
          {
            "duration": 0.1327432499999901,
            "durationTicks": 96,
            "midi": 52,
            "name": "E3",
            "ticks": 60384,
            "time": 83.49550425000001,
            "velocity": 0.4881889763779528
          },
          {
            "duration": 0.1327432500000043,
            "durationTicks": 96,
            "midi": 61,
            "name": "C#4",
            "ticks": 60432,
            "time": 83.561875875,
            "velocity": 0.4330708661417323
          },
          {
            "duration": 0.1327432500000043,
            "durationTicks": 96,
            "midi": 52,
            "name": "E3",
            "ticks": 60432,
            "time": 83.561875875,
            "velocity": 0.4330708661417323
          },
          {
            "duration": 0.2654864999999944,
            "durationTicks": 192,
            "midi": 61,
            "name": "C#4",
            "ticks": 60576,
            "time": 83.76099075,
            "velocity": 0.7874015748031497
          },
          {
            "duration": 0.2654864999999944,
            "durationTicks": 192,
            "midi": 52,
            "name": "E3",
            "ticks": 60576,
            "time": 83.76099075,
            "velocity": 0.7874015748031497
          },
          {
            "duration": 0.1327432500000043,
            "durationTicks": 96,
            "midi": 54,
            "name": "F#3",
            "ticks": 60768,
            "time": 84.02647725,
            "velocity": 0.7874015748031497
          },
          {
            "duration": 0.1327432500000043,
            "durationTicks": 96,
            "midi": 63,
            "name": "D#4",
            "ticks": 60768,
            "time": 84.02647725,
            "velocity": 0.7874015748031497
          },
          {
            "duration": 0.1327432500000043,
            "durationTicks": 96,
            "midi": 63,
            "name": "D#4",
            "ticks": 60816,
            "time": 84.092848875,
            "velocity": 0.5905511811023622
          },
          {
            "duration": 0.1327432500000043,
            "durationTicks": 96,
            "midi": 54,
            "name": "F#3",
            "ticks": 60816,
            "time": 84.092848875,
            "velocity": 0.5905511811023622
          },
          {
            "duration": 0.1327432500000043,
            "durationTicks": 96,
            "midi": 64,
            "name": "E4",
            "ticks": 60864,
            "time": 84.1592205,
            "velocity": 0.7874015748031497
          },
          {
            "duration": 0.1327432500000043,
            "durationTicks": 96,
            "midi": 56,
            "name": "G#3",
            "ticks": 60864,
            "time": 84.1592205,
            "velocity": 0.7874015748031497
          },
          {
            "duration": 0.1327432500000043,
            "durationTicks": 96,
            "midi": 56,
            "name": "G#3",
            "ticks": 60912,
            "time": 84.225592125,
            "velocity": 0.5905511811023622
          },
          {
            "duration": 0.1327432500000043,
            "durationTicks": 96,
            "midi": 64,
            "name": "E4",
            "ticks": 60912,
            "time": 84.225592125,
            "velocity": 0.5905511811023622
          },
          {
            "duration": 0.1327432499999901,
            "durationTicks": 96,
            "midi": 64,
            "name": "E4",
            "ticks": 60960,
            "time": 84.29196375000001,
            "velocity": 0.7874015748031497
          },
          {
            "duration": 0.1327432499999901,
            "durationTicks": 96,
            "midi": 71,
            "name": "B4",
            "ticks": 60960,
            "time": 84.29196375000001,
            "velocity": 0.7874015748031497
          },
          {
            "duration": 0.1327432499999901,
            "durationTicks": 96,
            "midi": 64,
            "name": "E4",
            "ticks": 61008,
            "time": 84.35833537500001,
            "velocity": 0.5905511811023622
          },
          {
            "duration": 0.1327432499999901,
            "durationTicks": 96,
            "midi": 71,
            "name": "B4",
            "ticks": 61008,
            "time": 84.35833537500001,
            "velocity": 0.5905511811023622
          },
          {
            "duration": 0.1327432500000043,
            "durationTicks": 96,
            "midi": 68,
            "name": "G#4",
            "ticks": 61056,
            "time": 84.424707,
            "velocity": 0.7874015748031497
          },
          {
            "duration": 0.1327432500000043,
            "durationTicks": 96,
            "midi": 61,
            "name": "C#4",
            "ticks": 61056,
            "time": 84.424707,
            "velocity": 0.7874015748031497
          },
          {
            "duration": 0.1327432500000043,
            "durationTicks": 96,
            "midi": 68,
            "name": "G#4",
            "ticks": 61104,
            "time": 84.491078625,
            "velocity": 0.5905511811023622
          },
          {
            "duration": 0.1327432500000043,
            "durationTicks": 96,
            "midi": 61,
            "name": "C#4",
            "ticks": 61104,
            "time": 84.491078625,
            "velocity": 0.5905511811023622
          },
          {
            "duration": 0.1327432500000043,
            "durationTicks": 96,
            "midi": 68,
            "name": "G#4",
            "ticks": 61152,
            "time": 84.55745025,
            "velocity": 0.4881889763779528
          },
          {
            "duration": 0.1327432500000043,
            "durationTicks": 96,
            "midi": 61,
            "name": "C#4",
            "ticks": 61152,
            "time": 84.55745025,
            "velocity": 0.4881889763779528
          },
          {
            "duration": 0.1327432500000043,
            "durationTicks": 96,
            "midi": 61,
            "name": "C#4",
            "ticks": 61200,
            "time": 84.623821875,
            "velocity": 0.4330708661417323
          },
          {
            "duration": 0.1327432500000043,
            "durationTicks": 96,
            "midi": 68,
            "name": "G#4",
            "ticks": 61200,
            "time": 84.623821875,
            "velocity": 0.4330708661417323
          },
          {
            "duration": 0.1327432500000043,
            "durationTicks": 96,
            "midi": 51,
            "name": "D#3",
            "ticks": 61440,
            "time": 84.95568,
            "velocity": 0.7874015748031497
          },
          {
            "duration": 0.3982297499999987,
            "durationTicks": 288,
            "midi": 61,
            "name": "C#4",
            "ticks": 61440,
            "time": 84.95568,
            "velocity": 0.7874015748031497
          },
          {
            "duration": 0.1327432500000043,
            "durationTicks": 96,
            "midi": 51,
            "name": "D#3",
            "ticks": 61488,
            "time": 85.022051625,
            "velocity": 0.5905511811023622
          },
          {
            "duration": 0.1327432500000043,
            "durationTicks": 96,
            "midi": 54,
            "name": "F#3",
            "ticks": 61536,
            "time": 85.08842325,
            "velocity": 0.7874015748031497
          },
          {
            "duration": 0.1327432499999901,
            "durationTicks": 96,
            "midi": 54,
            "name": "F#3",
            "ticks": 61584,
            "time": 85.15479487500001,
            "velocity": 0.5905511811023622
          },
          {
            "duration": 0.1327432499999901,
            "durationTicks": 96,
            "midi": 56,
            "name": "G#3",
            "ticks": 61632,
            "time": 85.22116650000001,
            "velocity": 0.7874015748031497
          },
          {
            "duration": 0.1327432500000043,
            "durationTicks": 96,
            "midi": 56,
            "name": "G#3",
            "ticks": 61680,
            "time": 85.287538125,
            "velocity": 0.5905511811023622
          },
          {
            "duration": 0.1327432500000043,
            "durationTicks": 96,
            "midi": 54,
            "name": "F#3",
            "ticks": 61728,
            "time": 85.35390975,
            "velocity": 0.7874015748031497
          },
          {
            "duration": 0.3982297499999987,
            "durationTicks": 288,
            "midi": 66,
            "name": "F#4",
            "ticks": 61728,
            "time": 85.35390975,
            "velocity": 0.7874015748031497
          },
          {
            "duration": 0.1327432500000043,
            "durationTicks": 96,
            "midi": 54,
            "name": "F#3",
            "ticks": 61776,
            "time": 85.420281375,
            "velocity": 0.5905511811023622
          },
          {
            "duration": 0.1327432499999901,
            "durationTicks": 96,
            "midi": 56,
            "name": "G#3",
            "ticks": 61920,
            "time": 85.61939625000001,
            "velocity": 0.7874015748031497
          },
          {
            "duration": 0.1327432499999901,
            "durationTicks": 96,
            "midi": 56,
            "name": "G#3",
            "ticks": 61968,
            "time": 85.68576787500001,
            "velocity": 0.5905511811023622
          },
          {
            "duration": 0.1327432500000043,
            "durationTicks": 96,
            "midi": 61,
            "name": "C#4",
            "ticks": 62016,
            "time": 85.7521395,
            "velocity": 0.7874015748031497
          },
          {
            "duration": 0.1327432500000043,
            "durationTicks": 96,
            "midi": 64,
            "name": "E4",
            "ticks": 62016,
            "time": 85.7521395,
            "velocity": 0.7874015748031497
          },
          {
            "duration": 0.1327432500000043,
            "durationTicks": 96,
            "midi": 64,
            "name": "E4",
            "ticks": 62112,
            "time": 85.88488275,
            "velocity": 0.5905511811023622
          },
          {
            "duration": 0.1327432500000043,
            "durationTicks": 96,
            "midi": 61,
            "name": "C#4",
            "ticks": 62112,
            "time": 85.88488275,
            "velocity": 0.5905511811023622
          },
          {
            "duration": 0.1327432500000043,
            "durationTicks": 96,
            "midi": 63,
            "name": "D#4",
            "ticks": 62160,
            "time": 85.951254375,
            "velocity": 0.7874015748031497
          },
          {
            "duration": 0.1327432500000043,
            "durationTicks": 96,
            "midi": 61,
            "name": "C#4",
            "ticks": 62208,
            "time": 86.017626,
            "velocity": 0.7874015748031497
          },
          {
            "duration": 0.1327432500000043,
            "durationTicks": 96,
            "midi": 63,
            "name": "D#4",
            "ticks": 62208,
            "time": 86.017626,
            "velocity": 0.7874015748031497
          },
          {
            "duration": 0.1327432499999901,
            "durationTicks": 96,
            "midi": 61,
            "name": "C#4",
            "ticks": 62304,
            "time": 86.15036925000001,
            "velocity": 0.7874015748031497
          },
          {
            "duration": 0.1327432499999901,
            "durationTicks": 96,
            "midi": 56,
            "name": "G#3",
            "ticks": 62304,
            "time": 86.15036925000001,
            "velocity": 0.7874015748031497
          },
          {
            "duration": 0.1327432500000043,
            "durationTicks": 96,
            "midi": 61,
            "name": "C#4",
            "ticks": 62400,
            "time": 86.2831125,
            "velocity": 0.5905511811023622
          },
          {
            "duration": 0.1327432500000043,
            "durationTicks": 96,
            "midi": 56,
            "name": "G#3",
            "ticks": 62400,
            "time": 86.2831125,
            "velocity": 0.5905511811023622
          },
          {
            "duration": 0.2654864999999944,
            "durationTicks": 192,
            "midi": 61,
            "name": "C#4",
            "ticks": 62496,
            "time": 86.41585575,
            "velocity": 0.7874015748031497
          },
          {
            "duration": 0.2654864999999944,
            "durationTicks": 192,
            "midi": 54,
            "name": "F#3",
            "ticks": 62496,
            "time": 86.41585575,
            "velocity": 0.7874015748031497
          },
          {
            "duration": 0.1327432500000043,
            "durationTicks": 96,
            "midi": 54,
            "name": "F#3",
            "ticks": 62688,
            "time": 86.68134225,
            "velocity": 0.5905511811023622
          },
          {
            "duration": 0.1327432500000043,
            "durationTicks": 96,
            "midi": 61,
            "name": "C#4",
            "ticks": 62688,
            "time": 86.68134225,
            "velocity": 0.7874015748031497
          },
          {
            "duration": 0.1327432500000043,
            "durationTicks": 96,
            "midi": 63,
            "name": "D#4",
            "ticks": 62736,
            "time": 86.747713875,
            "velocity": 0.7874015748031497
          },
          {
            "duration": 0.2654864999999944,
            "durationTicks": 192,
            "midi": 63,
            "name": "D#4",
            "ticks": 62784,
            "time": 86.8140855,
            "velocity": 0.7874015748031497
          },
          {
            "duration": 0.2654864999999944,
            "durationTicks": 192,
            "midi": 56,
            "name": "G#3",
            "ticks": 62784,
            "time": 86.8140855,
            "velocity": 0.7874015748031497
          },
          {
            "duration": 0.1327432500000043,
            "durationTicks": 96,
            "midi": 52,
            "name": "E3",
            "ticks": 62976,
            "time": 87.079572,
            "velocity": 0.7874015748031497
          },
          {
            "duration": 0.1327432500000043,
            "durationTicks": 96,
            "midi": 61,
            "name": "C#4",
            "ticks": 62976,
            "time": 87.079572,
            "velocity": 0.7874015748031497
          },
          {
            "duration": 0.1327432500000043,
            "durationTicks": 96,
            "midi": 52,
            "name": "E3",
            "ticks": 63024,
            "time": 87.145943625,
            "velocity": 0.5905511811023622
          },
          {
            "duration": 0.1327432500000043,
            "durationTicks": 96,
            "midi": 61,
            "name": "C#4",
            "ticks": 63024,
            "time": 87.145943625,
            "velocity": 0.5905511811023622
          },
          {
            "duration": 0.1327432500000043,
            "durationTicks": 96,
            "midi": 56,
            "name": "G#3",
            "ticks": 63072,
            "time": 87.21231525,
            "velocity": 0.7874015748031497
          },
          {
            "duration": 0.1327432500000043,
            "durationTicks": 96,
            "midi": 64,
            "name": "E4",
            "ticks": 63072,
            "time": 87.21231525,
            "velocity": 0.7874015748031497
          },
          {
            "duration": 0.1327432500000043,
            "durationTicks": 96,
            "midi": 56,
            "name": "G#3",
            "ticks": 63120,
            "time": 87.278686875,
            "velocity": 0.5905511811023622
          },
          {
            "duration": 0.1327432500000043,
            "durationTicks": 96,
            "midi": 64,
            "name": "E4",
            "ticks": 63120,
            "time": 87.278686875,
            "velocity": 0.5905511811023622
          },
          {
            "duration": 0.1327432499999901,
            "durationTicks": 96,
            "midi": 54,
            "name": "F#3",
            "ticks": 63168,
            "time": 87.34505850000001,
            "velocity": 0.7874015748031497
          },
          {
            "duration": 0.1327432499999901,
            "durationTicks": 96,
            "midi": 63,
            "name": "D#4",
            "ticks": 63168,
            "time": 87.34505850000001,
            "velocity": 0.7874015748031497
          },
          {
            "duration": 0.1327432499999901,
            "durationTicks": 96,
            "midi": 63,
            "name": "D#4",
            "ticks": 63216,
            "time": 87.41143012500001,
            "velocity": 0.5905511811023622
          },
          {
            "duration": 0.1327432499999901,
            "durationTicks": 96,
            "midi": 54,
            "name": "F#3",
            "ticks": 63216,
            "time": 87.41143012500001,
            "velocity": 0.5905511811023622
          },
          {
            "duration": 0.1327432500000043,
            "durationTicks": 96,
            "midi": 56,
            "name": "G#3",
            "ticks": 63264,
            "time": 87.47780175,
            "velocity": 0.7874015748031497
          },
          {
            "duration": 0.1327432500000043,
            "durationTicks": 96,
            "midi": 64,
            "name": "E4",
            "ticks": 63264,
            "time": 87.47780175,
            "velocity": 0.7874015748031497
          },
          {
            "duration": 0.1327432500000043,
            "durationTicks": 96,
            "midi": 56,
            "name": "G#3",
            "ticks": 63312,
            "time": 87.544173375,
            "velocity": 0.5905511811023622
          },
          {
            "duration": 0.1327432500000043,
            "durationTicks": 96,
            "midi": 64,
            "name": "E4",
            "ticks": 63312,
            "time": 87.544173375,
            "velocity": 0.5905511811023622
          },
          {
            "duration": 0.1327432500000043,
            "durationTicks": 96,
            "midi": 52,
            "name": "E3",
            "ticks": 63360,
            "time": 87.610545,
            "velocity": 0.7874015748031497
          },
          {
            "duration": 0.1327432500000043,
            "durationTicks": 96,
            "midi": 61,
            "name": "C#4",
            "ticks": 63360,
            "time": 87.610545,
            "velocity": 0.7874015748031497
          },
          {
            "duration": 0.1327432500000043,
            "durationTicks": 96,
            "midi": 52,
            "name": "E3",
            "ticks": 63408,
            "time": 87.676916625,
            "velocity": 0.5905511811023622
          },
          {
            "duration": 0.1327432500000043,
            "durationTicks": 96,
            "midi": 61,
            "name": "C#4",
            "ticks": 63408,
            "time": 87.676916625,
            "velocity": 0.5905511811023622
          },
          {
            "duration": 0.1327432500000043,
            "durationTicks": 96,
            "midi": 52,
            "name": "E3",
            "ticks": 63456,
            "time": 87.74328825,
            "velocity": 0.4881889763779528
          },
          {
            "duration": 0.1327432500000043,
            "durationTicks": 96,
            "midi": 61,
            "name": "C#4",
            "ticks": 63456,
            "time": 87.74328825,
            "velocity": 0.4881889763779528
          },
          {
            "duration": 0.1327432499999901,
            "durationTicks": 96,
            "midi": 52,
            "name": "E3",
            "ticks": 63504,
            "time": 87.80965987500001,
            "velocity": 0.4330708661417323
          },
          {
            "duration": 0.1327432499999901,
            "durationTicks": 96,
            "midi": 61,
            "name": "C#4",
            "ticks": 63504,
            "time": 87.80965987500001,
            "velocity": 0.4330708661417323
          },
          {
            "duration": 0.2654865000000086,
            "durationTicks": 192,
            "midi": 61,
            "name": "C#4",
            "ticks": 63648,
            "time": 88.00877475,
            "velocity": 0.7874015748031497
          },
          {
            "duration": 0.2654865000000086,
            "durationTicks": 192,
            "midi": 52,
            "name": "E3",
            "ticks": 63648,
            "time": 88.00877475,
            "velocity": 0.7874015748031497
          },
          {
            "duration": 0.1327432499999901,
            "durationTicks": 96,
            "midi": 63,
            "name": "D#4",
            "ticks": 63840,
            "time": 88.27426125000001,
            "velocity": 0.7874015748031497
          },
          {
            "duration": 0.1327432499999901,
            "durationTicks": 96,
            "midi": 54,
            "name": "F#3",
            "ticks": 63840,
            "time": 88.27426125000001,
            "velocity": 0.7874015748031497
          },
          {
            "duration": 0.1327432499999901,
            "durationTicks": 96,
            "midi": 63,
            "name": "D#4",
            "ticks": 63888,
            "time": 88.34063287500001,
            "velocity": 0.5905511811023622
          },
          {
            "duration": 0.1327432499999901,
            "durationTicks": 96,
            "midi": 54,
            "name": "F#3",
            "ticks": 63888,
            "time": 88.34063287500001,
            "velocity": 0.5905511811023622
          },
          {
            "duration": 0.1327432500000043,
            "durationTicks": 96,
            "midi": 56,
            "name": "G#3",
            "ticks": 63936,
            "time": 88.4070045,
            "velocity": 0.7874015748031497
          },
          {
            "duration": 0.1327432500000043,
            "durationTicks": 96,
            "midi": 64,
            "name": "E4",
            "ticks": 63936,
            "time": 88.4070045,
            "velocity": 0.7874015748031497
          },
          {
            "duration": 0.1327432500000043,
            "durationTicks": 96,
            "midi": 64,
            "name": "E4",
            "ticks": 63984,
            "time": 88.473376125,
            "velocity": 0.5905511811023622
          },
          {
            "duration": 0.1327432500000043,
            "durationTicks": 96,
            "midi": 56,
            "name": "G#3",
            "ticks": 63984,
            "time": 88.473376125,
            "velocity": 0.5905511811023622
          },
          {
            "duration": 0.1327432500000043,
            "durationTicks": 96,
            "midi": 64,
            "name": "E4",
            "ticks": 64032,
            "time": 88.53974775,
            "velocity": 0.7874015748031497
          },
          {
            "duration": 0.1327432500000043,
            "durationTicks": 96,
            "midi": 71,
            "name": "B4",
            "ticks": 64032,
            "time": 88.53974775,
            "velocity": 0.7874015748031497
          },
          {
            "duration": 0.1327432500000043,
            "durationTicks": 96,
            "midi": 64,
            "name": "E4",
            "ticks": 64080,
            "time": 88.606119375,
            "velocity": 0.5905511811023622
          },
          {
            "duration": 0.1327432500000043,
            "durationTicks": 96,
            "midi": 71,
            "name": "B4",
            "ticks": 64080,
            "time": 88.606119375,
            "velocity": 0.5905511811023622
          },
          {
            "duration": 0.1327432499999901,
            "durationTicks": 96,
            "midi": 61,
            "name": "C#4",
            "ticks": 64128,
            "time": 88.67249100000001,
            "velocity": 0.7874015748031497
          },
          {
            "duration": 0.1327432499999901,
            "durationTicks": 96,
            "midi": 68,
            "name": "G#4",
            "ticks": 64128,
            "time": 88.67249100000001,
            "velocity": 0.7874015748031497
          },
          {
            "duration": 0.1327432499999901,
            "durationTicks": 96,
            "midi": 68,
            "name": "G#4",
            "ticks": 64176,
            "time": 88.73886262500001,
            "velocity": 0.5905511811023622
          },
          {
            "duration": 0.1327432499999901,
            "durationTicks": 96,
            "midi": 61,
            "name": "C#4",
            "ticks": 64176,
            "time": 88.73886262500001,
            "velocity": 0.5905511811023622
          },
          {
            "duration": 0.1327432500000043,
            "durationTicks": 96,
            "midi": 61,
            "name": "C#4",
            "ticks": 64224,
            "time": 88.80523425,
            "velocity": 0.4881889763779528
          },
          {
            "duration": 0.1327432500000043,
            "durationTicks": 96,
            "midi": 68,
            "name": "G#4",
            "ticks": 64224,
            "time": 88.80523425,
            "velocity": 0.4881889763779528
          },
          {
            "duration": 0.1327432500000043,
            "durationTicks": 96,
            "midi": 68,
            "name": "G#4",
            "ticks": 64272,
            "time": 88.871605875,
            "velocity": 0.4330708661417323
          },
          {
            "duration": 0.1327432500000043,
            "durationTicks": 96,
            "midi": 61,
            "name": "C#4",
            "ticks": 64272,
            "time": 88.871605875,
            "velocity": 0.4330708661417323
          },
          {
            "duration": 0.1327432499999901,
            "durationTicks": 96,
            "midi": 52,
            "name": "E3",
            "ticks": 64512,
            "time": 89.20346400000001,
            "velocity": 0.7874015748031497
          },
          {
            "duration": 0.1327432499999901,
            "durationTicks": 96,
            "midi": 61,
            "name": "C#4",
            "ticks": 64512,
            "time": 89.20346400000001,
            "velocity": 0.7874015748031497
          },
          {
            "duration": 0.1327432500000043,
            "durationTicks": 96,
            "midi": 52,
            "name": "E3",
            "ticks": 64560,
            "time": 89.269835625,
            "velocity": 0.5905511811023622
          },
          {
            "duration": 0.1327432500000043,
            "durationTicks": 96,
            "midi": 61,
            "name": "C#4",
            "ticks": 64560,
            "time": 89.269835625,
            "velocity": 0.5905511811023622
          },
          {
            "duration": 0.1327432500000043,
            "durationTicks": 96,
            "midi": 64,
            "name": "E4",
            "ticks": 64608,
            "time": 89.33620725,
            "velocity": 0.7874015748031497
          },
          {
            "duration": 0.1327432500000043,
            "durationTicks": 96,
            "midi": 56,
            "name": "G#3",
            "ticks": 64608,
            "time": 89.33620725,
            "velocity": 0.7874015748031497
          },
          {
            "duration": 0.1327432500000043,
            "durationTicks": 96,
            "midi": 64,
            "name": "E4",
            "ticks": 64656,
            "time": 89.402578875,
            "velocity": 0.5905511811023622
          },
          {
            "duration": 0.1327432500000043,
            "durationTicks": 96,
            "midi": 56,
            "name": "G#3",
            "ticks": 64656,
            "time": 89.402578875,
            "velocity": 0.5905511811023622
          },
          {
            "duration": 0.1327432500000043,
            "durationTicks": 96,
            "midi": 54,
            "name": "F#3",
            "ticks": 64704,
            "time": 89.4689505,
            "velocity": 0.7874015748031497
          },
          {
            "duration": 0.1327432500000043,
            "durationTicks": 96,
            "midi": 63,
            "name": "D#4",
            "ticks": 64704,
            "time": 89.4689505,
            "velocity": 0.7874015748031497
          },
          {
            "duration": 0.1327432500000043,
            "durationTicks": 96,
            "midi": 63,
            "name": "D#4",
            "ticks": 64752,
            "time": 89.53532212500001,
            "velocity": 0.5905511811023622
          },
          {
            "duration": 0.1327432500000043,
            "durationTicks": 96,
            "midi": 54,
            "name": "F#3",
            "ticks": 64752,
            "time": 89.53532212500001,
            "velocity": 0.5905511811023622
          },
          {
            "duration": 0.1327432499999901,
            "durationTicks": 96,
            "midi": 56,
            "name": "G#3",
            "ticks": 64800,
            "time": 89.60169375000001,
            "velocity": 0.7874015748031497
          },
          {
            "duration": 0.1327432499999901,
            "durationTicks": 96,
            "midi": 64,
            "name": "E4",
            "ticks": 64800,
            "time": 89.60169375000001,
            "velocity": 0.7874015748031497
          },
          {
            "duration": 0.1327432499999901,
            "durationTicks": 96,
            "midi": 56,
            "name": "G#3",
            "ticks": 64848,
            "time": 89.66806537500001,
            "velocity": 0.5905511811023622
          },
          {
            "duration": 0.1327432499999901,
            "durationTicks": 96,
            "midi": 64,
            "name": "E4",
            "ticks": 64848,
            "time": 89.66806537500001,
            "velocity": 0.5905511811023622
          },
          {
            "duration": 0.1327432500000043,
            "durationTicks": 96,
            "midi": 61,
            "name": "C#4",
            "ticks": 64896,
            "time": 89.734437,
            "velocity": 0.7874015748031497
          },
          {
            "duration": 0.1327432500000043,
            "durationTicks": 96,
            "midi": 52,
            "name": "E3",
            "ticks": 64896,
            "time": 89.734437,
            "velocity": 0.7874015748031497
          },
          {
            "duration": 0.1327432500000043,
            "durationTicks": 96,
            "midi": 61,
            "name": "C#4",
            "ticks": 64944,
            "time": 89.800808625,
            "velocity": 0.5905511811023622
          },
          {
            "duration": 0.1327432500000043,
            "durationTicks": 96,
            "midi": 52,
            "name": "E3",
            "ticks": 64944,
            "time": 89.800808625,
            "velocity": 0.5905511811023622
          },
          {
            "duration": 0.1327432500000043,
            "durationTicks": 96,
            "midi": 52,
            "name": "E3",
            "ticks": 64992,
            "time": 89.86718025,
            "velocity": 0.4881889763779528
          },
          {
            "duration": 0.1327432500000043,
            "durationTicks": 96,
            "midi": 61,
            "name": "C#4",
            "ticks": 64992,
            "time": 89.86718025,
            "velocity": 0.4881889763779528
          },
          {
            "duration": 0.1327432500000043,
            "durationTicks": 96,
            "midi": 61,
            "name": "C#4",
            "ticks": 65040,
            "time": 89.933551875,
            "velocity": 0.4330708661417323
          },
          {
            "duration": 0.1327432500000043,
            "durationTicks": 96,
            "midi": 52,
            "name": "E3",
            "ticks": 65040,
            "time": 89.933551875,
            "velocity": 0.4330708661417323
          },
          {
            "duration": 0.2654865000000086,
            "durationTicks": 192,
            "midi": 61,
            "name": "C#4",
            "ticks": 65184,
            "time": 90.13266675,
            "velocity": 0.7874015748031497
          },
          {
            "duration": 0.2654865000000086,
            "durationTicks": 192,
            "midi": 52,
            "name": "E3",
            "ticks": 65184,
            "time": 90.13266675,
            "velocity": 0.7874015748031497
          },
          {
            "duration": 0.1327432500000043,
            "durationTicks": 96,
            "midi": 63,
            "name": "D#4",
            "ticks": 65376,
            "time": 90.39815325000001,
            "velocity": 0.7874015748031497
          },
          {
            "duration": 0.1327432500000043,
            "durationTicks": 96,
            "midi": 54,
            "name": "F#3",
            "ticks": 65376,
            "time": 90.39815325000001,
            "velocity": 0.7874015748031497
          },
          {
            "duration": 0.1327432499999901,
            "durationTicks": 96,
            "midi": 63,
            "name": "D#4",
            "ticks": 65424,
            "time": 90.46452487500001,
            "velocity": 0.5905511811023622
          },
          {
            "duration": 0.1327432499999901,
            "durationTicks": 96,
            "midi": 54,
            "name": "F#3",
            "ticks": 65424,
            "time": 90.46452487500001,
            "velocity": 0.5905511811023622
          },
          {
            "duration": 0.1327432499999901,
            "durationTicks": 96,
            "midi": 56,
            "name": "G#3",
            "ticks": 65472,
            "time": 90.53089650000001,
            "velocity": 0.7874015748031497
          },
          {
            "duration": 0.1327432499999901,
            "durationTicks": 96,
            "midi": 64,
            "name": "E4",
            "ticks": 65472,
            "time": 90.53089650000001,
            "velocity": 0.7874015748031497
          },
          {
            "duration": 0.1327432500000043,
            "durationTicks": 96,
            "midi": 56,
            "name": "G#3",
            "ticks": 65520,
            "time": 90.597268125,
            "velocity": 0.5905511811023622
          },
          {
            "duration": 0.1327432500000043,
            "durationTicks": 96,
            "midi": 64,
            "name": "E4",
            "ticks": 65520,
            "time": 90.597268125,
            "velocity": 0.5905511811023622
          },
          {
            "duration": 0.1327432500000043,
            "durationTicks": 96,
            "midi": 71,
            "name": "B4",
            "ticks": 65568,
            "time": 90.66363975,
            "velocity": 0.7874015748031497
          },
          {
            "duration": 0.1327432500000043,
            "durationTicks": 96,
            "midi": 64,
            "name": "E4",
            "ticks": 65568,
            "time": 90.66363975,
            "velocity": 0.7874015748031497
          },
          {
            "duration": 0.1327432500000043,
            "durationTicks": 96,
            "midi": 71,
            "name": "B4",
            "ticks": 65616,
            "time": 90.730011375,
            "velocity": 0.5905511811023622
          },
          {
            "duration": 0.1327432500000043,
            "durationTicks": 96,
            "midi": 64,
            "name": "E4",
            "ticks": 65616,
            "time": 90.730011375,
            "velocity": 0.5905511811023622
          },
          {
            "duration": 0.1327432500000043,
            "durationTicks": 96,
            "midi": 61,
            "name": "C#4",
            "ticks": 65664,
            "time": 90.796383,
            "velocity": 0.7874015748031497
          },
          {
            "duration": 0.1327432500000043,
            "durationTicks": 96,
            "midi": 68,
            "name": "G#4",
            "ticks": 65664,
            "time": 90.796383,
            "velocity": 0.7874015748031497
          },
          {
            "duration": 0.1327432499999901,
            "durationTicks": 96,
            "midi": 61,
            "name": "C#4",
            "ticks": 65712,
            "time": 90.86275462500001,
            "velocity": 0.5905511811023622
          },
          {
            "duration": 0.1327432499999901,
            "durationTicks": 96,
            "midi": 68,
            "name": "G#4",
            "ticks": 65712,
            "time": 90.86275462500001,
            "velocity": 0.5905511811023622
          },
          {
            "duration": 0.1327432499999901,
            "durationTicks": 96,
            "midi": 68,
            "name": "G#4",
            "ticks": 65760,
            "time": 90.92912625000001,
            "velocity": 0.4881889763779528
          },
          {
            "duration": 0.1327432499999901,
            "durationTicks": 96,
            "midi": 61,
            "name": "C#4",
            "ticks": 65760,
            "time": 90.92912625000001,
            "velocity": 0.4881889763779528
          },
          {
            "duration": 0.1327432500000043,
            "durationTicks": 96,
            "midi": 61,
            "name": "C#4",
            "ticks": 65808,
            "time": 90.995497875,
            "velocity": 0.4330708661417323
          },
          {
            "duration": 0.1327432500000043,
            "durationTicks": 96,
            "midi": 68,
            "name": "G#4",
            "ticks": 65808,
            "time": 90.995497875,
            "velocity": 0.4330708661417323
          },
          {
            "duration": 0.1327432499999901,
            "durationTicks": 96,
            "midi": 61,
            "name": "C#4",
            "ticks": 66048,
            "time": 91.32735600000001,
            "velocity": 0.7874015748031497
          },
          {
            "duration": 0.1327432499999901,
            "durationTicks": 96,
            "midi": 52,
            "name": "E3",
            "ticks": 66048,
            "time": 91.32735600000001,
            "velocity": 0.7874015748031497
          },
          {
            "duration": 0.1327432499999901,
            "durationTicks": 96,
            "midi": 52,
            "name": "E3",
            "ticks": 66096,
            "time": 91.39372762500001,
            "velocity": 0.5905511811023622
          },
          {
            "duration": 0.1327432499999901,
            "durationTicks": 96,
            "midi": 61,
            "name": "C#4",
            "ticks": 66096,
            "time": 91.39372762500001,
            "velocity": 0.5905511811023622
          },
          {
            "duration": 0.1327432500000043,
            "durationTicks": 96,
            "midi": 64,
            "name": "E4",
            "ticks": 66144,
            "time": 91.46009925,
            "velocity": 0.7874015748031497
          },
          {
            "duration": 0.1327432500000043,
            "durationTicks": 96,
            "midi": 56,
            "name": "G#3",
            "ticks": 66144,
            "time": 91.46009925,
            "velocity": 0.7874015748031497
          },
          {
            "duration": 0.1327432500000043,
            "durationTicks": 96,
            "midi": 56,
            "name": "G#3",
            "ticks": 66192,
            "time": 91.526470875,
            "velocity": 0.5905511811023622
          },
          {
            "duration": 0.1327432500000043,
            "durationTicks": 96,
            "midi": 64,
            "name": "E4",
            "ticks": 66192,
            "time": 91.526470875,
            "velocity": 0.5905511811023622
          },
          {
            "duration": 0.1327432500000043,
            "durationTicks": 96,
            "midi": 63,
            "name": "D#4",
            "ticks": 66240,
            "time": 91.5928425,
            "velocity": 0.7874015748031497
          },
          {
            "duration": 0.1327432500000043,
            "durationTicks": 96,
            "midi": 54,
            "name": "F#3",
            "ticks": 66240,
            "time": 91.5928425,
            "velocity": 0.7874015748031497
          },
          {
            "duration": 0.1327432500000043,
            "durationTicks": 96,
            "midi": 54,
            "name": "F#3",
            "ticks": 66288,
            "time": 91.659214125,
            "velocity": 0.5905511811023622
          },
          {
            "duration": 0.1327432500000043,
            "durationTicks": 96,
            "midi": 63,
            "name": "D#4",
            "ticks": 66288,
            "time": 91.659214125,
            "velocity": 0.5905511811023622
          },
          {
            "duration": 0.1327432500000043,
            "durationTicks": 96,
            "midi": 56,
            "name": "G#3",
            "ticks": 66336,
            "time": 91.72558575000001,
            "velocity": 0.7874015748031497
          },
          {
            "duration": 0.1327432500000043,
            "durationTicks": 96,
            "midi": 64,
            "name": "E4",
            "ticks": 66336,
            "time": 91.72558575000001,
            "velocity": 0.7874015748031497
          },
          {
            "duration": 0.1327432499999901,
            "durationTicks": 96,
            "midi": 64,
            "name": "E4",
            "ticks": 66384,
            "time": 91.79195737500001,
            "velocity": 0.5905511811023622
          },
          {
            "duration": 0.1327432499999901,
            "durationTicks": 96,
            "midi": 56,
            "name": "G#3",
            "ticks": 66384,
            "time": 91.79195737500001,
            "velocity": 0.5905511811023622
          },
          {
            "duration": 0.1327432499999901,
            "durationTicks": 96,
            "midi": 52,
            "name": "E3",
            "ticks": 66432,
            "time": 91.85832900000001,
            "velocity": 0.7874015748031497
          },
          {
            "duration": 0.1327432499999901,
            "durationTicks": 96,
            "midi": 61,
            "name": "C#4",
            "ticks": 66432,
            "time": 91.85832900000001,
            "velocity": 0.7874015748031497
          },
          {
            "duration": 0.1327432500000043,
            "durationTicks": 96,
            "midi": 52,
            "name": "E3",
            "ticks": 66480,
            "time": 91.924700625,
            "velocity": 0.5905511811023622
          },
          {
            "duration": 0.1327432500000043,
            "durationTicks": 96,
            "midi": 61,
            "name": "C#4",
            "ticks": 66480,
            "time": 91.924700625,
            "velocity": 0.5905511811023622
          },
          {
            "duration": 0.1327432500000043,
            "durationTicks": 96,
            "midi": 52,
            "name": "E3",
            "ticks": 66528,
            "time": 91.99107225,
            "velocity": 0.4881889763779528
          },
          {
            "duration": 0.1327432500000043,
            "durationTicks": 96,
            "midi": 61,
            "name": "C#4",
            "ticks": 66528,
            "time": 91.99107225,
            "velocity": 0.4881889763779528
          },
          {
            "duration": 0.1327432500000043,
            "durationTicks": 96,
            "midi": 52,
            "name": "E3",
            "ticks": 66576,
            "time": 92.057443875,
            "velocity": 0.4330708661417323
          },
          {
            "duration": 0.1327432500000043,
            "durationTicks": 96,
            "midi": 61,
            "name": "C#4",
            "ticks": 66576,
            "time": 92.057443875,
            "velocity": 0.4330708661417323
          },
          {
            "duration": 0.2654864999999944,
            "durationTicks": 192,
            "midi": 52,
            "name": "E3",
            "ticks": 66720,
            "time": 92.25655875000001,
            "velocity": 0.7874015748031497
          },
          {
            "duration": 0.2654864999999944,
            "durationTicks": 192,
            "midi": 61,
            "name": "C#4",
            "ticks": 66720,
            "time": 92.25655875000001,
            "velocity": 0.7874015748031497
          },
          {
            "duration": 0.1327432500000043,
            "durationTicks": 96,
            "midi": 63,
            "name": "D#4",
            "ticks": 66912,
            "time": 92.52204525,
            "velocity": 0.7874015748031497
          },
          {
            "duration": 0.1327432500000043,
            "durationTicks": 96,
            "midi": 54,
            "name": "F#3",
            "ticks": 66912,
            "time": 92.52204525,
            "velocity": 0.7874015748031497
          },
          {
            "duration": 0.1327432500000043,
            "durationTicks": 96,
            "midi": 54,
            "name": "F#3",
            "ticks": 66960,
            "time": 92.58841687500001,
            "velocity": 0.5905511811023622
          },
          {
            "duration": 0.1327432500000043,
            "durationTicks": 96,
            "midi": 63,
            "name": "D#4",
            "ticks": 66960,
            "time": 92.58841687500001,
            "velocity": 0.5905511811023622
          },
          {
            "duration": 0.1327432499999901,
            "durationTicks": 96,
            "midi": 56,
            "name": "G#3",
            "ticks": 67008,
            "time": 92.65478850000001,
            "velocity": 0.7874015748031497
          },
          {
            "duration": 0.1327432499999901,
            "durationTicks": 96,
            "midi": 64,
            "name": "E4",
            "ticks": 67008,
            "time": 92.65478850000001,
            "velocity": 0.7874015748031497
          },
          {
            "duration": 0.1327432499999901,
            "durationTicks": 96,
            "midi": 56,
            "name": "G#3",
            "ticks": 67056,
            "time": 92.72116012500001,
            "velocity": 0.5905511811023622
          },
          {
            "duration": 0.1327432499999901,
            "durationTicks": 96,
            "midi": 64,
            "name": "E4",
            "ticks": 67056,
            "time": 92.72116012500001,
            "velocity": 0.5905511811023622
          },
          {
            "duration": 0.1327432500000043,
            "durationTicks": 96,
            "midi": 71,
            "name": "B4",
            "ticks": 67104,
            "time": 92.78753175,
            "velocity": 0.7874015748031497
          },
          {
            "duration": 0.1327432500000043,
            "durationTicks": 96,
            "midi": 64,
            "name": "E4",
            "ticks": 67104,
            "time": 92.78753175,
            "velocity": 0.7874015748031497
          },
          {
            "duration": 0.1327432500000043,
            "durationTicks": 96,
            "midi": 71,
            "name": "B4",
            "ticks": 67152,
            "time": 92.853903375,
            "velocity": 0.5905511811023622
          },
          {
            "duration": 0.1327432500000043,
            "durationTicks": 96,
            "midi": 64,
            "name": "E4",
            "ticks": 67152,
            "time": 92.853903375,
            "velocity": 0.5905511811023622
          },
          {
            "duration": 0.1327432500000043,
            "durationTicks": 96,
            "midi": 68,
            "name": "G#4",
            "ticks": 67200,
            "time": 92.920275,
            "velocity": 0.7874015748031497
          },
          {
            "duration": 0.1327432500000043,
            "durationTicks": 96,
            "midi": 61,
            "name": "C#4",
            "ticks": 67200,
            "time": 92.920275,
            "velocity": 0.7874015748031497
          },
          {
            "duration": 0.1327432500000043,
            "durationTicks": 96,
            "midi": 61,
            "name": "C#4",
            "ticks": 67248,
            "time": 92.986646625,
            "velocity": 0.5905511811023622
          },
          {
            "duration": 0.1327432500000043,
            "durationTicks": 96,
            "midi": 68,
            "name": "G#4",
            "ticks": 67248,
            "time": 92.986646625,
            "velocity": 0.5905511811023622
          },
          {
            "duration": 0.1327432499999901,
            "durationTicks": 96,
            "midi": 68,
            "name": "G#4",
            "ticks": 67296,
            "time": 93.05301825000001,
            "velocity": 0.4881889763779528
          },
          {
            "duration": 0.1327432499999901,
            "durationTicks": 96,
            "midi": 61,
            "name": "C#4",
            "ticks": 67296,
            "time": 93.05301825000001,
            "velocity": 0.4881889763779528
          },
          {
            "duration": 0.1327432499999901,
            "durationTicks": 96,
            "midi": 68,
            "name": "G#4",
            "ticks": 67344,
            "time": 93.11938987500001,
            "velocity": 0.4330708661417323
          },
          {
            "duration": 0.1327432499999901,
            "durationTicks": 96,
            "midi": 61,
            "name": "C#4",
            "ticks": 67344,
            "time": 93.11938987500001,
            "velocity": 0.4330708661417323
          },
          {
            "duration": 0.3982297499999987,
            "durationTicks": 288,
            "midi": 59,
            "name": "B3",
            "ticks": 67584,
            "time": 93.451248,
            "velocity": 0.7874015748031497
          },
          {
            "duration": 0.1327432500000043,
            "durationTicks": 96,
            "midi": 51,
            "name": "D#3",
            "ticks": 67584,
            "time": 93.451248,
            "velocity": 0.7874015748031497
          },
          {
            "duration": 0.1327432499999901,
            "durationTicks": 96,
            "midi": 51,
            "name": "D#3",
            "ticks": 67632,
            "time": 93.51761962500001,
            "velocity": 0.5905511811023622
          },
          {
            "duration": 0.1327432499999901,
            "durationTicks": 96,
            "midi": 54,
            "name": "F#3",
            "ticks": 67680,
            "time": 93.58399125000001,
            "velocity": 0.7874015748031497
          },
          {
            "duration": 0.1327432500000043,
            "durationTicks": 96,
            "midi": 54,
            "name": "F#3",
            "ticks": 67728,
            "time": 93.650362875,
            "velocity": 0.5905511811023622
          },
          {
            "duration": 0.1327432500000043,
            "durationTicks": 96,
            "midi": 56,
            "name": "G#3",
            "ticks": 67776,
            "time": 93.7167345,
            "velocity": 0.7874015748031497
          },
          {
            "duration": 0.1327432500000043,
            "durationTicks": 96,
            "midi": 56,
            "name": "G#3",
            "ticks": 67824,
            "time": 93.783106125,
            "velocity": 0.5905511811023622
          },
          {
            "duration": 0.1327432500000043,
            "durationTicks": 96,
            "midi": 54,
            "name": "F#3",
            "ticks": 67872,
            "time": 93.84947775,
            "velocity": 0.7874015748031497
          },
          {
            "duration": 0.3982297499999987,
            "durationTicks": 288,
            "midi": 66,
            "name": "F#4",
            "ticks": 67872,
            "time": 93.84947775,
            "velocity": 0.7874015748031497
          },
          {
            "duration": 0.1327432500000043,
            "durationTicks": 96,
            "midi": 54,
            "name": "F#3",
            "ticks": 67920,
            "time": 93.91584937500001,
            "velocity": 0.5905511811023622
          },
          {
            "duration": 0.1327432500000043,
            "durationTicks": 96,
            "midi": 56,
            "name": "G#3",
            "ticks": 68064,
            "time": 94.11496425,
            "velocity": 0.7874015748031497
          },
          {
            "duration": 0.1327432500000043,
            "durationTicks": 96,
            "midi": 56,
            "name": "G#3",
            "ticks": 68112,
            "time": 94.181335875,
            "velocity": 0.5905511811023622
          },
          {
            "duration": 0.1327432500000043,
            "durationTicks": 96,
            "midi": 59,
            "name": "B3",
            "ticks": 68160,
            "time": 94.2477075,
            "velocity": 0.7874015748031497
          },
          {
            "duration": 0.1327432500000043,
            "durationTicks": 96,
            "midi": 64,
            "name": "E4",
            "ticks": 68160,
            "time": 94.2477075,
            "velocity": 0.7874015748031497
          },
          {
            "duration": 0.1327432499999901,
            "durationTicks": 96,
            "midi": 59,
            "name": "B3",
            "ticks": 68256,
            "time": 94.38045075000001,
            "velocity": 0.5905511811023622
          },
          {
            "duration": 0.1327432499999901,
            "durationTicks": 96,
            "midi": 64,
            "name": "E4",
            "ticks": 68256,
            "time": 94.38045075000001,
            "velocity": 0.5905511811023622
          },
          {
            "duration": 0.1327432499999901,
            "durationTicks": 96,
            "midi": 63,
            "name": "D#4",
            "ticks": 68304,
            "time": 94.44682237500001,
            "velocity": 0.7874015748031497
          },
          {
            "duration": 0.1327432500000043,
            "durationTicks": 96,
            "midi": 59,
            "name": "B3",
            "ticks": 68352,
            "time": 94.513194,
            "velocity": 0.7874015748031497
          },
          {
            "duration": 0.1327432500000043,
            "durationTicks": 96,
            "midi": 63,
            "name": "D#4",
            "ticks": 68352,
            "time": 94.513194,
            "velocity": 0.7874015748031497
          },
          {
            "duration": 0.1327432500000043,
            "durationTicks": 96,
            "midi": 56,
            "name": "G#3",
            "ticks": 68448,
            "time": 94.64593725,
            "velocity": 0.7874015748031497
          },
          {
            "duration": 0.1327432500000043,
            "durationTicks": 96,
            "midi": 61,
            "name": "C#4",
            "ticks": 68448,
            "time": 94.64593725,
            "velocity": 0.7874015748031497
          },
          {
            "duration": 0.1327432500000043,
            "durationTicks": 96,
            "midi": 61,
            "name": "C#4",
            "ticks": 68544,
            "time": 94.77868050000001,
            "velocity": 0.5905511811023622
          },
          {
            "duration": 0.1327432500000043,
            "durationTicks": 96,
            "midi": 56,
            "name": "G#3",
            "ticks": 68544,
            "time": 94.77868050000001,
            "velocity": 0.5905511811023622
          },
          {
            "duration": 0.2654864999999944,
            "durationTicks": 192,
            "midi": 54,
            "name": "F#3",
            "ticks": 68640,
            "time": 94.91142375000001,
            "velocity": 0.7874015748031497
          },
          {
            "duration": 0.2654864999999944,
            "durationTicks": 192,
            "midi": 59,
            "name": "B3",
            "ticks": 68640,
            "time": 94.91142375000001,
            "velocity": 0.7874015748031497
          },
          {
            "duration": 0.1327432500000043,
            "durationTicks": 96,
            "midi": 54,
            "name": "F#3",
            "ticks": 68832,
            "time": 95.17691025,
            "velocity": 0.5905511811023622
          },
          {
            "duration": 0.1327432500000043,
            "durationTicks": 96,
            "midi": 61,
            "name": "C#4",
            "ticks": 68832,
            "time": 95.17691025,
            "velocity": 0.7874015748031497
          },
          {
            "duration": 0.1327432499999901,
            "durationTicks": 96,
            "midi": 63,
            "name": "D#4",
            "ticks": 68880,
            "time": 95.24328187500001,
            "velocity": 0.7874015748031497
          },
          {
            "duration": 0.2654864999999944,
            "durationTicks": 192,
            "midi": 63,
            "name": "D#4",
            "ticks": 68928,
            "time": 95.30965350000001,
            "velocity": 0.7874015748031497
          },
          {
            "duration": 0.2654864999999944,
            "durationTicks": 192,
            "midi": 59,
            "name": "B3",
            "ticks": 68928,
            "time": 95.30965350000001,
            "velocity": 0.7874015748031497
          },
          {
            "duration": 0.1327432500000043,
            "durationTicks": 96,
            "midi": 52,
            "name": "E3",
            "ticks": 69120,
            "time": 95.57514,
            "velocity": 0.7874015748031497
          },
          {
            "duration": 0.1327432500000043,
            "durationTicks": 96,
            "midi": 61,
            "name": "C#4",
            "ticks": 69120,
            "time": 95.57514,
            "velocity": 0.7874015748031497
          },
          {
            "duration": 0.1327432500000043,
            "durationTicks": 96,
            "midi": 52,
            "name": "E3",
            "ticks": 69168,
            "time": 95.641511625,
            "velocity": 0.5905511811023622
          },
          {
            "duration": 0.1327432500000043,
            "durationTicks": 96,
            "midi": 61,
            "name": "C#4",
            "ticks": 69168,
            "time": 95.641511625,
            "velocity": 0.5905511811023622
          },
          {
            "duration": 0.1327432499999901,
            "durationTicks": 96,
            "midi": 64,
            "name": "E4",
            "ticks": 69216,
            "time": 95.70788325000001,
            "velocity": 0.7874015748031497
          },
          {
            "duration": 0.1327432499999901,
            "durationTicks": 96,
            "midi": 56,
            "name": "G#3",
            "ticks": 69216,
            "time": 95.70788325000001,
            "velocity": 0.7874015748031497
          },
          {
            "duration": 0.1327432499999901,
            "durationTicks": 96,
            "midi": 56,
            "name": "G#3",
            "ticks": 69264,
            "time": 95.77425487500001,
            "velocity": 0.5905511811023622
          },
          {
            "duration": 0.1327432499999901,
            "durationTicks": 96,
            "midi": 64,
            "name": "E4",
            "ticks": 69264,
            "time": 95.77425487500001,
            "velocity": 0.5905511811023622
          },
          {
            "duration": 0.1327432500000043,
            "durationTicks": 96,
            "midi": 54,
            "name": "F#3",
            "ticks": 69312,
            "time": 95.8406265,
            "velocity": 0.7874015748031497
          },
          {
            "duration": 0.1327432500000043,
            "durationTicks": 96,
            "midi": 63,
            "name": "D#4",
            "ticks": 69312,
            "time": 95.8406265,
            "velocity": 0.7874015748031497
          },
          {
            "duration": 0.1327432500000043,
            "durationTicks": 96,
            "midi": 63,
            "name": "D#4",
            "ticks": 69360,
            "time": 95.906998125,
            "velocity": 0.5905511811023622
          },
          {
            "duration": 0.1327432500000043,
            "durationTicks": 96,
            "midi": 54,
            "name": "F#3",
            "ticks": 69360,
            "time": 95.906998125,
            "velocity": 0.5905511811023622
          },
          {
            "duration": 0.1327432500000043,
            "durationTicks": 96,
            "midi": 56,
            "name": "G#3",
            "ticks": 69408,
            "time": 95.97336975,
            "velocity": 0.7874015748031497
          },
          {
            "duration": 0.1327432500000043,
            "durationTicks": 96,
            "midi": 64,
            "name": "E4",
            "ticks": 69408,
            "time": 95.97336975,
            "velocity": 0.7874015748031497
          },
          {
            "duration": 0.1327432500000043,
            "durationTicks": 96,
            "midi": 64,
            "name": "E4",
            "ticks": 69456,
            "time": 96.039741375,
            "velocity": 0.5905511811023622
          },
          {
            "duration": 0.1327432500000043,
            "durationTicks": 96,
            "midi": 56,
            "name": "G#3",
            "ticks": 69456,
            "time": 96.039741375,
            "velocity": 0.5905511811023622
          },
          {
            "duration": 0.1327432500000043,
            "durationTicks": 96,
            "midi": 52,
            "name": "E3",
            "ticks": 69504,
            "time": 96.10611300000001,
            "velocity": 0.7874015748031497
          },
          {
            "duration": 0.1327432500000043,
            "durationTicks": 96,
            "midi": 61,
            "name": "C#4",
            "ticks": 69504,
            "time": 96.10611300000001,
            "velocity": 0.7874015748031497
          },
          {
            "duration": 0.1327432499999901,
            "durationTicks": 96,
            "midi": 61,
            "name": "C#4",
            "ticks": 69552,
            "time": 96.17248462500001,
            "velocity": 0.5905511811023622
          },
          {
            "duration": 0.1327432499999901,
            "durationTicks": 96,
            "midi": 52,
            "name": "E3",
            "ticks": 69552,
            "time": 96.17248462500001,
            "velocity": 0.5905511811023622
          },
          {
            "duration": 0.1327432499999901,
            "durationTicks": 96,
            "midi": 61,
            "name": "C#4",
            "ticks": 69600,
            "time": 96.23885625000001,
            "velocity": 0.4881889763779528
          },
          {
            "duration": 0.1327432499999901,
            "durationTicks": 96,
            "midi": 52,
            "name": "E3",
            "ticks": 69600,
            "time": 96.23885625000001,
            "velocity": 0.4881889763779528
          },
          {
            "duration": 0.1327432500000043,
            "durationTicks": 96,
            "midi": 61,
            "name": "C#4",
            "ticks": 69648,
            "time": 96.305227875,
            "velocity": 0.4330708661417323
          },
          {
            "duration": 0.1327432500000043,
            "durationTicks": 96,
            "midi": 52,
            "name": "E3",
            "ticks": 69648,
            "time": 96.305227875,
            "velocity": 0.4330708661417323
          },
          {
            "duration": 0.2654864999999944,
            "durationTicks": 192,
            "midi": 52,
            "name": "E3",
            "ticks": 69792,
            "time": 96.50434275,
            "velocity": 0.7874015748031497
          },
          {
            "duration": 0.2654864999999944,
            "durationTicks": 192,
            "midi": 61,
            "name": "C#4",
            "ticks": 69792,
            "time": 96.50434275,
            "velocity": 0.7874015748031497
          },
          {
            "duration": 0.1327432500000043,
            "durationTicks": 96,
            "midi": 54,
            "name": "F#3",
            "ticks": 69984,
            "time": 96.76982925,
            "velocity": 0.7874015748031497
          },
          {
            "duration": 0.1327432500000043,
            "durationTicks": 96,
            "midi": 63,
            "name": "D#4",
            "ticks": 69984,
            "time": 96.76982925,
            "velocity": 0.7874015748031497
          },
          {
            "duration": 0.1327432500000043,
            "durationTicks": 96,
            "midi": 63,
            "name": "D#4",
            "ticks": 70032,
            "time": 96.836200875,
            "velocity": 0.5905511811023622
          },
          {
            "duration": 0.1327432500000043,
            "durationTicks": 96,
            "midi": 54,
            "name": "F#3",
            "ticks": 70032,
            "time": 96.836200875,
            "velocity": 0.5905511811023622
          },
          {
            "duration": 0.1327432500000043,
            "durationTicks": 96,
            "midi": 64,
            "name": "E4",
            "ticks": 70080,
            "time": 96.9025725,
            "velocity": 0.7874015748031497
          },
          {
            "duration": 0.1327432500000043,
            "durationTicks": 96,
            "midi": 56,
            "name": "G#3",
            "ticks": 70080,
            "time": 96.9025725,
            "velocity": 0.7874015748031497
          },
          {
            "duration": 0.1327432500000043,
            "durationTicks": 96,
            "midi": 56,
            "name": "G#3",
            "ticks": 70128,
            "time": 96.96894412500001,
            "velocity": 0.5905511811023622
          },
          {
            "duration": 0.1327432500000043,
            "durationTicks": 96,
            "midi": 64,
            "name": "E4",
            "ticks": 70128,
            "time": 96.96894412500001,
            "velocity": 0.5905511811023622
          },
          {
            "duration": 0.1327432499999901,
            "durationTicks": 96,
            "midi": 64,
            "name": "E4",
            "ticks": 70176,
            "time": 97.03531575000001,
            "velocity": 0.7874015748031497
          },
          {
            "duration": 0.1327432499999901,
            "durationTicks": 96,
            "midi": 71,
            "name": "B4",
            "ticks": 70176,
            "time": 97.03531575000001,
            "velocity": 0.7874015748031497
          },
          {
            "duration": 0.1327432499999901,
            "durationTicks": 96,
            "midi": 64,
            "name": "E4",
            "ticks": 70224,
            "time": 97.10168737500001,
            "velocity": 0.5905511811023622
          },
          {
            "duration": 0.1327432499999901,
            "durationTicks": 96,
            "midi": 71,
            "name": "B4",
            "ticks": 70224,
            "time": 97.10168737500001,
            "velocity": 0.5905511811023622
          },
          {
            "duration": 0.1327432500000043,
            "durationTicks": 96,
            "midi": 61,
            "name": "C#4",
            "ticks": 70272,
            "time": 97.168059,
            "velocity": 0.7874015748031497
          },
          {
            "duration": 0.1327432500000043,
            "durationTicks": 96,
            "midi": 68,
            "name": "G#4",
            "ticks": 70272,
            "time": 97.168059,
            "velocity": 0.7874015748031497
          },
          {
            "duration": 0.1327432500000043,
            "durationTicks": 96,
            "midi": 61,
            "name": "C#4",
            "ticks": 70320,
            "time": 97.234430625,
            "velocity": 0.5905511811023622
          },
          {
            "duration": 0.1327432500000043,
            "durationTicks": 96,
            "midi": 68,
            "name": "G#4",
            "ticks": 70320,
            "time": 97.234430625,
            "velocity": 0.5905511811023622
          },
          {
            "duration": 0.1327432500000043,
            "durationTicks": 96,
            "midi": 68,
            "name": "G#4",
            "ticks": 70368,
            "time": 97.30080225,
            "velocity": 0.4881889763779528
          },
          {
            "duration": 0.1327432500000043,
            "durationTicks": 96,
            "midi": 61,
            "name": "C#4",
            "ticks": 70368,
            "time": 97.30080225,
            "velocity": 0.4881889763779528
          },
          {
            "duration": 0.1327432500000043,
            "durationTicks": 96,
            "midi": 61,
            "name": "C#4",
            "ticks": 70416,
            "time": 97.367173875,
            "velocity": 0.4330708661417323
          },
          {
            "duration": 0.1327432500000043,
            "durationTicks": 96,
            "midi": 68,
            "name": "G#4",
            "ticks": 70416,
            "time": 97.367173875,
            "velocity": 0.4330708661417323
          },
          {
            "duration": 0.1327432500000043,
            "durationTicks": 96,
            "midi": 61,
            "name": "C#4",
            "ticks": 70656,
            "time": 97.699032,
            "velocity": 0.7874015748031497
          },
          {
            "duration": 0.1327432500000043,
            "durationTicks": 96,
            "midi": 52,
            "name": "E3",
            "ticks": 70656,
            "time": 97.699032,
            "velocity": 0.7874015748031497
          },
          {
            "duration": 0.1327432500000043,
            "durationTicks": 96,
            "midi": 61,
            "name": "C#4",
            "ticks": 70704,
            "time": 97.765403625,
            "velocity": 0.5905511811023622
          },
          {
            "duration": 0.1327432500000043,
            "durationTicks": 96,
            "midi": 52,
            "name": "E3",
            "ticks": 70704,
            "time": 97.765403625,
            "velocity": 0.5905511811023622
          },
          {
            "duration": 0.1327432500000043,
            "durationTicks": 96,
            "midi": 56,
            "name": "G#3",
            "ticks": 70752,
            "time": 97.83177525,
            "velocity": 0.7874015748031497
          },
          {
            "duration": 0.1327432500000043,
            "durationTicks": 96,
            "midi": 64,
            "name": "E4",
            "ticks": 70752,
            "time": 97.83177525,
            "velocity": 0.7874015748031497
          },
          {
            "duration": 0.1327432499999901,
            "durationTicks": 96,
            "midi": 56,
            "name": "G#3",
            "ticks": 70800,
            "time": 97.89814687500001,
            "velocity": 0.5905511811023622
          },
          {
            "duration": 0.1327432499999901,
            "durationTicks": 96,
            "midi": 64,
            "name": "E4",
            "ticks": 70800,
            "time": 97.89814687500001,
            "velocity": 0.5905511811023622
          },
          {
            "duration": 0.1327432499999901,
            "durationTicks": 96,
            "midi": 63,
            "name": "D#4",
            "ticks": 70848,
            "time": 97.96451850000001,
            "velocity": 0.7874015748031497
          },
          {
            "duration": 0.1327432499999901,
            "durationTicks": 96,
            "midi": 54,
            "name": "F#3",
            "ticks": 70848,
            "time": 97.96451850000001,
            "velocity": 0.7874015748031497
          },
          {
            "duration": 0.1327432500000043,
            "durationTicks": 96,
            "midi": 54,
            "name": "F#3",
            "ticks": 70896,
            "time": 98.030890125,
            "velocity": 0.5905511811023622
          },
          {
            "duration": 0.1327432500000043,
            "durationTicks": 96,
            "midi": 63,
            "name": "D#4",
            "ticks": 70896,
            "time": 98.030890125,
            "velocity": 0.5905511811023622
          },
          {
            "duration": 0.1327432500000043,
            "durationTicks": 96,
            "midi": 56,
            "name": "G#3",
            "ticks": 70944,
            "time": 98.09726175,
            "velocity": 0.7874015748031497
          },
          {
            "duration": 0.1327432500000043,
            "durationTicks": 96,
            "midi": 64,
            "name": "E4",
            "ticks": 70944,
            "time": 98.09726175,
            "velocity": 0.7874015748031497
          },
          {
            "duration": 0.1327432500000043,
            "durationTicks": 96,
            "midi": 64,
            "name": "E4",
            "ticks": 70992,
            "time": 98.163633375,
            "velocity": 0.5905511811023622
          },
          {
            "duration": 0.1327432500000043,
            "durationTicks": 96,
            "midi": 56,
            "name": "G#3",
            "ticks": 70992,
            "time": 98.163633375,
            "velocity": 0.5905511811023622
          },
          {
            "duration": 0.1327432500000043,
            "durationTicks": 96,
            "midi": 52,
            "name": "E3",
            "ticks": 71040,
            "time": 98.230005,
            "velocity": 0.7874015748031497
          },
          {
            "duration": 0.1327432500000043,
            "durationTicks": 96,
            "midi": 61,
            "name": "C#4",
            "ticks": 71040,
            "time": 98.230005,
            "velocity": 0.7874015748031497
          },
          {
            "duration": 0.1327432500000043,
            "durationTicks": 96,
            "midi": 61,
            "name": "C#4",
            "ticks": 71088,
            "time": 98.29637662500001,
            "velocity": 0.5905511811023622
          },
          {
            "duration": 0.1327432500000043,
            "durationTicks": 96,
            "midi": 52,
            "name": "E3",
            "ticks": 71088,
            "time": 98.29637662500001,
            "velocity": 0.5905511811023622
          },
          {
            "duration": 0.1327432499999901,
            "durationTicks": 96,
            "midi": 52,
            "name": "E3",
            "ticks": 71136,
            "time": 98.36274825000001,
            "velocity": 0.4881889763779528
          },
          {
            "duration": 0.1327432499999901,
            "durationTicks": 96,
            "midi": 61,
            "name": "C#4",
            "ticks": 71136,
            "time": 98.36274825000001,
            "velocity": 0.4881889763779528
          },
          {
            "duration": 0.1327432499999901,
            "durationTicks": 96,
            "midi": 61,
            "name": "C#4",
            "ticks": 71184,
            "time": 98.42911987500001,
            "velocity": 0.4330708661417323
          },
          {
            "duration": 0.1327432499999901,
            "durationTicks": 96,
            "midi": 52,
            "name": "E3",
            "ticks": 71184,
            "time": 98.42911987500001,
            "velocity": 0.4330708661417323
          },
          {
            "duration": 0.2654864999999944,
            "durationTicks": 192,
            "midi": 52,
            "name": "E3",
            "ticks": 71328,
            "time": 98.62823475,
            "velocity": 0.7874015748031497
          },
          {
            "duration": 0.2654864999999944,
            "durationTicks": 192,
            "midi": 61,
            "name": "C#4",
            "ticks": 71328,
            "time": 98.62823475,
            "velocity": 0.7874015748031497
          },
          {
            "duration": 0.1327432500000043,
            "durationTicks": 96,
            "midi": 54,
            "name": "F#3",
            "ticks": 71520,
            "time": 98.89372125,
            "velocity": 0.7874015748031497
          },
          {
            "duration": 0.1327432500000043,
            "durationTicks": 96,
            "midi": 63,
            "name": "D#4",
            "ticks": 71520,
            "time": 98.89372125,
            "velocity": 0.7874015748031497
          },
          {
            "duration": 0.1327432500000043,
            "durationTicks": 96,
            "midi": 63,
            "name": "D#4",
            "ticks": 71568,
            "time": 98.960092875,
            "velocity": 0.5905511811023622
          },
          {
            "duration": 0.1327432500000043,
            "durationTicks": 96,
            "midi": 54,
            "name": "F#3",
            "ticks": 71568,
            "time": 98.960092875,
            "velocity": 0.5905511811023622
          },
          {
            "duration": 0.1327432500000043,
            "durationTicks": 96,
            "midi": 56,
            "name": "G#3",
            "ticks": 71616,
            "time": 99.0264645,
            "velocity": 0.7874015748031497
          },
          {
            "duration": 0.1327432500000043,
            "durationTicks": 96,
            "midi": 64,
            "name": "E4",
            "ticks": 71616,
            "time": 99.0264645,
            "velocity": 0.7874015748031497
          },
          {
            "duration": 0.1327432500000043,
            "durationTicks": 96,
            "midi": 56,
            "name": "G#3",
            "ticks": 71664,
            "time": 99.092836125,
            "velocity": 0.5905511811023622
          },
          {
            "duration": 0.1327432500000043,
            "durationTicks": 96,
            "midi": 64,
            "name": "E4",
            "ticks": 71664,
            "time": 99.092836125,
            "velocity": 0.5905511811023622
          },
          {
            "duration": 0.1327432500000043,
            "durationTicks": 96,
            "midi": 64,
            "name": "E4",
            "ticks": 71712,
            "time": 99.15920775000001,
            "velocity": 0.7874015748031497
          },
          {
            "duration": 0.1327432500000043,
            "durationTicks": 96,
            "midi": 71,
            "name": "B4",
            "ticks": 71712,
            "time": 99.15920775000001,
            "velocity": 0.7874015748031497
          },
          {
            "duration": 0.1327432499999901,
            "durationTicks": 96,
            "midi": 64,
            "name": "E4",
            "ticks": 71760,
            "time": 99.22557937500001,
            "velocity": 0.5905511811023622
          },
          {
            "duration": 0.1327432499999901,
            "durationTicks": 96,
            "midi": 71,
            "name": "B4",
            "ticks": 71760,
            "time": 99.22557937500001,
            "velocity": 0.5905511811023622
          },
          {
            "duration": 0.1327432499999901,
            "durationTicks": 96,
            "midi": 68,
            "name": "G#4",
            "ticks": 71808,
            "time": 99.29195100000001,
            "velocity": 0.7874015748031497
          },
          {
            "duration": 0.1327432499999901,
            "durationTicks": 96,
            "midi": 61,
            "name": "C#4",
            "ticks": 71808,
            "time": 99.29195100000001,
            "velocity": 0.7874015748031497
          },
          {
            "duration": 0.1327432500000043,
            "durationTicks": 96,
            "midi": 68,
            "name": "G#4",
            "ticks": 71856,
            "time": 99.358322625,
            "velocity": 0.5905511811023622
          },
          {
            "duration": 0.1327432500000043,
            "durationTicks": 96,
            "midi": 61,
            "name": "C#4",
            "ticks": 71856,
            "time": 99.358322625,
            "velocity": 0.5905511811023622
          },
          {
            "duration": 0.1327432500000043,
            "durationTicks": 96,
            "midi": 61,
            "name": "C#4",
            "ticks": 71904,
            "time": 99.42469425,
            "velocity": 0.4881889763779528
          },
          {
            "duration": 0.1327432500000043,
            "durationTicks": 96,
            "midi": 68,
            "name": "G#4",
            "ticks": 71904,
            "time": 99.42469425,
            "velocity": 0.4881889763779528
          },
          {
            "duration": 0.1327432500000043,
            "durationTicks": 96,
            "midi": 61,
            "name": "C#4",
            "ticks": 71952,
            "time": 99.491065875,
            "velocity": 0.4330708661417323
          },
          {
            "duration": 0.1327432500000043,
            "durationTicks": 96,
            "midi": 68,
            "name": "G#4",
            "ticks": 71952,
            "time": 99.491065875,
            "velocity": 0.4330708661417323
          },
          {
            "duration": 0.1327432500000043,
            "durationTicks": 96,
            "midi": 61,
            "name": "C#4",
            "ticks": 72192,
            "time": 99.822924,
            "velocity": 0.7874015748031497
          },
          {
            "duration": 0.1327432500000043,
            "durationTicks": 96,
            "midi": 52,
            "name": "E3",
            "ticks": 72192,
            "time": 99.822924,
            "velocity": 0.7874015748031497
          },
          {
            "duration": 0.1327432500000043,
            "durationTicks": 96,
            "midi": 61,
            "name": "C#4",
            "ticks": 72240,
            "time": 99.889295625,
            "velocity": 0.5905511811023622
          },
          {
            "duration": 0.1327432500000043,
            "durationTicks": 96,
            "midi": 52,
            "name": "E3",
            "ticks": 72240,
            "time": 99.889295625,
            "velocity": 0.5905511811023622
          },
          {
            "duration": 0.1327432500000043,
            "durationTicks": 96,
            "midi": 56,
            "name": "G#3",
            "ticks": 72288,
            "time": 99.95566725,
            "velocity": 0.7874015748031497
          },
          {
            "duration": 0.1327432500000043,
            "durationTicks": 96,
            "midi": 64,
            "name": "E4",
            "ticks": 72288,
            "time": 99.95566725,
            "velocity": 0.7874015748031497
          },
          {
            "duration": 0.1327432500000043,
            "durationTicks": 96,
            "midi": 56,
            "name": "G#3",
            "ticks": 72336,
            "time": 100.022038875,
            "velocity": 0.5905511811023622
          },
          {
            "duration": 0.1327432500000043,
            "durationTicks": 96,
            "midi": 64,
            "name": "E4",
            "ticks": 72336,
            "time": 100.022038875,
            "velocity": 0.5905511811023622
          },
          {
            "duration": 0.1327432499999901,
            "durationTicks": 96,
            "midi": 63,
            "name": "D#4",
            "ticks": 72384,
            "time": 100.08841050000001,
            "velocity": 0.7874015748031497
          },
          {
            "duration": 0.1327432499999901,
            "durationTicks": 96,
            "midi": 54,
            "name": "F#3",
            "ticks": 72384,
            "time": 100.08841050000001,
            "velocity": 0.7874015748031497
          },
          {
            "duration": 0.1327432499999901,
            "durationTicks": 96,
            "midi": 63,
            "name": "D#4",
            "ticks": 72432,
            "time": 100.15478212500001,
            "velocity": 0.5905511811023622
          },
          {
            "duration": 0.1327432499999901,
            "durationTicks": 96,
            "midi": 54,
            "name": "F#3",
            "ticks": 72432,
            "time": 100.15478212500001,
            "velocity": 0.5905511811023622
          },
          {
            "duration": 0.1327432500000043,
            "durationTicks": 96,
            "midi": 64,
            "name": "E4",
            "ticks": 72480,
            "time": 100.22115375,
            "velocity": 0.7874015748031497
          },
          {
            "duration": 0.1327432500000043,
            "durationTicks": 96,
            "midi": 56,
            "name": "G#3",
            "ticks": 72480,
            "time": 100.22115375,
            "velocity": 0.7874015748031497
          },
          {
            "duration": 0.1327432500000043,
            "durationTicks": 96,
            "midi": 64,
            "name": "E4",
            "ticks": 72528,
            "time": 100.287525375,
            "velocity": 0.5905511811023622
          },
          {
            "duration": 0.1327432500000043,
            "durationTicks": 96,
            "midi": 56,
            "name": "G#3",
            "ticks": 72528,
            "time": 100.287525375,
            "velocity": 0.5905511811023622
          },
          {
            "duration": 0.1327432500000043,
            "durationTicks": 96,
            "midi": 61,
            "name": "C#4",
            "ticks": 72576,
            "time": 100.353897,
            "velocity": 0.7874015748031497
          },
          {
            "duration": 0.1327432500000043,
            "durationTicks": 96,
            "midi": 52,
            "name": "E3",
            "ticks": 72576,
            "time": 100.353897,
            "velocity": 0.7874015748031497
          },
          {
            "duration": 0.1327432500000043,
            "durationTicks": 96,
            "midi": 52,
            "name": "E3",
            "ticks": 72624,
            "time": 100.420268625,
            "velocity": 0.5905511811023622
          },
          {
            "duration": 0.1327432500000043,
            "durationTicks": 96,
            "midi": 61,
            "name": "C#4",
            "ticks": 72624,
            "time": 100.420268625,
            "velocity": 0.5905511811023622
          },
          {
            "duration": 0.1327432500000043,
            "durationTicks": 96,
            "midi": 61,
            "name": "C#4",
            "ticks": 72672,
            "time": 100.48664025000001,
            "velocity": 0.4881889763779528
          },
          {
            "duration": 0.1327432500000043,
            "durationTicks": 96,
            "midi": 52,
            "name": "E3",
            "ticks": 72672,
            "time": 100.48664025000001,
            "velocity": 0.4881889763779528
          },
          {
            "duration": 0.1327432499999901,
            "durationTicks": 96,
            "midi": 61,
            "name": "C#4",
            "ticks": 72720,
            "time": 100.55301187500001,
            "velocity": 0.4330708661417323
          },
          {
            "duration": 0.1327432499999901,
            "durationTicks": 96,
            "midi": 52,
            "name": "E3",
            "ticks": 72720,
            "time": 100.55301187500001,
            "velocity": 0.4330708661417323
          },
          {
            "duration": 0.2654865000000086,
            "durationTicks": 192,
            "midi": 52,
            "name": "E3",
            "ticks": 72864,
            "time": 100.75212675,
            "velocity": 0.7874015748031497
          },
          {
            "duration": 0.2654865000000086,
            "durationTicks": 192,
            "midi": 61,
            "name": "C#4",
            "ticks": 72864,
            "time": 100.75212675,
            "velocity": 0.7874015748031497
          },
          {
            "duration": 0.1327432499999901,
            "durationTicks": 96,
            "midi": 54,
            "name": "F#3",
            "ticks": 73056,
            "time": 101.01761325000001,
            "velocity": 0.7874015748031497
          },
          {
            "duration": 0.1327432499999901,
            "durationTicks": 96,
            "midi": 63,
            "name": "D#4",
            "ticks": 73056,
            "time": 101.01761325000001,
            "velocity": 0.7874015748031497
          },
          {
            "duration": 0.1327432500000043,
            "durationTicks": 96,
            "midi": 54,
            "name": "F#3",
            "ticks": 73104,
            "time": 101.083984875,
            "velocity": 0.5905511811023622
          },
          {
            "duration": 0.1327432500000043,
            "durationTicks": 96,
            "midi": 63,
            "name": "D#4",
            "ticks": 73104,
            "time": 101.083984875,
            "velocity": 0.5905511811023622
          },
          {
            "duration": 0.1327432500000043,
            "durationTicks": 96,
            "midi": 64,
            "name": "E4",
            "ticks": 73152,
            "time": 101.1503565,
            "velocity": 0.7874015748031497
          },
          {
            "duration": 0.1327432500000043,
            "durationTicks": 96,
            "midi": 56,
            "name": "G#3",
            "ticks": 73152,
            "time": 101.1503565,
            "velocity": 0.7874015748031497
          },
          {
            "duration": 0.1327432500000043,
            "durationTicks": 96,
            "midi": 56,
            "name": "G#3",
            "ticks": 73200,
            "time": 101.216728125,
            "velocity": 0.5905511811023622
          },
          {
            "duration": 0.1327432500000043,
            "durationTicks": 96,
            "midi": 64,
            "name": "E4",
            "ticks": 73200,
            "time": 101.216728125,
            "velocity": 0.5905511811023622
          },
          {
            "duration": 0.1327432500000043,
            "durationTicks": 96,
            "midi": 64,
            "name": "E4",
            "ticks": 73248,
            "time": 101.28309975,
            "velocity": 0.7874015748031497
          },
          {
            "duration": 0.1327432500000043,
            "durationTicks": 96,
            "midi": 71,
            "name": "B4",
            "ticks": 73248,
            "time": 101.28309975,
            "velocity": 0.7874015748031497
          },
          {
            "duration": 0.1327432500000043,
            "durationTicks": 96,
            "midi": 71,
            "name": "B4",
            "ticks": 73296,
            "time": 101.34947137500001,
            "velocity": 0.5905511811023622
          },
          {
            "duration": 0.1327432500000043,
            "durationTicks": 96,
            "midi": 64,
            "name": "E4",
            "ticks": 73296,
            "time": 101.34947137500001,
            "velocity": 0.5905511811023622
          },
          {
            "duration": 0.1327432499999901,
            "durationTicks": 96,
            "midi": 61,
            "name": "C#4",
            "ticks": 73344,
            "time": 101.41584300000001,
            "velocity": 0.7874015748031497
          },
          {
            "duration": 0.1327432499999901,
            "durationTicks": 96,
            "midi": 68,
            "name": "G#4",
            "ticks": 73344,
            "time": 101.41584300000001,
            "velocity": 0.7874015748031497
          },
          {
            "duration": 0.1327432499999901,
            "durationTicks": 96,
            "midi": 61,
            "name": "C#4",
            "ticks": 73392,
            "time": 101.48221462500001,
            "velocity": 0.5905511811023622
          },
          {
            "duration": 0.1327432499999901,
            "durationTicks": 96,
            "midi": 68,
            "name": "G#4",
            "ticks": 73392,
            "time": 101.48221462500001,
            "velocity": 0.5905511811023622
          },
          {
            "duration": 0.1327432500000043,
            "durationTicks": 96,
            "midi": 61,
            "name": "C#4",
            "ticks": 73440,
            "time": 101.54858625,
            "velocity": 0.4881889763779528
          },
          {
            "duration": 0.1327432500000043,
            "durationTicks": 96,
            "midi": 68,
            "name": "G#4",
            "ticks": 73440,
            "time": 101.54858625,
            "velocity": 0.4881889763779528
          },
          {
            "duration": 0.1327432500000043,
            "durationTicks": 96,
            "midi": 61,
            "name": "C#4",
            "ticks": 73488,
            "time": 101.614957875,
            "velocity": 0.4330708661417323
          },
          {
            "duration": 0.1327432500000043,
            "durationTicks": 96,
            "midi": 68,
            "name": "G#4",
            "ticks": 73488,
            "time": 101.614957875,
            "velocity": 0.4330708661417323
          },
          {
            "duration": 0.1327432499999901,
            "durationTicks": 96,
            "midi": 51,
            "name": "D#3",
            "ticks": 73728,
            "time": 101.94681600000001,
            "velocity": 0.7874015748031497
          },
          {
            "duration": 0.3982297499999987,
            "durationTicks": 288,
            "midi": 61,
            "name": "C#4",
            "ticks": 73728,
            "time": 101.94681600000001,
            "velocity": 0.7874015748031497
          },
          {
            "duration": 0.1327432500000043,
            "durationTicks": 96,
            "midi": 51,
            "name": "D#3",
            "ticks": 73776,
            "time": 102.013187625,
            "velocity": 0.5905511811023622
          },
          {
            "duration": 0.1327432500000043,
            "durationTicks": 96,
            "midi": 54,
            "name": "F#3",
            "ticks": 73824,
            "time": 102.07955925,
            "velocity": 0.7874015748031497
          },
          {
            "duration": 0.1327432500000043,
            "durationTicks": 96,
            "midi": 54,
            "name": "F#3",
            "ticks": 73872,
            "time": 102.145930875,
            "velocity": 0.5905511811023622
          },
          {
            "duration": 0.1327432500000043,
            "durationTicks": 96,
            "midi": 56,
            "name": "G#3",
            "ticks": 73920,
            "time": 102.2123025,
            "velocity": 0.7874015748031497
          },
          {
            "duration": 0.1327432499999901,
            "durationTicks": 96,
            "midi": 56,
            "name": "G#3",
            "ticks": 73968,
            "time": 102.27867412500001,
            "velocity": 0.5905511811023622
          },
          {
            "duration": 0.3982297499999987,
            "durationTicks": 288,
            "midi": 66,
            "name": "F#4",
            "ticks": 74016,
            "time": 102.34504575000001,
            "velocity": 0.7874015748031497
          },
          {
            "duration": 0.1327432499999901,
            "durationTicks": 96,
            "midi": 54,
            "name": "F#3",
            "ticks": 74016,
            "time": 102.34504575000001,
            "velocity": 0.7874015748031497
          },
          {
            "duration": 0.1327432500000043,
            "durationTicks": 96,
            "midi": 54,
            "name": "F#3",
            "ticks": 74064,
            "time": 102.411417375,
            "velocity": 0.5905511811023622
          },
          {
            "duration": 0.1327432500000043,
            "durationTicks": 96,
            "midi": 56,
            "name": "G#3",
            "ticks": 74208,
            "time": 102.61053225,
            "velocity": 0.7874015748031497
          },
          {
            "duration": 0.1327432500000043,
            "durationTicks": 96,
            "midi": 56,
            "name": "G#3",
            "ticks": 74256,
            "time": 102.67690387500001,
            "velocity": 0.5905511811023622
          },
          {
            "duration": 0.1327432499999901,
            "durationTicks": 96,
            "midi": 61,
            "name": "C#4",
            "ticks": 74304,
            "time": 102.74327550000001,
            "velocity": 0.7874015748031497
          },
          {
            "duration": 0.1327432499999901,
            "durationTicks": 96,
            "midi": 64,
            "name": "E4",
            "ticks": 74304,
            "time": 102.74327550000001,
            "velocity": 0.7874015748031497
          },
          {
            "duration": 0.1327432500000043,
            "durationTicks": 96,
            "midi": 61,
            "name": "C#4",
            "ticks": 74400,
            "time": 102.87601875,
            "velocity": 0.5905511811023622
          },
          {
            "duration": 0.1327432500000043,
            "durationTicks": 96,
            "midi": 64,
            "name": "E4",
            "ticks": 74400,
            "time": 102.87601875,
            "velocity": 0.5905511811023622
          },
          {
            "duration": 0.1327432500000043,
            "durationTicks": 96,
            "midi": 63,
            "name": "D#4",
            "ticks": 74448,
            "time": 102.942390375,
            "velocity": 0.7874015748031497
          },
          {
            "duration": 0.1327432500000043,
            "durationTicks": 96,
            "midi": 63,
            "name": "D#4",
            "ticks": 74496,
            "time": 103.008762,
            "velocity": 0.7874015748031497
          },
          {
            "duration": 0.1327432500000043,
            "durationTicks": 96,
            "midi": 61,
            "name": "C#4",
            "ticks": 74496,
            "time": 103.008762,
            "velocity": 0.7874015748031497
          },
          {
            "duration": 0.1327432499999901,
            "durationTicks": 96,
            "midi": 61,
            "name": "C#4",
            "ticks": 74592,
            "time": 103.14150525000001,
            "velocity": 0.7874015748031497
          },
          {
            "duration": 0.1327432499999901,
            "durationTicks": 96,
            "midi": 56,
            "name": "G#3",
            "ticks": 74592,
            "time": 103.14150525000001,
            "velocity": 0.7874015748031497
          },
          {
            "duration": 0.1327432500000043,
            "durationTicks": 96,
            "midi": 61,
            "name": "C#4",
            "ticks": 74688,
            "time": 103.2742485,
            "velocity": 0.5905511811023622
          },
          {
            "duration": 0.1327432500000043,
            "durationTicks": 96,
            "midi": 56,
            "name": "G#3",
            "ticks": 74688,
            "time": 103.2742485,
            "velocity": 0.5905511811023622
          },
          {
            "duration": 0.2654865000000086,
            "durationTicks": 192,
            "midi": 54,
            "name": "F#3",
            "ticks": 74784,
            "time": 103.40699175,
            "velocity": 0.7874015748031497
          },
          {
            "duration": 0.2654865000000086,
            "durationTicks": 192,
            "midi": 61,
            "name": "C#4",
            "ticks": 74784,
            "time": 103.40699175,
            "velocity": 0.7874015748031497
          },
          {
            "duration": 0.1327432499999901,
            "durationTicks": 96,
            "midi": 54,
            "name": "F#3",
            "ticks": 74976,
            "time": 103.67247825000001,
            "velocity": 0.5905511811023622
          },
          {
            "duration": 0.1327432499999901,
            "durationTicks": 96,
            "midi": 61,
            "name": "C#4",
            "ticks": 74976,
            "time": 103.67247825000001,
            "velocity": 0.7874015748031497
          },
          {
            "duration": 0.1327432500000043,
            "durationTicks": 96,
            "midi": 63,
            "name": "D#4",
            "ticks": 75024,
            "time": 103.738849875,
            "velocity": 0.7874015748031497
          },
          {
            "duration": 0.2654865000000086,
            "durationTicks": 192,
            "midi": 63,
            "name": "D#4",
            "ticks": 75072,
            "time": 103.8052215,
            "velocity": 0.7874015748031497
          },
          {
            "duration": 0.2654865000000086,
            "durationTicks": 192,
            "midi": 56,
            "name": "G#3",
            "ticks": 75072,
            "time": 103.8052215,
            "velocity": 0.7874015748031497
          },
          {
            "duration": 0.2654864999999944,
            "durationTicks": 192,
            "midi": 45,
            "name": "A2",
            "ticks": 75264,
            "time": 104.07070800000001,
            "velocity": 0.7874015748031497
          },
          {
            "duration": 1.5929189999999949,
            "durationTicks": 1152,
            "midi": 73,
            "name": "C#5",
            "ticks": 75264,
            "time": 104.07070800000001,
            "velocity": 0.7874015748031497
          },
          {
            "duration": 1.5929189999999949,
            "durationTicks": 1152,
            "midi": 68,
            "name": "G#4",
            "ticks": 75264,
            "time": 104.07070800000001,
            "velocity": 0.7874015748031497
          },
          {
            "duration": 0.2654865000000086,
            "durationTicks": 192,
            "midi": 45,
            "name": "A2",
            "ticks": 75648,
            "time": 104.601681,
            "velocity": 0.7874015748031497
          },
          {
            "duration": 0.2654865000000086,
            "durationTicks": 192,
            "midi": 45,
            "name": "A2",
            "ticks": 76032,
            "time": 105.132654,
            "velocity": 0.7874015748031497
          },
          {
            "duration": 0.1327432500000043,
            "durationTicks": 96,
            "midi": 45,
            "name": "A2",
            "ticks": 76416,
            "time": 105.663627,
            "velocity": 0.7874015748031497
          },
          {
            "duration": 0.1327432500000043,
            "durationTicks": 96,
            "midi": 64,
            "name": "E4",
            "ticks": 76416,
            "time": 105.663627,
            "velocity": 0.7874015748031497
          },
          {
            "duration": 0.1327432500000043,
            "durationTicks": 96,
            "midi": 68,
            "name": "G#4",
            "ticks": 76416,
            "time": 105.663627,
            "velocity": 0.7874015748031497
          },
          {
            "duration": 0.1327432499999901,
            "durationTicks": 96,
            "midi": 68,
            "name": "G#4",
            "ticks": 76512,
            "time": 105.79637025000001,
            "velocity": 0.5905511811023622
          },
          {
            "duration": 0.1327432499999901,
            "durationTicks": 96,
            "midi": 64,
            "name": "E4",
            "ticks": 76512,
            "time": 105.79637025000001,
            "velocity": 0.5905511811023622
          },
          {
            "duration": 0.2654865000000086,
            "durationTicks": 192,
            "midi": 49,
            "name": "C#3",
            "ticks": 76608,
            "time": 105.9291135,
            "velocity": 0.7874015748031497
          },
          {
            "duration": 0.1327432500000043,
            "durationTicks": 96,
            "midi": 71,
            "name": "B4",
            "ticks": 76608,
            "time": 105.9291135,
            "velocity": 0.7874015748031497
          },
          {
            "duration": 0.1327432500000043,
            "durationTicks": 96,
            "midi": 66,
            "name": "F#4",
            "ticks": 76608,
            "time": 105.9291135,
            "velocity": 0.7874015748031497
          },
          {
            "duration": 0.1327432500000043,
            "durationTicks": 96,
            "midi": 66,
            "name": "F#4",
            "ticks": 76704,
            "time": 106.06185675,
            "velocity": 0.5905511811023622
          },
          {
            "duration": 0.1327432500000043,
            "durationTicks": 96,
            "midi": 71,
            "name": "B4",
            "ticks": 76704,
            "time": 106.06185675,
            "velocity": 0.5905511811023622
          },
          {
            "duration": 0.7964594999999974,
            "durationTicks": 576,
            "midi": 68,
            "name": "G#4",
            "ticks": 76800,
            "time": 106.19460000000001,
            "velocity": 0.7874015748031497
          },
          {
            "duration": 0.7964594999999974,
            "durationTicks": 576,
            "midi": 73,
            "name": "C#5",
            "ticks": 76800,
            "time": 106.19460000000001,
            "velocity": 0.7874015748031497
          },
          {
            "duration": 0.2654864999999944,
            "durationTicks": 192,
            "midi": 47,
            "name": "B2",
            "ticks": 76800,
            "time": 106.19460000000001,
            "velocity": 0.7874015748031497
          },
          {
            "duration": 0.2654864999999944,
            "durationTicks": 192,
            "midi": 47,
            "name": "B2",
            "ticks": 77184,
            "time": 106.72557300000001,
            "velocity": 0.7874015748031497
          },
          {
            "duration": 0.2654864999999944,
            "durationTicks": 192,
            "midi": 76,
            "name": "E5",
            "ticks": 77376,
            "time": 106.9910595,
            "velocity": 0.7874015748031497
          },
          {
            "duration": 0.2654864999999944,
            "durationTicks": 192,
            "midi": 71,
            "name": "B4",
            "ticks": 77376,
            "time": 106.9910595,
            "velocity": 0.7874015748031497
          },
          {
            "duration": 0.1327432500000043,
            "durationTicks": 96,
            "midi": 73,
            "name": "C#5",
            "ticks": 77568,
            "time": 107.256546,
            "velocity": 0.7874015748031497
          },
          {
            "duration": 0.1327432500000043,
            "durationTicks": 96,
            "midi": 78,
            "name": "F#5",
            "ticks": 77568,
            "time": 107.256546,
            "velocity": 0.7874015748031497
          },
          {
            "duration": 0.2654865000000086,
            "durationTicks": 192,
            "midi": 47,
            "name": "B2",
            "ticks": 77568,
            "time": 107.256546,
            "velocity": 0.7874015748031497
          },
          {
            "duration": 0.1327432500000043,
            "durationTicks": 96,
            "midi": 76,
            "name": "E5",
            "ticks": 77664,
            "time": 107.38928925,
            "velocity": 0.7874015748031497
          },
          {
            "duration": 0.1327432500000043,
            "durationTicks": 96,
            "midi": 71,
            "name": "B4",
            "ticks": 77664,
            "time": 107.38928925,
            "velocity": 0.7874015748031497
          },
          {
            "duration": 0.1327432499999901,
            "durationTicks": 96,
            "midi": 71,
            "name": "B4",
            "ticks": 77760,
            "time": 107.52203250000001,
            "velocity": 0.5905511811023622
          },
          {
            "duration": 0.1327432499999901,
            "durationTicks": 96,
            "midi": 76,
            "name": "E5",
            "ticks": 77760,
            "time": 107.52203250000001,
            "velocity": 0.5905511811023622
          },
          {
            "duration": 0.1327432499999901,
            "durationTicks": 96,
            "midi": 75,
            "name": "D#5",
            "ticks": 77808,
            "time": 107.58840412500001,
            "velocity": 0.7874015748031497
          },
          {
            "duration": 0.2654865000000086,
            "durationTicks": 192,
            "midi": 68,
            "name": "G#4",
            "ticks": 77856,
            "time": 107.65477575,
            "velocity": 0.7874015748031497
          },
          {
            "duration": 0.2654865000000086,
            "durationTicks": 192,
            "midi": 75,
            "name": "D#5",
            "ticks": 77856,
            "time": 107.65477575,
            "velocity": 0.7874015748031497
          },
          {
            "duration": 0.1327432500000043,
            "durationTicks": 96,
            "midi": 47,
            "name": "B2",
            "ticks": 77952,
            "time": 107.787519,
            "velocity": 0.7874015748031497
          },
          {
            "duration": 0.1327432500000043,
            "durationTicks": 96,
            "midi": 68,
            "name": "G#4",
            "ticks": 78048,
            "time": 107.92026225000001,
            "velocity": 0.5905511811023622
          },
          {
            "duration": 0.1327432500000043,
            "durationTicks": 96,
            "midi": 75,
            "name": "D#5",
            "ticks": 78048,
            "time": 107.92026225000001,
            "velocity": 0.5905511811023622
          },
          {
            "duration": 0.2654864999999944,
            "durationTicks": 192,
            "midi": 71,
            "name": "B4",
            "ticks": 78144,
            "time": 108.05300550000001,
            "velocity": 0.7874015748031497
          },
          {
            "duration": 0.2654864999999944,
            "durationTicks": 192,
            "midi": 76,
            "name": "E5",
            "ticks": 78144,
            "time": 108.05300550000001,
            "velocity": 0.7874015748031497
          },
          {
            "duration": 0.2654864999999944,
            "durationTicks": 192,
            "midi": 51,
            "name": "D#3",
            "ticks": 78144,
            "time": 108.05300550000001,
            "velocity": 0.7874015748031497
          },
          {
            "duration": 0.9292027500000017,
            "durationTicks": 672,
            "midi": 73,
            "name": "C#5",
            "ticks": 78336,
            "time": 108.318492,
            "velocity": 0.7874015748031497
          },
          {
            "duration": 0.9292027500000017,
            "durationTicks": 672,
            "midi": 68,
            "name": "G#4",
            "ticks": 78336,
            "time": 108.318492,
            "velocity": 0.7874015748031497
          },
          {
            "duration": 0.2654864999999944,
            "durationTicks": 192,
            "midi": 49,
            "name": "C#3",
            "ticks": 78336,
            "time": 108.318492,
            "velocity": 0.7874015748031497
          },
          {
            "duration": 0.2654864999999944,
            "durationTicks": 192,
            "midi": 49,
            "name": "C#3",
            "ticks": 78720,
            "time": 108.84946500000001,
            "velocity": 0.7874015748031497
          },
          {
            "duration": 0.2654864999999944,
            "durationTicks": 192,
            "midi": 49,
            "name": "C#3",
            "ticks": 79104,
            "time": 109.38043800000001,
            "velocity": 0.7874015748031497
          },
          {
            "duration": 0.1327432499999901,
            "durationTicks": 96,
            "midi": 68,
            "name": "G#4",
            "ticks": 79104,
            "time": 109.38043800000001,
            "velocity": 0.7874015748031497
          },
          {
            "duration": 0.1327432499999901,
            "durationTicks": 96,
            "midi": 68,
            "name": "G#4",
            "ticks": 79104,
            "time": 109.38043800000001,
            "velocity": 0.7874015748031497
          },
          {
            "duration": 0.1327432500000043,
            "durationTicks": 96,
            "midi": 68,
            "name": "G#4",
            "ticks": 79200,
            "time": 109.51318125,
            "velocity": 0.5905511811023622
          },
          {
            "duration": 0.1327432500000043,
            "durationTicks": 96,
            "midi": 68,
            "name": "G#4",
            "ticks": 79200,
            "time": 109.51318125,
            "velocity": 0.5905511811023622
          },
          {
            "duration": 0.1327432500000043,
            "durationTicks": 96,
            "midi": 68,
            "name": "G#4",
            "ticks": 79296,
            "time": 109.6459245,
            "velocity": 0.7874015748031497
          },
          {
            "duration": 0.1327432500000043,
            "durationTicks": 96,
            "midi": 68,
            "name": "G#4",
            "ticks": 79296,
            "time": 109.6459245,
            "velocity": 0.7874015748031497
          },
          {
            "duration": 0.2654864999999944,
            "durationTicks": 192,
            "midi": 49,
            "name": "C#3",
            "ticks": 79392,
            "time": 109.77866775000001,
            "velocity": 0.7874015748031497
          },
          {
            "duration": 0.1327432499999901,
            "durationTicks": 96,
            "midi": 71,
            "name": "B4",
            "ticks": 79392,
            "time": 109.77866775000001,
            "velocity": 0.7874015748031497
          },
          {
            "duration": 0.1327432499999901,
            "durationTicks": 96,
            "midi": 71,
            "name": "B4",
            "ticks": 79392,
            "time": 109.77866775000001,
            "velocity": 0.7874015748031497
          },
          {
            "duration": 0.1327432500000043,
            "durationTicks": 96,
            "midi": 71,
            "name": "B4",
            "ticks": 79488,
            "time": 109.911411,
            "velocity": 0.5905511811023622
          },
          {
            "duration": 0.1327432500000043,
            "durationTicks": 96,
            "midi": 71,
            "name": "B4",
            "ticks": 79488,
            "time": 109.911411,
            "velocity": 0.5905511811023622
          },
          {
            "duration": 0.1327432500000043,
            "durationTicks": 96,
            "midi": 71,
            "name": "B4",
            "ticks": 79584,
            "time": 110.04415425,
            "velocity": 0.7874015748031497
          },
          {
            "duration": 0.1327432500000043,
            "durationTicks": 96,
            "midi": 71,
            "name": "B4",
            "ticks": 79584,
            "time": 110.04415425,
            "velocity": 0.7874015748031497
          },
          {
            "duration": 0.1327432500000043,
            "durationTicks": 96,
            "midi": 75,
            "name": "D#5",
            "ticks": 79632,
            "time": 110.11052587500001,
            "velocity": 0.7874015748031497
          },
          {
            "duration": 0.1327432500000043,
            "durationTicks": 96,
            "midi": 75,
            "name": "D#5",
            "ticks": 79632,
            "time": 110.11052587500001,
            "velocity": 0.7874015748031497
          },
          {
            "duration": 0.2654864999999944,
            "durationTicks": 192,
            "midi": 47,
            "name": "B2",
            "ticks": 79680,
            "time": 110.17689750000001,
            "velocity": 0.7874015748031497
          },
          {
            "duration": 0.1327432499999901,
            "durationTicks": 96,
            "midi": 76,
            "name": "E5",
            "ticks": 79680,
            "time": 110.17689750000001,
            "velocity": 0.7874015748031497
          },
          {
            "duration": 0.1327432499999901,
            "durationTicks": 96,
            "midi": 76,
            "name": "E5",
            "ticks": 79680,
            "time": 110.17689750000001,
            "velocity": 0.7874015748031497
          },
          {
            "duration": 0.1327432500000043,
            "durationTicks": 96,
            "midi": 76,
            "name": "E5",
            "ticks": 79776,
            "time": 110.30964075,
            "velocity": 0.5905511811023622
          },
          {
            "duration": 0.1327432500000043,
            "durationTicks": 96,
            "midi": 76,
            "name": "E5",
            "ticks": 79776,
            "time": 110.30964075,
            "velocity": 0.5905511811023622
          },
          {
            "duration": 0.7964594999999974,
            "durationTicks": 576,
            "midi": 75,
            "name": "D#5",
            "ticks": 79872,
            "time": 110.442384,
            "velocity": 0.7874015748031497
          },
          {
            "duration": 0.1327432500000043,
            "durationTicks": 96,
            "midi": 44,
            "name": "G#2",
            "ticks": 79872,
            "time": 110.442384,
            "velocity": 0.7874015748031497
          },
          {
            "duration": 0.7964594999999974,
            "durationTicks": 576,
            "midi": 75,
            "name": "D#5",
            "ticks": 79872,
            "time": 110.442384,
            "velocity": 0.7874015748031497
          },
          {
            "duration": 0.1327432500000043,
            "durationTicks": 96,
            "midi": 44,
            "name": "G#2",
            "ticks": 80160,
            "time": 110.84061375,
            "velocity": 0.7874015748031497
          },
          {
            "duration": 0.1327432500000043,
            "durationTicks": 96,
            "midi": 44,
            "name": "G#2",
            "ticks": 80448,
            "time": 111.2388435,
            "velocity": 0.7874015748031497
          },
          {
            "duration": 0.3982297499999987,
            "durationTicks": 288,
            "midi": 73,
            "name": "C#5",
            "ticks": 80640,
            "time": 111.50433000000001,
            "velocity": 0.7874015748031497
          },
          {
            "duration": 0.3982297499999987,
            "durationTicks": 288,
            "midi": 64,
            "name": "E4",
            "ticks": 80640,
            "time": 111.50433000000001,
            "velocity": 0.7874015748031497
          },
          {
            "duration": 0.1327432499999901,
            "durationTicks": 96,
            "midi": 49,
            "name": "C#3",
            "ticks": 80640,
            "time": 111.50433000000001,
            "velocity": 0.7874015748031497
          },
          {
            "duration": 0.1327432500000043,
            "durationTicks": 96,
            "midi": 49,
            "name": "C#3",
            "ticks": 80736,
            "time": 111.63707325,
            "velocity": 0.6850393700787402
          },
          {
            "duration": 0.1327432500000043,
            "durationTicks": 96,
            "midi": 49,
            "name": "C#3",
            "ticks": 80832,
            "time": 111.7698165,
            "velocity": 0.5905511811023622
          },
          {
            "duration": 0.1327432499999901,
            "durationTicks": 96,
            "midi": 51,
            "name": "D#3",
            "ticks": 80928,
            "time": 111.90255975000001,
            "velocity": 0.7874015748031497
          },
          {
            "duration": 0.3982297499999987,
            "durationTicks": 288,
            "midi": 68,
            "name": "G#4",
            "ticks": 80928,
            "time": 111.90255975000001,
            "velocity": 0.7874015748031497
          },
          {
            "duration": 0.3982297499999987,
            "durationTicks": 288,
            "midi": 76,
            "name": "E5",
            "ticks": 80928,
            "time": 111.90255975000001,
            "velocity": 0.7874015748031497
          },
          {
            "duration": 0.1327432500000043,
            "durationTicks": 96,
            "midi": 51,
            "name": "D#3",
            "ticks": 81024,
            "time": 112.035303,
            "velocity": 0.6850393700787402
          },
          {
            "duration": 0.1327432500000043,
            "durationTicks": 96,
            "midi": 51,
            "name": "D#3",
            "ticks": 81120,
            "time": 112.16804625,
            "velocity": 0.5905511811023622
          },
          {
            "duration": 0.2654864999999944,
            "durationTicks": 192,
            "midi": 78,
            "name": "F#5",
            "ticks": 81216,
            "time": 112.30078950000001,
            "velocity": 0.7874015748031497
          },
          {
            "duration": 0.1327432500000043,
            "durationTicks": 96,
            "midi": 56,
            "name": "G#3",
            "ticks": 81216,
            "time": 112.30078950000001,
            "velocity": 0.5905511811023622
          },
          {
            "duration": 0.2654864999999944,
            "durationTicks": 192,
            "midi": 71,
            "name": "B4",
            "ticks": 81216,
            "time": 112.30078950000001,
            "velocity": 0.7874015748031497
          },
          {
            "duration": 0.1327432499999901,
            "durationTicks": 96,
            "midi": 56,
            "name": "G#3",
            "ticks": 81312,
            "time": 112.43353275000001,
            "velocity": 0.5905511811023622
          },
          {
            "duration": 1.061946000000006,
            "durationTicks": 768,
            "midi": 80,
            "name": "G#5",
            "ticks": 81408,
            "time": 112.566276,
            "velocity": 0.7874015748031497
          },
          {
            "duration": 1.061946000000006,
            "durationTicks": 768,
            "midi": 73,
            "name": "C#5",
            "ticks": 81408,
            "time": 112.566276,
            "velocity": 0.7874015748031497
          },
          {
            "duration": 0.1327432499999901,
            "durationTicks": 96,
            "midi": 68,
            "name": "G#4",
            "ticks": 82560,
            "time": 114.15919500000001,
            "velocity": 0.7874015748031497
          },
          {
            "duration": 0.1327432499999901,
            "durationTicks": 96,
            "midi": 76,
            "name": "E5",
            "ticks": 82560,
            "time": 114.15919500000001,
            "velocity": 0.7874015748031497
          },
          {
            "duration": 0.1327432500000043,
            "durationTicks": 96,
            "midi": 76,
            "name": "E5",
            "ticks": 82656,
            "time": 114.29193825,
            "velocity": 0.5905511811023622
          },
          {
            "duration": 0.1327432500000043,
            "durationTicks": 96,
            "midi": 68,
            "name": "G#4",
            "ticks": 82656,
            "time": 114.29193825,
            "velocity": 0.5905511811023622
          },
          {
            "duration": 0.1327432500000043,
            "durationTicks": 96,
            "midi": 71,
            "name": "B4",
            "ticks": 82752,
            "time": 114.4246815,
            "velocity": 0.7874015748031497
          },
          {
            "duration": 0.1327432500000043,
            "durationTicks": 96,
            "midi": 78,
            "name": "F#5",
            "ticks": 82752,
            "time": 114.4246815,
            "velocity": 0.7874015748031497
          },
          {
            "duration": 0.1327432499999901,
            "durationTicks": 96,
            "midi": 78,
            "name": "F#5",
            "ticks": 82848,
            "time": 114.55742475000001,
            "velocity": 0.5905511811023622
          },
          {
            "duration": 0.1327432499999901,
            "durationTicks": 96,
            "midi": 71,
            "name": "B4",
            "ticks": 82848,
            "time": 114.55742475000001,
            "velocity": 0.5905511811023622
          },
          {
            "duration": 0.530973000000003,
            "durationTicks": 384,
            "midi": 80,
            "name": "G#5",
            "ticks": 82944,
            "time": 114.690168,
            "velocity": 0.7874015748031497
          },
          {
            "duration": 0.530973000000003,
            "durationTicks": 384,
            "midi": 73,
            "name": "C#5",
            "ticks": 82944,
            "time": 114.690168,
            "velocity": 0.7874015748031497
          },
          {
            "duration": 0.2654864999999944,
            "durationTicks": 192,
            "midi": 71,
            "name": "B4",
            "ticks": 83520,
            "time": 115.48662750000001,
            "velocity": 0.7874015748031497
          },
          {
            "duration": 0.2654864999999944,
            "durationTicks": 192,
            "midi": 78,
            "name": "F#5",
            "ticks": 83520,
            "time": 115.48662750000001,
            "velocity": 0.7874015748031497
          },
          {
            "duration": 0.2654864999999944,
            "durationTicks": 192,
            "midi": 76,
            "name": "E5",
            "ticks": 83712,
            "time": 115.752114,
            "velocity": 0.7874015748031497
          },
          {
            "duration": 0.2654864999999944,
            "durationTicks": 192,
            "midi": 68,
            "name": "G#4",
            "ticks": 83712,
            "time": 115.752114,
            "velocity": 0.7874015748031497
          },
          {
            "duration": 0.1327432500000043,
            "durationTicks": 96,
            "midi": 78,
            "name": "F#5",
            "ticks": 83904,
            "time": 116.0176005,
            "velocity": 0.7874015748031497
          },
          {
            "duration": 0.1327432500000043,
            "durationTicks": 96,
            "midi": 71,
            "name": "B4",
            "ticks": 83904,
            "time": 116.0176005,
            "velocity": 0.7874015748031497
          },
          {
            "duration": 0.1327432500000043,
            "durationTicks": 96,
            "midi": 75,
            "name": "D#5",
            "ticks": 84000,
            "time": 116.15034375,
            "velocity": 0.7874015748031497
          },
          {
            "duration": 0.1327432500000043,
            "durationTicks": 96,
            "midi": 66,
            "name": "F#4",
            "ticks": 84000,
            "time": 116.15034375,
            "velocity": 0.7874015748031497
          },
          {
            "duration": 0.2654865000000086,
            "durationTicks": 192,
            "midi": 71,
            "name": "B4",
            "ticks": 84288,
            "time": 116.5485735,
            "velocity": 0.7874015748031497
          },
          {
            "duration": 0.2654865000000086,
            "durationTicks": 192,
            "midi": 63,
            "name": "D#4",
            "ticks": 84288,
            "time": 116.5485735,
            "velocity": 0.7874015748031497
          },
          {
            "duration": 1.0619459999999918,
            "durationTicks": 768,
            "midi": 73,
            "name": "C#5",
            "ticks": 84480,
            "time": 116.81406000000001,
            "velocity": 0.7874015748031497
          },
          {
            "duration": 1.0619459999999918,
            "durationTicks": 768,
            "midi": 64,
            "name": "E4",
            "ticks": 84480,
            "time": 116.81406000000001,
            "velocity": 0.7874015748031497
          },
          {
            "duration": 0.1327432500000043,
            "durationTicks": 96,
            "midi": 68,
            "name": "G#4",
            "ticks": 85632,
            "time": 118.406979,
            "velocity": 0.7874015748031497
          },
          {
            "duration": 0.1327432500000043,
            "durationTicks": 96,
            "midi": 76,
            "name": "E5",
            "ticks": 85632,
            "time": 118.406979,
            "velocity": 0.7874015748031497
          },
          {
            "duration": 0.1327432499999901,
            "durationTicks": 96,
            "midi": 68,
            "name": "G#4",
            "ticks": 85728,
            "time": 118.53972225000001,
            "velocity": 0.5905511811023622
          },
          {
            "duration": 0.1327432499999901,
            "durationTicks": 96,
            "midi": 76,
            "name": "E5",
            "ticks": 85728,
            "time": 118.53972225000001,
            "velocity": 0.5905511811023622
          },
          {
            "duration": 0.1327432500000043,
            "durationTicks": 96,
            "midi": 71,
            "name": "B4",
            "ticks": 85824,
            "time": 118.6724655,
            "velocity": 0.7874015748031497
          },
          {
            "duration": 0.1327432500000043,
            "durationTicks": 96,
            "midi": 78,
            "name": "F#5",
            "ticks": 85824,
            "time": 118.6724655,
            "velocity": 0.7874015748031497
          },
          {
            "duration": 0.1327432500000043,
            "durationTicks": 96,
            "midi": 71,
            "name": "B4",
            "ticks": 85920,
            "time": 118.80520875,
            "velocity": 0.5905511811023622
          },
          {
            "duration": 0.1327432500000043,
            "durationTicks": 96,
            "midi": 78,
            "name": "F#5",
            "ticks": 85920,
            "time": 118.80520875,
            "velocity": 0.5905511811023622
          },
          {
            "duration": 0.530973000000003,
            "durationTicks": 384,
            "midi": 73,
            "name": "C#5",
            "ticks": 86016,
            "time": 118.93795200000001,
            "velocity": 0.7874015748031497
          },
          {
            "duration": 0.530973000000003,
            "durationTicks": 384,
            "midi": 80,
            "name": "G#5",
            "ticks": 86016,
            "time": 118.93795200000001,
            "velocity": 0.7874015748031497
          },
          {
            "duration": 0.1327432500000043,
            "durationTicks": 96,
            "midi": 77,
            "name": "F5",
            "ticks": 86544,
            "time": 119.668039875,
            "velocity": 0.7874015748031497
          },
          {
            "duration": 0.1327432500000043,
            "durationTicks": 96,
            "midi": 71,
            "name": "B4",
            "ticks": 86592,
            "time": 119.73441150000001,
            "velocity": 0.7874015748031497
          },
          {
            "duration": 0.1327432500000043,
            "durationTicks": 96,
            "midi": 78,
            "name": "F#5",
            "ticks": 86592,
            "time": 119.73441150000001,
            "velocity": 0.7874015748031497
          },
          {
            "duration": 0.2654865000000086,
            "durationTicks": 192,
            "midi": 76,
            "name": "E5",
            "ticks": 86784,
            "time": 119.999898,
            "velocity": 0.7874015748031497
          },
          {
            "duration": 0.2654865000000086,
            "durationTicks": 192,
            "midi": 68,
            "name": "G#4",
            "ticks": 86784,
            "time": 119.999898,
            "velocity": 0.7874015748031497
          },
          {
            "duration": 0.1327432499999901,
            "durationTicks": 96,
            "midi": 71,
            "name": "B4",
            "ticks": 86976,
            "time": 120.26538450000001,
            "velocity": 0.7874015748031497
          },
          {
            "duration": 0.1327432499999901,
            "durationTicks": 96,
            "midi": 78,
            "name": "F#5",
            "ticks": 86976,
            "time": 120.26538450000001,
            "velocity": 0.7874015748031497
          },
          {
            "duration": 0.1327432500000043,
            "durationTicks": 96,
            "midi": 75,
            "name": "D#5",
            "ticks": 87072,
            "time": 120.39812775,
            "velocity": 0.7874015748031497
          },
          {
            "duration": 0.1327432500000043,
            "durationTicks": 96,
            "midi": 66,
            "name": "F#4",
            "ticks": 87072,
            "time": 120.39812775,
            "velocity": 0.7874015748031497
          },
          {
            "duration": 0.2654864999999944,
            "durationTicks": 192,
            "midi": 75,
            "name": "D#5",
            "ticks": 87360,
            "time": 120.79635750000001,
            "velocity": 0.7874015748031497
          },
          {
            "duration": 0.2654864999999944,
            "durationTicks": 192,
            "midi": 83,
            "name": "B5",
            "ticks": 87360,
            "time": 120.79635750000001,
            "velocity": 0.7874015748031497
          },
          {
            "duration": 1.0619459999999918,
            "durationTicks": 768,
            "midi": 80,
            "name": "G#5",
            "ticks": 87552,
            "time": 121.06184400000001,
            "velocity": 0.7874015748031497
          },
          {
            "duration": 1.0619459999999918,
            "durationTicks": 768,
            "midi": 73,
            "name": "C#5",
            "ticks": 87552,
            "time": 121.06184400000001,
            "velocity": 0.7874015748031497
          },
          {
            "duration": 0.1327432500000043,
            "durationTicks": 96,
            "midi": 68,
            "name": "G#4",
            "ticks": 88704,
            "time": 122.654763,
            "velocity": 0.7874015748031497
          },
          {
            "duration": 0.1327432500000043,
            "durationTicks": 96,
            "midi": 76,
            "name": "E5",
            "ticks": 88704,
            "time": 122.654763,
            "velocity": 0.7874015748031497
          },
          {
            "duration": 0.1327432500000043,
            "durationTicks": 96,
            "midi": 76,
            "name": "E5",
            "ticks": 88800,
            "time": 122.78750625,
            "velocity": 0.5905511811023622
          },
          {
            "duration": 0.1327432500000043,
            "durationTicks": 96,
            "midi": 68,
            "name": "G#4",
            "ticks": 88800,
            "time": 122.78750625,
            "velocity": 0.5905511811023622
          },
          {
            "duration": 0.1327432499999901,
            "durationTicks": 96,
            "midi": 78,
            "name": "F#5",
            "ticks": 88896,
            "time": 122.92024950000001,
            "velocity": 0.7874015748031497
          },
          {
            "duration": 0.1327432499999901,
            "durationTicks": 96,
            "midi": 71,
            "name": "B4",
            "ticks": 88896,
            "time": 122.92024950000001,
            "velocity": 0.7874015748031497
          },
          {
            "duration": 0.1327432500000043,
            "durationTicks": 96,
            "midi": 71,
            "name": "B4",
            "ticks": 88992,
            "time": 123.05299275,
            "velocity": 0.5905511811023622
          },
          {
            "duration": 0.1327432500000043,
            "durationTicks": 96,
            "midi": 78,
            "name": "F#5",
            "ticks": 88992,
            "time": 123.05299275,
            "velocity": 0.5905511811023622
          },
          {
            "duration": 0.530973000000003,
            "durationTicks": 384,
            "midi": 73,
            "name": "C#5",
            "ticks": 89088,
            "time": 123.185736,
            "velocity": 0.7874015748031497
          },
          {
            "duration": 0.530973000000003,
            "durationTicks": 384,
            "midi": 80,
            "name": "G#5",
            "ticks": 89088,
            "time": 123.185736,
            "velocity": 0.7874015748031497
          },
          {
            "duration": 0.2654865000000086,
            "durationTicks": 192,
            "midi": 78,
            "name": "F#5",
            "ticks": 89664,
            "time": 123.9821955,
            "velocity": 0.7874015748031497
          },
          {
            "duration": 0.2654865000000086,
            "durationTicks": 192,
            "midi": 71,
            "name": "B4",
            "ticks": 89664,
            "time": 123.9821955,
            "velocity": 0.7874015748031497
          },
          {
            "duration": 0.2654864999999944,
            "durationTicks": 192,
            "midi": 76,
            "name": "E5",
            "ticks": 89856,
            "time": 124.24768200000001,
            "velocity": 0.7874015748031497
          },
          {
            "duration": 0.2654864999999944,
            "durationTicks": 192,
            "midi": 68,
            "name": "G#4",
            "ticks": 89856,
            "time": 124.24768200000001,
            "velocity": 0.7874015748031497
          },
          {
            "duration": 0.1327432500000043,
            "durationTicks": 96,
            "midi": 71,
            "name": "B4",
            "ticks": 90048,
            "time": 124.5131685,
            "velocity": 0.7874015748031497
          },
          {
            "duration": 0.1327432500000043,
            "durationTicks": 96,
            "midi": 78,
            "name": "F#5",
            "ticks": 90048,
            "time": 124.5131685,
            "velocity": 0.7874015748031497
          },
          {
            "duration": 0.1327432499999901,
            "durationTicks": 96,
            "midi": 75,
            "name": "D#5",
            "ticks": 90144,
            "time": 124.64591175000001,
            "velocity": 0.7874015748031497
          },
          {
            "duration": 0.1327432499999901,
            "durationTicks": 96,
            "midi": 66,
            "name": "F#4",
            "ticks": 90144,
            "time": 124.64591175000001,
            "velocity": 0.7874015748031497
          },
          {
            "duration": 0.2654864999999944,
            "durationTicks": 192,
            "midi": 71,
            "name": "B4",
            "ticks": 90432,
            "time": 125.04414150000001,
            "velocity": 0.7874015748031497
          },
          {
            "duration": 0.2654864999999944,
            "durationTicks": 192,
            "midi": 63,
            "name": "D#4",
            "ticks": 90432,
            "time": 125.04414150000001,
            "velocity": 0.7874015748031497
          },
          {
            "duration": 1.9911487500000078,
            "durationTicks": 1440,
            "midi": 64,
            "name": "E4",
            "ticks": 90624,
            "time": 125.309628,
            "velocity": 0.7874015748031497
          },
          {
            "duration": 1.9911487500000078,
            "durationTicks": 1440,
            "midi": 73,
            "name": "C#5",
            "ticks": 90624,
            "time": 125.309628,
            "velocity": 0.7874015748031497
          },
          {
            "duration": 1.8584055000000177,
            "durationTicks": 1344,
            "midi": 71,
            "name": "B4",
            "ticks": 92160,
            "time": 127.43352,
            "velocity": 0.7874015748031497
          },
          {
            "duration": 1.592919000000009,
            "durationTicks": 1152,
            "midi": 75,
            "name": "D#5",
            "ticks": 92160,
            "time": 127.43352,
            "velocity": 0.7874015748031497
          }
        ],
        "endOfTrackTicks": 93504
      },
      {
        "channel": 5,
        "controlChanges": {},
        "pitchBends": [],
        "instrument": {
          "family": "piano",
          "number": 3,
          "name": "honky-tonk piano"
        },
        "name": "Ragtime Piano",
        "notes": [
          {
            "duration": 0.13274325000000076,
            "durationTicks": 96,
            "midi": 37,
            "name": "C#2",
            "ticks": 13056,
            "time": 18.053082,
            "velocity": 0.7874015748031497
          },
          {
            "duration": 0.13274325000000076,
            "durationTicks": 96,
            "midi": 56,
            "name": "G#3",
            "ticks": 13056,
            "time": 18.053082,
            "velocity": 0.7874015748031497
          },
          {
            "duration": 0.13274325000000076,
            "durationTicks": 96,
            "midi": 64,
            "name": "E4",
            "ticks": 13056,
            "time": 18.053082,
            "velocity": 0.7874015748031497
          },
          {
            "duration": 0.13274325000000076,
            "durationTicks": 96,
            "midi": 56,
            "name": "G#3",
            "ticks": 13248,
            "time": 18.3185685,
            "velocity": 0.5905511811023622
          },
          {
            "duration": 0.13274325000000076,
            "durationTicks": 96,
            "midi": 64,
            "name": "E4",
            "ticks": 13248,
            "time": 18.3185685,
            "velocity": 0.5905511811023622
          },
          {
            "duration": 0.13274325000000076,
            "durationTicks": 96,
            "midi": 59,
            "name": "B3",
            "ticks": 13440,
            "time": 18.584055,
            "velocity": 0.7874015748031497
          },
          {
            "duration": 0.13274325000000076,
            "durationTicks": 96,
            "midi": 39,
            "name": "D#2",
            "ticks": 13440,
            "time": 18.584055,
            "velocity": 0.7874015748031497
          },
          {
            "duration": 0.13274325000000076,
            "durationTicks": 96,
            "midi": 68,
            "name": "G#4",
            "ticks": 13440,
            "time": 18.584055,
            "velocity": 0.7874015748031497
          },
          {
            "duration": 0.13274325000000076,
            "durationTicks": 96,
            "midi": 68,
            "name": "G#4",
            "ticks": 13632,
            "time": 18.8495415,
            "velocity": 0.5905511811023622
          },
          {
            "duration": 0.13274325000000076,
            "durationTicks": 96,
            "midi": 59,
            "name": "B3",
            "ticks": 13632,
            "time": 18.8495415,
            "velocity": 0.5905511811023622
          },
          {
            "duration": 0.1327432499999972,
            "durationTicks": 96,
            "midi": 33,
            "name": "A1",
            "ticks": 13824,
            "time": 19.115028000000002,
            "velocity": 0.7874015748031497
          },
          {
            "duration": 0.6637162500000002,
            "durationTicks": 480,
            "midi": 61,
            "name": "C#4",
            "ticks": 13824,
            "time": 19.115028000000002,
            "velocity": 0.7874015748031497
          },
          {
            "duration": 0.6637162500000002,
            "durationTicks": 480,
            "midi": 66,
            "name": "F#4",
            "ticks": 13824,
            "time": 19.115028000000002,
            "velocity": 0.7874015748031497
          },
          {
            "duration": 0.13274325000000076,
            "durationTicks": 96,
            "midi": 33,
            "name": "A1",
            "ticks": 13920,
            "time": 19.24777125,
            "velocity": 0.7874015748031497
          },
          {
            "duration": 0.13274325000000076,
            "durationTicks": 96,
            "midi": 37,
            "name": "C#2",
            "ticks": 14016,
            "time": 19.3805145,
            "velocity": 0.7874015748031497
          },
          {
            "duration": 0.13274325000000076,
            "durationTicks": 96,
            "midi": 33,
            "name": "A1",
            "ticks": 14112,
            "time": 19.51325775,
            "velocity": 0.7874015748031497
          },
          {
            "duration": 0.13274325000000076,
            "durationTicks": 96,
            "midi": 33,
            "name": "A1",
            "ticks": 14208,
            "time": 19.646001000000002,
            "velocity": 0.7874015748031497
          },
          {
            "duration": 0.1327432499999972,
            "durationTicks": 96,
            "midi": 39,
            "name": "D#2",
            "ticks": 14304,
            "time": 19.778744250000003,
            "velocity": 0.7874015748031497
          },
          {
            "duration": 0.13274325000000076,
            "durationTicks": 96,
            "midi": 68,
            "name": "G#4",
            "ticks": 14400,
            "time": 19.9114875,
            "velocity": 0.7874015748031497
          },
          {
            "duration": 0.13274325000000076,
            "durationTicks": 96,
            "midi": 33,
            "name": "A1",
            "ticks": 14400,
            "time": 19.9114875,
            "velocity": 0.7874015748031497
          },
          {
            "duration": 0.13274325000000076,
            "durationTicks": 96,
            "midi": 40,
            "name": "E2",
            "ticks": 14496,
            "time": 20.04423075,
            "velocity": 0.7874015748031497
          },
          {
            "duration": 0.2654865000000015,
            "durationTicks": 192,
            "midi": 61,
            "name": "C#4",
            "ticks": 14592,
            "time": 20.176974,
            "velocity": 0.7874015748031497
          },
          {
            "duration": 0.13274325000000076,
            "durationTicks": 96,
            "midi": 33,
            "name": "A1",
            "ticks": 14592,
            "time": 20.176974,
            "velocity": 0.7874015748031497
          },
          {
            "duration": 0.13274325000000076,
            "durationTicks": 96,
            "midi": 33,
            "name": "A1",
            "ticks": 14688,
            "time": 20.309717250000002,
            "velocity": 0.7874015748031497
          },
          {
            "duration": 0.1327432499999972,
            "durationTicks": 96,
            "midi": 42,
            "name": "F#2",
            "ticks": 14784,
            "time": 20.442460500000003,
            "velocity": 0.7874015748031497
          },
          {
            "duration": 0.13274325000000076,
            "durationTicks": 96,
            "midi": 33,
            "name": "A1",
            "ticks": 14880,
            "time": 20.57520375,
            "velocity": 0.7874015748031497
          },
          {
            "duration": 0.2654865000000015,
            "durationTicks": 192,
            "midi": 63,
            "name": "D#4",
            "ticks": 14880,
            "time": 20.57520375,
            "velocity": 0.7874015748031497
          },
          {
            "duration": 0.13274325000000076,
            "durationTicks": 96,
            "midi": 33,
            "name": "A1",
            "ticks": 14976,
            "time": 20.707947,
            "velocity": 0.7874015748031497
          },
          {
            "duration": 0.13274325000000076,
            "durationTicks": 96,
            "midi": 40,
            "name": "E2",
            "ticks": 15072,
            "time": 20.84069025,
            "velocity": 0.7874015748031497
          },
          {
            "duration": 0.1327432499999972,
            "durationTicks": 96,
            "midi": 33,
            "name": "A1",
            "ticks": 15168,
            "time": 20.973433500000002,
            "velocity": 0.7874015748031497
          },
          {
            "duration": 0.1327432499999972,
            "durationTicks": 96,
            "midi": 64,
            "name": "E4",
            "ticks": 15168,
            "time": 20.973433500000002,
            "velocity": 0.7874015748031497
          },
          {
            "duration": 0.13274325000000076,
            "durationTicks": 96,
            "midi": 33,
            "name": "A1",
            "ticks": 15264,
            "time": 21.10617675,
            "velocity": 0.7874015748031497
          },
          {
            "duration": 0.13274325000000076,
            "durationTicks": 96,
            "midi": 33,
            "name": "A1",
            "ticks": 15360,
            "time": 21.23892,
            "velocity": 0.7874015748031497
          },
          {
            "duration": 0.9292027500000017,
            "durationTicks": 672,
            "midi": 68,
            "name": "G#4",
            "ticks": 15360,
            "time": 21.23892,
            "velocity": 0.7874015748031497
          },
          {
            "duration": 0.13274325000000076,
            "durationTicks": 96,
            "midi": 33,
            "name": "A1",
            "ticks": 15456,
            "time": 21.37166325,
            "velocity": 0.7874015748031497
          },
          {
            "duration": 0.13274325000000076,
            "durationTicks": 96,
            "midi": 39,
            "name": "D#2",
            "ticks": 15552,
            "time": 21.5044065,
            "velocity": 0.7874015748031497
          },
          {
            "duration": 0.1327432499999972,
            "durationTicks": 96,
            "midi": 33,
            "name": "A1",
            "ticks": 15648,
            "time": 21.637149750000003,
            "velocity": 0.7874015748031497
          },
          {
            "duration": 0.13274325000000076,
            "durationTicks": 96,
            "midi": 33,
            "name": "A1",
            "ticks": 15744,
            "time": 21.769893,
            "velocity": 0.7874015748031497
          },
          {
            "duration": 0.13274325000000076,
            "durationTicks": 96,
            "midi": 40,
            "name": "E2",
            "ticks": 15840,
            "time": 21.90263625,
            "velocity": 0.7874015748031497
          },
          {
            "duration": 0.13274325000000076,
            "durationTicks": 96,
            "midi": 33,
            "name": "A1",
            "ticks": 15936,
            "time": 22.0353795,
            "velocity": 0.7874015748031497
          },
          {
            "duration": 0.13274325000000076,
            "durationTicks": 96,
            "midi": 40,
            "name": "E2",
            "ticks": 16032,
            "time": 22.168122750000002,
            "velocity": 0.7874015748031497
          },
          {
            "duration": 0.1327432499999972,
            "durationTicks": 96,
            "midi": 56,
            "name": "G#3",
            "ticks": 16128,
            "time": 22.300866000000003,
            "velocity": 0.7874015748031497
          },
          {
            "duration": 0.1327432499999972,
            "durationTicks": 96,
            "midi": 33,
            "name": "A1",
            "ticks": 16128,
            "time": 22.300866000000003,
            "velocity": 0.7874015748031497
          },
          {
            "duration": 0.1327432499999972,
            "durationTicks": 96,
            "midi": 64,
            "name": "E4",
            "ticks": 16128,
            "time": 22.300866000000003,
            "velocity": 0.7874015748031497
          },
          {
            "duration": 0.13274325000000076,
            "durationTicks": 96,
            "midi": 37,
            "name": "C#2",
            "ticks": 16224,
            "time": 22.43360925,
            "velocity": 0.7874015748031497
          },
          {
            "duration": 0.13274325000000076,
            "durationTicks": 96,
            "midi": 64,
            "name": "E4",
            "ticks": 16320,
            "time": 22.5663525,
            "velocity": 0.5905511811023622
          },
          {
            "duration": 0.13274325000000076,
            "durationTicks": 96,
            "midi": 56,
            "name": "G#3",
            "ticks": 16320,
            "time": 22.5663525,
            "velocity": 0.5905511811023622
          },
          {
            "duration": 0.13274325000000076,
            "durationTicks": 96,
            "midi": 40,
            "name": "E2",
            "ticks": 16320,
            "time": 22.5663525,
            "velocity": 0.7874015748031497
          },
          {
            "duration": 0.13274325000000076,
            "durationTicks": 96,
            "midi": 33,
            "name": "A1",
            "ticks": 16416,
            "time": 22.69909575,
            "velocity": 0.7874015748031497
          },
          {
            "duration": 0.13274325000000076,
            "durationTicks": 96,
            "midi": 35,
            "name": "B1",
            "ticks": 16512,
            "time": 22.831839000000002,
            "velocity": 0.7874015748031497
          },
          {
            "duration": 0.13274325000000076,
            "durationTicks": 96,
            "midi": 68,
            "name": "G#4",
            "ticks": 16512,
            "time": 22.831839000000002,
            "velocity": 0.7874015748031497
          },
          {
            "duration": 0.13274325000000076,
            "durationTicks": 96,
            "midi": 59,
            "name": "B3",
            "ticks": 16512,
            "time": 22.831839000000002,
            "velocity": 0.7874015748031497
          },
          {
            "duration": 0.1327432499999972,
            "durationTicks": 96,
            "midi": 39,
            "name": "D#2",
            "ticks": 16608,
            "time": 22.964582250000003,
            "velocity": 0.7874015748031497
          },
          {
            "duration": 0.13274325000000076,
            "durationTicks": 96,
            "midi": 59,
            "name": "B3",
            "ticks": 16704,
            "time": 23.0973255,
            "velocity": 0.5905511811023622
          },
          {
            "duration": 0.13274325000000076,
            "durationTicks": 96,
            "midi": 42,
            "name": "F#2",
            "ticks": 16704,
            "time": 23.0973255,
            "velocity": 0.7874015748031497
          },
          {
            "duration": 0.13274325000000076,
            "durationTicks": 96,
            "midi": 68,
            "name": "G#4",
            "ticks": 16704,
            "time": 23.0973255,
            "velocity": 0.5905511811023622
          },
          {
            "duration": 0.13274325000000076,
            "durationTicks": 96,
            "midi": 35,
            "name": "B1",
            "ticks": 16800,
            "time": 23.23006875,
            "velocity": 0.7874015748031497
          },
          {
            "duration": 0.6637162500000002,
            "durationTicks": 480,
            "midi": 61,
            "name": "C#4",
            "ticks": 16896,
            "time": 23.362812,
            "velocity": 0.7874015748031497
          },
          {
            "duration": 0.13274325000000076,
            "durationTicks": 96,
            "midi": 37,
            "name": "C#2",
            "ticks": 16896,
            "time": 23.362812,
            "velocity": 0.7874015748031497
          },
          {
            "duration": 0.6637162500000002,
            "durationTicks": 480,
            "midi": 66,
            "name": "F#4",
            "ticks": 16896,
            "time": 23.362812,
            "velocity": 0.7874015748031497
          },
          {
            "duration": 0.1327432499999972,
            "durationTicks": 96,
            "midi": 37,
            "name": "C#2",
            "ticks": 16992,
            "time": 23.495555250000002,
            "velocity": 0.7874015748031497
          },
          {
            "duration": 0.13274325000000076,
            "durationTicks": 96,
            "midi": 44,
            "name": "G#2",
            "ticks": 17088,
            "time": 23.6282985,
            "velocity": 0.7874015748031497
          },
          {
            "duration": 0.13274325000000076,
            "durationTicks": 96,
            "midi": 37,
            "name": "C#2",
            "ticks": 17184,
            "time": 23.76104175,
            "velocity": 0.7874015748031497
          },
          {
            "duration": 0.13274325000000076,
            "durationTicks": 96,
            "midi": 37,
            "name": "C#2",
            "ticks": 17280,
            "time": 23.893785,
            "velocity": 0.7874015748031497
          },
          {
            "duration": 0.13274325000000076,
            "durationTicks": 96,
            "midi": 42,
            "name": "F#2",
            "ticks": 17376,
            "time": 24.026528250000002,
            "velocity": 0.7874015748031497
          },
          {
            "duration": 0.1327432499999972,
            "durationTicks": 96,
            "midi": 40,
            "name": "E2",
            "ticks": 17472,
            "time": 24.159271500000003,
            "velocity": 0.7874015748031497
          },
          {
            "duration": 0.1327432499999972,
            "durationTicks": 96,
            "midi": 68,
            "name": "G#4",
            "ticks": 17472,
            "time": 24.159271500000003,
            "velocity": 0.7874015748031497
          },
          {
            "duration": 0.13274325000000076,
            "durationTicks": 96,
            "midi": 35,
            "name": "B1",
            "ticks": 17568,
            "time": 24.29201475,
            "velocity": 0.7874015748031497
          },
          {
            "duration": 0.13274325000000076,
            "durationTicks": 96,
            "midi": 37,
            "name": "C#2",
            "ticks": 17664,
            "time": 24.424758,
            "velocity": 0.7874015748031497
          },
          {
            "duration": 0.2654865000000015,
            "durationTicks": 192,
            "midi": 61,
            "name": "C#4",
            "ticks": 17664,
            "time": 24.424758,
            "velocity": 0.7874015748031497
          },
          {
            "duration": 0.13274325000000076,
            "durationTicks": 96,
            "midi": 37,
            "name": "C#2",
            "ticks": 17760,
            "time": 24.55750125,
            "velocity": 0.7874015748031497
          },
          {
            "duration": 0.13274325000000076,
            "durationTicks": 96,
            "midi": 44,
            "name": "G#2",
            "ticks": 17856,
            "time": 24.690244500000002,
            "velocity": 0.7874015748031497
          },
          {
            "duration": 0.26548649999999796,
            "durationTicks": 192,
            "midi": 63,
            "name": "D#4",
            "ticks": 17952,
            "time": 24.822987750000003,
            "velocity": 0.7874015748031497
          },
          {
            "duration": 0.1327432499999972,
            "durationTicks": 96,
            "midi": 37,
            "name": "C#2",
            "ticks": 17952,
            "time": 24.822987750000003,
            "velocity": 0.7874015748031497
          },
          {
            "duration": 0.13274325000000076,
            "durationTicks": 96,
            "midi": 37,
            "name": "C#2",
            "ticks": 18048,
            "time": 24.955731,
            "velocity": 0.7874015748031497
          },
          {
            "duration": 0.13274325000000076,
            "durationTicks": 96,
            "midi": 42,
            "name": "F#2",
            "ticks": 18144,
            "time": 25.08847425,
            "velocity": 0.7874015748031497
          },
          {
            "duration": 0.13274325000000076,
            "durationTicks": 96,
            "midi": 71,
            "name": "B4",
            "ticks": 18240,
            "time": 25.2212175,
            "velocity": 0.7874015748031497
          },
          {
            "duration": 0.13274325000000076,
            "durationTicks": 96,
            "midi": 40,
            "name": "E2",
            "ticks": 18240,
            "time": 25.2212175,
            "velocity": 0.7874015748031497
          },
          {
            "duration": 0.13274325000000076,
            "durationTicks": 96,
            "midi": 35,
            "name": "B1",
            "ticks": 18336,
            "time": 25.353960750000002,
            "velocity": 0.7874015748031497
          },
          {
            "duration": 0.9292027499999982,
            "durationTicks": 672,
            "midi": 68,
            "name": "G#4",
            "ticks": 18432,
            "time": 25.486704000000003,
            "velocity": 0.7874015748031497
          },
          {
            "duration": 0.1327432499999972,
            "durationTicks": 96,
            "midi": 37,
            "name": "C#2",
            "ticks": 18432,
            "time": 25.486704000000003,
            "velocity": 0.7874015748031497
          },
          {
            "duration": 0.13274325000000076,
            "durationTicks": 96,
            "midi": 37,
            "name": "C#2",
            "ticks": 18528,
            "time": 25.61944725,
            "velocity": 0.7874015748031497
          },
          {
            "duration": 0.13274325000000076,
            "durationTicks": 96,
            "midi": 44,
            "name": "G#2",
            "ticks": 18624,
            "time": 25.7521905,
            "velocity": 0.7874015748031497
          },
          {
            "duration": 0.13274325000000076,
            "durationTicks": 96,
            "midi": 37,
            "name": "C#2",
            "ticks": 18720,
            "time": 25.884933750000002,
            "velocity": 0.7874015748031497
          },
          {
            "duration": 0.1327432499999972,
            "durationTicks": 96,
            "midi": 37,
            "name": "C#2",
            "ticks": 18816,
            "time": 26.017677000000003,
            "velocity": 0.7874015748031497
          },
          {
            "duration": 0.13274325000000076,
            "durationTicks": 96,
            "midi": 42,
            "name": "F#2",
            "ticks": 18912,
            "time": 26.15042025,
            "velocity": 0.7874015748031497
          },
          {
            "duration": 0.13274325000000076,
            "durationTicks": 96,
            "midi": 40,
            "name": "E2",
            "ticks": 19008,
            "time": 26.2831635,
            "velocity": 0.7874015748031497
          },
          {
            "duration": 0.13274325000000076,
            "durationTicks": 96,
            "midi": 35,
            "name": "B1",
            "ticks": 19104,
            "time": 26.41590675,
            "velocity": 0.7874015748031497
          },
          {
            "duration": 0.13274325000000076,
            "durationTicks": 96,
            "midi": 68,
            "name": "G#4",
            "ticks": 19200,
            "time": 26.548650000000002,
            "velocity": 0.7874015748031497
          },
          {
            "duration": 0.13274325000000076,
            "durationTicks": 96,
            "midi": 61,
            "name": "C#4",
            "ticks": 19200,
            "time": 26.548650000000002,
            "velocity": 0.7874015748031497
          },
          {
            "duration": 0.13274325000000076,
            "durationTicks": 96,
            "midi": 37,
            "name": "C#2",
            "ticks": 19200,
            "time": 26.548650000000002,
            "velocity": 0.7874015748031497
          },
          {
            "duration": 0.13274325000000076,
            "durationTicks": 96,
            "midi": 61,
            "name": "C#4",
            "ticks": 19392,
            "time": 26.8141365,
            "velocity": 0.5905511811023622
          },
          {
            "duration": 0.13274325000000076,
            "durationTicks": 96,
            "midi": 68,
            "name": "G#4",
            "ticks": 19392,
            "time": 26.8141365,
            "velocity": 0.5905511811023622
          },
          {
            "duration": 0.13274325000000076,
            "durationTicks": 96,
            "midi": 63,
            "name": "D#4",
            "ticks": 19584,
            "time": 27.079623,
            "velocity": 0.7874015748031497
          },
          {
            "duration": 0.13274325000000076,
            "durationTicks": 96,
            "midi": 69,
            "name": "A4",
            "ticks": 19584,
            "time": 27.079623,
            "velocity": 0.7874015748031497
          },
          {
            "duration": 0.13274325000000076,
            "durationTicks": 96,
            "midi": 35,
            "name": "B1",
            "ticks": 19584,
            "time": 27.079623,
            "velocity": 0.7874015748031497
          },
          {
            "duration": 0.1327432499999972,
            "durationTicks": 96,
            "midi": 69,
            "name": "A4",
            "ticks": 19776,
            "time": 27.345109500000003,
            "velocity": 0.5905511811023622
          },
          {
            "duration": 0.1327432499999972,
            "durationTicks": 96,
            "midi": 63,
            "name": "D#4",
            "ticks": 19776,
            "time": 27.345109500000003,
            "velocity": 0.5905511811023622
          },
          {
            "duration": 0.796459500000001,
            "durationTicks": 576,
            "midi": 64,
            "name": "E4",
            "ticks": 19968,
            "time": 27.610596,
            "velocity": 0.7874015748031497
          },
          {
            "duration": 0.796459500000001,
            "durationTicks": 576,
            "midi": 71,
            "name": "B4",
            "ticks": 19968,
            "time": 27.610596,
            "velocity": 0.7874015748031497
          },
          {
            "duration": 0.13274325000000076,
            "durationTicks": 96,
            "midi": 30,
            "name": "F#1",
            "ticks": 19968,
            "time": 27.610596,
            "velocity": 0.7874015748031497
          },
          {
            "duration": 0.13274325000000076,
            "durationTicks": 96,
            "midi": 30,
            "name": "F#1",
            "ticks": 20064,
            "time": 27.743339250000002,
            "velocity": 0.7874015748031497
          },
          {
            "duration": 0.1327432499999972,
            "durationTicks": 96,
            "midi": 37,
            "name": "C#2",
            "ticks": 20160,
            "time": 27.876082500000003,
            "velocity": 0.7874015748031497
          },
          {
            "duration": 0.13274325000000076,
            "durationTicks": 96,
            "midi": 30,
            "name": "F#1",
            "ticks": 20256,
            "time": 28.00882575,
            "velocity": 0.7874015748031497
          },
          {
            "duration": 0.13274325000000076,
            "durationTicks": 96,
            "midi": 30,
            "name": "F#1",
            "ticks": 20352,
            "time": 28.141569,
            "velocity": 0.7874015748031497
          },
          {
            "duration": 0.13274325000000076,
            "durationTicks": 96,
            "midi": 30,
            "name": "F#1",
            "ticks": 20448,
            "time": 28.27431225,
            "velocity": 0.7874015748031497
          },
          {
            "duration": 0.13274325000000076,
            "durationTicks": 96,
            "midi": 66,
            "name": "F#4",
            "ticks": 20544,
            "time": 28.407055500000002,
            "velocity": 0.7874015748031497
          },
          {
            "duration": 0.13274325000000076,
            "durationTicks": 96,
            "midi": 42,
            "name": "F#2",
            "ticks": 20544,
            "time": 28.407055500000002,
            "velocity": 0.7874015748031497
          },
          {
            "duration": 0.13274325000000076,
            "durationTicks": 96,
            "midi": 73,
            "name": "C#5",
            "ticks": 20544,
            "time": 28.407055500000002,
            "velocity": 0.7874015748031497
          },
          {
            "duration": 0.1327432499999972,
            "durationTicks": 96,
            "midi": 44,
            "name": "G#2",
            "ticks": 20640,
            "time": 28.539798750000003,
            "velocity": 0.7874015748031497
          },
          {
            "duration": 0.2654865000000015,
            "durationTicks": 192,
            "midi": 56,
            "name": "G#3",
            "ticks": 20736,
            "time": 28.672542,
            "velocity": 0.7874015748031497
          },
          {
            "duration": 0.2654865000000015,
            "durationTicks": 192,
            "midi": 64,
            "name": "E4",
            "ticks": 20736,
            "time": 28.672542,
            "velocity": 0.7874015748031497
          },
          {
            "duration": 0.13274325000000076,
            "durationTicks": 96,
            "midi": 30,
            "name": "F#1",
            "ticks": 20736,
            "time": 28.672542,
            "velocity": 0.7874015748031497
          },
          {
            "duration": 0.13274325000000076,
            "durationTicks": 96,
            "midi": 30,
            "name": "F#1",
            "ticks": 20832,
            "time": 28.80528525,
            "velocity": 0.7874015748031497
          },
          {
            "duration": 0.13274325000000076,
            "durationTicks": 96,
            "midi": 37,
            "name": "C#2",
            "ticks": 20928,
            "time": 28.9380285,
            "velocity": 0.7874015748031497
          },
          {
            "duration": 0.26548649999999796,
            "durationTicks": 192,
            "midi": 66,
            "name": "F#4",
            "ticks": 21024,
            "time": 29.070771750000002,
            "velocity": 0.7874015748031497
          },
          {
            "duration": 0.13274325000000076,
            "durationTicks": 96,
            "midi": 30,
            "name": "F#1",
            "ticks": 21024,
            "time": 29.070771750000002,
            "velocity": 0.7874015748031497
          },
          {
            "duration": 0.26548649999999796,
            "durationTicks": 192,
            "midi": 59,
            "name": "B3",
            "ticks": 21024,
            "time": 29.070771750000002,
            "velocity": 0.7874015748031497
          },
          {
            "duration": 0.1327432499999972,
            "durationTicks": 96,
            "midi": 30,
            "name": "F#1",
            "ticks": 21120,
            "time": 29.203515000000003,
            "velocity": 0.7874015748031497
          },
          {
            "duration": 0.13274325000000076,
            "durationTicks": 96,
            "midi": 30,
            "name": "F#1",
            "ticks": 21216,
            "time": 29.33625825,
            "velocity": 0.7874015748031497
          },
          {
            "duration": 0.13274325000000076,
            "durationTicks": 96,
            "midi": 61,
            "name": "C#4",
            "ticks": 21312,
            "time": 29.4690015,
            "velocity": 0.7874015748031497
          },
          {
            "duration": 0.13274325000000076,
            "durationTicks": 96,
            "midi": 68,
            "name": "G#4",
            "ticks": 21312,
            "time": 29.4690015,
            "velocity": 0.7874015748031497
          },
          {
            "duration": 0.13274325000000076,
            "durationTicks": 96,
            "midi": 42,
            "name": "F#2",
            "ticks": 21312,
            "time": 29.4690015,
            "velocity": 0.7874015748031497
          },
          {
            "duration": 0.13274325000000076,
            "durationTicks": 96,
            "midi": 44,
            "name": "G#2",
            "ticks": 21408,
            "time": 29.60174475,
            "velocity": 0.7874015748031497
          },
          {
            "duration": 0.13274325000000076,
            "durationTicks": 96,
            "midi": 32,
            "name": "G#1",
            "ticks": 21504,
            "time": 29.734488000000002,
            "velocity": 0.7874015748031497
          },
          {
            "duration": 0.7964594999999974,
            "durationTicks": 576,
            "midi": 63,
            "name": "D#4",
            "ticks": 21504,
            "time": 29.734488000000002,
            "velocity": 0.7874015748031497
          },
          {
            "duration": 0.7964594999999974,
            "durationTicks": 576,
            "midi": 71,
            "name": "B4",
            "ticks": 21504,
            "time": 29.734488000000002,
            "velocity": 0.7874015748031497
          },
          {
            "duration": 0.1327432499999972,
            "durationTicks": 96,
            "midi": 32,
            "name": "G#1",
            "ticks": 21600,
            "time": 29.867231250000003,
            "velocity": 0.7874015748031497
          },
          {
            "duration": 0.13274325000000076,
            "durationTicks": 96,
            "midi": 39,
            "name": "D#2",
            "ticks": 21696,
            "time": 29.9999745,
            "velocity": 0.7874015748031497
          },
          {
            "duration": 0.13274325000000076,
            "durationTicks": 96,
            "midi": 32,
            "name": "G#1",
            "ticks": 21792,
            "time": 30.13271775,
            "velocity": 0.7874015748031497
          },
          {
            "duration": 0.13274325000000076,
            "durationTicks": 96,
            "midi": 42,
            "name": "F#2",
            "ticks": 21888,
            "time": 30.265461000000002,
            "velocity": 0.7874015748031497
          },
          {
            "duration": 0.1327432499999972,
            "durationTicks": 96,
            "midi": 32,
            "name": "G#1",
            "ticks": 21984,
            "time": 30.398204250000003,
            "velocity": 0.7874015748031497
          },
          {
            "duration": 0.13274325000000076,
            "durationTicks": 96,
            "midi": 44,
            "name": "G#2",
            "ticks": 22080,
            "time": 30.5309475,
            "velocity": 0.7874015748031497
          },
          {
            "duration": 0.13274325000000076,
            "durationTicks": 96,
            "midi": 73,
            "name": "C#5",
            "ticks": 22080,
            "time": 30.5309475,
            "velocity": 0.7874015748031497
          },
          {
            "duration": 0.13274325000000076,
            "durationTicks": 96,
            "midi": 64,
            "name": "E4",
            "ticks": 22080,
            "time": 30.5309475,
            "velocity": 0.7874015748031497
          },
          {
            "duration": 0.13274325000000076,
            "durationTicks": 96,
            "midi": 47,
            "name": "B2",
            "ticks": 22176,
            "time": 30.66369075,
            "velocity": 0.7874015748031497
          },
          {
            "duration": 0.2654865000000015,
            "durationTicks": 192,
            "midi": 63,
            "name": "D#4",
            "ticks": 22272,
            "time": 30.796434,
            "velocity": 0.7874015748031497
          },
          {
            "duration": 0.13274325000000076,
            "durationTicks": 96,
            "midi": 32,
            "name": "G#1",
            "ticks": 22272,
            "time": 30.796434,
            "velocity": 0.7874015748031497
          },
          {
            "duration": 0.2654865000000015,
            "durationTicks": 192,
            "midi": 54,
            "name": "F#3",
            "ticks": 22272,
            "time": 30.796434,
            "velocity": 0.7874015748031497
          },
          {
            "duration": 0.13274325000000076,
            "durationTicks": 96,
            "midi": 32,
            "name": "G#1",
            "ticks": 22368,
            "time": 30.929177250000002,
            "velocity": 0.7874015748031497
          },
          {
            "duration": 0.1327432499999972,
            "durationTicks": 96,
            "midi": 39,
            "name": "D#2",
            "ticks": 22464,
            "time": 31.061920500000003,
            "velocity": 0.7874015748031497
          },
          {
            "duration": 0.2654865000000015,
            "durationTicks": 192,
            "midi": 66,
            "name": "F#4",
            "ticks": 22560,
            "time": 31.19466375,
            "velocity": 0.7874015748031497
          },
          {
            "duration": 0.2654865000000015,
            "durationTicks": 192,
            "midi": 75,
            "name": "D#5",
            "ticks": 22560,
            "time": 31.19466375,
            "velocity": 0.7874015748031497
          },
          {
            "duration": 0.13274325000000076,
            "durationTicks": 96,
            "midi": 32,
            "name": "G#1",
            "ticks": 22560,
            "time": 31.19466375,
            "velocity": 0.7874015748031497
          },
          {
            "duration": 0.13274325000000076,
            "durationTicks": 96,
            "midi": 42,
            "name": "F#2",
            "ticks": 22656,
            "time": 31.327407,
            "velocity": 0.7874015748031497
          },
          {
            "duration": 0.13274325000000076,
            "durationTicks": 96,
            "midi": 32,
            "name": "G#1",
            "ticks": 22752,
            "time": 31.46015025,
            "velocity": 0.7874015748031497
          },
          {
            "duration": 0.13274325000000076,
            "durationTicks": 96,
            "midi": 44,
            "name": "G#2",
            "ticks": 22848,
            "time": 31.592893500000002,
            "velocity": 0.7874015748031497
          },
          {
            "duration": 0.26548649999999796,
            "durationTicks": 192,
            "midi": 63,
            "name": "D#4",
            "ticks": 22848,
            "time": 31.592893500000002,
            "velocity": 0.7874015748031497
          },
          {
            "duration": 0.26548649999999796,
            "durationTicks": 192,
            "midi": 71,
            "name": "B4",
            "ticks": 22848,
            "time": 31.592893500000002,
            "velocity": 0.7874015748031497
          },
          {
            "duration": 0.1327432499999972,
            "durationTicks": 96,
            "midi": 47,
            "name": "B2",
            "ticks": 22944,
            "time": 31.725636750000003,
            "velocity": 0.7874015748031497
          },
          {
            "duration": 1.8584055,
            "durationTicks": 1344,
            "midi": 64,
            "name": "E4",
            "ticks": 23040,
            "time": 31.85838,
            "velocity": 0.7874015748031497
          },
          {
            "duration": 1.8584055,
            "durationTicks": 1344,
            "midi": 68,
            "name": "G#4",
            "ticks": 23040,
            "time": 31.85838,
            "velocity": 0.7874015748031497
          },
          {
            "duration": 0.13274325000000076,
            "durationTicks": 96,
            "midi": 33,
            "name": "A1",
            "ticks": 23040,
            "time": 31.85838,
            "velocity": 0.7874015748031497
          },
          {
            "duration": 0.1327432499999972,
            "durationTicks": 96,
            "midi": 33,
            "name": "A1",
            "ticks": 23136,
            "time": 31.99112325,
            "velocity": 0.7874015748031497
          },
          {
            "duration": 0.1327432500000043,
            "durationTicks": 96,
            "midi": 40,
            "name": "E2",
            "ticks": 23232,
            "time": 32.1238665,
            "velocity": 0.7874015748031497
          },
          {
            "duration": 0.1327432499999972,
            "durationTicks": 96,
            "midi": 33,
            "name": "A1",
            "ticks": 23328,
            "time": 32.25660975,
            "velocity": 0.7874015748031497
          },
          {
            "duration": 0.1327432500000043,
            "durationTicks": 96,
            "midi": 42,
            "name": "F#2",
            "ticks": 23424,
            "time": 32.389353,
            "velocity": 0.7874015748031497
          },
          {
            "duration": 0.1327432499999972,
            "durationTicks": 96,
            "midi": 33,
            "name": "A1",
            "ticks": 23520,
            "time": 32.522096250000004,
            "velocity": 0.7874015748031497
          },
          {
            "duration": 0.1327432499999972,
            "durationTicks": 96,
            "midi": 40,
            "name": "E2",
            "ticks": 23616,
            "time": 32.6548395,
            "velocity": 0.7874015748031497
          },
          {
            "duration": 0.1327432500000043,
            "durationTicks": 96,
            "midi": 33,
            "name": "A1",
            "ticks": 23712,
            "time": 32.78758275,
            "velocity": 0.7874015748031497
          },
          {
            "duration": 0.1327432499999972,
            "durationTicks": 96,
            "midi": 44,
            "name": "G#2",
            "ticks": 23808,
            "time": 32.920326,
            "velocity": 0.7874015748031497
          },
          {
            "duration": 0.1327432500000043,
            "durationTicks": 96,
            "midi": 33,
            "name": "A1",
            "ticks": 23904,
            "time": 33.05306925,
            "velocity": 0.7874015748031497
          },
          {
            "duration": 0.1327432499999972,
            "durationTicks": 96,
            "midi": 40,
            "name": "E2",
            "ticks": 24000,
            "time": 33.185812500000004,
            "velocity": 0.7874015748031497
          },
          {
            "duration": 0.1327432499999972,
            "durationTicks": 96,
            "midi": 33,
            "name": "A1",
            "ticks": 24096,
            "time": 33.31855575,
            "velocity": 0.7874015748031497
          },
          {
            "duration": 0.1327432500000043,
            "durationTicks": 96,
            "midi": 42,
            "name": "F#2",
            "ticks": 24192,
            "time": 33.451299,
            "velocity": 0.7874015748031497
          },
          {
            "duration": 0.1327432499999972,
            "durationTicks": 96,
            "midi": 33,
            "name": "A1",
            "ticks": 24288,
            "time": 33.58404225,
            "velocity": 0.7874015748031497
          },
          {
            "duration": 0.1327432500000043,
            "durationTicks": 96,
            "midi": 66,
            "name": "F#4",
            "ticks": 24384,
            "time": 33.7167855,
            "velocity": 0.7874015748031497
          },
          {
            "duration": 0.1327432500000043,
            "durationTicks": 96,
            "midi": 40,
            "name": "E2",
            "ticks": 24384,
            "time": 33.7167855,
            "velocity": 0.7874015748031497
          },
          {
            "duration": 0.1327432500000043,
            "durationTicks": 96,
            "midi": 69,
            "name": "A4",
            "ticks": 24384,
            "time": 33.7167855,
            "velocity": 0.7874015748031497
          },
          {
            "duration": 0.1327432499999972,
            "durationTicks": 96,
            "midi": 68,
            "name": "G#4",
            "ticks": 24480,
            "time": 33.849528750000005,
            "velocity": 0.7874015748031497
          },
          {
            "duration": 0.1327432499999972,
            "durationTicks": 96,
            "midi": 64,
            "name": "E4",
            "ticks": 24480,
            "time": 33.849528750000005,
            "velocity": 0.7874015748031497
          },
          {
            "duration": 0.1327432499999972,
            "durationTicks": 96,
            "midi": 33,
            "name": "A1",
            "ticks": 24480,
            "time": 33.849528750000005,
            "velocity": 0.7874015748031497
          },
          {
            "duration": 0.530973000000003,
            "durationTicks": 384,
            "midi": 66,
            "name": "F#4",
            "ticks": 24576,
            "time": 33.982272,
            "velocity": 0.7874015748031497
          },
          {
            "duration": 0.1327432499999972,
            "durationTicks": 96,
            "midi": 35,
            "name": "B1",
            "ticks": 24576,
            "time": 33.982272,
            "velocity": 0.7874015748031497
          },
          {
            "duration": 0.530973000000003,
            "durationTicks": 384,
            "midi": 63,
            "name": "D#4",
            "ticks": 24576,
            "time": 33.982272,
            "velocity": 0.7874015748031497
          },
          {
            "duration": 0.1327432500000043,
            "durationTicks": 96,
            "midi": 35,
            "name": "B1",
            "ticks": 24672,
            "time": 34.11501525,
            "velocity": 0.7874015748031497
          },
          {
            "duration": 0.1327432499999972,
            "durationTicks": 96,
            "midi": 39,
            "name": "D#2",
            "ticks": 24768,
            "time": 34.2477585,
            "velocity": 0.7874015748031497
          },
          {
            "duration": 0.1327432500000043,
            "durationTicks": 96,
            "midi": 35,
            "name": "B1",
            "ticks": 24864,
            "time": 34.38050175,
            "velocity": 0.7874015748031497
          },
          {
            "duration": 0.1327432499999972,
            "durationTicks": 96,
            "midi": 42,
            "name": "F#2",
            "ticks": 24960,
            "time": 34.513245000000005,
            "velocity": 0.7874015748031497
          },
          {
            "duration": 0.1327432499999972,
            "durationTicks": 96,
            "midi": 35,
            "name": "B1",
            "ticks": 25056,
            "time": 34.64598825,
            "velocity": 0.7874015748031497
          },
          {
            "duration": 0.1327432500000043,
            "durationTicks": 96,
            "midi": 39,
            "name": "D#2",
            "ticks": 25152,
            "time": 34.7787315,
            "velocity": 0.7874015748031497
          },
          {
            "duration": 0.1327432499999972,
            "durationTicks": 96,
            "midi": 42,
            "name": "F#2",
            "ticks": 25248,
            "time": 34.911474750000004,
            "velocity": 0.7874015748031497
          },
          {
            "duration": 0.1327432500000043,
            "durationTicks": 96,
            "midi": 37,
            "name": "C#2",
            "ticks": 25344,
            "time": 35.044218,
            "velocity": 0.7874015748031497
          },
          {
            "duration": 0.1327432500000043,
            "durationTicks": 96,
            "midi": 56,
            "name": "G#3",
            "ticks": 25344,
            "time": 35.044218,
            "velocity": 0.7874015748031497
          },
          {
            "duration": 0.1327432500000043,
            "durationTicks": 96,
            "midi": 64,
            "name": "E4",
            "ticks": 25344,
            "time": 35.044218,
            "velocity": 0.7874015748031497
          },
          {
            "duration": 0.1327432499999972,
            "durationTicks": 96,
            "midi": 64,
            "name": "E4",
            "ticks": 25536,
            "time": 35.3097045,
            "velocity": 0.5905511811023622
          },
          {
            "duration": 0.1327432499999972,
            "durationTicks": 96,
            "midi": 56,
            "name": "G#3",
            "ticks": 25536,
            "time": 35.3097045,
            "velocity": 0.5905511811023622
          },
          {
            "duration": 0.1327432499999972,
            "durationTicks": 96,
            "midi": 39,
            "name": "D#2",
            "ticks": 25728,
            "time": 35.575191000000004,
            "velocity": 0.7874015748031497
          },
          {
            "duration": 0.1327432499999972,
            "durationTicks": 96,
            "midi": 59,
            "name": "B3",
            "ticks": 25728,
            "time": 35.575191000000004,
            "velocity": 0.7874015748031497
          },
          {
            "duration": 0.1327432499999972,
            "durationTicks": 96,
            "midi": 68,
            "name": "G#4",
            "ticks": 25728,
            "time": 35.575191000000004,
            "velocity": 0.7874015748031497
          },
          {
            "duration": 0.1327432499999972,
            "durationTicks": 96,
            "midi": 59,
            "name": "B3",
            "ticks": 25920,
            "time": 35.840677500000005,
            "velocity": 0.5905511811023622
          },
          {
            "duration": 0.1327432499999972,
            "durationTicks": 96,
            "midi": 68,
            "name": "G#4",
            "ticks": 25920,
            "time": 35.840677500000005,
            "velocity": 0.5905511811023622
          },
          {
            "duration": 0.6637162500000002,
            "durationTicks": 480,
            "midi": 61,
            "name": "C#4",
            "ticks": 26112,
            "time": 36.106164,
            "velocity": 0.7874015748031497
          },
          {
            "duration": 0.6637162500000002,
            "durationTicks": 480,
            "midi": 66,
            "name": "F#4",
            "ticks": 26112,
            "time": 36.106164,
            "velocity": 0.7874015748031497
          },
          {
            "duration": 0.1327432500000043,
            "durationTicks": 96,
            "midi": 33,
            "name": "A1",
            "ticks": 26112,
            "time": 36.106164,
            "velocity": 0.7874015748031497
          },
          {
            "duration": 0.1327432499999972,
            "durationTicks": 96,
            "midi": 33,
            "name": "A1",
            "ticks": 26208,
            "time": 36.238907250000004,
            "velocity": 0.7874015748031497
          },
          {
            "duration": 0.1327432499999972,
            "durationTicks": 96,
            "midi": 37,
            "name": "C#2",
            "ticks": 26304,
            "time": 36.3716505,
            "velocity": 0.7874015748031497
          },
          {
            "duration": 0.1327432500000043,
            "durationTicks": 96,
            "midi": 33,
            "name": "A1",
            "ticks": 26400,
            "time": 36.50439375,
            "velocity": 0.7874015748031497
          },
          {
            "duration": 0.1327432499999972,
            "durationTicks": 96,
            "midi": 33,
            "name": "A1",
            "ticks": 26496,
            "time": 36.637137,
            "velocity": 0.7874015748031497
          },
          {
            "duration": 0.1327432500000043,
            "durationTicks": 96,
            "midi": 66,
            "name": "F#4",
            "ticks": 26592,
            "time": 36.76988025,
            "velocity": 0.7874015748031497
          },
          {
            "duration": 0.1327432500000043,
            "durationTicks": 96,
            "midi": 39,
            "name": "D#2",
            "ticks": 26592,
            "time": 36.76988025,
            "velocity": 0.7874015748031497
          },
          {
            "duration": 0.1327432499999972,
            "durationTicks": 96,
            "midi": 68,
            "name": "G#4",
            "ticks": 26688,
            "time": 36.902623500000004,
            "velocity": 0.7874015748031497
          },
          {
            "duration": 0.1327432499999972,
            "durationTicks": 96,
            "midi": 33,
            "name": "A1",
            "ticks": 26688,
            "time": 36.902623500000004,
            "velocity": 0.7874015748031497
          },
          {
            "duration": 0.1327432499999972,
            "durationTicks": 96,
            "midi": 40,
            "name": "E2",
            "ticks": 26784,
            "time": 37.03536675,
            "velocity": 0.7874015748031497
          },
          {
            "duration": 0.2654865000000015,
            "durationTicks": 192,
            "midi": 61,
            "name": "C#4",
            "ticks": 26880,
            "time": 37.16811,
            "velocity": 0.7874015748031497
          },
          {
            "duration": 0.1327432500000043,
            "durationTicks": 96,
            "midi": 33,
            "name": "A1",
            "ticks": 26880,
            "time": 37.16811,
            "velocity": 0.7874015748031497
          },
          {
            "duration": 0.1327432499999972,
            "durationTicks": 96,
            "midi": 33,
            "name": "A1",
            "ticks": 26976,
            "time": 37.30085325,
            "velocity": 0.7874015748031497
          },
          {
            "duration": 0.1327432500000043,
            "durationTicks": 96,
            "midi": 42,
            "name": "F#2",
            "ticks": 27072,
            "time": 37.4335965,
            "velocity": 0.7874015748031497
          },
          {
            "duration": 0.2654864999999944,
            "durationTicks": 192,
            "midi": 63,
            "name": "D#4",
            "ticks": 27168,
            "time": 37.566339750000004,
            "velocity": 0.7874015748031497
          },
          {
            "duration": 0.1327432499999972,
            "durationTicks": 96,
            "midi": 33,
            "name": "A1",
            "ticks": 27168,
            "time": 37.566339750000004,
            "velocity": 0.7874015748031497
          },
          {
            "duration": 0.1327432499999972,
            "durationTicks": 96,
            "midi": 33,
            "name": "A1",
            "ticks": 27264,
            "time": 37.699083,
            "velocity": 0.7874015748031497
          },
          {
            "duration": 0.1327432500000043,
            "durationTicks": 96,
            "midi": 40,
            "name": "E2",
            "ticks": 27360,
            "time": 37.83182625,
            "velocity": 0.7874015748031497
          },
          {
            "duration": 0.1327432499999972,
            "durationTicks": 96,
            "midi": 64,
            "name": "E4",
            "ticks": 27456,
            "time": 37.9645695,
            "velocity": 0.7874015748031497
          },
          {
            "duration": 0.1327432499999972,
            "durationTicks": 96,
            "midi": 33,
            "name": "A1",
            "ticks": 27456,
            "time": 37.9645695,
            "velocity": 0.7874015748031497
          },
          {
            "duration": 0.1327432500000043,
            "durationTicks": 96,
            "midi": 33,
            "name": "A1",
            "ticks": 27552,
            "time": 38.09731275,
            "velocity": 0.7874015748031497
          },
          {
            "duration": 0.9292027499999946,
            "durationTicks": 672,
            "midi": 68,
            "name": "G#4",
            "ticks": 27648,
            "time": 38.230056000000005,
            "velocity": 0.7874015748031497
          },
          {
            "duration": 0.1327432499999972,
            "durationTicks": 96,
            "midi": 33,
            "name": "A1",
            "ticks": 27648,
            "time": 38.230056000000005,
            "velocity": 0.7874015748031497
          },
          {
            "duration": 0.1327432499999972,
            "durationTicks": 96,
            "midi": 33,
            "name": "A1",
            "ticks": 27744,
            "time": 38.36279925,
            "velocity": 0.7874015748031497
          },
          {
            "duration": 0.1327432500000043,
            "durationTicks": 96,
            "midi": 39,
            "name": "D#2",
            "ticks": 27840,
            "time": 38.4955425,
            "velocity": 0.7874015748031497
          },
          {
            "duration": 0.1327432499999972,
            "durationTicks": 96,
            "midi": 33,
            "name": "A1",
            "ticks": 27936,
            "time": 38.62828575,
            "velocity": 0.7874015748031497
          },
          {
            "duration": 0.1327432500000043,
            "durationTicks": 96,
            "midi": 33,
            "name": "A1",
            "ticks": 28032,
            "time": 38.761029,
            "velocity": 0.7874015748031497
          },
          {
            "duration": 0.1327432499999972,
            "durationTicks": 96,
            "midi": 40,
            "name": "E2",
            "ticks": 28128,
            "time": 38.893772250000005,
            "velocity": 0.7874015748031497
          },
          {
            "duration": 0.1327432499999972,
            "durationTicks": 96,
            "midi": 33,
            "name": "A1",
            "ticks": 28224,
            "time": 39.0265155,
            "velocity": 0.7874015748031497
          },
          {
            "duration": 0.1327432500000043,
            "durationTicks": 96,
            "midi": 40,
            "name": "E2",
            "ticks": 28320,
            "time": 39.15925875,
            "velocity": 0.7874015748031497
          },
          {
            "duration": 0.1327432499999972,
            "durationTicks": 96,
            "midi": 33,
            "name": "A1",
            "ticks": 28416,
            "time": 39.292002000000004,
            "velocity": 0.7874015748031497
          },
          {
            "duration": 0.1327432499999972,
            "durationTicks": 96,
            "midi": 64,
            "name": "E4",
            "ticks": 28416,
            "time": 39.292002000000004,
            "velocity": 0.7874015748031497
          },
          {
            "duration": 0.1327432499999972,
            "durationTicks": 96,
            "midi": 56,
            "name": "G#3",
            "ticks": 28416,
            "time": 39.292002000000004,
            "velocity": 0.7874015748031497
          },
          {
            "duration": 0.1327432500000043,
            "durationTicks": 96,
            "midi": 37,
            "name": "C#2",
            "ticks": 28512,
            "time": 39.42474525,
            "velocity": 0.7874015748031497
          },
          {
            "duration": 0.1327432499999972,
            "durationTicks": 96,
            "midi": 56,
            "name": "G#3",
            "ticks": 28608,
            "time": 39.557488500000005,
            "velocity": 0.5905511811023622
          },
          {
            "duration": 0.1327432499999972,
            "durationTicks": 96,
            "midi": 40,
            "name": "E2",
            "ticks": 28608,
            "time": 39.557488500000005,
            "velocity": 0.7874015748031497
          },
          {
            "duration": 0.1327432499999972,
            "durationTicks": 96,
            "midi": 64,
            "name": "E4",
            "ticks": 28608,
            "time": 39.557488500000005,
            "velocity": 0.5905511811023622
          },
          {
            "duration": 0.1327432499999972,
            "durationTicks": 96,
            "midi": 33,
            "name": "A1",
            "ticks": 28704,
            "time": 39.69023175,
            "velocity": 0.7874015748031497
          },
          {
            "duration": 0.1327432500000043,
            "durationTicks": 96,
            "midi": 59,
            "name": "B3",
            "ticks": 28800,
            "time": 39.822975,
            "velocity": 0.7874015748031497
          },
          {
            "duration": 0.1327432500000043,
            "durationTicks": 96,
            "midi": 68,
            "name": "G#4",
            "ticks": 28800,
            "time": 39.822975,
            "velocity": 0.7874015748031497
          },
          {
            "duration": 0.1327432500000043,
            "durationTicks": 96,
            "midi": 35,
            "name": "B1",
            "ticks": 28800,
            "time": 39.822975,
            "velocity": 0.7874015748031497
          },
          {
            "duration": 0.1327432499999972,
            "durationTicks": 96,
            "midi": 39,
            "name": "D#2",
            "ticks": 28896,
            "time": 39.955718250000004,
            "velocity": 0.7874015748031497
          },
          {
            "duration": 0.1327432500000043,
            "durationTicks": 96,
            "midi": 42,
            "name": "F#2",
            "ticks": 28992,
            "time": 40.0884615,
            "velocity": 0.7874015748031497
          },
          {
            "duration": 0.1327432500000043,
            "durationTicks": 96,
            "midi": 59,
            "name": "B3",
            "ticks": 28992,
            "time": 40.0884615,
            "velocity": 0.5905511811023622
          },
          {
            "duration": 0.1327432500000043,
            "durationTicks": 96,
            "midi": 68,
            "name": "G#4",
            "ticks": 28992,
            "time": 40.0884615,
            "velocity": 0.5905511811023622
          },
          {
            "duration": 0.1327432499999972,
            "durationTicks": 96,
            "midi": 35,
            "name": "B1",
            "ticks": 29088,
            "time": 40.221204750000005,
            "velocity": 0.7874015748031497
          },
          {
            "duration": 0.6637162500000002,
            "durationTicks": 480,
            "midi": 61,
            "name": "C#4",
            "ticks": 29184,
            "time": 40.353948,
            "velocity": 0.7874015748031497
          },
          {
            "duration": 0.6637162500000002,
            "durationTicks": 480,
            "midi": 66,
            "name": "F#4",
            "ticks": 29184,
            "time": 40.353948,
            "velocity": 0.7874015748031497
          },
          {
            "duration": 0.1327432499999972,
            "durationTicks": 96,
            "midi": 37,
            "name": "C#2",
            "ticks": 29184,
            "time": 40.353948,
            "velocity": 0.7874015748031497
          },
          {
            "duration": 0.1327432500000043,
            "durationTicks": 96,
            "midi": 37,
            "name": "C#2",
            "ticks": 29280,
            "time": 40.48669125,
            "velocity": 0.7874015748031497
          },
          {
            "duration": 0.1327432499999972,
            "durationTicks": 96,
            "midi": 44,
            "name": "G#2",
            "ticks": 29376,
            "time": 40.619434500000004,
            "velocity": 0.7874015748031497
          },
          {
            "duration": 0.1327432500000043,
            "durationTicks": 96,
            "midi": 37,
            "name": "C#2",
            "ticks": 29472,
            "time": 40.75217775,
            "velocity": 0.7874015748031497
          },
          {
            "duration": 0.1327432499999972,
            "durationTicks": 96,
            "midi": 37,
            "name": "C#2",
            "ticks": 29568,
            "time": 40.884921000000006,
            "velocity": 0.7874015748031497
          },
          {
            "duration": 0.1327432499999972,
            "durationTicks": 96,
            "midi": 42,
            "name": "F#2",
            "ticks": 29664,
            "time": 41.01766425,
            "velocity": 0.7874015748031497
          },
          {
            "duration": 0.1327432499999972,
            "durationTicks": 96,
            "midi": 66,
            "name": "F#4",
            "ticks": 29664,
            "time": 41.01766425,
            "velocity": 0.7874015748031497
          },
          {
            "duration": 0.1327432500000043,
            "durationTicks": 96,
            "midi": 40,
            "name": "E2",
            "ticks": 29760,
            "time": 41.1504075,
            "velocity": 0.7874015748031497
          },
          {
            "duration": 0.1327432500000043,
            "durationTicks": 96,
            "midi": 68,
            "name": "G#4",
            "ticks": 29760,
            "time": 41.1504075,
            "velocity": 0.7874015748031497
          },
          {
            "duration": 0.1327432499999972,
            "durationTicks": 96,
            "midi": 35,
            "name": "B1",
            "ticks": 29856,
            "time": 41.283150750000004,
            "velocity": 0.7874015748031497
          },
          {
            "duration": 0.1327432499999972,
            "durationTicks": 96,
            "midi": 37,
            "name": "C#2",
            "ticks": 29952,
            "time": 41.415894,
            "velocity": 0.7874015748031497
          },
          {
            "duration": 0.2654865000000015,
            "durationTicks": 192,
            "midi": 61,
            "name": "C#4",
            "ticks": 29952,
            "time": 41.415894,
            "velocity": 0.7874015748031497
          },
          {
            "duration": 0.1327432500000043,
            "durationTicks": 96,
            "midi": 37,
            "name": "C#2",
            "ticks": 30048,
            "time": 41.54863725,
            "velocity": 0.7874015748031497
          },
          {
            "duration": 0.1327432499999972,
            "durationTicks": 96,
            "midi": 44,
            "name": "G#2",
            "ticks": 30144,
            "time": 41.6813805,
            "velocity": 0.7874015748031497
          },
          {
            "duration": 0.2654865000000015,
            "durationTicks": 192,
            "midi": 63,
            "name": "D#4",
            "ticks": 30240,
            "time": 41.81412375,
            "velocity": 0.7874015748031497
          },
          {
            "duration": 0.1327432500000043,
            "durationTicks": 96,
            "midi": 37,
            "name": "C#2",
            "ticks": 30240,
            "time": 41.81412375,
            "velocity": 0.7874015748031497
          },
          {
            "duration": 0.1327432499999972,
            "durationTicks": 96,
            "midi": 37,
            "name": "C#2",
            "ticks": 30336,
            "time": 41.946867000000005,
            "velocity": 0.7874015748031497
          },
          {
            "duration": 0.1327432499999972,
            "durationTicks": 96,
            "midi": 42,
            "name": "F#2",
            "ticks": 30432,
            "time": 42.07961025,
            "velocity": 0.7874015748031497
          },
          {
            "duration": 0.1327432500000043,
            "durationTicks": 96,
            "midi": 40,
            "name": "E2",
            "ticks": 30528,
            "time": 42.2123535,
            "velocity": 0.7874015748031497
          },
          {
            "duration": 0.1327432500000043,
            "durationTicks": 96,
            "midi": 71,
            "name": "B4",
            "ticks": 30528,
            "time": 42.2123535,
            "velocity": 0.7874015748031497
          },
          {
            "duration": 0.1327432499999972,
            "durationTicks": 96,
            "midi": 35,
            "name": "B1",
            "ticks": 30624,
            "time": 42.34509675,
            "velocity": 0.7874015748031497
          },
          {
            "duration": 0.1327432500000043,
            "durationTicks": 96,
            "midi": 37,
            "name": "C#2",
            "ticks": 30720,
            "time": 42.47784,
            "velocity": 0.7874015748031497
          },
          {
            "duration": 0.9292027500000017,
            "durationTicks": 672,
            "midi": 68,
            "name": "G#4",
            "ticks": 30720,
            "time": 42.47784,
            "velocity": 0.7874015748031497
          },
          {
            "duration": 0.1327432499999972,
            "durationTicks": 96,
            "midi": 37,
            "name": "C#2",
            "ticks": 30816,
            "time": 42.610583250000005,
            "velocity": 0.7874015748031497
          },
          {
            "duration": 0.1327432499999972,
            "durationTicks": 96,
            "midi": 44,
            "name": "G#2",
            "ticks": 30912,
            "time": 42.7433265,
            "velocity": 0.7874015748031497
          },
          {
            "duration": 0.1327432500000043,
            "durationTicks": 96,
            "midi": 37,
            "name": "C#2",
            "ticks": 31008,
            "time": 42.87606975,
            "velocity": 0.7874015748031497
          },
          {
            "duration": 0.1327432499999972,
            "durationTicks": 96,
            "midi": 37,
            "name": "C#2",
            "ticks": 31104,
            "time": 43.008813,
            "velocity": 0.7874015748031497
          },
          {
            "duration": 0.1327432500000043,
            "durationTicks": 96,
            "midi": 42,
            "name": "F#2",
            "ticks": 31200,
            "time": 43.14155625,
            "velocity": 0.7874015748031497
          },
          {
            "duration": 0.1327432499999972,
            "durationTicks": 96,
            "midi": 40,
            "name": "E2",
            "ticks": 31296,
            "time": 43.274299500000005,
            "velocity": 0.7874015748031497
          },
          {
            "duration": 0.1327432499999972,
            "durationTicks": 96,
            "midi": 35,
            "name": "B1",
            "ticks": 31392,
            "time": 43.40704275,
            "velocity": 0.7874015748031497
          },
          {
            "duration": 0.1327432500000043,
            "durationTicks": 96,
            "midi": 68,
            "name": "G#4",
            "ticks": 31488,
            "time": 43.539786,
            "velocity": 0.7874015748031497
          },
          {
            "duration": 0.1327432500000043,
            "durationTicks": 96,
            "midi": 37,
            "name": "C#2",
            "ticks": 31488,
            "time": 43.539786,
            "velocity": 0.7874015748031497
          },
          {
            "duration": 0.1327432500000043,
            "durationTicks": 96,
            "midi": 61,
            "name": "C#4",
            "ticks": 31488,
            "time": 43.539786,
            "velocity": 0.7874015748031497
          },
          {
            "duration": 0.1327432500000043,
            "durationTicks": 96,
            "midi": 68,
            "name": "G#4",
            "ticks": 31680,
            "time": 43.8052725,
            "velocity": 0.5905511811023622
          },
          {
            "duration": 0.1327432500000043,
            "durationTicks": 96,
            "midi": 61,
            "name": "C#4",
            "ticks": 31680,
            "time": 43.8052725,
            "velocity": 0.5905511811023622
          },
          {
            "duration": 0.1327432499999972,
            "durationTicks": 96,
            "midi": 63,
            "name": "D#4",
            "ticks": 31872,
            "time": 44.070759,
            "velocity": 0.7874015748031497
          },
          {
            "duration": 0.1327432499999972,
            "durationTicks": 96,
            "midi": 35,
            "name": "B1",
            "ticks": 31872,
            "time": 44.070759,
            "velocity": 0.7874015748031497
          },
          {
            "duration": 0.1327432499999972,
            "durationTicks": 96,
            "midi": 69,
            "name": "A4",
            "ticks": 31872,
            "time": 44.070759,
            "velocity": 0.7874015748031497
          },
          {
            "duration": 0.1327432499999972,
            "durationTicks": 96,
            "midi": 63,
            "name": "D#4",
            "ticks": 32064,
            "time": 44.336245500000004,
            "velocity": 0.5905511811023622
          },
          {
            "duration": 0.1327432499999972,
            "durationTicks": 96,
            "midi": 69,
            "name": "A4",
            "ticks": 32064,
            "time": 44.336245500000004,
            "velocity": 0.5905511811023622
          },
          {
            "duration": 0.7964594999999974,
            "durationTicks": 576,
            "midi": 71,
            "name": "B4",
            "ticks": 32256,
            "time": 44.601732000000005,
            "velocity": 0.7874015748031497
          },
          {
            "duration": 0.1327432499999972,
            "durationTicks": 96,
            "midi": 30,
            "name": "F#1",
            "ticks": 32256,
            "time": 44.601732000000005,
            "velocity": 0.7874015748031497
          },
          {
            "duration": 0.7964594999999974,
            "durationTicks": 576,
            "midi": 64,
            "name": "E4",
            "ticks": 32256,
            "time": 44.601732000000005,
            "velocity": 0.7874015748031497
          },
          {
            "duration": 0.1327432499999972,
            "durationTicks": 96,
            "midi": 30,
            "name": "F#1",
            "ticks": 32352,
            "time": 44.73447525,
            "velocity": 0.7874015748031497
          },
          {
            "duration": 0.1327432500000043,
            "durationTicks": 96,
            "midi": 37,
            "name": "C#2",
            "ticks": 32448,
            "time": 44.8672185,
            "velocity": 0.7874015748031497
          },
          {
            "duration": 0.1327432499999972,
            "durationTicks": 96,
            "midi": 30,
            "name": "F#1",
            "ticks": 32544,
            "time": 44.999961750000004,
            "velocity": 0.7874015748031497
          },
          {
            "duration": 0.1327432500000043,
            "durationTicks": 96,
            "midi": 30,
            "name": "F#1",
            "ticks": 32640,
            "time": 45.132705,
            "velocity": 0.7874015748031497
          },
          {
            "duration": 0.1327432499999972,
            "durationTicks": 96,
            "midi": 30,
            "name": "F#1",
            "ticks": 32736,
            "time": 45.265448250000006,
            "velocity": 0.7874015748031497
          },
          {
            "duration": 0.1327432499999972,
            "durationTicks": 96,
            "midi": 66,
            "name": "F#4",
            "ticks": 32832,
            "time": 45.3981915,
            "velocity": 0.7874015748031497
          },
          {
            "duration": 0.1327432499999972,
            "durationTicks": 96,
            "midi": 42,
            "name": "F#2",
            "ticks": 32832,
            "time": 45.3981915,
            "velocity": 0.7874015748031497
          },
          {
            "duration": 0.1327432499999972,
            "durationTicks": 96,
            "midi": 73,
            "name": "C#5",
            "ticks": 32832,
            "time": 45.3981915,
            "velocity": 0.7874015748031497
          },
          {
            "duration": 0.1327432500000043,
            "durationTicks": 96,
            "midi": 44,
            "name": "G#2",
            "ticks": 32928,
            "time": 45.53093475,
            "velocity": 0.7874015748031497
          },
          {
            "duration": 0.2654865000000015,
            "durationTicks": 192,
            "midi": 56,
            "name": "G#3",
            "ticks": 33024,
            "time": 45.663678000000004,
            "velocity": 0.7874015748031497
          },
          {
            "duration": 0.1327432499999972,
            "durationTicks": 96,
            "midi": 30,
            "name": "F#1",
            "ticks": 33024,
            "time": 45.663678000000004,
            "velocity": 0.7874015748031497
          },
          {
            "duration": 0.2654865000000015,
            "durationTicks": 192,
            "midi": 64,
            "name": "E4",
            "ticks": 33024,
            "time": 45.663678000000004,
            "velocity": 0.7874015748031497
          },
          {
            "duration": 0.1327432500000043,
            "durationTicks": 96,
            "midi": 30,
            "name": "F#1",
            "ticks": 33120,
            "time": 45.79642125,
            "velocity": 0.7874015748031497
          },
          {
            "duration": 0.1327432499999972,
            "durationTicks": 96,
            "midi": 37,
            "name": "C#2",
            "ticks": 33216,
            "time": 45.929164500000006,
            "velocity": 0.7874015748031497
          },
          {
            "duration": 0.2654865000000015,
            "durationTicks": 192,
            "midi": 59,
            "name": "B3",
            "ticks": 33312,
            "time": 46.06190775,
            "velocity": 0.7874015748031497
          },
          {
            "duration": 0.1327432499999972,
            "durationTicks": 96,
            "midi": 30,
            "name": "F#1",
            "ticks": 33312,
            "time": 46.06190775,
            "velocity": 0.7874015748031497
          },
          {
            "duration": 0.2654865000000015,
            "durationTicks": 192,
            "midi": 66,
            "name": "F#4",
            "ticks": 33312,
            "time": 46.06190775,
            "velocity": 0.7874015748031497
          },
          {
            "duration": 0.1327432500000043,
            "durationTicks": 96,
            "midi": 30,
            "name": "F#1",
            "ticks": 33408,
            "time": 46.194651,
            "velocity": 0.7874015748031497
          },
          {
            "duration": 0.1327432499999972,
            "durationTicks": 96,
            "midi": 30,
            "name": "F#1",
            "ticks": 33504,
            "time": 46.327394250000005,
            "velocity": 0.7874015748031497
          },
          {
            "duration": 0.1327432499999972,
            "durationTicks": 96,
            "midi": 42,
            "name": "F#2",
            "ticks": 33600,
            "time": 46.4601375,
            "velocity": 0.7874015748031497
          },
          {
            "duration": 0.1327432499999972,
            "durationTicks": 96,
            "midi": 68,
            "name": "G#4",
            "ticks": 33600,
            "time": 46.4601375,
            "velocity": 0.7874015748031497
          },
          {
            "duration": 0.1327432499999972,
            "durationTicks": 96,
            "midi": 61,
            "name": "C#4",
            "ticks": 33600,
            "time": 46.4601375,
            "velocity": 0.7874015748031497
          },
          {
            "duration": 0.1327432500000043,
            "durationTicks": 96,
            "midi": 44,
            "name": "G#2",
            "ticks": 33696,
            "time": 46.59288075,
            "velocity": 0.7874015748031497
          },
          {
            "duration": 0.7964594999999974,
            "durationTicks": 576,
            "midi": 71,
            "name": "B4",
            "ticks": 33792,
            "time": 46.725624,
            "velocity": 0.7874015748031497
          },
          {
            "duration": 0.1327432499999972,
            "durationTicks": 96,
            "midi": 32,
            "name": "G#1",
            "ticks": 33792,
            "time": 46.725624,
            "velocity": 0.7874015748031497
          },
          {
            "duration": 0.7964594999999974,
            "durationTicks": 576,
            "midi": 63,
            "name": "D#4",
            "ticks": 33792,
            "time": 46.725624,
            "velocity": 0.7874015748031497
          },
          {
            "duration": 0.1327432500000043,
            "durationTicks": 96,
            "midi": 32,
            "name": "G#1",
            "ticks": 33888,
            "time": 46.85836725,
            "velocity": 0.7874015748031497
          },
          {
            "duration": 0.1327432499999972,
            "durationTicks": 96,
            "midi": 39,
            "name": "D#2",
            "ticks": 33984,
            "time": 46.991110500000005,
            "velocity": 0.7874015748031497
          },
          {
            "duration": 0.1327432499999972,
            "durationTicks": 96,
            "midi": 32,
            "name": "G#1",
            "ticks": 34080,
            "time": 47.12385375,
            "velocity": 0.7874015748031497
          },
          {
            "duration": 0.1327432500000043,
            "durationTicks": 96,
            "midi": 42,
            "name": "F#2",
            "ticks": 34176,
            "time": 47.256597,
            "velocity": 0.7874015748031497
          },
          {
            "duration": 0.1327432499999972,
            "durationTicks": 96,
            "midi": 32,
            "name": "G#1",
            "ticks": 34272,
            "time": 47.389340250000004,
            "velocity": 0.7874015748031497
          },
          {
            "duration": 0.1327432500000043,
            "durationTicks": 96,
            "midi": 73,
            "name": "C#5",
            "ticks": 34368,
            "time": 47.5220835,
            "velocity": 0.7874015748031497
          },
          {
            "duration": 0.1327432500000043,
            "durationTicks": 96,
            "midi": 44,
            "name": "G#2",
            "ticks": 34368,
            "time": 47.5220835,
            "velocity": 0.7874015748031497
          },
          {
            "duration": 0.1327432500000043,
            "durationTicks": 96,
            "midi": 64,
            "name": "E4",
            "ticks": 34368,
            "time": 47.5220835,
            "velocity": 0.7874015748031497
          },
          {
            "duration": 0.1327432499999972,
            "durationTicks": 96,
            "midi": 47,
            "name": "B2",
            "ticks": 34464,
            "time": 47.654826750000005,
            "velocity": 0.7874015748031497
          },
          {
            "duration": 0.1327432499999972,
            "durationTicks": 96,
            "midi": 32,
            "name": "G#1",
            "ticks": 34560,
            "time": 47.78757,
            "velocity": 0.7874015748031497
          },
          {
            "duration": 0.2654865000000015,
            "durationTicks": 192,
            "midi": 54,
            "name": "F#3",
            "ticks": 34560,
            "time": 47.78757,
            "velocity": 0.7874015748031497
          },
          {
            "duration": 0.2654865000000015,
            "durationTicks": 192,
            "midi": 63,
            "name": "D#4",
            "ticks": 34560,
            "time": 47.78757,
            "velocity": 0.7874015748031497
          },
          {
            "duration": 0.1327432500000043,
            "durationTicks": 96,
            "midi": 32,
            "name": "G#1",
            "ticks": 34656,
            "time": 47.92031325,
            "velocity": 0.7874015748031497
          },
          {
            "duration": 0.1327432499999972,
            "durationTicks": 96,
            "midi": 39,
            "name": "D#2",
            "ticks": 34752,
            "time": 48.053056500000004,
            "velocity": 0.7874015748031497
          },
          {
            "duration": 0.1327432500000043,
            "durationTicks": 96,
            "midi": 32,
            "name": "G#1",
            "ticks": 34848,
            "time": 48.18579975,
            "velocity": 0.7874015748031497
          },
          {
            "duration": 0.2654865000000015,
            "durationTicks": 192,
            "midi": 75,
            "name": "D#5",
            "ticks": 34848,
            "time": 48.18579975,
            "velocity": 0.7874015748031497
          },
          {
            "duration": 0.2654865000000015,
            "durationTicks": 192,
            "midi": 66,
            "name": "F#4",
            "ticks": 34848,
            "time": 48.18579975,
            "velocity": 0.7874015748031497
          },
          {
            "duration": 0.1327432499999972,
            "durationTicks": 96,
            "midi": 42,
            "name": "F#2",
            "ticks": 34944,
            "time": 48.318543000000005,
            "velocity": 0.7874015748031497
          },
          {
            "duration": 0.1327432499999972,
            "durationTicks": 96,
            "midi": 32,
            "name": "G#1",
            "ticks": 35040,
            "time": 48.45128625,
            "velocity": 0.7874015748031497
          },
          {
            "duration": 0.2654865000000015,
            "durationTicks": 192,
            "midi": 63,
            "name": "D#4",
            "ticks": 35136,
            "time": 48.5840295,
            "velocity": 0.7874015748031497
          },
          {
            "duration": 0.2654865000000015,
            "durationTicks": 192,
            "midi": 71,
            "name": "B4",
            "ticks": 35136,
            "time": 48.5840295,
            "velocity": 0.7874015748031497
          },
          {
            "duration": 0.1327432500000043,
            "durationTicks": 96,
            "midi": 44,
            "name": "G#2",
            "ticks": 35136,
            "time": 48.5840295,
            "velocity": 0.7874015748031497
          },
          {
            "duration": 0.1327432499999972,
            "durationTicks": 96,
            "midi": 47,
            "name": "B2",
            "ticks": 35232,
            "time": 48.716772750000004,
            "velocity": 0.7874015748031497
          },
          {
            "duration": 0.1327432500000043,
            "durationTicks": 96,
            "midi": 33,
            "name": "A1",
            "ticks": 35328,
            "time": 48.849516,
            "velocity": 0.7874015748031497
          },
          {
            "duration": 1.8584055000000035,
            "durationTicks": 1344,
            "midi": 68,
            "name": "G#4",
            "ticks": 35328,
            "time": 48.849516,
            "velocity": 0.7874015748031497
          },
          {
            "duration": 1.8584055000000035,
            "durationTicks": 1344,
            "midi": 64,
            "name": "E4",
            "ticks": 35328,
            "time": 48.849516,
            "velocity": 0.7874015748031497
          },
          {
            "duration": 0.1327432499999972,
            "durationTicks": 96,
            "midi": 33,
            "name": "A1",
            "ticks": 35424,
            "time": 48.982259250000006,
            "velocity": 0.7874015748031497
          },
          {
            "duration": 0.1327432499999972,
            "durationTicks": 96,
            "midi": 40,
            "name": "E2",
            "ticks": 35520,
            "time": 49.1150025,
            "velocity": 0.7874015748031497
          },
          {
            "duration": 0.1327432500000043,
            "durationTicks": 96,
            "midi": 33,
            "name": "A1",
            "ticks": 35616,
            "time": 49.24774575,
            "velocity": 0.7874015748031497
          },
          {
            "duration": 0.1327432499999972,
            "durationTicks": 96,
            "midi": 42,
            "name": "F#2",
            "ticks": 35712,
            "time": 49.380489000000004,
            "velocity": 0.7874015748031497
          },
          {
            "duration": 0.1327432500000043,
            "durationTicks": 96,
            "midi": 33,
            "name": "A1",
            "ticks": 35808,
            "time": 49.51323225,
            "velocity": 0.7874015748031497
          },
          {
            "duration": 0.1327432499999972,
            "durationTicks": 96,
            "midi": 40,
            "name": "E2",
            "ticks": 35904,
            "time": 49.645975500000006,
            "velocity": 0.7874015748031497
          },
          {
            "duration": 0.1327432499999972,
            "durationTicks": 96,
            "midi": 33,
            "name": "A1",
            "ticks": 36000,
            "time": 49.77871875,
            "velocity": 0.7874015748031497
          },
          {
            "duration": 0.1327432500000043,
            "durationTicks": 96,
            "midi": 44,
            "name": "G#2",
            "ticks": 36096,
            "time": 49.911462,
            "velocity": 0.7874015748031497
          },
          {
            "duration": 0.1327432499999972,
            "durationTicks": 96,
            "midi": 33,
            "name": "A1",
            "ticks": 36192,
            "time": 50.044205250000005,
            "velocity": 0.7874015748031497
          },
          {
            "duration": 0.1327432500000043,
            "durationTicks": 96,
            "midi": 40,
            "name": "E2",
            "ticks": 36288,
            "time": 50.1769485,
            "velocity": 0.7874015748031497
          },
          {
            "duration": 0.1327432499999972,
            "durationTicks": 96,
            "midi": 33,
            "name": "A1",
            "ticks": 36384,
            "time": 50.309691750000006,
            "velocity": 0.7874015748031497
          },
          {
            "duration": 0.1327432499999972,
            "durationTicks": 96,
            "midi": 42,
            "name": "F#2",
            "ticks": 36480,
            "time": 50.442435,
            "velocity": 0.7874015748031497
          },
          {
            "duration": 0.1327432500000043,
            "durationTicks": 96,
            "midi": 33,
            "name": "A1",
            "ticks": 36576,
            "time": 50.57517825,
            "velocity": 0.7874015748031497
          },
          {
            "duration": 0.1327432499999972,
            "durationTicks": 96,
            "midi": 40,
            "name": "E2",
            "ticks": 36672,
            "time": 50.707921500000005,
            "velocity": 0.7874015748031497
          },
          {
            "duration": 0.1327432499999972,
            "durationTicks": 96,
            "midi": 66,
            "name": "F#4",
            "ticks": 36672,
            "time": 50.707921500000005,
            "velocity": 0.7874015748031497
          },
          {
            "duration": 0.1327432499999972,
            "durationTicks": 96,
            "midi": 69,
            "name": "A4",
            "ticks": 36672,
            "time": 50.707921500000005,
            "velocity": 0.7874015748031497
          },
          {
            "duration": 0.1327432500000043,
            "durationTicks": 96,
            "midi": 33,
            "name": "A1",
            "ticks": 36768,
            "time": 50.84066475,
            "velocity": 0.7874015748031497
          },
          {
            "duration": 0.1327432500000043,
            "durationTicks": 96,
            "midi": 64,
            "name": "E4",
            "ticks": 36768,
            "time": 50.84066475,
            "velocity": 0.7874015748031497
          },
          {
            "duration": 0.1327432500000043,
            "durationTicks": 96,
            "midi": 68,
            "name": "G#4",
            "ticks": 36768,
            "time": 50.84066475,
            "velocity": 0.7874015748031497
          },
          {
            "duration": 0.5309729999999959,
            "durationTicks": 384,
            "midi": 66,
            "name": "F#4",
            "ticks": 36864,
            "time": 50.973408000000006,
            "velocity": 0.7874015748031497
          },
          {
            "duration": 0.5309729999999959,
            "durationTicks": 384,
            "midi": 32,
            "name": "G#1",
            "ticks": 36864,
            "time": 50.973408000000006,
            "velocity": 0.7874015748031497
          },
          {
            "duration": 0.5309729999999959,
            "durationTicks": 384,
            "midi": 63,
            "name": "D#4",
            "ticks": 36864,
            "time": 50.973408000000006,
            "velocity": 0.7874015748031497
          },
          {
            "duration": 0.1327432499999972,
            "durationTicks": 96,
            "midi": 56,
            "name": "G#3",
            "ticks": 37632,
            "time": 52.035354000000005,
            "velocity": 0.7874015748031497
          },
          {
            "duration": 0.1327432499999972,
            "durationTicks": 96,
            "midi": 37,
            "name": "C#2",
            "ticks": 37632,
            "time": 52.035354000000005,
            "velocity": 0.7874015748031497
          },
          {
            "duration": 0.1327432500000043,
            "durationTicks": 96,
            "midi": 56,
            "name": "G#3",
            "ticks": 37824,
            "time": 52.3008405,
            "velocity": 0.5905511811023622
          },
          {
            "duration": 0.1327432500000043,
            "durationTicks": 96,
            "midi": 35,
            "name": "B1",
            "ticks": 38016,
            "time": 52.566327,
            "velocity": 0.7874015748031497
          },
          {
            "duration": 0.1327432500000043,
            "durationTicks": 96,
            "midi": 54,
            "name": "F#3",
            "ticks": 38016,
            "time": 52.566327,
            "velocity": 0.7874015748031497
          },
          {
            "duration": 0.1327432499999972,
            "durationTicks": 96,
            "midi": 54,
            "name": "F#3",
            "ticks": 38208,
            "time": 52.8318135,
            "velocity": 0.5905511811023622
          },
          {
            "duration": 0.1327432499999972,
            "durationTicks": 96,
            "midi": 33,
            "name": "A1",
            "ticks": 38400,
            "time": 53.097300000000004,
            "velocity": 0.7874015748031497
          },
          {
            "duration": 0.1327432499999972,
            "durationTicks": 96,
            "midi": 61,
            "name": "C#4",
            "ticks": 38400,
            "time": 53.097300000000004,
            "velocity": 0.5433070866141733
          },
          {
            "duration": 0.1327432499999972,
            "durationTicks": 96,
            "midi": 61,
            "name": "C#4",
            "ticks": 38448,
            "time": 53.163671625000006,
            "velocity": 0.5433070866141733
          },
          {
            "duration": 0.1327432500000043,
            "durationTicks": 96,
            "midi": 64,
            "name": "E4",
            "ticks": 38496,
            "time": 53.23004325,
            "velocity": 0.5433070866141733
          },
          {
            "duration": 0.1327432499999972,
            "durationTicks": 96,
            "midi": 64,
            "name": "E4",
            "ticks": 38544,
            "time": 53.296414875,
            "velocity": 0.5433070866141733
          },
          {
            "duration": 0.1327432499999972,
            "durationTicks": 96,
            "midi": 63,
            "name": "D#4",
            "ticks": 38592,
            "time": 53.362786500000006,
            "velocity": 0.5433070866141733
          },
          {
            "duration": 0.1327432500000043,
            "durationTicks": 96,
            "midi": 63,
            "name": "D#4",
            "ticks": 38640,
            "time": 53.429158125,
            "velocity": 0.5433070866141733
          },
          {
            "duration": 0.1327432499999972,
            "durationTicks": 96,
            "midi": 33,
            "name": "A1",
            "ticks": 38688,
            "time": 53.49552975,
            "velocity": 0.7874015748031497
          },
          {
            "duration": 0.1327432499999972,
            "durationTicks": 96,
            "midi": 64,
            "name": "E4",
            "ticks": 38688,
            "time": 53.49552975,
            "velocity": 0.5433070866141733
          },
          {
            "duration": 0.1327432499999972,
            "durationTicks": 96,
            "midi": 64,
            "name": "E4",
            "ticks": 38736,
            "time": 53.561901375000005,
            "velocity": 0.5433070866141733
          },
          {
            "duration": 0.1327432500000043,
            "durationTicks": 96,
            "midi": 61,
            "name": "C#4",
            "ticks": 38784,
            "time": 53.628273,
            "velocity": 0.5433070866141733
          },
          {
            "duration": 0.1327432499999972,
            "durationTicks": 96,
            "midi": 61,
            "name": "C#4",
            "ticks": 38832,
            "time": 53.694644625,
            "velocity": 0.5433070866141733
          },
          {
            "duration": 0.1327432499999972,
            "durationTicks": 96,
            "midi": 61,
            "name": "C#4",
            "ticks": 38880,
            "time": 53.761016250000004,
            "velocity": 0.5433070866141733
          },
          {
            "duration": 0.1327432500000043,
            "durationTicks": 96,
            "midi": 61,
            "name": "C#4",
            "ticks": 38928,
            "time": 53.827387875,
            "velocity": 0.5433070866141733
          },
          {
            "duration": 0.1327432499999972,
            "durationTicks": 96,
            "midi": 33,
            "name": "A1",
            "ticks": 39072,
            "time": 54.026502750000006,
            "velocity": 0.7874015748031497
          },
          {
            "duration": 0.2654864999999944,
            "durationTicks": 192,
            "midi": 61,
            "name": "C#4",
            "ticks": 39072,
            "time": 54.026502750000006,
            "velocity": 0.5433070866141733
          },
          {
            "duration": 0.1327432500000043,
            "durationTicks": 96,
            "midi": 63,
            "name": "D#4",
            "ticks": 39264,
            "time": 54.29198925,
            "velocity": 0.5433070866141733
          },
          {
            "duration": 0.1327432499999972,
            "durationTicks": 96,
            "midi": 63,
            "name": "D#4",
            "ticks": 39312,
            "time": 54.358360875,
            "velocity": 0.5433070866141733
          },
          {
            "duration": 0.1327432499999972,
            "durationTicks": 96,
            "midi": 64,
            "name": "E4",
            "ticks": 39360,
            "time": 54.424732500000005,
            "velocity": 0.5433070866141733
          },
          {
            "duration": 0.1327432499999972,
            "durationTicks": 96,
            "midi": 33,
            "name": "A1",
            "ticks": 39360,
            "time": 54.424732500000005,
            "velocity": 0.7874015748031497
          },
          {
            "duration": 0.1327432500000043,
            "durationTicks": 96,
            "midi": 64,
            "name": "E4",
            "ticks": 39408,
            "time": 54.491104125,
            "velocity": 0.5433070866141733
          },
          {
            "duration": 0.1327432500000043,
            "durationTicks": 96,
            "midi": 71,
            "name": "B4",
            "ticks": 39456,
            "time": 54.55747575,
            "velocity": 0.5433070866141733
          },
          {
            "duration": 0.1327432499999972,
            "durationTicks": 96,
            "midi": 71,
            "name": "B4",
            "ticks": 39504,
            "time": 54.623847375000004,
            "velocity": 0.5433070866141733
          },
          {
            "duration": 0.1327432499999972,
            "durationTicks": 96,
            "midi": 68,
            "name": "G#4",
            "ticks": 39552,
            "time": 54.690219000000006,
            "velocity": 0.5433070866141733
          },
          {
            "duration": 0.1327432499999972,
            "durationTicks": 96,
            "midi": 33,
            "name": "A1",
            "ticks": 39552,
            "time": 54.690219000000006,
            "velocity": 0.7874015748031497
          },
          {
            "duration": 0.1327432500000043,
            "durationTicks": 96,
            "midi": 68,
            "name": "G#4",
            "ticks": 39600,
            "time": 54.756590625,
            "velocity": 0.5433070866141733
          },
          {
            "duration": 0.1327432499999972,
            "durationTicks": 96,
            "midi": 68,
            "name": "G#4",
            "ticks": 39648,
            "time": 54.82296225,
            "velocity": 0.5433070866141733
          },
          {
            "duration": 0.1327432499999972,
            "durationTicks": 96,
            "midi": 68,
            "name": "G#4",
            "ticks": 39696,
            "time": 54.889333875000005,
            "velocity": 0.5433070866141733
          },
          {
            "duration": 0.2654865000000015,
            "durationTicks": 192,
            "midi": 35,
            "name": "B1",
            "ticks": 39744,
            "time": 54.9557055,
            "velocity": 0.7874015748031497
          },
          {
            "duration": 0.1327432500000043,
            "durationTicks": 96,
            "midi": 33,
            "name": "A1",
            "ticks": 39936,
            "time": 55.221192,
            "velocity": 0.7874015748031497
          },
          {
            "duration": 0.1327432500000043,
            "durationTicks": 96,
            "midi": 61,
            "name": "C#4",
            "ticks": 39936,
            "time": 55.221192,
            "velocity": 0.5433070866141733
          },
          {
            "duration": 0.1327432499999972,
            "durationTicks": 96,
            "midi": 61,
            "name": "C#4",
            "ticks": 39984,
            "time": 55.287563625000004,
            "velocity": 0.5433070866141733
          },
          {
            "duration": 0.1327432499999972,
            "durationTicks": 96,
            "midi": 64,
            "name": "E4",
            "ticks": 40032,
            "time": 55.353935250000006,
            "velocity": 0.5433070866141733
          },
          {
            "duration": 0.1327432500000043,
            "durationTicks": 96,
            "midi": 64,
            "name": "E4",
            "ticks": 40080,
            "time": 55.420306875,
            "velocity": 0.5433070866141733
          },
          {
            "duration": 0.1327432499999972,
            "durationTicks": 96,
            "midi": 63,
            "name": "D#4",
            "ticks": 40128,
            "time": 55.486678500000004,
            "velocity": 0.5433070866141733
          },
          {
            "duration": 0.1327432499999972,
            "durationTicks": 96,
            "midi": 63,
            "name": "D#4",
            "ticks": 40176,
            "time": 55.553050125000006,
            "velocity": 0.5433070866141733
          },
          {
            "duration": 0.1327432500000043,
            "durationTicks": 96,
            "midi": 64,
            "name": "E4",
            "ticks": 40224,
            "time": 55.61942175,
            "velocity": 0.5433070866141733
          },
          {
            "duration": 0.1327432500000043,
            "durationTicks": 96,
            "midi": 33,
            "name": "A1",
            "ticks": 40224,
            "time": 55.61942175,
            "velocity": 0.7874015748031497
          },
          {
            "duration": 0.1327432499999972,
            "durationTicks": 96,
            "midi": 64,
            "name": "E4",
            "ticks": 40272,
            "time": 55.685793375,
            "velocity": 0.5433070866141733
          },
          {
            "duration": 0.1327432499999972,
            "durationTicks": 96,
            "midi": 61,
            "name": "C#4",
            "ticks": 40320,
            "time": 55.752165000000005,
            "velocity": 0.5433070866141733
          },
          {
            "duration": 0.1327432500000043,
            "durationTicks": 96,
            "midi": 61,
            "name": "C#4",
            "ticks": 40368,
            "time": 55.818536625,
            "velocity": 0.5433070866141733
          },
          {
            "duration": 0.1327432499999972,
            "durationTicks": 96,
            "midi": 61,
            "name": "C#4",
            "ticks": 40416,
            "time": 55.88490825,
            "velocity": 0.5433070866141733
          },
          {
            "duration": 0.1327432499999972,
            "durationTicks": 96,
            "midi": 61,
            "name": "C#4",
            "ticks": 40464,
            "time": 55.951279875000004,
            "velocity": 0.5433070866141733
          },
          {
            "duration": 0.1327432499999972,
            "durationTicks": 96,
            "midi": 33,
            "name": "A1",
            "ticks": 40608,
            "time": 56.150394750000004,
            "velocity": 0.7874015748031497
          },
          {
            "duration": 0.2654865000000015,
            "durationTicks": 192,
            "midi": 61,
            "name": "C#4",
            "ticks": 40608,
            "time": 56.150394750000004,
            "velocity": 0.5433070866141733
          },
          {
            "duration": 0.1327432499999972,
            "durationTicks": 96,
            "midi": 63,
            "name": "D#4",
            "ticks": 40800,
            "time": 56.415881250000005,
            "velocity": 0.5433070866141733
          },
          {
            "duration": 0.1327432500000043,
            "durationTicks": 96,
            "midi": 63,
            "name": "D#4",
            "ticks": 40848,
            "time": 56.482252875,
            "velocity": 0.5433070866141733
          },
          {
            "duration": 0.1327432499999972,
            "durationTicks": 96,
            "midi": 33,
            "name": "A1",
            "ticks": 40896,
            "time": 56.5486245,
            "velocity": 0.7874015748031497
          },
          {
            "duration": 0.1327432499999972,
            "durationTicks": 96,
            "midi": 64,
            "name": "E4",
            "ticks": 40896,
            "time": 56.5486245,
            "velocity": 0.5433070866141733
          },
          {
            "duration": 0.1327432499999972,
            "durationTicks": 96,
            "midi": 64,
            "name": "E4",
            "ticks": 40944,
            "time": 56.614996125000005,
            "velocity": 0.5433070866141733
          },
          {
            "duration": 0.1327432500000043,
            "durationTicks": 96,
            "midi": 71,
            "name": "B4",
            "ticks": 40992,
            "time": 56.68136775,
            "velocity": 0.5433070866141733
          },
          {
            "duration": 0.1327432500000043,
            "durationTicks": 96,
            "midi": 71,
            "name": "B4",
            "ticks": 41040,
            "time": 56.747739375,
            "velocity": 0.5433070866141733
          },
          {
            "duration": 0.1327432499999972,
            "durationTicks": 96,
            "midi": 33,
            "name": "A1",
            "ticks": 41088,
            "time": 56.814111000000004,
            "velocity": 0.7874015748031497
          },
          {
            "duration": 0.1327432499999972,
            "durationTicks": 96,
            "midi": 68,
            "name": "G#4",
            "ticks": 41088,
            "time": 56.814111000000004,
            "velocity": 0.5433070866141733
          },
          {
            "duration": 0.1327432499999972,
            "durationTicks": 96,
            "midi": 68,
            "name": "G#4",
            "ticks": 41136,
            "time": 56.880482625000006,
            "velocity": 0.5433070866141733
          },
          {
            "duration": 0.1327432500000043,
            "durationTicks": 96,
            "midi": 68,
            "name": "G#4",
            "ticks": 41184,
            "time": 56.94685425,
            "velocity": 0.5433070866141733
          },
          {
            "duration": 0.1327432499999972,
            "durationTicks": 96,
            "midi": 68,
            "name": "G#4",
            "ticks": 41232,
            "time": 57.013225875,
            "velocity": 0.5433070866141733
          },
          {
            "duration": 0.2654864999999944,
            "durationTicks": 192,
            "midi": 35,
            "name": "B1",
            "ticks": 41280,
            "time": 57.079597500000006,
            "velocity": 0.7874015748031497
          },
          {
            "duration": 0.1327432500000043,
            "durationTicks": 96,
            "midi": 61,
            "name": "C#4",
            "ticks": 41472,
            "time": 57.345084,
            "velocity": 0.5433070866141733
          },
          {
            "duration": 0.1327432500000043,
            "durationTicks": 96,
            "midi": 37,
            "name": "C#2",
            "ticks": 41472,
            "time": 57.345084,
            "velocity": 0.7874015748031497
          },
          {
            "duration": 0.1327432500000043,
            "durationTicks": 96,
            "midi": 61,
            "name": "C#4",
            "ticks": 41520,
            "time": 57.411455625,
            "velocity": 0.5433070866141733
          },
          {
            "duration": 0.1327432499999972,
            "durationTicks": 96,
            "midi": 64,
            "name": "E4",
            "ticks": 41568,
            "time": 57.477827250000004,
            "velocity": 0.5433070866141733
          },
          {
            "duration": 0.1327432499999972,
            "durationTicks": 96,
            "midi": 64,
            "name": "E4",
            "ticks": 41616,
            "time": 57.544198875000006,
            "velocity": 0.5433070866141733
          },
          {
            "duration": 0.1327432500000043,
            "durationTicks": 96,
            "midi": 63,
            "name": "D#4",
            "ticks": 41664,
            "time": 57.6105705,
            "velocity": 0.5433070866141733
          },
          {
            "duration": 0.1327432499999972,
            "durationTicks": 96,
            "midi": 63,
            "name": "D#4",
            "ticks": 41712,
            "time": 57.676942125000004,
            "velocity": 0.5433070866141733
          },
          {
            "duration": 0.1327432499999972,
            "durationTicks": 96,
            "midi": 64,
            "name": "E4",
            "ticks": 41760,
            "time": 57.743313750000006,
            "velocity": 0.5433070866141733
          },
          {
            "duration": 0.1327432499999972,
            "durationTicks": 96,
            "midi": 37,
            "name": "C#2",
            "ticks": 41760,
            "time": 57.743313750000006,
            "velocity": 0.7874015748031497
          },
          {
            "duration": 0.1327432500000043,
            "durationTicks": 96,
            "midi": 64,
            "name": "E4",
            "ticks": 41808,
            "time": 57.809685375,
            "velocity": 0.5433070866141733
          },
          {
            "duration": 0.1327432499999972,
            "durationTicks": 96,
            "midi": 61,
            "name": "C#4",
            "ticks": 41856,
            "time": 57.876057,
            "velocity": 0.5433070866141733
          },
          {
            "duration": 0.1327432499999972,
            "durationTicks": 96,
            "midi": 61,
            "name": "C#4",
            "ticks": 41904,
            "time": 57.942428625000005,
            "velocity": 0.5433070866141733
          },
          {
            "duration": 0.1327432500000043,
            "durationTicks": 96,
            "midi": 61,
            "name": "C#4",
            "ticks": 41952,
            "time": 58.00880025,
            "velocity": 0.5433070866141733
          },
          {
            "duration": 0.1327432500000043,
            "durationTicks": 96,
            "midi": 61,
            "name": "C#4",
            "ticks": 42000,
            "time": 58.075171875,
            "velocity": 0.5433070866141733
          },
          {
            "duration": 0.1327432500000043,
            "durationTicks": 96,
            "midi": 37,
            "name": "C#2",
            "ticks": 42144,
            "time": 58.27428675,
            "velocity": 0.7874015748031497
          },
          {
            "duration": 0.2654865000000015,
            "durationTicks": 192,
            "midi": 61,
            "name": "C#4",
            "ticks": 42144,
            "time": 58.27428675,
            "velocity": 0.5433070866141733
          },
          {
            "duration": 0.1327432499999972,
            "durationTicks": 96,
            "midi": 63,
            "name": "D#4",
            "ticks": 42336,
            "time": 58.53977325,
            "velocity": 0.5433070866141733
          },
          {
            "duration": 0.1327432499999972,
            "durationTicks": 96,
            "midi": 63,
            "name": "D#4",
            "ticks": 42384,
            "time": 58.606144875000005,
            "velocity": 0.5433070866141733
          },
          {
            "duration": 0.1327432500000043,
            "durationTicks": 96,
            "midi": 37,
            "name": "C#2",
            "ticks": 42432,
            "time": 58.6725165,
            "velocity": 0.7874015748031497
          },
          {
            "duration": 0.1327432500000043,
            "durationTicks": 96,
            "midi": 64,
            "name": "E4",
            "ticks": 42432,
            "time": 58.6725165,
            "velocity": 0.5433070866141733
          },
          {
            "duration": 0.1327432499999972,
            "durationTicks": 96,
            "midi": 64,
            "name": "E4",
            "ticks": 42480,
            "time": 58.738888125,
            "velocity": 0.5433070866141733
          },
          {
            "duration": 0.1327432499999972,
            "durationTicks": 96,
            "midi": 71,
            "name": "B4",
            "ticks": 42528,
            "time": 58.805259750000005,
            "velocity": 0.5433070866141733
          },
          {
            "duration": 0.1327432500000043,
            "durationTicks": 96,
            "midi": 71,
            "name": "B4",
            "ticks": 42576,
            "time": 58.871631375,
            "velocity": 0.5433070866141733
          },
          {
            "duration": 0.1327432500000043,
            "durationTicks": 96,
            "midi": 68,
            "name": "G#4",
            "ticks": 42624,
            "time": 58.938003,
            "velocity": 0.5433070866141733
          },
          {
            "duration": 0.1327432500000043,
            "durationTicks": 96,
            "midi": 37,
            "name": "C#2",
            "ticks": 42624,
            "time": 58.938003,
            "velocity": 0.7874015748031497
          },
          {
            "duration": 0.1327432499999972,
            "durationTicks": 96,
            "midi": 68,
            "name": "G#4",
            "ticks": 42672,
            "time": 59.004374625000004,
            "velocity": 0.5433070866141733
          },
          {
            "duration": 0.1327432499999972,
            "durationTicks": 96,
            "midi": 68,
            "name": "G#4",
            "ticks": 42720,
            "time": 59.070746250000006,
            "velocity": 0.5433070866141733
          },
          {
            "duration": 0.1327432500000043,
            "durationTicks": 96,
            "midi": 68,
            "name": "G#4",
            "ticks": 42768,
            "time": 59.137117875,
            "velocity": 0.5433070866141733
          },
          {
            "duration": 0.2654865000000015,
            "durationTicks": 192,
            "midi": 35,
            "name": "B1",
            "ticks": 42816,
            "time": 59.2034895,
            "velocity": 0.7874015748031497
          },
          {
            "duration": 0.1327432499999972,
            "durationTicks": 96,
            "midi": 32,
            "name": "G#1",
            "ticks": 43008,
            "time": 59.468976000000005,
            "velocity": 0.7874015748031497
          },
          {
            "duration": 0.3982297499999987,
            "durationTicks": 288,
            "midi": 59,
            "name": "B3",
            "ticks": 43008,
            "time": 59.468976000000005,
            "velocity": 0.5433070866141733
          },
          {
            "duration": 0.1327432499999972,
            "durationTicks": 96,
            "midi": 32,
            "name": "G#1",
            "ticks": 43296,
            "time": 59.867205750000004,
            "velocity": 0.7874015748031497
          },
          {
            "duration": 0.3982297499999987,
            "durationTicks": 288,
            "midi": 66,
            "name": "F#4",
            "ticks": 43296,
            "time": 59.867205750000004,
            "velocity": 0.5433070866141733
          },
          {
            "duration": 0.1327432500000043,
            "durationTicks": 96,
            "midi": 32,
            "name": "G#1",
            "ticks": 43584,
            "time": 60.2654355,
            "velocity": 0.7874015748031497
          },
          {
            "duration": 0.1327432500000043,
            "durationTicks": 96,
            "midi": 64,
            "name": "E4",
            "ticks": 43584,
            "time": 60.2654355,
            "velocity": 0.5433070866141733
          },
          {
            "duration": 0.1327432499999972,
            "durationTicks": 96,
            "midi": 64,
            "name": "E4",
            "ticks": 43680,
            "time": 60.39817875000001,
            "velocity": 0.5433070866141733
          },
          {
            "duration": 0.1327432500000043,
            "durationTicks": 96,
            "midi": 63,
            "name": "D#4",
            "ticks": 43728,
            "time": 60.464550375,
            "velocity": 0.5433070866141733
          },
          {
            "duration": 0.1327432499999972,
            "durationTicks": 96,
            "midi": 35,
            "name": "B1",
            "ticks": 43776,
            "time": 60.530922000000004,
            "velocity": 0.7874015748031497
          },
          {
            "duration": 0.1327432499999972,
            "durationTicks": 96,
            "midi": 63,
            "name": "D#4",
            "ticks": 43776,
            "time": 60.530922000000004,
            "velocity": 0.5433070866141733
          },
          {
            "duration": 0.1327432500000043,
            "durationTicks": 96,
            "midi": 61,
            "name": "C#4",
            "ticks": 43872,
            "time": 60.66366525,
            "velocity": 0.5433070866141733
          },
          {
            "duration": 0.1327432499999972,
            "durationTicks": 96,
            "midi": 61,
            "name": "C#4",
            "ticks": 43968,
            "time": 60.796408500000005,
            "velocity": 0.5433070866141733
          },
          {
            "duration": 0.2654865000000015,
            "durationTicks": 192,
            "midi": 59,
            "name": "B3",
            "ticks": 44064,
            "time": 60.92915175,
            "velocity": 0.5433070866141733
          },
          {
            "duration": 0.1327432499999972,
            "durationTicks": 96,
            "midi": 39,
            "name": "D#2",
            "ticks": 44064,
            "time": 60.92915175,
            "velocity": 0.7874015748031497
          },
          {
            "duration": 0.1327432499999972,
            "durationTicks": 96,
            "midi": 61,
            "name": "C#4",
            "ticks": 44256,
            "time": 61.194638250000004,
            "velocity": 0.5433070866141733
          },
          {
            "duration": 0.1327432499999972,
            "durationTicks": 96,
            "midi": 63,
            "name": "D#4",
            "ticks": 44304,
            "time": 61.261009875000006,
            "velocity": 0.5433070866141733
          },
          {
            "duration": 0.2654865000000015,
            "durationTicks": 192,
            "midi": 42,
            "name": "F#2",
            "ticks": 44352,
            "time": 61.3273815,
            "velocity": 0.7874015748031497
          },
          {
            "duration": 0.2654865000000015,
            "durationTicks": 192,
            "midi": 63,
            "name": "D#4",
            "ticks": 44352,
            "time": 61.3273815,
            "velocity": 0.5433070866141733
          },
          {
            "duration": 0.1327432499999972,
            "durationTicks": 96,
            "midi": 61,
            "name": "C#4",
            "ticks": 44544,
            "time": 61.592868,
            "velocity": 0.5433070866141733
          },
          {
            "duration": 0.1327432499999972,
            "durationTicks": 96,
            "midi": 33,
            "name": "A1",
            "ticks": 44544,
            "time": 61.592868,
            "velocity": 0.7874015748031497
          },
          {
            "duration": 0.1327432499999972,
            "durationTicks": 96,
            "midi": 61,
            "name": "C#4",
            "ticks": 44592,
            "time": 61.659239625000005,
            "velocity": 0.5433070866141733
          },
          {
            "duration": 0.1327432500000043,
            "durationTicks": 96,
            "midi": 64,
            "name": "E4",
            "ticks": 44640,
            "time": 61.72561125,
            "velocity": 0.5433070866141733
          },
          {
            "duration": 0.1327432500000043,
            "durationTicks": 96,
            "midi": 64,
            "name": "E4",
            "ticks": 44688,
            "time": 61.791982875,
            "velocity": 0.5433070866141733
          },
          {
            "duration": 0.1327432499999972,
            "durationTicks": 96,
            "midi": 63,
            "name": "D#4",
            "ticks": 44736,
            "time": 61.858354500000004,
            "velocity": 0.5433070866141733
          },
          {
            "duration": 0.1327432499999972,
            "durationTicks": 96,
            "midi": 63,
            "name": "D#4",
            "ticks": 44784,
            "time": 61.92472612500001,
            "velocity": 0.5433070866141733
          },
          {
            "duration": 0.1327432500000043,
            "durationTicks": 96,
            "midi": 33,
            "name": "A1",
            "ticks": 44832,
            "time": 61.99109775,
            "velocity": 0.7874015748031497
          },
          {
            "duration": 0.1327432500000043,
            "durationTicks": 96,
            "midi": 64,
            "name": "E4",
            "ticks": 44832,
            "time": 61.99109775,
            "velocity": 0.5433070866141733
          },
          {
            "duration": 0.1327432499999972,
            "durationTicks": 96,
            "midi": 64,
            "name": "E4",
            "ticks": 44880,
            "time": 62.057469375000004,
            "velocity": 0.5433070866141733
          },
          {
            "duration": 0.1327432499999972,
            "durationTicks": 96,
            "midi": 61,
            "name": "C#4",
            "ticks": 44928,
            "time": 62.123841000000006,
            "velocity": 0.5433070866141733
          },
          {
            "duration": 0.1327432500000043,
            "durationTicks": 96,
            "midi": 61,
            "name": "C#4",
            "ticks": 44976,
            "time": 62.190212625,
            "velocity": 0.5433070866141733
          },
          {
            "duration": 0.1327432499999972,
            "durationTicks": 96,
            "midi": 61,
            "name": "C#4",
            "ticks": 45024,
            "time": 62.25658425,
            "velocity": 0.5433070866141733
          },
          {
            "duration": 0.1327432499999972,
            "durationTicks": 96,
            "midi": 61,
            "name": "C#4",
            "ticks": 45072,
            "time": 62.322955875000005,
            "velocity": 0.5433070866141733
          },
          {
            "duration": 0.1327432499999972,
            "durationTicks": 96,
            "midi": 33,
            "name": "A1",
            "ticks": 45216,
            "time": 62.522070750000005,
            "velocity": 0.7874015748031497
          },
          {
            "duration": 0.2654865000000015,
            "durationTicks": 192,
            "midi": 61,
            "name": "C#4",
            "ticks": 45216,
            "time": 62.522070750000005,
            "velocity": 0.5433070866141733
          },
          {
            "duration": 0.1327432499999972,
            "durationTicks": 96,
            "midi": 63,
            "name": "D#4",
            "ticks": 45408,
            "time": 62.787557250000006,
            "velocity": 0.5433070866141733
          },
          {
            "duration": 0.1327432500000043,
            "durationTicks": 96,
            "midi": 63,
            "name": "D#4",
            "ticks": 45456,
            "time": 62.853928875,
            "velocity": 0.5433070866141733
          },
          {
            "duration": 0.1327432499999972,
            "durationTicks": 96,
            "midi": 33,
            "name": "A1",
            "ticks": 45504,
            "time": 62.9203005,
            "velocity": 0.7874015748031497
          },
          {
            "duration": 0.1327432499999972,
            "durationTicks": 96,
            "midi": 64,
            "name": "E4",
            "ticks": 45504,
            "time": 62.9203005,
            "velocity": 0.5433070866141733
          },
          {
            "duration": 0.1327432499999972,
            "durationTicks": 96,
            "midi": 64,
            "name": "E4",
            "ticks": 45552,
            "time": 62.986672125000005,
            "velocity": 0.5433070866141733
          },
          {
            "duration": 0.1327432500000043,
            "durationTicks": 96,
            "midi": 71,
            "name": "B4",
            "ticks": 45600,
            "time": 63.05304375,
            "velocity": 0.5433070866141733
          },
          {
            "duration": 0.1327432499999972,
            "durationTicks": 96,
            "midi": 71,
            "name": "B4",
            "ticks": 45648,
            "time": 63.119415375,
            "velocity": 0.5433070866141733
          },
          {
            "duration": 0.1327432499999972,
            "durationTicks": 96,
            "midi": 68,
            "name": "G#4",
            "ticks": 45696,
            "time": 63.185787000000005,
            "velocity": 0.5433070866141733
          },
          {
            "duration": 0.1327432499999972,
            "durationTicks": 96,
            "midi": 33,
            "name": "A1",
            "ticks": 45696,
            "time": 63.185787000000005,
            "velocity": 0.7874015748031497
          },
          {
            "duration": 0.1327432500000043,
            "durationTicks": 96,
            "midi": 68,
            "name": "G#4",
            "ticks": 45744,
            "time": 63.252158625,
            "velocity": 0.5433070866141733
          },
          {
            "duration": 0.1327432500000043,
            "durationTicks": 96,
            "midi": 68,
            "name": "G#4",
            "ticks": 45792,
            "time": 63.31853025,
            "velocity": 0.5433070866141733
          },
          {
            "duration": 0.1327432499999972,
            "durationTicks": 96,
            "midi": 68,
            "name": "G#4",
            "ticks": 45840,
            "time": 63.384901875000004,
            "velocity": 0.5433070866141733
          },
          {
            "duration": 0.2654864999999944,
            "durationTicks": 192,
            "midi": 35,
            "name": "B1",
            "ticks": 45888,
            "time": 63.451273500000006,
            "velocity": 0.7874015748031497
          },
          {
            "duration": 0.1327432500000043,
            "durationTicks": 96,
            "midi": 33,
            "name": "A1",
            "ticks": 46080,
            "time": 63.71676,
            "velocity": 0.7874015748031497
          },
          {
            "duration": 0.1327432500000043,
            "durationTicks": 96,
            "midi": 61,
            "name": "C#4",
            "ticks": 46080,
            "time": 63.71676,
            "velocity": 0.5433070866141733
          },
          {
            "duration": 0.1327432499999972,
            "durationTicks": 96,
            "midi": 61,
            "name": "C#4",
            "ticks": 46128,
            "time": 63.783131625,
            "velocity": 0.5433070866141733
          },
          {
            "duration": 0.1327432499999972,
            "durationTicks": 96,
            "midi": 64,
            "name": "E4",
            "ticks": 46176,
            "time": 63.849503250000005,
            "velocity": 0.5433070866141733
          },
          {
            "duration": 0.1327432500000043,
            "durationTicks": 96,
            "midi": 64,
            "name": "E4",
            "ticks": 46224,
            "time": 63.915874875,
            "velocity": 0.5433070866141733
          },
          {
            "duration": 0.1327432500000043,
            "durationTicks": 96,
            "midi": 63,
            "name": "D#4",
            "ticks": 46272,
            "time": 63.9822465,
            "velocity": 0.5433070866141733
          },
          {
            "duration": 0.1327432500000043,
            "durationTicks": 96,
            "midi": 63,
            "name": "D#4",
            "ticks": 46320,
            "time": 64.048618125,
            "velocity": 0.5433070866141733
          },
          {
            "duration": 0.1327432499999901,
            "durationTicks": 96,
            "midi": 33,
            "name": "A1",
            "ticks": 46368,
            "time": 64.11498975,
            "velocity": 0.7874015748031497
          },
          {
            "duration": 0.1327432499999901,
            "durationTicks": 96,
            "midi": 64,
            "name": "E4",
            "ticks": 46368,
            "time": 64.11498975,
            "velocity": 0.5433070866141733
          },
          {
            "duration": 0.1327432499999901,
            "durationTicks": 96,
            "midi": 64,
            "name": "E4",
            "ticks": 46416,
            "time": 64.18136137500001,
            "velocity": 0.5433070866141733
          },
          {
            "duration": 0.1327432500000043,
            "durationTicks": 96,
            "midi": 61,
            "name": "C#4",
            "ticks": 46464,
            "time": 64.247733,
            "velocity": 0.5433070866141733
          },
          {
            "duration": 0.1327432500000043,
            "durationTicks": 96,
            "midi": 61,
            "name": "C#4",
            "ticks": 46512,
            "time": 64.314104625,
            "velocity": 0.5433070866141733
          },
          {
            "duration": 0.1327432500000043,
            "durationTicks": 96,
            "midi": 61,
            "name": "C#4",
            "ticks": 46560,
            "time": 64.38047625,
            "velocity": 0.5433070866141733
          },
          {
            "duration": 0.1327432500000043,
            "durationTicks": 96,
            "midi": 61,
            "name": "C#4",
            "ticks": 46608,
            "time": 64.446847875,
            "velocity": 0.5433070866141733
          },
          {
            "duration": 0.2654864999999944,
            "durationTicks": 192,
            "midi": 61,
            "name": "C#4",
            "ticks": 46752,
            "time": 64.64596275000001,
            "velocity": 0.5433070866141733
          },
          {
            "duration": 0.1327432499999901,
            "durationTicks": 96,
            "midi": 33,
            "name": "A1",
            "ticks": 46752,
            "time": 64.64596275000001,
            "velocity": 0.7874015748031497
          },
          {
            "duration": 0.1327432500000043,
            "durationTicks": 96,
            "midi": 63,
            "name": "D#4",
            "ticks": 46944,
            "time": 64.91144925,
            "velocity": 0.5433070866141733
          },
          {
            "duration": 0.1327432500000043,
            "durationTicks": 96,
            "midi": 63,
            "name": "D#4",
            "ticks": 46992,
            "time": 64.977820875,
            "velocity": 0.5433070866141733
          },
          {
            "duration": 0.1327432499999901,
            "durationTicks": 96,
            "midi": 33,
            "name": "A1",
            "ticks": 47040,
            "time": 65.04419250000001,
            "velocity": 0.7874015748031497
          },
          {
            "duration": 0.1327432499999901,
            "durationTicks": 96,
            "midi": 64,
            "name": "E4",
            "ticks": 47040,
            "time": 65.04419250000001,
            "velocity": 0.5433070866141733
          },
          {
            "duration": 0.1327432499999901,
            "durationTicks": 96,
            "midi": 64,
            "name": "E4",
            "ticks": 47088,
            "time": 65.11056412500001,
            "velocity": 0.5433070866141733
          },
          {
            "duration": 0.1327432500000043,
            "durationTicks": 96,
            "midi": 71,
            "name": "B4",
            "ticks": 47136,
            "time": 65.17693575,
            "velocity": 0.5433070866141733
          },
          {
            "duration": 0.1327432500000043,
            "durationTicks": 96,
            "midi": 71,
            "name": "B4",
            "ticks": 47184,
            "time": 65.243307375,
            "velocity": 0.5433070866141733
          },
          {
            "duration": 0.1327432500000043,
            "durationTicks": 96,
            "midi": 33,
            "name": "A1",
            "ticks": 47232,
            "time": 65.309679,
            "velocity": 0.7874015748031497
          },
          {
            "duration": 0.1327432500000043,
            "durationTicks": 96,
            "midi": 68,
            "name": "G#4",
            "ticks": 47232,
            "time": 65.309679,
            "velocity": 0.5433070866141733
          },
          {
            "duration": 0.1327432500000043,
            "durationTicks": 96,
            "midi": 68,
            "name": "G#4",
            "ticks": 47280,
            "time": 65.376050625,
            "velocity": 0.5433070866141733
          },
          {
            "duration": 0.1327432499999901,
            "durationTicks": 96,
            "midi": 68,
            "name": "G#4",
            "ticks": 47328,
            "time": 65.44242225,
            "velocity": 0.5433070866141733
          },
          {
            "duration": 0.1327432499999901,
            "durationTicks": 96,
            "midi": 68,
            "name": "G#4",
            "ticks": 47376,
            "time": 65.50879387500001,
            "velocity": 0.5433070866141733
          },
          {
            "duration": 0.2654865000000086,
            "durationTicks": 192,
            "midi": 35,
            "name": "B1",
            "ticks": 47424,
            "time": 65.5751655,
            "velocity": 0.7874015748031497
          },
          {
            "duration": 0.1327432500000043,
            "durationTicks": 96,
            "midi": 61,
            "name": "C#4",
            "ticks": 47616,
            "time": 65.840652,
            "velocity": 0.5433070866141733
          },
          {
            "duration": 0.1327432500000043,
            "durationTicks": 96,
            "midi": 37,
            "name": "C#2",
            "ticks": 47616,
            "time": 65.840652,
            "velocity": 0.7874015748031497
          },
          {
            "duration": 0.1327432499999901,
            "durationTicks": 96,
            "midi": 61,
            "name": "C#4",
            "ticks": 47664,
            "time": 65.90702362500001,
            "velocity": 0.5433070866141733
          },
          {
            "duration": 0.1327432499999901,
            "durationTicks": 96,
            "midi": 64,
            "name": "E4",
            "ticks": 47712,
            "time": 65.97339525000001,
            "velocity": 0.5433070866141733
          },
          {
            "duration": 0.1327432500000043,
            "durationTicks": 96,
            "midi": 64,
            "name": "E4",
            "ticks": 47760,
            "time": 66.039766875,
            "velocity": 0.5433070866141733
          },
          {
            "duration": 0.1327432500000043,
            "durationTicks": 96,
            "midi": 63,
            "name": "D#4",
            "ticks": 47808,
            "time": 66.1061385,
            "velocity": 0.5433070866141733
          },
          {
            "duration": 0.1327432500000043,
            "durationTicks": 96,
            "midi": 63,
            "name": "D#4",
            "ticks": 47856,
            "time": 66.172510125,
            "velocity": 0.5433070866141733
          },
          {
            "duration": 0.1327432500000043,
            "durationTicks": 96,
            "midi": 37,
            "name": "C#2",
            "ticks": 47904,
            "time": 66.23888175,
            "velocity": 0.7874015748031497
          },
          {
            "duration": 0.1327432500000043,
            "durationTicks": 96,
            "midi": 64,
            "name": "E4",
            "ticks": 47904,
            "time": 66.23888175,
            "velocity": 0.5433070866141733
          },
          {
            "duration": 0.1327432499999901,
            "durationTicks": 96,
            "midi": 64,
            "name": "E4",
            "ticks": 47952,
            "time": 66.305253375,
            "velocity": 0.5433070866141733
          },
          {
            "duration": 0.1327432499999901,
            "durationTicks": 96,
            "midi": 61,
            "name": "C#4",
            "ticks": 48000,
            "time": 66.37162500000001,
            "velocity": 0.5433070866141733
          },
          {
            "duration": 0.1327432500000043,
            "durationTicks": 96,
            "midi": 61,
            "name": "C#4",
            "ticks": 48048,
            "time": 66.437996625,
            "velocity": 0.5433070866141733
          },
          {
            "duration": 0.1327432500000043,
            "durationTicks": 96,
            "midi": 61,
            "name": "C#4",
            "ticks": 48096,
            "time": 66.50436825,
            "velocity": 0.5433070866141733
          },
          {
            "duration": 0.1327432500000043,
            "durationTicks": 96,
            "midi": 61,
            "name": "C#4",
            "ticks": 48144,
            "time": 66.570739875,
            "velocity": 0.5433070866141733
          },
          {
            "duration": 0.1327432499999901,
            "durationTicks": 96,
            "midi": 37,
            "name": "C#2",
            "ticks": 48288,
            "time": 66.76985475000001,
            "velocity": 0.7874015748031497
          },
          {
            "duration": 0.2654864999999944,
            "durationTicks": 192,
            "midi": 61,
            "name": "C#4",
            "ticks": 48288,
            "time": 66.76985475000001,
            "velocity": 0.5433070866141733
          },
          {
            "duration": 0.1327432500000043,
            "durationTicks": 96,
            "midi": 63,
            "name": "D#4",
            "ticks": 48480,
            "time": 67.03534125,
            "velocity": 0.5433070866141733
          },
          {
            "duration": 0.1327432500000043,
            "durationTicks": 96,
            "midi": 63,
            "name": "D#4",
            "ticks": 48528,
            "time": 67.101712875,
            "velocity": 0.5433070866141733
          },
          {
            "duration": 0.1327432500000043,
            "durationTicks": 96,
            "midi": 37,
            "name": "C#2",
            "ticks": 48576,
            "time": 67.1680845,
            "velocity": 0.7874015748031497
          },
          {
            "duration": 0.1327432500000043,
            "durationTicks": 96,
            "midi": 64,
            "name": "E4",
            "ticks": 48576,
            "time": 67.1680845,
            "velocity": 0.5433070866141733
          },
          {
            "duration": 0.1327432499999901,
            "durationTicks": 96,
            "midi": 64,
            "name": "E4",
            "ticks": 48624,
            "time": 67.23445612500001,
            "velocity": 0.5433070866141733
          },
          {
            "duration": 0.1327432499999901,
            "durationTicks": 96,
            "midi": 71,
            "name": "B4",
            "ticks": 48672,
            "time": 67.30082775000001,
            "velocity": 0.5433070866141733
          },
          {
            "duration": 0.1327432500000043,
            "durationTicks": 96,
            "midi": 71,
            "name": "B4",
            "ticks": 48720,
            "time": 67.367199375,
            "velocity": 0.5433070866141733
          },
          {
            "duration": 0.1327432500000043,
            "durationTicks": 96,
            "midi": 68,
            "name": "G#4",
            "ticks": 48768,
            "time": 67.433571,
            "velocity": 0.5433070866141733
          },
          {
            "duration": 0.1327432500000043,
            "durationTicks": 96,
            "midi": 37,
            "name": "C#2",
            "ticks": 48768,
            "time": 67.433571,
            "velocity": 0.7874015748031497
          },
          {
            "duration": 0.1327432500000043,
            "durationTicks": 96,
            "midi": 68,
            "name": "G#4",
            "ticks": 48816,
            "time": 67.499942625,
            "velocity": 0.5433070866141733
          },
          {
            "duration": 0.1327432500000043,
            "durationTicks": 96,
            "midi": 68,
            "name": "G#4",
            "ticks": 48864,
            "time": 67.56631425,
            "velocity": 0.5433070866141733
          },
          {
            "duration": 0.1327432499999901,
            "durationTicks": 96,
            "midi": 68,
            "name": "G#4",
            "ticks": 48912,
            "time": 67.632685875,
            "velocity": 0.5433070866141733
          },
          {
            "duration": 0.2654864999999944,
            "durationTicks": 192,
            "midi": 35,
            "name": "B1",
            "ticks": 48960,
            "time": 67.69905750000001,
            "velocity": 0.7874015748031497
          },
          {
            "duration": 0.1327432500000043,
            "durationTicks": 96,
            "midi": 32,
            "name": "G#1",
            "ticks": 49152,
            "time": 67.964544,
            "velocity": 0.7874015748031497
          },
          {
            "duration": 0.3982297499999987,
            "durationTicks": 288,
            "midi": 59,
            "name": "B3",
            "ticks": 49152,
            "time": 67.964544,
            "velocity": 0.5433070866141733
          },
          {
            "duration": 0.1327432500000043,
            "durationTicks": 96,
            "midi": 32,
            "name": "G#1",
            "ticks": 49440,
            "time": 68.36277375,
            "velocity": 0.7874015748031497
          },
          {
            "duration": 0.3982297499999987,
            "durationTicks": 288,
            "midi": 66,
            "name": "F#4",
            "ticks": 49440,
            "time": 68.36277375,
            "velocity": 0.5433070866141733
          },
          {
            "duration": 0.1327432500000043,
            "durationTicks": 96,
            "midi": 32,
            "name": "G#1",
            "ticks": 49728,
            "time": 68.7610035,
            "velocity": 0.7874015748031497
          },
          {
            "duration": 0.1327432500000043,
            "durationTicks": 96,
            "midi": 64,
            "name": "E4",
            "ticks": 49728,
            "time": 68.7610035,
            "velocity": 0.5433070866141733
          },
          {
            "duration": 0.1327432500000043,
            "durationTicks": 96,
            "midi": 64,
            "name": "E4",
            "ticks": 49824,
            "time": 68.89374675,
            "velocity": 0.5433070866141733
          },
          {
            "duration": 0.1327432499999901,
            "durationTicks": 96,
            "midi": 63,
            "name": "D#4",
            "ticks": 49872,
            "time": 68.96011837500001,
            "velocity": 0.5433070866141733
          },
          {
            "duration": 0.1327432499999901,
            "durationTicks": 96,
            "midi": 63,
            "name": "D#4",
            "ticks": 49920,
            "time": 69.02649000000001,
            "velocity": 0.5433070866141733
          },
          {
            "duration": 0.1327432499999901,
            "durationTicks": 96,
            "midi": 35,
            "name": "B1",
            "ticks": 49920,
            "time": 69.02649000000001,
            "velocity": 0.7874015748031497
          },
          {
            "duration": 0.1327432500000043,
            "durationTicks": 96,
            "midi": 61,
            "name": "C#4",
            "ticks": 50016,
            "time": 69.15923325,
            "velocity": 0.5433070866141733
          },
          {
            "duration": 0.1327432500000043,
            "durationTicks": 96,
            "midi": 61,
            "name": "C#4",
            "ticks": 50112,
            "time": 69.2919765,
            "velocity": 0.5433070866141733
          },
          {
            "duration": 0.2654864999999944,
            "durationTicks": 192,
            "midi": 59,
            "name": "B3",
            "ticks": 50208,
            "time": 69.42471975000001,
            "velocity": 0.5433070866141733
          },
          {
            "duration": 0.1327432499999901,
            "durationTicks": 96,
            "midi": 39,
            "name": "D#2",
            "ticks": 50208,
            "time": 69.42471975000001,
            "velocity": 0.7874015748031497
          },
          {
            "duration": 0.1327432500000043,
            "durationTicks": 96,
            "midi": 61,
            "name": "C#4",
            "ticks": 50400,
            "time": 69.69020625,
            "velocity": 0.5433070866141733
          },
          {
            "duration": 0.1327432500000043,
            "durationTicks": 96,
            "midi": 63,
            "name": "D#4",
            "ticks": 50448,
            "time": 69.756577875,
            "velocity": 0.5433070866141733
          },
          {
            "duration": 0.2654864999999944,
            "durationTicks": 192,
            "midi": 63,
            "name": "D#4",
            "ticks": 50496,
            "time": 69.82294950000001,
            "velocity": 0.5433070866141733
          },
          {
            "duration": 0.2654864999999944,
            "durationTicks": 192,
            "midi": 42,
            "name": "F#2",
            "ticks": 50496,
            "time": 69.82294950000001,
            "velocity": 0.7874015748031497
          },
          {
            "duration": 0.1327432500000043,
            "durationTicks": 96,
            "midi": 52,
            "name": "E3",
            "ticks": 50688,
            "time": 70.088436,
            "velocity": 0.4881889763779528
          },
          {
            "duration": 0.1327432500000043,
            "durationTicks": 96,
            "midi": 92,
            "name": "G#6",
            "ticks": 50688,
            "time": 70.088436,
            "velocity": 0.6850393700787402
          },
          {
            "duration": 0.1327432500000043,
            "durationTicks": 96,
            "midi": 61,
            "name": "C#4",
            "ticks": 50688,
            "time": 70.088436,
            "velocity": 0.5433070866141733
          },
          {
            "duration": 0.1327432500000043,
            "durationTicks": 96,
            "midi": 33,
            "name": "A1",
            "ticks": 50688,
            "time": 70.088436,
            "velocity": 0.7874015748031497
          },
          {
            "duration": 0.1327432500000043,
            "durationTicks": 96,
            "midi": 52,
            "name": "E3",
            "ticks": 50736,
            "time": 70.154807625,
            "velocity": 0.4881889763779528
          },
          {
            "duration": 0.1327432500000043,
            "durationTicks": 96,
            "midi": 61,
            "name": "C#4",
            "ticks": 50736,
            "time": 70.154807625,
            "velocity": 0.5433070866141733
          },
          {
            "duration": 0.1327432500000043,
            "durationTicks": 96,
            "midi": 37,
            "name": "C#2",
            "ticks": 50784,
            "time": 70.22117925,
            "velocity": 0.7874015748031497
          },
          {
            "duration": 0.1327432500000043,
            "durationTicks": 96,
            "midi": 64,
            "name": "E4",
            "ticks": 50784,
            "time": 70.22117925,
            "velocity": 0.5433070866141733
          },
          {
            "duration": 0.1327432500000043,
            "durationTicks": 96,
            "midi": 56,
            "name": "G#3",
            "ticks": 50784,
            "time": 70.22117925,
            "velocity": 0.4881889763779528
          },
          {
            "duration": 0.1327432499999901,
            "durationTicks": 96,
            "midi": 56,
            "name": "G#3",
            "ticks": 50832,
            "time": 70.28755087500001,
            "velocity": 0.4881889763779528
          },
          {
            "duration": 0.1327432499999901,
            "durationTicks": 96,
            "midi": 64,
            "name": "E4",
            "ticks": 50832,
            "time": 70.28755087500001,
            "velocity": 0.5433070866141733
          },
          {
            "duration": 0.1327432499999901,
            "durationTicks": 96,
            "midi": 54,
            "name": "F#3",
            "ticks": 50880,
            "time": 70.35392250000001,
            "velocity": 0.4881889763779528
          },
          {
            "duration": 0.1327432499999901,
            "durationTicks": 96,
            "midi": 40,
            "name": "E2",
            "ticks": 50880,
            "time": 70.35392250000001,
            "velocity": 0.7874015748031497
          },
          {
            "duration": 0.1327432499999901,
            "durationTicks": 96,
            "midi": 85,
            "name": "C#6",
            "ticks": 50880,
            "time": 70.35392250000001,
            "velocity": 0.6850393700787402
          },
          {
            "duration": 0.1327432499999901,
            "durationTicks": 96,
            "midi": 63,
            "name": "D#4",
            "ticks": 50880,
            "time": 70.35392250000001,
            "velocity": 0.5433070866141733
          },
          {
            "duration": 0.1327432500000043,
            "durationTicks": 96,
            "midi": 54,
            "name": "F#3",
            "ticks": 50928,
            "time": 70.420294125,
            "velocity": 0.4881889763779528
          },
          {
            "duration": 0.1327432500000043,
            "durationTicks": 96,
            "midi": 63,
            "name": "D#4",
            "ticks": 50928,
            "time": 70.420294125,
            "velocity": 0.5433070866141733
          },
          {
            "duration": 0.1327432500000043,
            "durationTicks": 96,
            "midi": 64,
            "name": "E4",
            "ticks": 50976,
            "time": 70.48666575,
            "velocity": 0.5433070866141733
          },
          {
            "duration": 0.1327432500000043,
            "durationTicks": 96,
            "midi": 56,
            "name": "G#3",
            "ticks": 50976,
            "time": 70.48666575,
            "velocity": 0.4881889763779528
          },
          {
            "duration": 0.2654865000000086,
            "durationTicks": 192,
            "midi": 45,
            "name": "A2",
            "ticks": 50976,
            "time": 70.48666575,
            "velocity": 0.7874015748031497
          },
          {
            "duration": 0.1327432500000043,
            "durationTicks": 96,
            "midi": 64,
            "name": "E4",
            "ticks": 51024,
            "time": 70.553037375,
            "velocity": 0.5433070866141733
          },
          {
            "duration": 0.1327432500000043,
            "durationTicks": 96,
            "midi": 56,
            "name": "G#3",
            "ticks": 51024,
            "time": 70.553037375,
            "velocity": 0.4881889763779528
          },
          {
            "duration": 0.1327432500000043,
            "durationTicks": 96,
            "midi": 61,
            "name": "C#4",
            "ticks": 51072,
            "time": 70.619409,
            "velocity": 0.5433070866141733
          },
          {
            "duration": 0.1327432500000043,
            "durationTicks": 96,
            "midi": 52,
            "name": "E3",
            "ticks": 51072,
            "time": 70.619409,
            "velocity": 0.4881889763779528
          },
          {
            "duration": 0.1327432499999901,
            "durationTicks": 96,
            "midi": 61,
            "name": "C#4",
            "ticks": 51120,
            "time": 70.685780625,
            "velocity": 0.5433070866141733
          },
          {
            "duration": 0.1327432499999901,
            "durationTicks": 96,
            "midi": 52,
            "name": "E3",
            "ticks": 51120,
            "time": 70.685780625,
            "velocity": 0.4881889763779528
          },
          {
            "duration": 0.1327432499999901,
            "durationTicks": 96,
            "midi": 88,
            "name": "E6",
            "ticks": 51168,
            "time": 70.75215225000001,
            "velocity": 0.6850393700787402
          },
          {
            "duration": 0.1327432499999901,
            "durationTicks": 96,
            "midi": 52,
            "name": "E3",
            "ticks": 51168,
            "time": 70.75215225000001,
            "velocity": 0.4881889763779528
          },
          {
            "duration": 0.1327432499999901,
            "durationTicks": 96,
            "midi": 44,
            "name": "G#2",
            "ticks": 51168,
            "time": 70.75215225000001,
            "velocity": 0.7874015748031497
          },
          {
            "duration": 0.1327432499999901,
            "durationTicks": 96,
            "midi": 61,
            "name": "C#4",
            "ticks": 51168,
            "time": 70.75215225000001,
            "velocity": 0.5433070866141733
          },
          {
            "duration": 0.1327432500000043,
            "durationTicks": 96,
            "midi": 61,
            "name": "C#4",
            "ticks": 51216,
            "time": 70.818523875,
            "velocity": 0.5433070866141733
          },
          {
            "duration": 0.1327432500000043,
            "durationTicks": 96,
            "midi": 52,
            "name": "E3",
            "ticks": 51216,
            "time": 70.818523875,
            "velocity": 0.4881889763779528
          },
          {
            "duration": 0.1327432500000043,
            "durationTicks": 96,
            "midi": 40,
            "name": "E2",
            "ticks": 51264,
            "time": 70.8848955,
            "velocity": 0.7874015748031497
          },
          {
            "duration": 0.1327432500000043,
            "durationTicks": 96,
            "midi": 92,
            "name": "G#6",
            "ticks": 51360,
            "time": 71.01763875,
            "velocity": 0.6850393700787402
          },
          {
            "duration": 0.2654864999999944,
            "durationTicks": 192,
            "midi": 52,
            "name": "E3",
            "ticks": 51360,
            "time": 71.01763875,
            "velocity": 0.4881889763779528
          },
          {
            "duration": 0.2654864999999944,
            "durationTicks": 192,
            "midi": 61,
            "name": "C#4",
            "ticks": 51360,
            "time": 71.01763875,
            "velocity": 0.5433070866141733
          },
          {
            "duration": 0.1327432500000043,
            "durationTicks": 96,
            "midi": 37,
            "name": "C#2",
            "ticks": 51360,
            "time": 71.01763875,
            "velocity": 0.7874015748031497
          },
          {
            "duration": 0.1327432499999901,
            "durationTicks": 96,
            "midi": 33,
            "name": "A1",
            "ticks": 51456,
            "time": 71.15038200000001,
            "velocity": 0.7874015748031497
          },
          {
            "duration": 0.1327432500000043,
            "durationTicks": 96,
            "midi": 85,
            "name": "C#6",
            "ticks": 51552,
            "time": 71.28312525,
            "velocity": 0.6850393700787402
          },
          {
            "duration": 0.1327432500000043,
            "durationTicks": 96,
            "midi": 54,
            "name": "F#3",
            "ticks": 51552,
            "time": 71.28312525,
            "velocity": 0.4881889763779528
          },
          {
            "duration": 0.1327432500000043,
            "durationTicks": 96,
            "midi": 63,
            "name": "D#4",
            "ticks": 51552,
            "time": 71.28312525,
            "velocity": 0.5433070866141733
          },
          {
            "duration": 0.1327432500000043,
            "durationTicks": 96,
            "midi": 54,
            "name": "F#3",
            "ticks": 51600,
            "time": 71.349496875,
            "velocity": 0.4881889763779528
          },
          {
            "duration": 0.1327432500000043,
            "durationTicks": 96,
            "midi": 63,
            "name": "D#4",
            "ticks": 51600,
            "time": 71.349496875,
            "velocity": 0.5433070866141733
          },
          {
            "duration": 0.1327432500000043,
            "durationTicks": 96,
            "midi": 56,
            "name": "G#3",
            "ticks": 51648,
            "time": 71.4158685,
            "velocity": 0.4881889763779528
          },
          {
            "duration": 0.1327432500000043,
            "durationTicks": 96,
            "midi": 64,
            "name": "E4",
            "ticks": 51648,
            "time": 71.4158685,
            "velocity": 0.5433070866141733
          },
          {
            "duration": 0.1327432500000043,
            "durationTicks": 96,
            "midi": 33,
            "name": "A1",
            "ticks": 51648,
            "time": 71.4158685,
            "velocity": 0.7874015748031497
          },
          {
            "duration": 0.1327432500000043,
            "durationTicks": 96,
            "midi": 56,
            "name": "G#3",
            "ticks": 51696,
            "time": 71.482240125,
            "velocity": 0.4881889763779528
          },
          {
            "duration": 0.1327432500000043,
            "durationTicks": 96,
            "midi": 64,
            "name": "E4",
            "ticks": 51696,
            "time": 71.482240125,
            "velocity": 0.5433070866141733
          },
          {
            "duration": 0.1327432500000043,
            "durationTicks": 96,
            "midi": 71,
            "name": "B4",
            "ticks": 51744,
            "time": 71.54861175,
            "velocity": 0.5433070866141733
          },
          {
            "duration": 0.1327432500000043,
            "durationTicks": 96,
            "midi": 33,
            "name": "A1",
            "ticks": 51744,
            "time": 71.54861175,
            "velocity": 0.7874015748031497
          },
          {
            "duration": 0.1327432500000043,
            "durationTicks": 96,
            "midi": 64,
            "name": "E4",
            "ticks": 51744,
            "time": 71.54861175,
            "velocity": 0.4881889763779528
          },
          {
            "duration": 0.1327432499999901,
            "durationTicks": 96,
            "midi": 71,
            "name": "B4",
            "ticks": 51792,
            "time": 71.61498337500001,
            "velocity": 0.5433070866141733
          },
          {
            "duration": 0.1327432499999901,
            "durationTicks": 96,
            "midi": 64,
            "name": "E4",
            "ticks": 51792,
            "time": 71.61498337500001,
            "velocity": 0.4881889763779528
          },
          {
            "duration": 0.1327432499999901,
            "durationTicks": 96,
            "midi": 61,
            "name": "C#4",
            "ticks": 51840,
            "time": 71.68135500000001,
            "velocity": 0.4881889763779528
          },
          {
            "duration": 0.1327432499999901,
            "durationTicks": 96,
            "midi": 68,
            "name": "G#4",
            "ticks": 51840,
            "time": 71.68135500000001,
            "velocity": 0.5433070866141733
          },
          {
            "duration": 0.1327432500000043,
            "durationTicks": 96,
            "midi": 61,
            "name": "C#4",
            "ticks": 51888,
            "time": 71.747726625,
            "velocity": 0.4881889763779528
          },
          {
            "duration": 0.1327432500000043,
            "durationTicks": 96,
            "midi": 68,
            "name": "G#4",
            "ticks": 51888,
            "time": 71.747726625,
            "velocity": 0.5433070866141733
          },
          {
            "duration": 0.1327432500000043,
            "durationTicks": 96,
            "midi": 68,
            "name": "G#4",
            "ticks": 51936,
            "time": 71.81409825,
            "velocity": 0.5433070866141733
          },
          {
            "duration": 0.1327432500000043,
            "durationTicks": 96,
            "midi": 61,
            "name": "C#4",
            "ticks": 51936,
            "time": 71.81409825,
            "velocity": 0.4881889763779528
          },
          {
            "duration": 0.1327432500000043,
            "durationTicks": 96,
            "midi": 88,
            "name": "E6",
            "ticks": 51936,
            "time": 71.81409825,
            "velocity": 0.6850393700787402
          },
          {
            "duration": 0.1327432500000043,
            "durationTicks": 96,
            "midi": 68,
            "name": "G#4",
            "ticks": 51984,
            "time": 71.880469875,
            "velocity": 0.5433070866141733
          },
          {
            "duration": 0.1327432500000043,
            "durationTicks": 96,
            "midi": 61,
            "name": "C#4",
            "ticks": 51984,
            "time": 71.880469875,
            "velocity": 0.4881889763779528
          },
          {
            "duration": 0.2654864999999944,
            "durationTicks": 192,
            "midi": 35,
            "name": "B1",
            "ticks": 52032,
            "time": 71.9468415,
            "velocity": 0.7874015748031497
          },
          {
            "duration": 0.1327432500000043,
            "durationTicks": 96,
            "midi": 61,
            "name": "C#4",
            "ticks": 52224,
            "time": 72.212328,
            "velocity": 0.5433070866141733
          },
          {
            "duration": 0.1327432500000043,
            "durationTicks": 96,
            "midi": 33,
            "name": "A1",
            "ticks": 52224,
            "time": 72.212328,
            "velocity": 0.7874015748031497
          },
          {
            "duration": 0.1327432500000043,
            "durationTicks": 96,
            "midi": 52,
            "name": "E3",
            "ticks": 52224,
            "time": 72.212328,
            "velocity": 0.4881889763779528
          },
          {
            "duration": 0.1327432500000043,
            "durationTicks": 96,
            "midi": 92,
            "name": "G#6",
            "ticks": 52224,
            "time": 72.212328,
            "velocity": 0.6850393700787402
          },
          {
            "duration": 0.1327432500000043,
            "durationTicks": 96,
            "midi": 52,
            "name": "E3",
            "ticks": 52272,
            "time": 72.278699625,
            "velocity": 0.4881889763779528
          },
          {
            "duration": 0.1327432500000043,
            "durationTicks": 96,
            "midi": 61,
            "name": "C#4",
            "ticks": 52272,
            "time": 72.278699625,
            "velocity": 0.5433070866141733
          },
          {
            "duration": 0.1327432500000043,
            "durationTicks": 96,
            "midi": 37,
            "name": "C#2",
            "ticks": 52320,
            "time": 72.34507125,
            "velocity": 0.7874015748031497
          },
          {
            "duration": 0.1327432500000043,
            "durationTicks": 96,
            "midi": 64,
            "name": "E4",
            "ticks": 52320,
            "time": 72.34507125,
            "velocity": 0.5433070866141733
          },
          {
            "duration": 0.1327432500000043,
            "durationTicks": 96,
            "midi": 56,
            "name": "G#3",
            "ticks": 52320,
            "time": 72.34507125,
            "velocity": 0.4881889763779528
          },
          {
            "duration": 0.1327432500000043,
            "durationTicks": 96,
            "midi": 64,
            "name": "E4",
            "ticks": 52368,
            "time": 72.411442875,
            "velocity": 0.5433070866141733
          },
          {
            "duration": 0.1327432500000043,
            "durationTicks": 96,
            "midi": 56,
            "name": "G#3",
            "ticks": 52368,
            "time": 72.411442875,
            "velocity": 0.4881889763779528
          },
          {
            "duration": 0.1327432499999901,
            "durationTicks": 96,
            "midi": 40,
            "name": "E2",
            "ticks": 52416,
            "time": 72.47781450000001,
            "velocity": 0.7874015748031497
          },
          {
            "duration": 0.1327432499999901,
            "durationTicks": 96,
            "midi": 85,
            "name": "C#6",
            "ticks": 52416,
            "time": 72.47781450000001,
            "velocity": 0.6850393700787402
          },
          {
            "duration": 0.1327432499999901,
            "durationTicks": 96,
            "midi": 63,
            "name": "D#4",
            "ticks": 52416,
            "time": 72.47781450000001,
            "velocity": 0.5433070866141733
          },
          {
            "duration": 0.1327432499999901,
            "durationTicks": 96,
            "midi": 54,
            "name": "F#3",
            "ticks": 52416,
            "time": 72.47781450000001,
            "velocity": 0.4881889763779528
          },
          {
            "duration": 0.1327432499999901,
            "durationTicks": 96,
            "midi": 54,
            "name": "F#3",
            "ticks": 52464,
            "time": 72.54418612500001,
            "velocity": 0.4881889763779528
          },
          {
            "duration": 0.1327432499999901,
            "durationTicks": 96,
            "midi": 63,
            "name": "D#4",
            "ticks": 52464,
            "time": 72.54418612500001,
            "velocity": 0.5433070866141733
          },
          {
            "duration": 0.1327432500000043,
            "durationTicks": 96,
            "midi": 56,
            "name": "G#3",
            "ticks": 52512,
            "time": 72.61055775,
            "velocity": 0.4881889763779528
          },
          {
            "duration": 0.1327432500000043,
            "durationTicks": 96,
            "midi": 64,
            "name": "E4",
            "ticks": 52512,
            "time": 72.61055775,
            "velocity": 0.5433070866141733
          },
          {
            "duration": 0.2654865000000086,
            "durationTicks": 192,
            "midi": 45,
            "name": "A2",
            "ticks": 52512,
            "time": 72.61055775,
            "velocity": 0.7874015748031497
          },
          {
            "duration": 0.1327432500000043,
            "durationTicks": 96,
            "midi": 64,
            "name": "E4",
            "ticks": 52560,
            "time": 72.676929375,
            "velocity": 0.5433070866141733
          },
          {
            "duration": 0.1327432500000043,
            "durationTicks": 96,
            "midi": 56,
            "name": "G#3",
            "ticks": 52560,
            "time": 72.676929375,
            "velocity": 0.4881889763779528
          },
          {
            "duration": 0.1327432500000043,
            "durationTicks": 96,
            "midi": 52,
            "name": "E3",
            "ticks": 52608,
            "time": 72.743301,
            "velocity": 0.4881889763779528
          },
          {
            "duration": 0.1327432500000043,
            "durationTicks": 96,
            "midi": 61,
            "name": "C#4",
            "ticks": 52608,
            "time": 72.743301,
            "velocity": 0.5433070866141733
          },
          {
            "duration": 0.1327432500000043,
            "durationTicks": 96,
            "midi": 61,
            "name": "C#4",
            "ticks": 52656,
            "time": 72.809672625,
            "velocity": 0.5433070866141733
          },
          {
            "duration": 0.1327432500000043,
            "durationTicks": 96,
            "midi": 52,
            "name": "E3",
            "ticks": 52656,
            "time": 72.809672625,
            "velocity": 0.4881889763779528
          },
          {
            "duration": 0.1327432499999901,
            "durationTicks": 96,
            "midi": 88,
            "name": "E6",
            "ticks": 52704,
            "time": 72.87604425,
            "velocity": 0.6850393700787402
          },
          {
            "duration": 0.1327432499999901,
            "durationTicks": 96,
            "midi": 52,
            "name": "E3",
            "ticks": 52704,
            "time": 72.87604425,
            "velocity": 0.4881889763779528
          },
          {
            "duration": 0.1327432499999901,
            "durationTicks": 96,
            "midi": 44,
            "name": "G#2",
            "ticks": 52704,
            "time": 72.87604425,
            "velocity": 0.7874015748031497
          },
          {
            "duration": 0.1327432499999901,
            "durationTicks": 96,
            "midi": 61,
            "name": "C#4",
            "ticks": 52704,
            "time": 72.87604425,
            "velocity": 0.5433070866141733
          },
          {
            "duration": 0.1327432499999901,
            "durationTicks": 96,
            "midi": 61,
            "name": "C#4",
            "ticks": 52752,
            "time": 72.94241587500001,
            "velocity": 0.5433070866141733
          },
          {
            "duration": 0.1327432499999901,
            "durationTicks": 96,
            "midi": 52,
            "name": "E3",
            "ticks": 52752,
            "time": 72.94241587500001,
            "velocity": 0.4881889763779528
          },
          {
            "duration": 0.1327432500000043,
            "durationTicks": 96,
            "midi": 92,
            "name": "G#6",
            "ticks": 52800,
            "time": 73.0087875,
            "velocity": 0.6850393700787402
          },
          {
            "duration": 0.1327432500000043,
            "durationTicks": 96,
            "midi": 40,
            "name": "E2",
            "ticks": 52800,
            "time": 73.0087875,
            "velocity": 0.7874015748031497
          },
          {
            "duration": 0.2654865000000086,
            "durationTicks": 192,
            "midi": 61,
            "name": "C#4",
            "ticks": 52896,
            "time": 73.14153075,
            "velocity": 0.5433070866141733
          },
          {
            "duration": 0.2654865000000086,
            "durationTicks": 192,
            "midi": 52,
            "name": "E3",
            "ticks": 52896,
            "time": 73.14153075,
            "velocity": 0.4881889763779528
          },
          {
            "duration": 0.1327432500000043,
            "durationTicks": 96,
            "midi": 37,
            "name": "C#2",
            "ticks": 52896,
            "time": 73.14153075,
            "velocity": 0.7874015748031497
          },
          {
            "duration": 0.1327432500000043,
            "durationTicks": 96,
            "midi": 95,
            "name": "B6",
            "ticks": 52992,
            "time": 73.274274,
            "velocity": 0.6850393700787402
          },
          {
            "duration": 0.1327432500000043,
            "durationTicks": 96,
            "midi": 33,
            "name": "A1",
            "ticks": 52992,
            "time": 73.274274,
            "velocity": 0.7874015748031497
          },
          {
            "duration": 0.1327432499999901,
            "durationTicks": 96,
            "midi": 63,
            "name": "D#4",
            "ticks": 53088,
            "time": 73.40701725000001,
            "velocity": 0.5433070866141733
          },
          {
            "duration": 0.1327432499999901,
            "durationTicks": 96,
            "midi": 54,
            "name": "F#3",
            "ticks": 53088,
            "time": 73.40701725000001,
            "velocity": 0.4881889763779528
          },
          {
            "duration": 0.1327432500000043,
            "durationTicks": 96,
            "midi": 63,
            "name": "D#4",
            "ticks": 53136,
            "time": 73.473388875,
            "velocity": 0.5433070866141733
          },
          {
            "duration": 0.1327432500000043,
            "durationTicks": 96,
            "midi": 54,
            "name": "F#3",
            "ticks": 53136,
            "time": 73.473388875,
            "velocity": 0.4881889763779528
          },
          {
            "duration": 0.1327432500000043,
            "durationTicks": 96,
            "midi": 64,
            "name": "E4",
            "ticks": 53184,
            "time": 73.5397605,
            "velocity": 0.5433070866141733
          },
          {
            "duration": 0.1327432500000043,
            "durationTicks": 96,
            "midi": 33,
            "name": "A1",
            "ticks": 53184,
            "time": 73.5397605,
            "velocity": 0.7874015748031497
          },
          {
            "duration": 0.1327432500000043,
            "durationTicks": 96,
            "midi": 90,
            "name": "F#6",
            "ticks": 53184,
            "time": 73.5397605,
            "velocity": 0.6850393700787402
          },
          {
            "duration": 0.1327432500000043,
            "durationTicks": 96,
            "midi": 56,
            "name": "G#3",
            "ticks": 53184,
            "time": 73.5397605,
            "velocity": 0.4881889763779528
          },
          {
            "duration": 0.1327432500000043,
            "durationTicks": 96,
            "midi": 64,
            "name": "E4",
            "ticks": 53232,
            "time": 73.606132125,
            "velocity": 0.5433070866141733
          },
          {
            "duration": 0.1327432500000043,
            "durationTicks": 96,
            "midi": 56,
            "name": "G#3",
            "ticks": 53232,
            "time": 73.606132125,
            "velocity": 0.4881889763779528
          },
          {
            "duration": 0.1327432500000043,
            "durationTicks": 96,
            "midi": 64,
            "name": "E4",
            "ticks": 53280,
            "time": 73.67250375,
            "velocity": 0.4881889763779528
          },
          {
            "duration": 0.1327432500000043,
            "durationTicks": 96,
            "midi": 33,
            "name": "A1",
            "ticks": 53280,
            "time": 73.67250375,
            "velocity": 0.7874015748031497
          },
          {
            "duration": 0.1327432500000043,
            "durationTicks": 96,
            "midi": 71,
            "name": "B4",
            "ticks": 53280,
            "time": 73.67250375,
            "velocity": 0.5433070866141733
          },
          {
            "duration": 0.1327432500000043,
            "durationTicks": 96,
            "midi": 92,
            "name": "G#6",
            "ticks": 53280,
            "time": 73.67250375,
            "velocity": 0.6850393700787402
          },
          {
            "duration": 0.1327432500000043,
            "durationTicks": 96,
            "midi": 64,
            "name": "E4",
            "ticks": 53328,
            "time": 73.738875375,
            "velocity": 0.4881889763779528
          },
          {
            "duration": 0.1327432500000043,
            "durationTicks": 96,
            "midi": 71,
            "name": "B4",
            "ticks": 53328,
            "time": 73.738875375,
            "velocity": 0.5433070866141733
          },
          {
            "duration": 0.1327432499999901,
            "durationTicks": 96,
            "midi": 61,
            "name": "C#4",
            "ticks": 53376,
            "time": 73.80524700000001,
            "velocity": 0.4881889763779528
          },
          {
            "duration": 0.1327432499999901,
            "durationTicks": 96,
            "midi": 68,
            "name": "G#4",
            "ticks": 53376,
            "time": 73.80524700000001,
            "velocity": 0.5433070866141733
          },
          {
            "duration": 0.1327432499999901,
            "durationTicks": 96,
            "midi": 68,
            "name": "G#4",
            "ticks": 53424,
            "time": 73.87161862500001,
            "velocity": 0.5433070866141733
          },
          {
            "duration": 0.1327432499999901,
            "durationTicks": 96,
            "midi": 61,
            "name": "C#4",
            "ticks": 53424,
            "time": 73.87161862500001,
            "velocity": 0.4881889763779528
          },
          {
            "duration": 0.1327432500000043,
            "durationTicks": 96,
            "midi": 61,
            "name": "C#4",
            "ticks": 53472,
            "time": 73.93799025,
            "velocity": 0.4881889763779528
          },
          {
            "duration": 0.1327432500000043,
            "durationTicks": 96,
            "midi": 85,
            "name": "C#6",
            "ticks": 53472,
            "time": 73.93799025,
            "velocity": 0.6850393700787402
          },
          {
            "duration": 0.1327432500000043,
            "durationTicks": 96,
            "midi": 68,
            "name": "G#4",
            "ticks": 53472,
            "time": 73.93799025,
            "velocity": 0.5433070866141733
          },
          {
            "duration": 0.1327432500000043,
            "durationTicks": 96,
            "midi": 61,
            "name": "C#4",
            "ticks": 53520,
            "time": 74.004361875,
            "velocity": 0.4881889763779528
          },
          {
            "duration": 0.1327432500000043,
            "durationTicks": 96,
            "midi": 68,
            "name": "G#4",
            "ticks": 53520,
            "time": 74.004361875,
            "velocity": 0.5433070866141733
          },
          {
            "duration": 0.2654864999999944,
            "durationTicks": 192,
            "midi": 35,
            "name": "B1",
            "ticks": 53568,
            "time": 74.0707335,
            "velocity": 0.7874015748031497
          },
          {
            "duration": 0.1327432500000043,
            "durationTicks": 96,
            "midi": 88,
            "name": "E6",
            "ticks": 53568,
            "time": 74.0707335,
            "velocity": 0.6850393700787402
          },
          {
            "duration": 0.1327432500000043,
            "durationTicks": 96,
            "midi": 37,
            "name": "C#2",
            "ticks": 53760,
            "time": 74.33622,
            "velocity": 0.7874015748031497
          },
          {
            "duration": 0.1327432500000043,
            "durationTicks": 96,
            "midi": 52,
            "name": "E3",
            "ticks": 53760,
            "time": 74.33622,
            "velocity": 0.4881889763779528
          },
          {
            "duration": 0.1327432500000043,
            "durationTicks": 96,
            "midi": 61,
            "name": "C#4",
            "ticks": 53760,
            "time": 74.33622,
            "velocity": 0.5433070866141733
          },
          {
            "duration": 0.1327432500000043,
            "durationTicks": 96,
            "midi": 52,
            "name": "E3",
            "ticks": 53808,
            "time": 74.402591625,
            "velocity": 0.4881889763779528
          },
          {
            "duration": 0.1327432500000043,
            "durationTicks": 96,
            "midi": 61,
            "name": "C#4",
            "ticks": 53808,
            "time": 74.402591625,
            "velocity": 0.5433070866141733
          },
          {
            "duration": 0.1327432500000043,
            "durationTicks": 96,
            "midi": 40,
            "name": "E2",
            "ticks": 53856,
            "time": 74.46896325,
            "velocity": 0.7874015748031497
          },
          {
            "duration": 0.1327432500000043,
            "durationTicks": 96,
            "midi": 64,
            "name": "E4",
            "ticks": 53856,
            "time": 74.46896325,
            "velocity": 0.5433070866141733
          },
          {
            "duration": 0.1327432500000043,
            "durationTicks": 96,
            "midi": 56,
            "name": "G#3",
            "ticks": 53856,
            "time": 74.46896325,
            "velocity": 0.4881889763779528
          },
          {
            "duration": 0.1327432500000043,
            "durationTicks": 96,
            "midi": 56,
            "name": "G#3",
            "ticks": 53904,
            "time": 74.535334875,
            "velocity": 0.4881889763779528
          },
          {
            "duration": 0.1327432500000043,
            "durationTicks": 96,
            "midi": 64,
            "name": "E4",
            "ticks": 53904,
            "time": 74.535334875,
            "velocity": 0.5433070866141733
          },
          {
            "duration": 0.1327432500000043,
            "durationTicks": 96,
            "midi": 63,
            "name": "D#4",
            "ticks": 53952,
            "time": 74.6017065,
            "velocity": 0.5433070866141733
          },
          {
            "duration": 0.1327432500000043,
            "durationTicks": 96,
            "midi": 54,
            "name": "F#3",
            "ticks": 53952,
            "time": 74.6017065,
            "velocity": 0.4881889763779528
          },
          {
            "duration": 0.1327432500000043,
            "durationTicks": 96,
            "midi": 44,
            "name": "G#2",
            "ticks": 53952,
            "time": 74.6017065,
            "velocity": 0.7874015748031497
          },
          {
            "duration": 0.1327432499999901,
            "durationTicks": 96,
            "midi": 54,
            "name": "F#3",
            "ticks": 54000,
            "time": 74.66807812500001,
            "velocity": 0.4881889763779528
          },
          {
            "duration": 0.1327432499999901,
            "durationTicks": 96,
            "midi": 63,
            "name": "D#4",
            "ticks": 54000,
            "time": 74.66807812500001,
            "velocity": 0.5433070866141733
          },
          {
            "duration": 0.2654864999999944,
            "durationTicks": 192,
            "midi": 49,
            "name": "C#3",
            "ticks": 54048,
            "time": 74.73444975000001,
            "velocity": 0.7874015748031497
          },
          {
            "duration": 0.1327432499999901,
            "durationTicks": 96,
            "midi": 64,
            "name": "E4",
            "ticks": 54048,
            "time": 74.73444975000001,
            "velocity": 0.5433070866141733
          },
          {
            "duration": 0.1327432499999901,
            "durationTicks": 96,
            "midi": 56,
            "name": "G#3",
            "ticks": 54048,
            "time": 74.73444975000001,
            "velocity": 0.4881889763779528
          },
          {
            "duration": 0.1327432500000043,
            "durationTicks": 96,
            "midi": 64,
            "name": "E4",
            "ticks": 54096,
            "time": 74.800821375,
            "velocity": 0.5433070866141733
          },
          {
            "duration": 0.1327432500000043,
            "durationTicks": 96,
            "midi": 56,
            "name": "G#3",
            "ticks": 54096,
            "time": 74.800821375,
            "velocity": 0.4881889763779528
          },
          {
            "duration": 0.1327432500000043,
            "durationTicks": 96,
            "midi": 61,
            "name": "C#4",
            "ticks": 54144,
            "time": 74.867193,
            "velocity": 0.5433070866141733
          },
          {
            "duration": 0.1327432500000043,
            "durationTicks": 96,
            "midi": 52,
            "name": "E3",
            "ticks": 54144,
            "time": 74.867193,
            "velocity": 0.4881889763779528
          },
          {
            "duration": 0.1327432500000043,
            "durationTicks": 96,
            "midi": 52,
            "name": "E3",
            "ticks": 54192,
            "time": 74.933564625,
            "velocity": 0.4881889763779528
          },
          {
            "duration": 0.1327432500000043,
            "durationTicks": 96,
            "midi": 61,
            "name": "C#4",
            "ticks": 54192,
            "time": 74.933564625,
            "velocity": 0.5433070866141733
          },
          {
            "duration": 0.1327432500000043,
            "durationTicks": 96,
            "midi": 52,
            "name": "E3",
            "ticks": 54240,
            "time": 74.99993625,
            "velocity": 0.4881889763779528
          },
          {
            "duration": 0.1327432500000043,
            "durationTicks": 96,
            "midi": 47,
            "name": "B2",
            "ticks": 54240,
            "time": 74.99993625,
            "velocity": 0.7874015748031497
          },
          {
            "duration": 0.1327432500000043,
            "durationTicks": 96,
            "midi": 61,
            "name": "C#4",
            "ticks": 54240,
            "time": 74.99993625,
            "velocity": 0.5433070866141733
          },
          {
            "duration": 0.1327432500000043,
            "durationTicks": 96,
            "midi": 52,
            "name": "E3",
            "ticks": 54288,
            "time": 75.066307875,
            "velocity": 0.4881889763779528
          },
          {
            "duration": 0.1327432500000043,
            "durationTicks": 96,
            "midi": 61,
            "name": "C#4",
            "ticks": 54288,
            "time": 75.066307875,
            "velocity": 0.5433070866141733
          },
          {
            "duration": 0.1327432499999901,
            "durationTicks": 96,
            "midi": 44,
            "name": "G#2",
            "ticks": 54336,
            "time": 75.13267950000001,
            "velocity": 0.7874015748031497
          },
          {
            "duration": 0.2654865000000086,
            "durationTicks": 192,
            "midi": 52,
            "name": "E3",
            "ticks": 54432,
            "time": 75.26542275,
            "velocity": 0.4881889763779528
          },
          {
            "duration": 0.1327432500000043,
            "durationTicks": 96,
            "midi": 40,
            "name": "E2",
            "ticks": 54432,
            "time": 75.26542275,
            "velocity": 0.7874015748031497
          },
          {
            "duration": 0.2654865000000086,
            "durationTicks": 192,
            "midi": 61,
            "name": "C#4",
            "ticks": 54432,
            "time": 75.26542275,
            "velocity": 0.5433070866141733
          },
          {
            "duration": 0.1327432500000043,
            "durationTicks": 96,
            "midi": 37,
            "name": "C#2",
            "ticks": 54528,
            "time": 75.398166,
            "velocity": 0.7874015748031497
          },
          {
            "duration": 0.1327432499999901,
            "durationTicks": 96,
            "midi": 63,
            "name": "D#4",
            "ticks": 54624,
            "time": 75.53090925000001,
            "velocity": 0.5433070866141733
          },
          {
            "duration": 0.1327432499999901,
            "durationTicks": 96,
            "midi": 54,
            "name": "F#3",
            "ticks": 54624,
            "time": 75.53090925000001,
            "velocity": 0.4881889763779528
          },
          {
            "duration": 0.1327432499999901,
            "durationTicks": 96,
            "midi": 63,
            "name": "D#4",
            "ticks": 54672,
            "time": 75.59728087500001,
            "velocity": 0.5433070866141733
          },
          {
            "duration": 0.1327432499999901,
            "durationTicks": 96,
            "midi": 54,
            "name": "F#3",
            "ticks": 54672,
            "time": 75.59728087500001,
            "velocity": 0.4881889763779528
          },
          {
            "duration": 0.1327432500000043,
            "durationTicks": 96,
            "midi": 37,
            "name": "C#2",
            "ticks": 54720,
            "time": 75.6636525,
            "velocity": 0.7874015748031497
          },
          {
            "duration": 0.1327432500000043,
            "durationTicks": 96,
            "midi": 64,
            "name": "E4",
            "ticks": 54720,
            "time": 75.6636525,
            "velocity": 0.5433070866141733
          },
          {
            "duration": 0.1327432500000043,
            "durationTicks": 96,
            "midi": 56,
            "name": "G#3",
            "ticks": 54720,
            "time": 75.6636525,
            "velocity": 0.4881889763779528
          },
          {
            "duration": 0.1327432500000043,
            "durationTicks": 96,
            "midi": 64,
            "name": "E4",
            "ticks": 54768,
            "time": 75.730024125,
            "velocity": 0.5433070866141733
          },
          {
            "duration": 0.1327432500000043,
            "durationTicks": 96,
            "midi": 56,
            "name": "G#3",
            "ticks": 54768,
            "time": 75.730024125,
            "velocity": 0.4881889763779528
          },
          {
            "duration": 0.1327432500000043,
            "durationTicks": 96,
            "midi": 64,
            "name": "E4",
            "ticks": 54816,
            "time": 75.79639575,
            "velocity": 0.4881889763779528
          },
          {
            "duration": 0.1327432500000043,
            "durationTicks": 96,
            "midi": 71,
            "name": "B4",
            "ticks": 54816,
            "time": 75.79639575,
            "velocity": 0.5433070866141733
          },
          {
            "duration": 0.1327432500000043,
            "durationTicks": 96,
            "midi": 37,
            "name": "C#2",
            "ticks": 54816,
            "time": 75.79639575,
            "velocity": 0.7874015748031497
          },
          {
            "duration": 0.1327432500000043,
            "durationTicks": 96,
            "midi": 71,
            "name": "B4",
            "ticks": 54864,
            "time": 75.862767375,
            "velocity": 0.5433070866141733
          },
          {
            "duration": 0.1327432500000043,
            "durationTicks": 96,
            "midi": 64,
            "name": "E4",
            "ticks": 54864,
            "time": 75.862767375,
            "velocity": 0.4881889763779528
          },
          {
            "duration": 0.1327432500000043,
            "durationTicks": 96,
            "midi": 61,
            "name": "C#4",
            "ticks": 54912,
            "time": 75.929139,
            "velocity": 0.4881889763779528
          },
          {
            "duration": 0.1327432500000043,
            "durationTicks": 96,
            "midi": 68,
            "name": "G#4",
            "ticks": 54912,
            "time": 75.929139,
            "velocity": 0.5433070866141733
          },
          {
            "duration": 0.1327432499999901,
            "durationTicks": 96,
            "midi": 68,
            "name": "G#4",
            "ticks": 54960,
            "time": 75.99551062500001,
            "velocity": 0.5433070866141733
          },
          {
            "duration": 0.1327432499999901,
            "durationTicks": 96,
            "midi": 61,
            "name": "C#4",
            "ticks": 54960,
            "time": 75.99551062500001,
            "velocity": 0.4881889763779528
          },
          {
            "duration": 0.1327432499999901,
            "durationTicks": 96,
            "midi": 68,
            "name": "G#4",
            "ticks": 55008,
            "time": 76.06188225000001,
            "velocity": 0.5433070866141733
          },
          {
            "duration": 0.1327432499999901,
            "durationTicks": 96,
            "midi": 61,
            "name": "C#4",
            "ticks": 55008,
            "time": 76.06188225000001,
            "velocity": 0.4881889763779528
          },
          {
            "duration": 0.1327432500000043,
            "durationTicks": 96,
            "midi": 68,
            "name": "G#4",
            "ticks": 55056,
            "time": 76.128253875,
            "velocity": 0.5433070866141733
          },
          {
            "duration": 0.1327432500000043,
            "durationTicks": 96,
            "midi": 61,
            "name": "C#4",
            "ticks": 55056,
            "time": 76.128253875,
            "velocity": 0.4881889763779528
          },
          {
            "duration": 0.2654865000000086,
            "durationTicks": 192,
            "midi": 35,
            "name": "B1",
            "ticks": 55104,
            "time": 76.1946255,
            "velocity": 0.7874015748031497
          },
          {
            "duration": 0.3982297499999987,
            "durationTicks": 288,
            "midi": 59,
            "name": "B3",
            "ticks": 55296,
            "time": 76.46011200000001,
            "velocity": 0.5433070866141733
          },
          {
            "duration": 0.1327432499999901,
            "durationTicks": 96,
            "midi": 51,
            "name": "D#3",
            "ticks": 55296,
            "time": 76.46011200000001,
            "velocity": 0.4881889763779528
          },
          {
            "duration": 0.1327432499999901,
            "durationTicks": 96,
            "midi": 32,
            "name": "G#1",
            "ticks": 55296,
            "time": 76.46011200000001,
            "velocity": 0.7874015748031497
          },
          {
            "duration": 0.1327432500000043,
            "durationTicks": 96,
            "midi": 51,
            "name": "D#3",
            "ticks": 55344,
            "time": 76.526483625,
            "velocity": 0.4881889763779528
          },
          {
            "duration": 0.1327432500000043,
            "durationTicks": 96,
            "midi": 54,
            "name": "F#3",
            "ticks": 55392,
            "time": 76.59285525,
            "velocity": 0.4881889763779528
          },
          {
            "duration": 0.1327432500000043,
            "durationTicks": 96,
            "midi": 54,
            "name": "F#3",
            "ticks": 55440,
            "time": 76.659226875,
            "velocity": 0.4881889763779528
          },
          {
            "duration": 0.1327432500000043,
            "durationTicks": 96,
            "midi": 56,
            "name": "G#3",
            "ticks": 55488,
            "time": 76.7255985,
            "velocity": 0.4881889763779528
          },
          {
            "duration": 0.1327432500000043,
            "durationTicks": 96,
            "midi": 56,
            "name": "G#3",
            "ticks": 55536,
            "time": 76.791970125,
            "velocity": 0.4881889763779528
          },
          {
            "duration": 0.1327432499999901,
            "durationTicks": 96,
            "midi": 32,
            "name": "G#1",
            "ticks": 55584,
            "time": 76.85834175000001,
            "velocity": 0.7874015748031497
          },
          {
            "duration": 0.3982297499999987,
            "durationTicks": 288,
            "midi": 66,
            "name": "F#4",
            "ticks": 55584,
            "time": 76.85834175000001,
            "velocity": 0.5433070866141733
          },
          {
            "duration": 0.1327432499999901,
            "durationTicks": 96,
            "midi": 54,
            "name": "F#3",
            "ticks": 55584,
            "time": 76.85834175000001,
            "velocity": 0.4881889763779528
          },
          {
            "duration": 0.1327432499999901,
            "durationTicks": 96,
            "midi": 54,
            "name": "F#3",
            "ticks": 55632,
            "time": 76.92471337500001,
            "velocity": 0.4881889763779528
          },
          {
            "duration": 0.1327432500000043,
            "durationTicks": 96,
            "midi": 56,
            "name": "G#3",
            "ticks": 55776,
            "time": 77.12382825,
            "velocity": 0.4881889763779528
          },
          {
            "duration": 0.1327432500000043,
            "durationTicks": 96,
            "midi": 56,
            "name": "G#3",
            "ticks": 55824,
            "time": 77.190199875,
            "velocity": 0.4881889763779528
          },
          {
            "duration": 0.1327432500000043,
            "durationTicks": 96,
            "midi": 32,
            "name": "G#1",
            "ticks": 55872,
            "time": 77.2565715,
            "velocity": 0.7874015748031497
          },
          {
            "duration": 0.1327432500000043,
            "durationTicks": 96,
            "midi": 64,
            "name": "E4",
            "ticks": 55872,
            "time": 77.2565715,
            "velocity": 0.5433070866141733
          },
          {
            "duration": 0.1327432500000043,
            "durationTicks": 96,
            "midi": 59,
            "name": "B3",
            "ticks": 55872,
            "time": 77.2565715,
            "velocity": 0.4881889763779528
          },
          {
            "duration": 0.1327432499999901,
            "durationTicks": 96,
            "midi": 64,
            "name": "E4",
            "ticks": 55968,
            "time": 77.38931475000001,
            "velocity": 0.5433070866141733
          },
          {
            "duration": 0.1327432499999901,
            "durationTicks": 96,
            "midi": 59,
            "name": "B3",
            "ticks": 55968,
            "time": 77.38931475000001,
            "velocity": 0.4881889763779528
          },
          {
            "duration": 0.1327432500000043,
            "durationTicks": 96,
            "midi": 63,
            "name": "D#4",
            "ticks": 56016,
            "time": 77.455686375,
            "velocity": 0.5433070866141733
          },
          {
            "duration": 0.1327432500000043,
            "durationTicks": 96,
            "midi": 59,
            "name": "B3",
            "ticks": 56064,
            "time": 77.522058,
            "velocity": 0.4881889763779528
          },
          {
            "duration": 0.1327432500000043,
            "durationTicks": 96,
            "midi": 35,
            "name": "B1",
            "ticks": 56064,
            "time": 77.522058,
            "velocity": 0.7874015748031497
          },
          {
            "duration": 0.1327432500000043,
            "durationTicks": 96,
            "midi": 63,
            "name": "D#4",
            "ticks": 56064,
            "time": 77.522058,
            "velocity": 0.5433070866141733
          },
          {
            "duration": 0.1327432500000043,
            "durationTicks": 96,
            "midi": 61,
            "name": "C#4",
            "ticks": 56160,
            "time": 77.65480125,
            "velocity": 0.5433070866141733
          },
          {
            "duration": 0.1327432500000043,
            "durationTicks": 96,
            "midi": 56,
            "name": "G#3",
            "ticks": 56160,
            "time": 77.65480125,
            "velocity": 0.4881889763779528
          },
          {
            "duration": 0.1327432499999901,
            "durationTicks": 96,
            "midi": 56,
            "name": "G#3",
            "ticks": 56256,
            "time": 77.78754450000001,
            "velocity": 0.4881889763779528
          },
          {
            "duration": 0.1327432499999901,
            "durationTicks": 96,
            "midi": 61,
            "name": "C#4",
            "ticks": 56256,
            "time": 77.78754450000001,
            "velocity": 0.5433070866141733
          },
          {
            "duration": 0.1327432500000043,
            "durationTicks": 96,
            "midi": 39,
            "name": "D#2",
            "ticks": 56352,
            "time": 77.92028775,
            "velocity": 0.7874015748031497
          },
          {
            "duration": 0.2654865000000086,
            "durationTicks": 192,
            "midi": 59,
            "name": "B3",
            "ticks": 56352,
            "time": 77.92028775,
            "velocity": 0.5433070866141733
          },
          {
            "duration": 0.2654865000000086,
            "durationTicks": 192,
            "midi": 54,
            "name": "F#3",
            "ticks": 56352,
            "time": 77.92028775,
            "velocity": 0.4881889763779528
          },
          {
            "duration": 0.1327432499999901,
            "durationTicks": 96,
            "midi": 61,
            "name": "C#4",
            "ticks": 56544,
            "time": 78.18577425000001,
            "velocity": 0.5433070866141733
          },
          {
            "duration": 0.1327432499999901,
            "durationTicks": 96,
            "midi": 54,
            "name": "F#3",
            "ticks": 56544,
            "time": 78.18577425000001,
            "velocity": 0.4881889763779528
          },
          {
            "duration": 0.1327432499999901,
            "durationTicks": 96,
            "midi": 63,
            "name": "D#4",
            "ticks": 56592,
            "time": 78.25214587500001,
            "velocity": 0.5433070866141733
          },
          {
            "duration": 0.2654865000000086,
            "durationTicks": 192,
            "midi": 42,
            "name": "F#2",
            "ticks": 56640,
            "time": 78.3185175,
            "velocity": 0.7874015748031497
          },
          {
            "duration": 0.2654865000000086,
            "durationTicks": 192,
            "midi": 63,
            "name": "D#4",
            "ticks": 56640,
            "time": 78.3185175,
            "velocity": 0.5433070866141733
          },
          {
            "duration": 0.2654865000000086,
            "durationTicks": 192,
            "midi": 59,
            "name": "B3",
            "ticks": 56640,
            "time": 78.3185175,
            "velocity": 0.4881889763779528
          },
          {
            "duration": 0.1327432499999901,
            "durationTicks": 96,
            "midi": 33,
            "name": "A1",
            "ticks": 56832,
            "time": 78.58400400000001,
            "velocity": 0.7874015748031497
          },
          {
            "duration": 0.1327432499999901,
            "durationTicks": 96,
            "midi": 92,
            "name": "G#6",
            "ticks": 56832,
            "time": 78.58400400000001,
            "velocity": 0.6850393700787402
          },
          {
            "duration": 0.1327432499999901,
            "durationTicks": 96,
            "midi": 61,
            "name": "C#4",
            "ticks": 56832,
            "time": 78.58400400000001,
            "velocity": 0.5433070866141733
          },
          {
            "duration": 0.1327432499999901,
            "durationTicks": 96,
            "midi": 52,
            "name": "E3",
            "ticks": 56832,
            "time": 78.58400400000001,
            "velocity": 0.4881889763779528
          },
          {
            "duration": 0.1327432499999901,
            "durationTicks": 96,
            "midi": 52,
            "name": "E3",
            "ticks": 56880,
            "time": 78.65037562500001,
            "velocity": 0.4881889763779528
          },
          {
            "duration": 0.1327432499999901,
            "durationTicks": 96,
            "midi": 61,
            "name": "C#4",
            "ticks": 56880,
            "time": 78.65037562500001,
            "velocity": 0.5433070866141733
          },
          {
            "duration": 0.1327432500000043,
            "durationTicks": 96,
            "midi": 56,
            "name": "G#3",
            "ticks": 56928,
            "time": 78.71674725,
            "velocity": 0.4881889763779528
          },
          {
            "duration": 0.1327432500000043,
            "durationTicks": 96,
            "midi": 64,
            "name": "E4",
            "ticks": 56928,
            "time": 78.71674725,
            "velocity": 0.5433070866141733
          },
          {
            "duration": 0.1327432500000043,
            "durationTicks": 96,
            "midi": 37,
            "name": "C#2",
            "ticks": 56928,
            "time": 78.71674725,
            "velocity": 0.7874015748031497
          },
          {
            "duration": 0.1327432500000043,
            "durationTicks": 96,
            "midi": 64,
            "name": "E4",
            "ticks": 56976,
            "time": 78.783118875,
            "velocity": 0.5433070866141733
          },
          {
            "duration": 0.1327432500000043,
            "durationTicks": 96,
            "midi": 56,
            "name": "G#3",
            "ticks": 56976,
            "time": 78.783118875,
            "velocity": 0.4881889763779528
          },
          {
            "duration": 0.1327432500000043,
            "durationTicks": 96,
            "midi": 85,
            "name": "C#6",
            "ticks": 57024,
            "time": 78.8494905,
            "velocity": 0.6850393700787402
          },
          {
            "duration": 0.1327432500000043,
            "durationTicks": 96,
            "midi": 40,
            "name": "E2",
            "ticks": 57024,
            "time": 78.8494905,
            "velocity": 0.7874015748031497
          },
          {
            "duration": 0.1327432500000043,
            "durationTicks": 96,
            "midi": 54,
            "name": "F#3",
            "ticks": 57024,
            "time": 78.8494905,
            "velocity": 0.4881889763779528
          },
          {
            "duration": 0.1327432500000043,
            "durationTicks": 96,
            "midi": 63,
            "name": "D#4",
            "ticks": 57024,
            "time": 78.8494905,
            "velocity": 0.5433070866141733
          },
          {
            "duration": 0.1327432500000043,
            "durationTicks": 96,
            "midi": 54,
            "name": "F#3",
            "ticks": 57072,
            "time": 78.915862125,
            "velocity": 0.4881889763779528
          },
          {
            "duration": 0.1327432500000043,
            "durationTicks": 96,
            "midi": 63,
            "name": "D#4",
            "ticks": 57072,
            "time": 78.915862125,
            "velocity": 0.5433070866141733
          },
          {
            "duration": 0.1327432500000043,
            "durationTicks": 96,
            "midi": 56,
            "name": "G#3",
            "ticks": 57120,
            "time": 78.98223375,
            "velocity": 0.4881889763779528
          },
          {
            "duration": 0.2654864999999944,
            "durationTicks": 192,
            "midi": 45,
            "name": "A2",
            "ticks": 57120,
            "time": 78.98223375,
            "velocity": 0.7874015748031497
          },
          {
            "duration": 0.1327432500000043,
            "durationTicks": 96,
            "midi": 64,
            "name": "E4",
            "ticks": 57120,
            "time": 78.98223375,
            "velocity": 0.5433070866141733
          },
          {
            "duration": 0.1327432499999901,
            "durationTicks": 96,
            "midi": 56,
            "name": "G#3",
            "ticks": 57168,
            "time": 79.04860537500001,
            "velocity": 0.4881889763779528
          },
          {
            "duration": 0.1327432499999901,
            "durationTicks": 96,
            "midi": 64,
            "name": "E4",
            "ticks": 57168,
            "time": 79.04860537500001,
            "velocity": 0.5433070866141733
          },
          {
            "duration": 0.1327432499999901,
            "durationTicks": 96,
            "midi": 52,
            "name": "E3",
            "ticks": 57216,
            "time": 79.11497700000001,
            "velocity": 0.4881889763779528
          },
          {
            "duration": 0.1327432499999901,
            "durationTicks": 96,
            "midi": 61,
            "name": "C#4",
            "ticks": 57216,
            "time": 79.11497700000001,
            "velocity": 0.5433070866141733
          },
          {
            "duration": 0.1327432500000043,
            "durationTicks": 96,
            "midi": 61,
            "name": "C#4",
            "ticks": 57264,
            "time": 79.181348625,
            "velocity": 0.5433070866141733
          },
          {
            "duration": 0.1327432500000043,
            "durationTicks": 96,
            "midi": 52,
            "name": "E3",
            "ticks": 57264,
            "time": 79.181348625,
            "velocity": 0.4881889763779528
          },
          {
            "duration": 0.1327432500000043,
            "durationTicks": 96,
            "midi": 44,
            "name": "G#2",
            "ticks": 57312,
            "time": 79.24772025,
            "velocity": 0.7874015748031497
          },
          {
            "duration": 0.1327432500000043,
            "durationTicks": 96,
            "midi": 52,
            "name": "E3",
            "ticks": 57312,
            "time": 79.24772025,
            "velocity": 0.4881889763779528
          },
          {
            "duration": 0.1327432500000043,
            "durationTicks": 96,
            "midi": 61,
            "name": "C#4",
            "ticks": 57312,
            "time": 79.24772025,
            "velocity": 0.5433070866141733
          },
          {
            "duration": 0.1327432500000043,
            "durationTicks": 96,
            "midi": 88,
            "name": "E6",
            "ticks": 57312,
            "time": 79.24772025,
            "velocity": 0.6850393700787402
          },
          {
            "duration": 0.1327432500000043,
            "durationTicks": 96,
            "midi": 61,
            "name": "C#4",
            "ticks": 57360,
            "time": 79.314091875,
            "velocity": 0.5433070866141733
          },
          {
            "duration": 0.1327432500000043,
            "durationTicks": 96,
            "midi": 52,
            "name": "E3",
            "ticks": 57360,
            "time": 79.314091875,
            "velocity": 0.4881889763779528
          },
          {
            "duration": 0.1327432500000043,
            "durationTicks": 96,
            "midi": 40,
            "name": "E2",
            "ticks": 57408,
            "time": 79.3804635,
            "velocity": 0.7874015748031497
          },
          {
            "duration": 0.1327432499999901,
            "durationTicks": 96,
            "midi": 37,
            "name": "C#2",
            "ticks": 57504,
            "time": 79.51320675000001,
            "velocity": 0.7874015748031497
          },
          {
            "duration": 0.1327432499999901,
            "durationTicks": 96,
            "midi": 92,
            "name": "G#6",
            "ticks": 57504,
            "time": 79.51320675000001,
            "velocity": 0.6850393700787402
          },
          {
            "duration": 0.2654864999999944,
            "durationTicks": 192,
            "midi": 61,
            "name": "C#4",
            "ticks": 57504,
            "time": 79.51320675000001,
            "velocity": 0.5433070866141733
          },
          {
            "duration": 0.2654864999999944,
            "durationTicks": 192,
            "midi": 52,
            "name": "E3",
            "ticks": 57504,
            "time": 79.51320675000001,
            "velocity": 0.4881889763779528
          },
          {
            "duration": 0.1327432500000043,
            "durationTicks": 96,
            "midi": 33,
            "name": "A1",
            "ticks": 57600,
            "time": 79.64595,
            "velocity": 0.7874015748031497
          },
          {
            "duration": 0.1327432500000043,
            "durationTicks": 96,
            "midi": 85,
            "name": "C#6",
            "ticks": 57696,
            "time": 79.77869325,
            "velocity": 0.6850393700787402
          },
          {
            "duration": 0.1327432500000043,
            "durationTicks": 96,
            "midi": 63,
            "name": "D#4",
            "ticks": 57696,
            "time": 79.77869325,
            "velocity": 0.5433070866141733
          },
          {
            "duration": 0.1327432500000043,
            "durationTicks": 96,
            "midi": 54,
            "name": "F#3",
            "ticks": 57696,
            "time": 79.77869325,
            "velocity": 0.4881889763779528
          },
          {
            "duration": 0.1327432500000043,
            "durationTicks": 96,
            "midi": 54,
            "name": "F#3",
            "ticks": 57744,
            "time": 79.845064875,
            "velocity": 0.4881889763779528
          },
          {
            "duration": 0.1327432500000043,
            "durationTicks": 96,
            "midi": 63,
            "name": "D#4",
            "ticks": 57744,
            "time": 79.845064875,
            "velocity": 0.5433070866141733
          },
          {
            "duration": 0.1327432499999901,
            "durationTicks": 96,
            "midi": 56,
            "name": "G#3",
            "ticks": 57792,
            "time": 79.91143650000001,
            "velocity": 0.4881889763779528
          },
          {
            "duration": 0.1327432499999901,
            "durationTicks": 96,
            "midi": 33,
            "name": "A1",
            "ticks": 57792,
            "time": 79.91143650000001,
            "velocity": 0.7874015748031497
          },
          {
            "duration": 0.1327432499999901,
            "durationTicks": 96,
            "midi": 64,
            "name": "E4",
            "ticks": 57792,
            "time": 79.91143650000001,
            "velocity": 0.5433070866141733
          },
          {
            "duration": 0.1327432499999901,
            "durationTicks": 96,
            "midi": 56,
            "name": "G#3",
            "ticks": 57840,
            "time": 79.97780812500001,
            "velocity": 0.4881889763779528
          },
          {
            "duration": 0.1327432499999901,
            "durationTicks": 96,
            "midi": 64,
            "name": "E4",
            "ticks": 57840,
            "time": 79.97780812500001,
            "velocity": 0.5433070866141733
          },
          {
            "duration": 0.1327432500000043,
            "durationTicks": 96,
            "midi": 33,
            "name": "A1",
            "ticks": 57888,
            "time": 80.04417975,
            "velocity": 0.7874015748031497
          },
          {
            "duration": 0.1327432500000043,
            "durationTicks": 96,
            "midi": 64,
            "name": "E4",
            "ticks": 57888,
            "time": 80.04417975,
            "velocity": 0.4881889763779528
          },
          {
            "duration": 0.1327432500000043,
            "durationTicks": 96,
            "midi": 71,
            "name": "B4",
            "ticks": 57888,
            "time": 80.04417975,
            "velocity": 0.5433070866141733
          },
          {
            "duration": 0.1327432500000043,
            "durationTicks": 96,
            "midi": 71,
            "name": "B4",
            "ticks": 57936,
            "time": 80.110551375,
            "velocity": 0.5433070866141733
          },
          {
            "duration": 0.1327432500000043,
            "durationTicks": 96,
            "midi": 64,
            "name": "E4",
            "ticks": 57936,
            "time": 80.110551375,
            "velocity": 0.4881889763779528
          },
          {
            "duration": 0.1327432500000043,
            "durationTicks": 96,
            "midi": 61,
            "name": "C#4",
            "ticks": 57984,
            "time": 80.176923,
            "velocity": 0.4881889763779528
          },
          {
            "duration": 0.1327432500000043,
            "durationTicks": 96,
            "midi": 68,
            "name": "G#4",
            "ticks": 57984,
            "time": 80.176923,
            "velocity": 0.5433070866141733
          },
          {
            "duration": 0.1327432500000043,
            "durationTicks": 96,
            "midi": 68,
            "name": "G#4",
            "ticks": 58032,
            "time": 80.243294625,
            "velocity": 0.5433070866141733
          },
          {
            "duration": 0.1327432500000043,
            "durationTicks": 96,
            "midi": 61,
            "name": "C#4",
            "ticks": 58032,
            "time": 80.243294625,
            "velocity": 0.4881889763779528
          },
          {
            "duration": 0.1327432500000043,
            "durationTicks": 96,
            "midi": 88,
            "name": "E6",
            "ticks": 58080,
            "time": 80.30966625,
            "velocity": 0.6850393700787402
          },
          {
            "duration": 0.1327432500000043,
            "durationTicks": 96,
            "midi": 61,
            "name": "C#4",
            "ticks": 58080,
            "time": 80.30966625,
            "velocity": 0.4881889763779528
          },
          {
            "duration": 0.1327432500000043,
            "durationTicks": 96,
            "midi": 68,
            "name": "G#4",
            "ticks": 58080,
            "time": 80.30966625,
            "velocity": 0.5433070866141733
          },
          {
            "duration": 0.1327432499999901,
            "durationTicks": 96,
            "midi": 61,
            "name": "C#4",
            "ticks": 58128,
            "time": 80.37603787500001,
            "velocity": 0.4881889763779528
          },
          {
            "duration": 0.1327432499999901,
            "durationTicks": 96,
            "midi": 68,
            "name": "G#4",
            "ticks": 58128,
            "time": 80.37603787500001,
            "velocity": 0.5433070866141733
          },
          {
            "duration": 0.2654864999999944,
            "durationTicks": 192,
            "midi": 35,
            "name": "B1",
            "ticks": 58176,
            "time": 80.44240950000001,
            "velocity": 0.7874015748031497
          },
          {
            "duration": 0.1327432500000043,
            "durationTicks": 96,
            "midi": 33,
            "name": "A1",
            "ticks": 58368,
            "time": 80.707896,
            "velocity": 0.7874015748031497
          },
          {
            "duration": 0.1327432500000043,
            "durationTicks": 96,
            "midi": 52,
            "name": "E3",
            "ticks": 58368,
            "time": 80.707896,
            "velocity": 0.4881889763779528
          },
          {
            "duration": 0.1327432500000043,
            "durationTicks": 96,
            "midi": 61,
            "name": "C#4",
            "ticks": 58368,
            "time": 80.707896,
            "velocity": 0.5433070866141733
          },
          {
            "duration": 0.1327432500000043,
            "durationTicks": 96,
            "midi": 92,
            "name": "G#6",
            "ticks": 58368,
            "time": 80.707896,
            "velocity": 0.6850393700787402
          },
          {
            "duration": 0.1327432499999901,
            "durationTicks": 96,
            "midi": 52,
            "name": "E3",
            "ticks": 58416,
            "time": 80.77426762500001,
            "velocity": 0.4881889763779528
          },
          {
            "duration": 0.1327432499999901,
            "durationTicks": 96,
            "midi": 61,
            "name": "C#4",
            "ticks": 58416,
            "time": 80.77426762500001,
            "velocity": 0.5433070866141733
          },
          {
            "duration": 0.1327432499999901,
            "durationTicks": 96,
            "midi": 56,
            "name": "G#3",
            "ticks": 58464,
            "time": 80.84063925000001,
            "velocity": 0.4881889763779528
          },
          {
            "duration": 0.1327432499999901,
            "durationTicks": 96,
            "midi": 64,
            "name": "E4",
            "ticks": 58464,
            "time": 80.84063925000001,
            "velocity": 0.5433070866141733
          },
          {
            "duration": 0.1327432499999901,
            "durationTicks": 96,
            "midi": 37,
            "name": "C#2",
            "ticks": 58464,
            "time": 80.84063925000001,
            "velocity": 0.7874015748031497
          },
          {
            "duration": 0.1327432500000043,
            "durationTicks": 96,
            "midi": 56,
            "name": "G#3",
            "ticks": 58512,
            "time": 80.907010875,
            "velocity": 0.4881889763779528
          },
          {
            "duration": 0.1327432500000043,
            "durationTicks": 96,
            "midi": 64,
            "name": "E4",
            "ticks": 58512,
            "time": 80.907010875,
            "velocity": 0.5433070866141733
          },
          {
            "duration": 0.1327432500000043,
            "durationTicks": 96,
            "midi": 63,
            "name": "D#4",
            "ticks": 58560,
            "time": 80.9733825,
            "velocity": 0.5433070866141733
          },
          {
            "duration": 0.1327432500000043,
            "durationTicks": 96,
            "midi": 54,
            "name": "F#3",
            "ticks": 58560,
            "time": 80.9733825,
            "velocity": 0.4881889763779528
          },
          {
            "duration": 0.1327432500000043,
            "durationTicks": 96,
            "midi": 40,
            "name": "E2",
            "ticks": 58560,
            "time": 80.9733825,
            "velocity": 0.7874015748031497
          },
          {
            "duration": 0.1327432500000043,
            "durationTicks": 96,
            "midi": 85,
            "name": "C#6",
            "ticks": 58560,
            "time": 80.9733825,
            "velocity": 0.6850393700787402
          },
          {
            "duration": 0.1327432500000043,
            "durationTicks": 96,
            "midi": 54,
            "name": "F#3",
            "ticks": 58608,
            "time": 81.039754125,
            "velocity": 0.4881889763779528
          },
          {
            "duration": 0.1327432500000043,
            "durationTicks": 96,
            "midi": 63,
            "name": "D#4",
            "ticks": 58608,
            "time": 81.039754125,
            "velocity": 0.5433070866141733
          },
          {
            "duration": 0.1327432500000043,
            "durationTicks": 96,
            "midi": 64,
            "name": "E4",
            "ticks": 58656,
            "time": 81.10612575,
            "velocity": 0.5433070866141733
          },
          {
            "duration": 0.2654864999999944,
            "durationTicks": 192,
            "midi": 45,
            "name": "A2",
            "ticks": 58656,
            "time": 81.10612575,
            "velocity": 0.7874015748031497
          },
          {
            "duration": 0.1327432500000043,
            "durationTicks": 96,
            "midi": 56,
            "name": "G#3",
            "ticks": 58656,
            "time": 81.10612575,
            "velocity": 0.4881889763779528
          },
          {
            "duration": 0.1327432500000043,
            "durationTicks": 96,
            "midi": 64,
            "name": "E4",
            "ticks": 58704,
            "time": 81.172497375,
            "velocity": 0.5433070866141733
          },
          {
            "duration": 0.1327432500000043,
            "durationTicks": 96,
            "midi": 56,
            "name": "G#3",
            "ticks": 58704,
            "time": 81.172497375,
            "velocity": 0.4881889763779528
          },
          {
            "duration": 0.1327432499999901,
            "durationTicks": 96,
            "midi": 61,
            "name": "C#4",
            "ticks": 58752,
            "time": 81.23886900000001,
            "velocity": 0.5433070866141733
          },
          {
            "duration": 0.1327432499999901,
            "durationTicks": 96,
            "midi": 52,
            "name": "E3",
            "ticks": 58752,
            "time": 81.23886900000001,
            "velocity": 0.4881889763779528
          },
          {
            "duration": 0.1327432499999901,
            "durationTicks": 96,
            "midi": 52,
            "name": "E3",
            "ticks": 58800,
            "time": 81.30524062500001,
            "velocity": 0.4881889763779528
          },
          {
            "duration": 0.1327432499999901,
            "durationTicks": 96,
            "midi": 61,
            "name": "C#4",
            "ticks": 58800,
            "time": 81.30524062500001,
            "velocity": 0.5433070866141733
          },
          {
            "duration": 0.1327432500000043,
            "durationTicks": 96,
            "midi": 44,
            "name": "G#2",
            "ticks": 58848,
            "time": 81.37161225,
            "velocity": 0.7874015748031497
          },
          {
            "duration": 0.1327432500000043,
            "durationTicks": 96,
            "midi": 52,
            "name": "E3",
            "ticks": 58848,
            "time": 81.37161225,
            "velocity": 0.4881889763779528
          },
          {
            "duration": 0.1327432500000043,
            "durationTicks": 96,
            "midi": 88,
            "name": "E6",
            "ticks": 58848,
            "time": 81.37161225,
            "velocity": 0.6850393700787402
          },
          {
            "duration": 0.1327432500000043,
            "durationTicks": 96,
            "midi": 61,
            "name": "C#4",
            "ticks": 58848,
            "time": 81.37161225,
            "velocity": 0.5433070866141733
          },
          {
            "duration": 0.1327432500000043,
            "durationTicks": 96,
            "midi": 61,
            "name": "C#4",
            "ticks": 58896,
            "time": 81.437983875,
            "velocity": 0.5433070866141733
          },
          {
            "duration": 0.1327432500000043,
            "durationTicks": 96,
            "midi": 52,
            "name": "E3",
            "ticks": 58896,
            "time": 81.437983875,
            "velocity": 0.4881889763779528
          },
          {
            "duration": 0.1327432500000043,
            "durationTicks": 96,
            "midi": 40,
            "name": "E2",
            "ticks": 58944,
            "time": 81.5043555,
            "velocity": 0.7874015748031497
          },
          {
            "duration": 0.1327432500000043,
            "durationTicks": 96,
            "midi": 92,
            "name": "G#6",
            "ticks": 58944,
            "time": 81.5043555,
            "velocity": 0.6850393700787402
          },
          {
            "duration": 0.2654864999999944,
            "durationTicks": 192,
            "midi": 61,
            "name": "C#4",
            "ticks": 59040,
            "time": 81.63709875,
            "velocity": 0.5433070866141733
          },
          {
            "duration": 0.2654864999999944,
            "durationTicks": 192,
            "midi": 52,
            "name": "E3",
            "ticks": 59040,
            "time": 81.63709875,
            "velocity": 0.4881889763779528
          },
          {
            "duration": 0.1327432500000043,
            "durationTicks": 96,
            "midi": 37,
            "name": "C#2",
            "ticks": 59040,
            "time": 81.63709875,
            "velocity": 0.7874015748031497
          },
          {
            "duration": 0.1327432499999901,
            "durationTicks": 96,
            "midi": 95,
            "name": "B6",
            "ticks": 59136,
            "time": 81.76984200000001,
            "velocity": 0.6850393700787402
          },
          {
            "duration": 0.1327432499999901,
            "durationTicks": 96,
            "midi": 33,
            "name": "A1",
            "ticks": 59136,
            "time": 81.76984200000001,
            "velocity": 0.7874015748031497
          },
          {
            "duration": 0.1327432500000043,
            "durationTicks": 96,
            "midi": 54,
            "name": "F#3",
            "ticks": 59232,
            "time": 81.90258525,
            "velocity": 0.4881889763779528
          },
          {
            "duration": 0.1327432500000043,
            "durationTicks": 96,
            "midi": 63,
            "name": "D#4",
            "ticks": 59232,
            "time": 81.90258525,
            "velocity": 0.5433070866141733
          },
          {
            "duration": 0.1327432500000043,
            "durationTicks": 96,
            "midi": 63,
            "name": "D#4",
            "ticks": 59280,
            "time": 81.968956875,
            "velocity": 0.5433070866141733
          },
          {
            "duration": 0.1327432500000043,
            "durationTicks": 96,
            "midi": 54,
            "name": "F#3",
            "ticks": 59280,
            "time": 81.968956875,
            "velocity": 0.4881889763779528
          },
          {
            "duration": 0.1327432500000043,
            "durationTicks": 96,
            "midi": 64,
            "name": "E4",
            "ticks": 59328,
            "time": 82.0353285,
            "velocity": 0.5433070866141733
          },
          {
            "duration": 0.1327432500000043,
            "durationTicks": 96,
            "midi": 90,
            "name": "F#6",
            "ticks": 59328,
            "time": 82.0353285,
            "velocity": 0.6850393700787402
          },
          {
            "duration": 0.1327432500000043,
            "durationTicks": 96,
            "midi": 56,
            "name": "G#3",
            "ticks": 59328,
            "time": 82.0353285,
            "velocity": 0.4881889763779528
          },
          {
            "duration": 0.1327432500000043,
            "durationTicks": 96,
            "midi": 33,
            "name": "A1",
            "ticks": 59328,
            "time": 82.0353285,
            "velocity": 0.7874015748031497
          },
          {
            "duration": 0.1327432499999901,
            "durationTicks": 96,
            "midi": 64,
            "name": "E4",
            "ticks": 59376,
            "time": 82.10170012500001,
            "velocity": 0.5433070866141733
          },
          {
            "duration": 0.1327432499999901,
            "durationTicks": 96,
            "midi": 56,
            "name": "G#3",
            "ticks": 59376,
            "time": 82.10170012500001,
            "velocity": 0.4881889763779528
          },
          {
            "duration": 0.1327432499999901,
            "durationTicks": 96,
            "midi": 33,
            "name": "A1",
            "ticks": 59424,
            "time": 82.16807175000001,
            "velocity": 0.7874015748031497
          },
          {
            "duration": 0.1327432499999901,
            "durationTicks": 96,
            "midi": 64,
            "name": "E4",
            "ticks": 59424,
            "time": 82.16807175000001,
            "velocity": 0.4881889763779528
          },
          {
            "duration": 0.1327432499999901,
            "durationTicks": 96,
            "midi": 92,
            "name": "G#6",
            "ticks": 59424,
            "time": 82.16807175000001,
            "velocity": 0.6850393700787402
          },
          {
            "duration": 0.1327432499999901,
            "durationTicks": 96,
            "midi": 71,
            "name": "B4",
            "ticks": 59424,
            "time": 82.16807175000001,
            "velocity": 0.5433070866141733
          },
          {
            "duration": 0.1327432500000043,
            "durationTicks": 96,
            "midi": 71,
            "name": "B4",
            "ticks": 59472,
            "time": 82.234443375,
            "velocity": 0.5433070866141733
          },
          {
            "duration": 0.1327432500000043,
            "durationTicks": 96,
            "midi": 64,
            "name": "E4",
            "ticks": 59472,
            "time": 82.234443375,
            "velocity": 0.4881889763779528
          },
          {
            "duration": 0.1327432500000043,
            "durationTicks": 96,
            "midi": 68,
            "name": "G#4",
            "ticks": 59520,
            "time": 82.300815,
            "velocity": 0.5433070866141733
          },
          {
            "duration": 0.1327432500000043,
            "durationTicks": 96,
            "midi": 61,
            "name": "C#4",
            "ticks": 59520,
            "time": 82.300815,
            "velocity": 0.4881889763779528
          },
          {
            "duration": 0.1327432500000043,
            "durationTicks": 96,
            "midi": 68,
            "name": "G#4",
            "ticks": 59568,
            "time": 82.367186625,
            "velocity": 0.5433070866141733
          },
          {
            "duration": 0.1327432500000043,
            "durationTicks": 96,
            "midi": 61,
            "name": "C#4",
            "ticks": 59568,
            "time": 82.367186625,
            "velocity": 0.4881889763779528
          },
          {
            "duration": 0.1327432500000043,
            "durationTicks": 96,
            "midi": 61,
            "name": "C#4",
            "ticks": 59616,
            "time": 82.43355825,
            "velocity": 0.4881889763779528
          },
          {
            "duration": 0.1327432500000043,
            "durationTicks": 96,
            "midi": 85,
            "name": "C#6",
            "ticks": 59616,
            "time": 82.43355825,
            "velocity": 0.6850393700787402
          },
          {
            "duration": 0.1327432500000043,
            "durationTicks": 96,
            "midi": 68,
            "name": "G#4",
            "ticks": 59616,
            "time": 82.43355825,
            "velocity": 0.5433070866141733
          },
          {
            "duration": 0.1327432500000043,
            "durationTicks": 96,
            "midi": 68,
            "name": "G#4",
            "ticks": 59664,
            "time": 82.499929875,
            "velocity": 0.5433070866141733
          },
          {
            "duration": 0.1327432500000043,
            "durationTicks": 96,
            "midi": 61,
            "name": "C#4",
            "ticks": 59664,
            "time": 82.499929875,
            "velocity": 0.4881889763779528
          },
          {
            "duration": 0.1327432499999901,
            "durationTicks": 96,
            "midi": 88,
            "name": "E6",
            "ticks": 59712,
            "time": 82.56630150000001,
            "velocity": 0.6850393700787402
          },
          {
            "duration": 0.2654864999999944,
            "durationTicks": 192,
            "midi": 35,
            "name": "B1",
            "ticks": 59712,
            "time": 82.56630150000001,
            "velocity": 0.7874015748031497
          },
          {
            "duration": 0.1327432500000043,
            "durationTicks": 96,
            "midi": 61,
            "name": "C#4",
            "ticks": 59904,
            "time": 82.831788,
            "velocity": 0.5433070866141733
          },
          {
            "duration": 0.1327432500000043,
            "durationTicks": 96,
            "midi": 37,
            "name": "C#2",
            "ticks": 59904,
            "time": 82.831788,
            "velocity": 0.7874015748031497
          },
          {
            "duration": 0.1327432500000043,
            "durationTicks": 96,
            "midi": 52,
            "name": "E3",
            "ticks": 59904,
            "time": 82.831788,
            "velocity": 0.4881889763779528
          },
          {
            "duration": 0.1327432500000043,
            "durationTicks": 96,
            "midi": 52,
            "name": "E3",
            "ticks": 59952,
            "time": 82.898159625,
            "velocity": 0.4881889763779528
          },
          {
            "duration": 0.1327432500000043,
            "durationTicks": 96,
            "midi": 61,
            "name": "C#4",
            "ticks": 59952,
            "time": 82.898159625,
            "velocity": 0.5433070866141733
          },
          {
            "duration": 0.1327432499999901,
            "durationTicks": 96,
            "midi": 56,
            "name": "G#3",
            "ticks": 60000,
            "time": 82.96453125000001,
            "velocity": 0.4881889763779528
          },
          {
            "duration": 0.1327432499999901,
            "durationTicks": 96,
            "midi": 64,
            "name": "E4",
            "ticks": 60000,
            "time": 82.96453125000001,
            "velocity": 0.5433070866141733
          },
          {
            "duration": 0.1327432499999901,
            "durationTicks": 96,
            "midi": 40,
            "name": "E2",
            "ticks": 60000,
            "time": 82.96453125000001,
            "velocity": 0.7874015748031497
          },
          {
            "duration": 0.1327432499999901,
            "durationTicks": 96,
            "midi": 64,
            "name": "E4",
            "ticks": 60048,
            "time": 83.03090287500001,
            "velocity": 0.5433070866141733
          },
          {
            "duration": 0.1327432499999901,
            "durationTicks": 96,
            "midi": 56,
            "name": "G#3",
            "ticks": 60048,
            "time": 83.03090287500001,
            "velocity": 0.4881889763779528
          },
          {
            "duration": 0.1327432500000043,
            "durationTicks": 96,
            "midi": 44,
            "name": "G#2",
            "ticks": 60096,
            "time": 83.0972745,
            "velocity": 0.7874015748031497
          },
          {
            "duration": 0.1327432500000043,
            "durationTicks": 96,
            "midi": 63,
            "name": "D#4",
            "ticks": 60096,
            "time": 83.0972745,
            "velocity": 0.5433070866141733
          },
          {
            "duration": 0.1327432500000043,
            "durationTicks": 96,
            "midi": 54,
            "name": "F#3",
            "ticks": 60096,
            "time": 83.0972745,
            "velocity": 0.4881889763779528
          },
          {
            "duration": 0.1327432500000043,
            "durationTicks": 96,
            "midi": 63,
            "name": "D#4",
            "ticks": 60144,
            "time": 83.163646125,
            "velocity": 0.5433070866141733
          },
          {
            "duration": 0.1327432500000043,
            "durationTicks": 96,
            "midi": 54,
            "name": "F#3",
            "ticks": 60144,
            "time": 83.163646125,
            "velocity": 0.4881889763779528
          },
          {
            "duration": 0.2654865000000086,
            "durationTicks": 192,
            "midi": 49,
            "name": "C#3",
            "ticks": 60192,
            "time": 83.23001775,
            "velocity": 0.7874015748031497
          },
          {
            "duration": 0.1327432500000043,
            "durationTicks": 96,
            "midi": 64,
            "name": "E4",
            "ticks": 60192,
            "time": 83.23001775,
            "velocity": 0.5433070866141733
          },
          {
            "duration": 0.1327432500000043,
            "durationTicks": 96,
            "midi": 56,
            "name": "G#3",
            "ticks": 60192,
            "time": 83.23001775,
            "velocity": 0.4881889763779528
          },
          {
            "duration": 0.1327432500000043,
            "durationTicks": 96,
            "midi": 56,
            "name": "G#3",
            "ticks": 60240,
            "time": 83.296389375,
            "velocity": 0.4881889763779528
          },
          {
            "duration": 0.1327432500000043,
            "durationTicks": 96,
            "midi": 64,
            "name": "E4",
            "ticks": 60240,
            "time": 83.296389375,
            "velocity": 0.5433070866141733
          },
          {
            "duration": 0.1327432500000043,
            "durationTicks": 96,
            "midi": 61,
            "name": "C#4",
            "ticks": 60288,
            "time": 83.362761,
            "velocity": 0.5433070866141733
          },
          {
            "duration": 0.1327432500000043,
            "durationTicks": 96,
            "midi": 52,
            "name": "E3",
            "ticks": 60288,
            "time": 83.362761,
            "velocity": 0.4881889763779528
          },
          {
            "duration": 0.1327432499999901,
            "durationTicks": 96,
            "midi": 52,
            "name": "E3",
            "ticks": 60336,
            "time": 83.42913262500001,
            "velocity": 0.4881889763779528
          },
          {
            "duration": 0.1327432499999901,
            "durationTicks": 96,
            "midi": 61,
            "name": "C#4",
            "ticks": 60336,
            "time": 83.42913262500001,
            "velocity": 0.5433070866141733
          },
          {
            "duration": 0.1327432499999901,
            "durationTicks": 96,
            "midi": 52,
            "name": "E3",
            "ticks": 60384,
            "time": 83.49550425000001,
            "velocity": 0.4881889763779528
          },
          {
            "duration": 0.1327432499999901,
            "durationTicks": 96,
            "midi": 47,
            "name": "B2",
            "ticks": 60384,
            "time": 83.49550425000001,
            "velocity": 0.7874015748031497
          },
          {
            "duration": 0.1327432499999901,
            "durationTicks": 96,
            "midi": 61,
            "name": "C#4",
            "ticks": 60384,
            "time": 83.49550425000001,
            "velocity": 0.5433070866141733
          },
          {
            "duration": 0.1327432500000043,
            "durationTicks": 96,
            "midi": 52,
            "name": "E3",
            "ticks": 60432,
            "time": 83.561875875,
            "velocity": 0.4881889763779528
          },
          {
            "duration": 0.1327432500000043,
            "durationTicks": 96,
            "midi": 61,
            "name": "C#4",
            "ticks": 60432,
            "time": 83.561875875,
            "velocity": 0.5433070866141733
          },
          {
            "duration": 0.1327432500000043,
            "durationTicks": 96,
            "midi": 44,
            "name": "G#2",
            "ticks": 60480,
            "time": 83.6282475,
            "velocity": 0.7874015748031497
          },
          {
            "duration": 0.2654864999999944,
            "durationTicks": 192,
            "midi": 52,
            "name": "E3",
            "ticks": 60576,
            "time": 83.76099075,
            "velocity": 0.4881889763779528
          },
          {
            "duration": 0.2654864999999944,
            "durationTicks": 192,
            "midi": 61,
            "name": "C#4",
            "ticks": 60576,
            "time": 83.76099075,
            "velocity": 0.5433070866141733
          },
          {
            "duration": 0.1327432500000043,
            "durationTicks": 96,
            "midi": 40,
            "name": "E2",
            "ticks": 60576,
            "time": 83.76099075,
            "velocity": 0.7874015748031497
          },
          {
            "duration": 0.1327432499999901,
            "durationTicks": 96,
            "midi": 37,
            "name": "C#2",
            "ticks": 60672,
            "time": 83.89373400000001,
            "velocity": 0.7874015748031497
          },
          {
            "duration": 0.1327432500000043,
            "durationTicks": 96,
            "midi": 54,
            "name": "F#3",
            "ticks": 60768,
            "time": 84.02647725,
            "velocity": 0.4881889763779528
          },
          {
            "duration": 0.1327432500000043,
            "durationTicks": 96,
            "midi": 63,
            "name": "D#4",
            "ticks": 60768,
            "time": 84.02647725,
            "velocity": 0.5433070866141733
          },
          {
            "duration": 0.1327432500000043,
            "durationTicks": 96,
            "midi": 63,
            "name": "D#4",
            "ticks": 60816,
            "time": 84.092848875,
            "velocity": 0.5433070866141733
          },
          {
            "duration": 0.1327432500000043,
            "durationTicks": 96,
            "midi": 54,
            "name": "F#3",
            "ticks": 60816,
            "time": 84.092848875,
            "velocity": 0.4881889763779528
          },
          {
            "duration": 0.1327432500000043,
            "durationTicks": 96,
            "midi": 56,
            "name": "G#3",
            "ticks": 60864,
            "time": 84.1592205,
            "velocity": 0.4881889763779528
          },
          {
            "duration": 0.1327432500000043,
            "durationTicks": 96,
            "midi": 64,
            "name": "E4",
            "ticks": 60864,
            "time": 84.1592205,
            "velocity": 0.5433070866141733
          },
          {
            "duration": 0.1327432500000043,
            "durationTicks": 96,
            "midi": 37,
            "name": "C#2",
            "ticks": 60864,
            "time": 84.1592205,
            "velocity": 0.7874015748031497
          },
          {
            "duration": 0.1327432500000043,
            "durationTicks": 96,
            "midi": 64,
            "name": "E4",
            "ticks": 60912,
            "time": 84.225592125,
            "velocity": 0.5433070866141733
          },
          {
            "duration": 0.1327432500000043,
            "durationTicks": 96,
            "midi": 56,
            "name": "G#3",
            "ticks": 60912,
            "time": 84.225592125,
            "velocity": 0.4881889763779528
          },
          {
            "duration": 0.1327432499999901,
            "durationTicks": 96,
            "midi": 71,
            "name": "B4",
            "ticks": 60960,
            "time": 84.29196375000001,
            "velocity": 0.5433070866141733
          },
          {
            "duration": 0.1327432499999901,
            "durationTicks": 96,
            "midi": 37,
            "name": "C#2",
            "ticks": 60960,
            "time": 84.29196375000001,
            "velocity": 0.7874015748031497
          },
          {
            "duration": 0.1327432499999901,
            "durationTicks": 96,
            "midi": 64,
            "name": "E4",
            "ticks": 60960,
            "time": 84.29196375000001,
            "velocity": 0.4881889763779528
          },
          {
            "duration": 0.1327432499999901,
            "durationTicks": 96,
            "midi": 71,
            "name": "B4",
            "ticks": 61008,
            "time": 84.35833537500001,
            "velocity": 0.5433070866141733
          },
          {
            "duration": 0.1327432499999901,
            "durationTicks": 96,
            "midi": 64,
            "name": "E4",
            "ticks": 61008,
            "time": 84.35833537500001,
            "velocity": 0.4881889763779528
          },
          {
            "duration": 0.1327432500000043,
            "durationTicks": 96,
            "midi": 68,
            "name": "G#4",
            "ticks": 61056,
            "time": 84.424707,
            "velocity": 0.5433070866141733
          },
          {
            "duration": 0.1327432500000043,
            "durationTicks": 96,
            "midi": 61,
            "name": "C#4",
            "ticks": 61056,
            "time": 84.424707,
            "velocity": 0.4881889763779528
          },
          {
            "duration": 0.1327432500000043,
            "durationTicks": 96,
            "midi": 61,
            "name": "C#4",
            "ticks": 61104,
            "time": 84.491078625,
            "velocity": 0.4881889763779528
          },
          {
            "duration": 0.1327432500000043,
            "durationTicks": 96,
            "midi": 68,
            "name": "G#4",
            "ticks": 61104,
            "time": 84.491078625,
            "velocity": 0.5433070866141733
          },
          {
            "duration": 0.1327432500000043,
            "durationTicks": 96,
            "midi": 61,
            "name": "C#4",
            "ticks": 61152,
            "time": 84.55745025,
            "velocity": 0.4881889763779528
          },
          {
            "duration": 0.1327432500000043,
            "durationTicks": 96,
            "midi": 68,
            "name": "G#4",
            "ticks": 61152,
            "time": 84.55745025,
            "velocity": 0.5433070866141733
          },
          {
            "duration": 0.1327432500000043,
            "durationTicks": 96,
            "midi": 61,
            "name": "C#4",
            "ticks": 61200,
            "time": 84.623821875,
            "velocity": 0.4881889763779528
          },
          {
            "duration": 0.1327432500000043,
            "durationTicks": 96,
            "midi": 68,
            "name": "G#4",
            "ticks": 61200,
            "time": 84.623821875,
            "velocity": 0.5433070866141733
          },
          {
            "duration": 0.2654864999999944,
            "durationTicks": 192,
            "midi": 35,
            "name": "B1",
            "ticks": 61248,
            "time": 84.6901935,
            "velocity": 0.7874015748031497
          },
          {
            "duration": 0.1327432500000043,
            "durationTicks": 96,
            "midi": 51,
            "name": "D#3",
            "ticks": 61440,
            "time": 84.95568,
            "velocity": 0.4881889763779528
          },
          {
            "duration": 0.1327432500000043,
            "durationTicks": 96,
            "midi": 32,
            "name": "G#1",
            "ticks": 61440,
            "time": 84.95568,
            "velocity": 0.7874015748031497
          },
          {
            "duration": 0.3982297499999987,
            "durationTicks": 288,
            "midi": 61,
            "name": "C#4",
            "ticks": 61440,
            "time": 84.95568,
            "velocity": 0.5433070866141733
          },
          {
            "duration": 0.1327432500000043,
            "durationTicks": 96,
            "midi": 51,
            "name": "D#3",
            "ticks": 61488,
            "time": 85.022051625,
            "velocity": 0.4881889763779528
          },
          {
            "duration": 0.1327432500000043,
            "durationTicks": 96,
            "midi": 54,
            "name": "F#3",
            "ticks": 61536,
            "time": 85.08842325,
            "velocity": 0.4881889763779528
          },
          {
            "duration": 0.1327432499999901,
            "durationTicks": 96,
            "midi": 54,
            "name": "F#3",
            "ticks": 61584,
            "time": 85.15479487500001,
            "velocity": 0.4881889763779528
          },
          {
            "duration": 0.1327432499999901,
            "durationTicks": 96,
            "midi": 56,
            "name": "G#3",
            "ticks": 61632,
            "time": 85.22116650000001,
            "velocity": 0.4881889763779528
          },
          {
            "duration": 0.1327432500000043,
            "durationTicks": 96,
            "midi": 56,
            "name": "G#3",
            "ticks": 61680,
            "time": 85.287538125,
            "velocity": 0.4881889763779528
          },
          {
            "duration": 0.3982297499999987,
            "durationTicks": 288,
            "midi": 66,
            "name": "F#4",
            "ticks": 61728,
            "time": 85.35390975,
            "velocity": 0.5433070866141733
          },
          {
            "duration": 0.1327432500000043,
            "durationTicks": 96,
            "midi": 32,
            "name": "G#1",
            "ticks": 61728,
            "time": 85.35390975,
            "velocity": 0.7874015748031497
          },
          {
            "duration": 0.1327432500000043,
            "durationTicks": 96,
            "midi": 54,
            "name": "F#3",
            "ticks": 61728,
            "time": 85.35390975,
            "velocity": 0.4881889763779528
          },
          {
            "duration": 0.1327432500000043,
            "durationTicks": 96,
            "midi": 54,
            "name": "F#3",
            "ticks": 61776,
            "time": 85.420281375,
            "velocity": 0.4881889763779528
          },
          {
            "duration": 0.1327432499999901,
            "durationTicks": 96,
            "midi": 56,
            "name": "G#3",
            "ticks": 61920,
            "time": 85.61939625000001,
            "velocity": 0.4881889763779528
          },
          {
            "duration": 0.1327432499999901,
            "durationTicks": 96,
            "midi": 56,
            "name": "G#3",
            "ticks": 61968,
            "time": 85.68576787500001,
            "velocity": 0.4881889763779528
          },
          {
            "duration": 0.1327432500000043,
            "durationTicks": 96,
            "midi": 32,
            "name": "G#1",
            "ticks": 62016,
            "time": 85.7521395,
            "velocity": 0.7874015748031497
          },
          {
            "duration": 0.1327432500000043,
            "durationTicks": 96,
            "midi": 61,
            "name": "C#4",
            "ticks": 62016,
            "time": 85.7521395,
            "velocity": 0.4881889763779528
          },
          {
            "duration": 0.1327432500000043,
            "durationTicks": 96,
            "midi": 64,
            "name": "E4",
            "ticks": 62016,
            "time": 85.7521395,
            "velocity": 0.5433070866141733
          },
          {
            "duration": 0.1327432500000043,
            "durationTicks": 96,
            "midi": 64,
            "name": "E4",
            "ticks": 62112,
            "time": 85.88488275,
            "velocity": 0.5433070866141733
          },
          {
            "duration": 0.1327432500000043,
            "durationTicks": 96,
            "midi": 61,
            "name": "C#4",
            "ticks": 62112,
            "time": 85.88488275,
            "velocity": 0.4881889763779528
          },
          {
            "duration": 0.1327432500000043,
            "durationTicks": 96,
            "midi": 63,
            "name": "D#4",
            "ticks": 62160,
            "time": 85.951254375,
            "velocity": 0.5433070866141733
          },
          {
            "duration": 0.1327432500000043,
            "durationTicks": 96,
            "midi": 37,
            "name": "C#2",
            "ticks": 62208,
            "time": 86.017626,
            "velocity": 0.7874015748031497
          },
          {
            "duration": 0.1327432500000043,
            "durationTicks": 96,
            "midi": 61,
            "name": "C#4",
            "ticks": 62208,
            "time": 86.017626,
            "velocity": 0.4881889763779528
          },
          {
            "duration": 0.1327432500000043,
            "durationTicks": 96,
            "midi": 63,
            "name": "D#4",
            "ticks": 62208,
            "time": 86.017626,
            "velocity": 0.5433070866141733
          },
          {
            "duration": 0.1327432499999901,
            "durationTicks": 96,
            "midi": 61,
            "name": "C#4",
            "ticks": 62304,
            "time": 86.15036925000001,
            "velocity": 0.5433070866141733
          },
          {
            "duration": 0.1327432499999901,
            "durationTicks": 96,
            "midi": 56,
            "name": "G#3",
            "ticks": 62304,
            "time": 86.15036925000001,
            "velocity": 0.4881889763779528
          },
          {
            "duration": 0.1327432500000043,
            "durationTicks": 96,
            "midi": 56,
            "name": "G#3",
            "ticks": 62400,
            "time": 86.2831125,
            "velocity": 0.4881889763779528
          },
          {
            "duration": 0.1327432500000043,
            "durationTicks": 96,
            "midi": 61,
            "name": "C#4",
            "ticks": 62400,
            "time": 86.2831125,
            "velocity": 0.5433070866141733
          },
          {
            "duration": 0.2654864999999944,
            "durationTicks": 192,
            "midi": 54,
            "name": "F#3",
            "ticks": 62496,
            "time": 86.41585575,
            "velocity": 0.4881889763779528
          },
          {
            "duration": 0.1327432500000043,
            "durationTicks": 96,
            "midi": 39,
            "name": "D#2",
            "ticks": 62496,
            "time": 86.41585575,
            "velocity": 0.7874015748031497
          },
          {
            "duration": 0.2654864999999944,
            "durationTicks": 192,
            "midi": 61,
            "name": "C#4",
            "ticks": 62496,
            "time": 86.41585575,
            "velocity": 0.5433070866141733
          },
          {
            "duration": 0.1327432500000043,
            "durationTicks": 96,
            "midi": 61,
            "name": "C#4",
            "ticks": 62688,
            "time": 86.68134225,
            "velocity": 0.5433070866141733
          },
          {
            "duration": 0.1327432500000043,
            "durationTicks": 96,
            "midi": 54,
            "name": "F#3",
            "ticks": 62688,
            "time": 86.68134225,
            "velocity": 0.4881889763779528
          },
          {
            "duration": 0.1327432500000043,
            "durationTicks": 96,
            "midi": 63,
            "name": "D#4",
            "ticks": 62736,
            "time": 86.747713875,
            "velocity": 0.5433070866141733
          },
          {
            "duration": 0.2654864999999944,
            "durationTicks": 192,
            "midi": 63,
            "name": "D#4",
            "ticks": 62784,
            "time": 86.8140855,
            "velocity": 0.5433070866141733
          },
          {
            "duration": 0.2654864999999944,
            "durationTicks": 192,
            "midi": 42,
            "name": "F#2",
            "ticks": 62784,
            "time": 86.8140855,
            "velocity": 0.7874015748031497
          },
          {
            "duration": 0.2654864999999944,
            "durationTicks": 192,
            "midi": 56,
            "name": "G#3",
            "ticks": 62784,
            "time": 86.8140855,
            "velocity": 0.4881889763779528
          },
          {
            "duration": 0.1327432500000043,
            "durationTicks": 96,
            "midi": 92,
            "name": "G#6",
            "ticks": 62976,
            "time": 87.079572,
            "velocity": 0.6850393700787402
          },
          {
            "duration": 0.1327432500000043,
            "durationTicks": 96,
            "midi": 52,
            "name": "E3",
            "ticks": 62976,
            "time": 87.079572,
            "velocity": 0.4881889763779528
          },
          {
            "duration": 0.1327432500000043,
            "durationTicks": 96,
            "midi": 61,
            "name": "C#4",
            "ticks": 62976,
            "time": 87.079572,
            "velocity": 0.5433070866141733
          },
          {
            "duration": 0.1327432500000043,
            "durationTicks": 96,
            "midi": 33,
            "name": "A1",
            "ticks": 62976,
            "time": 87.079572,
            "velocity": 0.7874015748031497
          },
          {
            "duration": 0.1327432500000043,
            "durationTicks": 96,
            "midi": 52,
            "name": "E3",
            "ticks": 63024,
            "time": 87.145943625,
            "velocity": 0.4881889763779528
          },
          {
            "duration": 0.1327432500000043,
            "durationTicks": 96,
            "midi": 61,
            "name": "C#4",
            "ticks": 63024,
            "time": 87.145943625,
            "velocity": 0.5433070866141733
          },
          {
            "duration": 0.1327432500000043,
            "durationTicks": 96,
            "midi": 64,
            "name": "E4",
            "ticks": 63072,
            "time": 87.21231525,
            "velocity": 0.5433070866141733
          },
          {
            "duration": 0.1327432500000043,
            "durationTicks": 96,
            "midi": 56,
            "name": "G#3",
            "ticks": 63072,
            "time": 87.21231525,
            "velocity": 0.4881889763779528
          },
          {
            "duration": 0.1327432500000043,
            "durationTicks": 96,
            "midi": 37,
            "name": "C#2",
            "ticks": 63072,
            "time": 87.21231525,
            "velocity": 0.7874015748031497
          },
          {
            "duration": 0.1327432500000043,
            "durationTicks": 96,
            "midi": 56,
            "name": "G#3",
            "ticks": 63120,
            "time": 87.278686875,
            "velocity": 0.4881889763779528
          },
          {
            "duration": 0.1327432500000043,
            "durationTicks": 96,
            "midi": 64,
            "name": "E4",
            "ticks": 63120,
            "time": 87.278686875,
            "velocity": 0.5433070866141733
          },
          {
            "duration": 0.1327432499999901,
            "durationTicks": 96,
            "midi": 63,
            "name": "D#4",
            "ticks": 63168,
            "time": 87.34505850000001,
            "velocity": 0.5433070866141733
          },
          {
            "duration": 0.1327432499999901,
            "durationTicks": 96,
            "midi": 54,
            "name": "F#3",
            "ticks": 63168,
            "time": 87.34505850000001,
            "velocity": 0.4881889763779528
          },
          {
            "duration": 0.1327432499999901,
            "durationTicks": 96,
            "midi": 85,
            "name": "C#6",
            "ticks": 63168,
            "time": 87.34505850000001,
            "velocity": 0.6850393700787402
          },
          {
            "duration": 0.1327432499999901,
            "durationTicks": 96,
            "midi": 40,
            "name": "E2",
            "ticks": 63168,
            "time": 87.34505850000001,
            "velocity": 0.7874015748031497
          },
          {
            "duration": 0.1327432499999901,
            "durationTicks": 96,
            "midi": 54,
            "name": "F#3",
            "ticks": 63216,
            "time": 87.41143012500001,
            "velocity": 0.4881889763779528
          },
          {
            "duration": 0.1327432499999901,
            "durationTicks": 96,
            "midi": 63,
            "name": "D#4",
            "ticks": 63216,
            "time": 87.41143012500001,
            "velocity": 0.5433070866141733
          },
          {
            "duration": 0.2654865000000086,
            "durationTicks": 192,
            "midi": 45,
            "name": "A2",
            "ticks": 63264,
            "time": 87.47780175,
            "velocity": 0.7874015748031497
          },
          {
            "duration": 0.1327432500000043,
            "durationTicks": 96,
            "midi": 64,
            "name": "E4",
            "ticks": 63264,
            "time": 87.47780175,
            "velocity": 0.5433070866141733
          },
          {
            "duration": 0.1327432500000043,
            "durationTicks": 96,
            "midi": 56,
            "name": "G#3",
            "ticks": 63264,
            "time": 87.47780175,
            "velocity": 0.4881889763779528
          },
          {
            "duration": 0.1327432500000043,
            "durationTicks": 96,
            "midi": 64,
            "name": "E4",
            "ticks": 63312,
            "time": 87.544173375,
            "velocity": 0.5433070866141733
          },
          {
            "duration": 0.1327432500000043,
            "durationTicks": 96,
            "midi": 56,
            "name": "G#3",
            "ticks": 63312,
            "time": 87.544173375,
            "velocity": 0.4881889763779528
          },
          {
            "duration": 0.1327432500000043,
            "durationTicks": 96,
            "midi": 52,
            "name": "E3",
            "ticks": 63360,
            "time": 87.610545,
            "velocity": 0.4881889763779528
          },
          {
            "duration": 0.1327432500000043,
            "durationTicks": 96,
            "midi": 61,
            "name": "C#4",
            "ticks": 63360,
            "time": 87.610545,
            "velocity": 0.5433070866141733
          },
          {
            "duration": 0.1327432500000043,
            "durationTicks": 96,
            "midi": 61,
            "name": "C#4",
            "ticks": 63408,
            "time": 87.676916625,
            "velocity": 0.5433070866141733
          },
          {
            "duration": 0.1327432500000043,
            "durationTicks": 96,
            "midi": 52,
            "name": "E3",
            "ticks": 63408,
            "time": 87.676916625,
            "velocity": 0.4881889763779528
          },
          {
            "duration": 0.1327432500000043,
            "durationTicks": 96,
            "midi": 44,
            "name": "G#2",
            "ticks": 63456,
            "time": 87.74328825,
            "velocity": 0.7874015748031497
          },
          {
            "duration": 0.1327432500000043,
            "durationTicks": 96,
            "midi": 88,
            "name": "E6",
            "ticks": 63456,
            "time": 87.74328825,
            "velocity": 0.6850393700787402
          },
          {
            "duration": 0.1327432500000043,
            "durationTicks": 96,
            "midi": 61,
            "name": "C#4",
            "ticks": 63456,
            "time": 87.74328825,
            "velocity": 0.5433070866141733
          },
          {
            "duration": 0.1327432500000043,
            "durationTicks": 96,
            "midi": 52,
            "name": "E3",
            "ticks": 63456,
            "time": 87.74328825,
            "velocity": 0.4881889763779528
          },
          {
            "duration": 0.1327432499999901,
            "durationTicks": 96,
            "midi": 52,
            "name": "E3",
            "ticks": 63504,
            "time": 87.80965987500001,
            "velocity": 0.4881889763779528
          },
          {
            "duration": 0.1327432499999901,
            "durationTicks": 96,
            "midi": 61,
            "name": "C#4",
            "ticks": 63504,
            "time": 87.80965987500001,
            "velocity": 0.5433070866141733
          },
          {
            "duration": 0.1327432499999901,
            "durationTicks": 96,
            "midi": 40,
            "name": "E2",
            "ticks": 63552,
            "time": 87.87603150000001,
            "velocity": 0.7874015748031497
          },
          {
            "duration": 0.1327432500000043,
            "durationTicks": 96,
            "midi": 37,
            "name": "C#2",
            "ticks": 63648,
            "time": 88.00877475,
            "velocity": 0.7874015748031497
          },
          {
            "duration": 0.2654865000000086,
            "durationTicks": 192,
            "midi": 61,
            "name": "C#4",
            "ticks": 63648,
            "time": 88.00877475,
            "velocity": 0.5433070866141733
          },
          {
            "duration": 0.2654865000000086,
            "durationTicks": 192,
            "midi": 52,
            "name": "E3",
            "ticks": 63648,
            "time": 88.00877475,
            "velocity": 0.4881889763779528
          },
          {
            "duration": 0.1327432500000043,
            "durationTicks": 96,
            "midi": 92,
            "name": "G#6",
            "ticks": 63648,
            "time": 88.00877475,
            "velocity": 0.6850393700787402
          },
          {
            "duration": 0.1327432500000043,
            "durationTicks": 96,
            "midi": 33,
            "name": "A1",
            "ticks": 63744,
            "time": 88.141518,
            "velocity": 0.7874015748031497
          },
          {
            "duration": 0.1327432499999901,
            "durationTicks": 96,
            "midi": 85,
            "name": "C#6",
            "ticks": 63840,
            "time": 88.27426125000001,
            "velocity": 0.6850393700787402
          },
          {
            "duration": 0.1327432499999901,
            "durationTicks": 96,
            "midi": 54,
            "name": "F#3",
            "ticks": 63840,
            "time": 88.27426125000001,
            "velocity": 0.4881889763779528
          },
          {
            "duration": 0.1327432499999901,
            "durationTicks": 96,
            "midi": 63,
            "name": "D#4",
            "ticks": 63840,
            "time": 88.27426125000001,
            "velocity": 0.5433070866141733
          },
          {
            "duration": 0.1327432499999901,
            "durationTicks": 96,
            "midi": 54,
            "name": "F#3",
            "ticks": 63888,
            "time": 88.34063287500001,
            "velocity": 0.4881889763779528
          },
          {
            "duration": 0.1327432499999901,
            "durationTicks": 96,
            "midi": 63,
            "name": "D#4",
            "ticks": 63888,
            "time": 88.34063287500001,
            "velocity": 0.5433070866141733
          },
          {
            "duration": 0.1327432500000043,
            "durationTicks": 96,
            "midi": 33,
            "name": "A1",
            "ticks": 63936,
            "time": 88.4070045,
            "velocity": 0.7874015748031497
          },
          {
            "duration": 0.1327432500000043,
            "durationTicks": 96,
            "midi": 56,
            "name": "G#3",
            "ticks": 63936,
            "time": 88.4070045,
            "velocity": 0.4881889763779528
          },
          {
            "duration": 0.1327432500000043,
            "durationTicks": 96,
            "midi": 64,
            "name": "E4",
            "ticks": 63936,
            "time": 88.4070045,
            "velocity": 0.5433070866141733
          },
          {
            "duration": 0.1327432500000043,
            "durationTicks": 96,
            "midi": 56,
            "name": "G#3",
            "ticks": 63984,
            "time": 88.473376125,
            "velocity": 0.4881889763779528
          },
          {
            "duration": 0.1327432500000043,
            "durationTicks": 96,
            "midi": 64,
            "name": "E4",
            "ticks": 63984,
            "time": 88.473376125,
            "velocity": 0.5433070866141733
          },
          {
            "duration": 0.1327432500000043,
            "durationTicks": 96,
            "midi": 64,
            "name": "E4",
            "ticks": 64032,
            "time": 88.53974775,
            "velocity": 0.4881889763779528
          },
          {
            "duration": 0.1327432500000043,
            "durationTicks": 96,
            "midi": 33,
            "name": "A1",
            "ticks": 64032,
            "time": 88.53974775,
            "velocity": 0.7874015748031497
          },
          {
            "duration": 0.1327432500000043,
            "durationTicks": 96,
            "midi": 71,
            "name": "B4",
            "ticks": 64032,
            "time": 88.53974775,
            "velocity": 0.5433070866141733
          },
          {
            "duration": 0.1327432500000043,
            "durationTicks": 96,
            "midi": 64,
            "name": "E4",
            "ticks": 64080,
            "time": 88.606119375,
            "velocity": 0.4881889763779528
          },
          {
            "duration": 0.1327432500000043,
            "durationTicks": 96,
            "midi": 71,
            "name": "B4",
            "ticks": 64080,
            "time": 88.606119375,
            "velocity": 0.5433070866141733
          },
          {
            "duration": 0.1327432499999901,
            "durationTicks": 96,
            "midi": 68,
            "name": "G#4",
            "ticks": 64128,
            "time": 88.67249100000001,
            "velocity": 0.5433070866141733
          },
          {
            "duration": 0.1327432499999901,
            "durationTicks": 96,
            "midi": 61,
            "name": "C#4",
            "ticks": 64128,
            "time": 88.67249100000001,
            "velocity": 0.4881889763779528
          },
          {
            "duration": 0.1327432499999901,
            "durationTicks": 96,
            "midi": 68,
            "name": "G#4",
            "ticks": 64176,
            "time": 88.73886262500001,
            "velocity": 0.5433070866141733
          },
          {
            "duration": 0.1327432499999901,
            "durationTicks": 96,
            "midi": 61,
            "name": "C#4",
            "ticks": 64176,
            "time": 88.73886262500001,
            "velocity": 0.4881889763779528
          },
          {
            "duration": 0.1327432500000043,
            "durationTicks": 96,
            "midi": 68,
            "name": "G#4",
            "ticks": 64224,
            "time": 88.80523425,
            "velocity": 0.5433070866141733
          },
          {
            "duration": 0.1327432500000043,
            "durationTicks": 96,
            "midi": 61,
            "name": "C#4",
            "ticks": 64224,
            "time": 88.80523425,
            "velocity": 0.4881889763779528
          },
          {
            "duration": 0.1327432500000043,
            "durationTicks": 96,
            "midi": 88,
            "name": "E6",
            "ticks": 64224,
            "time": 88.80523425,
            "velocity": 0.6850393700787402
          },
          {
            "duration": 0.1327432500000043,
            "durationTicks": 96,
            "midi": 68,
            "name": "G#4",
            "ticks": 64272,
            "time": 88.871605875,
            "velocity": 0.5433070866141733
          },
          {
            "duration": 0.1327432500000043,
            "durationTicks": 96,
            "midi": 61,
            "name": "C#4",
            "ticks": 64272,
            "time": 88.871605875,
            "velocity": 0.4881889763779528
          },
          {
            "duration": 0.2654865000000086,
            "durationTicks": 192,
            "midi": 35,
            "name": "B1",
            "ticks": 64320,
            "time": 88.9379775,
            "velocity": 0.7874015748031497
          },
          {
            "duration": 0.1327432499999901,
            "durationTicks": 96,
            "midi": 52,
            "name": "E3",
            "ticks": 64512,
            "time": 89.20346400000001,
            "velocity": 0.4881889763779528
          },
          {
            "duration": 0.1327432499999901,
            "durationTicks": 96,
            "midi": 92,
            "name": "G#6",
            "ticks": 64512,
            "time": 89.20346400000001,
            "velocity": 0.6850393700787402
          },
          {
            "duration": 0.1327432499999901,
            "durationTicks": 96,
            "midi": 61,
            "name": "C#4",
            "ticks": 64512,
            "time": 89.20346400000001,
            "velocity": 0.5433070866141733
          },
          {
            "duration": 0.1327432499999901,
            "durationTicks": 96,
            "midi": 33,
            "name": "A1",
            "ticks": 64512,
            "time": 89.20346400000001,
            "velocity": 0.7874015748031497
          },
          {
            "duration": 0.1327432500000043,
            "durationTicks": 96,
            "midi": 52,
            "name": "E3",
            "ticks": 64560,
            "time": 89.269835625,
            "velocity": 0.4881889763779528
          },
          {
            "duration": 0.1327432500000043,
            "durationTicks": 96,
            "midi": 61,
            "name": "C#4",
            "ticks": 64560,
            "time": 89.269835625,
            "velocity": 0.5433070866141733
          },
          {
            "duration": 0.1327432500000043,
            "durationTicks": 96,
            "midi": 64,
            "name": "E4",
            "ticks": 64608,
            "time": 89.33620725,
            "velocity": 0.5433070866141733
          },
          {
            "duration": 0.1327432500000043,
            "durationTicks": 96,
            "midi": 56,
            "name": "G#3",
            "ticks": 64608,
            "time": 89.33620725,
            "velocity": 0.4881889763779528
          },
          {
            "duration": 0.1327432500000043,
            "durationTicks": 96,
            "midi": 37,
            "name": "C#2",
            "ticks": 64608,
            "time": 89.33620725,
            "velocity": 0.7874015748031497
          },
          {
            "duration": 0.1327432500000043,
            "durationTicks": 96,
            "midi": 56,
            "name": "G#3",
            "ticks": 64656,
            "time": 89.402578875,
            "velocity": 0.4881889763779528
          },
          {
            "duration": 0.1327432500000043,
            "durationTicks": 96,
            "midi": 64,
            "name": "E4",
            "ticks": 64656,
            "time": 89.402578875,
            "velocity": 0.5433070866141733
          },
          {
            "duration": 0.1327432500000043,
            "durationTicks": 96,
            "midi": 54,
            "name": "F#3",
            "ticks": 64704,
            "time": 89.4689505,
            "velocity": 0.4881889763779528
          },
          {
            "duration": 0.1327432500000043,
            "durationTicks": 96,
            "midi": 63,
            "name": "D#4",
            "ticks": 64704,
            "time": 89.4689505,
            "velocity": 0.5433070866141733
          },
          {
            "duration": 0.1327432500000043,
            "durationTicks": 96,
            "midi": 40,
            "name": "E2",
            "ticks": 64704,
            "time": 89.4689505,
            "velocity": 0.7874015748031497
          },
          {
            "duration": 0.1327432500000043,
            "durationTicks": 96,
            "midi": 85,
            "name": "C#6",
            "ticks": 64704,
            "time": 89.4689505,
            "velocity": 0.6850393700787402
          },
          {
            "duration": 0.1327432500000043,
            "durationTicks": 96,
            "midi": 54,
            "name": "F#3",
            "ticks": 64752,
            "time": 89.53532212500001,
            "velocity": 0.4881889763779528
          },
          {
            "duration": 0.1327432500000043,
            "durationTicks": 96,
            "midi": 63,
            "name": "D#4",
            "ticks": 64752,
            "time": 89.53532212500001,
            "velocity": 0.5433070866141733
          },
          {
            "duration": 0.1327432499999901,
            "durationTicks": 96,
            "midi": 56,
            "name": "G#3",
            "ticks": 64800,
            "time": 89.60169375000001,
            "velocity": 0.4881889763779528
          },
          {
            "duration": 0.1327432499999901,
            "durationTicks": 96,
            "midi": 64,
            "name": "E4",
            "ticks": 64800,
            "time": 89.60169375000001,
            "velocity": 0.5433070866141733
          },
          {
            "duration": 0.2654864999999944,
            "durationTicks": 192,
            "midi": 45,
            "name": "A2",
            "ticks": 64800,
            "time": 89.60169375000001,
            "velocity": 0.7874015748031497
          },
          {
            "duration": 0.1327432499999901,
            "durationTicks": 96,
            "midi": 64,
            "name": "E4",
            "ticks": 64848,
            "time": 89.66806537500001,
            "velocity": 0.5433070866141733
          },
          {
            "duration": 0.1327432499999901,
            "durationTicks": 96,
            "midi": 56,
            "name": "G#3",
            "ticks": 64848,
            "time": 89.66806537500001,
            "velocity": 0.4881889763779528
          },
          {
            "duration": 0.1327432500000043,
            "durationTicks": 96,
            "midi": 61,
            "name": "C#4",
            "ticks": 64896,
            "time": 89.734437,
            "velocity": 0.5433070866141733
          },
          {
            "duration": 0.1327432500000043,
            "durationTicks": 96,
            "midi": 52,
            "name": "E3",
            "ticks": 64896,
            "time": 89.734437,
            "velocity": 0.4881889763779528
          },
          {
            "duration": 0.1327432500000043,
            "durationTicks": 96,
            "midi": 61,
            "name": "C#4",
            "ticks": 64944,
            "time": 89.800808625,
            "velocity": 0.5433070866141733
          },
          {
            "duration": 0.1327432500000043,
            "durationTicks": 96,
            "midi": 52,
            "name": "E3",
            "ticks": 64944,
            "time": 89.800808625,
            "velocity": 0.4881889763779528
          },
          {
            "duration": 0.1327432500000043,
            "durationTicks": 96,
            "midi": 61,
            "name": "C#4",
            "ticks": 64992,
            "time": 89.86718025,
            "velocity": 0.5433070866141733
          },
          {
            "duration": 0.1327432500000043,
            "durationTicks": 96,
            "midi": 88,
            "name": "E6",
            "ticks": 64992,
            "time": 89.86718025,
            "velocity": 0.6850393700787402
          },
          {
            "duration": 0.1327432500000043,
            "durationTicks": 96,
            "midi": 44,
            "name": "G#2",
            "ticks": 64992,
            "time": 89.86718025,
            "velocity": 0.7874015748031497
          },
          {
            "duration": 0.1327432500000043,
            "durationTicks": 96,
            "midi": 52,
            "name": "E3",
            "ticks": 64992,
            "time": 89.86718025,
            "velocity": 0.4881889763779528
          },
          {
            "duration": 0.1327432500000043,
            "durationTicks": 96,
            "midi": 52,
            "name": "E3",
            "ticks": 65040,
            "time": 89.933551875,
            "velocity": 0.4881889763779528
          },
          {
            "duration": 0.1327432500000043,
            "durationTicks": 96,
            "midi": 61,
            "name": "C#4",
            "ticks": 65040,
            "time": 89.933551875,
            "velocity": 0.5433070866141733
          },
          {
            "duration": 0.1327432499999901,
            "durationTicks": 96,
            "midi": 92,
            "name": "G#6",
            "ticks": 65088,
            "time": 89.99992350000001,
            "velocity": 0.6850393700787402
          },
          {
            "duration": 0.1327432499999901,
            "durationTicks": 96,
            "midi": 40,
            "name": "E2",
            "ticks": 65088,
            "time": 89.99992350000001,
            "velocity": 0.7874015748031497
          },
          {
            "duration": 0.2654865000000086,
            "durationTicks": 192,
            "midi": 61,
            "name": "C#4",
            "ticks": 65184,
            "time": 90.13266675,
            "velocity": 0.5433070866141733
          },
          {
            "duration": 0.2654865000000086,
            "durationTicks": 192,
            "midi": 52,
            "name": "E3",
            "ticks": 65184,
            "time": 90.13266675,
            "velocity": 0.4881889763779528
          },
          {
            "duration": 0.1327432500000043,
            "durationTicks": 96,
            "midi": 37,
            "name": "C#2",
            "ticks": 65184,
            "time": 90.13266675,
            "velocity": 0.7874015748031497
          },
          {
            "duration": 0.1327432500000043,
            "durationTicks": 96,
            "midi": 33,
            "name": "A1",
            "ticks": 65280,
            "time": 90.26541,
            "velocity": 0.7874015748031497
          },
          {
            "duration": 0.1327432500000043,
            "durationTicks": 96,
            "midi": 95,
            "name": "B6",
            "ticks": 65280,
            "time": 90.26541,
            "velocity": 0.6850393700787402
          },
          {
            "duration": 0.1327432500000043,
            "durationTicks": 96,
            "midi": 63,
            "name": "D#4",
            "ticks": 65376,
            "time": 90.39815325000001,
            "velocity": 0.5433070866141733
          },
          {
            "duration": 0.1327432500000043,
            "durationTicks": 96,
            "midi": 54,
            "name": "F#3",
            "ticks": 65376,
            "time": 90.39815325000001,
            "velocity": 0.4881889763779528
          },
          {
            "duration": 0.1327432499999901,
            "durationTicks": 96,
            "midi": 54,
            "name": "F#3",
            "ticks": 65424,
            "time": 90.46452487500001,
            "velocity": 0.4881889763779528
          },
          {
            "duration": 0.1327432499999901,
            "durationTicks": 96,
            "midi": 63,
            "name": "D#4",
            "ticks": 65424,
            "time": 90.46452487500001,
            "velocity": 0.5433070866141733
          },
          {
            "duration": 0.1327432499999901,
            "durationTicks": 96,
            "midi": 56,
            "name": "G#3",
            "ticks": 65472,
            "time": 90.53089650000001,
            "velocity": 0.4881889763779528
          },
          {
            "duration": 0.1327432499999901,
            "durationTicks": 96,
            "midi": 64,
            "name": "E4",
            "ticks": 65472,
            "time": 90.53089650000001,
            "velocity": 0.5433070866141733
          },
          {
            "duration": 0.1327432499999901,
            "durationTicks": 96,
            "midi": 90,
            "name": "F#6",
            "ticks": 65472,
            "time": 90.53089650000001,
            "velocity": 0.6850393700787402
          },
          {
            "duration": 0.1327432499999901,
            "durationTicks": 96,
            "midi": 33,
            "name": "A1",
            "ticks": 65472,
            "time": 90.53089650000001,
            "velocity": 0.7874015748031497
          },
          {
            "duration": 0.1327432500000043,
            "durationTicks": 96,
            "midi": 64,
            "name": "E4",
            "ticks": 65520,
            "time": 90.597268125,
            "velocity": 0.5433070866141733
          },
          {
            "duration": 0.1327432500000043,
            "durationTicks": 96,
            "midi": 56,
            "name": "G#3",
            "ticks": 65520,
            "time": 90.597268125,
            "velocity": 0.4881889763779528
          },
          {
            "duration": 0.1327432500000043,
            "durationTicks": 96,
            "midi": 71,
            "name": "B4",
            "ticks": 65568,
            "time": 90.66363975,
            "velocity": 0.5433070866141733
          },
          {
            "duration": 0.1327432500000043,
            "durationTicks": 96,
            "midi": 64,
            "name": "E4",
            "ticks": 65568,
            "time": 90.66363975,
            "velocity": 0.4881889763779528
          },
          {
            "duration": 0.1327432500000043,
            "durationTicks": 96,
            "midi": 33,
            "name": "A1",
            "ticks": 65568,
            "time": 90.66363975,
            "velocity": 0.7874015748031497
          },
          {
            "duration": 0.1327432500000043,
            "durationTicks": 96,
            "midi": 92,
            "name": "G#6",
            "ticks": 65568,
            "time": 90.66363975,
            "velocity": 0.6850393700787402
          },
          {
            "duration": 0.1327432500000043,
            "durationTicks": 96,
            "midi": 64,
            "name": "E4",
            "ticks": 65616,
            "time": 90.730011375,
            "velocity": 0.4881889763779528
          },
          {
            "duration": 0.1327432500000043,
            "durationTicks": 96,
            "midi": 71,
            "name": "B4",
            "ticks": 65616,
            "time": 90.730011375,
            "velocity": 0.5433070866141733
          },
          {
            "duration": 0.1327432500000043,
            "durationTicks": 96,
            "midi": 68,
            "name": "G#4",
            "ticks": 65664,
            "time": 90.796383,
            "velocity": 0.5433070866141733
          },
          {
            "duration": 0.1327432500000043,
            "durationTicks": 96,
            "midi": 61,
            "name": "C#4",
            "ticks": 65664,
            "time": 90.796383,
            "velocity": 0.4881889763779528
          },
          {
            "duration": 0.1327432499999901,
            "durationTicks": 96,
            "midi": 61,
            "name": "C#4",
            "ticks": 65712,
            "time": 90.86275462500001,
            "velocity": 0.4881889763779528
          },
          {
            "duration": 0.1327432499999901,
            "durationTicks": 96,
            "midi": 68,
            "name": "G#4",
            "ticks": 65712,
            "time": 90.86275462500001,
            "velocity": 0.5433070866141733
          },
          {
            "duration": 0.1327432499999901,
            "durationTicks": 96,
            "midi": 85,
            "name": "C#6",
            "ticks": 65760,
            "time": 90.92912625000001,
            "velocity": 0.6850393700787402
          },
          {
            "duration": 0.1327432499999901,
            "durationTicks": 96,
            "midi": 68,
            "name": "G#4",
            "ticks": 65760,
            "time": 90.92912625000001,
            "velocity": 0.5433070866141733
          },
          {
            "duration": 0.1327432499999901,
            "durationTicks": 96,
            "midi": 61,
            "name": "C#4",
            "ticks": 65760,
            "time": 90.92912625000001,
            "velocity": 0.4881889763779528
          },
          {
            "duration": 0.1327432500000043,
            "durationTicks": 96,
            "midi": 61,
            "name": "C#4",
            "ticks": 65808,
            "time": 90.995497875,
            "velocity": 0.4881889763779528
          },
          {
            "duration": 0.1327432500000043,
            "durationTicks": 96,
            "midi": 68,
            "name": "G#4",
            "ticks": 65808,
            "time": 90.995497875,
            "velocity": 0.5433070866141733
          },
          {
            "duration": 0.2654865000000086,
            "durationTicks": 192,
            "midi": 35,
            "name": "B1",
            "ticks": 65856,
            "time": 91.0618695,
            "velocity": 0.7874015748031497
          },
          {
            "duration": 0.1327432500000043,
            "durationTicks": 96,
            "midi": 88,
            "name": "E6",
            "ticks": 65856,
            "time": 91.0618695,
            "velocity": 0.6850393700787402
          },
          {
            "duration": 0.1327432499999901,
            "durationTicks": 96,
            "midi": 37,
            "name": "C#2",
            "ticks": 66048,
            "time": 91.32735600000001,
            "velocity": 0.7874015748031497
          },
          {
            "duration": 0.1327432499999901,
            "durationTicks": 96,
            "midi": 61,
            "name": "C#4",
            "ticks": 66048,
            "time": 91.32735600000001,
            "velocity": 0.5433070866141733
          },
          {
            "duration": 0.1327432499999901,
            "durationTicks": 96,
            "midi": 52,
            "name": "E3",
            "ticks": 66048,
            "time": 91.32735600000001,
            "velocity": 0.4881889763779528
          },
          {
            "duration": 0.1327432499999901,
            "durationTicks": 96,
            "midi": 61,
            "name": "C#4",
            "ticks": 66096,
            "time": 91.39372762500001,
            "velocity": 0.5433070866141733
          },
          {
            "duration": 0.1327432499999901,
            "durationTicks": 96,
            "midi": 52,
            "name": "E3",
            "ticks": 66096,
            "time": 91.39372762500001,
            "velocity": 0.4881889763779528
          },
          {
            "duration": 0.1327432500000043,
            "durationTicks": 96,
            "midi": 40,
            "name": "E2",
            "ticks": 66144,
            "time": 91.46009925,
            "velocity": 0.7874015748031497
          },
          {
            "duration": 0.1327432500000043,
            "durationTicks": 96,
            "midi": 56,
            "name": "G#3",
            "ticks": 66144,
            "time": 91.46009925,
            "velocity": 0.4881889763779528
          },
          {
            "duration": 0.1327432500000043,
            "durationTicks": 96,
            "midi": 64,
            "name": "E4",
            "ticks": 66144,
            "time": 91.46009925,
            "velocity": 0.5433070866141733
          },
          {
            "duration": 0.1327432500000043,
            "durationTicks": 96,
            "midi": 64,
            "name": "E4",
            "ticks": 66192,
            "time": 91.526470875,
            "velocity": 0.5433070866141733
          },
          {
            "duration": 0.1327432500000043,
            "durationTicks": 96,
            "midi": 56,
            "name": "G#3",
            "ticks": 66192,
            "time": 91.526470875,
            "velocity": 0.4881889763779528
          },
          {
            "duration": 0.1327432500000043,
            "durationTicks": 96,
            "midi": 54,
            "name": "F#3",
            "ticks": 66240,
            "time": 91.5928425,
            "velocity": 0.4881889763779528
          },
          {
            "duration": 0.1327432500000043,
            "durationTicks": 96,
            "midi": 63,
            "name": "D#4",
            "ticks": 66240,
            "time": 91.5928425,
            "velocity": 0.5433070866141733
          },
          {
            "duration": 0.1327432500000043,
            "durationTicks": 96,
            "midi": 44,
            "name": "G#2",
            "ticks": 66240,
            "time": 91.5928425,
            "velocity": 0.7874015748031497
          },
          {
            "duration": 0.1327432500000043,
            "durationTicks": 96,
            "midi": 54,
            "name": "F#3",
            "ticks": 66288,
            "time": 91.659214125,
            "velocity": 0.4881889763779528
          },
          {
            "duration": 0.1327432500000043,
            "durationTicks": 96,
            "midi": 63,
            "name": "D#4",
            "ticks": 66288,
            "time": 91.659214125,
            "velocity": 0.5433070866141733
          },
          {
            "duration": 0.2654864999999944,
            "durationTicks": 192,
            "midi": 49,
            "name": "C#3",
            "ticks": 66336,
            "time": 91.72558575000001,
            "velocity": 0.7874015748031497
          },
          {
            "duration": 0.1327432500000043,
            "durationTicks": 96,
            "midi": 56,
            "name": "G#3",
            "ticks": 66336,
            "time": 91.72558575000001,
            "velocity": 0.4881889763779528
          },
          {
            "duration": 0.1327432500000043,
            "durationTicks": 96,
            "midi": 64,
            "name": "E4",
            "ticks": 66336,
            "time": 91.72558575000001,
            "velocity": 0.5433070866141733
          },
          {
            "duration": 0.1327432499999901,
            "durationTicks": 96,
            "midi": 64,
            "name": "E4",
            "ticks": 66384,
            "time": 91.79195737500001,
            "velocity": 0.5433070866141733
          },
          {
            "duration": 0.1327432499999901,
            "durationTicks": 96,
            "midi": 56,
            "name": "G#3",
            "ticks": 66384,
            "time": 91.79195737500001,
            "velocity": 0.4881889763779528
          },
          {
            "duration": 0.1327432499999901,
            "durationTicks": 96,
            "midi": 52,
            "name": "E3",
            "ticks": 66432,
            "time": 91.85832900000001,
            "velocity": 0.4881889763779528
          },
          {
            "duration": 0.1327432499999901,
            "durationTicks": 96,
            "midi": 61,
            "name": "C#4",
            "ticks": 66432,
            "time": 91.85832900000001,
            "velocity": 0.5433070866141733
          },
          {
            "duration": 0.1327432500000043,
            "durationTicks": 96,
            "midi": 61,
            "name": "C#4",
            "ticks": 66480,
            "time": 91.924700625,
            "velocity": 0.5433070866141733
          },
          {
            "duration": 0.1327432500000043,
            "durationTicks": 96,
            "midi": 52,
            "name": "E3",
            "ticks": 66480,
            "time": 91.924700625,
            "velocity": 0.4881889763779528
          },
          {
            "duration": 0.1327432500000043,
            "durationTicks": 96,
            "midi": 52,
            "name": "E3",
            "ticks": 66528,
            "time": 91.99107225,
            "velocity": 0.4881889763779528
          },
          {
            "duration": 0.1327432500000043,
            "durationTicks": 96,
            "midi": 61,
            "name": "C#4",
            "ticks": 66528,
            "time": 91.99107225,
            "velocity": 0.5433070866141733
          },
          {
            "duration": 0.1327432500000043,
            "durationTicks": 96,
            "midi": 47,
            "name": "B2",
            "ticks": 66528,
            "time": 91.99107225,
            "velocity": 0.7874015748031497
          },
          {
            "duration": 0.1327432500000043,
            "durationTicks": 96,
            "midi": 52,
            "name": "E3",
            "ticks": 66576,
            "time": 92.057443875,
            "velocity": 0.4881889763779528
          },
          {
            "duration": 0.1327432500000043,
            "durationTicks": 96,
            "midi": 61,
            "name": "C#4",
            "ticks": 66576,
            "time": 92.057443875,
            "velocity": 0.5433070866141733
          },
          {
            "duration": 0.1327432500000043,
            "durationTicks": 96,
            "midi": 44,
            "name": "G#2",
            "ticks": 66624,
            "time": 92.1238155,
            "velocity": 0.7874015748031497
          },
          {
            "duration": 0.2654864999999944,
            "durationTicks": 192,
            "midi": 52,
            "name": "E3",
            "ticks": 66720,
            "time": 92.25655875000001,
            "velocity": 0.4881889763779528
          },
          {
            "duration": 0.2654864999999944,
            "durationTicks": 192,
            "midi": 61,
            "name": "C#4",
            "ticks": 66720,
            "time": 92.25655875000001,
            "velocity": 0.5433070866141733
          },
          {
            "duration": 0.1327432499999901,
            "durationTicks": 96,
            "midi": 40,
            "name": "E2",
            "ticks": 66720,
            "time": 92.25655875000001,
            "velocity": 0.7874015748031497
          },
          {
            "duration": 0.1327432500000043,
            "durationTicks": 96,
            "midi": 37,
            "name": "C#2",
            "ticks": 66816,
            "time": 92.389302,
            "velocity": 0.7874015748031497
          },
          {
            "duration": 0.1327432500000043,
            "durationTicks": 96,
            "midi": 63,
            "name": "D#4",
            "ticks": 66912,
            "time": 92.52204525,
            "velocity": 0.5433070866141733
          },
          {
            "duration": 0.1327432500000043,
            "durationTicks": 96,
            "midi": 54,
            "name": "F#3",
            "ticks": 66912,
            "time": 92.52204525,
            "velocity": 0.4881889763779528
          },
          {
            "duration": 0.1327432500000043,
            "durationTicks": 96,
            "midi": 54,
            "name": "F#3",
            "ticks": 66960,
            "time": 92.58841687500001,
            "velocity": 0.4881889763779528
          },
          {
            "duration": 0.1327432500000043,
            "durationTicks": 96,
            "midi": 63,
            "name": "D#4",
            "ticks": 66960,
            "time": 92.58841687500001,
            "velocity": 0.5433070866141733
          },
          {
            "duration": 0.1327432499999901,
            "durationTicks": 96,
            "midi": 64,
            "name": "E4",
            "ticks": 67008,
            "time": 92.65478850000001,
            "velocity": 0.5433070866141733
          },
          {
            "duration": 0.1327432499999901,
            "durationTicks": 96,
            "midi": 37,
            "name": "C#2",
            "ticks": 67008,
            "time": 92.65478850000001,
            "velocity": 0.7874015748031497
          },
          {
            "duration": 0.1327432499999901,
            "durationTicks": 96,
            "midi": 56,
            "name": "G#3",
            "ticks": 67008,
            "time": 92.65478850000001,
            "velocity": 0.4881889763779528
          },
          {
            "duration": 0.1327432499999901,
            "durationTicks": 96,
            "midi": 64,
            "name": "E4",
            "ticks": 67056,
            "time": 92.72116012500001,
            "velocity": 0.5433070866141733
          },
          {
            "duration": 0.1327432499999901,
            "durationTicks": 96,
            "midi": 56,
            "name": "G#3",
            "ticks": 67056,
            "time": 92.72116012500001,
            "velocity": 0.4881889763779528
          },
          {
            "duration": 0.1327432500000043,
            "durationTicks": 96,
            "midi": 71,
            "name": "B4",
            "ticks": 67104,
            "time": 92.78753175,
            "velocity": 0.5433070866141733
          },
          {
            "duration": 0.1327432500000043,
            "durationTicks": 96,
            "midi": 37,
            "name": "C#2",
            "ticks": 67104,
            "time": 92.78753175,
            "velocity": 0.7874015748031497
          },
          {
            "duration": 0.1327432500000043,
            "durationTicks": 96,
            "midi": 64,
            "name": "E4",
            "ticks": 67104,
            "time": 92.78753175,
            "velocity": 0.4881889763779528
          },
          {
            "duration": 0.1327432500000043,
            "durationTicks": 96,
            "midi": 64,
            "name": "E4",
            "ticks": 67152,
            "time": 92.853903375,
            "velocity": 0.4881889763779528
          },
          {
            "duration": 0.1327432500000043,
            "durationTicks": 96,
            "midi": 71,
            "name": "B4",
            "ticks": 67152,
            "time": 92.853903375,
            "velocity": 0.5433070866141733
          },
          {
            "duration": 0.1327432500000043,
            "durationTicks": 96,
            "midi": 61,
            "name": "C#4",
            "ticks": 67200,
            "time": 92.920275,
            "velocity": 0.4881889763779528
          },
          {
            "duration": 0.1327432500000043,
            "durationTicks": 96,
            "midi": 68,
            "name": "G#4",
            "ticks": 67200,
            "time": 92.920275,
            "velocity": 0.5433070866141733
          },
          {
            "duration": 0.1327432500000043,
            "durationTicks": 96,
            "midi": 68,
            "name": "G#4",
            "ticks": 67248,
            "time": 92.986646625,
            "velocity": 0.5433070866141733
          },
          {
            "duration": 0.1327432500000043,
            "durationTicks": 96,
            "midi": 61,
            "name": "C#4",
            "ticks": 67248,
            "time": 92.986646625,
            "velocity": 0.4881889763779528
          },
          {
            "duration": 0.1327432499999901,
            "durationTicks": 96,
            "midi": 61,
            "name": "C#4",
            "ticks": 67296,
            "time": 93.05301825000001,
            "velocity": 0.4881889763779528
          },
          {
            "duration": 0.1327432499999901,
            "durationTicks": 96,
            "midi": 68,
            "name": "G#4",
            "ticks": 67296,
            "time": 93.05301825000001,
            "velocity": 0.5433070866141733
          },
          {
            "duration": 0.1327432499999901,
            "durationTicks": 96,
            "midi": 61,
            "name": "C#4",
            "ticks": 67344,
            "time": 93.11938987500001,
            "velocity": 0.4881889763779528
          },
          {
            "duration": 0.1327432499999901,
            "durationTicks": 96,
            "midi": 68,
            "name": "G#4",
            "ticks": 67344,
            "time": 93.11938987500001,
            "velocity": 0.5433070866141733
          },
          {
            "duration": 0.2654865000000086,
            "durationTicks": 192,
            "midi": 35,
            "name": "B1",
            "ticks": 67392,
            "time": 93.1857615,
            "velocity": 0.7874015748031497
          },
          {
            "duration": 0.1327432500000043,
            "durationTicks": 96,
            "midi": 32,
            "name": "G#1",
            "ticks": 67584,
            "time": 93.451248,
            "velocity": 0.7874015748031497
          },
          {
            "duration": 0.1327432500000043,
            "durationTicks": 96,
            "midi": 51,
            "name": "D#3",
            "ticks": 67584,
            "time": 93.451248,
            "velocity": 0.4881889763779528
          },
          {
            "duration": 0.3982297499999987,
            "durationTicks": 288,
            "midi": 59,
            "name": "B3",
            "ticks": 67584,
            "time": 93.451248,
            "velocity": 0.5433070866141733
          },
          {
            "duration": 0.1327432499999901,
            "durationTicks": 96,
            "midi": 51,
            "name": "D#3",
            "ticks": 67632,
            "time": 93.51761962500001,
            "velocity": 0.4881889763779528
          },
          {
            "duration": 0.1327432499999901,
            "durationTicks": 96,
            "midi": 54,
            "name": "F#3",
            "ticks": 67680,
            "time": 93.58399125000001,
            "velocity": 0.4881889763779528
          },
          {
            "duration": 0.1327432500000043,
            "durationTicks": 96,
            "midi": 54,
            "name": "F#3",
            "ticks": 67728,
            "time": 93.650362875,
            "velocity": 0.4881889763779528
          },
          {
            "duration": 0.1327432500000043,
            "durationTicks": 96,
            "midi": 56,
            "name": "G#3",
            "ticks": 67776,
            "time": 93.7167345,
            "velocity": 0.4881889763779528
          },
          {
            "duration": 0.1327432500000043,
            "durationTicks": 96,
            "midi": 56,
            "name": "G#3",
            "ticks": 67824,
            "time": 93.783106125,
            "velocity": 0.4881889763779528
          },
          {
            "duration": 0.1327432500000043,
            "durationTicks": 96,
            "midi": 54,
            "name": "F#3",
            "ticks": 67872,
            "time": 93.84947775,
            "velocity": 0.4881889763779528
          },
          {
            "duration": 0.3982297499999987,
            "durationTicks": 288,
            "midi": 66,
            "name": "F#4",
            "ticks": 67872,
            "time": 93.84947775,
            "velocity": 0.5433070866141733
          },
          {
            "duration": 0.1327432500000043,
            "durationTicks": 96,
            "midi": 32,
            "name": "G#1",
            "ticks": 67872,
            "time": 93.84947775,
            "velocity": 0.7874015748031497
          },
          {
            "duration": 0.1327432500000043,
            "durationTicks": 96,
            "midi": 54,
            "name": "F#3",
            "ticks": 67920,
            "time": 93.91584937500001,
            "velocity": 0.4881889763779528
          },
          {
            "duration": 0.1327432500000043,
            "durationTicks": 96,
            "midi": 56,
            "name": "G#3",
            "ticks": 68064,
            "time": 94.11496425,
            "velocity": 0.4881889763779528
          },
          {
            "duration": 0.1327432500000043,
            "durationTicks": 96,
            "midi": 56,
            "name": "G#3",
            "ticks": 68112,
            "time": 94.181335875,
            "velocity": 0.4881889763779528
          },
          {
            "duration": 0.1327432500000043,
            "durationTicks": 96,
            "midi": 64,
            "name": "E4",
            "ticks": 68160,
            "time": 94.2477075,
            "velocity": 0.5433070866141733
          },
          {
            "duration": 0.1327432500000043,
            "durationTicks": 96,
            "midi": 59,
            "name": "B3",
            "ticks": 68160,
            "time": 94.2477075,
            "velocity": 0.4881889763779528
          },
          {
            "duration": 0.1327432500000043,
            "durationTicks": 96,
            "midi": 32,
            "name": "G#1",
            "ticks": 68160,
            "time": 94.2477075,
            "velocity": 0.7874015748031497
          },
          {
            "duration": 0.1327432499999901,
            "durationTicks": 96,
            "midi": 64,
            "name": "E4",
            "ticks": 68256,
            "time": 94.38045075000001,
            "velocity": 0.5433070866141733
          },
          {
            "duration": 0.1327432499999901,
            "durationTicks": 96,
            "midi": 59,
            "name": "B3",
            "ticks": 68256,
            "time": 94.38045075000001,
            "velocity": 0.4881889763779528
          },
          {
            "duration": 0.1327432499999901,
            "durationTicks": 96,
            "midi": 63,
            "name": "D#4",
            "ticks": 68304,
            "time": 94.44682237500001,
            "velocity": 0.5433070866141733
          },
          {
            "duration": 0.1327432500000043,
            "durationTicks": 96,
            "midi": 63,
            "name": "D#4",
            "ticks": 68352,
            "time": 94.513194,
            "velocity": 0.5433070866141733
          },
          {
            "duration": 0.1327432500000043,
            "durationTicks": 96,
            "midi": 59,
            "name": "B3",
            "ticks": 68352,
            "time": 94.513194,
            "velocity": 0.4881889763779528
          },
          {
            "duration": 0.1327432500000043,
            "durationTicks": 96,
            "midi": 35,
            "name": "B1",
            "ticks": 68352,
            "time": 94.513194,
            "velocity": 0.7874015748031497
          },
          {
            "duration": 0.1327432500000043,
            "durationTicks": 96,
            "midi": 61,
            "name": "C#4",
            "ticks": 68448,
            "time": 94.64593725,
            "velocity": 0.5433070866141733
          },
          {
            "duration": 0.1327432500000043,
            "durationTicks": 96,
            "midi": 56,
            "name": "G#3",
            "ticks": 68448,
            "time": 94.64593725,
            "velocity": 0.4881889763779528
          },
          {
            "duration": 0.1327432500000043,
            "durationTicks": 96,
            "midi": 56,
            "name": "G#3",
            "ticks": 68544,
            "time": 94.77868050000001,
            "velocity": 0.4881889763779528
          },
          {
            "duration": 0.1327432500000043,
            "durationTicks": 96,
            "midi": 61,
            "name": "C#4",
            "ticks": 68544,
            "time": 94.77868050000001,
            "velocity": 0.5433070866141733
          },
          {
            "duration": 0.1327432499999901,
            "durationTicks": 96,
            "midi": 39,
            "name": "D#2",
            "ticks": 68640,
            "time": 94.91142375000001,
            "velocity": 0.7874015748031497
          },
          {
            "duration": 0.2654864999999944,
            "durationTicks": 192,
            "midi": 59,
            "name": "B3",
            "ticks": 68640,
            "time": 94.91142375000001,
            "velocity": 0.5433070866141733
          },
          {
            "duration": 0.2654864999999944,
            "durationTicks": 192,
            "midi": 54,
            "name": "F#3",
            "ticks": 68640,
            "time": 94.91142375000001,
            "velocity": 0.4881889763779528
          },
          {
            "duration": 0.1327432500000043,
            "durationTicks": 96,
            "midi": 54,
            "name": "F#3",
            "ticks": 68832,
            "time": 95.17691025,
            "velocity": 0.4881889763779528
          },
          {
            "duration": 0.1327432500000043,
            "durationTicks": 96,
            "midi": 61,
            "name": "C#4",
            "ticks": 68832,
            "time": 95.17691025,
            "velocity": 0.5433070866141733
          },
          {
            "duration": 0.1327432499999901,
            "durationTicks": 96,
            "midi": 63,
            "name": "D#4",
            "ticks": 68880,
            "time": 95.24328187500001,
            "velocity": 0.5433070866141733
          },
          {
            "duration": 0.2654864999999944,
            "durationTicks": 192,
            "midi": 59,
            "name": "B3",
            "ticks": 68928,
            "time": 95.30965350000001,
            "velocity": 0.4881889763779528
          },
          {
            "duration": 0.2654864999999944,
            "durationTicks": 192,
            "midi": 42,
            "name": "F#2",
            "ticks": 68928,
            "time": 95.30965350000001,
            "velocity": 0.7874015748031497
          },
          {
            "duration": 0.2654864999999944,
            "durationTicks": 192,
            "midi": 63,
            "name": "D#4",
            "ticks": 68928,
            "time": 95.30965350000001,
            "velocity": 0.5433070866141733
          },
          {
            "duration": 0.1327432500000043,
            "durationTicks": 96,
            "midi": 52,
            "name": "E3",
            "ticks": 69120,
            "time": 95.57514,
            "velocity": 0.4881889763779528
          },
          {
            "duration": 0.1327432500000043,
            "durationTicks": 96,
            "midi": 92,
            "name": "G#6",
            "ticks": 69120,
            "time": 95.57514,
            "velocity": 0.6850393700787402
          },
          {
            "duration": 0.1327432500000043,
            "durationTicks": 96,
            "midi": 61,
            "name": "C#4",
            "ticks": 69120,
            "time": 95.57514,
            "velocity": 0.5433070866141733
          },
          {
            "duration": 0.1327432500000043,
            "durationTicks": 96,
            "midi": 33,
            "name": "A1",
            "ticks": 69120,
            "time": 95.57514,
            "velocity": 0.7874015748031497
          },
          {
            "duration": 0.1327432500000043,
            "durationTicks": 96,
            "midi": 61,
            "name": "C#4",
            "ticks": 69168,
            "time": 95.641511625,
            "velocity": 0.5433070866141733
          },
          {
            "duration": 0.1327432500000043,
            "durationTicks": 96,
            "midi": 52,
            "name": "E3",
            "ticks": 69168,
            "time": 95.641511625,
            "velocity": 0.4881889763779528
          },
          {
            "duration": 0.1327432499999901,
            "durationTicks": 96,
            "midi": 64,
            "name": "E4",
            "ticks": 69216,
            "time": 95.70788325000001,
            "velocity": 0.5433070866141733
          },
          {
            "duration": 0.1327432499999901,
            "durationTicks": 96,
            "midi": 37,
            "name": "C#2",
            "ticks": 69216,
            "time": 95.70788325000001,
            "velocity": 0.7874015748031497
          },
          {
            "duration": 0.1327432499999901,
            "durationTicks": 96,
            "midi": 56,
            "name": "G#3",
            "ticks": 69216,
            "time": 95.70788325000001,
            "velocity": 0.4881889763779528
          },
          {
            "duration": 0.1327432499999901,
            "durationTicks": 96,
            "midi": 56,
            "name": "G#3",
            "ticks": 69264,
            "time": 95.77425487500001,
            "velocity": 0.4881889763779528
          },
          {
            "duration": 0.1327432499999901,
            "durationTicks": 96,
            "midi": 64,
            "name": "E4",
            "ticks": 69264,
            "time": 95.77425487500001,
            "velocity": 0.5433070866141733
          },
          {
            "duration": 0.1327432500000043,
            "durationTicks": 96,
            "midi": 85,
            "name": "C#6",
            "ticks": 69312,
            "time": 95.8406265,
            "velocity": 0.6850393700787402
          },
          {
            "duration": 0.1327432500000043,
            "durationTicks": 96,
            "midi": 40,
            "name": "E2",
            "ticks": 69312,
            "time": 95.8406265,
            "velocity": 0.7874015748031497
          },
          {
            "duration": 0.1327432500000043,
            "durationTicks": 96,
            "midi": 63,
            "name": "D#4",
            "ticks": 69312,
            "time": 95.8406265,
            "velocity": 0.5433070866141733
          },
          {
            "duration": 0.1327432500000043,
            "durationTicks": 96,
            "midi": 54,
            "name": "F#3",
            "ticks": 69312,
            "time": 95.8406265,
            "velocity": 0.4881889763779528
          },
          {
            "duration": 0.1327432500000043,
            "durationTicks": 96,
            "midi": 54,
            "name": "F#3",
            "ticks": 69360,
            "time": 95.906998125,
            "velocity": 0.4881889763779528
          },
          {
            "duration": 0.1327432500000043,
            "durationTicks": 96,
            "midi": 63,
            "name": "D#4",
            "ticks": 69360,
            "time": 95.906998125,
            "velocity": 0.5433070866141733
          },
          {
            "duration": 0.2654865000000086,
            "durationTicks": 192,
            "midi": 45,
            "name": "A2",
            "ticks": 69408,
            "time": 95.97336975,
            "velocity": 0.7874015748031497
          },
          {
            "duration": 0.1327432500000043,
            "durationTicks": 96,
            "midi": 56,
            "name": "G#3",
            "ticks": 69408,
            "time": 95.97336975,
            "velocity": 0.4881889763779528
          },
          {
            "duration": 0.1327432500000043,
            "durationTicks": 96,
            "midi": 64,
            "name": "E4",
            "ticks": 69408,
            "time": 95.97336975,
            "velocity": 0.5433070866141733
          },
          {
            "duration": 0.1327432500000043,
            "durationTicks": 96,
            "midi": 56,
            "name": "G#3",
            "ticks": 69456,
            "time": 96.039741375,
            "velocity": 0.4881889763779528
          },
          {
            "duration": 0.1327432500000043,
            "durationTicks": 96,
            "midi": 64,
            "name": "E4",
            "ticks": 69456,
            "time": 96.039741375,
            "velocity": 0.5433070866141733
          },
          {
            "duration": 0.1327432500000043,
            "durationTicks": 96,
            "midi": 52,
            "name": "E3",
            "ticks": 69504,
            "time": 96.10611300000001,
            "velocity": 0.4881889763779528
          },
          {
            "duration": 0.1327432500000043,
            "durationTicks": 96,
            "midi": 61,
            "name": "C#4",
            "ticks": 69504,
            "time": 96.10611300000001,
            "velocity": 0.5433070866141733
          },
          {
            "duration": 0.1327432499999901,
            "durationTicks": 96,
            "midi": 52,
            "name": "E3",
            "ticks": 69552,
            "time": 96.17248462500001,
            "velocity": 0.4881889763779528
          },
          {
            "duration": 0.1327432499999901,
            "durationTicks": 96,
            "midi": 61,
            "name": "C#4",
            "ticks": 69552,
            "time": 96.17248462500001,
            "velocity": 0.5433070866141733
          },
          {
            "duration": 0.1327432499999901,
            "durationTicks": 96,
            "midi": 88,
            "name": "E6",
            "ticks": 69600,
            "time": 96.23885625000001,
            "velocity": 0.6850393700787402
          },
          {
            "duration": 0.1327432499999901,
            "durationTicks": 96,
            "midi": 44,
            "name": "G#2",
            "ticks": 69600,
            "time": 96.23885625000001,
            "velocity": 0.7874015748031497
          },
          {
            "duration": 0.1327432499999901,
            "durationTicks": 96,
            "midi": 61,
            "name": "C#4",
            "ticks": 69600,
            "time": 96.23885625000001,
            "velocity": 0.5433070866141733
          },
          {
            "duration": 0.1327432499999901,
            "durationTicks": 96,
            "midi": 52,
            "name": "E3",
            "ticks": 69600,
            "time": 96.23885625000001,
            "velocity": 0.4881889763779528
          },
          {
            "duration": 0.1327432500000043,
            "durationTicks": 96,
            "midi": 52,
            "name": "E3",
            "ticks": 69648,
            "time": 96.305227875,
            "velocity": 0.4881889763779528
          },
          {
            "duration": 0.1327432500000043,
            "durationTicks": 96,
            "midi": 61,
            "name": "C#4",
            "ticks": 69648,
            "time": 96.305227875,
            "velocity": 0.5433070866141733
          },
          {
            "duration": 0.1327432500000043,
            "durationTicks": 96,
            "midi": 40,
            "name": "E2",
            "ticks": 69696,
            "time": 96.3715995,
            "velocity": 0.7874015748031497
          },
          {
            "duration": 0.2654864999999944,
            "durationTicks": 192,
            "midi": 52,
            "name": "E3",
            "ticks": 69792,
            "time": 96.50434275,
            "velocity": 0.4881889763779528
          },
          {
            "duration": 0.2654864999999944,
            "durationTicks": 192,
            "midi": 61,
            "name": "C#4",
            "ticks": 69792,
            "time": 96.50434275,
            "velocity": 0.5433070866141733
          },
          {
            "duration": 0.1327432500000043,
            "durationTicks": 96,
            "midi": 37,
            "name": "C#2",
            "ticks": 69792,
            "time": 96.50434275,
            "velocity": 0.7874015748031497
          },
          {
            "duration": 0.1327432500000043,
            "durationTicks": 96,
            "midi": 92,
            "name": "G#6",
            "ticks": 69792,
            "time": 96.50434275,
            "velocity": 0.6850393700787402
          },
          {
            "duration": 0.1327432499999901,
            "durationTicks": 96,
            "midi": 33,
            "name": "A1",
            "ticks": 69888,
            "time": 96.63708600000001,
            "velocity": 0.7874015748031497
          },
          {
            "duration": 0.1327432500000043,
            "durationTicks": 96,
            "midi": 54,
            "name": "F#3",
            "ticks": 69984,
            "time": 96.76982925,
            "velocity": 0.4881889763779528
          },
          {
            "duration": 0.1327432500000043,
            "durationTicks": 96,
            "midi": 63,
            "name": "D#4",
            "ticks": 69984,
            "time": 96.76982925,
            "velocity": 0.5433070866141733
          },
          {
            "duration": 0.1327432500000043,
            "durationTicks": 96,
            "midi": 85,
            "name": "C#6",
            "ticks": 69984,
            "time": 96.76982925,
            "velocity": 0.6850393700787402
          },
          {
            "duration": 0.1327432500000043,
            "durationTicks": 96,
            "midi": 63,
            "name": "D#4",
            "ticks": 70032,
            "time": 96.836200875,
            "velocity": 0.5433070866141733
          },
          {
            "duration": 0.1327432500000043,
            "durationTicks": 96,
            "midi": 54,
            "name": "F#3",
            "ticks": 70032,
            "time": 96.836200875,
            "velocity": 0.4881889763779528
          },
          {
            "duration": 0.1327432500000043,
            "durationTicks": 96,
            "midi": 33,
            "name": "A1",
            "ticks": 70080,
            "time": 96.9025725,
            "velocity": 0.7874015748031497
          },
          {
            "duration": 0.1327432500000043,
            "durationTicks": 96,
            "midi": 56,
            "name": "G#3",
            "ticks": 70080,
            "time": 96.9025725,
            "velocity": 0.4881889763779528
          },
          {
            "duration": 0.1327432500000043,
            "durationTicks": 96,
            "midi": 64,
            "name": "E4",
            "ticks": 70080,
            "time": 96.9025725,
            "velocity": 0.5433070866141733
          },
          {
            "duration": 0.1327432500000043,
            "durationTicks": 96,
            "midi": 64,
            "name": "E4",
            "ticks": 70128,
            "time": 96.96894412500001,
            "velocity": 0.5433070866141733
          },
          {
            "duration": 0.1327432500000043,
            "durationTicks": 96,
            "midi": 56,
            "name": "G#3",
            "ticks": 70128,
            "time": 96.96894412500001,
            "velocity": 0.4881889763779528
          },
          {
            "duration": 0.1327432499999901,
            "durationTicks": 96,
            "midi": 71,
            "name": "B4",
            "ticks": 70176,
            "time": 97.03531575000001,
            "velocity": 0.5433070866141733
          },
          {
            "duration": 0.1327432499999901,
            "durationTicks": 96,
            "midi": 64,
            "name": "E4",
            "ticks": 70176,
            "time": 97.03531575000001,
            "velocity": 0.4881889763779528
          },
          {
            "duration": 0.1327432499999901,
            "durationTicks": 96,
            "midi": 33,
            "name": "A1",
            "ticks": 70176,
            "time": 97.03531575000001,
            "velocity": 0.7874015748031497
          },
          {
            "duration": 0.1327432499999901,
            "durationTicks": 96,
            "midi": 71,
            "name": "B4",
            "ticks": 70224,
            "time": 97.10168737500001,
            "velocity": 0.5433070866141733
          },
          {
            "duration": 0.1327432499999901,
            "durationTicks": 96,
            "midi": 64,
            "name": "E4",
            "ticks": 70224,
            "time": 97.10168737500001,
            "velocity": 0.4881889763779528
          },
          {
            "duration": 0.1327432500000043,
            "durationTicks": 96,
            "midi": 61,
            "name": "C#4",
            "ticks": 70272,
            "time": 97.168059,
            "velocity": 0.4881889763779528
          },
          {
            "duration": 0.1327432500000043,
            "durationTicks": 96,
            "midi": 68,
            "name": "G#4",
            "ticks": 70272,
            "time": 97.168059,
            "velocity": 0.5433070866141733
          },
          {
            "duration": 0.1327432500000043,
            "durationTicks": 96,
            "midi": 61,
            "name": "C#4",
            "ticks": 70320,
            "time": 97.234430625,
            "velocity": 0.4881889763779528
          },
          {
            "duration": 0.1327432500000043,
            "durationTicks": 96,
            "midi": 68,
            "name": "G#4",
            "ticks": 70320,
            "time": 97.234430625,
            "velocity": 0.5433070866141733
          },
          {
            "duration": 0.1327432500000043,
            "durationTicks": 96,
            "midi": 88,
            "name": "E6",
            "ticks": 70368,
            "time": 97.30080225,
            "velocity": 0.6850393700787402
          },
          {
            "duration": 0.1327432500000043,
            "durationTicks": 96,
            "midi": 68,
            "name": "G#4",
            "ticks": 70368,
            "time": 97.30080225,
            "velocity": 0.5433070866141733
          },
          {
            "duration": 0.1327432500000043,
            "durationTicks": 96,
            "midi": 61,
            "name": "C#4",
            "ticks": 70368,
            "time": 97.30080225,
            "velocity": 0.4881889763779528
          },
          {
            "duration": 0.1327432500000043,
            "durationTicks": 96,
            "midi": 61,
            "name": "C#4",
            "ticks": 70416,
            "time": 97.367173875,
            "velocity": 0.4881889763779528
          },
          {
            "duration": 0.1327432500000043,
            "durationTicks": 96,
            "midi": 68,
            "name": "G#4",
            "ticks": 70416,
            "time": 97.367173875,
            "velocity": 0.5433070866141733
          },
          {
            "duration": 0.2654864999999944,
            "durationTicks": 192,
            "midi": 35,
            "name": "B1",
            "ticks": 70464,
            "time": 97.43354550000001,
            "velocity": 0.7874015748031497
          },
          {
            "duration": 0.1327432500000043,
            "durationTicks": 96,
            "midi": 52,
            "name": "E3",
            "ticks": 70656,
            "time": 97.699032,
            "velocity": 0.4881889763779528
          },
          {
            "duration": 0.1327432500000043,
            "durationTicks": 96,
            "midi": 92,
            "name": "G#6",
            "ticks": 70656,
            "time": 97.699032,
            "velocity": 0.6850393700787402
          },
          {
            "duration": 0.1327432500000043,
            "durationTicks": 96,
            "midi": 33,
            "name": "A1",
            "ticks": 70656,
            "time": 97.699032,
            "velocity": 0.7874015748031497
          },
          {
            "duration": 0.1327432500000043,
            "durationTicks": 96,
            "midi": 61,
            "name": "C#4",
            "ticks": 70656,
            "time": 97.699032,
            "velocity": 0.5433070866141733
          },
          {
            "duration": 0.1327432500000043,
            "durationTicks": 96,
            "midi": 52,
            "name": "E3",
            "ticks": 70704,
            "time": 97.765403625,
            "velocity": 0.4881889763779528
          },
          {
            "duration": 0.1327432500000043,
            "durationTicks": 96,
            "midi": 61,
            "name": "C#4",
            "ticks": 70704,
            "time": 97.765403625,
            "velocity": 0.5433070866141733
          },
          {
            "duration": 0.1327432500000043,
            "durationTicks": 96,
            "midi": 64,
            "name": "E4",
            "ticks": 70752,
            "time": 97.83177525,
            "velocity": 0.5433070866141733
          },
          {
            "duration": 0.1327432500000043,
            "durationTicks": 96,
            "midi": 37,
            "name": "C#2",
            "ticks": 70752,
            "time": 97.83177525,
            "velocity": 0.7874015748031497
          },
          {
            "duration": 0.1327432500000043,
            "durationTicks": 96,
            "midi": 56,
            "name": "G#3",
            "ticks": 70752,
            "time": 97.83177525,
            "velocity": 0.4881889763779528
          },
          {
            "duration": 0.1327432499999901,
            "durationTicks": 96,
            "midi": 64,
            "name": "E4",
            "ticks": 70800,
            "time": 97.89814687500001,
            "velocity": 0.5433070866141733
          },
          {
            "duration": 0.1327432499999901,
            "durationTicks": 96,
            "midi": 56,
            "name": "G#3",
            "ticks": 70800,
            "time": 97.89814687500001,
            "velocity": 0.4881889763779528
          },
          {
            "duration": 0.1327432499999901,
            "durationTicks": 96,
            "midi": 40,
            "name": "E2",
            "ticks": 70848,
            "time": 97.96451850000001,
            "velocity": 0.7874015748031497
          },
          {
            "duration": 0.1327432499999901,
            "durationTicks": 96,
            "midi": 63,
            "name": "D#4",
            "ticks": 70848,
            "time": 97.96451850000001,
            "velocity": 0.5433070866141733
          },
          {
            "duration": 0.1327432499999901,
            "durationTicks": 96,
            "midi": 54,
            "name": "F#3",
            "ticks": 70848,
            "time": 97.96451850000001,
            "velocity": 0.4881889763779528
          },
          {
            "duration": 0.1327432499999901,
            "durationTicks": 96,
            "midi": 85,
            "name": "C#6",
            "ticks": 70848,
            "time": 97.96451850000001,
            "velocity": 0.6850393700787402
          },
          {
            "duration": 0.1327432500000043,
            "durationTicks": 96,
            "midi": 63,
            "name": "D#4",
            "ticks": 70896,
            "time": 98.030890125,
            "velocity": 0.5433070866141733
          },
          {
            "duration": 0.1327432500000043,
            "durationTicks": 96,
            "midi": 54,
            "name": "F#3",
            "ticks": 70896,
            "time": 98.030890125,
            "velocity": 0.4881889763779528
          },
          {
            "duration": 0.1327432500000043,
            "durationTicks": 96,
            "midi": 56,
            "name": "G#3",
            "ticks": 70944,
            "time": 98.09726175,
            "velocity": 0.4881889763779528
          },
          {
            "duration": 0.2654865000000086,
            "durationTicks": 192,
            "midi": 45,
            "name": "A2",
            "ticks": 70944,
            "time": 98.09726175,
            "velocity": 0.7874015748031497
          },
          {
            "duration": 0.1327432500000043,
            "durationTicks": 96,
            "midi": 64,
            "name": "E4",
            "ticks": 70944,
            "time": 98.09726175,
            "velocity": 0.5433070866141733
          },
          {
            "duration": 0.1327432500000043,
            "durationTicks": 96,
            "midi": 56,
            "name": "G#3",
            "ticks": 70992,
            "time": 98.163633375,
            "velocity": 0.4881889763779528
          },
          {
            "duration": 0.1327432500000043,
            "durationTicks": 96,
            "midi": 64,
            "name": "E4",
            "ticks": 70992,
            "time": 98.163633375,
            "velocity": 0.5433070866141733
          },
          {
            "duration": 0.1327432500000043,
            "durationTicks": 96,
            "midi": 52,
            "name": "E3",
            "ticks": 71040,
            "time": 98.230005,
            "velocity": 0.4881889763779528
          },
          {
            "duration": 0.1327432500000043,
            "durationTicks": 96,
            "midi": 61,
            "name": "C#4",
            "ticks": 71040,
            "time": 98.230005,
            "velocity": 0.5433070866141733
          },
          {
            "duration": 0.1327432500000043,
            "durationTicks": 96,
            "midi": 61,
            "name": "C#4",
            "ticks": 71088,
            "time": 98.29637662500001,
            "velocity": 0.5433070866141733
          },
          {
            "duration": 0.1327432500000043,
            "durationTicks": 96,
            "midi": 52,
            "name": "E3",
            "ticks": 71088,
            "time": 98.29637662500001,
            "velocity": 0.4881889763779528
          },
          {
            "duration": 0.1327432499999901,
            "durationTicks": 96,
            "midi": 52,
            "name": "E3",
            "ticks": 71136,
            "time": 98.36274825000001,
            "velocity": 0.4881889763779528
          },
          {
            "duration": 0.1327432499999901,
            "durationTicks": 96,
            "midi": 44,
            "name": "G#2",
            "ticks": 71136,
            "time": 98.36274825000001,
            "velocity": 0.7874015748031497
          },
          {
            "duration": 0.1327432499999901,
            "durationTicks": 96,
            "midi": 88,
            "name": "E6",
            "ticks": 71136,
            "time": 98.36274825000001,
            "velocity": 0.6850393700787402
          },
          {
            "duration": 0.1327432499999901,
            "durationTicks": 96,
            "midi": 61,
            "name": "C#4",
            "ticks": 71136,
            "time": 98.36274825000001,
            "velocity": 0.5433070866141733
          },
          {
            "duration": 0.1327432499999901,
            "durationTicks": 96,
            "midi": 52,
            "name": "E3",
            "ticks": 71184,
            "time": 98.42911987500001,
            "velocity": 0.4881889763779528
          },
          {
            "duration": 0.1327432499999901,
            "durationTicks": 96,
            "midi": 61,
            "name": "C#4",
            "ticks": 71184,
            "time": 98.42911987500001,
            "velocity": 0.5433070866141733
          },
          {
            "duration": 0.1327432500000043,
            "durationTicks": 96,
            "midi": 40,
            "name": "E2",
            "ticks": 71232,
            "time": 98.4954915,
            "velocity": 0.7874015748031497
          },
          {
            "duration": 0.1327432500000043,
            "durationTicks": 96,
            "midi": 92,
            "name": "G#6",
            "ticks": 71232,
            "time": 98.4954915,
            "velocity": 0.6850393700787402
          },
          {
            "duration": 0.2654864999999944,
            "durationTicks": 192,
            "midi": 52,
            "name": "E3",
            "ticks": 71328,
            "time": 98.62823475,
            "velocity": 0.4881889763779528
          },
          {
            "duration": 0.2654864999999944,
            "durationTicks": 192,
            "midi": 61,
            "name": "C#4",
            "ticks": 71328,
            "time": 98.62823475,
            "velocity": 0.5433070866141733
          },
          {
            "duration": 0.1327432500000043,
            "durationTicks": 96,
            "midi": 37,
            "name": "C#2",
            "ticks": 71328,
            "time": 98.62823475,
            "velocity": 0.7874015748031497
          },
          {
            "duration": 0.1327432499999901,
            "durationTicks": 96,
            "midi": 95,
            "name": "B6",
            "ticks": 71424,
            "time": 98.76097800000001,
            "velocity": 0.6850393700787402
          },
          {
            "duration": 0.1327432499999901,
            "durationTicks": 96,
            "midi": 33,
            "name": "A1",
            "ticks": 71424,
            "time": 98.76097800000001,
            "velocity": 0.7874015748031497
          },
          {
            "duration": 0.1327432500000043,
            "durationTicks": 96,
            "midi": 54,
            "name": "F#3",
            "ticks": 71520,
            "time": 98.89372125,
            "velocity": 0.4881889763779528
          },
          {
            "duration": 0.1327432500000043,
            "durationTicks": 96,
            "midi": 63,
            "name": "D#4",
            "ticks": 71520,
            "time": 98.89372125,
            "velocity": 0.5433070866141733
          },
          {
            "duration": 0.1327432500000043,
            "durationTicks": 96,
            "midi": 54,
            "name": "F#3",
            "ticks": 71568,
            "time": 98.960092875,
            "velocity": 0.4881889763779528
          },
          {
            "duration": 0.1327432500000043,
            "durationTicks": 96,
            "midi": 63,
            "name": "D#4",
            "ticks": 71568,
            "time": 98.960092875,
            "velocity": 0.5433070866141733
          },
          {
            "duration": 0.1327432500000043,
            "durationTicks": 96,
            "midi": 33,
            "name": "A1",
            "ticks": 71616,
            "time": 99.0264645,
            "velocity": 0.7874015748031497
          },
          {
            "duration": 0.1327432500000043,
            "durationTicks": 96,
            "midi": 64,
            "name": "E4",
            "ticks": 71616,
            "time": 99.0264645,
            "velocity": 0.5433070866141733
          },
          {
            "duration": 0.1327432500000043,
            "durationTicks": 96,
            "midi": 90,
            "name": "F#6",
            "ticks": 71616,
            "time": 99.0264645,
            "velocity": 0.6850393700787402
          },
          {
            "duration": 0.1327432500000043,
            "durationTicks": 96,
            "midi": 56,
            "name": "G#3",
            "ticks": 71616,
            "time": 99.0264645,
            "velocity": 0.4881889763779528
          },
          {
            "duration": 0.1327432500000043,
            "durationTicks": 96,
            "midi": 64,
            "name": "E4",
            "ticks": 71664,
            "time": 99.092836125,
            "velocity": 0.5433070866141733
          },
          {
            "duration": 0.1327432500000043,
            "durationTicks": 96,
            "midi": 56,
            "name": "G#3",
            "ticks": 71664,
            "time": 99.092836125,
            "velocity": 0.4881889763779528
          },
          {
            "duration": 0.1327432500000043,
            "durationTicks": 96,
            "midi": 71,
            "name": "B4",
            "ticks": 71712,
            "time": 99.15920775000001,
            "velocity": 0.5433070866141733
          },
          {
            "duration": 0.1327432500000043,
            "durationTicks": 96,
            "midi": 64,
            "name": "E4",
            "ticks": 71712,
            "time": 99.15920775000001,
            "velocity": 0.4881889763779528
          },
          {
            "duration": 0.1327432500000043,
            "durationTicks": 96,
            "midi": 33,
            "name": "A1",
            "ticks": 71712,
            "time": 99.15920775000001,
            "velocity": 0.7874015748031497
          },
          {
            "duration": 0.1327432500000043,
            "durationTicks": 96,
            "midi": 92,
            "name": "G#6",
            "ticks": 71712,
            "time": 99.15920775000001,
            "velocity": 0.6850393700787402
          },
          {
            "duration": 0.1327432499999901,
            "durationTicks": 96,
            "midi": 71,
            "name": "B4",
            "ticks": 71760,
            "time": 99.22557937500001,
            "velocity": 0.5433070866141733
          },
          {
            "duration": 0.1327432499999901,
            "durationTicks": 96,
            "midi": 64,
            "name": "E4",
            "ticks": 71760,
            "time": 99.22557937500001,
            "velocity": 0.4881889763779528
          },
          {
            "duration": 0.1327432499999901,
            "durationTicks": 96,
            "midi": 61,
            "name": "C#4",
            "ticks": 71808,
            "time": 99.29195100000001,
            "velocity": 0.4881889763779528
          },
          {
            "duration": 0.1327432499999901,
            "durationTicks": 96,
            "midi": 68,
            "name": "G#4",
            "ticks": 71808,
            "time": 99.29195100000001,
            "velocity": 0.5433070866141733
          },
          {
            "duration": 0.1327432500000043,
            "durationTicks": 96,
            "midi": 61,
            "name": "C#4",
            "ticks": 71856,
            "time": 99.358322625,
            "velocity": 0.4881889763779528
          },
          {
            "duration": 0.1327432500000043,
            "durationTicks": 96,
            "midi": 68,
            "name": "G#4",
            "ticks": 71856,
            "time": 99.358322625,
            "velocity": 0.5433070866141733
          },
          {
            "duration": 0.1327432500000043,
            "durationTicks": 96,
            "midi": 61,
            "name": "C#4",
            "ticks": 71904,
            "time": 99.42469425,
            "velocity": 0.4881889763779528
          },
          {
            "duration": 0.1327432500000043,
            "durationTicks": 96,
            "midi": 85,
            "name": "C#6",
            "ticks": 71904,
            "time": 99.42469425,
            "velocity": 0.6850393700787402
          },
          {
            "duration": 0.1327432500000043,
            "durationTicks": 96,
            "midi": 68,
            "name": "G#4",
            "ticks": 71904,
            "time": 99.42469425,
            "velocity": 0.5433070866141733
          },
          {
            "duration": 0.1327432500000043,
            "durationTicks": 96,
            "midi": 68,
            "name": "G#4",
            "ticks": 71952,
            "time": 99.491065875,
            "velocity": 0.5433070866141733
          },
          {
            "duration": 0.1327432500000043,
            "durationTicks": 96,
            "midi": 61,
            "name": "C#4",
            "ticks": 71952,
            "time": 99.491065875,
            "velocity": 0.4881889763779528
          },
          {
            "duration": 0.1327432500000043,
            "durationTicks": 96,
            "midi": 88,
            "name": "E6",
            "ticks": 72000,
            "time": 99.5574375,
            "velocity": 0.6850393700787402
          },
          {
            "duration": 0.2654864999999944,
            "durationTicks": 192,
            "midi": 35,
            "name": "B1",
            "ticks": 72000,
            "time": 99.5574375,
            "velocity": 0.7874015748031497
          },
          {
            "duration": 0.1327432500000043,
            "durationTicks": 96,
            "midi": 61,
            "name": "C#4",
            "ticks": 72192,
            "time": 99.822924,
            "velocity": 0.5433070866141733
          },
          {
            "duration": 0.1327432500000043,
            "durationTicks": 96,
            "midi": 52,
            "name": "E3",
            "ticks": 72192,
            "time": 99.822924,
            "velocity": 0.4881889763779528
          },
          {
            "duration": 0.1327432500000043,
            "durationTicks": 96,
            "midi": 37,
            "name": "C#2",
            "ticks": 72192,
            "time": 99.822924,
            "velocity": 0.7874015748031497
          },
          {
            "duration": 0.1327432500000043,
            "durationTicks": 96,
            "midi": 61,
            "name": "C#4",
            "ticks": 72240,
            "time": 99.889295625,
            "velocity": 0.5433070866141733
          },
          {
            "duration": 0.1327432500000043,
            "durationTicks": 96,
            "midi": 52,
            "name": "E3",
            "ticks": 72240,
            "time": 99.889295625,
            "velocity": 0.4881889763779528
          },
          {
            "duration": 0.1327432500000043,
            "durationTicks": 96,
            "midi": 64,
            "name": "E4",
            "ticks": 72288,
            "time": 99.95566725,
            "velocity": 0.5433070866141733
          },
          {
            "duration": 0.1327432500000043,
            "durationTicks": 96,
            "midi": 40,
            "name": "E2",
            "ticks": 72288,
            "time": 99.95566725,
            "velocity": 0.7874015748031497
          },
          {
            "duration": 0.1327432500000043,
            "durationTicks": 96,
            "midi": 56,
            "name": "G#3",
            "ticks": 72288,
            "time": 99.95566725,
            "velocity": 0.4881889763779528
          },
          {
            "duration": 0.1327432500000043,
            "durationTicks": 96,
            "midi": 56,
            "name": "G#3",
            "ticks": 72336,
            "time": 100.022038875,
            "velocity": 0.4881889763779528
          },
          {
            "duration": 0.1327432500000043,
            "durationTicks": 96,
            "midi": 64,
            "name": "E4",
            "ticks": 72336,
            "time": 100.022038875,
            "velocity": 0.5433070866141733
          },
          {
            "duration": 0.1327432499999901,
            "durationTicks": 96,
            "midi": 54,
            "name": "F#3",
            "ticks": 72384,
            "time": 100.08841050000001,
            "velocity": 0.4881889763779528
          },
          {
            "duration": 0.1327432499999901,
            "durationTicks": 96,
            "midi": 63,
            "name": "D#4",
            "ticks": 72384,
            "time": 100.08841050000001,
            "velocity": 0.5433070866141733
          },
          {
            "duration": 0.1327432499999901,
            "durationTicks": 96,
            "midi": 44,
            "name": "G#2",
            "ticks": 72384,
            "time": 100.08841050000001,
            "velocity": 0.7874015748031497
          },
          {
            "duration": 0.1327432499999901,
            "durationTicks": 96,
            "midi": 54,
            "name": "F#3",
            "ticks": 72432,
            "time": 100.15478212500001,
            "velocity": 0.4881889763779528
          },
          {
            "duration": 0.1327432499999901,
            "durationTicks": 96,
            "midi": 63,
            "name": "D#4",
            "ticks": 72432,
            "time": 100.15478212500001,
            "velocity": 0.5433070866141733
          },
          {
            "duration": 0.1327432500000043,
            "durationTicks": 96,
            "midi": 56,
            "name": "G#3",
            "ticks": 72480,
            "time": 100.22115375,
            "velocity": 0.4881889763779528
          },
          {
            "duration": 0.2654865000000086,
            "durationTicks": 192,
            "midi": 49,
            "name": "C#3",
            "ticks": 72480,
            "time": 100.22115375,
            "velocity": 0.7874015748031497
          },
          {
            "duration": 0.1327432500000043,
            "durationTicks": 96,
            "midi": 64,
            "name": "E4",
            "ticks": 72480,
            "time": 100.22115375,
            "velocity": 0.5433070866141733
          },
          {
            "duration": 0.1327432500000043,
            "durationTicks": 96,
            "midi": 64,
            "name": "E4",
            "ticks": 72528,
            "time": 100.287525375,
            "velocity": 0.5433070866141733
          },
          {
            "duration": 0.1327432500000043,
            "durationTicks": 96,
            "midi": 56,
            "name": "G#3",
            "ticks": 72528,
            "time": 100.287525375,
            "velocity": 0.4881889763779528
          },
          {
            "duration": 0.1327432500000043,
            "durationTicks": 96,
            "midi": 52,
            "name": "E3",
            "ticks": 72576,
            "time": 100.353897,
            "velocity": 0.4881889763779528
          },
          {
            "duration": 0.1327432500000043,
            "durationTicks": 96,
            "midi": 61,
            "name": "C#4",
            "ticks": 72576,
            "time": 100.353897,
            "velocity": 0.5433070866141733
          },
          {
            "duration": 0.1327432500000043,
            "durationTicks": 96,
            "midi": 61,
            "name": "C#4",
            "ticks": 72624,
            "time": 100.420268625,
            "velocity": 0.5433070866141733
          },
          {
            "duration": 0.1327432500000043,
            "durationTicks": 96,
            "midi": 52,
            "name": "E3",
            "ticks": 72624,
            "time": 100.420268625,
            "velocity": 0.4881889763779528
          },
          {
            "duration": 0.1327432500000043,
            "durationTicks": 96,
            "midi": 52,
            "name": "E3",
            "ticks": 72672,
            "time": 100.48664025000001,
            "velocity": 0.4881889763779528
          },
          {
            "duration": 0.1327432500000043,
            "durationTicks": 96,
            "midi": 61,
            "name": "C#4",
            "ticks": 72672,
            "time": 100.48664025000001,
            "velocity": 0.5433070866141733
          },
          {
            "duration": 0.1327432500000043,
            "durationTicks": 96,
            "midi": 47,
            "name": "B2",
            "ticks": 72672,
            "time": 100.48664025000001,
            "velocity": 0.7874015748031497
          },
          {
            "duration": 0.1327432499999901,
            "durationTicks": 96,
            "midi": 52,
            "name": "E3",
            "ticks": 72720,
            "time": 100.55301187500001,
            "velocity": 0.4881889763779528
          },
          {
            "duration": 0.1327432499999901,
            "durationTicks": 96,
            "midi": 61,
            "name": "C#4",
            "ticks": 72720,
            "time": 100.55301187500001,
            "velocity": 0.5433070866141733
          },
          {
            "duration": 0.1327432499999901,
            "durationTicks": 96,
            "midi": 44,
            "name": "G#2",
            "ticks": 72768,
            "time": 100.61938350000001,
            "velocity": 0.7874015748031497
          },
          {
            "duration": 0.2654865000000086,
            "durationTicks": 192,
            "midi": 52,
            "name": "E3",
            "ticks": 72864,
            "time": 100.75212675,
            "velocity": 0.4881889763779528
          },
          {
            "duration": 0.1327432500000043,
            "durationTicks": 96,
            "midi": 40,
            "name": "E2",
            "ticks": 72864,
            "time": 100.75212675,
            "velocity": 0.7874015748031497
          },
          {
            "duration": 0.2654865000000086,
            "durationTicks": 192,
            "midi": 61,
            "name": "C#4",
            "ticks": 72864,
            "time": 100.75212675,
            "velocity": 0.5433070866141733
          },
          {
            "duration": 0.1327432500000043,
            "durationTicks": 96,
            "midi": 37,
            "name": "C#2",
            "ticks": 72960,
            "time": 100.88487,
            "velocity": 0.7874015748031497
          },
          {
            "duration": 0.1327432499999901,
            "durationTicks": 96,
            "midi": 54,
            "name": "F#3",
            "ticks": 73056,
            "time": 101.01761325000001,
            "velocity": 0.4881889763779528
          },
          {
            "duration": 0.1327432499999901,
            "durationTicks": 96,
            "midi": 63,
            "name": "D#4",
            "ticks": 73056,
            "time": 101.01761325000001,
            "velocity": 0.5433070866141733
          },
          {
            "duration": 0.1327432500000043,
            "durationTicks": 96,
            "midi": 63,
            "name": "D#4",
            "ticks": 73104,
            "time": 101.083984875,
            "velocity": 0.5433070866141733
          },
          {
            "duration": 0.1327432500000043,
            "durationTicks": 96,
            "midi": 54,
            "name": "F#3",
            "ticks": 73104,
            "time": 101.083984875,
            "velocity": 0.4881889763779528
          },
          {
            "duration": 0.1327432500000043,
            "durationTicks": 96,
            "midi": 56,
            "name": "G#3",
            "ticks": 73152,
            "time": 101.1503565,
            "velocity": 0.4881889763779528
          },
          {
            "duration": 0.1327432500000043,
            "durationTicks": 96,
            "midi": 64,
            "name": "E4",
            "ticks": 73152,
            "time": 101.1503565,
            "velocity": 0.5433070866141733
          },
          {
            "duration": 0.1327432500000043,
            "durationTicks": 96,
            "midi": 37,
            "name": "C#2",
            "ticks": 73152,
            "time": 101.1503565,
            "velocity": 0.7874015748031497
          },
          {
            "duration": 0.1327432500000043,
            "durationTicks": 96,
            "midi": 64,
            "name": "E4",
            "ticks": 73200,
            "time": 101.216728125,
            "velocity": 0.5433070866141733
          },
          {
            "duration": 0.1327432500000043,
            "durationTicks": 96,
            "midi": 56,
            "name": "G#3",
            "ticks": 73200,
            "time": 101.216728125,
            "velocity": 0.4881889763779528
          },
          {
            "duration": 0.1327432500000043,
            "durationTicks": 96,
            "midi": 37,
            "name": "C#2",
            "ticks": 73248,
            "time": 101.28309975,
            "velocity": 0.7874015748031497
          },
          {
            "duration": 0.1327432500000043,
            "durationTicks": 96,
            "midi": 64,
            "name": "E4",
            "ticks": 73248,
            "time": 101.28309975,
            "velocity": 0.4881889763779528
          },
          {
            "duration": 0.1327432500000043,
            "durationTicks": 96,
            "midi": 71,
            "name": "B4",
            "ticks": 73248,
            "time": 101.28309975,
            "velocity": 0.5433070866141733
          },
          {
            "duration": 0.1327432500000043,
            "durationTicks": 96,
            "midi": 64,
            "name": "E4",
            "ticks": 73296,
            "time": 101.34947137500001,
            "velocity": 0.4881889763779528
          },
          {
            "duration": 0.1327432500000043,
            "durationTicks": 96,
            "midi": 71,
            "name": "B4",
            "ticks": 73296,
            "time": 101.34947137500001,
            "velocity": 0.5433070866141733
          },
          {
            "duration": 0.1327432499999901,
            "durationTicks": 96,
            "midi": 61,
            "name": "C#4",
            "ticks": 73344,
            "time": 101.41584300000001,
            "velocity": 0.4881889763779528
          },
          {
            "duration": 0.1327432499999901,
            "durationTicks": 96,
            "midi": 68,
            "name": "G#4",
            "ticks": 73344,
            "time": 101.41584300000001,
            "velocity": 0.5433070866141733
          },
          {
            "duration": 0.1327432499999901,
            "durationTicks": 96,
            "midi": 68,
            "name": "G#4",
            "ticks": 73392,
            "time": 101.48221462500001,
            "velocity": 0.5433070866141733
          },
          {
            "duration": 0.1327432499999901,
            "durationTicks": 96,
            "midi": 61,
            "name": "C#4",
            "ticks": 73392,
            "time": 101.48221462500001,
            "velocity": 0.4881889763779528
          },
          {
            "duration": 0.1327432500000043,
            "durationTicks": 96,
            "midi": 61,
            "name": "C#4",
            "ticks": 73440,
            "time": 101.54858625,
            "velocity": 0.4881889763779528
          },
          {
            "duration": 0.1327432500000043,
            "durationTicks": 96,
            "midi": 68,
            "name": "G#4",
            "ticks": 73440,
            "time": 101.54858625,
            "velocity": 0.5433070866141733
          },
          {
            "duration": 0.1327432500000043,
            "durationTicks": 96,
            "midi": 61,
            "name": "C#4",
            "ticks": 73488,
            "time": 101.614957875,
            "velocity": 0.4881889763779528
          },
          {
            "duration": 0.1327432500000043,
            "durationTicks": 96,
            "midi": 68,
            "name": "G#4",
            "ticks": 73488,
            "time": 101.614957875,
            "velocity": 0.5433070866141733
          },
          {
            "duration": 0.2654865000000086,
            "durationTicks": 192,
            "midi": 35,
            "name": "B1",
            "ticks": 73536,
            "time": 101.6813295,
            "velocity": 0.7874015748031497
          },
          {
            "duration": 0.1327432499999901,
            "durationTicks": 96,
            "midi": 51,
            "name": "D#3",
            "ticks": 73728,
            "time": 101.94681600000001,
            "velocity": 0.4881889763779528
          },
          {
            "duration": 0.1327432499999901,
            "durationTicks": 96,
            "midi": 32,
            "name": "G#1",
            "ticks": 73728,
            "time": 101.94681600000001,
            "velocity": 0.7874015748031497
          },
          {
            "duration": 0.3982297499999987,
            "durationTicks": 288,
            "midi": 61,
            "name": "C#4",
            "ticks": 73728,
            "time": 101.94681600000001,
            "velocity": 0.5433070866141733
          },
          {
            "duration": 0.1327432500000043,
            "durationTicks": 96,
            "midi": 51,
            "name": "D#3",
            "ticks": 73776,
            "time": 102.013187625,
            "velocity": 0.4881889763779528
          },
          {
            "duration": 0.1327432500000043,
            "durationTicks": 96,
            "midi": 54,
            "name": "F#3",
            "ticks": 73824,
            "time": 102.07955925,
            "velocity": 0.4881889763779528
          },
          {
            "duration": 0.1327432500000043,
            "durationTicks": 96,
            "midi": 54,
            "name": "F#3",
            "ticks": 73872,
            "time": 102.145930875,
            "velocity": 0.4881889763779528
          },
          {
            "duration": 0.1327432500000043,
            "durationTicks": 96,
            "midi": 56,
            "name": "G#3",
            "ticks": 73920,
            "time": 102.2123025,
            "velocity": 0.4881889763779528
          },
          {
            "duration": 0.1327432499999901,
            "durationTicks": 96,
            "midi": 56,
            "name": "G#3",
            "ticks": 73968,
            "time": 102.27867412500001,
            "velocity": 0.4881889763779528
          },
          {
            "duration": 0.1327432499999901,
            "durationTicks": 96,
            "midi": 32,
            "name": "G#1",
            "ticks": 74016,
            "time": 102.34504575000001,
            "velocity": 0.7874015748031497
          },
          {
            "duration": 0.3982297499999987,
            "durationTicks": 288,
            "midi": 66,
            "name": "F#4",
            "ticks": 74016,
            "time": 102.34504575000001,
            "velocity": 0.5433070866141733
          },
          {
            "duration": 0.1327432499999901,
            "durationTicks": 96,
            "midi": 54,
            "name": "F#3",
            "ticks": 74016,
            "time": 102.34504575000001,
            "velocity": 0.4881889763779528
          },
          {
            "duration": 0.1327432500000043,
            "durationTicks": 96,
            "midi": 54,
            "name": "F#3",
            "ticks": 74064,
            "time": 102.411417375,
            "velocity": 0.4881889763779528
          },
          {
            "duration": 0.1327432500000043,
            "durationTicks": 96,
            "midi": 56,
            "name": "G#3",
            "ticks": 74208,
            "time": 102.61053225,
            "velocity": 0.4881889763779528
          },
          {
            "duration": 0.1327432500000043,
            "durationTicks": 96,
            "midi": 56,
            "name": "G#3",
            "ticks": 74256,
            "time": 102.67690387500001,
            "velocity": 0.4881889763779528
          },
          {
            "duration": 0.1327432499999901,
            "durationTicks": 96,
            "midi": 61,
            "name": "C#4",
            "ticks": 74304,
            "time": 102.74327550000001,
            "velocity": 0.4881889763779528
          },
          {
            "duration": 0.1327432499999901,
            "durationTicks": 96,
            "midi": 32,
            "name": "G#1",
            "ticks": 74304,
            "time": 102.74327550000001,
            "velocity": 0.7874015748031497
          },
          {
            "duration": 0.1327432499999901,
            "durationTicks": 96,
            "midi": 64,
            "name": "E4",
            "ticks": 74304,
            "time": 102.74327550000001,
            "velocity": 0.5433070866141733
          },
          {
            "duration": 0.1327432500000043,
            "durationTicks": 96,
            "midi": 61,
            "name": "C#4",
            "ticks": 74400,
            "time": 102.87601875,
            "velocity": 0.4881889763779528
          },
          {
            "duration": 0.1327432500000043,
            "durationTicks": 96,
            "midi": 64,
            "name": "E4",
            "ticks": 74400,
            "time": 102.87601875,
            "velocity": 0.5433070866141733
          },
          {
            "duration": 0.1327432500000043,
            "durationTicks": 96,
            "midi": 63,
            "name": "D#4",
            "ticks": 74448,
            "time": 102.942390375,
            "velocity": 0.5433070866141733
          },
          {
            "duration": 0.1327432500000043,
            "durationTicks": 96,
            "midi": 61,
            "name": "C#4",
            "ticks": 74496,
            "time": 103.008762,
            "velocity": 0.4881889763779528
          },
          {
            "duration": 0.1327432500000043,
            "durationTicks": 96,
            "midi": 37,
            "name": "C#2",
            "ticks": 74496,
            "time": 103.008762,
            "velocity": 0.7874015748031497
          },
          {
            "duration": 0.1327432500000043,
            "durationTicks": 96,
            "midi": 63,
            "name": "D#4",
            "ticks": 74496,
            "time": 103.008762,
            "velocity": 0.5433070866141733
          },
          {
            "duration": 0.1327432499999901,
            "durationTicks": 96,
            "midi": 61,
            "name": "C#4",
            "ticks": 74592,
            "time": 103.14150525000001,
            "velocity": 0.5433070866141733
          },
          {
            "duration": 0.1327432499999901,
            "durationTicks": 96,
            "midi": 56,
            "name": "G#3",
            "ticks": 74592,
            "time": 103.14150525000001,
            "velocity": 0.4881889763779528
          },
          {
            "duration": 0.1327432500000043,
            "durationTicks": 96,
            "midi": 56,
            "name": "G#3",
            "ticks": 74688,
            "time": 103.2742485,
            "velocity": 0.4881889763779528
          },
          {
            "duration": 0.1327432500000043,
            "durationTicks": 96,
            "midi": 61,
            "name": "C#4",
            "ticks": 74688,
            "time": 103.2742485,
            "velocity": 0.5433070866141733
          },
          {
            "duration": 0.2654865000000086,
            "durationTicks": 192,
            "midi": 54,
            "name": "F#3",
            "ticks": 74784,
            "time": 103.40699175,
            "velocity": 0.4881889763779528
          },
          {
            "duration": 0.1327432500000043,
            "durationTicks": 96,
            "midi": 39,
            "name": "D#2",
            "ticks": 74784,
            "time": 103.40699175,
            "velocity": 0.7874015748031497
          },
          {
            "duration": 0.2654865000000086,
            "durationTicks": 192,
            "midi": 61,
            "name": "C#4",
            "ticks": 74784,
            "time": 103.40699175,
            "velocity": 0.5433070866141733
          },
          {
            "duration": 0.1327432499999901,
            "durationTicks": 96,
            "midi": 61,
            "name": "C#4",
            "ticks": 74976,
            "time": 103.67247825000001,
            "velocity": 0.5433070866141733
          },
          {
            "duration": 0.1327432499999901,
            "durationTicks": 96,
            "midi": 54,
            "name": "F#3",
            "ticks": 74976,
            "time": 103.67247825000001,
            "velocity": 0.4881889763779528
          },
          {
            "duration": 0.1327432500000043,
            "durationTicks": 96,
            "midi": 63,
            "name": "D#4",
            "ticks": 75024,
            "time": 103.738849875,
            "velocity": 0.5433070866141733
          },
          {
            "duration": 0.2654865000000086,
            "durationTicks": 192,
            "midi": 56,
            "name": "G#3",
            "ticks": 75072,
            "time": 103.8052215,
            "velocity": 0.4881889763779528
          },
          {
            "duration": 0.2654865000000086,
            "durationTicks": 192,
            "midi": 42,
            "name": "F#2",
            "ticks": 75072,
            "time": 103.8052215,
            "velocity": 0.7874015748031497
          },
          {
            "duration": 0.2654865000000086,
            "durationTicks": 192,
            "midi": 63,
            "name": "D#4",
            "ticks": 75072,
            "time": 103.8052215,
            "velocity": 0.5433070866141733
          },
          {
            "duration": 0.1327432500000043,
            "durationTicks": 96,
            "midi": 30,
            "name": "F#1",
            "ticks": 81408,
            "time": 112.566276,
            "velocity": 0.7874015748031497
          },
          {
            "duration": 0.1327432500000043,
            "durationTicks": 96,
            "midi": 37,
            "name": "C#2",
            "ticks": 81504,
            "time": 112.69901925,
            "velocity": 0.7874015748031497
          },
          {
            "duration": 0.1327432499999901,
            "durationTicks": 96,
            "midi": 42,
            "name": "F#2",
            "ticks": 81600,
            "time": 112.83176250000001,
            "velocity": 0.7874015748031497
          },
          {
            "duration": 0.1327432500000043,
            "durationTicks": 96,
            "midi": 37,
            "name": "C#2",
            "ticks": 81696,
            "time": 112.96450575,
            "velocity": 0.7874015748031497
          },
          {
            "duration": 0.1327432500000043,
            "durationTicks": 96,
            "midi": 30,
            "name": "F#1",
            "ticks": 81792,
            "time": 113.097249,
            "velocity": 0.7874015748031497
          },
          {
            "duration": 0.1327432499999901,
            "durationTicks": 96,
            "midi": 37,
            "name": "C#2",
            "ticks": 81888,
            "time": 113.22999225000001,
            "velocity": 0.7874015748031497
          },
          {
            "duration": 0.1327432500000043,
            "durationTicks": 96,
            "midi": 42,
            "name": "F#2",
            "ticks": 81984,
            "time": 113.3627355,
            "velocity": 0.7874015748031497
          },
          {
            "duration": 0.1327432500000043,
            "durationTicks": 96,
            "midi": 37,
            "name": "C#2",
            "ticks": 82080,
            "time": 113.49547875,
            "velocity": 0.7874015748031497
          },
          {
            "duration": 0.1327432500000043,
            "durationTicks": 96,
            "midi": 30,
            "name": "F#1",
            "ticks": 82176,
            "time": 113.62822200000001,
            "velocity": 0.7874015748031497
          },
          {
            "duration": 0.1327432499999901,
            "durationTicks": 96,
            "midi": 37,
            "name": "C#2",
            "ticks": 82272,
            "time": 113.76096525000001,
            "velocity": 0.7874015748031497
          },
          {
            "duration": 0.1327432500000043,
            "durationTicks": 96,
            "midi": 42,
            "name": "F#2",
            "ticks": 82368,
            "time": 113.8937085,
            "velocity": 0.7874015748031497
          },
          {
            "duration": 0.1327432500000043,
            "durationTicks": 96,
            "midi": 37,
            "name": "C#2",
            "ticks": 82464,
            "time": 114.02645175,
            "velocity": 0.7874015748031497
          },
          {
            "duration": 0.1327432499999901,
            "durationTicks": 96,
            "midi": 32,
            "name": "G#1",
            "ticks": 82560,
            "time": 114.15919500000001,
            "velocity": 0.7874015748031497
          },
          {
            "duration": 0.1327432500000043,
            "durationTicks": 96,
            "midi": 35,
            "name": "B1",
            "ticks": 82752,
            "time": 114.4246815,
            "velocity": 0.7874015748031497
          },
          {
            "duration": 0.1327432500000043,
            "durationTicks": 96,
            "midi": 32,
            "name": "G#1",
            "ticks": 82944,
            "time": 114.690168,
            "velocity": 0.7874015748031497
          },
          {
            "duration": 0.1327432500000043,
            "durationTicks": 96,
            "midi": 39,
            "name": "D#2",
            "ticks": 83040,
            "time": 114.82291125,
            "velocity": 0.7874015748031497
          },
          {
            "duration": 0.1327432500000043,
            "durationTicks": 96,
            "midi": 44,
            "name": "G#2",
            "ticks": 83136,
            "time": 114.95565450000001,
            "velocity": 0.7874015748031497
          },
          {
            "duration": 0.1327432499999901,
            "durationTicks": 96,
            "midi": 39,
            "name": "D#2",
            "ticks": 83232,
            "time": 115.08839775000001,
            "velocity": 0.7874015748031497
          },
          {
            "duration": 0.1327432500000043,
            "durationTicks": 96,
            "midi": 32,
            "name": "G#1",
            "ticks": 83328,
            "time": 115.221141,
            "velocity": 0.7874015748031497
          },
          {
            "duration": 0.1327432500000043,
            "durationTicks": 96,
            "midi": 39,
            "name": "D#2",
            "ticks": 83424,
            "time": 115.35388425000001,
            "velocity": 0.7874015748031497
          },
          {
            "duration": 0.1327432499999901,
            "durationTicks": 96,
            "midi": 44,
            "name": "G#2",
            "ticks": 83520,
            "time": 115.48662750000001,
            "velocity": 0.7874015748031497
          },
          {
            "duration": 0.1327432500000043,
            "durationTicks": 96,
            "midi": 39,
            "name": "D#2",
            "ticks": 83616,
            "time": 115.61937075,
            "velocity": 0.7874015748031497
          },
          {
            "duration": 0.1327432500000043,
            "durationTicks": 96,
            "midi": 32,
            "name": "G#1",
            "ticks": 83712,
            "time": 115.752114,
            "velocity": 0.7874015748031497
          },
          {
            "duration": 0.1327432499999901,
            "durationTicks": 96,
            "midi": 39,
            "name": "D#2",
            "ticks": 83808,
            "time": 115.88485725000001,
            "velocity": 0.7874015748031497
          },
          {
            "duration": 0.1327432500000043,
            "durationTicks": 96,
            "midi": 44,
            "name": "G#2",
            "ticks": 83904,
            "time": 116.0176005,
            "velocity": 0.7874015748031497
          },
          {
            "duration": 0.1327432500000043,
            "durationTicks": 96,
            "midi": 39,
            "name": "D#2",
            "ticks": 84000,
            "time": 116.15034375,
            "velocity": 0.7874015748031497
          },
          {
            "duration": 0.1327432500000043,
            "durationTicks": 96,
            "midi": 35,
            "name": "B1",
            "ticks": 84096,
            "time": 116.28308700000001,
            "velocity": 0.7874015748031497
          },
          {
            "duration": 0.1327432500000043,
            "durationTicks": 96,
            "midi": 39,
            "name": "D#2",
            "ticks": 84288,
            "time": 116.5485735,
            "velocity": 0.7874015748031497
          },
          {
            "duration": 0.1327432499999901,
            "durationTicks": 96,
            "midi": 33,
            "name": "A1",
            "ticks": 84480,
            "time": 116.81406000000001,
            "velocity": 0.7874015748031497
          },
          {
            "duration": 0.1327432500000043,
            "durationTicks": 96,
            "midi": 40,
            "name": "E2",
            "ticks": 84576,
            "time": 116.94680325,
            "velocity": 0.7874015748031497
          },
          {
            "duration": 0.1327432500000043,
            "durationTicks": 96,
            "midi": 45,
            "name": "A2",
            "ticks": 84672,
            "time": 117.0795465,
            "velocity": 0.7874015748031497
          },
          {
            "duration": 0.1327432499999901,
            "durationTicks": 96,
            "midi": 40,
            "name": "E2",
            "ticks": 84768,
            "time": 117.21228975000001,
            "velocity": 0.7874015748031497
          },
          {
            "duration": 0.1327432500000043,
            "durationTicks": 96,
            "midi": 33,
            "name": "A1",
            "ticks": 84864,
            "time": 117.345033,
            "velocity": 0.7874015748031497
          },
          {
            "duration": 0.1327432500000043,
            "durationTicks": 96,
            "midi": 40,
            "name": "E2",
            "ticks": 84960,
            "time": 117.47777625,
            "velocity": 0.7874015748031497
          },
          {
            "duration": 0.1327432499999901,
            "durationTicks": 96,
            "midi": 45,
            "name": "A2",
            "ticks": 85056,
            "time": 117.61051950000001,
            "velocity": 0.7874015748031497
          },
          {
            "duration": 0.1327432500000043,
            "durationTicks": 96,
            "midi": 40,
            "name": "E2",
            "ticks": 85152,
            "time": 117.74326275,
            "velocity": 0.7874015748031497
          },
          {
            "duration": 0.1327432500000043,
            "durationTicks": 96,
            "midi": 33,
            "name": "A1",
            "ticks": 85248,
            "time": 117.876006,
            "velocity": 0.7874015748031497
          },
          {
            "duration": 0.1327432500000043,
            "durationTicks": 96,
            "midi": 40,
            "name": "E2",
            "ticks": 85344,
            "time": 118.00874925000001,
            "velocity": 0.7874015748031497
          },
          {
            "duration": 0.1327432499999901,
            "durationTicks": 96,
            "midi": 45,
            "name": "A2",
            "ticks": 85440,
            "time": 118.14149250000001,
            "velocity": 0.7874015748031497
          },
          {
            "duration": 0.1327432500000043,
            "durationTicks": 96,
            "midi": 40,
            "name": "E2",
            "ticks": 85536,
            "time": 118.27423575,
            "velocity": 0.7874015748031497
          },
          {
            "duration": 0.1327432500000043,
            "durationTicks": 96,
            "midi": 33,
            "name": "A1",
            "ticks": 85632,
            "time": 118.406979,
            "velocity": 0.7874015748031497
          },
          {
            "duration": 0.1327432499999901,
            "durationTicks": 96,
            "midi": 40,
            "name": "E2",
            "ticks": 85728,
            "time": 118.53972225000001,
            "velocity": 0.7874015748031497
          },
          {
            "duration": 0.1327432500000043,
            "durationTicks": 96,
            "midi": 45,
            "name": "A2",
            "ticks": 85824,
            "time": 118.6724655,
            "velocity": 0.7874015748031497
          },
          {
            "duration": 0.1327432500000043,
            "durationTicks": 96,
            "midi": 40,
            "name": "E2",
            "ticks": 85920,
            "time": 118.80520875,
            "velocity": 0.7874015748031497
          },
          {
            "duration": 0.1327432499999901,
            "durationTicks": 96,
            "midi": 32,
            "name": "G#1",
            "ticks": 86016,
            "time": 118.93795200000001,
            "velocity": 0.7874015748031497
          },
          {
            "duration": 0.1327432500000043,
            "durationTicks": 96,
            "midi": 39,
            "name": "D#2",
            "ticks": 86112,
            "time": 119.07069525,
            "velocity": 0.7874015748031497
          },
          {
            "duration": 0.1327432500000043,
            "durationTicks": 96,
            "midi": 44,
            "name": "G#2",
            "ticks": 86208,
            "time": 119.2034385,
            "velocity": 0.7874015748031497
          },
          {
            "duration": 0.1327432500000043,
            "durationTicks": 96,
            "midi": 39,
            "name": "D#2",
            "ticks": 86304,
            "time": 119.33618175000001,
            "velocity": 0.7874015748031497
          },
          {
            "duration": 0.1327432499999901,
            "durationTicks": 96,
            "midi": 32,
            "name": "G#1",
            "ticks": 86400,
            "time": 119.46892500000001,
            "velocity": 0.7874015748031497
          },
          {
            "duration": 0.1327432500000043,
            "durationTicks": 96,
            "midi": 39,
            "name": "D#2",
            "ticks": 86496,
            "time": 119.60166825,
            "velocity": 0.7874015748031497
          },
          {
            "duration": 0.1327432500000043,
            "durationTicks": 96,
            "midi": 44,
            "name": "G#2",
            "ticks": 86592,
            "time": 119.73441150000001,
            "velocity": 0.7874015748031497
          },
          {
            "duration": 0.1327432499999901,
            "durationTicks": 96,
            "midi": 39,
            "name": "D#2",
            "ticks": 86688,
            "time": 119.86715475000001,
            "velocity": 0.7874015748031497
          },
          {
            "duration": 0.1327432500000043,
            "durationTicks": 96,
            "midi": 35,
            "name": "B1",
            "ticks": 86784,
            "time": 119.999898,
            "velocity": 0.7874015748031497
          },
          {
            "duration": 0.1327432500000043,
            "durationTicks": 96,
            "midi": 39,
            "name": "D#2",
            "ticks": 87072,
            "time": 120.39812775,
            "velocity": 0.7874015748031497
          },
          {
            "duration": 0.2654864999999944,
            "durationTicks": 192,
            "midi": 44,
            "name": "G#2",
            "ticks": 87360,
            "time": 120.79635750000001,
            "velocity": 0.7874015748031497
          },
          {
            "duration": 0.1327432500000043,
            "durationTicks": 96,
            "midi": 30,
            "name": "F#1",
            "ticks": 87552,
            "time": 121.06184400000001,
            "velocity": 0.7874015748031497
          },
          {
            "duration": 0.1327432499999901,
            "durationTicks": 96,
            "midi": 37,
            "name": "C#2",
            "ticks": 87648,
            "time": 121.19458725000001,
            "velocity": 0.7874015748031497
          },
          {
            "duration": 0.1327432500000043,
            "durationTicks": 96,
            "midi": 42,
            "name": "F#2",
            "ticks": 87744,
            "time": 121.3273305,
            "velocity": 0.7874015748031497
          },
          {
            "duration": 0.1327432500000043,
            "durationTicks": 96,
            "midi": 37,
            "name": "C#2",
            "ticks": 87840,
            "time": 121.46007375,
            "velocity": 0.7874015748031497
          },
          {
            "duration": 0.1327432499999901,
            "durationTicks": 96,
            "midi": 30,
            "name": "F#1",
            "ticks": 87936,
            "time": 121.59281700000001,
            "velocity": 0.7874015748031497
          },
          {
            "duration": 0.1327432500000043,
            "durationTicks": 96,
            "midi": 37,
            "name": "C#2",
            "ticks": 88032,
            "time": 121.72556025,
            "velocity": 0.7874015748031497
          },
          {
            "duration": 0.1327432500000043,
            "durationTicks": 96,
            "midi": 42,
            "name": "F#2",
            "ticks": 88128,
            "time": 121.8583035,
            "velocity": 0.7874015748031497
          },
          {
            "duration": 0.1327432499999901,
            "durationTicks": 96,
            "midi": 37,
            "name": "C#2",
            "ticks": 88224,
            "time": 121.99104675000001,
            "velocity": 0.7874015748031497
          },
          {
            "duration": 0.1327432500000043,
            "durationTicks": 96,
            "midi": 30,
            "name": "F#1",
            "ticks": 88320,
            "time": 122.12379,
            "velocity": 0.7874015748031497
          },
          {
            "duration": 0.1327432500000043,
            "durationTicks": 96,
            "midi": 37,
            "name": "C#2",
            "ticks": 88416,
            "time": 122.25653325,
            "velocity": 0.7874015748031497
          },
          {
            "duration": 0.1327432500000043,
            "durationTicks": 96,
            "midi": 42,
            "name": "F#2",
            "ticks": 88512,
            "time": 122.38927650000001,
            "velocity": 0.7874015748031497
          },
          {
            "duration": 0.1327432499999901,
            "durationTicks": 96,
            "midi": 37,
            "name": "C#2",
            "ticks": 88608,
            "time": 122.52201975000001,
            "velocity": 0.7874015748031497
          },
          {
            "duration": 0.1327432500000043,
            "durationTicks": 96,
            "midi": 32,
            "name": "G#1",
            "ticks": 88704,
            "time": 122.654763,
            "velocity": 0.7874015748031497
          },
          {
            "duration": 0.1327432499999901,
            "durationTicks": 96,
            "midi": 35,
            "name": "B1",
            "ticks": 88896,
            "time": 122.92024950000001,
            "velocity": 0.7874015748031497
          },
          {
            "duration": 0.1327432500000043,
            "durationTicks": 96,
            "midi": 32,
            "name": "G#1",
            "ticks": 89088,
            "time": 123.185736,
            "velocity": 0.7874015748031497
          },
          {
            "duration": 0.1327432499999901,
            "durationTicks": 96,
            "midi": 39,
            "name": "D#2",
            "ticks": 89184,
            "time": 123.31847925000001,
            "velocity": 0.7874015748031497
          },
          {
            "duration": 0.1327432500000043,
            "durationTicks": 96,
            "midi": 44,
            "name": "G#2",
            "ticks": 89280,
            "time": 123.4512225,
            "velocity": 0.7874015748031497
          },
          {
            "duration": 0.1327432500000043,
            "durationTicks": 96,
            "midi": 39,
            "name": "D#2",
            "ticks": 89376,
            "time": 123.58396575,
            "velocity": 0.7874015748031497
          },
          {
            "duration": 0.1327432500000043,
            "durationTicks": 96,
            "midi": 32,
            "name": "G#1",
            "ticks": 89472,
            "time": 123.71670900000001,
            "velocity": 0.7874015748031497
          },
          {
            "duration": 0.1327432499999901,
            "durationTicks": 96,
            "midi": 39,
            "name": "D#2",
            "ticks": 89568,
            "time": 123.84945225000001,
            "velocity": 0.7874015748031497
          },
          {
            "duration": 0.1327432500000043,
            "durationTicks": 96,
            "midi": 44,
            "name": "G#2",
            "ticks": 89664,
            "time": 123.9821955,
            "velocity": 0.7874015748031497
          },
          {
            "duration": 0.1327432500000043,
            "durationTicks": 96,
            "midi": 39,
            "name": "D#2",
            "ticks": 89760,
            "time": 124.11493875000001,
            "velocity": 0.7874015748031497
          },
          {
            "duration": 0.1327432499999901,
            "durationTicks": 96,
            "midi": 32,
            "name": "G#1",
            "ticks": 89856,
            "time": 124.24768200000001,
            "velocity": 0.7874015748031497
          },
          {
            "duration": 0.1327432500000043,
            "durationTicks": 96,
            "midi": 39,
            "name": "D#2",
            "ticks": 89952,
            "time": 124.38042525,
            "velocity": 0.7874015748031497
          },
          {
            "duration": 0.1327432500000043,
            "durationTicks": 96,
            "midi": 44,
            "name": "G#2",
            "ticks": 90048,
            "time": 124.5131685,
            "velocity": 0.7874015748031497
          },
          {
            "duration": 0.1327432499999901,
            "durationTicks": 96,
            "midi": 39,
            "name": "D#2",
            "ticks": 90144,
            "time": 124.64591175000001,
            "velocity": 0.7874015748031497
          },
          {
            "duration": 0.1327432500000043,
            "durationTicks": 96,
            "midi": 35,
            "name": "B1",
            "ticks": 90240,
            "time": 124.778655,
            "velocity": 0.7874015748031497
          },
          {
            "duration": 0.1327432500000043,
            "durationTicks": 96,
            "midi": 39,
            "name": "D#2",
            "ticks": 90432,
            "time": 125.04414150000001,
            "velocity": 0.7874015748031497
          },
          {
            "duration": 0.1327432500000043,
            "durationTicks": 96,
            "midi": 33,
            "name": "A1",
            "ticks": 90624,
            "time": 125.309628,
            "velocity": 0.7874015748031497
          },
          {
            "duration": 0.1327432500000043,
            "durationTicks": 96,
            "midi": 40,
            "name": "E2",
            "ticks": 90720,
            "time": 125.44237125000001,
            "velocity": 0.7874015748031497
          },
          {
            "duration": 0.1327432499999901,
            "durationTicks": 96,
            "midi": 45,
            "name": "A2",
            "ticks": 90816,
            "time": 125.57511450000001,
            "velocity": 0.7874015748031497
          },
          {
            "duration": 0.1327432500000043,
            "durationTicks": 96,
            "midi": 40,
            "name": "E2",
            "ticks": 90912,
            "time": 125.70785775,
            "velocity": 0.7874015748031497
          },
          {
            "duration": 0.1327432500000043,
            "durationTicks": 96,
            "midi": 33,
            "name": "A1",
            "ticks": 91008,
            "time": 125.840601,
            "velocity": 0.7874015748031497
          },
          {
            "duration": 0.1327432499999901,
            "durationTicks": 96,
            "midi": 40,
            "name": "E2",
            "ticks": 91104,
            "time": 125.97334425000001,
            "velocity": 0.7874015748031497
          },
          {
            "duration": 0.1327432500000043,
            "durationTicks": 96,
            "midi": 45,
            "name": "A2",
            "ticks": 91200,
            "time": 126.1060875,
            "velocity": 0.7874015748031497
          },
          {
            "duration": 0.1327432500000043,
            "durationTicks": 96,
            "midi": 40,
            "name": "E2",
            "ticks": 91296,
            "time": 126.23883075,
            "velocity": 0.7874015748031497
          },
          {
            "duration": 0.1327432499999901,
            "durationTicks": 96,
            "midi": 33,
            "name": "A1",
            "ticks": 91392,
            "time": 126.37157400000001,
            "velocity": 0.7874015748031497
          },
          {
            "duration": 0.1327432500000043,
            "durationTicks": 96,
            "midi": 40,
            "name": "E2",
            "ticks": 91488,
            "time": 126.50431725,
            "velocity": 0.7874015748031497
          },
          {
            "duration": 0.1327432500000043,
            "durationTicks": 96,
            "midi": 45,
            "name": "A2",
            "ticks": 91584,
            "time": 126.6370605,
            "velocity": 0.7874015748031497
          },
          {
            "duration": 0.1327432500000043,
            "durationTicks": 96,
            "midi": 40,
            "name": "E2",
            "ticks": 91680,
            "time": 126.76980375000001,
            "velocity": 0.7874015748031497
          },
          {
            "duration": 0.1327432499999901,
            "durationTicks": 96,
            "midi": 33,
            "name": "A1",
            "ticks": 91776,
            "time": 126.90254700000001,
            "velocity": 0.7874015748031497
          },
          {
            "duration": 0.1327432500000043,
            "durationTicks": 96,
            "midi": 40,
            "name": "E2",
            "ticks": 91872,
            "time": 127.03529025,
            "velocity": 0.7874015748031497
          },
          {
            "duration": 0.1327432500000043,
            "durationTicks": 96,
            "midi": 45,
            "name": "A2",
            "ticks": 91968,
            "time": 127.1680335,
            "velocity": 0.7874015748031497
          },
          {
            "duration": 0.1327432499999901,
            "durationTicks": 96,
            "midi": 40,
            "name": "E2",
            "ticks": 92064,
            "time": 127.30077675000001,
            "velocity": 0.7874015748031497
          },
          {
            "duration": 0.929202750000016,
            "durationTicks": 672,
            "midi": 32,
            "name": "G#1",
            "ticks": 92160,
            "time": 127.43352,
            "velocity": 0.7874015748031497
          },
          {
            "duration": 0.1327432500000043,
            "durationTicks": 96,
            "midi": 75,
            "name": "D#5",
            "ticks": 92160,
            "time": 127.43352,
            "velocity": 0.7874015748031497
          },
          {
            "duration": 0.1327432500000043,
            "durationTicks": 96,
            "midi": 75,
            "name": "D#5",
            "ticks": 92160,
            "time": 127.43352,
            "velocity": 0.7874015748031497
          },
          {
            "duration": 0.1327432500000043,
            "durationTicks": 96,
            "midi": 75,
            "name": "D#5",
            "ticks": 92208,
            "time": 127.499891625,
            "velocity": 0.5905511811023622
          },
          {
            "duration": 0.1327432500000043,
            "durationTicks": 96,
            "midi": 75,
            "name": "D#5",
            "ticks": 92208,
            "time": 127.499891625,
            "velocity": 0.5905511811023622
          },
          {
            "duration": 0.1327432500000043,
            "durationTicks": 96,
            "midi": 78,
            "name": "F#5",
            "ticks": 92256,
            "time": 127.56626325,
            "velocity": 0.7874015748031497
          },
          {
            "duration": 0.1327432500000043,
            "durationTicks": 96,
            "midi": 78,
            "name": "F#5",
            "ticks": 92256,
            "time": 127.56626325,
            "velocity": 0.7874015748031497
          },
          {
            "duration": 0.1327432500000043,
            "durationTicks": 96,
            "midi": 78,
            "name": "F#5",
            "ticks": 92304,
            "time": 127.63263487500001,
            "velocity": 0.5905511811023622
          },
          {
            "duration": 0.1327432500000043,
            "durationTicks": 96,
            "midi": 78,
            "name": "F#5",
            "ticks": 92304,
            "time": 127.63263487500001,
            "velocity": 0.5905511811023622
          },
          {
            "duration": 0.1327432499999901,
            "durationTicks": 96,
            "midi": 80,
            "name": "G#5",
            "ticks": 92352,
            "time": 127.69900650000001,
            "velocity": 0.7874015748031497
          },
          {
            "duration": 0.1327432499999901,
            "durationTicks": 96,
            "midi": 80,
            "name": "G#5",
            "ticks": 92352,
            "time": 127.69900650000001,
            "velocity": 0.7874015748031497
          },
          {
            "duration": 0.1327432499999901,
            "durationTicks": 96,
            "midi": 80,
            "name": "G#5",
            "ticks": 92400,
            "time": 127.76537812500001,
            "velocity": 0.5905511811023622
          },
          {
            "duration": 0.1327432499999901,
            "durationTicks": 96,
            "midi": 80,
            "name": "G#5",
            "ticks": 92400,
            "time": 127.76537812500001,
            "velocity": 0.5905511811023622
          },
          {
            "duration": 0.1327432500000043,
            "durationTicks": 96,
            "midi": 78,
            "name": "F#5",
            "ticks": 92448,
            "time": 127.83174975,
            "velocity": 0.7874015748031497
          },
          {
            "duration": 0.1327432500000043,
            "durationTicks": 96,
            "midi": 78,
            "name": "F#5",
            "ticks": 92448,
            "time": 127.83174975,
            "velocity": 0.7874015748031497
          },
          {
            "duration": 0.13274325000001852,
            "durationTicks": 96,
            "midi": 78,
            "name": "F#5",
            "ticks": 92496,
            "time": 127.898121375,
            "velocity": 0.5905511811023622
          },
          {
            "duration": 0.13274325000001852,
            "durationTicks": 96,
            "midi": 78,
            "name": "F#5",
            "ticks": 92496,
            "time": 127.898121375,
            "velocity": 0.5905511811023622
          },
          {
            "duration": 0.1327432500000043,
            "durationTicks": 96,
            "midi": 80,
            "name": "G#5",
            "ticks": 92640,
            "time": 128.09723625,
            "velocity": 0.7874015748031497
          },
          {
            "duration": 0.1327432500000043,
            "durationTicks": 96,
            "midi": 80,
            "name": "G#5",
            "ticks": 92640,
            "time": 128.09723625,
            "velocity": 0.7874015748031497
          },
          {
            "duration": 0.1327432500000043,
            "durationTicks": 96,
            "midi": 80,
            "name": "G#5",
            "ticks": 92688,
            "time": 128.163607875,
            "velocity": 0.5905511811023622
          },
          {
            "duration": 0.1327432500000043,
            "durationTicks": 96,
            "midi": 80,
            "name": "G#5",
            "ticks": 92688,
            "time": 128.163607875,
            "velocity": 0.5905511811023622
          },
          {
            "duration": 0.1327432500000043,
            "durationTicks": 96,
            "midi": 88,
            "name": "E6",
            "ticks": 92736,
            "time": 128.2299795,
            "velocity": 0.7874015748031497
          },
          {
            "duration": 0.1327432500000043,
            "durationTicks": 96,
            "midi": 83,
            "name": "B5",
            "ticks": 92736,
            "time": 128.2299795,
            "velocity": 0.7874015748031497
          },
          {
            "duration": 0.1327432499999759,
            "durationTicks": 96,
            "midi": 88,
            "name": "E6",
            "ticks": 92832,
            "time": 128.36272275000002,
            "velocity": 0.5905511811023622
          },
          {
            "duration": 0.1327432499999759,
            "durationTicks": 96,
            "midi": 83,
            "name": "B5",
            "ticks": 92832,
            "time": 128.36272275000002,
            "velocity": 0.5905511811023622
          },
          {
            "duration": 0.1327432500000043,
            "durationTicks": 96,
            "midi": 35,
            "name": "B1",
            "ticks": 92928,
            "time": 128.495466,
            "velocity": 0.7874015748031497
          },
          {
            "duration": 0.1327432500000043,
            "durationTicks": 96,
            "midi": 87,
            "name": "D#6",
            "ticks": 92928,
            "time": 128.495466,
            "velocity": 0.7874015748031497
          },
          {
            "duration": 0.1327432500000043,
            "durationTicks": 96,
            "midi": 83,
            "name": "B5",
            "ticks": 92928,
            "time": 128.495466,
            "velocity": 0.7874015748031497
          },
          {
            "duration": 0.1327432500000043,
            "durationTicks": 96,
            "midi": 85,
            "name": "C#6",
            "ticks": 93024,
            "time": 128.62820925,
            "velocity": 0.7874015748031497
          },
          {
            "duration": 0.1327432500000043,
            "durationTicks": 96,
            "midi": 80,
            "name": "G#5",
            "ticks": 93024,
            "time": 128.62820925,
            "velocity": 0.7874015748031497
          },
          {
            "duration": 0.1327432500000043,
            "durationTicks": 96,
            "midi": 80,
            "name": "G#5",
            "ticks": 93120,
            "time": 128.7609525,
            "velocity": 0.5905511811023622
          },
          {
            "duration": 0.1327432500000043,
            "durationTicks": 96,
            "midi": 85,
            "name": "C#6",
            "ticks": 93120,
            "time": 128.7609525,
            "velocity": 0.5905511811023622
          },
          {
            "duration": 0.2654865000000086,
            "durationTicks": 192,
            "midi": 83,
            "name": "B5",
            "ticks": 93216,
            "time": 128.89369575,
            "velocity": 0.7874015748031497
          },
          {
            "duration": 0.2654865000000086,
            "durationTicks": 192,
            "midi": 78,
            "name": "F#5",
            "ticks": 93216,
            "time": 128.89369575,
            "velocity": 0.7874015748031497
          },
          {
            "duration": 0.1327432500000043,
            "durationTicks": 96,
            "midi": 39,
            "name": "D#2",
            "ticks": 93216,
            "time": 128.89369575,
            "velocity": 0.7874015748031497
          },
          {
            "duration": 0.1327432500000043,
            "durationTicks": 96,
            "midi": 78,
            "name": "F#5",
            "ticks": 93408,
            "time": 129.15918225000001,
            "velocity": 0.5905511811023622
          },
          {
            "duration": 0.1327432500000043,
            "durationTicks": 96,
            "midi": 83,
            "name": "B5",
            "ticks": 93408,
            "time": 129.15918225000001,
            "velocity": 0.5905511811023622
          },
          {
            "duration": 0.2654864999999802,
            "durationTicks": 192,
            "midi": 83,
            "name": "B5",
            "ticks": 93504,
            "time": 129.29192550000002,
            "velocity": 0.7874015748031497
          },
          {
            "duration": 0.2654864999999802,
            "durationTicks": 192,
            "midi": 87,
            "name": "D#6",
            "ticks": 93504,
            "time": 129.29192550000002,
            "velocity": 0.7874015748031497
          },
          {
            "duration": 0.2654864999999802,
            "durationTicks": 192,
            "midi": 42,
            "name": "F#2",
            "ticks": 93504,
            "time": 129.29192550000002,
            "velocity": 0.7874015748031497
          },
          {
            "duration": 1.061946000000006,
            "durationTicks": 768,
            "midi": 49,
            "name": "C#3",
            "ticks": 93696,
            "time": 129.557412,
            "velocity": 0.7874015748031497
          },
          {
            "duration": 0.1327432500000043,
            "durationTicks": 96,
            "midi": 80,
            "name": "G#5",
            "ticks": 93696,
            "time": 129.557412,
            "velocity": 0.7874015748031497
          },
          {
            "duration": 0.1327432500000043,
            "durationTicks": 96,
            "midi": 88,
            "name": "E6",
            "ticks": 93696,
            "time": 129.557412,
            "velocity": 0.7874015748031497
          },
          {
            "duration": 0.1327432500000043,
            "durationTicks": 96,
            "midi": 78,
            "name": "F#5",
            "ticks": 93792,
            "time": 129.69015525,
            "velocity": 0.7874015748031497
          },
          {
            "duration": 0.1327432500000043,
            "durationTicks": 96,
            "midi": 87,
            "name": "D#6",
            "ticks": 93792,
            "time": 129.69015525,
            "velocity": 0.7874015748031497
          },
          {
            "duration": 0.1327432499999759,
            "durationTicks": 96,
            "midi": 88,
            "name": "E6",
            "ticks": 93840,
            "time": 129.75652687500002,
            "velocity": 0.5905511811023622
          },
          {
            "duration": 0.1327432499999759,
            "durationTicks": 96,
            "midi": 80,
            "name": "G#5",
            "ticks": 93840,
            "time": 129.75652687500002,
            "velocity": 0.5905511811023622
          },
          {
            "duration": 0.1327432500000043,
            "durationTicks": 96,
            "midi": 76,
            "name": "E5",
            "ticks": 93888,
            "time": 129.8228985,
            "velocity": 0.7874015748031497
          },
          {
            "duration": 0.1327432500000043,
            "durationTicks": 96,
            "midi": 85,
            "name": "C#6",
            "ticks": 93888,
            "time": 129.8228985,
            "velocity": 0.7874015748031497
          },
          {
            "duration": 0.1327432500000043,
            "durationTicks": 96,
            "midi": 87,
            "name": "D#6",
            "ticks": 93936,
            "time": 129.889270125,
            "velocity": 0.5905511811023622
          },
          {
            "duration": 0.1327432500000043,
            "durationTicks": 96,
            "midi": 78,
            "name": "F#5",
            "ticks": 93936,
            "time": 129.889270125,
            "velocity": 0.5905511811023622
          },
          {
            "duration": 0.1327432500000043,
            "durationTicks": 96,
            "midi": 83,
            "name": "B5",
            "ticks": 93984,
            "time": 129.95564175,
            "velocity": 0.7874015748031497
          },
          {
            "duration": 0.1327432500000043,
            "durationTicks": 96,
            "midi": 75,
            "name": "D#5",
            "ticks": 93984,
            "time": 129.95564175,
            "velocity": 0.7874015748031497
          },
          {
            "duration": 0.1327432500000043,
            "durationTicks": 96,
            "midi": 85,
            "name": "C#6",
            "ticks": 94032,
            "time": 130.022013375,
            "velocity": 0.5905511811023622
          },
          {
            "duration": 0.1327432500000043,
            "durationTicks": 96,
            "midi": 76,
            "name": "E5",
            "ticks": 94032,
            "time": 130.022013375,
            "velocity": 0.5905511811023622
          },
          {
            "duration": 0.2654864999999802,
            "durationTicks": 192,
            "midi": 76,
            "name": "E5",
            "ticks": 94080,
            "time": 130.08838500000002,
            "velocity": 0.7874015748031497
          },
          {
            "duration": 0.2654864999999802,
            "durationTicks": 192,
            "midi": 85,
            "name": "C#6",
            "ticks": 94080,
            "time": 130.08838500000002,
            "velocity": 0.7874015748031497
          },
          {
            "duration": 0.1327432500000043,
            "durationTicks": 96,
            "midi": 83,
            "name": "B5",
            "ticks": 94128,
            "time": 130.154756625,
            "velocity": 0.5905511811023622
          },
          {
            "duration": 0.1327432500000043,
            "durationTicks": 96,
            "midi": 75,
            "name": "D#5",
            "ticks": 94128,
            "time": 130.154756625,
            "velocity": 0.5905511811023622
          },
          {
            "duration": 0.2654865000000086,
            "durationTicks": 192,
            "midi": 76,
            "name": "E5",
            "ticks": 94224,
            "time": 130.287499875,
            "velocity": 0.5905511811023622
          },
          {
            "duration": 0.2654865000000086,
            "durationTicks": 192,
            "midi": 85,
            "name": "C#6",
            "ticks": 94224,
            "time": 130.287499875,
            "velocity": 0.5905511811023622
          },
          {
            "duration": 0.2654865000000086,
            "durationTicks": 192,
            "midi": 73,
            "name": "C#5",
            "ticks": 94272,
            "time": 130.3538715,
            "velocity": 0.7874015748031497
          },
          {
            "duration": 0.2654865000000086,
            "durationTicks": 192,
            "midi": 80,
            "name": "G#5",
            "ticks": 94272,
            "time": 130.3538715,
            "velocity": 0.7874015748031497
          },
          {
            "duration": 0.2654864999999802,
            "durationTicks": 192,
            "midi": 80,
            "name": "G#5",
            "ticks": 94416,
            "time": 130.55298637500002,
            "velocity": 0.5905511811023622
          },
          {
            "duration": 0.2654864999999802,
            "durationTicks": 192,
            "midi": 73,
            "name": "C#5",
            "ticks": 94416,
            "time": 130.55298637500002,
            "velocity": 0.5905511811023622
          },
          {
            "duration": 1.061946000000006,
            "durationTicks": 768,
            "midi": 46,
            "name": "A#2",
            "ticks": 94464,
            "time": 130.619358,
            "velocity": 0.7874015748031497
          },
          {
            "duration": 0.3982297500000129,
            "durationTicks": 288,
            "midi": 73,
            "name": "C#5",
            "ticks": 94464,
            "time": 130.619358,
            "velocity": 0.7874015748031497
          },
          {
            "duration": 0.3982297500000129,
            "durationTicks": 288,
            "midi": 82,
            "name": "A#5",
            "ticks": 94464,
            "time": 130.619358,
            "velocity": 0.7874015748031497
          },
          {
            "duration": 0.3982297500000129,
            "durationTicks": 288,
            "midi": 82,
            "name": "A#5",
            "ticks": 94608,
            "time": 130.818472875,
            "velocity": 0.5905511811023622
          },
          {
            "duration": 0.3982297500000129,
            "durationTicks": 288,
            "midi": 73,
            "name": "C#5",
            "ticks": 94608,
            "time": 130.818472875,
            "velocity": 0.5905511811023622
          },
          {
            "duration": 0.1327432499999759,
            "durationTicks": 96,
            "midi": 70,
            "name": "A#4",
            "ticks": 94752,
            "time": 131.01758775000002,
            "velocity": 0.7874015748031497
          },
          {
            "duration": 0.1327432499999759,
            "durationTicks": 96,
            "midi": 78,
            "name": "F#5",
            "ticks": 94752,
            "time": 131.01758775000002,
            "velocity": 0.7874015748031497
          },
          {
            "duration": 0.1327432500000043,
            "durationTicks": 96,
            "midi": 70,
            "name": "A#4",
            "ticks": 94896,
            "time": 131.216702625,
            "velocity": 0.5905511811023622
          },
          {
            "duration": 0.1327432500000043,
            "durationTicks": 96,
            "midi": 78,
            "name": "F#5",
            "ticks": 94896,
            "time": 131.216702625,
            "velocity": 0.5905511811023622
          },
          {
            "duration": 0.1327432500000043,
            "durationTicks": 96,
            "midi": 73,
            "name": "C#5",
            "ticks": 95040,
            "time": 131.4158175,
            "velocity": 0.7874015748031497
          },
          {
            "duration": 0.1327432500000043,
            "durationTicks": 96,
            "midi": 66,
            "name": "F#4",
            "ticks": 95040,
            "time": 131.4158175,
            "velocity": 0.7874015748031497
          },
          {
            "duration": 0.1327432500000043,
            "durationTicks": 96,
            "midi": 75,
            "name": "D#5",
            "ticks": 95136,
            "time": 131.54856075,
            "velocity": 0.7874015748031497
          },
          {
            "duration": 0.1327432500000043,
            "durationTicks": 96,
            "midi": 68,
            "name": "G#4",
            "ticks": 95136,
            "time": 131.54856075,
            "velocity": 0.7874015748031497
          },
          {
            "duration": 0.1327432500000043,
            "durationTicks": 96,
            "midi": 66,
            "name": "F#4",
            "ticks": 95184,
            "time": 131.614932375,
            "velocity": 0.5905511811023622
          },
          {
            "duration": 0.1327432500000043,
            "durationTicks": 96,
            "midi": 73,
            "name": "C#5",
            "ticks": 95184,
            "time": 131.614932375,
            "velocity": 0.5905511811023622
          },
          {
            "duration": 0.3982297499999845,
            "durationTicks": 288,
            "midi": 69,
            "name": "A4",
            "ticks": 95232,
            "time": 131.681304,
            "velocity": 0.7874015748031497
          },
          {
            "duration": 0.3982297499999845,
            "durationTicks": 288,
            "midi": 76,
            "name": "E5",
            "ticks": 95232,
            "time": 131.681304,
            "velocity": 0.7874015748031497
          },
          {
            "duration": 0.5309729999999888,
            "durationTicks": 384,
            "midi": 45,
            "name": "A2",
            "ticks": 95232,
            "time": 131.681304,
            "velocity": 0.7874015748031497
          },
          {
            "duration": 0.1327432500000043,
            "durationTicks": 96,
            "midi": 75,
            "name": "D#5",
            "ticks": 95280,
            "time": 131.747675625,
            "velocity": 0.5905511811023622
          },
          {
            "duration": 0.1327432500000043,
            "durationTicks": 96,
            "midi": 68,
            "name": "G#4",
            "ticks": 95280,
            "time": 131.747675625,
            "velocity": 0.5905511811023622
          },
          {
            "duration": 0.3982297500000129,
            "durationTicks": 288,
            "midi": 76,
            "name": "E5",
            "ticks": 95376,
            "time": 131.880418875,
            "velocity": 0.5905511811023622
          },
          {
            "duration": 0.3982297500000129,
            "durationTicks": 288,
            "midi": 69,
            "name": "A4",
            "ticks": 95376,
            "time": 131.880418875,
            "velocity": 0.5905511811023622
          },
          {
            "duration": 0.2654865000000086,
            "durationTicks": 192,
            "midi": 71,
            "name": "B4",
            "ticks": 95520,
            "time": 132.07953375,
            "velocity": 0.7874015748031497
          },
          {
            "duration": 0.2654865000000086,
            "durationTicks": 192,
            "midi": 78,
            "name": "F#5",
            "ticks": 95520,
            "time": 132.07953375,
            "velocity": 0.7874015748031497
          },
          {
            "duration": 0.5309730000000172,
            "durationTicks": 384,
            "midi": 47,
            "name": "B2",
            "ticks": 95616,
            "time": 132.212277,
            "velocity": 0.7874015748031497
          },
          {
            "duration": 0.2654864999999802,
            "durationTicks": 192,
            "midi": 71,
            "name": "B4",
            "ticks": 95664,
            "time": 132.27864862500002,
            "velocity": 0.5905511811023622
          },
          {
            "duration": 0.2654864999999802,
            "durationTicks": 192,
            "midi": 78,
            "name": "F#5",
            "ticks": 95664,
            "time": 132.27864862500002,
            "velocity": 0.5905511811023622
          },
          {
            "duration": 0.1327432500000043,
            "durationTicks": 96,
            "midi": 73,
            "name": "C#5",
            "ticks": 95712,
            "time": 132.34502025,
            "velocity": 0.7874015748031497
          },
          {
            "duration": 0.2654865000000086,
            "durationTicks": 192,
            "midi": 75,
            "name": "D#5",
            "ticks": 95808,
            "time": 132.4777635,
            "velocity": 0.7874015748031497
          },
          {
            "duration": 0.2654865000000086,
            "durationTicks": 192,
            "midi": 83,
            "name": "B5",
            "ticks": 95808,
            "time": 132.4777635,
            "velocity": 0.7874015748031497
          },
          {
            "duration": 0.1327432500000043,
            "durationTicks": 96,
            "midi": 73,
            "name": "C#5",
            "ticks": 95856,
            "time": 132.544135125,
            "velocity": 0.5905511811023622
          },
          {
            "duration": 0.2654865000000086,
            "durationTicks": 192,
            "midi": 75,
            "name": "D#5",
            "ticks": 95952,
            "time": 132.676878375,
            "velocity": 0.5905511811023622
          },
          {
            "duration": 0.2654865000000086,
            "durationTicks": 192,
            "midi": 83,
            "name": "B5",
            "ticks": 95952,
            "time": 132.676878375,
            "velocity": 0.5905511811023622
          },
          {
            "duration": 1.0619459999999776,
            "durationTicks": 768,
            "midi": 80,
            "name": "G#5",
            "ticks": 96000,
            "time": 132.74325000000002,
            "velocity": 0.7874015748031497
          },
          {
            "duration": 1.0619459999999776,
            "durationTicks": 768,
            "midi": 76,
            "name": "E5",
            "ticks": 96000,
            "time": 132.74325000000002,
            "velocity": 0.7874015748031497
          },
          {
            "duration": 1.0619459999999776,
            "durationTicks": 768,
            "midi": 49,
            "name": "C#3",
            "ticks": 96000,
            "time": 132.74325000000002,
            "velocity": 0.7874015748031497
          },
          {
            "duration": 0.9955743749999897,
            "durationTicks": 720,
            "midi": 80,
            "name": "G#5",
            "ticks": 96144,
            "time": 132.942364875,
            "velocity": 0.5905511811023622
          },
          {
            "duration": 1.061946000000006,
            "durationTicks": 768,
            "midi": 76,
            "name": "E5",
            "ticks": 96144,
            "time": 132.942364875,
            "velocity": 0.5905511811023622
          },
          {
            "duration": 1.061946000000006,
            "durationTicks": 768,
            "midi": 49,
            "name": "C#3",
            "ticks": 96768,
            "time": 133.805196,
            "velocity": 0.7874015748031497
          },
          {
            "duration": 0.19911487500002067,
            "durationTicks": 144,
            "midi": 80,
            "name": "G#5",
            "ticks": 96768,
            "time": 133.805196,
            "velocity": 0.7874015748031497
          },
          {
            "duration": 0.1327432500000043,
            "durationTicks": 96,
            "midi": 88,
            "name": "E6",
            "ticks": 96768,
            "time": 133.805196,
            "velocity": 0.7874015748031497
          },
          {
            "duration": 0.1327432500000043,
            "durationTicks": 96,
            "midi": 87,
            "name": "D#6",
            "ticks": 96864,
            "time": 133.93793925,
            "velocity": 0.7874015748031497
          },
          {
            "duration": 0.1327432500000043,
            "durationTicks": 96,
            "midi": 78,
            "name": "F#5",
            "ticks": 96864,
            "time": 133.93793925,
            "velocity": 0.7874015748031497
          },
          {
            "duration": 0.1327432500000043,
            "durationTicks": 96,
            "midi": 80,
            "name": "G#5",
            "ticks": 96912,
            "time": 134.00431087500002,
            "velocity": 0.5905511811023622
          },
          {
            "duration": 0.1327432500000043,
            "durationTicks": 96,
            "midi": 88,
            "name": "E6",
            "ticks": 96912,
            "time": 134.00431087500002,
            "velocity": 0.5905511811023622
          },
          {
            "duration": 0.1327432500000043,
            "durationTicks": 96,
            "midi": 85,
            "name": "C#6",
            "ticks": 96960,
            "time": 134.0706825,
            "velocity": 0.7874015748031497
          },
          {
            "duration": 0.1327432500000043,
            "durationTicks": 96,
            "midi": 76,
            "name": "E5",
            "ticks": 96960,
            "time": 134.0706825,
            "velocity": 0.7874015748031497
          },
          {
            "duration": 0.1327432499999759,
            "durationTicks": 96,
            "midi": 78,
            "name": "F#5",
            "ticks": 97008,
            "time": 134.13705412500002,
            "velocity": 0.5905511811023622
          },
          {
            "duration": 0.1327432499999759,
            "durationTicks": 96,
            "midi": 87,
            "name": "D#6",
            "ticks": 97008,
            "time": 134.13705412500002,
            "velocity": 0.5905511811023622
          },
          {
            "duration": 0.1327432500000043,
            "durationTicks": 96,
            "midi": 83,
            "name": "B5",
            "ticks": 97056,
            "time": 134.20342575,
            "velocity": 0.7874015748031497
          },
          {
            "duration": 0.1327432500000043,
            "durationTicks": 96,
            "midi": 75,
            "name": "D#5",
            "ticks": 97056,
            "time": 134.20342575,
            "velocity": 0.7874015748031497
          },
          {
            "duration": 0.1327432500000043,
            "durationTicks": 96,
            "midi": 85,
            "name": "C#6",
            "ticks": 97104,
            "time": 134.269797375,
            "velocity": 0.5905511811023622
          },
          {
            "duration": 0.1327432500000043,
            "durationTicks": 96,
            "midi": 76,
            "name": "E5",
            "ticks": 97104,
            "time": 134.269797375,
            "velocity": 0.5905511811023622
          },
          {
            "duration": 0.2654865000000086,
            "durationTicks": 192,
            "midi": 85,
            "name": "C#6",
            "ticks": 97152,
            "time": 134.336169,
            "velocity": 0.7874015748031497
          },
          {
            "duration": 0.2654865000000086,
            "durationTicks": 192,
            "midi": 76,
            "name": "E5",
            "ticks": 97152,
            "time": 134.336169,
            "velocity": 0.7874015748031497
          },
          {
            "duration": 0.1327432500000043,
            "durationTicks": 96,
            "midi": 83,
            "name": "B5",
            "ticks": 97200,
            "time": 134.402540625,
            "velocity": 0.5905511811023622
          },
          {
            "duration": 0.1327432500000043,
            "durationTicks": 96,
            "midi": 75,
            "name": "D#5",
            "ticks": 97200,
            "time": 134.402540625,
            "velocity": 0.5905511811023622
          },
          {
            "duration": 0.2654865000000086,
            "durationTicks": 192,
            "midi": 85,
            "name": "C#6",
            "ticks": 97296,
            "time": 134.535283875,
            "velocity": 0.5905511811023622
          },
          {
            "duration": 0.2654865000000086,
            "durationTicks": 192,
            "midi": 76,
            "name": "E5",
            "ticks": 97296,
            "time": 134.535283875,
            "velocity": 0.5905511811023622
          },
          {
            "duration": 0.2654864999999802,
            "durationTicks": 192,
            "midi": 80,
            "name": "G#5",
            "ticks": 97344,
            "time": 134.60165550000002,
            "velocity": 0.7874015748031497
          },
          {
            "duration": 0.2654864999999802,
            "durationTicks": 192,
            "midi": 73,
            "name": "C#5",
            "ticks": 97344,
            "time": 134.60165550000002,
            "velocity": 0.7874015748031497
          },
          {
            "duration": 0.2654864999999802,
            "durationTicks": 192,
            "midi": 80,
            "name": "G#5",
            "ticks": 97488,
            "time": 134.800770375,
            "velocity": 0.5905511811023622
          },
          {
            "duration": 0.2654864999999802,
            "durationTicks": 192,
            "midi": 73,
            "name": "C#5",
            "ticks": 97488,
            "time": 134.800770375,
            "velocity": 0.5905511811023622
          },
          {
            "duration": 1.061946000000006,
            "durationTicks": 768,
            "midi": 46,
            "name": "A#2",
            "ticks": 97536,
            "time": 134.867142,
            "velocity": 0.7874015748031497
          },
          {
            "duration": 0.3982297500000129,
            "durationTicks": 288,
            "midi": 82,
            "name": "A#5",
            "ticks": 97536,
            "time": 134.867142,
            "velocity": 0.7874015748031497
          },
          {
            "duration": 0.3982297500000129,
            "durationTicks": 288,
            "midi": 73,
            "name": "C#5",
            "ticks": 97536,
            "time": 134.867142,
            "velocity": 0.7874015748031497
          },
          {
            "duration": 0.3982297500000129,
            "durationTicks": 288,
            "midi": 82,
            "name": "A#5",
            "ticks": 97680,
            "time": 135.066256875,
            "velocity": 0.5905511811023622
          },
          {
            "duration": 0.3982297500000129,
            "durationTicks": 288,
            "midi": 73,
            "name": "C#5",
            "ticks": 97680,
            "time": 135.066256875,
            "velocity": 0.5905511811023622
          },
          {
            "duration": 0.1327432500000043,
            "durationTicks": 96,
            "midi": 78,
            "name": "F#5",
            "ticks": 97824,
            "time": 135.26537175,
            "velocity": 0.7874015748031497
          },
          {
            "duration": 0.1327432500000043,
            "durationTicks": 96,
            "midi": 70,
            "name": "A#4",
            "ticks": 97824,
            "time": 135.26537175,
            "velocity": 0.7874015748031497
          },
          {
            "duration": 0.1327432500000043,
            "durationTicks": 96,
            "midi": 70,
            "name": "A#4",
            "ticks": 97968,
            "time": 135.464486625,
            "velocity": 0.5905511811023622
          },
          {
            "duration": 0.1327432500000043,
            "durationTicks": 96,
            "midi": 78,
            "name": "F#5",
            "ticks": 97968,
            "time": 135.464486625,
            "velocity": 0.5905511811023622
          },
          {
            "duration": 0.1327432500000043,
            "durationTicks": 96,
            "midi": 66,
            "name": "F#4",
            "ticks": 98112,
            "time": 135.6636015,
            "velocity": 0.7874015748031497
          },
          {
            "duration": 0.1327432500000043,
            "durationTicks": 96,
            "midi": 73,
            "name": "C#5",
            "ticks": 98112,
            "time": 135.6636015,
            "velocity": 0.7874015748031497
          },
          {
            "duration": 0.1327432500000043,
            "durationTicks": 96,
            "midi": 75,
            "name": "D#5",
            "ticks": 98208,
            "time": 135.79634475,
            "velocity": 0.7874015748031497
          },
          {
            "duration": 0.1327432500000043,
            "durationTicks": 96,
            "midi": 68,
            "name": "G#4",
            "ticks": 98208,
            "time": 135.79634475,
            "velocity": 0.7874015748031497
          },
          {
            "duration": 0.1327432499999759,
            "durationTicks": 96,
            "midi": 66,
            "name": "F#4",
            "ticks": 98256,
            "time": 135.86271637500002,
            "velocity": 0.5905511811023622
          },
          {
            "duration": 0.1327432499999759,
            "durationTicks": 96,
            "midi": 73,
            "name": "C#5",
            "ticks": 98256,
            "time": 135.86271637500002,
            "velocity": 0.5905511811023622
          },
          {
            "duration": 0.3982297500000129,
            "durationTicks": 288,
            "midi": 69,
            "name": "A4",
            "ticks": 98304,
            "time": 135.929088,
            "velocity": 0.7874015748031497
          },
          {
            "duration": 0.5309729999999888,
            "durationTicks": 384,
            "midi": 45,
            "name": "A2",
            "ticks": 98304,
            "time": 135.929088,
            "velocity": 0.7874015748031497
          },
          {
            "duration": 0.3982297500000129,
            "durationTicks": 288,
            "midi": 76,
            "name": "E5",
            "ticks": 98304,
            "time": 135.929088,
            "velocity": 0.7874015748031497
          },
          {
            "duration": 0.1327432500000043,
            "durationTicks": 96,
            "midi": 68,
            "name": "G#4",
            "ticks": 98352,
            "time": 135.995459625,
            "velocity": 0.5905511811023622
          },
          {
            "duration": 0.1327432500000043,
            "durationTicks": 96,
            "midi": 75,
            "name": "D#5",
            "ticks": 98352,
            "time": 135.995459625,
            "velocity": 0.5905511811023622
          },
          {
            "duration": 0.3982297500000129,
            "durationTicks": 288,
            "midi": 76,
            "name": "E5",
            "ticks": 98448,
            "time": 136.128202875,
            "velocity": 0.5905511811023622
          },
          {
            "duration": 0.3982297500000129,
            "durationTicks": 288,
            "midi": 69,
            "name": "A4",
            "ticks": 98448,
            "time": 136.128202875,
            "velocity": 0.5905511811023622
          },
          {
            "duration": 0.2654864999999802,
            "durationTicks": 192,
            "midi": 75,
            "name": "D#5",
            "ticks": 98592,
            "time": 136.32731775000002,
            "velocity": 0.7874015748031497
          },
          {
            "duration": 0.2654864999999802,
            "durationTicks": 192,
            "midi": 71,
            "name": "B4",
            "ticks": 98592,
            "time": 136.32731775000002,
            "velocity": 0.7874015748031497
          },
          {
            "duration": 0.5309730000000172,
            "durationTicks": 384,
            "midi": 47,
            "name": "B2",
            "ticks": 98688,
            "time": 136.460061,
            "velocity": 0.7874015748031497
          },
          {
            "duration": 0.2654865000000086,
            "durationTicks": 192,
            "midi": 71,
            "name": "B4",
            "ticks": 98736,
            "time": 136.526432625,
            "velocity": 0.5905511811023622
          },
          {
            "duration": 0.2654865000000086,
            "durationTicks": 192,
            "midi": 75,
            "name": "D#5",
            "ticks": 98736,
            "time": 136.526432625,
            "velocity": 0.5905511811023622
          },
          {
            "duration": 0.1327432500000043,
            "durationTicks": 96,
            "midi": 68,
            "name": "G#4",
            "ticks": 98784,
            "time": 136.59280425,
            "velocity": 0.7874015748031497
          },
          {
            "duration": 0.2654865000000086,
            "durationTicks": 192,
            "midi": 75,
            "name": "D#5",
            "ticks": 98880,
            "time": 136.7255475,
            "velocity": 0.7874015748031497
          },
          {
            "duration": 0.2654865000000086,
            "durationTicks": 192,
            "midi": 71,
            "name": "B4",
            "ticks": 98880,
            "time": 136.7255475,
            "velocity": 0.7874015748031497
          },
          {
            "duration": 0.1327432499999759,
            "durationTicks": 96,
            "midi": 68,
            "name": "G#4",
            "ticks": 98928,
            "time": 136.79191912500002,
            "velocity": 0.5905511811023622
          },
          {
            "duration": 0.2654865000000086,
            "durationTicks": 192,
            "midi": 71,
            "name": "B4",
            "ticks": 99024,
            "time": 136.924662375,
            "velocity": 0.5905511811023622
          },
          {
            "duration": 0.2654865000000086,
            "durationTicks": 192,
            "midi": 75,
            "name": "D#5",
            "ticks": 99024,
            "time": 136.924662375,
            "velocity": 0.5905511811023622
          },
          {
            "duration": 1.061946000000006,
            "durationTicks": 768,
            "midi": 73,
            "name": "C#5",
            "ticks": 99072,
            "time": 136.991034,
            "velocity": 0.7874015748031497
          },
          {
            "duration": 1.061946000000006,
            "durationTicks": 768,
            "midi": 49,
            "name": "C#3",
            "ticks": 99072,
            "time": 136.991034,
            "velocity": 0.7874015748031497
          },
          {
            "duration": 1.061946000000006,
            "durationTicks": 768,
            "midi": 68,
            "name": "G#4",
            "ticks": 99072,
            "time": 136.991034,
            "velocity": 0.7874015748031497
          },
          {
            "duration": 1.061946000000006,
            "durationTicks": 768,
            "midi": 73,
            "name": "C#5",
            "ticks": 99216,
            "time": 137.190148875,
            "velocity": 0.5905511811023622
          },
          {
            "duration": 0.9955743749999897,
            "durationTicks": 720,
            "midi": 68,
            "name": "G#4",
            "ticks": 99216,
            "time": 137.190148875,
            "velocity": 0.5905511811023622
          },
          {
            "duration": 0.19911487499999225,
            "durationTicks": 144,
            "midi": 68,
            "name": "G#4",
            "ticks": 99840,
            "time": 138.05298000000002,
            "velocity": 0.7874015748031497
          },
          {
            "duration": 1.0619459999999776,
            "durationTicks": 768,
            "midi": 49,
            "name": "C#3",
            "ticks": 99840,
            "time": 138.05298000000002,
            "velocity": 0.7874015748031497
          },
          {
            "duration": 0.1327432499999759,
            "durationTicks": 96,
            "midi": 76,
            "name": "E5",
            "ticks": 99840,
            "time": 138.05298000000002,
            "velocity": 0.7874015748031497
          },
          {
            "duration": 0.1327432500000043,
            "durationTicks": 96,
            "midi": 66,
            "name": "F#4",
            "ticks": 99936,
            "time": 138.18572325,
            "velocity": 0.7874015748031497
          },
          {
            "duration": 0.1327432500000043,
            "durationTicks": 96,
            "midi": 75,
            "name": "D#5",
            "ticks": 99936,
            "time": 138.18572325,
            "velocity": 0.7874015748031497
          },
          {
            "duration": 0.1327432500000043,
            "durationTicks": 96,
            "midi": 76,
            "name": "E5",
            "ticks": 99984,
            "time": 138.252094875,
            "velocity": 0.5905511811023622
          },
          {
            "duration": 0.1327432500000043,
            "durationTicks": 96,
            "midi": 68,
            "name": "G#4",
            "ticks": 99984,
            "time": 138.252094875,
            "velocity": 0.5905511811023622
          },
          {
            "duration": 0.1327432500000043,
            "durationTicks": 96,
            "midi": 73,
            "name": "C#5",
            "ticks": 100032,
            "time": 138.3184665,
            "velocity": 0.7874015748031497
          },
          {
            "duration": 0.1327432500000043,
            "durationTicks": 96,
            "midi": 64,
            "name": "E4",
            "ticks": 100032,
            "time": 138.3184665,
            "velocity": 0.7874015748031497
          },
          {
            "duration": 0.1327432500000043,
            "durationTicks": 96,
            "midi": 75,
            "name": "D#5",
            "ticks": 100080,
            "time": 138.38483812500002,
            "velocity": 0.5905511811023622
          },
          {
            "duration": 0.1327432500000043,
            "durationTicks": 96,
            "midi": 66,
            "name": "F#4",
            "ticks": 100080,
            "time": 138.38483812500002,
            "velocity": 0.5905511811023622
          },
          {
            "duration": 0.1327432500000043,
            "durationTicks": 96,
            "midi": 71,
            "name": "B4",
            "ticks": 100128,
            "time": 138.45120975,
            "velocity": 0.7874015748031497
          },
          {
            "duration": 0.1327432500000043,
            "durationTicks": 96,
            "midi": 63,
            "name": "D#4",
            "ticks": 100128,
            "time": 138.45120975,
            "velocity": 0.7874015748031497
          },
          {
            "duration": 0.1327432499999759,
            "durationTicks": 96,
            "midi": 73,
            "name": "C#5",
            "ticks": 100176,
            "time": 138.51758137500002,
            "velocity": 0.5905511811023622
          },
          {
            "duration": 0.1327432499999759,
            "durationTicks": 96,
            "midi": 64,
            "name": "E4",
            "ticks": 100176,
            "time": 138.51758137500002,
            "velocity": 0.5905511811023622
          },
          {
            "duration": 0.2654865000000086,
            "durationTicks": 192,
            "midi": 73,
            "name": "C#5",
            "ticks": 100224,
            "time": 138.583953,
            "velocity": 0.7874015748031497
          },
          {
            "duration": 0.2654865000000086,
            "durationTicks": 192,
            "midi": 64,
            "name": "E4",
            "ticks": 100224,
            "time": 138.583953,
            "velocity": 0.7874015748031497
          },
          {
            "duration": 0.1327432500000043,
            "durationTicks": 96,
            "midi": 63,
            "name": "D#4",
            "ticks": 100272,
            "time": 138.650324625,
            "velocity": 0.5905511811023622
          },
          {
            "duration": 0.1327432500000043,
            "durationTicks": 96,
            "midi": 71,
            "name": "B4",
            "ticks": 100272,
            "time": 138.650324625,
            "velocity": 0.5905511811023622
          },
          {
            "duration": 0.2654865000000086,
            "durationTicks": 192,
            "midi": 64,
            "name": "E4",
            "ticks": 100368,
            "time": 138.783067875,
            "velocity": 0.5905511811023622
          },
          {
            "duration": 0.2654865000000086,
            "durationTicks": 192,
            "midi": 73,
            "name": "C#5",
            "ticks": 100368,
            "time": 138.783067875,
            "velocity": 0.5905511811023622
          },
          {
            "duration": 0.2654864999999802,
            "durationTicks": 192,
            "midi": 68,
            "name": "G#4",
            "ticks": 100416,
            "time": 138.84943950000002,
            "velocity": 0.7874015748031497
          },
          {
            "duration": 0.2654864999999802,
            "durationTicks": 192,
            "midi": 61,
            "name": "C#4",
            "ticks": 100416,
            "time": 138.84943950000002,
            "velocity": 0.7874015748031497
          },
          {
            "duration": 0.2654865000000086,
            "durationTicks": 192,
            "midi": 61,
            "name": "C#4",
            "ticks": 100560,
            "time": 139.048554375,
            "velocity": 0.5905511811023622
          },
          {
            "duration": 0.2654865000000086,
            "durationTicks": 192,
            "midi": 68,
            "name": "G#4",
            "ticks": 100560,
            "time": 139.048554375,
            "velocity": 0.5905511811023622
          },
          {
            "duration": 0.3982297500000129,
            "durationTicks": 288,
            "midi": 61,
            "name": "C#4",
            "ticks": 100608,
            "time": 139.114926,
            "velocity": 0.7874015748031497
          },
          {
            "duration": 1.061946000000006,
            "durationTicks": 768,
            "midi": 46,
            "name": "A#2",
            "ticks": 100608,
            "time": 139.114926,
            "velocity": 0.7874015748031497
          },
          {
            "duration": 0.3982297500000129,
            "durationTicks": 288,
            "midi": 70,
            "name": "A#4",
            "ticks": 100608,
            "time": 139.114926,
            "velocity": 0.7874015748031497
          },
          {
            "duration": 0.3982297499999845,
            "durationTicks": 288,
            "midi": 70,
            "name": "A#4",
            "ticks": 100752,
            "time": 139.31404087500002,
            "velocity": 0.5905511811023622
          },
          {
            "duration": 0.3982297499999845,
            "durationTicks": 288,
            "midi": 61,
            "name": "C#4",
            "ticks": 100752,
            "time": 139.31404087500002,
            "velocity": 0.5905511811023622
          },
          {
            "duration": 0.1327432500000043,
            "durationTicks": 96,
            "midi": 66,
            "name": "F#4",
            "ticks": 100896,
            "time": 139.51315575,
            "velocity": 0.7874015748031497
          },
          {
            "duration": 0.1327432500000043,
            "durationTicks": 96,
            "midi": 58,
            "name": "A#3",
            "ticks": 100896,
            "time": 139.51315575,
            "velocity": 0.7874015748031497
          },
          {
            "duration": 0.1327432500000043,
            "durationTicks": 96,
            "midi": 66,
            "name": "F#4",
            "ticks": 101040,
            "time": 139.712270625,
            "velocity": 0.5905511811023622
          },
          {
            "duration": 0.1327432500000043,
            "durationTicks": 96,
            "midi": 58,
            "name": "A#3",
            "ticks": 101040,
            "time": 139.712270625,
            "velocity": 0.5905511811023622
          },
          {
            "duration": 0.1327432500000043,
            "durationTicks": 96,
            "midi": 61,
            "name": "C#4",
            "ticks": 101184,
            "time": 139.9113855,
            "velocity": 0.7874015748031497
          },
          {
            "duration": 0.1327432500000043,
            "durationTicks": 96,
            "midi": 54,
            "name": "F#3",
            "ticks": 101184,
            "time": 139.9113855,
            "velocity": 0.7874015748031497
          },
          {
            "duration": 0.1327432500000043,
            "durationTicks": 96,
            "midi": 63,
            "name": "D#4",
            "ticks": 101280,
            "time": 140.04412875,
            "velocity": 0.7874015748031497
          },
          {
            "duration": 0.1327432500000043,
            "durationTicks": 96,
            "midi": 56,
            "name": "G#3",
            "ticks": 101280,
            "time": 140.04412875,
            "velocity": 0.7874015748031497
          },
          {
            "duration": 0.1327432500000043,
            "durationTicks": 96,
            "midi": 54,
            "name": "F#3",
            "ticks": 101328,
            "time": 140.11050037500002,
            "velocity": 0.5905511811023622
          },
          {
            "duration": 0.1327432500000043,
            "durationTicks": 96,
            "midi": 61,
            "name": "C#4",
            "ticks": 101328,
            "time": 140.11050037500002,
            "velocity": 0.5905511811023622
          },
          {
            "duration": 0.3982297500000129,
            "durationTicks": 288,
            "midi": 64,
            "name": "E4",
            "ticks": 101376,
            "time": 140.176872,
            "velocity": 0.7874015748031497
          },
          {
            "duration": 0.3982297500000129,
            "durationTicks": 288,
            "midi": 57,
            "name": "A3",
            "ticks": 101376,
            "time": 140.176872,
            "velocity": 0.7874015748031497
          },
          {
            "duration": 0.5309730000000172,
            "durationTicks": 384,
            "midi": 45,
            "name": "A2",
            "ticks": 101376,
            "time": 140.176872,
            "velocity": 0.7874015748031497
          },
          {
            "duration": 0.1327432499999759,
            "durationTicks": 96,
            "midi": 63,
            "name": "D#4",
            "ticks": 101424,
            "time": 140.24324362500002,
            "velocity": 0.5905511811023622
          },
          {
            "duration": 0.1327432499999759,
            "durationTicks": 96,
            "midi": 56,
            "name": "G#3",
            "ticks": 101424,
            "time": 140.24324362500002,
            "velocity": 0.5905511811023622
          },
          {
            "duration": 0.3982297500000129,
            "durationTicks": 288,
            "midi": 64,
            "name": "E4",
            "ticks": 101520,
            "time": 140.375986875,
            "velocity": 0.5905511811023622
          },
          {
            "duration": 0.3982297500000129,
            "durationTicks": 288,
            "midi": 57,
            "name": "A3",
            "ticks": 101520,
            "time": 140.375986875,
            "velocity": 0.5905511811023622
          },
          {
            "duration": 0.2654864999999802,
            "durationTicks": 192,
            "midi": 59,
            "name": "B3",
            "ticks": 101664,
            "time": 140.57510175000002,
            "velocity": 0.7874015748031497
          },
          {
            "duration": 0.2654864999999802,
            "durationTicks": 192,
            "midi": 66,
            "name": "F#4",
            "ticks": 101664,
            "time": 140.57510175000002,
            "velocity": 0.7874015748031497
          },
          {
            "duration": 0.5309729999999888,
            "durationTicks": 384,
            "midi": 47,
            "name": "B2",
            "ticks": 101760,
            "time": 140.70784500000002,
            "velocity": 0.7874015748031497
          },
          {
            "duration": 0.2654865000000086,
            "durationTicks": 192,
            "midi": 59,
            "name": "B3",
            "ticks": 101808,
            "time": 140.774216625,
            "velocity": 0.5905511811023622
          },
          {
            "duration": 0.2654865000000086,
            "durationTicks": 192,
            "midi": 66,
            "name": "F#4",
            "ticks": 101808,
            "time": 140.774216625,
            "velocity": 0.5905511811023622
          },
          {
            "duration": 0.1327432500000043,
            "durationTicks": 96,
            "midi": 61,
            "name": "C#4",
            "ticks": 101856,
            "time": 140.84058825,
            "velocity": 0.7874015748031497
          },
          {
            "duration": 0.2654865000000086,
            "durationTicks": 192,
            "midi": 63,
            "name": "D#4",
            "ticks": 101952,
            "time": 140.9733315,
            "velocity": 0.7874015748031497
          },
          {
            "duration": 0.2654865000000086,
            "durationTicks": 192,
            "midi": 71,
            "name": "B4",
            "ticks": 101952,
            "time": 140.9733315,
            "velocity": 0.7874015748031497
          },
          {
            "duration": 0.1327432500000043,
            "durationTicks": 96,
            "midi": 61,
            "name": "C#4",
            "ticks": 102000,
            "time": 141.03970312500002,
            "velocity": 0.5905511811023622
          },
          {
            "duration": 0.2654864999999802,
            "durationTicks": 192,
            "midi": 71,
            "name": "B4",
            "ticks": 102096,
            "time": 141.17244637500002,
            "velocity": 0.5905511811023622
          },
          {
            "duration": 0.2654864999999802,
            "durationTicks": 192,
            "midi": 63,
            "name": "D#4",
            "ticks": 102096,
            "time": 141.17244637500002,
            "velocity": 0.5905511811023622
          },
          {
            "duration": 1.061946000000006,
            "durationTicks": 768,
            "midi": 68,
            "name": "G#4",
            "ticks": 102144,
            "time": 141.238818,
            "velocity": 0.7874015748031497
          },
          {
            "duration": 1.061946000000006,
            "durationTicks": 768,
            "midi": 49,
            "name": "C#3",
            "ticks": 102144,
            "time": 141.238818,
            "velocity": 0.7874015748031497
          },
          {
            "duration": 1.061946000000006,
            "durationTicks": 768,
            "midi": 64,
            "name": "E4",
            "ticks": 102144,
            "time": 141.238818,
            "velocity": 0.7874015748031497
          },
          {
            "duration": 0.9955743750000181,
            "durationTicks": 720,
            "midi": 68,
            "name": "G#4",
            "ticks": 102288,
            "time": 141.437932875,
            "velocity": 0.5905511811023622
          },
          {
            "duration": 1.061946000000006,
            "durationTicks": 768,
            "midi": 64,
            "name": "E4",
            "ticks": 102288,
            "time": 141.437932875,
            "velocity": 0.5905511811023622
          },
          {
            "duration": 0.1327432500000043,
            "durationTicks": 96,
            "midi": 76,
            "name": "E5",
            "ticks": 102912,
            "time": 142.30076400000002,
            "velocity": 0.7874015748031497
          },
          {
            "duration": 0.19911487499999225,
            "durationTicks": 144,
            "midi": 68,
            "name": "G#4",
            "ticks": 102912,
            "time": 142.30076400000002,
            "velocity": 0.7874015748031497
          },
          {
            "duration": 1.061946000000006,
            "durationTicks": 768,
            "midi": 49,
            "name": "C#3",
            "ticks": 102912,
            "time": 142.30076400000002,
            "velocity": 0.7874015748031497
          },
          {
            "duration": 0.1327432499999759,
            "durationTicks": 96,
            "midi": 75,
            "name": "D#5",
            "ticks": 103008,
            "time": 142.43350725000002,
            "velocity": 0.7874015748031497
          },
          {
            "duration": 0.1327432499999759,
            "durationTicks": 96,
            "midi": 66,
            "name": "F#4",
            "ticks": 103008,
            "time": 142.43350725000002,
            "velocity": 0.7874015748031497
          },
          {
            "duration": 0.1327432500000043,
            "durationTicks": 96,
            "midi": 68,
            "name": "G#4",
            "ticks": 103056,
            "time": 142.499878875,
            "velocity": 0.5905511811023622
          },
          {
            "duration": 0.1327432500000043,
            "durationTicks": 96,
            "midi": 76,
            "name": "E5",
            "ticks": 103056,
            "time": 142.499878875,
            "velocity": 0.5905511811023622
          },
          {
            "duration": 0.1327432500000043,
            "durationTicks": 96,
            "midi": 64,
            "name": "E4",
            "ticks": 103104,
            "time": 142.5662505,
            "velocity": 0.7874015748031497
          },
          {
            "duration": 0.1327432500000043,
            "durationTicks": 96,
            "midi": 73,
            "name": "C#5",
            "ticks": 103104,
            "time": 142.5662505,
            "velocity": 0.7874015748031497
          },
          {
            "duration": 0.1327432500000043,
            "durationTicks": 96,
            "midi": 66,
            "name": "F#4",
            "ticks": 103152,
            "time": 142.632622125,
            "velocity": 0.5905511811023622
          },
          {
            "duration": 0.1327432500000043,
            "durationTicks": 96,
            "midi": 75,
            "name": "D#5",
            "ticks": 103152,
            "time": 142.632622125,
            "velocity": 0.5905511811023622
          },
          {
            "duration": 0.1327432500000043,
            "durationTicks": 96,
            "midi": 71,
            "name": "B4",
            "ticks": 103200,
            "time": 142.69899375,
            "velocity": 0.7874015748031497
          },
          {
            "duration": 0.1327432500000043,
            "durationTicks": 96,
            "midi": 63,
            "name": "D#4",
            "ticks": 103200,
            "time": 142.69899375,
            "velocity": 0.7874015748031497
          },
          {
            "duration": 0.1327432500000043,
            "durationTicks": 96,
            "midi": 73,
            "name": "C#5",
            "ticks": 103248,
            "time": 142.76536537500002,
            "velocity": 0.5905511811023622
          },
          {
            "duration": 0.1327432500000043,
            "durationTicks": 96,
            "midi": 64,
            "name": "E4",
            "ticks": 103248,
            "time": 142.76536537500002,
            "velocity": 0.5905511811023622
          },
          {
            "duration": 0.2654865000000086,
            "durationTicks": 192,
            "midi": 73,
            "name": "C#5",
            "ticks": 103296,
            "time": 142.831737,
            "velocity": 0.7874015748031497
          },
          {
            "duration": 0.2654865000000086,
            "durationTicks": 192,
            "midi": 64,
            "name": "E4",
            "ticks": 103296,
            "time": 142.831737,
            "velocity": 0.7874015748031497
          },
          {
            "duration": 0.1327432499999759,
            "durationTicks": 96,
            "midi": 63,
            "name": "D#4",
            "ticks": 103344,
            "time": 142.89810862500002,
            "velocity": 0.5905511811023622
          },
          {
            "duration": 0.1327432499999759,
            "durationTicks": 96,
            "midi": 71,
            "name": "B4",
            "ticks": 103344,
            "time": 142.89810862500002,
            "velocity": 0.5905511811023622
          },
          {
            "duration": 0.2654865000000086,
            "durationTicks": 192,
            "midi": 73,
            "name": "C#5",
            "ticks": 103440,
            "time": 143.030851875,
            "velocity": 0.5905511811023622
          },
          {
            "duration": 0.2654865000000086,
            "durationTicks": 192,
            "midi": 64,
            "name": "E4",
            "ticks": 103440,
            "time": 143.030851875,
            "velocity": 0.5905511811023622
          },
          {
            "duration": 0.2654865000000086,
            "durationTicks": 192,
            "midi": 68,
            "name": "G#4",
            "ticks": 103488,
            "time": 143.0972235,
            "velocity": 0.7874015748031497
          },
          {
            "duration": 0.2654865000000086,
            "durationTicks": 192,
            "midi": 61,
            "name": "C#4",
            "ticks": 103488,
            "time": 143.0972235,
            "velocity": 0.7874015748031497
          },
          {
            "duration": 0.2654865000000086,
            "durationTicks": 192,
            "midi": 68,
            "name": "G#4",
            "ticks": 103632,
            "time": 143.296338375,
            "velocity": 0.5905511811023622
          },
          {
            "duration": 0.2654865000000086,
            "durationTicks": 192,
            "midi": 61,
            "name": "C#4",
            "ticks": 103632,
            "time": 143.296338375,
            "velocity": 0.5905511811023622
          },
          {
            "duration": 0.3982297499999845,
            "durationTicks": 288,
            "midi": 61,
            "name": "C#4",
            "ticks": 103680,
            "time": 143.36271000000002,
            "velocity": 0.7874015748031497
          },
          {
            "duration": 0.3982297499999845,
            "durationTicks": 288,
            "midi": 70,
            "name": "A#4",
            "ticks": 103680,
            "time": 143.36271000000002,
            "velocity": 0.7874015748031497
          },
          {
            "duration": 1.0619459999999776,
            "durationTicks": 768,
            "midi": 46,
            "name": "A#2",
            "ticks": 103680,
            "time": 143.36271000000002,
            "velocity": 0.7874015748031497
          },
          {
            "duration": 0.3982297499999845,
            "durationTicks": 288,
            "midi": 61,
            "name": "C#4",
            "ticks": 103824,
            "time": 143.561824875,
            "velocity": 0.5905511811023622
          },
          {
            "duration": 0.3982297499999845,
            "durationTicks": 288,
            "midi": 70,
            "name": "A#4",
            "ticks": 103824,
            "time": 143.561824875,
            "velocity": 0.5905511811023622
          },
          {
            "duration": 0.1327432500000043,
            "durationTicks": 96,
            "midi": 58,
            "name": "A#3",
            "ticks": 103968,
            "time": 143.76093975,
            "velocity": 0.7874015748031497
          },
          {
            "duration": 0.1327432500000043,
            "durationTicks": 96,
            "midi": 66,
            "name": "F#4",
            "ticks": 103968,
            "time": 143.76093975,
            "velocity": 0.7874015748031497
          },
          {
            "duration": 0.1327432500000043,
            "durationTicks": 96,
            "midi": 66,
            "name": "F#4",
            "ticks": 104112,
            "time": 143.960054625,
            "velocity": 0.5905511811023622
          },
          {
            "duration": 0.1327432500000043,
            "durationTicks": 96,
            "midi": 58,
            "name": "A#3",
            "ticks": 104112,
            "time": 143.960054625,
            "velocity": 0.5905511811023622
          },
          {
            "duration": 0.1327432499999759,
            "durationTicks": 96,
            "midi": 61,
            "name": "C#4",
            "ticks": 104256,
            "time": 144.15916950000002,
            "velocity": 0.7874015748031497
          },
          {
            "duration": 0.1327432499999759,
            "durationTicks": 96,
            "midi": 54,
            "name": "F#3",
            "ticks": 104256,
            "time": 144.15916950000002,
            "velocity": 0.7874015748031497
          },
          {
            "duration": 0.1327432500000043,
            "durationTicks": 96,
            "midi": 56,
            "name": "G#3",
            "ticks": 104352,
            "time": 144.29191275,
            "velocity": 0.7874015748031497
          },
          {
            "duration": 0.1327432500000043,
            "durationTicks": 96,
            "midi": 63,
            "name": "D#4",
            "ticks": 104352,
            "time": 144.29191275,
            "velocity": 0.7874015748031497
          },
          {
            "duration": 0.1327432500000043,
            "durationTicks": 96,
            "midi": 61,
            "name": "C#4",
            "ticks": 104400,
            "time": 144.358284375,
            "velocity": 0.5905511811023622
          },
          {
            "duration": 0.1327432500000043,
            "durationTicks": 96,
            "midi": 54,
            "name": "F#3",
            "ticks": 104400,
            "time": 144.358284375,
            "velocity": 0.5905511811023622
          },
          {
            "duration": 0.3982297500000129,
            "durationTicks": 288,
            "midi": 57,
            "name": "A3",
            "ticks": 104448,
            "time": 144.424656,
            "velocity": 0.7874015748031497
          },
          {
            "duration": 0.3982297500000129,
            "durationTicks": 288,
            "midi": 64,
            "name": "E4",
            "ticks": 104448,
            "time": 144.424656,
            "velocity": 0.7874015748031497
          },
          {
            "duration": 0.5309730000000172,
            "durationTicks": 384,
            "midi": 45,
            "name": "A2",
            "ticks": 104448,
            "time": 144.424656,
            "velocity": 0.7874015748031497
          },
          {
            "duration": 0.1327432500000043,
            "durationTicks": 96,
            "midi": 63,
            "name": "D#4",
            "ticks": 104496,
            "time": 144.49102762500002,
            "velocity": 0.5905511811023622
          },
          {
            "duration": 0.1327432500000043,
            "durationTicks": 96,
            "midi": 56,
            "name": "G#3",
            "ticks": 104496,
            "time": 144.49102762500002,
            "velocity": 0.5905511811023622
          },
          {
            "duration": 0.3982297499999845,
            "durationTicks": 288,
            "midi": 57,
            "name": "A3",
            "ticks": 104592,
            "time": 144.62377087500002,
            "velocity": 0.5905511811023622
          },
          {
            "duration": 0.3982297499999845,
            "durationTicks": 288,
            "midi": 64,
            "name": "E4",
            "ticks": 104592,
            "time": 144.62377087500002,
            "velocity": 0.5905511811023622
          },
          {
            "duration": 0.2654865000000086,
            "durationTicks": 192,
            "midi": 59,
            "name": "B3",
            "ticks": 104736,
            "time": 144.82288575,
            "velocity": 0.7874015748031497
          },
          {
            "duration": 0.2654865000000086,
            "durationTicks": 192,
            "midi": 63,
            "name": "D#4",
            "ticks": 104736,
            "time": 144.82288575,
            "velocity": 0.7874015748031497
          },
          {
            "duration": 0.5309729999999888,
            "durationTicks": 384,
            "midi": 47,
            "name": "B2",
            "ticks": 104832,
            "time": 144.95562900000002,
            "velocity": 0.7874015748031497
          },
          {
            "duration": 0.2654865000000086,
            "durationTicks": 192,
            "midi": 59,
            "name": "B3",
            "ticks": 104880,
            "time": 145.022000625,
            "velocity": 0.5905511811023622
          },
          {
            "duration": 0.2654865000000086,
            "durationTicks": 192,
            "midi": 63,
            "name": "D#4",
            "ticks": 104880,
            "time": 145.022000625,
            "velocity": 0.5905511811023622
          },
          {
            "duration": 0.1327432499999759,
            "durationTicks": 96,
            "midi": 56,
            "name": "G#3",
            "ticks": 104928,
            "time": 145.08837225000002,
            "velocity": 0.7874015748031497
          },
          {
            "duration": 0.2654865000000086,
            "durationTicks": 192,
            "midi": 59,
            "name": "B3",
            "ticks": 105024,
            "time": 145.2211155,
            "velocity": 0.7874015748031497
          },
          {
            "duration": 0.2654865000000086,
            "durationTicks": 192,
            "midi": 63,
            "name": "D#4",
            "ticks": 105024,
            "time": 145.2211155,
            "velocity": 0.7874015748031497
          },
          {
            "duration": 0.1327432500000043,
            "durationTicks": 96,
            "midi": 56,
            "name": "G#3",
            "ticks": 105072,
            "time": 145.287487125,
            "velocity": 0.5905511811023622
          },
          {
            "duration": 0.2654864999999802,
            "durationTicks": 192,
            "midi": 63,
            "name": "D#4",
            "ticks": 105168,
            "time": 145.42023037500002,
            "velocity": 0.5905511811023622
          },
          {
            "duration": 0.2654864999999802,
            "durationTicks": 192,
            "midi": 59,
            "name": "B3",
            "ticks": 105168,
            "time": 145.42023037500002,
            "velocity": 0.5905511811023622
          },
          {
            "duration": 1.061946000000006,
            "durationTicks": 768,
            "midi": 56,
            "name": "G#3",
            "ticks": 105216,
            "time": 145.486602,
            "velocity": 0.7874015748031497
          },
          {
            "duration": 1.061946000000006,
            "durationTicks": 768,
            "midi": 49,
            "name": "C#3",
            "ticks": 105216,
            "time": 145.486602,
            "velocity": 0.7874015748031497
          },
          {
            "duration": 1.061946000000006,
            "durationTicks": 768,
            "midi": 61,
            "name": "C#4",
            "ticks": 105216,
            "time": 145.486602,
            "velocity": 0.7874015748031497
          },
          {
            "duration": 1.061946000000006,
            "durationTicks": 768,
            "midi": 56,
            "name": "G#3",
            "ticks": 105360,
            "time": 145.685716875,
            "velocity": 0.5905511811023622
          },
          {
            "duration": 1.061946000000006,
            "durationTicks": 768,
            "midi": 61,
            "name": "C#4",
            "ticks": 105360,
            "time": 145.685716875,
            "velocity": 0.5905511811023622
          },
          {
            "duration": 0.1327432500000043,
            "durationTicks": 96,
            "midi": 78,
            "name": "F#5",
            "ticks": 105984,
            "time": 146.548548,
            "velocity": 0.7874015748031497
          },
          {
            "duration": 0.1327432500000043,
            "durationTicks": 96,
            "midi": 39,
            "name": "D#2",
            "ticks": 105984,
            "time": 146.548548,
            "velocity": 0.7874015748031497
          },
          {
            "duration": 0.1327432500000043,
            "durationTicks": 96,
            "midi": 75,
            "name": "D#5",
            "ticks": 105984,
            "time": 146.548548,
            "velocity": 0.7874015748031497
          },
          {
            "duration": 0.1327432500000043,
            "durationTicks": 96,
            "midi": 73,
            "name": "C#5",
            "ticks": 106080,
            "time": 146.68129125000002,
            "velocity": 0.7874015748031497
          },
          {
            "duration": 0.1327432500000043,
            "durationTicks": 96,
            "midi": 76,
            "name": "E5",
            "ticks": 106080,
            "time": 146.68129125000002,
            "velocity": 0.7874015748031497
          },
          {
            "duration": 0.1327432500000043,
            "durationTicks": 96,
            "midi": 33,
            "name": "A1",
            "ticks": 106080,
            "time": 146.68129125000002,
            "velocity": 0.7874015748031497
          },
          {
            "duration": 0.1327432500000043,
            "durationTicks": 96,
            "midi": 78,
            "name": "F#5",
            "ticks": 106128,
            "time": 146.747662875,
            "velocity": 0.5905511811023622
          },
          {
            "duration": 0.1327432500000043,
            "durationTicks": 96,
            "midi": 75,
            "name": "D#5",
            "ticks": 106128,
            "time": 146.747662875,
            "velocity": 0.5905511811023622
          },
          {
            "duration": 0.1327432499999759,
            "durationTicks": 96,
            "midi": 39,
            "name": "D#2",
            "ticks": 106176,
            "time": 146.81403450000002,
            "velocity": 0.7874015748031497
          },
          {
            "duration": 0.1327432499999759,
            "durationTicks": 96,
            "midi": 71,
            "name": "B4",
            "ticks": 106176,
            "time": 146.81403450000002,
            "velocity": 0.7874015748031497
          },
          {
            "duration": 0.1327432499999759,
            "durationTicks": 96,
            "midi": 75,
            "name": "D#5",
            "ticks": 106176,
            "time": 146.81403450000002,
            "velocity": 0.7874015748031497
          },
          {
            "duration": 0.1327432500000043,
            "durationTicks": 96,
            "midi": 76,
            "name": "E5",
            "ticks": 106224,
            "time": 146.880406125,
            "velocity": 0.5905511811023622
          },
          {
            "duration": 0.1327432500000043,
            "durationTicks": 96,
            "midi": 73,
            "name": "C#5",
            "ticks": 106224,
            "time": 146.880406125,
            "velocity": 0.5905511811023622
          },
          {
            "duration": 0.2654865000000086,
            "durationTicks": 192,
            "midi": 40,
            "name": "E2",
            "ticks": 106272,
            "time": 146.94677775,
            "velocity": 0.7874015748031497
          },
          {
            "duration": 0.1327432500000043,
            "durationTicks": 96,
            "midi": 69,
            "name": "A4",
            "ticks": 106272,
            "time": 146.94677775,
            "velocity": 0.7874015748031497
          },
          {
            "duration": 0.1327432500000043,
            "durationTicks": 96,
            "midi": 73,
            "name": "C#5",
            "ticks": 106272,
            "time": 146.94677775,
            "velocity": 0.7874015748031497
          },
          {
            "duration": 0.1327432500000043,
            "durationTicks": 96,
            "midi": 71,
            "name": "B4",
            "ticks": 106320,
            "time": 147.013149375,
            "velocity": 0.5905511811023622
          },
          {
            "duration": 0.1327432500000043,
            "durationTicks": 96,
            "midi": 75,
            "name": "D#5",
            "ticks": 106320,
            "time": 147.013149375,
            "velocity": 0.5905511811023622
          },
          {
            "duration": 0.1327432500000043,
            "durationTicks": 96,
            "midi": 75,
            "name": "D#5",
            "ticks": 106368,
            "time": 147.079521,
            "velocity": 0.7874015748031497
          },
          {
            "duration": 0.1327432500000043,
            "durationTicks": 96,
            "midi": 71,
            "name": "B4",
            "ticks": 106368,
            "time": 147.079521,
            "velocity": 0.7874015748031497
          },
          {
            "duration": 0.1327432500000043,
            "durationTicks": 96,
            "midi": 69,
            "name": "A4",
            "ticks": 106416,
            "time": 147.14589262500002,
            "velocity": 0.5905511811023622
          },
          {
            "duration": 0.1327432500000043,
            "durationTicks": 96,
            "midi": 73,
            "name": "C#5",
            "ticks": 106416,
            "time": 147.14589262500002,
            "velocity": 0.5905511811023622
          },
          {
            "duration": 0.1327432500000043,
            "durationTicks": 96,
            "midi": 73,
            "name": "C#5",
            "ticks": 106464,
            "time": 147.21226425,
            "velocity": 0.7874015748031497
          },
          {
            "duration": 0.1327432500000043,
            "durationTicks": 96,
            "midi": 69,
            "name": "A4",
            "ticks": 106464,
            "time": 147.21226425,
            "velocity": 0.7874015748031497
          },
          {
            "duration": 0.1327432500000043,
            "durationTicks": 96,
            "midi": 39,
            "name": "D#2",
            "ticks": 106464,
            "time": 147.21226425,
            "velocity": 0.7874015748031497
          },
          {
            "duration": 0.1327432499999759,
            "durationTicks": 96,
            "midi": 71,
            "name": "B4",
            "ticks": 106512,
            "time": 147.27863587500002,
            "velocity": 0.5905511811023622
          },
          {
            "duration": 0.1327432499999759,
            "durationTicks": 96,
            "midi": 75,
            "name": "D#5",
            "ticks": 106512,
            "time": 147.27863587500002,
            "velocity": 0.5905511811023622
          },
          {
            "duration": 0.1327432500000043,
            "durationTicks": 96,
            "midi": 68,
            "name": "G#4",
            "ticks": 106560,
            "time": 147.3450075,
            "velocity": 0.7874015748031497
          },
          {
            "duration": 0.1327432500000043,
            "durationTicks": 96,
            "midi": 71,
            "name": "B4",
            "ticks": 106560,
            "time": 147.3450075,
            "velocity": 0.7874015748031497
          },
          {
            "duration": 0.1327432500000043,
            "durationTicks": 96,
            "midi": 35,
            "name": "B1",
            "ticks": 106560,
            "time": 147.3450075,
            "velocity": 0.7874015748031497
          },
          {
            "duration": 0.1327432500000043,
            "durationTicks": 96,
            "midi": 69,
            "name": "A4",
            "ticks": 106608,
            "time": 147.411379125,
            "velocity": 0.5905511811023622
          },
          {
            "duration": 0.1327432500000043,
            "durationTicks": 96,
            "midi": 73,
            "name": "C#5",
            "ticks": 106608,
            "time": 147.411379125,
            "velocity": 0.5905511811023622
          },
          {
            "duration": 0.1327432500000043,
            "durationTicks": 96,
            "midi": 71,
            "name": "B4",
            "ticks": 106656,
            "time": 147.47775075,
            "velocity": 0.7874015748031497
          },
          {
            "duration": 0.1327432500000043,
            "durationTicks": 96,
            "midi": 75,
            "name": "D#5",
            "ticks": 106656,
            "time": 147.47775075,
            "velocity": 0.7874015748031497
          },
          {
            "duration": 0.1327432500000043,
            "durationTicks": 96,
            "midi": 39,
            "name": "D#2",
            "ticks": 106656,
            "time": 147.47775075,
            "velocity": 0.7874015748031497
          },
          {
            "duration": 0.1327432500000043,
            "durationTicks": 96,
            "midi": 68,
            "name": "G#4",
            "ticks": 106704,
            "time": 147.544122375,
            "velocity": 0.5905511811023622
          },
          {
            "duration": 0.1327432500000043,
            "durationTicks": 96,
            "midi": 71,
            "name": "B4",
            "ticks": 106704,
            "time": 147.544122375,
            "velocity": 0.5905511811023622
          },
          {
            "duration": 0.1327432500000043,
            "durationTicks": 96,
            "midi": 37,
            "name": "C#2",
            "ticks": 106752,
            "time": 147.61049400000002,
            "velocity": 0.7874015748031497
          },
          {
            "duration": 0.1327432500000043,
            "durationTicks": 96,
            "midi": 68,
            "name": "G#4",
            "ticks": 106752,
            "time": 147.61049400000002,
            "velocity": 0.7874015748031497
          },
          {
            "duration": 0.1327432500000043,
            "durationTicks": 96,
            "midi": 73,
            "name": "C#5",
            "ticks": 106752,
            "time": 147.61049400000002,
            "velocity": 0.7874015748031497
          },
          {
            "duration": 0.1327432500000043,
            "durationTicks": 96,
            "midi": 71,
            "name": "B4",
            "ticks": 106800,
            "time": 147.676865625,
            "velocity": 0.5905511811023622
          },
          {
            "duration": 0.1327432500000043,
            "durationTicks": 96,
            "midi": 75,
            "name": "D#5",
            "ticks": 106800,
            "time": 147.676865625,
            "velocity": 0.5905511811023622
          },
          {
            "duration": 0.1327432499999759,
            "durationTicks": 96,
            "midi": 49,
            "name": "C#3",
            "ticks": 106848,
            "time": 147.74323725000002,
            "velocity": 0.7874015748031497
          },
          {
            "duration": 0.1327432500000043,
            "durationTicks": 96,
            "midi": 73,
            "name": "C#5",
            "ticks": 106896,
            "time": 147.809608875,
            "velocity": 0.5905511811023622
          },
          {
            "duration": 0.1327432500000043,
            "durationTicks": 96,
            "midi": 68,
            "name": "G#4",
            "ticks": 106896,
            "time": 147.809608875,
            "velocity": 0.5905511811023622
          },
          {
            "duration": 0.1327432500000043,
            "durationTicks": 96,
            "midi": 32,
            "name": "G#1",
            "ticks": 106944,
            "time": 147.8759805,
            "velocity": 0.7874015748031497
          },
          {
            "duration": 0.1327432500000043,
            "durationTicks": 96,
            "midi": 68,
            "name": "G#4",
            "ticks": 107040,
            "time": 148.00872375,
            "velocity": 0.7874015748031497
          },
          {
            "duration": 0.1327432500000043,
            "durationTicks": 96,
            "midi": 61,
            "name": "C#4",
            "ticks": 107040,
            "time": 148.00872375,
            "velocity": 0.7874015748031497
          },
          {
            "duration": 0.1327432500000043,
            "durationTicks": 96,
            "midi": 44,
            "name": "G#2",
            "ticks": 107040,
            "time": 148.00872375,
            "velocity": 0.7874015748031497
          },
          {
            "duration": 0.1327432500000043,
            "durationTicks": 96,
            "midi": 28,
            "name": "E1",
            "ticks": 107136,
            "time": 148.141467,
            "velocity": 0.7874015748031497
          },
          {
            "duration": 0.1327432500000043,
            "durationTicks": 96,
            "midi": 68,
            "name": "G#4",
            "ticks": 107184,
            "time": 148.207838625,
            "velocity": 0.5905511811023622
          },
          {
            "duration": 0.1327432500000043,
            "durationTicks": 96,
            "midi": 61,
            "name": "C#4",
            "ticks": 107184,
            "time": 148.207838625,
            "velocity": 0.5905511811023622
          },
          {
            "duration": 0.1327432500000043,
            "durationTicks": 96,
            "midi": 40,
            "name": "E2",
            "ticks": 107232,
            "time": 148.27421025,
            "velocity": 0.7874015748031497
          },
          {
            "duration": 0.1327432500000043,
            "durationTicks": 96,
            "midi": 32,
            "name": "G#1",
            "ticks": 107328,
            "time": 148.40695350000001,
            "velocity": 0.7874015748031497
          },
          {
            "duration": 0.1327432500000043,
            "durationTicks": 96,
            "midi": 68,
            "name": "G#4",
            "ticks": 107328,
            "time": 148.40695350000001,
            "velocity": 0.7874015748031497
          },
          {
            "duration": 0.1327432500000043,
            "durationTicks": 96,
            "midi": 61,
            "name": "C#4",
            "ticks": 107328,
            "time": 148.40695350000001,
            "velocity": 0.7874015748031497
          },
          {
            "duration": 0.1327432499999759,
            "durationTicks": 96,
            "midi": 73,
            "name": "C#5",
            "ticks": 107424,
            "time": 148.53969675000002,
            "velocity": 0.7874015748031497
          },
          {
            "duration": 0.1327432499999759,
            "durationTicks": 96,
            "midi": 44,
            "name": "G#2",
            "ticks": 107424,
            "time": 148.53969675000002,
            "velocity": 0.7874015748031497
          },
          {
            "duration": 0.1327432499999759,
            "durationTicks": 96,
            "midi": 68,
            "name": "G#4",
            "ticks": 107424,
            "time": 148.53969675000002,
            "velocity": 0.7874015748031497
          },
          {
            "duration": 0.1327432500000043,
            "durationTicks": 96,
            "midi": 68,
            "name": "G#4",
            "ticks": 107472,
            "time": 148.606068375,
            "velocity": 0.5905511811023622
          },
          {
            "duration": 0.1327432500000043,
            "durationTicks": 96,
            "midi": 61,
            "name": "C#4",
            "ticks": 107472,
            "time": 148.606068375,
            "velocity": 0.5905511811023622
          },
          {
            "duration": 0.1327432500000043,
            "durationTicks": 96,
            "midi": 78,
            "name": "F#5",
            "ticks": 107520,
            "time": 148.67244,
            "velocity": 0.7874015748031497
          },
          {
            "duration": 0.1327432500000043,
            "durationTicks": 96,
            "midi": 75,
            "name": "D#5",
            "ticks": 107520,
            "time": 148.67244,
            "velocity": 0.7874015748031497
          },
          {
            "duration": 0.1327432500000043,
            "durationTicks": 96,
            "midi": 39,
            "name": "D#2",
            "ticks": 107520,
            "time": 148.67244,
            "velocity": 0.7874015748031497
          },
          {
            "duration": 0.1327432500000043,
            "durationTicks": 96,
            "midi": 73,
            "name": "C#5",
            "ticks": 107568,
            "time": 148.738811625,
            "velocity": 0.5905511811023622
          },
          {
            "duration": 0.1327432500000043,
            "durationTicks": 96,
            "midi": 68,
            "name": "G#4",
            "ticks": 107568,
            "time": 148.738811625,
            "velocity": 0.5905511811023622
          },
          {
            "duration": 0.1327432500000043,
            "durationTicks": 96,
            "midi": 33,
            "name": "A1",
            "ticks": 107616,
            "time": 148.80518325,
            "velocity": 0.7874015748031497
          },
          {
            "duration": 0.1327432500000043,
            "durationTicks": 96,
            "midi": 76,
            "name": "E5",
            "ticks": 107616,
            "time": 148.80518325,
            "velocity": 0.7874015748031497
          },
          {
            "duration": 0.1327432500000043,
            "durationTicks": 96,
            "midi": 73,
            "name": "C#5",
            "ticks": 107616,
            "time": 148.80518325,
            "velocity": 0.7874015748031497
          },
          {
            "duration": 0.1327432500000043,
            "durationTicks": 96,
            "midi": 75,
            "name": "D#5",
            "ticks": 107664,
            "time": 148.87155487500002,
            "velocity": 0.5905511811023622
          },
          {
            "duration": 0.1327432500000043,
            "durationTicks": 96,
            "midi": 78,
            "name": "F#5",
            "ticks": 107664,
            "time": 148.87155487500002,
            "velocity": 0.5905511811023622
          },
          {
            "duration": 0.1327432500000043,
            "durationTicks": 96,
            "midi": 39,
            "name": "D#2",
            "ticks": 107712,
            "time": 148.9379265,
            "velocity": 0.7874015748031497
          },
          {
            "duration": 0.1327432500000043,
            "durationTicks": 96,
            "midi": 71,
            "name": "B4",
            "ticks": 107712,
            "time": 148.9379265,
            "velocity": 0.7874015748031497
          },
          {
            "duration": 0.1327432500000043,
            "durationTicks": 96,
            "midi": 75,
            "name": "D#5",
            "ticks": 107712,
            "time": 148.9379265,
            "velocity": 0.7874015748031497
          },
          {
            "duration": 0.1327432499999759,
            "durationTicks": 96,
            "midi": 73,
            "name": "C#5",
            "ticks": 107760,
            "time": 149.00429812500002,
            "velocity": 0.5905511811023622
          },
          {
            "duration": 0.1327432499999759,
            "durationTicks": 96,
            "midi": 76,
            "name": "E5",
            "ticks": 107760,
            "time": 149.00429812500002,
            "velocity": 0.5905511811023622
          },
          {
            "duration": 0.1327432500000043,
            "durationTicks": 96,
            "midi": 73,
            "name": "C#5",
            "ticks": 107808,
            "time": 149.07066975,
            "velocity": 0.7874015748031497
          },
          {
            "duration": 0.2654865000000086,
            "durationTicks": 192,
            "midi": 40,
            "name": "E2",
            "ticks": 107808,
            "time": 149.07066975,
            "velocity": 0.7874015748031497
          },
          {
            "duration": 0.1327432500000043,
            "durationTicks": 96,
            "midi": 69,
            "name": "A4",
            "ticks": 107808,
            "time": 149.07066975,
            "velocity": 0.7874015748031497
          },
          {
            "duration": 0.1327432500000043,
            "durationTicks": 96,
            "midi": 71,
            "name": "B4",
            "ticks": 107856,
            "time": 149.137041375,
            "velocity": 0.5905511811023622
          },
          {
            "duration": 0.1327432500000043,
            "durationTicks": 96,
            "midi": 75,
            "name": "D#5",
            "ticks": 107856,
            "time": 149.137041375,
            "velocity": 0.5905511811023622
          },
          {
            "duration": 0.1327432500000043,
            "durationTicks": 96,
            "midi": 71,
            "name": "B4",
            "ticks": 107904,
            "time": 149.203413,
            "velocity": 0.7874015748031497
          },
          {
            "duration": 0.1327432500000043,
            "durationTicks": 96,
            "midi": 68,
            "name": "G#4",
            "ticks": 107904,
            "time": 149.203413,
            "velocity": 0.7874015748031497
          },
          {
            "duration": 0.1327432500000043,
            "durationTicks": 96,
            "midi": 73,
            "name": "C#5",
            "ticks": 107952,
            "time": 149.269784625,
            "velocity": 0.5905511811023622
          },
          {
            "duration": 0.1327432500000043,
            "durationTicks": 96,
            "midi": 69,
            "name": "A4",
            "ticks": 107952,
            "time": 149.269784625,
            "velocity": 0.5905511811023622
          },
          {
            "duration": 0.1327432500000043,
            "durationTicks": 96,
            "midi": 39,
            "name": "D#2",
            "ticks": 108000,
            "time": 149.33615625000002,
            "velocity": 0.7874015748031497
          },
          {
            "duration": 0.1327432500000043,
            "durationTicks": 96,
            "midi": 66,
            "name": "F#4",
            "ticks": 108000,
            "time": 149.33615625000002,
            "velocity": 0.7874015748031497
          },
          {
            "duration": 0.1327432500000043,
            "durationTicks": 96,
            "midi": 69,
            "name": "A4",
            "ticks": 108000,
            "time": 149.33615625000002,
            "velocity": 0.7874015748031497
          },
          {
            "duration": 0.1327432500000043,
            "durationTicks": 96,
            "midi": 68,
            "name": "G#4",
            "ticks": 108048,
            "time": 149.402527875,
            "velocity": 0.5905511811023622
          },
          {
            "duration": 0.1327432500000043,
            "durationTicks": 96,
            "midi": 71,
            "name": "B4",
            "ticks": 108048,
            "time": 149.402527875,
            "velocity": 0.5905511811023622
          },
          {
            "duration": 0.1327432499999759,
            "durationTicks": 96,
            "midi": 80,
            "name": "G#5",
            "ticks": 108096,
            "time": 149.46889950000002,
            "velocity": 0.7874015748031497
          },
          {
            "duration": 0.1327432499999759,
            "durationTicks": 96,
            "midi": 76,
            "name": "E5",
            "ticks": 108096,
            "time": 149.46889950000002,
            "velocity": 0.7874015748031497
          },
          {
            "duration": 0.1327432499999759,
            "durationTicks": 96,
            "midi": 35,
            "name": "B1",
            "ticks": 108096,
            "time": 149.46889950000002,
            "velocity": 0.7874015748031497
          },
          {
            "duration": 0.1327432500000043,
            "durationTicks": 96,
            "midi": 66,
            "name": "F#4",
            "ticks": 108144,
            "time": 149.535271125,
            "velocity": 0.5905511811023622
          },
          {
            "duration": 0.1327432500000043,
            "durationTicks": 96,
            "midi": 69,
            "name": "A4",
            "ticks": 108144,
            "time": 149.535271125,
            "velocity": 0.5905511811023622
          },
          {
            "duration": 0.1327432500000043,
            "durationTicks": 96,
            "midi": 51,
            "name": "D#3",
            "ticks": 108192,
            "time": 149.60164275,
            "velocity": 0.7874015748031497
          },
          {
            "duration": 0.1327432500000043,
            "durationTicks": 96,
            "midi": 75,
            "name": "D#5",
            "ticks": 108192,
            "time": 149.60164275,
            "velocity": 0.7874015748031497
          },
          {
            "duration": 0.1327432500000043,
            "durationTicks": 96,
            "midi": 78,
            "name": "F#5",
            "ticks": 108192,
            "time": 149.60164275,
            "velocity": 0.7874015748031497
          },
          {
            "duration": 0.1327432500000043,
            "durationTicks": 96,
            "midi": 80,
            "name": "G#5",
            "ticks": 108240,
            "time": 149.668014375,
            "velocity": 0.5905511811023622
          },
          {
            "duration": 0.1327432500000043,
            "durationTicks": 96,
            "midi": 76,
            "name": "E5",
            "ticks": 108240,
            "time": 149.668014375,
            "velocity": 0.5905511811023622
          },
          {
            "duration": 0.1327432500000043,
            "durationTicks": 96,
            "midi": 37,
            "name": "C#2",
            "ticks": 108288,
            "time": 149.734386,
            "velocity": 0.7874015748031497
          },
          {
            "duration": 0.2654865000000086,
            "durationTicks": 192,
            "midi": 73,
            "name": "C#5",
            "ticks": 108288,
            "time": 149.734386,
            "velocity": 0.7874015748031497
          },
          {
            "duration": 0.2654865000000086,
            "durationTicks": 192,
            "midi": 76,
            "name": "E5",
            "ticks": 108288,
            "time": 149.734386,
            "velocity": 0.7874015748031497
          },
          {
            "duration": 0.1327432500000043,
            "durationTicks": 96,
            "midi": 75,
            "name": "D#5",
            "ticks": 108336,
            "time": 149.80075762500002,
            "velocity": 0.5905511811023622
          },
          {
            "duration": 0.1327432500000043,
            "durationTicks": 96,
            "midi": 78,
            "name": "F#5",
            "ticks": 108336,
            "time": 149.80075762500002,
            "velocity": 0.5905511811023622
          },
          {
            "duration": 0.1327432500000043,
            "durationTicks": 96,
            "midi": 49,
            "name": "C#3",
            "ticks": 108384,
            "time": 149.86712925,
            "velocity": 0.7874015748031497
          },
          {
            "duration": 0.2654864999999802,
            "durationTicks": 192,
            "midi": 76,
            "name": "E5",
            "ticks": 108432,
            "time": 149.93350087500002,
            "velocity": 0.5905511811023622
          },
          {
            "duration": 0.2654864999999802,
            "durationTicks": 192,
            "midi": 73,
            "name": "C#5",
            "ticks": 108432,
            "time": 149.93350087500002,
            "velocity": 0.5905511811023622
          },
          {
            "duration": 0.1327432500000043,
            "durationTicks": 96,
            "midi": 39,
            "name": "D#2",
            "ticks": 108480,
            "time": 149.9998725,
            "velocity": 0.7874015748031497
          },
          {
            "duration": 0.2654865000000086,
            "durationTicks": 192,
            "midi": 78,
            "name": "F#5",
            "ticks": 108480,
            "time": 149.9998725,
            "velocity": 0.7874015748031497
          },
          {
            "duration": 0.2654865000000086,
            "durationTicks": 192,
            "midi": 75,
            "name": "D#5",
            "ticks": 108480,
            "time": 149.9998725,
            "velocity": 0.7874015748031497
          },
          {
            "duration": 0.1327432500000043,
            "durationTicks": 96,
            "midi": 51,
            "name": "D#3",
            "ticks": 108576,
            "time": 150.13261575,
            "velocity": 0.7874015748031497
          },
          {
            "duration": 0.2654865000000086,
            "durationTicks": 192,
            "midi": 78,
            "name": "F#5",
            "ticks": 108624,
            "time": 150.198987375,
            "velocity": 0.5905511811023622
          },
          {
            "duration": 0.2654865000000086,
            "durationTicks": 192,
            "midi": 75,
            "name": "D#5",
            "ticks": 108624,
            "time": 150.198987375,
            "velocity": 0.5905511811023622
          },
          {
            "duration": 0.2654864999999802,
            "durationTicks": 192,
            "midi": 80,
            "name": "G#5",
            "ticks": 108672,
            "time": 150.26535900000002,
            "velocity": 0.7874015748031497
          },
          {
            "duration": 0.1327432500000043,
            "durationTicks": 96,
            "midi": 40,
            "name": "E2",
            "ticks": 108672,
            "time": 150.26535900000002,
            "velocity": 0.7874015748031497
          },
          {
            "duration": 0.2654864999999802,
            "durationTicks": 192,
            "midi": 76,
            "name": "E5",
            "ticks": 108672,
            "time": 150.26535900000002,
            "velocity": 0.7874015748031497
          },
          {
            "duration": 0.1327432499999759,
            "durationTicks": 96,
            "midi": 52,
            "name": "E3",
            "ticks": 108768,
            "time": 150.39810225000002,
            "velocity": 0.7874015748031497
          },
          {
            "duration": 0.19911487499999225,
            "durationTicks": 144,
            "midi": 80,
            "name": "G#5",
            "ticks": 108816,
            "time": 150.464473875,
            "velocity": 0.5905511811023622
          },
          {
            "duration": 0.19911487499999225,
            "durationTicks": 144,
            "midi": 76,
            "name": "E5",
            "ticks": 108816,
            "time": 150.464473875,
            "velocity": 0.5905511811023622
          },
          {
            "duration": 0.19911487500002067,
            "durationTicks": 144,
            "midi": 76,
            "name": "E5",
            "ticks": 108864,
            "time": 150.5308455,
            "velocity": 0.7874015748031497
          },
          {
            "duration": 0.19911487500002067,
            "durationTicks": 144,
            "midi": 80,
            "name": "G#5",
            "ticks": 108864,
            "time": 150.5308455,
            "velocity": 0.7874015748031497
          },
          {
            "duration": 0.1327432500000043,
            "durationTicks": 96,
            "midi": 47,
            "name": "B2",
            "ticks": 108864,
            "time": 150.5308455,
            "velocity": 0.7874015748031497
          },
          {
            "duration": 0.1327432500000043,
            "durationTicks": 96,
            "midi": 78,
            "name": "F#5",
            "ticks": 108960,
            "time": 150.66358875,
            "velocity": 0.7874015748031497
          },
          {
            "duration": 0.1327432500000043,
            "durationTicks": 96,
            "midi": 40,
            "name": "E2",
            "ticks": 108960,
            "time": 150.66358875,
            "velocity": 0.7874015748031497
          },
          {
            "duration": 0.1327432500000043,
            "durationTicks": 96,
            "midi": 82,
            "name": "A#5",
            "ticks": 108960,
            "time": 150.66358875,
            "velocity": 0.7874015748031497
          },
          {
            "duration": 0.1327432499999759,
            "durationTicks": 96,
            "midi": 80,
            "name": "G#5",
            "ticks": 109008,
            "time": 150.72996037500002,
            "velocity": 0.5905511811023622
          },
          {
            "duration": 0.1327432499999759,
            "durationTicks": 96,
            "midi": 76,
            "name": "E5",
            "ticks": 109008,
            "time": 150.72996037500002,
            "velocity": 0.5905511811023622
          },
          {
            "duration": 0.1327432500000043,
            "durationTicks": 96,
            "midi": 42,
            "name": "F#2",
            "ticks": 109056,
            "time": 150.796332,
            "velocity": 0.7874015748031497
          },
          {
            "duration": 0.1327432500000043,
            "durationTicks": 96,
            "midi": 83,
            "name": "B5",
            "ticks": 109056,
            "time": 150.796332,
            "velocity": 0.7874015748031497
          },
          {
            "duration": 0.1327432500000043,
            "durationTicks": 96,
            "midi": 80,
            "name": "G#5",
            "ticks": 109056,
            "time": 150.796332,
            "velocity": 0.7874015748031497
          },
          {
            "duration": 0.1327432500000043,
            "durationTicks": 96,
            "midi": 82,
            "name": "A#5",
            "ticks": 109104,
            "time": 150.862703625,
            "velocity": 0.5905511811023622
          },
          {
            "duration": 0.1327432500000043,
            "durationTicks": 96,
            "midi": 78,
            "name": "F#5",
            "ticks": 109104,
            "time": 150.862703625,
            "velocity": 0.5905511811023622
          },
          {
            "duration": 0.1327432500000043,
            "durationTicks": 96,
            "midi": 82,
            "name": "A#5",
            "ticks": 109152,
            "time": 150.92907525,
            "velocity": 0.7874015748031497
          },
          {
            "duration": 0.1327432500000043,
            "durationTicks": 96,
            "midi": 37,
            "name": "C#2",
            "ticks": 109152,
            "time": 150.92907525,
            "velocity": 0.7874015748031497
          },
          {
            "duration": 0.1327432500000043,
            "durationTicks": 96,
            "midi": 78,
            "name": "F#5",
            "ticks": 109152,
            "time": 150.92907525,
            "velocity": 0.7874015748031497
          },
          {
            "duration": 0.1327432500000043,
            "durationTicks": 96,
            "midi": 80,
            "name": "G#5",
            "ticks": 109200,
            "time": 150.995446875,
            "velocity": 0.5905511811023622
          },
          {
            "duration": 0.1327432500000043,
            "durationTicks": 96,
            "midi": 83,
            "name": "B5",
            "ticks": 109200,
            "time": 150.995446875,
            "velocity": 0.5905511811023622
          },
          {
            "duration": 0.1327432500000043,
            "durationTicks": 96,
            "midi": 76,
            "name": "E5",
            "ticks": 109248,
            "time": 151.06181850000002,
            "velocity": 0.7874015748031497
          },
          {
            "duration": 0.1327432500000043,
            "durationTicks": 96,
            "midi": 42,
            "name": "F#2",
            "ticks": 109248,
            "time": 151.06181850000002,
            "velocity": 0.7874015748031497
          },
          {
            "duration": 0.1327432500000043,
            "durationTicks": 96,
            "midi": 80,
            "name": "G#5",
            "ticks": 109248,
            "time": 151.06181850000002,
            "velocity": 0.7874015748031497
          },
          {
            "duration": 0.1327432500000043,
            "durationTicks": 96,
            "midi": 82,
            "name": "A#5",
            "ticks": 109296,
            "time": 151.128190125,
            "velocity": 0.5905511811023622
          },
          {
            "duration": 0.1327432500000043,
            "durationTicks": 96,
            "midi": 78,
            "name": "F#5",
            "ticks": 109296,
            "time": 151.128190125,
            "velocity": 0.5905511811023622
          },
          {
            "duration": 0.2654864999999802,
            "durationTicks": 192,
            "midi": 47,
            "name": "B2",
            "ticks": 109344,
            "time": 151.19456175000002,
            "velocity": 0.7874015748031497
          },
          {
            "duration": 0.1327432499999759,
            "durationTicks": 96,
            "midi": 75,
            "name": "D#5",
            "ticks": 109344,
            "time": 151.19456175000002,
            "velocity": 0.7874015748031497
          },
          {
            "duration": 0.1327432499999759,
            "durationTicks": 96,
            "midi": 78,
            "name": "F#5",
            "ticks": 109344,
            "time": 151.19456175000002,
            "velocity": 0.7874015748031497
          },
          {
            "duration": 0.1327432500000043,
            "durationTicks": 96,
            "midi": 80,
            "name": "G#5",
            "ticks": 109392,
            "time": 151.260933375,
            "velocity": 0.5905511811023622
          },
          {
            "duration": 0.1327432500000043,
            "durationTicks": 96,
            "midi": 76,
            "name": "E5",
            "ticks": 109392,
            "time": 151.260933375,
            "velocity": 0.5905511811023622
          },
          {
            "duration": 0.1327432500000043,
            "durationTicks": 96,
            "midi": 76,
            "name": "E5",
            "ticks": 109440,
            "time": 151.327305,
            "velocity": 0.7874015748031497
          },
          {
            "duration": 0.1327432500000043,
            "durationTicks": 96,
            "midi": 80,
            "name": "G#5",
            "ticks": 109440,
            "time": 151.327305,
            "velocity": 0.7874015748031497
          },
          {
            "duration": 0.1327432500000043,
            "durationTicks": 96,
            "midi": 78,
            "name": "F#5",
            "ticks": 109488,
            "time": 151.393676625,
            "velocity": 0.5905511811023622
          },
          {
            "duration": 0.1327432500000043,
            "durationTicks": 96,
            "midi": 75,
            "name": "D#5",
            "ticks": 109488,
            "time": 151.393676625,
            "velocity": 0.5905511811023622
          },
          {
            "duration": 0.1327432500000043,
            "durationTicks": 96,
            "midi": 75,
            "name": "D#5",
            "ticks": 109536,
            "time": 151.46004825,
            "velocity": 0.7874015748031497
          },
          {
            "duration": 0.1327432500000043,
            "durationTicks": 96,
            "midi": 78,
            "name": "F#5",
            "ticks": 109536,
            "time": 151.46004825,
            "velocity": 0.7874015748031497
          },
          {
            "duration": 0.1327432500000043,
            "durationTicks": 96,
            "midi": 46,
            "name": "A#2",
            "ticks": 109536,
            "time": 151.46004825,
            "velocity": 0.7874015748031497
          },
          {
            "duration": 0.1327432500000043,
            "durationTicks": 96,
            "midi": 76,
            "name": "E5",
            "ticks": 109584,
            "time": 151.52641987500002,
            "velocity": 0.5905511811023622
          },
          {
            "duration": 0.1327432500000043,
            "durationTicks": 96,
            "midi": 80,
            "name": "G#5",
            "ticks": 109584,
            "time": 151.52641987500002,
            "velocity": 0.5905511811023622
          },
          {
            "duration": 0.1327432500000043,
            "durationTicks": 96,
            "midi": 76,
            "name": "E5",
            "ticks": 109632,
            "time": 151.5927915,
            "velocity": 0.7874015748031497
          },
          {
            "duration": 0.1327432500000043,
            "durationTicks": 96,
            "midi": 80,
            "name": "G#5",
            "ticks": 109632,
            "time": 151.5927915,
            "velocity": 0.7874015748031497
          },
          {
            "duration": 0.1327432500000043,
            "durationTicks": 96,
            "midi": 42,
            "name": "F#2",
            "ticks": 109632,
            "time": 151.5927915,
            "velocity": 0.7874015748031497
          },
          {
            "duration": 0.1327432499999759,
            "durationTicks": 96,
            "midi": 78,
            "name": "F#5",
            "ticks": 109680,
            "time": 151.65916312500002,
            "velocity": 0.5905511811023622
          },
          {
            "duration": 0.1327432499999759,
            "durationTicks": 96,
            "midi": 75,
            "name": "D#5",
            "ticks": 109680,
            "time": 151.65916312500002,
            "velocity": 0.5905511811023622
          },
          {
            "duration": 0.1327432500000043,
            "durationTicks": 96,
            "midi": 82,
            "name": "A#5",
            "ticks": 109728,
            "time": 151.72553475,
            "velocity": 0.7874015748031497
          },
          {
            "duration": 0.1327432500000043,
            "durationTicks": 96,
            "midi": 40,
            "name": "E2",
            "ticks": 109728,
            "time": 151.72553475,
            "velocity": 0.7874015748031497
          },
          {
            "duration": 0.1327432500000043,
            "durationTicks": 96,
            "midi": 78,
            "name": "F#5",
            "ticks": 109728,
            "time": 151.72553475,
            "velocity": 0.7874015748031497
          },
          {
            "duration": 0.1327432500000043,
            "durationTicks": 96,
            "midi": 76,
            "name": "E5",
            "ticks": 109776,
            "time": 151.791906375,
            "velocity": 0.5905511811023622
          },
          {
            "duration": 0.1327432500000043,
            "durationTicks": 96,
            "midi": 80,
            "name": "G#5",
            "ticks": 109776,
            "time": 151.791906375,
            "velocity": 0.5905511811023622
          },
          {
            "duration": 0.1327432500000043,
            "durationTicks": 96,
            "midi": 37,
            "name": "C#2",
            "ticks": 109824,
            "time": 151.858278,
            "velocity": 0.7874015748031497
          },
          {
            "duration": 0.1327432500000043,
            "durationTicks": 96,
            "midi": 76,
            "name": "E5",
            "ticks": 109824,
            "time": 151.858278,
            "velocity": 0.7874015748031497
          },
          {
            "duration": 0.1327432500000043,
            "durationTicks": 96,
            "midi": 80,
            "name": "G#5",
            "ticks": 109824,
            "time": 151.858278,
            "velocity": 0.7874015748031497
          },
          {
            "duration": 0.1327432500000043,
            "durationTicks": 96,
            "midi": 78,
            "name": "F#5",
            "ticks": 109872,
            "time": 151.924649625,
            "velocity": 0.5905511811023622
          },
          {
            "duration": 0.1327432500000043,
            "durationTicks": 96,
            "midi": 82,
            "name": "A#5",
            "ticks": 109872,
            "time": 151.924649625,
            "velocity": 0.5905511811023622
          },
          {
            "duration": 0.1327432500000043,
            "durationTicks": 96,
            "midi": 32,
            "name": "G#1",
            "ticks": 109920,
            "time": 151.99102125000002,
            "velocity": 0.7874015748031497
          },
          {
            "duration": 0.1327432500000043,
            "durationTicks": 96,
            "midi": 80,
            "name": "G#5",
            "ticks": 109968,
            "time": 152.057392875,
            "velocity": 0.5905511811023622
          },
          {
            "duration": 0.1327432500000043,
            "durationTicks": 96,
            "midi": 76,
            "name": "E5",
            "ticks": 109968,
            "time": 152.057392875,
            "velocity": 0.5905511811023622
          },
          {
            "duration": 0.1327432499999759,
            "durationTicks": 96,
            "midi": 39,
            "name": "D#2",
            "ticks": 110016,
            "time": 152.12376450000002,
            "velocity": 0.7874015748031497
          },
          {
            "duration": 0.1327432500000043,
            "durationTicks": 96,
            "midi": 68,
            "name": "G#4",
            "ticks": 110112,
            "time": 152.25650775,
            "velocity": 0.7874015748031497
          },
          {
            "duration": 0.1327432500000043,
            "durationTicks": 96,
            "midi": 73,
            "name": "C#5",
            "ticks": 110112,
            "time": 152.25650775,
            "velocity": 0.7874015748031497
          },
          {
            "duration": 0.1327432500000043,
            "durationTicks": 96,
            "midi": 32,
            "name": "G#1",
            "ticks": 110112,
            "time": 152.25650775,
            "velocity": 0.7874015748031497
          },
          {
            "duration": 0.1327432500000043,
            "durationTicks": 96,
            "midi": 40,
            "name": "E2",
            "ticks": 110208,
            "time": 152.389251,
            "velocity": 0.7874015748031497
          },
          {
            "duration": 0.1327432500000043,
            "durationTicks": 96,
            "midi": 73,
            "name": "C#5",
            "ticks": 110256,
            "time": 152.45562262500002,
            "velocity": 0.5905511811023622
          },
          {
            "duration": 0.1327432500000043,
            "durationTicks": 96,
            "midi": 68,
            "name": "G#4",
            "ticks": 110256,
            "time": 152.45562262500002,
            "velocity": 0.5905511811023622
          },
          {
            "duration": 0.1327432500000043,
            "durationTicks": 96,
            "midi": 32,
            "name": "G#1",
            "ticks": 110304,
            "time": 152.52199425,
            "velocity": 0.7874015748031497
          },
          {
            "duration": 0.1327432500000043,
            "durationTicks": 96,
            "midi": 73,
            "name": "C#5",
            "ticks": 110400,
            "time": 152.6547375,
            "velocity": 0.7874015748031497
          },
          {
            "duration": 0.1327432500000043,
            "durationTicks": 96,
            "midi": 42,
            "name": "F#2",
            "ticks": 110400,
            "time": 152.6547375,
            "velocity": 0.7874015748031497
          },
          {
            "duration": 0.1327432500000043,
            "durationTicks": 96,
            "midi": 68,
            "name": "G#4",
            "ticks": 110400,
            "time": 152.6547375,
            "velocity": 0.7874015748031497
          },
          {
            "duration": 0.1327432500000043,
            "durationTicks": 96,
            "midi": 75,
            "name": "D#5",
            "ticks": 110496,
            "time": 152.78748075000001,
            "velocity": 0.7874015748031497
          },
          {
            "duration": 0.1327432500000043,
            "durationTicks": 96,
            "midi": 71,
            "name": "B4",
            "ticks": 110496,
            "time": 152.78748075000001,
            "velocity": 0.7874015748031497
          },
          {
            "duration": 0.1327432500000043,
            "durationTicks": 96,
            "midi": 32,
            "name": "G#1",
            "ticks": 110496,
            "time": 152.78748075000001,
            "velocity": 0.7874015748031497
          },
          {
            "duration": 0.1327432500000043,
            "durationTicks": 96,
            "midi": 68,
            "name": "G#4",
            "ticks": 110544,
            "time": 152.853852375,
            "velocity": 0.5905511811023622
          },
          {
            "duration": 0.1327432500000043,
            "durationTicks": 96,
            "midi": 73,
            "name": "C#5",
            "ticks": 110544,
            "time": 152.853852375,
            "velocity": 0.5905511811023622
          },
          {
            "duration": 0.3982297499999845,
            "durationTicks": 288,
            "midi": 73,
            "name": "C#5",
            "ticks": 110592,
            "time": 152.92022400000002,
            "velocity": 0.7874015748031497
          },
          {
            "duration": 0.3982297499999845,
            "durationTicks": 288,
            "midi": 76,
            "name": "E5",
            "ticks": 110592,
            "time": 152.92022400000002,
            "velocity": 0.7874015748031497
          },
          {
            "duration": 0.1327432499999759,
            "durationTicks": 96,
            "midi": 33,
            "name": "A1",
            "ticks": 110592,
            "time": 152.92022400000002,
            "velocity": 0.7874015748031497
          },
          {
            "duration": 0.1327432500000043,
            "durationTicks": 96,
            "midi": 71,
            "name": "B4",
            "ticks": 110640,
            "time": 152.986595625,
            "velocity": 0.5905511811023622
          },
          {
            "duration": 0.1327432500000043,
            "durationTicks": 96,
            "midi": 75,
            "name": "D#5",
            "ticks": 110640,
            "time": 152.986595625,
            "velocity": 0.5905511811023622
          },
          {
            "duration": 0.1327432500000043,
            "durationTicks": 96,
            "midi": 37,
            "name": "C#2",
            "ticks": 110688,
            "time": 153.05296725,
            "velocity": 0.7874015748031497
          },
          {
            "duration": 0.3982297499999845,
            "durationTicks": 288,
            "midi": 76,
            "name": "E5",
            "ticks": 110736,
            "time": 153.119338875,
            "velocity": 0.5905511811023622
          },
          {
            "duration": 0.3982297499999845,
            "durationTicks": 288,
            "midi": 73,
            "name": "C#5",
            "ticks": 110736,
            "time": 153.119338875,
            "velocity": 0.5905511811023622
          },
          {
            "duration": 0.1327432500000043,
            "durationTicks": 96,
            "midi": 40,
            "name": "E2",
            "ticks": 110784,
            "time": 153.1857105,
            "velocity": 0.7874015748031497
          },
          {
            "duration": 0.3982297500000129,
            "durationTicks": 288,
            "midi": 78,
            "name": "F#5",
            "ticks": 110880,
            "time": 153.31845375,
            "velocity": 0.7874015748031497
          },
          {
            "duration": 0.2654865000000086,
            "durationTicks": 192,
            "midi": 45,
            "name": "A2",
            "ticks": 110880,
            "time": 153.31845375,
            "velocity": 0.7874015748031497
          },
          {
            "duration": 0.3982297500000129,
            "durationTicks": 288,
            "midi": 75,
            "name": "D#5",
            "ticks": 110880,
            "time": 153.31845375,
            "velocity": 0.7874015748031497
          },
          {
            "duration": 0.3982297500000129,
            "durationTicks": 288,
            "midi": 75,
            "name": "D#5",
            "ticks": 111024,
            "time": 153.517568625,
            "velocity": 0.5905511811023622
          },
          {
            "duration": 0.3982297500000129,
            "durationTicks": 288,
            "midi": 78,
            "name": "F#5",
            "ticks": 111024,
            "time": 153.517568625,
            "velocity": 0.5905511811023622
          },
          {
            "duration": 0.1327432500000043,
            "durationTicks": 96,
            "midi": 44,
            "name": "G#2",
            "ticks": 111072,
            "time": 153.58394025,
            "velocity": 0.7874015748031497
          },
          {
            "duration": 0.1327432500000043,
            "durationTicks": 96,
            "midi": 40,
            "name": "E2",
            "ticks": 111168,
            "time": 153.71668350000002,
            "velocity": 0.7874015748031497
          },
          {
            "duration": 0.2654864999999802,
            "durationTicks": 192,
            "midi": 81,
            "name": "A5",
            "ticks": 111168,
            "time": 153.71668350000002,
            "velocity": 0.7874015748031497
          },
          {
            "duration": 0.2654864999999802,
            "durationTicks": 192,
            "midi": 78,
            "name": "F#5",
            "ticks": 111168,
            "time": 153.71668350000002,
            "velocity": 0.7874015748031497
          },
          {
            "duration": 0.1327432499999759,
            "durationTicks": 96,
            "midi": 37,
            "name": "C#2",
            "ticks": 111264,
            "time": 153.84942675000002,
            "velocity": 0.7874015748031497
          },
          {
            "duration": 0.2654865000000086,
            "durationTicks": 192,
            "midi": 78,
            "name": "F#5",
            "ticks": 111312,
            "time": 153.915798375,
            "velocity": 0.5905511811023622
          },
          {
            "duration": 0.2654865000000086,
            "durationTicks": 192,
            "midi": 81,
            "name": "A5",
            "ticks": 111312,
            "time": 153.915798375,
            "velocity": 0.5905511811023622
          },
          {
            "duration": 0.1327432500000043,
            "durationTicks": 96,
            "midi": 80,
            "name": "G#5",
            "ticks": 111360,
            "time": 153.98217,
            "velocity": 0.7874015748031497
          },
          {
            "duration": 0.1327432500000043,
            "durationTicks": 96,
            "midi": 37,
            "name": "C#2",
            "ticks": 111360,
            "time": 153.98217,
            "velocity": 0.7874015748031497
          },
          {
            "duration": 0.1327432500000043,
            "durationTicks": 96,
            "midi": 80,
            "name": "G#5",
            "ticks": 111360,
            "time": 153.98217,
            "velocity": 0.7874015748031497
          },
          {
            "duration": 0.1327432500000043,
            "durationTicks": 96,
            "midi": 80,
            "name": "G#5",
            "ticks": 111504,
            "time": 154.18128487500002,
            "velocity": 0.5905511811023622
          },
          {
            "duration": 0.1327432500000043,
            "durationTicks": 96,
            "midi": 80,
            "name": "G#5",
            "ticks": 111504,
            "time": 154.18128487500002,
            "velocity": 0.5905511811023622
          },
          {
            "duration": 0.1327432500000043,
            "durationTicks": 96,
            "midi": 75,
            "name": "D#5",
            "ticks": 111552,
            "time": 154.2476565,
            "velocity": 0.7874015748031497
          },
          {
            "duration": 0.1327432500000043,
            "durationTicks": 96,
            "midi": 75,
            "name": "D#5",
            "ticks": 111552,
            "time": 154.2476565,
            "velocity": 0.7874015748031497
          },
          {
            "duration": 0.1327432500000043,
            "durationTicks": 96,
            "midi": 44,
            "name": "G#2",
            "ticks": 111552,
            "time": 154.2476565,
            "velocity": 0.7874015748031497
          },
          {
            "duration": 0.1327432500000043,
            "durationTicks": 96,
            "midi": 75,
            "name": "D#5",
            "ticks": 111696,
            "time": 154.446771375,
            "velocity": 0.5905511811023622
          },
          {
            "duration": 0.1327432500000043,
            "durationTicks": 96,
            "midi": 75,
            "name": "D#5",
            "ticks": 111696,
            "time": 154.446771375,
            "velocity": 0.5905511811023622
          },
          {
            "duration": 0.1327432500000043,
            "durationTicks": 96,
            "midi": 39,
            "name": "D#2",
            "ticks": 111744,
            "time": 154.513143,
            "velocity": 0.7874015748031497
          },
          {
            "duration": 0.1327432500000043,
            "durationTicks": 96,
            "midi": 73,
            "name": "C#5",
            "ticks": 111744,
            "time": 154.513143,
            "velocity": 0.7874015748031497
          },
          {
            "duration": 0.1327432500000043,
            "durationTicks": 96,
            "midi": 73,
            "name": "C#5",
            "ticks": 111744,
            "time": 154.513143,
            "velocity": 0.7874015748031497
          },
          {
            "duration": 0.1327432500000043,
            "durationTicks": 96,
            "midi": 73,
            "name": "C#5",
            "ticks": 111888,
            "time": 154.712257875,
            "velocity": 0.5905511811023622
          },
          {
            "duration": 0.1327432500000043,
            "durationTicks": 96,
            "midi": 73,
            "name": "C#5",
            "ticks": 111888,
            "time": 154.712257875,
            "velocity": 0.5905511811023622
          },
          {
            "duration": 0.1327432499999759,
            "durationTicks": 96,
            "midi": 44,
            "name": "G#2",
            "ticks": 111936,
            "time": 154.77862950000002,
            "velocity": 0.7874015748031497
          },
          {
            "duration": 0.1327432499999759,
            "durationTicks": 96,
            "midi": 68,
            "name": "G#4",
            "ticks": 111936,
            "time": 154.77862950000002,
            "velocity": 0.7874015748031497
          },
          {
            "duration": 0.1327432499999759,
            "durationTicks": 96,
            "midi": 68,
            "name": "G#4",
            "ticks": 111936,
            "time": 154.77862950000002,
            "velocity": 0.7874015748031497
          },
          {
            "duration": 0.1327432500000043,
            "durationTicks": 96,
            "midi": 68,
            "name": "G#4",
            "ticks": 112080,
            "time": 154.97774437500001,
            "velocity": 0.5905511811023622
          },
          {
            "duration": 0.1327432500000043,
            "durationTicks": 96,
            "midi": 68,
            "name": "G#4",
            "ticks": 112080,
            "time": 154.97774437500001,
            "velocity": 0.5905511811023622
          },
          {
            "duration": 0.1327432500000043,
            "durationTicks": 96,
            "midi": 75,
            "name": "D#5",
            "ticks": 112128,
            "time": 155.044116,
            "velocity": 0.7874015748031497
          },
          {
            "duration": 0.1327432500000043,
            "durationTicks": 96,
            "midi": 39,
            "name": "D#2",
            "ticks": 112128,
            "time": 155.044116,
            "velocity": 0.7874015748031497
          },
          {
            "duration": 0.1327432500000043,
            "durationTicks": 96,
            "midi": 78,
            "name": "F#5",
            "ticks": 112128,
            "time": 155.044116,
            "velocity": 0.7874015748031497
          },
          {
            "duration": 0.1327432500000043,
            "durationTicks": 96,
            "midi": 76,
            "name": "E5",
            "ticks": 112224,
            "time": 155.17685925,
            "velocity": 0.7874015748031497
          },
          {
            "duration": 0.1327432500000043,
            "durationTicks": 96,
            "midi": 73,
            "name": "C#5",
            "ticks": 112224,
            "time": 155.17685925,
            "velocity": 0.7874015748031497
          },
          {
            "duration": 0.1327432500000043,
            "durationTicks": 96,
            "midi": 33,
            "name": "A1",
            "ticks": 112224,
            "time": 155.17685925,
            "velocity": 0.7874015748031497
          },
          {
            "duration": 0.1327432500000043,
            "durationTicks": 96,
            "midi": 75,
            "name": "D#5",
            "ticks": 112272,
            "time": 155.243230875,
            "velocity": 0.5905511811023622
          },
          {
            "duration": 0.1327432500000043,
            "durationTicks": 96,
            "midi": 78,
            "name": "F#5",
            "ticks": 112272,
            "time": 155.243230875,
            "velocity": 0.5905511811023622
          },
          {
            "duration": 0.1327432500000043,
            "durationTicks": 96,
            "midi": 71,
            "name": "B4",
            "ticks": 112320,
            "time": 155.3096025,
            "velocity": 0.7874015748031497
          },
          {
            "duration": 0.1327432500000043,
            "durationTicks": 96,
            "midi": 75,
            "name": "D#5",
            "ticks": 112320,
            "time": 155.3096025,
            "velocity": 0.7874015748031497
          },
          {
            "duration": 0.1327432500000043,
            "durationTicks": 96,
            "midi": 39,
            "name": "D#2",
            "ticks": 112320,
            "time": 155.3096025,
            "velocity": 0.7874015748031497
          },
          {
            "duration": 0.1327432500000043,
            "durationTicks": 96,
            "midi": 76,
            "name": "E5",
            "ticks": 112368,
            "time": 155.375974125,
            "velocity": 0.5905511811023622
          },
          {
            "duration": 0.1327432500000043,
            "durationTicks": 96,
            "midi": 73,
            "name": "C#5",
            "ticks": 112368,
            "time": 155.375974125,
            "velocity": 0.5905511811023622
          },
          {
            "duration": 0.1327432500000043,
            "durationTicks": 96,
            "midi": 69,
            "name": "A4",
            "ticks": 112416,
            "time": 155.44234575000002,
            "velocity": 0.7874015748031497
          },
          {
            "duration": 0.2654864999999802,
            "durationTicks": 192,
            "midi": 40,
            "name": "E2",
            "ticks": 112416,
            "time": 155.44234575000002,
            "velocity": 0.7874015748031497
          },
          {
            "duration": 0.1327432500000043,
            "durationTicks": 96,
            "midi": 73,
            "name": "C#5",
            "ticks": 112416,
            "time": 155.44234575000002,
            "velocity": 0.7874015748031497
          },
          {
            "duration": 0.1327432500000043,
            "durationTicks": 96,
            "midi": 71,
            "name": "B4",
            "ticks": 112464,
            "time": 155.508717375,
            "velocity": 0.5905511811023622
          },
          {
            "duration": 0.1327432500000043,
            "durationTicks": 96,
            "midi": 75,
            "name": "D#5",
            "ticks": 112464,
            "time": 155.508717375,
            "velocity": 0.5905511811023622
          },
          {
            "duration": 0.1327432499999759,
            "durationTicks": 96,
            "midi": 75,
            "name": "D#5",
            "ticks": 112512,
            "time": 155.57508900000002,
            "velocity": 0.7874015748031497
          },
          {
            "duration": 0.1327432499999759,
            "durationTicks": 96,
            "midi": 71,
            "name": "B4",
            "ticks": 112512,
            "time": 155.57508900000002,
            "velocity": 0.7874015748031497
          },
          {
            "duration": 0.1327432500000043,
            "durationTicks": 96,
            "midi": 69,
            "name": "A4",
            "ticks": 112560,
            "time": 155.641460625,
            "velocity": 0.5905511811023622
          },
          {
            "duration": 0.1327432500000043,
            "durationTicks": 96,
            "midi": 73,
            "name": "C#5",
            "ticks": 112560,
            "time": 155.641460625,
            "velocity": 0.5905511811023622
          },
          {
            "duration": 0.1327432500000043,
            "durationTicks": 96,
            "midi": 69,
            "name": "A4",
            "ticks": 112608,
            "time": 155.70783225,
            "velocity": 0.7874015748031497
          },
          {
            "duration": 0.1327432500000043,
            "durationTicks": 96,
            "midi": 73,
            "name": "C#5",
            "ticks": 112608,
            "time": 155.70783225,
            "velocity": 0.7874015748031497
          },
          {
            "duration": 0.1327432500000043,
            "durationTicks": 96,
            "midi": 39,
            "name": "D#2",
            "ticks": 112608,
            "time": 155.70783225,
            "velocity": 0.7874015748031497
          },
          {
            "duration": 0.1327432500000043,
            "durationTicks": 96,
            "midi": 75,
            "name": "D#5",
            "ticks": 112656,
            "time": 155.774203875,
            "velocity": 0.5905511811023622
          },
          {
            "duration": 0.1327432500000043,
            "durationTicks": 96,
            "midi": 71,
            "name": "B4",
            "ticks": 112656,
            "time": 155.774203875,
            "velocity": 0.5905511811023622
          },
          {
            "duration": 0.1327432500000043,
            "durationTicks": 96,
            "midi": 68,
            "name": "G#4",
            "ticks": 112704,
            "time": 155.8405755,
            "velocity": 0.7874015748031497
          },
          {
            "duration": 0.1327432500000043,
            "durationTicks": 96,
            "midi": 35,
            "name": "B1",
            "ticks": 112704,
            "time": 155.8405755,
            "velocity": 0.7874015748031497
          },
          {
            "duration": 0.1327432500000043,
            "durationTicks": 96,
            "midi": 71,
            "name": "B4",
            "ticks": 112704,
            "time": 155.8405755,
            "velocity": 0.7874015748031497
          },
          {
            "duration": 0.1327432500000043,
            "durationTicks": 96,
            "midi": 69,
            "name": "A4",
            "ticks": 112752,
            "time": 155.90694712500002,
            "velocity": 0.5905511811023622
          },
          {
            "duration": 0.1327432500000043,
            "durationTicks": 96,
            "midi": 73,
            "name": "C#5",
            "ticks": 112752,
            "time": 155.90694712500002,
            "velocity": 0.5905511811023622
          },
          {
            "duration": 0.1327432500000043,
            "durationTicks": 96,
            "midi": 75,
            "name": "D#5",
            "ticks": 112800,
            "time": 155.97331875,
            "velocity": 0.7874015748031497
          },
          {
            "duration": 0.1327432500000043,
            "durationTicks": 96,
            "midi": 71,
            "name": "B4",
            "ticks": 112800,
            "time": 155.97331875,
            "velocity": 0.7874015748031497
          },
          {
            "duration": 0.1327432500000043,
            "durationTicks": 96,
            "midi": 39,
            "name": "D#2",
            "ticks": 112800,
            "time": 155.97331875,
            "velocity": 0.7874015748031497
          },
          {
            "duration": 0.1327432499999759,
            "durationTicks": 96,
            "midi": 68,
            "name": "G#4",
            "ticks": 112848,
            "time": 156.03969037500002,
            "velocity": 0.5905511811023622
          },
          {
            "duration": 0.1327432499999759,
            "durationTicks": 96,
            "midi": 71,
            "name": "B4",
            "ticks": 112848,
            "time": 156.03969037500002,
            "velocity": 0.5905511811023622
          },
          {
            "duration": 0.1327432500000043,
            "durationTicks": 96,
            "midi": 37,
            "name": "C#2",
            "ticks": 112896,
            "time": 156.106062,
            "velocity": 0.7874015748031497
          },
          {
            "duration": 0.1327432500000043,
            "durationTicks": 96,
            "midi": 68,
            "name": "G#4",
            "ticks": 112896,
            "time": 156.106062,
            "velocity": 0.7874015748031497
          },
          {
            "duration": 0.1327432500000043,
            "durationTicks": 96,
            "midi": 73,
            "name": "C#5",
            "ticks": 112896,
            "time": 156.106062,
            "velocity": 0.7874015748031497
          },
          {
            "duration": 0.1327432500000043,
            "durationTicks": 96,
            "midi": 71,
            "name": "B4",
            "ticks": 112944,
            "time": 156.172433625,
            "velocity": 0.5905511811023622
          },
          {
            "duration": 0.1327432500000043,
            "durationTicks": 96,
            "midi": 75,
            "name": "D#5",
            "ticks": 112944,
            "time": 156.172433625,
            "velocity": 0.5905511811023622
          },
          {
            "duration": 0.1327432500000043,
            "durationTicks": 96,
            "midi": 49,
            "name": "C#3",
            "ticks": 112992,
            "time": 156.23880525,
            "velocity": 0.7874015748031497
          },
          {
            "duration": 0.1327432500000043,
            "durationTicks": 96,
            "midi": 68,
            "name": "G#4",
            "ticks": 113040,
            "time": 156.305176875,
            "velocity": 0.5905511811023622
          },
          {
            "duration": 0.1327432500000043,
            "durationTicks": 96,
            "midi": 73,
            "name": "C#5",
            "ticks": 113040,
            "time": 156.305176875,
            "velocity": 0.5905511811023622
          },
          {
            "duration": 0.1327432500000043,
            "durationTicks": 96,
            "midi": 32,
            "name": "G#1",
            "ticks": 113088,
            "time": 156.37154850000002,
            "velocity": 0.7874015748031497
          },
          {
            "duration": 0.1327432499999759,
            "durationTicks": 96,
            "midi": 44,
            "name": "G#2",
            "ticks": 113184,
            "time": 156.50429175000002,
            "velocity": 0.7874015748031497
          },
          {
            "duration": 0.1327432499999759,
            "durationTicks": 96,
            "midi": 61,
            "name": "C#4",
            "ticks": 113184,
            "time": 156.50429175000002,
            "velocity": 0.7874015748031497
          },
          {
            "duration": 0.1327432499999759,
            "durationTicks": 96,
            "midi": 68,
            "name": "G#4",
            "ticks": 113184,
            "time": 156.50429175000002,
            "velocity": 0.7874015748031497
          },
          {
            "duration": 0.1327432500000043,
            "durationTicks": 96,
            "midi": 28,
            "name": "E1",
            "ticks": 113280,
            "time": 156.637035,
            "velocity": 0.7874015748031497
          },
          {
            "duration": 0.1327432500000043,
            "durationTicks": 96,
            "midi": 68,
            "name": "G#4",
            "ticks": 113328,
            "time": 156.703406625,
            "velocity": 0.5905511811023622
          },
          {
            "duration": 0.1327432500000043,
            "durationTicks": 96,
            "midi": 61,
            "name": "C#4",
            "ticks": 113328,
            "time": 156.703406625,
            "velocity": 0.5905511811023622
          },
          {
            "duration": 0.1327432500000043,
            "durationTicks": 96,
            "midi": 40,
            "name": "E2",
            "ticks": 113376,
            "time": 156.76977825,
            "velocity": 0.7874015748031497
          },
          {
            "duration": 0.1327432500000043,
            "durationTicks": 96,
            "midi": 68,
            "name": "G#4",
            "ticks": 113472,
            "time": 156.9025215,
            "velocity": 0.7874015748031497
          },
          {
            "duration": 0.1327432500000043,
            "durationTicks": 96,
            "midi": 32,
            "name": "G#1",
            "ticks": 113472,
            "time": 156.9025215,
            "velocity": 0.7874015748031497
          },
          {
            "duration": 0.1327432500000043,
            "durationTicks": 96,
            "midi": 61,
            "name": "C#4",
            "ticks": 113472,
            "time": 156.9025215,
            "velocity": 0.7874015748031497
          },
          {
            "duration": 0.1327432500000043,
            "durationTicks": 96,
            "midi": 68,
            "name": "G#4",
            "ticks": 113568,
            "time": 157.03526475,
            "velocity": 0.7874015748031497
          },
          {
            "duration": 0.1327432500000043,
            "durationTicks": 96,
            "midi": 73,
            "name": "C#5",
            "ticks": 113568,
            "time": 157.03526475,
            "velocity": 0.7874015748031497
          },
          {
            "duration": 0.1327432500000043,
            "durationTicks": 96,
            "midi": 44,
            "name": "G#2",
            "ticks": 113568,
            "time": 157.03526475,
            "velocity": 0.7874015748031497
          },
          {
            "duration": 0.1327432500000043,
            "durationTicks": 96,
            "midi": 68,
            "name": "G#4",
            "ticks": 113616,
            "time": 157.101636375,
            "velocity": 0.5905511811023622
          },
          {
            "duration": 0.1327432500000043,
            "durationTicks": 96,
            "midi": 61,
            "name": "C#4",
            "ticks": 113616,
            "time": 157.101636375,
            "velocity": 0.5905511811023622
          },
          {
            "duration": 0.1327432500000043,
            "durationTicks": 96,
            "midi": 78,
            "name": "F#5",
            "ticks": 113664,
            "time": 157.16800800000001,
            "velocity": 0.7874015748031497
          },
          {
            "duration": 0.1327432500000043,
            "durationTicks": 96,
            "midi": 39,
            "name": "D#2",
            "ticks": 113664,
            "time": 157.16800800000001,
            "velocity": 0.7874015748031497
          },
          {
            "duration": 0.1327432500000043,
            "durationTicks": 96,
            "midi": 75,
            "name": "D#5",
            "ticks": 113664,
            "time": 157.16800800000001,
            "velocity": 0.7874015748031497
          },
          {
            "duration": 0.1327432500000043,
            "durationTicks": 96,
            "midi": 68,
            "name": "G#4",
            "ticks": 113712,
            "time": 157.234379625,
            "velocity": 0.5905511811023622
          },
          {
            "duration": 0.1327432500000043,
            "durationTicks": 96,
            "midi": 73,
            "name": "C#5",
            "ticks": 113712,
            "time": 157.234379625,
            "velocity": 0.5905511811023622
          },
          {
            "duration": 0.1327432499999759,
            "durationTicks": 96,
            "midi": 73,
            "name": "C#5",
            "ticks": 113760,
            "time": 157.30075125000002,
            "velocity": 0.7874015748031497
          },
          {
            "duration": 0.1327432499999759,
            "durationTicks": 96,
            "midi": 33,
            "name": "A1",
            "ticks": 113760,
            "time": 157.30075125000002,
            "velocity": 0.7874015748031497
          },
          {
            "duration": 0.1327432499999759,
            "durationTicks": 96,
            "midi": 76,
            "name": "E5",
            "ticks": 113760,
            "time": 157.30075125000002,
            "velocity": 0.7874015748031497
          },
          {
            "duration": 0.1327432500000043,
            "durationTicks": 96,
            "midi": 78,
            "name": "F#5",
            "ticks": 113808,
            "time": 157.367122875,
            "velocity": 0.5905511811023622
          },
          {
            "duration": 0.1327432500000043,
            "durationTicks": 96,
            "midi": 75,
            "name": "D#5",
            "ticks": 113808,
            "time": 157.367122875,
            "velocity": 0.5905511811023622
          },
          {
            "duration": 0.1327432500000043,
            "durationTicks": 96,
            "midi": 71,
            "name": "B4",
            "ticks": 113856,
            "time": 157.4334945,
            "velocity": 0.7874015748031497
          },
          {
            "duration": 0.1327432500000043,
            "durationTicks": 96,
            "midi": 39,
            "name": "D#2",
            "ticks": 113856,
            "time": 157.4334945,
            "velocity": 0.7874015748031497
          },
          {
            "duration": 0.1327432500000043,
            "durationTicks": 96,
            "midi": 75,
            "name": "D#5",
            "ticks": 113856,
            "time": 157.4334945,
            "velocity": 0.7874015748031497
          },
          {
            "duration": 0.1327432500000043,
            "durationTicks": 96,
            "midi": 73,
            "name": "C#5",
            "ticks": 113904,
            "time": 157.499866125,
            "velocity": 0.5905511811023622
          },
          {
            "duration": 0.1327432500000043,
            "durationTicks": 96,
            "midi": 76,
            "name": "E5",
            "ticks": 113904,
            "time": 157.499866125,
            "velocity": 0.5905511811023622
          },
          {
            "duration": 0.2654865000000086,
            "durationTicks": 192,
            "midi": 40,
            "name": "E2",
            "ticks": 113952,
            "time": 157.56623775,
            "velocity": 0.7874015748031497
          },
          {
            "duration": 0.1327432500000043,
            "durationTicks": 96,
            "midi": 73,
            "name": "C#5",
            "ticks": 113952,
            "time": 157.56623775,
            "velocity": 0.7874015748031497
          },
          {
            "duration": 0.1327432500000043,
            "durationTicks": 96,
            "midi": 69,
            "name": "A4",
            "ticks": 113952,
            "time": 157.56623775,
            "velocity": 0.7874015748031497
          },
          {
            "duration": 0.1327432500000043,
            "durationTicks": 96,
            "midi": 71,
            "name": "B4",
            "ticks": 114000,
            "time": 157.63260937500002,
            "velocity": 0.5905511811023622
          },
          {
            "duration": 0.1327432500000043,
            "durationTicks": 96,
            "midi": 75,
            "name": "D#5",
            "ticks": 114000,
            "time": 157.63260937500002,
            "velocity": 0.5905511811023622
          },
          {
            "duration": 0.1327432500000043,
            "durationTicks": 96,
            "midi": 68,
            "name": "G#4",
            "ticks": 114048,
            "time": 157.698981,
            "velocity": 0.7874015748031497
          },
          {
            "duration": 0.1327432500000043,
            "durationTicks": 96,
            "midi": 71,
            "name": "B4",
            "ticks": 114048,
            "time": 157.698981,
            "velocity": 0.7874015748031497
          },
          {
            "duration": 0.1327432499999759,
            "durationTicks": 96,
            "midi": 73,
            "name": "C#5",
            "ticks": 114096,
            "time": 157.76535262500002,
            "velocity": 0.5905511811023622
          },
          {
            "duration": 0.1327432499999759,
            "durationTicks": 96,
            "midi": 69,
            "name": "A4",
            "ticks": 114096,
            "time": 157.76535262500002,
            "velocity": 0.5905511811023622
          },
          {
            "duration": 0.1327432500000043,
            "durationTicks": 96,
            "midi": 66,
            "name": "F#4",
            "ticks": 114144,
            "time": 157.83172425,
            "velocity": 0.7874015748031497
          },
          {
            "duration": 0.1327432500000043,
            "durationTicks": 96,
            "midi": 39,
            "name": "D#2",
            "ticks": 114144,
            "time": 157.83172425,
            "velocity": 0.7874015748031497
          },
          {
            "duration": 0.1327432500000043,
            "durationTicks": 96,
            "midi": 69,
            "name": "A4",
            "ticks": 114144,
            "time": 157.83172425,
            "velocity": 0.7874015748031497
          },
          {
            "duration": 0.1327432500000043,
            "durationTicks": 96,
            "midi": 71,
            "name": "B4",
            "ticks": 114192,
            "time": 157.898095875,
            "velocity": 0.5905511811023622
          },
          {
            "duration": 0.1327432500000043,
            "durationTicks": 96,
            "midi": 68,
            "name": "G#4",
            "ticks": 114192,
            "time": 157.898095875,
            "velocity": 0.5905511811023622
          },
          {
            "duration": 0.1327432500000043,
            "durationTicks": 96,
            "midi": 76,
            "name": "E5",
            "ticks": 114240,
            "time": 157.9644675,
            "velocity": 0.7874015748031497
          },
          {
            "duration": 0.1327432500000043,
            "durationTicks": 96,
            "midi": 80,
            "name": "G#5",
            "ticks": 114240,
            "time": 157.9644675,
            "velocity": 0.7874015748031497
          },
          {
            "duration": 0.1327432500000043,
            "durationTicks": 96,
            "midi": 35,
            "name": "B1",
            "ticks": 114240,
            "time": 157.9644675,
            "velocity": 0.7874015748031497
          },
          {
            "duration": 0.1327432500000043,
            "durationTicks": 96,
            "midi": 66,
            "name": "F#4",
            "ticks": 114288,
            "time": 158.030839125,
            "velocity": 0.5905511811023622
          },
          {
            "duration": 0.1327432500000043,
            "durationTicks": 96,
            "midi": 69,
            "name": "A4",
            "ticks": 114288,
            "time": 158.030839125,
            "velocity": 0.5905511811023622
          },
          {
            "duration": 0.1327432500000043,
            "durationTicks": 96,
            "midi": 75,
            "name": "D#5",
            "ticks": 114336,
            "time": 158.09721075000002,
            "velocity": 0.7874015748031497
          },
          {
            "duration": 0.1327432500000043,
            "durationTicks": 96,
            "midi": 78,
            "name": "F#5",
            "ticks": 114336,
            "time": 158.09721075000002,
            "velocity": 0.7874015748031497
          },
          {
            "duration": 0.1327432500000043,
            "durationTicks": 96,
            "midi": 51,
            "name": "D#3",
            "ticks": 114336,
            "time": 158.09721075000002,
            "velocity": 0.7874015748031497
          },
          {
            "duration": 0.1327432500000043,
            "durationTicks": 96,
            "midi": 80,
            "name": "G#5",
            "ticks": 114384,
            "time": 158.163582375,
            "velocity": 0.5905511811023622
          },
          {
            "duration": 0.1327432500000043,
            "durationTicks": 96,
            "midi": 76,
            "name": "E5",
            "ticks": 114384,
            "time": 158.163582375,
            "velocity": 0.5905511811023622
          },
          {
            "duration": 0.2654864999999802,
            "durationTicks": 192,
            "midi": 76,
            "name": "E5",
            "ticks": 114432,
            "time": 158.22995400000002,
            "velocity": 0.7874015748031497
          },
          {
            "duration": 0.2654864999999802,
            "durationTicks": 192,
            "midi": 73,
            "name": "C#5",
            "ticks": 114432,
            "time": 158.22995400000002,
            "velocity": 0.7874015748031497
          },
          {
            "duration": 0.1327432499999759,
            "durationTicks": 96,
            "midi": 37,
            "name": "C#2",
            "ticks": 114432,
            "time": 158.22995400000002,
            "velocity": 0.7874015748031497
          },
          {
            "duration": 0.1327432500000043,
            "durationTicks": 96,
            "midi": 75,
            "name": "D#5",
            "ticks": 114480,
            "time": 158.296325625,
            "velocity": 0.5905511811023622
          },
          {
            "duration": 0.1327432500000043,
            "durationTicks": 96,
            "midi": 78,
            "name": "F#5",
            "ticks": 114480,
            "time": 158.296325625,
            "velocity": 0.5905511811023622
          },
          {
            "duration": 0.1327432500000043,
            "durationTicks": 96,
            "midi": 49,
            "name": "C#3",
            "ticks": 114528,
            "time": 158.36269725,
            "velocity": 0.7874015748031497
          },
          {
            "duration": 0.2654865000000086,
            "durationTicks": 192,
            "midi": 76,
            "name": "E5",
            "ticks": 114576,
            "time": 158.429068875,
            "velocity": 0.5905511811023622
          },
          {
            "duration": 0.2654865000000086,
            "durationTicks": 192,
            "midi": 73,
            "name": "C#5",
            "ticks": 114576,
            "time": 158.429068875,
            "velocity": 0.5905511811023622
          },
          {
            "duration": 0.2654865000000086,
            "durationTicks": 192,
            "midi": 78,
            "name": "F#5",
            "ticks": 114624,
            "time": 158.4954405,
            "velocity": 0.7874015748031497
          },
          {
            "duration": 0.2654865000000086,
            "durationTicks": 192,
            "midi": 75,
            "name": "D#5",
            "ticks": 114624,
            "time": 158.4954405,
            "velocity": 0.7874015748031497
          },
          {
            "duration": 0.1327432500000043,
            "durationTicks": 96,
            "midi": 39,
            "name": "D#2",
            "ticks": 114624,
            "time": 158.4954405,
            "velocity": 0.7874015748031497
          },
          {
            "duration": 0.1327432500000043,
            "durationTicks": 96,
            "midi": 51,
            "name": "D#3",
            "ticks": 114720,
            "time": 158.62818375,
            "velocity": 0.7874015748031497
          },
          {
            "duration": 0.2654864999999802,
            "durationTicks": 192,
            "midi": 75,
            "name": "D#5",
            "ticks": 114768,
            "time": 158.69455537500002,
            "velocity": 0.5905511811023622
          },
          {
            "duration": 0.2654864999999802,
            "durationTicks": 192,
            "midi": 78,
            "name": "F#5",
            "ticks": 114768,
            "time": 158.69455537500002,
            "velocity": 0.5905511811023622
          },
          {
            "duration": 0.1327432500000043,
            "durationTicks": 96,
            "midi": 40,
            "name": "E2",
            "ticks": 114816,
            "time": 158.760927,
            "velocity": 0.7874015748031497
          },
          {
            "duration": 0.2654865000000086,
            "durationTicks": 192,
            "midi": 76,
            "name": "E5",
            "ticks": 114816,
            "time": 158.760927,
            "velocity": 0.7874015748031497
          },
          {
            "duration": 0.2654865000000086,
            "durationTicks": 192,
            "midi": 80,
            "name": "G#5",
            "ticks": 114816,
            "time": 158.760927,
            "velocity": 0.7874015748031497
          },
          {
            "duration": 0.1327432500000043,
            "durationTicks": 96,
            "midi": 52,
            "name": "E3",
            "ticks": 114912,
            "time": 158.89367025,
            "velocity": 0.7874015748031497
          },
          {
            "duration": 0.19911487500002067,
            "durationTicks": 144,
            "midi": 80,
            "name": "G#5",
            "ticks": 114960,
            "time": 158.960041875,
            "velocity": 0.5905511811023622
          },
          {
            "duration": 0.19911487500002067,
            "durationTicks": 144,
            "midi": 76,
            "name": "E5",
            "ticks": 114960,
            "time": 158.960041875,
            "velocity": 0.5905511811023622
          },
          {
            "duration": 0.19911487499999225,
            "durationTicks": 144,
            "midi": 76,
            "name": "E5",
            "ticks": 115008,
            "time": 159.02641350000002,
            "velocity": 0.7874015748031497
          },
          {
            "duration": 0.19911487499999225,
            "durationTicks": 144,
            "midi": 80,
            "name": "G#5",
            "ticks": 115008,
            "time": 159.02641350000002,
            "velocity": 0.7874015748031497
          },
          {
            "duration": 0.1327432500000043,
            "durationTicks": 96,
            "midi": 47,
            "name": "B2",
            "ticks": 115008,
            "time": 159.02641350000002,
            "velocity": 0.7874015748031497
          },
          {
            "duration": 0.1327432499999759,
            "durationTicks": 96,
            "midi": 40,
            "name": "E2",
            "ticks": 115104,
            "time": 159.15915675000002,
            "velocity": 0.7874015748031497
          },
          {
            "duration": 0.1327432499999759,
            "durationTicks": 96,
            "midi": 78,
            "name": "F#5",
            "ticks": 115104,
            "time": 159.15915675000002,
            "velocity": 0.7874015748031497
          },
          {
            "duration": 0.1327432499999759,
            "durationTicks": 96,
            "midi": 82,
            "name": "A#5",
            "ticks": 115104,
            "time": 159.15915675000002,
            "velocity": 0.7874015748031497
          },
          {
            "duration": 0.1327432500000043,
            "durationTicks": 96,
            "midi": 80,
            "name": "G#5",
            "ticks": 115152,
            "time": 159.225528375,
            "velocity": 0.5905511811023622
          },
          {
            "duration": 0.1327432500000043,
            "durationTicks": 96,
            "midi": 76,
            "name": "E5",
            "ticks": 115152,
            "time": 159.225528375,
            "velocity": 0.5905511811023622
          },
          {
            "duration": 0.1327432500000043,
            "durationTicks": 96,
            "midi": 42,
            "name": "F#2",
            "ticks": 115200,
            "time": 159.2919,
            "velocity": 0.7874015748031497
          },
          {
            "duration": 0.1327432500000043,
            "durationTicks": 96,
            "midi": 83,
            "name": "B5",
            "ticks": 115200,
            "time": 159.2919,
            "velocity": 0.7874015748031497
          },
          {
            "duration": 0.1327432500000043,
            "durationTicks": 96,
            "midi": 80,
            "name": "G#5",
            "ticks": 115200,
            "time": 159.2919,
            "velocity": 0.7874015748031497
          },
          {
            "duration": 0.1327432500000043,
            "durationTicks": 96,
            "midi": 78,
            "name": "F#5",
            "ticks": 115248,
            "time": 159.35827162500001,
            "velocity": 0.5905511811023622
          },
          {
            "duration": 0.1327432500000043,
            "durationTicks": 96,
            "midi": 82,
            "name": "A#5",
            "ticks": 115248,
            "time": 159.35827162500001,
            "velocity": 0.5905511811023622
          },
          {
            "duration": 0.1327432500000043,
            "durationTicks": 96,
            "midi": 78,
            "name": "F#5",
            "ticks": 115296,
            "time": 159.42464325,
            "velocity": 0.7874015748031497
          },
          {
            "duration": 0.1327432500000043,
            "durationTicks": 96,
            "midi": 37,
            "name": "C#2",
            "ticks": 115296,
            "time": 159.42464325,
            "velocity": 0.7874015748031497
          },
          {
            "duration": 0.1327432500000043,
            "durationTicks": 96,
            "midi": 82,
            "name": "A#5",
            "ticks": 115296,
            "time": 159.42464325,
            "velocity": 0.7874015748031497
          },
          {
            "duration": 0.1327432499999759,
            "durationTicks": 96,
            "midi": 83,
            "name": "B5",
            "ticks": 115344,
            "time": 159.49101487500002,
            "velocity": 0.5905511811023622
          },
          {
            "duration": 0.1327432499999759,
            "durationTicks": 96,
            "midi": 80,
            "name": "G#5",
            "ticks": 115344,
            "time": 159.49101487500002,
            "velocity": 0.5905511811023622
          },
          {
            "duration": 0.1327432500000043,
            "durationTicks": 96,
            "midi": 80,
            "name": "G#5",
            "ticks": 115392,
            "time": 159.5573865,
            "velocity": 0.7874015748031497
          },
          {
            "duration": 0.1327432500000043,
            "durationTicks": 96,
            "midi": 76,
            "name": "E5",
            "ticks": 115392,
            "time": 159.5573865,
            "velocity": 0.7874015748031497
          },
          {
            "duration": 0.1327432500000043,
            "durationTicks": 96,
            "midi": 42,
            "name": "F#2",
            "ticks": 115392,
            "time": 159.5573865,
            "velocity": 0.7874015748031497
          },
          {
            "duration": 0.1327432500000043,
            "durationTicks": 96,
            "midi": 78,
            "name": "F#5",
            "ticks": 115440,
            "time": 159.623758125,
            "velocity": 0.5905511811023622
          },
          {
            "duration": 0.1327432500000043,
            "durationTicks": 96,
            "midi": 82,
            "name": "A#5",
            "ticks": 115440,
            "time": 159.623758125,
            "velocity": 0.5905511811023622
          },
          {
            "duration": 0.2654865000000086,
            "durationTicks": 192,
            "midi": 47,
            "name": "B2",
            "ticks": 115488,
            "time": 159.69012975,
            "velocity": 0.7874015748031497
          },
          {
            "duration": 0.1327432500000043,
            "durationTicks": 96,
            "midi": 78,
            "name": "F#5",
            "ticks": 115488,
            "time": 159.69012975,
            "velocity": 0.7874015748031497
          },
          {
            "duration": 0.1327432500000043,
            "durationTicks": 96,
            "midi": 75,
            "name": "D#5",
            "ticks": 115488,
            "time": 159.69012975,
            "velocity": 0.7874015748031497
          },
          {
            "duration": 0.1327432500000043,
            "durationTicks": 96,
            "midi": 80,
            "name": "G#5",
            "ticks": 115536,
            "time": 159.756501375,
            "velocity": 0.5905511811023622
          },
          {
            "duration": 0.1327432500000043,
            "durationTicks": 96,
            "midi": 76,
            "name": "E5",
            "ticks": 115536,
            "time": 159.756501375,
            "velocity": 0.5905511811023622
          },
          {
            "duration": 0.1327432500000043,
            "durationTicks": 96,
            "midi": 76,
            "name": "E5",
            "ticks": 115584,
            "time": 159.82287300000002,
            "velocity": 0.7874015748031497
          },
          {
            "duration": 0.1327432500000043,
            "durationTicks": 96,
            "midi": 80,
            "name": "G#5",
            "ticks": 115584,
            "time": 159.82287300000002,
            "velocity": 0.7874015748031497
          },
          {
            "duration": 0.1327432500000043,
            "durationTicks": 96,
            "midi": 75,
            "name": "D#5",
            "ticks": 115632,
            "time": 159.889244625,
            "velocity": 0.5905511811023622
          },
          {
            "duration": 0.1327432500000043,
            "durationTicks": 96,
            "midi": 78,
            "name": "F#5",
            "ticks": 115632,
            "time": 159.889244625,
            "velocity": 0.5905511811023622
          },
          {
            "duration": 0.1327432499999759,
            "durationTicks": 96,
            "midi": 75,
            "name": "D#5",
            "ticks": 115680,
            "time": 159.95561625000002,
            "velocity": 0.7874015748031497
          },
          {
            "duration": 0.1327432499999759,
            "durationTicks": 96,
            "midi": 46,
            "name": "A#2",
            "ticks": 115680,
            "time": 159.95561625000002,
            "velocity": 0.7874015748031497
          },
          {
            "duration": 0.1327432499999759,
            "durationTicks": 96,
            "midi": 78,
            "name": "F#5",
            "ticks": 115680,
            "time": 159.95561625000002,
            "velocity": 0.7874015748031497
          },
          {
            "duration": 0.1327432500000043,
            "durationTicks": 96,
            "midi": 76,
            "name": "E5",
            "ticks": 115728,
            "time": 160.021987875,
            "velocity": 0.5905511811023622
          },
          {
            "duration": 0.1327432500000043,
            "durationTicks": 96,
            "midi": 80,
            "name": "G#5",
            "ticks": 115728,
            "time": 160.021987875,
            "velocity": 0.5905511811023622
          },
          {
            "duration": 0.1327432500000043,
            "durationTicks": 96,
            "midi": 42,
            "name": "F#2",
            "ticks": 115776,
            "time": 160.0883595,
            "velocity": 0.7874015748031497
          },
          {
            "duration": 0.1327432500000043,
            "durationTicks": 96,
            "midi": 80,
            "name": "G#5",
            "ticks": 115776,
            "time": 160.0883595,
            "velocity": 0.7874015748031497
          },
          {
            "duration": 0.1327432500000043,
            "durationTicks": 96,
            "midi": 76,
            "name": "E5",
            "ticks": 115776,
            "time": 160.0883595,
            "velocity": 0.7874015748031497
          },
          {
            "duration": 0.1327432500000043,
            "durationTicks": 96,
            "midi": 75,
            "name": "D#5",
            "ticks": 115824,
            "time": 160.154731125,
            "velocity": 0.5905511811023622
          },
          {
            "duration": 0.1327432500000043,
            "durationTicks": 96,
            "midi": 78,
            "name": "F#5",
            "ticks": 115824,
            "time": 160.154731125,
            "velocity": 0.5905511811023622
          },
          {
            "duration": 0.1327432500000043,
            "durationTicks": 96,
            "midi": 78,
            "name": "F#5",
            "ticks": 115872,
            "time": 160.22110275,
            "velocity": 0.7874015748031497
          },
          {
            "duration": 0.1327432500000043,
            "durationTicks": 96,
            "midi": 40,
            "name": "E2",
            "ticks": 115872,
            "time": 160.22110275,
            "velocity": 0.7874015748031497
          },
          {
            "duration": 0.1327432500000043,
            "durationTicks": 96,
            "midi": 82,
            "name": "A#5",
            "ticks": 115872,
            "time": 160.22110275,
            "velocity": 0.7874015748031497
          },
          {
            "duration": 0.1327432500000043,
            "durationTicks": 96,
            "midi": 80,
            "name": "G#5",
            "ticks": 115920,
            "time": 160.28747437500002,
            "velocity": 0.5905511811023622
          },
          {
            "duration": 0.1327432500000043,
            "durationTicks": 96,
            "midi": 76,
            "name": "E5",
            "ticks": 115920,
            "time": 160.28747437500002,
            "velocity": 0.5905511811023622
          },
          {
            "duration": 0.1327432500000043,
            "durationTicks": 96,
            "midi": 80,
            "name": "G#5",
            "ticks": 115968,
            "time": 160.353846,
            "velocity": 0.7874015748031497
          },
          {
            "duration": 0.1327432500000043,
            "durationTicks": 96,
            "midi": 37,
            "name": "C#2",
            "ticks": 115968,
            "time": 160.353846,
            "velocity": 0.7874015748031497
          },
          {
            "duration": 0.1327432500000043,
            "durationTicks": 96,
            "midi": 76,
            "name": "E5",
            "ticks": 115968,
            "time": 160.353846,
            "velocity": 0.7874015748031497
          },
          {
            "duration": 0.1327432499999759,
            "durationTicks": 96,
            "midi": 78,
            "name": "F#5",
            "ticks": 116016,
            "time": 160.42021762500002,
            "velocity": 0.5905511811023622
          },
          {
            "duration": 0.1327432499999759,
            "durationTicks": 96,
            "midi": 82,
            "name": "A#5",
            "ticks": 116016,
            "time": 160.42021762500002,
            "velocity": 0.5905511811023622
          },
          {
            "duration": 0.1327432500000043,
            "durationTicks": 96,
            "midi": 32,
            "name": "G#1",
            "ticks": 116064,
            "time": 160.48658925,
            "velocity": 0.7874015748031497
          },
          {
            "duration": 0.1327432500000043,
            "durationTicks": 96,
            "midi": 80,
            "name": "G#5",
            "ticks": 116112,
            "time": 160.552960875,
            "velocity": 0.5905511811023622
          },
          {
            "duration": 0.1327432500000043,
            "durationTicks": 96,
            "midi": 76,
            "name": "E5",
            "ticks": 116112,
            "time": 160.552960875,
            "velocity": 0.5905511811023622
          },
          {
            "duration": 0.1327432500000043,
            "durationTicks": 96,
            "midi": 39,
            "name": "D#2",
            "ticks": 116160,
            "time": 160.6193325,
            "velocity": 0.7874015748031497
          },
          {
            "duration": 0.1327432500000043,
            "durationTicks": 96,
            "midi": 32,
            "name": "G#1",
            "ticks": 116256,
            "time": 160.75207575000002,
            "velocity": 0.7874015748031497
          },
          {
            "duration": 0.1327432500000043,
            "durationTicks": 96,
            "midi": 73,
            "name": "C#5",
            "ticks": 116256,
            "time": 160.75207575000002,
            "velocity": 0.7874015748031497
          },
          {
            "duration": 0.1327432500000043,
            "durationTicks": 96,
            "midi": 68,
            "name": "G#4",
            "ticks": 116256,
            "time": 160.75207575000002,
            "velocity": 0.7874015748031497
          },
          {
            "duration": 0.1327432499999759,
            "durationTicks": 96,
            "midi": 40,
            "name": "E2",
            "ticks": 116352,
            "time": 160.88481900000002,
            "velocity": 0.7874015748031497
          },
          {
            "duration": 0.1327432500000043,
            "durationTicks": 96,
            "midi": 73,
            "name": "C#5",
            "ticks": 116400,
            "time": 160.951190625,
            "velocity": 0.5905511811023622
          },
          {
            "duration": 0.1327432500000043,
            "durationTicks": 96,
            "midi": 68,
            "name": "G#4",
            "ticks": 116400,
            "time": 160.951190625,
            "velocity": 0.5905511811023622
          },
          {
            "duration": 0.1327432500000043,
            "durationTicks": 96,
            "midi": 32,
            "name": "G#1",
            "ticks": 116448,
            "time": 161.01756225,
            "velocity": 0.7874015748031497
          },
          {
            "duration": 0.1327432500000043,
            "durationTicks": 96,
            "midi": 42,
            "name": "F#2",
            "ticks": 116544,
            "time": 161.1503055,
            "velocity": 0.7874015748031497
          },
          {
            "duration": 0.1327432500000043,
            "durationTicks": 96,
            "midi": 68,
            "name": "G#4",
            "ticks": 116544,
            "time": 161.1503055,
            "velocity": 0.7874015748031497
          },
          {
            "duration": 0.1327432500000043,
            "durationTicks": 96,
            "midi": 73,
            "name": "C#5",
            "ticks": 116544,
            "time": 161.1503055,
            "velocity": 0.7874015748031497
          },
          {
            "duration": 0.1327432500000043,
            "durationTicks": 96,
            "midi": 32,
            "name": "G#1",
            "ticks": 116640,
            "time": 161.28304875,
            "velocity": 0.7874015748031497
          },
          {
            "duration": 0.1327432500000043,
            "durationTicks": 96,
            "midi": 71,
            "name": "B4",
            "ticks": 116640,
            "time": 161.28304875,
            "velocity": 0.7874015748031497
          },
          {
            "duration": 0.1327432500000043,
            "durationTicks": 96,
            "midi": 75,
            "name": "D#5",
            "ticks": 116640,
            "time": 161.28304875,
            "velocity": 0.7874015748031497
          },
          {
            "duration": 0.1327432499999759,
            "durationTicks": 96,
            "midi": 68,
            "name": "G#4",
            "ticks": 116688,
            "time": 161.34942037500002,
            "velocity": 0.5905511811023622
          },
          {
            "duration": 0.1327432499999759,
            "durationTicks": 96,
            "midi": 73,
            "name": "C#5",
            "ticks": 116688,
            "time": 161.34942037500002,
            "velocity": 0.5905511811023622
          },
          {
            "duration": 0.3982297499999845,
            "durationTicks": 288,
            "midi": 76,
            "name": "E5",
            "ticks": 116736,
            "time": 161.415792,
            "velocity": 0.7874015748031497
          },
          {
            "duration": 0.1327432500000043,
            "durationTicks": 96,
            "midi": 33,
            "name": "A1",
            "ticks": 116736,
            "time": 161.415792,
            "velocity": 0.7874015748031497
          },
          {
            "duration": 0.3982297499999845,
            "durationTicks": 288,
            "midi": 73,
            "name": "C#5",
            "ticks": 116736,
            "time": 161.415792,
            "velocity": 0.7874015748031497
          },
          {
            "duration": 0.1327432500000043,
            "durationTicks": 96,
            "midi": 71,
            "name": "B4",
            "ticks": 116784,
            "time": 161.482163625,
            "velocity": 0.5905511811023622
          },
          {
            "duration": 0.1327432500000043,
            "durationTicks": 96,
            "midi": 75,
            "name": "D#5",
            "ticks": 116784,
            "time": 161.482163625,
            "velocity": 0.5905511811023622
          },
          {
            "duration": 0.1327432500000043,
            "durationTicks": 96,
            "midi": 37,
            "name": "C#2",
            "ticks": 116832,
            "time": 161.54853525000001,
            "velocity": 0.7874015748031497
          },
          {
            "duration": 0.3982297500000129,
            "durationTicks": 288,
            "midi": 76,
            "name": "E5",
            "ticks": 116880,
            "time": 161.614906875,
            "velocity": 0.5905511811023622
          },
          {
            "duration": 0.3982297500000129,
            "durationTicks": 288,
            "midi": 73,
            "name": "C#5",
            "ticks": 116880,
            "time": 161.614906875,
            "velocity": 0.5905511811023622
          },
          {
            "duration": 0.1327432499999759,
            "durationTicks": 96,
            "midi": 40,
            "name": "E2",
            "ticks": 116928,
            "time": 161.68127850000002,
            "velocity": 0.7874015748031497
          },
          {
            "duration": 0.3982297500000129,
            "durationTicks": 288,
            "midi": 71,
            "name": "B4",
            "ticks": 117024,
            "time": 161.81402175,
            "velocity": 0.7874015748031497
          },
          {
            "duration": 0.2654865000000086,
            "durationTicks": 192,
            "midi": 45,
            "name": "A2",
            "ticks": 117024,
            "time": 161.81402175,
            "velocity": 0.7874015748031497
          },
          {
            "duration": 0.3982297500000129,
            "durationTicks": 288,
            "midi": 75,
            "name": "D#5",
            "ticks": 117024,
            "time": 161.81402175,
            "velocity": 0.7874015748031497
          },
          {
            "duration": 0.3982297499999845,
            "durationTicks": 288,
            "midi": 71,
            "name": "B4",
            "ticks": 117168,
            "time": 162.01313662500002,
            "velocity": 0.5905511811023622
          },
          {
            "duration": 0.3982297499999845,
            "durationTicks": 288,
            "midi": 75,
            "name": "D#5",
            "ticks": 117168,
            "time": 162.01313662500002,
            "velocity": 0.5905511811023622
          },
          {
            "duration": 0.1327432500000043,
            "durationTicks": 96,
            "midi": 44,
            "name": "G#2",
            "ticks": 117216,
            "time": 162.07950825,
            "velocity": 0.7874015748031497
          },
          {
            "duration": 0.1327432500000043,
            "durationTicks": 96,
            "midi": 40,
            "name": "E2",
            "ticks": 117312,
            "time": 162.2122515,
            "velocity": 0.7874015748031497
          },
          {
            "duration": 0.2654865000000086,
            "durationTicks": 192,
            "midi": 66,
            "name": "F#4",
            "ticks": 117312,
            "time": 162.2122515,
            "velocity": 0.7874015748031497
          },
          {
            "duration": 0.2654865000000086,
            "durationTicks": 192,
            "midi": 71,
            "name": "B4",
            "ticks": 117312,
            "time": 162.2122515,
            "velocity": 0.7874015748031497
          },
          {
            "duration": 0.1327432500000043,
            "durationTicks": 96,
            "midi": 37,
            "name": "C#2",
            "ticks": 117408,
            "time": 162.34499475,
            "velocity": 0.7874015748031497
          },
          {
            "duration": 0.2654865000000086,
            "durationTicks": 192,
            "midi": 66,
            "name": "F#4",
            "ticks": 117456,
            "time": 162.411366375,
            "velocity": 0.5905511811023622
          },
          {
            "duration": 0.2654865000000086,
            "durationTicks": 192,
            "midi": 71,
            "name": "B4",
            "ticks": 117456,
            "time": 162.411366375,
            "velocity": 0.5905511811023622
          },
          {
            "duration": 0.1327432500000043,
            "durationTicks": 96,
            "midi": 33,
            "name": "A1",
            "ticks": 117504,
            "time": 162.47773800000002,
            "velocity": 0.7874015748031497
          },
          {
            "duration": 0.7964594999999974,
            "durationTicks": 576,
            "midi": 68,
            "name": "G#4",
            "ticks": 117504,
            "time": 162.47773800000002,
            "velocity": 0.7874015748031497
          },
          {
            "duration": 0.7964594999999974,
            "durationTicks": 576,
            "midi": 73,
            "name": "C#5",
            "ticks": 117504,
            "time": 162.47773800000002,
            "velocity": 0.7874015748031497
          },
          {
            "duration": 0.1327432499999759,
            "durationTicks": 96,
            "midi": 37,
            "name": "C#2",
            "ticks": 117600,
            "time": 162.61048125000002,
            "velocity": 0.7874015748031497
          },
          {
            "duration": 0.7300878750000095,
            "durationTicks": 528,
            "midi": 73,
            "name": "C#5",
            "ticks": 117648,
            "time": 162.676852875,
            "velocity": 0.5905511811023622
          },
          {
            "duration": 0.7300878750000095,
            "durationTicks": 528,
            "midi": 68,
            "name": "G#4",
            "ticks": 117648,
            "time": 162.676852875,
            "velocity": 0.5905511811023622
          },
          {
            "duration": 0.1327432500000043,
            "durationTicks": 96,
            "midi": 40,
            "name": "E2",
            "ticks": 117696,
            "time": 162.7432245,
            "velocity": 0.7874015748031497
          },
          {
            "duration": 0.2654865000000086,
            "durationTicks": 192,
            "midi": 45,
            "name": "A2",
            "ticks": 117792,
            "time": 162.87596775,
            "velocity": 0.7874015748031497
          },
          {
            "duration": 0.1327432500000043,
            "durationTicks": 96,
            "midi": 44,
            "name": "G#2",
            "ticks": 117984,
            "time": 163.14145425,
            "velocity": 0.7874015748031497
          },
          {
            "duration": 0.19911487499999225,
            "durationTicks": 144,
            "midi": 73,
            "name": "C#5",
            "ticks": 118080,
            "time": 163.2741975,
            "velocity": 0.7874015748031497
          },
          {
            "duration": 0.1327432500000043,
            "durationTicks": 96,
            "midi": 40,
            "name": "E2",
            "ticks": 118080,
            "time": 163.2741975,
            "velocity": 0.7874015748031497
          },
          {
            "duration": 0.19911487499999225,
            "durationTicks": 144,
            "midi": 68,
            "name": "G#4",
            "ticks": 118080,
            "time": 163.2741975,
            "velocity": 0.7874015748031497
          },
          {
            "duration": 0.1327432500000043,
            "durationTicks": 96,
            "midi": 71,
            "name": "B4",
            "ticks": 118176,
            "time": 163.40694075000002,
            "velocity": 0.7874015748031497
          },
          {
            "duration": 0.1327432500000043,
            "durationTicks": 96,
            "midi": 37,
            "name": "C#2",
            "ticks": 118176,
            "time": 163.40694075000002,
            "velocity": 0.7874015748031497
          },
          {
            "duration": 0.1327432500000043,
            "durationTicks": 96,
            "midi": 75,
            "name": "D#5",
            "ticks": 118176,
            "time": 163.40694075000002,
            "velocity": 0.7874015748031497
          },
          {
            "duration": 0.1327432500000043,
            "durationTicks": 96,
            "midi": 73,
            "name": "C#5",
            "ticks": 118224,
            "time": 163.473312375,
            "velocity": 0.5905511811023622
          },
          {
            "duration": 0.1327432500000043,
            "durationTicks": 96,
            "midi": 68,
            "name": "G#4",
            "ticks": 118224,
            "time": 163.473312375,
            "velocity": 0.5905511811023622
          },
          {
            "duration": 0.3982297499999845,
            "durationTicks": 288,
            "midi": 73,
            "name": "C#5",
            "ticks": 118272,
            "time": 163.53968400000002,
            "velocity": 0.7874015748031497
          },
          {
            "duration": 0.1327432499999759,
            "durationTicks": 96,
            "midi": 35,
            "name": "B1",
            "ticks": 118272,
            "time": 163.53968400000002,
            "velocity": 0.7874015748031497
          },
          {
            "duration": 0.3982297499999845,
            "durationTicks": 288,
            "midi": 76,
            "name": "E5",
            "ticks": 118272,
            "time": 163.53968400000002,
            "velocity": 0.7874015748031497
          },
          {
            "duration": 0.1327432500000043,
            "durationTicks": 96,
            "midi": 71,
            "name": "B4",
            "ticks": 118320,
            "time": 163.606055625,
            "velocity": 0.5905511811023622
          },
          {
            "duration": 0.1327432500000043,
            "durationTicks": 96,
            "midi": 75,
            "name": "D#5",
            "ticks": 118320,
            "time": 163.606055625,
            "velocity": 0.5905511811023622
          },
          {
            "duration": 0.1327432500000043,
            "durationTicks": 96,
            "midi": 39,
            "name": "D#2",
            "ticks": 118368,
            "time": 163.67242725,
            "velocity": 0.7874015748031497
          },
          {
            "duration": 0.3982297499999845,
            "durationTicks": 288,
            "midi": 73,
            "name": "C#5",
            "ticks": 118416,
            "time": 163.73879887500001,
            "velocity": 0.5905511811023622
          },
          {
            "duration": 0.3982297499999845,
            "durationTicks": 288,
            "midi": 76,
            "name": "E5",
            "ticks": 118416,
            "time": 163.73879887500001,
            "velocity": 0.5905511811023622
          },
          {
            "duration": 0.1327432500000043,
            "durationTicks": 96,
            "midi": 42,
            "name": "F#2",
            "ticks": 118464,
            "time": 163.8051705,
            "velocity": 0.7874015748031497
          },
          {
            "duration": 0.3982297500000129,
            "durationTicks": 288,
            "midi": 71,
            "name": "B4",
            "ticks": 118560,
            "time": 163.93791375,
            "velocity": 0.7874015748031497
          },
          {
            "duration": 0.3982297500000129,
            "durationTicks": 288,
            "midi": 75,
            "name": "D#5",
            "ticks": 118560,
            "time": 163.93791375,
            "velocity": 0.7874015748031497
          },
          {
            "duration": 0.2654865000000086,
            "durationTicks": 192,
            "midi": 47,
            "name": "B2",
            "ticks": 118560,
            "time": 163.93791375,
            "velocity": 0.7874015748031497
          },
          {
            "duration": 0.3982297500000129,
            "durationTicks": 288,
            "midi": 71,
            "name": "B4",
            "ticks": 118704,
            "time": 164.137028625,
            "velocity": 0.5905511811023622
          },
          {
            "duration": 0.3982297500000129,
            "durationTicks": 288,
            "midi": 75,
            "name": "D#5",
            "ticks": 118704,
            "time": 164.137028625,
            "velocity": 0.5905511811023622
          },
          {
            "duration": 0.1327432500000043,
            "durationTicks": 96,
            "midi": 42,
            "name": "F#2",
            "ticks": 118752,
            "time": 164.20340025000002,
            "velocity": 0.7874015748031497
          },
          {
            "duration": 0.1327432499999759,
            "durationTicks": 96,
            "midi": 39,
            "name": "D#2",
            "ticks": 118848,
            "time": 164.33614350000002,
            "velocity": 0.7874015748031497
          },
          {
            "duration": 0.2654864999999802,
            "durationTicks": 192,
            "midi": 71,
            "name": "B4",
            "ticks": 118848,
            "time": 164.33614350000002,
            "velocity": 0.7874015748031497
          },
          {
            "duration": 0.2654864999999802,
            "durationTicks": 192,
            "midi": 66,
            "name": "F#4",
            "ticks": 118848,
            "time": 164.33614350000002,
            "velocity": 0.7874015748031497
          },
          {
            "duration": 0.1327432500000043,
            "durationTicks": 96,
            "midi": 37,
            "name": "C#2",
            "ticks": 118944,
            "time": 164.46888675,
            "velocity": 0.7874015748031497
          },
          {
            "duration": 0.2654865000000086,
            "durationTicks": 192,
            "midi": 71,
            "name": "B4",
            "ticks": 118992,
            "time": 164.535258375,
            "velocity": 0.5905511811023622
          },
          {
            "duration": 0.2654865000000086,
            "durationTicks": 192,
            "midi": 66,
            "name": "F#4",
            "ticks": 118992,
            "time": 164.535258375,
            "velocity": 0.5905511811023622
          },
          {
            "duration": 0.7964594999999974,
            "durationTicks": 576,
            "midi": 68,
            "name": "G#4",
            "ticks": 119040,
            "time": 164.60163,
            "velocity": 0.7874015748031497
          },
          {
            "duration": 0.7964594999999974,
            "durationTicks": 576,
            "midi": 73,
            "name": "C#5",
            "ticks": 119040,
            "time": 164.60163,
            "velocity": 0.7874015748031497
          },
          {
            "duration": 0.1327432500000043,
            "durationTicks": 96,
            "midi": 35,
            "name": "B1",
            "ticks": 119040,
            "time": 164.60163,
            "velocity": 0.7874015748031497
          },
          {
            "duration": 0.1327432500000043,
            "durationTicks": 96,
            "midi": 39,
            "name": "D#2",
            "ticks": 119136,
            "time": 164.73437325,
            "velocity": 0.7874015748031497
          },
          {
            "duration": 0.7300878749999811,
            "durationTicks": 528,
            "midi": 73,
            "name": "C#5",
            "ticks": 119184,
            "time": 164.80074487500002,
            "velocity": 0.5905511811023622
          },
          {
            "duration": 0.7300878749999811,
            "durationTicks": 528,
            "midi": 68,
            "name": "G#4",
            "ticks": 119184,
            "time": 164.80074487500002,
            "velocity": 0.5905511811023622
          },
          {
            "duration": 0.1327432500000043,
            "durationTicks": 96,
            "midi": 42,
            "name": "F#2",
            "ticks": 119232,
            "time": 164.8671165,
            "velocity": 0.7874015748031497
          },
          {
            "duration": 0.2654865000000086,
            "durationTicks": 192,
            "midi": 47,
            "name": "B2",
            "ticks": 119328,
            "time": 164.99985975,
            "velocity": 0.7874015748031497
          },
          {
            "duration": 0.1327432499999759,
            "durationTicks": 96,
            "midi": 42,
            "name": "F#2",
            "ticks": 119520,
            "time": 165.26534625000002,
            "velocity": 0.7874015748031497
          },
          {
            "duration": 0.19911487500002067,
            "durationTicks": 144,
            "midi": 68,
            "name": "G#4",
            "ticks": 119616,
            "time": 165.3980895,
            "velocity": 0.7874015748031497
          },
          {
            "duration": 0.1327432500000043,
            "durationTicks": 96,
            "midi": 39,
            "name": "D#2",
            "ticks": 119616,
            "time": 165.3980895,
            "velocity": 0.7874015748031497
          },
          {
            "duration": 0.19911487500002067,
            "durationTicks": 144,
            "midi": 73,
            "name": "C#5",
            "ticks": 119616,
            "time": 165.3980895,
            "velocity": 0.7874015748031497
          },
          {
            "duration": 0.1327432500000043,
            "durationTicks": 96,
            "midi": 35,
            "name": "B1",
            "ticks": 119712,
            "time": 165.53083275,
            "velocity": 0.7874015748031497
          },
          {
            "duration": 0.1327432500000043,
            "durationTicks": 96,
            "midi": 71,
            "name": "B4",
            "ticks": 119712,
            "time": 165.53083275,
            "velocity": 0.7874015748031497
          },
          {
            "duration": 0.1327432500000043,
            "durationTicks": 96,
            "midi": 75,
            "name": "D#5",
            "ticks": 119712,
            "time": 165.53083275,
            "velocity": 0.7874015748031497
          },
          {
            "duration": 0.1327432500000043,
            "durationTicks": 96,
            "midi": 68,
            "name": "G#4",
            "ticks": 119760,
            "time": 165.59720437500002,
            "velocity": 0.5905511811023622
          },
          {
            "duration": 0.1327432500000043,
            "durationTicks": 96,
            "midi": 73,
            "name": "C#5",
            "ticks": 119760,
            "time": 165.59720437500002,
            "velocity": 0.5905511811023622
          },
          {
            "duration": 0.1327432500000043,
            "durationTicks": 96,
            "midi": 33,
            "name": "A1",
            "ticks": 119808,
            "time": 165.663576,
            "velocity": 0.7874015748031497
          },
          {
            "duration": 0.3982297500000129,
            "durationTicks": 288,
            "midi": 76,
            "name": "E5",
            "ticks": 119808,
            "time": 165.663576,
            "velocity": 0.7874015748031497
          },
          {
            "duration": 0.3982297500000129,
            "durationTicks": 288,
            "midi": 73,
            "name": "C#5",
            "ticks": 119808,
            "time": 165.663576,
            "velocity": 0.7874015748031497
          },
          {
            "duration": 0.1327432499999759,
            "durationTicks": 96,
            "midi": 71,
            "name": "B4",
            "ticks": 119856,
            "time": 165.72994762500002,
            "velocity": 0.5905511811023622
          },
          {
            "duration": 0.1327432499999759,
            "durationTicks": 96,
            "midi": 75,
            "name": "D#5",
            "ticks": 119856,
            "time": 165.72994762500002,
            "velocity": 0.5905511811023622
          },
          {
            "duration": 0.1327432500000043,
            "durationTicks": 96,
            "midi": 37,
            "name": "C#2",
            "ticks": 119904,
            "time": 165.79631925,
            "velocity": 0.7874015748031497
          },
          {
            "duration": 0.3982297500000129,
            "durationTicks": 288,
            "midi": 76,
            "name": "E5",
            "ticks": 119952,
            "time": 165.862690875,
            "velocity": 0.5905511811023622
          },
          {
            "duration": 0.3982297500000129,
            "durationTicks": 288,
            "midi": 73,
            "name": "C#5",
            "ticks": 119952,
            "time": 165.862690875,
            "velocity": 0.5905511811023622
          },
          {
            "duration": 0.1327432500000043,
            "durationTicks": 96,
            "midi": 40,
            "name": "E2",
            "ticks": 120000,
            "time": 165.92906250000001,
            "velocity": 0.7874015748031497
          },
          {
            "duration": 0.2654864999999802,
            "durationTicks": 192,
            "midi": 45,
            "name": "A2",
            "ticks": 120096,
            "time": 166.06180575000002,
            "velocity": 0.7874015748031497
          },
          {
            "duration": 0.3982297499999845,
            "durationTicks": 288,
            "midi": 75,
            "name": "D#5",
            "ticks": 120096,
            "time": 166.06180575000002,
            "velocity": 0.7874015748031497
          },
          {
            "duration": 0.3982297499999845,
            "durationTicks": 288,
            "midi": 71,
            "name": "B4",
            "ticks": 120096,
            "time": 166.06180575000002,
            "velocity": 0.7874015748031497
          },
          {
            "duration": 0.3982297499999845,
            "durationTicks": 288,
            "midi": 75,
            "name": "D#5",
            "ticks": 120240,
            "time": 166.260920625,
            "velocity": 0.5905511811023622
          },
          {
            "duration": 0.3982297499999845,
            "durationTicks": 288,
            "midi": 71,
            "name": "B4",
            "ticks": 120240,
            "time": 166.260920625,
            "velocity": 0.5905511811023622
          },
          {
            "duration": 0.1327432500000043,
            "durationTicks": 96,
            "midi": 44,
            "name": "G#2",
            "ticks": 120288,
            "time": 166.32729225,
            "velocity": 0.7874015748031497
          },
          {
            "duration": 0.2654865000000086,
            "durationTicks": 192,
            "midi": 71,
            "name": "B4",
            "ticks": 120384,
            "time": 166.4600355,
            "velocity": 0.7874015748031497
          },
          {
            "duration": 0.1327432500000043,
            "durationTicks": 96,
            "midi": 40,
            "name": "E2",
            "ticks": 120384,
            "time": 166.4600355,
            "velocity": 0.7874015748031497
          },
          {
            "duration": 0.2654865000000086,
            "durationTicks": 192,
            "midi": 66,
            "name": "F#4",
            "ticks": 120384,
            "time": 166.4600355,
            "velocity": 0.7874015748031497
          },
          {
            "duration": 0.1327432500000043,
            "durationTicks": 96,
            "midi": 37,
            "name": "C#2",
            "ticks": 120480,
            "time": 166.59277875,
            "velocity": 0.7874015748031497
          },
          {
            "duration": 0.2654865000000086,
            "durationTicks": 192,
            "midi": 66,
            "name": "F#4",
            "ticks": 120528,
            "time": 166.659150375,
            "velocity": 0.5905511811023622
          },
          {
            "duration": 0.2654865000000086,
            "durationTicks": 192,
            "midi": 71,
            "name": "B4",
            "ticks": 120528,
            "time": 166.659150375,
            "velocity": 0.5905511811023622
          },
          {
            "duration": 0.7964594999999974,
            "durationTicks": 576,
            "midi": 73,
            "name": "C#5",
            "ticks": 120576,
            "time": 166.725522,
            "velocity": 0.7874015748031497
          },
          {
            "duration": 0.7964594999999974,
            "durationTicks": 576,
            "midi": 68,
            "name": "G#4",
            "ticks": 120576,
            "time": 166.725522,
            "velocity": 0.7874015748031497
          },
          {
            "duration": 0.1327432500000043,
            "durationTicks": 96,
            "midi": 33,
            "name": "A1",
            "ticks": 120576,
            "time": 166.725522,
            "velocity": 0.7874015748031497
          },
          {
            "duration": 0.1327432500000043,
            "durationTicks": 96,
            "midi": 37,
            "name": "C#2",
            "ticks": 120672,
            "time": 166.85826525000002,
            "velocity": 0.7874015748031497
          },
          {
            "duration": 0.7300878750000095,
            "durationTicks": 528,
            "midi": 68,
            "name": "G#4",
            "ticks": 120720,
            "time": 166.924636875,
            "velocity": 0.5905511811023622
          },
          {
            "duration": 0.7300878750000095,
            "durationTicks": 528,
            "midi": 73,
            "name": "C#5",
            "ticks": 120720,
            "time": 166.924636875,
            "velocity": 0.5905511811023622
          },
          {
            "duration": 0.1327432499999759,
            "durationTicks": 96,
            "midi": 40,
            "name": "E2",
            "ticks": 120768,
            "time": 166.99100850000002,
            "velocity": 0.7874015748031497
          },
          {
            "duration": 0.2654865000000086,
            "durationTicks": 192,
            "midi": 45,
            "name": "A2",
            "ticks": 120864,
            "time": 167.12375175,
            "velocity": 0.7874015748031497
          },
          {
            "duration": 0.1327432500000043,
            "durationTicks": 96,
            "midi": 44,
            "name": "G#2",
            "ticks": 121056,
            "time": 167.38923825,
            "velocity": 0.7874015748031497
          },
          {
            "duration": 0.1327432500000043,
            "durationTicks": 96,
            "midi": 40,
            "name": "E2",
            "ticks": 121152,
            "time": 167.5219815,
            "velocity": 0.7874015748031497
          },
          {
            "duration": 0.19911487499999225,
            "durationTicks": 144,
            "midi": 68,
            "name": "G#4",
            "ticks": 121152,
            "time": 167.5219815,
            "velocity": 0.7874015748031497
          },
          {
            "duration": 0.19911487499999225,
            "durationTicks": 144,
            "midi": 73,
            "name": "C#5",
            "ticks": 121152,
            "time": 167.5219815,
            "velocity": 0.7874015748031497
          },
          {
            "duration": 0.1327432500000043,
            "durationTicks": 96,
            "midi": 75,
            "name": "D#5",
            "ticks": 121248,
            "time": 167.65472475,
            "velocity": 0.7874015748031497
          },
          {
            "duration": 0.1327432500000043,
            "durationTicks": 96,
            "midi": 37,
            "name": "C#2",
            "ticks": 121248,
            "time": 167.65472475,
            "velocity": 0.7874015748031497
          },
          {
            "duration": 0.1327432500000043,
            "durationTicks": 96,
            "midi": 71,
            "name": "B4",
            "ticks": 121248,
            "time": 167.65472475,
            "velocity": 0.7874015748031497
          },
          {
            "duration": 0.1327432500000043,
            "durationTicks": 96,
            "midi": 68,
            "name": "G#4",
            "ticks": 121296,
            "time": 167.721096375,
            "velocity": 0.5905511811023622
          },
          {
            "duration": 0.1327432500000043,
            "durationTicks": 96,
            "midi": 73,
            "name": "C#5",
            "ticks": 121296,
            "time": 167.721096375,
            "velocity": 0.5905511811023622
          },
          {
            "duration": 0.3982297499999845,
            "durationTicks": 288,
            "midi": 76,
            "name": "E5",
            "ticks": 121344,
            "time": 167.78746800000002,
            "velocity": 0.7874015748031497
          },
          {
            "duration": 0.3982297499999845,
            "durationTicks": 288,
            "midi": 73,
            "name": "C#5",
            "ticks": 121344,
            "time": 167.78746800000002,
            "velocity": 0.7874015748031497
          },
          {
            "duration": 0.1327432500000043,
            "durationTicks": 96,
            "midi": 35,
            "name": "B1",
            "ticks": 121344,
            "time": 167.78746800000002,
            "velocity": 0.7874015748031497
          },
          {
            "duration": 0.1327432500000043,
            "durationTicks": 96,
            "midi": 71,
            "name": "B4",
            "ticks": 121392,
            "time": 167.853839625,
            "velocity": 0.5905511811023622
          },
          {
            "duration": 0.1327432500000043,
            "durationTicks": 96,
            "midi": 75,
            "name": "D#5",
            "ticks": 121392,
            "time": 167.853839625,
            "velocity": 0.5905511811023622
          },
          {
            "duration": 0.1327432499999759,
            "durationTicks": 96,
            "midi": 39,
            "name": "D#2",
            "ticks": 121440,
            "time": 167.92021125000002,
            "velocity": 0.7874015748031497
          },
          {
            "duration": 0.3982297499999845,
            "durationTicks": 288,
            "midi": 73,
            "name": "C#5",
            "ticks": 121488,
            "time": 167.986582875,
            "velocity": 0.5905511811023622
          },
          {
            "duration": 0.3982297499999845,
            "durationTicks": 288,
            "midi": 76,
            "name": "E5",
            "ticks": 121488,
            "time": 167.986582875,
            "velocity": 0.5905511811023622
          },
          {
            "duration": 0.1327432500000043,
            "durationTicks": 96,
            "midi": 42,
            "name": "F#2",
            "ticks": 121536,
            "time": 168.0529545,
            "velocity": 0.7874015748031497
          },
          {
            "duration": 0.3982297500000129,
            "durationTicks": 288,
            "midi": 71,
            "name": "B4",
            "ticks": 121632,
            "time": 168.18569775,
            "velocity": 0.7874015748031497
          },
          {
            "duration": 0.3982297500000129,
            "durationTicks": 288,
            "midi": 75,
            "name": "D#5",
            "ticks": 121632,
            "time": 168.18569775,
            "velocity": 0.7874015748031497
          },
          {
            "duration": 0.2654865000000086,
            "durationTicks": 192,
            "midi": 47,
            "name": "B2",
            "ticks": 121632,
            "time": 168.18569775,
            "velocity": 0.7874015748031497
          },
          {
            "duration": 0.3982297500000129,
            "durationTicks": 288,
            "midi": 75,
            "name": "D#5",
            "ticks": 121776,
            "time": 168.384812625,
            "velocity": 0.5905511811023622
          },
          {
            "duration": 0.3982297500000129,
            "durationTicks": 288,
            "midi": 71,
            "name": "B4",
            "ticks": 121776,
            "time": 168.384812625,
            "velocity": 0.5905511811023622
          },
          {
            "duration": 0.1327432500000043,
            "durationTicks": 96,
            "midi": 42,
            "name": "F#2",
            "ticks": 121824,
            "time": 168.45118425,
            "velocity": 0.7874015748031497
          },
          {
            "duration": 0.2654864999999802,
            "durationTicks": 192,
            "midi": 71,
            "name": "B4",
            "ticks": 121920,
            "time": 168.58392750000002,
            "velocity": 0.7874015748031497
          },
          {
            "duration": 0.1327432500000043,
            "durationTicks": 96,
            "midi": 39,
            "name": "D#2",
            "ticks": 121920,
            "time": 168.58392750000002,
            "velocity": 0.7874015748031497
          },
          {
            "duration": 0.2654864999999802,
            "durationTicks": 192,
            "midi": 66,
            "name": "F#4",
            "ticks": 121920,
            "time": 168.58392750000002,
            "velocity": 0.7874015748031497
          },
          {
            "duration": 0.1327432499999759,
            "durationTicks": 96,
            "midi": 37,
            "name": "C#2",
            "ticks": 122016,
            "time": 168.71667075000002,
            "velocity": 0.7874015748031497
          },
          {
            "duration": 0.2654865000000086,
            "durationTicks": 192,
            "midi": 71,
            "name": "B4",
            "ticks": 122064,
            "time": 168.783042375,
            "velocity": 0.5905511811023622
          },
          {
            "duration": 0.2654865000000086,
            "durationTicks": 192,
            "midi": 66,
            "name": "F#4",
            "ticks": 122064,
            "time": 168.783042375,
            "velocity": 0.5905511811023622
          },
          {
            "duration": 0.7964595000000259,
            "durationTicks": 576,
            "midi": 68,
            "name": "G#4",
            "ticks": 122112,
            "time": 168.849414,
            "velocity": 0.7874015748031497
          },
          {
            "duration": 0.7964595000000259,
            "durationTicks": 576,
            "midi": 73,
            "name": "C#5",
            "ticks": 122112,
            "time": 168.849414,
            "velocity": 0.7874015748031497
          },
          {
            "duration": 0.1327432500000043,
            "durationTicks": 96,
            "midi": 35,
            "name": "B1",
            "ticks": 122112,
            "time": 168.849414,
            "velocity": 0.7874015748031497
          },
          {
            "duration": 0.1327432500000043,
            "durationTicks": 96,
            "midi": 39,
            "name": "D#2",
            "ticks": 122208,
            "time": 168.98215725,
            "velocity": 0.7874015748031497
          },
          {
            "duration": 0.7964594999999974,
            "durationTicks": 576,
            "midi": 68,
            "name": "G#4",
            "ticks": 122256,
            "time": 169.04852887500002,
            "velocity": 0.5905511811023622
          },
          {
            "duration": 0.7964594999999974,
            "durationTicks": 576,
            "midi": 73,
            "name": "C#5",
            "ticks": 122256,
            "time": 169.04852887500002,
            "velocity": 0.5905511811023622
          },
          {
            "duration": 0.1327432500000043,
            "durationTicks": 96,
            "midi": 42,
            "name": "F#2",
            "ticks": 122304,
            "time": 169.1149005,
            "velocity": 0.7874015748031497
          },
          {
            "duration": 0.2654865000000086,
            "durationTicks": 192,
            "midi": 47,
            "name": "B2",
            "ticks": 122400,
            "time": 169.24764375,
            "velocity": 0.7874015748031497
          },
          {
            "duration": 0.2654864999999802,
            "durationTicks": 192,
            "midi": 66,
            "name": "F#4",
            "ticks": 122688,
            "time": 169.64587350000002,
            "velocity": 0.7874015748031497
          },
          {
            "duration": 0.2654864999999802,
            "durationTicks": 192,
            "midi": 71,
            "name": "B4",
            "ticks": 122688,
            "time": 169.64587350000002,
            "velocity": 0.7874015748031497
          },
          {
            "duration": 0.2654864999999802,
            "durationTicks": 192,
            "midi": 44,
            "name": "G#2",
            "ticks": 122688,
            "time": 169.64587350000002,
            "velocity": 0.7874015748031497
          },
          {
            "duration": 0.2654865000000086,
            "durationTicks": 192,
            "midi": 71,
            "name": "B4",
            "ticks": 122832,
            "time": 169.844988375,
            "velocity": 0.5905511811023622
          },
          {
            "duration": 0.2654865000000086,
            "durationTicks": 192,
            "midi": 66,
            "name": "F#4",
            "ticks": 122832,
            "time": 169.844988375,
            "velocity": 0.5905511811023622
          },
          {
            "duration": 0.1327432500000043,
            "durationTicks": 96,
            "midi": 37,
            "name": "C#2",
            "ticks": 122880,
            "time": 169.91136,
            "velocity": 0.7874015748031497
          },
          {
            "duration": 4.247783999999996,
            "durationTicks": 3072,
            "midi": 73,
            "name": "C#5",
            "ticks": 122880,
            "time": 169.91136,
            "velocity": 0.7874015748031497
          },
          {
            "duration": 4.247783999999996,
            "durationTicks": 3072,
            "midi": 68,
            "name": "G#4",
            "ticks": 122880,
            "time": 169.91136,
            "velocity": 0.7874015748031497
          },
          {
            "duration": 0.1327432500000043,
            "durationTicks": 96,
            "midi": 42,
            "name": "F#2",
            "ticks": 122976,
            "time": 170.04410325,
            "velocity": 0.7874015748031497
          },
          {
            "duration": 4.247783999999996,
            "durationTicks": 3072,
            "midi": 73,
            "name": "C#5",
            "ticks": 123024,
            "time": 170.11047487500002,
            "velocity": 0.5905511811023622
          },
          {
            "duration": 4.247783999999996,
            "durationTicks": 3072,
            "midi": 68,
            "name": "G#4",
            "ticks": 123024,
            "time": 170.11047487500002,
            "velocity": 0.5905511811023622
          },
          {
            "duration": 0.1327432500000043,
            "durationTicks": 96,
            "midi": 44,
            "name": "G#2",
            "ticks": 123072,
            "time": 170.1768465,
            "velocity": 0.7874015748031497
          },
          {
            "duration": 0.1327432500000043,
            "durationTicks": 96,
            "midi": 32,
            "name": "G#1",
            "ticks": 123168,
            "time": 170.30958975000001,
            "velocity": 0.7874015748031497
          },
          {
            "duration": 0.1327432500000043,
            "durationTicks": 96,
            "midi": 42,
            "name": "F#2",
            "ticks": 123360,
            "time": 170.57507625,
            "velocity": 0.7874015748031497
          },
          {
            "duration": 0.1327432500000043,
            "durationTicks": 96,
            "midi": 35,
            "name": "B1",
            "ticks": 123456,
            "time": 170.7078195,
            "velocity": 0.7874015748031497
          },
          {
            "duration": 0.1327432500000043,
            "durationTicks": 96,
            "midi": 34,
            "name": "A#1",
            "ticks": 123648,
            "time": 170.973306,
            "velocity": 0.7874015748031497
          },
          {
            "duration": 0.1327432500000043,
            "durationTicks": 96,
            "midi": 37,
            "name": "C#2",
            "ticks": 123744,
            "time": 171.10604925,
            "velocity": 0.7874015748031497
          },
          {
            "duration": 0.1327432500000043,
            "durationTicks": 96,
            "midi": 42,
            "name": "F#2",
            "ticks": 123840,
            "time": 171.23879250000002,
            "velocity": 0.7874015748031497
          },
          {
            "duration": 0.1327432499999759,
            "durationTicks": 96,
            "midi": 30,
            "name": "F#1",
            "ticks": 123936,
            "time": 171.37153575000002,
            "velocity": 0.7874015748031497
          },
          {
            "duration": 0.1327432500000043,
            "durationTicks": 96,
            "midi": 40,
            "name": "E2",
            "ticks": 124128,
            "time": 171.63702225,
            "velocity": 0.7874015748031497
          },
          {
            "duration": 0.1327432500000043,
            "durationTicks": 96,
            "midi": 32,
            "name": "G#1",
            "ticks": 124224,
            "time": 171.7697655,
            "velocity": 0.7874015748031497
          },
          {
            "duration": 0.1327432500000043,
            "durationTicks": 96,
            "midi": 37,
            "name": "C#2",
            "ticks": 124416,
            "time": 172.035252,
            "velocity": 0.7874015748031497
          },
          {
            "duration": 0.1327432500000043,
            "durationTicks": 96,
            "midi": 42,
            "name": "F#2",
            "ticks": 124512,
            "time": 172.16799525000002,
            "velocity": 0.7874015748031497
          },
          {
            "duration": 0.1327432499999759,
            "durationTicks": 96,
            "midi": 44,
            "name": "G#2",
            "ticks": 124608,
            "time": 172.30073850000002,
            "velocity": 0.7874015748031497
          },
          {
            "duration": 0.1327432500000043,
            "durationTicks": 96,
            "midi": 32,
            "name": "G#1",
            "ticks": 124704,
            "time": 172.43348175,
            "velocity": 0.7874015748031497
          },
          {
            "duration": 0.1327432500000043,
            "durationTicks": 96,
            "midi": 42,
            "name": "F#2",
            "ticks": 124896,
            "time": 172.69896825,
            "velocity": 0.7874015748031497
          },
          {
            "duration": 0.1327432500000043,
            "durationTicks": 96,
            "midi": 35,
            "name": "B1",
            "ticks": 124992,
            "time": 172.8317115,
            "velocity": 0.7874015748031497
          },
          {
            "duration": 0.1327432499999759,
            "durationTicks": 96,
            "midi": 34,
            "name": "A#1",
            "ticks": 125184,
            "time": 173.09719800000002,
            "velocity": 0.7874015748031497
          },
          {
            "duration": 0.1327432500000043,
            "durationTicks": 96,
            "midi": 37,
            "name": "C#2",
            "ticks": 125280,
            "time": 173.22994125,
            "velocity": 0.7874015748031497
          },
          {
            "duration": 0.1327432500000043,
            "durationTicks": 96,
            "midi": 42,
            "name": "F#2",
            "ticks": 125376,
            "time": 173.3626845,
            "velocity": 0.7874015748031497
          },
          {
            "duration": 0.1327432500000043,
            "durationTicks": 96,
            "midi": 30,
            "name": "F#1",
            "ticks": 125472,
            "time": 173.49542775,
            "velocity": 0.7874015748031497
          },
          {
            "duration": 0.1327432500000043,
            "durationTicks": 96,
            "midi": 40,
            "name": "E2",
            "ticks": 125664,
            "time": 173.76091425,
            "velocity": 0.7874015748031497
          },
          {
            "duration": 0.1327432500000043,
            "durationTicks": 96,
            "midi": 32,
            "name": "G#1",
            "ticks": 125760,
            "time": 173.89365750000002,
            "velocity": 0.7874015748031497
          },
          {
            "duration": 0.1327432500000043,
            "durationTicks": 96,
            "midi": 37,
            "name": "C#2",
            "ticks": 125952,
            "time": 174.159144,
            "velocity": 0.7874015748031497
          }
        ],
        "endOfTrackTicks": 126096
      },
      {
        "channel": 9,
        "controlChanges": {},
        "pitchBends": [],
        "instrument": {
          "family": "drums",
          "number": 0,
          "name": "standard kit"
        },
        "name": "Electric Drum Kit",
        "notes": [
          {
            "duration": 0.26548649999999796,
            "durationTicks": 192,
            "midi": 36,
            "name": "C2",
            "ticks": 13824,
            "time": 19.115028000000002,
            "velocity": 0.7874015748031497
          },
          {
            "duration": 0.1327432499999972,
            "durationTicks": 96,
            "midi": 46,
            "name": "A#2",
            "ticks": 13824,
            "time": 19.115028000000002,
            "velocity": 0.7874015748031497
          },
          {
            "duration": 0.13274325000000076,
            "durationTicks": 96,
            "midi": 44,
            "name": "G#2",
            "ticks": 13920,
            "time": 19.24777125,
            "velocity": 0.7874015748031497
          },
          {
            "duration": 0.13274325000000076,
            "durationTicks": 96,
            "midi": 42,
            "name": "F#2",
            "ticks": 14016,
            "time": 19.3805145,
            "velocity": 0.7874015748031497
          },
          {
            "duration": 0.2654865000000015,
            "durationTicks": 192,
            "midi": 40,
            "name": "E2",
            "ticks": 14016,
            "time": 19.3805145,
            "velocity": 0.7874015748031497
          },
          {
            "duration": 0.13274325000000076,
            "durationTicks": 96,
            "midi": 44,
            "name": "G#2",
            "ticks": 14112,
            "time": 19.51325775,
            "velocity": 0.7874015748031497
          },
          {
            "duration": 0.26548649999999796,
            "durationTicks": 192,
            "midi": 36,
            "name": "C2",
            "ticks": 14208,
            "time": 19.646001000000002,
            "velocity": 0.7874015748031497
          },
          {
            "duration": 0.13274325000000076,
            "durationTicks": 96,
            "midi": 46,
            "name": "A#2",
            "ticks": 14208,
            "time": 19.646001000000002,
            "velocity": 0.7874015748031497
          },
          {
            "duration": 0.1327432499999972,
            "durationTicks": 96,
            "midi": 44,
            "name": "G#2",
            "ticks": 14304,
            "time": 19.778744250000003,
            "velocity": 0.7874015748031497
          },
          {
            "duration": 0.13274325000000076,
            "durationTicks": 96,
            "midi": 42,
            "name": "F#2",
            "ticks": 14400,
            "time": 19.9114875,
            "velocity": 0.7874015748031497
          },
          {
            "duration": 0.2654865000000015,
            "durationTicks": 192,
            "midi": 40,
            "name": "E2",
            "ticks": 14400,
            "time": 19.9114875,
            "velocity": 0.7874015748031497
          },
          {
            "duration": 0.13274325000000076,
            "durationTicks": 96,
            "midi": 44,
            "name": "G#2",
            "ticks": 14496,
            "time": 20.04423075,
            "velocity": 0.7874015748031497
          },
          {
            "duration": 0.2654865000000015,
            "durationTicks": 192,
            "midi": 36,
            "name": "C2",
            "ticks": 14592,
            "time": 20.176974,
            "velocity": 0.7874015748031497
          },
          {
            "duration": 0.13274325000000076,
            "durationTicks": 96,
            "midi": 46,
            "name": "A#2",
            "ticks": 14592,
            "time": 20.176974,
            "velocity": 0.7874015748031497
          },
          {
            "duration": 0.13274325000000076,
            "durationTicks": 96,
            "midi": 44,
            "name": "G#2",
            "ticks": 14688,
            "time": 20.309717250000002,
            "velocity": 0.7874015748031497
          },
          {
            "duration": 0.1327432499999972,
            "durationTicks": 96,
            "midi": 42,
            "name": "F#2",
            "ticks": 14784,
            "time": 20.442460500000003,
            "velocity": 0.7874015748031497
          },
          {
            "duration": 0.26548649999999796,
            "durationTicks": 192,
            "midi": 40,
            "name": "E2",
            "ticks": 14784,
            "time": 20.442460500000003,
            "velocity": 0.7874015748031497
          },
          {
            "duration": 0.13274325000000076,
            "durationTicks": 96,
            "midi": 44,
            "name": "G#2",
            "ticks": 14880,
            "time": 20.57520375,
            "velocity": 0.7874015748031497
          },
          {
            "duration": 0.2654865000000015,
            "durationTicks": 192,
            "midi": 36,
            "name": "C2",
            "ticks": 14976,
            "time": 20.707947,
            "velocity": 0.7874015748031497
          },
          {
            "duration": 0.13274325000000076,
            "durationTicks": 96,
            "midi": 46,
            "name": "A#2",
            "ticks": 14976,
            "time": 20.707947,
            "velocity": 0.7874015748031497
          },
          {
            "duration": 0.13274325000000076,
            "durationTicks": 96,
            "midi": 44,
            "name": "G#2",
            "ticks": 15072,
            "time": 20.84069025,
            "velocity": 0.7874015748031497
          },
          {
            "duration": 0.26548649999999796,
            "durationTicks": 192,
            "midi": 40,
            "name": "E2",
            "ticks": 15168,
            "time": 20.973433500000002,
            "velocity": 0.7874015748031497
          },
          {
            "duration": 0.1327432499999972,
            "durationTicks": 96,
            "midi": 42,
            "name": "F#2",
            "ticks": 15168,
            "time": 20.973433500000002,
            "velocity": 0.7874015748031497
          },
          {
            "duration": 0.13274325000000076,
            "durationTicks": 96,
            "midi": 44,
            "name": "G#2",
            "ticks": 15264,
            "time": 21.10617675,
            "velocity": 0.7874015748031497
          },
          {
            "duration": 0.2654865000000015,
            "durationTicks": 192,
            "midi": 36,
            "name": "C2",
            "ticks": 15360,
            "time": 21.23892,
            "velocity": 0.7874015748031497
          },
          {
            "duration": 0.13274325000000076,
            "durationTicks": 96,
            "midi": 46,
            "name": "A#2",
            "ticks": 15360,
            "time": 21.23892,
            "velocity": 0.7874015748031497
          },
          {
            "duration": 0.13274325000000076,
            "durationTicks": 96,
            "midi": 44,
            "name": "G#2",
            "ticks": 15456,
            "time": 21.37166325,
            "velocity": 0.7874015748031497
          },
          {
            "duration": 0.26548649999999796,
            "durationTicks": 192,
            "midi": 40,
            "name": "E2",
            "ticks": 15552,
            "time": 21.5044065,
            "velocity": 0.7874015748031497
          },
          {
            "duration": 0.13274325000000076,
            "durationTicks": 96,
            "midi": 42,
            "name": "F#2",
            "ticks": 15552,
            "time": 21.5044065,
            "velocity": 0.7874015748031497
          },
          {
            "duration": 0.1327432499999972,
            "durationTicks": 96,
            "midi": 44,
            "name": "G#2",
            "ticks": 15648,
            "time": 21.637149750000003,
            "velocity": 0.7874015748031497
          },
          {
            "duration": 0.13274325000000076,
            "durationTicks": 96,
            "midi": 46,
            "name": "A#2",
            "ticks": 15744,
            "time": 21.769893,
            "velocity": 0.7874015748031497
          },
          {
            "duration": 0.2654865000000015,
            "durationTicks": 192,
            "midi": 36,
            "name": "C2",
            "ticks": 15744,
            "time": 21.769893,
            "velocity": 0.7874015748031497
          },
          {
            "duration": 0.13274325000000076,
            "durationTicks": 96,
            "midi": 44,
            "name": "G#2",
            "ticks": 15840,
            "time": 21.90263625,
            "velocity": 0.7874015748031497
          },
          {
            "duration": 0.13274325000000076,
            "durationTicks": 96,
            "midi": 42,
            "name": "F#2",
            "ticks": 15936,
            "time": 22.0353795,
            "velocity": 0.7874015748031497
          },
          {
            "duration": 0.2654865000000015,
            "durationTicks": 192,
            "midi": 40,
            "name": "E2",
            "ticks": 15936,
            "time": 22.0353795,
            "velocity": 0.7874015748031497
          },
          {
            "duration": 0.13274325000000076,
            "durationTicks": 96,
            "midi": 44,
            "name": "G#2",
            "ticks": 16032,
            "time": 22.168122750000002,
            "velocity": 0.7874015748031497
          },
          {
            "duration": 0.1327432499999972,
            "durationTicks": 96,
            "midi": 46,
            "name": "A#2",
            "ticks": 16128,
            "time": 22.300866000000003,
            "velocity": 0.7874015748031497
          },
          {
            "duration": 0.26548649999999796,
            "durationTicks": 192,
            "midi": 36,
            "name": "C2",
            "ticks": 16128,
            "time": 22.300866000000003,
            "velocity": 0.7874015748031497
          },
          {
            "duration": 0.13274325000000076,
            "durationTicks": 96,
            "midi": 44,
            "name": "G#2",
            "ticks": 16224,
            "time": 22.43360925,
            "velocity": 0.7874015748031497
          },
          {
            "duration": 0.13274325000000076,
            "durationTicks": 96,
            "midi": 42,
            "name": "F#2",
            "ticks": 16320,
            "time": 22.5663525,
            "velocity": 0.7874015748031497
          },
          {
            "duration": 0.2654865000000015,
            "durationTicks": 192,
            "midi": 40,
            "name": "E2",
            "ticks": 16320,
            "time": 22.5663525,
            "velocity": 0.7874015748031497
          },
          {
            "duration": 0.13274325000000076,
            "durationTicks": 96,
            "midi": 44,
            "name": "G#2",
            "ticks": 16416,
            "time": 22.69909575,
            "velocity": 0.7874015748031497
          },
          {
            "duration": 0.13274325000000076,
            "durationTicks": 96,
            "midi": 46,
            "name": "A#2",
            "ticks": 16512,
            "time": 22.831839000000002,
            "velocity": 0.7874015748031497
          },
          {
            "duration": 0.26548649999999796,
            "durationTicks": 192,
            "midi": 36,
            "name": "C2",
            "ticks": 16512,
            "time": 22.831839000000002,
            "velocity": 0.7874015748031497
          },
          {
            "duration": 0.1327432499999972,
            "durationTicks": 96,
            "midi": 44,
            "name": "G#2",
            "ticks": 16608,
            "time": 22.964582250000003,
            "velocity": 0.7874015748031497
          },
          {
            "duration": 0.13274325000000076,
            "durationTicks": 96,
            "midi": 42,
            "name": "F#2",
            "ticks": 16704,
            "time": 23.0973255,
            "velocity": 0.7874015748031497
          },
          {
            "duration": 0.2654865000000015,
            "durationTicks": 192,
            "midi": 40,
            "name": "E2",
            "ticks": 16704,
            "time": 23.0973255,
            "velocity": 0.7874015748031497
          },
          {
            "duration": 0.13274325000000076,
            "durationTicks": 96,
            "midi": 44,
            "name": "G#2",
            "ticks": 16800,
            "time": 23.23006875,
            "velocity": 0.7874015748031497
          },
          {
            "duration": 0.26548649999999796,
            "durationTicks": 192,
            "midi": 36,
            "name": "C2",
            "ticks": 16896,
            "time": 23.362812,
            "velocity": 0.7874015748031497
          },
          {
            "duration": 0.13274325000000076,
            "durationTicks": 96,
            "midi": 46,
            "name": "A#2",
            "ticks": 16896,
            "time": 23.362812,
            "velocity": 0.7874015748031497
          },
          {
            "duration": 0.1327432499999972,
            "durationTicks": 96,
            "midi": 44,
            "name": "G#2",
            "ticks": 16992,
            "time": 23.495555250000002,
            "velocity": 0.7874015748031497
          },
          {
            "duration": 0.2654865000000015,
            "durationTicks": 192,
            "midi": 40,
            "name": "E2",
            "ticks": 17088,
            "time": 23.6282985,
            "velocity": 0.7874015748031497
          },
          {
            "duration": 0.13274325000000076,
            "durationTicks": 96,
            "midi": 42,
            "name": "F#2",
            "ticks": 17088,
            "time": 23.6282985,
            "velocity": 0.7874015748031497
          },
          {
            "duration": 0.13274325000000076,
            "durationTicks": 96,
            "midi": 44,
            "name": "G#2",
            "ticks": 17184,
            "time": 23.76104175,
            "velocity": 0.7874015748031497
          },
          {
            "duration": 0.2654865000000015,
            "durationTicks": 192,
            "midi": 36,
            "name": "C2",
            "ticks": 17280,
            "time": 23.893785,
            "velocity": 0.7874015748031497
          },
          {
            "duration": 0.13274325000000076,
            "durationTicks": 96,
            "midi": 46,
            "name": "A#2",
            "ticks": 17280,
            "time": 23.893785,
            "velocity": 0.7874015748031497
          },
          {
            "duration": 0.13274325000000076,
            "durationTicks": 96,
            "midi": 44,
            "name": "G#2",
            "ticks": 17376,
            "time": 24.026528250000002,
            "velocity": 0.7874015748031497
          },
          {
            "duration": 0.26548649999999796,
            "durationTicks": 192,
            "midi": 40,
            "name": "E2",
            "ticks": 17472,
            "time": 24.159271500000003,
            "velocity": 0.7874015748031497
          },
          {
            "duration": 0.1327432499999972,
            "durationTicks": 96,
            "midi": 42,
            "name": "F#2",
            "ticks": 17472,
            "time": 24.159271500000003,
            "velocity": 0.7874015748031497
          },
          {
            "duration": 0.13274325000000076,
            "durationTicks": 96,
            "midi": 44,
            "name": "G#2",
            "ticks": 17568,
            "time": 24.29201475,
            "velocity": 0.7874015748031497
          },
          {
            "duration": 0.13274325000000076,
            "durationTicks": 96,
            "midi": 46,
            "name": "A#2",
            "ticks": 17664,
            "time": 24.424758,
            "velocity": 0.7874015748031497
          },
          {
            "duration": 0.2654865000000015,
            "durationTicks": 192,
            "midi": 36,
            "name": "C2",
            "ticks": 17664,
            "time": 24.424758,
            "velocity": 0.7874015748031497
          },
          {
            "duration": 0.13274325000000076,
            "durationTicks": 96,
            "midi": 44,
            "name": "G#2",
            "ticks": 17760,
            "time": 24.55750125,
            "velocity": 0.7874015748031497
          },
          {
            "duration": 0.13274325000000076,
            "durationTicks": 96,
            "midi": 42,
            "name": "F#2",
            "ticks": 17856,
            "time": 24.690244500000002,
            "velocity": 0.7874015748031497
          },
          {
            "duration": 0.26548649999999796,
            "durationTicks": 192,
            "midi": 40,
            "name": "E2",
            "ticks": 17856,
            "time": 24.690244500000002,
            "velocity": 0.7874015748031497
          },
          {
            "duration": 0.1327432499999972,
            "durationTicks": 96,
            "midi": 44,
            "name": "G#2",
            "ticks": 17952,
            "time": 24.822987750000003,
            "velocity": 0.7874015748031497
          },
          {
            "duration": 0.13274325000000076,
            "durationTicks": 96,
            "midi": 46,
            "name": "A#2",
            "ticks": 18048,
            "time": 24.955731,
            "velocity": 0.7874015748031497
          },
          {
            "duration": 0.2654865000000015,
            "durationTicks": 192,
            "midi": 36,
            "name": "C2",
            "ticks": 18048,
            "time": 24.955731,
            "velocity": 0.7874015748031497
          },
          {
            "duration": 0.13274325000000076,
            "durationTicks": 96,
            "midi": 44,
            "name": "G#2",
            "ticks": 18144,
            "time": 25.08847425,
            "velocity": 0.7874015748031497
          },
          {
            "duration": 0.13274325000000076,
            "durationTicks": 96,
            "midi": 42,
            "name": "F#2",
            "ticks": 18240,
            "time": 25.2212175,
            "velocity": 0.7874015748031497
          },
          {
            "duration": 0.2654865000000015,
            "durationTicks": 192,
            "midi": 40,
            "name": "E2",
            "ticks": 18240,
            "time": 25.2212175,
            "velocity": 0.7874015748031497
          },
          {
            "duration": 0.13274325000000076,
            "durationTicks": 96,
            "midi": 44,
            "name": "G#2",
            "ticks": 18336,
            "time": 25.353960750000002,
            "velocity": 0.7874015748031497
          },
          {
            "duration": 0.1327432499999972,
            "durationTicks": 96,
            "midi": 46,
            "name": "A#2",
            "ticks": 18432,
            "time": 25.486704000000003,
            "velocity": 0.7874015748031497
          },
          {
            "duration": 0.26548649999999796,
            "durationTicks": 192,
            "midi": 36,
            "name": "C2",
            "ticks": 18432,
            "time": 25.486704000000003,
            "velocity": 0.7874015748031497
          },
          {
            "duration": 0.13274325000000076,
            "durationTicks": 96,
            "midi": 44,
            "name": "G#2",
            "ticks": 18528,
            "time": 25.61944725,
            "velocity": 0.7874015748031497
          },
          {
            "duration": 0.13274325000000076,
            "durationTicks": 96,
            "midi": 42,
            "name": "F#2",
            "ticks": 18624,
            "time": 25.7521905,
            "velocity": 0.7874015748031497
          },
          {
            "duration": 0.2654865000000015,
            "durationTicks": 192,
            "midi": 40,
            "name": "E2",
            "ticks": 18624,
            "time": 25.7521905,
            "velocity": 0.7874015748031497
          },
          {
            "duration": 0.13274325000000076,
            "durationTicks": 96,
            "midi": 44,
            "name": "G#2",
            "ticks": 18720,
            "time": 25.884933750000002,
            "velocity": 0.7874015748031497
          },
          {
            "duration": 0.1327432499999972,
            "durationTicks": 96,
            "midi": 46,
            "name": "A#2",
            "ticks": 18816,
            "time": 26.017677000000003,
            "velocity": 0.7874015748031497
          },
          {
            "duration": 0.26548649999999796,
            "durationTicks": 192,
            "midi": 36,
            "name": "C2",
            "ticks": 18816,
            "time": 26.017677000000003,
            "velocity": 0.7874015748031497
          },
          {
            "duration": 0.13274325000000076,
            "durationTicks": 96,
            "midi": 44,
            "name": "G#2",
            "ticks": 18912,
            "time": 26.15042025,
            "velocity": 0.7874015748031497
          },
          {
            "duration": 0.2654865000000015,
            "durationTicks": 192,
            "midi": 40,
            "name": "E2",
            "ticks": 19008,
            "time": 26.2831635,
            "velocity": 0.7874015748031497
          },
          {
            "duration": 0.13274325000000076,
            "durationTicks": 96,
            "midi": 42,
            "name": "F#2",
            "ticks": 19008,
            "time": 26.2831635,
            "velocity": 0.7874015748031497
          },
          {
            "duration": 0.13274325000000076,
            "durationTicks": 96,
            "midi": 44,
            "name": "G#2",
            "ticks": 19104,
            "time": 26.41590675,
            "velocity": 0.7874015748031497
          },
          {
            "duration": 0.13274325000000076,
            "durationTicks": 96,
            "midi": 46,
            "name": "A#2",
            "ticks": 19200,
            "time": 26.548650000000002,
            "velocity": 0.7874015748031497
          },
          {
            "duration": 0.13274325000000076,
            "durationTicks": 96,
            "midi": 46,
            "name": "A#2",
            "ticks": 19584,
            "time": 27.079623,
            "velocity": 0.7874015748031497
          },
          {
            "duration": 0.2654865000000015,
            "durationTicks": 192,
            "midi": 36,
            "name": "C2",
            "ticks": 19968,
            "time": 27.610596,
            "velocity": 0.7874015748031497
          },
          {
            "duration": 0.13274325000000076,
            "durationTicks": 96,
            "midi": 46,
            "name": "A#2",
            "ticks": 19968,
            "time": 27.610596,
            "velocity": 0.7874015748031497
          },
          {
            "duration": 0.13274325000000076,
            "durationTicks": 96,
            "midi": 44,
            "name": "G#2",
            "ticks": 20064,
            "time": 27.743339250000002,
            "velocity": 0.7874015748031497
          },
          {
            "duration": 0.26548649999999796,
            "durationTicks": 192,
            "midi": 40,
            "name": "E2",
            "ticks": 20160,
            "time": 27.876082500000003,
            "velocity": 0.7874015748031497
          },
          {
            "duration": 0.1327432499999972,
            "durationTicks": 96,
            "midi": 42,
            "name": "F#2",
            "ticks": 20160,
            "time": 27.876082500000003,
            "velocity": 0.7874015748031497
          },
          {
            "duration": 0.13274325000000076,
            "durationTicks": 96,
            "midi": 44,
            "name": "G#2",
            "ticks": 20256,
            "time": 28.00882575,
            "velocity": 0.7874015748031497
          },
          {
            "duration": 0.13274325000000076,
            "durationTicks": 96,
            "midi": 46,
            "name": "A#2",
            "ticks": 20352,
            "time": 28.141569,
            "velocity": 0.7874015748031497
          },
          {
            "duration": 0.2654865000000015,
            "durationTicks": 192,
            "midi": 36,
            "name": "C2",
            "ticks": 20352,
            "time": 28.141569,
            "velocity": 0.7874015748031497
          },
          {
            "duration": 0.13274325000000076,
            "durationTicks": 96,
            "midi": 44,
            "name": "G#2",
            "ticks": 20448,
            "time": 28.27431225,
            "velocity": 0.7874015748031497
          },
          {
            "duration": 0.26548649999999796,
            "durationTicks": 192,
            "midi": 40,
            "name": "E2",
            "ticks": 20544,
            "time": 28.407055500000002,
            "velocity": 0.7874015748031497
          },
          {
            "duration": 0.13274325000000076,
            "durationTicks": 96,
            "midi": 42,
            "name": "F#2",
            "ticks": 20544,
            "time": 28.407055500000002,
            "velocity": 0.7874015748031497
          },
          {
            "duration": 0.1327432499999972,
            "durationTicks": 96,
            "midi": 44,
            "name": "G#2",
            "ticks": 20640,
            "time": 28.539798750000003,
            "velocity": 0.7874015748031497
          },
          {
            "duration": 0.2654865000000015,
            "durationTicks": 192,
            "midi": 36,
            "name": "C2",
            "ticks": 20736,
            "time": 28.672542,
            "velocity": 0.7874015748031497
          },
          {
            "duration": 0.13274325000000076,
            "durationTicks": 96,
            "midi": 46,
            "name": "A#2",
            "ticks": 20736,
            "time": 28.672542,
            "velocity": 0.7874015748031497
          },
          {
            "duration": 0.13274325000000076,
            "durationTicks": 96,
            "midi": 44,
            "name": "G#2",
            "ticks": 20832,
            "time": 28.80528525,
            "velocity": 0.7874015748031497
          },
          {
            "duration": 0.13274325000000076,
            "durationTicks": 96,
            "midi": 42,
            "name": "F#2",
            "ticks": 20928,
            "time": 28.9380285,
            "velocity": 0.7874015748031497
          },
          {
            "duration": 0.2654865000000015,
            "durationTicks": 192,
            "midi": 40,
            "name": "E2",
            "ticks": 20928,
            "time": 28.9380285,
            "velocity": 0.7874015748031497
          },
          {
            "duration": 0.13274325000000076,
            "durationTicks": 96,
            "midi": 44,
            "name": "G#2",
            "ticks": 21024,
            "time": 29.070771750000002,
            "velocity": 0.7874015748031497
          },
          {
            "duration": 0.26548649999999796,
            "durationTicks": 192,
            "midi": 36,
            "name": "C2",
            "ticks": 21120,
            "time": 29.203515000000003,
            "velocity": 0.7874015748031497
          },
          {
            "duration": 0.1327432499999972,
            "durationTicks": 96,
            "midi": 46,
            "name": "A#2",
            "ticks": 21120,
            "time": 29.203515000000003,
            "velocity": 0.7874015748031497
          },
          {
            "duration": 0.13274325000000076,
            "durationTicks": 96,
            "midi": 44,
            "name": "G#2",
            "ticks": 21216,
            "time": 29.33625825,
            "velocity": 0.7874015748031497
          },
          {
            "duration": 0.2654865000000015,
            "durationTicks": 192,
            "midi": 40,
            "name": "E2",
            "ticks": 21312,
            "time": 29.4690015,
            "velocity": 0.7874015748031497
          },
          {
            "duration": 0.13274325000000076,
            "durationTicks": 96,
            "midi": 42,
            "name": "F#2",
            "ticks": 21312,
            "time": 29.4690015,
            "velocity": 0.7874015748031497
          },
          {
            "duration": 0.13274325000000076,
            "durationTicks": 96,
            "midi": 44,
            "name": "G#2",
            "ticks": 21408,
            "time": 29.60174475,
            "velocity": 0.7874015748031497
          },
          {
            "duration": 0.13274325000000076,
            "durationTicks": 96,
            "midi": 46,
            "name": "A#2",
            "ticks": 21504,
            "time": 29.734488000000002,
            "velocity": 0.7874015748031497
          },
          {
            "duration": 0.26548649999999796,
            "durationTicks": 192,
            "midi": 36,
            "name": "C2",
            "ticks": 21504,
            "time": 29.734488000000002,
            "velocity": 0.7874015748031497
          },
          {
            "duration": 0.1327432499999972,
            "durationTicks": 96,
            "midi": 44,
            "name": "G#2",
            "ticks": 21600,
            "time": 29.867231250000003,
            "velocity": 0.7874015748031497
          },
          {
            "duration": 0.13274325000000076,
            "durationTicks": 96,
            "midi": 42,
            "name": "F#2",
            "ticks": 21696,
            "time": 29.9999745,
            "velocity": 0.7874015748031497
          },
          {
            "duration": 0.2654865000000015,
            "durationTicks": 192,
            "midi": 40,
            "name": "E2",
            "ticks": 21696,
            "time": 29.9999745,
            "velocity": 0.7874015748031497
          },
          {
            "duration": 0.13274325000000076,
            "durationTicks": 96,
            "midi": 44,
            "name": "G#2",
            "ticks": 21792,
            "time": 30.13271775,
            "velocity": 0.7874015748031497
          },
          {
            "duration": 0.26548649999999796,
            "durationTicks": 192,
            "midi": 36,
            "name": "C2",
            "ticks": 21888,
            "time": 30.265461000000002,
            "velocity": 0.7874015748031497
          },
          {
            "duration": 0.13274325000000076,
            "durationTicks": 96,
            "midi": 46,
            "name": "A#2",
            "ticks": 21888,
            "time": 30.265461000000002,
            "velocity": 0.7874015748031497
          },
          {
            "duration": 0.1327432499999972,
            "durationTicks": 96,
            "midi": 44,
            "name": "G#2",
            "ticks": 21984,
            "time": 30.398204250000003,
            "velocity": 0.7874015748031497
          },
          {
            "duration": 0.2654865000000015,
            "durationTicks": 192,
            "midi": 40,
            "name": "E2",
            "ticks": 22080,
            "time": 30.5309475,
            "velocity": 0.7874015748031497
          },
          {
            "duration": 0.13274325000000076,
            "durationTicks": 96,
            "midi": 42,
            "name": "F#2",
            "ticks": 22080,
            "time": 30.5309475,
            "velocity": 0.7874015748031497
          },
          {
            "duration": 0.13274325000000076,
            "durationTicks": 96,
            "midi": 44,
            "name": "G#2",
            "ticks": 22176,
            "time": 30.66369075,
            "velocity": 0.7874015748031497
          },
          {
            "duration": 0.13274325000000076,
            "durationTicks": 96,
            "midi": 46,
            "name": "A#2",
            "ticks": 22272,
            "time": 30.796434,
            "velocity": 0.7874015748031497
          },
          {
            "duration": 0.2654865000000015,
            "durationTicks": 192,
            "midi": 36,
            "name": "C2",
            "ticks": 22272,
            "time": 30.796434,
            "velocity": 0.7874015748031497
          },
          {
            "duration": 0.13274325000000076,
            "durationTicks": 96,
            "midi": 44,
            "name": "G#2",
            "ticks": 22368,
            "time": 30.929177250000002,
            "velocity": 0.7874015748031497
          },
          {
            "duration": 0.1327432499999972,
            "durationTicks": 96,
            "midi": 42,
            "name": "F#2",
            "ticks": 22464,
            "time": 31.061920500000003,
            "velocity": 0.7874015748031497
          },
          {
            "duration": 0.26548649999999796,
            "durationTicks": 192,
            "midi": 40,
            "name": "E2",
            "ticks": 22464,
            "time": 31.061920500000003,
            "velocity": 0.7874015748031497
          },
          {
            "duration": 0.13274325000000076,
            "durationTicks": 96,
            "midi": 44,
            "name": "G#2",
            "ticks": 22560,
            "time": 31.19466375,
            "velocity": 0.7874015748031497
          },
          {
            "duration": 0.2654865000000015,
            "durationTicks": 192,
            "midi": 36,
            "name": "C2",
            "ticks": 22656,
            "time": 31.327407,
            "velocity": 0.7874015748031497
          },
          {
            "duration": 0.13274325000000076,
            "durationTicks": 96,
            "midi": 46,
            "name": "A#2",
            "ticks": 22656,
            "time": 31.327407,
            "velocity": 0.7874015748031497
          },
          {
            "duration": 0.13274325000000076,
            "durationTicks": 96,
            "midi": 44,
            "name": "G#2",
            "ticks": 22752,
            "time": 31.46015025,
            "velocity": 0.7874015748031497
          },
          {
            "duration": 0.26548649999999796,
            "durationTicks": 192,
            "midi": 40,
            "name": "E2",
            "ticks": 22848,
            "time": 31.592893500000002,
            "velocity": 0.7874015748031497
          },
          {
            "duration": 0.13274325000000076,
            "durationTicks": 96,
            "midi": 42,
            "name": "F#2",
            "ticks": 22848,
            "time": 31.592893500000002,
            "velocity": 0.7874015748031497
          },
          {
            "duration": 0.1327432499999972,
            "durationTicks": 96,
            "midi": 44,
            "name": "G#2",
            "ticks": 22944,
            "time": 31.725636750000003,
            "velocity": 0.7874015748031497
          },
          {
            "duration": 0.13274325000000076,
            "durationTicks": 96,
            "midi": 46,
            "name": "A#2",
            "ticks": 23040,
            "time": 31.85838,
            "velocity": 0.7874015748031497
          },
          {
            "duration": 0.26548649999999796,
            "durationTicks": 192,
            "midi": 36,
            "name": "C2",
            "ticks": 23040,
            "time": 31.85838,
            "velocity": 0.7874015748031497
          },
          {
            "duration": 0.1327432499999972,
            "durationTicks": 96,
            "midi": 44,
            "name": "G#2",
            "ticks": 23136,
            "time": 31.99112325,
            "velocity": 0.7874015748031497
          },
          {
            "duration": 0.2654865000000015,
            "durationTicks": 192,
            "midi": 40,
            "name": "E2",
            "ticks": 23232,
            "time": 32.1238665,
            "velocity": 0.7874015748031497
          },
          {
            "duration": 0.1327432500000043,
            "durationTicks": 96,
            "midi": 42,
            "name": "F#2",
            "ticks": 23232,
            "time": 32.1238665,
            "velocity": 0.7874015748031497
          },
          {
            "duration": 0.1327432499999972,
            "durationTicks": 96,
            "midi": 44,
            "name": "G#2",
            "ticks": 23328,
            "time": 32.25660975,
            "velocity": 0.7874015748031497
          },
          {
            "duration": 0.2654865000000015,
            "durationTicks": 192,
            "midi": 36,
            "name": "C2",
            "ticks": 23424,
            "time": 32.389353,
            "velocity": 0.7874015748031497
          },
          {
            "duration": 0.1327432500000043,
            "durationTicks": 96,
            "midi": 46,
            "name": "A#2",
            "ticks": 23424,
            "time": 32.389353,
            "velocity": 0.7874015748031497
          },
          {
            "duration": 0.1327432499999972,
            "durationTicks": 96,
            "midi": 44,
            "name": "G#2",
            "ticks": 23520,
            "time": 32.522096250000004,
            "velocity": 0.7874015748031497
          },
          {
            "duration": 0.2654865000000015,
            "durationTicks": 192,
            "midi": 40,
            "name": "E2",
            "ticks": 23616,
            "time": 32.6548395,
            "velocity": 0.7874015748031497
          },
          {
            "duration": 0.1327432499999972,
            "durationTicks": 96,
            "midi": 42,
            "name": "F#2",
            "ticks": 23616,
            "time": 32.6548395,
            "velocity": 0.7874015748031497
          },
          {
            "duration": 0.1327432500000043,
            "durationTicks": 96,
            "midi": 44,
            "name": "G#2",
            "ticks": 23712,
            "time": 32.78758275,
            "velocity": 0.7874015748031497
          },
          {
            "duration": 0.2654865000000015,
            "durationTicks": 192,
            "midi": 36,
            "name": "C2",
            "ticks": 23808,
            "time": 32.920326,
            "velocity": 0.7874015748031497
          },
          {
            "duration": 0.1327432499999972,
            "durationTicks": 96,
            "midi": 46,
            "name": "A#2",
            "ticks": 23808,
            "time": 32.920326,
            "velocity": 0.7874015748031497
          },
          {
            "duration": 0.1327432500000043,
            "durationTicks": 96,
            "midi": 44,
            "name": "G#2",
            "ticks": 23904,
            "time": 33.05306925,
            "velocity": 0.7874015748031497
          },
          {
            "duration": 0.2654864999999944,
            "durationTicks": 192,
            "midi": 40,
            "name": "E2",
            "ticks": 24000,
            "time": 33.185812500000004,
            "velocity": 0.7874015748031497
          },
          {
            "duration": 0.1327432499999972,
            "durationTicks": 96,
            "midi": 42,
            "name": "F#2",
            "ticks": 24000,
            "time": 33.185812500000004,
            "velocity": 0.7874015748031497
          },
          {
            "duration": 0.1327432499999972,
            "durationTicks": 96,
            "midi": 44,
            "name": "G#2",
            "ticks": 24096,
            "time": 33.31855575,
            "velocity": 0.7874015748031497
          },
          {
            "duration": 0.2654865000000015,
            "durationTicks": 192,
            "midi": 36,
            "name": "C2",
            "ticks": 24192,
            "time": 33.451299,
            "velocity": 0.7874015748031497
          },
          {
            "duration": 0.1327432500000043,
            "durationTicks": 96,
            "midi": 46,
            "name": "A#2",
            "ticks": 24192,
            "time": 33.451299,
            "velocity": 0.7874015748031497
          },
          {
            "duration": 0.1327432499999972,
            "durationTicks": 96,
            "midi": 44,
            "name": "G#2",
            "ticks": 24288,
            "time": 33.58404225,
            "velocity": 0.7874015748031497
          },
          {
            "duration": 0.1327432500000043,
            "durationTicks": 96,
            "midi": 42,
            "name": "F#2",
            "ticks": 24384,
            "time": 33.7167855,
            "velocity": 0.7874015748031497
          },
          {
            "duration": 0.2654865000000015,
            "durationTicks": 192,
            "midi": 40,
            "name": "E2",
            "ticks": 24384,
            "time": 33.7167855,
            "velocity": 0.7874015748031497
          },
          {
            "duration": 0.1327432499999972,
            "durationTicks": 96,
            "midi": 44,
            "name": "G#2",
            "ticks": 24480,
            "time": 33.849528750000005,
            "velocity": 0.7874015748031497
          },
          {
            "duration": 0.1327432499999972,
            "durationTicks": 96,
            "midi": 46,
            "name": "A#2",
            "ticks": 24576,
            "time": 33.982272,
            "velocity": 0.7874015748031497
          },
          {
            "duration": 0.2654865000000015,
            "durationTicks": 192,
            "midi": 36,
            "name": "C2",
            "ticks": 24576,
            "time": 33.982272,
            "velocity": 0.7874015748031497
          },
          {
            "duration": 0.1327432500000043,
            "durationTicks": 96,
            "midi": 44,
            "name": "G#2",
            "ticks": 24672,
            "time": 34.11501525,
            "velocity": 0.7874015748031497
          },
          {
            "duration": 0.1327432499999972,
            "durationTicks": 96,
            "midi": 42,
            "name": "F#2",
            "ticks": 24768,
            "time": 34.2477585,
            "velocity": 0.7874015748031497
          },
          {
            "duration": 0.2654865000000015,
            "durationTicks": 192,
            "midi": 40,
            "name": "E2",
            "ticks": 24768,
            "time": 34.2477585,
            "velocity": 0.7874015748031497
          },
          {
            "duration": 0.1327432500000043,
            "durationTicks": 96,
            "midi": 44,
            "name": "G#2",
            "ticks": 24864,
            "time": 34.38050175,
            "velocity": 0.7874015748031497
          },
          {
            "duration": 0.1327432499999972,
            "durationTicks": 96,
            "midi": 46,
            "name": "A#2",
            "ticks": 24960,
            "time": 34.513245000000005,
            "velocity": 0.7874015748031497
          },
          {
            "duration": 0.2654864999999944,
            "durationTicks": 192,
            "midi": 36,
            "name": "C2",
            "ticks": 24960,
            "time": 34.513245000000005,
            "velocity": 0.7874015748031497
          },
          {
            "duration": 0.1327432499999972,
            "durationTicks": 96,
            "midi": 44,
            "name": "G#2",
            "ticks": 25056,
            "time": 34.64598825,
            "velocity": 0.7874015748031497
          },
          {
            "duration": 0.2654865000000015,
            "durationTicks": 192,
            "midi": 40,
            "name": "E2",
            "ticks": 25152,
            "time": 34.7787315,
            "velocity": 0.7874015748031497
          },
          {
            "duration": 0.1327432500000043,
            "durationTicks": 96,
            "midi": 42,
            "name": "F#2",
            "ticks": 25152,
            "time": 34.7787315,
            "velocity": 0.7874015748031497
          },
          {
            "duration": 0.1327432499999972,
            "durationTicks": 96,
            "midi": 44,
            "name": "G#2",
            "ticks": 25248,
            "time": 34.911474750000004,
            "velocity": 0.7874015748031497
          },
          {
            "duration": 0.1327432500000043,
            "durationTicks": 96,
            "midi": 46,
            "name": "A#2",
            "ticks": 26112,
            "time": 36.106164,
            "velocity": 0.7874015748031497
          },
          {
            "duration": 0.2654865000000015,
            "durationTicks": 192,
            "midi": 36,
            "name": "C2",
            "ticks": 26112,
            "time": 36.106164,
            "velocity": 0.7874015748031497
          },
          {
            "duration": 0.1327432499999972,
            "durationTicks": 96,
            "midi": 44,
            "name": "G#2",
            "ticks": 26208,
            "time": 36.238907250000004,
            "velocity": 0.7874015748031497
          },
          {
            "duration": 0.1327432499999972,
            "durationTicks": 96,
            "midi": 42,
            "name": "F#2",
            "ticks": 26304,
            "time": 36.3716505,
            "velocity": 0.7874015748031497
          },
          {
            "duration": 0.2654865000000015,
            "durationTicks": 192,
            "midi": 40,
            "name": "E2",
            "ticks": 26304,
            "time": 36.3716505,
            "velocity": 0.7874015748031497
          },
          {
            "duration": 0.1327432500000043,
            "durationTicks": 96,
            "midi": 44,
            "name": "G#2",
            "ticks": 26400,
            "time": 36.50439375,
            "velocity": 0.7874015748031497
          },
          {
            "duration": 0.1327432499999972,
            "durationTicks": 96,
            "midi": 46,
            "name": "A#2",
            "ticks": 26496,
            "time": 36.637137,
            "velocity": 0.7874015748031497
          },
          {
            "duration": 0.2654865000000015,
            "durationTicks": 192,
            "midi": 36,
            "name": "C2",
            "ticks": 26496,
            "time": 36.637137,
            "velocity": 0.7874015748031497
          },
          {
            "duration": 0.1327432500000043,
            "durationTicks": 96,
            "midi": 44,
            "name": "G#2",
            "ticks": 26592,
            "time": 36.76988025,
            "velocity": 0.7874015748031497
          },
          {
            "duration": 0.1327432499999972,
            "durationTicks": 96,
            "midi": 42,
            "name": "F#2",
            "ticks": 26688,
            "time": 36.902623500000004,
            "velocity": 0.7874015748031497
          },
          {
            "duration": 0.2654864999999944,
            "durationTicks": 192,
            "midi": 40,
            "name": "E2",
            "ticks": 26688,
            "time": 36.902623500000004,
            "velocity": 0.7874015748031497
          },
          {
            "duration": 0.1327432499999972,
            "durationTicks": 96,
            "midi": 44,
            "name": "G#2",
            "ticks": 26784,
            "time": 37.03536675,
            "velocity": 0.7874015748031497
          },
          {
            "duration": 0.2654865000000015,
            "durationTicks": 192,
            "midi": 36,
            "name": "C2",
            "ticks": 26880,
            "time": 37.16811,
            "velocity": 0.7874015748031497
          },
          {
            "duration": 0.1327432500000043,
            "durationTicks": 96,
            "midi": 46,
            "name": "A#2",
            "ticks": 26880,
            "time": 37.16811,
            "velocity": 0.7874015748031497
          },
          {
            "duration": 0.1327432499999972,
            "durationTicks": 96,
            "midi": 44,
            "name": "G#2",
            "ticks": 26976,
            "time": 37.30085325,
            "velocity": 0.7874015748031497
          },
          {
            "duration": 0.2654865000000015,
            "durationTicks": 192,
            "midi": 40,
            "name": "E2",
            "ticks": 27072,
            "time": 37.4335965,
            "velocity": 0.7874015748031497
          },
          {
            "duration": 0.1327432500000043,
            "durationTicks": 96,
            "midi": 42,
            "name": "F#2",
            "ticks": 27072,
            "time": 37.4335965,
            "velocity": 0.7874015748031497
          },
          {
            "duration": 0.1327432499999972,
            "durationTicks": 96,
            "midi": 44,
            "name": "G#2",
            "ticks": 27168,
            "time": 37.566339750000004,
            "velocity": 0.7874015748031497
          },
          {
            "duration": 0.1327432499999972,
            "durationTicks": 96,
            "midi": 46,
            "name": "A#2",
            "ticks": 27264,
            "time": 37.699083,
            "velocity": 0.7874015748031497
          },
          {
            "duration": 0.2654865000000015,
            "durationTicks": 192,
            "midi": 36,
            "name": "C2",
            "ticks": 27264,
            "time": 37.699083,
            "velocity": 0.7874015748031497
          },
          {
            "duration": 0.1327432500000043,
            "durationTicks": 96,
            "midi": 44,
            "name": "G#2",
            "ticks": 27360,
            "time": 37.83182625,
            "velocity": 0.7874015748031497
          },
          {
            "duration": 0.2654865000000015,
            "durationTicks": 192,
            "midi": 40,
            "name": "E2",
            "ticks": 27456,
            "time": 37.9645695,
            "velocity": 0.7874015748031497
          },
          {
            "duration": 0.1327432499999972,
            "durationTicks": 96,
            "midi": 42,
            "name": "F#2",
            "ticks": 27456,
            "time": 37.9645695,
            "velocity": 0.7874015748031497
          },
          {
            "duration": 0.1327432500000043,
            "durationTicks": 96,
            "midi": 44,
            "name": "G#2",
            "ticks": 27552,
            "time": 38.09731275,
            "velocity": 0.7874015748031497
          },
          {
            "duration": 0.2654864999999944,
            "durationTicks": 192,
            "midi": 36,
            "name": "C2",
            "ticks": 27648,
            "time": 38.230056000000005,
            "velocity": 0.7874015748031497
          },
          {
            "duration": 0.1327432499999972,
            "durationTicks": 96,
            "midi": 46,
            "name": "A#2",
            "ticks": 27648,
            "time": 38.230056000000005,
            "velocity": 0.7874015748031497
          },
          {
            "duration": 0.1327432499999972,
            "durationTicks": 96,
            "midi": 44,
            "name": "G#2",
            "ticks": 27744,
            "time": 38.36279925,
            "velocity": 0.7874015748031497
          },
          {
            "duration": 0.1327432500000043,
            "durationTicks": 96,
            "midi": 42,
            "name": "F#2",
            "ticks": 27840,
            "time": 38.4955425,
            "velocity": 0.7874015748031497
          },
          {
            "duration": 0.2654865000000015,
            "durationTicks": 192,
            "midi": 40,
            "name": "E2",
            "ticks": 27840,
            "time": 38.4955425,
            "velocity": 0.7874015748031497
          },
          {
            "duration": 0.1327432499999972,
            "durationTicks": 96,
            "midi": 44,
            "name": "G#2",
            "ticks": 27936,
            "time": 38.62828575,
            "velocity": 0.7874015748031497
          },
          {
            "duration": 0.2654865000000015,
            "durationTicks": 192,
            "midi": 36,
            "name": "C2",
            "ticks": 28032,
            "time": 38.761029,
            "velocity": 0.7874015748031497
          },
          {
            "duration": 0.1327432500000043,
            "durationTicks": 96,
            "midi": 46,
            "name": "A#2",
            "ticks": 28032,
            "time": 38.761029,
            "velocity": 0.7874015748031497
          },
          {
            "duration": 0.1327432499999972,
            "durationTicks": 96,
            "midi": 44,
            "name": "G#2",
            "ticks": 28128,
            "time": 38.893772250000005,
            "velocity": 0.7874015748031497
          },
          {
            "duration": 0.1327432499999972,
            "durationTicks": 96,
            "midi": 42,
            "name": "F#2",
            "ticks": 28224,
            "time": 39.0265155,
            "velocity": 0.7874015748031497
          },
          {
            "duration": 0.2654865000000015,
            "durationTicks": 192,
            "midi": 40,
            "name": "E2",
            "ticks": 28224,
            "time": 39.0265155,
            "velocity": 0.7874015748031497
          },
          {
            "duration": 0.1327432500000043,
            "durationTicks": 96,
            "midi": 44,
            "name": "G#2",
            "ticks": 28320,
            "time": 39.15925875,
            "velocity": 0.7874015748031497
          },
          {
            "duration": 0.2654865000000015,
            "durationTicks": 192,
            "midi": 36,
            "name": "C2",
            "ticks": 28416,
            "time": 39.292002000000004,
            "velocity": 0.7874015748031497
          },
          {
            "duration": 0.1327432499999972,
            "durationTicks": 96,
            "midi": 46,
            "name": "A#2",
            "ticks": 28416,
            "time": 39.292002000000004,
            "velocity": 0.7874015748031497
          },
          {
            "duration": 0.1327432500000043,
            "durationTicks": 96,
            "midi": 44,
            "name": "G#2",
            "ticks": 28512,
            "time": 39.42474525,
            "velocity": 0.7874015748031497
          },
          {
            "duration": 0.1327432499999972,
            "durationTicks": 96,
            "midi": 42,
            "name": "F#2",
            "ticks": 28608,
            "time": 39.557488500000005,
            "velocity": 0.7874015748031497
          },
          {
            "duration": 0.2654864999999944,
            "durationTicks": 192,
            "midi": 40,
            "name": "E2",
            "ticks": 28608,
            "time": 39.557488500000005,
            "velocity": 0.7874015748031497
          },
          {
            "duration": 0.1327432499999972,
            "durationTicks": 96,
            "midi": 44,
            "name": "G#2",
            "ticks": 28704,
            "time": 39.69023175,
            "velocity": 0.7874015748031497
          },
          {
            "duration": 0.2654865000000015,
            "durationTicks": 192,
            "midi": 36,
            "name": "C2",
            "ticks": 28800,
            "time": 39.822975,
            "velocity": 0.7874015748031497
          },
          {
            "duration": 0.1327432500000043,
            "durationTicks": 96,
            "midi": 46,
            "name": "A#2",
            "ticks": 28800,
            "time": 39.822975,
            "velocity": 0.7874015748031497
          },
          {
            "duration": 0.1327432499999972,
            "durationTicks": 96,
            "midi": 44,
            "name": "G#2",
            "ticks": 28896,
            "time": 39.955718250000004,
            "velocity": 0.7874015748031497
          },
          {
            "duration": 0.1327432500000043,
            "durationTicks": 96,
            "midi": 42,
            "name": "F#2",
            "ticks": 28992,
            "time": 40.0884615,
            "velocity": 0.7874015748031497
          },
          {
            "duration": 0.2654865000000015,
            "durationTicks": 192,
            "midi": 40,
            "name": "E2",
            "ticks": 28992,
            "time": 40.0884615,
            "velocity": 0.7874015748031497
          },
          {
            "duration": 0.1327432499999972,
            "durationTicks": 96,
            "midi": 44,
            "name": "G#2",
            "ticks": 29088,
            "time": 40.221204750000005,
            "velocity": 0.7874015748031497
          },
          {
            "duration": 0.1327432499999972,
            "durationTicks": 96,
            "midi": 46,
            "name": "A#2",
            "ticks": 29184,
            "time": 40.353948,
            "velocity": 0.7874015748031497
          },
          {
            "duration": 0.2654865000000015,
            "durationTicks": 192,
            "midi": 36,
            "name": "C2",
            "ticks": 29184,
            "time": 40.353948,
            "velocity": 0.7874015748031497
          },
          {
            "duration": 0.1327432500000043,
            "durationTicks": 96,
            "midi": 44,
            "name": "G#2",
            "ticks": 29280,
            "time": 40.48669125,
            "velocity": 0.7874015748031497
          },
          {
            "duration": 0.1327432499999972,
            "durationTicks": 96,
            "midi": 42,
            "name": "F#2",
            "ticks": 29376,
            "time": 40.619434500000004,
            "velocity": 0.7874015748031497
          },
          {
            "duration": 0.2654865000000015,
            "durationTicks": 192,
            "midi": 40,
            "name": "E2",
            "ticks": 29376,
            "time": 40.619434500000004,
            "velocity": 0.7874015748031497
          },
          {
            "duration": 0.1327432500000043,
            "durationTicks": 96,
            "midi": 44,
            "name": "G#2",
            "ticks": 29472,
            "time": 40.75217775,
            "velocity": 0.7874015748031497
          },
          {
            "duration": 0.2654864999999944,
            "durationTicks": 192,
            "midi": 36,
            "name": "C2",
            "ticks": 29568,
            "time": 40.884921000000006,
            "velocity": 0.7874015748031497
          },
          {
            "duration": 0.1327432499999972,
            "durationTicks": 96,
            "midi": 46,
            "name": "A#2",
            "ticks": 29568,
            "time": 40.884921000000006,
            "velocity": 0.7874015748031497
          },
          {
            "duration": 0.1327432499999972,
            "durationTicks": 96,
            "midi": 44,
            "name": "G#2",
            "ticks": 29664,
            "time": 41.01766425,
            "velocity": 0.7874015748031497
          },
          {
            "duration": 0.1327432500000043,
            "durationTicks": 96,
            "midi": 42,
            "name": "F#2",
            "ticks": 29760,
            "time": 41.1504075,
            "velocity": 0.7874015748031497
          },
          {
            "duration": 0.2654865000000015,
            "durationTicks": 192,
            "midi": 40,
            "name": "E2",
            "ticks": 29760,
            "time": 41.1504075,
            "velocity": 0.7874015748031497
          },
          {
            "duration": 0.1327432499999972,
            "durationTicks": 96,
            "midi": 44,
            "name": "G#2",
            "ticks": 29856,
            "time": 41.283150750000004,
            "velocity": 0.7874015748031497
          },
          {
            "duration": 0.2654865000000015,
            "durationTicks": 192,
            "midi": 36,
            "name": "C2",
            "ticks": 29952,
            "time": 41.415894,
            "velocity": 0.7874015748031497
          },
          {
            "duration": 0.1327432499999972,
            "durationTicks": 96,
            "midi": 46,
            "name": "A#2",
            "ticks": 29952,
            "time": 41.415894,
            "velocity": 0.7874015748031497
          },
          {
            "duration": 0.1327432500000043,
            "durationTicks": 96,
            "midi": 44,
            "name": "G#2",
            "ticks": 30048,
            "time": 41.54863725,
            "velocity": 0.7874015748031497
          },
          {
            "duration": 0.2654865000000015,
            "durationTicks": 192,
            "midi": 40,
            "name": "E2",
            "ticks": 30144,
            "time": 41.6813805,
            "velocity": 0.7874015748031497
          },
          {
            "duration": 0.1327432499999972,
            "durationTicks": 96,
            "midi": 42,
            "name": "F#2",
            "ticks": 30144,
            "time": 41.6813805,
            "velocity": 0.7874015748031497
          },
          {
            "duration": 0.1327432500000043,
            "durationTicks": 96,
            "midi": 44,
            "name": "G#2",
            "ticks": 30240,
            "time": 41.81412375,
            "velocity": 0.7874015748031497
          },
          {
            "duration": 0.2654864999999944,
            "durationTicks": 192,
            "midi": 36,
            "name": "C2",
            "ticks": 30336,
            "time": 41.946867000000005,
            "velocity": 0.7874015748031497
          },
          {
            "duration": 0.1327432499999972,
            "durationTicks": 96,
            "midi": 46,
            "name": "A#2",
            "ticks": 30336,
            "time": 41.946867000000005,
            "velocity": 0.7874015748031497
          },
          {
            "duration": 0.1327432499999972,
            "durationTicks": 96,
            "midi": 44,
            "name": "G#2",
            "ticks": 30432,
            "time": 42.07961025,
            "velocity": 0.7874015748031497
          },
          {
            "duration": 0.2654865000000015,
            "durationTicks": 192,
            "midi": 40,
            "name": "E2",
            "ticks": 30528,
            "time": 42.2123535,
            "velocity": 0.7874015748031497
          },
          {
            "duration": 0.1327432500000043,
            "durationTicks": 96,
            "midi": 42,
            "name": "F#2",
            "ticks": 30528,
            "time": 42.2123535,
            "velocity": 0.7874015748031497
          },
          {
            "duration": 0.1327432499999972,
            "durationTicks": 96,
            "midi": 44,
            "name": "G#2",
            "ticks": 30624,
            "time": 42.34509675,
            "velocity": 0.7874015748031497
          },
          {
            "duration": 0.1327432500000043,
            "durationTicks": 96,
            "midi": 46,
            "name": "A#2",
            "ticks": 30720,
            "time": 42.47784,
            "velocity": 0.7874015748031497
          },
          {
            "duration": 0.2654865000000015,
            "durationTicks": 192,
            "midi": 36,
            "name": "C2",
            "ticks": 30720,
            "time": 42.47784,
            "velocity": 0.7874015748031497
          },
          {
            "duration": 0.1327432499999972,
            "durationTicks": 96,
            "midi": 44,
            "name": "G#2",
            "ticks": 30816,
            "time": 42.610583250000005,
            "velocity": 0.7874015748031497
          },
          {
            "duration": 0.2654865000000015,
            "durationTicks": 192,
            "midi": 40,
            "name": "E2",
            "ticks": 30912,
            "time": 42.7433265,
            "velocity": 0.7874015748031497
          },
          {
            "duration": 0.1327432499999972,
            "durationTicks": 96,
            "midi": 42,
            "name": "F#2",
            "ticks": 30912,
            "time": 42.7433265,
            "velocity": 0.7874015748031497
          },
          {
            "duration": 0.1327432500000043,
            "durationTicks": 96,
            "midi": 44,
            "name": "G#2",
            "ticks": 31008,
            "time": 42.87606975,
            "velocity": 0.7874015748031497
          },
          {
            "duration": 0.1327432499999972,
            "durationTicks": 96,
            "midi": 46,
            "name": "A#2",
            "ticks": 31104,
            "time": 43.008813,
            "velocity": 0.7874015748031497
          },
          {
            "duration": 0.2654865000000015,
            "durationTicks": 192,
            "midi": 36,
            "name": "C2",
            "ticks": 31104,
            "time": 43.008813,
            "velocity": 0.7874015748031497
          },
          {
            "duration": 0.1327432500000043,
            "durationTicks": 96,
            "midi": 44,
            "name": "G#2",
            "ticks": 31200,
            "time": 43.14155625,
            "velocity": 0.7874015748031497
          },
          {
            "duration": 0.1327432499999972,
            "durationTicks": 96,
            "midi": 42,
            "name": "F#2",
            "ticks": 31296,
            "time": 43.274299500000005,
            "velocity": 0.7874015748031497
          },
          {
            "duration": 0.2654864999999944,
            "durationTicks": 192,
            "midi": 40,
            "name": "E2",
            "ticks": 31296,
            "time": 43.274299500000005,
            "velocity": 0.7874015748031497
          },
          {
            "duration": 0.1327432499999972,
            "durationTicks": 96,
            "midi": 44,
            "name": "G#2",
            "ticks": 31392,
            "time": 43.40704275,
            "velocity": 0.7874015748031497
          },
          {
            "duration": 0.1327432500000043,
            "durationTicks": 96,
            "midi": 46,
            "name": "A#2",
            "ticks": 31488,
            "time": 43.539786,
            "velocity": 0.7874015748031497
          },
          {
            "duration": 0.1327432499999972,
            "durationTicks": 96,
            "midi": 46,
            "name": "A#2",
            "ticks": 31872,
            "time": 44.070759,
            "velocity": 0.7874015748031497
          },
          {
            "duration": 0.1327432499999972,
            "durationTicks": 96,
            "midi": 46,
            "name": "A#2",
            "ticks": 32256,
            "time": 44.601732000000005,
            "velocity": 0.7874015748031497
          },
          {
            "duration": 0.2654864999999944,
            "durationTicks": 192,
            "midi": 36,
            "name": "C2",
            "ticks": 32256,
            "time": 44.601732000000005,
            "velocity": 0.7874015748031497
          },
          {
            "duration": 0.1327432499999972,
            "durationTicks": 96,
            "midi": 44,
            "name": "G#2",
            "ticks": 32352,
            "time": 44.73447525,
            "velocity": 0.7874015748031497
          },
          {
            "duration": 0.2654865000000015,
            "durationTicks": 192,
            "midi": 40,
            "name": "E2",
            "ticks": 32448,
            "time": 44.8672185,
            "velocity": 0.7874015748031497
          },
          {
            "duration": 0.1327432500000043,
            "durationTicks": 96,
            "midi": 42,
            "name": "F#2",
            "ticks": 32448,
            "time": 44.8672185,
            "velocity": 0.7874015748031497
          },
          {
            "duration": 0.1327432499999972,
            "durationTicks": 96,
            "midi": 44,
            "name": "G#2",
            "ticks": 32544,
            "time": 44.999961750000004,
            "velocity": 0.7874015748031497
          },
          {
            "duration": 0.1327432500000043,
            "durationTicks": 96,
            "midi": 46,
            "name": "A#2",
            "ticks": 32640,
            "time": 45.132705,
            "velocity": 0.7874015748031497
          },
          {
            "duration": 0.2654865000000015,
            "durationTicks": 192,
            "midi": 36,
            "name": "C2",
            "ticks": 32640,
            "time": 45.132705,
            "velocity": 0.7874015748031497
          },
          {
            "duration": 0.1327432499999972,
            "durationTicks": 96,
            "midi": 44,
            "name": "G#2",
            "ticks": 32736,
            "time": 45.265448250000006,
            "velocity": 0.7874015748031497
          },
          {
            "duration": 0.2654865000000015,
            "durationTicks": 192,
            "midi": 40,
            "name": "E2",
            "ticks": 32832,
            "time": 45.3981915,
            "velocity": 0.7874015748031497
          },
          {
            "duration": 0.1327432499999972,
            "durationTicks": 96,
            "midi": 42,
            "name": "F#2",
            "ticks": 32832,
            "time": 45.3981915,
            "velocity": 0.7874015748031497
          },
          {
            "duration": 0.1327432500000043,
            "durationTicks": 96,
            "midi": 44,
            "name": "G#2",
            "ticks": 32928,
            "time": 45.53093475,
            "velocity": 0.7874015748031497
          },
          {
            "duration": 0.2654865000000015,
            "durationTicks": 192,
            "midi": 36,
            "name": "C2",
            "ticks": 33024,
            "time": 45.663678000000004,
            "velocity": 0.7874015748031497
          },
          {
            "duration": 0.1327432499999972,
            "durationTicks": 96,
            "midi": 46,
            "name": "A#2",
            "ticks": 33024,
            "time": 45.663678000000004,
            "velocity": 0.7874015748031497
          },
          {
            "duration": 0.1327432500000043,
            "durationTicks": 96,
            "midi": 44,
            "name": "G#2",
            "ticks": 33120,
            "time": 45.79642125,
            "velocity": 0.7874015748031497
          },
          {
            "duration": 0.2654864999999944,
            "durationTicks": 192,
            "midi": 40,
            "name": "E2",
            "ticks": 33216,
            "time": 45.929164500000006,
            "velocity": 0.7874015748031497
          },
          {
            "duration": 0.1327432499999972,
            "durationTicks": 96,
            "midi": 42,
            "name": "F#2",
            "ticks": 33216,
            "time": 45.929164500000006,
            "velocity": 0.7874015748031497
          },
          {
            "duration": 0.1327432499999972,
            "durationTicks": 96,
            "midi": 44,
            "name": "G#2",
            "ticks": 33312,
            "time": 46.06190775,
            "velocity": 0.7874015748031497
          },
          {
            "duration": 0.1327432500000043,
            "durationTicks": 96,
            "midi": 46,
            "name": "A#2",
            "ticks": 33408,
            "time": 46.194651,
            "velocity": 0.7874015748031497
          },
          {
            "duration": 0.2654865000000015,
            "durationTicks": 192,
            "midi": 36,
            "name": "C2",
            "ticks": 33408,
            "time": 46.194651,
            "velocity": 0.7874015748031497
          },
          {
            "duration": 0.1327432499999972,
            "durationTicks": 96,
            "midi": 44,
            "name": "G#2",
            "ticks": 33504,
            "time": 46.327394250000005,
            "velocity": 0.7874015748031497
          },
          {
            "duration": 0.2654865000000015,
            "durationTicks": 192,
            "midi": 40,
            "name": "E2",
            "ticks": 33600,
            "time": 46.4601375,
            "velocity": 0.7874015748031497
          },
          {
            "duration": 0.1327432499999972,
            "durationTicks": 96,
            "midi": 42,
            "name": "F#2",
            "ticks": 33600,
            "time": 46.4601375,
            "velocity": 0.7874015748031497
          },
          {
            "duration": 0.1327432500000043,
            "durationTicks": 96,
            "midi": 44,
            "name": "G#2",
            "ticks": 33696,
            "time": 46.59288075,
            "velocity": 0.7874015748031497
          },
          {
            "duration": 0.1327432499999972,
            "durationTicks": 96,
            "midi": 46,
            "name": "A#2",
            "ticks": 33792,
            "time": 46.725624,
            "velocity": 0.7874015748031497
          },
          {
            "duration": 0.2654865000000015,
            "durationTicks": 192,
            "midi": 36,
            "name": "C2",
            "ticks": 33792,
            "time": 46.725624,
            "velocity": 0.7874015748031497
          },
          {
            "duration": 0.1327432500000043,
            "durationTicks": 96,
            "midi": 44,
            "name": "G#2",
            "ticks": 33888,
            "time": 46.85836725,
            "velocity": 0.7874015748031497
          },
          {
            "duration": 0.1327432499999972,
            "durationTicks": 96,
            "midi": 42,
            "name": "F#2",
            "ticks": 33984,
            "time": 46.991110500000005,
            "velocity": 0.7874015748031497
          },
          {
            "duration": 0.2654864999999944,
            "durationTicks": 192,
            "midi": 40,
            "name": "E2",
            "ticks": 33984,
            "time": 46.991110500000005,
            "velocity": 0.7874015748031497
          },
          {
            "duration": 0.1327432499999972,
            "durationTicks": 96,
            "midi": 44,
            "name": "G#2",
            "ticks": 34080,
            "time": 47.12385375,
            "velocity": 0.7874015748031497
          },
          {
            "duration": 0.2654865000000015,
            "durationTicks": 192,
            "midi": 36,
            "name": "C2",
            "ticks": 34176,
            "time": 47.256597,
            "velocity": 0.7874015748031497
          },
          {
            "duration": 0.1327432500000043,
            "durationTicks": 96,
            "midi": 46,
            "name": "A#2",
            "ticks": 34176,
            "time": 47.256597,
            "velocity": 0.7874015748031497
          },
          {
            "duration": 0.1327432499999972,
            "durationTicks": 96,
            "midi": 44,
            "name": "G#2",
            "ticks": 34272,
            "time": 47.389340250000004,
            "velocity": 0.7874015748031497
          },
          {
            "duration": 0.1327432500000043,
            "durationTicks": 96,
            "midi": 42,
            "name": "F#2",
            "ticks": 34368,
            "time": 47.5220835,
            "velocity": 0.7874015748031497
          },
          {
            "duration": 0.2654865000000015,
            "durationTicks": 192,
            "midi": 40,
            "name": "E2",
            "ticks": 34368,
            "time": 47.5220835,
            "velocity": 0.7874015748031497
          },
          {
            "duration": 0.1327432499999972,
            "durationTicks": 96,
            "midi": 44,
            "name": "G#2",
            "ticks": 34464,
            "time": 47.654826750000005,
            "velocity": 0.7874015748031497
          },
          {
            "duration": 0.1327432499999972,
            "durationTicks": 96,
            "midi": 46,
            "name": "A#2",
            "ticks": 34560,
            "time": 47.78757,
            "velocity": 0.7874015748031497
          },
          {
            "duration": 0.2654865000000015,
            "durationTicks": 192,
            "midi": 36,
            "name": "C2",
            "ticks": 34560,
            "time": 47.78757,
            "velocity": 0.7874015748031497
          },
          {
            "duration": 0.1327432500000043,
            "durationTicks": 96,
            "midi": 44,
            "name": "G#2",
            "ticks": 34656,
            "time": 47.92031325,
            "velocity": 0.7874015748031497
          },
          {
            "duration": 0.1327432499999972,
            "durationTicks": 96,
            "midi": 42,
            "name": "F#2",
            "ticks": 34752,
            "time": 48.053056500000004,
            "velocity": 0.7874015748031497
          },
          {
            "duration": 0.2654865000000015,
            "durationTicks": 192,
            "midi": 40,
            "name": "E2",
            "ticks": 34752,
            "time": 48.053056500000004,
            "velocity": 0.7874015748031497
          },
          {
            "duration": 0.1327432500000043,
            "durationTicks": 96,
            "midi": 44,
            "name": "G#2",
            "ticks": 34848,
            "time": 48.18579975,
            "velocity": 0.7874015748031497
          },
          {
            "duration": 0.2654864999999944,
            "durationTicks": 192,
            "midi": 36,
            "name": "C2",
            "ticks": 34944,
            "time": 48.318543000000005,
            "velocity": 0.7874015748031497
          },
          {
            "duration": 0.1327432499999972,
            "durationTicks": 96,
            "midi": 46,
            "name": "A#2",
            "ticks": 34944,
            "time": 48.318543000000005,
            "velocity": 0.7874015748031497
          },
          {
            "duration": 0.1327432499999972,
            "durationTicks": 96,
            "midi": 44,
            "name": "G#2",
            "ticks": 35040,
            "time": 48.45128625,
            "velocity": 0.7874015748031497
          },
          {
            "duration": 0.2654865000000015,
            "durationTicks": 192,
            "midi": 40,
            "name": "E2",
            "ticks": 35136,
            "time": 48.5840295,
            "velocity": 0.7874015748031497
          },
          {
            "duration": 0.1327432500000043,
            "durationTicks": 96,
            "midi": 42,
            "name": "F#2",
            "ticks": 35136,
            "time": 48.5840295,
            "velocity": 0.7874015748031497
          },
          {
            "duration": 0.1327432499999972,
            "durationTicks": 96,
            "midi": 44,
            "name": "G#2",
            "ticks": 35232,
            "time": 48.716772750000004,
            "velocity": 0.7874015748031497
          },
          {
            "duration": 0.1327432500000043,
            "durationTicks": 96,
            "midi": 46,
            "name": "A#2",
            "ticks": 35328,
            "time": 48.849516,
            "velocity": 0.7874015748031497
          },
          {
            "duration": 0.2654865000000015,
            "durationTicks": 192,
            "midi": 36,
            "name": "C2",
            "ticks": 35328,
            "time": 48.849516,
            "velocity": 0.7874015748031497
          },
          {
            "duration": 0.1327432499999972,
            "durationTicks": 96,
            "midi": 44,
            "name": "G#2",
            "ticks": 35424,
            "time": 48.982259250000006,
            "velocity": 0.7874015748031497
          },
          {
            "duration": 0.1327432499999972,
            "durationTicks": 96,
            "midi": 42,
            "name": "F#2",
            "ticks": 35520,
            "time": 49.1150025,
            "velocity": 0.7874015748031497
          },
          {
            "duration": 0.2654865000000015,
            "durationTicks": 192,
            "midi": 40,
            "name": "E2",
            "ticks": 35520,
            "time": 49.1150025,
            "velocity": 0.7874015748031497
          },
          {
            "duration": 0.1327432500000043,
            "durationTicks": 96,
            "midi": 44,
            "name": "G#2",
            "ticks": 35616,
            "time": 49.24774575,
            "velocity": 0.7874015748031497
          },
          {
            "duration": 0.2654865000000015,
            "durationTicks": 192,
            "midi": 36,
            "name": "C2",
            "ticks": 35712,
            "time": 49.380489000000004,
            "velocity": 0.7874015748031497
          },
          {
            "duration": 0.1327432499999972,
            "durationTicks": 96,
            "midi": 46,
            "name": "A#2",
            "ticks": 35712,
            "time": 49.380489000000004,
            "velocity": 0.7874015748031497
          },
          {
            "duration": 0.1327432500000043,
            "durationTicks": 96,
            "midi": 44,
            "name": "G#2",
            "ticks": 35808,
            "time": 49.51323225,
            "velocity": 0.7874015748031497
          },
          {
            "duration": 0.2654864999999944,
            "durationTicks": 192,
            "midi": 40,
            "name": "E2",
            "ticks": 35904,
            "time": 49.645975500000006,
            "velocity": 0.7874015748031497
          },
          {
            "duration": 0.1327432499999972,
            "durationTicks": 96,
            "midi": 42,
            "name": "F#2",
            "ticks": 35904,
            "time": 49.645975500000006,
            "velocity": 0.7874015748031497
          },
          {
            "duration": 0.1327432499999972,
            "durationTicks": 96,
            "midi": 44,
            "name": "G#2",
            "ticks": 36000,
            "time": 49.77871875,
            "velocity": 0.7874015748031497
          },
          {
            "duration": 0.1327432500000043,
            "durationTicks": 96,
            "midi": 46,
            "name": "A#2",
            "ticks": 36096,
            "time": 49.911462,
            "velocity": 0.7874015748031497
          },
          {
            "duration": 0.2654865000000015,
            "durationTicks": 192,
            "midi": 36,
            "name": "C2",
            "ticks": 36096,
            "time": 49.911462,
            "velocity": 0.7874015748031497
          },
          {
            "duration": 0.1327432499999972,
            "durationTicks": 96,
            "midi": 44,
            "name": "G#2",
            "ticks": 36192,
            "time": 50.044205250000005,
            "velocity": 0.7874015748031497
          },
          {
            "duration": 0.1327432500000043,
            "durationTicks": 96,
            "midi": 42,
            "name": "F#2",
            "ticks": 36288,
            "time": 50.1769485,
            "velocity": 0.7874015748031497
          },
          {
            "duration": 0.2654865000000015,
            "durationTicks": 192,
            "midi": 40,
            "name": "E2",
            "ticks": 36288,
            "time": 50.1769485,
            "velocity": 0.7874015748031497
          },
          {
            "duration": 0.1327432499999972,
            "durationTicks": 96,
            "midi": 44,
            "name": "G#2",
            "ticks": 36384,
            "time": 50.309691750000006,
            "velocity": 0.7874015748031497
          },
          {
            "duration": 0.2654865000000015,
            "durationTicks": 192,
            "midi": 36,
            "name": "C2",
            "ticks": 36480,
            "time": 50.442435,
            "velocity": 0.7874015748031497
          },
          {
            "duration": 0.1327432499999972,
            "durationTicks": 96,
            "midi": 46,
            "name": "A#2",
            "ticks": 36480,
            "time": 50.442435,
            "velocity": 0.7874015748031497
          },
          {
            "duration": 0.1327432500000043,
            "durationTicks": 96,
            "midi": 44,
            "name": "G#2",
            "ticks": 36576,
            "time": 50.57517825,
            "velocity": 0.7874015748031497
          },
          {
            "duration": 0.2654865000000015,
            "durationTicks": 192,
            "midi": 40,
            "name": "E2",
            "ticks": 36672,
            "time": 50.707921500000005,
            "velocity": 0.7874015748031497
          },
          {
            "duration": 0.1327432499999972,
            "durationTicks": 96,
            "midi": 42,
            "name": "F#2",
            "ticks": 36672,
            "time": 50.707921500000005,
            "velocity": 0.7874015748031497
          },
          {
            "duration": 0.1327432500000043,
            "durationTicks": 96,
            "midi": 44,
            "name": "G#2",
            "ticks": 36768,
            "time": 50.84066475,
            "velocity": 0.7874015748031497
          },
          {
            "duration": 0.2654864999999944,
            "durationTicks": 192,
            "midi": 54,
            "name": "F#3",
            "ticks": 38592,
            "time": 53.362786500000006,
            "velocity": 0.7874015748031497
          },
          {
            "duration": 0.2654865000000015,
            "durationTicks": 192,
            "midi": 54,
            "name": "F#3",
            "ticks": 38976,
            "time": 53.8937595,
            "velocity": 0.7874015748031497
          },
          {
            "duration": 0.2654865000000015,
            "durationTicks": 192,
            "midi": 54,
            "name": "F#3",
            "ticks": 39360,
            "time": 54.424732500000005,
            "velocity": 0.7874015748031497
          },
          {
            "duration": 0.2654865000000015,
            "durationTicks": 192,
            "midi": 54,
            "name": "F#3",
            "ticks": 39744,
            "time": 54.9557055,
            "velocity": 0.7874015748031497
          },
          {
            "duration": 0.2654865000000015,
            "durationTicks": 192,
            "midi": 54,
            "name": "F#3",
            "ticks": 40128,
            "time": 55.486678500000004,
            "velocity": 0.7874015748031497
          },
          {
            "duration": 0.2654865000000015,
            "durationTicks": 192,
            "midi": 54,
            "name": "F#3",
            "ticks": 40512,
            "time": 56.0176515,
            "velocity": 0.7874015748031497
          },
          {
            "duration": 0.2654865000000015,
            "durationTicks": 192,
            "midi": 54,
            "name": "F#3",
            "ticks": 40896,
            "time": 56.5486245,
            "velocity": 0.7874015748031497
          },
          {
            "duration": 0.2654864999999944,
            "durationTicks": 192,
            "midi": 54,
            "name": "F#3",
            "ticks": 41280,
            "time": 57.079597500000006,
            "velocity": 0.7874015748031497
          },
          {
            "duration": 0.2654865000000015,
            "durationTicks": 192,
            "midi": 54,
            "name": "F#3",
            "ticks": 41664,
            "time": 57.6105705,
            "velocity": 0.7874015748031497
          },
          {
            "duration": 0.2654865000000015,
            "durationTicks": 192,
            "midi": 54,
            "name": "F#3",
            "ticks": 42048,
            "time": 58.141543500000004,
            "velocity": 0.7874015748031497
          },
          {
            "duration": 0.2654865000000015,
            "durationTicks": 192,
            "midi": 54,
            "name": "F#3",
            "ticks": 42432,
            "time": 58.6725165,
            "velocity": 0.7874015748031497
          },
          {
            "duration": 0.2654865000000015,
            "durationTicks": 192,
            "midi": 54,
            "name": "F#3",
            "ticks": 42816,
            "time": 59.2034895,
            "velocity": 0.7874015748031497
          },
          {
            "duration": 0.2654864999999944,
            "durationTicks": 192,
            "midi": 54,
            "name": "F#3",
            "ticks": 43200,
            "time": 59.73446250000001,
            "velocity": 0.7874015748031497
          },
          {
            "duration": 0.2654865000000015,
            "durationTicks": 192,
            "midi": 54,
            "name": "F#3",
            "ticks": 43584,
            "time": 60.2654355,
            "velocity": 0.7874015748031497
          },
          {
            "duration": 0.2654864999999944,
            "durationTicks": 192,
            "midi": 54,
            "name": "F#3",
            "ticks": 43968,
            "time": 60.796408500000005,
            "velocity": 0.7874015748031497
          },
          {
            "duration": 0.2654865000000015,
            "durationTicks": 192,
            "midi": 54,
            "name": "F#3",
            "ticks": 44352,
            "time": 61.3273815,
            "velocity": 0.7874015748031497
          },
          {
            "duration": 0.2654865000000015,
            "durationTicks": 192,
            "midi": 54,
            "name": "F#3",
            "ticks": 44736,
            "time": 61.858354500000004,
            "velocity": 0.7874015748031497
          },
          {
            "duration": 0.2654865000000015,
            "durationTicks": 192,
            "midi": 54,
            "name": "F#3",
            "ticks": 45120,
            "time": 62.3893275,
            "velocity": 0.7874015748031497
          },
          {
            "duration": 0.2654865000000015,
            "durationTicks": 192,
            "midi": 54,
            "name": "F#3",
            "ticks": 45504,
            "time": 62.9203005,
            "velocity": 0.7874015748031497
          },
          {
            "duration": 0.2654864999999944,
            "durationTicks": 192,
            "midi": 54,
            "name": "F#3",
            "ticks": 45888,
            "time": 63.451273500000006,
            "velocity": 0.7874015748031497
          },
          {
            "duration": 0.2654864999999944,
            "durationTicks": 192,
            "midi": 54,
            "name": "F#3",
            "ticks": 46272,
            "time": 63.9822465,
            "velocity": 0.7874015748031497
          },
          {
            "duration": 0.2654864999999944,
            "durationTicks": 192,
            "midi": 54,
            "name": "F#3",
            "ticks": 46656,
            "time": 64.5132195,
            "velocity": 0.7874015748031497
          },
          {
            "duration": 0.2654864999999944,
            "durationTicks": 192,
            "midi": 54,
            "name": "F#3",
            "ticks": 47040,
            "time": 65.04419250000001,
            "velocity": 0.7874015748031497
          },
          {
            "duration": 0.2654865000000086,
            "durationTicks": 192,
            "midi": 54,
            "name": "F#3",
            "ticks": 47424,
            "time": 65.5751655,
            "velocity": 0.7874015748031497
          },
          {
            "duration": 0.2654865000000086,
            "durationTicks": 192,
            "midi": 54,
            "name": "F#3",
            "ticks": 47808,
            "time": 66.1061385,
            "velocity": 0.7874015748031497
          },
          {
            "duration": 0.2654864999999944,
            "durationTicks": 192,
            "midi": 54,
            "name": "F#3",
            "ticks": 48192,
            "time": 66.6371115,
            "velocity": 0.7874015748031497
          },
          {
            "duration": 0.2654864999999944,
            "durationTicks": 192,
            "midi": 54,
            "name": "F#3",
            "ticks": 48576,
            "time": 67.1680845,
            "velocity": 0.7874015748031497
          },
          {
            "duration": 0.2654864999999944,
            "durationTicks": 192,
            "midi": 54,
            "name": "F#3",
            "ticks": 48960,
            "time": 67.69905750000001,
            "velocity": 0.7874015748031497
          },
          {
            "duration": 0.1327432500000043,
            "durationTicks": 96,
            "midi": 46,
            "name": "A#2",
            "ticks": 50688,
            "time": 70.088436,
            "velocity": 0.7874015748031497
          },
          {
            "duration": 0.2654865000000086,
            "durationTicks": 192,
            "midi": 36,
            "name": "C2",
            "ticks": 50688,
            "time": 70.088436,
            "velocity": 0.7874015748031497
          },
          {
            "duration": 0.1327432500000043,
            "durationTicks": 96,
            "midi": 44,
            "name": "G#2",
            "ticks": 50784,
            "time": 70.22117925,
            "velocity": 0.7874015748031497
          },
          {
            "duration": 0.1327432499999901,
            "durationTicks": 96,
            "midi": 42,
            "name": "F#2",
            "ticks": 50880,
            "time": 70.35392250000001,
            "velocity": 0.7874015748031497
          },
          {
            "duration": 0.2654864999999944,
            "durationTicks": 192,
            "midi": 40,
            "name": "E2",
            "ticks": 50880,
            "time": 70.35392250000001,
            "velocity": 0.7874015748031497
          },
          {
            "duration": 0.1327432500000043,
            "durationTicks": 96,
            "midi": 44,
            "name": "G#2",
            "ticks": 50976,
            "time": 70.48666575,
            "velocity": 0.7874015748031497
          },
          {
            "duration": 0.2654864999999944,
            "durationTicks": 192,
            "midi": 36,
            "name": "C2",
            "ticks": 51072,
            "time": 70.619409,
            "velocity": 0.7874015748031497
          },
          {
            "duration": 0.1327432500000043,
            "durationTicks": 96,
            "midi": 46,
            "name": "A#2",
            "ticks": 51072,
            "time": 70.619409,
            "velocity": 0.7874015748031497
          },
          {
            "duration": 0.1327432499999901,
            "durationTicks": 96,
            "midi": 44,
            "name": "G#2",
            "ticks": 51168,
            "time": 70.75215225000001,
            "velocity": 0.7874015748031497
          },
          {
            "duration": 0.1327432500000043,
            "durationTicks": 96,
            "midi": 42,
            "name": "F#2",
            "ticks": 51264,
            "time": 70.8848955,
            "velocity": 0.7874015748031497
          },
          {
            "duration": 0.2654865000000086,
            "durationTicks": 192,
            "midi": 40,
            "name": "E2",
            "ticks": 51264,
            "time": 70.8848955,
            "velocity": 0.7874015748031497
          },
          {
            "duration": 0.1327432500000043,
            "durationTicks": 96,
            "midi": 44,
            "name": "G#2",
            "ticks": 51360,
            "time": 71.01763875,
            "velocity": 0.7874015748031497
          },
          {
            "duration": 0.2654864999999944,
            "durationTicks": 192,
            "midi": 36,
            "name": "C2",
            "ticks": 51456,
            "time": 71.15038200000001,
            "velocity": 0.7874015748031497
          },
          {
            "duration": 0.1327432499999901,
            "durationTicks": 96,
            "midi": 46,
            "name": "A#2",
            "ticks": 51456,
            "time": 71.15038200000001,
            "velocity": 0.7874015748031497
          },
          {
            "duration": 0.1327432500000043,
            "durationTicks": 96,
            "midi": 44,
            "name": "G#2",
            "ticks": 51552,
            "time": 71.28312525,
            "velocity": 0.7874015748031497
          },
          {
            "duration": 0.1327432500000043,
            "durationTicks": 96,
            "midi": 42,
            "name": "F#2",
            "ticks": 51648,
            "time": 71.4158685,
            "velocity": 0.7874015748031497
          },
          {
            "duration": 0.2654865000000086,
            "durationTicks": 192,
            "midi": 40,
            "name": "E2",
            "ticks": 51648,
            "time": 71.4158685,
            "velocity": 0.7874015748031497
          },
          {
            "duration": 0.1327432500000043,
            "durationTicks": 96,
            "midi": 44,
            "name": "G#2",
            "ticks": 51744,
            "time": 71.54861175,
            "velocity": 0.7874015748031497
          },
          {
            "duration": 0.2654864999999944,
            "durationTicks": 192,
            "midi": 36,
            "name": "C2",
            "ticks": 51840,
            "time": 71.68135500000001,
            "velocity": 0.7874015748031497
          },
          {
            "duration": 0.1327432499999901,
            "durationTicks": 96,
            "midi": 46,
            "name": "A#2",
            "ticks": 51840,
            "time": 71.68135500000001,
            "velocity": 0.7874015748031497
          },
          {
            "duration": 0.1327432500000043,
            "durationTicks": 96,
            "midi": 44,
            "name": "G#2",
            "ticks": 51936,
            "time": 71.81409825,
            "velocity": 0.7874015748031497
          },
          {
            "duration": 0.1327432500000043,
            "durationTicks": 96,
            "midi": 42,
            "name": "F#2",
            "ticks": 52032,
            "time": 71.9468415,
            "velocity": 0.7874015748031497
          },
          {
            "duration": 0.2654864999999944,
            "durationTicks": 192,
            "midi": 40,
            "name": "E2",
            "ticks": 52032,
            "time": 71.9468415,
            "velocity": 0.7874015748031497
          },
          {
            "duration": 0.1327432499999901,
            "durationTicks": 96,
            "midi": 44,
            "name": "G#2",
            "ticks": 52128,
            "time": 72.07958475000001,
            "velocity": 0.7874015748031497
          },
          {
            "duration": 0.1327432500000043,
            "durationTicks": 96,
            "midi": 46,
            "name": "A#2",
            "ticks": 52224,
            "time": 72.212328,
            "velocity": 0.7874015748031497
          },
          {
            "duration": 0.2654865000000086,
            "durationTicks": 192,
            "midi": 36,
            "name": "C2",
            "ticks": 52224,
            "time": 72.212328,
            "velocity": 0.7874015748031497
          },
          {
            "duration": 0.1327432500000043,
            "durationTicks": 96,
            "midi": 44,
            "name": "G#2",
            "ticks": 52320,
            "time": 72.34507125,
            "velocity": 0.7874015748031497
          },
          {
            "duration": 0.1327432499999901,
            "durationTicks": 96,
            "midi": 42,
            "name": "F#2",
            "ticks": 52416,
            "time": 72.47781450000001,
            "velocity": 0.7874015748031497
          },
          {
            "duration": 0.2654864999999944,
            "durationTicks": 192,
            "midi": 40,
            "name": "E2",
            "ticks": 52416,
            "time": 72.47781450000001,
            "velocity": 0.7874015748031497
          },
          {
            "duration": 0.1327432500000043,
            "durationTicks": 96,
            "midi": 44,
            "name": "G#2",
            "ticks": 52512,
            "time": 72.61055775,
            "velocity": 0.7874015748031497
          },
          {
            "duration": 0.1327432500000043,
            "durationTicks": 96,
            "midi": 46,
            "name": "A#2",
            "ticks": 52608,
            "time": 72.743301,
            "velocity": 0.7874015748031497
          },
          {
            "duration": 0.2654864999999944,
            "durationTicks": 192,
            "midi": 36,
            "name": "C2",
            "ticks": 52608,
            "time": 72.743301,
            "velocity": 0.7874015748031497
          },
          {
            "duration": 0.1327432499999901,
            "durationTicks": 96,
            "midi": 44,
            "name": "G#2",
            "ticks": 52704,
            "time": 72.87604425,
            "velocity": 0.7874015748031497
          },
          {
            "duration": 0.2654865000000086,
            "durationTicks": 192,
            "midi": 40,
            "name": "E2",
            "ticks": 52800,
            "time": 73.0087875,
            "velocity": 0.7874015748031497
          },
          {
            "duration": 0.1327432500000043,
            "durationTicks": 96,
            "midi": 42,
            "name": "F#2",
            "ticks": 52800,
            "time": 73.0087875,
            "velocity": 0.7874015748031497
          },
          {
            "duration": 0.1327432500000043,
            "durationTicks": 96,
            "midi": 44,
            "name": "G#2",
            "ticks": 52896,
            "time": 73.14153075,
            "velocity": 0.7874015748031497
          },
          {
            "duration": 0.2654864999999944,
            "durationTicks": 192,
            "midi": 36,
            "name": "C2",
            "ticks": 52992,
            "time": 73.274274,
            "velocity": 0.7874015748031497
          },
          {
            "duration": 0.1327432500000043,
            "durationTicks": 96,
            "midi": 46,
            "name": "A#2",
            "ticks": 52992,
            "time": 73.274274,
            "velocity": 0.7874015748031497
          },
          {
            "duration": 0.1327432499999901,
            "durationTicks": 96,
            "midi": 44,
            "name": "G#2",
            "ticks": 53088,
            "time": 73.40701725000001,
            "velocity": 0.7874015748031497
          },
          {
            "duration": 0.2654865000000086,
            "durationTicks": 192,
            "midi": 40,
            "name": "E2",
            "ticks": 53184,
            "time": 73.5397605,
            "velocity": 0.7874015748031497
          },
          {
            "duration": 0.1327432500000043,
            "durationTicks": 96,
            "midi": 42,
            "name": "F#2",
            "ticks": 53184,
            "time": 73.5397605,
            "velocity": 0.7874015748031497
          },
          {
            "duration": 0.1327432500000043,
            "durationTicks": 96,
            "midi": 44,
            "name": "G#2",
            "ticks": 53280,
            "time": 73.67250375,
            "velocity": 0.7874015748031497
          },
          {
            "duration": 0.2654864999999944,
            "durationTicks": 192,
            "midi": 36,
            "name": "C2",
            "ticks": 53376,
            "time": 73.80524700000001,
            "velocity": 0.7874015748031497
          },
          {
            "duration": 0.1327432499999901,
            "durationTicks": 96,
            "midi": 46,
            "name": "A#2",
            "ticks": 53376,
            "time": 73.80524700000001,
            "velocity": 0.7874015748031497
          },
          {
            "duration": 0.1327432500000043,
            "durationTicks": 96,
            "midi": 44,
            "name": "G#2",
            "ticks": 53472,
            "time": 73.93799025,
            "velocity": 0.7874015748031497
          },
          {
            "duration": 0.2654864999999944,
            "durationTicks": 192,
            "midi": 40,
            "name": "E2",
            "ticks": 53568,
            "time": 74.0707335,
            "velocity": 0.7874015748031497
          },
          {
            "duration": 0.1327432500000043,
            "durationTicks": 96,
            "midi": 42,
            "name": "F#2",
            "ticks": 53568,
            "time": 74.0707335,
            "velocity": 0.7874015748031497
          },
          {
            "duration": 0.1327432499999901,
            "durationTicks": 96,
            "midi": 44,
            "name": "G#2",
            "ticks": 53664,
            "time": 74.20347675000001,
            "velocity": 0.7874015748031497
          },
          {
            "duration": 0.2654865000000086,
            "durationTicks": 192,
            "midi": 36,
            "name": "C2",
            "ticks": 53760,
            "time": 74.33622,
            "velocity": 0.7874015748031497
          },
          {
            "duration": 0.1327432500000043,
            "durationTicks": 96,
            "midi": 46,
            "name": "A#2",
            "ticks": 53760,
            "time": 74.33622,
            "velocity": 0.7874015748031497
          },
          {
            "duration": 0.1327432500000043,
            "durationTicks": 96,
            "midi": 44,
            "name": "G#2",
            "ticks": 53856,
            "time": 74.46896325,
            "velocity": 0.7874015748031497
          },
          {
            "duration": 0.2654864999999944,
            "durationTicks": 192,
            "midi": 40,
            "name": "E2",
            "ticks": 53952,
            "time": 74.6017065,
            "velocity": 0.7874015748031497
          },
          {
            "duration": 0.1327432500000043,
            "durationTicks": 96,
            "midi": 42,
            "name": "F#2",
            "ticks": 53952,
            "time": 74.6017065,
            "velocity": 0.7874015748031497
          },
          {
            "duration": 0.1327432499999901,
            "durationTicks": 96,
            "midi": 44,
            "name": "G#2",
            "ticks": 54048,
            "time": 74.73444975000001,
            "velocity": 0.7874015748031497
          },
          {
            "duration": 0.2654865000000086,
            "durationTicks": 192,
            "midi": 36,
            "name": "C2",
            "ticks": 54144,
            "time": 74.867193,
            "velocity": 0.7874015748031497
          },
          {
            "duration": 0.1327432500000043,
            "durationTicks": 96,
            "midi": 46,
            "name": "A#2",
            "ticks": 54144,
            "time": 74.867193,
            "velocity": 0.7874015748031497
          },
          {
            "duration": 0.1327432500000043,
            "durationTicks": 96,
            "midi": 44,
            "name": "G#2",
            "ticks": 54240,
            "time": 74.99993625,
            "velocity": 0.7874015748031497
          },
          {
            "duration": 0.1327432499999901,
            "durationTicks": 96,
            "midi": 42,
            "name": "F#2",
            "ticks": 54336,
            "time": 75.13267950000001,
            "velocity": 0.7874015748031497
          },
          {
            "duration": 0.2654864999999944,
            "durationTicks": 192,
            "midi": 40,
            "name": "E2",
            "ticks": 54336,
            "time": 75.13267950000001,
            "velocity": 0.7874015748031497
          },
          {
            "duration": 0.1327432500000043,
            "durationTicks": 96,
            "midi": 44,
            "name": "G#2",
            "ticks": 54432,
            "time": 75.26542275,
            "velocity": 0.7874015748031497
          },
          {
            "duration": 0.1327432500000043,
            "durationTicks": 96,
            "midi": 46,
            "name": "A#2",
            "ticks": 54528,
            "time": 75.398166,
            "velocity": 0.7874015748031497
          },
          {
            "duration": 0.2654864999999944,
            "durationTicks": 192,
            "midi": 36,
            "name": "C2",
            "ticks": 54528,
            "time": 75.398166,
            "velocity": 0.7874015748031497
          },
          {
            "duration": 0.1327432499999901,
            "durationTicks": 96,
            "midi": 44,
            "name": "G#2",
            "ticks": 54624,
            "time": 75.53090925000001,
            "velocity": 0.7874015748031497
          },
          {
            "duration": 0.2654865000000086,
            "durationTicks": 192,
            "midi": 40,
            "name": "E2",
            "ticks": 54720,
            "time": 75.6636525,
            "velocity": 0.7874015748031497
          },
          {
            "duration": 0.1327432500000043,
            "durationTicks": 96,
            "midi": 42,
            "name": "F#2",
            "ticks": 54720,
            "time": 75.6636525,
            "velocity": 0.7874015748031497
          },
          {
            "duration": 0.1327432500000043,
            "durationTicks": 96,
            "midi": 44,
            "name": "G#2",
            "ticks": 54816,
            "time": 75.79639575,
            "velocity": 0.7874015748031497
          },
          {
            "duration": 0.1327432500000043,
            "durationTicks": 96,
            "midi": 46,
            "name": "A#2",
            "ticks": 54912,
            "time": 75.929139,
            "velocity": 0.7874015748031497
          },
          {
            "duration": 0.2654864999999944,
            "durationTicks": 192,
            "midi": 36,
            "name": "C2",
            "ticks": 54912,
            "time": 75.929139,
            "velocity": 0.7874015748031497
          },
          {
            "duration": 0.1327432499999901,
            "durationTicks": 96,
            "midi": 44,
            "name": "G#2",
            "ticks": 55008,
            "time": 76.06188225000001,
            "velocity": 0.7874015748031497
          },
          {
            "duration": 0.2654865000000086,
            "durationTicks": 192,
            "midi": 40,
            "name": "E2",
            "ticks": 55104,
            "time": 76.1946255,
            "velocity": 0.7874015748031497
          },
          {
            "duration": 0.1327432500000043,
            "durationTicks": 96,
            "midi": 42,
            "name": "F#2",
            "ticks": 55104,
            "time": 76.1946255,
            "velocity": 0.7874015748031497
          },
          {
            "duration": 0.1327432500000043,
            "durationTicks": 96,
            "midi": 44,
            "name": "G#2",
            "ticks": 55200,
            "time": 76.32736875,
            "velocity": 0.7874015748031497
          },
          {
            "duration": 0.1327432499999901,
            "durationTicks": 96,
            "midi": 46,
            "name": "A#2",
            "ticks": 55296,
            "time": 76.46011200000001,
            "velocity": 0.7874015748031497
          },
          {
            "duration": 0.2654864999999944,
            "durationTicks": 192,
            "midi": 36,
            "name": "C2",
            "ticks": 55296,
            "time": 76.46011200000001,
            "velocity": 0.7874015748031497
          },
          {
            "duration": 0.1327432500000043,
            "durationTicks": 96,
            "midi": 44,
            "name": "G#2",
            "ticks": 55392,
            "time": 76.59285525,
            "velocity": 0.7874015748031497
          },
          {
            "duration": 0.1327432500000043,
            "durationTicks": 96,
            "midi": 42,
            "name": "F#2",
            "ticks": 55488,
            "time": 76.7255985,
            "velocity": 0.7874015748031497
          },
          {
            "duration": 0.2654864999999944,
            "durationTicks": 192,
            "midi": 40,
            "name": "E2",
            "ticks": 55488,
            "time": 76.7255985,
            "velocity": 0.7874015748031497
          },
          {
            "duration": 0.1327432499999901,
            "durationTicks": 96,
            "midi": 44,
            "name": "G#2",
            "ticks": 55584,
            "time": 76.85834175000001,
            "velocity": 0.7874015748031497
          },
          {
            "duration": 0.2654865000000086,
            "durationTicks": 192,
            "midi": 36,
            "name": "C2",
            "ticks": 55680,
            "time": 76.991085,
            "velocity": 0.7874015748031497
          },
          {
            "duration": 0.1327432500000043,
            "durationTicks": 96,
            "midi": 46,
            "name": "A#2",
            "ticks": 55680,
            "time": 76.991085,
            "velocity": 0.7874015748031497
          },
          {
            "duration": 0.1327432500000043,
            "durationTicks": 96,
            "midi": 44,
            "name": "G#2",
            "ticks": 55776,
            "time": 77.12382825,
            "velocity": 0.7874015748031497
          },
          {
            "duration": 0.1327432500000043,
            "durationTicks": 96,
            "midi": 42,
            "name": "F#2",
            "ticks": 55872,
            "time": 77.2565715,
            "velocity": 0.7874015748031497
          },
          {
            "duration": 0.2654864999999944,
            "durationTicks": 192,
            "midi": 40,
            "name": "E2",
            "ticks": 55872,
            "time": 77.2565715,
            "velocity": 0.7874015748031497
          },
          {
            "duration": 0.1327432499999901,
            "durationTicks": 96,
            "midi": 44,
            "name": "G#2",
            "ticks": 55968,
            "time": 77.38931475000001,
            "velocity": 0.7874015748031497
          },
          {
            "duration": 0.1327432500000043,
            "durationTicks": 96,
            "midi": 46,
            "name": "A#2",
            "ticks": 56064,
            "time": 77.522058,
            "velocity": 0.7874015748031497
          },
          {
            "duration": 0.2654865000000086,
            "durationTicks": 192,
            "midi": 36,
            "name": "C2",
            "ticks": 56064,
            "time": 77.522058,
            "velocity": 0.7874015748031497
          },
          {
            "duration": 0.1327432500000043,
            "durationTicks": 96,
            "midi": 44,
            "name": "G#2",
            "ticks": 56160,
            "time": 77.65480125,
            "velocity": 0.7874015748031497
          },
          {
            "duration": 0.1327432499999901,
            "durationTicks": 96,
            "midi": 42,
            "name": "F#2",
            "ticks": 56256,
            "time": 77.78754450000001,
            "velocity": 0.7874015748031497
          },
          {
            "duration": 0.2654864999999944,
            "durationTicks": 192,
            "midi": 40,
            "name": "E2",
            "ticks": 56256,
            "time": 77.78754450000001,
            "velocity": 0.7874015748031497
          },
          {
            "duration": 0.1327432500000043,
            "durationTicks": 96,
            "midi": 44,
            "name": "G#2",
            "ticks": 56352,
            "time": 77.92028775,
            "velocity": 0.7874015748031497
          },
          {
            "duration": 0.1327432500000043,
            "durationTicks": 96,
            "midi": 46,
            "name": "A#2",
            "ticks": 56448,
            "time": 78.053031,
            "velocity": 0.7874015748031497
          },
          {
            "duration": 0.2654864999999944,
            "durationTicks": 192,
            "midi": 36,
            "name": "C2",
            "ticks": 56448,
            "time": 78.053031,
            "velocity": 0.7874015748031497
          },
          {
            "duration": 0.1327432499999901,
            "durationTicks": 96,
            "midi": 44,
            "name": "G#2",
            "ticks": 56544,
            "time": 78.18577425000001,
            "velocity": 0.7874015748031497
          },
          {
            "duration": 0.1327432500000043,
            "durationTicks": 96,
            "midi": 42,
            "name": "F#2",
            "ticks": 56640,
            "time": 78.3185175,
            "velocity": 0.7874015748031497
          },
          {
            "duration": 0.2654865000000086,
            "durationTicks": 192,
            "midi": 40,
            "name": "E2",
            "ticks": 56640,
            "time": 78.3185175,
            "velocity": 0.7874015748031497
          },
          {
            "duration": 0.1327432500000043,
            "durationTicks": 96,
            "midi": 44,
            "name": "G#2",
            "ticks": 56736,
            "time": 78.45126075,
            "velocity": 0.7874015748031497
          },
          {
            "duration": 0.1327432499999901,
            "durationTicks": 96,
            "midi": 46,
            "name": "A#2",
            "ticks": 56832,
            "time": 78.58400400000001,
            "velocity": 0.7874015748031497
          },
          {
            "duration": 0.2654864999999944,
            "durationTicks": 192,
            "midi": 36,
            "name": "C2",
            "ticks": 56832,
            "time": 78.58400400000001,
            "velocity": 0.7874015748031497
          },
          {
            "duration": 0.1327432500000043,
            "durationTicks": 96,
            "midi": 44,
            "name": "G#2",
            "ticks": 56928,
            "time": 78.71674725,
            "velocity": 0.7874015748031497
          },
          {
            "duration": 0.2654865000000086,
            "durationTicks": 192,
            "midi": 40,
            "name": "E2",
            "ticks": 57024,
            "time": 78.8494905,
            "velocity": 0.7874015748031497
          },
          {
            "duration": 0.1327432500000043,
            "durationTicks": 96,
            "midi": 42,
            "name": "F#2",
            "ticks": 57024,
            "time": 78.8494905,
            "velocity": 0.7874015748031497
          },
          {
            "duration": 0.1327432500000043,
            "durationTicks": 96,
            "midi": 44,
            "name": "G#2",
            "ticks": 57120,
            "time": 78.98223375,
            "velocity": 0.7874015748031497
          },
          {
            "duration": 0.2654864999999944,
            "durationTicks": 192,
            "midi": 36,
            "name": "C2",
            "ticks": 57216,
            "time": 79.11497700000001,
            "velocity": 0.7874015748031497
          },
          {
            "duration": 0.1327432499999901,
            "durationTicks": 96,
            "midi": 46,
            "name": "A#2",
            "ticks": 57216,
            "time": 79.11497700000001,
            "velocity": 0.7874015748031497
          },
          {
            "duration": 0.1327432500000043,
            "durationTicks": 96,
            "midi": 44,
            "name": "G#2",
            "ticks": 57312,
            "time": 79.24772025,
            "velocity": 0.7874015748031497
          },
          {
            "duration": 0.2654864999999944,
            "durationTicks": 192,
            "midi": 40,
            "name": "E2",
            "ticks": 57408,
            "time": 79.3804635,
            "velocity": 0.7874015748031497
          },
          {
            "duration": 0.1327432500000043,
            "durationTicks": 96,
            "midi": 42,
            "name": "F#2",
            "ticks": 57408,
            "time": 79.3804635,
            "velocity": 0.7874015748031497
          },
          {
            "duration": 0.1327432499999901,
            "durationTicks": 96,
            "midi": 44,
            "name": "G#2",
            "ticks": 57504,
            "time": 79.51320675000001,
            "velocity": 0.7874015748031497
          },
          {
            "duration": 0.2654865000000086,
            "durationTicks": 192,
            "midi": 36,
            "name": "C2",
            "ticks": 57600,
            "time": 79.64595,
            "velocity": 0.7874015748031497
          },
          {
            "duration": 0.1327432500000043,
            "durationTicks": 96,
            "midi": 46,
            "name": "A#2",
            "ticks": 57600,
            "time": 79.64595,
            "velocity": 0.7874015748031497
          },
          {
            "duration": 0.1327432500000043,
            "durationTicks": 96,
            "midi": 44,
            "name": "G#2",
            "ticks": 57696,
            "time": 79.77869325,
            "velocity": 0.7874015748031497
          },
          {
            "duration": 0.2654864999999944,
            "durationTicks": 192,
            "midi": 40,
            "name": "E2",
            "ticks": 57792,
            "time": 79.91143650000001,
            "velocity": 0.7874015748031497
          },
          {
            "duration": 0.1327432499999901,
            "durationTicks": 96,
            "midi": 42,
            "name": "F#2",
            "ticks": 57792,
            "time": 79.91143650000001,
            "velocity": 0.7874015748031497
          },
          {
            "duration": 0.1327432500000043,
            "durationTicks": 96,
            "midi": 44,
            "name": "G#2",
            "ticks": 57888,
            "time": 80.04417975,
            "velocity": 0.7874015748031497
          },
          {
            "duration": 0.1327432500000043,
            "durationTicks": 96,
            "midi": 46,
            "name": "A#2",
            "ticks": 57984,
            "time": 80.176923,
            "velocity": 0.7874015748031497
          },
          {
            "duration": 0.2654865000000086,
            "durationTicks": 192,
            "midi": 36,
            "name": "C2",
            "ticks": 57984,
            "time": 80.176923,
            "velocity": 0.7874015748031497
          },
          {
            "duration": 0.1327432500000043,
            "durationTicks": 96,
            "midi": 44,
            "name": "G#2",
            "ticks": 58080,
            "time": 80.30966625,
            "velocity": 0.7874015748031497
          },
          {
            "duration": 0.1327432499999901,
            "durationTicks": 96,
            "midi": 42,
            "name": "F#2",
            "ticks": 58176,
            "time": 80.44240950000001,
            "velocity": 0.7874015748031497
          },
          {
            "duration": 0.2654864999999944,
            "durationTicks": 192,
            "midi": 40,
            "name": "E2",
            "ticks": 58176,
            "time": 80.44240950000001,
            "velocity": 0.7874015748031497
          },
          {
            "duration": 0.1327432500000043,
            "durationTicks": 96,
            "midi": 44,
            "name": "G#2",
            "ticks": 58272,
            "time": 80.57515275,
            "velocity": 0.7874015748031497
          },
          {
            "duration": 0.2654864999999944,
            "durationTicks": 192,
            "midi": 36,
            "name": "C2",
            "ticks": 58368,
            "time": 80.707896,
            "velocity": 0.7874015748031497
          },
          {
            "duration": 0.1327432500000043,
            "durationTicks": 96,
            "midi": 46,
            "name": "A#2",
            "ticks": 58368,
            "time": 80.707896,
            "velocity": 0.7874015748031497
          },
          {
            "duration": 0.1327432499999901,
            "durationTicks": 96,
            "midi": 44,
            "name": "G#2",
            "ticks": 58464,
            "time": 80.84063925000001,
            "velocity": 0.7874015748031497
          },
          {
            "duration": 0.2654865000000086,
            "durationTicks": 192,
            "midi": 40,
            "name": "E2",
            "ticks": 58560,
            "time": 80.9733825,
            "velocity": 0.7874015748031497
          },
          {
            "duration": 0.1327432500000043,
            "durationTicks": 96,
            "midi": 42,
            "name": "F#2",
            "ticks": 58560,
            "time": 80.9733825,
            "velocity": 0.7874015748031497
          },
          {
            "duration": 0.1327432500000043,
            "durationTicks": 96,
            "midi": 44,
            "name": "G#2",
            "ticks": 58656,
            "time": 81.10612575,
            "velocity": 0.7874015748031497
          },
          {
            "duration": 0.2654864999999944,
            "durationTicks": 192,
            "midi": 36,
            "name": "C2",
            "ticks": 58752,
            "time": 81.23886900000001,
            "velocity": 0.7874015748031497
          },
          {
            "duration": 0.1327432499999901,
            "durationTicks": 96,
            "midi": 46,
            "name": "A#2",
            "ticks": 58752,
            "time": 81.23886900000001,
            "velocity": 0.7874015748031497
          },
          {
            "duration": 0.1327432500000043,
            "durationTicks": 96,
            "midi": 44,
            "name": "G#2",
            "ticks": 58848,
            "time": 81.37161225,
            "velocity": 0.7874015748031497
          },
          {
            "duration": 0.1327432500000043,
            "durationTicks": 96,
            "midi": 42,
            "name": "F#2",
            "ticks": 58944,
            "time": 81.5043555,
            "velocity": 0.7874015748031497
          },
          {
            "duration": 0.2654865000000086,
            "durationTicks": 192,
            "midi": 40,
            "name": "E2",
            "ticks": 58944,
            "time": 81.5043555,
            "velocity": 0.7874015748031497
          },
          {
            "duration": 0.1327432500000043,
            "durationTicks": 96,
            "midi": 44,
            "name": "G#2",
            "ticks": 59040,
            "time": 81.63709875,
            "velocity": 0.7874015748031497
          },
          {
            "duration": 0.2654864999999944,
            "durationTicks": 192,
            "midi": 36,
            "name": "C2",
            "ticks": 59136,
            "time": 81.76984200000001,
            "velocity": 0.7874015748031497
          },
          {
            "duration": 0.1327432499999901,
            "durationTicks": 96,
            "midi": 46,
            "name": "A#2",
            "ticks": 59136,
            "time": 81.76984200000001,
            "velocity": 0.7874015748031497
          },
          {
            "duration": 0.1327432500000043,
            "durationTicks": 96,
            "midi": 44,
            "name": "G#2",
            "ticks": 59232,
            "time": 81.90258525,
            "velocity": 0.7874015748031497
          },
          {
            "duration": 0.2654864999999944,
            "durationTicks": 192,
            "midi": 40,
            "name": "E2",
            "ticks": 59328,
            "time": 82.0353285,
            "velocity": 0.7874015748031497
          },
          {
            "duration": 0.1327432500000043,
            "durationTicks": 96,
            "midi": 42,
            "name": "F#2",
            "ticks": 59328,
            "time": 82.0353285,
            "velocity": 0.7874015748031497
          },
          {
            "duration": 0.1327432499999901,
            "durationTicks": 96,
            "midi": 44,
            "name": "G#2",
            "ticks": 59424,
            "time": 82.16807175000001,
            "velocity": 0.7874015748031497
          },
          {
            "duration": 0.2654865000000086,
            "durationTicks": 192,
            "midi": 36,
            "name": "C2",
            "ticks": 59520,
            "time": 82.300815,
            "velocity": 0.7874015748031497
          },
          {
            "duration": 0.1327432500000043,
            "durationTicks": 96,
            "midi": 46,
            "name": "A#2",
            "ticks": 59520,
            "time": 82.300815,
            "velocity": 0.7874015748031497
          },
          {
            "duration": 0.1327432500000043,
            "durationTicks": 96,
            "midi": 44,
            "name": "G#2",
            "ticks": 59616,
            "time": 82.43355825,
            "velocity": 0.7874015748031497
          },
          {
            "duration": 0.2654864999999944,
            "durationTicks": 192,
            "midi": 40,
            "name": "E2",
            "ticks": 59712,
            "time": 82.56630150000001,
            "velocity": 0.7874015748031497
          },
          {
            "duration": 0.1327432499999901,
            "durationTicks": 96,
            "midi": 42,
            "name": "F#2",
            "ticks": 59712,
            "time": 82.56630150000001,
            "velocity": 0.7874015748031497
          },
          {
            "duration": 0.1327432500000043,
            "durationTicks": 96,
            "midi": 44,
            "name": "G#2",
            "ticks": 59808,
            "time": 82.69904475,
            "velocity": 0.7874015748031497
          },
          {
            "duration": 0.2654864999999944,
            "durationTicks": 192,
            "midi": 36,
            "name": "C2",
            "ticks": 59904,
            "time": 82.831788,
            "velocity": 0.7874015748031497
          },
          {
            "duration": 0.1327432500000043,
            "durationTicks": 96,
            "midi": 46,
            "name": "A#2",
            "ticks": 59904,
            "time": 82.831788,
            "velocity": 0.7874015748031497
          },
          {
            "duration": 0.1327432499999901,
            "durationTicks": 96,
            "midi": 44,
            "name": "G#2",
            "ticks": 60000,
            "time": 82.96453125000001,
            "velocity": 0.7874015748031497
          },
          {
            "duration": 0.1327432500000043,
            "durationTicks": 96,
            "midi": 42,
            "name": "F#2",
            "ticks": 60096,
            "time": 83.0972745,
            "velocity": 0.7874015748031497
          },
          {
            "duration": 0.2654865000000086,
            "durationTicks": 192,
            "midi": 40,
            "name": "E2",
            "ticks": 60096,
            "time": 83.0972745,
            "velocity": 0.7874015748031497
          },
          {
            "duration": 0.1327432500000043,
            "durationTicks": 96,
            "midi": 44,
            "name": "G#2",
            "ticks": 60192,
            "time": 83.23001775,
            "velocity": 0.7874015748031497
          },
          {
            "duration": 0.2654864999999944,
            "durationTicks": 192,
            "midi": 36,
            "name": "C2",
            "ticks": 60288,
            "time": 83.362761,
            "velocity": 0.7874015748031497
          },
          {
            "duration": 0.1327432500000043,
            "durationTicks": 96,
            "midi": 46,
            "name": "A#2",
            "ticks": 60288,
            "time": 83.362761,
            "velocity": 0.7874015748031497
          },
          {
            "duration": 0.1327432499999901,
            "durationTicks": 96,
            "midi": 44,
            "name": "G#2",
            "ticks": 60384,
            "time": 83.49550425000001,
            "velocity": 0.7874015748031497
          },
          {
            "duration": 0.2654865000000086,
            "durationTicks": 192,
            "midi": 40,
            "name": "E2",
            "ticks": 60480,
            "time": 83.6282475,
            "velocity": 0.7874015748031497
          },
          {
            "duration": 0.1327432500000043,
            "durationTicks": 96,
            "midi": 42,
            "name": "F#2",
            "ticks": 60480,
            "time": 83.6282475,
            "velocity": 0.7874015748031497
          },
          {
            "duration": 0.1327432500000043,
            "durationTicks": 96,
            "midi": 44,
            "name": "G#2",
            "ticks": 60576,
            "time": 83.76099075,
            "velocity": 0.7874015748031497
          },
          {
            "duration": 0.1327432499999901,
            "durationTicks": 96,
            "midi": 46,
            "name": "A#2",
            "ticks": 60672,
            "time": 83.89373400000001,
            "velocity": 0.7874015748031497
          },
          {
            "duration": 0.2654864999999944,
            "durationTicks": 192,
            "midi": 36,
            "name": "C2",
            "ticks": 60672,
            "time": 83.89373400000001,
            "velocity": 0.7874015748031497
          },
          {
            "duration": 0.1327432500000043,
            "durationTicks": 96,
            "midi": 44,
            "name": "G#2",
            "ticks": 60768,
            "time": 84.02647725,
            "velocity": 0.7874015748031497
          },
          {
            "duration": 0.1327432500000043,
            "durationTicks": 96,
            "midi": 42,
            "name": "F#2",
            "ticks": 60864,
            "time": 84.1592205,
            "velocity": 0.7874015748031497
          },
          {
            "duration": 0.2654864999999944,
            "durationTicks": 192,
            "midi": 40,
            "name": "E2",
            "ticks": 60864,
            "time": 84.1592205,
            "velocity": 0.7874015748031497
          },
          {
            "duration": 0.1327432499999901,
            "durationTicks": 96,
            "midi": 44,
            "name": "G#2",
            "ticks": 60960,
            "time": 84.29196375000001,
            "velocity": 0.7874015748031497
          },
          {
            "duration": 0.1327432500000043,
            "durationTicks": 96,
            "midi": 46,
            "name": "A#2",
            "ticks": 61056,
            "time": 84.424707,
            "velocity": 0.7874015748031497
          },
          {
            "duration": 0.2654865000000086,
            "durationTicks": 192,
            "midi": 36,
            "name": "C2",
            "ticks": 61056,
            "time": 84.424707,
            "velocity": 0.7874015748031497
          },
          {
            "duration": 0.1327432500000043,
            "durationTicks": 96,
            "midi": 44,
            "name": "G#2",
            "ticks": 61152,
            "time": 84.55745025,
            "velocity": 0.7874015748031497
          },
          {
            "duration": 0.1327432500000043,
            "durationTicks": 96,
            "midi": 42,
            "name": "F#2",
            "ticks": 61248,
            "time": 84.6901935,
            "velocity": 0.7874015748031497
          },
          {
            "duration": 0.2654864999999944,
            "durationTicks": 192,
            "midi": 40,
            "name": "E2",
            "ticks": 61248,
            "time": 84.6901935,
            "velocity": 0.7874015748031497
          },
          {
            "duration": 0.1327432499999901,
            "durationTicks": 96,
            "midi": 44,
            "name": "G#2",
            "ticks": 61344,
            "time": 84.82293675000001,
            "velocity": 0.7874015748031497
          },
          {
            "duration": 0.1327432500000043,
            "durationTicks": 96,
            "midi": 46,
            "name": "A#2",
            "ticks": 61440,
            "time": 84.95568,
            "velocity": 0.7874015748031497
          },
          {
            "duration": 0.2654865000000086,
            "durationTicks": 192,
            "midi": 36,
            "name": "C2",
            "ticks": 61440,
            "time": 84.95568,
            "velocity": 0.7874015748031497
          },
          {
            "duration": 0.1327432500000043,
            "durationTicks": 96,
            "midi": 44,
            "name": "G#2",
            "ticks": 61536,
            "time": 85.08842325,
            "velocity": 0.7874015748031497
          },
          {
            "duration": 0.1327432499999901,
            "durationTicks": 96,
            "midi": 42,
            "name": "F#2",
            "ticks": 61632,
            "time": 85.22116650000001,
            "velocity": 0.7874015748031497
          },
          {
            "duration": 0.2654864999999944,
            "durationTicks": 192,
            "midi": 40,
            "name": "E2",
            "ticks": 61632,
            "time": 85.22116650000001,
            "velocity": 0.7874015748031497
          },
          {
            "duration": 0.1327432500000043,
            "durationTicks": 96,
            "midi": 44,
            "name": "G#2",
            "ticks": 61728,
            "time": 85.35390975,
            "velocity": 0.7874015748031497
          },
          {
            "duration": 0.1327432500000043,
            "durationTicks": 96,
            "midi": 46,
            "name": "A#2",
            "ticks": 61824,
            "time": 85.486653,
            "velocity": 0.7874015748031497
          },
          {
            "duration": 0.2654864999999944,
            "durationTicks": 192,
            "midi": 36,
            "name": "C2",
            "ticks": 61824,
            "time": 85.486653,
            "velocity": 0.7874015748031497
          },
          {
            "duration": 0.1327432499999901,
            "durationTicks": 96,
            "midi": 44,
            "name": "G#2",
            "ticks": 61920,
            "time": 85.61939625000001,
            "velocity": 0.7874015748031497
          },
          {
            "duration": 0.2654865000000086,
            "durationTicks": 192,
            "midi": 40,
            "name": "E2",
            "ticks": 62016,
            "time": 85.7521395,
            "velocity": 0.7874015748031497
          },
          {
            "duration": 0.1327432500000043,
            "durationTicks": 96,
            "midi": 42,
            "name": "F#2",
            "ticks": 62016,
            "time": 85.7521395,
            "velocity": 0.7874015748031497
          },
          {
            "duration": 0.1327432500000043,
            "durationTicks": 96,
            "midi": 44,
            "name": "G#2",
            "ticks": 62112,
            "time": 85.88488275,
            "velocity": 0.7874015748031497
          },
          {
            "duration": 0.1327432500000043,
            "durationTicks": 96,
            "midi": 46,
            "name": "A#2",
            "ticks": 62208,
            "time": 86.017626,
            "velocity": 0.7874015748031497
          },
          {
            "duration": 0.2654864999999944,
            "durationTicks": 192,
            "midi": 36,
            "name": "C2",
            "ticks": 62208,
            "time": 86.017626,
            "velocity": 0.7874015748031497
          },
          {
            "duration": 0.1327432499999901,
            "durationTicks": 96,
            "midi": 44,
            "name": "G#2",
            "ticks": 62304,
            "time": 86.15036925000001,
            "velocity": 0.7874015748031497
          },
          {
            "duration": 0.1327432500000043,
            "durationTicks": 96,
            "midi": 42,
            "name": "F#2",
            "ticks": 62400,
            "time": 86.2831125,
            "velocity": 0.7874015748031497
          },
          {
            "duration": 0.2654865000000086,
            "durationTicks": 192,
            "midi": 40,
            "name": "E2",
            "ticks": 62400,
            "time": 86.2831125,
            "velocity": 0.7874015748031497
          },
          {
            "duration": 0.1327432500000043,
            "durationTicks": 96,
            "midi": 44,
            "name": "G#2",
            "ticks": 62496,
            "time": 86.41585575,
            "velocity": 0.7874015748031497
          },
          {
            "duration": 0.2654864999999944,
            "durationTicks": 192,
            "midi": 36,
            "name": "C2",
            "ticks": 62592,
            "time": 86.54859900000001,
            "velocity": 0.7874015748031497
          },
          {
            "duration": 0.1327432499999901,
            "durationTicks": 96,
            "midi": 46,
            "name": "A#2",
            "ticks": 62592,
            "time": 86.54859900000001,
            "velocity": 0.7874015748031497
          },
          {
            "duration": 0.1327432500000043,
            "durationTicks": 96,
            "midi": 44,
            "name": "G#2",
            "ticks": 62688,
            "time": 86.68134225,
            "velocity": 0.7874015748031497
          },
          {
            "duration": 0.2654864999999944,
            "durationTicks": 192,
            "midi": 40,
            "name": "E2",
            "ticks": 62784,
            "time": 86.8140855,
            "velocity": 0.7874015748031497
          },
          {
            "duration": 0.1327432500000043,
            "durationTicks": 96,
            "midi": 42,
            "name": "F#2",
            "ticks": 62784,
            "time": 86.8140855,
            "velocity": 0.7874015748031497
          },
          {
            "duration": 0.1327432499999901,
            "durationTicks": 96,
            "midi": 44,
            "name": "G#2",
            "ticks": 62880,
            "time": 86.94682875000001,
            "velocity": 0.7874015748031497
          },
          {
            "duration": 0.1327432500000043,
            "durationTicks": 96,
            "midi": 46,
            "name": "A#2",
            "ticks": 62976,
            "time": 87.079572,
            "velocity": 0.7874015748031497
          },
          {
            "duration": 0.2654865000000086,
            "durationTicks": 192,
            "midi": 36,
            "name": "C2",
            "ticks": 62976,
            "time": 87.079572,
            "velocity": 0.7874015748031497
          },
          {
            "duration": 0.1327432500000043,
            "durationTicks": 96,
            "midi": 44,
            "name": "G#2",
            "ticks": 63072,
            "time": 87.21231525,
            "velocity": 0.7874015748031497
          },
          {
            "duration": 0.1327432499999901,
            "durationTicks": 96,
            "midi": 42,
            "name": "F#2",
            "ticks": 63168,
            "time": 87.34505850000001,
            "velocity": 0.7874015748031497
          },
          {
            "duration": 0.2654864999999944,
            "durationTicks": 192,
            "midi": 40,
            "name": "E2",
            "ticks": 63168,
            "time": 87.34505850000001,
            "velocity": 0.7874015748031497
          },
          {
            "duration": 0.1327432500000043,
            "durationTicks": 96,
            "midi": 44,
            "name": "G#2",
            "ticks": 63264,
            "time": 87.47780175,
            "velocity": 0.7874015748031497
          },
          {
            "duration": 0.2654865000000086,
            "durationTicks": 192,
            "midi": 36,
            "name": "C2",
            "ticks": 63360,
            "time": 87.610545,
            "velocity": 0.7874015748031497
          },
          {
            "duration": 0.1327432500000043,
            "durationTicks": 96,
            "midi": 46,
            "name": "A#2",
            "ticks": 63360,
            "time": 87.610545,
            "velocity": 0.7874015748031497
          },
          {
            "duration": 0.1327432500000043,
            "durationTicks": 96,
            "midi": 44,
            "name": "G#2",
            "ticks": 63456,
            "time": 87.74328825,
            "velocity": 0.7874015748031497
          },
          {
            "duration": 0.1327432499999901,
            "durationTicks": 96,
            "midi": 42,
            "name": "F#2",
            "ticks": 63552,
            "time": 87.87603150000001,
            "velocity": 0.7874015748031497
          },
          {
            "duration": 0.2654864999999944,
            "durationTicks": 192,
            "midi": 40,
            "name": "E2",
            "ticks": 63552,
            "time": 87.87603150000001,
            "velocity": 0.7874015748031497
          },
          {
            "duration": 0.1327432500000043,
            "durationTicks": 96,
            "midi": 44,
            "name": "G#2",
            "ticks": 63648,
            "time": 88.00877475,
            "velocity": 0.7874015748031497
          },
          {
            "duration": 0.1327432500000043,
            "durationTicks": 96,
            "midi": 46,
            "name": "A#2",
            "ticks": 63744,
            "time": 88.141518,
            "velocity": 0.7874015748031497
          },
          {
            "duration": 0.2654864999999944,
            "durationTicks": 192,
            "midi": 36,
            "name": "C2",
            "ticks": 63744,
            "time": 88.141518,
            "velocity": 0.7874015748031497
          },
          {
            "duration": 0.1327432499999901,
            "durationTicks": 96,
            "midi": 44,
            "name": "G#2",
            "ticks": 63840,
            "time": 88.27426125000001,
            "velocity": 0.7874015748031497
          },
          {
            "duration": 0.2654865000000086,
            "durationTicks": 192,
            "midi": 40,
            "name": "E2",
            "ticks": 63936,
            "time": 88.4070045,
            "velocity": 0.7874015748031497
          },
          {
            "duration": 0.1327432500000043,
            "durationTicks": 96,
            "midi": 42,
            "name": "F#2",
            "ticks": 63936,
            "time": 88.4070045,
            "velocity": 0.7874015748031497
          },
          {
            "duration": 0.1327432500000043,
            "durationTicks": 96,
            "midi": 44,
            "name": "G#2",
            "ticks": 64032,
            "time": 88.53974775,
            "velocity": 0.7874015748031497
          },
          {
            "duration": 0.1327432499999901,
            "durationTicks": 96,
            "midi": 46,
            "name": "A#2",
            "ticks": 64128,
            "time": 88.67249100000001,
            "velocity": 0.7874015748031497
          },
          {
            "duration": 0.2654864999999944,
            "durationTicks": 192,
            "midi": 36,
            "name": "C2",
            "ticks": 64128,
            "time": 88.67249100000001,
            "velocity": 0.7874015748031497
          },
          {
            "duration": 0.1327432500000043,
            "durationTicks": 96,
            "midi": 44,
            "name": "G#2",
            "ticks": 64224,
            "time": 88.80523425,
            "velocity": 0.7874015748031497
          },
          {
            "duration": 0.1327432500000043,
            "durationTicks": 96,
            "midi": 42,
            "name": "F#2",
            "ticks": 64320,
            "time": 88.9379775,
            "velocity": 0.7874015748031497
          },
          {
            "duration": 0.2654865000000086,
            "durationTicks": 192,
            "midi": 40,
            "name": "E2",
            "ticks": 64320,
            "time": 88.9379775,
            "velocity": 0.7874015748031497
          },
          {
            "duration": 0.1327432500000043,
            "durationTicks": 96,
            "midi": 44,
            "name": "G#2",
            "ticks": 64416,
            "time": 89.07072075,
            "velocity": 0.7874015748031497
          },
          {
            "duration": 0.1327432499999901,
            "durationTicks": 96,
            "midi": 46,
            "name": "A#2",
            "ticks": 64512,
            "time": 89.20346400000001,
            "velocity": 0.7874015748031497
          },
          {
            "duration": 0.2654864999999944,
            "durationTicks": 192,
            "midi": 36,
            "name": "C2",
            "ticks": 64512,
            "time": 89.20346400000001,
            "velocity": 0.7874015748031497
          },
          {
            "duration": 0.1327432500000043,
            "durationTicks": 96,
            "midi": 44,
            "name": "G#2",
            "ticks": 64608,
            "time": 89.33620725,
            "velocity": 0.7874015748031497
          },
          {
            "duration": 0.1327432500000043,
            "durationTicks": 96,
            "midi": 42,
            "name": "F#2",
            "ticks": 64704,
            "time": 89.4689505,
            "velocity": 0.7874015748031497
          },
          {
            "duration": 0.2654864999999944,
            "durationTicks": 192,
            "midi": 40,
            "name": "E2",
            "ticks": 64704,
            "time": 89.4689505,
            "velocity": 0.7874015748031497
          },
          {
            "duration": 0.1327432499999901,
            "durationTicks": 96,
            "midi": 44,
            "name": "G#2",
            "ticks": 64800,
            "time": 89.60169375000001,
            "velocity": 0.7874015748031497
          },
          {
            "duration": 0.2654865000000086,
            "durationTicks": 192,
            "midi": 36,
            "name": "C2",
            "ticks": 64896,
            "time": 89.734437,
            "velocity": 0.7874015748031497
          },
          {
            "duration": 0.1327432500000043,
            "durationTicks": 96,
            "midi": 46,
            "name": "A#2",
            "ticks": 64896,
            "time": 89.734437,
            "velocity": 0.7874015748031497
          },
          {
            "duration": 0.1327432500000043,
            "durationTicks": 96,
            "midi": 44,
            "name": "G#2",
            "ticks": 64992,
            "time": 89.86718025,
            "velocity": 0.7874015748031497
          },
          {
            "duration": 0.2654864999999944,
            "durationTicks": 192,
            "midi": 40,
            "name": "E2",
            "ticks": 65088,
            "time": 89.99992350000001,
            "velocity": 0.7874015748031497
          },
          {
            "duration": 0.1327432499999901,
            "durationTicks": 96,
            "midi": 42,
            "name": "F#2",
            "ticks": 65088,
            "time": 89.99992350000001,
            "velocity": 0.7874015748031497
          },
          {
            "duration": 0.1327432500000043,
            "durationTicks": 96,
            "midi": 44,
            "name": "G#2",
            "ticks": 65184,
            "time": 90.13266675,
            "velocity": 0.7874015748031497
          },
          {
            "duration": 0.1327432500000043,
            "durationTicks": 96,
            "midi": 46,
            "name": "A#2",
            "ticks": 65280,
            "time": 90.26541,
            "velocity": 0.7874015748031497
          },
          {
            "duration": 0.2654865000000086,
            "durationTicks": 192,
            "midi": 36,
            "name": "C2",
            "ticks": 65280,
            "time": 90.26541,
            "velocity": 0.7874015748031497
          },
          {
            "duration": 0.1327432500000043,
            "durationTicks": 96,
            "midi": 44,
            "name": "G#2",
            "ticks": 65376,
            "time": 90.39815325000001,
            "velocity": 0.7874015748031497
          },
          {
            "duration": 0.2654864999999944,
            "durationTicks": 192,
            "midi": 40,
            "name": "E2",
            "ticks": 65472,
            "time": 90.53089650000001,
            "velocity": 0.7874015748031497
          },
          {
            "duration": 0.1327432499999901,
            "durationTicks": 96,
            "midi": 42,
            "name": "F#2",
            "ticks": 65472,
            "time": 90.53089650000001,
            "velocity": 0.7874015748031497
          },
          {
            "duration": 0.1327432500000043,
            "durationTicks": 96,
            "midi": 44,
            "name": "G#2",
            "ticks": 65568,
            "time": 90.66363975,
            "velocity": 0.7874015748031497
          },
          {
            "duration": 0.1327432500000043,
            "durationTicks": 96,
            "midi": 46,
            "name": "A#2",
            "ticks": 65664,
            "time": 90.796383,
            "velocity": 0.7874015748031497
          },
          {
            "duration": 0.2654864999999944,
            "durationTicks": 192,
            "midi": 36,
            "name": "C2",
            "ticks": 65664,
            "time": 90.796383,
            "velocity": 0.7874015748031497
          },
          {
            "duration": 0.1327432499999901,
            "durationTicks": 96,
            "midi": 44,
            "name": "G#2",
            "ticks": 65760,
            "time": 90.92912625000001,
            "velocity": 0.7874015748031497
          },
          {
            "duration": 0.2654865000000086,
            "durationTicks": 192,
            "midi": 40,
            "name": "E2",
            "ticks": 65856,
            "time": 91.0618695,
            "velocity": 0.7874015748031497
          },
          {
            "duration": 0.1327432500000043,
            "durationTicks": 96,
            "midi": 42,
            "name": "F#2",
            "ticks": 65856,
            "time": 91.0618695,
            "velocity": 0.7874015748031497
          },
          {
            "duration": 0.1327432500000043,
            "durationTicks": 96,
            "midi": 44,
            "name": "G#2",
            "ticks": 65952,
            "time": 91.19461275,
            "velocity": 0.7874015748031497
          },
          {
            "duration": 0.1327432499999901,
            "durationTicks": 96,
            "midi": 46,
            "name": "A#2",
            "ticks": 66048,
            "time": 91.32735600000001,
            "velocity": 0.7874015748031497
          },
          {
            "duration": 0.2654864999999944,
            "durationTicks": 192,
            "midi": 36,
            "name": "C2",
            "ticks": 66048,
            "time": 91.32735600000001,
            "velocity": 0.7874015748031497
          },
          {
            "duration": 0.1327432500000043,
            "durationTicks": 96,
            "midi": 44,
            "name": "G#2",
            "ticks": 66144,
            "time": 91.46009925,
            "velocity": 0.7874015748031497
          },
          {
            "duration": 0.2654865000000086,
            "durationTicks": 192,
            "midi": 40,
            "name": "E2",
            "ticks": 66240,
            "time": 91.5928425,
            "velocity": 0.7874015748031497
          },
          {
            "duration": 0.1327432500000043,
            "durationTicks": 96,
            "midi": 42,
            "name": "F#2",
            "ticks": 66240,
            "time": 91.5928425,
            "velocity": 0.7874015748031497
          },
          {
            "duration": 0.1327432500000043,
            "durationTicks": 96,
            "midi": 44,
            "name": "G#2",
            "ticks": 66336,
            "time": 91.72558575000001,
            "velocity": 0.7874015748031497
          },
          {
            "duration": 0.1327432499999901,
            "durationTicks": 96,
            "midi": 46,
            "name": "A#2",
            "ticks": 66432,
            "time": 91.85832900000001,
            "velocity": 0.7874015748031497
          },
          {
            "duration": 0.2654864999999944,
            "durationTicks": 192,
            "midi": 36,
            "name": "C2",
            "ticks": 66432,
            "time": 91.85832900000001,
            "velocity": 0.7874015748031497
          },
          {
            "duration": 0.1327432500000043,
            "durationTicks": 96,
            "midi": 44,
            "name": "G#2",
            "ticks": 66528,
            "time": 91.99107225,
            "velocity": 0.7874015748031497
          },
          {
            "duration": 0.2654864999999944,
            "durationTicks": 192,
            "midi": 40,
            "name": "E2",
            "ticks": 66624,
            "time": 92.1238155,
            "velocity": 0.7874015748031497
          },
          {
            "duration": 0.1327432500000043,
            "durationTicks": 96,
            "midi": 42,
            "name": "F#2",
            "ticks": 66624,
            "time": 92.1238155,
            "velocity": 0.7874015748031497
          },
          {
            "duration": 0.1327432499999901,
            "durationTicks": 96,
            "midi": 44,
            "name": "G#2",
            "ticks": 66720,
            "time": 92.25655875000001,
            "velocity": 0.7874015748031497
          },
          {
            "duration": 0.1327432500000043,
            "durationTicks": 96,
            "midi": 46,
            "name": "A#2",
            "ticks": 66816,
            "time": 92.389302,
            "velocity": 0.7874015748031497
          },
          {
            "duration": 0.2654865000000086,
            "durationTicks": 192,
            "midi": 36,
            "name": "C2",
            "ticks": 66816,
            "time": 92.389302,
            "velocity": 0.7874015748031497
          },
          {
            "duration": 0.1327432500000043,
            "durationTicks": 96,
            "midi": 44,
            "name": "G#2",
            "ticks": 66912,
            "time": 92.52204525,
            "velocity": 0.7874015748031497
          },
          {
            "duration": 0.1327432499999901,
            "durationTicks": 96,
            "midi": 42,
            "name": "F#2",
            "ticks": 67008,
            "time": 92.65478850000001,
            "velocity": 0.7874015748031497
          },
          {
            "duration": 0.2654864999999944,
            "durationTicks": 192,
            "midi": 40,
            "name": "E2",
            "ticks": 67008,
            "time": 92.65478850000001,
            "velocity": 0.7874015748031497
          },
          {
            "duration": 0.1327432500000043,
            "durationTicks": 96,
            "midi": 44,
            "name": "G#2",
            "ticks": 67104,
            "time": 92.78753175,
            "velocity": 0.7874015748031497
          },
          {
            "duration": 0.1327432500000043,
            "durationTicks": 96,
            "midi": 46,
            "name": "A#2",
            "ticks": 67200,
            "time": 92.920275,
            "velocity": 0.7874015748031497
          },
          {
            "duration": 0.2654864999999944,
            "durationTicks": 192,
            "midi": 36,
            "name": "C2",
            "ticks": 67200,
            "time": 92.920275,
            "velocity": 0.7874015748031497
          },
          {
            "duration": 0.1327432499999901,
            "durationTicks": 96,
            "midi": 44,
            "name": "G#2",
            "ticks": 67296,
            "time": 93.05301825000001,
            "velocity": 0.7874015748031497
          },
          {
            "duration": 0.1327432500000043,
            "durationTicks": 96,
            "midi": 42,
            "name": "F#2",
            "ticks": 67392,
            "time": 93.1857615,
            "velocity": 0.7874015748031497
          },
          {
            "duration": 0.2654865000000086,
            "durationTicks": 192,
            "midi": 40,
            "name": "E2",
            "ticks": 67392,
            "time": 93.1857615,
            "velocity": 0.7874015748031497
          },
          {
            "duration": 0.1327432500000043,
            "durationTicks": 96,
            "midi": 44,
            "name": "G#2",
            "ticks": 67488,
            "time": 93.31850475,
            "velocity": 0.7874015748031497
          },
          {
            "duration": 0.1327432500000043,
            "durationTicks": 96,
            "midi": 46,
            "name": "A#2",
            "ticks": 67584,
            "time": 93.451248,
            "velocity": 0.7874015748031497
          },
          {
            "duration": 0.2654864999999944,
            "durationTicks": 192,
            "midi": 36,
            "name": "C2",
            "ticks": 67584,
            "time": 93.451248,
            "velocity": 0.7874015748031497
          },
          {
            "duration": 0.1327432499999901,
            "durationTicks": 96,
            "midi": 44,
            "name": "G#2",
            "ticks": 67680,
            "time": 93.58399125000001,
            "velocity": 0.7874015748031497
          },
          {
            "duration": 0.2654865000000086,
            "durationTicks": 192,
            "midi": 40,
            "name": "E2",
            "ticks": 67776,
            "time": 93.7167345,
            "velocity": 0.7874015748031497
          },
          {
            "duration": 0.1327432500000043,
            "durationTicks": 96,
            "midi": 42,
            "name": "F#2",
            "ticks": 67776,
            "time": 93.7167345,
            "velocity": 0.7874015748031497
          },
          {
            "duration": 0.1327432500000043,
            "durationTicks": 96,
            "midi": 44,
            "name": "G#2",
            "ticks": 67872,
            "time": 93.84947775,
            "velocity": 0.7874015748031497
          },
          {
            "duration": 0.2654864999999944,
            "durationTicks": 192,
            "midi": 36,
            "name": "C2",
            "ticks": 67968,
            "time": 93.98222100000001,
            "velocity": 0.7874015748031497
          },
          {
            "duration": 0.1327432499999901,
            "durationTicks": 96,
            "midi": 46,
            "name": "A#2",
            "ticks": 67968,
            "time": 93.98222100000001,
            "velocity": 0.7874015748031497
          },
          {
            "duration": 0.1327432500000043,
            "durationTicks": 96,
            "midi": 44,
            "name": "G#2",
            "ticks": 68064,
            "time": 94.11496425,
            "velocity": 0.7874015748031497
          },
          {
            "duration": 0.2654864999999944,
            "durationTicks": 192,
            "midi": 40,
            "name": "E2",
            "ticks": 68160,
            "time": 94.2477075,
            "velocity": 0.7874015748031497
          },
          {
            "duration": 0.1327432500000043,
            "durationTicks": 96,
            "midi": 42,
            "name": "F#2",
            "ticks": 68160,
            "time": 94.2477075,
            "velocity": 0.7874015748031497
          },
          {
            "duration": 0.1327432499999901,
            "durationTicks": 96,
            "midi": 44,
            "name": "G#2",
            "ticks": 68256,
            "time": 94.38045075000001,
            "velocity": 0.7874015748031497
          },
          {
            "duration": 0.1327432500000043,
            "durationTicks": 96,
            "midi": 46,
            "name": "A#2",
            "ticks": 68352,
            "time": 94.513194,
            "velocity": 0.7874015748031497
          },
          {
            "duration": 0.2654865000000086,
            "durationTicks": 192,
            "midi": 36,
            "name": "C2",
            "ticks": 68352,
            "time": 94.513194,
            "velocity": 0.7874015748031497
          },
          {
            "duration": 0.1327432500000043,
            "durationTicks": 96,
            "midi": 44,
            "name": "G#2",
            "ticks": 68448,
            "time": 94.64593725,
            "velocity": 0.7874015748031497
          },
          {
            "duration": 0.1327432500000043,
            "durationTicks": 96,
            "midi": 42,
            "name": "F#2",
            "ticks": 68544,
            "time": 94.77868050000001,
            "velocity": 0.7874015748031497
          },
          {
            "duration": 0.2654864999999944,
            "durationTicks": 192,
            "midi": 40,
            "name": "E2",
            "ticks": 68544,
            "time": 94.77868050000001,
            "velocity": 0.7874015748031497
          },
          {
            "duration": 0.1327432499999901,
            "durationTicks": 96,
            "midi": 44,
            "name": "G#2",
            "ticks": 68640,
            "time": 94.91142375000001,
            "velocity": 0.7874015748031497
          },
          {
            "duration": 0.1327432500000043,
            "durationTicks": 96,
            "midi": 46,
            "name": "A#2",
            "ticks": 68736,
            "time": 95.044167,
            "velocity": 0.7874015748031497
          },
          {
            "duration": 0.2654865000000086,
            "durationTicks": 192,
            "midi": 36,
            "name": "C2",
            "ticks": 68736,
            "time": 95.044167,
            "velocity": 0.7874015748031497
          },
          {
            "duration": 0.1327432500000043,
            "durationTicks": 96,
            "midi": 44,
            "name": "G#2",
            "ticks": 68832,
            "time": 95.17691025,
            "velocity": 0.7874015748031497
          },
          {
            "duration": 0.1327432499999901,
            "durationTicks": 96,
            "midi": 42,
            "name": "F#2",
            "ticks": 68928,
            "time": 95.30965350000001,
            "velocity": 0.7874015748031497
          },
          {
            "duration": 0.2654864999999944,
            "durationTicks": 192,
            "midi": 40,
            "name": "E2",
            "ticks": 68928,
            "time": 95.30965350000001,
            "velocity": 0.7874015748031497
          },
          {
            "duration": 0.1327432500000043,
            "durationTicks": 96,
            "midi": 44,
            "name": "G#2",
            "ticks": 69024,
            "time": 95.44239675,
            "velocity": 0.7874015748031497
          },
          {
            "duration": 0.2654864999999944,
            "durationTicks": 192,
            "midi": 36,
            "name": "C2",
            "ticks": 69120,
            "time": 95.57514,
            "velocity": 0.7874015748031497
          },
          {
            "duration": 0.1327432500000043,
            "durationTicks": 96,
            "midi": 46,
            "name": "A#2",
            "ticks": 69120,
            "time": 95.57514,
            "velocity": 0.7874015748031497
          },
          {
            "duration": 0.1327432499999901,
            "durationTicks": 96,
            "midi": 44,
            "name": "G#2",
            "ticks": 69216,
            "time": 95.70788325000001,
            "velocity": 0.7874015748031497
          },
          {
            "duration": 0.1327432500000043,
            "durationTicks": 96,
            "midi": 42,
            "name": "F#2",
            "ticks": 69312,
            "time": 95.8406265,
            "velocity": 0.7874015748031497
          },
          {
            "duration": 0.2654865000000086,
            "durationTicks": 192,
            "midi": 40,
            "name": "E2",
            "ticks": 69312,
            "time": 95.8406265,
            "velocity": 0.7874015748031497
          },
          {
            "duration": 0.1327432500000043,
            "durationTicks": 96,
            "midi": 44,
            "name": "G#2",
            "ticks": 69408,
            "time": 95.97336975,
            "velocity": 0.7874015748031497
          },
          {
            "duration": 0.1327432500000043,
            "durationTicks": 96,
            "midi": 46,
            "name": "A#2",
            "ticks": 69504,
            "time": 96.10611300000001,
            "velocity": 0.7874015748031497
          },
          {
            "duration": 0.2654864999999944,
            "durationTicks": 192,
            "midi": 36,
            "name": "C2",
            "ticks": 69504,
            "time": 96.10611300000001,
            "velocity": 0.7874015748031497
          },
          {
            "duration": 0.1327432499999901,
            "durationTicks": 96,
            "midi": 44,
            "name": "G#2",
            "ticks": 69600,
            "time": 96.23885625000001,
            "velocity": 0.7874015748031497
          },
          {
            "duration": 0.2654865000000086,
            "durationTicks": 192,
            "midi": 40,
            "name": "E2",
            "ticks": 69696,
            "time": 96.3715995,
            "velocity": 0.7874015748031497
          },
          {
            "duration": 0.1327432500000043,
            "durationTicks": 96,
            "midi": 42,
            "name": "F#2",
            "ticks": 69696,
            "time": 96.3715995,
            "velocity": 0.7874015748031497
          },
          {
            "duration": 0.1327432500000043,
            "durationTicks": 96,
            "midi": 44,
            "name": "G#2",
            "ticks": 69792,
            "time": 96.50434275,
            "velocity": 0.7874015748031497
          },
          {
            "duration": 0.2654864999999944,
            "durationTicks": 192,
            "midi": 36,
            "name": "C2",
            "ticks": 69888,
            "time": 96.63708600000001,
            "velocity": 0.7874015748031497
          },
          {
            "duration": 0.1327432499999901,
            "durationTicks": 96,
            "midi": 46,
            "name": "A#2",
            "ticks": 69888,
            "time": 96.63708600000001,
            "velocity": 0.7874015748031497
          },
          {
            "duration": 0.1327432500000043,
            "durationTicks": 96,
            "midi": 44,
            "name": "G#2",
            "ticks": 69984,
            "time": 96.76982925,
            "velocity": 0.7874015748031497
          },
          {
            "duration": 0.2654864999999944,
            "durationTicks": 192,
            "midi": 40,
            "name": "E2",
            "ticks": 70080,
            "time": 96.9025725,
            "velocity": 0.7874015748031497
          },
          {
            "duration": 0.1327432500000043,
            "durationTicks": 96,
            "midi": 42,
            "name": "F#2",
            "ticks": 70080,
            "time": 96.9025725,
            "velocity": 0.7874015748031497
          },
          {
            "duration": 0.1327432499999901,
            "durationTicks": 96,
            "midi": 44,
            "name": "G#2",
            "ticks": 70176,
            "time": 97.03531575000001,
            "velocity": 0.7874015748031497
          },
          {
            "duration": 0.1327432500000043,
            "durationTicks": 96,
            "midi": 46,
            "name": "A#2",
            "ticks": 70272,
            "time": 97.168059,
            "velocity": 0.7874015748031497
          },
          {
            "duration": 0.2654865000000086,
            "durationTicks": 192,
            "midi": 36,
            "name": "C2",
            "ticks": 70272,
            "time": 97.168059,
            "velocity": 0.7874015748031497
          },
          {
            "duration": 0.1327432500000043,
            "durationTicks": 96,
            "midi": 44,
            "name": "G#2",
            "ticks": 70368,
            "time": 97.30080225,
            "velocity": 0.7874015748031497
          },
          {
            "duration": 0.2654864999999944,
            "durationTicks": 192,
            "midi": 40,
            "name": "E2",
            "ticks": 70464,
            "time": 97.43354550000001,
            "velocity": 0.7874015748031497
          },
          {
            "duration": 0.1327432499999901,
            "durationTicks": 96,
            "midi": 42,
            "name": "F#2",
            "ticks": 70464,
            "time": 97.43354550000001,
            "velocity": 0.7874015748031497
          },
          {
            "duration": 0.1327432500000043,
            "durationTicks": 96,
            "midi": 44,
            "name": "G#2",
            "ticks": 70560,
            "time": 97.56628875,
            "velocity": 0.7874015748031497
          },
          {
            "duration": 0.2654865000000086,
            "durationTicks": 192,
            "midi": 36,
            "name": "C2",
            "ticks": 70656,
            "time": 97.699032,
            "velocity": 0.7874015748031497
          },
          {
            "duration": 0.1327432500000043,
            "durationTicks": 96,
            "midi": 46,
            "name": "A#2",
            "ticks": 70656,
            "time": 97.699032,
            "velocity": 0.7874015748031497
          },
          {
            "duration": 0.1327432500000043,
            "durationTicks": 96,
            "midi": 44,
            "name": "G#2",
            "ticks": 70752,
            "time": 97.83177525,
            "velocity": 0.7874015748031497
          },
          {
            "duration": 0.2654864999999944,
            "durationTicks": 192,
            "midi": 40,
            "name": "E2",
            "ticks": 70848,
            "time": 97.96451850000001,
            "velocity": 0.7874015748031497
          },
          {
            "duration": 0.1327432499999901,
            "durationTicks": 96,
            "midi": 42,
            "name": "F#2",
            "ticks": 70848,
            "time": 97.96451850000001,
            "velocity": 0.7874015748031497
          },
          {
            "duration": 0.1327432500000043,
            "durationTicks": 96,
            "midi": 44,
            "name": "G#2",
            "ticks": 70944,
            "time": 98.09726175,
            "velocity": 0.7874015748031497
          },
          {
            "duration": 0.1327432500000043,
            "durationTicks": 96,
            "midi": 46,
            "name": "A#2",
            "ticks": 71040,
            "time": 98.230005,
            "velocity": 0.7874015748031497
          },
          {
            "duration": 0.2654864999999944,
            "durationTicks": 192,
            "midi": 36,
            "name": "C2",
            "ticks": 71040,
            "time": 98.230005,
            "velocity": 0.7874015748031497
          },
          {
            "duration": 0.1327432499999901,
            "durationTicks": 96,
            "midi": 44,
            "name": "G#2",
            "ticks": 71136,
            "time": 98.36274825000001,
            "velocity": 0.7874015748031497
          },
          {
            "duration": 0.1327432500000043,
            "durationTicks": 96,
            "midi": 42,
            "name": "F#2",
            "ticks": 71232,
            "time": 98.4954915,
            "velocity": 0.7874015748031497
          },
          {
            "duration": 0.2654865000000086,
            "durationTicks": 192,
            "midi": 40,
            "name": "E2",
            "ticks": 71232,
            "time": 98.4954915,
            "velocity": 0.7874015748031497
          },
          {
            "duration": 0.1327432500000043,
            "durationTicks": 96,
            "midi": 44,
            "name": "G#2",
            "ticks": 71328,
            "time": 98.62823475,
            "velocity": 0.7874015748031497
          },
          {
            "duration": 0.1327432499999901,
            "durationTicks": 96,
            "midi": 46,
            "name": "A#2",
            "ticks": 71424,
            "time": 98.76097800000001,
            "velocity": 0.7874015748031497
          },
          {
            "duration": 0.2654864999999944,
            "durationTicks": 192,
            "midi": 36,
            "name": "C2",
            "ticks": 71424,
            "time": 98.76097800000001,
            "velocity": 0.7874015748031497
          },
          {
            "duration": 0.1327432500000043,
            "durationTicks": 96,
            "midi": 44,
            "name": "G#2",
            "ticks": 71520,
            "time": 98.89372125,
            "velocity": 0.7874015748031497
          },
          {
            "duration": 0.1327432500000043,
            "durationTicks": 96,
            "midi": 42,
            "name": "F#2",
            "ticks": 71616,
            "time": 99.0264645,
            "velocity": 0.7874015748031497
          },
          {
            "duration": 0.2654865000000086,
            "durationTicks": 192,
            "midi": 40,
            "name": "E2",
            "ticks": 71616,
            "time": 99.0264645,
            "velocity": 0.7874015748031497
          },
          {
            "duration": 0.1327432500000043,
            "durationTicks": 96,
            "midi": 44,
            "name": "G#2",
            "ticks": 71712,
            "time": 99.15920775000001,
            "velocity": 0.7874015748031497
          },
          {
            "duration": 0.2654864999999944,
            "durationTicks": 192,
            "midi": 36,
            "name": "C2",
            "ticks": 71808,
            "time": 99.29195100000001,
            "velocity": 0.7874015748031497
          },
          {
            "duration": 0.1327432499999901,
            "durationTicks": 96,
            "midi": 46,
            "name": "A#2",
            "ticks": 71808,
            "time": 99.29195100000001,
            "velocity": 0.7874015748031497
          },
          {
            "duration": 0.1327432500000043,
            "durationTicks": 96,
            "midi": 44,
            "name": "G#2",
            "ticks": 71904,
            "time": 99.42469425,
            "velocity": 0.7874015748031497
          },
          {
            "duration": 0.1327432500000043,
            "durationTicks": 96,
            "midi": 42,
            "name": "F#2",
            "ticks": 72000,
            "time": 99.5574375,
            "velocity": 0.7874015748031497
          },
          {
            "duration": 0.2654864999999944,
            "durationTicks": 192,
            "midi": 40,
            "name": "E2",
            "ticks": 72000,
            "time": 99.5574375,
            "velocity": 0.7874015748031497
          },
          {
            "duration": 0.1327432499999901,
            "durationTicks": 96,
            "midi": 44,
            "name": "G#2",
            "ticks": 72096,
            "time": 99.69018075000001,
            "velocity": 0.7874015748031497
          },
          {
            "duration": 0.2654865000000086,
            "durationTicks": 192,
            "midi": 36,
            "name": "C2",
            "ticks": 72192,
            "time": 99.822924,
            "velocity": 0.7874015748031497
          },
          {
            "duration": 0.1327432500000043,
            "durationTicks": 96,
            "midi": 46,
            "name": "A#2",
            "ticks": 72192,
            "time": 99.822924,
            "velocity": 0.7874015748031497
          },
          {
            "duration": 0.1327432500000043,
            "durationTicks": 96,
            "midi": 44,
            "name": "G#2",
            "ticks": 72288,
            "time": 99.95566725,
            "velocity": 0.7874015748031497
          },
          {
            "duration": 0.2654864999999944,
            "durationTicks": 192,
            "midi": 40,
            "name": "E2",
            "ticks": 72384,
            "time": 100.08841050000001,
            "velocity": 0.7874015748031497
          },
          {
            "duration": 0.1327432499999901,
            "durationTicks": 96,
            "midi": 42,
            "name": "F#2",
            "ticks": 72384,
            "time": 100.08841050000001,
            "velocity": 0.7874015748031497
          },
          {
            "duration": 0.1327432500000043,
            "durationTicks": 96,
            "midi": 44,
            "name": "G#2",
            "ticks": 72480,
            "time": 100.22115375,
            "velocity": 0.7874015748031497
          },
          {
            "duration": 0.2654865000000086,
            "durationTicks": 192,
            "midi": 36,
            "name": "C2",
            "ticks": 72576,
            "time": 100.353897,
            "velocity": 0.7874015748031497
          },
          {
            "duration": 0.1327432500000043,
            "durationTicks": 96,
            "midi": 46,
            "name": "A#2",
            "ticks": 72576,
            "time": 100.353897,
            "velocity": 0.7874015748031497
          },
          {
            "duration": 0.1327432500000043,
            "durationTicks": 96,
            "midi": 44,
            "name": "G#2",
            "ticks": 72672,
            "time": 100.48664025000001,
            "velocity": 0.7874015748031497
          },
          {
            "duration": 0.2654864999999944,
            "durationTicks": 192,
            "midi": 40,
            "name": "E2",
            "ticks": 72768,
            "time": 100.61938350000001,
            "velocity": 0.7874015748031497
          },
          {
            "duration": 0.1327432499999901,
            "durationTicks": 96,
            "midi": 42,
            "name": "F#2",
            "ticks": 72768,
            "time": 100.61938350000001,
            "velocity": 0.7874015748031497
          },
          {
            "duration": 0.1327432500000043,
            "durationTicks": 96,
            "midi": 44,
            "name": "G#2",
            "ticks": 72864,
            "time": 100.75212675,
            "velocity": 0.7874015748031497
          },
          {
            "duration": 0.2654864999999944,
            "durationTicks": 192,
            "midi": 36,
            "name": "C2",
            "ticks": 72960,
            "time": 100.88487,
            "velocity": 0.7874015748031497
          },
          {
            "duration": 0.1327432500000043,
            "durationTicks": 96,
            "midi": 46,
            "name": "A#2",
            "ticks": 72960,
            "time": 100.88487,
            "velocity": 0.7874015748031497
          },
          {
            "duration": 0.1327432499999901,
            "durationTicks": 96,
            "midi": 44,
            "name": "G#2",
            "ticks": 73056,
            "time": 101.01761325000001,
            "velocity": 0.7874015748031497
          },
          {
            "duration": 0.1327432500000043,
            "durationTicks": 96,
            "midi": 42,
            "name": "F#2",
            "ticks": 73152,
            "time": 101.1503565,
            "velocity": 0.7874015748031497
          },
          {
            "duration": 0.2654865000000086,
            "durationTicks": 192,
            "midi": 40,
            "name": "E2",
            "ticks": 73152,
            "time": 101.1503565,
            "velocity": 0.7874015748031497
          },
          {
            "duration": 0.1327432500000043,
            "durationTicks": 96,
            "midi": 44,
            "name": "G#2",
            "ticks": 73248,
            "time": 101.28309975,
            "velocity": 0.7874015748031497
          },
          {
            "duration": 0.2654864999999944,
            "durationTicks": 192,
            "midi": 36,
            "name": "C2",
            "ticks": 73344,
            "time": 101.41584300000001,
            "velocity": 0.7874015748031497
          },
          {
            "duration": 0.1327432499999901,
            "durationTicks": 96,
            "midi": 46,
            "name": "A#2",
            "ticks": 73344,
            "time": 101.41584300000001,
            "velocity": 0.7874015748031497
          },
          {
            "duration": 0.1327432500000043,
            "durationTicks": 96,
            "midi": 44,
            "name": "G#2",
            "ticks": 73440,
            "time": 101.54858625,
            "velocity": 0.7874015748031497
          },
          {
            "duration": 0.2654865000000086,
            "durationTicks": 192,
            "midi": 40,
            "name": "E2",
            "ticks": 73536,
            "time": 101.6813295,
            "velocity": 0.7874015748031497
          },
          {
            "duration": 0.1327432500000043,
            "durationTicks": 96,
            "midi": 42,
            "name": "F#2",
            "ticks": 73536,
            "time": 101.6813295,
            "velocity": 0.7874015748031497
          },
          {
            "duration": 0.1327432500000043,
            "durationTicks": 96,
            "midi": 44,
            "name": "G#2",
            "ticks": 73632,
            "time": 101.81407275000001,
            "velocity": 0.7874015748031497
          },
          {
            "duration": 0.1327432499999901,
            "durationTicks": 96,
            "midi": 46,
            "name": "A#2",
            "ticks": 73728,
            "time": 101.94681600000001,
            "velocity": 0.7874015748031497
          },
          {
            "duration": 0.2654864999999944,
            "durationTicks": 192,
            "midi": 36,
            "name": "C2",
            "ticks": 73728,
            "time": 101.94681600000001,
            "velocity": 0.7874015748031497
          },
          {
            "duration": 0.1327432500000043,
            "durationTicks": 96,
            "midi": 44,
            "name": "G#2",
            "ticks": 73824,
            "time": 102.07955925,
            "velocity": 0.7874015748031497
          },
          {
            "duration": 0.1327432500000043,
            "durationTicks": 96,
            "midi": 42,
            "name": "F#2",
            "ticks": 73920,
            "time": 102.2123025,
            "velocity": 0.7874015748031497
          },
          {
            "duration": 0.2654864999999944,
            "durationTicks": 192,
            "midi": 40,
            "name": "E2",
            "ticks": 73920,
            "time": 102.2123025,
            "velocity": 0.7874015748031497
          },
          {
            "duration": 0.1327432499999901,
            "durationTicks": 96,
            "midi": 44,
            "name": "G#2",
            "ticks": 74016,
            "time": 102.34504575000001,
            "velocity": 0.7874015748031497
          },
          {
            "duration": 0.1327432500000043,
            "durationTicks": 96,
            "midi": 46,
            "name": "A#2",
            "ticks": 74112,
            "time": 102.477789,
            "velocity": 0.7874015748031497
          },
          {
            "duration": 0.2654865000000086,
            "durationTicks": 192,
            "midi": 36,
            "name": "C2",
            "ticks": 74112,
            "time": 102.477789,
            "velocity": 0.7874015748031497
          },
          {
            "duration": 0.1327432500000043,
            "durationTicks": 96,
            "midi": 44,
            "name": "G#2",
            "ticks": 74208,
            "time": 102.61053225,
            "velocity": 0.7874015748031497
          },
          {
            "duration": 0.2654864999999944,
            "durationTicks": 192,
            "midi": 40,
            "name": "E2",
            "ticks": 74304,
            "time": 102.74327550000001,
            "velocity": 0.7874015748031497
          },
          {
            "duration": 0.1327432499999901,
            "durationTicks": 96,
            "midi": 42,
            "name": "F#2",
            "ticks": 74304,
            "time": 102.74327550000001,
            "velocity": 0.7874015748031497
          },
          {
            "duration": 0.1327432500000043,
            "durationTicks": 96,
            "midi": 44,
            "name": "G#2",
            "ticks": 74400,
            "time": 102.87601875,
            "velocity": 0.7874015748031497
          },
          {
            "duration": 0.2654864999999944,
            "durationTicks": 192,
            "midi": 36,
            "name": "C2",
            "ticks": 74496,
            "time": 103.008762,
            "velocity": 0.7874015748031497
          },
          {
            "duration": 0.1327432500000043,
            "durationTicks": 96,
            "midi": 46,
            "name": "A#2",
            "ticks": 74496,
            "time": 103.008762,
            "velocity": 0.7874015748031497
          },
          {
            "duration": 0.1327432499999901,
            "durationTicks": 96,
            "midi": 44,
            "name": "G#2",
            "ticks": 74592,
            "time": 103.14150525000001,
            "velocity": 0.7874015748031497
          },
          {
            "duration": 0.2654865000000086,
            "durationTicks": 192,
            "midi": 40,
            "name": "E2",
            "ticks": 74688,
            "time": 103.2742485,
            "velocity": 0.7874015748031497
          },
          {
            "duration": 0.1327432500000043,
            "durationTicks": 96,
            "midi": 42,
            "name": "F#2",
            "ticks": 74688,
            "time": 103.2742485,
            "velocity": 0.7874015748031497
          },
          {
            "duration": 0.1327432500000043,
            "durationTicks": 96,
            "midi": 44,
            "name": "G#2",
            "ticks": 74784,
            "time": 103.40699175,
            "velocity": 0.7874015748031497
          },
          {
            "duration": 0.1327432500000043,
            "durationTicks": 96,
            "midi": 46,
            "name": "A#2",
            "ticks": 74880,
            "time": 103.53973500000001,
            "velocity": 0.7874015748031497
          },
          {
            "duration": 0.2654864999999944,
            "durationTicks": 192,
            "midi": 36,
            "name": "C2",
            "ticks": 74880,
            "time": 103.53973500000001,
            "velocity": 0.7874015748031497
          },
          {
            "duration": 0.1327432499999901,
            "durationTicks": 96,
            "midi": 44,
            "name": "G#2",
            "ticks": 74976,
            "time": 103.67247825000001,
            "velocity": 0.7874015748031497
          },
          {
            "duration": 0.2654865000000086,
            "durationTicks": 192,
            "midi": 40,
            "name": "E2",
            "ticks": 75072,
            "time": 103.8052215,
            "velocity": 0.7874015748031497
          },
          {
            "duration": 0.1327432500000043,
            "durationTicks": 96,
            "midi": 42,
            "name": "F#2",
            "ticks": 75072,
            "time": 103.8052215,
            "velocity": 0.7874015748031497
          },
          {
            "duration": 0.1327432500000043,
            "durationTicks": 96,
            "midi": 44,
            "name": "G#2",
            "ticks": 75168,
            "time": 103.93796475,
            "velocity": 0.7874015748031497
          },
          {
            "duration": 0.2654864999999944,
            "durationTicks": 192,
            "midi": 36,
            "name": "C2",
            "ticks": 75264,
            "time": 104.07070800000001,
            "velocity": 0.7874015748031497
          },
          {
            "duration": 0.1327432499999901,
            "durationTicks": 96,
            "midi": 46,
            "name": "A#2",
            "ticks": 75264,
            "time": 104.07070800000001,
            "velocity": 0.7874015748031497
          },
          {
            "duration": 0.1327432500000043,
            "durationTicks": 96,
            "midi": 44,
            "name": "G#2",
            "ticks": 75360,
            "time": 104.20345125,
            "velocity": 0.7874015748031497
          },
          {
            "duration": 0.2654864999999944,
            "durationTicks": 192,
            "midi": 40,
            "name": "E2",
            "ticks": 75456,
            "time": 104.3361945,
            "velocity": 0.7874015748031497
          },
          {
            "duration": 0.1327432500000043,
            "durationTicks": 96,
            "midi": 42,
            "name": "F#2",
            "ticks": 75456,
            "time": 104.3361945,
            "velocity": 0.7874015748031497
          },
          {
            "duration": 0.1327432499999901,
            "durationTicks": 96,
            "midi": 44,
            "name": "G#2",
            "ticks": 75552,
            "time": 104.46893775000001,
            "velocity": 0.7874015748031497
          },
          {
            "duration": 0.1327432500000043,
            "durationTicks": 96,
            "midi": 46,
            "name": "A#2",
            "ticks": 75648,
            "time": 104.601681,
            "velocity": 0.7874015748031497
          },
          {
            "duration": 0.2654865000000086,
            "durationTicks": 192,
            "midi": 36,
            "name": "C2",
            "ticks": 75648,
            "time": 104.601681,
            "velocity": 0.7874015748031497
          },
          {
            "duration": 0.1327432500000043,
            "durationTicks": 96,
            "midi": 44,
            "name": "G#2",
            "ticks": 75744,
            "time": 104.73442425,
            "velocity": 0.7874015748031497
          },
          {
            "duration": 0.2654864999999944,
            "durationTicks": 192,
            "midi": 40,
            "name": "E2",
            "ticks": 75840,
            "time": 104.86716750000001,
            "velocity": 0.7874015748031497
          },
          {
            "duration": 0.1327432500000043,
            "durationTicks": 96,
            "midi": 42,
            "name": "F#2",
            "ticks": 75840,
            "time": 104.86716750000001,
            "velocity": 0.7874015748031497
          },
          {
            "duration": 0.1327432499999901,
            "durationTicks": 96,
            "midi": 44,
            "name": "G#2",
            "ticks": 75936,
            "time": 104.99991075000001,
            "velocity": 0.7874015748031497
          },
          {
            "duration": 0.1327432500000043,
            "durationTicks": 96,
            "midi": 46,
            "name": "A#2",
            "ticks": 76032,
            "time": 105.132654,
            "velocity": 0.7874015748031497
          },
          {
            "duration": 0.2654865000000086,
            "durationTicks": 192,
            "midi": 36,
            "name": "C2",
            "ticks": 76032,
            "time": 105.132654,
            "velocity": 0.7874015748031497
          },
          {
            "duration": 0.1327432500000043,
            "durationTicks": 96,
            "midi": 44,
            "name": "G#2",
            "ticks": 76128,
            "time": 105.26539725,
            "velocity": 0.7874015748031497
          },
          {
            "duration": 0.1327432499999901,
            "durationTicks": 96,
            "midi": 42,
            "name": "F#2",
            "ticks": 76224,
            "time": 105.39814050000001,
            "velocity": 0.7874015748031497
          },
          {
            "duration": 0.2654864999999944,
            "durationTicks": 192,
            "midi": 40,
            "name": "E2",
            "ticks": 76224,
            "time": 105.39814050000001,
            "velocity": 0.7874015748031497
          },
          {
            "duration": 0.1327432500000043,
            "durationTicks": 96,
            "midi": 44,
            "name": "G#2",
            "ticks": 76320,
            "time": 105.53088375,
            "velocity": 0.7874015748031497
          },
          {
            "duration": 0.2654864999999944,
            "durationTicks": 192,
            "midi": 36,
            "name": "C2",
            "ticks": 76416,
            "time": 105.663627,
            "velocity": 0.7874015748031497
          },
          {
            "duration": 0.1327432500000043,
            "durationTicks": 96,
            "midi": 46,
            "name": "A#2",
            "ticks": 76416,
            "time": 105.663627,
            "velocity": 0.7874015748031497
          },
          {
            "duration": 0.1327432499999901,
            "durationTicks": 96,
            "midi": 44,
            "name": "G#2",
            "ticks": 76512,
            "time": 105.79637025000001,
            "velocity": 0.7874015748031497
          },
          {
            "duration": 0.2654865000000086,
            "durationTicks": 192,
            "midi": 40,
            "name": "E2",
            "ticks": 76608,
            "time": 105.9291135,
            "velocity": 0.7874015748031497
          },
          {
            "duration": 0.1327432500000043,
            "durationTicks": 96,
            "midi": 42,
            "name": "F#2",
            "ticks": 76608,
            "time": 105.9291135,
            "velocity": 0.7874015748031497
          },
          {
            "duration": 0.1327432500000043,
            "durationTicks": 96,
            "midi": 44,
            "name": "G#2",
            "ticks": 76704,
            "time": 106.06185675,
            "velocity": 0.7874015748031497
          },
          {
            "duration": 0.1327432500000043,
            "durationTicks": 96,
            "midi": 46,
            "name": "A#2",
            "ticks": 76800,
            "time": 106.19460000000001,
            "velocity": 0.7874015748031497
          },
          {
            "duration": 0.2654864999999944,
            "durationTicks": 192,
            "midi": 36,
            "name": "C2",
            "ticks": 76800,
            "time": 106.19460000000001,
            "velocity": 0.7874015748031497
          },
          {
            "duration": 0.1327432499999901,
            "durationTicks": 96,
            "midi": 44,
            "name": "G#2",
            "ticks": 76896,
            "time": 106.32734325000001,
            "velocity": 0.7874015748031497
          },
          {
            "duration": 0.2654865000000086,
            "durationTicks": 192,
            "midi": 40,
            "name": "E2",
            "ticks": 76992,
            "time": 106.4600865,
            "velocity": 0.7874015748031497
          },
          {
            "duration": 0.1327432500000043,
            "durationTicks": 96,
            "midi": 42,
            "name": "F#2",
            "ticks": 76992,
            "time": 106.4600865,
            "velocity": 0.7874015748031497
          },
          {
            "duration": 0.1327432500000043,
            "durationTicks": 96,
            "midi": 44,
            "name": "G#2",
            "ticks": 77088,
            "time": 106.59282975,
            "velocity": 0.7874015748031497
          },
          {
            "duration": 0.2654864999999944,
            "durationTicks": 192,
            "midi": 36,
            "name": "C2",
            "ticks": 77184,
            "time": 106.72557300000001,
            "velocity": 0.7874015748031497
          },
          {
            "duration": 0.1327432499999901,
            "durationTicks": 96,
            "midi": 46,
            "name": "A#2",
            "ticks": 77184,
            "time": 106.72557300000001,
            "velocity": 0.7874015748031497
          },
          {
            "duration": 0.1327432500000043,
            "durationTicks": 96,
            "midi": 44,
            "name": "G#2",
            "ticks": 77280,
            "time": 106.85831625,
            "velocity": 0.7874015748031497
          },
          {
            "duration": 0.2654864999999944,
            "durationTicks": 192,
            "midi": 40,
            "name": "E2",
            "ticks": 77376,
            "time": 106.9910595,
            "velocity": 0.7874015748031497
          },
          {
            "duration": 0.1327432500000043,
            "durationTicks": 96,
            "midi": 42,
            "name": "F#2",
            "ticks": 77376,
            "time": 106.9910595,
            "velocity": 0.7874015748031497
          },
          {
            "duration": 0.1327432499999901,
            "durationTicks": 96,
            "midi": 44,
            "name": "G#2",
            "ticks": 77472,
            "time": 107.12380275000001,
            "velocity": 0.7874015748031497
          },
          {
            "duration": 0.2654865000000086,
            "durationTicks": 192,
            "midi": 36,
            "name": "C2",
            "ticks": 77568,
            "time": 107.256546,
            "velocity": 0.7874015748031497
          },
          {
            "duration": 0.1327432500000043,
            "durationTicks": 96,
            "midi": 46,
            "name": "A#2",
            "ticks": 77568,
            "time": 107.256546,
            "velocity": 0.7874015748031497
          },
          {
            "duration": 0.1327432500000043,
            "durationTicks": 96,
            "midi": 44,
            "name": "G#2",
            "ticks": 77664,
            "time": 107.38928925,
            "velocity": 0.7874015748031497
          },
          {
            "duration": 0.2654864999999944,
            "durationTicks": 192,
            "midi": 40,
            "name": "E2",
            "ticks": 77760,
            "time": 107.52203250000001,
            "velocity": 0.7874015748031497
          },
          {
            "duration": 0.1327432499999901,
            "durationTicks": 96,
            "midi": 42,
            "name": "F#2",
            "ticks": 77760,
            "time": 107.52203250000001,
            "velocity": 0.7874015748031497
          },
          {
            "duration": 0.1327432500000043,
            "durationTicks": 96,
            "midi": 44,
            "name": "G#2",
            "ticks": 77856,
            "time": 107.65477575,
            "velocity": 0.7874015748031497
          },
          {
            "duration": 0.1327432500000043,
            "durationTicks": 96,
            "midi": 46,
            "name": "A#2",
            "ticks": 77952,
            "time": 107.787519,
            "velocity": 0.7874015748031497
          },
          {
            "duration": 0.2654865000000086,
            "durationTicks": 192,
            "midi": 36,
            "name": "C2",
            "ticks": 77952,
            "time": 107.787519,
            "velocity": 0.7874015748031497
          },
          {
            "duration": 0.1327432500000043,
            "durationTicks": 96,
            "midi": 44,
            "name": "G#2",
            "ticks": 78048,
            "time": 107.92026225000001,
            "velocity": 0.7874015748031497
          },
          {
            "duration": 0.2654864999999944,
            "durationTicks": 192,
            "midi": 40,
            "name": "E2",
            "ticks": 78144,
            "time": 108.05300550000001,
            "velocity": 0.7874015748031497
          },
          {
            "duration": 0.1327432499999901,
            "durationTicks": 96,
            "midi": 42,
            "name": "F#2",
            "ticks": 78144,
            "time": 108.05300550000001,
            "velocity": 0.7874015748031497
          },
          {
            "duration": 0.1327432500000043,
            "durationTicks": 96,
            "midi": 44,
            "name": "G#2",
            "ticks": 78240,
            "time": 108.18574875,
            "velocity": 0.7874015748031497
          },
          {
            "duration": 0.1327432500000043,
            "durationTicks": 96,
            "midi": 46,
            "name": "A#2",
            "ticks": 78336,
            "time": 108.318492,
            "velocity": 0.7874015748031497
          },
          {
            "duration": 0.2654864999999944,
            "durationTicks": 192,
            "midi": 36,
            "name": "C2",
            "ticks": 78336,
            "time": 108.318492,
            "velocity": 0.7874015748031497
          },
          {
            "duration": 0.1327432499999901,
            "durationTicks": 96,
            "midi": 44,
            "name": "G#2",
            "ticks": 78432,
            "time": 108.45123525000001,
            "velocity": 0.7874015748031497
          },
          {
            "duration": 0.1327432500000043,
            "durationTicks": 96,
            "midi": 42,
            "name": "F#2",
            "ticks": 78528,
            "time": 108.5839785,
            "velocity": 0.7874015748031497
          },
          {
            "duration": 0.2654865000000086,
            "durationTicks": 192,
            "midi": 40,
            "name": "E2",
            "ticks": 78528,
            "time": 108.5839785,
            "velocity": 0.7874015748031497
          },
          {
            "duration": 0.1327432500000043,
            "durationTicks": 96,
            "midi": 44,
            "name": "G#2",
            "ticks": 78624,
            "time": 108.71672175,
            "velocity": 0.7874015748031497
          },
          {
            "duration": 0.2654864999999944,
            "durationTicks": 192,
            "midi": 36,
            "name": "C2",
            "ticks": 78720,
            "time": 108.84946500000001,
            "velocity": 0.7874015748031497
          },
          {
            "duration": 0.1327432499999901,
            "durationTicks": 96,
            "midi": 46,
            "name": "A#2",
            "ticks": 78720,
            "time": 108.84946500000001,
            "velocity": 0.7874015748031497
          },
          {
            "duration": 0.1327432500000043,
            "durationTicks": 96,
            "midi": 44,
            "name": "G#2",
            "ticks": 78816,
            "time": 108.98220825,
            "velocity": 0.7874015748031497
          },
          {
            "duration": 0.1327432500000043,
            "durationTicks": 96,
            "midi": 42,
            "name": "F#2",
            "ticks": 78912,
            "time": 109.1149515,
            "velocity": 0.7874015748031497
          },
          {
            "duration": 0.2654865000000086,
            "durationTicks": 192,
            "midi": 40,
            "name": "E2",
            "ticks": 78912,
            "time": 109.1149515,
            "velocity": 0.7874015748031497
          },
          {
            "duration": 0.1327432500000043,
            "durationTicks": 96,
            "midi": 44,
            "name": "G#2",
            "ticks": 79008,
            "time": 109.24769475000001,
            "velocity": 0.7874015748031497
          },
          {
            "duration": 0.2654864999999944,
            "durationTicks": 192,
            "midi": 36,
            "name": "C2",
            "ticks": 79104,
            "time": 109.38043800000001,
            "velocity": 0.7874015748031497
          },
          {
            "duration": 0.1327432499999901,
            "durationTicks": 96,
            "midi": 46,
            "name": "A#2",
            "ticks": 79104,
            "time": 109.38043800000001,
            "velocity": 0.7874015748031497
          },
          {
            "duration": 0.1327432500000043,
            "durationTicks": 96,
            "midi": 44,
            "name": "G#2",
            "ticks": 79200,
            "time": 109.51318125,
            "velocity": 0.7874015748031497
          },
          {
            "duration": 0.2654864999999944,
            "durationTicks": 192,
            "midi": 40,
            "name": "E2",
            "ticks": 79296,
            "time": 109.6459245,
            "velocity": 0.7874015748031497
          },
          {
            "duration": 0.1327432500000043,
            "durationTicks": 96,
            "midi": 42,
            "name": "F#2",
            "ticks": 79296,
            "time": 109.6459245,
            "velocity": 0.7874015748031497
          },
          {
            "duration": 0.1327432499999901,
            "durationTicks": 96,
            "midi": 44,
            "name": "G#2",
            "ticks": 79392,
            "time": 109.77866775000001,
            "velocity": 0.7874015748031497
          },
          {
            "duration": 0.2654865000000086,
            "durationTicks": 192,
            "midi": 36,
            "name": "C2",
            "ticks": 79488,
            "time": 109.911411,
            "velocity": 0.7874015748031497
          },
          {
            "duration": 0.1327432500000043,
            "durationTicks": 96,
            "midi": 46,
            "name": "A#2",
            "ticks": 79488,
            "time": 109.911411,
            "velocity": 0.7874015748031497
          },
          {
            "duration": 0.1327432500000043,
            "durationTicks": 96,
            "midi": 44,
            "name": "G#2",
            "ticks": 79584,
            "time": 110.04415425,
            "velocity": 0.7874015748031497
          },
          {
            "duration": 0.2654864999999944,
            "durationTicks": 192,
            "midi": 40,
            "name": "E2",
            "ticks": 79680,
            "time": 110.17689750000001,
            "velocity": 0.7874015748031497
          },
          {
            "duration": 0.1327432499999901,
            "durationTicks": 96,
            "midi": 42,
            "name": "F#2",
            "ticks": 79680,
            "time": 110.17689750000001,
            "velocity": 0.7874015748031497
          },
          {
            "duration": 0.1327432500000043,
            "durationTicks": 96,
            "midi": 44,
            "name": "G#2",
            "ticks": 79776,
            "time": 110.30964075,
            "velocity": 0.7874015748031497
          },
          {
            "duration": 0.2654865000000086,
            "durationTicks": 192,
            "midi": 36,
            "name": "C2",
            "ticks": 79872,
            "time": 110.442384,
            "velocity": 0.7874015748031497
          },
          {
            "duration": 0.1327432500000043,
            "durationTicks": 96,
            "midi": 46,
            "name": "A#2",
            "ticks": 79872,
            "time": 110.442384,
            "velocity": 0.7874015748031497
          },
          {
            "duration": 0.1327432500000043,
            "durationTicks": 96,
            "midi": 44,
            "name": "G#2",
            "ticks": 79968,
            "time": 110.57512725000001,
            "velocity": 0.7874015748031497
          },
          {
            "duration": 0.2654864999999944,
            "durationTicks": 192,
            "midi": 40,
            "name": "E2",
            "ticks": 80064,
            "time": 110.70787050000001,
            "velocity": 0.7874015748031497
          },
          {
            "duration": 0.1327432499999901,
            "durationTicks": 96,
            "midi": 42,
            "name": "F#2",
            "ticks": 80064,
            "time": 110.70787050000001,
            "velocity": 0.7874015748031497
          },
          {
            "duration": 0.1327432500000043,
            "durationTicks": 96,
            "midi": 44,
            "name": "G#2",
            "ticks": 80160,
            "time": 110.84061375,
            "velocity": 0.7874015748031497
          },
          {
            "duration": 0.1327432500000043,
            "durationTicks": 96,
            "midi": 46,
            "name": "A#2",
            "ticks": 80256,
            "time": 110.97335700000001,
            "velocity": 0.7874015748031497
          },
          {
            "duration": 0.2654864999999944,
            "durationTicks": 192,
            "midi": 36,
            "name": "C2",
            "ticks": 80256,
            "time": 110.97335700000001,
            "velocity": 0.7874015748031497
          },
          {
            "duration": 0.1327432499999901,
            "durationTicks": 96,
            "midi": 44,
            "name": "G#2",
            "ticks": 80352,
            "time": 111.10610025000001,
            "velocity": 0.7874015748031497
          },
          {
            "duration": 0.1327432500000043,
            "durationTicks": 96,
            "midi": 42,
            "name": "F#2",
            "ticks": 80448,
            "time": 111.2388435,
            "velocity": 0.7874015748031497
          },
          {
            "duration": 0.2654865000000086,
            "durationTicks": 192,
            "midi": 40,
            "name": "E2",
            "ticks": 80448,
            "time": 111.2388435,
            "velocity": 0.7874015748031497
          },
          {
            "duration": 0.1327432500000043,
            "durationTicks": 96,
            "midi": 44,
            "name": "G#2",
            "ticks": 80544,
            "time": 111.37158675,
            "velocity": 0.7874015748031497
          },
          {
            "duration": 0.1327432500000043,
            "durationTicks": 96,
            "midi": 46,
            "name": "A#2",
            "ticks": 81408,
            "time": 112.566276,
            "velocity": 0.7874015748031497
          },
          {
            "duration": 0.2654865000000086,
            "durationTicks": 192,
            "midi": 36,
            "name": "C2",
            "ticks": 81408,
            "time": 112.566276,
            "velocity": 0.7874015748031497
          },
          {
            "duration": 0.1327432500000043,
            "durationTicks": 96,
            "midi": 44,
            "name": "G#2",
            "ticks": 81504,
            "time": 112.69901925,
            "velocity": 0.7874015748031497
          },
          {
            "duration": 0.1327432499999901,
            "durationTicks": 96,
            "midi": 42,
            "name": "F#2",
            "ticks": 81600,
            "time": 112.83176250000001,
            "velocity": 0.7874015748031497
          },
          {
            "duration": 0.2654864999999944,
            "durationTicks": 192,
            "midi": 40,
            "name": "E2",
            "ticks": 81600,
            "time": 112.83176250000001,
            "velocity": 0.7874015748031497
          },
          {
            "duration": 0.1327432500000043,
            "durationTicks": 96,
            "midi": 44,
            "name": "G#2",
            "ticks": 81696,
            "time": 112.96450575,
            "velocity": 0.7874015748031497
          },
          {
            "duration": 0.2654864999999944,
            "durationTicks": 192,
            "midi": 36,
            "name": "C2",
            "ticks": 81792,
            "time": 113.097249,
            "velocity": 0.7874015748031497
          },
          {
            "duration": 0.1327432500000043,
            "durationTicks": 96,
            "midi": 46,
            "name": "A#2",
            "ticks": 81792,
            "time": 113.097249,
            "velocity": 0.7874015748031497
          },
          {
            "duration": 0.1327432499999901,
            "durationTicks": 96,
            "midi": 44,
            "name": "G#2",
            "ticks": 81888,
            "time": 113.22999225000001,
            "velocity": 0.7874015748031497
          },
          {
            "duration": 0.2654865000000086,
            "durationTicks": 192,
            "midi": 40,
            "name": "E2",
            "ticks": 81984,
            "time": 113.3627355,
            "velocity": 0.7874015748031497
          },
          {
            "duration": 0.1327432500000043,
            "durationTicks": 96,
            "midi": 42,
            "name": "F#2",
            "ticks": 81984,
            "time": 113.3627355,
            "velocity": 0.7874015748031497
          },
          {
            "duration": 0.1327432500000043,
            "durationTicks": 96,
            "midi": 44,
            "name": "G#2",
            "ticks": 82080,
            "time": 113.49547875,
            "velocity": 0.7874015748031497
          },
          {
            "duration": 0.1327432500000043,
            "durationTicks": 96,
            "midi": 46,
            "name": "A#2",
            "ticks": 82176,
            "time": 113.62822200000001,
            "velocity": 0.7874015748031497
          },
          {
            "duration": 0.2654864999999944,
            "durationTicks": 192,
            "midi": 36,
            "name": "C2",
            "ticks": 82176,
            "time": 113.62822200000001,
            "velocity": 0.7874015748031497
          },
          {
            "duration": 0.1327432499999901,
            "durationTicks": 96,
            "midi": 44,
            "name": "G#2",
            "ticks": 82272,
            "time": 113.76096525000001,
            "velocity": 0.7874015748031497
          },
          {
            "duration": 0.1327432500000043,
            "durationTicks": 96,
            "midi": 42,
            "name": "F#2",
            "ticks": 82368,
            "time": 113.8937085,
            "velocity": 0.7874015748031497
          },
          {
            "duration": 0.2654865000000086,
            "durationTicks": 192,
            "midi": 40,
            "name": "E2",
            "ticks": 82368,
            "time": 113.8937085,
            "velocity": 0.7874015748031497
          },
          {
            "duration": 0.1327432500000043,
            "durationTicks": 96,
            "midi": 44,
            "name": "G#2",
            "ticks": 82464,
            "time": 114.02645175,
            "velocity": 0.7874015748031497
          },
          {
            "duration": 0.1327432499999901,
            "durationTicks": 96,
            "midi": 46,
            "name": "A#2",
            "ticks": 82560,
            "time": 114.15919500000001,
            "velocity": 0.7874015748031497
          },
          {
            "duration": 0.2654864999999944,
            "durationTicks": 192,
            "midi": 36,
            "name": "C2",
            "ticks": 82560,
            "time": 114.15919500000001,
            "velocity": 0.7874015748031497
          },
          {
            "duration": 0.1327432500000043,
            "durationTicks": 96,
            "midi": 44,
            "name": "G#2",
            "ticks": 82656,
            "time": 114.29193825,
            "velocity": 0.7874015748031497
          },
          {
            "duration": 0.2654864999999944,
            "durationTicks": 192,
            "midi": 40,
            "name": "E2",
            "ticks": 82752,
            "time": 114.4246815,
            "velocity": 0.7874015748031497
          },
          {
            "duration": 0.1327432500000043,
            "durationTicks": 96,
            "midi": 42,
            "name": "F#2",
            "ticks": 82752,
            "time": 114.4246815,
            "velocity": 0.7874015748031497
          },
          {
            "duration": 0.1327432499999901,
            "durationTicks": 96,
            "midi": 44,
            "name": "G#2",
            "ticks": 82848,
            "time": 114.55742475000001,
            "velocity": 0.7874015748031497
          },
          {
            "duration": 0.1327432500000043,
            "durationTicks": 96,
            "midi": 46,
            "name": "A#2",
            "ticks": 82944,
            "time": 114.690168,
            "velocity": 0.7874015748031497
          },
          {
            "duration": 0.2654865000000086,
            "durationTicks": 192,
            "midi": 36,
            "name": "C2",
            "ticks": 82944,
            "time": 114.690168,
            "velocity": 0.7874015748031497
          },
          {
            "duration": 0.1327432500000043,
            "durationTicks": 96,
            "midi": 44,
            "name": "G#2",
            "ticks": 83040,
            "time": 114.82291125,
            "velocity": 0.7874015748031497
          },
          {
            "duration": 0.2654864999999944,
            "durationTicks": 192,
            "midi": 40,
            "name": "E2",
            "ticks": 83136,
            "time": 114.95565450000001,
            "velocity": 0.7874015748031497
          },
          {
            "duration": 0.1327432500000043,
            "durationTicks": 96,
            "midi": 42,
            "name": "F#2",
            "ticks": 83136,
            "time": 114.95565450000001,
            "velocity": 0.7874015748031497
          },
          {
            "duration": 0.1327432499999901,
            "durationTicks": 96,
            "midi": 44,
            "name": "G#2",
            "ticks": 83232,
            "time": 115.08839775000001,
            "velocity": 0.7874015748031497
          },
          {
            "duration": 0.2654865000000086,
            "durationTicks": 192,
            "midi": 36,
            "name": "C2",
            "ticks": 83328,
            "time": 115.221141,
            "velocity": 0.7874015748031497
          },
          {
            "duration": 0.1327432500000043,
            "durationTicks": 96,
            "midi": 46,
            "name": "A#2",
            "ticks": 83328,
            "time": 115.221141,
            "velocity": 0.7874015748031497
          },
          {
            "duration": 0.1327432500000043,
            "durationTicks": 96,
            "midi": 44,
            "name": "G#2",
            "ticks": 83424,
            "time": 115.35388425000001,
            "velocity": 0.7874015748031497
          },
          {
            "duration": 0.2654864999999944,
            "durationTicks": 192,
            "midi": 40,
            "name": "E2",
            "ticks": 83520,
            "time": 115.48662750000001,
            "velocity": 0.7874015748031497
          },
          {
            "duration": 0.1327432499999901,
            "durationTicks": 96,
            "midi": 42,
            "name": "F#2",
            "ticks": 83520,
            "time": 115.48662750000001,
            "velocity": 0.7874015748031497
          },
          {
            "duration": 0.1327432500000043,
            "durationTicks": 96,
            "midi": 44,
            "name": "G#2",
            "ticks": 83616,
            "time": 115.61937075,
            "velocity": 0.7874015748031497
          },
          {
            "duration": 0.1327432500000043,
            "durationTicks": 96,
            "midi": 46,
            "name": "A#2",
            "ticks": 83712,
            "time": 115.752114,
            "velocity": 0.7874015748031497
          },
          {
            "duration": 0.2654864999999944,
            "durationTicks": 192,
            "midi": 36,
            "name": "C2",
            "ticks": 83712,
            "time": 115.752114,
            "velocity": 0.7874015748031497
          },
          {
            "duration": 0.1327432499999901,
            "durationTicks": 96,
            "midi": 44,
            "name": "G#2",
            "ticks": 83808,
            "time": 115.88485725000001,
            "velocity": 0.7874015748031497
          },
          {
            "duration": 0.1327432500000043,
            "durationTicks": 96,
            "midi": 42,
            "name": "F#2",
            "ticks": 83904,
            "time": 116.0176005,
            "velocity": 0.7874015748031497
          },
          {
            "duration": 0.2654865000000086,
            "durationTicks": 192,
            "midi": 40,
            "name": "E2",
            "ticks": 83904,
            "time": 116.0176005,
            "velocity": 0.7874015748031497
          },
          {
            "duration": 0.1327432500000043,
            "durationTicks": 96,
            "midi": 44,
            "name": "G#2",
            "ticks": 84000,
            "time": 116.15034375,
            "velocity": 0.7874015748031497
          },
          {
            "duration": 0.2654864999999944,
            "durationTicks": 192,
            "midi": 36,
            "name": "C2",
            "ticks": 84096,
            "time": 116.28308700000001,
            "velocity": 0.7874015748031497
          },
          {
            "duration": 0.1327432500000043,
            "durationTicks": 96,
            "midi": 46,
            "name": "A#2",
            "ticks": 84096,
            "time": 116.28308700000001,
            "velocity": 0.7874015748031497
          },
          {
            "duration": 0.1327432499999901,
            "durationTicks": 96,
            "midi": 44,
            "name": "G#2",
            "ticks": 84192,
            "time": 116.41583025000001,
            "velocity": 0.7874015748031497
          },
          {
            "duration": 0.2654865000000086,
            "durationTicks": 192,
            "midi": 40,
            "name": "E2",
            "ticks": 84288,
            "time": 116.5485735,
            "velocity": 0.7874015748031497
          },
          {
            "duration": 0.1327432500000043,
            "durationTicks": 96,
            "midi": 42,
            "name": "F#2",
            "ticks": 84288,
            "time": 116.5485735,
            "velocity": 0.7874015748031497
          },
          {
            "duration": 0.1327432500000043,
            "durationTicks": 96,
            "midi": 44,
            "name": "G#2",
            "ticks": 84384,
            "time": 116.68131675000001,
            "velocity": 0.7874015748031497
          },
          {
            "duration": 0.1327432499999901,
            "durationTicks": 96,
            "midi": 46,
            "name": "A#2",
            "ticks": 84480,
            "time": 116.81406000000001,
            "velocity": 0.7874015748031497
          },
          {
            "duration": 0.2654864999999944,
            "durationTicks": 192,
            "midi": 36,
            "name": "C2",
            "ticks": 84480,
            "time": 116.81406000000001,
            "velocity": 0.7874015748031497
          },
          {
            "duration": 0.1327432500000043,
            "durationTicks": 96,
            "midi": 44,
            "name": "G#2",
            "ticks": 84576,
            "time": 116.94680325,
            "velocity": 0.7874015748031497
          },
          {
            "duration": 0.2654864999999944,
            "durationTicks": 192,
            "midi": 40,
            "name": "E2",
            "ticks": 84672,
            "time": 117.0795465,
            "velocity": 0.7874015748031497
          },
          {
            "duration": 0.1327432500000043,
            "durationTicks": 96,
            "midi": 42,
            "name": "F#2",
            "ticks": 84672,
            "time": 117.0795465,
            "velocity": 0.7874015748031497
          },
          {
            "duration": 0.1327432499999901,
            "durationTicks": 96,
            "midi": 44,
            "name": "G#2",
            "ticks": 84768,
            "time": 117.21228975000001,
            "velocity": 0.7874015748031497
          },
          {
            "duration": 0.2654865000000086,
            "durationTicks": 192,
            "midi": 36,
            "name": "C2",
            "ticks": 84864,
            "time": 117.345033,
            "velocity": 0.7874015748031497
          },
          {
            "duration": 0.1327432500000043,
            "durationTicks": 96,
            "midi": 46,
            "name": "A#2",
            "ticks": 84864,
            "time": 117.345033,
            "velocity": 0.7874015748031497
          },
          {
            "duration": 0.1327432500000043,
            "durationTicks": 96,
            "midi": 44,
            "name": "G#2",
            "ticks": 84960,
            "time": 117.47777625,
            "velocity": 0.7874015748031497
          },
          {
            "duration": 0.1327432499999901,
            "durationTicks": 96,
            "midi": 42,
            "name": "F#2",
            "ticks": 85056,
            "time": 117.61051950000001,
            "velocity": 0.7874015748031497
          },
          {
            "duration": 0.2654864999999944,
            "durationTicks": 192,
            "midi": 40,
            "name": "E2",
            "ticks": 85056,
            "time": 117.61051950000001,
            "velocity": 0.7874015748031497
          },
          {
            "duration": 0.1327432500000043,
            "durationTicks": 96,
            "midi": 44,
            "name": "G#2",
            "ticks": 85152,
            "time": 117.74326275,
            "velocity": 0.7874015748031497
          },
          {
            "duration": 0.2654865000000086,
            "durationTicks": 192,
            "midi": 36,
            "name": "C2",
            "ticks": 85248,
            "time": 117.876006,
            "velocity": 0.7874015748031497
          },
          {
            "duration": 0.1327432500000043,
            "durationTicks": 96,
            "midi": 46,
            "name": "A#2",
            "ticks": 85248,
            "time": 117.876006,
            "velocity": 0.7874015748031497
          },
          {
            "duration": 0.1327432500000043,
            "durationTicks": 96,
            "midi": 44,
            "name": "G#2",
            "ticks": 85344,
            "time": 118.00874925000001,
            "velocity": 0.7874015748031497
          },
          {
            "duration": 0.2654864999999944,
            "durationTicks": 192,
            "midi": 40,
            "name": "E2",
            "ticks": 85440,
            "time": 118.14149250000001,
            "velocity": 0.7874015748031497
          },
          {
            "duration": 0.1327432499999901,
            "durationTicks": 96,
            "midi": 42,
            "name": "F#2",
            "ticks": 85440,
            "time": 118.14149250000001,
            "velocity": 0.7874015748031497
          },
          {
            "duration": 0.1327432500000043,
            "durationTicks": 96,
            "midi": 44,
            "name": "G#2",
            "ticks": 85536,
            "time": 118.27423575,
            "velocity": 0.7874015748031497
          },
          {
            "duration": 0.2654864999999944,
            "durationTicks": 192,
            "midi": 36,
            "name": "C2",
            "ticks": 85632,
            "time": 118.406979,
            "velocity": 0.7874015748031497
          },
          {
            "duration": 0.1327432500000043,
            "durationTicks": 96,
            "midi": 46,
            "name": "A#2",
            "ticks": 85632,
            "time": 118.406979,
            "velocity": 0.7874015748031497
          },
          {
            "duration": 0.1327432499999901,
            "durationTicks": 96,
            "midi": 44,
            "name": "G#2",
            "ticks": 85728,
            "time": 118.53972225000001,
            "velocity": 0.7874015748031497
          },
          {
            "duration": 0.2654865000000086,
            "durationTicks": 192,
            "midi": 40,
            "name": "E2",
            "ticks": 85824,
            "time": 118.6724655,
            "velocity": 0.7874015748031497
          },
          {
            "duration": 0.1327432500000043,
            "durationTicks": 96,
            "midi": 42,
            "name": "F#2",
            "ticks": 85824,
            "time": 118.6724655,
            "velocity": 0.7874015748031497
          },
          {
            "duration": 0.1327432500000043,
            "durationTicks": 96,
            "midi": 44,
            "name": "G#2",
            "ticks": 85920,
            "time": 118.80520875,
            "velocity": 0.7874015748031497
          },
          {
            "duration": 0.2654864999999944,
            "durationTicks": 192,
            "midi": 36,
            "name": "C2",
            "ticks": 86016,
            "time": 118.93795200000001,
            "velocity": 0.7874015748031497
          },
          {
            "duration": 0.1327432499999901,
            "durationTicks": 96,
            "midi": 46,
            "name": "A#2",
            "ticks": 86016,
            "time": 118.93795200000001,
            "velocity": 0.7874015748031497
          },
          {
            "duration": 0.1327432500000043,
            "durationTicks": 96,
            "midi": 44,
            "name": "G#2",
            "ticks": 86112,
            "time": 119.07069525,
            "velocity": 0.7874015748031497
          },
          {
            "duration": 0.1327432500000043,
            "durationTicks": 96,
            "midi": 42,
            "name": "F#2",
            "ticks": 86208,
            "time": 119.2034385,
            "velocity": 0.7874015748031497
          },
          {
            "duration": 0.2654865000000086,
            "durationTicks": 192,
            "midi": 40,
            "name": "E2",
            "ticks": 86208,
            "time": 119.2034385,
            "velocity": 0.7874015748031497
          },
          {
            "duration": 0.1327432500000043,
            "durationTicks": 96,
            "midi": 44,
            "name": "G#2",
            "ticks": 86304,
            "time": 119.33618175000001,
            "velocity": 0.7874015748031497
          },
          {
            "duration": 0.2654864999999944,
            "durationTicks": 192,
            "midi": 36,
            "name": "C2",
            "ticks": 86400,
            "time": 119.46892500000001,
            "velocity": 0.7874015748031497
          },
          {
            "duration": 0.1327432499999901,
            "durationTicks": 96,
            "midi": 46,
            "name": "A#2",
            "ticks": 86400,
            "time": 119.46892500000001,
            "velocity": 0.7874015748031497
          },
          {
            "duration": 0.1327432500000043,
            "durationTicks": 96,
            "midi": 44,
            "name": "G#2",
            "ticks": 86496,
            "time": 119.60166825,
            "velocity": 0.7874015748031497
          },
          {
            "duration": 0.2654864999999944,
            "durationTicks": 192,
            "midi": 40,
            "name": "E2",
            "ticks": 86592,
            "time": 119.73441150000001,
            "velocity": 0.7874015748031497
          },
          {
            "duration": 0.1327432500000043,
            "durationTicks": 96,
            "midi": 42,
            "name": "F#2",
            "ticks": 86592,
            "time": 119.73441150000001,
            "velocity": 0.7874015748031497
          },
          {
            "duration": 0.1327432499999901,
            "durationTicks": 96,
            "midi": 44,
            "name": "G#2",
            "ticks": 86688,
            "time": 119.86715475000001,
            "velocity": 0.7874015748031497
          },
          {
            "duration": 0.1327432500000043,
            "durationTicks": 96,
            "midi": 46,
            "name": "A#2",
            "ticks": 86784,
            "time": 119.999898,
            "velocity": 0.7874015748031497
          },
          {
            "duration": 0.2654865000000086,
            "durationTicks": 192,
            "midi": 36,
            "name": "C2",
            "ticks": 86784,
            "time": 119.999898,
            "velocity": 0.7874015748031497
          },
          {
            "duration": 0.1327432500000043,
            "durationTicks": 96,
            "midi": 44,
            "name": "G#2",
            "ticks": 86880,
            "time": 120.13264125,
            "velocity": 0.7874015748031497
          },
          {
            "duration": 0.1327432499999901,
            "durationTicks": 96,
            "midi": 42,
            "name": "F#2",
            "ticks": 86976,
            "time": 120.26538450000001,
            "velocity": 0.7874015748031497
          },
          {
            "duration": 0.2654864999999944,
            "durationTicks": 192,
            "midi": 40,
            "name": "E2",
            "ticks": 86976,
            "time": 120.26538450000001,
            "velocity": 0.7874015748031497
          },
          {
            "duration": 0.1327432500000043,
            "durationTicks": 96,
            "midi": 44,
            "name": "G#2",
            "ticks": 87072,
            "time": 120.39812775,
            "velocity": 0.7874015748031497
          },
          {
            "duration": 0.1327432500000043,
            "durationTicks": 96,
            "midi": 46,
            "name": "A#2",
            "ticks": 87168,
            "time": 120.530871,
            "velocity": 0.7874015748031497
          },
          {
            "duration": 0.2654865000000086,
            "durationTicks": 192,
            "midi": 36,
            "name": "C2",
            "ticks": 87168,
            "time": 120.530871,
            "velocity": 0.7874015748031497
          },
          {
            "duration": 0.1327432500000043,
            "durationTicks": 96,
            "midi": 44,
            "name": "G#2",
            "ticks": 87264,
            "time": 120.66361425000001,
            "velocity": 0.7874015748031497
          },
          {
            "duration": 0.2654864999999944,
            "durationTicks": 192,
            "midi": 40,
            "name": "E2",
            "ticks": 87360,
            "time": 120.79635750000001,
            "velocity": 0.7874015748031497
          },
          {
            "duration": 0.1327432499999901,
            "durationTicks": 96,
            "midi": 42,
            "name": "F#2",
            "ticks": 87360,
            "time": 120.79635750000001,
            "velocity": 0.7874015748031497
          },
          {
            "duration": 0.1327432500000043,
            "durationTicks": 96,
            "midi": 44,
            "name": "G#2",
            "ticks": 87456,
            "time": 120.92910075,
            "velocity": 0.7874015748031497
          },
          {
            "duration": 0.2654864999999944,
            "durationTicks": 192,
            "midi": 36,
            "name": "C2",
            "ticks": 87552,
            "time": 121.06184400000001,
            "velocity": 0.7874015748031497
          },
          {
            "duration": 0.1327432500000043,
            "durationTicks": 96,
            "midi": 46,
            "name": "A#2",
            "ticks": 87552,
            "time": 121.06184400000001,
            "velocity": 0.7874015748031497
          },
          {
            "duration": 0.1327432499999901,
            "durationTicks": 96,
            "midi": 44,
            "name": "G#2",
            "ticks": 87648,
            "time": 121.19458725000001,
            "velocity": 0.7874015748031497
          },
          {
            "duration": 0.2654865000000086,
            "durationTicks": 192,
            "midi": 40,
            "name": "E2",
            "ticks": 87744,
            "time": 121.3273305,
            "velocity": 0.7874015748031497
          },
          {
            "duration": 0.1327432500000043,
            "durationTicks": 96,
            "midi": 42,
            "name": "F#2",
            "ticks": 87744,
            "time": 121.3273305,
            "velocity": 0.7874015748031497
          },
          {
            "duration": 0.1327432500000043,
            "durationTicks": 96,
            "midi": 44,
            "name": "G#2",
            "ticks": 87840,
            "time": 121.46007375,
            "velocity": 0.7874015748031497
          },
          {
            "duration": 0.2654864999999944,
            "durationTicks": 192,
            "midi": 36,
            "name": "C2",
            "ticks": 87936,
            "time": 121.59281700000001,
            "velocity": 0.7874015748031497
          },
          {
            "duration": 0.1327432499999901,
            "durationTicks": 96,
            "midi": 46,
            "name": "A#2",
            "ticks": 87936,
            "time": 121.59281700000001,
            "velocity": 0.7874015748031497
          },
          {
            "duration": 0.1327432500000043,
            "durationTicks": 96,
            "midi": 44,
            "name": "G#2",
            "ticks": 88032,
            "time": 121.72556025,
            "velocity": 0.7874015748031497
          },
          {
            "duration": 0.1327432500000043,
            "durationTicks": 96,
            "midi": 42,
            "name": "F#2",
            "ticks": 88128,
            "time": 121.8583035,
            "velocity": 0.7874015748031497
          },
          {
            "duration": 0.2654864999999944,
            "durationTicks": 192,
            "midi": 40,
            "name": "E2",
            "ticks": 88128,
            "time": 121.8583035,
            "velocity": 0.7874015748031497
          },
          {
            "duration": 0.1327432499999901,
            "durationTicks": 96,
            "midi": 44,
            "name": "G#2",
            "ticks": 88224,
            "time": 121.99104675000001,
            "velocity": 0.7874015748031497
          },
          {
            "duration": 0.1327432500000043,
            "durationTicks": 96,
            "midi": 46,
            "name": "A#2",
            "ticks": 88320,
            "time": 122.12379,
            "velocity": 0.7874015748031497
          },
          {
            "duration": 0.2654865000000086,
            "durationTicks": 192,
            "midi": 36,
            "name": "C2",
            "ticks": 88320,
            "time": 122.12379,
            "velocity": 0.7874015748031497
          },
          {
            "duration": 0.1327432500000043,
            "durationTicks": 96,
            "midi": 44,
            "name": "G#2",
            "ticks": 88416,
            "time": 122.25653325,
            "velocity": 0.7874015748031497
          },
          {
            "duration": 0.1327432500000043,
            "durationTicks": 96,
            "midi": 42,
            "name": "F#2",
            "ticks": 88512,
            "time": 122.38927650000001,
            "velocity": 0.7874015748031497
          },
          {
            "duration": 0.2654864999999944,
            "durationTicks": 192,
            "midi": 40,
            "name": "E2",
            "ticks": 88512,
            "time": 122.38927650000001,
            "velocity": 0.7874015748031497
          },
          {
            "duration": 0.1327432499999901,
            "durationTicks": 96,
            "midi": 44,
            "name": "G#2",
            "ticks": 88608,
            "time": 122.52201975000001,
            "velocity": 0.7874015748031497
          },
          {
            "duration": 0.1327432500000043,
            "durationTicks": 96,
            "midi": 46,
            "name": "A#2",
            "ticks": 88704,
            "time": 122.654763,
            "velocity": 0.7874015748031497
          },
          {
            "duration": 0.2654865000000086,
            "durationTicks": 192,
            "midi": 36,
            "name": "C2",
            "ticks": 88704,
            "time": 122.654763,
            "velocity": 0.7874015748031497
          },
          {
            "duration": 0.1327432500000043,
            "durationTicks": 96,
            "midi": 44,
            "name": "G#2",
            "ticks": 88800,
            "time": 122.78750625,
            "velocity": 0.7874015748031497
          },
          {
            "duration": 0.2654864999999944,
            "durationTicks": 192,
            "midi": 40,
            "name": "E2",
            "ticks": 88896,
            "time": 122.92024950000001,
            "velocity": 0.7874015748031497
          },
          {
            "duration": 0.1327432499999901,
            "durationTicks": 96,
            "midi": 42,
            "name": "F#2",
            "ticks": 88896,
            "time": 122.92024950000001,
            "velocity": 0.7874015748031497
          },
          {
            "duration": 0.1327432500000043,
            "durationTicks": 96,
            "midi": 44,
            "name": "G#2",
            "ticks": 88992,
            "time": 123.05299275,
            "velocity": 0.7874015748031497
          },
          {
            "duration": 0.2654864999999944,
            "durationTicks": 192,
            "midi": 36,
            "name": "C2",
            "ticks": 89088,
            "time": 123.185736,
            "velocity": 0.7874015748031497
          },
          {
            "duration": 0.1327432500000043,
            "durationTicks": 96,
            "midi": 46,
            "name": "A#2",
            "ticks": 89088,
            "time": 123.185736,
            "velocity": 0.7874015748031497
          },
          {
            "duration": 0.1327432499999901,
            "durationTicks": 96,
            "midi": 44,
            "name": "G#2",
            "ticks": 89184,
            "time": 123.31847925000001,
            "velocity": 0.7874015748031497
          },
          {
            "duration": 0.2654865000000086,
            "durationTicks": 192,
            "midi": 40,
            "name": "E2",
            "ticks": 89280,
            "time": 123.4512225,
            "velocity": 0.7874015748031497
          },
          {
            "duration": 0.1327432500000043,
            "durationTicks": 96,
            "midi": 42,
            "name": "F#2",
            "ticks": 89280,
            "time": 123.4512225,
            "velocity": 0.7874015748031497
          },
          {
            "duration": 0.1327432500000043,
            "durationTicks": 96,
            "midi": 44,
            "name": "G#2",
            "ticks": 89376,
            "time": 123.58396575,
            "velocity": 0.7874015748031497
          },
          {
            "duration": 0.1327432500000043,
            "durationTicks": 96,
            "midi": 46,
            "name": "A#2",
            "ticks": 89472,
            "time": 123.71670900000001,
            "velocity": 0.7874015748031497
          },
          {
            "duration": 0.2654864999999944,
            "durationTicks": 192,
            "midi": 36,
            "name": "C2",
            "ticks": 89472,
            "time": 123.71670900000001,
            "velocity": 0.7874015748031497
          },
          {
            "duration": 0.1327432499999901,
            "durationTicks": 96,
            "midi": 44,
            "name": "G#2",
            "ticks": 89568,
            "time": 123.84945225000001,
            "velocity": 0.7874015748031497
          },
          {
            "duration": 0.1327432500000043,
            "durationTicks": 96,
            "midi": 42,
            "name": "F#2",
            "ticks": 89664,
            "time": 123.9821955,
            "velocity": 0.7874015748031497
          },
          {
            "duration": 0.2654865000000086,
            "durationTicks": 192,
            "midi": 40,
            "name": "E2",
            "ticks": 89664,
            "time": 123.9821955,
            "velocity": 0.7874015748031497
          },
          {
            "duration": 0.1327432500000043,
            "durationTicks": 96,
            "midi": 44,
            "name": "G#2",
            "ticks": 89760,
            "time": 124.11493875000001,
            "velocity": 0.7874015748031497
          },
          {
            "duration": 0.2654864999999944,
            "durationTicks": 192,
            "midi": 36,
            "name": "C2",
            "ticks": 89856,
            "time": 124.24768200000001,
            "velocity": 0.7874015748031497
          },
          {
            "duration": 0.1327432499999901,
            "durationTicks": 96,
            "midi": 46,
            "name": "A#2",
            "ticks": 89856,
            "time": 124.24768200000001,
            "velocity": 0.7874015748031497
          },
          {
            "duration": 0.1327432500000043,
            "durationTicks": 96,
            "midi": 44,
            "name": "G#2",
            "ticks": 89952,
            "time": 124.38042525,
            "velocity": 0.7874015748031497
          },
          {
            "duration": 0.2654864999999944,
            "durationTicks": 192,
            "midi": 40,
            "name": "E2",
            "ticks": 90048,
            "time": 124.5131685,
            "velocity": 0.7874015748031497
          },
          {
            "duration": 0.1327432500000043,
            "durationTicks": 96,
            "midi": 42,
            "name": "F#2",
            "ticks": 90048,
            "time": 124.5131685,
            "velocity": 0.7874015748031497
          },
          {
            "duration": 0.1327432499999901,
            "durationTicks": 96,
            "midi": 44,
            "name": "G#2",
            "ticks": 90144,
            "time": 124.64591175000001,
            "velocity": 0.7874015748031497
          },
          {
            "duration": 0.2654865000000086,
            "durationTicks": 192,
            "midi": 36,
            "name": "C2",
            "ticks": 90240,
            "time": 124.778655,
            "velocity": 0.7874015748031497
          },
          {
            "duration": 0.1327432500000043,
            "durationTicks": 96,
            "midi": 46,
            "name": "A#2",
            "ticks": 90240,
            "time": 124.778655,
            "velocity": 0.7874015748031497
          },
          {
            "duration": 0.1327432500000043,
            "durationTicks": 96,
            "midi": 44,
            "name": "G#2",
            "ticks": 90336,
            "time": 124.91139825,
            "velocity": 0.7874015748031497
          },
          {
            "duration": 0.2654864999999944,
            "durationTicks": 192,
            "midi": 40,
            "name": "E2",
            "ticks": 90432,
            "time": 125.04414150000001,
            "velocity": 0.7874015748031497
          },
          {
            "duration": 0.1327432500000043,
            "durationTicks": 96,
            "midi": 42,
            "name": "F#2",
            "ticks": 90432,
            "time": 125.04414150000001,
            "velocity": 0.7874015748031497
          },
          {
            "duration": 0.1327432499999901,
            "durationTicks": 96,
            "midi": 44,
            "name": "G#2",
            "ticks": 90528,
            "time": 125.17688475000001,
            "velocity": 0.7874015748031497
          },
          {
            "duration": 0.2654865000000086,
            "durationTicks": 192,
            "midi": 36,
            "name": "C2",
            "ticks": 90624,
            "time": 125.309628,
            "velocity": 0.7874015748031497
          },
          {
            "duration": 0.1327432500000043,
            "durationTicks": 96,
            "midi": 46,
            "name": "A#2",
            "ticks": 90624,
            "time": 125.309628,
            "velocity": 0.7874015748031497
          },
          {
            "duration": 0.1327432500000043,
            "durationTicks": 96,
            "midi": 44,
            "name": "G#2",
            "ticks": 90720,
            "time": 125.44237125000001,
            "velocity": 0.7874015748031497
          },
          {
            "duration": 0.1327432499999901,
            "durationTicks": 96,
            "midi": 42,
            "name": "F#2",
            "ticks": 90816,
            "time": 125.57511450000001,
            "velocity": 0.7874015748031497
          },
          {
            "duration": 0.2654864999999944,
            "durationTicks": 192,
            "midi": 40,
            "name": "E2",
            "ticks": 90816,
            "time": 125.57511450000001,
            "velocity": 0.7874015748031497
          },
          {
            "duration": 0.1327432500000043,
            "durationTicks": 96,
            "midi": 44,
            "name": "G#2",
            "ticks": 90912,
            "time": 125.70785775,
            "velocity": 0.7874015748031497
          },
          {
            "duration": 0.1327432500000043,
            "durationTicks": 96,
            "midi": 46,
            "name": "A#2",
            "ticks": 91008,
            "time": 125.840601,
            "velocity": 0.7874015748031497
          },
          {
            "duration": 0.2654864999999944,
            "durationTicks": 192,
            "midi": 36,
            "name": "C2",
            "ticks": 91008,
            "time": 125.840601,
            "velocity": 0.7874015748031497
          },
          {
            "duration": 0.1327432499999901,
            "durationTicks": 96,
            "midi": 44,
            "name": "G#2",
            "ticks": 91104,
            "time": 125.97334425000001,
            "velocity": 0.7874015748031497
          },
          {
            "duration": 0.1327432500000043,
            "durationTicks": 96,
            "midi": 42,
            "name": "F#2",
            "ticks": 91200,
            "time": 126.1060875,
            "velocity": 0.7874015748031497
          },
          {
            "duration": 0.2654865000000086,
            "durationTicks": 192,
            "midi": 40,
            "name": "E2",
            "ticks": 91200,
            "time": 126.1060875,
            "velocity": 0.7874015748031497
          },
          {
            "duration": 0.1327432500000043,
            "durationTicks": 96,
            "midi": 44,
            "name": "G#2",
            "ticks": 91296,
            "time": 126.23883075,
            "velocity": 0.7874015748031497
          },
          {
            "duration": 0.2654864999999944,
            "durationTicks": 192,
            "midi": 36,
            "name": "C2",
            "ticks": 91392,
            "time": 126.37157400000001,
            "velocity": 0.7874015748031497
          },
          {
            "duration": 0.1327432499999901,
            "durationTicks": 96,
            "midi": 46,
            "name": "A#2",
            "ticks": 91392,
            "time": 126.37157400000001,
            "velocity": 0.7874015748031497
          },
          {
            "duration": 0.1327432500000043,
            "durationTicks": 96,
            "midi": 44,
            "name": "G#2",
            "ticks": 91488,
            "time": 126.50431725,
            "velocity": 0.7874015748031497
          },
          {
            "duration": 0.1327432500000043,
            "durationTicks": 96,
            "midi": 42,
            "name": "F#2",
            "ticks": 91584,
            "time": 126.6370605,
            "velocity": 0.7874015748031497
          },
          {
            "duration": 0.2654865000000086,
            "durationTicks": 192,
            "midi": 40,
            "name": "E2",
            "ticks": 91584,
            "time": 126.6370605,
            "velocity": 0.7874015748031497
          },
          {
            "duration": 0.1327432500000043,
            "durationTicks": 96,
            "midi": 44,
            "name": "G#2",
            "ticks": 91680,
            "time": 126.76980375000001,
            "velocity": 0.7874015748031497
          },
          {
            "duration": 0.1327432499999901,
            "durationTicks": 96,
            "midi": 46,
            "name": "A#2",
            "ticks": 91776,
            "time": 126.90254700000001,
            "velocity": 0.7874015748031497
          },
          {
            "duration": 0.2654864999999944,
            "durationTicks": 192,
            "midi": 36,
            "name": "C2",
            "ticks": 91776,
            "time": 126.90254700000001,
            "velocity": 0.7874015748031497
          },
          {
            "duration": 0.1327432500000043,
            "durationTicks": 96,
            "midi": 44,
            "name": "G#2",
            "ticks": 91872,
            "time": 127.03529025,
            "velocity": 0.7874015748031497
          },
          {
            "duration": 0.2654864999999944,
            "durationTicks": 192,
            "midi": 40,
            "name": "E2",
            "ticks": 91968,
            "time": 127.1680335,
            "velocity": 0.7874015748031497
          },
          {
            "duration": 0.1327432500000043,
            "durationTicks": 96,
            "midi": 42,
            "name": "F#2",
            "ticks": 91968,
            "time": 127.1680335,
            "velocity": 0.7874015748031497
          },
          {
            "duration": 0.1327432499999901,
            "durationTicks": 96,
            "midi": 44,
            "name": "G#2",
            "ticks": 92064,
            "time": 127.30077675000001,
            "velocity": 0.7874015748031497
          },
          {
            "duration": 0.2654865000000086,
            "durationTicks": 192,
            "midi": 36,
            "name": "C2",
            "ticks": 105984,
            "time": 146.548548,
            "velocity": 0.7874015748031497
          },
          {
            "duration": 0.1327432500000043,
            "durationTicks": 96,
            "midi": 46,
            "name": "A#2",
            "ticks": 105984,
            "time": 146.548548,
            "velocity": 0.7874015748031497
          },
          {
            "duration": 0.1327432500000043,
            "durationTicks": 96,
            "midi": 44,
            "name": "G#2",
            "ticks": 106080,
            "time": 146.68129125000002,
            "velocity": 0.7874015748031497
          },
          {
            "duration": 0.2654864999999802,
            "durationTicks": 192,
            "midi": 40,
            "name": "E2",
            "ticks": 106176,
            "time": 146.81403450000002,
            "velocity": 0.7874015748031497
          },
          {
            "duration": 0.1327432499999759,
            "durationTicks": 96,
            "midi": 42,
            "name": "F#2",
            "ticks": 106176,
            "time": 146.81403450000002,
            "velocity": 0.7874015748031497
          },
          {
            "duration": 0.1327432500000043,
            "durationTicks": 96,
            "midi": 44,
            "name": "G#2",
            "ticks": 106272,
            "time": 146.94677775,
            "velocity": 0.7874015748031497
          },
          {
            "duration": 0.2654865000000086,
            "durationTicks": 192,
            "midi": 36,
            "name": "C2",
            "ticks": 106368,
            "time": 147.079521,
            "velocity": 0.7874015748031497
          },
          {
            "duration": 0.1327432500000043,
            "durationTicks": 96,
            "midi": 46,
            "name": "A#2",
            "ticks": 106368,
            "time": 147.079521,
            "velocity": 0.7874015748031497
          },
          {
            "duration": 0.1327432500000043,
            "durationTicks": 96,
            "midi": 44,
            "name": "G#2",
            "ticks": 106464,
            "time": 147.21226425,
            "velocity": 0.7874015748031497
          },
          {
            "duration": 0.1327432500000043,
            "durationTicks": 96,
            "midi": 42,
            "name": "F#2",
            "ticks": 106560,
            "time": 147.3450075,
            "velocity": 0.7874015748031497
          },
          {
            "duration": 0.2654865000000086,
            "durationTicks": 192,
            "midi": 40,
            "name": "E2",
            "ticks": 106560,
            "time": 147.3450075,
            "velocity": 0.7874015748031497
          },
          {
            "duration": 0.1327432500000043,
            "durationTicks": 96,
            "midi": 44,
            "name": "G#2",
            "ticks": 106656,
            "time": 147.47775075,
            "velocity": 0.7874015748031497
          },
          {
            "duration": 0.1327432500000043,
            "durationTicks": 96,
            "midi": 46,
            "name": "A#2",
            "ticks": 106752,
            "time": 147.61049400000002,
            "velocity": 0.7874015748031497
          },
          {
            "duration": 0.2654864999999802,
            "durationTicks": 192,
            "midi": 36,
            "name": "C2",
            "ticks": 106752,
            "time": 147.61049400000002,
            "velocity": 0.7874015748031497
          },
          {
            "duration": 0.1327432499999759,
            "durationTicks": 96,
            "midi": 44,
            "name": "G#2",
            "ticks": 106848,
            "time": 147.74323725000002,
            "velocity": 0.7874015748031497
          },
          {
            "duration": 0.1327432500000043,
            "durationTicks": 96,
            "midi": 42,
            "name": "F#2",
            "ticks": 106944,
            "time": 147.8759805,
            "velocity": 0.7874015748031497
          },
          {
            "duration": 0.2654865000000086,
            "durationTicks": 192,
            "midi": 40,
            "name": "E2",
            "ticks": 106944,
            "time": 147.8759805,
            "velocity": 0.7874015748031497
          },
          {
            "duration": 0.1327432500000043,
            "durationTicks": 96,
            "midi": 44,
            "name": "G#2",
            "ticks": 107040,
            "time": 148.00872375,
            "velocity": 0.7874015748031497
          },
          {
            "duration": 0.2654865000000086,
            "durationTicks": 192,
            "midi": 36,
            "name": "C2",
            "ticks": 107136,
            "time": 148.141467,
            "velocity": 0.7874015748031497
          },
          {
            "duration": 0.1327432500000043,
            "durationTicks": 96,
            "midi": 46,
            "name": "A#2",
            "ticks": 107136,
            "time": 148.141467,
            "velocity": 0.7874015748031497
          },
          {
            "duration": 0.1327432500000043,
            "durationTicks": 96,
            "midi": 44,
            "name": "G#2",
            "ticks": 107232,
            "time": 148.27421025,
            "velocity": 0.7874015748031497
          },
          {
            "duration": 0.1327432500000043,
            "durationTicks": 96,
            "midi": 42,
            "name": "F#2",
            "ticks": 107328,
            "time": 148.40695350000001,
            "velocity": 0.7874015748031497
          },
          {
            "duration": 0.2654864999999802,
            "durationTicks": 192,
            "midi": 40,
            "name": "E2",
            "ticks": 107328,
            "time": 148.40695350000001,
            "velocity": 0.7874015748031497
          },
          {
            "duration": 0.1327432499999759,
            "durationTicks": 96,
            "midi": 44,
            "name": "G#2",
            "ticks": 107424,
            "time": 148.53969675000002,
            "velocity": 0.7874015748031497
          },
          {
            "duration": 0.2654865000000086,
            "durationTicks": 192,
            "midi": 36,
            "name": "C2",
            "ticks": 107520,
            "time": 148.67244,
            "velocity": 0.7874015748031497
          },
          {
            "duration": 0.1327432500000043,
            "durationTicks": 96,
            "midi": 46,
            "name": "A#2",
            "ticks": 107520,
            "time": 148.67244,
            "velocity": 0.7874015748031497
          },
          {
            "duration": 0.1327432500000043,
            "durationTicks": 96,
            "midi": 44,
            "name": "G#2",
            "ticks": 107616,
            "time": 148.80518325,
            "velocity": 0.7874015748031497
          },
          {
            "duration": 0.1327432500000043,
            "durationTicks": 96,
            "midi": 42,
            "name": "F#2",
            "ticks": 107712,
            "time": 148.9379265,
            "velocity": 0.7874015748031497
          },
          {
            "duration": 0.2654865000000086,
            "durationTicks": 192,
            "midi": 40,
            "name": "E2",
            "ticks": 107712,
            "time": 148.9379265,
            "velocity": 0.7874015748031497
          },
          {
            "duration": 0.1327432500000043,
            "durationTicks": 96,
            "midi": 44,
            "name": "G#2",
            "ticks": 107808,
            "time": 149.07066975,
            "velocity": 0.7874015748031497
          },
          {
            "duration": 0.1327432500000043,
            "durationTicks": 96,
            "midi": 46,
            "name": "A#2",
            "ticks": 107904,
            "time": 149.203413,
            "velocity": 0.7874015748031497
          },
          {
            "duration": 0.2654865000000086,
            "durationTicks": 192,
            "midi": 36,
            "name": "C2",
            "ticks": 107904,
            "time": 149.203413,
            "velocity": 0.7874015748031497
          },
          {
            "duration": 0.1327432500000043,
            "durationTicks": 96,
            "midi": 44,
            "name": "G#2",
            "ticks": 108000,
            "time": 149.33615625000002,
            "velocity": 0.7874015748031497
          },
          {
            "duration": 0.1327432499999759,
            "durationTicks": 96,
            "midi": 42,
            "name": "F#2",
            "ticks": 108096,
            "time": 149.46889950000002,
            "velocity": 0.7874015748031497
          },
          {
            "duration": 0.2654864999999802,
            "durationTicks": 192,
            "midi": 40,
            "name": "E2",
            "ticks": 108096,
            "time": 149.46889950000002,
            "velocity": 0.7874015748031497
          },
          {
            "duration": 0.1327432500000043,
            "durationTicks": 96,
            "midi": 44,
            "name": "G#2",
            "ticks": 108192,
            "time": 149.60164275,
            "velocity": 0.7874015748031497
          },
          {
            "duration": 0.1327432500000043,
            "durationTicks": 96,
            "midi": 46,
            "name": "A#2",
            "ticks": 108288,
            "time": 149.734386,
            "velocity": 0.7874015748031497
          },
          {
            "duration": 0.2654865000000086,
            "durationTicks": 192,
            "midi": 36,
            "name": "C2",
            "ticks": 108288,
            "time": 149.734386,
            "velocity": 0.7874015748031497
          },
          {
            "duration": 0.1327432500000043,
            "durationTicks": 96,
            "midi": 44,
            "name": "G#2",
            "ticks": 108384,
            "time": 149.86712925,
            "velocity": 0.7874015748031497
          },
          {
            "duration": 0.2654865000000086,
            "durationTicks": 192,
            "midi": 40,
            "name": "E2",
            "ticks": 108480,
            "time": 149.9998725,
            "velocity": 0.7874015748031497
          },
          {
            "duration": 0.1327432500000043,
            "durationTicks": 96,
            "midi": 42,
            "name": "F#2",
            "ticks": 108480,
            "time": 149.9998725,
            "velocity": 0.7874015748031497
          },
          {
            "duration": 0.1327432500000043,
            "durationTicks": 96,
            "midi": 44,
            "name": "G#2",
            "ticks": 108576,
            "time": 150.13261575,
            "velocity": 0.7874015748031497
          },
          {
            "duration": 0.2654864999999802,
            "durationTicks": 192,
            "midi": 36,
            "name": "C2",
            "ticks": 108672,
            "time": 150.26535900000002,
            "velocity": 0.7874015748031497
          },
          {
            "duration": 0.1327432500000043,
            "durationTicks": 96,
            "midi": 46,
            "name": "A#2",
            "ticks": 108672,
            "time": 150.26535900000002,
            "velocity": 0.7874015748031497
          },
          {
            "duration": 0.1327432499999759,
            "durationTicks": 96,
            "midi": 44,
            "name": "G#2",
            "ticks": 108768,
            "time": 150.39810225000002,
            "velocity": 0.7874015748031497
          },
          {
            "duration": 0.2654865000000086,
            "durationTicks": 192,
            "midi": 40,
            "name": "E2",
            "ticks": 108864,
            "time": 150.5308455,
            "velocity": 0.7874015748031497
          },
          {
            "duration": 0.1327432500000043,
            "durationTicks": 96,
            "midi": 42,
            "name": "F#2",
            "ticks": 108864,
            "time": 150.5308455,
            "velocity": 0.7874015748031497
          },
          {
            "duration": 0.1327432500000043,
            "durationTicks": 96,
            "midi": 44,
            "name": "G#2",
            "ticks": 108960,
            "time": 150.66358875,
            "velocity": 0.7874015748031497
          },
          {
            "duration": 0.2654865000000086,
            "durationTicks": 192,
            "midi": 36,
            "name": "C2",
            "ticks": 109056,
            "time": 150.796332,
            "velocity": 0.7874015748031497
          },
          {
            "duration": 0.1327432500000043,
            "durationTicks": 96,
            "midi": 46,
            "name": "A#2",
            "ticks": 109056,
            "time": 150.796332,
            "velocity": 0.7874015748031497
          },
          {
            "duration": 0.1327432500000043,
            "durationTicks": 96,
            "midi": 44,
            "name": "G#2",
            "ticks": 109152,
            "time": 150.92907525,
            "velocity": 0.7874015748031497
          },
          {
            "duration": 0.2654864999999802,
            "durationTicks": 192,
            "midi": 40,
            "name": "E2",
            "ticks": 109248,
            "time": 151.06181850000002,
            "velocity": 0.7874015748031497
          },
          {
            "duration": 0.1327432500000043,
            "durationTicks": 96,
            "midi": 42,
            "name": "F#2",
            "ticks": 109248,
            "time": 151.06181850000002,
            "velocity": 0.7874015748031497
          },
          {
            "duration": 0.1327432499999759,
            "durationTicks": 96,
            "midi": 44,
            "name": "G#2",
            "ticks": 109344,
            "time": 151.19456175000002,
            "velocity": 0.7874015748031497
          },
          {
            "duration": 0.2654865000000086,
            "durationTicks": 192,
            "midi": 36,
            "name": "C2",
            "ticks": 109440,
            "time": 151.327305,
            "velocity": 0.7874015748031497
          },
          {
            "duration": 0.1327432500000043,
            "durationTicks": 96,
            "midi": 46,
            "name": "A#2",
            "ticks": 109440,
            "time": 151.327305,
            "velocity": 0.7874015748031497
          },
          {
            "duration": 0.1327432500000043,
            "durationTicks": 96,
            "midi": 44,
            "name": "G#2",
            "ticks": 109536,
            "time": 151.46004825,
            "velocity": 0.7874015748031497
          },
          {
            "duration": 0.2654865000000086,
            "durationTicks": 192,
            "midi": 40,
            "name": "E2",
            "ticks": 109632,
            "time": 151.5927915,
            "velocity": 0.7874015748031497
          },
          {
            "duration": 0.1327432500000043,
            "durationTicks": 96,
            "midi": 42,
            "name": "F#2",
            "ticks": 109632,
            "time": 151.5927915,
            "velocity": 0.7874015748031497
          },
          {
            "duration": 0.1327432500000043,
            "durationTicks": 96,
            "midi": 44,
            "name": "G#2",
            "ticks": 109728,
            "time": 151.72553475,
            "velocity": 0.7874015748031497
          },
          {
            "duration": 0.1327432500000043,
            "durationTicks": 96,
            "midi": 46,
            "name": "A#2",
            "ticks": 109824,
            "time": 151.858278,
            "velocity": 0.7874015748031497
          },
          {
            "duration": 0.2654865000000086,
            "durationTicks": 192,
            "midi": 36,
            "name": "C2",
            "ticks": 109824,
            "time": 151.858278,
            "velocity": 0.7874015748031497
          },
          {
            "duration": 0.1327432500000043,
            "durationTicks": 96,
            "midi": 44,
            "name": "G#2",
            "ticks": 109920,
            "time": 151.99102125000002,
            "velocity": 0.7874015748031497
          },
          {
            "duration": 0.2654864999999802,
            "durationTicks": 192,
            "midi": 40,
            "name": "E2",
            "ticks": 110016,
            "time": 152.12376450000002,
            "velocity": 0.7874015748031497
          },
          {
            "duration": 0.1327432499999759,
            "durationTicks": 96,
            "midi": 42,
            "name": "F#2",
            "ticks": 110016,
            "time": 152.12376450000002,
            "velocity": 0.7874015748031497
          },
          {
            "duration": 0.1327432500000043,
            "durationTicks": 96,
            "midi": 44,
            "name": "G#2",
            "ticks": 110112,
            "time": 152.25650775,
            "velocity": 0.7874015748031497
          },
          {
            "duration": 0.1327432500000043,
            "durationTicks": 96,
            "midi": 46,
            "name": "A#2",
            "ticks": 110208,
            "time": 152.389251,
            "velocity": 0.7874015748031497
          },
          {
            "duration": 0.2654865000000086,
            "durationTicks": 192,
            "midi": 36,
            "name": "C2",
            "ticks": 110208,
            "time": 152.389251,
            "velocity": 0.7874015748031497
          },
          {
            "duration": 0.1327432500000043,
            "durationTicks": 96,
            "midi": 44,
            "name": "G#2",
            "ticks": 110304,
            "time": 152.52199425,
            "velocity": 0.7874015748031497
          },
          {
            "duration": 0.2654865000000086,
            "durationTicks": 192,
            "midi": 40,
            "name": "E2",
            "ticks": 110400,
            "time": 152.6547375,
            "velocity": 0.7874015748031497
          },
          {
            "duration": 0.1327432500000043,
            "durationTicks": 96,
            "midi": 42,
            "name": "F#2",
            "ticks": 110400,
            "time": 152.6547375,
            "velocity": 0.7874015748031497
          },
          {
            "duration": 0.1327432500000043,
            "durationTicks": 96,
            "midi": 44,
            "name": "G#2",
            "ticks": 110496,
            "time": 152.78748075000001,
            "velocity": 0.7874015748031497
          },
          {
            "duration": 0.1327432499999759,
            "durationTicks": 96,
            "midi": 46,
            "name": "A#2",
            "ticks": 110592,
            "time": 152.92022400000002,
            "velocity": 0.7874015748031497
          },
          {
            "duration": 0.2654864999999802,
            "durationTicks": 192,
            "midi": 36,
            "name": "C2",
            "ticks": 110592,
            "time": 152.92022400000002,
            "velocity": 0.7874015748031497
          },
          {
            "duration": 0.1327432500000043,
            "durationTicks": 96,
            "midi": 44,
            "name": "G#2",
            "ticks": 110688,
            "time": 153.05296725,
            "velocity": 0.7874015748031497
          },
          {
            "duration": 0.2654865000000086,
            "durationTicks": 192,
            "midi": 40,
            "name": "E2",
            "ticks": 110784,
            "time": 153.1857105,
            "velocity": 0.7874015748031497
          },
          {
            "duration": 0.1327432500000043,
            "durationTicks": 96,
            "midi": 42,
            "name": "F#2",
            "ticks": 110784,
            "time": 153.1857105,
            "velocity": 0.7874015748031497
          },
          {
            "duration": 0.1327432500000043,
            "durationTicks": 96,
            "midi": 44,
            "name": "G#2",
            "ticks": 110880,
            "time": 153.31845375,
            "velocity": 0.7874015748031497
          },
          {
            "duration": 0.1327432500000043,
            "durationTicks": 96,
            "midi": 46,
            "name": "A#2",
            "ticks": 110976,
            "time": 153.451197,
            "velocity": 0.7874015748031497
          },
          {
            "duration": 0.2654865000000086,
            "durationTicks": 192,
            "midi": 36,
            "name": "C2",
            "ticks": 110976,
            "time": 153.451197,
            "velocity": 0.7874015748031497
          },
          {
            "duration": 0.1327432500000043,
            "durationTicks": 96,
            "midi": 44,
            "name": "G#2",
            "ticks": 111072,
            "time": 153.58394025,
            "velocity": 0.7874015748031497
          },
          {
            "duration": 0.1327432500000043,
            "durationTicks": 96,
            "midi": 42,
            "name": "F#2",
            "ticks": 111168,
            "time": 153.71668350000002,
            "velocity": 0.7874015748031497
          },
          {
            "duration": 0.2654864999999802,
            "durationTicks": 192,
            "midi": 40,
            "name": "E2",
            "ticks": 111168,
            "time": 153.71668350000002,
            "velocity": 0.7874015748031497
          },
          {
            "duration": 0.1327432499999759,
            "durationTicks": 96,
            "midi": 44,
            "name": "G#2",
            "ticks": 111264,
            "time": 153.84942675000002,
            "velocity": 0.7874015748031497
          },
          {
            "duration": 0.1327432500000043,
            "durationTicks": 96,
            "midi": 46,
            "name": "A#2",
            "ticks": 111360,
            "time": 153.98217,
            "velocity": 0.7874015748031497
          },
          {
            "duration": 0.2654865000000086,
            "durationTicks": 192,
            "midi": 36,
            "name": "C2",
            "ticks": 111360,
            "time": 153.98217,
            "velocity": 0.7874015748031497
          },
          {
            "duration": 0.1327432500000043,
            "durationTicks": 96,
            "midi": 44,
            "name": "G#2",
            "ticks": 111456,
            "time": 154.11491325,
            "velocity": 0.7874015748031497
          },
          {
            "duration": 0.2654865000000086,
            "durationTicks": 192,
            "midi": 40,
            "name": "E2",
            "ticks": 111552,
            "time": 154.2476565,
            "velocity": 0.7874015748031497
          },
          {
            "duration": 0.1327432500000043,
            "durationTicks": 96,
            "midi": 42,
            "name": "F#2",
            "ticks": 111552,
            "time": 154.2476565,
            "velocity": 0.7874015748031497
          },
          {
            "duration": 0.1327432500000043,
            "durationTicks": 96,
            "midi": 44,
            "name": "G#2",
            "ticks": 111648,
            "time": 154.38039975,
            "velocity": 0.7874015748031497
          },
          {
            "duration": 0.1327432500000043,
            "durationTicks": 96,
            "midi": 46,
            "name": "A#2",
            "ticks": 111744,
            "time": 154.513143,
            "velocity": 0.7874015748031497
          },
          {
            "duration": 0.2654865000000086,
            "durationTicks": 192,
            "midi": 36,
            "name": "C2",
            "ticks": 111744,
            "time": 154.513143,
            "velocity": 0.7874015748031497
          },
          {
            "duration": 0.1327432500000043,
            "durationTicks": 96,
            "midi": 44,
            "name": "G#2",
            "ticks": 111840,
            "time": 154.64588625000002,
            "velocity": 0.7874015748031497
          },
          {
            "duration": 0.2654864999999802,
            "durationTicks": 192,
            "midi": 40,
            "name": "E2",
            "ticks": 111936,
            "time": 154.77862950000002,
            "velocity": 0.7874015748031497
          },
          {
            "duration": 0.1327432499999759,
            "durationTicks": 96,
            "midi": 42,
            "name": "F#2",
            "ticks": 111936,
            "time": 154.77862950000002,
            "velocity": 0.7874015748031497
          },
          {
            "duration": 0.1327432500000043,
            "durationTicks": 96,
            "midi": 44,
            "name": "G#2",
            "ticks": 112032,
            "time": 154.91137275,
            "velocity": 0.7874015748031497
          },
          {
            "duration": 0.2654865000000086,
            "durationTicks": 192,
            "midi": 36,
            "name": "C2",
            "ticks": 112128,
            "time": 155.044116,
            "velocity": 0.7874015748031497
          },
          {
            "duration": 0.1327432500000043,
            "durationTicks": 96,
            "midi": 46,
            "name": "A#2",
            "ticks": 112128,
            "time": 155.044116,
            "velocity": 0.7874015748031497
          },
          {
            "duration": 0.1327432500000043,
            "durationTicks": 96,
            "midi": 44,
            "name": "G#2",
            "ticks": 112224,
            "time": 155.17685925,
            "velocity": 0.7874015748031497
          },
          {
            "duration": 0.2654865000000086,
            "durationTicks": 192,
            "midi": 40,
            "name": "E2",
            "ticks": 112320,
            "time": 155.3096025,
            "velocity": 0.7874015748031497
          },
          {
            "duration": 0.1327432500000043,
            "durationTicks": 96,
            "midi": 42,
            "name": "F#2",
            "ticks": 112320,
            "time": 155.3096025,
            "velocity": 0.7874015748031497
          },
          {
            "duration": 0.1327432500000043,
            "durationTicks": 96,
            "midi": 44,
            "name": "G#2",
            "ticks": 112416,
            "time": 155.44234575000002,
            "velocity": 0.7874015748031497
          },
          {
            "duration": 0.1327432499999759,
            "durationTicks": 96,
            "midi": 46,
            "name": "A#2",
            "ticks": 112512,
            "time": 155.57508900000002,
            "velocity": 0.7874015748031497
          },
          {
            "duration": 0.2654864999999802,
            "durationTicks": 192,
            "midi": 36,
            "name": "C2",
            "ticks": 112512,
            "time": 155.57508900000002,
            "velocity": 0.7874015748031497
          },
          {
            "duration": 0.1327432500000043,
            "durationTicks": 96,
            "midi": 44,
            "name": "G#2",
            "ticks": 112608,
            "time": 155.70783225,
            "velocity": 0.7874015748031497
          },
          {
            "duration": 0.2654865000000086,
            "durationTicks": 192,
            "midi": 40,
            "name": "E2",
            "ticks": 112704,
            "time": 155.8405755,
            "velocity": 0.7874015748031497
          },
          {
            "duration": 0.1327432500000043,
            "durationTicks": 96,
            "midi": 42,
            "name": "F#2",
            "ticks": 112704,
            "time": 155.8405755,
            "velocity": 0.7874015748031497
          },
          {
            "duration": 0.1327432500000043,
            "durationTicks": 96,
            "midi": 44,
            "name": "G#2",
            "ticks": 112800,
            "time": 155.97331875,
            "velocity": 0.7874015748031497
          },
          {
            "duration": 0.2654865000000086,
            "durationTicks": 192,
            "midi": 36,
            "name": "C2",
            "ticks": 112896,
            "time": 156.106062,
            "velocity": 0.7874015748031497
          },
          {
            "duration": 0.1327432500000043,
            "durationTicks": 96,
            "midi": 46,
            "name": "A#2",
            "ticks": 112896,
            "time": 156.106062,
            "velocity": 0.7874015748031497
          },
          {
            "duration": 0.1327432500000043,
            "durationTicks": 96,
            "midi": 44,
            "name": "G#2",
            "ticks": 112992,
            "time": 156.23880525,
            "velocity": 0.7874015748031497
          },
          {
            "duration": 0.1327432500000043,
            "durationTicks": 96,
            "midi": 42,
            "name": "F#2",
            "ticks": 113088,
            "time": 156.37154850000002,
            "velocity": 0.7874015748031497
          },
          {
            "duration": 0.2654864999999802,
            "durationTicks": 192,
            "midi": 40,
            "name": "E2",
            "ticks": 113088,
            "time": 156.37154850000002,
            "velocity": 0.7874015748031497
          },
          {
            "duration": 0.1327432499999759,
            "durationTicks": 96,
            "midi": 44,
            "name": "G#2",
            "ticks": 113184,
            "time": 156.50429175000002,
            "velocity": 0.7874015748031497
          },
          {
            "duration": 0.2654865000000086,
            "durationTicks": 192,
            "midi": 36,
            "name": "C2",
            "ticks": 113280,
            "time": 156.637035,
            "velocity": 0.7874015748031497
          },
          {
            "duration": 0.1327432500000043,
            "durationTicks": 96,
            "midi": 46,
            "name": "A#2",
            "ticks": 113280,
            "time": 156.637035,
            "velocity": 0.7874015748031497
          },
          {
            "duration": 0.1327432500000043,
            "durationTicks": 96,
            "midi": 44,
            "name": "G#2",
            "ticks": 113376,
            "time": 156.76977825,
            "velocity": 0.7874015748031497
          },
          {
            "duration": 0.1327432500000043,
            "durationTicks": 96,
            "midi": 42,
            "name": "F#2",
            "ticks": 113472,
            "time": 156.9025215,
            "velocity": 0.7874015748031497
          },
          {
            "duration": 0.2654865000000086,
            "durationTicks": 192,
            "midi": 40,
            "name": "E2",
            "ticks": 113472,
            "time": 156.9025215,
            "velocity": 0.7874015748031497
          },
          {
            "duration": 0.1327432500000043,
            "durationTicks": 96,
            "midi": 44,
            "name": "G#2",
            "ticks": 113568,
            "time": 157.03526475,
            "velocity": 0.7874015748031497
          },
          {
            "duration": 0.2654864999999802,
            "durationTicks": 192,
            "midi": 36,
            "name": "C2",
            "ticks": 113664,
            "time": 157.16800800000001,
            "velocity": 0.7874015748031497
          },
          {
            "duration": 0.1327432500000043,
            "durationTicks": 96,
            "midi": 46,
            "name": "A#2",
            "ticks": 113664,
            "time": 157.16800800000001,
            "velocity": 0.7874015748031497
          },
          {
            "duration": 0.1327432499999759,
            "durationTicks": 96,
            "midi": 44,
            "name": "G#2",
            "ticks": 113760,
            "time": 157.30075125000002,
            "velocity": 0.7874015748031497
          },
          {
            "duration": 0.1327432500000043,
            "durationTicks": 96,
            "midi": 42,
            "name": "F#2",
            "ticks": 113856,
            "time": 157.4334945,
            "velocity": 0.7874015748031497
          },
          {
            "duration": 0.2654865000000086,
            "durationTicks": 192,
            "midi": 40,
            "name": "E2",
            "ticks": 113856,
            "time": 157.4334945,
            "velocity": 0.7874015748031497
          },
          {
            "duration": 0.1327432500000043,
            "durationTicks": 96,
            "midi": 44,
            "name": "G#2",
            "ticks": 113952,
            "time": 157.56623775,
            "velocity": 0.7874015748031497
          },
          {
            "duration": 0.2654865000000086,
            "durationTicks": 192,
            "midi": 36,
            "name": "C2",
            "ticks": 114048,
            "time": 157.698981,
            "velocity": 0.7874015748031497
          },
          {
            "duration": 0.1327432500000043,
            "durationTicks": 96,
            "midi": 46,
            "name": "A#2",
            "ticks": 114048,
            "time": 157.698981,
            "velocity": 0.7874015748031497
          },
          {
            "duration": 0.1327432500000043,
            "durationTicks": 96,
            "midi": 44,
            "name": "G#2",
            "ticks": 114144,
            "time": 157.83172425,
            "velocity": 0.7874015748031497
          },
          {
            "duration": 0.2654865000000086,
            "durationTicks": 192,
            "midi": 40,
            "name": "E2",
            "ticks": 114240,
            "time": 157.9644675,
            "velocity": 0.7874015748031497
          },
          {
            "duration": 0.1327432500000043,
            "durationTicks": 96,
            "midi": 42,
            "name": "F#2",
            "ticks": 114240,
            "time": 157.9644675,
            "velocity": 0.7874015748031497
          },
          {
            "duration": 0.1327432500000043,
            "durationTicks": 96,
            "midi": 44,
            "name": "G#2",
            "ticks": 114336,
            "time": 158.09721075000002,
            "velocity": 0.7874015748031497
          },
          {
            "duration": 0.2654864999999802,
            "durationTicks": 192,
            "midi": 36,
            "name": "C2",
            "ticks": 114432,
            "time": 158.22995400000002,
            "velocity": 0.7874015748031497
          },
          {
            "duration": 0.1327432499999759,
            "durationTicks": 96,
            "midi": 46,
            "name": "A#2",
            "ticks": 114432,
            "time": 158.22995400000002,
            "velocity": 0.7874015748031497
          },
          {
            "duration": 0.1327432500000043,
            "durationTicks": 96,
            "midi": 44,
            "name": "G#2",
            "ticks": 114528,
            "time": 158.36269725,
            "velocity": 0.7874015748031497
          },
          {
            "duration": 0.1327432500000043,
            "durationTicks": 96,
            "midi": 42,
            "name": "F#2",
            "ticks": 114624,
            "time": 158.4954405,
            "velocity": 0.7874015748031497
          },
          {
            "duration": 0.2654865000000086,
            "durationTicks": 192,
            "midi": 40,
            "name": "E2",
            "ticks": 114624,
            "time": 158.4954405,
            "velocity": 0.7874015748031497
          },
          {
            "duration": 0.1327432500000043,
            "durationTicks": 96,
            "midi": 44,
            "name": "G#2",
            "ticks": 114720,
            "time": 158.62818375,
            "velocity": 0.7874015748031497
          },
          {
            "duration": 0.1327432500000043,
            "durationTicks": 96,
            "midi": 46,
            "name": "A#2",
            "ticks": 114816,
            "time": 158.760927,
            "velocity": 0.7874015748031497
          },
          {
            "duration": 0.2654865000000086,
            "durationTicks": 192,
            "midi": 36,
            "name": "C2",
            "ticks": 114816,
            "time": 158.760927,
            "velocity": 0.7874015748031497
          },
          {
            "duration": 0.1327432500000043,
            "durationTicks": 96,
            "midi": 44,
            "name": "G#2",
            "ticks": 114912,
            "time": 158.89367025,
            "velocity": 0.7874015748031497
          },
          {
            "duration": 0.1327432500000043,
            "durationTicks": 96,
            "midi": 42,
            "name": "F#2",
            "ticks": 115008,
            "time": 159.02641350000002,
            "velocity": 0.7874015748031497
          },
          {
            "duration": 0.2654864999999802,
            "durationTicks": 192,
            "midi": 40,
            "name": "E2",
            "ticks": 115008,
            "time": 159.02641350000002,
            "velocity": 0.7874015748031497
          },
          {
            "duration": 0.1327432499999759,
            "durationTicks": 96,
            "midi": 44,
            "name": "G#2",
            "ticks": 115104,
            "time": 159.15915675000002,
            "velocity": 0.7874015748031497
          },
          {
            "duration": 0.1327432500000043,
            "durationTicks": 96,
            "midi": 46,
            "name": "A#2",
            "ticks": 115200,
            "time": 159.2919,
            "velocity": 0.7874015748031497
          },
          {
            "duration": 0.2654865000000086,
            "durationTicks": 192,
            "midi": 36,
            "name": "C2",
            "ticks": 115200,
            "time": 159.2919,
            "velocity": 0.7874015748031497
          },
          {
            "duration": 0.1327432500000043,
            "durationTicks": 96,
            "midi": 44,
            "name": "G#2",
            "ticks": 115296,
            "time": 159.42464325,
            "velocity": 0.7874015748031497
          },
          {
            "duration": 0.1327432500000043,
            "durationTicks": 96,
            "midi": 42,
            "name": "F#2",
            "ticks": 115392,
            "time": 159.5573865,
            "velocity": 0.7874015748031497
          },
          {
            "duration": 0.2654865000000086,
            "durationTicks": 192,
            "midi": 40,
            "name": "E2",
            "ticks": 115392,
            "time": 159.5573865,
            "velocity": 0.7874015748031497
          },
          {
            "duration": 0.1327432500000043,
            "durationTicks": 96,
            "midi": 44,
            "name": "G#2",
            "ticks": 115488,
            "time": 159.69012975,
            "velocity": 0.7874015748031497
          },
          {
            "duration": 0.2654864999999802,
            "durationTicks": 192,
            "midi": 36,
            "name": "C2",
            "ticks": 115584,
            "time": 159.82287300000002,
            "velocity": 0.7874015748031497
          },
          {
            "duration": 0.1327432500000043,
            "durationTicks": 96,
            "midi": 46,
            "name": "A#2",
            "ticks": 115584,
            "time": 159.82287300000002,
            "velocity": 0.7874015748031497
          },
          {
            "duration": 0.1327432499999759,
            "durationTicks": 96,
            "midi": 44,
            "name": "G#2",
            "ticks": 115680,
            "time": 159.95561625000002,
            "velocity": 0.7874015748031497
          },
          {
            "duration": 0.1327432500000043,
            "durationTicks": 96,
            "midi": 42,
            "name": "F#2",
            "ticks": 115776,
            "time": 160.0883595,
            "velocity": 0.7874015748031497
          },
          {
            "duration": 0.2654865000000086,
            "durationTicks": 192,
            "midi": 40,
            "name": "E2",
            "ticks": 115776,
            "time": 160.0883595,
            "velocity": 0.7874015748031497
          },
          {
            "duration": 0.1327432500000043,
            "durationTicks": 96,
            "midi": 44,
            "name": "G#2",
            "ticks": 115872,
            "time": 160.22110275,
            "velocity": 0.7874015748031497
          },
          {
            "duration": 0.2654865000000086,
            "durationTicks": 192,
            "midi": 36,
            "name": "C2",
            "ticks": 115968,
            "time": 160.353846,
            "velocity": 0.7874015748031497
          },
          {
            "duration": 0.1327432500000043,
            "durationTicks": 96,
            "midi": 46,
            "name": "A#2",
            "ticks": 115968,
            "time": 160.353846,
            "velocity": 0.7874015748031497
          },
          {
            "duration": 0.1327432500000043,
            "durationTicks": 96,
            "midi": 44,
            "name": "G#2",
            "ticks": 116064,
            "time": 160.48658925,
            "velocity": 0.7874015748031497
          },
          {
            "duration": 0.2654865000000086,
            "durationTicks": 192,
            "midi": 40,
            "name": "E2",
            "ticks": 116160,
            "time": 160.6193325,
            "velocity": 0.7874015748031497
          },
          {
            "duration": 0.1327432500000043,
            "durationTicks": 96,
            "midi": 42,
            "name": "F#2",
            "ticks": 116160,
            "time": 160.6193325,
            "velocity": 0.7874015748031497
          },
          {
            "duration": 0.1327432500000043,
            "durationTicks": 96,
            "midi": 44,
            "name": "G#2",
            "ticks": 116256,
            "time": 160.75207575000002,
            "velocity": 0.7874015748031497
          },
          {
            "duration": 0.2654864999999802,
            "durationTicks": 192,
            "midi": 36,
            "name": "C2",
            "ticks": 116352,
            "time": 160.88481900000002,
            "velocity": 0.7874015748031497
          },
          {
            "duration": 0.1327432499999759,
            "durationTicks": 96,
            "midi": 46,
            "name": "A#2",
            "ticks": 116352,
            "time": 160.88481900000002,
            "velocity": 0.7874015748031497
          },
          {
            "duration": 0.1327432500000043,
            "durationTicks": 96,
            "midi": 44,
            "name": "G#2",
            "ticks": 116448,
            "time": 161.01756225,
            "velocity": 0.7874015748031497
          },
          {
            "duration": 0.2654865000000086,
            "durationTicks": 192,
            "midi": 40,
            "name": "E2",
            "ticks": 116544,
            "time": 161.1503055,
            "velocity": 0.7874015748031497
          },
          {
            "duration": 0.1327432500000043,
            "durationTicks": 96,
            "midi": 42,
            "name": "F#2",
            "ticks": 116544,
            "time": 161.1503055,
            "velocity": 0.7874015748031497
          },
          {
            "duration": 0.1327432500000043,
            "durationTicks": 96,
            "midi": 44,
            "name": "G#2",
            "ticks": 116640,
            "time": 161.28304875,
            "velocity": 0.7874015748031497
          },
          {
            "duration": 0.1327432500000043,
            "durationTicks": 96,
            "midi": 46,
            "name": "A#2",
            "ticks": 116736,
            "time": 161.415792,
            "velocity": 0.7874015748031497
          },
          {
            "duration": 0.2654865000000086,
            "durationTicks": 192,
            "midi": 36,
            "name": "C2",
            "ticks": 116736,
            "time": 161.415792,
            "velocity": 0.7874015748031497
          },
          {
            "duration": 0.1327432500000043,
            "durationTicks": 96,
            "midi": 44,
            "name": "G#2",
            "ticks": 116832,
            "time": 161.54853525000001,
            "velocity": 0.7874015748031497
          },
          {
            "duration": 0.1327432499999759,
            "durationTicks": 96,
            "midi": 42,
            "name": "F#2",
            "ticks": 116928,
            "time": 161.68127850000002,
            "velocity": 0.7874015748031497
          },
          {
            "duration": 0.2654864999999802,
            "durationTicks": 192,
            "midi": 40,
            "name": "E2",
            "ticks": 116928,
            "time": 161.68127850000002,
            "velocity": 0.7874015748031497
          },
          {
            "duration": 0.1327432500000043,
            "durationTicks": 96,
            "midi": 44,
            "name": "G#2",
            "ticks": 117024,
            "time": 161.81402175,
            "velocity": 0.7874015748031497
          },
          {
            "duration": 0.1327432500000043,
            "durationTicks": 96,
            "midi": 46,
            "name": "A#2",
            "ticks": 117120,
            "time": 161.946765,
            "velocity": 0.7874015748031497
          },
          {
            "duration": 0.2654865000000086,
            "durationTicks": 192,
            "midi": 36,
            "name": "C2",
            "ticks": 117120,
            "time": 161.946765,
            "velocity": 0.7874015748031497
          },
          {
            "duration": 0.1327432500000043,
            "durationTicks": 96,
            "midi": 44,
            "name": "G#2",
            "ticks": 117216,
            "time": 162.07950825,
            "velocity": 0.7874015748031497
          },
          {
            "duration": 0.1327432500000043,
            "durationTicks": 96,
            "midi": 42,
            "name": "F#2",
            "ticks": 117312,
            "time": 162.2122515,
            "velocity": 0.7874015748031497
          },
          {
            "duration": 0.2654865000000086,
            "durationTicks": 192,
            "midi": 40,
            "name": "E2",
            "ticks": 117312,
            "time": 162.2122515,
            "velocity": 0.7874015748031497
          },
          {
            "duration": 0.1327432500000043,
            "durationTicks": 96,
            "midi": 44,
            "name": "G#2",
            "ticks": 117408,
            "time": 162.34499475,
            "velocity": 0.7874015748031497
          },
          {
            "duration": 0.2654864999999802,
            "durationTicks": 192,
            "midi": 36,
            "name": "C2",
            "ticks": 117504,
            "time": 162.47773800000002,
            "velocity": 0.7874015748031497
          },
          {
            "duration": 0.1327432500000043,
            "durationTicks": 96,
            "midi": 46,
            "name": "A#2",
            "ticks": 117504,
            "time": 162.47773800000002,
            "velocity": 0.7874015748031497
          },
          {
            "duration": 0.1327432499999759,
            "durationTicks": 96,
            "midi": 44,
            "name": "G#2",
            "ticks": 117600,
            "time": 162.61048125000002,
            "velocity": 0.7874015748031497
          },
          {
            "duration": 0.2654865000000086,
            "durationTicks": 192,
            "midi": 40,
            "name": "E2",
            "ticks": 117696,
            "time": 162.7432245,
            "velocity": 0.7874015748031497
          },
          {
            "duration": 0.1327432500000043,
            "durationTicks": 96,
            "midi": 42,
            "name": "F#2",
            "ticks": 117696,
            "time": 162.7432245,
            "velocity": 0.7874015748031497
          },
          {
            "duration": 0.1327432500000043,
            "durationTicks": 96,
            "midi": 44,
            "name": "G#2",
            "ticks": 117792,
            "time": 162.87596775,
            "velocity": 0.7874015748031497
          },
          {
            "duration": 0.1327432500000043,
            "durationTicks": 96,
            "midi": 46,
            "name": "A#2",
            "ticks": 117888,
            "time": 163.008711,
            "velocity": 0.7874015748031497
          },
          {
            "duration": 0.2654865000000086,
            "durationTicks": 192,
            "midi": 36,
            "name": "C2",
            "ticks": 117888,
            "time": 163.008711,
            "velocity": 0.7874015748031497
          },
          {
            "duration": 0.1327432500000043,
            "durationTicks": 96,
            "midi": 44,
            "name": "G#2",
            "ticks": 117984,
            "time": 163.14145425,
            "velocity": 0.7874015748031497
          },
          {
            "duration": 0.2654865000000086,
            "durationTicks": 192,
            "midi": 40,
            "name": "E2",
            "ticks": 118080,
            "time": 163.2741975,
            "velocity": 0.7874015748031497
          },
          {
            "duration": 0.1327432500000043,
            "durationTicks": 96,
            "midi": 42,
            "name": "F#2",
            "ticks": 118080,
            "time": 163.2741975,
            "velocity": 0.7874015748031497
          },
          {
            "duration": 0.1327432500000043,
            "durationTicks": 96,
            "midi": 44,
            "name": "G#2",
            "ticks": 118176,
            "time": 163.40694075000002,
            "velocity": 0.7874015748031497
          },
          {
            "duration": 0.2654864999999802,
            "durationTicks": 192,
            "midi": 36,
            "name": "C2",
            "ticks": 118272,
            "time": 163.53968400000002,
            "velocity": 0.7874015748031497
          },
          {
            "duration": 0.1327432499999759,
            "durationTicks": 96,
            "midi": 46,
            "name": "A#2",
            "ticks": 118272,
            "time": 163.53968400000002,
            "velocity": 0.7874015748031497
          },
          {
            "duration": 0.1327432500000043,
            "durationTicks": 96,
            "midi": 44,
            "name": "G#2",
            "ticks": 118368,
            "time": 163.67242725,
            "velocity": 0.7874015748031497
          },
          {
            "duration": 0.1327432500000043,
            "durationTicks": 96,
            "midi": 42,
            "name": "F#2",
            "ticks": 118464,
            "time": 163.8051705,
            "velocity": 0.7874015748031497
          },
          {
            "duration": 0.2654865000000086,
            "durationTicks": 192,
            "midi": 40,
            "name": "E2",
            "ticks": 118464,
            "time": 163.8051705,
            "velocity": 0.7874015748031497
          },
          {
            "duration": 0.1327432500000043,
            "durationTicks": 96,
            "midi": 44,
            "name": "G#2",
            "ticks": 118560,
            "time": 163.93791375,
            "velocity": 0.7874015748031497
          },
          {
            "duration": 0.1327432500000043,
            "durationTicks": 96,
            "midi": 46,
            "name": "A#2",
            "ticks": 118656,
            "time": 164.070657,
            "velocity": 0.7874015748031497
          },
          {
            "duration": 0.2654865000000086,
            "durationTicks": 192,
            "midi": 36,
            "name": "C2",
            "ticks": 118656,
            "time": 164.070657,
            "velocity": 0.7874015748031497
          },
          {
            "duration": 0.1327432500000043,
            "durationTicks": 96,
            "midi": 44,
            "name": "G#2",
            "ticks": 118752,
            "time": 164.20340025000002,
            "velocity": 0.7874015748031497
          },
          {
            "duration": 0.1327432499999759,
            "durationTicks": 96,
            "midi": 42,
            "name": "F#2",
            "ticks": 118848,
            "time": 164.33614350000002,
            "velocity": 0.7874015748031497
          },
          {
            "duration": 0.2654864999999802,
            "durationTicks": 192,
            "midi": 40,
            "name": "E2",
            "ticks": 118848,
            "time": 164.33614350000002,
            "velocity": 0.7874015748031497
          },
          {
            "duration": 0.1327432500000043,
            "durationTicks": 96,
            "midi": 44,
            "name": "G#2",
            "ticks": 118944,
            "time": 164.46888675,
            "velocity": 0.7874015748031497
          },
          {
            "duration": 0.1327432500000043,
            "durationTicks": 96,
            "midi": 46,
            "name": "A#2",
            "ticks": 119040,
            "time": 164.60163,
            "velocity": 0.7874015748031497
          },
          {
            "duration": 0.2654865000000086,
            "durationTicks": 192,
            "midi": 36,
            "name": "C2",
            "ticks": 119040,
            "time": 164.60163,
            "velocity": 0.7874015748031497
          },
          {
            "duration": 0.1327432500000043,
            "durationTicks": 96,
            "midi": 44,
            "name": "G#2",
            "ticks": 119136,
            "time": 164.73437325,
            "velocity": 0.7874015748031497
          },
          {
            "duration": 0.1327432500000043,
            "durationTicks": 96,
            "midi": 42,
            "name": "F#2",
            "ticks": 119232,
            "time": 164.8671165,
            "velocity": 0.7874015748031497
          },
          {
            "duration": 0.2654865000000086,
            "durationTicks": 192,
            "midi": 40,
            "name": "E2",
            "ticks": 119232,
            "time": 164.8671165,
            "velocity": 0.7874015748031497
          },
          {
            "duration": 0.1327432500000043,
            "durationTicks": 96,
            "midi": 44,
            "name": "G#2",
            "ticks": 119328,
            "time": 164.99985975,
            "velocity": 0.7874015748031497
          },
          {
            "duration": 0.1327432500000043,
            "durationTicks": 96,
            "midi": 46,
            "name": "A#2",
            "ticks": 119424,
            "time": 165.13260300000002,
            "velocity": 0.7874015748031497
          },
          {
            "duration": 0.2654864999999802,
            "durationTicks": 192,
            "midi": 36,
            "name": "C2",
            "ticks": 119424,
            "time": 165.13260300000002,
            "velocity": 0.7874015748031497
          },
          {
            "duration": 0.1327432499999759,
            "durationTicks": 96,
            "midi": 44,
            "name": "G#2",
            "ticks": 119520,
            "time": 165.26534625000002,
            "velocity": 0.7874015748031497
          },
          {
            "duration": 0.2654865000000086,
            "durationTicks": 192,
            "midi": 40,
            "name": "E2",
            "ticks": 119616,
            "time": 165.3980895,
            "velocity": 0.7874015748031497
          },
          {
            "duration": 0.1327432500000043,
            "durationTicks": 96,
            "midi": 42,
            "name": "F#2",
            "ticks": 119616,
            "time": 165.3980895,
            "velocity": 0.7874015748031497
          },
          {
            "duration": 0.1327432500000043,
            "durationTicks": 96,
            "midi": 44,
            "name": "G#2",
            "ticks": 119712,
            "time": 165.53083275,
            "velocity": 0.7874015748031497
          },
          {
            "duration": 0.2654865000000086,
            "durationTicks": 192,
            "midi": 36,
            "name": "C2",
            "ticks": 119808,
            "time": 165.663576,
            "velocity": 0.7874015748031497
          },
          {
            "duration": 0.1327432500000043,
            "durationTicks": 96,
            "midi": 46,
            "name": "A#2",
            "ticks": 119808,
            "time": 165.663576,
            "velocity": 0.7874015748031497
          },
          {
            "duration": 0.1327432500000043,
            "durationTicks": 96,
            "midi": 44,
            "name": "G#2",
            "ticks": 119904,
            "time": 165.79631925,
            "velocity": 0.7874015748031497
          },
          {
            "duration": 0.1327432500000043,
            "durationTicks": 96,
            "midi": 42,
            "name": "F#2",
            "ticks": 120000,
            "time": 165.92906250000001,
            "velocity": 0.7874015748031497
          },
          {
            "duration": 0.2654864999999802,
            "durationTicks": 192,
            "midi": 40,
            "name": "E2",
            "ticks": 120000,
            "time": 165.92906250000001,
            "velocity": 0.7874015748031497
          },
          {
            "duration": 0.1327432499999759,
            "durationTicks": 96,
            "midi": 44,
            "name": "G#2",
            "ticks": 120096,
            "time": 166.06180575000002,
            "velocity": 0.7874015748031497
          },
          {
            "duration": 0.2654865000000086,
            "durationTicks": 192,
            "midi": 36,
            "name": "C2",
            "ticks": 120192,
            "time": 166.194549,
            "velocity": 0.7874015748031497
          },
          {
            "duration": 0.1327432500000043,
            "durationTicks": 96,
            "midi": 46,
            "name": "A#2",
            "ticks": 120192,
            "time": 166.194549,
            "velocity": 0.7874015748031497
          },
          {
            "duration": 0.1327432500000043,
            "durationTicks": 96,
            "midi": 44,
            "name": "G#2",
            "ticks": 120288,
            "time": 166.32729225,
            "velocity": 0.7874015748031497
          },
          {
            "duration": 0.1327432500000043,
            "durationTicks": 96,
            "midi": 42,
            "name": "F#2",
            "ticks": 120384,
            "time": 166.4600355,
            "velocity": 0.7874015748031497
          },
          {
            "duration": 0.2654865000000086,
            "durationTicks": 192,
            "midi": 40,
            "name": "E2",
            "ticks": 120384,
            "time": 166.4600355,
            "velocity": 0.7874015748031497
          },
          {
            "duration": 0.1327432500000043,
            "durationTicks": 96,
            "midi": 44,
            "name": "G#2",
            "ticks": 120480,
            "time": 166.59277875,
            "velocity": 0.7874015748031497
          },
          {
            "duration": 0.1327432500000043,
            "durationTicks": 96,
            "midi": 46,
            "name": "A#2",
            "ticks": 120576,
            "time": 166.725522,
            "velocity": 0.7874015748031497
          },
          {
            "duration": 0.2654865000000086,
            "durationTicks": 192,
            "midi": 36,
            "name": "C2",
            "ticks": 120576,
            "time": 166.725522,
            "velocity": 0.7874015748031497
          },
          {
            "duration": 0.1327432500000043,
            "durationTicks": 96,
            "midi": 44,
            "name": "G#2",
            "ticks": 120672,
            "time": 166.85826525000002,
            "velocity": 0.7874015748031497
          },
          {
            "duration": 0.1327432499999759,
            "durationTicks": 96,
            "midi": 42,
            "name": "F#2",
            "ticks": 120768,
            "time": 166.99100850000002,
            "velocity": 0.7874015748031497
          },
          {
            "duration": 0.2654864999999802,
            "durationTicks": 192,
            "midi": 40,
            "name": "E2",
            "ticks": 120768,
            "time": 166.99100850000002,
            "velocity": 0.7874015748031497
          },
          {
            "duration": 0.1327432500000043,
            "durationTicks": 96,
            "midi": 44,
            "name": "G#2",
            "ticks": 120864,
            "time": 167.12375175,
            "velocity": 0.7874015748031497
          },
          {
            "duration": 0.1327432500000043,
            "durationTicks": 96,
            "midi": 46,
            "name": "A#2",
            "ticks": 120960,
            "time": 167.256495,
            "velocity": 0.7874015748031497
          },
          {
            "duration": 0.2654865000000086,
            "durationTicks": 192,
            "midi": 36,
            "name": "C2",
            "ticks": 120960,
            "time": 167.256495,
            "velocity": 0.7874015748031497
          },
          {
            "duration": 0.1327432500000043,
            "durationTicks": 96,
            "midi": 44,
            "name": "G#2",
            "ticks": 121056,
            "time": 167.38923825,
            "velocity": 0.7874015748031497
          },
          {
            "duration": 0.2654865000000086,
            "durationTicks": 192,
            "midi": 40,
            "name": "E2",
            "ticks": 121152,
            "time": 167.5219815,
            "velocity": 0.7874015748031497
          },
          {
            "duration": 0.1327432500000043,
            "durationTicks": 96,
            "midi": 42,
            "name": "F#2",
            "ticks": 121152,
            "time": 167.5219815,
            "velocity": 0.7874015748031497
          },
          {
            "duration": 0.1327432500000043,
            "durationTicks": 96,
            "midi": 44,
            "name": "G#2",
            "ticks": 121248,
            "time": 167.65472475,
            "velocity": 0.7874015748031497
          },
          {
            "duration": 0.2654864999999802,
            "durationTicks": 192,
            "midi": 36,
            "name": "C2",
            "ticks": 121344,
            "time": 167.78746800000002,
            "velocity": 0.7874015748031497
          },
          {
            "duration": 0.1327432500000043,
            "durationTicks": 96,
            "midi": 46,
            "name": "A#2",
            "ticks": 121344,
            "time": 167.78746800000002,
            "velocity": 0.7874015748031497
          },
          {
            "duration": 0.1327432499999759,
            "durationTicks": 96,
            "midi": 44,
            "name": "G#2",
            "ticks": 121440,
            "time": 167.92021125000002,
            "velocity": 0.7874015748031497
          },
          {
            "duration": 0.1327432500000043,
            "durationTicks": 96,
            "midi": 42,
            "name": "F#2",
            "ticks": 121536,
            "time": 168.0529545,
            "velocity": 0.7874015748031497
          },
          {
            "duration": 0.2654865000000086,
            "durationTicks": 192,
            "midi": 40,
            "name": "E2",
            "ticks": 121536,
            "time": 168.0529545,
            "velocity": 0.7874015748031497
          },
          {
            "duration": 0.1327432500000043,
            "durationTicks": 96,
            "midi": 44,
            "name": "G#2",
            "ticks": 121632,
            "time": 168.18569775,
            "velocity": 0.7874015748031497
          },
          {
            "duration": 0.1327432500000043,
            "durationTicks": 96,
            "midi": 46,
            "name": "A#2",
            "ticks": 121728,
            "time": 168.318441,
            "velocity": 0.7874015748031497
          },
          {
            "duration": 0.2654865000000086,
            "durationTicks": 192,
            "midi": 36,
            "name": "C2",
            "ticks": 121728,
            "time": 168.318441,
            "velocity": 0.7874015748031497
          },
          {
            "duration": 0.1327432500000043,
            "durationTicks": 96,
            "midi": 44,
            "name": "G#2",
            "ticks": 121824,
            "time": 168.45118425,
            "velocity": 0.7874015748031497
          },
          {
            "duration": 0.2654864999999802,
            "durationTicks": 192,
            "midi": 40,
            "name": "E2",
            "ticks": 121920,
            "time": 168.58392750000002,
            "velocity": 0.7874015748031497
          },
          {
            "duration": 0.1327432500000043,
            "durationTicks": 96,
            "midi": 42,
            "name": "F#2",
            "ticks": 121920,
            "time": 168.58392750000002,
            "velocity": 0.7874015748031497
          },
          {
            "duration": 0.1327432499999759,
            "durationTicks": 96,
            "midi": 44,
            "name": "G#2",
            "ticks": 122016,
            "time": 168.71667075000002,
            "velocity": 0.7874015748031497
          },
          {
            "duration": 0.1327432500000043,
            "durationTicks": 96,
            "midi": 46,
            "name": "A#2",
            "ticks": 122112,
            "time": 168.849414,
            "velocity": 0.7874015748031497
          },
          {
            "duration": 0.2654865000000086,
            "durationTicks": 192,
            "midi": 36,
            "name": "C2",
            "ticks": 122112,
            "time": 168.849414,
            "velocity": 0.7874015748031497
          },
          {
            "duration": 0.1327432500000043,
            "durationTicks": 96,
            "midi": 44,
            "name": "G#2",
            "ticks": 122208,
            "time": 168.98215725,
            "velocity": 0.7874015748031497
          },
          {
            "duration": 0.1327432500000043,
            "durationTicks": 96,
            "midi": 42,
            "name": "F#2",
            "ticks": 122304,
            "time": 169.1149005,
            "velocity": 0.7874015748031497
          },
          {
            "duration": 0.2654865000000086,
            "durationTicks": 192,
            "midi": 40,
            "name": "E2",
            "ticks": 122304,
            "time": 169.1149005,
            "velocity": 0.7874015748031497
          },
          {
            "duration": 0.1327432500000043,
            "durationTicks": 96,
            "midi": 44,
            "name": "G#2",
            "ticks": 122400,
            "time": 169.24764375,
            "velocity": 0.7874015748031497
          },
          {
            "duration": 0.2654865000000086,
            "durationTicks": 192,
            "midi": 36,
            "name": "C2",
            "ticks": 122496,
            "time": 169.380387,
            "velocity": 0.7874015748031497
          },
          {
            "duration": 0.1327432500000043,
            "durationTicks": 96,
            "midi": 46,
            "name": "A#2",
            "ticks": 122496,
            "time": 169.380387,
            "velocity": 0.7874015748031497
          },
          {
            "duration": 0.1327432500000043,
            "durationTicks": 96,
            "midi": 44,
            "name": "G#2",
            "ticks": 122592,
            "time": 169.51313025000002,
            "velocity": 0.7874015748031497
          },
          {
            "duration": 0.2654864999999802,
            "durationTicks": 192,
            "midi": 40,
            "name": "E2",
            "ticks": 122688,
            "time": 169.64587350000002,
            "velocity": 0.7874015748031497
          },
          {
            "duration": 0.1327432499999759,
            "durationTicks": 96,
            "midi": 42,
            "name": "F#2",
            "ticks": 122688,
            "time": 169.64587350000002,
            "velocity": 0.7874015748031497
          },
          {
            "duration": 0.1327432500000043,
            "durationTicks": 96,
            "midi": 44,
            "name": "G#2",
            "ticks": 122784,
            "time": 169.77861675,
            "velocity": 0.7874015748031497
          },
          {
            "duration": 0.1327432500000043,
            "durationTicks": 96,
            "midi": 46,
            "name": "A#2",
            "ticks": 122880,
            "time": 169.91136,
            "velocity": 0.7874015748031497
          },
          {
            "duration": 0.3982297500000129,
            "durationTicks": 288,
            "midi": 36,
            "name": "C2",
            "ticks": 122880,
            "time": 169.91136,
            "velocity": 0.7874015748031497
          },
          {
            "duration": 0.1327432500000043,
            "durationTicks": 96,
            "midi": 42,
            "name": "F#2",
            "ticks": 122976,
            "time": 170.04410325,
            "velocity": 0.7874015748031497
          },
          {
            "duration": 0.1327432500000043,
            "durationTicks": 96,
            "midi": 44,
            "name": "G#2",
            "ticks": 123072,
            "time": 170.1768465,
            "velocity": 0.7874015748031497
          },
          {
            "duration": 0.3982297499999845,
            "durationTicks": 288,
            "midi": 36,
            "name": "C2",
            "ticks": 123168,
            "time": 170.30958975000001,
            "velocity": 0.7874015748031497
          },
          {
            "duration": 0.1327432500000043,
            "durationTicks": 96,
            "midi": 46,
            "name": "A#2",
            "ticks": 123168,
            "time": 170.30958975000001,
            "velocity": 0.7874015748031497
          },
          {
            "duration": 0.1327432499999759,
            "durationTicks": 96,
            "midi": 42,
            "name": "F#2",
            "ticks": 123264,
            "time": 170.44233300000002,
            "velocity": 0.7874015748031497
          },
          {
            "duration": 0.1327432500000043,
            "durationTicks": 96,
            "midi": 44,
            "name": "G#2",
            "ticks": 123360,
            "time": 170.57507625,
            "velocity": 0.7874015748031497
          },
          {
            "duration": 0.1327432500000043,
            "durationTicks": 96,
            "midi": 46,
            "name": "A#2",
            "ticks": 123456,
            "time": 170.7078195,
            "velocity": 0.7874015748031497
          },
          {
            "duration": 0.2654865000000086,
            "durationTicks": 192,
            "midi": 36,
            "name": "C2",
            "ticks": 123456,
            "time": 170.7078195,
            "velocity": 0.7874015748031497
          },
          {
            "duration": 0.1327432500000043,
            "durationTicks": 96,
            "midi": 44,
            "name": "G#2",
            "ticks": 123552,
            "time": 170.84056275,
            "velocity": 0.7874015748031497
          },
          {
            "duration": 0.1327432500000043,
            "durationTicks": 96,
            "midi": 46,
            "name": "A#2",
            "ticks": 123648,
            "time": 170.973306,
            "velocity": 0.7874015748031497
          },
          {
            "duration": 0.3982297500000129,
            "durationTicks": 288,
            "midi": 36,
            "name": "C2",
            "ticks": 123648,
            "time": 170.973306,
            "velocity": 0.7874015748031497
          },
          {
            "duration": 0.1327432500000043,
            "durationTicks": 96,
            "midi": 42,
            "name": "F#2",
            "ticks": 123744,
            "time": 171.10604925,
            "velocity": 0.7874015748031497
          },
          {
            "duration": 0.1327432500000043,
            "durationTicks": 96,
            "midi": 44,
            "name": "G#2",
            "ticks": 123840,
            "time": 171.23879250000002,
            "velocity": 0.7874015748031497
          },
          {
            "duration": 0.3982297499999845,
            "durationTicks": 288,
            "midi": 36,
            "name": "C2",
            "ticks": 123936,
            "time": 171.37153575000002,
            "velocity": 0.7874015748031497
          },
          {
            "duration": 0.1327432499999759,
            "durationTicks": 96,
            "midi": 46,
            "name": "A#2",
            "ticks": 123936,
            "time": 171.37153575000002,
            "velocity": 0.7874015748031497
          },
          {
            "duration": 0.1327432500000043,
            "durationTicks": 96,
            "midi": 42,
            "name": "F#2",
            "ticks": 124032,
            "time": 171.504279,
            "velocity": 0.7874015748031497
          },
          {
            "duration": 0.1327432500000043,
            "durationTicks": 96,
            "midi": 44,
            "name": "G#2",
            "ticks": 124128,
            "time": 171.63702225,
            "velocity": 0.7874015748031497
          },
          {
            "duration": 0.2654865000000086,
            "durationTicks": 192,
            "midi": 36,
            "name": "C2",
            "ticks": 124224,
            "time": 171.7697655,
            "velocity": 0.7874015748031497
          },
          {
            "duration": 0.1327432500000043,
            "durationTicks": 96,
            "midi": 46,
            "name": "A#2",
            "ticks": 124224,
            "time": 171.7697655,
            "velocity": 0.7874015748031497
          },
          {
            "duration": 0.1327432500000043,
            "durationTicks": 96,
            "midi": 44,
            "name": "G#2",
            "ticks": 124320,
            "time": 171.90250875,
            "velocity": 0.7874015748031497
          },
          {
            "duration": 0.3982297499999845,
            "durationTicks": 288,
            "midi": 36,
            "name": "C2",
            "ticks": 124416,
            "time": 172.035252,
            "velocity": 0.7874015748031497
          },
          {
            "duration": 0.1327432500000043,
            "durationTicks": 96,
            "midi": 46,
            "name": "A#2",
            "ticks": 124416,
            "time": 172.035252,
            "velocity": 0.7874015748031497
          },
          {
            "duration": 0.1327432500000043,
            "durationTicks": 96,
            "midi": 42,
            "name": "F#2",
            "ticks": 124512,
            "time": 172.16799525000002,
            "velocity": 0.7874015748031497
          },
          {
            "duration": 0.1327432499999759,
            "durationTicks": 96,
            "midi": 44,
            "name": "G#2",
            "ticks": 124608,
            "time": 172.30073850000002,
            "velocity": 0.7874015748031497
          },
          {
            "duration": 0.3982297500000129,
            "durationTicks": 288,
            "midi": 36,
            "name": "C2",
            "ticks": 124704,
            "time": 172.43348175,
            "velocity": 0.7874015748031497
          },
          {
            "duration": 0.1327432500000043,
            "durationTicks": 96,
            "midi": 46,
            "name": "A#2",
            "ticks": 124704,
            "time": 172.43348175,
            "velocity": 0.7874015748031497
          },
          {
            "duration": 0.1327432500000043,
            "durationTicks": 96,
            "midi": 42,
            "name": "F#2",
            "ticks": 124800,
            "time": 172.566225,
            "velocity": 0.7874015748031497
          },
          {
            "duration": 0.1327432500000043,
            "durationTicks": 96,
            "midi": 44,
            "name": "G#2",
            "ticks": 124896,
            "time": 172.69896825,
            "velocity": 0.7874015748031497
          },
          {
            "duration": 0.1327432500000043,
            "durationTicks": 96,
            "midi": 46,
            "name": "A#2",
            "ticks": 124992,
            "time": 172.8317115,
            "velocity": 0.7874015748031497
          },
          {
            "duration": 0.2654865000000086,
            "durationTicks": 192,
            "midi": 36,
            "name": "C2",
            "ticks": 124992,
            "time": 172.8317115,
            "velocity": 0.7874015748031497
          },
          {
            "duration": 0.1327432500000043,
            "durationTicks": 96,
            "midi": 44,
            "name": "G#2",
            "ticks": 125088,
            "time": 172.96445475000002,
            "velocity": 0.7874015748031497
          },
          {
            "duration": 0.1327432499999759,
            "durationTicks": 96,
            "midi": 46,
            "name": "A#2",
            "ticks": 125184,
            "time": 173.09719800000002,
            "velocity": 0.7874015748031497
          },
          {
            "duration": 0.3982297499999845,
            "durationTicks": 288,
            "midi": 36,
            "name": "C2",
            "ticks": 125184,
            "time": 173.09719800000002,
            "velocity": 0.7874015748031497
          },
          {
            "duration": 0.1327432500000043,
            "durationTicks": 96,
            "midi": 42,
            "name": "F#2",
            "ticks": 125280,
            "time": 173.22994125,
            "velocity": 0.7874015748031497
          },
          {
            "duration": 0.1327432500000043,
            "durationTicks": 96,
            "midi": 44,
            "name": "G#2",
            "ticks": 125376,
            "time": 173.3626845,
            "velocity": 0.7874015748031497
          },
          {
            "duration": 0.3982297500000129,
            "durationTicks": 288,
            "midi": 36,
            "name": "C2",
            "ticks": 125472,
            "time": 173.49542775,
            "velocity": 0.7874015748031497
          },
          {
            "duration": 0.1327432500000043,
            "durationTicks": 96,
            "midi": 46,
            "name": "A#2",
            "ticks": 125472,
            "time": 173.49542775,
            "velocity": 0.7874015748031497
          },
          {
            "duration": 0.1327432500000043,
            "durationTicks": 96,
            "midi": 42,
            "name": "F#2",
            "ticks": 125568,
            "time": 173.628171,
            "velocity": 0.7874015748031497
          },
          {
            "duration": 0.1327432500000043,
            "durationTicks": 96,
            "midi": 44,
            "name": "G#2",
            "ticks": 125664,
            "time": 173.76091425,
            "velocity": 0.7874015748031497
          },
          {
            "duration": 0.1327432500000043,
            "durationTicks": 96,
            "midi": 46,
            "name": "A#2",
            "ticks": 125760,
            "time": 173.89365750000002,
            "velocity": 0.7874015748031497
          },
          {
            "duration": 0.2654864999999802,
            "durationTicks": 192,
            "midi": 36,
            "name": "C2",
            "ticks": 125760,
            "time": 173.89365750000002,
            "velocity": 0.7874015748031497
          },
          {
            "duration": 0.1327432499999759,
            "durationTicks": 96,
            "midi": 44,
            "name": "G#2",
            "ticks": 125856,
            "time": 174.02640075000002,
            "velocity": 0.7874015748031497
          },
          {
            "duration": 2.123892000000012,
            "durationTicks": 1536,
            "midi": 36,
            "name": "C2",
            "ticks": 125952,
            "time": 174.159144,
            "velocity": 0.7874015748031497
          },
          {
            "duration": 2.123892000000012,
            "durationTicks": 1536,
            "midi": 49,
            "name": "C#3",
            "ticks": 125952,
            "time": 174.159144,
            "velocity": 0.7874015748031497
          }
        ],
        "endOfTrackTicks": 127488
      },
      {
        "channel": 6,
        "controlChanges": {},
        "pitchBends": [],
        "instrument": {
          "family": "chromatic percussion",
          "number": 11,
          "name": "vibraphone"
        },
        "name": "Vibraphone",
        "notes": [
          {
            "duration": 0.796459500000001,
            "durationTicks": 576,
            "midi": 95,
            "name": "B6",
            "ticks": 19968,
            "time": 27.610596,
            "velocity": 0.7874015748031497
          },
          {
            "duration": 0.796459500000001,
            "durationTicks": 576,
            "midi": 95,
            "name": "B6",
            "ticks": 20112,
            "time": 27.809710875,
            "velocity": 0.6456692913385826
          },
          {
            "duration": 0.13274325000000076,
            "durationTicks": 96,
            "midi": 85,
            "name": "C#6",
            "ticks": 20544,
            "time": 28.407055500000002,
            "velocity": 0.7874015748031497
          },
          {
            "duration": 0.13274325000000076,
            "durationTicks": 96,
            "midi": 85,
            "name": "C#6",
            "ticks": 20688,
            "time": 28.606170375,
            "velocity": 0.6456692913385826
          },
          {
            "duration": 0.2654865000000015,
            "durationTicks": 192,
            "midi": 88,
            "name": "E6",
            "ticks": 20736,
            "time": 28.672542,
            "velocity": 0.7874015748031497
          },
          {
            "duration": 0.26548649999999796,
            "durationTicks": 192,
            "midi": 88,
            "name": "E6",
            "ticks": 20880,
            "time": 28.871656875000003,
            "velocity": 0.6456692913385826
          },
          {
            "duration": 0.26548649999999796,
            "durationTicks": 192,
            "midi": 90,
            "name": "F#6",
            "ticks": 21024,
            "time": 29.070771750000002,
            "velocity": 0.7874015748031497
          },
          {
            "duration": 0.2654865000000015,
            "durationTicks": 192,
            "midi": 90,
            "name": "F#6",
            "ticks": 21168,
            "time": 29.269886625,
            "velocity": 0.6456692913385826
          },
          {
            "duration": 0.13274325000000076,
            "durationTicks": 96,
            "midi": 92,
            "name": "G#6",
            "ticks": 21312,
            "time": 29.4690015,
            "velocity": 0.7874015748031497
          },
          {
            "duration": 0.13274325000000076,
            "durationTicks": 96,
            "midi": 92,
            "name": "G#6",
            "ticks": 21456,
            "time": 29.668116375,
            "velocity": 0.6456692913385826
          },
          {
            "duration": 0.7964594999999974,
            "durationTicks": 576,
            "midi": 95,
            "name": "B6",
            "ticks": 21504,
            "time": 29.734488000000002,
            "velocity": 0.7874015748031497
          },
          {
            "duration": 0.796459500000001,
            "durationTicks": 576,
            "midi": 95,
            "name": "B6",
            "ticks": 21648,
            "time": 29.933602875000002,
            "velocity": 0.6456692913385826
          },
          {
            "duration": 0.13274325000000076,
            "durationTicks": 96,
            "midi": 85,
            "name": "C#6",
            "ticks": 22080,
            "time": 30.5309475,
            "velocity": 0.7874015748031497
          },
          {
            "duration": 0.1327432499999972,
            "durationTicks": 96,
            "midi": 85,
            "name": "C#6",
            "ticks": 22224,
            "time": 30.730062375000003,
            "velocity": 0.6456692913385826
          },
          {
            "duration": 0.2654865000000015,
            "durationTicks": 192,
            "midi": 87,
            "name": "D#6",
            "ticks": 22272,
            "time": 30.796434,
            "velocity": 0.7874015748031497
          },
          {
            "duration": 0.2654865000000015,
            "durationTicks": 192,
            "midi": 87,
            "name": "D#6",
            "ticks": 22416,
            "time": 30.995548875,
            "velocity": 0.6456692913385826
          },
          {
            "duration": 0.2654865000000015,
            "durationTicks": 192,
            "midi": 87,
            "name": "D#6",
            "ticks": 22560,
            "time": 31.19466375,
            "velocity": 0.7874015748031497
          },
          {
            "duration": 0.26548649999999796,
            "durationTicks": 192,
            "midi": 87,
            "name": "D#6",
            "ticks": 22704,
            "time": 31.393778625000003,
            "velocity": 0.6456692913385826
          },
          {
            "duration": 0.26548649999999796,
            "durationTicks": 192,
            "midi": 95,
            "name": "B6",
            "ticks": 22848,
            "time": 31.592893500000002,
            "velocity": 0.7874015748031497
          },
          {
            "duration": 0.2654865000000015,
            "durationTicks": 192,
            "midi": 95,
            "name": "B6",
            "ticks": 22992,
            "time": 31.792008375,
            "velocity": 0.6456692913385826
          },
          {
            "duration": 1.8584055,
            "durationTicks": 1344,
            "midi": 92,
            "name": "G#6",
            "ticks": 23040,
            "time": 31.85838,
            "velocity": 0.7874015748031497
          },
          {
            "duration": 1.8584054999999964,
            "durationTicks": 1344,
            "midi": 92,
            "name": "G#6",
            "ticks": 23184,
            "time": 32.057494875,
            "velocity": 0.6456692913385826
          },
          {
            "duration": 0.1327432500000043,
            "durationTicks": 96,
            "midi": 93,
            "name": "A6",
            "ticks": 24384,
            "time": 33.7167855,
            "velocity": 0.7874015748031497
          },
          {
            "duration": 0.1327432499999972,
            "durationTicks": 96,
            "midi": 92,
            "name": "G#6",
            "ticks": 24480,
            "time": 33.849528750000005,
            "velocity": 0.7874015748031497
          },
          {
            "duration": 0.1327432500000043,
            "durationTicks": 96,
            "midi": 93,
            "name": "A6",
            "ticks": 24528,
            "time": 33.915900375,
            "velocity": 0.6456692913385826
          },
          {
            "duration": 0.530973000000003,
            "durationTicks": 384,
            "midi": 90,
            "name": "F#6",
            "ticks": 24576,
            "time": 33.982272,
            "velocity": 0.7874015748031497
          },
          {
            "duration": 0.1327432499999972,
            "durationTicks": 96,
            "midi": 92,
            "name": "G#6",
            "ticks": 24624,
            "time": 34.048643625000004,
            "velocity": 0.6456692913385826
          },
          {
            "duration": 0.530973000000003,
            "durationTicks": 384,
            "midi": 90,
            "name": "F#6",
            "ticks": 24720,
            "time": 34.181386875,
            "velocity": 0.6456692913385826
          },
          {
            "duration": 0.7964594999999974,
            "durationTicks": 576,
            "midi": 95,
            "name": "B6",
            "ticks": 32256,
            "time": 44.601732000000005,
            "velocity": 0.7874015748031497
          },
          {
            "duration": 0.7964594999999974,
            "durationTicks": 576,
            "midi": 95,
            "name": "B6",
            "ticks": 32400,
            "time": 44.800846875000005,
            "velocity": 0.6456692913385826
          },
          {
            "duration": 0.1327432499999972,
            "durationTicks": 96,
            "midi": 85,
            "name": "C#6",
            "ticks": 32832,
            "time": 45.3981915,
            "velocity": 0.7874015748031497
          },
          {
            "duration": 0.1327432499999972,
            "durationTicks": 96,
            "midi": 85,
            "name": "C#6",
            "ticks": 32976,
            "time": 45.597306375,
            "velocity": 0.6456692913385826
          },
          {
            "duration": 0.2654865000000015,
            "durationTicks": 192,
            "midi": 88,
            "name": "E6",
            "ticks": 33024,
            "time": 45.663678000000004,
            "velocity": 0.7874015748031497
          },
          {
            "duration": 0.2654865000000015,
            "durationTicks": 192,
            "midi": 88,
            "name": "E6",
            "ticks": 33168,
            "time": 45.862792875000004,
            "velocity": 0.6456692913385826
          },
          {
            "duration": 0.2654865000000015,
            "durationTicks": 192,
            "midi": 90,
            "name": "F#6",
            "ticks": 33312,
            "time": 46.06190775,
            "velocity": 0.7874015748031497
          },
          {
            "duration": 0.2654865000000015,
            "durationTicks": 192,
            "midi": 90,
            "name": "F#6",
            "ticks": 33456,
            "time": 46.261022625,
            "velocity": 0.6456692913385826
          },
          {
            "duration": 0.1327432499999972,
            "durationTicks": 96,
            "midi": 92,
            "name": "G#6",
            "ticks": 33600,
            "time": 46.4601375,
            "velocity": 0.7874015748031497
          },
          {
            "duration": 0.1327432500000043,
            "durationTicks": 96,
            "midi": 92,
            "name": "G#6",
            "ticks": 33744,
            "time": 46.659252375,
            "velocity": 0.6456692913385826
          },
          {
            "duration": 0.7964594999999974,
            "durationTicks": 576,
            "midi": 95,
            "name": "B6",
            "ticks": 33792,
            "time": 46.725624,
            "velocity": 0.7874015748031497
          },
          {
            "duration": 0.7964594999999974,
            "durationTicks": 576,
            "midi": 95,
            "name": "B6",
            "ticks": 33936,
            "time": 46.924738875,
            "velocity": 0.6456692913385826
          },
          {
            "duration": 0.1327432500000043,
            "durationTicks": 96,
            "midi": 85,
            "name": "C#6",
            "ticks": 34368,
            "time": 47.5220835,
            "velocity": 0.7874015748031497
          },
          {
            "duration": 0.1327432500000043,
            "durationTicks": 96,
            "midi": 85,
            "name": "C#6",
            "ticks": 34512,
            "time": 47.721198375,
            "velocity": 0.6456692913385826
          },
          {
            "duration": 0.2654865000000015,
            "durationTicks": 192,
            "midi": 87,
            "name": "D#6",
            "ticks": 34560,
            "time": 47.78757,
            "velocity": 0.7874015748031497
          },
          {
            "duration": 0.2654865000000015,
            "durationTicks": 192,
            "midi": 87,
            "name": "D#6",
            "ticks": 34704,
            "time": 47.986684875,
            "velocity": 0.6456692913385826
          },
          {
            "duration": 0.2654865000000015,
            "durationTicks": 192,
            "midi": 87,
            "name": "D#6",
            "ticks": 34848,
            "time": 48.18579975,
            "velocity": 0.7874015748031497
          },
          {
            "duration": 0.2654865000000015,
            "durationTicks": 192,
            "midi": 87,
            "name": "D#6",
            "ticks": 34992,
            "time": 48.384914625,
            "velocity": 0.6456692913385826
          },
          {
            "duration": 0.2654865000000015,
            "durationTicks": 192,
            "midi": 95,
            "name": "B6",
            "ticks": 35136,
            "time": 48.5840295,
            "velocity": 0.7874015748031497
          },
          {
            "duration": 0.2654865000000015,
            "durationTicks": 192,
            "midi": 95,
            "name": "B6",
            "ticks": 35280,
            "time": 48.783144375,
            "velocity": 0.6456692913385826
          },
          {
            "duration": 1.8584055000000035,
            "durationTicks": 1344,
            "midi": 92,
            "name": "G#6",
            "ticks": 35328,
            "time": 48.849516,
            "velocity": 0.7874015748031497
          },
          {
            "duration": 1.8584055000000035,
            "durationTicks": 1344,
            "midi": 92,
            "name": "G#6",
            "ticks": 35472,
            "time": 49.048630875,
            "velocity": 0.6456692913385826
          },
          {
            "duration": 0.1327432499999972,
            "durationTicks": 96,
            "midi": 93,
            "name": "A6",
            "ticks": 36672,
            "time": 50.707921500000005,
            "velocity": 0.7874015748031497
          },
          {
            "duration": 0.1327432500000043,
            "durationTicks": 96,
            "midi": 92,
            "name": "G#6",
            "ticks": 36768,
            "time": 50.84066475,
            "velocity": 0.7874015748031497
          },
          {
            "duration": 0.1327432499999972,
            "durationTicks": 96,
            "midi": 93,
            "name": "A6",
            "ticks": 36816,
            "time": 50.907036375000004,
            "velocity": 0.6456692913385826
          },
          {
            "duration": 0.5309729999999959,
            "durationTicks": 384,
            "midi": 90,
            "name": "F#6",
            "ticks": 36864,
            "time": 50.973408000000006,
            "velocity": 0.7874015748031497
          },
          {
            "duration": 0.1327432500000043,
            "durationTicks": 96,
            "midi": 92,
            "name": "G#6",
            "ticks": 36912,
            "time": 51.039779625,
            "velocity": 0.6456692913385826
          },
          {
            "duration": 0.5309729999999959,
            "durationTicks": 384,
            "midi": 90,
            "name": "F#6",
            "ticks": 37008,
            "time": 51.172522875000006,
            "velocity": 0.6456692913385826
          },
          {
            "duration": 0.1327432500000043,
            "durationTicks": 96,
            "midi": 92,
            "name": "G#6",
            "ticks": 122880,
            "time": 169.91136,
            "velocity": 0.7874015748031497
          },
          {
            "duration": 0.1327432500000043,
            "durationTicks": 96,
            "midi": 85,
            "name": "C#6",
            "ticks": 122880,
            "time": 169.91136,
            "velocity": 0.7874015748031497
          },
          {
            "duration": 0.1327432499999759,
            "durationTicks": 96,
            "midi": 85,
            "name": "C#6",
            "ticks": 123024,
            "time": 170.11047487500002,
            "velocity": 0.5905511811023622
          },
          {
            "duration": 0.1327432499999759,
            "durationTicks": 96,
            "midi": 92,
            "name": "G#6",
            "ticks": 123024,
            "time": 170.11047487500002,
            "velocity": 0.5905511811023622
          },
          {
            "duration": 0.1327432500000043,
            "durationTicks": 96,
            "midi": 88,
            "name": "E6",
            "ticks": 123168,
            "time": 170.30958975000001,
            "velocity": 0.7874015748031497
          },
          {
            "duration": 0.1327432500000043,
            "durationTicks": 96,
            "midi": 92,
            "name": "G#6",
            "ticks": 123168,
            "time": 170.30958975000001,
            "velocity": 0.7874015748031497
          },
          {
            "duration": 0.1327432500000043,
            "durationTicks": 96,
            "midi": 88,
            "name": "E6",
            "ticks": 123312,
            "time": 170.508704625,
            "velocity": 0.5905511811023622
          },
          {
            "duration": 0.1327432500000043,
            "durationTicks": 96,
            "midi": 92,
            "name": "G#6",
            "ticks": 123312,
            "time": 170.508704625,
            "velocity": 0.5905511811023622
          },
          {
            "duration": 0.1327432500000043,
            "durationTicks": 96,
            "midi": 92,
            "name": "G#6",
            "ticks": 123456,
            "time": 170.7078195,
            "velocity": 0.7874015748031497
          },
          {
            "duration": 0.1327432500000043,
            "durationTicks": 96,
            "midi": 95,
            "name": "B6",
            "ticks": 123456,
            "time": 170.7078195,
            "velocity": 0.7874015748031497
          },
          {
            "duration": 0.1327432499999759,
            "durationTicks": 96,
            "midi": 95,
            "name": "B6",
            "ticks": 123600,
            "time": 170.90693437500002,
            "velocity": 0.5905511811023622
          },
          {
            "duration": 0.1327432499999759,
            "durationTicks": 96,
            "midi": 92,
            "name": "G#6",
            "ticks": 123600,
            "time": 170.90693437500002,
            "velocity": 0.5905511811023622
          },
          {
            "duration": 0.1327432500000043,
            "durationTicks": 96,
            "midi": 94,
            "name": "A#6",
            "ticks": 123648,
            "time": 170.973306,
            "velocity": 0.7874015748031497
          },
          {
            "duration": 0.1327432500000043,
            "durationTicks": 96,
            "midi": 90,
            "name": "F#6",
            "ticks": 123648,
            "time": 170.973306,
            "velocity": 0.7874015748031497
          },
          {
            "duration": 0.1327432500000043,
            "durationTicks": 96,
            "midi": 94,
            "name": "A#6",
            "ticks": 123792,
            "time": 171.172420875,
            "velocity": 0.5905511811023622
          },
          {
            "duration": 0.1327432500000043,
            "durationTicks": 96,
            "midi": 90,
            "name": "F#6",
            "ticks": 123792,
            "time": 171.172420875,
            "velocity": 0.5905511811023622
          },
          {
            "duration": 0.1327432499999759,
            "durationTicks": 96,
            "midi": 90,
            "name": "F#6",
            "ticks": 123936,
            "time": 171.37153575000002,
            "velocity": 0.7874015748031497
          },
          {
            "duration": 0.1327432499999759,
            "durationTicks": 96,
            "midi": 85,
            "name": "C#6",
            "ticks": 123936,
            "time": 171.37153575000002,
            "velocity": 0.7874015748031497
          },
          {
            "duration": 0.1327432500000043,
            "durationTicks": 96,
            "midi": 85,
            "name": "C#6",
            "ticks": 124080,
            "time": 171.570650625,
            "velocity": 0.5905511811023622
          },
          {
            "duration": 0.1327432500000043,
            "durationTicks": 96,
            "midi": 90,
            "name": "F#6",
            "ticks": 124080,
            "time": 171.570650625,
            "velocity": 0.5905511811023622
          },
          {
            "duration": 0.1327432500000043,
            "durationTicks": 96,
            "midi": 88,
            "name": "E6",
            "ticks": 124224,
            "time": 171.7697655,
            "velocity": 0.7874015748031497
          },
          {
            "duration": 0.1327432500000043,
            "durationTicks": 96,
            "midi": 92,
            "name": "G#6",
            "ticks": 124224,
            "time": 171.7697655,
            "velocity": 0.7874015748031497
          },
          {
            "duration": 0.1327432500000043,
            "durationTicks": 96,
            "midi": 92,
            "name": "G#6",
            "ticks": 124368,
            "time": 171.968880375,
            "velocity": 0.5905511811023622
          },
          {
            "duration": 0.1327432500000043,
            "durationTicks": 96,
            "midi": 88,
            "name": "E6",
            "ticks": 124368,
            "time": 171.968880375,
            "velocity": 0.5905511811023622
          },
          {
            "duration": 0.1327432500000043,
            "durationTicks": 96,
            "midi": 85,
            "name": "C#6",
            "ticks": 124416,
            "time": 172.035252,
            "velocity": 0.7874015748031497
          },
          {
            "duration": 0.1327432500000043,
            "durationTicks": 96,
            "midi": 92,
            "name": "G#6",
            "ticks": 124416,
            "time": 172.035252,
            "velocity": 0.7874015748031497
          },
          {
            "duration": 0.1327432500000043,
            "durationTicks": 96,
            "midi": 85,
            "name": "C#6",
            "ticks": 124560,
            "time": 172.234366875,
            "velocity": 0.5905511811023622
          },
          {
            "duration": 0.1327432500000043,
            "durationTicks": 96,
            "midi": 92,
            "name": "G#6",
            "ticks": 124560,
            "time": 172.234366875,
            "velocity": 0.5905511811023622
          },
          {
            "duration": 0.1327432500000043,
            "durationTicks": 96,
            "midi": 88,
            "name": "E6",
            "ticks": 124704,
            "time": 172.43348175,
            "velocity": 0.7874015748031497
          },
          {
            "duration": 0.1327432500000043,
            "durationTicks": 96,
            "midi": 92,
            "name": "G#6",
            "ticks": 124704,
            "time": 172.43348175,
            "velocity": 0.7874015748031497
          },
          {
            "duration": 0.1327432499999759,
            "durationTicks": 96,
            "midi": 88,
            "name": "E6",
            "ticks": 124848,
            "time": 172.63259662500002,
            "velocity": 0.5905511811023622
          },
          {
            "duration": 0.1327432499999759,
            "durationTicks": 96,
            "midi": 92,
            "name": "G#6",
            "ticks": 124848,
            "time": 172.63259662500002,
            "velocity": 0.5905511811023622
          },
          {
            "duration": 0.1327432500000043,
            "durationTicks": 96,
            "midi": 92,
            "name": "G#6",
            "ticks": 124992,
            "time": 172.8317115,
            "velocity": 0.7874015748031497
          },
          {
            "duration": 0.1327432500000043,
            "durationTicks": 96,
            "midi": 95,
            "name": "B6",
            "ticks": 124992,
            "time": 172.8317115,
            "velocity": 0.7874015748031497
          },
          {
            "duration": 0.1327432500000043,
            "durationTicks": 96,
            "midi": 95,
            "name": "B6",
            "ticks": 125136,
            "time": 173.030826375,
            "velocity": 0.5905511811023622
          },
          {
            "duration": 0.1327432500000043,
            "durationTicks": 96,
            "midi": 92,
            "name": "G#6",
            "ticks": 125136,
            "time": 173.030826375,
            "velocity": 0.5905511811023622
          },
          {
            "duration": 0.1327432499999759,
            "durationTicks": 96,
            "midi": 90,
            "name": "F#6",
            "ticks": 125184,
            "time": 173.09719800000002,
            "velocity": 0.7874015748031497
          },
          {
            "duration": 0.1327432499999759,
            "durationTicks": 96,
            "midi": 94,
            "name": "A#6",
            "ticks": 125184,
            "time": 173.09719800000002,
            "velocity": 0.7874015748031497
          },
          {
            "duration": 0.1327432500000043,
            "durationTicks": 96,
            "midi": 94,
            "name": "A#6",
            "ticks": 125328,
            "time": 173.296312875,
            "velocity": 0.5905511811023622
          },
          {
            "duration": 0.1327432500000043,
            "durationTicks": 96,
            "midi": 90,
            "name": "F#6",
            "ticks": 125328,
            "time": 173.296312875,
            "velocity": 0.5905511811023622
          },
          {
            "duration": 0.1327432500000043,
            "durationTicks": 96,
            "midi": 90,
            "name": "F#6",
            "ticks": 125472,
            "time": 173.49542775,
            "velocity": 0.7874015748031497
          },
          {
            "duration": 0.1327432500000043,
            "durationTicks": 96,
            "midi": 85,
            "name": "C#6",
            "ticks": 125472,
            "time": 173.49542775,
            "velocity": 0.7874015748031497
          },
          {
            "duration": 0.1327432500000043,
            "durationTicks": 96,
            "midi": 90,
            "name": "F#6",
            "ticks": 125616,
            "time": 173.694542625,
            "velocity": 0.5905511811023622
          },
          {
            "duration": 0.1327432500000043,
            "durationTicks": 96,
            "midi": 85,
            "name": "C#6",
            "ticks": 125616,
            "time": 173.694542625,
            "velocity": 0.5905511811023622
          },
          {
            "duration": 0.1327432500000043,
            "durationTicks": 96,
            "midi": 92,
            "name": "G#6",
            "ticks": 125760,
            "time": 173.89365750000002,
            "velocity": 0.7874015748031497
          },
          {
            "duration": 0.1327432500000043,
            "durationTicks": 96,
            "midi": 88,
            "name": "E6",
            "ticks": 125760,
            "time": 173.89365750000002,
            "velocity": 0.7874015748031497
          },
          {
            "duration": 0.1327432500000043,
            "durationTicks": 96,
            "midi": 92,
            "name": "G#6",
            "ticks": 125904,
            "time": 174.092772375,
            "velocity": 0.5905511811023622
          },
          {
            "duration": 0.1327432500000043,
            "durationTicks": 96,
            "midi": 88,
            "name": "E6",
            "ticks": 125904,
            "time": 174.092772375,
            "velocity": 0.5905511811023622
          },
          {
            "duration": 0.1327432500000043,
            "durationTicks": 96,
            "midi": 85,
            "name": "C#6",
            "ticks": 125952,
            "time": 174.159144,
            "velocity": 0.7874015748031497
          },
          {
            "duration": 0.1327432500000043,
            "durationTicks": 96,
            "midi": 92,
            "name": "G#6",
            "ticks": 125952,
            "time": 174.159144,
            "velocity": 0.7874015748031497
          },
          {
            "duration": 0.1327432500000043,
            "durationTicks": 96,
            "midi": 92,
            "name": "G#6",
            "ticks": 126096,
            "time": 174.35825887500002,
            "velocity": 0.5905511811023622
          },
          {
            "duration": 0.1327432500000043,
            "durationTicks": 96,
            "midi": 85,
            "name": "C#6",
            "ticks": 126096,
            "time": 174.35825887500002,
            "velocity": 0.5905511811023622
          }
        ],
        "endOfTrackTicks": 126192
      },
      {
        "channel": 7,
        "controlChanges": {},
        "pitchBends": [],
        "instrument": {
          "family": "strings",
          "number": 40,
          "name": "violin"
        },
        "name": "Violin (Sustain)",
        "notes": [
          {
            "duration": 0.13274325000000076,
            "durationTicks": 96,
            "midi": 76,
            "name": "E5",
            "ticks": 19200,
            "time": 26.548650000000002,
            "velocity": 0.7874015748031497
          },
          {
            "duration": 0.13274325000000076,
            "durationTicks": 96,
            "midi": 76,
            "name": "E5",
            "ticks": 19392,
            "time": 26.8141365,
            "velocity": 0.5905511811023622
          },
          {
            "duration": 0.13274325000000076,
            "durationTicks": 96,
            "midi": 78,
            "name": "F#5",
            "ticks": 19584,
            "time": 27.079623,
            "velocity": 0.7874015748031497
          },
          {
            "duration": 0.1327432499999972,
            "durationTicks": 96,
            "midi": 78,
            "name": "F#5",
            "ticks": 19776,
            "time": 27.345109500000003,
            "velocity": 0.5905511811023622
          },
          {
            "duration": 0.796459500000001,
            "durationTicks": 576,
            "midi": 83,
            "name": "B5",
            "ticks": 19968,
            "time": 27.610596,
            "velocity": 0.7874015748031497
          },
          {
            "duration": 0.9292027500000017,
            "durationTicks": 672,
            "midi": 78,
            "name": "F#5",
            "ticks": 19968,
            "time": 27.610596,
            "velocity": 0.7874015748031497
          },
          {
            "duration": 0.13274325000000076,
            "durationTicks": 96,
            "midi": 85,
            "name": "C#6",
            "ticks": 20544,
            "time": 28.407055500000002,
            "velocity": 0.7874015748031497
          },
          {
            "duration": 0.2654865000000015,
            "durationTicks": 192,
            "midi": 68,
            "name": "G#4",
            "ticks": 20736,
            "time": 28.672542,
            "velocity": 0.7874015748031497
          },
          {
            "duration": 0.2654865000000015,
            "durationTicks": 192,
            "midi": 76,
            "name": "E5",
            "ticks": 20736,
            "time": 28.672542,
            "velocity": 0.7874015748031497
          },
          {
            "duration": 0.26548649999999796,
            "durationTicks": 192,
            "midi": 78,
            "name": "F#5",
            "ticks": 21024,
            "time": 29.070771750000002,
            "velocity": 0.7874015748031497
          },
          {
            "duration": 0.26548649999999796,
            "durationTicks": 192,
            "midi": 71,
            "name": "B4",
            "ticks": 21024,
            "time": 29.070771750000002,
            "velocity": 0.7874015748031497
          },
          {
            "duration": 0.13274325000000076,
            "durationTicks": 96,
            "midi": 73,
            "name": "C#5",
            "ticks": 21312,
            "time": 29.4690015,
            "velocity": 0.7874015748031497
          },
          {
            "duration": 0.13274325000000076,
            "durationTicks": 96,
            "midi": 80,
            "name": "G#5",
            "ticks": 21312,
            "time": 29.4690015,
            "velocity": 0.7874015748031497
          },
          {
            "duration": 0.7964594999999974,
            "durationTicks": 576,
            "midi": 83,
            "name": "B5",
            "ticks": 21504,
            "time": 29.734488000000002,
            "velocity": 0.7874015748031497
          },
          {
            "duration": 0.9292027499999982,
            "durationTicks": 672,
            "midi": 78,
            "name": "F#5",
            "ticks": 21504,
            "time": 29.734488000000002,
            "velocity": 0.7874015748031497
          },
          {
            "duration": 0.13274325000000076,
            "durationTicks": 96,
            "midi": 85,
            "name": "C#6",
            "ticks": 22080,
            "time": 30.5309475,
            "velocity": 0.7874015748031497
          },
          {
            "duration": 0.2654865000000015,
            "durationTicks": 192,
            "midi": 66,
            "name": "F#4",
            "ticks": 22272,
            "time": 30.796434,
            "velocity": 0.7874015748031497
          },
          {
            "duration": 0.2654865000000015,
            "durationTicks": 192,
            "midi": 75,
            "name": "D#5",
            "ticks": 22272,
            "time": 30.796434,
            "velocity": 0.7874015748031497
          },
          {
            "duration": 0.2654865000000015,
            "durationTicks": 192,
            "midi": 87,
            "name": "D#6",
            "ticks": 22560,
            "time": 31.19466375,
            "velocity": 0.7874015748031497
          },
          {
            "duration": 0.2654865000000015,
            "durationTicks": 192,
            "midi": 78,
            "name": "F#5",
            "ticks": 22560,
            "time": 31.19466375,
            "velocity": 0.7874015748031497
          },
          {
            "duration": 0.26548649999999796,
            "durationTicks": 192,
            "midi": 75,
            "name": "D#5",
            "ticks": 22848,
            "time": 31.592893500000002,
            "velocity": 0.7874015748031497
          },
          {
            "duration": 0.26548649999999796,
            "durationTicks": 192,
            "midi": 83,
            "name": "B5",
            "ticks": 22848,
            "time": 31.592893500000002,
            "velocity": 0.7874015748031497
          },
          {
            "duration": 1.8584055,
            "durationTicks": 1344,
            "midi": 73,
            "name": "C#5",
            "ticks": 23040,
            "time": 31.85838,
            "velocity": 0.7874015748031497
          },
          {
            "duration": 1.8584055,
            "durationTicks": 1344,
            "midi": 80,
            "name": "G#5",
            "ticks": 23040,
            "time": 31.85838,
            "velocity": 0.7874015748031497
          },
          {
            "duration": 0.1327432500000043,
            "durationTicks": 96,
            "midi": 81,
            "name": "A5",
            "ticks": 24384,
            "time": 33.7167855,
            "velocity": 0.7874015748031497
          },
          {
            "duration": 0.1327432500000043,
            "durationTicks": 96,
            "midi": 75,
            "name": "D#5",
            "ticks": 24384,
            "time": 33.7167855,
            "velocity": 0.7874015748031497
          },
          {
            "duration": 0.1327432499999972,
            "durationTicks": 96,
            "midi": 73,
            "name": "C#5",
            "ticks": 24480,
            "time": 33.849528750000005,
            "velocity": 0.7874015748031497
          },
          {
            "duration": 0.1327432499999972,
            "durationTicks": 96,
            "midi": 80,
            "name": "G#5",
            "ticks": 24480,
            "time": 33.849528750000005,
            "velocity": 0.7874015748031497
          },
          {
            "duration": 0.530973000000003,
            "durationTicks": 384,
            "midi": 78,
            "name": "F#5",
            "ticks": 24576,
            "time": 33.982272,
            "velocity": 0.7874015748031497
          },
          {
            "duration": 0.530973000000003,
            "durationTicks": 384,
            "midi": 71,
            "name": "B4",
            "ticks": 24576,
            "time": 33.982272,
            "velocity": 0.7874015748031497
          },
          {
            "duration": 0.1327432500000043,
            "durationTicks": 96,
            "midi": 76,
            "name": "E5",
            "ticks": 31488,
            "time": 43.539786,
            "velocity": 0.7874015748031497
          },
          {
            "duration": 0.1327432500000043,
            "durationTicks": 96,
            "midi": 76,
            "name": "E5",
            "ticks": 31680,
            "time": 43.8052725,
            "velocity": 0.5905511811023622
          },
          {
            "duration": 0.1327432499999972,
            "durationTicks": 96,
            "midi": 78,
            "name": "F#5",
            "ticks": 31872,
            "time": 44.070759,
            "velocity": 0.7874015748031497
          },
          {
            "duration": 0.1327432499999972,
            "durationTicks": 96,
            "midi": 78,
            "name": "F#5",
            "ticks": 32064,
            "time": 44.336245500000004,
            "velocity": 0.5905511811023622
          },
          {
            "duration": 0.7964594999999974,
            "durationTicks": 576,
            "midi": 83,
            "name": "B5",
            "ticks": 32256,
            "time": 44.601732000000005,
            "velocity": 0.7874015748031497
          },
          {
            "duration": 0.9292027499999946,
            "durationTicks": 672,
            "midi": 78,
            "name": "F#5",
            "ticks": 32256,
            "time": 44.601732000000005,
            "velocity": 0.7874015748031497
          },
          {
            "duration": 0.1327432499999972,
            "durationTicks": 96,
            "midi": 85,
            "name": "C#6",
            "ticks": 32832,
            "time": 45.3981915,
            "velocity": 0.7874015748031497
          },
          {
            "duration": 0.2654865000000015,
            "durationTicks": 192,
            "midi": 76,
            "name": "E5",
            "ticks": 33024,
            "time": 45.663678000000004,
            "velocity": 0.7874015748031497
          },
          {
            "duration": 0.2654865000000015,
            "durationTicks": 192,
            "midi": 68,
            "name": "G#4",
            "ticks": 33024,
            "time": 45.663678000000004,
            "velocity": 0.7874015748031497
          },
          {
            "duration": 0.2654865000000015,
            "durationTicks": 192,
            "midi": 78,
            "name": "F#5",
            "ticks": 33312,
            "time": 46.06190775,
            "velocity": 0.7874015748031497
          },
          {
            "duration": 0.2654865000000015,
            "durationTicks": 192,
            "midi": 71,
            "name": "B4",
            "ticks": 33312,
            "time": 46.06190775,
            "velocity": 0.7874015748031497
          },
          {
            "duration": 0.1327432499999972,
            "durationTicks": 96,
            "midi": 73,
            "name": "C#5",
            "ticks": 33600,
            "time": 46.4601375,
            "velocity": 0.7874015748031497
          },
          {
            "duration": 0.1327432499999972,
            "durationTicks": 96,
            "midi": 80,
            "name": "G#5",
            "ticks": 33600,
            "time": 46.4601375,
            "velocity": 0.7874015748031497
          },
          {
            "duration": 0.9292027500000017,
            "durationTicks": 672,
            "midi": 78,
            "name": "F#5",
            "ticks": 33792,
            "time": 46.725624,
            "velocity": 0.7874015748031497
          },
          {
            "duration": 0.7964594999999974,
            "durationTicks": 576,
            "midi": 83,
            "name": "B5",
            "ticks": 33792,
            "time": 46.725624,
            "velocity": 0.7874015748031497
          },
          {
            "duration": 0.1327432500000043,
            "durationTicks": 96,
            "midi": 85,
            "name": "C#6",
            "ticks": 34368,
            "time": 47.5220835,
            "velocity": 0.7874015748031497
          },
          {
            "duration": 0.2654865000000015,
            "durationTicks": 192,
            "midi": 75,
            "name": "D#5",
            "ticks": 34560,
            "time": 47.78757,
            "velocity": 0.7874015748031497
          },
          {
            "duration": 0.2654865000000015,
            "durationTicks": 192,
            "midi": 66,
            "name": "F#4",
            "ticks": 34560,
            "time": 47.78757,
            "velocity": 0.7874015748031497
          },
          {
            "duration": 0.2654865000000015,
            "durationTicks": 192,
            "midi": 78,
            "name": "F#5",
            "ticks": 34848,
            "time": 48.18579975,
            "velocity": 0.7874015748031497
          },
          {
            "duration": 0.2654865000000015,
            "durationTicks": 192,
            "midi": 87,
            "name": "D#6",
            "ticks": 34848,
            "time": 48.18579975,
            "velocity": 0.7874015748031497
          },
          {
            "duration": 0.2654865000000015,
            "durationTicks": 192,
            "midi": 83,
            "name": "B5",
            "ticks": 35136,
            "time": 48.5840295,
            "velocity": 0.7874015748031497
          },
          {
            "duration": 0.2654865000000015,
            "durationTicks": 192,
            "midi": 75,
            "name": "D#5",
            "ticks": 35136,
            "time": 48.5840295,
            "velocity": 0.7874015748031497
          },
          {
            "duration": 1.8584055000000035,
            "durationTicks": 1344,
            "midi": 73,
            "name": "C#5",
            "ticks": 35328,
            "time": 48.849516,
            "velocity": 0.7874015748031497
          },
          {
            "duration": 1.8584055000000035,
            "durationTicks": 1344,
            "midi": 80,
            "name": "G#5",
            "ticks": 35328,
            "time": 48.849516,
            "velocity": 0.7874015748031497
          },
          {
            "duration": 0.1327432499999972,
            "durationTicks": 96,
            "midi": 81,
            "name": "A5",
            "ticks": 36672,
            "time": 50.707921500000005,
            "velocity": 0.7874015748031497
          },
          {
            "duration": 0.1327432499999972,
            "durationTicks": 96,
            "midi": 75,
            "name": "D#5",
            "ticks": 36672,
            "time": 50.707921500000005,
            "velocity": 0.7874015748031497
          },
          {
            "duration": 0.1327432500000043,
            "durationTicks": 96,
            "midi": 73,
            "name": "C#5",
            "ticks": 36768,
            "time": 50.84066475,
            "velocity": 0.7874015748031497
          },
          {
            "duration": 0.1327432500000043,
            "durationTicks": 96,
            "midi": 80,
            "name": "G#5",
            "ticks": 36768,
            "time": 50.84066475,
            "velocity": 0.7874015748031497
          },
          {
            "duration": 0.5309729999999959,
            "durationTicks": 384,
            "midi": 78,
            "name": "F#5",
            "ticks": 36864,
            "time": 50.973408000000006,
            "velocity": 0.7874015748031497
          },
          {
            "duration": 0.5309729999999959,
            "durationTicks": 384,
            "midi": 71,
            "name": "B4",
            "ticks": 36864,
            "time": 50.973408000000006,
            "velocity": 0.7874015748031497
          },
          {
            "duration": 0.1327432500000043,
            "durationTicks": 96,
            "midi": 73,
            "name": "C#5",
            "ticks": 50688,
            "time": 70.088436,
            "velocity": 0.7874015748031497
          },
          {
            "duration": 4.247783999999996,
            "durationTicks": 3072,
            "midi": 85,
            "name": "C#6",
            "ticks": 50688,
            "time": 70.088436,
            "velocity": 0.7874015748031497
          },
          {
            "duration": 0.1327432500000043,
            "durationTicks": 96,
            "midi": 73,
            "name": "C#5",
            "ticks": 50736,
            "time": 70.154807625,
            "velocity": 0.5905511811023622
          },
          {
            "duration": 0.1327432500000043,
            "durationTicks": 96,
            "midi": 76,
            "name": "E5",
            "ticks": 50784,
            "time": 70.22117925,
            "velocity": 0.7874015748031497
          },
          {
            "duration": 0.1327432499999901,
            "durationTicks": 96,
            "midi": 76,
            "name": "E5",
            "ticks": 50832,
            "time": 70.28755087500001,
            "velocity": 0.5905511811023622
          },
          {
            "duration": 0.1327432499999901,
            "durationTicks": 96,
            "midi": 75,
            "name": "D#5",
            "ticks": 50880,
            "time": 70.35392250000001,
            "velocity": 0.7874015748031497
          },
          {
            "duration": 0.1327432500000043,
            "durationTicks": 96,
            "midi": 75,
            "name": "D#5",
            "ticks": 50928,
            "time": 70.420294125,
            "velocity": 0.5905511811023622
          },
          {
            "duration": 0.1327432500000043,
            "durationTicks": 96,
            "midi": 76,
            "name": "E5",
            "ticks": 50976,
            "time": 70.48666575,
            "velocity": 0.7874015748031497
          },
          {
            "duration": 0.1327432500000043,
            "durationTicks": 96,
            "midi": 76,
            "name": "E5",
            "ticks": 51024,
            "time": 70.553037375,
            "velocity": 0.5905511811023622
          },
          {
            "duration": 0.1327432500000043,
            "durationTicks": 96,
            "midi": 73,
            "name": "C#5",
            "ticks": 51072,
            "time": 70.619409,
            "velocity": 0.7874015748031497
          },
          {
            "duration": 0.1327432499999901,
            "durationTicks": 96,
            "midi": 73,
            "name": "C#5",
            "ticks": 51120,
            "time": 70.685780625,
            "velocity": 0.5905511811023622
          },
          {
            "duration": 0.1327432499999901,
            "durationTicks": 96,
            "midi": 73,
            "name": "C#5",
            "ticks": 51168,
            "time": 70.75215225000001,
            "velocity": 0.4881889763779528
          },
          {
            "duration": 0.1327432500000043,
            "durationTicks": 96,
            "midi": 73,
            "name": "C#5",
            "ticks": 51216,
            "time": 70.818523875,
            "velocity": 0.4330708661417323
          },
          {
            "duration": 0.2654864999999944,
            "durationTicks": 192,
            "midi": 73,
            "name": "C#5",
            "ticks": 51360,
            "time": 71.01763875,
            "velocity": 0.7874015748031497
          },
          {
            "duration": 0.1327432500000043,
            "durationTicks": 96,
            "midi": 75,
            "name": "D#5",
            "ticks": 51552,
            "time": 71.28312525,
            "velocity": 0.7874015748031497
          },
          {
            "duration": 0.1327432500000043,
            "durationTicks": 96,
            "midi": 75,
            "name": "D#5",
            "ticks": 51600,
            "time": 71.349496875,
            "velocity": 0.5905511811023622
          },
          {
            "duration": 0.1327432500000043,
            "durationTicks": 96,
            "midi": 76,
            "name": "E5",
            "ticks": 51648,
            "time": 71.4158685,
            "velocity": 0.7874015748031497
          },
          {
            "duration": 0.1327432500000043,
            "durationTicks": 96,
            "midi": 76,
            "name": "E5",
            "ticks": 51696,
            "time": 71.482240125,
            "velocity": 0.5905511811023622
          },
          {
            "duration": 0.1327432500000043,
            "durationTicks": 96,
            "midi": 83,
            "name": "B5",
            "ticks": 51744,
            "time": 71.54861175,
            "velocity": 0.7874015748031497
          },
          {
            "duration": 0.1327432499999901,
            "durationTicks": 96,
            "midi": 83,
            "name": "B5",
            "ticks": 51792,
            "time": 71.61498337500001,
            "velocity": 0.5905511811023622
          },
          {
            "duration": 0.1327432499999901,
            "durationTicks": 96,
            "midi": 80,
            "name": "G#5",
            "ticks": 51840,
            "time": 71.68135500000001,
            "velocity": 0.7874015748031497
          },
          {
            "duration": 0.1327432500000043,
            "durationTicks": 96,
            "midi": 80,
            "name": "G#5",
            "ticks": 51888,
            "time": 71.747726625,
            "velocity": 0.5905511811023622
          },
          {
            "duration": 0.1327432500000043,
            "durationTicks": 96,
            "midi": 80,
            "name": "G#5",
            "ticks": 51936,
            "time": 71.81409825,
            "velocity": 0.4881889763779528
          },
          {
            "duration": 0.1327432500000043,
            "durationTicks": 96,
            "midi": 80,
            "name": "G#5",
            "ticks": 51984,
            "time": 71.880469875,
            "velocity": 0.4330708661417323
          },
          {
            "duration": 0.1327432500000043,
            "durationTicks": 96,
            "midi": 73,
            "name": "C#5",
            "ticks": 52224,
            "time": 72.212328,
            "velocity": 0.7874015748031497
          },
          {
            "duration": 0.1327432500000043,
            "durationTicks": 96,
            "midi": 73,
            "name": "C#5",
            "ticks": 52272,
            "time": 72.278699625,
            "velocity": 0.5905511811023622
          },
          {
            "duration": 0.1327432500000043,
            "durationTicks": 96,
            "midi": 76,
            "name": "E5",
            "ticks": 52320,
            "time": 72.34507125,
            "velocity": 0.7874015748031497
          },
          {
            "duration": 0.1327432500000043,
            "durationTicks": 96,
            "midi": 76,
            "name": "E5",
            "ticks": 52368,
            "time": 72.411442875,
            "velocity": 0.5905511811023622
          },
          {
            "duration": 0.1327432499999901,
            "durationTicks": 96,
            "midi": 75,
            "name": "D#5",
            "ticks": 52416,
            "time": 72.47781450000001,
            "velocity": 0.7874015748031497
          },
          {
            "duration": 0.1327432499999901,
            "durationTicks": 96,
            "midi": 75,
            "name": "D#5",
            "ticks": 52464,
            "time": 72.54418612500001,
            "velocity": 0.5905511811023622
          },
          {
            "duration": 0.1327432500000043,
            "durationTicks": 96,
            "midi": 76,
            "name": "E5",
            "ticks": 52512,
            "time": 72.61055775,
            "velocity": 0.7874015748031497
          },
          {
            "duration": 0.1327432500000043,
            "durationTicks": 96,
            "midi": 76,
            "name": "E5",
            "ticks": 52560,
            "time": 72.676929375,
            "velocity": 0.5905511811023622
          },
          {
            "duration": 0.1327432500000043,
            "durationTicks": 96,
            "midi": 73,
            "name": "C#5",
            "ticks": 52608,
            "time": 72.743301,
            "velocity": 0.7874015748031497
          },
          {
            "duration": 0.1327432500000043,
            "durationTicks": 96,
            "midi": 73,
            "name": "C#5",
            "ticks": 52656,
            "time": 72.809672625,
            "velocity": 0.5905511811023622
          },
          {
            "duration": 0.1327432499999901,
            "durationTicks": 96,
            "midi": 73,
            "name": "C#5",
            "ticks": 52704,
            "time": 72.87604425,
            "velocity": 0.4881889763779528
          },
          {
            "duration": 0.1327432499999901,
            "durationTicks": 96,
            "midi": 73,
            "name": "C#5",
            "ticks": 52752,
            "time": 72.94241587500001,
            "velocity": 0.4330708661417323
          },
          {
            "duration": 0.2654865000000086,
            "durationTicks": 192,
            "midi": 73,
            "name": "C#5",
            "ticks": 52896,
            "time": 73.14153075,
            "velocity": 0.7874015748031497
          },
          {
            "duration": 0.1327432499999901,
            "durationTicks": 96,
            "midi": 75,
            "name": "D#5",
            "ticks": 53088,
            "time": 73.40701725000001,
            "velocity": 0.7874015748031497
          },
          {
            "duration": 0.1327432500000043,
            "durationTicks": 96,
            "midi": 75,
            "name": "D#5",
            "ticks": 53136,
            "time": 73.473388875,
            "velocity": 0.5905511811023622
          },
          {
            "duration": 0.1327432500000043,
            "durationTicks": 96,
            "midi": 76,
            "name": "E5",
            "ticks": 53184,
            "time": 73.5397605,
            "velocity": 0.7874015748031497
          },
          {
            "duration": 0.1327432500000043,
            "durationTicks": 96,
            "midi": 76,
            "name": "E5",
            "ticks": 53232,
            "time": 73.606132125,
            "velocity": 0.5905511811023622
          },
          {
            "duration": 0.1327432500000043,
            "durationTicks": 96,
            "midi": 83,
            "name": "B5",
            "ticks": 53280,
            "time": 73.67250375,
            "velocity": 0.7874015748031497
          },
          {
            "duration": 0.1327432500000043,
            "durationTicks": 96,
            "midi": 83,
            "name": "B5",
            "ticks": 53328,
            "time": 73.738875375,
            "velocity": 0.5905511811023622
          },
          {
            "duration": 0.1327432499999901,
            "durationTicks": 96,
            "midi": 80,
            "name": "G#5",
            "ticks": 53376,
            "time": 73.80524700000001,
            "velocity": 0.7874015748031497
          },
          {
            "duration": 0.1327432499999901,
            "durationTicks": 96,
            "midi": 80,
            "name": "G#5",
            "ticks": 53424,
            "time": 73.87161862500001,
            "velocity": 0.5905511811023622
          },
          {
            "duration": 0.1327432500000043,
            "durationTicks": 96,
            "midi": 80,
            "name": "G#5",
            "ticks": 53472,
            "time": 73.93799025,
            "velocity": 0.4881889763779528
          },
          {
            "duration": 0.1327432500000043,
            "durationTicks": 96,
            "midi": 80,
            "name": "G#5",
            "ticks": 53520,
            "time": 74.004361875,
            "velocity": 0.4330708661417323
          },
          {
            "duration": 0.1327432500000043,
            "durationTicks": 96,
            "midi": 73,
            "name": "C#5",
            "ticks": 53760,
            "time": 74.33622,
            "velocity": 0.7874015748031497
          },
          {
            "duration": 2.123892000000012,
            "durationTicks": 1536,
            "midi": 87,
            "name": "D#6",
            "ticks": 53760,
            "time": 74.33622,
            "velocity": 0.7874015748031497
          },
          {
            "duration": 0.1327432500000043,
            "durationTicks": 96,
            "midi": 73,
            "name": "C#5",
            "ticks": 53808,
            "time": 74.402591625,
            "velocity": 0.5905511811023622
          },
          {
            "duration": 0.1327432500000043,
            "durationTicks": 96,
            "midi": 76,
            "name": "E5",
            "ticks": 53856,
            "time": 74.46896325,
            "velocity": 0.7874015748031497
          },
          {
            "duration": 0.1327432500000043,
            "durationTicks": 96,
            "midi": 76,
            "name": "E5",
            "ticks": 53904,
            "time": 74.535334875,
            "velocity": 0.5905511811023622
          },
          {
            "duration": 0.1327432500000043,
            "durationTicks": 96,
            "midi": 75,
            "name": "D#5",
            "ticks": 53952,
            "time": 74.6017065,
            "velocity": 0.7874015748031497
          },
          {
            "duration": 0.1327432499999901,
            "durationTicks": 96,
            "midi": 75,
            "name": "D#5",
            "ticks": 54000,
            "time": 74.66807812500001,
            "velocity": 0.5905511811023622
          },
          {
            "duration": 0.1327432499999901,
            "durationTicks": 96,
            "midi": 76,
            "name": "E5",
            "ticks": 54048,
            "time": 74.73444975000001,
            "velocity": 0.7874015748031497
          },
          {
            "duration": 0.1327432500000043,
            "durationTicks": 96,
            "midi": 76,
            "name": "E5",
            "ticks": 54096,
            "time": 74.800821375,
            "velocity": 0.5905511811023622
          },
          {
            "duration": 0.1327432500000043,
            "durationTicks": 96,
            "midi": 73,
            "name": "C#5",
            "ticks": 54144,
            "time": 74.867193,
            "velocity": 0.7874015748031497
          },
          {
            "duration": 0.1327432500000043,
            "durationTicks": 96,
            "midi": 73,
            "name": "C#5",
            "ticks": 54192,
            "time": 74.933564625,
            "velocity": 0.5905511811023622
          },
          {
            "duration": 0.1327432500000043,
            "durationTicks": 96,
            "midi": 73,
            "name": "C#5",
            "ticks": 54240,
            "time": 74.99993625,
            "velocity": 0.4881889763779528
          },
          {
            "duration": 0.1327432500000043,
            "durationTicks": 96,
            "midi": 73,
            "name": "C#5",
            "ticks": 54288,
            "time": 75.066307875,
            "velocity": 0.4330708661417323
          },
          {
            "duration": 0.2654865000000086,
            "durationTicks": 192,
            "midi": 73,
            "name": "C#5",
            "ticks": 54432,
            "time": 75.26542275,
            "velocity": 0.7874015748031497
          },
          {
            "duration": 0.1327432499999901,
            "durationTicks": 96,
            "midi": 75,
            "name": "D#5",
            "ticks": 54624,
            "time": 75.53090925000001,
            "velocity": 0.7874015748031497
          },
          {
            "duration": 0.1327432499999901,
            "durationTicks": 96,
            "midi": 75,
            "name": "D#5",
            "ticks": 54672,
            "time": 75.59728087500001,
            "velocity": 0.5905511811023622
          },
          {
            "duration": 0.1327432500000043,
            "durationTicks": 96,
            "midi": 76,
            "name": "E5",
            "ticks": 54720,
            "time": 75.6636525,
            "velocity": 0.7874015748031497
          },
          {
            "duration": 0.1327432500000043,
            "durationTicks": 96,
            "midi": 76,
            "name": "E5",
            "ticks": 54768,
            "time": 75.730024125,
            "velocity": 0.5905511811023622
          },
          {
            "duration": 0.1327432500000043,
            "durationTicks": 96,
            "midi": 83,
            "name": "B5",
            "ticks": 54816,
            "time": 75.79639575,
            "velocity": 0.7874015748031497
          },
          {
            "duration": 0.1327432500000043,
            "durationTicks": 96,
            "midi": 83,
            "name": "B5",
            "ticks": 54864,
            "time": 75.862767375,
            "velocity": 0.5905511811023622
          },
          {
            "duration": 0.1327432500000043,
            "durationTicks": 96,
            "midi": 80,
            "name": "G#5",
            "ticks": 54912,
            "time": 75.929139,
            "velocity": 0.7874015748031497
          },
          {
            "duration": 0.1327432499999901,
            "durationTicks": 96,
            "midi": 80,
            "name": "G#5",
            "ticks": 54960,
            "time": 75.99551062500001,
            "velocity": 0.5905511811023622
          },
          {
            "duration": 0.1327432499999901,
            "durationTicks": 96,
            "midi": 80,
            "name": "G#5",
            "ticks": 55008,
            "time": 76.06188225000001,
            "velocity": 0.4881889763779528
          },
          {
            "duration": 0.1327432500000043,
            "durationTicks": 96,
            "midi": 80,
            "name": "G#5",
            "ticks": 55056,
            "time": 76.128253875,
            "velocity": 0.4330708661417323
          },
          {
            "duration": 0.3982297499999987,
            "durationTicks": 288,
            "midi": 71,
            "name": "B4",
            "ticks": 55296,
            "time": 76.46011200000001,
            "velocity": 0.7874015748031497
          },
          {
            "duration": 2.123891999999998,
            "durationTicks": 1536,
            "midi": 90,
            "name": "F#6",
            "ticks": 55296,
            "time": 76.46011200000001,
            "velocity": 0.7874015748031497
          },
          {
            "duration": 0.3982297499999987,
            "durationTicks": 288,
            "midi": 78,
            "name": "F#5",
            "ticks": 55584,
            "time": 76.85834175000001,
            "velocity": 0.7874015748031497
          },
          {
            "duration": 0.1327432500000043,
            "durationTicks": 96,
            "midi": 76,
            "name": "E5",
            "ticks": 55872,
            "time": 77.2565715,
            "velocity": 0.7874015748031497
          },
          {
            "duration": 0.1327432499999901,
            "durationTicks": 96,
            "midi": 76,
            "name": "E5",
            "ticks": 55968,
            "time": 77.38931475000001,
            "velocity": 0.5905511811023622
          },
          {
            "duration": 0.1327432500000043,
            "durationTicks": 96,
            "midi": 75,
            "name": "D#5",
            "ticks": 56016,
            "time": 77.455686375,
            "velocity": 0.7874015748031497
          },
          {
            "duration": 0.1327432500000043,
            "durationTicks": 96,
            "midi": 75,
            "name": "D#5",
            "ticks": 56064,
            "time": 77.522058,
            "velocity": 0.7874015748031497
          },
          {
            "duration": 0.1327432500000043,
            "durationTicks": 96,
            "midi": 73,
            "name": "C#5",
            "ticks": 56160,
            "time": 77.65480125,
            "velocity": 0.7874015748031497
          },
          {
            "duration": 0.1327432499999901,
            "durationTicks": 96,
            "midi": 73,
            "name": "C#5",
            "ticks": 56256,
            "time": 77.78754450000001,
            "velocity": 0.5905511811023622
          },
          {
            "duration": 0.2654865000000086,
            "durationTicks": 192,
            "midi": 71,
            "name": "B4",
            "ticks": 56352,
            "time": 77.92028775,
            "velocity": 0.7874015748031497
          },
          {
            "duration": 0.1327432499999901,
            "durationTicks": 96,
            "midi": 73,
            "name": "C#5",
            "ticks": 56544,
            "time": 78.18577425000001,
            "velocity": 0.7874015748031497
          },
          {
            "duration": 0.1327432499999901,
            "durationTicks": 96,
            "midi": 75,
            "name": "D#5",
            "ticks": 56592,
            "time": 78.25214587500001,
            "velocity": 0.7874015748031497
          },
          {
            "duration": 0.2654865000000086,
            "durationTicks": 192,
            "midi": 75,
            "name": "D#5",
            "ticks": 56640,
            "time": 78.3185175,
            "velocity": 0.7874015748031497
          },
          {
            "duration": 0.1327432499999901,
            "durationTicks": 96,
            "midi": 73,
            "name": "C#5",
            "ticks": 56832,
            "time": 78.58400400000001,
            "velocity": 0.7874015748031497
          },
          {
            "duration": 4.247783999999996,
            "durationTicks": 3072,
            "midi": 85,
            "name": "C#6",
            "ticks": 56832,
            "time": 78.58400400000001,
            "velocity": 0.7874015748031497
          },
          {
            "duration": 0.1327432499999901,
            "durationTicks": 96,
            "midi": 73,
            "name": "C#5",
            "ticks": 56880,
            "time": 78.65037562500001,
            "velocity": 0.5905511811023622
          },
          {
            "duration": 0.1327432500000043,
            "durationTicks": 96,
            "midi": 76,
            "name": "E5",
            "ticks": 56928,
            "time": 78.71674725,
            "velocity": 0.7874015748031497
          },
          {
            "duration": 0.1327432500000043,
            "durationTicks": 96,
            "midi": 76,
            "name": "E5",
            "ticks": 56976,
            "time": 78.783118875,
            "velocity": 0.5905511811023622
          },
          {
            "duration": 0.1327432500000043,
            "durationTicks": 96,
            "midi": 75,
            "name": "D#5",
            "ticks": 57024,
            "time": 78.8494905,
            "velocity": 0.7874015748031497
          },
          {
            "duration": 0.1327432500000043,
            "durationTicks": 96,
            "midi": 75,
            "name": "D#5",
            "ticks": 57072,
            "time": 78.915862125,
            "velocity": 0.5905511811023622
          },
          {
            "duration": 0.1327432500000043,
            "durationTicks": 96,
            "midi": 76,
            "name": "E5",
            "ticks": 57120,
            "time": 78.98223375,
            "velocity": 0.7874015748031497
          },
          {
            "duration": 0.1327432499999901,
            "durationTicks": 96,
            "midi": 76,
            "name": "E5",
            "ticks": 57168,
            "time": 79.04860537500001,
            "velocity": 0.5905511811023622
          },
          {
            "duration": 0.1327432499999901,
            "durationTicks": 96,
            "midi": 73,
            "name": "C#5",
            "ticks": 57216,
            "time": 79.11497700000001,
            "velocity": 0.7874015748031497
          },
          {
            "duration": 0.1327432500000043,
            "durationTicks": 96,
            "midi": 73,
            "name": "C#5",
            "ticks": 57264,
            "time": 79.181348625,
            "velocity": 0.5905511811023622
          },
          {
            "duration": 0.1327432500000043,
            "durationTicks": 96,
            "midi": 73,
            "name": "C#5",
            "ticks": 57312,
            "time": 79.24772025,
            "velocity": 0.4881889763779528
          },
          {
            "duration": 0.1327432500000043,
            "durationTicks": 96,
            "midi": 73,
            "name": "C#5",
            "ticks": 57360,
            "time": 79.314091875,
            "velocity": 0.4330708661417323
          },
          {
            "duration": 0.2654864999999944,
            "durationTicks": 192,
            "midi": 73,
            "name": "C#5",
            "ticks": 57504,
            "time": 79.51320675000001,
            "velocity": 0.7874015748031497
          },
          {
            "duration": 0.1327432500000043,
            "durationTicks": 96,
            "midi": 75,
            "name": "D#5",
            "ticks": 57696,
            "time": 79.77869325,
            "velocity": 0.7874015748031497
          },
          {
            "duration": 0.1327432500000043,
            "durationTicks": 96,
            "midi": 75,
            "name": "D#5",
            "ticks": 57744,
            "time": 79.845064875,
            "velocity": 0.5905511811023622
          },
          {
            "duration": 0.1327432499999901,
            "durationTicks": 96,
            "midi": 76,
            "name": "E5",
            "ticks": 57792,
            "time": 79.91143650000001,
            "velocity": 0.7874015748031497
          },
          {
            "duration": 0.1327432499999901,
            "durationTicks": 96,
            "midi": 76,
            "name": "E5",
            "ticks": 57840,
            "time": 79.97780812500001,
            "velocity": 0.5905511811023622
          },
          {
            "duration": 0.1327432500000043,
            "durationTicks": 96,
            "midi": 83,
            "name": "B5",
            "ticks": 57888,
            "time": 80.04417975,
            "velocity": 0.7874015748031497
          },
          {
            "duration": 0.1327432500000043,
            "durationTicks": 96,
            "midi": 83,
            "name": "B5",
            "ticks": 57936,
            "time": 80.110551375,
            "velocity": 0.5905511811023622
          },
          {
            "duration": 0.1327432500000043,
            "durationTicks": 96,
            "midi": 80,
            "name": "G#5",
            "ticks": 57984,
            "time": 80.176923,
            "velocity": 0.7874015748031497
          },
          {
            "duration": 0.1327432500000043,
            "durationTicks": 96,
            "midi": 80,
            "name": "G#5",
            "ticks": 58032,
            "time": 80.243294625,
            "velocity": 0.5905511811023622
          },
          {
            "duration": 0.1327432500000043,
            "durationTicks": 96,
            "midi": 80,
            "name": "G#5",
            "ticks": 58080,
            "time": 80.30966625,
            "velocity": 0.4881889763779528
          },
          {
            "duration": 0.1327432499999901,
            "durationTicks": 96,
            "midi": 80,
            "name": "G#5",
            "ticks": 58128,
            "time": 80.37603787500001,
            "velocity": 0.4330708661417323
          },
          {
            "duration": 0.1327432500000043,
            "durationTicks": 96,
            "midi": 73,
            "name": "C#5",
            "ticks": 58368,
            "time": 80.707896,
            "velocity": 0.7874015748031497
          },
          {
            "duration": 0.1327432499999901,
            "durationTicks": 96,
            "midi": 73,
            "name": "C#5",
            "ticks": 58416,
            "time": 80.77426762500001,
            "velocity": 0.5905511811023622
          },
          {
            "duration": 0.1327432499999901,
            "durationTicks": 96,
            "midi": 76,
            "name": "E5",
            "ticks": 58464,
            "time": 80.84063925000001,
            "velocity": 0.7874015748031497
          },
          {
            "duration": 0.1327432500000043,
            "durationTicks": 96,
            "midi": 76,
            "name": "E5",
            "ticks": 58512,
            "time": 80.907010875,
            "velocity": 0.5905511811023622
          },
          {
            "duration": 0.1327432500000043,
            "durationTicks": 96,
            "midi": 75,
            "name": "D#5",
            "ticks": 58560,
            "time": 80.9733825,
            "velocity": 0.7874015748031497
          },
          {
            "duration": 0.1327432500000043,
            "durationTicks": 96,
            "midi": 75,
            "name": "D#5",
            "ticks": 58608,
            "time": 81.039754125,
            "velocity": 0.5905511811023622
          },
          {
            "duration": 0.1327432500000043,
            "durationTicks": 96,
            "midi": 76,
            "name": "E5",
            "ticks": 58656,
            "time": 81.10612575,
            "velocity": 0.7874015748031497
          },
          {
            "duration": 0.1327432500000043,
            "durationTicks": 96,
            "midi": 76,
            "name": "E5",
            "ticks": 58704,
            "time": 81.172497375,
            "velocity": 0.5905511811023622
          },
          {
            "duration": 0.1327432499999901,
            "durationTicks": 96,
            "midi": 73,
            "name": "C#5",
            "ticks": 58752,
            "time": 81.23886900000001,
            "velocity": 0.7874015748031497
          },
          {
            "duration": 0.1327432499999901,
            "durationTicks": 96,
            "midi": 73,
            "name": "C#5",
            "ticks": 58800,
            "time": 81.30524062500001,
            "velocity": 0.5905511811023622
          },
          {
            "duration": 0.1327432500000043,
            "durationTicks": 96,
            "midi": 73,
            "name": "C#5",
            "ticks": 58848,
            "time": 81.37161225,
            "velocity": 0.4881889763779528
          },
          {
            "duration": 0.1327432500000043,
            "durationTicks": 96,
            "midi": 73,
            "name": "C#5",
            "ticks": 58896,
            "time": 81.437983875,
            "velocity": 0.4330708661417323
          },
          {
            "duration": 0.2654864999999944,
            "durationTicks": 192,
            "midi": 73,
            "name": "C#5",
            "ticks": 59040,
            "time": 81.63709875,
            "velocity": 0.7874015748031497
          },
          {
            "duration": 0.1327432500000043,
            "durationTicks": 96,
            "midi": 75,
            "name": "D#5",
            "ticks": 59232,
            "time": 81.90258525,
            "velocity": 0.7874015748031497
          },
          {
            "duration": 0.1327432500000043,
            "durationTicks": 96,
            "midi": 75,
            "name": "D#5",
            "ticks": 59280,
            "time": 81.968956875,
            "velocity": 0.5905511811023622
          },
          {
            "duration": 0.1327432500000043,
            "durationTicks": 96,
            "midi": 76,
            "name": "E5",
            "ticks": 59328,
            "time": 82.0353285,
            "velocity": 0.7874015748031497
          },
          {
            "duration": 0.1327432499999901,
            "durationTicks": 96,
            "midi": 76,
            "name": "E5",
            "ticks": 59376,
            "time": 82.10170012500001,
            "velocity": 0.5905511811023622
          },
          {
            "duration": 0.1327432499999901,
            "durationTicks": 96,
            "midi": 83,
            "name": "B5",
            "ticks": 59424,
            "time": 82.16807175000001,
            "velocity": 0.7874015748031497
          },
          {
            "duration": 0.1327432500000043,
            "durationTicks": 96,
            "midi": 83,
            "name": "B5",
            "ticks": 59472,
            "time": 82.234443375,
            "velocity": 0.5905511811023622
          },
          {
            "duration": 0.1327432500000043,
            "durationTicks": 96,
            "midi": 80,
            "name": "G#5",
            "ticks": 59520,
            "time": 82.300815,
            "velocity": 0.7874015748031497
          },
          {
            "duration": 0.1327432500000043,
            "durationTicks": 96,
            "midi": 80,
            "name": "G#5",
            "ticks": 59568,
            "time": 82.367186625,
            "velocity": 0.5905511811023622
          },
          {
            "duration": 0.1327432500000043,
            "durationTicks": 96,
            "midi": 80,
            "name": "G#5",
            "ticks": 59616,
            "time": 82.43355825,
            "velocity": 0.4881889763779528
          },
          {
            "duration": 0.1327432500000043,
            "durationTicks": 96,
            "midi": 80,
            "name": "G#5",
            "ticks": 59664,
            "time": 82.499929875,
            "velocity": 0.4330708661417323
          },
          {
            "duration": 2.123891999999998,
            "durationTicks": 1536,
            "midi": 87,
            "name": "D#6",
            "ticks": 59904,
            "time": 82.831788,
            "velocity": 0.7874015748031497
          },
          {
            "duration": 0.1327432500000043,
            "durationTicks": 96,
            "midi": 73,
            "name": "C#5",
            "ticks": 59904,
            "time": 82.831788,
            "velocity": 0.7874015748031497
          },
          {
            "duration": 0.1327432500000043,
            "durationTicks": 96,
            "midi": 73,
            "name": "C#5",
            "ticks": 59952,
            "time": 82.898159625,
            "velocity": 0.5905511811023622
          },
          {
            "duration": 0.1327432499999901,
            "durationTicks": 96,
            "midi": 76,
            "name": "E5",
            "ticks": 60000,
            "time": 82.96453125000001,
            "velocity": 0.7874015748031497
          },
          {
            "duration": 0.1327432499999901,
            "durationTicks": 96,
            "midi": 76,
            "name": "E5",
            "ticks": 60048,
            "time": 83.03090287500001,
            "velocity": 0.5905511811023622
          },
          {
            "duration": 0.1327432500000043,
            "durationTicks": 96,
            "midi": 75,
            "name": "D#5",
            "ticks": 60096,
            "time": 83.0972745,
            "velocity": 0.7874015748031497
          },
          {
            "duration": 0.1327432500000043,
            "durationTicks": 96,
            "midi": 75,
            "name": "D#5",
            "ticks": 60144,
            "time": 83.163646125,
            "velocity": 0.5905511811023622
          },
          {
            "duration": 0.1327432500000043,
            "durationTicks": 96,
            "midi": 76,
            "name": "E5",
            "ticks": 60192,
            "time": 83.23001775,
            "velocity": 0.7874015748031497
          },
          {
            "duration": 0.1327432500000043,
            "durationTicks": 96,
            "midi": 76,
            "name": "E5",
            "ticks": 60240,
            "time": 83.296389375,
            "velocity": 0.5905511811023622
          },
          {
            "duration": 0.1327432500000043,
            "durationTicks": 96,
            "midi": 73,
            "name": "C#5",
            "ticks": 60288,
            "time": 83.362761,
            "velocity": 0.7874015748031497
          },
          {
            "duration": 0.1327432499999901,
            "durationTicks": 96,
            "midi": 73,
            "name": "C#5",
            "ticks": 60336,
            "time": 83.42913262500001,
            "velocity": 0.5905511811023622
          },
          {
            "duration": 0.1327432499999901,
            "durationTicks": 96,
            "midi": 73,
            "name": "C#5",
            "ticks": 60384,
            "time": 83.49550425000001,
            "velocity": 0.4881889763779528
          },
          {
            "duration": 0.1327432500000043,
            "durationTicks": 96,
            "midi": 73,
            "name": "C#5",
            "ticks": 60432,
            "time": 83.561875875,
            "velocity": 0.4330708661417323
          },
          {
            "duration": 0.2654864999999944,
            "durationTicks": 192,
            "midi": 73,
            "name": "C#5",
            "ticks": 60576,
            "time": 83.76099075,
            "velocity": 0.7874015748031497
          },
          {
            "duration": 0.1327432500000043,
            "durationTicks": 96,
            "midi": 75,
            "name": "D#5",
            "ticks": 60768,
            "time": 84.02647725,
            "velocity": 0.7874015748031497
          },
          {
            "duration": 0.1327432500000043,
            "durationTicks": 96,
            "midi": 75,
            "name": "D#5",
            "ticks": 60816,
            "time": 84.092848875,
            "velocity": 0.5905511811023622
          },
          {
            "duration": 0.1327432500000043,
            "durationTicks": 96,
            "midi": 76,
            "name": "E5",
            "ticks": 60864,
            "time": 84.1592205,
            "velocity": 0.7874015748031497
          },
          {
            "duration": 0.1327432500000043,
            "durationTicks": 96,
            "midi": 76,
            "name": "E5",
            "ticks": 60912,
            "time": 84.225592125,
            "velocity": 0.5905511811023622
          },
          {
            "duration": 0.1327432499999901,
            "durationTicks": 96,
            "midi": 83,
            "name": "B5",
            "ticks": 60960,
            "time": 84.29196375000001,
            "velocity": 0.7874015748031497
          },
          {
            "duration": 0.1327432499999901,
            "durationTicks": 96,
            "midi": 83,
            "name": "B5",
            "ticks": 61008,
            "time": 84.35833537500001,
            "velocity": 0.5905511811023622
          },
          {
            "duration": 0.1327432500000043,
            "durationTicks": 96,
            "midi": 80,
            "name": "G#5",
            "ticks": 61056,
            "time": 84.424707,
            "velocity": 0.7874015748031497
          },
          {
            "duration": 0.1327432500000043,
            "durationTicks": 96,
            "midi": 80,
            "name": "G#5",
            "ticks": 61104,
            "time": 84.491078625,
            "velocity": 0.5905511811023622
          },
          {
            "duration": 0.1327432500000043,
            "durationTicks": 96,
            "midi": 80,
            "name": "G#5",
            "ticks": 61152,
            "time": 84.55745025,
            "velocity": 0.4881889763779528
          },
          {
            "duration": 0.1327432500000043,
            "durationTicks": 96,
            "midi": 80,
            "name": "G#5",
            "ticks": 61200,
            "time": 84.623821875,
            "velocity": 0.4330708661417323
          },
          {
            "duration": 2.123891999999998,
            "durationTicks": 1536,
            "midi": 90,
            "name": "F#6",
            "ticks": 61440,
            "time": 84.95568,
            "velocity": 0.7874015748031497
          },
          {
            "duration": 0.3982297499999987,
            "durationTicks": 288,
            "midi": 73,
            "name": "C#5",
            "ticks": 61440,
            "time": 84.95568,
            "velocity": 0.7874015748031497
          },
          {
            "duration": 0.3982297499999987,
            "durationTicks": 288,
            "midi": 78,
            "name": "F#5",
            "ticks": 61728,
            "time": 85.35390975,
            "velocity": 0.7874015748031497
          },
          {
            "duration": 0.1327432500000043,
            "durationTicks": 96,
            "midi": 76,
            "name": "E5",
            "ticks": 62016,
            "time": 85.7521395,
            "velocity": 0.7874015748031497
          },
          {
            "duration": 0.1327432500000043,
            "durationTicks": 96,
            "midi": 76,
            "name": "E5",
            "ticks": 62112,
            "time": 85.88488275,
            "velocity": 0.5905511811023622
          },
          {
            "duration": 0.1327432500000043,
            "durationTicks": 96,
            "midi": 75,
            "name": "D#5",
            "ticks": 62160,
            "time": 85.951254375,
            "velocity": 0.7874015748031497
          },
          {
            "duration": 0.1327432500000043,
            "durationTicks": 96,
            "midi": 75,
            "name": "D#5",
            "ticks": 62208,
            "time": 86.017626,
            "velocity": 0.7874015748031497
          },
          {
            "duration": 0.1327432499999901,
            "durationTicks": 96,
            "midi": 73,
            "name": "C#5",
            "ticks": 62304,
            "time": 86.15036925000001,
            "velocity": 0.7874015748031497
          },
          {
            "duration": 0.1327432500000043,
            "durationTicks": 96,
            "midi": 73,
            "name": "C#5",
            "ticks": 62400,
            "time": 86.2831125,
            "velocity": 0.5905511811023622
          },
          {
            "duration": 0.2654864999999944,
            "durationTicks": 192,
            "midi": 73,
            "name": "C#5",
            "ticks": 62496,
            "time": 86.41585575,
            "velocity": 0.7874015748031497
          },
          {
            "duration": 0.1327432500000043,
            "durationTicks": 96,
            "midi": 73,
            "name": "C#5",
            "ticks": 62688,
            "time": 86.68134225,
            "velocity": 0.7874015748031497
          },
          {
            "duration": 0.1327432500000043,
            "durationTicks": 96,
            "midi": 75,
            "name": "D#5",
            "ticks": 62736,
            "time": 86.747713875,
            "velocity": 0.7874015748031497
          },
          {
            "duration": 0.2654864999999944,
            "durationTicks": 192,
            "midi": 75,
            "name": "D#5",
            "ticks": 62784,
            "time": 86.8140855,
            "velocity": 0.7874015748031497
          },
          {
            "duration": 4.24778400000001,
            "durationTicks": 3072,
            "midi": 85,
            "name": "C#6",
            "ticks": 62976,
            "time": 87.079572,
            "velocity": 0.7874015748031497
          },
          {
            "duration": 0.1327432500000043,
            "durationTicks": 96,
            "midi": 73,
            "name": "C#5",
            "ticks": 62976,
            "time": 87.079572,
            "velocity": 0.7874015748031497
          },
          {
            "duration": 0.1327432500000043,
            "durationTicks": 96,
            "midi": 73,
            "name": "C#5",
            "ticks": 63024,
            "time": 87.145943625,
            "velocity": 0.5905511811023622
          },
          {
            "duration": 0.1327432500000043,
            "durationTicks": 96,
            "midi": 76,
            "name": "E5",
            "ticks": 63072,
            "time": 87.21231525,
            "velocity": 0.7874015748031497
          },
          {
            "duration": 0.1327432500000043,
            "durationTicks": 96,
            "midi": 76,
            "name": "E5",
            "ticks": 63120,
            "time": 87.278686875,
            "velocity": 0.5905511811023622
          },
          {
            "duration": 0.1327432499999901,
            "durationTicks": 96,
            "midi": 75,
            "name": "D#5",
            "ticks": 63168,
            "time": 87.34505850000001,
            "velocity": 0.7874015748031497
          },
          {
            "duration": 0.1327432499999901,
            "durationTicks": 96,
            "midi": 75,
            "name": "D#5",
            "ticks": 63216,
            "time": 87.41143012500001,
            "velocity": 0.5905511811023622
          },
          {
            "duration": 0.1327432500000043,
            "durationTicks": 96,
            "midi": 76,
            "name": "E5",
            "ticks": 63264,
            "time": 87.47780175,
            "velocity": 0.7874015748031497
          },
          {
            "duration": 0.1327432500000043,
            "durationTicks": 96,
            "midi": 76,
            "name": "E5",
            "ticks": 63312,
            "time": 87.544173375,
            "velocity": 0.5905511811023622
          },
          {
            "duration": 0.1327432500000043,
            "durationTicks": 96,
            "midi": 73,
            "name": "C#5",
            "ticks": 63360,
            "time": 87.610545,
            "velocity": 0.7874015748031497
          },
          {
            "duration": 0.1327432500000043,
            "durationTicks": 96,
            "midi": 73,
            "name": "C#5",
            "ticks": 63408,
            "time": 87.676916625,
            "velocity": 0.5905511811023622
          },
          {
            "duration": 0.1327432500000043,
            "durationTicks": 96,
            "midi": 73,
            "name": "C#5",
            "ticks": 63456,
            "time": 87.74328825,
            "velocity": 0.4881889763779528
          },
          {
            "duration": 0.1327432499999901,
            "durationTicks": 96,
            "midi": 73,
            "name": "C#5",
            "ticks": 63504,
            "time": 87.80965987500001,
            "velocity": 0.4330708661417323
          },
          {
            "duration": 0.2654865000000086,
            "durationTicks": 192,
            "midi": 73,
            "name": "C#5",
            "ticks": 63648,
            "time": 88.00877475,
            "velocity": 0.7874015748031497
          },
          {
            "duration": 0.1327432499999901,
            "durationTicks": 96,
            "midi": 75,
            "name": "D#5",
            "ticks": 63840,
            "time": 88.27426125000001,
            "velocity": 0.7874015748031497
          },
          {
            "duration": 0.1327432499999901,
            "durationTicks": 96,
            "midi": 75,
            "name": "D#5",
            "ticks": 63888,
            "time": 88.34063287500001,
            "velocity": 0.5905511811023622
          },
          {
            "duration": 0.1327432500000043,
            "durationTicks": 96,
            "midi": 76,
            "name": "E5",
            "ticks": 63936,
            "time": 88.4070045,
            "velocity": 0.7874015748031497
          },
          {
            "duration": 0.1327432500000043,
            "durationTicks": 96,
            "midi": 76,
            "name": "E5",
            "ticks": 63984,
            "time": 88.473376125,
            "velocity": 0.5905511811023622
          },
          {
            "duration": 0.1327432500000043,
            "durationTicks": 96,
            "midi": 83,
            "name": "B5",
            "ticks": 64032,
            "time": 88.53974775,
            "velocity": 0.7874015748031497
          },
          {
            "duration": 0.1327432500000043,
            "durationTicks": 96,
            "midi": 83,
            "name": "B5",
            "ticks": 64080,
            "time": 88.606119375,
            "velocity": 0.5905511811023622
          },
          {
            "duration": 0.1327432499999901,
            "durationTicks": 96,
            "midi": 80,
            "name": "G#5",
            "ticks": 64128,
            "time": 88.67249100000001,
            "velocity": 0.7874015748031497
          },
          {
            "duration": 0.1327432499999901,
            "durationTicks": 96,
            "midi": 80,
            "name": "G#5",
            "ticks": 64176,
            "time": 88.73886262500001,
            "velocity": 0.5905511811023622
          },
          {
            "duration": 0.1327432500000043,
            "durationTicks": 96,
            "midi": 80,
            "name": "G#5",
            "ticks": 64224,
            "time": 88.80523425,
            "velocity": 0.4881889763779528
          },
          {
            "duration": 0.1327432500000043,
            "durationTicks": 96,
            "midi": 80,
            "name": "G#5",
            "ticks": 64272,
            "time": 88.871605875,
            "velocity": 0.4330708661417323
          },
          {
            "duration": 0.1327432499999901,
            "durationTicks": 96,
            "midi": 73,
            "name": "C#5",
            "ticks": 64512,
            "time": 89.20346400000001,
            "velocity": 0.7874015748031497
          },
          {
            "duration": 0.1327432500000043,
            "durationTicks": 96,
            "midi": 73,
            "name": "C#5",
            "ticks": 64560,
            "time": 89.269835625,
            "velocity": 0.5905511811023622
          },
          {
            "duration": 0.1327432500000043,
            "durationTicks": 96,
            "midi": 76,
            "name": "E5",
            "ticks": 64608,
            "time": 89.33620725,
            "velocity": 0.7874015748031497
          },
          {
            "duration": 0.1327432500000043,
            "durationTicks": 96,
            "midi": 76,
            "name": "E5",
            "ticks": 64656,
            "time": 89.402578875,
            "velocity": 0.5905511811023622
          },
          {
            "duration": 0.1327432500000043,
            "durationTicks": 96,
            "midi": 75,
            "name": "D#5",
            "ticks": 64704,
            "time": 89.4689505,
            "velocity": 0.7874015748031497
          },
          {
            "duration": 0.1327432500000043,
            "durationTicks": 96,
            "midi": 75,
            "name": "D#5",
            "ticks": 64752,
            "time": 89.53532212500001,
            "velocity": 0.5905511811023622
          },
          {
            "duration": 0.1327432499999901,
            "durationTicks": 96,
            "midi": 76,
            "name": "E5",
            "ticks": 64800,
            "time": 89.60169375000001,
            "velocity": 0.7874015748031497
          },
          {
            "duration": 0.1327432499999901,
            "durationTicks": 96,
            "midi": 76,
            "name": "E5",
            "ticks": 64848,
            "time": 89.66806537500001,
            "velocity": 0.5905511811023622
          },
          {
            "duration": 0.1327432500000043,
            "durationTicks": 96,
            "midi": 73,
            "name": "C#5",
            "ticks": 64896,
            "time": 89.734437,
            "velocity": 0.7874015748031497
          },
          {
            "duration": 0.1327432500000043,
            "durationTicks": 96,
            "midi": 73,
            "name": "C#5",
            "ticks": 64944,
            "time": 89.800808625,
            "velocity": 0.5905511811023622
          },
          {
            "duration": 0.1327432500000043,
            "durationTicks": 96,
            "midi": 73,
            "name": "C#5",
            "ticks": 64992,
            "time": 89.86718025,
            "velocity": 0.4881889763779528
          },
          {
            "duration": 0.1327432500000043,
            "durationTicks": 96,
            "midi": 73,
            "name": "C#5",
            "ticks": 65040,
            "time": 89.933551875,
            "velocity": 0.4330708661417323
          },
          {
            "duration": 0.2654865000000086,
            "durationTicks": 192,
            "midi": 73,
            "name": "C#5",
            "ticks": 65184,
            "time": 90.13266675,
            "velocity": 0.7874015748031497
          },
          {
            "duration": 0.1327432500000043,
            "durationTicks": 96,
            "midi": 75,
            "name": "D#5",
            "ticks": 65376,
            "time": 90.39815325000001,
            "velocity": 0.7874015748031497
          },
          {
            "duration": 0.1327432499999901,
            "durationTicks": 96,
            "midi": 75,
            "name": "D#5",
            "ticks": 65424,
            "time": 90.46452487500001,
            "velocity": 0.5905511811023622
          },
          {
            "duration": 0.1327432499999901,
            "durationTicks": 96,
            "midi": 76,
            "name": "E5",
            "ticks": 65472,
            "time": 90.53089650000001,
            "velocity": 0.7874015748031497
          },
          {
            "duration": 0.1327432500000043,
            "durationTicks": 96,
            "midi": 76,
            "name": "E5",
            "ticks": 65520,
            "time": 90.597268125,
            "velocity": 0.5905511811023622
          },
          {
            "duration": 0.1327432500000043,
            "durationTicks": 96,
            "midi": 83,
            "name": "B5",
            "ticks": 65568,
            "time": 90.66363975,
            "velocity": 0.7874015748031497
          },
          {
            "duration": 0.1327432500000043,
            "durationTicks": 96,
            "midi": 83,
            "name": "B5",
            "ticks": 65616,
            "time": 90.730011375,
            "velocity": 0.5905511811023622
          },
          {
            "duration": 0.1327432500000043,
            "durationTicks": 96,
            "midi": 80,
            "name": "G#5",
            "ticks": 65664,
            "time": 90.796383,
            "velocity": 0.7874015748031497
          },
          {
            "duration": 0.1327432499999901,
            "durationTicks": 96,
            "midi": 80,
            "name": "G#5",
            "ticks": 65712,
            "time": 90.86275462500001,
            "velocity": 0.5905511811023622
          },
          {
            "duration": 0.1327432499999901,
            "durationTicks": 96,
            "midi": 80,
            "name": "G#5",
            "ticks": 65760,
            "time": 90.92912625000001,
            "velocity": 0.4881889763779528
          },
          {
            "duration": 0.1327432500000043,
            "durationTicks": 96,
            "midi": 80,
            "name": "G#5",
            "ticks": 65808,
            "time": 90.995497875,
            "velocity": 0.4330708661417323
          },
          {
            "duration": 2.123891999999998,
            "durationTicks": 1536,
            "midi": 87,
            "name": "D#6",
            "ticks": 66048,
            "time": 91.32735600000001,
            "velocity": 0.7874015748031497
          },
          {
            "duration": 0.1327432499999901,
            "durationTicks": 96,
            "midi": 73,
            "name": "C#5",
            "ticks": 66048,
            "time": 91.32735600000001,
            "velocity": 0.7874015748031497
          },
          {
            "duration": 0.1327432499999901,
            "durationTicks": 96,
            "midi": 73,
            "name": "C#5",
            "ticks": 66096,
            "time": 91.39372762500001,
            "velocity": 0.5905511811023622
          },
          {
            "duration": 0.1327432500000043,
            "durationTicks": 96,
            "midi": 76,
            "name": "E5",
            "ticks": 66144,
            "time": 91.46009925,
            "velocity": 0.7874015748031497
          },
          {
            "duration": 0.1327432500000043,
            "durationTicks": 96,
            "midi": 76,
            "name": "E5",
            "ticks": 66192,
            "time": 91.526470875,
            "velocity": 0.5905511811023622
          },
          {
            "duration": 0.1327432500000043,
            "durationTicks": 96,
            "midi": 75,
            "name": "D#5",
            "ticks": 66240,
            "time": 91.5928425,
            "velocity": 0.7874015748031497
          },
          {
            "duration": 0.1327432500000043,
            "durationTicks": 96,
            "midi": 75,
            "name": "D#5",
            "ticks": 66288,
            "time": 91.659214125,
            "velocity": 0.5905511811023622
          },
          {
            "duration": 0.1327432500000043,
            "durationTicks": 96,
            "midi": 76,
            "name": "E5",
            "ticks": 66336,
            "time": 91.72558575000001,
            "velocity": 0.7874015748031497
          },
          {
            "duration": 0.1327432499999901,
            "durationTicks": 96,
            "midi": 76,
            "name": "E5",
            "ticks": 66384,
            "time": 91.79195737500001,
            "velocity": 0.5905511811023622
          },
          {
            "duration": 0.1327432499999901,
            "durationTicks": 96,
            "midi": 73,
            "name": "C#5",
            "ticks": 66432,
            "time": 91.85832900000001,
            "velocity": 0.7874015748031497
          },
          {
            "duration": 0.1327432500000043,
            "durationTicks": 96,
            "midi": 73,
            "name": "C#5",
            "ticks": 66480,
            "time": 91.924700625,
            "velocity": 0.5905511811023622
          },
          {
            "duration": 0.1327432500000043,
            "durationTicks": 96,
            "midi": 73,
            "name": "C#5",
            "ticks": 66528,
            "time": 91.99107225,
            "velocity": 0.4881889763779528
          },
          {
            "duration": 0.1327432500000043,
            "durationTicks": 96,
            "midi": 73,
            "name": "C#5",
            "ticks": 66576,
            "time": 92.057443875,
            "velocity": 0.4330708661417323
          },
          {
            "duration": 0.2654864999999944,
            "durationTicks": 192,
            "midi": 73,
            "name": "C#5",
            "ticks": 66720,
            "time": 92.25655875000001,
            "velocity": 0.7874015748031497
          },
          {
            "duration": 0.1327432500000043,
            "durationTicks": 96,
            "midi": 75,
            "name": "D#5",
            "ticks": 66912,
            "time": 92.52204525,
            "velocity": 0.7874015748031497
          },
          {
            "duration": 0.1327432500000043,
            "durationTicks": 96,
            "midi": 75,
            "name": "D#5",
            "ticks": 66960,
            "time": 92.58841687500001,
            "velocity": 0.5905511811023622
          },
          {
            "duration": 0.1327432499999901,
            "durationTicks": 96,
            "midi": 76,
            "name": "E5",
            "ticks": 67008,
            "time": 92.65478850000001,
            "velocity": 0.7874015748031497
          },
          {
            "duration": 0.1327432499999901,
            "durationTicks": 96,
            "midi": 76,
            "name": "E5",
            "ticks": 67056,
            "time": 92.72116012500001,
            "velocity": 0.5905511811023622
          },
          {
            "duration": 0.1327432500000043,
            "durationTicks": 96,
            "midi": 83,
            "name": "B5",
            "ticks": 67104,
            "time": 92.78753175,
            "velocity": 0.7874015748031497
          },
          {
            "duration": 0.1327432500000043,
            "durationTicks": 96,
            "midi": 83,
            "name": "B5",
            "ticks": 67152,
            "time": 92.853903375,
            "velocity": 0.5905511811023622
          },
          {
            "duration": 0.1327432500000043,
            "durationTicks": 96,
            "midi": 80,
            "name": "G#5",
            "ticks": 67200,
            "time": 92.920275,
            "velocity": 0.7874015748031497
          },
          {
            "duration": 0.1327432500000043,
            "durationTicks": 96,
            "midi": 80,
            "name": "G#5",
            "ticks": 67248,
            "time": 92.986646625,
            "velocity": 0.5905511811023622
          },
          {
            "duration": 0.1327432499999901,
            "durationTicks": 96,
            "midi": 80,
            "name": "G#5",
            "ticks": 67296,
            "time": 93.05301825000001,
            "velocity": 0.4881889763779528
          },
          {
            "duration": 0.1327432499999901,
            "durationTicks": 96,
            "midi": 80,
            "name": "G#5",
            "ticks": 67344,
            "time": 93.11938987500001,
            "velocity": 0.4330708661417323
          },
          {
            "duration": 0.3982297499999987,
            "durationTicks": 288,
            "midi": 71,
            "name": "B4",
            "ticks": 67584,
            "time": 93.451248,
            "velocity": 0.7874015748031497
          },
          {
            "duration": 2.123891999999998,
            "durationTicks": 1536,
            "midi": 90,
            "name": "F#6",
            "ticks": 67584,
            "time": 93.451248,
            "velocity": 0.7874015748031497
          },
          {
            "duration": 0.3982297499999987,
            "durationTicks": 288,
            "midi": 78,
            "name": "F#5",
            "ticks": 67872,
            "time": 93.84947775,
            "velocity": 0.7874015748031497
          },
          {
            "duration": 0.1327432500000043,
            "durationTicks": 96,
            "midi": 76,
            "name": "E5",
            "ticks": 68160,
            "time": 94.2477075,
            "velocity": 0.7874015748031497
          },
          {
            "duration": 0.1327432499999901,
            "durationTicks": 96,
            "midi": 76,
            "name": "E5",
            "ticks": 68256,
            "time": 94.38045075000001,
            "velocity": 0.5905511811023622
          },
          {
            "duration": 0.1327432499999901,
            "durationTicks": 96,
            "midi": 75,
            "name": "D#5",
            "ticks": 68304,
            "time": 94.44682237500001,
            "velocity": 0.7874015748031497
          },
          {
            "duration": 0.1327432500000043,
            "durationTicks": 96,
            "midi": 75,
            "name": "D#5",
            "ticks": 68352,
            "time": 94.513194,
            "velocity": 0.7874015748031497
          },
          {
            "duration": 0.1327432500000043,
            "durationTicks": 96,
            "midi": 73,
            "name": "C#5",
            "ticks": 68448,
            "time": 94.64593725,
            "velocity": 0.7874015748031497
          },
          {
            "duration": 0.1327432500000043,
            "durationTicks": 96,
            "midi": 73,
            "name": "C#5",
            "ticks": 68544,
            "time": 94.77868050000001,
            "velocity": 0.5905511811023622
          },
          {
            "duration": 0.2654864999999944,
            "durationTicks": 192,
            "midi": 71,
            "name": "B4",
            "ticks": 68640,
            "time": 94.91142375000001,
            "velocity": 0.7874015748031497
          },
          {
            "duration": 0.1327432500000043,
            "durationTicks": 96,
            "midi": 73,
            "name": "C#5",
            "ticks": 68832,
            "time": 95.17691025,
            "velocity": 0.7874015748031497
          },
          {
            "duration": 0.1327432499999901,
            "durationTicks": 96,
            "midi": 75,
            "name": "D#5",
            "ticks": 68880,
            "time": 95.24328187500001,
            "velocity": 0.7874015748031497
          },
          {
            "duration": 0.2654864999999944,
            "durationTicks": 192,
            "midi": 75,
            "name": "D#5",
            "ticks": 68928,
            "time": 95.30965350000001,
            "velocity": 0.7874015748031497
          },
          {
            "duration": 4.247783999999996,
            "durationTicks": 3072,
            "midi": 85,
            "name": "C#6",
            "ticks": 69120,
            "time": 95.57514,
            "velocity": 0.7874015748031497
          },
          {
            "duration": 0.1327432500000043,
            "durationTicks": 96,
            "midi": 73,
            "name": "C#5",
            "ticks": 69120,
            "time": 95.57514,
            "velocity": 0.7874015748031497
          },
          {
            "duration": 0.1327432500000043,
            "durationTicks": 96,
            "midi": 73,
            "name": "C#5",
            "ticks": 69168,
            "time": 95.641511625,
            "velocity": 0.5905511811023622
          },
          {
            "duration": 0.1327432499999901,
            "durationTicks": 96,
            "midi": 76,
            "name": "E5",
            "ticks": 69216,
            "time": 95.70788325000001,
            "velocity": 0.7874015748031497
          },
          {
            "duration": 0.1327432499999901,
            "durationTicks": 96,
            "midi": 76,
            "name": "E5",
            "ticks": 69264,
            "time": 95.77425487500001,
            "velocity": 0.5905511811023622
          },
          {
            "duration": 0.1327432500000043,
            "durationTicks": 96,
            "midi": 75,
            "name": "D#5",
            "ticks": 69312,
            "time": 95.8406265,
            "velocity": 0.7874015748031497
          },
          {
            "duration": 0.1327432500000043,
            "durationTicks": 96,
            "midi": 75,
            "name": "D#5",
            "ticks": 69360,
            "time": 95.906998125,
            "velocity": 0.5905511811023622
          },
          {
            "duration": 0.1327432500000043,
            "durationTicks": 96,
            "midi": 76,
            "name": "E5",
            "ticks": 69408,
            "time": 95.97336975,
            "velocity": 0.7874015748031497
          },
          {
            "duration": 0.1327432500000043,
            "durationTicks": 96,
            "midi": 76,
            "name": "E5",
            "ticks": 69456,
            "time": 96.039741375,
            "velocity": 0.5905511811023622
          },
          {
            "duration": 0.1327432500000043,
            "durationTicks": 96,
            "midi": 73,
            "name": "C#5",
            "ticks": 69504,
            "time": 96.10611300000001,
            "velocity": 0.7874015748031497
          },
          {
            "duration": 0.1327432499999901,
            "durationTicks": 96,
            "midi": 73,
            "name": "C#5",
            "ticks": 69552,
            "time": 96.17248462500001,
            "velocity": 0.5905511811023622
          },
          {
            "duration": 0.1327432499999901,
            "durationTicks": 96,
            "midi": 73,
            "name": "C#5",
            "ticks": 69600,
            "time": 96.23885625000001,
            "velocity": 0.4881889763779528
          },
          {
            "duration": 0.1327432500000043,
            "durationTicks": 96,
            "midi": 73,
            "name": "C#5",
            "ticks": 69648,
            "time": 96.305227875,
            "velocity": 0.4330708661417323
          },
          {
            "duration": 0.2654864999999944,
            "durationTicks": 192,
            "midi": 73,
            "name": "C#5",
            "ticks": 69792,
            "time": 96.50434275,
            "velocity": 0.7874015748031497
          },
          {
            "duration": 0.1327432500000043,
            "durationTicks": 96,
            "midi": 75,
            "name": "D#5",
            "ticks": 69984,
            "time": 96.76982925,
            "velocity": 0.7874015748031497
          },
          {
            "duration": 0.1327432500000043,
            "durationTicks": 96,
            "midi": 75,
            "name": "D#5",
            "ticks": 70032,
            "time": 96.836200875,
            "velocity": 0.5905511811023622
          },
          {
            "duration": 0.1327432500000043,
            "durationTicks": 96,
            "midi": 76,
            "name": "E5",
            "ticks": 70080,
            "time": 96.9025725,
            "velocity": 0.7874015748031497
          },
          {
            "duration": 0.1327432500000043,
            "durationTicks": 96,
            "midi": 76,
            "name": "E5",
            "ticks": 70128,
            "time": 96.96894412500001,
            "velocity": 0.5905511811023622
          },
          {
            "duration": 0.1327432499999901,
            "durationTicks": 96,
            "midi": 83,
            "name": "B5",
            "ticks": 70176,
            "time": 97.03531575000001,
            "velocity": 0.7874015748031497
          },
          {
            "duration": 0.1327432499999901,
            "durationTicks": 96,
            "midi": 83,
            "name": "B5",
            "ticks": 70224,
            "time": 97.10168737500001,
            "velocity": 0.5905511811023622
          },
          {
            "duration": 0.1327432500000043,
            "durationTicks": 96,
            "midi": 80,
            "name": "G#5",
            "ticks": 70272,
            "time": 97.168059,
            "velocity": 0.7874015748031497
          },
          {
            "duration": 0.1327432500000043,
            "durationTicks": 96,
            "midi": 80,
            "name": "G#5",
            "ticks": 70320,
            "time": 97.234430625,
            "velocity": 0.5905511811023622
          },
          {
            "duration": 0.1327432500000043,
            "durationTicks": 96,
            "midi": 80,
            "name": "G#5",
            "ticks": 70368,
            "time": 97.30080225,
            "velocity": 0.4881889763779528
          },
          {
            "duration": 0.1327432500000043,
            "durationTicks": 96,
            "midi": 80,
            "name": "G#5",
            "ticks": 70416,
            "time": 97.367173875,
            "velocity": 0.4330708661417323
          },
          {
            "duration": 0.1327432500000043,
            "durationTicks": 96,
            "midi": 73,
            "name": "C#5",
            "ticks": 70656,
            "time": 97.699032,
            "velocity": 0.7874015748031497
          },
          {
            "duration": 0.1327432500000043,
            "durationTicks": 96,
            "midi": 73,
            "name": "C#5",
            "ticks": 70704,
            "time": 97.765403625,
            "velocity": 0.5905511811023622
          },
          {
            "duration": 0.1327432500000043,
            "durationTicks": 96,
            "midi": 76,
            "name": "E5",
            "ticks": 70752,
            "time": 97.83177525,
            "velocity": 0.7874015748031497
          },
          {
            "duration": 0.1327432499999901,
            "durationTicks": 96,
            "midi": 76,
            "name": "E5",
            "ticks": 70800,
            "time": 97.89814687500001,
            "velocity": 0.5905511811023622
          },
          {
            "duration": 0.1327432499999901,
            "durationTicks": 96,
            "midi": 75,
            "name": "D#5",
            "ticks": 70848,
            "time": 97.96451850000001,
            "velocity": 0.7874015748031497
          },
          {
            "duration": 0.1327432500000043,
            "durationTicks": 96,
            "midi": 75,
            "name": "D#5",
            "ticks": 70896,
            "time": 98.030890125,
            "velocity": 0.5905511811023622
          },
          {
            "duration": 0.1327432500000043,
            "durationTicks": 96,
            "midi": 76,
            "name": "E5",
            "ticks": 70944,
            "time": 98.09726175,
            "velocity": 0.7874015748031497
          },
          {
            "duration": 0.1327432500000043,
            "durationTicks": 96,
            "midi": 76,
            "name": "E5",
            "ticks": 70992,
            "time": 98.163633375,
            "velocity": 0.5905511811023622
          },
          {
            "duration": 0.1327432500000043,
            "durationTicks": 96,
            "midi": 73,
            "name": "C#5",
            "ticks": 71040,
            "time": 98.230005,
            "velocity": 0.7874015748031497
          },
          {
            "duration": 0.1327432500000043,
            "durationTicks": 96,
            "midi": 73,
            "name": "C#5",
            "ticks": 71088,
            "time": 98.29637662500001,
            "velocity": 0.5905511811023622
          },
          {
            "duration": 0.1327432499999901,
            "durationTicks": 96,
            "midi": 73,
            "name": "C#5",
            "ticks": 71136,
            "time": 98.36274825000001,
            "velocity": 0.4881889763779528
          },
          {
            "duration": 0.1327432499999901,
            "durationTicks": 96,
            "midi": 73,
            "name": "C#5",
            "ticks": 71184,
            "time": 98.42911987500001,
            "velocity": 0.4330708661417323
          },
          {
            "duration": 0.2654864999999944,
            "durationTicks": 192,
            "midi": 73,
            "name": "C#5",
            "ticks": 71328,
            "time": 98.62823475,
            "velocity": 0.7874015748031497
          },
          {
            "duration": 0.1327432500000043,
            "durationTicks": 96,
            "midi": 75,
            "name": "D#5",
            "ticks": 71520,
            "time": 98.89372125,
            "velocity": 0.7874015748031497
          },
          {
            "duration": 0.1327432500000043,
            "durationTicks": 96,
            "midi": 75,
            "name": "D#5",
            "ticks": 71568,
            "time": 98.960092875,
            "velocity": 0.5905511811023622
          },
          {
            "duration": 0.1327432500000043,
            "durationTicks": 96,
            "midi": 76,
            "name": "E5",
            "ticks": 71616,
            "time": 99.0264645,
            "velocity": 0.7874015748031497
          },
          {
            "duration": 0.1327432500000043,
            "durationTicks": 96,
            "midi": 76,
            "name": "E5",
            "ticks": 71664,
            "time": 99.092836125,
            "velocity": 0.5905511811023622
          },
          {
            "duration": 0.1327432500000043,
            "durationTicks": 96,
            "midi": 83,
            "name": "B5",
            "ticks": 71712,
            "time": 99.15920775000001,
            "velocity": 0.7874015748031497
          },
          {
            "duration": 0.1327432499999901,
            "durationTicks": 96,
            "midi": 83,
            "name": "B5",
            "ticks": 71760,
            "time": 99.22557937500001,
            "velocity": 0.5905511811023622
          },
          {
            "duration": 0.1327432499999901,
            "durationTicks": 96,
            "midi": 80,
            "name": "G#5",
            "ticks": 71808,
            "time": 99.29195100000001,
            "velocity": 0.7874015748031497
          },
          {
            "duration": 0.1327432500000043,
            "durationTicks": 96,
            "midi": 80,
            "name": "G#5",
            "ticks": 71856,
            "time": 99.358322625,
            "velocity": 0.5905511811023622
          },
          {
            "duration": 0.1327432500000043,
            "durationTicks": 96,
            "midi": 80,
            "name": "G#5",
            "ticks": 71904,
            "time": 99.42469425,
            "velocity": 0.4881889763779528
          },
          {
            "duration": 0.1327432500000043,
            "durationTicks": 96,
            "midi": 80,
            "name": "G#5",
            "ticks": 71952,
            "time": 99.491065875,
            "velocity": 0.4330708661417323
          },
          {
            "duration": 2.123892000000012,
            "durationTicks": 1536,
            "midi": 87,
            "name": "D#6",
            "ticks": 72192,
            "time": 99.822924,
            "velocity": 0.7874015748031497
          },
          {
            "duration": 0.1327432500000043,
            "durationTicks": 96,
            "midi": 73,
            "name": "C#5",
            "ticks": 72192,
            "time": 99.822924,
            "velocity": 0.7874015748031497
          },
          {
            "duration": 0.1327432500000043,
            "durationTicks": 96,
            "midi": 73,
            "name": "C#5",
            "ticks": 72240,
            "time": 99.889295625,
            "velocity": 0.5905511811023622
          },
          {
            "duration": 0.1327432500000043,
            "durationTicks": 96,
            "midi": 76,
            "name": "E5",
            "ticks": 72288,
            "time": 99.95566725,
            "velocity": 0.7874015748031497
          },
          {
            "duration": 0.1327432500000043,
            "durationTicks": 96,
            "midi": 76,
            "name": "E5",
            "ticks": 72336,
            "time": 100.022038875,
            "velocity": 0.5905511811023622
          },
          {
            "duration": 0.1327432499999901,
            "durationTicks": 96,
            "midi": 75,
            "name": "D#5",
            "ticks": 72384,
            "time": 100.08841050000001,
            "velocity": 0.7874015748031497
          },
          {
            "duration": 0.1327432499999901,
            "durationTicks": 96,
            "midi": 75,
            "name": "D#5",
            "ticks": 72432,
            "time": 100.15478212500001,
            "velocity": 0.5905511811023622
          },
          {
            "duration": 0.1327432500000043,
            "durationTicks": 96,
            "midi": 76,
            "name": "E5",
            "ticks": 72480,
            "time": 100.22115375,
            "velocity": 0.7874015748031497
          },
          {
            "duration": 0.1327432500000043,
            "durationTicks": 96,
            "midi": 76,
            "name": "E5",
            "ticks": 72528,
            "time": 100.287525375,
            "velocity": 0.5905511811023622
          },
          {
            "duration": 0.1327432500000043,
            "durationTicks": 96,
            "midi": 73,
            "name": "C#5",
            "ticks": 72576,
            "time": 100.353897,
            "velocity": 0.7874015748031497
          },
          {
            "duration": 0.1327432500000043,
            "durationTicks": 96,
            "midi": 73,
            "name": "C#5",
            "ticks": 72624,
            "time": 100.420268625,
            "velocity": 0.5905511811023622
          },
          {
            "duration": 0.1327432500000043,
            "durationTicks": 96,
            "midi": 73,
            "name": "C#5",
            "ticks": 72672,
            "time": 100.48664025000001,
            "velocity": 0.4881889763779528
          },
          {
            "duration": 0.1327432499999901,
            "durationTicks": 96,
            "midi": 73,
            "name": "C#5",
            "ticks": 72720,
            "time": 100.55301187500001,
            "velocity": 0.4330708661417323
          },
          {
            "duration": 0.2654865000000086,
            "durationTicks": 192,
            "midi": 73,
            "name": "C#5",
            "ticks": 72864,
            "time": 100.75212675,
            "velocity": 0.7874015748031497
          },
          {
            "duration": 0.1327432499999901,
            "durationTicks": 96,
            "midi": 75,
            "name": "D#5",
            "ticks": 73056,
            "time": 101.01761325000001,
            "velocity": 0.7874015748031497
          },
          {
            "duration": 0.1327432500000043,
            "durationTicks": 96,
            "midi": 75,
            "name": "D#5",
            "ticks": 73104,
            "time": 101.083984875,
            "velocity": 0.5905511811023622
          },
          {
            "duration": 0.1327432500000043,
            "durationTicks": 96,
            "midi": 76,
            "name": "E5",
            "ticks": 73152,
            "time": 101.1503565,
            "velocity": 0.7874015748031497
          },
          {
            "duration": 0.1327432500000043,
            "durationTicks": 96,
            "midi": 76,
            "name": "E5",
            "ticks": 73200,
            "time": 101.216728125,
            "velocity": 0.5905511811023622
          },
          {
            "duration": 0.1327432500000043,
            "durationTicks": 96,
            "midi": 83,
            "name": "B5",
            "ticks": 73248,
            "time": 101.28309975,
            "velocity": 0.7874015748031497
          },
          {
            "duration": 0.1327432500000043,
            "durationTicks": 96,
            "midi": 83,
            "name": "B5",
            "ticks": 73296,
            "time": 101.34947137500001,
            "velocity": 0.5905511811023622
          },
          {
            "duration": 0.1327432499999901,
            "durationTicks": 96,
            "midi": 80,
            "name": "G#5",
            "ticks": 73344,
            "time": 101.41584300000001,
            "velocity": 0.7874015748031497
          },
          {
            "duration": 0.1327432499999901,
            "durationTicks": 96,
            "midi": 80,
            "name": "G#5",
            "ticks": 73392,
            "time": 101.48221462500001,
            "velocity": 0.5905511811023622
          },
          {
            "duration": 0.1327432500000043,
            "durationTicks": 96,
            "midi": 80,
            "name": "G#5",
            "ticks": 73440,
            "time": 101.54858625,
            "velocity": 0.4881889763779528
          },
          {
            "duration": 0.1327432500000043,
            "durationTicks": 96,
            "midi": 80,
            "name": "G#5",
            "ticks": 73488,
            "time": 101.614957875,
            "velocity": 0.4330708661417323
          },
          {
            "duration": 0.3982297499999987,
            "durationTicks": 288,
            "midi": 73,
            "name": "C#5",
            "ticks": 73728,
            "time": 101.94681600000001,
            "velocity": 0.7874015748031497
          },
          {
            "duration": 2.123891999999998,
            "durationTicks": 1536,
            "midi": 90,
            "name": "F#6",
            "ticks": 73728,
            "time": 101.94681600000001,
            "velocity": 0.7874015748031497
          },
          {
            "duration": 0.3982297499999987,
            "durationTicks": 288,
            "midi": 78,
            "name": "F#5",
            "ticks": 74016,
            "time": 102.34504575000001,
            "velocity": 0.7874015748031497
          },
          {
            "duration": 0.1327432499999901,
            "durationTicks": 96,
            "midi": 76,
            "name": "E5",
            "ticks": 74304,
            "time": 102.74327550000001,
            "velocity": 0.7874015748031497
          },
          {
            "duration": 0.1327432500000043,
            "durationTicks": 96,
            "midi": 76,
            "name": "E5",
            "ticks": 74400,
            "time": 102.87601875,
            "velocity": 0.5905511811023622
          },
          {
            "duration": 0.1327432500000043,
            "durationTicks": 96,
            "midi": 75,
            "name": "D#5",
            "ticks": 74448,
            "time": 102.942390375,
            "velocity": 0.7874015748031497
          },
          {
            "duration": 0.1327432500000043,
            "durationTicks": 96,
            "midi": 75,
            "name": "D#5",
            "ticks": 74496,
            "time": 103.008762,
            "velocity": 0.7874015748031497
          },
          {
            "duration": 0.1327432499999901,
            "durationTicks": 96,
            "midi": 73,
            "name": "C#5",
            "ticks": 74592,
            "time": 103.14150525000001,
            "velocity": 0.7874015748031497
          },
          {
            "duration": 0.1327432500000043,
            "durationTicks": 96,
            "midi": 73,
            "name": "C#5",
            "ticks": 74688,
            "time": 103.2742485,
            "velocity": 0.5905511811023622
          },
          {
            "duration": 0.2654865000000086,
            "durationTicks": 192,
            "midi": 73,
            "name": "C#5",
            "ticks": 74784,
            "time": 103.40699175,
            "velocity": 0.7874015748031497
          },
          {
            "duration": 0.1327432499999901,
            "durationTicks": 96,
            "midi": 73,
            "name": "C#5",
            "ticks": 74976,
            "time": 103.67247825000001,
            "velocity": 0.7874015748031497
          },
          {
            "duration": 0.1327432500000043,
            "durationTicks": 96,
            "midi": 75,
            "name": "D#5",
            "ticks": 75024,
            "time": 103.738849875,
            "velocity": 0.7874015748031497
          },
          {
            "duration": 0.2654865000000086,
            "durationTicks": 192,
            "midi": 75,
            "name": "D#5",
            "ticks": 75072,
            "time": 103.8052215,
            "velocity": 0.7874015748031497
          },
          {
            "duration": 0.1327432500000043,
            "durationTicks": 96,
            "midi": 85,
            "name": "C#6",
            "ticks": 122880,
            "time": 169.91136,
            "velocity": 0.7874015748031497
          },
          {
            "duration": 0.1327432500000043,
            "durationTicks": 96,
            "midi": 80,
            "name": "G#5",
            "ticks": 122880,
            "time": 169.91136,
            "velocity": 0.7874015748031497
          },
          {
            "duration": 0.1327432500000043,
            "durationTicks": 96,
            "midi": 76,
            "name": "E5",
            "ticks": 123168,
            "time": 170.30958975000001,
            "velocity": 0.7874015748031497
          },
          {
            "duration": 0.1327432500000043,
            "durationTicks": 96,
            "midi": 80,
            "name": "G#5",
            "ticks": 123168,
            "time": 170.30958975000001,
            "velocity": 0.7874015748031497
          },
          {
            "duration": 0.1327432500000043,
            "durationTicks": 96,
            "midi": 80,
            "name": "G#5",
            "ticks": 123456,
            "time": 170.7078195,
            "velocity": 0.7874015748031497
          },
          {
            "duration": 0.1327432500000043,
            "durationTicks": 96,
            "midi": 83,
            "name": "B5",
            "ticks": 123456,
            "time": 170.7078195,
            "velocity": 0.7874015748031497
          },
          {
            "duration": 0.1327432500000043,
            "durationTicks": 96,
            "midi": 82,
            "name": "A#5",
            "ticks": 123648,
            "time": 170.973306,
            "velocity": 0.7874015748031497
          },
          {
            "duration": 0.1327432500000043,
            "durationTicks": 96,
            "midi": 78,
            "name": "F#5",
            "ticks": 123648,
            "time": 170.973306,
            "velocity": 0.7874015748031497
          },
          {
            "duration": 0.1327432499999759,
            "durationTicks": 96,
            "midi": 73,
            "name": "C#5",
            "ticks": 123936,
            "time": 171.37153575000002,
            "velocity": 0.7874015748031497
          },
          {
            "duration": 0.1327432499999759,
            "durationTicks": 96,
            "midi": 78,
            "name": "F#5",
            "ticks": 123936,
            "time": 171.37153575000002,
            "velocity": 0.7874015748031497
          },
          {
            "duration": 0.1327432500000043,
            "durationTicks": 96,
            "midi": 80,
            "name": "G#5",
            "ticks": 124224,
            "time": 171.7697655,
            "velocity": 0.7874015748031497
          },
          {
            "duration": 0.1327432500000043,
            "durationTicks": 96,
            "midi": 76,
            "name": "E5",
            "ticks": 124224,
            "time": 171.7697655,
            "velocity": 0.7874015748031497
          },
          {
            "duration": 0.1327432500000043,
            "durationTicks": 96,
            "midi": 80,
            "name": "G#5",
            "ticks": 124416,
            "time": 172.035252,
            "velocity": 0.7874015748031497
          },
          {
            "duration": 0.1327432500000043,
            "durationTicks": 96,
            "midi": 85,
            "name": "C#6",
            "ticks": 124416,
            "time": 172.035252,
            "velocity": 0.7874015748031497
          },
          {
            "duration": 0.1327432500000043,
            "durationTicks": 96,
            "midi": 80,
            "name": "G#5",
            "ticks": 124704,
            "time": 172.43348175,
            "velocity": 0.7874015748031497
          },
          {
            "duration": 0.1327432500000043,
            "durationTicks": 96,
            "midi": 76,
            "name": "E5",
            "ticks": 124704,
            "time": 172.43348175,
            "velocity": 0.7874015748031497
          },
          {
            "duration": 0.1327432500000043,
            "durationTicks": 96,
            "midi": 80,
            "name": "G#5",
            "ticks": 124992,
            "time": 172.8317115,
            "velocity": 0.7874015748031497
          },
          {
            "duration": 0.1327432500000043,
            "durationTicks": 96,
            "midi": 83,
            "name": "B5",
            "ticks": 124992,
            "time": 172.8317115,
            "velocity": 0.7874015748031497
          },
          {
            "duration": 0.1327432499999759,
            "durationTicks": 96,
            "midi": 78,
            "name": "F#5",
            "ticks": 125184,
            "time": 173.09719800000002,
            "velocity": 0.7874015748031497
          },
          {
            "duration": 0.1327432499999759,
            "durationTicks": 96,
            "midi": 82,
            "name": "A#5",
            "ticks": 125184,
            "time": 173.09719800000002,
            "velocity": 0.7874015748031497
          },
          {
            "duration": 0.1327432500000043,
            "durationTicks": 96,
            "midi": 73,
            "name": "C#5",
            "ticks": 125472,
            "time": 173.49542775,
            "velocity": 0.7874015748031497
          },
          {
            "duration": 0.1327432500000043,
            "durationTicks": 96,
            "midi": 78,
            "name": "F#5",
            "ticks": 125472,
            "time": 173.49542775,
            "velocity": 0.7874015748031497
          },
          {
            "duration": 0.1327432500000043,
            "durationTicks": 96,
            "midi": 76,
            "name": "E5",
            "ticks": 125760,
            "time": 173.89365750000002,
            "velocity": 0.7874015748031497
          },
          {
            "duration": 0.1327432500000043,
            "durationTicks": 96,
            "midi": 80,
            "name": "G#5",
            "ticks": 125760,
            "time": 173.89365750000002,
            "velocity": 0.7874015748031497
          },
          {
            "duration": 0.1327432500000043,
            "durationTicks": 96,
            "midi": 85,
            "name": "C#6",
            "ticks": 125952,
            "time": 174.159144,
            "velocity": 0.7874015748031497
          },
          {
            "duration": 0.1327432500000043,
            "durationTicks": 96,
            "midi": 80,
            "name": "G#5",
            "ticks": 125952,
            "time": 174.159144,
            "velocity": 0.7874015748031497
          }
        ],
        "endOfTrackTicks": 126048
      },
      {
        "channel": 8,
        "controlChanges": {},
        "pitchBends": [],
        "instrument": {
          "family": "strings",
          "number": 43,
          "name": "contrabass"
        },
        "name": "Strings (Sustain)",
        "notes": [
          {
            "duration": 2.1238920000000014,
            "durationTicks": 1536,
            "midi": 42,
            "name": "F#2",
            "ticks": 19968,
            "time": 27.610596,
            "velocity": 0.7874015748031497
          },
          {
            "duration": 2.1238920000000014,
            "durationTicks": 1536,
            "midi": 45,
            "name": "A2",
            "ticks": 19968,
            "time": 27.610596,
            "velocity": 0.7874015748031497
          },
          {
            "duration": 2.1238920000000014,
            "durationTicks": 1536,
            "midi": 49,
            "name": "C#3",
            "ticks": 19968,
            "time": 27.610596,
            "velocity": 0.7874015748031497
          },
          {
            "duration": 2.1238920000000014,
            "durationTicks": 1536,
            "midi": 54,
            "name": "F#3",
            "ticks": 19968,
            "time": 27.610596,
            "velocity": 0.7874015748031497
          },
          {
            "duration": 2.123891999999998,
            "durationTicks": 1536,
            "midi": 59,
            "name": "B3",
            "ticks": 21504,
            "time": 29.734488000000002,
            "velocity": 0.7874015748031497
          },
          {
            "duration": 2.123891999999998,
            "durationTicks": 1536,
            "midi": 51,
            "name": "D#3",
            "ticks": 21504,
            "time": 29.734488000000002,
            "velocity": 0.7874015748031497
          },
          {
            "duration": 2.123891999999998,
            "durationTicks": 1536,
            "midi": 44,
            "name": "G#2",
            "ticks": 21504,
            "time": 29.734488000000002,
            "velocity": 0.7874015748031497
          },
          {
            "duration": 2.123891999999998,
            "durationTicks": 1536,
            "midi": 51,
            "name": "D#3",
            "ticks": 21504,
            "time": 29.734488000000002,
            "velocity": 0.7874015748031497
          },
          {
            "duration": 2.1238920000000014,
            "durationTicks": 1536,
            "midi": 52,
            "name": "E3",
            "ticks": 23040,
            "time": 31.85838,
            "velocity": 0.7874015748031497
          },
          {
            "duration": 2.1238920000000014,
            "durationTicks": 1536,
            "midi": 52,
            "name": "E3",
            "ticks": 23040,
            "time": 31.85838,
            "velocity": 0.7874015748031497
          },
          {
            "duration": 2.1238920000000014,
            "durationTicks": 1536,
            "midi": 45,
            "name": "A2",
            "ticks": 23040,
            "time": 31.85838,
            "velocity": 0.7874015748031497
          },
          {
            "duration": 2.1238920000000014,
            "durationTicks": 1536,
            "midi": 61,
            "name": "C#4",
            "ticks": 23040,
            "time": 31.85838,
            "velocity": 0.7874015748031497
          },
          {
            "duration": 0.530973000000003,
            "durationTicks": 384,
            "midi": 54,
            "name": "F#3",
            "ticks": 24576,
            "time": 33.982272,
            "velocity": 0.7874015748031497
          },
          {
            "duration": 0.530973000000003,
            "durationTicks": 384,
            "midi": 59,
            "name": "B3",
            "ticks": 24576,
            "time": 33.982272,
            "velocity": 0.7874015748031497
          },
          {
            "duration": 0.530973000000003,
            "durationTicks": 384,
            "midi": 47,
            "name": "B2",
            "ticks": 24576,
            "time": 33.982272,
            "velocity": 0.7874015748031497
          },
          {
            "duration": 0.530973000000003,
            "durationTicks": 384,
            "midi": 51,
            "name": "D#3",
            "ticks": 24576,
            "time": 33.982272,
            "velocity": 0.7874015748031497
          },
          {
            "duration": 2.123891999999998,
            "durationTicks": 1536,
            "midi": 54,
            "name": "F#3",
            "ticks": 32256,
            "time": 44.601732000000005,
            "velocity": 0.7874015748031497
          },
          {
            "duration": 2.123891999999998,
            "durationTicks": 1536,
            "midi": 49,
            "name": "C#3",
            "ticks": 32256,
            "time": 44.601732000000005,
            "velocity": 0.7874015748031497
          },
          {
            "duration": 2.123891999999998,
            "durationTicks": 1536,
            "midi": 42,
            "name": "F#2",
            "ticks": 32256,
            "time": 44.601732000000005,
            "velocity": 0.7874015748031497
          },
          {
            "duration": 2.123891999999998,
            "durationTicks": 1536,
            "midi": 45,
            "name": "A2",
            "ticks": 32256,
            "time": 44.601732000000005,
            "velocity": 0.7874015748031497
          },
          {
            "duration": 2.123891999999998,
            "durationTicks": 1536,
            "midi": 51,
            "name": "D#3",
            "ticks": 33792,
            "time": 46.725624,
            "velocity": 0.7874015748031497
          },
          {
            "duration": 2.123891999999998,
            "durationTicks": 1536,
            "midi": 59,
            "name": "B3",
            "ticks": 33792,
            "time": 46.725624,
            "velocity": 0.7874015748031497
          },
          {
            "duration": 2.123891999999998,
            "durationTicks": 1536,
            "midi": 44,
            "name": "G#2",
            "ticks": 33792,
            "time": 46.725624,
            "velocity": 0.7874015748031497
          },
          {
            "duration": 2.123891999999998,
            "durationTicks": 1536,
            "midi": 51,
            "name": "D#3",
            "ticks": 33792,
            "time": 46.725624,
            "velocity": 0.7874015748031497
          },
          {
            "duration": 2.123892000000005,
            "durationTicks": 1536,
            "midi": 45,
            "name": "A2",
            "ticks": 35328,
            "time": 48.849516,
            "velocity": 0.7874015748031497
          },
          {
            "duration": 2.123892000000005,
            "durationTicks": 1536,
            "midi": 61,
            "name": "C#4",
            "ticks": 35328,
            "time": 48.849516,
            "velocity": 0.7874015748031497
          },
          {
            "duration": 2.123892000000005,
            "durationTicks": 1536,
            "midi": 52,
            "name": "E3",
            "ticks": 35328,
            "time": 48.849516,
            "velocity": 0.7874015748031497
          },
          {
            "duration": 2.123892000000005,
            "durationTicks": 1536,
            "midi": 52,
            "name": "E3",
            "ticks": 35328,
            "time": 48.849516,
            "velocity": 0.7874015748031497
          },
          {
            "duration": 0.5309729999999959,
            "durationTicks": 384,
            "midi": 47,
            "name": "B2",
            "ticks": 36864,
            "time": 50.973408000000006,
            "velocity": 0.7874015748031497
          },
          {
            "duration": 0.5309729999999959,
            "durationTicks": 384,
            "midi": 59,
            "name": "B3",
            "ticks": 36864,
            "time": 50.973408000000006,
            "velocity": 0.7874015748031497
          },
          {
            "duration": 0.5309729999999959,
            "durationTicks": 384,
            "midi": 54,
            "name": "F#3",
            "ticks": 36864,
            "time": 50.973408000000006,
            "velocity": 0.7874015748031497
          },
          {
            "duration": 0.5309729999999959,
            "durationTicks": 384,
            "midi": 51,
            "name": "D#3",
            "ticks": 36864,
            "time": 50.973408000000006,
            "velocity": 0.7874015748031497
          },
          {
            "duration": 4.247783999999996,
            "durationTicks": 3072,
            "midi": 45,
            "name": "A2",
            "ticks": 38400,
            "time": 53.097300000000004,
            "velocity": 0.7874015748031497
          },
          {
            "duration": 2.123891999999998,
            "durationTicks": 1536,
            "midi": 56,
            "name": "G#3",
            "ticks": 38400,
            "time": 53.097300000000004,
            "velocity": 0.7874015748031497
          },
          {
            "duration": 2.123891999999998,
            "durationTicks": 1536,
            "midi": 61,
            "name": "C#4",
            "ticks": 38400,
            "time": 53.097300000000004,
            "velocity": 0.7874015748031497
          },
          {
            "duration": 2.123891999999998,
            "durationTicks": 1536,
            "midi": 54,
            "name": "F#3",
            "ticks": 39936,
            "time": 55.221192,
            "velocity": 0.7874015748031497
          },
          {
            "duration": 2.123891999999998,
            "durationTicks": 1536,
            "midi": 59,
            "name": "B3",
            "ticks": 39936,
            "time": 55.221192,
            "velocity": 0.7874015748031497
          },
          {
            "duration": 2.123892000000005,
            "durationTicks": 1536,
            "midi": 56,
            "name": "G#3",
            "ticks": 41472,
            "time": 57.345084,
            "velocity": 0.7874015748031497
          },
          {
            "duration": 2.123892000000005,
            "durationTicks": 1536,
            "midi": 49,
            "name": "C#3",
            "ticks": 41472,
            "time": 57.345084,
            "velocity": 0.7874015748031497
          },
          {
            "duration": 2.123892000000005,
            "durationTicks": 1536,
            "midi": 61,
            "name": "C#4",
            "ticks": 41472,
            "time": 57.345084,
            "velocity": 0.7874015748031497
          },
          {
            "duration": 1.061945999999999,
            "durationTicks": 768,
            "midi": 51,
            "name": "D#3",
            "ticks": 43008,
            "time": 59.468976000000005,
            "velocity": 0.7874015748031497
          },
          {
            "duration": 1.061945999999999,
            "durationTicks": 768,
            "midi": 56,
            "name": "G#3",
            "ticks": 43008,
            "time": 59.468976000000005,
            "velocity": 0.7874015748031497
          },
          {
            "duration": 2.123891999999998,
            "durationTicks": 1536,
            "midi": 44,
            "name": "G#2",
            "ticks": 43008,
            "time": 59.468976000000005,
            "velocity": 0.7874015748031497
          },
          {
            "duration": 1.061945999999999,
            "durationTicks": 768,
            "midi": 54,
            "name": "F#3",
            "ticks": 43776,
            "time": 60.530922000000004,
            "velocity": 0.7874015748031497
          },
          {
            "duration": 1.061945999999999,
            "durationTicks": 768,
            "midi": 59,
            "name": "B3",
            "ticks": 43776,
            "time": 60.530922000000004,
            "velocity": 0.7874015748031497
          },
          {
            "duration": 0.1327432499999972,
            "durationTicks": 96,
            "midi": 45,
            "name": "A2",
            "ticks": 44544,
            "time": 61.592868,
            "velocity": 0.7874015748031497
          },
          {
            "duration": 0.530973000000003,
            "durationTicks": 384,
            "midi": 45,
            "name": "A2",
            "ticks": 44544,
            "time": 61.592868,
            "velocity": 0.7874015748031497
          },
          {
            "duration": 2.123891999999998,
            "durationTicks": 1536,
            "midi": 61,
            "name": "C#4",
            "ticks": 44544,
            "time": 61.592868,
            "velocity": 0.7874015748031497
          },
          {
            "duration": 2.123891999999998,
            "durationTicks": 1536,
            "midi": 56,
            "name": "G#3",
            "ticks": 44544,
            "time": 61.592868,
            "velocity": 0.7874015748031497
          },
          {
            "duration": 0.1327432499999972,
            "durationTicks": 96,
            "midi": 52,
            "name": "E3",
            "ticks": 44544,
            "time": 61.592868,
            "velocity": 0.7874015748031497
          },
          {
            "duration": 0.1327432500000043,
            "durationTicks": 96,
            "midi": 52,
            "name": "E3",
            "ticks": 44832,
            "time": 61.99109775,
            "velocity": 0.7874015748031497
          },
          {
            "duration": 0.6637162500000002,
            "durationTicks": 480,
            "midi": 45,
            "name": "A2",
            "ticks": 44832,
            "time": 61.99109775,
            "velocity": 0.7874015748031497
          },
          {
            "duration": 0.1327432499999972,
            "durationTicks": 96,
            "midi": 52,
            "name": "E3",
            "ticks": 45216,
            "time": 62.522070750000005,
            "velocity": 0.7874015748031497
          },
          {
            "duration": 0.5309729999999959,
            "durationTicks": 384,
            "midi": 45,
            "name": "A2",
            "ticks": 45216,
            "time": 62.522070750000005,
            "velocity": 0.7874015748031497
          },
          {
            "duration": 0.1327432499999972,
            "durationTicks": 96,
            "midi": 52,
            "name": "E3",
            "ticks": 45504,
            "time": 62.9203005,
            "velocity": 0.7874015748031497
          },
          {
            "duration": 0.3982297499999987,
            "durationTicks": 288,
            "midi": 45,
            "name": "A2",
            "ticks": 45504,
            "time": 62.9203005,
            "velocity": 0.7874015748031497
          },
          {
            "duration": 0.6637162500000002,
            "durationTicks": 480,
            "midi": 45,
            "name": "A2",
            "ticks": 45696,
            "time": 63.185787000000005,
            "velocity": 0.7874015748031497
          },
          {
            "duration": 0.1327432499999972,
            "durationTicks": 96,
            "midi": 52,
            "name": "E3",
            "ticks": 45696,
            "time": 63.185787000000005,
            "velocity": 0.7874015748031497
          },
          {
            "duration": 0.2654864999999944,
            "durationTicks": 192,
            "midi": 54,
            "name": "F#3",
            "ticks": 45888,
            "time": 63.451273500000006,
            "velocity": 0.7874015748031497
          },
          {
            "duration": 0.2654864999999944,
            "durationTicks": 192,
            "midi": 47,
            "name": "B2",
            "ticks": 45888,
            "time": 63.451273500000006,
            "velocity": 0.7874015748031497
          },
          {
            "duration": 0.1327432500000043,
            "durationTicks": 96,
            "midi": 52,
            "name": "E3",
            "ticks": 46080,
            "time": 63.71676,
            "velocity": 0.7874015748031497
          },
          {
            "duration": 2.123892000000005,
            "durationTicks": 1536,
            "midi": 59,
            "name": "B3",
            "ticks": 46080,
            "time": 63.71676,
            "velocity": 0.7874015748031497
          },
          {
            "duration": 2.123892000000005,
            "durationTicks": 1536,
            "midi": 54,
            "name": "F#3",
            "ticks": 46080,
            "time": 63.71676,
            "velocity": 0.7874015748031497
          },
          {
            "duration": 0.5309729999999959,
            "durationTicks": 384,
            "midi": 45,
            "name": "A2",
            "ticks": 46080,
            "time": 63.71676,
            "velocity": 0.7874015748031497
          },
          {
            "duration": 0.6637162499999931,
            "durationTicks": 480,
            "midi": 45,
            "name": "A2",
            "ticks": 46368,
            "time": 64.11498975,
            "velocity": 0.7874015748031497
          },
          {
            "duration": 0.1327432499999901,
            "durationTicks": 96,
            "midi": 52,
            "name": "E3",
            "ticks": 46368,
            "time": 64.11498975,
            "velocity": 0.7874015748031497
          },
          {
            "duration": 0.1327432499999901,
            "durationTicks": 96,
            "midi": 52,
            "name": "E3",
            "ticks": 46752,
            "time": 64.64596275000001,
            "velocity": 0.7874015748031497
          },
          {
            "duration": 0.5309729999999888,
            "durationTicks": 384,
            "midi": 45,
            "name": "A2",
            "ticks": 46752,
            "time": 64.64596275000001,
            "velocity": 0.7874015748031497
          },
          {
            "duration": 0.1327432499999901,
            "durationTicks": 96,
            "midi": 52,
            "name": "E3",
            "ticks": 47040,
            "time": 65.04419250000001,
            "velocity": 0.7874015748031497
          },
          {
            "duration": 0.3982297499999987,
            "durationTicks": 288,
            "midi": 45,
            "name": "A2",
            "ticks": 47040,
            "time": 65.04419250000001,
            "velocity": 0.7874015748031497
          },
          {
            "duration": 0.1327432500000043,
            "durationTicks": 96,
            "midi": 52,
            "name": "E3",
            "ticks": 47232,
            "time": 65.309679,
            "velocity": 0.7874015748031497
          },
          {
            "duration": 0.530973000000003,
            "durationTicks": 384,
            "midi": 45,
            "name": "A2",
            "ticks": 47232,
            "time": 65.309679,
            "velocity": 0.7874015748031497
          },
          {
            "duration": 0.2654865000000086,
            "durationTicks": 192,
            "midi": 47,
            "name": "B2",
            "ticks": 47424,
            "time": 65.5751655,
            "velocity": 0.7874015748031497
          },
          {
            "duration": 0.2654865000000086,
            "durationTicks": 192,
            "midi": 54,
            "name": "F#3",
            "ticks": 47424,
            "time": 65.5751655,
            "velocity": 0.7874015748031497
          },
          {
            "duration": 0.1327432500000043,
            "durationTicks": 96,
            "midi": 49,
            "name": "C#3",
            "ticks": 47616,
            "time": 65.840652,
            "velocity": 0.7874015748031497
          },
          {
            "duration": 0.1327432500000043,
            "durationTicks": 96,
            "midi": 56,
            "name": "G#3",
            "ticks": 47616,
            "time": 65.840652,
            "velocity": 0.7874015748031497
          },
          {
            "duration": 2.123891999999998,
            "durationTicks": 1536,
            "midi": 61,
            "name": "C#4",
            "ticks": 47616,
            "time": 65.840652,
            "velocity": 0.7874015748031497
          },
          {
            "duration": 0.530973000000003,
            "durationTicks": 384,
            "midi": 49,
            "name": "C#3",
            "ticks": 47616,
            "time": 65.840652,
            "velocity": 0.7874015748031497
          },
          {
            "duration": 0.530973000000003,
            "durationTicks": 384,
            "midi": 56,
            "name": "G#3",
            "ticks": 47616,
            "time": 65.840652,
            "velocity": 0.7874015748031497
          },
          {
            "duration": 0.6637162499999931,
            "durationTicks": 480,
            "midi": 56,
            "name": "G#3",
            "ticks": 47904,
            "time": 66.23888175,
            "velocity": 0.7874015748031497
          },
          {
            "duration": 0.6637162499999931,
            "durationTicks": 480,
            "midi": 49,
            "name": "C#3",
            "ticks": 47904,
            "time": 66.23888175,
            "velocity": 0.7874015748031497
          },
          {
            "duration": 0.530973000000003,
            "durationTicks": 384,
            "midi": 56,
            "name": "G#3",
            "ticks": 48288,
            "time": 66.76985475000001,
            "velocity": 0.7874015748031497
          },
          {
            "duration": 0.530973000000003,
            "durationTicks": 384,
            "midi": 49,
            "name": "C#3",
            "ticks": 48288,
            "time": 66.76985475000001,
            "velocity": 0.7874015748031497
          },
          {
            "duration": 0.3982297499999987,
            "durationTicks": 288,
            "midi": 49,
            "name": "C#3",
            "ticks": 48576,
            "time": 67.1680845,
            "velocity": 0.7874015748031497
          },
          {
            "duration": 0.3982297499999987,
            "durationTicks": 288,
            "midi": 56,
            "name": "G#3",
            "ticks": 48576,
            "time": 67.1680845,
            "velocity": 0.7874015748031497
          },
          {
            "duration": 0.530973000000003,
            "durationTicks": 384,
            "midi": 49,
            "name": "C#3",
            "ticks": 48768,
            "time": 67.433571,
            "velocity": 0.7874015748031497
          },
          {
            "duration": 0.530973000000003,
            "durationTicks": 384,
            "midi": 56,
            "name": "G#3",
            "ticks": 48768,
            "time": 67.433571,
            "velocity": 0.7874015748031497
          },
          {
            "duration": 0.2654864999999944,
            "durationTicks": 192,
            "midi": 54,
            "name": "F#3",
            "ticks": 48960,
            "time": 67.69905750000001,
            "velocity": 0.7874015748031497
          },
          {
            "duration": 0.2654864999999944,
            "durationTicks": 192,
            "midi": 47,
            "name": "B2",
            "ticks": 48960,
            "time": 67.69905750000001,
            "velocity": 0.7874015748031497
          },
          {
            "duration": 2.123891999999998,
            "durationTicks": 1536,
            "midi": 56,
            "name": "G#3",
            "ticks": 50688,
            "time": 70.088436,
            "velocity": 0.7874015748031497
          },
          {
            "duration": 4.247783999999996,
            "durationTicks": 3072,
            "midi": 33,
            "name": "A1",
            "ticks": 50688,
            "time": 70.088436,
            "velocity": 0.7874015748031497
          },
          {
            "duration": 2.123891999999998,
            "durationTicks": 1536,
            "midi": 61,
            "name": "C#4",
            "ticks": 50688,
            "time": 70.088436,
            "velocity": 0.7874015748031497
          },
          {
            "duration": 2.123891999999998,
            "durationTicks": 1536,
            "midi": 54,
            "name": "F#3",
            "ticks": 52224,
            "time": 72.212328,
            "velocity": 0.7874015748031497
          },
          {
            "duration": 2.123891999999998,
            "durationTicks": 1536,
            "midi": 59,
            "name": "B3",
            "ticks": 52224,
            "time": 72.212328,
            "velocity": 0.7874015748031497
          },
          {
            "duration": 2.123892000000012,
            "durationTicks": 1536,
            "midi": 37,
            "name": "C#2",
            "ticks": 53760,
            "time": 74.33622,
            "velocity": 0.7874015748031497
          },
          {
            "duration": 2.123892000000012,
            "durationTicks": 1536,
            "midi": 61,
            "name": "C#4",
            "ticks": 53760,
            "time": 74.33622,
            "velocity": 0.7874015748031497
          },
          {
            "duration": 2.123892000000012,
            "durationTicks": 1536,
            "midi": 56,
            "name": "G#3",
            "ticks": 53760,
            "time": 74.33622,
            "velocity": 0.7874015748031497
          },
          {
            "duration": 2.123891999999998,
            "durationTicks": 1536,
            "midi": 32,
            "name": "G#1",
            "ticks": 55296,
            "time": 76.46011200000001,
            "velocity": 0.7874015748031497
          },
          {
            "duration": 1.0619459999999918,
            "durationTicks": 768,
            "midi": 51,
            "name": "D#3",
            "ticks": 55296,
            "time": 76.46011200000001,
            "velocity": 0.7874015748031497
          },
          {
            "duration": 1.0619459999999918,
            "durationTicks": 768,
            "midi": 56,
            "name": "G#3",
            "ticks": 55296,
            "time": 76.46011200000001,
            "velocity": 0.7874015748031497
          },
          {
            "duration": 1.061946000000006,
            "durationTicks": 768,
            "midi": 59,
            "name": "B3",
            "ticks": 56064,
            "time": 77.522058,
            "velocity": 0.7874015748031497
          },
          {
            "duration": 1.061946000000006,
            "durationTicks": 768,
            "midi": 54,
            "name": "F#3",
            "ticks": 56064,
            "time": 77.522058,
            "velocity": 0.7874015748031497
          },
          {
            "duration": 2.123891999999998,
            "durationTicks": 1536,
            "midi": 61,
            "name": "C#4",
            "ticks": 56832,
            "time": 78.58400400000001,
            "velocity": 0.7874015748031497
          },
          {
            "duration": 4.247783999999996,
            "durationTicks": 3072,
            "midi": 33,
            "name": "A1",
            "ticks": 56832,
            "time": 78.58400400000001,
            "velocity": 0.7874015748031497
          },
          {
            "duration": 2.123891999999998,
            "durationTicks": 1536,
            "midi": 56,
            "name": "G#3",
            "ticks": 56832,
            "time": 78.58400400000001,
            "velocity": 0.7874015748031497
          },
          {
            "duration": 2.123891999999998,
            "durationTicks": 1536,
            "midi": 59,
            "name": "B3",
            "ticks": 58368,
            "time": 80.707896,
            "velocity": 0.7874015748031497
          },
          {
            "duration": 2.123891999999998,
            "durationTicks": 1536,
            "midi": 54,
            "name": "F#3",
            "ticks": 58368,
            "time": 80.707896,
            "velocity": 0.7874015748031497
          },
          {
            "duration": 2.123891999999998,
            "durationTicks": 1536,
            "midi": 37,
            "name": "C#2",
            "ticks": 59904,
            "time": 82.831788,
            "velocity": 0.7874015748031497
          },
          {
            "duration": 2.123891999999998,
            "durationTicks": 1536,
            "midi": 61,
            "name": "C#4",
            "ticks": 59904,
            "time": 82.831788,
            "velocity": 0.7874015748031497
          },
          {
            "duration": 2.123891999999998,
            "durationTicks": 1536,
            "midi": 56,
            "name": "G#3",
            "ticks": 59904,
            "time": 82.831788,
            "velocity": 0.7874015748031497
          },
          {
            "duration": 2.123891999999998,
            "durationTicks": 1536,
            "midi": 32,
            "name": "G#1",
            "ticks": 61440,
            "time": 84.95568,
            "velocity": 0.7874015748031497
          },
          {
            "duration": 1.061946000000006,
            "durationTicks": 768,
            "midi": 56,
            "name": "G#3",
            "ticks": 61440,
            "time": 84.95568,
            "velocity": 0.7874015748031497
          },
          {
            "duration": 1.061946000000006,
            "durationTicks": 768,
            "midi": 51,
            "name": "D#3",
            "ticks": 61440,
            "time": 84.95568,
            "velocity": 0.7874015748031497
          },
          {
            "duration": 1.0619459999999918,
            "durationTicks": 768,
            "midi": 61,
            "name": "C#4",
            "ticks": 62208,
            "time": 86.017626,
            "velocity": 0.7874015748031497
          },
          {
            "duration": 1.0619459999999918,
            "durationTicks": 768,
            "midi": 54,
            "name": "F#3",
            "ticks": 62208,
            "time": 86.017626,
            "velocity": 0.7874015748031497
          },
          {
            "duration": 2.123892000000012,
            "durationTicks": 1536,
            "midi": 56,
            "name": "G#3",
            "ticks": 62976,
            "time": 87.079572,
            "velocity": 0.7874015748031497
          },
          {
            "duration": 2.123892000000012,
            "durationTicks": 1536,
            "midi": 61,
            "name": "C#4",
            "ticks": 62976,
            "time": 87.079572,
            "velocity": 0.7874015748031497
          },
          {
            "duration": 4.24778400000001,
            "durationTicks": 3072,
            "midi": 33,
            "name": "A1",
            "ticks": 62976,
            "time": 87.079572,
            "velocity": 0.7874015748031497
          },
          {
            "duration": 2.123891999999998,
            "durationTicks": 1536,
            "midi": 59,
            "name": "B3",
            "ticks": 64512,
            "time": 89.20346400000001,
            "velocity": 0.7874015748031497
          },
          {
            "duration": 2.123891999999998,
            "durationTicks": 1536,
            "midi": 54,
            "name": "F#3",
            "ticks": 64512,
            "time": 89.20346400000001,
            "velocity": 0.7874015748031497
          },
          {
            "duration": 2.123891999999998,
            "durationTicks": 1536,
            "midi": 61,
            "name": "C#4",
            "ticks": 66048,
            "time": 91.32735600000001,
            "velocity": 0.7874015748031497
          },
          {
            "duration": 2.123891999999998,
            "durationTicks": 1536,
            "midi": 56,
            "name": "G#3",
            "ticks": 66048,
            "time": 91.32735600000001,
            "velocity": 0.7874015748031497
          },
          {
            "duration": 2.123891999999998,
            "durationTicks": 1536,
            "midi": 37,
            "name": "C#2",
            "ticks": 66048,
            "time": 91.32735600000001,
            "velocity": 0.7874015748031497
          },
          {
            "duration": 1.0619459999999918,
            "durationTicks": 768,
            "midi": 51,
            "name": "D#3",
            "ticks": 67584,
            "time": 93.451248,
            "velocity": 0.7874015748031497
          },
          {
            "duration": 2.123891999999998,
            "durationTicks": 1536,
            "midi": 32,
            "name": "G#1",
            "ticks": 67584,
            "time": 93.451248,
            "velocity": 0.7874015748031497
          },
          {
            "duration": 1.0619459999999918,
            "durationTicks": 768,
            "midi": 56,
            "name": "G#3",
            "ticks": 67584,
            "time": 93.451248,
            "velocity": 0.7874015748031497
          },
          {
            "duration": 1.061946000000006,
            "durationTicks": 768,
            "midi": 54,
            "name": "F#3",
            "ticks": 68352,
            "time": 94.513194,
            "velocity": 0.7874015748031497
          },
          {
            "duration": 1.061946000000006,
            "durationTicks": 768,
            "midi": 59,
            "name": "B3",
            "ticks": 68352,
            "time": 94.513194,
            "velocity": 0.7874015748031497
          },
          {
            "duration": 4.247783999999996,
            "durationTicks": 3072,
            "midi": 33,
            "name": "A1",
            "ticks": 69120,
            "time": 95.57514,
            "velocity": 0.7874015748031497
          },
          {
            "duration": 2.123891999999998,
            "durationTicks": 1536,
            "midi": 56,
            "name": "G#3",
            "ticks": 69120,
            "time": 95.57514,
            "velocity": 0.7874015748031497
          },
          {
            "duration": 2.123891999999998,
            "durationTicks": 1536,
            "midi": 61,
            "name": "C#4",
            "ticks": 69120,
            "time": 95.57514,
            "velocity": 0.7874015748031497
          },
          {
            "duration": 2.123891999999998,
            "durationTicks": 1536,
            "midi": 59,
            "name": "B3",
            "ticks": 70656,
            "time": 97.699032,
            "velocity": 0.7874015748031497
          },
          {
            "duration": 2.123891999999998,
            "durationTicks": 1536,
            "midi": 54,
            "name": "F#3",
            "ticks": 70656,
            "time": 97.699032,
            "velocity": 0.7874015748031497
          },
          {
            "duration": 2.123892000000012,
            "durationTicks": 1536,
            "midi": 56,
            "name": "G#3",
            "ticks": 72192,
            "time": 99.822924,
            "velocity": 0.7874015748031497
          },
          {
            "duration": 2.123892000000012,
            "durationTicks": 1536,
            "midi": 61,
            "name": "C#4",
            "ticks": 72192,
            "time": 99.822924,
            "velocity": 0.7874015748031497
          },
          {
            "duration": 2.123892000000012,
            "durationTicks": 1536,
            "midi": 37,
            "name": "C#2",
            "ticks": 72192,
            "time": 99.822924,
            "velocity": 0.7874015748031497
          },
          {
            "duration": 1.0619459999999918,
            "durationTicks": 768,
            "midi": 56,
            "name": "G#3",
            "ticks": 73728,
            "time": 101.94681600000001,
            "velocity": 0.7874015748031497
          },
          {
            "duration": 1.0619459999999918,
            "durationTicks": 768,
            "midi": 51,
            "name": "D#3",
            "ticks": 73728,
            "time": 101.94681600000001,
            "velocity": 0.7874015748031497
          },
          {
            "duration": 2.123891999999998,
            "durationTicks": 1536,
            "midi": 32,
            "name": "G#1",
            "ticks": 73728,
            "time": 101.94681600000001,
            "velocity": 0.7874015748031497
          },
          {
            "duration": 1.061946000000006,
            "durationTicks": 768,
            "midi": 61,
            "name": "C#4",
            "ticks": 74496,
            "time": 103.008762,
            "velocity": 0.7874015748031497
          },
          {
            "duration": 1.061946000000006,
            "durationTicks": 768,
            "midi": 54,
            "name": "F#3",
            "ticks": 74496,
            "time": 103.008762,
            "velocity": 0.7874015748031497
          },
          {
            "duration": 2.123891999999998,
            "durationTicks": 1536,
            "midi": 42,
            "name": "F#2",
            "ticks": 81408,
            "time": 112.566276,
            "velocity": 0.7874015748031497
          },
          {
            "duration": 2.123891999999998,
            "durationTicks": 1536,
            "midi": 30,
            "name": "F#1",
            "ticks": 81408,
            "time": 112.566276,
            "velocity": 0.7874015748031497
          },
          {
            "duration": 2.123892000000012,
            "durationTicks": 1536,
            "midi": 32,
            "name": "G#1",
            "ticks": 82944,
            "time": 114.690168,
            "velocity": 0.7874015748031497
          },
          {
            "duration": 2.123892000000012,
            "durationTicks": 1536,
            "midi": 44,
            "name": "G#2",
            "ticks": 82944,
            "time": 114.690168,
            "velocity": 0.7874015748031497
          },
          {
            "duration": 2.123891999999998,
            "durationTicks": 1536,
            "midi": 45,
            "name": "A2",
            "ticks": 84480,
            "time": 116.81406000000001,
            "velocity": 0.7874015748031497
          },
          {
            "duration": 2.123891999999998,
            "durationTicks": 1536,
            "midi": 33,
            "name": "A1",
            "ticks": 84480,
            "time": 116.81406000000001,
            "velocity": 0.7874015748031497
          },
          {
            "duration": 2.123891999999998,
            "durationTicks": 1536,
            "midi": 44,
            "name": "G#2",
            "ticks": 86016,
            "time": 118.93795200000001,
            "velocity": 0.7874015748031497
          },
          {
            "duration": 2.123891999999998,
            "durationTicks": 1536,
            "midi": 32,
            "name": "G#1",
            "ticks": 86016,
            "time": 118.93795200000001,
            "velocity": 0.7874015748031497
          },
          {
            "duration": 2.123891999999998,
            "durationTicks": 1536,
            "midi": 42,
            "name": "F#2",
            "ticks": 87552,
            "time": 121.06184400000001,
            "velocity": 0.7874015748031497
          },
          {
            "duration": 2.123891999999998,
            "durationTicks": 1536,
            "midi": 30,
            "name": "F#1",
            "ticks": 87552,
            "time": 121.06184400000001,
            "velocity": 0.7874015748031497
          },
          {
            "duration": 2.123891999999998,
            "durationTicks": 1536,
            "midi": 32,
            "name": "G#1",
            "ticks": 89088,
            "time": 123.185736,
            "velocity": 0.7874015748031497
          },
          {
            "duration": 2.123891999999998,
            "durationTicks": 1536,
            "midi": 44,
            "name": "G#2",
            "ticks": 89088,
            "time": 123.185736,
            "velocity": 0.7874015748031497
          },
          {
            "duration": 2.123891999999998,
            "durationTicks": 1536,
            "midi": 45,
            "name": "A2",
            "ticks": 90624,
            "time": 125.309628,
            "velocity": 0.7874015748031497
          },
          {
            "duration": 2.123891999999998,
            "durationTicks": 1536,
            "midi": 33,
            "name": "A1",
            "ticks": 90624,
            "time": 125.309628,
            "velocity": 0.7874015748031497
          },
          {
            "duration": 1.0619459999999918,
            "durationTicks": 768,
            "midi": 32,
            "name": "G#1",
            "ticks": 92160,
            "time": 127.43352,
            "velocity": 0.7874015748031497
          },
          {
            "duration": 1.0619459999999918,
            "durationTicks": 768,
            "midi": 44,
            "name": "G#2",
            "ticks": 92160,
            "time": 127.43352,
            "velocity": 0.7874015748031497
          },
          {
            "duration": 0.1327432500000043,
            "durationTicks": 96,
            "midi": 64,
            "name": "E4",
            "ticks": 122880,
            "time": 169.91136,
            "velocity": 0.7874015748031497
          },
          {
            "duration": 0.1327432500000043,
            "durationTicks": 96,
            "midi": 61,
            "name": "C#4",
            "ticks": 122880,
            "time": 169.91136,
            "velocity": 0.7874015748031497
          },
          {
            "duration": 0.1327432500000043,
            "durationTicks": 96,
            "midi": 37,
            "name": "C#2",
            "ticks": 122880,
            "time": 169.91136,
            "velocity": 0.7874015748031497
          },
          {
            "duration": 0.1327432500000043,
            "durationTicks": 96,
            "midi": 32,
            "name": "G#1",
            "ticks": 123168,
            "time": 170.30958975000001,
            "velocity": 0.7874015748031497
          },
          {
            "duration": 0.1327432500000043,
            "durationTicks": 96,
            "midi": 56,
            "name": "G#3",
            "ticks": 123168,
            "time": 170.30958975000001,
            "velocity": 0.7874015748031497
          },
          {
            "duration": 0.1327432500000043,
            "durationTicks": 96,
            "midi": 61,
            "name": "C#4",
            "ticks": 123168,
            "time": 170.30958975000001,
            "velocity": 0.7874015748031497
          },
          {
            "duration": 0.1327432500000043,
            "durationTicks": 96,
            "midi": 64,
            "name": "E4",
            "ticks": 123456,
            "time": 170.7078195,
            "velocity": 0.7874015748031497
          },
          {
            "duration": 0.1327432500000043,
            "durationTicks": 96,
            "midi": 61,
            "name": "C#4",
            "ticks": 123456,
            "time": 170.7078195,
            "velocity": 0.7874015748031497
          },
          {
            "duration": 0.1327432500000043,
            "durationTicks": 96,
            "midi": 35,
            "name": "B1",
            "ticks": 123456,
            "time": 170.7078195,
            "velocity": 0.7874015748031497
          },
          {
            "duration": 0.1327432500000043,
            "durationTicks": 96,
            "midi": 58,
            "name": "A#3",
            "ticks": 123648,
            "time": 170.973306,
            "velocity": 0.7874015748031497
          },
          {
            "duration": 0.1327432500000043,
            "durationTicks": 96,
            "midi": 61,
            "name": "C#4",
            "ticks": 123648,
            "time": 170.973306,
            "velocity": 0.7874015748031497
          },
          {
            "duration": 0.1327432500000043,
            "durationTicks": 96,
            "midi": 34,
            "name": "A#1",
            "ticks": 123648,
            "time": 170.973306,
            "velocity": 0.7874015748031497
          },
          {
            "duration": 0.1327432499999759,
            "durationTicks": 96,
            "midi": 30,
            "name": "F#1",
            "ticks": 123936,
            "time": 171.37153575000002,
            "velocity": 0.7874015748031497
          },
          {
            "duration": 0.1327432499999759,
            "durationTicks": 96,
            "midi": 54,
            "name": "F#3",
            "ticks": 123936,
            "time": 171.37153575000002,
            "velocity": 0.7874015748031497
          },
          {
            "duration": 0.1327432499999759,
            "durationTicks": 96,
            "midi": 58,
            "name": "A#3",
            "ticks": 123936,
            "time": 171.37153575000002,
            "velocity": 0.7874015748031497
          },
          {
            "duration": 0.1327432500000043,
            "durationTicks": 96,
            "midi": 58,
            "name": "A#3",
            "ticks": 124224,
            "time": 171.7697655,
            "velocity": 0.7874015748031497
          },
          {
            "duration": 0.1327432500000043,
            "durationTicks": 96,
            "midi": 61,
            "name": "C#4",
            "ticks": 124224,
            "time": 171.7697655,
            "velocity": 0.7874015748031497
          },
          {
            "duration": 0.1327432500000043,
            "durationTicks": 96,
            "midi": 32,
            "name": "G#1",
            "ticks": 124224,
            "time": 171.7697655,
            "velocity": 0.7874015748031497
          },
          {
            "duration": 0.1327432500000043,
            "durationTicks": 96,
            "midi": 64,
            "name": "E4",
            "ticks": 124416,
            "time": 172.035252,
            "velocity": 0.7874015748031497
          },
          {
            "duration": 0.1327432500000043,
            "durationTicks": 96,
            "midi": 61,
            "name": "C#4",
            "ticks": 124416,
            "time": 172.035252,
            "velocity": 0.7874015748031497
          },
          {
            "duration": 0.1327432500000043,
            "durationTicks": 96,
            "midi": 37,
            "name": "C#2",
            "ticks": 124416,
            "time": 172.035252,
            "velocity": 0.7874015748031497
          },
          {
            "duration": 0.1327432500000043,
            "durationTicks": 96,
            "midi": 61,
            "name": "C#4",
            "ticks": 124704,
            "time": 172.43348175,
            "velocity": 0.7874015748031497
          },
          {
            "duration": 0.1327432500000043,
            "durationTicks": 96,
            "midi": 56,
            "name": "G#3",
            "ticks": 124704,
            "time": 172.43348175,
            "velocity": 0.7874015748031497
          },
          {
            "duration": 0.1327432500000043,
            "durationTicks": 96,
            "midi": 32,
            "name": "G#1",
            "ticks": 124704,
            "time": 172.43348175,
            "velocity": 0.7874015748031497
          },
          {
            "duration": 0.1327432500000043,
            "durationTicks": 96,
            "midi": 64,
            "name": "E4",
            "ticks": 124992,
            "time": 172.8317115,
            "velocity": 0.7874015748031497
          },
          {
            "duration": 0.1327432500000043,
            "durationTicks": 96,
            "midi": 35,
            "name": "B1",
            "ticks": 124992,
            "time": 172.8317115,
            "velocity": 0.7874015748031497
          },
          {
            "duration": 0.1327432500000043,
            "durationTicks": 96,
            "midi": 61,
            "name": "C#4",
            "ticks": 124992,
            "time": 172.8317115,
            "velocity": 0.7874015748031497
          },
          {
            "duration": 0.1327432499999759,
            "durationTicks": 96,
            "midi": 61,
            "name": "C#4",
            "ticks": 125184,
            "time": 173.09719800000002,
            "velocity": 0.7874015748031497
          },
          {
            "duration": 0.1327432499999759,
            "durationTicks": 96,
            "midi": 58,
            "name": "A#3",
            "ticks": 125184,
            "time": 173.09719800000002,
            "velocity": 0.7874015748031497
          },
          {
            "duration": 0.1327432499999759,
            "durationTicks": 96,
            "midi": 34,
            "name": "A#1",
            "ticks": 125184,
            "time": 173.09719800000002,
            "velocity": 0.7874015748031497
          },
          {
            "duration": 0.1327432500000043,
            "durationTicks": 96,
            "midi": 58,
            "name": "A#3",
            "ticks": 125472,
            "time": 173.49542775,
            "velocity": 0.7874015748031497
          },
          {
            "duration": 0.1327432500000043,
            "durationTicks": 96,
            "midi": 54,
            "name": "F#3",
            "ticks": 125472,
            "time": 173.49542775,
            "velocity": 0.7874015748031497
          },
          {
            "duration": 0.1327432500000043,
            "durationTicks": 96,
            "midi": 30,
            "name": "F#1",
            "ticks": 125472,
            "time": 173.49542775,
            "velocity": 0.7874015748031497
          },
          {
            "duration": 0.1327432500000043,
            "durationTicks": 96,
            "midi": 32,
            "name": "G#1",
            "ticks": 125760,
            "time": 173.89365750000002,
            "velocity": 0.7874015748031497
          },
          {
            "duration": 0.1327432500000043,
            "durationTicks": 96,
            "midi": 61,
            "name": "C#4",
            "ticks": 125760,
            "time": 173.89365750000002,
            "velocity": 0.7874015748031497
          },
          {
            "duration": 0.1327432500000043,
            "durationTicks": 96,
            "midi": 58,
            "name": "A#3",
            "ticks": 125760,
            "time": 173.89365750000002,
            "velocity": 0.7874015748031497
          },
          {
            "duration": 0.1327432500000043,
            "durationTicks": 96,
            "midi": 37,
            "name": "C#2",
            "ticks": 125952,
            "time": 174.159144,
            "velocity": 0.7874015748031497
          },
          {
            "duration": 0.1327432500000043,
            "durationTicks": 96,
            "midi": 64,
            "name": "E4",
            "ticks": 125952,
            "time": 174.159144,
            "velocity": 0.7874015748031497
          },
          {
            "duration": 0.1327432500000043,
            "durationTicks": 96,
            "midi": 61,
            "name": "C#4",
            "ticks": 125952,
            "time": 174.159144,
            "velocity": 0.7874015748031497
          }
        ],
        "endOfTrackTicks": 126048
      }
    ]
  }