{
    "header": {
      "keySignatures": [],
      "meta": [],
      "name": "",
      "ppq": 384,
      "tempos": [
        {
          "bpm": 227.00015511677267,
          "ticks": 0
        }
      ],
      "timeSignatures": [
        {
          "ticks": 0,
          "timeSignature": [
            1,
            4
          ],
          "measures": 0
        }
      ]
    },
    "tracks": [
      {
        "channel": 0,
        "controlChanges": {},
        "pitchBends": [],
        "instrument": {
          "family": "guitar",
          "number": 29,
          "name": "overdriven guitar"
        },
        "name": "Electric Guitar",
        "notes": [
          {
            "duration": 0.06607925000000137,
            "durationTicks": 96,
            "midi": 72,
            "name": "C5",
            "ticks": 61440,
            "time": 42.29071999999999,
            "velocity": 0.44881889763779526
          },
          {
            "duration": 0.06607925000000137,
            "durationTicks": 96,
            "midi": 73,
            "name": "C#5",
            "ticks": 61536,
            "time": 42.356799249999995,
            "velocity": 0.44881889763779526
          },
          {
            "duration": 1.9823774999999983,
            "durationTicks": 2880,
            "midi": 74,
            "name": "D5",
            "ticks": 61632,
            "time": 42.422878499999996,
            "velocity": 0.44881889763779526
          },
          {
            "duration": 1.5859019999999973,
            "durationTicks": 2304,
            "midi": 72,
            "name": "C5",
            "ticks": 64512,
            "time": 44.405255999999994,
            "velocity": 0.44881889763779526
          },
          {
            "duration": 0.26431700000000546,
            "durationTicks": 384,
            "midi": 69,
            "name": "A4",
            "ticks": 66816,
            "time": 45.99115799999999,
            "velocity": 0.44881889763779526
          },
          {
            "duration": 0.26431699999999836,
            "durationTicks": 384,
            "midi": 70,
            "name": "A#4",
            "ticks": 67200,
            "time": 46.255475,
            "velocity": 0.44881889763779526
          },
          {
            "duration": 0.7929510000000022,
            "durationTicks": 1152,
            "midi": 69,
            "name": "A4",
            "ticks": 67584,
            "time": 46.519791999999995,
            "velocity": 0.44881889763779526
          },
          {
            "duration": 0.26431699999999836,
            "durationTicks": 384,
            "midi": 70,
            "name": "A#4",
            "ticks": 68736,
            "time": 47.312743,
            "velocity": 0.44881889763779526
          },
          {
            "duration": 0.26431699999999836,
            "durationTicks": 384,
            "midi": 69,
            "name": "A4",
            "ticks": 69120,
            "time": 47.577059999999996,
            "velocity": 0.44881889763779526
          },
          {
            "duration": 0.26431699999999836,
            "durationTicks": 384,
            "midi": 62,
            "name": "D4",
            "ticks": 69504,
            "time": 47.841376999999994,
            "velocity": 0.44881889763779526
          },
          {
            "duration": 0.26431699999999836,
            "durationTicks": 384,
            "midi": 64,
            "name": "E4",
            "ticks": 69888,
            "time": 48.10569399999999,
            "velocity": 0.44881889763779526
          },
          {
            "duration": 0.26431700000000546,
            "durationTicks": 384,
            "midi": 65,
            "name": "F4",
            "ticks": 70272,
            "time": 48.37001099999999,
            "velocity": 0.44881889763779526
          },
          {
            "duration": 0.26431699999999836,
            "durationTicks": 384,
            "midi": 67,
            "name": "G4",
            "ticks": 70656,
            "time": 48.634328,
            "velocity": 0.44881889763779526
          },
          {
            "duration": 0.26431699999999836,
            "durationTicks": 384,
            "midi": 65,
            "name": "F4",
            "ticks": 71040,
            "time": 48.898644999999995,
            "velocity": 0.44881889763779526
          },
          {
            "duration": 0.26431699999999836,
            "durationTicks": 384,
            "midi": 64,
            "name": "E4",
            "ticks": 71424,
            "time": 49.16296199999999,
            "velocity": 0.44881889763779526
          },
          {
            "duration": 0.26431700000000546,
            "durationTicks": 384,
            "midi": 62,
            "name": "D4",
            "ticks": 71808,
            "time": 49.42727899999999,
            "velocity": 0.44881889763779526
          },
          {
            "duration": 0.06607924999999426,
            "durationTicks": 96,
            "midi": 70,
            "name": "A#4",
            "ticks": 72192,
            "time": 49.691596,
            "velocity": 0.44881889763779526
          },
          {
            "duration": 0.06607925000000137,
            "durationTicks": 96,
            "midi": 71,
            "name": "B4",
            "ticks": 72288,
            "time": 49.75767524999999,
            "velocity": 0.44881889763779526
          },
          {
            "duration": 0.6607924999999994,
            "durationTicks": 960,
            "midi": 72,
            "name": "C5",
            "ticks": 72384,
            "time": 49.82375449999999,
            "velocity": 0.44881889763779526
          },
          {
            "duration": 0.26431700000000546,
            "durationTicks": 384,
            "midi": 70,
            "name": "A#4",
            "ticks": 73344,
            "time": 50.48454699999999,
            "velocity": 0.44881889763779526
          },
          {
            "duration": 2.114535999999994,
            "durationTicks": 3072,
            "midi": 69,
            "name": "A4",
            "ticks": 73728,
            "time": 50.748864,
            "velocity": 0.44881889763779526
          },
          {
            "duration": 1.8502190000000027,
            "durationTicks": 2688,
            "midi": 65,
            "name": "F4",
            "ticks": 79872,
            "time": 54.97793599999999,
            "velocity": 0.44881889763779526
          },
          {
            "duration": 0.26431699999999836,
            "durationTicks": 384,
            "midi": 67,
            "name": "G4",
            "ticks": 82560,
            "time": 56.828154999999995,
            "velocity": 0.44881889763779526
          },
          {
            "duration": 0.26431699999999836,
            "durationTicks": 384,
            "midi": 69,
            "name": "A4",
            "ticks": 82944,
            "time": 57.092471999999994,
            "velocity": 0.44881889763779526
          },
          {
            "duration": 0.26431699999999836,
            "durationTicks": 384,
            "midi": 70,
            "name": "A#4",
            "ticks": 83328,
            "time": 57.35678899999999,
            "velocity": 0.44881889763779526
          },
          {
            "duration": 0.26431700000000546,
            "durationTicks": 384,
            "midi": 69,
            "name": "A4",
            "ticks": 83712,
            "time": 57.62110599999999,
            "velocity": 0.44881889763779526
          },
          {
            "duration": 0.26431699999999836,
            "durationTicks": 384,
            "midi": 67,
            "name": "G4",
            "ticks": 84096,
            "time": 57.885422999999996,
            "velocity": 0.44881889763779526
          },
          {
            "duration": 0.9251094999999978,
            "durationTicks": 1344,
            "midi": 69,
            "name": "A4",
            "ticks": 84480,
            "time": 58.149739999999994,
            "velocity": 0.44881889763779526
          },
          {
            "duration": 0.06607925000000137,
            "durationTicks": 96,
            "midi": 70,
            "name": "A#4",
            "ticks": 85824,
            "time": 59.07484949999999,
            "velocity": 0.44881889763779526
          },
          {
            "duration": 0.06607925000000137,
            "durationTicks": 96,
            "midi": 71,
            "name": "B4",
            "ticks": 85920,
            "time": 59.14092874999999,
            "velocity": 0.44881889763779526
          },
          {
            "duration": 0.06607925000000137,
            "durationTicks": 96,
            "midi": 72,
            "name": "C5",
            "ticks": 86016,
            "time": 59.207007999999995,
            "velocity": 0.44881889763779526
          },
          {
            "duration": 0.06607924999999426,
            "durationTicks": 96,
            "midi": 73,
            "name": "C#5",
            "ticks": 86112,
            "time": 59.273087249999996,
            "velocity": 0.44881889763779526
          },
          {
            "duration": 1.9823775000000055,
            "durationTicks": 2880,
            "midi": 74,
            "name": "D5",
            "ticks": 86208,
            "time": 59.33916649999999,
            "velocity": 0.44881889763779526
          },
          {
            "duration": 2.114535999999994,
            "durationTicks": 3072,
            "midi": 72,
            "name": "C5",
            "ticks": 89088,
            "time": 61.321543999999996,
            "velocity": 0.44881889763779526
          },
          {
            "duration": 0.26431700000000546,
            "durationTicks": 384,
            "midi": 79,
            "name": "G5",
            "ticks": 92160,
            "time": 63.43607999999999,
            "velocity": 0.44881889763779526
          },
          {
            "duration": 0.26431699999999836,
            "durationTicks": 384,
            "midi": 77,
            "name": "F5",
            "ticks": 92544,
            "time": 63.700396999999995,
            "velocity": 0.44881889763779526
          },
          {
            "duration": 0.26431699999999836,
            "durationTicks": 384,
            "midi": 76,
            "name": "E5",
            "ticks": 92928,
            "time": 63.964713999999994,
            "velocity": 0.44881889763779526
          },
          {
            "duration": 0.26431700000000546,
            "durationTicks": 384,
            "midi": 72,
            "name": "C5",
            "ticks": 93312,
            "time": 64.22903099999999,
            "velocity": 0.44881889763779526
          },
          {
            "duration": 0.792950999999988,
            "durationTicks": 1152,
            "midi": 74,
            "name": "D5",
            "ticks": 93696,
            "time": 64.493348,
            "velocity": 0.44881889763779526
          },
          {
            "duration": 0.26431700000000546,
            "durationTicks": 384,
            "midi": 76,
            "name": "E5",
            "ticks": 94848,
            "time": 65.28629899999999,
            "velocity": 0.44881889763779526
          },
          {
            "duration": 0.7929510000000022,
            "durationTicks": 1152,
            "midi": 74,
            "name": "D5",
            "ticks": 95232,
            "time": 65.55061599999999,
            "velocity": 0.44881889763779526
          },
          {
            "duration": 0.26431700000000546,
            "durationTicks": 384,
            "midi": 76,
            "name": "E5",
            "ticks": 96384,
            "time": 66.343567,
            "velocity": 0.3543307086614173
          },
          {
            "duration": 0.792950999999988,
            "durationTicks": 1152,
            "midi": 74,
            "name": "D5",
            "ticks": 96768,
            "time": 66.607884,
            "velocity": 0.28346456692913385
          },
          {
            "duration": 0.26431700000000546,
            "durationTicks": 384,
            "midi": 76,
            "name": "E5",
            "ticks": 97920,
            "time": 67.40083499999999,
            "velocity": 0.28346456692913385
          },
          {
            "duration": 0.7929510000000022,
            "durationTicks": 1152,
            "midi": 74,
            "name": "D5",
            "ticks": 98304,
            "time": 67.66515199999999,
            "velocity": 0.2125984251968504
          },
          {
            "duration": 0.26431699999999125,
            "durationTicks": 384,
            "midi": 76,
            "name": "E5",
            "ticks": 99456,
            "time": 68.458103,
            "velocity": 0.16535433070866143
          },
          {
            "duration": 1.0572680000000076,
            "durationTicks": 1536,
            "midi": 74,
            "name": "D5",
            "ticks": 99840,
            "time": 68.72241999999999,
            "velocity": 0.11811023622047244
          },
          {
            "duration": 0.06607925000000137,
            "durationTicks": 96,
            "midi": 72,
            "name": "C5",
            "ticks": 110592,
            "time": 76.123296,
            "velocity": 0.44881889763779526
          },
          {
            "duration": 0.06607924999998716,
            "durationTicks": 96,
            "midi": 73,
            "name": "C#5",
            "ticks": 110688,
            "time": 76.18937525,
            "velocity": 0.44881889763779526
          },
          {
            "duration": 1.9823775000000126,
            "durationTicks": 2880,
            "midi": 74,
            "name": "D5",
            "ticks": 110784,
            "time": 76.25545449999998,
            "velocity": 0.44881889763779526
          },
          {
            "duration": 1.5859019999999902,
            "durationTicks": 2304,
            "midi": 72,
            "name": "C5",
            "ticks": 113664,
            "time": 78.237832,
            "velocity": 0.44881889763779526
          },
          {
            "duration": 0.26431700000000546,
            "durationTicks": 384,
            "midi": 69,
            "name": "A4",
            "ticks": 115968,
            "time": 79.82373399999999,
            "velocity": 0.44881889763779526
          },
          {
            "duration": 0.26431699999999125,
            "durationTicks": 384,
            "midi": 70,
            "name": "A#4",
            "ticks": 116352,
            "time": 80.088051,
            "velocity": 0.44881889763779526
          },
          {
            "duration": 0.7929510000000022,
            "durationTicks": 1152,
            "midi": 69,
            "name": "A4",
            "ticks": 116736,
            "time": 80.35236799999998,
            "velocity": 0.44881889763779526
          },
          {
            "duration": 0.26431700000000546,
            "durationTicks": 384,
            "midi": 70,
            "name": "A#4",
            "ticks": 117888,
            "time": 81.14531899999999,
            "velocity": 0.44881889763779526
          },
          {
            "duration": 0.26431700000000546,
            "durationTicks": 384,
            "midi": 69,
            "name": "A4",
            "ticks": 118272,
            "time": 81.40963599999999,
            "velocity": 0.44881889763779526
          },
          {
            "duration": 0.26431699999999125,
            "durationTicks": 384,
            "midi": 62,
            "name": "D4",
            "ticks": 118656,
            "time": 81.673953,
            "velocity": 0.44881889763779526
          },
          {
            "duration": 0.26431700000000546,
            "durationTicks": 384,
            "midi": 64,
            "name": "E4",
            "ticks": 119040,
            "time": 81.93826999999999,
            "velocity": 0.44881889763779526
          },
          {
            "duration": 0.26431699999999125,
            "durationTicks": 384,
            "midi": 65,
            "name": "F4",
            "ticks": 119424,
            "time": 82.202587,
            "velocity": 0.44881889763779526
          },
          {
            "duration": 0.26431700000000546,
            "durationTicks": 384,
            "midi": 67,
            "name": "G4",
            "ticks": 119808,
            "time": 82.46690399999999,
            "velocity": 0.44881889763779526
          },
          {
            "duration": 0.26431700000000546,
            "durationTicks": 384,
            "midi": 65,
            "name": "F4",
            "ticks": 120192,
            "time": 82.73122099999999,
            "velocity": 0.44881889763779526
          },
          {
            "duration": 0.26431699999999125,
            "durationTicks": 384,
            "midi": 64,
            "name": "E4",
            "ticks": 120576,
            "time": 82.995538,
            "velocity": 0.44881889763779526
          },
          {
            "duration": 0.26431700000000546,
            "durationTicks": 384,
            "midi": 62,
            "name": "D4",
            "ticks": 120960,
            "time": 83.25985499999999,
            "velocity": 0.44881889763779526
          },
          {
            "duration": 0.06607925000000137,
            "durationTicks": 96,
            "midi": 70,
            "name": "A#4",
            "ticks": 121344,
            "time": 83.524172,
            "velocity": 0.44881889763779526
          },
          {
            "duration": 0.06607925000000137,
            "durationTicks": 96,
            "midi": 71,
            "name": "B4",
            "ticks": 121440,
            "time": 83.59025125,
            "velocity": 0.44881889763779526
          },
          {
            "duration": 0.6607924999999994,
            "durationTicks": 960,
            "midi": 72,
            "name": "C5",
            "ticks": 121536,
            "time": 83.6563305,
            "velocity": 0.44881889763779526
          },
          {
            "duration": 0.26431699999999125,
            "durationTicks": 384,
            "midi": 70,
            "name": "A#4",
            "ticks": 122496,
            "time": 84.317123,
            "velocity": 0.44881889763779526
          },
          {
            "duration": 2.114536000000001,
            "durationTicks": 3072,
            "midi": 69,
            "name": "A4",
            "ticks": 122880,
            "time": 84.58143999999999,
            "velocity": 0.44881889763779526
          },
          {
            "duration": 1.8502189999999956,
            "durationTicks": 2688,
            "midi": 65,
            "name": "F4",
            "ticks": 129024,
            "time": 88.81051199999999,
            "velocity": 0.44881889763779526
          },
          {
            "duration": 0.26431700000000546,
            "durationTicks": 384,
            "midi": 67,
            "name": "G4",
            "ticks": 131712,
            "time": 90.66073099999998,
            "velocity": 0.44881889763779526
          },
          {
            "duration": 0.26431700000000546,
            "durationTicks": 384,
            "midi": 69,
            "name": "A4",
            "ticks": 132096,
            "time": 90.92504799999999,
            "velocity": 0.44881889763779526
          },
          {
            "duration": 0.26431699999999125,
            "durationTicks": 384,
            "midi": 70,
            "name": "A#4",
            "ticks": 132480,
            "time": 91.189365,
            "velocity": 0.44881889763779526
          },
          {
            "duration": 0.26431700000000546,
            "durationTicks": 384,
            "midi": 69,
            "name": "A4",
            "ticks": 132864,
            "time": 91.45368199999999,
            "velocity": 0.44881889763779526
          },
          {
            "duration": 0.26431699999999125,
            "durationTicks": 384,
            "midi": 67,
            "name": "G4",
            "ticks": 133248,
            "time": 91.71799899999999,
            "velocity": 0.44881889763779526
          },
          {
            "duration": 0.9251095000000049,
            "durationTicks": 1344,
            "midi": 69,
            "name": "A4",
            "ticks": 133632,
            "time": 91.98231599999998,
            "velocity": 0.44881889763779526
          },
          {
            "duration": 0.06607925000000137,
            "durationTicks": 96,
            "midi": 70,
            "name": "A#4",
            "ticks": 134976,
            "time": 92.90742549999999,
            "velocity": 0.44881889763779526
          },
          {
            "duration": 0.06607925000000137,
            "durationTicks": 96,
            "midi": 71,
            "name": "B4",
            "ticks": 135072,
            "time": 92.97350474999999,
            "velocity": 0.44881889763779526
          },
          {
            "duration": 0.06607925000000137,
            "durationTicks": 96,
            "midi": 72,
            "name": "C5",
            "ticks": 135168,
            "time": 93.03958399999999,
            "velocity": 0.44881889763779526
          },
          {
            "duration": 0.06607925000000137,
            "durationTicks": 96,
            "midi": 73,
            "name": "C#5",
            "ticks": 135264,
            "time": 93.10566324999999,
            "velocity": 0.44881889763779526
          },
          {
            "duration": 1.9823774999999983,
            "durationTicks": 2880,
            "midi": 74,
            "name": "D5",
            "ticks": 135360,
            "time": 93.1717425,
            "velocity": 0.44881889763779526
          },
          {
            "duration": 2.114536000000001,
            "durationTicks": 3072,
            "midi": 72,
            "name": "C5",
            "ticks": 138240,
            "time": 95.15411999999999,
            "velocity": 0.44881889763779526
          },
          {
            "duration": 0.26431699999999125,
            "durationTicks": 384,
            "midi": 79,
            "name": "G5",
            "ticks": 141312,
            "time": 97.268656,
            "velocity": 0.44881889763779526
          },
          {
            "duration": 0.26431700000000546,
            "durationTicks": 384,
            "midi": 77,
            "name": "F5",
            "ticks": 141696,
            "time": 97.53297299999998,
            "velocity": 0.44881889763779526
          },
          {
            "duration": 0.26431700000000546,
            "durationTicks": 384,
            "midi": 76,
            "name": "E5",
            "ticks": 142080,
            "time": 97.79728999999999,
            "velocity": 0.44881889763779526
          },
          {
            "duration": 0.26431699999999125,
            "durationTicks": 384,
            "midi": 72,
            "name": "C5",
            "ticks": 142464,
            "time": 98.061607,
            "velocity": 0.44881889763779526
          },
          {
            "duration": 0.7929510000000022,
            "durationTicks": 1152,
            "midi": 74,
            "name": "D5",
            "ticks": 142848,
            "time": 98.32592399999999,
            "velocity": 0.44881889763779526
          },
          {
            "duration": 0.26431700000000546,
            "durationTicks": 384,
            "midi": 76,
            "name": "E5",
            "ticks": 144000,
            "time": 99.11887499999999,
            "velocity": 0.44881889763779526
          },
          {
            "duration": 0.792950999999988,
            "durationTicks": 1152,
            "midi": 74,
            "name": "D5",
            "ticks": 144384,
            "time": 99.383192,
            "velocity": 0.44881889763779526
          },
          {
            "duration": 0.26431700000000546,
            "durationTicks": 384,
            "midi": 76,
            "name": "E5",
            "ticks": 145536,
            "time": 100.17614299999998,
            "velocity": 0.3543307086614173
          },
          {
            "duration": 0.7929510000000022,
            "durationTicks": 1152,
            "midi": 74,
            "name": "D5",
            "ticks": 145920,
            "time": 100.44045999999999,
            "velocity": 0.28346456692913385
          },
          {
            "duration": 0.26431700000000546,
            "durationTicks": 384,
            "midi": 76,
            "name": "E5",
            "ticks": 147072,
            "time": 101.23341099999999,
            "velocity": 0.28346456692913385
          },
          {
            "duration": 0.792950999999988,
            "durationTicks": 1152,
            "midi": 74,
            "name": "D5",
            "ticks": 147456,
            "time": 101.497728,
            "velocity": 0.2125984251968504
          },
          {
            "duration": 0.26431700000000546,
            "durationTicks": 384,
            "midi": 76,
            "name": "E5",
            "ticks": 148608,
            "time": 102.29067899999998,
            "velocity": 0.16535433070866143
          },
          {
            "duration": 1.0572679999999934,
            "durationTicks": 1536,
            "midi": 74,
            "name": "D5",
            "ticks": 148992,
            "time": 102.55499599999999,
            "velocity": 0.11811023622047244
          },
          {
            "duration": 2.114536000000001,
            "durationTicks": 3072,
            "midi": 76,
            "name": "E5",
            "ticks": 150528,
            "time": 103.61226399999998,
            "velocity": 0.30708661417322836
          },
          {
            "duration": 2.114536000000001,
            "durationTicks": 3072,
            "midi": 77,
            "name": "F5",
            "ticks": 153600,
            "time": 105.72679999999998,
            "velocity": 0.33070866141732286
          },
          {
            "duration": 2.114536000000001,
            "durationTicks": 3072,
            "midi": 79,
            "name": "G5",
            "ticks": 156672,
            "time": 107.84133599999998,
            "velocity": 0.4015748031496063
          },
          {
            "duration": 2.114536000000001,
            "durationTicks": 3072,
            "midi": 81,
            "name": "A5",
            "ticks": 159744,
            "time": 109.95587199999999,
            "velocity": 0.4015748031496063
          },
          {
            "duration": 2.114536000000001,
            "durationTicks": 3072,
            "midi": 79,
            "name": "G5",
            "ticks": 162816,
            "time": 112.07040799999999,
            "velocity": 0.4015748031496063
          },
          {
            "duration": 0.06607925000000137,
            "durationTicks": 96,
            "midi": 83,
            "name": "B5",
            "ticks": 165888,
            "time": 114.18494399999999,
            "velocity": 0.4015748031496063
          },
          {
            "duration": 0.1982377500000041,
            "durationTicks": 288,
            "midi": 84,
            "name": "C6",
            "ticks": 165984,
            "time": 114.25102324999999,
            "velocity": 0.4015748031496063
          },
          {
            "duration": 0.26431699999999125,
            "durationTicks": 384,
            "midi": 82,
            "name": "A#5",
            "ticks": 166272,
            "time": 114.44926099999999,
            "velocity": 0.4015748031496063
          },
          {
            "duration": 0.26431700000000546,
            "durationTicks": 384,
            "midi": 81,
            "name": "A5",
            "ticks": 166656,
            "time": 114.71357799999998,
            "velocity": 0.4015748031496063
          },
          {
            "duration": 0.26431699999999125,
            "durationTicks": 384,
            "midi": 77,
            "name": "F5",
            "ticks": 167040,
            "time": 114.97789499999999,
            "velocity": 0.4015748031496063
          },
          {
            "duration": 1.8502190000000098,
            "durationTicks": 2688,
            "midi": 74,
            "name": "D5",
            "ticks": 167424,
            "time": 115.24221199999998,
            "velocity": 0.4015748031496063
          },
          {
            "duration": 0.26431699999999125,
            "durationTicks": 384,
            "midi": 74,
            "name": "D5",
            "ticks": 170112,
            "time": 117.09243099999999,
            "velocity": 0.4015748031496063
          },
          {
            "duration": 0.13215850000000273,
            "durationTicks": 192,
            "midi": 76,
            "name": "E5",
            "ticks": 170496,
            "time": 117.35674799999998,
            "velocity": 0.4015748031496063
          },
          {
            "duration": 0.13215850000000273,
            "durationTicks": 192,
            "midi": 74,
            "name": "D5",
            "ticks": 170688,
            "time": 117.48890649999998,
            "velocity": 0.4015748031496063
          },
          {
            "duration": 0.13215850000000273,
            "durationTicks": 192,
            "midi": 76,
            "name": "E5",
            "ticks": 170880,
            "time": 117.62106499999999,
            "velocity": 0.4015748031496063
          },
          {
            "duration": 0.13215850000000273,
            "durationTicks": 192,
            "midi": 77,
            "name": "F5",
            "ticks": 171072,
            "time": 117.75322349999999,
            "velocity": 0.4015748031496063
          },
          {
            "duration": 0.13215849999998852,
            "durationTicks": 192,
            "midi": 79,
            "name": "G5",
            "ticks": 171264,
            "time": 117.88538199999999,
            "velocity": 0.4015748031496063
          },
          {
            "duration": 0.13215850000000273,
            "durationTicks": 192,
            "midi": 77,
            "name": "F5",
            "ticks": 171456,
            "time": 118.01754049999998,
            "velocity": 0.4015748031496063
          },
          {
            "duration": 0.13215850000000273,
            "durationTicks": 192,
            "midi": 82,
            "name": "A#5",
            "ticks": 171648,
            "time": 118.14969899999998,
            "velocity": 0.4015748031496063
          },
          {
            "duration": 0.13215850000000273,
            "durationTicks": 192,
            "midi": 79,
            "name": "G5",
            "ticks": 171840,
            "time": 118.28185749999999,
            "velocity": 0.4015748031496063
          },
          {
            "duration": 1.5859019999999902,
            "durationTicks": 2304,
            "midi": 81,
            "name": "A5",
            "ticks": 172032,
            "time": 118.41401599999999,
            "velocity": 0.4015748031496063
          },
          {
            "duration": 0.13215850000000273,
            "durationTicks": 192,
            "midi": 82,
            "name": "A#5",
            "ticks": 174336,
            "time": 119.99991799999998,
            "velocity": 0.4015748031496063
          },
          {
            "duration": 0.13215850000000273,
            "durationTicks": 192,
            "midi": 81,
            "name": "A5",
            "ticks": 174528,
            "time": 120.13207649999998,
            "velocity": 0.4015748031496063
          },
          {
            "duration": 0.13215850000000273,
            "durationTicks": 192,
            "midi": 79,
            "name": "G5",
            "ticks": 174720,
            "time": 120.26423499999999,
            "velocity": 0.4015748031496063
          },
          {
            "duration": 0.13215850000000273,
            "durationTicks": 192,
            "midi": 77,
            "name": "F5",
            "ticks": 174912,
            "time": 120.39639349999999,
            "velocity": 0.4015748031496063
          },
          {
            "duration": 1.0572679999999934,
            "durationTicks": 1536,
            "midi": 79,
            "name": "G5",
            "ticks": 175104,
            "time": 120.52855199999999,
            "velocity": 0.4015748031496063
          },
          {
            "duration": 0.13215850000000273,
            "durationTicks": 192,
            "midi": 72,
            "name": "C5",
            "ticks": 176640,
            "time": 121.58581999999998,
            "velocity": 0.4015748031496063
          },
          {
            "duration": 0.13215850000000273,
            "durationTicks": 192,
            "midi": 74,
            "name": "D5",
            "ticks": 176832,
            "time": 121.71797849999999,
            "velocity": 0.4015748031496063
          },
          {
            "duration": 0.13215850000000273,
            "durationTicks": 192,
            "midi": 76,
            "name": "E5",
            "ticks": 177024,
            "time": 121.85013699999999,
            "velocity": 0.4015748031496063
          },
          {
            "duration": 0.13215849999998852,
            "durationTicks": 192,
            "midi": 74,
            "name": "D5",
            "ticks": 177216,
            "time": 121.98229549999999,
            "velocity": 0.4015748031496063
          },
          {
            "duration": 0.13215850000000273,
            "durationTicks": 192,
            "midi": 76,
            "name": "E5",
            "ticks": 177408,
            "time": 122.11445399999998,
            "velocity": 0.4015748031496063
          },
          {
            "duration": 0.13215850000000273,
            "durationTicks": 192,
            "midi": 77,
            "name": "F5",
            "ticks": 177600,
            "time": 122.24661249999998,
            "velocity": 0.4015748031496063
          },
          {
            "duration": 0.13215850000000273,
            "durationTicks": 192,
            "midi": 79,
            "name": "G5",
            "ticks": 177792,
            "time": 122.37877099999999,
            "velocity": 0.4015748031496063
          },
          {
            "duration": 0.13215850000000273,
            "durationTicks": 192,
            "midi": 77,
            "name": "F5",
            "ticks": 177984,
            "time": 122.51092949999999,
            "velocity": 0.4015748031496063
          },
          {
            "duration": 1.0572679999999934,
            "durationTicks": 1536,
            "midi": 84,
            "name": "C6",
            "ticks": 178176,
            "time": 122.64308799999999,
            "velocity": 0.4015748031496063
          },
          {
            "duration": 0.5286339999999967,
            "durationTicks": 768,
            "midi": 82,
            "name": "A#5",
            "ticks": 179712,
            "time": 123.70035599999999,
            "velocity": 0.4015748031496063
          },
          {
            "duration": 0.5286339999999967,
            "durationTicks": 768,
            "midi": 81,
            "name": "A5",
            "ticks": 180480,
            "time": 124.22898999999998,
            "velocity": 0.4015748031496063
          },
          {
            "duration": 1.0572680000000076,
            "durationTicks": 1536,
            "midi": 77,
            "name": "F5",
            "ticks": 181248,
            "time": 124.75762399999998,
            "velocity": 0.4015748031496063
          },
          {
            "duration": 0.26431700000000546,
            "durationTicks": 384,
            "midi": 79,
            "name": "G5",
            "ticks": 182784,
            "time": 125.81489199999999,
            "velocity": 0.4015748031496063
          },
          {
            "duration": 0.26431699999999125,
            "durationTicks": 384,
            "midi": 77,
            "name": "F5",
            "ticks": 183168,
            "time": 126.07920899999999,
            "velocity": 0.4015748031496063
          },
          {
            "duration": 0.26431700000000546,
            "durationTicks": 384,
            "midi": 76,
            "name": "E5",
            "ticks": 183552,
            "time": 126.34352599999998,
            "velocity": 0.4015748031496063
          },
          {
            "duration": 0.26431699999999125,
            "durationTicks": 384,
            "midi": 79,
            "name": "G5",
            "ticks": 183936,
            "time": 126.60784299999999,
            "velocity": 0.4015748031496063
          },
          {
            "duration": 2.1145360000000153,
            "durationTicks": 3072,
            "midi": 81,
            "name": "A5",
            "ticks": 184320,
            "time": 126.87215999999998,
            "velocity": 0.4015748031496063
          },
          {
            "duration": 2.114535999999987,
            "durationTicks": 3072,
            "midi": 79,
            "name": "G5",
            "ticks": 187392,
            "time": 128.986696,
            "velocity": 0.4015748031496063
          },
          {
            "duration": 0.06607925000000137,
            "durationTicks": 96,
            "midi": 83,
            "name": "B5",
            "ticks": 190464,
            "time": 131.10123199999998,
            "velocity": 0.4015748031496063
          },
          {
            "duration": 0.1982377500000041,
            "durationTicks": 288,
            "midi": 84,
            "name": "C6",
            "ticks": 190560,
            "time": 131.16731124999998,
            "velocity": 0.4015748031496063
          },
          {
            "duration": 0.26431700000000546,
            "durationTicks": 384,
            "midi": 82,
            "name": "A#5",
            "ticks": 190848,
            "time": 131.365549,
            "velocity": 0.4015748031496063
          },
          {
            "duration": 0.26431700000000546,
            "durationTicks": 384,
            "midi": 81,
            "name": "A5",
            "ticks": 191232,
            "time": 131.629866,
            "velocity": 0.4015748031496063
          },
          {
            "duration": 0.26431699999997704,
            "durationTicks": 384,
            "midi": 77,
            "name": "F5",
            "ticks": 191616,
            "time": 131.894183,
            "velocity": 0.4015748031496063
          },
          {
            "duration": 1.8502190000000098,
            "durationTicks": 2688,
            "midi": 74,
            "name": "D5",
            "ticks": 192000,
            "time": 132.15849999999998,
            "velocity": 0.4015748031496063
          },
          {
            "duration": 0.26431700000000546,
            "durationTicks": 384,
            "midi": 74,
            "name": "D5",
            "ticks": 194688,
            "time": 134.00871899999999,
            "velocity": 0.4015748031496063
          },
          {
            "duration": 0.13215850000000273,
            "durationTicks": 192,
            "midi": 76,
            "name": "E5",
            "ticks": 195072,
            "time": 134.273036,
            "velocity": 0.4015748031496063
          },
          {
            "duration": 0.13215850000000273,
            "durationTicks": 192,
            "midi": 74,
            "name": "D5",
            "ticks": 195264,
            "time": 134.4051945,
            "velocity": 0.4015748031496063
          },
          {
            "duration": 0.1321584999999743,
            "durationTicks": 192,
            "midi": 76,
            "name": "E5",
            "ticks": 195456,
            "time": 134.537353,
            "velocity": 0.4015748031496063
          },
          {
            "duration": 0.13215850000000273,
            "durationTicks": 192,
            "midi": 77,
            "name": "F5",
            "ticks": 195648,
            "time": 134.66951149999997,
            "velocity": 0.4015748031496063
          },
          {
            "duration": 0.13215850000000273,
            "durationTicks": 192,
            "midi": 79,
            "name": "G5",
            "ticks": 195840,
            "time": 134.80166999999997,
            "velocity": 0.4015748031496063
          },
          {
            "duration": 0.13215850000000273,
            "durationTicks": 192,
            "midi": 77,
            "name": "F5",
            "ticks": 196032,
            "time": 134.93382849999998,
            "velocity": 0.4015748031496063
          },
          {
            "duration": 0.13215850000000273,
            "durationTicks": 192,
            "midi": 82,
            "name": "A#5",
            "ticks": 196224,
            "time": 135.06598699999998,
            "velocity": 0.4015748031496063
          },
          {
            "duration": 0.13215850000000273,
            "durationTicks": 192,
            "midi": 79,
            "name": "G5",
            "ticks": 196416,
            "time": 135.19814549999998,
            "velocity": 0.4015748031496063
          },
          {
            "duration": 1.5859020000000044,
            "durationTicks": 2304,
            "midi": 81,
            "name": "A5",
            "ticks": 196608,
            "time": 135.33030399999998,
            "velocity": 0.4015748031496063
          },
          {
            "duration": 0.13215850000000273,
            "durationTicks": 192,
            "midi": 82,
            "name": "A#5",
            "ticks": 198912,
            "time": 136.916206,
            "velocity": 0.4015748031496063
          },
          {
            "duration": 0.13215850000000273,
            "durationTicks": 192,
            "midi": 81,
            "name": "A5",
            "ticks": 199104,
            "time": 137.0483645,
            "velocity": 0.4015748031496063
          },
          {
            "duration": 0.13215850000000273,
            "durationTicks": 192,
            "midi": 79,
            "name": "G5",
            "ticks": 199296,
            "time": 137.180523,
            "velocity": 0.4015748031496063
          },
          {
            "duration": 0.1321584999999743,
            "durationTicks": 192,
            "midi": 77,
            "name": "F5",
            "ticks": 199488,
            "time": 137.3126815,
            "velocity": 0.4015748031496063
          },
          {
            "duration": 1.0572680000000219,
            "durationTicks": 1536,
            "midi": 79,
            "name": "G5",
            "ticks": 199680,
            "time": 137.44483999999997,
            "velocity": 0.4015748031496063
          },
          {
            "duration": 0.13215850000000273,
            "durationTicks": 192,
            "midi": 72,
            "name": "C5",
            "ticks": 201216,
            "time": 138.502108,
            "velocity": 0.4015748031496063
          },
          {
            "duration": 0.1321584999999743,
            "durationTicks": 192,
            "midi": 74,
            "name": "D5",
            "ticks": 201408,
            "time": 138.6342665,
            "velocity": 0.4015748031496063
          },
          {
            "duration": 0.13215850000000273,
            "durationTicks": 192,
            "midi": 76,
            "name": "E5",
            "ticks": 201600,
            "time": 138.76642499999997,
            "velocity": 0.4015748031496063
          },
          {
            "duration": 0.13215850000000273,
            "durationTicks": 192,
            "midi": 74,
            "name": "D5",
            "ticks": 201792,
            "time": 138.89858349999997,
            "velocity": 0.4015748031496063
          },
          {
            "duration": 0.13215850000000273,
            "durationTicks": 192,
            "midi": 76,
            "name": "E5",
            "ticks": 201984,
            "time": 139.03074199999998,
            "velocity": 0.4015748031496063
          },
          {
            "duration": 0.13215850000000273,
            "durationTicks": 192,
            "midi": 77,
            "name": "F5",
            "ticks": 202176,
            "time": 139.16290049999998,
            "velocity": 0.4015748031496063
          },
          {
            "duration": 0.13215850000000273,
            "durationTicks": 192,
            "midi": 79,
            "name": "G5",
            "ticks": 202368,
            "time": 139.29505899999998,
            "velocity": 0.4015748031496063
          },
          {
            "duration": 0.13215850000000273,
            "durationTicks": 192,
            "midi": 77,
            "name": "F5",
            "ticks": 202560,
            "time": 139.42721749999998,
            "velocity": 0.4015748031496063
          },
          {
            "duration": 1.0572679999999934,
            "durationTicks": 1536,
            "midi": 84,
            "name": "C6",
            "ticks": 202752,
            "time": 139.559376,
            "velocity": 0.4015748031496063
          },
          {
            "duration": 0.5286340000000109,
            "durationTicks": 768,
            "midi": 82,
            "name": "A#5",
            "ticks": 204288,
            "time": 140.61664399999998,
            "velocity": 0.4015748031496063
          },
          {
            "duration": 0.5286339999999825,
            "durationTicks": 768,
            "midi": 81,
            "name": "A5",
            "ticks": 205056,
            "time": 141.145278,
            "velocity": 0.4015748031496063
          },
          {
            "duration": 1.0572680000000219,
            "durationTicks": 1536,
            "midi": 77,
            "name": "F5",
            "ticks": 205824,
            "time": 141.67391199999997,
            "velocity": 0.4015748031496063
          },
          {
            "duration": 0.3964754999999798,
            "durationTicks": 576,
            "midi": 79,
            "name": "G5",
            "ticks": 207360,
            "time": 142.73118,
            "velocity": 0.4015748031496063
          },
          {
            "duration": 0.3964755000000082,
            "durationTicks": 576,
            "midi": 77,
            "name": "F5",
            "ticks": 207936,
            "time": 143.12765549999997,
            "velocity": 0.4015748031496063
          },
          {
            "duration": 0.3964755000000082,
            "durationTicks": 576,
            "midi": 76,
            "name": "E5",
            "ticks": 208512,
            "time": 143.52413099999998,
            "velocity": 0.4015748031496063
          },
          {
            "duration": 0.3964754999999798,
            "durationTicks": 576,
            "midi": 79,
            "name": "G5",
            "ticks": 209088,
            "time": 143.9206065,
            "velocity": 0.4015748031496063
          },
          {
            "duration": 2.1145360000000153,
            "durationTicks": 3072,
            "midi": 77,
            "name": "F5",
            "ticks": 209664,
            "time": 144.31708199999997,
            "velocity": 0.4015748031496063
          }
        ],
        "endOfTrackTicks": 212736
      },
      {
        "channel": 1,
        "controlChanges": {},
        "pitchBends": [],
        "instrument": {
          "family": "brass",
          "number": 57,
          "name": "trombone"
        },
        "name": "Trombone",
        "notes": [
          {
            "duration": 7.400875999999999,
            "durationTicks": 10752,
            "midi": 38,
            "name": "D2",
            "ticks": 0,
            "time": 0,
            "velocity": 0.28346456692913385
          },
          {
            "duration": 1.0572679999999997,
            "durationTicks": 1536,
            "midi": 36,
            "name": "C2",
            "ticks": 10752,
            "time": 7.400875999999999,
            "velocity": 0.28346456692913385
          },
          {
            "duration": 7.4008759999999985,
            "durationTicks": 10752,
            "midi": 38,
            "name": "D2",
            "ticks": 12288,
            "time": 8.458143999999999,
            "velocity": 0.28346456692913385
          },
          {
            "duration": 1.0572680000000005,
            "durationTicks": 1536,
            "midi": 36,
            "name": "C2",
            "ticks": 23040,
            "time": 15.859019999999997,
            "velocity": 0.28346456692913385
          },
          {
            "duration": 7.400876,
            "durationTicks": 10752,
            "midi": 38,
            "name": "D2",
            "ticks": 24576,
            "time": 16.916287999999998,
            "velocity": 0.28346456692913385
          },
          {
            "duration": 1.0572680000000005,
            "durationTicks": 1536,
            "midi": 36,
            "name": "C2",
            "ticks": 35328,
            "time": 24.317164,
            "velocity": 0.28346456692913385
          },
          {
            "duration": 7.400875999999997,
            "durationTicks": 10752,
            "midi": 38,
            "name": "D2",
            "ticks": 36864,
            "time": 25.374432,
            "velocity": 0.28346456692913385
          },
          {
            "duration": 1.0572680000000005,
            "durationTicks": 1536,
            "midi": 36,
            "name": "C2",
            "ticks": 47616,
            "time": 32.775307999999995,
            "velocity": 0.28346456692913385
          },
          {
            "duration": 7.400875999999997,
            "durationTicks": 10752,
            "midi": 38,
            "name": "D2",
            "ticks": 49152,
            "time": 33.832575999999996,
            "velocity": 0.28346456692913385
          },
          {
            "duration": 1.0572680000000005,
            "durationTicks": 1536,
            "midi": 36,
            "name": "C2",
            "ticks": 59904,
            "time": 41.23345199999999,
            "velocity": 0.28346456692913385
          },
          {
            "duration": 7.400876000000004,
            "durationTicks": 10752,
            "midi": 38,
            "name": "D2",
            "ticks": 61440,
            "time": 42.29071999999999,
            "velocity": 0.28346456692913385
          },
          {
            "duration": 1.0572680000000005,
            "durationTicks": 1536,
            "midi": 36,
            "name": "C2",
            "ticks": 72192,
            "time": 49.691596,
            "velocity": 0.28346456692913385
          },
          {
            "duration": 7.400875999999997,
            "durationTicks": 10752,
            "midi": 38,
            "name": "D2",
            "ticks": 73728,
            "time": 50.748864,
            "velocity": 0.28346456692913385
          },
          {
            "duration": 1.0572680000000005,
            "durationTicks": 1536,
            "midi": 36,
            "name": "C2",
            "ticks": 84480,
            "time": 58.149739999999994,
            "velocity": 0.28346456692913385
          },
          {
            "duration": 7.400876000000004,
            "durationTicks": 10752,
            "midi": 38,
            "name": "D2",
            "ticks": 86016,
            "time": 59.207007999999995,
            "velocity": 0.28346456692913385
          },
          {
            "duration": 1.0572679999999934,
            "durationTicks": 1536,
            "midi": 36,
            "name": "C2",
            "ticks": 96768,
            "time": 66.607884,
            "velocity": 0.28346456692913385
          },
          {
            "duration": 7.400875999999997,
            "durationTicks": 10752,
            "midi": 38,
            "name": "D2",
            "ticks": 98304,
            "time": 67.66515199999999,
            "velocity": 0.28346456692913385
          },
          {
            "duration": 1.0572680000000076,
            "durationTicks": 1536,
            "midi": 36,
            "name": "C2",
            "ticks": 109056,
            "time": 75.06602799999999,
            "velocity": 0.28346456692913385
          },
          {
            "duration": 7.400875999999997,
            "durationTicks": 10752,
            "midi": 38,
            "name": "D2",
            "ticks": 110592,
            "time": 76.123296,
            "velocity": 0.28346456692913385
          },
          {
            "duration": 1.0572679999999934,
            "durationTicks": 1536,
            "midi": 36,
            "name": "C2",
            "ticks": 121344,
            "time": 83.524172,
            "velocity": 0.28346456692913385
          },
          {
            "duration": 7.400875999999997,
            "durationTicks": 10752,
            "midi": 38,
            "name": "D2",
            "ticks": 122880,
            "time": 84.58143999999999,
            "velocity": 0.28346456692913385
          },
          {
            "duration": 1.0572680000000076,
            "durationTicks": 1536,
            "midi": 36,
            "name": "C2",
            "ticks": 133632,
            "time": 91.98231599999998,
            "velocity": 0.28346456692913385
          },
          {
            "duration": 7.400875999999997,
            "durationTicks": 10752,
            "midi": 38,
            "name": "D2",
            "ticks": 135168,
            "time": 93.03958399999999,
            "velocity": 0.28346456692913385
          },
          {
            "duration": 1.0572680000000076,
            "durationTicks": 1536,
            "midi": 36,
            "name": "C2",
            "ticks": 145920,
            "time": 100.44045999999999,
            "velocity": 0.28346456692913385
          },
          {
            "duration": 7.400875999999997,
            "durationTicks": 10752,
            "midi": 38,
            "name": "D2",
            "ticks": 147456,
            "time": 101.497728,
            "velocity": 0.28346456692913385
          },
          {
            "duration": 1.0572679999999934,
            "durationTicks": 1536,
            "midi": 36,
            "name": "C2",
            "ticks": 158208,
            "time": 108.89860399999999,
            "velocity": 0.28346456692913385
          }
        ],
        "endOfTrackTicks": 159744
      },
      {
        "channel": 2,
        "controlChanges": {},
        "pitchBends": [],
        "instrument": {
          "family": "strings",
          "number": 45,
          "name": "pizzicato strings"
        },
        "name": "Concert Harp",
        "notes": [
          {
            "duration": 0.26431699999999997,
            "durationTicks": 384,
            "midi": 50,
            "name": "D3",
            "ticks": 0,
            "time": 0,
            "velocity": 0.6141732283464567
          },
          {
            "duration": 0.26431699999999997,
            "durationTicks": 384,
            "midi": 57,
            "name": "A3",
            "ticks": 384,
            "time": 0.26431699999999997,
            "velocity": 0.6141732283464567
          },
          {
            "duration": 0.264317,
            "durationTicks": 384,
            "midi": 62,
            "name": "D4",
            "ticks": 768,
            "time": 0.5286339999999999,
            "velocity": 0.6141732283464567
          },
          {
            "duration": 0.2643169999999999,
            "durationTicks": 384,
            "midi": 57,
            "name": "A3",
            "ticks": 1152,
            "time": 0.792951,
            "velocity": 0.6141732283464567
          },
          {
            "duration": 1.0572679999999999,
            "durationTicks": 1536,
            "midi": 64,
            "name": "E4",
            "ticks": 1536,
            "time": 1.0572679999999999,
            "velocity": 0.6141732283464567
          },
          {
            "duration": 0.26431700000000014,
            "durationTicks": 384,
            "midi": 50,
            "name": "D3",
            "ticks": 3072,
            "time": 2.1145359999999997,
            "velocity": 0.6141732283464567
          },
          {
            "duration": 0.2643169999999997,
            "durationTicks": 384,
            "midi": 57,
            "name": "A3",
            "ticks": 3456,
            "time": 2.378853,
            "velocity": 0.6141732283464567
          },
          {
            "duration": 0.26431700000000014,
            "durationTicks": 384,
            "midi": 62,
            "name": "D4",
            "ticks": 3840,
            "time": 2.6431699999999996,
            "velocity": 0.6141732283464567
          },
          {
            "duration": 0.26431700000000014,
            "durationTicks": 384,
            "midi": 57,
            "name": "A3",
            "ticks": 4224,
            "time": 2.9074869999999997,
            "velocity": 0.6141732283464567
          },
          {
            "duration": 0.5286339999999998,
            "durationTicks": 768,
            "midi": 67,
            "name": "G4",
            "ticks": 4608,
            "time": 3.171804,
            "velocity": 0.6141732283464567
          },
          {
            "duration": 0.5286339999999998,
            "durationTicks": 768,
            "midi": 65,
            "name": "F4",
            "ticks": 5376,
            "time": 3.7004379999999997,
            "velocity": 0.6141732283464567
          },
          {
            "duration": 0.26431700000000014,
            "durationTicks": 384,
            "midi": 50,
            "name": "D3",
            "ticks": 6144,
            "time": 4.2290719999999995,
            "velocity": 0.6141732283464567
          },
          {
            "duration": 0.26431700000000014,
            "durationTicks": 384,
            "midi": 57,
            "name": "A3",
            "ticks": 6528,
            "time": 4.493389,
            "velocity": 0.6141732283464567
          },
          {
            "duration": 0.26431699999999925,
            "durationTicks": 384,
            "midi": 62,
            "name": "D4",
            "ticks": 6912,
            "time": 4.757706,
            "velocity": 0.6141732283464567
          },
          {
            "duration": 0.26431700000000014,
            "durationTicks": 384,
            "midi": 57,
            "name": "A3",
            "ticks": 7296,
            "time": 5.022022999999999,
            "velocity": 0.6141732283464567
          },
          {
            "duration": 1.0572680000000005,
            "durationTicks": 1536,
            "midi": 64,
            "name": "E4",
            "ticks": 7680,
            "time": 5.286339999999999,
            "velocity": 0.6141732283464567
          },
          {
            "duration": 0.26431699999999925,
            "durationTicks": 384,
            "midi": 50,
            "name": "D3",
            "ticks": 9216,
            "time": 6.343608,
            "velocity": 0.6141732283464567
          },
          {
            "duration": 0.26431700000000014,
            "durationTicks": 384,
            "midi": 57,
            "name": "A3",
            "ticks": 9600,
            "time": 6.607924999999999,
            "velocity": 0.6141732283464567
          },
          {
            "duration": 0.26431700000000014,
            "durationTicks": 384,
            "midi": 62,
            "name": "D4",
            "ticks": 9984,
            "time": 6.872241999999999,
            "velocity": 0.6141732283464567
          },
          {
            "duration": 0.26431700000000014,
            "durationTicks": 384,
            "midi": 57,
            "name": "A3",
            "ticks": 10368,
            "time": 7.136558999999999,
            "velocity": 0.6141732283464567
          },
          {
            "duration": 0.5286339999999994,
            "durationTicks": 768,
            "midi": 65,
            "name": "F4",
            "ticks": 10752,
            "time": 7.400875999999999,
            "velocity": 0.6141732283464567
          },
          {
            "duration": 0.26431700000000014,
            "durationTicks": 384,
            "midi": 67,
            "name": "G4",
            "ticks": 11520,
            "time": 7.929509999999999,
            "velocity": 0.6141732283464567
          },
          {
            "duration": 0.26431700000000014,
            "durationTicks": 384,
            "midi": 65,
            "name": "F4",
            "ticks": 11904,
            "time": 8.193826999999999,
            "velocity": 0.6141732283464567
          },
          {
            "duration": 0.26431700000000014,
            "durationTicks": 384,
            "midi": 50,
            "name": "D3",
            "ticks": 12288,
            "time": 8.458143999999999,
            "velocity": 0.6141732283464567
          },
          {
            "duration": 0.26431700000000014,
            "durationTicks": 384,
            "midi": 57,
            "name": "A3",
            "ticks": 12672,
            "time": 8.722461,
            "velocity": 0.6141732283464567
          },
          {
            "duration": 0.26431700000000014,
            "durationTicks": 384,
            "midi": 62,
            "name": "D4",
            "ticks": 13056,
            "time": 8.986778,
            "velocity": 0.6141732283464567
          },
          {
            "duration": 0.26431700000000014,
            "durationTicks": 384,
            "midi": 57,
            "name": "A3",
            "ticks": 13440,
            "time": 9.251095,
            "velocity": 0.6141732283464567
          },
          {
            "duration": 1.0572679999999988,
            "durationTicks": 1536,
            "midi": 64,
            "name": "E4",
            "ticks": 13824,
            "time": 9.515412,
            "velocity": 0.6141732283464567
          },
          {
            "duration": 0.26431700000000014,
            "durationTicks": 384,
            "midi": 50,
            "name": "D3",
            "ticks": 15360,
            "time": 10.572679999999998,
            "velocity": 0.6141732283464567
          },
          {
            "duration": 0.26431700000000014,
            "durationTicks": 384,
            "midi": 57,
            "name": "A3",
            "ticks": 15744,
            "time": 10.836996999999998,
            "velocity": 0.6141732283464567
          },
          {
            "duration": 0.26431700000000014,
            "durationTicks": 384,
            "midi": 62,
            "name": "D4",
            "ticks": 16128,
            "time": 11.101313999999999,
            "velocity": 0.6141732283464567
          },
          {
            "duration": 0.26431700000000014,
            "durationTicks": 384,
            "midi": 57,
            "name": "A3",
            "ticks": 16512,
            "time": 11.365630999999999,
            "velocity": 0.6141732283464567
          },
          {
            "duration": 0.5286340000000003,
            "durationTicks": 768,
            "midi": 67,
            "name": "G4",
            "ticks": 16896,
            "time": 11.629947999999999,
            "velocity": 0.6141732283464567
          },
          {
            "duration": 0.5286340000000003,
            "durationTicks": 768,
            "midi": 65,
            "name": "F4",
            "ticks": 17664,
            "time": 12.158582,
            "velocity": 0.6141732283464567
          },
          {
            "duration": 0.26431699999999836,
            "durationTicks": 384,
            "midi": 50,
            "name": "D3",
            "ticks": 18432,
            "time": 12.687216,
            "velocity": 0.6141732283464567
          },
          {
            "duration": 0.26431700000000014,
            "durationTicks": 384,
            "midi": 57,
            "name": "A3",
            "ticks": 18816,
            "time": 12.951532999999998,
            "velocity": 0.6141732283464567
          },
          {
            "duration": 0.26431700000000014,
            "durationTicks": 384,
            "midi": 62,
            "name": "D4",
            "ticks": 19200,
            "time": 13.215849999999998,
            "velocity": 0.6141732283464567
          },
          {
            "duration": 0.26431700000000014,
            "durationTicks": 384,
            "midi": 57,
            "name": "A3",
            "ticks": 19584,
            "time": 13.480166999999998,
            "velocity": 0.6141732283464567
          },
          {
            "duration": 1.0572680000000005,
            "durationTicks": 1536,
            "midi": 64,
            "name": "E4",
            "ticks": 19968,
            "time": 13.744483999999998,
            "velocity": 0.6141732283464567
          },
          {
            "duration": 0.26431700000000014,
            "durationTicks": 384,
            "midi": 50,
            "name": "D3",
            "ticks": 21504,
            "time": 14.801751999999999,
            "velocity": 0.6141732283464567
          },
          {
            "duration": 0.26431700000000014,
            "durationTicks": 384,
            "midi": 57,
            "name": "A3",
            "ticks": 21888,
            "time": 15.066068999999999,
            "velocity": 0.6141732283464567
          },
          {
            "duration": 0.26431699999999836,
            "durationTicks": 384,
            "midi": 62,
            "name": "D4",
            "ticks": 22272,
            "time": 15.330385999999999,
            "velocity": 0.6141732283464567
          },
          {
            "duration": 0.26431700000000014,
            "durationTicks": 384,
            "midi": 57,
            "name": "A3",
            "ticks": 22656,
            "time": 15.594702999999997,
            "velocity": 0.6141732283464567
          },
          {
            "duration": 0.5286340000000003,
            "durationTicks": 768,
            "midi": 65,
            "name": "F4",
            "ticks": 23040,
            "time": 15.859019999999997,
            "velocity": 0.6141732283464567
          },
          {
            "duration": 0.5286340000000003,
            "durationTicks": 768,
            "midi": 60,
            "name": "C4",
            "ticks": 23808,
            "time": 16.387653999999998,
            "velocity": 0.6141732283464567
          },
          {
            "duration": 0.26431699999999836,
            "durationTicks": 384,
            "midi": 50,
            "name": "D3",
            "ticks": 24576,
            "time": 16.916287999999998,
            "velocity": 0.6141732283464567
          },
          {
            "duration": 0.2643170000000019,
            "durationTicks": 384,
            "midi": 57,
            "name": "A3",
            "ticks": 24960,
            "time": 17.180604999999996,
            "velocity": 0.6141732283464567
          },
          {
            "duration": 0.26431699999999836,
            "durationTicks": 384,
            "midi": 62,
            "name": "D4",
            "ticks": 25344,
            "time": 17.444922,
            "velocity": 0.6141732283464567
          },
          {
            "duration": 0.2643170000000019,
            "durationTicks": 384,
            "midi": 57,
            "name": "A3",
            "ticks": 25728,
            "time": 17.709238999999997,
            "velocity": 0.6141732283464567
          },
          {
            "duration": 1.0572680000000005,
            "durationTicks": 1536,
            "midi": 64,
            "name": "E4",
            "ticks": 26112,
            "time": 17.973556,
            "velocity": 0.6141732283464567
          },
          {
            "duration": 0.26431699999999836,
            "durationTicks": 384,
            "midi": 50,
            "name": "D3",
            "ticks": 27648,
            "time": 19.030824,
            "velocity": 0.6141732283464567
          },
          {
            "duration": 0.2643170000000019,
            "durationTicks": 384,
            "midi": 57,
            "name": "A3",
            "ticks": 28032,
            "time": 19.295140999999997,
            "velocity": 0.6141732283464567
          },
          {
            "duration": 0.26431699999999836,
            "durationTicks": 384,
            "midi": 62,
            "name": "D4",
            "ticks": 28416,
            "time": 19.559458,
            "velocity": 0.6141732283464567
          },
          {
            "duration": 0.26431699999999836,
            "durationTicks": 384,
            "midi": 57,
            "name": "A3",
            "ticks": 28800,
            "time": 19.823774999999998,
            "velocity": 0.6141732283464567
          },
          {
            "duration": 0.5286340000000003,
            "durationTicks": 768,
            "midi": 67,
            "name": "G4",
            "ticks": 29184,
            "time": 20.088091999999996,
            "velocity": 0.6141732283464567
          },
          {
            "duration": 0.5286340000000003,
            "durationTicks": 768,
            "midi": 65,
            "name": "F4",
            "ticks": 29952,
            "time": 20.616725999999996,
            "velocity": 0.6141732283464567
          },
          {
            "duration": 0.2643170000000019,
            "durationTicks": 384,
            "midi": 50,
            "name": "D3",
            "ticks": 30720,
            "time": 21.145359999999997,
            "velocity": 0.6141732283464567
          },
          {
            "duration": 0.26431699999999836,
            "durationTicks": 384,
            "midi": 57,
            "name": "A3",
            "ticks": 31104,
            "time": 21.409677,
            "velocity": 0.6141732283464567
          },
          {
            "duration": 0.2643170000000019,
            "durationTicks": 384,
            "midi": 62,
            "name": "D4",
            "ticks": 31488,
            "time": 21.673993999999997,
            "velocity": 0.6141732283464567
          },
          {
            "duration": 0.26431699999999836,
            "durationTicks": 384,
            "midi": 57,
            "name": "A3",
            "ticks": 31872,
            "time": 21.938311,
            "velocity": 0.6141732283464567
          },
          {
            "duration": 1.0572680000000005,
            "durationTicks": 1536,
            "midi": 64,
            "name": "E4",
            "ticks": 32256,
            "time": 22.202627999999997,
            "velocity": 0.6141732283464567
          },
          {
            "duration": 0.26431699999999836,
            "durationTicks": 384,
            "midi": 50,
            "name": "D3",
            "ticks": 33792,
            "time": 23.259895999999998,
            "velocity": 0.6141732283464567
          },
          {
            "duration": 0.2643170000000019,
            "durationTicks": 384,
            "midi": 57,
            "name": "A3",
            "ticks": 34176,
            "time": 23.524212999999996,
            "velocity": 0.6141732283464567
          },
          {
            "duration": 0.26431699999999836,
            "durationTicks": 384,
            "midi": 62,
            "name": "D4",
            "ticks": 34560,
            "time": 23.788529999999998,
            "velocity": 0.6141732283464567
          },
          {
            "duration": 0.2643170000000019,
            "durationTicks": 384,
            "midi": 57,
            "name": "A3",
            "ticks": 34944,
            "time": 24.052846999999996,
            "velocity": 0.6141732283464567
          },
          {
            "duration": 0.5286340000000003,
            "durationTicks": 768,
            "midi": 65,
            "name": "F4",
            "ticks": 35328,
            "time": 24.317164,
            "velocity": 0.6141732283464567
          },
          {
            "duration": 0.26431699999999836,
            "durationTicks": 384,
            "midi": 67,
            "name": "G4",
            "ticks": 36096,
            "time": 24.845798,
            "velocity": 0.6141732283464567
          },
          {
            "duration": 0.2643170000000019,
            "durationTicks": 384,
            "midi": 65,
            "name": "F4",
            "ticks": 36480,
            "time": 25.110114999999997,
            "velocity": 0.6141732283464567
          },
          {
            "duration": 0.26431699999999836,
            "durationTicks": 384,
            "midi": 50,
            "name": "D3",
            "ticks": 36864,
            "time": 25.374432,
            "velocity": 0.6141732283464567
          },
          {
            "duration": 0.26431699999999836,
            "durationTicks": 384,
            "midi": 57,
            "name": "A3",
            "ticks": 37248,
            "time": 25.638748999999997,
            "velocity": 0.6141732283464567
          },
          {
            "duration": 0.2643170000000019,
            "durationTicks": 384,
            "midi": 62,
            "name": "D4",
            "ticks": 37632,
            "time": 25.903065999999995,
            "velocity": 0.6141732283464567
          },
          {
            "duration": 0.26431699999999836,
            "durationTicks": 384,
            "midi": 57,
            "name": "A3",
            "ticks": 38016,
            "time": 26.167382999999997,
            "velocity": 0.6141732283464567
          },
          {
            "duration": 1.0572680000000005,
            "durationTicks": 1536,
            "midi": 64,
            "name": "E4",
            "ticks": 38400,
            "time": 26.431699999999996,
            "velocity": 0.6141732283464567
          },
          {
            "duration": 0.2643170000000019,
            "durationTicks": 384,
            "midi": 50,
            "name": "D3",
            "ticks": 39936,
            "time": 27.488967999999996,
            "velocity": 0.6141732283464567
          },
          {
            "duration": 0.26431699999999836,
            "durationTicks": 384,
            "midi": 57,
            "name": "A3",
            "ticks": 40320,
            "time": 27.753284999999998,
            "velocity": 0.6141732283464567
          },
          {
            "duration": 0.26431699999999836,
            "durationTicks": 384,
            "midi": 62,
            "name": "D4",
            "ticks": 40704,
            "time": 28.017601999999997,
            "velocity": 0.6141732283464567
          },
          {
            "duration": 0.2643170000000019,
            "durationTicks": 384,
            "midi": 57,
            "name": "A3",
            "ticks": 41088,
            "time": 28.281918999999995,
            "velocity": 0.6141732283464567
          },
          {
            "duration": 0.5286340000000003,
            "durationTicks": 768,
            "midi": 67,
            "name": "G4",
            "ticks": 41472,
            "time": 28.546235999999997,
            "velocity": 0.6141732283464567
          },
          {
            "duration": 0.5286340000000003,
            "durationTicks": 768,
            "midi": 65,
            "name": "F4",
            "ticks": 42240,
            "time": 29.074869999999997,
            "velocity": 0.6141732283464567
          },
          {
            "duration": 0.26431699999999836,
            "durationTicks": 384,
            "midi": 50,
            "name": "D3",
            "ticks": 43008,
            "time": 29.603503999999997,
            "velocity": 0.6141732283464567
          },
          {
            "duration": 0.2643170000000019,
            "durationTicks": 384,
            "midi": 57,
            "name": "A3",
            "ticks": 43392,
            "time": 29.867820999999996,
            "velocity": 0.6141732283464567
          },
          {
            "duration": 0.26431699999999836,
            "durationTicks": 384,
            "midi": 62,
            "name": "D4",
            "ticks": 43776,
            "time": 30.132137999999998,
            "velocity": 0.6141732283464567
          },
          {
            "duration": 0.2643170000000019,
            "durationTicks": 384,
            "midi": 57,
            "name": "A3",
            "ticks": 44160,
            "time": 30.396454999999996,
            "velocity": 0.6141732283464567
          },
          {
            "duration": 1.057267999999997,
            "durationTicks": 1536,
            "midi": 64,
            "name": "E4",
            "ticks": 44544,
            "time": 30.660771999999998,
            "velocity": 0.6141732283464567
          },
          {
            "duration": 0.2643170000000019,
            "durationTicks": 384,
            "midi": 50,
            "name": "D3",
            "ticks": 46080,
            "time": 31.718039999999995,
            "velocity": 0.6141732283464567
          },
          {
            "duration": 0.2643170000000019,
            "durationTicks": 384,
            "midi": 57,
            "name": "A3",
            "ticks": 46464,
            "time": 31.982356999999997,
            "velocity": 0.6141732283464567
          },
          {
            "duration": 0.26431699999999836,
            "durationTicks": 384,
            "midi": 62,
            "name": "D4",
            "ticks": 46848,
            "time": 32.246674,
            "velocity": 0.6141732283464567
          },
          {
            "duration": 0.26431699999999836,
            "durationTicks": 384,
            "midi": 57,
            "name": "A3",
            "ticks": 47232,
            "time": 32.510991,
            "velocity": 0.6141732283464567
          },
          {
            "duration": 0.5286340000000038,
            "durationTicks": 768,
            "midi": 65,
            "name": "F4",
            "ticks": 47616,
            "time": 32.775307999999995,
            "velocity": 0.6141732283464567
          },
          {
            "duration": 0.5286339999999967,
            "durationTicks": 768,
            "midi": 60,
            "name": "C4",
            "ticks": 48384,
            "time": 33.303942,
            "velocity": 0.6141732283464567
          },
          {
            "duration": 0.26431699999999836,
            "durationTicks": 384,
            "midi": 50,
            "name": "D3",
            "ticks": 49152,
            "time": 33.832575999999996,
            "velocity": 0.6141732283464567
          },
          {
            "duration": 0.26431699999999836,
            "durationTicks": 384,
            "midi": 57,
            "name": "A3",
            "ticks": 49536,
            "time": 34.096892999999994,
            "velocity": 0.6141732283464567
          },
          {
            "duration": 0.26431700000000546,
            "durationTicks": 384,
            "midi": 62,
            "name": "D4",
            "ticks": 49920,
            "time": 34.36120999999999,
            "velocity": 0.6141732283464567
          },
          {
            "duration": 0.26431699999999836,
            "durationTicks": 384,
            "midi": 57,
            "name": "A3",
            "ticks": 50304,
            "time": 34.625527,
            "velocity": 0.6141732283464567
          },
          {
            "duration": 1.0572680000000005,
            "durationTicks": 1536,
            "midi": 64,
            "name": "E4",
            "ticks": 50688,
            "time": 34.889844,
            "velocity": 0.6141732283464567
          },
          {
            "duration": 0.26431699999999836,
            "durationTicks": 384,
            "midi": 50,
            "name": "D3",
            "ticks": 52224,
            "time": 35.947112,
            "velocity": 0.6141732283464567
          },
          {
            "duration": 0.26431699999999836,
            "durationTicks": 384,
            "midi": 57,
            "name": "A3",
            "ticks": 52608,
            "time": 36.211428999999995,
            "velocity": 0.6141732283464567
          },
          {
            "duration": 0.26431699999999836,
            "durationTicks": 384,
            "midi": 62,
            "name": "D4",
            "ticks": 52992,
            "time": 36.475745999999994,
            "velocity": 0.6141732283464567
          },
          {
            "duration": 0.26431700000000546,
            "durationTicks": 384,
            "midi": 57,
            "name": "A3",
            "ticks": 53376,
            "time": 36.74006299999999,
            "velocity": 0.6141732283464567
          },
          {
            "duration": 0.5286339999999967,
            "durationTicks": 768,
            "midi": 67,
            "name": "G4",
            "ticks": 53760,
            "time": 37.00438,
            "velocity": 0.6141732283464567
          },
          {
            "duration": 0.5286340000000038,
            "durationTicks": 768,
            "midi": 65,
            "name": "F4",
            "ticks": 54528,
            "time": 37.533013999999994,
            "velocity": 0.6141732283464567
          },
          {
            "duration": 0.26431699999999836,
            "durationTicks": 384,
            "midi": 50,
            "name": "D3",
            "ticks": 55296,
            "time": 38.061648,
            "velocity": 0.6141732283464567
          },
          {
            "duration": 0.26431699999999836,
            "durationTicks": 384,
            "midi": 57,
            "name": "A3",
            "ticks": 55680,
            "time": 38.325965,
            "velocity": 0.6141732283464567
          },
          {
            "duration": 0.26431699999999836,
            "durationTicks": 384,
            "midi": 62,
            "name": "D4",
            "ticks": 56064,
            "time": 38.590281999999995,
            "velocity": 0.6141732283464567
          },
          {
            "duration": 0.26431700000000546,
            "durationTicks": 384,
            "midi": 57,
            "name": "A3",
            "ticks": 56448,
            "time": 38.85459899999999,
            "velocity": 0.6141732283464567
          },
          {
            "duration": 1.0572679999999934,
            "durationTicks": 1536,
            "midi": 64,
            "name": "E4",
            "ticks": 56832,
            "time": 39.118916,
            "velocity": 0.6141732283464567
          },
          {
            "duration": 0.26431700000000546,
            "durationTicks": 384,
            "midi": 50,
            "name": "D3",
            "ticks": 58368,
            "time": 40.17618399999999,
            "velocity": 0.6141732283464567
          },
          {
            "duration": 0.26431699999999836,
            "durationTicks": 384,
            "midi": 57,
            "name": "A3",
            "ticks": 58752,
            "time": 40.440501,
            "velocity": 0.6141732283464567
          },
          {
            "duration": 0.26431699999999836,
            "durationTicks": 384,
            "midi": 62,
            "name": "D4",
            "ticks": 59136,
            "time": 40.704817999999996,
            "velocity": 0.6141732283464567
          },
          {
            "duration": 0.26431699999999836,
            "durationTicks": 384,
            "midi": 57,
            "name": "A3",
            "ticks": 59520,
            "time": 40.969134999999994,
            "velocity": 0.6141732283464567
          },
          {
            "duration": 0.5286340000000038,
            "durationTicks": 768,
            "midi": 65,
            "name": "F4",
            "ticks": 59904,
            "time": 41.23345199999999,
            "velocity": 0.6141732283464567
          },
          {
            "duration": 0.26431699999999836,
            "durationTicks": 384,
            "midi": 67,
            "name": "G4",
            "ticks": 60672,
            "time": 41.762086,
            "velocity": 0.6141732283464567
          },
          {
            "duration": 0.26431699999999836,
            "durationTicks": 384,
            "midi": 65,
            "name": "F4",
            "ticks": 61056,
            "time": 42.026402999999995,
            "velocity": 0.6141732283464567
          },
          {
            "duration": 0.26431699999999836,
            "durationTicks": 384,
            "midi": 50,
            "name": "D3",
            "ticks": 61440,
            "time": 42.29071999999999,
            "velocity": 0.6141732283464567
          },
          {
            "duration": 0.26431700000000546,
            "durationTicks": 384,
            "midi": 57,
            "name": "A3",
            "ticks": 61824,
            "time": 42.55503699999999,
            "velocity": 0.6141732283464567
          },
          {
            "duration": 0.26431699999999836,
            "durationTicks": 384,
            "midi": 62,
            "name": "D4",
            "ticks": 62208,
            "time": 42.819354,
            "velocity": 0.6141732283464567
          },
          {
            "duration": 0.26431699999999836,
            "durationTicks": 384,
            "midi": 57,
            "name": "A3",
            "ticks": 62592,
            "time": 43.083670999999995,
            "velocity": 0.6141732283464567
          },
          {
            "duration": 1.0572680000000005,
            "durationTicks": 1536,
            "midi": 64,
            "name": "E4",
            "ticks": 62976,
            "time": 43.347987999999994,
            "velocity": 0.6141732283464567
          },
          {
            "duration": 0.26431699999999836,
            "durationTicks": 384,
            "midi": 50,
            "name": "D3",
            "ticks": 64512,
            "time": 44.405255999999994,
            "velocity": 0.6141732283464567
          },
          {
            "duration": 0.26431700000000546,
            "durationTicks": 384,
            "midi": 57,
            "name": "A3",
            "ticks": 64896,
            "time": 44.66957299999999,
            "velocity": 0.6141732283464567
          },
          {
            "duration": 0.26431699999999836,
            "durationTicks": 384,
            "midi": 62,
            "name": "D4",
            "ticks": 65280,
            "time": 44.93389,
            "velocity": 0.6141732283464567
          },
          {
            "duration": 0.26431699999999836,
            "durationTicks": 384,
            "midi": 57,
            "name": "A3",
            "ticks": 65664,
            "time": 45.198207,
            "velocity": 0.6141732283464567
          },
          {
            "duration": 0.5286339999999967,
            "durationTicks": 768,
            "midi": 67,
            "name": "G4",
            "ticks": 66048,
            "time": 45.462523999999995,
            "velocity": 0.6141732283464567
          },
          {
            "duration": 0.5286340000000038,
            "durationTicks": 768,
            "midi": 65,
            "name": "F4",
            "ticks": 66816,
            "time": 45.99115799999999,
            "velocity": 0.6141732283464567
          },
          {
            "duration": 0.26431699999999836,
            "durationTicks": 384,
            "midi": 50,
            "name": "D3",
            "ticks": 67584,
            "time": 46.519791999999995,
            "velocity": 0.6141732283464567
          },
          {
            "duration": 0.26431699999999836,
            "durationTicks": 384,
            "midi": 57,
            "name": "A3",
            "ticks": 67968,
            "time": 46.784108999999994,
            "velocity": 0.6141732283464567
          },
          {
            "duration": 0.26431700000000546,
            "durationTicks": 384,
            "midi": 62,
            "name": "D4",
            "ticks": 68352,
            "time": 47.04842599999999,
            "velocity": 0.6141732283464567
          },
          {
            "duration": 0.26431699999999836,
            "durationTicks": 384,
            "midi": 57,
            "name": "A3",
            "ticks": 68736,
            "time": 47.312743,
            "velocity": 0.6141732283464567
          },
          {
            "duration": 1.0572680000000005,
            "durationTicks": 1536,
            "midi": 64,
            "name": "E4",
            "ticks": 69120,
            "time": 47.577059999999996,
            "velocity": 0.6141732283464567
          },
          {
            "duration": 0.26431699999999836,
            "durationTicks": 384,
            "midi": 50,
            "name": "D3",
            "ticks": 70656,
            "time": 48.634328,
            "velocity": 0.6141732283464567
          },
          {
            "duration": 0.26431699999999836,
            "durationTicks": 384,
            "midi": 57,
            "name": "A3",
            "ticks": 71040,
            "time": 48.898644999999995,
            "velocity": 0.6141732283464567
          },
          {
            "duration": 0.26431699999999836,
            "durationTicks": 384,
            "midi": 62,
            "name": "D4",
            "ticks": 71424,
            "time": 49.16296199999999,
            "velocity": 0.6141732283464567
          },
          {
            "duration": 0.26431700000000546,
            "durationTicks": 384,
            "midi": 57,
            "name": "A3",
            "ticks": 71808,
            "time": 49.42727899999999,
            "velocity": 0.6141732283464567
          },
          {
            "duration": 0.5286339999999967,
            "durationTicks": 768,
            "midi": 65,
            "name": "F4",
            "ticks": 72192,
            "time": 49.691596,
            "velocity": 0.6141732283464567
          },
          {
            "duration": 0.5286340000000038,
            "durationTicks": 768,
            "midi": 60,
            "name": "C4",
            "ticks": 72960,
            "time": 50.220229999999994,
            "velocity": 0.6141732283464567
          },
          {
            "duration": 0.26431699999999836,
            "durationTicks": 384,
            "midi": 50,
            "name": "D3",
            "ticks": 73728,
            "time": 50.748864,
            "velocity": 0.6141732283464567
          },
          {
            "duration": 0.26431699999999836,
            "durationTicks": 384,
            "midi": 57,
            "name": "A3",
            "ticks": 74112,
            "time": 51.013180999999996,
            "velocity": 0.6141732283464567
          },
          {
            "duration": 0.26431699999999836,
            "durationTicks": 384,
            "midi": 62,
            "name": "D4",
            "ticks": 74496,
            "time": 51.277497999999994,
            "velocity": 0.6141732283464567
          },
          {
            "duration": 0.26431699999999836,
            "durationTicks": 384,
            "midi": 57,
            "name": "A3",
            "ticks": 74880,
            "time": 51.54181499999999,
            "velocity": 0.6141732283464567
          },
          {
            "duration": 1.0572680000000005,
            "durationTicks": 1536,
            "midi": 64,
            "name": "E4",
            "ticks": 75264,
            "time": 51.80613199999999,
            "velocity": 0.6141732283464567
          },
          {
            "duration": 0.26431700000000546,
            "durationTicks": 384,
            "midi": 50,
            "name": "D3",
            "ticks": 76800,
            "time": 52.86339999999999,
            "velocity": 0.6141732283464567
          },
          {
            "duration": 0.26431699999999836,
            "durationTicks": 384,
            "midi": 57,
            "name": "A3",
            "ticks": 77184,
            "time": 53.127717,
            "velocity": 0.6141732283464567
          },
          {
            "duration": 0.26431699999999836,
            "durationTicks": 384,
            "midi": 62,
            "name": "D4",
            "ticks": 77568,
            "time": 53.392033999999995,
            "velocity": 0.6141732283464567
          },
          {
            "duration": 0.26431699999999836,
            "durationTicks": 384,
            "midi": 57,
            "name": "A3",
            "ticks": 77952,
            "time": 53.656350999999994,
            "velocity": 0.6141732283464567
          },
          {
            "duration": 0.5286340000000038,
            "durationTicks": 768,
            "midi": 67,
            "name": "G4",
            "ticks": 78336,
            "time": 53.92066799999999,
            "velocity": 0.6141732283464567
          },
          {
            "duration": 0.5286339999999967,
            "durationTicks": 768,
            "midi": 65,
            "name": "F4",
            "ticks": 79104,
            "time": 54.449301999999996,
            "velocity": 0.6141732283464567
          },
          {
            "duration": 0.26431699999999836,
            "durationTicks": 384,
            "midi": 50,
            "name": "D3",
            "ticks": 79872,
            "time": 54.97793599999999,
            "velocity": 0.6141732283464567
          },
          {
            "duration": 0.26431700000000546,
            "durationTicks": 384,
            "midi": 57,
            "name": "A3",
            "ticks": 80256,
            "time": 55.24225299999999,
            "velocity": 0.6141732283464567
          },
          {
            "duration": 0.26431699999999836,
            "durationTicks": 384,
            "midi": 62,
            "name": "D4",
            "ticks": 80640,
            "time": 55.506569999999996,
            "velocity": 0.6141732283464567
          },
          {
            "duration": 0.26431699999999836,
            "durationTicks": 384,
            "midi": 57,
            "name": "A3",
            "ticks": 81024,
            "time": 55.770886999999995,
            "velocity": 0.6141732283464567
          },
          {
            "duration": 1.0572680000000005,
            "durationTicks": 1536,
            "midi": 64,
            "name": "E4",
            "ticks": 81408,
            "time": 56.03520399999999,
            "velocity": 0.6141732283464567
          },
          {
            "duration": 0.26431699999999836,
            "durationTicks": 384,
            "midi": 50,
            "name": "D3",
            "ticks": 82944,
            "time": 57.092471999999994,
            "velocity": 0.6141732283464567
          },
          {
            "duration": 0.26431699999999836,
            "durationTicks": 384,
            "midi": 57,
            "name": "A3",
            "ticks": 83328,
            "time": 57.35678899999999,
            "velocity": 0.6141732283464567
          },
          {
            "duration": 0.26431700000000546,
            "durationTicks": 384,
            "midi": 62,
            "name": "D4",
            "ticks": 83712,
            "time": 57.62110599999999,
            "velocity": 0.6141732283464567
          },
          {
            "duration": 0.26431699999999836,
            "durationTicks": 384,
            "midi": 57,
            "name": "A3",
            "ticks": 84096,
            "time": 57.885422999999996,
            "velocity": 0.6141732283464567
          },
          {
            "duration": 0.5286339999999967,
            "durationTicks": 768,
            "midi": 65,
            "name": "F4",
            "ticks": 84480,
            "time": 58.149739999999994,
            "velocity": 0.6141732283464567
          },
          {
            "duration": 0.26431700000000546,
            "durationTicks": 384,
            "midi": 67,
            "name": "G4",
            "ticks": 85248,
            "time": 58.67837399999999,
            "velocity": 0.6141732283464567
          },
          {
            "duration": 0.26431699999999836,
            "durationTicks": 384,
            "midi": 65,
            "name": "F4",
            "ticks": 85632,
            "time": 58.942690999999996,
            "velocity": 0.6141732283464567
          },
          {
            "duration": 0.26431699999999836,
            "durationTicks": 384,
            "midi": 50,
            "name": "D3",
            "ticks": 86016,
            "time": 59.207007999999995,
            "velocity": 0.6141732283464567
          },
          {
            "duration": 0.26431699999999836,
            "durationTicks": 384,
            "midi": 57,
            "name": "A3",
            "ticks": 86400,
            "time": 59.47132499999999,
            "velocity": 0.6141732283464567
          },
          {
            "duration": 0.26431699999999836,
            "durationTicks": 384,
            "midi": 62,
            "name": "D4",
            "ticks": 86784,
            "time": 59.73564199999999,
            "velocity": 0.6141732283464567
          },
          {
            "duration": 0.26431700000000546,
            "durationTicks": 384,
            "midi": 57,
            "name": "A3",
            "ticks": 87168,
            "time": 59.99995899999999,
            "velocity": 0.6141732283464567
          },
          {
            "duration": 1.0572680000000005,
            "durationTicks": 1536,
            "midi": 64,
            "name": "E4",
            "ticks": 87552,
            "time": 60.264275999999995,
            "velocity": 0.6141732283464567
          },
          {
            "duration": 0.26431699999999836,
            "durationTicks": 384,
            "midi": 50,
            "name": "D3",
            "ticks": 89088,
            "time": 61.321543999999996,
            "velocity": 0.6141732283464567
          },
          {
            "duration": 0.26431699999999836,
            "durationTicks": 384,
            "midi": 57,
            "name": "A3",
            "ticks": 89472,
            "time": 61.585860999999994,
            "velocity": 0.6141732283464567
          },
          {
            "duration": 0.26431699999999836,
            "durationTicks": 384,
            "midi": 62,
            "name": "D4",
            "ticks": 89856,
            "time": 61.85017799999999,
            "velocity": 0.6141732283464567
          },
          {
            "duration": 0.26431699999999836,
            "durationTicks": 384,
            "midi": 57,
            "name": "A3",
            "ticks": 90240,
            "time": 62.11449499999999,
            "velocity": 0.6141732283464567
          },
          {
            "duration": 0.5286340000000038,
            "durationTicks": 768,
            "midi": 67,
            "name": "G4",
            "ticks": 90624,
            "time": 62.37881199999999,
            "velocity": 0.6141732283464567
          },
          {
            "duration": 0.5286339999999967,
            "durationTicks": 768,
            "midi": 65,
            "name": "F4",
            "ticks": 91392,
            "time": 62.90744599999999,
            "velocity": 0.6141732283464567
          },
          {
            "duration": 0.26431700000000546,
            "durationTicks": 384,
            "midi": 50,
            "name": "D3",
            "ticks": 92160,
            "time": 63.43607999999999,
            "velocity": 0.6141732283464567
          },
          {
            "duration": 0.26431699999999836,
            "durationTicks": 384,
            "midi": 57,
            "name": "A3",
            "ticks": 92544,
            "time": 63.700396999999995,
            "velocity": 0.6141732283464567
          },
          {
            "duration": 0.26431699999999836,
            "durationTicks": 384,
            "midi": 62,
            "name": "D4",
            "ticks": 92928,
            "time": 63.964713999999994,
            "velocity": 0.6141732283464567
          },
          {
            "duration": 0.26431700000000546,
            "durationTicks": 384,
            "midi": 57,
            "name": "A3",
            "ticks": 93312,
            "time": 64.22903099999999,
            "velocity": 0.6141732283464567
          },
          {
            "duration": 1.0572679999999934,
            "durationTicks": 1536,
            "midi": 64,
            "name": "E4",
            "ticks": 93696,
            "time": 64.493348,
            "velocity": 0.6141732283464567
          },
          {
            "duration": 0.26431700000000546,
            "durationTicks": 384,
            "midi": 50,
            "name": "D3",
            "ticks": 95232,
            "time": 65.55061599999999,
            "velocity": 0.6141732283464567
          },
          {
            "duration": 0.26431699999999125,
            "durationTicks": 384,
            "midi": 57,
            "name": "A3",
            "ticks": 95616,
            "time": 65.814933,
            "velocity": 0.6141732283464567
          },
          {
            "duration": 0.26431700000000546,
            "durationTicks": 384,
            "midi": 62,
            "name": "D4",
            "ticks": 96000,
            "time": 66.07924999999999,
            "velocity": 0.6141732283464567
          },
          {
            "duration": 0.26431700000000546,
            "durationTicks": 384,
            "midi": 57,
            "name": "A3",
            "ticks": 96384,
            "time": 66.343567,
            "velocity": 0.6141732283464567
          },
          {
            "duration": 0.5286339999999967,
            "durationTicks": 768,
            "midi": 65,
            "name": "F4",
            "ticks": 96768,
            "time": 66.607884,
            "velocity": 0.6141732283464567
          },
          {
            "duration": 0.5286339999999967,
            "durationTicks": 768,
            "midi": 60,
            "name": "C4",
            "ticks": 97536,
            "time": 67.136518,
            "velocity": 0.6141732283464567
          },
          {
            "duration": 0.26431700000000546,
            "durationTicks": 384,
            "midi": 50,
            "name": "D3",
            "ticks": 98304,
            "time": 67.66515199999999,
            "velocity": 0.6141732283464567
          },
          {
            "duration": 0.26431699999999125,
            "durationTicks": 384,
            "midi": 57,
            "name": "A3",
            "ticks": 98688,
            "time": 67.929469,
            "velocity": 0.6141732283464567
          },
          {
            "duration": 0.26431700000000546,
            "durationTicks": 384,
            "midi": 62,
            "name": "D4",
            "ticks": 99072,
            "time": 68.19378599999999,
            "velocity": 0.6141732283464567
          },
          {
            "duration": 0.26431699999999125,
            "durationTicks": 384,
            "midi": 57,
            "name": "A3",
            "ticks": 99456,
            "time": 68.458103,
            "velocity": 0.6141732283464567
          },
          {
            "duration": 1.0572680000000076,
            "durationTicks": 1536,
            "midi": 64,
            "name": "E4",
            "ticks": 99840,
            "time": 68.72241999999999,
            "velocity": 0.6141732283464567
          },
          {
            "duration": 0.26431700000000546,
            "durationTicks": 384,
            "midi": 50,
            "name": "D3",
            "ticks": 101376,
            "time": 69.779688,
            "velocity": 0.6141732283464567
          },
          {
            "duration": 0.26431699999999125,
            "durationTicks": 384,
            "midi": 57,
            "name": "A3",
            "ticks": 101760,
            "time": 70.044005,
            "velocity": 0.6141732283464567
          },
          {
            "duration": 0.26431700000000546,
            "durationTicks": 384,
            "midi": 62,
            "name": "D4",
            "ticks": 102144,
            "time": 70.30832199999999,
            "velocity": 0.6141732283464567
          },
          {
            "duration": 0.26431699999999125,
            "durationTicks": 384,
            "midi": 57,
            "name": "A3",
            "ticks": 102528,
            "time": 70.572639,
            "velocity": 0.6141732283464567
          },
          {
            "duration": 0.5286340000000109,
            "durationTicks": 768,
            "midi": 67,
            "name": "G4",
            "ticks": 102912,
            "time": 70.83695599999999,
            "velocity": 0.6141732283464567
          },
          {
            "duration": 0.5286339999999967,
            "durationTicks": 768,
            "midi": 65,
            "name": "F4",
            "ticks": 103680,
            "time": 71.36559,
            "velocity": 0.6141732283464567
          },
          {
            "duration": 0.26431699999999125,
            "durationTicks": 384,
            "midi": 50,
            "name": "D3",
            "ticks": 104448,
            "time": 71.894224,
            "velocity": 0.6141732283464567
          },
          {
            "duration": 0.26431700000000546,
            "durationTicks": 384,
            "midi": 57,
            "name": "A3",
            "ticks": 104832,
            "time": 72.15854099999999,
            "velocity": 0.6141732283464567
          },
          {
            "duration": 0.26431700000000546,
            "durationTicks": 384,
            "midi": 62,
            "name": "D4",
            "ticks": 105216,
            "time": 72.42285799999999,
            "velocity": 0.6141732283464567
          },
          {
            "duration": 0.26431699999999125,
            "durationTicks": 384,
            "midi": 57,
            "name": "A3",
            "ticks": 105600,
            "time": 72.687175,
            "velocity": 0.6141732283464567
          },
          {
            "duration": 1.0572680000000076,
            "durationTicks": 1536,
            "midi": 64,
            "name": "E4",
            "ticks": 105984,
            "time": 72.95149199999999,
            "velocity": 0.6141732283464567
          },
          {
            "duration": 0.26431699999999125,
            "durationTicks": 384,
            "midi": 50,
            "name": "D3",
            "ticks": 107520,
            "time": 74.00876,
            "velocity": 0.6141732283464567
          },
          {
            "duration": 0.26431700000000546,
            "durationTicks": 384,
            "midi": 57,
            "name": "A3",
            "ticks": 107904,
            "time": 74.27307699999999,
            "velocity": 0.6141732283464567
          },
          {
            "duration": 0.26431700000000546,
            "durationTicks": 384,
            "midi": 62,
            "name": "D4",
            "ticks": 108288,
            "time": 74.53739399999999,
            "velocity": 0.6141732283464567
          },
          {
            "duration": 0.26431699999999125,
            "durationTicks": 384,
            "midi": 57,
            "name": "A3",
            "ticks": 108672,
            "time": 74.801711,
            "velocity": 0.6141732283464567
          },
          {
            "duration": 0.5286339999999967,
            "durationTicks": 768,
            "midi": 65,
            "name": "F4",
            "ticks": 109056,
            "time": 75.06602799999999,
            "velocity": 0.6141732283464567
          },
          {
            "duration": 0.26431700000000546,
            "durationTicks": 384,
            "midi": 67,
            "name": "G4",
            "ticks": 109824,
            "time": 75.59466199999999,
            "velocity": 0.6141732283464567
          },
          {
            "duration": 0.26431700000000546,
            "durationTicks": 384,
            "midi": 65,
            "name": "F4",
            "ticks": 110208,
            "time": 75.85897899999999,
            "velocity": 0.6141732283464567
          },
          {
            "duration": 0.26431699999999125,
            "durationTicks": 384,
            "midi": 50,
            "name": "D3",
            "ticks": 110592,
            "time": 76.123296,
            "velocity": 0.6141732283464567
          },
          {
            "duration": 0.26431700000000546,
            "durationTicks": 384,
            "midi": 57,
            "name": "A3",
            "ticks": 110976,
            "time": 76.38761299999999,
            "velocity": 0.6141732283464567
          },
          {
            "duration": 0.26431699999999125,
            "durationTicks": 384,
            "midi": 62,
            "name": "D4",
            "ticks": 111360,
            "time": 76.65193,
            "velocity": 0.6141732283464567
          },
          {
            "duration": 0.26431700000000546,
            "durationTicks": 384,
            "midi": 57,
            "name": "A3",
            "ticks": 111744,
            "time": 76.91624699999998,
            "velocity": 0.6141732283464567
          },
          {
            "duration": 1.0572680000000076,
            "durationTicks": 1536,
            "midi": 64,
            "name": "E4",
            "ticks": 112128,
            "time": 77.18056399999999,
            "velocity": 0.6141732283464567
          },
          {
            "duration": 0.26431699999999125,
            "durationTicks": 384,
            "midi": 50,
            "name": "D3",
            "ticks": 113664,
            "time": 78.237832,
            "velocity": 0.6141732283464567
          },
          {
            "duration": 0.26431700000000546,
            "durationTicks": 384,
            "midi": 57,
            "name": "A3",
            "ticks": 114048,
            "time": 78.50214899999999,
            "velocity": 0.6141732283464567
          },
          {
            "duration": 0.26431699999999125,
            "durationTicks": 384,
            "midi": 62,
            "name": "D4",
            "ticks": 114432,
            "time": 78.766466,
            "velocity": 0.6141732283464567
          },
          {
            "duration": 0.26431700000000546,
            "durationTicks": 384,
            "midi": 57,
            "name": "A3",
            "ticks": 114816,
            "time": 79.03078299999999,
            "velocity": 0.6141732283464567
          },
          {
            "duration": 0.5286339999999967,
            "durationTicks": 768,
            "midi": 67,
            "name": "G4",
            "ticks": 115200,
            "time": 79.29509999999999,
            "velocity": 0.6141732283464567
          },
          {
            "duration": 0.5286339999999967,
            "durationTicks": 768,
            "midi": 65,
            "name": "F4",
            "ticks": 115968,
            "time": 79.82373399999999,
            "velocity": 0.6141732283464567
          },
          {
            "duration": 0.26431700000000546,
            "durationTicks": 384,
            "midi": 50,
            "name": "D3",
            "ticks": 116736,
            "time": 80.35236799999998,
            "velocity": 0.6141732283464567
          },
          {
            "duration": 0.26431700000000546,
            "durationTicks": 384,
            "midi": 57,
            "name": "A3",
            "ticks": 117120,
            "time": 80.61668499999999,
            "velocity": 0.6141732283464567
          },
          {
            "duration": 0.26431699999999125,
            "durationTicks": 384,
            "midi": 62,
            "name": "D4",
            "ticks": 117504,
            "time": 80.881002,
            "velocity": 0.6141732283464567
          },
          {
            "duration": 0.26431700000000546,
            "durationTicks": 384,
            "midi": 57,
            "name": "A3",
            "ticks": 117888,
            "time": 81.14531899999999,
            "velocity": 0.6141732283464567
          },
          {
            "duration": 1.0572679999999934,
            "durationTicks": 1536,
            "midi": 64,
            "name": "E4",
            "ticks": 118272,
            "time": 81.40963599999999,
            "velocity": 0.6141732283464567
          },
          {
            "duration": 0.26431700000000546,
            "durationTicks": 384,
            "midi": 50,
            "name": "D3",
            "ticks": 119808,
            "time": 82.46690399999999,
            "velocity": 0.6141732283464567
          },
          {
            "duration": 0.26431700000000546,
            "durationTicks": 384,
            "midi": 57,
            "name": "A3",
            "ticks": 120192,
            "time": 82.73122099999999,
            "velocity": 0.6141732283464567
          },
          {
            "duration": 0.26431699999999125,
            "durationTicks": 384,
            "midi": 62,
            "name": "D4",
            "ticks": 120576,
            "time": 82.995538,
            "velocity": 0.6141732283464567
          },
          {
            "duration": 0.26431700000000546,
            "durationTicks": 384,
            "midi": 57,
            "name": "A3",
            "ticks": 120960,
            "time": 83.25985499999999,
            "velocity": 0.6141732283464567
          },
          {
            "duration": 0.5286339999999967,
            "durationTicks": 768,
            "midi": 65,
            "name": "F4",
            "ticks": 121344,
            "time": 83.524172,
            "velocity": 0.6141732283464567
          },
          {
            "duration": 0.5286339999999967,
            "durationTicks": 768,
            "midi": 60,
            "name": "C4",
            "ticks": 122112,
            "time": 84.05280599999999,
            "velocity": 0.6141732283464567
          },
          {
            "duration": 0.26431700000000546,
            "durationTicks": 384,
            "midi": 50,
            "name": "D3",
            "ticks": 122880,
            "time": 84.58143999999999,
            "velocity": 0.6141732283464567
          },
          {
            "duration": 0.26431699999999125,
            "durationTicks": 384,
            "midi": 57,
            "name": "A3",
            "ticks": 123264,
            "time": 84.84575699999999,
            "velocity": 0.6141732283464567
          },
          {
            "duration": 0.26431700000000546,
            "durationTicks": 384,
            "midi": 62,
            "name": "D4",
            "ticks": 123648,
            "time": 85.11007399999998,
            "velocity": 0.6141732283464567
          },
          {
            "duration": 0.26431700000000546,
            "durationTicks": 384,
            "midi": 57,
            "name": "A3",
            "ticks": 124032,
            "time": 85.37439099999999,
            "velocity": 0.6141732283464567
          },
          {
            "duration": 1.0572679999999934,
            "durationTicks": 1536,
            "midi": 64,
            "name": "E4",
            "ticks": 124416,
            "time": 85.638708,
            "velocity": 0.6141732283464567
          },
          {
            "duration": 0.26431700000000546,
            "durationTicks": 384,
            "midi": 50,
            "name": "D3",
            "ticks": 125952,
            "time": 86.69597599999999,
            "velocity": 0.6141732283464567
          },
          {
            "duration": 0.26431699999999125,
            "durationTicks": 384,
            "midi": 57,
            "name": "A3",
            "ticks": 126336,
            "time": 86.960293,
            "velocity": 0.6141732283464567
          },
          {
            "duration": 0.26431700000000546,
            "durationTicks": 384,
            "midi": 62,
            "name": "D4",
            "ticks": 126720,
            "time": 87.22460999999998,
            "velocity": 0.6141732283464567
          },
          {
            "duration": 0.26431700000000546,
            "durationTicks": 384,
            "midi": 57,
            "name": "A3",
            "ticks": 127104,
            "time": 87.48892699999999,
            "velocity": 0.6141732283464567
          },
          {
            "duration": 0.5286339999999967,
            "durationTicks": 768,
            "midi": 67,
            "name": "G4",
            "ticks": 127488,
            "time": 87.753244,
            "velocity": 0.6141732283464567
          },
          {
            "duration": 0.5286339999999967,
            "durationTicks": 768,
            "midi": 65,
            "name": "F4",
            "ticks": 128256,
            "time": 88.28187799999999,
            "velocity": 0.6141732283464567
          },
          {
            "duration": 0.26431700000000546,
            "durationTicks": 384,
            "midi": 50,
            "name": "D3",
            "ticks": 129024,
            "time": 88.81051199999999,
            "velocity": 0.6141732283464567
          },
          {
            "duration": 0.26431699999999125,
            "durationTicks": 384,
            "midi": 57,
            "name": "A3",
            "ticks": 129408,
            "time": 89.074829,
            "velocity": 0.6141732283464567
          },
          {
            "duration": 0.26431700000000546,
            "durationTicks": 384,
            "midi": 62,
            "name": "D4",
            "ticks": 129792,
            "time": 89.33914599999999,
            "velocity": 0.6141732283464567
          },
          {
            "duration": 0.26431700000000546,
            "durationTicks": 384,
            "midi": 57,
            "name": "A3",
            "ticks": 130176,
            "time": 89.60346299999999,
            "velocity": 0.6141732283464567
          },
          {
            "duration": 1.0572679999999934,
            "durationTicks": 1536,
            "midi": 64,
            "name": "E4",
            "ticks": 130560,
            "time": 89.86778,
            "velocity": 0.6141732283464567
          },
          {
            "duration": 0.26431700000000546,
            "durationTicks": 384,
            "midi": 50,
            "name": "D3",
            "ticks": 132096,
            "time": 90.92504799999999,
            "velocity": 0.6141732283464567
          },
          {
            "duration": 0.26431699999999125,
            "durationTicks": 384,
            "midi": 57,
            "name": "A3",
            "ticks": 132480,
            "time": 91.189365,
            "velocity": 0.6141732283464567
          },
          {
            "duration": 0.26431700000000546,
            "durationTicks": 384,
            "midi": 62,
            "name": "D4",
            "ticks": 132864,
            "time": 91.45368199999999,
            "velocity": 0.6141732283464567
          },
          {
            "duration": 0.26431699999999125,
            "durationTicks": 384,
            "midi": 57,
            "name": "A3",
            "ticks": 133248,
            "time": 91.71799899999999,
            "velocity": 0.6141732283464567
          },
          {
            "duration": 0.5286340000000109,
            "durationTicks": 768,
            "midi": 65,
            "name": "F4",
            "ticks": 133632,
            "time": 91.98231599999998,
            "velocity": 0.6141732283464567
          },
          {
            "duration": 0.26431699999999125,
            "durationTicks": 384,
            "midi": 67,
            "name": "G4",
            "ticks": 134400,
            "time": 92.51095,
            "velocity": 0.6141732283464567
          },
          {
            "duration": 0.26431700000000546,
            "durationTicks": 384,
            "midi": 65,
            "name": "F4",
            "ticks": 134784,
            "time": 92.77526699999999,
            "velocity": 0.6141732283464567
          },
          {
            "duration": 0.26431699999999125,
            "durationTicks": 384,
            "midi": 50,
            "name": "D3",
            "ticks": 135168,
            "time": 93.03958399999999,
            "velocity": 0.6141732283464567
          },
          {
            "duration": 0.26431700000000546,
            "durationTicks": 384,
            "midi": 57,
            "name": "A3",
            "ticks": 135552,
            "time": 93.30390099999998,
            "velocity": 0.6141732283464567
          },
          {
            "duration": 0.26431700000000546,
            "durationTicks": 384,
            "midi": 62,
            "name": "D4",
            "ticks": 135936,
            "time": 93.56821799999999,
            "velocity": 0.6141732283464567
          },
          {
            "duration": 0.26431699999999125,
            "durationTicks": 384,
            "midi": 57,
            "name": "A3",
            "ticks": 136320,
            "time": 93.832535,
            "velocity": 0.6141732283464567
          },
          {
            "duration": 1.0572680000000076,
            "durationTicks": 1536,
            "midi": 64,
            "name": "E4",
            "ticks": 136704,
            "time": 94.09685199999998,
            "velocity": 0.6141732283464567
          },
          {
            "duration": 0.26431699999999125,
            "durationTicks": 384,
            "midi": 50,
            "name": "D3",
            "ticks": 138240,
            "time": 95.15411999999999,
            "velocity": 0.6141732283464567
          },
          {
            "duration": 0.26431700000000546,
            "durationTicks": 384,
            "midi": 57,
            "name": "A3",
            "ticks": 138624,
            "time": 95.41843699999998,
            "velocity": 0.6141732283464567
          },
          {
            "duration": 0.26431700000000546,
            "durationTicks": 384,
            "midi": 62,
            "name": "D4",
            "ticks": 139008,
            "time": 95.68275399999999,
            "velocity": 0.6141732283464567
          },
          {
            "duration": 0.26431699999999125,
            "durationTicks": 384,
            "midi": 57,
            "name": "A3",
            "ticks": 139392,
            "time": 95.947071,
            "velocity": 0.6141732283464567
          },
          {
            "duration": 0.5286339999999967,
            "durationTicks": 768,
            "midi": 67,
            "name": "G4",
            "ticks": 139776,
            "time": 96.21138799999999,
            "velocity": 0.6141732283464567
          },
          {
            "duration": 0.5286340000000109,
            "durationTicks": 768,
            "midi": 65,
            "name": "F4",
            "ticks": 140544,
            "time": 96.74002199999998,
            "velocity": 0.6141732283464567
          },
          {
            "duration": 0.26431699999999125,
            "durationTicks": 384,
            "midi": 50,
            "name": "D3",
            "ticks": 141312,
            "time": 97.268656,
            "velocity": 0.6141732283464567
          },
          {
            "duration": 0.26431700000000546,
            "durationTicks": 384,
            "midi": 57,
            "name": "A3",
            "ticks": 141696,
            "time": 97.53297299999998,
            "velocity": 0.6141732283464567
          },
          {
            "duration": 0.26431700000000546,
            "durationTicks": 384,
            "midi": 62,
            "name": "D4",
            "ticks": 142080,
            "time": 97.79728999999999,
            "velocity": 0.6141732283464567
          },
          {
            "duration": 0.26431699999999125,
            "durationTicks": 384,
            "midi": 57,
            "name": "A3",
            "ticks": 142464,
            "time": 98.061607,
            "velocity": 0.6141732283464567
          },
          {
            "duration": 1.0572680000000076,
            "durationTicks": 1536,
            "midi": 64,
            "name": "E4",
            "ticks": 142848,
            "time": 98.32592399999999,
            "velocity": 0.6141732283464567
          },
          {
            "duration": 0.26431699999999125,
            "durationTicks": 384,
            "midi": 50,
            "name": "D3",
            "ticks": 144384,
            "time": 99.383192,
            "velocity": 0.6141732283464567
          },
          {
            "duration": 0.26431700000000546,
            "durationTicks": 384,
            "midi": 57,
            "name": "A3",
            "ticks": 144768,
            "time": 99.64750899999999,
            "velocity": 0.6141732283464567
          },
          {
            "duration": 0.26431699999999125,
            "durationTicks": 384,
            "midi": 62,
            "name": "D4",
            "ticks": 145152,
            "time": 99.91182599999999,
            "velocity": 0.6141732283464567
          },
          {
            "duration": 0.26431700000000546,
            "durationTicks": 384,
            "midi": 57,
            "name": "A3",
            "ticks": 145536,
            "time": 100.17614299999998,
            "velocity": 0.6141732283464567
          },
          {
            "duration": 0.5286339999999967,
            "durationTicks": 768,
            "midi": 65,
            "name": "F4",
            "ticks": 145920,
            "time": 100.44045999999999,
            "velocity": 0.6141732283464567
          },
          {
            "duration": 0.5286340000000109,
            "durationTicks": 768,
            "midi": 60,
            "name": "C4",
            "ticks": 146688,
            "time": 100.96909399999998,
            "velocity": 0.6141732283464567
          },
          {
            "duration": 0.26431699999999125,
            "durationTicks": 384,
            "midi": 50,
            "name": "D3",
            "ticks": 147456,
            "time": 101.497728,
            "velocity": 0.6141732283464567
          },
          {
            "duration": 0.26431700000000546,
            "durationTicks": 384,
            "midi": 57,
            "name": "A3",
            "ticks": 147840,
            "time": 101.76204499999999,
            "velocity": 0.6141732283464567
          },
          {
            "duration": 0.26431699999999125,
            "durationTicks": 384,
            "midi": 62,
            "name": "D4",
            "ticks": 148224,
            "time": 102.02636199999999,
            "velocity": 0.6141732283464567
          },
          {
            "duration": 0.26431700000000546,
            "durationTicks": 384,
            "midi": 57,
            "name": "A3",
            "ticks": 148608,
            "time": 102.29067899999998,
            "velocity": 0.6141732283464567
          },
          {
            "duration": 1.0572679999999934,
            "durationTicks": 1536,
            "midi": 64,
            "name": "E4",
            "ticks": 148992,
            "time": 102.55499599999999,
            "velocity": 0.6141732283464567
          },
          {
            "duration": 0.26431700000000546,
            "durationTicks": 384,
            "midi": 50,
            "name": "D3",
            "ticks": 150528,
            "time": 103.61226399999998,
            "velocity": 0.6141732283464567
          },
          {
            "duration": 0.26431700000000546,
            "durationTicks": 384,
            "midi": 57,
            "name": "A3",
            "ticks": 150912,
            "time": 103.87658099999999,
            "velocity": 0.6141732283464567
          },
          {
            "duration": 0.26431699999999125,
            "durationTicks": 384,
            "midi": 62,
            "name": "D4",
            "ticks": 151296,
            "time": 104.14089799999999,
            "velocity": 0.6141732283464567
          },
          {
            "duration": 0.26431700000000546,
            "durationTicks": 384,
            "midi": 57,
            "name": "A3",
            "ticks": 151680,
            "time": 104.40521499999998,
            "velocity": 0.6141732283464567
          },
          {
            "duration": 0.5286339999999967,
            "durationTicks": 768,
            "midi": 67,
            "name": "G4",
            "ticks": 152064,
            "time": 104.66953199999999,
            "velocity": 0.6141732283464567
          },
          {
            "duration": 0.5286339999999967,
            "durationTicks": 768,
            "midi": 65,
            "name": "F4",
            "ticks": 152832,
            "time": 105.19816599999999,
            "velocity": 0.6141732283464567
          },
          {
            "duration": 0.26431700000000546,
            "durationTicks": 384,
            "midi": 50,
            "name": "D3",
            "ticks": 153600,
            "time": 105.72679999999998,
            "velocity": 0.6141732283464567
          },
          {
            "duration": 0.26431700000000546,
            "durationTicks": 384,
            "midi": 57,
            "name": "A3",
            "ticks": 153984,
            "time": 105.99111699999999,
            "velocity": 0.6141732283464567
          },
          {
            "duration": 0.26431699999999125,
            "durationTicks": 384,
            "midi": 62,
            "name": "D4",
            "ticks": 154368,
            "time": 106.255434,
            "velocity": 0.6141732283464567
          },
          {
            "duration": 0.26431700000000546,
            "durationTicks": 384,
            "midi": 57,
            "name": "A3",
            "ticks": 154752,
            "time": 106.51975099999999,
            "velocity": 0.6141732283464567
          },
          {
            "duration": 1.0572679999999934,
            "durationTicks": 1536,
            "midi": 64,
            "name": "E4",
            "ticks": 155136,
            "time": 106.78406799999999,
            "velocity": 0.6141732283464567
          },
          {
            "duration": 0.26431700000000546,
            "durationTicks": 384,
            "midi": 50,
            "name": "D3",
            "ticks": 156672,
            "time": 107.84133599999998,
            "velocity": 0.6141732283464567
          },
          {
            "duration": 0.26431699999999125,
            "durationTicks": 384,
            "midi": 57,
            "name": "A3",
            "ticks": 157056,
            "time": 108.10565299999999,
            "velocity": 0.6141732283464567
          },
          {
            "duration": 0.26431700000000546,
            "durationTicks": 384,
            "midi": 62,
            "name": "D4",
            "ticks": 157440,
            "time": 108.36996999999998,
            "velocity": 0.6141732283464567
          },
          {
            "duration": 0.26431700000000546,
            "durationTicks": 384,
            "midi": 57,
            "name": "A3",
            "ticks": 157824,
            "time": 108.63428699999999,
            "velocity": 0.6141732283464567
          },
          {
            "duration": 0.5286339999999967,
            "durationTicks": 768,
            "midi": 65,
            "name": "F4",
            "ticks": 158208,
            "time": 108.89860399999999,
            "velocity": 0.6141732283464567
          },
          {
            "duration": 0.26431700000000546,
            "durationTicks": 384,
            "midi": 67,
            "name": "G4",
            "ticks": 158976,
            "time": 109.42723799999999,
            "velocity": 0.6141732283464567
          },
          {
            "duration": 0.26431699999999125,
            "durationTicks": 384,
            "midi": 65,
            "name": "F4",
            "ticks": 159360,
            "time": 109.691555,
            "velocity": 0.6141732283464567
          }
        ],
        "endOfTrackTicks": 159744
      },
      {
        "channel": 9,
        "controlChanges": {},
        "pitchBends": [],
        "instrument": {
          "family": "drums",
          "number": 0,
          "name": "standard kit"
        },
        "name": "Electric Drum Kit",
        "notes": [
          {
            "duration": 0.06607924999999781,
            "durationTicks": 96,
            "midi": 40,
            "name": "E2",
            "ticks": 36864,
            "time": 25.374432,
            "velocity": 0.33070866141732286
          },
          {
            "duration": 0.13215849999999918,
            "durationTicks": 192,
            "midi": 36,
            "name": "C2",
            "ticks": 36864,
            "time": 25.374432,
            "velocity": 0.4015748031496063
          },
          {
            "duration": 0.06607925000000137,
            "durationTicks": 96,
            "midi": 40,
            "name": "E2",
            "ticks": 36960,
            "time": 25.440511249999997,
            "velocity": 0.33070866141732286
          },
          {
            "duration": 0.06607924999999781,
            "durationTicks": 96,
            "midi": 40,
            "name": "E2",
            "ticks": 37056,
            "time": 25.506590499999998,
            "velocity": 0.33070866141732286
          },
          {
            "duration": 0.06607925000000137,
            "durationTicks": 96,
            "midi": 40,
            "name": "E2",
            "ticks": 37152,
            "time": 25.572669749999996,
            "velocity": 0.33070866141732286
          },
          {
            "duration": 0.06607925000000137,
            "durationTicks": 96,
            "midi": 40,
            "name": "E2",
            "ticks": 37248,
            "time": 25.638748999999997,
            "velocity": 0.33070866141732286
          },
          {
            "duration": 0.06607924999999781,
            "durationTicks": 96,
            "midi": 40,
            "name": "E2",
            "ticks": 37344,
            "time": 25.70482825,
            "velocity": 0.33070866141732286
          },
          {
            "duration": 0.06607925000000137,
            "durationTicks": 96,
            "midi": 40,
            "name": "E2",
            "ticks": 37440,
            "time": 25.770907499999996,
            "velocity": 0.33070866141732286
          },
          {
            "duration": 0.06607924999999781,
            "durationTicks": 96,
            "midi": 40,
            "name": "E2",
            "ticks": 37536,
            "time": 25.836986749999998,
            "velocity": 0.33070866141732286
          },
          {
            "duration": 0.06607925000000137,
            "durationTicks": 96,
            "midi": 40,
            "name": "E2",
            "ticks": 37632,
            "time": 25.903065999999995,
            "velocity": 0.33070866141732286
          },
          {
            "duration": 0.06607925000000137,
            "durationTicks": 96,
            "midi": 40,
            "name": "E2",
            "ticks": 38400,
            "time": 26.431699999999996,
            "velocity": 0.33070866141732286
          },
          {
            "duration": 0.13215849999999918,
            "durationTicks": 192,
            "midi": 36,
            "name": "C2",
            "ticks": 38784,
            "time": 26.696016999999998,
            "velocity": 0.4015748031496063
          },
          {
            "duration": 0.13215849999999918,
            "durationTicks": 192,
            "midi": 36,
            "name": "C2",
            "ticks": 39168,
            "time": 26.960333999999996,
            "velocity": 0.4015748031496063
          },
          {
            "duration": 0.13215849999999918,
            "durationTicks": 192,
            "midi": 36,
            "name": "C2",
            "ticks": 39936,
            "time": 27.488967999999996,
            "velocity": 0.4015748031496063
          },
          {
            "duration": 0.06607925000000137,
            "durationTicks": 96,
            "midi": 40,
            "name": "E2",
            "ticks": 39936,
            "time": 27.488967999999996,
            "velocity": 0.33070866141732286
          },
          {
            "duration": 0.06607924999999781,
            "durationTicks": 96,
            "midi": 40,
            "name": "E2",
            "ticks": 40032,
            "time": 27.555047249999998,
            "velocity": 0.33070866141732286
          },
          {
            "duration": 0.06607925000000137,
            "durationTicks": 96,
            "midi": 40,
            "name": "E2",
            "ticks": 40128,
            "time": 27.621126499999995,
            "velocity": 0.33070866141732286
          },
          {
            "duration": 0.06607925000000137,
            "durationTicks": 96,
            "midi": 40,
            "name": "E2",
            "ticks": 40224,
            "time": 27.687205749999997,
            "velocity": 0.33070866141732286
          },
          {
            "duration": 0.06607924999999781,
            "durationTicks": 96,
            "midi": 40,
            "name": "E2",
            "ticks": 40320,
            "time": 27.753284999999998,
            "velocity": 0.33070866141732286
          },
          {
            "duration": 0.06607925000000137,
            "durationTicks": 96,
            "midi": 40,
            "name": "E2",
            "ticks": 40416,
            "time": 27.819364249999996,
            "velocity": 0.33070866141732286
          },
          {
            "duration": 0.06607924999999781,
            "durationTicks": 96,
            "midi": 40,
            "name": "E2",
            "ticks": 40512,
            "time": 27.885443499999997,
            "velocity": 0.33070866141732286
          },
          {
            "duration": 0.06607925000000137,
            "durationTicks": 96,
            "midi": 40,
            "name": "E2",
            "ticks": 40608,
            "time": 27.951522749999995,
            "velocity": 0.33070866141732286
          },
          {
            "duration": 0.06607925000000137,
            "durationTicks": 96,
            "midi": 40,
            "name": "E2",
            "ticks": 40704,
            "time": 28.017601999999997,
            "velocity": 0.33070866141732286
          },
          {
            "duration": 0.06607925000000137,
            "durationTicks": 96,
            "midi": 40,
            "name": "E2",
            "ticks": 41472,
            "time": 28.546235999999997,
            "velocity": 0.33070866141732286
          },
          {
            "duration": 0.13215850000000273,
            "durationTicks": 192,
            "midi": 36,
            "name": "C2",
            "ticks": 41856,
            "time": 28.810552999999995,
            "velocity": 0.4015748031496063
          },
          {
            "duration": 0.13215850000000273,
            "durationTicks": 192,
            "midi": 36,
            "name": "C2",
            "ticks": 42624,
            "time": 29.339186999999995,
            "velocity": 0.4015748031496063
          },
          {
            "duration": 0.06607924999999781,
            "durationTicks": 96,
            "midi": 40,
            "name": "E2",
            "ticks": 43008,
            "time": 29.603503999999997,
            "velocity": 0.33070866141732286
          },
          {
            "duration": 0.13215849999999918,
            "durationTicks": 192,
            "midi": 36,
            "name": "C2",
            "ticks": 43008,
            "time": 29.603503999999997,
            "velocity": 0.4015748031496063
          },
          {
            "duration": 0.06607925000000137,
            "durationTicks": 96,
            "midi": 40,
            "name": "E2",
            "ticks": 43104,
            "time": 29.669583249999995,
            "velocity": 0.33070866141732286
          },
          {
            "duration": 0.06607925000000137,
            "durationTicks": 96,
            "midi": 40,
            "name": "E2",
            "ticks": 43200,
            "time": 29.735662499999997,
            "velocity": 0.33070866141732286
          },
          {
            "duration": 0.06607924999999781,
            "durationTicks": 96,
            "midi": 40,
            "name": "E2",
            "ticks": 43296,
            "time": 29.801741749999998,
            "velocity": 0.33070866141732286
          },
          {
            "duration": 0.06607925000000137,
            "durationTicks": 96,
            "midi": 40,
            "name": "E2",
            "ticks": 43392,
            "time": 29.867820999999996,
            "velocity": 0.33070866141732286
          },
          {
            "duration": 0.06607924999999781,
            "durationTicks": 96,
            "midi": 40,
            "name": "E2",
            "ticks": 43488,
            "time": 29.933900249999997,
            "velocity": 0.33070866141732286
          },
          {
            "duration": 0.06607925000000137,
            "durationTicks": 96,
            "midi": 40,
            "name": "E2",
            "ticks": 43584,
            "time": 29.999979499999995,
            "velocity": 0.33070866141732286
          },
          {
            "duration": 0.06607925000000137,
            "durationTicks": 96,
            "midi": 40,
            "name": "E2",
            "ticks": 43680,
            "time": 30.066058749999996,
            "velocity": 0.33070866141732286
          },
          {
            "duration": 0.06607924999999781,
            "durationTicks": 96,
            "midi": 40,
            "name": "E2",
            "ticks": 43776,
            "time": 30.132137999999998,
            "velocity": 0.33070866141732286
          },
          {
            "duration": 0.06607924999999781,
            "durationTicks": 96,
            "midi": 40,
            "name": "E2",
            "ticks": 44544,
            "time": 30.660771999999998,
            "velocity": 0.33070866141732286
          },
          {
            "duration": 0.13215849999999918,
            "durationTicks": 192,
            "midi": 36,
            "name": "C2",
            "ticks": 44928,
            "time": 30.925088999999996,
            "velocity": 0.4015748031496063
          },
          {
            "duration": 0.13215850000000273,
            "durationTicks": 192,
            "midi": 36,
            "name": "C2",
            "ticks": 45312,
            "time": 31.189405999999995,
            "velocity": 0.4015748031496063
          },
          {
            "duration": 0.13215850000000273,
            "durationTicks": 192,
            "midi": 36,
            "name": "C2",
            "ticks": 46080,
            "time": 31.718039999999995,
            "velocity": 0.4015748031496063
          },
          {
            "duration": 0.06607925000000137,
            "durationTicks": 96,
            "midi": 40,
            "name": "E2",
            "ticks": 46080,
            "time": 31.718039999999995,
            "velocity": 0.33070866141732286
          },
          {
            "duration": 0.06607925000000137,
            "durationTicks": 96,
            "midi": 40,
            "name": "E2",
            "ticks": 46176,
            "time": 31.784119249999996,
            "velocity": 0.33070866141732286
          },
          {
            "duration": 0.06607924999999781,
            "durationTicks": 96,
            "midi": 40,
            "name": "E2",
            "ticks": 46272,
            "time": 31.850198499999998,
            "velocity": 0.33070866141732286
          },
          {
            "duration": 0.06607925000000137,
            "durationTicks": 96,
            "midi": 40,
            "name": "E2",
            "ticks": 46368,
            "time": 31.916277749999995,
            "velocity": 0.33070866141732286
          },
          {
            "duration": 0.06607924999999781,
            "durationTicks": 96,
            "midi": 40,
            "name": "E2",
            "ticks": 46464,
            "time": 31.982356999999997,
            "velocity": 0.33070866141732286
          },
          {
            "duration": 0.06607925000000137,
            "durationTicks": 96,
            "midi": 40,
            "name": "E2",
            "ticks": 46560,
            "time": 32.048436249999995,
            "velocity": 0.33070866141732286
          },
          {
            "duration": 0.06607925000000137,
            "durationTicks": 96,
            "midi": 40,
            "name": "E2",
            "ticks": 46656,
            "time": 32.114515499999996,
            "velocity": 0.33070866141732286
          },
          {
            "duration": 0.06607925000000137,
            "durationTicks": 96,
            "midi": 40,
            "name": "E2",
            "ticks": 46752,
            "time": 32.18059475,
            "velocity": 0.33070866141732286
          },
          {
            "duration": 0.06607924999999426,
            "durationTicks": 96,
            "midi": 40,
            "name": "E2",
            "ticks": 46848,
            "time": 32.246674,
            "velocity": 0.33070866141732286
          },
          {
            "duration": 0.06607925000000137,
            "durationTicks": 96,
            "midi": 40,
            "name": "E2",
            "ticks": 47616,
            "time": 32.775307999999995,
            "velocity": 0.33070866141732286
          },
          {
            "duration": 0.13215850000000273,
            "durationTicks": 192,
            "midi": 36,
            "name": "C2",
            "ticks": 48000,
            "time": 33.039624999999994,
            "velocity": 0.4015748031496063
          },
          {
            "duration": 0.13215849999999563,
            "durationTicks": 192,
            "midi": 36,
            "name": "C2",
            "ticks": 48768,
            "time": 33.568259,
            "velocity": 0.4015748031496063
          },
          {
            "duration": 0.13215850000000273,
            "durationTicks": 192,
            "midi": 36,
            "name": "C2",
            "ticks": 49152,
            "time": 33.832575999999996,
            "velocity": 0.4015748031496063
          },
          {
            "duration": 0.06607925000000137,
            "durationTicks": 96,
            "midi": 40,
            "name": "E2",
            "ticks": 49152,
            "time": 33.832575999999996,
            "velocity": 0.33070866141732286
          },
          {
            "duration": 0.06607925000000137,
            "durationTicks": 96,
            "midi": 40,
            "name": "E2",
            "ticks": 49248,
            "time": 33.89865525,
            "velocity": 0.33070866141732286
          },
          {
            "duration": 0.06607924999999426,
            "durationTicks": 96,
            "midi": 40,
            "name": "E2",
            "ticks": 49344,
            "time": 33.9647345,
            "velocity": 0.33070866141732286
          },
          {
            "duration": 0.06607925000000137,
            "durationTicks": 96,
            "midi": 40,
            "name": "E2",
            "ticks": 49440,
            "time": 34.03081374999999,
            "velocity": 0.33070866141732286
          },
          {
            "duration": 0.06607925000000137,
            "durationTicks": 96,
            "midi": 40,
            "name": "E2",
            "ticks": 49536,
            "time": 34.096892999999994,
            "velocity": 0.33070866141732286
          },
          {
            "duration": 0.06607925000000137,
            "durationTicks": 96,
            "midi": 40,
            "name": "E2",
            "ticks": 49632,
            "time": 34.162972249999996,
            "velocity": 0.33070866141732286
          },
          {
            "duration": 0.06607925000000137,
            "durationTicks": 96,
            "midi": 40,
            "name": "E2",
            "ticks": 49728,
            "time": 34.2290515,
            "velocity": 0.33070866141732286
          },
          {
            "duration": 0.06607924999999426,
            "durationTicks": 96,
            "midi": 40,
            "name": "E2",
            "ticks": 49824,
            "time": 34.29513075,
            "velocity": 0.33070866141732286
          },
          {
            "duration": 0.06607925000000137,
            "durationTicks": 96,
            "midi": 40,
            "name": "E2",
            "ticks": 49920,
            "time": 34.36120999999999,
            "velocity": 0.33070866141732286
          },
          {
            "duration": 0.06607925000000137,
            "durationTicks": 96,
            "midi": 40,
            "name": "E2",
            "ticks": 50688,
            "time": 34.889844,
            "velocity": 0.33070866141732286
          },
          {
            "duration": 0.13215850000000273,
            "durationTicks": 192,
            "midi": 36,
            "name": "C2",
            "ticks": 51072,
            "time": 35.154160999999995,
            "velocity": 0.4015748031496063
          },
          {
            "duration": 0.13215850000000273,
            "durationTicks": 192,
            "midi": 36,
            "name": "C2",
            "ticks": 51456,
            "time": 35.41847799999999,
            "velocity": 0.4015748031496063
          },
          {
            "duration": 0.13215849999999563,
            "durationTicks": 192,
            "midi": 36,
            "name": "C2",
            "ticks": 52224,
            "time": 35.947112,
            "velocity": 0.4015748031496063
          },
          {
            "duration": 0.06607925000000137,
            "durationTicks": 96,
            "midi": 40,
            "name": "E2",
            "ticks": 52224,
            "time": 35.947112,
            "velocity": 0.33070866141732286
          },
          {
            "duration": 0.06607924999999426,
            "durationTicks": 96,
            "midi": 40,
            "name": "E2",
            "ticks": 52320,
            "time": 36.01319125,
            "velocity": 0.33070866141732286
          },
          {
            "duration": 0.06607925000000137,
            "durationTicks": 96,
            "midi": 40,
            "name": "E2",
            "ticks": 52416,
            "time": 36.07927049999999,
            "velocity": 0.33070866141732286
          },
          {
            "duration": 0.06607925000000137,
            "durationTicks": 96,
            "midi": 40,
            "name": "E2",
            "ticks": 52512,
            "time": 36.145349749999994,
            "velocity": 0.33070866141732286
          },
          {
            "duration": 0.06607925000000137,
            "durationTicks": 96,
            "midi": 40,
            "name": "E2",
            "ticks": 52608,
            "time": 36.211428999999995,
            "velocity": 0.33070866141732286
          },
          {
            "duration": 0.06607925000000137,
            "durationTicks": 96,
            "midi": 40,
            "name": "E2",
            "ticks": 52704,
            "time": 36.27750825,
            "velocity": 0.33070866141732286
          },
          {
            "duration": 0.06607924999999426,
            "durationTicks": 96,
            "midi": 40,
            "name": "E2",
            "ticks": 52800,
            "time": 36.3435875,
            "velocity": 0.33070866141732286
          },
          {
            "duration": 0.06607925000000137,
            "durationTicks": 96,
            "midi": 40,
            "name": "E2",
            "ticks": 52896,
            "time": 36.40966674999999,
            "velocity": 0.33070866141732286
          },
          {
            "duration": 0.06607925000000137,
            "durationTicks": 96,
            "midi": 40,
            "name": "E2",
            "ticks": 52992,
            "time": 36.475745999999994,
            "velocity": 0.33070866141732286
          },
          {
            "duration": 0.06607925000000137,
            "durationTicks": 96,
            "midi": 40,
            "name": "E2",
            "ticks": 53760,
            "time": 37.00438,
            "velocity": 0.33070866141732286
          },
          {
            "duration": 0.13215850000000273,
            "durationTicks": 192,
            "midi": 36,
            "name": "C2",
            "ticks": 54144,
            "time": 37.268696999999996,
            "velocity": 0.4015748031496063
          },
          {
            "duration": 0.13215850000000273,
            "durationTicks": 192,
            "midi": 36,
            "name": "C2",
            "ticks": 54912,
            "time": 37.79733099999999,
            "velocity": 0.4015748031496063
          },
          {
            "duration": 0.06607924999999426,
            "durationTicks": 96,
            "midi": 40,
            "name": "E2",
            "ticks": 55296,
            "time": 38.061648,
            "velocity": 0.33070866141732286
          },
          {
            "duration": 0.13215849999999563,
            "durationTicks": 192,
            "midi": 36,
            "name": "C2",
            "ticks": 55296,
            "time": 38.061648,
            "velocity": 0.4015748031496063
          },
          {
            "duration": 0.06607925000000137,
            "durationTicks": 96,
            "midi": 40,
            "name": "E2",
            "ticks": 55392,
            "time": 38.12772724999999,
            "velocity": 0.33070866141732286
          },
          {
            "duration": 0.06607925000000137,
            "durationTicks": 96,
            "midi": 40,
            "name": "E2",
            "ticks": 55488,
            "time": 38.193806499999994,
            "velocity": 0.33070866141732286
          },
          {
            "duration": 0.06607925000000137,
            "durationTicks": 96,
            "midi": 40,
            "name": "E2",
            "ticks": 55584,
            "time": 38.259885749999995,
            "velocity": 0.33070866141732286
          },
          {
            "duration": 0.06607925000000137,
            "durationTicks": 96,
            "midi": 40,
            "name": "E2",
            "ticks": 55680,
            "time": 38.325965,
            "velocity": 0.33070866141732286
          },
          {
            "duration": 0.06607924999999426,
            "durationTicks": 96,
            "midi": 40,
            "name": "E2",
            "ticks": 55776,
            "time": 38.39204425,
            "velocity": 0.33070866141732286
          },
          {
            "duration": 0.06607925000000137,
            "durationTicks": 96,
            "midi": 40,
            "name": "E2",
            "ticks": 55872,
            "time": 38.45812349999999,
            "velocity": 0.33070866141732286
          },
          {
            "duration": 0.06607925000000137,
            "durationTicks": 96,
            "midi": 40,
            "name": "E2",
            "ticks": 55968,
            "time": 38.52420274999999,
            "velocity": 0.33070866141732286
          },
          {
            "duration": 0.06607925000000137,
            "durationTicks": 96,
            "midi": 40,
            "name": "E2",
            "ticks": 56064,
            "time": 38.590281999999995,
            "velocity": 0.33070866141732286
          },
          {
            "duration": 0.06607924999999426,
            "durationTicks": 96,
            "midi": 40,
            "name": "E2",
            "ticks": 56832,
            "time": 39.118916,
            "velocity": 0.33070866141732286
          },
          {
            "duration": 0.13215849999999563,
            "durationTicks": 192,
            "midi": 36,
            "name": "C2",
            "ticks": 57216,
            "time": 39.383233,
            "velocity": 0.4015748031496063
          },
          {
            "duration": 0.13215850000000273,
            "durationTicks": 192,
            "midi": 36,
            "name": "C2",
            "ticks": 57600,
            "time": 39.647549999999995,
            "velocity": 0.4015748031496063
          },
          {
            "duration": 0.13215850000000273,
            "durationTicks": 192,
            "midi": 36,
            "name": "C2",
            "ticks": 58368,
            "time": 40.17618399999999,
            "velocity": 0.4015748031496063
          },
          {
            "duration": 0.06607925000000137,
            "durationTicks": 96,
            "midi": 40,
            "name": "E2",
            "ticks": 58368,
            "time": 40.17618399999999,
            "velocity": 0.33070866141732286
          },
          {
            "duration": 0.06607925000000137,
            "durationTicks": 96,
            "midi": 40,
            "name": "E2",
            "ticks": 58464,
            "time": 40.24226324999999,
            "velocity": 0.33070866141732286
          },
          {
            "duration": 0.06607925000000137,
            "durationTicks": 96,
            "midi": 40,
            "name": "E2",
            "ticks": 58560,
            "time": 40.308342499999995,
            "velocity": 0.33070866141732286
          },
          {
            "duration": 0.06607925000000137,
            "durationTicks": 96,
            "midi": 40,
            "name": "E2",
            "ticks": 58656,
            "time": 40.374421749999996,
            "velocity": 0.33070866141732286
          },
          {
            "duration": 0.06607924999999426,
            "durationTicks": 96,
            "midi": 40,
            "name": "E2",
            "ticks": 58752,
            "time": 40.440501,
            "velocity": 0.33070866141732286
          },
          {
            "duration": 0.06607925000000137,
            "durationTicks": 96,
            "midi": 40,
            "name": "E2",
            "ticks": 58848,
            "time": 40.50658024999999,
            "velocity": 0.33070866141732286
          },
          {
            "duration": 0.06607925000000137,
            "durationTicks": 96,
            "midi": 40,
            "name": "E2",
            "ticks": 58944,
            "time": 40.57265949999999,
            "velocity": 0.33070866141732286
          },
          {
            "duration": 0.06607925000000137,
            "durationTicks": 96,
            "midi": 40,
            "name": "E2",
            "ticks": 59040,
            "time": 40.638738749999995,
            "velocity": 0.33070866141732286
          },
          {
            "duration": 0.06607925000000137,
            "durationTicks": 96,
            "midi": 40,
            "name": "E2",
            "ticks": 59136,
            "time": 40.704817999999996,
            "velocity": 0.33070866141732286
          },
          {
            "duration": 0.13215850000000273,
            "durationTicks": 192,
            "midi": 36,
            "name": "C2",
            "ticks": 59904,
            "time": 41.23345199999999,
            "velocity": 0.4015748031496063
          },
          {
            "duration": 0.13215850000000273,
            "durationTicks": 192,
            "midi": 40,
            "name": "E2",
            "ticks": 59904,
            "time": 41.23345199999999,
            "velocity": 0.33070866141732286
          },
          {
            "duration": 0.13215849999999563,
            "durationTicks": 192,
            "midi": 36,
            "name": "C2",
            "ticks": 60288,
            "time": 41.497769,
            "velocity": 0.4015748031496063
          },
          {
            "duration": 0.13215849999999563,
            "durationTicks": 192,
            "midi": 40,
            "name": "E2",
            "ticks": 60288,
            "time": 41.497769,
            "velocity": 0.33070866141732286
          },
          {
            "duration": 0.13215849999999563,
            "durationTicks": 192,
            "midi": 36,
            "name": "C2",
            "ticks": 60672,
            "time": 41.762086,
            "velocity": 0.4015748031496063
          },
          {
            "duration": 0.13215849999999563,
            "durationTicks": 192,
            "midi": 40,
            "name": "E2",
            "ticks": 60672,
            "time": 41.762086,
            "velocity": 0.33070866141732286
          },
          {
            "duration": 0.13215850000000273,
            "durationTicks": 192,
            "midi": 40,
            "name": "E2",
            "ticks": 61056,
            "time": 42.026402999999995,
            "velocity": 0.33070866141732286
          },
          {
            "duration": 0.13215850000000273,
            "durationTicks": 192,
            "midi": 36,
            "name": "C2",
            "ticks": 61056,
            "time": 42.026402999999995,
            "velocity": 0.4015748031496063
          },
          {
            "duration": 0.26431699999999836,
            "durationTicks": 384,
            "midi": 49,
            "name": "C#3",
            "ticks": 61440,
            "time": 42.29071999999999,
            "velocity": 0.33070866141732286
          },
          {
            "duration": 0.06607925000000137,
            "durationTicks": 96,
            "midi": 40,
            "name": "E2",
            "ticks": 61440,
            "time": 42.29071999999999,
            "velocity": 0.33070866141732286
          },
          {
            "duration": 0.13215850000000273,
            "durationTicks": 192,
            "midi": 36,
            "name": "C2",
            "ticks": 61440,
            "time": 42.29071999999999,
            "velocity": 0.4015748031496063
          },
          {
            "duration": 0.06607925000000137,
            "durationTicks": 96,
            "midi": 40,
            "name": "E2",
            "ticks": 61536,
            "time": 42.356799249999995,
            "velocity": 0.33070866141732286
          },
          {
            "duration": 0.06607925000000137,
            "durationTicks": 96,
            "midi": 40,
            "name": "E2",
            "ticks": 61632,
            "time": 42.422878499999996,
            "velocity": 0.33070866141732286
          },
          {
            "duration": 0.06607924999999426,
            "durationTicks": 96,
            "midi": 40,
            "name": "E2",
            "ticks": 61728,
            "time": 42.48895775,
            "velocity": 0.33070866141732286
          },
          {
            "duration": 0.06607925000000137,
            "durationTicks": 96,
            "midi": 40,
            "name": "E2",
            "ticks": 61824,
            "time": 42.55503699999999,
            "velocity": 0.33070866141732286
          },
          {
            "duration": 0.06607925000000137,
            "durationTicks": 96,
            "midi": 40,
            "name": "E2",
            "ticks": 61920,
            "time": 42.62111624999999,
            "velocity": 0.33070866141732286
          },
          {
            "duration": 0.06607925000000137,
            "durationTicks": 96,
            "midi": 40,
            "name": "E2",
            "ticks": 62016,
            "time": 42.687195499999994,
            "velocity": 0.33070866141732286
          },
          {
            "duration": 0.06607925000000137,
            "durationTicks": 96,
            "midi": 40,
            "name": "E2",
            "ticks": 62112,
            "time": 42.753274749999996,
            "velocity": 0.33070866141732286
          },
          {
            "duration": 0.06607925000000137,
            "durationTicks": 96,
            "midi": 40,
            "name": "E2",
            "ticks": 62208,
            "time": 42.819354,
            "velocity": 0.33070866141732286
          },
          {
            "duration": 0.06607925000000137,
            "durationTicks": 96,
            "midi": 40,
            "name": "E2",
            "ticks": 62976,
            "time": 43.347987999999994,
            "velocity": 0.33070866141732286
          },
          {
            "duration": 0.13215850000000273,
            "durationTicks": 192,
            "midi": 36,
            "name": "C2",
            "ticks": 63360,
            "time": 43.61230499999999,
            "velocity": 0.4015748031496063
          },
          {
            "duration": 0.13215849999999563,
            "durationTicks": 192,
            "midi": 36,
            "name": "C2",
            "ticks": 63744,
            "time": 43.876622,
            "velocity": 0.4015748031496063
          },
          {
            "duration": 0.06607925000000137,
            "durationTicks": 96,
            "midi": 40,
            "name": "E2",
            "ticks": 64512,
            "time": 44.405255999999994,
            "velocity": 0.33070866141732286
          },
          {
            "duration": 0.13215850000000273,
            "durationTicks": 192,
            "midi": 36,
            "name": "C2",
            "ticks": 64512,
            "time": 44.405255999999994,
            "velocity": 0.4015748031496063
          },
          {
            "duration": 0.06607925000000137,
            "durationTicks": 96,
            "midi": 40,
            "name": "E2",
            "ticks": 64608,
            "time": 44.471335249999996,
            "velocity": 0.33070866141732286
          },
          {
            "duration": 0.06607924999999426,
            "durationTicks": 96,
            "midi": 40,
            "name": "E2",
            "ticks": 64704,
            "time": 44.5374145,
            "velocity": 0.33070866141732286
          },
          {
            "duration": 0.06607925000000137,
            "durationTicks": 96,
            "midi": 40,
            "name": "E2",
            "ticks": 64800,
            "time": 44.60349374999999,
            "velocity": 0.33070866141732286
          },
          {
            "duration": 0.06607925000000137,
            "durationTicks": 96,
            "midi": 40,
            "name": "E2",
            "ticks": 64896,
            "time": 44.66957299999999,
            "velocity": 0.33070866141732286
          },
          {
            "duration": 0.06607925000000137,
            "durationTicks": 96,
            "midi": 40,
            "name": "E2",
            "ticks": 64992,
            "time": 44.735652249999994,
            "velocity": 0.33070866141732286
          },
          {
            "duration": 0.06607925000000137,
            "durationTicks": 96,
            "midi": 40,
            "name": "E2",
            "ticks": 65088,
            "time": 44.801731499999995,
            "velocity": 0.33070866141732286
          },
          {
            "duration": 0.06607925000000137,
            "durationTicks": 96,
            "midi": 40,
            "name": "E2",
            "ticks": 65184,
            "time": 44.86781075,
            "velocity": 0.33070866141732286
          },
          {
            "duration": 0.06607924999999426,
            "durationTicks": 96,
            "midi": 40,
            "name": "E2",
            "ticks": 65280,
            "time": 44.93389,
            "velocity": 0.33070866141732286
          },
          {
            "duration": 0.06607925000000137,
            "durationTicks": 96,
            "midi": 40,
            "name": "E2",
            "ticks": 66048,
            "time": 45.462523999999995,
            "velocity": 0.33070866141732286
          },
          {
            "duration": 0.13215850000000273,
            "durationTicks": 192,
            "midi": 36,
            "name": "C2",
            "ticks": 66432,
            "time": 45.72684099999999,
            "velocity": 0.4015748031496063
          },
          {
            "duration": 0.13215849999999563,
            "durationTicks": 192,
            "midi": 36,
            "name": "C2",
            "ticks": 67200,
            "time": 46.255475,
            "velocity": 0.4015748031496063
          },
          {
            "duration": 0.13215849999999563,
            "durationTicks": 192,
            "midi": 36,
            "name": "C2",
            "ticks": 67584,
            "time": 46.519791999999995,
            "velocity": 0.4015748031496063
          },
          {
            "duration": 0.06607925000000137,
            "durationTicks": 96,
            "midi": 40,
            "name": "E2",
            "ticks": 67584,
            "time": 46.519791999999995,
            "velocity": 0.33070866141732286
          },
          {
            "duration": 0.06607924999999426,
            "durationTicks": 96,
            "midi": 40,
            "name": "E2",
            "ticks": 67680,
            "time": 46.58587125,
            "velocity": 0.33070866141732286
          },
          {
            "duration": 0.06607925000000137,
            "durationTicks": 96,
            "midi": 40,
            "name": "E2",
            "ticks": 67776,
            "time": 46.65195049999999,
            "velocity": 0.33070866141732286
          },
          {
            "duration": 0.06607925000000137,
            "durationTicks": 96,
            "midi": 40,
            "name": "E2",
            "ticks": 67872,
            "time": 46.71802974999999,
            "velocity": 0.33070866141732286
          },
          {
            "duration": 0.06607925000000137,
            "durationTicks": 96,
            "midi": 40,
            "name": "E2",
            "ticks": 67968,
            "time": 46.784108999999994,
            "velocity": 0.33070866141732286
          },
          {
            "duration": 0.06607925000000137,
            "durationTicks": 96,
            "midi": 40,
            "name": "E2",
            "ticks": 68064,
            "time": 46.850188249999995,
            "velocity": 0.33070866141732286
          },
          {
            "duration": 0.06607925000000137,
            "durationTicks": 96,
            "midi": 40,
            "name": "E2",
            "ticks": 68160,
            "time": 46.9162675,
            "velocity": 0.33070866141732286
          },
          {
            "duration": 0.06607924999999426,
            "durationTicks": 96,
            "midi": 40,
            "name": "E2",
            "ticks": 68256,
            "time": 46.98234675,
            "velocity": 0.33070866141732286
          },
          {
            "duration": 0.06607925000000137,
            "durationTicks": 96,
            "midi": 40,
            "name": "E2",
            "ticks": 68352,
            "time": 47.04842599999999,
            "velocity": 0.33070866141732286
          },
          {
            "duration": 0.06607925000000137,
            "durationTicks": 96,
            "midi": 40,
            "name": "E2",
            "ticks": 69120,
            "time": 47.577059999999996,
            "velocity": 0.33070866141732286
          },
          {
            "duration": 0.13215850000000273,
            "durationTicks": 192,
            "midi": 36,
            "name": "C2",
            "ticks": 69504,
            "time": 47.841376999999994,
            "velocity": 0.4015748031496063
          },
          {
            "duration": 0.13215850000000273,
            "durationTicks": 192,
            "midi": 36,
            "name": "C2",
            "ticks": 69888,
            "time": 48.10569399999999,
            "velocity": 0.4015748031496063
          },
          {
            "duration": 0.13215849999999563,
            "durationTicks": 192,
            "midi": 36,
            "name": "C2",
            "ticks": 70656,
            "time": 48.634328,
            "velocity": 0.4015748031496063
          },
          {
            "duration": 0.06607924999999426,
            "durationTicks": 96,
            "midi": 40,
            "name": "E2",
            "ticks": 70656,
            "time": 48.634328,
            "velocity": 0.33070866141732286
          },
          {
            "duration": 0.06607925000000137,
            "durationTicks": 96,
            "midi": 40,
            "name": "E2",
            "ticks": 70752,
            "time": 48.70040724999999,
            "velocity": 0.33070866141732286
          },
          {
            "duration": 0.06607925000000137,
            "durationTicks": 96,
            "midi": 40,
            "name": "E2",
            "ticks": 70848,
            "time": 48.76648649999999,
            "velocity": 0.33070866141732286
          },
          {
            "duration": 0.06607925000000137,
            "durationTicks": 96,
            "midi": 40,
            "name": "E2",
            "ticks": 70944,
            "time": 48.83256574999999,
            "velocity": 0.33070866141732286
          },
          {
            "duration": 0.06607925000000137,
            "durationTicks": 96,
            "midi": 40,
            "name": "E2",
            "ticks": 71040,
            "time": 48.898644999999995,
            "velocity": 0.33070866141732286
          },
          {
            "duration": 0.06607925000000137,
            "durationTicks": 96,
            "midi": 40,
            "name": "E2",
            "ticks": 71136,
            "time": 48.964724249999996,
            "velocity": 0.33070866141732286
          },
          {
            "duration": 0.06607924999999426,
            "durationTicks": 96,
            "midi": 40,
            "name": "E2",
            "ticks": 71232,
            "time": 49.0308035,
            "velocity": 0.33070866141732286
          },
          {
            "duration": 0.06607925000000137,
            "durationTicks": 96,
            "midi": 40,
            "name": "E2",
            "ticks": 71328,
            "time": 49.09688274999999,
            "velocity": 0.33070866141732286
          },
          {
            "duration": 0.06607925000000137,
            "durationTicks": 96,
            "midi": 40,
            "name": "E2",
            "ticks": 71424,
            "time": 49.16296199999999,
            "velocity": 0.33070866141732286
          },
          {
            "duration": 0.06607924999999426,
            "durationTicks": 96,
            "midi": 40,
            "name": "E2",
            "ticks": 72192,
            "time": 49.691596,
            "velocity": 0.33070866141732286
          },
          {
            "duration": 0.13215849999999563,
            "durationTicks": 192,
            "midi": 36,
            "name": "C2",
            "ticks": 72576,
            "time": 49.955912999999995,
            "velocity": 0.4015748031496063
          },
          {
            "duration": 0.13215850000000273,
            "durationTicks": 192,
            "midi": 36,
            "name": "C2",
            "ticks": 73344,
            "time": 50.48454699999999,
            "velocity": 0.4015748031496063
          },
          {
            "duration": 0.13215849999999563,
            "durationTicks": 192,
            "midi": 36,
            "name": "C2",
            "ticks": 73728,
            "time": 50.748864,
            "velocity": 0.4015748031496063
          },
          {
            "duration": 0.06607924999999426,
            "durationTicks": 96,
            "midi": 40,
            "name": "E2",
            "ticks": 73728,
            "time": 50.748864,
            "velocity": 0.33070866141732286
          },
          {
            "duration": 0.06607925000000137,
            "durationTicks": 96,
            "midi": 40,
            "name": "E2",
            "ticks": 73824,
            "time": 50.81494324999999,
            "velocity": 0.33070866141732286
          },
          {
            "duration": 0.06607925000000137,
            "durationTicks": 96,
            "midi": 40,
            "name": "E2",
            "ticks": 73920,
            "time": 50.88102249999999,
            "velocity": 0.33070866141732286
          },
          {
            "duration": 0.06607925000000137,
            "durationTicks": 96,
            "midi": 40,
            "name": "E2",
            "ticks": 74016,
            "time": 50.947101749999995,
            "velocity": 0.33070866141732286
          },
          {
            "duration": 0.06607925000000137,
            "durationTicks": 96,
            "midi": 40,
            "name": "E2",
            "ticks": 74112,
            "time": 51.013180999999996,
            "velocity": 0.33070866141732286
          },
          {
            "duration": 0.06607924999999426,
            "durationTicks": 96,
            "midi": 40,
            "name": "E2",
            "ticks": 74208,
            "time": 51.07926025,
            "velocity": 0.33070866141732286
          },
          {
            "duration": 0.06607925000000137,
            "durationTicks": 96,
            "midi": 40,
            "name": "E2",
            "ticks": 74304,
            "time": 51.14533949999999,
            "velocity": 0.33070866141732286
          },
          {
            "duration": 0.06607925000000137,
            "durationTicks": 96,
            "midi": 40,
            "name": "E2",
            "ticks": 74400,
            "time": 51.21141874999999,
            "velocity": 0.33070866141732286
          },
          {
            "duration": 0.06607925000000137,
            "durationTicks": 96,
            "midi": 40,
            "name": "E2",
            "ticks": 74496,
            "time": 51.277497999999994,
            "velocity": 0.33070866141732286
          },
          {
            "duration": 0.06607925000000137,
            "durationTicks": 96,
            "midi": 40,
            "name": "E2",
            "ticks": 75264,
            "time": 51.80613199999999,
            "velocity": 0.33070866141732286
          },
          {
            "duration": 0.13215849999999563,
            "durationTicks": 192,
            "midi": 36,
            "name": "C2",
            "ticks": 75648,
            "time": 52.070448999999996,
            "velocity": 0.4015748031496063
          },
          {
            "duration": 0.13215849999999563,
            "durationTicks": 192,
            "midi": 36,
            "name": "C2",
            "ticks": 76032,
            "time": 52.334765999999995,
            "velocity": 0.4015748031496063
          },
          {
            "duration": 0.06607925000000137,
            "durationTicks": 96,
            "midi": 40,
            "name": "E2",
            "ticks": 76800,
            "time": 52.86339999999999,
            "velocity": 0.33070866141732286
          },
          {
            "duration": 0.13215850000000273,
            "durationTicks": 192,
            "midi": 36,
            "name": "C2",
            "ticks": 76800,
            "time": 52.86339999999999,
            "velocity": 0.4015748031496063
          },
          {
            "duration": 0.06607925000000137,
            "durationTicks": 96,
            "midi": 40,
            "name": "E2",
            "ticks": 76896,
            "time": 52.92947924999999,
            "velocity": 0.33070866141732286
          },
          {
            "duration": 0.06607925000000137,
            "durationTicks": 96,
            "midi": 40,
            "name": "E2",
            "ticks": 76992,
            "time": 52.995558499999994,
            "velocity": 0.33070866141732286
          },
          {
            "duration": 0.06607925000000137,
            "durationTicks": 96,
            "midi": 40,
            "name": "E2",
            "ticks": 77088,
            "time": 53.061637749999996,
            "velocity": 0.33070866141732286
          },
          {
            "duration": 0.06607924999999426,
            "durationTicks": 96,
            "midi": 40,
            "name": "E2",
            "ticks": 77184,
            "time": 53.127717,
            "velocity": 0.33070866141732286
          },
          {
            "duration": 0.06607925000000137,
            "durationTicks": 96,
            "midi": 40,
            "name": "E2",
            "ticks": 77280,
            "time": 53.19379624999999,
            "velocity": 0.33070866141732286
          },
          {
            "duration": 0.06607925000000137,
            "durationTicks": 96,
            "midi": 40,
            "name": "E2",
            "ticks": 77376,
            "time": 53.25987549999999,
            "velocity": 0.33070866141732286
          },
          {
            "duration": 0.06607925000000137,
            "durationTicks": 96,
            "midi": 40,
            "name": "E2",
            "ticks": 77472,
            "time": 53.325954749999994,
            "velocity": 0.33070866141732286
          },
          {
            "duration": 0.06607925000000137,
            "durationTicks": 96,
            "midi": 40,
            "name": "E2",
            "ticks": 77568,
            "time": 53.392033999999995,
            "velocity": 0.33070866141732286
          },
          {
            "duration": 0.06607925000000137,
            "durationTicks": 96,
            "midi": 40,
            "name": "E2",
            "ticks": 78336,
            "time": 53.92066799999999,
            "velocity": 0.33070866141732286
          },
          {
            "duration": 0.13215850000000273,
            "durationTicks": 192,
            "midi": 36,
            "name": "C2",
            "ticks": 78720,
            "time": 54.18498499999999,
            "velocity": 0.4015748031496063
          },
          {
            "duration": 0.13215850000000273,
            "durationTicks": 192,
            "midi": 36,
            "name": "C2",
            "ticks": 79488,
            "time": 54.713618999999994,
            "velocity": 0.4015748031496063
          },
          {
            "duration": 0.13215850000000273,
            "durationTicks": 192,
            "midi": 36,
            "name": "C2",
            "ticks": 79872,
            "time": 54.97793599999999,
            "velocity": 0.4015748031496063
          },
          {
            "duration": 0.06607925000000137,
            "durationTicks": 96,
            "midi": 40,
            "name": "E2",
            "ticks": 79872,
            "time": 54.97793599999999,
            "velocity": 0.33070866141732286
          },
          {
            "duration": 0.06607925000000137,
            "durationTicks": 96,
            "midi": 40,
            "name": "E2",
            "ticks": 79968,
            "time": 55.044015249999994,
            "velocity": 0.33070866141732286
          },
          {
            "duration": 0.06607925000000137,
            "durationTicks": 96,
            "midi": 40,
            "name": "E2",
            "ticks": 80064,
            "time": 55.110094499999995,
            "velocity": 0.33070866141732286
          },
          {
            "duration": 0.06607924999999426,
            "durationTicks": 96,
            "midi": 40,
            "name": "E2",
            "ticks": 80160,
            "time": 55.17617375,
            "velocity": 0.33070866141732286
          },
          {
            "duration": 0.06607925000000137,
            "durationTicks": 96,
            "midi": 40,
            "name": "E2",
            "ticks": 80256,
            "time": 55.24225299999999,
            "velocity": 0.33070866141732286
          },
          {
            "duration": 0.06607925000000137,
            "durationTicks": 96,
            "midi": 40,
            "name": "E2",
            "ticks": 80352,
            "time": 55.30833224999999,
            "velocity": 0.33070866141732286
          },
          {
            "duration": 0.06607925000000137,
            "durationTicks": 96,
            "midi": 40,
            "name": "E2",
            "ticks": 80448,
            "time": 55.374411499999994,
            "velocity": 0.33070866141732286
          },
          {
            "duration": 0.06607925000000137,
            "durationTicks": 96,
            "midi": 40,
            "name": "E2",
            "ticks": 80544,
            "time": 55.440490749999995,
            "velocity": 0.33070866141732286
          },
          {
            "duration": 0.06607924999999426,
            "durationTicks": 96,
            "midi": 40,
            "name": "E2",
            "ticks": 80640,
            "time": 55.506569999999996,
            "velocity": 0.33070866141732286
          },
          {
            "duration": 0.06607925000000137,
            "durationTicks": 96,
            "midi": 40,
            "name": "E2",
            "ticks": 81408,
            "time": 56.03520399999999,
            "velocity": 0.33070866141732286
          },
          {
            "duration": 0.13215850000000273,
            "durationTicks": 192,
            "midi": 36,
            "name": "C2",
            "ticks": 81792,
            "time": 56.29952099999999,
            "velocity": 0.4015748031496063
          },
          {
            "duration": 0.13215850000000273,
            "durationTicks": 192,
            "midi": 36,
            "name": "C2",
            "ticks": 82176,
            "time": 56.56383799999999,
            "velocity": 0.4015748031496063
          },
          {
            "duration": 0.06607925000000137,
            "durationTicks": 96,
            "midi": 40,
            "name": "E2",
            "ticks": 82944,
            "time": 57.092471999999994,
            "velocity": 0.33070866141732286
          },
          {
            "duration": 0.13215850000000273,
            "durationTicks": 192,
            "midi": 36,
            "name": "C2",
            "ticks": 82944,
            "time": 57.092471999999994,
            "velocity": 0.4015748031496063
          },
          {
            "duration": 0.06607925000000137,
            "durationTicks": 96,
            "midi": 40,
            "name": "E2",
            "ticks": 83040,
            "time": 57.158551249999995,
            "velocity": 0.33070866141732286
          },
          {
            "duration": 0.06607924999999426,
            "durationTicks": 96,
            "midi": 40,
            "name": "E2",
            "ticks": 83136,
            "time": 57.224630499999996,
            "velocity": 0.33070866141732286
          },
          {
            "duration": 0.06607925000000137,
            "durationTicks": 96,
            "midi": 40,
            "name": "E2",
            "ticks": 83232,
            "time": 57.29070974999999,
            "velocity": 0.33070866141732286
          },
          {
            "duration": 0.06607925000000137,
            "durationTicks": 96,
            "midi": 40,
            "name": "E2",
            "ticks": 83328,
            "time": 57.35678899999999,
            "velocity": 0.33070866141732286
          },
          {
            "duration": 0.06607925000000137,
            "durationTicks": 96,
            "midi": 40,
            "name": "E2",
            "ticks": 83424,
            "time": 57.42286824999999,
            "velocity": 0.33070866141732286
          },
          {
            "duration": 0.06607925000000137,
            "durationTicks": 96,
            "midi": 40,
            "name": "E2",
            "ticks": 83520,
            "time": 57.488947499999995,
            "velocity": 0.33070866141732286
          },
          {
            "duration": 0.06607924999999426,
            "durationTicks": 96,
            "midi": 40,
            "name": "E2",
            "ticks": 83616,
            "time": 57.555026749999996,
            "velocity": 0.33070866141732286
          },
          {
            "duration": 0.06607925000000137,
            "durationTicks": 96,
            "midi": 40,
            "name": "E2",
            "ticks": 83712,
            "time": 57.62110599999999,
            "velocity": 0.33070866141732286
          },
          {
            "duration": 0.13215849999999563,
            "durationTicks": 192,
            "midi": 40,
            "name": "E2",
            "ticks": 84480,
            "time": 58.149739999999994,
            "velocity": 0.33070866141732286
          },
          {
            "duration": 0.13215849999999563,
            "durationTicks": 192,
            "midi": 36,
            "name": "C2",
            "ticks": 84480,
            "time": 58.149739999999994,
            "velocity": 0.4015748031496063
          },
          {
            "duration": 0.13215850000000273,
            "durationTicks": 192,
            "midi": 36,
            "name": "C2",
            "ticks": 84864,
            "time": 58.41405699999999,
            "velocity": 0.4015748031496063
          },
          {
            "duration": 0.13215850000000273,
            "durationTicks": 192,
            "midi": 40,
            "name": "E2",
            "ticks": 84864,
            "time": 58.41405699999999,
            "velocity": 0.33070866141732286
          },
          {
            "duration": 0.13215850000000273,
            "durationTicks": 192,
            "midi": 36,
            "name": "C2",
            "ticks": 85248,
            "time": 58.67837399999999,
            "velocity": 0.4015748031496063
          },
          {
            "duration": 0.13215850000000273,
            "durationTicks": 192,
            "midi": 40,
            "name": "E2",
            "ticks": 85248,
            "time": 58.67837399999999,
            "velocity": 0.33070866141732286
          },
          {
            "duration": 0.13215849999999563,
            "durationTicks": 192,
            "midi": 40,
            "name": "E2",
            "ticks": 85632,
            "time": 58.942690999999996,
            "velocity": 0.33070866141732286
          },
          {
            "duration": 0.13215849999999563,
            "durationTicks": 192,
            "midi": 36,
            "name": "C2",
            "ticks": 85632,
            "time": 58.942690999999996,
            "velocity": 0.4015748031496063
          },
          {
            "duration": 0.06607925000000137,
            "durationTicks": 96,
            "midi": 40,
            "name": "E2",
            "ticks": 86016,
            "time": 59.207007999999995,
            "velocity": 0.33070866141732286
          },
          {
            "duration": 0.13215849999999563,
            "durationTicks": 192,
            "midi": 36,
            "name": "C2",
            "ticks": 86016,
            "time": 59.207007999999995,
            "velocity": 0.4015748031496063
          },
          {
            "duration": 0.06607924999999426,
            "durationTicks": 96,
            "midi": 40,
            "name": "E2",
            "ticks": 86112,
            "time": 59.273087249999996,
            "velocity": 0.33070866141732286
          },
          {
            "duration": 0.06607925000000137,
            "durationTicks": 96,
            "midi": 40,
            "name": "E2",
            "ticks": 86208,
            "time": 59.33916649999999,
            "velocity": 0.33070866141732286
          },
          {
            "duration": 0.06607925000000137,
            "durationTicks": 96,
            "midi": 40,
            "name": "E2",
            "ticks": 86304,
            "time": 59.40524574999999,
            "velocity": 0.33070866141732286
          },
          {
            "duration": 0.06607925000000137,
            "durationTicks": 96,
            "midi": 40,
            "name": "E2",
            "ticks": 86400,
            "time": 59.47132499999999,
            "velocity": 0.33070866141732286
          },
          {
            "duration": 0.06607925000000137,
            "durationTicks": 96,
            "midi": 40,
            "name": "E2",
            "ticks": 86496,
            "time": 59.537404249999994,
            "velocity": 0.33070866141732286
          },
          {
            "duration": 0.06607924999999426,
            "durationTicks": 96,
            "midi": 40,
            "name": "E2",
            "ticks": 86592,
            "time": 59.603483499999996,
            "velocity": 0.33070866141732286
          },
          {
            "duration": 0.06607925000000137,
            "durationTicks": 96,
            "midi": 40,
            "name": "E2",
            "ticks": 86688,
            "time": 59.66956274999999,
            "velocity": 0.33070866141732286
          },
          {
            "duration": 0.06607925000000137,
            "durationTicks": 96,
            "midi": 40,
            "name": "E2",
            "ticks": 86784,
            "time": 59.73564199999999,
            "velocity": 0.33070866141732286
          },
          {
            "duration": 0.06607924999999426,
            "durationTicks": 96,
            "midi": 40,
            "name": "E2",
            "ticks": 87552,
            "time": 60.264275999999995,
            "velocity": 0.33070866141732286
          },
          {
            "duration": 0.13215849999999563,
            "durationTicks": 192,
            "midi": 36,
            "name": "C2",
            "ticks": 87936,
            "time": 60.528592999999994,
            "velocity": 0.4015748031496063
          },
          {
            "duration": 0.13215850000000273,
            "durationTicks": 192,
            "midi": 36,
            "name": "C2",
            "ticks": 88320,
            "time": 60.79290999999999,
            "velocity": 0.4015748031496063
          },
          {
            "duration": 0.13215849999999563,
            "durationTicks": 192,
            "midi": 36,
            "name": "C2",
            "ticks": 89088,
            "time": 61.321543999999996,
            "velocity": 0.4015748031496063
          },
          {
            "duration": 0.06607924999999426,
            "durationTicks": 96,
            "midi": 40,
            "name": "E2",
            "ticks": 89088,
            "time": 61.321543999999996,
            "velocity": 0.33070866141732286
          },
          {
            "duration": 0.06607925000000137,
            "durationTicks": 96,
            "midi": 40,
            "name": "E2",
            "ticks": 89184,
            "time": 61.38762324999999,
            "velocity": 0.33070866141732286
          },
          {
            "duration": 0.06607925000000137,
            "durationTicks": 96,
            "midi": 40,
            "name": "E2",
            "ticks": 89280,
            "time": 61.45370249999999,
            "velocity": 0.33070866141732286
          },
          {
            "duration": 0.06607925000000137,
            "durationTicks": 96,
            "midi": 40,
            "name": "E2",
            "ticks": 89376,
            "time": 61.51978174999999,
            "velocity": 0.33070866141732286
          },
          {
            "duration": 0.06607925000000137,
            "durationTicks": 96,
            "midi": 40,
            "name": "E2",
            "ticks": 89472,
            "time": 61.585860999999994,
            "velocity": 0.33070866141732286
          },
          {
            "duration": 0.06607924999999426,
            "durationTicks": 96,
            "midi": 40,
            "name": "E2",
            "ticks": 89568,
            "time": 61.651940249999996,
            "velocity": 0.33070866141732286
          },
          {
            "duration": 0.06607925000000137,
            "durationTicks": 96,
            "midi": 40,
            "name": "E2",
            "ticks": 89664,
            "time": 61.71801949999999,
            "velocity": 0.33070866141732286
          },
          {
            "duration": 0.06607925000000137,
            "durationTicks": 96,
            "midi": 40,
            "name": "E2",
            "ticks": 89760,
            "time": 61.78409874999999,
            "velocity": 0.33070866141732286
          },
          {
            "duration": 0.06607925000000137,
            "durationTicks": 96,
            "midi": 40,
            "name": "E2",
            "ticks": 89856,
            "time": 61.85017799999999,
            "velocity": 0.33070866141732286
          },
          {
            "duration": 0.06607925000000137,
            "durationTicks": 96,
            "midi": 40,
            "name": "E2",
            "ticks": 90624,
            "time": 62.37881199999999,
            "velocity": 0.33070866141732286
          },
          {
            "duration": 0.13215849999999563,
            "durationTicks": 192,
            "midi": 36,
            "name": "C2",
            "ticks": 91008,
            "time": 62.643128999999995,
            "velocity": 0.4015748031496063
          },
          {
            "duration": 0.13215850000000273,
            "durationTicks": 192,
            "midi": 36,
            "name": "C2",
            "ticks": 91776,
            "time": 63.17176299999999,
            "velocity": 0.4015748031496063
          },
          {
            "duration": 0.13215850000000273,
            "durationTicks": 192,
            "midi": 36,
            "name": "C2",
            "ticks": 92160,
            "time": 63.43607999999999,
            "velocity": 0.4015748031496063
          },
          {
            "duration": 0.06607925000000137,
            "durationTicks": 96,
            "midi": 40,
            "name": "E2",
            "ticks": 92160,
            "time": 63.43607999999999,
            "velocity": 0.33070866141732286
          },
          {
            "duration": 0.06607925000000137,
            "durationTicks": 96,
            "midi": 40,
            "name": "E2",
            "ticks": 92256,
            "time": 63.50215924999999,
            "velocity": 0.33070866141732286
          },
          {
            "duration": 0.06607925000000137,
            "durationTicks": 96,
            "midi": 40,
            "name": "E2",
            "ticks": 92352,
            "time": 63.56823849999999,
            "velocity": 0.33070866141732286
          },
          {
            "duration": 0.06607925000000137,
            "durationTicks": 96,
            "midi": 40,
            "name": "E2",
            "ticks": 92448,
            "time": 63.634317749999994,
            "velocity": 0.33070866141732286
          },
          {
            "duration": 0.06607924999999426,
            "durationTicks": 96,
            "midi": 40,
            "name": "E2",
            "ticks": 92544,
            "time": 63.700396999999995,
            "velocity": 0.33070866141732286
          },
          {
            "duration": 0.06607925000000137,
            "durationTicks": 96,
            "midi": 40,
            "name": "E2",
            "ticks": 92640,
            "time": 63.76647624999999,
            "velocity": 0.33070866141732286
          },
          {
            "duration": 0.06607925000000137,
            "durationTicks": 96,
            "midi": 40,
            "name": "E2",
            "ticks": 92736,
            "time": 63.83255549999999,
            "velocity": 0.33070866141732286
          },
          {
            "duration": 0.06607925000000137,
            "durationTicks": 96,
            "midi": 40,
            "name": "E2",
            "ticks": 92832,
            "time": 63.89863474999999,
            "velocity": 0.33070866141732286
          },
          {
            "duration": 0.06607924999999426,
            "durationTicks": 96,
            "midi": 40,
            "name": "E2",
            "ticks": 92928,
            "time": 63.964713999999994,
            "velocity": 0.33070866141732286
          },
          {
            "duration": 0.06607925000000137,
            "durationTicks": 96,
            "midi": 40,
            "name": "E2",
            "ticks": 93696,
            "time": 64.493348,
            "velocity": 0.33070866141732286
          },
          {
            "duration": 0.13215850000000273,
            "durationTicks": 192,
            "midi": 36,
            "name": "C2",
            "ticks": 94080,
            "time": 64.75766499999999,
            "velocity": 0.4015748031496063
          },
          {
            "duration": 0.13215850000000273,
            "durationTicks": 192,
            "midi": 36,
            "name": "C2",
            "ticks": 94464,
            "time": 65.021982,
            "velocity": 0.4015748031496063
          },
          {
            "duration": 0.06607925000000137,
            "durationTicks": 96,
            "midi": 40,
            "name": "E2",
            "ticks": 95232,
            "time": 65.55061599999999,
            "velocity": 0.33070866141732286
          },
          {
            "duration": 0.13215850000000273,
            "durationTicks": 192,
            "midi": 36,
            "name": "C2",
            "ticks": 95232,
            "time": 65.55061599999999,
            "velocity": 0.4015748031496063
          },
          {
            "duration": 0.06607925000000137,
            "durationTicks": 96,
            "midi": 40,
            "name": "E2",
            "ticks": 95328,
            "time": 65.61669524999999,
            "velocity": 0.33070866141732286
          },
          {
            "duration": 0.06607925000000137,
            "durationTicks": 96,
            "midi": 40,
            "name": "E2",
            "ticks": 95424,
            "time": 65.6827745,
            "velocity": 0.33070866141732286
          },
          {
            "duration": 0.06607925000000137,
            "durationTicks": 96,
            "midi": 40,
            "name": "E2",
            "ticks": 95520,
            "time": 65.74885375,
            "velocity": 0.33070866141732286
          },
          {
            "duration": 0.06607925000000137,
            "durationTicks": 96,
            "midi": 40,
            "name": "E2",
            "ticks": 95616,
            "time": 65.814933,
            "velocity": 0.33070866141732286
          },
          {
            "duration": 0.06607925000000137,
            "durationTicks": 96,
            "midi": 40,
            "name": "E2",
            "ticks": 95712,
            "time": 65.88101225,
            "velocity": 0.33070866141732286
          },
          {
            "duration": 0.06607924999998716,
            "durationTicks": 96,
            "midi": 40,
            "name": "E2",
            "ticks": 95808,
            "time": 65.9470915,
            "velocity": 0.33070866141732286
          },
          {
            "duration": 0.06607925000000137,
            "durationTicks": 96,
            "midi": 40,
            "name": "E2",
            "ticks": 95904,
            "time": 66.01317074999999,
            "velocity": 0.33070866141732286
          },
          {
            "duration": 0.06607925000000137,
            "durationTicks": 96,
            "midi": 40,
            "name": "E2",
            "ticks": 96000,
            "time": 66.07924999999999,
            "velocity": 0.33070866141732286
          },
          {
            "duration": 0.06607924999998716,
            "durationTicks": 96,
            "midi": 40,
            "name": "E2",
            "ticks": 96768,
            "time": 66.607884,
            "velocity": 0.33070866141732286
          },
          {
            "duration": 0.13215850000000273,
            "durationTicks": 192,
            "midi": 36,
            "name": "C2",
            "ticks": 97152,
            "time": 66.87220099999999,
            "velocity": 0.4015748031496063
          },
          {
            "duration": 0.13215850000000273,
            "durationTicks": 192,
            "midi": 36,
            "name": "C2",
            "ticks": 97920,
            "time": 67.40083499999999,
            "velocity": 0.4015748031496063
          },
          {
            "duration": 0.13215850000000273,
            "durationTicks": 192,
            "midi": 36,
            "name": "C2",
            "ticks": 98304,
            "time": 67.66515199999999,
            "velocity": 0.4015748031496063
          },
          {
            "duration": 0.06607925000000137,
            "durationTicks": 96,
            "midi": 40,
            "name": "E2",
            "ticks": 98304,
            "time": 67.66515199999999,
            "velocity": 0.33070866141732286
          },
          {
            "duration": 0.06607925000000137,
            "durationTicks": 96,
            "midi": 40,
            "name": "E2",
            "ticks": 98400,
            "time": 67.73123125,
            "velocity": 0.33070866141732286
          },
          {
            "duration": 0.06607925000000137,
            "durationTicks": 96,
            "midi": 40,
            "name": "E2",
            "ticks": 98496,
            "time": 67.7973105,
            "velocity": 0.33070866141732286
          },
          {
            "duration": 0.06607925000000137,
            "durationTicks": 96,
            "midi": 40,
            "name": "E2",
            "ticks": 98592,
            "time": 67.86338975,
            "velocity": 0.33070866141732286
          },
          {
            "duration": 0.06607925000000137,
            "durationTicks": 96,
            "midi": 40,
            "name": "E2",
            "ticks": 98688,
            "time": 67.929469,
            "velocity": 0.33070866141732286
          },
          {
            "duration": 0.06607924999998716,
            "durationTicks": 96,
            "midi": 40,
            "name": "E2",
            "ticks": 98784,
            "time": 67.99554825,
            "velocity": 0.33070866141732286
          },
          {
            "duration": 0.06607925000000137,
            "durationTicks": 96,
            "midi": 40,
            "name": "E2",
            "ticks": 98880,
            "time": 68.06162749999999,
            "velocity": 0.33070866141732286
          },
          {
            "duration": 0.06607925000000137,
            "durationTicks": 96,
            "midi": 40,
            "name": "E2",
            "ticks": 98976,
            "time": 68.12770674999999,
            "velocity": 0.33070866141732286
          },
          {
            "duration": 0.06607925000000137,
            "durationTicks": 96,
            "midi": 40,
            "name": "E2",
            "ticks": 99072,
            "time": 68.19378599999999,
            "velocity": 0.33070866141732286
          },
          {
            "duration": 0.06607925000000137,
            "durationTicks": 96,
            "midi": 40,
            "name": "E2",
            "ticks": 99840,
            "time": 68.72241999999999,
            "velocity": 0.33070866141732286
          },
          {
            "duration": 0.13215850000000273,
            "durationTicks": 192,
            "midi": 36,
            "name": "C2",
            "ticks": 100224,
            "time": 68.98673699999999,
            "velocity": 0.4015748031496063
          },
          {
            "duration": 0.13215849999998852,
            "durationTicks": 192,
            "midi": 36,
            "name": "C2",
            "ticks": 100608,
            "time": 69.251054,
            "velocity": 0.4015748031496063
          },
          {
            "duration": 0.13215850000000273,
            "durationTicks": 192,
            "midi": 36,
            "name": "C2",
            "ticks": 101376,
            "time": 69.779688,
            "velocity": 0.4015748031496063
          },
          {
            "duration": 0.06607925000000137,
            "durationTicks": 96,
            "midi": 40,
            "name": "E2",
            "ticks": 101376,
            "time": 69.779688,
            "velocity": 0.33070866141732286
          },
          {
            "duration": 0.06607925000000137,
            "durationTicks": 96,
            "midi": 40,
            "name": "E2",
            "ticks": 101472,
            "time": 69.84576725,
            "velocity": 0.33070866141732286
          },
          {
            "duration": 0.06607925000000137,
            "durationTicks": 96,
            "midi": 40,
            "name": "E2",
            "ticks": 101568,
            "time": 69.9118465,
            "velocity": 0.33070866141732286
          },
          {
            "duration": 0.06607925000000137,
            "durationTicks": 96,
            "midi": 40,
            "name": "E2",
            "ticks": 101664,
            "time": 69.97792575,
            "velocity": 0.33070866141732286
          },
          {
            "duration": 0.06607924999998716,
            "durationTicks": 96,
            "midi": 40,
            "name": "E2",
            "ticks": 101760,
            "time": 70.044005,
            "velocity": 0.33070866141732286
          },
          {
            "duration": 0.06607925000000137,
            "durationTicks": 96,
            "midi": 40,
            "name": "E2",
            "ticks": 101856,
            "time": 70.11008424999999,
            "velocity": 0.33070866141732286
          },
          {
            "duration": 0.06607925000000137,
            "durationTicks": 96,
            "midi": 40,
            "name": "E2",
            "ticks": 101952,
            "time": 70.17616349999999,
            "velocity": 0.33070866141732286
          },
          {
            "duration": 0.06607925000000137,
            "durationTicks": 96,
            "midi": 40,
            "name": "E2",
            "ticks": 102048,
            "time": 70.24224274999999,
            "velocity": 0.33070866141732286
          },
          {
            "duration": 0.06607925000000137,
            "durationTicks": 96,
            "midi": 40,
            "name": "E2",
            "ticks": 102144,
            "time": 70.30832199999999,
            "velocity": 0.33070866141732286
          },
          {
            "duration": 0.06607925000000137,
            "durationTicks": 96,
            "midi": 40,
            "name": "E2",
            "ticks": 102912,
            "time": 70.83695599999999,
            "velocity": 0.33070866141732286
          },
          {
            "duration": 0.13215850000000273,
            "durationTicks": 192,
            "midi": 36,
            "name": "C2",
            "ticks": 103296,
            "time": 71.10127299999999,
            "velocity": 0.4015748031496063
          },
          {
            "duration": 0.13215850000000273,
            "durationTicks": 192,
            "midi": 36,
            "name": "C2",
            "ticks": 104064,
            "time": 71.62990699999999,
            "velocity": 0.4015748031496063
          },
          {
            "duration": 0.13215850000000273,
            "durationTicks": 192,
            "midi": 36,
            "name": "C2",
            "ticks": 104448,
            "time": 71.894224,
            "velocity": 0.4015748031496063
          },
          {
            "duration": 0.06607925000000137,
            "durationTicks": 96,
            "midi": 40,
            "name": "E2",
            "ticks": 104448,
            "time": 71.894224,
            "velocity": 0.33070866141732286
          },
          {
            "duration": 0.06607925000000137,
            "durationTicks": 96,
            "midi": 40,
            "name": "E2",
            "ticks": 104544,
            "time": 71.96030325,
            "velocity": 0.33070866141732286
          },
          {
            "duration": 0.06607925000000137,
            "durationTicks": 96,
            "midi": 40,
            "name": "E2",
            "ticks": 104640,
            "time": 72.0263825,
            "velocity": 0.33070866141732286
          },
          {
            "duration": 0.06607924999998716,
            "durationTicks": 96,
            "midi": 40,
            "name": "E2",
            "ticks": 104736,
            "time": 72.09246175,
            "velocity": 0.33070866141732286
          },
          {
            "duration": 0.06607925000000137,
            "durationTicks": 96,
            "midi": 40,
            "name": "E2",
            "ticks": 104832,
            "time": 72.15854099999999,
            "velocity": 0.33070866141732286
          },
          {
            "duration": 0.06607925000000137,
            "durationTicks": 96,
            "midi": 40,
            "name": "E2",
            "ticks": 104928,
            "time": 72.22462024999999,
            "velocity": 0.33070866141732286
          },
          {
            "duration": 0.06607925000000137,
            "durationTicks": 96,
            "midi": 40,
            "name": "E2",
            "ticks": 105024,
            "time": 72.29069949999999,
            "velocity": 0.33070866141732286
          },
          {
            "duration": 0.06607925000000137,
            "durationTicks": 96,
            "midi": 40,
            "name": "E2",
            "ticks": 105120,
            "time": 72.35677874999999,
            "velocity": 0.33070866141732286
          },
          {
            "duration": 0.06607925000000137,
            "durationTicks": 96,
            "midi": 40,
            "name": "E2",
            "ticks": 105216,
            "time": 72.42285799999999,
            "velocity": 0.33070866141732286
          },
          {
            "duration": 0.06607925000000137,
            "durationTicks": 96,
            "midi": 40,
            "name": "E2",
            "ticks": 105984,
            "time": 72.95149199999999,
            "velocity": 0.33070866141732286
          },
          {
            "duration": 0.13215850000000273,
            "durationTicks": 192,
            "midi": 36,
            "name": "C2",
            "ticks": 106368,
            "time": 73.215809,
            "velocity": 0.4015748031496063
          },
          {
            "duration": 0.13215850000000273,
            "durationTicks": 192,
            "midi": 36,
            "name": "C2",
            "ticks": 106752,
            "time": 73.48012599999998,
            "velocity": 0.4015748031496063
          },
          {
            "duration": 0.06607925000000137,
            "durationTicks": 96,
            "midi": 40,
            "name": "E2",
            "ticks": 107520,
            "time": 74.00876,
            "velocity": 0.33070866141732286
          },
          {
            "duration": 0.13215850000000273,
            "durationTicks": 192,
            "midi": 36,
            "name": "C2",
            "ticks": 107520,
            "time": 74.00876,
            "velocity": 0.4015748031496063
          },
          {
            "duration": 0.06607925000000137,
            "durationTicks": 96,
            "midi": 40,
            "name": "E2",
            "ticks": 107616,
            "time": 74.07483925,
            "velocity": 0.33070866141732286
          },
          {
            "duration": 0.06607924999998716,
            "durationTicks": 96,
            "midi": 40,
            "name": "E2",
            "ticks": 107712,
            "time": 74.1409185,
            "velocity": 0.33070866141732286
          },
          {
            "duration": 0.06607925000000137,
            "durationTicks": 96,
            "midi": 40,
            "name": "E2",
            "ticks": 107808,
            "time": 74.20699774999999,
            "velocity": 0.33070866141732286
          },
          {
            "duration": 0.06607925000000137,
            "durationTicks": 96,
            "midi": 40,
            "name": "E2",
            "ticks": 107904,
            "time": 74.27307699999999,
            "velocity": 0.33070866141732286
          },
          {
            "duration": 0.06607925000000137,
            "durationTicks": 96,
            "midi": 40,
            "name": "E2",
            "ticks": 108000,
            "time": 74.33915624999999,
            "velocity": 0.33070866141732286
          },
          {
            "duration": 0.06607925000000137,
            "durationTicks": 96,
            "midi": 40,
            "name": "E2",
            "ticks": 108096,
            "time": 74.40523549999999,
            "velocity": 0.33070866141732286
          },
          {
            "duration": 0.06607925000000137,
            "durationTicks": 96,
            "midi": 40,
            "name": "E2",
            "ticks": 108192,
            "time": 74.47131474999999,
            "velocity": 0.33070866141732286
          },
          {
            "duration": 0.06607925000000137,
            "durationTicks": 96,
            "midi": 40,
            "name": "E2",
            "ticks": 108288,
            "time": 74.53739399999999,
            "velocity": 0.33070866141732286
          },
          {
            "duration": 0.13215850000000273,
            "durationTicks": 192,
            "midi": 40,
            "name": "E2",
            "ticks": 109056,
            "time": 75.06602799999999,
            "velocity": 0.33070866141732286
          },
          {
            "duration": 0.13215850000000273,
            "durationTicks": 192,
            "midi": 36,
            "name": "C2",
            "ticks": 109056,
            "time": 75.06602799999999,
            "velocity": 0.4015748031496063
          },
          {
            "duration": 0.13215850000000273,
            "durationTicks": 192,
            "midi": 36,
            "name": "C2",
            "ticks": 109440,
            "time": 75.330345,
            "velocity": 0.4015748031496063
          },
          {
            "duration": 0.13215850000000273,
            "durationTicks": 192,
            "midi": 40,
            "name": "E2",
            "ticks": 109440,
            "time": 75.330345,
            "velocity": 0.33070866141732286
          },
          {
            "duration": 0.13215850000000273,
            "durationTicks": 192,
            "midi": 36,
            "name": "C2",
            "ticks": 109824,
            "time": 75.59466199999999,
            "velocity": 0.4015748031496063
          },
          {
            "duration": 0.13215850000000273,
            "durationTicks": 192,
            "midi": 40,
            "name": "E2",
            "ticks": 109824,
            "time": 75.59466199999999,
            "velocity": 0.33070866141732286
          },
          {
            "duration": 0.13215850000000273,
            "durationTicks": 192,
            "midi": 40,
            "name": "E2",
            "ticks": 110208,
            "time": 75.85897899999999,
            "velocity": 0.33070866141732286
          },
          {
            "duration": 0.13215850000000273,
            "durationTicks": 192,
            "midi": 36,
            "name": "C2",
            "ticks": 110208,
            "time": 75.85897899999999,
            "velocity": 0.4015748031496063
          },
          {
            "duration": 0.06607925000000137,
            "durationTicks": 96,
            "midi": 40,
            "name": "E2",
            "ticks": 110592,
            "time": 76.123296,
            "velocity": 0.33070866141732286
          },
          {
            "duration": 0.26431699999999125,
            "durationTicks": 384,
            "midi": 49,
            "name": "C#3",
            "ticks": 110592,
            "time": 76.123296,
            "velocity": 0.33070866141732286
          },
          {
            "duration": 0.13215849999998852,
            "durationTicks": 192,
            "midi": 36,
            "name": "C2",
            "ticks": 110592,
            "time": 76.123296,
            "velocity": 0.4015748031496063
          },
          {
            "duration": 0.06607924999998716,
            "durationTicks": 96,
            "midi": 40,
            "name": "E2",
            "ticks": 110688,
            "time": 76.18937525,
            "velocity": 0.33070866141732286
          },
          {
            "duration": 0.06607925000000137,
            "durationTicks": 96,
            "midi": 40,
            "name": "E2",
            "ticks": 110784,
            "time": 76.25545449999998,
            "velocity": 0.33070866141732286
          },
          {
            "duration": 0.06607925000000137,
            "durationTicks": 96,
            "midi": 40,
            "name": "E2",
            "ticks": 110880,
            "time": 76.32153374999999,
            "velocity": 0.33070866141732286
          },
          {
            "duration": 0.06607925000000137,
            "durationTicks": 96,
            "midi": 40,
            "name": "E2",
            "ticks": 110976,
            "time": 76.38761299999999,
            "velocity": 0.33070866141732286
          },
          {
            "duration": 0.06607925000000137,
            "durationTicks": 96,
            "midi": 40,
            "name": "E2",
            "ticks": 111072,
            "time": 76.45369224999999,
            "velocity": 0.33070866141732286
          },
          {
            "duration": 0.06607925000000137,
            "durationTicks": 96,
            "midi": 40,
            "name": "E2",
            "ticks": 111168,
            "time": 76.51977149999999,
            "velocity": 0.33070866141732286
          },
          {
            "duration": 0.06607925000000137,
            "durationTicks": 96,
            "midi": 40,
            "name": "E2",
            "ticks": 111264,
            "time": 76.58585074999999,
            "velocity": 0.33070866141732286
          },
          {
            "duration": 0.06607925000000137,
            "durationTicks": 96,
            "midi": 40,
            "name": "E2",
            "ticks": 111360,
            "time": 76.65193,
            "velocity": 0.33070866141732286
          },
          {
            "duration": 0.06607925000000137,
            "durationTicks": 96,
            "midi": 40,
            "name": "E2",
            "ticks": 112128,
            "time": 77.18056399999999,
            "velocity": 0.33070866141732286
          },
          {
            "duration": 0.13215849999998852,
            "durationTicks": 192,
            "midi": 36,
            "name": "C2",
            "ticks": 112512,
            "time": 77.444881,
            "velocity": 0.4015748031496063
          },
          {
            "duration": 0.13215850000000273,
            "durationTicks": 192,
            "midi": 36,
            "name": "C2",
            "ticks": 112896,
            "time": 77.70919799999999,
            "velocity": 0.4015748031496063
          },
          {
            "duration": 0.06607924999998716,
            "durationTicks": 96,
            "midi": 40,
            "name": "E2",
            "ticks": 113664,
            "time": 78.237832,
            "velocity": 0.33070866141732286
          },
          {
            "duration": 0.13215849999998852,
            "durationTicks": 192,
            "midi": 36,
            "name": "C2",
            "ticks": 113664,
            "time": 78.237832,
            "velocity": 0.4015748031496063
          },
          {
            "duration": 0.06607925000000137,
            "durationTicks": 96,
            "midi": 40,
            "name": "E2",
            "ticks": 113760,
            "time": 78.30391124999998,
            "velocity": 0.33070866141732286
          },
          {
            "duration": 0.06607925000000137,
            "durationTicks": 96,
            "midi": 40,
            "name": "E2",
            "ticks": 113856,
            "time": 78.36999049999999,
            "velocity": 0.33070866141732286
          },
          {
            "duration": 0.06607925000000137,
            "durationTicks": 96,
            "midi": 40,
            "name": "E2",
            "ticks": 113952,
            "time": 78.43606974999999,
            "velocity": 0.33070866141732286
          },
          {
            "duration": 0.06607925000000137,
            "durationTicks": 96,
            "midi": 40,
            "name": "E2",
            "ticks": 114048,
            "time": 78.50214899999999,
            "velocity": 0.33070866141732286
          },
          {
            "duration": 0.06607925000000137,
            "durationTicks": 96,
            "midi": 40,
            "name": "E2",
            "ticks": 114144,
            "time": 78.56822824999999,
            "velocity": 0.33070866141732286
          },
          {
            "duration": 0.06607925000000137,
            "durationTicks": 96,
            "midi": 40,
            "name": "E2",
            "ticks": 114240,
            "time": 78.63430749999999,
            "velocity": 0.33070866141732286
          },
          {
            "duration": 0.06607925000000137,
            "durationTicks": 96,
            "midi": 40,
            "name": "E2",
            "ticks": 114336,
            "time": 78.70038674999999,
            "velocity": 0.33070866141732286
          },
          {
            "duration": 0.06607925000000137,
            "durationTicks": 96,
            "midi": 40,
            "name": "E2",
            "ticks": 114432,
            "time": 78.766466,
            "velocity": 0.33070866141732286
          },
          {
            "duration": 0.06607925000000137,
            "durationTicks": 96,
            "midi": 40,
            "name": "E2",
            "ticks": 115200,
            "time": 79.29509999999999,
            "velocity": 0.33070866141732286
          },
          {
            "duration": 0.13215849999998852,
            "durationTicks": 192,
            "midi": 36,
            "name": "C2",
            "ticks": 115584,
            "time": 79.559417,
            "velocity": 0.4015748031496063
          },
          {
            "duration": 0.13215850000000273,
            "durationTicks": 192,
            "midi": 36,
            "name": "C2",
            "ticks": 116352,
            "time": 80.088051,
            "velocity": 0.4015748031496063
          },
          {
            "duration": 0.06607925000000137,
            "durationTicks": 96,
            "midi": 40,
            "name": "E2",
            "ticks": 116736,
            "time": 80.35236799999998,
            "velocity": 0.33070866141732286
          },
          {
            "duration": 0.13215850000000273,
            "durationTicks": 192,
            "midi": 36,
            "name": "C2",
            "ticks": 116736,
            "time": 80.35236799999998,
            "velocity": 0.4015748031496063
          },
          {
            "duration": 0.06607925000000137,
            "durationTicks": 96,
            "midi": 40,
            "name": "E2",
            "ticks": 116832,
            "time": 80.41844724999999,
            "velocity": 0.33070866141732286
          },
          {
            "duration": 0.06607925000000137,
            "durationTicks": 96,
            "midi": 40,
            "name": "E2",
            "ticks": 116928,
            "time": 80.48452649999999,
            "velocity": 0.33070866141732286
          },
          {
            "duration": 0.06607925000000137,
            "durationTicks": 96,
            "midi": 40,
            "name": "E2",
            "ticks": 117024,
            "time": 80.55060574999999,
            "velocity": 0.33070866141732286
          },
          {
            "duration": 0.06607925000000137,
            "durationTicks": 96,
            "midi": 40,
            "name": "E2",
            "ticks": 117120,
            "time": 80.61668499999999,
            "velocity": 0.33070866141732286
          },
          {
            "duration": 0.06607925000000137,
            "durationTicks": 96,
            "midi": 40,
            "name": "E2",
            "ticks": 117216,
            "time": 80.68276424999999,
            "velocity": 0.33070866141732286
          },
          {
            "duration": 0.06607925000000137,
            "durationTicks": 96,
            "midi": 40,
            "name": "E2",
            "ticks": 117312,
            "time": 80.74884349999999,
            "velocity": 0.33070866141732286
          },
          {
            "duration": 0.06607925000000137,
            "durationTicks": 96,
            "midi": 40,
            "name": "E2",
            "ticks": 117408,
            "time": 80.81492275,
            "velocity": 0.33070866141732286
          },
          {
            "duration": 0.06607925000000137,
            "durationTicks": 96,
            "midi": 40,
            "name": "E2",
            "ticks": 117504,
            "time": 80.881002,
            "velocity": 0.33070866141732286
          },
          {
            "duration": 0.06607925000000137,
            "durationTicks": 96,
            "midi": 40,
            "name": "E2",
            "ticks": 118272,
            "time": 81.40963599999999,
            "velocity": 0.33070866141732286
          },
          {
            "duration": 0.13215849999998852,
            "durationTicks": 192,
            "midi": 36,
            "name": "C2",
            "ticks": 118656,
            "time": 81.673953,
            "velocity": 0.4015748031496063
          },
          {
            "duration": 0.13215850000000273,
            "durationTicks": 192,
            "midi": 36,
            "name": "C2",
            "ticks": 119040,
            "time": 81.93826999999999,
            "velocity": 0.4015748031496063
          },
          {
            "duration": 0.13215850000000273,
            "durationTicks": 192,
            "midi": 36,
            "name": "C2",
            "ticks": 119808,
            "time": 82.46690399999999,
            "velocity": 0.4015748031496063
          },
          {
            "duration": 0.06607925000000137,
            "durationTicks": 96,
            "midi": 40,
            "name": "E2",
            "ticks": 119808,
            "time": 82.46690399999999,
            "velocity": 0.33070866141732286
          },
          {
            "duration": 0.06607925000000137,
            "durationTicks": 96,
            "midi": 40,
            "name": "E2",
            "ticks": 119904,
            "time": 82.53298324999999,
            "velocity": 0.33070866141732286
          },
          {
            "duration": 0.06607925000000137,
            "durationTicks": 96,
            "midi": 40,
            "name": "E2",
            "ticks": 120000,
            "time": 82.59906249999999,
            "velocity": 0.33070866141732286
          },
          {
            "duration": 0.06607925000000137,
            "durationTicks": 96,
            "midi": 40,
            "name": "E2",
            "ticks": 120096,
            "time": 82.66514174999999,
            "velocity": 0.33070866141732286
          },
          {
            "duration": 0.06607925000000137,
            "durationTicks": 96,
            "midi": 40,
            "name": "E2",
            "ticks": 120192,
            "time": 82.73122099999999,
            "velocity": 0.33070866141732286
          },
          {
            "duration": 0.06607925000000137,
            "durationTicks": 96,
            "midi": 40,
            "name": "E2",
            "ticks": 120288,
            "time": 82.79730024999999,
            "velocity": 0.33070866141732286
          },
          {
            "duration": 0.06607925000000137,
            "durationTicks": 96,
            "midi": 40,
            "name": "E2",
            "ticks": 120384,
            "time": 82.8633795,
            "velocity": 0.33070866141732286
          },
          {
            "duration": 0.06607925000000137,
            "durationTicks": 96,
            "midi": 40,
            "name": "E2",
            "ticks": 120480,
            "time": 82.92945875,
            "velocity": 0.33070866141732286
          },
          {
            "duration": 0.06607924999998716,
            "durationTicks": 96,
            "midi": 40,
            "name": "E2",
            "ticks": 120576,
            "time": 82.995538,
            "velocity": 0.33070866141732286
          },
          {
            "duration": 0.06607925000000137,
            "durationTicks": 96,
            "midi": 40,
            "name": "E2",
            "ticks": 121344,
            "time": 83.524172,
            "velocity": 0.33070866141732286
          },
          {
            "duration": 0.13215850000000273,
            "durationTicks": 192,
            "midi": 36,
            "name": "C2",
            "ticks": 121728,
            "time": 83.78848899999998,
            "velocity": 0.4015748031496063
          },
          {
            "duration": 0.13215849999998852,
            "durationTicks": 192,
            "midi": 36,
            "name": "C2",
            "ticks": 122496,
            "time": 84.317123,
            "velocity": 0.4015748031496063
          },
          {
            "duration": 0.06607925000000137,
            "durationTicks": 96,
            "midi": 40,
            "name": "E2",
            "ticks": 122880,
            "time": 84.58143999999999,
            "velocity": 0.33070866141732286
          },
          {
            "duration": 0.13215850000000273,
            "durationTicks": 192,
            "midi": 36,
            "name": "C2",
            "ticks": 122880,
            "time": 84.58143999999999,
            "velocity": 0.4015748031496063
          },
          {
            "duration": 0.06607925000000137,
            "durationTicks": 96,
            "midi": 40,
            "name": "E2",
            "ticks": 122976,
            "time": 84.64751924999999,
            "velocity": 0.33070866141732286
          },
          {
            "duration": 0.06607925000000137,
            "durationTicks": 96,
            "midi": 40,
            "name": "E2",
            "ticks": 123072,
            "time": 84.71359849999999,
            "velocity": 0.33070866141732286
          },
          {
            "duration": 0.06607925000000137,
            "durationTicks": 96,
            "midi": 40,
            "name": "E2",
            "ticks": 123168,
            "time": 84.77967774999999,
            "velocity": 0.33070866141732286
          },
          {
            "duration": 0.06607925000000137,
            "durationTicks": 96,
            "midi": 40,
            "name": "E2",
            "ticks": 123264,
            "time": 84.84575699999999,
            "velocity": 0.33070866141732286
          },
          {
            "duration": 0.06607925000000137,
            "durationTicks": 96,
            "midi": 40,
            "name": "E2",
            "ticks": 123360,
            "time": 84.91183625,
            "velocity": 0.33070866141732286
          },
          {
            "duration": 0.06607925000000137,
            "durationTicks": 96,
            "midi": 40,
            "name": "E2",
            "ticks": 123456,
            "time": 84.9779155,
            "velocity": 0.33070866141732286
          },
          {
            "duration": 0.06607924999998716,
            "durationTicks": 96,
            "midi": 40,
            "name": "E2",
            "ticks": 123552,
            "time": 85.04399475,
            "velocity": 0.33070866141732286
          },
          {
            "duration": 0.06607925000000137,
            "durationTicks": 96,
            "midi": 40,
            "name": "E2",
            "ticks": 123648,
            "time": 85.11007399999998,
            "velocity": 0.33070866141732286
          },
          {
            "duration": 0.06607925000000137,
            "durationTicks": 96,
            "midi": 40,
            "name": "E2",
            "ticks": 124416,
            "time": 85.638708,
            "velocity": 0.33070866141732286
          },
          {
            "duration": 0.13215850000000273,
            "durationTicks": 192,
            "midi": 36,
            "name": "C2",
            "ticks": 124800,
            "time": 85.90302499999999,
            "velocity": 0.4015748031496063
          },
          {
            "duration": 0.13215850000000273,
            "durationTicks": 192,
            "midi": 36,
            "name": "C2",
            "ticks": 125184,
            "time": 86.16734199999999,
            "velocity": 0.4015748031496063
          },
          {
            "duration": 0.06607925000000137,
            "durationTicks": 96,
            "midi": 40,
            "name": "E2",
            "ticks": 125952,
            "time": 86.69597599999999,
            "velocity": 0.33070866141732286
          },
          {
            "duration": 0.13215850000000273,
            "durationTicks": 192,
            "midi": 36,
            "name": "C2",
            "ticks": 125952,
            "time": 86.69597599999999,
            "velocity": 0.4015748031496063
          },
          {
            "duration": 0.06607925000000137,
            "durationTicks": 96,
            "midi": 40,
            "name": "E2",
            "ticks": 126048,
            "time": 86.76205524999999,
            "velocity": 0.33070866141732286
          },
          {
            "duration": 0.06607925000000137,
            "durationTicks": 96,
            "midi": 40,
            "name": "E2",
            "ticks": 126144,
            "time": 86.82813449999999,
            "velocity": 0.33070866141732286
          },
          {
            "duration": 0.06607925000000137,
            "durationTicks": 96,
            "midi": 40,
            "name": "E2",
            "ticks": 126240,
            "time": 86.89421374999999,
            "velocity": 0.33070866141732286
          },
          {
            "duration": 0.06607925000000137,
            "durationTicks": 96,
            "midi": 40,
            "name": "E2",
            "ticks": 126336,
            "time": 86.960293,
            "velocity": 0.33070866141732286
          },
          {
            "duration": 0.06607925000000137,
            "durationTicks": 96,
            "midi": 40,
            "name": "E2",
            "ticks": 126432,
            "time": 87.02637225,
            "velocity": 0.33070866141732286
          },
          {
            "duration": 0.06607924999998716,
            "durationTicks": 96,
            "midi": 40,
            "name": "E2",
            "ticks": 126528,
            "time": 87.0924515,
            "velocity": 0.33070866141732286
          },
          {
            "duration": 0.06607925000000137,
            "durationTicks": 96,
            "midi": 40,
            "name": "E2",
            "ticks": 126624,
            "time": 87.15853074999998,
            "velocity": 0.33070866141732286
          },
          {
            "duration": 0.06607925000000137,
            "durationTicks": 96,
            "midi": 40,
            "name": "E2",
            "ticks": 126720,
            "time": 87.22460999999998,
            "velocity": 0.33070866141732286
          },
          {
            "duration": 0.06607925000000137,
            "durationTicks": 96,
            "midi": 40,
            "name": "E2",
            "ticks": 127488,
            "time": 87.753244,
            "velocity": 0.33070866141732286
          },
          {
            "duration": 0.13215850000000273,
            "durationTicks": 192,
            "midi": 36,
            "name": "C2",
            "ticks": 127872,
            "time": 88.01756099999999,
            "velocity": 0.4015748031496063
          },
          {
            "duration": 0.13215850000000273,
            "durationTicks": 192,
            "midi": 36,
            "name": "C2",
            "ticks": 128640,
            "time": 88.54619499999998,
            "velocity": 0.4015748031496063
          },
          {
            "duration": 0.06607925000000137,
            "durationTicks": 96,
            "midi": 40,
            "name": "E2",
            "ticks": 129024,
            "time": 88.81051199999999,
            "velocity": 0.33070866141732286
          },
          {
            "duration": 0.13215850000000273,
            "durationTicks": 192,
            "midi": 36,
            "name": "C2",
            "ticks": 129024,
            "time": 88.81051199999999,
            "velocity": 0.4015748031496063
          },
          {
            "duration": 0.06607925000000137,
            "durationTicks": 96,
            "midi": 40,
            "name": "E2",
            "ticks": 129120,
            "time": 88.87659124999999,
            "velocity": 0.33070866141732286
          },
          {
            "duration": 0.06607925000000137,
            "durationTicks": 96,
            "midi": 40,
            "name": "E2",
            "ticks": 129216,
            "time": 88.94267049999999,
            "velocity": 0.33070866141732286
          },
          {
            "duration": 0.06607925000000137,
            "durationTicks": 96,
            "midi": 40,
            "name": "E2",
            "ticks": 129312,
            "time": 89.00874974999999,
            "velocity": 0.33070866141732286
          },
          {
            "duration": 0.06607925000000137,
            "durationTicks": 96,
            "midi": 40,
            "name": "E2",
            "ticks": 129408,
            "time": 89.074829,
            "velocity": 0.33070866141732286
          },
          {
            "duration": 0.06607924999998716,
            "durationTicks": 96,
            "midi": 40,
            "name": "E2",
            "ticks": 129504,
            "time": 89.14090825,
            "velocity": 0.33070866141732286
          },
          {
            "duration": 0.06607925000000137,
            "durationTicks": 96,
            "midi": 40,
            "name": "E2",
            "ticks": 129600,
            "time": 89.20698749999998,
            "velocity": 0.33070866141732286
          },
          {
            "duration": 0.06607925000000137,
            "durationTicks": 96,
            "midi": 40,
            "name": "E2",
            "ticks": 129696,
            "time": 89.27306674999998,
            "velocity": 0.33070866141732286
          },
          {
            "duration": 0.06607925000000137,
            "durationTicks": 96,
            "midi": 40,
            "name": "E2",
            "ticks": 129792,
            "time": 89.33914599999999,
            "velocity": 0.33070866141732286
          },
          {
            "duration": 0.06607924999998716,
            "durationTicks": 96,
            "midi": 40,
            "name": "E2",
            "ticks": 130560,
            "time": 89.86778,
            "velocity": 0.33070866141732286
          },
          {
            "duration": 0.13215850000000273,
            "durationTicks": 192,
            "midi": 36,
            "name": "C2",
            "ticks": 130944,
            "time": 90.13209699999999,
            "velocity": 0.4015748031496063
          },
          {
            "duration": 0.13215850000000273,
            "durationTicks": 192,
            "midi": 36,
            "name": "C2",
            "ticks": 131328,
            "time": 90.396414,
            "velocity": 0.4015748031496063
          },
          {
            "duration": 0.13215850000000273,
            "durationTicks": 192,
            "midi": 36,
            "name": "C2",
            "ticks": 132096,
            "time": 90.92504799999999,
            "velocity": 0.4015748031496063
          },
          {
            "duration": 0.06607925000000137,
            "durationTicks": 96,
            "midi": 40,
            "name": "E2",
            "ticks": 132096,
            "time": 90.92504799999999,
            "velocity": 0.33070866141732286
          },
          {
            "duration": 0.06607925000000137,
            "durationTicks": 96,
            "midi": 40,
            "name": "E2",
            "ticks": 132192,
            "time": 90.99112724999999,
            "velocity": 0.33070866141732286
          },
          {
            "duration": 0.06607925000000137,
            "durationTicks": 96,
            "midi": 40,
            "name": "E2",
            "ticks": 132288,
            "time": 91.05720649999999,
            "velocity": 0.33070866141732286
          },
          {
            "duration": 0.06607925000000137,
            "durationTicks": 96,
            "midi": 40,
            "name": "E2",
            "ticks": 132384,
            "time": 91.12328575,
            "velocity": 0.33070866141732286
          },
          {
            "duration": 0.06607924999998716,
            "durationTicks": 96,
            "midi": 40,
            "name": "E2",
            "ticks": 132480,
            "time": 91.189365,
            "velocity": 0.33070866141732286
          },
          {
            "duration": 0.06607925000000137,
            "durationTicks": 96,
            "midi": 40,
            "name": "E2",
            "ticks": 132576,
            "time": 91.25544424999998,
            "velocity": 0.33070866141732286
          },
          {
            "duration": 0.06607925000000137,
            "durationTicks": 96,
            "midi": 40,
            "name": "E2",
            "ticks": 132672,
            "time": 91.32152349999998,
            "velocity": 0.33070866141732286
          },
          {
            "duration": 0.06607925000000137,
            "durationTicks": 96,
            "midi": 40,
            "name": "E2",
            "ticks": 132768,
            "time": 91.38760274999999,
            "velocity": 0.33070866141732286
          },
          {
            "duration": 0.06607925000000137,
            "durationTicks": 96,
            "midi": 40,
            "name": "E2",
            "ticks": 132864,
            "time": 91.45368199999999,
            "velocity": 0.33070866141732286
          },
          {
            "duration": 0.13215850000000273,
            "durationTicks": 192,
            "midi": 36,
            "name": "C2",
            "ticks": 133632,
            "time": 91.98231599999998,
            "velocity": 0.4015748031496063
          },
          {
            "duration": 0.13215850000000273,
            "durationTicks": 192,
            "midi": 40,
            "name": "E2",
            "ticks": 133632,
            "time": 91.98231599999998,
            "velocity": 0.33070866141732286
          },
          {
            "duration": 0.13215850000000273,
            "durationTicks": 192,
            "midi": 40,
            "name": "E2",
            "ticks": 134016,
            "time": 92.24663299999999,
            "velocity": 0.33070866141732286
          },
          {
            "duration": 0.13215850000000273,
            "durationTicks": 192,
            "midi": 36,
            "name": "C2",
            "ticks": 134016,
            "time": 92.24663299999999,
            "velocity": 0.4015748031496063
          },
          {
            "duration": 0.13215849999998852,
            "durationTicks": 192,
            "midi": 40,
            "name": "E2",
            "ticks": 134400,
            "time": 92.51095,
            "velocity": 0.33070866141732286
          },
          {
            "duration": 0.13215849999998852,
            "durationTicks": 192,
            "midi": 36,
            "name": "C2",
            "ticks": 134400,
            "time": 92.51095,
            "velocity": 0.4015748031496063
          },
          {
            "duration": 0.13215850000000273,
            "durationTicks": 192,
            "midi": 36,
            "name": "C2",
            "ticks": 134784,
            "time": 92.77526699999999,
            "velocity": 0.4015748031496063
          },
          {
            "duration": 0.13215850000000273,
            "durationTicks": 192,
            "midi": 40,
            "name": "E2",
            "ticks": 134784,
            "time": 92.77526699999999,
            "velocity": 0.33070866141732286
          },
          {
            "duration": 0.06607925000000137,
            "durationTicks": 96,
            "midi": 40,
            "name": "E2",
            "ticks": 135168,
            "time": 93.03958399999999,
            "velocity": 0.33070866141732286
          },
          {
            "duration": 0.13215850000000273,
            "durationTicks": 192,
            "midi": 36,
            "name": "C2",
            "ticks": 135168,
            "time": 93.03958399999999,
            "velocity": 0.4015748031496063
          },
          {
            "duration": 0.06607925000000137,
            "durationTicks": 96,
            "midi": 40,
            "name": "E2",
            "ticks": 135264,
            "time": 93.10566324999999,
            "velocity": 0.33070866141732286
          },
          {
            "duration": 0.06607925000000137,
            "durationTicks": 96,
            "midi": 40,
            "name": "E2",
            "ticks": 135360,
            "time": 93.1717425,
            "velocity": 0.33070866141732286
          },
          {
            "duration": 0.06607924999998716,
            "durationTicks": 96,
            "midi": 40,
            "name": "E2",
            "ticks": 135456,
            "time": 93.23782175,
            "velocity": 0.33070866141732286
          },
          {
            "duration": 0.06607925000000137,
            "durationTicks": 96,
            "midi": 40,
            "name": "E2",
            "ticks": 135552,
            "time": 93.30390099999998,
            "velocity": 0.33070866141732286
          },
          {
            "duration": 0.06607925000000137,
            "durationTicks": 96,
            "midi": 40,
            "name": "E2",
            "ticks": 135648,
            "time": 93.36998024999998,
            "velocity": 0.33070866141732286
          },
          {
            "duration": 0.06607925000000137,
            "durationTicks": 96,
            "midi": 40,
            "name": "E2",
            "ticks": 135744,
            "time": 93.43605949999998,
            "velocity": 0.33070866141732286
          },
          {
            "duration": 0.06607925000000137,
            "durationTicks": 96,
            "midi": 40,
            "name": "E2",
            "ticks": 135840,
            "time": 93.50213874999999,
            "velocity": 0.33070866141732286
          },
          {
            "duration": 0.06607925000000137,
            "durationTicks": 96,
            "midi": 40,
            "name": "E2",
            "ticks": 135936,
            "time": 93.56821799999999,
            "velocity": 0.33070866141732286
          },
          {
            "duration": 0.06607925000000137,
            "durationTicks": 96,
            "midi": 40,
            "name": "E2",
            "ticks": 136704,
            "time": 94.09685199999998,
            "velocity": 0.33070866141732286
          },
          {
            "duration": 0.13215850000000273,
            "durationTicks": 192,
            "midi": 36,
            "name": "C2",
            "ticks": 137088,
            "time": 94.36116899999999,
            "velocity": 0.4015748031496063
          },
          {
            "duration": 0.13215849999998852,
            "durationTicks": 192,
            "midi": 36,
            "name": "C2",
            "ticks": 137472,
            "time": 94.625486,
            "velocity": 0.4015748031496063
          },
          {
            "duration": 0.13215850000000273,
            "durationTicks": 192,
            "midi": 36,
            "name": "C2",
            "ticks": 138240,
            "time": 95.15411999999999,
            "velocity": 0.4015748031496063
          },
          {
            "duration": 0.06607925000000137,
            "durationTicks": 96,
            "midi": 40,
            "name": "E2",
            "ticks": 138240,
            "time": 95.15411999999999,
            "velocity": 0.33070866141732286
          },
          {
            "duration": 0.06607925000000137,
            "durationTicks": 96,
            "midi": 40,
            "name": "E2",
            "ticks": 138336,
            "time": 95.22019925,
            "velocity": 0.33070866141732286
          },
          {
            "duration": 0.06607924999998716,
            "durationTicks": 96,
            "midi": 40,
            "name": "E2",
            "ticks": 138432,
            "time": 95.2862785,
            "velocity": 0.33070866141732286
          },
          {
            "duration": 0.06607925000000137,
            "durationTicks": 96,
            "midi": 40,
            "name": "E2",
            "ticks": 138528,
            "time": 95.35235774999998,
            "velocity": 0.33070866141732286
          },
          {
            "duration": 0.06607925000000137,
            "durationTicks": 96,
            "midi": 40,
            "name": "E2",
            "ticks": 138624,
            "time": 95.41843699999998,
            "velocity": 0.33070866141732286
          },
          {
            "duration": 0.06607925000000137,
            "durationTicks": 96,
            "midi": 40,
            "name": "E2",
            "ticks": 138720,
            "time": 95.48451624999998,
            "velocity": 0.33070866141732286
          },
          {
            "duration": 0.06607925000000137,
            "durationTicks": 96,
            "midi": 40,
            "name": "E2",
            "ticks": 138816,
            "time": 95.55059549999999,
            "velocity": 0.33070866141732286
          },
          {
            "duration": 0.06607925000000137,
            "durationTicks": 96,
            "midi": 40,
            "name": "E2",
            "ticks": 138912,
            "time": 95.61667474999999,
            "velocity": 0.33070866141732286
          },
          {
            "duration": 0.06607925000000137,
            "durationTicks": 96,
            "midi": 40,
            "name": "E2",
            "ticks": 139008,
            "time": 95.68275399999999,
            "velocity": 0.33070866141732286
          },
          {
            "duration": 0.06607925000000137,
            "durationTicks": 96,
            "midi": 40,
            "name": "E2",
            "ticks": 139776,
            "time": 96.21138799999999,
            "velocity": 0.33070866141732286
          },
          {
            "duration": 0.13215850000000273,
            "durationTicks": 192,
            "midi": 36,
            "name": "C2",
            "ticks": 140160,
            "time": 96.47570499999999,
            "velocity": 0.4015748031496063
          },
          {
            "duration": 0.13215850000000273,
            "durationTicks": 192,
            "midi": 36,
            "name": "C2",
            "ticks": 140928,
            "time": 97.00433899999999,
            "velocity": 0.4015748031496063
          },
          {
            "duration": 0.13215849999998852,
            "durationTicks": 192,
            "midi": 36,
            "name": "C2",
            "ticks": 141312,
            "time": 97.268656,
            "velocity": 0.4015748031496063
          },
          {
            "duration": 0.06607925000000137,
            "durationTicks": 96,
            "midi": 40,
            "name": "E2",
            "ticks": 141312,
            "time": 97.268656,
            "velocity": 0.33070866141732286
          },
          {
            "duration": 0.06607924999998716,
            "durationTicks": 96,
            "midi": 40,
            "name": "E2",
            "ticks": 141408,
            "time": 97.33473525,
            "velocity": 0.33070866141732286
          },
          {
            "duration": 0.06607925000000137,
            "durationTicks": 96,
            "midi": 40,
            "name": "E2",
            "ticks": 141504,
            "time": 97.40081449999998,
            "velocity": 0.33070866141732286
          },
          {
            "duration": 0.06607925000000137,
            "durationTicks": 96,
            "midi": 40,
            "name": "E2",
            "ticks": 141600,
            "time": 97.46689374999998,
            "velocity": 0.33070866141732286
          },
          {
            "duration": 0.06607925000000137,
            "durationTicks": 96,
            "midi": 40,
            "name": "E2",
            "ticks": 141696,
            "time": 97.53297299999998,
            "velocity": 0.33070866141732286
          },
          {
            "duration": 0.06607925000000137,
            "durationTicks": 96,
            "midi": 40,
            "name": "E2",
            "ticks": 141792,
            "time": 97.59905224999999,
            "velocity": 0.33070866141732286
          },
          {
            "duration": 0.06607925000000137,
            "durationTicks": 96,
            "midi": 40,
            "name": "E2",
            "ticks": 141888,
            "time": 97.66513149999999,
            "velocity": 0.33070866141732286
          },
          {
            "duration": 0.06607925000000137,
            "durationTicks": 96,
            "midi": 40,
            "name": "E2",
            "ticks": 141984,
            "time": 97.73121074999999,
            "velocity": 0.33070866141732286
          },
          {
            "duration": 0.06607925000000137,
            "durationTicks": 96,
            "midi": 40,
            "name": "E2",
            "ticks": 142080,
            "time": 97.79728999999999,
            "velocity": 0.33070866141732286
          },
          {
            "duration": 0.06607925000000137,
            "durationTicks": 96,
            "midi": 40,
            "name": "E2",
            "ticks": 142848,
            "time": 98.32592399999999,
            "velocity": 0.33070866141732286
          },
          {
            "duration": 0.13215850000000273,
            "durationTicks": 192,
            "midi": 36,
            "name": "C2",
            "ticks": 143232,
            "time": 98.59024099999999,
            "velocity": 0.4015748031496063
          },
          {
            "duration": 0.13215850000000273,
            "durationTicks": 192,
            "midi": 36,
            "name": "C2",
            "ticks": 143616,
            "time": 98.85455799999998,
            "velocity": 0.4015748031496063
          },
          {
            "duration": 0.06607924999998716,
            "durationTicks": 96,
            "midi": 40,
            "name": "E2",
            "ticks": 144384,
            "time": 99.383192,
            "velocity": 0.33070866141732286
          },
          {
            "duration": 0.13215849999998852,
            "durationTicks": 192,
            "midi": 36,
            "name": "C2",
            "ticks": 144384,
            "time": 99.383192,
            "velocity": 0.4015748031496063
          },
          {
            "duration": 0.06607925000000137,
            "durationTicks": 96,
            "midi": 40,
            "name": "E2",
            "ticks": 144480,
            "time": 99.44927124999998,
            "velocity": 0.33070866141732286
          },
          {
            "duration": 0.06607925000000137,
            "durationTicks": 96,
            "midi": 40,
            "name": "E2",
            "ticks": 144576,
            "time": 99.51535049999998,
            "velocity": 0.33070866141732286
          },
          {
            "duration": 0.06607925000000137,
            "durationTicks": 96,
            "midi": 40,
            "name": "E2",
            "ticks": 144672,
            "time": 99.58142974999998,
            "velocity": 0.33070866141732286
          },
          {
            "duration": 0.06607925000000137,
            "durationTicks": 96,
            "midi": 40,
            "name": "E2",
            "ticks": 144768,
            "time": 99.64750899999999,
            "velocity": 0.33070866141732286
          },
          {
            "duration": 0.06607925000000137,
            "durationTicks": 96,
            "midi": 40,
            "name": "E2",
            "ticks": 144864,
            "time": 99.71358824999999,
            "velocity": 0.33070866141732286
          },
          {
            "duration": 0.06607925000000137,
            "durationTicks": 96,
            "midi": 40,
            "name": "E2",
            "ticks": 144960,
            "time": 99.77966749999999,
            "velocity": 0.33070866141732286
          },
          {
            "duration": 0.06607925000000137,
            "durationTicks": 96,
            "midi": 40,
            "name": "E2",
            "ticks": 145056,
            "time": 99.84574674999999,
            "velocity": 0.33070866141732286
          },
          {
            "duration": 0.06607925000000137,
            "durationTicks": 96,
            "midi": 40,
            "name": "E2",
            "ticks": 145152,
            "time": 99.91182599999999,
            "velocity": 0.33070866141732286
          },
          {
            "duration": 0.06607925000000137,
            "durationTicks": 96,
            "midi": 40,
            "name": "E2",
            "ticks": 145920,
            "time": 100.44045999999999,
            "velocity": 0.33070866141732286
          },
          {
            "duration": 0.13215849999998852,
            "durationTicks": 192,
            "midi": 36,
            "name": "C2",
            "ticks": 146304,
            "time": 100.70477699999999,
            "velocity": 0.4015748031496063
          },
          {
            "duration": 0.13215850000000273,
            "durationTicks": 192,
            "midi": 36,
            "name": "C2",
            "ticks": 147072,
            "time": 101.23341099999999,
            "velocity": 0.4015748031496063
          },
          {
            "duration": 0.13215849999998852,
            "durationTicks": 192,
            "midi": 36,
            "name": "C2",
            "ticks": 147456,
            "time": 101.497728,
            "velocity": 0.4015748031496063
          },
          {
            "duration": 0.06607924999998716,
            "durationTicks": 96,
            "midi": 40,
            "name": "E2",
            "ticks": 147456,
            "time": 101.497728,
            "velocity": 0.33070866141732286
          },
          {
            "duration": 0.06607925000000137,
            "durationTicks": 96,
            "midi": 40,
            "name": "E2",
            "ticks": 147552,
            "time": 101.56380724999998,
            "velocity": 0.33070866141732286
          },
          {
            "duration": 0.06607925000000137,
            "durationTicks": 96,
            "midi": 40,
            "name": "E2",
            "ticks": 147648,
            "time": 101.62988649999998,
            "velocity": 0.33070866141732286
          },
          {
            "duration": 0.06607925000000137,
            "durationTicks": 96,
            "midi": 40,
            "name": "E2",
            "ticks": 147744,
            "time": 101.69596574999998,
            "velocity": 0.33070866141732286
          },
          {
            "duration": 0.06607925000000137,
            "durationTicks": 96,
            "midi": 40,
            "name": "E2",
            "ticks": 147840,
            "time": 101.76204499999999,
            "velocity": 0.33070866141732286
          },
          {
            "duration": 0.06607925000000137,
            "durationTicks": 96,
            "midi": 40,
            "name": "E2",
            "ticks": 147936,
            "time": 101.82812424999999,
            "velocity": 0.33070866141732286
          },
          {
            "duration": 0.06607925000000137,
            "durationTicks": 96,
            "midi": 40,
            "name": "E2",
            "ticks": 148032,
            "time": 101.89420349999999,
            "velocity": 0.33070866141732286
          },
          {
            "duration": 0.06607925000000137,
            "durationTicks": 96,
            "midi": 40,
            "name": "E2",
            "ticks": 148128,
            "time": 101.96028274999999,
            "velocity": 0.33070866141732286
          },
          {
            "duration": 0.06607925000000137,
            "durationTicks": 96,
            "midi": 40,
            "name": "E2",
            "ticks": 148224,
            "time": 102.02636199999999,
            "velocity": 0.33070866141732286
          },
          {
            "duration": 0.06607925000000137,
            "durationTicks": 96,
            "midi": 40,
            "name": "E2",
            "ticks": 148992,
            "time": 102.55499599999999,
            "velocity": 0.33070866141732286
          },
          {
            "duration": 0.13215849999998852,
            "durationTicks": 192,
            "midi": 36,
            "name": "C2",
            "ticks": 149376,
            "time": 102.819313,
            "velocity": 0.4015748031496063
          },
          {
            "duration": 0.13215850000000273,
            "durationTicks": 192,
            "midi": 36,
            "name": "C2",
            "ticks": 149760,
            "time": 103.08362999999999,
            "velocity": 0.4015748031496063
          },
          {
            "duration": 0.13215850000000273,
            "durationTicks": 192,
            "midi": 36,
            "name": "C2",
            "ticks": 150528,
            "time": 103.61226399999998,
            "velocity": 0.4015748031496063
          },
          {
            "duration": 0.06607925000000137,
            "durationTicks": 96,
            "midi": 40,
            "name": "E2",
            "ticks": 150528,
            "time": 103.61226399999998,
            "velocity": 0.33070866141732286
          },
          {
            "duration": 0.06607925000000137,
            "durationTicks": 96,
            "midi": 40,
            "name": "E2",
            "ticks": 150624,
            "time": 103.67834324999998,
            "velocity": 0.33070866141732286
          },
          {
            "duration": 0.06607925000000137,
            "durationTicks": 96,
            "midi": 40,
            "name": "E2",
            "ticks": 150720,
            "time": 103.74442249999998,
            "velocity": 0.33070866141732286
          },
          {
            "duration": 0.06607925000000137,
            "durationTicks": 96,
            "midi": 40,
            "name": "E2",
            "ticks": 150816,
            "time": 103.81050174999999,
            "velocity": 0.33070866141732286
          },
          {
            "duration": 0.06607925000000137,
            "durationTicks": 96,
            "midi": 40,
            "name": "E2",
            "ticks": 150912,
            "time": 103.87658099999999,
            "velocity": 0.33070866141732286
          },
          {
            "duration": 0.06607925000000137,
            "durationTicks": 96,
            "midi": 40,
            "name": "E2",
            "ticks": 151008,
            "time": 103.94266024999999,
            "velocity": 0.33070866141732286
          },
          {
            "duration": 0.06607925000000137,
            "durationTicks": 96,
            "midi": 40,
            "name": "E2",
            "ticks": 151104,
            "time": 104.00873949999999,
            "velocity": 0.33070866141732286
          },
          {
            "duration": 0.06607925000000137,
            "durationTicks": 96,
            "midi": 40,
            "name": "E2",
            "ticks": 151200,
            "time": 104.07481874999999,
            "velocity": 0.33070866141732286
          },
          {
            "duration": 0.06607925000000137,
            "durationTicks": 96,
            "midi": 40,
            "name": "E2",
            "ticks": 151296,
            "time": 104.14089799999999,
            "velocity": 0.33070866141732286
          },
          {
            "duration": 0.06607925000000137,
            "durationTicks": 96,
            "midi": 40,
            "name": "E2",
            "ticks": 152064,
            "time": 104.66953199999999,
            "velocity": 0.33070866141732286
          },
          {
            "duration": 0.13215850000000273,
            "durationTicks": 192,
            "midi": 36,
            "name": "C2",
            "ticks": 152448,
            "time": 104.93384899999998,
            "velocity": 0.4015748031496063
          },
          {
            "duration": 0.13215850000000273,
            "durationTicks": 192,
            "midi": 36,
            "name": "C2",
            "ticks": 153216,
            "time": 105.46248299999999,
            "velocity": 0.4015748031496063
          },
          {
            "duration": 0.13215850000000273,
            "durationTicks": 192,
            "midi": 36,
            "name": "C2",
            "ticks": 153600,
            "time": 105.72679999999998,
            "velocity": 0.4015748031496063
          },
          {
            "duration": 0.06607925000000137,
            "durationTicks": 96,
            "midi": 40,
            "name": "E2",
            "ticks": 153600,
            "time": 105.72679999999998,
            "velocity": 0.33070866141732286
          },
          {
            "duration": 0.06607925000000137,
            "durationTicks": 96,
            "midi": 40,
            "name": "E2",
            "ticks": 153696,
            "time": 105.79287924999998,
            "velocity": 0.33070866141732286
          },
          {
            "duration": 0.06607925000000137,
            "durationTicks": 96,
            "midi": 40,
            "name": "E2",
            "ticks": 153792,
            "time": 105.85895849999999,
            "velocity": 0.33070866141732286
          },
          {
            "duration": 0.06607925000000137,
            "durationTicks": 96,
            "midi": 40,
            "name": "E2",
            "ticks": 153888,
            "time": 105.92503774999999,
            "velocity": 0.33070866141732286
          },
          {
            "duration": 0.06607925000000137,
            "durationTicks": 96,
            "midi": 40,
            "name": "E2",
            "ticks": 153984,
            "time": 105.99111699999999,
            "velocity": 0.33070866141732286
          },
          {
            "duration": 0.06607925000000137,
            "durationTicks": 96,
            "midi": 40,
            "name": "E2",
            "ticks": 154080,
            "time": 106.05719624999999,
            "velocity": 0.33070866141732286
          },
          {
            "duration": 0.06607925000000137,
            "durationTicks": 96,
            "midi": 40,
            "name": "E2",
            "ticks": 154176,
            "time": 106.12327549999999,
            "velocity": 0.33070866141732286
          },
          {
            "duration": 0.06607925000000137,
            "durationTicks": 96,
            "midi": 40,
            "name": "E2",
            "ticks": 154272,
            "time": 106.18935474999999,
            "velocity": 0.33070866141732286
          },
          {
            "duration": 0.06607924999998716,
            "durationTicks": 96,
            "midi": 40,
            "name": "E2",
            "ticks": 154368,
            "time": 106.255434,
            "velocity": 0.33070866141732286
          },
          {
            "duration": 0.06607925000000137,
            "durationTicks": 96,
            "midi": 40,
            "name": "E2",
            "ticks": 155136,
            "time": 106.78406799999999,
            "velocity": 0.33070866141732286
          },
          {
            "duration": 0.13215850000000273,
            "durationTicks": 192,
            "midi": 36,
            "name": "C2",
            "ticks": 155520,
            "time": 107.04838499999998,
            "velocity": 0.4015748031496063
          },
          {
            "duration": 0.13215850000000273,
            "durationTicks": 192,
            "midi": 36,
            "name": "C2",
            "ticks": 155904,
            "time": 107.31270199999999,
            "velocity": 0.4015748031496063
          },
          {
            "duration": 0.06607925000000137,
            "durationTicks": 96,
            "midi": 40,
            "name": "E2",
            "ticks": 156672,
            "time": 107.84133599999998,
            "velocity": 0.33070866141732286
          },
          {
            "duration": 0.13215850000000273,
            "durationTicks": 192,
            "midi": 36,
            "name": "C2",
            "ticks": 156672,
            "time": 107.84133599999998,
            "velocity": 0.4015748031496063
          },
          {
            "duration": 0.06607925000000137,
            "durationTicks": 96,
            "midi": 40,
            "name": "E2",
            "ticks": 156768,
            "time": 107.90741524999999,
            "velocity": 0.33070866141732286
          },
          {
            "duration": 0.06607925000000137,
            "durationTicks": 96,
            "midi": 40,
            "name": "E2",
            "ticks": 156864,
            "time": 107.97349449999999,
            "velocity": 0.33070866141732286
          },
          {
            "duration": 0.06607925000000137,
            "durationTicks": 96,
            "midi": 40,
            "name": "E2",
            "ticks": 156960,
            "time": 108.03957374999999,
            "velocity": 0.33070866141732286
          },
          {
            "duration": 0.06607925000000137,
            "durationTicks": 96,
            "midi": 40,
            "name": "E2",
            "ticks": 157056,
            "time": 108.10565299999999,
            "velocity": 0.33070866141732286
          },
          {
            "duration": 0.06607925000000137,
            "durationTicks": 96,
            "midi": 40,
            "name": "E2",
            "ticks": 157152,
            "time": 108.17173224999999,
            "velocity": 0.33070866141732286
          },
          {
            "duration": 0.06607925000000137,
            "durationTicks": 96,
            "midi": 40,
            "name": "E2",
            "ticks": 157248,
            "time": 108.23781149999999,
            "velocity": 0.33070866141732286
          },
          {
            "duration": 0.06607924999998716,
            "durationTicks": 96,
            "midi": 40,
            "name": "E2",
            "ticks": 157344,
            "time": 108.30389075,
            "velocity": 0.33070866141732286
          },
          {
            "duration": 0.06607925000000137,
            "durationTicks": 96,
            "midi": 40,
            "name": "E2",
            "ticks": 157440,
            "time": 108.36996999999998,
            "velocity": 0.33070866141732286
          },
          {
            "duration": 0.26431700000000546,
            "durationTicks": 384,
            "midi": 36,
            "name": "C2",
            "ticks": 157824,
            "time": 108.63428699999999,
            "velocity": 0.3858267716535433
          },
          {
            "duration": 0.13215849999998852,
            "durationTicks": 192,
            "midi": 40,
            "name": "E2",
            "ticks": 158208,
            "time": 108.89860399999999,
            "velocity": 0.33070866141732286
          },
          {
            "duration": 0.13215849999998852,
            "durationTicks": 192,
            "midi": 36,
            "name": "C2",
            "ticks": 158208,
            "time": 108.89860399999999,
            "velocity": 0.4015748031496063
          },
          {
            "duration": 0.13215850000000273,
            "durationTicks": 192,
            "midi": 36,
            "name": "C2",
            "ticks": 158592,
            "time": 109.16292099999998,
            "velocity": 0.4015748031496063
          },
          {
            "duration": 0.13215850000000273,
            "durationTicks": 192,
            "midi": 40,
            "name": "E2",
            "ticks": 158592,
            "time": 109.16292099999998,
            "velocity": 0.33070866141732286
          },
          {
            "duration": 0.13215850000000273,
            "durationTicks": 192,
            "midi": 36,
            "name": "C2",
            "ticks": 158976,
            "time": 109.42723799999999,
            "velocity": 0.4015748031496063
          },
          {
            "duration": 0.13215850000000273,
            "durationTicks": 192,
            "midi": 40,
            "name": "E2",
            "ticks": 158976,
            "time": 109.42723799999999,
            "velocity": 0.33070866141732286
          },
          {
            "duration": 0.13215849999998852,
            "durationTicks": 192,
            "midi": 36,
            "name": "C2",
            "ticks": 159360,
            "time": 109.691555,
            "velocity": 0.4015748031496063
          },
          {
            "duration": 0.13215849999998852,
            "durationTicks": 192,
            "midi": 40,
            "name": "E2",
            "ticks": 159360,
            "time": 109.691555,
            "velocity": 0.33070866141732286
          },
          {
            "duration": 0.06607925000000137,
            "durationTicks": 96,
            "midi": 36,
            "name": "C2",
            "ticks": 159744,
            "time": 109.95587199999999,
            "velocity": 0.3858267716535433
          },
          {
            "duration": 0.06607925000000137,
            "durationTicks": 96,
            "midi": 42,
            "name": "F#2",
            "ticks": 159744,
            "time": 109.95587199999999,
            "velocity": 0.3858267716535433
          },
          {
            "duration": 0.26431700000000546,
            "durationTicks": 384,
            "midi": 49,
            "name": "C#3",
            "ticks": 159744,
            "time": 109.95587199999999,
            "velocity": 0.3858267716535433
          },
          {
            "duration": 0.06607925000000137,
            "durationTicks": 96,
            "midi": 42,
            "name": "F#2",
            "ticks": 159936,
            "time": 110.08803049999999,
            "velocity": 0.3858267716535433
          },
          {
            "duration": 0.06607925000000137,
            "durationTicks": 96,
            "midi": 46,
            "name": "A#2",
            "ticks": 160128,
            "time": 110.22018899999999,
            "velocity": 0.3858267716535433
          },
          {
            "duration": 0.06607925000000137,
            "durationTicks": 96,
            "midi": 42,
            "name": "F#2",
            "ticks": 160128,
            "time": 110.22018899999999,
            "velocity": 0.3858267716535433
          },
          {
            "duration": 0.06607925000000137,
            "durationTicks": 96,
            "midi": 40,
            "name": "E2",
            "ticks": 160128,
            "time": 110.22018899999999,
            "velocity": 0.3858267716535433
          },
          {
            "duration": 0.06607924999998716,
            "durationTicks": 96,
            "midi": 42,
            "name": "F#2",
            "ticks": 160320,
            "time": 110.3523475,
            "velocity": 0.3858267716535433
          },
          {
            "duration": 0.06607925000000137,
            "durationTicks": 96,
            "midi": 36,
            "name": "C2",
            "ticks": 160512,
            "time": 110.48450599999998,
            "velocity": 0.3858267716535433
          },
          {
            "duration": 0.06607925000000137,
            "durationTicks": 96,
            "midi": 40,
            "name": "E2",
            "ticks": 160512,
            "time": 110.48450599999998,
            "velocity": 0.3858267716535433
          },
          {
            "duration": 0.06607925000000137,
            "durationTicks": 96,
            "midi": 42,
            "name": "F#2",
            "ticks": 160512,
            "time": 110.48450599999998,
            "velocity": 0.3858267716535433
          },
          {
            "duration": 0.06607925000000137,
            "durationTicks": 96,
            "midi": 42,
            "name": "F#2",
            "ticks": 160704,
            "time": 110.61666449999998,
            "velocity": 0.3858267716535433
          },
          {
            "duration": 0.06607925000000137,
            "durationTicks": 96,
            "midi": 42,
            "name": "F#2",
            "ticks": 160896,
            "time": 110.74882299999999,
            "velocity": 0.3858267716535433
          },
          {
            "duration": 0.06607925000000137,
            "durationTicks": 96,
            "midi": 46,
            "name": "A#2",
            "ticks": 160896,
            "time": 110.74882299999999,
            "velocity": 0.3858267716535433
          },
          {
            "duration": 0.06607925000000137,
            "durationTicks": 96,
            "midi": 42,
            "name": "F#2",
            "ticks": 161088,
            "time": 110.88098149999999,
            "velocity": 0.3858267716535433
          },
          {
            "duration": 0.06607924999998716,
            "durationTicks": 96,
            "midi": 36,
            "name": "C2",
            "ticks": 161280,
            "time": 111.01313999999999,
            "velocity": 0.3858267716535433
          },
          {
            "duration": 0.06607924999998716,
            "durationTicks": 96,
            "midi": 40,
            "name": "E2",
            "ticks": 161280,
            "time": 111.01313999999999,
            "velocity": 0.3858267716535433
          },
          {
            "duration": 0.06607924999998716,
            "durationTicks": 96,
            "midi": 42,
            "name": "F#2",
            "ticks": 161280,
            "time": 111.01313999999999,
            "velocity": 0.3858267716535433
          },
          {
            "duration": 0.06607925000000137,
            "durationTicks": 96,
            "midi": 42,
            "name": "F#2",
            "ticks": 161472,
            "time": 111.14529849999998,
            "velocity": 0.3858267716535433
          },
          {
            "duration": 0.06607925000000137,
            "durationTicks": 96,
            "midi": 46,
            "name": "A#2",
            "ticks": 161664,
            "time": 111.27745699999998,
            "velocity": 0.3858267716535433
          },
          {
            "duration": 0.06607925000000137,
            "durationTicks": 96,
            "midi": 42,
            "name": "F#2",
            "ticks": 161664,
            "time": 111.27745699999998,
            "velocity": 0.3858267716535433
          },
          {
            "duration": 0.06607925000000137,
            "durationTicks": 96,
            "midi": 40,
            "name": "E2",
            "ticks": 161664,
            "time": 111.27745699999998,
            "velocity": 0.3858267716535433
          },
          {
            "duration": 0.06607925000000137,
            "durationTicks": 96,
            "midi": 40,
            "name": "E2",
            "ticks": 161856,
            "time": 111.40961549999999,
            "velocity": 0.3858267716535433
          },
          {
            "duration": 0.06607925000000137,
            "durationTicks": 96,
            "midi": 42,
            "name": "F#2",
            "ticks": 161856,
            "time": 111.40961549999999,
            "velocity": 0.3858267716535433
          },
          {
            "duration": 0.06607925000000137,
            "durationTicks": 96,
            "midi": 42,
            "name": "F#2",
            "ticks": 162048,
            "time": 111.54177399999999,
            "velocity": 0.3858267716535433
          },
          {
            "duration": 0.06607925000000137,
            "durationTicks": 96,
            "midi": 36,
            "name": "C2",
            "ticks": 162048,
            "time": 111.54177399999999,
            "velocity": 0.3858267716535433
          },
          {
            "duration": 0.06607925000000137,
            "durationTicks": 96,
            "midi": 40,
            "name": "E2",
            "ticks": 162240,
            "time": 111.67393249999999,
            "velocity": 0.3858267716535433
          },
          {
            "duration": 0.06607925000000137,
            "durationTicks": 96,
            "midi": 42,
            "name": "F#2",
            "ticks": 162240,
            "time": 111.67393249999999,
            "velocity": 0.3858267716535433
          },
          {
            "duration": 0.06607925000000137,
            "durationTicks": 96,
            "midi": 42,
            "name": "F#2",
            "ticks": 162432,
            "time": 111.80609099999998,
            "velocity": 0.3858267716535433
          },
          {
            "duration": 0.06607925000000137,
            "durationTicks": 96,
            "midi": 40,
            "name": "E2",
            "ticks": 162432,
            "time": 111.80609099999998,
            "velocity": 0.3858267716535433
          },
          {
            "duration": 0.06607925000000137,
            "durationTicks": 96,
            "midi": 46,
            "name": "A#2",
            "ticks": 162432,
            "time": 111.80609099999998,
            "velocity": 0.3858267716535433
          },
          {
            "duration": 0.06607925000000137,
            "durationTicks": 96,
            "midi": 42,
            "name": "F#2",
            "ticks": 162624,
            "time": 111.93824949999998,
            "velocity": 0.3858267716535433
          },
          {
            "duration": 0.06607925000000137,
            "durationTicks": 96,
            "midi": 40,
            "name": "E2",
            "ticks": 162624,
            "time": 111.93824949999998,
            "velocity": 0.3858267716535433
          },
          {
            "duration": 0.06607925000000137,
            "durationTicks": 96,
            "midi": 42,
            "name": "F#2",
            "ticks": 162816,
            "time": 112.07040799999999,
            "velocity": 0.3858267716535433
          },
          {
            "duration": 0.06607925000000137,
            "durationTicks": 96,
            "midi": 36,
            "name": "C2",
            "ticks": 162816,
            "time": 112.07040799999999,
            "velocity": 0.3858267716535433
          },
          {
            "duration": 0.06607925000000137,
            "durationTicks": 96,
            "midi": 42,
            "name": "F#2",
            "ticks": 163008,
            "time": 112.20256649999999,
            "velocity": 0.3858267716535433
          },
          {
            "duration": 0.06607925000000137,
            "durationTicks": 96,
            "midi": 40,
            "name": "E2",
            "ticks": 163200,
            "time": 112.33472499999999,
            "velocity": 0.3858267716535433
          },
          {
            "duration": 0.06607925000000137,
            "durationTicks": 96,
            "midi": 42,
            "name": "F#2",
            "ticks": 163200,
            "time": 112.33472499999999,
            "velocity": 0.3858267716535433
          },
          {
            "duration": 0.06607925000000137,
            "durationTicks": 96,
            "midi": 46,
            "name": "A#2",
            "ticks": 163200,
            "time": 112.33472499999999,
            "velocity": 0.3858267716535433
          },
          {
            "duration": 0.06607925000000137,
            "durationTicks": 96,
            "midi": 42,
            "name": "F#2",
            "ticks": 163392,
            "time": 112.46688349999998,
            "velocity": 0.3858267716535433
          },
          {
            "duration": 0.06607925000000137,
            "durationTicks": 96,
            "midi": 36,
            "name": "C2",
            "ticks": 163584,
            "time": 112.59904199999998,
            "velocity": 0.3858267716535433
          },
          {
            "duration": 0.06607925000000137,
            "durationTicks": 96,
            "midi": 40,
            "name": "E2",
            "ticks": 163584,
            "time": 112.59904199999998,
            "velocity": 0.3858267716535433
          },
          {
            "duration": 0.06607925000000137,
            "durationTicks": 96,
            "midi": 42,
            "name": "F#2",
            "ticks": 163584,
            "time": 112.59904199999998,
            "velocity": 0.3858267716535433
          },
          {
            "duration": 0.06607925000000137,
            "durationTicks": 96,
            "midi": 42,
            "name": "F#2",
            "ticks": 163776,
            "time": 112.73120049999999,
            "velocity": 0.3858267716535433
          },
          {
            "duration": 0.06607925000000137,
            "durationTicks": 96,
            "midi": 42,
            "name": "F#2",
            "ticks": 163968,
            "time": 112.86335899999999,
            "velocity": 0.3858267716535433
          },
          {
            "duration": 0.06607925000000137,
            "durationTicks": 96,
            "midi": 46,
            "name": "A#2",
            "ticks": 163968,
            "time": 112.86335899999999,
            "velocity": 0.3858267716535433
          },
          {
            "duration": 0.06607925000000137,
            "durationTicks": 96,
            "midi": 42,
            "name": "F#2",
            "ticks": 164160,
            "time": 112.99551749999999,
            "velocity": 0.3858267716535433
          },
          {
            "duration": 0.06607925000000137,
            "durationTicks": 96,
            "midi": 36,
            "name": "C2",
            "ticks": 164352,
            "time": 113.12767599999998,
            "velocity": 0.3858267716535433
          },
          {
            "duration": 0.06607925000000137,
            "durationTicks": 96,
            "midi": 40,
            "name": "E2",
            "ticks": 164352,
            "time": 113.12767599999998,
            "velocity": 0.3858267716535433
          },
          {
            "duration": 0.06607925000000137,
            "durationTicks": 96,
            "midi": 42,
            "name": "F#2",
            "ticks": 164352,
            "time": 113.12767599999998,
            "velocity": 0.3858267716535433
          },
          {
            "duration": 0.06607925000000137,
            "durationTicks": 96,
            "midi": 42,
            "name": "F#2",
            "ticks": 164544,
            "time": 113.25983449999998,
            "velocity": 0.3858267716535433
          },
          {
            "duration": 0.06607925000000137,
            "durationTicks": 96,
            "midi": 42,
            "name": "F#2",
            "ticks": 164736,
            "time": 113.39199299999999,
            "velocity": 0.3858267716535433
          },
          {
            "duration": 0.06607925000000137,
            "durationTicks": 96,
            "midi": 46,
            "name": "A#2",
            "ticks": 164736,
            "time": 113.39199299999999,
            "velocity": 0.3858267716535433
          },
          {
            "duration": 0.06607925000000137,
            "durationTicks": 96,
            "midi": 40,
            "name": "E2",
            "ticks": 164736,
            "time": 113.39199299999999,
            "velocity": 0.3858267716535433
          },
          {
            "duration": 0.06607925000000137,
            "durationTicks": 96,
            "midi": 42,
            "name": "F#2",
            "ticks": 164928,
            "time": 113.52415149999999,
            "velocity": 0.3858267716535433
          },
          {
            "duration": 0.06607925000000137,
            "durationTicks": 96,
            "midi": 40,
            "name": "E2",
            "ticks": 164928,
            "time": 113.52415149999999,
            "velocity": 0.3858267716535433
          },
          {
            "duration": 0.06607925000000137,
            "durationTicks": 96,
            "midi": 36,
            "name": "C2",
            "ticks": 165120,
            "time": 113.65630999999999,
            "velocity": 0.3858267716535433
          },
          {
            "duration": 0.06607925000000137,
            "durationTicks": 96,
            "midi": 42,
            "name": "F#2",
            "ticks": 165120,
            "time": 113.65630999999999,
            "velocity": 0.3858267716535433
          },
          {
            "duration": 0.06607924999998716,
            "durationTicks": 96,
            "midi": 40,
            "name": "E2",
            "ticks": 165312,
            "time": 113.7884685,
            "velocity": 0.3858267716535433
          },
          {
            "duration": 0.06607924999998716,
            "durationTicks": 96,
            "midi": 42,
            "name": "F#2",
            "ticks": 165312,
            "time": 113.7884685,
            "velocity": 0.3858267716535433
          },
          {
            "duration": 0.06607925000000137,
            "durationTicks": 96,
            "midi": 42,
            "name": "F#2",
            "ticks": 165504,
            "time": 113.92062699999998,
            "velocity": 0.3858267716535433
          },
          {
            "duration": 0.06607925000000137,
            "durationTicks": 96,
            "midi": 40,
            "name": "E2",
            "ticks": 165504,
            "time": 113.92062699999998,
            "velocity": 0.3858267716535433
          },
          {
            "duration": 0.06607925000000137,
            "durationTicks": 96,
            "midi": 46,
            "name": "A#2",
            "ticks": 165504,
            "time": 113.92062699999998,
            "velocity": 0.3858267716535433
          },
          {
            "duration": 0.06607925000000137,
            "durationTicks": 96,
            "midi": 42,
            "name": "F#2",
            "ticks": 165696,
            "time": 114.05278549999998,
            "velocity": 0.3858267716535433
          },
          {
            "duration": 0.06607925000000137,
            "durationTicks": 96,
            "midi": 40,
            "name": "E2",
            "ticks": 165696,
            "time": 114.05278549999998,
            "velocity": 0.3858267716535433
          },
          {
            "duration": 0.06607925000000137,
            "durationTicks": 96,
            "midi": 42,
            "name": "F#2",
            "ticks": 165888,
            "time": 114.18494399999999,
            "velocity": 0.3858267716535433
          },
          {
            "duration": 0.06607925000000137,
            "durationTicks": 96,
            "midi": 36,
            "name": "C2",
            "ticks": 165888,
            "time": 114.18494399999999,
            "velocity": 0.3858267716535433
          },
          {
            "duration": 0.06607925000000137,
            "durationTicks": 96,
            "midi": 42,
            "name": "F#2",
            "ticks": 166080,
            "time": 114.31710249999999,
            "velocity": 0.3858267716535433
          },
          {
            "duration": 0.06607924999998716,
            "durationTicks": 96,
            "midi": 42,
            "name": "F#2",
            "ticks": 166272,
            "time": 114.44926099999999,
            "velocity": 0.3858267716535433
          },
          {
            "duration": 0.06607924999998716,
            "durationTicks": 96,
            "midi": 46,
            "name": "A#2",
            "ticks": 166272,
            "time": 114.44926099999999,
            "velocity": 0.3858267716535433
          },
          {
            "duration": 0.06607924999998716,
            "durationTicks": 96,
            "midi": 40,
            "name": "E2",
            "ticks": 166272,
            "time": 114.44926099999999,
            "velocity": 0.3858267716535433
          },
          {
            "duration": 0.06607925000000137,
            "durationTicks": 96,
            "midi": 42,
            "name": "F#2",
            "ticks": 166464,
            "time": 114.58141949999998,
            "velocity": 0.3858267716535433
          },
          {
            "duration": 0.06607925000000137,
            "durationTicks": 96,
            "midi": 36,
            "name": "C2",
            "ticks": 166656,
            "time": 114.71357799999998,
            "velocity": 0.3858267716535433
          },
          {
            "duration": 0.06607925000000137,
            "durationTicks": 96,
            "midi": 40,
            "name": "E2",
            "ticks": 166656,
            "time": 114.71357799999998,
            "velocity": 0.3858267716535433
          },
          {
            "duration": 0.06607925000000137,
            "durationTicks": 96,
            "midi": 42,
            "name": "F#2",
            "ticks": 166656,
            "time": 114.71357799999998,
            "velocity": 0.3858267716535433
          },
          {
            "duration": 0.06607925000000137,
            "durationTicks": 96,
            "midi": 42,
            "name": "F#2",
            "ticks": 166848,
            "time": 114.84573649999999,
            "velocity": 0.3858267716535433
          },
          {
            "duration": 0.06607925000000137,
            "durationTicks": 96,
            "midi": 46,
            "name": "A#2",
            "ticks": 167040,
            "time": 114.97789499999999,
            "velocity": 0.3858267716535433
          },
          {
            "duration": 0.06607925000000137,
            "durationTicks": 96,
            "midi": 42,
            "name": "F#2",
            "ticks": 167040,
            "time": 114.97789499999999,
            "velocity": 0.3858267716535433
          },
          {
            "duration": 0.06607924999998716,
            "durationTicks": 96,
            "midi": 42,
            "name": "F#2",
            "ticks": 167232,
            "time": 115.11005349999999,
            "velocity": 0.3858267716535433
          },
          {
            "duration": 0.06607925000000137,
            "durationTicks": 96,
            "midi": 36,
            "name": "C2",
            "ticks": 167424,
            "time": 115.24221199999998,
            "velocity": 0.3858267716535433
          },
          {
            "duration": 0.06607925000000137,
            "durationTicks": 96,
            "midi": 42,
            "name": "F#2",
            "ticks": 167424,
            "time": 115.24221199999998,
            "velocity": 0.3858267716535433
          },
          {
            "duration": 0.06607925000000137,
            "durationTicks": 96,
            "midi": 40,
            "name": "E2",
            "ticks": 167424,
            "time": 115.24221199999998,
            "velocity": 0.3858267716535433
          },
          {
            "duration": 0.06607925000000137,
            "durationTicks": 96,
            "midi": 42,
            "name": "F#2",
            "ticks": 167616,
            "time": 115.37437049999998,
            "velocity": 0.3858267716535433
          },
          {
            "duration": 0.06607925000000137,
            "durationTicks": 96,
            "midi": 42,
            "name": "F#2",
            "ticks": 167808,
            "time": 115.50652899999999,
            "velocity": 0.3858267716535433
          },
          {
            "duration": 0.06607925000000137,
            "durationTicks": 96,
            "midi": 40,
            "name": "E2",
            "ticks": 167808,
            "time": 115.50652899999999,
            "velocity": 0.3858267716535433
          },
          {
            "duration": 0.06607925000000137,
            "durationTicks": 96,
            "midi": 46,
            "name": "A#2",
            "ticks": 167808,
            "time": 115.50652899999999,
            "velocity": 0.3858267716535433
          },
          {
            "duration": 0.06607925000000137,
            "durationTicks": 96,
            "midi": 42,
            "name": "F#2",
            "ticks": 168000,
            "time": 115.63868749999999,
            "velocity": 0.3858267716535433
          },
          {
            "duration": 0.06607925000000137,
            "durationTicks": 96,
            "midi": 40,
            "name": "E2",
            "ticks": 168000,
            "time": 115.63868749999999,
            "velocity": 0.3858267716535433
          },
          {
            "duration": 0.06607925000000137,
            "durationTicks": 96,
            "midi": 36,
            "name": "C2",
            "ticks": 168192,
            "time": 115.77084599999999,
            "velocity": 0.3858267716535433
          },
          {
            "duration": 0.06607925000000137,
            "durationTicks": 96,
            "midi": 42,
            "name": "F#2",
            "ticks": 168192,
            "time": 115.77084599999999,
            "velocity": 0.3858267716535433
          },
          {
            "duration": 0.06607925000000137,
            "durationTicks": 96,
            "midi": 40,
            "name": "E2",
            "ticks": 168384,
            "time": 115.90300449999998,
            "velocity": 0.3858267716535433
          },
          {
            "duration": 0.06607925000000137,
            "durationTicks": 96,
            "midi": 42,
            "name": "F#2",
            "ticks": 168384,
            "time": 115.90300449999998,
            "velocity": 0.3858267716535433
          },
          {
            "duration": 0.06607925000000137,
            "durationTicks": 96,
            "midi": 40,
            "name": "E2",
            "ticks": 168576,
            "time": 116.03516299999998,
            "velocity": 0.3858267716535433
          },
          {
            "duration": 0.06607925000000137,
            "durationTicks": 96,
            "midi": 46,
            "name": "A#2",
            "ticks": 168576,
            "time": 116.03516299999998,
            "velocity": 0.3858267716535433
          },
          {
            "duration": 0.06607925000000137,
            "durationTicks": 96,
            "midi": 42,
            "name": "F#2",
            "ticks": 168576,
            "time": 116.03516299999998,
            "velocity": 0.3858267716535433
          },
          {
            "duration": 0.06607925000000137,
            "durationTicks": 96,
            "midi": 42,
            "name": "F#2",
            "ticks": 168768,
            "time": 116.16732149999999,
            "velocity": 0.3858267716535433
          },
          {
            "duration": 0.06607925000000137,
            "durationTicks": 96,
            "midi": 40,
            "name": "E2",
            "ticks": 168768,
            "time": 116.16732149999999,
            "velocity": 0.3858267716535433
          },
          {
            "duration": 0.06607925000000137,
            "durationTicks": 96,
            "midi": 42,
            "name": "F#2",
            "ticks": 168960,
            "time": 116.29947999999999,
            "velocity": 0.3858267716535433
          },
          {
            "duration": 0.06607925000000137,
            "durationTicks": 96,
            "midi": 36,
            "name": "C2",
            "ticks": 168960,
            "time": 116.29947999999999,
            "velocity": 0.3858267716535433
          },
          {
            "duration": 0.06607925000000137,
            "durationTicks": 96,
            "midi": 42,
            "name": "F#2",
            "ticks": 169152,
            "time": 116.43163849999999,
            "velocity": 0.3858267716535433
          },
          {
            "duration": 0.06607925000000137,
            "durationTicks": 96,
            "midi": 42,
            "name": "F#2",
            "ticks": 169344,
            "time": 116.56379699999998,
            "velocity": 0.3858267716535433
          },
          {
            "duration": 0.06607925000000137,
            "durationTicks": 96,
            "midi": 46,
            "name": "A#2",
            "ticks": 169344,
            "time": 116.56379699999998,
            "velocity": 0.3858267716535433
          },
          {
            "duration": 0.06607925000000137,
            "durationTicks": 96,
            "midi": 40,
            "name": "E2",
            "ticks": 169344,
            "time": 116.56379699999998,
            "velocity": 0.3858267716535433
          },
          {
            "duration": 0.06607925000000137,
            "durationTicks": 96,
            "midi": 42,
            "name": "F#2",
            "ticks": 169536,
            "time": 116.69595549999998,
            "velocity": 0.3858267716535433
          },
          {
            "duration": 0.06607925000000137,
            "durationTicks": 96,
            "midi": 40,
            "name": "E2",
            "ticks": 169728,
            "time": 116.82811399999999,
            "velocity": 0.3858267716535433
          },
          {
            "duration": 0.06607925000000137,
            "durationTicks": 96,
            "midi": 42,
            "name": "F#2",
            "ticks": 169728,
            "time": 116.82811399999999,
            "velocity": 0.3858267716535433
          },
          {
            "duration": 0.06607925000000137,
            "durationTicks": 96,
            "midi": 36,
            "name": "C2",
            "ticks": 169728,
            "time": 116.82811399999999,
            "velocity": 0.3858267716535433
          },
          {
            "duration": 0.06607925000000137,
            "durationTicks": 96,
            "midi": 42,
            "name": "F#2",
            "ticks": 169920,
            "time": 116.96027249999999,
            "velocity": 0.3858267716535433
          },
          {
            "duration": 0.06607925000000137,
            "durationTicks": 96,
            "midi": 42,
            "name": "F#2",
            "ticks": 170112,
            "time": 117.09243099999999,
            "velocity": 0.3858267716535433
          },
          {
            "duration": 0.06607925000000137,
            "durationTicks": 96,
            "midi": 46,
            "name": "A#2",
            "ticks": 170112,
            "time": 117.09243099999999,
            "velocity": 0.3858267716535433
          },
          {
            "duration": 0.06607925000000137,
            "durationTicks": 96,
            "midi": 42,
            "name": "F#2",
            "ticks": 170304,
            "time": 117.22458949999998,
            "velocity": 0.3858267716535433
          },
          {
            "duration": 0.06607925000000137,
            "durationTicks": 96,
            "midi": 36,
            "name": "C2",
            "ticks": 170496,
            "time": 117.35674799999998,
            "velocity": 0.3858267716535433
          },
          {
            "duration": 0.06607925000000137,
            "durationTicks": 96,
            "midi": 42,
            "name": "F#2",
            "ticks": 170496,
            "time": 117.35674799999998,
            "velocity": 0.3858267716535433
          },
          {
            "duration": 0.06607925000000137,
            "durationTicks": 96,
            "midi": 40,
            "name": "E2",
            "ticks": 170496,
            "time": 117.35674799999998,
            "velocity": 0.3858267716535433
          },
          {
            "duration": 0.06607925000000137,
            "durationTicks": 96,
            "midi": 42,
            "name": "F#2",
            "ticks": 170688,
            "time": 117.48890649999998,
            "velocity": 0.3858267716535433
          },
          {
            "duration": 0.06607925000000137,
            "durationTicks": 96,
            "midi": 40,
            "name": "E2",
            "ticks": 170880,
            "time": 117.62106499999999,
            "velocity": 0.3858267716535433
          },
          {
            "duration": 0.06607925000000137,
            "durationTicks": 96,
            "midi": 46,
            "name": "A#2",
            "ticks": 170880,
            "time": 117.62106499999999,
            "velocity": 0.3858267716535433
          },
          {
            "duration": 0.06607925000000137,
            "durationTicks": 96,
            "midi": 42,
            "name": "F#2",
            "ticks": 170880,
            "time": 117.62106499999999,
            "velocity": 0.3858267716535433
          },
          {
            "duration": 0.06607925000000137,
            "durationTicks": 96,
            "midi": 40,
            "name": "E2",
            "ticks": 171072,
            "time": 117.75322349999999,
            "velocity": 0.3858267716535433
          },
          {
            "duration": 0.06607925000000137,
            "durationTicks": 96,
            "midi": 42,
            "name": "F#2",
            "ticks": 171072,
            "time": 117.75322349999999,
            "velocity": 0.3858267716535433
          },
          {
            "duration": 0.06607924999998716,
            "durationTicks": 96,
            "midi": 36,
            "name": "C2",
            "ticks": 171264,
            "time": 117.88538199999999,
            "velocity": 0.3858267716535433
          },
          {
            "duration": 0.06607924999998716,
            "durationTicks": 96,
            "midi": 42,
            "name": "F#2",
            "ticks": 171264,
            "time": 117.88538199999999,
            "velocity": 0.3858267716535433
          },
          {
            "duration": 0.06607925000000137,
            "durationTicks": 96,
            "midi": 42,
            "name": "F#2",
            "ticks": 171456,
            "time": 118.01754049999998,
            "velocity": 0.3858267716535433
          },
          {
            "duration": 0.06607925000000137,
            "durationTicks": 96,
            "midi": 40,
            "name": "E2",
            "ticks": 171456,
            "time": 118.01754049999998,
            "velocity": 0.3858267716535433
          },
          {
            "duration": 0.06607925000000137,
            "durationTicks": 96,
            "midi": 46,
            "name": "A#2",
            "ticks": 171648,
            "time": 118.14969899999998,
            "velocity": 0.3858267716535433
          },
          {
            "duration": 0.06607925000000137,
            "durationTicks": 96,
            "midi": 42,
            "name": "F#2",
            "ticks": 171648,
            "time": 118.14969899999998,
            "velocity": 0.3858267716535433
          },
          {
            "duration": 0.06607925000000137,
            "durationTicks": 96,
            "midi": 40,
            "name": "E2",
            "ticks": 171648,
            "time": 118.14969899999998,
            "velocity": 0.3858267716535433
          },
          {
            "duration": 0.06607925000000137,
            "durationTicks": 96,
            "midi": 42,
            "name": "F#2",
            "ticks": 171840,
            "time": 118.28185749999999,
            "velocity": 0.3858267716535433
          },
          {
            "duration": 0.06607925000000137,
            "durationTicks": 96,
            "midi": 40,
            "name": "E2",
            "ticks": 171840,
            "time": 118.28185749999999,
            "velocity": 0.3858267716535433
          },
          {
            "duration": 0.06607925000000137,
            "durationTicks": 96,
            "midi": 42,
            "name": "F#2",
            "ticks": 172032,
            "time": 118.41401599999999,
            "velocity": 0.3858267716535433
          },
          {
            "duration": 0.06607925000000137,
            "durationTicks": 96,
            "midi": 36,
            "name": "C2",
            "ticks": 172032,
            "time": 118.41401599999999,
            "velocity": 0.3858267716535433
          },
          {
            "duration": 0.06607924999998716,
            "durationTicks": 96,
            "midi": 42,
            "name": "F#2",
            "ticks": 172224,
            "time": 118.54617449999999,
            "velocity": 0.3858267716535433
          },
          {
            "duration": 0.06607925000000137,
            "durationTicks": 96,
            "midi": 46,
            "name": "A#2",
            "ticks": 172416,
            "time": 118.67833299999998,
            "velocity": 0.3858267716535433
          },
          {
            "duration": 0.06607925000000137,
            "durationTicks": 96,
            "midi": 40,
            "name": "E2",
            "ticks": 172416,
            "time": 118.67833299999998,
            "velocity": 0.3858267716535433
          },
          {
            "duration": 0.06607925000000137,
            "durationTicks": 96,
            "midi": 42,
            "name": "F#2",
            "ticks": 172416,
            "time": 118.67833299999998,
            "velocity": 0.3858267716535433
          },
          {
            "duration": 0.06607925000000137,
            "durationTicks": 96,
            "midi": 42,
            "name": "F#2",
            "ticks": 172608,
            "time": 118.81049149999998,
            "velocity": 0.3858267716535433
          },
          {
            "duration": 0.06607925000000137,
            "durationTicks": 96,
            "midi": 42,
            "name": "F#2",
            "ticks": 172800,
            "time": 118.94264999999999,
            "velocity": 0.3858267716535433
          },
          {
            "duration": 0.06607925000000137,
            "durationTicks": 96,
            "midi": 40,
            "name": "E2",
            "ticks": 172800,
            "time": 118.94264999999999,
            "velocity": 0.3858267716535433
          },
          {
            "duration": 0.06607925000000137,
            "durationTicks": 96,
            "midi": 36,
            "name": "C2",
            "ticks": 172800,
            "time": 118.94264999999999,
            "velocity": 0.3858267716535433
          },
          {
            "duration": 0.06607925000000137,
            "durationTicks": 96,
            "midi": 42,
            "name": "F#2",
            "ticks": 172992,
            "time": 119.07480849999999,
            "velocity": 0.3858267716535433
          },
          {
            "duration": 0.06607924999998716,
            "durationTicks": 96,
            "midi": 42,
            "name": "F#2",
            "ticks": 173184,
            "time": 119.20696699999999,
            "velocity": 0.3858267716535433
          },
          {
            "duration": 0.06607924999998716,
            "durationTicks": 96,
            "midi": 46,
            "name": "A#2",
            "ticks": 173184,
            "time": 119.20696699999999,
            "velocity": 0.3858267716535433
          },
          {
            "duration": 0.06607925000000137,
            "durationTicks": 96,
            "midi": 42,
            "name": "F#2",
            "ticks": 173376,
            "time": 119.33912549999998,
            "velocity": 0.3858267716535433
          },
          {
            "duration": 0.06607925000000137,
            "durationTicks": 96,
            "midi": 40,
            "name": "E2",
            "ticks": 173568,
            "time": 119.47128399999998,
            "velocity": 0.3858267716535433
          },
          {
            "duration": 0.06607925000000137,
            "durationTicks": 96,
            "midi": 42,
            "name": "F#2",
            "ticks": 173568,
            "time": 119.47128399999998,
            "velocity": 0.3858267716535433
          },
          {
            "duration": 0.06607925000000137,
            "durationTicks": 96,
            "midi": 36,
            "name": "C2",
            "ticks": 173568,
            "time": 119.47128399999998,
            "velocity": 0.3858267716535433
          },
          {
            "duration": 0.06607925000000137,
            "durationTicks": 96,
            "midi": 42,
            "name": "F#2",
            "ticks": 173760,
            "time": 119.60344249999999,
            "velocity": 0.3858267716535433
          },
          {
            "duration": 0.06607925000000137,
            "durationTicks": 96,
            "midi": 40,
            "name": "E2",
            "ticks": 173952,
            "time": 119.73560099999999,
            "velocity": 0.3858267716535433
          },
          {
            "duration": 0.06607925000000137,
            "durationTicks": 96,
            "midi": 42,
            "name": "F#2",
            "ticks": 173952,
            "time": 119.73560099999999,
            "velocity": 0.3858267716535433
          },
          {
            "duration": 0.06607925000000137,
            "durationTicks": 96,
            "midi": 46,
            "name": "A#2",
            "ticks": 173952,
            "time": 119.73560099999999,
            "velocity": 0.3858267716535433
          },
          {
            "duration": 0.06607925000000137,
            "durationTicks": 96,
            "midi": 40,
            "name": "E2",
            "ticks": 174144,
            "time": 119.86775949999999,
            "velocity": 0.3858267716535433
          },
          {
            "duration": 0.06607925000000137,
            "durationTicks": 96,
            "midi": 42,
            "name": "F#2",
            "ticks": 174144,
            "time": 119.86775949999999,
            "velocity": 0.3858267716535433
          },
          {
            "duration": 0.06607925000000137,
            "durationTicks": 96,
            "midi": 36,
            "name": "C2",
            "ticks": 174336,
            "time": 119.99991799999998,
            "velocity": 0.3858267716535433
          },
          {
            "duration": 0.06607925000000137,
            "durationTicks": 96,
            "midi": 42,
            "name": "F#2",
            "ticks": 174336,
            "time": 119.99991799999998,
            "velocity": 0.3858267716535433
          },
          {
            "duration": 0.06607925000000137,
            "durationTicks": 96,
            "midi": 42,
            "name": "F#2",
            "ticks": 174528,
            "time": 120.13207649999998,
            "velocity": 0.3858267716535433
          },
          {
            "duration": 0.06607925000000137,
            "durationTicks": 96,
            "midi": 40,
            "name": "E2",
            "ticks": 174528,
            "time": 120.13207649999998,
            "velocity": 0.3858267716535433
          },
          {
            "duration": 0.06607925000000137,
            "durationTicks": 96,
            "midi": 40,
            "name": "E2",
            "ticks": 174720,
            "time": 120.26423499999999,
            "velocity": 0.3858267716535433
          },
          {
            "duration": 0.06607925000000137,
            "durationTicks": 96,
            "midi": 46,
            "name": "A#2",
            "ticks": 174720,
            "time": 120.26423499999999,
            "velocity": 0.3858267716535433
          },
          {
            "duration": 0.06607925000000137,
            "durationTicks": 96,
            "midi": 42,
            "name": "F#2",
            "ticks": 174720,
            "time": 120.26423499999999,
            "velocity": 0.3858267716535433
          },
          {
            "duration": 0.06607925000000137,
            "durationTicks": 96,
            "midi": 40,
            "name": "E2",
            "ticks": 174912,
            "time": 120.39639349999999,
            "velocity": 0.3858267716535433
          },
          {
            "duration": 0.06607925000000137,
            "durationTicks": 96,
            "midi": 42,
            "name": "F#2",
            "ticks": 174912,
            "time": 120.39639349999999,
            "velocity": 0.3858267716535433
          },
          {
            "duration": 0.06607925000000137,
            "durationTicks": 96,
            "midi": 42,
            "name": "F#2",
            "ticks": 175104,
            "time": 120.52855199999999,
            "velocity": 0.3858267716535433
          },
          {
            "duration": 0.06607925000000137,
            "durationTicks": 96,
            "midi": 36,
            "name": "C2",
            "ticks": 175104,
            "time": 120.52855199999999,
            "velocity": 0.3858267716535433
          },
          {
            "duration": 0.06607925000000137,
            "durationTicks": 96,
            "midi": 42,
            "name": "F#2",
            "ticks": 175296,
            "time": 120.66071049999998,
            "velocity": 0.3858267716535433
          },
          {
            "duration": 0.06607925000000137,
            "durationTicks": 96,
            "midi": 46,
            "name": "A#2",
            "ticks": 175488,
            "time": 120.79286899999998,
            "velocity": 0.3858267716535433
          },
          {
            "duration": 0.06607925000000137,
            "durationTicks": 96,
            "midi": 40,
            "name": "E2",
            "ticks": 175488,
            "time": 120.79286899999998,
            "velocity": 0.3858267716535433
          },
          {
            "duration": 0.06607925000000137,
            "durationTicks": 96,
            "midi": 42,
            "name": "F#2",
            "ticks": 175488,
            "time": 120.79286899999998,
            "velocity": 0.3858267716535433
          },
          {
            "duration": 0.06607925000000137,
            "durationTicks": 96,
            "midi": 42,
            "name": "F#2",
            "ticks": 175680,
            "time": 120.92502749999998,
            "velocity": 0.3858267716535433
          },
          {
            "duration": 0.06607925000000137,
            "durationTicks": 96,
            "midi": 42,
            "name": "F#2",
            "ticks": 175872,
            "time": 121.05718599999999,
            "velocity": 0.3858267716535433
          },
          {
            "duration": 0.06607925000000137,
            "durationTicks": 96,
            "midi": 36,
            "name": "C2",
            "ticks": 175872,
            "time": 121.05718599999999,
            "velocity": 0.3858267716535433
          },
          {
            "duration": 0.06607925000000137,
            "durationTicks": 96,
            "midi": 40,
            "name": "E2",
            "ticks": 175872,
            "time": 121.05718599999999,
            "velocity": 0.3858267716535433
          },
          {
            "duration": 0.06607925000000137,
            "durationTicks": 96,
            "midi": 42,
            "name": "F#2",
            "ticks": 176064,
            "time": 121.18934449999999,
            "velocity": 0.3858267716535433
          },
          {
            "duration": 0.06607925000000137,
            "durationTicks": 96,
            "midi": 46,
            "name": "A#2",
            "ticks": 176256,
            "time": 121.32150299999998,
            "velocity": 0.3858267716535433
          },
          {
            "duration": 0.06607925000000137,
            "durationTicks": 96,
            "midi": 42,
            "name": "F#2",
            "ticks": 176256,
            "time": 121.32150299999998,
            "velocity": 0.3858267716535433
          },
          {
            "duration": 0.06607925000000137,
            "durationTicks": 96,
            "midi": 42,
            "name": "F#2",
            "ticks": 176448,
            "time": 121.45366149999998,
            "velocity": 0.3858267716535433
          },
          {
            "duration": 0.06607925000000137,
            "durationTicks": 96,
            "midi": 40,
            "name": "E2",
            "ticks": 176640,
            "time": 121.58581999999998,
            "velocity": 0.3858267716535433
          },
          {
            "duration": 0.06607925000000137,
            "durationTicks": 96,
            "midi": 36,
            "name": "C2",
            "ticks": 176640,
            "time": 121.58581999999998,
            "velocity": 0.3858267716535433
          },
          {
            "duration": 0.06607925000000137,
            "durationTicks": 96,
            "midi": 42,
            "name": "F#2",
            "ticks": 176640,
            "time": 121.58581999999998,
            "velocity": 0.3858267716535433
          },
          {
            "duration": 0.06607925000000137,
            "durationTicks": 96,
            "midi": 42,
            "name": "F#2",
            "ticks": 176832,
            "time": 121.71797849999999,
            "velocity": 0.3858267716535433
          },
          {
            "duration": 0.06607925000000137,
            "durationTicks": 96,
            "midi": 46,
            "name": "A#2",
            "ticks": 177024,
            "time": 121.85013699999999,
            "velocity": 0.3858267716535433
          },
          {
            "duration": 0.06607925000000137,
            "durationTicks": 96,
            "midi": 42,
            "name": "F#2",
            "ticks": 177024,
            "time": 121.85013699999999,
            "velocity": 0.3858267716535433
          },
          {
            "duration": 0.06607925000000137,
            "durationTicks": 96,
            "midi": 40,
            "name": "E2",
            "ticks": 177024,
            "time": 121.85013699999999,
            "velocity": 0.3858267716535433
          },
          {
            "duration": 0.06607924999998716,
            "durationTicks": 96,
            "midi": 42,
            "name": "F#2",
            "ticks": 177216,
            "time": 121.98229549999999,
            "velocity": 0.3858267716535433
          },
          {
            "duration": 0.06607924999998716,
            "durationTicks": 96,
            "midi": 40,
            "name": "E2",
            "ticks": 177216,
            "time": 121.98229549999999,
            "velocity": 0.3858267716535433
          },
          {
            "duration": 0.06607925000000137,
            "durationTicks": 96,
            "midi": 36,
            "name": "C2",
            "ticks": 177408,
            "time": 122.11445399999998,
            "velocity": 0.3858267716535433
          },
          {
            "duration": 0.06607925000000137,
            "durationTicks": 96,
            "midi": 42,
            "name": "F#2",
            "ticks": 177408,
            "time": 122.11445399999998,
            "velocity": 0.3858267716535433
          },
          {
            "duration": 0.06607925000000137,
            "durationTicks": 96,
            "midi": 40,
            "name": "E2",
            "ticks": 177600,
            "time": 122.24661249999998,
            "velocity": 0.3858267716535433
          },
          {
            "duration": 0.06607925000000137,
            "durationTicks": 96,
            "midi": 42,
            "name": "F#2",
            "ticks": 177600,
            "time": 122.24661249999998,
            "velocity": 0.3858267716535433
          },
          {
            "duration": 0.06607925000000137,
            "durationTicks": 96,
            "midi": 42,
            "name": "F#2",
            "ticks": 177792,
            "time": 122.37877099999999,
            "velocity": 0.3858267716535433
          },
          {
            "duration": 0.06607925000000137,
            "durationTicks": 96,
            "midi": 46,
            "name": "A#2",
            "ticks": 177792,
            "time": 122.37877099999999,
            "velocity": 0.3858267716535433
          },
          {
            "duration": 0.06607925000000137,
            "durationTicks": 96,
            "midi": 40,
            "name": "E2",
            "ticks": 177792,
            "time": 122.37877099999999,
            "velocity": 0.3858267716535433
          },
          {
            "duration": 0.06607925000000137,
            "durationTicks": 96,
            "midi": 40,
            "name": "E2",
            "ticks": 177984,
            "time": 122.51092949999999,
            "velocity": 0.3858267716535433
          },
          {
            "duration": 0.06607925000000137,
            "durationTicks": 96,
            "midi": 42,
            "name": "F#2",
            "ticks": 177984,
            "time": 122.51092949999999,
            "velocity": 0.3858267716535433
          },
          {
            "duration": 0.06607924999998716,
            "durationTicks": 96,
            "midi": 42,
            "name": "F#2",
            "ticks": 178176,
            "time": 122.64308799999999,
            "velocity": 0.3858267716535433
          },
          {
            "duration": 0.06607924999998716,
            "durationTicks": 96,
            "midi": 36,
            "name": "C2",
            "ticks": 178176,
            "time": 122.64308799999999,
            "velocity": 0.3858267716535433
          },
          {
            "duration": 0.06607925000000137,
            "durationTicks": 96,
            "midi": 42,
            "name": "F#2",
            "ticks": 178368,
            "time": 122.77524649999998,
            "velocity": 0.3858267716535433
          },
          {
            "duration": 0.06607925000000137,
            "durationTicks": 96,
            "midi": 42,
            "name": "F#2",
            "ticks": 178560,
            "time": 122.90740499999998,
            "velocity": 0.3858267716535433
          },
          {
            "duration": 0.06607925000000137,
            "durationTicks": 96,
            "midi": 40,
            "name": "E2",
            "ticks": 178560,
            "time": 122.90740499999998,
            "velocity": 0.3858267716535433
          },
          {
            "duration": 0.06607925000000137,
            "durationTicks": 96,
            "midi": 46,
            "name": "A#2",
            "ticks": 178560,
            "time": 122.90740499999998,
            "velocity": 0.3858267716535433
          },
          {
            "duration": 0.06607925000000137,
            "durationTicks": 96,
            "midi": 42,
            "name": "F#2",
            "ticks": 178752,
            "time": 123.03956349999999,
            "velocity": 0.3858267716535433
          },
          {
            "duration": 0.06607925000000137,
            "durationTicks": 96,
            "midi": 40,
            "name": "E2",
            "ticks": 178944,
            "time": 123.17172199999999,
            "velocity": 0.3858267716535433
          },
          {
            "duration": 0.06607925000000137,
            "durationTicks": 96,
            "midi": 42,
            "name": "F#2",
            "ticks": 178944,
            "time": 123.17172199999999,
            "velocity": 0.3858267716535433
          },
          {
            "duration": 0.06607925000000137,
            "durationTicks": 96,
            "midi": 36,
            "name": "C2",
            "ticks": 178944,
            "time": 123.17172199999999,
            "velocity": 0.3858267716535433
          },
          {
            "duration": 0.06607924999998716,
            "durationTicks": 96,
            "midi": 42,
            "name": "F#2",
            "ticks": 179136,
            "time": 123.30388049999999,
            "velocity": 0.3858267716535433
          },
          {
            "duration": 0.06607925000000137,
            "durationTicks": 96,
            "midi": 42,
            "name": "F#2",
            "ticks": 179328,
            "time": 123.43603899999998,
            "velocity": 0.3858267716535433
          },
          {
            "duration": 0.06607925000000137,
            "durationTicks": 96,
            "midi": 46,
            "name": "A#2",
            "ticks": 179328,
            "time": 123.43603899999998,
            "velocity": 0.3858267716535433
          },
          {
            "duration": 0.06607925000000137,
            "durationTicks": 96,
            "midi": 42,
            "name": "F#2",
            "ticks": 179520,
            "time": 123.56819749999998,
            "velocity": 0.3858267716535433
          },
          {
            "duration": 0.06607925000000137,
            "durationTicks": 96,
            "midi": 36,
            "name": "C2",
            "ticks": 179712,
            "time": 123.70035599999999,
            "velocity": 0.3858267716535433
          },
          {
            "duration": 0.06607925000000137,
            "durationTicks": 96,
            "midi": 40,
            "name": "E2",
            "ticks": 179712,
            "time": 123.70035599999999,
            "velocity": 0.3858267716535433
          },
          {
            "duration": 0.06607925000000137,
            "durationTicks": 96,
            "midi": 42,
            "name": "F#2",
            "ticks": 179712,
            "time": 123.70035599999999,
            "velocity": 0.3858267716535433
          },
          {
            "duration": 0.06607925000000137,
            "durationTicks": 96,
            "midi": 42,
            "name": "F#2",
            "ticks": 179904,
            "time": 123.83251449999999,
            "velocity": 0.3858267716535433
          },
          {
            "duration": 0.06607925000000137,
            "durationTicks": 96,
            "midi": 46,
            "name": "A#2",
            "ticks": 180096,
            "time": 123.96467299999999,
            "velocity": 0.3858267716535433
          },
          {
            "duration": 0.06607925000000137,
            "durationTicks": 96,
            "midi": 40,
            "name": "E2",
            "ticks": 180096,
            "time": 123.96467299999999,
            "velocity": 0.3858267716535433
          },
          {
            "duration": 0.06607925000000137,
            "durationTicks": 96,
            "midi": 42,
            "name": "F#2",
            "ticks": 180096,
            "time": 123.96467299999999,
            "velocity": 0.3858267716535433
          },
          {
            "duration": 0.06607925000000137,
            "durationTicks": 96,
            "midi": 42,
            "name": "F#2",
            "ticks": 180288,
            "time": 124.09683149999998,
            "velocity": 0.3858267716535433
          },
          {
            "duration": 0.06607925000000137,
            "durationTicks": 96,
            "midi": 40,
            "name": "E2",
            "ticks": 180288,
            "time": 124.09683149999998,
            "velocity": 0.3858267716535433
          },
          {
            "duration": 0.06607925000000137,
            "durationTicks": 96,
            "midi": 42,
            "name": "F#2",
            "ticks": 180480,
            "time": 124.22898999999998,
            "velocity": 0.3858267716535433
          },
          {
            "duration": 0.06607925000000137,
            "durationTicks": 96,
            "midi": 36,
            "name": "C2",
            "ticks": 180480,
            "time": 124.22898999999998,
            "velocity": 0.3858267716535433
          },
          {
            "duration": 0.06607925000000137,
            "durationTicks": 96,
            "midi": 42,
            "name": "F#2",
            "ticks": 180672,
            "time": 124.36114849999998,
            "velocity": 0.3858267716535433
          },
          {
            "duration": 0.06607925000000137,
            "durationTicks": 96,
            "midi": 40,
            "name": "E2",
            "ticks": 180672,
            "time": 124.36114849999998,
            "velocity": 0.3858267716535433
          },
          {
            "duration": 0.06607925000000137,
            "durationTicks": 96,
            "midi": 40,
            "name": "E2",
            "ticks": 180864,
            "time": 124.49330699999999,
            "velocity": 0.3858267716535433
          },
          {
            "duration": 0.06607925000000137,
            "durationTicks": 96,
            "midi": 42,
            "name": "F#2",
            "ticks": 180864,
            "time": 124.49330699999999,
            "velocity": 0.3858267716535433
          },
          {
            "duration": 0.06607925000000137,
            "durationTicks": 96,
            "midi": 46,
            "name": "A#2",
            "ticks": 180864,
            "time": 124.49330699999999,
            "velocity": 0.3858267716535433
          },
          {
            "duration": 0.06607925000000137,
            "durationTicks": 96,
            "midi": 40,
            "name": "E2",
            "ticks": 181056,
            "time": 124.62546549999999,
            "velocity": 0.3858267716535433
          },
          {
            "duration": 0.06607925000000137,
            "durationTicks": 96,
            "midi": 42,
            "name": "F#2",
            "ticks": 181056,
            "time": 124.62546549999999,
            "velocity": 0.3858267716535433
          },
          {
            "duration": 0.06607925000000137,
            "durationTicks": 96,
            "midi": 42,
            "name": "F#2",
            "ticks": 181248,
            "time": 124.75762399999998,
            "velocity": 0.3858267716535433
          },
          {
            "duration": 0.06607925000000137,
            "durationTicks": 96,
            "midi": 36,
            "name": "C2",
            "ticks": 181248,
            "time": 124.75762399999998,
            "velocity": 0.3858267716535433
          },
          {
            "duration": 0.06607925000000137,
            "durationTicks": 96,
            "midi": 42,
            "name": "F#2",
            "ticks": 181440,
            "time": 124.88978249999998,
            "velocity": 0.3858267716535433
          },
          {
            "duration": 0.06607925000000137,
            "durationTicks": 96,
            "midi": 42,
            "name": "F#2",
            "ticks": 181632,
            "time": 125.02194099999998,
            "velocity": 0.3858267716535433
          },
          {
            "duration": 0.06607925000000137,
            "durationTicks": 96,
            "midi": 40,
            "name": "E2",
            "ticks": 181632,
            "time": 125.02194099999998,
            "velocity": 0.3858267716535433
          },
          {
            "duration": 0.06607925000000137,
            "durationTicks": 96,
            "midi": 46,
            "name": "A#2",
            "ticks": 181632,
            "time": 125.02194099999998,
            "velocity": 0.3858267716535433
          },
          {
            "duration": 0.06607925000000137,
            "durationTicks": 96,
            "midi": 42,
            "name": "F#2",
            "ticks": 181824,
            "time": 125.15409949999999,
            "velocity": 0.3858267716535433
          },
          {
            "duration": 0.06607925000000137,
            "durationTicks": 96,
            "midi": 40,
            "name": "E2",
            "ticks": 182016,
            "time": 125.28625799999999,
            "velocity": 0.3858267716535433
          },
          {
            "duration": 0.06607925000000137,
            "durationTicks": 96,
            "midi": 42,
            "name": "F#2",
            "ticks": 182016,
            "time": 125.28625799999999,
            "velocity": 0.3858267716535433
          },
          {
            "duration": 0.06607925000000137,
            "durationTicks": 96,
            "midi": 36,
            "name": "C2",
            "ticks": 182016,
            "time": 125.28625799999999,
            "velocity": 0.3858267716535433
          },
          {
            "duration": 0.06607924999998716,
            "durationTicks": 96,
            "midi": 42,
            "name": "F#2",
            "ticks": 182208,
            "time": 125.41841649999999,
            "velocity": 0.3858267716535433
          },
          {
            "duration": 0.06607925000000137,
            "durationTicks": 96,
            "midi": 42,
            "name": "F#2",
            "ticks": 182400,
            "time": 125.55057499999998,
            "velocity": 0.3858267716535433
          },
          {
            "duration": 0.06607925000000137,
            "durationTicks": 96,
            "midi": 46,
            "name": "A#2",
            "ticks": 182400,
            "time": 125.55057499999998,
            "velocity": 0.3858267716535433
          },
          {
            "duration": 0.06607925000000137,
            "durationTicks": 96,
            "midi": 42,
            "name": "F#2",
            "ticks": 182592,
            "time": 125.68273349999998,
            "velocity": 0.3858267716535433
          },
          {
            "duration": 0.06607925000000137,
            "durationTicks": 96,
            "midi": 42,
            "name": "F#2",
            "ticks": 182784,
            "time": 125.81489199999999,
            "velocity": 0.3858267716535433
          },
          {
            "duration": 0.06607925000000137,
            "durationTicks": 96,
            "midi": 40,
            "name": "E2",
            "ticks": 182784,
            "time": 125.81489199999999,
            "velocity": 0.3858267716535433
          },
          {
            "duration": 0.06607925000000137,
            "durationTicks": 96,
            "midi": 36,
            "name": "C2",
            "ticks": 182784,
            "time": 125.81489199999999,
            "velocity": 0.3858267716535433
          },
          {
            "duration": 0.06607925000000137,
            "durationTicks": 96,
            "midi": 42,
            "name": "F#2",
            "ticks": 182976,
            "time": 125.94705049999999,
            "velocity": 0.3858267716535433
          },
          {
            "duration": 0.06607924999998716,
            "durationTicks": 96,
            "midi": 40,
            "name": "E2",
            "ticks": 183168,
            "time": 126.07920899999999,
            "velocity": 0.3858267716535433
          },
          {
            "duration": 0.06607924999998716,
            "durationTicks": 96,
            "midi": 42,
            "name": "F#2",
            "ticks": 183168,
            "time": 126.07920899999999,
            "velocity": 0.3858267716535433
          },
          {
            "duration": 0.06607924999998716,
            "durationTicks": 96,
            "midi": 46,
            "name": "A#2",
            "ticks": 183168,
            "time": 126.07920899999999,
            "velocity": 0.3858267716535433
          },
          {
            "duration": 0.06607925000000137,
            "durationTicks": 96,
            "midi": 42,
            "name": "F#2",
            "ticks": 183360,
            "time": 126.21136749999998,
            "velocity": 0.3858267716535433
          },
          {
            "duration": 0.06607925000000137,
            "durationTicks": 96,
            "midi": 40,
            "name": "E2",
            "ticks": 183360,
            "time": 126.21136749999998,
            "velocity": 0.3858267716535433
          },
          {
            "duration": 0.06607925000000137,
            "durationTicks": 96,
            "midi": 36,
            "name": "C2",
            "ticks": 183552,
            "time": 126.34352599999998,
            "velocity": 0.3858267716535433
          },
          {
            "duration": 0.06607925000000137,
            "durationTicks": 96,
            "midi": 42,
            "name": "F#2",
            "ticks": 183552,
            "time": 126.34352599999998,
            "velocity": 0.3858267716535433
          },
          {
            "duration": 0.06607925000000137,
            "durationTicks": 96,
            "midi": 40,
            "name": "E2",
            "ticks": 183744,
            "time": 126.47568449999999,
            "velocity": 0.3858267716535433
          },
          {
            "duration": 0.06607925000000137,
            "durationTicks": 96,
            "midi": 42,
            "name": "F#2",
            "ticks": 183744,
            "time": 126.47568449999999,
            "velocity": 0.3858267716535433
          },
          {
            "duration": 0.06607925000000137,
            "durationTicks": 96,
            "midi": 40,
            "name": "E2",
            "ticks": 183936,
            "time": 126.60784299999999,
            "velocity": 0.3858267716535433
          },
          {
            "duration": 0.06607925000000137,
            "durationTicks": 96,
            "midi": 42,
            "name": "F#2",
            "ticks": 183936,
            "time": 126.60784299999999,
            "velocity": 0.3858267716535433
          },
          {
            "duration": 0.06607925000000137,
            "durationTicks": 96,
            "midi": 46,
            "name": "A#2",
            "ticks": 183936,
            "time": 126.60784299999999,
            "velocity": 0.3858267716535433
          },
          {
            "duration": 0.06607924999998716,
            "durationTicks": 96,
            "midi": 40,
            "name": "E2",
            "ticks": 184128,
            "time": 126.74000149999999,
            "velocity": 0.3858267716535433
          },
          {
            "duration": 0.06607924999998716,
            "durationTicks": 96,
            "midi": 42,
            "name": "F#2",
            "ticks": 184128,
            "time": 126.74000149999999,
            "velocity": 0.3858267716535433
          },
          {
            "duration": 0.06607925000000137,
            "durationTicks": 96,
            "midi": 36,
            "name": "C2",
            "ticks": 184320,
            "time": 126.87215999999998,
            "velocity": 0.3858267716535433
          },
          {
            "duration": 0.06607925000000137,
            "durationTicks": 96,
            "midi": 42,
            "name": "F#2",
            "ticks": 184320,
            "time": 126.87215999999998,
            "velocity": 0.3858267716535433
          },
          {
            "duration": 0.26431700000000546,
            "durationTicks": 384,
            "midi": 49,
            "name": "C#3",
            "ticks": 184320,
            "time": 126.87215999999998,
            "velocity": 0.3858267716535433
          },
          {
            "duration": 0.06607925000000137,
            "durationTicks": 96,
            "midi": 42,
            "name": "F#2",
            "ticks": 184512,
            "time": 127.00431849999998,
            "velocity": 0.3858267716535433
          },
          {
            "duration": 0.06607925000000137,
            "durationTicks": 96,
            "midi": 46,
            "name": "A#2",
            "ticks": 184704,
            "time": 127.13647699999999,
            "velocity": 0.3858267716535433
          },
          {
            "duration": 0.06607925000000137,
            "durationTicks": 96,
            "midi": 42,
            "name": "F#2",
            "ticks": 184704,
            "time": 127.13647699999999,
            "velocity": 0.3858267716535433
          },
          {
            "duration": 0.06607925000000137,
            "durationTicks": 96,
            "midi": 40,
            "name": "E2",
            "ticks": 184704,
            "time": 127.13647699999999,
            "velocity": 0.3858267716535433
          },
          {
            "duration": 0.06607925000000137,
            "durationTicks": 96,
            "midi": 42,
            "name": "F#2",
            "ticks": 184896,
            "time": 127.26863549999999,
            "velocity": 0.3858267716535433
          },
          {
            "duration": 0.06607925000000137,
            "durationTicks": 96,
            "midi": 42,
            "name": "F#2",
            "ticks": 185088,
            "time": 127.40079399999999,
            "velocity": 0.3858267716535433
          },
          {
            "duration": 0.06607925000000137,
            "durationTicks": 96,
            "midi": 40,
            "name": "E2",
            "ticks": 185088,
            "time": 127.40079399999999,
            "velocity": 0.3858267716535433
          },
          {
            "duration": 0.06607925000000137,
            "durationTicks": 96,
            "midi": 36,
            "name": "C2",
            "ticks": 185088,
            "time": 127.40079399999999,
            "velocity": 0.3858267716535433
          },
          {
            "duration": 0.06607925000000137,
            "durationTicks": 96,
            "midi": 42,
            "name": "F#2",
            "ticks": 185280,
            "time": 127.53295249999998,
            "velocity": 0.3858267716535433
          },
          {
            "duration": 0.06607925000000137,
            "durationTicks": 96,
            "midi": 42,
            "name": "F#2",
            "ticks": 185472,
            "time": 127.66511099999998,
            "velocity": 0.3858267716535433
          },
          {
            "duration": 0.06607925000000137,
            "durationTicks": 96,
            "midi": 46,
            "name": "A#2",
            "ticks": 185472,
            "time": 127.66511099999998,
            "velocity": 0.3858267716535433
          },
          {
            "duration": 0.06607925000000137,
            "durationTicks": 96,
            "midi": 42,
            "name": "F#2",
            "ticks": 185664,
            "time": 127.79726949999998,
            "velocity": 0.3858267716535433
          },
          {
            "duration": 0.06607925000000137,
            "durationTicks": 96,
            "midi": 42,
            "name": "F#2",
            "ticks": 185856,
            "time": 127.92942799999999,
            "velocity": 0.3858267716535433
          },
          {
            "duration": 0.06607925000000137,
            "durationTicks": 96,
            "midi": 40,
            "name": "E2",
            "ticks": 185856,
            "time": 127.92942799999999,
            "velocity": 0.3858267716535433
          },
          {
            "duration": 0.06607925000000137,
            "durationTicks": 96,
            "midi": 36,
            "name": "C2",
            "ticks": 185856,
            "time": 127.92942799999999,
            "velocity": 0.3858267716535433
          },
          {
            "duration": 0.06607925000000137,
            "durationTicks": 96,
            "midi": 42,
            "name": "F#2",
            "ticks": 186048,
            "time": 128.06158649999998,
            "velocity": 0.3858267716535433
          },
          {
            "duration": 0.06607925000000137,
            "durationTicks": 96,
            "midi": 40,
            "name": "E2",
            "ticks": 186240,
            "time": 128.19374499999998,
            "velocity": 0.3858267716535433
          },
          {
            "duration": 0.06607925000000137,
            "durationTicks": 96,
            "midi": 42,
            "name": "F#2",
            "ticks": 186240,
            "time": 128.19374499999998,
            "velocity": 0.3858267716535433
          },
          {
            "duration": 0.06607925000000137,
            "durationTicks": 96,
            "midi": 46,
            "name": "A#2",
            "ticks": 186240,
            "time": 128.19374499999998,
            "velocity": 0.3858267716535433
          },
          {
            "duration": 0.06607925000000137,
            "durationTicks": 96,
            "midi": 40,
            "name": "E2",
            "ticks": 186432,
            "time": 128.32590349999998,
            "velocity": 0.3858267716535433
          },
          {
            "duration": 0.06607925000000137,
            "durationTicks": 96,
            "midi": 42,
            "name": "F#2",
            "ticks": 186432,
            "time": 128.32590349999998,
            "velocity": 0.3858267716535433
          },
          {
            "duration": 0.06607925000000137,
            "durationTicks": 96,
            "midi": 36,
            "name": "C2",
            "ticks": 186624,
            "time": 128.45806199999998,
            "velocity": 0.3858267716535433
          },
          {
            "duration": 0.06607925000000137,
            "durationTicks": 96,
            "midi": 42,
            "name": "F#2",
            "ticks": 186624,
            "time": 128.45806199999998,
            "velocity": 0.3858267716535433
          },
          {
            "duration": 0.06607925000000137,
            "durationTicks": 96,
            "midi": 42,
            "name": "F#2",
            "ticks": 186816,
            "time": 128.5902205,
            "velocity": 0.3858267716535433
          },
          {
            "duration": 0.06607925000000137,
            "durationTicks": 96,
            "midi": 40,
            "name": "E2",
            "ticks": 186816,
            "time": 128.5902205,
            "velocity": 0.3858267716535433
          },
          {
            "duration": 0.06607925000000137,
            "durationTicks": 96,
            "midi": 46,
            "name": "A#2",
            "ticks": 187008,
            "time": 128.722379,
            "velocity": 0.3858267716535433
          },
          {
            "duration": 0.06607925000000137,
            "durationTicks": 96,
            "midi": 40,
            "name": "E2",
            "ticks": 187008,
            "time": 128.722379,
            "velocity": 0.3858267716535433
          },
          {
            "duration": 0.06607925000000137,
            "durationTicks": 96,
            "midi": 42,
            "name": "F#2",
            "ticks": 187008,
            "time": 128.722379,
            "velocity": 0.3858267716535433
          },
          {
            "duration": 0.06607925000000137,
            "durationTicks": 96,
            "midi": 42,
            "name": "F#2",
            "ticks": 187200,
            "time": 128.8545375,
            "velocity": 0.3858267716535433
          },
          {
            "duration": 0.06607925000000137,
            "durationTicks": 96,
            "midi": 40,
            "name": "E2",
            "ticks": 187200,
            "time": 128.8545375,
            "velocity": 0.3858267716535433
          },
          {
            "duration": 0.06607925000000137,
            "durationTicks": 96,
            "midi": 42,
            "name": "F#2",
            "ticks": 187392,
            "time": 128.986696,
            "velocity": 0.3858267716535433
          },
          {
            "duration": 0.06607925000000137,
            "durationTicks": 96,
            "midi": 36,
            "name": "C2",
            "ticks": 187392,
            "time": 128.986696,
            "velocity": 0.3858267716535433
          },
          {
            "duration": 0.06607924999997294,
            "durationTicks": 96,
            "midi": 42,
            "name": "F#2",
            "ticks": 187584,
            "time": 129.1188545,
            "velocity": 0.3858267716535433
          },
          {
            "duration": 0.06607925000000137,
            "durationTicks": 96,
            "midi": 46,
            "name": "A#2",
            "ticks": 187776,
            "time": 129.25101299999997,
            "velocity": 0.3858267716535433
          },
          {
            "duration": 0.06607925000000137,
            "durationTicks": 96,
            "midi": 40,
            "name": "E2",
            "ticks": 187776,
            "time": 129.25101299999997,
            "velocity": 0.3858267716535433
          },
          {
            "duration": 0.06607925000000137,
            "durationTicks": 96,
            "midi": 42,
            "name": "F#2",
            "ticks": 187776,
            "time": 129.25101299999997,
            "velocity": 0.3858267716535433
          },
          {
            "duration": 0.06607925000000137,
            "durationTicks": 96,
            "midi": 42,
            "name": "F#2",
            "ticks": 187968,
            "time": 129.38317149999997,
            "velocity": 0.3858267716535433
          },
          {
            "duration": 0.06607925000000137,
            "durationTicks": 96,
            "midi": 36,
            "name": "C2",
            "ticks": 188160,
            "time": 129.51532999999998,
            "velocity": 0.3858267716535433
          },
          {
            "duration": 0.06607925000000137,
            "durationTicks": 96,
            "midi": 40,
            "name": "E2",
            "ticks": 188160,
            "time": 129.51532999999998,
            "velocity": 0.3858267716535433
          },
          {
            "duration": 0.06607925000000137,
            "durationTicks": 96,
            "midi": 42,
            "name": "F#2",
            "ticks": 188160,
            "time": 129.51532999999998,
            "velocity": 0.3858267716535433
          },
          {
            "duration": 0.06607925000000137,
            "durationTicks": 96,
            "midi": 42,
            "name": "F#2",
            "ticks": 188352,
            "time": 129.64748849999998,
            "velocity": 0.3858267716535433
          },
          {
            "duration": 0.06607925000000137,
            "durationTicks": 96,
            "midi": 46,
            "name": "A#2",
            "ticks": 188544,
            "time": 129.77964699999998,
            "velocity": 0.3858267716535433
          },
          {
            "duration": 0.06607925000000137,
            "durationTicks": 96,
            "midi": 42,
            "name": "F#2",
            "ticks": 188544,
            "time": 129.77964699999998,
            "velocity": 0.3858267716535433
          },
          {
            "duration": 0.06607925000000137,
            "durationTicks": 96,
            "midi": 42,
            "name": "F#2",
            "ticks": 188736,
            "time": 129.91180549999999,
            "velocity": 0.3858267716535433
          },
          {
            "duration": 0.06607925000000137,
            "durationTicks": 96,
            "midi": 36,
            "name": "C2",
            "ticks": 188928,
            "time": 130.043964,
            "velocity": 0.3858267716535433
          },
          {
            "duration": 0.06607925000000137,
            "durationTicks": 96,
            "midi": 40,
            "name": "E2",
            "ticks": 188928,
            "time": 130.043964,
            "velocity": 0.3858267716535433
          },
          {
            "duration": 0.06607925000000137,
            "durationTicks": 96,
            "midi": 42,
            "name": "F#2",
            "ticks": 188928,
            "time": 130.043964,
            "velocity": 0.3858267716535433
          },
          {
            "duration": 0.06607925000000137,
            "durationTicks": 96,
            "midi": 42,
            "name": "F#2",
            "ticks": 189120,
            "time": 130.1761225,
            "velocity": 0.3858267716535433
          },
          {
            "duration": 0.06607925000000137,
            "durationTicks": 96,
            "midi": 46,
            "name": "A#2",
            "ticks": 189312,
            "time": 130.308281,
            "velocity": 0.3858267716535433
          },
          {
            "duration": 0.06607925000000137,
            "durationTicks": 96,
            "midi": 40,
            "name": "E2",
            "ticks": 189312,
            "time": 130.308281,
            "velocity": 0.3858267716535433
          },
          {
            "duration": 0.06607925000000137,
            "durationTicks": 96,
            "midi": 42,
            "name": "F#2",
            "ticks": 189312,
            "time": 130.308281,
            "velocity": 0.3858267716535433
          },
          {
            "duration": 0.06607925000000137,
            "durationTicks": 96,
            "midi": 40,
            "name": "E2",
            "ticks": 189504,
            "time": 130.4404395,
            "velocity": 0.3858267716535433
          },
          {
            "duration": 0.06607925000000137,
            "durationTicks": 96,
            "midi": 42,
            "name": "F#2",
            "ticks": 189504,
            "time": 130.4404395,
            "velocity": 0.3858267716535433
          },
          {
            "duration": 0.06607925000000137,
            "durationTicks": 96,
            "midi": 42,
            "name": "F#2",
            "ticks": 189696,
            "time": 130.57259799999997,
            "velocity": 0.3858267716535433
          },
          {
            "duration": 0.06607925000000137,
            "durationTicks": 96,
            "midi": 36,
            "name": "C2",
            "ticks": 189696,
            "time": 130.57259799999997,
            "velocity": 0.3858267716535433
          },
          {
            "duration": 0.06607925000000137,
            "durationTicks": 96,
            "midi": 40,
            "name": "E2",
            "ticks": 189888,
            "time": 130.70475649999997,
            "velocity": 0.3858267716535433
          },
          {
            "duration": 0.06607925000000137,
            "durationTicks": 96,
            "midi": 42,
            "name": "F#2",
            "ticks": 189888,
            "time": 130.70475649999997,
            "velocity": 0.3858267716535433
          },
          {
            "duration": 0.06607925000000137,
            "durationTicks": 96,
            "midi": 42,
            "name": "F#2",
            "ticks": 190080,
            "time": 130.83691499999998,
            "velocity": 0.3858267716535433
          },
          {
            "duration": 0.06607925000000137,
            "durationTicks": 96,
            "midi": 40,
            "name": "E2",
            "ticks": 190080,
            "time": 130.83691499999998,
            "velocity": 0.3858267716535433
          },
          {
            "duration": 0.06607925000000137,
            "durationTicks": 96,
            "midi": 46,
            "name": "A#2",
            "ticks": 190080,
            "time": 130.83691499999998,
            "velocity": 0.3858267716535433
          },
          {
            "duration": 0.06607925000000137,
            "durationTicks": 96,
            "midi": 40,
            "name": "E2",
            "ticks": 190272,
            "time": 130.96907349999998,
            "velocity": 0.3858267716535433
          },
          {
            "duration": 0.06607925000000137,
            "durationTicks": 96,
            "midi": 42,
            "name": "F#2",
            "ticks": 190272,
            "time": 130.96907349999998,
            "velocity": 0.3858267716535433
          },
          {
            "duration": 0.06607925000000137,
            "durationTicks": 96,
            "midi": 42,
            "name": "F#2",
            "ticks": 190464,
            "time": 131.10123199999998,
            "velocity": 0.3858267716535433
          },
          {
            "duration": 0.06607925000000137,
            "durationTicks": 96,
            "midi": 36,
            "name": "C2",
            "ticks": 190464,
            "time": 131.10123199999998,
            "velocity": 0.3858267716535433
          },
          {
            "duration": 0.06607925000000137,
            "durationTicks": 96,
            "midi": 42,
            "name": "F#2",
            "ticks": 190656,
            "time": 131.23339049999998,
            "velocity": 0.3858267716535433
          },
          {
            "duration": 0.06607925000000137,
            "durationTicks": 96,
            "midi": 46,
            "name": "A#2",
            "ticks": 190848,
            "time": 131.365549,
            "velocity": 0.3858267716535433
          },
          {
            "duration": 0.06607925000000137,
            "durationTicks": 96,
            "midi": 42,
            "name": "F#2",
            "ticks": 190848,
            "time": 131.365549,
            "velocity": 0.3858267716535433
          },
          {
            "duration": 0.06607925000000137,
            "durationTicks": 96,
            "midi": 40,
            "name": "E2",
            "ticks": 190848,
            "time": 131.365549,
            "velocity": 0.3858267716535433
          },
          {
            "duration": 0.06607925000000137,
            "durationTicks": 96,
            "midi": 42,
            "name": "F#2",
            "ticks": 191040,
            "time": 131.4977075,
            "velocity": 0.3858267716535433
          },
          {
            "duration": 0.06607925000000137,
            "durationTicks": 96,
            "midi": 42,
            "name": "F#2",
            "ticks": 191232,
            "time": 131.629866,
            "velocity": 0.3858267716535433
          },
          {
            "duration": 0.06607925000000137,
            "durationTicks": 96,
            "midi": 40,
            "name": "E2",
            "ticks": 191232,
            "time": 131.629866,
            "velocity": 0.3858267716535433
          },
          {
            "duration": 0.06607925000000137,
            "durationTicks": 96,
            "midi": 36,
            "name": "C2",
            "ticks": 191232,
            "time": 131.629866,
            "velocity": 0.3858267716535433
          },
          {
            "duration": 0.06607925000000137,
            "durationTicks": 96,
            "midi": 42,
            "name": "F#2",
            "ticks": 191424,
            "time": 131.7620245,
            "velocity": 0.3858267716535433
          },
          {
            "duration": 0.06607924999997294,
            "durationTicks": 96,
            "midi": 46,
            "name": "A#2",
            "ticks": 191616,
            "time": 131.894183,
            "velocity": 0.3858267716535433
          },
          {
            "duration": 0.06607924999997294,
            "durationTicks": 96,
            "midi": 42,
            "name": "F#2",
            "ticks": 191616,
            "time": 131.894183,
            "velocity": 0.3858267716535433
          },
          {
            "duration": 0.06607925000000137,
            "durationTicks": 96,
            "midi": 42,
            "name": "F#2",
            "ticks": 191808,
            "time": 132.02634149999997,
            "velocity": 0.3858267716535433
          },
          {
            "duration": 0.06607925000000137,
            "durationTicks": 96,
            "midi": 42,
            "name": "F#2",
            "ticks": 192000,
            "time": 132.15849999999998,
            "velocity": 0.3858267716535433
          },
          {
            "duration": 0.06607925000000137,
            "durationTicks": 96,
            "midi": 40,
            "name": "E2",
            "ticks": 192000,
            "time": 132.15849999999998,
            "velocity": 0.3858267716535433
          },
          {
            "duration": 0.06607925000000137,
            "durationTicks": 96,
            "midi": 36,
            "name": "C2",
            "ticks": 192000,
            "time": 132.15849999999998,
            "velocity": 0.3858267716535433
          },
          {
            "duration": 0.06607925000000137,
            "durationTicks": 96,
            "midi": 42,
            "name": "F#2",
            "ticks": 192192,
            "time": 132.29065849999998,
            "velocity": 0.3858267716535433
          },
          {
            "duration": 0.06607925000000137,
            "durationTicks": 96,
            "midi": 42,
            "name": "F#2",
            "ticks": 192384,
            "time": 132.42281699999998,
            "velocity": 0.3858267716535433
          },
          {
            "duration": 0.06607925000000137,
            "durationTicks": 96,
            "midi": 40,
            "name": "E2",
            "ticks": 192384,
            "time": 132.42281699999998,
            "velocity": 0.3858267716535433
          },
          {
            "duration": 0.06607925000000137,
            "durationTicks": 96,
            "midi": 46,
            "name": "A#2",
            "ticks": 192384,
            "time": 132.42281699999998,
            "velocity": 0.3858267716535433
          },
          {
            "duration": 0.06607925000000137,
            "durationTicks": 96,
            "midi": 40,
            "name": "E2",
            "ticks": 192576,
            "time": 132.55497549999998,
            "velocity": 0.3858267716535433
          },
          {
            "duration": 0.06607925000000137,
            "durationTicks": 96,
            "midi": 42,
            "name": "F#2",
            "ticks": 192576,
            "time": 132.55497549999998,
            "velocity": 0.3858267716535433
          },
          {
            "duration": 0.06607925000000137,
            "durationTicks": 96,
            "midi": 42,
            "name": "F#2",
            "ticks": 192768,
            "time": 132.687134,
            "velocity": 0.3858267716535433
          },
          {
            "duration": 0.06607925000000137,
            "durationTicks": 96,
            "midi": 36,
            "name": "C2",
            "ticks": 192768,
            "time": 132.687134,
            "velocity": 0.3858267716535433
          },
          {
            "duration": 0.06607925000000137,
            "durationTicks": 96,
            "midi": 40,
            "name": "E2",
            "ticks": 192960,
            "time": 132.8192925,
            "velocity": 0.3858267716535433
          },
          {
            "duration": 0.06607925000000137,
            "durationTicks": 96,
            "midi": 42,
            "name": "F#2",
            "ticks": 192960,
            "time": 132.8192925,
            "velocity": 0.3858267716535433
          },
          {
            "duration": 0.06607925000000137,
            "durationTicks": 96,
            "midi": 46,
            "name": "A#2",
            "ticks": 193152,
            "time": 132.951451,
            "velocity": 0.3858267716535433
          },
          {
            "duration": 0.06607925000000137,
            "durationTicks": 96,
            "midi": 40,
            "name": "E2",
            "ticks": 193152,
            "time": 132.951451,
            "velocity": 0.3858267716535433
          },
          {
            "duration": 0.06607925000000137,
            "durationTicks": 96,
            "midi": 42,
            "name": "F#2",
            "ticks": 193152,
            "time": 132.951451,
            "velocity": 0.3858267716535433
          },
          {
            "duration": 0.06607925000000137,
            "durationTicks": 96,
            "midi": 40,
            "name": "E2",
            "ticks": 193344,
            "time": 133.0836095,
            "velocity": 0.3858267716535433
          },
          {
            "duration": 0.06607925000000137,
            "durationTicks": 96,
            "midi": 42,
            "name": "F#2",
            "ticks": 193344,
            "time": 133.0836095,
            "velocity": 0.3858267716535433
          },
          {
            "duration": 0.06607924999997294,
            "durationTicks": 96,
            "midi": 42,
            "name": "F#2",
            "ticks": 193536,
            "time": 133.215768,
            "velocity": 0.3858267716535433
          },
          {
            "duration": 0.06607924999997294,
            "durationTicks": 96,
            "midi": 36,
            "name": "C2",
            "ticks": 193536,
            "time": 133.215768,
            "velocity": 0.3858267716535433
          },
          {
            "duration": 0.06607925000000137,
            "durationTicks": 96,
            "midi": 42,
            "name": "F#2",
            "ticks": 193728,
            "time": 133.34792649999997,
            "velocity": 0.3858267716535433
          },
          {
            "duration": 0.06607925000000137,
            "durationTicks": 96,
            "midi": 46,
            "name": "A#2",
            "ticks": 193920,
            "time": 133.48008499999997,
            "velocity": 0.3858267716535433
          },
          {
            "duration": 0.06607925000000137,
            "durationTicks": 96,
            "midi": 40,
            "name": "E2",
            "ticks": 193920,
            "time": 133.48008499999997,
            "velocity": 0.3858267716535433
          },
          {
            "duration": 0.06607925000000137,
            "durationTicks": 96,
            "midi": 42,
            "name": "F#2",
            "ticks": 193920,
            "time": 133.48008499999997,
            "velocity": 0.3858267716535433
          },
          {
            "duration": 0.06607925000000137,
            "durationTicks": 96,
            "midi": 42,
            "name": "F#2",
            "ticks": 194112,
            "time": 133.61224349999998,
            "velocity": 0.3858267716535433
          },
          {
            "duration": 0.06607925000000137,
            "durationTicks": 96,
            "midi": 36,
            "name": "C2",
            "ticks": 194304,
            "time": 133.74440199999998,
            "velocity": 0.3858267716535433
          },
          {
            "duration": 0.06607925000000137,
            "durationTicks": 96,
            "midi": 40,
            "name": "E2",
            "ticks": 194304,
            "time": 133.74440199999998,
            "velocity": 0.3858267716535433
          },
          {
            "duration": 0.06607925000000137,
            "durationTicks": 96,
            "midi": 42,
            "name": "F#2",
            "ticks": 194304,
            "time": 133.74440199999998,
            "velocity": 0.3858267716535433
          },
          {
            "duration": 0.06607925000000137,
            "durationTicks": 96,
            "midi": 42,
            "name": "F#2",
            "ticks": 194496,
            "time": 133.87656049999998,
            "velocity": 0.3858267716535433
          },
          {
            "duration": 0.06607925000000137,
            "durationTicks": 96,
            "midi": 42,
            "name": "F#2",
            "ticks": 194688,
            "time": 134.00871899999999,
            "velocity": 0.3858267716535433
          },
          {
            "duration": 0.06607925000000137,
            "durationTicks": 96,
            "midi": 46,
            "name": "A#2",
            "ticks": 194688,
            "time": 134.00871899999999,
            "velocity": 0.3858267716535433
          },
          {
            "duration": 0.06607925000000137,
            "durationTicks": 96,
            "midi": 42,
            "name": "F#2",
            "ticks": 194880,
            "time": 134.1408775,
            "velocity": 0.3858267716535433
          },
          {
            "duration": 0.06607925000000137,
            "durationTicks": 96,
            "midi": 42,
            "name": "F#2",
            "ticks": 195072,
            "time": 134.273036,
            "velocity": 0.3858267716535433
          },
          {
            "duration": 0.06607925000000137,
            "durationTicks": 96,
            "midi": 40,
            "name": "E2",
            "ticks": 195072,
            "time": 134.273036,
            "velocity": 0.3858267716535433
          },
          {
            "duration": 0.06607925000000137,
            "durationTicks": 96,
            "midi": 36,
            "name": "C2",
            "ticks": 195072,
            "time": 134.273036,
            "velocity": 0.3858267716535433
          },
          {
            "duration": 0.06607925000000137,
            "durationTicks": 96,
            "midi": 42,
            "name": "F#2",
            "ticks": 195264,
            "time": 134.4051945,
            "velocity": 0.3858267716535433
          },
          {
            "duration": 0.06607925000000137,
            "durationTicks": 96,
            "midi": 42,
            "name": "F#2",
            "ticks": 195456,
            "time": 134.537353,
            "velocity": 0.3858267716535433
          },
          {
            "duration": 0.06607925000000137,
            "durationTicks": 96,
            "midi": 46,
            "name": "A#2",
            "ticks": 195456,
            "time": 134.537353,
            "velocity": 0.3858267716535433
          },
          {
            "duration": 0.06607925000000137,
            "durationTicks": 96,
            "midi": 40,
            "name": "E2",
            "ticks": 195456,
            "time": 134.537353,
            "velocity": 0.3858267716535433
          },
          {
            "duration": 0.06607925000000137,
            "durationTicks": 96,
            "midi": 42,
            "name": "F#2",
            "ticks": 195648,
            "time": 134.66951149999997,
            "velocity": 0.3858267716535433
          },
          {
            "duration": 0.06607925000000137,
            "durationTicks": 96,
            "midi": 40,
            "name": "E2",
            "ticks": 195648,
            "time": 134.66951149999997,
            "velocity": 0.3858267716535433
          },
          {
            "duration": 0.06607925000000137,
            "durationTicks": 96,
            "midi": 36,
            "name": "C2",
            "ticks": 195840,
            "time": 134.80166999999997,
            "velocity": 0.3858267716535433
          },
          {
            "duration": 0.06607925000000137,
            "durationTicks": 96,
            "midi": 42,
            "name": "F#2",
            "ticks": 195840,
            "time": 134.80166999999997,
            "velocity": 0.3858267716535433
          },
          {
            "duration": 0.06607925000000137,
            "durationTicks": 96,
            "midi": 42,
            "name": "F#2",
            "ticks": 196032,
            "time": 134.93382849999998,
            "velocity": 0.3858267716535433
          },
          {
            "duration": 0.06607925000000137,
            "durationTicks": 96,
            "midi": 40,
            "name": "E2",
            "ticks": 196032,
            "time": 134.93382849999998,
            "velocity": 0.3858267716535433
          },
          {
            "duration": 0.06607925000000137,
            "durationTicks": 96,
            "midi": 46,
            "name": "A#2",
            "ticks": 196224,
            "time": 135.06598699999998,
            "velocity": 0.3858267716535433
          },
          {
            "duration": 0.06607925000000137,
            "durationTicks": 96,
            "midi": 42,
            "name": "F#2",
            "ticks": 196224,
            "time": 135.06598699999998,
            "velocity": 0.3858267716535433
          },
          {
            "duration": 0.06607925000000137,
            "durationTicks": 96,
            "midi": 40,
            "name": "E2",
            "ticks": 196224,
            "time": 135.06598699999998,
            "velocity": 0.3858267716535433
          },
          {
            "duration": 0.06607925000000137,
            "durationTicks": 96,
            "midi": 42,
            "name": "F#2",
            "ticks": 196416,
            "time": 135.19814549999998,
            "velocity": 0.3858267716535433
          },
          {
            "duration": 0.06607925000000137,
            "durationTicks": 96,
            "midi": 40,
            "name": "E2",
            "ticks": 196416,
            "time": 135.19814549999998,
            "velocity": 0.3858267716535433
          },
          {
            "duration": 0.06607925000000137,
            "durationTicks": 96,
            "midi": 42,
            "name": "F#2",
            "ticks": 196608,
            "time": 135.33030399999998,
            "velocity": 0.3858267716535433
          },
          {
            "duration": 0.06607925000000137,
            "durationTicks": 96,
            "midi": 36,
            "name": "C2",
            "ticks": 196608,
            "time": 135.33030399999998,
            "velocity": 0.3858267716535433
          },
          {
            "duration": 0.06607925000000137,
            "durationTicks": 96,
            "midi": 42,
            "name": "F#2",
            "ticks": 196800,
            "time": 135.4624625,
            "velocity": 0.3858267716535433
          },
          {
            "duration": 0.06607925000000137,
            "durationTicks": 96,
            "midi": 42,
            "name": "F#2",
            "ticks": 196992,
            "time": 135.594621,
            "velocity": 0.3858267716535433
          },
          {
            "duration": 0.06607925000000137,
            "durationTicks": 96,
            "midi": 46,
            "name": "A#2",
            "ticks": 196992,
            "time": 135.594621,
            "velocity": 0.3858267716535433
          },
          {
            "duration": 0.06607925000000137,
            "durationTicks": 96,
            "midi": 40,
            "name": "E2",
            "ticks": 196992,
            "time": 135.594621,
            "velocity": 0.3858267716535433
          },
          {
            "duration": 0.06607925000000137,
            "durationTicks": 96,
            "midi": 42,
            "name": "F#2",
            "ticks": 197184,
            "time": 135.7267795,
            "velocity": 0.3858267716535433
          },
          {
            "duration": 0.06607925000000137,
            "durationTicks": 96,
            "midi": 36,
            "name": "C2",
            "ticks": 197376,
            "time": 135.858938,
            "velocity": 0.3858267716535433
          },
          {
            "duration": 0.06607925000000137,
            "durationTicks": 96,
            "midi": 40,
            "name": "E2",
            "ticks": 197376,
            "time": 135.858938,
            "velocity": 0.3858267716535433
          },
          {
            "duration": 0.06607925000000137,
            "durationTicks": 96,
            "midi": 42,
            "name": "F#2",
            "ticks": 197376,
            "time": 135.858938,
            "velocity": 0.3858267716535433
          },
          {
            "duration": 0.06607924999997294,
            "durationTicks": 96,
            "midi": 42,
            "name": "F#2",
            "ticks": 197568,
            "time": 135.9910965,
            "velocity": 0.3858267716535433
          },
          {
            "duration": 0.06607925000000137,
            "durationTicks": 96,
            "midi": 46,
            "name": "A#2",
            "ticks": 197760,
            "time": 136.12325499999997,
            "velocity": 0.3858267716535433
          },
          {
            "duration": 0.06607925000000137,
            "durationTicks": 96,
            "midi": 42,
            "name": "F#2",
            "ticks": 197760,
            "time": 136.12325499999997,
            "velocity": 0.3858267716535433
          },
          {
            "duration": 0.06607925000000137,
            "durationTicks": 96,
            "midi": 42,
            "name": "F#2",
            "ticks": 197952,
            "time": 136.25541349999997,
            "velocity": 0.3858267716535433
          },
          {
            "duration": 0.06607925000000137,
            "durationTicks": 96,
            "midi": 36,
            "name": "C2",
            "ticks": 198144,
            "time": 136.38757199999998,
            "velocity": 0.3858267716535433
          },
          {
            "duration": 0.06607925000000137,
            "durationTicks": 96,
            "midi": 40,
            "name": "E2",
            "ticks": 198144,
            "time": 136.38757199999998,
            "velocity": 0.3858267716535433
          },
          {
            "duration": 0.06607925000000137,
            "durationTicks": 96,
            "midi": 42,
            "name": "F#2",
            "ticks": 198144,
            "time": 136.38757199999998,
            "velocity": 0.3858267716535433
          },
          {
            "duration": 0.06607925000000137,
            "durationTicks": 96,
            "midi": 42,
            "name": "F#2",
            "ticks": 198336,
            "time": 136.51973049999998,
            "velocity": 0.3858267716535433
          },
          {
            "duration": 0.06607925000000137,
            "durationTicks": 96,
            "midi": 42,
            "name": "F#2",
            "ticks": 198528,
            "time": 136.65188899999998,
            "velocity": 0.3858267716535433
          },
          {
            "duration": 0.06607925000000137,
            "durationTicks": 96,
            "midi": 46,
            "name": "A#2",
            "ticks": 198528,
            "time": 136.65188899999998,
            "velocity": 0.3858267716535433
          },
          {
            "duration": 0.06607925000000137,
            "durationTicks": 96,
            "midi": 40,
            "name": "E2",
            "ticks": 198528,
            "time": 136.65188899999998,
            "velocity": 0.3858267716535433
          },
          {
            "duration": 0.06607925000000137,
            "durationTicks": 96,
            "midi": 40,
            "name": "E2",
            "ticks": 198720,
            "time": 136.78404749999999,
            "velocity": 0.3858267716535433
          },
          {
            "duration": 0.06607925000000137,
            "durationTicks": 96,
            "midi": 42,
            "name": "F#2",
            "ticks": 198720,
            "time": 136.78404749999999,
            "velocity": 0.3858267716535433
          },
          {
            "duration": 0.06607925000000137,
            "durationTicks": 96,
            "midi": 42,
            "name": "F#2",
            "ticks": 198912,
            "time": 136.916206,
            "velocity": 0.3858267716535433
          },
          {
            "duration": 0.06607925000000137,
            "durationTicks": 96,
            "midi": 36,
            "name": "C2",
            "ticks": 198912,
            "time": 136.916206,
            "velocity": 0.3858267716535433
          },
          {
            "duration": 0.06607925000000137,
            "durationTicks": 96,
            "midi": 42,
            "name": "F#2",
            "ticks": 199104,
            "time": 137.0483645,
            "velocity": 0.3858267716535433
          },
          {
            "duration": 0.06607925000000137,
            "durationTicks": 96,
            "midi": 40,
            "name": "E2",
            "ticks": 199104,
            "time": 137.0483645,
            "velocity": 0.3858267716535433
          },
          {
            "duration": 0.06607925000000137,
            "durationTicks": 96,
            "midi": 40,
            "name": "E2",
            "ticks": 199296,
            "time": 137.180523,
            "velocity": 0.3858267716535433
          },
          {
            "duration": 0.06607925000000137,
            "durationTicks": 96,
            "midi": 42,
            "name": "F#2",
            "ticks": 199296,
            "time": 137.180523,
            "velocity": 0.3858267716535433
          },
          {
            "duration": 0.06607925000000137,
            "durationTicks": 96,
            "midi": 46,
            "name": "A#2",
            "ticks": 199296,
            "time": 137.180523,
            "velocity": 0.3858267716535433
          },
          {
            "duration": 0.06607925000000137,
            "durationTicks": 96,
            "midi": 42,
            "name": "F#2",
            "ticks": 199488,
            "time": 137.3126815,
            "velocity": 0.3858267716535433
          },
          {
            "duration": 0.06607925000000137,
            "durationTicks": 96,
            "midi": 40,
            "name": "E2",
            "ticks": 199488,
            "time": 137.3126815,
            "velocity": 0.3858267716535433
          },
          {
            "duration": 0.06607925000000137,
            "durationTicks": 96,
            "midi": 36,
            "name": "C2",
            "ticks": 199680,
            "time": 137.44483999999997,
            "velocity": 0.3858267716535433
          },
          {
            "duration": 0.06607925000000137,
            "durationTicks": 96,
            "midi": 42,
            "name": "F#2",
            "ticks": 199680,
            "time": 137.44483999999997,
            "velocity": 0.3858267716535433
          },
          {
            "duration": 0.06607925000000137,
            "durationTicks": 96,
            "midi": 42,
            "name": "F#2",
            "ticks": 199872,
            "time": 137.57699849999997,
            "velocity": 0.3858267716535433
          },
          {
            "duration": 0.06607925000000137,
            "durationTicks": 96,
            "midi": 42,
            "name": "F#2",
            "ticks": 200064,
            "time": 137.70915699999998,
            "velocity": 0.3858267716535433
          },
          {
            "duration": 0.06607925000000137,
            "durationTicks": 96,
            "midi": 40,
            "name": "E2",
            "ticks": 200064,
            "time": 137.70915699999998,
            "velocity": 0.3858267716535433
          },
          {
            "duration": 0.06607925000000137,
            "durationTicks": 96,
            "midi": 46,
            "name": "A#2",
            "ticks": 200064,
            "time": 137.70915699999998,
            "velocity": 0.3858267716535433
          },
          {
            "duration": 0.06607925000000137,
            "durationTicks": 96,
            "midi": 42,
            "name": "F#2",
            "ticks": 200256,
            "time": 137.84131549999998,
            "velocity": 0.3858267716535433
          },
          {
            "duration": 0.06607925000000137,
            "durationTicks": 96,
            "midi": 36,
            "name": "C2",
            "ticks": 200448,
            "time": 137.97347399999998,
            "velocity": 0.3858267716535433
          },
          {
            "duration": 0.06607925000000137,
            "durationTicks": 96,
            "midi": 40,
            "name": "E2",
            "ticks": 200448,
            "time": 137.97347399999998,
            "velocity": 0.3858267716535433
          },
          {
            "duration": 0.06607925000000137,
            "durationTicks": 96,
            "midi": 42,
            "name": "F#2",
            "ticks": 200448,
            "time": 137.97347399999998,
            "velocity": 0.3858267716535433
          },
          {
            "duration": 0.06607925000000137,
            "durationTicks": 96,
            "midi": 42,
            "name": "F#2",
            "ticks": 200640,
            "time": 138.10563249999998,
            "velocity": 0.3858267716535433
          },
          {
            "duration": 0.06607925000000137,
            "durationTicks": 96,
            "midi": 42,
            "name": "F#2",
            "ticks": 200832,
            "time": 138.237791,
            "velocity": 0.3858267716535433
          },
          {
            "duration": 0.06607925000000137,
            "durationTicks": 96,
            "midi": 46,
            "name": "A#2",
            "ticks": 200832,
            "time": 138.237791,
            "velocity": 0.3858267716535433
          },
          {
            "duration": 0.06607925000000137,
            "durationTicks": 96,
            "midi": 42,
            "name": "F#2",
            "ticks": 201024,
            "time": 138.3699495,
            "velocity": 0.3858267716535433
          },
          {
            "duration": 0.06607925000000137,
            "durationTicks": 96,
            "midi": 42,
            "name": "F#2",
            "ticks": 201216,
            "time": 138.502108,
            "velocity": 0.3858267716535433
          },
          {
            "duration": 0.06607925000000137,
            "durationTicks": 96,
            "midi": 40,
            "name": "E2",
            "ticks": 201216,
            "time": 138.502108,
            "velocity": 0.3858267716535433
          },
          {
            "duration": 0.06607925000000137,
            "durationTicks": 96,
            "midi": 36,
            "name": "C2",
            "ticks": 201216,
            "time": 138.502108,
            "velocity": 0.3858267716535433
          },
          {
            "duration": 0.06607925000000137,
            "durationTicks": 96,
            "midi": 42,
            "name": "F#2",
            "ticks": 201408,
            "time": 138.6342665,
            "velocity": 0.3858267716535433
          },
          {
            "duration": 0.06607925000000137,
            "durationTicks": 96,
            "midi": 40,
            "name": "E2",
            "ticks": 201600,
            "time": 138.76642499999997,
            "velocity": 0.3858267716535433
          },
          {
            "duration": 0.06607925000000137,
            "durationTicks": 96,
            "midi": 42,
            "name": "F#2",
            "ticks": 201600,
            "time": 138.76642499999997,
            "velocity": 0.3858267716535433
          },
          {
            "duration": 0.06607925000000137,
            "durationTicks": 96,
            "midi": 46,
            "name": "A#2",
            "ticks": 201600,
            "time": 138.76642499999997,
            "velocity": 0.3858267716535433
          },
          {
            "duration": 0.06607925000000137,
            "durationTicks": 96,
            "midi": 40,
            "name": "E2",
            "ticks": 201792,
            "time": 138.89858349999997,
            "velocity": 0.3858267716535433
          },
          {
            "duration": 0.06607925000000137,
            "durationTicks": 96,
            "midi": 42,
            "name": "F#2",
            "ticks": 201792,
            "time": 138.89858349999997,
            "velocity": 0.3858267716535433
          },
          {
            "duration": 0.06607925000000137,
            "durationTicks": 96,
            "midi": 42,
            "name": "F#2",
            "ticks": 201984,
            "time": 139.03074199999998,
            "velocity": 0.3858267716535433
          },
          {
            "duration": 0.06607925000000137,
            "durationTicks": 96,
            "midi": 36,
            "name": "C2",
            "ticks": 201984,
            "time": 139.03074199999998,
            "velocity": 0.3858267716535433
          },
          {
            "duration": 0.06607925000000137,
            "durationTicks": 96,
            "midi": 42,
            "name": "F#2",
            "ticks": 202176,
            "time": 139.16290049999998,
            "velocity": 0.3858267716535433
          },
          {
            "duration": 0.06607925000000137,
            "durationTicks": 96,
            "midi": 40,
            "name": "E2",
            "ticks": 202176,
            "time": 139.16290049999998,
            "velocity": 0.3858267716535433
          },
          {
            "duration": 0.06607925000000137,
            "durationTicks": 96,
            "midi": 46,
            "name": "A#2",
            "ticks": 202368,
            "time": 139.29505899999998,
            "velocity": 0.3858267716535433
          },
          {
            "duration": 0.06607925000000137,
            "durationTicks": 96,
            "midi": 42,
            "name": "F#2",
            "ticks": 202368,
            "time": 139.29505899999998,
            "velocity": 0.3858267716535433
          },
          {
            "duration": 0.06607925000000137,
            "durationTicks": 96,
            "midi": 40,
            "name": "E2",
            "ticks": 202368,
            "time": 139.29505899999998,
            "velocity": 0.3858267716535433
          },
          {
            "duration": 0.06607925000000137,
            "durationTicks": 96,
            "midi": 40,
            "name": "E2",
            "ticks": 202560,
            "time": 139.42721749999998,
            "velocity": 0.3858267716535433
          },
          {
            "duration": 0.06607925000000137,
            "durationTicks": 96,
            "midi": 42,
            "name": "F#2",
            "ticks": 202560,
            "time": 139.42721749999998,
            "velocity": 0.3858267716535433
          },
          {
            "duration": 0.06607925000000137,
            "durationTicks": 96,
            "midi": 42,
            "name": "F#2",
            "ticks": 202752,
            "time": 139.559376,
            "velocity": 0.3858267716535433
          },
          {
            "duration": 0.06607925000000137,
            "durationTicks": 96,
            "midi": 36,
            "name": "C2",
            "ticks": 202752,
            "time": 139.559376,
            "velocity": 0.3858267716535433
          },
          {
            "duration": 0.06607925000000137,
            "durationTicks": 96,
            "midi": 42,
            "name": "F#2",
            "ticks": 202944,
            "time": 139.6915345,
            "velocity": 0.3858267716535433
          },
          {
            "duration": 0.06607925000000137,
            "durationTicks": 96,
            "midi": 42,
            "name": "F#2",
            "ticks": 203136,
            "time": 139.823693,
            "velocity": 0.3858267716535433
          },
          {
            "duration": 0.06607925000000137,
            "durationTicks": 96,
            "midi": 40,
            "name": "E2",
            "ticks": 203136,
            "time": 139.823693,
            "velocity": 0.3858267716535433
          },
          {
            "duration": 0.06607925000000137,
            "durationTicks": 96,
            "midi": 46,
            "name": "A#2",
            "ticks": 203136,
            "time": 139.823693,
            "velocity": 0.3858267716535433
          },
          {
            "duration": 0.06607925000000137,
            "durationTicks": 96,
            "midi": 42,
            "name": "F#2",
            "ticks": 203328,
            "time": 139.9558515,
            "velocity": 0.3858267716535433
          },
          {
            "duration": 0.06607924999997294,
            "durationTicks": 96,
            "midi": 36,
            "name": "C2",
            "ticks": 203520,
            "time": 140.08801,
            "velocity": 0.3858267716535433
          },
          {
            "duration": 0.06607924999997294,
            "durationTicks": 96,
            "midi": 40,
            "name": "E2",
            "ticks": 203520,
            "time": 140.08801,
            "velocity": 0.3858267716535433
          },
          {
            "duration": 0.06607924999997294,
            "durationTicks": 96,
            "midi": 42,
            "name": "F#2",
            "ticks": 203520,
            "time": 140.08801,
            "velocity": 0.3858267716535433
          },
          {
            "duration": 0.06607925000000137,
            "durationTicks": 96,
            "midi": 42,
            "name": "F#2",
            "ticks": 203712,
            "time": 140.22016849999997,
            "velocity": 0.3858267716535433
          },
          {
            "duration": 0.06607925000000137,
            "durationTicks": 96,
            "midi": 42,
            "name": "F#2",
            "ticks": 203904,
            "time": 140.35232699999997,
            "velocity": 0.3858267716535433
          },
          {
            "duration": 0.06607925000000137,
            "durationTicks": 96,
            "midi": 46,
            "name": "A#2",
            "ticks": 203904,
            "time": 140.35232699999997,
            "velocity": 0.3858267716535433
          },
          {
            "duration": 0.06607925000000137,
            "durationTicks": 96,
            "midi": 42,
            "name": "F#2",
            "ticks": 204096,
            "time": 140.48448549999998,
            "velocity": 0.3858267716535433
          },
          {
            "duration": 0.06607925000000137,
            "durationTicks": 96,
            "midi": 36,
            "name": "C2",
            "ticks": 204288,
            "time": 140.61664399999998,
            "velocity": 0.3858267716535433
          },
          {
            "duration": 0.06607925000000137,
            "durationTicks": 96,
            "midi": 40,
            "name": "E2",
            "ticks": 204288,
            "time": 140.61664399999998,
            "velocity": 0.3858267716535433
          },
          {
            "duration": 0.06607925000000137,
            "durationTicks": 96,
            "midi": 42,
            "name": "F#2",
            "ticks": 204288,
            "time": 140.61664399999998,
            "velocity": 0.3858267716535433
          },
          {
            "duration": 0.06607925000000137,
            "durationTicks": 96,
            "midi": 42,
            "name": "F#2",
            "ticks": 204480,
            "time": 140.74880249999998,
            "velocity": 0.3858267716535433
          },
          {
            "duration": 0.06607925000000137,
            "durationTicks": 96,
            "midi": 42,
            "name": "F#2",
            "ticks": 204672,
            "time": 140.88096099999999,
            "velocity": 0.3858267716535433
          },
          {
            "duration": 0.06607925000000137,
            "durationTicks": 96,
            "midi": 40,
            "name": "E2",
            "ticks": 204672,
            "time": 140.88096099999999,
            "velocity": 0.3858267716535433
          },
          {
            "duration": 0.06607925000000137,
            "durationTicks": 96,
            "midi": 46,
            "name": "A#2",
            "ticks": 204672,
            "time": 140.88096099999999,
            "velocity": 0.3858267716535433
          },
          {
            "duration": 0.06607925000000137,
            "durationTicks": 96,
            "midi": 42,
            "name": "F#2",
            "ticks": 204864,
            "time": 141.0131195,
            "velocity": 0.3858267716535433
          },
          {
            "duration": 0.06607925000000137,
            "durationTicks": 96,
            "midi": 40,
            "name": "E2",
            "ticks": 204864,
            "time": 141.0131195,
            "velocity": 0.3858267716535433
          },
          {
            "duration": 0.06607925000000137,
            "durationTicks": 96,
            "midi": 36,
            "name": "C2",
            "ticks": 205056,
            "time": 141.145278,
            "velocity": 0.3858267716535433
          },
          {
            "duration": 0.06607925000000137,
            "durationTicks": 96,
            "midi": 42,
            "name": "F#2",
            "ticks": 205056,
            "time": 141.145278,
            "velocity": 0.3858267716535433
          },
          {
            "duration": 0.06607925000000137,
            "durationTicks": 96,
            "midi": 42,
            "name": "F#2",
            "ticks": 205248,
            "time": 141.2774365,
            "velocity": 0.3858267716535433
          },
          {
            "duration": 0.06607925000000137,
            "durationTicks": 96,
            "midi": 40,
            "name": "E2",
            "ticks": 205248,
            "time": 141.2774365,
            "velocity": 0.3858267716535433
          },
          {
            "duration": 0.06607925000000137,
            "durationTicks": 96,
            "midi": 40,
            "name": "E2",
            "ticks": 205440,
            "time": 141.409595,
            "velocity": 0.3858267716535433
          },
          {
            "duration": 0.06607925000000137,
            "durationTicks": 96,
            "midi": 42,
            "name": "F#2",
            "ticks": 205440,
            "time": 141.409595,
            "velocity": 0.3858267716535433
          },
          {
            "duration": 0.06607925000000137,
            "durationTicks": 96,
            "midi": 46,
            "name": "A#2",
            "ticks": 205440,
            "time": 141.409595,
            "velocity": 0.3858267716535433
          },
          {
            "duration": 0.06607925000000137,
            "durationTicks": 96,
            "midi": 40,
            "name": "E2",
            "ticks": 205632,
            "time": 141.54175349999997,
            "velocity": 0.3858267716535433
          },
          {
            "duration": 0.06607925000000137,
            "durationTicks": 96,
            "midi": 42,
            "name": "F#2",
            "ticks": 205632,
            "time": 141.54175349999997,
            "velocity": 0.3858267716535433
          },
          {
            "duration": 0.06607925000000137,
            "durationTicks": 96,
            "midi": 36,
            "name": "C2",
            "ticks": 205824,
            "time": 141.67391199999997,
            "velocity": 0.3858267716535433
          },
          {
            "duration": 0.06607925000000137,
            "durationTicks": 96,
            "midi": 42,
            "name": "F#2",
            "ticks": 205824,
            "time": 141.67391199999997,
            "velocity": 0.3858267716535433
          },
          {
            "duration": 0.06607925000000137,
            "durationTicks": 96,
            "midi": 42,
            "name": "F#2",
            "ticks": 206016,
            "time": 141.80607049999998,
            "velocity": 0.3858267716535433
          },
          {
            "duration": 0.06607925000000137,
            "durationTicks": 96,
            "midi": 40,
            "name": "E2",
            "ticks": 206208,
            "time": 141.93822899999998,
            "velocity": 0.3858267716535433
          },
          {
            "duration": 0.06607925000000137,
            "durationTicks": 96,
            "midi": 46,
            "name": "A#2",
            "ticks": 206208,
            "time": 141.93822899999998,
            "velocity": 0.3858267716535433
          },
          {
            "duration": 0.06607925000000137,
            "durationTicks": 96,
            "midi": 42,
            "name": "F#2",
            "ticks": 206208,
            "time": 141.93822899999998,
            "velocity": 0.3858267716535433
          },
          {
            "duration": 0.06607925000000137,
            "durationTicks": 96,
            "midi": 42,
            "name": "F#2",
            "ticks": 206400,
            "time": 142.07038749999998,
            "velocity": 0.3858267716535433
          },
          {
            "duration": 0.06607925000000137,
            "durationTicks": 96,
            "midi": 40,
            "name": "E2",
            "ticks": 206592,
            "time": 142.20254599999998,
            "velocity": 0.3858267716535433
          },
          {
            "duration": 0.06607925000000137,
            "durationTicks": 96,
            "midi": 36,
            "name": "C2",
            "ticks": 206592,
            "time": 142.20254599999998,
            "velocity": 0.3858267716535433
          },
          {
            "duration": 0.06607925000000137,
            "durationTicks": 96,
            "midi": 42,
            "name": "F#2",
            "ticks": 206592,
            "time": 142.20254599999998,
            "velocity": 0.3858267716535433
          },
          {
            "duration": 0.06607925000000137,
            "durationTicks": 96,
            "midi": 42,
            "name": "F#2",
            "ticks": 206784,
            "time": 142.3347045,
            "velocity": 0.3858267716535433
          },
          {
            "duration": 0.06607925000000137,
            "durationTicks": 96,
            "midi": 42,
            "name": "F#2",
            "ticks": 206976,
            "time": 142.466863,
            "velocity": 0.3858267716535433
          },
          {
            "duration": 0.06607925000000137,
            "durationTicks": 96,
            "midi": 46,
            "name": "A#2",
            "ticks": 206976,
            "time": 142.466863,
            "velocity": 0.3858267716535433
          },
          {
            "duration": 0.06607925000000137,
            "durationTicks": 96,
            "midi": 42,
            "name": "F#2",
            "ticks": 207168,
            "time": 142.5990215,
            "velocity": 0.3858267716535433
          },
          {
            "duration": 0.06607925000000137,
            "durationTicks": 96,
            "midi": 40,
            "name": "E2",
            "ticks": 207360,
            "time": 142.73118,
            "velocity": 0.3858267716535433
          },
          {
            "duration": 0.06607925000000137,
            "durationTicks": 96,
            "midi": 36,
            "name": "C2",
            "ticks": 207360,
            "time": 142.73118,
            "velocity": 0.3858267716535433
          },
          {
            "duration": 0.06607925000000137,
            "durationTicks": 96,
            "midi": 42,
            "name": "F#2",
            "ticks": 207360,
            "time": 142.73118,
            "velocity": 0.3858267716535433
          },
          {
            "duration": 0.06607925000000137,
            "durationTicks": 96,
            "midi": 36,
            "name": "C2",
            "ticks": 207936,
            "time": 143.12765549999997,
            "velocity": 0.30708661417322836
          },
          {
            "duration": 0.06607925000000137,
            "durationTicks": 96,
            "midi": 42,
            "name": "F#2",
            "ticks": 207936,
            "time": 143.12765549999997,
            "velocity": 0.30708661417322836
          },
          {
            "duration": 0.06607925000000137,
            "durationTicks": 96,
            "midi": 42,
            "name": "F#2",
            "ticks": 208512,
            "time": 143.52413099999998,
            "velocity": 0.30708661417322836
          },
          {
            "duration": 0.06607925000000137,
            "durationTicks": 96,
            "midi": 40,
            "name": "E2",
            "ticks": 208512,
            "time": 143.52413099999998,
            "velocity": 0.30708661417322836
          },
          {
            "duration": 0.06607925000000137,
            "durationTicks": 96,
            "midi": 42,
            "name": "F#2",
            "ticks": 209088,
            "time": 143.9206065,
            "velocity": 0.30708661417322836
          },
          {
            "duration": 0.06607925000000137,
            "durationTicks": 96,
            "midi": 36,
            "name": "C2",
            "ticks": 209088,
            "time": 143.9206065,
            "velocity": 0.30708661417322836
          },
          {
            "duration": 0.06607925000000137,
            "durationTicks": 96,
            "midi": 57,
            "name": "A3",
            "ticks": 209664,
            "time": 144.31708199999997,
            "velocity": 0.30708661417322836
          }
        ],
        "endOfTrackTicks": 209760
      },
      {
        "channel": 3,
        "controlChanges": {},
        "pitchBends": [],
        "instrument": {
          "family": "guitar",
          "number": 30,
          "name": "distortion guitar"
        },
        "name": "Distortion Guitar",
        "notes": [
          {
            "duration": 0.06607925000000137,
            "durationTicks": 96,
            "midi": 72,
            "name": "C5",
            "ticks": 61440,
            "time": 42.29071999999999,
            "velocity": 0.6929133858267716
          },
          {
            "duration": 0.06607925000000137,
            "durationTicks": 96,
            "midi": 73,
            "name": "C#5",
            "ticks": 61536,
            "time": 42.356799249999995,
            "velocity": 0.6929133858267716
          },
          {
            "duration": 1.9823774999999983,
            "durationTicks": 2880,
            "midi": 74,
            "name": "D5",
            "ticks": 61632,
            "time": 42.422878499999996,
            "velocity": 0.6929133858267716
          },
          {
            "duration": 1.5859019999999973,
            "durationTicks": 2304,
            "midi": 72,
            "name": "C5",
            "ticks": 64512,
            "time": 44.405255999999994,
            "velocity": 0.6929133858267716
          },
          {
            "duration": 0.26431700000000546,
            "durationTicks": 384,
            "midi": 69,
            "name": "A4",
            "ticks": 66816,
            "time": 45.99115799999999,
            "velocity": 0.6929133858267716
          },
          {
            "duration": 0.26431699999999836,
            "durationTicks": 384,
            "midi": 70,
            "name": "A#4",
            "ticks": 67200,
            "time": 46.255475,
            "velocity": 0.6929133858267716
          },
          {
            "duration": 0.7929510000000022,
            "durationTicks": 1152,
            "midi": 69,
            "name": "A4",
            "ticks": 67584,
            "time": 46.519791999999995,
            "velocity": 0.6929133858267716
          },
          {
            "duration": 0.26431699999999836,
            "durationTicks": 384,
            "midi": 70,
            "name": "A#4",
            "ticks": 68736,
            "time": 47.312743,
            "velocity": 0.6929133858267716
          },
          {
            "duration": 0.26431699999999836,
            "durationTicks": 384,
            "midi": 69,
            "name": "A4",
            "ticks": 69120,
            "time": 47.577059999999996,
            "velocity": 0.6929133858267716
          },
          {
            "duration": 0.26431699999999836,
            "durationTicks": 384,
            "midi": 62,
            "name": "D4",
            "ticks": 69504,
            "time": 47.841376999999994,
            "velocity": 0.6929133858267716
          },
          {
            "duration": 0.26431699999999836,
            "durationTicks": 384,
            "midi": 64,
            "name": "E4",
            "ticks": 69888,
            "time": 48.10569399999999,
            "velocity": 0.6929133858267716
          },
          {
            "duration": 0.26431700000000546,
            "durationTicks": 384,
            "midi": 65,
            "name": "F4",
            "ticks": 70272,
            "time": 48.37001099999999,
            "velocity": 0.6929133858267716
          },
          {
            "duration": 0.26431699999999836,
            "durationTicks": 384,
            "midi": 67,
            "name": "G4",
            "ticks": 70656,
            "time": 48.634328,
            "velocity": 0.6929133858267716
          },
          {
            "duration": 0.26431699999999836,
            "durationTicks": 384,
            "midi": 65,
            "name": "F4",
            "ticks": 71040,
            "time": 48.898644999999995,
            "velocity": 0.6929133858267716
          },
          {
            "duration": 0.26431699999999836,
            "durationTicks": 384,
            "midi": 64,
            "name": "E4",
            "ticks": 71424,
            "time": 49.16296199999999,
            "velocity": 0.6929133858267716
          },
          {
            "duration": 0.26431700000000546,
            "durationTicks": 384,
            "midi": 62,
            "name": "D4",
            "ticks": 71808,
            "time": 49.42727899999999,
            "velocity": 0.6929133858267716
          },
          {
            "duration": 0.06607924999999426,
            "durationTicks": 96,
            "midi": 70,
            "name": "A#4",
            "ticks": 72192,
            "time": 49.691596,
            "velocity": 0.6929133858267716
          },
          {
            "duration": 0.06607925000000137,
            "durationTicks": 96,
            "midi": 71,
            "name": "B4",
            "ticks": 72288,
            "time": 49.75767524999999,
            "velocity": 0.6929133858267716
          },
          {
            "duration": 0.6607924999999994,
            "durationTicks": 960,
            "midi": 72,
            "name": "C5",
            "ticks": 72384,
            "time": 49.82375449999999,
            "velocity": 0.6929133858267716
          },
          {
            "duration": 0.26431700000000546,
            "durationTicks": 384,
            "midi": 70,
            "name": "A#4",
            "ticks": 73344,
            "time": 50.48454699999999,
            "velocity": 0.6929133858267716
          },
          {
            "duration": 2.114535999999994,
            "durationTicks": 3072,
            "midi": 69,
            "name": "A4",
            "ticks": 73728,
            "time": 50.748864,
            "velocity": 0.6929133858267716
          },
          {
            "duration": 1.8502190000000027,
            "durationTicks": 2688,
            "midi": 65,
            "name": "F4",
            "ticks": 79872,
            "time": 54.97793599999999,
            "velocity": 0.6929133858267716
          },
          {
            "duration": 0.26431699999999836,
            "durationTicks": 384,
            "midi": 67,
            "name": "G4",
            "ticks": 82560,
            "time": 56.828154999999995,
            "velocity": 0.6929133858267716
          },
          {
            "duration": 0.26431699999999836,
            "durationTicks": 384,
            "midi": 69,
            "name": "A4",
            "ticks": 82944,
            "time": 57.092471999999994,
            "velocity": 0.6929133858267716
          },
          {
            "duration": 0.26431699999999836,
            "durationTicks": 384,
            "midi": 70,
            "name": "A#4",
            "ticks": 83328,
            "time": 57.35678899999999,
            "velocity": 0.6929133858267716
          },
          {
            "duration": 0.26431700000000546,
            "durationTicks": 384,
            "midi": 69,
            "name": "A4",
            "ticks": 83712,
            "time": 57.62110599999999,
            "velocity": 0.6929133858267716
          },
          {
            "duration": 0.26431699999999836,
            "durationTicks": 384,
            "midi": 67,
            "name": "G4",
            "ticks": 84096,
            "time": 57.885422999999996,
            "velocity": 0.6929133858267716
          },
          {
            "duration": 0.9251094999999978,
            "durationTicks": 1344,
            "midi": 69,
            "name": "A4",
            "ticks": 84480,
            "time": 58.149739999999994,
            "velocity": 0.6929133858267716
          },
          {
            "duration": 0.06607925000000137,
            "durationTicks": 96,
            "midi": 70,
            "name": "A#4",
            "ticks": 85824,
            "time": 59.07484949999999,
            "velocity": 0.6929133858267716
          },
          {
            "duration": 0.06607925000000137,
            "durationTicks": 96,
            "midi": 71,
            "name": "B4",
            "ticks": 85920,
            "time": 59.14092874999999,
            "velocity": 0.6929133858267716
          },
          {
            "duration": 0.06607925000000137,
            "durationTicks": 96,
            "midi": 72,
            "name": "C5",
            "ticks": 86016,
            "time": 59.207007999999995,
            "velocity": 0.6929133858267716
          },
          {
            "duration": 0.06607924999999426,
            "durationTicks": 96,
            "midi": 73,
            "name": "C#5",
            "ticks": 86112,
            "time": 59.273087249999996,
            "velocity": 0.6929133858267716
          },
          {
            "duration": 1.9823775000000055,
            "durationTicks": 2880,
            "midi": 74,
            "name": "D5",
            "ticks": 86208,
            "time": 59.33916649999999,
            "velocity": 0.6929133858267716
          },
          {
            "duration": 2.114535999999994,
            "durationTicks": 3072,
            "midi": 72,
            "name": "C5",
            "ticks": 89088,
            "time": 61.321543999999996,
            "velocity": 0.6929133858267716
          },
          {
            "duration": 0.26431700000000546,
            "durationTicks": 384,
            "midi": 79,
            "name": "G5",
            "ticks": 92160,
            "time": 63.43607999999999,
            "velocity": 0.6929133858267716
          },
          {
            "duration": 0.26431699999999836,
            "durationTicks": 384,
            "midi": 77,
            "name": "F5",
            "ticks": 92544,
            "time": 63.700396999999995,
            "velocity": 0.6929133858267716
          },
          {
            "duration": 0.26431699999999836,
            "durationTicks": 384,
            "midi": 76,
            "name": "E5",
            "ticks": 92928,
            "time": 63.964713999999994,
            "velocity": 0.6929133858267716
          },
          {
            "duration": 0.26431700000000546,
            "durationTicks": 384,
            "midi": 72,
            "name": "C5",
            "ticks": 93312,
            "time": 64.22903099999999,
            "velocity": 0.6929133858267716
          },
          {
            "duration": 0.792950999999988,
            "durationTicks": 1152,
            "midi": 74,
            "name": "D5",
            "ticks": 93696,
            "time": 64.493348,
            "velocity": 0.6929133858267716
          },
          {
            "duration": 0.26431700000000546,
            "durationTicks": 384,
            "midi": 76,
            "name": "E5",
            "ticks": 94848,
            "time": 65.28629899999999,
            "velocity": 0.6929133858267716
          },
          {
            "duration": 0.7929510000000022,
            "durationTicks": 1152,
            "midi": 74,
            "name": "D5",
            "ticks": 95232,
            "time": 65.55061599999999,
            "velocity": 0.6929133858267716
          },
          {
            "duration": 0.26431700000000546,
            "durationTicks": 384,
            "midi": 76,
            "name": "E5",
            "ticks": 96384,
            "time": 66.343567,
            "velocity": 0.5984251968503937
          },
          {
            "duration": 0.792950999999988,
            "durationTicks": 1152,
            "midi": 74,
            "name": "D5",
            "ticks": 96768,
            "time": 66.607884,
            "velocity": 0.5275590551181102
          },
          {
            "duration": 0.26431700000000546,
            "durationTicks": 384,
            "midi": 76,
            "name": "E5",
            "ticks": 97920,
            "time": 67.40083499999999,
            "velocity": 0.5275590551181102
          },
          {
            "duration": 0.7929510000000022,
            "durationTicks": 1152,
            "midi": 74,
            "name": "D5",
            "ticks": 98304,
            "time": 67.66515199999999,
            "velocity": 0.4566929133858268
          },
          {
            "duration": 0.26431699999999125,
            "durationTicks": 384,
            "midi": 76,
            "name": "E5",
            "ticks": 99456,
            "time": 68.458103,
            "velocity": 0.41732283464566927
          },
          {
            "duration": 1.0572680000000076,
            "durationTicks": 1536,
            "midi": 74,
            "name": "D5",
            "ticks": 99840,
            "time": 68.72241999999999,
            "velocity": 0.3700787401574803
          },
          {
            "duration": 0.06607925000000137,
            "durationTicks": 96,
            "midi": 72,
            "name": "C5",
            "ticks": 110592,
            "time": 76.123296,
            "velocity": 0.6929133858267716
          },
          {
            "duration": 0.06607924999998716,
            "durationTicks": 96,
            "midi": 73,
            "name": "C#5",
            "ticks": 110688,
            "time": 76.18937525,
            "velocity": 0.6929133858267716
          },
          {
            "duration": 1.9823775000000126,
            "durationTicks": 2880,
            "midi": 74,
            "name": "D5",
            "ticks": 110784,
            "time": 76.25545449999998,
            "velocity": 0.6929133858267716
          },
          {
            "duration": 1.5859019999999902,
            "durationTicks": 2304,
            "midi": 72,
            "name": "C5",
            "ticks": 113664,
            "time": 78.237832,
            "velocity": 0.6929133858267716
          },
          {
            "duration": 0.26431700000000546,
            "durationTicks": 384,
            "midi": 69,
            "name": "A4",
            "ticks": 115968,
            "time": 79.82373399999999,
            "velocity": 0.6929133858267716
          },
          {
            "duration": 0.26431699999999125,
            "durationTicks": 384,
            "midi": 70,
            "name": "A#4",
            "ticks": 116352,
            "time": 80.088051,
            "velocity": 0.6929133858267716
          },
          {
            "duration": 0.7929510000000022,
            "durationTicks": 1152,
            "midi": 69,
            "name": "A4",
            "ticks": 116736,
            "time": 80.35236799999998,
            "velocity": 0.6929133858267716
          },
          {
            "duration": 0.26431700000000546,
            "durationTicks": 384,
            "midi": 70,
            "name": "A#4",
            "ticks": 117888,
            "time": 81.14531899999999,
            "velocity": 0.6929133858267716
          },
          {
            "duration": 0.26431700000000546,
            "durationTicks": 384,
            "midi": 69,
            "name": "A4",
            "ticks": 118272,
            "time": 81.40963599999999,
            "velocity": 0.6929133858267716
          },
          {
            "duration": 0.26431699999999125,
            "durationTicks": 384,
            "midi": 62,
            "name": "D4",
            "ticks": 118656,
            "time": 81.673953,
            "velocity": 0.6929133858267716
          },
          {
            "duration": 0.26431700000000546,
            "durationTicks": 384,
            "midi": 64,
            "name": "E4",
            "ticks": 119040,
            "time": 81.93826999999999,
            "velocity": 0.6929133858267716
          },
          {
            "duration": 0.26431699999999125,
            "durationTicks": 384,
            "midi": 65,
            "name": "F4",
            "ticks": 119424,
            "time": 82.202587,
            "velocity": 0.6929133858267716
          },
          {
            "duration": 0.26431700000000546,
            "durationTicks": 384,
            "midi": 67,
            "name": "G4",
            "ticks": 119808,
            "time": 82.46690399999999,
            "velocity": 0.6929133858267716
          },
          {
            "duration": 0.26431700000000546,
            "durationTicks": 384,
            "midi": 65,
            "name": "F4",
            "ticks": 120192,
            "time": 82.73122099999999,
            "velocity": 0.6929133858267716
          },
          {
            "duration": 0.26431699999999125,
            "durationTicks": 384,
            "midi": 64,
            "name": "E4",
            "ticks": 120576,
            "time": 82.995538,
            "velocity": 0.6929133858267716
          },
          {
            "duration": 0.26431700000000546,
            "durationTicks": 384,
            "midi": 62,
            "name": "D4",
            "ticks": 120960,
            "time": 83.25985499999999,
            "velocity": 0.6929133858267716
          },
          {
            "duration": 0.06607925000000137,
            "durationTicks": 96,
            "midi": 70,
            "name": "A#4",
            "ticks": 121344,
            "time": 83.524172,
            "velocity": 0.6929133858267716
          },
          {
            "duration": 0.06607925000000137,
            "durationTicks": 96,
            "midi": 71,
            "name": "B4",
            "ticks": 121440,
            "time": 83.59025125,
            "velocity": 0.6929133858267716
          },
          {
            "duration": 0.6607924999999994,
            "durationTicks": 960,
            "midi": 72,
            "name": "C5",
            "ticks": 121536,
            "time": 83.6563305,
            "velocity": 0.6929133858267716
          },
          {
            "duration": 0.26431699999999125,
            "durationTicks": 384,
            "midi": 70,
            "name": "A#4",
            "ticks": 122496,
            "time": 84.317123,
            "velocity": 0.6929133858267716
          },
          {
            "duration": 2.114536000000001,
            "durationTicks": 3072,
            "midi": 69,
            "name": "A4",
            "ticks": 122880,
            "time": 84.58143999999999,
            "velocity": 0.6929133858267716
          },
          {
            "duration": 1.8502189999999956,
            "durationTicks": 2688,
            "midi": 65,
            "name": "F4",
            "ticks": 129024,
            "time": 88.81051199999999,
            "velocity": 0.6929133858267716
          },
          {
            "duration": 0.26431700000000546,
            "durationTicks": 384,
            "midi": 67,
            "name": "G4",
            "ticks": 131712,
            "time": 90.66073099999998,
            "velocity": 0.6929133858267716
          },
          {
            "duration": 0.26431700000000546,
            "durationTicks": 384,
            "midi": 69,
            "name": "A4",
            "ticks": 132096,
            "time": 90.92504799999999,
            "velocity": 0.6929133858267716
          },
          {
            "duration": 0.26431699999999125,
            "durationTicks": 384,
            "midi": 70,
            "name": "A#4",
            "ticks": 132480,
            "time": 91.189365,
            "velocity": 0.6929133858267716
          },
          {
            "duration": 0.26431700000000546,
            "durationTicks": 384,
            "midi": 69,
            "name": "A4",
            "ticks": 132864,
            "time": 91.45368199999999,
            "velocity": 0.6929133858267716
          },
          {
            "duration": 0.26431699999999125,
            "durationTicks": 384,
            "midi": 67,
            "name": "G4",
            "ticks": 133248,
            "time": 91.71799899999999,
            "velocity": 0.6929133858267716
          },
          {
            "duration": 0.9251095000000049,
            "durationTicks": 1344,
            "midi": 69,
            "name": "A4",
            "ticks": 133632,
            "time": 91.98231599999998,
            "velocity": 0.6929133858267716
          },
          {
            "duration": 0.06607925000000137,
            "durationTicks": 96,
            "midi": 70,
            "name": "A#4",
            "ticks": 134976,
            "time": 92.90742549999999,
            "velocity": 0.6929133858267716
          },
          {
            "duration": 0.06607925000000137,
            "durationTicks": 96,
            "midi": 71,
            "name": "B4",
            "ticks": 135072,
            "time": 92.97350474999999,
            "velocity": 0.6929133858267716
          },
          {
            "duration": 0.06607925000000137,
            "durationTicks": 96,
            "midi": 72,
            "name": "C5",
            "ticks": 135168,
            "time": 93.03958399999999,
            "velocity": 0.6929133858267716
          },
          {
            "duration": 0.06607925000000137,
            "durationTicks": 96,
            "midi": 73,
            "name": "C#5",
            "ticks": 135264,
            "time": 93.10566324999999,
            "velocity": 0.6929133858267716
          },
          {
            "duration": 1.9823774999999983,
            "durationTicks": 2880,
            "midi": 74,
            "name": "D5",
            "ticks": 135360,
            "time": 93.1717425,
            "velocity": 0.6929133858267716
          },
          {
            "duration": 2.114536000000001,
            "durationTicks": 3072,
            "midi": 72,
            "name": "C5",
            "ticks": 138240,
            "time": 95.15411999999999,
            "velocity": 0.6929133858267716
          },
          {
            "duration": 0.26431699999999125,
            "durationTicks": 384,
            "midi": 79,
            "name": "G5",
            "ticks": 141312,
            "time": 97.268656,
            "velocity": 0.6929133858267716
          },
          {
            "duration": 0.26431700000000546,
            "durationTicks": 384,
            "midi": 77,
            "name": "F5",
            "ticks": 141696,
            "time": 97.53297299999998,
            "velocity": 0.6929133858267716
          },
          {
            "duration": 0.26431700000000546,
            "durationTicks": 384,
            "midi": 76,
            "name": "E5",
            "ticks": 142080,
            "time": 97.79728999999999,
            "velocity": 0.6929133858267716
          },
          {
            "duration": 0.26431699999999125,
            "durationTicks": 384,
            "midi": 72,
            "name": "C5",
            "ticks": 142464,
            "time": 98.061607,
            "velocity": 0.6929133858267716
          },
          {
            "duration": 0.7929510000000022,
            "durationTicks": 1152,
            "midi": 74,
            "name": "D5",
            "ticks": 142848,
            "time": 98.32592399999999,
            "velocity": 0.6929133858267716
          },
          {
            "duration": 0.26431700000000546,
            "durationTicks": 384,
            "midi": 76,
            "name": "E5",
            "ticks": 144000,
            "time": 99.11887499999999,
            "velocity": 0.6929133858267716
          },
          {
            "duration": 0.792950999999988,
            "durationTicks": 1152,
            "midi": 74,
            "name": "D5",
            "ticks": 144384,
            "time": 99.383192,
            "velocity": 0.6929133858267716
          },
          {
            "duration": 0.26431700000000546,
            "durationTicks": 384,
            "midi": 76,
            "name": "E5",
            "ticks": 145536,
            "time": 100.17614299999998,
            "velocity": 0.5984251968503937
          },
          {
            "duration": 0.7929510000000022,
            "durationTicks": 1152,
            "midi": 74,
            "name": "D5",
            "ticks": 145920,
            "time": 100.44045999999999,
            "velocity": 0.5275590551181102
          },
          {
            "duration": 0.26431700000000546,
            "durationTicks": 384,
            "midi": 76,
            "name": "E5",
            "ticks": 147072,
            "time": 101.23341099999999,
            "velocity": 0.5275590551181102
          },
          {
            "duration": 0.792950999999988,
            "durationTicks": 1152,
            "midi": 74,
            "name": "D5",
            "ticks": 147456,
            "time": 101.497728,
            "velocity": 0.4566929133858268
          },
          {
            "duration": 0.26431700000000546,
            "durationTicks": 384,
            "midi": 76,
            "name": "E5",
            "ticks": 148608,
            "time": 102.29067899999998,
            "velocity": 0.41732283464566927
          },
          {
            "duration": 1.0572679999999934,
            "durationTicks": 1536,
            "midi": 74,
            "name": "D5",
            "ticks": 148992,
            "time": 102.55499599999999,
            "velocity": 0.3700787401574803
          },
          {
            "duration": 2.114536000000001,
            "durationTicks": 3072,
            "midi": 76,
            "name": "E5",
            "ticks": 150528,
            "time": 103.61226399999998,
            "velocity": 0.5511811023622047
          },
          {
            "duration": 2.114536000000001,
            "durationTicks": 3072,
            "midi": 77,
            "name": "F5",
            "ticks": 153600,
            "time": 105.72679999999998,
            "velocity": 0.5748031496062992
          },
          {
            "duration": 2.114536000000001,
            "durationTicks": 3072,
            "midi": 79,
            "name": "G5",
            "ticks": 156672,
            "time": 107.84133599999998,
            "velocity": 0.6456692913385826
          },
          {
            "duration": 2.114536000000001,
            "durationTicks": 3072,
            "midi": 81,
            "name": "A5",
            "ticks": 159744,
            "time": 109.95587199999999,
            "velocity": 0.6456692913385826
          },
          {
            "duration": 2.114536000000001,
            "durationTicks": 3072,
            "midi": 79,
            "name": "G5",
            "ticks": 162816,
            "time": 112.07040799999999,
            "velocity": 0.6456692913385826
          },
          {
            "duration": 0.06607925000000137,
            "durationTicks": 96,
            "midi": 83,
            "name": "B5",
            "ticks": 165888,
            "time": 114.18494399999999,
            "velocity": 0.6456692913385826
          },
          {
            "duration": 0.1982377500000041,
            "durationTicks": 288,
            "midi": 84,
            "name": "C6",
            "ticks": 165984,
            "time": 114.25102324999999,
            "velocity": 0.6456692913385826
          },
          {
            "duration": 0.26431699999999125,
            "durationTicks": 384,
            "midi": 82,
            "name": "A#5",
            "ticks": 166272,
            "time": 114.44926099999999,
            "velocity": 0.6456692913385826
          },
          {
            "duration": 0.26431700000000546,
            "durationTicks": 384,
            "midi": 81,
            "name": "A5",
            "ticks": 166656,
            "time": 114.71357799999998,
            "velocity": 0.6456692913385826
          },
          {
            "duration": 0.26431699999999125,
            "durationTicks": 384,
            "midi": 77,
            "name": "F5",
            "ticks": 167040,
            "time": 114.97789499999999,
            "velocity": 0.6456692913385826
          },
          {
            "duration": 1.8502190000000098,
            "durationTicks": 2688,
            "midi": 74,
            "name": "D5",
            "ticks": 167424,
            "time": 115.24221199999998,
            "velocity": 0.6456692913385826
          },
          {
            "duration": 0.26431699999999125,
            "durationTicks": 384,
            "midi": 74,
            "name": "D5",
            "ticks": 170112,
            "time": 117.09243099999999,
            "velocity": 0.6456692913385826
          },
          {
            "duration": 0.13215850000000273,
            "durationTicks": 192,
            "midi": 76,
            "name": "E5",
            "ticks": 170496,
            "time": 117.35674799999998,
            "velocity": 0.6456692913385826
          },
          {
            "duration": 0.13215850000000273,
            "durationTicks": 192,
            "midi": 74,
            "name": "D5",
            "ticks": 170688,
            "time": 117.48890649999998,
            "velocity": 0.6456692913385826
          },
          {
            "duration": 0.13215850000000273,
            "durationTicks": 192,
            "midi": 76,
            "name": "E5",
            "ticks": 170880,
            "time": 117.62106499999999,
            "velocity": 0.6456692913385826
          },
          {
            "duration": 0.13215850000000273,
            "durationTicks": 192,
            "midi": 77,
            "name": "F5",
            "ticks": 171072,
            "time": 117.75322349999999,
            "velocity": 0.6456692913385826
          },
          {
            "duration": 0.13215849999998852,
            "durationTicks": 192,
            "midi": 79,
            "name": "G5",
            "ticks": 171264,
            "time": 117.88538199999999,
            "velocity": 0.6456692913385826
          },
          {
            "duration": 0.13215850000000273,
            "durationTicks": 192,
            "midi": 77,
            "name": "F5",
            "ticks": 171456,
            "time": 118.01754049999998,
            "velocity": 0.6456692913385826
          },
          {
            "duration": 0.13215850000000273,
            "durationTicks": 192,
            "midi": 82,
            "name": "A#5",
            "ticks": 171648,
            "time": 118.14969899999998,
            "velocity": 0.6456692913385826
          },
          {
            "duration": 0.13215850000000273,
            "durationTicks": 192,
            "midi": 79,
            "name": "G5",
            "ticks": 171840,
            "time": 118.28185749999999,
            "velocity": 0.6456692913385826
          },
          {
            "duration": 1.5859019999999902,
            "durationTicks": 2304,
            "midi": 81,
            "name": "A5",
            "ticks": 172032,
            "time": 118.41401599999999,
            "velocity": 0.6456692913385826
          },
          {
            "duration": 0.13215850000000273,
            "durationTicks": 192,
            "midi": 82,
            "name": "A#5",
            "ticks": 174336,
            "time": 119.99991799999998,
            "velocity": 0.6456692913385826
          },
          {
            "duration": 0.13215850000000273,
            "durationTicks": 192,
            "midi": 81,
            "name": "A5",
            "ticks": 174528,
            "time": 120.13207649999998,
            "velocity": 0.6456692913385826
          },
          {
            "duration": 0.13215850000000273,
            "durationTicks": 192,
            "midi": 79,
            "name": "G5",
            "ticks": 174720,
            "time": 120.26423499999999,
            "velocity": 0.6456692913385826
          },
          {
            "duration": 0.13215850000000273,
            "durationTicks": 192,
            "midi": 77,
            "name": "F5",
            "ticks": 174912,
            "time": 120.39639349999999,
            "velocity": 0.6456692913385826
          },
          {
            "duration": 1.0572679999999934,
            "durationTicks": 1536,
            "midi": 79,
            "name": "G5",
            "ticks": 175104,
            "time": 120.52855199999999,
            "velocity": 0.6456692913385826
          },
          {
            "duration": 0.13215850000000273,
            "durationTicks": 192,
            "midi": 72,
            "name": "C5",
            "ticks": 176640,
            "time": 121.58581999999998,
            "velocity": 0.6456692913385826
          },
          {
            "duration": 0.13215850000000273,
            "durationTicks": 192,
            "midi": 74,
            "name": "D5",
            "ticks": 176832,
            "time": 121.71797849999999,
            "velocity": 0.6456692913385826
          },
          {
            "duration": 0.13215850000000273,
            "durationTicks": 192,
            "midi": 76,
            "name": "E5",
            "ticks": 177024,
            "time": 121.85013699999999,
            "velocity": 0.6456692913385826
          },
          {
            "duration": 0.13215849999998852,
            "durationTicks": 192,
            "midi": 74,
            "name": "D5",
            "ticks": 177216,
            "time": 121.98229549999999,
            "velocity": 0.6456692913385826
          },
          {
            "duration": 0.13215850000000273,
            "durationTicks": 192,
            "midi": 76,
            "name": "E5",
            "ticks": 177408,
            "time": 122.11445399999998,
            "velocity": 0.6456692913385826
          },
          {
            "duration": 0.13215850000000273,
            "durationTicks": 192,
            "midi": 77,
            "name": "F5",
            "ticks": 177600,
            "time": 122.24661249999998,
            "velocity": 0.6456692913385826
          },
          {
            "duration": 0.13215850000000273,
            "durationTicks": 192,
            "midi": 79,
            "name": "G5",
            "ticks": 177792,
            "time": 122.37877099999999,
            "velocity": 0.6456692913385826
          },
          {
            "duration": 0.13215850000000273,
            "durationTicks": 192,
            "midi": 77,
            "name": "F5",
            "ticks": 177984,
            "time": 122.51092949999999,
            "velocity": 0.6456692913385826
          },
          {
            "duration": 1.0572679999999934,
            "durationTicks": 1536,
            "midi": 84,
            "name": "C6",
            "ticks": 178176,
            "time": 122.64308799999999,
            "velocity": 0.6456692913385826
          },
          {
            "duration": 0.5286339999999967,
            "durationTicks": 768,
            "midi": 82,
            "name": "A#5",
            "ticks": 179712,
            "time": 123.70035599999999,
            "velocity": 0.6456692913385826
          },
          {
            "duration": 0.5286339999999967,
            "durationTicks": 768,
            "midi": 81,
            "name": "A5",
            "ticks": 180480,
            "time": 124.22898999999998,
            "velocity": 0.6456692913385826
          },
          {
            "duration": 1.0572680000000076,
            "durationTicks": 1536,
            "midi": 77,
            "name": "F5",
            "ticks": 181248,
            "time": 124.75762399999998,
            "velocity": 0.6456692913385826
          },
          {
            "duration": 0.26431700000000546,
            "durationTicks": 384,
            "midi": 79,
            "name": "G5",
            "ticks": 182784,
            "time": 125.81489199999999,
            "velocity": 0.6456692913385826
          },
          {
            "duration": 0.26431699999999125,
            "durationTicks": 384,
            "midi": 77,
            "name": "F5",
            "ticks": 183168,
            "time": 126.07920899999999,
            "velocity": 0.6456692913385826
          },
          {
            "duration": 0.26431700000000546,
            "durationTicks": 384,
            "midi": 76,
            "name": "E5",
            "ticks": 183552,
            "time": 126.34352599999998,
            "velocity": 0.6456692913385826
          },
          {
            "duration": 0.26431699999999125,
            "durationTicks": 384,
            "midi": 79,
            "name": "G5",
            "ticks": 183936,
            "time": 126.60784299999999,
            "velocity": 0.6456692913385826
          },
          {
            "duration": 2.1145360000000153,
            "durationTicks": 3072,
            "midi": 81,
            "name": "A5",
            "ticks": 184320,
            "time": 126.87215999999998,
            "velocity": 0.6456692913385826
          },
          {
            "duration": 2.114535999999987,
            "durationTicks": 3072,
            "midi": 79,
            "name": "G5",
            "ticks": 187392,
            "time": 128.986696,
            "velocity": 0.6456692913385826
          },
          {
            "duration": 0.06607925000000137,
            "durationTicks": 96,
            "midi": 83,
            "name": "B5",
            "ticks": 190464,
            "time": 131.10123199999998,
            "velocity": 0.6456692913385826
          },
          {
            "duration": 0.1982377500000041,
            "durationTicks": 288,
            "midi": 84,
            "name": "C6",
            "ticks": 190560,
            "time": 131.16731124999998,
            "velocity": 0.6456692913385826
          },
          {
            "duration": 0.26431700000000546,
            "durationTicks": 384,
            "midi": 82,
            "name": "A#5",
            "ticks": 190848,
            "time": 131.365549,
            "velocity": 0.6456692913385826
          },
          {
            "duration": 0.26431700000000546,
            "durationTicks": 384,
            "midi": 81,
            "name": "A5",
            "ticks": 191232,
            "time": 131.629866,
            "velocity": 0.6456692913385826
          },
          {
            "duration": 0.26431699999997704,
            "durationTicks": 384,
            "midi": 77,
            "name": "F5",
            "ticks": 191616,
            "time": 131.894183,
            "velocity": 0.6456692913385826
          },
          {
            "duration": 1.8502190000000098,
            "durationTicks": 2688,
            "midi": 74,
            "name": "D5",
            "ticks": 192000,
            "time": 132.15849999999998,
            "velocity": 0.6456692913385826
          },
          {
            "duration": 0.26431700000000546,
            "durationTicks": 384,
            "midi": 74,
            "name": "D5",
            "ticks": 194688,
            "time": 134.00871899999999,
            "velocity": 0.6456692913385826
          },
          {
            "duration": 0.13215850000000273,
            "durationTicks": 192,
            "midi": 76,
            "name": "E5",
            "ticks": 195072,
            "time": 134.273036,
            "velocity": 0.6456692913385826
          },
          {
            "duration": 0.13215850000000273,
            "durationTicks": 192,
            "midi": 74,
            "name": "D5",
            "ticks": 195264,
            "time": 134.4051945,
            "velocity": 0.6456692913385826
          },
          {
            "duration": 0.1321584999999743,
            "durationTicks": 192,
            "midi": 76,
            "name": "E5",
            "ticks": 195456,
            "time": 134.537353,
            "velocity": 0.6456692913385826
          },
          {
            "duration": 0.13215850000000273,
            "durationTicks": 192,
            "midi": 77,
            "name": "F5",
            "ticks": 195648,
            "time": 134.66951149999997,
            "velocity": 0.6456692913385826
          },
          {
            "duration": 0.13215850000000273,
            "durationTicks": 192,
            "midi": 79,
            "name": "G5",
            "ticks": 195840,
            "time": 134.80166999999997,
            "velocity": 0.6456692913385826
          },
          {
            "duration": 0.13215850000000273,
            "durationTicks": 192,
            "midi": 77,
            "name": "F5",
            "ticks": 196032,
            "time": 134.93382849999998,
            "velocity": 0.6456692913385826
          },
          {
            "duration": 0.13215850000000273,
            "durationTicks": 192,
            "midi": 82,
            "name": "A#5",
            "ticks": 196224,
            "time": 135.06598699999998,
            "velocity": 0.6456692913385826
          },
          {
            "duration": 0.13215850000000273,
            "durationTicks": 192,
            "midi": 79,
            "name": "G5",
            "ticks": 196416,
            "time": 135.19814549999998,
            "velocity": 0.6456692913385826
          },
          {
            "duration": 1.5859020000000044,
            "durationTicks": 2304,
            "midi": 81,
            "name": "A5",
            "ticks": 196608,
            "time": 135.33030399999998,
            "velocity": 0.6456692913385826
          },
          {
            "duration": 0.13215850000000273,
            "durationTicks": 192,
            "midi": 82,
            "name": "A#5",
            "ticks": 198912,
            "time": 136.916206,
            "velocity": 0.6456692913385826
          },
          {
            "duration": 0.13215850000000273,
            "durationTicks": 192,
            "midi": 81,
            "name": "A5",
            "ticks": 199104,
            "time": 137.0483645,
            "velocity": 0.6456692913385826
          },
          {
            "duration": 0.13215850000000273,
            "durationTicks": 192,
            "midi": 79,
            "name": "G5",
            "ticks": 199296,
            "time": 137.180523,
            "velocity": 0.6456692913385826
          },
          {
            "duration": 0.1321584999999743,
            "durationTicks": 192,
            "midi": 77,
            "name": "F5",
            "ticks": 199488,
            "time": 137.3126815,
            "velocity": 0.6456692913385826
          },
          {
            "duration": 1.0572680000000219,
            "durationTicks": 1536,
            "midi": 79,
            "name": "G5",
            "ticks": 199680,
            "time": 137.44483999999997,
            "velocity": 0.6456692913385826
          },
          {
            "duration": 0.13215850000000273,
            "durationTicks": 192,
            "midi": 72,
            "name": "C5",
            "ticks": 201216,
            "time": 138.502108,
            "velocity": 0.6456692913385826
          },
          {
            "duration": 0.1321584999999743,
            "durationTicks": 192,
            "midi": 74,
            "name": "D5",
            "ticks": 201408,
            "time": 138.6342665,
            "velocity": 0.6456692913385826
          },
          {
            "duration": 0.13215850000000273,
            "durationTicks": 192,
            "midi": 76,
            "name": "E5",
            "ticks": 201600,
            "time": 138.76642499999997,
            "velocity": 0.6456692913385826
          },
          {
            "duration": 0.13215850000000273,
            "durationTicks": 192,
            "midi": 74,
            "name": "D5",
            "ticks": 201792,
            "time": 138.89858349999997,
            "velocity": 0.6456692913385826
          },
          {
            "duration": 0.13215850000000273,
            "durationTicks": 192,
            "midi": 76,
            "name": "E5",
            "ticks": 201984,
            "time": 139.03074199999998,
            "velocity": 0.6456692913385826
          },
          {
            "duration": 0.13215850000000273,
            "durationTicks": 192,
            "midi": 77,
            "name": "F5",
            "ticks": 202176,
            "time": 139.16290049999998,
            "velocity": 0.6456692913385826
          },
          {
            "duration": 0.13215850000000273,
            "durationTicks": 192,
            "midi": 79,
            "name": "G5",
            "ticks": 202368,
            "time": 139.29505899999998,
            "velocity": 0.6456692913385826
          },
          {
            "duration": 0.13215850000000273,
            "durationTicks": 192,
            "midi": 77,
            "name": "F5",
            "ticks": 202560,
            "time": 139.42721749999998,
            "velocity": 0.6456692913385826
          },
          {
            "duration": 1.0572679999999934,
            "durationTicks": 1536,
            "midi": 84,
            "name": "C6",
            "ticks": 202752,
            "time": 139.559376,
            "velocity": 0.6456692913385826
          },
          {
            "duration": 0.5286340000000109,
            "durationTicks": 768,
            "midi": 82,
            "name": "A#5",
            "ticks": 204288,
            "time": 140.61664399999998,
            "velocity": 0.6456692913385826
          },
          {
            "duration": 0.5286339999999825,
            "durationTicks": 768,
            "midi": 81,
            "name": "A5",
            "ticks": 205056,
            "time": 141.145278,
            "velocity": 0.6456692913385826
          },
          {
            "duration": 1.0572680000000219,
            "durationTicks": 1536,
            "midi": 77,
            "name": "F5",
            "ticks": 205824,
            "time": 141.67391199999997,
            "velocity": 0.6456692913385826
          },
          {
            "duration": 0.3964754999999798,
            "durationTicks": 576,
            "midi": 79,
            "name": "G5",
            "ticks": 207360,
            "time": 142.73118,
            "velocity": 0.6456692913385826
          },
          {
            "duration": 0.3964755000000082,
            "durationTicks": 576,
            "midi": 77,
            "name": "F5",
            "ticks": 207936,
            "time": 143.12765549999997,
            "velocity": 0.6456692913385826
          },
          {
            "duration": 0.3964755000000082,
            "durationTicks": 576,
            "midi": 76,
            "name": "E5",
            "ticks": 208512,
            "time": 143.52413099999998,
            "velocity": 0.6456692913385826
          },
          {
            "duration": 0.3964754999999798,
            "durationTicks": 576,
            "midi": 79,
            "name": "G5",
            "ticks": 209088,
            "time": 143.9206065,
            "velocity": 0.6456692913385826
          },
          {
            "duration": 2.1145360000000153,
            "durationTicks": 3072,
            "midi": 77,
            "name": "F5",
            "ticks": 209664,
            "time": 144.31708199999997,
            "velocity": 0.6456692913385826
          }
        ],
        "endOfTrackTicks": 212736
      },
      {
        "channel": 4,
        "controlChanges": {},
        "pitchBends": [],
        "instrument": {
          "family": "strings",
          "number": 43,
          "name": "contrabass"
        },
        "name": "Strings (Sustain)",
        "notes": [
          {
            "duration": 2.1145359999999997,
            "durationTicks": 3072,
            "midi": 57,
            "name": "A3",
            "ticks": 0,
            "time": 0,
            "velocity": 0.14173228346456693
          },
          {
            "duration": 2.1145359999999997,
            "durationTicks": 3072,
            "midi": 62,
            "name": "D4",
            "ticks": 0,
            "time": 0,
            "velocity": 0.14173228346456693
          },
          {
            "duration": 2.1145359999999997,
            "durationTicks": 3072,
            "midi": 58,
            "name": "A#3",
            "ticks": 3072,
            "time": 2.1145359999999997,
            "velocity": 0.14173228346456693
          },
          {
            "duration": 2.1145359999999997,
            "durationTicks": 3072,
            "midi": 67,
            "name": "G4",
            "ticks": 3072,
            "time": 2.1145359999999997,
            "velocity": 0.14173228346456693
          },
          {
            "duration": 2.114536,
            "durationTicks": 3072,
            "midi": 57,
            "name": "A3",
            "ticks": 6144,
            "time": 4.2290719999999995,
            "velocity": 0.14173228346456693
          },
          {
            "duration": 2.114536,
            "durationTicks": 3072,
            "midi": 62,
            "name": "D4",
            "ticks": 6144,
            "time": 4.2290719999999995,
            "velocity": 0.14173228346456693
          },
          {
            "duration": 2.1145359999999993,
            "durationTicks": 3072,
            "midi": 64,
            "name": "E4",
            "ticks": 9216,
            "time": 6.343608,
            "velocity": 0.14173228346456693
          },
          {
            "duration": 2.1145359999999993,
            "durationTicks": 3072,
            "midi": 58,
            "name": "A#3",
            "ticks": 9216,
            "time": 6.343608,
            "velocity": 0.14173228346456693
          },
          {
            "duration": 2.1145359999999993,
            "durationTicks": 3072,
            "midi": 57,
            "name": "A3",
            "ticks": 12288,
            "time": 8.458143999999999,
            "velocity": 0.14173228346456693
          },
          {
            "duration": 2.1145359999999993,
            "durationTicks": 3072,
            "midi": 62,
            "name": "D4",
            "ticks": 12288,
            "time": 8.458143999999999,
            "velocity": 0.14173228346456693
          },
          {
            "duration": 2.114536000000001,
            "durationTicks": 3072,
            "midi": 67,
            "name": "G4",
            "ticks": 15360,
            "time": 10.572679999999998,
            "velocity": 0.14173228346456693
          },
          {
            "duration": 2.114536000000001,
            "durationTicks": 3072,
            "midi": 58,
            "name": "A#3",
            "ticks": 15360,
            "time": 10.572679999999998,
            "velocity": 0.14173228346456693
          },
          {
            "duration": 2.1145359999999993,
            "durationTicks": 3072,
            "midi": 57,
            "name": "A3",
            "ticks": 18432,
            "time": 12.687216,
            "velocity": 0.14173228346456693
          },
          {
            "duration": 2.1145359999999993,
            "durationTicks": 3072,
            "midi": 62,
            "name": "D4",
            "ticks": 18432,
            "time": 12.687216,
            "velocity": 0.14173228346456693
          },
          {
            "duration": 2.1145359999999993,
            "durationTicks": 3072,
            "midi": 58,
            "name": "A#3",
            "ticks": 21504,
            "time": 14.801751999999999,
            "velocity": 0.14173228346456693
          },
          {
            "duration": 2.1145359999999993,
            "durationTicks": 3072,
            "midi": 64,
            "name": "E4",
            "ticks": 21504,
            "time": 14.801751999999999,
            "velocity": 0.14173228346456693
          },
          {
            "duration": 2.114536000000001,
            "durationTicks": 3072,
            "midi": 62,
            "name": "D4",
            "ticks": 24576,
            "time": 16.916287999999998,
            "velocity": 0.14173228346456693
          },
          {
            "duration": 2.114536000000001,
            "durationTicks": 3072,
            "midi": 57,
            "name": "A3",
            "ticks": 24576,
            "time": 16.916287999999998,
            "velocity": 0.14173228346456693
          },
          {
            "duration": 2.1145359999999975,
            "durationTicks": 3072,
            "midi": 67,
            "name": "G4",
            "ticks": 27648,
            "time": 19.030824,
            "velocity": 0.14173228346456693
          },
          {
            "duration": 2.1145359999999975,
            "durationTicks": 3072,
            "midi": 58,
            "name": "A#3",
            "ticks": 27648,
            "time": 19.030824,
            "velocity": 0.14173228346456693
          },
          {
            "duration": 2.114536000000001,
            "durationTicks": 3072,
            "midi": 57,
            "name": "A3",
            "ticks": 30720,
            "time": 21.145359999999997,
            "velocity": 0.14173228346456693
          },
          {
            "duration": 2.114536000000001,
            "durationTicks": 3072,
            "midi": 62,
            "name": "D4",
            "ticks": 30720,
            "time": 21.145359999999997,
            "velocity": 0.14173228346456693
          },
          {
            "duration": 2.114536000000001,
            "durationTicks": 3072,
            "midi": 64,
            "name": "E4",
            "ticks": 33792,
            "time": 23.259895999999998,
            "velocity": 0.14173228346456693
          },
          {
            "duration": 2.114536000000001,
            "durationTicks": 3072,
            "midi": 58,
            "name": "A#3",
            "ticks": 33792,
            "time": 23.259895999999998,
            "velocity": 0.14173228346456693
          },
          {
            "duration": 2.1145359999999975,
            "durationTicks": 3072,
            "midi": 62,
            "name": "D4",
            "ticks": 36864,
            "time": 25.374432,
            "velocity": 0.14173228346456693
          },
          {
            "duration": 2.1145359999999975,
            "durationTicks": 3072,
            "midi": 57,
            "name": "A3",
            "ticks": 36864,
            "time": 25.374432,
            "velocity": 0.14173228346456693
          },
          {
            "duration": 2.114536000000001,
            "durationTicks": 3072,
            "midi": 58,
            "name": "A#3",
            "ticks": 39936,
            "time": 27.488967999999996,
            "velocity": 0.14173228346456693
          },
          {
            "duration": 2.114536000000001,
            "durationTicks": 3072,
            "midi": 67,
            "name": "G4",
            "ticks": 39936,
            "time": 27.488967999999996,
            "velocity": 0.14173228346456693
          },
          {
            "duration": 2.1145359999999975,
            "durationTicks": 3072,
            "midi": 62,
            "name": "D4",
            "ticks": 43008,
            "time": 29.603503999999997,
            "velocity": 0.14173228346456693
          },
          {
            "duration": 2.1145359999999975,
            "durationTicks": 3072,
            "midi": 57,
            "name": "A3",
            "ticks": 43008,
            "time": 29.603503999999997,
            "velocity": 0.14173228346456693
          },
          {
            "duration": 2.114536000000001,
            "durationTicks": 3072,
            "midi": 64,
            "name": "E4",
            "ticks": 46080,
            "time": 31.718039999999995,
            "velocity": 0.14173228346456693
          },
          {
            "duration": 2.114536000000001,
            "durationTicks": 3072,
            "midi": 58,
            "name": "A#3",
            "ticks": 46080,
            "time": 31.718039999999995,
            "velocity": 0.14173228346456693
          },
          {
            "duration": 2.114536000000001,
            "durationTicks": 3072,
            "midi": 62,
            "name": "D4",
            "ticks": 49152,
            "time": 33.832575999999996,
            "velocity": 0.14173228346456693
          },
          {
            "duration": 2.114536000000001,
            "durationTicks": 3072,
            "midi": 57,
            "name": "A3",
            "ticks": 49152,
            "time": 33.832575999999996,
            "velocity": 0.14173228346456693
          },
          {
            "duration": 2.114536000000001,
            "durationTicks": 3072,
            "midi": 58,
            "name": "A#3",
            "ticks": 52224,
            "time": 35.947112,
            "velocity": 0.14173228346456693
          },
          {
            "duration": 2.114536000000001,
            "durationTicks": 3072,
            "midi": 67,
            "name": "G4",
            "ticks": 52224,
            "time": 35.947112,
            "velocity": 0.14173228346456693
          },
          {
            "duration": 2.114535999999994,
            "durationTicks": 3072,
            "midi": 57,
            "name": "A3",
            "ticks": 55296,
            "time": 38.061648,
            "velocity": 0.14173228346456693
          },
          {
            "duration": 2.114535999999994,
            "durationTicks": 3072,
            "midi": 62,
            "name": "D4",
            "ticks": 55296,
            "time": 38.061648,
            "velocity": 0.14173228346456693
          },
          {
            "duration": 2.114536000000001,
            "durationTicks": 3072,
            "midi": 58,
            "name": "A#3",
            "ticks": 58368,
            "time": 40.17618399999999,
            "velocity": 0.14173228346456693
          },
          {
            "duration": 2.114536000000001,
            "durationTicks": 3072,
            "midi": 64,
            "name": "E4",
            "ticks": 58368,
            "time": 40.17618399999999,
            "velocity": 0.14173228346456693
          },
          {
            "duration": 2.114536000000001,
            "durationTicks": 3072,
            "midi": 62,
            "name": "D4",
            "ticks": 61440,
            "time": 42.29071999999999,
            "velocity": 0.14173228346456693
          },
          {
            "duration": 2.114536000000001,
            "durationTicks": 3072,
            "midi": 57,
            "name": "A3",
            "ticks": 61440,
            "time": 42.29071999999999,
            "velocity": 0.14173228346456693
          },
          {
            "duration": 2.114536000000001,
            "durationTicks": 3072,
            "midi": 67,
            "name": "G4",
            "ticks": 64512,
            "time": 44.405255999999994,
            "velocity": 0.14173228346456693
          },
          {
            "duration": 2.114536000000001,
            "durationTicks": 3072,
            "midi": 58,
            "name": "A#3",
            "ticks": 64512,
            "time": 44.405255999999994,
            "velocity": 0.14173228346456693
          },
          {
            "duration": 2.114536000000001,
            "durationTicks": 3072,
            "midi": 62,
            "name": "D4",
            "ticks": 67584,
            "time": 46.519791999999995,
            "velocity": 0.14173228346456693
          },
          {
            "duration": 2.114536000000001,
            "durationTicks": 3072,
            "midi": 57,
            "name": "A3",
            "ticks": 67584,
            "time": 46.519791999999995,
            "velocity": 0.14173228346456693
          },
          {
            "duration": 2.114536000000001,
            "durationTicks": 3072,
            "midi": 64,
            "name": "E4",
            "ticks": 70656,
            "time": 48.634328,
            "velocity": 0.14173228346456693
          },
          {
            "duration": 2.114536000000001,
            "durationTicks": 3072,
            "midi": 58,
            "name": "A#3",
            "ticks": 70656,
            "time": 48.634328,
            "velocity": 0.14173228346456693
          },
          {
            "duration": 2.114535999999994,
            "durationTicks": 3072,
            "midi": 62,
            "name": "D4",
            "ticks": 73728,
            "time": 50.748864,
            "velocity": 0.14173228346456693
          },
          {
            "duration": 2.114535999999994,
            "durationTicks": 3072,
            "midi": 57,
            "name": "A3",
            "ticks": 73728,
            "time": 50.748864,
            "velocity": 0.14173228346456693
          },
          {
            "duration": 2.114536000000001,
            "durationTicks": 3072,
            "midi": 58,
            "name": "A#3",
            "ticks": 76800,
            "time": 52.86339999999999,
            "velocity": 0.14173228346456693
          },
          {
            "duration": 2.114536000000001,
            "durationTicks": 3072,
            "midi": 67,
            "name": "G4",
            "ticks": 76800,
            "time": 52.86339999999999,
            "velocity": 0.14173228346456693
          },
          {
            "duration": 2.114536000000001,
            "durationTicks": 3072,
            "midi": 62,
            "name": "D4",
            "ticks": 79872,
            "time": 54.97793599999999,
            "velocity": 0.14173228346456693
          },
          {
            "duration": 2.114536000000001,
            "durationTicks": 3072,
            "midi": 57,
            "name": "A3",
            "ticks": 79872,
            "time": 54.97793599999999,
            "velocity": 0.14173228346456693
          },
          {
            "duration": 2.114536000000001,
            "durationTicks": 3072,
            "midi": 64,
            "name": "E4",
            "ticks": 82944,
            "time": 57.092471999999994,
            "velocity": 0.14173228346456693
          },
          {
            "duration": 2.114536000000001,
            "durationTicks": 3072,
            "midi": 58,
            "name": "A#3",
            "ticks": 82944,
            "time": 57.092471999999994,
            "velocity": 0.14173228346456693
          },
          {
            "duration": 2.114536000000001,
            "durationTicks": 3072,
            "midi": 57,
            "name": "A3",
            "ticks": 86016,
            "time": 59.207007999999995,
            "velocity": 0.14173228346456693
          },
          {
            "duration": 2.114536000000001,
            "durationTicks": 3072,
            "midi": 62,
            "name": "D4",
            "ticks": 86016,
            "time": 59.207007999999995,
            "velocity": 0.14173228346456693
          },
          {
            "duration": 2.114535999999994,
            "durationTicks": 3072,
            "midi": 58,
            "name": "A#3",
            "ticks": 89088,
            "time": 61.321543999999996,
            "velocity": 0.14173228346456693
          },
          {
            "duration": 2.114535999999994,
            "durationTicks": 3072,
            "midi": 67,
            "name": "G4",
            "ticks": 89088,
            "time": 61.321543999999996,
            "velocity": 0.14173228346456693
          },
          {
            "duration": 2.114536000000001,
            "durationTicks": 3072,
            "midi": 57,
            "name": "A3",
            "ticks": 92160,
            "time": 63.43607999999999,
            "velocity": 0.14173228346456693
          },
          {
            "duration": 2.114536000000001,
            "durationTicks": 3072,
            "midi": 62,
            "name": "D4",
            "ticks": 92160,
            "time": 63.43607999999999,
            "velocity": 0.14173228346456693
          },
          {
            "duration": 2.114536000000001,
            "durationTicks": 3072,
            "midi": 64,
            "name": "E4",
            "ticks": 95232,
            "time": 65.55061599999999,
            "velocity": 0.14173228346456693
          },
          {
            "duration": 2.114536000000001,
            "durationTicks": 3072,
            "midi": 58,
            "name": "A#3",
            "ticks": 95232,
            "time": 65.55061599999999,
            "velocity": 0.14173228346456693
          },
          {
            "duration": 2.114536000000001,
            "durationTicks": 3072,
            "midi": 57,
            "name": "A3",
            "ticks": 98304,
            "time": 67.66515199999999,
            "velocity": 0.14173228346456693
          },
          {
            "duration": 2.114536000000001,
            "durationTicks": 3072,
            "midi": 62,
            "name": "D4",
            "ticks": 98304,
            "time": 67.66515199999999,
            "velocity": 0.14173228346456693
          },
          {
            "duration": 2.114536000000001,
            "durationTicks": 3072,
            "midi": 58,
            "name": "A#3",
            "ticks": 101376,
            "time": 69.779688,
            "velocity": 0.14173228346456693
          },
          {
            "duration": 2.114536000000001,
            "durationTicks": 3072,
            "midi": 67,
            "name": "G4",
            "ticks": 101376,
            "time": 69.779688,
            "velocity": 0.14173228346456693
          },
          {
            "duration": 2.114536000000001,
            "durationTicks": 3072,
            "midi": 57,
            "name": "A3",
            "ticks": 104448,
            "time": 71.894224,
            "velocity": 0.14173228346456693
          },
          {
            "duration": 2.114536000000001,
            "durationTicks": 3072,
            "midi": 62,
            "name": "D4",
            "ticks": 104448,
            "time": 71.894224,
            "velocity": 0.14173228346456693
          },
          {
            "duration": 2.114536000000001,
            "durationTicks": 3072,
            "midi": 64,
            "name": "E4",
            "ticks": 107520,
            "time": 74.00876,
            "velocity": 0.14173228346456693
          },
          {
            "duration": 2.114536000000001,
            "durationTicks": 3072,
            "midi": 58,
            "name": "A#3",
            "ticks": 107520,
            "time": 74.00876,
            "velocity": 0.14173228346456693
          },
          {
            "duration": 2.114536000000001,
            "durationTicks": 3072,
            "midi": 62,
            "name": "D4",
            "ticks": 110592,
            "time": 76.123296,
            "velocity": 0.14173228346456693
          },
          {
            "duration": 2.114536000000001,
            "durationTicks": 3072,
            "midi": 57,
            "name": "A3",
            "ticks": 110592,
            "time": 76.123296,
            "velocity": 0.14173228346456693
          },
          {
            "duration": 2.114535999999987,
            "durationTicks": 3072,
            "midi": 67,
            "name": "G4",
            "ticks": 113664,
            "time": 78.237832,
            "velocity": 0.14173228346456693
          },
          {
            "duration": 2.114535999999987,
            "durationTicks": 3072,
            "midi": 58,
            "name": "A#3",
            "ticks": 113664,
            "time": 78.237832,
            "velocity": 0.14173228346456693
          },
          {
            "duration": 2.114536000000001,
            "durationTicks": 3072,
            "midi": 62,
            "name": "D4",
            "ticks": 116736,
            "time": 80.35236799999998,
            "velocity": 0.14173228346456693
          },
          {
            "duration": 2.114536000000001,
            "durationTicks": 3072,
            "midi": 57,
            "name": "A3",
            "ticks": 116736,
            "time": 80.35236799999998,
            "velocity": 0.14173228346456693
          },
          {
            "duration": 2.114536000000001,
            "durationTicks": 3072,
            "midi": 64,
            "name": "E4",
            "ticks": 119808,
            "time": 82.46690399999999,
            "velocity": 0.14173228346456693
          },
          {
            "duration": 2.114536000000001,
            "durationTicks": 3072,
            "midi": 58,
            "name": "A#3",
            "ticks": 119808,
            "time": 82.46690399999999,
            "velocity": 0.14173228346456693
          },
          {
            "duration": 2.114536000000001,
            "durationTicks": 3072,
            "midi": 62,
            "name": "D4",
            "ticks": 122880,
            "time": 84.58143999999999,
            "velocity": 0.14173228346456693
          },
          {
            "duration": 2.114536000000001,
            "durationTicks": 3072,
            "midi": 57,
            "name": "A3",
            "ticks": 122880,
            "time": 84.58143999999999,
            "velocity": 0.14173228346456693
          },
          {
            "duration": 2.114536000000001,
            "durationTicks": 3072,
            "midi": 58,
            "name": "A#3",
            "ticks": 125952,
            "time": 86.69597599999999,
            "velocity": 0.14173228346456693
          },
          {
            "duration": 2.114536000000001,
            "durationTicks": 3072,
            "midi": 67,
            "name": "G4",
            "ticks": 125952,
            "time": 86.69597599999999,
            "velocity": 0.14173228346456693
          },
          {
            "duration": 2.114536000000001,
            "durationTicks": 3072,
            "midi": 62,
            "name": "D4",
            "ticks": 129024,
            "time": 88.81051199999999,
            "velocity": 0.14173228346456693
          },
          {
            "duration": 2.114536000000001,
            "durationTicks": 3072,
            "midi": 57,
            "name": "A3",
            "ticks": 129024,
            "time": 88.81051199999999,
            "velocity": 0.14173228346456693
          },
          {
            "duration": 2.114536000000001,
            "durationTicks": 3072,
            "midi": 64,
            "name": "E4",
            "ticks": 132096,
            "time": 90.92504799999999,
            "velocity": 0.14173228346456693
          },
          {
            "duration": 2.114536000000001,
            "durationTicks": 3072,
            "midi": 58,
            "name": "A#3",
            "ticks": 132096,
            "time": 90.92504799999999,
            "velocity": 0.14173228346456693
          },
          {
            "duration": 2.114536000000001,
            "durationTicks": 3072,
            "midi": 57,
            "name": "A3",
            "ticks": 135168,
            "time": 93.03958399999999,
            "velocity": 0.14173228346456693
          },
          {
            "duration": 2.114536000000001,
            "durationTicks": 3072,
            "midi": 62,
            "name": "D4",
            "ticks": 135168,
            "time": 93.03958399999999,
            "velocity": 0.14173228346456693
          },
          {
            "duration": 2.114536000000001,
            "durationTicks": 3072,
            "midi": 58,
            "name": "A#3",
            "ticks": 138240,
            "time": 95.15411999999999,
            "velocity": 0.14173228346456693
          },
          {
            "duration": 2.114536000000001,
            "durationTicks": 3072,
            "midi": 67,
            "name": "G4",
            "ticks": 138240,
            "time": 95.15411999999999,
            "velocity": 0.14173228346456693
          },
          {
            "duration": 2.114536000000001,
            "durationTicks": 3072,
            "midi": 57,
            "name": "A3",
            "ticks": 141312,
            "time": 97.268656,
            "velocity": 0.14173228346456693
          },
          {
            "duration": 2.114536000000001,
            "durationTicks": 3072,
            "midi": 62,
            "name": "D4",
            "ticks": 141312,
            "time": 97.268656,
            "velocity": 0.14173228346456693
          },
          {
            "duration": 2.114536000000001,
            "durationTicks": 3072,
            "midi": 64,
            "name": "E4",
            "ticks": 144384,
            "time": 99.383192,
            "velocity": 0.14173228346456693
          },
          {
            "duration": 2.114536000000001,
            "durationTicks": 3072,
            "midi": 58,
            "name": "A#3",
            "ticks": 144384,
            "time": 99.383192,
            "velocity": 0.14173228346456693
          },
          {
            "duration": 2.114535999999987,
            "durationTicks": 3072,
            "midi": 62,
            "name": "D4",
            "ticks": 147456,
            "time": 101.497728,
            "velocity": 0.14173228346456693
          },
          {
            "duration": 2.114535999999987,
            "durationTicks": 3072,
            "midi": 57,
            "name": "A3",
            "ticks": 147456,
            "time": 101.497728,
            "velocity": 0.14173228346456693
          },
          {
            "duration": 2.114536000000001,
            "durationTicks": 3072,
            "midi": 67,
            "name": "G4",
            "ticks": 150528,
            "time": 103.61226399999998,
            "velocity": 0.14173228346456693
          },
          {
            "duration": 2.114536000000001,
            "durationTicks": 3072,
            "midi": 58,
            "name": "A#3",
            "ticks": 150528,
            "time": 103.61226399999998,
            "velocity": 0.14173228346456693
          },
          {
            "duration": 2.114536000000001,
            "durationTicks": 3072,
            "midi": 62,
            "name": "D4",
            "ticks": 153600,
            "time": 105.72679999999998,
            "velocity": 0.14173228346456693
          },
          {
            "duration": 2.114536000000001,
            "durationTicks": 3072,
            "midi": 57,
            "name": "A3",
            "ticks": 153600,
            "time": 105.72679999999998,
            "velocity": 0.14173228346456693
          },
          {
            "duration": 2.114536000000001,
            "durationTicks": 3072,
            "midi": 58,
            "name": "A#3",
            "ticks": 156672,
            "time": 107.84133599999998,
            "velocity": 0.14173228346456693
          },
          {
            "duration": 2.114536000000001,
            "durationTicks": 3072,
            "midi": 64,
            "name": "E4",
            "ticks": 156672,
            "time": 107.84133599999998,
            "velocity": 0.14173228346456693
          },
          {
            "duration": 2.114536000000001,
            "durationTicks": 3072,
            "midi": 65,
            "name": "F4",
            "ticks": 159744,
            "time": 109.95587199999999,
            "velocity": 0.14173228346456693
          },
          {
            "duration": 2.114536000000001,
            "durationTicks": 3072,
            "midi": 69,
            "name": "A4",
            "ticks": 159744,
            "time": 109.95587199999999,
            "velocity": 0.14173228346456693
          },
          {
            "duration": 2.114536000000001,
            "durationTicks": 3072,
            "midi": 64,
            "name": "E4",
            "ticks": 162816,
            "time": 112.07040799999999,
            "velocity": 0.14173228346456693
          },
          {
            "duration": 2.114536000000001,
            "durationTicks": 3072,
            "midi": 67,
            "name": "G4",
            "ticks": 162816,
            "time": 112.07040799999999,
            "velocity": 0.14173228346456693
          },
          {
            "duration": 2.114536000000001,
            "durationTicks": 3072,
            "midi": 69,
            "name": "A4",
            "ticks": 165888,
            "time": 114.18494399999999,
            "velocity": 0.14173228346456693
          },
          {
            "duration": 2.114536000000001,
            "durationTicks": 3072,
            "midi": 72,
            "name": "C5",
            "ticks": 165888,
            "time": 114.18494399999999,
            "velocity": 0.14173228346456693
          },
          {
            "duration": 1.0572679999999934,
            "durationTicks": 1536,
            "midi": 62,
            "name": "D4",
            "ticks": 168960,
            "time": 116.29947999999999,
            "velocity": 0.14173228346456693
          },
          {
            "duration": 1.0572679999999934,
            "durationTicks": 1536,
            "midi": 65,
            "name": "F4",
            "ticks": 168960,
            "time": 116.29947999999999,
            "velocity": 0.14173228346456693
          },
          {
            "duration": 1.0572680000000076,
            "durationTicks": 1536,
            "midi": 64,
            "name": "E4",
            "ticks": 170496,
            "time": 117.35674799999998,
            "velocity": 0.14173228346456693
          },
          {
            "duration": 1.0572680000000076,
            "durationTicks": 1536,
            "midi": 67,
            "name": "G4",
            "ticks": 170496,
            "time": 117.35674799999998,
            "velocity": 0.14173228346456693
          },
          {
            "duration": 2.114536000000001,
            "durationTicks": 3072,
            "midi": 69,
            "name": "A4",
            "ticks": 172032,
            "time": 118.41401599999999,
            "velocity": 0.14173228346456693
          },
          {
            "duration": 2.114536000000001,
            "durationTicks": 3072,
            "midi": 65,
            "name": "F4",
            "ticks": 172032,
            "time": 118.41401599999999,
            "velocity": 0.14173228346456693
          },
          {
            "duration": 2.114536000000001,
            "durationTicks": 3072,
            "midi": 64,
            "name": "E4",
            "ticks": 175104,
            "time": 120.52855199999999,
            "velocity": 0.14173228346456693
          },
          {
            "duration": 2.114536000000001,
            "durationTicks": 3072,
            "midi": 67,
            "name": "G4",
            "ticks": 175104,
            "time": 120.52855199999999,
            "velocity": 0.14173228346456693
          },
          {
            "duration": 2.114535999999987,
            "durationTicks": 3072,
            "midi": 69,
            "name": "A4",
            "ticks": 178176,
            "time": 122.64308799999999,
            "velocity": 0.14173228346456693
          },
          {
            "duration": 2.114535999999987,
            "durationTicks": 3072,
            "midi": 72,
            "name": "C5",
            "ticks": 178176,
            "time": 122.64308799999999,
            "velocity": 0.14173228346456693
          },
          {
            "duration": 1.0572680000000076,
            "durationTicks": 1536,
            "midi": 65,
            "name": "F4",
            "ticks": 181248,
            "time": 124.75762399999998,
            "velocity": 0.14173228346456693
          },
          {
            "duration": 1.0572680000000076,
            "durationTicks": 1536,
            "midi": 62,
            "name": "D4",
            "ticks": 181248,
            "time": 124.75762399999998,
            "velocity": 0.14173228346456693
          },
          {
            "duration": 1.0572679999999934,
            "durationTicks": 1536,
            "midi": 64,
            "name": "E4",
            "ticks": 182784,
            "time": 125.81489199999999,
            "velocity": 0.14173228346456693
          },
          {
            "duration": 1.0572679999999934,
            "durationTicks": 1536,
            "midi": 67,
            "name": "G4",
            "ticks": 182784,
            "time": 125.81489199999999,
            "velocity": 0.14173228346456693
          },
          {
            "duration": 2.1145360000000153,
            "durationTicks": 3072,
            "midi": 65,
            "name": "F4",
            "ticks": 184320,
            "time": 126.87215999999998,
            "velocity": 0.14173228346456693
          },
          {
            "duration": 2.1145360000000153,
            "durationTicks": 3072,
            "midi": 69,
            "name": "A4",
            "ticks": 184320,
            "time": 126.87215999999998,
            "velocity": 0.14173228346456693
          },
          {
            "duration": 2.114535999999987,
            "durationTicks": 3072,
            "midi": 64,
            "name": "E4",
            "ticks": 187392,
            "time": 128.986696,
            "velocity": 0.14173228346456693
          },
          {
            "duration": 2.114535999999987,
            "durationTicks": 3072,
            "midi": 67,
            "name": "G4",
            "ticks": 187392,
            "time": 128.986696,
            "velocity": 0.14173228346456693
          },
          {
            "duration": 2.1145360000000153,
            "durationTicks": 3072,
            "midi": 69,
            "name": "A4",
            "ticks": 190464,
            "time": 131.10123199999998,
            "velocity": 0.14173228346456693
          },
          {
            "duration": 2.1145360000000153,
            "durationTicks": 3072,
            "midi": 72,
            "name": "C5",
            "ticks": 190464,
            "time": 131.10123199999998,
            "velocity": 0.14173228346456693
          },
          {
            "duration": 1.0572679999999934,
            "durationTicks": 1536,
            "midi": 65,
            "name": "F4",
            "ticks": 193536,
            "time": 133.215768,
            "velocity": 0.14173228346456693
          },
          {
            "duration": 1.0572679999999934,
            "durationTicks": 1536,
            "midi": 62,
            "name": "D4",
            "ticks": 193536,
            "time": 133.215768,
            "velocity": 0.14173228346456693
          },
          {
            "duration": 1.0572679999999934,
            "durationTicks": 1536,
            "midi": 64,
            "name": "E4",
            "ticks": 195072,
            "time": 134.273036,
            "velocity": 0.14173228346456693
          },
          {
            "duration": 1.0572679999999934,
            "durationTicks": 1536,
            "midi": 67,
            "name": "G4",
            "ticks": 195072,
            "time": 134.273036,
            "velocity": 0.14173228346456693
          },
          {
            "duration": 2.114535999999987,
            "durationTicks": 3072,
            "midi": 69,
            "name": "A4",
            "ticks": 196608,
            "time": 135.33030399999998,
            "velocity": 0.14173228346456693
          },
          {
            "duration": 2.114535999999987,
            "durationTicks": 3072,
            "midi": 65,
            "name": "F4",
            "ticks": 196608,
            "time": 135.33030399999998,
            "velocity": 0.14173228346456693
          },
          {
            "duration": 2.1145360000000153,
            "durationTicks": 3072,
            "midi": 64,
            "name": "E4",
            "ticks": 199680,
            "time": 137.44483999999997,
            "velocity": 0.14173228346456693
          },
          {
            "duration": 2.1145360000000153,
            "durationTicks": 3072,
            "midi": 67,
            "name": "G4",
            "ticks": 199680,
            "time": 137.44483999999997,
            "velocity": 0.14173228346456693
          },
          {
            "duration": 2.114535999999987,
            "durationTicks": 3072,
            "midi": 72,
            "name": "C5",
            "ticks": 202752,
            "time": 139.559376,
            "velocity": 0.14173228346456693
          },
          {
            "duration": 2.114535999999987,
            "durationTicks": 3072,
            "midi": 69,
            "name": "A4",
            "ticks": 202752,
            "time": 139.559376,
            "velocity": 0.14173228346456693
          },
          {
            "duration": 1.0572680000000219,
            "durationTicks": 1536,
            "midi": 65,
            "name": "F4",
            "ticks": 205824,
            "time": 141.67391199999997,
            "velocity": 0.14173228346456693
          },
          {
            "duration": 1.0572680000000219,
            "durationTicks": 1536,
            "midi": 62,
            "name": "D4",
            "ticks": 205824,
            "time": 141.67391199999997,
            "velocity": 0.14173228346456693
          },
          {
            "duration": 1.585901999999976,
            "durationTicks": 2304,
            "midi": 67,
            "name": "G4",
            "ticks": 207360,
            "time": 142.73118,
            "velocity": 0.14173228346456693
          },
          {
            "duration": 1.585901999999976,
            "durationTicks": 2304,
            "midi": 64,
            "name": "E4",
            "ticks": 207360,
            "time": 142.73118,
            "velocity": 0.14173228346456693
          },
          {
            "duration": 2.1145360000000153,
            "durationTicks": 3072,
            "midi": 60,
            "name": "C4",
            "ticks": 209664,
            "time": 144.31708199999997,
            "velocity": 0.14173228346456693
          },
          {
            "duration": 2.1145360000000153,
            "durationTicks": 3072,
            "midi": 65,
            "name": "F4",
            "ticks": 209664,
            "time": 144.31708199999997,
            "velocity": 0.14173228346456693
          },
          {
            "duration": 2.643169999999998,
            "durationTicks": 3840,
            "midi": 59,
            "name": "B3",
            "ticks": 212736,
            "time": 146.431618,
            "velocity": 0.14173228346456693
          },
          {
            "duration": 2.643169999999998,
            "durationTicks": 3840,
            "midi": 64,
            "name": "E4",
            "ticks": 212736,
            "time": 146.431618,
            "velocity": 0.14173228346456693
          }
        ],
        "endOfTrackTicks": 216576
      },
      {
        "channel": 5,
        "controlChanges": {},
        "pitchBends": [],
        "instrument": {
          "family": "bass",
          "number": 32,
          "name": "acoustic bass"
        },
        "name": "Bass",
        "notes": [
          {
            "duration": 2.114536000000001,
            "durationTicks": 3072,
            "midi": 38,
            "name": "D2",
            "ticks": 24576,
            "time": 16.916287999999998,
            "velocity": 0.3700787401574803
          },
          {
            "duration": 2.1145359999999975,
            "durationTicks": 3072,
            "midi": 38,
            "name": "D2",
            "ticks": 27648,
            "time": 19.030824,
            "velocity": 0.3700787401574803
          },
          {
            "duration": 2.114536000000001,
            "durationTicks": 3072,
            "midi": 38,
            "name": "D2",
            "ticks": 30720,
            "time": 21.145359999999997,
            "velocity": 0.3700787401574803
          },
          {
            "duration": 1.0572680000000005,
            "durationTicks": 1536,
            "midi": 46,
            "name": "A#2",
            "ticks": 33792,
            "time": 23.259895999999998,
            "velocity": 0.3700787401574803
          },
          {
            "duration": 1.0572680000000005,
            "durationTicks": 1536,
            "midi": 36,
            "name": "C2",
            "ticks": 35328,
            "time": 24.317164,
            "velocity": 0.3700787401574803
          },
          {
            "duration": 2.1145359999999975,
            "durationTicks": 3072,
            "midi": 38,
            "name": "D2",
            "ticks": 36864,
            "time": 25.374432,
            "velocity": 0.3700787401574803
          },
          {
            "duration": 2.114536000000001,
            "durationTicks": 3072,
            "midi": 38,
            "name": "D2",
            "ticks": 39936,
            "time": 27.488967999999996,
            "velocity": 0.3700787401574803
          },
          {
            "duration": 2.1145359999999975,
            "durationTicks": 3072,
            "midi": 38,
            "name": "D2",
            "ticks": 43008,
            "time": 29.603503999999997,
            "velocity": 0.3700787401574803
          },
          {
            "duration": 1.0572680000000005,
            "durationTicks": 1536,
            "midi": 46,
            "name": "A#2",
            "ticks": 46080,
            "time": 31.718039999999995,
            "velocity": 0.3700787401574803
          },
          {
            "duration": 1.0572680000000005,
            "durationTicks": 1536,
            "midi": 36,
            "name": "C2",
            "ticks": 47616,
            "time": 32.775307999999995,
            "velocity": 0.3700787401574803
          },
          {
            "duration": 2.114536000000001,
            "durationTicks": 3072,
            "midi": 38,
            "name": "D2",
            "ticks": 49152,
            "time": 33.832575999999996,
            "velocity": 0.3700787401574803
          },
          {
            "duration": 2.114536000000001,
            "durationTicks": 3072,
            "midi": 38,
            "name": "D2",
            "ticks": 52224,
            "time": 35.947112,
            "velocity": 0.3700787401574803
          },
          {
            "duration": 2.114535999999994,
            "durationTicks": 3072,
            "midi": 38,
            "name": "D2",
            "ticks": 55296,
            "time": 38.061648,
            "velocity": 0.3700787401574803
          },
          {
            "duration": 1.0572680000000005,
            "durationTicks": 1536,
            "midi": 46,
            "name": "A#2",
            "ticks": 58368,
            "time": 40.17618399999999,
            "velocity": 0.3700787401574803
          },
          {
            "duration": 1.0572680000000005,
            "durationTicks": 1536,
            "midi": 36,
            "name": "C2",
            "ticks": 59904,
            "time": 41.23345199999999,
            "velocity": 0.3700787401574803
          },
          {
            "duration": 2.114536000000001,
            "durationTicks": 3072,
            "midi": 38,
            "name": "D2",
            "ticks": 61440,
            "time": 42.29071999999999,
            "velocity": 0.3700787401574803
          },
          {
            "duration": 2.114536000000001,
            "durationTicks": 3072,
            "midi": 38,
            "name": "D2",
            "ticks": 64512,
            "time": 44.405255999999994,
            "velocity": 0.3700787401574803
          },
          {
            "duration": 2.114536000000001,
            "durationTicks": 3072,
            "midi": 38,
            "name": "D2",
            "ticks": 67584,
            "time": 46.519791999999995,
            "velocity": 0.3700787401574803
          },
          {
            "duration": 1.0572680000000005,
            "durationTicks": 1536,
            "midi": 46,
            "name": "A#2",
            "ticks": 70656,
            "time": 48.634328,
            "velocity": 0.3700787401574803
          },
          {
            "duration": 1.0572680000000005,
            "durationTicks": 1536,
            "midi": 36,
            "name": "C2",
            "ticks": 72192,
            "time": 49.691596,
            "velocity": 0.3700787401574803
          },
          {
            "duration": 2.114535999999994,
            "durationTicks": 3072,
            "midi": 38,
            "name": "D2",
            "ticks": 73728,
            "time": 50.748864,
            "velocity": 0.3700787401574803
          },
          {
            "duration": 2.114536000000001,
            "durationTicks": 3072,
            "midi": 38,
            "name": "D2",
            "ticks": 76800,
            "time": 52.86339999999999,
            "velocity": 0.3700787401574803
          },
          {
            "duration": 2.114536000000001,
            "durationTicks": 3072,
            "midi": 38,
            "name": "D2",
            "ticks": 79872,
            "time": 54.97793599999999,
            "velocity": 0.3700787401574803
          },
          {
            "duration": 1.0572680000000005,
            "durationTicks": 1536,
            "midi": 46,
            "name": "A#2",
            "ticks": 82944,
            "time": 57.092471999999994,
            "velocity": 0.3700787401574803
          },
          {
            "duration": 1.0572680000000005,
            "durationTicks": 1536,
            "midi": 36,
            "name": "C2",
            "ticks": 84480,
            "time": 58.149739999999994,
            "velocity": 0.3700787401574803
          },
          {
            "duration": 2.114536000000001,
            "durationTicks": 3072,
            "midi": 38,
            "name": "D2",
            "ticks": 86016,
            "time": 59.207007999999995,
            "velocity": 0.3700787401574803
          },
          {
            "duration": 2.114535999999994,
            "durationTicks": 3072,
            "midi": 38,
            "name": "D2",
            "ticks": 89088,
            "time": 61.321543999999996,
            "velocity": 0.3700787401574803
          },
          {
            "duration": 2.114536000000001,
            "durationTicks": 3072,
            "midi": 38,
            "name": "D2",
            "ticks": 92160,
            "time": 63.43607999999999,
            "velocity": 0.3700787401574803
          },
          {
            "duration": 1.0572680000000076,
            "durationTicks": 1536,
            "midi": 46,
            "name": "A#2",
            "ticks": 95232,
            "time": 65.55061599999999,
            "velocity": 0.3700787401574803
          },
          {
            "duration": 1.0572679999999934,
            "durationTicks": 1536,
            "midi": 36,
            "name": "C2",
            "ticks": 96768,
            "time": 66.607884,
            "velocity": 0.3700787401574803
          },
          {
            "duration": 2.114536000000001,
            "durationTicks": 3072,
            "midi": 38,
            "name": "D2",
            "ticks": 98304,
            "time": 67.66515199999999,
            "velocity": 0.3700787401574803
          },
          {
            "duration": 2.114536000000001,
            "durationTicks": 3072,
            "midi": 38,
            "name": "D2",
            "ticks": 101376,
            "time": 69.779688,
            "velocity": 0.3700787401574803
          },
          {
            "duration": 2.114536000000001,
            "durationTicks": 3072,
            "midi": 38,
            "name": "D2",
            "ticks": 104448,
            "time": 71.894224,
            "velocity": 0.3700787401574803
          },
          {
            "duration": 1.0572679999999934,
            "durationTicks": 1536,
            "midi": 46,
            "name": "A#2",
            "ticks": 107520,
            "time": 74.00876,
            "velocity": 0.3700787401574803
          },
          {
            "duration": 1.0572680000000076,
            "durationTicks": 1536,
            "midi": 36,
            "name": "C2",
            "ticks": 109056,
            "time": 75.06602799999999,
            "velocity": 0.3700787401574803
          },
          {
            "duration": 2.114536000000001,
            "durationTicks": 3072,
            "midi": 38,
            "name": "D2",
            "ticks": 110592,
            "time": 76.123296,
            "velocity": 0.3700787401574803
          },
          {
            "duration": 2.114535999999987,
            "durationTicks": 3072,
            "midi": 38,
            "name": "D2",
            "ticks": 113664,
            "time": 78.237832,
            "velocity": 0.3700787401574803
          },
          {
            "duration": 2.114536000000001,
            "durationTicks": 3072,
            "midi": 38,
            "name": "D2",
            "ticks": 116736,
            "time": 80.35236799999998,
            "velocity": 0.3700787401574803
          },
          {
            "duration": 1.0572680000000076,
            "durationTicks": 1536,
            "midi": 46,
            "name": "A#2",
            "ticks": 119808,
            "time": 82.46690399999999,
            "velocity": 0.3700787401574803
          },
          {
            "duration": 1.0572679999999934,
            "durationTicks": 1536,
            "midi": 36,
            "name": "C2",
            "ticks": 121344,
            "time": 83.524172,
            "velocity": 0.3700787401574803
          },
          {
            "duration": 2.114536000000001,
            "durationTicks": 3072,
            "midi": 38,
            "name": "D2",
            "ticks": 122880,
            "time": 84.58143999999999,
            "velocity": 0.3700787401574803
          },
          {
            "duration": 2.114536000000001,
            "durationTicks": 3072,
            "midi": 38,
            "name": "D2",
            "ticks": 125952,
            "time": 86.69597599999999,
            "velocity": 0.3700787401574803
          },
          {
            "duration": 2.114536000000001,
            "durationTicks": 3072,
            "midi": 38,
            "name": "D2",
            "ticks": 129024,
            "time": 88.81051199999999,
            "velocity": 0.3700787401574803
          },
          {
            "duration": 1.0572679999999934,
            "durationTicks": 1536,
            "midi": 46,
            "name": "A#2",
            "ticks": 132096,
            "time": 90.92504799999999,
            "velocity": 0.3700787401574803
          },
          {
            "duration": 1.0572680000000076,
            "durationTicks": 1536,
            "midi": 36,
            "name": "C2",
            "ticks": 133632,
            "time": 91.98231599999998,
            "velocity": 0.3700787401574803
          },
          {
            "duration": 2.114536000000001,
            "durationTicks": 3072,
            "midi": 38,
            "name": "D2",
            "ticks": 135168,
            "time": 93.03958399999999,
            "velocity": 0.3700787401574803
          },
          {
            "duration": 2.114536000000001,
            "durationTicks": 3072,
            "midi": 38,
            "name": "D2",
            "ticks": 138240,
            "time": 95.15411999999999,
            "velocity": 0.3700787401574803
          },
          {
            "duration": 2.114536000000001,
            "durationTicks": 3072,
            "midi": 38,
            "name": "D2",
            "ticks": 141312,
            "time": 97.268656,
            "velocity": 0.3700787401574803
          },
          {
            "duration": 1.0572679999999934,
            "durationTicks": 1536,
            "midi": 46,
            "name": "A#2",
            "ticks": 144384,
            "time": 99.383192,
            "velocity": 0.3700787401574803
          },
          {
            "duration": 1.0572680000000076,
            "durationTicks": 1536,
            "midi": 36,
            "name": "C2",
            "ticks": 145920,
            "time": 100.44045999999999,
            "velocity": 0.3700787401574803
          },
          {
            "duration": 2.114535999999987,
            "durationTicks": 3072,
            "midi": 38,
            "name": "D2",
            "ticks": 147456,
            "time": 101.497728,
            "velocity": 0.3700787401574803
          },
          {
            "duration": 2.114536000000001,
            "durationTicks": 3072,
            "midi": 38,
            "name": "D2",
            "ticks": 150528,
            "time": 103.61226399999998,
            "velocity": 0.3700787401574803
          },
          {
            "duration": 2.114536000000001,
            "durationTicks": 3072,
            "midi": 38,
            "name": "D2",
            "ticks": 153600,
            "time": 105.72679999999998,
            "velocity": 0.3700787401574803
          },
          {
            "duration": 1.0572680000000076,
            "durationTicks": 1536,
            "midi": 46,
            "name": "A#2",
            "ticks": 156672,
            "time": 107.84133599999998,
            "velocity": 0.3700787401574803
          },
          {
            "duration": 1.0572679999999934,
            "durationTicks": 1536,
            "midi": 36,
            "name": "C2",
            "ticks": 158208,
            "time": 108.89860399999999,
            "velocity": 0.3700787401574803
          },
          {
            "duration": 2.114536000000001,
            "durationTicks": 3072,
            "midi": 41,
            "name": "F2",
            "ticks": 159744,
            "time": 109.95587199999999,
            "velocity": 0.3700787401574803
          },
          {
            "duration": 2.114536000000001,
            "durationTicks": 3072,
            "midi": 40,
            "name": "E2",
            "ticks": 162816,
            "time": 112.07040799999999,
            "velocity": 0.3700787401574803
          },
          {
            "duration": 2.114536000000001,
            "durationTicks": 3072,
            "midi": 38,
            "name": "D2",
            "ticks": 165888,
            "time": 114.18494399999999,
            "velocity": 0.3700787401574803
          },
          {
            "duration": 2.114536000000001,
            "durationTicks": 3072,
            "midi": 46,
            "name": "A#2",
            "ticks": 168960,
            "time": 116.29947999999999,
            "velocity": 0.3700787401574803
          },
          {
            "duration": 2.114536000000001,
            "durationTicks": 3072,
            "midi": 41,
            "name": "F2",
            "ticks": 172032,
            "time": 118.41401599999999,
            "velocity": 0.3700787401574803
          },
          {
            "duration": 2.114536000000001,
            "durationTicks": 3072,
            "midi": 40,
            "name": "E2",
            "ticks": 175104,
            "time": 120.52855199999999,
            "velocity": 0.3700787401574803
          },
          {
            "duration": 2.114535999999987,
            "durationTicks": 3072,
            "midi": 38,
            "name": "D2",
            "ticks": 178176,
            "time": 122.64308799999999,
            "velocity": 0.3700787401574803
          },
          {
            "duration": 2.114536000000001,
            "durationTicks": 3072,
            "midi": 46,
            "name": "A#2",
            "ticks": 181248,
            "time": 124.75762399999998,
            "velocity": 0.3700787401574803
          },
          {
            "duration": 2.1145360000000153,
            "durationTicks": 3072,
            "midi": 41,
            "name": "F2",
            "ticks": 184320,
            "time": 126.87215999999998,
            "velocity": 0.3700787401574803
          },
          {
            "duration": 2.114535999999987,
            "durationTicks": 3072,
            "midi": 40,
            "name": "E2",
            "ticks": 187392,
            "time": 128.986696,
            "velocity": 0.3700787401574803
          },
          {
            "duration": 2.1145360000000153,
            "durationTicks": 3072,
            "midi": 38,
            "name": "D2",
            "ticks": 190464,
            "time": 131.10123199999998,
            "velocity": 0.3700787401574803
          },
          {
            "duration": 2.114535999999987,
            "durationTicks": 3072,
            "midi": 46,
            "name": "A#2",
            "ticks": 193536,
            "time": 133.215768,
            "velocity": 0.3700787401574803
          },
          {
            "duration": 2.114535999999987,
            "durationTicks": 3072,
            "midi": 41,
            "name": "F2",
            "ticks": 196608,
            "time": 135.33030399999998,
            "velocity": 0.3700787401574803
          },
          {
            "duration": 2.1145360000000153,
            "durationTicks": 3072,
            "midi": 40,
            "name": "E2",
            "ticks": 199680,
            "time": 137.44483999999997,
            "velocity": 0.3700787401574803
          },
          {
            "duration": 2.114535999999987,
            "durationTicks": 3072,
            "midi": 38,
            "name": "D2",
            "ticks": 202752,
            "time": 139.559376,
            "velocity": 0.3700787401574803
          },
          {
            "duration": 2.643169999999998,
            "durationTicks": 3840,
            "midi": 46,
            "name": "A#2",
            "ticks": 205824,
            "time": 141.67391199999997,
            "velocity": 0.3700787401574803
          },
          {
            "duration": 2.1145360000000153,
            "durationTicks": 3072,
            "midi": 41,
            "name": "F2",
            "ticks": 209664,
            "time": 144.31708199999997,
            "velocity": 0.3700787401574803
          },
          {
            "duration": 2.643169999999998,
            "durationTicks": 3840,
            "midi": 40,
            "name": "E2",
            "ticks": 212736,
            "time": 146.431618,
            "velocity": 0.3700787401574803
          }
        ],
        "endOfTrackTicks": 216576
      }
    ]
  }